<?xml version="1.0" encoding="utf-8" standalone="no"?>
<!DOCTYPE svg PUBLIC "-//W3C//DTD SVG 1.1//EN"
  "http://www.w3.org/Graphics/SVG/1.1/DTD/svg11.dtd">
<svg xmlns:xlink="http://www.w3.org/1999/xlink" width="460.8pt" height="345.6pt" viewBox="0 0 460.8 345.6" xmlns="http://www.w3.org/2000/svg" version="1.1">
 <metadata>
  <rdf:RDF xmlns:dc="http://purl.org/dc/elements/1.1/" xmlns:cc="http://creativecommons.org/ns#" xmlns:rdf="http://www.w3.org/1999/02/22-rdf-syntax-ns#">
   <cc:Work>
    <dc:type rdf:resource="http://purl.org/dc/dcmitype/StillImage"/>
    <dc:date>2022-05-14T06:04:04.576916</dc:date>
    <dc:format>image/svg+xml</dc:format>
    <dc:creator>
     <cc:Agent>
      <dc:title>Matplotlib v3.5.1, https://matplotlib.org/</dc:title>
     </cc:Agent>
    </dc:creator>
   </cc:Work>
  </rdf:RDF>
 </metadata>
 <defs>
  <style type="text/css">*{stroke-linejoin: round; stroke-linecap: butt}</style>
 </defs>
 <g id="figure_1">
  <g id="patch_1">
   <path d="M 0 345.6 
L 460.8 345.6 
L 460.8 0 
L 0 0 
z
" style="fill: #ffffff"/>
  </g>
  <g id="axes_1">
   <g id="patch_2">
    <path d="M 57.6 162.432 
L 414.72 162.432 
L 414.72 41.472 
L 57.6 41.472 
z
" style="fill: #ffffff"/>
   </g>
   <g id="matplotlib.axis_1">
    <g id="xtick_1">
     <g id="line2d_1">
      <defs>
       <path id="m9a5a674ba6" d="M 0 0 
L 0 3.5 
" style="stroke: #000000; stroke-width: 0.8"/>
      </defs>
      <g>
       <use xlink:href="#m9a5a674ba6" x="73.827491" y="162.432" style="stroke: #000000; stroke-width: 0.8"/>
      </g>
     </g>
     <g id="text_1">
      <!-- 0 -->
      <g transform="translate(70.646241 177.030437)scale(0.1 -0.1)">
       <defs>
        <path id="DejaVuSans-30" d="M 2034 4250 
Q 1547 4250 1301 3770 
Q 1056 3291 1056 2328 
Q 1056 1369 1301 889 
Q 1547 409 2034 409 
Q 2525 409 2770 889 
Q 3016 1369 3016 2328 
Q 3016 3291 2770 3770 
Q 2525 4250 2034 4250 
z
M 2034 4750 
Q 2819 4750 3233 4129 
Q 3647 3509 3647 2328 
Q 3647 1150 3233 529 
Q 2819 -91 2034 -91 
Q 1250 -91 836 529 
Q 422 1150 422 2328 
Q 422 3509 836 4129 
Q 1250 4750 2034 4750 
z
" transform="scale(0.015625)"/>
       </defs>
       <use xlink:href="#DejaVuSans-30"/>
      </g>
     </g>
    </g>
    <g id="xtick_2">
     <g id="line2d_2">
      <g>
       <use xlink:href="#m9a5a674ba6" x="126.191972" y="162.432" style="stroke: #000000; stroke-width: 0.8"/>
      </g>
     </g>
     <g id="text_2">
      <!-- 10000 -->
      <g transform="translate(110.285722 177.030437)scale(0.1 -0.1)">
       <defs>
        <path id="DejaVuSans-31" d="M 794 531 
L 1825 531 
L 1825 4091 
L 703 3866 
L 703 4441 
L 1819 4666 
L 2450 4666 
L 2450 531 
L 3481 531 
L 3481 0 
L 794 0 
L 794 531 
z
" transform="scale(0.015625)"/>
       </defs>
       <use xlink:href="#DejaVuSans-31"/>
       <use xlink:href="#DejaVuSans-30" x="63.623047"/>
       <use xlink:href="#DejaVuSans-30" x="127.246094"/>
       <use xlink:href="#DejaVuSans-30" x="190.869141"/>
       <use xlink:href="#DejaVuSans-30" x="254.492188"/>
      </g>
     </g>
    </g>
    <g id="xtick_3">
     <g id="line2d_3">
      <g>
       <use xlink:href="#m9a5a674ba6" x="178.556453" y="162.432" style="stroke: #000000; stroke-width: 0.8"/>
      </g>
     </g>
     <g id="text_3">
      <!-- 20000 -->
      <g transform="translate(162.650203 177.030437)scale(0.1 -0.1)">
       <defs>
        <path id="DejaVuSans-32" d="M 1228 531 
L 3431 531 
L 3431 0 
L 469 0 
L 469 531 
Q 828 903 1448 1529 
Q 2069 2156 2228 2338 
Q 2531 2678 2651 2914 
Q 2772 3150 2772 3378 
Q 2772 3750 2511 3984 
Q 2250 4219 1831 4219 
Q 1534 4219 1204 4116 
Q 875 4013 500 3803 
L 500 4441 
Q 881 4594 1212 4672 
Q 1544 4750 1819 4750 
Q 2544 4750 2975 4387 
Q 3406 4025 3406 3419 
Q 3406 3131 3298 2873 
Q 3191 2616 2906 2266 
Q 2828 2175 2409 1742 
Q 1991 1309 1228 531 
z
" transform="scale(0.015625)"/>
       </defs>
       <use xlink:href="#DejaVuSans-32"/>
       <use xlink:href="#DejaVuSans-30" x="63.623047"/>
       <use xlink:href="#DejaVuSans-30" x="127.246094"/>
       <use xlink:href="#DejaVuSans-30" x="190.869141"/>
       <use xlink:href="#DejaVuSans-30" x="254.492188"/>
      </g>
     </g>
    </g>
    <g id="xtick_4">
     <g id="line2d_4">
      <g>
       <use xlink:href="#m9a5a674ba6" x="230.920934" y="162.432" style="stroke: #000000; stroke-width: 0.8"/>
      </g>
     </g>
     <g id="text_4">
      <!-- 30000 -->
      <g transform="translate(215.014684 177.030437)scale(0.1 -0.1)">
       <defs>
        <path id="DejaVuSans-33" d="M 2597 2516 
Q 3050 2419 3304 2112 
Q 3559 1806 3559 1356 
Q 3559 666 3084 287 
Q 2609 -91 1734 -91 
Q 1441 -91 1130 -33 
Q 819 25 488 141 
L 488 750 
Q 750 597 1062 519 
Q 1375 441 1716 441 
Q 2309 441 2620 675 
Q 2931 909 2931 1356 
Q 2931 1769 2642 2001 
Q 2353 2234 1838 2234 
L 1294 2234 
L 1294 2753 
L 1863 2753 
Q 2328 2753 2575 2939 
Q 2822 3125 2822 3475 
Q 2822 3834 2567 4026 
Q 2313 4219 1838 4219 
Q 1578 4219 1281 4162 
Q 984 4106 628 3988 
L 628 4550 
Q 988 4650 1302 4700 
Q 1616 4750 1894 4750 
Q 2613 4750 3031 4423 
Q 3450 4097 3450 3541 
Q 3450 3153 3228 2886 
Q 3006 2619 2597 2516 
z
" transform="scale(0.015625)"/>
       </defs>
       <use xlink:href="#DejaVuSans-33"/>
       <use xlink:href="#DejaVuSans-30" x="63.623047"/>
       <use xlink:href="#DejaVuSans-30" x="127.246094"/>
       <use xlink:href="#DejaVuSans-30" x="190.869141"/>
       <use xlink:href="#DejaVuSans-30" x="254.492188"/>
      </g>
     </g>
    </g>
    <g id="xtick_5">
     <g id="line2d_5">
      <g>
       <use xlink:href="#m9a5a674ba6" x="283.285415" y="162.432" style="stroke: #000000; stroke-width: 0.8"/>
      </g>
     </g>
     <g id="text_5">
      <!-- 40000 -->
      <g transform="translate(267.379165 177.030437)scale(0.1 -0.1)">
       <defs>
        <path id="DejaVuSans-34" d="M 2419 4116 
L 825 1625 
L 2419 1625 
L 2419 4116 
z
M 2253 4666 
L 3047 4666 
L 3047 1625 
L 3713 1625 
L 3713 1100 
L 3047 1100 
L 3047 0 
L 2419 0 
L 2419 1100 
L 313 1100 
L 313 1709 
L 2253 4666 
z
" transform="scale(0.015625)"/>
       </defs>
       <use xlink:href="#DejaVuSans-34"/>
       <use xlink:href="#DejaVuSans-30" x="63.623047"/>
       <use xlink:href="#DejaVuSans-30" x="127.246094"/>
       <use xlink:href="#DejaVuSans-30" x="190.869141"/>
       <use xlink:href="#DejaVuSans-30" x="254.492188"/>
      </g>
     </g>
    </g>
    <g id="xtick_6">
     <g id="line2d_6">
      <g>
       <use xlink:href="#m9a5a674ba6" x="335.649896" y="162.432" style="stroke: #000000; stroke-width: 0.8"/>
      </g>
     </g>
     <g id="text_6">
      <!-- 50000 -->
      <g transform="translate(319.743646 177.030437)scale(0.1 -0.1)">
       <defs>
        <path id="DejaVuSans-35" d="M 691 4666 
L 3169 4666 
L 3169 4134 
L 1269 4134 
L 1269 2991 
Q 1406 3038 1543 3061 
Q 1681 3084 1819 3084 
Q 2600 3084 3056 2656 
Q 3513 2228 3513 1497 
Q 3513 744 3044 326 
Q 2575 -91 1722 -91 
Q 1428 -91 1123 -41 
Q 819 9 494 109 
L 494 744 
Q 775 591 1075 516 
Q 1375 441 1709 441 
Q 2250 441 2565 725 
Q 2881 1009 2881 1497 
Q 2881 1984 2565 2268 
Q 2250 2553 1709 2553 
Q 1456 2553 1204 2497 
Q 953 2441 691 2322 
L 691 4666 
z
" transform="scale(0.015625)"/>
       </defs>
       <use xlink:href="#DejaVuSans-35"/>
       <use xlink:href="#DejaVuSans-30" x="63.623047"/>
       <use xlink:href="#DejaVuSans-30" x="127.246094"/>
       <use xlink:href="#DejaVuSans-30" x="190.869141"/>
       <use xlink:href="#DejaVuSans-30" x="254.492188"/>
      </g>
     </g>
    </g>
    <g id="xtick_7">
     <g id="line2d_7">
      <g>
       <use xlink:href="#m9a5a674ba6" x="388.014377" y="162.432" style="stroke: #000000; stroke-width: 0.8"/>
      </g>
     </g>
     <g id="text_7">
      <!-- 60000 -->
      <g transform="translate(372.108127 177.030437)scale(0.1 -0.1)">
       <defs>
        <path id="DejaVuSans-36" d="M 2113 2584 
Q 1688 2584 1439 2293 
Q 1191 2003 1191 1497 
Q 1191 994 1439 701 
Q 1688 409 2113 409 
Q 2538 409 2786 701 
Q 3034 994 3034 1497 
Q 3034 2003 2786 2293 
Q 2538 2584 2113 2584 
z
M 3366 4563 
L 3366 3988 
Q 3128 4100 2886 4159 
Q 2644 4219 2406 4219 
Q 1781 4219 1451 3797 
Q 1122 3375 1075 2522 
Q 1259 2794 1537 2939 
Q 1816 3084 2150 3084 
Q 2853 3084 3261 2657 
Q 3669 2231 3669 1497 
Q 3669 778 3244 343 
Q 2819 -91 2113 -91 
Q 1303 -91 875 529 
Q 447 1150 447 2328 
Q 447 3434 972 4092 
Q 1497 4750 2381 4750 
Q 2619 4750 2861 4703 
Q 3103 4656 3366 4563 
z
" transform="scale(0.015625)"/>
       </defs>
       <use xlink:href="#DejaVuSans-36"/>
       <use xlink:href="#DejaVuSans-30" x="63.623047"/>
       <use xlink:href="#DejaVuSans-30" x="127.246094"/>
       <use xlink:href="#DejaVuSans-30" x="190.869141"/>
       <use xlink:href="#DejaVuSans-30" x="254.492188"/>
      </g>
     </g>
    </g>
   </g>
   <g id="matplotlib.axis_2">
    <g id="ytick_1">
     <g id="line2d_8">
      <defs>
       <path id="mfc09162028" d="M 0 0 
L -3.5 0 
" style="stroke: #000000; stroke-width: 0.8"/>
      </defs>
      <g>
       <use xlink:href="#mfc09162028" x="57.6" y="150.284854" style="stroke: #000000; stroke-width: 0.8"/>
      </g>
     </g>
     <g id="text_8">
      <!-- 70 -->
      <g transform="translate(37.875 154.084073)scale(0.1 -0.1)">
       <defs>
        <path id="DejaVuSans-37" d="M 525 4666 
L 3525 4666 
L 3525 4397 
L 1831 0 
L 1172 0 
L 2766 4134 
L 525 4134 
L 525 4666 
z
" transform="scale(0.015625)"/>
       </defs>
       <use xlink:href="#DejaVuSans-37"/>
       <use xlink:href="#DejaVuSans-30" x="63.623047"/>
      </g>
     </g>
    </g>
    <g id="ytick_2">
     <g id="line2d_9">
      <g>
       <use xlink:href="#mfc09162028" x="57.6" y="119.597328" style="stroke: #000000; stroke-width: 0.8"/>
      </g>
     </g>
     <g id="text_9">
      <!-- 80 -->
      <g transform="translate(37.875 123.396546)scale(0.1 -0.1)">
       <defs>
        <path id="DejaVuSans-38" d="M 2034 2216 
Q 1584 2216 1326 1975 
Q 1069 1734 1069 1313 
Q 1069 891 1326 650 
Q 1584 409 2034 409 
Q 2484 409 2743 651 
Q 3003 894 3003 1313 
Q 3003 1734 2745 1975 
Q 2488 2216 2034 2216 
z
M 1403 2484 
Q 997 2584 770 2862 
Q 544 3141 544 3541 
Q 544 4100 942 4425 
Q 1341 4750 2034 4750 
Q 2731 4750 3128 4425 
Q 3525 4100 3525 3541 
Q 3525 3141 3298 2862 
Q 3072 2584 2669 2484 
Q 3125 2378 3379 2068 
Q 3634 1759 3634 1313 
Q 3634 634 3220 271 
Q 2806 -91 2034 -91 
Q 1263 -91 848 271 
Q 434 634 434 1313 
Q 434 1759 690 2068 
Q 947 2378 1403 2484 
z
M 1172 3481 
Q 1172 3119 1398 2916 
Q 1625 2713 2034 2713 
Q 2441 2713 2670 2916 
Q 2900 3119 2900 3481 
Q 2900 3844 2670 4047 
Q 2441 4250 2034 4250 
Q 1625 4250 1398 4047 
Q 1172 3844 1172 3481 
z
" transform="scale(0.015625)"/>
       </defs>
       <use xlink:href="#DejaVuSans-38"/>
       <use xlink:href="#DejaVuSans-30" x="63.623047"/>
      </g>
     </g>
    </g>
    <g id="ytick_3">
     <g id="line2d_10">
      <g>
       <use xlink:href="#mfc09162028" x="57.6" y="88.909801" style="stroke: #000000; stroke-width: 0.8"/>
      </g>
     </g>
     <g id="text_10">
      <!-- 90 -->
      <g transform="translate(37.875 92.70902)scale(0.1 -0.1)">
       <defs>
        <path id="DejaVuSans-39" d="M 703 97 
L 703 672 
Q 941 559 1184 500 
Q 1428 441 1663 441 
Q 2288 441 2617 861 
Q 2947 1281 2994 2138 
Q 2813 1869 2534 1725 
Q 2256 1581 1919 1581 
Q 1219 1581 811 2004 
Q 403 2428 403 3163 
Q 403 3881 828 4315 
Q 1253 4750 1959 4750 
Q 2769 4750 3195 4129 
Q 3622 3509 3622 2328 
Q 3622 1225 3098 567 
Q 2575 -91 1691 -91 
Q 1453 -91 1209 -44 
Q 966 3 703 97 
z
M 1959 2075 
Q 2384 2075 2632 2365 
Q 2881 2656 2881 3163 
Q 2881 3666 2632 3958 
Q 2384 4250 1959 4250 
Q 1534 4250 1286 3958 
Q 1038 3666 1038 3163 
Q 1038 2656 1286 2365 
Q 1534 2075 1959 2075 
z
" transform="scale(0.015625)"/>
       </defs>
       <use xlink:href="#DejaVuSans-39"/>
       <use xlink:href="#DejaVuSans-30" x="63.623047"/>
      </g>
     </g>
    </g>
    <g id="ytick_4">
     <g id="line2d_11">
      <g>
       <use xlink:href="#mfc09162028" x="57.6" y="58.222275" style="stroke: #000000; stroke-width: 0.8"/>
      </g>
     </g>
     <g id="text_11">
      <!-- 100 -->
      <g transform="translate(31.5125 62.021494)scale(0.1 -0.1)">
       <use xlink:href="#DejaVuSans-31"/>
       <use xlink:href="#DejaVuSans-30" x="63.623047"/>
       <use xlink:href="#DejaVuSans-30" x="127.246094"/>
      </g>
     </g>
    </g>
   </g>
   <g id="line2d_12">
    <path d="M 73.832727 58.222275 
L 73.837964 58.222275 
L 73.968875 72.543121 
L 74.021239 72.543121 
L 74.105023 75.611873 
L 74.131205 73.821767 
L 74.16786 73.821767 
L 74.288298 82.005108 
L 74.340663 82.005108 
L 74.455865 87.119696 
L 74.482047 87.119696 
L 74.597249 86.608237 
L 74.633904 86.608237 
L 74.759579 83.795214 
L 74.880017 89.932719 
L 74.89049 89.932719 
L 75.005692 93.001471 
L 75.073765 93.001471 
L 75.084238 92.234283 
L 75.089475 95.303036 
L 75.168022 95.303036 
L 75.932543 95.303036 
L 76.047745 98.371789 
L 76.80703 98.371789 
L 76.922232 97.6046 
L 77.655334 97.6046 
L 77.770536 100.673353 
L 78.037595 100.673353 
L 78.147561 98.627518 
L 78.262762 101.696271 
L 78.404146 101.696271 
L 78.519348 100.673353 
L 78.624077 100.673353 
L 78.739279 103.742106 
L 79.095358 103.742106 
L 79.210559 106.810858 
L 79.566638 106.810858 
L 79.68184 109.879611 
L 80.085046 109.879611 
L 80.200248 108.856693 
L 80.435888 108.856693 
L 80.55109 111.925446 
L 82.692797 111.925446 
L 82.807999 110.902529 
L 83.033167 110.902529 
L 83.148368 109.879611 
L 86.573005 109.879611 
L 86.688207 109.112423 
L 88.117758 109.112423 
L 88.23296 112.181175 
L 89.631091 112.181175 
L 89.746293 115.249928 
L 91.605232 115.249928 
L 91.720434 118.318681 
L 92.102695 118.318681 
L 92.217897 121.387433 
L 93.066201 121.387433 
L 93.181403 120.364516 
L 93.945924 120.364516 
L 94.061126 119.341598 
L 96.448947 119.341598 
L 96.564148 118.57441 
L 96.935936 118.57441 
L 97.051138 121.643163 
L 98.99386 121.643163 
L 99.109062 124.711915 
L 99.836929 124.711915 
L 99.95213 123.688998 
L 102.491808 123.688998 
L 102.60701 122.66608 
L 108.141935 122.66608 
L 108.257137 125.734833 
L 112.676699 125.734833 
L 112.791901 124.711915 
L 116.944404 124.711915 
L 117.059606 127.780668 
L 120.410933 127.780668 
L 120.526135 126.757751 
L 126.202445 126.757751 
L 126.317647 125.990562 
L 128.108512 125.990562 
L 128.223714 129.059315 
L 132.994118 129.059315 
L 133.10932 132.128068 
L 133.926206 132.128068 
L 134.041407 131.10515 
L 137.246114 131.10515 
L 137.361316 134.173903 
L 139.869574 134.173903 
L 139.984776 133.150985 
L 166.439312 133.150985 
L 166.554514 136.219738 
L 169.240812 136.219738 
L 169.356013 135.19682 
L 181.96538 135.19682 
L 182.080582 138.265573 
L 189.500629 138.265573 
L 189.615831 141.334326 
L 192.171218 141.334326 
L 192.28642 144.403078 
L 202.623168 144.403078 
L 202.73837 147.471831 
L 209.954196 147.471831 
L 210.069397 146.448913 
L 213.965315 146.448913 
L 214.080517 145.681725 
L 223.568961 145.681725 
L 223.684162 148.750478 
L 266.39787 148.750478 
L 266.513071 147.72756 
L 282.122923 147.72756 
L 282.238125 150.796313 
L 319.835822 150.796313 
L 319.951024 153.865066 
L 323.579883 153.865066 
L 323.695085 156.933818 
L 398.487273 156.933818 
L 398.487273 156.933818 
" clip-path="url(#p7d7d06fa5f)" style="fill: none; stroke: #1f77b4; stroke-width: 1.5; stroke-linecap: square"/>
   </g>
   <g id="line2d_13">
    <path d="M 73.832727 57.199357 
L 73.974111 77.657708 
L 74.036949 76.123332 
L 74.042185 79.192085 
L 74.07884 78.169167 
L 74.09455 78.169167 
L 74.110259 77.555416 
L 74.173096 81.135628 
L 74.178333 81.135628 
L 74.183569 81.135628 
L 74.209752 80.11271 
L 74.214988 83.181463 
L 74.283062 83.181463 
L 74.324953 83.181463 
L 74.440155 82.158545 
L 74.482047 82.158545 
L 74.602485 88.296051 
L 74.633904 88.296051 
L 74.63914 87.528863 
L 74.644377 90.597615 
L 74.72816 90.597615 
L 74.759579 90.597615 
L 74.87478 93.666368 
L 74.89049 93.666368 
L 75.005692 96.735121 
L 75.084238 96.735121 
L 75.19944 99.803873 
L 77.655334 99.803873 
L 77.770536 102.872626 
L 77.796718 102.872626 
L 77.91192 101.849708 
L 78.624077 101.849708 
L 78.739279 104.918461 
L 80.195012 104.918461 
L 80.310214 103.895543 
L 80.435888 103.895543 
L 80.55109 106.964296 
L 88.117758 106.964296 
L 88.23296 110.033049 
L 89.877204 110.033049 
L 89.992406 109.010131 
L 91.605232 109.010131 
L 91.720434 112.078884 
L 92.102695 112.078884 
L 92.217897 111.055966 
L 98.99386 111.055966 
L 99.109062 114.124719 
L 103.382004 114.124719 
L 103.497206 113.101801 
L 108.141935 113.101801 
L 108.257137 116.170554 
L 116.467888 116.170554 
L 116.58309 119.239307 
L 128.108512 119.239307 
L 128.223714 122.308059 
L 141.964153 122.308059 
L 142.079355 125.376812 
L 167.748424 125.376812 
L 167.863626 124.353894 
L 181.96538 124.353894 
L 182.080582 127.422647 
L 202.623168 127.422647 
L 202.73837 130.4914 
L 223.568961 130.4914 
L 223.621325 133.560152 
L 223.678926 132.537235 
L 282.122923 132.537235 
L 282.238125 135.605987 
L 398.487273 135.605987 
L 398.487273 135.605987 
" clip-path="url(#p7d7d06fa5f)" style="fill: none; stroke: #ff7f0e; stroke-width: 1.5; stroke-linecap: square"/>
   </g>
   <g id="line2d_14">
    <path d="M 73.832727 61.291027 
L 73.8432 61.291027 
L 73.879855 59.756651 
L 73.963638 67.428533 
L 73.968875 67.428533 
L 74.089313 74.077497 
L 74.09455 73.054579 
L 74.157387 81.493649 
L 74.16786 81.493649 
L 74.183569 80.879899 
L 74.188806 83.948651 
L 74.25688 83.948651 
L 74.324953 83.948651 
L 74.445392 91.620533 
L 74.482047 91.620533 
L 74.607722 90.086156 
L 74.633904 90.086156 
L 74.754342 88.296051 
L 74.843362 88.296051 
L 74.9638 94.433556 
L 75.084238 94.433556 
L 75.19944 97.502309 
L 76.80703 97.502309 
L 76.922232 96.735121 
L 77.472059 96.735121 
L 77.587261 99.803873 
L 78.147561 99.803873 
L 78.262762 102.872626 
L 79.095358 102.872626 
L 79.210559 105.941378 
L 80.195012 105.941378 
L 80.310214 109.010131 
L 80.435888 109.010131 
L 80.55109 108.396381 
L 83.535866 108.396381 
L 83.651067 107.373463 
L 86.573005 107.373463 
L 86.688207 106.606275 
L 88.117758 106.606275 
L 88.23296 105.583357 
L 89.631091 105.583357 
L 89.746293 108.65211 
L 89.877204 108.65211 
L 89.992406 111.720863 
L 91.605232 111.720863 
L 91.720434 110.697945 
L 92.102695 110.697945 
L 92.217897 113.766698 
L 96.448947 113.766698 
L 96.564148 112.99951 
L 96.935936 112.99951 
L 97.051138 116.068262 
L 98.072246 116.068262 
L 98.187447 119.137015 
L 98.99386 119.137015 
L 99.109062 118.369827 
L 108.141935 118.369827 
L 108.257137 117.346909 
L 116.336976 117.346909 
L 116.452178 116.323992 
L 116.467888 116.323992 
L 116.58309 115.301074 
L 116.944404 115.301074 
L 117.059606 118.369827 
L 125.469342 118.369827 
L 125.584544 121.438579 
L 126.202445 121.438579 
L 126.317647 120.671391 
L 132.994118 120.671391 
L 133.10932 123.740144 
L 141.964153 123.740144 
L 142.079355 122.972956 
L 173.210039 122.972956 
L 173.325241 126.041708 
L 175.152761 126.041708 
L 175.267963 125.018791 
L 181.96538 125.018791 
L 182.080582 123.995873 
L 189.500629 123.995873 
L 189.615831 127.064626 
L 192.171218 127.064626 
L 192.28642 130.133378 
L 202.623168 130.133378 
L 202.73837 129.110461 
L 209.425314 129.110461 
L 209.540516 132.179214 
L 213.965315 132.179214 
L 214.080517 131.412025 
L 223.568961 131.412025 
L 223.621325 130.389108 
L 223.626561 133.45786 
L 223.668453 133.45786 
L 282.122923 133.45786 
L 282.238125 132.434943 
L 319.835822 132.434943 
L 319.951024 135.503696 
L 398.487273 135.503696 
L 398.487273 135.503696 
" clip-path="url(#p7d7d06fa5f)" style="fill: none; stroke: #2ca02c; stroke-width: 1.5; stroke-linecap: square"/>
   </g>
   <g id="line2d_15">
    <path d="M 73.832727 58.222275 
L 73.874619 57.455087 
L 73.879855 60.523839 
L 73.937456 57.966545 
L 74.068367 70.241556 
L 74.07884 70.241556 
L 74.09455 69.218638 
L 74.16786 73.566038 
L 74.173096 72.952288 
L 74.183569 72.952288 
L 74.298771 76.02104 
L 74.372081 76.02104 
L 74.487283 74.486664 
L 74.576303 74.486664 
L 74.701978 70.906452 
L 74.749106 70.906452 
L 74.864308 69.883535 
L 74.979509 69.883535 
L 75.094711 67.58197 
L 75.733558 67.58197 
L 75.84876 66.047594 
L 76.80703 66.047594 
L 76.922232 69.116347 
L 77.325438 69.116347 
L 77.44064 67.58197 
L 77.796718 67.58197 
L 77.91192 70.650723 
L 78.037595 70.650723 
L 78.158033 68.604888 
L 79.362416 68.604888 
L 79.477618 67.070512 
L 80.085046 67.070512 
L 80.200248 66.047594 
L 80.435888 66.047594 
L 80.55109 65.433844 
L 83.535866 65.433844 
L 83.651067 68.502596 
L 86.573005 68.502596 
L 86.688207 71.571349 
L 90.851184 71.571349 
L 90.966385 70.036973 
L 93.066201 70.036973 
L 93.181403 69.014055 
L 93.945924 69.014055 
L 94.061126 67.991137 
L 96.448947 67.991137 
L 96.564148 71.05989 
L 99.836929 71.05989 
L 99.95213 70.036973 
L 102.491808 70.036973 
L 102.60701 69.014055 
L 103.382004 69.014055 
L 103.497206 72.082808 
L 112.676699 72.082808 
L 112.791901 71.05989 
L 116.336976 71.05989 
L 116.452178 74.128643 
L 120.410933 74.128643 
L 120.526135 73.105725 
L 126.202445 73.105725 
L 126.317647 76.174478 
L 133.926206 76.174478 
L 134.041407 75.15156 
L 139.869574 75.15156 
L 139.984776 74.128643 
L 166.119889 74.128643 
L 166.23509 72.594266 
L 167.748424 72.594266 
L 167.863626 75.663019 
L 169.240812 75.663019 
L 169.356013 74.640101 
L 175.152761 74.640101 
L 175.267963 77.708854 
L 190.44319 77.708854 
L 190.558392 76.174478 
L 209.954196 76.174478 
L 210.069397 75.15156 
L 213.965315 75.15156 
L 214.080517 78.220313 
L 216.400263 78.220313 
L 216.515465 76.685937 
L 375.211261 76.685937 
L 375.326463 75.15156 
L 398.487273 75.15156 
L 398.487273 75.15156 
" clip-path="url(#p7d7d06fa5f)" style="fill: none; stroke: #d62728; stroke-width: 1.5; stroke-linecap: square"/>
   </g>
   <g id="line2d_16">
    <path d="M 73.832727 58.222275 
L 73.853673 58.222275 
L 73.979348 52.596228 
L 74.026476 52.596228 
L 74.146914 50.038934 
L 77.796718 50.038934 
L 77.91192 49.016017 
L 103.382004 49.016017 
L 103.497206 47.993099 
L 167.748424 47.993099 
L 167.863626 46.970182 
L 398.487273 46.970182 
L 398.487273 46.970182 
" clip-path="url(#p7d7d06fa5f)" style="fill: none; stroke: #9467bd; stroke-width: 1.5; stroke-linecap: square"/>
   </g>
   <g id="line2d_17">
    <path d="M 73.832727 57.199357 
L 73.848437 57.199357 
L 73.968875 55.153522 
L 74.026476 55.153522 
L 74.089313 58.222275 
L 74.136441 55.818419 
L 76.80703 55.818419 
L 76.922232 55.05123 
L 77.796718 55.05123 
L 77.91192 58.119983 
L 80.435888 58.119983 
L 80.55109 57.506233 
L 83.535866 57.506233 
L 83.651067 56.483315 
L 86.573005 56.483315 
L 86.688207 55.716127 
L 96.448947 55.716127 
L 96.564148 54.948939 
L 103.382004 54.948939 
L 103.497206 58.017691 
L 116.336976 58.017691 
L 116.452178 56.994774 
L 126.202445 56.994774 
L 126.317647 56.227586 
L 167.748424 56.227586 
L 167.863626 59.296338 
L 175.152761 59.296338 
L 175.267963 58.273421 
L 213.965315 58.273421 
L 214.080517 57.506233 
L 398.487273 57.506233 
L 398.487273 57.506233 
" clip-path="url(#p7d7d06fa5f)" style="fill: none; stroke: #8c564b; stroke-width: 1.5; stroke-linecap: square"/>
   </g>
   <g id="line2d_18">
    <path d="M 73.832727 61.291027 
L 73.848437 58.733734 
L 73.890328 67.939992 
L 73.895565 67.939992 
L 73.942693 67.939992 
L 74.021239 74.077497 
L 74.057895 73.054579 
L 74.07884 73.054579 
L 74.089313 72.031662 
L 74.125968 83.539484 
L 74.131205 83.539484 
L 74.152151 83.539484 
L 74.16786 85.585319 
L 74.267352 81.902816 
L 74.345899 81.902816 
L 74.393027 88.040321 
L 74.461101 86.505945 
L 74.482047 86.505945 
L 74.618194 83.948651 
L 74.633904 83.948651 
L 74.759579 93.666368 
L 74.87478 92.64345 
L 74.89049 92.64345 
L 74.979509 91.620533 
L 74.984746 94.689285 
L 74.989982 94.689285 
L 75.047583 94.689285 
L 75.168022 91.364803 
L 75.267514 91.364803 
L 75.382716 89.830427 
L 75.733558 89.830427 
L 75.84876 92.89918 
L 75.932543 92.89918 
L 76.047745 91.364803 
L 76.80703 91.364803 
L 76.922232 94.433556 
L 77.325438 94.433556 
L 77.44064 97.502309 
L 77.655334 97.502309 
L 77.770536 96.479391 
L 78.037595 96.479391 
L 78.147561 102.616896 
L 78.152797 101.593979 
L 78.404146 101.593979 
L 78.519348 100.571061 
L 78.624077 100.571061 
L 78.739279 99.548144 
L 79.362416 99.548144 
L 79.477618 102.616896 
L 79.566638 102.616896 
L 79.687076 99.548144 
L 80.085046 99.548144 
L 80.200248 102.616896 
L 80.435888 102.616896 
L 80.535381 105.685649 
L 80.545854 104.151273 
L 81.001425 104.151273 
L 81.116627 102.616896 
L 82.692797 102.616896 
L 82.807999 101.593979 
L 83.033167 101.593979 
L 83.148368 100.571061 
L 83.535866 100.571061 
L 83.651067 103.639814 
L 86.573005 103.639814 
L 86.688207 106.708567 
L 88.117758 106.708567 
L 88.23296 105.685649 
L 90.851184 105.685649 
L 90.966385 108.754402 
L 91.605232 108.754402 
L 91.720434 107.731484 
L 93.066201 107.731484 
L 93.181403 110.800237 
L 93.343733 110.800237 
L 93.458935 109.26586 
L 93.945924 109.26586 
L 94.061126 112.334613 
L 96.448947 112.334613 
L 96.564148 115.403366 
L 97.061611 115.403366 
L 97.176813 113.868989 
L 98.99386 113.868989 
L 99.109062 113.101801 
L 99.836929 113.101801 
L 99.95213 116.170554 
L 101.664449 116.170554 
L 101.779651 114.636178 
L 102.491808 114.636178 
L 102.60701 117.70493 
L 108.141935 117.70493 
L 108.257137 116.682013 
L 108.786018 116.682013 
L 108.90122 115.147636 
L 112.676699 115.147636 
L 112.791901 118.216389 
L 116.336976 118.216389 
L 116.452178 121.285142 
L 116.467888 121.285142 
L 116.58309 120.262224 
L 120.410933 120.262224 
L 120.526135 123.330977 
L 125.469342 123.330977 
L 125.584544 122.308059 
L 126.202445 122.308059 
L 126.317647 125.376812 
L 128.108512 125.376812 
L 128.223714 124.353894 
L 132.994118 124.353894 
L 133.10932 123.330977 
L 133.606782 123.330977 
L 133.721984 121.7966 
L 133.926206 121.7966 
L 134.041407 124.865353 
L 135.607105 124.865353 
L 135.722307 123.330977 
L 137.246114 123.330977 
L 137.361316 121.7966 
L 139.869574 121.7966 
L 139.984776 124.865353 
L 141.964153 124.865353 
L 142.079355 124.098165 
L 166.119889 124.098165 
L 166.23509 127.166918 
L 166.439312 127.166918 
L 166.554514 125.632541 
L 169.240812 125.632541 
L 169.356013 128.701294 
L 173.210039 128.701294 
L 173.325241 127.678376 
L 175.152761 127.678376 
L 175.267963 130.747129 
L 175.2732 130.747129 
L 175.388402 129.212753 
L 180.78718 129.212753 
L 180.902381 127.678376 
L 181.96538 127.678376 
L 182.080582 126.655459 
L 190.44319 126.655459 
L 190.558392 129.724211 
L 192.171218 129.724211 
L 192.28642 128.701294 
L 202.623168 128.701294 
L 202.73837 127.678376 
L 209.954196 127.678376 
L 210.069397 130.747129 
L 213.965315 130.747129 
L 214.080517 133.815882 
L 216.400263 133.815882 
L 216.515465 136.884634 
L 223.568961 136.884634 
L 223.684162 135.861717 
L 266.39787 135.861717 
L 266.513071 134.838799 
L 282.122923 134.838799 
L 282.238125 133.815882 
L 323.579883 133.815882 
L 323.695085 132.281505 
L 375.211261 132.281505 
L 375.326463 135.350258 
L 397.701806 135.350258 
L 397.817007 133.815882 
L 398.487273 133.815882 
L 398.487273 133.815882 
" clip-path="url(#p7d7d06fa5f)" style="fill: none; stroke: #e377c2; stroke-width: 1.5; stroke-linecap: square"/>
   </g>
   <g id="line2d_19">
    <path d="M 73.832727 57.199357 
L 73.848437 57.199357 
L 73.974111 54.130605 
L 74.026476 54.130605 
L 74.089313 57.199357 
L 74.136441 54.795501 
L 74.162624 54.795501 
L 74.277825 53.261125 
L 74.345899 53.261125 
L 74.461101 51.726748 
L 74.633904 51.726748 
L 74.749106 50.95956 
L 76.80703 50.95956 
L 76.922232 50.192372 
L 77.796718 50.192372 
L 77.91192 53.261125 
L 80.435888 53.261125 
L 80.55109 52.647374 
L 83.535866 52.647374 
L 83.651067 51.624457 
L 86.573005 51.624457 
L 86.688207 50.857268 
L 96.448947 50.857268 
L 96.564148 50.09008 
L 103.382004 50.09008 
L 103.497206 53.158833 
L 116.336976 53.158833 
L 116.452178 52.135915 
L 126.202445 52.135915 
L 126.317647 51.368727 
L 167.748424 51.368727 
L 167.863626 54.43748 
L 175.152761 54.43748 
L 175.267963 53.414562 
L 213.965315 53.414562 
L 214.080517 52.647374 
L 398.487273 52.647374 
L 398.487273 52.647374 
" clip-path="url(#p7d7d06fa5f)" style="fill: none; stroke: #7f7f7f; stroke-width: 1.5; stroke-linecap: square"/>
   </g>
   <g id="line2d_20">
    <path d="M 73.832727 61.291027 
L 73.848437 58.733734 
L 73.890328 67.939992 
L 73.900801 66.917074 
L 73.906038 66.917074 
L 73.974111 63.336863 
L 74.016003 66.405615 
L 74.021239 66.405615 
L 74.089313 63.336863 
L 74.110259 68.860617 
L 74.120732 68.093429 
L 74.16786 72.185099 
L 74.230697 68.502596 
L 74.324953 68.502596 
L 74.345899 65.945302 
L 74.377318 72.082808 
L 74.424446 70.548431 
L 74.482047 70.548431 
L 74.618194 67.991137 
L 74.633904 67.991137 
L 74.759579 77.708854 
L 74.880017 75.15156 
L 74.89049 75.15156 
L 74.979509 74.128643 
L 74.984746 77.197395 
L 74.989982 77.197395 
L 75.047583 77.197395 
L 75.168022 73.872913 
L 75.267514 73.872913 
L 75.382716 72.338537 
L 75.733558 72.338537 
L 75.84876 75.40729 
L 75.932543 75.40729 
L 76.047745 73.872913 
L 76.80703 73.872913 
L 76.922232 76.941666 
L 77.325438 76.941666 
L 77.44064 80.010419 
L 77.472059 80.010419 
L 77.587261 78.476042 
L 77.655334 78.476042 
L 77.770536 77.453125 
L 78.037595 77.453125 
L 78.147561 83.59063 
L 78.152797 82.567712 
L 78.404146 82.567712 
L 78.519348 81.544795 
L 78.624077 81.544795 
L 78.739279 80.521877 
L 79.095358 80.521877 
L 79.210559 78.987501 
L 79.362416 78.987501 
L 79.477618 82.056254 
L 79.566638 82.056254 
L 79.687076 78.987501 
L 80.085046 78.987501 
L 80.195012 82.056254 
L 80.310214 81.033336 
L 80.435888 81.033336 
L 80.535381 84.102089 
L 80.545854 82.567712 
L 81.001425 82.567712 
L 81.116627 81.033336 
L 82.692797 81.033336 
L 82.807999 80.010419 
L 83.033167 80.010419 
L 83.148368 78.987501 
L 83.535866 78.987501 
L 83.651067 82.056254 
L 86.573005 82.056254 
L 86.688207 85.125006 
L 88.117758 85.125006 
L 88.23296 84.102089 
L 89.631091 84.102089 
L 89.746293 82.567712 
L 89.877204 82.567712 
L 89.992406 81.544795 
L 90.851184 81.544795 
L 90.966385 84.613548 
L 91.605232 84.613548 
L 91.720434 83.59063 
L 92.102695 83.59063 
L 92.217897 82.567712 
L 93.066201 82.567712 
L 93.181403 85.636465 
L 93.343733 85.636465 
L 93.458935 84.102089 
L 93.945924 84.102089 
L 94.061126 87.170841 
L 96.448947 87.170841 
L 96.564148 90.239594 
L 96.935936 90.239594 
L 97.051138 88.705218 
L 97.061611 88.705218 
L 97.176813 87.170841 
L 98.072246 87.170841 
L 98.187447 85.636465 
L 98.99386 85.636465 
L 99.109062 84.869277 
L 99.836929 84.869277 
L 99.95213 87.93803 
L 101.664449 87.93803 
L 101.779651 86.403653 
L 102.491808 86.403653 
L 102.60701 89.472406 
L 108.141935 89.472406 
L 108.257137 88.449488 
L 108.786018 88.449488 
L 108.90122 86.915112 
L 112.676699 86.915112 
L 112.791901 89.983865 
L 116.336976 89.983865 
L 116.452178 93.052617 
L 116.467888 93.052617 
L 116.58309 92.0297 
L 116.944404 92.0297 
L 117.059606 90.495323 
L 120.410933 90.495323 
L 120.526135 93.564076 
L 125.469342 93.564076 
L 125.584544 92.541159 
L 126.202445 92.541159 
L 126.317647 95.609911 
L 128.108512 95.609911 
L 128.223714 94.586994 
L 132.994118 94.586994 
L 133.10932 93.564076 
L 133.606782 93.564076 
L 133.721984 92.0297 
L 133.926206 92.0297 
L 134.041407 95.098452 
L 135.607105 95.098452 
L 135.722307 93.564076 
L 137.246114 93.564076 
L 137.361316 92.0297 
L 139.869574 92.0297 
L 139.984776 95.098452 
L 141.964153 95.098452 
L 142.079355 94.331264 
L 166.119889 94.331264 
L 166.23509 97.400017 
L 166.439312 97.400017 
L 166.554514 95.865641 
L 169.240812 95.865641 
L 169.356013 98.934393 
L 173.210039 98.934393 
L 173.325241 97.911476 
L 175.152761 97.911476 
L 175.267963 100.980228 
L 175.2732 100.980228 
L 175.388402 99.445852 
L 180.78718 99.445852 
L 180.902381 97.911476 
L 181.96538 97.911476 
L 182.080582 96.888558 
L 189.500629 96.888558 
L 189.615831 95.354182 
L 190.44319 95.354182 
L 190.558392 98.422934 
L 192.171218 98.422934 
L 192.28642 97.400017 
L 202.623168 97.400017 
L 202.73837 96.377099 
L 209.425314 96.377099 
L 209.540516 94.842723 
L 209.954196 94.842723 
L 210.069397 97.911476 
L 213.965315 97.911476 
L 214.080517 100.980228 
L 216.400263 100.980228 
L 216.515465 104.048981 
L 223.568961 104.048981 
L 223.689399 102.003146 
L 266.39787 102.003146 
L 266.513071 100.980228 
L 282.122923 100.980228 
L 282.238125 99.957311 
L 319.835822 99.957311 
L 319.951024 98.422934 
L 323.579883 98.422934 
L 323.695085 96.888558 
L 375.211261 96.888558 
L 375.326463 99.957311 
L 397.701806 99.957311 
L 397.817007 98.422934 
L 398.487273 98.422934 
L 398.487273 98.422934 
" clip-path="url(#p7d7d06fa5f)" style="fill: none; stroke: #bcbd22; stroke-width: 1.5; stroke-linecap: square"/>
   </g>
   <g id="line2d_21">
    <path d="M 73.832727 58.222275 
L 73.853673 55.664981 
L 73.879855 64.871239 
L 73.921747 60.779569 
L 73.937456 60.779569 
L 74.057895 71.008744 
L 74.063131 69.985827 
L 74.07884 69.985827 
L 74.204515 80.266148 
L 74.209752 80.266148 
L 74.33019 78.220313 
L 74.340663 78.220313 
L 74.345899 76.685937 
L 74.351136 79.754689 
L 74.445392 78.731772 
L 74.482047 78.731772 
L 74.576303 78.220313 
L 74.65485 84.357818 
L 74.691505 81.800524 
L 74.712451 81.800524 
L 74.749106 84.869277 
L 74.822416 82.823442 
L 74.843362 82.823442 
L 74.958564 80.266148 
L 74.979509 80.266148 
L 75.047583 78.731772 
L 75.05282 81.800524 
L 75.073765 81.800524 
L 75.084238 84.869277 
L 75.183731 83.846359 
L 75.267514 83.846359 
L 75.382716 86.915112 
L 75.733558 86.915112 
L 75.84876 85.380736 
L 75.932543 85.380736 
L 76.047745 88.449488 
L 76.80703 88.449488 
L 76.922232 91.518241 
L 77.325438 91.518241 
L 77.44064 89.983865 
L 77.472059 89.983865 
L 77.587261 88.449488 
L 77.655334 88.449488 
L 77.770536 87.426571 
L 77.796718 87.426571 
L 77.91192 90.495323 
L 78.037595 90.495323 
L 78.16327 87.426571 
L 78.404146 87.426571 
L 78.519348 90.495323 
L 78.624077 90.495323 
L 78.739279 89.472406 
L 79.095358 89.472406 
L 79.210559 87.93803 
L 79.362416 87.93803 
L 79.477618 86.403653 
L 79.566638 86.403653 
L 79.687076 92.541159 
L 80.085046 92.541159 
L 80.205485 90.495323 
L 80.435888 90.495323 
L 80.535381 89.881573 
L 80.650583 92.950326 
L 81.001425 92.950326 
L 81.116627 96.019078 
L 82.692797 96.019078 
L 82.807999 99.087831 
L 83.033167 99.087831 
L 83.148368 102.156584 
L 83.535866 102.156584 
L 83.651067 105.225336 
L 86.573005 105.225336 
L 86.688207 108.294089 
L 89.631091 108.294089 
L 89.746293 106.759712 
L 89.877204 106.759712 
L 89.992406 105.736795 
L 90.851184 105.736795 
L 90.966385 104.202419 
L 92.102695 104.202419 
L 92.217897 103.179501 
L 93.066201 103.179501 
L 93.181403 102.156584 
L 93.343733 102.156584 
L 93.458935 105.225336 
L 93.945924 105.225336 
L 94.061126 104.202419 
L 96.448947 104.202419 
L 96.564148 107.271171 
L 96.935936 107.271171 
L 97.051138 105.736795 
L 97.061611 105.736795 
L 97.176813 108.805548 
L 98.072246 108.805548 
L 98.187447 107.271171 
L 98.99386 107.271171 
L 99.109062 106.503983 
L 99.836929 106.503983 
L 99.95213 105.481066 
L 101.664449 105.481066 
L 101.779651 108.549818 
L 102.491808 108.549818 
L 102.60701 107.526901 
L 103.382004 107.526901 
L 103.497206 110.595653 
L 108.786018 110.595653 
L 108.90122 113.664406 
L 112.676699 113.664406 
L 112.791901 112.641488 
L 116.336976 112.641488 
L 116.452178 115.710241 
L 116.944404 115.710241 
L 117.059606 114.175865 
L 120.410933 114.175865 
L 120.526135 113.152947 
L 125.469342 113.152947 
L 125.584544 112.13003 
L 126.202445 112.13003 
L 126.317647 115.198782 
L 128.108512 115.198782 
L 128.223714 114.175865 
L 132.994118 114.175865 
L 133.10932 113.152947 
L 133.606782 113.152947 
L 133.721984 116.2217 
L 133.926206 116.2217 
L 134.041407 115.198782 
L 135.607105 115.198782 
L 135.722307 118.267535 
L 137.246114 118.267535 
L 137.361316 121.336288 
L 139.869574 121.336288 
L 139.984776 120.31337 
L 141.964153 120.31337 
L 142.079355 119.546182 
L 166.119889 119.546182 
L 166.23509 118.011805 
L 166.439312 118.011805 
L 166.554514 121.080558 
L 167.748424 121.080558 
L 167.863626 124.149311 
L 169.240812 124.149311 
L 169.356013 123.126393 
L 173.210039 123.126393 
L 173.325241 122.103476 
L 175.152761 122.103476 
L 175.267963 125.172228 
L 175.2732 125.172228 
L 175.388402 128.240981 
L 180.78718 128.240981 
L 180.902381 131.309734 
L 189.500629 131.309734 
L 189.615831 129.775357 
L 190.44319 129.775357 
L 190.558392 128.240981 
L 192.171218 128.240981 
L 192.28642 127.218063 
L 209.425314 127.218063 
L 209.540516 125.683687 
L 209.954196 125.683687 
L 210.069397 124.66077 
L 213.965315 124.66077 
L 214.080517 127.729522 
L 216.400263 127.729522 
L 216.515465 126.195146 
L 223.621325 126.195146 
L 223.736527 125.172228 
L 266.39787 125.172228 
L 266.513071 128.240981 
L 319.835822 128.240981 
L 319.951024 126.706605 
L 323.579883 126.706605 
L 323.695085 129.775357 
L 375.211261 129.775357 
L 375.326463 128.240981 
L 397.701806 128.240981 
L 397.817007 131.309734 
L 398.487273 131.309734 
L 398.487273 131.309734 
" clip-path="url(#p7d7d06fa5f)" style="fill: none; stroke: #17becf; stroke-width: 1.5; stroke-linecap: square"/>
   </g>
   <g id="line2d_22">
    <path d="M 73.832727 61.291027 
L 73.848437 61.291027 
L 73.968875 67.428533 
L 74.026476 67.428533 
L 74.089313 66.405615 
L 74.099786 72.543121 
L 74.105023 72.543121 
L 74.220224 75.611873 
L 76.80703 75.611873 
L 76.922232 78.680626 
L 77.796718 78.680626 
L 77.91192 77.657708 
L 80.435888 77.657708 
L 80.55109 80.726461 
L 83.535866 80.726461 
L 83.651067 83.795214 
L 86.573005 83.795214 
L 86.688207 86.863966 
L 96.448947 86.863966 
L 96.564148 89.932719 
L 103.382004 89.932719 
L 103.497206 88.909801 
L 116.336976 88.909801 
L 116.452178 91.978554 
L 126.202445 91.978554 
L 126.317647 95.047307 
L 167.748424 95.047307 
L 167.863626 94.024389 
L 175.152761 94.024389 
L 175.267963 97.093142 
L 213.965315 97.093142 
L 214.080517 100.161894 
L 398.487273 100.161894 
L 398.487273 100.161894 
" clip-path="url(#p7d7d06fa5f)" style="fill: none; stroke: #1f77b4; stroke-width: 1.5; stroke-linecap: square"/>
   </g>
   <g id="line2d_23">
    <path d="M 73.832727 58.222275 
L 73.837964 58.222275 
L 73.979348 53.363416 
L 74.345899 53.363416 
L 74.461101 56.432169 
L 74.633904 56.432169 
L 74.749106 59.500922 
L 398.487273 59.500922 
L 398.487273 59.500922 
" clip-path="url(#p7d7d06fa5f)" style="fill: none; stroke: #ff7f0e; stroke-width: 1.5; stroke-linecap: square"/>
   </g>
   <g id="patch_3">
    <path d="M 57.6 162.432 
L 57.6 41.472 
" style="fill: none; stroke: #000000; stroke-width: 0.8; stroke-linejoin: miter; stroke-linecap: square"/>
   </g>
   <g id="patch_4">
    <path d="M 414.72 162.432 
L 414.72 41.472 
" style="fill: none; stroke: #000000; stroke-width: 0.8; stroke-linejoin: miter; stroke-linecap: square"/>
   </g>
   <g id="patch_5">
    <path d="M 57.6 162.432 
L 414.72 162.432 
" style="fill: none; stroke: #000000; stroke-width: 0.8; stroke-linejoin: miter; stroke-linecap: square"/>
   </g>
   <g id="patch_6">
    <path d="M 57.6 41.472 
L 414.72 41.472 
" style="fill: none; stroke: #000000; stroke-width: 0.8; stroke-linejoin: miter; stroke-linecap: square"/>
   </g>
   <g id="text_12">
    <!-- WSP -->
    <g transform="translate(361.832136 156.933818)scale(0.08 -0.08)">
     <defs>
      <path id="DejaVuSans-57" d="M 213 4666 
L 850 4666 
L 1831 722 
L 2809 4666 
L 3519 4666 
L 4500 722 
L 5478 4666 
L 6119 4666 
L 4947 0 
L 4153 0 
L 3169 4050 
L 2175 0 
L 1381 0 
L 213 4666 
z
" transform="scale(0.015625)"/>
      <path id="DejaVuSans-53" d="M 3425 4513 
L 3425 3897 
Q 3066 4069 2747 4153 
Q 2428 4238 2131 4238 
Q 1616 4238 1336 4038 
Q 1056 3838 1056 3469 
Q 1056 3159 1242 3001 
Q 1428 2844 1947 2747 
L 2328 2669 
Q 3034 2534 3370 2195 
Q 3706 1856 3706 1288 
Q 3706 609 3251 259 
Q 2797 -91 1919 -91 
Q 1588 -91 1214 -16 
Q 841 59 441 206 
L 441 856 
Q 825 641 1194 531 
Q 1563 422 1919 422 
Q 2459 422 2753 634 
Q 3047 847 3047 1241 
Q 3047 1584 2836 1778 
Q 2625 1972 2144 2069 
L 1759 2144 
Q 1053 2284 737 2584 
Q 422 2884 422 3419 
Q 422 4038 858 4394 
Q 1294 4750 2059 4750 
Q 2388 4750 2728 4690 
Q 3069 4631 3425 4513 
z
" transform="scale(0.015625)"/>
      <path id="DejaVuSans-50" d="M 1259 4147 
L 1259 2394 
L 2053 2394 
Q 2494 2394 2734 2622 
Q 2975 2850 2975 3272 
Q 2975 3691 2734 3919 
Q 2494 4147 2053 4147 
L 1259 4147 
z
M 628 4666 
L 2053 4666 
Q 2838 4666 3239 4311 
Q 3641 3956 3641 3272 
Q 3641 2581 3239 2228 
Q 2838 1875 2053 1875 
L 1259 1875 
L 1259 0 
L 628 0 
L 628 4666 
z
" transform="scale(0.015625)"/>
     </defs>
     <use xlink:href="#DejaVuSans-57"/>
     <use xlink:href="#DejaVuSans-53" x="98.876953"/>
     <use xlink:href="#DejaVuSans-50" x="162.353516"/>
    </g>
   </g>
   <g id="text_13">
    <!-- Iambic -->
    <g transform="translate(361.832136 135.605987)scale(0.08 -0.08)">
     <defs>
      <path id="DejaVuSans-49" d="M 628 4666 
L 1259 4666 
L 1259 0 
L 628 0 
L 628 4666 
z
" transform="scale(0.015625)"/>
      <path id="DejaVuSans-61" d="M 2194 1759 
Q 1497 1759 1228 1600 
Q 959 1441 959 1056 
Q 959 750 1161 570 
Q 1363 391 1709 391 
Q 2188 391 2477 730 
Q 2766 1069 2766 1631 
L 2766 1759 
L 2194 1759 
z
M 3341 1997 
L 3341 0 
L 2766 0 
L 2766 531 
Q 2569 213 2275 61 
Q 1981 -91 1556 -91 
Q 1019 -91 701 211 
Q 384 513 384 1019 
Q 384 1609 779 1909 
Q 1175 2209 1959 2209 
L 2766 2209 
L 2766 2266 
Q 2766 2663 2505 2880 
Q 2244 3097 1772 3097 
Q 1472 3097 1187 3025 
Q 903 2953 641 2809 
L 641 3341 
Q 956 3463 1253 3523 
Q 1550 3584 1831 3584 
Q 2591 3584 2966 3190 
Q 3341 2797 3341 1997 
z
" transform="scale(0.015625)"/>
      <path id="DejaVuSans-6d" d="M 3328 2828 
Q 3544 3216 3844 3400 
Q 4144 3584 4550 3584 
Q 5097 3584 5394 3201 
Q 5691 2819 5691 2113 
L 5691 0 
L 5113 0 
L 5113 2094 
Q 5113 2597 4934 2840 
Q 4756 3084 4391 3084 
Q 3944 3084 3684 2787 
Q 3425 2491 3425 1978 
L 3425 0 
L 2847 0 
L 2847 2094 
Q 2847 2600 2669 2842 
Q 2491 3084 2119 3084 
Q 1678 3084 1418 2786 
Q 1159 2488 1159 1978 
L 1159 0 
L 581 0 
L 581 3500 
L 1159 3500 
L 1159 2956 
Q 1356 3278 1631 3431 
Q 1906 3584 2284 3584 
Q 2666 3584 2933 3390 
Q 3200 3197 3328 2828 
z
" transform="scale(0.015625)"/>
      <path id="DejaVuSans-62" d="M 3116 1747 
Q 3116 2381 2855 2742 
Q 2594 3103 2138 3103 
Q 1681 3103 1420 2742 
Q 1159 2381 1159 1747 
Q 1159 1113 1420 752 
Q 1681 391 2138 391 
Q 2594 391 2855 752 
Q 3116 1113 3116 1747 
z
M 1159 2969 
Q 1341 3281 1617 3432 
Q 1894 3584 2278 3584 
Q 2916 3584 3314 3078 
Q 3713 2572 3713 1747 
Q 3713 922 3314 415 
Q 2916 -91 2278 -91 
Q 1894 -91 1617 61 
Q 1341 213 1159 525 
L 1159 0 
L 581 0 
L 581 4863 
L 1159 4863 
L 1159 2969 
z
" transform="scale(0.015625)"/>
      <path id="DejaVuSans-69" d="M 603 3500 
L 1178 3500 
L 1178 0 
L 603 0 
L 603 3500 
z
M 603 4863 
L 1178 4863 
L 1178 4134 
L 603 4134 
L 603 4863 
z
" transform="scale(0.015625)"/>
      <path id="DejaVuSans-63" d="M 3122 3366 
L 3122 2828 
Q 2878 2963 2633 3030 
Q 2388 3097 2138 3097 
Q 1578 3097 1268 2742 
Q 959 2388 959 1747 
Q 959 1106 1268 751 
Q 1578 397 2138 397 
Q 2388 397 2633 464 
Q 2878 531 3122 666 
L 3122 134 
Q 2881 22 2623 -34 
Q 2366 -91 2075 -91 
Q 1284 -91 818 406 
Q 353 903 353 1747 
Q 353 2603 823 3093 
Q 1294 3584 2113 3584 
Q 2378 3584 2631 3529 
Q 2884 3475 3122 3366 
z
" transform="scale(0.015625)"/>
     </defs>
     <use xlink:href="#DejaVuSans-49"/>
     <use xlink:href="#DejaVuSans-61" x="29.492188"/>
     <use xlink:href="#DejaVuSans-6d" x="90.771484"/>
     <use xlink:href="#DejaVuSans-62" x="188.183594"/>
     <use xlink:href="#DejaVuSans-69" x="251.660156"/>
     <use xlink:href="#DejaVuSans-63" x="279.443359"/>
    </g>
   </g>
   <g id="text_14">
    <!-- Parse -->
    <g transform="translate(361.832136 135.503696)scale(0.08 -0.08)">
     <defs>
      <path id="DejaVuSans-72" d="M 2631 2963 
Q 2534 3019 2420 3045 
Q 2306 3072 2169 3072 
Q 1681 3072 1420 2755 
Q 1159 2438 1159 1844 
L 1159 0 
L 581 0 
L 581 3500 
L 1159 3500 
L 1159 2956 
Q 1341 3275 1631 3429 
Q 1922 3584 2338 3584 
Q 2397 3584 2469 3576 
Q 2541 3569 2628 3553 
L 2631 2963 
z
" transform="scale(0.015625)"/>
      <path id="DejaVuSans-73" d="M 2834 3397 
L 2834 2853 
Q 2591 2978 2328 3040 
Q 2066 3103 1784 3103 
Q 1356 3103 1142 2972 
Q 928 2841 928 2578 
Q 928 2378 1081 2264 
Q 1234 2150 1697 2047 
L 1894 2003 
Q 2506 1872 2764 1633 
Q 3022 1394 3022 966 
Q 3022 478 2636 193 
Q 2250 -91 1575 -91 
Q 1294 -91 989 -36 
Q 684 19 347 128 
L 347 722 
Q 666 556 975 473 
Q 1284 391 1588 391 
Q 1994 391 2212 530 
Q 2431 669 2431 922 
Q 2431 1156 2273 1281 
Q 2116 1406 1581 1522 
L 1381 1569 
Q 847 1681 609 1914 
Q 372 2147 372 2553 
Q 372 3047 722 3315 
Q 1072 3584 1716 3584 
Q 2034 3584 2315 3537 
Q 2597 3491 2834 3397 
z
" transform="scale(0.015625)"/>
      <path id="DejaVuSans-65" d="M 3597 1894 
L 3597 1613 
L 953 1613 
Q 991 1019 1311 708 
Q 1631 397 2203 397 
Q 2534 397 2845 478 
Q 3156 559 3463 722 
L 3463 178 
Q 3153 47 2828 -22 
Q 2503 -91 2169 -91 
Q 1331 -91 842 396 
Q 353 884 353 1716 
Q 353 2575 817 3079 
Q 1281 3584 2069 3584 
Q 2775 3584 3186 3129 
Q 3597 2675 3597 1894 
z
M 3022 2063 
Q 3016 2534 2758 2815 
Q 2500 3097 2075 3097 
Q 1594 3097 1305 2825 
Q 1016 2553 972 2059 
L 3022 2063 
z
" transform="scale(0.015625)"/>
     </defs>
     <use xlink:href="#DejaVuSans-50"/>
     <use xlink:href="#DejaVuSans-61" x="55.802734"/>
     <use xlink:href="#DejaVuSans-72" x="117.082031"/>
     <use xlink:href="#DejaVuSans-73" x="158.195312"/>
     <use xlink:href="#DejaVuSans-65" x="210.294922"/>
    </g>
   </g>
   <g id="text_15">
    <!-- FootBin -->
    <g transform="translate(361.832136 75.15156)scale(0.08 -0.08)">
     <defs>
      <path id="DejaVuSans-46" d="M 628 4666 
L 3309 4666 
L 3309 4134 
L 1259 4134 
L 1259 2759 
L 3109 2759 
L 3109 2228 
L 1259 2228 
L 1259 0 
L 628 0 
L 628 4666 
z
" transform="scale(0.015625)"/>
      <path id="DejaVuSans-6f" d="M 1959 3097 
Q 1497 3097 1228 2736 
Q 959 2375 959 1747 
Q 959 1119 1226 758 
Q 1494 397 1959 397 
Q 2419 397 2687 759 
Q 2956 1122 2956 1747 
Q 2956 2369 2687 2733 
Q 2419 3097 1959 3097 
z
M 1959 3584 
Q 2709 3584 3137 3096 
Q 3566 2609 3566 1747 
Q 3566 888 3137 398 
Q 2709 -91 1959 -91 
Q 1206 -91 779 398 
Q 353 888 353 1747 
Q 353 2609 779 3096 
Q 1206 3584 1959 3584 
z
" transform="scale(0.015625)"/>
      <path id="DejaVuSans-74" d="M 1172 4494 
L 1172 3500 
L 2356 3500 
L 2356 3053 
L 1172 3053 
L 1172 1153 
Q 1172 725 1289 603 
Q 1406 481 1766 481 
L 2356 481 
L 2356 0 
L 1766 0 
Q 1100 0 847 248 
Q 594 497 594 1153 
L 594 3053 
L 172 3053 
L 172 3500 
L 594 3500 
L 594 4494 
L 1172 4494 
z
" transform="scale(0.015625)"/>
      <path id="DejaVuSans-42" d="M 1259 2228 
L 1259 519 
L 2272 519 
Q 2781 519 3026 730 
Q 3272 941 3272 1375 
Q 3272 1813 3026 2020 
Q 2781 2228 2272 2228 
L 1259 2228 
z
M 1259 4147 
L 1259 2741 
L 2194 2741 
Q 2656 2741 2882 2914 
Q 3109 3088 3109 3444 
Q 3109 3797 2882 3972 
Q 2656 4147 2194 4147 
L 1259 4147 
z
M 628 4666 
L 2241 4666 
Q 2963 4666 3353 4366 
Q 3744 4066 3744 3513 
Q 3744 3084 3544 2831 
Q 3344 2578 2956 2516 
Q 3422 2416 3680 2098 
Q 3938 1781 3938 1306 
Q 3938 681 3513 340 
Q 3088 0 2303 0 
L 628 0 
L 628 4666 
z
" transform="scale(0.015625)"/>
      <path id="DejaVuSans-6e" d="M 3513 2113 
L 3513 0 
L 2938 0 
L 2938 2094 
Q 2938 2591 2744 2837 
Q 2550 3084 2163 3084 
Q 1697 3084 1428 2787 
Q 1159 2491 1159 1978 
L 1159 0 
L 581 0 
L 581 3500 
L 1159 3500 
L 1159 2956 
Q 1366 3272 1645 3428 
Q 1925 3584 2291 3584 
Q 2894 3584 3203 3211 
Q 3513 2838 3513 2113 
z
" transform="scale(0.015625)"/>
     </defs>
     <use xlink:href="#DejaVuSans-46"/>
     <use xlink:href="#DejaVuSans-6f" x="53.894531"/>
     <use xlink:href="#DejaVuSans-6f" x="115.076172"/>
     <use xlink:href="#DejaVuSans-74" x="176.257812"/>
     <use xlink:href="#DejaVuSans-42" x="215.466797"/>
     <use xlink:href="#DejaVuSans-69" x="284.070312"/>
     <use xlink:href="#DejaVuSans-6e" x="311.853516"/>
    </g>
   </g>
   <g id="text_16">
    <!-- WFL -->
    <g transform="translate(361.832136 46.970182)scale(0.08 -0.08)">
     <defs>
      <path id="DejaVuSans-4c" d="M 628 4666 
L 1259 4666 
L 1259 531 
L 3531 531 
L 3531 0 
L 628 0 
L 628 4666 
z
" transform="scale(0.015625)"/>
     </defs>
     <use xlink:href="#DejaVuSans-57"/>
     <use xlink:href="#DejaVuSans-46" x="98.876953"/>
     <use xlink:href="#DejaVuSans-4c" x="156.396484"/>
    </g>
   </g>
   <g id="text_17">
    <!-- WFR -->
    <g transform="translate(361.832136 57.506233)scale(0.08 -0.08)">
     <defs>
      <path id="DejaVuSans-52" d="M 2841 2188 
Q 3044 2119 3236 1894 
Q 3428 1669 3622 1275 
L 4263 0 
L 3584 0 
L 2988 1197 
Q 2756 1666 2539 1819 
Q 2322 1972 1947 1972 
L 1259 1972 
L 1259 0 
L 628 0 
L 628 4666 
L 2053 4666 
Q 2853 4666 3247 4331 
Q 3641 3997 3641 3322 
Q 3641 2881 3436 2590 
Q 3231 2300 2841 2188 
z
M 1259 4147 
L 1259 2491 
L 2053 2491 
Q 2509 2491 2742 2702 
Q 2975 2913 2975 3322 
Q 2975 3731 2742 3939 
Q 2509 4147 2053 4147 
L 1259 4147 
z
" transform="scale(0.015625)"/>
     </defs>
     <use xlink:href="#DejaVuSans-57"/>
     <use xlink:href="#DejaVuSans-46" x="98.876953"/>
     <use xlink:href="#DejaVuSans-52" x="156.396484"/>
    </g>
   </g>
   <g id="text_18">
    <!-- Main-L -->
    <g transform="translate(361.832136 133.815882)scale(0.08 -0.08)">
     <defs>
      <path id="DejaVuSans-4d" d="M 628 4666 
L 1569 4666 
L 2759 1491 
L 3956 4666 
L 4897 4666 
L 4897 0 
L 4281 0 
L 4281 4097 
L 3078 897 
L 2444 897 
L 1241 4097 
L 1241 0 
L 628 0 
L 628 4666 
z
" transform="scale(0.015625)"/>
      <path id="DejaVuSans-2d" d="M 313 2009 
L 1997 2009 
L 1997 1497 
L 313 1497 
L 313 2009 
z
" transform="scale(0.015625)"/>
     </defs>
     <use xlink:href="#DejaVuSans-4d"/>
     <use xlink:href="#DejaVuSans-61" x="86.279297"/>
     <use xlink:href="#DejaVuSans-69" x="147.558594"/>
     <use xlink:href="#DejaVuSans-6e" x="175.341797"/>
     <use xlink:href="#DejaVuSans-2d" x="238.720703"/>
     <use xlink:href="#DejaVuSans-4c" x="274.804688"/>
    </g>
   </g>
   <g id="text_19">
    <!-- Main-R -->
    <g transform="translate(361.832136 52.647374)scale(0.08 -0.08)">
     <use xlink:href="#DejaVuSans-4d"/>
     <use xlink:href="#DejaVuSans-61" x="86.279297"/>
     <use xlink:href="#DejaVuSans-69" x="147.558594"/>
     <use xlink:href="#DejaVuSans-6e" x="175.341797"/>
     <use xlink:href="#DejaVuSans-2d" x="238.720703"/>
     <use xlink:href="#DejaVuSans-52" x="274.804688"/>
    </g>
   </g>
   <g id="text_20">
    <!-- AFL -->
    <g transform="translate(361.832136 98.422934)scale(0.08 -0.08)">
     <defs>
      <path id="DejaVuSans-41" d="M 2188 4044 
L 1331 1722 
L 3047 1722 
L 2188 4044 
z
M 1831 4666 
L 2547 4666 
L 4325 0 
L 3669 0 
L 3244 1197 
L 1141 1197 
L 716 0 
L 50 0 
L 1831 4666 
z
" transform="scale(0.015625)"/>
     </defs>
     <use xlink:href="#DejaVuSans-41"/>
     <use xlink:href="#DejaVuSans-46" x="68.408203"/>
     <use xlink:href="#DejaVuSans-4c" x="125.927734"/>
    </g>
   </g>
   <g id="text_21">
    <!-- AFR -->
    <g transform="translate(361.832136 131.309734)scale(0.08 -0.08)">
     <use xlink:href="#DejaVuSans-41"/>
     <use xlink:href="#DejaVuSans-46" x="68.408203"/>
     <use xlink:href="#DejaVuSans-52" x="125.927734"/>
    </g>
   </g>
   <g id="text_22">
    <!-- Nonfinal -->
    <g transform="translate(361.832136 100.161894)scale(0.08 -0.08)">
     <defs>
      <path id="DejaVuSans-4e" d="M 628 4666 
L 1478 4666 
L 3547 763 
L 3547 4666 
L 4159 4666 
L 4159 0 
L 3309 0 
L 1241 3903 
L 1241 0 
L 628 0 
L 628 4666 
z
" transform="scale(0.015625)"/>
      <path id="DejaVuSans-66" d="M 2375 4863 
L 2375 4384 
L 1825 4384 
Q 1516 4384 1395 4259 
Q 1275 4134 1275 3809 
L 1275 3500 
L 2222 3500 
L 2222 3053 
L 1275 3053 
L 1275 0 
L 697 0 
L 697 3053 
L 147 3053 
L 147 3500 
L 697 3500 
L 697 3744 
Q 697 4328 969 4595 
Q 1241 4863 1831 4863 
L 2375 4863 
z
" transform="scale(0.015625)"/>
      <path id="DejaVuSans-6c" d="M 603 4863 
L 1178 4863 
L 1178 0 
L 603 0 
L 603 4863 
z
" transform="scale(0.015625)"/>
     </defs>
     <use xlink:href="#DejaVuSans-4e"/>
     <use xlink:href="#DejaVuSans-6f" x="74.804688"/>
     <use xlink:href="#DejaVuSans-6e" x="135.986328"/>
     <use xlink:href="#DejaVuSans-66" x="199.365234"/>
     <use xlink:href="#DejaVuSans-69" x="234.570312"/>
     <use xlink:href="#DejaVuSans-6e" x="262.353516"/>
     <use xlink:href="#DejaVuSans-61" x="325.732422"/>
     <use xlink:href="#DejaVuSans-6c" x="387.011719"/>
    </g>
   </g>
   <g id="text_23">
    <!-- Trochaic -->
    <g transform="translate(361.832136 59.500922)scale(0.08 -0.08)">
     <defs>
      <path id="DejaVuSans-54" d="M -19 4666 
L 3928 4666 
L 3928 4134 
L 2272 4134 
L 2272 0 
L 1638 0 
L 1638 4134 
L -19 4134 
L -19 4666 
z
" transform="scale(0.015625)"/>
      <path id="DejaVuSans-68" d="M 3513 2113 
L 3513 0 
L 2938 0 
L 2938 2094 
Q 2938 2591 2744 2837 
Q 2550 3084 2163 3084 
Q 1697 3084 1428 2787 
Q 1159 2491 1159 1978 
L 1159 0 
L 581 0 
L 581 4863 
L 1159 4863 
L 1159 2956 
Q 1366 3272 1645 3428 
Q 1925 3584 2291 3584 
Q 2894 3584 3203 3211 
Q 3513 2838 3513 2113 
z
" transform="scale(0.015625)"/>
     </defs>
     <use xlink:href="#DejaVuSans-54"/>
     <use xlink:href="#DejaVuSans-72" x="46.333984"/>
     <use xlink:href="#DejaVuSans-6f" x="85.197266"/>
     <use xlink:href="#DejaVuSans-63" x="146.378906"/>
     <use xlink:href="#DejaVuSans-68" x="201.359375"/>
     <use xlink:href="#DejaVuSans-61" x="264.738281"/>
     <use xlink:href="#DejaVuSans-69" x="326.017578"/>
     <use xlink:href="#DejaVuSans-63" x="353.800781"/>
    </g>
   </g>
  </g>
  <g id="axes_2">
   <g id="patch_7">
    <path d="M 57.6 307.584 
L 414.72 307.584 
L 414.72 186.624 
L 57.6 186.624 
z
" style="fill: #ffffff"/>
   </g>
   <g id="matplotlib.axis_3">
    <g id="xtick_8">
     <g id="line2d_24">
      <g>
       <use xlink:href="#m9a5a674ba6" x="71.480158" y="307.584" style="stroke: #000000; stroke-width: 0.8"/>
      </g>
     </g>
     <g id="text_24">
      <!-- 0 -->
      <g transform="translate(68.298908 322.182437)scale(0.1 -0.1)">
       <use xlink:href="#DejaVuSans-30"/>
      </g>
     </g>
    </g>
    <g id="xtick_9">
     <g id="line2d_25">
      <g>
       <use xlink:href="#m9a5a674ba6" x="118.531542" y="307.584" style="stroke: #000000; stroke-width: 0.8"/>
      </g>
     </g>
     <g id="text_25">
      <!-- 20 -->
      <g transform="translate(112.169042 322.182437)scale(0.1 -0.1)">
       <use xlink:href="#DejaVuSans-32"/>
       <use xlink:href="#DejaVuSans-30" x="63.623047"/>
      </g>
     </g>
    </g>
    <g id="xtick_10">
     <g id="line2d_26">
      <g>
       <use xlink:href="#m9a5a674ba6" x="165.582925" y="307.584" style="stroke: #000000; stroke-width: 0.8"/>
      </g>
     </g>
     <g id="text_26">
      <!-- 40 -->
      <g transform="translate(159.220425 322.182437)scale(0.1 -0.1)">
       <use xlink:href="#DejaVuSans-34"/>
       <use xlink:href="#DejaVuSans-30" x="63.623047"/>
      </g>
     </g>
    </g>
    <g id="xtick_11">
     <g id="line2d_27">
      <g>
       <use xlink:href="#m9a5a674ba6" x="212.634308" y="307.584" style="stroke: #000000; stroke-width: 0.8"/>
      </g>
     </g>
     <g id="text_27">
      <!-- 60 -->
      <g transform="translate(206.271808 322.182437)scale(0.1 -0.1)">
       <use xlink:href="#DejaVuSans-36"/>
       <use xlink:href="#DejaVuSans-30" x="63.623047"/>
      </g>
     </g>
    </g>
    <g id="xtick_12">
     <g id="line2d_28">
      <g>
       <use xlink:href="#m9a5a674ba6" x="259.685692" y="307.584" style="stroke: #000000; stroke-width: 0.8"/>
      </g>
     </g>
     <g id="text_28">
      <!-- 80 -->
      <g transform="translate(253.323192 322.182437)scale(0.1 -0.1)">
       <use xlink:href="#DejaVuSans-38"/>
       <use xlink:href="#DejaVuSans-30" x="63.623047"/>
      </g>
     </g>
    </g>
    <g id="xtick_13">
     <g id="line2d_29">
      <g>
       <use xlink:href="#m9a5a674ba6" x="306.737075" y="307.584" style="stroke: #000000; stroke-width: 0.8"/>
      </g>
     </g>
     <g id="text_29">
      <!-- 100 -->
      <g transform="translate(297.193325 322.182437)scale(0.1 -0.1)">
       <use xlink:href="#DejaVuSans-31"/>
       <use xlink:href="#DejaVuSans-30" x="63.623047"/>
       <use xlink:href="#DejaVuSans-30" x="127.246094"/>
      </g>
     </g>
    </g>
    <g id="xtick_14">
     <g id="line2d_30">
      <g>
       <use xlink:href="#m9a5a674ba6" x="353.788458" y="307.584" style="stroke: #000000; stroke-width: 0.8"/>
      </g>
     </g>
     <g id="text_30">
      <!-- 120 -->
      <g transform="translate(344.244708 322.182437)scale(0.1 -0.1)">
       <use xlink:href="#DejaVuSans-31"/>
       <use xlink:href="#DejaVuSans-32" x="63.623047"/>
       <use xlink:href="#DejaVuSans-30" x="127.246094"/>
      </g>
     </g>
    </g>
    <g id="xtick_15">
     <g id="line2d_31">
      <g>
       <use xlink:href="#m9a5a674ba6" x="400.839842" y="307.584" style="stroke: #000000; stroke-width: 0.8"/>
      </g>
     </g>
     <g id="text_31">
      <!-- 140 -->
      <g transform="translate(391.296092 322.182437)scale(0.1 -0.1)">
       <use xlink:href="#DejaVuSans-31"/>
       <use xlink:href="#DejaVuSans-34" x="63.623047"/>
       <use xlink:href="#DejaVuSans-30" x="127.246094"/>
      </g>
     </g>
    </g>
   </g>
   <g id="matplotlib.axis_4">
    <g id="ytick_5">
     <g id="line2d_32">
      <g>
       <use xlink:href="#mfc09162028" x="57.6" y="302.096972" style="stroke: #000000; stroke-width: 0.8"/>
      </g>
     </g>
     <g id="text_32">
      <!-- 0 -->
      <g transform="translate(44.2375 305.896191)scale(0.1 -0.1)">
       <use xlink:href="#DejaVuSans-30"/>
      </g>
     </g>
    </g>
    <g id="ytick_6">
     <g id="line2d_33">
      <g>
       <use xlink:href="#mfc09162028" x="57.6" y="279.789712" style="stroke: #000000; stroke-width: 0.8"/>
      </g>
     </g>
     <g id="text_33">
      <!-- 2000 -->
      <g transform="translate(25.15 283.588931)scale(0.1 -0.1)">
       <use xlink:href="#DejaVuSans-32"/>
       <use xlink:href="#DejaVuSans-30" x="63.623047"/>
       <use xlink:href="#DejaVuSans-30" x="127.246094"/>
       <use xlink:href="#DejaVuSans-30" x="190.869141"/>
      </g>
     </g>
    </g>
    <g id="ytick_7">
     <g id="line2d_34">
      <g>
       <use xlink:href="#mfc09162028" x="57.6" y="257.482453" style="stroke: #000000; stroke-width: 0.8"/>
      </g>
     </g>
     <g id="text_34">
      <!-- 4000 -->
      <g transform="translate(25.15 261.281671)scale(0.1 -0.1)">
       <use xlink:href="#DejaVuSans-34"/>
       <use xlink:href="#DejaVuSans-30" x="63.623047"/>
       <use xlink:href="#DejaVuSans-30" x="127.246094"/>
       <use xlink:href="#DejaVuSans-30" x="190.869141"/>
      </g>
     </g>
    </g>
    <g id="ytick_8">
     <g id="line2d_35">
      <g>
       <use xlink:href="#mfc09162028" x="57.6" y="235.175193" style="stroke: #000000; stroke-width: 0.8"/>
      </g>
     </g>
     <g id="text_35">
      <!-- 6000 -->
      <g transform="translate(25.15 238.974412)scale(0.1 -0.1)">
       <use xlink:href="#DejaVuSans-36"/>
       <use xlink:href="#DejaVuSans-30" x="63.623047"/>
       <use xlink:href="#DejaVuSans-30" x="127.246094"/>
       <use xlink:href="#DejaVuSans-30" x="190.869141"/>
      </g>
     </g>
    </g>
    <g id="ytick_9">
     <g id="line2d_36">
      <g>
       <use xlink:href="#mfc09162028" x="57.6" y="212.867933" style="stroke: #000000; stroke-width: 0.8"/>
      </g>
     </g>
     <g id="text_36">
      <!-- 8000 -->
      <g transform="translate(25.15 216.667152)scale(0.1 -0.1)">
       <use xlink:href="#DejaVuSans-38"/>
       <use xlink:href="#DejaVuSans-30" x="63.623047"/>
       <use xlink:href="#DejaVuSans-30" x="127.246094"/>
       <use xlink:href="#DejaVuSans-30" x="190.869141"/>
      </g>
     </g>
    </g>
    <g id="ytick_10">
     <g id="line2d_37">
      <g>
       <use xlink:href="#mfc09162028" x="57.6" y="190.560674" style="stroke: #000000; stroke-width: 0.8"/>
      </g>
     </g>
     <g id="text_37">
      <!-- 10000 -->
      <g transform="translate(18.7875 194.359892)scale(0.1 -0.1)">
       <use xlink:href="#DejaVuSans-31"/>
       <use xlink:href="#DejaVuSans-30" x="63.623047"/>
       <use xlink:href="#DejaVuSans-30" x="127.246094"/>
       <use xlink:href="#DejaVuSans-30" x="190.869141"/>
       <use xlink:href="#DejaVuSans-30" x="254.492188"/>
      </g>
     </g>
    </g>
   </g>
   <g id="line2d_38">
    <path d="M 73.832727 302.085818 
L 146.762372 302.063511 
L 149.114941 301.851592 
L 151.46751 302.063511 
L 158.525217 302.052357 
L 160.877787 301.90736 
L 163.230356 301.896206 
L 165.582925 302.052357 
L 170.288063 302.085818 
L 191.461186 301.951975 
L 196.166324 302.074665 
L 198.518893 301.706595 
L 200.871462 301.104299 
L 203.224032 301.673134 
L 205.576601 300.234316 
L 210.281739 301.78467 
L 212.634308 301.706595 
L 214.986877 301.795824 
L 217.339447 301.583905 
L 219.692016 301.90736 
L 222.044585 302.052357 
L 224.397154 301.550444 
L 226.749723 301.628519 
L 229.102292 301.093145 
L 231.454862 301.528137 
L 236.16 301.862746 
L 238.512569 301.226989 
L 240.865138 301.862746 
L 243.217708 301.583905 
L 245.570277 301.885053 
L 247.922846 301.104299 
L 250.275415 298.494349 
L 252.627984 301.371986 
L 254.980553 301.026223 
L 257.333123 295.627867 
L 259.685692 298.806651 
L 262.038261 298.873573 
L 264.39083 301.572751 
L 266.743399 300.022397 
L 271.448538 301.037377 
L 273.801107 300.044704 
L 276.153676 301.505829 
L 278.506245 300.814304 
L 280.858814 296.765537 
L 283.211383 301.059684 
L 285.563953 301.829285 
L 287.916522 299.944321 
L 292.62166 300.301237 
L 294.974229 298.204355 
L 297.326798 300.334698 
L 299.679368 300.200855 
L 302.031937 291.958322 
L 304.384506 300.725075 
L 306.737075 293.809825 
L 309.089644 294.300585 
L 311.442213 301.818131 
L 313.794783 301.081991 
L 316.147352 294.713269 
L 318.499921 291.322565 
L 320.85249 300.535464 
L 323.205059 298.037051 
L 325.557628 291.690635 
L 327.910198 300.791997 
L 330.262767 301.4166 
L 332.615336 298.516657 
L 334.967905 298.605886 
L 337.320474 296.509003 
L 339.673043 297.63552 
L 342.025613 250.645277 
L 344.378182 301.4166 
L 346.730751 299.308564 
L 349.08332 298.918187 
L 351.435889 293.64252 
L 353.788458 297.958975 
L 356.141028 301.840438 
L 358.493597 290.3522 
L 360.846166 299.587405 
L 363.198735 286.046899 
L 365.551304 300.089318 
L 367.903874 298.416274 
L 370.256443 279.834327 
L 372.609012 287.608407 
L 374.961581 300.970455 
L 377.31415 293.553291 
L 379.666719 296.910534 
L 382.019289 286.827653 
L 384.371858 301.985436 
L 386.724427 210.98297 
L 389.076996 268.602621 
L 391.429565 221.76853 
L 393.782134 294.122126 
L 396.134704 192.122182 
L 398.487273 254.192132 
L 398.487273 254.192132 
" clip-path="url(#p04e866fde1)" style="fill: none; stroke: #1f77b4; stroke-width: 1.5; stroke-linecap: square"/>
   </g>
   <g id="patch_8">
    <path d="M 57.6 307.584 
L 57.6 186.624 
" style="fill: none; stroke: #000000; stroke-width: 0.8; stroke-linejoin: miter; stroke-linecap: square"/>
   </g>
   <g id="patch_9">
    <path d="M 414.72 307.584 
L 414.72 186.624 
" style="fill: none; stroke: #000000; stroke-width: 0.8; stroke-linejoin: miter; stroke-linecap: square"/>
   </g>
   <g id="patch_10">
    <path d="M 57.6 307.584 
L 414.72 307.584 
" style="fill: none; stroke: #000000; stroke-width: 0.8; stroke-linejoin: miter; stroke-linecap: square"/>
   </g>
   <g id="patch_11">
    <path d="M 57.6 186.624 
L 414.72 186.624 
" style="fill: none; stroke: #000000; stroke-width: 0.8; stroke-linejoin: miter; stroke-linecap: square"/>
   </g>
  </g>
 </g>
 <defs>
  <clipPath id="p7d7d06fa5f">
   <rect x="57.6" y="41.472" width="357.12" height="120.96"/>
  </clipPath>
  <clipPath id="p04e866fde1">
   <rect x="57.6" y="186.624" width="357.12" height="120.96"/>
  </clipPath>
 </defs>
</svg>
