<?xml version="1.0" encoding="utf-8" standalone="no"?>
<!DOCTYPE svg PUBLIC "-//W3C//DTD SVG 1.1//EN"
  "http://www.w3.org/Graphics/SVG/1.1/DTD/svg11.dtd">
<svg xmlns:xlink="http://www.w3.org/1999/xlink" width="460.8pt" height="345.6pt" viewBox="0 0 460.8 345.6" xmlns="http://www.w3.org/2000/svg" version="1.1">
 <metadata>
  <rdf:RDF xmlns:dc="http://purl.org/dc/elements/1.1/" xmlns:cc="http://creativecommons.org/ns#" xmlns:rdf="http://www.w3.org/1999/02/22-rdf-syntax-ns#">
   <cc:Work>
    <dc:type rdf:resource="http://purl.org/dc/dcmitype/StillImage"/>
    <dc:date>2022-05-14T00:39:24.658039</dc:date>
    <dc:format>image/svg+xml</dc:format>
    <dc:creator>
     <cc:Agent>
      <dc:title>Matplotlib v3.5.1, https://matplotlib.org/</dc:title>
     </cc:Agent>
    </dc:creator>
   </cc:Work>
  </rdf:RDF>
 </metadata>
 <defs>
  <style type="text/css">*{stroke-linejoin: round; stroke-linecap: butt}</style>
 </defs>
 <g id="figure_1">
  <g id="patch_1">
   <path d="M 0 345.6 
L 460.8 345.6 
L 460.8 0 
L 0 0 
z
" style="fill: #ffffff"/>
  </g>
  <g id="axes_1">
   <g id="patch_2">
    <path d="M 57.6 162.432 
L 414.72 162.432 
L 414.72 41.472 
L 57.6 41.472 
z
" style="fill: #ffffff"/>
   </g>
   <g id="matplotlib.axis_1">
    <g id="xtick_1">
     <g id="line2d_1">
      <defs>
       <path id="ma1ba093a29" d="M 0 0 
L 0 3.5 
" style="stroke: #000000; stroke-width: 0.8"/>
      </defs>
      <g>
       <use xlink:href="#ma1ba093a29" x="73.827491" y="162.432" style="stroke: #000000; stroke-width: 0.8"/>
      </g>
     </g>
     <g id="text_1">
      <!-- 0 -->
      <g transform="translate(70.646241 177.030437)scale(0.1 -0.1)">
       <defs>
        <path id="DejaVuSans-30" d="M 2034 4250 
Q 1547 4250 1301 3770 
Q 1056 3291 1056 2328 
Q 1056 1369 1301 889 
Q 1547 409 2034 409 
Q 2525 409 2770 889 
Q 3016 1369 3016 2328 
Q 3016 3291 2770 3770 
Q 2525 4250 2034 4250 
z
M 2034 4750 
Q 2819 4750 3233 4129 
Q 3647 3509 3647 2328 
Q 3647 1150 3233 529 
Q 2819 -91 2034 -91 
Q 1250 -91 836 529 
Q 422 1150 422 2328 
Q 422 3509 836 4129 
Q 1250 4750 2034 4750 
z
" transform="scale(0.015625)"/>
       </defs>
       <use xlink:href="#DejaVuSans-30"/>
      </g>
     </g>
    </g>
    <g id="xtick_2">
     <g id="line2d_2">
      <g>
       <use xlink:href="#ma1ba093a29" x="126.191972" y="162.432" style="stroke: #000000; stroke-width: 0.8"/>
      </g>
     </g>
     <g id="text_2">
      <!-- 10000 -->
      <g transform="translate(110.285722 177.030437)scale(0.1 -0.1)">
       <defs>
        <path id="DejaVuSans-31" d="M 794 531 
L 1825 531 
L 1825 4091 
L 703 3866 
L 703 4441 
L 1819 4666 
L 2450 4666 
L 2450 531 
L 3481 531 
L 3481 0 
L 794 0 
L 794 531 
z
" transform="scale(0.015625)"/>
       </defs>
       <use xlink:href="#DejaVuSans-31"/>
       <use xlink:href="#DejaVuSans-30" x="63.623047"/>
       <use xlink:href="#DejaVuSans-30" x="127.246094"/>
       <use xlink:href="#DejaVuSans-30" x="190.869141"/>
       <use xlink:href="#DejaVuSans-30" x="254.492188"/>
      </g>
     </g>
    </g>
    <g id="xtick_3">
     <g id="line2d_3">
      <g>
       <use xlink:href="#ma1ba093a29" x="178.556453" y="162.432" style="stroke: #000000; stroke-width: 0.8"/>
      </g>
     </g>
     <g id="text_3">
      <!-- 20000 -->
      <g transform="translate(162.650203 177.030437)scale(0.1 -0.1)">
       <defs>
        <path id="DejaVuSans-32" d="M 1228 531 
L 3431 531 
L 3431 0 
L 469 0 
L 469 531 
Q 828 903 1448 1529 
Q 2069 2156 2228 2338 
Q 2531 2678 2651 2914 
Q 2772 3150 2772 3378 
Q 2772 3750 2511 3984 
Q 2250 4219 1831 4219 
Q 1534 4219 1204 4116 
Q 875 4013 500 3803 
L 500 4441 
Q 881 4594 1212 4672 
Q 1544 4750 1819 4750 
Q 2544 4750 2975 4387 
Q 3406 4025 3406 3419 
Q 3406 3131 3298 2873 
Q 3191 2616 2906 2266 
Q 2828 2175 2409 1742 
Q 1991 1309 1228 531 
z
" transform="scale(0.015625)"/>
       </defs>
       <use xlink:href="#DejaVuSans-32"/>
       <use xlink:href="#DejaVuSans-30" x="63.623047"/>
       <use xlink:href="#DejaVuSans-30" x="127.246094"/>
       <use xlink:href="#DejaVuSans-30" x="190.869141"/>
       <use xlink:href="#DejaVuSans-30" x="254.492188"/>
      </g>
     </g>
    </g>
    <g id="xtick_4">
     <g id="line2d_4">
      <g>
       <use xlink:href="#ma1ba093a29" x="230.920934" y="162.432" style="stroke: #000000; stroke-width: 0.8"/>
      </g>
     </g>
     <g id="text_4">
      <!-- 30000 -->
      <g transform="translate(215.014684 177.030437)scale(0.1 -0.1)">
       <defs>
        <path id="DejaVuSans-33" d="M 2597 2516 
Q 3050 2419 3304 2112 
Q 3559 1806 3559 1356 
Q 3559 666 3084 287 
Q 2609 -91 1734 -91 
Q 1441 -91 1130 -33 
Q 819 25 488 141 
L 488 750 
Q 750 597 1062 519 
Q 1375 441 1716 441 
Q 2309 441 2620 675 
Q 2931 909 2931 1356 
Q 2931 1769 2642 2001 
Q 2353 2234 1838 2234 
L 1294 2234 
L 1294 2753 
L 1863 2753 
Q 2328 2753 2575 2939 
Q 2822 3125 2822 3475 
Q 2822 3834 2567 4026 
Q 2313 4219 1838 4219 
Q 1578 4219 1281 4162 
Q 984 4106 628 3988 
L 628 4550 
Q 988 4650 1302 4700 
Q 1616 4750 1894 4750 
Q 2613 4750 3031 4423 
Q 3450 4097 3450 3541 
Q 3450 3153 3228 2886 
Q 3006 2619 2597 2516 
z
" transform="scale(0.015625)"/>
       </defs>
       <use xlink:href="#DejaVuSans-33"/>
       <use xlink:href="#DejaVuSans-30" x="63.623047"/>
       <use xlink:href="#DejaVuSans-30" x="127.246094"/>
       <use xlink:href="#DejaVuSans-30" x="190.869141"/>
       <use xlink:href="#DejaVuSans-30" x="254.492188"/>
      </g>
     </g>
    </g>
    <g id="xtick_5">
     <g id="line2d_5">
      <g>
       <use xlink:href="#ma1ba093a29" x="283.285415" y="162.432" style="stroke: #000000; stroke-width: 0.8"/>
      </g>
     </g>
     <g id="text_5">
      <!-- 40000 -->
      <g transform="translate(267.379165 177.030437)scale(0.1 -0.1)">
       <defs>
        <path id="DejaVuSans-34" d="M 2419 4116 
L 825 1625 
L 2419 1625 
L 2419 4116 
z
M 2253 4666 
L 3047 4666 
L 3047 1625 
L 3713 1625 
L 3713 1100 
L 3047 1100 
L 3047 0 
L 2419 0 
L 2419 1100 
L 313 1100 
L 313 1709 
L 2253 4666 
z
" transform="scale(0.015625)"/>
       </defs>
       <use xlink:href="#DejaVuSans-34"/>
       <use xlink:href="#DejaVuSans-30" x="63.623047"/>
       <use xlink:href="#DejaVuSans-30" x="127.246094"/>
       <use xlink:href="#DejaVuSans-30" x="190.869141"/>
       <use xlink:href="#DejaVuSans-30" x="254.492188"/>
      </g>
     </g>
    </g>
    <g id="xtick_6">
     <g id="line2d_6">
      <g>
       <use xlink:href="#ma1ba093a29" x="335.649896" y="162.432" style="stroke: #000000; stroke-width: 0.8"/>
      </g>
     </g>
     <g id="text_6">
      <!-- 50000 -->
      <g transform="translate(319.743646 177.030437)scale(0.1 -0.1)">
       <defs>
        <path id="DejaVuSans-35" d="M 691 4666 
L 3169 4666 
L 3169 4134 
L 1269 4134 
L 1269 2991 
Q 1406 3038 1543 3061 
Q 1681 3084 1819 3084 
Q 2600 3084 3056 2656 
Q 3513 2228 3513 1497 
Q 3513 744 3044 326 
Q 2575 -91 1722 -91 
Q 1428 -91 1123 -41 
Q 819 9 494 109 
L 494 744 
Q 775 591 1075 516 
Q 1375 441 1709 441 
Q 2250 441 2565 725 
Q 2881 1009 2881 1497 
Q 2881 1984 2565 2268 
Q 2250 2553 1709 2553 
Q 1456 2553 1204 2497 
Q 953 2441 691 2322 
L 691 4666 
z
" transform="scale(0.015625)"/>
       </defs>
       <use xlink:href="#DejaVuSans-35"/>
       <use xlink:href="#DejaVuSans-30" x="63.623047"/>
       <use xlink:href="#DejaVuSans-30" x="127.246094"/>
       <use xlink:href="#DejaVuSans-30" x="190.869141"/>
       <use xlink:href="#DejaVuSans-30" x="254.492188"/>
      </g>
     </g>
    </g>
    <g id="xtick_7">
     <g id="line2d_7">
      <g>
       <use xlink:href="#ma1ba093a29" x="388.014377" y="162.432" style="stroke: #000000; stroke-width: 0.8"/>
      </g>
     </g>
     <g id="text_7">
      <!-- 60000 -->
      <g transform="translate(372.108127 177.030437)scale(0.1 -0.1)">
       <defs>
        <path id="DejaVuSans-36" d="M 2113 2584 
Q 1688 2584 1439 2293 
Q 1191 2003 1191 1497 
Q 1191 994 1439 701 
Q 1688 409 2113 409 
Q 2538 409 2786 701 
Q 3034 994 3034 1497 
Q 3034 2003 2786 2293 
Q 2538 2584 2113 2584 
z
M 3366 4563 
L 3366 3988 
Q 3128 4100 2886 4159 
Q 2644 4219 2406 4219 
Q 1781 4219 1451 3797 
Q 1122 3375 1075 2522 
Q 1259 2794 1537 2939 
Q 1816 3084 2150 3084 
Q 2853 3084 3261 2657 
Q 3669 2231 3669 1497 
Q 3669 778 3244 343 
Q 2819 -91 2113 -91 
Q 1303 -91 875 529 
Q 447 1150 447 2328 
Q 447 3434 972 4092 
Q 1497 4750 2381 4750 
Q 2619 4750 2861 4703 
Q 3103 4656 3366 4563 
z
" transform="scale(0.015625)"/>
       </defs>
       <use xlink:href="#DejaVuSans-36"/>
       <use xlink:href="#DejaVuSans-30" x="63.623047"/>
       <use xlink:href="#DejaVuSans-30" x="127.246094"/>
       <use xlink:href="#DejaVuSans-30" x="190.869141"/>
       <use xlink:href="#DejaVuSans-30" x="254.492188"/>
      </g>
     </g>
    </g>
   </g>
   <g id="matplotlib.axis_2">
    <g id="ytick_1">
     <g id="line2d_8">
      <defs>
       <path id="m88176850c1" d="M 0 0 
L -3.5 0 
" style="stroke: #000000; stroke-width: 0.8"/>
      </defs>
      <g>
       <use xlink:href="#m88176850c1" x="57.6" y="145.069055" style="stroke: #000000; stroke-width: 0.8"/>
      </g>
     </g>
     <g id="text_8">
      <!-- 40 -->
      <g transform="translate(37.875 148.868274)scale(0.1 -0.1)">
       <use xlink:href="#DejaVuSans-34"/>
       <use xlink:href="#DejaVuSans-30" x="63.623047"/>
      </g>
     </g>
    </g>
    <g id="ytick_2">
     <g id="line2d_9">
      <g>
       <use xlink:href="#m88176850c1" x="57.6" y="114.776042" style="stroke: #000000; stroke-width: 0.8"/>
      </g>
     </g>
     <g id="text_9">
      <!-- 60 -->
      <g transform="translate(37.875 118.575261)scale(0.1 -0.1)">
       <use xlink:href="#DejaVuSans-36"/>
       <use xlink:href="#DejaVuSans-30" x="63.623047"/>
      </g>
     </g>
    </g>
    <g id="ytick_3">
     <g id="line2d_10">
      <g>
       <use xlink:href="#m88176850c1" x="57.6" y="84.483029" style="stroke: #000000; stroke-width: 0.8"/>
      </g>
     </g>
     <g id="text_10">
      <!-- 80 -->
      <g transform="translate(37.875 88.282248)scale(0.1 -0.1)">
       <defs>
        <path id="DejaVuSans-38" d="M 2034 2216 
Q 1584 2216 1326 1975 
Q 1069 1734 1069 1313 
Q 1069 891 1326 650 
Q 1584 409 2034 409 
Q 2484 409 2743 651 
Q 3003 894 3003 1313 
Q 3003 1734 2745 1975 
Q 2488 2216 2034 2216 
z
M 1403 2484 
Q 997 2584 770 2862 
Q 544 3141 544 3541 
Q 544 4100 942 4425 
Q 1341 4750 2034 4750 
Q 2731 4750 3128 4425 
Q 3525 4100 3525 3541 
Q 3525 3141 3298 2862 
Q 3072 2584 2669 2484 
Q 3125 2378 3379 2068 
Q 3634 1759 3634 1313 
Q 3634 634 3220 271 
Q 2806 -91 2034 -91 
Q 1263 -91 848 271 
Q 434 634 434 1313 
Q 434 1759 690 2068 
Q 947 2378 1403 2484 
z
M 1172 3481 
Q 1172 3119 1398 2916 
Q 1625 2713 2034 2713 
Q 2441 2713 2670 2916 
Q 2900 3119 2900 3481 
Q 2900 3844 2670 4047 
Q 2441 4250 2034 4250 
Q 1625 4250 1398 4047 
Q 1172 3844 1172 3481 
z
" transform="scale(0.015625)"/>
       </defs>
       <use xlink:href="#DejaVuSans-38"/>
       <use xlink:href="#DejaVuSans-30" x="63.623047"/>
      </g>
     </g>
    </g>
    <g id="ytick_4">
     <g id="line2d_11">
      <g>
       <use xlink:href="#m88176850c1" x="57.6" y="54.190017" style="stroke: #000000; stroke-width: 0.8"/>
      </g>
     </g>
     <g id="text_11">
      <!-- 100 -->
      <g transform="translate(31.5125 57.989235)scale(0.1 -0.1)">
       <use xlink:href="#DejaVuSans-31"/>
       <use xlink:href="#DejaVuSans-30" x="63.623047"/>
       <use xlink:href="#DejaVuSans-30" x="127.246094"/>
      </g>
     </g>
    </g>
   </g>
   <g id="line2d_12">
    <path d="M 73.832727 53.685133 
L 73.837964 53.685133 
L 73.8432 53.180249 
L 73.895565 58.607748 
L 73.926983 61.637049 
L 74.010767 61.081677 
L 74.026476 61.081677 
L 74.105023 66.887838 
L 74.152151 66.256733 
L 74.162624 66.256733 
L 74.209752 65.120745 
L 74.251643 67.771384 
L 74.324953 67.771384 
L 74.4035 67.014059 
L 74.408737 68.528709 
L 74.429682 68.150047 
L 74.445392 68.150047 
L 74.560594 67.392721 
L 74.686268 66.332466 
L 74.707214 66.332466 
L 74.780524 65.57514 
L 74.785761 67.089791 
L 74.811943 66.711128 
L 74.848598 66.711128 
L 74.927145 69.74043 
L 74.9638 68.983104 
L 75.005692 68.983104 
L 75.120894 68.604442 
L 75.162785 68.604442 
L 75.283223 67.847116 
L 75.28846 67.847116 
L 75.403662 69.361767 
L 75.445553 69.361767 
L 75.565992 68.604442 
L 75.586937 68.604442 
L 75.707376 67.847116 
L 76.162947 67.847116 
L 76.278149 69.361767 
L 76.801793 69.361767 
L 76.922232 68.604442 
L 77.021724 68.604442 
L 77.136926 68.225779 
L 77.210236 68.225779 
L 77.241655 67.847116 
L 77.246891 69.361767 
L 77.304492 69.361767 
L 77.770536 69.361767 
L 77.885738 68.983104 
L 78.451274 68.983104 
L 78.566476 68.604442 
L 78.906845 68.604442 
L 78.943501 68.225779 
L 78.948737 69.74043 
L 79.001102 69.74043 
L 79.079648 69.74043 
L 79.19485 69.361767 
L 79.938426 69.361767 
L 80.053628 68.983104 
L 80.069337 68.983104 
L 80.15312 68.604442 
L 80.158357 70.119092 
L 80.163593 70.119092 
L 80.304977 70.119092 
L 80.420179 69.74043 
L 80.697711 69.74043 
L 80.812913 71.25508 
L 80.844331 71.25508 
L 80.96477 70.497755 
L 81.142809 70.497755 
L 81.258011 72.012406 
L 81.655981 72.012406 
L 81.771183 71.633743 
L 82.06966 71.633743 
L 82.184862 71.25508 
L 82.389083 71.25508 
L 82.415266 72.769731 
L 82.499049 72.391068 
L 82.640433 72.391068 
L 82.755635 72.012406 
L 83.509683 72.012406 
L 83.624885 71.633743 
L 84.389407 71.633743 
L 84.504608 71.25508 
L 84.923524 71.25508 
L 85.038726 72.769731 
L 86.908138 72.769731 
L 87.02334 74.284382 
L 87.300872 74.284382 
L 87.416074 73.905719 
L 90.269938 73.905719 
L 90.38514 73.527056 
L 91.851345 73.527056 
L 91.966547 73.148394 
L 92.06604 73.148394 
L 92.181241 74.663044 
L 94.071599 74.663044 
L 94.186801 74.284382 
L 96.805025 74.284382 
L 96.920227 73.905719 
L 97.286778 73.905719 
L 97.40198 73.527056 
L 98.004172 73.527056 
L 98.119374 73.148394 
L 99.831692 73.148394 
L 99.946894 72.769731 
L 100.344864 72.769731 
L 100.460066 74.284382 
L 102.685556 74.284382 
L 102.800758 75.799032 
L 104.738244 75.799032 
L 104.853446 75.42037 
L 106.314415 75.42037 
L 106.429617 76.93502 
L 106.733331 76.93502 
L 106.848533 76.556358 
L 108.382812 76.556358 
L 108.498014 76.177695 
L 109.362028 76.177695 
L 109.477229 75.799032 
L 111.027218 75.799032 
L 111.14242 77.313683 
L 111.666065 77.313683 
L 111.781267 76.93502 
L 121.044543 76.93502 
L 121.159745 78.449671 
L 121.164982 78.449671 
L 121.280183 78.071008 
L 123.893171 78.071008 
L 124.008373 77.692346 
L 125.238938 77.692346 
L 125.35414 79.206996 
L 125.642145 79.206996 
L 125.757347 78.828334 
L 130.391603 78.828334 
L 130.506805 78.449671 
L 141.440509 78.449671 
L 141.55571 78.071008 
L 147.986069 78.071008 
L 148.101271 77.692346 
L 153.322009 77.692346 
L 153.437211 79.206996 
L 159.239196 79.206996 
L 159.354398 78.828334 
L 175.105633 78.828334 
L 175.220835 78.449671 
L 182.441897 78.449671 
L 182.557099 79.964322 
L 182.771793 79.964322 
L 182.886995 79.585659 
L 204.901023 79.585659 
L 205.016225 79.206996 
L 215.588614 79.206996 
L 215.703816 78.828334 
L 215.876618 78.828334 
L 215.99182 80.342984 
L 220.374727 80.342984 
L 220.489929 81.857635 
L 221.380125 81.857635 
L 221.495327 81.478972 
L 232.010115 81.478972 
L 232.125317 81.10031 
L 270.875033 81.10031 
L 270.990235 80.721647 
L 315.452915 80.721647 
L 315.568117 80.342984 
L 398.487273 80.342984 
L 398.487273 80.342984 
" clip-path="url(#pbd66c9edb1)" style="fill: none; stroke: #1f77b4; stroke-width: 1.5; stroke-linecap: square"/>
   </g>
   <g id="line2d_13">
    <path d="M 73.832727 55.704667 
L 73.869382 55.704667 
L 73.958402 53.054029 
L 73.995057 54.568679 
L 74.026476 57.59798 
L 74.105023 54.568679 
L 74.188806 54.568679 
L 74.304008 56.08333 
L 74.560594 56.08333 
L 74.675795 55.7804 
L 74.707214 55.7804 
L 74.822416 55.401737 
L 76.152474 55.401737 
L 76.267676 56.916388 
L 78.493166 56.916388 
L 78.608368 58.431038 
L 80.844331 58.431038 
L 80.959533 59.945689 
L 84.923524 59.945689 
L 85.038726 58.431038 
L 105.345672 58.431038 
L 105.460874 59.945689 
L 120.316677 59.945689 
L 120.431879 61.46034 
L 121.044543 61.46034 
L 121.159745 59.945689 
L 398.487273 59.945689 
L 398.487273 59.945689 
" clip-path="url(#pbd66c9edb1)" style="fill: none; stroke: #ff7f0e; stroke-width: 1.5; stroke-linecap: square"/>
   </g>
   <g id="line2d_14">
    <path d="M 73.832727 53.685133 
L 73.837964 53.685133 
L 73.8432 53.180249 
L 73.885092 58.607748 
L 73.890328 58.607748 
L 73.995057 66.584908 
L 74.021239 65.777094 
L 74.026476 65.777094 
L 74.146914 74.057184 
L 74.162624 73.678521 
L 74.183569 73.299859 
L 74.235934 75.445614 
L 74.246407 75.445614 
L 74.324953 78.474915 
L 74.361609 78.096252 
L 74.366845 78.096252 
L 74.382554 77.71759 
L 74.413973 82.261542 
L 74.419209 82.261542 
L 74.424446 82.261542 
L 74.445392 81.882879 
L 74.466337 84.91218 
L 74.497756 84.91218 
L 74.502993 84.91218 
L 74.602485 87.638551 
L 74.618194 87.259889 
L 74.633904 87.259889 
L 74.65485 88.774539 
L 74.743869 88.017214 
L 74.785761 88.017214 
L 74.806707 87.638551 
L 74.853835 90.667853 
L 74.859071 90.667853 
L 74.869544 90.667853 
L 74.927145 92.182503 
L 74.979509 91.425178 
L 74.989982 91.425178 
L 75.110421 95.590467 
L 75.162785 95.590467 
L 75.267514 94.833142 
L 75.393189 99.377094 
L 75.445553 99.377094 
L 75.545046 98.619769 
L 75.586937 100.134419 
L 75.655011 99.755757 
L 75.702139 99.755757 
L 75.817341 99.377094 
L 76.152474 99.377094 
L 76.225784 98.998431 
L 76.231021 100.513082 
L 76.24673 100.513082 
L 76.801793 100.513082 
L 76.875104 99.755757 
L 76.88034 101.270407 
L 76.901286 101.270407 
L 77.021724 101.270407 
L 77.074089 100.891745 
L 77.079325 102.406395 
L 77.11598 102.406395 
L 77.210236 102.406395 
L 77.325438 102.027733 
L 77.44064 103.542383 
L 77.508714 103.542383 
L 77.623916 105.057034 
L 77.770536 105.057034 
L 77.885738 104.678371 
L 78.451274 104.678371 
L 78.503639 103.921046 
L 78.508875 105.435696 
L 78.550767 105.435696 
L 78.744516 105.435696 
L 78.859717 106.950347 
L 78.906845 106.950347 
L 78.943501 106.571684 
L 78.948737 108.086335 
L 79.001102 108.086335 
L 79.079648 108.086335 
L 79.19485 107.707672 
L 79.634712 107.707672 
L 79.749914 109.222323 
L 79.938426 109.222323 
L 79.954135 108.84366 
L 79.969844 111.872962 
L 80.011736 111.872962 
L 80.069337 111.872962 
L 80.15312 111.494299 
L 80.158357 113.00895 
L 80.163593 113.00895 
L 80.304977 113.00895 
L 80.420179 112.630287 
L 80.844331 112.630287 
L 80.96477 111.872962 
L 81.011898 111.872962 
L 81.127099 113.387612 
L 81.142809 113.387612 
L 81.258011 114.902263 
L 82.022532 114.902263 
L 82.06966 116.416914 
L 82.132498 116.038251 
L 82.389083 116.038251 
L 82.415266 117.552902 
L 82.499049 117.174239 
L 82.640433 117.174239 
L 82.755635 116.795576 
L 83.509683 116.795576 
L 83.535866 116.416914 
L 83.541102 117.931564 
L 83.603939 117.931564 
L 83.609176 117.931564 
L 83.724378 119.446215 
L 84.389407 119.446215 
L 84.504608 119.067552 
L 84.536027 119.067552 
L 84.651229 120.582203 
L 85.766592 120.582203 
L 85.824193 120.077319 
L 85.82943 121.59197 
L 85.866085 121.59197 
L 86.908138 121.59197 
L 87.02334 123.106621 
L 87.300872 123.106621 
L 87.416074 122.727958 
L 90.269938 122.727958 
L 90.38514 122.349295 
L 91.851345 122.349295 
L 91.966547 121.970633 
L 92.06604 121.970633 
L 92.181241 123.485283 
L 92.196951 123.485283 
L 92.312153 124.999934 
L 94.071599 124.999934 
L 94.186801 124.621271 
L 94.710446 124.621271 
L 94.825648 126.135922 
L 94.930377 126.135922 
L 95.045579 127.650573 
L 96.805025 127.650573 
L 96.920227 127.27191 
L 97.286778 127.27191 
L 97.40198 126.893247 
L 98.004172 126.893247 
L 98.119374 126.514585 
L 98.52258 126.514585 
L 98.637782 128.029235 
L 99.051461 128.029235 
L 99.166663 129.543886 
L 99.831692 129.543886 
L 99.946894 129.165223 
L 100.344864 129.165223 
L 100.460066 130.679874 
L 102.685556 130.679874 
L 102.800758 132.194524 
L 103.471023 132.194524 
L 103.586225 133.709175 
L 104.738244 133.709175 
L 104.853446 133.330512 
L 105.345672 133.330512 
L 105.460874 132.825629 
L 106.314415 132.825629 
L 106.429617 134.340279 
L 106.733331 134.340279 
L 106.848533 133.961617 
L 108.011024 133.961617 
L 108.126226 135.476267 
L 108.382812 135.476267 
L 108.498014 135.097605 
L 108.717944 135.097605 
L 108.833146 136.612255 
L 109.362028 136.612255 
L 109.477229 136.233593 
L 111.666065 136.233593 
L 111.781267 135.85493 
L 112.770955 135.85493 
L 112.886157 137.369581 
L 120.316677 137.369581 
L 120.431879 136.864697 
L 121.044543 136.864697 
L 121.159745 138.379348 
L 121.164982 138.379348 
L 121.280183 138.000685 
L 123.893171 138.000685 
L 124.008373 137.622023 
L 124.657692 137.622023 
L 124.772894 139.136673 
L 125.238938 139.136673 
L 125.35414 140.651324 
L 125.642145 140.651324 
L 125.757347 140.272661 
L 128.736886 140.272661 
L 128.852087 141.787312 
L 130.391603 141.787312 
L 130.506805 141.408649 
L 133.989043 141.408649 
L 134.104245 142.9233 
L 141.440509 142.9233 
L 141.55571 142.544637 
L 147.986069 142.544637 
L 148.101271 142.165974 
L 148.829137 142.165974 
L 148.944339 143.680625 
L 151.222194 143.680625 
L 151.337396 145.195276 
L 153.322009 145.195276 
L 153.437211 146.709926 
L 158.909299 146.709926 
L 159.024501 148.224577 
L 159.239196 148.224577 
L 159.354398 147.845914 
L 175.105633 147.845914 
L 175.220835 147.467252 
L 182.441897 147.467252 
L 182.557099 148.981902 
L 182.771793 148.981902 
L 182.886995 148.60324 
L 183.112163 148.60324 
L 183.227364 150.11789 
L 197.255809 150.11789 
L 197.371011 151.632541 
L 204.901023 151.632541 
L 205.016225 151.253878 
L 215.588614 151.253878 
L 215.703816 150.875216 
L 215.876618 150.875216 
L 215.99182 152.389866 
L 220.374727 152.389866 
L 220.489929 153.904517 
L 221.380125 153.904517 
L 221.495327 153.525854 
L 225.564047 153.525854 
L 225.679249 155.040505 
L 232.010115 155.040505 
L 232.125317 154.661842 
L 270.875033 154.661842 
L 270.990235 154.28318 
L 277.111642 154.28318 
L 277.226844 155.79783 
L 315.452915 155.79783 
L 315.568117 155.419168 
L 333.984705 155.419168 
L 334.099907 156.933818 
L 398.487273 156.933818 
L 398.487273 156.933818 
" clip-path="url(#pbd66c9edb1)" style="fill: none; stroke: #2ca02c; stroke-width: 1.5; stroke-linecap: square"/>
   </g>
   <g id="line2d_15">
    <path d="M 73.832727 54.190017 
L 73.848437 54.190017 
L 73.900801 58.481527 
L 73.968875 57.799934 
L 73.979348 57.799934 
L 74.07884 64.010002 
L 74.105023 63.378897 
L 74.120732 63.126455 
L 74.146914 66.155757 
L 74.173096 65.398431 
L 74.209752 65.398431 
L 74.230697 64.641106 
L 74.267352 67.670407 
L 74.288298 67.670407 
L 74.324953 67.670407 
L 74.382554 66.913082 
L 74.387791 68.427733 
L 74.429682 68.04907 
L 74.461101 68.04907 
L 74.581539 71.911429 
L 74.602485 71.911429 
L 74.633904 71.532766 
L 74.63914 73.047417 
L 74.701978 72.668754 
L 74.707214 72.668754 
L 74.806707 71.154104 
L 74.81718 72.668754 
L 74.927145 72.668754 
L 74.989982 71.911429 
L 74.995219 73.42608 
L 75.031874 73.047417 
L 75.058056 73.047417 
L 75.162785 76.076718 
L 75.173258 75.319393 
L 75.267514 75.319393 
L 75.387952 78.348694 
L 75.445553 78.348694 
L 75.545046 77.591369 
L 75.586937 79.10602 
L 75.655011 78.727357 
L 75.702139 78.727357 
L 75.817341 78.348694 
L 76.152474 78.348694 
L 76.272912 81.377995 
L 76.801793 81.377995 
L 76.922232 80.62067 
L 77.021724 80.62067 
L 77.074089 80.242008 
L 77.079325 81.756658 
L 77.11598 81.756658 
L 77.210236 81.756658 
L 77.325438 81.377995 
L 77.508714 81.377995 
L 77.623916 82.892646 
L 77.770536 82.892646 
L 77.885738 82.513983 
L 78.451274 82.513983 
L 78.503639 82.135321 
L 78.508875 83.649971 
L 78.545531 83.649971 
L 78.744516 83.649971 
L 78.859717 85.164622 
L 78.906845 85.164622 
L 79.022047 84.785959 
L 79.079648 84.785959 
L 79.19485 84.407297 
L 79.634712 84.407297 
L 79.749914 85.921947 
L 79.938426 85.921947 
L 79.954135 85.543285 
L 79.969844 88.572586 
L 80.011736 88.572586 
L 80.069337 88.572586 
L 80.184539 88.193923 
L 80.304977 88.193923 
L 80.420179 87.815261 
L 80.697711 87.815261 
L 80.812913 87.436598 
L 80.870514 87.436598 
L 80.985715 87.057935 
L 81.011898 87.057935 
L 81.127099 88.572586 
L 82.022532 88.572586 
L 82.06966 90.087237 
L 82.132498 89.708574 
L 82.389083 89.708574 
L 82.509522 88.951249 
L 82.640433 88.951249 
L 82.755635 88.572586 
L 83.509683 88.572586 
L 83.535866 88.193923 
L 83.541102 89.708574 
L 83.603939 89.708574 
L 83.609176 89.708574 
L 83.724378 91.223225 
L 84.389407 91.223225 
L 84.504608 90.844562 
L 84.536027 90.844562 
L 84.651229 92.359213 
L 85.824193 92.359213 
L 85.939395 93.873863 
L 87.300872 93.873863 
L 87.416074 93.495201 
L 90.269938 93.495201 
L 90.38514 93.116538 
L 91.851345 93.116538 
L 91.966547 92.737875 
L 92.196951 92.737875 
L 92.312153 94.252526 
L 94.071599 94.252526 
L 94.186801 93.873863 
L 94.710446 93.873863 
L 94.825648 95.388514 
L 94.930377 95.388514 
L 95.045579 96.903165 
L 96.805025 96.903165 
L 96.920227 96.524502 
L 97.286778 96.524502 
L 97.40198 96.145839 
L 98.004172 96.145839 
L 98.119374 95.767177 
L 98.52258 95.767177 
L 98.637782 97.281827 
L 99.051461 97.281827 
L 99.166663 98.796478 
L 99.831692 98.796478 
L 99.946894 98.417815 
L 100.344864 98.417815 
L 100.460066 98.039153 
L 104.738244 98.039153 
L 104.853446 97.66049 
L 106.733331 97.66049 
L 106.848533 97.281827 
L 108.011024 97.281827 
L 108.126226 98.796478 
L 108.382812 98.796478 
L 108.498014 98.417815 
L 108.717944 98.417815 
L 108.833146 99.932466 
L 109.362028 99.932466 
L 109.477229 99.553803 
L 111.027218 99.553803 
L 111.14242 99.17514 
L 111.666065 99.17514 
L 111.781267 98.796478 
L 112.770955 98.796478 
L 112.886157 100.311128 
L 121.044543 100.311128 
L 121.159745 101.825779 
L 121.164982 101.825779 
L 121.280183 101.447116 
L 123.893171 101.447116 
L 124.008373 101.068454 
L 124.657692 101.068454 
L 124.772894 102.583104 
L 125.642145 102.583104 
L 125.757347 102.204442 
L 130.391603 102.204442 
L 130.506805 101.825779 
L 133.989043 101.825779 
L 134.104245 103.34043 
L 141.440509 103.34043 
L 141.55571 102.961767 
L 147.986069 102.961767 
L 148.101271 102.583104 
L 148.829137 102.583104 
L 148.944339 104.097755 
L 151.222194 104.097755 
L 151.337396 105.612406 
L 158.909299 105.612406 
L 159.024501 107.127056 
L 159.239196 107.127056 
L 159.354398 106.748394 
L 174.037398 106.748394 
L 174.1526 108.263044 
L 175.105633 108.263044 
L 175.220835 107.884382 
L 182.771793 107.884382 
L 182.886995 107.505719 
L 183.112163 107.505719 
L 183.227364 109.02037 
L 197.255809 109.02037 
L 197.371011 110.53502 
L 204.901023 110.53502 
L 205.016225 110.156358 
L 215.588614 110.156358 
L 215.703816 109.777695 
L 220.374727 109.777695 
L 220.489929 109.399032 
L 221.380125 109.399032 
L 221.495327 109.02037 
L 225.564047 109.02037 
L 225.679249 110.53502 
L 232.010115 110.53502 
L 232.125317 110.156358 
L 270.875033 110.156358 
L 270.990235 109.777695 
L 277.111642 109.777695 
L 277.226844 111.292346 
L 315.452915 111.292346 
L 315.568117 110.913683 
L 333.984705 110.913683 
L 334.099907 112.428334 
L 398.487273 112.428334 
L 398.487273 112.428334 
" clip-path="url(#pbd66c9edb1)" style="fill: none; stroke: #d62728; stroke-width: 1.5; stroke-linecap: square"/>
   </g>
   <g id="line2d_16">
    <path d="M 73.832727 53.685133 
L 73.837964 53.685133 
L 73.853673 52.422924 
L 73.85891 53.937575 
L 73.953166 53.054029 
L 74.000294 53.054029 
L 74.115495 52.549145 
L 78.493166 52.549145 
L 78.608368 54.063796 
L 81.655981 54.063796 
L 81.771183 55.578446 
L 398.487273 55.578446 
L 398.487273 55.578446 
" clip-path="url(#pbd66c9edb1)" style="fill: none; stroke: #9467bd; stroke-width: 1.5; stroke-linecap: square"/>
   </g>
   <g id="line2d_17">
    <path d="M 73.832727 54.190017 
L 73.853673 54.190017 
L 73.979348 53.331715 
L 73.995057 53.331715 
L 74.110259 53.028784 
L 74.188806 53.028784 
L 74.304008 52.523901 
L 76.152474 52.523901 
L 76.267676 52.145238 
L 78.493166 52.145238 
L 78.608368 51.766576 
L 80.844331 51.766576 
L 80.959533 51.387913 
L 81.655981 51.387913 
L 81.771183 51.00925 
L 85.766592 51.00925 
L 85.881794 50.504367 
L 105.345672 50.504367 
L 105.460874 49.999483 
L 120.316677 49.999483 
L 120.431879 49.4946 
L 174.037398 49.4946 
L 174.1526 48.989716 
L 398.487273 48.989716 
L 398.487273 48.989716 
" clip-path="url(#pbd66c9edb1)" style="fill: none; stroke: #8c564b; stroke-width: 1.5; stroke-linecap: square"/>
   </g>
   <g id="line2d_18">
    <path d="M 73.832727 54.190017 
L 73.984584 67.44321 
L 73.995057 67.44321 
L 74.047422 71.608499 
L 74.110259 70.04336 
L 74.188806 70.04336 
L 74.209752 71.558011 
L 74.298771 71.179348 
L 74.4035 71.179348 
L 74.518702 70.295802 
L 74.707214 70.295802 
L 74.780524 71.810452 
L 74.81718 71.43179 
L 74.869544 71.43179 
L 74.984746 70.926906 
L 76.152474 70.926906 
L 76.162947 72.441557 
L 76.262439 71.936673 
L 77.241655 71.936673 
L 77.356857 71.43179 
L 78.493166 71.43179 
L 78.608368 72.94644 
L 78.943501 72.94644 
L 79.058702 74.461091 
L 80.15312 74.461091 
L 80.268322 73.956207 
L 80.697711 73.956207 
L 80.812913 73.577545 
L 80.844331 73.577545 
L 80.959533 75.092195 
L 81.655981 75.092195 
L 81.771183 76.606846 
L 82.389083 76.606846 
L 82.504285 76.228183 
L 85.766592 76.228183 
L 85.881794 77.742834 
L 100.344864 77.742834 
L 100.460066 77.364171 
L 102.685556 77.364171 
L 102.800758 76.859288 
L 105.345672 76.859288 
L 105.460874 78.373938 
L 111.027218 78.373938 
L 111.14242 77.995276 
L 120.316677 77.995276 
L 120.431879 79.509926 
L 121.044543 79.509926 
L 121.159745 81.024577 
L 153.322009 81.024577 
L 153.437211 80.519693 
L 174.037398 80.519693 
L 174.1526 82.034344 
L 182.441897 82.034344 
L 182.557099 81.529461 
L 220.374727 81.529461 
L 220.489929 81.150798 
L 398.487273 81.150798 
L 398.487273 81.150798 
" clip-path="url(#pbd66c9edb1)" style="fill: none; stroke: #e377c2; stroke-width: 1.5; stroke-linecap: square"/>
   </g>
   <g id="line2d_19">
    <path d="M 73.832727 54.190017 
L 73.947929 51.61511 
L 73.958402 51.61511 
L 74.07884 51.00925 
L 74.188806 51.00925 
L 74.304008 50.504367 
L 76.152474 50.504367 
L 76.267676 50.125704 
L 78.493166 50.125704 
L 78.608368 49.747041 
L 80.844331 49.747041 
L 80.959533 49.368379 
L 81.655981 49.368379 
L 81.771183 48.989716 
L 85.766592 48.989716 
L 85.881794 48.484832 
L 105.345672 48.484832 
L 105.460874 47.979949 
L 120.316677 47.979949 
L 120.431879 47.475065 
L 174.037398 47.475065 
L 174.1526 46.970182 
L 398.487273 46.970182 
L 398.487273 46.970182 
" clip-path="url(#pbd66c9edb1)" style="fill: none; stroke: #7f7f7f; stroke-width: 1.5; stroke-linecap: square"/>
   </g>
   <g id="line2d_20">
    <path d="M 73.832727 54.190017 
L 73.8432 54.190017 
L 73.853673 52.927808 
L 73.900801 56.209551 
L 73.93222 55.830888 
L 73.958402 55.830888 
L 74.047422 61.005944 
L 74.084077 60.07191 
L 74.09455 60.07191 
L 74.188806 59.440805 
L 74.209752 60.955456 
L 74.298771 59.819468 
L 74.4035 59.819468 
L 74.518702 58.935922 
L 74.707214 58.935922 
L 74.780524 60.450573 
L 74.81718 60.07191 
L 74.848598 60.07191 
L 74.969037 59.062143 
L 75.28846 59.062143 
L 75.403662 58.557259 
L 76.152474 58.557259 
L 76.162947 60.07191 
L 76.262439 59.567026 
L 77.241655 59.567026 
L 77.356857 59.062143 
L 78.493166 59.062143 
L 78.608368 60.576793 
L 78.943501 60.576793 
L 79.058702 60.07191 
L 80.15312 60.07191 
L 80.268322 59.567026 
L 80.697711 59.567026 
L 80.812913 59.188364 
L 80.844331 59.188364 
L 80.959533 60.703014 
L 81.142809 60.703014 
L 81.258011 59.945689 
L 81.655981 59.945689 
L 81.771183 61.46034 
L 82.389083 61.46034 
L 82.504285 61.081677 
L 85.766592 61.081677 
L 85.881794 62.596328 
L 86.908138 62.596328 
L 87.02334 61.839002 
L 92.06604 61.839002 
L 92.181241 61.334119 
L 100.344864 61.334119 
L 100.460066 60.955456 
L 102.685556 60.955456 
L 102.800758 60.450573 
L 105.345672 60.450573 
L 105.460874 61.965223 
L 106.314415 61.965223 
L 106.429617 61.46034 
L 111.027218 61.46034 
L 111.14242 61.081677 
L 120.316677 61.081677 
L 120.431879 62.596328 
L 121.044543 62.596328 
L 121.159745 64.110978 
L 125.238938 64.110978 
L 125.35414 63.353653 
L 153.322009 63.353653 
L 153.437211 62.848769 
L 174.037398 62.848769 
L 174.1526 64.36342 
L 182.441897 64.36342 
L 182.557099 63.858536 
L 215.876618 63.858536 
L 215.99182 63.353653 
L 220.374727 63.353653 
L 220.489929 62.97499 
L 398.487273 62.97499 
L 398.487273 62.97499 
" clip-path="url(#pbd66c9edb1)" style="fill: none; stroke: #bcbd22; stroke-width: 1.5; stroke-linecap: square"/>
   </g>
   <g id="line2d_21">
    <path d="M 73.832727 55.704667 
L 73.837964 55.704667 
L 73.958402 59.062143 
L 73.963638 59.062143 
L 74.07884 66.281977 
L 74.09455 66.029536 
L 74.120732 65.398431 
L 74.146914 68.427733 
L 74.178333 67.670407 
L 74.183569 67.670407 
L 74.304008 70.699708 
L 74.324953 70.699708 
L 74.382554 69.942383 
L 74.387791 71.457034 
L 74.408737 70.95215 
L 74.534411 76.253427 
L 74.560594 76.253427 
L 74.56583 75.950497 
L 74.571066 77.465148 
L 74.633904 77.086485 
L 74.65485 78.601136 
L 74.743869 77.465148 
L 74.780524 77.465148 
L 74.806707 76.707823 
L 74.811943 78.222473 
L 74.885253 77.71759 
L 74.927145 77.71759 
L 74.989982 76.960264 
L 74.995219 78.474915 
L 75.031874 78.096252 
L 75.058056 78.096252 
L 75.162785 81.125554 
L 75.173258 80.368228 
L 75.267514 80.368228 
L 75.28846 83.39753 
L 75.382716 82.892646 
L 75.445553 82.892646 
L 75.545046 82.135321 
L 75.586937 83.649971 
L 75.655011 83.271309 
L 75.702139 83.271309 
L 75.817341 82.892646 
L 76.162947 82.892646 
L 76.225784 82.387763 
L 76.231021 83.902413 
L 76.262439 83.902413 
L 76.801793 83.902413 
L 76.875104 83.145088 
L 76.88034 84.659739 
L 76.901286 84.659739 
L 77.021724 84.659739 
L 77.074089 84.281076 
L 77.079325 85.795727 
L 77.11598 85.795727 
L 77.210236 85.795727 
L 77.325438 84.91218 
L 77.44064 86.426831 
L 77.508714 86.426831 
L 77.623916 87.941482 
L 77.770536 87.941482 
L 77.885738 87.562819 
L 78.451274 87.562819 
L 78.503639 86.805494 
L 78.508875 88.320144 
L 78.550767 88.320144 
L 78.744516 88.320144 
L 78.859717 89.834795 
L 78.906845 89.834795 
L 79.027284 88.951249 
L 79.079648 88.951249 
L 79.19485 88.572586 
L 79.634712 88.572586 
L 79.749914 90.087237 
L 79.938426 90.087237 
L 79.954135 89.708574 
L 79.969844 92.737875 
L 80.011736 92.737875 
L 80.069337 92.737875 
L 80.189775 91.854329 
L 80.304977 91.854329 
L 80.420179 91.475666 
L 80.697711 91.475666 
L 80.812913 91.097004 
L 80.870514 91.097004 
L 80.985715 90.718341 
L 81.011898 90.718341 
L 81.127099 92.232992 
L 81.142809 92.232992 
L 81.258011 91.475666 
L 82.022532 91.475666 
L 82.06966 92.990317 
L 82.132498 92.611654 
L 82.389083 92.611654 
L 82.509522 91.854329 
L 82.640433 91.854329 
L 82.755635 91.475666 
L 83.509683 91.475666 
L 83.535866 91.097004 
L 83.541102 92.611654 
L 83.603939 92.611654 
L 83.609176 92.611654 
L 83.724378 94.126305 
L 84.389407 94.126305 
L 84.504608 93.747642 
L 84.536027 93.747642 
L 84.651229 95.262293 
L 85.824193 95.262293 
L 85.939395 96.776944 
L 86.908138 96.776944 
L 87.02334 96.019618 
L 87.300872 96.019618 
L 87.416074 95.640956 
L 90.269938 95.640956 
L 90.38514 95.262293 
L 91.851345 95.262293 
L 91.966547 94.88363 
L 92.06604 94.88363 
L 92.181241 94.378747 
L 92.196951 94.378747 
L 92.312153 95.893397 
L 94.071599 95.893397 
L 94.186801 95.514735 
L 94.710446 95.514735 
L 94.825648 97.029385 
L 94.930377 97.029385 
L 95.045579 98.544036 
L 96.805025 98.544036 
L 96.920227 98.165373 
L 97.286778 98.165373 
L 97.40198 97.786711 
L 98.004172 97.786711 
L 98.119374 97.408048 
L 98.52258 97.408048 
L 98.637782 98.922699 
L 99.051461 98.922699 
L 99.166663 100.437349 
L 99.831692 100.437349 
L 99.946894 100.058687 
L 100.344864 100.058687 
L 100.460066 99.680024 
L 102.685556 99.680024 
L 102.800758 99.17514 
L 103.471023 99.17514 
L 103.586225 100.689791 
L 104.738244 100.689791 
L 104.853446 100.311128 
L 106.314415 100.311128 
L 106.429617 99.806245 
L 106.733331 99.806245 
L 106.848533 99.427582 
L 108.011024 99.427582 
L 108.126226 100.942233 
L 108.382812 100.942233 
L 108.498014 100.56357 
L 108.717944 100.56357 
L 108.833146 102.078221 
L 109.362028 102.078221 
L 109.477229 101.699558 
L 111.027218 101.699558 
L 111.14242 101.320896 
L 111.666065 101.320896 
L 111.781267 100.942233 
L 112.770955 100.942233 
L 112.886157 102.456884 
L 121.164982 102.456884 
L 121.280183 102.078221 
L 123.893171 102.078221 
L 124.008373 101.699558 
L 124.657692 101.699558 
L 124.772894 103.214209 
L 125.238938 103.214209 
L 125.35414 102.456884 
L 125.642145 102.456884 
L 125.757347 102.078221 
L 128.736886 102.078221 
L 128.852087 103.592872 
L 130.391603 103.592872 
L 130.506805 103.214209 
L 133.989043 103.214209 
L 134.104245 104.72886 
L 141.440509 104.72886 
L 141.55571 104.350197 
L 147.986069 104.350197 
L 148.101271 103.971534 
L 148.829137 103.971534 
L 148.944339 105.486185 
L 151.222194 105.486185 
L 151.337396 107.000835 
L 153.322009 107.000835 
L 153.437211 106.495952 
L 158.909299 106.495952 
L 159.024501 108.010603 
L 159.239196 108.010603 
L 159.354398 107.63194 
L 174.037398 107.63194 
L 174.1526 109.146591 
L 175.105633 109.146591 
L 175.220835 108.767928 
L 182.441897 108.767928 
L 182.557099 108.263044 
L 182.771793 108.263044 
L 182.886995 107.884382 
L 183.112163 107.884382 
L 183.227364 109.399032 
L 197.255809 109.399032 
L 197.371011 110.913683 
L 204.901023 110.913683 
L 205.016225 110.53502 
L 215.588614 110.53502 
L 215.703816 110.156358 
L 215.876618 110.156358 
L 215.99182 109.651474 
L 220.374727 109.651474 
L 220.489929 109.272811 
L 221.380125 109.272811 
L 221.495327 108.894149 
L 225.564047 108.894149 
L 225.679249 110.408799 
L 232.010115 110.408799 
L 232.125317 110.030137 
L 270.875033 110.030137 
L 270.990235 109.651474 
L 277.111642 109.651474 
L 277.226844 111.166125 
L 315.452915 111.166125 
L 315.568117 110.787462 
L 333.984705 110.787462 
L 334.099907 112.302113 
L 398.487273 112.302113 
L 398.487273 112.302113 
" clip-path="url(#pbd66c9edb1)" style="fill: none; stroke: #17becf; stroke-width: 1.5; stroke-linecap: square"/>
   </g>
   <g id="line2d_22">
    <path d="M 73.832727 54.190017 
L 73.853673 54.190017 
L 73.979348 58.733968 
L 73.995057 58.733968 
L 74.110259 60.248619 
L 74.188806 60.248619 
L 74.304008 61.76327 
L 76.152474 61.76327 
L 76.267676 63.27792 
L 78.493166 63.27792 
L 78.608368 64.792571 
L 80.844331 64.792571 
L 80.959533 66.307222 
L 81.655981 66.307222 
L 81.771183 67.821872 
L 85.766592 67.821872 
L 85.881794 69.336523 
L 105.345672 69.336523 
L 105.460874 70.851174 
L 120.316677 70.851174 
L 120.431879 72.365824 
L 174.037398 72.365824 
L 174.1526 73.880475 
L 398.487273 73.880475 
L 398.487273 73.880475 
" clip-path="url(#pbd66c9edb1)" style="fill: none; stroke: #1f77b4; stroke-width: 1.5; stroke-linecap: square"/>
   </g>
   <g id="line2d_23">
    <path d="M 73.832727 54.190017 
L 73.8432 54.190017 
L 73.93222 62.015711 
L 73.968875 59.440805 
L 73.979348 59.440805 
L 74.047422 57.421271 
L 74.063131 61.965223 
L 74.073604 61.965223 
L 74.07884 60.450573 
L 74.110259 64.994524 
L 74.173096 64.994524 
L 74.183569 64.994524 
L 74.220224 67.2665 
L 74.298771 64.237199 
L 74.324953 64.237199 
L 74.445392 67.2665 
L 74.560594 64.994524 
L 74.675795 66.509175 
L 74.707214 66.509175 
L 74.806707 72.567778 
L 74.832889 71.053127 
L 74.848598 71.053127 
L 74.927145 70.04336 
L 74.932381 71.558011 
L 74.942854 71.558011 
L 75.058056 73.072661 
L 75.162785 70.04336 
L 75.168022 71.558011 
L 75.267514 73.072661 
L 75.277987 71.558011 
L 75.393189 69.538476 
L 75.445553 69.538476 
L 75.545046 72.567778 
L 75.560755 71.053127 
L 75.586937 71.053127 
L 75.707376 74.082428 
L 76.152474 74.082428 
L 76.168183 75.218416 
L 76.267676 73.703766 
L 76.801793 73.703766 
L 76.875104 76.733067 
L 76.916995 75.218416 
L 77.021724 75.218416 
L 77.074089 76.733067 
L 77.13169 75.218416 
L 77.210236 75.218416 
L 77.325438 78.247718 
L 77.44064 76.733067 
L 77.508714 76.733067 
L 77.623916 75.218416 
L 77.770536 75.218416 
L 77.885738 76.733067 
L 78.451274 76.733067 
L 78.503639 78.247718 
L 78.56124 76.733067 
L 78.744516 76.733067 
L 78.859717 75.218416 
L 78.906845 75.218416 
L 78.943501 76.733067 
L 79.016811 76.228183 
L 79.079648 76.228183 
L 79.19485 77.742834 
L 79.634712 77.742834 
L 79.749914 76.228183 
L 79.938426 76.228183 
L 79.954135 77.742834 
L 79.969844 74.713533 
L 80.043155 74.713533 
L 80.069337 74.713533 
L 80.184539 76.228183 
L 80.304977 76.228183 
L 80.420179 77.742834 
L 80.697711 77.742834 
L 80.812913 79.257485 
L 80.870514 79.257485 
L 80.985715 80.772135 
L 81.011898 80.772135 
L 81.127099 79.257485 
L 81.655981 79.257485 
L 81.771183 78.878822 
L 82.022532 78.878822 
L 82.06966 77.364171 
L 82.132498 78.878822 
L 82.415266 78.878822 
L 82.530468 80.393473 
L 82.640433 80.393473 
L 82.755635 81.908123 
L 83.509683 81.908123 
L 83.535866 83.422774 
L 83.614412 80.393473 
L 84.389407 80.393473 
L 84.504608 81.908123 
L 84.536027 81.908123 
L 84.651229 80.393473 
L 84.923524 80.393473 
L 85.038726 81.908123 
L 85.766592 81.908123 
L 85.824193 83.422774 
L 85.876558 81.908123 
L 87.300872 81.908123 
L 87.416074 83.422774 
L 90.269938 83.422774 
L 90.38514 84.937424 
L 91.851345 84.937424 
L 91.966547 86.452075 
L 92.06604 86.452075 
L 92.181241 85.947192 
L 92.196951 85.947192 
L 92.312153 84.432541 
L 94.071599 84.432541 
L 94.186801 85.947192 
L 94.710446 85.947192 
L 94.825648 84.432541 
L 94.930377 84.432541 
L 95.045579 82.91789 
L 96.805025 82.91789 
L 96.920227 84.432541 
L 97.286778 84.432541 
L 97.40198 85.947192 
L 98.004172 85.947192 
L 98.119374 87.461842 
L 98.52258 87.461842 
L 98.637782 85.947192 
L 99.051461 85.947192 
L 99.166663 84.432541 
L 99.831692 84.432541 
L 99.946894 85.947192 
L 103.471023 85.947192 
L 103.586225 84.432541 
L 104.738244 84.432541 
L 104.853446 85.947192 
L 106.314415 85.947192 
L 106.429617 85.442308 
L 106.733331 85.442308 
L 106.848533 86.956959 
L 108.011024 86.956959 
L 108.126226 85.442308 
L 108.382812 85.442308 
L 108.498014 86.956959 
L 108.717944 86.956959 
L 108.833146 85.442308 
L 109.362028 85.442308 
L 109.477229 86.956959 
L 111.027218 86.956959 
L 111.14242 88.471609 
L 111.666065 88.471609 
L 111.781267 89.98626 
L 112.770955 89.98626 
L 112.886157 88.471609 
L 121.164982 88.471609 
L 121.280183 89.98626 
L 123.893171 89.98626 
L 124.008373 91.500911 
L 124.657692 91.500911 
L 124.772894 89.98626 
L 125.642145 89.98626 
L 125.757347 91.500911 
L 128.736886 91.500911 
L 128.852087 89.98626 
L 130.391603 89.98626 
L 130.506805 91.500911 
L 133.989043 91.500911 
L 134.104245 89.98626 
L 141.440509 89.98626 
L 141.55571 91.500911 
L 147.986069 91.500911 
L 148.101271 93.015561 
L 148.829137 93.015561 
L 148.944339 91.500911 
L 151.222194 91.500911 
L 151.337396 89.98626 
L 153.322009 89.98626 
L 153.437211 91.500911 
L 158.909299 91.500911 
L 159.024501 89.98626 
L 159.239196 89.98626 
L 159.354398 91.500911 
L 174.037398 91.500911 
L 174.1526 90.996027 
L 175.105633 90.996027 
L 175.220835 92.510678 
L 182.771793 92.510678 
L 182.886995 94.025328 
L 183.112163 94.025328 
L 183.227364 92.510678 
L 197.255809 92.510678 
L 197.371011 90.996027 
L 204.901023 90.996027 
L 205.016225 92.510678 
L 215.588614 92.510678 
L 215.703816 94.025328 
L 215.876618 94.025328 
L 215.99182 93.520445 
L 221.380125 93.520445 
L 221.495327 95.035095 
L 225.564047 95.035095 
L 225.679249 93.520445 
L 232.010115 93.520445 
L 232.125317 95.035095 
L 270.875033 95.035095 
L 270.990235 96.549746 
L 277.111642 96.549746 
L 277.226844 95.035095 
L 315.452915 95.035095 
L 315.568117 96.549746 
L 333.984705 96.549746 
L 334.099907 95.035095 
L 398.487273 95.035095 
L 398.487273 95.035095 
" clip-path="url(#pbd66c9edb1)" style="fill: none; stroke: #ff7f0e; stroke-width: 1.5; stroke-linecap: square"/>
   </g>
   <g id="patch_3">
    <path d="M 57.6 162.432 
L 57.6 41.472 
" style="fill: none; stroke: #000000; stroke-width: 0.8; stroke-linejoin: miter; stroke-linecap: square"/>
   </g>
   <g id="patch_4">
    <path d="M 414.72 162.432 
L 414.72 41.472 
" style="fill: none; stroke: #000000; stroke-width: 0.8; stroke-linejoin: miter; stroke-linecap: square"/>
   </g>
   <g id="patch_5">
    <path d="M 57.6 162.432 
L 414.72 162.432 
" style="fill: none; stroke: #000000; stroke-width: 0.8; stroke-linejoin: miter; stroke-linecap: square"/>
   </g>
   <g id="patch_6">
    <path d="M 57.6 41.472 
L 414.72 41.472 
" style="fill: none; stroke: #000000; stroke-width: 0.8; stroke-linejoin: miter; stroke-linecap: square"/>
   </g>
   <g id="text_12">
    <!-- WSP -->
    <g transform="translate(361.832136 80.342984)scale(0.08 -0.08)">
     <defs>
      <path id="DejaVuSans-57" d="M 213 4666 
L 850 4666 
L 1831 722 
L 2809 4666 
L 3519 4666 
L 4500 722 
L 5478 4666 
L 6119 4666 
L 4947 0 
L 4153 0 
L 3169 4050 
L 2175 0 
L 1381 0 
L 213 4666 
z
" transform="scale(0.015625)"/>
      <path id="DejaVuSans-53" d="M 3425 4513 
L 3425 3897 
Q 3066 4069 2747 4153 
Q 2428 4238 2131 4238 
Q 1616 4238 1336 4038 
Q 1056 3838 1056 3469 
Q 1056 3159 1242 3001 
Q 1428 2844 1947 2747 
L 2328 2669 
Q 3034 2534 3370 2195 
Q 3706 1856 3706 1288 
Q 3706 609 3251 259 
Q 2797 -91 1919 -91 
Q 1588 -91 1214 -16 
Q 841 59 441 206 
L 441 856 
Q 825 641 1194 531 
Q 1563 422 1919 422 
Q 2459 422 2753 634 
Q 3047 847 3047 1241 
Q 3047 1584 2836 1778 
Q 2625 1972 2144 2069 
L 1759 2144 
Q 1053 2284 737 2584 
Q 422 2884 422 3419 
Q 422 4038 858 4394 
Q 1294 4750 2059 4750 
Q 2388 4750 2728 4690 
Q 3069 4631 3425 4513 
z
" transform="scale(0.015625)"/>
      <path id="DejaVuSans-50" d="M 1259 4147 
L 1259 2394 
L 2053 2394 
Q 2494 2394 2734 2622 
Q 2975 2850 2975 3272 
Q 2975 3691 2734 3919 
Q 2494 4147 2053 4147 
L 1259 4147 
z
M 628 4666 
L 2053 4666 
Q 2838 4666 3239 4311 
Q 3641 3956 3641 3272 
Q 3641 2581 3239 2228 
Q 2838 1875 2053 1875 
L 1259 1875 
L 1259 0 
L 628 0 
L 628 4666 
z
" transform="scale(0.015625)"/>
     </defs>
     <use xlink:href="#DejaVuSans-57"/>
     <use xlink:href="#DejaVuSans-53" x="98.876953"/>
     <use xlink:href="#DejaVuSans-50" x="162.353516"/>
    </g>
   </g>
   <g id="text_13">
    <!-- Iambic -->
    <g transform="translate(361.832136 59.945689)scale(0.08 -0.08)">
     <defs>
      <path id="DejaVuSans-49" d="M 628 4666 
L 1259 4666 
L 1259 0 
L 628 0 
L 628 4666 
z
" transform="scale(0.015625)"/>
      <path id="DejaVuSans-61" d="M 2194 1759 
Q 1497 1759 1228 1600 
Q 959 1441 959 1056 
Q 959 750 1161 570 
Q 1363 391 1709 391 
Q 2188 391 2477 730 
Q 2766 1069 2766 1631 
L 2766 1759 
L 2194 1759 
z
M 3341 1997 
L 3341 0 
L 2766 0 
L 2766 531 
Q 2569 213 2275 61 
Q 1981 -91 1556 -91 
Q 1019 -91 701 211 
Q 384 513 384 1019 
Q 384 1609 779 1909 
Q 1175 2209 1959 2209 
L 2766 2209 
L 2766 2266 
Q 2766 2663 2505 2880 
Q 2244 3097 1772 3097 
Q 1472 3097 1187 3025 
Q 903 2953 641 2809 
L 641 3341 
Q 956 3463 1253 3523 
Q 1550 3584 1831 3584 
Q 2591 3584 2966 3190 
Q 3341 2797 3341 1997 
z
" transform="scale(0.015625)"/>
      <path id="DejaVuSans-6d" d="M 3328 2828 
Q 3544 3216 3844 3400 
Q 4144 3584 4550 3584 
Q 5097 3584 5394 3201 
Q 5691 2819 5691 2113 
L 5691 0 
L 5113 0 
L 5113 2094 
Q 5113 2597 4934 2840 
Q 4756 3084 4391 3084 
Q 3944 3084 3684 2787 
Q 3425 2491 3425 1978 
L 3425 0 
L 2847 0 
L 2847 2094 
Q 2847 2600 2669 2842 
Q 2491 3084 2119 3084 
Q 1678 3084 1418 2786 
Q 1159 2488 1159 1978 
L 1159 0 
L 581 0 
L 581 3500 
L 1159 3500 
L 1159 2956 
Q 1356 3278 1631 3431 
Q 1906 3584 2284 3584 
Q 2666 3584 2933 3390 
Q 3200 3197 3328 2828 
z
" transform="scale(0.015625)"/>
      <path id="DejaVuSans-62" d="M 3116 1747 
Q 3116 2381 2855 2742 
Q 2594 3103 2138 3103 
Q 1681 3103 1420 2742 
Q 1159 2381 1159 1747 
Q 1159 1113 1420 752 
Q 1681 391 2138 391 
Q 2594 391 2855 752 
Q 3116 1113 3116 1747 
z
M 1159 2969 
Q 1341 3281 1617 3432 
Q 1894 3584 2278 3584 
Q 2916 3584 3314 3078 
Q 3713 2572 3713 1747 
Q 3713 922 3314 415 
Q 2916 -91 2278 -91 
Q 1894 -91 1617 61 
Q 1341 213 1159 525 
L 1159 0 
L 581 0 
L 581 4863 
L 1159 4863 
L 1159 2969 
z
" transform="scale(0.015625)"/>
      <path id="DejaVuSans-69" d="M 603 3500 
L 1178 3500 
L 1178 0 
L 603 0 
L 603 3500 
z
M 603 4863 
L 1178 4863 
L 1178 4134 
L 603 4134 
L 603 4863 
z
" transform="scale(0.015625)"/>
      <path id="DejaVuSans-63" d="M 3122 3366 
L 3122 2828 
Q 2878 2963 2633 3030 
Q 2388 3097 2138 3097 
Q 1578 3097 1268 2742 
Q 959 2388 959 1747 
Q 959 1106 1268 751 
Q 1578 397 2138 397 
Q 2388 397 2633 464 
Q 2878 531 3122 666 
L 3122 134 
Q 2881 22 2623 -34 
Q 2366 -91 2075 -91 
Q 1284 -91 818 406 
Q 353 903 353 1747 
Q 353 2603 823 3093 
Q 1294 3584 2113 3584 
Q 2378 3584 2631 3529 
Q 2884 3475 3122 3366 
z
" transform="scale(0.015625)"/>
     </defs>
     <use xlink:href="#DejaVuSans-49"/>
     <use xlink:href="#DejaVuSans-61" x="29.492188"/>
     <use xlink:href="#DejaVuSans-6d" x="90.771484"/>
     <use xlink:href="#DejaVuSans-62" x="188.183594"/>
     <use xlink:href="#DejaVuSans-69" x="251.660156"/>
     <use xlink:href="#DejaVuSans-63" x="279.443359"/>
    </g>
   </g>
   <g id="text_14">
    <!-- Parse -->
    <g transform="translate(361.832136 156.933818)scale(0.08 -0.08)">
     <defs>
      <path id="DejaVuSans-72" d="M 2631 2963 
Q 2534 3019 2420 3045 
Q 2306 3072 2169 3072 
Q 1681 3072 1420 2755 
Q 1159 2438 1159 1844 
L 1159 0 
L 581 0 
L 581 3500 
L 1159 3500 
L 1159 2956 
Q 1341 3275 1631 3429 
Q 1922 3584 2338 3584 
Q 2397 3584 2469 3576 
Q 2541 3569 2628 3553 
L 2631 2963 
z
" transform="scale(0.015625)"/>
      <path id="DejaVuSans-73" d="M 2834 3397 
L 2834 2853 
Q 2591 2978 2328 3040 
Q 2066 3103 1784 3103 
Q 1356 3103 1142 2972 
Q 928 2841 928 2578 
Q 928 2378 1081 2264 
Q 1234 2150 1697 2047 
L 1894 2003 
Q 2506 1872 2764 1633 
Q 3022 1394 3022 966 
Q 3022 478 2636 193 
Q 2250 -91 1575 -91 
Q 1294 -91 989 -36 
Q 684 19 347 128 
L 347 722 
Q 666 556 975 473 
Q 1284 391 1588 391 
Q 1994 391 2212 530 
Q 2431 669 2431 922 
Q 2431 1156 2273 1281 
Q 2116 1406 1581 1522 
L 1381 1569 
Q 847 1681 609 1914 
Q 372 2147 372 2553 
Q 372 3047 722 3315 
Q 1072 3584 1716 3584 
Q 2034 3584 2315 3537 
Q 2597 3491 2834 3397 
z
" transform="scale(0.015625)"/>
      <path id="DejaVuSans-65" d="M 3597 1894 
L 3597 1613 
L 953 1613 
Q 991 1019 1311 708 
Q 1631 397 2203 397 
Q 2534 397 2845 478 
Q 3156 559 3463 722 
L 3463 178 
Q 3153 47 2828 -22 
Q 2503 -91 2169 -91 
Q 1331 -91 842 396 
Q 353 884 353 1716 
Q 353 2575 817 3079 
Q 1281 3584 2069 3584 
Q 2775 3584 3186 3129 
Q 3597 2675 3597 1894 
z
M 3022 2063 
Q 3016 2534 2758 2815 
Q 2500 3097 2075 3097 
Q 1594 3097 1305 2825 
Q 1016 2553 972 2059 
L 3022 2063 
z
" transform="scale(0.015625)"/>
     </defs>
     <use xlink:href="#DejaVuSans-50"/>
     <use xlink:href="#DejaVuSans-61" x="55.802734"/>
     <use xlink:href="#DejaVuSans-72" x="117.082031"/>
     <use xlink:href="#DejaVuSans-73" x="158.195312"/>
     <use xlink:href="#DejaVuSans-65" x="210.294922"/>
    </g>
   </g>
   <g id="text_15">
    <!-- FootBin -->
    <g transform="translate(361.832136 112.428334)scale(0.08 -0.08)">
     <defs>
      <path id="DejaVuSans-46" d="M 628 4666 
L 3309 4666 
L 3309 4134 
L 1259 4134 
L 1259 2759 
L 3109 2759 
L 3109 2228 
L 1259 2228 
L 1259 0 
L 628 0 
L 628 4666 
z
" transform="scale(0.015625)"/>
      <path id="DejaVuSans-6f" d="M 1959 3097 
Q 1497 3097 1228 2736 
Q 959 2375 959 1747 
Q 959 1119 1226 758 
Q 1494 397 1959 397 
Q 2419 397 2687 759 
Q 2956 1122 2956 1747 
Q 2956 2369 2687 2733 
Q 2419 3097 1959 3097 
z
M 1959 3584 
Q 2709 3584 3137 3096 
Q 3566 2609 3566 1747 
Q 3566 888 3137 398 
Q 2709 -91 1959 -91 
Q 1206 -91 779 398 
Q 353 888 353 1747 
Q 353 2609 779 3096 
Q 1206 3584 1959 3584 
z
" transform="scale(0.015625)"/>
      <path id="DejaVuSans-74" d="M 1172 4494 
L 1172 3500 
L 2356 3500 
L 2356 3053 
L 1172 3053 
L 1172 1153 
Q 1172 725 1289 603 
Q 1406 481 1766 481 
L 2356 481 
L 2356 0 
L 1766 0 
Q 1100 0 847 248 
Q 594 497 594 1153 
L 594 3053 
L 172 3053 
L 172 3500 
L 594 3500 
L 594 4494 
L 1172 4494 
z
" transform="scale(0.015625)"/>
      <path id="DejaVuSans-42" d="M 1259 2228 
L 1259 519 
L 2272 519 
Q 2781 519 3026 730 
Q 3272 941 3272 1375 
Q 3272 1813 3026 2020 
Q 2781 2228 2272 2228 
L 1259 2228 
z
M 1259 4147 
L 1259 2741 
L 2194 2741 
Q 2656 2741 2882 2914 
Q 3109 3088 3109 3444 
Q 3109 3797 2882 3972 
Q 2656 4147 2194 4147 
L 1259 4147 
z
M 628 4666 
L 2241 4666 
Q 2963 4666 3353 4366 
Q 3744 4066 3744 3513 
Q 3744 3084 3544 2831 
Q 3344 2578 2956 2516 
Q 3422 2416 3680 2098 
Q 3938 1781 3938 1306 
Q 3938 681 3513 340 
Q 3088 0 2303 0 
L 628 0 
L 628 4666 
z
" transform="scale(0.015625)"/>
      <path id="DejaVuSans-6e" d="M 3513 2113 
L 3513 0 
L 2938 0 
L 2938 2094 
Q 2938 2591 2744 2837 
Q 2550 3084 2163 3084 
Q 1697 3084 1428 2787 
Q 1159 2491 1159 1978 
L 1159 0 
L 581 0 
L 581 3500 
L 1159 3500 
L 1159 2956 
Q 1366 3272 1645 3428 
Q 1925 3584 2291 3584 
Q 2894 3584 3203 3211 
Q 3513 2838 3513 2113 
z
" transform="scale(0.015625)"/>
     </defs>
     <use xlink:href="#DejaVuSans-46"/>
     <use xlink:href="#DejaVuSans-6f" x="53.894531"/>
     <use xlink:href="#DejaVuSans-6f" x="115.076172"/>
     <use xlink:href="#DejaVuSans-74" x="176.257812"/>
     <use xlink:href="#DejaVuSans-42" x="215.466797"/>
     <use xlink:href="#DejaVuSans-69" x="284.070312"/>
     <use xlink:href="#DejaVuSans-6e" x="311.853516"/>
    </g>
   </g>
   <g id="text_16">
    <!-- WFL -->
    <g transform="translate(361.832136 55.578446)scale(0.08 -0.08)">
     <defs>
      <path id="DejaVuSans-4c" d="M 628 4666 
L 1259 4666 
L 1259 531 
L 3531 531 
L 3531 0 
L 628 0 
L 628 4666 
z
" transform="scale(0.015625)"/>
     </defs>
     <use xlink:href="#DejaVuSans-57"/>
     <use xlink:href="#DejaVuSans-46" x="98.876953"/>
     <use xlink:href="#DejaVuSans-4c" x="156.396484"/>
    </g>
   </g>
   <g id="text_17">
    <!-- WFR -->
    <g transform="translate(361.832136 48.989716)scale(0.08 -0.08)">
     <defs>
      <path id="DejaVuSans-52" d="M 2841 2188 
Q 3044 2119 3236 1894 
Q 3428 1669 3622 1275 
L 4263 0 
L 3584 0 
L 2988 1197 
Q 2756 1666 2539 1819 
Q 2322 1972 1947 1972 
L 1259 1972 
L 1259 0 
L 628 0 
L 628 4666 
L 2053 4666 
Q 2853 4666 3247 4331 
Q 3641 3997 3641 3322 
Q 3641 2881 3436 2590 
Q 3231 2300 2841 2188 
z
M 1259 4147 
L 1259 2491 
L 2053 2491 
Q 2509 2491 2742 2702 
Q 2975 2913 2975 3322 
Q 2975 3731 2742 3939 
Q 2509 4147 2053 4147 
L 1259 4147 
z
" transform="scale(0.015625)"/>
     </defs>
     <use xlink:href="#DejaVuSans-57"/>
     <use xlink:href="#DejaVuSans-46" x="98.876953"/>
     <use xlink:href="#DejaVuSans-52" x="156.396484"/>
    </g>
   </g>
   <g id="text_18">
    <!-- Main-L -->
    <g transform="translate(361.832136 81.150798)scale(0.08 -0.08)">
     <defs>
      <path id="DejaVuSans-4d" d="M 628 4666 
L 1569 4666 
L 2759 1491 
L 3956 4666 
L 4897 4666 
L 4897 0 
L 4281 0 
L 4281 4097 
L 3078 897 
L 2444 897 
L 1241 4097 
L 1241 0 
L 628 0 
L 628 4666 
z
" transform="scale(0.015625)"/>
      <path id="DejaVuSans-2d" d="M 313 2009 
L 1997 2009 
L 1997 1497 
L 313 1497 
L 313 2009 
z
" transform="scale(0.015625)"/>
     </defs>
     <use xlink:href="#DejaVuSans-4d"/>
     <use xlink:href="#DejaVuSans-61" x="86.279297"/>
     <use xlink:href="#DejaVuSans-69" x="147.558594"/>
     <use xlink:href="#DejaVuSans-6e" x="175.341797"/>
     <use xlink:href="#DejaVuSans-2d" x="238.720703"/>
     <use xlink:href="#DejaVuSans-4c" x="274.804688"/>
    </g>
   </g>
   <g id="text_19">
    <!-- Main-R -->
    <g transform="translate(361.832136 46.970182)scale(0.08 -0.08)">
     <use xlink:href="#DejaVuSans-4d"/>
     <use xlink:href="#DejaVuSans-61" x="86.279297"/>
     <use xlink:href="#DejaVuSans-69" x="147.558594"/>
     <use xlink:href="#DejaVuSans-6e" x="175.341797"/>
     <use xlink:href="#DejaVuSans-2d" x="238.720703"/>
     <use xlink:href="#DejaVuSans-52" x="274.804688"/>
    </g>
   </g>
   <g id="text_20">
    <!-- AFL -->
    <g transform="translate(361.832136 62.97499)scale(0.08 -0.08)">
     <defs>
      <path id="DejaVuSans-41" d="M 2188 4044 
L 1331 1722 
L 3047 1722 
L 2188 4044 
z
M 1831 4666 
L 2547 4666 
L 4325 0 
L 3669 0 
L 3244 1197 
L 1141 1197 
L 716 0 
L 50 0 
L 1831 4666 
z
" transform="scale(0.015625)"/>
     </defs>
     <use xlink:href="#DejaVuSans-41"/>
     <use xlink:href="#DejaVuSans-46" x="68.408203"/>
     <use xlink:href="#DejaVuSans-4c" x="125.927734"/>
    </g>
   </g>
   <g id="text_21">
    <!-- AFR -->
    <g transform="translate(361.832136 112.302113)scale(0.08 -0.08)">
     <use xlink:href="#DejaVuSans-41"/>
     <use xlink:href="#DejaVuSans-46" x="68.408203"/>
     <use xlink:href="#DejaVuSans-52" x="125.927734"/>
    </g>
   </g>
   <g id="text_22">
    <!-- Nonfinal -->
    <g transform="translate(361.832136 73.880475)scale(0.08 -0.08)">
     <defs>
      <path id="DejaVuSans-4e" d="M 628 4666 
L 1478 4666 
L 3547 763 
L 3547 4666 
L 4159 4666 
L 4159 0 
L 3309 0 
L 1241 3903 
L 1241 0 
L 628 0 
L 628 4666 
z
" transform="scale(0.015625)"/>
      <path id="DejaVuSans-66" d="M 2375 4863 
L 2375 4384 
L 1825 4384 
Q 1516 4384 1395 4259 
Q 1275 4134 1275 3809 
L 1275 3500 
L 2222 3500 
L 2222 3053 
L 1275 3053 
L 1275 0 
L 697 0 
L 697 3053 
L 147 3053 
L 147 3500 
L 697 3500 
L 697 3744 
Q 697 4328 969 4595 
Q 1241 4863 1831 4863 
L 2375 4863 
z
" transform="scale(0.015625)"/>
      <path id="DejaVuSans-6c" d="M 603 4863 
L 1178 4863 
L 1178 0 
L 603 0 
L 603 4863 
z
" transform="scale(0.015625)"/>
     </defs>
     <use xlink:href="#DejaVuSans-4e"/>
     <use xlink:href="#DejaVuSans-6f" x="74.804688"/>
     <use xlink:href="#DejaVuSans-6e" x="135.986328"/>
     <use xlink:href="#DejaVuSans-66" x="199.365234"/>
     <use xlink:href="#DejaVuSans-69" x="234.570312"/>
     <use xlink:href="#DejaVuSans-6e" x="262.353516"/>
     <use xlink:href="#DejaVuSans-61" x="325.732422"/>
     <use xlink:href="#DejaVuSans-6c" x="387.011719"/>
    </g>
   </g>
   <g id="text_23">
    <!-- Trochaic -->
    <g transform="translate(361.832136 95.035095)scale(0.08 -0.08)">
     <defs>
      <path id="DejaVuSans-54" d="M -19 4666 
L 3928 4666 
L 3928 4134 
L 2272 4134 
L 2272 0 
L 1638 0 
L 1638 4134 
L -19 4134 
L -19 4666 
z
" transform="scale(0.015625)"/>
      <path id="DejaVuSans-68" d="M 3513 2113 
L 3513 0 
L 2938 0 
L 2938 2094 
Q 2938 2591 2744 2837 
Q 2550 3084 2163 3084 
Q 1697 3084 1428 2787 
Q 1159 2491 1159 1978 
L 1159 0 
L 581 0 
L 581 4863 
L 1159 4863 
L 1159 2956 
Q 1366 3272 1645 3428 
Q 1925 3584 2291 3584 
Q 2894 3584 3203 3211 
Q 3513 2838 3513 2113 
z
" transform="scale(0.015625)"/>
     </defs>
     <use xlink:href="#DejaVuSans-54"/>
     <use xlink:href="#DejaVuSans-72" x="46.333984"/>
     <use xlink:href="#DejaVuSans-6f" x="85.197266"/>
     <use xlink:href="#DejaVuSans-63" x="146.378906"/>
     <use xlink:href="#DejaVuSans-68" x="201.359375"/>
     <use xlink:href="#DejaVuSans-61" x="264.738281"/>
     <use xlink:href="#DejaVuSans-69" x="326.017578"/>
     <use xlink:href="#DejaVuSans-63" x="353.800781"/>
    </g>
   </g>
  </g>
  <g id="axes_2">
   <g id="patch_7">
    <path d="M 57.6 307.584 
L 414.72 307.584 
L 414.72 186.624 
L 57.6 186.624 
z
" style="fill: #ffffff"/>
   </g>
   <g id="matplotlib.axis_3">
    <g id="xtick_8">
     <g id="line2d_24">
      <g>
       <use xlink:href="#ma1ba093a29" x="72.114978" y="307.584" style="stroke: #000000; stroke-width: 0.8"/>
      </g>
     </g>
     <g id="text_24">
      <!-- 0 -->
      <g transform="translate(68.933728 322.182437)scale(0.1 -0.1)">
       <use xlink:href="#DejaVuSans-30"/>
      </g>
     </g>
    </g>
    <g id="xtick_9">
     <g id="line2d_25">
      <g>
       <use xlink:href="#ma1ba093a29" x="115.058701" y="307.584" style="stroke: #000000; stroke-width: 0.8"/>
      </g>
     </g>
     <g id="text_25">
      <!-- 25 -->
      <g transform="translate(108.696201 322.182437)scale(0.1 -0.1)">
       <use xlink:href="#DejaVuSans-32"/>
       <use xlink:href="#DejaVuSans-35" x="63.623047"/>
      </g>
     </g>
    </g>
    <g id="xtick_10">
     <g id="line2d_26">
      <g>
       <use xlink:href="#ma1ba093a29" x="158.002424" y="307.584" style="stroke: #000000; stroke-width: 0.8"/>
      </g>
     </g>
     <g id="text_26">
      <!-- 50 -->
      <g transform="translate(151.639924 322.182437)scale(0.1 -0.1)">
       <use xlink:href="#DejaVuSans-35"/>
       <use xlink:href="#DejaVuSans-30" x="63.623047"/>
      </g>
     </g>
    </g>
    <g id="xtick_11">
     <g id="line2d_27">
      <g>
       <use xlink:href="#ma1ba093a29" x="200.946147" y="307.584" style="stroke: #000000; stroke-width: 0.8"/>
      </g>
     </g>
     <g id="text_27">
      <!-- 75 -->
      <g transform="translate(194.583647 322.182437)scale(0.1 -0.1)">
       <defs>
        <path id="DejaVuSans-37" d="M 525 4666 
L 3525 4666 
L 3525 4397 
L 1831 0 
L 1172 0 
L 2766 4134 
L 525 4134 
L 525 4666 
z
" transform="scale(0.015625)"/>
       </defs>
       <use xlink:href="#DejaVuSans-37"/>
       <use xlink:href="#DejaVuSans-35" x="63.623047"/>
      </g>
     </g>
    </g>
    <g id="xtick_12">
     <g id="line2d_28">
      <g>
       <use xlink:href="#ma1ba093a29" x="243.88987" y="307.584" style="stroke: #000000; stroke-width: 0.8"/>
      </g>
     </g>
     <g id="text_28">
      <!-- 100 -->
      <g transform="translate(234.34612 322.182437)scale(0.1 -0.1)">
       <use xlink:href="#DejaVuSans-31"/>
       <use xlink:href="#DejaVuSans-30" x="63.623047"/>
       <use xlink:href="#DejaVuSans-30" x="127.246094"/>
      </g>
     </g>
    </g>
    <g id="xtick_13">
     <g id="line2d_29">
      <g>
       <use xlink:href="#ma1ba093a29" x="286.833593" y="307.584" style="stroke: #000000; stroke-width: 0.8"/>
      </g>
     </g>
     <g id="text_29">
      <!-- 125 -->
      <g transform="translate(277.289843 322.182437)scale(0.1 -0.1)">
       <use xlink:href="#DejaVuSans-31"/>
       <use xlink:href="#DejaVuSans-32" x="63.623047"/>
       <use xlink:href="#DejaVuSans-35" x="127.246094"/>
      </g>
     </g>
    </g>
    <g id="xtick_14">
     <g id="line2d_30">
      <g>
       <use xlink:href="#ma1ba093a29" x="329.777316" y="307.584" style="stroke: #000000; stroke-width: 0.8"/>
      </g>
     </g>
     <g id="text_30">
      <!-- 150 -->
      <g transform="translate(320.233566 322.182437)scale(0.1 -0.1)">
       <use xlink:href="#DejaVuSans-31"/>
       <use xlink:href="#DejaVuSans-35" x="63.623047"/>
       <use xlink:href="#DejaVuSans-30" x="127.246094"/>
      </g>
     </g>
    </g>
    <g id="xtick_15">
     <g id="line2d_31">
      <g>
       <use xlink:href="#ma1ba093a29" x="372.721039" y="307.584" style="stroke: #000000; stroke-width: 0.8"/>
      </g>
     </g>
     <g id="text_31">
      <!-- 175 -->
      <g transform="translate(363.177289 322.182437)scale(0.1 -0.1)">
       <use xlink:href="#DejaVuSans-31"/>
       <use xlink:href="#DejaVuSans-37" x="63.623047"/>
       <use xlink:href="#DejaVuSans-35" x="127.246094"/>
      </g>
     </g>
    </g>
   </g>
   <g id="matplotlib.axis_4">
    <g id="ytick_5">
     <g id="line2d_32">
      <g>
       <use xlink:href="#m88176850c1" x="57.6" y="302.100636" style="stroke: #000000; stroke-width: 0.8"/>
      </g>
     </g>
     <g id="text_32">
      <!-- 0 -->
      <g transform="translate(44.2375 305.899855)scale(0.1 -0.1)">
       <use xlink:href="#DejaVuSans-30"/>
      </g>
     </g>
    </g>
    <g id="ytick_6">
     <g id="line2d_33">
      <g>
       <use xlink:href="#m88176850c1" x="57.6" y="272.464836" style="stroke: #000000; stroke-width: 0.8"/>
      </g>
     </g>
     <g id="text_33">
      <!-- 2000 -->
      <g transform="translate(25.15 276.264055)scale(0.1 -0.1)">
       <use xlink:href="#DejaVuSans-32"/>
       <use xlink:href="#DejaVuSans-30" x="63.623047"/>
       <use xlink:href="#DejaVuSans-30" x="127.246094"/>
       <use xlink:href="#DejaVuSans-30" x="190.869141"/>
      </g>
     </g>
    </g>
    <g id="ytick_7">
     <g id="line2d_34">
      <g>
       <use xlink:href="#m88176850c1" x="57.6" y="242.829036" style="stroke: #000000; stroke-width: 0.8"/>
      </g>
     </g>
     <g id="text_34">
      <!-- 4000 -->
      <g transform="translate(25.15 246.628255)scale(0.1 -0.1)">
       <use xlink:href="#DejaVuSans-34"/>
       <use xlink:href="#DejaVuSans-30" x="63.623047"/>
       <use xlink:href="#DejaVuSans-30" x="127.246094"/>
       <use xlink:href="#DejaVuSans-30" x="190.869141"/>
      </g>
     </g>
    </g>
    <g id="ytick_8">
     <g id="line2d_35">
      <g>
       <use xlink:href="#m88176850c1" x="57.6" y="213.193236" style="stroke: #000000; stroke-width: 0.8"/>
      </g>
     </g>
     <g id="text_35">
      <!-- 6000 -->
      <g transform="translate(25.15 216.992454)scale(0.1 -0.1)">
       <use xlink:href="#DejaVuSans-36"/>
       <use xlink:href="#DejaVuSans-30" x="63.623047"/>
       <use xlink:href="#DejaVuSans-30" x="127.246094"/>
       <use xlink:href="#DejaVuSans-30" x="190.869141"/>
      </g>
     </g>
    </g>
   </g>
   <g id="line2d_36">
    <path d="M 73.832727 302.085818 
L 145.978182 302.056182 
L 147.695931 301.922821 
L 154.566926 302.085818 
L 161.437922 302.026547 
L 163.155671 302.056182 
L 164.87342 301.937639 
L 166.591169 302.085818 
L 170.026667 302.011729 
L 171.744416 302.041364 
L 173.462165 301.952457 
L 175.179913 302.041364 
L 176.897662 301.952457 
L 178.615411 302.085818 
L 185.486407 301.937639 
L 187.204156 302.056182 
L 188.921905 301.967275 
L 190.639654 302.056182 
L 192.357403 301.952457 
L 194.075152 302.085818 
L 195.7929 301.819096 
L 197.510649 302.085818 
L 199.228398 301.819096 
L 200.946147 302.071 
L 202.663896 302.071 
L 204.381645 301.656099 
L 206.099394 302.085818 
L 207.817143 301.833914 
L 209.534892 301.982093 
L 211.252641 301.774642 
L 212.97039 300.826297 
L 214.688139 302.071 
L 216.405887 301.922821 
L 218.123636 300.470667 
L 219.841385 302.071 
L 223.276883 301.685735 
L 224.994632 301.952457 
L 226.712381 301.715371 
L 228.43013 302.011729 
L 230.147879 301.86355 
L 233.583377 301.359741 
L 235.301126 300.174309 
L 237.018874 301.982093 
L 238.736623 302.071 
L 240.454372 301.419013 
L 242.172121 301.641281 
L 243.88987 301.996911 
L 245.607619 301.715371 
L 247.325368 300.529939 
L 250.760866 302.056182 
L 252.478615 302.071 
L 254.196364 301.804278 
L 255.914113 301.86355 
L 257.631861 301.670917 
L 259.34961 300.989294 
L 261.067359 301.685735 
L 262.785108 302.026547 
L 264.502857 301.700553 
L 266.220606 301.730189 
L 267.938355 300.648482 
L 269.656104 301.063383 
L 271.373853 301.967275 
L 273.091602 301.196744 
L 274.809351 302.026547 
L 276.5271 301.463466 
L 278.244848 299.640865 
L 279.962597 302.026547 
L 281.680346 301.893185 
L 283.398095 299.892769 
L 285.115844 301.685735 
L 286.833593 301.004111 
L 288.551342 299.714954 
L 290.269091 301.937639 
L 291.98684 299.033331 
L 293.704589 300.989294 
L 295.422338 293.698887 
L 298.857835 301.493102 
L 300.575584 301.730189 
L 302.293333 296.795828 
L 304.011082 300.292852 
L 305.728831 301.478284 
L 307.44658 296.795828 
L 309.164329 300.737389 
L 310.882078 300.070584 
L 312.599827 300.633664 
L 314.317576 300.604028 
L 316.035325 299.892769 
L 317.753074 300.648482 
L 319.470823 295.477035 
L 321.188571 299.877951 
L 322.90632 298.514704 
L 324.624069 300.38176 
L 326.341818 299.359325 
L 328.059567 300.915204 
L 329.777316 298.485068 
L 331.495065 301.048565 
L 333.212814 301.15229 
L 334.930563 300.278034 
L 336.648312 297.388544 
L 338.366061 300.292852 
L 340.08381 298.974059 
L 341.801558 280.748042 
L 343.519307 300.040948 
L 345.237056 301.759824 
L 346.954805 294.38051 
L 348.672554 299.937223 
L 352.108052 300.959658 
L 353.825801 293.343257 
L 355.54355 297.41818 
L 357.261299 291.920739 
L 358.979048 281.014764 
L 360.696797 283.578261 
L 362.414545 299.714954 
L 364.132294 295.328856 
L 365.850043 296.158658 
L 367.567792 286.289937 
L 369.285541 301.167108 
L 371.00329 260.225251 
L 372.721039 299.077784 
L 374.438788 281.340758 
L 376.156537 301.167108 
L 377.874286 301.137473 
L 379.592035 262.077488 
L 381.309784 280.466502 
L 383.027532 271.857302 
L 384.745281 301.285652 
L 386.46303 289.37206 
L 388.180779 299.255599 
L 389.898528 290.261134 
L 391.616277 283.859801 
L 393.334026 192.122182 
L 395.051775 284.452517 
L 396.769524 193.603972 
L 398.487273 249.660088 
L 398.487273 249.660088 
" clip-path="url(#pc80abc994b)" style="fill: none; stroke: #1f77b4; stroke-width: 1.5; stroke-linecap: square"/>
   </g>
   <g id="patch_8">
    <path d="M 57.6 307.584 
L 57.6 186.624 
" style="fill: none; stroke: #000000; stroke-width: 0.8; stroke-linejoin: miter; stroke-linecap: square"/>
   </g>
   <g id="patch_9">
    <path d="M 414.72 307.584 
L 414.72 186.624 
" style="fill: none; stroke: #000000; stroke-width: 0.8; stroke-linejoin: miter; stroke-linecap: square"/>
   </g>
   <g id="patch_10">
    <path d="M 57.6 307.584 
L 414.72 307.584 
" style="fill: none; stroke: #000000; stroke-width: 0.8; stroke-linejoin: miter; stroke-linecap: square"/>
   </g>
   <g id="patch_11">
    <path d="M 57.6 186.624 
L 414.72 186.624 
" style="fill: none; stroke: #000000; stroke-width: 0.8; stroke-linejoin: miter; stroke-linecap: square"/>
   </g>
  </g>
 </g>
 <defs>
  <clipPath id="pbd66c9edb1">
   <rect x="57.6" y="41.472" width="357.12" height="120.96"/>
  </clipPath>
  <clipPath id="pc80abc994b">
   <rect x="57.6" y="186.624" width="357.12" height="120.96"/>
  </clipPath>
 </defs>
</svg>
