<?xml version="1.0" encoding="utf-8" standalone="no"?>
<!DOCTYPE svg PUBLIC "-//W3C//DTD SVG 1.1//EN"
  "http://www.w3.org/Graphics/SVG/1.1/DTD/svg11.dtd">
<svg xmlns:xlink="http://www.w3.org/1999/xlink" width="460.8pt" height="345.6pt" viewBox="0 0 460.8 345.6" xmlns="http://www.w3.org/2000/svg" version="1.1">
 <metadata>
  <rdf:RDF xmlns:dc="http://purl.org/dc/elements/1.1/" xmlns:cc="http://creativecommons.org/ns#" xmlns:rdf="http://www.w3.org/1999/02/22-rdf-syntax-ns#">
   <cc:Work>
    <dc:type rdf:resource="http://purl.org/dc/dcmitype/StillImage"/>
    <dc:date>2022-05-14T00:29:02.118223</dc:date>
    <dc:format>image/svg+xml</dc:format>
    <dc:creator>
     <cc:Agent>
      <dc:title>Matplotlib v3.5.1, https://matplotlib.org/</dc:title>
     </cc:Agent>
    </dc:creator>
   </cc:Work>
  </rdf:RDF>
 </metadata>
 <defs>
  <style type="text/css">*{stroke-linejoin: round; stroke-linecap: butt}</style>
 </defs>
 <g id="figure_1">
  <g id="patch_1">
   <path d="M 0 345.6 
L 460.8 345.6 
L 460.8 0 
L 0 0 
z
" style="fill: #ffffff"/>
  </g>
  <g id="axes_1">
   <g id="patch_2">
    <path d="M 57.6 162.432 
L 414.72 162.432 
L 414.72 41.472 
L 57.6 41.472 
z
" style="fill: #ffffff"/>
   </g>
   <g id="matplotlib.axis_1">
    <g id="xtick_1">
     <g id="line2d_1">
      <defs>
       <path id="mbd4f889ab2" d="M 0 0 
L 0 3.5 
" style="stroke: #000000; stroke-width: 0.8"/>
      </defs>
      <g>
       <use xlink:href="#mbd4f889ab2" x="73.827491" y="162.432" style="stroke: #000000; stroke-width: 0.8"/>
      </g>
     </g>
     <g id="text_1">
      <!-- 0 -->
      <g transform="translate(70.646241 177.030437)scale(0.1 -0.1)">
       <defs>
        <path id="DejaVuSans-30" d="M 2034 4250 
Q 1547 4250 1301 3770 
Q 1056 3291 1056 2328 
Q 1056 1369 1301 889 
Q 1547 409 2034 409 
Q 2525 409 2770 889 
Q 3016 1369 3016 2328 
Q 3016 3291 2770 3770 
Q 2525 4250 2034 4250 
z
M 2034 4750 
Q 2819 4750 3233 4129 
Q 3647 3509 3647 2328 
Q 3647 1150 3233 529 
Q 2819 -91 2034 -91 
Q 1250 -91 836 529 
Q 422 1150 422 2328 
Q 422 3509 836 4129 
Q 1250 4750 2034 4750 
z
" transform="scale(0.015625)"/>
       </defs>
       <use xlink:href="#DejaVuSans-30"/>
      </g>
     </g>
    </g>
    <g id="xtick_2">
     <g id="line2d_2">
      <g>
       <use xlink:href="#mbd4f889ab2" x="126.191972" y="162.432" style="stroke: #000000; stroke-width: 0.8"/>
      </g>
     </g>
     <g id="text_2">
      <!-- 10000 -->
      <g transform="translate(110.285722 177.030437)scale(0.1 -0.1)">
       <defs>
        <path id="DejaVuSans-31" d="M 794 531 
L 1825 531 
L 1825 4091 
L 703 3866 
L 703 4441 
L 1819 4666 
L 2450 4666 
L 2450 531 
L 3481 531 
L 3481 0 
L 794 0 
L 794 531 
z
" transform="scale(0.015625)"/>
       </defs>
       <use xlink:href="#DejaVuSans-31"/>
       <use xlink:href="#DejaVuSans-30" x="63.623047"/>
       <use xlink:href="#DejaVuSans-30" x="127.246094"/>
       <use xlink:href="#DejaVuSans-30" x="190.869141"/>
       <use xlink:href="#DejaVuSans-30" x="254.492188"/>
      </g>
     </g>
    </g>
    <g id="xtick_3">
     <g id="line2d_3">
      <g>
       <use xlink:href="#mbd4f889ab2" x="178.556453" y="162.432" style="stroke: #000000; stroke-width: 0.8"/>
      </g>
     </g>
     <g id="text_3">
      <!-- 20000 -->
      <g transform="translate(162.650203 177.030437)scale(0.1 -0.1)">
       <defs>
        <path id="DejaVuSans-32" d="M 1228 531 
L 3431 531 
L 3431 0 
L 469 0 
L 469 531 
Q 828 903 1448 1529 
Q 2069 2156 2228 2338 
Q 2531 2678 2651 2914 
Q 2772 3150 2772 3378 
Q 2772 3750 2511 3984 
Q 2250 4219 1831 4219 
Q 1534 4219 1204 4116 
Q 875 4013 500 3803 
L 500 4441 
Q 881 4594 1212 4672 
Q 1544 4750 1819 4750 
Q 2544 4750 2975 4387 
Q 3406 4025 3406 3419 
Q 3406 3131 3298 2873 
Q 3191 2616 2906 2266 
Q 2828 2175 2409 1742 
Q 1991 1309 1228 531 
z
" transform="scale(0.015625)"/>
       </defs>
       <use xlink:href="#DejaVuSans-32"/>
       <use xlink:href="#DejaVuSans-30" x="63.623047"/>
       <use xlink:href="#DejaVuSans-30" x="127.246094"/>
       <use xlink:href="#DejaVuSans-30" x="190.869141"/>
       <use xlink:href="#DejaVuSans-30" x="254.492188"/>
      </g>
     </g>
    </g>
    <g id="xtick_4">
     <g id="line2d_4">
      <g>
       <use xlink:href="#mbd4f889ab2" x="230.920934" y="162.432" style="stroke: #000000; stroke-width: 0.8"/>
      </g>
     </g>
     <g id="text_4">
      <!-- 30000 -->
      <g transform="translate(215.014684 177.030437)scale(0.1 -0.1)">
       <defs>
        <path id="DejaVuSans-33" d="M 2597 2516 
Q 3050 2419 3304 2112 
Q 3559 1806 3559 1356 
Q 3559 666 3084 287 
Q 2609 -91 1734 -91 
Q 1441 -91 1130 -33 
Q 819 25 488 141 
L 488 750 
Q 750 597 1062 519 
Q 1375 441 1716 441 
Q 2309 441 2620 675 
Q 2931 909 2931 1356 
Q 2931 1769 2642 2001 
Q 2353 2234 1838 2234 
L 1294 2234 
L 1294 2753 
L 1863 2753 
Q 2328 2753 2575 2939 
Q 2822 3125 2822 3475 
Q 2822 3834 2567 4026 
Q 2313 4219 1838 4219 
Q 1578 4219 1281 4162 
Q 984 4106 628 3988 
L 628 4550 
Q 988 4650 1302 4700 
Q 1616 4750 1894 4750 
Q 2613 4750 3031 4423 
Q 3450 4097 3450 3541 
Q 3450 3153 3228 2886 
Q 3006 2619 2597 2516 
z
" transform="scale(0.015625)"/>
       </defs>
       <use xlink:href="#DejaVuSans-33"/>
       <use xlink:href="#DejaVuSans-30" x="63.623047"/>
       <use xlink:href="#DejaVuSans-30" x="127.246094"/>
       <use xlink:href="#DejaVuSans-30" x="190.869141"/>
       <use xlink:href="#DejaVuSans-30" x="254.492188"/>
      </g>
     </g>
    </g>
    <g id="xtick_5">
     <g id="line2d_5">
      <g>
       <use xlink:href="#mbd4f889ab2" x="283.285415" y="162.432" style="stroke: #000000; stroke-width: 0.8"/>
      </g>
     </g>
     <g id="text_5">
      <!-- 40000 -->
      <g transform="translate(267.379165 177.030437)scale(0.1 -0.1)">
       <defs>
        <path id="DejaVuSans-34" d="M 2419 4116 
L 825 1625 
L 2419 1625 
L 2419 4116 
z
M 2253 4666 
L 3047 4666 
L 3047 1625 
L 3713 1625 
L 3713 1100 
L 3047 1100 
L 3047 0 
L 2419 0 
L 2419 1100 
L 313 1100 
L 313 1709 
L 2253 4666 
z
" transform="scale(0.015625)"/>
       </defs>
       <use xlink:href="#DejaVuSans-34"/>
       <use xlink:href="#DejaVuSans-30" x="63.623047"/>
       <use xlink:href="#DejaVuSans-30" x="127.246094"/>
       <use xlink:href="#DejaVuSans-30" x="190.869141"/>
       <use xlink:href="#DejaVuSans-30" x="254.492188"/>
      </g>
     </g>
    </g>
    <g id="xtick_6">
     <g id="line2d_6">
      <g>
       <use xlink:href="#mbd4f889ab2" x="335.649896" y="162.432" style="stroke: #000000; stroke-width: 0.8"/>
      </g>
     </g>
     <g id="text_6">
      <!-- 50000 -->
      <g transform="translate(319.743646 177.030437)scale(0.1 -0.1)">
       <defs>
        <path id="DejaVuSans-35" d="M 691 4666 
L 3169 4666 
L 3169 4134 
L 1269 4134 
L 1269 2991 
Q 1406 3038 1543 3061 
Q 1681 3084 1819 3084 
Q 2600 3084 3056 2656 
Q 3513 2228 3513 1497 
Q 3513 744 3044 326 
Q 2575 -91 1722 -91 
Q 1428 -91 1123 -41 
Q 819 9 494 109 
L 494 744 
Q 775 591 1075 516 
Q 1375 441 1709 441 
Q 2250 441 2565 725 
Q 2881 1009 2881 1497 
Q 2881 1984 2565 2268 
Q 2250 2553 1709 2553 
Q 1456 2553 1204 2497 
Q 953 2441 691 2322 
L 691 4666 
z
" transform="scale(0.015625)"/>
       </defs>
       <use xlink:href="#DejaVuSans-35"/>
       <use xlink:href="#DejaVuSans-30" x="63.623047"/>
       <use xlink:href="#DejaVuSans-30" x="127.246094"/>
       <use xlink:href="#DejaVuSans-30" x="190.869141"/>
       <use xlink:href="#DejaVuSans-30" x="254.492188"/>
      </g>
     </g>
    </g>
    <g id="xtick_7">
     <g id="line2d_7">
      <g>
       <use xlink:href="#mbd4f889ab2" x="388.014377" y="162.432" style="stroke: #000000; stroke-width: 0.8"/>
      </g>
     </g>
     <g id="text_7">
      <!-- 60000 -->
      <g transform="translate(372.108127 177.030437)scale(0.1 -0.1)">
       <defs>
        <path id="DejaVuSans-36" d="M 2113 2584 
Q 1688 2584 1439 2293 
Q 1191 2003 1191 1497 
Q 1191 994 1439 701 
Q 1688 409 2113 409 
Q 2538 409 2786 701 
Q 3034 994 3034 1497 
Q 3034 2003 2786 2293 
Q 2538 2584 2113 2584 
z
M 3366 4563 
L 3366 3988 
Q 3128 4100 2886 4159 
Q 2644 4219 2406 4219 
Q 1781 4219 1451 3797 
Q 1122 3375 1075 2522 
Q 1259 2794 1537 2939 
Q 1816 3084 2150 3084 
Q 2853 3084 3261 2657 
Q 3669 2231 3669 1497 
Q 3669 778 3244 343 
Q 2819 -91 2113 -91 
Q 1303 -91 875 529 
Q 447 1150 447 2328 
Q 447 3434 972 4092 
Q 1497 4750 2381 4750 
Q 2619 4750 2861 4703 
Q 3103 4656 3366 4563 
z
" transform="scale(0.015625)"/>
       </defs>
       <use xlink:href="#DejaVuSans-36"/>
       <use xlink:href="#DejaVuSans-30" x="63.623047"/>
       <use xlink:href="#DejaVuSans-30" x="127.246094"/>
       <use xlink:href="#DejaVuSans-30" x="190.869141"/>
       <use xlink:href="#DejaVuSans-30" x="254.492188"/>
      </g>
     </g>
    </g>
   </g>
   <g id="matplotlib.axis_2">
    <g id="ytick_1">
     <g id="line2d_8">
      <defs>
       <path id="m662cf5e800" d="M 0 0 
L -3.5 0 
" style="stroke: #000000; stroke-width: 0.8"/>
      </defs>
      <g>
       <use xlink:href="#m662cf5e800" x="57.6" y="151.512506" style="stroke: #000000; stroke-width: 0.8"/>
      </g>
     </g>
     <g id="text_8">
      <!-- 40 -->
      <g transform="translate(37.875 155.311724)scale(0.1 -0.1)">
       <use xlink:href="#DejaVuSans-34"/>
       <use xlink:href="#DejaVuSans-30" x="63.623047"/>
      </g>
     </g>
    </g>
    <g id="ytick_2">
     <g id="line2d_9">
      <g>
       <use xlink:href="#m662cf5e800" x="57.6" y="119.146461" style="stroke: #000000; stroke-width: 0.8"/>
      </g>
     </g>
     <g id="text_9">
      <!-- 60 -->
      <g transform="translate(37.875 122.94568)scale(0.1 -0.1)">
       <use xlink:href="#DejaVuSans-36"/>
       <use xlink:href="#DejaVuSans-30" x="63.623047"/>
      </g>
     </g>
    </g>
    <g id="ytick_3">
     <g id="line2d_10">
      <g>
       <use xlink:href="#m662cf5e800" x="57.6" y="86.780417" style="stroke: #000000; stroke-width: 0.8"/>
      </g>
     </g>
     <g id="text_10">
      <!-- 80 -->
      <g transform="translate(37.875 90.579635)scale(0.1 -0.1)">
       <defs>
        <path id="DejaVuSans-38" d="M 2034 2216 
Q 1584 2216 1326 1975 
Q 1069 1734 1069 1313 
Q 1069 891 1326 650 
Q 1584 409 2034 409 
Q 2484 409 2743 651 
Q 3003 894 3003 1313 
Q 3003 1734 2745 1975 
Q 2488 2216 2034 2216 
z
M 1403 2484 
Q 997 2584 770 2862 
Q 544 3141 544 3541 
Q 544 4100 942 4425 
Q 1341 4750 2034 4750 
Q 2731 4750 3128 4425 
Q 3525 4100 3525 3541 
Q 3525 3141 3298 2862 
Q 3072 2584 2669 2484 
Q 3125 2378 3379 2068 
Q 3634 1759 3634 1313 
Q 3634 634 3220 271 
Q 2806 -91 2034 -91 
Q 1263 -91 848 271 
Q 434 634 434 1313 
Q 434 1759 690 2068 
Q 947 2378 1403 2484 
z
M 1172 3481 
Q 1172 3119 1398 2916 
Q 1625 2713 2034 2713 
Q 2441 2713 2670 2916 
Q 2900 3119 2900 3481 
Q 2900 3844 2670 4047 
Q 2441 4250 2034 4250 
Q 1625 4250 1398 4047 
Q 1172 3844 1172 3481 
z
" transform="scale(0.015625)"/>
       </defs>
       <use xlink:href="#DejaVuSans-38"/>
       <use xlink:href="#DejaVuSans-30" x="63.623047"/>
      </g>
     </g>
    </g>
    <g id="ytick_4">
     <g id="line2d_11">
      <g>
       <use xlink:href="#m662cf5e800" x="57.6" y="54.414372" style="stroke: #000000; stroke-width: 0.8"/>
      </g>
     </g>
     <g id="text_11">
      <!-- 100 -->
      <g transform="translate(31.5125 58.213591)scale(0.1 -0.1)">
       <use xlink:href="#DejaVuSans-31"/>
       <use xlink:href="#DejaVuSans-30" x="63.623047"/>
       <use xlink:href="#DejaVuSans-30" x="127.246094"/>
      </g>
     </g>
    </g>
   </g>
   <g id="line2d_12">
    <path d="M 73.832727 53.874938 
L 73.8432 53.874938 
L 73.958402 57.920694 
L 73.963638 57.597033 
L 73.979348 57.597033 
L 74.000294 56.653023 
L 74.026476 61.103355 
L 74.042185 61.103355 
L 74.068367 61.103355 
L 74.110259 64.339959 
L 74.183569 62.397996 
L 74.220224 62.397996 
L 74.335426 64.82545 
L 74.47681 64.82545 
L 74.56583 64.016299 
L 74.571066 65.634601 
L 74.581539 65.230025 
L 74.597249 65.230025 
L 74.712451 67.657479 
L 74.754342 67.657479 
L 74.869544 67.252903 
L 74.87478 67.252903 
L 74.906199 66.848328 
L 74.911436 68.46663 
L 74.974273 68.062054 
L 75.084238 68.062054 
L 75.168022 69.680356 
L 75.194204 69.275781 
L 75.19944 69.275781 
L 75.319879 68.46663 
L 75.325115 68.46663 
L 75.440317 68.062054 
L 75.545046 68.062054 
L 75.665484 67.252903 
L 75.853996 67.252903 
L 75.974435 70.489508 
L 76.016326 70.489508 
L 76.136764 69.680356 
L 76.152474 69.680356 
L 76.267676 71.298659 
L 76.304331 71.298659 
L 76.419533 70.894083 
L 76.466661 70.894083 
L 76.471897 70.489508 
L 76.477134 72.10781 
L 76.57139 71.298659 
L 77.021724 71.298659 
L 77.136926 70.894083 
L 77.262601 70.894083 
L 77.288783 70.489508 
L 77.294019 72.10781 
L 77.362093 71.703234 
L 77.430167 71.703234 
L 77.545369 71.298659 
L 77.859556 71.298659 
L 77.91192 70.894083 
L 77.917157 72.512385 
L 77.953812 72.512385 
L 78.231344 72.512385 
L 78.351782 71.703234 
L 78.357018 71.703234 
L 78.47222 73.321536 
L 78.582186 73.321536 
L 78.697388 72.916961 
L 78.985392 72.916961 
L 79.100594 72.512385 
L 80.320686 72.512385 
L 80.357342 74.130688 
L 80.430652 73.726112 
L 82.053951 73.726112 
L 82.169153 73.321536 
L 83.582994 73.321536 
L 83.698195 72.916961 
L 83.781979 72.916961 
L 83.897181 72.512385 
L 85.536189 72.512385 
L 85.651391 72.10781 
L 86.347838 72.10781 
L 86.46304 73.726112 
L 87.89259 73.726112 
L 88.007792 73.321536 
L 88.636166 73.321536 
L 88.756604 72.512385 
L 89.018427 72.512385 
L 89.133629 72.10781 
L 89.57349 72.10781 
L 89.688692 73.726112 
L 90.175682 73.726112 
L 90.290884 75.344414 
L 91.133952 75.344414 
L 91.249154 74.939839 
L 93.02431 74.939839 
L 93.144748 74.130688 
L 96.76837 74.130688 
L 96.883572 73.726112 
L 97.679512 73.726112 
L 97.794714 73.321536 
L 97.826132 73.321536 
L 97.941334 74.939839 
L 98.407378 74.939839 
L 98.52258 74.535263 
L 100.700942 74.535263 
L 100.816144 74.130688 
L 101.08844 74.130688 
L 101.203641 75.74899 
L 102.858359 75.74899 
L 102.973561 75.344414 
L 105.885026 75.344414 
L 106.000228 74.939839 
L 106.67573 74.939839 
L 106.790932 76.558141 
L 107.461197 76.558141 
L 107.576399 78.176443 
L 109.424865 78.176443 
L 109.540067 77.771868 
L 117.457576 77.771868 
L 117.572778 77.367292 
L 125.479815 77.367292 
L 125.595017 76.962716 
L 144.582377 76.962716 
L 144.697579 76.558141 
L 158.092414 76.558141 
L 158.207615 76.153565 
L 161.925494 76.153565 
L 162.040695 75.74899 
L 163.993891 75.74899 
L 164.109092 77.367292 
L 185.819406 77.367292 
L 185.934608 78.985594 
L 190.500791 78.985594 
L 190.615993 78.581019 
L 200.481461 78.581019 
L 200.596663 78.176443 
L 214.295211 78.176443 
L 214.410413 79.794745 
L 217.871705 79.794745 
L 217.986907 79.39017 
L 223.51136 79.39017 
L 223.626561 78.985594 
L 227.847139 78.985594 
L 227.962341 78.581019 
L 300.675659 78.581019 
L 300.790861 80.199321 
L 303.833237 80.199321 
L 303.948439 79.794745 
L 350.877487 79.794745 
L 350.992689 79.39017 
L 354.543 79.39017 
L 354.658202 81.008472 
L 357.899564 81.008472 
L 358.014765 80.603896 
L 392.365865 80.603896 
L 392.481067 80.199321 
L 398.487273 80.199321 
L 398.487273 80.199321 
" clip-path="url(#p6a6b4eb292)" style="fill: none; stroke: #1f77b4; stroke-width: 1.5; stroke-linecap: square"/>
   </g>
   <g id="line2d_13">
    <path d="M 73.832727 56.032674 
L 73.953166 53.065787 
L 74.141678 53.065787 
L 74.25688 54.684089 
L 74.49252 54.684089 
L 74.607722 56.302391 
L 74.722923 55.897816 
L 78.357018 55.897816 
L 78.47222 54.279514 
L 83.781979 54.279514 
L 83.897181 55.897816 
L 103.643826 55.897816 
L 103.759028 57.516118 
L 398.487273 57.516118 
L 398.487273 57.516118 
" clip-path="url(#p6a6b4eb292)" style="fill: none; stroke: #ff7f0e; stroke-width: 1.5; stroke-linecap: square"/>
   </g>
   <g id="line2d_14">
    <path d="M 73.832727 53.874938 
L 73.958402 68.439658 
L 73.984584 67.711422 
L 74.000294 67.711422 
L 74.136441 78.634962 
L 74.141678 78.230387 
L 74.173096 77.502151 
L 74.183569 80.738755 
L 74.194042 80.738755 
L 74.309244 86.807388 
L 74.319717 86.402813 
L 74.335426 86.402813 
L 74.372081 89.639417 
L 74.450628 89.099983 
L 74.47681 89.099983 
L 74.539648 87.751398 
L 74.544884 89.3697 
L 74.56583 89.3697 
L 74.696741 96.65206 
L 74.701978 96.65206 
L 74.754342 98.270362 
L 74.811943 97.326353 
L 74.87478 97.326353 
L 74.906199 96.921777 
L 74.921908 100.158382 
L 74.948091 100.158382 
L 74.958564 100.158382 
L 75.073765 99.753806 
L 75.084238 99.753806 
L 75.168022 101.372108 
L 75.194204 100.967533 
L 75.19944 100.967533 
L 75.220386 100.562957 
L 75.277987 103.394986 
L 75.325115 103.394986 
L 75.440317 102.990411 
L 75.471736 102.990411 
L 75.545046 104.608713 
L 75.581701 104.204137 
L 75.607883 104.204137 
L 75.61312 105.822439 
L 75.717849 105.417864 
L 75.853996 105.417864 
L 75.974435 108.654468 
L 76.016326 108.654468 
L 76.136764 107.845317 
L 76.152474 107.845317 
L 76.267676 109.46362 
L 76.304331 109.46362 
L 76.361932 109.059044 
L 76.367168 110.677346 
L 76.403823 110.137912 
L 76.466661 110.137912 
L 76.471897 109.733337 
L 76.539971 112.16079 
L 76.550444 112.16079 
L 76.885577 112.16079 
L 77.000778 113.779092 
L 77.021724 113.779092 
L 77.068852 113.374517 
L 77.074089 114.992819 
L 77.11598 114.992819 
L 77.262601 114.992819 
L 77.288783 114.588243 
L 77.294019 116.206545 
L 77.362093 115.80197 
L 77.414458 115.80197 
L 77.430167 117.420272 
L 77.524423 117.015697 
L 77.859556 117.015697 
L 77.91192 116.611121 
L 77.917157 118.229423 
L 77.953812 118.229423 
L 78.069014 119.847725 
L 78.152797 119.847725 
L 78.231344 121.466028 
L 78.262762 121.061452 
L 78.267999 121.061452 
L 78.383201 120.656877 
L 78.456511 120.656877 
L 78.571713 122.275179 
L 78.582186 122.275179 
L 78.697388 121.870603 
L 78.985392 121.870603 
L 79.100594 121.466028 
L 79.823224 121.466028 
L 79.943662 124.702632 
L 80.357342 124.702632 
L 80.472543 124.298057 
L 81.90733 124.298057 
L 82.022532 125.916359 
L 82.053951 125.916359 
L 82.169153 125.511783 
L 83.331644 125.511783 
L 83.446846 127.130085 
L 83.582994 127.130085 
L 83.698195 126.72551 
L 83.781979 126.72551 
L 83.897181 126.320934 
L 85.536189 126.320934 
L 85.651391 125.916359 
L 88.636166 125.916359 
L 88.756604 125.107208 
L 88.971299 125.107208 
L 89.018427 126.72551 
L 89.081264 126.320934 
L 89.227885 126.320934 
L 89.343087 127.939237 
L 89.57349 127.939237 
L 89.688692 129.557539 
L 90.175682 129.557539 
L 90.290884 131.175841 
L 91.133952 131.175841 
L 91.249154 130.771266 
L 91.458612 130.771266 
L 91.573813 132.389568 
L 93.02431 132.389568 
L 93.144748 131.580417 
L 94.024471 131.580417 
L 94.144909 134.817021 
L 95.41213 134.817021 
L 95.527332 136.435323 
L 96.76837 136.435323 
L 96.883572 136.030748 
L 97.679512 136.030748 
L 97.794714 135.626172 
L 97.826132 135.626172 
L 97.941334 137.244474 
L 98.407378 137.244474 
L 98.52258 136.839899 
L 100.700942 136.839899 
L 100.816144 136.435323 
L 101.08844 136.435323 
L 101.203641 138.053626 
L 101.779651 138.053626 
L 101.894853 139.671928 
L 102.858359 139.671928 
L 102.973561 139.267352 
L 103.643826 139.267352 
L 103.759028 138.727918 
L 105.885026 138.727918 
L 106.000228 138.323343 
L 106.948025 138.323343 
L 107.063227 139.941645 
L 107.461197 139.941645 
L 107.576399 141.559947 
L 109.424865 141.559947 
L 109.540067 141.155371 
L 117.457576 141.155371 
L 117.572778 140.750796 
L 123.605166 140.750796 
L 123.720368 142.369098 
L 125.479815 142.369098 
L 125.595017 141.964523 
L 137.371788 141.964523 
L 137.48699 143.582825 
L 144.582377 143.582825 
L 144.697579 143.178249 
L 158.092414 143.178249 
L 158.207615 142.773674 
L 170.780327 142.773674 
L 170.895529 144.391976 
L 184.756407 144.391976 
L 184.871609 146.010278 
L 185.819406 146.010278 
L 185.934608 147.62858 
L 190.500791 147.62858 
L 190.615993 147.224005 
L 200.481461 147.224005 
L 200.596663 146.819429 
L 214.295211 146.819429 
L 214.410413 148.437731 
L 217.871705 148.437731 
L 217.986907 148.033156 
L 223.51136 148.033156 
L 223.626561 147.62858 
L 224.8676 147.62858 
L 224.982802 149.246883 
L 227.847139 149.246883 
L 227.962341 148.842307 
L 234.958235 148.842307 
L 235.073437 150.460609 
L 300.675659 150.460609 
L 300.790861 152.078911 
L 303.833237 152.078911 
L 303.948439 151.674336 
L 326.37091 151.674336 
L 326.486111 153.292638 
L 350.877487 153.292638 
L 350.992689 152.888063 
L 354.543 152.888063 
L 354.658202 154.506365 
L 357.899564 154.506365 
L 358.014765 154.101789 
L 371.62953 154.101789 
L 371.744732 155.720092 
L 392.365865 155.720092 
L 392.481067 155.315516 
L 398.450618 155.315516 
L 398.487273 156.933818 
L 398.487273 156.933818 
" clip-path="url(#p6a6b4eb292)" style="fill: none; stroke: #2ca02c; stroke-width: 1.5; stroke-linecap: square"/>
   </g>
   <g id="line2d_15">
    <path d="M 73.832727 54.414372 
L 73.869382 60.563921 
L 73.958402 59.431109 
L 73.968875 59.431109 
L 74.010767 62.128279 
L 74.084077 61.319128 
L 74.09455 60.914553 
L 74.099786 62.532855 
L 74.173096 61.723704 
L 74.298771 66.848328 
L 74.309244 66.848328 
L 74.335426 66.039176 
L 74.366845 69.275781 
L 74.387791 69.275781 
L 74.47681 69.275781 
L 74.539648 68.46663 
L 74.544884 70.084932 
L 74.581539 69.680356 
L 74.607722 69.680356 
L 74.618194 69.275781 
L 74.660086 72.10781 
L 74.686268 72.10781 
L 74.754342 75.344414 
L 74.80147 74.939839 
L 74.806707 74.939839 
L 74.927145 78.985594 
L 74.958564 78.985594 
L 75.073765 78.581019 
L 75.168022 78.581019 
L 75.220386 77.771868 
L 75.225622 79.39017 
L 75.27275 78.985594 
L 75.325115 80.603896 
L 75.382716 80.199321 
L 75.471736 80.199321 
L 75.545046 81.817623 
L 75.581701 81.413048 
L 75.607883 81.413048 
L 75.728321 84.649652 
L 76.016326 84.649652 
L 76.136764 83.840501 
L 76.304331 83.840501 
L 76.388114 83.435925 
L 76.39335 85.054228 
L 76.398587 85.054228 
L 76.471897 85.054228 
L 76.534734 83.840501 
L 76.539971 85.458803 
L 76.576626 85.458803 
L 76.885577 85.458803 
L 77.000778 87.077105 
L 77.021724 87.077105 
L 77.136926 86.67253 
L 77.262601 86.67253 
L 77.383039 85.863379 
L 77.414458 85.863379 
L 77.430167 87.481681 
L 77.524423 87.077105 
L 77.859556 87.077105 
L 77.953812 86.267954 
L 77.959048 87.886256 
L 78.152797 87.886256 
L 78.231344 89.504559 
L 78.262762 89.099983 
L 78.267999 89.099983 
L 78.383201 88.695408 
L 78.582186 88.695408 
L 78.697388 88.290832 
L 78.985392 88.290832 
L 79.100594 87.886256 
L 79.823224 87.886256 
L 79.943662 91.122861 
L 80.357342 91.122861 
L 80.472543 90.718285 
L 81.90733 90.718285 
L 82.022532 92.336588 
L 82.053951 92.336588 
L 82.169153 91.932012 
L 83.331644 91.932012 
L 83.446846 93.550314 
L 83.582994 93.550314 
L 83.698195 93.145739 
L 85.536189 93.145739 
L 85.651391 92.741163 
L 88.636166 92.741163 
L 88.756604 91.932012 
L 88.971299 91.932012 
L 89.018427 93.550314 
L 89.081264 93.145739 
L 89.227885 93.145739 
L 89.343087 94.764041 
L 91.133952 94.764041 
L 91.249154 94.359465 
L 91.458612 94.359465 
L 91.573813 95.977768 
L 93.02431 95.977768 
L 93.144748 95.168616 
L 94.024471 95.168616 
L 94.144909 98.405221 
L 95.41213 98.405221 
L 95.527332 100.023523 
L 96.124287 100.023523 
L 96.239489 101.641825 
L 96.76837 101.641825 
L 96.883572 101.23725 
L 97.679512 101.23725 
L 97.794714 100.832674 
L 98.407378 100.832674 
L 98.52258 100.428099 
L 100.700942 100.428099 
L 100.816144 100.023523 
L 101.779651 100.023523 
L 101.894853 101.641825 
L 102.858359 101.641825 
L 102.973561 101.23725 
L 105.885026 101.23725 
L 106.000228 100.832674 
L 106.67573 100.832674 
L 106.790932 102.450977 
L 106.948025 102.450977 
L 107.063227 104.069279 
L 109.424865 104.069279 
L 109.540067 103.664703 
L 117.457576 103.664703 
L 117.572778 103.260128 
L 123.605166 103.260128 
L 123.720368 104.87843 
L 125.479815 104.87843 
L 125.595017 104.473854 
L 137.371788 104.473854 
L 137.48699 106.092157 
L 144.582377 106.092157 
L 144.697579 105.687581 
L 158.092414 105.687581 
L 158.207615 105.283005 
L 163.993891 105.283005 
L 164.109092 104.87843 
L 170.780327 104.87843 
L 170.895529 106.496732 
L 184.756407 106.496732 
L 184.871609 108.115034 
L 190.500791 108.115034 
L 190.615993 107.710459 
L 200.481461 107.710459 
L 200.596663 107.305883 
L 223.51136 107.305883 
L 223.626561 106.901308 
L 224.8676 106.901308 
L 224.982802 108.51961 
L 227.847139 108.51961 
L 227.962341 108.115034 
L 234.958235 108.115034 
L 235.073437 109.733337 
L 303.833237 109.733337 
L 303.948439 109.328761 
L 326.37091 109.328761 
L 326.486111 110.947063 
L 350.877487 110.947063 
L 350.992689 110.542488 
L 354.543 110.542488 
L 354.658202 110.137912 
L 357.899564 110.137912 
L 358.014765 109.733337 
L 371.62953 109.733337 
L 371.744732 111.351639 
L 392.365865 111.351639 
L 392.481067 110.947063 
L 398.450618 110.947063 
L 398.487273 112.565365 
L 398.487273 112.565365 
" clip-path="url(#p6a6b4eb292)" style="fill: none; stroke: #d62728; stroke-width: 1.5; stroke-linecap: square"/>
   </g>
   <g id="line2d_16">
    <path d="M 73.832727 54.414372 
L 73.853673 54.414372 
L 73.968875 53.281561 
L 73.989821 53.281561 
L 74.105023 52.742126 
L 398.487273 52.742126 
L 398.487273 52.742126 
" clip-path="url(#p6a6b4eb292)" style="fill: none; stroke: #9467bd; stroke-width: 1.5; stroke-linecap: square"/>
   </g>
   <g id="line2d_17">
    <path d="M 73.832727 54.414372 
L 73.8432 54.414372 
L 73.963638 53.767051 
L 73.979348 53.767051 
L 74.099786 52.9579 
L 74.141678 52.9579 
L 74.25688 52.63424 
L 74.372081 52.63424 
L 74.487283 52.094806 
L 74.49252 52.094806 
L 74.607722 51.555371 
L 74.806707 51.555371 
L 74.921908 51.015937 
L 75.61312 51.015937 
L 75.728321 50.611362 
L 76.388114 50.611362 
L 76.503316 49.667352 
L 83.781979 49.667352 
L 83.897181 49.262777 
L 87.89259 49.262777 
L 88.007792 48.858201 
L 96.124287 48.858201 
L 96.239489 48.318767 
L 103.643826 48.318767 
L 103.759028 47.779333 
L 161.925494 47.779333 
L 162.040695 47.374757 
L 217.871705 47.374757 
L 217.986907 46.970182 
L 398.487273 46.970182 
L 398.487273 46.970182 
" clip-path="url(#p6a6b4eb292)" style="fill: none; stroke: #8c564b; stroke-width: 1.5; stroke-linecap: square"/>
   </g>
   <g id="line2d_18">
    <path d="M 73.832727 56.032674 
L 73.885092 65.742488 
L 73.968875 64.070242 
L 73.979348 63.261091 
L 74.021239 67.711422 
L 74.057895 67.306846 
L 74.084077 67.306846 
L 74.141678 66.902271 
L 74.146914 68.520573 
L 74.178333 68.520573 
L 74.220224 68.520573 
L 74.351136 66.902271 
L 74.372081 66.902271 
L 74.487283 68.520573 
L 74.49252 68.520573 
L 74.56583 70.138875 
L 74.602485 69.599441 
L 74.607722 69.599441 
L 74.63914 71.217744 
L 74.717687 70.678309 
L 74.806707 70.678309 
L 74.921908 73.510338 
L 75.61312 73.510338 
L 75.728321 75.128641 
L 76.388114 75.128641 
L 76.471897 78.365245 
L 76.503316 77.960669 
L 77.91192 77.960669 
L 78.027122 77.556094 
L 80.320686 77.556094 
L 80.435888 76.746943 
L 83.781979 76.746943 
L 83.897181 78.365245 
L 86.347838 78.365245 
L 86.46304 77.556094 
L 87.89259 77.556094 
L 88.007792 79.174396 
L 96.124287 79.174396 
L 96.239489 80.792698 
L 103.643826 80.792698 
L 103.759028 82.411001 
L 106.67573 82.411001 
L 106.790932 81.601849 
L 161.925494 81.601849 
L 162.040695 83.220152 
L 163.993891 83.220152 
L 164.109092 82.815576 
L 214.295211 82.815576 
L 214.410413 82.276142 
L 217.871705 82.276142 
L 217.986907 83.894444 
L 354.543 83.894444 
L 354.658202 83.489869 
L 398.487273 83.489869 
L 398.487273 83.489869 
" clip-path="url(#p6a6b4eb292)" style="fill: none; stroke: #e377c2; stroke-width: 1.5; stroke-linecap: square"/>
   </g>
   <g id="line2d_19">
    <path d="M 73.832727 54.414372 
L 73.8432 54.414372 
L 73.963638 53.767051 
L 73.979348 53.767051 
L 74.099786 52.9579 
L 74.141678 52.9579 
L 74.25688 52.63424 
L 74.372081 52.63424 
L 74.487283 52.094806 
L 74.49252 52.094806 
L 74.607722 51.555371 
L 74.806707 51.555371 
L 74.921908 51.015937 
L 75.61312 51.015937 
L 75.728321 50.611362 
L 76.388114 50.611362 
L 76.503316 49.667352 
L 83.781979 49.667352 
L 83.897181 49.262777 
L 87.89259 49.262777 
L 88.007792 48.858201 
L 96.124287 48.858201 
L 96.239489 48.318767 
L 103.643826 48.318767 
L 103.759028 47.779333 
L 161.925494 47.779333 
L 162.040695 47.374757 
L 217.871705 47.374757 
L 217.986907 46.970182 
L 398.487273 46.970182 
L 398.487273 46.970182 
" clip-path="url(#p6a6b4eb292)" style="fill: none; stroke: #7f7f7f; stroke-width: 1.5; stroke-linecap: square"/>
   </g>
   <g id="line2d_20">
    <path d="M 73.832727 56.032674 
L 73.869382 60.024486 
L 73.942693 57.138514 
L 73.947929 57.138514 
L 73.979348 55.601127 
L 74.021239 59.512024 
L 74.042185 58.298297 
L 74.068367 58.298297 
L 74.141678 56.545137 
L 74.178333 58.163439 
L 74.183569 58.163439 
L 74.298771 57.219429 
L 74.324953 57.219429 
L 74.372081 56.005703 
L 74.377318 57.624005 
L 74.429682 57.624005 
L 74.49252 57.624005 
L 74.56583 59.242307 
L 74.602485 58.163439 
L 74.607722 58.163439 
L 74.63914 59.781741 
L 74.717687 59.242307 
L 74.806707 59.242307 
L 74.848598 60.860609 
L 74.916672 59.9166 
L 75.084238 59.9166 
L 75.19944 59.107449 
L 75.61312 59.107449 
L 75.728321 60.725751 
L 75.853996 60.725751 
L 75.974435 59.107449 
L 76.152474 59.107449 
L 76.267676 58.298297 
L 76.388114 58.298297 
L 76.471897 61.534902 
L 76.503316 61.130326 
L 77.288783 61.130326 
L 77.403985 60.590892 
L 77.91192 60.590892 
L 78.027122 60.186317 
L 80.320686 60.186317 
L 80.435888 59.377166 
L 83.781979 59.377166 
L 83.897181 60.995468 
L 86.347838 60.995468 
L 86.46304 60.186317 
L 87.89259 60.186317 
L 88.007792 61.804619 
L 89.57349 61.804619 
L 89.688692 60.995468 
L 90.175682 60.995468 
L 90.290884 60.456034 
L 96.124287 60.456034 
L 96.239489 62.074336 
L 97.826132 62.074336 
L 97.941334 61.265185 
L 101.08844 61.265185 
L 101.203641 60.456034 
L 103.643826 60.456034 
L 103.759028 62.074336 
L 106.67573 62.074336 
L 106.790932 61.265185 
L 107.461197 61.265185 
L 107.576399 60.725751 
L 161.925494 60.725751 
L 162.040695 62.344053 
L 163.993891 62.344053 
L 164.109092 61.939477 
L 185.819406 61.939477 
L 185.934608 61.400043 
L 214.295211 61.400043 
L 214.410413 60.860609 
L 217.871705 60.860609 
L 217.986907 62.478911 
L 300.675659 62.478911 
L 300.790861 61.939477 
L 354.543 61.939477 
L 354.658202 61.534902 
L 398.487273 61.534902 
L 398.487273 61.534902 
" clip-path="url(#p6a6b4eb292)" style="fill: none; stroke: #bcbd22; stroke-width: 1.5; stroke-linecap: square"/>
   </g>
   <g id="line2d_21">
    <path d="M 73.832727 56.032674 
L 73.937456 60.914553 
L 73.953166 59.970543 
L 73.958402 59.970543 
L 74.021239 68.736347 
L 74.089313 66.308893 
L 74.09455 66.308893 
L 74.110259 65.769459 
L 74.178333 68.196913 
L 74.304008 73.321536 
L 74.309244 73.321536 
L 74.33019 72.512385 
L 74.366845 77.367292 
L 74.47681 77.367292 
L 74.539648 76.558141 
L 74.544884 78.176443 
L 74.586776 77.232433 
L 74.597249 77.232433 
L 74.618194 76.288424 
L 74.660086 78.581019 
L 74.686268 78.581019 
L 74.754342 81.817623 
L 74.80147 81.413048 
L 74.848598 81.413048 
L 74.916672 80.064462 
L 74.921908 81.682765 
L 74.953327 81.682765 
L 74.958564 81.682765 
L 75.073765 81.278189 
L 75.084238 81.278189 
L 75.204677 79.659887 
L 75.220386 79.659887 
L 75.325115 82.491916 
L 75.335588 82.08734 
L 75.471736 82.08734 
L 75.545046 83.705642 
L 75.581701 83.301067 
L 75.607883 83.301067 
L 75.728321 86.537671 
L 75.853996 86.537671 
L 75.974435 84.919369 
L 76.016326 84.919369 
L 76.136764 84.110218 
L 76.152474 84.110218 
L 76.267676 83.301067 
L 76.304331 83.301067 
L 76.361932 82.896491 
L 76.367168 84.514793 
L 76.388114 84.514793 
L 76.471897 86.133096 
L 76.498079 85.72852 
L 76.524262 85.72852 
L 76.534734 84.919369 
L 76.539971 86.537671 
L 76.623754 86.537671 
L 76.885577 86.537671 
L 77.000778 88.155974 
L 77.021724 88.155974 
L 77.068852 87.751398 
L 77.074089 89.3697 
L 77.11598 89.3697 
L 77.262601 89.3697 
L 77.388276 88.021115 
L 77.414458 88.021115 
L 77.430167 89.639417 
L 77.524423 89.234842 
L 77.859556 89.234842 
L 77.953812 88.425691 
L 77.959048 90.043993 
L 78.152797 90.043993 
L 78.231344 91.662295 
L 78.262762 91.257719 
L 78.267999 91.257719 
L 78.383201 90.853144 
L 78.456511 90.853144 
L 78.571713 92.471446 
L 78.582186 92.471446 
L 78.697388 92.066871 
L 78.985392 92.066871 
L 79.100594 91.662295 
L 79.823224 91.662295 
L 79.943662 94.898899 
L 80.320686 94.898899 
L 80.357342 96.517202 
L 80.430652 96.112626 
L 81.90733 96.112626 
L 82.022532 97.730928 
L 82.053951 97.730928 
L 82.169153 97.326353 
L 83.331644 97.326353 
L 83.446846 98.944655 
L 83.582994 98.944655 
L 83.698195 98.540079 
L 85.536189 98.540079 
L 85.651391 98.135504 
L 86.347838 98.135504 
L 86.46304 99.753806 
L 87.89259 99.753806 
L 88.007792 101.372108 
L 88.636166 101.372108 
L 88.756604 100.562957 
L 88.971299 100.562957 
L 89.018427 102.181259 
L 89.081264 101.776684 
L 89.227885 101.776684 
L 89.343087 103.394986 
L 89.57349 103.394986 
L 89.688692 102.585835 
L 90.175682 102.585835 
L 90.290884 102.046401 
L 91.133952 102.046401 
L 91.249154 101.641825 
L 91.458612 101.641825 
L 91.573813 103.260128 
L 93.02431 103.260128 
L 93.144748 102.450977 
L 94.024471 102.450977 
L 94.144909 105.687581 
L 95.41213 105.687581 
L 95.527332 107.305883 
L 96.124287 107.305883 
L 96.239489 108.924185 
L 96.76837 108.924185 
L 96.883572 108.51961 
L 97.679512 108.51961 
L 97.794714 108.115034 
L 97.826132 108.115034 
L 97.941334 107.305883 
L 98.407378 107.305883 
L 98.52258 106.901308 
L 100.700942 106.901308 
L 100.816144 106.496732 
L 101.08844 106.496732 
L 101.203641 105.687581 
L 101.779651 105.687581 
L 101.894853 107.305883 
L 102.858359 107.305883 
L 102.973561 106.901308 
L 105.885026 106.901308 
L 106.000228 106.496732 
L 106.67573 106.496732 
L 106.790932 108.115034 
L 106.948025 108.115034 
L 107.063227 109.733337 
L 107.461197 109.733337 
L 107.576399 109.193902 
L 109.424865 109.193902 
L 109.540067 108.789327 
L 117.457576 108.789327 
L 117.572778 108.384751 
L 123.605166 108.384751 
L 123.720368 110.003054 
L 125.479815 110.003054 
L 125.595017 109.598478 
L 137.371788 109.598478 
L 137.48699 111.21678 
L 144.582377 111.21678 
L 144.697579 110.812205 
L 158.092414 110.812205 
L 158.207615 110.407629 
L 161.925494 110.407629 
L 162.040695 112.025931 
L 163.993891 112.025931 
L 164.109092 111.621356 
L 170.780327 111.621356 
L 170.895529 113.239658 
L 184.756407 113.239658 
L 184.871609 114.85796 
L 185.819406 114.85796 
L 185.934608 114.318526 
L 190.500791 114.318526 
L 190.615993 113.913951 
L 200.481461 113.913951 
L 200.596663 113.509375 
L 214.295211 113.509375 
L 214.410413 112.969941 
L 217.871705 112.969941 
L 217.986907 114.588243 
L 223.51136 114.588243 
L 223.626561 114.183668 
L 224.8676 114.183668 
L 224.982802 115.80197 
L 227.847139 115.80197 
L 227.962341 115.397394 
L 234.958235 115.397394 
L 235.073437 117.015697 
L 300.675659 117.015697 
L 300.790861 116.476262 
L 303.833237 116.476262 
L 303.948439 116.071687 
L 326.37091 116.071687 
L 326.486111 117.689989 
L 350.877487 117.689989 
L 350.992689 117.285414 
L 354.543 117.285414 
L 354.658202 116.880838 
L 357.899564 116.880838 
L 358.014765 116.476262 
L 371.62953 116.476262 
L 371.744732 118.094565 
L 392.365865 118.094565 
L 392.481067 117.689989 
L 398.450618 117.689989 
L 398.487273 119.308291 
L 398.487273 119.308291 
" clip-path="url(#p6a6b4eb292)" style="fill: none; stroke: #17becf; stroke-width: 1.5; stroke-linecap: square"/>
   </g>
   <g id="line2d_22">
    <path d="M 73.832727 54.414372 
L 73.8432 54.414372 
L 73.963638 57.650977 
L 73.979348 57.650977 
L 74.099786 60.887581 
L 74.141678 60.887581 
L 74.25688 62.505883 
L 74.372081 62.505883 
L 74.487283 64.124185 
L 74.49252 64.124185 
L 74.607722 65.742488 
L 74.806707 65.742488 
L 74.921908 67.36079 
L 75.61312 67.36079 
L 75.728321 68.979092 
L 76.388114 68.979092 
L 76.508552 72.215697 
L 83.781979 72.215697 
L 83.897181 73.833999 
L 87.89259 73.833999 
L 88.007792 75.452301 
L 96.124287 75.452301 
L 96.239489 77.070603 
L 103.643826 77.070603 
L 103.759028 78.688905 
L 161.925494 78.688905 
L 162.040695 80.307208 
L 217.871705 80.307208 
L 217.986907 81.92551 
L 398.487273 81.92551 
L 398.487273 81.92551 
" clip-path="url(#p6a6b4eb292)" style="fill: none; stroke: #1f77b4; stroke-width: 1.5; stroke-linecap: square"/>
   </g>
   <g id="line2d_23">
    <path d="M 73.832727 53.874938 
L 73.8432 53.874938 
L 73.974111 61.157298 
L 73.989821 61.157298 
L 74.031712 60.617864 
L 74.00553 62.236166 
L 74.084077 62.236166 
L 74.173096 65.418827 
L 74.183569 62.182223 
L 74.194042 63.800525 
L 74.309244 62.182223 
L 74.335426 65.418827 
L 74.424446 63.800525 
L 74.47681 63.800525 
L 74.597249 68.655432 
L 74.644377 71.352602 
L 74.72816 66.497695 
L 74.754342 66.497695 
L 74.880017 71.352602 
L 74.906199 71.352602 
L 74.958564 69.194866 
L 75.021401 70.813168 
L 75.168022 70.813168 
L 75.27275 74.049772 
L 75.283223 72.43147 
L 75.325115 72.43147 
L 75.440317 74.049772 
L 75.471736 74.049772 
L 75.545046 72.43147 
L 75.581701 74.049772 
L 75.607883 74.049772 
L 75.723085 72.43147 
L 76.016326 72.43147 
L 76.136764 75.668075 
L 76.304331 75.668075 
L 76.361932 77.286377 
L 76.414296 75.668075 
L 76.524262 75.668075 
L 76.534734 78.904679 
L 76.639463 77.286377 
L 76.885577 77.286377 
L 77.000778 75.668075 
L 77.021724 75.668075 
L 77.068852 77.286377 
L 77.13169 75.668075 
L 77.262601 75.668075 
L 77.377803 78.365245 
L 77.414458 78.365245 
L 77.430167 76.746943 
L 77.524423 78.365245 
L 77.859556 78.365245 
L 77.953812 79.983547 
L 77.969521 78.365245 
L 78.152797 78.365245 
L 78.231344 76.746943 
L 78.262762 78.365245 
L 78.267999 78.365245 
L 78.388437 81.601849 
L 78.456511 81.601849 
L 78.571713 79.983547 
L 78.582186 79.983547 
L 78.697388 81.601849 
L 78.985392 81.601849 
L 79.100594 83.220152 
L 79.823224 83.220152 
L 79.943662 79.983547 
L 80.357342 79.983547 
L 80.472543 81.601849 
L 81.90733 81.601849 
L 82.022532 79.983547 
L 82.053951 79.983547 
L 82.169153 81.601849 
L 83.331644 81.601849 
L 83.446846 79.983547 
L 83.582994 79.983547 
L 83.698195 81.601849 
L 85.536189 81.601849 
L 85.651391 83.220152 
L 87.89259 83.220152 
L 88.007792 82.815576 
L 88.636166 82.815576 
L 88.756604 86.052181 
L 88.971299 86.052181 
L 89.018427 84.433878 
L 89.081264 86.052181 
L 89.227885 86.052181 
L 89.343087 84.433878 
L 90.175682 84.433878 
L 90.290884 83.894444 
L 91.133952 83.894444 
L 91.249154 85.512747 
L 91.458612 85.512747 
L 91.573813 83.894444 
L 93.02431 83.894444 
L 93.144748 87.131049 
L 94.024471 87.131049 
L 94.144909 83.894444 
L 95.41213 83.894444 
L 95.527332 82.276142 
L 96.124287 82.276142 
L 96.239489 81.736708 
L 96.76837 81.736708 
L 96.883572 83.35501 
L 97.679512 83.35501 
L 97.794714 84.973312 
L 98.407378 84.973312 
L 98.52258 86.591615 
L 100.700942 86.591615 
L 100.816144 88.209917 
L 101.779651 88.209917 
L 101.894853 86.591615 
L 102.858359 86.591615 
L 102.973561 88.209917 
L 105.885026 88.209917 
L 106.000228 89.828219 
L 106.948025 89.828219 
L 107.063227 88.209917 
L 107.461197 88.209917 
L 107.576399 87.670483 
L 109.424865 87.670483 
L 109.540067 89.288785 
L 117.457576 89.288785 
L 117.572778 90.907087 
L 123.605166 90.907087 
L 123.720368 89.288785 
L 125.479815 89.288785 
L 125.595017 90.907087 
L 137.371788 90.907087 
L 137.48699 89.288785 
L 144.582377 89.288785 
L 144.697579 90.907087 
L 158.092414 90.907087 
L 158.207615 92.52539 
L 161.925494 92.52539 
L 162.040695 92.120814 
L 163.993891 92.120814 
L 164.109092 93.739116 
L 170.780327 93.739116 
L 170.895529 92.120814 
L 184.756407 92.120814 
L 184.871609 90.502512 
L 185.819406 90.502512 
L 185.934608 89.963078 
L 190.500791 89.963078 
L 190.615993 91.58138 
L 200.481461 91.58138 
L 200.596663 93.199682 
L 223.51136 93.199682 
L 223.626561 94.817984 
L 224.8676 94.817984 
L 224.982802 93.199682 
L 227.847139 93.199682 
L 227.962341 94.817984 
L 234.958235 94.817984 
L 235.073437 93.199682 
L 300.675659 93.199682 
L 300.790861 92.660248 
L 303.833237 92.660248 
L 303.948439 94.27855 
L 326.37091 94.27855 
L 326.486111 92.660248 
L 350.877487 92.660248 
L 350.992689 94.27855 
L 357.899564 94.27855 
L 358.014765 95.896852 
L 371.62953 95.896852 
L 371.744732 94.27855 
L 392.365865 94.27855 
L 392.481067 95.896852 
L 398.450618 95.896852 
L 398.487273 94.27855 
L 398.487273 94.27855 
" clip-path="url(#p6a6b4eb292)" style="fill: none; stroke: #ff7f0e; stroke-width: 1.5; stroke-linecap: square"/>
   </g>
   <g id="patch_3">
    <path d="M 57.6 162.432 
L 57.6 41.472 
" style="fill: none; stroke: #000000; stroke-width: 0.8; stroke-linejoin: miter; stroke-linecap: square"/>
   </g>
   <g id="patch_4">
    <path d="M 414.72 162.432 
L 414.72 41.472 
" style="fill: none; stroke: #000000; stroke-width: 0.8; stroke-linejoin: miter; stroke-linecap: square"/>
   </g>
   <g id="patch_5">
    <path d="M 57.6 162.432 
L 414.72 162.432 
" style="fill: none; stroke: #000000; stroke-width: 0.8; stroke-linejoin: miter; stroke-linecap: square"/>
   </g>
   <g id="patch_6">
    <path d="M 57.6 41.472 
L 414.72 41.472 
" style="fill: none; stroke: #000000; stroke-width: 0.8; stroke-linejoin: miter; stroke-linecap: square"/>
   </g>
   <g id="text_12">
    <!-- WSP -->
    <g transform="translate(361.832136 80.199321)scale(0.08 -0.08)">
     <defs>
      <path id="DejaVuSans-57" d="M 213 4666 
L 850 4666 
L 1831 722 
L 2809 4666 
L 3519 4666 
L 4500 722 
L 5478 4666 
L 6119 4666 
L 4947 0 
L 4153 0 
L 3169 4050 
L 2175 0 
L 1381 0 
L 213 4666 
z
" transform="scale(0.015625)"/>
      <path id="DejaVuSans-53" d="M 3425 4513 
L 3425 3897 
Q 3066 4069 2747 4153 
Q 2428 4238 2131 4238 
Q 1616 4238 1336 4038 
Q 1056 3838 1056 3469 
Q 1056 3159 1242 3001 
Q 1428 2844 1947 2747 
L 2328 2669 
Q 3034 2534 3370 2195 
Q 3706 1856 3706 1288 
Q 3706 609 3251 259 
Q 2797 -91 1919 -91 
Q 1588 -91 1214 -16 
Q 841 59 441 206 
L 441 856 
Q 825 641 1194 531 
Q 1563 422 1919 422 
Q 2459 422 2753 634 
Q 3047 847 3047 1241 
Q 3047 1584 2836 1778 
Q 2625 1972 2144 2069 
L 1759 2144 
Q 1053 2284 737 2584 
Q 422 2884 422 3419 
Q 422 4038 858 4394 
Q 1294 4750 2059 4750 
Q 2388 4750 2728 4690 
Q 3069 4631 3425 4513 
z
" transform="scale(0.015625)"/>
      <path id="DejaVuSans-50" d="M 1259 4147 
L 1259 2394 
L 2053 2394 
Q 2494 2394 2734 2622 
Q 2975 2850 2975 3272 
Q 2975 3691 2734 3919 
Q 2494 4147 2053 4147 
L 1259 4147 
z
M 628 4666 
L 2053 4666 
Q 2838 4666 3239 4311 
Q 3641 3956 3641 3272 
Q 3641 2581 3239 2228 
Q 2838 1875 2053 1875 
L 1259 1875 
L 1259 0 
L 628 0 
L 628 4666 
z
" transform="scale(0.015625)"/>
     </defs>
     <use xlink:href="#DejaVuSans-57"/>
     <use xlink:href="#DejaVuSans-53" x="98.876953"/>
     <use xlink:href="#DejaVuSans-50" x="162.353516"/>
    </g>
   </g>
   <g id="text_13">
    <!-- Iambic -->
    <g transform="translate(361.832136 57.516118)scale(0.08 -0.08)">
     <defs>
      <path id="DejaVuSans-49" d="M 628 4666 
L 1259 4666 
L 1259 0 
L 628 0 
L 628 4666 
z
" transform="scale(0.015625)"/>
      <path id="DejaVuSans-61" d="M 2194 1759 
Q 1497 1759 1228 1600 
Q 959 1441 959 1056 
Q 959 750 1161 570 
Q 1363 391 1709 391 
Q 2188 391 2477 730 
Q 2766 1069 2766 1631 
L 2766 1759 
L 2194 1759 
z
M 3341 1997 
L 3341 0 
L 2766 0 
L 2766 531 
Q 2569 213 2275 61 
Q 1981 -91 1556 -91 
Q 1019 -91 701 211 
Q 384 513 384 1019 
Q 384 1609 779 1909 
Q 1175 2209 1959 2209 
L 2766 2209 
L 2766 2266 
Q 2766 2663 2505 2880 
Q 2244 3097 1772 3097 
Q 1472 3097 1187 3025 
Q 903 2953 641 2809 
L 641 3341 
Q 956 3463 1253 3523 
Q 1550 3584 1831 3584 
Q 2591 3584 2966 3190 
Q 3341 2797 3341 1997 
z
" transform="scale(0.015625)"/>
      <path id="DejaVuSans-6d" d="M 3328 2828 
Q 3544 3216 3844 3400 
Q 4144 3584 4550 3584 
Q 5097 3584 5394 3201 
Q 5691 2819 5691 2113 
L 5691 0 
L 5113 0 
L 5113 2094 
Q 5113 2597 4934 2840 
Q 4756 3084 4391 3084 
Q 3944 3084 3684 2787 
Q 3425 2491 3425 1978 
L 3425 0 
L 2847 0 
L 2847 2094 
Q 2847 2600 2669 2842 
Q 2491 3084 2119 3084 
Q 1678 3084 1418 2786 
Q 1159 2488 1159 1978 
L 1159 0 
L 581 0 
L 581 3500 
L 1159 3500 
L 1159 2956 
Q 1356 3278 1631 3431 
Q 1906 3584 2284 3584 
Q 2666 3584 2933 3390 
Q 3200 3197 3328 2828 
z
" transform="scale(0.015625)"/>
      <path id="DejaVuSans-62" d="M 3116 1747 
Q 3116 2381 2855 2742 
Q 2594 3103 2138 3103 
Q 1681 3103 1420 2742 
Q 1159 2381 1159 1747 
Q 1159 1113 1420 752 
Q 1681 391 2138 391 
Q 2594 391 2855 752 
Q 3116 1113 3116 1747 
z
M 1159 2969 
Q 1341 3281 1617 3432 
Q 1894 3584 2278 3584 
Q 2916 3584 3314 3078 
Q 3713 2572 3713 1747 
Q 3713 922 3314 415 
Q 2916 -91 2278 -91 
Q 1894 -91 1617 61 
Q 1341 213 1159 525 
L 1159 0 
L 581 0 
L 581 4863 
L 1159 4863 
L 1159 2969 
z
" transform="scale(0.015625)"/>
      <path id="DejaVuSans-69" d="M 603 3500 
L 1178 3500 
L 1178 0 
L 603 0 
L 603 3500 
z
M 603 4863 
L 1178 4863 
L 1178 4134 
L 603 4134 
L 603 4863 
z
" transform="scale(0.015625)"/>
      <path id="DejaVuSans-63" d="M 3122 3366 
L 3122 2828 
Q 2878 2963 2633 3030 
Q 2388 3097 2138 3097 
Q 1578 3097 1268 2742 
Q 959 2388 959 1747 
Q 959 1106 1268 751 
Q 1578 397 2138 397 
Q 2388 397 2633 464 
Q 2878 531 3122 666 
L 3122 134 
Q 2881 22 2623 -34 
Q 2366 -91 2075 -91 
Q 1284 -91 818 406 
Q 353 903 353 1747 
Q 353 2603 823 3093 
Q 1294 3584 2113 3584 
Q 2378 3584 2631 3529 
Q 2884 3475 3122 3366 
z
" transform="scale(0.015625)"/>
     </defs>
     <use xlink:href="#DejaVuSans-49"/>
     <use xlink:href="#DejaVuSans-61" x="29.492188"/>
     <use xlink:href="#DejaVuSans-6d" x="90.771484"/>
     <use xlink:href="#DejaVuSans-62" x="188.183594"/>
     <use xlink:href="#DejaVuSans-69" x="251.660156"/>
     <use xlink:href="#DejaVuSans-63" x="279.443359"/>
    </g>
   </g>
   <g id="text_14">
    <!-- Parse -->
    <g transform="translate(361.832136 156.933818)scale(0.08 -0.08)">
     <defs>
      <path id="DejaVuSans-72" d="M 2631 2963 
Q 2534 3019 2420 3045 
Q 2306 3072 2169 3072 
Q 1681 3072 1420 2755 
Q 1159 2438 1159 1844 
L 1159 0 
L 581 0 
L 581 3500 
L 1159 3500 
L 1159 2956 
Q 1341 3275 1631 3429 
Q 1922 3584 2338 3584 
Q 2397 3584 2469 3576 
Q 2541 3569 2628 3553 
L 2631 2963 
z
" transform="scale(0.015625)"/>
      <path id="DejaVuSans-73" d="M 2834 3397 
L 2834 2853 
Q 2591 2978 2328 3040 
Q 2066 3103 1784 3103 
Q 1356 3103 1142 2972 
Q 928 2841 928 2578 
Q 928 2378 1081 2264 
Q 1234 2150 1697 2047 
L 1894 2003 
Q 2506 1872 2764 1633 
Q 3022 1394 3022 966 
Q 3022 478 2636 193 
Q 2250 -91 1575 -91 
Q 1294 -91 989 -36 
Q 684 19 347 128 
L 347 722 
Q 666 556 975 473 
Q 1284 391 1588 391 
Q 1994 391 2212 530 
Q 2431 669 2431 922 
Q 2431 1156 2273 1281 
Q 2116 1406 1581 1522 
L 1381 1569 
Q 847 1681 609 1914 
Q 372 2147 372 2553 
Q 372 3047 722 3315 
Q 1072 3584 1716 3584 
Q 2034 3584 2315 3537 
Q 2597 3491 2834 3397 
z
" transform="scale(0.015625)"/>
      <path id="DejaVuSans-65" d="M 3597 1894 
L 3597 1613 
L 953 1613 
Q 991 1019 1311 708 
Q 1631 397 2203 397 
Q 2534 397 2845 478 
Q 3156 559 3463 722 
L 3463 178 
Q 3153 47 2828 -22 
Q 2503 -91 2169 -91 
Q 1331 -91 842 396 
Q 353 884 353 1716 
Q 353 2575 817 3079 
Q 1281 3584 2069 3584 
Q 2775 3584 3186 3129 
Q 3597 2675 3597 1894 
z
M 3022 2063 
Q 3016 2534 2758 2815 
Q 2500 3097 2075 3097 
Q 1594 3097 1305 2825 
Q 1016 2553 972 2059 
L 3022 2063 
z
" transform="scale(0.015625)"/>
     </defs>
     <use xlink:href="#DejaVuSans-50"/>
     <use xlink:href="#DejaVuSans-61" x="55.802734"/>
     <use xlink:href="#DejaVuSans-72" x="117.082031"/>
     <use xlink:href="#DejaVuSans-73" x="158.195312"/>
     <use xlink:href="#DejaVuSans-65" x="210.294922"/>
    </g>
   </g>
   <g id="text_15">
    <!-- FootBin -->
    <g transform="translate(361.832136 112.565365)scale(0.08 -0.08)">
     <defs>
      <path id="DejaVuSans-46" d="M 628 4666 
L 3309 4666 
L 3309 4134 
L 1259 4134 
L 1259 2759 
L 3109 2759 
L 3109 2228 
L 1259 2228 
L 1259 0 
L 628 0 
L 628 4666 
z
" transform="scale(0.015625)"/>
      <path id="DejaVuSans-6f" d="M 1959 3097 
Q 1497 3097 1228 2736 
Q 959 2375 959 1747 
Q 959 1119 1226 758 
Q 1494 397 1959 397 
Q 2419 397 2687 759 
Q 2956 1122 2956 1747 
Q 2956 2369 2687 2733 
Q 2419 3097 1959 3097 
z
M 1959 3584 
Q 2709 3584 3137 3096 
Q 3566 2609 3566 1747 
Q 3566 888 3137 398 
Q 2709 -91 1959 -91 
Q 1206 -91 779 398 
Q 353 888 353 1747 
Q 353 2609 779 3096 
Q 1206 3584 1959 3584 
z
" transform="scale(0.015625)"/>
      <path id="DejaVuSans-74" d="M 1172 4494 
L 1172 3500 
L 2356 3500 
L 2356 3053 
L 1172 3053 
L 1172 1153 
Q 1172 725 1289 603 
Q 1406 481 1766 481 
L 2356 481 
L 2356 0 
L 1766 0 
Q 1100 0 847 248 
Q 594 497 594 1153 
L 594 3053 
L 172 3053 
L 172 3500 
L 594 3500 
L 594 4494 
L 1172 4494 
z
" transform="scale(0.015625)"/>
      <path id="DejaVuSans-42" d="M 1259 2228 
L 1259 519 
L 2272 519 
Q 2781 519 3026 730 
Q 3272 941 3272 1375 
Q 3272 1813 3026 2020 
Q 2781 2228 2272 2228 
L 1259 2228 
z
M 1259 4147 
L 1259 2741 
L 2194 2741 
Q 2656 2741 2882 2914 
Q 3109 3088 3109 3444 
Q 3109 3797 2882 3972 
Q 2656 4147 2194 4147 
L 1259 4147 
z
M 628 4666 
L 2241 4666 
Q 2963 4666 3353 4366 
Q 3744 4066 3744 3513 
Q 3744 3084 3544 2831 
Q 3344 2578 2956 2516 
Q 3422 2416 3680 2098 
Q 3938 1781 3938 1306 
Q 3938 681 3513 340 
Q 3088 0 2303 0 
L 628 0 
L 628 4666 
z
" transform="scale(0.015625)"/>
      <path id="DejaVuSans-6e" d="M 3513 2113 
L 3513 0 
L 2938 0 
L 2938 2094 
Q 2938 2591 2744 2837 
Q 2550 3084 2163 3084 
Q 1697 3084 1428 2787 
Q 1159 2491 1159 1978 
L 1159 0 
L 581 0 
L 581 3500 
L 1159 3500 
L 1159 2956 
Q 1366 3272 1645 3428 
Q 1925 3584 2291 3584 
Q 2894 3584 3203 3211 
Q 3513 2838 3513 2113 
z
" transform="scale(0.015625)"/>
     </defs>
     <use xlink:href="#DejaVuSans-46"/>
     <use xlink:href="#DejaVuSans-6f" x="53.894531"/>
     <use xlink:href="#DejaVuSans-6f" x="115.076172"/>
     <use xlink:href="#DejaVuSans-74" x="176.257812"/>
     <use xlink:href="#DejaVuSans-42" x="215.466797"/>
     <use xlink:href="#DejaVuSans-69" x="284.070312"/>
     <use xlink:href="#DejaVuSans-6e" x="311.853516"/>
    </g>
   </g>
   <g id="text_16">
    <!-- WFL -->
    <g transform="translate(361.832136 52.742126)scale(0.08 -0.08)">
     <defs>
      <path id="DejaVuSans-4c" d="M 628 4666 
L 1259 4666 
L 1259 531 
L 3531 531 
L 3531 0 
L 628 0 
L 628 4666 
z
" transform="scale(0.015625)"/>
     </defs>
     <use xlink:href="#DejaVuSans-57"/>
     <use xlink:href="#DejaVuSans-46" x="98.876953"/>
     <use xlink:href="#DejaVuSans-4c" x="156.396484"/>
    </g>
   </g>
   <g id="text_17">
    <!-- WFR -->
    <g transform="translate(361.832136 46.970182)scale(0.08 -0.08)">
     <defs>
      <path id="DejaVuSans-52" d="M 2841 2188 
Q 3044 2119 3236 1894 
Q 3428 1669 3622 1275 
L 4263 0 
L 3584 0 
L 2988 1197 
Q 2756 1666 2539 1819 
Q 2322 1972 1947 1972 
L 1259 1972 
L 1259 0 
L 628 0 
L 628 4666 
L 2053 4666 
Q 2853 4666 3247 4331 
Q 3641 3997 3641 3322 
Q 3641 2881 3436 2590 
Q 3231 2300 2841 2188 
z
M 1259 4147 
L 1259 2491 
L 2053 2491 
Q 2509 2491 2742 2702 
Q 2975 2913 2975 3322 
Q 2975 3731 2742 3939 
Q 2509 4147 2053 4147 
L 1259 4147 
z
" transform="scale(0.015625)"/>
     </defs>
     <use xlink:href="#DejaVuSans-57"/>
     <use xlink:href="#DejaVuSans-46" x="98.876953"/>
     <use xlink:href="#DejaVuSans-52" x="156.396484"/>
    </g>
   </g>
   <g id="text_18">
    <!-- Main-L -->
    <g transform="translate(361.832136 83.489869)scale(0.08 -0.08)">
     <defs>
      <path id="DejaVuSans-4d" d="M 628 4666 
L 1569 4666 
L 2759 1491 
L 3956 4666 
L 4897 4666 
L 4897 0 
L 4281 0 
L 4281 4097 
L 3078 897 
L 2444 897 
L 1241 4097 
L 1241 0 
L 628 0 
L 628 4666 
z
" transform="scale(0.015625)"/>
      <path id="DejaVuSans-2d" d="M 313 2009 
L 1997 2009 
L 1997 1497 
L 313 1497 
L 313 2009 
z
" transform="scale(0.015625)"/>
     </defs>
     <use xlink:href="#DejaVuSans-4d"/>
     <use xlink:href="#DejaVuSans-61" x="86.279297"/>
     <use xlink:href="#DejaVuSans-69" x="147.558594"/>
     <use xlink:href="#DejaVuSans-6e" x="175.341797"/>
     <use xlink:href="#DejaVuSans-2d" x="238.720703"/>
     <use xlink:href="#DejaVuSans-4c" x="274.804688"/>
    </g>
   </g>
   <g id="text_19">
    <!-- Main-R -->
    <g transform="translate(361.832136 46.970182)scale(0.08 -0.08)">
     <use xlink:href="#DejaVuSans-4d"/>
     <use xlink:href="#DejaVuSans-61" x="86.279297"/>
     <use xlink:href="#DejaVuSans-69" x="147.558594"/>
     <use xlink:href="#DejaVuSans-6e" x="175.341797"/>
     <use xlink:href="#DejaVuSans-2d" x="238.720703"/>
     <use xlink:href="#DejaVuSans-52" x="274.804688"/>
    </g>
   </g>
   <g id="text_20">
    <!-- AFL -->
    <g transform="translate(361.832136 61.534902)scale(0.08 -0.08)">
     <defs>
      <path id="DejaVuSans-41" d="M 2188 4044 
L 1331 1722 
L 3047 1722 
L 2188 4044 
z
M 1831 4666 
L 2547 4666 
L 4325 0 
L 3669 0 
L 3244 1197 
L 1141 1197 
L 716 0 
L 50 0 
L 1831 4666 
z
" transform="scale(0.015625)"/>
     </defs>
     <use xlink:href="#DejaVuSans-41"/>
     <use xlink:href="#DejaVuSans-46" x="68.408203"/>
     <use xlink:href="#DejaVuSans-4c" x="125.927734"/>
    </g>
   </g>
   <g id="text_21">
    <!-- AFR -->
    <g transform="translate(361.832136 119.308291)scale(0.08 -0.08)">
     <use xlink:href="#DejaVuSans-41"/>
     <use xlink:href="#DejaVuSans-46" x="68.408203"/>
     <use xlink:href="#DejaVuSans-52" x="125.927734"/>
    </g>
   </g>
   <g id="text_22">
    <!-- Nonfinal -->
    <g transform="translate(361.832136 81.92551)scale(0.08 -0.08)">
     <defs>
      <path id="DejaVuSans-4e" d="M 628 4666 
L 1478 4666 
L 3547 763 
L 3547 4666 
L 4159 4666 
L 4159 0 
L 3309 0 
L 1241 3903 
L 1241 0 
L 628 0 
L 628 4666 
z
" transform="scale(0.015625)"/>
      <path id="DejaVuSans-66" d="M 2375 4863 
L 2375 4384 
L 1825 4384 
Q 1516 4384 1395 4259 
Q 1275 4134 1275 3809 
L 1275 3500 
L 2222 3500 
L 2222 3053 
L 1275 3053 
L 1275 0 
L 697 0 
L 697 3053 
L 147 3053 
L 147 3500 
L 697 3500 
L 697 3744 
Q 697 4328 969 4595 
Q 1241 4863 1831 4863 
L 2375 4863 
z
" transform="scale(0.015625)"/>
      <path id="DejaVuSans-6c" d="M 603 4863 
L 1178 4863 
L 1178 0 
L 603 0 
L 603 4863 
z
" transform="scale(0.015625)"/>
     </defs>
     <use xlink:href="#DejaVuSans-4e"/>
     <use xlink:href="#DejaVuSans-6f" x="74.804688"/>
     <use xlink:href="#DejaVuSans-6e" x="135.986328"/>
     <use xlink:href="#DejaVuSans-66" x="199.365234"/>
     <use xlink:href="#DejaVuSans-69" x="234.570312"/>
     <use xlink:href="#DejaVuSans-6e" x="262.353516"/>
     <use xlink:href="#DejaVuSans-61" x="325.732422"/>
     <use xlink:href="#DejaVuSans-6c" x="387.011719"/>
    </g>
   </g>
   <g id="text_23">
    <!-- Trochaic -->
    <g transform="translate(361.832136 94.27855)scale(0.08 -0.08)">
     <defs>
      <path id="DejaVuSans-54" d="M -19 4666 
L 3928 4666 
L 3928 4134 
L 2272 4134 
L 2272 0 
L 1638 0 
L 1638 4134 
L -19 4134 
L -19 4666 
z
" transform="scale(0.015625)"/>
      <path id="DejaVuSans-68" d="M 3513 2113 
L 3513 0 
L 2938 0 
L 2938 2094 
Q 2938 2591 2744 2837 
Q 2550 3084 2163 3084 
Q 1697 3084 1428 2787 
Q 1159 2491 1159 1978 
L 1159 0 
L 581 0 
L 581 4863 
L 1159 4863 
L 1159 2956 
Q 1366 3272 1645 3428 
Q 1925 3584 2291 3584 
Q 2894 3584 3203 3211 
Q 3513 2838 3513 2113 
z
" transform="scale(0.015625)"/>
     </defs>
     <use xlink:href="#DejaVuSans-54"/>
     <use xlink:href="#DejaVuSans-72" x="46.333984"/>
     <use xlink:href="#DejaVuSans-6f" x="85.197266"/>
     <use xlink:href="#DejaVuSans-63" x="146.378906"/>
     <use xlink:href="#DejaVuSans-68" x="201.359375"/>
     <use xlink:href="#DejaVuSans-61" x="264.738281"/>
     <use xlink:href="#DejaVuSans-69" x="326.017578"/>
     <use xlink:href="#DejaVuSans-63" x="353.800781"/>
    </g>
   </g>
  </g>
  <g id="axes_2">
   <g id="patch_7">
    <path d="M 57.6 307.584 
L 414.72 307.584 
L 414.72 186.624 
L 57.6 186.624 
z
" style="fill: #ffffff"/>
   </g>
   <g id="matplotlib.axis_3">
    <g id="xtick_8">
     <g id="line2d_24">
      <g>
       <use xlink:href="#mbd4f889ab2" x="71.998521" y="307.584" style="stroke: #000000; stroke-width: 0.8"/>
      </g>
     </g>
     <g id="text_24">
      <!-- 0 -->
      <g transform="translate(68.817271 322.182437)scale(0.1 -0.1)">
       <use xlink:href="#DejaVuSans-30"/>
      </g>
     </g>
    </g>
    <g id="xtick_9">
     <g id="line2d_25">
      <g>
       <use xlink:href="#mbd4f889ab2" x="117.853683" y="307.584" style="stroke: #000000; stroke-width: 0.8"/>
      </g>
     </g>
     <g id="text_25">
      <!-- 25 -->
      <g transform="translate(111.491183 322.182437)scale(0.1 -0.1)">
       <use xlink:href="#DejaVuSans-32"/>
       <use xlink:href="#DejaVuSans-35" x="63.623047"/>
      </g>
     </g>
    </g>
    <g id="xtick_10">
     <g id="line2d_26">
      <g>
       <use xlink:href="#mbd4f889ab2" x="163.708844" y="307.584" style="stroke: #000000; stroke-width: 0.8"/>
      </g>
     </g>
     <g id="text_26">
      <!-- 50 -->
      <g transform="translate(157.346344 322.182437)scale(0.1 -0.1)">
       <use xlink:href="#DejaVuSans-35"/>
       <use xlink:href="#DejaVuSans-30" x="63.623047"/>
      </g>
     </g>
    </g>
    <g id="xtick_11">
     <g id="line2d_27">
      <g>
       <use xlink:href="#mbd4f889ab2" x="209.564006" y="307.584" style="stroke: #000000; stroke-width: 0.8"/>
      </g>
     </g>
     <g id="text_27">
      <!-- 75 -->
      <g transform="translate(203.201506 322.182437)scale(0.1 -0.1)">
       <defs>
        <path id="DejaVuSans-37" d="M 525 4666 
L 3525 4666 
L 3525 4397 
L 1831 0 
L 1172 0 
L 2766 4134 
L 525 4134 
L 525 4666 
z
" transform="scale(0.015625)"/>
       </defs>
       <use xlink:href="#DejaVuSans-37"/>
       <use xlink:href="#DejaVuSans-35" x="63.623047"/>
      </g>
     </g>
    </g>
    <g id="xtick_12">
     <g id="line2d_28">
      <g>
       <use xlink:href="#mbd4f889ab2" x="255.419168" y="307.584" style="stroke: #000000; stroke-width: 0.8"/>
      </g>
     </g>
     <g id="text_28">
      <!-- 100 -->
      <g transform="translate(245.875418 322.182437)scale(0.1 -0.1)">
       <use xlink:href="#DejaVuSans-31"/>
       <use xlink:href="#DejaVuSans-30" x="63.623047"/>
       <use xlink:href="#DejaVuSans-30" x="127.246094"/>
      </g>
     </g>
    </g>
    <g id="xtick_13">
     <g id="line2d_29">
      <g>
       <use xlink:href="#mbd4f889ab2" x="301.27433" y="307.584" style="stroke: #000000; stroke-width: 0.8"/>
      </g>
     </g>
     <g id="text_29">
      <!-- 125 -->
      <g transform="translate(291.73058 322.182437)scale(0.1 -0.1)">
       <use xlink:href="#DejaVuSans-31"/>
       <use xlink:href="#DejaVuSans-32" x="63.623047"/>
       <use xlink:href="#DejaVuSans-35" x="127.246094"/>
      </g>
     </g>
    </g>
    <g id="xtick_14">
     <g id="line2d_30">
      <g>
       <use xlink:href="#mbd4f889ab2" x="347.129492" y="307.584" style="stroke: #000000; stroke-width: 0.8"/>
      </g>
     </g>
     <g id="text_30">
      <!-- 150 -->
      <g transform="translate(337.585742 322.182437)scale(0.1 -0.1)">
       <use xlink:href="#DejaVuSans-31"/>
       <use xlink:href="#DejaVuSans-35" x="63.623047"/>
       <use xlink:href="#DejaVuSans-30" x="127.246094"/>
      </g>
     </g>
    </g>
    <g id="xtick_15">
     <g id="line2d_31">
      <g>
       <use xlink:href="#mbd4f889ab2" x="392.984653" y="307.584" style="stroke: #000000; stroke-width: 0.8"/>
      </g>
     </g>
     <g id="text_31">
      <!-- 175 -->
      <g transform="translate(383.440903 322.182437)scale(0.1 -0.1)">
       <use xlink:href="#DejaVuSans-31"/>
       <use xlink:href="#DejaVuSans-37" x="63.623047"/>
       <use xlink:href="#DejaVuSans-35" x="127.246094"/>
      </g>
     </g>
    </g>
   </g>
   <g id="matplotlib.axis_4">
    <g id="ytick_5">
     <g id="line2d_32">
      <g>
       <use xlink:href="#m662cf5e800" x="57.6" y="302.094581" style="stroke: #000000; stroke-width: 0.8"/>
      </g>
     </g>
     <g id="text_32">
      <!-- 0 -->
      <g transform="translate(44.2375 305.8938)scale(0.1 -0.1)">
       <use xlink:href="#DejaVuSans-30"/>
      </g>
     </g>
    </g>
    <g id="ytick_6">
     <g id="line2d_33">
      <g>
       <use xlink:href="#m662cf5e800" x="57.6" y="280.187729" style="stroke: #000000; stroke-width: 0.8"/>
      </g>
     </g>
     <g id="text_33">
      <!-- 2500 -->
      <g transform="translate(25.15 283.986947)scale(0.1 -0.1)">
       <use xlink:href="#DejaVuSans-32"/>
       <use xlink:href="#DejaVuSans-35" x="63.623047"/>
       <use xlink:href="#DejaVuSans-30" x="127.246094"/>
       <use xlink:href="#DejaVuSans-30" x="190.869141"/>
      </g>
     </g>
    </g>
    <g id="ytick_7">
     <g id="line2d_34">
      <g>
       <use xlink:href="#m662cf5e800" x="57.6" y="258.280876" style="stroke: #000000; stroke-width: 0.8"/>
      </g>
     </g>
     <g id="text_34">
      <!-- 5000 -->
      <g transform="translate(25.15 262.080095)scale(0.1 -0.1)">
       <use xlink:href="#DejaVuSans-35"/>
       <use xlink:href="#DejaVuSans-30" x="63.623047"/>
       <use xlink:href="#DejaVuSans-30" x="127.246094"/>
       <use xlink:href="#DejaVuSans-30" x="190.869141"/>
      </g>
     </g>
    </g>
    <g id="ytick_8">
     <g id="line2d_35">
      <g>
       <use xlink:href="#m662cf5e800" x="57.6" y="236.374024" style="stroke: #000000; stroke-width: 0.8"/>
      </g>
     </g>
     <g id="text_35">
      <!-- 7500 -->
      <g transform="translate(25.15 240.173242)scale(0.1 -0.1)">
       <use xlink:href="#DejaVuSans-37"/>
       <use xlink:href="#DejaVuSans-35" x="63.623047"/>
       <use xlink:href="#DejaVuSans-30" x="127.246094"/>
       <use xlink:href="#DejaVuSans-30" x="190.869141"/>
      </g>
     </g>
    </g>
    <g id="ytick_9">
     <g id="line2d_36">
      <g>
       <use xlink:href="#m662cf5e800" x="57.6" y="214.467171" style="stroke: #000000; stroke-width: 0.8"/>
      </g>
     </g>
     <g id="text_36">
      <!-- 10000 -->
      <g transform="translate(18.7875 218.26639)scale(0.1 -0.1)">
       <use xlink:href="#DejaVuSans-31"/>
       <use xlink:href="#DejaVuSans-30" x="63.623047"/>
       <use xlink:href="#DejaVuSans-30" x="127.246094"/>
       <use xlink:href="#DejaVuSans-30" x="190.869141"/>
       <use xlink:href="#DejaVuSans-30" x="254.492188"/>
      </g>
     </g>
    </g>
    <g id="ytick_10">
     <g id="line2d_37">
      <g>
       <use xlink:href="#m662cf5e800" x="57.6" y="192.560319" style="stroke: #000000; stroke-width: 0.8"/>
      </g>
     </g>
     <g id="text_37">
      <!-- 12500 -->
      <g transform="translate(18.7875 196.359538)scale(0.1 -0.1)">
       <use xlink:href="#DejaVuSans-31"/>
       <use xlink:href="#DejaVuSans-32" x="63.623047"/>
       <use xlink:href="#DejaVuSans-35" x="127.246094"/>
       <use xlink:href="#DejaVuSans-30" x="190.869141"/>
       <use xlink:href="#DejaVuSans-30" x="254.492188"/>
      </g>
     </g>
    </g>
   </g>
   <g id="line2d_38">
    <path d="M 73.832727 302.085818 
L 156.372018 302.077055 
L 158.206225 301.919326 
L 160.040431 302.085818 
L 191.221941 302.042004 
L 194.890354 302.024479 
L 196.724561 301.884275 
L 202.22718 302.05953 
L 213.232419 301.989428 
L 215.066626 302.085818 
L 216.900832 301.691495 
L 218.735039 301.980665 
L 222.403451 301.989428 
L 224.237658 301.971903 
L 226.071864 301.840461 
L 229.740277 302.050767 
L 231.574484 301.96314 
L 233.40869 302.085818 
L 235.242897 302.006954 
L 238.91131 302.085818 
L 240.745516 301.507477 
L 242.579723 301.86675 
L 244.413929 302.015716 
L 246.248136 301.77036 
L 248.082342 302.050767 
L 251.750755 301.971903 
L 253.584961 302.068293 
L 255.419168 301.376036 
L 257.253374 302.006954 
L 259.087581 302.024479 
L 260.921787 301.761597 
L 262.755994 301.96314 
L 264.5902 302.033242 
L 268.258613 301.928089 
L 270.09282 301.884275 
L 271.927026 301.41985 
L 273.761233 300.692542 
L 275.595439 301.96314 
L 277.429646 301.393562 
L 279.263852 302.033242 
L 281.098059 299.50081 
L 282.932265 301.849224 
L 284.766471 299.956472 
L 286.600678 301.673969 
L 288.434884 301.761597 
L 290.269091 299.159063 
L 292.103297 300.736356 
L 293.937504 299.509572 
L 295.77171 300.850272 
L 297.605917 301.919326 
L 299.440123 301.70902 
L 301.27433 302.015716 
L 304.942743 301.51624 
L 306.776949 301.086866 
L 308.611156 300.490999 
L 310.445362 301.551291 
L 312.279569 299.474521 
L 314.113775 302.050767 
L 315.947982 300.464711 
L 317.782188 302.050767 
L 319.616394 299.816268 
L 321.450601 300.902848 
L 323.284807 301.016764 
L 325.119014 300.569864 
L 326.95322 301.849224 
L 328.787427 301.121917 
L 330.621633 298.2565 
L 332.45584 301.446138 
L 334.290046 300.937899 
L 336.124253 300.289456 
L 337.958459 300.78017 
L 339.792666 298.344128 
L 341.626872 300.771407 
L 343.461079 301.638918 
L 345.295285 301.235832 
L 347.129492 298.808553 
L 348.963698 288.652536 
L 350.797904 291.807123 
L 352.632111 298.95752 
L 354.466317 282.194396 
L 356.300524 290.028287 
L 358.13473 279.486709 
L 359.968937 295.680255 
L 361.803143 298.633298 
L 363.63735 290.738069 
L 365.471556 278.706825 
L 367.305763 300.315745 
L 369.139969 294.260691 
L 370.974176 285.392797 
L 372.808382 278.97847 
L 374.642589 296.109629 
L 376.476795 292.657109 
L 378.311002 299.825031 
L 380.145208 297.108581 
L 381.979414 290.194779 
L 383.813621 192.122182 
L 385.647827 296.810648 
L 387.482034 264.379744 
L 389.31624 261.084953 
L 391.150447 295.960662 
L 392.984653 296.477664 
L 394.81886 279.118674 
L 396.653066 267.394127 
L 398.487273 291.912276 
L 398.487273 291.912276 
" clip-path="url(#pd7b3c30039)" style="fill: none; stroke: #1f77b4; stroke-width: 1.5; stroke-linecap: square"/>
   </g>
   <g id="patch_8">
    <path d="M 57.6 307.584 
L 57.6 186.624 
" style="fill: none; stroke: #000000; stroke-width: 0.8; stroke-linejoin: miter; stroke-linecap: square"/>
   </g>
   <g id="patch_9">
    <path d="M 414.72 307.584 
L 414.72 186.624 
" style="fill: none; stroke: #000000; stroke-width: 0.8; stroke-linejoin: miter; stroke-linecap: square"/>
   </g>
   <g id="patch_10">
    <path d="M 57.6 307.584 
L 414.72 307.584 
" style="fill: none; stroke: #000000; stroke-width: 0.8; stroke-linejoin: miter; stroke-linecap: square"/>
   </g>
   <g id="patch_11">
    <path d="M 57.6 186.624 
L 414.72 186.624 
" style="fill: none; stroke: #000000; stroke-width: 0.8; stroke-linejoin: miter; stroke-linecap: square"/>
   </g>
  </g>
 </g>
 <defs>
  <clipPath id="p6a6b4eb292">
   <rect x="57.6" y="41.472" width="357.12" height="120.96"/>
  </clipPath>
  <clipPath id="pd7b3c30039">
   <rect x="57.6" y="186.624" width="357.12" height="120.96"/>
  </clipPath>
 </defs>
</svg>
