<?xml version="1.0" encoding="utf-8" standalone="no"?>
<!DOCTYPE svg PUBLIC "-//W3C//DTD SVG 1.1//EN"
  "http://www.w3.org/Graphics/SVG/1.1/DTD/svg11.dtd">
<svg xmlns:xlink="http://www.w3.org/1999/xlink" width="460.8pt" height="345.6pt" viewBox="0 0 460.8 345.6" xmlns="http://www.w3.org/2000/svg" version="1.1">
 <metadata>
  <rdf:RDF xmlns:dc="http://purl.org/dc/elements/1.1/" xmlns:cc="http://creativecommons.org/ns#" xmlns:rdf="http://www.w3.org/1999/02/22-rdf-syntax-ns#">
   <cc:Work>
    <dc:type rdf:resource="http://purl.org/dc/dcmitype/StillImage"/>
    <dc:date>2022-05-14T00:32:03.743923</dc:date>
    <dc:format>image/svg+xml</dc:format>
    <dc:creator>
     <cc:Agent>
      <dc:title>Matplotlib v3.5.1, https://matplotlib.org/</dc:title>
     </cc:Agent>
    </dc:creator>
   </cc:Work>
  </rdf:RDF>
 </metadata>
 <defs>
  <style type="text/css">*{stroke-linejoin: round; stroke-linecap: butt}</style>
 </defs>
 <g id="figure_1">
  <g id="patch_1">
   <path d="M 0 345.6 
L 460.8 345.6 
L 460.8 0 
L 0 0 
z
" style="fill: #ffffff"/>
  </g>
  <g id="axes_1">
   <g id="patch_2">
    <path d="M 57.6 162.432 
L 414.72 162.432 
L 414.72 41.472 
L 57.6 41.472 
z
" style="fill: #ffffff"/>
   </g>
   <g id="matplotlib.axis_1">
    <g id="xtick_1">
     <g id="line2d_1">
      <defs>
       <path id="mfc5c061561" d="M 0 0 
L 0 3.5 
" style="stroke: #000000; stroke-width: 0.8"/>
      </defs>
      <g>
       <use xlink:href="#mfc5c061561" x="73.827491" y="162.432" style="stroke: #000000; stroke-width: 0.8"/>
      </g>
     </g>
     <g id="text_1">
      <!-- 0 -->
      <g transform="translate(70.646241 177.030437)scale(0.1 -0.1)">
       <defs>
        <path id="DejaVuSans-30" d="M 2034 4250 
Q 1547 4250 1301 3770 
Q 1056 3291 1056 2328 
Q 1056 1369 1301 889 
Q 1547 409 2034 409 
Q 2525 409 2770 889 
Q 3016 1369 3016 2328 
Q 3016 3291 2770 3770 
Q 2525 4250 2034 4250 
z
M 2034 4750 
Q 2819 4750 3233 4129 
Q 3647 3509 3647 2328 
Q 3647 1150 3233 529 
Q 2819 -91 2034 -91 
Q 1250 -91 836 529 
Q 422 1150 422 2328 
Q 422 3509 836 4129 
Q 1250 4750 2034 4750 
z
" transform="scale(0.015625)"/>
       </defs>
       <use xlink:href="#DejaVuSans-30"/>
      </g>
     </g>
    </g>
    <g id="xtick_2">
     <g id="line2d_2">
      <g>
       <use xlink:href="#mfc5c061561" x="126.191972" y="162.432" style="stroke: #000000; stroke-width: 0.8"/>
      </g>
     </g>
     <g id="text_2">
      <!-- 10000 -->
      <g transform="translate(110.285722 177.030437)scale(0.1 -0.1)">
       <defs>
        <path id="DejaVuSans-31" d="M 794 531 
L 1825 531 
L 1825 4091 
L 703 3866 
L 703 4441 
L 1819 4666 
L 2450 4666 
L 2450 531 
L 3481 531 
L 3481 0 
L 794 0 
L 794 531 
z
" transform="scale(0.015625)"/>
       </defs>
       <use xlink:href="#DejaVuSans-31"/>
       <use xlink:href="#DejaVuSans-30" x="63.623047"/>
       <use xlink:href="#DejaVuSans-30" x="127.246094"/>
       <use xlink:href="#DejaVuSans-30" x="190.869141"/>
       <use xlink:href="#DejaVuSans-30" x="254.492188"/>
      </g>
     </g>
    </g>
    <g id="xtick_3">
     <g id="line2d_3">
      <g>
       <use xlink:href="#mfc5c061561" x="178.556453" y="162.432" style="stroke: #000000; stroke-width: 0.8"/>
      </g>
     </g>
     <g id="text_3">
      <!-- 20000 -->
      <g transform="translate(162.650203 177.030437)scale(0.1 -0.1)">
       <defs>
        <path id="DejaVuSans-32" d="M 1228 531 
L 3431 531 
L 3431 0 
L 469 0 
L 469 531 
Q 828 903 1448 1529 
Q 2069 2156 2228 2338 
Q 2531 2678 2651 2914 
Q 2772 3150 2772 3378 
Q 2772 3750 2511 3984 
Q 2250 4219 1831 4219 
Q 1534 4219 1204 4116 
Q 875 4013 500 3803 
L 500 4441 
Q 881 4594 1212 4672 
Q 1544 4750 1819 4750 
Q 2544 4750 2975 4387 
Q 3406 4025 3406 3419 
Q 3406 3131 3298 2873 
Q 3191 2616 2906 2266 
Q 2828 2175 2409 1742 
Q 1991 1309 1228 531 
z
" transform="scale(0.015625)"/>
       </defs>
       <use xlink:href="#DejaVuSans-32"/>
       <use xlink:href="#DejaVuSans-30" x="63.623047"/>
       <use xlink:href="#DejaVuSans-30" x="127.246094"/>
       <use xlink:href="#DejaVuSans-30" x="190.869141"/>
       <use xlink:href="#DejaVuSans-30" x="254.492188"/>
      </g>
     </g>
    </g>
    <g id="xtick_4">
     <g id="line2d_4">
      <g>
       <use xlink:href="#mfc5c061561" x="230.920934" y="162.432" style="stroke: #000000; stroke-width: 0.8"/>
      </g>
     </g>
     <g id="text_4">
      <!-- 30000 -->
      <g transform="translate(215.014684 177.030437)scale(0.1 -0.1)">
       <defs>
        <path id="DejaVuSans-33" d="M 2597 2516 
Q 3050 2419 3304 2112 
Q 3559 1806 3559 1356 
Q 3559 666 3084 287 
Q 2609 -91 1734 -91 
Q 1441 -91 1130 -33 
Q 819 25 488 141 
L 488 750 
Q 750 597 1062 519 
Q 1375 441 1716 441 
Q 2309 441 2620 675 
Q 2931 909 2931 1356 
Q 2931 1769 2642 2001 
Q 2353 2234 1838 2234 
L 1294 2234 
L 1294 2753 
L 1863 2753 
Q 2328 2753 2575 2939 
Q 2822 3125 2822 3475 
Q 2822 3834 2567 4026 
Q 2313 4219 1838 4219 
Q 1578 4219 1281 4162 
Q 984 4106 628 3988 
L 628 4550 
Q 988 4650 1302 4700 
Q 1616 4750 1894 4750 
Q 2613 4750 3031 4423 
Q 3450 4097 3450 3541 
Q 3450 3153 3228 2886 
Q 3006 2619 2597 2516 
z
" transform="scale(0.015625)"/>
       </defs>
       <use xlink:href="#DejaVuSans-33"/>
       <use xlink:href="#DejaVuSans-30" x="63.623047"/>
       <use xlink:href="#DejaVuSans-30" x="127.246094"/>
       <use xlink:href="#DejaVuSans-30" x="190.869141"/>
       <use xlink:href="#DejaVuSans-30" x="254.492188"/>
      </g>
     </g>
    </g>
    <g id="xtick_5">
     <g id="line2d_5">
      <g>
       <use xlink:href="#mfc5c061561" x="283.285415" y="162.432" style="stroke: #000000; stroke-width: 0.8"/>
      </g>
     </g>
     <g id="text_5">
      <!-- 40000 -->
      <g transform="translate(267.379165 177.030437)scale(0.1 -0.1)">
       <defs>
        <path id="DejaVuSans-34" d="M 2419 4116 
L 825 1625 
L 2419 1625 
L 2419 4116 
z
M 2253 4666 
L 3047 4666 
L 3047 1625 
L 3713 1625 
L 3713 1100 
L 3047 1100 
L 3047 0 
L 2419 0 
L 2419 1100 
L 313 1100 
L 313 1709 
L 2253 4666 
z
" transform="scale(0.015625)"/>
       </defs>
       <use xlink:href="#DejaVuSans-34"/>
       <use xlink:href="#DejaVuSans-30" x="63.623047"/>
       <use xlink:href="#DejaVuSans-30" x="127.246094"/>
       <use xlink:href="#DejaVuSans-30" x="190.869141"/>
       <use xlink:href="#DejaVuSans-30" x="254.492188"/>
      </g>
     </g>
    </g>
    <g id="xtick_6">
     <g id="line2d_6">
      <g>
       <use xlink:href="#mfc5c061561" x="335.649896" y="162.432" style="stroke: #000000; stroke-width: 0.8"/>
      </g>
     </g>
     <g id="text_6">
      <!-- 50000 -->
      <g transform="translate(319.743646 177.030437)scale(0.1 -0.1)">
       <defs>
        <path id="DejaVuSans-35" d="M 691 4666 
L 3169 4666 
L 3169 4134 
L 1269 4134 
L 1269 2991 
Q 1406 3038 1543 3061 
Q 1681 3084 1819 3084 
Q 2600 3084 3056 2656 
Q 3513 2228 3513 1497 
Q 3513 744 3044 326 
Q 2575 -91 1722 -91 
Q 1428 -91 1123 -41 
Q 819 9 494 109 
L 494 744 
Q 775 591 1075 516 
Q 1375 441 1709 441 
Q 2250 441 2565 725 
Q 2881 1009 2881 1497 
Q 2881 1984 2565 2268 
Q 2250 2553 1709 2553 
Q 1456 2553 1204 2497 
Q 953 2441 691 2322 
L 691 4666 
z
" transform="scale(0.015625)"/>
       </defs>
       <use xlink:href="#DejaVuSans-35"/>
       <use xlink:href="#DejaVuSans-30" x="63.623047"/>
       <use xlink:href="#DejaVuSans-30" x="127.246094"/>
       <use xlink:href="#DejaVuSans-30" x="190.869141"/>
       <use xlink:href="#DejaVuSans-30" x="254.492188"/>
      </g>
     </g>
    </g>
    <g id="xtick_7">
     <g id="line2d_7">
      <g>
       <use xlink:href="#mfc5c061561" x="388.014377" y="162.432" style="stroke: #000000; stroke-width: 0.8"/>
      </g>
     </g>
     <g id="text_7">
      <!-- 60000 -->
      <g transform="translate(372.108127 177.030437)scale(0.1 -0.1)">
       <defs>
        <path id="DejaVuSans-36" d="M 2113 2584 
Q 1688 2584 1439 2293 
Q 1191 2003 1191 1497 
Q 1191 994 1439 701 
Q 1688 409 2113 409 
Q 2538 409 2786 701 
Q 3034 994 3034 1497 
Q 3034 2003 2786 2293 
Q 2538 2584 2113 2584 
z
M 3366 4563 
L 3366 3988 
Q 3128 4100 2886 4159 
Q 2644 4219 2406 4219 
Q 1781 4219 1451 3797 
Q 1122 3375 1075 2522 
Q 1259 2794 1537 2939 
Q 1816 3084 2150 3084 
Q 2853 3084 3261 2657 
Q 3669 2231 3669 1497 
Q 3669 778 3244 343 
Q 2819 -91 2113 -91 
Q 1303 -91 875 529 
Q 447 1150 447 2328 
Q 447 3434 972 4092 
Q 1497 4750 2381 4750 
Q 2619 4750 2861 4703 
Q 3103 4656 3366 4563 
z
" transform="scale(0.015625)"/>
       </defs>
       <use xlink:href="#DejaVuSans-36"/>
       <use xlink:href="#DejaVuSans-30" x="63.623047"/>
       <use xlink:href="#DejaVuSans-30" x="127.246094"/>
       <use xlink:href="#DejaVuSans-30" x="190.869141"/>
       <use xlink:href="#DejaVuSans-30" x="254.492188"/>
      </g>
     </g>
    </g>
   </g>
   <g id="matplotlib.axis_2">
    <g id="ytick_1">
     <g id="line2d_8">
      <defs>
       <path id="mf1c39157bb" d="M 0 0 
L -3.5 0 
" style="stroke: #000000; stroke-width: 0.8"/>
      </defs>
      <g>
       <use xlink:href="#mf1c39157bb" x="57.6" y="148.37785" style="stroke: #000000; stroke-width: 0.8"/>
      </g>
     </g>
     <g id="text_8">
      <!-- 70 -->
      <g transform="translate(37.875 152.177069)scale(0.1 -0.1)">
       <defs>
        <path id="DejaVuSans-37" d="M 525 4666 
L 3525 4666 
L 3525 4397 
L 1831 0 
L 1172 0 
L 2766 4134 
L 525 4134 
L 525 4666 
z
" transform="scale(0.015625)"/>
       </defs>
       <use xlink:href="#DejaVuSans-37"/>
       <use xlink:href="#DejaVuSans-30" x="63.623047"/>
      </g>
     </g>
    </g>
    <g id="ytick_2">
     <g id="line2d_9">
      <g>
       <use xlink:href="#mf1c39157bb" x="57.6" y="119.209777" style="stroke: #000000; stroke-width: 0.8"/>
      </g>
     </g>
     <g id="text_9">
      <!-- 80 -->
      <g transform="translate(37.875 123.008995)scale(0.1 -0.1)">
       <defs>
        <path id="DejaVuSans-38" d="M 2034 2216 
Q 1584 2216 1326 1975 
Q 1069 1734 1069 1313 
Q 1069 891 1326 650 
Q 1584 409 2034 409 
Q 2484 409 2743 651 
Q 3003 894 3003 1313 
Q 3003 1734 2745 1975 
Q 2488 2216 2034 2216 
z
M 1403 2484 
Q 997 2584 770 2862 
Q 544 3141 544 3541 
Q 544 4100 942 4425 
Q 1341 4750 2034 4750 
Q 2731 4750 3128 4425 
Q 3525 4100 3525 3541 
Q 3525 3141 3298 2862 
Q 3072 2584 2669 2484 
Q 3125 2378 3379 2068 
Q 3634 1759 3634 1313 
Q 3634 634 3220 271 
Q 2806 -91 2034 -91 
Q 1263 -91 848 271 
Q 434 634 434 1313 
Q 434 1759 690 2068 
Q 947 2378 1403 2484 
z
M 1172 3481 
Q 1172 3119 1398 2916 
Q 1625 2713 2034 2713 
Q 2441 2713 2670 2916 
Q 2900 3119 2900 3481 
Q 2900 3844 2670 4047 
Q 2441 4250 2034 4250 
Q 1625 4250 1398 4047 
Q 1172 3844 1172 3481 
z
" transform="scale(0.015625)"/>
       </defs>
       <use xlink:href="#DejaVuSans-38"/>
       <use xlink:href="#DejaVuSans-30" x="63.623047"/>
      </g>
     </g>
    </g>
    <g id="ytick_3">
     <g id="line2d_10">
      <g>
       <use xlink:href="#mf1c39157bb" x="57.6" y="90.041703" style="stroke: #000000; stroke-width: 0.8"/>
      </g>
     </g>
     <g id="text_10">
      <!-- 90 -->
      <g transform="translate(37.875 93.840922)scale(0.1 -0.1)">
       <defs>
        <path id="DejaVuSans-39" d="M 703 97 
L 703 672 
Q 941 559 1184 500 
Q 1428 441 1663 441 
Q 2288 441 2617 861 
Q 2947 1281 2994 2138 
Q 2813 1869 2534 1725 
Q 2256 1581 1919 1581 
Q 1219 1581 811 2004 
Q 403 2428 403 3163 
Q 403 3881 828 4315 
Q 1253 4750 1959 4750 
Q 2769 4750 3195 4129 
Q 3622 3509 3622 2328 
Q 3622 1225 3098 567 
Q 2575 -91 1691 -91 
Q 1453 -91 1209 -44 
Q 966 3 703 97 
z
M 1959 2075 
Q 2384 2075 2632 2365 
Q 2881 2656 2881 3163 
Q 2881 3666 2632 3958 
Q 2384 4250 1959 4250 
Q 1534 4250 1286 3958 
Q 1038 3666 1038 3163 
Q 1038 2656 1286 2365 
Q 1534 2075 1959 2075 
z
" transform="scale(0.015625)"/>
       </defs>
       <use xlink:href="#DejaVuSans-39"/>
       <use xlink:href="#DejaVuSans-30" x="63.623047"/>
      </g>
     </g>
    </g>
    <g id="ytick_4">
     <g id="line2d_11">
      <g>
       <use xlink:href="#mf1c39157bb" x="57.6" y="60.87363" style="stroke: #000000; stroke-width: 0.8"/>
      </g>
     </g>
     <g id="text_11">
      <!-- 100 -->
      <g transform="translate(31.5125 64.672849)scale(0.1 -0.1)">
       <use xlink:href="#DejaVuSans-31"/>
       <use xlink:href="#DejaVuSans-30" x="63.623047"/>
       <use xlink:href="#DejaVuSans-30" x="127.246094"/>
      </g>
     </g>
    </g>
   </g>
   <g id="line2d_12">
    <path d="M 73.832727 63.790437 
L 73.853673 63.790437 
L 73.874619 62.818168 
L 73.921747 70.985229 
L 73.942693 70.985229 
L 74.073604 84.353929 
L 74.084077 84.353929 
L 74.125968 82.652458 
L 74.131205 85.569265 
L 74.199279 83.38166 
L 74.230697 83.38166 
L 74.345899 89.215275 
L 74.351136 88.243006 
L 74.356372 91.159813 
L 74.445392 91.159813 
L 74.518702 91.159813 
L 74.529175 90.187544 
L 74.534411 93.104351 
L 74.602485 93.104351 
L 74.722923 98.937966 
L 74.80147 98.937966 
L 74.927145 96.507293 
L 74.942854 96.507293 
L 75.047583 99.4241 
L 75.05282 98.694898 
L 75.571228 98.694898 
L 75.68643 97.722629 
L 75.728321 97.722629 
L 75.843523 96.993428 
L 75.963962 96.993428 
L 76.079164 99.910235 
L 76.115819 99.910235 
L 76.231021 102.827042 
L 76.382877 102.827042 
L 76.498079 105.74385 
L 76.618518 105.74385 
L 76.73372 108.660657 
L 78.529821 108.660657 
L 78.603131 107.931455 
L 78.608368 110.848262 
L 78.624077 110.848262 
L 79.922716 110.848262 
L 80.037918 113.76507 
L 80.168829 113.76507 
L 80.284031 113.035868 
L 81.090444 113.035868 
L 81.205646 115.952675 
L 84.090929 115.952675 
L 84.206131 118.869483 
L 84.389407 118.869483 
L 84.504608 121.78629 
L 101.716813 121.78629 
L 101.832015 121.057088 
L 106.413907 121.057088 
L 106.529109 123.973895 
L 108.26761 123.973895 
L 108.382812 126.890703 
L 110.105603 126.890703 
L 110.220805 126.161501 
L 117.729872 126.161501 
L 117.845074 125.189232 
L 117.970748 125.189232 
L 118.08595 128.106039 
L 126.579469 128.106039 
L 126.694671 127.376837 
L 130.14549 127.376837 
L 130.260692 130.293645 
L 132.15105 130.293645 
L 132.266252 129.321375 
L 232.104371 129.321375 
L 232.219573 128.349106 
L 241.817982 128.349106 
L 241.933184 127.862972 
L 255.924973 127.862972 
L 256.040175 130.779779 
L 304.393537 130.779779 
L 304.508739 130.050577 
L 329.737946 130.050577 
L 329.853148 132.967385 
L 398.487273 132.967385 
L 398.487273 132.967385 
" clip-path="url(#p380d164b57)" style="fill: none; stroke: #1f77b4; stroke-width: 1.5; stroke-linecap: square"/>
   </g>
   <g id="line2d_13">
    <path d="M 73.832727 60.290269 
L 73.837964 60.290269 
L 73.874619 59.561067 
L 73.890328 65.394681 
L 73.911274 65.394681 
L 73.942693 65.394681 
L 74.016003 61.505605 
L 74.052658 64.422412 
L 241.817982 64.422412 
L 241.933184 67.33922 
L 398.487273 67.33922 
L 398.487273 67.33922 
" clip-path="url(#p380d164b57)" style="fill: none; stroke: #ff7f0e; stroke-width: 1.5; stroke-linecap: square"/>
   </g>
   <g id="line2d_14">
    <path d="M 73.832727 60.87363 
L 73.953166 70.644935 
L 73.874619 58.686025 
L 73.958402 69.186531 
L 73.963638 69.186531 
L 74.09455 82.312164 
L 74.162624 82.312164 
L 74.173096 80.85376 
L 74.183569 86.687375 
L 74.272589 82.312164 
L 74.345899 82.312164 
L 74.351136 81.339895 
L 74.356372 84.256702 
L 74.450628 82.798299 
L 74.518702 82.798299 
L 74.529175 81.826029 
L 74.534411 84.742837 
L 74.628667 82.312164 
L 74.633904 82.312164 
L 74.717687 80.85376 
L 74.722923 83.770568 
L 74.738633 83.770568 
L 74.80147 83.770568 
L 74.848598 86.687375 
L 74.911436 84.985904 
L 74.942854 84.985904 
L 75.047583 83.5275 
L 75.131366 86.444308 
L 75.157549 84.985904 
L 75.340824 84.985904 
L 75.456026 87.902711 
L 75.571228 87.902711 
L 75.68643 86.930442 
L 75.691666 86.930442 
L 75.728321 85.958173 
L 75.733558 88.87498 
L 75.796395 87.902711 
L 75.963962 87.902711 
L 76.079164 90.819519 
L 76.115819 90.819519 
L 76.231021 89.361115 
L 76.262439 89.361115 
L 76.377641 87.902711 
L 76.382877 87.902711 
L 76.498079 90.819519 
L 76.618518 90.819519 
L 76.73372 93.736326 
L 78.603131 93.736326 
L 78.718333 96.653133 
L 79.215796 96.653133 
L 79.330998 95.19473 
L 79.922716 95.19473 
L 80.037918 93.736326 
L 81.059026 93.736326 
L 81.179464 99.569941 
L 82.420502 99.569941 
L 82.535704 102.486748 
L 84.090929 102.486748 
L 84.206131 101.028344 
L 84.38417 101.028344 
L 84.504608 98.111537 
L 84.750722 98.111537 
L 84.865923 101.028344 
L 93.448462 101.028344 
L 93.563664 99.569941 
L 101.716813 99.569941 
L 101.832015 98.840739 
L 106.413907 98.840739 
L 106.529109 101.757546 
L 108.26761 101.757546 
L 108.382812 100.299143 
L 117.970748 100.299143 
L 118.08595 103.21595 
L 123.270034 103.21595 
L 123.385236 106.132757 
L 130.14549 106.132757 
L 130.260692 104.674354 
L 132.15105 104.674354 
L 132.266252 103.702084 
L 132.868443 103.702084 
L 132.983645 106.618892 
L 232.104371 106.618892 
L 232.219573 105.646623 
L 241.817982 105.646623 
L 241.933184 105.160488 
L 255.924973 105.160488 
L 256.040175 108.077295 
L 258.281375 108.077295 
L 258.396577 106.618892 
L 280.876649 106.618892 
L 280.99185 109.535699 
L 292.731967 109.535699 
L 292.847169 108.56343 
L 304.393537 108.56343 
L 304.508739 111.480237 
L 329.737946 111.480237 
L 329.853148 110.021834 
L 398.487273 110.021834 
L 398.487273 110.021834 
" clip-path="url(#p380d164b57)" style="fill: none; stroke: #2ca02c; stroke-width: 1.5; stroke-linecap: square"/>
   </g>
   <g id="line2d_15">
    <path d="M 73.832727 60.290269 
L 73.974111 78.666155 
L 73.995057 77.693886 
L 74.021239 83.5275 
L 74.057895 82.798299 
L 74.068367 82.798299 
L 74.089313 85.715106 
L 74.178333 82.798299 
L 74.293535 81.826029 
L 74.555357 81.826029 
L 74.670559 84.742837 
L 74.80147 84.742837 
L 74.869544 84.013635 
L 74.87478 86.930442 
L 74.895726 86.930442 
L 75.047583 86.930442 
L 75.162785 86.20124 
L 75.340824 86.20124 
L 75.456026 85.228971 
L 75.691666 85.228971 
L 75.728321 88.145779 
L 75.801632 87.416577 
L 75.937779 87.416577 
L 76.052981 90.333384 
L 76.262439 90.333384 
L 76.377641 93.250191 
L 78.529821 93.250191 
L 78.550767 92.52099 
L 78.556003 95.437797 
L 78.624077 95.437797 
L 80.168829 95.437797 
L 80.284031 94.708595 
L 81.090444 94.708595 
L 81.205646 93.979393 
L 82.420502 93.979393 
L 82.535704 93.007124 
L 84.38417 93.007124 
L 84.499372 95.923932 
L 84.750722 95.923932 
L 84.865923 95.19473 
L 110.105603 95.19473 
L 110.220805 98.111537 
L 116.881567 98.111537 
L 116.996769 101.028344 
L 123.270034 101.028344 
L 123.385236 100.056075 
L 126.579469 100.056075 
L 126.694671 99.326873 
L 132.15105 99.326873 
L 132.266252 102.243681 
L 247.274361 102.243681 
L 247.389563 105.160488 
L 258.281375 105.160488 
L 258.396577 108.077295 
L 292.731967 108.077295 
L 292.847169 110.994103 
L 304.393537 110.994103 
L 304.508739 110.264901 
L 398.487273 110.264901 
L 398.487273 110.264901 
" clip-path="url(#p380d164b57)" style="fill: none; stroke: #d62728; stroke-width: 1.5; stroke-linecap: square"/>
   </g>
   <g id="line2d_16">
    <path d="M 73.832727 60.87363 
L 73.968875 75.457667 
L 73.989821 75.457667 
L 74.016003 71.56859 
L 74.073604 76.429936 
L 74.099786 75.457667 
L 74.225461 75.457667 
L 74.340663 73.999263 
L 74.345899 73.999263 
L 74.466337 71.56859 
L 74.518702 71.56859 
L 74.555357 70.596321 
L 74.560594 73.513129 
L 74.618194 73.513129 
L 74.633904 73.513129 
L 74.749106 72.054725 
L 74.848598 72.054725 
L 74.869544 71.082456 
L 74.87478 73.999263 
L 74.948091 73.999263 
L 75.131366 73.999263 
L 75.246568 72.540859 
L 75.571228 72.540859 
L 75.68643 71.56859 
L 75.937779 71.56859 
L 76.052981 70.110187 
L 76.262439 70.110187 
L 76.377641 68.651783 
L 78.550767 68.651783 
L 78.665969 71.56859 
L 79.215796 71.56859 
L 79.330998 70.110187 
L 84.38417 70.110187 
L 84.499372 68.651783 
L 93.448462 68.651783 
L 93.563664 67.193379 
L 110.105603 67.193379 
L 110.220805 70.110187 
L 116.881567 70.110187 
L 116.996769 73.026994 
L 132.15105 73.026994 
L 132.266252 72.054725 
L 232.104371 72.054725 
L 232.219573 71.082456 
L 241.817982 71.082456 
L 241.933184 73.999263 
L 258.281375 73.999263 
L 258.396577 72.540859 
L 398.487273 72.540859 
L 398.487273 72.540859 
" clip-path="url(#p380d164b57)" style="fill: none; stroke: #9467bd; stroke-width: 1.5; stroke-linecap: square"/>
   </g>
   <g id="line2d_17">
    <path d="M 73.832727 60.87363 
L 73.837964 60.87363 
L 73.958402 58.977705 
L 74.016003 58.977705 
L 74.131205 58.248503 
L 74.16786 58.248503 
L 74.283062 57.519302 
L 74.555357 57.519302 
L 74.670559 56.547033 
L 74.869544 56.547033 
L 74.984746 55.817831 
L 75.691666 55.817831 
L 75.812105 53.873293 
L 78.550767 53.873293 
L 78.665969 52.901023 
L 101.716813 52.901023 
L 101.832015 52.171822 
L 110.105603 52.171822 
L 110.220805 51.44262 
L 116.881567 51.44262 
L 116.996769 50.470351 
L 241.817982 50.470351 
L 241.933184 49.984216 
L 292.731967 49.984216 
L 292.847169 49.011947 
L 398.487273 49.011947 
L 398.487273 49.011947 
" clip-path="url(#p380d164b57)" style="fill: none; stroke: #8c564b; stroke-width: 1.5; stroke-linecap: square"/>
   </g>
   <g id="line2d_18">
    <path d="M 73.832727 63.790437 
L 73.968875 78.277247 
L 74.016003 75.36044 
L 74.07884 78.277247 
L 74.125968 78.277247 
L 74.16786 77.548045 
L 74.173096 80.464853 
L 74.220224 80.464853 
L 74.555357 80.464853 
L 74.670559 83.38166 
L 74.869544 83.38166 
L 74.984746 86.298467 
L 75.691666 86.298467 
L 75.812105 92.132082 
L 75.937779 92.132082 
L 76.052981 95.048889 
L 76.262439 95.048889 
L 76.377641 97.965697 
L 78.529821 97.965697 
L 78.550767 97.236495 
L 78.556003 100.153302 
L 78.624077 100.153302 
L 79.215796 100.153302 
L 79.330998 103.070109 
L 80.168829 103.070109 
L 80.284031 102.340908 
L 81.090444 102.340908 
L 81.205646 101.611706 
L 84.750722 101.611706 
L 84.865923 100.882504 
L 92.034621 100.882504 
L 92.149823 99.4241 
L 101.716813 99.4241 
L 101.832015 102.340908 
L 110.105603 102.340908 
L 110.220805 105.257715 
L 116.881567 105.257715 
L 116.996769 108.174522 
L 117.729872 108.174522 
L 117.845074 107.202253 
L 126.579469 107.202253 
L 126.694671 106.473051 
L 132.15105 106.473051 
L 132.266252 109.389859 
L 241.817982 109.389859 
L 241.933184 112.306666 
L 247.274361 112.306666 
L 247.389563 110.848262 
L 292.731967 110.848262 
L 292.847169 113.76507 
L 398.487273 113.76507 
L 398.487273 113.76507 
" clip-path="url(#p380d164b57)" style="fill: none; stroke: #e377c2; stroke-width: 1.5; stroke-linecap: square"/>
   </g>
   <g id="line2d_19">
    <path d="M 73.832727 60.290269 
L 73.953166 56.93594 
L 74.016003 56.93594 
L 74.131205 56.206738 
L 74.16786 56.206738 
L 74.283062 55.477537 
L 74.555357 55.477537 
L 74.670559 54.505267 
L 74.869544 54.505267 
L 74.984746 53.776066 
L 75.691666 53.776066 
L 75.812105 51.831527 
L 78.550767 51.831527 
L 78.665969 50.859258 
L 101.716813 50.859258 
L 101.832015 50.130056 
L 110.105603 50.130056 
L 110.220805 49.400855 
L 116.881567 49.400855 
L 116.996769 48.428585 
L 241.817982 48.428585 
L 241.933184 47.942451 
L 292.731967 47.942451 
L 292.847169 46.970182 
L 398.487273 46.970182 
L 398.487273 46.970182 
" clip-path="url(#p380d164b57)" style="fill: none; stroke: #7f7f7f; stroke-width: 1.5; stroke-linecap: square"/>
   </g>
   <g id="line2d_20">
    <path d="M 73.832727 60.290269 
L 73.963638 74.777078 
L 74.110259 67.48506 
L 74.125968 67.48506 
L 74.16786 66.755858 
L 74.173096 69.672666 
L 74.230697 67.971195 
L 74.351136 67.971195 
L 74.466337 66.512791 
L 74.529175 66.512791 
L 74.555357 65.054387 
L 74.560594 67.971195 
L 74.633904 67.971195 
L 74.717687 67.971195 
L 74.832889 65.783589 
L 74.869544 65.783589 
L 74.984746 68.700396 
L 75.047583 68.700396 
L 75.162785 67.971195 
L 75.340824 67.971195 
L 75.456026 66.998925 
L 75.691666 66.998925 
L 75.806868 72.103338 
L 75.937779 72.103338 
L 75.963962 75.020146 
L 76.047745 73.561742 
L 76.262439 73.561742 
L 76.377641 76.478549 
L 76.382877 76.478549 
L 76.498079 75.020146 
L 76.618518 75.020146 
L 76.73372 73.561742 
L 78.529821 73.561742 
L 78.550767 72.83254 
L 78.556003 75.749347 
L 78.63455 74.290944 
L 79.215796 74.290944 
L 79.330998 77.207751 
L 80.168829 77.207751 
L 80.284031 76.478549 
L 81.059026 76.478549 
L 81.174228 74.290944 
L 82.420502 74.290944 
L 82.535704 73.318675 
L 84.750722 73.318675 
L 84.865923 72.589473 
L 92.034621 72.589473 
L 92.149823 71.131069 
L 101.716813 71.131069 
L 101.832015 74.047877 
L 106.413907 74.047877 
L 106.529109 72.589473 
L 110.105603 72.589473 
L 110.220805 75.50628 
L 116.881567 75.50628 
L 116.996769 78.423088 
L 117.729872 78.423088 
L 117.845074 77.450818 
L 117.970748 77.450818 
L 118.08595 75.992415 
L 123.270034 75.992415 
L 123.385236 75.020146 
L 126.579469 75.020146 
L 126.694671 74.290944 
L 132.15105 74.290944 
L 132.266252 77.207751 
L 132.868443 77.207751 
L 132.983645 75.749347 
L 241.817982 75.749347 
L 241.933184 78.666155 
L 247.274361 78.666155 
L 247.389563 77.207751 
L 255.924973 77.207751 
L 256.040175 75.749347 
L 280.876649 75.749347 
L 280.99185 74.290944 
L 292.731967 74.290944 
L 292.847169 77.207751 
L 304.393537 77.207751 
L 304.508739 76.478549 
L 398.487273 76.478549 
L 398.487273 76.478549 
" clip-path="url(#p380d164b57)" style="fill: none; stroke: #bcbd22; stroke-width: 1.5; stroke-linecap: square"/>
   </g>
   <g id="line2d_21">
    <path d="M 73.832727 60.290269 
L 73.848437 60.290269 
L 74.000294 84.305316 
L 74.010767 84.305316 
L 74.057895 87.222123 
L 74.073604 83.333047 
L 74.120732 85.520652 
L 74.125968 85.520652 
L 74.25688 82.360777 
L 74.345899 82.360777 
L 74.461101 86.735988 
L 74.518702 86.735988 
L 74.529175 89.652796 
L 74.628667 86.735988 
L 74.633904 86.735988 
L 74.717687 89.652796 
L 74.743869 88.194392 
L 74.80147 88.194392 
L 74.848598 87.46519 
L 74.853835 90.381998 
L 74.895726 90.381998 
L 74.942854 90.381998 
L 75.058056 88.194392 
L 75.131366 88.194392 
L 75.246568 91.111199 
L 75.340824 91.111199 
L 75.456026 90.13893 
L 75.571228 90.13893 
L 75.68643 93.055738 
L 75.728321 93.055738 
L 75.843523 92.326536 
L 75.937779 92.326536 
L 75.963962 95.243343 
L 76.047745 93.784939 
L 76.115819 93.784939 
L 76.231021 92.326536 
L 76.262439 92.326536 
L 76.377641 95.243343 
L 76.382877 95.243343 
L 76.498079 93.784939 
L 76.618518 93.784939 
L 76.73372 92.326536 
L 78.529821 92.326536 
L 78.603131 95.243343 
L 78.639787 93.784939 
L 79.215796 93.784939 
L 79.330998 96.701747 
L 79.922716 96.701747 
L 80.037918 95.243343 
L 80.168829 95.243343 
L 80.284031 98.16015 
L 81.059026 98.16015 
L 81.174228 95.972545 
L 82.420502 95.972545 
L 82.535704 95.000276 
L 84.090929 95.000276 
L 84.206131 93.541872 
L 84.38417 93.541872 
L 84.389407 96.45868 
L 84.494136 95.000276 
L 84.750722 95.000276 
L 84.865923 94.271074 
L 92.034621 94.271074 
L 92.149823 97.187881 
L 93.448462 97.187881 
L 93.563664 100.104689 
L 101.716813 100.104689 
L 101.832015 103.021496 
L 106.413907 103.021496 
L 106.529109 101.563092 
L 108.26761 101.563092 
L 108.382812 100.104689 
L 117.729872 100.104689 
L 117.845074 103.021496 
L 117.970748 103.021496 
L 118.08595 101.563092 
L 123.270034 101.563092 
L 123.385236 100.590823 
L 126.579469 100.590823 
L 126.694671 103.507631 
L 130.14549 103.507631 
L 130.260692 102.049227 
L 132.15105 102.049227 
L 132.266252 104.966034 
L 132.868443 104.966034 
L 132.983645 103.507631 
L 232.104371 103.507631 
L 232.219573 106.424438 
L 241.817982 106.424438 
L 241.933184 105.938303 
L 247.274361 105.938303 
L 247.389563 108.855111 
L 255.924973 108.855111 
L 256.040175 107.396707 
L 258.281375 107.396707 
L 258.396577 110.313514 
L 280.876649 110.313514 
L 280.99185 108.855111 
L 304.393537 108.855111 
L 304.508739 108.125909 
L 329.737946 108.125909 
L 329.853148 106.667505 
L 398.487273 106.667505 
L 398.487273 106.667505 
" clip-path="url(#p380d164b57)" style="fill: none; stroke: #17becf; stroke-width: 1.5; stroke-linecap: square"/>
   </g>
   <g id="line2d_22">
    <path d="M 73.832727 60.87363 
L 73.837964 60.87363 
L 73.963638 69.624052 
L 74.016003 69.624052 
L 74.131205 72.540859 
L 74.16786 72.540859 
L 74.283062 75.457667 
L 74.555357 75.457667 
L 74.670559 78.374474 
L 74.869544 78.374474 
L 74.984746 81.291281 
L 75.691666 81.291281 
L 75.812105 87.124896 
L 78.550767 87.124896 
L 78.665969 90.041703 
L 101.716813 90.041703 
L 101.832015 92.958511 
L 110.105603 92.958511 
L 110.220805 95.875318 
L 116.881567 95.875318 
L 116.996769 98.792125 
L 241.817982 98.792125 
L 241.933184 101.708933 
L 292.731967 101.708933 
L 292.847169 104.62574 
L 398.487273 104.62574 
L 398.487273 104.62574 
" clip-path="url(#p380d164b57)" style="fill: none; stroke: #1f77b4; stroke-width: 1.5; stroke-linecap: square"/>
   </g>
   <g id="line2d_23">
    <path d="M 73.832727 63.790437 
L 73.837964 62.332034 
L 73.900801 73.415902 
L 73.906038 72.83254 
L 74.031712 83.770568 
L 74.042185 83.770568 
L 74.173096 97.382335 
L 74.225461 97.382335 
L 74.356372 109.049565 
L 74.429682 109.049565 
L 74.550121 114.883179 
L 74.602485 114.883179 
L 74.722923 120.716794 
L 74.848598 120.716794 
L 74.969037 126.550408 
L 75.131366 126.550408 
L 75.246568 129.467216 
L 75.571228 129.467216 
L 75.68643 132.384023 
L 75.75974 132.384023 
L 75.874942 135.30083 
L 75.937779 135.30083 
L 76.052981 133.842427 
L 76.115819 133.842427 
L 76.231021 136.759234 
L 78.550767 136.759234 
L 78.665969 135.786965 
L 79.922716 135.786965 
L 80.037918 138.703772 
L 84.090929 138.703772 
L 84.206131 141.62058 
L 84.389407 141.62058 
L 84.504608 144.537387 
L 93.448462 144.537387 
L 93.563664 147.454194 
L 108.26761 147.454194 
L 108.382812 150.371002 
L 110.105603 150.371002 
L 110.220805 149.6418 
L 116.881567 149.6418 
L 116.996769 148.669531 
L 130.14549 148.669531 
L 130.260692 151.586338 
L 232.104371 151.586338 
L 232.219573 154.503145 
L 241.817982 154.503145 
L 241.933184 154.017011 
L 329.737946 154.017011 
L 329.853148 156.933818 
L 398.487273 156.933818 
L 398.487273 156.933818 
" clip-path="url(#p380d164b57)" style="fill: none; stroke: #ff7f0e; stroke-width: 1.5; stroke-linecap: square"/>
   </g>
   <g id="patch_3">
    <path d="M 57.6 162.432 
L 57.6 41.472 
" style="fill: none; stroke: #000000; stroke-width: 0.8; stroke-linejoin: miter; stroke-linecap: square"/>
   </g>
   <g id="patch_4">
    <path d="M 414.72 162.432 
L 414.72 41.472 
" style="fill: none; stroke: #000000; stroke-width: 0.8; stroke-linejoin: miter; stroke-linecap: square"/>
   </g>
   <g id="patch_5">
    <path d="M 57.6 162.432 
L 414.72 162.432 
" style="fill: none; stroke: #000000; stroke-width: 0.8; stroke-linejoin: miter; stroke-linecap: square"/>
   </g>
   <g id="patch_6">
    <path d="M 57.6 41.472 
L 414.72 41.472 
" style="fill: none; stroke: #000000; stroke-width: 0.8; stroke-linejoin: miter; stroke-linecap: square"/>
   </g>
   <g id="text_12">
    <!-- WSP -->
    <g transform="translate(361.832136 132.967385)scale(0.08 -0.08)">
     <defs>
      <path id="DejaVuSans-57" d="M 213 4666 
L 850 4666 
L 1831 722 
L 2809 4666 
L 3519 4666 
L 4500 722 
L 5478 4666 
L 6119 4666 
L 4947 0 
L 4153 0 
L 3169 4050 
L 2175 0 
L 1381 0 
L 213 4666 
z
" transform="scale(0.015625)"/>
      <path id="DejaVuSans-53" d="M 3425 4513 
L 3425 3897 
Q 3066 4069 2747 4153 
Q 2428 4238 2131 4238 
Q 1616 4238 1336 4038 
Q 1056 3838 1056 3469 
Q 1056 3159 1242 3001 
Q 1428 2844 1947 2747 
L 2328 2669 
Q 3034 2534 3370 2195 
Q 3706 1856 3706 1288 
Q 3706 609 3251 259 
Q 2797 -91 1919 -91 
Q 1588 -91 1214 -16 
Q 841 59 441 206 
L 441 856 
Q 825 641 1194 531 
Q 1563 422 1919 422 
Q 2459 422 2753 634 
Q 3047 847 3047 1241 
Q 3047 1584 2836 1778 
Q 2625 1972 2144 2069 
L 1759 2144 
Q 1053 2284 737 2584 
Q 422 2884 422 3419 
Q 422 4038 858 4394 
Q 1294 4750 2059 4750 
Q 2388 4750 2728 4690 
Q 3069 4631 3425 4513 
z
" transform="scale(0.015625)"/>
      <path id="DejaVuSans-50" d="M 1259 4147 
L 1259 2394 
L 2053 2394 
Q 2494 2394 2734 2622 
Q 2975 2850 2975 3272 
Q 2975 3691 2734 3919 
Q 2494 4147 2053 4147 
L 1259 4147 
z
M 628 4666 
L 2053 4666 
Q 2838 4666 3239 4311 
Q 3641 3956 3641 3272 
Q 3641 2581 3239 2228 
Q 2838 1875 2053 1875 
L 1259 1875 
L 1259 0 
L 628 0 
L 628 4666 
z
" transform="scale(0.015625)"/>
     </defs>
     <use xlink:href="#DejaVuSans-57"/>
     <use xlink:href="#DejaVuSans-53" x="98.876953"/>
     <use xlink:href="#DejaVuSans-50" x="162.353516"/>
    </g>
   </g>
   <g id="text_13">
    <!-- Iambic -->
    <g transform="translate(361.832136 67.33922)scale(0.08 -0.08)">
     <defs>
      <path id="DejaVuSans-49" d="M 628 4666 
L 1259 4666 
L 1259 0 
L 628 0 
L 628 4666 
z
" transform="scale(0.015625)"/>
      <path id="DejaVuSans-61" d="M 2194 1759 
Q 1497 1759 1228 1600 
Q 959 1441 959 1056 
Q 959 750 1161 570 
Q 1363 391 1709 391 
Q 2188 391 2477 730 
Q 2766 1069 2766 1631 
L 2766 1759 
L 2194 1759 
z
M 3341 1997 
L 3341 0 
L 2766 0 
L 2766 531 
Q 2569 213 2275 61 
Q 1981 -91 1556 -91 
Q 1019 -91 701 211 
Q 384 513 384 1019 
Q 384 1609 779 1909 
Q 1175 2209 1959 2209 
L 2766 2209 
L 2766 2266 
Q 2766 2663 2505 2880 
Q 2244 3097 1772 3097 
Q 1472 3097 1187 3025 
Q 903 2953 641 2809 
L 641 3341 
Q 956 3463 1253 3523 
Q 1550 3584 1831 3584 
Q 2591 3584 2966 3190 
Q 3341 2797 3341 1997 
z
" transform="scale(0.015625)"/>
      <path id="DejaVuSans-6d" d="M 3328 2828 
Q 3544 3216 3844 3400 
Q 4144 3584 4550 3584 
Q 5097 3584 5394 3201 
Q 5691 2819 5691 2113 
L 5691 0 
L 5113 0 
L 5113 2094 
Q 5113 2597 4934 2840 
Q 4756 3084 4391 3084 
Q 3944 3084 3684 2787 
Q 3425 2491 3425 1978 
L 3425 0 
L 2847 0 
L 2847 2094 
Q 2847 2600 2669 2842 
Q 2491 3084 2119 3084 
Q 1678 3084 1418 2786 
Q 1159 2488 1159 1978 
L 1159 0 
L 581 0 
L 581 3500 
L 1159 3500 
L 1159 2956 
Q 1356 3278 1631 3431 
Q 1906 3584 2284 3584 
Q 2666 3584 2933 3390 
Q 3200 3197 3328 2828 
z
" transform="scale(0.015625)"/>
      <path id="DejaVuSans-62" d="M 3116 1747 
Q 3116 2381 2855 2742 
Q 2594 3103 2138 3103 
Q 1681 3103 1420 2742 
Q 1159 2381 1159 1747 
Q 1159 1113 1420 752 
Q 1681 391 2138 391 
Q 2594 391 2855 752 
Q 3116 1113 3116 1747 
z
M 1159 2969 
Q 1341 3281 1617 3432 
Q 1894 3584 2278 3584 
Q 2916 3584 3314 3078 
Q 3713 2572 3713 1747 
Q 3713 922 3314 415 
Q 2916 -91 2278 -91 
Q 1894 -91 1617 61 
Q 1341 213 1159 525 
L 1159 0 
L 581 0 
L 581 4863 
L 1159 4863 
L 1159 2969 
z
" transform="scale(0.015625)"/>
      <path id="DejaVuSans-69" d="M 603 3500 
L 1178 3500 
L 1178 0 
L 603 0 
L 603 3500 
z
M 603 4863 
L 1178 4863 
L 1178 4134 
L 603 4134 
L 603 4863 
z
" transform="scale(0.015625)"/>
      <path id="DejaVuSans-63" d="M 3122 3366 
L 3122 2828 
Q 2878 2963 2633 3030 
Q 2388 3097 2138 3097 
Q 1578 3097 1268 2742 
Q 959 2388 959 1747 
Q 959 1106 1268 751 
Q 1578 397 2138 397 
Q 2388 397 2633 464 
Q 2878 531 3122 666 
L 3122 134 
Q 2881 22 2623 -34 
Q 2366 -91 2075 -91 
Q 1284 -91 818 406 
Q 353 903 353 1747 
Q 353 2603 823 3093 
Q 1294 3584 2113 3584 
Q 2378 3584 2631 3529 
Q 2884 3475 3122 3366 
z
" transform="scale(0.015625)"/>
     </defs>
     <use xlink:href="#DejaVuSans-49"/>
     <use xlink:href="#DejaVuSans-61" x="29.492188"/>
     <use xlink:href="#DejaVuSans-6d" x="90.771484"/>
     <use xlink:href="#DejaVuSans-62" x="188.183594"/>
     <use xlink:href="#DejaVuSans-69" x="251.660156"/>
     <use xlink:href="#DejaVuSans-63" x="279.443359"/>
    </g>
   </g>
   <g id="text_14">
    <!-- Parse -->
    <g transform="translate(361.832136 110.021834)scale(0.08 -0.08)">
     <defs>
      <path id="DejaVuSans-72" d="M 2631 2963 
Q 2534 3019 2420 3045 
Q 2306 3072 2169 3072 
Q 1681 3072 1420 2755 
Q 1159 2438 1159 1844 
L 1159 0 
L 581 0 
L 581 3500 
L 1159 3500 
L 1159 2956 
Q 1341 3275 1631 3429 
Q 1922 3584 2338 3584 
Q 2397 3584 2469 3576 
Q 2541 3569 2628 3553 
L 2631 2963 
z
" transform="scale(0.015625)"/>
      <path id="DejaVuSans-73" d="M 2834 3397 
L 2834 2853 
Q 2591 2978 2328 3040 
Q 2066 3103 1784 3103 
Q 1356 3103 1142 2972 
Q 928 2841 928 2578 
Q 928 2378 1081 2264 
Q 1234 2150 1697 2047 
L 1894 2003 
Q 2506 1872 2764 1633 
Q 3022 1394 3022 966 
Q 3022 478 2636 193 
Q 2250 -91 1575 -91 
Q 1294 -91 989 -36 
Q 684 19 347 128 
L 347 722 
Q 666 556 975 473 
Q 1284 391 1588 391 
Q 1994 391 2212 530 
Q 2431 669 2431 922 
Q 2431 1156 2273 1281 
Q 2116 1406 1581 1522 
L 1381 1569 
Q 847 1681 609 1914 
Q 372 2147 372 2553 
Q 372 3047 722 3315 
Q 1072 3584 1716 3584 
Q 2034 3584 2315 3537 
Q 2597 3491 2834 3397 
z
" transform="scale(0.015625)"/>
      <path id="DejaVuSans-65" d="M 3597 1894 
L 3597 1613 
L 953 1613 
Q 991 1019 1311 708 
Q 1631 397 2203 397 
Q 2534 397 2845 478 
Q 3156 559 3463 722 
L 3463 178 
Q 3153 47 2828 -22 
Q 2503 -91 2169 -91 
Q 1331 -91 842 396 
Q 353 884 353 1716 
Q 353 2575 817 3079 
Q 1281 3584 2069 3584 
Q 2775 3584 3186 3129 
Q 3597 2675 3597 1894 
z
M 3022 2063 
Q 3016 2534 2758 2815 
Q 2500 3097 2075 3097 
Q 1594 3097 1305 2825 
Q 1016 2553 972 2059 
L 3022 2063 
z
" transform="scale(0.015625)"/>
     </defs>
     <use xlink:href="#DejaVuSans-50"/>
     <use xlink:href="#DejaVuSans-61" x="55.802734"/>
     <use xlink:href="#DejaVuSans-72" x="117.082031"/>
     <use xlink:href="#DejaVuSans-73" x="158.195312"/>
     <use xlink:href="#DejaVuSans-65" x="210.294922"/>
    </g>
   </g>
   <g id="text_15">
    <!-- FootBin -->
    <g transform="translate(361.832136 110.264901)scale(0.08 -0.08)">
     <defs>
      <path id="DejaVuSans-46" d="M 628 4666 
L 3309 4666 
L 3309 4134 
L 1259 4134 
L 1259 2759 
L 3109 2759 
L 3109 2228 
L 1259 2228 
L 1259 0 
L 628 0 
L 628 4666 
z
" transform="scale(0.015625)"/>
      <path id="DejaVuSans-6f" d="M 1959 3097 
Q 1497 3097 1228 2736 
Q 959 2375 959 1747 
Q 959 1119 1226 758 
Q 1494 397 1959 397 
Q 2419 397 2687 759 
Q 2956 1122 2956 1747 
Q 2956 2369 2687 2733 
Q 2419 3097 1959 3097 
z
M 1959 3584 
Q 2709 3584 3137 3096 
Q 3566 2609 3566 1747 
Q 3566 888 3137 398 
Q 2709 -91 1959 -91 
Q 1206 -91 779 398 
Q 353 888 353 1747 
Q 353 2609 779 3096 
Q 1206 3584 1959 3584 
z
" transform="scale(0.015625)"/>
      <path id="DejaVuSans-74" d="M 1172 4494 
L 1172 3500 
L 2356 3500 
L 2356 3053 
L 1172 3053 
L 1172 1153 
Q 1172 725 1289 603 
Q 1406 481 1766 481 
L 2356 481 
L 2356 0 
L 1766 0 
Q 1100 0 847 248 
Q 594 497 594 1153 
L 594 3053 
L 172 3053 
L 172 3500 
L 594 3500 
L 594 4494 
L 1172 4494 
z
" transform="scale(0.015625)"/>
      <path id="DejaVuSans-42" d="M 1259 2228 
L 1259 519 
L 2272 519 
Q 2781 519 3026 730 
Q 3272 941 3272 1375 
Q 3272 1813 3026 2020 
Q 2781 2228 2272 2228 
L 1259 2228 
z
M 1259 4147 
L 1259 2741 
L 2194 2741 
Q 2656 2741 2882 2914 
Q 3109 3088 3109 3444 
Q 3109 3797 2882 3972 
Q 2656 4147 2194 4147 
L 1259 4147 
z
M 628 4666 
L 2241 4666 
Q 2963 4666 3353 4366 
Q 3744 4066 3744 3513 
Q 3744 3084 3544 2831 
Q 3344 2578 2956 2516 
Q 3422 2416 3680 2098 
Q 3938 1781 3938 1306 
Q 3938 681 3513 340 
Q 3088 0 2303 0 
L 628 0 
L 628 4666 
z
" transform="scale(0.015625)"/>
      <path id="DejaVuSans-6e" d="M 3513 2113 
L 3513 0 
L 2938 0 
L 2938 2094 
Q 2938 2591 2744 2837 
Q 2550 3084 2163 3084 
Q 1697 3084 1428 2787 
Q 1159 2491 1159 1978 
L 1159 0 
L 581 0 
L 581 3500 
L 1159 3500 
L 1159 2956 
Q 1366 3272 1645 3428 
Q 1925 3584 2291 3584 
Q 2894 3584 3203 3211 
Q 3513 2838 3513 2113 
z
" transform="scale(0.015625)"/>
     </defs>
     <use xlink:href="#DejaVuSans-46"/>
     <use xlink:href="#DejaVuSans-6f" x="53.894531"/>
     <use xlink:href="#DejaVuSans-6f" x="115.076172"/>
     <use xlink:href="#DejaVuSans-74" x="176.257812"/>
     <use xlink:href="#DejaVuSans-42" x="215.466797"/>
     <use xlink:href="#DejaVuSans-69" x="284.070312"/>
     <use xlink:href="#DejaVuSans-6e" x="311.853516"/>
    </g>
   </g>
   <g id="text_16">
    <!-- WFL -->
    <g transform="translate(361.832136 72.540859)scale(0.08 -0.08)">
     <defs>
      <path id="DejaVuSans-4c" d="M 628 4666 
L 1259 4666 
L 1259 531 
L 3531 531 
L 3531 0 
L 628 0 
L 628 4666 
z
" transform="scale(0.015625)"/>
     </defs>
     <use xlink:href="#DejaVuSans-57"/>
     <use xlink:href="#DejaVuSans-46" x="98.876953"/>
     <use xlink:href="#DejaVuSans-4c" x="156.396484"/>
    </g>
   </g>
   <g id="text_17">
    <!-- WFR -->
    <g transform="translate(361.832136 49.011947)scale(0.08 -0.08)">
     <defs>
      <path id="DejaVuSans-52" d="M 2841 2188 
Q 3044 2119 3236 1894 
Q 3428 1669 3622 1275 
L 4263 0 
L 3584 0 
L 2988 1197 
Q 2756 1666 2539 1819 
Q 2322 1972 1947 1972 
L 1259 1972 
L 1259 0 
L 628 0 
L 628 4666 
L 2053 4666 
Q 2853 4666 3247 4331 
Q 3641 3997 3641 3322 
Q 3641 2881 3436 2590 
Q 3231 2300 2841 2188 
z
M 1259 4147 
L 1259 2491 
L 2053 2491 
Q 2509 2491 2742 2702 
Q 2975 2913 2975 3322 
Q 2975 3731 2742 3939 
Q 2509 4147 2053 4147 
L 1259 4147 
z
" transform="scale(0.015625)"/>
     </defs>
     <use xlink:href="#DejaVuSans-57"/>
     <use xlink:href="#DejaVuSans-46" x="98.876953"/>
     <use xlink:href="#DejaVuSans-52" x="156.396484"/>
    </g>
   </g>
   <g id="text_18">
    <!-- Main-L -->
    <g transform="translate(361.832136 113.76507)scale(0.08 -0.08)">
     <defs>
      <path id="DejaVuSans-4d" d="M 628 4666 
L 1569 4666 
L 2759 1491 
L 3956 4666 
L 4897 4666 
L 4897 0 
L 4281 0 
L 4281 4097 
L 3078 897 
L 2444 897 
L 1241 4097 
L 1241 0 
L 628 0 
L 628 4666 
z
" transform="scale(0.015625)"/>
      <path id="DejaVuSans-2d" d="M 313 2009 
L 1997 2009 
L 1997 1497 
L 313 1497 
L 313 2009 
z
" transform="scale(0.015625)"/>
     </defs>
     <use xlink:href="#DejaVuSans-4d"/>
     <use xlink:href="#DejaVuSans-61" x="86.279297"/>
     <use xlink:href="#DejaVuSans-69" x="147.558594"/>
     <use xlink:href="#DejaVuSans-6e" x="175.341797"/>
     <use xlink:href="#DejaVuSans-2d" x="238.720703"/>
     <use xlink:href="#DejaVuSans-4c" x="274.804688"/>
    </g>
   </g>
   <g id="text_19">
    <!-- Main-R -->
    <g transform="translate(361.832136 46.970182)scale(0.08 -0.08)">
     <use xlink:href="#DejaVuSans-4d"/>
     <use xlink:href="#DejaVuSans-61" x="86.279297"/>
     <use xlink:href="#DejaVuSans-69" x="147.558594"/>
     <use xlink:href="#DejaVuSans-6e" x="175.341797"/>
     <use xlink:href="#DejaVuSans-2d" x="238.720703"/>
     <use xlink:href="#DejaVuSans-52" x="274.804688"/>
    </g>
   </g>
   <g id="text_20">
    <!-- AFL -->
    <g transform="translate(361.832136 76.478549)scale(0.08 -0.08)">
     <defs>
      <path id="DejaVuSans-41" d="M 2188 4044 
L 1331 1722 
L 3047 1722 
L 2188 4044 
z
M 1831 4666 
L 2547 4666 
L 4325 0 
L 3669 0 
L 3244 1197 
L 1141 1197 
L 716 0 
L 50 0 
L 1831 4666 
z
" transform="scale(0.015625)"/>
     </defs>
     <use xlink:href="#DejaVuSans-41"/>
     <use xlink:href="#DejaVuSans-46" x="68.408203"/>
     <use xlink:href="#DejaVuSans-4c" x="125.927734"/>
    </g>
   </g>
   <g id="text_21">
    <!-- AFR -->
    <g transform="translate(361.832136 106.667505)scale(0.08 -0.08)">
     <use xlink:href="#DejaVuSans-41"/>
     <use xlink:href="#DejaVuSans-46" x="68.408203"/>
     <use xlink:href="#DejaVuSans-52" x="125.927734"/>
    </g>
   </g>
   <g id="text_22">
    <!-- Nonfinal -->
    <g transform="translate(361.832136 104.62574)scale(0.08 -0.08)">
     <defs>
      <path id="DejaVuSans-4e" d="M 628 4666 
L 1478 4666 
L 3547 763 
L 3547 4666 
L 4159 4666 
L 4159 0 
L 3309 0 
L 1241 3903 
L 1241 0 
L 628 0 
L 628 4666 
z
" transform="scale(0.015625)"/>
      <path id="DejaVuSans-66" d="M 2375 4863 
L 2375 4384 
L 1825 4384 
Q 1516 4384 1395 4259 
Q 1275 4134 1275 3809 
L 1275 3500 
L 2222 3500 
L 2222 3053 
L 1275 3053 
L 1275 0 
L 697 0 
L 697 3053 
L 147 3053 
L 147 3500 
L 697 3500 
L 697 3744 
Q 697 4328 969 4595 
Q 1241 4863 1831 4863 
L 2375 4863 
z
" transform="scale(0.015625)"/>
      <path id="DejaVuSans-6c" d="M 603 4863 
L 1178 4863 
L 1178 0 
L 603 0 
L 603 4863 
z
" transform="scale(0.015625)"/>
     </defs>
     <use xlink:href="#DejaVuSans-4e"/>
     <use xlink:href="#DejaVuSans-6f" x="74.804688"/>
     <use xlink:href="#DejaVuSans-6e" x="135.986328"/>
     <use xlink:href="#DejaVuSans-66" x="199.365234"/>
     <use xlink:href="#DejaVuSans-69" x="234.570312"/>
     <use xlink:href="#DejaVuSans-6e" x="262.353516"/>
     <use xlink:href="#DejaVuSans-61" x="325.732422"/>
     <use xlink:href="#DejaVuSans-6c" x="387.011719"/>
    </g>
   </g>
   <g id="text_23">
    <!-- Trochaic -->
    <g transform="translate(361.832136 156.933818)scale(0.08 -0.08)">
     <defs>
      <path id="DejaVuSans-54" d="M -19 4666 
L 3928 4666 
L 3928 4134 
L 2272 4134 
L 2272 0 
L 1638 0 
L 1638 4134 
L -19 4134 
L -19 4666 
z
" transform="scale(0.015625)"/>
      <path id="DejaVuSans-68" d="M 3513 2113 
L 3513 0 
L 2938 0 
L 2938 2094 
Q 2938 2591 2744 2837 
Q 2550 3084 2163 3084 
Q 1697 3084 1428 2787 
Q 1159 2491 1159 1978 
L 1159 0 
L 581 0 
L 581 4863 
L 1159 4863 
L 1159 2956 
Q 1366 3272 1645 3428 
Q 1925 3584 2291 3584 
Q 2894 3584 3203 3211 
Q 3513 2838 3513 2113 
z
" transform="scale(0.015625)"/>
     </defs>
     <use xlink:href="#DejaVuSans-54"/>
     <use xlink:href="#DejaVuSans-72" x="46.333984"/>
     <use xlink:href="#DejaVuSans-6f" x="85.197266"/>
     <use xlink:href="#DejaVuSans-63" x="146.378906"/>
     <use xlink:href="#DejaVuSans-68" x="201.359375"/>
     <use xlink:href="#DejaVuSans-61" x="264.738281"/>
     <use xlink:href="#DejaVuSans-69" x="326.017578"/>
     <use xlink:href="#DejaVuSans-63" x="353.800781"/>
    </g>
   </g>
  </g>
  <g id="axes_2">
   <g id="patch_7">
    <path d="M 57.6 307.584 
L 414.72 307.584 
L 414.72 186.624 
L 57.6 186.624 
z
" style="fill: #ffffff"/>
   </g>
   <g id="matplotlib.axis_3">
    <g id="xtick_8">
     <g id="line2d_24">
      <g>
       <use xlink:href="#mfc5c061561" x="70.64984" y="307.584" style="stroke: #000000; stroke-width: 0.8"/>
      </g>
     </g>
     <g id="text_24">
      <!-- 0 -->
      <g transform="translate(67.46859 322.182437)scale(0.1 -0.1)">
       <use xlink:href="#DejaVuSans-30"/>
      </g>
     </g>
    </g>
    <g id="xtick_9">
     <g id="line2d_25">
      <g>
       <use xlink:href="#mfc5c061561" x="134.307594" y="307.584" style="stroke: #000000; stroke-width: 0.8"/>
      </g>
     </g>
     <g id="text_25">
      <!-- 20 -->
      <g transform="translate(127.945094 322.182437)scale(0.1 -0.1)">
       <use xlink:href="#DejaVuSans-32"/>
       <use xlink:href="#DejaVuSans-30" x="63.623047"/>
      </g>
     </g>
    </g>
    <g id="xtick_10">
     <g id="line2d_26">
      <g>
       <use xlink:href="#mfc5c061561" x="197.965348" y="307.584" style="stroke: #000000; stroke-width: 0.8"/>
      </g>
     </g>
     <g id="text_26">
      <!-- 40 -->
      <g transform="translate(191.602848 322.182437)scale(0.1 -0.1)">
       <use xlink:href="#DejaVuSans-34"/>
       <use xlink:href="#DejaVuSans-30" x="63.623047"/>
      </g>
     </g>
    </g>
    <g id="xtick_11">
     <g id="line2d_27">
      <g>
       <use xlink:href="#mfc5c061561" x="261.623102" y="307.584" style="stroke: #000000; stroke-width: 0.8"/>
      </g>
     </g>
     <g id="text_27">
      <!-- 60 -->
      <g transform="translate(255.260602 322.182437)scale(0.1 -0.1)">
       <use xlink:href="#DejaVuSans-36"/>
       <use xlink:href="#DejaVuSans-30" x="63.623047"/>
      </g>
     </g>
    </g>
    <g id="xtick_12">
     <g id="line2d_28">
      <g>
       <use xlink:href="#mfc5c061561" x="325.280856" y="307.584" style="stroke: #000000; stroke-width: 0.8"/>
      </g>
     </g>
     <g id="text_28">
      <!-- 80 -->
      <g transform="translate(318.918356 322.182437)scale(0.1 -0.1)">
       <use xlink:href="#DejaVuSans-38"/>
       <use xlink:href="#DejaVuSans-30" x="63.623047"/>
      </g>
     </g>
    </g>
    <g id="xtick_13">
     <g id="line2d_29">
      <g>
       <use xlink:href="#mfc5c061561" x="388.93861" y="307.584" style="stroke: #000000; stroke-width: 0.8"/>
      </g>
     </g>
     <g id="text_29">
      <!-- 100 -->
      <g transform="translate(379.39486 322.182437)scale(0.1 -0.1)">
       <use xlink:href="#DejaVuSans-31"/>
       <use xlink:href="#DejaVuSans-30" x="63.623047"/>
       <use xlink:href="#DejaVuSans-30" x="127.246094"/>
      </g>
     </g>
    </g>
   </g>
   <g id="matplotlib.axis_4">
    <g id="ytick_5">
     <g id="line2d_30">
      <g>
       <use xlink:href="#mf1c39157bb" x="57.6" y="302.091621" style="stroke: #000000; stroke-width: 0.8"/>
      </g>
     </g>
     <g id="text_30">
      <!-- 0 -->
      <g transform="translate(44.2375 305.89084)scale(0.1 -0.1)">
       <use xlink:href="#DejaVuSans-30"/>
      </g>
     </g>
    </g>
    <g id="ytick_6">
     <g id="line2d_31">
      <g>
       <use xlink:href="#mf1c39157bb" x="57.6" y="273.077469" style="stroke: #000000; stroke-width: 0.8"/>
      </g>
     </g>
     <g id="text_31">
      <!-- 5000 -->
      <g transform="translate(25.15 276.876688)scale(0.1 -0.1)">
       <use xlink:href="#DejaVuSans-35"/>
       <use xlink:href="#DejaVuSans-30" x="63.623047"/>
       <use xlink:href="#DejaVuSans-30" x="127.246094"/>
       <use xlink:href="#DejaVuSans-30" x="190.869141"/>
      </g>
     </g>
    </g>
    <g id="ytick_7">
     <g id="line2d_32">
      <g>
       <use xlink:href="#mf1c39157bb" x="57.6" y="244.063317" style="stroke: #000000; stroke-width: 0.8"/>
      </g>
     </g>
     <g id="text_32">
      <!-- 10000 -->
      <g transform="translate(18.7875 247.862536)scale(0.1 -0.1)">
       <use xlink:href="#DejaVuSans-31"/>
       <use xlink:href="#DejaVuSans-30" x="63.623047"/>
       <use xlink:href="#DejaVuSans-30" x="127.246094"/>
       <use xlink:href="#DejaVuSans-30" x="190.869141"/>
       <use xlink:href="#DejaVuSans-30" x="254.492188"/>
      </g>
     </g>
    </g>
    <g id="ytick_8">
     <g id="line2d_33">
      <g>
       <use xlink:href="#mf1c39157bb" x="57.6" y="215.049165" style="stroke: #000000; stroke-width: 0.8"/>
      </g>
     </g>
     <g id="text_33">
      <!-- 15000 -->
      <g transform="translate(18.7875 218.848384)scale(0.1 -0.1)">
       <use xlink:href="#DejaVuSans-31"/>
       <use xlink:href="#DejaVuSans-35" x="63.623047"/>
       <use xlink:href="#DejaVuSans-30" x="127.246094"/>
       <use xlink:href="#DejaVuSans-30" x="190.869141"/>
       <use xlink:href="#DejaVuSans-30" x="254.492188"/>
      </g>
     </g>
    </g>
   </g>
   <g id="line2d_34">
    <path d="M 73.832727 302.085818 
L 77.015615 302.085818 
L 80.198503 302.080015 
L 83.38139 302.085818 
L 86.564278 302.074213 
L 89.747166 302.085818 
L 92.930053 302.085818 
L 96.112941 302.085818 
L 99.295829 302.085818 
L 102.478717 302.085818 
L 105.661604 302.085818 
L 108.844492 302.085818 
L 112.02738 302.085818 
L 115.210267 302.085818 
L 118.393155 302.080015 
L 121.576043 302.074213 
L 124.75893 302.080015 
L 127.941818 302.080015 
L 131.124706 302.085818 
L 134.307594 302.085818 
L 137.490481 302.080015 
L 140.673369 302.085818 
L 143.856257 302.085818 
L 147.039144 302.074213 
L 150.222032 302.085818 
L 153.40492 302.080015 
L 156.587807 302.080015 
L 159.770695 302.085818 
L 162.953583 302.074213 
L 166.136471 302.085818 
L 169.319358 302.085818 
L 172.502246 302.074213 
L 175.685134 302.085818 
L 178.868021 302.051001 
L 182.050909 302.051001 
L 185.233797 302.085818 
L 188.416684 302.085818 
L 191.599572 302.085818 
L 194.78246 302.039396 
L 197.965348 302.085818 
L 201.148235 302.085818 
L 204.331123 301.969762 
L 207.514011 302.085818 
L 210.696898 302.004579 
L 213.879786 301.992973 
L 217.062674 302.080015 
L 220.245561 302.062607 
L 223.428449 302.039396 
L 226.611337 302.056804 
L 229.794225 301.998776 
L 232.977112 301.998776 
L 236.16 302.039396 
L 239.342888 302.06841 
L 242.525775 302.010381 
L 245.708663 301.975564 
L 248.891551 301.998776 
L 252.074439 301.859508 
L 255.257326 301.836296 
L 258.440214 301.958156 
L 261.623102 302.051001 
L 264.805989 302.056804 
L 267.988877 301.894325 
L 271.171765 302.062607 
L 274.354652 301.923339 
L 277.53754 301.929142 
L 280.720428 301.958156 
L 283.903316 301.830494 
L 287.086203 299.973588 
L 290.269091 302.06841 
L 293.451979 302.033593 
L 296.634866 301.41269 
L 299.817754 301.308239 
L 303.000642 301.818888 
L 306.183529 301.10514 
L 309.366417 302.056804 
L 312.549305 300.617702 
L 315.732193 300.240518 
L 318.91508 301.766663 
L 322.097968 302.085818 
L 325.280856 301.691226 
L 328.463743 294.019884 
L 331.646631 300.524857 
L 334.829519 292.928952 
L 338.012406 296.886482 
L 341.195294 300.037419 
L 344.378182 300.054828 
L 347.56107 294.582758 
L 350.743957 301.151562 
L 353.926845 301.824691 
L 357.109733 296.219157 
L 360.29262 298.424232 
L 363.475508 298.139893 
L 366.658396 299.869137 
L 369.841283 301.296633 
L 373.024171 192.122182 
L 376.207059 291.327371 
L 379.389947 296.045072 
L 382.572834 292.505345 
L 385.755722 299.480347 
L 388.93861 277.052408 
L 392.121497 288.954013 
L 395.304385 289.168718 
L 398.487273 274.005922 
" clip-path="url(#p21ab3b0562)" style="fill: none; stroke: #1f77b4; stroke-width: 1.5; stroke-linecap: square"/>
   </g>
   <g id="patch_8">
    <path d="M 57.6 307.584 
L 57.6 186.624 
" style="fill: none; stroke: #000000; stroke-width: 0.8; stroke-linejoin: miter; stroke-linecap: square"/>
   </g>
   <g id="patch_9">
    <path d="M 414.72 307.584 
L 414.72 186.624 
" style="fill: none; stroke: #000000; stroke-width: 0.8; stroke-linejoin: miter; stroke-linecap: square"/>
   </g>
   <g id="patch_10">
    <path d="M 57.6 307.584 
L 414.72 307.584 
" style="fill: none; stroke: #000000; stroke-width: 0.8; stroke-linejoin: miter; stroke-linecap: square"/>
   </g>
   <g id="patch_11">
    <path d="M 57.6 186.624 
L 414.72 186.624 
" style="fill: none; stroke: #000000; stroke-width: 0.8; stroke-linejoin: miter; stroke-linecap: square"/>
   </g>
  </g>
 </g>
 <defs>
  <clipPath id="p380d164b57">
   <rect x="57.6" y="41.472" width="357.12" height="120.96"/>
  </clipPath>
  <clipPath id="p21ab3b0562">
   <rect x="57.6" y="186.624" width="357.12" height="120.96"/>
  </clipPath>
 </defs>
</svg>
