<?xml version="1.0" encoding="utf-8" standalone="no"?>
<!DOCTYPE svg PUBLIC "-//W3C//DTD SVG 1.1//EN"
  "http://www.w3.org/Graphics/SVG/1.1/DTD/svg11.dtd">
<svg xmlns:xlink="http://www.w3.org/1999/xlink" width="460.8pt" height="345.6pt" viewBox="0 0 460.8 345.6" xmlns="http://www.w3.org/2000/svg" version="1.1">
 <metadata>
  <rdf:RDF xmlns:dc="http://purl.org/dc/elements/1.1/" xmlns:cc="http://creativecommons.org/ns#" xmlns:rdf="http://www.w3.org/1999/02/22-rdf-syntax-ns#">
   <cc:Work>
    <dc:type rdf:resource="http://purl.org/dc/dcmitype/StillImage"/>
    <dc:date>2022-05-14T00:34:13.277580</dc:date>
    <dc:format>image/svg+xml</dc:format>
    <dc:creator>
     <cc:Agent>
      <dc:title>Matplotlib v3.5.1, https://matplotlib.org/</dc:title>
     </cc:Agent>
    </dc:creator>
   </cc:Work>
  </rdf:RDF>
 </metadata>
 <defs>
  <style type="text/css">*{stroke-linejoin: round; stroke-linecap: butt}</style>
 </defs>
 <g id="figure_1">
  <g id="patch_1">
   <path d="M 0 345.6 
L 460.8 345.6 
L 460.8 0 
L 0 0 
z
" style="fill: #ffffff"/>
  </g>
  <g id="axes_1">
   <g id="patch_2">
    <path d="M 57.6 162.432 
L 414.72 162.432 
L 414.72 41.472 
L 57.6 41.472 
z
" style="fill: #ffffff"/>
   </g>
   <g id="matplotlib.axis_1">
    <g id="xtick_1">
     <g id="line2d_1">
      <defs>
       <path id="mfb79fa1e7e" d="M 0 0 
L 0 3.5 
" style="stroke: #000000; stroke-width: 0.8"/>
      </defs>
      <g>
       <use xlink:href="#mfb79fa1e7e" x="73.827491" y="162.432" style="stroke: #000000; stroke-width: 0.8"/>
      </g>
     </g>
     <g id="text_1">
      <!-- 0 -->
      <g transform="translate(70.646241 177.030437)scale(0.1 -0.1)">
       <defs>
        <path id="DejaVuSans-30" d="M 2034 4250 
Q 1547 4250 1301 3770 
Q 1056 3291 1056 2328 
Q 1056 1369 1301 889 
Q 1547 409 2034 409 
Q 2525 409 2770 889 
Q 3016 1369 3016 2328 
Q 3016 3291 2770 3770 
Q 2525 4250 2034 4250 
z
M 2034 4750 
Q 2819 4750 3233 4129 
Q 3647 3509 3647 2328 
Q 3647 1150 3233 529 
Q 2819 -91 2034 -91 
Q 1250 -91 836 529 
Q 422 1150 422 2328 
Q 422 3509 836 4129 
Q 1250 4750 2034 4750 
z
" transform="scale(0.015625)"/>
       </defs>
       <use xlink:href="#DejaVuSans-30"/>
      </g>
     </g>
    </g>
    <g id="xtick_2">
     <g id="line2d_2">
      <g>
       <use xlink:href="#mfb79fa1e7e" x="126.191972" y="162.432" style="stroke: #000000; stroke-width: 0.8"/>
      </g>
     </g>
     <g id="text_2">
      <!-- 10000 -->
      <g transform="translate(110.285722 177.030437)scale(0.1 -0.1)">
       <defs>
        <path id="DejaVuSans-31" d="M 794 531 
L 1825 531 
L 1825 4091 
L 703 3866 
L 703 4441 
L 1819 4666 
L 2450 4666 
L 2450 531 
L 3481 531 
L 3481 0 
L 794 0 
L 794 531 
z
" transform="scale(0.015625)"/>
       </defs>
       <use xlink:href="#DejaVuSans-31"/>
       <use xlink:href="#DejaVuSans-30" x="63.623047"/>
       <use xlink:href="#DejaVuSans-30" x="127.246094"/>
       <use xlink:href="#DejaVuSans-30" x="190.869141"/>
       <use xlink:href="#DejaVuSans-30" x="254.492188"/>
      </g>
     </g>
    </g>
    <g id="xtick_3">
     <g id="line2d_3">
      <g>
       <use xlink:href="#mfb79fa1e7e" x="178.556453" y="162.432" style="stroke: #000000; stroke-width: 0.8"/>
      </g>
     </g>
     <g id="text_3">
      <!-- 20000 -->
      <g transform="translate(162.650203 177.030437)scale(0.1 -0.1)">
       <defs>
        <path id="DejaVuSans-32" d="M 1228 531 
L 3431 531 
L 3431 0 
L 469 0 
L 469 531 
Q 828 903 1448 1529 
Q 2069 2156 2228 2338 
Q 2531 2678 2651 2914 
Q 2772 3150 2772 3378 
Q 2772 3750 2511 3984 
Q 2250 4219 1831 4219 
Q 1534 4219 1204 4116 
Q 875 4013 500 3803 
L 500 4441 
Q 881 4594 1212 4672 
Q 1544 4750 1819 4750 
Q 2544 4750 2975 4387 
Q 3406 4025 3406 3419 
Q 3406 3131 3298 2873 
Q 3191 2616 2906 2266 
Q 2828 2175 2409 1742 
Q 1991 1309 1228 531 
z
" transform="scale(0.015625)"/>
       </defs>
       <use xlink:href="#DejaVuSans-32"/>
       <use xlink:href="#DejaVuSans-30" x="63.623047"/>
       <use xlink:href="#DejaVuSans-30" x="127.246094"/>
       <use xlink:href="#DejaVuSans-30" x="190.869141"/>
       <use xlink:href="#DejaVuSans-30" x="254.492188"/>
      </g>
     </g>
    </g>
    <g id="xtick_4">
     <g id="line2d_4">
      <g>
       <use xlink:href="#mfb79fa1e7e" x="230.920934" y="162.432" style="stroke: #000000; stroke-width: 0.8"/>
      </g>
     </g>
     <g id="text_4">
      <!-- 30000 -->
      <g transform="translate(215.014684 177.030437)scale(0.1 -0.1)">
       <defs>
        <path id="DejaVuSans-33" d="M 2597 2516 
Q 3050 2419 3304 2112 
Q 3559 1806 3559 1356 
Q 3559 666 3084 287 
Q 2609 -91 1734 -91 
Q 1441 -91 1130 -33 
Q 819 25 488 141 
L 488 750 
Q 750 597 1062 519 
Q 1375 441 1716 441 
Q 2309 441 2620 675 
Q 2931 909 2931 1356 
Q 2931 1769 2642 2001 
Q 2353 2234 1838 2234 
L 1294 2234 
L 1294 2753 
L 1863 2753 
Q 2328 2753 2575 2939 
Q 2822 3125 2822 3475 
Q 2822 3834 2567 4026 
Q 2313 4219 1838 4219 
Q 1578 4219 1281 4162 
Q 984 4106 628 3988 
L 628 4550 
Q 988 4650 1302 4700 
Q 1616 4750 1894 4750 
Q 2613 4750 3031 4423 
Q 3450 4097 3450 3541 
Q 3450 3153 3228 2886 
Q 3006 2619 2597 2516 
z
" transform="scale(0.015625)"/>
       </defs>
       <use xlink:href="#DejaVuSans-33"/>
       <use xlink:href="#DejaVuSans-30" x="63.623047"/>
       <use xlink:href="#DejaVuSans-30" x="127.246094"/>
       <use xlink:href="#DejaVuSans-30" x="190.869141"/>
       <use xlink:href="#DejaVuSans-30" x="254.492188"/>
      </g>
     </g>
    </g>
    <g id="xtick_5">
     <g id="line2d_5">
      <g>
       <use xlink:href="#mfb79fa1e7e" x="283.285415" y="162.432" style="stroke: #000000; stroke-width: 0.8"/>
      </g>
     </g>
     <g id="text_5">
      <!-- 40000 -->
      <g transform="translate(267.379165 177.030437)scale(0.1 -0.1)">
       <defs>
        <path id="DejaVuSans-34" d="M 2419 4116 
L 825 1625 
L 2419 1625 
L 2419 4116 
z
M 2253 4666 
L 3047 4666 
L 3047 1625 
L 3713 1625 
L 3713 1100 
L 3047 1100 
L 3047 0 
L 2419 0 
L 2419 1100 
L 313 1100 
L 313 1709 
L 2253 4666 
z
" transform="scale(0.015625)"/>
       </defs>
       <use xlink:href="#DejaVuSans-34"/>
       <use xlink:href="#DejaVuSans-30" x="63.623047"/>
       <use xlink:href="#DejaVuSans-30" x="127.246094"/>
       <use xlink:href="#DejaVuSans-30" x="190.869141"/>
       <use xlink:href="#DejaVuSans-30" x="254.492188"/>
      </g>
     </g>
    </g>
    <g id="xtick_6">
     <g id="line2d_6">
      <g>
       <use xlink:href="#mfb79fa1e7e" x="335.649896" y="162.432" style="stroke: #000000; stroke-width: 0.8"/>
      </g>
     </g>
     <g id="text_6">
      <!-- 50000 -->
      <g transform="translate(319.743646 177.030437)scale(0.1 -0.1)">
       <defs>
        <path id="DejaVuSans-35" d="M 691 4666 
L 3169 4666 
L 3169 4134 
L 1269 4134 
L 1269 2991 
Q 1406 3038 1543 3061 
Q 1681 3084 1819 3084 
Q 2600 3084 3056 2656 
Q 3513 2228 3513 1497 
Q 3513 744 3044 326 
Q 2575 -91 1722 -91 
Q 1428 -91 1123 -41 
Q 819 9 494 109 
L 494 744 
Q 775 591 1075 516 
Q 1375 441 1709 441 
Q 2250 441 2565 725 
Q 2881 1009 2881 1497 
Q 2881 1984 2565 2268 
Q 2250 2553 1709 2553 
Q 1456 2553 1204 2497 
Q 953 2441 691 2322 
L 691 4666 
z
" transform="scale(0.015625)"/>
       </defs>
       <use xlink:href="#DejaVuSans-35"/>
       <use xlink:href="#DejaVuSans-30" x="63.623047"/>
       <use xlink:href="#DejaVuSans-30" x="127.246094"/>
       <use xlink:href="#DejaVuSans-30" x="190.869141"/>
       <use xlink:href="#DejaVuSans-30" x="254.492188"/>
      </g>
     </g>
    </g>
    <g id="xtick_7">
     <g id="line2d_7">
      <g>
       <use xlink:href="#mfb79fa1e7e" x="388.014377" y="162.432" style="stroke: #000000; stroke-width: 0.8"/>
      </g>
     </g>
     <g id="text_7">
      <!-- 60000 -->
      <g transform="translate(372.108127 177.030437)scale(0.1 -0.1)">
       <defs>
        <path id="DejaVuSans-36" d="M 2113 2584 
Q 1688 2584 1439 2293 
Q 1191 2003 1191 1497 
Q 1191 994 1439 701 
Q 1688 409 2113 409 
Q 2538 409 2786 701 
Q 3034 994 3034 1497 
Q 3034 2003 2786 2293 
Q 2538 2584 2113 2584 
z
M 3366 4563 
L 3366 3988 
Q 3128 4100 2886 4159 
Q 2644 4219 2406 4219 
Q 1781 4219 1451 3797 
Q 1122 3375 1075 2522 
Q 1259 2794 1537 2939 
Q 1816 3084 2150 3084 
Q 2853 3084 3261 2657 
Q 3669 2231 3669 1497 
Q 3669 778 3244 343 
Q 2819 -91 2113 -91 
Q 1303 -91 875 529 
Q 447 1150 447 2328 
Q 447 3434 972 4092 
Q 1497 4750 2381 4750 
Q 2619 4750 2861 4703 
Q 3103 4656 3366 4563 
z
" transform="scale(0.015625)"/>
       </defs>
       <use xlink:href="#DejaVuSans-36"/>
       <use xlink:href="#DejaVuSans-30" x="63.623047"/>
       <use xlink:href="#DejaVuSans-30" x="127.246094"/>
       <use xlink:href="#DejaVuSans-30" x="190.869141"/>
       <use xlink:href="#DejaVuSans-30" x="254.492188"/>
      </g>
     </g>
    </g>
   </g>
   <g id="matplotlib.axis_2">
    <g id="ytick_1">
     <g id="line2d_8">
      <defs>
       <path id="m4594727de3" d="M 0 0 
L -3.5 0 
" style="stroke: #000000; stroke-width: 0.8"/>
      </defs>
      <g>
       <use xlink:href="#m4594727de3" x="57.6" y="140.257744" style="stroke: #000000; stroke-width: 0.8"/>
      </g>
     </g>
     <g id="text_8">
      <!-- 80 -->
      <g transform="translate(37.875 144.056962)scale(0.1 -0.1)">
       <defs>
        <path id="DejaVuSans-38" d="M 2034 2216 
Q 1584 2216 1326 1975 
Q 1069 1734 1069 1313 
Q 1069 891 1326 650 
Q 1584 409 2034 409 
Q 2484 409 2743 651 
Q 3003 894 3003 1313 
Q 3003 1734 2745 1975 
Q 2488 2216 2034 2216 
z
M 1403 2484 
Q 997 2584 770 2862 
Q 544 3141 544 3541 
Q 544 4100 942 4425 
Q 1341 4750 2034 4750 
Q 2731 4750 3128 4425 
Q 3525 4100 3525 3541 
Q 3525 3141 3298 2862 
Q 3072 2584 2669 2484 
Q 3125 2378 3379 2068 
Q 3634 1759 3634 1313 
Q 3634 634 3220 271 
Q 2806 -91 2034 -91 
Q 1263 -91 848 271 
Q 434 634 434 1313 
Q 434 1759 690 2068 
Q 947 2378 1403 2484 
z
M 1172 3481 
Q 1172 3119 1398 2916 
Q 1625 2713 2034 2713 
Q 2441 2713 2670 2916 
Q 2900 3119 2900 3481 
Q 2900 3844 2670 4047 
Q 2441 4250 2034 4250 
Q 1625 4250 1398 4047 
Q 1172 3844 1172 3481 
z
" transform="scale(0.015625)"/>
       </defs>
       <use xlink:href="#DejaVuSans-38"/>
       <use xlink:href="#DejaVuSans-30" x="63.623047"/>
      </g>
     </g>
    </g>
    <g id="ytick_2">
     <g id="line2d_9">
      <g>
       <use xlink:href="#m4594727de3" x="57.6" y="103.336545" style="stroke: #000000; stroke-width: 0.8"/>
      </g>
     </g>
     <g id="text_9">
      <!-- 90 -->
      <g transform="translate(37.875 107.135764)scale(0.1 -0.1)">
       <defs>
        <path id="DejaVuSans-39" d="M 703 97 
L 703 672 
Q 941 559 1184 500 
Q 1428 441 1663 441 
Q 2288 441 2617 861 
Q 2947 1281 2994 2138 
Q 2813 1869 2534 1725 
Q 2256 1581 1919 1581 
Q 1219 1581 811 2004 
Q 403 2428 403 3163 
Q 403 3881 828 4315 
Q 1253 4750 1959 4750 
Q 2769 4750 3195 4129 
Q 3622 3509 3622 2328 
Q 3622 1225 3098 567 
Q 2575 -91 1691 -91 
Q 1453 -91 1209 -44 
Q 966 3 703 97 
z
M 1959 2075 
Q 2384 2075 2632 2365 
Q 2881 2656 2881 3163 
Q 2881 3666 2632 3958 
Q 2384 4250 1959 4250 
Q 1534 4250 1286 3958 
Q 1038 3666 1038 3163 
Q 1038 2656 1286 2365 
Q 1534 2075 1959 2075 
z
" transform="scale(0.015625)"/>
       </defs>
       <use xlink:href="#DejaVuSans-39"/>
       <use xlink:href="#DejaVuSans-30" x="63.623047"/>
      </g>
     </g>
    </g>
    <g id="ytick_3">
     <g id="line2d_10">
      <g>
       <use xlink:href="#m4594727de3" x="57.6" y="66.415346" style="stroke: #000000; stroke-width: 0.8"/>
      </g>
     </g>
     <g id="text_10">
      <!-- 100 -->
      <g transform="translate(31.5125 70.214565)scale(0.1 -0.1)">
       <use xlink:href="#DejaVuSans-31"/>
       <use xlink:href="#DejaVuSans-30" x="63.623047"/>
       <use xlink:href="#DejaVuSans-30" x="127.246094"/>
      </g>
     </g>
    </g>
   </g>
   <g id="line2d_11">
    <path d="M 73.832727 65.18464 
L 73.837964 65.18464 
L 73.947929 80.753078 
L 73.968875 79.522372 
L 73.974111 79.522372 
L 74.105023 93.552427 
L 74.136441 93.552427 
L 74.251643 97.244547 
L 74.387791 97.244547 
L 74.502993 103.705757 
L 74.555357 103.705757 
L 74.660086 102.782727 
L 74.775288 106.474847 
L 75.010928 106.474847 
L 75.12613 110.166967 
L 75.298933 110.166967 
L 75.419371 116.935853 
L 75.83305 116.935853 
L 75.927307 115.705146 
L 75.932543 119.397266 
L 76.01109 119.397266 
L 76.126292 123.089386 
L 76.309567 123.089386 
L 76.424769 122.166356 
L 76.749429 122.166356 
L 76.801793 121.243326 
L 76.80703 124.935446 
L 76.843685 124.935446 
L 77.623916 124.935446 
L 77.739118 124.012416 
L 77.760063 124.012416 
L 77.875265 123.089386 
L 78.377964 123.089386 
L 78.493166 122.166356 
L 79.477618 122.166356 
L 79.540456 125.858476 
L 79.587584 124.627769 
L 80.247376 124.627769 
L 80.362578 128.319889 
L 81.127099 128.319889 
L 81.242301 127.396859 
L 82.855127 127.396859 
L 82.975566 134.781099 
L 85.248184 134.781099 
L 85.363386 134.165746 
L 86.709153 134.165746 
L 86.824355 137.857866 
L 87.641241 137.857866 
L 87.756443 141.549985 
L 105.958336 141.549985 
L 106.073538 145.242105 
L 119.803505 145.242105 
L 119.923943 143.396045 
L 122.662606 143.396045 
L 122.777808 147.088165 
L 131.910173 147.088165 
L 132.025375 145.857459 
L 151.630637 145.857459 
L 151.745838 149.549578 
L 174.555806 149.549578 
L 174.671008 153.241698 
L 233.434429 153.241698 
L 233.549631 156.933818 
L 243.640266 156.933818 
L 243.755468 156.010788 
L 398.487273 156.010788 
L 398.487273 156.010788 
" clip-path="url(#p2894791527)" style="fill: none; stroke: #1f77b4; stroke-width: 1.5; stroke-linecap: square"/>
   </g>
   <g id="line2d_12">
    <path d="M 73.832727 65.18464 
L 73.890328 65.18464 
L 74.00553 64.26161 
L 74.010767 64.26161 
L 74.016003 67.95373 
L 74.120732 66.10767 
L 75.335588 66.10767 
L 75.456026 73.491909 
L 85.248184 73.491909 
L 85.363386 77.184029 
L 119.803505 77.184029 
L 119.918707 80.876149 
L 388.606095 80.876149 
L 388.721297 84.568269 
L 398.487273 84.568269 
L 398.487273 84.568269 
" clip-path="url(#p2894791527)" style="fill: none; stroke: #ff7f0e; stroke-width: 1.5; stroke-linecap: square"/>
   </g>
   <g id="line2d_13">
    <path d="M 73.832727 66.415346 
L 73.85891 63.646256 
L 73.895565 77.184029 
L 73.900801 76.260999 
L 73.947929 86.598935 
L 74.021239 83.399098 
L 74.036949 83.399098 
L 74.057895 80.322331 
L 74.099786 89.552631 
L 74.120732 89.552631 
L 74.136441 88.814207 
L 74.141678 92.506327 
L 74.209752 92.506327 
L 74.230697 92.506327 
L 74.345899 91.27562 
L 74.372081 91.27562 
L 74.429682 94.96774 
L 74.482047 93.12168 
L 74.555357 93.12168 
L 74.660086 96.8138 
L 74.665323 94.96774 
L 74.743869 94.96774 
L 74.859071 98.65986 
L 75.298933 98.65986 
L 75.403662 95.275417 
L 75.408898 98.967536 
L 75.927307 98.967536 
L 76.042508 102.659656 
L 76.089636 102.659656 
L 76.204838 101.42895 
L 76.309567 101.42895 
L 76.424769 100.50592 
L 76.801793 100.50592 
L 76.88034 104.19804 
L 76.911759 102.35198 
L 77.04267 102.35198 
L 77.084562 100.50592 
L 77.089798 104.19804 
L 77.147399 104.19804 
L 77.623916 104.19804 
L 77.739118 103.27501 
L 77.760063 103.27501 
L 77.875265 106.967129 
L 78.016649 106.967129 
L 78.079487 105.12107 
L 78.084723 108.813189 
L 78.121378 108.813189 
L 78.199925 108.813189 
L 78.315127 105.736423 
L 78.377964 105.736423 
L 78.493166 109.428543 
L 79.477618 109.428543 
L 79.59282 107.582483 
L 80.247376 107.582483 
L 80.362578 105.736423 
L 80.493489 105.736423 
L 80.608691 109.428543 
L 81.127099 109.428543 
L 81.242301 108.505513 
L 81.388922 108.505513 
L 81.504124 112.197633 
L 81.551252 112.197633 
L 81.666454 110.966926 
L 82.949383 110.966926 
L 83.064585 114.659046 
L 85.248184 114.659046 
L 85.363386 114.043693 
L 85.907977 114.043693 
L 86.023178 112.197633 
L 86.520641 112.197633 
L 86.635843 115.889752 
L 86.709153 115.889752 
L 86.824355 114.043693 
L 105.958336 114.043693 
L 106.073538 112.197633 
L 119.803505 112.197633 
L 119.850633 111.274603 
L 119.85587 114.966722 
L 119.897761 114.966722 
L 122.662606 114.966722 
L 122.777808 118.658842 
L 151.421179 118.658842 
L 151.536381 116.812782 
L 151.630637 116.812782 
L 151.745838 120.504902 
L 155.835504 120.504902 
L 155.950706 119.274196 
L 166.339819 119.274196 
L 166.455021 122.966316 
L 174.555806 122.966316 
L 174.671008 126.658435 
L 233.434429 126.658435 
L 233.549631 124.812375 
L 239.927624 124.812375 
L 240.042826 123.581669 
L 243.640266 123.581669 
L 243.755468 127.273789 
L 388.606095 127.273789 
L 388.721297 126.535365 
L 398.487273 126.535365 
L 398.487273 126.535365 
" clip-path="url(#p2894791527)" style="fill: none; stroke: #2ca02c; stroke-width: 1.5; stroke-linecap: square"/>
   </g>
   <g id="line2d_14">
    <path d="M 73.832727 66.415346 
L 73.837964 66.415346 
L 73.958402 75.337969 
L 74.016003 75.337969 
L 74.063131 82.722209 
L 74.131205 80.753078 
L 74.136441 80.753078 
L 74.25688 88.137318 
L 74.387791 88.137318 
L 74.502993 94.598528 
L 74.555357 94.598528 
L 74.670559 93.675498 
L 74.743869 93.675498 
L 74.859071 97.367618 
L 75.403662 97.367618 
L 75.518864 101.059738 
L 75.906361 101.059738 
L 76.026799 108.443977 
L 76.089636 108.443977 
L 76.204838 107.213271 
L 76.665646 107.213271 
L 76.786084 114.597511 
L 77.04267 114.597511 
L 77.084562 118.28963 
L 77.152635 117.058924 
L 77.623916 117.058924 
L 77.739118 116.135894 
L 77.760063 116.135894 
L 77.875265 115.212864 
L 78.079487 115.212864 
L 78.194689 113.982157 
L 78.252289 113.982157 
L 78.367491 112.751451 
L 78.377964 112.751451 
L 78.493166 111.828421 
L 80.493489 111.828421 
L 80.608691 110.597714 
L 81.388922 110.597714 
L 81.504124 109.367007 
L 87.641241 109.367007 
L 87.756443 113.059127 
L 90.118081 113.059127 
L 90.233283 116.751247 
L 117.782236 116.751247 
L 117.897438 120.443367 
L 119.803505 120.443367 
L 119.850633 124.135487 
L 119.913471 123.212457 
L 151.421179 123.212457 
L 151.536381 126.904577 
L 155.835504 126.904577 
L 155.950706 125.67387 
L 239.927624 125.67387 
L 240.042826 129.36599 
L 243.640266 129.36599 
L 243.755468 128.44296 
L 388.606095 128.44296 
L 388.721297 132.13508 
L 398.487273 132.13508 
L 398.487273 132.13508 
" clip-path="url(#p2894791527)" style="fill: none; stroke: #d62728; stroke-width: 1.5; stroke-linecap: square"/>
   </g>
   <g id="line2d_15">
    <path d="M 73.832727 66.415346 
L 73.953166 61.369449 
L 74.010767 61.369449 
L 74.047422 65.061569 
L 74.120732 61.369449 
L 74.429682 61.369449 
L 74.544884 59.523389 
L 75.335588 59.523389 
L 75.456026 66.907629 
L 76.309567 66.907629 
L 76.424769 70.599749 
L 76.749429 70.599749 
L 76.864631 74.291869 
L 77.04267 74.291869 
L 77.157872 72.445809 
L 78.016649 72.445809 
L 78.131851 70.599749 
L 78.199925 70.599749 
L 78.315127 68.753689 
L 85.248184 68.753689 
L 85.363386 72.445809 
L 85.907977 72.445809 
L 86.023178 70.599749 
L 117.782236 70.599749 
L 117.897438 74.291869 
L 119.803505 74.291869 
L 119.918707 73.368839 
L 151.421179 73.368839 
L 151.536381 71.522779 
L 388.606095 71.522779 
L 388.721297 75.214899 
L 398.487273 75.214899 
L 398.487273 75.214899 
" clip-path="url(#p2894791527)" style="fill: none; stroke: #9467bd; stroke-width: 1.5; stroke-linecap: square"/>
   </g>
   <g id="line2d_16">
    <path d="M 73.832727 66.415346 
L 73.837964 66.415346 
L 73.963638 63.33858 
L 74.010767 63.33858 
L 74.136441 60.631025 
L 74.230697 60.631025 
L 74.345899 59.400319 
L 75.335588 59.400319 
L 75.456026 57.861935 
L 76.309567 57.861935 
L 76.424769 56.938905 
L 76.749429 56.938905 
L 76.864631 56.015875 
L 81.127099 56.015875 
L 81.242301 55.092846 
L 81.551252 55.092846 
L 81.666454 53.862139 
L 85.248184 53.862139 
L 85.363386 53.246786 
L 117.782236 53.246786 
L 117.897438 52.016079 
L 239.927624 52.016079 
L 240.042826 50.785372 
L 388.606095 50.785372 
L 388.721297 50.046948 
L 398.487273 50.046948 
L 398.487273 50.046948 
" clip-path="url(#p2894791527)" style="fill: none; stroke: #8c564b; stroke-width: 1.5; stroke-linecap: square"/>
   </g>
   <g id="line2d_17">
    <path d="M 73.832727 70.107466 
L 73.968875 88.444995 
L 73.974111 88.444995 
L 74.010767 87.214288 
L 74.042185 98.290648 
L 74.063131 98.290648 
L 74.136441 97.059941 
L 74.141678 100.752061 
L 74.162624 100.752061 
L 74.230697 100.752061 
L 74.293535 104.444181 
L 74.340663 102.598121 
L 74.387791 102.598121 
L 74.429682 98.598324 
L 74.497756 102.290444 
L 74.743869 102.290444 
L 74.859071 105.982564 
L 74.895726 105.982564 
L 75.016165 102.290444 
L 75.335588 102.290444 
L 75.461263 113.366804 
L 75.83305 113.366804 
L 75.927307 110.290037 
L 75.932543 113.982157 
L 75.937779 113.982157 
L 76.01109 113.982157 
L 76.126292 112.136097 
L 76.309567 112.136097 
L 76.424769 115.828217 
L 76.665646 115.828217 
L 76.749429 113.982157 
L 76.754665 117.674277 
L 76.770375 117.674277 
L 77.04267 117.674277 
L 77.157872 121.366397 
L 78.016649 121.366397 
L 78.137088 128.750637 
L 78.859717 128.750637 
L 78.974919 126.904577 
L 79.540456 126.904577 
L 79.655658 125.67387 
L 81.127099 125.67387 
L 81.242301 129.36599 
L 81.551252 129.36599 
L 81.666454 133.05811 
L 82.855127 133.05811 
L 82.970329 131.21205 
L 85.248184 131.21205 
L 85.363386 134.90417 
L 86.520641 134.90417 
L 86.635843 138.59629 
L 87.641241 138.59629 
L 87.756443 136.75023 
L 90.118081 136.75023 
L 90.233283 134.90417 
L 117.782236 134.90417 
L 117.897438 138.59629 
L 119.803505 138.59629 
L 119.918707 142.288409 
L 122.08136 142.288409 
L 122.196562 140.442349 
L 131.910173 140.442349 
L 132.025375 139.211643 
L 151.421179 139.211643 
L 151.536381 142.903763 
L 239.927624 142.903763 
L 240.042826 146.595883 
L 247.462873 146.595883 
L 247.578075 144.749823 
L 388.606095 144.749823 
L 388.721297 148.441943 
L 398.487273 148.441943 
L 398.487273 148.441943 
" clip-path="url(#p2894791527)" style="fill: none; stroke: #e377c2; stroke-width: 1.5; stroke-linecap: square"/>
   </g>
   <g id="line2d_18">
    <path d="M 73.832727 65.18464 
L 73.837964 65.18464 
L 73.974111 60.261813 
L 74.010767 60.261813 
L 74.136441 57.554259 
L 74.230697 57.554259 
L 74.345899 56.323552 
L 75.335588 56.323552 
L 75.456026 54.785169 
L 76.309567 54.785169 
L 76.424769 53.862139 
L 76.749429 53.862139 
L 76.864631 52.939109 
L 81.127099 52.939109 
L 81.242301 52.016079 
L 81.551252 52.016079 
L 81.666454 50.785372 
L 85.248184 50.785372 
L 85.363386 50.170019 
L 117.782236 50.170019 
L 117.897438 48.939312 
L 239.927624 48.939312 
L 240.042826 47.708606 
L 388.606095 47.708606 
L 388.721297 46.970182 
L 398.487273 46.970182 
L 398.487273 46.970182 
" clip-path="url(#p2894791527)" style="fill: none; stroke: #7f7f7f; stroke-width: 1.5; stroke-linecap: square"/>
   </g>
   <g id="line2d_19">
    <path d="M 73.832727 66.415346 
L 73.85891 73.799586 
L 73.947929 69.984396 
L 73.953166 69.984396 
L 74.057895 83.522168 
L 74.07884 80.445402 
L 74.204515 76.137929 
L 74.230697 76.137929 
L 74.293535 79.830049 
L 74.340663 77.983989 
L 74.372081 77.983989 
L 74.429682 72.753485 
L 74.487283 76.445605 
L 74.555357 76.445605 
L 74.670559 75.522575 
L 74.895726 75.522575 
L 75.016165 71.830456 
L 75.335588 71.830456 
L 75.456026 79.214695 
L 75.83305 79.214695 
L 75.953489 76.137929 
L 76.01109 76.137929 
L 76.126292 74.291869 
L 76.309567 74.291869 
L 76.424769 77.983989 
L 76.665646 77.983989 
L 76.749429 76.137929 
L 76.754665 79.830049 
L 76.770375 79.830049 
L 76.801793 79.830049 
L 76.916995 77.983989 
L 77.04267 77.983989 
L 77.084562 81.676108 
L 77.152635 80.445402 
L 77.760063 80.445402 
L 77.875265 79.522372 
L 78.016649 79.522372 
L 78.131851 83.214492 
L 78.377964 83.214492 
L 78.493166 82.291462 
L 78.859717 82.291462 
L 78.974919 80.445402 
L 79.540456 80.445402 
L 79.655658 79.214695 
L 80.493489 79.214695 
L 80.608691 77.983989 
L 81.127099 77.983989 
L 81.242301 81.676108 
L 81.388922 81.676108 
L 81.504124 80.445402 
L 81.551252 80.445402 
L 81.666454 84.137522 
L 82.855127 84.137522 
L 82.975566 80.445402 
L 85.248184 80.445402 
L 85.363386 84.137522 
L 87.641241 84.137522 
L 87.756443 82.291462 
L 90.118081 82.291462 
L 90.233283 80.445402 
L 117.782236 80.445402 
L 117.897438 84.137522 
L 119.803505 84.137522 
L 119.850633 87.829642 
L 119.913471 86.906612 
L 122.08136 86.906612 
L 122.196562 85.060552 
L 122.662606 85.060552 
L 122.777808 83.214492 
L 131.910173 83.214492 
L 132.025375 81.983785 
L 151.421179 81.983785 
L 151.536381 85.675905 
L 151.630637 85.675905 
L 151.745838 83.829845 
L 166.339819 83.829845 
L 166.455021 81.983785 
L 174.555806 81.983785 
L 174.671008 80.137725 
L 239.927624 80.137725 
L 240.042826 83.829845 
L 243.640266 83.829845 
L 243.755468 82.906815 
L 247.462873 82.906815 
L 247.578075 81.060755 
L 388.606095 81.060755 
L 388.721297 84.752875 
L 398.487273 84.752875 
L 398.487273 84.752875 
" clip-path="url(#p2894791527)" style="fill: none; stroke: #bcbd22; stroke-width: 1.5; stroke-linecap: square"/>
   </g>
   <g id="line2d_20">
    <path d="M 73.832727 66.415346 
L 73.874619 65.18464 
L 73.958402 79.030089 
L 73.974111 79.030089 
L 74.047422 75.214899 
L 74.068367 80.753078 
L 74.073604 80.753078 
L 74.07884 80.753078 
L 74.089313 83.214492 
L 74.194042 79.399301 
L 74.293535 79.399301 
L 74.413973 89.244954 
L 74.424446 89.244954 
L 74.429682 88.014248 
L 74.434919 91.706367 
L 74.523938 91.706367 
L 74.555357 91.706367 
L 74.681032 88.937278 
L 74.743869 88.937278 
L 74.859071 87.091218 
L 74.895726 87.091218 
L 75.016165 94.475457 
L 75.298933 94.475457 
L 75.424607 89.244954 
L 75.83305 89.244954 
L 75.927307 96.629194 
L 75.948252 94.783134 
L 76.01109 94.783134 
L 76.089636 98.475254 
L 76.121055 97.244547 
L 76.665646 97.244547 
L 76.780848 100.936667 
L 76.801793 100.936667 
L 76.922232 97.244547 
L 77.04267 97.244547 
L 77.084562 100.936667 
L 77.152635 99.70596 
L 77.623916 99.70596 
L 77.739118 98.78293 
L 77.760063 98.78293 
L 77.875265 97.8599 
L 78.016649 97.8599 
L 78.079487 101.55202 
L 78.126615 100.321314 
L 78.199925 100.321314 
L 78.252289 104.013434 
L 78.30989 102.782727 
L 78.377964 102.782727 
L 78.493166 101.859697 
L 78.859717 101.859697 
L 78.974919 105.551817 
L 79.477618 105.551817 
L 79.540456 103.705757 
L 79.545692 107.397877 
L 79.582347 107.397877 
L 80.247376 107.397877 
L 80.362578 105.551817 
L 80.493489 105.551817 
L 80.608691 104.32111 
L 81.388922 104.32111 
L 81.504124 103.090404 
L 82.855127 103.090404 
L 82.949383 106.782523 
L 82.965093 104.936464 
L 85.248184 104.936464 
L 85.363386 104.32111 
L 85.907977 104.32111 
L 86.023178 108.01323 
L 86.520641 108.01323 
L 86.635843 106.16717 
L 86.709153 106.16717 
L 86.824355 104.32111 
L 87.641241 104.32111 
L 87.756443 108.01323 
L 90.118081 108.01323 
L 90.233283 111.70535 
L 105.958336 111.70535 
L 106.073538 109.85929 
L 119.803505 109.85929 
L 119.850633 113.55141 
L 119.913471 112.62838 
L 122.08136 112.62838 
L 122.196562 116.3205 
L 122.662606 116.3205 
L 122.777808 114.47444 
L 131.910173 114.47444 
L 132.025375 118.16656 
L 151.421179 118.16656 
L 151.536381 121.85868 
L 151.630637 121.85868 
L 151.745838 120.01262 
L 155.835504 120.01262 
L 155.950706 118.781913 
L 166.339819 118.781913 
L 166.455021 116.935853 
L 174.555806 116.935853 
L 174.671008 115.089793 
L 233.434429 115.089793 
L 233.549631 113.243733 
L 243.640266 113.243733 
L 243.755468 112.320703 
L 247.462873 112.320703 
L 247.578075 116.012823 
L 388.606095 116.012823 
L 388.721297 115.274399 
L 398.487273 115.274399 
L 398.487273 115.274399 
" clip-path="url(#p2894791527)" style="fill: none; stroke: #17becf; stroke-width: 1.5; stroke-linecap: square"/>
   </g>
   <g id="line2d_21">
    <path d="M 73.832727 66.415346 
L 73.837964 66.415346 
L 73.963638 77.491706 
L 74.010767 77.491706 
L 74.136441 88.568066 
L 74.230697 88.568066 
L 74.345899 92.260185 
L 75.335588 92.260185 
L 75.456026 99.644425 
L 76.309567 99.644425 
L 76.424769 103.336545 
L 76.749429 103.336545 
L 76.864631 107.028665 
L 81.127099 107.028665 
L 81.242301 110.720785 
L 81.551252 110.720785 
L 81.666454 114.412905 
L 85.248184 114.412905 
L 85.363386 118.105024 
L 117.782236 118.105024 
L 117.897438 121.797144 
L 239.927624 121.797144 
L 240.042826 125.489264 
L 388.606095 125.489264 
L 388.721297 129.181384 
L 398.487273 129.181384 
L 398.487273 129.181384 
" clip-path="url(#p2894791527)" style="fill: none; stroke: #1f77b4; stroke-width: 1.5; stroke-linecap: square"/>
   </g>
   <g id="line2d_22">
    <path d="M 73.832727 70.107466 
L 73.837964 70.107466 
L 73.984584 97.183012 
L 74.016003 97.183012 
L 74.136441 110.720785 
L 74.141678 109.490078 
L 74.372081 109.490078 
L 74.424446 108.259371 
L 74.429682 111.951491 
L 74.471574 111.951491 
L 74.660086 111.951491 
L 74.743869 115.643611 
L 74.770051 113.797551 
L 75.298933 113.797551 
L 75.335588 117.489671 
L 75.408898 115.028258 
L 75.927307 115.028258 
L 76.042508 113.182198 
L 76.089636 113.182198 
L 76.204838 116.874318 
L 76.749429 116.874318 
L 76.864631 115.951288 
L 76.88034 115.951288 
L 76.995542 119.643408 
L 77.623916 119.643408 
L 77.739118 123.335527 
L 78.079487 123.335527 
L 78.194689 122.104821 
L 78.199925 122.104821 
L 78.320363 129.489061 
L 79.477618 129.489061 
L 79.59282 133.18118 
L 80.247376 133.18118 
L 80.362578 136.8733 
L 81.551252 136.8733 
L 81.666454 140.56542 
L 85.248184 140.56542 
L 85.363386 139.950067 
L 85.907977 139.950067 
L 86.023178 143.642187 
L 86.520641 143.642187 
L 86.635843 141.796127 
L 86.709153 141.796127 
L 86.824355 145.488247 
L 105.958336 145.488247 
L 106.073538 149.180366 
L 117.782236 149.180366 
L 117.897438 147.94966 
L 119.803505 147.94966 
L 119.918707 147.02663 
L 155.835504 147.02663 
L 155.950706 150.71875 
L 233.434429 150.71875 
L 233.549631 154.41087 
L 388.606095 154.41087 
L 388.721297 153.672446 
L 398.487273 153.672446 
L 398.487273 153.672446 
" clip-path="url(#p2894791527)" style="fill: none; stroke: #ff7f0e; stroke-width: 1.5; stroke-linecap: square"/>
   </g>
   <g id="patch_3">
    <path d="M 57.6 162.432 
L 57.6 41.472 
" style="fill: none; stroke: #000000; stroke-width: 0.8; stroke-linejoin: miter; stroke-linecap: square"/>
   </g>
   <g id="patch_4">
    <path d="M 414.72 162.432 
L 414.72 41.472 
" style="fill: none; stroke: #000000; stroke-width: 0.8; stroke-linejoin: miter; stroke-linecap: square"/>
   </g>
   <g id="patch_5">
    <path d="M 57.6 162.432 
L 414.72 162.432 
" style="fill: none; stroke: #000000; stroke-width: 0.8; stroke-linejoin: miter; stroke-linecap: square"/>
   </g>
   <g id="patch_6">
    <path d="M 57.6 41.472 
L 414.72 41.472 
" style="fill: none; stroke: #000000; stroke-width: 0.8; stroke-linejoin: miter; stroke-linecap: square"/>
   </g>
   <g id="text_11">
    <!-- WSP -->
    <g transform="translate(361.832136 156.010788)scale(0.08 -0.08)">
     <defs>
      <path id="DejaVuSans-57" d="M 213 4666 
L 850 4666 
L 1831 722 
L 2809 4666 
L 3519 4666 
L 4500 722 
L 5478 4666 
L 6119 4666 
L 4947 0 
L 4153 0 
L 3169 4050 
L 2175 0 
L 1381 0 
L 213 4666 
z
" transform="scale(0.015625)"/>
      <path id="DejaVuSans-53" d="M 3425 4513 
L 3425 3897 
Q 3066 4069 2747 4153 
Q 2428 4238 2131 4238 
Q 1616 4238 1336 4038 
Q 1056 3838 1056 3469 
Q 1056 3159 1242 3001 
Q 1428 2844 1947 2747 
L 2328 2669 
Q 3034 2534 3370 2195 
Q 3706 1856 3706 1288 
Q 3706 609 3251 259 
Q 2797 -91 1919 -91 
Q 1588 -91 1214 -16 
Q 841 59 441 206 
L 441 856 
Q 825 641 1194 531 
Q 1563 422 1919 422 
Q 2459 422 2753 634 
Q 3047 847 3047 1241 
Q 3047 1584 2836 1778 
Q 2625 1972 2144 2069 
L 1759 2144 
Q 1053 2284 737 2584 
Q 422 2884 422 3419 
Q 422 4038 858 4394 
Q 1294 4750 2059 4750 
Q 2388 4750 2728 4690 
Q 3069 4631 3425 4513 
z
" transform="scale(0.015625)"/>
      <path id="DejaVuSans-50" d="M 1259 4147 
L 1259 2394 
L 2053 2394 
Q 2494 2394 2734 2622 
Q 2975 2850 2975 3272 
Q 2975 3691 2734 3919 
Q 2494 4147 2053 4147 
L 1259 4147 
z
M 628 4666 
L 2053 4666 
Q 2838 4666 3239 4311 
Q 3641 3956 3641 3272 
Q 3641 2581 3239 2228 
Q 2838 1875 2053 1875 
L 1259 1875 
L 1259 0 
L 628 0 
L 628 4666 
z
" transform="scale(0.015625)"/>
     </defs>
     <use xlink:href="#DejaVuSans-57"/>
     <use xlink:href="#DejaVuSans-53" x="98.876953"/>
     <use xlink:href="#DejaVuSans-50" x="162.353516"/>
    </g>
   </g>
   <g id="text_12">
    <!-- Iambic -->
    <g transform="translate(361.832136 84.568269)scale(0.08 -0.08)">
     <defs>
      <path id="DejaVuSans-49" d="M 628 4666 
L 1259 4666 
L 1259 0 
L 628 0 
L 628 4666 
z
" transform="scale(0.015625)"/>
      <path id="DejaVuSans-61" d="M 2194 1759 
Q 1497 1759 1228 1600 
Q 959 1441 959 1056 
Q 959 750 1161 570 
Q 1363 391 1709 391 
Q 2188 391 2477 730 
Q 2766 1069 2766 1631 
L 2766 1759 
L 2194 1759 
z
M 3341 1997 
L 3341 0 
L 2766 0 
L 2766 531 
Q 2569 213 2275 61 
Q 1981 -91 1556 -91 
Q 1019 -91 701 211 
Q 384 513 384 1019 
Q 384 1609 779 1909 
Q 1175 2209 1959 2209 
L 2766 2209 
L 2766 2266 
Q 2766 2663 2505 2880 
Q 2244 3097 1772 3097 
Q 1472 3097 1187 3025 
Q 903 2953 641 2809 
L 641 3341 
Q 956 3463 1253 3523 
Q 1550 3584 1831 3584 
Q 2591 3584 2966 3190 
Q 3341 2797 3341 1997 
z
" transform="scale(0.015625)"/>
      <path id="DejaVuSans-6d" d="M 3328 2828 
Q 3544 3216 3844 3400 
Q 4144 3584 4550 3584 
Q 5097 3584 5394 3201 
Q 5691 2819 5691 2113 
L 5691 0 
L 5113 0 
L 5113 2094 
Q 5113 2597 4934 2840 
Q 4756 3084 4391 3084 
Q 3944 3084 3684 2787 
Q 3425 2491 3425 1978 
L 3425 0 
L 2847 0 
L 2847 2094 
Q 2847 2600 2669 2842 
Q 2491 3084 2119 3084 
Q 1678 3084 1418 2786 
Q 1159 2488 1159 1978 
L 1159 0 
L 581 0 
L 581 3500 
L 1159 3500 
L 1159 2956 
Q 1356 3278 1631 3431 
Q 1906 3584 2284 3584 
Q 2666 3584 2933 3390 
Q 3200 3197 3328 2828 
z
" transform="scale(0.015625)"/>
      <path id="DejaVuSans-62" d="M 3116 1747 
Q 3116 2381 2855 2742 
Q 2594 3103 2138 3103 
Q 1681 3103 1420 2742 
Q 1159 2381 1159 1747 
Q 1159 1113 1420 752 
Q 1681 391 2138 391 
Q 2594 391 2855 752 
Q 3116 1113 3116 1747 
z
M 1159 2969 
Q 1341 3281 1617 3432 
Q 1894 3584 2278 3584 
Q 2916 3584 3314 3078 
Q 3713 2572 3713 1747 
Q 3713 922 3314 415 
Q 2916 -91 2278 -91 
Q 1894 -91 1617 61 
Q 1341 213 1159 525 
L 1159 0 
L 581 0 
L 581 4863 
L 1159 4863 
L 1159 2969 
z
" transform="scale(0.015625)"/>
      <path id="DejaVuSans-69" d="M 603 3500 
L 1178 3500 
L 1178 0 
L 603 0 
L 603 3500 
z
M 603 4863 
L 1178 4863 
L 1178 4134 
L 603 4134 
L 603 4863 
z
" transform="scale(0.015625)"/>
      <path id="DejaVuSans-63" d="M 3122 3366 
L 3122 2828 
Q 2878 2963 2633 3030 
Q 2388 3097 2138 3097 
Q 1578 3097 1268 2742 
Q 959 2388 959 1747 
Q 959 1106 1268 751 
Q 1578 397 2138 397 
Q 2388 397 2633 464 
Q 2878 531 3122 666 
L 3122 134 
Q 2881 22 2623 -34 
Q 2366 -91 2075 -91 
Q 1284 -91 818 406 
Q 353 903 353 1747 
Q 353 2603 823 3093 
Q 1294 3584 2113 3584 
Q 2378 3584 2631 3529 
Q 2884 3475 3122 3366 
z
" transform="scale(0.015625)"/>
     </defs>
     <use xlink:href="#DejaVuSans-49"/>
     <use xlink:href="#DejaVuSans-61" x="29.492188"/>
     <use xlink:href="#DejaVuSans-6d" x="90.771484"/>
     <use xlink:href="#DejaVuSans-62" x="188.183594"/>
     <use xlink:href="#DejaVuSans-69" x="251.660156"/>
     <use xlink:href="#DejaVuSans-63" x="279.443359"/>
    </g>
   </g>
   <g id="text_13">
    <!-- Parse -->
    <g transform="translate(361.832136 126.535365)scale(0.08 -0.08)">
     <defs>
      <path id="DejaVuSans-72" d="M 2631 2963 
Q 2534 3019 2420 3045 
Q 2306 3072 2169 3072 
Q 1681 3072 1420 2755 
Q 1159 2438 1159 1844 
L 1159 0 
L 581 0 
L 581 3500 
L 1159 3500 
L 1159 2956 
Q 1341 3275 1631 3429 
Q 1922 3584 2338 3584 
Q 2397 3584 2469 3576 
Q 2541 3569 2628 3553 
L 2631 2963 
z
" transform="scale(0.015625)"/>
      <path id="DejaVuSans-73" d="M 2834 3397 
L 2834 2853 
Q 2591 2978 2328 3040 
Q 2066 3103 1784 3103 
Q 1356 3103 1142 2972 
Q 928 2841 928 2578 
Q 928 2378 1081 2264 
Q 1234 2150 1697 2047 
L 1894 2003 
Q 2506 1872 2764 1633 
Q 3022 1394 3022 966 
Q 3022 478 2636 193 
Q 2250 -91 1575 -91 
Q 1294 -91 989 -36 
Q 684 19 347 128 
L 347 722 
Q 666 556 975 473 
Q 1284 391 1588 391 
Q 1994 391 2212 530 
Q 2431 669 2431 922 
Q 2431 1156 2273 1281 
Q 2116 1406 1581 1522 
L 1381 1569 
Q 847 1681 609 1914 
Q 372 2147 372 2553 
Q 372 3047 722 3315 
Q 1072 3584 1716 3584 
Q 2034 3584 2315 3537 
Q 2597 3491 2834 3397 
z
" transform="scale(0.015625)"/>
      <path id="DejaVuSans-65" d="M 3597 1894 
L 3597 1613 
L 953 1613 
Q 991 1019 1311 708 
Q 1631 397 2203 397 
Q 2534 397 2845 478 
Q 3156 559 3463 722 
L 3463 178 
Q 3153 47 2828 -22 
Q 2503 -91 2169 -91 
Q 1331 -91 842 396 
Q 353 884 353 1716 
Q 353 2575 817 3079 
Q 1281 3584 2069 3584 
Q 2775 3584 3186 3129 
Q 3597 2675 3597 1894 
z
M 3022 2063 
Q 3016 2534 2758 2815 
Q 2500 3097 2075 3097 
Q 1594 3097 1305 2825 
Q 1016 2553 972 2059 
L 3022 2063 
z
" transform="scale(0.015625)"/>
     </defs>
     <use xlink:href="#DejaVuSans-50"/>
     <use xlink:href="#DejaVuSans-61" x="55.802734"/>
     <use xlink:href="#DejaVuSans-72" x="117.082031"/>
     <use xlink:href="#DejaVuSans-73" x="158.195312"/>
     <use xlink:href="#DejaVuSans-65" x="210.294922"/>
    </g>
   </g>
   <g id="text_14">
    <!-- FootBin -->
    <g transform="translate(361.832136 132.13508)scale(0.08 -0.08)">
     <defs>
      <path id="DejaVuSans-46" d="M 628 4666 
L 3309 4666 
L 3309 4134 
L 1259 4134 
L 1259 2759 
L 3109 2759 
L 3109 2228 
L 1259 2228 
L 1259 0 
L 628 0 
L 628 4666 
z
" transform="scale(0.015625)"/>
      <path id="DejaVuSans-6f" d="M 1959 3097 
Q 1497 3097 1228 2736 
Q 959 2375 959 1747 
Q 959 1119 1226 758 
Q 1494 397 1959 397 
Q 2419 397 2687 759 
Q 2956 1122 2956 1747 
Q 2956 2369 2687 2733 
Q 2419 3097 1959 3097 
z
M 1959 3584 
Q 2709 3584 3137 3096 
Q 3566 2609 3566 1747 
Q 3566 888 3137 398 
Q 2709 -91 1959 -91 
Q 1206 -91 779 398 
Q 353 888 353 1747 
Q 353 2609 779 3096 
Q 1206 3584 1959 3584 
z
" transform="scale(0.015625)"/>
      <path id="DejaVuSans-74" d="M 1172 4494 
L 1172 3500 
L 2356 3500 
L 2356 3053 
L 1172 3053 
L 1172 1153 
Q 1172 725 1289 603 
Q 1406 481 1766 481 
L 2356 481 
L 2356 0 
L 1766 0 
Q 1100 0 847 248 
Q 594 497 594 1153 
L 594 3053 
L 172 3053 
L 172 3500 
L 594 3500 
L 594 4494 
L 1172 4494 
z
" transform="scale(0.015625)"/>
      <path id="DejaVuSans-42" d="M 1259 2228 
L 1259 519 
L 2272 519 
Q 2781 519 3026 730 
Q 3272 941 3272 1375 
Q 3272 1813 3026 2020 
Q 2781 2228 2272 2228 
L 1259 2228 
z
M 1259 4147 
L 1259 2741 
L 2194 2741 
Q 2656 2741 2882 2914 
Q 3109 3088 3109 3444 
Q 3109 3797 2882 3972 
Q 2656 4147 2194 4147 
L 1259 4147 
z
M 628 4666 
L 2241 4666 
Q 2963 4666 3353 4366 
Q 3744 4066 3744 3513 
Q 3744 3084 3544 2831 
Q 3344 2578 2956 2516 
Q 3422 2416 3680 2098 
Q 3938 1781 3938 1306 
Q 3938 681 3513 340 
Q 3088 0 2303 0 
L 628 0 
L 628 4666 
z
" transform="scale(0.015625)"/>
      <path id="DejaVuSans-6e" d="M 3513 2113 
L 3513 0 
L 2938 0 
L 2938 2094 
Q 2938 2591 2744 2837 
Q 2550 3084 2163 3084 
Q 1697 3084 1428 2787 
Q 1159 2491 1159 1978 
L 1159 0 
L 581 0 
L 581 3500 
L 1159 3500 
L 1159 2956 
Q 1366 3272 1645 3428 
Q 1925 3584 2291 3584 
Q 2894 3584 3203 3211 
Q 3513 2838 3513 2113 
z
" transform="scale(0.015625)"/>
     </defs>
     <use xlink:href="#DejaVuSans-46"/>
     <use xlink:href="#DejaVuSans-6f" x="53.894531"/>
     <use xlink:href="#DejaVuSans-6f" x="115.076172"/>
     <use xlink:href="#DejaVuSans-74" x="176.257812"/>
     <use xlink:href="#DejaVuSans-42" x="215.466797"/>
     <use xlink:href="#DejaVuSans-69" x="284.070312"/>
     <use xlink:href="#DejaVuSans-6e" x="311.853516"/>
    </g>
   </g>
   <g id="text_15">
    <!-- WFL -->
    <g transform="translate(361.832136 75.214899)scale(0.08 -0.08)">
     <defs>
      <path id="DejaVuSans-4c" d="M 628 4666 
L 1259 4666 
L 1259 531 
L 3531 531 
L 3531 0 
L 628 0 
L 628 4666 
z
" transform="scale(0.015625)"/>
     </defs>
     <use xlink:href="#DejaVuSans-57"/>
     <use xlink:href="#DejaVuSans-46" x="98.876953"/>
     <use xlink:href="#DejaVuSans-4c" x="156.396484"/>
    </g>
   </g>
   <g id="text_16">
    <!-- WFR -->
    <g transform="translate(361.832136 50.046948)scale(0.08 -0.08)">
     <defs>
      <path id="DejaVuSans-52" d="M 2841 2188 
Q 3044 2119 3236 1894 
Q 3428 1669 3622 1275 
L 4263 0 
L 3584 0 
L 2988 1197 
Q 2756 1666 2539 1819 
Q 2322 1972 1947 1972 
L 1259 1972 
L 1259 0 
L 628 0 
L 628 4666 
L 2053 4666 
Q 2853 4666 3247 4331 
Q 3641 3997 3641 3322 
Q 3641 2881 3436 2590 
Q 3231 2300 2841 2188 
z
M 1259 4147 
L 1259 2491 
L 2053 2491 
Q 2509 2491 2742 2702 
Q 2975 2913 2975 3322 
Q 2975 3731 2742 3939 
Q 2509 4147 2053 4147 
L 1259 4147 
z
" transform="scale(0.015625)"/>
     </defs>
     <use xlink:href="#DejaVuSans-57"/>
     <use xlink:href="#DejaVuSans-46" x="98.876953"/>
     <use xlink:href="#DejaVuSans-52" x="156.396484"/>
    </g>
   </g>
   <g id="text_17">
    <!-- Main-L -->
    <g transform="translate(361.832136 148.441943)scale(0.08 -0.08)">
     <defs>
      <path id="DejaVuSans-4d" d="M 628 4666 
L 1569 4666 
L 2759 1491 
L 3956 4666 
L 4897 4666 
L 4897 0 
L 4281 0 
L 4281 4097 
L 3078 897 
L 2444 897 
L 1241 4097 
L 1241 0 
L 628 0 
L 628 4666 
z
" transform="scale(0.015625)"/>
      <path id="DejaVuSans-2d" d="M 313 2009 
L 1997 2009 
L 1997 1497 
L 313 1497 
L 313 2009 
z
" transform="scale(0.015625)"/>
     </defs>
     <use xlink:href="#DejaVuSans-4d"/>
     <use xlink:href="#DejaVuSans-61" x="86.279297"/>
     <use xlink:href="#DejaVuSans-69" x="147.558594"/>
     <use xlink:href="#DejaVuSans-6e" x="175.341797"/>
     <use xlink:href="#DejaVuSans-2d" x="238.720703"/>
     <use xlink:href="#DejaVuSans-4c" x="274.804688"/>
    </g>
   </g>
   <g id="text_18">
    <!-- Main-R -->
    <g transform="translate(361.832136 46.970182)scale(0.08 -0.08)">
     <use xlink:href="#DejaVuSans-4d"/>
     <use xlink:href="#DejaVuSans-61" x="86.279297"/>
     <use xlink:href="#DejaVuSans-69" x="147.558594"/>
     <use xlink:href="#DejaVuSans-6e" x="175.341797"/>
     <use xlink:href="#DejaVuSans-2d" x="238.720703"/>
     <use xlink:href="#DejaVuSans-52" x="274.804688"/>
    </g>
   </g>
   <g id="text_19">
    <!-- AFL -->
    <g transform="translate(361.832136 84.752875)scale(0.08 -0.08)">
     <defs>
      <path id="DejaVuSans-41" d="M 2188 4044 
L 1331 1722 
L 3047 1722 
L 2188 4044 
z
M 1831 4666 
L 2547 4666 
L 4325 0 
L 3669 0 
L 3244 1197 
L 1141 1197 
L 716 0 
L 50 0 
L 1831 4666 
z
" transform="scale(0.015625)"/>
     </defs>
     <use xlink:href="#DejaVuSans-41"/>
     <use xlink:href="#DejaVuSans-46" x="68.408203"/>
     <use xlink:href="#DejaVuSans-4c" x="125.927734"/>
    </g>
   </g>
   <g id="text_20">
    <!-- AFR -->
    <g transform="translate(361.832136 115.274399)scale(0.08 -0.08)">
     <use xlink:href="#DejaVuSans-41"/>
     <use xlink:href="#DejaVuSans-46" x="68.408203"/>
     <use xlink:href="#DejaVuSans-52" x="125.927734"/>
    </g>
   </g>
   <g id="text_21">
    <!-- Nonfinal -->
    <g transform="translate(361.832136 129.181384)scale(0.08 -0.08)">
     <defs>
      <path id="DejaVuSans-4e" d="M 628 4666 
L 1478 4666 
L 3547 763 
L 3547 4666 
L 4159 4666 
L 4159 0 
L 3309 0 
L 1241 3903 
L 1241 0 
L 628 0 
L 628 4666 
z
" transform="scale(0.015625)"/>
      <path id="DejaVuSans-66" d="M 2375 4863 
L 2375 4384 
L 1825 4384 
Q 1516 4384 1395 4259 
Q 1275 4134 1275 3809 
L 1275 3500 
L 2222 3500 
L 2222 3053 
L 1275 3053 
L 1275 0 
L 697 0 
L 697 3053 
L 147 3053 
L 147 3500 
L 697 3500 
L 697 3744 
Q 697 4328 969 4595 
Q 1241 4863 1831 4863 
L 2375 4863 
z
" transform="scale(0.015625)"/>
      <path id="DejaVuSans-6c" d="M 603 4863 
L 1178 4863 
L 1178 0 
L 603 0 
L 603 4863 
z
" transform="scale(0.015625)"/>
     </defs>
     <use xlink:href="#DejaVuSans-4e"/>
     <use xlink:href="#DejaVuSans-6f" x="74.804688"/>
     <use xlink:href="#DejaVuSans-6e" x="135.986328"/>
     <use xlink:href="#DejaVuSans-66" x="199.365234"/>
     <use xlink:href="#DejaVuSans-69" x="234.570312"/>
     <use xlink:href="#DejaVuSans-6e" x="262.353516"/>
     <use xlink:href="#DejaVuSans-61" x="325.732422"/>
     <use xlink:href="#DejaVuSans-6c" x="387.011719"/>
    </g>
   </g>
   <g id="text_22">
    <!-- Trochaic -->
    <g transform="translate(361.832136 153.672446)scale(0.08 -0.08)">
     <defs>
      <path id="DejaVuSans-54" d="M -19 4666 
L 3928 4666 
L 3928 4134 
L 2272 4134 
L 2272 0 
L 1638 0 
L 1638 4134 
L -19 4134 
L -19 4666 
z
" transform="scale(0.015625)"/>
      <path id="DejaVuSans-68" d="M 3513 2113 
L 3513 0 
L 2938 0 
L 2938 2094 
Q 2938 2591 2744 2837 
Q 2550 3084 2163 3084 
Q 1697 3084 1428 2787 
Q 1159 2491 1159 1978 
L 1159 0 
L 581 0 
L 581 4863 
L 1159 4863 
L 1159 2956 
Q 1366 3272 1645 3428 
Q 1925 3584 2291 3584 
Q 2894 3584 3203 3211 
Q 3513 2838 3513 2113 
z
" transform="scale(0.015625)"/>
     </defs>
     <use xlink:href="#DejaVuSans-54"/>
     <use xlink:href="#DejaVuSans-72" x="46.333984"/>
     <use xlink:href="#DejaVuSans-6f" x="85.197266"/>
     <use xlink:href="#DejaVuSans-63" x="146.378906"/>
     <use xlink:href="#DejaVuSans-68" x="201.359375"/>
     <use xlink:href="#DejaVuSans-61" x="264.738281"/>
     <use xlink:href="#DejaVuSans-69" x="326.017578"/>
     <use xlink:href="#DejaVuSans-63" x="353.800781"/>
    </g>
   </g>
  </g>
  <g id="axes_2">
   <g id="patch_7">
    <path d="M 57.6 307.584 
L 414.72 307.584 
L 414.72 186.624 
L 57.6 186.624 
z
" style="fill: #ffffff"/>
   </g>
   <g id="matplotlib.axis_3">
    <g id="xtick_8">
     <g id="line2d_23">
      <g>
       <use xlink:href="#mfb79fa1e7e" x="70.378956" y="307.584" style="stroke: #000000; stroke-width: 0.8"/>
      </g>
     </g>
     <g id="text_23">
      <!-- 0 -->
      <g transform="translate(67.197706 322.182437)scale(0.1 -0.1)">
       <use xlink:href="#DejaVuSans-30"/>
      </g>
     </g>
    </g>
    <g id="xtick_9">
     <g id="line2d_24">
      <g>
       <use xlink:href="#mfb79fa1e7e" x="139.454391" y="307.584" style="stroke: #000000; stroke-width: 0.8"/>
      </g>
     </g>
     <g id="text_24">
      <!-- 20 -->
      <g transform="translate(133.091891 322.182437)scale(0.1 -0.1)">
       <use xlink:href="#DejaVuSans-32"/>
       <use xlink:href="#DejaVuSans-30" x="63.623047"/>
      </g>
     </g>
    </g>
    <g id="xtick_10">
     <g id="line2d_25">
      <g>
       <use xlink:href="#mfb79fa1e7e" x="208.529826" y="307.584" style="stroke: #000000; stroke-width: 0.8"/>
      </g>
     </g>
     <g id="text_25">
      <!-- 40 -->
      <g transform="translate(202.167326 322.182437)scale(0.1 -0.1)">
       <use xlink:href="#DejaVuSans-34"/>
       <use xlink:href="#DejaVuSans-30" x="63.623047"/>
      </g>
     </g>
    </g>
    <g id="xtick_11">
     <g id="line2d_26">
      <g>
       <use xlink:href="#mfb79fa1e7e" x="277.605261" y="307.584" style="stroke: #000000; stroke-width: 0.8"/>
      </g>
     </g>
     <g id="text_26">
      <!-- 60 -->
      <g transform="translate(271.242761 322.182437)scale(0.1 -0.1)">
       <use xlink:href="#DejaVuSans-36"/>
       <use xlink:href="#DejaVuSans-30" x="63.623047"/>
      </g>
     </g>
    </g>
    <g id="xtick_12">
     <g id="line2d_27">
      <g>
       <use xlink:href="#mfb79fa1e7e" x="346.680696" y="307.584" style="stroke: #000000; stroke-width: 0.8"/>
      </g>
     </g>
     <g id="text_27">
      <!-- 80 -->
      <g transform="translate(340.318196 322.182437)scale(0.1 -0.1)">
       <use xlink:href="#DejaVuSans-38"/>
       <use xlink:href="#DejaVuSans-30" x="63.623047"/>
      </g>
     </g>
    </g>
   </g>
   <g id="matplotlib.axis_4">
    <g id="ytick_4">
     <g id="line2d_28">
      <g>
       <use xlink:href="#m4594727de3" x="57.6" y="302.089898" style="stroke: #000000; stroke-width: 0.8"/>
      </g>
     </g>
     <g id="text_28">
      <!-- 0 -->
      <g transform="translate(44.2375 305.889117)scale(0.1 -0.1)">
       <use xlink:href="#DejaVuSans-30"/>
      </g>
     </g>
    </g>
    <g id="ytick_5">
     <g id="line2d_29">
      <g>
       <use xlink:href="#m4594727de3" x="57.6" y="281.690752" style="stroke: #000000; stroke-width: 0.8"/>
      </g>
     </g>
     <g id="text_29">
      <!-- 5000 -->
      <g transform="translate(25.15 285.489971)scale(0.1 -0.1)">
       <use xlink:href="#DejaVuSans-35"/>
       <use xlink:href="#DejaVuSans-30" x="63.623047"/>
       <use xlink:href="#DejaVuSans-30" x="127.246094"/>
       <use xlink:href="#DejaVuSans-30" x="190.869141"/>
      </g>
     </g>
    </g>
    <g id="ytick_6">
     <g id="line2d_30">
      <g>
       <use xlink:href="#m4594727de3" x="57.6" y="261.291606" style="stroke: #000000; stroke-width: 0.8"/>
      </g>
     </g>
     <g id="text_30">
      <!-- 10000 -->
      <g transform="translate(18.7875 265.090825)scale(0.1 -0.1)">
       <use xlink:href="#DejaVuSans-31"/>
       <use xlink:href="#DejaVuSans-30" x="63.623047"/>
       <use xlink:href="#DejaVuSans-30" x="127.246094"/>
       <use xlink:href="#DejaVuSans-30" x="190.869141"/>
       <use xlink:href="#DejaVuSans-30" x="254.492188"/>
      </g>
     </g>
    </g>
    <g id="ytick_7">
     <g id="line2d_31">
      <g>
       <use xlink:href="#m4594727de3" x="57.6" y="240.89246" style="stroke: #000000; stroke-width: 0.8"/>
      </g>
     </g>
     <g id="text_31">
      <!-- 15000 -->
      <g transform="translate(18.7875 244.691679)scale(0.1 -0.1)">
       <use xlink:href="#DejaVuSans-31"/>
       <use xlink:href="#DejaVuSans-35" x="63.623047"/>
       <use xlink:href="#DejaVuSans-30" x="127.246094"/>
       <use xlink:href="#DejaVuSans-30" x="190.869141"/>
       <use xlink:href="#DejaVuSans-30" x="254.492188"/>
      </g>
     </g>
    </g>
    <g id="ytick_8">
     <g id="line2d_32">
      <g>
       <use xlink:href="#m4594727de3" x="57.6" y="220.493314" style="stroke: #000000; stroke-width: 0.8"/>
      </g>
     </g>
     <g id="text_32">
      <!-- 20000 -->
      <g transform="translate(18.7875 224.292533)scale(0.1 -0.1)">
       <use xlink:href="#DejaVuSans-32"/>
       <use xlink:href="#DejaVuSans-30" x="63.623047"/>
       <use xlink:href="#DejaVuSans-30" x="127.246094"/>
       <use xlink:href="#DejaVuSans-30" x="190.869141"/>
       <use xlink:href="#DejaVuSans-30" x="254.492188"/>
      </g>
     </g>
    </g>
    <g id="ytick_9">
     <g id="line2d_33">
      <g>
       <use xlink:href="#m4594727de3" x="57.6" y="200.094168" style="stroke: #000000; stroke-width: 0.8"/>
      </g>
     </g>
     <g id="text_33">
      <!-- 25000 -->
      <g transform="translate(18.7875 203.893387)scale(0.1 -0.1)">
       <use xlink:href="#DejaVuSans-32"/>
       <use xlink:href="#DejaVuSans-35" x="63.623047"/>
       <use xlink:href="#DejaVuSans-30" x="127.246094"/>
       <use xlink:href="#DejaVuSans-30" x="190.869141"/>
       <use xlink:href="#DejaVuSans-30" x="254.492188"/>
      </g>
     </g>
    </g>
   </g>
   <g id="line2d_34">
    <path d="M 73.832727 302.085818 
L 77.286499 302.085818 
L 80.740271 302.073579 
L 84.194043 302.085818 
L 87.647814 302.085818 
L 91.101586 302.085818 
L 94.555358 302.081738 
L 98.00913 302.085818 
L 101.462901 302.085818 
L 104.916673 302.085818 
L 108.370445 302.085818 
L 111.824217 302.081738 
L 115.277988 302.081738 
L 118.73176 302.073579 
L 122.185532 302.085818 
L 125.639304 302.073579 
L 129.093075 302.061339 
L 132.546847 302.085818 
L 136.000619 302.073579 
L 139.454391 302.081738 
L 142.908162 302.081738 
L 146.361934 302.085818 
L 149.815706 302.077659 
L 153.269478 302.085818 
L 156.72325 302.081738 
L 160.177021 302.069499 
L 163.630793 302.077659 
L 167.084565 302.016461 
L 170.538337 302.04094 
L 173.992108 302.028701 
L 177.44588 302.077659 
L 180.899652 302.073579 
L 184.353424 302.077659 
L 187.807195 302.085818 
L 191.260967 301.991982 
L 194.714739 302.008301 
L 198.168511 302.024621 
L 201.622282 301.971583 
L 205.076054 302.000142 
L 208.529826 301.865507 
L 211.983598 302.061339 
L 215.437369 302.05318 
L 218.891141 302.073579 
L 222.344913 301.755352 
L 225.798685 302.03278 
L 229.252456 302.073579 
L 232.706228 302.024621 
L 236.16 302.028701 
L 239.613772 301.918545 
L 243.067544 301.81247 
L 246.521315 302.024621 
L 249.975087 302.0491 
L 253.428859 302.028701 
L 256.882631 301.963423 
L 260.336402 302.057259 
L 263.790174 301.669676 
L 267.243946 301.983822 
L 270.697718 301.889986 
L 274.151489 302.04094 
L 277.605261 301.996062 
L 281.059033 302.0491 
L 284.512805 301.991982 
L 287.966576 301.714554 
L 291.420348 301.608478 
L 294.87412 302.04094 
L 298.327892 301.539121 
L 301.781663 301.898146 
L 305.235435 301.596239 
L 308.689207 301.885907 
L 312.142979 301.963423 
L 315.59675 301.074021 
L 319.050522 302.016461 
L 322.504294 300.298853 
L 325.958066 301.57584 
L 329.411838 301.612558 
L 332.865609 301.943024 
L 336.319381 301.363688 
L 339.773153 300.160139 
L 343.226925 289.748415 
L 346.680696 292.877644 
L 350.134468 300.515084 
L 353.58824 302.05318 
L 357.042012 300.351891 
L 360.495783 301.637037 
L 363.949555 294.88492 
L 367.403327 286.888454 
L 370.857099 301.926705 
L 374.31087 298.813795 
L 377.764642 293.905761 
L 381.218414 295.688646 
L 384.672186 256.216299 
L 388.125957 297.03091 
L 391.579729 299.197299 
L 395.033501 299.111623 
L 398.487273 192.122182 
" clip-path="url(#pec8d8ac9d6)" style="fill: none; stroke: #1f77b4; stroke-width: 1.5; stroke-linecap: square"/>
   </g>
   <g id="patch_8">
    <path d="M 57.6 307.584 
L 57.6 186.624 
" style="fill: none; stroke: #000000; stroke-width: 0.8; stroke-linejoin: miter; stroke-linecap: square"/>
   </g>
   <g id="patch_9">
    <path d="M 414.72 307.584 
L 414.72 186.624 
" style="fill: none; stroke: #000000; stroke-width: 0.8; stroke-linejoin: miter; stroke-linecap: square"/>
   </g>
   <g id="patch_10">
    <path d="M 57.6 307.584 
L 414.72 307.584 
" style="fill: none; stroke: #000000; stroke-width: 0.8; stroke-linejoin: miter; stroke-linecap: square"/>
   </g>
   <g id="patch_11">
    <path d="M 57.6 186.624 
L 414.72 186.624 
" style="fill: none; stroke: #000000; stroke-width: 0.8; stroke-linejoin: miter; stroke-linecap: square"/>
   </g>
  </g>
 </g>
 <defs>
  <clipPath id="p2894791527">
   <rect x="57.6" y="41.472" width="357.12" height="120.96"/>
  </clipPath>
  <clipPath id="pec8d8ac9d6">
   <rect x="57.6" y="186.624" width="357.12" height="120.96"/>
  </clipPath>
 </defs>
</svg>
