<?xml version="1.0" encoding="utf-8" standalone="no"?>
<!DOCTYPE svg PUBLIC "-//W3C//DTD SVG 1.1//EN"
  "http://www.w3.org/Graphics/SVG/1.1/DTD/svg11.dtd">
<svg xmlns:xlink="http://www.w3.org/1999/xlink" width="460.8pt" height="345.6pt" viewBox="0 0 460.8 345.6" xmlns="http://www.w3.org/2000/svg" version="1.1">
 <metadata>
  <rdf:RDF xmlns:dc="http://purl.org/dc/elements/1.1/" xmlns:cc="http://creativecommons.org/ns#" xmlns:rdf="http://www.w3.org/1999/02/22-rdf-syntax-ns#">
   <cc:Work>
    <dc:type rdf:resource="http://purl.org/dc/dcmitype/StillImage"/>
    <dc:date>2022-05-13T15:15:34.284924</dc:date>
    <dc:format>image/svg+xml</dc:format>
    <dc:creator>
     <cc:Agent>
      <dc:title>Matplotlib v3.5.1, https://matplotlib.org/</dc:title>
     </cc:Agent>
    </dc:creator>
   </cc:Work>
  </rdf:RDF>
 </metadata>
 <defs>
  <style type="text/css">*{stroke-linejoin: round; stroke-linecap: butt}</style>
 </defs>
 <g id="figure_1">
  <g id="patch_1">
   <path d="M 0 345.6 
L 460.8 345.6 
L 460.8 0 
L 0 0 
z
" style="fill: #ffffff"/>
  </g>
  <g id="axes_1">
   <g id="patch_2">
    <path d="M 57.6 162.432 
L 414.72 162.432 
L 414.72 41.472 
L 57.6 41.472 
z
" style="fill: #ffffff"/>
   </g>
   <g id="matplotlib.axis_1">
    <g id="xtick_1">
     <g id="line2d_1">
      <defs>
       <path id="mc42ca522b6" d="M 0 0 
L 0 3.5 
" style="stroke: #000000; stroke-width: 0.8"/>
      </defs>
      <g>
       <use xlink:href="#mc42ca522b6" x="73.827491" y="162.432" style="stroke: #000000; stroke-width: 0.8"/>
      </g>
     </g>
     <g id="text_1">
      <!-- 0 -->
      <g transform="translate(70.646241 177.030437)scale(0.1 -0.1)">
       <defs>
        <path id="DejaVuSans-30" d="M 2034 4250 
Q 1547 4250 1301 3770 
Q 1056 3291 1056 2328 
Q 1056 1369 1301 889 
Q 1547 409 2034 409 
Q 2525 409 2770 889 
Q 3016 1369 3016 2328 
Q 3016 3291 2770 3770 
Q 2525 4250 2034 4250 
z
M 2034 4750 
Q 2819 4750 3233 4129 
Q 3647 3509 3647 2328 
Q 3647 1150 3233 529 
Q 2819 -91 2034 -91 
Q 1250 -91 836 529 
Q 422 1150 422 2328 
Q 422 3509 836 4129 
Q 1250 4750 2034 4750 
z
" transform="scale(0.015625)"/>
       </defs>
       <use xlink:href="#DejaVuSans-30"/>
      </g>
     </g>
    </g>
    <g id="xtick_2">
     <g id="line2d_2">
      <g>
       <use xlink:href="#mc42ca522b6" x="126.191972" y="162.432" style="stroke: #000000; stroke-width: 0.8"/>
      </g>
     </g>
     <g id="text_2">
      <!-- 10000 -->
      <g transform="translate(110.285722 177.030437)scale(0.1 -0.1)">
       <defs>
        <path id="DejaVuSans-31" d="M 794 531 
L 1825 531 
L 1825 4091 
L 703 3866 
L 703 4441 
L 1819 4666 
L 2450 4666 
L 2450 531 
L 3481 531 
L 3481 0 
L 794 0 
L 794 531 
z
" transform="scale(0.015625)"/>
       </defs>
       <use xlink:href="#DejaVuSans-31"/>
       <use xlink:href="#DejaVuSans-30" x="63.623047"/>
       <use xlink:href="#DejaVuSans-30" x="127.246094"/>
       <use xlink:href="#DejaVuSans-30" x="190.869141"/>
       <use xlink:href="#DejaVuSans-30" x="254.492188"/>
      </g>
     </g>
    </g>
    <g id="xtick_3">
     <g id="line2d_3">
      <g>
       <use xlink:href="#mc42ca522b6" x="178.556453" y="162.432" style="stroke: #000000; stroke-width: 0.8"/>
      </g>
     </g>
     <g id="text_3">
      <!-- 20000 -->
      <g transform="translate(162.650203 177.030437)scale(0.1 -0.1)">
       <defs>
        <path id="DejaVuSans-32" d="M 1228 531 
L 3431 531 
L 3431 0 
L 469 0 
L 469 531 
Q 828 903 1448 1529 
Q 2069 2156 2228 2338 
Q 2531 2678 2651 2914 
Q 2772 3150 2772 3378 
Q 2772 3750 2511 3984 
Q 2250 4219 1831 4219 
Q 1534 4219 1204 4116 
Q 875 4013 500 3803 
L 500 4441 
Q 881 4594 1212 4672 
Q 1544 4750 1819 4750 
Q 2544 4750 2975 4387 
Q 3406 4025 3406 3419 
Q 3406 3131 3298 2873 
Q 3191 2616 2906 2266 
Q 2828 2175 2409 1742 
Q 1991 1309 1228 531 
z
" transform="scale(0.015625)"/>
       </defs>
       <use xlink:href="#DejaVuSans-32"/>
       <use xlink:href="#DejaVuSans-30" x="63.623047"/>
       <use xlink:href="#DejaVuSans-30" x="127.246094"/>
       <use xlink:href="#DejaVuSans-30" x="190.869141"/>
       <use xlink:href="#DejaVuSans-30" x="254.492188"/>
      </g>
     </g>
    </g>
    <g id="xtick_4">
     <g id="line2d_4">
      <g>
       <use xlink:href="#mc42ca522b6" x="230.920934" y="162.432" style="stroke: #000000; stroke-width: 0.8"/>
      </g>
     </g>
     <g id="text_4">
      <!-- 30000 -->
      <g transform="translate(215.014684 177.030437)scale(0.1 -0.1)">
       <defs>
        <path id="DejaVuSans-33" d="M 2597 2516 
Q 3050 2419 3304 2112 
Q 3559 1806 3559 1356 
Q 3559 666 3084 287 
Q 2609 -91 1734 -91 
Q 1441 -91 1130 -33 
Q 819 25 488 141 
L 488 750 
Q 750 597 1062 519 
Q 1375 441 1716 441 
Q 2309 441 2620 675 
Q 2931 909 2931 1356 
Q 2931 1769 2642 2001 
Q 2353 2234 1838 2234 
L 1294 2234 
L 1294 2753 
L 1863 2753 
Q 2328 2753 2575 2939 
Q 2822 3125 2822 3475 
Q 2822 3834 2567 4026 
Q 2313 4219 1838 4219 
Q 1578 4219 1281 4162 
Q 984 4106 628 3988 
L 628 4550 
Q 988 4650 1302 4700 
Q 1616 4750 1894 4750 
Q 2613 4750 3031 4423 
Q 3450 4097 3450 3541 
Q 3450 3153 3228 2886 
Q 3006 2619 2597 2516 
z
" transform="scale(0.015625)"/>
       </defs>
       <use xlink:href="#DejaVuSans-33"/>
       <use xlink:href="#DejaVuSans-30" x="63.623047"/>
       <use xlink:href="#DejaVuSans-30" x="127.246094"/>
       <use xlink:href="#DejaVuSans-30" x="190.869141"/>
       <use xlink:href="#DejaVuSans-30" x="254.492188"/>
      </g>
     </g>
    </g>
    <g id="xtick_5">
     <g id="line2d_5">
      <g>
       <use xlink:href="#mc42ca522b6" x="283.285415" y="162.432" style="stroke: #000000; stroke-width: 0.8"/>
      </g>
     </g>
     <g id="text_5">
      <!-- 40000 -->
      <g transform="translate(267.379165 177.030437)scale(0.1 -0.1)">
       <defs>
        <path id="DejaVuSans-34" d="M 2419 4116 
L 825 1625 
L 2419 1625 
L 2419 4116 
z
M 2253 4666 
L 3047 4666 
L 3047 1625 
L 3713 1625 
L 3713 1100 
L 3047 1100 
L 3047 0 
L 2419 0 
L 2419 1100 
L 313 1100 
L 313 1709 
L 2253 4666 
z
" transform="scale(0.015625)"/>
       </defs>
       <use xlink:href="#DejaVuSans-34"/>
       <use xlink:href="#DejaVuSans-30" x="63.623047"/>
       <use xlink:href="#DejaVuSans-30" x="127.246094"/>
       <use xlink:href="#DejaVuSans-30" x="190.869141"/>
       <use xlink:href="#DejaVuSans-30" x="254.492188"/>
      </g>
     </g>
    </g>
    <g id="xtick_6">
     <g id="line2d_6">
      <g>
       <use xlink:href="#mc42ca522b6" x="335.649896" y="162.432" style="stroke: #000000; stroke-width: 0.8"/>
      </g>
     </g>
     <g id="text_6">
      <!-- 50000 -->
      <g transform="translate(319.743646 177.030437)scale(0.1 -0.1)">
       <defs>
        <path id="DejaVuSans-35" d="M 691 4666 
L 3169 4666 
L 3169 4134 
L 1269 4134 
L 1269 2991 
Q 1406 3038 1543 3061 
Q 1681 3084 1819 3084 
Q 2600 3084 3056 2656 
Q 3513 2228 3513 1497 
Q 3513 744 3044 326 
Q 2575 -91 1722 -91 
Q 1428 -91 1123 -41 
Q 819 9 494 109 
L 494 744 
Q 775 591 1075 516 
Q 1375 441 1709 441 
Q 2250 441 2565 725 
Q 2881 1009 2881 1497 
Q 2881 1984 2565 2268 
Q 2250 2553 1709 2553 
Q 1456 2553 1204 2497 
Q 953 2441 691 2322 
L 691 4666 
z
" transform="scale(0.015625)"/>
       </defs>
       <use xlink:href="#DejaVuSans-35"/>
       <use xlink:href="#DejaVuSans-30" x="63.623047"/>
       <use xlink:href="#DejaVuSans-30" x="127.246094"/>
       <use xlink:href="#DejaVuSans-30" x="190.869141"/>
       <use xlink:href="#DejaVuSans-30" x="254.492188"/>
      </g>
     </g>
    </g>
    <g id="xtick_7">
     <g id="line2d_7">
      <g>
       <use xlink:href="#mc42ca522b6" x="388.014377" y="162.432" style="stroke: #000000; stroke-width: 0.8"/>
      </g>
     </g>
     <g id="text_7">
      <!-- 60000 -->
      <g transform="translate(372.108127 177.030437)scale(0.1 -0.1)">
       <defs>
        <path id="DejaVuSans-36" d="M 2113 2584 
Q 1688 2584 1439 2293 
Q 1191 2003 1191 1497 
Q 1191 994 1439 701 
Q 1688 409 2113 409 
Q 2538 409 2786 701 
Q 3034 994 3034 1497 
Q 3034 2003 2786 2293 
Q 2538 2584 2113 2584 
z
M 3366 4563 
L 3366 3988 
Q 3128 4100 2886 4159 
Q 2644 4219 2406 4219 
Q 1781 4219 1451 3797 
Q 1122 3375 1075 2522 
Q 1259 2794 1537 2939 
Q 1816 3084 2150 3084 
Q 2853 3084 3261 2657 
Q 3669 2231 3669 1497 
Q 3669 778 3244 343 
Q 2819 -91 2113 -91 
Q 1303 -91 875 529 
Q 447 1150 447 2328 
Q 447 3434 972 4092 
Q 1497 4750 2381 4750 
Q 2619 4750 2861 4703 
Q 3103 4656 3366 4563 
z
" transform="scale(0.015625)"/>
       </defs>
       <use xlink:href="#DejaVuSans-36"/>
       <use xlink:href="#DejaVuSans-30" x="63.623047"/>
       <use xlink:href="#DejaVuSans-30" x="127.246094"/>
       <use xlink:href="#DejaVuSans-30" x="190.869141"/>
       <use xlink:href="#DejaVuSans-30" x="254.492188"/>
      </g>
     </g>
    </g>
   </g>
   <g id="matplotlib.axis_2">
    <g id="ytick_1">
     <g id="line2d_8">
      <defs>
       <path id="mb9d043798b" d="M 0 0 
L -3.5 0 
" style="stroke: #000000; stroke-width: 0.8"/>
      </defs>
      <g>
       <use xlink:href="#mb9d043798b" x="57.6" y="146.569429" style="stroke: #000000; stroke-width: 0.8"/>
      </g>
     </g>
     <g id="text_8">
      <!-- 40 -->
      <g transform="translate(37.875 150.368648)scale(0.1 -0.1)">
       <use xlink:href="#DejaVuSans-34"/>
       <use xlink:href="#DejaVuSans-30" x="63.623047"/>
      </g>
     </g>
    </g>
    <g id="ytick_2">
     <g id="line2d_9">
      <g>
       <use xlink:href="#mb9d043798b" x="57.6" y="116.234633" style="stroke: #000000; stroke-width: 0.8"/>
      </g>
     </g>
     <g id="text_9">
      <!-- 60 -->
      <g transform="translate(37.875 120.033852)scale(0.1 -0.1)">
       <use xlink:href="#DejaVuSans-36"/>
       <use xlink:href="#DejaVuSans-30" x="63.623047"/>
      </g>
     </g>
    </g>
    <g id="ytick_3">
     <g id="line2d_10">
      <g>
       <use xlink:href="#mb9d043798b" x="57.6" y="85.899837" style="stroke: #000000; stroke-width: 0.8"/>
      </g>
     </g>
     <g id="text_10">
      <!-- 80 -->
      <g transform="translate(37.875 89.699056)scale(0.1 -0.1)">
       <defs>
        <path id="DejaVuSans-38" d="M 2034 2216 
Q 1584 2216 1326 1975 
Q 1069 1734 1069 1313 
Q 1069 891 1326 650 
Q 1584 409 2034 409 
Q 2484 409 2743 651 
Q 3003 894 3003 1313 
Q 3003 1734 2745 1975 
Q 2488 2216 2034 2216 
z
M 1403 2484 
Q 997 2584 770 2862 
Q 544 3141 544 3541 
Q 544 4100 942 4425 
Q 1341 4750 2034 4750 
Q 2731 4750 3128 4425 
Q 3525 4100 3525 3541 
Q 3525 3141 3298 2862 
Q 3072 2584 2669 2484 
Q 3125 2378 3379 2068 
Q 3634 1759 3634 1313 
Q 3634 634 3220 271 
Q 2806 -91 2034 -91 
Q 1263 -91 848 271 
Q 434 634 434 1313 
Q 434 1759 690 2068 
Q 947 2378 1403 2484 
z
M 1172 3481 
Q 1172 3119 1398 2916 
Q 1625 2713 2034 2713 
Q 2441 2713 2670 2916 
Q 2900 3119 2900 3481 
Q 2900 3844 2670 4047 
Q 2441 4250 2034 4250 
Q 1625 4250 1398 4047 
Q 1172 3844 1172 3481 
z
" transform="scale(0.015625)"/>
       </defs>
       <use xlink:href="#DejaVuSans-38"/>
       <use xlink:href="#DejaVuSans-30" x="63.623047"/>
      </g>
     </g>
    </g>
    <g id="ytick_4">
     <g id="line2d_11">
      <g>
       <use xlink:href="#mb9d043798b" x="57.6" y="55.565041" style="stroke: #000000; stroke-width: 0.8"/>
      </g>
     </g>
     <g id="text_11">
      <!-- 100 -->
      <g transform="translate(31.5125 59.36426)scale(0.1 -0.1)">
       <use xlink:href="#DejaVuSans-31"/>
       <use xlink:href="#DejaVuSans-30" x="63.623047"/>
       <use xlink:href="#DejaVuSans-30" x="127.246094"/>
      </g>
     </g>
    </g>
   </g>
   <g id="line2d_12">
    <path d="M 73.832727 55.185856 
L 73.8432 55.185856 
L 73.885092 53.365768 
L 73.906038 56.399248 
L 73.926983 56.399248 
L 74.010767 58.421567 
L 74.042185 57.663197 
L 74.063131 57.663197 
L 74.131205 61.455047 
L 74.178333 60.191097 
L 74.183569 60.191097 
L 74.194042 59.432727 
L 74.214988 62.466207 
L 74.283062 61.707837 
L 74.361609 61.707837 
L 74.408737 60.949467 
L 74.413973 62.466207 
L 74.466337 62.466207 
L 74.518702 62.466207 
L 74.633904 61.202257 
L 74.681032 61.202257 
L 74.796234 60.443887 
L 74.942854 60.443887 
L 75.058056 59.685517 
L 75.257041 59.685517 
L 75.372243 61.202257 
L 75.419371 61.202257 
L 75.534573 62.718997 
L 75.744031 62.718997 
L 75.859233 64.235737 
L 75.943016 64.235737 
L 76.058218 63.477367 
L 76.094873 63.477367 
L 76.210075 62.718997 
L 76.414296 62.718997 
L 76.492843 64.235737 
L 76.524262 63.477367 
L 76.890813 63.477367 
L 76.979833 64.994107 
L 77.000778 64.235737 
L 77.13169 64.235737 
L 77.246891 65.752476 
L 77.414458 65.752476 
L 77.51395 67.269216 
L 77.524423 66.510846 
L 77.571551 66.510846 
L 77.69199 64.994107 
L 77.890975 64.994107 
L 78.006176 66.510846 
L 78.021886 66.510846 
L 78.137088 65.752476 
L 78.30989 65.752476 
L 78.425092 65.246897 
L 78.524585 65.246897 
L 78.63455 64.488527 
L 78.749752 66.005266 
L 78.770698 66.005266 
L 78.833535 67.522006 
L 78.880663 66.763636 
L 79.200087 66.763636 
L 79.315288 66.005266 
L 81.258011 66.005266 
L 81.373213 65.246897 
L 81.917803 65.246897 
L 82.033005 66.763636 
L 82.169153 66.763636 
L 82.221517 66.005266 
L 82.226754 67.522006 
L 82.273882 67.522006 
L 82.666615 67.522006 
L 82.781817 67.016426 
L 82.970329 67.016426 
L 83.085531 68.533166 
L 83.106477 68.533166 
L 83.221679 68.027586 
L 83.404954 68.027586 
L 83.520156 67.269216 
L 84.253259 67.269216 
L 84.368461 66.510846 
L 85.688046 66.510846 
L 85.803248 68.027586 
L 86.133144 68.027586 
L 86.248346 67.269216 
L 87.269453 67.269216 
L 87.384655 68.785956 
L 87.588876 68.785956 
L 87.704078 70.302696 
L 88.185832 70.302696 
L 88.301033 69.544326 
L 89.332614 69.544326 
L 89.447815 69.038746 
L 90.720272 69.038746 
L 90.835474 70.555486 
L 92.254552 70.555486 
L 92.369754 69.797116 
L 92.657758 69.797116 
L 92.77296 71.313856 
L 93.458935 71.313856 
L 93.574137 70.808276 
L 94.490515 70.808276 
L 94.605717 70.302696 
L 95.097943 70.302696 
L 95.213145 71.819436 
L 95.286455 71.819436 
L 95.401657 73.336176 
L 96.883572 73.336176 
L 96.998774 72.577806 
L 97.946571 72.577806 
L 98.014645 71.819436 
L 98.019881 73.336176 
L 98.0513 73.336176 
L 98.098428 73.336176 
L 98.21363 72.577806 
L 99.700781 72.577806 
L 99.815983 71.819436 
L 100.261081 71.819436 
L 100.376283 71.061066 
L 100.805671 71.061066 
L 100.920873 72.577806 
L 103.727609 72.577806 
L 103.842811 71.819436 
L 108.628925 71.819436 
L 108.744127 73.336176 
L 111.739375 73.336176 
L 111.854577 72.577806 
L 116.483597 72.577806 
L 116.598799 71.819436 
L 120.88745 71.819436 
L 121.002652 73.336176 
L 122.845881 73.336176 
L 122.961083 72.577806 
L 124.097393 72.577806 
L 124.212594 71.819436 
L 139.408767 71.819436 
L 139.523969 71.061066 
L 144.247245 71.061066 
L 144.362447 72.577806 
L 146.76074 72.577806 
L 146.875942 72.072226 
L 148.122216 72.072226 
L 148.237418 73.588966 
L 151.583509 73.588966 
L 151.69871 72.830596 
L 154.714905 72.830596 
L 154.830106 74.347335 
L 157.097488 74.347335 
L 157.21269 73.841755 
L 160.276012 73.841755 
L 160.391214 75.358495 
L 163.595921 75.358495 
L 163.711122 74.852915 
L 171.146879 74.852915 
L 171.262081 74.094545 
L 178.676891 74.094545 
L 178.792093 75.611285 
L 201.078416 75.611285 
L 201.193618 74.852915 
L 205.796456 74.852915 
L 205.911658 76.369655 
L 221.631475 76.369655 
L 221.746677 75.611285 
L 260.658722 75.611285 
L 260.773924 74.852915 
L 261.056692 74.852915 
L 261.171894 76.369655 
L 275.205575 76.369655 
L 275.320777 75.864075 
L 288.270513 75.864075 
L 288.385715 75.105705 
L 295.151206 75.105705 
L 295.266408 76.622445 
L 317.217598 76.622445 
L 317.3328 75.864075 
L 321.453885 75.864075 
L 321.569087 77.380815 
L 325.574969 77.380815 
L 325.690171 76.875235 
L 332.654647 76.875235 
L 332.769849 76.116865 
L 356.904638 76.116865 
L 357.01984 77.633605 
L 398.487273 77.633605 
L 398.487273 77.633605 
" clip-path="url(#p770f8ee89f)" style="fill: none; stroke: #1f77b4; stroke-width: 1.5; stroke-linecap: square"/>
   </g>
   <g id="line2d_13">
    <path d="M 73.832727 55.565041 
L 73.968875 62.89595 
L 73.995057 62.89595 
L 74.110259 67.446169 
L 74.115495 66.687799 
L 74.125968 66.687799 
L 74.162624 68.204539 
L 74.188806 64.66548 
L 74.235934 67.698959 
L 74.335426 67.698959 
L 74.408737 66.435009 
L 74.413973 67.951749 
L 74.440155 67.951749 
L 74.508229 67.951749 
L 74.633904 66.182219 
L 74.681032 66.182219 
L 74.796234 65.42385 
L 74.942854 65.42385 
L 75.058056 64.66548 
L 75.094711 64.66548 
L 75.209913 66.182219 
L 75.257041 66.182219 
L 75.372243 67.698959 
L 75.419371 67.698959 
L 75.534573 69.215699 
L 75.744031 69.215699 
L 75.859233 70.732439 
L 75.943016 70.732439 
L 76.058218 69.974069 
L 76.094873 69.974069 
L 76.210075 69.215699 
L 76.414296 69.215699 
L 76.492843 70.732439 
L 76.524262 69.974069 
L 77.13169 69.974069 
L 77.246891 71.490809 
L 77.283547 71.490809 
L 77.398748 70.985229 
L 77.414458 70.985229 
L 77.51395 72.501969 
L 77.524423 71.743599 
L 77.571551 71.743599 
L 77.69199 70.226859 
L 77.890975 70.226859 
L 78.006176 71.743599 
L 78.021886 71.743599 
L 78.137088 70.985229 
L 78.63455 70.985229 
L 78.749752 72.501969 
L 78.770698 72.501969 
L 78.833535 74.018708 
L 78.880663 73.260339 
L 79.226269 73.260339 
L 79.341471 72.754759 
L 80.860041 72.754759 
L 80.975242 72.249179 
L 81.258011 72.249179 
L 81.373213 71.490809 
L 81.917803 71.490809 
L 82.033005 73.007549 
L 82.221517 73.007549 
L 82.336719 74.524288 
L 82.666615 74.524288 
L 82.781817 74.018708 
L 82.970329 74.018708 
L 83.085531 75.535448 
L 83.106477 75.535448 
L 83.221679 75.029868 
L 84.253259 75.029868 
L 84.368461 74.271498 
L 85.138219 74.271498 
L 85.253421 73.765918 
L 85.688046 73.765918 
L 85.803248 75.282658 
L 87.269453 75.282658 
L 87.384655 76.799398 
L 87.588876 76.799398 
L 87.704078 78.316138 
L 88.238196 78.316138 
L 88.353398 77.810558 
L 89.332614 77.810558 
L 89.447815 77.304978 
L 90.709799 77.304978 
L 90.825001 76.799398 
L 92.657758 76.799398 
L 92.77296 78.316138 
L 93.458935 78.316138 
L 93.574137 77.810558 
L 94.490515 77.810558 
L 94.605717 77.304978 
L 95.097943 77.304978 
L 95.213145 78.821718 
L 95.286455 78.821718 
L 95.401657 80.338458 
L 95.626824 80.338458 
L 95.742026 79.832878 
L 97.946571 79.832878 
L 98.014645 79.074508 
L 98.019881 80.591248 
L 98.0513 80.591248 
L 98.098428 80.591248 
L 98.21363 79.832878 
L 99.700781 79.832878 
L 99.815983 79.074508 
L 100.805671 79.074508 
L 100.920873 80.591248 
L 108.628925 80.591248 
L 108.744127 82.107987 
L 116.483597 82.107987 
L 116.598799 81.349618 
L 120.88745 81.349618 
L 121.002652 82.866357 
L 122.845881 82.866357 
L 122.961083 82.107987 
L 129.637555 82.107987 
L 129.752756 81.602408 
L 144.247245 81.602408 
L 144.362447 83.119147 
L 146.76074 83.119147 
L 146.875942 82.613567 
L 148.122216 82.613567 
L 148.237418 84.130307 
L 152.054789 84.130307 
L 152.169991 83.624727 
L 154.714905 83.624727 
L 154.830106 85.141467 
L 160.276012 85.141467 
L 160.391214 86.658207 
L 163.595921 86.658207 
L 163.711122 86.152627 
L 171.146879 86.152627 
L 171.262081 85.394257 
L 178.676891 85.394257 
L 178.792093 86.910997 
L 185.369072 86.910997 
L 185.484274 86.405417 
L 201.078416 86.405417 
L 201.193618 85.647047 
L 205.796456 85.647047 
L 205.911658 87.163787 
L 221.631475 87.163787 
L 221.746677 86.405417 
L 261.056692 86.405417 
L 261.171894 87.922157 
L 275.205575 87.922157 
L 275.320777 87.416577 
L 282.520893 87.416577 
L 282.636095 86.910997 
L 286.893327 86.910997 
L 287.008529 86.405417 
L 288.270513 86.405417 
L 288.385715 85.647047 
L 295.151206 85.647047 
L 295.266408 87.163787 
L 321.453885 87.163787 
L 321.569087 88.680527 
L 325.574969 88.680527 
L 325.690171 88.174947 
L 332.654647 88.174947 
L 332.769849 87.416577 
L 356.904638 87.416577 
L 357.01984 88.933317 
L 362.800879 88.933317 
L 362.916081 88.427737 
L 398.487273 88.427737 
L 398.487273 88.427737 
" clip-path="url(#p770f8ee89f)" style="fill: none; stroke: #ff7f0e; stroke-width: 1.5; stroke-linecap: square"/>
   </g>
   <g id="line2d_14">
    <path d="M 73.832727 55.185856 
L 73.853673 54.124138 
L 73.906038 57.915987 
L 73.911274 57.915987 
L 73.995057 61.455047 
L 74.026476 60.191097 
L 74.089313 60.191097 
L 74.110259 59.685517 
L 74.16786 61.455047 
L 74.178333 61.455047 
L 74.293535 62.971787 
L 74.335426 62.971787 
L 74.455865 66.005266 
L 74.508229 66.005266 
L 74.623431 68.533166 
L 74.691505 68.533166 
L 74.806707 70.049906 
L 74.942854 70.049906 
L 75.058056 71.566646 
L 75.094711 71.566646 
L 75.209913 70.302696 
L 75.220386 70.302696 
L 75.335588 71.819436 
L 75.565992 71.819436 
L 75.681193 73.336176 
L 75.943016 73.336176 
L 76.058218 74.852915 
L 76.094873 74.852915 
L 76.210075 76.369655 
L 76.524262 76.369655 
L 76.639463 75.864075 
L 76.796557 75.864075 
L 76.890813 75.105705 
L 76.896049 76.622445 
L 76.901286 76.622445 
L 76.979833 76.622445 
L 77.095034 75.864075 
L 77.283547 75.864075 
L 77.403985 78.897555 
L 78.220871 78.897555 
L 78.336073 80.414295 
L 78.524585 80.414295 
L 78.639787 79.27674 
L 79.200087 79.27674 
L 79.226269 78.51837 
L 79.231505 80.03511 
L 79.304816 80.03511 
L 79.613766 80.03511 
L 79.692313 79.52953 
L 79.697549 81.04627 
L 79.713258 81.04627 
L 80.860041 81.04627 
L 80.975242 82.563009 
L 82.169153 82.563009 
L 82.284354 81.804639 
L 82.598541 81.804639 
L 82.666615 83.321379 
L 82.708507 82.815799 
L 83.106477 82.815799 
L 83.221679 82.310219 
L 83.404954 82.310219 
L 83.520156 81.55185 
L 84.253259 81.55185 
L 84.368461 83.068589 
L 85.138219 83.068589 
L 85.253421 84.585329 
L 86.133144 84.585329 
L 86.248346 83.826959 
L 86.630606 83.826959 
L 86.745808 83.068589 
L 87.573167 83.068589 
L 87.677896 82.310219 
L 87.798334 85.343699 
L 88.185832 85.343699 
L 88.238196 84.585329 
L 88.243432 86.102069 
L 88.29056 86.102069 
L 89.332614 86.102069 
L 89.447815 85.596489 
L 90.516051 85.596489 
L 90.631253 85.090909 
L 90.709799 85.090909 
L 90.830238 88.124389 
L 92.254552 88.124389 
L 92.369754 87.366019 
L 92.495428 87.366019 
L 92.61063 86.607649 
L 93.458935 86.607649 
L 93.574137 86.102069 
L 94.490515 86.102069 
L 94.605717 85.596489 
L 95.626824 85.596489 
L 95.742026 87.113229 
L 96.574621 87.113229 
L 96.689823 88.629969 
L 96.883572 88.629969 
L 96.998774 87.871599 
L 97.061611 87.871599 
L 97.176813 89.388339 
L 97.946571 89.388339 
L 98.061773 90.905078 
L 99.438958 90.905078 
L 99.55416 92.421818 
L 99.700781 92.421818 
L 99.815983 93.938558 
L 100.261081 93.938558 
L 100.376283 93.180188 
L 103.727609 93.180188 
L 103.842811 92.421818 
L 111.739375 92.421818 
L 111.854577 91.663448 
L 124.097393 91.663448 
L 124.212594 90.905078 
L 125.123736 90.905078 
L 125.238938 92.421818 
L 129.637555 92.421818 
L 129.752756 93.938558 
L 139.408767 93.938558 
L 139.523969 93.180188 
L 143.807383 93.180188 
L 143.922585 92.674608 
L 145.629667 92.674608 
L 145.744869 94.191348 
L 146.76074 94.191348 
L 146.875942 93.685768 
L 151.583509 93.685768 
L 151.69871 92.927398 
L 152.054789 92.927398 
L 152.169991 94.444138 
L 157.097488 94.444138 
L 157.21269 93.938558 
L 163.103694 93.938558 
L 163.218896 95.455298 
L 163.595921 95.455298 
L 163.711122 94.949718 
L 164.721757 94.949718 
L 164.836959 96.466458 
L 171.146879 96.466458 
L 171.262081 97.983197 
L 180.78718 97.983197 
L 180.902381 97.224828 
L 181.740213 97.224828 
L 181.855415 96.719248 
L 185.369072 96.719248 
L 185.484274 98.235987 
L 229.103886 98.235987 
L 229.219088 99.752727 
L 260.658722 99.752727 
L 260.773924 98.994357 
L 275.205575 98.994357 
L 275.320777 98.488777 
L 282.520893 98.488777 
L 282.636095 100.005517 
L 286.893327 100.005517 
L 287.008529 101.522257 
L 317.217598 101.522257 
L 317.3328 100.763887 
L 325.574969 100.763887 
L 325.690171 100.258307 
L 362.800879 100.258307 
L 362.916081 101.775047 
L 398.487273 101.775047 
L 398.487273 101.775047 
" clip-path="url(#p770f8ee89f)" style="fill: none; stroke: #2ca02c; stroke-width: 1.5; stroke-linecap: square"/>
   </g>
   <g id="line2d_15">
    <path d="M 73.832727 55.565041 
L 73.864146 55.565041 
L 73.989821 53.921906 
L 73.995057 53.921906 
L 74.089313 53.416326 
L 74.09455 54.933066 
L 74.16786 54.933066 
L 74.194042 56.449806 
L 74.277825 55.691436 
L 74.408737 55.691436 
L 74.523938 55.312251 
L 75.168022 55.312251 
L 75.257041 56.828991 
L 75.277987 56.449806 
L 75.419371 56.449806 
L 75.534573 56.070621 
L 75.744031 56.070621 
L 75.859233 55.691436 
L 76.414296 55.691436 
L 76.524262 55.312251 
L 76.639463 56.828991 
L 76.796557 56.828991 
L 76.911759 58.34573 
L 77.13169 58.34573 
L 77.246891 57.966545 
L 77.414458 57.966545 
L 77.52966 57.587361 
L 77.890975 57.587361 
L 78.006176 57.208176 
L 78.770698 57.208176 
L 78.8859 56.828991 
L 79.613766 56.828991 
L 79.728968 58.34573 
L 81.917803 58.34573 
L 82.033005 57.966545 
L 82.221517 57.966545 
L 82.336719 57.587361 
L 82.970329 57.587361 
L 83.085531 57.208176 
L 85.688046 57.208176 
L 85.803248 56.828991 
L 86.630606 56.828991 
L 86.745808 58.34573 
L 87.269453 58.34573 
L 87.384655 57.966545 
L 87.573167 57.966545 
L 87.588876 59.483285 
L 87.683132 59.1041 
L 90.516051 59.1041 
L 90.631253 60.62084 
L 92.495428 60.62084 
L 92.61063 62.13758 
L 92.657758 62.13758 
L 92.77296 61.758395 
L 95.097943 61.758395 
L 95.213145 61.37921 
L 95.286455 61.37921 
L 95.401657 61.000025 
L 98.014645 61.000025 
L 98.129846 60.62084 
L 100.805671 60.62084 
L 100.920873 60.241655 
L 108.628925 60.241655 
L 108.744127 59.86247 
L 120.88745 59.86247 
L 121.002652 59.483285 
L 143.807383 59.483285 
L 143.922585 61.000025 
L 144.247245 61.000025 
L 144.362447 60.62084 
L 148.122216 60.62084 
L 148.237418 60.241655 
L 154.714905 60.241655 
L 154.830106 59.86247 
L 157.097488 59.86247 
L 157.21269 61.37921 
L 160.276012 61.37921 
L 160.391214 61.000025 
L 178.676891 61.000025 
L 178.792093 60.62084 
L 180.78718 60.62084 
L 180.902381 62.13758 
L 181.740213 62.13758 
L 181.855415 63.65432 
L 205.796456 63.65432 
L 205.911658 63.275135 
L 261.056692 63.275135 
L 261.171894 62.89595 
L 295.151206 62.89595 
L 295.266408 62.516765 
L 321.453885 62.516765 
L 321.569087 62.13758 
L 356.904638 62.13758 
L 357.01984 61.758395 
L 398.487273 61.758395 
L 398.487273 61.758395 
" clip-path="url(#p770f8ee89f)" style="fill: none; stroke: #d62728; stroke-width: 1.5; stroke-linecap: square"/>
   </g>
   <g id="line2d_16">
    <path d="M 73.832727 55.185856 
L 73.8432 55.185856 
L 73.958402 54.882508 
L 74.073604 54.882508 
L 74.194042 53.871348 
L 75.168022 53.871348 
L 75.283223 53.365768 
L 76.524262 53.365768 
L 76.639463 52.860188 
L 78.63455 52.860188 
L 78.749752 52.481003 
L 79.613766 52.481003 
L 79.728968 51.975423 
L 90.516051 51.975423 
L 90.631253 51.469843 
L 143.807383 51.469843 
L 143.922585 50.964263 
L 181.740213 50.964263 
L 181.855415 50.458683 
L 398.487273 50.458683 
L 398.487273 50.458683 
" clip-path="url(#p770f8ee89f)" style="fill: none; stroke: #9467bd; stroke-width: 1.5; stroke-linecap: square"/>
   </g>
   <g id="line2d_17">
    <path d="M 73.832727 55.565041 
L 73.953166 53.795511 
L 74.131205 53.795511 
L 74.251643 52.531561 
L 74.581539 52.531561 
L 74.696741 52.025981 
L 75.094711 52.025981 
L 75.209913 51.267611 
L 76.796557 51.267611 
L 76.911759 50.509241 
L 86.630606 50.509241 
L 86.745808 49.750871 
L 87.573167 49.750871 
L 87.688369 48.992502 
L 92.495428 48.992502 
L 92.61063 48.234132 
L 157.097488 48.234132 
L 157.21269 47.728552 
L 180.78718 47.728552 
L 180.902381 46.970182 
L 398.487273 46.970182 
L 398.487273 46.970182 
" clip-path="url(#p770f8ee89f)" style="fill: none; stroke: #8c564b; stroke-width: 1.5; stroke-linecap: square"/>
   </g>
   <g id="line2d_18">
    <path d="M 73.832727 55.185856 
L 73.8432 55.185856 
L 73.963638 54.503323 
L 74.073604 54.503323 
L 74.194042 53.492163 
L 75.168022 53.492163 
L 75.283223 52.986583 
L 76.524262 52.986583 
L 76.639463 52.481003 
L 78.63455 52.481003 
L 78.749752 52.101818 
L 79.613766 52.101818 
L 79.728968 51.596238 
L 90.516051 51.596238 
L 90.631253 51.090658 
L 143.807383 51.090658 
L 143.922585 50.585078 
L 181.740213 50.585078 
L 181.855415 50.079498 
L 398.487273 50.079498 
L 398.487273 50.079498 
" clip-path="url(#p770f8ee89f)" style="fill: none; stroke: #e377c2; stroke-width: 1.5; stroke-linecap: square"/>
   </g>
   <g id="line2d_19">
    <path d="M 73.832727 57.081781 
L 73.837964 57.081781 
L 73.968875 64.1599 
L 74.073604 64.1599 
L 74.194042 67.193379 
L 74.31448 66.435009 
L 74.345899 66.435009 
L 74.361609 65.929429 
L 74.424446 68.583724 
L 74.429682 68.583724 
L 74.681032 68.583724 
L 74.796234 70.100464 
L 74.906199 70.100464 
L 75.021401 71.617204 
L 75.168022 71.617204 
L 75.220386 73.133944 
L 75.277987 72.249179 
L 75.419371 72.249179 
L 75.534573 71.869994 
L 75.565992 71.869994 
L 75.623593 71.364414 
L 75.628829 72.881154 
L 75.665484 72.881154 
L 75.744031 72.881154 
L 75.859233 72.501969 
L 76.335749 72.501969 
L 76.414296 74.018708 
L 76.445715 73.639524 
L 76.524262 73.639524 
L 76.639463 75.156263 
L 76.796557 75.156263 
L 76.911759 76.673003 
L 77.13169 76.673003 
L 77.246891 76.293818 
L 77.414458 76.293818 
L 77.52966 75.914633 
L 77.890975 75.914633 
L 77.990467 75.535448 
L 78.105669 77.052188 
L 78.220871 77.052188 
L 78.341309 76.041028 
L 78.414619 76.041028 
L 78.529821 77.557768 
L 78.770698 77.557768 
L 78.833535 77.178583 
L 78.838772 78.695323 
L 78.864954 78.695323 
L 79.613766 78.695323 
L 79.692313 80.212063 
L 79.723731 79.706483 
L 80.174066 79.706483 
L 80.289268 81.223223 
L 81.917803 81.223223 
L 82.033005 80.844038 
L 82.221517 80.844038 
L 82.336719 80.464853 
L 82.462394 80.464853 
L 82.577596 81.981592 
L 82.970329 81.981592 
L 83.085531 81.602408 
L 84.242786 81.602408 
L 84.357988 83.119147 
L 84.981125 83.119147 
L 85.096327 84.635887 
L 85.688046 84.635887 
L 85.803248 84.256702 
L 86.630606 84.256702 
L 86.745808 85.773442 
L 87.269453 85.773442 
L 87.384655 85.394257 
L 87.573167 85.394257 
L 87.588876 86.910997 
L 87.683132 86.531812 
L 87.709315 86.531812 
L 87.824517 86.026232 
L 90.516051 86.026232 
L 90.631253 87.542972 
L 92.495428 87.542972 
L 92.615867 90.576451 
L 92.657758 90.576451 
L 92.77296 90.197266 
L 94.385786 90.197266 
L 94.500988 91.714006 
L 95.097943 91.714006 
L 95.213145 91.334821 
L 95.286455 91.334821 
L 95.401657 90.955636 
L 96.574621 90.955636 
L 96.689823 90.450056 
L 97.061611 90.450056 
L 97.176813 89.944476 
L 97.742349 89.944476 
L 97.857551 91.461216 
L 98.014645 91.461216 
L 98.129846 91.082031 
L 99.438958 91.082031 
L 99.55416 90.576451 
L 100.805671 90.576451 
L 100.920873 90.197266 
L 102.214276 90.197266 
L 102.329478 91.714006 
L 105.251416 91.714006 
L 105.366618 93.230746 
L 108.628925 93.230746 
L 108.744127 92.851561 
L 111.315223 92.851561 
L 111.430425 94.368301 
L 116.483597 94.368301 
L 116.598799 95.885041 
L 120.88745 95.885041 
L 121.002652 95.505856 
L 125.123736 95.505856 
L 125.238938 95.000276 
L 136.177878 95.000276 
L 136.29308 96.517016 
L 143.807383 96.517016 
L 143.922585 98.033755 
L 144.247245 98.033755 
L 144.362447 97.654571 
L 145.629667 97.654571 
L 145.744869 97.148991 
L 145.776288 97.148991 
L 145.89149 98.66573 
L 148.122216 98.66573 
L 148.237418 98.286545 
L 154.714905 98.286545 
L 154.830106 97.907361 
L 157.097488 97.907361 
L 157.21269 99.4241 
L 157.971975 99.4241 
L 158.087177 100.94084 
L 160.276012 100.94084 
L 160.391214 100.561655 
L 163.103694 100.561655 
L 163.218896 100.056075 
L 164.721757 100.056075 
L 164.836959 99.550495 
L 178.676891 99.550495 
L 178.792093 99.17131 
L 180.78718 99.17131 
L 180.902381 100.68805 
L 181.740213 100.68805 
L 181.855415 102.20479 
L 205.796456 102.20479 
L 205.911658 101.825605 
L 229.103886 101.825605 
L 229.219088 101.320025 
L 256.553347 101.320025 
L 256.668549 102.836765 
L 261.056692 102.836765 
L 261.171894 102.45758 
L 276.813165 102.45758 
L 276.928367 103.97432 
L 295.151206 103.97432 
L 295.266408 103.595135 
L 314.876906 103.595135 
L 314.992108 105.111875 
L 321.453885 105.111875 
L 321.569087 104.73269 
L 356.904638 104.73269 
L 357.01984 104.353505 
L 398.487273 104.353505 
L 398.487273 104.353505 
" clip-path="url(#p770f8ee89f)" style="fill: none; stroke: #7f7f7f; stroke-width: 1.5; stroke-linecap: square"/>
   </g>
   <g id="line2d_20">
    <path d="M 73.832727 57.081781 
L 73.947929 61.252815 
L 73.953166 60.747235 
L 74.010767 58.724915 
L 74.063131 60.241655 
L 74.073604 60.241655 
L 74.110259 59.736075 
L 74.141678 64.286295 
L 74.162624 64.286295 
L 74.288298 69.089304 
L 74.335426 69.089304 
L 74.366845 69.594884 
L 74.455865 67.698959 
L 74.508229 67.698959 
L 74.518702 67.193379 
L 74.586776 70.226859 
L 74.592012 70.226859 
L 74.602485 70.226859 
L 74.681032 69.721279 
L 74.686268 71.238019 
L 74.707214 70.479649 
L 74.906199 70.479649 
L 74.942854 68.962909 
L 75.016165 70.479649 
L 75.094711 70.479649 
L 75.209913 71.996389 
L 75.220386 71.996389 
L 75.335588 71.111624 
L 75.419371 71.111624 
L 75.534573 70.732439 
L 75.565992 70.732439 
L 75.696903 68.710119 
L 75.744031 68.710119 
L 75.859233 68.330934 
L 75.943016 68.330934 
L 76.058218 69.847674 
L 76.094873 69.847674 
L 76.210075 71.364414 
L 76.335749 71.364414 
L 76.450951 69.468489 
L 76.492843 69.468489 
L 76.608045 70.985229 
L 76.796557 70.985229 
L 76.890813 72.501969 
L 76.906522 71.743599 
L 76.979833 71.743599 
L 77.095034 73.260339 
L 77.13169 73.260339 
L 77.246891 72.881154 
L 77.283547 72.881154 
L 77.403985 71.617204 
L 77.414458 71.617204 
L 77.51395 71.238019 
L 77.634389 74.271498 
L 77.67628 74.271498 
L 77.791482 75.788238 
L 77.890975 75.788238 
L 78.021886 73.892313 
L 78.137088 75.409053 
L 78.220871 75.409053 
L 78.30989 74.903473 
L 78.315127 76.420213 
L 78.320363 76.420213 
L 78.414619 76.420213 
L 78.524585 74.903473 
L 78.63455 76.420213 
L 78.749752 76.041028 
L 78.770698 76.041028 
L 78.833535 75.661843 
L 78.838772 77.178583 
L 78.864954 77.178583 
L 79.200087 77.178583 
L 79.226269 78.695323 
L 79.310052 78.189743 
L 79.692313 78.189743 
L 79.807515 77.684163 
L 80.174066 77.684163 
L 80.289268 76.167423 
L 80.860041 76.167423 
L 80.975242 75.661843 
L 81.258011 75.661843 
L 81.373213 77.178583 
L 81.917803 77.178583 
L 82.033005 76.799398 
L 82.169153 76.799398 
L 82.221517 78.316138 
L 82.279118 77.936953 
L 82.462394 77.936953 
L 82.577596 76.420213 
L 82.598541 76.420213 
L 82.666615 75.661843 
L 82.671852 77.178583 
L 82.70327 77.178583 
L 82.970329 77.178583 
L 83.085531 76.799398 
L 83.106477 76.799398 
L 83.221679 78.316138 
L 83.404954 78.316138 
L 83.520156 79.832878 
L 84.242786 79.832878 
L 84.253259 78.316138 
L 84.352751 79.832878 
L 84.981125 79.832878 
L 85.096327 78.316138 
L 85.138219 78.316138 
L 85.253421 77.810558 
L 85.688046 77.810558 
L 85.803248 77.431373 
L 86.133144 77.431373 
L 86.248346 78.948113 
L 86.630606 78.948113 
L 86.745808 80.464853 
L 87.269453 80.464853 
L 87.384655 80.085668 
L 87.573167 80.085668 
L 87.588876 81.602408 
L 87.683132 80.464853 
L 87.709315 80.464853 
L 87.824517 79.959273 
L 88.185832 79.959273 
L 88.238196 81.476013 
L 88.295797 80.970433 
L 89.332614 80.970433 
L 89.447815 82.487172 
L 90.709799 82.487172 
L 90.830238 81.223223 
L 92.254552 81.223223 
L 92.369754 82.739962 
L 92.495428 82.739962 
L 92.589684 84.256702 
L 92.605394 82.739962 
L 92.657758 82.739962 
L 92.77296 82.360777 
L 93.458935 82.360777 
L 93.574137 83.877517 
L 94.385786 83.877517 
L 94.490515 82.360777 
L 94.495751 83.877517 
L 95.097943 83.877517 
L 95.213145 83.498332 
L 95.286455 83.498332 
L 95.401657 83.119147 
L 95.626824 83.119147 
L 95.742026 82.613567 
L 96.574621 82.613567 
L 96.689823 82.107987 
L 96.883572 82.107987 
L 96.998774 83.624727 
L 97.061611 83.624727 
L 97.176813 83.119147 
L 97.742349 83.119147 
L 97.857551 81.602408 
L 97.946571 81.602408 
L 98.014645 83.119147 
L 98.056536 82.739962 
L 98.098428 82.739962 
L 98.21363 84.256702 
L 99.438958 84.256702 
L 99.55416 83.751122 
L 99.700781 83.751122 
L 99.815983 85.267862 
L 100.261081 85.267862 
L 100.376283 86.784602 
L 100.805671 86.784602 
L 100.920873 86.405417 
L 102.214276 86.405417 
L 102.329478 84.888677 
L 103.727609 84.888677 
L 103.842811 86.405417 
L 105.251416 86.405417 
L 105.366618 84.888677 
L 108.628925 84.888677 
L 108.744127 84.509492 
L 111.315223 84.509492 
L 111.430425 82.992752 
L 111.739375 82.992752 
L 111.854577 84.509492 
L 116.483597 84.509492 
L 116.598799 86.026232 
L 120.88745 86.026232 
L 121.002652 85.647047 
L 122.845881 85.647047 
L 122.961083 87.163787 
L 124.097393 87.163787 
L 124.212594 88.680527 
L 125.123736 88.680527 
L 125.238938 88.174947 
L 129.637555 88.174947 
L 129.752756 87.669367 
L 136.177878 87.669367 
L 136.29308 86.152627 
L 139.408767 86.152627 
L 139.523969 87.669367 
L 144.247245 87.669367 
L 144.362447 87.290182 
L 145.629667 87.290182 
L 145.744869 86.784602 
L 145.776288 86.784602 
L 145.89149 85.267862 
L 146.76074 85.267862 
L 146.875942 86.784602 
L 148.122216 86.784602 
L 148.237418 86.405417 
L 151.583509 86.405417 
L 151.69871 87.922157 
L 152.054789 87.922157 
L 152.169991 87.416577 
L 154.714905 87.416577 
L 154.830106 87.037392 
L 157.097488 87.037392 
L 157.21269 88.554132 
L 157.971975 88.554132 
L 158.087177 87.037392 
L 160.276012 87.037392 
L 160.391214 86.658207 
L 163.103694 86.658207 
L 163.218896 86.152627 
L 163.595921 86.152627 
L 163.711122 87.669367 
L 164.721757 87.669367 
L 164.836959 87.163787 
L 171.146879 87.163787 
L 171.262081 88.680527 
L 178.676891 88.680527 
L 178.792093 88.301342 
L 180.78718 88.301342 
L 180.902381 89.818082 
L 185.369072 89.818082 
L 185.484274 89.312502 
L 201.078416 89.312502 
L 201.193618 90.829241 
L 205.796456 90.829241 
L 205.911658 90.450056 
L 221.631475 90.450056 
L 221.746677 91.966796 
L 229.103886 91.966796 
L 229.219088 91.461216 
L 256.553347 91.461216 
L 256.668549 89.944476 
L 260.658722 89.944476 
L 260.773924 91.461216 
L 261.056692 91.461216 
L 261.171894 91.082031 
L 275.205575 91.082031 
L 275.320777 92.598771 
L 276.813165 92.598771 
L 276.928367 91.082031 
L 282.520893 91.082031 
L 282.636095 90.576451 
L 286.893327 90.576451 
L 287.008529 90.070871 
L 288.270513 90.070871 
L 288.385715 91.587611 
L 295.151206 91.587611 
L 295.266408 91.208426 
L 314.876906 91.208426 
L 314.992108 89.691687 
L 317.217598 89.691687 
L 317.3328 91.208426 
L 321.453885 91.208426 
L 321.569087 90.829241 
L 325.574969 90.829241 
L 325.690171 92.345981 
L 332.654647 92.345981 
L 332.769849 93.862721 
L 356.904638 93.862721 
L 357.01984 93.483536 
L 362.800879 93.483536 
L 362.916081 92.977956 
L 398.487273 92.977956 
L 398.487273 92.977956 
" clip-path="url(#p770f8ee89f)" style="fill: none; stroke: #bcbd22; stroke-width: 1.5; stroke-linecap: square"/>
   </g>
   <g id="line2d_21">
    <path d="M 73.832727 57.081781 
L 73.837964 57.081781 
L 73.968875 63.022345 
L 74.010767 63.022345 
L 74.146914 70.606044 
L 74.16786 70.606044 
L 74.194042 73.133944 
L 74.277825 72.375574 
L 74.361609 70.606044 
L 74.387791 72.122784 
L 74.408737 72.122784 
L 74.419209 71.743599 
L 74.424446 73.260339 
L 74.502993 73.260339 
L 74.508229 73.260339 
L 74.518702 72.754759 
L 74.523938 74.271498 
L 74.612958 73.765918 
L 74.681032 73.765918 
L 74.691505 75.282658 
L 74.790997 74.524288 
L 74.906199 74.524288 
L 75.021401 76.041028 
L 75.168022 76.041028 
L 75.220386 77.557768 
L 75.277987 76.673003 
L 75.419371 76.673003 
L 75.534573 76.293818 
L 75.565992 76.293818 
L 75.623593 75.788238 
L 75.628829 77.304978 
L 75.665484 77.304978 
L 75.744031 77.304978 
L 75.859233 76.925793 
L 76.335749 76.925793 
L 76.414296 78.442533 
L 76.445715 78.063348 
L 76.492843 78.063348 
L 76.613281 81.096828 
L 76.796557 81.096828 
L 76.890813 82.613567 
L 76.906522 81.855197 
L 76.979833 81.855197 
L 77.095034 83.371937 
L 77.13169 83.371937 
L 77.246891 82.992752 
L 77.283547 82.992752 
L 77.403985 81.728803 
L 77.414458 81.728803 
L 77.51395 81.349618 
L 77.634389 84.383097 
L 77.67628 84.383097 
L 77.791482 85.899837 
L 77.890975 85.899837 
L 77.990467 85.520652 
L 78.110905 88.554132 
L 78.220871 88.554132 
L 78.341309 87.542972 
L 78.414619 87.542972 
L 78.535058 90.576451 
L 78.770698 90.576451 
L 78.833535 90.197266 
L 78.838772 91.714006 
L 78.864954 91.714006 
L 79.200087 91.714006 
L 79.226269 93.230746 
L 79.310052 92.725166 
L 79.613766 92.725166 
L 79.692313 94.241906 
L 79.723731 93.736326 
L 80.174066 93.736326 
L 80.289268 95.253066 
L 80.860041 95.253066 
L 80.975242 94.747486 
L 81.258011 94.747486 
L 81.373213 96.264226 
L 81.917803 96.264226 
L 82.033005 95.885041 
L 82.169153 95.885041 
L 82.221517 97.401781 
L 82.279118 97.022596 
L 82.462394 97.022596 
L 82.577596 98.539335 
L 82.598541 98.539335 
L 82.666615 97.780966 
L 82.671852 99.297705 
L 82.70327 99.297705 
L 82.970329 99.297705 
L 83.085531 98.91852 
L 83.106477 98.91852 
L 83.221679 100.43526 
L 83.404954 100.43526 
L 83.520156 101.952 
L 84.242786 101.952 
L 84.357988 103.46874 
L 84.981125 103.46874 
L 85.096327 104.98548 
L 85.138219 104.98548 
L 85.253421 104.4799 
L 85.688046 104.4799 
L 85.803248 104.100715 
L 86.133144 104.100715 
L 86.248346 105.617455 
L 86.630606 105.617455 
L 86.745808 107.134194 
L 87.269453 107.134194 
L 87.384655 106.755009 
L 87.573167 106.755009 
L 87.588876 108.271749 
L 87.683132 107.134194 
L 87.709315 107.134194 
L 87.824517 106.628614 
L 88.185832 106.628614 
L 88.238196 108.145354 
L 88.295797 107.639774 
L 89.332614 107.639774 
L 89.447815 109.156514 
L 90.516051 109.156514 
L 90.631253 110.673254 
L 90.709799 110.673254 
L 90.830238 109.409304 
L 92.254552 109.409304 
L 92.369754 110.926044 
L 92.495428 110.926044 
L 92.615867 113.959524 
L 92.657758 113.959524 
L 92.77296 113.580339 
L 93.458935 113.580339 
L 93.574137 115.097078 
L 94.385786 115.097078 
L 94.506224 118.130558 
L 95.097943 118.130558 
L 95.213145 117.751373 
L 95.286455 117.751373 
L 95.401657 117.372188 
L 95.626824 117.372188 
L 95.742026 116.866608 
L 96.574621 116.866608 
L 96.689823 116.361028 
L 96.883572 116.361028 
L 96.998774 117.877768 
L 97.061611 117.877768 
L 97.176813 117.372188 
L 97.742349 117.372188 
L 97.857551 118.888928 
L 98.014645 118.888928 
L 98.098428 118.509743 
L 98.103664 120.026483 
L 98.108901 120.026483 
L 99.438958 120.026483 
L 99.55416 119.520903 
L 100.261081 119.520903 
L 100.376283 121.037643 
L 100.805671 121.037643 
L 100.920873 120.658458 
L 102.214276 120.658458 
L 102.329478 122.175197 
L 103.727609 122.175197 
L 103.842811 123.691937 
L 105.251416 123.691937 
L 105.366618 125.208677 
L 108.628925 125.208677 
L 108.744127 124.829492 
L 111.315223 124.829492 
L 111.430425 126.346232 
L 111.739375 126.346232 
L 111.854577 127.862972 
L 116.483597 127.862972 
L 116.598799 129.379712 
L 120.88745 129.379712 
L 121.002652 129.000527 
L 122.845881 129.000527 
L 122.961083 130.517266 
L 124.097393 130.517266 
L 124.212594 132.034006 
L 125.123736 132.034006 
L 125.238938 131.528426 
L 129.637555 131.528426 
L 129.752756 131.022846 
L 136.177878 131.022846 
L 136.29308 132.539586 
L 139.408767 132.539586 
L 139.523969 134.056326 
L 143.807383 134.056326 
L 143.922585 135.573066 
L 144.247245 135.573066 
L 144.362447 135.193881 
L 145.629667 135.193881 
L 145.744869 134.688301 
L 145.776288 134.688301 
L 145.89149 136.205041 
L 146.76074 136.205041 
L 146.875942 137.721781 
L 148.122216 137.721781 
L 148.237418 137.342596 
L 151.583509 137.342596 
L 151.69871 138.859335 
L 152.054789 138.859335 
L 152.169991 138.353755 
L 154.714905 138.353755 
L 154.830106 137.974571 
L 157.097488 137.974571 
L 157.21269 139.49131 
L 157.971975 139.49131 
L 158.087177 141.00805 
L 160.276012 141.00805 
L 160.391214 140.628865 
L 163.103694 140.628865 
L 163.218896 140.123285 
L 163.595921 140.123285 
L 163.711122 141.640025 
L 164.721757 141.640025 
L 164.836959 141.134445 
L 178.676891 141.134445 
L 178.792093 140.75526 
L 180.78718 140.75526 
L 180.902381 142.272 
L 181.740213 142.272 
L 181.855415 143.78874 
L 185.369072 143.78874 
L 185.484274 143.28316 
L 201.078416 143.28316 
L 201.193618 144.7999 
L 205.796456 144.7999 
L 205.911658 144.420715 
L 221.631475 144.420715 
L 221.746677 145.937455 
L 229.103886 145.937455 
L 229.219088 145.431875 
L 256.553347 145.431875 
L 256.668549 146.948614 
L 260.658722 146.948614 
L 260.773924 148.465354 
L 261.056692 148.465354 
L 261.171894 148.086169 
L 275.205575 148.086169 
L 275.320777 149.602909 
L 276.813165 149.602909 
L 276.928367 151.119649 
L 282.520893 151.119649 
L 282.636095 150.614069 
L 286.893327 150.614069 
L 287.008529 150.108489 
L 288.270513 150.108489 
L 288.385715 151.625229 
L 295.151206 151.625229 
L 295.266408 151.246044 
L 314.876906 151.246044 
L 314.992108 152.762784 
L 317.217598 152.762784 
L 317.3328 154.279524 
L 321.453885 154.279524 
L 321.569087 153.900339 
L 325.574969 153.900339 
L 325.690171 155.417078 
L 332.654647 155.417078 
L 332.769849 156.933818 
L 356.904638 156.933818 
L 357.01984 156.554633 
L 362.800879 156.554633 
L 362.916081 156.049053 
L 398.487273 156.049053 
L 398.487273 156.049053 
" clip-path="url(#p770f8ee89f)" style="fill: none; stroke: #17becf; stroke-width: 1.5; stroke-linecap: square"/>
   </g>
   <g id="line2d_22">
    <path d="M 73.832727 55.565041 
L 73.958402 60.11526 
L 74.131205 60.11526 
L 74.251643 63.14874 
L 74.581539 63.14874 
L 74.696741 64.66548 
L 75.094711 64.66548 
L 75.209913 66.182219 
L 76.796557 66.182219 
L 76.911759 67.698959 
L 86.630606 67.698959 
L 86.745808 69.215699 
L 87.573167 69.215699 
L 87.688369 70.732439 
L 92.495428 70.732439 
L 92.61063 72.249179 
L 157.097488 72.249179 
L 157.21269 73.765918 
L 180.78718 73.765918 
L 180.902381 75.282658 
L 398.487273 75.282658 
L 398.487273 75.282658 
" clip-path="url(#p770f8ee89f)" style="fill: none; stroke: #1f77b4; stroke-width: 1.5; stroke-linecap: square"/>
   </g>
   <g id="line2d_23">
    <path d="M 73.832727 55.565041 
L 73.8432 55.565041 
L 73.911274 53.744953 
L 73.958402 55.261693 
L 73.963638 55.261693 
L 74.089313 50.711473 
L 74.125968 50.711473 
L 74.24117 49.194734 
L 398.487273 49.194734 
L 398.487273 49.194734 
" clip-path="url(#p770f8ee89f)" style="fill: none; stroke: #ff7f0e; stroke-width: 1.5; stroke-linecap: square"/>
   </g>
   <g id="patch_3">
    <path d="M 57.6 162.432 
L 57.6 41.472 
" style="fill: none; stroke: #000000; stroke-width: 0.8; stroke-linejoin: miter; stroke-linecap: square"/>
   </g>
   <g id="patch_4">
    <path d="M 414.72 162.432 
L 414.72 41.472 
" style="fill: none; stroke: #000000; stroke-width: 0.8; stroke-linejoin: miter; stroke-linecap: square"/>
   </g>
   <g id="patch_5">
    <path d="M 57.6 162.432 
L 414.72 162.432 
" style="fill: none; stroke: #000000; stroke-width: 0.8; stroke-linejoin: miter; stroke-linecap: square"/>
   </g>
   <g id="patch_6">
    <path d="M 57.6 41.472 
L 414.72 41.472 
" style="fill: none; stroke: #000000; stroke-width: 0.8; stroke-linejoin: miter; stroke-linecap: square"/>
   </g>
   <g id="text_12">
    <!-- WSP -->
    <g transform="translate(361.832136 77.633605)scale(0.08 -0.08)">
     <defs>
      <path id="DejaVuSans-57" d="M 213 4666 
L 850 4666 
L 1831 722 
L 2809 4666 
L 3519 4666 
L 4500 722 
L 5478 4666 
L 6119 4666 
L 4947 0 
L 4153 0 
L 3169 4050 
L 2175 0 
L 1381 0 
L 213 4666 
z
" transform="scale(0.015625)"/>
      <path id="DejaVuSans-53" d="M 3425 4513 
L 3425 3897 
Q 3066 4069 2747 4153 
Q 2428 4238 2131 4238 
Q 1616 4238 1336 4038 
Q 1056 3838 1056 3469 
Q 1056 3159 1242 3001 
Q 1428 2844 1947 2747 
L 2328 2669 
Q 3034 2534 3370 2195 
Q 3706 1856 3706 1288 
Q 3706 609 3251 259 
Q 2797 -91 1919 -91 
Q 1588 -91 1214 -16 
Q 841 59 441 206 
L 441 856 
Q 825 641 1194 531 
Q 1563 422 1919 422 
Q 2459 422 2753 634 
Q 3047 847 3047 1241 
Q 3047 1584 2836 1778 
Q 2625 1972 2144 2069 
L 1759 2144 
Q 1053 2284 737 2584 
Q 422 2884 422 3419 
Q 422 4038 858 4394 
Q 1294 4750 2059 4750 
Q 2388 4750 2728 4690 
Q 3069 4631 3425 4513 
z
" transform="scale(0.015625)"/>
      <path id="DejaVuSans-50" d="M 1259 4147 
L 1259 2394 
L 2053 2394 
Q 2494 2394 2734 2622 
Q 2975 2850 2975 3272 
Q 2975 3691 2734 3919 
Q 2494 4147 2053 4147 
L 1259 4147 
z
M 628 4666 
L 2053 4666 
Q 2838 4666 3239 4311 
Q 3641 3956 3641 3272 
Q 3641 2581 3239 2228 
Q 2838 1875 2053 1875 
L 1259 1875 
L 1259 0 
L 628 0 
L 628 4666 
z
" transform="scale(0.015625)"/>
     </defs>
     <use xlink:href="#DejaVuSans-57"/>
     <use xlink:href="#DejaVuSans-53" x="98.876953"/>
     <use xlink:href="#DejaVuSans-50" x="162.353516"/>
    </g>
   </g>
   <g id="text_13">
    <!-- Iambic -->
    <g transform="translate(361.832136 88.427737)scale(0.08 -0.08)">
     <defs>
      <path id="DejaVuSans-49" d="M 628 4666 
L 1259 4666 
L 1259 0 
L 628 0 
L 628 4666 
z
" transform="scale(0.015625)"/>
      <path id="DejaVuSans-61" d="M 2194 1759 
Q 1497 1759 1228 1600 
Q 959 1441 959 1056 
Q 959 750 1161 570 
Q 1363 391 1709 391 
Q 2188 391 2477 730 
Q 2766 1069 2766 1631 
L 2766 1759 
L 2194 1759 
z
M 3341 1997 
L 3341 0 
L 2766 0 
L 2766 531 
Q 2569 213 2275 61 
Q 1981 -91 1556 -91 
Q 1019 -91 701 211 
Q 384 513 384 1019 
Q 384 1609 779 1909 
Q 1175 2209 1959 2209 
L 2766 2209 
L 2766 2266 
Q 2766 2663 2505 2880 
Q 2244 3097 1772 3097 
Q 1472 3097 1187 3025 
Q 903 2953 641 2809 
L 641 3341 
Q 956 3463 1253 3523 
Q 1550 3584 1831 3584 
Q 2591 3584 2966 3190 
Q 3341 2797 3341 1997 
z
" transform="scale(0.015625)"/>
      <path id="DejaVuSans-6d" d="M 3328 2828 
Q 3544 3216 3844 3400 
Q 4144 3584 4550 3584 
Q 5097 3584 5394 3201 
Q 5691 2819 5691 2113 
L 5691 0 
L 5113 0 
L 5113 2094 
Q 5113 2597 4934 2840 
Q 4756 3084 4391 3084 
Q 3944 3084 3684 2787 
Q 3425 2491 3425 1978 
L 3425 0 
L 2847 0 
L 2847 2094 
Q 2847 2600 2669 2842 
Q 2491 3084 2119 3084 
Q 1678 3084 1418 2786 
Q 1159 2488 1159 1978 
L 1159 0 
L 581 0 
L 581 3500 
L 1159 3500 
L 1159 2956 
Q 1356 3278 1631 3431 
Q 1906 3584 2284 3584 
Q 2666 3584 2933 3390 
Q 3200 3197 3328 2828 
z
" transform="scale(0.015625)"/>
      <path id="DejaVuSans-62" d="M 3116 1747 
Q 3116 2381 2855 2742 
Q 2594 3103 2138 3103 
Q 1681 3103 1420 2742 
Q 1159 2381 1159 1747 
Q 1159 1113 1420 752 
Q 1681 391 2138 391 
Q 2594 391 2855 752 
Q 3116 1113 3116 1747 
z
M 1159 2969 
Q 1341 3281 1617 3432 
Q 1894 3584 2278 3584 
Q 2916 3584 3314 3078 
Q 3713 2572 3713 1747 
Q 3713 922 3314 415 
Q 2916 -91 2278 -91 
Q 1894 -91 1617 61 
Q 1341 213 1159 525 
L 1159 0 
L 581 0 
L 581 4863 
L 1159 4863 
L 1159 2969 
z
" transform="scale(0.015625)"/>
      <path id="DejaVuSans-69" d="M 603 3500 
L 1178 3500 
L 1178 0 
L 603 0 
L 603 3500 
z
M 603 4863 
L 1178 4863 
L 1178 4134 
L 603 4134 
L 603 4863 
z
" transform="scale(0.015625)"/>
      <path id="DejaVuSans-63" d="M 3122 3366 
L 3122 2828 
Q 2878 2963 2633 3030 
Q 2388 3097 2138 3097 
Q 1578 3097 1268 2742 
Q 959 2388 959 1747 
Q 959 1106 1268 751 
Q 1578 397 2138 397 
Q 2388 397 2633 464 
Q 2878 531 3122 666 
L 3122 134 
Q 2881 22 2623 -34 
Q 2366 -91 2075 -91 
Q 1284 -91 818 406 
Q 353 903 353 1747 
Q 353 2603 823 3093 
Q 1294 3584 2113 3584 
Q 2378 3584 2631 3529 
Q 2884 3475 3122 3366 
z
" transform="scale(0.015625)"/>
     </defs>
     <use xlink:href="#DejaVuSans-49"/>
     <use xlink:href="#DejaVuSans-61" x="29.492188"/>
     <use xlink:href="#DejaVuSans-6d" x="90.771484"/>
     <use xlink:href="#DejaVuSans-62" x="188.183594"/>
     <use xlink:href="#DejaVuSans-69" x="251.660156"/>
     <use xlink:href="#DejaVuSans-63" x="279.443359"/>
    </g>
   </g>
   <g id="text_14">
    <!-- Parse -->
    <g transform="translate(361.832136 101.775047)scale(0.08 -0.08)">
     <defs>
      <path id="DejaVuSans-72" d="M 2631 2963 
Q 2534 3019 2420 3045 
Q 2306 3072 2169 3072 
Q 1681 3072 1420 2755 
Q 1159 2438 1159 1844 
L 1159 0 
L 581 0 
L 581 3500 
L 1159 3500 
L 1159 2956 
Q 1341 3275 1631 3429 
Q 1922 3584 2338 3584 
Q 2397 3584 2469 3576 
Q 2541 3569 2628 3553 
L 2631 2963 
z
" transform="scale(0.015625)"/>
      <path id="DejaVuSans-73" d="M 2834 3397 
L 2834 2853 
Q 2591 2978 2328 3040 
Q 2066 3103 1784 3103 
Q 1356 3103 1142 2972 
Q 928 2841 928 2578 
Q 928 2378 1081 2264 
Q 1234 2150 1697 2047 
L 1894 2003 
Q 2506 1872 2764 1633 
Q 3022 1394 3022 966 
Q 3022 478 2636 193 
Q 2250 -91 1575 -91 
Q 1294 -91 989 -36 
Q 684 19 347 128 
L 347 722 
Q 666 556 975 473 
Q 1284 391 1588 391 
Q 1994 391 2212 530 
Q 2431 669 2431 922 
Q 2431 1156 2273 1281 
Q 2116 1406 1581 1522 
L 1381 1569 
Q 847 1681 609 1914 
Q 372 2147 372 2553 
Q 372 3047 722 3315 
Q 1072 3584 1716 3584 
Q 2034 3584 2315 3537 
Q 2597 3491 2834 3397 
z
" transform="scale(0.015625)"/>
      <path id="DejaVuSans-65" d="M 3597 1894 
L 3597 1613 
L 953 1613 
Q 991 1019 1311 708 
Q 1631 397 2203 397 
Q 2534 397 2845 478 
Q 3156 559 3463 722 
L 3463 178 
Q 3153 47 2828 -22 
Q 2503 -91 2169 -91 
Q 1331 -91 842 396 
Q 353 884 353 1716 
Q 353 2575 817 3079 
Q 1281 3584 2069 3584 
Q 2775 3584 3186 3129 
Q 3597 2675 3597 1894 
z
M 3022 2063 
Q 3016 2534 2758 2815 
Q 2500 3097 2075 3097 
Q 1594 3097 1305 2825 
Q 1016 2553 972 2059 
L 3022 2063 
z
" transform="scale(0.015625)"/>
     </defs>
     <use xlink:href="#DejaVuSans-50"/>
     <use xlink:href="#DejaVuSans-61" x="55.802734"/>
     <use xlink:href="#DejaVuSans-72" x="117.082031"/>
     <use xlink:href="#DejaVuSans-73" x="158.195312"/>
     <use xlink:href="#DejaVuSans-65" x="210.294922"/>
    </g>
   </g>
   <g id="text_15">
    <!-- FootBin -->
    <g transform="translate(361.832136 61.758395)scale(0.08 -0.08)">
     <defs>
      <path id="DejaVuSans-46" d="M 628 4666 
L 3309 4666 
L 3309 4134 
L 1259 4134 
L 1259 2759 
L 3109 2759 
L 3109 2228 
L 1259 2228 
L 1259 0 
L 628 0 
L 628 4666 
z
" transform="scale(0.015625)"/>
      <path id="DejaVuSans-6f" d="M 1959 3097 
Q 1497 3097 1228 2736 
Q 959 2375 959 1747 
Q 959 1119 1226 758 
Q 1494 397 1959 397 
Q 2419 397 2687 759 
Q 2956 1122 2956 1747 
Q 2956 2369 2687 2733 
Q 2419 3097 1959 3097 
z
M 1959 3584 
Q 2709 3584 3137 3096 
Q 3566 2609 3566 1747 
Q 3566 888 3137 398 
Q 2709 -91 1959 -91 
Q 1206 -91 779 398 
Q 353 888 353 1747 
Q 353 2609 779 3096 
Q 1206 3584 1959 3584 
z
" transform="scale(0.015625)"/>
      <path id="DejaVuSans-74" d="M 1172 4494 
L 1172 3500 
L 2356 3500 
L 2356 3053 
L 1172 3053 
L 1172 1153 
Q 1172 725 1289 603 
Q 1406 481 1766 481 
L 2356 481 
L 2356 0 
L 1766 0 
Q 1100 0 847 248 
Q 594 497 594 1153 
L 594 3053 
L 172 3053 
L 172 3500 
L 594 3500 
L 594 4494 
L 1172 4494 
z
" transform="scale(0.015625)"/>
      <path id="DejaVuSans-42" d="M 1259 2228 
L 1259 519 
L 2272 519 
Q 2781 519 3026 730 
Q 3272 941 3272 1375 
Q 3272 1813 3026 2020 
Q 2781 2228 2272 2228 
L 1259 2228 
z
M 1259 4147 
L 1259 2741 
L 2194 2741 
Q 2656 2741 2882 2914 
Q 3109 3088 3109 3444 
Q 3109 3797 2882 3972 
Q 2656 4147 2194 4147 
L 1259 4147 
z
M 628 4666 
L 2241 4666 
Q 2963 4666 3353 4366 
Q 3744 4066 3744 3513 
Q 3744 3084 3544 2831 
Q 3344 2578 2956 2516 
Q 3422 2416 3680 2098 
Q 3938 1781 3938 1306 
Q 3938 681 3513 340 
Q 3088 0 2303 0 
L 628 0 
L 628 4666 
z
" transform="scale(0.015625)"/>
      <path id="DejaVuSans-6e" d="M 3513 2113 
L 3513 0 
L 2938 0 
L 2938 2094 
Q 2938 2591 2744 2837 
Q 2550 3084 2163 3084 
Q 1697 3084 1428 2787 
Q 1159 2491 1159 1978 
L 1159 0 
L 581 0 
L 581 3500 
L 1159 3500 
L 1159 2956 
Q 1366 3272 1645 3428 
Q 1925 3584 2291 3584 
Q 2894 3584 3203 3211 
Q 3513 2838 3513 2113 
z
" transform="scale(0.015625)"/>
     </defs>
     <use xlink:href="#DejaVuSans-46"/>
     <use xlink:href="#DejaVuSans-6f" x="53.894531"/>
     <use xlink:href="#DejaVuSans-6f" x="115.076172"/>
     <use xlink:href="#DejaVuSans-74" x="176.257812"/>
     <use xlink:href="#DejaVuSans-42" x="215.466797"/>
     <use xlink:href="#DejaVuSans-69" x="284.070312"/>
     <use xlink:href="#DejaVuSans-6e" x="311.853516"/>
    </g>
   </g>
   <g id="text_16">
    <!-- WFL -->
    <g transform="translate(361.832136 50.458683)scale(0.08 -0.08)">
     <defs>
      <path id="DejaVuSans-4c" d="M 628 4666 
L 1259 4666 
L 1259 531 
L 3531 531 
L 3531 0 
L 628 0 
L 628 4666 
z
" transform="scale(0.015625)"/>
     </defs>
     <use xlink:href="#DejaVuSans-57"/>
     <use xlink:href="#DejaVuSans-46" x="98.876953"/>
     <use xlink:href="#DejaVuSans-4c" x="156.396484"/>
    </g>
   </g>
   <g id="text_17">
    <!-- WFR -->
    <g transform="translate(361.832136 46.970182)scale(0.08 -0.08)">
     <defs>
      <path id="DejaVuSans-52" d="M 2841 2188 
Q 3044 2119 3236 1894 
Q 3428 1669 3622 1275 
L 4263 0 
L 3584 0 
L 2988 1197 
Q 2756 1666 2539 1819 
Q 2322 1972 1947 1972 
L 1259 1972 
L 1259 0 
L 628 0 
L 628 4666 
L 2053 4666 
Q 2853 4666 3247 4331 
Q 3641 3997 3641 3322 
Q 3641 2881 3436 2590 
Q 3231 2300 2841 2188 
z
M 1259 4147 
L 1259 2491 
L 2053 2491 
Q 2509 2491 2742 2702 
Q 2975 2913 2975 3322 
Q 2975 3731 2742 3939 
Q 2509 4147 2053 4147 
L 1259 4147 
z
" transform="scale(0.015625)"/>
     </defs>
     <use xlink:href="#DejaVuSans-57"/>
     <use xlink:href="#DejaVuSans-46" x="98.876953"/>
     <use xlink:href="#DejaVuSans-52" x="156.396484"/>
    </g>
   </g>
   <g id="text_18">
    <!-- Main-L -->
    <g transform="translate(361.832136 50.079498)scale(0.08 -0.08)">
     <defs>
      <path id="DejaVuSans-4d" d="M 628 4666 
L 1569 4666 
L 2759 1491 
L 3956 4666 
L 4897 4666 
L 4897 0 
L 4281 0 
L 4281 4097 
L 3078 897 
L 2444 897 
L 1241 4097 
L 1241 0 
L 628 0 
L 628 4666 
z
" transform="scale(0.015625)"/>
      <path id="DejaVuSans-2d" d="M 313 2009 
L 1997 2009 
L 1997 1497 
L 313 1497 
L 313 2009 
z
" transform="scale(0.015625)"/>
     </defs>
     <use xlink:href="#DejaVuSans-4d"/>
     <use xlink:href="#DejaVuSans-61" x="86.279297"/>
     <use xlink:href="#DejaVuSans-69" x="147.558594"/>
     <use xlink:href="#DejaVuSans-6e" x="175.341797"/>
     <use xlink:href="#DejaVuSans-2d" x="238.720703"/>
     <use xlink:href="#DejaVuSans-4c" x="274.804688"/>
    </g>
   </g>
   <g id="text_19">
    <!-- Main-R -->
    <g transform="translate(361.832136 104.353505)scale(0.08 -0.08)">
     <use xlink:href="#DejaVuSans-4d"/>
     <use xlink:href="#DejaVuSans-61" x="86.279297"/>
     <use xlink:href="#DejaVuSans-69" x="147.558594"/>
     <use xlink:href="#DejaVuSans-6e" x="175.341797"/>
     <use xlink:href="#DejaVuSans-2d" x="238.720703"/>
     <use xlink:href="#DejaVuSans-52" x="274.804688"/>
    </g>
   </g>
   <g id="text_20">
    <!-- AFL -->
    <g transform="translate(361.832136 92.977956)scale(0.08 -0.08)">
     <defs>
      <path id="DejaVuSans-41" d="M 2188 4044 
L 1331 1722 
L 3047 1722 
L 2188 4044 
z
M 1831 4666 
L 2547 4666 
L 4325 0 
L 3669 0 
L 3244 1197 
L 1141 1197 
L 716 0 
L 50 0 
L 1831 4666 
z
" transform="scale(0.015625)"/>
     </defs>
     <use xlink:href="#DejaVuSans-41"/>
     <use xlink:href="#DejaVuSans-46" x="68.408203"/>
     <use xlink:href="#DejaVuSans-4c" x="125.927734"/>
    </g>
   </g>
   <g id="text_21">
    <!-- AFR -->
    <g transform="translate(361.832136 156.049053)scale(0.08 -0.08)">
     <use xlink:href="#DejaVuSans-41"/>
     <use xlink:href="#DejaVuSans-46" x="68.408203"/>
     <use xlink:href="#DejaVuSans-52" x="125.927734"/>
    </g>
   </g>
   <g id="text_22">
    <!-- Nonfinal -->
    <g transform="translate(361.832136 75.282658)scale(0.08 -0.08)">
     <defs>
      <path id="DejaVuSans-4e" d="M 628 4666 
L 1478 4666 
L 3547 763 
L 3547 4666 
L 4159 4666 
L 4159 0 
L 3309 0 
L 1241 3903 
L 1241 0 
L 628 0 
L 628 4666 
z
" transform="scale(0.015625)"/>
      <path id="DejaVuSans-66" d="M 2375 4863 
L 2375 4384 
L 1825 4384 
Q 1516 4384 1395 4259 
Q 1275 4134 1275 3809 
L 1275 3500 
L 2222 3500 
L 2222 3053 
L 1275 3053 
L 1275 0 
L 697 0 
L 697 3053 
L 147 3053 
L 147 3500 
L 697 3500 
L 697 3744 
Q 697 4328 969 4595 
Q 1241 4863 1831 4863 
L 2375 4863 
z
" transform="scale(0.015625)"/>
      <path id="DejaVuSans-6c" d="M 603 4863 
L 1178 4863 
L 1178 0 
L 603 0 
L 603 4863 
z
" transform="scale(0.015625)"/>
     </defs>
     <use xlink:href="#DejaVuSans-4e"/>
     <use xlink:href="#DejaVuSans-6f" x="74.804688"/>
     <use xlink:href="#DejaVuSans-6e" x="135.986328"/>
     <use xlink:href="#DejaVuSans-66" x="199.365234"/>
     <use xlink:href="#DejaVuSans-69" x="234.570312"/>
     <use xlink:href="#DejaVuSans-6e" x="262.353516"/>
     <use xlink:href="#DejaVuSans-61" x="325.732422"/>
     <use xlink:href="#DejaVuSans-6c" x="387.011719"/>
    </g>
   </g>
   <g id="text_23">
    <!-- Trochaic -->
    <g transform="translate(361.832136 49.194734)scale(0.08 -0.08)">
     <defs>
      <path id="DejaVuSans-54" d="M -19 4666 
L 3928 4666 
L 3928 4134 
L 2272 4134 
L 2272 0 
L 1638 0 
L 1638 4134 
L -19 4134 
L -19 4666 
z
" transform="scale(0.015625)"/>
      <path id="DejaVuSans-68" d="M 3513 2113 
L 3513 0 
L 2938 0 
L 2938 2094 
Q 2938 2591 2744 2837 
Q 2550 3084 2163 3084 
Q 1697 3084 1428 2787 
Q 1159 2491 1159 1978 
L 1159 0 
L 581 0 
L 581 4863 
L 1159 4863 
L 1159 2956 
Q 1366 3272 1645 3428 
Q 1925 3584 2291 3584 
Q 2894 3584 3203 3211 
Q 3513 2838 3513 2113 
z
" transform="scale(0.015625)"/>
     </defs>
     <use xlink:href="#DejaVuSans-54"/>
     <use xlink:href="#DejaVuSans-72" x="46.333984"/>
     <use xlink:href="#DejaVuSans-6f" x="85.197266"/>
     <use xlink:href="#DejaVuSans-63" x="146.378906"/>
     <use xlink:href="#DejaVuSans-68" x="201.359375"/>
     <use xlink:href="#DejaVuSans-61" x="264.738281"/>
     <use xlink:href="#DejaVuSans-69" x="326.017578"/>
     <use xlink:href="#DejaVuSans-63" x="353.800781"/>
    </g>
   </g>
  </g>
  <g id="axes_2">
   <g id="patch_7">
    <path d="M 57.6 307.584 
L 414.72 307.584 
L 414.72 186.624 
L 57.6 186.624 
z
" style="fill: #ffffff"/>
   </g>
   <g id="matplotlib.axis_3">
    <g id="xtick_8">
     <g id="line2d_24">
      <g>
       <use xlink:href="#mc42ca522b6" x="72.114978" y="307.584" style="stroke: #000000; stroke-width: 0.8"/>
      </g>
     </g>
     <g id="text_24">
      <!-- 0 -->
      <g transform="translate(68.933728 322.182437)scale(0.1 -0.1)">
       <use xlink:href="#DejaVuSans-30"/>
      </g>
     </g>
    </g>
    <g id="xtick_9">
     <g id="line2d_25">
      <g>
       <use xlink:href="#mc42ca522b6" x="115.058701" y="307.584" style="stroke: #000000; stroke-width: 0.8"/>
      </g>
     </g>
     <g id="text_25">
      <!-- 25 -->
      <g transform="translate(108.696201 322.182437)scale(0.1 -0.1)">
       <use xlink:href="#DejaVuSans-32"/>
       <use xlink:href="#DejaVuSans-35" x="63.623047"/>
      </g>
     </g>
    </g>
    <g id="xtick_10">
     <g id="line2d_26">
      <g>
       <use xlink:href="#mc42ca522b6" x="158.002424" y="307.584" style="stroke: #000000; stroke-width: 0.8"/>
      </g>
     </g>
     <g id="text_26">
      <!-- 50 -->
      <g transform="translate(151.639924 322.182437)scale(0.1 -0.1)">
       <use xlink:href="#DejaVuSans-35"/>
       <use xlink:href="#DejaVuSans-30" x="63.623047"/>
      </g>
     </g>
    </g>
    <g id="xtick_11">
     <g id="line2d_27">
      <g>
       <use xlink:href="#mc42ca522b6" x="200.946147" y="307.584" style="stroke: #000000; stroke-width: 0.8"/>
      </g>
     </g>
     <g id="text_27">
      <!-- 75 -->
      <g transform="translate(194.583647 322.182437)scale(0.1 -0.1)">
       <defs>
        <path id="DejaVuSans-37" d="M 525 4666 
L 3525 4666 
L 3525 4397 
L 1831 0 
L 1172 0 
L 2766 4134 
L 525 4134 
L 525 4666 
z
" transform="scale(0.015625)"/>
       </defs>
       <use xlink:href="#DejaVuSans-37"/>
       <use xlink:href="#DejaVuSans-35" x="63.623047"/>
      </g>
     </g>
    </g>
    <g id="xtick_12">
     <g id="line2d_28">
      <g>
       <use xlink:href="#mc42ca522b6" x="243.88987" y="307.584" style="stroke: #000000; stroke-width: 0.8"/>
      </g>
     </g>
     <g id="text_28">
      <!-- 100 -->
      <g transform="translate(234.34612 322.182437)scale(0.1 -0.1)">
       <use xlink:href="#DejaVuSans-31"/>
       <use xlink:href="#DejaVuSans-30" x="63.623047"/>
       <use xlink:href="#DejaVuSans-30" x="127.246094"/>
      </g>
     </g>
    </g>
    <g id="xtick_13">
     <g id="line2d_29">
      <g>
       <use xlink:href="#mc42ca522b6" x="286.833593" y="307.584" style="stroke: #000000; stroke-width: 0.8"/>
      </g>
     </g>
     <g id="text_29">
      <!-- 125 -->
      <g transform="translate(277.289843 322.182437)scale(0.1 -0.1)">
       <use xlink:href="#DejaVuSans-31"/>
       <use xlink:href="#DejaVuSans-32" x="63.623047"/>
       <use xlink:href="#DejaVuSans-35" x="127.246094"/>
      </g>
     </g>
    </g>
    <g id="xtick_14">
     <g id="line2d_30">
      <g>
       <use xlink:href="#mc42ca522b6" x="329.777316" y="307.584" style="stroke: #000000; stroke-width: 0.8"/>
      </g>
     </g>
     <g id="text_30">
      <!-- 150 -->
      <g transform="translate(320.233566 322.182437)scale(0.1 -0.1)">
       <use xlink:href="#DejaVuSans-31"/>
       <use xlink:href="#DejaVuSans-35" x="63.623047"/>
       <use xlink:href="#DejaVuSans-30" x="127.246094"/>
      </g>
     </g>
    </g>
    <g id="xtick_15">
     <g id="line2d_31">
      <g>
       <use xlink:href="#mc42ca522b6" x="372.721039" y="307.584" style="stroke: #000000; stroke-width: 0.8"/>
      </g>
     </g>
     <g id="text_31">
      <!-- 175 -->
      <g transform="translate(363.177289 322.182437)scale(0.1 -0.1)">
       <use xlink:href="#DejaVuSans-31"/>
       <use xlink:href="#DejaVuSans-37" x="63.623047"/>
       <use xlink:href="#DejaVuSans-35" x="127.246094"/>
      </g>
     </g>
    </g>
   </g>
   <g id="matplotlib.axis_4">
    <g id="ytick_5">
     <g id="line2d_32">
      <g>
       <use xlink:href="#mb9d043798b" x="57.6" y="302.1068" style="stroke: #000000; stroke-width: 0.8"/>
      </g>
     </g>
     <g id="text_32">
      <!-- 0 -->
      <g transform="translate(44.2375 305.906018)scale(0.1 -0.1)">
       <use xlink:href="#DejaVuSans-30"/>
      </g>
     </g>
    </g>
    <g id="ytick_6">
     <g id="line2d_33">
      <g>
       <use xlink:href="#mb9d043798b" x="57.6" y="281.125377" style="stroke: #000000; stroke-width: 0.8"/>
      </g>
     </g>
     <g id="text_33">
      <!-- 1000 -->
      <g transform="translate(25.15 284.924596)scale(0.1 -0.1)">
       <use xlink:href="#DejaVuSans-31"/>
       <use xlink:href="#DejaVuSans-30" x="63.623047"/>
       <use xlink:href="#DejaVuSans-30" x="127.246094"/>
       <use xlink:href="#DejaVuSans-30" x="190.869141"/>
      </g>
     </g>
    </g>
    <g id="ytick_7">
     <g id="line2d_34">
      <g>
       <use xlink:href="#mb9d043798b" x="57.6" y="260.143954" style="stroke: #000000; stroke-width: 0.8"/>
      </g>
     </g>
     <g id="text_34">
      <!-- 2000 -->
      <g transform="translate(25.15 263.943173)scale(0.1 -0.1)">
       <use xlink:href="#DejaVuSans-32"/>
       <use xlink:href="#DejaVuSans-30" x="63.623047"/>
       <use xlink:href="#DejaVuSans-30" x="127.246094"/>
       <use xlink:href="#DejaVuSans-30" x="190.869141"/>
      </g>
     </g>
    </g>
    <g id="ytick_8">
     <g id="line2d_35">
      <g>
       <use xlink:href="#mb9d043798b" x="57.6" y="239.162532" style="stroke: #000000; stroke-width: 0.8"/>
      </g>
     </g>
     <g id="text_35">
      <!-- 3000 -->
      <g transform="translate(25.15 242.96175)scale(0.1 -0.1)">
       <use xlink:href="#DejaVuSans-33"/>
       <use xlink:href="#DejaVuSans-30" x="63.623047"/>
       <use xlink:href="#DejaVuSans-30" x="127.246094"/>
       <use xlink:href="#DejaVuSans-30" x="190.869141"/>
      </g>
     </g>
    </g>
    <g id="ytick_9">
     <g id="line2d_36">
      <g>
       <use xlink:href="#mb9d043798b" x="57.6" y="218.181109" style="stroke: #000000; stroke-width: 0.8"/>
      </g>
     </g>
     <g id="text_36">
      <!-- 4000 -->
      <g transform="translate(25.15 221.980328)scale(0.1 -0.1)">
       <use xlink:href="#DejaVuSans-34"/>
       <use xlink:href="#DejaVuSans-30" x="63.623047"/>
       <use xlink:href="#DejaVuSans-30" x="127.246094"/>
       <use xlink:href="#DejaVuSans-30" x="190.869141"/>
      </g>
     </g>
    </g>
    <g id="ytick_10">
     <g id="line2d_37">
      <g>
       <use xlink:href="#mb9d043798b" x="57.6" y="197.199686" style="stroke: #000000; stroke-width: 0.8"/>
      </g>
     </g>
     <g id="text_37">
      <!-- 5000 -->
      <g transform="translate(25.15 200.998905)scale(0.1 -0.1)">
       <use xlink:href="#DejaVuSans-35"/>
       <use xlink:href="#DejaVuSans-30" x="63.623047"/>
       <use xlink:href="#DejaVuSans-30" x="127.246094"/>
       <use xlink:href="#DejaVuSans-30" x="190.869141"/>
      </g>
     </g>
    </g>
   </g>
   <g id="line2d_38">
    <path d="M 73.832727 302.085818 
L 106.469957 302.085818 
L 108.187706 301.896985 
L 109.905455 302.064837 
L 116.77645 302.085818 
L 128.800693 302.043855 
L 130.518442 301.834041 
L 132.23619 301.876004 
L 133.953939 302.064837 
L 139.107186 302.064837 
L 140.824935 301.750115 
L 142.542684 302.064837 
L 144.260433 301.855023 
L 145.978182 302.022874 
L 147.695931 301.792078 
L 149.41368 302.064837 
L 151.131429 301.246561 
L 152.849177 301.95993 
L 154.566926 301.498338 
L 156.284675 301.81306 
L 159.720173 301.95993 
L 161.437922 301.456376 
L 163.155671 301.51932 
L 164.87342 301.876004 
L 168.308918 301.309506 
L 170.026667 301.498338 
L 171.744416 301.141654 
L 173.462165 301.792078 
L 175.179913 301.792078 
L 176.897662 301.980911 
L 178.615411 301.015766 
L 180.33316 301.729134 
L 182.050909 301.750115 
L 183.768658 301.498338 
L 185.486407 301.498338 
L 187.204156 301.834041 
L 188.921905 301.855023 
L 190.639654 301.708153 
L 192.357403 301.876004 
L 194.075152 301.687171 
L 195.7929 301.246561 
L 197.510649 301.708153 
L 199.228398 301.980911 
L 200.946147 301.309506 
L 202.663896 301.750115 
L 209.534892 301.561283 
L 211.252641 301.855023 
L 212.97039 300.6381 
L 214.688139 302.001892 
L 216.405887 300.554174 
L 218.123636 301.792078 
L 219.841385 300.176509 
L 221.559134 299.358233 
L 223.276883 300.512211 
L 224.994632 299.46314 
L 226.712381 301.099691 
L 228.43013 301.896985 
L 230.147879 301.141654 
L 231.865628 301.561283 
L 233.583377 301.834041 
L 235.301126 300.889877 
L 237.018874 301.561283 
L 238.736623 300.910859 
L 240.454372 298.749772 
L 242.172121 302.064837 
L 243.88987 299.190382 
L 245.607619 301.477357 
L 247.325368 299.90375 
L 249.043117 300.323379 
L 250.760866 300.113564 
L 252.478615 299.547066 
L 254.196364 300.889877 
L 255.914113 302.043855 
L 257.631861 301.750115 
L 259.34961 301.980911 
L 261.067359 300.19749 
L 262.785108 301.896985 
L 264.502857 297.721682 
L 266.220606 297.364998 
L 267.938355 301.330487 
L 269.656104 302.064837 
L 271.373853 295.959243 
L 273.091602 301.141654 
L 274.809351 301.729134 
L 276.5271 301.834041 
L 278.244848 298.896642 
L 279.962597 298.393088 
L 281.680346 301.687171 
L 283.398095 299.672955 
L 285.115844 301.351468 
L 286.833593 300.743007 
L 288.551342 298.309162 
L 290.269091 300.868896 
L 291.98684 301.393431 
L 293.704589 299.379215 
L 295.422338 301.288524 
L 297.140087 301.834041 
L 298.857835 301.771097 
L 300.575584 296.735555 
L 302.293333 301.057728 
L 304.011082 299.861787 
L 305.728831 299.924732 
L 307.44658 296.462797 
L 309.164329 296.043168 
L 310.882078 296.001206 
L 312.599827 288.573782 
L 314.317576 291.34333 
L 316.035325 300.407304 
L 317.753074 283.097631 
L 319.470823 284.461423 
L 321.188571 294.259748 
L 322.90632 297.09224 
L 324.624069 297.994441 
L 326.341818 284.020813 
L 328.059567 275.901003 
L 329.777316 289.161262 
L 331.495065 284.482405 
L 333.212814 300.34436 
L 334.930563 296.567704 
L 336.648312 301.51932 
L 338.366061 298.162292 
L 340.08381 296.65163 
L 341.801558 288.238079 
L 343.519307 300.218472 
L 345.237056 291.448237 
L 346.954805 292.560252 
L 348.672554 298.602902 
L 350.390303 292.874974 
L 352.108052 290.776831 
L 353.825801 300.134546 
L 355.54355 297.595794 
L 357.261299 276.362594 
L 358.979048 271.935514 
L 360.696797 293.651286 
L 362.414545 298.288181 
L 364.132294 287.566674 
L 365.850043 239.162532 
L 367.567792 283.202538 
L 369.285541 238.658977 
L 371.00329 272.166309 
L 372.721039 192.122182 
L 374.438788 285.657364 
L 376.156537 300.512211 
L 377.874286 245.414995 
L 379.592035 295.665503 
L 381.309784 279.237049 
L 383.027532 284.587312 
L 384.745281 296.588685 
L 386.46303 274.53721 
L 388.180779 223.06978 
L 389.898528 292.728104 
L 391.616277 285.132829 
L 393.334026 285.59442 
L 395.051775 273.739916 
L 396.769524 204.941831 
L 398.487273 278.481718 
L 398.487273 278.481718 
" clip-path="url(#p818a6bf3ba)" style="fill: none; stroke: #1f77b4; stroke-width: 1.5; stroke-linecap: square"/>
   </g>
   <g id="patch_8">
    <path d="M 57.6 307.584 
L 57.6 186.624 
" style="fill: none; stroke: #000000; stroke-width: 0.8; stroke-linejoin: miter; stroke-linecap: square"/>
   </g>
   <g id="patch_9">
    <path d="M 414.72 307.584 
L 414.72 186.624 
" style="fill: none; stroke: #000000; stroke-width: 0.8; stroke-linejoin: miter; stroke-linecap: square"/>
   </g>
   <g id="patch_10">
    <path d="M 57.6 307.584 
L 414.72 307.584 
" style="fill: none; stroke: #000000; stroke-width: 0.8; stroke-linejoin: miter; stroke-linecap: square"/>
   </g>
   <g id="patch_11">
    <path d="M 57.6 186.624 
L 414.72 186.624 
" style="fill: none; stroke: #000000; stroke-width: 0.8; stroke-linejoin: miter; stroke-linecap: square"/>
   </g>
  </g>
 </g>
 <defs>
  <clipPath id="p770f8ee89f">
   <rect x="57.6" y="41.472" width="357.12" height="120.96"/>
  </clipPath>
  <clipPath id="p818a6bf3ba">
   <rect x="57.6" y="186.624" width="357.12" height="120.96"/>
  </clipPath>
 </defs>
</svg>
