<?xml version="1.0" encoding="utf-8" standalone="no"?>
<!DOCTYPE svg PUBLIC "-//W3C//DTD SVG 1.1//EN"
  "http://www.w3.org/Graphics/SVG/1.1/DTD/svg11.dtd">
<svg xmlns:xlink="http://www.w3.org/1999/xlink" width="460.8pt" height="345.6pt" viewBox="0 0 460.8 345.6" xmlns="http://www.w3.org/2000/svg" version="1.1">
 <metadata>
  <rdf:RDF xmlns:dc="http://purl.org/dc/elements/1.1/" xmlns:cc="http://creativecommons.org/ns#" xmlns:rdf="http://www.w3.org/1999/02/22-rdf-syntax-ns#">
   <cc:Work>
    <dc:type rdf:resource="http://purl.org/dc/dcmitype/StillImage"/>
    <dc:date>2022-05-13T15:16:36.313218</dc:date>
    <dc:format>image/svg+xml</dc:format>
    <dc:creator>
     <cc:Agent>
      <dc:title>Matplotlib v3.5.1, https://matplotlib.org/</dc:title>
     </cc:Agent>
    </dc:creator>
   </cc:Work>
  </rdf:RDF>
 </metadata>
 <defs>
  <style type="text/css">*{stroke-linejoin: round; stroke-linecap: butt}</style>
 </defs>
 <g id="figure_1">
  <g id="patch_1">
   <path d="M 0 345.6 
L 460.8 345.6 
L 460.8 0 
L 0 0 
z
" style="fill: #ffffff"/>
  </g>
  <g id="axes_1">
   <g id="patch_2">
    <path d="M 57.6 162.432 
L 414.72 162.432 
L 414.72 41.472 
L 57.6 41.472 
z
" style="fill: #ffffff"/>
   </g>
   <g id="matplotlib.axis_1">
    <g id="xtick_1">
     <g id="line2d_1">
      <defs>
       <path id="mbd147c8a0c" d="M 0 0 
L 0 3.5 
" style="stroke: #000000; stroke-width: 0.8"/>
      </defs>
      <g>
       <use xlink:href="#mbd147c8a0c" x="73.827491" y="162.432" style="stroke: #000000; stroke-width: 0.8"/>
      </g>
     </g>
     <g id="text_1">
      <!-- 0 -->
      <g transform="translate(70.646241 177.030437)scale(0.1 -0.1)">
       <defs>
        <path id="DejaVuSans-30" d="M 2034 4250 
Q 1547 4250 1301 3770 
Q 1056 3291 1056 2328 
Q 1056 1369 1301 889 
Q 1547 409 2034 409 
Q 2525 409 2770 889 
Q 3016 1369 3016 2328 
Q 3016 3291 2770 3770 
Q 2525 4250 2034 4250 
z
M 2034 4750 
Q 2819 4750 3233 4129 
Q 3647 3509 3647 2328 
Q 3647 1150 3233 529 
Q 2819 -91 2034 -91 
Q 1250 -91 836 529 
Q 422 1150 422 2328 
Q 422 3509 836 4129 
Q 1250 4750 2034 4750 
z
" transform="scale(0.015625)"/>
       </defs>
       <use xlink:href="#DejaVuSans-30"/>
      </g>
     </g>
    </g>
    <g id="xtick_2">
     <g id="line2d_2">
      <g>
       <use xlink:href="#mbd147c8a0c" x="126.191972" y="162.432" style="stroke: #000000; stroke-width: 0.8"/>
      </g>
     </g>
     <g id="text_2">
      <!-- 10000 -->
      <g transform="translate(110.285722 177.030437)scale(0.1 -0.1)">
       <defs>
        <path id="DejaVuSans-31" d="M 794 531 
L 1825 531 
L 1825 4091 
L 703 3866 
L 703 4441 
L 1819 4666 
L 2450 4666 
L 2450 531 
L 3481 531 
L 3481 0 
L 794 0 
L 794 531 
z
" transform="scale(0.015625)"/>
       </defs>
       <use xlink:href="#DejaVuSans-31"/>
       <use xlink:href="#DejaVuSans-30" x="63.623047"/>
       <use xlink:href="#DejaVuSans-30" x="127.246094"/>
       <use xlink:href="#DejaVuSans-30" x="190.869141"/>
       <use xlink:href="#DejaVuSans-30" x="254.492188"/>
      </g>
     </g>
    </g>
    <g id="xtick_3">
     <g id="line2d_3">
      <g>
       <use xlink:href="#mbd147c8a0c" x="178.556453" y="162.432" style="stroke: #000000; stroke-width: 0.8"/>
      </g>
     </g>
     <g id="text_3">
      <!-- 20000 -->
      <g transform="translate(162.650203 177.030437)scale(0.1 -0.1)">
       <defs>
        <path id="DejaVuSans-32" d="M 1228 531 
L 3431 531 
L 3431 0 
L 469 0 
L 469 531 
Q 828 903 1448 1529 
Q 2069 2156 2228 2338 
Q 2531 2678 2651 2914 
Q 2772 3150 2772 3378 
Q 2772 3750 2511 3984 
Q 2250 4219 1831 4219 
Q 1534 4219 1204 4116 
Q 875 4013 500 3803 
L 500 4441 
Q 881 4594 1212 4672 
Q 1544 4750 1819 4750 
Q 2544 4750 2975 4387 
Q 3406 4025 3406 3419 
Q 3406 3131 3298 2873 
Q 3191 2616 2906 2266 
Q 2828 2175 2409 1742 
Q 1991 1309 1228 531 
z
" transform="scale(0.015625)"/>
       </defs>
       <use xlink:href="#DejaVuSans-32"/>
       <use xlink:href="#DejaVuSans-30" x="63.623047"/>
       <use xlink:href="#DejaVuSans-30" x="127.246094"/>
       <use xlink:href="#DejaVuSans-30" x="190.869141"/>
       <use xlink:href="#DejaVuSans-30" x="254.492188"/>
      </g>
     </g>
    </g>
    <g id="xtick_4">
     <g id="line2d_4">
      <g>
       <use xlink:href="#mbd147c8a0c" x="230.920934" y="162.432" style="stroke: #000000; stroke-width: 0.8"/>
      </g>
     </g>
     <g id="text_4">
      <!-- 30000 -->
      <g transform="translate(215.014684 177.030437)scale(0.1 -0.1)">
       <defs>
        <path id="DejaVuSans-33" d="M 2597 2516 
Q 3050 2419 3304 2112 
Q 3559 1806 3559 1356 
Q 3559 666 3084 287 
Q 2609 -91 1734 -91 
Q 1441 -91 1130 -33 
Q 819 25 488 141 
L 488 750 
Q 750 597 1062 519 
Q 1375 441 1716 441 
Q 2309 441 2620 675 
Q 2931 909 2931 1356 
Q 2931 1769 2642 2001 
Q 2353 2234 1838 2234 
L 1294 2234 
L 1294 2753 
L 1863 2753 
Q 2328 2753 2575 2939 
Q 2822 3125 2822 3475 
Q 2822 3834 2567 4026 
Q 2313 4219 1838 4219 
Q 1578 4219 1281 4162 
Q 984 4106 628 3988 
L 628 4550 
Q 988 4650 1302 4700 
Q 1616 4750 1894 4750 
Q 2613 4750 3031 4423 
Q 3450 4097 3450 3541 
Q 3450 3153 3228 2886 
Q 3006 2619 2597 2516 
z
" transform="scale(0.015625)"/>
       </defs>
       <use xlink:href="#DejaVuSans-33"/>
       <use xlink:href="#DejaVuSans-30" x="63.623047"/>
       <use xlink:href="#DejaVuSans-30" x="127.246094"/>
       <use xlink:href="#DejaVuSans-30" x="190.869141"/>
       <use xlink:href="#DejaVuSans-30" x="254.492188"/>
      </g>
     </g>
    </g>
    <g id="xtick_5">
     <g id="line2d_5">
      <g>
       <use xlink:href="#mbd147c8a0c" x="283.285415" y="162.432" style="stroke: #000000; stroke-width: 0.8"/>
      </g>
     </g>
     <g id="text_5">
      <!-- 40000 -->
      <g transform="translate(267.379165 177.030437)scale(0.1 -0.1)">
       <defs>
        <path id="DejaVuSans-34" d="M 2419 4116 
L 825 1625 
L 2419 1625 
L 2419 4116 
z
M 2253 4666 
L 3047 4666 
L 3047 1625 
L 3713 1625 
L 3713 1100 
L 3047 1100 
L 3047 0 
L 2419 0 
L 2419 1100 
L 313 1100 
L 313 1709 
L 2253 4666 
z
" transform="scale(0.015625)"/>
       </defs>
       <use xlink:href="#DejaVuSans-34"/>
       <use xlink:href="#DejaVuSans-30" x="63.623047"/>
       <use xlink:href="#DejaVuSans-30" x="127.246094"/>
       <use xlink:href="#DejaVuSans-30" x="190.869141"/>
       <use xlink:href="#DejaVuSans-30" x="254.492188"/>
      </g>
     </g>
    </g>
    <g id="xtick_6">
     <g id="line2d_6">
      <g>
       <use xlink:href="#mbd147c8a0c" x="335.649896" y="162.432" style="stroke: #000000; stroke-width: 0.8"/>
      </g>
     </g>
     <g id="text_6">
      <!-- 50000 -->
      <g transform="translate(319.743646 177.030437)scale(0.1 -0.1)">
       <defs>
        <path id="DejaVuSans-35" d="M 691 4666 
L 3169 4666 
L 3169 4134 
L 1269 4134 
L 1269 2991 
Q 1406 3038 1543 3061 
Q 1681 3084 1819 3084 
Q 2600 3084 3056 2656 
Q 3513 2228 3513 1497 
Q 3513 744 3044 326 
Q 2575 -91 1722 -91 
Q 1428 -91 1123 -41 
Q 819 9 494 109 
L 494 744 
Q 775 591 1075 516 
Q 1375 441 1709 441 
Q 2250 441 2565 725 
Q 2881 1009 2881 1497 
Q 2881 1984 2565 2268 
Q 2250 2553 1709 2553 
Q 1456 2553 1204 2497 
Q 953 2441 691 2322 
L 691 4666 
z
" transform="scale(0.015625)"/>
       </defs>
       <use xlink:href="#DejaVuSans-35"/>
       <use xlink:href="#DejaVuSans-30" x="63.623047"/>
       <use xlink:href="#DejaVuSans-30" x="127.246094"/>
       <use xlink:href="#DejaVuSans-30" x="190.869141"/>
       <use xlink:href="#DejaVuSans-30" x="254.492188"/>
      </g>
     </g>
    </g>
    <g id="xtick_7">
     <g id="line2d_7">
      <g>
       <use xlink:href="#mbd147c8a0c" x="388.014377" y="162.432" style="stroke: #000000; stroke-width: 0.8"/>
      </g>
     </g>
     <g id="text_7">
      <!-- 60000 -->
      <g transform="translate(372.108127 177.030437)scale(0.1 -0.1)">
       <defs>
        <path id="DejaVuSans-36" d="M 2113 2584 
Q 1688 2584 1439 2293 
Q 1191 2003 1191 1497 
Q 1191 994 1439 701 
Q 1688 409 2113 409 
Q 2538 409 2786 701 
Q 3034 994 3034 1497 
Q 3034 2003 2786 2293 
Q 2538 2584 2113 2584 
z
M 3366 4563 
L 3366 3988 
Q 3128 4100 2886 4159 
Q 2644 4219 2406 4219 
Q 1781 4219 1451 3797 
Q 1122 3375 1075 2522 
Q 1259 2794 1537 2939 
Q 1816 3084 2150 3084 
Q 2853 3084 3261 2657 
Q 3669 2231 3669 1497 
Q 3669 778 3244 343 
Q 2819 -91 2113 -91 
Q 1303 -91 875 529 
Q 447 1150 447 2328 
Q 447 3434 972 4092 
Q 1497 4750 2381 4750 
Q 2619 4750 2861 4703 
Q 3103 4656 3366 4563 
z
" transform="scale(0.015625)"/>
       </defs>
       <use xlink:href="#DejaVuSans-36"/>
       <use xlink:href="#DejaVuSans-30" x="63.623047"/>
       <use xlink:href="#DejaVuSans-30" x="127.246094"/>
       <use xlink:href="#DejaVuSans-30" x="190.869141"/>
       <use xlink:href="#DejaVuSans-30" x="254.492188"/>
      </g>
     </g>
    </g>
   </g>
   <g id="matplotlib.axis_2">
    <g id="ytick_1">
     <g id="line2d_8">
      <defs>
       <path id="mc76cae1c76" d="M 0 0 
L -3.5 0 
" style="stroke: #000000; stroke-width: 0.8"/>
      </defs>
      <g>
       <use xlink:href="#mc76cae1c76" x="57.6" y="153.807534" style="stroke: #000000; stroke-width: 0.8"/>
      </g>
     </g>
     <g id="text_8">
      <!-- 40 -->
      <g transform="translate(37.875 157.606753)scale(0.1 -0.1)">
       <use xlink:href="#DejaVuSans-34"/>
       <use xlink:href="#DejaVuSans-30" x="63.623047"/>
      </g>
     </g>
    </g>
    <g id="ytick_2">
     <g id="line2d_9">
      <g>
       <use xlink:href="#mc76cae1c76" x="57.6" y="121.185442" style="stroke: #000000; stroke-width: 0.8"/>
      </g>
     </g>
     <g id="text_9">
      <!-- 60 -->
      <g transform="translate(37.875 124.984661)scale(0.1 -0.1)">
       <use xlink:href="#DejaVuSans-36"/>
       <use xlink:href="#DejaVuSans-30" x="63.623047"/>
      </g>
     </g>
    </g>
    <g id="ytick_3">
     <g id="line2d_10">
      <g>
       <use xlink:href="#mc76cae1c76" x="57.6" y="88.56335" style="stroke: #000000; stroke-width: 0.8"/>
      </g>
     </g>
     <g id="text_10">
      <!-- 80 -->
      <g transform="translate(37.875 92.362568)scale(0.1 -0.1)">
       <defs>
        <path id="DejaVuSans-38" d="M 2034 2216 
Q 1584 2216 1326 1975 
Q 1069 1734 1069 1313 
Q 1069 891 1326 650 
Q 1584 409 2034 409 
Q 2484 409 2743 651 
Q 3003 894 3003 1313 
Q 3003 1734 2745 1975 
Q 2488 2216 2034 2216 
z
M 1403 2484 
Q 997 2584 770 2862 
Q 544 3141 544 3541 
Q 544 4100 942 4425 
Q 1341 4750 2034 4750 
Q 2731 4750 3128 4425 
Q 3525 4100 3525 3541 
Q 3525 3141 3298 2862 
Q 3072 2584 2669 2484 
Q 3125 2378 3379 2068 
Q 3634 1759 3634 1313 
Q 3634 634 3220 271 
Q 2806 -91 2034 -91 
Q 1263 -91 848 271 
Q 434 634 434 1313 
Q 434 1759 690 2068 
Q 947 2378 1403 2484 
z
M 1172 3481 
Q 1172 3119 1398 2916 
Q 1625 2713 2034 2713 
Q 2441 2713 2670 2916 
Q 2900 3119 2900 3481 
Q 2900 3844 2670 4047 
Q 2441 4250 2034 4250 
Q 1625 4250 1398 4047 
Q 1172 3844 1172 3481 
z
" transform="scale(0.015625)"/>
       </defs>
       <use xlink:href="#DejaVuSans-38"/>
       <use xlink:href="#DejaVuSans-30" x="63.623047"/>
      </g>
     </g>
    </g>
    <g id="ytick_4">
     <g id="line2d_11">
      <g>
       <use xlink:href="#mc76cae1c76" x="57.6" y="55.941257" style="stroke: #000000; stroke-width: 0.8"/>
      </g>
     </g>
     <g id="text_11">
      <!-- 100 -->
      <g transform="translate(31.5125 59.740476)scale(0.1 -0.1)">
       <use xlink:href="#DejaVuSans-31"/>
       <use xlink:href="#DejaVuSans-30" x="63.623047"/>
       <use xlink:href="#DejaVuSans-30" x="127.246094"/>
      </g>
     </g>
    </g>
   </g>
   <g id="line2d_12">
    <path d="M 73.832727 55.397556 
L 73.8432 54.853854 
L 73.895565 58.251989 
L 73.921747 57.436436 
L 73.963638 57.436436 
L 74.016003 56.077183 
L 73.989821 57.708287 
L 74.068367 57.708287 
L 74.089313 57.708287 
L 74.131205 56.892735 
L 74.136441 58.52384 
L 74.199279 57.708287 
L 74.225461 57.708287 
L 74.251643 60.970496 
L 74.335426 58.79569 
L 74.691505 58.79569 
L 74.701978 58.251989 
L 74.707214 59.883093 
L 74.785761 59.067541 
L 74.796234 60.698646 
L 74.895726 59.339392 
L 74.984746 59.339392 
L 75.099948 58.79569 
L 75.230859 58.79569 
L 75.356534 63.689004 
L 75.497918 63.689004 
L 75.513627 62.873452 
L 75.539809 66.135661 
L 75.592174 66.135661 
L 75.707376 66.135661 
L 75.812105 69.39787 
L 75.822578 68.582318 
L 75.83305 68.582318 
L 75.948252 67.766766 
L 75.99538 67.766766 
L 76.0844 66.951213 
L 76.089636 68.582318 
L 76.100109 68.582318 
L 76.115819 68.582318 
L 76.178656 67.766766 
L 76.183892 69.39787 
L 76.225784 68.582318 
L 76.812266 68.582318 
L 76.937941 66.135661 
L 77.178818 66.135661 
L 77.225946 67.766766 
L 77.288783 66.951213 
L 78.23658 66.951213 
L 78.351782 68.582318 
L 78.466984 68.582318 
L 78.582186 67.766766 
L 78.676442 67.766766 
L 78.791644 67.223064 
L 79.105831 67.223064 
L 79.221032 66.407512 
L 80.032682 66.407512 
L 80.147884 68.038616 
L 80.880986 68.038616 
L 80.912405 69.669721 
L 80.990952 68.854169 
L 81.373213 68.854169 
L 81.488414 68.038616 
L 81.540779 68.038616 
L 81.655981 67.223064 
L 81.849729 67.223064 
L 81.964931 68.854169 
L 82.132498 68.854169 
L 82.247699 70.485273 
L 83.017457 70.485273 
L 83.132659 72.116378 
L 84.577919 72.116378 
L 84.693121 71.572676 
L 85.420987 71.572676 
L 85.536189 73.203781 
L 86.080779 73.203781 
L 86.195981 72.388229 
L 87.955428 72.388229 
L 88.07063 71.572676 
L 88.735659 71.572676 
L 88.85086 73.203781 
L 89.055082 73.203781 
L 89.170284 72.66008 
L 89.919096 72.66008 
L 90.034298 71.844527 
L 90.526524 71.844527 
L 90.641726 71.300826 
L 90.825001 71.300826 
L 90.940203 72.93193 
L 91.322464 72.93193 
L 91.385301 72.388229 
L 91.390538 74.019333 
L 91.421956 74.019333 
L 92.573975 74.019333 
L 92.689177 73.203781 
L 99.344702 73.203781 
L 99.459904 72.388229 
L 99.517505 72.388229 
L 99.632707 71.572676 
L 99.637943 71.572676 
L 99.753145 73.203781 
L 109.958983 73.203781 
L 110.074185 74.834886 
L 110.27317 74.834886 
L 110.325534 76.46599 
L 110.383135 75.650438 
L 112.493424 75.650438 
L 112.608625 74.834886 
L 113.938683 74.834886 
L 114.053885 76.46599 
L 114.116722 76.46599 
L 114.231924 75.650438 
L 115.729548 75.650438 
L 115.84475 77.281543 
L 116.944404 77.281543 
L 117.059606 76.46599 
L 119.740668 76.46599 
L 119.85587 75.650438 
L 126.762745 75.650438 
L 126.820346 77.281543 
L 126.87271 76.737841 
L 126.96173 76.737841 
L 127.076932 75.922289 
L 127.75767 75.922289 
L 127.872872 75.106736 
L 133.837186 75.106736 
L 133.952388 76.737841 
L 134.999677 76.737841 
L 135.114879 78.368946 
L 141.592366 78.368946 
L 141.707567 77.553393 
L 162.00404 77.553393 
L 162.119242 76.737841 
L 162.632414 76.737841 
L 162.747616 78.368946 
L 163.381226 78.368946 
L 163.496428 77.553393 
L 164.224294 77.553393 
L 164.339496 77.009692 
L 203.073503 77.009692 
L 203.188705 76.19414 
L 209.671427 76.19414 
L 209.786629 77.825244 
L 244.551408 77.825244 
L 244.66661 77.009692 
L 248.677729 77.009692 
L 248.792931 78.640796 
L 260.999092 78.640796 
L 261.114293 78.097095 
L 271.96945 78.097095 
L 272.084652 77.553393 
L 294.905093 77.553393 
L 295.020295 79.184498 
L 340.116586 79.184498 
L 340.231788 78.368946 
L 344.054395 78.368946 
L 344.169597 77.825244 
L 357.658687 77.825244 
L 357.773889 79.456349 
L 359.371005 79.456349 
L 359.486207 78.640796 
L 382.563234 78.640796 
L 382.678436 80.271901 
L 385.45899 80.271901 
L 385.574192 79.7282 
L 398.487273 79.7282 
L 398.487273 79.7282 
" clip-path="url(#p45f33e77a2)" style="fill: none; stroke: #1f77b4; stroke-width: 1.5; stroke-linecap: square"/>
   </g>
   <g id="line2d_13">
    <path d="M 73.832727 55.941257 
L 73.837964 55.397556 
L 73.85891 61.921974 
L 73.885092 61.921974 
L 73.942693 61.921974 
L 74.063131 66.271586 
L 74.089313 66.271586 
L 74.131205 65.456034 
L 74.146914 68.718243 
L 74.188806 67.902691 
L 74.225461 67.902691 
L 74.251643 70.621199 
L 74.335426 68.990094 
L 74.345899 68.990094 
L 74.466337 67.902691 
L 74.691505 67.902691 
L 74.701978 67.35899 
L 74.707214 68.990094 
L 74.785761 68.446393 
L 74.796234 70.077497 
L 74.895726 69.261945 
L 74.979509 69.261945 
L 75.099948 68.174542 
L 75.230859 68.174542 
L 75.356534 73.067856 
L 75.513627 73.067856 
L 75.623593 76.330065 
L 75.628829 75.786363 
L 75.707376 75.786363 
L 75.812105 79.048573 
L 75.822578 78.23302 
L 75.83305 78.23302 
L 75.948252 77.417468 
L 76.0844 77.417468 
L 76.189129 79.864125 
L 76.199602 79.048573 
L 76.450951 79.048573 
L 76.566153 78.504871 
L 76.812266 78.504871 
L 76.937941 76.058214 
L 77.178818 76.058214 
L 77.225946 77.689319 
L 77.288783 76.873766 
L 78.027122 76.873766 
L 78.142324 76.330065 
L 78.23658 76.330065 
L 78.351782 77.96117 
L 78.466984 77.96117 
L 78.582186 77.145617 
L 78.676442 77.145617 
L 78.791644 76.601916 
L 79.105831 76.601916 
L 79.221032 75.786363 
L 80.032682 75.786363 
L 80.147884 77.417468 
L 80.880986 77.417468 
L 80.912405 79.048573 
L 80.990952 78.23302 
L 81.540779 78.23302 
L 81.655981 77.417468 
L 81.849729 77.417468 
L 81.964931 79.048573 
L 82.132498 79.048573 
L 82.247699 80.679677 
L 83.017457 80.679677 
L 83.132659 82.310782 
L 84.577919 82.310782 
L 84.693121 81.76708 
L 85.420987 81.76708 
L 85.536189 83.398185 
L 87.196143 83.398185 
L 87.311345 82.854483 
L 88.735659 82.854483 
L 88.85086 84.485588 
L 89.055082 84.485588 
L 89.170284 83.941887 
L 89.919096 83.941887 
L 90.034298 83.126334 
L 90.526524 83.126334 
L 90.641726 82.582633 
L 90.825001 82.582633 
L 90.940203 84.213737 
L 91.385301 84.213737 
L 91.500503 85.844842 
L 92.573975 85.844842 
L 92.689177 85.02929 
L 99.344702 85.02929 
L 99.459904 84.213737 
L 99.637943 84.213737 
L 99.753145 85.844842 
L 100.643342 85.844842 
L 100.758543 85.30114 
L 102.345187 85.30114 
L 102.460389 84.757439 
L 109.958983 84.757439 
L 110.074185 86.388543 
L 110.27317 86.388543 
L 110.325534 88.019648 
L 110.383135 87.204096 
L 113.938683 87.204096 
L 114.053885 88.8352 
L 115.729548 88.8352 
L 115.84475 90.466305 
L 118.457738 90.466305 
L 118.57294 89.922603 
L 124.741476 89.922603 
L 124.856678 89.378902 
L 126.762745 89.378902 
L 126.820346 91.010007 
L 126.87271 90.466305 
L 127.75767 90.466305 
L 127.872872 89.650753 
L 133.837186 89.650753 
L 133.952388 91.281857 
L 134.999677 91.281857 
L 135.114879 92.912962 
L 138.911304 92.912962 
L 139.026506 92.36926 
L 141.592366 92.36926 
L 141.707567 91.553708 
L 162.00404 91.553708 
L 162.119242 90.738156 
L 162.632414 90.738156 
L 162.747616 92.36926 
L 163.381226 92.36926 
L 163.496428 91.553708 
L 164.224294 91.553708 
L 164.339496 91.010007 
L 171.832853 91.010007 
L 171.948055 90.466305 
L 203.073503 90.466305 
L 203.188705 89.650753 
L 209.671427 89.650753 
L 209.786629 91.281857 
L 244.551408 91.281857 
L 244.66661 90.466305 
L 248.677729 90.466305 
L 248.792931 92.09741 
L 260.999092 92.09741 
L 261.114293 91.553708 
L 271.96945 91.553708 
L 272.084652 91.010007 
L 294.905093 91.010007 
L 295.020295 92.641111 
L 340.116586 92.641111 
L 340.231788 91.825559 
L 344.054395 91.825559 
L 344.169597 91.281857 
L 357.658687 91.281857 
L 357.773889 92.912962 
L 382.563234 92.912962 
L 382.678436 94.544067 
L 398.487273 94.544067 
L 398.487273 94.544067 
" clip-path="url(#p45f33e77a2)" style="fill: none; stroke: #ff7f0e; stroke-width: 1.5; stroke-linecap: square"/>
   </g>
   <g id="line2d_14">
    <path d="M 73.832727 55.941257 
L 73.895565 60.970496 
L 73.953166 60.154944 
L 73.963638 60.154944 
L 73.974111 58.79569 
L 74.063131 61.106422 
L 74.068367 61.106422 
L 74.110259 64.368631 
L 74.183569 62.601601 
L 74.214988 62.601601 
L 74.267352 65.86381 
L 74.33019 65.320109 
L 74.345899 65.320109 
L 74.466337 68.582318 
L 74.544884 68.582318 
L 74.660086 70.213423 
L 74.691505 70.213423 
L 74.733396 69.669721 
L 74.738633 71.300826 
L 74.796234 70.485273 
L 74.869544 70.485273 
L 74.948091 69.941572 
L 74.953327 71.572676 
L 74.969037 71.572676 
L 74.979509 71.572676 
L 75.099948 75.922289 
L 75.131366 75.922289 
L 75.246568 75.378587 
L 75.36177 75.378587 
L 75.476972 77.009692 
L 75.497918 77.009692 
L 75.618356 75.378587 
L 75.623593 75.378587 
L 75.738794 77.009692 
L 75.83305 77.009692 
L 75.948252 78.640796 
L 75.99538 78.640796 
L 76.110582 77.825244 
L 76.382877 77.825244 
L 76.503316 81.087453 
L 76.822739 81.087453 
L 76.937941 82.718558 
L 77.424931 82.718558 
L 77.540133 81.903006 
L 78.006176 81.903006 
L 78.126615 85.165215 
L 78.466984 85.165215 
L 78.582186 86.79632 
L 78.676442 86.79632 
L 78.791644 86.252618 
L 80.755312 86.252618 
L 80.870514 87.883723 
L 80.912405 87.883723 
L 81.027607 89.514827 
L 81.373213 89.514827 
L 81.488414 88.699275 
L 81.540779 88.699275 
L 81.655981 90.33038 
L 81.734527 90.33038 
L 81.849729 89.514827 
L 84.577919 89.514827 
L 84.693121 88.971126 
L 84.844978 88.971126 
L 84.960179 90.60223 
L 85.368622 90.60223 
L 85.483824 90.058529 
L 86.080779 90.058529 
L 86.195981 89.242977 
L 86.599188 89.242977 
L 86.71439 90.874081 
L 87.196143 90.874081 
L 87.311345 92.505186 
L 87.955428 92.505186 
L 88.07063 91.689633 
L 89.055082 91.689633 
L 89.170284 91.145932 
L 89.919096 91.145932 
L 90.034298 92.777037 
L 90.348485 92.777037 
L 90.463686 92.233335 
L 90.526524 92.233335 
L 90.641726 91.689633 
L 91.322464 91.689633 
L 91.437666 91.145932 
L 92.573975 91.145932 
L 92.689177 92.777037 
L 93.474644 92.777037 
L 93.589846 94.408141 
L 96.323272 94.408141 
L 96.438474 96.039246 
L 99.517505 96.039246 
L 99.632707 95.223693 
L 100.643342 95.223693 
L 100.758543 96.854798 
L 102.345187 96.854798 
L 102.460389 98.485903 
L 110.325534 98.485903 
L 110.440736 100.117007 
L 112.493424 100.117007 
L 112.608625 99.301455 
L 114.116722 99.301455 
L 114.231924 98.485903 
L 114.755569 98.485903 
L 114.870771 100.117007 
L 115.493908 100.117007 
L 115.60911 99.573306 
L 116.944404 99.573306 
L 117.059606 98.757753 
L 118.457738 98.757753 
L 118.57294 100.388858 
L 119.740668 100.388858 
L 119.85587 99.573306 
L 124.741476 99.573306 
L 124.856678 101.20441 
L 125.972041 101.20441 
L 126.087243 102.835515 
L 126.820346 102.835515 
L 126.935547 102.291813 
L 126.96173 102.291813 
L 127.076932 101.476261 
L 128.595501 101.476261 
L 128.710703 100.660709 
L 138.911304 100.660709 
L 139.026506 102.291813 
L 141.592366 102.291813 
L 141.707567 103.922918 
L 162.00404 103.922918 
L 162.119242 105.554023 
L 164.224294 105.554023 
L 164.339496 105.010321 
L 171.832853 105.010321 
L 171.948055 106.641426 
L 176.482819 106.641426 
L 176.598021 106.097724 
L 244.064418 106.097724 
L 244.17962 107.728829 
L 260.999092 107.728829 
L 261.114293 107.185127 
L 271.96945 107.185127 
L 272.084652 106.641426 
L 314.395153 106.641426 
L 314.510355 106.097724 
L 322.705396 106.097724 
L 322.820598 107.728829 
L 340.116586 107.728829 
L 340.231788 109.359933 
L 344.054395 109.359933 
L 344.169597 108.816232 
L 359.371005 108.816232 
L 359.486207 108.00068 
L 385.45899 108.00068 
L 385.574192 107.456978 
L 398.487273 107.456978 
L 398.487273 107.456978 
" clip-path="url(#p45f33e77a2)" style="fill: none; stroke: #2ca02c; stroke-width: 1.5; stroke-linecap: square"/>
   </g>
   <g id="line2d_15">
    <path d="M 73.832727 55.941257 
L 73.837964 55.941257 
L 73.8432 57.572362 
L 73.947929 56.349033 
L 74.016003 56.349033 
L 74.110259 55.941257 
L 74.141678 57.572362 
L 74.220224 57.02866 
L 74.225461 57.02866 
L 74.345899 56.213108 
L 74.701978 56.213108 
L 74.81718 55.805332 
L 74.869544 55.805332 
L 74.989982 59.067541 
L 75.131366 59.067541 
L 75.230859 60.698646 
L 75.241332 60.29087 
L 75.246568 60.29087 
L 75.367007 59.475317 
L 75.513627 59.475317 
L 75.607883 58.659765 
L 75.61312 60.29087 
L 75.707376 60.29087 
L 75.827814 59.475317 
L 76.0844 59.475317 
L 76.204838 58.659765 
L 77.178818 58.659765 
L 77.294019 58.251989 
L 77.424931 58.251989 
L 77.540133 59.883093 
L 78.23658 59.883093 
L 78.351782 59.475317 
L 80.032682 59.475317 
L 80.147884 59.067541 
L 80.880986 59.067541 
L 80.996188 58.659765 
L 81.734527 58.659765 
L 81.849729 60.29087 
L 81.964931 59.883093 
L 82.132498 59.883093 
L 82.247699 59.475317 
L 83.017457 59.475317 
L 83.132659 59.067541 
L 85.368622 59.067541 
L 85.420987 60.698646 
L 85.478588 60.29087 
L 88.735659 60.29087 
L 88.85086 59.883093 
L 90.348485 59.883093 
L 90.463686 61.514198 
L 90.825001 61.514198 
L 90.940203 61.106422 
L 91.322464 61.106422 
L 91.385301 62.737526 
L 91.432429 62.32975 
L 99.637943 62.32975 
L 99.753145 61.921974 
L 109.958983 61.921974 
L 110.074185 61.514198 
L 110.27317 61.514198 
L 110.388371 61.106422 
L 113.938683 61.106422 
L 114.053885 60.698646 
L 115.493908 60.698646 
L 115.60911 62.32975 
L 115.729548 62.32975 
L 115.84475 61.921974 
L 126.762745 61.921974 
L 126.877946 61.514198 
L 128.595501 61.514198 
L 128.710703 63.145303 
L 133.837186 63.145303 
L 133.952388 62.737526 
L 134.999677 62.737526 
L 135.114879 62.32975 
L 162.632414 62.32975 
L 162.747616 61.921974 
L 176.482819 61.921974 
L 176.598021 63.553079 
L 209.671427 63.553079 
L 209.786629 63.145303 
L 248.677729 63.145303 
L 248.792931 62.737526 
L 294.905093 62.737526 
L 295.020295 62.32975 
L 314.395153 62.32975 
L 314.510355 63.960855 
L 357.658687 63.960855 
L 357.773889 63.553079 
L 382.563234 63.553079 
L 382.678436 63.145303 
L 385.45899 63.145303 
L 385.574192 64.776407 
L 398.487273 64.776407 
L 398.487273 64.776407 
" clip-path="url(#p45f33e77a2)" style="fill: none; stroke: #d62728; stroke-width: 1.5; stroke-linecap: square"/>
   </g>
   <g id="line2d_16">
    <path d="M 73.832727 55.941257 
L 73.837964 55.941257 
L 73.953166 55.533481 
L 73.984584 55.533481 
L 74.099786 55.125705 
L 74.131205 55.125705 
L 74.246407 54.717929 
L 75.131366 54.717929 
L 75.246568 54.174227 
L 85.368622 54.174227 
L 85.483824 53.630526 
L 90.348485 53.630526 
L 90.463686 53.086824 
L 115.493908 53.086824 
L 115.60911 52.543123 
L 176.482819 52.543123 
L 176.598021 51.999421 
L 314.395153 51.999421 
L 314.510355 51.45572 
L 398.487273 51.45572 
L 398.487273 51.45572 
" clip-path="url(#p45f33e77a2)" style="fill: none; stroke: #9467bd; stroke-width: 1.5; stroke-linecap: square"/>
   </g>
   <g id="line2d_17">
    <path d="M 73.832727 55.941257 
L 73.853673 55.941257 
L 73.979348 54.310153 
L 73.995057 54.310153 
L 74.115495 52.950899 
L 74.267352 52.950899 
L 74.382554 52.407197 
L 74.869544 52.407197 
L 74.989982 51.319794 
L 75.607883 51.319794 
L 75.723085 50.504242 
L 77.424931 50.504242 
L 77.540133 49.68869 
L 81.734527 49.68869 
L 81.849729 48.873137 
L 91.322464 48.873137 
L 91.437666 48.329436 
L 128.595501 48.329436 
L 128.710703 47.513883 
L 385.45899 47.513883 
L 385.574192 46.970182 
L 398.487273 46.970182 
L 398.487273 46.970182 
" clip-path="url(#p45f33e77a2)" style="fill: none; stroke: #8c564b; stroke-width: 1.5; stroke-linecap: square"/>
   </g>
   <g id="line2d_18">
    <path d="M 73.832727 55.397556 
L 73.947929 54.446078 
L 73.984584 54.446078 
L 74.099786 54.038302 
L 74.131205 54.038302 
L 74.246407 53.630526 
L 75.131366 53.630526 
L 75.246568 53.086824 
L 85.368622 53.086824 
L 85.483824 52.543123 
L 90.348485 52.543123 
L 90.463686 51.999421 
L 115.493908 51.999421 
L 115.60911 51.45572 
L 176.482819 51.45572 
L 176.598021 50.912018 
L 314.395153 50.912018 
L 314.510355 50.368316 
L 398.487273 50.368316 
L 398.487273 50.368316 
" clip-path="url(#p45f33e77a2)" style="fill: none; stroke: #e377c2; stroke-width: 1.5; stroke-linecap: square"/>
   </g>
   <g id="line2d_19">
    <path d="M 73.832727 57.572362 
L 73.8432 60.834571 
L 73.947929 60.019019 
L 73.963638 60.019019 
L 74.016003 64.912333 
L 74.084077 63.417153 
L 74.089313 63.417153 
L 74.204515 66.135661 
L 74.214988 66.135661 
L 74.251643 64.776407 
L 74.304008 68.038616 
L 74.47681 68.038616 
L 74.592012 69.669721 
L 74.701978 69.669721 
L 74.796234 69.261945 
L 74.916672 72.524154 
L 74.948091 72.524154 
L 74.984746 71.980453 
L 75.010928 75.242662 
L 75.031874 75.242662 
L 75.058056 75.242662 
L 75.073765 74.69896 
L 75.136603 77.96117 
L 75.141839 77.96117 
L 75.230859 77.96117 
L 75.356534 76.737841 
L 75.36177 76.737841 
L 75.476972 76.19414 
L 75.497918 76.19414 
L 75.61312 78.640796 
L 75.707376 78.640796 
L 75.827814 77.825244 
L 76.0844 77.825244 
L 76.204838 77.009692 
L 76.225784 77.009692 
L 76.340986 78.640796 
L 76.382877 78.640796 
L 76.498079 78.097095 
L 76.707537 78.097095 
L 76.822739 79.7282 
L 76.932705 79.184498 
L 77.047906 80.815603 
L 77.163108 80.815603 
L 77.178818 82.446707 
L 77.273074 82.038931 
L 77.424931 82.038931 
L 77.545369 85.30114 
L 78.006176 85.30114 
L 78.121378 84.757439 
L 78.23658 84.757439 
L 78.320363 84.349663 
L 78.3256 85.980767 
L 78.330836 85.980767 
L 78.765461 85.980767 
L 78.880663 87.611872 
L 79.19485 87.611872 
L 79.310052 89.242977 
L 80.032682 89.242977 
L 80.147884 88.8352 
L 80.755312 88.8352 
L 80.870514 88.291499 
L 80.880986 88.291499 
L 80.996188 87.883723 
L 81.734527 87.883723 
L 81.849729 89.514827 
L 81.964931 89.107051 
L 82.132498 89.107051 
L 82.247699 88.699275 
L 83.017457 88.699275 
L 83.132659 88.291499 
L 84.844978 88.291499 
L 84.960179 87.747797 
L 85.368622 87.747797 
L 85.420987 89.378902 
L 85.478588 88.971126 
L 86.080779 88.971126 
L 86.195981 90.60223 
L 86.599188 90.60223 
L 86.71439 90.058529 
L 88.735659 90.058529 
L 88.85086 89.650753 
L 89.913859 89.650753 
L 90.029061 91.281857 
L 90.348485 91.281857 
L 90.463686 92.912962 
L 90.825001 92.912962 
L 90.940203 92.505186 
L 91.322464 92.505186 
L 91.385301 94.13629 
L 91.432429 93.728514 
L 93.474644 93.728514 
L 93.589846 93.184813 
L 93.773122 93.184813 
L 93.888323 94.815917 
L 96.323272 94.815917 
L 96.438474 94.272216 
L 96.647932 94.272216 
L 96.763133 95.90332 
L 99.637943 95.90332 
L 99.753145 95.495544 
L 109.958983 95.495544 
L 110.074185 95.087768 
L 110.27317 95.087768 
L 110.388371 94.679992 
L 110.880598 94.679992 
L 110.995799 96.311097 
L 113.938683 96.311097 
L 114.053885 95.90332 
L 114.755569 95.90332 
L 114.870771 95.359619 
L 115.493908 95.359619 
L 115.60911 96.990723 
L 115.729548 96.990723 
L 115.84475 96.582947 
L 119.20655 96.582947 
L 119.321752 98.214052 
L 125.972041 98.214052 
L 126.087243 97.67035 
L 126.762745 97.67035 
L 126.877946 97.262574 
L 127.207843 97.262574 
L 127.323045 98.893679 
L 128.595501 98.893679 
L 128.710703 100.524783 
L 133.837186 100.524783 
L 133.952388 100.117007 
L 134.999677 100.117007 
L 135.114879 99.709231 
L 141.592366 99.709231 
L 141.707567 101.340336 
L 150.038756 101.340336 
L 150.153958 102.97144 
L 153.945147 102.97144 
L 154.060349 104.602545 
L 162.632414 104.602545 
L 162.747616 104.194769 
L 176.482819 104.194769 
L 176.598021 105.825873 
L 182.6147 105.825873 
L 182.729902 107.456978 
L 209.671427 107.456978 
L 209.786629 107.049202 
L 228.025178 107.049202 
L 228.14038 108.680307 
L 244.064418 108.680307 
L 244.17962 108.136605 
L 248.677729 108.136605 
L 248.792931 107.728829 
L 294.905093 107.728829 
L 295.020295 107.321053 
L 305.089985 107.321053 
L 305.205186 108.952157 
L 314.395153 108.952157 
L 314.510355 110.583262 
L 322.705396 110.583262 
L 322.820598 110.03956 
L 357.658687 110.03956 
L 357.773889 109.631784 
L 382.563234 109.631784 
L 382.678436 109.224008 
L 385.45899 109.224008 
L 385.574192 110.855113 
L 398.487273 110.855113 
L 398.487273 110.855113 
" clip-path="url(#p45f33e77a2)" style="fill: none; stroke: #7f7f7f; stroke-width: 1.5; stroke-linecap: square"/>
   </g>
   <g id="line2d_20">
    <path d="M 73.832727 57.572362 
L 73.958402 62.873452 
L 73.963638 62.873452 
L 74.09455 70.213423 
L 74.105023 70.213423 
L 74.110259 69.669721 
L 74.173096 71.980453 
L 74.194042 71.980453 
L 74.214988 71.980453 
L 74.251643 70.077497 
L 74.272589 73.339706 
L 74.298771 73.339706 
L 74.345899 74.970811 
L 74.408737 74.42711 
L 74.424446 74.42711 
L 74.560594 71.436751 
L 74.691505 71.436751 
L 74.811943 75.378587 
L 74.869544 75.378587 
L 74.948091 77.009692 
L 74.979509 76.46599 
L 74.989982 77.553393 
L 75.120894 73.203781 
L 75.230859 73.203781 
L 75.356534 71.980453 
L 75.36177 71.980453 
L 75.476972 71.436751 
L 75.497918 71.436751 
L 75.61312 73.883408 
L 75.623593 73.883408 
L 75.738794 72.93193 
L 75.806868 72.93193 
L 75.812105 72.524154 
L 75.838287 75.786363 
L 75.880178 75.786363 
L 75.99538 75.786363 
L 76.0844 77.417468 
L 76.105346 77.009692 
L 76.115819 77.009692 
L 76.225784 79.864125 
L 76.340986 78.23302 
L 76.382877 78.23302 
L 76.503316 77.145617 
L 76.707537 77.145617 
L 76.812266 75.514513 
L 76.817503 77.145617 
L 76.822739 77.145617 
L 76.843685 76.601916 
L 76.848921 78.23302 
L 76.922232 78.23302 
L 76.932705 78.23302 
L 77.047906 79.864125 
L 77.163108 79.864125 
L 77.225946 77.825244 
L 77.273074 79.456349 
L 77.424931 79.456349 
L 77.519187 81.087453 
L 77.534896 79.456349 
L 78.006176 79.456349 
L 78.126615 78.368946 
L 78.23658 78.368946 
L 78.372728 76.330065 
L 78.466984 76.330065 
L 78.582186 77.96117 
L 78.676442 77.96117 
L 78.765461 79.592274 
L 78.786407 77.96117 
L 79.105831 77.96117 
L 79.19485 79.592274 
L 79.215796 77.96117 
L 80.032682 77.96117 
L 80.147884 77.553393 
L 80.755312 77.553393 
L 80.870514 77.009692 
L 80.880986 77.009692 
L 80.912405 76.601916 
L 80.917642 78.23302 
L 80.975242 78.23302 
L 81.373213 78.23302 
L 81.488414 79.864125 
L 81.540779 79.864125 
L 81.655981 81.49523 
L 81.734527 81.49523 
L 81.849729 83.126334 
L 81.964931 82.718558 
L 82.132498 82.718558 
L 82.247699 82.310782 
L 83.017457 82.310782 
L 83.132659 81.903006 
L 84.577919 81.903006 
L 84.693121 83.53411 
L 84.844978 83.53411 
L 84.960179 82.990409 
L 85.420987 82.990409 
L 85.536189 82.582633 
L 86.080779 82.582633 
L 86.195981 84.213737 
L 86.599188 84.213737 
L 86.71439 83.670036 
L 87.196143 83.670036 
L 87.311345 83.126334 
L 87.955428 83.126334 
L 88.07063 84.757439 
L 88.735659 84.757439 
L 88.85086 84.349663 
L 89.055082 84.349663 
L 89.170284 85.980767 
L 89.913859 85.980767 
L 89.919096 84.349663 
L 90.023825 85.980767 
L 90.526524 85.980767 
L 90.641726 87.611872 
L 90.825001 87.611872 
L 90.940203 87.204096 
L 91.322464 87.204096 
L 91.385301 88.8352 
L 91.432429 88.427424 
L 92.573975 88.427424 
L 92.689177 90.058529 
L 93.474644 90.058529 
L 93.589846 89.514827 
L 93.773122 89.514827 
L 93.888323 87.883723 
L 96.323272 87.883723 
L 96.438474 87.340021 
L 96.647932 87.340021 
L 96.763133 85.708917 
L 99.344702 85.708917 
L 99.459904 87.340021 
L 99.517505 87.340021 
L 99.632707 88.971126 
L 99.637943 88.971126 
L 99.753145 88.56335 
L 100.643342 88.56335 
L 100.758543 88.019648 
L 102.345187 88.019648 
L 102.460389 87.475947 
L 109.958983 87.475947 
L 110.074185 87.06817 
L 110.27317 87.06817 
L 110.325534 86.660394 
L 110.33077 88.291499 
L 110.367426 88.291499 
L 110.880598 88.291499 
L 110.995799 86.660394 
L 112.493424 86.660394 
L 112.608625 88.291499 
L 113.938683 88.291499 
L 114.053885 87.883723 
L 114.116722 87.883723 
L 114.231924 89.514827 
L 114.755569 89.514827 
L 114.870771 88.971126 
L 115.729548 88.971126 
L 115.84475 88.56335 
L 116.944404 88.56335 
L 117.059606 90.194454 
L 118.457738 90.194454 
L 118.57294 89.650753 
L 119.20655 89.650753 
L 119.321752 88.019648 
L 119.740668 88.019648 
L 119.85587 89.650753 
L 124.741476 89.650753 
L 124.856678 89.107051 
L 125.972041 89.107051 
L 126.087243 88.56335 
L 126.762745 88.56335 
L 126.820346 88.155573 
L 126.825582 89.786678 
L 126.857001 89.786678 
L 126.96173 89.786678 
L 127.076932 91.417783 
L 127.207843 91.417783 
L 127.323045 89.786678 
L 127.75767 89.786678 
L 127.872872 91.417783 
L 128.595501 91.417783 
L 128.710703 93.048887 
L 133.837186 93.048887 
L 133.952388 92.641111 
L 134.999677 92.641111 
L 135.114879 92.233335 
L 138.911304 92.233335 
L 139.026506 91.689633 
L 141.592366 91.689633 
L 141.707567 93.320738 
L 150.038756 93.320738 
L 150.153958 91.689633 
L 153.945147 91.689633 
L 154.060349 90.058529 
L 162.00404 90.058529 
L 162.119242 91.689633 
L 162.632414 91.689633 
L 162.747616 91.281857 
L 163.381226 91.281857 
L 163.496428 92.912962 
L 164.224294 92.912962 
L 164.339496 94.544067 
L 171.832853 94.544067 
L 171.948055 94.000365 
L 182.6147 94.000365 
L 182.729902 92.36926 
L 203.073503 92.36926 
L 203.188705 94.000365 
L 209.671427 94.000365 
L 209.786629 93.592589 
L 228.025178 93.592589 
L 228.14038 91.961484 
L 244.064418 91.961484 
L 244.17962 91.417783 
L 244.551408 91.417783 
L 244.66661 93.048887 
L 248.677729 93.048887 
L 248.792931 92.641111 
L 260.999092 92.641111 
L 261.114293 94.272216 
L 271.96945 94.272216 
L 272.084652 95.90332 
L 294.905093 95.90332 
L 295.020295 95.495544 
L 305.089985 95.495544 
L 305.205186 93.86444 
L 322.705396 93.86444 
L 322.820598 93.320738 
L 340.116586 93.320738 
L 340.231788 94.951843 
L 344.054395 94.951843 
L 344.169597 96.582947 
L 357.658687 96.582947 
L 357.773889 96.175171 
L 359.371005 96.175171 
L 359.486207 97.806276 
L 382.563234 97.806276 
L 382.678436 97.3985 
L 385.45899 97.3985 
L 385.574192 99.029604 
L 398.487273 99.029604 
L 398.487273 99.029604 
" clip-path="url(#p45f33e77a2)" style="fill: none; stroke: #bcbd22; stroke-width: 1.5; stroke-linecap: square"/>
   </g>
   <g id="line2d_21">
    <path d="M 73.832727 57.572362 
L 73.837964 57.572362 
L 73.958402 61.242347 
L 73.963638 61.242347 
L 74.016003 65.048258 
L 74.07884 63.553079 
L 74.089313 63.553079 
L 74.209752 67.902691 
L 74.214988 67.902691 
L 74.251643 65.999736 
L 74.304008 69.261945 
L 74.309244 69.261945 
L 74.345899 69.261945 
L 74.466337 68.174542 
L 74.47681 68.174542 
L 74.544884 69.805646 
L 74.586776 68.990094 
L 74.691505 68.990094 
L 74.811943 72.93193 
L 74.869544 72.93193 
L 74.948091 74.563035 
L 74.979509 74.019333 
L 74.984746 73.475632 
L 75.010928 76.737841 
L 75.073765 75.650438 
L 75.194204 78.912647 
L 75.230859 78.912647 
L 75.356534 77.689319 
L 75.36177 77.689319 
L 75.476972 77.145617 
L 75.497918 77.145617 
L 75.61312 79.592274 
L 75.623593 79.592274 
L 75.738794 78.640796 
L 75.806868 78.640796 
L 75.812105 78.23302 
L 75.817341 79.864125 
L 75.901124 79.864125 
L 75.99538 79.864125 
L 76.0844 81.49523 
L 76.105346 81.087453 
L 76.115819 81.087453 
L 76.236257 85.572991 
L 76.382877 85.572991 
L 76.503316 84.485588 
L 76.707537 84.485588 
L 76.822739 87.747797 
L 76.843685 87.204096 
L 76.848921 88.8352 
L 76.922232 88.8352 
L 76.932705 88.8352 
L 77.047906 90.466305 
L 77.163108 90.466305 
L 77.27831 93.320738 
L 77.424931 93.320738 
L 77.545369 96.582947 
L 78.006176 96.582947 
L 78.126615 95.495544 
L 78.23658 95.495544 
L 78.320363 95.087768 
L 78.3256 96.718873 
L 78.330836 96.718873 
L 78.676442 96.718873 
L 78.79688 99.981082 
L 79.105831 99.981082 
L 79.226269 103.243291 
L 80.032682 103.243291 
L 80.147884 102.835515 
L 80.755312 102.835515 
L 80.870514 102.291813 
L 80.880986 102.291813 
L 80.996188 101.884037 
L 81.373213 101.884037 
L 81.488414 103.515142 
L 81.734527 103.515142 
L 81.849729 105.146247 
L 81.964931 104.73847 
L 82.132498 104.73847 
L 82.247699 104.330694 
L 83.017457 104.330694 
L 83.132659 103.922918 
L 84.577919 103.922918 
L 84.693121 105.554023 
L 84.844978 105.554023 
L 84.960179 105.010321 
L 85.368622 105.010321 
L 85.420987 106.641426 
L 85.478588 106.23365 
L 86.080779 106.23365 
L 86.195981 107.864754 
L 86.599188 107.864754 
L 86.71439 107.321053 
L 87.196143 107.321053 
L 87.311345 106.777351 
L 87.955428 106.777351 
L 88.07063 108.408456 
L 88.735659 108.408456 
L 88.85086 108.00068 
L 89.055082 108.00068 
L 89.170284 109.631784 
L 89.913859 109.631784 
L 90.029061 111.262889 
L 90.348485 111.262889 
L 90.463686 112.893993 
L 90.526524 112.893993 
L 90.641726 114.525098 
L 90.825001 114.525098 
L 90.940203 114.117322 
L 91.322464 114.117322 
L 91.385301 115.748427 
L 91.432429 115.34065 
L 93.474644 115.34065 
L 93.589846 114.796949 
L 93.773122 114.796949 
L 93.888323 116.428053 
L 96.323272 116.428053 
L 96.438474 115.884352 
L 96.647932 115.884352 
L 96.763133 117.515457 
L 99.344702 117.515457 
L 99.459904 119.146561 
L 99.517505 119.146561 
L 99.632707 120.777666 
L 99.637943 120.777666 
L 99.753145 120.36989 
L 100.643342 120.36989 
L 100.758543 119.826188 
L 102.345187 119.826188 
L 102.460389 119.282487 
L 109.958983 119.282487 
L 110.074185 118.87471 
L 110.27317 118.87471 
L 110.388371 118.466934 
L 110.880598 118.466934 
L 110.995799 120.098039 
L 112.493424 120.098039 
L 112.608625 121.729143 
L 113.938683 121.729143 
L 114.053885 121.321367 
L 114.116722 121.321367 
L 114.231924 122.952472 
L 114.755569 122.952472 
L 114.870771 122.40877 
L 115.493908 122.40877 
L 115.60911 124.039875 
L 115.729548 124.039875 
L 115.84475 123.632099 
L 116.944404 123.632099 
L 117.059606 125.263204 
L 118.457738 125.263204 
L 118.57294 124.719502 
L 119.20655 124.719502 
L 119.321752 126.350607 
L 119.740668 126.350607 
L 119.85587 127.981711 
L 124.741476 127.981711 
L 124.856678 127.43801 
L 125.972041 127.43801 
L 126.087243 126.894308 
L 126.762745 126.894308 
L 126.820346 126.486532 
L 126.825582 128.117637 
L 126.857001 128.117637 
L 126.96173 128.117637 
L 127.076932 129.748741 
L 127.207843 129.748741 
L 127.323045 131.379846 
L 127.75767 131.379846 
L 127.872872 133.01095 
L 128.595501 133.01095 
L 128.710703 134.642055 
L 133.837186 134.642055 
L 133.952388 134.234279 
L 134.999677 134.234279 
L 135.114879 133.826503 
L 138.911304 133.826503 
L 139.026506 133.282801 
L 141.592366 133.282801 
L 141.707567 134.913906 
L 150.038756 134.913906 
L 150.153958 136.54501 
L 153.945147 136.54501 
L 154.060349 138.176115 
L 162.632414 138.176115 
L 162.747616 137.768339 
L 163.381226 137.768339 
L 163.496428 139.399444 
L 164.224294 139.399444 
L 164.339496 141.030548 
L 171.832853 141.030548 
L 171.948055 140.486847 
L 176.482819 140.486847 
L 176.598021 142.117951 
L 182.6147 142.117951 
L 182.729902 143.749056 
L 203.073503 143.749056 
L 203.188705 145.38016 
L 209.671427 145.38016 
L 209.786629 144.972384 
L 228.025178 144.972384 
L 228.14038 146.603489 
L 244.064418 146.603489 
L 244.17962 146.059787 
L 244.551408 146.059787 
L 244.66661 147.690892 
L 248.677729 147.690892 
L 248.792931 147.283116 
L 260.999092 147.283116 
L 261.114293 148.91422 
L 271.96945 148.91422 
L 272.084652 150.545325 
L 294.905093 150.545325 
L 295.020295 150.137549 
L 305.089985 150.137549 
L 305.205186 151.768654 
L 314.395153 151.768654 
L 314.510355 153.399758 
L 322.705396 153.399758 
L 322.820598 152.856057 
L 344.054395 152.856057 
L 344.169597 154.487161 
L 357.658687 154.487161 
L 357.773889 154.079385 
L 359.371005 154.079385 
L 359.486207 155.71049 
L 382.563234 155.71049 
L 382.678436 155.302714 
L 385.45899 155.302714 
L 385.574192 156.933818 
L 398.487273 156.933818 
L 398.487273 156.933818 
" clip-path="url(#p45f33e77a2)" style="fill: none; stroke: #17becf; stroke-width: 1.5; stroke-linecap: square"/>
   </g>
   <g id="line2d_22">
    <path d="M 73.832727 55.941257 
L 73.853673 55.941257 
L 73.979348 60.834571 
L 73.995057 60.834571 
L 74.115495 64.09678 
L 74.267352 64.09678 
L 74.382554 65.727885 
L 74.869544 65.727885 
L 74.989982 68.990094 
L 75.607883 68.990094 
L 75.723085 70.621199 
L 77.424931 70.621199 
L 77.540133 72.252303 
L 81.734527 72.252303 
L 81.849729 73.883408 
L 91.322464 73.883408 
L 91.437666 75.514513 
L 128.595501 75.514513 
L 128.710703 77.145617 
L 385.45899 77.145617 
L 385.574192 78.776722 
L 398.487273 78.776722 
L 398.487273 78.776722 
" clip-path="url(#p45f33e77a2)" style="fill: none; stroke: #1f77b4; stroke-width: 1.5; stroke-linecap: square"/>
   </g>
   <g id="line2d_23">
    <path d="M 73.832727 55.397556 
L 73.837964 55.397556 
L 73.995057 51.72757 
L 74.785761 51.72757 
L 74.900963 50.096466 
L 398.487273 50.096466 
L 398.487273 50.096466 
" clip-path="url(#p45f33e77a2)" style="fill: none; stroke: #ff7f0e; stroke-width: 1.5; stroke-linecap: square"/>
   </g>
   <g id="patch_3">
    <path d="M 57.6 162.432 
L 57.6 41.472 
" style="fill: none; stroke: #000000; stroke-width: 0.8; stroke-linejoin: miter; stroke-linecap: square"/>
   </g>
   <g id="patch_4">
    <path d="M 414.72 162.432 
L 414.72 41.472 
" style="fill: none; stroke: #000000; stroke-width: 0.8; stroke-linejoin: miter; stroke-linecap: square"/>
   </g>
   <g id="patch_5">
    <path d="M 57.6 162.432 
L 414.72 162.432 
" style="fill: none; stroke: #000000; stroke-width: 0.8; stroke-linejoin: miter; stroke-linecap: square"/>
   </g>
   <g id="patch_6">
    <path d="M 57.6 41.472 
L 414.72 41.472 
" style="fill: none; stroke: #000000; stroke-width: 0.8; stroke-linejoin: miter; stroke-linecap: square"/>
   </g>
   <g id="text_12">
    <!-- WSP -->
    <g transform="translate(361.832136 79.7282)scale(0.08 -0.08)">
     <defs>
      <path id="DejaVuSans-57" d="M 213 4666 
L 850 4666 
L 1831 722 
L 2809 4666 
L 3519 4666 
L 4500 722 
L 5478 4666 
L 6119 4666 
L 4947 0 
L 4153 0 
L 3169 4050 
L 2175 0 
L 1381 0 
L 213 4666 
z
" transform="scale(0.015625)"/>
      <path id="DejaVuSans-53" d="M 3425 4513 
L 3425 3897 
Q 3066 4069 2747 4153 
Q 2428 4238 2131 4238 
Q 1616 4238 1336 4038 
Q 1056 3838 1056 3469 
Q 1056 3159 1242 3001 
Q 1428 2844 1947 2747 
L 2328 2669 
Q 3034 2534 3370 2195 
Q 3706 1856 3706 1288 
Q 3706 609 3251 259 
Q 2797 -91 1919 -91 
Q 1588 -91 1214 -16 
Q 841 59 441 206 
L 441 856 
Q 825 641 1194 531 
Q 1563 422 1919 422 
Q 2459 422 2753 634 
Q 3047 847 3047 1241 
Q 3047 1584 2836 1778 
Q 2625 1972 2144 2069 
L 1759 2144 
Q 1053 2284 737 2584 
Q 422 2884 422 3419 
Q 422 4038 858 4394 
Q 1294 4750 2059 4750 
Q 2388 4750 2728 4690 
Q 3069 4631 3425 4513 
z
" transform="scale(0.015625)"/>
      <path id="DejaVuSans-50" d="M 1259 4147 
L 1259 2394 
L 2053 2394 
Q 2494 2394 2734 2622 
Q 2975 2850 2975 3272 
Q 2975 3691 2734 3919 
Q 2494 4147 2053 4147 
L 1259 4147 
z
M 628 4666 
L 2053 4666 
Q 2838 4666 3239 4311 
Q 3641 3956 3641 3272 
Q 3641 2581 3239 2228 
Q 2838 1875 2053 1875 
L 1259 1875 
L 1259 0 
L 628 0 
L 628 4666 
z
" transform="scale(0.015625)"/>
     </defs>
     <use xlink:href="#DejaVuSans-57"/>
     <use xlink:href="#DejaVuSans-53" x="98.876953"/>
     <use xlink:href="#DejaVuSans-50" x="162.353516"/>
    </g>
   </g>
   <g id="text_13">
    <!-- Iambic -->
    <g transform="translate(361.832136 94.544067)scale(0.08 -0.08)">
     <defs>
      <path id="DejaVuSans-49" d="M 628 4666 
L 1259 4666 
L 1259 0 
L 628 0 
L 628 4666 
z
" transform="scale(0.015625)"/>
      <path id="DejaVuSans-61" d="M 2194 1759 
Q 1497 1759 1228 1600 
Q 959 1441 959 1056 
Q 959 750 1161 570 
Q 1363 391 1709 391 
Q 2188 391 2477 730 
Q 2766 1069 2766 1631 
L 2766 1759 
L 2194 1759 
z
M 3341 1997 
L 3341 0 
L 2766 0 
L 2766 531 
Q 2569 213 2275 61 
Q 1981 -91 1556 -91 
Q 1019 -91 701 211 
Q 384 513 384 1019 
Q 384 1609 779 1909 
Q 1175 2209 1959 2209 
L 2766 2209 
L 2766 2266 
Q 2766 2663 2505 2880 
Q 2244 3097 1772 3097 
Q 1472 3097 1187 3025 
Q 903 2953 641 2809 
L 641 3341 
Q 956 3463 1253 3523 
Q 1550 3584 1831 3584 
Q 2591 3584 2966 3190 
Q 3341 2797 3341 1997 
z
" transform="scale(0.015625)"/>
      <path id="DejaVuSans-6d" d="M 3328 2828 
Q 3544 3216 3844 3400 
Q 4144 3584 4550 3584 
Q 5097 3584 5394 3201 
Q 5691 2819 5691 2113 
L 5691 0 
L 5113 0 
L 5113 2094 
Q 5113 2597 4934 2840 
Q 4756 3084 4391 3084 
Q 3944 3084 3684 2787 
Q 3425 2491 3425 1978 
L 3425 0 
L 2847 0 
L 2847 2094 
Q 2847 2600 2669 2842 
Q 2491 3084 2119 3084 
Q 1678 3084 1418 2786 
Q 1159 2488 1159 1978 
L 1159 0 
L 581 0 
L 581 3500 
L 1159 3500 
L 1159 2956 
Q 1356 3278 1631 3431 
Q 1906 3584 2284 3584 
Q 2666 3584 2933 3390 
Q 3200 3197 3328 2828 
z
" transform="scale(0.015625)"/>
      <path id="DejaVuSans-62" d="M 3116 1747 
Q 3116 2381 2855 2742 
Q 2594 3103 2138 3103 
Q 1681 3103 1420 2742 
Q 1159 2381 1159 1747 
Q 1159 1113 1420 752 
Q 1681 391 2138 391 
Q 2594 391 2855 752 
Q 3116 1113 3116 1747 
z
M 1159 2969 
Q 1341 3281 1617 3432 
Q 1894 3584 2278 3584 
Q 2916 3584 3314 3078 
Q 3713 2572 3713 1747 
Q 3713 922 3314 415 
Q 2916 -91 2278 -91 
Q 1894 -91 1617 61 
Q 1341 213 1159 525 
L 1159 0 
L 581 0 
L 581 4863 
L 1159 4863 
L 1159 2969 
z
" transform="scale(0.015625)"/>
      <path id="DejaVuSans-69" d="M 603 3500 
L 1178 3500 
L 1178 0 
L 603 0 
L 603 3500 
z
M 603 4863 
L 1178 4863 
L 1178 4134 
L 603 4134 
L 603 4863 
z
" transform="scale(0.015625)"/>
      <path id="DejaVuSans-63" d="M 3122 3366 
L 3122 2828 
Q 2878 2963 2633 3030 
Q 2388 3097 2138 3097 
Q 1578 3097 1268 2742 
Q 959 2388 959 1747 
Q 959 1106 1268 751 
Q 1578 397 2138 397 
Q 2388 397 2633 464 
Q 2878 531 3122 666 
L 3122 134 
Q 2881 22 2623 -34 
Q 2366 -91 2075 -91 
Q 1284 -91 818 406 
Q 353 903 353 1747 
Q 353 2603 823 3093 
Q 1294 3584 2113 3584 
Q 2378 3584 2631 3529 
Q 2884 3475 3122 3366 
z
" transform="scale(0.015625)"/>
     </defs>
     <use xlink:href="#DejaVuSans-49"/>
     <use xlink:href="#DejaVuSans-61" x="29.492188"/>
     <use xlink:href="#DejaVuSans-6d" x="90.771484"/>
     <use xlink:href="#DejaVuSans-62" x="188.183594"/>
     <use xlink:href="#DejaVuSans-69" x="251.660156"/>
     <use xlink:href="#DejaVuSans-63" x="279.443359"/>
    </g>
   </g>
   <g id="text_14">
    <!-- Parse -->
    <g transform="translate(361.832136 107.456978)scale(0.08 -0.08)">
     <defs>
      <path id="DejaVuSans-72" d="M 2631 2963 
Q 2534 3019 2420 3045 
Q 2306 3072 2169 3072 
Q 1681 3072 1420 2755 
Q 1159 2438 1159 1844 
L 1159 0 
L 581 0 
L 581 3500 
L 1159 3500 
L 1159 2956 
Q 1341 3275 1631 3429 
Q 1922 3584 2338 3584 
Q 2397 3584 2469 3576 
Q 2541 3569 2628 3553 
L 2631 2963 
z
" transform="scale(0.015625)"/>
      <path id="DejaVuSans-73" d="M 2834 3397 
L 2834 2853 
Q 2591 2978 2328 3040 
Q 2066 3103 1784 3103 
Q 1356 3103 1142 2972 
Q 928 2841 928 2578 
Q 928 2378 1081 2264 
Q 1234 2150 1697 2047 
L 1894 2003 
Q 2506 1872 2764 1633 
Q 3022 1394 3022 966 
Q 3022 478 2636 193 
Q 2250 -91 1575 -91 
Q 1294 -91 989 -36 
Q 684 19 347 128 
L 347 722 
Q 666 556 975 473 
Q 1284 391 1588 391 
Q 1994 391 2212 530 
Q 2431 669 2431 922 
Q 2431 1156 2273 1281 
Q 2116 1406 1581 1522 
L 1381 1569 
Q 847 1681 609 1914 
Q 372 2147 372 2553 
Q 372 3047 722 3315 
Q 1072 3584 1716 3584 
Q 2034 3584 2315 3537 
Q 2597 3491 2834 3397 
z
" transform="scale(0.015625)"/>
      <path id="DejaVuSans-65" d="M 3597 1894 
L 3597 1613 
L 953 1613 
Q 991 1019 1311 708 
Q 1631 397 2203 397 
Q 2534 397 2845 478 
Q 3156 559 3463 722 
L 3463 178 
Q 3153 47 2828 -22 
Q 2503 -91 2169 -91 
Q 1331 -91 842 396 
Q 353 884 353 1716 
Q 353 2575 817 3079 
Q 1281 3584 2069 3584 
Q 2775 3584 3186 3129 
Q 3597 2675 3597 1894 
z
M 3022 2063 
Q 3016 2534 2758 2815 
Q 2500 3097 2075 3097 
Q 1594 3097 1305 2825 
Q 1016 2553 972 2059 
L 3022 2063 
z
" transform="scale(0.015625)"/>
     </defs>
     <use xlink:href="#DejaVuSans-50"/>
     <use xlink:href="#DejaVuSans-61" x="55.802734"/>
     <use xlink:href="#DejaVuSans-72" x="117.082031"/>
     <use xlink:href="#DejaVuSans-73" x="158.195312"/>
     <use xlink:href="#DejaVuSans-65" x="210.294922"/>
    </g>
   </g>
   <g id="text_15">
    <!-- FootBin -->
    <g transform="translate(361.832136 64.776407)scale(0.08 -0.08)">
     <defs>
      <path id="DejaVuSans-46" d="M 628 4666 
L 3309 4666 
L 3309 4134 
L 1259 4134 
L 1259 2759 
L 3109 2759 
L 3109 2228 
L 1259 2228 
L 1259 0 
L 628 0 
L 628 4666 
z
" transform="scale(0.015625)"/>
      <path id="DejaVuSans-6f" d="M 1959 3097 
Q 1497 3097 1228 2736 
Q 959 2375 959 1747 
Q 959 1119 1226 758 
Q 1494 397 1959 397 
Q 2419 397 2687 759 
Q 2956 1122 2956 1747 
Q 2956 2369 2687 2733 
Q 2419 3097 1959 3097 
z
M 1959 3584 
Q 2709 3584 3137 3096 
Q 3566 2609 3566 1747 
Q 3566 888 3137 398 
Q 2709 -91 1959 -91 
Q 1206 -91 779 398 
Q 353 888 353 1747 
Q 353 2609 779 3096 
Q 1206 3584 1959 3584 
z
" transform="scale(0.015625)"/>
      <path id="DejaVuSans-74" d="M 1172 4494 
L 1172 3500 
L 2356 3500 
L 2356 3053 
L 1172 3053 
L 1172 1153 
Q 1172 725 1289 603 
Q 1406 481 1766 481 
L 2356 481 
L 2356 0 
L 1766 0 
Q 1100 0 847 248 
Q 594 497 594 1153 
L 594 3053 
L 172 3053 
L 172 3500 
L 594 3500 
L 594 4494 
L 1172 4494 
z
" transform="scale(0.015625)"/>
      <path id="DejaVuSans-42" d="M 1259 2228 
L 1259 519 
L 2272 519 
Q 2781 519 3026 730 
Q 3272 941 3272 1375 
Q 3272 1813 3026 2020 
Q 2781 2228 2272 2228 
L 1259 2228 
z
M 1259 4147 
L 1259 2741 
L 2194 2741 
Q 2656 2741 2882 2914 
Q 3109 3088 3109 3444 
Q 3109 3797 2882 3972 
Q 2656 4147 2194 4147 
L 1259 4147 
z
M 628 4666 
L 2241 4666 
Q 2963 4666 3353 4366 
Q 3744 4066 3744 3513 
Q 3744 3084 3544 2831 
Q 3344 2578 2956 2516 
Q 3422 2416 3680 2098 
Q 3938 1781 3938 1306 
Q 3938 681 3513 340 
Q 3088 0 2303 0 
L 628 0 
L 628 4666 
z
" transform="scale(0.015625)"/>
      <path id="DejaVuSans-6e" d="M 3513 2113 
L 3513 0 
L 2938 0 
L 2938 2094 
Q 2938 2591 2744 2837 
Q 2550 3084 2163 3084 
Q 1697 3084 1428 2787 
Q 1159 2491 1159 1978 
L 1159 0 
L 581 0 
L 581 3500 
L 1159 3500 
L 1159 2956 
Q 1366 3272 1645 3428 
Q 1925 3584 2291 3584 
Q 2894 3584 3203 3211 
Q 3513 2838 3513 2113 
z
" transform="scale(0.015625)"/>
     </defs>
     <use xlink:href="#DejaVuSans-46"/>
     <use xlink:href="#DejaVuSans-6f" x="53.894531"/>
     <use xlink:href="#DejaVuSans-6f" x="115.076172"/>
     <use xlink:href="#DejaVuSans-74" x="176.257812"/>
     <use xlink:href="#DejaVuSans-42" x="215.466797"/>
     <use xlink:href="#DejaVuSans-69" x="284.070312"/>
     <use xlink:href="#DejaVuSans-6e" x="311.853516"/>
    </g>
   </g>
   <g id="text_16">
    <!-- WFL -->
    <g transform="translate(361.832136 51.45572)scale(0.08 -0.08)">
     <defs>
      <path id="DejaVuSans-4c" d="M 628 4666 
L 1259 4666 
L 1259 531 
L 3531 531 
L 3531 0 
L 628 0 
L 628 4666 
z
" transform="scale(0.015625)"/>
     </defs>
     <use xlink:href="#DejaVuSans-57"/>
     <use xlink:href="#DejaVuSans-46" x="98.876953"/>
     <use xlink:href="#DejaVuSans-4c" x="156.396484"/>
    </g>
   </g>
   <g id="text_17">
    <!-- WFR -->
    <g transform="translate(361.832136 46.970182)scale(0.08 -0.08)">
     <defs>
      <path id="DejaVuSans-52" d="M 2841 2188 
Q 3044 2119 3236 1894 
Q 3428 1669 3622 1275 
L 4263 0 
L 3584 0 
L 2988 1197 
Q 2756 1666 2539 1819 
Q 2322 1972 1947 1972 
L 1259 1972 
L 1259 0 
L 628 0 
L 628 4666 
L 2053 4666 
Q 2853 4666 3247 4331 
Q 3641 3997 3641 3322 
Q 3641 2881 3436 2590 
Q 3231 2300 2841 2188 
z
M 1259 4147 
L 1259 2491 
L 2053 2491 
Q 2509 2491 2742 2702 
Q 2975 2913 2975 3322 
Q 2975 3731 2742 3939 
Q 2509 4147 2053 4147 
L 1259 4147 
z
" transform="scale(0.015625)"/>
     </defs>
     <use xlink:href="#DejaVuSans-57"/>
     <use xlink:href="#DejaVuSans-46" x="98.876953"/>
     <use xlink:href="#DejaVuSans-52" x="156.396484"/>
    </g>
   </g>
   <g id="text_18">
    <!-- Main-L -->
    <g transform="translate(361.832136 50.368316)scale(0.08 -0.08)">
     <defs>
      <path id="DejaVuSans-4d" d="M 628 4666 
L 1569 4666 
L 2759 1491 
L 3956 4666 
L 4897 4666 
L 4897 0 
L 4281 0 
L 4281 4097 
L 3078 897 
L 2444 897 
L 1241 4097 
L 1241 0 
L 628 0 
L 628 4666 
z
" transform="scale(0.015625)"/>
      <path id="DejaVuSans-2d" d="M 313 2009 
L 1997 2009 
L 1997 1497 
L 313 1497 
L 313 2009 
z
" transform="scale(0.015625)"/>
     </defs>
     <use xlink:href="#DejaVuSans-4d"/>
     <use xlink:href="#DejaVuSans-61" x="86.279297"/>
     <use xlink:href="#DejaVuSans-69" x="147.558594"/>
     <use xlink:href="#DejaVuSans-6e" x="175.341797"/>
     <use xlink:href="#DejaVuSans-2d" x="238.720703"/>
     <use xlink:href="#DejaVuSans-4c" x="274.804688"/>
    </g>
   </g>
   <g id="text_19">
    <!-- Main-R -->
    <g transform="translate(361.832136 110.855113)scale(0.08 -0.08)">
     <use xlink:href="#DejaVuSans-4d"/>
     <use xlink:href="#DejaVuSans-61" x="86.279297"/>
     <use xlink:href="#DejaVuSans-69" x="147.558594"/>
     <use xlink:href="#DejaVuSans-6e" x="175.341797"/>
     <use xlink:href="#DejaVuSans-2d" x="238.720703"/>
     <use xlink:href="#DejaVuSans-52" x="274.804688"/>
    </g>
   </g>
   <g id="text_20">
    <!-- AFL -->
    <g transform="translate(361.832136 99.029604)scale(0.08 -0.08)">
     <defs>
      <path id="DejaVuSans-41" d="M 2188 4044 
L 1331 1722 
L 3047 1722 
L 2188 4044 
z
M 1831 4666 
L 2547 4666 
L 4325 0 
L 3669 0 
L 3244 1197 
L 1141 1197 
L 716 0 
L 50 0 
L 1831 4666 
z
" transform="scale(0.015625)"/>
     </defs>
     <use xlink:href="#DejaVuSans-41"/>
     <use xlink:href="#DejaVuSans-46" x="68.408203"/>
     <use xlink:href="#DejaVuSans-4c" x="125.927734"/>
    </g>
   </g>
   <g id="text_21">
    <!-- AFR -->
    <g transform="translate(361.832136 156.933818)scale(0.08 -0.08)">
     <use xlink:href="#DejaVuSans-41"/>
     <use xlink:href="#DejaVuSans-46" x="68.408203"/>
     <use xlink:href="#DejaVuSans-52" x="125.927734"/>
    </g>
   </g>
   <g id="text_22">
    <!-- Nonfinal -->
    <g transform="translate(361.832136 78.776722)scale(0.08 -0.08)">
     <defs>
      <path id="DejaVuSans-4e" d="M 628 4666 
L 1478 4666 
L 3547 763 
L 3547 4666 
L 4159 4666 
L 4159 0 
L 3309 0 
L 1241 3903 
L 1241 0 
L 628 0 
L 628 4666 
z
" transform="scale(0.015625)"/>
      <path id="DejaVuSans-66" d="M 2375 4863 
L 2375 4384 
L 1825 4384 
Q 1516 4384 1395 4259 
Q 1275 4134 1275 3809 
L 1275 3500 
L 2222 3500 
L 2222 3053 
L 1275 3053 
L 1275 0 
L 697 0 
L 697 3053 
L 147 3053 
L 147 3500 
L 697 3500 
L 697 3744 
Q 697 4328 969 4595 
Q 1241 4863 1831 4863 
L 2375 4863 
z
" transform="scale(0.015625)"/>
      <path id="DejaVuSans-6c" d="M 603 4863 
L 1178 4863 
L 1178 0 
L 603 0 
L 603 4863 
z
" transform="scale(0.015625)"/>
     </defs>
     <use xlink:href="#DejaVuSans-4e"/>
     <use xlink:href="#DejaVuSans-6f" x="74.804688"/>
     <use xlink:href="#DejaVuSans-6e" x="135.986328"/>
     <use xlink:href="#DejaVuSans-66" x="199.365234"/>
     <use xlink:href="#DejaVuSans-69" x="234.570312"/>
     <use xlink:href="#DejaVuSans-6e" x="262.353516"/>
     <use xlink:href="#DejaVuSans-61" x="325.732422"/>
     <use xlink:href="#DejaVuSans-6c" x="387.011719"/>
    </g>
   </g>
   <g id="text_23">
    <!-- Trochaic -->
    <g transform="translate(361.832136 50.096466)scale(0.08 -0.08)">
     <defs>
      <path id="DejaVuSans-54" d="M -19 4666 
L 3928 4666 
L 3928 4134 
L 2272 4134 
L 2272 0 
L 1638 0 
L 1638 4134 
L -19 4134 
L -19 4666 
z
" transform="scale(0.015625)"/>
      <path id="DejaVuSans-68" d="M 3513 2113 
L 3513 0 
L 2938 0 
L 2938 2094 
Q 2938 2591 2744 2837 
Q 2550 3084 2163 3084 
Q 1697 3084 1428 2787 
Q 1159 2491 1159 1978 
L 1159 0 
L 581 0 
L 581 4863 
L 1159 4863 
L 1159 2956 
Q 1366 3272 1645 3428 
Q 1925 3584 2291 3584 
Q 2894 3584 3203 3211 
Q 3513 2838 3513 2113 
z
" transform="scale(0.015625)"/>
     </defs>
     <use xlink:href="#DejaVuSans-54"/>
     <use xlink:href="#DejaVuSans-72" x="46.333984"/>
     <use xlink:href="#DejaVuSans-6f" x="85.197266"/>
     <use xlink:href="#DejaVuSans-63" x="146.378906"/>
     <use xlink:href="#DejaVuSans-68" x="201.359375"/>
     <use xlink:href="#DejaVuSans-61" x="264.738281"/>
     <use xlink:href="#DejaVuSans-69" x="326.017578"/>
     <use xlink:href="#DejaVuSans-63" x="353.800781"/>
    </g>
   </g>
  </g>
  <g id="axes_2">
   <g id="patch_7">
    <path d="M 57.6 307.584 
L 414.72 307.584 
L 414.72 186.624 
L 57.6 186.624 
z
" style="fill: #ffffff"/>
   </g>
   <g id="matplotlib.axis_3">
    <g id="xtick_8">
     <g id="line2d_24">
      <g>
       <use xlink:href="#mbd147c8a0c" x="72.039056" y="307.584" style="stroke: #000000; stroke-width: 0.8"/>
      </g>
     </g>
     <g id="text_24">
      <!-- 0 -->
      <g transform="translate(68.857806 322.182437)scale(0.1 -0.1)">
       <use xlink:href="#DejaVuSans-30"/>
      </g>
     </g>
    </g>
    <g id="xtick_9">
     <g id="line2d_25">
      <g>
       <use xlink:href="#mbd147c8a0c" x="116.880844" y="307.584" style="stroke: #000000; stroke-width: 0.8"/>
      </g>
     </g>
     <g id="text_25">
      <!-- 25 -->
      <g transform="translate(110.518344 322.182437)scale(0.1 -0.1)">
       <use xlink:href="#DejaVuSans-32"/>
       <use xlink:href="#DejaVuSans-35" x="63.623047"/>
      </g>
     </g>
    </g>
    <g id="xtick_10">
     <g id="line2d_26">
      <g>
       <use xlink:href="#mbd147c8a0c" x="161.722632" y="307.584" style="stroke: #000000; stroke-width: 0.8"/>
      </g>
     </g>
     <g id="text_26">
      <!-- 50 -->
      <g transform="translate(155.360132 322.182437)scale(0.1 -0.1)">
       <use xlink:href="#DejaVuSans-35"/>
       <use xlink:href="#DejaVuSans-30" x="63.623047"/>
      </g>
     </g>
    </g>
    <g id="xtick_11">
     <g id="line2d_27">
      <g>
       <use xlink:href="#mbd147c8a0c" x="206.56442" y="307.584" style="stroke: #000000; stroke-width: 0.8"/>
      </g>
     </g>
     <g id="text_27">
      <!-- 75 -->
      <g transform="translate(200.20192 322.182437)scale(0.1 -0.1)">
       <defs>
        <path id="DejaVuSans-37" d="M 525 4666 
L 3525 4666 
L 3525 4397 
L 1831 0 
L 1172 0 
L 2766 4134 
L 525 4134 
L 525 4666 
z
" transform="scale(0.015625)"/>
       </defs>
       <use xlink:href="#DejaVuSans-37"/>
       <use xlink:href="#DejaVuSans-35" x="63.623047"/>
      </g>
     </g>
    </g>
    <g id="xtick_12">
     <g id="line2d_28">
      <g>
       <use xlink:href="#mbd147c8a0c" x="251.406208" y="307.584" style="stroke: #000000; stroke-width: 0.8"/>
      </g>
     </g>
     <g id="text_28">
      <!-- 100 -->
      <g transform="translate(241.862458 322.182437)scale(0.1 -0.1)">
       <use xlink:href="#DejaVuSans-31"/>
       <use xlink:href="#DejaVuSans-30" x="63.623047"/>
       <use xlink:href="#DejaVuSans-30" x="127.246094"/>
      </g>
     </g>
    </g>
    <g id="xtick_13">
     <g id="line2d_29">
      <g>
       <use xlink:href="#mbd147c8a0c" x="296.247996" y="307.584" style="stroke: #000000; stroke-width: 0.8"/>
      </g>
     </g>
     <g id="text_29">
      <!-- 125 -->
      <g transform="translate(286.704246 322.182437)scale(0.1 -0.1)">
       <use xlink:href="#DejaVuSans-31"/>
       <use xlink:href="#DejaVuSans-32" x="63.623047"/>
       <use xlink:href="#DejaVuSans-35" x="127.246094"/>
      </g>
     </g>
    </g>
    <g id="xtick_14">
     <g id="line2d_30">
      <g>
       <use xlink:href="#mbd147c8a0c" x="341.089784" y="307.584" style="stroke: #000000; stroke-width: 0.8"/>
      </g>
     </g>
     <g id="text_30">
      <!-- 150 -->
      <g transform="translate(331.546034 322.182437)scale(0.1 -0.1)">
       <use xlink:href="#DejaVuSans-31"/>
       <use xlink:href="#DejaVuSans-35" x="63.623047"/>
       <use xlink:href="#DejaVuSans-30" x="127.246094"/>
      </g>
     </g>
    </g>
    <g id="xtick_15">
     <g id="line2d_31">
      <g>
       <use xlink:href="#mbd147c8a0c" x="385.931572" y="307.584" style="stroke: #000000; stroke-width: 0.8"/>
      </g>
     </g>
     <g id="text_31">
      <!-- 175 -->
      <g transform="translate(376.387822 322.182437)scale(0.1 -0.1)">
       <use xlink:href="#DejaVuSans-31"/>
       <use xlink:href="#DejaVuSans-37" x="63.623047"/>
       <use xlink:href="#DejaVuSans-35" x="127.246094"/>
      </g>
     </g>
    </g>
   </g>
   <g id="matplotlib.axis_4">
    <g id="ytick_5">
     <g id="line2d_32">
      <g>
       <use xlink:href="#mc76cae1c76" x="57.6" y="302.110652" style="stroke: #000000; stroke-width: 0.8"/>
      </g>
     </g>
     <g id="text_32">
      <!-- 0 -->
      <g transform="translate(44.2375 305.909871)scale(0.1 -0.1)">
       <use xlink:href="#DejaVuSans-30"/>
      </g>
     </g>
    </g>
    <g id="ytick_6">
     <g id="line2d_33">
      <g>
       <use xlink:href="#mc76cae1c76" x="57.6" y="277.276949" style="stroke: #000000; stroke-width: 0.8"/>
      </g>
     </g>
     <g id="text_33">
      <!-- 1000 -->
      <g transform="translate(25.15 281.076168)scale(0.1 -0.1)">
       <use xlink:href="#DejaVuSans-31"/>
       <use xlink:href="#DejaVuSans-30" x="63.623047"/>
       <use xlink:href="#DejaVuSans-30" x="127.246094"/>
       <use xlink:href="#DejaVuSans-30" x="190.869141"/>
      </g>
     </g>
    </g>
    <g id="ytick_7">
     <g id="line2d_34">
      <g>
       <use xlink:href="#mc76cae1c76" x="57.6" y="252.443246" style="stroke: #000000; stroke-width: 0.8"/>
      </g>
     </g>
     <g id="text_34">
      <!-- 2000 -->
      <g transform="translate(25.15 256.242465)scale(0.1 -0.1)">
       <use xlink:href="#DejaVuSans-32"/>
       <use xlink:href="#DejaVuSans-30" x="63.623047"/>
       <use xlink:href="#DejaVuSans-30" x="127.246094"/>
       <use xlink:href="#DejaVuSans-30" x="190.869141"/>
      </g>
     </g>
    </g>
    <g id="ytick_8">
     <g id="line2d_35">
      <g>
       <use xlink:href="#mc76cae1c76" x="57.6" y="227.609543" style="stroke: #000000; stroke-width: 0.8"/>
      </g>
     </g>
     <g id="text_35">
      <!-- 3000 -->
      <g transform="translate(25.15 231.408762)scale(0.1 -0.1)">
       <use xlink:href="#DejaVuSans-33"/>
       <use xlink:href="#DejaVuSans-30" x="63.623047"/>
       <use xlink:href="#DejaVuSans-30" x="127.246094"/>
       <use xlink:href="#DejaVuSans-30" x="190.869141"/>
      </g>
     </g>
    </g>
    <g id="ytick_9">
     <g id="line2d_36">
      <g>
       <use xlink:href="#mc76cae1c76" x="57.6" y="202.77584" style="stroke: #000000; stroke-width: 0.8"/>
      </g>
     </g>
     <g id="text_36">
      <!-- 4000 -->
      <g transform="translate(25.15 206.575059)scale(0.1 -0.1)">
       <use xlink:href="#DejaVuSans-34"/>
       <use xlink:href="#DejaVuSans-30" x="63.623047"/>
       <use xlink:href="#DejaVuSans-30" x="127.246094"/>
       <use xlink:href="#DejaVuSans-30" x="190.869141"/>
      </g>
     </g>
    </g>
   </g>
   <g id="line2d_37">
    <path d="M 73.832727 302.085818 
L 88.182099 302.085818 
L 89.975771 301.887149 
L 93.563114 302.085818 
L 104.325143 302.036151 
L 106.118815 301.911982 
L 107.912486 302.060984 
L 111.499829 302.036151 
L 113.293501 302.085818 
L 115.087172 302.011317 
L 116.880844 302.060984 
L 120.468187 301.887149 
L 122.261858 302.060984 
L 131.230216 301.96165 
L 134.817559 301.738146 
L 136.611231 301.862315 
L 138.404902 301.787814 
L 140.198574 301.415308 
L 141.992245 302.060984 
L 143.785917 301.96165 
L 149.166931 302.060984 
L 150.960603 301.76298 
L 152.754274 301.738146 
L 156.341617 302.085818 
L 159.92896 301.936816 
L 163.516303 302.036151 
L 167.103646 301.638812 
L 168.897318 302.036151 
L 170.690989 301.613978 
L 172.484661 302.060984 
L 174.278332 301.464976 
L 176.072004 302.036151 
L 177.865676 302.011317 
L 179.659347 301.76298 
L 181.453019 302.036151 
L 183.24669 301.713313 
L 185.040362 301.638812 
L 186.834033 302.085818 
L 188.627705 302.011317 
L 190.421376 301.340807 
L 194.008719 301.96165 
L 195.802391 301.812647 
L 197.596062 302.060984 
L 199.389734 301.936816 
L 201.183405 301.365641 
L 202.977077 301.787814 
L 204.770748 300.8938 
L 206.56442 301.613978 
L 208.358091 302.060984 
L 210.151763 302.011317 
L 211.945434 301.688479 
L 213.739106 301.017969 
L 215.532777 302.036151 
L 217.326449 301.887149 
L 219.120121 301.166971 
L 220.913792 301.663645 
L 222.707464 299.801118 
L 224.501135 302.011317 
L 226.294807 301.117304 
L 228.088478 301.713313 
L 231.675821 301.117304 
L 233.469493 301.688479 
L 235.263164 300.496461 
L 237.056836 301.688479 
L 238.850507 298.137259 
L 240.644179 298.683601 
L 242.43785 301.514643 
L 244.231522 301.96165 
L 246.025193 299.925286 
L 247.818865 301.315973 
L 249.612536 301.191805 
L 251.406208 301.56431 
L 253.199879 300.769632 
L 254.993551 297.913756 
L 256.787223 294.710208 
L 258.580894 300.844133 
L 260.374566 299.627282 
L 262.168237 301.862315 
L 263.961909 298.981605 
L 265.75558 299.652115 
L 267.549252 299.27961 
L 269.342923 298.509765 
L 271.136595 298.41043 
L 272.930266 300.595796 
L 274.723938 298.037925 
L 276.517609 302.085818 
L 278.311281 300.074288 
L 280.104952 301.266306 
L 281.898624 300.695131 
L 283.692295 299.75145 
L 285.485967 301.812647 
L 287.279638 296.473401 
L 289.07331 297.839255 
L 290.866981 300.695131 
L 292.660653 290.016639 
L 294.454324 300.570962 
L 296.247996 289.321295 
L 298.041668 301.29114 
L 299.835339 301.539477 
L 301.629011 297.342581 
L 303.422682 294.039698 
L 305.216354 266.002448 
L 307.010025 300.62063 
L 308.803697 301.862315 
L 310.597368 299.478279 
L 312.39104 294.461871 
L 314.184711 295.25655 
L 315.978383 301.266306 
L 317.772054 299.08094 
L 319.565726 298.6091 
L 321.359397 300.993135 
L 323.153069 296.349233 
L 324.94674 294.933712 
L 326.740412 298.559432 
L 328.534083 299.577614 
L 330.327755 278.394466 
L 332.121426 296.274732 
L 333.915098 298.360763 
L 335.708769 301.837481 
L 339.296113 300.943468 
L 342.883456 298.137259 
L 344.677127 277.252115 
L 346.470799 296.59757 
L 348.26447 283.559876 
L 350.058142 289.395796 
L 351.851813 262.053889 
L 353.645485 283.58471 
L 355.439156 263.891583 
L 357.232828 299.130608 
L 359.026499 298.559432 
L 360.820171 298.112426 
L 362.613842 266.027282 
L 364.407514 280.058324 
L 366.201185 273.030386 
L 367.994857 205.085375 
L 369.788528 270.820186 
L 371.5822 215.068523 
L 373.375871 226.04502 
L 375.169543 299.801118 
L 376.963214 282.541694 
L 378.756886 243.676949 
L 380.550558 250.084044 
L 382.344229 193.339033 
L 384.137901 253.8091 
L 385.931572 257.981162 
L 387.725244 262.699565 
L 389.518915 219.53859 
L 391.312587 283.435707 
L 393.106258 237.592692 
L 394.89993 293.990031 
L 396.693601 192.122182 
L 398.487273 288.377614 
L 398.487273 288.377614 
" clip-path="url(#p817f303f33)" style="fill: none; stroke: #1f77b4; stroke-width: 1.5; stroke-linecap: square"/>
   </g>
   <g id="patch_8">
    <path d="M 57.6 307.584 
L 57.6 186.624 
" style="fill: none; stroke: #000000; stroke-width: 0.8; stroke-linejoin: miter; stroke-linecap: square"/>
   </g>
   <g id="patch_9">
    <path d="M 414.72 307.584 
L 414.72 186.624 
" style="fill: none; stroke: #000000; stroke-width: 0.8; stroke-linejoin: miter; stroke-linecap: square"/>
   </g>
   <g id="patch_10">
    <path d="M 57.6 307.584 
L 414.72 307.584 
" style="fill: none; stroke: #000000; stroke-width: 0.8; stroke-linejoin: miter; stroke-linecap: square"/>
   </g>
   <g id="patch_11">
    <path d="M 57.6 186.624 
L 414.72 186.624 
" style="fill: none; stroke: #000000; stroke-width: 0.8; stroke-linejoin: miter; stroke-linecap: square"/>
   </g>
  </g>
 </g>
 <defs>
  <clipPath id="p45f33e77a2">
   <rect x="57.6" y="41.472" width="357.12" height="120.96"/>
  </clipPath>
  <clipPath id="p817f303f33">
   <rect x="57.6" y="186.624" width="357.12" height="120.96"/>
  </clipPath>
 </defs>
</svg>
