<?xml version="1.0" encoding="utf-8" standalone="no"?>
<!DOCTYPE svg PUBLIC "-//W3C//DTD SVG 1.1//EN"
  "http://www.w3.org/Graphics/SVG/1.1/DTD/svg11.dtd">
<svg xmlns:xlink="http://www.w3.org/1999/xlink" width="460.8pt" height="345.6pt" viewBox="0 0 460.8 345.6" xmlns="http://www.w3.org/2000/svg" version="1.1">
 <metadata>
  <rdf:RDF xmlns:dc="http://purl.org/dc/elements/1.1/" xmlns:cc="http://creativecommons.org/ns#" xmlns:rdf="http://www.w3.org/1999/02/22-rdf-syntax-ns#">
   <cc:Work>
    <dc:type rdf:resource="http://purl.org/dc/dcmitype/StillImage"/>
    <dc:date>2022-05-14T04:09:59.716933</dc:date>
    <dc:format>image/svg+xml</dc:format>
    <dc:creator>
     <cc:Agent>
      <dc:title>Matplotlib v3.5.1, https://matplotlib.org/</dc:title>
     </cc:Agent>
    </dc:creator>
   </cc:Work>
  </rdf:RDF>
 </metadata>
 <defs>
  <style type="text/css">*{stroke-linejoin: round; stroke-linecap: butt}</style>
 </defs>
 <g id="figure_1">
  <g id="patch_1">
   <path d="M 0 345.6 
L 460.8 345.6 
L 460.8 0 
L 0 0 
z
" style="fill: #ffffff"/>
  </g>
  <g id="axes_1">
   <g id="patch_2">
    <path d="M 57.6 162.432 
L 414.72 162.432 
L 414.72 41.472 
L 57.6 41.472 
z
" style="fill: #ffffff"/>
   </g>
   <g id="matplotlib.axis_1">
    <g id="xtick_1">
     <g id="line2d_1">
      <defs>
       <path id="mf30430a691" d="M 0 0 
L 0 3.5 
" style="stroke: #000000; stroke-width: 0.8"/>
      </defs>
      <g>
       <use xlink:href="#mf30430a691" x="73.827491" y="162.432" style="stroke: #000000; stroke-width: 0.8"/>
      </g>
     </g>
     <g id="text_1">
      <!-- 0 -->
      <g transform="translate(70.646241 177.030437)scale(0.1 -0.1)">
       <defs>
        <path id="DejaVuSans-30" d="M 2034 4250 
Q 1547 4250 1301 3770 
Q 1056 3291 1056 2328 
Q 1056 1369 1301 889 
Q 1547 409 2034 409 
Q 2525 409 2770 889 
Q 3016 1369 3016 2328 
Q 3016 3291 2770 3770 
Q 2525 4250 2034 4250 
z
M 2034 4750 
Q 2819 4750 3233 4129 
Q 3647 3509 3647 2328 
Q 3647 1150 3233 529 
Q 2819 -91 2034 -91 
Q 1250 -91 836 529 
Q 422 1150 422 2328 
Q 422 3509 836 4129 
Q 1250 4750 2034 4750 
z
" transform="scale(0.015625)"/>
       </defs>
       <use xlink:href="#DejaVuSans-30"/>
      </g>
     </g>
    </g>
    <g id="xtick_2">
     <g id="line2d_2">
      <g>
       <use xlink:href="#mf30430a691" x="126.191972" y="162.432" style="stroke: #000000; stroke-width: 0.8"/>
      </g>
     </g>
     <g id="text_2">
      <!-- 10000 -->
      <g transform="translate(110.285722 177.030437)scale(0.1 -0.1)">
       <defs>
        <path id="DejaVuSans-31" d="M 794 531 
L 1825 531 
L 1825 4091 
L 703 3866 
L 703 4441 
L 1819 4666 
L 2450 4666 
L 2450 531 
L 3481 531 
L 3481 0 
L 794 0 
L 794 531 
z
" transform="scale(0.015625)"/>
       </defs>
       <use xlink:href="#DejaVuSans-31"/>
       <use xlink:href="#DejaVuSans-30" x="63.623047"/>
       <use xlink:href="#DejaVuSans-30" x="127.246094"/>
       <use xlink:href="#DejaVuSans-30" x="190.869141"/>
       <use xlink:href="#DejaVuSans-30" x="254.492188"/>
      </g>
     </g>
    </g>
    <g id="xtick_3">
     <g id="line2d_3">
      <g>
       <use xlink:href="#mf30430a691" x="178.556453" y="162.432" style="stroke: #000000; stroke-width: 0.8"/>
      </g>
     </g>
     <g id="text_3">
      <!-- 20000 -->
      <g transform="translate(162.650203 177.030437)scale(0.1 -0.1)">
       <defs>
        <path id="DejaVuSans-32" d="M 1228 531 
L 3431 531 
L 3431 0 
L 469 0 
L 469 531 
Q 828 903 1448 1529 
Q 2069 2156 2228 2338 
Q 2531 2678 2651 2914 
Q 2772 3150 2772 3378 
Q 2772 3750 2511 3984 
Q 2250 4219 1831 4219 
Q 1534 4219 1204 4116 
Q 875 4013 500 3803 
L 500 4441 
Q 881 4594 1212 4672 
Q 1544 4750 1819 4750 
Q 2544 4750 2975 4387 
Q 3406 4025 3406 3419 
Q 3406 3131 3298 2873 
Q 3191 2616 2906 2266 
Q 2828 2175 2409 1742 
Q 1991 1309 1228 531 
z
" transform="scale(0.015625)"/>
       </defs>
       <use xlink:href="#DejaVuSans-32"/>
       <use xlink:href="#DejaVuSans-30" x="63.623047"/>
       <use xlink:href="#DejaVuSans-30" x="127.246094"/>
       <use xlink:href="#DejaVuSans-30" x="190.869141"/>
       <use xlink:href="#DejaVuSans-30" x="254.492188"/>
      </g>
     </g>
    </g>
    <g id="xtick_4">
     <g id="line2d_4">
      <g>
       <use xlink:href="#mf30430a691" x="230.920934" y="162.432" style="stroke: #000000; stroke-width: 0.8"/>
      </g>
     </g>
     <g id="text_4">
      <!-- 30000 -->
      <g transform="translate(215.014684 177.030437)scale(0.1 -0.1)">
       <defs>
        <path id="DejaVuSans-33" d="M 2597 2516 
Q 3050 2419 3304 2112 
Q 3559 1806 3559 1356 
Q 3559 666 3084 287 
Q 2609 -91 1734 -91 
Q 1441 -91 1130 -33 
Q 819 25 488 141 
L 488 750 
Q 750 597 1062 519 
Q 1375 441 1716 441 
Q 2309 441 2620 675 
Q 2931 909 2931 1356 
Q 2931 1769 2642 2001 
Q 2353 2234 1838 2234 
L 1294 2234 
L 1294 2753 
L 1863 2753 
Q 2328 2753 2575 2939 
Q 2822 3125 2822 3475 
Q 2822 3834 2567 4026 
Q 2313 4219 1838 4219 
Q 1578 4219 1281 4162 
Q 984 4106 628 3988 
L 628 4550 
Q 988 4650 1302 4700 
Q 1616 4750 1894 4750 
Q 2613 4750 3031 4423 
Q 3450 4097 3450 3541 
Q 3450 3153 3228 2886 
Q 3006 2619 2597 2516 
z
" transform="scale(0.015625)"/>
       </defs>
       <use xlink:href="#DejaVuSans-33"/>
       <use xlink:href="#DejaVuSans-30" x="63.623047"/>
       <use xlink:href="#DejaVuSans-30" x="127.246094"/>
       <use xlink:href="#DejaVuSans-30" x="190.869141"/>
       <use xlink:href="#DejaVuSans-30" x="254.492188"/>
      </g>
     </g>
    </g>
    <g id="xtick_5">
     <g id="line2d_5">
      <g>
       <use xlink:href="#mf30430a691" x="283.285415" y="162.432" style="stroke: #000000; stroke-width: 0.8"/>
      </g>
     </g>
     <g id="text_5">
      <!-- 40000 -->
      <g transform="translate(267.379165 177.030437)scale(0.1 -0.1)">
       <defs>
        <path id="DejaVuSans-34" d="M 2419 4116 
L 825 1625 
L 2419 1625 
L 2419 4116 
z
M 2253 4666 
L 3047 4666 
L 3047 1625 
L 3713 1625 
L 3713 1100 
L 3047 1100 
L 3047 0 
L 2419 0 
L 2419 1100 
L 313 1100 
L 313 1709 
L 2253 4666 
z
" transform="scale(0.015625)"/>
       </defs>
       <use xlink:href="#DejaVuSans-34"/>
       <use xlink:href="#DejaVuSans-30" x="63.623047"/>
       <use xlink:href="#DejaVuSans-30" x="127.246094"/>
       <use xlink:href="#DejaVuSans-30" x="190.869141"/>
       <use xlink:href="#DejaVuSans-30" x="254.492188"/>
      </g>
     </g>
    </g>
    <g id="xtick_6">
     <g id="line2d_6">
      <g>
       <use xlink:href="#mf30430a691" x="335.649896" y="162.432" style="stroke: #000000; stroke-width: 0.8"/>
      </g>
     </g>
     <g id="text_6">
      <!-- 50000 -->
      <g transform="translate(319.743646 177.030437)scale(0.1 -0.1)">
       <defs>
        <path id="DejaVuSans-35" d="M 691 4666 
L 3169 4666 
L 3169 4134 
L 1269 4134 
L 1269 2991 
Q 1406 3038 1543 3061 
Q 1681 3084 1819 3084 
Q 2600 3084 3056 2656 
Q 3513 2228 3513 1497 
Q 3513 744 3044 326 
Q 2575 -91 1722 -91 
Q 1428 -91 1123 -41 
Q 819 9 494 109 
L 494 744 
Q 775 591 1075 516 
Q 1375 441 1709 441 
Q 2250 441 2565 725 
Q 2881 1009 2881 1497 
Q 2881 1984 2565 2268 
Q 2250 2553 1709 2553 
Q 1456 2553 1204 2497 
Q 953 2441 691 2322 
L 691 4666 
z
" transform="scale(0.015625)"/>
       </defs>
       <use xlink:href="#DejaVuSans-35"/>
       <use xlink:href="#DejaVuSans-30" x="63.623047"/>
       <use xlink:href="#DejaVuSans-30" x="127.246094"/>
       <use xlink:href="#DejaVuSans-30" x="190.869141"/>
       <use xlink:href="#DejaVuSans-30" x="254.492188"/>
      </g>
     </g>
    </g>
    <g id="xtick_7">
     <g id="line2d_7">
      <g>
       <use xlink:href="#mf30430a691" x="388.014377" y="162.432" style="stroke: #000000; stroke-width: 0.8"/>
      </g>
     </g>
     <g id="text_7">
      <!-- 60000 -->
      <g transform="translate(372.108127 177.030437)scale(0.1 -0.1)">
       <defs>
        <path id="DejaVuSans-36" d="M 2113 2584 
Q 1688 2584 1439 2293 
Q 1191 2003 1191 1497 
Q 1191 994 1439 701 
Q 1688 409 2113 409 
Q 2538 409 2786 701 
Q 3034 994 3034 1497 
Q 3034 2003 2786 2293 
Q 2538 2584 2113 2584 
z
M 3366 4563 
L 3366 3988 
Q 3128 4100 2886 4159 
Q 2644 4219 2406 4219 
Q 1781 4219 1451 3797 
Q 1122 3375 1075 2522 
Q 1259 2794 1537 2939 
Q 1816 3084 2150 3084 
Q 2853 3084 3261 2657 
Q 3669 2231 3669 1497 
Q 3669 778 3244 343 
Q 2819 -91 2113 -91 
Q 1303 -91 875 529 
Q 447 1150 447 2328 
Q 447 3434 972 4092 
Q 1497 4750 2381 4750 
Q 2619 4750 2861 4703 
Q 3103 4656 3366 4563 
z
" transform="scale(0.015625)"/>
       </defs>
       <use xlink:href="#DejaVuSans-36"/>
       <use xlink:href="#DejaVuSans-30" x="63.623047"/>
       <use xlink:href="#DejaVuSans-30" x="127.246094"/>
       <use xlink:href="#DejaVuSans-30" x="190.869141"/>
       <use xlink:href="#DejaVuSans-30" x="254.492188"/>
      </g>
     </g>
    </g>
   </g>
   <g id="matplotlib.axis_2">
    <g id="ytick_1">
     <g id="line2d_8">
      <defs>
       <path id="mfaeb173639" d="M 0 0 
L -3.5 0 
" style="stroke: #000000; stroke-width: 0.8"/>
      </defs>
      <g>
       <use xlink:href="#mfaeb173639" x="57.6" y="153.665668" style="stroke: #000000; stroke-width: 0.8"/>
      </g>
     </g>
     <g id="text_8">
      <!-- 70 -->
      <g transform="translate(37.875 157.464887)scale(0.1 -0.1)">
       <defs>
        <path id="DejaVuSans-37" d="M 525 4666 
L 3525 4666 
L 3525 4397 
L 1831 0 
L 1172 0 
L 2766 4134 
L 525 4134 
L 525 4666 
z
" transform="scale(0.015625)"/>
       </defs>
       <use xlink:href="#DejaVuSans-37"/>
       <use xlink:href="#DejaVuSans-30" x="63.623047"/>
      </g>
     </g>
    </g>
    <g id="ytick_2">
     <g id="line2d_9">
      <g>
       <use xlink:href="#mfaeb173639" x="57.6" y="124.82905" style="stroke: #000000; stroke-width: 0.8"/>
      </g>
     </g>
     <g id="text_9">
      <!-- 80 -->
      <g transform="translate(37.875 128.628269)scale(0.1 -0.1)">
       <defs>
        <path id="DejaVuSans-38" d="M 2034 2216 
Q 1584 2216 1326 1975 
Q 1069 1734 1069 1313 
Q 1069 891 1326 650 
Q 1584 409 2034 409 
Q 2484 409 2743 651 
Q 3003 894 3003 1313 
Q 3003 1734 2745 1975 
Q 2488 2216 2034 2216 
z
M 1403 2484 
Q 997 2584 770 2862 
Q 544 3141 544 3541 
Q 544 4100 942 4425 
Q 1341 4750 2034 4750 
Q 2731 4750 3128 4425 
Q 3525 4100 3525 3541 
Q 3525 3141 3298 2862 
Q 3072 2584 2669 2484 
Q 3125 2378 3379 2068 
Q 3634 1759 3634 1313 
Q 3634 634 3220 271 
Q 2806 -91 2034 -91 
Q 1263 -91 848 271 
Q 434 634 434 1313 
Q 434 1759 690 2068 
Q 947 2378 1403 2484 
z
M 1172 3481 
Q 1172 3119 1398 2916 
Q 1625 2713 2034 2713 
Q 2441 2713 2670 2916 
Q 2900 3119 2900 3481 
Q 2900 3844 2670 4047 
Q 2441 4250 2034 4250 
Q 1625 4250 1398 4047 
Q 1172 3844 1172 3481 
z
" transform="scale(0.015625)"/>
       </defs>
       <use xlink:href="#DejaVuSans-38"/>
       <use xlink:href="#DejaVuSans-30" x="63.623047"/>
      </g>
     </g>
    </g>
    <g id="ytick_3">
     <g id="line2d_10">
      <g>
       <use xlink:href="#mfaeb173639" x="57.6" y="95.992432" style="stroke: #000000; stroke-width: 0.8"/>
      </g>
     </g>
     <g id="text_10">
      <!-- 90 -->
      <g transform="translate(37.875 99.791651)scale(0.1 -0.1)">
       <defs>
        <path id="DejaVuSans-39" d="M 703 97 
L 703 672 
Q 941 559 1184 500 
Q 1428 441 1663 441 
Q 2288 441 2617 861 
Q 2947 1281 2994 2138 
Q 2813 1869 2534 1725 
Q 2256 1581 1919 1581 
Q 1219 1581 811 2004 
Q 403 2428 403 3163 
Q 403 3881 828 4315 
Q 1253 4750 1959 4750 
Q 2769 4750 3195 4129 
Q 3622 3509 3622 2328 
Q 3622 1225 3098 567 
Q 2575 -91 1691 -91 
Q 1453 -91 1209 -44 
Q 966 3 703 97 
z
M 1959 2075 
Q 2384 2075 2632 2365 
Q 2881 2656 2881 3163 
Q 2881 3666 2632 3958 
Q 2384 4250 1959 4250 
Q 1534 4250 1286 3958 
Q 1038 3666 1038 3163 
Q 1038 2656 1286 2365 
Q 1534 2075 1959 2075 
z
" transform="scale(0.015625)"/>
       </defs>
       <use xlink:href="#DejaVuSans-39"/>
       <use xlink:href="#DejaVuSans-30" x="63.623047"/>
      </g>
     </g>
    </g>
    <g id="ytick_4">
     <g id="line2d_11">
      <g>
       <use xlink:href="#mfaeb173639" x="57.6" y="67.155814" style="stroke: #000000; stroke-width: 0.8"/>
      </g>
     </g>
     <g id="text_11">
      <!-- 100 -->
      <g transform="translate(31.5125 70.955033)scale(0.1 -0.1)">
       <use xlink:href="#DejaVuSans-31"/>
       <use xlink:href="#DejaVuSans-30" x="63.623047"/>
       <use xlink:href="#DejaVuSans-30" x="127.246094"/>
      </g>
     </g>
    </g>
   </g>
   <g id="line2d_12">
    <path d="M 73.832727 70.039476 
L 73.837964 70.039476 
L 73.984584 90.705719 
L 73.989821 90.705719 
L 74.125968 107.046469 
L 74.157387 107.046469 
L 74.16786 105.604638 
L 74.173096 108.4883 
L 74.251643 108.4883 
L 74.382554 121.464778 
L 74.518702 121.464778 
L 74.63914 127.232102 
L 75.372243 127.232102 
L 75.492681 132.999425 
L 77.383039 132.999425 
L 77.409221 135.883087 
L 77.493004 134.441256 
L 77.707699 134.441256 
L 77.822901 132.999425 
L 81.792128 132.999425 
L 81.90733 132.038205 
L 86.127907 132.038205 
L 86.243109 130.596374 
L 89.421633 130.596374 
L 89.536835 133.480036 
L 90.076189 133.480036 
L 90.191391 132.038205 
L 108.435176 132.038205 
L 108.550378 134.921866 
L 129.899377 134.921866 
L 130.014579 137.805528 
L 133.90526 137.805528 
L 134.020462 140.68919 
L 184.861136 140.68919 
L 184.976338 143.572852 
L 235.48188 143.572852 
L 235.597082 146.456514 
L 264.125251 146.456514 
L 264.240453 149.340175 
L 277.200662 149.340175 
L 277.315864 152.223837 
L 285.605161 152.223837 
L 285.720363 150.782006 
L 398.487273 150.782006 
L 398.487273 150.782006 
" clip-path="url(#p8ab5f8641f)" style="fill: none; stroke: #1f77b4; stroke-width: 1.5; stroke-linecap: square"/>
   </g>
   <g id="line2d_13">
    <path d="M 73.832727 67.155814 
L 73.853673 65.713983 
L 73.85891 68.597645 
L 73.937456 67.636425 
L 398.487273 67.636425 
L 398.487273 67.636425 
" clip-path="url(#p8ab5f8641f)" style="fill: none; stroke: #ff7f0e; stroke-width: 1.5; stroke-linecap: square"/>
   </g>
   <g id="line2d_14">
    <path d="M 73.832727 65.713983 
L 73.853673 62.397772 
L 73.869382 71.048758 
L 73.921747 70.087537 
L 73.968875 75.278128 
L 73.947929 67.203875 
L 74.036949 73.836298 
L 74.073604 73.836298 
L 74.157387 79.603621 
L 74.188806 78.16179 
L 74.251643 78.16179 
L 74.298771 83.929114 
L 74.361609 79.603621 
L 74.471574 79.603621 
L 74.518702 76.719959 
L 74.56583 82.487283 
L 74.576303 82.487283 
L 74.581539 82.487283 
L 74.696741 85.370945 
L 74.743869 85.370945 
L 74.859071 82.487283 
L 74.979509 82.487283 
L 75.094711 79.603621 
L 75.827814 79.603621 
L 75.943016 76.719959 
L 77.383039 76.719959 
L 77.409221 79.603621 
L 77.493004 78.16179 
L 77.707699 78.16179 
L 77.822901 76.719959 
L 78.336073 76.719959 
L 78.451274 79.603621 
L 86.127907 79.603621 
L 86.243109 78.16179 
L 90.076189 78.16179 
L 90.191391 76.719959 
L 90.940203 76.719959 
L 91.055405 79.603621 
L 98.810585 79.603621 
L 98.925787 76.719959 
L 114.053885 76.719959 
L 114.169087 79.603621 
L 129.569481 79.603621 
L 129.684683 76.719959 
L 129.899377 76.719959 
L 130.014579 79.603621 
L 135.842746 79.603621 
L 135.957947 82.487283 
L 140.566022 82.487283 
L 140.681224 79.603621 
L 144.461939 79.603621 
L 144.577141 82.487283 
L 149.295181 82.487283 
L 149.410383 85.370945 
L 171.052623 85.370945 
L 171.167824 82.487283 
L 248.929079 82.487283 
L 249.044281 79.603621 
L 264.125251 79.603621 
L 264.240453 82.487283 
L 285.605161 82.487283 
L 285.720363 81.045452 
L 398.487273 81.045452 
L 398.487273 81.045452 
" clip-path="url(#p8ab5f8641f)" style="fill: none; stroke: #2ca02c; stroke-width: 1.5; stroke-linecap: square"/>
   </g>
   <g id="line2d_15">
    <path d="M 73.832727 70.039476 
L 73.8432 70.039476 
L 73.85891 69.462744 
L 73.869382 75.230067 
L 73.890328 75.230067 
L 74.026476 91.378573 
L 74.031712 91.378573 
L 74.105023 88.494912 
L 74.141678 91.378573 
L 74.16786 91.378573 
L 74.283062 90.657658 
L 74.298771 90.657658 
L 74.413973 94.742846 
L 74.471574 94.742846 
L 74.597249 103.393831 
L 74.743869 103.393831 
L 74.859071 106.277493 
L 74.979509 106.277493 
L 74.984746 109.161154 
L 75.089475 108.199934 
L 75.136603 108.199934 
L 75.257041 106.277493 
L 75.372243 106.277493 
L 75.487445 109.161154 
L 75.827814 109.161154 
L 75.943016 112.044816 
L 77.383039 112.044816 
L 77.498241 114.928478 
L 78.336073 114.928478 
L 78.451274 114.207563 
L 78.948737 114.207563 
L 79.063939 113.246342 
L 80.765785 113.246342 
L 80.880986 112.285121 
L 84.855451 112.285121 
L 84.970652 115.168783 
L 89.421633 115.168783 
L 89.536835 118.052445 
L 93.924979 118.052445 
L 94.04018 120.936107 
L 98.810585 120.936107 
L 98.925787 123.819769 
L 126.15008 123.819769 
L 126.265282 122.858548 
L 129.899377 122.858548 
L 130.014579 125.74221 
L 135.842746 125.74221 
L 135.957947 128.625872 
L 140.566022 128.625872 
L 140.681224 131.509533 
L 144.461939 131.509533 
L 144.577141 134.393195 
L 149.295181 134.393195 
L 149.410383 137.276857 
L 154.610176 137.276857 
L 154.725377 136.315636 
L 171.052623 136.315636 
L 171.167824 139.199298 
L 171.942819 139.199298 
L 172.058021 138.238078 
L 184.861136 138.238078 
L 184.976338 137.276857 
L 398.487273 137.276857 
L 398.487273 137.276857 
" clip-path="url(#p8ab5f8641f)" style="fill: none; stroke: #d62728; stroke-width: 1.5; stroke-linecap: square"/>
   </g>
   <g id="line2d_16">
    <path d="M 73.832727 70.039476 
L 73.848437 70.039476 
L 73.853673 69.462744 
L 73.869382 78.113729 
L 73.885092 78.113729 
L 73.895565 78.113729 
L 74.016003 83.30432 
L 74.120732 83.30432 
L 74.235934 86.187982 
L 74.518702 86.187982 
L 74.633904 89.071644 
L 77.383039 89.071644 
L 77.498241 91.955306 
L 78.336073 91.955306 
L 78.451274 94.838968 
L 90.940203 94.838968 
L 91.055405 97.722629 
L 114.053885 97.722629 
L 114.169087 100.606291 
L 129.899377 100.606291 
L 130.014579 103.489953 
L 135.842746 103.489953 
L 135.957947 106.373615 
L 144.461939 106.373615 
L 144.577141 109.257277 
L 398.487273 109.257277 
L 398.487273 109.257277 
" clip-path="url(#p8ab5f8641f)" style="fill: none; stroke: #9467bd; stroke-width: 1.5; stroke-linecap: square"/>
   </g>
   <g id="line2d_17">
    <path d="M 73.832727 65.713983 
L 73.837964 65.713983 
L 74.010767 100.317925 
L 74.120732 100.317925 
L 74.235934 103.201587 
L 74.251643 103.201587 
L 74.372081 108.96891 
L 74.518702 108.96891 
L 74.63914 114.736234 
L 77.383039 114.736234 
L 77.498241 117.619896 
L 78.336073 117.619896 
L 78.451274 120.503558 
L 114.053885 120.503558 
L 114.169087 123.387219 
L 129.899377 123.387219 
L 130.014579 126.270881 
L 135.842746 126.270881 
L 135.957947 129.154543 
L 264.125251 129.154543 
L 264.240453 132.038205 
L 398.487273 132.038205 
L 398.487273 132.038205 
" clip-path="url(#p8ab5f8641f)" style="fill: none; stroke: #8c564b; stroke-width: 1.5; stroke-linecap: square"/>
   </g>
   <g id="line2d_18">
    <path d="M 73.832727 70.039476 
L 73.837964 70.039476 
L 73.853673 68.741828 
L 73.900801 75.710678 
L 73.906038 75.710678 
L 73.958402 75.710678 
L 74.000294 78.017607 
L 74.115495 70.327842 
L 74.120732 70.327842 
L 74.235934 73.211504 
L 74.518702 73.211504 
L 74.581539 76.095166 
L 74.628667 74.653335 
L 74.87478 74.653335 
L 74.989982 71.769673 
L 77.383039 71.769673 
L 77.498241 74.653335 
L 78.336073 74.653335 
L 78.451274 77.536997 
L 78.917318 77.536997 
L 79.03252 74.653335 
L 81.792128 74.653335 
L 81.90733 73.692114 
L 90.940203 73.692114 
L 91.055405 72.250284 
L 114.053885 72.250284 
L 114.169087 75.133945 
L 129.899377 75.133945 
L 130.014579 78.017607 
L 133.90526 78.017607 
L 134.020462 76.575776 
L 135.842746 76.575776 
L 135.957947 79.459438 
L 144.461939 79.459438 
L 144.577141 78.017607 
L 149.295181 78.017607 
L 149.410383 76.575776 
L 398.487273 76.575776 
L 398.487273 76.575776 
" clip-path="url(#p8ab5f8641f)" style="fill: none; stroke: #e377c2; stroke-width: 1.5; stroke-linecap: square"/>
   </g>
   <g id="line2d_19">
    <path d="M 73.832727 67.155814 
L 73.837964 67.155814 
L 73.963638 87.773996 
L 73.979348 86.476348 
L 74.031712 83.832992 
L 74.052658 89.600315 
L 74.063131 89.600315 
L 74.073604 89.600315 
L 74.16786 95.367639 
L 74.188806 94.646723 
L 74.324953 94.646723 
L 74.450628 92.483977 
L 74.581539 92.483977 
L 74.696741 95.367639 
L 74.87478 95.367639 
L 74.989982 98.251301 
L 75.372243 98.251301 
L 75.487445 96.80947 
L 78.917318 96.80947 
L 79.03252 99.693132 
L 81.792128 99.693132 
L 81.90733 102.576793 
L 84.855451 102.576793 
L 84.970652 101.134962 
L 89.421633 101.134962 
L 89.536835 99.693132 
L 90.940203 99.693132 
L 91.055405 102.576793 
L 93.924979 102.576793 
L 94.04018 101.134962 
L 133.90526 101.134962 
L 134.020462 104.018624 
L 144.461939 104.018624 
L 144.577141 106.902286 
L 149.295181 106.902286 
L 149.410383 109.785948 
L 398.487273 109.785948 
L 398.487273 109.785948 
" clip-path="url(#p8ab5f8641f)" style="fill: none; stroke: #7f7f7f; stroke-width: 1.5; stroke-linecap: square"/>
   </g>
   <g id="line2d_20">
    <path d="M 73.832727 70.039476 
L 73.958402 81.910551 
L 73.869382 69.895293 
L 73.963638 81.333818 
L 73.968875 80.757086 
L 74.000294 87.00502 
L 74.010767 86.043799 
L 74.120732 100.942718 
L 74.146914 99.981498 
L 74.157387 99.981498 
L 74.16786 102.86516 
L 74.267352 100.702413 
L 74.298771 99.260582 
L 74.356372 103.34577 
L 74.366845 103.34577 
L 74.372081 103.34577 
L 74.49252 109.113093 
L 74.518702 109.113093 
L 74.581539 106.710042 
L 74.586776 109.593704 
L 74.623431 109.593704 
L 74.743869 109.593704 
L 74.859071 112.477366 
L 74.979509 112.477366 
L 74.984746 115.361027 
L 75.089475 114.399807 
L 75.136603 114.399807 
L 75.257041 112.477366 
L 75.372243 112.477366 
L 75.476972 115.361027 
L 75.482208 113.919196 
L 75.827814 113.919196 
L 75.943016 116.802858 
L 77.383039 116.802858 
L 77.409221 115.841638 
L 77.414458 118.725299 
L 77.482532 118.725299 
L 77.707699 118.725299 
L 77.822901 121.608961 
L 78.336073 121.608961 
L 78.451274 120.888046 
L 78.948737 120.888046 
L 79.063939 119.926825 
L 80.765785 119.926825 
L 80.880986 118.965605 
L 81.792128 118.965605 
L 81.90733 121.849266 
L 84.855451 121.849266 
L 84.970652 124.732928 
L 86.127907 124.732928 
L 86.243109 127.61659 
L 89.421633 127.61659 
L 89.536835 130.500252 
L 90.076189 130.500252 
L 90.191391 133.383914 
L 90.940203 133.383914 
L 91.055405 136.267575 
L 93.924979 136.267575 
L 94.04018 139.151237 
L 98.810585 139.151237 
L 98.925787 142.034899 
L 108.435176 142.034899 
L 108.550378 140.593068 
L 114.053885 140.593068 
L 114.169087 139.631847 
L 126.15008 139.631847 
L 126.265282 138.670627 
L 129.569481 138.670627 
L 129.684683 141.554289 
L 129.899377 141.554289 
L 130.014579 140.593068 
L 133.90526 140.593068 
L 134.020462 143.47673 
L 135.842746 143.47673 
L 135.957947 146.360392 
L 140.566022 146.360392 
L 140.681224 149.244053 
L 144.461939 149.244053 
L 144.577141 152.127715 
L 149.295181 152.127715 
L 149.410383 155.011377 
L 154.610176 155.011377 
L 154.725377 154.050156 
L 171.052623 154.050156 
L 171.167824 156.933818 
L 171.942819 156.933818 
L 172.058021 155.972598 
L 184.861136 155.972598 
L 184.976338 155.011377 
L 235.48188 155.011377 
L 235.597082 153.569546 
L 248.929079 153.569546 
L 249.044281 156.453208 
L 264.125251 156.453208 
L 264.240453 155.011377 
L 277.200662 155.011377 
L 277.315864 153.569546 
L 285.605161 153.569546 
L 285.720363 156.453208 
L 398.487273 156.453208 
L 398.487273 156.453208 
" clip-path="url(#p8ab5f8641f)" style="fill: none; stroke: #bcbd22; stroke-width: 1.5; stroke-linecap: square"/>
   </g>
   <g id="line2d_21">
    <path d="M 73.832727 67.155814 
L 74.000294 100.990779 
L 74.00553 100.990779 
L 74.157387 91.378573 
L 74.16786 94.262235 
L 74.267352 93.54132 
L 74.298771 93.54132 
L 74.372081 97.626507 
L 74.413973 96.184676 
L 74.471574 96.184676 
L 74.586776 99.068338 
L 74.743869 99.068338 
L 74.859071 101.952 
L 74.979509 101.952 
L 74.984746 104.835662 
L 75.089475 103.874441 
L 75.136603 103.874441 
L 75.257041 101.952 
L 75.372243 101.952 
L 75.492681 99.068338 
L 75.827814 99.068338 
L 75.943016 101.952 
L 77.409221 101.952 
L 77.524423 104.835662 
L 77.707699 104.835662 
L 77.822901 107.719324 
L 78.948737 107.719324 
L 79.063939 106.758103 
L 80.765785 106.758103 
L 80.880986 105.796882 
L 81.792128 105.796882 
L 81.90733 104.835662 
L 84.855451 104.835662 
L 84.970652 103.393831 
L 86.127907 103.393831 
L 86.243109 106.277493 
L 89.421633 106.277493 
L 89.536835 104.835662 
L 90.076189 104.835662 
L 90.191391 107.719324 
L 93.924979 107.719324 
L 94.04018 106.277493 
L 98.810585 106.277493 
L 98.925787 109.161154 
L 108.435176 109.161154 
L 108.550378 107.719324 
L 126.15008 107.719324 
L 126.265282 106.758103 
L 129.569481 106.758103 
L 129.684683 109.641765 
L 133.90526 109.641765 
L 134.020462 108.199934 
L 135.842746 108.199934 
L 135.957947 111.083596 
L 140.566022 111.083596 
L 140.681224 113.967257 
L 154.610176 113.967257 
L 154.725377 113.006037 
L 171.052623 113.006037 
L 171.167824 115.889699 
L 171.942819 115.889699 
L 172.058021 114.928478 
L 184.861136 114.928478 
L 184.976338 113.967257 
L 235.48188 113.967257 
L 235.597082 112.525427 
L 248.929079 112.525427 
L 249.044281 115.409088 
L 277.200662 115.409088 
L 277.315864 113.967257 
L 285.605161 113.967257 
L 285.720363 116.850919 
L 398.487273 116.850919 
L 398.487273 116.850919 
" clip-path="url(#p8ab5f8641f)" style="fill: none; stroke: #17becf; stroke-width: 1.5; stroke-linecap: square"/>
   </g>
   <g id="line2d_22">
    <path d="M 73.832727 70.039476 
L 73.837964 70.039476 
L 74.021239 59.706355 
L 74.120732 59.706355 
L 74.235934 58.745134 
L 74.251643 58.745134 
L 74.372081 55.861472 
L 74.518702 55.861472 
L 74.63914 53.458421 
L 77.383039 53.458421 
L 77.498241 52.4972 
L 78.336073 52.4972 
L 78.451274 51.776285 
L 114.053885 51.776285 
L 114.169087 50.815064 
L 129.899377 50.815064 
L 130.014579 49.853844 
L 135.842746 49.853844 
L 135.957947 48.412013 
L 264.125251 48.412013 
L 264.240453 46.970182 
L 398.487273 46.970182 
L 398.487273 46.970182 
" clip-path="url(#p8ab5f8641f)" style="fill: none; stroke: #1f77b4; stroke-width: 1.5; stroke-linecap: square"/>
   </g>
   <g id="line2d_23">
    <path d="M 73.832727 67.155814 
L 73.995057 97.722629 
L 74.00553 96.761409 
L 74.010767 99.645071 
L 74.09455 98.20324 
L 74.214988 105.893004 
L 74.304008 105.893004 
L 74.429682 114.54399 
L 74.518702 114.54399 
L 74.63914 112.140938 
L 74.984746 112.140938 
L 75.099948 115.0246 
L 75.136603 115.0246 
L 75.257041 120.791924 
L 75.476972 120.791924 
L 75.592174 123.675586 
L 77.383039 123.675586 
L 77.498241 122.714365 
L 77.707699 122.714365 
L 77.822901 125.598027 
L 78.336073 125.598027 
L 78.451274 124.877111 
L 78.948737 124.877111 
L 79.063939 127.760773 
L 80.765785 127.760773 
L 80.880986 130.644435 
L 86.127907 130.644435 
L 86.243109 133.528097 
L 90.940203 133.528097 
L 91.055405 132.086266 
L 98.810585 132.086266 
L 98.925787 134.969928 
L 108.435176 134.969928 
L 108.550378 137.853589 
L 114.053885 137.853589 
L 114.169087 136.892369 
L 126.15008 136.892369 
L 126.265282 139.776031 
L 129.569481 139.776031 
L 129.684683 142.659692 
L 129.899377 142.659692 
L 130.014579 141.698472 
L 135.842746 141.698472 
L 135.957947 140.256641 
L 144.461939 140.256641 
L 144.577141 138.81481 
L 149.295181 138.81481 
L 149.410383 137.372979 
L 154.610176 137.372979 
L 154.725377 140.256641 
L 171.942819 140.256641 
L 172.058021 143.140303 
L 184.861136 143.140303 
L 184.976338 146.023964 
L 235.48188 146.023964 
L 235.597082 148.907626 
L 248.929079 148.907626 
L 249.044281 151.791288 
L 277.200662 151.791288 
L 277.315864 154.67495 
L 398.487273 154.67495 
L 398.487273 154.67495 
" clip-path="url(#p8ab5f8641f)" style="fill: none; stroke: #ff7f0e; stroke-width: 1.5; stroke-linecap: square"/>
   </g>
   <g id="patch_3">
    <path d="M 57.6 162.432 
L 57.6 41.472 
" style="fill: none; stroke: #000000; stroke-width: 0.8; stroke-linejoin: miter; stroke-linecap: square"/>
   </g>
   <g id="patch_4">
    <path d="M 414.72 162.432 
L 414.72 41.472 
" style="fill: none; stroke: #000000; stroke-width: 0.8; stroke-linejoin: miter; stroke-linecap: square"/>
   </g>
   <g id="patch_5">
    <path d="M 57.6 162.432 
L 414.72 162.432 
" style="fill: none; stroke: #000000; stroke-width: 0.8; stroke-linejoin: miter; stroke-linecap: square"/>
   </g>
   <g id="patch_6">
    <path d="M 57.6 41.472 
L 414.72 41.472 
" style="fill: none; stroke: #000000; stroke-width: 0.8; stroke-linejoin: miter; stroke-linecap: square"/>
   </g>
   <g id="text_12">
    <!-- WSP -->
    <g transform="translate(361.832136 150.782006)scale(0.08 -0.08)">
     <defs>
      <path id="DejaVuSans-57" d="M 213 4666 
L 850 4666 
L 1831 722 
L 2809 4666 
L 3519 4666 
L 4500 722 
L 5478 4666 
L 6119 4666 
L 4947 0 
L 4153 0 
L 3169 4050 
L 2175 0 
L 1381 0 
L 213 4666 
z
" transform="scale(0.015625)"/>
      <path id="DejaVuSans-53" d="M 3425 4513 
L 3425 3897 
Q 3066 4069 2747 4153 
Q 2428 4238 2131 4238 
Q 1616 4238 1336 4038 
Q 1056 3838 1056 3469 
Q 1056 3159 1242 3001 
Q 1428 2844 1947 2747 
L 2328 2669 
Q 3034 2534 3370 2195 
Q 3706 1856 3706 1288 
Q 3706 609 3251 259 
Q 2797 -91 1919 -91 
Q 1588 -91 1214 -16 
Q 841 59 441 206 
L 441 856 
Q 825 641 1194 531 
Q 1563 422 1919 422 
Q 2459 422 2753 634 
Q 3047 847 3047 1241 
Q 3047 1584 2836 1778 
Q 2625 1972 2144 2069 
L 1759 2144 
Q 1053 2284 737 2584 
Q 422 2884 422 3419 
Q 422 4038 858 4394 
Q 1294 4750 2059 4750 
Q 2388 4750 2728 4690 
Q 3069 4631 3425 4513 
z
" transform="scale(0.015625)"/>
      <path id="DejaVuSans-50" d="M 1259 4147 
L 1259 2394 
L 2053 2394 
Q 2494 2394 2734 2622 
Q 2975 2850 2975 3272 
Q 2975 3691 2734 3919 
Q 2494 4147 2053 4147 
L 1259 4147 
z
M 628 4666 
L 2053 4666 
Q 2838 4666 3239 4311 
Q 3641 3956 3641 3272 
Q 3641 2581 3239 2228 
Q 2838 1875 2053 1875 
L 1259 1875 
L 1259 0 
L 628 0 
L 628 4666 
z
" transform="scale(0.015625)"/>
     </defs>
     <use xlink:href="#DejaVuSans-57"/>
     <use xlink:href="#DejaVuSans-53" x="98.876953"/>
     <use xlink:href="#DejaVuSans-50" x="162.353516"/>
    </g>
   </g>
   <g id="text_13">
    <!-- Iambic -->
    <g transform="translate(361.832136 67.636425)scale(0.08 -0.08)">
     <defs>
      <path id="DejaVuSans-49" d="M 628 4666 
L 1259 4666 
L 1259 0 
L 628 0 
L 628 4666 
z
" transform="scale(0.015625)"/>
      <path id="DejaVuSans-61" d="M 2194 1759 
Q 1497 1759 1228 1600 
Q 959 1441 959 1056 
Q 959 750 1161 570 
Q 1363 391 1709 391 
Q 2188 391 2477 730 
Q 2766 1069 2766 1631 
L 2766 1759 
L 2194 1759 
z
M 3341 1997 
L 3341 0 
L 2766 0 
L 2766 531 
Q 2569 213 2275 61 
Q 1981 -91 1556 -91 
Q 1019 -91 701 211 
Q 384 513 384 1019 
Q 384 1609 779 1909 
Q 1175 2209 1959 2209 
L 2766 2209 
L 2766 2266 
Q 2766 2663 2505 2880 
Q 2244 3097 1772 3097 
Q 1472 3097 1187 3025 
Q 903 2953 641 2809 
L 641 3341 
Q 956 3463 1253 3523 
Q 1550 3584 1831 3584 
Q 2591 3584 2966 3190 
Q 3341 2797 3341 1997 
z
" transform="scale(0.015625)"/>
      <path id="DejaVuSans-6d" d="M 3328 2828 
Q 3544 3216 3844 3400 
Q 4144 3584 4550 3584 
Q 5097 3584 5394 3201 
Q 5691 2819 5691 2113 
L 5691 0 
L 5113 0 
L 5113 2094 
Q 5113 2597 4934 2840 
Q 4756 3084 4391 3084 
Q 3944 3084 3684 2787 
Q 3425 2491 3425 1978 
L 3425 0 
L 2847 0 
L 2847 2094 
Q 2847 2600 2669 2842 
Q 2491 3084 2119 3084 
Q 1678 3084 1418 2786 
Q 1159 2488 1159 1978 
L 1159 0 
L 581 0 
L 581 3500 
L 1159 3500 
L 1159 2956 
Q 1356 3278 1631 3431 
Q 1906 3584 2284 3584 
Q 2666 3584 2933 3390 
Q 3200 3197 3328 2828 
z
" transform="scale(0.015625)"/>
      <path id="DejaVuSans-62" d="M 3116 1747 
Q 3116 2381 2855 2742 
Q 2594 3103 2138 3103 
Q 1681 3103 1420 2742 
Q 1159 2381 1159 1747 
Q 1159 1113 1420 752 
Q 1681 391 2138 391 
Q 2594 391 2855 752 
Q 3116 1113 3116 1747 
z
M 1159 2969 
Q 1341 3281 1617 3432 
Q 1894 3584 2278 3584 
Q 2916 3584 3314 3078 
Q 3713 2572 3713 1747 
Q 3713 922 3314 415 
Q 2916 -91 2278 -91 
Q 1894 -91 1617 61 
Q 1341 213 1159 525 
L 1159 0 
L 581 0 
L 581 4863 
L 1159 4863 
L 1159 2969 
z
" transform="scale(0.015625)"/>
      <path id="DejaVuSans-69" d="M 603 3500 
L 1178 3500 
L 1178 0 
L 603 0 
L 603 3500 
z
M 603 4863 
L 1178 4863 
L 1178 4134 
L 603 4134 
L 603 4863 
z
" transform="scale(0.015625)"/>
      <path id="DejaVuSans-63" d="M 3122 3366 
L 3122 2828 
Q 2878 2963 2633 3030 
Q 2388 3097 2138 3097 
Q 1578 3097 1268 2742 
Q 959 2388 959 1747 
Q 959 1106 1268 751 
Q 1578 397 2138 397 
Q 2388 397 2633 464 
Q 2878 531 3122 666 
L 3122 134 
Q 2881 22 2623 -34 
Q 2366 -91 2075 -91 
Q 1284 -91 818 406 
Q 353 903 353 1747 
Q 353 2603 823 3093 
Q 1294 3584 2113 3584 
Q 2378 3584 2631 3529 
Q 2884 3475 3122 3366 
z
" transform="scale(0.015625)"/>
     </defs>
     <use xlink:href="#DejaVuSans-49"/>
     <use xlink:href="#DejaVuSans-61" x="29.492188"/>
     <use xlink:href="#DejaVuSans-6d" x="90.771484"/>
     <use xlink:href="#DejaVuSans-62" x="188.183594"/>
     <use xlink:href="#DejaVuSans-69" x="251.660156"/>
     <use xlink:href="#DejaVuSans-63" x="279.443359"/>
    </g>
   </g>
   <g id="text_14">
    <!-- Parse -->
    <g transform="translate(361.832136 81.045452)scale(0.08 -0.08)">
     <defs>
      <path id="DejaVuSans-72" d="M 2631 2963 
Q 2534 3019 2420 3045 
Q 2306 3072 2169 3072 
Q 1681 3072 1420 2755 
Q 1159 2438 1159 1844 
L 1159 0 
L 581 0 
L 581 3500 
L 1159 3500 
L 1159 2956 
Q 1341 3275 1631 3429 
Q 1922 3584 2338 3584 
Q 2397 3584 2469 3576 
Q 2541 3569 2628 3553 
L 2631 2963 
z
" transform="scale(0.015625)"/>
      <path id="DejaVuSans-73" d="M 2834 3397 
L 2834 2853 
Q 2591 2978 2328 3040 
Q 2066 3103 1784 3103 
Q 1356 3103 1142 2972 
Q 928 2841 928 2578 
Q 928 2378 1081 2264 
Q 1234 2150 1697 2047 
L 1894 2003 
Q 2506 1872 2764 1633 
Q 3022 1394 3022 966 
Q 3022 478 2636 193 
Q 2250 -91 1575 -91 
Q 1294 -91 989 -36 
Q 684 19 347 128 
L 347 722 
Q 666 556 975 473 
Q 1284 391 1588 391 
Q 1994 391 2212 530 
Q 2431 669 2431 922 
Q 2431 1156 2273 1281 
Q 2116 1406 1581 1522 
L 1381 1569 
Q 847 1681 609 1914 
Q 372 2147 372 2553 
Q 372 3047 722 3315 
Q 1072 3584 1716 3584 
Q 2034 3584 2315 3537 
Q 2597 3491 2834 3397 
z
" transform="scale(0.015625)"/>
      <path id="DejaVuSans-65" d="M 3597 1894 
L 3597 1613 
L 953 1613 
Q 991 1019 1311 708 
Q 1631 397 2203 397 
Q 2534 397 2845 478 
Q 3156 559 3463 722 
L 3463 178 
Q 3153 47 2828 -22 
Q 2503 -91 2169 -91 
Q 1331 -91 842 396 
Q 353 884 353 1716 
Q 353 2575 817 3079 
Q 1281 3584 2069 3584 
Q 2775 3584 3186 3129 
Q 3597 2675 3597 1894 
z
M 3022 2063 
Q 3016 2534 2758 2815 
Q 2500 3097 2075 3097 
Q 1594 3097 1305 2825 
Q 1016 2553 972 2059 
L 3022 2063 
z
" transform="scale(0.015625)"/>
     </defs>
     <use xlink:href="#DejaVuSans-50"/>
     <use xlink:href="#DejaVuSans-61" x="55.802734"/>
     <use xlink:href="#DejaVuSans-72" x="117.082031"/>
     <use xlink:href="#DejaVuSans-73" x="158.195312"/>
     <use xlink:href="#DejaVuSans-65" x="210.294922"/>
    </g>
   </g>
   <g id="text_15">
    <!-- FootBin -->
    <g transform="translate(361.832136 137.276857)scale(0.08 -0.08)">
     <defs>
      <path id="DejaVuSans-46" d="M 628 4666 
L 3309 4666 
L 3309 4134 
L 1259 4134 
L 1259 2759 
L 3109 2759 
L 3109 2228 
L 1259 2228 
L 1259 0 
L 628 0 
L 628 4666 
z
" transform="scale(0.015625)"/>
      <path id="DejaVuSans-6f" d="M 1959 3097 
Q 1497 3097 1228 2736 
Q 959 2375 959 1747 
Q 959 1119 1226 758 
Q 1494 397 1959 397 
Q 2419 397 2687 759 
Q 2956 1122 2956 1747 
Q 2956 2369 2687 2733 
Q 2419 3097 1959 3097 
z
M 1959 3584 
Q 2709 3584 3137 3096 
Q 3566 2609 3566 1747 
Q 3566 888 3137 398 
Q 2709 -91 1959 -91 
Q 1206 -91 779 398 
Q 353 888 353 1747 
Q 353 2609 779 3096 
Q 1206 3584 1959 3584 
z
" transform="scale(0.015625)"/>
      <path id="DejaVuSans-74" d="M 1172 4494 
L 1172 3500 
L 2356 3500 
L 2356 3053 
L 1172 3053 
L 1172 1153 
Q 1172 725 1289 603 
Q 1406 481 1766 481 
L 2356 481 
L 2356 0 
L 1766 0 
Q 1100 0 847 248 
Q 594 497 594 1153 
L 594 3053 
L 172 3053 
L 172 3500 
L 594 3500 
L 594 4494 
L 1172 4494 
z
" transform="scale(0.015625)"/>
      <path id="DejaVuSans-42" d="M 1259 2228 
L 1259 519 
L 2272 519 
Q 2781 519 3026 730 
Q 3272 941 3272 1375 
Q 3272 1813 3026 2020 
Q 2781 2228 2272 2228 
L 1259 2228 
z
M 1259 4147 
L 1259 2741 
L 2194 2741 
Q 2656 2741 2882 2914 
Q 3109 3088 3109 3444 
Q 3109 3797 2882 3972 
Q 2656 4147 2194 4147 
L 1259 4147 
z
M 628 4666 
L 2241 4666 
Q 2963 4666 3353 4366 
Q 3744 4066 3744 3513 
Q 3744 3084 3544 2831 
Q 3344 2578 2956 2516 
Q 3422 2416 3680 2098 
Q 3938 1781 3938 1306 
Q 3938 681 3513 340 
Q 3088 0 2303 0 
L 628 0 
L 628 4666 
z
" transform="scale(0.015625)"/>
      <path id="DejaVuSans-6e" d="M 3513 2113 
L 3513 0 
L 2938 0 
L 2938 2094 
Q 2938 2591 2744 2837 
Q 2550 3084 2163 3084 
Q 1697 3084 1428 2787 
Q 1159 2491 1159 1978 
L 1159 0 
L 581 0 
L 581 3500 
L 1159 3500 
L 1159 2956 
Q 1366 3272 1645 3428 
Q 1925 3584 2291 3584 
Q 2894 3584 3203 3211 
Q 3513 2838 3513 2113 
z
" transform="scale(0.015625)"/>
     </defs>
     <use xlink:href="#DejaVuSans-46"/>
     <use xlink:href="#DejaVuSans-6f" x="53.894531"/>
     <use xlink:href="#DejaVuSans-6f" x="115.076172"/>
     <use xlink:href="#DejaVuSans-74" x="176.257812"/>
     <use xlink:href="#DejaVuSans-42" x="215.466797"/>
     <use xlink:href="#DejaVuSans-69" x="284.070312"/>
     <use xlink:href="#DejaVuSans-6e" x="311.853516"/>
    </g>
   </g>
   <g id="text_16">
    <!-- WFL -->
    <g transform="translate(361.832136 109.257277)scale(0.08 -0.08)">
     <defs>
      <path id="DejaVuSans-4c" d="M 628 4666 
L 1259 4666 
L 1259 531 
L 3531 531 
L 3531 0 
L 628 0 
L 628 4666 
z
" transform="scale(0.015625)"/>
     </defs>
     <use xlink:href="#DejaVuSans-57"/>
     <use xlink:href="#DejaVuSans-46" x="98.876953"/>
     <use xlink:href="#DejaVuSans-4c" x="156.396484"/>
    </g>
   </g>
   <g id="text_17">
    <!-- WFR -->
    <g transform="translate(361.832136 132.038205)scale(0.08 -0.08)">
     <defs>
      <path id="DejaVuSans-52" d="M 2841 2188 
Q 3044 2119 3236 1894 
Q 3428 1669 3622 1275 
L 4263 0 
L 3584 0 
L 2988 1197 
Q 2756 1666 2539 1819 
Q 2322 1972 1947 1972 
L 1259 1972 
L 1259 0 
L 628 0 
L 628 4666 
L 2053 4666 
Q 2853 4666 3247 4331 
Q 3641 3997 3641 3322 
Q 3641 2881 3436 2590 
Q 3231 2300 2841 2188 
z
M 1259 4147 
L 1259 2491 
L 2053 2491 
Q 2509 2491 2742 2702 
Q 2975 2913 2975 3322 
Q 2975 3731 2742 3939 
Q 2509 4147 2053 4147 
L 1259 4147 
z
" transform="scale(0.015625)"/>
     </defs>
     <use xlink:href="#DejaVuSans-57"/>
     <use xlink:href="#DejaVuSans-46" x="98.876953"/>
     <use xlink:href="#DejaVuSans-52" x="156.396484"/>
    </g>
   </g>
   <g id="text_18">
    <!-- Main-L -->
    <g transform="translate(361.832136 76.575776)scale(0.08 -0.08)">
     <defs>
      <path id="DejaVuSans-4d" d="M 628 4666 
L 1569 4666 
L 2759 1491 
L 3956 4666 
L 4897 4666 
L 4897 0 
L 4281 0 
L 4281 4097 
L 3078 897 
L 2444 897 
L 1241 4097 
L 1241 0 
L 628 0 
L 628 4666 
z
" transform="scale(0.015625)"/>
      <path id="DejaVuSans-2d" d="M 313 2009 
L 1997 2009 
L 1997 1497 
L 313 1497 
L 313 2009 
z
" transform="scale(0.015625)"/>
     </defs>
     <use xlink:href="#DejaVuSans-4d"/>
     <use xlink:href="#DejaVuSans-61" x="86.279297"/>
     <use xlink:href="#DejaVuSans-69" x="147.558594"/>
     <use xlink:href="#DejaVuSans-6e" x="175.341797"/>
     <use xlink:href="#DejaVuSans-2d" x="238.720703"/>
     <use xlink:href="#DejaVuSans-4c" x="274.804688"/>
    </g>
   </g>
   <g id="text_19">
    <!-- Main-R -->
    <g transform="translate(361.832136 109.785948)scale(0.08 -0.08)">
     <use xlink:href="#DejaVuSans-4d"/>
     <use xlink:href="#DejaVuSans-61" x="86.279297"/>
     <use xlink:href="#DejaVuSans-69" x="147.558594"/>
     <use xlink:href="#DejaVuSans-6e" x="175.341797"/>
     <use xlink:href="#DejaVuSans-2d" x="238.720703"/>
     <use xlink:href="#DejaVuSans-52" x="274.804688"/>
    </g>
   </g>
   <g id="text_20">
    <!-- AFL -->
    <g transform="translate(361.832136 156.453208)scale(0.08 -0.08)">
     <defs>
      <path id="DejaVuSans-41" d="M 2188 4044 
L 1331 1722 
L 3047 1722 
L 2188 4044 
z
M 1831 4666 
L 2547 4666 
L 4325 0 
L 3669 0 
L 3244 1197 
L 1141 1197 
L 716 0 
L 50 0 
L 1831 4666 
z
" transform="scale(0.015625)"/>
     </defs>
     <use xlink:href="#DejaVuSans-41"/>
     <use xlink:href="#DejaVuSans-46" x="68.408203"/>
     <use xlink:href="#DejaVuSans-4c" x="125.927734"/>
    </g>
   </g>
   <g id="text_21">
    <!-- AFR -->
    <g transform="translate(361.832136 116.850919)scale(0.08 -0.08)">
     <use xlink:href="#DejaVuSans-41"/>
     <use xlink:href="#DejaVuSans-46" x="68.408203"/>
     <use xlink:href="#DejaVuSans-52" x="125.927734"/>
    </g>
   </g>
   <g id="text_22">
    <!-- Nonfinal -->
    <g transform="translate(361.832136 46.970182)scale(0.08 -0.08)">
     <defs>
      <path id="DejaVuSans-4e" d="M 628 4666 
L 1478 4666 
L 3547 763 
L 3547 4666 
L 4159 4666 
L 4159 0 
L 3309 0 
L 1241 3903 
L 1241 0 
L 628 0 
L 628 4666 
z
" transform="scale(0.015625)"/>
      <path id="DejaVuSans-66" d="M 2375 4863 
L 2375 4384 
L 1825 4384 
Q 1516 4384 1395 4259 
Q 1275 4134 1275 3809 
L 1275 3500 
L 2222 3500 
L 2222 3053 
L 1275 3053 
L 1275 0 
L 697 0 
L 697 3053 
L 147 3053 
L 147 3500 
L 697 3500 
L 697 3744 
Q 697 4328 969 4595 
Q 1241 4863 1831 4863 
L 2375 4863 
z
" transform="scale(0.015625)"/>
      <path id="DejaVuSans-6c" d="M 603 4863 
L 1178 4863 
L 1178 0 
L 603 0 
L 603 4863 
z
" transform="scale(0.015625)"/>
     </defs>
     <use xlink:href="#DejaVuSans-4e"/>
     <use xlink:href="#DejaVuSans-6f" x="74.804688"/>
     <use xlink:href="#DejaVuSans-6e" x="135.986328"/>
     <use xlink:href="#DejaVuSans-66" x="199.365234"/>
     <use xlink:href="#DejaVuSans-69" x="234.570312"/>
     <use xlink:href="#DejaVuSans-6e" x="262.353516"/>
     <use xlink:href="#DejaVuSans-61" x="325.732422"/>
     <use xlink:href="#DejaVuSans-6c" x="387.011719"/>
    </g>
   </g>
   <g id="text_23">
    <!-- Trochaic -->
    <g transform="translate(361.832136 154.67495)scale(0.08 -0.08)">
     <defs>
      <path id="DejaVuSans-54" d="M -19 4666 
L 3928 4666 
L 3928 4134 
L 2272 4134 
L 2272 0 
L 1638 0 
L 1638 4134 
L -19 4134 
L -19 4666 
z
" transform="scale(0.015625)"/>
      <path id="DejaVuSans-68" d="M 3513 2113 
L 3513 0 
L 2938 0 
L 2938 2094 
Q 2938 2591 2744 2837 
Q 2550 3084 2163 3084 
Q 1697 3084 1428 2787 
Q 1159 2491 1159 1978 
L 1159 0 
L 581 0 
L 581 4863 
L 1159 4863 
L 1159 2956 
Q 1366 3272 1645 3428 
Q 1925 3584 2291 3584 
Q 2894 3584 3203 3211 
Q 3513 2838 3513 2113 
z
" transform="scale(0.015625)"/>
     </defs>
     <use xlink:href="#DejaVuSans-54"/>
     <use xlink:href="#DejaVuSans-72" x="46.333984"/>
     <use xlink:href="#DejaVuSans-6f" x="85.197266"/>
     <use xlink:href="#DejaVuSans-63" x="146.378906"/>
     <use xlink:href="#DejaVuSans-68" x="201.359375"/>
     <use xlink:href="#DejaVuSans-61" x="264.738281"/>
     <use xlink:href="#DejaVuSans-69" x="326.017578"/>
     <use xlink:href="#DejaVuSans-63" x="353.800781"/>
    </g>
   </g>
  </g>
  <g id="axes_2">
   <g id="patch_7">
    <path d="M 57.6 307.584 
L 414.72 307.584 
L 414.72 186.624 
L 57.6 186.624 
z
" style="fill: #ffffff"/>
   </g>
   <g id="matplotlib.axis_3">
    <g id="xtick_8">
     <g id="line2d_24">
      <g>
       <use xlink:href="#mf30430a691" x="70.303874" y="307.584" style="stroke: #000000; stroke-width: 0.8"/>
      </g>
     </g>
     <g id="text_24">
      <!-- 0 -->
      <g transform="translate(67.122624 322.182437)scale(0.1 -0.1)">
       <use xlink:href="#DejaVuSans-30"/>
      </g>
     </g>
    </g>
    <g id="xtick_9">
     <g id="line2d_25">
      <g>
       <use xlink:href="#mf30430a691" x="140.880949" y="307.584" style="stroke: #000000; stroke-width: 0.8"/>
      </g>
     </g>
     <g id="text_25">
      <!-- 20 -->
      <g transform="translate(134.518449 322.182437)scale(0.1 -0.1)">
       <use xlink:href="#DejaVuSans-32"/>
       <use xlink:href="#DejaVuSans-30" x="63.623047"/>
      </g>
     </g>
    </g>
    <g id="xtick_10">
     <g id="line2d_26">
      <g>
       <use xlink:href="#mf30430a691" x="211.458024" y="307.584" style="stroke: #000000; stroke-width: 0.8"/>
      </g>
     </g>
     <g id="text_26">
      <!-- 40 -->
      <g transform="translate(205.095524 322.182437)scale(0.1 -0.1)">
       <use xlink:href="#DejaVuSans-34"/>
       <use xlink:href="#DejaVuSans-30" x="63.623047"/>
      </g>
     </g>
    </g>
    <g id="xtick_11">
     <g id="line2d_27">
      <g>
       <use xlink:href="#mf30430a691" x="282.035099" y="307.584" style="stroke: #000000; stroke-width: 0.8"/>
      </g>
     </g>
     <g id="text_27">
      <!-- 60 -->
      <g transform="translate(275.672599 322.182437)scale(0.1 -0.1)">
       <use xlink:href="#DejaVuSans-36"/>
       <use xlink:href="#DejaVuSans-30" x="63.623047"/>
      </g>
     </g>
    </g>
    <g id="xtick_12">
     <g id="line2d_28">
      <g>
       <use xlink:href="#mf30430a691" x="352.612174" y="307.584" style="stroke: #000000; stroke-width: 0.8"/>
      </g>
     </g>
     <g id="text_28">
      <!-- 80 -->
      <g transform="translate(346.249674 322.182437)scale(0.1 -0.1)">
       <use xlink:href="#DejaVuSans-38"/>
       <use xlink:href="#DejaVuSans-30" x="63.623047"/>
      </g>
     </g>
    </g>
   </g>
   <g id="matplotlib.axis_4">
    <g id="ytick_5">
     <g id="line2d_29">
      <g>
       <use xlink:href="#mfaeb173639" x="57.6" y="302.097195" style="stroke: #000000; stroke-width: 0.8"/>
      </g>
     </g>
     <g id="text_29">
      <!-- 0 -->
      <g transform="translate(44.2375 305.896413)scale(0.1 -0.1)">
       <use xlink:href="#DejaVuSans-30"/>
      </g>
     </g>
    </g>
    <g id="ytick_6">
     <g id="line2d_30">
      <g>
       <use xlink:href="#mfaeb173639" x="57.6" y="279.344528" style="stroke: #000000; stroke-width: 0.8"/>
      </g>
     </g>
     <g id="text_30">
      <!-- 2000 -->
      <g transform="translate(25.15 283.143747)scale(0.1 -0.1)">
       <use xlink:href="#DejaVuSans-32"/>
       <use xlink:href="#DejaVuSans-30" x="63.623047"/>
       <use xlink:href="#DejaVuSans-30" x="127.246094"/>
       <use xlink:href="#DejaVuSans-30" x="190.869141"/>
      </g>
     </g>
    </g>
    <g id="ytick_7">
     <g id="line2d_31">
      <g>
       <use xlink:href="#mfaeb173639" x="57.6" y="256.591862" style="stroke: #000000; stroke-width: 0.8"/>
      </g>
     </g>
     <g id="text_31">
      <!-- 4000 -->
      <g transform="translate(25.15 260.391081)scale(0.1 -0.1)">
       <use xlink:href="#DejaVuSans-34"/>
       <use xlink:href="#DejaVuSans-30" x="63.623047"/>
       <use xlink:href="#DejaVuSans-30" x="127.246094"/>
       <use xlink:href="#DejaVuSans-30" x="190.869141"/>
      </g>
     </g>
    </g>
    <g id="ytick_8">
     <g id="line2d_32">
      <g>
       <use xlink:href="#mfaeb173639" x="57.6" y="233.839196" style="stroke: #000000; stroke-width: 0.8"/>
      </g>
     </g>
     <g id="text_32">
      <!-- 6000 -->
      <g transform="translate(25.15 237.638414)scale(0.1 -0.1)">
       <use xlink:href="#DejaVuSans-36"/>
       <use xlink:href="#DejaVuSans-30" x="63.623047"/>
       <use xlink:href="#DejaVuSans-30" x="127.246094"/>
       <use xlink:href="#DejaVuSans-30" x="190.869141"/>
      </g>
     </g>
    </g>
    <g id="ytick_9">
     <g id="line2d_33">
      <g>
       <use xlink:href="#mfaeb173639" x="57.6" y="211.086529" style="stroke: #000000; stroke-width: 0.8"/>
      </g>
     </g>
     <g id="text_33">
      <!-- 8000 -->
      <g transform="translate(25.15 214.885748)scale(0.1 -0.1)">
       <use xlink:href="#DejaVuSans-38"/>
       <use xlink:href="#DejaVuSans-30" x="63.623047"/>
       <use xlink:href="#DejaVuSans-30" x="127.246094"/>
       <use xlink:href="#DejaVuSans-30" x="190.869141"/>
      </g>
     </g>
    </g>
    <g id="ytick_10">
     <g id="line2d_34">
      <g>
       <use xlink:href="#mfaeb173639" x="57.6" y="188.333863" style="stroke: #000000; stroke-width: 0.8"/>
      </g>
     </g>
     <g id="text_34">
      <!-- 10000 -->
      <g transform="translate(18.7875 192.133082)scale(0.1 -0.1)">
       <use xlink:href="#DejaVuSans-31"/>
       <use xlink:href="#DejaVuSans-30" x="63.623047"/>
       <use xlink:href="#DejaVuSans-30" x="127.246094"/>
       <use xlink:href="#DejaVuSans-30" x="190.869141"/>
       <use xlink:href="#DejaVuSans-30" x="254.492188"/>
      </g>
     </g>
    </g>
   </g>
   <g id="line2d_35">
    <path d="M 73.832727 302.085818 
L 77.361581 302.085818 
L 80.890435 302.085818 
L 84.419289 302.085818 
L 87.948142 302.085818 
L 91.476996 302.085818 
L 95.00585 302.085818 
L 98.534704 302.085818 
L 102.063557 302.085818 
L 105.592411 302.063066 
L 109.121265 302.085818 
L 112.650119 302.040313 
L 116.178972 302.085818 
L 119.707826 302.085818 
L 123.23668 302.085818 
L 126.765534 302.085818 
L 130.294387 302.085818 
L 133.823241 302.085818 
L 137.352095 302.085818 
L 140.880949 302.085818 
L 144.409802 302.085818 
L 147.938656 302.085818 
L 151.46751 302.085818 
L 154.996364 302.085818 
L 158.525217 302.085818 
L 162.054071 302.085818 
L 165.582925 302.085818 
L 169.111779 302.085818 
L 172.640632 302.085818 
L 176.169486 302.074442 
L 179.69834 302.074442 
L 183.227194 302.063066 
L 186.756047 302.040313 
L 190.284901 302.051689 
L 193.813755 302.085818 
L 197.342609 302.085818 
L 200.871462 302.063066 
L 204.400316 302.01756 
L 207.92917 302.074442 
L 211.458024 301.915173 
L 214.986877 302.063066 
L 218.515731 302.028937 
L 222.044585 302.085818 
L 225.573439 302.051689 
L 229.102292 302.040313 
L 232.631146 302.051689 
L 236.16 301.881044 
L 239.688854 301.994808 
L 243.217708 302.006184 
L 246.746561 302.051689 
L 250.275415 301.744528 
L 253.804269 301.812786 
L 257.333123 301.869668 
L 260.861976 302.085818 
L 264.39083 301.767281 
L 267.919684 301.846915 
L 271.448538 301.835539 
L 274.977391 301.869668 
L 278.506245 301.33498 
L 282.035099 298.718424 
L 285.563953 302.040313 
L 289.092806 301.448744 
L 292.62166 300.732035 
L 296.150514 300.834422 
L 299.679368 302.028937 
L 303.208221 298.149607 
L 306.737075 299.867433 
L 310.265929 295.44204 
L 313.794783 299.332746 
L 317.323636 294.941481 
L 320.85249 300.675153 
L 324.381344 300.2201 
L 327.910198 295.612685 
L 331.439051 291.483076 
L 334.967905 281.187494 
L 338.496759 289.890389 
L 342.025613 275.817865 
L 345.554466 294.668449 
L 349.08332 301.380486 
L 352.612174 293.3943 
L 356.141028 297.887951 
L 359.669881 291.835742 
L 363.198735 293.633203 
L 366.727589 291.596839 
L 370.256443 290.550216 
L 373.785296 266.375508 
L 377.31415 300.163218 
L 380.843004 274.031781 
L 384.371858 192.122182 
L 387.900711 272.882771 
L 391.429565 269.083076 
L 394.958419 273.690491 
L 398.487273 283.83818 
" clip-path="url(#p3d8b932723)" style="fill: none; stroke: #1f77b4; stroke-width: 1.5; stroke-linecap: square"/>
   </g>
   <g id="patch_8">
    <path d="M 57.6 307.584 
L 57.6 186.624 
" style="fill: none; stroke: #000000; stroke-width: 0.8; stroke-linejoin: miter; stroke-linecap: square"/>
   </g>
   <g id="patch_9">
    <path d="M 414.72 307.584 
L 414.72 186.624 
" style="fill: none; stroke: #000000; stroke-width: 0.8; stroke-linejoin: miter; stroke-linecap: square"/>
   </g>
   <g id="patch_10">
    <path d="M 57.6 307.584 
L 414.72 307.584 
" style="fill: none; stroke: #000000; stroke-width: 0.8; stroke-linejoin: miter; stroke-linecap: square"/>
   </g>
   <g id="patch_11">
    <path d="M 57.6 186.624 
L 414.72 186.624 
" style="fill: none; stroke: #000000; stroke-width: 0.8; stroke-linejoin: miter; stroke-linecap: square"/>
   </g>
  </g>
 </g>
 <defs>
  <clipPath id="p8ab5f8641f">
   <rect x="57.6" y="41.472" width="357.12" height="120.96"/>
  </clipPath>
  <clipPath id="p3d8b932723">
   <rect x="57.6" y="186.624" width="357.12" height="120.96"/>
  </clipPath>
 </defs>
</svg>
