<?xml version="1.0" encoding="utf-8" standalone="no"?>
<!DOCTYPE svg PUBLIC "-//W3C//DTD SVG 1.1//EN"
  "http://www.w3.org/Graphics/SVG/1.1/DTD/svg11.dtd">
<svg xmlns:xlink="http://www.w3.org/1999/xlink" width="460.8pt" height="345.6pt" viewBox="0 0 460.8 345.6" xmlns="http://www.w3.org/2000/svg" version="1.1">
 <metadata>
  <rdf:RDF xmlns:dc="http://purl.org/dc/elements/1.1/" xmlns:cc="http://creativecommons.org/ns#" xmlns:rdf="http://www.w3.org/1999/02/22-rdf-syntax-ns#">
   <cc:Work>
    <dc:type rdf:resource="http://purl.org/dc/dcmitype/StillImage"/>
    <dc:date>2022-05-13T12:09:42.100360</dc:date>
    <dc:format>image/svg+xml</dc:format>
    <dc:creator>
     <cc:Agent>
      <dc:title>Matplotlib v3.5.1, https://matplotlib.org/</dc:title>
     </cc:Agent>
    </dc:creator>
   </cc:Work>
  </rdf:RDF>
 </metadata>
 <defs>
  <style type="text/css">*{stroke-linejoin: round; stroke-linecap: butt}</style>
 </defs>
 <g id="figure_1">
  <g id="patch_1">
   <path d="M 0 345.6 
L 460.8 345.6 
L 460.8 0 
L 0 0 
z
" style="fill: #ffffff"/>
  </g>
  <g id="axes_1">
   <g id="patch_2">
    <path d="M 57.6 162.432 
L 414.72 162.432 
L 414.72 41.472 
L 57.6 41.472 
z
" style="fill: #ffffff"/>
   </g>
   <g id="matplotlib.axis_1">
    <g id="xtick_1">
     <g id="line2d_1">
      <defs>
       <path id="me04b7c53d4" d="M 0 0 
L 0 3.5 
" style="stroke: #000000; stroke-width: 0.8"/>
      </defs>
      <g>
       <use xlink:href="#me04b7c53d4" x="73.827491" y="162.432" style="stroke: #000000; stroke-width: 0.8"/>
      </g>
     </g>
     <g id="text_1">
      <!-- 0 -->
      <g transform="translate(70.646241 177.030437)scale(0.1 -0.1)">
       <defs>
        <path id="DejaVuSans-30" d="M 2034 4250 
Q 1547 4250 1301 3770 
Q 1056 3291 1056 2328 
Q 1056 1369 1301 889 
Q 1547 409 2034 409 
Q 2525 409 2770 889 
Q 3016 1369 3016 2328 
Q 3016 3291 2770 3770 
Q 2525 4250 2034 4250 
z
M 2034 4750 
Q 2819 4750 3233 4129 
Q 3647 3509 3647 2328 
Q 3647 1150 3233 529 
Q 2819 -91 2034 -91 
Q 1250 -91 836 529 
Q 422 1150 422 2328 
Q 422 3509 836 4129 
Q 1250 4750 2034 4750 
z
" transform="scale(0.015625)"/>
       </defs>
       <use xlink:href="#DejaVuSans-30"/>
      </g>
     </g>
    </g>
    <g id="xtick_2">
     <g id="line2d_2">
      <g>
       <use xlink:href="#me04b7c53d4" x="126.191972" y="162.432" style="stroke: #000000; stroke-width: 0.8"/>
      </g>
     </g>
     <g id="text_2">
      <!-- 10000 -->
      <g transform="translate(110.285722 177.030437)scale(0.1 -0.1)">
       <defs>
        <path id="DejaVuSans-31" d="M 794 531 
L 1825 531 
L 1825 4091 
L 703 3866 
L 703 4441 
L 1819 4666 
L 2450 4666 
L 2450 531 
L 3481 531 
L 3481 0 
L 794 0 
L 794 531 
z
" transform="scale(0.015625)"/>
       </defs>
       <use xlink:href="#DejaVuSans-31"/>
       <use xlink:href="#DejaVuSans-30" x="63.623047"/>
       <use xlink:href="#DejaVuSans-30" x="127.246094"/>
       <use xlink:href="#DejaVuSans-30" x="190.869141"/>
       <use xlink:href="#DejaVuSans-30" x="254.492188"/>
      </g>
     </g>
    </g>
    <g id="xtick_3">
     <g id="line2d_3">
      <g>
       <use xlink:href="#me04b7c53d4" x="178.556453" y="162.432" style="stroke: #000000; stroke-width: 0.8"/>
      </g>
     </g>
     <g id="text_3">
      <!-- 20000 -->
      <g transform="translate(162.650203 177.030437)scale(0.1 -0.1)">
       <defs>
        <path id="DejaVuSans-32" d="M 1228 531 
L 3431 531 
L 3431 0 
L 469 0 
L 469 531 
Q 828 903 1448 1529 
Q 2069 2156 2228 2338 
Q 2531 2678 2651 2914 
Q 2772 3150 2772 3378 
Q 2772 3750 2511 3984 
Q 2250 4219 1831 4219 
Q 1534 4219 1204 4116 
Q 875 4013 500 3803 
L 500 4441 
Q 881 4594 1212 4672 
Q 1544 4750 1819 4750 
Q 2544 4750 2975 4387 
Q 3406 4025 3406 3419 
Q 3406 3131 3298 2873 
Q 3191 2616 2906 2266 
Q 2828 2175 2409 1742 
Q 1991 1309 1228 531 
z
" transform="scale(0.015625)"/>
       </defs>
       <use xlink:href="#DejaVuSans-32"/>
       <use xlink:href="#DejaVuSans-30" x="63.623047"/>
       <use xlink:href="#DejaVuSans-30" x="127.246094"/>
       <use xlink:href="#DejaVuSans-30" x="190.869141"/>
       <use xlink:href="#DejaVuSans-30" x="254.492188"/>
      </g>
     </g>
    </g>
    <g id="xtick_4">
     <g id="line2d_4">
      <g>
       <use xlink:href="#me04b7c53d4" x="230.920934" y="162.432" style="stroke: #000000; stroke-width: 0.8"/>
      </g>
     </g>
     <g id="text_4">
      <!-- 30000 -->
      <g transform="translate(215.014684 177.030437)scale(0.1 -0.1)">
       <defs>
        <path id="DejaVuSans-33" d="M 2597 2516 
Q 3050 2419 3304 2112 
Q 3559 1806 3559 1356 
Q 3559 666 3084 287 
Q 2609 -91 1734 -91 
Q 1441 -91 1130 -33 
Q 819 25 488 141 
L 488 750 
Q 750 597 1062 519 
Q 1375 441 1716 441 
Q 2309 441 2620 675 
Q 2931 909 2931 1356 
Q 2931 1769 2642 2001 
Q 2353 2234 1838 2234 
L 1294 2234 
L 1294 2753 
L 1863 2753 
Q 2328 2753 2575 2939 
Q 2822 3125 2822 3475 
Q 2822 3834 2567 4026 
Q 2313 4219 1838 4219 
Q 1578 4219 1281 4162 
Q 984 4106 628 3988 
L 628 4550 
Q 988 4650 1302 4700 
Q 1616 4750 1894 4750 
Q 2613 4750 3031 4423 
Q 3450 4097 3450 3541 
Q 3450 3153 3228 2886 
Q 3006 2619 2597 2516 
z
" transform="scale(0.015625)"/>
       </defs>
       <use xlink:href="#DejaVuSans-33"/>
       <use xlink:href="#DejaVuSans-30" x="63.623047"/>
       <use xlink:href="#DejaVuSans-30" x="127.246094"/>
       <use xlink:href="#DejaVuSans-30" x="190.869141"/>
       <use xlink:href="#DejaVuSans-30" x="254.492188"/>
      </g>
     </g>
    </g>
    <g id="xtick_5">
     <g id="line2d_5">
      <g>
       <use xlink:href="#me04b7c53d4" x="283.285415" y="162.432" style="stroke: #000000; stroke-width: 0.8"/>
      </g>
     </g>
     <g id="text_5">
      <!-- 40000 -->
      <g transform="translate(267.379165 177.030437)scale(0.1 -0.1)">
       <defs>
        <path id="DejaVuSans-34" d="M 2419 4116 
L 825 1625 
L 2419 1625 
L 2419 4116 
z
M 2253 4666 
L 3047 4666 
L 3047 1625 
L 3713 1625 
L 3713 1100 
L 3047 1100 
L 3047 0 
L 2419 0 
L 2419 1100 
L 313 1100 
L 313 1709 
L 2253 4666 
z
" transform="scale(0.015625)"/>
       </defs>
       <use xlink:href="#DejaVuSans-34"/>
       <use xlink:href="#DejaVuSans-30" x="63.623047"/>
       <use xlink:href="#DejaVuSans-30" x="127.246094"/>
       <use xlink:href="#DejaVuSans-30" x="190.869141"/>
       <use xlink:href="#DejaVuSans-30" x="254.492188"/>
      </g>
     </g>
    </g>
    <g id="xtick_6">
     <g id="line2d_6">
      <g>
       <use xlink:href="#me04b7c53d4" x="335.649896" y="162.432" style="stroke: #000000; stroke-width: 0.8"/>
      </g>
     </g>
     <g id="text_6">
      <!-- 50000 -->
      <g transform="translate(319.743646 177.030437)scale(0.1 -0.1)">
       <defs>
        <path id="DejaVuSans-35" d="M 691 4666 
L 3169 4666 
L 3169 4134 
L 1269 4134 
L 1269 2991 
Q 1406 3038 1543 3061 
Q 1681 3084 1819 3084 
Q 2600 3084 3056 2656 
Q 3513 2228 3513 1497 
Q 3513 744 3044 326 
Q 2575 -91 1722 -91 
Q 1428 -91 1123 -41 
Q 819 9 494 109 
L 494 744 
Q 775 591 1075 516 
Q 1375 441 1709 441 
Q 2250 441 2565 725 
Q 2881 1009 2881 1497 
Q 2881 1984 2565 2268 
Q 2250 2553 1709 2553 
Q 1456 2553 1204 2497 
Q 953 2441 691 2322 
L 691 4666 
z
" transform="scale(0.015625)"/>
       </defs>
       <use xlink:href="#DejaVuSans-35"/>
       <use xlink:href="#DejaVuSans-30" x="63.623047"/>
       <use xlink:href="#DejaVuSans-30" x="127.246094"/>
       <use xlink:href="#DejaVuSans-30" x="190.869141"/>
       <use xlink:href="#DejaVuSans-30" x="254.492188"/>
      </g>
     </g>
    </g>
    <g id="xtick_7">
     <g id="line2d_7">
      <g>
       <use xlink:href="#me04b7c53d4" x="388.014377" y="162.432" style="stroke: #000000; stroke-width: 0.8"/>
      </g>
     </g>
     <g id="text_7">
      <!-- 60000 -->
      <g transform="translate(372.108127 177.030437)scale(0.1 -0.1)">
       <defs>
        <path id="DejaVuSans-36" d="M 2113 2584 
Q 1688 2584 1439 2293 
Q 1191 2003 1191 1497 
Q 1191 994 1439 701 
Q 1688 409 2113 409 
Q 2538 409 2786 701 
Q 3034 994 3034 1497 
Q 3034 2003 2786 2293 
Q 2538 2584 2113 2584 
z
M 3366 4563 
L 3366 3988 
Q 3128 4100 2886 4159 
Q 2644 4219 2406 4219 
Q 1781 4219 1451 3797 
Q 1122 3375 1075 2522 
Q 1259 2794 1537 2939 
Q 1816 3084 2150 3084 
Q 2853 3084 3261 2657 
Q 3669 2231 3669 1497 
Q 3669 778 3244 343 
Q 2819 -91 2113 -91 
Q 1303 -91 875 529 
Q 447 1150 447 2328 
Q 447 3434 972 4092 
Q 1497 4750 2381 4750 
Q 2619 4750 2861 4703 
Q 3103 4656 3366 4563 
z
" transform="scale(0.015625)"/>
       </defs>
       <use xlink:href="#DejaVuSans-36"/>
       <use xlink:href="#DejaVuSans-30" x="63.623047"/>
       <use xlink:href="#DejaVuSans-30" x="127.246094"/>
       <use xlink:href="#DejaVuSans-30" x="190.869141"/>
       <use xlink:href="#DejaVuSans-30" x="254.492188"/>
      </g>
     </g>
    </g>
   </g>
   <g id="matplotlib.axis_2">
    <g id="ytick_1">
     <g id="line2d_8">
      <defs>
       <path id="md45e171867" d="M 0 0 
L -3.5 0 
" style="stroke: #000000; stroke-width: 0.8"/>
      </defs>
      <g>
       <use xlink:href="#md45e171867" x="57.6" y="161.355948" style="stroke: #000000; stroke-width: 0.8"/>
      </g>
     </g>
     <g id="text_8">
      <!-- 80 -->
      <g transform="translate(37.875 165.155167)scale(0.1 -0.1)">
       <defs>
        <path id="DejaVuSans-38" d="M 2034 2216 
Q 1584 2216 1326 1975 
Q 1069 1734 1069 1313 
Q 1069 891 1326 650 
Q 1584 409 2034 409 
Q 2484 409 2743 651 
Q 3003 894 3003 1313 
Q 3003 1734 2745 1975 
Q 2488 2216 2034 2216 
z
M 1403 2484 
Q 997 2584 770 2862 
Q 544 3141 544 3541 
Q 544 4100 942 4425 
Q 1341 4750 2034 4750 
Q 2731 4750 3128 4425 
Q 3525 4100 3525 3541 
Q 3525 3141 3298 2862 
Q 3072 2584 2669 2484 
Q 3125 2378 3379 2068 
Q 3634 1759 3634 1313 
Q 3634 634 3220 271 
Q 2806 -91 2034 -91 
Q 1263 -91 848 271 
Q 434 634 434 1313 
Q 434 1759 690 2068 
Q 947 2378 1403 2484 
z
M 1172 3481 
Q 1172 3119 1398 2916 
Q 1625 2713 2034 2713 
Q 2441 2713 2670 2916 
Q 2900 3119 2900 3481 
Q 2900 3844 2670 4047 
Q 2441 4250 2034 4250 
Q 1625 4250 1398 4047 
Q 1172 3844 1172 3481 
z
" transform="scale(0.015625)"/>
       </defs>
       <use xlink:href="#DejaVuSans-38"/>
       <use xlink:href="#DejaVuSans-30" x="63.623047"/>
      </g>
     </g>
    </g>
    <g id="ytick_2">
     <g id="line2d_9">
      <g>
       <use xlink:href="#md45e171867" x="57.6" y="139.245298" style="stroke: #000000; stroke-width: 0.8"/>
      </g>
     </g>
     <g id="text_9">
      <!-- 85 -->
      <g transform="translate(37.875 143.044516)scale(0.1 -0.1)">
       <use xlink:href="#DejaVuSans-38"/>
       <use xlink:href="#DejaVuSans-35" x="63.623047"/>
      </g>
     </g>
    </g>
    <g id="ytick_3">
     <g id="line2d_10">
      <g>
       <use xlink:href="#md45e171867" x="57.6" y="117.134647" style="stroke: #000000; stroke-width: 0.8"/>
      </g>
     </g>
     <g id="text_10">
      <!-- 90 -->
      <g transform="translate(37.875 120.933866)scale(0.1 -0.1)">
       <defs>
        <path id="DejaVuSans-39" d="M 703 97 
L 703 672 
Q 941 559 1184 500 
Q 1428 441 1663 441 
Q 2288 441 2617 861 
Q 2947 1281 2994 2138 
Q 2813 1869 2534 1725 
Q 2256 1581 1919 1581 
Q 1219 1581 811 2004 
Q 403 2428 403 3163 
Q 403 3881 828 4315 
Q 1253 4750 1959 4750 
Q 2769 4750 3195 4129 
Q 3622 3509 3622 2328 
Q 3622 1225 3098 567 
Q 2575 -91 1691 -91 
Q 1453 -91 1209 -44 
Q 966 3 703 97 
z
M 1959 2075 
Q 2384 2075 2632 2365 
Q 2881 2656 2881 3163 
Q 2881 3666 2632 3958 
Q 2384 4250 1959 4250 
Q 1534 4250 1286 3958 
Q 1038 3666 1038 3163 
Q 1038 2656 1286 2365 
Q 1534 2075 1959 2075 
z
" transform="scale(0.015625)"/>
       </defs>
       <use xlink:href="#DejaVuSans-39"/>
       <use xlink:href="#DejaVuSans-30" x="63.623047"/>
      </g>
     </g>
    </g>
    <g id="ytick_4">
     <g id="line2d_11">
      <g>
       <use xlink:href="#md45e171867" x="57.6" y="95.023996" style="stroke: #000000; stroke-width: 0.8"/>
      </g>
     </g>
     <g id="text_11">
      <!-- 95 -->
      <g transform="translate(37.875 98.823215)scale(0.1 -0.1)">
       <use xlink:href="#DejaVuSans-39"/>
       <use xlink:href="#DejaVuSans-35" x="63.623047"/>
      </g>
     </g>
    </g>
    <g id="ytick_5">
     <g id="line2d_12">
      <g>
       <use xlink:href="#md45e171867" x="57.6" y="72.913345" style="stroke: #000000; stroke-width: 0.8"/>
      </g>
     </g>
     <g id="text_12">
      <!-- 100 -->
      <g transform="translate(31.5125 76.712564)scale(0.1 -0.1)">
       <use xlink:href="#DejaVuSans-31"/>
       <use xlink:href="#DejaVuSans-30" x="63.623047"/>
       <use xlink:href="#DejaVuSans-30" x="127.246094"/>
      </g>
     </g>
    </g>
    <g id="ytick_6">
     <g id="line2d_13">
      <g>
       <use xlink:href="#md45e171867" x="57.6" y="50.802695" style="stroke: #000000; stroke-width: 0.8"/>
      </g>
     </g>
     <g id="text_13">
      <!-- 105 -->
      <g transform="translate(31.5125 54.601913)scale(0.1 -0.1)">
       <use xlink:href="#DejaVuSans-31"/>
       <use xlink:href="#DejaVuSans-30" x="63.623047"/>
       <use xlink:href="#DejaVuSans-35" x="127.246094"/>
      </g>
     </g>
    </g>
   </g>
   <g id="line2d_14">
    <path d="M 73.832727 72.028919 
L 73.848437 72.028919 
L 73.974111 66.501257 
L 73.989821 66.501257 
L 74.110259 61.342105 
L 74.146914 61.342105 
L 74.262116 59.868061 
L 74.267352 59.868061 
L 74.382554 58.394018 
L 74.633904 58.394018 
L 74.754342 54.340399 
L 76.251966 54.340399 
L 76.367168 52.866355 
L 81.912567 52.866355 
L 82.027769 51.392312 
L 92.181241 51.392312 
L 92.296443 49.918269 
L 112.493424 49.918269 
L 112.608625 48.444225 
L 309.394345 48.444225 
L 309.509547 46.970182 
L 398.487273 46.970182 
L 398.487273 46.970182 
" clip-path="url(#p05f4ccc7b4)" style="fill: none; stroke: #1f77b4; stroke-width: 1.5; stroke-linecap: square"/>
   </g>
   <g id="line2d_15">
    <path d="M 73.832727 72.913345 
L 73.853673 72.913345 
L 73.974111 95.023996 
L 73.984584 94.13957 
L 74.105023 90.085951 
L 74.235934 90.085951 
L 74.283062 94.508081 
L 74.351136 93.623655 
L 74.372081 93.623655 
L 74.419209 92.518122 
L 74.424446 96.940252 
L 74.466337 96.940252 
L 74.560594 96.940252 
L 74.628667 101.362383 
L 74.670559 99.888339 
L 74.733396 99.888339 
L 74.853835 108.7326 
L 74.979509 108.7326 
L 75.016165 107.258556 
L 75.021401 111.680686 
L 75.079002 111.680686 
L 75.293696 111.680686 
L 75.372243 110.79626 
L 75.377479 115.21839 
L 75.382716 115.21839 
L 75.45079 115.21839 
L 75.565992 114.333964 
L 76.142001 114.333964 
L 76.262439 123.178225 
L 76.885577 123.178225 
L 77.000778 121.704181 
L 77.058379 121.704181 
L 77.173581 120.819755 
L 77.880502 120.819755 
L 77.995704 119.345712 
L 80.320686 119.345712 
L 80.435888 123.767842 
L 80.619164 123.767842 
L 80.734366 128.189972 
L 81.912567 128.189972 
L 82.027769 126.715929 
L 82.378611 126.715929 
L 82.493812 131.138059 
L 84.127584 131.138059 
L 84.242786 135.560189 
L 94.024471 135.560189 
L 94.139673 139.982319 
L 102.088601 139.982319 
L 102.203803 144.404449 
L 108.215245 144.404449 
L 108.330447 143.520023 
L 121.128326 143.520023 
L 121.243528 147.942154 
L 288.694666 147.942154 
L 288.809867 152.364284 
L 309.394345 152.364284 
L 309.509547 150.89024 
L 398.487273 150.89024 
L 398.487273 150.89024 
" clip-path="url(#p05f4ccc7b4)" style="fill: none; stroke: #ff7f0e; stroke-width: 1.5; stroke-linecap: square"/>
   </g>
   <g id="line2d_16">
    <path d="M 73.832727 72.913345 
L 73.848437 72.913345 
L 73.853673 71.439302 
L 73.911274 83.231649 
L 73.921747 83.231649 
L 73.926983 83.231649 
L 73.974111 80.283562 
L 74.00553 89.864844 
L 74.089313 98.709105 
L 74.120732 97.235061 
L 74.146914 97.235061 
L 74.178333 95.761018 
L 74.220224 104.605278 
L 74.230697 104.605278 
L 74.267352 104.605278 
L 74.283062 103.131235 
L 74.288298 107.553365 
L 74.366845 107.553365 
L 74.372081 107.553365 
L 74.487283 111.975495 
L 74.628667 111.975495 
L 74.633904 116.397625 
L 74.738633 112.344006 
L 74.979509 112.344006 
L 75.094711 116.766136 
L 75.293696 116.766136 
L 75.408898 121.188266 
L 75.45079 121.188266 
L 75.565992 125.610396 
L 76.251966 125.610396 
L 76.367168 124.136353 
L 76.885577 124.136353 
L 77.000778 128.558483 
L 77.058379 128.558483 
L 77.173581 132.980613 
L 77.880502 132.980613 
L 77.995704 137.402743 
L 79.912244 137.402743 
L 80.027445 141.824874 
L 81.540779 141.824874 
L 81.655981 146.247004 
L 81.729291 146.247004 
L 81.844493 150.669134 
L 81.912567 150.669134 
L 82.027769 149.19509 
L 82.378611 149.19509 
L 82.493812 147.721047 
L 83.488738 147.721047 
L 83.603939 152.143177 
L 84.127584 152.143177 
L 84.242786 150.669134 
L 92.181241 150.669134 
L 92.296443 149.19509 
L 102.088601 149.19509 
L 102.203803 148.089558 
L 105.146687 148.089558 
L 105.261889 152.511688 
L 108.215245 152.511688 
L 108.330447 156.933818 
L 112.493424 156.933818 
L 112.608625 155.459775 
L 309.394345 155.459775 
L 309.509547 153.985731 
L 398.487273 153.985731 
L 398.487273 153.985731 
" clip-path="url(#p05f4ccc7b4)" style="fill: none; stroke: #2ca02c; stroke-width: 1.5; stroke-linecap: square"/>
   </g>
   <g id="line2d_17">
    <path d="M 73.832727 72.913345 
L 73.974111 72.913345 
L 74.099786 70.038961 
L 74.178333 70.038961 
L 74.214988 68.564917 
L 74.220224 72.987048 
L 74.277825 72.987048 
L 74.4035 69.891556 
L 74.508229 69.891556 
L 74.623431 68.786024 
L 75.141839 68.786024 
L 75.257041 67.680491 
L 75.293696 67.680491 
L 75.408898 66.796065 
L 75.45079 66.796065 
L 75.565992 65.911639 
L 75.932543 65.911639 
L 76.047745 64.806107 
L 76.979833 64.806107 
L 77.100271 62.816148 
L 79.912244 62.816148 
L 80.027445 61.342105 
L 81.488414 61.342105 
L 81.603616 60.236572 
L 82.15868 60.236572 
L 82.273882 59.13104 
L 94.846593 59.13104 
L 94.961795 58.025507 
L 108.215245 58.025507 
L 108.330447 57.141081 
L 239.482526 57.141081 
L 239.597728 56.035549 
L 245.530624 56.035549 
L 245.645826 54.930016 
L 291.31289 54.930016 
L 291.428091 53.824484 
L 398.487273 53.824484 
L 398.487273 53.824484 
" clip-path="url(#p05f4ccc7b4)" style="fill: none; stroke: #d62728; stroke-width: 1.5; stroke-linecap: square"/>
   </g>
   <g id="line2d_18">
    <path d="M 73.832727 72.028919 
L 73.953166 72.028919 
L 74.068367 70.554876 
L 74.701978 70.554876 
L 74.81718 69.449343 
L 79.912244 69.449343 
L 80.027445 73.871474 
L 82.378611 73.871474 
L 82.493812 72.39743 
L 84.127584 72.39743 
L 84.242786 70.923387 
L 102.088601 70.923387 
L 102.203803 69.817854 
L 171.58674 69.817854 
L 171.701942 68.712322 
L 398.487273 68.712322 
L 398.487273 68.712322 
" clip-path="url(#p05f4ccc7b4)" style="fill: none; stroke: #9467bd; stroke-width: 1.5; stroke-linecap: square"/>
   </g>
   <g id="line2d_19">
    <path d="M 73.832727 77.335476 
L 73.848437 77.335476 
L 73.879855 74.387389 
L 73.911274 83.231649 
L 73.942693 81.757606 
L 73.984584 81.757606 
L 74.089313 97.972083 
L 74.110259 96.498039 
L 74.146914 96.498039 
L 74.178333 95.023996 
L 74.220224 103.868256 
L 74.230697 103.868256 
L 74.267352 103.868256 
L 74.372081 102.394213 
L 74.487283 106.816343 
L 74.628667 106.816343 
L 74.633904 111.238473 
L 74.738633 109.76443 
L 74.979509 109.76443 
L 75.094711 114.18656 
L 76.251966 114.18656 
L 76.367168 112.712517 
L 76.885577 112.712517 
L 77.000778 117.134647 
L 77.880502 117.134647 
L 77.995704 121.556777 
L 81.540779 121.556777 
L 81.655981 125.978907 
L 81.729291 125.978907 
L 81.844493 130.401037 
L 92.181241 130.401037 
L 92.296443 128.926994 
L 105.146687 128.926994 
L 105.261889 133.349124 
L 112.493424 133.349124 
L 112.608625 131.875081 
L 171.58674 131.875081 
L 171.701942 136.297211 
L 398.487273 136.297211 
L 398.487273 136.297211 
" clip-path="url(#p05f4ccc7b4)" style="fill: none; stroke: #8c564b; stroke-width: 1.5; stroke-linecap: square"/>
   </g>
   <g id="line2d_20">
    <path d="M 73.832727 72.028919 
L 73.837964 72.028919 
L 73.953166 67.606789 
L 74.068367 66.132746 
L 74.372081 66.132746 
L 74.487283 65.027213 
L 74.701978 65.027213 
L 74.81718 63.921681 
L 79.912244 63.921681 
L 80.027445 68.343811 
L 81.540779 68.343811 
L 81.655981 67.238278 
L 81.729291 67.238278 
L 81.844493 66.132746 
L 82.378611 66.132746 
L 82.493812 64.658702 
L 83.488738 64.658702 
L 83.603939 63.184659 
L 84.127584 63.184659 
L 84.242786 61.710616 
L 102.088601 61.710616 
L 102.203803 60.605083 
L 171.58674 60.605083 
L 171.701942 59.499551 
L 398.487273 59.499551 
L 398.487273 59.499551 
" clip-path="url(#p05f4ccc7b4)" style="fill: none; stroke: #e377c2; stroke-width: 1.5; stroke-linecap: square"/>
   </g>
   <g id="line2d_21">
    <path d="M 73.832727 77.335476 
L 73.837964 77.335476 
L 73.963638 90.601866 
L 73.974111 90.601866 
L 73.989821 89.71744 
L 74.000294 98.5617 
L 74.042185 97.677274 
L 74.07884 97.677274 
L 74.194042 96.571742 
L 74.214988 96.571742 
L 74.277825 100.993872 
L 74.324953 99.003913 
L 74.345899 99.003913 
L 74.372081 97.898381 
L 74.377318 102.320511 
L 74.440155 102.320511 
L 74.508229 102.320511 
L 74.623431 101.214978 
L 74.701978 101.214978 
L 74.81718 105.637108 
L 75.141839 105.637108 
L 75.257041 104.531576 
L 75.293696 104.531576 
L 75.408898 103.64715 
L 75.45079 103.64715 
L 75.565992 102.762724 
L 75.932543 102.762724 
L 76.047745 101.657191 
L 76.979833 101.657191 
L 77.100271 99.667233 
L 79.912244 99.667233 
L 80.027445 98.193189 
L 81.488414 98.193189 
L 81.540779 97.087657 
L 81.546015 101.509787 
L 81.58267 101.509787 
L 81.729291 101.509787 
L 81.844493 105.931917 
L 82.15868 105.931917 
L 82.273882 104.826385 
L 82.378611 104.826385 
L 82.493812 109.248515 
L 83.488738 109.248515 
L 83.603939 113.670645 
L 84.127584 113.670645 
L 84.242786 118.092775 
L 94.846593 118.092775 
L 94.961795 116.987243 
L 102.088601 116.987243 
L 102.203803 121.409373 
L 108.215245 121.409373 
L 108.330447 120.524947 
L 171.58674 120.524947 
L 171.701942 124.947077 
L 239.482526 124.947077 
L 239.597728 123.841544 
L 245.530624 123.841544 
L 245.645826 122.736012 
L 291.31289 122.736012 
L 291.428091 121.630479 
L 398.487273 121.630479 
L 398.487273 121.630479 
" clip-path="url(#p05f4ccc7b4)" style="fill: none; stroke: #7f7f7f; stroke-width: 1.5; stroke-linecap: square"/>
   </g>
   <g id="line2d_22">
    <path d="M 73.832727 72.028919 
L 73.848437 72.028919 
L 73.968875 81.24169 
L 73.974111 81.24169 
L 73.989821 78.883221 
L 74.000294 87.727481 
L 74.063131 84.263479 
L 74.07884 84.263479 
L 74.089313 83.157947 
L 74.152151 92.002207 
L 74.178333 92.002207 
L 74.267352 90.528164 
L 74.272589 94.950294 
L 74.277825 94.950294 
L 74.408737 90.74927 
L 74.508229 90.74927 
L 74.623431 89.643738 
L 74.628667 89.643738 
L 74.633904 88.169694 
L 74.707214 97.013955 
L 74.712451 97.013955 
L 74.733396 97.013955 
L 74.848598 101.436085 
L 74.979509 101.436085 
L 75.094711 99.962041 
L 75.141839 99.962041 
L 75.257041 98.856509 
L 75.293696 98.856509 
L 75.408898 97.972083 
L 75.45079 97.972083 
L 75.565992 97.087657 
L 75.932543 97.087657 
L 76.047745 95.982124 
L 76.251966 95.982124 
L 76.367168 100.404254 
L 76.885577 100.404254 
L 77.000778 97.824679 
L 77.058379 97.824679 
L 77.173581 96.940252 
L 77.880502 96.940252 
L 77.995704 95.466209 
L 81.488414 95.466209 
L 81.608853 93.255144 
L 81.729291 93.255144 
L 81.844493 92.149612 
L 81.912567 92.149612 
L 82.027769 96.571742 
L 82.15868 96.571742 
L 82.273882 95.466209 
L 83.488738 95.466209 
L 83.603939 93.992166 
L 92.181241 93.992166 
L 92.296443 98.414296 
L 94.846593 98.414296 
L 94.961795 97.308763 
L 102.088601 97.308763 
L 102.203803 101.730893 
L 105.146687 101.730893 
L 105.261889 100.25685 
L 108.215245 100.25685 
L 108.330447 99.372424 
L 112.493424 99.372424 
L 112.608625 103.794554 
L 171.58674 103.794554 
L 171.701942 102.689022 
L 239.482526 102.689022 
L 239.597728 101.583489 
L 245.530624 101.583489 
L 245.645826 100.477957 
L 291.31289 100.477957 
L 291.428091 99.372424 
L 309.394345 99.372424 
L 309.509547 103.794554 
L 398.487273 103.794554 
L 398.487273 103.794554 
" clip-path="url(#p05f4ccc7b4)" style="fill: none; stroke: #bcbd22; stroke-width: 1.5; stroke-linecap: square"/>
   </g>
   <g id="line2d_23">
    <path d="M 73.832727 77.335476 
L 73.853673 77.335476 
L 73.926983 74.7559 
L 73.93222 79.17803 
L 73.953166 79.17803 
L 74.000294 91.559994 
L 74.073604 89.570036 
L 74.07884 89.570036 
L 74.194042 88.464503 
L 74.214988 88.464503 
L 74.277825 92.886633 
L 74.324953 90.896675 
L 74.345899 90.896675 
L 74.461101 89.791142 
L 74.508229 89.791142 
L 74.623431 88.68561 
L 74.701978 88.68561 
L 74.822416 97.52987 
L 75.141839 97.52987 
L 75.257041 96.424337 
L 75.293696 96.424337 
L 75.408898 95.539911 
L 75.45079 95.539911 
L 75.565992 94.655485 
L 75.932543 94.655485 
L 76.047745 93.549953 
L 76.979833 93.549953 
L 77.100271 91.559994 
L 79.912244 91.559994 
L 80.027445 90.085951 
L 81.488414 90.085951 
L 81.608853 87.874886 
L 81.729291 87.874886 
L 81.844493 86.769353 
L 81.912567 86.769353 
L 82.027769 91.191483 
L 82.15868 91.191483 
L 82.273882 90.085951 
L 82.378611 90.085951 
L 82.493812 94.508081 
L 83.488738 94.508081 
L 83.603939 93.034038 
L 84.127584 93.034038 
L 84.242786 97.456168 
L 94.846593 97.456168 
L 94.961795 96.350635 
L 102.088601 96.350635 
L 102.203803 100.772765 
L 105.146687 100.772765 
L 105.261889 99.298722 
L 108.215245 99.298722 
L 108.330447 98.414296 
L 171.58674 98.414296 
L 171.701942 102.836426 
L 239.482526 102.836426 
L 239.597728 101.730893 
L 245.530624 101.730893 
L 245.645826 100.625361 
L 291.31289 100.625361 
L 291.428091 99.519828 
L 309.394345 99.519828 
L 309.509547 103.941959 
L 398.487273 103.941959 
L 398.487273 103.941959 
" clip-path="url(#p05f4ccc7b4)" style="fill: none; stroke: #17becf; stroke-width: 1.5; stroke-linecap: square"/>
   </g>
   <g id="line2d_24">
    <path d="M 73.832727 72.028919 
L 73.848437 72.028919 
L 73.968875 82.347223 
L 73.984584 82.347223 
L 73.995057 80.87318 
L 74.000294 85.29531 
L 74.089313 81.831308 
L 74.178333 90.675568 
L 74.204515 89.201525 
L 74.214988 89.201525 
L 74.267352 86.99046 
L 74.272589 91.41259 
L 74.319717 91.41259 
L 74.372081 91.41259 
L 74.487283 90.307057 
L 74.628667 90.307057 
L 74.633904 88.833014 
L 74.63914 93.255144 
L 74.72816 93.255144 
L 74.979509 93.255144 
L 75.094711 91.781101 
L 76.251966 91.781101 
L 76.367168 96.203231 
L 76.885577 96.203231 
L 77.000778 94.729187 
L 77.880502 94.729187 
L 77.995704 93.255144 
L 81.540779 93.255144 
L 81.655981 92.149612 
L 81.729291 92.149612 
L 81.844493 91.044079 
L 92.181241 91.044079 
L 92.296443 95.466209 
L 105.146687 95.466209 
L 105.261889 93.992166 
L 112.493424 93.992166 
L 112.608625 98.414296 
L 171.58674 98.414296 
L 171.701942 97.308763 
L 398.487273 97.308763 
L 398.487273 97.308763 
" clip-path="url(#p05f4ccc7b4)" style="fill: none; stroke: #1f77b4; stroke-width: 1.5; stroke-linecap: square"/>
   </g>
   <g id="line2d_25">
    <path d="M 73.832727 72.913345 
L 73.848437 72.913345 
L 73.853673 77.335476 
L 73.921747 65.911639 
L 73.947929 65.911639 
L 73.974111 65.911639 
L 74.099786 79.17803 
L 74.146914 79.17803 
L 74.214988 83.60016 
L 74.24117 76.966965 
L 74.251643 76.966965 
L 74.277825 76.966965 
L 74.4035 90.233355 
L 74.419209 90.233355 
L 74.508229 85.811225 
L 74.529175 90.233355 
L 74.560594 90.233355 
L 74.675795 85.811225 
L 74.701978 85.811225 
L 74.733396 90.233355 
L 74.754342 84.337182 
L 74.806707 84.337182 
L 75.016165 84.337182 
L 75.131366 79.915051 
L 75.141839 79.915051 
L 75.257041 84.337182 
L 75.293696 84.337182 
L 75.372243 88.759312 
L 75.403662 84.337182 
L 75.45079 84.337182 
L 75.565992 88.759312 
L 75.932543 88.759312 
L 76.047745 93.181442 
L 76.142001 93.181442 
L 76.262439 84.337182 
L 76.979833 84.337182 
L 77.100271 93.181442 
L 80.320686 93.181442 
L 80.435888 88.759312 
L 80.619164 88.759312 
L 80.734366 84.337182 
L 81.488414 84.337182 
L 81.603616 88.759312 
L 81.912567 88.759312 
L 82.027769 93.181442 
L 82.15868 93.181442 
L 82.273882 97.603572 
L 94.024471 97.603572 
L 94.139673 93.181442 
L 94.846593 93.181442 
L 94.961795 97.603572 
L 102.088601 97.603572 
L 102.203803 96.498039 
L 108.215245 96.498039 
L 108.330447 100.92017 
L 121.128326 100.92017 
L 121.243528 96.498039 
L 239.482526 96.498039 
L 239.597728 100.92017 
L 245.530624 100.92017 
L 245.645826 105.3423 
L 288.694666 105.3423 
L 288.809867 100.92017 
L 291.31289 100.92017 
L 291.428091 105.3423 
L 309.394345 105.3423 
L 309.509547 109.76443 
L 398.487273 109.76443 
L 398.487273 109.76443 
" clip-path="url(#p05f4ccc7b4)" style="fill: none; stroke: #ff7f0e; stroke-width: 1.5; stroke-linecap: square"/>
   </g>
   <g id="patch_3">
    <path d="M 57.6 162.432 
L 57.6 41.472 
" style="fill: none; stroke: #000000; stroke-width: 0.8; stroke-linejoin: miter; stroke-linecap: square"/>
   </g>
   <g id="patch_4">
    <path d="M 414.72 162.432 
L 414.72 41.472 
" style="fill: none; stroke: #000000; stroke-width: 0.8; stroke-linejoin: miter; stroke-linecap: square"/>
   </g>
   <g id="patch_5">
    <path d="M 57.6 162.432 
L 414.72 162.432 
" style="fill: none; stroke: #000000; stroke-width: 0.8; stroke-linejoin: miter; stroke-linecap: square"/>
   </g>
   <g id="patch_6">
    <path d="M 57.6 41.472 
L 414.72 41.472 
" style="fill: none; stroke: #000000; stroke-width: 0.8; stroke-linejoin: miter; stroke-linecap: square"/>
   </g>
   <g id="text_14">
    <!-- WSP -->
    <g transform="translate(361.832136 46.970182)scale(0.08 -0.08)">
     <defs>
      <path id="DejaVuSans-57" d="M 213 4666 
L 850 4666 
L 1831 722 
L 2809 4666 
L 3519 4666 
L 4500 722 
L 5478 4666 
L 6119 4666 
L 4947 0 
L 4153 0 
L 3169 4050 
L 2175 0 
L 1381 0 
L 213 4666 
z
" transform="scale(0.015625)"/>
      <path id="DejaVuSans-53" d="M 3425 4513 
L 3425 3897 
Q 3066 4069 2747 4153 
Q 2428 4238 2131 4238 
Q 1616 4238 1336 4038 
Q 1056 3838 1056 3469 
Q 1056 3159 1242 3001 
Q 1428 2844 1947 2747 
L 2328 2669 
Q 3034 2534 3370 2195 
Q 3706 1856 3706 1288 
Q 3706 609 3251 259 
Q 2797 -91 1919 -91 
Q 1588 -91 1214 -16 
Q 841 59 441 206 
L 441 856 
Q 825 641 1194 531 
Q 1563 422 1919 422 
Q 2459 422 2753 634 
Q 3047 847 3047 1241 
Q 3047 1584 2836 1778 
Q 2625 1972 2144 2069 
L 1759 2144 
Q 1053 2284 737 2584 
Q 422 2884 422 3419 
Q 422 4038 858 4394 
Q 1294 4750 2059 4750 
Q 2388 4750 2728 4690 
Q 3069 4631 3425 4513 
z
" transform="scale(0.015625)"/>
      <path id="DejaVuSans-50" d="M 1259 4147 
L 1259 2394 
L 2053 2394 
Q 2494 2394 2734 2622 
Q 2975 2850 2975 3272 
Q 2975 3691 2734 3919 
Q 2494 4147 2053 4147 
L 1259 4147 
z
M 628 4666 
L 2053 4666 
Q 2838 4666 3239 4311 
Q 3641 3956 3641 3272 
Q 3641 2581 3239 2228 
Q 2838 1875 2053 1875 
L 1259 1875 
L 1259 0 
L 628 0 
L 628 4666 
z
" transform="scale(0.015625)"/>
     </defs>
     <use xlink:href="#DejaVuSans-57"/>
     <use xlink:href="#DejaVuSans-53" x="98.876953"/>
     <use xlink:href="#DejaVuSans-50" x="162.353516"/>
    </g>
   </g>
   <g id="text_15">
    <!-- Iambic -->
    <g transform="translate(361.832136 150.89024)scale(0.08 -0.08)">
     <defs>
      <path id="DejaVuSans-49" d="M 628 4666 
L 1259 4666 
L 1259 0 
L 628 0 
L 628 4666 
z
" transform="scale(0.015625)"/>
      <path id="DejaVuSans-61" d="M 2194 1759 
Q 1497 1759 1228 1600 
Q 959 1441 959 1056 
Q 959 750 1161 570 
Q 1363 391 1709 391 
Q 2188 391 2477 730 
Q 2766 1069 2766 1631 
L 2766 1759 
L 2194 1759 
z
M 3341 1997 
L 3341 0 
L 2766 0 
L 2766 531 
Q 2569 213 2275 61 
Q 1981 -91 1556 -91 
Q 1019 -91 701 211 
Q 384 513 384 1019 
Q 384 1609 779 1909 
Q 1175 2209 1959 2209 
L 2766 2209 
L 2766 2266 
Q 2766 2663 2505 2880 
Q 2244 3097 1772 3097 
Q 1472 3097 1187 3025 
Q 903 2953 641 2809 
L 641 3341 
Q 956 3463 1253 3523 
Q 1550 3584 1831 3584 
Q 2591 3584 2966 3190 
Q 3341 2797 3341 1997 
z
" transform="scale(0.015625)"/>
      <path id="DejaVuSans-6d" d="M 3328 2828 
Q 3544 3216 3844 3400 
Q 4144 3584 4550 3584 
Q 5097 3584 5394 3201 
Q 5691 2819 5691 2113 
L 5691 0 
L 5113 0 
L 5113 2094 
Q 5113 2597 4934 2840 
Q 4756 3084 4391 3084 
Q 3944 3084 3684 2787 
Q 3425 2491 3425 1978 
L 3425 0 
L 2847 0 
L 2847 2094 
Q 2847 2600 2669 2842 
Q 2491 3084 2119 3084 
Q 1678 3084 1418 2786 
Q 1159 2488 1159 1978 
L 1159 0 
L 581 0 
L 581 3500 
L 1159 3500 
L 1159 2956 
Q 1356 3278 1631 3431 
Q 1906 3584 2284 3584 
Q 2666 3584 2933 3390 
Q 3200 3197 3328 2828 
z
" transform="scale(0.015625)"/>
      <path id="DejaVuSans-62" d="M 3116 1747 
Q 3116 2381 2855 2742 
Q 2594 3103 2138 3103 
Q 1681 3103 1420 2742 
Q 1159 2381 1159 1747 
Q 1159 1113 1420 752 
Q 1681 391 2138 391 
Q 2594 391 2855 752 
Q 3116 1113 3116 1747 
z
M 1159 2969 
Q 1341 3281 1617 3432 
Q 1894 3584 2278 3584 
Q 2916 3584 3314 3078 
Q 3713 2572 3713 1747 
Q 3713 922 3314 415 
Q 2916 -91 2278 -91 
Q 1894 -91 1617 61 
Q 1341 213 1159 525 
L 1159 0 
L 581 0 
L 581 4863 
L 1159 4863 
L 1159 2969 
z
" transform="scale(0.015625)"/>
      <path id="DejaVuSans-69" d="M 603 3500 
L 1178 3500 
L 1178 0 
L 603 0 
L 603 3500 
z
M 603 4863 
L 1178 4863 
L 1178 4134 
L 603 4134 
L 603 4863 
z
" transform="scale(0.015625)"/>
      <path id="DejaVuSans-63" d="M 3122 3366 
L 3122 2828 
Q 2878 2963 2633 3030 
Q 2388 3097 2138 3097 
Q 1578 3097 1268 2742 
Q 959 2388 959 1747 
Q 959 1106 1268 751 
Q 1578 397 2138 397 
Q 2388 397 2633 464 
Q 2878 531 3122 666 
L 3122 134 
Q 2881 22 2623 -34 
Q 2366 -91 2075 -91 
Q 1284 -91 818 406 
Q 353 903 353 1747 
Q 353 2603 823 3093 
Q 1294 3584 2113 3584 
Q 2378 3584 2631 3529 
Q 2884 3475 3122 3366 
z
" transform="scale(0.015625)"/>
     </defs>
     <use xlink:href="#DejaVuSans-49"/>
     <use xlink:href="#DejaVuSans-61" x="29.492188"/>
     <use xlink:href="#DejaVuSans-6d" x="90.771484"/>
     <use xlink:href="#DejaVuSans-62" x="188.183594"/>
     <use xlink:href="#DejaVuSans-69" x="251.660156"/>
     <use xlink:href="#DejaVuSans-63" x="279.443359"/>
    </g>
   </g>
   <g id="text_16">
    <!-- Parse -->
    <g transform="translate(361.832136 153.985731)scale(0.08 -0.08)">
     <defs>
      <path id="DejaVuSans-72" d="M 2631 2963 
Q 2534 3019 2420 3045 
Q 2306 3072 2169 3072 
Q 1681 3072 1420 2755 
Q 1159 2438 1159 1844 
L 1159 0 
L 581 0 
L 581 3500 
L 1159 3500 
L 1159 2956 
Q 1341 3275 1631 3429 
Q 1922 3584 2338 3584 
Q 2397 3584 2469 3576 
Q 2541 3569 2628 3553 
L 2631 2963 
z
" transform="scale(0.015625)"/>
      <path id="DejaVuSans-73" d="M 2834 3397 
L 2834 2853 
Q 2591 2978 2328 3040 
Q 2066 3103 1784 3103 
Q 1356 3103 1142 2972 
Q 928 2841 928 2578 
Q 928 2378 1081 2264 
Q 1234 2150 1697 2047 
L 1894 2003 
Q 2506 1872 2764 1633 
Q 3022 1394 3022 966 
Q 3022 478 2636 193 
Q 2250 -91 1575 -91 
Q 1294 -91 989 -36 
Q 684 19 347 128 
L 347 722 
Q 666 556 975 473 
Q 1284 391 1588 391 
Q 1994 391 2212 530 
Q 2431 669 2431 922 
Q 2431 1156 2273 1281 
Q 2116 1406 1581 1522 
L 1381 1569 
Q 847 1681 609 1914 
Q 372 2147 372 2553 
Q 372 3047 722 3315 
Q 1072 3584 1716 3584 
Q 2034 3584 2315 3537 
Q 2597 3491 2834 3397 
z
" transform="scale(0.015625)"/>
      <path id="DejaVuSans-65" d="M 3597 1894 
L 3597 1613 
L 953 1613 
Q 991 1019 1311 708 
Q 1631 397 2203 397 
Q 2534 397 2845 478 
Q 3156 559 3463 722 
L 3463 178 
Q 3153 47 2828 -22 
Q 2503 -91 2169 -91 
Q 1331 -91 842 396 
Q 353 884 353 1716 
Q 353 2575 817 3079 
Q 1281 3584 2069 3584 
Q 2775 3584 3186 3129 
Q 3597 2675 3597 1894 
z
M 3022 2063 
Q 3016 2534 2758 2815 
Q 2500 3097 2075 3097 
Q 1594 3097 1305 2825 
Q 1016 2553 972 2059 
L 3022 2063 
z
" transform="scale(0.015625)"/>
     </defs>
     <use xlink:href="#DejaVuSans-50"/>
     <use xlink:href="#DejaVuSans-61" x="55.802734"/>
     <use xlink:href="#DejaVuSans-72" x="117.082031"/>
     <use xlink:href="#DejaVuSans-73" x="158.195312"/>
     <use xlink:href="#DejaVuSans-65" x="210.294922"/>
    </g>
   </g>
   <g id="text_17">
    <!-- FootBin -->
    <g transform="translate(361.832136 53.824484)scale(0.08 -0.08)">
     <defs>
      <path id="DejaVuSans-46" d="M 628 4666 
L 3309 4666 
L 3309 4134 
L 1259 4134 
L 1259 2759 
L 3109 2759 
L 3109 2228 
L 1259 2228 
L 1259 0 
L 628 0 
L 628 4666 
z
" transform="scale(0.015625)"/>
      <path id="DejaVuSans-6f" d="M 1959 3097 
Q 1497 3097 1228 2736 
Q 959 2375 959 1747 
Q 959 1119 1226 758 
Q 1494 397 1959 397 
Q 2419 397 2687 759 
Q 2956 1122 2956 1747 
Q 2956 2369 2687 2733 
Q 2419 3097 1959 3097 
z
M 1959 3584 
Q 2709 3584 3137 3096 
Q 3566 2609 3566 1747 
Q 3566 888 3137 398 
Q 2709 -91 1959 -91 
Q 1206 -91 779 398 
Q 353 888 353 1747 
Q 353 2609 779 3096 
Q 1206 3584 1959 3584 
z
" transform="scale(0.015625)"/>
      <path id="DejaVuSans-74" d="M 1172 4494 
L 1172 3500 
L 2356 3500 
L 2356 3053 
L 1172 3053 
L 1172 1153 
Q 1172 725 1289 603 
Q 1406 481 1766 481 
L 2356 481 
L 2356 0 
L 1766 0 
Q 1100 0 847 248 
Q 594 497 594 1153 
L 594 3053 
L 172 3053 
L 172 3500 
L 594 3500 
L 594 4494 
L 1172 4494 
z
" transform="scale(0.015625)"/>
      <path id="DejaVuSans-42" d="M 1259 2228 
L 1259 519 
L 2272 519 
Q 2781 519 3026 730 
Q 3272 941 3272 1375 
Q 3272 1813 3026 2020 
Q 2781 2228 2272 2228 
L 1259 2228 
z
M 1259 4147 
L 1259 2741 
L 2194 2741 
Q 2656 2741 2882 2914 
Q 3109 3088 3109 3444 
Q 3109 3797 2882 3972 
Q 2656 4147 2194 4147 
L 1259 4147 
z
M 628 4666 
L 2241 4666 
Q 2963 4666 3353 4366 
Q 3744 4066 3744 3513 
Q 3744 3084 3544 2831 
Q 3344 2578 2956 2516 
Q 3422 2416 3680 2098 
Q 3938 1781 3938 1306 
Q 3938 681 3513 340 
Q 3088 0 2303 0 
L 628 0 
L 628 4666 
z
" transform="scale(0.015625)"/>
      <path id="DejaVuSans-6e" d="M 3513 2113 
L 3513 0 
L 2938 0 
L 2938 2094 
Q 2938 2591 2744 2837 
Q 2550 3084 2163 3084 
Q 1697 3084 1428 2787 
Q 1159 2491 1159 1978 
L 1159 0 
L 581 0 
L 581 3500 
L 1159 3500 
L 1159 2956 
Q 1366 3272 1645 3428 
Q 1925 3584 2291 3584 
Q 2894 3584 3203 3211 
Q 3513 2838 3513 2113 
z
" transform="scale(0.015625)"/>
     </defs>
     <use xlink:href="#DejaVuSans-46"/>
     <use xlink:href="#DejaVuSans-6f" x="53.894531"/>
     <use xlink:href="#DejaVuSans-6f" x="115.076172"/>
     <use xlink:href="#DejaVuSans-74" x="176.257812"/>
     <use xlink:href="#DejaVuSans-42" x="215.466797"/>
     <use xlink:href="#DejaVuSans-69" x="284.070312"/>
     <use xlink:href="#DejaVuSans-6e" x="311.853516"/>
    </g>
   </g>
   <g id="text_18">
    <!-- WFL -->
    <g transform="translate(361.832136 68.712322)scale(0.08 -0.08)">
     <defs>
      <path id="DejaVuSans-4c" d="M 628 4666 
L 1259 4666 
L 1259 531 
L 3531 531 
L 3531 0 
L 628 0 
L 628 4666 
z
" transform="scale(0.015625)"/>
     </defs>
     <use xlink:href="#DejaVuSans-57"/>
     <use xlink:href="#DejaVuSans-46" x="98.876953"/>
     <use xlink:href="#DejaVuSans-4c" x="156.396484"/>
    </g>
   </g>
   <g id="text_19">
    <!-- WFR -->
    <g transform="translate(361.832136 136.297211)scale(0.08 -0.08)">
     <defs>
      <path id="DejaVuSans-52" d="M 2841 2188 
Q 3044 2119 3236 1894 
Q 3428 1669 3622 1275 
L 4263 0 
L 3584 0 
L 2988 1197 
Q 2756 1666 2539 1819 
Q 2322 1972 1947 1972 
L 1259 1972 
L 1259 0 
L 628 0 
L 628 4666 
L 2053 4666 
Q 2853 4666 3247 4331 
Q 3641 3997 3641 3322 
Q 3641 2881 3436 2590 
Q 3231 2300 2841 2188 
z
M 1259 4147 
L 1259 2491 
L 2053 2491 
Q 2509 2491 2742 2702 
Q 2975 2913 2975 3322 
Q 2975 3731 2742 3939 
Q 2509 4147 2053 4147 
L 1259 4147 
z
" transform="scale(0.015625)"/>
     </defs>
     <use xlink:href="#DejaVuSans-57"/>
     <use xlink:href="#DejaVuSans-46" x="98.876953"/>
     <use xlink:href="#DejaVuSans-52" x="156.396484"/>
    </g>
   </g>
   <g id="text_20">
    <!-- Main-L -->
    <g transform="translate(361.832136 59.499551)scale(0.08 -0.08)">
     <defs>
      <path id="DejaVuSans-4d" d="M 628 4666 
L 1569 4666 
L 2759 1491 
L 3956 4666 
L 4897 4666 
L 4897 0 
L 4281 0 
L 4281 4097 
L 3078 897 
L 2444 897 
L 1241 4097 
L 1241 0 
L 628 0 
L 628 4666 
z
" transform="scale(0.015625)"/>
      <path id="DejaVuSans-2d" d="M 313 2009 
L 1997 2009 
L 1997 1497 
L 313 1497 
L 313 2009 
z
" transform="scale(0.015625)"/>
     </defs>
     <use xlink:href="#DejaVuSans-4d"/>
     <use xlink:href="#DejaVuSans-61" x="86.279297"/>
     <use xlink:href="#DejaVuSans-69" x="147.558594"/>
     <use xlink:href="#DejaVuSans-6e" x="175.341797"/>
     <use xlink:href="#DejaVuSans-2d" x="238.720703"/>
     <use xlink:href="#DejaVuSans-4c" x="274.804688"/>
    </g>
   </g>
   <g id="text_21">
    <!-- Main-R -->
    <g transform="translate(361.832136 121.630479)scale(0.08 -0.08)">
     <use xlink:href="#DejaVuSans-4d"/>
     <use xlink:href="#DejaVuSans-61" x="86.279297"/>
     <use xlink:href="#DejaVuSans-69" x="147.558594"/>
     <use xlink:href="#DejaVuSans-6e" x="175.341797"/>
     <use xlink:href="#DejaVuSans-2d" x="238.720703"/>
     <use xlink:href="#DejaVuSans-52" x="274.804688"/>
    </g>
   </g>
   <g id="text_22">
    <!-- AFL -->
    <g transform="translate(361.832136 103.794554)scale(0.08 -0.08)">
     <defs>
      <path id="DejaVuSans-41" d="M 2188 4044 
L 1331 1722 
L 3047 1722 
L 2188 4044 
z
M 1831 4666 
L 2547 4666 
L 4325 0 
L 3669 0 
L 3244 1197 
L 1141 1197 
L 716 0 
L 50 0 
L 1831 4666 
z
" transform="scale(0.015625)"/>
     </defs>
     <use xlink:href="#DejaVuSans-41"/>
     <use xlink:href="#DejaVuSans-46" x="68.408203"/>
     <use xlink:href="#DejaVuSans-4c" x="125.927734"/>
    </g>
   </g>
   <g id="text_23">
    <!-- AFR -->
    <g transform="translate(361.832136 103.941959)scale(0.08 -0.08)">
     <use xlink:href="#DejaVuSans-41"/>
     <use xlink:href="#DejaVuSans-46" x="68.408203"/>
     <use xlink:href="#DejaVuSans-52" x="125.927734"/>
    </g>
   </g>
   <g id="text_24">
    <!-- Nonfinal -->
    <g transform="translate(361.832136 97.308763)scale(0.08 -0.08)">
     <defs>
      <path id="DejaVuSans-4e" d="M 628 4666 
L 1478 4666 
L 3547 763 
L 3547 4666 
L 4159 4666 
L 4159 0 
L 3309 0 
L 1241 3903 
L 1241 0 
L 628 0 
L 628 4666 
z
" transform="scale(0.015625)"/>
      <path id="DejaVuSans-66" d="M 2375 4863 
L 2375 4384 
L 1825 4384 
Q 1516 4384 1395 4259 
Q 1275 4134 1275 3809 
L 1275 3500 
L 2222 3500 
L 2222 3053 
L 1275 3053 
L 1275 0 
L 697 0 
L 697 3053 
L 147 3053 
L 147 3500 
L 697 3500 
L 697 3744 
Q 697 4328 969 4595 
Q 1241 4863 1831 4863 
L 2375 4863 
z
" transform="scale(0.015625)"/>
      <path id="DejaVuSans-6c" d="M 603 4863 
L 1178 4863 
L 1178 0 
L 603 0 
L 603 4863 
z
" transform="scale(0.015625)"/>
     </defs>
     <use xlink:href="#DejaVuSans-4e"/>
     <use xlink:href="#DejaVuSans-6f" x="74.804688"/>
     <use xlink:href="#DejaVuSans-6e" x="135.986328"/>
     <use xlink:href="#DejaVuSans-66" x="199.365234"/>
     <use xlink:href="#DejaVuSans-69" x="234.570312"/>
     <use xlink:href="#DejaVuSans-6e" x="262.353516"/>
     <use xlink:href="#DejaVuSans-61" x="325.732422"/>
     <use xlink:href="#DejaVuSans-6c" x="387.011719"/>
    </g>
   </g>
   <g id="text_25">
    <!-- Trochaic -->
    <g transform="translate(361.832136 109.76443)scale(0.08 -0.08)">
     <defs>
      <path id="DejaVuSans-54" d="M -19 4666 
L 3928 4666 
L 3928 4134 
L 2272 4134 
L 2272 0 
L 1638 0 
L 1638 4134 
L -19 4134 
L -19 4666 
z
" transform="scale(0.015625)"/>
      <path id="DejaVuSans-68" d="M 3513 2113 
L 3513 0 
L 2938 0 
L 2938 2094 
Q 2938 2591 2744 2837 
Q 2550 3084 2163 3084 
Q 1697 3084 1428 2787 
Q 1159 2491 1159 1978 
L 1159 0 
L 581 0 
L 581 4863 
L 1159 4863 
L 1159 2956 
Q 1366 3272 1645 3428 
Q 1925 3584 2291 3584 
Q 2894 3584 3203 3211 
Q 3513 2838 3513 2113 
z
" transform="scale(0.015625)"/>
     </defs>
     <use xlink:href="#DejaVuSans-54"/>
     <use xlink:href="#DejaVuSans-72" x="46.333984"/>
     <use xlink:href="#DejaVuSans-6f" x="85.197266"/>
     <use xlink:href="#DejaVuSans-63" x="146.378906"/>
     <use xlink:href="#DejaVuSans-68" x="201.359375"/>
     <use xlink:href="#DejaVuSans-61" x="264.738281"/>
     <use xlink:href="#DejaVuSans-69" x="326.017578"/>
     <use xlink:href="#DejaVuSans-63" x="353.800781"/>
    </g>
   </g>
  </g>
  <g id="axes_2">
   <g id="patch_7">
    <path d="M 57.6 307.584 
L 414.72 307.584 
L 414.72 186.624 
L 57.6 186.624 
z
" style="fill: #ffffff"/>
   </g>
   <g id="matplotlib.axis_3">
    <g id="xtick_8">
     <g id="line2d_26">
      <g>
       <use xlink:href="#me04b7c53d4" x="69.445504" y="307.584" style="stroke: #000000; stroke-width: 0.8"/>
      </g>
     </g>
     <g id="text_26">
      <!-- 0 -->
      <g transform="translate(66.264254 322.182437)scale(0.1 -0.1)">
       <use xlink:href="#DejaVuSans-30"/>
      </g>
     </g>
    </g>
    <g id="xtick_9">
     <g id="line2d_27">
      <g>
       <use xlink:href="#me04b7c53d4" x="113.31774" y="307.584" style="stroke: #000000; stroke-width: 0.8"/>
      </g>
     </g>
     <g id="text_27">
      <!-- 10 -->
      <g transform="translate(106.95524 322.182437)scale(0.1 -0.1)">
       <use xlink:href="#DejaVuSans-31"/>
       <use xlink:href="#DejaVuSans-30" x="63.623047"/>
      </g>
     </g>
    </g>
    <g id="xtick_10">
     <g id="line2d_28">
      <g>
       <use xlink:href="#me04b7c53d4" x="157.189975" y="307.584" style="stroke: #000000; stroke-width: 0.8"/>
      </g>
     </g>
     <g id="text_28">
      <!-- 20 -->
      <g transform="translate(150.827475 322.182437)scale(0.1 -0.1)">
       <use xlink:href="#DejaVuSans-32"/>
       <use xlink:href="#DejaVuSans-30" x="63.623047"/>
      </g>
     </g>
    </g>
    <g id="xtick_11">
     <g id="line2d_29">
      <g>
       <use xlink:href="#me04b7c53d4" x="201.062211" y="307.584" style="stroke: #000000; stroke-width: 0.8"/>
      </g>
     </g>
     <g id="text_29">
      <!-- 30 -->
      <g transform="translate(194.699711 322.182437)scale(0.1 -0.1)">
       <use xlink:href="#DejaVuSans-33"/>
       <use xlink:href="#DejaVuSans-30" x="63.623047"/>
      </g>
     </g>
    </g>
    <g id="xtick_12">
     <g id="line2d_30">
      <g>
       <use xlink:href="#me04b7c53d4" x="244.934447" y="307.584" style="stroke: #000000; stroke-width: 0.8"/>
      </g>
     </g>
     <g id="text_30">
      <!-- 40 -->
      <g transform="translate(238.571947 322.182437)scale(0.1 -0.1)">
       <use xlink:href="#DejaVuSans-34"/>
       <use xlink:href="#DejaVuSans-30" x="63.623047"/>
      </g>
     </g>
    </g>
    <g id="xtick_13">
     <g id="line2d_31">
      <g>
       <use xlink:href="#me04b7c53d4" x="288.806683" y="307.584" style="stroke: #000000; stroke-width: 0.8"/>
      </g>
     </g>
     <g id="text_31">
      <!-- 50 -->
      <g transform="translate(282.444183 322.182437)scale(0.1 -0.1)">
       <use xlink:href="#DejaVuSans-35"/>
       <use xlink:href="#DejaVuSans-30" x="63.623047"/>
      </g>
     </g>
    </g>
    <g id="xtick_14">
     <g id="line2d_32">
      <g>
       <use xlink:href="#me04b7c53d4" x="332.678919" y="307.584" style="stroke: #000000; stroke-width: 0.8"/>
      </g>
     </g>
     <g id="text_32">
      <!-- 60 -->
      <g transform="translate(326.316419 322.182437)scale(0.1 -0.1)">
       <use xlink:href="#DejaVuSans-36"/>
       <use xlink:href="#DejaVuSans-30" x="63.623047"/>
      </g>
     </g>
    </g>
    <g id="xtick_15">
     <g id="line2d_33">
      <g>
       <use xlink:href="#me04b7c53d4" x="376.551155" y="307.584" style="stroke: #000000; stroke-width: 0.8"/>
      </g>
     </g>
     <g id="text_33">
      <!-- 70 -->
      <g transform="translate(370.188655 322.182437)scale(0.1 -0.1)">
       <defs>
        <path id="DejaVuSans-37" d="M 525 4666 
L 3525 4666 
L 3525 4397 
L 1831 0 
L 1172 0 
L 2766 4134 
L 525 4134 
L 525 4666 
z
" transform="scale(0.015625)"/>
       </defs>
       <use xlink:href="#DejaVuSans-37"/>
       <use xlink:href="#DejaVuSans-30" x="63.623047"/>
      </g>
     </g>
    </g>
   </g>
   <g id="matplotlib.axis_4">
    <g id="ytick_7">
     <g id="line2d_34">
      <g>
       <use xlink:href="#md45e171867" x="57.6" y="302.0943" style="stroke: #000000; stroke-width: 0.8"/>
      </g>
     </g>
     <g id="text_34">
      <!-- 0 -->
      <g transform="translate(44.2375 305.893519)scale(0.1 -0.1)">
       <use xlink:href="#DejaVuSans-30"/>
      </g>
     </g>
    </g>
    <g id="ytick_8">
     <g id="line2d_35">
      <g>
       <use xlink:href="#md45e171867" x="57.6" y="280.890359" style="stroke: #000000; stroke-width: 0.8"/>
      </g>
     </g>
     <g id="text_35">
      <!-- 2500 -->
      <g transform="translate(25.15 284.689578)scale(0.1 -0.1)">
       <use xlink:href="#DejaVuSans-32"/>
       <use xlink:href="#DejaVuSans-35" x="63.623047"/>
       <use xlink:href="#DejaVuSans-30" x="127.246094"/>
       <use xlink:href="#DejaVuSans-30" x="190.869141"/>
      </g>
     </g>
    </g>
    <g id="ytick_9">
     <g id="line2d_36">
      <g>
       <use xlink:href="#md45e171867" x="57.6" y="259.686418" style="stroke: #000000; stroke-width: 0.8"/>
      </g>
     </g>
     <g id="text_36">
      <!-- 5000 -->
      <g transform="translate(25.15 263.485637)scale(0.1 -0.1)">
       <use xlink:href="#DejaVuSans-35"/>
       <use xlink:href="#DejaVuSans-30" x="63.623047"/>
       <use xlink:href="#DejaVuSans-30" x="127.246094"/>
       <use xlink:href="#DejaVuSans-30" x="190.869141"/>
      </g>
     </g>
    </g>
    <g id="ytick_10">
     <g id="line2d_37">
      <g>
       <use xlink:href="#md45e171867" x="57.6" y="238.482478" style="stroke: #000000; stroke-width: 0.8"/>
      </g>
     </g>
     <g id="text_37">
      <!-- 7500 -->
      <g transform="translate(25.15 242.281696)scale(0.1 -0.1)">
       <use xlink:href="#DejaVuSans-37"/>
       <use xlink:href="#DejaVuSans-35" x="63.623047"/>
       <use xlink:href="#DejaVuSans-30" x="127.246094"/>
       <use xlink:href="#DejaVuSans-30" x="190.869141"/>
      </g>
     </g>
    </g>
    <g id="ytick_11">
     <g id="line2d_38">
      <g>
       <use xlink:href="#md45e171867" x="57.6" y="217.278537" style="stroke: #000000; stroke-width: 0.8"/>
      </g>
     </g>
     <g id="text_38">
      <!-- 10000 -->
      <g transform="translate(18.7875 221.077756)scale(0.1 -0.1)">
       <use xlink:href="#DejaVuSans-31"/>
       <use xlink:href="#DejaVuSans-30" x="63.623047"/>
       <use xlink:href="#DejaVuSans-30" x="127.246094"/>
       <use xlink:href="#DejaVuSans-30" x="190.869141"/>
       <use xlink:href="#DejaVuSans-30" x="254.492188"/>
      </g>
     </g>
    </g>
    <g id="ytick_12">
     <g id="line2d_39">
      <g>
       <use xlink:href="#md45e171867" x="57.6" y="196.074596" style="stroke: #000000; stroke-width: 0.8"/>
      </g>
     </g>
     <g id="text_39">
      <!-- 12500 -->
      <g transform="translate(18.7875 199.873815)scale(0.1 -0.1)">
       <use xlink:href="#DejaVuSans-31"/>
       <use xlink:href="#DejaVuSans-32" x="63.623047"/>
       <use xlink:href="#DejaVuSans-35" x="127.246094"/>
       <use xlink:href="#DejaVuSans-30" x="190.869141"/>
       <use xlink:href="#DejaVuSans-30" x="254.492188"/>
      </g>
     </g>
    </g>
   </g>
   <g id="line2d_40">
    <path d="M 73.832727 302.077337 
L 78.219951 302.077337 
L 82.607174 302.085818 
L 86.994398 302.068855 
L 91.381622 302.077337 
L 95.768845 302.068855 
L 100.156069 302.077337 
L 104.543292 302.077337 
L 108.930516 302.077337 
L 113.31774 302.051892 
L 117.704963 302.060373 
L 122.092187 302.077337 
L 126.47941 302.085818 
L 130.866634 302.085818 
L 135.253857 302.085818 
L 139.641081 302.085818 
L 144.028305 302.051892 
L 148.415528 302.017966 
L 152.802752 302.077337 
L 157.189975 302.001002 
L 161.577199 302.04341 
L 165.964423 302.034929 
L 170.351646 302.060373 
L 174.73887 302.04341 
L 179.126093 302.077337 
L 183.513317 302.085818 
L 187.900541 301.992521 
L 192.287764 302.051892 
L 196.674988 302.017966 
L 201.062211 301.950113 
L 205.449435 302.009484 
L 209.836658 301.984039 
L 214.223882 302.085818 
L 218.611106 301.984039 
L 222.998329 302.04341 
L 227.385553 302.068855 
L 231.772776 301.72111 
L 236.16 302.034929 
L 240.547224 301.890742 
L 244.934447 301.848334 
L 249.321671 301.967076 
L 253.708894 301.967076 
L 258.096118 301.313995 
L 262.483342 301.755037 
L 266.870565 301.958595 
L 271.257789 302.051892 
L 275.645012 301.068029 
L 280.032236 301.941631 
L 284.419459 301.967076 
L 288.806683 300.762692 
L 293.193907 298.803448 
L 297.58113 301.432737 
L 301.968354 301.61085 
L 306.355577 300.686358 
L 310.742801 302.009484 
L 315.130025 301.788963 
L 319.517248 301.797445 
L 323.904472 301.695666 
L 328.291695 301.738074 
L 332.678919 300.296206 
L 337.066143 301.059547 
L 341.453366 289.049635 
L 345.84059 299.108785 
L 350.227813 300.762692 
L 354.615037 290.36428 
L 359.00226 297.141059 
L 363.389484 297.124096 
L 367.776708 295.164852 
L 372.163931 288.10818 
L 376.551155 220.365831 
L 380.938378 192.122182 
L 385.325602 292.298079 
L 389.712826 232.180667 
L 394.100049 297.853512 
L 398.487273 272.807417 
" clip-path="url(#pd3d81a9806)" style="fill: none; stroke: #1f77b4; stroke-width: 1.5; stroke-linecap: square"/>
   </g>
   <g id="patch_8">
    <path d="M 57.6 307.584 
L 57.6 186.624 
" style="fill: none; stroke: #000000; stroke-width: 0.8; stroke-linejoin: miter; stroke-linecap: square"/>
   </g>
   <g id="patch_9">
    <path d="M 414.72 307.584 
L 414.72 186.624 
" style="fill: none; stroke: #000000; stroke-width: 0.8; stroke-linejoin: miter; stroke-linecap: square"/>
   </g>
   <g id="patch_10">
    <path d="M 57.6 307.584 
L 414.72 307.584 
" style="fill: none; stroke: #000000; stroke-width: 0.8; stroke-linejoin: miter; stroke-linecap: square"/>
   </g>
   <g id="patch_11">
    <path d="M 57.6 186.624 
L 414.72 186.624 
" style="fill: none; stroke: #000000; stroke-width: 0.8; stroke-linejoin: miter; stroke-linecap: square"/>
   </g>
  </g>
 </g>
 <defs>
  <clipPath id="p05f4ccc7b4">
   <rect x="57.6" y="41.472" width="357.12" height="120.96"/>
  </clipPath>
  <clipPath id="pd3d81a9806">
   <rect x="57.6" y="186.624" width="357.12" height="120.96"/>
  </clipPath>
 </defs>
</svg>
