<?xml version="1.0" encoding="utf-8" standalone="no"?>
<!DOCTYPE svg PUBLIC "-//W3C//DTD SVG 1.1//EN"
  "http://www.w3.org/Graphics/SVG/1.1/DTD/svg11.dtd">
<svg xmlns:xlink="http://www.w3.org/1999/xlink" width="460.8pt" height="345.6pt" viewBox="0 0 460.8 345.6" xmlns="http://www.w3.org/2000/svg" version="1.1">
 <metadata>
  <rdf:RDF xmlns:dc="http://purl.org/dc/elements/1.1/" xmlns:cc="http://creativecommons.org/ns#" xmlns:rdf="http://www.w3.org/1999/02/22-rdf-syntax-ns#">
   <cc:Work>
    <dc:type rdf:resource="http://purl.org/dc/dcmitype/StillImage"/>
    <dc:date>2022-05-14T04:32:28.969711</dc:date>
    <dc:format>image/svg+xml</dc:format>
    <dc:creator>
     <cc:Agent>
      <dc:title>Matplotlib v3.5.1, https://matplotlib.org/</dc:title>
     </cc:Agent>
    </dc:creator>
   </cc:Work>
  </rdf:RDF>
 </metadata>
 <defs>
  <style type="text/css">*{stroke-linejoin: round; stroke-linecap: butt}</style>
 </defs>
 <g id="figure_1">
  <g id="patch_1">
   <path d="M 0 345.6 
L 460.8 345.6 
L 460.8 0 
L 0 0 
z
" style="fill: #ffffff"/>
  </g>
  <g id="axes_1">
   <g id="patch_2">
    <path d="M 57.6 162.432 
L 414.72 162.432 
L 414.72 41.472 
L 57.6 41.472 
z
" style="fill: #ffffff"/>
   </g>
   <g id="matplotlib.axis_1">
    <g id="xtick_1">
     <g id="line2d_1">
      <defs>
       <path id="m12ebda1f88" d="M 0 0 
L 0 3.5 
" style="stroke: #000000; stroke-width: 0.8"/>
      </defs>
      <g>
       <use xlink:href="#m12ebda1f88" x="73.827491" y="162.432" style="stroke: #000000; stroke-width: 0.8"/>
      </g>
     </g>
     <g id="text_1">
      <!-- 0 -->
      <g transform="translate(70.646241 177.030437)scale(0.1 -0.1)">
       <defs>
        <path id="DejaVuSans-30" d="M 2034 4250 
Q 1547 4250 1301 3770 
Q 1056 3291 1056 2328 
Q 1056 1369 1301 889 
Q 1547 409 2034 409 
Q 2525 409 2770 889 
Q 3016 1369 3016 2328 
Q 3016 3291 2770 3770 
Q 2525 4250 2034 4250 
z
M 2034 4750 
Q 2819 4750 3233 4129 
Q 3647 3509 3647 2328 
Q 3647 1150 3233 529 
Q 2819 -91 2034 -91 
Q 1250 -91 836 529 
Q 422 1150 422 2328 
Q 422 3509 836 4129 
Q 1250 4750 2034 4750 
z
" transform="scale(0.015625)"/>
       </defs>
       <use xlink:href="#DejaVuSans-30"/>
      </g>
     </g>
    </g>
    <g id="xtick_2">
     <g id="line2d_2">
      <g>
       <use xlink:href="#m12ebda1f88" x="126.191972" y="162.432" style="stroke: #000000; stroke-width: 0.8"/>
      </g>
     </g>
     <g id="text_2">
      <!-- 10000 -->
      <g transform="translate(110.285722 177.030437)scale(0.1 -0.1)">
       <defs>
        <path id="DejaVuSans-31" d="M 794 531 
L 1825 531 
L 1825 4091 
L 703 3866 
L 703 4441 
L 1819 4666 
L 2450 4666 
L 2450 531 
L 3481 531 
L 3481 0 
L 794 0 
L 794 531 
z
" transform="scale(0.015625)"/>
       </defs>
       <use xlink:href="#DejaVuSans-31"/>
       <use xlink:href="#DejaVuSans-30" x="63.623047"/>
       <use xlink:href="#DejaVuSans-30" x="127.246094"/>
       <use xlink:href="#DejaVuSans-30" x="190.869141"/>
       <use xlink:href="#DejaVuSans-30" x="254.492188"/>
      </g>
     </g>
    </g>
    <g id="xtick_3">
     <g id="line2d_3">
      <g>
       <use xlink:href="#m12ebda1f88" x="178.556453" y="162.432" style="stroke: #000000; stroke-width: 0.8"/>
      </g>
     </g>
     <g id="text_3">
      <!-- 20000 -->
      <g transform="translate(162.650203 177.030437)scale(0.1 -0.1)">
       <defs>
        <path id="DejaVuSans-32" d="M 1228 531 
L 3431 531 
L 3431 0 
L 469 0 
L 469 531 
Q 828 903 1448 1529 
Q 2069 2156 2228 2338 
Q 2531 2678 2651 2914 
Q 2772 3150 2772 3378 
Q 2772 3750 2511 3984 
Q 2250 4219 1831 4219 
Q 1534 4219 1204 4116 
Q 875 4013 500 3803 
L 500 4441 
Q 881 4594 1212 4672 
Q 1544 4750 1819 4750 
Q 2544 4750 2975 4387 
Q 3406 4025 3406 3419 
Q 3406 3131 3298 2873 
Q 3191 2616 2906 2266 
Q 2828 2175 2409 1742 
Q 1991 1309 1228 531 
z
" transform="scale(0.015625)"/>
       </defs>
       <use xlink:href="#DejaVuSans-32"/>
       <use xlink:href="#DejaVuSans-30" x="63.623047"/>
       <use xlink:href="#DejaVuSans-30" x="127.246094"/>
       <use xlink:href="#DejaVuSans-30" x="190.869141"/>
       <use xlink:href="#DejaVuSans-30" x="254.492188"/>
      </g>
     </g>
    </g>
    <g id="xtick_4">
     <g id="line2d_4">
      <g>
       <use xlink:href="#m12ebda1f88" x="230.920934" y="162.432" style="stroke: #000000; stroke-width: 0.8"/>
      </g>
     </g>
     <g id="text_4">
      <!-- 30000 -->
      <g transform="translate(215.014684 177.030437)scale(0.1 -0.1)">
       <defs>
        <path id="DejaVuSans-33" d="M 2597 2516 
Q 3050 2419 3304 2112 
Q 3559 1806 3559 1356 
Q 3559 666 3084 287 
Q 2609 -91 1734 -91 
Q 1441 -91 1130 -33 
Q 819 25 488 141 
L 488 750 
Q 750 597 1062 519 
Q 1375 441 1716 441 
Q 2309 441 2620 675 
Q 2931 909 2931 1356 
Q 2931 1769 2642 2001 
Q 2353 2234 1838 2234 
L 1294 2234 
L 1294 2753 
L 1863 2753 
Q 2328 2753 2575 2939 
Q 2822 3125 2822 3475 
Q 2822 3834 2567 4026 
Q 2313 4219 1838 4219 
Q 1578 4219 1281 4162 
Q 984 4106 628 3988 
L 628 4550 
Q 988 4650 1302 4700 
Q 1616 4750 1894 4750 
Q 2613 4750 3031 4423 
Q 3450 4097 3450 3541 
Q 3450 3153 3228 2886 
Q 3006 2619 2597 2516 
z
" transform="scale(0.015625)"/>
       </defs>
       <use xlink:href="#DejaVuSans-33"/>
       <use xlink:href="#DejaVuSans-30" x="63.623047"/>
       <use xlink:href="#DejaVuSans-30" x="127.246094"/>
       <use xlink:href="#DejaVuSans-30" x="190.869141"/>
       <use xlink:href="#DejaVuSans-30" x="254.492188"/>
      </g>
     </g>
    </g>
    <g id="xtick_5">
     <g id="line2d_5">
      <g>
       <use xlink:href="#m12ebda1f88" x="283.285415" y="162.432" style="stroke: #000000; stroke-width: 0.8"/>
      </g>
     </g>
     <g id="text_5">
      <!-- 40000 -->
      <g transform="translate(267.379165 177.030437)scale(0.1 -0.1)">
       <defs>
        <path id="DejaVuSans-34" d="M 2419 4116 
L 825 1625 
L 2419 1625 
L 2419 4116 
z
M 2253 4666 
L 3047 4666 
L 3047 1625 
L 3713 1625 
L 3713 1100 
L 3047 1100 
L 3047 0 
L 2419 0 
L 2419 1100 
L 313 1100 
L 313 1709 
L 2253 4666 
z
" transform="scale(0.015625)"/>
       </defs>
       <use xlink:href="#DejaVuSans-34"/>
       <use xlink:href="#DejaVuSans-30" x="63.623047"/>
       <use xlink:href="#DejaVuSans-30" x="127.246094"/>
       <use xlink:href="#DejaVuSans-30" x="190.869141"/>
       <use xlink:href="#DejaVuSans-30" x="254.492188"/>
      </g>
     </g>
    </g>
    <g id="xtick_6">
     <g id="line2d_6">
      <g>
       <use xlink:href="#m12ebda1f88" x="335.649896" y="162.432" style="stroke: #000000; stroke-width: 0.8"/>
      </g>
     </g>
     <g id="text_6">
      <!-- 50000 -->
      <g transform="translate(319.743646 177.030437)scale(0.1 -0.1)">
       <defs>
        <path id="DejaVuSans-35" d="M 691 4666 
L 3169 4666 
L 3169 4134 
L 1269 4134 
L 1269 2991 
Q 1406 3038 1543 3061 
Q 1681 3084 1819 3084 
Q 2600 3084 3056 2656 
Q 3513 2228 3513 1497 
Q 3513 744 3044 326 
Q 2575 -91 1722 -91 
Q 1428 -91 1123 -41 
Q 819 9 494 109 
L 494 744 
Q 775 591 1075 516 
Q 1375 441 1709 441 
Q 2250 441 2565 725 
Q 2881 1009 2881 1497 
Q 2881 1984 2565 2268 
Q 2250 2553 1709 2553 
Q 1456 2553 1204 2497 
Q 953 2441 691 2322 
L 691 4666 
z
" transform="scale(0.015625)"/>
       </defs>
       <use xlink:href="#DejaVuSans-35"/>
       <use xlink:href="#DejaVuSans-30" x="63.623047"/>
       <use xlink:href="#DejaVuSans-30" x="127.246094"/>
       <use xlink:href="#DejaVuSans-30" x="190.869141"/>
       <use xlink:href="#DejaVuSans-30" x="254.492188"/>
      </g>
     </g>
    </g>
    <g id="xtick_7">
     <g id="line2d_7">
      <g>
       <use xlink:href="#m12ebda1f88" x="388.014377" y="162.432" style="stroke: #000000; stroke-width: 0.8"/>
      </g>
     </g>
     <g id="text_7">
      <!-- 60000 -->
      <g transform="translate(372.108127 177.030437)scale(0.1 -0.1)">
       <defs>
        <path id="DejaVuSans-36" d="M 2113 2584 
Q 1688 2584 1439 2293 
Q 1191 2003 1191 1497 
Q 1191 994 1439 701 
Q 1688 409 2113 409 
Q 2538 409 2786 701 
Q 3034 994 3034 1497 
Q 3034 2003 2786 2293 
Q 2538 2584 2113 2584 
z
M 3366 4563 
L 3366 3988 
Q 3128 4100 2886 4159 
Q 2644 4219 2406 4219 
Q 1781 4219 1451 3797 
Q 1122 3375 1075 2522 
Q 1259 2794 1537 2939 
Q 1816 3084 2150 3084 
Q 2853 3084 3261 2657 
Q 3669 2231 3669 1497 
Q 3669 778 3244 343 
Q 2819 -91 2113 -91 
Q 1303 -91 875 529 
Q 447 1150 447 2328 
Q 447 3434 972 4092 
Q 1497 4750 2381 4750 
Q 2619 4750 2861 4703 
Q 3103 4656 3366 4563 
z
" transform="scale(0.015625)"/>
       </defs>
       <use xlink:href="#DejaVuSans-36"/>
       <use xlink:href="#DejaVuSans-30" x="63.623047"/>
       <use xlink:href="#DejaVuSans-30" x="127.246094"/>
       <use xlink:href="#DejaVuSans-30" x="190.869141"/>
       <use xlink:href="#DejaVuSans-30" x="254.492188"/>
      </g>
     </g>
    </g>
   </g>
   <g id="matplotlib.axis_2">
    <g id="ytick_1">
     <g id="line2d_8">
      <defs>
       <path id="ma0f920d799" d="M 0 0 
L -3.5 0 
" style="stroke: #000000; stroke-width: 0.8"/>
      </defs>
      <g>
       <use xlink:href="#ma0f920d799" x="57.6" y="130.744411" style="stroke: #000000; stroke-width: 0.8"/>
      </g>
     </g>
     <g id="text_8">
      <!-- 80 -->
      <g transform="translate(37.875 134.54363)scale(0.1 -0.1)">
       <defs>
        <path id="DejaVuSans-38" d="M 2034 2216 
Q 1584 2216 1326 1975 
Q 1069 1734 1069 1313 
Q 1069 891 1326 650 
Q 1584 409 2034 409 
Q 2484 409 2743 651 
Q 3003 894 3003 1313 
Q 3003 1734 2745 1975 
Q 2488 2216 2034 2216 
z
M 1403 2484 
Q 997 2584 770 2862 
Q 544 3141 544 3541 
Q 544 4100 942 4425 
Q 1341 4750 2034 4750 
Q 2731 4750 3128 4425 
Q 3525 4100 3525 3541 
Q 3525 3141 3298 2862 
Q 3072 2584 2669 2484 
Q 3125 2378 3379 2068 
Q 3634 1759 3634 1313 
Q 3634 634 3220 271 
Q 2806 -91 2034 -91 
Q 1263 -91 848 271 
Q 434 634 434 1313 
Q 434 1759 690 2068 
Q 947 2378 1403 2484 
z
M 1172 3481 
Q 1172 3119 1398 2916 
Q 1625 2713 2034 2713 
Q 2441 2713 2670 2916 
Q 2900 3119 2900 3481 
Q 2900 3844 2670 4047 
Q 2441 4250 2034 4250 
Q 1625 4250 1398 4047 
Q 1172 3844 1172 3481 
z
" transform="scale(0.015625)"/>
       </defs>
       <use xlink:href="#DejaVuSans-38"/>
       <use xlink:href="#DejaVuSans-30" x="63.623047"/>
      </g>
     </g>
    </g>
    <g id="ytick_2">
     <g id="line2d_9">
      <g>
       <use xlink:href="#ma0f920d799" x="57.6" y="98.870893" style="stroke: #000000; stroke-width: 0.8"/>
      </g>
     </g>
     <g id="text_9">
      <!-- 90 -->
      <g transform="translate(37.875 102.670112)scale(0.1 -0.1)">
       <defs>
        <path id="DejaVuSans-39" d="M 703 97 
L 703 672 
Q 941 559 1184 500 
Q 1428 441 1663 441 
Q 2288 441 2617 861 
Q 2947 1281 2994 2138 
Q 2813 1869 2534 1725 
Q 2256 1581 1919 1581 
Q 1219 1581 811 2004 
Q 403 2428 403 3163 
Q 403 3881 828 4315 
Q 1253 4750 1959 4750 
Q 2769 4750 3195 4129 
Q 3622 3509 3622 2328 
Q 3622 1225 3098 567 
Q 2575 -91 1691 -91 
Q 1453 -91 1209 -44 
Q 966 3 703 97 
z
M 1959 2075 
Q 2384 2075 2632 2365 
Q 2881 2656 2881 3163 
Q 2881 3666 2632 3958 
Q 2384 4250 1959 4250 
Q 1534 4250 1286 3958 
Q 1038 3666 1038 3163 
Q 1038 2656 1286 2365 
Q 1534 2075 1959 2075 
z
" transform="scale(0.015625)"/>
       </defs>
       <use xlink:href="#DejaVuSans-39"/>
       <use xlink:href="#DejaVuSans-30" x="63.623047"/>
      </g>
     </g>
    </g>
    <g id="ytick_3">
     <g id="line2d_10">
      <g>
       <use xlink:href="#ma0f920d799" x="57.6" y="66.997375" style="stroke: #000000; stroke-width: 0.8"/>
      </g>
     </g>
     <g id="text_10">
      <!-- 100 -->
      <g transform="translate(31.5125 70.796594)scale(0.1 -0.1)">
       <use xlink:href="#DejaVuSans-31"/>
       <use xlink:href="#DejaVuSans-30" x="63.623047"/>
       <use xlink:href="#DejaVuSans-30" x="127.246094"/>
      </g>
     </g>
    </g>
   </g>
   <g id="line2d_11">
    <path d="M 73.832727 66.997375 
L 73.869382 79.109312 
L 73.953166 74.85951 
L 73.989821 74.85951 
L 74.110259 71.672158 
L 74.141678 71.672158 
L 74.25688 74.85951 
L 74.356372 74.85951 
L 74.47681 81.234213 
L 74.560594 78.046862 
L 74.586776 81.234213 
L 74.764815 81.234213 
L 74.880017 79.640538 
L 75.021401 79.640538 
L 75.136603 78.046862 
L 75.812105 78.046862 
L 75.84876 81.234213 
L 75.92207 79.640538 
L 75.958725 79.640538 
L 76.073927 78.046862 
L 76.304331 78.046862 
L 76.32004 81.234213 
L 76.414296 79.640538 
L 76.592335 79.640538 
L 76.712774 86.015241 
L 77.639625 86.015241 
L 77.754827 84.421565 
L 78.404146 84.421565 
L 78.519348 82.827889 
L 79.247215 82.827889 
L 79.362416 81.234213 
L 90.29612 81.234213 
L 90.411322 84.421565 
L 91.484794 84.421565 
L 91.599996 82.827889 
L 109.922328 82.827889 
L 110.037529 81.234213 
L 117.431394 81.234213 
L 117.546596 79.640538 
L 119.908234 79.640538 
L 120.023436 82.827889 
L 135.790381 82.827889 
L 135.905583 81.234213 
L 192.150272 81.234213 
L 192.265474 84.421565 
L 193.485566 84.421565 
L 193.600768 87.608917 
L 207.241715 87.608917 
L 207.356917 86.015241 
L 212.965153 86.015241 
L 213.080355 84.421565 
L 380.327271 84.421565 
L 380.442473 87.608917 
L 380.892807 87.608917 
L 381.008009 86.015241 
L 398.487273 86.015241 
L 398.487273 86.015241 
" clip-path="url(#p445c819108)" style="fill: none; stroke: #1f77b4; stroke-width: 1.5; stroke-linecap: square"/>
   </g>
   <g id="line2d_12">
    <path d="M 73.832727 70.184727 
L 73.837964 70.184727 
L 73.853673 69.547257 
L 73.885092 74.85951 
L 73.989821 83.784095 
L 74.00553 82.190419 
L 74.036949 82.190419 
L 74.063131 79.003067 
L 74.09455 88.565123 
L 74.136441 86.971447 
L 74.25688 93.34615 
L 74.356372 93.34615 
L 74.487283 90.158798 
L 74.518702 90.158798 
L 74.56583 87.502672 
L 74.581539 93.877375 
L 74.612958 93.877375 
L 74.633904 93.877375 
L 74.759579 103.439431 
L 74.764815 103.439431 
L 74.806707 101.845755 
L 74.811943 105.033107 
L 74.869544 105.033107 
L 75.021401 105.033107 
L 75.058056 103.439431 
L 75.063293 106.626783 
L 75.12613 106.626783 
L 75.581701 106.626783 
L 75.696903 109.814134 
L 75.770213 109.814134 
L 75.812105 113.001486 
L 75.880178 110.77034 
L 75.958725 110.77034 
L 76.073927 109.176664 
L 76.241493 109.176664 
L 76.304331 112.364016 
L 76.351459 109.973502 
L 76.471897 109.973502 
L 76.587099 113.160854 
L 76.686591 113.160854 
L 76.801793 112.364016 
L 76.80703 112.364016 
L 76.922232 115.551368 
L 77.267837 115.551368 
L 77.383039 118.738719 
L 77.639625 118.738719 
L 77.69199 117.145043 
L 77.697226 120.332395 
L 77.744354 120.332395 
L 78.404146 120.332395 
L 78.446038 118.738719 
L 78.461747 125.113423 
L 78.498403 125.113423 
L 79.247215 125.113423 
L 79.362416 123.519747 
L 80.011736 123.519747 
L 80.053628 122.722909 
L 80.058864 125.910261 
L 80.105992 125.910261 
L 81.854966 125.910261 
L 81.970168 129.097613 
L 90.22281 129.097613 
L 90.29612 132.284964 
L 90.332775 131.222514 
L 91.484794 131.222514 
L 91.599996 129.628838 
L 109.922328 129.628838 
L 110.037529 128.035162 
L 110.325534 128.035162 
L 110.440736 131.222514 
L 110.571647 131.222514 
L 110.686849 134.409866 
L 112.901867 134.409866 
L 113.017068 137.597217 
L 117.431394 137.597217 
L 117.546596 136.003542 
L 119.908234 136.003542 
L 120.023436 134.409866 
L 127.710542 134.409866 
L 127.825744 137.597217 
L 135.790381 137.597217 
L 135.905583 136.003542 
L 138.141546 136.003542 
L 138.256748 139.190893 
L 172.885379 139.190893 
L 173.000581 142.378245 
L 174.037398 142.378245 
L 174.1526 145.565597 
L 192.150272 145.565597 
L 192.265474 144.928126 
L 207.241715 144.928126 
L 207.356917 143.334451 
L 212.965153 143.334451 
L 213.080355 141.740775 
L 213.483562 141.740775 
L 213.598763 144.928126 
L 231.093736 144.928126 
L 231.208938 148.115478 
L 260.931018 148.115478 
L 261.04622 151.30283 
L 380.892807 151.30283 
L 381.008009 149.709154 
L 398.487273 149.709154 
L 398.487273 149.709154 
" clip-path="url(#p445c819108)" style="fill: none; stroke: #ff7f0e; stroke-width: 1.5; stroke-linecap: square"/>
   </g>
   <g id="line2d_13">
    <path d="M 73.832727 66.997375 
L 73.837964 66.997375 
L 73.953166 87.87453 
L 73.979348 86.812079 
L 73.989821 86.812079 
L 74.110259 94.249233 
L 74.136441 94.249233 
L 74.141678 93.186783 
L 74.146914 96.374134 
L 74.24117 95.311684 
L 74.356372 95.311684 
L 74.482047 104.873739 
L 74.518702 104.873739 
L 74.56583 111.248443 
L 74.633904 109.123542 
L 74.759579 105.93619 
L 74.764815 105.93619 
L 74.806707 109.123542 
L 74.87478 108.061091 
L 75.021401 108.061091 
L 75.058056 111.248443 
L 75.131366 110.185992 
L 75.581701 110.185992 
L 75.696903 109.123542 
L 75.770213 109.123542 
L 75.812105 108.061091 
L 75.853996 114.435794 
L 75.958725 114.435794 
L 76.073927 117.623146 
L 76.241493 117.623146 
L 76.304331 116.560696 
L 76.325277 122.935399 
L 76.471897 122.935399 
L 76.587099 121.872949 
L 76.686591 121.872949 
L 76.801793 125.0603 
L 76.80703 125.0603 
L 76.922232 123.99785 
L 77.267837 123.99785 
L 77.383039 122.935399 
L 77.639625 122.935399 
L 77.69199 126.122751 
L 77.74959 125.0603 
L 78.404146 125.0603 
L 78.446038 128.247652 
L 78.514112 126.122751 
L 79.247215 126.122751 
L 79.362416 129.310103 
L 80.011736 129.310103 
L 80.053628 132.497455 
L 80.121701 131.435004 
L 81.854966 131.435004 
L 81.970168 130.372553 
L 90.22281 130.372553 
L 90.29612 129.310103 
L 90.301357 132.497455 
L 90.322302 132.497455 
L 91.484794 132.497455 
L 91.599996 135.684806 
L 109.922328 135.684806 
L 110.037529 138.872158 
L 110.325534 138.872158 
L 110.440736 137.809708 
L 110.571647 137.809708 
L 110.686849 136.747257 
L 112.901867 136.747257 
L 113.017068 135.684806 
L 117.431394 135.684806 
L 117.546596 138.872158 
L 119.908234 138.872158 
L 120.023436 142.05951 
L 127.710542 142.05951 
L 127.825744 140.997059 
L 135.790381 140.997059 
L 135.905583 144.184411 
L 138.141546 144.184411 
L 138.256748 143.12196 
L 172.885379 143.12196 
L 173.000581 142.05951 
L 174.037398 142.05951 
L 174.1526 140.997059 
L 192.150272 140.997059 
L 192.265474 144.184411 
L 193.485566 144.184411 
L 193.600768 147.371763 
L 207.241715 147.371763 
L 207.356917 150.559115 
L 212.965153 150.559115 
L 213.080355 153.746466 
L 213.483562 153.746466 
L 213.598763 152.684016 
L 231.093736 152.684016 
L 231.208938 151.621565 
L 260.931018 151.621565 
L 261.04622 150.559115 
L 380.327271 150.559115 
L 380.442473 153.746466 
L 380.892807 153.746466 
L 381.008009 156.933818 
L 398.487273 156.933818 
L 398.487273 156.933818 
" clip-path="url(#p445c819108)" style="fill: none; stroke: #2ca02c; stroke-width: 1.5; stroke-linecap: square"/>
   </g>
   <g id="line2d_14">
    <path d="M 73.832727 66.997375 
L 73.848437 66.997375 
L 73.963638 66.359905 
L 74.141678 66.359905 
L 74.25688 65.563067 
L 76.686591 65.563067 
L 76.801793 68.750419 
L 398.487273 68.750419 
L 398.487273 68.750419 
" clip-path="url(#p445c819108)" style="fill: none; stroke: #d62728; stroke-width: 1.5; stroke-linecap: square"/>
   </g>
   <g id="line2d_15">
    <path d="M 73.832727 66.997375 
L 73.984584 92.49619 
L 73.989821 92.49619 
L 74.105023 95.683542 
L 74.141678 95.683542 
L 74.25688 98.870893 
L 74.356372 98.870893 
L 74.471574 102.058245 
L 76.304331 102.058245 
L 76.419533 105.245597 
L 76.592335 105.245597 
L 76.712774 111.6203 
L 119.908234 111.6203 
L 120.023436 114.807652 
L 192.150272 114.807652 
L 192.265474 117.995004 
L 380.327271 117.995004 
L 380.442473 121.182356 
L 398.487273 121.182356 
L 398.487273 121.182356 
" clip-path="url(#p445c819108)" style="fill: none; stroke: #9467bd; stroke-width: 1.5; stroke-linecap: square"/>
   </g>
   <g id="line2d_16">
    <path d="M 73.832727 66.997375 
L 73.837964 66.997375 
L 73.963638 77.090656 
L 74.105023 77.090656 
L 74.220224 76.028206 
L 74.377318 76.028206 
L 74.49252 79.215557 
L 74.675795 79.215557 
L 74.790997 78.153107 
L 75.812105 78.153107 
L 75.927307 81.340458 
L 76.592335 81.340458 
L 76.686591 80.278008 
L 76.691828 83.46536 
L 80.011736 83.46536 
L 80.126938 82.668522 
L 159.820441 82.668522 
L 159.935643 81.606071 
L 192.150272 81.606071 
L 192.265474 84.793423 
L 193.485566 84.793423 
L 193.600768 83.730972 
L 380.327271 83.730972 
L 380.442473 86.918324 
L 398.487273 86.918324 
L 398.487273 86.918324 
" clip-path="url(#p445c819108)" style="fill: none; stroke: #8c564b; stroke-width: 1.5; stroke-linecap: square"/>
   </g>
   <g id="line2d_17">
    <path d="M 73.832727 66.997375 
L 73.848437 65.297455 
L 73.885092 77.409391 
L 73.890328 77.409391 
L 74.016003 88.458877 
L 74.036949 88.458877 
L 74.136441 95.896032 
L 74.152151 94.036743 
L 74.194042 94.036743 
L 74.309244 92.974292 
L 74.356372 92.974292 
L 74.471574 92.177455 
L 74.47681 92.177455 
L 74.56583 98.552158 
L 74.592012 96.427257 
L 74.633904 96.427257 
L 74.675795 95.364806 
L 74.681032 98.552158 
L 74.738633 97.489708 
L 74.743869 97.489708 
L 74.764815 96.427257 
L 74.770051 99.614609 
L 74.848598 98.552158 
L 75.021401 98.552158 
L 75.058056 101.73951 
L 75.131366 100.677059 
L 75.581701 100.677059 
L 75.696903 99.614609 
L 75.770213 99.614609 
L 75.84876 97.914688 
L 75.853996 101.10204 
L 75.869706 101.10204 
L 75.958725 101.10204 
L 76.073927 104.289391 
L 76.241493 104.289391 
L 76.32004 102.430103 
L 76.325277 105.617455 
L 76.340986 105.617455 
L 76.471897 105.617455 
L 76.587099 104.555004 
L 76.592335 104.555004 
L 76.707537 107.742356 
L 76.80703 107.742356 
L 76.922232 106.679905 
L 77.267837 106.679905 
L 77.383039 105.617455 
L 77.639625 105.617455 
L 77.69199 108.804806 
L 77.74959 107.742356 
L 78.404146 107.742356 
L 78.446038 110.929708 
L 78.514112 108.804806 
L 79.247215 108.804806 
L 79.362416 111.992158 
L 80.011736 111.992158 
L 80.053628 115.17951 
L 80.121701 114.117059 
L 81.854966 114.117059 
L 81.970168 113.054609 
L 90.22281 113.054609 
L 90.338012 111.992158 
L 91.484794 111.992158 
L 91.599996 115.17951 
L 109.922328 115.17951 
L 110.037529 118.366862 
L 110.325534 118.366862 
L 110.440736 117.304411 
L 110.571647 117.304411 
L 110.686849 116.24196 
L 112.901867 116.24196 
L 113.017068 115.17951 
L 117.431394 115.17951 
L 117.546596 118.366862 
L 127.710542 118.366862 
L 127.825744 117.304411 
L 135.790381 117.304411 
L 135.905583 120.491763 
L 138.141546 120.491763 
L 138.256748 119.429312 
L 159.820441 119.429312 
L 159.935643 122.616664 
L 172.885379 122.616664 
L 173.000581 121.554213 
L 174.037398 121.554213 
L 174.1526 120.491763 
L 192.150272 120.491763 
L 192.265474 119.854292 
L 193.485566 119.854292 
L 193.600768 123.041644 
L 207.241715 123.041644 
L 207.356917 126.228996 
L 212.965153 126.228996 
L 213.080355 129.416348 
L 213.483562 129.416348 
L 213.598763 128.353897 
L 231.093736 128.353897 
L 231.208938 127.291447 
L 260.931018 127.291447 
L 261.04622 126.228996 
L 380.327271 126.228996 
L 380.442473 125.432158 
L 380.892807 125.432158 
L 381.008009 128.61951 
L 398.487273 128.61951 
L 398.487273 128.61951 
" clip-path="url(#p445c819108)" style="fill: none; stroke: #e377c2; stroke-width: 1.5; stroke-linecap: square"/>
   </g>
   <g id="line2d_18">
    <path d="M 73.832727 66.997375 
L 73.837964 66.997375 
L 73.958402 75.390735 
L 74.105023 75.390735 
L 74.220224 74.328285 
L 74.377318 74.328285 
L 74.49252 77.515636 
L 74.675795 77.515636 
L 74.790997 76.453186 
L 75.812105 76.453186 
L 75.927307 79.640538 
L 76.592335 79.640538 
L 76.686591 78.578087 
L 76.691828 81.765439 
L 80.011736 81.765439 
L 80.126938 80.968601 
L 159.820441 80.968601 
L 159.935643 79.90615 
L 192.150272 79.90615 
L 192.265474 83.093502 
L 193.485566 83.093502 
L 193.600768 82.031051 
L 380.327271 82.031051 
L 380.442473 85.218403 
L 398.487273 85.218403 
L 398.487273 85.218403 
" clip-path="url(#p445c819108)" style="fill: none; stroke: #7f7f7f; stroke-width: 1.5; stroke-linecap: square"/>
   </g>
   <g id="line2d_19">
    <path d="M 73.832727 66.997375 
L 73.848437 65.297455 
L 73.885092 74.22204 
L 73.890328 74.22204 
L 74.016003 85.271526 
L 74.036949 85.271526 
L 74.136441 92.70868 
L 74.152151 90.849391 
L 74.194042 90.849391 
L 74.309244 89.786941 
L 74.356372 89.786941 
L 74.47681 88.193265 
L 74.560594 94.567968 
L 74.592012 91.380617 
L 74.633904 91.380617 
L 74.675795 90.318166 
L 74.681032 93.505518 
L 74.738633 92.443067 
L 74.743869 92.443067 
L 74.764815 91.380617 
L 74.770051 94.567968 
L 74.848598 93.505518 
L 75.021401 93.505518 
L 75.058056 96.69287 
L 75.131366 95.630419 
L 75.581701 95.630419 
L 75.696903 94.567968 
L 75.770213 94.567968 
L 75.84876 92.868047 
L 75.853996 96.055399 
L 75.869706 96.055399 
L 75.958725 96.055399 
L 76.073927 99.242751 
L 76.241493 99.242751 
L 76.32004 97.383462 
L 76.325277 100.570814 
L 76.340986 100.570814 
L 76.471897 100.570814 
L 76.587099 99.508364 
L 76.592335 99.508364 
L 76.686591 102.695715 
L 76.702301 101.898877 
L 76.80703 101.898877 
L 76.922232 100.836427 
L 77.267837 100.836427 
L 77.383039 99.773976 
L 77.639625 99.773976 
L 77.69199 102.961328 
L 77.74959 101.898877 
L 78.404146 101.898877 
L 78.446038 105.086229 
L 78.514112 102.961328 
L 79.247215 102.961328 
L 79.362416 106.14868 
L 80.011736 106.14868 
L 80.053628 109.336032 
L 80.121701 108.273581 
L 81.854966 108.273581 
L 81.970168 107.21113 
L 90.22281 107.21113 
L 90.343248 105.086229 
L 91.484794 105.086229 
L 91.599996 108.273581 
L 109.922328 108.273581 
L 110.037529 111.460933 
L 110.325534 111.460933 
L 110.440736 110.398482 
L 110.571647 110.398482 
L 110.686849 109.336032 
L 112.901867 109.336032 
L 113.017068 108.273581 
L 117.431394 108.273581 
L 117.546596 111.460933 
L 127.710542 111.460933 
L 127.825744 110.398482 
L 135.790381 110.398482 
L 135.905583 113.585834 
L 138.141546 113.585834 
L 138.256748 112.523383 
L 159.820441 112.523383 
L 159.935643 115.710735 
L 172.885379 115.710735 
L 173.000581 114.648285 
L 174.037398 114.648285 
L 174.1526 113.585834 
L 192.150272 113.585834 
L 192.265474 112.948364 
L 207.241715 112.948364 
L 207.356917 116.135715 
L 212.965153 116.135715 
L 213.080355 119.323067 
L 213.483562 119.323067 
L 213.598763 118.260617 
L 231.093736 118.260617 
L 231.208938 117.198166 
L 260.931018 117.198166 
L 261.04622 116.135715 
L 380.327271 116.135715 
L 380.442473 115.338877 
L 380.892807 115.338877 
L 381.008009 118.526229 
L 398.487273 118.526229 
L 398.487273 118.526229 
" clip-path="url(#p445c819108)" style="fill: none; stroke: #bcbd22; stroke-width: 1.5; stroke-linecap: square"/>
   </g>
   <g id="line2d_20">
    <path d="M 73.832727 66.997375 
L 73.869382 62.163225 
L 73.963638 62.853818 
L 74.105023 62.853818 
L 74.220224 60.99453 
L 74.356372 60.99453 
L 74.47681 59.400854 
L 74.560594 59.400854 
L 74.681032 57.275953 
L 75.812105 57.275953 
L 75.927307 56.638482 
L 76.304331 56.638482 
L 76.419533 55.841644 
L 76.592335 55.841644 
L 76.707537 53.982356 
L 80.011736 53.982356 
L 80.126938 53.185518 
L 90.29612 53.185518 
L 90.411322 52.123067 
L 119.908234 52.123067 
L 120.023436 50.529391 
L 159.820441 50.529391 
L 159.935643 49.466941 
L 192.150272 49.466941 
L 192.265474 48.82947 
L 193.485566 48.82947 
L 193.600768 47.76702 
L 380.327271 47.76702 
L 380.442473 46.970182 
L 398.487273 46.970182 
L 398.487273 46.970182 
" clip-path="url(#p445c819108)" style="fill: none; stroke: #17becf; stroke-width: 1.5; stroke-linecap: square"/>
   </g>
   <g id="line2d_21">
    <path d="M 73.832727 66.997375 
L 73.837964 66.997375 
L 73.853673 66.359905 
L 73.885092 71.034688 
L 73.890328 71.034688 
L 73.926983 74.22204 
L 74.00553 73.584569 
L 74.105023 73.584569 
L 74.220224 76.771921 
L 74.377318 76.771921 
L 74.49252 75.975083 
L 74.675795 75.975083 
L 74.790997 79.162435 
L 75.812105 79.162435 
L 75.927307 78.524964 
L 76.592335 78.524964 
L 76.686591 81.712316 
L 76.702301 80.915478 
L 80.011736 80.915478 
L 80.126938 84.10283 
L 159.820441 84.10283 
L 159.935643 87.290182 
L 192.150272 87.290182 
L 192.265474 86.652711 
L 193.485566 86.652711 
L 193.600768 89.840063 
L 380.327271 89.840063 
L 380.442473 89.043225 
L 398.487273 89.043225 
L 398.487273 89.043225 
" clip-path="url(#p445c819108)" style="fill: none; stroke: #1f77b4; stroke-width: 1.5; stroke-linecap: square"/>
   </g>
   <g id="line2d_22">
    <path d="M 73.832727 63.810024 
L 73.869382 75.125123 
L 73.953166 70.87532 
L 74.063131 70.87532 
L 74.178333 67.687968 
L 74.356372 67.687968 
L 74.471574 70.87532 
L 76.304331 70.87532 
L 76.419533 74.062672 
L 90.29612 74.062672 
L 90.411322 77.250024 
L 398.487273 77.250024 
L 398.487273 77.250024 
" clip-path="url(#p445c819108)" style="fill: none; stroke: #ff7f0e; stroke-width: 1.5; stroke-linecap: square"/>
   </g>
   <g id="patch_3">
    <path d="M 57.6 162.432 
L 57.6 41.472 
" style="fill: none; stroke: #000000; stroke-width: 0.8; stroke-linejoin: miter; stroke-linecap: square"/>
   </g>
   <g id="patch_4">
    <path d="M 414.72 162.432 
L 414.72 41.472 
" style="fill: none; stroke: #000000; stroke-width: 0.8; stroke-linejoin: miter; stroke-linecap: square"/>
   </g>
   <g id="patch_5">
    <path d="M 57.6 162.432 
L 414.72 162.432 
" style="fill: none; stroke: #000000; stroke-width: 0.8; stroke-linejoin: miter; stroke-linecap: square"/>
   </g>
   <g id="patch_6">
    <path d="M 57.6 41.472 
L 414.72 41.472 
" style="fill: none; stroke: #000000; stroke-width: 0.8; stroke-linejoin: miter; stroke-linecap: square"/>
   </g>
   <g id="text_11">
    <!-- WSP -->
    <g transform="translate(361.832136 86.015241)scale(0.08 -0.08)">
     <defs>
      <path id="DejaVuSans-57" d="M 213 4666 
L 850 4666 
L 1831 722 
L 2809 4666 
L 3519 4666 
L 4500 722 
L 5478 4666 
L 6119 4666 
L 4947 0 
L 4153 0 
L 3169 4050 
L 2175 0 
L 1381 0 
L 213 4666 
z
" transform="scale(0.015625)"/>
      <path id="DejaVuSans-53" d="M 3425 4513 
L 3425 3897 
Q 3066 4069 2747 4153 
Q 2428 4238 2131 4238 
Q 1616 4238 1336 4038 
Q 1056 3838 1056 3469 
Q 1056 3159 1242 3001 
Q 1428 2844 1947 2747 
L 2328 2669 
Q 3034 2534 3370 2195 
Q 3706 1856 3706 1288 
Q 3706 609 3251 259 
Q 2797 -91 1919 -91 
Q 1588 -91 1214 -16 
Q 841 59 441 206 
L 441 856 
Q 825 641 1194 531 
Q 1563 422 1919 422 
Q 2459 422 2753 634 
Q 3047 847 3047 1241 
Q 3047 1584 2836 1778 
Q 2625 1972 2144 2069 
L 1759 2144 
Q 1053 2284 737 2584 
Q 422 2884 422 3419 
Q 422 4038 858 4394 
Q 1294 4750 2059 4750 
Q 2388 4750 2728 4690 
Q 3069 4631 3425 4513 
z
" transform="scale(0.015625)"/>
      <path id="DejaVuSans-50" d="M 1259 4147 
L 1259 2394 
L 2053 2394 
Q 2494 2394 2734 2622 
Q 2975 2850 2975 3272 
Q 2975 3691 2734 3919 
Q 2494 4147 2053 4147 
L 1259 4147 
z
M 628 4666 
L 2053 4666 
Q 2838 4666 3239 4311 
Q 3641 3956 3641 3272 
Q 3641 2581 3239 2228 
Q 2838 1875 2053 1875 
L 1259 1875 
L 1259 0 
L 628 0 
L 628 4666 
z
" transform="scale(0.015625)"/>
     </defs>
     <use xlink:href="#DejaVuSans-57"/>
     <use xlink:href="#DejaVuSans-53" x="98.876953"/>
     <use xlink:href="#DejaVuSans-50" x="162.353516"/>
    </g>
   </g>
   <g id="text_12">
    <!-- Iambic -->
    <g transform="translate(361.832136 149.709154)scale(0.08 -0.08)">
     <defs>
      <path id="DejaVuSans-49" d="M 628 4666 
L 1259 4666 
L 1259 0 
L 628 0 
L 628 4666 
z
" transform="scale(0.015625)"/>
      <path id="DejaVuSans-61" d="M 2194 1759 
Q 1497 1759 1228 1600 
Q 959 1441 959 1056 
Q 959 750 1161 570 
Q 1363 391 1709 391 
Q 2188 391 2477 730 
Q 2766 1069 2766 1631 
L 2766 1759 
L 2194 1759 
z
M 3341 1997 
L 3341 0 
L 2766 0 
L 2766 531 
Q 2569 213 2275 61 
Q 1981 -91 1556 -91 
Q 1019 -91 701 211 
Q 384 513 384 1019 
Q 384 1609 779 1909 
Q 1175 2209 1959 2209 
L 2766 2209 
L 2766 2266 
Q 2766 2663 2505 2880 
Q 2244 3097 1772 3097 
Q 1472 3097 1187 3025 
Q 903 2953 641 2809 
L 641 3341 
Q 956 3463 1253 3523 
Q 1550 3584 1831 3584 
Q 2591 3584 2966 3190 
Q 3341 2797 3341 1997 
z
" transform="scale(0.015625)"/>
      <path id="DejaVuSans-6d" d="M 3328 2828 
Q 3544 3216 3844 3400 
Q 4144 3584 4550 3584 
Q 5097 3584 5394 3201 
Q 5691 2819 5691 2113 
L 5691 0 
L 5113 0 
L 5113 2094 
Q 5113 2597 4934 2840 
Q 4756 3084 4391 3084 
Q 3944 3084 3684 2787 
Q 3425 2491 3425 1978 
L 3425 0 
L 2847 0 
L 2847 2094 
Q 2847 2600 2669 2842 
Q 2491 3084 2119 3084 
Q 1678 3084 1418 2786 
Q 1159 2488 1159 1978 
L 1159 0 
L 581 0 
L 581 3500 
L 1159 3500 
L 1159 2956 
Q 1356 3278 1631 3431 
Q 1906 3584 2284 3584 
Q 2666 3584 2933 3390 
Q 3200 3197 3328 2828 
z
" transform="scale(0.015625)"/>
      <path id="DejaVuSans-62" d="M 3116 1747 
Q 3116 2381 2855 2742 
Q 2594 3103 2138 3103 
Q 1681 3103 1420 2742 
Q 1159 2381 1159 1747 
Q 1159 1113 1420 752 
Q 1681 391 2138 391 
Q 2594 391 2855 752 
Q 3116 1113 3116 1747 
z
M 1159 2969 
Q 1341 3281 1617 3432 
Q 1894 3584 2278 3584 
Q 2916 3584 3314 3078 
Q 3713 2572 3713 1747 
Q 3713 922 3314 415 
Q 2916 -91 2278 -91 
Q 1894 -91 1617 61 
Q 1341 213 1159 525 
L 1159 0 
L 581 0 
L 581 4863 
L 1159 4863 
L 1159 2969 
z
" transform="scale(0.015625)"/>
      <path id="DejaVuSans-69" d="M 603 3500 
L 1178 3500 
L 1178 0 
L 603 0 
L 603 3500 
z
M 603 4863 
L 1178 4863 
L 1178 4134 
L 603 4134 
L 603 4863 
z
" transform="scale(0.015625)"/>
      <path id="DejaVuSans-63" d="M 3122 3366 
L 3122 2828 
Q 2878 2963 2633 3030 
Q 2388 3097 2138 3097 
Q 1578 3097 1268 2742 
Q 959 2388 959 1747 
Q 959 1106 1268 751 
Q 1578 397 2138 397 
Q 2388 397 2633 464 
Q 2878 531 3122 666 
L 3122 134 
Q 2881 22 2623 -34 
Q 2366 -91 2075 -91 
Q 1284 -91 818 406 
Q 353 903 353 1747 
Q 353 2603 823 3093 
Q 1294 3584 2113 3584 
Q 2378 3584 2631 3529 
Q 2884 3475 3122 3366 
z
" transform="scale(0.015625)"/>
     </defs>
     <use xlink:href="#DejaVuSans-49"/>
     <use xlink:href="#DejaVuSans-61" x="29.492188"/>
     <use xlink:href="#DejaVuSans-6d" x="90.771484"/>
     <use xlink:href="#DejaVuSans-62" x="188.183594"/>
     <use xlink:href="#DejaVuSans-69" x="251.660156"/>
     <use xlink:href="#DejaVuSans-63" x="279.443359"/>
    </g>
   </g>
   <g id="text_13">
    <!-- Parse -->
    <g transform="translate(361.832136 156.933818)scale(0.08 -0.08)">
     <defs>
      <path id="DejaVuSans-72" d="M 2631 2963 
Q 2534 3019 2420 3045 
Q 2306 3072 2169 3072 
Q 1681 3072 1420 2755 
Q 1159 2438 1159 1844 
L 1159 0 
L 581 0 
L 581 3500 
L 1159 3500 
L 1159 2956 
Q 1341 3275 1631 3429 
Q 1922 3584 2338 3584 
Q 2397 3584 2469 3576 
Q 2541 3569 2628 3553 
L 2631 2963 
z
" transform="scale(0.015625)"/>
      <path id="DejaVuSans-73" d="M 2834 3397 
L 2834 2853 
Q 2591 2978 2328 3040 
Q 2066 3103 1784 3103 
Q 1356 3103 1142 2972 
Q 928 2841 928 2578 
Q 928 2378 1081 2264 
Q 1234 2150 1697 2047 
L 1894 2003 
Q 2506 1872 2764 1633 
Q 3022 1394 3022 966 
Q 3022 478 2636 193 
Q 2250 -91 1575 -91 
Q 1294 -91 989 -36 
Q 684 19 347 128 
L 347 722 
Q 666 556 975 473 
Q 1284 391 1588 391 
Q 1994 391 2212 530 
Q 2431 669 2431 922 
Q 2431 1156 2273 1281 
Q 2116 1406 1581 1522 
L 1381 1569 
Q 847 1681 609 1914 
Q 372 2147 372 2553 
Q 372 3047 722 3315 
Q 1072 3584 1716 3584 
Q 2034 3584 2315 3537 
Q 2597 3491 2834 3397 
z
" transform="scale(0.015625)"/>
      <path id="DejaVuSans-65" d="M 3597 1894 
L 3597 1613 
L 953 1613 
Q 991 1019 1311 708 
Q 1631 397 2203 397 
Q 2534 397 2845 478 
Q 3156 559 3463 722 
L 3463 178 
Q 3153 47 2828 -22 
Q 2503 -91 2169 -91 
Q 1331 -91 842 396 
Q 353 884 353 1716 
Q 353 2575 817 3079 
Q 1281 3584 2069 3584 
Q 2775 3584 3186 3129 
Q 3597 2675 3597 1894 
z
M 3022 2063 
Q 3016 2534 2758 2815 
Q 2500 3097 2075 3097 
Q 1594 3097 1305 2825 
Q 1016 2553 972 2059 
L 3022 2063 
z
" transform="scale(0.015625)"/>
     </defs>
     <use xlink:href="#DejaVuSans-50"/>
     <use xlink:href="#DejaVuSans-61" x="55.802734"/>
     <use xlink:href="#DejaVuSans-72" x="117.082031"/>
     <use xlink:href="#DejaVuSans-73" x="158.195312"/>
     <use xlink:href="#DejaVuSans-65" x="210.294922"/>
    </g>
   </g>
   <g id="text_14">
    <!-- FootBin -->
    <g transform="translate(361.832136 68.750419)scale(0.08 -0.08)">
     <defs>
      <path id="DejaVuSans-46" d="M 628 4666 
L 3309 4666 
L 3309 4134 
L 1259 4134 
L 1259 2759 
L 3109 2759 
L 3109 2228 
L 1259 2228 
L 1259 0 
L 628 0 
L 628 4666 
z
" transform="scale(0.015625)"/>
      <path id="DejaVuSans-6f" d="M 1959 3097 
Q 1497 3097 1228 2736 
Q 959 2375 959 1747 
Q 959 1119 1226 758 
Q 1494 397 1959 397 
Q 2419 397 2687 759 
Q 2956 1122 2956 1747 
Q 2956 2369 2687 2733 
Q 2419 3097 1959 3097 
z
M 1959 3584 
Q 2709 3584 3137 3096 
Q 3566 2609 3566 1747 
Q 3566 888 3137 398 
Q 2709 -91 1959 -91 
Q 1206 -91 779 398 
Q 353 888 353 1747 
Q 353 2609 779 3096 
Q 1206 3584 1959 3584 
z
" transform="scale(0.015625)"/>
      <path id="DejaVuSans-74" d="M 1172 4494 
L 1172 3500 
L 2356 3500 
L 2356 3053 
L 1172 3053 
L 1172 1153 
Q 1172 725 1289 603 
Q 1406 481 1766 481 
L 2356 481 
L 2356 0 
L 1766 0 
Q 1100 0 847 248 
Q 594 497 594 1153 
L 594 3053 
L 172 3053 
L 172 3500 
L 594 3500 
L 594 4494 
L 1172 4494 
z
" transform="scale(0.015625)"/>
      <path id="DejaVuSans-42" d="M 1259 2228 
L 1259 519 
L 2272 519 
Q 2781 519 3026 730 
Q 3272 941 3272 1375 
Q 3272 1813 3026 2020 
Q 2781 2228 2272 2228 
L 1259 2228 
z
M 1259 4147 
L 1259 2741 
L 2194 2741 
Q 2656 2741 2882 2914 
Q 3109 3088 3109 3444 
Q 3109 3797 2882 3972 
Q 2656 4147 2194 4147 
L 1259 4147 
z
M 628 4666 
L 2241 4666 
Q 2963 4666 3353 4366 
Q 3744 4066 3744 3513 
Q 3744 3084 3544 2831 
Q 3344 2578 2956 2516 
Q 3422 2416 3680 2098 
Q 3938 1781 3938 1306 
Q 3938 681 3513 340 
Q 3088 0 2303 0 
L 628 0 
L 628 4666 
z
" transform="scale(0.015625)"/>
      <path id="DejaVuSans-6e" d="M 3513 2113 
L 3513 0 
L 2938 0 
L 2938 2094 
Q 2938 2591 2744 2837 
Q 2550 3084 2163 3084 
Q 1697 3084 1428 2787 
Q 1159 2491 1159 1978 
L 1159 0 
L 581 0 
L 581 3500 
L 1159 3500 
L 1159 2956 
Q 1366 3272 1645 3428 
Q 1925 3584 2291 3584 
Q 2894 3584 3203 3211 
Q 3513 2838 3513 2113 
z
" transform="scale(0.015625)"/>
     </defs>
     <use xlink:href="#DejaVuSans-46"/>
     <use xlink:href="#DejaVuSans-6f" x="53.894531"/>
     <use xlink:href="#DejaVuSans-6f" x="115.076172"/>
     <use xlink:href="#DejaVuSans-74" x="176.257812"/>
     <use xlink:href="#DejaVuSans-42" x="215.466797"/>
     <use xlink:href="#DejaVuSans-69" x="284.070312"/>
     <use xlink:href="#DejaVuSans-6e" x="311.853516"/>
    </g>
   </g>
   <g id="text_15">
    <!-- WFL -->
    <g transform="translate(361.832136 121.182356)scale(0.08 -0.08)">
     <defs>
      <path id="DejaVuSans-4c" d="M 628 4666 
L 1259 4666 
L 1259 531 
L 3531 531 
L 3531 0 
L 628 0 
L 628 4666 
z
" transform="scale(0.015625)"/>
     </defs>
     <use xlink:href="#DejaVuSans-57"/>
     <use xlink:href="#DejaVuSans-46" x="98.876953"/>
     <use xlink:href="#DejaVuSans-4c" x="156.396484"/>
    </g>
   </g>
   <g id="text_16">
    <!-- WFR -->
    <g transform="translate(361.832136 86.918324)scale(0.08 -0.08)">
     <defs>
      <path id="DejaVuSans-52" d="M 2841 2188 
Q 3044 2119 3236 1894 
Q 3428 1669 3622 1275 
L 4263 0 
L 3584 0 
L 2988 1197 
Q 2756 1666 2539 1819 
Q 2322 1972 1947 1972 
L 1259 1972 
L 1259 0 
L 628 0 
L 628 4666 
L 2053 4666 
Q 2853 4666 3247 4331 
Q 3641 3997 3641 3322 
Q 3641 2881 3436 2590 
Q 3231 2300 2841 2188 
z
M 1259 4147 
L 1259 2491 
L 2053 2491 
Q 2509 2491 2742 2702 
Q 2975 2913 2975 3322 
Q 2975 3731 2742 3939 
Q 2509 4147 2053 4147 
L 1259 4147 
z
" transform="scale(0.015625)"/>
     </defs>
     <use xlink:href="#DejaVuSans-57"/>
     <use xlink:href="#DejaVuSans-46" x="98.876953"/>
     <use xlink:href="#DejaVuSans-52" x="156.396484"/>
    </g>
   </g>
   <g id="text_17">
    <!-- Main-L -->
    <g transform="translate(361.832136 128.61951)scale(0.08 -0.08)">
     <defs>
      <path id="DejaVuSans-4d" d="M 628 4666 
L 1569 4666 
L 2759 1491 
L 3956 4666 
L 4897 4666 
L 4897 0 
L 4281 0 
L 4281 4097 
L 3078 897 
L 2444 897 
L 1241 4097 
L 1241 0 
L 628 0 
L 628 4666 
z
" transform="scale(0.015625)"/>
      <path id="DejaVuSans-2d" d="M 313 2009 
L 1997 2009 
L 1997 1497 
L 313 1497 
L 313 2009 
z
" transform="scale(0.015625)"/>
     </defs>
     <use xlink:href="#DejaVuSans-4d"/>
     <use xlink:href="#DejaVuSans-61" x="86.279297"/>
     <use xlink:href="#DejaVuSans-69" x="147.558594"/>
     <use xlink:href="#DejaVuSans-6e" x="175.341797"/>
     <use xlink:href="#DejaVuSans-2d" x="238.720703"/>
     <use xlink:href="#DejaVuSans-4c" x="274.804688"/>
    </g>
   </g>
   <g id="text_18">
    <!-- Main-R -->
    <g transform="translate(361.832136 85.218403)scale(0.08 -0.08)">
     <use xlink:href="#DejaVuSans-4d"/>
     <use xlink:href="#DejaVuSans-61" x="86.279297"/>
     <use xlink:href="#DejaVuSans-69" x="147.558594"/>
     <use xlink:href="#DejaVuSans-6e" x="175.341797"/>
     <use xlink:href="#DejaVuSans-2d" x="238.720703"/>
     <use xlink:href="#DejaVuSans-52" x="274.804688"/>
    </g>
   </g>
   <g id="text_19">
    <!-- AFL -->
    <g transform="translate(361.832136 118.526229)scale(0.08 -0.08)">
     <defs>
      <path id="DejaVuSans-41" d="M 2188 4044 
L 1331 1722 
L 3047 1722 
L 2188 4044 
z
M 1831 4666 
L 2547 4666 
L 4325 0 
L 3669 0 
L 3244 1197 
L 1141 1197 
L 716 0 
L 50 0 
L 1831 4666 
z
" transform="scale(0.015625)"/>
     </defs>
     <use xlink:href="#DejaVuSans-41"/>
     <use xlink:href="#DejaVuSans-46" x="68.408203"/>
     <use xlink:href="#DejaVuSans-4c" x="125.927734"/>
    </g>
   </g>
   <g id="text_20">
    <!-- AFR -->
    <g transform="translate(361.832136 46.970182)scale(0.08 -0.08)">
     <use xlink:href="#DejaVuSans-41"/>
     <use xlink:href="#DejaVuSans-46" x="68.408203"/>
     <use xlink:href="#DejaVuSans-52" x="125.927734"/>
    </g>
   </g>
   <g id="text_21">
    <!-- Nonfinal -->
    <g transform="translate(361.832136 89.043225)scale(0.08 -0.08)">
     <defs>
      <path id="DejaVuSans-4e" d="M 628 4666 
L 1478 4666 
L 3547 763 
L 3547 4666 
L 4159 4666 
L 4159 0 
L 3309 0 
L 1241 3903 
L 1241 0 
L 628 0 
L 628 4666 
z
" transform="scale(0.015625)"/>
      <path id="DejaVuSans-66" d="M 2375 4863 
L 2375 4384 
L 1825 4384 
Q 1516 4384 1395 4259 
Q 1275 4134 1275 3809 
L 1275 3500 
L 2222 3500 
L 2222 3053 
L 1275 3053 
L 1275 0 
L 697 0 
L 697 3053 
L 147 3053 
L 147 3500 
L 697 3500 
L 697 3744 
Q 697 4328 969 4595 
Q 1241 4863 1831 4863 
L 2375 4863 
z
" transform="scale(0.015625)"/>
      <path id="DejaVuSans-6c" d="M 603 4863 
L 1178 4863 
L 1178 0 
L 603 0 
L 603 4863 
z
" transform="scale(0.015625)"/>
     </defs>
     <use xlink:href="#DejaVuSans-4e"/>
     <use xlink:href="#DejaVuSans-6f" x="74.804688"/>
     <use xlink:href="#DejaVuSans-6e" x="135.986328"/>
     <use xlink:href="#DejaVuSans-66" x="199.365234"/>
     <use xlink:href="#DejaVuSans-69" x="234.570312"/>
     <use xlink:href="#DejaVuSans-6e" x="262.353516"/>
     <use xlink:href="#DejaVuSans-61" x="325.732422"/>
     <use xlink:href="#DejaVuSans-6c" x="387.011719"/>
    </g>
   </g>
   <g id="text_22">
    <!-- Trochaic -->
    <g transform="translate(361.832136 77.250024)scale(0.08 -0.08)">
     <defs>
      <path id="DejaVuSans-54" d="M -19 4666 
L 3928 4666 
L 3928 4134 
L 2272 4134 
L 2272 0 
L 1638 0 
L 1638 4134 
L -19 4134 
L -19 4666 
z
" transform="scale(0.015625)"/>
      <path id="DejaVuSans-68" d="M 3513 2113 
L 3513 0 
L 2938 0 
L 2938 2094 
Q 2938 2591 2744 2837 
Q 2550 3084 2163 3084 
Q 1697 3084 1428 2787 
Q 1159 2491 1159 1978 
L 1159 0 
L 581 0 
L 581 4863 
L 1159 4863 
L 1159 2956 
Q 1366 3272 1645 3428 
Q 1925 3584 2291 3584 
Q 2894 3584 3203 3211 
Q 3513 2838 3513 2113 
z
" transform="scale(0.015625)"/>
     </defs>
     <use xlink:href="#DejaVuSans-54"/>
     <use xlink:href="#DejaVuSans-72" x="46.333984"/>
     <use xlink:href="#DejaVuSans-6f" x="85.197266"/>
     <use xlink:href="#DejaVuSans-63" x="146.378906"/>
     <use xlink:href="#DejaVuSans-68" x="201.359375"/>
     <use xlink:href="#DejaVuSans-61" x="264.738281"/>
     <use xlink:href="#DejaVuSans-69" x="326.017578"/>
     <use xlink:href="#DejaVuSans-63" x="353.800781"/>
    </g>
   </g>
  </g>
  <g id="axes_2">
   <g id="patch_7">
    <path d="M 57.6 307.584 
L 414.72 307.584 
L 414.72 186.624 
L 57.6 186.624 
z
" style="fill: #ffffff"/>
   </g>
   <g id="matplotlib.axis_3">
    <g id="xtick_8">
     <g id="line2d_23">
      <g>
       <use xlink:href="#m12ebda1f88" x="70.057674" y="307.584" style="stroke: #000000; stroke-width: 0.8"/>
      </g>
     </g>
     <g id="text_23">
      <!-- 0 -->
      <g transform="translate(66.876424 322.182437)scale(0.1 -0.1)">
       <use xlink:href="#DejaVuSans-30"/>
      </g>
     </g>
    </g>
    <g id="xtick_9">
     <g id="line2d_24">
      <g>
       <use xlink:href="#m12ebda1f88" x="145.558732" y="307.584" style="stroke: #000000; stroke-width: 0.8"/>
      </g>
     </g>
     <g id="text_24">
      <!-- 20 -->
      <g transform="translate(139.196232 322.182437)scale(0.1 -0.1)">
       <use xlink:href="#DejaVuSans-32"/>
       <use xlink:href="#DejaVuSans-30" x="63.623047"/>
      </g>
     </g>
    </g>
    <g id="xtick_10">
     <g id="line2d_25">
      <g>
       <use xlink:href="#m12ebda1f88" x="221.059789" y="307.584" style="stroke: #000000; stroke-width: 0.8"/>
      </g>
     </g>
     <g id="text_25">
      <!-- 40 -->
      <g transform="translate(214.697289 322.182437)scale(0.1 -0.1)">
       <use xlink:href="#DejaVuSans-34"/>
       <use xlink:href="#DejaVuSans-30" x="63.623047"/>
      </g>
     </g>
    </g>
    <g id="xtick_11">
     <g id="line2d_26">
      <g>
       <use xlink:href="#m12ebda1f88" x="296.560846" y="307.584" style="stroke: #000000; stroke-width: 0.8"/>
      </g>
     </g>
     <g id="text_26">
      <!-- 60 -->
      <g transform="translate(290.198346 322.182437)scale(0.1 -0.1)">
       <use xlink:href="#DejaVuSans-36"/>
       <use xlink:href="#DejaVuSans-30" x="63.623047"/>
      </g>
     </g>
    </g>
    <g id="xtick_12">
     <g id="line2d_27">
      <g>
       <use xlink:href="#m12ebda1f88" x="372.061903" y="307.584" style="stroke: #000000; stroke-width: 0.8"/>
      </g>
     </g>
     <g id="text_27">
      <!-- 80 -->
      <g transform="translate(365.699403 322.182437)scale(0.1 -0.1)">
       <use xlink:href="#DejaVuSans-38"/>
       <use xlink:href="#DejaVuSans-30" x="63.623047"/>
      </g>
     </g>
    </g>
   </g>
   <g id="matplotlib.axis_4">
    <g id="ytick_4">
     <g id="line2d_28">
      <g>
       <use xlink:href="#ma0f920d799" x="57.6" y="302.090641" style="stroke: #000000; stroke-width: 0.8"/>
      </g>
     </g>
     <g id="text_28">
      <!-- 0 -->
      <g transform="translate(44.2375 305.88986)scale(0.1 -0.1)">
       <use xlink:href="#DejaVuSans-30"/>
      </g>
     </g>
    </g>
    <g id="ytick_5">
     <g id="line2d_29">
      <g>
       <use xlink:href="#ma0f920d799" x="57.6" y="277.975809" style="stroke: #000000; stroke-width: 0.8"/>
      </g>
     </g>
     <g id="text_29">
      <!-- 5000 -->
      <g transform="translate(25.15 281.775027)scale(0.1 -0.1)">
       <use xlink:href="#DejaVuSans-35"/>
       <use xlink:href="#DejaVuSans-30" x="63.623047"/>
       <use xlink:href="#DejaVuSans-30" x="127.246094"/>
       <use xlink:href="#DejaVuSans-30" x="190.869141"/>
      </g>
     </g>
    </g>
    <g id="ytick_6">
     <g id="line2d_30">
      <g>
       <use xlink:href="#ma0f920d799" x="57.6" y="253.860976" style="stroke: #000000; stroke-width: 0.8"/>
      </g>
     </g>
     <g id="text_30">
      <!-- 10000 -->
      <g transform="translate(18.7875 257.660195)scale(0.1 -0.1)">
       <use xlink:href="#DejaVuSans-31"/>
       <use xlink:href="#DejaVuSans-30" x="63.623047"/>
       <use xlink:href="#DejaVuSans-30" x="127.246094"/>
       <use xlink:href="#DejaVuSans-30" x="190.869141"/>
       <use xlink:href="#DejaVuSans-30" x="254.492188"/>
      </g>
     </g>
    </g>
    <g id="ytick_7">
     <g id="line2d_31">
      <g>
       <use xlink:href="#ma0f920d799" x="57.6" y="229.746144" style="stroke: #000000; stroke-width: 0.8"/>
      </g>
     </g>
     <g id="text_31">
      <!-- 15000 -->
      <g transform="translate(18.7875 233.545362)scale(0.1 -0.1)">
       <use xlink:href="#DejaVuSans-31"/>
       <use xlink:href="#DejaVuSans-35" x="63.623047"/>
       <use xlink:href="#DejaVuSans-30" x="127.246094"/>
       <use xlink:href="#DejaVuSans-30" x="190.869141"/>
       <use xlink:href="#DejaVuSans-30" x="254.492188"/>
      </g>
     </g>
    </g>
    <g id="ytick_8">
     <g id="line2d_32">
      <g>
       <use xlink:href="#ma0f920d799" x="57.6" y="205.631311" style="stroke: #000000; stroke-width: 0.8"/>
      </g>
     </g>
     <g id="text_32">
      <!-- 20000 -->
      <g transform="translate(18.7875 209.43053)scale(0.1 -0.1)">
       <use xlink:href="#DejaVuSans-32"/>
       <use xlink:href="#DejaVuSans-30" x="63.623047"/>
       <use xlink:href="#DejaVuSans-30" x="127.246094"/>
       <use xlink:href="#DejaVuSans-30" x="190.869141"/>
       <use xlink:href="#DejaVuSans-30" x="254.492188"/>
      </g>
     </g>
    </g>
   </g>
   <g id="line2d_33">
    <path d="M 73.832727 302.085818 
L 77.60778 302.085818 
L 81.382833 302.080995 
L 85.157886 302.085818 
L 88.932939 302.085818 
L 92.707992 302.085818 
L 96.483044 302.085818 
L 100.258097 302.080995 
L 104.03315 302.085818 
L 107.808203 302.085818 
L 111.583256 302.066526 
L 115.358309 302.085818 
L 119.133362 302.085818 
L 122.908414 302.076172 
L 126.683467 302.085818 
L 130.45852 302.085818 
L 134.233573 302.05688 
L 138.008626 302.047234 
L 141.783679 302.066526 
L 145.558732 302.085818 
L 149.333784 302.071349 
L 153.108837 302.080995 
L 156.88389 302.085818 
L 160.658943 302.061703 
L 164.433996 302.085818 
L 168.209049 302.042411 
L 171.984101 301.941129 
L 175.759154 302.071349 
L 179.534207 301.999005 
L 183.30926 302.052057 
L 187.084313 302.052057 
L 190.859366 302.085818 
L 194.634419 302.080995 
L 198.409471 302.037589 
L 202.184524 302.052057 
L 205.959577 302.071349 
L 209.73463 302.047234 
L 213.509683 302.071349 
L 217.284736 302.052057 
L 221.059789 301.8929 
L 224.834841 302.05688 
L 228.609894 301.608344 
L 232.384947 301.917014 
L 236.16 302.052057 
L 239.935053 302.05688 
L 243.710106 301.989359 
L 247.485159 301.830201 
L 251.260211 302.032766 
L 255.035264 302.076172 
L 258.810317 301.950775 
L 262.58537 301.979713 
L 266.360423 302.003828 
L 270.135476 301.979713 
L 273.910529 301.66622 
L 277.685581 301.748211 
L 281.460634 302.042411 
L 285.235687 301.434718 
L 289.01074 302.052057 
L 292.785793 302.080995 
L 296.560846 301.362373 
L 300.335899 301.386488 
L 304.110951 302.052057 
L 307.886004 300.431541 
L 311.661057 294.383541 
L 315.43611 302.02312 
L 319.211163 300.995828 
L 322.986216 285.108976 
L 326.761268 301.719273 
L 330.536321 301.863962 
L 334.311374 299.944421 
L 338.086427 297.918775 
L 341.86148 299.809378 
L 345.636533 294.904421 
L 349.411586 294.648804 
L 353.186638 299.925129 
L 356.961691 282.12356 
L 360.736744 290.05734 
L 364.511797 301.029589 
L 368.28685 285.408 
L 372.061903 300.860785 
L 375.836956 289.420708 
L 379.612008 296.819139 
L 383.387061 301.613167 
L 387.162114 285.871005 
L 390.937167 274.609378 
L 394.71222 192.122182 
L 398.487273 301.569761 
" clip-path="url(#p89017a4898)" style="fill: none; stroke: #1f77b4; stroke-width: 1.5; stroke-linecap: square"/>
   </g>
   <g id="patch_8">
    <path d="M 57.6 307.584 
L 57.6 186.624 
" style="fill: none; stroke: #000000; stroke-width: 0.8; stroke-linejoin: miter; stroke-linecap: square"/>
   </g>
   <g id="patch_9">
    <path d="M 414.72 307.584 
L 414.72 186.624 
" style="fill: none; stroke: #000000; stroke-width: 0.8; stroke-linejoin: miter; stroke-linecap: square"/>
   </g>
   <g id="patch_10">
    <path d="M 57.6 307.584 
L 414.72 307.584 
" style="fill: none; stroke: #000000; stroke-width: 0.8; stroke-linejoin: miter; stroke-linecap: square"/>
   </g>
   <g id="patch_11">
    <path d="M 57.6 186.624 
L 414.72 186.624 
" style="fill: none; stroke: #000000; stroke-width: 0.8; stroke-linejoin: miter; stroke-linecap: square"/>
   </g>
  </g>
 </g>
 <defs>
  <clipPath id="p445c819108">
   <rect x="57.6" y="41.472" width="357.12" height="120.96"/>
  </clipPath>
  <clipPath id="p89017a4898">
   <rect x="57.6" y="186.624" width="357.12" height="120.96"/>
  </clipPath>
 </defs>
</svg>
