<?xml version="1.0" encoding="utf-8" standalone="no"?>
<!DOCTYPE svg PUBLIC "-//W3C//DTD SVG 1.1//EN"
  "http://www.w3.org/Graphics/SVG/1.1/DTD/svg11.dtd">
<svg xmlns:xlink="http://www.w3.org/1999/xlink" width="460.8pt" height="345.6pt" viewBox="0 0 460.8 345.6" xmlns="http://www.w3.org/2000/svg" version="1.1">
 <metadata>
  <rdf:RDF xmlns:dc="http://purl.org/dc/elements/1.1/" xmlns:cc="http://creativecommons.org/ns#" xmlns:rdf="http://www.w3.org/1999/02/22-rdf-syntax-ns#">
   <cc:Work>
    <dc:type rdf:resource="http://purl.org/dc/dcmitype/StillImage"/>
    <dc:date>2022-05-14T04:26:23.737262</dc:date>
    <dc:format>image/svg+xml</dc:format>
    <dc:creator>
     <cc:Agent>
      <dc:title>Matplotlib v3.5.1, https://matplotlib.org/</dc:title>
     </cc:Agent>
    </dc:creator>
   </cc:Work>
  </rdf:RDF>
 </metadata>
 <defs>
  <style type="text/css">*{stroke-linejoin: round; stroke-linecap: butt}</style>
 </defs>
 <g id="figure_1">
  <g id="patch_1">
   <path d="M 0 345.6 
L 460.8 345.6 
L 460.8 0 
L 0 0 
z
" style="fill: #ffffff"/>
  </g>
  <g id="axes_1">
   <g id="patch_2">
    <path d="M 57.6 162.432 
L 414.72 162.432 
L 414.72 41.472 
L 57.6 41.472 
z
" style="fill: #ffffff"/>
   </g>
   <g id="matplotlib.axis_1">
    <g id="xtick_1">
     <g id="line2d_1">
      <defs>
       <path id="meef0894c47" d="M 0 0 
L 0 3.5 
" style="stroke: #000000; stroke-width: 0.8"/>
      </defs>
      <g>
       <use xlink:href="#meef0894c47" x="73.827491" y="162.432" style="stroke: #000000; stroke-width: 0.8"/>
      </g>
     </g>
     <g id="text_1">
      <!-- 0 -->
      <g transform="translate(70.646241 177.030437)scale(0.1 -0.1)">
       <defs>
        <path id="DejaVuSans-30" d="M 2034 4250 
Q 1547 4250 1301 3770 
Q 1056 3291 1056 2328 
Q 1056 1369 1301 889 
Q 1547 409 2034 409 
Q 2525 409 2770 889 
Q 3016 1369 3016 2328 
Q 3016 3291 2770 3770 
Q 2525 4250 2034 4250 
z
M 2034 4750 
Q 2819 4750 3233 4129 
Q 3647 3509 3647 2328 
Q 3647 1150 3233 529 
Q 2819 -91 2034 -91 
Q 1250 -91 836 529 
Q 422 1150 422 2328 
Q 422 3509 836 4129 
Q 1250 4750 2034 4750 
z
" transform="scale(0.015625)"/>
       </defs>
       <use xlink:href="#DejaVuSans-30"/>
      </g>
     </g>
    </g>
    <g id="xtick_2">
     <g id="line2d_2">
      <g>
       <use xlink:href="#meef0894c47" x="126.191972" y="162.432" style="stroke: #000000; stroke-width: 0.8"/>
      </g>
     </g>
     <g id="text_2">
      <!-- 10000 -->
      <g transform="translate(110.285722 177.030437)scale(0.1 -0.1)">
       <defs>
        <path id="DejaVuSans-31" d="M 794 531 
L 1825 531 
L 1825 4091 
L 703 3866 
L 703 4441 
L 1819 4666 
L 2450 4666 
L 2450 531 
L 3481 531 
L 3481 0 
L 794 0 
L 794 531 
z
" transform="scale(0.015625)"/>
       </defs>
       <use xlink:href="#DejaVuSans-31"/>
       <use xlink:href="#DejaVuSans-30" x="63.623047"/>
       <use xlink:href="#DejaVuSans-30" x="127.246094"/>
       <use xlink:href="#DejaVuSans-30" x="190.869141"/>
       <use xlink:href="#DejaVuSans-30" x="254.492188"/>
      </g>
     </g>
    </g>
    <g id="xtick_3">
     <g id="line2d_3">
      <g>
       <use xlink:href="#meef0894c47" x="178.556453" y="162.432" style="stroke: #000000; stroke-width: 0.8"/>
      </g>
     </g>
     <g id="text_3">
      <!-- 20000 -->
      <g transform="translate(162.650203 177.030437)scale(0.1 -0.1)">
       <defs>
        <path id="DejaVuSans-32" d="M 1228 531 
L 3431 531 
L 3431 0 
L 469 0 
L 469 531 
Q 828 903 1448 1529 
Q 2069 2156 2228 2338 
Q 2531 2678 2651 2914 
Q 2772 3150 2772 3378 
Q 2772 3750 2511 3984 
Q 2250 4219 1831 4219 
Q 1534 4219 1204 4116 
Q 875 4013 500 3803 
L 500 4441 
Q 881 4594 1212 4672 
Q 1544 4750 1819 4750 
Q 2544 4750 2975 4387 
Q 3406 4025 3406 3419 
Q 3406 3131 3298 2873 
Q 3191 2616 2906 2266 
Q 2828 2175 2409 1742 
Q 1991 1309 1228 531 
z
" transform="scale(0.015625)"/>
       </defs>
       <use xlink:href="#DejaVuSans-32"/>
       <use xlink:href="#DejaVuSans-30" x="63.623047"/>
       <use xlink:href="#DejaVuSans-30" x="127.246094"/>
       <use xlink:href="#DejaVuSans-30" x="190.869141"/>
       <use xlink:href="#DejaVuSans-30" x="254.492188"/>
      </g>
     </g>
    </g>
    <g id="xtick_4">
     <g id="line2d_4">
      <g>
       <use xlink:href="#meef0894c47" x="230.920934" y="162.432" style="stroke: #000000; stroke-width: 0.8"/>
      </g>
     </g>
     <g id="text_4">
      <!-- 30000 -->
      <g transform="translate(215.014684 177.030437)scale(0.1 -0.1)">
       <defs>
        <path id="DejaVuSans-33" d="M 2597 2516 
Q 3050 2419 3304 2112 
Q 3559 1806 3559 1356 
Q 3559 666 3084 287 
Q 2609 -91 1734 -91 
Q 1441 -91 1130 -33 
Q 819 25 488 141 
L 488 750 
Q 750 597 1062 519 
Q 1375 441 1716 441 
Q 2309 441 2620 675 
Q 2931 909 2931 1356 
Q 2931 1769 2642 2001 
Q 2353 2234 1838 2234 
L 1294 2234 
L 1294 2753 
L 1863 2753 
Q 2328 2753 2575 2939 
Q 2822 3125 2822 3475 
Q 2822 3834 2567 4026 
Q 2313 4219 1838 4219 
Q 1578 4219 1281 4162 
Q 984 4106 628 3988 
L 628 4550 
Q 988 4650 1302 4700 
Q 1616 4750 1894 4750 
Q 2613 4750 3031 4423 
Q 3450 4097 3450 3541 
Q 3450 3153 3228 2886 
Q 3006 2619 2597 2516 
z
" transform="scale(0.015625)"/>
       </defs>
       <use xlink:href="#DejaVuSans-33"/>
       <use xlink:href="#DejaVuSans-30" x="63.623047"/>
       <use xlink:href="#DejaVuSans-30" x="127.246094"/>
       <use xlink:href="#DejaVuSans-30" x="190.869141"/>
       <use xlink:href="#DejaVuSans-30" x="254.492188"/>
      </g>
     </g>
    </g>
    <g id="xtick_5">
     <g id="line2d_5">
      <g>
       <use xlink:href="#meef0894c47" x="283.285415" y="162.432" style="stroke: #000000; stroke-width: 0.8"/>
      </g>
     </g>
     <g id="text_5">
      <!-- 40000 -->
      <g transform="translate(267.379165 177.030437)scale(0.1 -0.1)">
       <defs>
        <path id="DejaVuSans-34" d="M 2419 4116 
L 825 1625 
L 2419 1625 
L 2419 4116 
z
M 2253 4666 
L 3047 4666 
L 3047 1625 
L 3713 1625 
L 3713 1100 
L 3047 1100 
L 3047 0 
L 2419 0 
L 2419 1100 
L 313 1100 
L 313 1709 
L 2253 4666 
z
" transform="scale(0.015625)"/>
       </defs>
       <use xlink:href="#DejaVuSans-34"/>
       <use xlink:href="#DejaVuSans-30" x="63.623047"/>
       <use xlink:href="#DejaVuSans-30" x="127.246094"/>
       <use xlink:href="#DejaVuSans-30" x="190.869141"/>
       <use xlink:href="#DejaVuSans-30" x="254.492188"/>
      </g>
     </g>
    </g>
    <g id="xtick_6">
     <g id="line2d_6">
      <g>
       <use xlink:href="#meef0894c47" x="335.649896" y="162.432" style="stroke: #000000; stroke-width: 0.8"/>
      </g>
     </g>
     <g id="text_6">
      <!-- 50000 -->
      <g transform="translate(319.743646 177.030437)scale(0.1 -0.1)">
       <defs>
        <path id="DejaVuSans-35" d="M 691 4666 
L 3169 4666 
L 3169 4134 
L 1269 4134 
L 1269 2991 
Q 1406 3038 1543 3061 
Q 1681 3084 1819 3084 
Q 2600 3084 3056 2656 
Q 3513 2228 3513 1497 
Q 3513 744 3044 326 
Q 2575 -91 1722 -91 
Q 1428 -91 1123 -41 
Q 819 9 494 109 
L 494 744 
Q 775 591 1075 516 
Q 1375 441 1709 441 
Q 2250 441 2565 725 
Q 2881 1009 2881 1497 
Q 2881 1984 2565 2268 
Q 2250 2553 1709 2553 
Q 1456 2553 1204 2497 
Q 953 2441 691 2322 
L 691 4666 
z
" transform="scale(0.015625)"/>
       </defs>
       <use xlink:href="#DejaVuSans-35"/>
       <use xlink:href="#DejaVuSans-30" x="63.623047"/>
       <use xlink:href="#DejaVuSans-30" x="127.246094"/>
       <use xlink:href="#DejaVuSans-30" x="190.869141"/>
       <use xlink:href="#DejaVuSans-30" x="254.492188"/>
      </g>
     </g>
    </g>
    <g id="xtick_7">
     <g id="line2d_7">
      <g>
       <use xlink:href="#meef0894c47" x="388.014377" y="162.432" style="stroke: #000000; stroke-width: 0.8"/>
      </g>
     </g>
     <g id="text_7">
      <!-- 60000 -->
      <g transform="translate(372.108127 177.030437)scale(0.1 -0.1)">
       <defs>
        <path id="DejaVuSans-36" d="M 2113 2584 
Q 1688 2584 1439 2293 
Q 1191 2003 1191 1497 
Q 1191 994 1439 701 
Q 1688 409 2113 409 
Q 2538 409 2786 701 
Q 3034 994 3034 1497 
Q 3034 2003 2786 2293 
Q 2538 2584 2113 2584 
z
M 3366 4563 
L 3366 3988 
Q 3128 4100 2886 4159 
Q 2644 4219 2406 4219 
Q 1781 4219 1451 3797 
Q 1122 3375 1075 2522 
Q 1259 2794 1537 2939 
Q 1816 3084 2150 3084 
Q 2853 3084 3261 2657 
Q 3669 2231 3669 1497 
Q 3669 778 3244 343 
Q 2819 -91 2113 -91 
Q 1303 -91 875 529 
Q 447 1150 447 2328 
Q 447 3434 972 4092 
Q 1497 4750 2381 4750 
Q 2619 4750 2861 4703 
Q 3103 4656 3366 4563 
z
" transform="scale(0.015625)"/>
       </defs>
       <use xlink:href="#DejaVuSans-36"/>
       <use xlink:href="#DejaVuSans-30" x="63.623047"/>
       <use xlink:href="#DejaVuSans-30" x="127.246094"/>
       <use xlink:href="#DejaVuSans-30" x="190.869141"/>
       <use xlink:href="#DejaVuSans-30" x="254.492188"/>
      </g>
     </g>
    </g>
   </g>
   <g id="matplotlib.axis_2">
    <g id="ytick_1">
     <g id="line2d_8">
      <defs>
       <path id="m38cdc83fd4" d="M 0 0 
L -3.5 0 
" style="stroke: #000000; stroke-width: 0.8"/>
      </defs>
      <g>
       <use xlink:href="#m38cdc83fd4" x="57.6" y="135.659446" style="stroke: #000000; stroke-width: 0.8"/>
      </g>
     </g>
     <g id="text_8">
      <!-- 80 -->
      <g transform="translate(37.875 139.458665)scale(0.1 -0.1)">
       <defs>
        <path id="DejaVuSans-38" d="M 2034 2216 
Q 1584 2216 1326 1975 
Q 1069 1734 1069 1313 
Q 1069 891 1326 650 
Q 1584 409 2034 409 
Q 2484 409 2743 651 
Q 3003 894 3003 1313 
Q 3003 1734 2745 1975 
Q 2488 2216 2034 2216 
z
M 1403 2484 
Q 997 2584 770 2862 
Q 544 3141 544 3541 
Q 544 4100 942 4425 
Q 1341 4750 2034 4750 
Q 2731 4750 3128 4425 
Q 3525 4100 3525 3541 
Q 3525 3141 3298 2862 
Q 3072 2584 2669 2484 
Q 3125 2378 3379 2068 
Q 3634 1759 3634 1313 
Q 3634 634 3220 271 
Q 2806 -91 2034 -91 
Q 1263 -91 848 271 
Q 434 634 434 1313 
Q 434 1759 690 2068 
Q 947 2378 1403 2484 
z
M 1172 3481 
Q 1172 3119 1398 2916 
Q 1625 2713 2034 2713 
Q 2441 2713 2670 2916 
Q 2900 3119 2900 3481 
Q 2900 3844 2670 4047 
Q 2441 4250 2034 4250 
Q 1625 4250 1398 4047 
Q 1172 3844 1172 3481 
z
" transform="scale(0.015625)"/>
       </defs>
       <use xlink:href="#DejaVuSans-38"/>
       <use xlink:href="#DejaVuSans-30" x="63.623047"/>
      </g>
     </g>
    </g>
    <g id="ytick_2">
     <g id="line2d_9">
      <g>
       <use xlink:href="#m38cdc83fd4" x="57.6" y="102.504581" style="stroke: #000000; stroke-width: 0.8"/>
      </g>
     </g>
     <g id="text_9">
      <!-- 90 -->
      <g transform="translate(37.875 106.3038)scale(0.1 -0.1)">
       <defs>
        <path id="DejaVuSans-39" d="M 703 97 
L 703 672 
Q 941 559 1184 500 
Q 1428 441 1663 441 
Q 2288 441 2617 861 
Q 2947 1281 2994 2138 
Q 2813 1869 2534 1725 
Q 2256 1581 1919 1581 
Q 1219 1581 811 2004 
Q 403 2428 403 3163 
Q 403 3881 828 4315 
Q 1253 4750 1959 4750 
Q 2769 4750 3195 4129 
Q 3622 3509 3622 2328 
Q 3622 1225 3098 567 
Q 2575 -91 1691 -91 
Q 1453 -91 1209 -44 
Q 966 3 703 97 
z
M 1959 2075 
Q 2384 2075 2632 2365 
Q 2881 2656 2881 3163 
Q 2881 3666 2632 3958 
Q 2384 4250 1959 4250 
Q 1534 4250 1286 3958 
Q 1038 3666 1038 3163 
Q 1038 2656 1286 2365 
Q 1534 2075 1959 2075 
z
" transform="scale(0.015625)"/>
       </defs>
       <use xlink:href="#DejaVuSans-39"/>
       <use xlink:href="#DejaVuSans-30" x="63.623047"/>
      </g>
     </g>
    </g>
    <g id="ytick_3">
     <g id="line2d_10">
      <g>
       <use xlink:href="#m38cdc83fd4" x="57.6" y="69.349716" style="stroke: #000000; stroke-width: 0.8"/>
      </g>
     </g>
     <g id="text_10">
      <!-- 100 -->
      <g transform="translate(31.5125 73.148935)scale(0.1 -0.1)">
       <use xlink:href="#DejaVuSans-31"/>
       <use xlink:href="#DejaVuSans-30" x="63.623047"/>
       <use xlink:href="#DejaVuSans-30" x="127.246094"/>
      </g>
     </g>
    </g>
   </g>
   <g id="line2d_11">
    <path d="M 73.832727 67.691973 
L 73.853673 67.028875 
L 73.869382 76.975335 
L 73.942693 81.948565 
L 73.979348 78.964627 
L 73.995057 78.964627 
L 74.068367 76.643786 
L 74.073604 79.959273 
L 74.099786 79.959273 
L 74.115495 79.959273 
L 74.235934 76.643786 
L 74.25688 76.643786 
L 74.277825 79.959273 
L 74.366845 76.643786 
L 74.461101 76.643786 
L 74.523938 79.959273 
L 74.576303 79.296175 
L 75.623593 79.296175 
L 75.723085 82.611662 
L 75.733558 80.953919 
L 75.785922 80.953919 
L 75.901124 79.296175 
L 76.032035 79.296175 
L 76.147237 77.638432 
L 76.168183 77.638432 
L 76.283385 76.975335 
L 78.859717 76.975335 
L 78.974919 80.290821 
L 79.765623 80.290821 
L 79.880825 78.633078 
L 80.435888 78.633078 
L 80.55109 81.948565 
L 80.634873 81.948565 
L 80.750075 80.290821 
L 82.902255 80.290821 
L 82.959856 78.633078 
L 82.965093 81.948565 
L 83.006984 81.948565 
L 84.017619 81.948565 
L 84.132821 80.290821 
L 85.420987 80.290821 
L 85.536189 83.606308 
L 87.536512 83.606308 
L 87.651714 81.948565 
L 96.789316 81.948565 
L 96.904518 80.290821 
L 99.889293 80.290821 
L 100.004495 83.606308 
L 102.423734 83.606308 
L 102.538936 81.948565 
L 110.137022 81.948565 
L 110.252224 80.290821 
L 114.310471 80.290821 
L 114.425673 83.606308 
L 180.923327 83.606308 
L 181.038529 81.948565 
L 219.599733 81.948565 
L 219.714935 80.290821 
L 238.372399 80.290821 
L 238.487601 83.606308 
L 367.461318 83.606308 
L 367.57652 86.921794 
L 398.487273 86.921794 
L 398.487273 86.921794 
" clip-path="url(#p57700da343)" style="fill: none; stroke: #1f77b4; stroke-width: 1.5; stroke-linecap: square"/>
   </g>
   <g id="line2d_12">
    <path d="M 73.832727 72.665202 
L 73.85891 71.173233 
L 73.885092 77.251625 
L 73.911274 76.146463 
L 73.91651 76.146463 
L 73.942693 73.659848 
L 73.963638 81.948565 
L 74.00553 79.627724 
L 74.115495 98.691772 
L 74.141678 97.034028 
L 74.173096 97.034028 
L 74.204515 100.349515 
L 74.277825 97.034028 
L 74.283062 95.376285 
L 74.356372 103.665001 
L 74.366845 103.665001 
L 74.482047 106.980488 
L 74.523938 106.980488 
L 74.63914 106.317391 
L 74.885253 106.317391 
L 75.000455 109.632877 
L 75.723085 109.632877 
L 75.843523 106.317391 
L 75.895888 106.317391 
L 76.01109 109.632877 
L 76.032035 109.632877 
L 76.147237 107.975134 
L 76.168183 107.975134 
L 76.257203 107.312037 
L 76.377641 113.94301 
L 76.545207 113.94301 
L 76.660409 117.258496 
L 77.283547 117.258496 
L 77.398748 120.573983 
L 78.859717 120.573983 
L 78.948737 119.745111 
L 78.953974 123.060598 
L 79.765623 123.060598 
L 79.880825 121.402854 
L 80.435888 121.402854 
L 80.55109 124.718341 
L 80.634873 124.718341 
L 80.750075 123.060598 
L 82.080133 123.060598 
L 82.195335 126.376084 
L 82.441448 126.376084 
L 82.55665 129.691571 
L 82.902255 129.691571 
L 83.017457 127.37073 
L 84.017619 127.37073 
L 84.132821 125.712987 
L 85.420987 125.712987 
L 85.536189 129.028473 
L 87.536512 129.028473 
L 87.651714 127.37073 
L 88.018265 127.37073 
L 88.133467 130.686217 
L 88.997481 130.686217 
L 89.112683 134.001703 
L 91.924655 134.001703 
L 92.039857 137.31719 
L 96.789316 137.31719 
L 96.904518 135.659446 
L 99.889293 135.659446 
L 100.004495 138.974933 
L 102.423734 138.974933 
L 102.538936 137.31719 
L 110.137022 137.31719 
L 110.252224 135.659446 
L 110.33077 135.659446 
L 110.451209 142.290419 
L 114.378545 142.290419 
L 114.493747 145.605906 
L 180.923327 145.605906 
L 181.038529 143.948163 
L 189.804343 143.948163 
L 189.919545 143.119291 
L 200.680446 143.119291 
L 200.795648 146.434778 
L 203.251542 146.434778 
L 203.366744 149.750264 
L 219.599733 149.750264 
L 219.714935 148.092521 
L 231.915859 148.092521 
L 232.031061 151.408007 
L 238.372399 151.408007 
L 238.487601 150.302845 
L 269.503083 150.302845 
L 269.618285 153.618332 
L 299.958265 153.618332 
L 300.073467 156.933818 
L 367.461318 156.933818 
L 367.57652 156.104947 
L 398.487273 156.104947 
L 398.487273 156.104947 
" clip-path="url(#p57700da343)" style="fill: none; stroke: #ff7f0e; stroke-width: 1.5; stroke-linecap: square"/>
   </g>
   <g id="line2d_13">
    <path d="M 73.832727 69.349716 
L 73.837964 69.349716 
L 73.984584 94.381639 
L 73.995057 94.381639 
L 74.00553 97.697126 
L 74.063131 93.718542 
L 74.105023 95.928866 
L 74.110259 95.928866 
L 74.115495 94.823704 
L 74.120732 98.13919 
L 74.204515 97.034028 
L 74.33019 108.08565 
L 74.351136 108.08565 
L 74.461101 106.151616 
L 74.576303 109.467103 
L 74.885253 109.467103 
L 75.000455 108.361941 
L 75.623593 108.361941 
L 75.744031 114.992914 
L 75.785922 114.992914 
L 75.895888 118.3084 
L 76.01109 117.479529 
L 76.032035 117.479529 
L 76.147237 120.795015 
L 76.257203 120.795015 
L 76.377641 118.584691 
L 76.545207 118.584691 
L 76.660409 117.479529 
L 77.283547 117.479529 
L 77.398748 116.374366 
L 78.859717 116.374366 
L 78.948737 119.689853 
L 78.969683 118.584691 
L 79.765623 118.584691 
L 79.880825 121.900177 
L 80.634873 121.900177 
L 80.750075 125.215664 
L 82.080133 125.215664 
L 82.195335 124.110502 
L 82.441448 124.110502 
L 82.55665 123.005339 
L 82.902255 123.005339 
L 83.022694 129.636312 
L 84.017619 129.636312 
L 84.132821 132.951799 
L 87.536512 132.951799 
L 87.651714 136.267286 
L 88.018265 136.267286 
L 88.133467 135.162123 
L 88.997481 135.162123 
L 89.112683 134.056961 
L 91.924655 134.056961 
L 92.039857 132.951799 
L 96.789316 132.951799 
L 96.904518 136.267286 
L 102.423734 136.267286 
L 102.538936 139.582772 
L 110.137022 139.582772 
L 110.252224 142.898259 
L 110.33077 142.898259 
L 110.451209 140.687934 
L 114.310471 140.687934 
L 114.378545 144.003421 
L 114.420436 142.898259 
L 180.923327 142.898259 
L 181.038529 146.213745 
L 189.804343 146.213745 
L 189.919545 149.529232 
L 200.680446 149.529232 
L 200.795648 148.424069 
L 203.251542 148.424069 
L 203.366744 147.318907 
L 219.599733 147.318907 
L 219.714935 150.634394 
L 231.915859 150.634394 
L 232.031061 149.529232 
L 238.372399 149.529232 
L 238.487601 152.844718 
L 269.503083 152.844718 
L 269.618285 151.739556 
L 299.958265 151.739556 
L 300.073467 150.634394 
L 367.461318 150.634394 
L 367.57652 153.94988 
L 398.487273 153.94988 
L 398.487273 153.94988 
" clip-path="url(#p57700da343)" style="fill: none; stroke: #2ca02c; stroke-width: 1.5; stroke-linecap: square"/>
   </g>
   <g id="line2d_14">
    <path d="M 73.832727 69.349716 
L 73.837964 69.349716 
L 73.853673 68.520844 
L 73.85891 71.836331 
L 73.93222 71.28375 
L 73.942693 71.28375 
L 74.063131 69.957555 
L 398.487273 69.957555 
L 398.487273 69.957555 
" clip-path="url(#p57700da343)" style="fill: none; stroke: #d62728; stroke-width: 1.5; stroke-linecap: square"/>
   </g>
   <g id="line2d_15">
    <path d="M 73.832727 69.349716 
L 73.958402 95.873608 
L 73.979348 95.044736 
L 74.068367 95.044736 
L 74.183569 98.360223 
L 74.25688 98.360223 
L 74.366845 104.991196 
L 74.372081 104.162324 
L 75.895888 104.162324 
L 76.01109 103.333453 
L 78.859717 103.333453 
L 78.974919 106.648939 
L 82.959856 106.648939 
L 83.075058 109.964426 
L 87.536512 109.964426 
L 87.651714 113.279912 
L 114.310471 113.279912 
L 114.425673 116.595399 
L 189.804343 116.595399 
L 189.919545 119.910885 
L 238.372399 119.910885 
L 238.487601 123.226372 
L 367.461318 123.226372 
L 367.57652 126.541858 
L 398.487273 126.541858 
L 398.487273 126.541858 
" clip-path="url(#p57700da343)" style="fill: none; stroke: #9467bd; stroke-width: 1.5; stroke-linecap: square"/>
   </g>
   <g id="line2d_16">
    <path d="M 73.832727 69.349716 
L 73.853673 68.686619 
L 73.869382 74.212429 
L 73.900801 74.212429 
L 73.93222 74.212429 
L 73.963638 77.527916 
L 74.047422 76.864819 
L 74.068367 76.864819 
L 74.183569 76.035947 
L 74.461101 76.035947 
L 74.523938 79.351434 
L 74.576303 78.688336 
L 75.623593 78.688336 
L 75.738794 82.003823 
L 76.168183 82.003823 
L 76.283385 81.340725 
L 82.959856 81.340725 
L 83.075058 84.656212 
L 114.310471 84.656212 
L 114.425673 83.55105 
L 189.804343 83.55105 
L 189.919545 82.722178 
L 398.487273 82.722178 
L 398.487273 82.722178 
" clip-path="url(#p57700da343)" style="fill: none; stroke: #8c564b; stroke-width: 1.5; stroke-linecap: square"/>
   </g>
   <g id="line2d_17">
    <path d="M 73.832727 69.349716 
L 73.974111 90.513571 
L 73.995057 90.513571 
L 74.00553 93.829058 
L 74.063131 89.850474 
L 74.105023 92.060799 
L 74.110259 92.060799 
L 74.115495 90.955636 
L 74.120732 94.271123 
L 74.204515 93.165961 
L 74.283062 99.796934 
L 74.319717 98.691772 
L 74.324953 97.586609 
L 74.33019 100.902096 
L 74.424446 98.968062 
L 74.461101 98.968062 
L 74.523938 98.13919 
L 74.529175 101.454677 
L 74.555357 101.454677 
L 74.885253 101.454677 
L 75.000455 100.349515 
L 75.623593 100.349515 
L 75.723085 99.520643 
L 75.843523 106.151616 
L 75.895888 106.151616 
L 76.01109 105.322745 
L 76.032035 105.322745 
L 76.147237 108.638231 
L 76.168183 108.638231 
L 76.257203 111.953718 
L 76.278149 110.848556 
L 76.293858 110.848556 
L 76.40906 109.743393 
L 76.545207 109.743393 
L 76.660409 108.638231 
L 77.283547 108.638231 
L 77.398748 107.533069 
L 78.859717 107.533069 
L 78.980156 105.599035 
L 79.765623 105.599035 
L 79.880825 108.914522 
L 80.435888 108.914522 
L 80.55109 107.80936 
L 80.634873 107.80936 
L 80.750075 111.124846 
L 82.080133 111.124846 
L 82.195335 110.019684 
L 82.441448 110.019684 
L 82.55665 108.914522 
L 82.902255 108.914522 
L 82.959856 112.230008 
L 83.017457 111.566911 
L 84.017619 111.566911 
L 84.132821 114.882397 
L 85.420987 114.882397 
L 85.536189 113.777235 
L 87.536512 113.777235 
L 87.651714 117.092722 
L 88.018265 117.092722 
L 88.133467 115.98756 
L 88.997481 115.98756 
L 89.112683 114.882397 
L 91.924655 114.882397 
L 92.039857 113.777235 
L 96.789316 113.777235 
L 96.904518 117.092722 
L 99.889293 117.092722 
L 100.004495 115.98756 
L 102.423734 115.98756 
L 102.538936 119.303046 
L 110.137022 119.303046 
L 110.252224 122.618533 
L 110.33077 122.618533 
L 110.451209 120.408208 
L 114.310471 120.408208 
L 114.378545 123.723695 
L 114.420436 122.618533 
L 180.923327 122.618533 
L 181.038529 125.934019 
L 189.804343 125.934019 
L 189.919545 129.249506 
L 200.680446 129.249506 
L 200.795648 128.144344 
L 203.251542 128.144344 
L 203.366744 127.039181 
L 219.599733 127.039181 
L 219.714935 130.354668 
L 231.915859 130.354668 
L 232.031061 129.249506 
L 269.503083 129.249506 
L 269.618285 128.144344 
L 299.958265 128.144344 
L 300.073467 127.039181 
L 367.461318 127.039181 
L 367.57652 126.21031 
L 398.487273 126.21031 
L 398.487273 126.21031 
" clip-path="url(#p57700da343)" style="fill: none; stroke: #e377c2; stroke-width: 1.5; stroke-linecap: square"/>
   </g>
   <g id="line2d_18">
    <path d="M 73.832727 69.349716 
L 73.853673 67.857747 
L 73.869382 73.383558 
L 73.93222 70.620652 
L 73.963638 73.936139 
L 74.047422 73.273042 
L 74.068367 73.273042 
L 74.183569 72.44417 
L 74.461101 72.44417 
L 74.523938 75.759656 
L 74.576303 75.096559 
L 75.623593 75.096559 
L 75.738794 78.412046 
L 76.168183 78.412046 
L 76.283385 77.748948 
L 82.959856 77.748948 
L 83.075058 81.064435 
L 114.310471 81.064435 
L 114.425673 79.959273 
L 189.804343 79.959273 
L 189.919545 79.130401 
L 398.487273 79.130401 
L 398.487273 79.130401 
" clip-path="url(#p57700da343)" style="fill: none; stroke: #7f7f7f; stroke-width: 1.5; stroke-linecap: square"/>
   </g>
   <g id="line2d_19">
    <path d="M 73.832727 69.349716 
L 73.958402 82.224855 
L 73.963638 81.395984 
L 74.000294 88.026957 
L 74.042185 86.258697 
L 74.047422 86.258697 
L 74.068367 84.048373 
L 74.120732 88.469021 
L 74.146914 88.469021 
L 74.173096 88.469021 
L 74.204515 87.363859 
L 74.209752 90.679346 
L 74.272589 90.679346 
L 74.277825 90.679346 
L 74.351136 95.099995 
L 74.387791 93.165961 
L 74.461101 93.165961 
L 74.523938 92.337089 
L 74.529175 95.652576 
L 74.555357 95.652576 
L 74.885253 95.652576 
L 75.000455 94.547413 
L 75.623593 94.547413 
L 75.723085 93.718542 
L 75.843523 100.349515 
L 75.895888 100.349515 
L 76.01109 99.520643 
L 76.032035 99.520643 
L 76.147237 102.83613 
L 76.168183 102.83613 
L 76.257203 106.151616 
L 76.278149 105.046454 
L 76.293858 105.046454 
L 76.40906 103.941292 
L 76.545207 103.941292 
L 76.660409 102.83613 
L 77.283547 102.83613 
L 77.398748 101.730968 
L 78.859717 101.730968 
L 78.980156 99.796934 
L 79.765623 99.796934 
L 79.880825 103.11242 
L 80.435888 103.11242 
L 80.55109 102.007258 
L 80.634873 102.007258 
L 80.750075 105.322745 
L 82.080133 105.322745 
L 82.195335 104.217582 
L 82.441448 104.217582 
L 82.55665 103.11242 
L 82.902255 103.11242 
L 82.959856 106.427907 
L 83.017457 105.76481 
L 84.017619 105.76481 
L 84.132821 109.080296 
L 85.420987 109.080296 
L 85.536189 107.975134 
L 87.536512 107.975134 
L 87.651714 111.29062 
L 88.018265 111.29062 
L 88.133467 110.185458 
L 88.997481 110.185458 
L 89.112683 109.080296 
L 91.924655 109.080296 
L 92.039857 107.975134 
L 96.789316 107.975134 
L 96.904518 111.29062 
L 99.889293 111.29062 
L 100.004495 110.185458 
L 102.423734 110.185458 
L 102.538936 113.500945 
L 110.137022 113.500945 
L 110.252224 116.816431 
L 110.33077 116.816431 
L 110.451209 114.606107 
L 114.310471 114.606107 
L 114.378545 117.921593 
L 114.420436 116.816431 
L 180.923327 116.816431 
L 181.038529 120.131918 
L 189.804343 120.131918 
L 189.919545 123.447404 
L 200.680446 123.447404 
L 200.795648 122.342242 
L 203.251542 122.342242 
L 203.366744 121.23708 
L 219.599733 121.23708 
L 219.714935 124.552566 
L 231.915859 124.552566 
L 232.031061 123.447404 
L 238.372399 123.447404 
L 238.487601 122.342242 
L 269.503083 122.342242 
L 269.618285 121.23708 
L 299.958265 121.23708 
L 300.073467 120.131918 
L 367.461318 120.131918 
L 367.57652 119.303046 
L 398.487273 119.303046 
L 398.487273 119.303046 
" clip-path="url(#p57700da343)" style="fill: none; stroke: #bcbd22; stroke-width: 1.5; stroke-linecap: square"/>
   </g>
   <g id="line2d_20">
    <path d="M 73.832727 69.349716 
L 74.00553 61.116258 
L 74.068367 61.116258 
L 74.183569 60.287386 
L 74.25688 60.287386 
L 74.372081 58.629643 
L 74.461101 58.629643 
L 74.581539 57.137674 
L 75.623593 57.137674 
L 75.738794 56.308802 
L 76.168183 56.308802 
L 76.283385 55.645705 
L 78.859717 55.645705 
L 78.974919 54.816833 
L 80.435888 54.816833 
L 80.55109 53.711671 
L 82.959856 53.711671 
L 83.075058 53.048574 
L 85.420987 53.048574 
L 85.536189 51.943412 
L 99.889293 51.943412 
L 100.004495 50.838249 
L 114.310471 50.838249 
L 114.425673 49.733087 
L 189.804343 49.733087 
L 189.919545 48.904216 
L 238.372399 48.904216 
L 238.487601 47.799053 
L 367.461318 47.799053 
L 367.57652 46.970182 
L 398.487273 46.970182 
L 398.487273 46.970182 
" clip-path="url(#p57700da343)" style="fill: none; stroke: #17becf; stroke-width: 1.5; stroke-linecap: square"/>
   </g>
   <g id="line2d_21">
    <path d="M 73.832727 69.349716 
L 73.864146 75.151817 
L 73.947929 73.770365 
L 73.963638 73.770365 
L 74.084077 80.401338 
L 74.461101 80.401338 
L 74.523938 79.572466 
L 74.529175 82.887952 
L 74.555357 82.887952 
L 75.623593 82.887952 
L 75.738794 82.059081 
L 76.168183 82.059081 
L 76.283385 85.374567 
L 82.959856 85.374567 
L 83.075058 84.71147 
L 114.310471 84.71147 
L 114.425673 88.026957 
L 189.804343 88.026957 
L 189.919545 91.342443 
L 398.487273 91.342443 
L 398.487273 91.342443 
" clip-path="url(#p57700da343)" style="fill: none; stroke: #1f77b4; stroke-width: 1.5; stroke-linecap: square"/>
   </g>
   <g id="line2d_22">
    <path d="M 73.832727 67.691973 
L 73.879855 71.007459 
L 73.942693 67.691973 
L 73.947929 67.691973 
L 74.063131 64.376486 
L 74.523938 64.376486 
L 74.63914 67.691973 
L 75.623593 67.691973 
L 75.738794 71.007459 
L 76.168183 71.007459 
L 76.283385 74.322946 
L 78.859717 74.322946 
L 78.974919 77.638432 
L 82.959856 77.638432 
L 83.075058 80.953919 
L 367.461318 80.953919 
L 367.57652 84.269405 
L 398.487273 84.269405 
L 398.487273 84.269405 
" clip-path="url(#p57700da343)" style="fill: none; stroke: #ff7f0e; stroke-width: 1.5; stroke-linecap: square"/>
   </g>
   <g id="patch_3">
    <path d="M 57.6 162.432 
L 57.6 41.472 
" style="fill: none; stroke: #000000; stroke-width: 0.8; stroke-linejoin: miter; stroke-linecap: square"/>
   </g>
   <g id="patch_4">
    <path d="M 414.72 162.432 
L 414.72 41.472 
" style="fill: none; stroke: #000000; stroke-width: 0.8; stroke-linejoin: miter; stroke-linecap: square"/>
   </g>
   <g id="patch_5">
    <path d="M 57.6 162.432 
L 414.72 162.432 
" style="fill: none; stroke: #000000; stroke-width: 0.8; stroke-linejoin: miter; stroke-linecap: square"/>
   </g>
   <g id="patch_6">
    <path d="M 57.6 41.472 
L 414.72 41.472 
" style="fill: none; stroke: #000000; stroke-width: 0.8; stroke-linejoin: miter; stroke-linecap: square"/>
   </g>
   <g id="text_11">
    <!-- WSP -->
    <g transform="translate(361.832136 86.921794)scale(0.08 -0.08)">
     <defs>
      <path id="DejaVuSans-57" d="M 213 4666 
L 850 4666 
L 1831 722 
L 2809 4666 
L 3519 4666 
L 4500 722 
L 5478 4666 
L 6119 4666 
L 4947 0 
L 4153 0 
L 3169 4050 
L 2175 0 
L 1381 0 
L 213 4666 
z
" transform="scale(0.015625)"/>
      <path id="DejaVuSans-53" d="M 3425 4513 
L 3425 3897 
Q 3066 4069 2747 4153 
Q 2428 4238 2131 4238 
Q 1616 4238 1336 4038 
Q 1056 3838 1056 3469 
Q 1056 3159 1242 3001 
Q 1428 2844 1947 2747 
L 2328 2669 
Q 3034 2534 3370 2195 
Q 3706 1856 3706 1288 
Q 3706 609 3251 259 
Q 2797 -91 1919 -91 
Q 1588 -91 1214 -16 
Q 841 59 441 206 
L 441 856 
Q 825 641 1194 531 
Q 1563 422 1919 422 
Q 2459 422 2753 634 
Q 3047 847 3047 1241 
Q 3047 1584 2836 1778 
Q 2625 1972 2144 2069 
L 1759 2144 
Q 1053 2284 737 2584 
Q 422 2884 422 3419 
Q 422 4038 858 4394 
Q 1294 4750 2059 4750 
Q 2388 4750 2728 4690 
Q 3069 4631 3425 4513 
z
" transform="scale(0.015625)"/>
      <path id="DejaVuSans-50" d="M 1259 4147 
L 1259 2394 
L 2053 2394 
Q 2494 2394 2734 2622 
Q 2975 2850 2975 3272 
Q 2975 3691 2734 3919 
Q 2494 4147 2053 4147 
L 1259 4147 
z
M 628 4666 
L 2053 4666 
Q 2838 4666 3239 4311 
Q 3641 3956 3641 3272 
Q 3641 2581 3239 2228 
Q 2838 1875 2053 1875 
L 1259 1875 
L 1259 0 
L 628 0 
L 628 4666 
z
" transform="scale(0.015625)"/>
     </defs>
     <use xlink:href="#DejaVuSans-57"/>
     <use xlink:href="#DejaVuSans-53" x="98.876953"/>
     <use xlink:href="#DejaVuSans-50" x="162.353516"/>
    </g>
   </g>
   <g id="text_12">
    <!-- Iambic -->
    <g transform="translate(361.832136 156.104947)scale(0.08 -0.08)">
     <defs>
      <path id="DejaVuSans-49" d="M 628 4666 
L 1259 4666 
L 1259 0 
L 628 0 
L 628 4666 
z
" transform="scale(0.015625)"/>
      <path id="DejaVuSans-61" d="M 2194 1759 
Q 1497 1759 1228 1600 
Q 959 1441 959 1056 
Q 959 750 1161 570 
Q 1363 391 1709 391 
Q 2188 391 2477 730 
Q 2766 1069 2766 1631 
L 2766 1759 
L 2194 1759 
z
M 3341 1997 
L 3341 0 
L 2766 0 
L 2766 531 
Q 2569 213 2275 61 
Q 1981 -91 1556 -91 
Q 1019 -91 701 211 
Q 384 513 384 1019 
Q 384 1609 779 1909 
Q 1175 2209 1959 2209 
L 2766 2209 
L 2766 2266 
Q 2766 2663 2505 2880 
Q 2244 3097 1772 3097 
Q 1472 3097 1187 3025 
Q 903 2953 641 2809 
L 641 3341 
Q 956 3463 1253 3523 
Q 1550 3584 1831 3584 
Q 2591 3584 2966 3190 
Q 3341 2797 3341 1997 
z
" transform="scale(0.015625)"/>
      <path id="DejaVuSans-6d" d="M 3328 2828 
Q 3544 3216 3844 3400 
Q 4144 3584 4550 3584 
Q 5097 3584 5394 3201 
Q 5691 2819 5691 2113 
L 5691 0 
L 5113 0 
L 5113 2094 
Q 5113 2597 4934 2840 
Q 4756 3084 4391 3084 
Q 3944 3084 3684 2787 
Q 3425 2491 3425 1978 
L 3425 0 
L 2847 0 
L 2847 2094 
Q 2847 2600 2669 2842 
Q 2491 3084 2119 3084 
Q 1678 3084 1418 2786 
Q 1159 2488 1159 1978 
L 1159 0 
L 581 0 
L 581 3500 
L 1159 3500 
L 1159 2956 
Q 1356 3278 1631 3431 
Q 1906 3584 2284 3584 
Q 2666 3584 2933 3390 
Q 3200 3197 3328 2828 
z
" transform="scale(0.015625)"/>
      <path id="DejaVuSans-62" d="M 3116 1747 
Q 3116 2381 2855 2742 
Q 2594 3103 2138 3103 
Q 1681 3103 1420 2742 
Q 1159 2381 1159 1747 
Q 1159 1113 1420 752 
Q 1681 391 2138 391 
Q 2594 391 2855 752 
Q 3116 1113 3116 1747 
z
M 1159 2969 
Q 1341 3281 1617 3432 
Q 1894 3584 2278 3584 
Q 2916 3584 3314 3078 
Q 3713 2572 3713 1747 
Q 3713 922 3314 415 
Q 2916 -91 2278 -91 
Q 1894 -91 1617 61 
Q 1341 213 1159 525 
L 1159 0 
L 581 0 
L 581 4863 
L 1159 4863 
L 1159 2969 
z
" transform="scale(0.015625)"/>
      <path id="DejaVuSans-69" d="M 603 3500 
L 1178 3500 
L 1178 0 
L 603 0 
L 603 3500 
z
M 603 4863 
L 1178 4863 
L 1178 4134 
L 603 4134 
L 603 4863 
z
" transform="scale(0.015625)"/>
      <path id="DejaVuSans-63" d="M 3122 3366 
L 3122 2828 
Q 2878 2963 2633 3030 
Q 2388 3097 2138 3097 
Q 1578 3097 1268 2742 
Q 959 2388 959 1747 
Q 959 1106 1268 751 
Q 1578 397 2138 397 
Q 2388 397 2633 464 
Q 2878 531 3122 666 
L 3122 134 
Q 2881 22 2623 -34 
Q 2366 -91 2075 -91 
Q 1284 -91 818 406 
Q 353 903 353 1747 
Q 353 2603 823 3093 
Q 1294 3584 2113 3584 
Q 2378 3584 2631 3529 
Q 2884 3475 3122 3366 
z
" transform="scale(0.015625)"/>
     </defs>
     <use xlink:href="#DejaVuSans-49"/>
     <use xlink:href="#DejaVuSans-61" x="29.492188"/>
     <use xlink:href="#DejaVuSans-6d" x="90.771484"/>
     <use xlink:href="#DejaVuSans-62" x="188.183594"/>
     <use xlink:href="#DejaVuSans-69" x="251.660156"/>
     <use xlink:href="#DejaVuSans-63" x="279.443359"/>
    </g>
   </g>
   <g id="text_13">
    <!-- Parse -->
    <g transform="translate(361.832136 153.94988)scale(0.08 -0.08)">
     <defs>
      <path id="DejaVuSans-72" d="M 2631 2963 
Q 2534 3019 2420 3045 
Q 2306 3072 2169 3072 
Q 1681 3072 1420 2755 
Q 1159 2438 1159 1844 
L 1159 0 
L 581 0 
L 581 3500 
L 1159 3500 
L 1159 2956 
Q 1341 3275 1631 3429 
Q 1922 3584 2338 3584 
Q 2397 3584 2469 3576 
Q 2541 3569 2628 3553 
L 2631 2963 
z
" transform="scale(0.015625)"/>
      <path id="DejaVuSans-73" d="M 2834 3397 
L 2834 2853 
Q 2591 2978 2328 3040 
Q 2066 3103 1784 3103 
Q 1356 3103 1142 2972 
Q 928 2841 928 2578 
Q 928 2378 1081 2264 
Q 1234 2150 1697 2047 
L 1894 2003 
Q 2506 1872 2764 1633 
Q 3022 1394 3022 966 
Q 3022 478 2636 193 
Q 2250 -91 1575 -91 
Q 1294 -91 989 -36 
Q 684 19 347 128 
L 347 722 
Q 666 556 975 473 
Q 1284 391 1588 391 
Q 1994 391 2212 530 
Q 2431 669 2431 922 
Q 2431 1156 2273 1281 
Q 2116 1406 1581 1522 
L 1381 1569 
Q 847 1681 609 1914 
Q 372 2147 372 2553 
Q 372 3047 722 3315 
Q 1072 3584 1716 3584 
Q 2034 3584 2315 3537 
Q 2597 3491 2834 3397 
z
" transform="scale(0.015625)"/>
      <path id="DejaVuSans-65" d="M 3597 1894 
L 3597 1613 
L 953 1613 
Q 991 1019 1311 708 
Q 1631 397 2203 397 
Q 2534 397 2845 478 
Q 3156 559 3463 722 
L 3463 178 
Q 3153 47 2828 -22 
Q 2503 -91 2169 -91 
Q 1331 -91 842 396 
Q 353 884 353 1716 
Q 353 2575 817 3079 
Q 1281 3584 2069 3584 
Q 2775 3584 3186 3129 
Q 3597 2675 3597 1894 
z
M 3022 2063 
Q 3016 2534 2758 2815 
Q 2500 3097 2075 3097 
Q 1594 3097 1305 2825 
Q 1016 2553 972 2059 
L 3022 2063 
z
" transform="scale(0.015625)"/>
     </defs>
     <use xlink:href="#DejaVuSans-50"/>
     <use xlink:href="#DejaVuSans-61" x="55.802734"/>
     <use xlink:href="#DejaVuSans-72" x="117.082031"/>
     <use xlink:href="#DejaVuSans-73" x="158.195312"/>
     <use xlink:href="#DejaVuSans-65" x="210.294922"/>
    </g>
   </g>
   <g id="text_14">
    <!-- FootBin -->
    <g transform="translate(361.832136 69.957555)scale(0.08 -0.08)">
     <defs>
      <path id="DejaVuSans-46" d="M 628 4666 
L 3309 4666 
L 3309 4134 
L 1259 4134 
L 1259 2759 
L 3109 2759 
L 3109 2228 
L 1259 2228 
L 1259 0 
L 628 0 
L 628 4666 
z
" transform="scale(0.015625)"/>
      <path id="DejaVuSans-6f" d="M 1959 3097 
Q 1497 3097 1228 2736 
Q 959 2375 959 1747 
Q 959 1119 1226 758 
Q 1494 397 1959 397 
Q 2419 397 2687 759 
Q 2956 1122 2956 1747 
Q 2956 2369 2687 2733 
Q 2419 3097 1959 3097 
z
M 1959 3584 
Q 2709 3584 3137 3096 
Q 3566 2609 3566 1747 
Q 3566 888 3137 398 
Q 2709 -91 1959 -91 
Q 1206 -91 779 398 
Q 353 888 353 1747 
Q 353 2609 779 3096 
Q 1206 3584 1959 3584 
z
" transform="scale(0.015625)"/>
      <path id="DejaVuSans-74" d="M 1172 4494 
L 1172 3500 
L 2356 3500 
L 2356 3053 
L 1172 3053 
L 1172 1153 
Q 1172 725 1289 603 
Q 1406 481 1766 481 
L 2356 481 
L 2356 0 
L 1766 0 
Q 1100 0 847 248 
Q 594 497 594 1153 
L 594 3053 
L 172 3053 
L 172 3500 
L 594 3500 
L 594 4494 
L 1172 4494 
z
" transform="scale(0.015625)"/>
      <path id="DejaVuSans-42" d="M 1259 2228 
L 1259 519 
L 2272 519 
Q 2781 519 3026 730 
Q 3272 941 3272 1375 
Q 3272 1813 3026 2020 
Q 2781 2228 2272 2228 
L 1259 2228 
z
M 1259 4147 
L 1259 2741 
L 2194 2741 
Q 2656 2741 2882 2914 
Q 3109 3088 3109 3444 
Q 3109 3797 2882 3972 
Q 2656 4147 2194 4147 
L 1259 4147 
z
M 628 4666 
L 2241 4666 
Q 2963 4666 3353 4366 
Q 3744 4066 3744 3513 
Q 3744 3084 3544 2831 
Q 3344 2578 2956 2516 
Q 3422 2416 3680 2098 
Q 3938 1781 3938 1306 
Q 3938 681 3513 340 
Q 3088 0 2303 0 
L 628 0 
L 628 4666 
z
" transform="scale(0.015625)"/>
      <path id="DejaVuSans-6e" d="M 3513 2113 
L 3513 0 
L 2938 0 
L 2938 2094 
Q 2938 2591 2744 2837 
Q 2550 3084 2163 3084 
Q 1697 3084 1428 2787 
Q 1159 2491 1159 1978 
L 1159 0 
L 581 0 
L 581 3500 
L 1159 3500 
L 1159 2956 
Q 1366 3272 1645 3428 
Q 1925 3584 2291 3584 
Q 2894 3584 3203 3211 
Q 3513 2838 3513 2113 
z
" transform="scale(0.015625)"/>
     </defs>
     <use xlink:href="#DejaVuSans-46"/>
     <use xlink:href="#DejaVuSans-6f" x="53.894531"/>
     <use xlink:href="#DejaVuSans-6f" x="115.076172"/>
     <use xlink:href="#DejaVuSans-74" x="176.257812"/>
     <use xlink:href="#DejaVuSans-42" x="215.466797"/>
     <use xlink:href="#DejaVuSans-69" x="284.070312"/>
     <use xlink:href="#DejaVuSans-6e" x="311.853516"/>
    </g>
   </g>
   <g id="text_15">
    <!-- WFL -->
    <g transform="translate(361.832136 126.541858)scale(0.08 -0.08)">
     <defs>
      <path id="DejaVuSans-4c" d="M 628 4666 
L 1259 4666 
L 1259 531 
L 3531 531 
L 3531 0 
L 628 0 
L 628 4666 
z
" transform="scale(0.015625)"/>
     </defs>
     <use xlink:href="#DejaVuSans-57"/>
     <use xlink:href="#DejaVuSans-46" x="98.876953"/>
     <use xlink:href="#DejaVuSans-4c" x="156.396484"/>
    </g>
   </g>
   <g id="text_16">
    <!-- WFR -->
    <g transform="translate(361.832136 82.722178)scale(0.08 -0.08)">
     <defs>
      <path id="DejaVuSans-52" d="M 2841 2188 
Q 3044 2119 3236 1894 
Q 3428 1669 3622 1275 
L 4263 0 
L 3584 0 
L 2988 1197 
Q 2756 1666 2539 1819 
Q 2322 1972 1947 1972 
L 1259 1972 
L 1259 0 
L 628 0 
L 628 4666 
L 2053 4666 
Q 2853 4666 3247 4331 
Q 3641 3997 3641 3322 
Q 3641 2881 3436 2590 
Q 3231 2300 2841 2188 
z
M 1259 4147 
L 1259 2491 
L 2053 2491 
Q 2509 2491 2742 2702 
Q 2975 2913 2975 3322 
Q 2975 3731 2742 3939 
Q 2509 4147 2053 4147 
L 1259 4147 
z
" transform="scale(0.015625)"/>
     </defs>
     <use xlink:href="#DejaVuSans-57"/>
     <use xlink:href="#DejaVuSans-46" x="98.876953"/>
     <use xlink:href="#DejaVuSans-52" x="156.396484"/>
    </g>
   </g>
   <g id="text_17">
    <!-- Main-L -->
    <g transform="translate(361.832136 126.21031)scale(0.08 -0.08)">
     <defs>
      <path id="DejaVuSans-4d" d="M 628 4666 
L 1569 4666 
L 2759 1491 
L 3956 4666 
L 4897 4666 
L 4897 0 
L 4281 0 
L 4281 4097 
L 3078 897 
L 2444 897 
L 1241 4097 
L 1241 0 
L 628 0 
L 628 4666 
z
" transform="scale(0.015625)"/>
      <path id="DejaVuSans-2d" d="M 313 2009 
L 1997 2009 
L 1997 1497 
L 313 1497 
L 313 2009 
z
" transform="scale(0.015625)"/>
     </defs>
     <use xlink:href="#DejaVuSans-4d"/>
     <use xlink:href="#DejaVuSans-61" x="86.279297"/>
     <use xlink:href="#DejaVuSans-69" x="147.558594"/>
     <use xlink:href="#DejaVuSans-6e" x="175.341797"/>
     <use xlink:href="#DejaVuSans-2d" x="238.720703"/>
     <use xlink:href="#DejaVuSans-4c" x="274.804688"/>
    </g>
   </g>
   <g id="text_18">
    <!-- Main-R -->
    <g transform="translate(361.832136 79.130401)scale(0.08 -0.08)">
     <use xlink:href="#DejaVuSans-4d"/>
     <use xlink:href="#DejaVuSans-61" x="86.279297"/>
     <use xlink:href="#DejaVuSans-69" x="147.558594"/>
     <use xlink:href="#DejaVuSans-6e" x="175.341797"/>
     <use xlink:href="#DejaVuSans-2d" x="238.720703"/>
     <use xlink:href="#DejaVuSans-52" x="274.804688"/>
    </g>
   </g>
   <g id="text_19">
    <!-- AFL -->
    <g transform="translate(361.832136 119.303046)scale(0.08 -0.08)">
     <defs>
      <path id="DejaVuSans-41" d="M 2188 4044 
L 1331 1722 
L 3047 1722 
L 2188 4044 
z
M 1831 4666 
L 2547 4666 
L 4325 0 
L 3669 0 
L 3244 1197 
L 1141 1197 
L 716 0 
L 50 0 
L 1831 4666 
z
" transform="scale(0.015625)"/>
     </defs>
     <use xlink:href="#DejaVuSans-41"/>
     <use xlink:href="#DejaVuSans-46" x="68.408203"/>
     <use xlink:href="#DejaVuSans-4c" x="125.927734"/>
    </g>
   </g>
   <g id="text_20">
    <!-- AFR -->
    <g transform="translate(361.832136 46.970182)scale(0.08 -0.08)">
     <use xlink:href="#DejaVuSans-41"/>
     <use xlink:href="#DejaVuSans-46" x="68.408203"/>
     <use xlink:href="#DejaVuSans-52" x="125.927734"/>
    </g>
   </g>
   <g id="text_21">
    <!-- Nonfinal -->
    <g transform="translate(361.832136 91.342443)scale(0.08 -0.08)">
     <defs>
      <path id="DejaVuSans-4e" d="M 628 4666 
L 1478 4666 
L 3547 763 
L 3547 4666 
L 4159 4666 
L 4159 0 
L 3309 0 
L 1241 3903 
L 1241 0 
L 628 0 
L 628 4666 
z
" transform="scale(0.015625)"/>
      <path id="DejaVuSans-66" d="M 2375 4863 
L 2375 4384 
L 1825 4384 
Q 1516 4384 1395 4259 
Q 1275 4134 1275 3809 
L 1275 3500 
L 2222 3500 
L 2222 3053 
L 1275 3053 
L 1275 0 
L 697 0 
L 697 3053 
L 147 3053 
L 147 3500 
L 697 3500 
L 697 3744 
Q 697 4328 969 4595 
Q 1241 4863 1831 4863 
L 2375 4863 
z
" transform="scale(0.015625)"/>
      <path id="DejaVuSans-6c" d="M 603 4863 
L 1178 4863 
L 1178 0 
L 603 0 
L 603 4863 
z
" transform="scale(0.015625)"/>
     </defs>
     <use xlink:href="#DejaVuSans-4e"/>
     <use xlink:href="#DejaVuSans-6f" x="74.804688"/>
     <use xlink:href="#DejaVuSans-6e" x="135.986328"/>
     <use xlink:href="#DejaVuSans-66" x="199.365234"/>
     <use xlink:href="#DejaVuSans-69" x="234.570312"/>
     <use xlink:href="#DejaVuSans-6e" x="262.353516"/>
     <use xlink:href="#DejaVuSans-61" x="325.732422"/>
     <use xlink:href="#DejaVuSans-6c" x="387.011719"/>
    </g>
   </g>
   <g id="text_22">
    <!-- Trochaic -->
    <g transform="translate(361.832136 84.269405)scale(0.08 -0.08)">
     <defs>
      <path id="DejaVuSans-54" d="M -19 4666 
L 3928 4666 
L 3928 4134 
L 2272 4134 
L 2272 0 
L 1638 0 
L 1638 4134 
L -19 4134 
L -19 4666 
z
" transform="scale(0.015625)"/>
      <path id="DejaVuSans-68" d="M 3513 2113 
L 3513 0 
L 2938 0 
L 2938 2094 
Q 2938 2591 2744 2837 
Q 2550 3084 2163 3084 
Q 1697 3084 1428 2787 
Q 1159 2491 1159 1978 
L 1159 0 
L 581 0 
L 581 4863 
L 1159 4863 
L 1159 2956 
Q 1366 3272 1645 3428 
Q 1925 3584 2291 3584 
Q 2894 3584 3203 3211 
Q 3513 2838 3513 2113 
z
" transform="scale(0.015625)"/>
     </defs>
     <use xlink:href="#DejaVuSans-54"/>
     <use xlink:href="#DejaVuSans-72" x="46.333984"/>
     <use xlink:href="#DejaVuSans-6f" x="85.197266"/>
     <use xlink:href="#DejaVuSans-63" x="146.378906"/>
     <use xlink:href="#DejaVuSans-68" x="201.359375"/>
     <use xlink:href="#DejaVuSans-61" x="264.738281"/>
     <use xlink:href="#DejaVuSans-69" x="326.017578"/>
     <use xlink:href="#DejaVuSans-63" x="353.800781"/>
    </g>
   </g>
  </g>
  <g id="axes_2">
   <g id="patch_7">
    <path d="M 57.6 307.584 
L 414.72 307.584 
L 414.72 186.624 
L 57.6 186.624 
z
" style="fill: #ffffff"/>
   </g>
   <g id="matplotlib.axis_3">
    <g id="xtick_8">
     <g id="line2d_23">
      <g>
       <use xlink:href="#meef0894c47" x="69.67049" y="307.584" style="stroke: #000000; stroke-width: 0.8"/>
      </g>
     </g>
     <g id="text_23">
      <!-- 0 -->
      <g transform="translate(66.48924 322.182437)scale(0.1 -0.1)">
       <use xlink:href="#DejaVuSans-30"/>
      </g>
     </g>
    </g>
    <g id="xtick_9">
     <g id="line2d_24">
      <g>
       <use xlink:href="#meef0894c47" x="111.292867" y="307.584" style="stroke: #000000; stroke-width: 0.8"/>
      </g>
     </g>
     <g id="text_24">
      <!-- 10 -->
      <g transform="translate(104.930367 322.182437)scale(0.1 -0.1)">
       <use xlink:href="#DejaVuSans-31"/>
       <use xlink:href="#DejaVuSans-30" x="63.623047"/>
      </g>
     </g>
    </g>
    <g id="xtick_10">
     <g id="line2d_25">
      <g>
       <use xlink:href="#meef0894c47" x="152.915245" y="307.584" style="stroke: #000000; stroke-width: 0.8"/>
      </g>
     </g>
     <g id="text_25">
      <!-- 20 -->
      <g transform="translate(146.552745 322.182437)scale(0.1 -0.1)">
       <use xlink:href="#DejaVuSans-32"/>
       <use xlink:href="#DejaVuSans-30" x="63.623047"/>
      </g>
     </g>
    </g>
    <g id="xtick_11">
     <g id="line2d_26">
      <g>
       <use xlink:href="#meef0894c47" x="194.537622" y="307.584" style="stroke: #000000; stroke-width: 0.8"/>
      </g>
     </g>
     <g id="text_26">
      <!-- 30 -->
      <g transform="translate(188.175122 322.182437)scale(0.1 -0.1)">
       <use xlink:href="#DejaVuSans-33"/>
       <use xlink:href="#DejaVuSans-30" x="63.623047"/>
      </g>
     </g>
    </g>
    <g id="xtick_12">
     <g id="line2d_27">
      <g>
       <use xlink:href="#meef0894c47" x="236.16" y="307.584" style="stroke: #000000; stroke-width: 0.8"/>
      </g>
     </g>
     <g id="text_27">
      <!-- 40 -->
      <g transform="translate(229.7975 322.182437)scale(0.1 -0.1)">
       <use xlink:href="#DejaVuSans-34"/>
       <use xlink:href="#DejaVuSans-30" x="63.623047"/>
      </g>
     </g>
    </g>
    <g id="xtick_13">
     <g id="line2d_28">
      <g>
       <use xlink:href="#meef0894c47" x="277.782378" y="307.584" style="stroke: #000000; stroke-width: 0.8"/>
      </g>
     </g>
     <g id="text_28">
      <!-- 50 -->
      <g transform="translate(271.419878 322.182437)scale(0.1 -0.1)">
       <use xlink:href="#DejaVuSans-35"/>
       <use xlink:href="#DejaVuSans-30" x="63.623047"/>
      </g>
     </g>
    </g>
    <g id="xtick_14">
     <g id="line2d_29">
      <g>
       <use xlink:href="#meef0894c47" x="319.404755" y="307.584" style="stroke: #000000; stroke-width: 0.8"/>
      </g>
     </g>
     <g id="text_29">
      <!-- 60 -->
      <g transform="translate(313.042255 322.182437)scale(0.1 -0.1)">
       <use xlink:href="#DejaVuSans-36"/>
       <use xlink:href="#DejaVuSans-30" x="63.623047"/>
      </g>
     </g>
    </g>
    <g id="xtick_15">
     <g id="line2d_30">
      <g>
       <use xlink:href="#meef0894c47" x="361.027133" y="307.584" style="stroke: #000000; stroke-width: 0.8"/>
      </g>
     </g>
     <g id="text_30">
      <!-- 70 -->
      <g transform="translate(354.664633 322.182437)scale(0.1 -0.1)">
       <defs>
        <path id="DejaVuSans-37" d="M 525 4666 
L 3525 4666 
L 3525 4397 
L 1831 0 
L 1172 0 
L 2766 4134 
L 525 4134 
L 525 4666 
z
" transform="scale(0.015625)"/>
       </defs>
       <use xlink:href="#DejaVuSans-37"/>
       <use xlink:href="#DejaVuSans-30" x="63.623047"/>
      </g>
     </g>
    </g>
    <g id="xtick_16">
     <g id="line2d_31">
      <g>
       <use xlink:href="#meef0894c47" x="402.64951" y="307.584" style="stroke: #000000; stroke-width: 0.8"/>
      </g>
     </g>
     <g id="text_31">
      <!-- 80 -->
      <g transform="translate(396.28701 322.182437)scale(0.1 -0.1)">
       <use xlink:href="#DejaVuSans-38"/>
       <use xlink:href="#DejaVuSans-30" x="63.623047"/>
      </g>
     </g>
    </g>
   </g>
   <g id="matplotlib.axis_4">
    <g id="ytick_4">
     <g id="line2d_32">
      <g>
       <use xlink:href="#m38cdc83fd4" x="57.6" y="302.094349" style="stroke: #000000; stroke-width: 0.8"/>
      </g>
     </g>
     <g id="text_32">
      <!-- 0 -->
      <g transform="translate(44.2375 305.893568)scale(0.1 -0.1)">
       <use xlink:href="#DejaVuSans-30"/>
      </g>
     </g>
    </g>
    <g id="ytick_5">
     <g id="line2d_33">
      <g>
       <use xlink:href="#m38cdc83fd4" x="57.6" y="280.767034" style="stroke: #000000; stroke-width: 0.8"/>
      </g>
     </g>
     <g id="text_33">
      <!-- 2500 -->
      <g transform="translate(25.15 284.566253)scale(0.1 -0.1)">
       <use xlink:href="#DejaVuSans-32"/>
       <use xlink:href="#DejaVuSans-35" x="63.623047"/>
       <use xlink:href="#DejaVuSans-30" x="127.246094"/>
       <use xlink:href="#DejaVuSans-30" x="190.869141"/>
      </g>
     </g>
    </g>
    <g id="ytick_6">
     <g id="line2d_34">
      <g>
       <use xlink:href="#m38cdc83fd4" x="57.6" y="259.439719" style="stroke: #000000; stroke-width: 0.8"/>
      </g>
     </g>
     <g id="text_34">
      <!-- 5000 -->
      <g transform="translate(25.15 263.238938)scale(0.1 -0.1)">
       <use xlink:href="#DejaVuSans-35"/>
       <use xlink:href="#DejaVuSans-30" x="63.623047"/>
       <use xlink:href="#DejaVuSans-30" x="127.246094"/>
       <use xlink:href="#DejaVuSans-30" x="190.869141"/>
      </g>
     </g>
    </g>
    <g id="ytick_7">
     <g id="line2d_35">
      <g>
       <use xlink:href="#m38cdc83fd4" x="57.6" y="238.112404" style="stroke: #000000; stroke-width: 0.8"/>
      </g>
     </g>
     <g id="text_35">
      <!-- 7500 -->
      <g transform="translate(25.15 241.911623)scale(0.1 -0.1)">
       <use xlink:href="#DejaVuSans-37"/>
       <use xlink:href="#DejaVuSans-35" x="63.623047"/>
       <use xlink:href="#DejaVuSans-30" x="127.246094"/>
       <use xlink:href="#DejaVuSans-30" x="190.869141"/>
      </g>
     </g>
    </g>
    <g id="ytick_8">
     <g id="line2d_36">
      <g>
       <use xlink:href="#m38cdc83fd4" x="57.6" y="216.785089" style="stroke: #000000; stroke-width: 0.8"/>
      </g>
     </g>
     <g id="text_36">
      <!-- 10000 -->
      <g transform="translate(18.7875 220.584308)scale(0.1 -0.1)">
       <use xlink:href="#DejaVuSans-31"/>
       <use xlink:href="#DejaVuSans-30" x="63.623047"/>
       <use xlink:href="#DejaVuSans-30" x="127.246094"/>
       <use xlink:href="#DejaVuSans-30" x="190.869141"/>
       <use xlink:href="#DejaVuSans-30" x="254.492188"/>
      </g>
     </g>
    </g>
    <g id="ytick_9">
     <g id="line2d_37">
      <g>
       <use xlink:href="#m38cdc83fd4" x="57.6" y="195.457774" style="stroke: #000000; stroke-width: 0.8"/>
      </g>
     </g>
     <g id="text_37">
      <!-- 12500 -->
      <g transform="translate(18.7875 199.256993)scale(0.1 -0.1)">
       <use xlink:href="#DejaVuSans-31"/>
       <use xlink:href="#DejaVuSans-32" x="63.623047"/>
       <use xlink:href="#DejaVuSans-35" x="127.246094"/>
       <use xlink:href="#DejaVuSans-30" x="190.869141"/>
       <use xlink:href="#DejaVuSans-30" x="254.492188"/>
      </g>
     </g>
    </g>
   </g>
   <g id="line2d_38">
    <path d="M 73.832727 302.085818 
L 77.994965 302.085818 
L 82.157203 302.068756 
L 86.319441 302.085818 
L 90.481678 302.085818 
L 94.643916 302.085818 
L 98.806154 302.077287 
L 102.968392 302.077287 
L 107.130629 302.051694 
L 111.292867 302.068756 
L 115.455105 302.077287 
L 119.617343 302.085818 
L 123.77958 302.085818 
L 127.941818 302.085818 
L 132.104056 302.085818 
L 136.266294 302.043164 
L 140.428531 302.077287 
L 144.590769 302.043164 
L 148.753007 302.077287 
L 152.915245 302.077287 
L 157.077483 302.077287 
L 161.23972 302.085818 
L 165.401958 302.034633 
L 169.564196 302.085818 
L 173.726434 302.000509 
L 177.888671 302.043164 
L 182.050909 302.00904 
L 186.213147 302.060225 
L 190.375385 302.085818 
L 194.537622 302.034633 
L 198.69986 302.085818 
L 202.862098 302.051694 
L 207.024336 302.068756 
L 211.186573 301.940792 
L 215.348811 301.991978 
L 219.511049 301.505715 
L 223.673287 300.891489 
L 227.835524 301.932262 
L 231.997762 301.991978 
L 236.16 301.9152 
L 240.322238 301.872545 
L 244.484476 301.872545 
L 248.646713 301.949323 
L 252.808951 302.034633 
L 256.971189 301.684865 
L 261.133427 300.891489 
L 265.295664 299.52654 
L 269.457902 301.949323 
L 273.62014 300.763525 
L 277.782378 301.002391 
L 281.944615 301.770174 
L 286.106853 299.739814 
L 290.269091 301.505715 
L 294.431329 301.343628 
L 298.593566 302.000509 
L 302.755804 300.371102 
L 306.918042 299.808061 
L 311.08028 298.647855 
L 315.242517 301.309504 
L 319.404755 300.499066 
L 323.566993 297.325561 
L 327.729231 294.169119 
L 331.891469 297.044041 
L 336.053706 297.965381 
L 340.215944 289.528295 
L 344.378182 301.778705 
L 348.54042 301.983447 
L 352.702657 295.721747 
L 356.864895 301.983447 
L 361.027133 193.683341 
L 365.189371 287.625899 
L 369.351608 284.375616 
L 373.513846 297.905664 
L 377.676084 275.460798 
L 381.838322 282.029611 
L 386.000559 291.575717 
L 390.162797 251.377994 
L 394.325035 252.478483 
L 398.487273 192.122182 
" clip-path="url(#p41e5e66b0b)" style="fill: none; stroke: #1f77b4; stroke-width: 1.5; stroke-linecap: square"/>
   </g>
   <g id="patch_8">
    <path d="M 57.6 307.584 
L 57.6 186.624 
" style="fill: none; stroke: #000000; stroke-width: 0.8; stroke-linejoin: miter; stroke-linecap: square"/>
   </g>
   <g id="patch_9">
    <path d="M 414.72 307.584 
L 414.72 186.624 
" style="fill: none; stroke: #000000; stroke-width: 0.8; stroke-linejoin: miter; stroke-linecap: square"/>
   </g>
   <g id="patch_10">
    <path d="M 57.6 307.584 
L 414.72 307.584 
" style="fill: none; stroke: #000000; stroke-width: 0.8; stroke-linejoin: miter; stroke-linecap: square"/>
   </g>
   <g id="patch_11">
    <path d="M 57.6 186.624 
L 414.72 186.624 
" style="fill: none; stroke: #000000; stroke-width: 0.8; stroke-linejoin: miter; stroke-linecap: square"/>
   </g>
  </g>
 </g>
 <defs>
  <clipPath id="p57700da343">
   <rect x="57.6" y="41.472" width="357.12" height="120.96"/>
  </clipPath>
  <clipPath id="p41e5e66b0b">
   <rect x="57.6" y="186.624" width="357.12" height="120.96"/>
  </clipPath>
 </defs>
</svg>
