<?xml version="1.0" encoding="utf-8" standalone="no"?>
<!DOCTYPE svg PUBLIC "-//W3C//DTD SVG 1.1//EN"
  "http://www.w3.org/Graphics/SVG/1.1/DTD/svg11.dtd">
<svg xmlns:xlink="http://www.w3.org/1999/xlink" width="460.8pt" height="345.6pt" viewBox="0 0 460.8 345.6" xmlns="http://www.w3.org/2000/svg" version="1.1">
 <metadata>
  <rdf:RDF xmlns:dc="http://purl.org/dc/elements/1.1/" xmlns:cc="http://creativecommons.org/ns#" xmlns:rdf="http://www.w3.org/1999/02/22-rdf-syntax-ns#">
   <cc:Work>
    <dc:type rdf:resource="http://purl.org/dc/dcmitype/StillImage"/>
    <dc:date>2022-05-14T01:15:32.387662</dc:date>
    <dc:format>image/svg+xml</dc:format>
    <dc:creator>
     <cc:Agent>
      <dc:title>Matplotlib v3.5.1, https://matplotlib.org/</dc:title>
     </cc:Agent>
    </dc:creator>
   </cc:Work>
  </rdf:RDF>
 </metadata>
 <defs>
  <style type="text/css">*{stroke-linejoin: round; stroke-linecap: butt}</style>
 </defs>
 <g id="figure_1">
  <g id="patch_1">
   <path d="M 0 345.6 
L 460.8 345.6 
L 460.8 0 
L 0 0 
z
" style="fill: #ffffff"/>
  </g>
  <g id="axes_1">
   <g id="patch_2">
    <path d="M 57.6 162.432 
L 414.72 162.432 
L 414.72 41.472 
L 57.6 41.472 
z
" style="fill: #ffffff"/>
   </g>
   <g id="matplotlib.axis_1">
    <g id="xtick_1">
     <g id="line2d_1">
      <defs>
       <path id="m87bfb3d1ec" d="M 0 0 
L 0 3.5 
" style="stroke: #000000; stroke-width: 0.8"/>
      </defs>
      <g>
       <use xlink:href="#m87bfb3d1ec" x="73.827491" y="162.432" style="stroke: #000000; stroke-width: 0.8"/>
      </g>
     </g>
     <g id="text_1">
      <!-- 0 -->
      <g transform="translate(70.646241 177.030437)scale(0.1 -0.1)">
       <defs>
        <path id="DejaVuSans-30" d="M 2034 4250 
Q 1547 4250 1301 3770 
Q 1056 3291 1056 2328 
Q 1056 1369 1301 889 
Q 1547 409 2034 409 
Q 2525 409 2770 889 
Q 3016 1369 3016 2328 
Q 3016 3291 2770 3770 
Q 2525 4250 2034 4250 
z
M 2034 4750 
Q 2819 4750 3233 4129 
Q 3647 3509 3647 2328 
Q 3647 1150 3233 529 
Q 2819 -91 2034 -91 
Q 1250 -91 836 529 
Q 422 1150 422 2328 
Q 422 3509 836 4129 
Q 1250 4750 2034 4750 
z
" transform="scale(0.015625)"/>
       </defs>
       <use xlink:href="#DejaVuSans-30"/>
      </g>
     </g>
    </g>
    <g id="xtick_2">
     <g id="line2d_2">
      <g>
       <use xlink:href="#m87bfb3d1ec" x="126.191972" y="162.432" style="stroke: #000000; stroke-width: 0.8"/>
      </g>
     </g>
     <g id="text_2">
      <!-- 10000 -->
      <g transform="translate(110.285722 177.030437)scale(0.1 -0.1)">
       <defs>
        <path id="DejaVuSans-31" d="M 794 531 
L 1825 531 
L 1825 4091 
L 703 3866 
L 703 4441 
L 1819 4666 
L 2450 4666 
L 2450 531 
L 3481 531 
L 3481 0 
L 794 0 
L 794 531 
z
" transform="scale(0.015625)"/>
       </defs>
       <use xlink:href="#DejaVuSans-31"/>
       <use xlink:href="#DejaVuSans-30" x="63.623047"/>
       <use xlink:href="#DejaVuSans-30" x="127.246094"/>
       <use xlink:href="#DejaVuSans-30" x="190.869141"/>
       <use xlink:href="#DejaVuSans-30" x="254.492188"/>
      </g>
     </g>
    </g>
    <g id="xtick_3">
     <g id="line2d_3">
      <g>
       <use xlink:href="#m87bfb3d1ec" x="178.556453" y="162.432" style="stroke: #000000; stroke-width: 0.8"/>
      </g>
     </g>
     <g id="text_3">
      <!-- 20000 -->
      <g transform="translate(162.650203 177.030437)scale(0.1 -0.1)">
       <defs>
        <path id="DejaVuSans-32" d="M 1228 531 
L 3431 531 
L 3431 0 
L 469 0 
L 469 531 
Q 828 903 1448 1529 
Q 2069 2156 2228 2338 
Q 2531 2678 2651 2914 
Q 2772 3150 2772 3378 
Q 2772 3750 2511 3984 
Q 2250 4219 1831 4219 
Q 1534 4219 1204 4116 
Q 875 4013 500 3803 
L 500 4441 
Q 881 4594 1212 4672 
Q 1544 4750 1819 4750 
Q 2544 4750 2975 4387 
Q 3406 4025 3406 3419 
Q 3406 3131 3298 2873 
Q 3191 2616 2906 2266 
Q 2828 2175 2409 1742 
Q 1991 1309 1228 531 
z
" transform="scale(0.015625)"/>
       </defs>
       <use xlink:href="#DejaVuSans-32"/>
       <use xlink:href="#DejaVuSans-30" x="63.623047"/>
       <use xlink:href="#DejaVuSans-30" x="127.246094"/>
       <use xlink:href="#DejaVuSans-30" x="190.869141"/>
       <use xlink:href="#DejaVuSans-30" x="254.492188"/>
      </g>
     </g>
    </g>
    <g id="xtick_4">
     <g id="line2d_4">
      <g>
       <use xlink:href="#m87bfb3d1ec" x="230.920934" y="162.432" style="stroke: #000000; stroke-width: 0.8"/>
      </g>
     </g>
     <g id="text_4">
      <!-- 30000 -->
      <g transform="translate(215.014684 177.030437)scale(0.1 -0.1)">
       <defs>
        <path id="DejaVuSans-33" d="M 2597 2516 
Q 3050 2419 3304 2112 
Q 3559 1806 3559 1356 
Q 3559 666 3084 287 
Q 2609 -91 1734 -91 
Q 1441 -91 1130 -33 
Q 819 25 488 141 
L 488 750 
Q 750 597 1062 519 
Q 1375 441 1716 441 
Q 2309 441 2620 675 
Q 2931 909 2931 1356 
Q 2931 1769 2642 2001 
Q 2353 2234 1838 2234 
L 1294 2234 
L 1294 2753 
L 1863 2753 
Q 2328 2753 2575 2939 
Q 2822 3125 2822 3475 
Q 2822 3834 2567 4026 
Q 2313 4219 1838 4219 
Q 1578 4219 1281 4162 
Q 984 4106 628 3988 
L 628 4550 
Q 988 4650 1302 4700 
Q 1616 4750 1894 4750 
Q 2613 4750 3031 4423 
Q 3450 4097 3450 3541 
Q 3450 3153 3228 2886 
Q 3006 2619 2597 2516 
z
" transform="scale(0.015625)"/>
       </defs>
       <use xlink:href="#DejaVuSans-33"/>
       <use xlink:href="#DejaVuSans-30" x="63.623047"/>
       <use xlink:href="#DejaVuSans-30" x="127.246094"/>
       <use xlink:href="#DejaVuSans-30" x="190.869141"/>
       <use xlink:href="#DejaVuSans-30" x="254.492188"/>
      </g>
     </g>
    </g>
    <g id="xtick_5">
     <g id="line2d_5">
      <g>
       <use xlink:href="#m87bfb3d1ec" x="283.285415" y="162.432" style="stroke: #000000; stroke-width: 0.8"/>
      </g>
     </g>
     <g id="text_5">
      <!-- 40000 -->
      <g transform="translate(267.379165 177.030437)scale(0.1 -0.1)">
       <defs>
        <path id="DejaVuSans-34" d="M 2419 4116 
L 825 1625 
L 2419 1625 
L 2419 4116 
z
M 2253 4666 
L 3047 4666 
L 3047 1625 
L 3713 1625 
L 3713 1100 
L 3047 1100 
L 3047 0 
L 2419 0 
L 2419 1100 
L 313 1100 
L 313 1709 
L 2253 4666 
z
" transform="scale(0.015625)"/>
       </defs>
       <use xlink:href="#DejaVuSans-34"/>
       <use xlink:href="#DejaVuSans-30" x="63.623047"/>
       <use xlink:href="#DejaVuSans-30" x="127.246094"/>
       <use xlink:href="#DejaVuSans-30" x="190.869141"/>
       <use xlink:href="#DejaVuSans-30" x="254.492188"/>
      </g>
     </g>
    </g>
    <g id="xtick_6">
     <g id="line2d_6">
      <g>
       <use xlink:href="#m87bfb3d1ec" x="335.649896" y="162.432" style="stroke: #000000; stroke-width: 0.8"/>
      </g>
     </g>
     <g id="text_6">
      <!-- 50000 -->
      <g transform="translate(319.743646 177.030437)scale(0.1 -0.1)">
       <defs>
        <path id="DejaVuSans-35" d="M 691 4666 
L 3169 4666 
L 3169 4134 
L 1269 4134 
L 1269 2991 
Q 1406 3038 1543 3061 
Q 1681 3084 1819 3084 
Q 2600 3084 3056 2656 
Q 3513 2228 3513 1497 
Q 3513 744 3044 326 
Q 2575 -91 1722 -91 
Q 1428 -91 1123 -41 
Q 819 9 494 109 
L 494 744 
Q 775 591 1075 516 
Q 1375 441 1709 441 
Q 2250 441 2565 725 
Q 2881 1009 2881 1497 
Q 2881 1984 2565 2268 
Q 2250 2553 1709 2553 
Q 1456 2553 1204 2497 
Q 953 2441 691 2322 
L 691 4666 
z
" transform="scale(0.015625)"/>
       </defs>
       <use xlink:href="#DejaVuSans-35"/>
       <use xlink:href="#DejaVuSans-30" x="63.623047"/>
       <use xlink:href="#DejaVuSans-30" x="127.246094"/>
       <use xlink:href="#DejaVuSans-30" x="190.869141"/>
       <use xlink:href="#DejaVuSans-30" x="254.492188"/>
      </g>
     </g>
    </g>
    <g id="xtick_7">
     <g id="line2d_7">
      <g>
       <use xlink:href="#m87bfb3d1ec" x="388.014377" y="162.432" style="stroke: #000000; stroke-width: 0.8"/>
      </g>
     </g>
     <g id="text_7">
      <!-- 60000 -->
      <g transform="translate(372.108127 177.030437)scale(0.1 -0.1)">
       <defs>
        <path id="DejaVuSans-36" d="M 2113 2584 
Q 1688 2584 1439 2293 
Q 1191 2003 1191 1497 
Q 1191 994 1439 701 
Q 1688 409 2113 409 
Q 2538 409 2786 701 
Q 3034 994 3034 1497 
Q 3034 2003 2786 2293 
Q 2538 2584 2113 2584 
z
M 3366 4563 
L 3366 3988 
Q 3128 4100 2886 4159 
Q 2644 4219 2406 4219 
Q 1781 4219 1451 3797 
Q 1122 3375 1075 2522 
Q 1259 2794 1537 2939 
Q 1816 3084 2150 3084 
Q 2853 3084 3261 2657 
Q 3669 2231 3669 1497 
Q 3669 778 3244 343 
Q 2819 -91 2113 -91 
Q 1303 -91 875 529 
Q 447 1150 447 2328 
Q 447 3434 972 4092 
Q 1497 4750 2381 4750 
Q 2619 4750 2861 4703 
Q 3103 4656 3366 4563 
z
" transform="scale(0.015625)"/>
       </defs>
       <use xlink:href="#DejaVuSans-36"/>
       <use xlink:href="#DejaVuSans-30" x="63.623047"/>
       <use xlink:href="#DejaVuSans-30" x="127.246094"/>
       <use xlink:href="#DejaVuSans-30" x="190.869141"/>
       <use xlink:href="#DejaVuSans-30" x="254.492188"/>
      </g>
     </g>
    </g>
   </g>
   <g id="matplotlib.axis_2">
    <g id="ytick_1">
     <g id="line2d_8">
      <defs>
       <path id="md9b70806ea" d="M 0 0 
L -3.5 0 
" style="stroke: #000000; stroke-width: 0.8"/>
      </defs>
      <g>
       <use xlink:href="#md9b70806ea" x="57.6" y="134.197375" style="stroke: #000000; stroke-width: 0.8"/>
      </g>
     </g>
     <g id="text_8">
      <!-- 80 -->
      <g transform="translate(37.875 137.996594)scale(0.1 -0.1)">
       <defs>
        <path id="DejaVuSans-38" d="M 2034 2216 
Q 1584 2216 1326 1975 
Q 1069 1734 1069 1313 
Q 1069 891 1326 650 
Q 1584 409 2034 409 
Q 2484 409 2743 651 
Q 3003 894 3003 1313 
Q 3003 1734 2745 1975 
Q 2488 2216 2034 2216 
z
M 1403 2484 
Q 997 2584 770 2862 
Q 544 3141 544 3541 
Q 544 4100 942 4425 
Q 1341 4750 2034 4750 
Q 2731 4750 3128 4425 
Q 3525 4100 3525 3541 
Q 3525 3141 3298 2862 
Q 3072 2584 2669 2484 
Q 3125 2378 3379 2068 
Q 3634 1759 3634 1313 
Q 3634 634 3220 271 
Q 2806 -91 2034 -91 
Q 1263 -91 848 271 
Q 434 634 434 1313 
Q 434 1759 690 2068 
Q 947 2378 1403 2484 
z
M 1172 3481 
Q 1172 3119 1398 2916 
Q 1625 2713 2034 2713 
Q 2441 2713 2670 2916 
Q 2900 3119 2900 3481 
Q 2900 3844 2670 4047 
Q 2441 4250 2034 4250 
Q 1625 4250 1398 4047 
Q 1172 3844 1172 3481 
z
" transform="scale(0.015625)"/>
       </defs>
       <use xlink:href="#DejaVuSans-38"/>
       <use xlink:href="#DejaVuSans-30" x="63.623047"/>
      </g>
     </g>
    </g>
    <g id="ytick_2">
     <g id="line2d_9">
      <g>
       <use xlink:href="#md9b70806ea" x="57.6" y="102.323858" style="stroke: #000000; stroke-width: 0.8"/>
      </g>
     </g>
     <g id="text_9">
      <!-- 90 -->
      <g transform="translate(37.875 106.123076)scale(0.1 -0.1)">
       <defs>
        <path id="DejaVuSans-39" d="M 703 97 
L 703 672 
Q 941 559 1184 500 
Q 1428 441 1663 441 
Q 2288 441 2617 861 
Q 2947 1281 2994 2138 
Q 2813 1869 2534 1725 
Q 2256 1581 1919 1581 
Q 1219 1581 811 2004 
Q 403 2428 403 3163 
Q 403 3881 828 4315 
Q 1253 4750 1959 4750 
Q 2769 4750 3195 4129 
Q 3622 3509 3622 2328 
Q 3622 1225 3098 567 
Q 2575 -91 1691 -91 
Q 1453 -91 1209 -44 
Q 966 3 703 97 
z
M 1959 2075 
Q 2384 2075 2632 2365 
Q 2881 2656 2881 3163 
Q 2881 3666 2632 3958 
Q 2384 4250 1959 4250 
Q 1534 4250 1286 3958 
Q 1038 3666 1038 3163 
Q 1038 2656 1286 2365 
Q 1534 2075 1959 2075 
z
" transform="scale(0.015625)"/>
       </defs>
       <use xlink:href="#DejaVuSans-39"/>
       <use xlink:href="#DejaVuSans-30" x="63.623047"/>
      </g>
     </g>
    </g>
    <g id="ytick_3">
     <g id="line2d_10">
      <g>
       <use xlink:href="#md9b70806ea" x="57.6" y="70.45034" style="stroke: #000000; stroke-width: 0.8"/>
      </g>
     </g>
     <g id="text_10">
      <!-- 100 -->
      <g transform="translate(31.5125 74.249559)scale(0.1 -0.1)">
       <use xlink:href="#DejaVuSans-31"/>
       <use xlink:href="#DejaVuSans-30" x="63.623047"/>
       <use xlink:href="#DejaVuSans-30" x="127.246094"/>
      </g>
     </g>
    </g>
   </g>
   <g id="line2d_11">
    <path d="M 73.832727 70.45034 
L 73.93222 67.262988 
L 73.942693 70.45034 
L 74.021239 67.794213 
L 73.974111 70.981565 
L 74.031712 70.981565 
L 74.136441 75.762593 
L 74.146914 74.168917 
L 74.188806 74.168917 
L 74.288298 72.575241 
L 74.293535 75.762593 
L 74.304008 75.762593 
L 74.340663 74.168917 
L 74.345899 77.356269 
L 74.413973 75.762593 
L 74.419209 75.762593 
L 74.534411 78.949945 
L 74.539648 78.949945 
L 74.633904 75.762593 
L 74.649613 78.949945 
L 74.675795 78.949945 
L 74.790997 77.356269 
L 75.822578 77.356269 
L 75.937779 80.543621 
L 76.016326 80.543621 
L 76.131528 78.949945 
L 76.361932 78.949945 
L 76.382877 82.137296 
L 76.471897 80.543621 
L 77.053143 80.543621 
L 77.168345 78.949945 
L 77.92763 78.949945 
L 78.042832 82.137296 
L 78.419856 82.137296 
L 78.535058 80.543621 
L 78.974919 80.543621 
L 79.090121 78.949945 
L 79.440963 78.949945 
L 79.556165 82.137296 
L 79.613766 82.137296 
L 79.728968 80.543621 
L 82.326246 80.543621 
L 82.441448 78.949945 
L 85.436696 78.949945 
L 85.551898 82.137296 
L 87.007631 82.137296 
L 87.122833 80.543621 
L 91.526685 80.543621 
L 91.641887 83.730972 
L 92.422118 83.730972 
L 92.53732 82.137296 
L 94.019235 82.137296 
L 94.134437 85.324648 
L 96.543203 85.324648 
L 96.658405 83.730972 
L 99.596052 83.730972 
L 99.711254 82.137296 
L 111.042927 82.137296 
L 111.158129 85.324648 
L 122.044705 85.324648 
L 122.159907 83.730972 
L 159.54291 83.730972 
L 159.658112 82.137296 
L 184.478876 82.137296 
L 184.594077 81.074846 
L 201.984322 81.074846 
L 202.099523 84.262198 
L 364.900695 84.262198 
L 365.015897 82.668522 
L 398.487273 82.668522 
L 398.487273 82.668522 
" clip-path="url(#p7397aec2f8)" style="fill: none; stroke: #1f77b4; stroke-width: 1.5; stroke-linecap: square"/>
   </g>
   <g id="line2d_12">
    <path d="M 73.832727 70.45034 
L 73.853673 68.856664 
L 73.911274 75.762593 
L 73.921747 75.762593 
L 73.93222 75.762593 
L 73.942693 78.949945 
L 74.026476 74.168917 
L 74.036949 74.168917 
L 74.125968 74.168917 
L 74.178333 77.356269 
L 74.235934 74.168917 
L 74.288298 74.168917 
L 74.4035 77.356269 
L 74.408737 77.356269 
L 74.534411 72.575241 
L 74.885253 72.575241 
L 75.000455 75.762593 
L 75.822578 75.762593 
L 75.937779 78.949945 
L 76.063454 78.949945 
L 76.178656 75.762593 
L 82.326246 75.762593 
L 82.441448 74.168917 
L 90.432268 74.168917 
L 90.54747 70.981565 
L 398.487273 70.981565 
L 398.487273 70.981565 
" clip-path="url(#p7397aec2f8)" style="fill: none; stroke: #ff7f0e; stroke-width: 1.5; stroke-linecap: square"/>
   </g>
   <g id="line2d_13">
    <path d="M 73.832727 70.45034 
L 73.837964 70.45034 
L 73.942693 82.137296 
L 73.963638 81.074846 
L 73.968875 81.074846 
L 74.052658 95.417929 
L 74.099786 93.824253 
L 74.105023 93.824253 
L 74.120732 100.198957 
L 74.214988 95.417929 
L 74.288298 95.417929 
L 74.4035 99.402119 
L 74.419209 99.402119 
L 74.534411 102.58947 
L 74.539648 102.58947 
L 74.65485 107.370498 
L 74.675795 107.370498 
L 74.790997 105.776822 
L 74.885253 105.776822 
L 75.000455 105.139352 
L 75.068529 105.139352 
L 75.183731 108.326704 
L 75.822578 108.326704 
L 75.937779 111.514055 
L 76.016326 111.514055 
L 76.131528 109.920379 
L 76.361932 109.920379 
L 76.382877 113.107731 
L 76.471897 111.514055 
L 76.801793 111.514055 
L 76.916995 114.701407 
L 77.053143 114.701407 
L 77.168345 113.107731 
L 77.92763 113.107731 
L 78.042832 116.295083 
L 78.419856 116.295083 
L 78.535058 114.701407 
L 78.974919 114.701407 
L 79.090121 113.107731 
L 79.116303 113.107731 
L 79.231505 116.295083 
L 79.383362 116.295083 
L 79.425254 115.498245 
L 79.4462 121.872949 
L 79.456673 121.872949 
L 80.854804 121.872949 
L 80.970006 125.0603 
L 85.436696 125.0603 
L 85.551898 128.247652 
L 91.526685 128.247652 
L 91.641887 131.435004 
L 92.422118 131.435004 
L 92.53732 129.841328 
L 94.019235 129.841328 
L 94.134437 133.02868 
L 98.428324 133.02868 
L 98.543526 132.231842 
L 99.229501 132.231842 
L 99.344702 131.435004 
L 99.596052 131.435004 
L 99.711254 129.841328 
L 106.848533 129.841328 
L 106.963734 133.02868 
L 111.042927 133.02868 
L 111.158129 136.216032 
L 122.044705 136.216032 
L 122.159907 134.622356 
L 138.167729 134.622356 
L 138.28293 137.809708 
L 159.54291 137.809708 
L 159.658112 136.216032 
L 167.067686 136.216032 
L 167.182887 139.403383 
L 184.478876 139.403383 
L 184.594077 138.340933 
L 201.984322 138.340933 
L 202.099523 141.528285 
L 364.900695 141.528285 
L 365.015897 139.934609 
L 398.487273 139.934609 
L 398.487273 139.934609 
" clip-path="url(#p7397aec2f8)" style="fill: none; stroke: #2ca02c; stroke-width: 1.5; stroke-linecap: square"/>
   </g>
   <g id="line2d_14">
    <path d="M 73.832727 70.45034 
L 73.837964 70.45034 
L 73.906038 68.112949 
L 73.911274 71.3003 
L 73.937456 71.3003 
L 74.16786 71.3003 
L 74.293535 69.069154 
L 74.309244 69.069154 
L 74.419209 68.272316 
L 74.534411 71.459668 
L 74.885253 71.459668 
L 75.000455 70.822198 
L 77.92763 70.822198 
L 78.042832 74.009549 
L 78.184216 74.009549 
L 78.299417 73.212711 
L 79.383362 73.212711 
L 79.498564 72.415874 
L 89.222648 72.415874 
L 89.33785 71.619036 
L 91.526685 71.619036 
L 91.641887 74.806387 
L 98.428324 74.806387 
L 98.543526 74.009549 
L 99.229501 74.009549 
L 99.344702 73.212711 
L 111.042927 73.212711 
L 111.158129 76.400063 
L 122.924428 76.400063 
L 123.03963 75.603225 
L 180.022658 75.603225 
L 180.13786 74.806387 
L 398.487273 74.806387 
L 398.487273 74.806387 
" clip-path="url(#p7397aec2f8)" style="fill: none; stroke: #d62728; stroke-width: 1.5; stroke-linecap: square"/>
   </g>
   <g id="line2d_15">
    <path d="M 73.832727 70.45034 
L 73.853673 70.45034 
L 73.968875 69.81287 
L 74.633904 69.81287 
L 74.749106 73.000221 
L 398.487273 73.000221 
L 398.487273 73.000221 
" clip-path="url(#p7397aec2f8)" style="fill: none; stroke: #9467bd; stroke-width: 1.5; stroke-linecap: square"/>
   </g>
   <g id="line2d_16">
    <path d="M 73.832727 70.45034 
L 73.837964 70.45034 
L 73.974111 88.512 
L 74.021239 88.512 
L 74.152151 101.261407 
L 74.288298 101.261407 
L 74.408737 107.636111 
L 74.419209 107.636111 
L 74.534411 110.823462 
L 74.633904 110.823462 
L 74.749106 114.010814 
L 75.822578 114.010814 
L 75.937779 117.198166 
L 76.361932 117.198166 
L 76.477134 120.385518 
L 77.92763 120.385518 
L 78.042832 123.57287 
L 79.440963 123.57287 
L 79.556165 126.760221 
L 85.436696 126.760221 
L 85.551898 129.947573 
L 91.526685 129.947573 
L 91.641887 133.134925 
L 94.019235 133.134925 
L 94.134437 136.322277 
L 111.042927 136.322277 
L 111.158129 139.509628 
L 201.984322 139.509628 
L 202.099523 142.69698 
L 398.487273 142.69698 
L 398.487273 142.69698 
" clip-path="url(#p7397aec2f8)" style="fill: none; stroke: #8c564b; stroke-width: 1.5; stroke-linecap: square"/>
   </g>
   <g id="line2d_17">
    <path d="M 73.832727 67.262988 
L 73.853673 67.262988 
L 73.974111 65.563067 
L 74.633904 65.563067 
L 74.749106 68.750419 
L 398.487273 68.750419 
L 398.487273 68.750419 
" clip-path="url(#p7397aec2f8)" style="fill: none; stroke: #e377c2; stroke-width: 1.5; stroke-linecap: square"/>
   </g>
   <g id="line2d_18">
    <path d="M 73.832727 73.637692 
L 73.93222 85.112158 
L 73.958402 84.474688 
L 74.016003 84.474688 
L 74.136441 90.849391 
L 74.16786 90.849391 
L 74.293535 88.618245 
L 74.309244 88.618245 
L 74.408737 87.821407 
L 74.529175 94.196111 
L 74.539648 94.196111 
L 74.65485 97.383462 
L 74.675795 97.383462 
L 74.790997 100.570814 
L 74.885253 100.570814 
L 75.000455 99.933344 
L 75.822578 99.933344 
L 75.937779 99.295874 
L 76.382877 99.295874 
L 76.498079 102.483225 
L 77.92763 102.483225 
L 78.042832 105.670577 
L 78.184216 105.670577 
L 78.299417 104.873739 
L 79.383362 104.873739 
L 79.498564 104.076901 
L 79.613766 104.076901 
L 79.728968 107.264253 
L 87.007631 107.264253 
L 87.122833 110.451605 
L 89.222648 110.451605 
L 89.33785 109.654767 
L 91.526685 109.654767 
L 91.641887 112.842119 
L 96.543203 112.842119 
L 96.658405 116.02947 
L 98.428324 116.02947 
L 98.543526 115.232632 
L 99.229501 115.232632 
L 99.344702 114.435794 
L 111.042927 114.435794 
L 111.158129 117.623146 
L 122.924428 117.623146 
L 123.03963 116.826308 
L 180.022658 116.826308 
L 180.13786 116.02947 
L 184.478876 116.02947 
L 184.594077 119.216822 
L 398.487273 119.216822 
L 398.487273 119.216822 
" clip-path="url(#p7397aec2f8)" style="fill: none; stroke: #7f7f7f; stroke-width: 1.5; stroke-linecap: square"/>
   </g>
   <g id="line2d_19">
    <path d="M 73.832727 70.45034 
L 73.953166 78.524964 
L 73.968875 78.524964 
L 74.052658 76.400063 
L 74.00553 80.11864 
L 74.068367 79.587415 
L 74.16786 85.962119 
L 74.183569 85.165281 
L 74.188806 85.165281 
L 74.204515 88.352632 
L 74.298771 86.918324 
L 74.304008 86.918324 
L 74.419209 92.230577 
L 74.550121 92.230577 
L 74.633904 95.417929 
L 74.660086 94.355478 
L 74.675795 94.355478 
L 74.790997 97.54283 
L 74.885253 97.54283 
L 75.000455 96.90536 
L 75.068529 96.90536 
L 75.183731 95.842909 
L 75.822578 95.842909 
L 75.937779 95.205439 
L 76.016326 95.205439 
L 76.131528 98.392791 
L 76.361932 98.392791 
L 76.382877 97.33034 
L 76.388114 100.517692 
L 76.461424 100.517692 
L 76.801793 100.517692 
L 76.916995 99.455241 
L 77.053143 99.455241 
L 77.168345 102.642593 
L 78.184216 102.642593 
L 78.299417 101.845755 
L 78.419856 101.845755 
L 78.535058 105.033107 
L 78.974919 105.033107 
L 79.090121 108.220458 
L 79.116303 108.220458 
L 79.231505 107.158008 
L 79.425254 107.158008 
L 79.545692 105.033107 
L 79.613766 105.033107 
L 79.728968 108.220458 
L 80.854804 108.220458 
L 80.970006 107.158008 
L 85.436696 107.158008 
L 85.551898 105.564332 
L 87.007631 105.564332 
L 87.122833 108.751684 
L 89.222648 108.751684 
L 89.33785 107.954846 
L 92.422118 107.954846 
L 92.53732 111.142198 
L 94.019235 111.142198 
L 94.134437 109.548522 
L 96.543203 109.548522 
L 96.658405 112.735874 
L 99.596052 112.735874 
L 99.711254 115.923225 
L 106.848533 115.923225 
L 106.963734 114.329549 
L 122.044705 114.329549 
L 122.159907 117.516901 
L 122.924428 117.516901 
L 123.03963 116.720063 
L 138.167729 116.720063 
L 138.28293 115.657613 
L 159.54291 115.657613 
L 159.658112 118.844964 
L 167.067686 118.844964 
L 167.182887 117.782514 
L 180.022658 117.782514 
L 180.13786 116.985676 
L 184.478876 116.985676 
L 184.594077 120.173028 
L 201.984322 120.173028 
L 202.099523 118.579352 
L 364.900695 118.579352 
L 365.015897 121.766704 
L 398.487273 121.766704 
L 398.487273 121.766704 
" clip-path="url(#p7397aec2f8)" style="fill: none; stroke: #bcbd22; stroke-width: 1.5; stroke-linecap: square"/>
   </g>
   <g id="line2d_20">
    <path d="M 73.832727 70.45034 
L 73.963638 83.412237 
L 74.000294 83.412237 
L 74.125968 97.224095 
L 74.131205 96.161644 
L 74.136441 96.161644 
L 74.204515 101.73951 
L 74.251643 100.942672 
L 74.288298 100.942672 
L 74.304008 100.305202 
L 74.309244 103.492553 
L 74.382554 102.695715 
L 74.408737 102.695715 
L 74.529175 109.070419 
L 74.539648 109.070419 
L 74.660086 115.445123 
L 74.675795 115.445123 
L 74.790997 118.632474 
L 74.885253 118.632474 
L 75.000455 117.995004 
L 75.068529 117.995004 
L 75.183731 116.932553 
L 75.822578 116.932553 
L 75.937779 116.295083 
L 76.016326 116.295083 
L 76.131528 119.482435 
L 76.382877 119.482435 
L 76.498079 122.669787 
L 76.801793 122.669787 
L 76.916995 121.607336 
L 77.053143 121.607336 
L 77.168345 124.794688 
L 77.92763 124.794688 
L 78.042832 127.98204 
L 78.184216 127.98204 
L 78.299417 127.185202 
L 78.419856 127.185202 
L 78.535058 130.372553 
L 78.974919 130.372553 
L 79.090121 133.559905 
L 79.116303 133.559905 
L 79.231505 132.497455 
L 79.383362 132.497455 
L 79.503801 130.638166 
L 79.613766 130.638166 
L 79.728968 133.825518 
L 80.854804 133.825518 
L 80.970006 132.763067 
L 87.007631 132.763067 
L 87.122833 135.950419 
L 89.222648 135.950419 
L 89.33785 135.153581 
L 91.526685 135.153581 
L 91.641887 138.340933 
L 92.422118 138.340933 
L 92.53732 141.528285 
L 96.543203 141.528285 
L 96.658405 144.715636 
L 98.428324 144.715636 
L 98.543526 143.918798 
L 99.229501 143.918798 
L 99.344702 143.12196 
L 99.596052 143.12196 
L 99.711254 146.309312 
L 106.848533 146.309312 
L 106.963734 144.715636 
L 111.042927 144.715636 
L 111.158129 147.902988 
L 122.044705 147.902988 
L 122.159907 151.09034 
L 122.924428 151.09034 
L 123.03963 150.293502 
L 138.167729 150.293502 
L 138.28293 149.231051 
L 159.54291 149.231051 
L 159.658112 152.418403 
L 167.067686 152.418403 
L 167.182887 151.355953 
L 180.022658 151.355953 
L 180.13786 150.559115 
L 184.478876 150.559115 
L 184.594077 153.746466 
L 364.900695 153.746466 
L 365.015897 156.933818 
L 398.487273 156.933818 
L 398.487273 156.933818 
" clip-path="url(#p7397aec2f8)" style="fill: none; stroke: #17becf; stroke-width: 1.5; stroke-linecap: square"/>
   </g>
   <g id="line2d_21">
    <path d="M 73.832727 70.45034 
L 73.837964 70.45034 
L 73.906038 67.475478 
L 73.911274 70.66283 
L 73.947929 70.02536 
L 73.968875 70.02536 
L 74.089313 65.775557 
L 74.105023 65.775557 
L 74.225461 63.650656 
L 74.288298 63.650656 
L 74.408737 61.950735 
L 74.419209 61.950735 
L 74.534411 60.357059 
L 74.633904 60.357059 
L 74.749106 59.294609 
L 75.822578 59.294609 
L 75.937779 58.657138 
L 76.361932 58.657138 
L 76.477134 57.594688 
L 77.92763 57.594688 
L 78.042832 56.001012 
L 79.440963 56.001012 
L 79.556165 54.938561 
L 85.436696 54.938561 
L 85.551898 53.344885 
L 91.526685 53.344885 
L 91.641887 51.751209 
L 94.019235 51.751209 
L 94.134437 50.157534 
L 111.042927 50.157534 
L 111.158129 48.563858 
L 201.984322 48.563858 
L 202.099523 46.970182 
L 398.487273 46.970182 
L 398.487273 46.970182 
" clip-path="url(#p7397aec2f8)" style="fill: none; stroke: #1f77b4; stroke-width: 1.5; stroke-linecap: square"/>
   </g>
   <g id="line2d_22">
    <path d="M 73.832727 70.45034 
L 73.837964 70.45034 
L 73.963638 81.924806 
L 74.016003 81.924806 
L 74.026476 83.518482 
L 74.131205 79.799905 
L 74.16786 79.799905 
L 74.293535 89.36196 
L 74.309244 89.36196 
L 74.340663 92.549312 
L 74.419209 91.486862 
L 74.487283 89.893186 
L 74.49252 93.080538 
L 74.523938 93.080538 
L 74.539648 93.080538 
L 74.550121 91.486862 
L 74.555357 94.674213 
L 74.644377 93.611763 
L 74.885253 93.611763 
L 75.000455 96.799115 
L 75.068529 96.799115 
L 75.183731 95.736664 
L 75.822578 95.736664 
L 75.937779 95.099194 
L 76.063454 95.099194 
L 76.178656 98.286545 
L 76.361932 98.286545 
L 76.477134 97.224095 
L 76.801793 97.224095 
L 76.916995 96.161644 
L 77.92763 96.161644 
L 78.042832 94.567968 
L 78.184216 94.567968 
L 78.299417 97.75532 
L 78.419856 97.75532 
L 78.535058 100.942672 
L 79.116303 100.942672 
L 79.231505 99.880221 
L 79.383362 99.880221 
L 79.425254 103.067573 
L 79.493328 100.942672 
L 79.613766 100.942672 
L 79.728968 99.348996 
L 80.854804 99.348996 
L 80.970006 98.286545 
L 82.326246 98.286545 
L 82.441448 101.473897 
L 87.007631 101.473897 
L 87.122833 99.880221 
L 89.222648 99.880221 
L 89.33785 103.067573 
L 90.432268 103.067573 
L 90.54747 106.254925 
L 91.526685 106.254925 
L 91.641887 104.661249 
L 96.543203 104.661249 
L 96.658405 103.067573 
L 98.428324 103.067573 
L 98.543526 106.254925 
L 99.229501 106.254925 
L 99.344702 109.442277 
L 111.042927 109.442277 
L 111.158129 107.848601 
L 122.924428 107.848601 
L 123.03963 111.035953 
L 138.167729 111.035953 
L 138.28293 109.973502 
L 167.067686 109.973502 
L 167.182887 108.911051 
L 180.022658 108.911051 
L 180.13786 112.098403 
L 184.478876 112.098403 
L 184.594077 111.035953 
L 398.487273 111.035953 
L 398.487273 111.035953 
" clip-path="url(#p7397aec2f8)" style="fill: none; stroke: #ff7f0e; stroke-width: 1.5; stroke-linecap: square"/>
   </g>
   <g id="patch_3">
    <path d="M 57.6 162.432 
L 57.6 41.472 
" style="fill: none; stroke: #000000; stroke-width: 0.8; stroke-linejoin: miter; stroke-linecap: square"/>
   </g>
   <g id="patch_4">
    <path d="M 414.72 162.432 
L 414.72 41.472 
" style="fill: none; stroke: #000000; stroke-width: 0.8; stroke-linejoin: miter; stroke-linecap: square"/>
   </g>
   <g id="patch_5">
    <path d="M 57.6 162.432 
L 414.72 162.432 
" style="fill: none; stroke: #000000; stroke-width: 0.8; stroke-linejoin: miter; stroke-linecap: square"/>
   </g>
   <g id="patch_6">
    <path d="M 57.6 41.472 
L 414.72 41.472 
" style="fill: none; stroke: #000000; stroke-width: 0.8; stroke-linejoin: miter; stroke-linecap: square"/>
   </g>
   <g id="text_11">
    <!-- WSP -->
    <g transform="translate(361.832136 82.668522)scale(0.08 -0.08)">
     <defs>
      <path id="DejaVuSans-57" d="M 213 4666 
L 850 4666 
L 1831 722 
L 2809 4666 
L 3519 4666 
L 4500 722 
L 5478 4666 
L 6119 4666 
L 4947 0 
L 4153 0 
L 3169 4050 
L 2175 0 
L 1381 0 
L 213 4666 
z
" transform="scale(0.015625)"/>
      <path id="DejaVuSans-53" d="M 3425 4513 
L 3425 3897 
Q 3066 4069 2747 4153 
Q 2428 4238 2131 4238 
Q 1616 4238 1336 4038 
Q 1056 3838 1056 3469 
Q 1056 3159 1242 3001 
Q 1428 2844 1947 2747 
L 2328 2669 
Q 3034 2534 3370 2195 
Q 3706 1856 3706 1288 
Q 3706 609 3251 259 
Q 2797 -91 1919 -91 
Q 1588 -91 1214 -16 
Q 841 59 441 206 
L 441 856 
Q 825 641 1194 531 
Q 1563 422 1919 422 
Q 2459 422 2753 634 
Q 3047 847 3047 1241 
Q 3047 1584 2836 1778 
Q 2625 1972 2144 2069 
L 1759 2144 
Q 1053 2284 737 2584 
Q 422 2884 422 3419 
Q 422 4038 858 4394 
Q 1294 4750 2059 4750 
Q 2388 4750 2728 4690 
Q 3069 4631 3425 4513 
z
" transform="scale(0.015625)"/>
      <path id="DejaVuSans-50" d="M 1259 4147 
L 1259 2394 
L 2053 2394 
Q 2494 2394 2734 2622 
Q 2975 2850 2975 3272 
Q 2975 3691 2734 3919 
Q 2494 4147 2053 4147 
L 1259 4147 
z
M 628 4666 
L 2053 4666 
Q 2838 4666 3239 4311 
Q 3641 3956 3641 3272 
Q 3641 2581 3239 2228 
Q 2838 1875 2053 1875 
L 1259 1875 
L 1259 0 
L 628 0 
L 628 4666 
z
" transform="scale(0.015625)"/>
     </defs>
     <use xlink:href="#DejaVuSans-57"/>
     <use xlink:href="#DejaVuSans-53" x="98.876953"/>
     <use xlink:href="#DejaVuSans-50" x="162.353516"/>
    </g>
   </g>
   <g id="text_12">
    <!-- Iambic -->
    <g transform="translate(361.832136 70.981565)scale(0.08 -0.08)">
     <defs>
      <path id="DejaVuSans-49" d="M 628 4666 
L 1259 4666 
L 1259 0 
L 628 0 
L 628 4666 
z
" transform="scale(0.015625)"/>
      <path id="DejaVuSans-61" d="M 2194 1759 
Q 1497 1759 1228 1600 
Q 959 1441 959 1056 
Q 959 750 1161 570 
Q 1363 391 1709 391 
Q 2188 391 2477 730 
Q 2766 1069 2766 1631 
L 2766 1759 
L 2194 1759 
z
M 3341 1997 
L 3341 0 
L 2766 0 
L 2766 531 
Q 2569 213 2275 61 
Q 1981 -91 1556 -91 
Q 1019 -91 701 211 
Q 384 513 384 1019 
Q 384 1609 779 1909 
Q 1175 2209 1959 2209 
L 2766 2209 
L 2766 2266 
Q 2766 2663 2505 2880 
Q 2244 3097 1772 3097 
Q 1472 3097 1187 3025 
Q 903 2953 641 2809 
L 641 3341 
Q 956 3463 1253 3523 
Q 1550 3584 1831 3584 
Q 2591 3584 2966 3190 
Q 3341 2797 3341 1997 
z
" transform="scale(0.015625)"/>
      <path id="DejaVuSans-6d" d="M 3328 2828 
Q 3544 3216 3844 3400 
Q 4144 3584 4550 3584 
Q 5097 3584 5394 3201 
Q 5691 2819 5691 2113 
L 5691 0 
L 5113 0 
L 5113 2094 
Q 5113 2597 4934 2840 
Q 4756 3084 4391 3084 
Q 3944 3084 3684 2787 
Q 3425 2491 3425 1978 
L 3425 0 
L 2847 0 
L 2847 2094 
Q 2847 2600 2669 2842 
Q 2491 3084 2119 3084 
Q 1678 3084 1418 2786 
Q 1159 2488 1159 1978 
L 1159 0 
L 581 0 
L 581 3500 
L 1159 3500 
L 1159 2956 
Q 1356 3278 1631 3431 
Q 1906 3584 2284 3584 
Q 2666 3584 2933 3390 
Q 3200 3197 3328 2828 
z
" transform="scale(0.015625)"/>
      <path id="DejaVuSans-62" d="M 3116 1747 
Q 3116 2381 2855 2742 
Q 2594 3103 2138 3103 
Q 1681 3103 1420 2742 
Q 1159 2381 1159 1747 
Q 1159 1113 1420 752 
Q 1681 391 2138 391 
Q 2594 391 2855 752 
Q 3116 1113 3116 1747 
z
M 1159 2969 
Q 1341 3281 1617 3432 
Q 1894 3584 2278 3584 
Q 2916 3584 3314 3078 
Q 3713 2572 3713 1747 
Q 3713 922 3314 415 
Q 2916 -91 2278 -91 
Q 1894 -91 1617 61 
Q 1341 213 1159 525 
L 1159 0 
L 581 0 
L 581 4863 
L 1159 4863 
L 1159 2969 
z
" transform="scale(0.015625)"/>
      <path id="DejaVuSans-69" d="M 603 3500 
L 1178 3500 
L 1178 0 
L 603 0 
L 603 3500 
z
M 603 4863 
L 1178 4863 
L 1178 4134 
L 603 4134 
L 603 4863 
z
" transform="scale(0.015625)"/>
      <path id="DejaVuSans-63" d="M 3122 3366 
L 3122 2828 
Q 2878 2963 2633 3030 
Q 2388 3097 2138 3097 
Q 1578 3097 1268 2742 
Q 959 2388 959 1747 
Q 959 1106 1268 751 
Q 1578 397 2138 397 
Q 2388 397 2633 464 
Q 2878 531 3122 666 
L 3122 134 
Q 2881 22 2623 -34 
Q 2366 -91 2075 -91 
Q 1284 -91 818 406 
Q 353 903 353 1747 
Q 353 2603 823 3093 
Q 1294 3584 2113 3584 
Q 2378 3584 2631 3529 
Q 2884 3475 3122 3366 
z
" transform="scale(0.015625)"/>
     </defs>
     <use xlink:href="#DejaVuSans-49"/>
     <use xlink:href="#DejaVuSans-61" x="29.492188"/>
     <use xlink:href="#DejaVuSans-6d" x="90.771484"/>
     <use xlink:href="#DejaVuSans-62" x="188.183594"/>
     <use xlink:href="#DejaVuSans-69" x="251.660156"/>
     <use xlink:href="#DejaVuSans-63" x="279.443359"/>
    </g>
   </g>
   <g id="text_13">
    <!-- Parse -->
    <g transform="translate(361.832136 139.934609)scale(0.08 -0.08)">
     <defs>
      <path id="DejaVuSans-72" d="M 2631 2963 
Q 2534 3019 2420 3045 
Q 2306 3072 2169 3072 
Q 1681 3072 1420 2755 
Q 1159 2438 1159 1844 
L 1159 0 
L 581 0 
L 581 3500 
L 1159 3500 
L 1159 2956 
Q 1341 3275 1631 3429 
Q 1922 3584 2338 3584 
Q 2397 3584 2469 3576 
Q 2541 3569 2628 3553 
L 2631 2963 
z
" transform="scale(0.015625)"/>
      <path id="DejaVuSans-73" d="M 2834 3397 
L 2834 2853 
Q 2591 2978 2328 3040 
Q 2066 3103 1784 3103 
Q 1356 3103 1142 2972 
Q 928 2841 928 2578 
Q 928 2378 1081 2264 
Q 1234 2150 1697 2047 
L 1894 2003 
Q 2506 1872 2764 1633 
Q 3022 1394 3022 966 
Q 3022 478 2636 193 
Q 2250 -91 1575 -91 
Q 1294 -91 989 -36 
Q 684 19 347 128 
L 347 722 
Q 666 556 975 473 
Q 1284 391 1588 391 
Q 1994 391 2212 530 
Q 2431 669 2431 922 
Q 2431 1156 2273 1281 
Q 2116 1406 1581 1522 
L 1381 1569 
Q 847 1681 609 1914 
Q 372 2147 372 2553 
Q 372 3047 722 3315 
Q 1072 3584 1716 3584 
Q 2034 3584 2315 3537 
Q 2597 3491 2834 3397 
z
" transform="scale(0.015625)"/>
      <path id="DejaVuSans-65" d="M 3597 1894 
L 3597 1613 
L 953 1613 
Q 991 1019 1311 708 
Q 1631 397 2203 397 
Q 2534 397 2845 478 
Q 3156 559 3463 722 
L 3463 178 
Q 3153 47 2828 -22 
Q 2503 -91 2169 -91 
Q 1331 -91 842 396 
Q 353 884 353 1716 
Q 353 2575 817 3079 
Q 1281 3584 2069 3584 
Q 2775 3584 3186 3129 
Q 3597 2675 3597 1894 
z
M 3022 2063 
Q 3016 2534 2758 2815 
Q 2500 3097 2075 3097 
Q 1594 3097 1305 2825 
Q 1016 2553 972 2059 
L 3022 2063 
z
" transform="scale(0.015625)"/>
     </defs>
     <use xlink:href="#DejaVuSans-50"/>
     <use xlink:href="#DejaVuSans-61" x="55.802734"/>
     <use xlink:href="#DejaVuSans-72" x="117.082031"/>
     <use xlink:href="#DejaVuSans-73" x="158.195312"/>
     <use xlink:href="#DejaVuSans-65" x="210.294922"/>
    </g>
   </g>
   <g id="text_14">
    <!-- FootBin -->
    <g transform="translate(361.832136 74.806387)scale(0.08 -0.08)">
     <defs>
      <path id="DejaVuSans-46" d="M 628 4666 
L 3309 4666 
L 3309 4134 
L 1259 4134 
L 1259 2759 
L 3109 2759 
L 3109 2228 
L 1259 2228 
L 1259 0 
L 628 0 
L 628 4666 
z
" transform="scale(0.015625)"/>
      <path id="DejaVuSans-6f" d="M 1959 3097 
Q 1497 3097 1228 2736 
Q 959 2375 959 1747 
Q 959 1119 1226 758 
Q 1494 397 1959 397 
Q 2419 397 2687 759 
Q 2956 1122 2956 1747 
Q 2956 2369 2687 2733 
Q 2419 3097 1959 3097 
z
M 1959 3584 
Q 2709 3584 3137 3096 
Q 3566 2609 3566 1747 
Q 3566 888 3137 398 
Q 2709 -91 1959 -91 
Q 1206 -91 779 398 
Q 353 888 353 1747 
Q 353 2609 779 3096 
Q 1206 3584 1959 3584 
z
" transform="scale(0.015625)"/>
      <path id="DejaVuSans-74" d="M 1172 4494 
L 1172 3500 
L 2356 3500 
L 2356 3053 
L 1172 3053 
L 1172 1153 
Q 1172 725 1289 603 
Q 1406 481 1766 481 
L 2356 481 
L 2356 0 
L 1766 0 
Q 1100 0 847 248 
Q 594 497 594 1153 
L 594 3053 
L 172 3053 
L 172 3500 
L 594 3500 
L 594 4494 
L 1172 4494 
z
" transform="scale(0.015625)"/>
      <path id="DejaVuSans-42" d="M 1259 2228 
L 1259 519 
L 2272 519 
Q 2781 519 3026 730 
Q 3272 941 3272 1375 
Q 3272 1813 3026 2020 
Q 2781 2228 2272 2228 
L 1259 2228 
z
M 1259 4147 
L 1259 2741 
L 2194 2741 
Q 2656 2741 2882 2914 
Q 3109 3088 3109 3444 
Q 3109 3797 2882 3972 
Q 2656 4147 2194 4147 
L 1259 4147 
z
M 628 4666 
L 2241 4666 
Q 2963 4666 3353 4366 
Q 3744 4066 3744 3513 
Q 3744 3084 3544 2831 
Q 3344 2578 2956 2516 
Q 3422 2416 3680 2098 
Q 3938 1781 3938 1306 
Q 3938 681 3513 340 
Q 3088 0 2303 0 
L 628 0 
L 628 4666 
z
" transform="scale(0.015625)"/>
      <path id="DejaVuSans-6e" d="M 3513 2113 
L 3513 0 
L 2938 0 
L 2938 2094 
Q 2938 2591 2744 2837 
Q 2550 3084 2163 3084 
Q 1697 3084 1428 2787 
Q 1159 2491 1159 1978 
L 1159 0 
L 581 0 
L 581 3500 
L 1159 3500 
L 1159 2956 
Q 1366 3272 1645 3428 
Q 1925 3584 2291 3584 
Q 2894 3584 3203 3211 
Q 3513 2838 3513 2113 
z
" transform="scale(0.015625)"/>
     </defs>
     <use xlink:href="#DejaVuSans-46"/>
     <use xlink:href="#DejaVuSans-6f" x="53.894531"/>
     <use xlink:href="#DejaVuSans-6f" x="115.076172"/>
     <use xlink:href="#DejaVuSans-74" x="176.257812"/>
     <use xlink:href="#DejaVuSans-42" x="215.466797"/>
     <use xlink:href="#DejaVuSans-69" x="284.070312"/>
     <use xlink:href="#DejaVuSans-6e" x="311.853516"/>
    </g>
   </g>
   <g id="text_15">
    <!-- WFL -->
    <g transform="translate(361.832136 73.000221)scale(0.08 -0.08)">
     <defs>
      <path id="DejaVuSans-4c" d="M 628 4666 
L 1259 4666 
L 1259 531 
L 3531 531 
L 3531 0 
L 628 0 
L 628 4666 
z
" transform="scale(0.015625)"/>
     </defs>
     <use xlink:href="#DejaVuSans-57"/>
     <use xlink:href="#DejaVuSans-46" x="98.876953"/>
     <use xlink:href="#DejaVuSans-4c" x="156.396484"/>
    </g>
   </g>
   <g id="text_16">
    <!-- WFR -->
    <g transform="translate(361.832136 142.69698)scale(0.08 -0.08)">
     <defs>
      <path id="DejaVuSans-52" d="M 2841 2188 
Q 3044 2119 3236 1894 
Q 3428 1669 3622 1275 
L 4263 0 
L 3584 0 
L 2988 1197 
Q 2756 1666 2539 1819 
Q 2322 1972 1947 1972 
L 1259 1972 
L 1259 0 
L 628 0 
L 628 4666 
L 2053 4666 
Q 2853 4666 3247 4331 
Q 3641 3997 3641 3322 
Q 3641 2881 3436 2590 
Q 3231 2300 2841 2188 
z
M 1259 4147 
L 1259 2491 
L 2053 2491 
Q 2509 2491 2742 2702 
Q 2975 2913 2975 3322 
Q 2975 3731 2742 3939 
Q 2509 4147 2053 4147 
L 1259 4147 
z
" transform="scale(0.015625)"/>
     </defs>
     <use xlink:href="#DejaVuSans-57"/>
     <use xlink:href="#DejaVuSans-46" x="98.876953"/>
     <use xlink:href="#DejaVuSans-52" x="156.396484"/>
    </g>
   </g>
   <g id="text_17">
    <!-- Main-L -->
    <g transform="translate(361.832136 68.750419)scale(0.08 -0.08)">
     <defs>
      <path id="DejaVuSans-4d" d="M 628 4666 
L 1569 4666 
L 2759 1491 
L 3956 4666 
L 4897 4666 
L 4897 0 
L 4281 0 
L 4281 4097 
L 3078 897 
L 2444 897 
L 1241 4097 
L 1241 0 
L 628 0 
L 628 4666 
z
" transform="scale(0.015625)"/>
      <path id="DejaVuSans-2d" d="M 313 2009 
L 1997 2009 
L 1997 1497 
L 313 1497 
L 313 2009 
z
" transform="scale(0.015625)"/>
     </defs>
     <use xlink:href="#DejaVuSans-4d"/>
     <use xlink:href="#DejaVuSans-61" x="86.279297"/>
     <use xlink:href="#DejaVuSans-69" x="147.558594"/>
     <use xlink:href="#DejaVuSans-6e" x="175.341797"/>
     <use xlink:href="#DejaVuSans-2d" x="238.720703"/>
     <use xlink:href="#DejaVuSans-4c" x="274.804688"/>
    </g>
   </g>
   <g id="text_18">
    <!-- Main-R -->
    <g transform="translate(361.832136 119.216822)scale(0.08 -0.08)">
     <use xlink:href="#DejaVuSans-4d"/>
     <use xlink:href="#DejaVuSans-61" x="86.279297"/>
     <use xlink:href="#DejaVuSans-69" x="147.558594"/>
     <use xlink:href="#DejaVuSans-6e" x="175.341797"/>
     <use xlink:href="#DejaVuSans-2d" x="238.720703"/>
     <use xlink:href="#DejaVuSans-52" x="274.804688"/>
    </g>
   </g>
   <g id="text_19">
    <!-- AFL -->
    <g transform="translate(361.832136 121.766704)scale(0.08 -0.08)">
     <defs>
      <path id="DejaVuSans-41" d="M 2188 4044 
L 1331 1722 
L 3047 1722 
L 2188 4044 
z
M 1831 4666 
L 2547 4666 
L 4325 0 
L 3669 0 
L 3244 1197 
L 1141 1197 
L 716 0 
L 50 0 
L 1831 4666 
z
" transform="scale(0.015625)"/>
     </defs>
     <use xlink:href="#DejaVuSans-41"/>
     <use xlink:href="#DejaVuSans-46" x="68.408203"/>
     <use xlink:href="#DejaVuSans-4c" x="125.927734"/>
    </g>
   </g>
   <g id="text_20">
    <!-- AFR -->
    <g transform="translate(361.832136 156.933818)scale(0.08 -0.08)">
     <use xlink:href="#DejaVuSans-41"/>
     <use xlink:href="#DejaVuSans-46" x="68.408203"/>
     <use xlink:href="#DejaVuSans-52" x="125.927734"/>
    </g>
   </g>
   <g id="text_21">
    <!-- Nonfinal -->
    <g transform="translate(361.832136 46.970182)scale(0.08 -0.08)">
     <defs>
      <path id="DejaVuSans-4e" d="M 628 4666 
L 1478 4666 
L 3547 763 
L 3547 4666 
L 4159 4666 
L 4159 0 
L 3309 0 
L 1241 3903 
L 1241 0 
L 628 0 
L 628 4666 
z
" transform="scale(0.015625)"/>
      <path id="DejaVuSans-66" d="M 2375 4863 
L 2375 4384 
L 1825 4384 
Q 1516 4384 1395 4259 
Q 1275 4134 1275 3809 
L 1275 3500 
L 2222 3500 
L 2222 3053 
L 1275 3053 
L 1275 0 
L 697 0 
L 697 3053 
L 147 3053 
L 147 3500 
L 697 3500 
L 697 3744 
Q 697 4328 969 4595 
Q 1241 4863 1831 4863 
L 2375 4863 
z
" transform="scale(0.015625)"/>
      <path id="DejaVuSans-6c" d="M 603 4863 
L 1178 4863 
L 1178 0 
L 603 0 
L 603 4863 
z
" transform="scale(0.015625)"/>
     </defs>
     <use xlink:href="#DejaVuSans-4e"/>
     <use xlink:href="#DejaVuSans-6f" x="74.804688"/>
     <use xlink:href="#DejaVuSans-6e" x="135.986328"/>
     <use xlink:href="#DejaVuSans-66" x="199.365234"/>
     <use xlink:href="#DejaVuSans-69" x="234.570312"/>
     <use xlink:href="#DejaVuSans-6e" x="262.353516"/>
     <use xlink:href="#DejaVuSans-61" x="325.732422"/>
     <use xlink:href="#DejaVuSans-6c" x="387.011719"/>
    </g>
   </g>
   <g id="text_22">
    <!-- Trochaic -->
    <g transform="translate(361.832136 111.035953)scale(0.08 -0.08)">
     <defs>
      <path id="DejaVuSans-54" d="M -19 4666 
L 3928 4666 
L 3928 4134 
L 2272 4134 
L 2272 0 
L 1638 0 
L 1638 4134 
L -19 4134 
L -19 4666 
z
" transform="scale(0.015625)"/>
      <path id="DejaVuSans-68" d="M 3513 2113 
L 3513 0 
L 2938 0 
L 2938 2094 
Q 2938 2591 2744 2837 
Q 2550 3084 2163 3084 
Q 1697 3084 1428 2787 
Q 1159 2491 1159 1978 
L 1159 0 
L 581 0 
L 581 4863 
L 1159 4863 
L 1159 2956 
Q 1366 3272 1645 3428 
Q 1925 3584 2291 3584 
Q 2894 3584 3203 3211 
Q 3513 2838 3513 2113 
z
" transform="scale(0.015625)"/>
     </defs>
     <use xlink:href="#DejaVuSans-54"/>
     <use xlink:href="#DejaVuSans-72" x="46.333984"/>
     <use xlink:href="#DejaVuSans-6f" x="85.197266"/>
     <use xlink:href="#DejaVuSans-63" x="146.378906"/>
     <use xlink:href="#DejaVuSans-68" x="201.359375"/>
     <use xlink:href="#DejaVuSans-61" x="264.738281"/>
     <use xlink:href="#DejaVuSans-69" x="326.017578"/>
     <use xlink:href="#DejaVuSans-63" x="353.800781"/>
    </g>
   </g>
  </g>
  <g id="axes_2">
   <g id="patch_7">
    <path d="M 57.6 307.584 
L 414.72 307.584 
L 414.72 186.624 
L 57.6 186.624 
z
" style="fill: #ffffff"/>
   </g>
   <g id="matplotlib.axis_3">
    <g id="xtick_8">
     <g id="line2d_23">
      <g>
       <use xlink:href="#m87bfb3d1ec" x="69.774545" y="307.584" style="stroke: #000000; stroke-width: 0.8"/>
      </g>
     </g>
     <g id="text_23">
      <!-- 0 -->
      <g transform="translate(66.593295 322.182437)scale(0.1 -0.1)">
       <use xlink:href="#DejaVuSans-30"/>
      </g>
     </g>
    </g>
    <g id="xtick_9">
     <g id="line2d_24">
      <g>
       <use xlink:href="#m87bfb3d1ec" x="110.356364" y="307.584" style="stroke: #000000; stroke-width: 0.8"/>
      </g>
     </g>
     <g id="text_24">
      <!-- 10 -->
      <g transform="translate(103.993864 322.182437)scale(0.1 -0.1)">
       <use xlink:href="#DejaVuSans-31"/>
       <use xlink:href="#DejaVuSans-30" x="63.623047"/>
      </g>
     </g>
    </g>
    <g id="xtick_10">
     <g id="line2d_25">
      <g>
       <use xlink:href="#m87bfb3d1ec" x="150.938182" y="307.584" style="stroke: #000000; stroke-width: 0.8"/>
      </g>
     </g>
     <g id="text_25">
      <!-- 20 -->
      <g transform="translate(144.575682 322.182437)scale(0.1 -0.1)">
       <use xlink:href="#DejaVuSans-32"/>
       <use xlink:href="#DejaVuSans-30" x="63.623047"/>
      </g>
     </g>
    </g>
    <g id="xtick_11">
     <g id="line2d_26">
      <g>
       <use xlink:href="#m87bfb3d1ec" x="191.52" y="307.584" style="stroke: #000000; stroke-width: 0.8"/>
      </g>
     </g>
     <g id="text_26">
      <!-- 30 -->
      <g transform="translate(185.1575 322.182437)scale(0.1 -0.1)">
       <use xlink:href="#DejaVuSans-33"/>
       <use xlink:href="#DejaVuSans-30" x="63.623047"/>
      </g>
     </g>
    </g>
    <g id="xtick_12">
     <g id="line2d_27">
      <g>
       <use xlink:href="#m87bfb3d1ec" x="232.101818" y="307.584" style="stroke: #000000; stroke-width: 0.8"/>
      </g>
     </g>
     <g id="text_27">
      <!-- 40 -->
      <g transform="translate(225.739318 322.182437)scale(0.1 -0.1)">
       <use xlink:href="#DejaVuSans-34"/>
       <use xlink:href="#DejaVuSans-30" x="63.623047"/>
      </g>
     </g>
    </g>
    <g id="xtick_13">
     <g id="line2d_28">
      <g>
       <use xlink:href="#m87bfb3d1ec" x="272.683636" y="307.584" style="stroke: #000000; stroke-width: 0.8"/>
      </g>
     </g>
     <g id="text_28">
      <!-- 50 -->
      <g transform="translate(266.321136 322.182437)scale(0.1 -0.1)">
       <use xlink:href="#DejaVuSans-35"/>
       <use xlink:href="#DejaVuSans-30" x="63.623047"/>
      </g>
     </g>
    </g>
    <g id="xtick_14">
     <g id="line2d_29">
      <g>
       <use xlink:href="#m87bfb3d1ec" x="313.265455" y="307.584" style="stroke: #000000; stroke-width: 0.8"/>
      </g>
     </g>
     <g id="text_29">
      <!-- 60 -->
      <g transform="translate(306.902955 322.182437)scale(0.1 -0.1)">
       <use xlink:href="#DejaVuSans-36"/>
       <use xlink:href="#DejaVuSans-30" x="63.623047"/>
      </g>
     </g>
    </g>
    <g id="xtick_15">
     <g id="line2d_30">
      <g>
       <use xlink:href="#m87bfb3d1ec" x="353.847273" y="307.584" style="stroke: #000000; stroke-width: 0.8"/>
      </g>
     </g>
     <g id="text_30">
      <!-- 70 -->
      <g transform="translate(347.484773 322.182437)scale(0.1 -0.1)">
       <defs>
        <path id="DejaVuSans-37" d="M 525 4666 
L 3525 4666 
L 3525 4397 
L 1831 0 
L 1172 0 
L 2766 4134 
L 525 4134 
L 525 4666 
z
" transform="scale(0.015625)"/>
       </defs>
       <use xlink:href="#DejaVuSans-37"/>
       <use xlink:href="#DejaVuSans-30" x="63.623047"/>
      </g>
     </g>
    </g>
    <g id="xtick_16">
     <g id="line2d_31">
      <g>
       <use xlink:href="#m87bfb3d1ec" x="394.429091" y="307.584" style="stroke: #000000; stroke-width: 0.8"/>
      </g>
     </g>
     <g id="text_31">
      <!-- 80 -->
      <g transform="translate(388.066591 322.182437)scale(0.1 -0.1)">
       <use xlink:href="#DejaVuSans-38"/>
       <use xlink:href="#DejaVuSans-30" x="63.623047"/>
      </g>
     </g>
    </g>
   </g>
   <g id="matplotlib.axis_4">
    <g id="ytick_4">
     <g id="line2d_32">
      <g>
       <use xlink:href="#md9b70806ea" x="57.6" y="302.089353" style="stroke: #000000; stroke-width: 0.8"/>
      </g>
     </g>
     <g id="text_32">
      <!-- 0 -->
      <g transform="translate(44.2375 305.888571)scale(0.1 -0.1)">
       <use xlink:href="#DejaVuSans-30"/>
      </g>
     </g>
    </g>
    <g id="ytick_5">
     <g id="line2d_33">
      <g>
       <use xlink:href="#md9b70806ea" x="57.6" y="266.743772" style="stroke: #000000; stroke-width: 0.8"/>
      </g>
     </g>
     <g id="text_33">
      <!-- 10000 -->
      <g transform="translate(18.7875 270.542991)scale(0.1 -0.1)">
       <use xlink:href="#DejaVuSans-31"/>
       <use xlink:href="#DejaVuSans-30" x="63.623047"/>
       <use xlink:href="#DejaVuSans-30" x="127.246094"/>
       <use xlink:href="#DejaVuSans-30" x="190.869141"/>
       <use xlink:href="#DejaVuSans-30" x="254.492188"/>
      </g>
     </g>
    </g>
    <g id="ytick_6">
     <g id="line2d_34">
      <g>
       <use xlink:href="#md9b70806ea" x="57.6" y="231.398191" style="stroke: #000000; stroke-width: 0.8"/>
      </g>
     </g>
     <g id="text_34">
      <!-- 20000 -->
      <g transform="translate(18.7875 235.19741)scale(0.1 -0.1)">
       <use xlink:href="#DejaVuSans-32"/>
       <use xlink:href="#DejaVuSans-30" x="63.623047"/>
       <use xlink:href="#DejaVuSans-30" x="127.246094"/>
       <use xlink:href="#DejaVuSans-30" x="190.869141"/>
       <use xlink:href="#DejaVuSans-30" x="254.492188"/>
      </g>
     </g>
    </g>
    <g id="ytick_7">
     <g id="line2d_35">
      <g>
       <use xlink:href="#md9b70806ea" x="57.6" y="196.05261" style="stroke: #000000; stroke-width: 0.8"/>
      </g>
     </g>
     <g id="text_35">
      <!-- 30000 -->
      <g transform="translate(18.7875 199.851829)scale(0.1 -0.1)">
       <use xlink:href="#DejaVuSans-33"/>
       <use xlink:href="#DejaVuSans-30" x="63.623047"/>
       <use xlink:href="#DejaVuSans-30" x="127.246094"/>
       <use xlink:href="#DejaVuSans-30" x="190.869141"/>
       <use xlink:href="#DejaVuSans-30" x="254.492188"/>
      </g>
     </g>
    </g>
   </g>
   <g id="line2d_36">
    <path d="M 73.832727 302.085818 
L 77.890909 302.085818 
L 81.949091 302.078749 
L 86.007273 302.085818 
L 90.065455 302.085818 
L 94.123636 302.085818 
L 98.181818 302.068145 
L 102.24 302.085818 
L 106.298182 302.07168 
L 110.356364 302.082284 
L 114.414545 302.085818 
L 118.472727 302.075215 
L 122.530909 302.068145 
L 126.589091 302.082284 
L 130.647273 302.085818 
L 134.705455 302.085818 
L 138.763636 302.082284 
L 142.821818 302.075215 
L 146.88 302.078749 
L 150.938182 302.064611 
L 154.996364 302.082284 
L 159.054545 302.085818 
L 163.112727 302.085818 
L 167.170909 302.082284 
L 171.229091 302.068145 
L 175.287273 302.082284 
L 179.345455 302.082284 
L 183.403636 302.078749 
L 187.461818 302.0328 
L 191.52 302.078749 
L 195.578182 302.085818 
L 199.636364 302.068145 
L 203.694545 302.043403 
L 207.752727 302.082284 
L 211.810909 302.043403 
L 215.869091 302.054007 
L 219.927273 302.082284 
L 223.985455 302.0328 
L 228.043636 302.061076 
L 232.101818 301.94797 
L 236.16 301.965643 
L 240.218182 301.580376 
L 244.276364 301.958574 
L 248.334545 302.057542 
L 252.392727 301.887883 
L 256.450909 302.075215 
L 260.509091 301.806588 
L 264.567273 301.919694 
L 268.625455 301.499082 
L 272.683636 301.916159 
L 276.741818 301.930298 
L 280.8 301.71469 
L 284.858182 301.99392 
L 288.916364 301.90909 
L 292.974545 302.061076 
L 297.032727 302.078749 
L 301.090909 301.972712 
L 305.149091 301.251662 
L 309.207273 301.096142 
L 313.265455 299.989825 
L 317.323636 301.028985 
L 321.381818 300.594235 
L 325.44 301.27287 
L 329.498182 301.35063 
L 333.556364 301.484943 
L 337.614545 301.011313 
L 341.672727 300.385696 
L 345.730909 300.816912 
L 349.789091 301.548565 
L 353.847273 301.841934 
L 357.905455 297.19399 
L 361.963636 299.258172 
L 366.021818 294.663246 
L 370.08 301.495547 
L 374.138182 291.800254 
L 378.196364 287.661287 
L 382.254545 297.010193 
L 386.312727 293.344856 
L 390.370909 299.081444 
L 394.429091 290.273325 
L 398.487273 192.122182 
" clip-path="url(#pe41eab6cde)" style="fill: none; stroke: #1f77b4; stroke-width: 1.5; stroke-linecap: square"/>
   </g>
   <g id="patch_8">
    <path d="M 57.6 307.584 
L 57.6 186.624 
" style="fill: none; stroke: #000000; stroke-width: 0.8; stroke-linejoin: miter; stroke-linecap: square"/>
   </g>
   <g id="patch_9">
    <path d="M 414.72 307.584 
L 414.72 186.624 
" style="fill: none; stroke: #000000; stroke-width: 0.8; stroke-linejoin: miter; stroke-linecap: square"/>
   </g>
   <g id="patch_10">
    <path d="M 57.6 307.584 
L 414.72 307.584 
" style="fill: none; stroke: #000000; stroke-width: 0.8; stroke-linejoin: miter; stroke-linecap: square"/>
   </g>
   <g id="patch_11">
    <path d="M 57.6 186.624 
L 414.72 186.624 
" style="fill: none; stroke: #000000; stroke-width: 0.8; stroke-linejoin: miter; stroke-linecap: square"/>
   </g>
  </g>
 </g>
 <defs>
  <clipPath id="p7397aec2f8">
   <rect x="57.6" y="41.472" width="357.12" height="120.96"/>
  </clipPath>
  <clipPath id="pe41eab6cde">
   <rect x="57.6" y="186.624" width="357.12" height="120.96"/>
  </clipPath>
 </defs>
</svg>
