<?xml version="1.0" encoding="utf-8" standalone="no"?>
<!DOCTYPE svg PUBLIC "-//W3C//DTD SVG 1.1//EN"
  "http://www.w3.org/Graphics/SVG/1.1/DTD/svg11.dtd">
<svg xmlns:xlink="http://www.w3.org/1999/xlink" width="460.8pt" height="345.6pt" viewBox="0 0 460.8 345.6" xmlns="http://www.w3.org/2000/svg" version="1.1">
 <metadata>
  <rdf:RDF xmlns:dc="http://purl.org/dc/elements/1.1/" xmlns:cc="http://creativecommons.org/ns#" xmlns:rdf="http://www.w3.org/1999/02/22-rdf-syntax-ns#">
   <cc:Work>
    <dc:type rdf:resource="http://purl.org/dc/dcmitype/StillImage"/>
    <dc:date>2022-05-13T23:43:28.655419</dc:date>
    <dc:format>image/svg+xml</dc:format>
    <dc:creator>
     <cc:Agent>
      <dc:title>Matplotlib v3.5.1, https://matplotlib.org/</dc:title>
     </cc:Agent>
    </dc:creator>
   </cc:Work>
  </rdf:RDF>
 </metadata>
 <defs>
  <style type="text/css">*{stroke-linejoin: round; stroke-linecap: butt}</style>
 </defs>
 <g id="figure_1">
  <g id="patch_1">
   <path d="M 0 345.6 
L 460.8 345.6 
L 460.8 0 
L 0 0 
z
" style="fill: #ffffff"/>
  </g>
  <g id="axes_1">
   <g id="patch_2">
    <path d="M 57.6 162.432 
L 414.72 162.432 
L 414.72 41.472 
L 57.6 41.472 
z
" style="fill: #ffffff"/>
   </g>
   <g id="matplotlib.axis_1">
    <g id="xtick_1">
     <g id="line2d_1">
      <defs>
       <path id="meb214074b7" d="M 0 0 
L 0 3.5 
" style="stroke: #000000; stroke-width: 0.8"/>
      </defs>
      <g>
       <use xlink:href="#meb214074b7" x="73.827491" y="162.432" style="stroke: #000000; stroke-width: 0.8"/>
      </g>
     </g>
     <g id="text_1">
      <!-- 0 -->
      <g transform="translate(70.646241 177.030437)scale(0.1 -0.1)">
       <defs>
        <path id="DejaVuSans-30" d="M 2034 4250 
Q 1547 4250 1301 3770 
Q 1056 3291 1056 2328 
Q 1056 1369 1301 889 
Q 1547 409 2034 409 
Q 2525 409 2770 889 
Q 3016 1369 3016 2328 
Q 3016 3291 2770 3770 
Q 2525 4250 2034 4250 
z
M 2034 4750 
Q 2819 4750 3233 4129 
Q 3647 3509 3647 2328 
Q 3647 1150 3233 529 
Q 2819 -91 2034 -91 
Q 1250 -91 836 529 
Q 422 1150 422 2328 
Q 422 3509 836 4129 
Q 1250 4750 2034 4750 
z
" transform="scale(0.015625)"/>
       </defs>
       <use xlink:href="#DejaVuSans-30"/>
      </g>
     </g>
    </g>
    <g id="xtick_2">
     <g id="line2d_2">
      <g>
       <use xlink:href="#meb214074b7" x="126.191972" y="162.432" style="stroke: #000000; stroke-width: 0.8"/>
      </g>
     </g>
     <g id="text_2">
      <!-- 10000 -->
      <g transform="translate(110.285722 177.030437)scale(0.1 -0.1)">
       <defs>
        <path id="DejaVuSans-31" d="M 794 531 
L 1825 531 
L 1825 4091 
L 703 3866 
L 703 4441 
L 1819 4666 
L 2450 4666 
L 2450 531 
L 3481 531 
L 3481 0 
L 794 0 
L 794 531 
z
" transform="scale(0.015625)"/>
       </defs>
       <use xlink:href="#DejaVuSans-31"/>
       <use xlink:href="#DejaVuSans-30" x="63.623047"/>
       <use xlink:href="#DejaVuSans-30" x="127.246094"/>
       <use xlink:href="#DejaVuSans-30" x="190.869141"/>
       <use xlink:href="#DejaVuSans-30" x="254.492188"/>
      </g>
     </g>
    </g>
    <g id="xtick_3">
     <g id="line2d_3">
      <g>
       <use xlink:href="#meb214074b7" x="178.556453" y="162.432" style="stroke: #000000; stroke-width: 0.8"/>
      </g>
     </g>
     <g id="text_3">
      <!-- 20000 -->
      <g transform="translate(162.650203 177.030437)scale(0.1 -0.1)">
       <defs>
        <path id="DejaVuSans-32" d="M 1228 531 
L 3431 531 
L 3431 0 
L 469 0 
L 469 531 
Q 828 903 1448 1529 
Q 2069 2156 2228 2338 
Q 2531 2678 2651 2914 
Q 2772 3150 2772 3378 
Q 2772 3750 2511 3984 
Q 2250 4219 1831 4219 
Q 1534 4219 1204 4116 
Q 875 4013 500 3803 
L 500 4441 
Q 881 4594 1212 4672 
Q 1544 4750 1819 4750 
Q 2544 4750 2975 4387 
Q 3406 4025 3406 3419 
Q 3406 3131 3298 2873 
Q 3191 2616 2906 2266 
Q 2828 2175 2409 1742 
Q 1991 1309 1228 531 
z
" transform="scale(0.015625)"/>
       </defs>
       <use xlink:href="#DejaVuSans-32"/>
       <use xlink:href="#DejaVuSans-30" x="63.623047"/>
       <use xlink:href="#DejaVuSans-30" x="127.246094"/>
       <use xlink:href="#DejaVuSans-30" x="190.869141"/>
       <use xlink:href="#DejaVuSans-30" x="254.492188"/>
      </g>
     </g>
    </g>
    <g id="xtick_4">
     <g id="line2d_4">
      <g>
       <use xlink:href="#meb214074b7" x="230.920934" y="162.432" style="stroke: #000000; stroke-width: 0.8"/>
      </g>
     </g>
     <g id="text_4">
      <!-- 30000 -->
      <g transform="translate(215.014684 177.030437)scale(0.1 -0.1)">
       <defs>
        <path id="DejaVuSans-33" d="M 2597 2516 
Q 3050 2419 3304 2112 
Q 3559 1806 3559 1356 
Q 3559 666 3084 287 
Q 2609 -91 1734 -91 
Q 1441 -91 1130 -33 
Q 819 25 488 141 
L 488 750 
Q 750 597 1062 519 
Q 1375 441 1716 441 
Q 2309 441 2620 675 
Q 2931 909 2931 1356 
Q 2931 1769 2642 2001 
Q 2353 2234 1838 2234 
L 1294 2234 
L 1294 2753 
L 1863 2753 
Q 2328 2753 2575 2939 
Q 2822 3125 2822 3475 
Q 2822 3834 2567 4026 
Q 2313 4219 1838 4219 
Q 1578 4219 1281 4162 
Q 984 4106 628 3988 
L 628 4550 
Q 988 4650 1302 4700 
Q 1616 4750 1894 4750 
Q 2613 4750 3031 4423 
Q 3450 4097 3450 3541 
Q 3450 3153 3228 2886 
Q 3006 2619 2597 2516 
z
" transform="scale(0.015625)"/>
       </defs>
       <use xlink:href="#DejaVuSans-33"/>
       <use xlink:href="#DejaVuSans-30" x="63.623047"/>
       <use xlink:href="#DejaVuSans-30" x="127.246094"/>
       <use xlink:href="#DejaVuSans-30" x="190.869141"/>
       <use xlink:href="#DejaVuSans-30" x="254.492188"/>
      </g>
     </g>
    </g>
    <g id="xtick_5">
     <g id="line2d_5">
      <g>
       <use xlink:href="#meb214074b7" x="283.285415" y="162.432" style="stroke: #000000; stroke-width: 0.8"/>
      </g>
     </g>
     <g id="text_5">
      <!-- 40000 -->
      <g transform="translate(267.379165 177.030437)scale(0.1 -0.1)">
       <defs>
        <path id="DejaVuSans-34" d="M 2419 4116 
L 825 1625 
L 2419 1625 
L 2419 4116 
z
M 2253 4666 
L 3047 4666 
L 3047 1625 
L 3713 1625 
L 3713 1100 
L 3047 1100 
L 3047 0 
L 2419 0 
L 2419 1100 
L 313 1100 
L 313 1709 
L 2253 4666 
z
" transform="scale(0.015625)"/>
       </defs>
       <use xlink:href="#DejaVuSans-34"/>
       <use xlink:href="#DejaVuSans-30" x="63.623047"/>
       <use xlink:href="#DejaVuSans-30" x="127.246094"/>
       <use xlink:href="#DejaVuSans-30" x="190.869141"/>
       <use xlink:href="#DejaVuSans-30" x="254.492188"/>
      </g>
     </g>
    </g>
    <g id="xtick_6">
     <g id="line2d_6">
      <g>
       <use xlink:href="#meb214074b7" x="335.649896" y="162.432" style="stroke: #000000; stroke-width: 0.8"/>
      </g>
     </g>
     <g id="text_6">
      <!-- 50000 -->
      <g transform="translate(319.743646 177.030437)scale(0.1 -0.1)">
       <defs>
        <path id="DejaVuSans-35" d="M 691 4666 
L 3169 4666 
L 3169 4134 
L 1269 4134 
L 1269 2991 
Q 1406 3038 1543 3061 
Q 1681 3084 1819 3084 
Q 2600 3084 3056 2656 
Q 3513 2228 3513 1497 
Q 3513 744 3044 326 
Q 2575 -91 1722 -91 
Q 1428 -91 1123 -41 
Q 819 9 494 109 
L 494 744 
Q 775 591 1075 516 
Q 1375 441 1709 441 
Q 2250 441 2565 725 
Q 2881 1009 2881 1497 
Q 2881 1984 2565 2268 
Q 2250 2553 1709 2553 
Q 1456 2553 1204 2497 
Q 953 2441 691 2322 
L 691 4666 
z
" transform="scale(0.015625)"/>
       </defs>
       <use xlink:href="#DejaVuSans-35"/>
       <use xlink:href="#DejaVuSans-30" x="63.623047"/>
       <use xlink:href="#DejaVuSans-30" x="127.246094"/>
       <use xlink:href="#DejaVuSans-30" x="190.869141"/>
       <use xlink:href="#DejaVuSans-30" x="254.492188"/>
      </g>
     </g>
    </g>
    <g id="xtick_7">
     <g id="line2d_7">
      <g>
       <use xlink:href="#meb214074b7" x="388.014377" y="162.432" style="stroke: #000000; stroke-width: 0.8"/>
      </g>
     </g>
     <g id="text_7">
      <!-- 60000 -->
      <g transform="translate(372.108127 177.030437)scale(0.1 -0.1)">
       <defs>
        <path id="DejaVuSans-36" d="M 2113 2584 
Q 1688 2584 1439 2293 
Q 1191 2003 1191 1497 
Q 1191 994 1439 701 
Q 1688 409 2113 409 
Q 2538 409 2786 701 
Q 3034 994 3034 1497 
Q 3034 2003 2786 2293 
Q 2538 2584 2113 2584 
z
M 3366 4563 
L 3366 3988 
Q 3128 4100 2886 4159 
Q 2644 4219 2406 4219 
Q 1781 4219 1451 3797 
Q 1122 3375 1075 2522 
Q 1259 2794 1537 2939 
Q 1816 3084 2150 3084 
Q 2853 3084 3261 2657 
Q 3669 2231 3669 1497 
Q 3669 778 3244 343 
Q 2819 -91 2113 -91 
Q 1303 -91 875 529 
Q 447 1150 447 2328 
Q 447 3434 972 4092 
Q 1497 4750 2381 4750 
Q 2619 4750 2861 4703 
Q 3103 4656 3366 4563 
z
" transform="scale(0.015625)"/>
       </defs>
       <use xlink:href="#DejaVuSans-36"/>
       <use xlink:href="#DejaVuSans-30" x="63.623047"/>
       <use xlink:href="#DejaVuSans-30" x="127.246094"/>
       <use xlink:href="#DejaVuSans-30" x="190.869141"/>
       <use xlink:href="#DejaVuSans-30" x="254.492188"/>
      </g>
     </g>
    </g>
   </g>
   <g id="matplotlib.axis_2">
    <g id="ytick_1">
     <g id="line2d_8">
      <defs>
       <path id="m735511ec13" d="M 0 0 
L -3.5 0 
" style="stroke: #000000; stroke-width: 0.8"/>
      </defs>
      <g>
       <use xlink:href="#m735511ec13" x="57.6" y="133.35433" style="stroke: #000000; stroke-width: 0.8"/>
      </g>
     </g>
     <g id="text_8">
      <!-- 80 -->
      <g transform="translate(37.875 137.153549)scale(0.1 -0.1)">
       <defs>
        <path id="DejaVuSans-38" d="M 2034 2216 
Q 1584 2216 1326 1975 
Q 1069 1734 1069 1313 
Q 1069 891 1326 650 
Q 1584 409 2034 409 
Q 2484 409 2743 651 
Q 3003 894 3003 1313 
Q 3003 1734 2745 1975 
Q 2488 2216 2034 2216 
z
M 1403 2484 
Q 997 2584 770 2862 
Q 544 3141 544 3541 
Q 544 4100 942 4425 
Q 1341 4750 2034 4750 
Q 2731 4750 3128 4425 
Q 3525 4100 3525 3541 
Q 3525 3141 3298 2862 
Q 3072 2584 2669 2484 
Q 3125 2378 3379 2068 
Q 3634 1759 3634 1313 
Q 3634 634 3220 271 
Q 2806 -91 2034 -91 
Q 1263 -91 848 271 
Q 434 634 434 1313 
Q 434 1759 690 2068 
Q 947 2378 1403 2484 
z
M 1172 3481 
Q 1172 3119 1398 2916 
Q 1625 2713 2034 2713 
Q 2441 2713 2670 2916 
Q 2900 3119 2900 3481 
Q 2900 3844 2670 4047 
Q 2441 4250 2034 4250 
Q 1625 4250 1398 4047 
Q 1172 3844 1172 3481 
z
" transform="scale(0.015625)"/>
       </defs>
       <use xlink:href="#DejaVuSans-38"/>
       <use xlink:href="#DejaVuSans-30" x="63.623047"/>
      </g>
     </g>
    </g>
    <g id="ytick_2">
     <g id="line2d_9">
      <g>
       <use xlink:href="#m735511ec13" x="57.6" y="100.065641" style="stroke: #000000; stroke-width: 0.8"/>
      </g>
     </g>
     <g id="text_9">
      <!-- 90 -->
      <g transform="translate(37.875 103.86486)scale(0.1 -0.1)">
       <defs>
        <path id="DejaVuSans-39" d="M 703 97 
L 703 672 
Q 941 559 1184 500 
Q 1428 441 1663 441 
Q 2288 441 2617 861 
Q 2947 1281 2994 2138 
Q 2813 1869 2534 1725 
Q 2256 1581 1919 1581 
Q 1219 1581 811 2004 
Q 403 2428 403 3163 
Q 403 3881 828 4315 
Q 1253 4750 1959 4750 
Q 2769 4750 3195 4129 
Q 3622 3509 3622 2328 
Q 3622 1225 3098 567 
Q 2575 -91 1691 -91 
Q 1453 -91 1209 -44 
Q 966 3 703 97 
z
M 1959 2075 
Q 2384 2075 2632 2365 
Q 2881 2656 2881 3163 
Q 2881 3666 2632 3958 
Q 2384 4250 1959 4250 
Q 1534 4250 1286 3958 
Q 1038 3666 1038 3163 
Q 1038 2656 1286 2365 
Q 1534 2075 1959 2075 
z
" transform="scale(0.015625)"/>
       </defs>
       <use xlink:href="#DejaVuSans-39"/>
       <use xlink:href="#DejaVuSans-30" x="63.623047"/>
      </g>
     </g>
    </g>
    <g id="ytick_3">
     <g id="line2d_10">
      <g>
       <use xlink:href="#m735511ec13" x="57.6" y="66.776952" style="stroke: #000000; stroke-width: 0.8"/>
      </g>
     </g>
     <g id="text_10">
      <!-- 100 -->
      <g transform="translate(31.5125 70.576171)scale(0.1 -0.1)">
       <use xlink:href="#DejaVuSans-31"/>
       <use xlink:href="#DejaVuSans-30" x="63.623047"/>
       <use xlink:href="#DejaVuSans-30" x="127.246094"/>
      </g>
     </g>
    </g>
   </g>
   <g id="line2d_11">
    <path d="M 73.832727 66.776952 
L 73.837964 66.776952 
L 73.968875 63.170677 
L 73.974111 63.170677 
L 74.089313 61.506243 
L 74.194042 61.506243 
L 74.309244 60.951431 
L 74.733396 60.951431 
L 74.848598 60.285657 
L 75.806868 60.285657 
L 75.92207 59.45344 
L 76.131528 59.45344 
L 76.24673 56.956789 
L 77.597733 56.956789 
L 77.712935 55.292354 
L 78.943501 55.292354 
L 79.058702 53.62792 
L 80.001263 53.62792 
L 80.116465 50.853862 
L 86.662025 50.853862 
L 86.777227 49.744239 
L 89.081264 49.744239 
L 89.196466 48.079805 
L 220.175742 48.079805 
L 220.290944 46.970182 
L 398.487273 46.970182 
L 398.487273 46.970182 
" clip-path="url(#p597f90b934)" style="fill: none; stroke: #1f77b4; stroke-width: 1.5; stroke-linecap: square"/>
   </g>
   <g id="line2d_12">
    <path d="M 73.832727 66.776952 
L 73.848437 66.776952 
L 73.911274 76.763559 
L 73.968875 75.432011 
L 73.979348 75.432011 
L 74.09455 86.306316 
L 74.105023 85.196693 
L 74.146914 85.196693 
L 74.194042 91.854431 
L 74.262116 90.189997 
L 74.345899 87.748826 
L 74.293535 91.743469 
L 74.356372 91.077695 
L 74.49252 107.056266 
L 74.586776 107.056266 
L 74.701978 110.385135 
L 75.000455 110.385135 
L 75.026637 113.714003 
L 75.110421 112.604381 
L 75.225622 111.494758 
L 75.806868 111.494758 
L 75.92207 110.66254 
L 76.052981 110.66254 
L 76.152474 107.888483 
L 76.15771 111.217352 
L 76.178656 111.217352 
L 76.194365 114.546221 
L 76.288621 113.436598 
L 76.314804 113.436598 
L 76.382877 112.770824 
L 76.388114 116.099693 
L 76.403823 116.099693 
L 76.57139 116.099693 
L 76.686591 115.433919 
L 77.503477 115.433919 
L 77.629152 111.994088 
L 77.754827 111.994088 
L 77.83861 111.328314 
L 77.843847 114.657183 
L 77.901447 114.657183 
L 77.969521 117.986052 
L 78.011413 116.876429 
L 78.508875 116.876429 
L 78.629314 123.534167 
L 78.812589 123.534167 
L 78.927791 122.868393 
L 78.943501 122.868393 
L 79.058702 121.203959 
L 79.226269 121.203959 
L 79.341471 124.532827 
L 79.996027 124.532827 
L 80.121701 120.649147 
L 80.163593 120.649147 
L 80.278795 123.978016 
L 80.650583 123.978016 
L 80.765785 122.868393 
L 80.865277 122.868393 
L 80.980479 126.197262 
L 80.996188 126.197262 
L 81.11139 129.526131 
L 82.059187 129.526131 
L 82.174389 128.416508 
L 83.829107 128.416508 
L 83.944309 127.750734 
L 85.74041 127.750734 
L 85.855612 131.079603 
L 86.662025 131.079603 
L 86.777227 129.96998 
L 86.819119 129.96998 
L 86.93432 133.298849 
L 87.227562 133.298849 
L 87.243271 132.633075 
L 87.248507 135.961944 
L 87.316581 135.961944 
L 87.630768 135.961944 
L 87.74597 135.29617 
L 89.081264 135.29617 
L 89.196466 133.631736 
L 89.432106 133.631736 
L 89.547308 136.960605 
L 93.071438 136.960605 
L 93.186639 140.289474 
L 101.491646 140.289474 
L 101.606848 143.618343 
L 107.539744 143.618343 
L 107.654946 142.50872 
L 114.467564 142.50872 
L 114.582766 141.953908 
L 114.624658 141.953908 
L 114.73986 145.282777 
L 114.965027 145.282777 
L 115.080229 148.611646 
L 122.385074 148.611646 
L 122.500276 151.940515 
L 139.031743 151.940515 
L 139.146944 150.27608 
L 168.56531 150.27608 
L 168.680512 153.604949 
L 220.175742 153.604949 
L 220.290944 152.495326 
L 260.690141 152.495326 
L 260.805343 151.385703 
L 262.512425 151.385703 
L 262.627627 154.714572 
L 321.343919 154.714572 
L 321.459121 153.604949 
L 325.318383 153.604949 
L 325.433585 156.933818 
L 368.063509 156.933818 
L 368.178711 156.268044 
L 398.487273 156.268044 
L 398.487273 156.268044 
" clip-path="url(#p597f90b934)" style="fill: none; stroke: #ff7f0e; stroke-width: 1.5; stroke-linecap: square"/>
   </g>
   <g id="line2d_13">
    <path d="M 73.832727 66.776952 
L 73.911274 63.170677 
L 73.953166 63.725489 
L 73.963638 63.725489 
L 74.105023 83.032928 
L 74.125968 83.032928 
L 74.24117 87.47142 
L 74.262116 87.47142 
L 74.356372 86.361797 
L 74.361609 89.690666 
L 74.372081 89.690666 
L 74.377318 88.026232 
L 74.382554 91.355101 
L 74.482047 89.690666 
L 74.586776 89.690666 
L 74.701978 93.019535 
L 74.733396 93.019535 
L 74.848598 92.353761 
L 75.110421 92.353761 
L 75.225622 95.68263 
L 75.702139 95.68263 
L 75.817341 93.74079 
L 76.194365 93.74079 
L 76.236257 97.069659 
L 76.304331 96.237442 
L 76.314804 96.237442 
L 76.430006 99.566311 
L 76.57139 99.566311 
L 76.686591 102.89518 
L 77.519187 102.89518 
L 77.634389 106.224048 
L 78.545531 106.224048 
L 78.660732 104.559614 
L 78.812589 104.559614 
L 78.927791 107.888483 
L 80.650583 107.888483 
L 80.765785 111.217352 
L 82.059187 111.217352 
L 82.174389 114.546221 
L 82.561886 114.546221 
L 82.677088 113.436598 
L 83.829107 113.436598 
L 83.944309 116.765467 
L 86.662025 116.765467 
L 86.777227 115.655844 
L 87.227562 115.655844 
L 87.342763 118.984713 
L 89.432106 118.984713 
L 89.547308 117.87509 
L 93.914506 117.87509 
L 94.029708 116.210655 
L 107.539744 116.210655 
L 107.654946 119.539524 
L 114.467564 119.539524 
L 114.582766 118.984713 
L 122.385074 118.984713 
L 122.500276 117.320278 
L 139.859101 117.320278 
L 139.974303 120.649147 
L 158.33329 120.649147 
L 158.448492 123.978016 
L 177.718621 123.978016 
L 177.833823 122.313582 
L 368.063509 122.313582 
L 368.178711 125.64245 
L 398.487273 125.64245 
L 398.487273 125.64245 
" clip-path="url(#p597f90b934)" style="fill: none; stroke: #2ca02c; stroke-width: 1.5; stroke-linecap: square"/>
   </g>
   <g id="line2d_14">
    <path d="M 73.832727 66.776952 
L 73.958402 76.930002 
L 73.974111 76.930002 
L 74.068367 81.590418 
L 74.089313 80.092427 
L 74.125968 80.092427 
L 74.209752 79.26021 
L 74.214988 82.589079 
L 74.220224 82.589079 
L 74.272589 82.589079 
L 74.361609 79.593097 
L 74.366845 82.921966 
L 74.382554 82.256192 
L 74.4035 82.256192 
L 74.424446 81.423975 
L 74.445392 88.081713 
L 74.47681 88.081713 
L 74.576303 88.081713 
L 74.701978 85.585061 
L 74.707214 85.585061 
L 74.743869 92.242799 
L 74.822416 91.410582 
L 75.702139 91.410582 
L 75.817341 94.739451 
L 76.293858 94.739451 
L 76.314804 98.06832 
L 76.40906 97.402546 
L 76.57139 97.402546 
L 76.686591 96.736772 
L 77.503477 96.736772 
L 77.519187 100.065641 
L 77.618679 99.399867 
L 77.754827 99.399867 
L 77.870029 98.734093 
L 78.812589 98.734093 
L 78.927791 98.06832 
L 78.943501 98.06832 
L 79.058702 101.397189 
L 79.367653 101.397189 
L 79.482855 100.564971 
L 79.514273 100.564971 
L 79.629475 99.732754 
L 79.802278 99.732754 
L 79.91748 103.061623 
L 80.001263 103.061623 
L 80.116465 106.390492 
L 81.577434 106.390492 
L 81.692636 105.558275 
L 82.446684 105.558275 
L 82.561886 104.726057 
L 82.677088 108.054926 
L 83.829107 108.054926 
L 83.944309 107.389153 
L 85.546662 107.389153 
L 85.661864 106.556935 
L 86.662025 106.556935 
L 86.777227 109.885804 
L 87.227562 109.885804 
L 87.342763 109.22003 
L 87.630768 109.22003 
L 87.74597 108.554257 
L 88.458127 108.554257 
L 88.573329 107.722039 
L 89.081264 107.722039 
L 89.196466 111.050908 
L 89.432106 111.050908 
L 89.547308 109.941285 
L 91.306755 109.941285 
L 91.421956 109.109068 
L 91.950838 109.109068 
L 92.06604 112.437937 
L 97.527655 112.437937 
L 97.642857 111.328314 
L 106.691439 111.328314 
L 106.806641 110.496097 
L 114.467564 110.496097 
L 114.582766 113.824966 
L 127.935709 113.824966 
L 128.050911 112.992749 
L 131.224198 112.992749 
L 131.3394 116.321617 
L 139.031743 116.321617 
L 139.146944 119.650486 
L 139.859101 119.650486 
L 139.974303 118.540863 
L 158.33329 118.540863 
L 158.448492 117.43124 
L 166.083233 117.43124 
L 166.198435 120.760109 
L 187.646927 120.760109 
L 187.762128 119.927892 
L 295.61725 119.927892 
L 295.732452 119.095675 
L 313.803434 119.095675 
L 313.918636 122.424544 
L 321.343919 122.424544 
L 321.459121 125.753413 
L 368.063509 125.753413 
L 368.178711 125.087639 
L 398.487273 125.087639 
L 398.487273 125.087639 
" clip-path="url(#p597f90b934)" style="fill: none; stroke: #d62728; stroke-width: 1.5; stroke-linecap: square"/>
   </g>
   <g id="line2d_15">
    <path d="M 73.832727 66.776952 
L 73.837964 66.776952 
L 73.958402 64.835112 
L 73.963638 64.835112 
L 74.07884 68.163981 
L 74.194042 68.163981 
L 74.309244 67.609169 
L 74.733396 67.609169 
L 74.848598 66.943395 
L 75.702139 66.943395 
L 75.817341 65.833772 
L 76.236257 65.833772 
L 76.351459 65.001555 
L 77.503477 65.001555 
L 77.618679 63.891932 
L 82.561886 63.891932 
L 82.677088 62.782309 
L 114.467564 62.782309 
L 114.582766 62.227498 
L 321.343919 62.227498 
L 321.459121 61.117875 
L 398.487273 61.117875 
L 398.487273 61.117875 
" clip-path="url(#p597f90b934)" style="fill: none; stroke: #9467bd; stroke-width: 1.5; stroke-linecap: square"/>
   </g>
   <g id="line2d_16">
    <path d="M 73.832727 66.776952 
L 73.953166 62.33846 
L 73.963638 62.33846 
L 73.979348 65.667329 
L 74.07884 65.001555 
L 74.194042 65.001555 
L 74.209752 68.330424 
L 74.304008 65.556367 
L 74.372081 65.556367 
L 74.49252 62.227498 
L 74.733396 62.227498 
L 74.848598 65.556367 
L 78.545531 65.556367 
L 78.660732 63.891932 
L 80.095519 63.891932 
L 80.210721 67.220801 
L 93.914506 67.220801 
L 94.029708 65.556367 
L 114.467564 65.556367 
L 114.582766 68.885235 
L 122.385074 68.885235 
L 122.500276 67.220801 
L 139.031743 67.220801 
L 139.146944 65.556367 
L 177.718621 65.556367 
L 177.833823 63.891932 
L 220.175742 63.891932 
L 220.290944 67.220801 
L 398.487273 67.220801 
L 398.487273 67.220801 
" clip-path="url(#p597f90b934)" style="fill: none; stroke: #8c564b; stroke-width: 1.5; stroke-linecap: square"/>
   </g>
   <g id="line2d_17">
    <path d="M 73.832727 63.448083 
L 73.837964 63.448083 
L 73.958402 61.506243 
L 73.963638 61.506243 
L 74.07884 60.840469 
L 74.194042 60.840469 
L 74.309244 60.285657 
L 74.733396 60.285657 
L 74.848598 59.619884 
L 75.702139 59.619884 
L 75.817341 58.510261 
L 76.236257 58.510261 
L 76.351459 57.678043 
L 77.503477 57.678043 
L 77.618679 56.568421 
L 82.561886 56.568421 
L 82.677088 55.458798 
L 114.467564 55.458798 
L 114.582766 54.903986 
L 321.343919 54.903986 
L 321.459121 53.794363 
L 398.487273 53.794363 
L 398.487273 53.794363 
" clip-path="url(#p597f90b934)" style="fill: none; stroke: #e377c2; stroke-width: 1.5; stroke-linecap: square"/>
   </g>
   <g id="line2d_18">
    <path d="M 73.832727 70.105821 
L 73.958402 80.258871 
L 73.963638 80.258871 
L 74.068367 88.248156 
L 74.084077 86.750165 
L 74.125968 86.750165 
L 74.194042 85.917948 
L 74.199279 89.246817 
L 74.209752 89.246817 
L 74.272589 99.233424 
L 74.33019 97.069659 
L 74.356372 97.069659 
L 74.377318 99.566311 
L 74.482047 94.739451 
L 74.576303 94.739451 
L 74.696741 93.075016 
L 74.733396 93.075016 
L 74.743869 96.403885 
L 74.843362 95.571668 
L 75.026637 95.571668 
L 75.141839 94.462045 
L 75.702139 94.462045 
L 75.817341 97.790914 
L 76.052981 97.790914 
L 76.131528 96.681291 
L 76.136764 100.01016 
L 76.152474 100.01016 
L 76.194365 100.01016 
L 76.314804 106.667898 
L 76.430006 106.002124 
L 76.57139 106.002124 
L 76.686591 105.33635 
L 77.503477 105.33635 
L 77.519187 108.665219 
L 77.618679 107.999445 
L 77.754827 107.999445 
L 77.870029 107.333671 
L 77.969521 107.333671 
L 78.084723 106.224048 
L 78.812589 106.224048 
L 78.927791 105.558275 
L 78.943501 105.558275 
L 79.058702 108.887144 
L 79.367653 108.887144 
L 79.482855 108.054926 
L 79.514273 108.054926 
L 79.629475 107.222709 
L 79.996027 107.222709 
L 80.001263 106.113086 
L 80.0065 109.441955 
L 80.095519 109.441955 
L 80.210721 112.770824 
L 81.577434 112.770824 
L 81.692636 111.938607 
L 82.446684 111.938607 
L 82.561886 111.10639 
L 82.677088 114.435258 
L 83.829107 114.435258 
L 83.944309 113.769485 
L 85.546662 113.769485 
L 85.661864 112.937267 
L 86.662025 112.937267 
L 86.777227 116.266136 
L 87.227562 116.266136 
L 87.342763 115.600363 
L 87.630768 115.600363 
L 87.74597 114.934589 
L 88.458127 114.934589 
L 88.573329 114.102372 
L 89.081264 114.102372 
L 89.196466 117.43124 
L 91.306755 117.43124 
L 91.421956 116.599023 
L 93.914506 116.599023 
L 94.029708 119.927892 
L 106.691439 119.927892 
L 106.806641 119.095675 
L 107.539744 119.095675 
L 107.654946 117.986052 
L 114.467564 117.986052 
L 114.582766 121.314921 
L 127.935709 121.314921 
L 128.050911 120.482704 
L 139.031743 120.482704 
L 139.146944 123.811573 
L 177.718621 123.811573 
L 177.833823 127.140441 
L 187.646927 127.140441 
L 187.762128 126.308224 
L 220.175742 126.308224 
L 220.290944 129.637093 
L 260.690141 129.637093 
L 260.805343 128.52747 
L 295.61725 128.52747 
L 295.732452 127.695253 
L 313.803434 127.695253 
L 313.918636 126.030818 
L 321.343919 126.030818 
L 321.459121 129.359687 
L 368.063509 129.359687 
L 368.178711 128.693914 
L 398.487273 128.693914 
L 398.487273 128.693914 
" clip-path="url(#p597f90b934)" style="fill: none; stroke: #7f7f7f; stroke-width: 1.5; stroke-linecap: square"/>
   </g>
   <g id="line2d_19">
    <path d="M 73.832727 66.776952 
L 73.963638 80.258871 
L 73.979348 82.921966 
L 74.105023 76.097785 
L 74.125968 76.097785 
L 74.194042 75.265568 
L 74.199279 78.594436 
L 74.209752 78.594436 
L 74.225461 81.923305 
L 74.246407 77.484814 
L 74.319717 78.649918 
L 74.356372 78.649918 
L 74.361609 77.8177 
L 74.377318 84.475438 
L 74.424446 82.977447 
L 74.550121 92.964054 
L 74.576303 92.964054 
L 74.701978 90.467402 
L 74.707214 90.467402 
L 74.743869 93.796271 
L 74.81718 92.964054 
L 75.026637 92.964054 
L 75.110421 96.292923 
L 75.136603 95.1833 
L 75.806868 95.1833 
L 75.92207 94.351083 
L 76.052981 94.351083 
L 76.17342 101.00882 
L 76.194365 101.00882 
L 76.236257 99.899198 
L 76.241493 103.228066 
L 76.293858 103.228066 
L 76.314804 106.556935 
L 76.40906 105.891162 
L 76.57139 105.891162 
L 76.686591 105.225388 
L 77.519187 105.225388 
L 77.597733 104.559614 
L 77.60297 107.888483 
L 77.608206 107.888483 
L 77.754827 107.888483 
L 77.870029 107.222709 
L 77.969521 107.222709 
L 78.084723 110.551578 
L 78.545531 110.551578 
L 78.660732 113.880447 
L 78.812589 113.880447 
L 78.927791 113.214673 
L 78.943501 113.214673 
L 79.058702 116.543542 
L 79.367653 116.543542 
L 79.482855 115.711325 
L 79.514273 115.711325 
L 79.629475 114.879108 
L 79.802278 114.879108 
L 79.91748 118.207977 
L 79.996027 118.207977 
L 80.121701 128.194583 
L 80.650583 128.194583 
L 80.765785 127.08496 
L 81.577434 127.08496 
L 81.692636 126.252743 
L 82.059187 126.252743 
L 82.174389 125.14312 
L 82.446684 125.14312 
L 82.561886 124.310903 
L 83.829107 124.310903 
L 83.944309 123.645129 
L 85.546662 123.645129 
L 85.661864 122.812912 
L 86.662025 122.812912 
L 86.777227 126.141781 
L 87.227562 126.141781 
L 87.342763 125.476007 
L 87.630768 125.476007 
L 87.74597 124.810233 
L 88.458127 124.810233 
L 88.573329 123.978016 
L 89.081264 123.978016 
L 89.196466 127.306885 
L 89.432106 127.306885 
L 89.547308 126.197262 
L 91.306755 126.197262 
L 91.421956 125.365045 
L 91.950838 125.365045 
L 92.06604 128.693914 
L 93.914506 128.693914 
L 94.029708 132.022782 
L 97.527655 132.022782 
L 97.642857 130.91316 
L 106.691439 130.91316 
L 106.806641 130.080942 
L 114.467564 130.080942 
L 114.582766 129.526131 
L 122.385074 129.526131 
L 122.500276 132.855 
L 127.935709 132.855 
L 128.050911 132.022782 
L 131.224198 132.022782 
L 131.3394 135.351651 
L 139.031743 135.351651 
L 139.146944 138.68052 
L 139.859101 138.68052 
L 139.974303 137.570897 
L 158.33329 137.570897 
L 158.448492 136.461274 
L 166.083233 136.461274 
L 166.198435 139.790143 
L 177.718621 139.790143 
L 177.833823 143.119012 
L 187.646927 143.119012 
L 187.762128 142.286795 
L 220.175742 142.286795 
L 220.290944 145.615664 
L 260.690141 145.615664 
L 260.805343 148.944533 
L 295.61725 148.944533 
L 295.732452 148.112316 
L 313.803434 148.112316 
L 313.918636 151.441184 
L 321.343919 151.441184 
L 321.459121 154.770053 
L 368.063509 154.770053 
L 368.178711 154.10428 
L 398.487273 154.10428 
L 398.487273 154.10428 
" clip-path="url(#p597f90b934)" style="fill: none; stroke: #bcbd22; stroke-width: 1.5; stroke-linecap: square"/>
   </g>
   <g id="line2d_20">
    <path d="M 73.832727 66.776952 
L 73.958402 76.930002 
L 73.974111 76.930002 
L 73.979348 80.258871 
L 74.036949 76.042304 
L 74.084077 77.873182 
L 74.09455 77.873182 
L 74.194042 75.931341 
L 74.272589 88.137194 
L 74.319717 85.973429 
L 74.356372 85.973429 
L 74.502993 80.314352 
L 74.576303 80.314352 
L 74.701978 77.8177 
L 74.707214 77.8177 
L 74.733396 74.488831 
L 74.81718 76.985483 
L 75.026637 76.985483 
L 75.147076 74.766237 
L 75.702139 74.766237 
L 75.817341 78.095106 
L 76.052981 78.095106 
L 76.131528 76.985483 
L 76.136764 80.314352 
L 76.152474 80.314352 
L 76.194365 80.314352 
L 76.241493 82.533598 
L 76.309567 79.204729 
L 76.314804 79.204729 
L 76.430006 78.538955 
L 76.57139 78.538955 
L 76.686591 77.873182 
L 77.503477 77.873182 
L 77.623916 83.865146 
L 77.754827 83.865146 
L 77.870029 83.199372 
L 77.969521 83.199372 
L 78.084723 82.089749 
L 78.812589 82.089749 
L 78.927791 81.423975 
L 78.943501 81.423975 
L 79.058702 84.752844 
L 79.367653 84.752844 
L 79.482855 83.920627 
L 79.514273 83.920627 
L 79.629475 83.08841 
L 79.802278 83.08841 
L 79.91748 79.759541 
L 79.996027 79.759541 
L 80.001263 78.649918 
L 80.0065 81.978787 
L 80.095519 81.978787 
L 80.210721 85.307655 
L 80.650583 85.307655 
L 80.765785 84.198032 
L 81.577434 84.198032 
L 81.692636 83.365815 
L 82.059187 83.365815 
L 82.174389 82.256192 
L 82.446684 82.256192 
L 82.561886 81.423975 
L 82.677088 84.752844 
L 83.829107 84.752844 
L 83.944309 84.08707 
L 85.546662 84.08707 
L 85.661864 83.254853 
L 86.662025 83.254853 
L 86.777227 86.583722 
L 87.227562 86.583722 
L 87.342763 85.917948 
L 87.630768 85.917948 
L 87.74597 85.252174 
L 88.458127 85.252174 
L 88.573329 84.419957 
L 89.081264 84.419957 
L 89.196466 87.748826 
L 91.306755 87.748826 
L 91.421956 86.916609 
L 91.950838 86.916609 
L 92.06604 83.58774 
L 93.914506 83.58774 
L 94.029708 86.916609 
L 97.527655 86.916609 
L 97.642857 85.806986 
L 106.691439 85.806986 
L 106.806641 84.974769 
L 107.539744 84.974769 
L 107.654946 83.865146 
L 114.467564 83.865146 
L 114.582766 87.194014 
L 127.935709 87.194014 
L 128.050911 86.361797 
L 131.224198 86.361797 
L 131.3394 83.032928 
L 139.031743 83.032928 
L 139.146944 86.361797 
L 139.859101 86.361797 
L 139.974303 85.252174 
L 158.33329 85.252174 
L 158.448492 84.142551 
L 166.083233 84.142551 
L 166.198435 80.813682 
L 177.718621 80.813682 
L 177.833823 84.142551 
L 187.646927 84.142551 
L 187.762128 83.310334 
L 220.175742 83.310334 
L 220.290944 86.639203 
L 260.690141 86.639203 
L 260.805343 85.52958 
L 295.61725 85.52958 
L 295.732452 84.697363 
L 313.803434 84.697363 
L 313.918636 83.032928 
L 321.343919 83.032928 
L 321.459121 86.361797 
L 368.063509 86.361797 
L 368.178711 85.696023 
L 398.487273 85.696023 
L 398.487273 85.696023 
" clip-path="url(#p597f90b934)" style="fill: none; stroke: #17becf; stroke-width: 1.5; stroke-linecap: square"/>
   </g>
   <g id="line2d_21">
    <path d="M 73.832727 66.776952 
L 73.958402 76.763559 
L 73.963638 76.763559 
L 73.979348 76.097785 
L 73.984584 79.426654 
L 74.052658 79.426654 
L 74.194042 79.426654 
L 74.209752 78.871842 
L 74.214988 82.200711 
L 74.262116 82.200711 
L 74.382554 88.858449 
L 74.455865 88.858449 
L 74.571066 92.187318 
L 74.733396 92.187318 
L 74.848598 91.521544 
L 78.545531 91.521544 
L 78.660732 94.850413 
L 80.095519 94.850413 
L 80.210721 93.74079 
L 93.914506 93.74079 
L 94.029708 97.069659 
L 114.467564 97.069659 
L 114.582766 96.514847 
L 122.385074 96.514847 
L 122.500276 99.843716 
L 139.031743 99.843716 
L 139.146944 103.172585 
L 177.718621 103.172585 
L 177.833823 106.501454 
L 220.175742 106.501454 
L 220.290944 105.391831 
L 398.487273 105.391831 
L 398.487273 105.391831 
" clip-path="url(#p597f90b934)" style="fill: none; stroke: #1f77b4; stroke-width: 1.5; stroke-linecap: square"/>
   </g>
   <g id="line2d_22">
    <path d="M 73.832727 66.776952 
L 73.869382 66.776952 
L 73.895565 65.112517 
L 73.91651 71.770255 
L 73.963638 71.770255 
L 74.010767 69.440047 
L 74.021239 76.097785 
L 74.068367 71.659293 
L 74.146914 78.317031 
L 74.178333 71.659293 
L 74.194042 71.659293 
L 74.33019 88.303637 
L 74.345899 88.303637 
L 74.461101 84.974769 
L 74.487283 84.974769 
L 74.576303 81.6459 
L 74.592012 84.142551 
L 74.707214 87.47142 
L 74.743869 87.47142 
L 74.859071 90.800289 
L 75.000455 90.800289 
L 75.026637 87.47142 
L 75.110421 90.800289 
L 75.806868 90.800289 
L 75.92207 94.129158 
L 76.052981 94.129158 
L 76.152474 97.458027 
L 76.162947 94.129158 
L 76.178656 94.129158 
L 76.293858 90.800289 
L 76.314804 90.800289 
L 76.382877 94.129158 
L 76.424769 90.800289 
L 76.57139 90.800289 
L 76.686591 94.129158 
L 77.519187 94.129158 
L 77.634389 97.458027 
L 77.754827 97.458027 
L 77.83861 100.786896 
L 77.864792 97.458027 
L 77.901447 97.458027 
L 77.969521 94.129158 
L 78.011413 97.458027 
L 78.508875 97.458027 
L 78.624077 94.129158 
L 78.812589 94.129158 
L 78.927791 97.458027 
L 79.226269 97.458027 
L 79.341471 94.129158 
L 79.367653 94.129158 
L 79.482855 97.458027 
L 79.514273 97.458027 
L 79.629475 100.786896 
L 79.996027 100.786896 
L 80.111229 104.115765 
L 80.163593 104.115765 
L 80.278795 100.786896 
L 80.650583 100.786896 
L 80.765785 104.115765 
L 80.865277 104.115765 
L 80.980479 100.786896 
L 80.996188 100.786896 
L 81.11139 97.458027 
L 81.577434 97.458027 
L 81.692636 100.786896 
L 82.446684 100.786896 
L 82.561886 104.115765 
L 83.829107 104.115765 
L 83.944309 107.444634 
L 85.546662 107.444634 
L 85.661864 110.773503 
L 85.74041 110.773503 
L 85.855612 107.444634 
L 86.819119 107.444634 
L 86.93432 104.115765 
L 87.227562 104.115765 
L 87.243271 107.444634 
L 87.337527 104.115765 
L 87.630768 104.115765 
L 87.74597 107.444634 
L 88.458127 107.444634 
L 88.573329 110.773503 
L 91.306755 110.773503 
L 91.421956 114.102372 
L 93.071438 114.102372 
L 93.186639 110.773503 
L 97.527655 110.773503 
L 97.642857 114.102372 
L 101.491646 114.102372 
L 101.606848 110.773503 
L 106.691439 110.773503 
L 106.806641 114.102372 
L 107.539744 114.102372 
L 107.654946 117.43124 
L 114.467564 117.43124 
L 114.582766 120.760109 
L 114.624658 120.760109 
L 114.73986 117.43124 
L 114.965027 117.43124 
L 115.080229 114.102372 
L 127.935709 114.102372 
L 128.050911 117.43124 
L 168.56531 117.43124 
L 168.680512 114.102372 
L 187.646927 114.102372 
L 187.762128 117.43124 
L 260.690141 117.43124 
L 260.805343 120.760109 
L 262.512425 120.760109 
L 262.627627 117.43124 
L 295.61725 117.43124 
L 295.732452 120.760109 
L 325.318383 120.760109 
L 325.433585 117.43124 
L 368.063509 117.43124 
L 368.178711 120.760109 
L 398.487273 120.760109 
L 398.487273 120.760109 
" clip-path="url(#p597f90b934)" style="fill: none; stroke: #ff7f0e; stroke-width: 1.5; stroke-linecap: square"/>
   </g>
   <g id="patch_3">
    <path d="M 57.6 162.432 
L 57.6 41.472 
" style="fill: none; stroke: #000000; stroke-width: 0.8; stroke-linejoin: miter; stroke-linecap: square"/>
   </g>
   <g id="patch_4">
    <path d="M 414.72 162.432 
L 414.72 41.472 
" style="fill: none; stroke: #000000; stroke-width: 0.8; stroke-linejoin: miter; stroke-linecap: square"/>
   </g>
   <g id="patch_5">
    <path d="M 57.6 162.432 
L 414.72 162.432 
" style="fill: none; stroke: #000000; stroke-width: 0.8; stroke-linejoin: miter; stroke-linecap: square"/>
   </g>
   <g id="patch_6">
    <path d="M 57.6 41.472 
L 414.72 41.472 
" style="fill: none; stroke: #000000; stroke-width: 0.8; stroke-linejoin: miter; stroke-linecap: square"/>
   </g>
   <g id="text_11">
    <!-- WSP -->
    <g transform="translate(361.832136 46.970182)scale(0.08 -0.08)">
     <defs>
      <path id="DejaVuSans-57" d="M 213 4666 
L 850 4666 
L 1831 722 
L 2809 4666 
L 3519 4666 
L 4500 722 
L 5478 4666 
L 6119 4666 
L 4947 0 
L 4153 0 
L 3169 4050 
L 2175 0 
L 1381 0 
L 213 4666 
z
" transform="scale(0.015625)"/>
      <path id="DejaVuSans-53" d="M 3425 4513 
L 3425 3897 
Q 3066 4069 2747 4153 
Q 2428 4238 2131 4238 
Q 1616 4238 1336 4038 
Q 1056 3838 1056 3469 
Q 1056 3159 1242 3001 
Q 1428 2844 1947 2747 
L 2328 2669 
Q 3034 2534 3370 2195 
Q 3706 1856 3706 1288 
Q 3706 609 3251 259 
Q 2797 -91 1919 -91 
Q 1588 -91 1214 -16 
Q 841 59 441 206 
L 441 856 
Q 825 641 1194 531 
Q 1563 422 1919 422 
Q 2459 422 2753 634 
Q 3047 847 3047 1241 
Q 3047 1584 2836 1778 
Q 2625 1972 2144 2069 
L 1759 2144 
Q 1053 2284 737 2584 
Q 422 2884 422 3419 
Q 422 4038 858 4394 
Q 1294 4750 2059 4750 
Q 2388 4750 2728 4690 
Q 3069 4631 3425 4513 
z
" transform="scale(0.015625)"/>
      <path id="DejaVuSans-50" d="M 1259 4147 
L 1259 2394 
L 2053 2394 
Q 2494 2394 2734 2622 
Q 2975 2850 2975 3272 
Q 2975 3691 2734 3919 
Q 2494 4147 2053 4147 
L 1259 4147 
z
M 628 4666 
L 2053 4666 
Q 2838 4666 3239 4311 
Q 3641 3956 3641 3272 
Q 3641 2581 3239 2228 
Q 2838 1875 2053 1875 
L 1259 1875 
L 1259 0 
L 628 0 
L 628 4666 
z
" transform="scale(0.015625)"/>
     </defs>
     <use xlink:href="#DejaVuSans-57"/>
     <use xlink:href="#DejaVuSans-53" x="98.876953"/>
     <use xlink:href="#DejaVuSans-50" x="162.353516"/>
    </g>
   </g>
   <g id="text_12">
    <!-- Iambic -->
    <g transform="translate(361.832136 156.268044)scale(0.08 -0.08)">
     <defs>
      <path id="DejaVuSans-49" d="M 628 4666 
L 1259 4666 
L 1259 0 
L 628 0 
L 628 4666 
z
" transform="scale(0.015625)"/>
      <path id="DejaVuSans-61" d="M 2194 1759 
Q 1497 1759 1228 1600 
Q 959 1441 959 1056 
Q 959 750 1161 570 
Q 1363 391 1709 391 
Q 2188 391 2477 730 
Q 2766 1069 2766 1631 
L 2766 1759 
L 2194 1759 
z
M 3341 1997 
L 3341 0 
L 2766 0 
L 2766 531 
Q 2569 213 2275 61 
Q 1981 -91 1556 -91 
Q 1019 -91 701 211 
Q 384 513 384 1019 
Q 384 1609 779 1909 
Q 1175 2209 1959 2209 
L 2766 2209 
L 2766 2266 
Q 2766 2663 2505 2880 
Q 2244 3097 1772 3097 
Q 1472 3097 1187 3025 
Q 903 2953 641 2809 
L 641 3341 
Q 956 3463 1253 3523 
Q 1550 3584 1831 3584 
Q 2591 3584 2966 3190 
Q 3341 2797 3341 1997 
z
" transform="scale(0.015625)"/>
      <path id="DejaVuSans-6d" d="M 3328 2828 
Q 3544 3216 3844 3400 
Q 4144 3584 4550 3584 
Q 5097 3584 5394 3201 
Q 5691 2819 5691 2113 
L 5691 0 
L 5113 0 
L 5113 2094 
Q 5113 2597 4934 2840 
Q 4756 3084 4391 3084 
Q 3944 3084 3684 2787 
Q 3425 2491 3425 1978 
L 3425 0 
L 2847 0 
L 2847 2094 
Q 2847 2600 2669 2842 
Q 2491 3084 2119 3084 
Q 1678 3084 1418 2786 
Q 1159 2488 1159 1978 
L 1159 0 
L 581 0 
L 581 3500 
L 1159 3500 
L 1159 2956 
Q 1356 3278 1631 3431 
Q 1906 3584 2284 3584 
Q 2666 3584 2933 3390 
Q 3200 3197 3328 2828 
z
" transform="scale(0.015625)"/>
      <path id="DejaVuSans-62" d="M 3116 1747 
Q 3116 2381 2855 2742 
Q 2594 3103 2138 3103 
Q 1681 3103 1420 2742 
Q 1159 2381 1159 1747 
Q 1159 1113 1420 752 
Q 1681 391 2138 391 
Q 2594 391 2855 752 
Q 3116 1113 3116 1747 
z
M 1159 2969 
Q 1341 3281 1617 3432 
Q 1894 3584 2278 3584 
Q 2916 3584 3314 3078 
Q 3713 2572 3713 1747 
Q 3713 922 3314 415 
Q 2916 -91 2278 -91 
Q 1894 -91 1617 61 
Q 1341 213 1159 525 
L 1159 0 
L 581 0 
L 581 4863 
L 1159 4863 
L 1159 2969 
z
" transform="scale(0.015625)"/>
      <path id="DejaVuSans-69" d="M 603 3500 
L 1178 3500 
L 1178 0 
L 603 0 
L 603 3500 
z
M 603 4863 
L 1178 4863 
L 1178 4134 
L 603 4134 
L 603 4863 
z
" transform="scale(0.015625)"/>
      <path id="DejaVuSans-63" d="M 3122 3366 
L 3122 2828 
Q 2878 2963 2633 3030 
Q 2388 3097 2138 3097 
Q 1578 3097 1268 2742 
Q 959 2388 959 1747 
Q 959 1106 1268 751 
Q 1578 397 2138 397 
Q 2388 397 2633 464 
Q 2878 531 3122 666 
L 3122 134 
Q 2881 22 2623 -34 
Q 2366 -91 2075 -91 
Q 1284 -91 818 406 
Q 353 903 353 1747 
Q 353 2603 823 3093 
Q 1294 3584 2113 3584 
Q 2378 3584 2631 3529 
Q 2884 3475 3122 3366 
z
" transform="scale(0.015625)"/>
     </defs>
     <use xlink:href="#DejaVuSans-49"/>
     <use xlink:href="#DejaVuSans-61" x="29.492188"/>
     <use xlink:href="#DejaVuSans-6d" x="90.771484"/>
     <use xlink:href="#DejaVuSans-62" x="188.183594"/>
     <use xlink:href="#DejaVuSans-69" x="251.660156"/>
     <use xlink:href="#DejaVuSans-63" x="279.443359"/>
    </g>
   </g>
   <g id="text_13">
    <!-- Parse -->
    <g transform="translate(361.832136 125.64245)scale(0.08 -0.08)">
     <defs>
      <path id="DejaVuSans-72" d="M 2631 2963 
Q 2534 3019 2420 3045 
Q 2306 3072 2169 3072 
Q 1681 3072 1420 2755 
Q 1159 2438 1159 1844 
L 1159 0 
L 581 0 
L 581 3500 
L 1159 3500 
L 1159 2956 
Q 1341 3275 1631 3429 
Q 1922 3584 2338 3584 
Q 2397 3584 2469 3576 
Q 2541 3569 2628 3553 
L 2631 2963 
z
" transform="scale(0.015625)"/>
      <path id="DejaVuSans-73" d="M 2834 3397 
L 2834 2853 
Q 2591 2978 2328 3040 
Q 2066 3103 1784 3103 
Q 1356 3103 1142 2972 
Q 928 2841 928 2578 
Q 928 2378 1081 2264 
Q 1234 2150 1697 2047 
L 1894 2003 
Q 2506 1872 2764 1633 
Q 3022 1394 3022 966 
Q 3022 478 2636 193 
Q 2250 -91 1575 -91 
Q 1294 -91 989 -36 
Q 684 19 347 128 
L 347 722 
Q 666 556 975 473 
Q 1284 391 1588 391 
Q 1994 391 2212 530 
Q 2431 669 2431 922 
Q 2431 1156 2273 1281 
Q 2116 1406 1581 1522 
L 1381 1569 
Q 847 1681 609 1914 
Q 372 2147 372 2553 
Q 372 3047 722 3315 
Q 1072 3584 1716 3584 
Q 2034 3584 2315 3537 
Q 2597 3491 2834 3397 
z
" transform="scale(0.015625)"/>
      <path id="DejaVuSans-65" d="M 3597 1894 
L 3597 1613 
L 953 1613 
Q 991 1019 1311 708 
Q 1631 397 2203 397 
Q 2534 397 2845 478 
Q 3156 559 3463 722 
L 3463 178 
Q 3153 47 2828 -22 
Q 2503 -91 2169 -91 
Q 1331 -91 842 396 
Q 353 884 353 1716 
Q 353 2575 817 3079 
Q 1281 3584 2069 3584 
Q 2775 3584 3186 3129 
Q 3597 2675 3597 1894 
z
M 3022 2063 
Q 3016 2534 2758 2815 
Q 2500 3097 2075 3097 
Q 1594 3097 1305 2825 
Q 1016 2553 972 2059 
L 3022 2063 
z
" transform="scale(0.015625)"/>
     </defs>
     <use xlink:href="#DejaVuSans-50"/>
     <use xlink:href="#DejaVuSans-61" x="55.802734"/>
     <use xlink:href="#DejaVuSans-72" x="117.082031"/>
     <use xlink:href="#DejaVuSans-73" x="158.195312"/>
     <use xlink:href="#DejaVuSans-65" x="210.294922"/>
    </g>
   </g>
   <g id="text_14">
    <!-- FootBin -->
    <g transform="translate(361.832136 125.087639)scale(0.08 -0.08)">
     <defs>
      <path id="DejaVuSans-46" d="M 628 4666 
L 3309 4666 
L 3309 4134 
L 1259 4134 
L 1259 2759 
L 3109 2759 
L 3109 2228 
L 1259 2228 
L 1259 0 
L 628 0 
L 628 4666 
z
" transform="scale(0.015625)"/>
      <path id="DejaVuSans-6f" d="M 1959 3097 
Q 1497 3097 1228 2736 
Q 959 2375 959 1747 
Q 959 1119 1226 758 
Q 1494 397 1959 397 
Q 2419 397 2687 759 
Q 2956 1122 2956 1747 
Q 2956 2369 2687 2733 
Q 2419 3097 1959 3097 
z
M 1959 3584 
Q 2709 3584 3137 3096 
Q 3566 2609 3566 1747 
Q 3566 888 3137 398 
Q 2709 -91 1959 -91 
Q 1206 -91 779 398 
Q 353 888 353 1747 
Q 353 2609 779 3096 
Q 1206 3584 1959 3584 
z
" transform="scale(0.015625)"/>
      <path id="DejaVuSans-74" d="M 1172 4494 
L 1172 3500 
L 2356 3500 
L 2356 3053 
L 1172 3053 
L 1172 1153 
Q 1172 725 1289 603 
Q 1406 481 1766 481 
L 2356 481 
L 2356 0 
L 1766 0 
Q 1100 0 847 248 
Q 594 497 594 1153 
L 594 3053 
L 172 3053 
L 172 3500 
L 594 3500 
L 594 4494 
L 1172 4494 
z
" transform="scale(0.015625)"/>
      <path id="DejaVuSans-42" d="M 1259 2228 
L 1259 519 
L 2272 519 
Q 2781 519 3026 730 
Q 3272 941 3272 1375 
Q 3272 1813 3026 2020 
Q 2781 2228 2272 2228 
L 1259 2228 
z
M 1259 4147 
L 1259 2741 
L 2194 2741 
Q 2656 2741 2882 2914 
Q 3109 3088 3109 3444 
Q 3109 3797 2882 3972 
Q 2656 4147 2194 4147 
L 1259 4147 
z
M 628 4666 
L 2241 4666 
Q 2963 4666 3353 4366 
Q 3744 4066 3744 3513 
Q 3744 3084 3544 2831 
Q 3344 2578 2956 2516 
Q 3422 2416 3680 2098 
Q 3938 1781 3938 1306 
Q 3938 681 3513 340 
Q 3088 0 2303 0 
L 628 0 
L 628 4666 
z
" transform="scale(0.015625)"/>
      <path id="DejaVuSans-6e" d="M 3513 2113 
L 3513 0 
L 2938 0 
L 2938 2094 
Q 2938 2591 2744 2837 
Q 2550 3084 2163 3084 
Q 1697 3084 1428 2787 
Q 1159 2491 1159 1978 
L 1159 0 
L 581 0 
L 581 3500 
L 1159 3500 
L 1159 2956 
Q 1366 3272 1645 3428 
Q 1925 3584 2291 3584 
Q 2894 3584 3203 3211 
Q 3513 2838 3513 2113 
z
" transform="scale(0.015625)"/>
     </defs>
     <use xlink:href="#DejaVuSans-46"/>
     <use xlink:href="#DejaVuSans-6f" x="53.894531"/>
     <use xlink:href="#DejaVuSans-6f" x="115.076172"/>
     <use xlink:href="#DejaVuSans-74" x="176.257812"/>
     <use xlink:href="#DejaVuSans-42" x="215.466797"/>
     <use xlink:href="#DejaVuSans-69" x="284.070312"/>
     <use xlink:href="#DejaVuSans-6e" x="311.853516"/>
    </g>
   </g>
   <g id="text_15">
    <!-- WFL -->
    <g transform="translate(361.832136 61.117875)scale(0.08 -0.08)">
     <defs>
      <path id="DejaVuSans-4c" d="M 628 4666 
L 1259 4666 
L 1259 531 
L 3531 531 
L 3531 0 
L 628 0 
L 628 4666 
z
" transform="scale(0.015625)"/>
     </defs>
     <use xlink:href="#DejaVuSans-57"/>
     <use xlink:href="#DejaVuSans-46" x="98.876953"/>
     <use xlink:href="#DejaVuSans-4c" x="156.396484"/>
    </g>
   </g>
   <g id="text_16">
    <!-- WFR -->
    <g transform="translate(361.832136 67.220801)scale(0.08 -0.08)">
     <defs>
      <path id="DejaVuSans-52" d="M 2841 2188 
Q 3044 2119 3236 1894 
Q 3428 1669 3622 1275 
L 4263 0 
L 3584 0 
L 2988 1197 
Q 2756 1666 2539 1819 
Q 2322 1972 1947 1972 
L 1259 1972 
L 1259 0 
L 628 0 
L 628 4666 
L 2053 4666 
Q 2853 4666 3247 4331 
Q 3641 3997 3641 3322 
Q 3641 2881 3436 2590 
Q 3231 2300 2841 2188 
z
M 1259 4147 
L 1259 2491 
L 2053 2491 
Q 2509 2491 2742 2702 
Q 2975 2913 2975 3322 
Q 2975 3731 2742 3939 
Q 2509 4147 2053 4147 
L 1259 4147 
z
" transform="scale(0.015625)"/>
     </defs>
     <use xlink:href="#DejaVuSans-57"/>
     <use xlink:href="#DejaVuSans-46" x="98.876953"/>
     <use xlink:href="#DejaVuSans-52" x="156.396484"/>
    </g>
   </g>
   <g id="text_17">
    <!-- Main-L -->
    <g transform="translate(361.832136 53.794363)scale(0.08 -0.08)">
     <defs>
      <path id="DejaVuSans-4d" d="M 628 4666 
L 1569 4666 
L 2759 1491 
L 3956 4666 
L 4897 4666 
L 4897 0 
L 4281 0 
L 4281 4097 
L 3078 897 
L 2444 897 
L 1241 4097 
L 1241 0 
L 628 0 
L 628 4666 
z
" transform="scale(0.015625)"/>
      <path id="DejaVuSans-2d" d="M 313 2009 
L 1997 2009 
L 1997 1497 
L 313 1497 
L 313 2009 
z
" transform="scale(0.015625)"/>
     </defs>
     <use xlink:href="#DejaVuSans-4d"/>
     <use xlink:href="#DejaVuSans-61" x="86.279297"/>
     <use xlink:href="#DejaVuSans-69" x="147.558594"/>
     <use xlink:href="#DejaVuSans-6e" x="175.341797"/>
     <use xlink:href="#DejaVuSans-2d" x="238.720703"/>
     <use xlink:href="#DejaVuSans-4c" x="274.804688"/>
    </g>
   </g>
   <g id="text_18">
    <!-- Main-R -->
    <g transform="translate(361.832136 128.693914)scale(0.08 -0.08)">
     <use xlink:href="#DejaVuSans-4d"/>
     <use xlink:href="#DejaVuSans-61" x="86.279297"/>
     <use xlink:href="#DejaVuSans-69" x="147.558594"/>
     <use xlink:href="#DejaVuSans-6e" x="175.341797"/>
     <use xlink:href="#DejaVuSans-2d" x="238.720703"/>
     <use xlink:href="#DejaVuSans-52" x="274.804688"/>
    </g>
   </g>
   <g id="text_19">
    <!-- AFL -->
    <g transform="translate(361.832136 154.10428)scale(0.08 -0.08)">
     <defs>
      <path id="DejaVuSans-41" d="M 2188 4044 
L 1331 1722 
L 3047 1722 
L 2188 4044 
z
M 1831 4666 
L 2547 4666 
L 4325 0 
L 3669 0 
L 3244 1197 
L 1141 1197 
L 716 0 
L 50 0 
L 1831 4666 
z
" transform="scale(0.015625)"/>
     </defs>
     <use xlink:href="#DejaVuSans-41"/>
     <use xlink:href="#DejaVuSans-46" x="68.408203"/>
     <use xlink:href="#DejaVuSans-4c" x="125.927734"/>
    </g>
   </g>
   <g id="text_20">
    <!-- AFR -->
    <g transform="translate(361.832136 85.696023)scale(0.08 -0.08)">
     <use xlink:href="#DejaVuSans-41"/>
     <use xlink:href="#DejaVuSans-46" x="68.408203"/>
     <use xlink:href="#DejaVuSans-52" x="125.927734"/>
    </g>
   </g>
   <g id="text_21">
    <!-- Nonfinal -->
    <g transform="translate(361.832136 105.391831)scale(0.08 -0.08)">
     <defs>
      <path id="DejaVuSans-4e" d="M 628 4666 
L 1478 4666 
L 3547 763 
L 3547 4666 
L 4159 4666 
L 4159 0 
L 3309 0 
L 1241 3903 
L 1241 0 
L 628 0 
L 628 4666 
z
" transform="scale(0.015625)"/>
      <path id="DejaVuSans-66" d="M 2375 4863 
L 2375 4384 
L 1825 4384 
Q 1516 4384 1395 4259 
Q 1275 4134 1275 3809 
L 1275 3500 
L 2222 3500 
L 2222 3053 
L 1275 3053 
L 1275 0 
L 697 0 
L 697 3053 
L 147 3053 
L 147 3500 
L 697 3500 
L 697 3744 
Q 697 4328 969 4595 
Q 1241 4863 1831 4863 
L 2375 4863 
z
" transform="scale(0.015625)"/>
      <path id="DejaVuSans-6c" d="M 603 4863 
L 1178 4863 
L 1178 0 
L 603 0 
L 603 4863 
z
" transform="scale(0.015625)"/>
     </defs>
     <use xlink:href="#DejaVuSans-4e"/>
     <use xlink:href="#DejaVuSans-6f" x="74.804688"/>
     <use xlink:href="#DejaVuSans-6e" x="135.986328"/>
     <use xlink:href="#DejaVuSans-66" x="199.365234"/>
     <use xlink:href="#DejaVuSans-69" x="234.570312"/>
     <use xlink:href="#DejaVuSans-6e" x="262.353516"/>
     <use xlink:href="#DejaVuSans-61" x="325.732422"/>
     <use xlink:href="#DejaVuSans-6c" x="387.011719"/>
    </g>
   </g>
   <g id="text_22">
    <!-- Trochaic -->
    <g transform="translate(361.832136 120.760109)scale(0.08 -0.08)">
     <defs>
      <path id="DejaVuSans-54" d="M -19 4666 
L 3928 4666 
L 3928 4134 
L 2272 4134 
L 2272 0 
L 1638 0 
L 1638 4134 
L -19 4134 
L -19 4666 
z
" transform="scale(0.015625)"/>
      <path id="DejaVuSans-68" d="M 3513 2113 
L 3513 0 
L 2938 0 
L 2938 2094 
Q 2938 2591 2744 2837 
Q 2550 3084 2163 3084 
Q 1697 3084 1428 2787 
Q 1159 2491 1159 1978 
L 1159 0 
L 581 0 
L 581 4863 
L 1159 4863 
L 1159 2956 
Q 1366 3272 1645 3428 
Q 1925 3584 2291 3584 
Q 2894 3584 3203 3211 
Q 3513 2838 3513 2113 
z
" transform="scale(0.015625)"/>
     </defs>
     <use xlink:href="#DejaVuSans-54"/>
     <use xlink:href="#DejaVuSans-72" x="46.333984"/>
     <use xlink:href="#DejaVuSans-6f" x="85.197266"/>
     <use xlink:href="#DejaVuSans-63" x="146.378906"/>
     <use xlink:href="#DejaVuSans-68" x="201.359375"/>
     <use xlink:href="#DejaVuSans-61" x="264.738281"/>
     <use xlink:href="#DejaVuSans-69" x="326.017578"/>
     <use xlink:href="#DejaVuSans-63" x="353.800781"/>
    </g>
   </g>
  </g>
  <g id="axes_2">
   <g id="patch_7">
    <path d="M 57.6 307.584 
L 414.72 307.584 
L 414.72 186.624 
L 57.6 186.624 
z
" style="fill: #ffffff"/>
   </g>
   <g id="matplotlib.axis_3">
    <g id="xtick_8">
     <g id="line2d_23">
      <g>
       <use xlink:href="#meb214074b7" x="71.373223" y="307.584" style="stroke: #000000; stroke-width: 0.8"/>
      </g>
     </g>
     <g id="text_23">
      <!-- 0 -->
      <g transform="translate(68.191973 322.182437)scale(0.1 -0.1)">
       <use xlink:href="#DejaVuSans-30"/>
      </g>
     </g>
    </g>
    <g id="xtick_9">
     <g id="line2d_24">
      <g>
       <use xlink:href="#meb214074b7" x="120.563306" y="307.584" style="stroke: #000000; stroke-width: 0.8"/>
      </g>
     </g>
     <g id="text_24">
      <!-- 20 -->
      <g transform="translate(114.200806 322.182437)scale(0.1 -0.1)">
       <use xlink:href="#DejaVuSans-32"/>
       <use xlink:href="#DejaVuSans-30" x="63.623047"/>
      </g>
     </g>
    </g>
    <g id="xtick_10">
     <g id="line2d_25">
      <g>
       <use xlink:href="#meb214074b7" x="169.753388" y="307.584" style="stroke: #000000; stroke-width: 0.8"/>
      </g>
     </g>
     <g id="text_25">
      <!-- 40 -->
      <g transform="translate(163.390888 322.182437)scale(0.1 -0.1)">
       <use xlink:href="#DejaVuSans-34"/>
       <use xlink:href="#DejaVuSans-30" x="63.623047"/>
      </g>
     </g>
    </g>
    <g id="xtick_11">
     <g id="line2d_26">
      <g>
       <use xlink:href="#meb214074b7" x="218.943471" y="307.584" style="stroke: #000000; stroke-width: 0.8"/>
      </g>
     </g>
     <g id="text_26">
      <!-- 60 -->
      <g transform="translate(212.580971 322.182437)scale(0.1 -0.1)">
       <use xlink:href="#DejaVuSans-36"/>
       <use xlink:href="#DejaVuSans-30" x="63.623047"/>
      </g>
     </g>
    </g>
    <g id="xtick_12">
     <g id="line2d_27">
      <g>
       <use xlink:href="#meb214074b7" x="268.133554" y="307.584" style="stroke: #000000; stroke-width: 0.8"/>
      </g>
     </g>
     <g id="text_27">
      <!-- 80 -->
      <g transform="translate(261.771054 322.182437)scale(0.1 -0.1)">
       <use xlink:href="#DejaVuSans-38"/>
       <use xlink:href="#DejaVuSans-30" x="63.623047"/>
      </g>
     </g>
    </g>
    <g id="xtick_13">
     <g id="line2d_28">
      <g>
       <use xlink:href="#meb214074b7" x="317.323636" y="307.584" style="stroke: #000000; stroke-width: 0.8"/>
      </g>
     </g>
     <g id="text_28">
      <!-- 100 -->
      <g transform="translate(307.779886 322.182437)scale(0.1 -0.1)">
       <use xlink:href="#DejaVuSans-31"/>
       <use xlink:href="#DejaVuSans-30" x="63.623047"/>
       <use xlink:href="#DejaVuSans-30" x="127.246094"/>
      </g>
     </g>
    </g>
    <g id="xtick_14">
     <g id="line2d_29">
      <g>
       <use xlink:href="#meb214074b7" x="366.513719" y="307.584" style="stroke: #000000; stroke-width: 0.8"/>
      </g>
     </g>
     <g id="text_29">
      <!-- 120 -->
      <g transform="translate(356.969969 322.182437)scale(0.1 -0.1)">
       <use xlink:href="#DejaVuSans-31"/>
       <use xlink:href="#DejaVuSans-32" x="63.623047"/>
       <use xlink:href="#DejaVuSans-30" x="127.246094"/>
      </g>
     </g>
    </g>
   </g>
   <g id="matplotlib.axis_4">
    <g id="ytick_4">
     <g id="line2d_30">
      <g>
       <use xlink:href="#m735511ec13" x="57.6" y="302.099291" style="stroke: #000000; stroke-width: 0.8"/>
      </g>
     </g>
     <g id="text_30">
      <!-- 0 -->
      <g transform="translate(44.2375 305.89851)scale(0.1 -0.1)">
       <use xlink:href="#DejaVuSans-30"/>
      </g>
     </g>
    </g>
    <g id="ytick_5">
     <g id="line2d_31">
      <g>
       <use xlink:href="#m735511ec13" x="57.6" y="275.154023" style="stroke: #000000; stroke-width: 0.8"/>
      </g>
     </g>
     <g id="text_31">
      <!-- 2000 -->
      <g transform="translate(25.15 278.953242)scale(0.1 -0.1)">
       <use xlink:href="#DejaVuSans-32"/>
       <use xlink:href="#DejaVuSans-30" x="63.623047"/>
       <use xlink:href="#DejaVuSans-30" x="127.246094"/>
       <use xlink:href="#DejaVuSans-30" x="190.869141"/>
      </g>
     </g>
    </g>
    <g id="ytick_6">
     <g id="line2d_32">
      <g>
       <use xlink:href="#m735511ec13" x="57.6" y="248.208756" style="stroke: #000000; stroke-width: 0.8"/>
      </g>
     </g>
     <g id="text_32">
      <!-- 4000 -->
      <g transform="translate(25.15 252.007975)scale(0.1 -0.1)">
       <use xlink:href="#DejaVuSans-34"/>
       <use xlink:href="#DejaVuSans-30" x="63.623047"/>
       <use xlink:href="#DejaVuSans-30" x="127.246094"/>
       <use xlink:href="#DejaVuSans-30" x="190.869141"/>
      </g>
     </g>
    </g>
    <g id="ytick_7">
     <g id="line2d_33">
      <g>
       <use xlink:href="#m735511ec13" x="57.6" y="221.263489" style="stroke: #000000; stroke-width: 0.8"/>
      </g>
     </g>
     <g id="text_33">
      <!-- 6000 -->
      <g transform="translate(25.15 225.062707)scale(0.1 -0.1)">
       <use xlink:href="#DejaVuSans-36"/>
       <use xlink:href="#DejaVuSans-30" x="63.623047"/>
       <use xlink:href="#DejaVuSans-30" x="127.246094"/>
       <use xlink:href="#DejaVuSans-30" x="190.869141"/>
      </g>
     </g>
    </g>
    <g id="ytick_8">
     <g id="line2d_34">
      <g>
       <use xlink:href="#m735511ec13" x="57.6" y="194.318221" style="stroke: #000000; stroke-width: 0.8"/>
      </g>
     </g>
     <g id="text_34">
      <!-- 8000 -->
      <g transform="translate(25.15 198.11744)scale(0.1 -0.1)">
       <use xlink:href="#DejaVuSans-38"/>
       <use xlink:href="#DejaVuSans-30" x="63.623047"/>
       <use xlink:href="#DejaVuSans-30" x="127.246094"/>
       <use xlink:href="#DejaVuSans-30" x="190.869141"/>
      </g>
     </g>
    </g>
   </g>
   <g id="line2d_35">
    <path d="M 73.832727 302.085818 
L 184.510413 302.018455 
L 186.969917 301.870256 
L 189.429421 302.072346 
L 191.888926 302.085818 
L 194.34843 301.802893 
L 196.807934 302.031928 
L 199.267438 302.072346 
L 201.726942 301.439132 
L 204.186446 302.031928 
L 206.64595 301.883729 
L 209.105455 300.576883 
L 211.564959 301.829838 
L 214.024463 301.466077 
L 216.483967 301.897201 
L 218.943471 302.0454 
L 233.700496 301.924147 
L 236.16 301.614276 
L 238.619504 299.701162 
L 241.079008 302.058873 
L 245.998017 301.695112 
L 248.457521 301.883729 
L 253.376529 301.924147 
L 255.836033 300.71161 
L 258.295537 302.004982 
L 260.755041 301.412186 
L 263.214545 301.762475 
L 265.67405 301.371769 
L 268.133554 301.73553 
L 270.593058 301.722057 
L 273.052562 301.358296 
L 275.512066 301.600803 
L 277.97157 302.085818 
L 280.431074 301.856783 
L 282.890579 301.924147 
L 285.350083 300.846336 
L 287.809587 301.546913 
L 290.269091 301.762475 
L 292.728595 300.603828 
L 297.647603 301.102316 
L 300.107107 301.802893 
L 302.566612 298.838913 
L 305.026116 297.680267 
L 307.48562 301.600803 
L 309.945124 299.728107 
L 312.404628 301.695112 
L 314.864132 301.048425 
L 317.323636 302.058873 
L 319.78314 301.102316 
L 322.242645 299.970615 
L 324.702149 300.496047 
L 327.161653 301.196624 
L 329.621157 297.276088 
L 332.080661 300.442157 
L 334.540165 299.216147 
L 336.999669 299.930197 
L 339.459174 292.803174 
L 341.918678 291.900507 
L 344.378182 288.720966 
L 346.837686 299.916724 
L 349.29719 284.274996 
L 351.756694 301.695112 
L 354.216198 301.22357 
L 356.675702 283.008569 
L 359.135207 287.818299 
L 361.594711 293.638477 
L 364.054215 282.011594 
L 366.513719 299.970615 
L 368.973223 254.567839 
L 371.432727 282.159793 
L 373.892231 295.713262 
L 376.351736 278.549127 
L 378.81124 276.555177 
L 381.270744 218.40729 
L 383.730248 197.861524 
L 386.189752 297.410814 
L 388.649256 216.9253 
L 391.10876 255.308834 
L 393.568264 282.698698 
L 396.027769 291.873562 
L 398.487273 192.122182 
L 398.487273 192.122182 
" clip-path="url(#p871ce0d870)" style="fill: none; stroke: #1f77b4; stroke-width: 1.5; stroke-linecap: square"/>
   </g>
   <g id="patch_8">
    <path d="M 57.6 307.584 
L 57.6 186.624 
" style="fill: none; stroke: #000000; stroke-width: 0.8; stroke-linejoin: miter; stroke-linecap: square"/>
   </g>
   <g id="patch_9">
    <path d="M 414.72 307.584 
L 414.72 186.624 
" style="fill: none; stroke: #000000; stroke-width: 0.8; stroke-linejoin: miter; stroke-linecap: square"/>
   </g>
   <g id="patch_10">
    <path d="M 57.6 307.584 
L 414.72 307.584 
" style="fill: none; stroke: #000000; stroke-width: 0.8; stroke-linejoin: miter; stroke-linecap: square"/>
   </g>
   <g id="patch_11">
    <path d="M 57.6 186.624 
L 414.72 186.624 
" style="fill: none; stroke: #000000; stroke-width: 0.8; stroke-linejoin: miter; stroke-linecap: square"/>
   </g>
  </g>
 </g>
 <defs>
  <clipPath id="p597f90b934">
   <rect x="57.6" y="41.472" width="357.12" height="120.96"/>
  </clipPath>
  <clipPath id="p871ce0d870">
   <rect x="57.6" y="186.624" width="357.12" height="120.96"/>
  </clipPath>
 </defs>
</svg>
