<?xml version="1.0" encoding="utf-8" standalone="no"?>
<!DOCTYPE svg PUBLIC "-//W3C//DTD SVG 1.1//EN"
  "http://www.w3.org/Graphics/SVG/1.1/DTD/svg11.dtd">
<svg xmlns:xlink="http://www.w3.org/1999/xlink" width="460.8pt" height="345.6pt" viewBox="0 0 460.8 345.6" xmlns="http://www.w3.org/2000/svg" version="1.1">
 <metadata>
  <rdf:RDF xmlns:dc="http://purl.org/dc/elements/1.1/" xmlns:cc="http://creativecommons.org/ns#" xmlns:rdf="http://www.w3.org/1999/02/22-rdf-syntax-ns#">
   <cc:Work>
    <dc:type rdf:resource="http://purl.org/dc/dcmitype/StillImage"/>
    <dc:date>2022-05-13T17:23:13.174842</dc:date>
    <dc:format>image/svg+xml</dc:format>
    <dc:creator>
     <cc:Agent>
      <dc:title>Matplotlib v3.5.1, https://matplotlib.org/</dc:title>
     </cc:Agent>
    </dc:creator>
   </cc:Work>
  </rdf:RDF>
 </metadata>
 <defs>
  <style type="text/css">*{stroke-linejoin: round; stroke-linecap: butt}</style>
 </defs>
 <g id="figure_1">
  <g id="patch_1">
   <path d="M 0 345.6 
L 460.8 345.6 
L 460.8 0 
L 0 0 
z
" style="fill: #ffffff"/>
  </g>
  <g id="axes_1">
   <g id="patch_2">
    <path d="M 57.6 162.432 
L 414.72 162.432 
L 414.72 41.472 
L 57.6 41.472 
z
" style="fill: #ffffff"/>
   </g>
   <g id="matplotlib.axis_1">
    <g id="xtick_1">
     <g id="line2d_1">
      <defs>
       <path id="m2537f9c378" d="M 0 0 
L 0 3.5 
" style="stroke: #000000; stroke-width: 0.8"/>
      </defs>
      <g>
       <use xlink:href="#m2537f9c378" x="73.827491" y="162.432" style="stroke: #000000; stroke-width: 0.8"/>
      </g>
     </g>
     <g id="text_1">
      <!-- 0 -->
      <g transform="translate(70.646241 177.030437)scale(0.1 -0.1)">
       <defs>
        <path id="DejaVuSans-30" d="M 2034 4250 
Q 1547 4250 1301 3770 
Q 1056 3291 1056 2328 
Q 1056 1369 1301 889 
Q 1547 409 2034 409 
Q 2525 409 2770 889 
Q 3016 1369 3016 2328 
Q 3016 3291 2770 3770 
Q 2525 4250 2034 4250 
z
M 2034 4750 
Q 2819 4750 3233 4129 
Q 3647 3509 3647 2328 
Q 3647 1150 3233 529 
Q 2819 -91 2034 -91 
Q 1250 -91 836 529 
Q 422 1150 422 2328 
Q 422 3509 836 4129 
Q 1250 4750 2034 4750 
z
" transform="scale(0.015625)"/>
       </defs>
       <use xlink:href="#DejaVuSans-30"/>
      </g>
     </g>
    </g>
    <g id="xtick_2">
     <g id="line2d_2">
      <g>
       <use xlink:href="#m2537f9c378" x="126.191972" y="162.432" style="stroke: #000000; stroke-width: 0.8"/>
      </g>
     </g>
     <g id="text_2">
      <!-- 10000 -->
      <g transform="translate(110.285722 177.030437)scale(0.1 -0.1)">
       <defs>
        <path id="DejaVuSans-31" d="M 794 531 
L 1825 531 
L 1825 4091 
L 703 3866 
L 703 4441 
L 1819 4666 
L 2450 4666 
L 2450 531 
L 3481 531 
L 3481 0 
L 794 0 
L 794 531 
z
" transform="scale(0.015625)"/>
       </defs>
       <use xlink:href="#DejaVuSans-31"/>
       <use xlink:href="#DejaVuSans-30" x="63.623047"/>
       <use xlink:href="#DejaVuSans-30" x="127.246094"/>
       <use xlink:href="#DejaVuSans-30" x="190.869141"/>
       <use xlink:href="#DejaVuSans-30" x="254.492188"/>
      </g>
     </g>
    </g>
    <g id="xtick_3">
     <g id="line2d_3">
      <g>
       <use xlink:href="#m2537f9c378" x="178.556453" y="162.432" style="stroke: #000000; stroke-width: 0.8"/>
      </g>
     </g>
     <g id="text_3">
      <!-- 20000 -->
      <g transform="translate(162.650203 177.030437)scale(0.1 -0.1)">
       <defs>
        <path id="DejaVuSans-32" d="M 1228 531 
L 3431 531 
L 3431 0 
L 469 0 
L 469 531 
Q 828 903 1448 1529 
Q 2069 2156 2228 2338 
Q 2531 2678 2651 2914 
Q 2772 3150 2772 3378 
Q 2772 3750 2511 3984 
Q 2250 4219 1831 4219 
Q 1534 4219 1204 4116 
Q 875 4013 500 3803 
L 500 4441 
Q 881 4594 1212 4672 
Q 1544 4750 1819 4750 
Q 2544 4750 2975 4387 
Q 3406 4025 3406 3419 
Q 3406 3131 3298 2873 
Q 3191 2616 2906 2266 
Q 2828 2175 2409 1742 
Q 1991 1309 1228 531 
z
" transform="scale(0.015625)"/>
       </defs>
       <use xlink:href="#DejaVuSans-32"/>
       <use xlink:href="#DejaVuSans-30" x="63.623047"/>
       <use xlink:href="#DejaVuSans-30" x="127.246094"/>
       <use xlink:href="#DejaVuSans-30" x="190.869141"/>
       <use xlink:href="#DejaVuSans-30" x="254.492188"/>
      </g>
     </g>
    </g>
    <g id="xtick_4">
     <g id="line2d_4">
      <g>
       <use xlink:href="#m2537f9c378" x="230.920934" y="162.432" style="stroke: #000000; stroke-width: 0.8"/>
      </g>
     </g>
     <g id="text_4">
      <!-- 30000 -->
      <g transform="translate(215.014684 177.030437)scale(0.1 -0.1)">
       <defs>
        <path id="DejaVuSans-33" d="M 2597 2516 
Q 3050 2419 3304 2112 
Q 3559 1806 3559 1356 
Q 3559 666 3084 287 
Q 2609 -91 1734 -91 
Q 1441 -91 1130 -33 
Q 819 25 488 141 
L 488 750 
Q 750 597 1062 519 
Q 1375 441 1716 441 
Q 2309 441 2620 675 
Q 2931 909 2931 1356 
Q 2931 1769 2642 2001 
Q 2353 2234 1838 2234 
L 1294 2234 
L 1294 2753 
L 1863 2753 
Q 2328 2753 2575 2939 
Q 2822 3125 2822 3475 
Q 2822 3834 2567 4026 
Q 2313 4219 1838 4219 
Q 1578 4219 1281 4162 
Q 984 4106 628 3988 
L 628 4550 
Q 988 4650 1302 4700 
Q 1616 4750 1894 4750 
Q 2613 4750 3031 4423 
Q 3450 4097 3450 3541 
Q 3450 3153 3228 2886 
Q 3006 2619 2597 2516 
z
" transform="scale(0.015625)"/>
       </defs>
       <use xlink:href="#DejaVuSans-33"/>
       <use xlink:href="#DejaVuSans-30" x="63.623047"/>
       <use xlink:href="#DejaVuSans-30" x="127.246094"/>
       <use xlink:href="#DejaVuSans-30" x="190.869141"/>
       <use xlink:href="#DejaVuSans-30" x="254.492188"/>
      </g>
     </g>
    </g>
    <g id="xtick_5">
     <g id="line2d_5">
      <g>
       <use xlink:href="#m2537f9c378" x="283.285415" y="162.432" style="stroke: #000000; stroke-width: 0.8"/>
      </g>
     </g>
     <g id="text_5">
      <!-- 40000 -->
      <g transform="translate(267.379165 177.030437)scale(0.1 -0.1)">
       <defs>
        <path id="DejaVuSans-34" d="M 2419 4116 
L 825 1625 
L 2419 1625 
L 2419 4116 
z
M 2253 4666 
L 3047 4666 
L 3047 1625 
L 3713 1625 
L 3713 1100 
L 3047 1100 
L 3047 0 
L 2419 0 
L 2419 1100 
L 313 1100 
L 313 1709 
L 2253 4666 
z
" transform="scale(0.015625)"/>
       </defs>
       <use xlink:href="#DejaVuSans-34"/>
       <use xlink:href="#DejaVuSans-30" x="63.623047"/>
       <use xlink:href="#DejaVuSans-30" x="127.246094"/>
       <use xlink:href="#DejaVuSans-30" x="190.869141"/>
       <use xlink:href="#DejaVuSans-30" x="254.492188"/>
      </g>
     </g>
    </g>
    <g id="xtick_6">
     <g id="line2d_6">
      <g>
       <use xlink:href="#m2537f9c378" x="335.649896" y="162.432" style="stroke: #000000; stroke-width: 0.8"/>
      </g>
     </g>
     <g id="text_6">
      <!-- 50000 -->
      <g transform="translate(319.743646 177.030437)scale(0.1 -0.1)">
       <defs>
        <path id="DejaVuSans-35" d="M 691 4666 
L 3169 4666 
L 3169 4134 
L 1269 4134 
L 1269 2991 
Q 1406 3038 1543 3061 
Q 1681 3084 1819 3084 
Q 2600 3084 3056 2656 
Q 3513 2228 3513 1497 
Q 3513 744 3044 326 
Q 2575 -91 1722 -91 
Q 1428 -91 1123 -41 
Q 819 9 494 109 
L 494 744 
Q 775 591 1075 516 
Q 1375 441 1709 441 
Q 2250 441 2565 725 
Q 2881 1009 2881 1497 
Q 2881 1984 2565 2268 
Q 2250 2553 1709 2553 
Q 1456 2553 1204 2497 
Q 953 2441 691 2322 
L 691 4666 
z
" transform="scale(0.015625)"/>
       </defs>
       <use xlink:href="#DejaVuSans-35"/>
       <use xlink:href="#DejaVuSans-30" x="63.623047"/>
       <use xlink:href="#DejaVuSans-30" x="127.246094"/>
       <use xlink:href="#DejaVuSans-30" x="190.869141"/>
       <use xlink:href="#DejaVuSans-30" x="254.492188"/>
      </g>
     </g>
    </g>
    <g id="xtick_7">
     <g id="line2d_7">
      <g>
       <use xlink:href="#m2537f9c378" x="388.014377" y="162.432" style="stroke: #000000; stroke-width: 0.8"/>
      </g>
     </g>
     <g id="text_7">
      <!-- 60000 -->
      <g transform="translate(372.108127 177.030437)scale(0.1 -0.1)">
       <defs>
        <path id="DejaVuSans-36" d="M 2113 2584 
Q 1688 2584 1439 2293 
Q 1191 2003 1191 1497 
Q 1191 994 1439 701 
Q 1688 409 2113 409 
Q 2538 409 2786 701 
Q 3034 994 3034 1497 
Q 3034 2003 2786 2293 
Q 2538 2584 2113 2584 
z
M 3366 4563 
L 3366 3988 
Q 3128 4100 2886 4159 
Q 2644 4219 2406 4219 
Q 1781 4219 1451 3797 
Q 1122 3375 1075 2522 
Q 1259 2794 1537 2939 
Q 1816 3084 2150 3084 
Q 2853 3084 3261 2657 
Q 3669 2231 3669 1497 
Q 3669 778 3244 343 
Q 2819 -91 2113 -91 
Q 1303 -91 875 529 
Q 447 1150 447 2328 
Q 447 3434 972 4092 
Q 1497 4750 2381 4750 
Q 2619 4750 2861 4703 
Q 3103 4656 3366 4563 
z
" transform="scale(0.015625)"/>
       </defs>
       <use xlink:href="#DejaVuSans-36"/>
       <use xlink:href="#DejaVuSans-30" x="63.623047"/>
       <use xlink:href="#DejaVuSans-30" x="127.246094"/>
       <use xlink:href="#DejaVuSans-30" x="190.869141"/>
       <use xlink:href="#DejaVuSans-30" x="254.492188"/>
      </g>
     </g>
    </g>
   </g>
   <g id="matplotlib.axis_2">
    <g id="ytick_1">
     <g id="line2d_8">
      <defs>
       <path id="m2639bd804f" d="M 0 0 
L -3.5 0 
" style="stroke: #000000; stroke-width: 0.8"/>
      </defs>
      <g>
       <use xlink:href="#m2639bd804f" x="57.6" y="147.843988" style="stroke: #000000; stroke-width: 0.8"/>
      </g>
     </g>
     <g id="text_8">
      <!-- 70 -->
      <g transform="translate(37.875 151.643207)scale(0.1 -0.1)">
       <defs>
        <path id="DejaVuSans-37" d="M 525 4666 
L 3525 4666 
L 3525 4397 
L 1831 0 
L 1172 0 
L 2766 4134 
L 525 4134 
L 525 4666 
z
" transform="scale(0.015625)"/>
       </defs>
       <use xlink:href="#DejaVuSans-37"/>
       <use xlink:href="#DejaVuSans-30" x="63.623047"/>
      </g>
     </g>
    </g>
    <g id="ytick_2">
     <g id="line2d_9">
      <g>
       <use xlink:href="#m2639bd804f" x="57.6" y="119.87528" style="stroke: #000000; stroke-width: 0.8"/>
      </g>
     </g>
     <g id="text_9">
      <!-- 80 -->
      <g transform="translate(37.875 123.674499)scale(0.1 -0.1)">
       <defs>
        <path id="DejaVuSans-38" d="M 2034 2216 
Q 1584 2216 1326 1975 
Q 1069 1734 1069 1313 
Q 1069 891 1326 650 
Q 1584 409 2034 409 
Q 2484 409 2743 651 
Q 3003 894 3003 1313 
Q 3003 1734 2745 1975 
Q 2488 2216 2034 2216 
z
M 1403 2484 
Q 997 2584 770 2862 
Q 544 3141 544 3541 
Q 544 4100 942 4425 
Q 1341 4750 2034 4750 
Q 2731 4750 3128 4425 
Q 3525 4100 3525 3541 
Q 3525 3141 3298 2862 
Q 3072 2584 2669 2484 
Q 3125 2378 3379 2068 
Q 3634 1759 3634 1313 
Q 3634 634 3220 271 
Q 2806 -91 2034 -91 
Q 1263 -91 848 271 
Q 434 634 434 1313 
Q 434 1759 690 2068 
Q 947 2378 1403 2484 
z
M 1172 3481 
Q 1172 3119 1398 2916 
Q 1625 2713 2034 2713 
Q 2441 2713 2670 2916 
Q 2900 3119 2900 3481 
Q 2900 3844 2670 4047 
Q 2441 4250 2034 4250 
Q 1625 4250 1398 4047 
Q 1172 3844 1172 3481 
z
" transform="scale(0.015625)"/>
       </defs>
       <use xlink:href="#DejaVuSans-38"/>
       <use xlink:href="#DejaVuSans-30" x="63.623047"/>
      </g>
     </g>
    </g>
    <g id="ytick_3">
     <g id="line2d_10">
      <g>
       <use xlink:href="#m2639bd804f" x="57.6" y="91.906572" style="stroke: #000000; stroke-width: 0.8"/>
      </g>
     </g>
     <g id="text_10">
      <!-- 90 -->
      <g transform="translate(37.875 95.705791)scale(0.1 -0.1)">
       <defs>
        <path id="DejaVuSans-39" d="M 703 97 
L 703 672 
Q 941 559 1184 500 
Q 1428 441 1663 441 
Q 2288 441 2617 861 
Q 2947 1281 2994 2138 
Q 2813 1869 2534 1725 
Q 2256 1581 1919 1581 
Q 1219 1581 811 2004 
Q 403 2428 403 3163 
Q 403 3881 828 4315 
Q 1253 4750 1959 4750 
Q 2769 4750 3195 4129 
Q 3622 3509 3622 2328 
Q 3622 1225 3098 567 
Q 2575 -91 1691 -91 
Q 1453 -91 1209 -44 
Q 966 3 703 97 
z
M 1959 2075 
Q 2384 2075 2632 2365 
Q 2881 2656 2881 3163 
Q 2881 3666 2632 3958 
Q 2384 4250 1959 4250 
Q 1534 4250 1286 3958 
Q 1038 3666 1038 3163 
Q 1038 2656 1286 2365 
Q 1534 2075 1959 2075 
z
" transform="scale(0.015625)"/>
       </defs>
       <use xlink:href="#DejaVuSans-39"/>
       <use xlink:href="#DejaVuSans-30" x="63.623047"/>
      </g>
     </g>
    </g>
    <g id="ytick_4">
     <g id="line2d_11">
      <g>
       <use xlink:href="#m2639bd804f" x="57.6" y="63.937865" style="stroke: #000000; stroke-width: 0.8"/>
      </g>
     </g>
     <g id="text_11">
      <!-- 100 -->
      <g transform="translate(31.5125 67.737083)scale(0.1 -0.1)">
       <use xlink:href="#DejaVuSans-31"/>
       <use xlink:href="#DejaVuSans-30" x="63.623047"/>
       <use xlink:href="#DejaVuSans-30" x="127.246094"/>
      </g>
     </g>
    </g>
   </g>
   <g id="line2d_12">
    <path d="M 73.832727 66.734735 
L 73.837964 66.734735 
L 73.874619 72.328477 
L 73.953166 69.531606 
L 73.958402 69.531606 
L 74.073604 76.523783 
L 74.07884 75.125348 
L 74.183569 75.125348 
L 74.304008 72.328477 
L 74.361609 72.328477 
L 74.377318 70.930042 
L 74.382554 73.726912 
L 74.471574 72.328477 
L 74.623431 72.328477 
L 74.738633 75.125348 
L 74.869544 75.125348 
L 74.927145 77.922219 
L 74.979509 75.125348 
L 75.021401 75.125348 
L 75.026637 77.922219 
L 75.131366 75.125348 
L 75.508391 75.125348 
L 75.5241 77.922219 
L 75.618356 76.523783 
L 75.649775 76.523783 
L 75.764977 75.125348 
L 76.492843 75.125348 
L 76.592335 73.726912 
L 76.597572 76.523783 
L 77.650098 76.523783 
L 77.7653 79.320654 
L 78.524585 79.320654 
L 78.639787 77.922219 
L 78.948737 77.922219 
L 79.063939 76.523783 
L 79.409544 76.523783 
L 79.524746 79.320654 
L 80.111229 79.320654 
L 80.22643 77.922219 
L 86.991921 77.922219 
L 87.107123 80.719089 
L 88.431945 80.719089 
L 88.547146 79.320654 
L 91.427193 79.320654 
L 91.542395 77.922219 
L 102.387079 77.922219 
L 102.502281 76.523783 
L 114.682259 76.523783 
L 114.797461 75.125348 
L 140.319909 75.125348 
L 140.435111 77.922219 
L 261.402298 77.922219 
L 261.5175 80.719089 
L 289.265438 80.719089 
L 289.38064 79.320654 
L 359.842286 79.320654 
L 359.957488 77.922219 
L 398.487273 77.922219 
L 398.487273 77.922219 
" clip-path="url(#p548f963128)" style="fill: none; stroke: #1f77b4; stroke-width: 1.5; stroke-linecap: square"/>
   </g>
   <g id="line2d_13">
    <path d="M 73.832727 66.734735 
L 73.911274 74.006599 
L 73.942693 68.412858 
L 73.953166 68.412858 
L 74.089313 81.931067 
L 74.157387 81.931067 
L 74.277825 88.224026 
L 74.361609 88.224026 
L 74.445392 84.494865 
L 74.471574 87.291736 
L 74.623431 87.291736 
L 74.628667 85.8933 
L 74.681032 91.487042 
L 74.717687 91.487042 
L 74.733396 91.487042 
L 74.848598 94.283913 
L 74.927145 94.283913 
L 74.979509 91.487042 
L 75.03711 91.953187 
L 75.157549 98.945364 
L 75.194204 98.945364 
L 75.309406 101.742235 
L 75.424607 101.742235 
L 75.508391 104.539105 
L 75.534573 102.20838 
L 75.649775 102.20838 
L 75.764977 100.809944 
L 75.885415 100.809944 
L 76.000617 103.606815 
L 76.262439 103.606815 
L 76.377641 106.403686 
L 76.492843 106.403686 
L 76.608045 105.005251 
L 77.27831 105.005251 
L 77.393512 107.802121 
L 77.44064 107.802121 
L 77.555842 110.598992 
L 78.524585 110.598992 
L 78.639787 109.200557 
L 78.948737 109.200557 
L 79.063939 107.802121 
L 79.147722 107.802121 
L 79.262924 110.598992 
L 79.409544 110.598992 
L 79.524746 113.395863 
L 80.111229 113.395863 
L 80.22643 111.997428 
L 80.896696 111.997428 
L 81.011898 114.794298 
L 84.363224 114.794298 
L 84.478426 117.591169 
L 86.180272 117.591169 
L 86.295474 116.891951 
L 86.991921 116.891951 
L 87.107123 115.959661 
L 88.431945 115.959661 
L 88.547146 114.561226 
L 88.877043 114.561226 
L 88.992245 117.358097 
L 91.427193 117.358097 
L 91.542395 115.959661 
L 91.563341 115.959661 
L 91.678542 118.756532 
L 94.626663 118.756532 
L 94.741865 121.553403 
L 102.387079 121.553403 
L 102.502281 120.154967 
L 102.601773 120.154967 
L 102.716975 122.951838 
L 110.540228 122.951838 
L 110.65543 125.748709 
L 114.682259 125.748709 
L 114.797461 124.350274 
L 136.664868 124.350274 
L 136.78007 127.147144 
L 140.319909 127.147144 
L 140.435111 125.748709 
L 176.137214 125.748709 
L 176.252416 122.951838 
L 178.090409 122.951838 
L 178.205611 125.748709 
L 195.360215 125.748709 
L 195.475417 128.54558 
L 226.878396 128.54558 
L 226.993598 125.748709 
L 229.386654 125.748709 
L 229.501856 128.54558 
L 246.394638 128.54558 
L 246.50984 131.34245 
L 248.384488 131.34245 
L 248.49969 128.54558 
L 255.338491 128.54558 
L 255.453693 131.34245 
L 272.330765 131.34245 
L 272.445967 134.139321 
L 289.265438 134.139321 
L 289.38064 132.740886 
L 304.555867 132.740886 
L 304.671069 135.537757 
L 305.048093 135.537757 
L 305.163295 138.334627 
L 359.842286 138.334627 
L 359.957488 136.936192 
L 387.857283 136.936192 
L 387.972485 139.733063 
L 398.487273 139.733063 
L 398.487273 139.733063 
" clip-path="url(#p548f963128)" style="fill: none; stroke: #ff7f0e; stroke-width: 1.5; stroke-linecap: square"/>
   </g>
   <g id="line2d_14">
    <path d="M 73.832727 66.734735 
L 73.837964 66.734735 
L 73.953166 84.44825 
L 73.974111 82.816742 
L 74.000294 82.816742 
L 74.084077 91.207355 
L 74.120732 90.275064 
L 74.157387 90.275064 
L 74.162624 89.342774 
L 74.188806 94.004226 
L 74.246407 94.004226 
L 74.361609 94.004226 
L 74.445392 102.394838 
L 74.482047 101.462548 
L 74.623431 101.462548 
L 74.628667 104.259418 
L 74.733396 102.860983 
L 74.848598 101.928693 
L 74.869544 101.928693 
L 74.979509 110.319305 
L 74.989982 109.387015 
L 75.021401 109.387015 
L 75.084238 116.845337 
L 75.141839 114.980756 
L 75.194204 114.980756 
L 75.309406 114.048466 
L 75.424607 114.048466 
L 75.508391 113.116176 
L 75.513627 115.913047 
L 75.5241 115.913047 
L 75.639302 118.709917 
L 75.649775 118.709917 
L 75.764977 121.506788 
L 75.885415 121.506788 
L 75.969198 120.574498 
L 75.974435 123.371369 
L 75.990144 122.439079 
L 76.262439 122.439079 
L 76.377641 121.506788 
L 76.492843 121.506788 
L 76.613281 127.10053 
L 77.27831 127.10053 
L 77.393512 126.16824 
L 77.44064 126.16824 
L 77.555842 125.235949 
L 77.650098 125.235949 
L 77.7653 128.03282 
L 78.524585 128.03282 
L 78.639787 130.829691 
L 78.948737 130.829691 
L 79.063939 133.626562 
L 79.147722 133.626562 
L 79.262924 132.694271 
L 79.409544 132.694271 
L 79.524746 135.491142 
L 80.111229 135.491142 
L 80.22643 138.288013 
L 80.896696 138.288013 
L 81.011898 137.355723 
L 84.363224 137.355723 
L 84.478426 136.423432 
L 86.180272 136.423432 
L 86.295474 139.220303 
L 86.991921 139.220303 
L 87.107123 142.017174 
L 88.431945 142.017174 
L 88.547146 144.814045 
L 88.877043 144.814045 
L 88.992245 143.881755 
L 91.427193 143.881755 
L 91.542395 146.678625 
L 91.563341 146.678625 
L 91.678542 145.746335 
L 94.626663 145.746335 
L 94.741865 144.814045 
L 102.387079 144.814045 
L 102.502281 147.610916 
L 102.601773 147.610916 
L 102.716975 146.678625 
L 110.540228 146.678625 
L 110.65543 145.746335 
L 114.682259 145.746335 
L 114.797461 148.543206 
L 136.664868 148.543206 
L 136.78007 147.610916 
L 140.319909 147.610916 
L 140.435111 150.407786 
L 176.137214 150.407786 
L 176.252416 153.204657 
L 178.090409 153.204657 
L 178.205611 152.272367 
L 195.360215 152.272367 
L 195.475417 151.340077 
L 226.878396 151.340077 
L 226.993598 154.136947 
L 229.386654 154.136947 
L 229.501856 153.204657 
L 246.394638 153.204657 
L 246.50984 152.272367 
L 248.384488 152.272367 
L 248.49969 155.069238 
L 255.338491 155.069238 
L 255.453693 154.136947 
L 272.330765 154.136947 
L 272.445967 153.204657 
L 289.265438 153.204657 
L 289.38064 156.001528 
L 304.555867 156.001528 
L 304.671069 155.069238 
L 305.048093 155.069238 
L 305.163295 154.136947 
L 359.842286 154.136947 
L 359.957488 156.933818 
L 387.857283 156.933818 
L 387.972485 156.001528 
L 398.487273 156.001528 
L 398.487273 156.001528 
" clip-path="url(#p548f963128)" style="fill: none; stroke: #2ca02c; stroke-width: 1.5; stroke-linecap: square"/>
   </g>
   <g id="line2d_15">
    <path d="M 73.832727 63.937865 
L 73.869382 63.937865 
L 73.984584 63.37849 
L 176.137214 63.37849 
L 176.252416 66.175361 
L 398.487273 66.175361 
L 398.487273 66.175361 
" clip-path="url(#p548f963128)" style="fill: none; stroke: #d62728; stroke-width: 1.5; stroke-linecap: square"/>
   </g>
   <g id="line2d_16">
    <path d="M 73.832727 66.734735 
L 73.85891 66.734735 
L 73.989821 77.922219 
L 74.000294 77.922219 
L 74.115495 80.719089 
L 74.377318 80.719089 
L 74.49252 83.51596 
L 74.623431 83.51596 
L 74.628667 86.312831 
L 74.733396 84.914395 
L 75.021401 84.914395 
L 75.136603 87.711266 
L 76.492843 87.711266 
L 76.608045 90.508137 
L 77.650098 90.508137 
L 77.7653 93.305008 
L 86.991921 93.305008 
L 87.107123 96.101879 
L 91.427193 96.101879 
L 91.542395 98.898749 
L 114.682259 98.898749 
L 114.797461 101.69562 
L 140.319909 101.69562 
L 140.435111 104.492491 
L 359.842286 104.492491 
L 359.957488 107.289362 
L 398.487273 107.289362 
L 398.487273 107.289362 
" clip-path="url(#p548f963128)" style="fill: none; stroke: #9467bd; stroke-width: 1.5; stroke-linecap: square"/>
   </g>
   <g id="line2d_17">
    <path d="M 73.832727 63.937865 
L 73.837964 63.937865 
L 73.953166 68.039942 
L 73.958402 68.039942 
L 74.073604 67.340724 
L 74.162624 67.340724 
L 74.277825 66.641506 
L 86.180272 66.641506 
L 86.295474 65.942289 
L 261.402298 65.942289 
L 261.5175 65.009998 
L 398.487273 65.009998 
L 398.487273 65.009998 
" clip-path="url(#p548f963128)" style="fill: none; stroke: #8c564b; stroke-width: 1.5; stroke-linecap: square"/>
   </g>
   <g id="line2d_18">
    <path d="M 73.832727 66.734735 
L 73.837964 66.734735 
L 73.85891 66.175361 
L 73.879855 73.633683 
L 73.890328 73.633683 
L 74.016003 84.821166 
L 74.073604 82.024296 
L 74.131205 83.888876 
L 74.157387 83.888876 
L 74.162624 82.956586 
L 74.188806 87.618037 
L 74.246407 87.618037 
L 74.361609 87.618037 
L 74.445392 93.211779 
L 74.47681 92.279489 
L 74.628667 92.279489 
L 74.754342 89.948763 
L 74.927145 89.948763 
L 75.03711 97.407085 
L 75.047583 96.474795 
L 75.073765 96.474795 
L 75.084238 99.271665 
L 75.183731 97.407085 
L 75.194204 97.407085 
L 75.309406 96.474795 
L 75.424607 96.474795 
L 75.5241 95.542504 
L 75.639302 98.339375 
L 75.649775 98.339375 
L 75.764977 101.136246 
L 75.885415 101.136246 
L 75.969198 100.203956 
L 75.974435 103.000827 
L 75.990144 102.068536 
L 76.262439 102.068536 
L 76.377641 101.136246 
L 76.492843 101.136246 
L 76.592335 103.933117 
L 76.602808 103.000827 
L 77.27831 103.000827 
L 77.393512 102.068536 
L 77.44064 102.068536 
L 77.555842 101.136246 
L 77.650098 101.136246 
L 77.7653 100.203956 
L 78.524585 100.203956 
L 78.639787 103.000827 
L 78.948737 103.000827 
L 79.063939 105.797697 
L 79.147722 105.797697 
L 79.262924 104.865407 
L 79.409544 104.865407 
L 79.524746 103.933117 
L 80.111229 103.933117 
L 80.22643 106.729988 
L 80.896696 106.729988 
L 81.011898 105.797697 
L 84.363224 105.797697 
L 84.478426 104.865407 
L 86.180272 104.865407 
L 86.295474 107.662278 
L 88.431945 107.662278 
L 88.547146 110.459149 
L 88.877043 110.459149 
L 88.992245 109.526858 
L 91.427193 109.526858 
L 91.542395 112.323729 
L 91.563341 112.323729 
L 91.678542 111.391439 
L 94.626663 111.391439 
L 94.741865 110.459149 
L 102.387079 110.459149 
L 102.502281 113.256019 
L 102.601773 113.256019 
L 102.716975 112.323729 
L 110.540228 112.323729 
L 110.65543 111.391439 
L 114.682259 111.391439 
L 114.797461 114.18831 
L 136.664868 114.18831 
L 136.78007 113.256019 
L 176.137214 113.256019 
L 176.252416 116.05289 
L 178.090409 116.05289 
L 178.205611 115.1206 
L 195.360215 115.1206 
L 195.475417 114.18831 
L 226.878396 114.18831 
L 226.993598 116.98518 
L 229.386654 116.98518 
L 229.501856 116.05289 
L 246.394638 116.05289 
L 246.50984 115.1206 
L 248.384488 115.1206 
L 248.49969 117.917471 
L 255.338491 117.917471 
L 255.453693 116.98518 
L 261.402298 116.98518 
L 261.5175 119.782051 
L 272.330765 119.782051 
L 272.445967 118.849761 
L 289.265438 118.849761 
L 289.38064 121.646632 
L 304.555867 121.646632 
L 304.671069 120.714342 
L 305.048093 120.714342 
L 305.163295 119.782051 
L 359.842286 119.782051 
L 359.957488 122.578922 
L 387.857283 122.578922 
L 387.972485 121.646632 
L 398.487273 121.646632 
L 398.487273 121.646632 
" clip-path="url(#p548f963128)" style="fill: none; stroke: #e377c2; stroke-width: 1.5; stroke-linecap: square"/>
   </g>
   <g id="line2d_19">
    <path d="M 73.832727 63.238647 
L 73.837964 63.238647 
L 73.953166 67.340724 
L 73.958402 67.340724 
L 74.073604 66.641506 
L 74.162624 66.641506 
L 74.277825 65.942289 
L 86.180272 65.942289 
L 86.295474 65.243071 
L 261.402298 65.243071 
L 261.5175 64.310781 
L 398.487273 64.310781 
L 398.487273 64.310781 
" clip-path="url(#p548f963128)" style="fill: none; stroke: #7f7f7f; stroke-width: 1.5; stroke-linecap: square"/>
   </g>
   <g id="line2d_20">
    <path d="M 73.832727 63.238647 
L 73.837964 63.238647 
L 73.85891 62.679273 
L 73.879855 70.137595 
L 73.890328 70.137595 
L 74.016003 81.325078 
L 74.073604 76.663627 
L 74.141678 78.528207 
L 74.157387 78.528207 
L 74.162624 77.595917 
L 74.188806 82.257368 
L 74.246407 82.257368 
L 74.361609 82.257368 
L 74.445392 86.91882 
L 74.47681 85.986529 
L 74.628667 85.986529 
L 74.754342 83.655804 
L 74.869544 83.655804 
L 74.927145 82.257368 
L 74.9638 87.85111 
L 74.979509 87.85111 
L 75.026637 85.986529 
L 75.031874 88.7834 
L 75.073765 87.85111 
L 75.084238 90.647981 
L 75.183731 88.7834 
L 75.194204 88.7834 
L 75.309406 87.85111 
L 75.424607 87.85111 
L 75.5241 85.986529 
L 75.529336 88.7834 
L 75.649775 88.7834 
L 75.764977 91.580271 
L 75.885415 91.580271 
L 75.969198 90.647981 
L 75.974435 93.444851 
L 75.990144 92.512561 
L 76.262439 92.512561 
L 76.377641 91.580271 
L 76.492843 91.580271 
L 76.592335 94.377142 
L 76.602808 93.444851 
L 77.27831 93.444851 
L 77.393512 92.512561 
L 77.44064 92.512561 
L 77.555842 91.580271 
L 77.650098 91.580271 
L 77.7653 90.647981 
L 78.524585 90.647981 
L 78.639787 93.444851 
L 78.948737 93.444851 
L 79.063939 96.241722 
L 79.147722 96.241722 
L 79.262924 95.309432 
L 79.409544 95.309432 
L 79.524746 94.377142 
L 80.111229 94.377142 
L 80.22643 97.174012 
L 80.896696 97.174012 
L 81.011898 96.241722 
L 84.363224 96.241722 
L 84.478426 95.309432 
L 86.180272 95.309432 
L 86.295474 98.106303 
L 86.991921 98.106303 
L 87.107123 97.174012 
L 88.431945 97.174012 
L 88.547146 99.970883 
L 88.877043 99.970883 
L 88.992245 99.038593 
L 91.427193 99.038593 
L 91.542395 101.835464 
L 91.563341 101.835464 
L 91.678542 100.903173 
L 94.626663 100.903173 
L 94.741865 99.970883 
L 102.387079 99.970883 
L 102.502281 102.767754 
L 102.601773 102.767754 
L 102.716975 101.835464 
L 110.540228 101.835464 
L 110.65543 100.903173 
L 114.682259 100.903173 
L 114.797461 103.700044 
L 136.664868 103.700044 
L 136.78007 102.767754 
L 176.137214 102.767754 
L 176.252416 105.564625 
L 178.090409 105.564625 
L 178.205611 104.632335 
L 195.360215 104.632335 
L 195.475417 103.700044 
L 226.878396 103.700044 
L 226.993598 106.496915 
L 229.386654 106.496915 
L 229.501856 105.564625 
L 246.394638 105.564625 
L 246.50984 104.632335 
L 248.384488 104.632335 
L 248.49969 107.429205 
L 255.338491 107.429205 
L 255.453693 106.496915 
L 261.402298 106.496915 
L 261.5175 109.293786 
L 272.330765 109.293786 
L 272.445967 108.361496 
L 289.265438 108.361496 
L 289.38064 111.158366 
L 304.555867 111.158366 
L 304.671069 110.226076 
L 305.048093 110.226076 
L 305.163295 109.293786 
L 359.842286 109.293786 
L 359.957488 112.090657 
L 387.857283 112.090657 
L 387.972485 111.158366 
L 398.487273 111.158366 
L 398.487273 111.158366 
" clip-path="url(#p548f963128)" style="fill: none; stroke: #bcbd22; stroke-width: 1.5; stroke-linecap: square"/>
   </g>
   <g id="line2d_21">
    <path d="M 73.832727 63.238647 
L 73.837964 63.238647 
L 73.942693 59.789173 
L 73.953166 62.586044 
L 73.958402 62.586044 
L 74.084077 60.022245 
L 74.162624 60.022245 
L 74.277825 59.323028 
L 74.377318 59.323028 
L 74.49252 58.390738 
L 74.623431 58.390738 
L 74.738633 56.992302 
L 74.869544 56.992302 
L 74.984746 55.593867 
L 75.021401 55.593867 
L 75.136603 54.661576 
L 75.508391 54.661576 
L 75.623593 53.729286 
L 76.592335 53.729286 
L 76.707537 52.796996 
L 77.650098 52.796996 
L 77.7653 51.864706 
L 79.409544 51.864706 
L 79.524746 50.932415 
L 86.180272 50.932415 
L 86.295474 50.233198 
L 86.991921 50.233198 
L 87.107123 49.300907 
L 140.319909 49.300907 
L 140.435111 47.902472 
L 261.402298 47.902472 
L 261.5175 46.970182 
L 398.487273 46.970182 
L 398.487273 46.970182 
" clip-path="url(#p548f963128)" style="fill: none; stroke: #17becf; stroke-width: 1.5; stroke-linecap: square"/>
   </g>
   <g id="line2d_22">
    <path d="M 73.832727 63.937865 
L 73.837964 63.937865 
L 73.85891 63.37849 
L 73.874619 68.972232 
L 73.900801 68.972232 
L 73.942693 68.972232 
L 73.958402 68.039942 
L 73.963638 70.836813 
L 74.042185 70.836813 
L 74.162624 70.836813 
L 74.277825 73.633683 
L 86.180272 73.633683 
L 86.295474 76.430554 
L 261.402298 76.430554 
L 261.5175 79.227425 
L 398.487273 79.227425 
L 398.487273 79.227425 
" clip-path="url(#p548f963128)" style="fill: none; stroke: #1f77b4; stroke-width: 1.5; stroke-linecap: square"/>
   </g>
   <g id="line2d_23">
    <path d="M 73.832727 63.238647 
L 73.837964 60.441776 
L 73.942693 61.840211 
L 73.963638 61.840211 
L 74.07884 60.441776 
L 74.24117 60.441776 
L 74.356372 59.043341 
L 398.487273 59.043341 
L 398.487273 59.043341 
" clip-path="url(#p548f963128)" style="fill: none; stroke: #ff7f0e; stroke-width: 1.5; stroke-linecap: square"/>
   </g>
   <g id="patch_3">
    <path d="M 57.6 162.432 
L 57.6 41.472 
" style="fill: none; stroke: #000000; stroke-width: 0.8; stroke-linejoin: miter; stroke-linecap: square"/>
   </g>
   <g id="patch_4">
    <path d="M 414.72 162.432 
L 414.72 41.472 
" style="fill: none; stroke: #000000; stroke-width: 0.8; stroke-linejoin: miter; stroke-linecap: square"/>
   </g>
   <g id="patch_5">
    <path d="M 57.6 162.432 
L 414.72 162.432 
" style="fill: none; stroke: #000000; stroke-width: 0.8; stroke-linejoin: miter; stroke-linecap: square"/>
   </g>
   <g id="patch_6">
    <path d="M 57.6 41.472 
L 414.72 41.472 
" style="fill: none; stroke: #000000; stroke-width: 0.8; stroke-linejoin: miter; stroke-linecap: square"/>
   </g>
   <g id="text_12">
    <!-- WSP -->
    <g transform="translate(361.832136 77.922219)scale(0.08 -0.08)">
     <defs>
      <path id="DejaVuSans-57" d="M 213 4666 
L 850 4666 
L 1831 722 
L 2809 4666 
L 3519 4666 
L 4500 722 
L 5478 4666 
L 6119 4666 
L 4947 0 
L 4153 0 
L 3169 4050 
L 2175 0 
L 1381 0 
L 213 4666 
z
" transform="scale(0.015625)"/>
      <path id="DejaVuSans-53" d="M 3425 4513 
L 3425 3897 
Q 3066 4069 2747 4153 
Q 2428 4238 2131 4238 
Q 1616 4238 1336 4038 
Q 1056 3838 1056 3469 
Q 1056 3159 1242 3001 
Q 1428 2844 1947 2747 
L 2328 2669 
Q 3034 2534 3370 2195 
Q 3706 1856 3706 1288 
Q 3706 609 3251 259 
Q 2797 -91 1919 -91 
Q 1588 -91 1214 -16 
Q 841 59 441 206 
L 441 856 
Q 825 641 1194 531 
Q 1563 422 1919 422 
Q 2459 422 2753 634 
Q 3047 847 3047 1241 
Q 3047 1584 2836 1778 
Q 2625 1972 2144 2069 
L 1759 2144 
Q 1053 2284 737 2584 
Q 422 2884 422 3419 
Q 422 4038 858 4394 
Q 1294 4750 2059 4750 
Q 2388 4750 2728 4690 
Q 3069 4631 3425 4513 
z
" transform="scale(0.015625)"/>
      <path id="DejaVuSans-50" d="M 1259 4147 
L 1259 2394 
L 2053 2394 
Q 2494 2394 2734 2622 
Q 2975 2850 2975 3272 
Q 2975 3691 2734 3919 
Q 2494 4147 2053 4147 
L 1259 4147 
z
M 628 4666 
L 2053 4666 
Q 2838 4666 3239 4311 
Q 3641 3956 3641 3272 
Q 3641 2581 3239 2228 
Q 2838 1875 2053 1875 
L 1259 1875 
L 1259 0 
L 628 0 
L 628 4666 
z
" transform="scale(0.015625)"/>
     </defs>
     <use xlink:href="#DejaVuSans-57"/>
     <use xlink:href="#DejaVuSans-53" x="98.876953"/>
     <use xlink:href="#DejaVuSans-50" x="162.353516"/>
    </g>
   </g>
   <g id="text_13">
    <!-- Iambic -->
    <g transform="translate(361.832136 139.733063)scale(0.08 -0.08)">
     <defs>
      <path id="DejaVuSans-49" d="M 628 4666 
L 1259 4666 
L 1259 0 
L 628 0 
L 628 4666 
z
" transform="scale(0.015625)"/>
      <path id="DejaVuSans-61" d="M 2194 1759 
Q 1497 1759 1228 1600 
Q 959 1441 959 1056 
Q 959 750 1161 570 
Q 1363 391 1709 391 
Q 2188 391 2477 730 
Q 2766 1069 2766 1631 
L 2766 1759 
L 2194 1759 
z
M 3341 1997 
L 3341 0 
L 2766 0 
L 2766 531 
Q 2569 213 2275 61 
Q 1981 -91 1556 -91 
Q 1019 -91 701 211 
Q 384 513 384 1019 
Q 384 1609 779 1909 
Q 1175 2209 1959 2209 
L 2766 2209 
L 2766 2266 
Q 2766 2663 2505 2880 
Q 2244 3097 1772 3097 
Q 1472 3097 1187 3025 
Q 903 2953 641 2809 
L 641 3341 
Q 956 3463 1253 3523 
Q 1550 3584 1831 3584 
Q 2591 3584 2966 3190 
Q 3341 2797 3341 1997 
z
" transform="scale(0.015625)"/>
      <path id="DejaVuSans-6d" d="M 3328 2828 
Q 3544 3216 3844 3400 
Q 4144 3584 4550 3584 
Q 5097 3584 5394 3201 
Q 5691 2819 5691 2113 
L 5691 0 
L 5113 0 
L 5113 2094 
Q 5113 2597 4934 2840 
Q 4756 3084 4391 3084 
Q 3944 3084 3684 2787 
Q 3425 2491 3425 1978 
L 3425 0 
L 2847 0 
L 2847 2094 
Q 2847 2600 2669 2842 
Q 2491 3084 2119 3084 
Q 1678 3084 1418 2786 
Q 1159 2488 1159 1978 
L 1159 0 
L 581 0 
L 581 3500 
L 1159 3500 
L 1159 2956 
Q 1356 3278 1631 3431 
Q 1906 3584 2284 3584 
Q 2666 3584 2933 3390 
Q 3200 3197 3328 2828 
z
" transform="scale(0.015625)"/>
      <path id="DejaVuSans-62" d="M 3116 1747 
Q 3116 2381 2855 2742 
Q 2594 3103 2138 3103 
Q 1681 3103 1420 2742 
Q 1159 2381 1159 1747 
Q 1159 1113 1420 752 
Q 1681 391 2138 391 
Q 2594 391 2855 752 
Q 3116 1113 3116 1747 
z
M 1159 2969 
Q 1341 3281 1617 3432 
Q 1894 3584 2278 3584 
Q 2916 3584 3314 3078 
Q 3713 2572 3713 1747 
Q 3713 922 3314 415 
Q 2916 -91 2278 -91 
Q 1894 -91 1617 61 
Q 1341 213 1159 525 
L 1159 0 
L 581 0 
L 581 4863 
L 1159 4863 
L 1159 2969 
z
" transform="scale(0.015625)"/>
      <path id="DejaVuSans-69" d="M 603 3500 
L 1178 3500 
L 1178 0 
L 603 0 
L 603 3500 
z
M 603 4863 
L 1178 4863 
L 1178 4134 
L 603 4134 
L 603 4863 
z
" transform="scale(0.015625)"/>
      <path id="DejaVuSans-63" d="M 3122 3366 
L 3122 2828 
Q 2878 2963 2633 3030 
Q 2388 3097 2138 3097 
Q 1578 3097 1268 2742 
Q 959 2388 959 1747 
Q 959 1106 1268 751 
Q 1578 397 2138 397 
Q 2388 397 2633 464 
Q 2878 531 3122 666 
L 3122 134 
Q 2881 22 2623 -34 
Q 2366 -91 2075 -91 
Q 1284 -91 818 406 
Q 353 903 353 1747 
Q 353 2603 823 3093 
Q 1294 3584 2113 3584 
Q 2378 3584 2631 3529 
Q 2884 3475 3122 3366 
z
" transform="scale(0.015625)"/>
     </defs>
     <use xlink:href="#DejaVuSans-49"/>
     <use xlink:href="#DejaVuSans-61" x="29.492188"/>
     <use xlink:href="#DejaVuSans-6d" x="90.771484"/>
     <use xlink:href="#DejaVuSans-62" x="188.183594"/>
     <use xlink:href="#DejaVuSans-69" x="251.660156"/>
     <use xlink:href="#DejaVuSans-63" x="279.443359"/>
    </g>
   </g>
   <g id="text_14">
    <!-- Parse -->
    <g transform="translate(361.832136 156.001528)scale(0.08 -0.08)">
     <defs>
      <path id="DejaVuSans-72" d="M 2631 2963 
Q 2534 3019 2420 3045 
Q 2306 3072 2169 3072 
Q 1681 3072 1420 2755 
Q 1159 2438 1159 1844 
L 1159 0 
L 581 0 
L 581 3500 
L 1159 3500 
L 1159 2956 
Q 1341 3275 1631 3429 
Q 1922 3584 2338 3584 
Q 2397 3584 2469 3576 
Q 2541 3569 2628 3553 
L 2631 2963 
z
" transform="scale(0.015625)"/>
      <path id="DejaVuSans-73" d="M 2834 3397 
L 2834 2853 
Q 2591 2978 2328 3040 
Q 2066 3103 1784 3103 
Q 1356 3103 1142 2972 
Q 928 2841 928 2578 
Q 928 2378 1081 2264 
Q 1234 2150 1697 2047 
L 1894 2003 
Q 2506 1872 2764 1633 
Q 3022 1394 3022 966 
Q 3022 478 2636 193 
Q 2250 -91 1575 -91 
Q 1294 -91 989 -36 
Q 684 19 347 128 
L 347 722 
Q 666 556 975 473 
Q 1284 391 1588 391 
Q 1994 391 2212 530 
Q 2431 669 2431 922 
Q 2431 1156 2273 1281 
Q 2116 1406 1581 1522 
L 1381 1569 
Q 847 1681 609 1914 
Q 372 2147 372 2553 
Q 372 3047 722 3315 
Q 1072 3584 1716 3584 
Q 2034 3584 2315 3537 
Q 2597 3491 2834 3397 
z
" transform="scale(0.015625)"/>
      <path id="DejaVuSans-65" d="M 3597 1894 
L 3597 1613 
L 953 1613 
Q 991 1019 1311 708 
Q 1631 397 2203 397 
Q 2534 397 2845 478 
Q 3156 559 3463 722 
L 3463 178 
Q 3153 47 2828 -22 
Q 2503 -91 2169 -91 
Q 1331 -91 842 396 
Q 353 884 353 1716 
Q 353 2575 817 3079 
Q 1281 3584 2069 3584 
Q 2775 3584 3186 3129 
Q 3597 2675 3597 1894 
z
M 3022 2063 
Q 3016 2534 2758 2815 
Q 2500 3097 2075 3097 
Q 1594 3097 1305 2825 
Q 1016 2553 972 2059 
L 3022 2063 
z
" transform="scale(0.015625)"/>
     </defs>
     <use xlink:href="#DejaVuSans-50"/>
     <use xlink:href="#DejaVuSans-61" x="55.802734"/>
     <use xlink:href="#DejaVuSans-72" x="117.082031"/>
     <use xlink:href="#DejaVuSans-73" x="158.195312"/>
     <use xlink:href="#DejaVuSans-65" x="210.294922"/>
    </g>
   </g>
   <g id="text_15">
    <!-- FootBin -->
    <g transform="translate(361.832136 66.175361)scale(0.08 -0.08)">
     <defs>
      <path id="DejaVuSans-46" d="M 628 4666 
L 3309 4666 
L 3309 4134 
L 1259 4134 
L 1259 2759 
L 3109 2759 
L 3109 2228 
L 1259 2228 
L 1259 0 
L 628 0 
L 628 4666 
z
" transform="scale(0.015625)"/>
      <path id="DejaVuSans-6f" d="M 1959 3097 
Q 1497 3097 1228 2736 
Q 959 2375 959 1747 
Q 959 1119 1226 758 
Q 1494 397 1959 397 
Q 2419 397 2687 759 
Q 2956 1122 2956 1747 
Q 2956 2369 2687 2733 
Q 2419 3097 1959 3097 
z
M 1959 3584 
Q 2709 3584 3137 3096 
Q 3566 2609 3566 1747 
Q 3566 888 3137 398 
Q 2709 -91 1959 -91 
Q 1206 -91 779 398 
Q 353 888 353 1747 
Q 353 2609 779 3096 
Q 1206 3584 1959 3584 
z
" transform="scale(0.015625)"/>
      <path id="DejaVuSans-74" d="M 1172 4494 
L 1172 3500 
L 2356 3500 
L 2356 3053 
L 1172 3053 
L 1172 1153 
Q 1172 725 1289 603 
Q 1406 481 1766 481 
L 2356 481 
L 2356 0 
L 1766 0 
Q 1100 0 847 248 
Q 594 497 594 1153 
L 594 3053 
L 172 3053 
L 172 3500 
L 594 3500 
L 594 4494 
L 1172 4494 
z
" transform="scale(0.015625)"/>
      <path id="DejaVuSans-42" d="M 1259 2228 
L 1259 519 
L 2272 519 
Q 2781 519 3026 730 
Q 3272 941 3272 1375 
Q 3272 1813 3026 2020 
Q 2781 2228 2272 2228 
L 1259 2228 
z
M 1259 4147 
L 1259 2741 
L 2194 2741 
Q 2656 2741 2882 2914 
Q 3109 3088 3109 3444 
Q 3109 3797 2882 3972 
Q 2656 4147 2194 4147 
L 1259 4147 
z
M 628 4666 
L 2241 4666 
Q 2963 4666 3353 4366 
Q 3744 4066 3744 3513 
Q 3744 3084 3544 2831 
Q 3344 2578 2956 2516 
Q 3422 2416 3680 2098 
Q 3938 1781 3938 1306 
Q 3938 681 3513 340 
Q 3088 0 2303 0 
L 628 0 
L 628 4666 
z
" transform="scale(0.015625)"/>
      <path id="DejaVuSans-6e" d="M 3513 2113 
L 3513 0 
L 2938 0 
L 2938 2094 
Q 2938 2591 2744 2837 
Q 2550 3084 2163 3084 
Q 1697 3084 1428 2787 
Q 1159 2491 1159 1978 
L 1159 0 
L 581 0 
L 581 3500 
L 1159 3500 
L 1159 2956 
Q 1366 3272 1645 3428 
Q 1925 3584 2291 3584 
Q 2894 3584 3203 3211 
Q 3513 2838 3513 2113 
z
" transform="scale(0.015625)"/>
     </defs>
     <use xlink:href="#DejaVuSans-46"/>
     <use xlink:href="#DejaVuSans-6f" x="53.894531"/>
     <use xlink:href="#DejaVuSans-6f" x="115.076172"/>
     <use xlink:href="#DejaVuSans-74" x="176.257812"/>
     <use xlink:href="#DejaVuSans-42" x="215.466797"/>
     <use xlink:href="#DejaVuSans-69" x="284.070312"/>
     <use xlink:href="#DejaVuSans-6e" x="311.853516"/>
    </g>
   </g>
   <g id="text_16">
    <!-- WFL -->
    <g transform="translate(361.832136 107.289362)scale(0.08 -0.08)">
     <defs>
      <path id="DejaVuSans-4c" d="M 628 4666 
L 1259 4666 
L 1259 531 
L 3531 531 
L 3531 0 
L 628 0 
L 628 4666 
z
" transform="scale(0.015625)"/>
     </defs>
     <use xlink:href="#DejaVuSans-57"/>
     <use xlink:href="#DejaVuSans-46" x="98.876953"/>
     <use xlink:href="#DejaVuSans-4c" x="156.396484"/>
    </g>
   </g>
   <g id="text_17">
    <!-- WFR -->
    <g transform="translate(361.832136 65.009998)scale(0.08 -0.08)">
     <defs>
      <path id="DejaVuSans-52" d="M 2841 2188 
Q 3044 2119 3236 1894 
Q 3428 1669 3622 1275 
L 4263 0 
L 3584 0 
L 2988 1197 
Q 2756 1666 2539 1819 
Q 2322 1972 1947 1972 
L 1259 1972 
L 1259 0 
L 628 0 
L 628 4666 
L 2053 4666 
Q 2853 4666 3247 4331 
Q 3641 3997 3641 3322 
Q 3641 2881 3436 2590 
Q 3231 2300 2841 2188 
z
M 1259 4147 
L 1259 2491 
L 2053 2491 
Q 2509 2491 2742 2702 
Q 2975 2913 2975 3322 
Q 2975 3731 2742 3939 
Q 2509 4147 2053 4147 
L 1259 4147 
z
" transform="scale(0.015625)"/>
     </defs>
     <use xlink:href="#DejaVuSans-57"/>
     <use xlink:href="#DejaVuSans-46" x="98.876953"/>
     <use xlink:href="#DejaVuSans-52" x="156.396484"/>
    </g>
   </g>
   <g id="text_18">
    <!-- Main-L -->
    <g transform="translate(361.832136 121.646632)scale(0.08 -0.08)">
     <defs>
      <path id="DejaVuSans-4d" d="M 628 4666 
L 1569 4666 
L 2759 1491 
L 3956 4666 
L 4897 4666 
L 4897 0 
L 4281 0 
L 4281 4097 
L 3078 897 
L 2444 897 
L 1241 4097 
L 1241 0 
L 628 0 
L 628 4666 
z
" transform="scale(0.015625)"/>
      <path id="DejaVuSans-2d" d="M 313 2009 
L 1997 2009 
L 1997 1497 
L 313 1497 
L 313 2009 
z
" transform="scale(0.015625)"/>
     </defs>
     <use xlink:href="#DejaVuSans-4d"/>
     <use xlink:href="#DejaVuSans-61" x="86.279297"/>
     <use xlink:href="#DejaVuSans-69" x="147.558594"/>
     <use xlink:href="#DejaVuSans-6e" x="175.341797"/>
     <use xlink:href="#DejaVuSans-2d" x="238.720703"/>
     <use xlink:href="#DejaVuSans-4c" x="274.804688"/>
    </g>
   </g>
   <g id="text_19">
    <!-- Main-R -->
    <g transform="translate(361.832136 64.310781)scale(0.08 -0.08)">
     <use xlink:href="#DejaVuSans-4d"/>
     <use xlink:href="#DejaVuSans-61" x="86.279297"/>
     <use xlink:href="#DejaVuSans-69" x="147.558594"/>
     <use xlink:href="#DejaVuSans-6e" x="175.341797"/>
     <use xlink:href="#DejaVuSans-2d" x="238.720703"/>
     <use xlink:href="#DejaVuSans-52" x="274.804688"/>
    </g>
   </g>
   <g id="text_20">
    <!-- AFL -->
    <g transform="translate(361.832136 111.158366)scale(0.08 -0.08)">
     <defs>
      <path id="DejaVuSans-41" d="M 2188 4044 
L 1331 1722 
L 3047 1722 
L 2188 4044 
z
M 1831 4666 
L 2547 4666 
L 4325 0 
L 3669 0 
L 3244 1197 
L 1141 1197 
L 716 0 
L 50 0 
L 1831 4666 
z
" transform="scale(0.015625)"/>
     </defs>
     <use xlink:href="#DejaVuSans-41"/>
     <use xlink:href="#DejaVuSans-46" x="68.408203"/>
     <use xlink:href="#DejaVuSans-4c" x="125.927734"/>
    </g>
   </g>
   <g id="text_21">
    <!-- AFR -->
    <g transform="translate(361.832136 46.970182)scale(0.08 -0.08)">
     <use xlink:href="#DejaVuSans-41"/>
     <use xlink:href="#DejaVuSans-46" x="68.408203"/>
     <use xlink:href="#DejaVuSans-52" x="125.927734"/>
    </g>
   </g>
   <g id="text_22">
    <!-- Nonfinal -->
    <g transform="translate(361.832136 79.227425)scale(0.08 -0.08)">
     <defs>
      <path id="DejaVuSans-4e" d="M 628 4666 
L 1478 4666 
L 3547 763 
L 3547 4666 
L 4159 4666 
L 4159 0 
L 3309 0 
L 1241 3903 
L 1241 0 
L 628 0 
L 628 4666 
z
" transform="scale(0.015625)"/>
      <path id="DejaVuSans-66" d="M 2375 4863 
L 2375 4384 
L 1825 4384 
Q 1516 4384 1395 4259 
Q 1275 4134 1275 3809 
L 1275 3500 
L 2222 3500 
L 2222 3053 
L 1275 3053 
L 1275 0 
L 697 0 
L 697 3053 
L 147 3053 
L 147 3500 
L 697 3500 
L 697 3744 
Q 697 4328 969 4595 
Q 1241 4863 1831 4863 
L 2375 4863 
z
" transform="scale(0.015625)"/>
      <path id="DejaVuSans-6c" d="M 603 4863 
L 1178 4863 
L 1178 0 
L 603 0 
L 603 4863 
z
" transform="scale(0.015625)"/>
     </defs>
     <use xlink:href="#DejaVuSans-4e"/>
     <use xlink:href="#DejaVuSans-6f" x="74.804688"/>
     <use xlink:href="#DejaVuSans-6e" x="135.986328"/>
     <use xlink:href="#DejaVuSans-66" x="199.365234"/>
     <use xlink:href="#DejaVuSans-69" x="234.570312"/>
     <use xlink:href="#DejaVuSans-6e" x="262.353516"/>
     <use xlink:href="#DejaVuSans-61" x="325.732422"/>
     <use xlink:href="#DejaVuSans-6c" x="387.011719"/>
    </g>
   </g>
   <g id="text_23">
    <!-- Trochaic -->
    <g transform="translate(361.832136 59.043341)scale(0.08 -0.08)">
     <defs>
      <path id="DejaVuSans-54" d="M -19 4666 
L 3928 4666 
L 3928 4134 
L 2272 4134 
L 2272 0 
L 1638 0 
L 1638 4134 
L -19 4134 
L -19 4666 
z
" transform="scale(0.015625)"/>
      <path id="DejaVuSans-68" d="M 3513 2113 
L 3513 0 
L 2938 0 
L 2938 2094 
Q 2938 2591 2744 2837 
Q 2550 3084 2163 3084 
Q 1697 3084 1428 2787 
Q 1159 2491 1159 1978 
L 1159 0 
L 581 0 
L 581 4863 
L 1159 4863 
L 1159 2956 
Q 1366 3272 1645 3428 
Q 1925 3584 2291 3584 
Q 2894 3584 3203 3211 
Q 3513 2838 3513 2113 
z
" transform="scale(0.015625)"/>
     </defs>
     <use xlink:href="#DejaVuSans-54"/>
     <use xlink:href="#DejaVuSans-72" x="46.333984"/>
     <use xlink:href="#DejaVuSans-6f" x="85.197266"/>
     <use xlink:href="#DejaVuSans-63" x="146.378906"/>
     <use xlink:href="#DejaVuSans-68" x="201.359375"/>
     <use xlink:href="#DejaVuSans-61" x="264.738281"/>
     <use xlink:href="#DejaVuSans-69" x="326.017578"/>
     <use xlink:href="#DejaVuSans-63" x="353.800781"/>
    </g>
   </g>
  </g>
  <g id="axes_2">
   <g id="patch_7">
    <path d="M 57.6 307.584 
L 414.72 307.584 
L 414.72 186.624 
L 57.6 186.624 
z
" style="fill: #ffffff"/>
   </g>
   <g id="matplotlib.axis_3">
    <g id="xtick_8">
     <g id="line2d_24">
      <g>
       <use xlink:href="#m2537f9c378" x="70.415311" y="307.584" style="stroke: #000000; stroke-width: 0.8"/>
      </g>
     </g>
     <g id="text_24">
      <!-- 0 -->
      <g transform="translate(67.234061 322.182437)scale(0.1 -0.1)">
       <use xlink:href="#DejaVuSans-30"/>
      </g>
     </g>
    </g>
    <g id="xtick_9">
     <g id="line2d_25">
      <g>
       <use xlink:href="#m2537f9c378" x="138.763636" y="307.584" style="stroke: #000000; stroke-width: 0.8"/>
      </g>
     </g>
     <g id="text_25">
      <!-- 20 -->
      <g transform="translate(132.401136 322.182437)scale(0.1 -0.1)">
       <use xlink:href="#DejaVuSans-32"/>
       <use xlink:href="#DejaVuSans-30" x="63.623047"/>
      </g>
     </g>
    </g>
    <g id="xtick_10">
     <g id="line2d_26">
      <g>
       <use xlink:href="#m2537f9c378" x="207.111962" y="307.584" style="stroke: #000000; stroke-width: 0.8"/>
      </g>
     </g>
     <g id="text_26">
      <!-- 40 -->
      <g transform="translate(200.749462 322.182437)scale(0.1 -0.1)">
       <use xlink:href="#DejaVuSans-34"/>
       <use xlink:href="#DejaVuSans-30" x="63.623047"/>
      </g>
     </g>
    </g>
    <g id="xtick_11">
     <g id="line2d_27">
      <g>
       <use xlink:href="#m2537f9c378" x="275.460287" y="307.584" style="stroke: #000000; stroke-width: 0.8"/>
      </g>
     </g>
     <g id="text_27">
      <!-- 60 -->
      <g transform="translate(269.097787 322.182437)scale(0.1 -0.1)">
       <use xlink:href="#DejaVuSans-36"/>
       <use xlink:href="#DejaVuSans-30" x="63.623047"/>
      </g>
     </g>
    </g>
    <g id="xtick_12">
     <g id="line2d_28">
      <g>
       <use xlink:href="#m2537f9c378" x="343.808612" y="307.584" style="stroke: #000000; stroke-width: 0.8"/>
      </g>
     </g>
     <g id="text_28">
      <!-- 80 -->
      <g transform="translate(337.446112 322.182437)scale(0.1 -0.1)">
       <use xlink:href="#DejaVuSans-38"/>
       <use xlink:href="#DejaVuSans-30" x="63.623047"/>
      </g>
     </g>
    </g>
    <g id="xtick_13">
     <g id="line2d_29">
      <g>
       <use xlink:href="#m2537f9c378" x="412.156938" y="307.584" style="stroke: #000000; stroke-width: 0.8"/>
      </g>
     </g>
     <g id="text_29">
      <!-- 100 -->
      <g transform="translate(402.613188 322.182437)scale(0.1 -0.1)">
       <use xlink:href="#DejaVuSans-31"/>
       <use xlink:href="#DejaVuSans-30" x="63.623047"/>
       <use xlink:href="#DejaVuSans-30" x="127.246094"/>
      </g>
     </g>
    </g>
   </g>
   <g id="matplotlib.axis_4">
    <g id="ytick_5">
     <g id="line2d_30">
      <g>
       <use xlink:href="#m2639bd804f" x="57.6" y="302.096328" style="stroke: #000000; stroke-width: 0.8"/>
      </g>
     </g>
     <g id="text_30">
      <!-- 0 -->
      <g transform="translate(44.2375 305.895547)scale(0.1 -0.1)">
       <use xlink:href="#DejaVuSans-30"/>
      </g>
     </g>
    </g>
    <g id="ytick_6">
     <g id="line2d_31">
      <g>
       <use xlink:href="#m2639bd804f" x="57.6" y="281.076805" style="stroke: #000000; stroke-width: 0.8"/>
      </g>
     </g>
     <g id="text_31">
      <!-- 2000 -->
      <g transform="translate(25.15 284.876023)scale(0.1 -0.1)">
       <use xlink:href="#DejaVuSans-32"/>
       <use xlink:href="#DejaVuSans-30" x="63.623047"/>
       <use xlink:href="#DejaVuSans-30" x="127.246094"/>
       <use xlink:href="#DejaVuSans-30" x="190.869141"/>
      </g>
     </g>
    </g>
    <g id="ytick_7">
     <g id="line2d_32">
      <g>
       <use xlink:href="#m2639bd804f" x="57.6" y="260.057281" style="stroke: #000000; stroke-width: 0.8"/>
      </g>
     </g>
     <g id="text_32">
      <!-- 4000 -->
      <g transform="translate(25.15 263.8565)scale(0.1 -0.1)">
       <use xlink:href="#DejaVuSans-34"/>
       <use xlink:href="#DejaVuSans-30" x="63.623047"/>
       <use xlink:href="#DejaVuSans-30" x="127.246094"/>
       <use xlink:href="#DejaVuSans-30" x="190.869141"/>
      </g>
     </g>
    </g>
    <g id="ytick_8">
     <g id="line2d_33">
      <g>
       <use xlink:href="#m2639bd804f" x="57.6" y="239.037758" style="stroke: #000000; stroke-width: 0.8"/>
      </g>
     </g>
     <g id="text_33">
      <!-- 6000 -->
      <g transform="translate(25.15 242.836977)scale(0.1 -0.1)">
       <use xlink:href="#DejaVuSans-36"/>
       <use xlink:href="#DejaVuSans-30" x="63.623047"/>
       <use xlink:href="#DejaVuSans-30" x="127.246094"/>
       <use xlink:href="#DejaVuSans-30" x="190.869141"/>
      </g>
     </g>
    </g>
    <g id="ytick_9">
     <g id="line2d_34">
      <g>
       <use xlink:href="#m2639bd804f" x="57.6" y="218.018235" style="stroke: #000000; stroke-width: 0.8"/>
      </g>
     </g>
     <g id="text_34">
      <!-- 8000 -->
      <g transform="translate(25.15 221.817453)scale(0.1 -0.1)">
       <use xlink:href="#DejaVuSans-38"/>
       <use xlink:href="#DejaVuSans-30" x="63.623047"/>
       <use xlink:href="#DejaVuSans-30" x="127.246094"/>
       <use xlink:href="#DejaVuSans-30" x="190.869141"/>
      </g>
     </g>
    </g>
    <g id="ytick_10">
     <g id="line2d_35">
      <g>
       <use xlink:href="#m2639bd804f" x="57.6" y="196.998711" style="stroke: #000000; stroke-width: 0.8"/>
      </g>
     </g>
     <g id="text_35">
      <!-- 10000 -->
      <g transform="translate(18.7875 200.79793)scale(0.1 -0.1)">
       <use xlink:href="#DejaVuSans-31"/>
       <use xlink:href="#DejaVuSans-30" x="63.623047"/>
       <use xlink:href="#DejaVuSans-30" x="127.246094"/>
       <use xlink:href="#DejaVuSans-30" x="190.869141"/>
       <use xlink:href="#DejaVuSans-30" x="254.492188"/>
      </g>
     </g>
    </g>
   </g>
   <g id="line2d_36">
    <path d="M 73.832727 302.085818 
L 77.250144 302.085818 
L 80.66756 302.054289 
L 84.084976 302.085818 
L 87.502392 302.085818 
L 90.919809 302.085818 
L 94.337225 302.085818 
L 97.754641 302.075308 
L 101.172057 302.064799 
L 104.589474 302.085818 
L 108.00689 302.085818 
L 111.424306 302.054289 
L 114.841722 302.085818 
L 118.259139 302.075308 
L 121.676555 302.085818 
L 125.093971 302.085818 
L 128.511388 302.02276 
L 131.928804 302.064799 
L 135.34622 302.043779 
L 138.763636 302.085818 
L 142.181053 302.085818 
L 145.598469 302.064799 
L 149.015885 302.085818 
L 152.433301 302.075308 
L 155.850718 301.949191 
L 159.268134 302.085818 
L 162.68555 302.075308 
L 166.102967 302.075308 
L 169.520383 301.980721 
L 172.937799 301.854603 
L 176.355215 302.064799 
L 179.772632 302.075308 
L 183.190048 301.980721 
L 186.607464 301.738996 
L 190.02488 302.085818 
L 193.442297 302.00174 
L 196.859713 301.980721 
L 200.277129 301.823074 
L 203.694545 301.980721 
L 207.111962 302.033269 
L 210.529378 302.054289 
L 213.946794 302.01225 
L 217.364211 302.085818 
L 220.781627 302.075308 
L 224.199043 302.02276 
L 227.616459 302.075308 
L 231.033876 302.064799 
L 234.451292 301.907152 
L 237.868708 301.633898 
L 241.286124 301.928172 
L 244.703541 302.064799 
L 248.120957 301.844094 
L 251.538373 301.623389 
L 254.955789 301.928172 
L 258.373206 302.064799 
L 261.790622 301.539311 
L 265.208038 301.633898 
L 268.625455 301.896642 
L 272.042871 300.719549 
L 275.460287 301.770525 
L 278.877703 301.675937 
L 282.29512 300.341198 
L 285.712536 301.245037 
L 289.129952 301.696957 
L 292.547368 301.57084 
L 295.964785 300.68802 
L 299.382201 300.519864 
L 302.799617 295.138866 
L 306.217033 298.449441 
L 309.63445 300.467315 
L 313.051866 299.206143 
L 316.469282 301.202998 
L 319.886699 296.978074 
L 323.304115 301.823074 
L 326.721531 295.948117 
L 330.138947 286.520861 
L 333.556364 301.665428 
L 336.97378 286.163529 
L 340.391196 293.783106 
L 343.808612 257.976348 
L 347.226029 294.760514 
L 350.643445 230.209558 
L 354.060861 298.176187 
L 357.478278 267.435134 
L 360.895694 238.838072 
L 364.31311 297.062152 
L 367.730526 267.960622 
L 371.147943 298.102619 
L 374.565359 288.139364 
L 377.982775 289.926024 
L 381.400191 280.162455 
L 384.817608 268.107759 
L 388.235024 271.407824 
L 391.65244 301.10841 
L 395.069856 192.122182 
L 398.487273 245.869103 
" clip-path="url(#p9267d14ecf)" style="fill: none; stroke: #1f77b4; stroke-width: 1.5; stroke-linecap: square"/>
   </g>
   <g id="patch_8">
    <path d="M 57.6 307.584 
L 57.6 186.624 
" style="fill: none; stroke: #000000; stroke-width: 0.8; stroke-linejoin: miter; stroke-linecap: square"/>
   </g>
   <g id="patch_9">
    <path d="M 414.72 307.584 
L 414.72 186.624 
" style="fill: none; stroke: #000000; stroke-width: 0.8; stroke-linejoin: miter; stroke-linecap: square"/>
   </g>
   <g id="patch_10">
    <path d="M 57.6 307.584 
L 414.72 307.584 
" style="fill: none; stroke: #000000; stroke-width: 0.8; stroke-linejoin: miter; stroke-linecap: square"/>
   </g>
   <g id="patch_11">
    <path d="M 57.6 186.624 
L 414.72 186.624 
" style="fill: none; stroke: #000000; stroke-width: 0.8; stroke-linejoin: miter; stroke-linecap: square"/>
   </g>
  </g>
 </g>
 <defs>
  <clipPath id="p548f963128">
   <rect x="57.6" y="41.472" width="357.12" height="120.96"/>
  </clipPath>
  <clipPath id="p9267d14ecf">
   <rect x="57.6" y="186.624" width="357.12" height="120.96"/>
  </clipPath>
 </defs>
</svg>
