<?xml version="1.0" encoding="utf-8" standalone="no"?>
<!DOCTYPE svg PUBLIC "-//W3C//DTD SVG 1.1//EN"
  "http://www.w3.org/Graphics/SVG/1.1/DTD/svg11.dtd">
<svg xmlns:xlink="http://www.w3.org/1999/xlink" width="460.8pt" height="345.6pt" viewBox="0 0 460.8 345.6" xmlns="http://www.w3.org/2000/svg" version="1.1">
 <metadata>
  <rdf:RDF xmlns:dc="http://purl.org/dc/elements/1.1/" xmlns:cc="http://creativecommons.org/ns#" xmlns:rdf="http://www.w3.org/1999/02/22-rdf-syntax-ns#">
   <cc:Work>
    <dc:type rdf:resource="http://purl.org/dc/dcmitype/StillImage"/>
    <dc:date>2022-05-14T05:38:43.844983</dc:date>
    <dc:format>image/svg+xml</dc:format>
    <dc:creator>
     <cc:Agent>
      <dc:title>Matplotlib v3.5.1, https://matplotlib.org/</dc:title>
     </cc:Agent>
    </dc:creator>
   </cc:Work>
  </rdf:RDF>
 </metadata>
 <defs>
  <style type="text/css">*{stroke-linejoin: round; stroke-linecap: butt}</style>
 </defs>
 <g id="figure_1">
  <g id="patch_1">
   <path d="M 0 345.6 
L 460.8 345.6 
L 460.8 0 
L 0 0 
z
" style="fill: #ffffff"/>
  </g>
  <g id="axes_1">
   <g id="patch_2">
    <path d="M 57.6 162.432 
L 414.72 162.432 
L 414.72 41.472 
L 57.6 41.472 
z
" style="fill: #ffffff"/>
   </g>
   <g id="matplotlib.axis_1">
    <g id="xtick_1">
     <g id="line2d_1">
      <defs>
       <path id="m7f18ac96ae" d="M 0 0 
L 0 3.5 
" style="stroke: #000000; stroke-width: 0.8"/>
      </defs>
      <g>
       <use xlink:href="#m7f18ac96ae" x="73.827491" y="162.432" style="stroke: #000000; stroke-width: 0.8"/>
      </g>
     </g>
     <g id="text_1">
      <!-- 0 -->
      <g transform="translate(70.646241 177.030437)scale(0.1 -0.1)">
       <defs>
        <path id="DejaVuSans-30" d="M 2034 4250 
Q 1547 4250 1301 3770 
Q 1056 3291 1056 2328 
Q 1056 1369 1301 889 
Q 1547 409 2034 409 
Q 2525 409 2770 889 
Q 3016 1369 3016 2328 
Q 3016 3291 2770 3770 
Q 2525 4250 2034 4250 
z
M 2034 4750 
Q 2819 4750 3233 4129 
Q 3647 3509 3647 2328 
Q 3647 1150 3233 529 
Q 2819 -91 2034 -91 
Q 1250 -91 836 529 
Q 422 1150 422 2328 
Q 422 3509 836 4129 
Q 1250 4750 2034 4750 
z
" transform="scale(0.015625)"/>
       </defs>
       <use xlink:href="#DejaVuSans-30"/>
      </g>
     </g>
    </g>
    <g id="xtick_2">
     <g id="line2d_2">
      <g>
       <use xlink:href="#m7f18ac96ae" x="126.191972" y="162.432" style="stroke: #000000; stroke-width: 0.8"/>
      </g>
     </g>
     <g id="text_2">
      <!-- 10000 -->
      <g transform="translate(110.285722 177.030437)scale(0.1 -0.1)">
       <defs>
        <path id="DejaVuSans-31" d="M 794 531 
L 1825 531 
L 1825 4091 
L 703 3866 
L 703 4441 
L 1819 4666 
L 2450 4666 
L 2450 531 
L 3481 531 
L 3481 0 
L 794 0 
L 794 531 
z
" transform="scale(0.015625)"/>
       </defs>
       <use xlink:href="#DejaVuSans-31"/>
       <use xlink:href="#DejaVuSans-30" x="63.623047"/>
       <use xlink:href="#DejaVuSans-30" x="127.246094"/>
       <use xlink:href="#DejaVuSans-30" x="190.869141"/>
       <use xlink:href="#DejaVuSans-30" x="254.492188"/>
      </g>
     </g>
    </g>
    <g id="xtick_3">
     <g id="line2d_3">
      <g>
       <use xlink:href="#m7f18ac96ae" x="178.556453" y="162.432" style="stroke: #000000; stroke-width: 0.8"/>
      </g>
     </g>
     <g id="text_3">
      <!-- 20000 -->
      <g transform="translate(162.650203 177.030437)scale(0.1 -0.1)">
       <defs>
        <path id="DejaVuSans-32" d="M 1228 531 
L 3431 531 
L 3431 0 
L 469 0 
L 469 531 
Q 828 903 1448 1529 
Q 2069 2156 2228 2338 
Q 2531 2678 2651 2914 
Q 2772 3150 2772 3378 
Q 2772 3750 2511 3984 
Q 2250 4219 1831 4219 
Q 1534 4219 1204 4116 
Q 875 4013 500 3803 
L 500 4441 
Q 881 4594 1212 4672 
Q 1544 4750 1819 4750 
Q 2544 4750 2975 4387 
Q 3406 4025 3406 3419 
Q 3406 3131 3298 2873 
Q 3191 2616 2906 2266 
Q 2828 2175 2409 1742 
Q 1991 1309 1228 531 
z
" transform="scale(0.015625)"/>
       </defs>
       <use xlink:href="#DejaVuSans-32"/>
       <use xlink:href="#DejaVuSans-30" x="63.623047"/>
       <use xlink:href="#DejaVuSans-30" x="127.246094"/>
       <use xlink:href="#DejaVuSans-30" x="190.869141"/>
       <use xlink:href="#DejaVuSans-30" x="254.492188"/>
      </g>
     </g>
    </g>
    <g id="xtick_4">
     <g id="line2d_4">
      <g>
       <use xlink:href="#m7f18ac96ae" x="230.920934" y="162.432" style="stroke: #000000; stroke-width: 0.8"/>
      </g>
     </g>
     <g id="text_4">
      <!-- 30000 -->
      <g transform="translate(215.014684 177.030437)scale(0.1 -0.1)">
       <defs>
        <path id="DejaVuSans-33" d="M 2597 2516 
Q 3050 2419 3304 2112 
Q 3559 1806 3559 1356 
Q 3559 666 3084 287 
Q 2609 -91 1734 -91 
Q 1441 -91 1130 -33 
Q 819 25 488 141 
L 488 750 
Q 750 597 1062 519 
Q 1375 441 1716 441 
Q 2309 441 2620 675 
Q 2931 909 2931 1356 
Q 2931 1769 2642 2001 
Q 2353 2234 1838 2234 
L 1294 2234 
L 1294 2753 
L 1863 2753 
Q 2328 2753 2575 2939 
Q 2822 3125 2822 3475 
Q 2822 3834 2567 4026 
Q 2313 4219 1838 4219 
Q 1578 4219 1281 4162 
Q 984 4106 628 3988 
L 628 4550 
Q 988 4650 1302 4700 
Q 1616 4750 1894 4750 
Q 2613 4750 3031 4423 
Q 3450 4097 3450 3541 
Q 3450 3153 3228 2886 
Q 3006 2619 2597 2516 
z
" transform="scale(0.015625)"/>
       </defs>
       <use xlink:href="#DejaVuSans-33"/>
       <use xlink:href="#DejaVuSans-30" x="63.623047"/>
       <use xlink:href="#DejaVuSans-30" x="127.246094"/>
       <use xlink:href="#DejaVuSans-30" x="190.869141"/>
       <use xlink:href="#DejaVuSans-30" x="254.492188"/>
      </g>
     </g>
    </g>
    <g id="xtick_5">
     <g id="line2d_5">
      <g>
       <use xlink:href="#m7f18ac96ae" x="283.285415" y="162.432" style="stroke: #000000; stroke-width: 0.8"/>
      </g>
     </g>
     <g id="text_5">
      <!-- 40000 -->
      <g transform="translate(267.379165 177.030437)scale(0.1 -0.1)">
       <defs>
        <path id="DejaVuSans-34" d="M 2419 4116 
L 825 1625 
L 2419 1625 
L 2419 4116 
z
M 2253 4666 
L 3047 4666 
L 3047 1625 
L 3713 1625 
L 3713 1100 
L 3047 1100 
L 3047 0 
L 2419 0 
L 2419 1100 
L 313 1100 
L 313 1709 
L 2253 4666 
z
" transform="scale(0.015625)"/>
       </defs>
       <use xlink:href="#DejaVuSans-34"/>
       <use xlink:href="#DejaVuSans-30" x="63.623047"/>
       <use xlink:href="#DejaVuSans-30" x="127.246094"/>
       <use xlink:href="#DejaVuSans-30" x="190.869141"/>
       <use xlink:href="#DejaVuSans-30" x="254.492188"/>
      </g>
     </g>
    </g>
    <g id="xtick_6">
     <g id="line2d_6">
      <g>
       <use xlink:href="#m7f18ac96ae" x="335.649896" y="162.432" style="stroke: #000000; stroke-width: 0.8"/>
      </g>
     </g>
     <g id="text_6">
      <!-- 50000 -->
      <g transform="translate(319.743646 177.030437)scale(0.1 -0.1)">
       <defs>
        <path id="DejaVuSans-35" d="M 691 4666 
L 3169 4666 
L 3169 4134 
L 1269 4134 
L 1269 2991 
Q 1406 3038 1543 3061 
Q 1681 3084 1819 3084 
Q 2600 3084 3056 2656 
Q 3513 2228 3513 1497 
Q 3513 744 3044 326 
Q 2575 -91 1722 -91 
Q 1428 -91 1123 -41 
Q 819 9 494 109 
L 494 744 
Q 775 591 1075 516 
Q 1375 441 1709 441 
Q 2250 441 2565 725 
Q 2881 1009 2881 1497 
Q 2881 1984 2565 2268 
Q 2250 2553 1709 2553 
Q 1456 2553 1204 2497 
Q 953 2441 691 2322 
L 691 4666 
z
" transform="scale(0.015625)"/>
       </defs>
       <use xlink:href="#DejaVuSans-35"/>
       <use xlink:href="#DejaVuSans-30" x="63.623047"/>
       <use xlink:href="#DejaVuSans-30" x="127.246094"/>
       <use xlink:href="#DejaVuSans-30" x="190.869141"/>
       <use xlink:href="#DejaVuSans-30" x="254.492188"/>
      </g>
     </g>
    </g>
    <g id="xtick_7">
     <g id="line2d_7">
      <g>
       <use xlink:href="#m7f18ac96ae" x="388.014377" y="162.432" style="stroke: #000000; stroke-width: 0.8"/>
      </g>
     </g>
     <g id="text_7">
      <!-- 60000 -->
      <g transform="translate(372.108127 177.030437)scale(0.1 -0.1)">
       <defs>
        <path id="DejaVuSans-36" d="M 2113 2584 
Q 1688 2584 1439 2293 
Q 1191 2003 1191 1497 
Q 1191 994 1439 701 
Q 1688 409 2113 409 
Q 2538 409 2786 701 
Q 3034 994 3034 1497 
Q 3034 2003 2786 2293 
Q 2538 2584 2113 2584 
z
M 3366 4563 
L 3366 3988 
Q 3128 4100 2886 4159 
Q 2644 4219 2406 4219 
Q 1781 4219 1451 3797 
Q 1122 3375 1075 2522 
Q 1259 2794 1537 2939 
Q 1816 3084 2150 3084 
Q 2853 3084 3261 2657 
Q 3669 2231 3669 1497 
Q 3669 778 3244 343 
Q 2819 -91 2113 -91 
Q 1303 -91 875 529 
Q 447 1150 447 2328 
Q 447 3434 972 4092 
Q 1497 4750 2381 4750 
Q 2619 4750 2861 4703 
Q 3103 4656 3366 4563 
z
" transform="scale(0.015625)"/>
       </defs>
       <use xlink:href="#DejaVuSans-36"/>
       <use xlink:href="#DejaVuSans-30" x="63.623047"/>
       <use xlink:href="#DejaVuSans-30" x="127.246094"/>
       <use xlink:href="#DejaVuSans-30" x="190.869141"/>
       <use xlink:href="#DejaVuSans-30" x="254.492188"/>
      </g>
     </g>
    </g>
   </g>
   <g id="matplotlib.axis_2">
    <g id="ytick_1">
     <g id="line2d_8">
      <defs>
       <path id="mdab15b9fec" d="M 0 0 
L -3.5 0 
" style="stroke: #000000; stroke-width: 0.8"/>
      </defs>
      <g>
       <use xlink:href="#mdab15b9fec" x="57.6" y="141.078199" style="stroke: #000000; stroke-width: 0.8"/>
      </g>
     </g>
     <g id="text_8">
      <!-- 70 -->
      <g transform="translate(37.875 144.877417)scale(0.1 -0.1)">
       <defs>
        <path id="DejaVuSans-37" d="M 525 4666 
L 3525 4666 
L 3525 4397 
L 1831 0 
L 1172 0 
L 2766 4134 
L 525 4134 
L 525 4666 
z
" transform="scale(0.015625)"/>
       </defs>
       <use xlink:href="#DejaVuSans-37"/>
       <use xlink:href="#DejaVuSans-30" x="63.623047"/>
      </g>
     </g>
    </g>
    <g id="ytick_2">
     <g id="line2d_9">
      <g>
       <use xlink:href="#mdab15b9fec" x="57.6" y="115.435687" style="stroke: #000000; stroke-width: 0.8"/>
      </g>
     </g>
     <g id="text_9">
      <!-- 80 -->
      <g transform="translate(37.875 119.234906)scale(0.1 -0.1)">
       <defs>
        <path id="DejaVuSans-38" d="M 2034 2216 
Q 1584 2216 1326 1975 
Q 1069 1734 1069 1313 
Q 1069 891 1326 650 
Q 1584 409 2034 409 
Q 2484 409 2743 651 
Q 3003 894 3003 1313 
Q 3003 1734 2745 1975 
Q 2488 2216 2034 2216 
z
M 1403 2484 
Q 997 2584 770 2862 
Q 544 3141 544 3541 
Q 544 4100 942 4425 
Q 1341 4750 2034 4750 
Q 2731 4750 3128 4425 
Q 3525 4100 3525 3541 
Q 3525 3141 3298 2862 
Q 3072 2584 2669 2484 
Q 3125 2378 3379 2068 
Q 3634 1759 3634 1313 
Q 3634 634 3220 271 
Q 2806 -91 2034 -91 
Q 1263 -91 848 271 
Q 434 634 434 1313 
Q 434 1759 690 2068 
Q 947 2378 1403 2484 
z
M 1172 3481 
Q 1172 3119 1398 2916 
Q 1625 2713 2034 2713 
Q 2441 2713 2670 2916 
Q 2900 3119 2900 3481 
Q 2900 3844 2670 4047 
Q 2441 4250 2034 4250 
Q 1625 4250 1398 4047 
Q 1172 3844 1172 3481 
z
" transform="scale(0.015625)"/>
       </defs>
       <use xlink:href="#DejaVuSans-38"/>
       <use xlink:href="#DejaVuSans-30" x="63.623047"/>
      </g>
     </g>
    </g>
    <g id="ytick_3">
     <g id="line2d_10">
      <g>
       <use xlink:href="#mdab15b9fec" x="57.6" y="89.793176" style="stroke: #000000; stroke-width: 0.8"/>
      </g>
     </g>
     <g id="text_10">
      <!-- 90 -->
      <g transform="translate(37.875 93.592395)scale(0.1 -0.1)">
       <defs>
        <path id="DejaVuSans-39" d="M 703 97 
L 703 672 
Q 941 559 1184 500 
Q 1428 441 1663 441 
Q 2288 441 2617 861 
Q 2947 1281 2994 2138 
Q 2813 1869 2534 1725 
Q 2256 1581 1919 1581 
Q 1219 1581 811 2004 
Q 403 2428 403 3163 
Q 403 3881 828 4315 
Q 1253 4750 1959 4750 
Q 2769 4750 3195 4129 
Q 3622 3509 3622 2328 
Q 3622 1225 3098 567 
Q 2575 -91 1691 -91 
Q 1453 -91 1209 -44 
Q 966 3 703 97 
z
M 1959 2075 
Q 2384 2075 2632 2365 
Q 2881 2656 2881 3163 
Q 2881 3666 2632 3958 
Q 2384 4250 1959 4250 
Q 1534 4250 1286 3958 
Q 1038 3666 1038 3163 
Q 1038 2656 1286 2365 
Q 1534 2075 1959 2075 
z
" transform="scale(0.015625)"/>
       </defs>
       <use xlink:href="#DejaVuSans-39"/>
       <use xlink:href="#DejaVuSans-30" x="63.623047"/>
      </g>
     </g>
    </g>
    <g id="ytick_4">
     <g id="line2d_11">
      <g>
       <use xlink:href="#mdab15b9fec" x="57.6" y="64.150664" style="stroke: #000000; stroke-width: 0.8"/>
      </g>
     </g>
     <g id="text_11">
      <!-- 100 -->
      <g transform="translate(31.5125 67.949883)scale(0.1 -0.1)">
       <use xlink:href="#DejaVuSans-31"/>
       <use xlink:href="#DejaVuSans-30" x="63.623047"/>
       <use xlink:href="#DejaVuSans-30" x="127.246094"/>
      </g>
     </g>
    </g>
   </g>
   <g id="line2d_12">
    <path d="M 73.832727 66.714916 
L 73.848437 66.714916 
L 73.995057 85.092049 
L 74.026476 85.092049 
L 74.047422 83.382548 
L 74.068367 91.075301 
L 74.084077 91.075301 
L 74.204515 97.058554 
L 74.372081 97.058554 
L 74.49252 102.187056 
L 74.770051 102.187056 
L 74.885253 104.751307 
L 75.115657 104.751307 
L 75.230859 103.896557 
L 75.429844 103.896557 
L 75.545046 106.460808 
L 75.607883 106.460808 
L 75.723085 109.025059 
L 76.241493 109.025059 
L 76.356695 111.589311 
L 77.550605 111.589311 
L 77.665807 110.73456 
L 77.723408 110.73456 
L 77.744354 113.298811 
L 77.833374 112.444061 
L 80.299741 112.444061 
L 80.414943 111.589311 
L 80.755312 111.589311 
L 80.870514 114.153562 
L 81.462232 114.153562 
L 81.58267 119.282064 
L 81.635035 119.282064 
L 81.750237 121.846315 
L 87.09665 121.846315 
L 87.211852 120.991565 
L 88.552383 120.991565 
L 88.667585 123.555816 
L 112.383458 123.555816 
L 112.49866 126.120067 
L 124.48489 126.120067 
L 124.600092 128.684318 
L 153.322009 128.684318 
L 153.437211 131.248569 
L 159.333452 131.248569 
L 159.448654 133.81282 
L 184.908264 133.81282 
L 185.023466 133.385445 
L 341.598501 133.385445 
L 341.713702 135.949696 
L 398.487273 135.949696 
L 398.487273 135.949696 
" clip-path="url(#pe9a979f6c6)" style="fill: none; stroke: #1f77b4; stroke-width: 1.5; stroke-linecap: square"/>
   </g>
   <g id="line2d_13">
    <path d="M 73.832727 63.295914 
L 73.953166 61.586413 
L 74.099786 61.586413 
L 74.220224 66.714916 
L 79.786569 66.714916 
L 79.901771 69.279167 
L 341.598501 69.279167 
L 341.713702 71.843418 
L 398.487273 71.843418 
L 398.487273 71.843418 
" clip-path="url(#pe9a979f6c6)" style="fill: none; stroke: #ff7f0e; stroke-width: 1.5; stroke-linecap: square"/>
   </g>
   <g id="line2d_14">
    <path d="M 73.832727 66.714916 
L 73.848437 65.860165 
L 73.890328 73.125543 
L 73.906038 72.612693 
L 73.911274 72.612693 
L 73.968875 77.31382 
L 74.026476 76.031695 
L 74.047422 73.040068 
L 74.105023 78.168571 
L 74.120732 78.168571 
L 74.146914 78.168571 
L 74.162624 75.60432 
L 74.25688 76.886445 
L 74.351136 76.886445 
L 74.372081 75.60432 
L 74.377318 78.168571 
L 74.455865 78.168571 
L 74.576303 78.168571 
L 74.691505 76.886445 
L 76.204838 76.886445 
L 76.32004 79.450696 
L 76.351459 79.450696 
L 76.466661 76.886445 
L 77.299256 76.886445 
L 77.414458 75.60432 
L 77.493004 75.60432 
L 77.550605 78.168571 
L 77.60297 77.31382 
L 77.744354 77.31382 
L 77.859556 76.45907 
L 79.786569 76.45907 
L 79.901771 79.023321 
L 80.755312 79.023321 
L 80.870514 77.741195 
L 110.33077 77.741195 
L 110.445972 80.305447 
L 112.383458 80.305447 
L 112.49866 82.869698 
L 112.509133 82.869698 
L 112.624335 80.305447 
L 114.923135 80.305447 
L 115.038337 79.023321 
L 128.585029 79.023321 
L 128.70023 76.45907 
L 173.026764 76.45907 
L 173.141965 73.894819 
L 184.908264 73.894819 
L 185.023466 76.45907 
L 341.598501 76.45907 
L 341.713702 79.023321 
L 398.487273 79.023321 
L 398.487273 79.023321 
" clip-path="url(#pe9a979f6c6)" style="fill: none; stroke: #2ca02c; stroke-width: 1.5; stroke-linecap: square"/>
   </g>
   <g id="line2d_15">
    <path d="M 73.832727 66.714916 
L 73.963638 83.297073 
L 73.974111 82.784223 
L 73.989821 82.784223 
L 74.036949 81.929472 
L 74.052658 89.622226 
L 74.057895 88.981163 
L 74.063131 88.981163 
L 74.099786 87.48535 
L 74.105023 90.049601 
L 74.16786 89.408538 
L 74.178333 89.408538 
L 74.25688 94.53704 
L 74.293535 93.68229 
L 74.351136 93.68229 
L 74.471574 98.810792 
L 74.770051 98.810792 
L 74.89049 97.528667 
L 75.115657 97.528667 
L 75.230859 100.092918 
L 75.429844 100.092918 
L 75.545046 99.451855 
L 75.607883 99.451855 
L 75.723085 98.810792 
L 76.351459 98.810792 
L 76.466661 101.375043 
L 77.613443 101.375043 
L 77.723408 103.939295 
L 77.83861 103.084544 
L 77.938103 103.084544 
L 78.053304 105.648795 
L 79.786569 105.648795 
L 79.901771 105.007733 
L 80.299741 105.007733 
L 80.414943 107.571984 
L 80.498726 107.571984 
L 80.613928 106.930921 
L 80.755312 106.930921 
L 80.870514 109.495172 
L 81.462232 109.495172 
L 81.577434 108.854109 
L 81.635035 108.854109 
L 81.750237 111.41836 
L 85.274366 111.41836 
L 85.389568 113.982612 
L 87.09665 113.982612 
L 87.211852 116.546863 
L 88.552383 116.546863 
L 88.667585 115.9058 
L 91.762326 115.9058 
L 91.877527 118.470051 
L 112.278729 118.470051 
L 112.393931 117.615301 
L 112.509133 117.615301 
L 112.624335 120.179552 
L 128.585029 120.179552 
L 128.70023 122.743803 
L 146.462262 122.743803 
L 146.577464 122.10274 
L 159.333452 122.10274 
L 159.448654 124.666991 
L 173.026764 124.666991 
L 173.141965 127.231242 
L 184.908264 127.231242 
L 185.023466 126.803867 
L 341.598501 126.803867 
L 341.713702 129.368118 
L 398.487273 129.368118 
L 398.487273 129.368118 
" clip-path="url(#pe9a979f6c6)" style="fill: none; stroke: #d62728; stroke-width: 1.5; stroke-linecap: square"/>
   </g>
   <g id="line2d_16">
    <path d="M 73.832727 66.714916 
L 73.848437 66.714916 
L 73.91651 71.843418 
L 73.968875 71.416043 
L 74.036949 71.416043 
L 74.152151 73.980294 
L 74.372081 73.980294 
L 74.487283 76.544545 
L 79.786569 76.544545 
L 79.901771 79.108796 
L 87.09665 79.108796 
L 87.211852 81.673047 
L 398.487273 81.673047 
L 398.487273 81.673047 
" clip-path="url(#pe9a979f6c6)" style="fill: none; stroke: #9467bd; stroke-width: 1.5; stroke-linecap: square"/>
   </g>
   <g id="line2d_17">
    <path d="M 73.832727 66.714916 
L 73.848437 66.714916 
L 73.995057 84.664674 
L 74.047422 84.664674 
L 74.173096 92.357427 
L 74.340663 92.357427 
L 74.461101 97.485929 
L 76.204838 97.485929 
L 76.325277 102.614432 
L 77.493004 102.614432 
L 77.608206 105.178683 
L 79.786569 105.178683 
L 79.901771 107.742934 
L 110.33077 107.742934 
L 110.445972 110.307185 
L 112.383458 110.307185 
L 112.49866 112.871436 
L 184.908264 112.871436 
L 185.023466 115.435687 
L 341.598501 115.435687 
L 341.713702 117.999938 
L 398.487273 117.999938 
L 398.487273 117.999938 
" clip-path="url(#pe9a979f6c6)" style="fill: none; stroke: #8c564b; stroke-width: 1.5; stroke-linecap: square"/>
   </g>
   <g id="line2d_18">
    <path d="M 73.832727 63.295914 
L 73.984584 83.724448 
L 74.026476 83.724448 
L 74.052658 91.417202 
L 74.146914 89.494013 
L 74.178333 89.494013 
L 74.304008 97.186767 
L 74.340663 97.186767 
L 74.351136 96.332016 
L 74.356372 98.896267 
L 74.445392 98.041517 
L 74.576303 98.041517 
L 74.691505 100.605768 
L 74.770051 100.605768 
L 74.89049 99.323643 
L 75.115657 99.323643 
L 75.230859 101.887894 
L 75.429844 101.887894 
L 75.545046 101.246831 
L 75.607883 101.246831 
L 75.723085 100.605768 
L 76.241493 100.605768 
L 76.356695 99.751018 
L 77.299256 99.751018 
L 77.414458 102.315269 
L 77.550605 102.315269 
L 77.613443 104.87952 
L 77.660571 103.597394 
L 77.744354 103.597394 
L 77.859556 106.161646 
L 77.938103 106.161646 
L 78.053304 104.87952 
L 80.299741 104.87952 
L 80.414943 107.443771 
L 80.498726 107.443771 
L 80.613928 106.802708 
L 80.755312 106.802708 
L 80.870514 109.36696 
L 81.462232 109.36696 
L 81.58267 107.871146 
L 81.635035 107.871146 
L 81.750237 106.589021 
L 85.274366 106.589021 
L 85.389568 105.306895 
L 87.09665 105.306895 
L 87.211852 107.871146 
L 88.552383 107.871146 
L 88.667585 107.230084 
L 91.762326 107.230084 
L 91.877527 109.794335 
L 114.923135 109.794335 
L 115.038337 112.358586 
L 146.462262 112.358586 
L 146.577464 111.717523 
L 153.322009 111.717523 
L 153.437211 110.862773 
L 159.333452 110.862773 
L 159.448654 109.580647 
L 184.908264 109.580647 
L 185.023466 109.153272 
L 198.612049 109.153272 
L 198.727251 111.717523 
L 398.487273 111.717523 
L 398.487273 111.717523 
" clip-path="url(#pe9a979f6c6)" style="fill: none; stroke: #e377c2; stroke-width: 1.5; stroke-linecap: square"/>
   </g>
   <g id="line2d_19">
    <path d="M 73.832727 66.714916 
L 73.864146 61.800101 
L 73.921747 67.355978 
L 73.937456 72.484481 
L 74.031712 68.980004 
L 74.036949 68.980004 
L 74.047422 66.843128 
L 74.105023 71.97163 
L 74.125968 71.97163 
L 74.162624 71.97163 
L 74.178333 74.535882 
L 74.246407 69.407379 
L 74.267352 69.407379 
L 74.340663 69.407379 
L 74.455865 73.253756 
L 74.576303 73.253756 
L 74.691505 71.97163 
L 75.115657 71.97163 
L 75.230859 71.11688 
L 76.204838 71.11688 
L 76.325277 76.245382 
L 77.299256 76.245382 
L 77.414458 74.963257 
L 77.493004 74.963257 
L 77.550605 77.527508 
L 77.60297 76.672758 
L 77.744354 76.672758 
L 77.859556 75.818007 
L 79.786569 75.818007 
L 79.901771 78.382258 
L 80.299741 78.382258 
L 80.414943 77.527508 
L 80.755312 77.527508 
L 80.870514 76.245382 
L 87.09665 76.245382 
L 87.211852 75.390632 
L 91.762326 75.390632 
L 91.877527 74.108506 
L 110.33077 74.108506 
L 110.445972 76.672758 
L 112.383458 76.672758 
L 112.49866 79.237009 
L 114.923135 79.237009 
L 115.038337 77.954883 
L 184.908264 77.954883 
L 185.023466 80.519134 
L 198.612049 80.519134 
L 198.727251 79.237009 
L 341.598501 79.237009 
L 341.713702 81.80126 
L 398.487273 81.80126 
L 398.487273 81.80126 
" clip-path="url(#pe9a979f6c6)" style="fill: none; stroke: #7f7f7f; stroke-width: 1.5; stroke-linecap: square"/>
   </g>
   <g id="line2d_20">
    <path d="M 73.832727 64.150664 
L 73.963638 74.322194 
L 74.026476 72.954593 
L 74.031712 75.518845 
L 74.036949 75.518845 
L 74.052658 80.647347 
L 74.157387 80.433659 
L 74.178333 80.433659 
L 74.25688 84.280036 
L 74.293535 83.425286 
L 74.340663 83.425286 
L 74.351136 82.570535 
L 74.356372 85.134786 
L 74.445392 84.280036 
L 74.576303 84.280036 
L 74.691505 86.844287 
L 74.770051 86.844287 
L 74.89049 85.562161 
L 75.115657 85.562161 
L 75.230859 88.126413 
L 75.429844 88.126413 
L 75.545046 87.48535 
L 75.607883 87.48535 
L 75.723085 86.844287 
L 76.204838 86.844287 
L 76.325277 85.348474 
L 76.351459 85.348474 
L 76.466661 87.912725 
L 77.299256 87.912725 
L 77.414458 90.476976 
L 77.550605 90.476976 
L 77.613443 93.041227 
L 77.660571 91.759102 
L 77.723408 91.759102 
L 77.744354 90.904351 
L 77.74959 93.468602 
L 77.822901 93.468602 
L 77.938103 93.468602 
L 78.053304 92.186477 
L 80.299741 92.186477 
L 80.414943 94.750728 
L 80.498726 94.750728 
L 80.613928 94.109665 
L 80.755312 94.109665 
L 80.870514 96.673916 
L 81.462232 96.673916 
L 81.58267 95.178103 
L 81.635035 95.178103 
L 81.750237 93.895978 
L 85.274366 93.895978 
L 85.389568 92.613852 
L 87.09665 92.613852 
L 87.211852 95.178103 
L 88.552383 95.178103 
L 88.667585 94.53704 
L 91.762326 94.53704 
L 91.877527 97.101292 
L 112.278729 97.101292 
L 112.393931 95.605478 
L 112.509133 95.605478 
L 112.624335 98.16973 
L 114.923135 98.16973 
L 115.038337 100.733981 
L 124.48489 100.733981 
L 124.600092 99.451855 
L 128.585029 99.451855 
L 128.70023 102.016106 
L 146.462262 102.016106 
L 146.577464 101.375043 
L 153.322009 101.375043 
L 153.437211 100.520293 
L 159.333452 100.520293 
L 159.448654 99.238168 
L 173.026764 99.238168 
L 173.141965 101.802419 
L 184.908264 101.802419 
L 185.023466 101.375043 
L 198.612049 101.375043 
L 198.727251 100.092918 
L 398.487273 100.092918 
L 398.487273 100.092918 
" clip-path="url(#pe9a979f6c6)" style="fill: none; stroke: #bcbd22; stroke-width: 1.5; stroke-linecap: square"/>
   </g>
   <g id="line2d_21">
    <path d="M 73.832727 66.714916 
L 73.963638 88.639263 
L 73.984584 86.844287 
L 73.989821 86.844287 
L 74.026476 85.989537 
L 74.047422 93.68229 
L 74.173096 101.161356 
L 74.178333 101.161356 
L 74.25688 105.007733 
L 74.293535 104.152982 
L 74.340663 104.152982 
L 74.372081 109.281485 
L 74.455865 107.571984 
L 74.576303 107.571984 
L 74.691505 110.136235 
L 74.770051 110.136235 
L 74.89049 108.854109 
L 75.115657 108.854109 
L 75.230859 111.41836 
L 75.429844 111.41836 
L 75.545046 110.777298 
L 75.607883 110.777298 
L 75.723085 110.136235 
L 76.204838 110.136235 
L 76.241493 109.495172 
L 76.24673 112.059423 
L 76.299094 112.059423 
L 76.351459 112.059423 
L 76.466661 114.623674 
L 77.299256 114.623674 
L 77.414458 117.187926 
L 77.493004 117.187926 
L 77.618679 124.880679 
L 77.723408 124.880679 
L 77.744354 124.025929 
L 77.74959 126.59018 
L 77.822901 126.59018 
L 77.938103 126.59018 
L 78.053304 129.154431 
L 79.786569 129.154431 
L 79.901771 128.513368 
L 80.299741 128.513368 
L 80.414943 131.077619 
L 80.498726 131.077619 
L 80.613928 130.436556 
L 80.755312 130.436556 
L 80.870514 133.000808 
L 81.462232 133.000808 
L 81.58267 131.504994 
L 81.635035 131.504994 
L 81.750237 134.069246 
L 85.274366 134.069246 
L 85.389568 136.633497 
L 87.09665 136.633497 
L 87.211852 139.197748 
L 88.552383 139.197748 
L 88.667585 138.556685 
L 91.762326 138.556685 
L 91.877527 141.120936 
L 110.33077 141.120936 
L 110.445972 143.685187 
L 112.278729 143.685187 
L 112.393931 142.189374 
L 112.509133 142.189374 
L 112.624335 144.753625 
L 114.923135 144.753625 
L 115.038337 147.317876 
L 124.48489 147.317876 
L 124.600092 146.035751 
L 128.585029 146.035751 
L 128.70023 148.600002 
L 146.462262 148.600002 
L 146.577464 147.958939 
L 153.322009 147.958939 
L 153.437211 147.104189 
L 159.333452 147.104189 
L 159.448654 149.66844 
L 173.026764 149.66844 
L 173.141965 152.232691 
L 184.908264 152.232691 
L 185.023466 151.805316 
L 198.612049 151.805316 
L 198.727251 154.369567 
L 341.598501 154.369567 
L 341.713702 156.933818 
L 398.487273 156.933818 
L 398.487273 156.933818 
" clip-path="url(#pe9a979f6c6)" style="fill: none; stroke: #17becf; stroke-width: 1.5; stroke-linecap: square"/>
   </g>
   <g id="line2d_22">
    <path d="M 73.832727 63.295914 
L 73.848437 63.295914 
L 73.995057 58.723 
L 74.047422 58.723 
L 74.16786 55.731373 
L 74.340663 55.731373 
L 74.461101 54.021872 
L 76.204838 54.021872 
L 76.325277 52.526059 
L 77.493004 52.526059 
L 77.608206 51.243934 
L 79.786569 51.243934 
L 79.901771 50.602871 
L 110.33077 50.602871 
L 110.445972 49.320745 
L 112.383458 49.320745 
L 112.49866 48.679683 
L 184.908264 48.679683 
L 185.023466 48.252307 
L 341.598501 48.252307 
L 341.713702 46.970182 
L 398.487273 46.970182 
L 398.487273 46.970182 
" clip-path="url(#pe9a979f6c6)" style="fill: none; stroke: #1f77b4; stroke-width: 1.5; stroke-linecap: square"/>
   </g>
   <g id="line2d_23">
    <path d="M 73.832727 66.714916 
L 73.926983 80.177234 
L 73.963638 78.895109 
L 73.968875 78.895109 
L 74.099786 90.434239 
L 74.131205 89.579488 
L 74.152151 94.707991 
L 74.183569 92.571115 
L 74.304008 97.699617 
L 74.372081 97.699617 
L 74.419209 96.844866 
L 74.424446 99.409118 
L 74.471574 99.409118 
L 74.576303 99.409118 
L 74.691505 101.973369 
L 74.770051 101.973369 
L 74.89049 107.101871 
L 75.115657 107.101871 
L 75.230859 106.247121 
L 75.429844 106.247121 
L 75.545046 108.811372 
L 75.607883 108.811372 
L 75.723085 111.375623 
L 76.204838 111.375623 
L 76.32004 110.73456 
L 77.299256 110.73456 
L 77.414458 113.298811 
L 77.493004 113.298811 
L 77.608206 112.016686 
L 77.723408 112.016686 
L 77.83861 114.580937 
L 79.786569 114.580937 
L 79.901771 113.939874 
L 80.299741 113.939874 
L 80.414943 113.085124 
L 80.498726 113.085124 
L 80.613928 115.649375 
L 81.462232 115.649375 
L 81.58267 120.777877 
L 87.09665 120.777877 
L 87.211852 119.923127 
L 88.552383 119.923127 
L 88.667585 122.487378 
L 91.762326 122.487378 
L 91.877527 121.205252 
L 110.33077 121.205252 
L 110.445972 119.923127 
L 112.278729 119.923127 
L 112.383458 122.487378 
L 112.388695 121.846315 
L 114.923135 121.846315 
L 115.038337 124.410566 
L 124.48489 124.410566 
L 124.600092 126.974817 
L 146.462262 126.974817 
L 146.577464 129.539069 
L 153.322009 129.539069 
L 153.437211 132.10332 
L 341.598501 132.10332 
L 341.713702 130.821194 
L 398.487273 130.821194 
L 398.487273 130.821194 
" clip-path="url(#pe9a979f6c6)" style="fill: none; stroke: #ff7f0e; stroke-width: 1.5; stroke-linecap: square"/>
   </g>
   <g id="patch_3">
    <path d="M 57.6 162.432 
L 57.6 41.472 
" style="fill: none; stroke: #000000; stroke-width: 0.8; stroke-linejoin: miter; stroke-linecap: square"/>
   </g>
   <g id="patch_4">
    <path d="M 414.72 162.432 
L 414.72 41.472 
" style="fill: none; stroke: #000000; stroke-width: 0.8; stroke-linejoin: miter; stroke-linecap: square"/>
   </g>
   <g id="patch_5">
    <path d="M 57.6 162.432 
L 414.72 162.432 
" style="fill: none; stroke: #000000; stroke-width: 0.8; stroke-linejoin: miter; stroke-linecap: square"/>
   </g>
   <g id="patch_6">
    <path d="M 57.6 41.472 
L 414.72 41.472 
" style="fill: none; stroke: #000000; stroke-width: 0.8; stroke-linejoin: miter; stroke-linecap: square"/>
   </g>
   <g id="text_12">
    <!-- WSP -->
    <g transform="translate(361.832136 135.949696)scale(0.08 -0.08)">
     <defs>
      <path id="DejaVuSans-57" d="M 213 4666 
L 850 4666 
L 1831 722 
L 2809 4666 
L 3519 4666 
L 4500 722 
L 5478 4666 
L 6119 4666 
L 4947 0 
L 4153 0 
L 3169 4050 
L 2175 0 
L 1381 0 
L 213 4666 
z
" transform="scale(0.015625)"/>
      <path id="DejaVuSans-53" d="M 3425 4513 
L 3425 3897 
Q 3066 4069 2747 4153 
Q 2428 4238 2131 4238 
Q 1616 4238 1336 4038 
Q 1056 3838 1056 3469 
Q 1056 3159 1242 3001 
Q 1428 2844 1947 2747 
L 2328 2669 
Q 3034 2534 3370 2195 
Q 3706 1856 3706 1288 
Q 3706 609 3251 259 
Q 2797 -91 1919 -91 
Q 1588 -91 1214 -16 
Q 841 59 441 206 
L 441 856 
Q 825 641 1194 531 
Q 1563 422 1919 422 
Q 2459 422 2753 634 
Q 3047 847 3047 1241 
Q 3047 1584 2836 1778 
Q 2625 1972 2144 2069 
L 1759 2144 
Q 1053 2284 737 2584 
Q 422 2884 422 3419 
Q 422 4038 858 4394 
Q 1294 4750 2059 4750 
Q 2388 4750 2728 4690 
Q 3069 4631 3425 4513 
z
" transform="scale(0.015625)"/>
      <path id="DejaVuSans-50" d="M 1259 4147 
L 1259 2394 
L 2053 2394 
Q 2494 2394 2734 2622 
Q 2975 2850 2975 3272 
Q 2975 3691 2734 3919 
Q 2494 4147 2053 4147 
L 1259 4147 
z
M 628 4666 
L 2053 4666 
Q 2838 4666 3239 4311 
Q 3641 3956 3641 3272 
Q 3641 2581 3239 2228 
Q 2838 1875 2053 1875 
L 1259 1875 
L 1259 0 
L 628 0 
L 628 4666 
z
" transform="scale(0.015625)"/>
     </defs>
     <use xlink:href="#DejaVuSans-57"/>
     <use xlink:href="#DejaVuSans-53" x="98.876953"/>
     <use xlink:href="#DejaVuSans-50" x="162.353516"/>
    </g>
   </g>
   <g id="text_13">
    <!-- Iambic -->
    <g transform="translate(361.832136 71.843418)scale(0.08 -0.08)">
     <defs>
      <path id="DejaVuSans-49" d="M 628 4666 
L 1259 4666 
L 1259 0 
L 628 0 
L 628 4666 
z
" transform="scale(0.015625)"/>
      <path id="DejaVuSans-61" d="M 2194 1759 
Q 1497 1759 1228 1600 
Q 959 1441 959 1056 
Q 959 750 1161 570 
Q 1363 391 1709 391 
Q 2188 391 2477 730 
Q 2766 1069 2766 1631 
L 2766 1759 
L 2194 1759 
z
M 3341 1997 
L 3341 0 
L 2766 0 
L 2766 531 
Q 2569 213 2275 61 
Q 1981 -91 1556 -91 
Q 1019 -91 701 211 
Q 384 513 384 1019 
Q 384 1609 779 1909 
Q 1175 2209 1959 2209 
L 2766 2209 
L 2766 2266 
Q 2766 2663 2505 2880 
Q 2244 3097 1772 3097 
Q 1472 3097 1187 3025 
Q 903 2953 641 2809 
L 641 3341 
Q 956 3463 1253 3523 
Q 1550 3584 1831 3584 
Q 2591 3584 2966 3190 
Q 3341 2797 3341 1997 
z
" transform="scale(0.015625)"/>
      <path id="DejaVuSans-6d" d="M 3328 2828 
Q 3544 3216 3844 3400 
Q 4144 3584 4550 3584 
Q 5097 3584 5394 3201 
Q 5691 2819 5691 2113 
L 5691 0 
L 5113 0 
L 5113 2094 
Q 5113 2597 4934 2840 
Q 4756 3084 4391 3084 
Q 3944 3084 3684 2787 
Q 3425 2491 3425 1978 
L 3425 0 
L 2847 0 
L 2847 2094 
Q 2847 2600 2669 2842 
Q 2491 3084 2119 3084 
Q 1678 3084 1418 2786 
Q 1159 2488 1159 1978 
L 1159 0 
L 581 0 
L 581 3500 
L 1159 3500 
L 1159 2956 
Q 1356 3278 1631 3431 
Q 1906 3584 2284 3584 
Q 2666 3584 2933 3390 
Q 3200 3197 3328 2828 
z
" transform="scale(0.015625)"/>
      <path id="DejaVuSans-62" d="M 3116 1747 
Q 3116 2381 2855 2742 
Q 2594 3103 2138 3103 
Q 1681 3103 1420 2742 
Q 1159 2381 1159 1747 
Q 1159 1113 1420 752 
Q 1681 391 2138 391 
Q 2594 391 2855 752 
Q 3116 1113 3116 1747 
z
M 1159 2969 
Q 1341 3281 1617 3432 
Q 1894 3584 2278 3584 
Q 2916 3584 3314 3078 
Q 3713 2572 3713 1747 
Q 3713 922 3314 415 
Q 2916 -91 2278 -91 
Q 1894 -91 1617 61 
Q 1341 213 1159 525 
L 1159 0 
L 581 0 
L 581 4863 
L 1159 4863 
L 1159 2969 
z
" transform="scale(0.015625)"/>
      <path id="DejaVuSans-69" d="M 603 3500 
L 1178 3500 
L 1178 0 
L 603 0 
L 603 3500 
z
M 603 4863 
L 1178 4863 
L 1178 4134 
L 603 4134 
L 603 4863 
z
" transform="scale(0.015625)"/>
      <path id="DejaVuSans-63" d="M 3122 3366 
L 3122 2828 
Q 2878 2963 2633 3030 
Q 2388 3097 2138 3097 
Q 1578 3097 1268 2742 
Q 959 2388 959 1747 
Q 959 1106 1268 751 
Q 1578 397 2138 397 
Q 2388 397 2633 464 
Q 2878 531 3122 666 
L 3122 134 
Q 2881 22 2623 -34 
Q 2366 -91 2075 -91 
Q 1284 -91 818 406 
Q 353 903 353 1747 
Q 353 2603 823 3093 
Q 1294 3584 2113 3584 
Q 2378 3584 2631 3529 
Q 2884 3475 3122 3366 
z
" transform="scale(0.015625)"/>
     </defs>
     <use xlink:href="#DejaVuSans-49"/>
     <use xlink:href="#DejaVuSans-61" x="29.492188"/>
     <use xlink:href="#DejaVuSans-6d" x="90.771484"/>
     <use xlink:href="#DejaVuSans-62" x="188.183594"/>
     <use xlink:href="#DejaVuSans-69" x="251.660156"/>
     <use xlink:href="#DejaVuSans-63" x="279.443359"/>
    </g>
   </g>
   <g id="text_14">
    <!-- Parse -->
    <g transform="translate(361.832136 79.023321)scale(0.08 -0.08)">
     <defs>
      <path id="DejaVuSans-72" d="M 2631 2963 
Q 2534 3019 2420 3045 
Q 2306 3072 2169 3072 
Q 1681 3072 1420 2755 
Q 1159 2438 1159 1844 
L 1159 0 
L 581 0 
L 581 3500 
L 1159 3500 
L 1159 2956 
Q 1341 3275 1631 3429 
Q 1922 3584 2338 3584 
Q 2397 3584 2469 3576 
Q 2541 3569 2628 3553 
L 2631 2963 
z
" transform="scale(0.015625)"/>
      <path id="DejaVuSans-73" d="M 2834 3397 
L 2834 2853 
Q 2591 2978 2328 3040 
Q 2066 3103 1784 3103 
Q 1356 3103 1142 2972 
Q 928 2841 928 2578 
Q 928 2378 1081 2264 
Q 1234 2150 1697 2047 
L 1894 2003 
Q 2506 1872 2764 1633 
Q 3022 1394 3022 966 
Q 3022 478 2636 193 
Q 2250 -91 1575 -91 
Q 1294 -91 989 -36 
Q 684 19 347 128 
L 347 722 
Q 666 556 975 473 
Q 1284 391 1588 391 
Q 1994 391 2212 530 
Q 2431 669 2431 922 
Q 2431 1156 2273 1281 
Q 2116 1406 1581 1522 
L 1381 1569 
Q 847 1681 609 1914 
Q 372 2147 372 2553 
Q 372 3047 722 3315 
Q 1072 3584 1716 3584 
Q 2034 3584 2315 3537 
Q 2597 3491 2834 3397 
z
" transform="scale(0.015625)"/>
      <path id="DejaVuSans-65" d="M 3597 1894 
L 3597 1613 
L 953 1613 
Q 991 1019 1311 708 
Q 1631 397 2203 397 
Q 2534 397 2845 478 
Q 3156 559 3463 722 
L 3463 178 
Q 3153 47 2828 -22 
Q 2503 -91 2169 -91 
Q 1331 -91 842 396 
Q 353 884 353 1716 
Q 353 2575 817 3079 
Q 1281 3584 2069 3584 
Q 2775 3584 3186 3129 
Q 3597 2675 3597 1894 
z
M 3022 2063 
Q 3016 2534 2758 2815 
Q 2500 3097 2075 3097 
Q 1594 3097 1305 2825 
Q 1016 2553 972 2059 
L 3022 2063 
z
" transform="scale(0.015625)"/>
     </defs>
     <use xlink:href="#DejaVuSans-50"/>
     <use xlink:href="#DejaVuSans-61" x="55.802734"/>
     <use xlink:href="#DejaVuSans-72" x="117.082031"/>
     <use xlink:href="#DejaVuSans-73" x="158.195312"/>
     <use xlink:href="#DejaVuSans-65" x="210.294922"/>
    </g>
   </g>
   <g id="text_15">
    <!-- FootBin -->
    <g transform="translate(361.832136 129.368118)scale(0.08 -0.08)">
     <defs>
      <path id="DejaVuSans-46" d="M 628 4666 
L 3309 4666 
L 3309 4134 
L 1259 4134 
L 1259 2759 
L 3109 2759 
L 3109 2228 
L 1259 2228 
L 1259 0 
L 628 0 
L 628 4666 
z
" transform="scale(0.015625)"/>
      <path id="DejaVuSans-6f" d="M 1959 3097 
Q 1497 3097 1228 2736 
Q 959 2375 959 1747 
Q 959 1119 1226 758 
Q 1494 397 1959 397 
Q 2419 397 2687 759 
Q 2956 1122 2956 1747 
Q 2956 2369 2687 2733 
Q 2419 3097 1959 3097 
z
M 1959 3584 
Q 2709 3584 3137 3096 
Q 3566 2609 3566 1747 
Q 3566 888 3137 398 
Q 2709 -91 1959 -91 
Q 1206 -91 779 398 
Q 353 888 353 1747 
Q 353 2609 779 3096 
Q 1206 3584 1959 3584 
z
" transform="scale(0.015625)"/>
      <path id="DejaVuSans-74" d="M 1172 4494 
L 1172 3500 
L 2356 3500 
L 2356 3053 
L 1172 3053 
L 1172 1153 
Q 1172 725 1289 603 
Q 1406 481 1766 481 
L 2356 481 
L 2356 0 
L 1766 0 
Q 1100 0 847 248 
Q 594 497 594 1153 
L 594 3053 
L 172 3053 
L 172 3500 
L 594 3500 
L 594 4494 
L 1172 4494 
z
" transform="scale(0.015625)"/>
      <path id="DejaVuSans-42" d="M 1259 2228 
L 1259 519 
L 2272 519 
Q 2781 519 3026 730 
Q 3272 941 3272 1375 
Q 3272 1813 3026 2020 
Q 2781 2228 2272 2228 
L 1259 2228 
z
M 1259 4147 
L 1259 2741 
L 2194 2741 
Q 2656 2741 2882 2914 
Q 3109 3088 3109 3444 
Q 3109 3797 2882 3972 
Q 2656 4147 2194 4147 
L 1259 4147 
z
M 628 4666 
L 2241 4666 
Q 2963 4666 3353 4366 
Q 3744 4066 3744 3513 
Q 3744 3084 3544 2831 
Q 3344 2578 2956 2516 
Q 3422 2416 3680 2098 
Q 3938 1781 3938 1306 
Q 3938 681 3513 340 
Q 3088 0 2303 0 
L 628 0 
L 628 4666 
z
" transform="scale(0.015625)"/>
      <path id="DejaVuSans-6e" d="M 3513 2113 
L 3513 0 
L 2938 0 
L 2938 2094 
Q 2938 2591 2744 2837 
Q 2550 3084 2163 3084 
Q 1697 3084 1428 2787 
Q 1159 2491 1159 1978 
L 1159 0 
L 581 0 
L 581 3500 
L 1159 3500 
L 1159 2956 
Q 1366 3272 1645 3428 
Q 1925 3584 2291 3584 
Q 2894 3584 3203 3211 
Q 3513 2838 3513 2113 
z
" transform="scale(0.015625)"/>
     </defs>
     <use xlink:href="#DejaVuSans-46"/>
     <use xlink:href="#DejaVuSans-6f" x="53.894531"/>
     <use xlink:href="#DejaVuSans-6f" x="115.076172"/>
     <use xlink:href="#DejaVuSans-74" x="176.257812"/>
     <use xlink:href="#DejaVuSans-42" x="215.466797"/>
     <use xlink:href="#DejaVuSans-69" x="284.070312"/>
     <use xlink:href="#DejaVuSans-6e" x="311.853516"/>
    </g>
   </g>
   <g id="text_16">
    <!-- WFL -->
    <g transform="translate(361.832136 81.673047)scale(0.08 -0.08)">
     <defs>
      <path id="DejaVuSans-4c" d="M 628 4666 
L 1259 4666 
L 1259 531 
L 3531 531 
L 3531 0 
L 628 0 
L 628 4666 
z
" transform="scale(0.015625)"/>
     </defs>
     <use xlink:href="#DejaVuSans-57"/>
     <use xlink:href="#DejaVuSans-46" x="98.876953"/>
     <use xlink:href="#DejaVuSans-4c" x="156.396484"/>
    </g>
   </g>
   <g id="text_17">
    <!-- WFR -->
    <g transform="translate(361.832136 117.999938)scale(0.08 -0.08)">
     <defs>
      <path id="DejaVuSans-52" d="M 2841 2188 
Q 3044 2119 3236 1894 
Q 3428 1669 3622 1275 
L 4263 0 
L 3584 0 
L 2988 1197 
Q 2756 1666 2539 1819 
Q 2322 1972 1947 1972 
L 1259 1972 
L 1259 0 
L 628 0 
L 628 4666 
L 2053 4666 
Q 2853 4666 3247 4331 
Q 3641 3997 3641 3322 
Q 3641 2881 3436 2590 
Q 3231 2300 2841 2188 
z
M 1259 4147 
L 1259 2491 
L 2053 2491 
Q 2509 2491 2742 2702 
Q 2975 2913 2975 3322 
Q 2975 3731 2742 3939 
Q 2509 4147 2053 4147 
L 1259 4147 
z
" transform="scale(0.015625)"/>
     </defs>
     <use xlink:href="#DejaVuSans-57"/>
     <use xlink:href="#DejaVuSans-46" x="98.876953"/>
     <use xlink:href="#DejaVuSans-52" x="156.396484"/>
    </g>
   </g>
   <g id="text_18">
    <!-- Main-L -->
    <g transform="translate(361.832136 111.717523)scale(0.08 -0.08)">
     <defs>
      <path id="DejaVuSans-4d" d="M 628 4666 
L 1569 4666 
L 2759 1491 
L 3956 4666 
L 4897 4666 
L 4897 0 
L 4281 0 
L 4281 4097 
L 3078 897 
L 2444 897 
L 1241 4097 
L 1241 0 
L 628 0 
L 628 4666 
z
" transform="scale(0.015625)"/>
      <path id="DejaVuSans-2d" d="M 313 2009 
L 1997 2009 
L 1997 1497 
L 313 1497 
L 313 2009 
z
" transform="scale(0.015625)"/>
     </defs>
     <use xlink:href="#DejaVuSans-4d"/>
     <use xlink:href="#DejaVuSans-61" x="86.279297"/>
     <use xlink:href="#DejaVuSans-69" x="147.558594"/>
     <use xlink:href="#DejaVuSans-6e" x="175.341797"/>
     <use xlink:href="#DejaVuSans-2d" x="238.720703"/>
     <use xlink:href="#DejaVuSans-4c" x="274.804688"/>
    </g>
   </g>
   <g id="text_19">
    <!-- Main-R -->
    <g transform="translate(361.832136 81.80126)scale(0.08 -0.08)">
     <use xlink:href="#DejaVuSans-4d"/>
     <use xlink:href="#DejaVuSans-61" x="86.279297"/>
     <use xlink:href="#DejaVuSans-69" x="147.558594"/>
     <use xlink:href="#DejaVuSans-6e" x="175.341797"/>
     <use xlink:href="#DejaVuSans-2d" x="238.720703"/>
     <use xlink:href="#DejaVuSans-52" x="274.804688"/>
    </g>
   </g>
   <g id="text_20">
    <!-- AFL -->
    <g transform="translate(361.832136 100.092918)scale(0.08 -0.08)">
     <defs>
      <path id="DejaVuSans-41" d="M 2188 4044 
L 1331 1722 
L 3047 1722 
L 2188 4044 
z
M 1831 4666 
L 2547 4666 
L 4325 0 
L 3669 0 
L 3244 1197 
L 1141 1197 
L 716 0 
L 50 0 
L 1831 4666 
z
" transform="scale(0.015625)"/>
     </defs>
     <use xlink:href="#DejaVuSans-41"/>
     <use xlink:href="#DejaVuSans-46" x="68.408203"/>
     <use xlink:href="#DejaVuSans-4c" x="125.927734"/>
    </g>
   </g>
   <g id="text_21">
    <!-- AFR -->
    <g transform="translate(361.832136 156.933818)scale(0.08 -0.08)">
     <use xlink:href="#DejaVuSans-41"/>
     <use xlink:href="#DejaVuSans-46" x="68.408203"/>
     <use xlink:href="#DejaVuSans-52" x="125.927734"/>
    </g>
   </g>
   <g id="text_22">
    <!-- Nonfinal -->
    <g transform="translate(361.832136 46.970182)scale(0.08 -0.08)">
     <defs>
      <path id="DejaVuSans-4e" d="M 628 4666 
L 1478 4666 
L 3547 763 
L 3547 4666 
L 4159 4666 
L 4159 0 
L 3309 0 
L 1241 3903 
L 1241 0 
L 628 0 
L 628 4666 
z
" transform="scale(0.015625)"/>
      <path id="DejaVuSans-66" d="M 2375 4863 
L 2375 4384 
L 1825 4384 
Q 1516 4384 1395 4259 
Q 1275 4134 1275 3809 
L 1275 3500 
L 2222 3500 
L 2222 3053 
L 1275 3053 
L 1275 0 
L 697 0 
L 697 3053 
L 147 3053 
L 147 3500 
L 697 3500 
L 697 3744 
Q 697 4328 969 4595 
Q 1241 4863 1831 4863 
L 2375 4863 
z
" transform="scale(0.015625)"/>
      <path id="DejaVuSans-6c" d="M 603 4863 
L 1178 4863 
L 1178 0 
L 603 0 
L 603 4863 
z
" transform="scale(0.015625)"/>
     </defs>
     <use xlink:href="#DejaVuSans-4e"/>
     <use xlink:href="#DejaVuSans-6f" x="74.804688"/>
     <use xlink:href="#DejaVuSans-6e" x="135.986328"/>
     <use xlink:href="#DejaVuSans-66" x="199.365234"/>
     <use xlink:href="#DejaVuSans-69" x="234.570312"/>
     <use xlink:href="#DejaVuSans-6e" x="262.353516"/>
     <use xlink:href="#DejaVuSans-61" x="325.732422"/>
     <use xlink:href="#DejaVuSans-6c" x="387.011719"/>
    </g>
   </g>
   <g id="text_23">
    <!-- Trochaic -->
    <g transform="translate(361.832136 130.821194)scale(0.08 -0.08)">
     <defs>
      <path id="DejaVuSans-54" d="M -19 4666 
L 3928 4666 
L 3928 4134 
L 2272 4134 
L 2272 0 
L 1638 0 
L 1638 4134 
L -19 4134 
L -19 4666 
z
" transform="scale(0.015625)"/>
      <path id="DejaVuSans-68" d="M 3513 2113 
L 3513 0 
L 2938 0 
L 2938 2094 
Q 2938 2591 2744 2837 
Q 2550 3084 2163 3084 
Q 1697 3084 1428 2787 
Q 1159 2491 1159 1978 
L 1159 0 
L 581 0 
L 581 4863 
L 1159 4863 
L 1159 2956 
Q 1366 3272 1645 3428 
Q 1925 3584 2291 3584 
Q 2894 3584 3203 3211 
Q 3513 2838 3513 2113 
z
" transform="scale(0.015625)"/>
     </defs>
     <use xlink:href="#DejaVuSans-54"/>
     <use xlink:href="#DejaVuSans-72" x="46.333984"/>
     <use xlink:href="#DejaVuSans-6f" x="85.197266"/>
     <use xlink:href="#DejaVuSans-63" x="146.378906"/>
     <use xlink:href="#DejaVuSans-68" x="201.359375"/>
     <use xlink:href="#DejaVuSans-61" x="264.738281"/>
     <use xlink:href="#DejaVuSans-69" x="326.017578"/>
     <use xlink:href="#DejaVuSans-63" x="353.800781"/>
    </g>
   </g>
  </g>
  <g id="axes_2">
   <g id="patch_7">
    <path d="M 57.6 307.584 
L 414.72 307.584 
L 414.72 186.624 
L 57.6 186.624 
z
" style="fill: #ffffff"/>
   </g>
   <g id="matplotlib.axis_3">
    <g id="xtick_8">
     <g id="line2d_24">
      <g>
       <use xlink:href="#m7f18ac96ae" x="69.723176" y="307.584" style="stroke: #000000; stroke-width: 0.8"/>
      </g>
     </g>
     <g id="text_24">
      <!-- 0 -->
      <g transform="translate(66.541926 322.182437)scale(0.1 -0.1)">
       <use xlink:href="#DejaVuSans-30"/>
      </g>
     </g>
    </g>
    <g id="xtick_9">
     <g id="line2d_25">
      <g>
       <use xlink:href="#m7f18ac96ae" x="110.818688" y="307.584" style="stroke: #000000; stroke-width: 0.8"/>
      </g>
     </g>
     <g id="text_25">
      <!-- 10 -->
      <g transform="translate(104.456188 322.182437)scale(0.1 -0.1)">
       <use xlink:href="#DejaVuSans-31"/>
       <use xlink:href="#DejaVuSans-30" x="63.623047"/>
      </g>
     </g>
    </g>
    <g id="xtick_10">
     <g id="line2d_26">
      <g>
       <use xlink:href="#m7f18ac96ae" x="151.9142" y="307.584" style="stroke: #000000; stroke-width: 0.8"/>
      </g>
     </g>
     <g id="text_26">
      <!-- 20 -->
      <g transform="translate(145.5517 322.182437)scale(0.1 -0.1)">
       <use xlink:href="#DejaVuSans-32"/>
       <use xlink:href="#DejaVuSans-30" x="63.623047"/>
      </g>
     </g>
    </g>
    <g id="xtick_11">
     <g id="line2d_27">
      <g>
       <use xlink:href="#m7f18ac96ae" x="193.009712" y="307.584" style="stroke: #000000; stroke-width: 0.8"/>
      </g>
     </g>
     <g id="text_27">
      <!-- 30 -->
      <g transform="translate(186.647212 322.182437)scale(0.1 -0.1)">
       <use xlink:href="#DejaVuSans-33"/>
       <use xlink:href="#DejaVuSans-30" x="63.623047"/>
      </g>
     </g>
    </g>
    <g id="xtick_12">
     <g id="line2d_28">
      <g>
       <use xlink:href="#m7f18ac96ae" x="234.105224" y="307.584" style="stroke: #000000; stroke-width: 0.8"/>
      </g>
     </g>
     <g id="text_28">
      <!-- 40 -->
      <g transform="translate(227.742724 322.182437)scale(0.1 -0.1)">
       <use xlink:href="#DejaVuSans-34"/>
       <use xlink:href="#DejaVuSans-30" x="63.623047"/>
      </g>
     </g>
    </g>
    <g id="xtick_13">
     <g id="line2d_29">
      <g>
       <use xlink:href="#m7f18ac96ae" x="275.200736" y="307.584" style="stroke: #000000; stroke-width: 0.8"/>
      </g>
     </g>
     <g id="text_29">
      <!-- 50 -->
      <g transform="translate(268.838236 322.182437)scale(0.1 -0.1)">
       <use xlink:href="#DejaVuSans-35"/>
       <use xlink:href="#DejaVuSans-30" x="63.623047"/>
      </g>
     </g>
    </g>
    <g id="xtick_14">
     <g id="line2d_30">
      <g>
       <use xlink:href="#m7f18ac96ae" x="316.296249" y="307.584" style="stroke: #000000; stroke-width: 0.8"/>
      </g>
     </g>
     <g id="text_30">
      <!-- 60 -->
      <g transform="translate(309.933749 322.182437)scale(0.1 -0.1)">
       <use xlink:href="#DejaVuSans-36"/>
       <use xlink:href="#DejaVuSans-30" x="63.623047"/>
      </g>
     </g>
    </g>
    <g id="xtick_15">
     <g id="line2d_31">
      <g>
       <use xlink:href="#m7f18ac96ae" x="357.391761" y="307.584" style="stroke: #000000; stroke-width: 0.8"/>
      </g>
     </g>
     <g id="text_31">
      <!-- 70 -->
      <g transform="translate(351.029261 322.182437)scale(0.1 -0.1)">
       <use xlink:href="#DejaVuSans-37"/>
       <use xlink:href="#DejaVuSans-30" x="63.623047"/>
      </g>
     </g>
    </g>
    <g id="xtick_16">
     <g id="line2d_32">
      <g>
       <use xlink:href="#m7f18ac96ae" x="398.487273" y="307.584" style="stroke: #000000; stroke-width: 0.8"/>
      </g>
     </g>
     <g id="text_32">
      <!-- 80 -->
      <g transform="translate(392.124773 322.182437)scale(0.1 -0.1)">
       <use xlink:href="#DejaVuSans-38"/>
       <use xlink:href="#DejaVuSans-30" x="63.623047"/>
      </g>
     </g>
    </g>
   </g>
   <g id="matplotlib.axis_4">
    <g id="ytick_5">
     <g id="line2d_33">
      <g>
       <use xlink:href="#mdab15b9fec" x="57.6" y="302.089845" style="stroke: #000000; stroke-width: 0.8"/>
      </g>
     </g>
     <g id="text_33">
      <!-- 0 -->
      <g transform="translate(44.2375 305.889064)scale(0.1 -0.1)">
       <use xlink:href="#DejaVuSans-30"/>
      </g>
     </g>
    </g>
    <g id="ytick_6">
     <g id="line2d_34">
      <g>
       <use xlink:href="#mdab15b9fec" x="57.6" y="261.817501" style="stroke: #000000; stroke-width: 0.8"/>
      </g>
     </g>
     <g id="text_34">
      <!-- 10000 -->
      <g transform="translate(18.7875 265.61672)scale(0.1 -0.1)">
       <use xlink:href="#DejaVuSans-31"/>
       <use xlink:href="#DejaVuSans-30" x="63.623047"/>
       <use xlink:href="#DejaVuSans-30" x="127.246094"/>
       <use xlink:href="#DejaVuSans-30" x="190.869141"/>
       <use xlink:href="#DejaVuSans-30" x="254.492188"/>
      </g>
     </g>
    </g>
    <g id="ytick_7">
     <g id="line2d_35">
      <g>
       <use xlink:href="#mdab15b9fec" x="57.6" y="221.545157" style="stroke: #000000; stroke-width: 0.8"/>
      </g>
     </g>
     <g id="text_35">
      <!-- 20000 -->
      <g transform="translate(18.7875 225.344375)scale(0.1 -0.1)">
       <use xlink:href="#DejaVuSans-32"/>
       <use xlink:href="#DejaVuSans-30" x="63.623047"/>
       <use xlink:href="#DejaVuSans-30" x="127.246094"/>
       <use xlink:href="#DejaVuSans-30" x="190.869141"/>
       <use xlink:href="#DejaVuSans-30" x="254.492188"/>
      </g>
     </g>
    </g>
   </g>
   <g id="line2d_36">
    <path d="M 73.832727 302.085818 
L 77.942278 302.085818 
L 82.05183 302.081791 
L 86.161381 302.085818 
L 90.270932 302.085818 
L 94.380483 302.085818 
L 98.490035 302.085818 
L 102.599586 302.085818 
L 106.709137 302.081791 
L 110.818688 302.085818 
L 114.928239 302.073736 
L 119.037791 302.085818 
L 123.147342 302.085818 
L 127.256893 302.085818 
L 131.366444 302.081791 
L 135.475995 302.077764 
L 139.585547 302.081791 
L 143.695098 302.085818 
L 147.804649 302.073736 
L 151.9142 302.061655 
L 156.023751 302.081791 
L 160.133303 302.085818 
L 164.242854 302.085818 
L 168.352405 302.085818 
L 172.461956 302.081791 
L 176.571507 302.073736 
L 180.681059 302.077764 
L 184.79061 302.065682 
L 188.900161 302.077764 
L 193.009712 302.077764 
L 197.119264 302.077764 
L 201.228815 302.085818 
L 205.338366 302.077764 
L 209.447917 302.057628 
L 213.557468 302.077764 
L 217.66702 302.02541 
L 221.776571 302.081791 
L 225.886122 302.073736 
L 229.995673 302.0536 
L 234.105224 301.969028 
L 238.214776 301.940838 
L 242.324327 302.0536 
L 246.433878 301.860293 
L 250.543429 301.848211 
L 254.65298 301.952919 
L 258.762532 301.630741 
L 262.872083 302.061655 
L 266.981634 302.005273 
L 271.091185 301.360916 
L 275.200736 301.940838 
L 279.310288 302.045546 
L 283.419839 302.041519 
L 287.52939 302.005273 
L 291.638941 302.073736 
L 295.748493 301.940838 
L 299.858044 300.668232 
L 303.967595 301.695176 
L 308.077146 301.936811 
L 312.186697 301.892511 
L 316.296249 301.546169 
L 320.4058 302.02541 
L 324.515351 302.021382 
L 328.624902 299.290917 
L 332.734453 300.688368 
L 336.844005 300.970274 
L 340.953556 299.621151 
L 345.063107 287.809272 
L 349.172658 300.591714 
L 353.282209 302.009301 
L 357.391761 301.993192 
L 361.501312 300.23329 
L 365.610863 294.736115 
L 369.720414 298.936521 
L 373.829965 288.340867 
L 377.939517 296.814168 
L 382.049068 297.46658 
L 386.158619 291.558627 
L 390.26817 292.95205 
L 394.377722 291.550573 
L 398.487273 192.122182 
" clip-path="url(#p4de268ccc3)" style="fill: none; stroke: #1f77b4; stroke-width: 1.5; stroke-linecap: square"/>
   </g>
   <g id="patch_8">
    <path d="M 57.6 307.584 
L 57.6 186.624 
" style="fill: none; stroke: #000000; stroke-width: 0.8; stroke-linejoin: miter; stroke-linecap: square"/>
   </g>
   <g id="patch_9">
    <path d="M 414.72 307.584 
L 414.72 186.624 
" style="fill: none; stroke: #000000; stroke-width: 0.8; stroke-linejoin: miter; stroke-linecap: square"/>
   </g>
   <g id="patch_10">
    <path d="M 57.6 307.584 
L 414.72 307.584 
" style="fill: none; stroke: #000000; stroke-width: 0.8; stroke-linejoin: miter; stroke-linecap: square"/>
   </g>
   <g id="patch_11">
    <path d="M 57.6 186.624 
L 414.72 186.624 
" style="fill: none; stroke: #000000; stroke-width: 0.8; stroke-linejoin: miter; stroke-linecap: square"/>
   </g>
  </g>
 </g>
 <defs>
  <clipPath id="pe9a979f6c6">
   <rect x="57.6" y="41.472" width="357.12" height="120.96"/>
  </clipPath>
  <clipPath id="p4de268ccc3">
   <rect x="57.6" y="186.624" width="357.12" height="120.96"/>
  </clipPath>
 </defs>
</svg>
