<?xml version="1.0" encoding="utf-8" standalone="no"?>
<!DOCTYPE svg PUBLIC "-//W3C//DTD SVG 1.1//EN"
  "http://www.w3.org/Graphics/SVG/1.1/DTD/svg11.dtd">
<svg xmlns:xlink="http://www.w3.org/1999/xlink" width="460.8pt" height="345.6pt" viewBox="0 0 460.8 345.6" xmlns="http://www.w3.org/2000/svg" version="1.1">
 <metadata>
  <rdf:RDF xmlns:dc="http://purl.org/dc/elements/1.1/" xmlns:cc="http://creativecommons.org/ns#" xmlns:rdf="http://www.w3.org/1999/02/22-rdf-syntax-ns#">
   <cc:Work>
    <dc:type rdf:resource="http://purl.org/dc/dcmitype/StillImage"/>
    <dc:date>2022-05-14T01:33:46.630583</dc:date>
    <dc:format>image/svg+xml</dc:format>
    <dc:creator>
     <cc:Agent>
      <dc:title>Matplotlib v3.5.1, https://matplotlib.org/</dc:title>
     </cc:Agent>
    </dc:creator>
   </cc:Work>
  </rdf:RDF>
 </metadata>
 <defs>
  <style type="text/css">*{stroke-linejoin: round; stroke-linecap: butt}</style>
 </defs>
 <g id="figure_1">
  <g id="patch_1">
   <path d="M 0 345.6 
L 460.8 345.6 
L 460.8 0 
L 0 0 
z
" style="fill: #ffffff"/>
  </g>
  <g id="axes_1">
   <g id="patch_2">
    <path d="M 57.6 162.432 
L 414.72 162.432 
L 414.72 41.472 
L 57.6 41.472 
z
" style="fill: #ffffff"/>
   </g>
   <g id="matplotlib.axis_1">
    <g id="xtick_1">
     <g id="line2d_1">
      <defs>
       <path id="m69ab096904" d="M 0 0 
L 0 3.5 
" style="stroke: #000000; stroke-width: 0.8"/>
      </defs>
      <g>
       <use xlink:href="#m69ab096904" x="73.827491" y="162.432" style="stroke: #000000; stroke-width: 0.8"/>
      </g>
     </g>
     <g id="text_1">
      <!-- 0 -->
      <g transform="translate(70.646241 177.030437)scale(0.1 -0.1)">
       <defs>
        <path id="DejaVuSans-30" d="M 2034 4250 
Q 1547 4250 1301 3770 
Q 1056 3291 1056 2328 
Q 1056 1369 1301 889 
Q 1547 409 2034 409 
Q 2525 409 2770 889 
Q 3016 1369 3016 2328 
Q 3016 3291 2770 3770 
Q 2525 4250 2034 4250 
z
M 2034 4750 
Q 2819 4750 3233 4129 
Q 3647 3509 3647 2328 
Q 3647 1150 3233 529 
Q 2819 -91 2034 -91 
Q 1250 -91 836 529 
Q 422 1150 422 2328 
Q 422 3509 836 4129 
Q 1250 4750 2034 4750 
z
" transform="scale(0.015625)"/>
       </defs>
       <use xlink:href="#DejaVuSans-30"/>
      </g>
     </g>
    </g>
    <g id="xtick_2">
     <g id="line2d_2">
      <g>
       <use xlink:href="#m69ab096904" x="126.191972" y="162.432" style="stroke: #000000; stroke-width: 0.8"/>
      </g>
     </g>
     <g id="text_2">
      <!-- 10000 -->
      <g transform="translate(110.285722 177.030437)scale(0.1 -0.1)">
       <defs>
        <path id="DejaVuSans-31" d="M 794 531 
L 1825 531 
L 1825 4091 
L 703 3866 
L 703 4441 
L 1819 4666 
L 2450 4666 
L 2450 531 
L 3481 531 
L 3481 0 
L 794 0 
L 794 531 
z
" transform="scale(0.015625)"/>
       </defs>
       <use xlink:href="#DejaVuSans-31"/>
       <use xlink:href="#DejaVuSans-30" x="63.623047"/>
       <use xlink:href="#DejaVuSans-30" x="127.246094"/>
       <use xlink:href="#DejaVuSans-30" x="190.869141"/>
       <use xlink:href="#DejaVuSans-30" x="254.492188"/>
      </g>
     </g>
    </g>
    <g id="xtick_3">
     <g id="line2d_3">
      <g>
       <use xlink:href="#m69ab096904" x="178.556453" y="162.432" style="stroke: #000000; stroke-width: 0.8"/>
      </g>
     </g>
     <g id="text_3">
      <!-- 20000 -->
      <g transform="translate(162.650203 177.030437)scale(0.1 -0.1)">
       <defs>
        <path id="DejaVuSans-32" d="M 1228 531 
L 3431 531 
L 3431 0 
L 469 0 
L 469 531 
Q 828 903 1448 1529 
Q 2069 2156 2228 2338 
Q 2531 2678 2651 2914 
Q 2772 3150 2772 3378 
Q 2772 3750 2511 3984 
Q 2250 4219 1831 4219 
Q 1534 4219 1204 4116 
Q 875 4013 500 3803 
L 500 4441 
Q 881 4594 1212 4672 
Q 1544 4750 1819 4750 
Q 2544 4750 2975 4387 
Q 3406 4025 3406 3419 
Q 3406 3131 3298 2873 
Q 3191 2616 2906 2266 
Q 2828 2175 2409 1742 
Q 1991 1309 1228 531 
z
" transform="scale(0.015625)"/>
       </defs>
       <use xlink:href="#DejaVuSans-32"/>
       <use xlink:href="#DejaVuSans-30" x="63.623047"/>
       <use xlink:href="#DejaVuSans-30" x="127.246094"/>
       <use xlink:href="#DejaVuSans-30" x="190.869141"/>
       <use xlink:href="#DejaVuSans-30" x="254.492188"/>
      </g>
     </g>
    </g>
    <g id="xtick_4">
     <g id="line2d_4">
      <g>
       <use xlink:href="#m69ab096904" x="230.920934" y="162.432" style="stroke: #000000; stroke-width: 0.8"/>
      </g>
     </g>
     <g id="text_4">
      <!-- 30000 -->
      <g transform="translate(215.014684 177.030437)scale(0.1 -0.1)">
       <defs>
        <path id="DejaVuSans-33" d="M 2597 2516 
Q 3050 2419 3304 2112 
Q 3559 1806 3559 1356 
Q 3559 666 3084 287 
Q 2609 -91 1734 -91 
Q 1441 -91 1130 -33 
Q 819 25 488 141 
L 488 750 
Q 750 597 1062 519 
Q 1375 441 1716 441 
Q 2309 441 2620 675 
Q 2931 909 2931 1356 
Q 2931 1769 2642 2001 
Q 2353 2234 1838 2234 
L 1294 2234 
L 1294 2753 
L 1863 2753 
Q 2328 2753 2575 2939 
Q 2822 3125 2822 3475 
Q 2822 3834 2567 4026 
Q 2313 4219 1838 4219 
Q 1578 4219 1281 4162 
Q 984 4106 628 3988 
L 628 4550 
Q 988 4650 1302 4700 
Q 1616 4750 1894 4750 
Q 2613 4750 3031 4423 
Q 3450 4097 3450 3541 
Q 3450 3153 3228 2886 
Q 3006 2619 2597 2516 
z
" transform="scale(0.015625)"/>
       </defs>
       <use xlink:href="#DejaVuSans-33"/>
       <use xlink:href="#DejaVuSans-30" x="63.623047"/>
       <use xlink:href="#DejaVuSans-30" x="127.246094"/>
       <use xlink:href="#DejaVuSans-30" x="190.869141"/>
       <use xlink:href="#DejaVuSans-30" x="254.492188"/>
      </g>
     </g>
    </g>
    <g id="xtick_5">
     <g id="line2d_5">
      <g>
       <use xlink:href="#m69ab096904" x="283.285415" y="162.432" style="stroke: #000000; stroke-width: 0.8"/>
      </g>
     </g>
     <g id="text_5">
      <!-- 40000 -->
      <g transform="translate(267.379165 177.030437)scale(0.1 -0.1)">
       <defs>
        <path id="DejaVuSans-34" d="M 2419 4116 
L 825 1625 
L 2419 1625 
L 2419 4116 
z
M 2253 4666 
L 3047 4666 
L 3047 1625 
L 3713 1625 
L 3713 1100 
L 3047 1100 
L 3047 0 
L 2419 0 
L 2419 1100 
L 313 1100 
L 313 1709 
L 2253 4666 
z
" transform="scale(0.015625)"/>
       </defs>
       <use xlink:href="#DejaVuSans-34"/>
       <use xlink:href="#DejaVuSans-30" x="63.623047"/>
       <use xlink:href="#DejaVuSans-30" x="127.246094"/>
       <use xlink:href="#DejaVuSans-30" x="190.869141"/>
       <use xlink:href="#DejaVuSans-30" x="254.492188"/>
      </g>
     </g>
    </g>
    <g id="xtick_6">
     <g id="line2d_6">
      <g>
       <use xlink:href="#m69ab096904" x="335.649896" y="162.432" style="stroke: #000000; stroke-width: 0.8"/>
      </g>
     </g>
     <g id="text_6">
      <!-- 50000 -->
      <g transform="translate(319.743646 177.030437)scale(0.1 -0.1)">
       <defs>
        <path id="DejaVuSans-35" d="M 691 4666 
L 3169 4666 
L 3169 4134 
L 1269 4134 
L 1269 2991 
Q 1406 3038 1543 3061 
Q 1681 3084 1819 3084 
Q 2600 3084 3056 2656 
Q 3513 2228 3513 1497 
Q 3513 744 3044 326 
Q 2575 -91 1722 -91 
Q 1428 -91 1123 -41 
Q 819 9 494 109 
L 494 744 
Q 775 591 1075 516 
Q 1375 441 1709 441 
Q 2250 441 2565 725 
Q 2881 1009 2881 1497 
Q 2881 1984 2565 2268 
Q 2250 2553 1709 2553 
Q 1456 2553 1204 2497 
Q 953 2441 691 2322 
L 691 4666 
z
" transform="scale(0.015625)"/>
       </defs>
       <use xlink:href="#DejaVuSans-35"/>
       <use xlink:href="#DejaVuSans-30" x="63.623047"/>
       <use xlink:href="#DejaVuSans-30" x="127.246094"/>
       <use xlink:href="#DejaVuSans-30" x="190.869141"/>
       <use xlink:href="#DejaVuSans-30" x="254.492188"/>
      </g>
     </g>
    </g>
    <g id="xtick_7">
     <g id="line2d_7">
      <g>
       <use xlink:href="#m69ab096904" x="388.014377" y="162.432" style="stroke: #000000; stroke-width: 0.8"/>
      </g>
     </g>
     <g id="text_7">
      <!-- 60000 -->
      <g transform="translate(372.108127 177.030437)scale(0.1 -0.1)">
       <defs>
        <path id="DejaVuSans-36" d="M 2113 2584 
Q 1688 2584 1439 2293 
Q 1191 2003 1191 1497 
Q 1191 994 1439 701 
Q 1688 409 2113 409 
Q 2538 409 2786 701 
Q 3034 994 3034 1497 
Q 3034 2003 2786 2293 
Q 2538 2584 2113 2584 
z
M 3366 4563 
L 3366 3988 
Q 3128 4100 2886 4159 
Q 2644 4219 2406 4219 
Q 1781 4219 1451 3797 
Q 1122 3375 1075 2522 
Q 1259 2794 1537 2939 
Q 1816 3084 2150 3084 
Q 2853 3084 3261 2657 
Q 3669 2231 3669 1497 
Q 3669 778 3244 343 
Q 2819 -91 2113 -91 
Q 1303 -91 875 529 
Q 447 1150 447 2328 
Q 447 3434 972 4092 
Q 1497 4750 2381 4750 
Q 2619 4750 2861 4703 
Q 3103 4656 3366 4563 
z
" transform="scale(0.015625)"/>
       </defs>
       <use xlink:href="#DejaVuSans-36"/>
       <use xlink:href="#DejaVuSans-30" x="63.623047"/>
       <use xlink:href="#DejaVuSans-30" x="127.246094"/>
       <use xlink:href="#DejaVuSans-30" x="190.869141"/>
       <use xlink:href="#DejaVuSans-30" x="254.492188"/>
      </g>
     </g>
    </g>
   </g>
   <g id="matplotlib.axis_2">
    <g id="ytick_1">
     <g id="line2d_8">
      <defs>
       <path id="ma489973b01" d="M 0 0 
L -3.5 0 
" style="stroke: #000000; stroke-width: 0.8"/>
      </defs>
      <g>
       <use xlink:href="#ma489973b01" x="57.6" y="143.897806" style="stroke: #000000; stroke-width: 0.8"/>
      </g>
     </g>
     <g id="text_8">
      <!-- 70 -->
      <g transform="translate(37.875 147.697025)scale(0.1 -0.1)">
       <defs>
        <path id="DejaVuSans-37" d="M 525 4666 
L 3525 4666 
L 3525 4397 
L 1831 0 
L 1172 0 
L 2766 4134 
L 525 4134 
L 525 4666 
z
" transform="scale(0.015625)"/>
       </defs>
       <use xlink:href="#DejaVuSans-37"/>
       <use xlink:href="#DejaVuSans-30" x="63.623047"/>
      </g>
     </g>
    </g>
    <g id="ytick_2">
     <g id="line2d_9">
      <g>
       <use xlink:href="#ma489973b01" x="57.6" y="117.293701" style="stroke: #000000; stroke-width: 0.8"/>
      </g>
     </g>
     <g id="text_9">
      <!-- 80 -->
      <g transform="translate(37.875 121.09292)scale(0.1 -0.1)">
       <defs>
        <path id="DejaVuSans-38" d="M 2034 2216 
Q 1584 2216 1326 1975 
Q 1069 1734 1069 1313 
Q 1069 891 1326 650 
Q 1584 409 2034 409 
Q 2484 409 2743 651 
Q 3003 894 3003 1313 
Q 3003 1734 2745 1975 
Q 2488 2216 2034 2216 
z
M 1403 2484 
Q 997 2584 770 2862 
Q 544 3141 544 3541 
Q 544 4100 942 4425 
Q 1341 4750 2034 4750 
Q 2731 4750 3128 4425 
Q 3525 4100 3525 3541 
Q 3525 3141 3298 2862 
Q 3072 2584 2669 2484 
Q 3125 2378 3379 2068 
Q 3634 1759 3634 1313 
Q 3634 634 3220 271 
Q 2806 -91 2034 -91 
Q 1263 -91 848 271 
Q 434 634 434 1313 
Q 434 1759 690 2068 
Q 947 2378 1403 2484 
z
M 1172 3481 
Q 1172 3119 1398 2916 
Q 1625 2713 2034 2713 
Q 2441 2713 2670 2916 
Q 2900 3119 2900 3481 
Q 2900 3844 2670 4047 
Q 2441 4250 2034 4250 
Q 1625 4250 1398 4047 
Q 1172 3844 1172 3481 
z
" transform="scale(0.015625)"/>
       </defs>
       <use xlink:href="#DejaVuSans-38"/>
       <use xlink:href="#DejaVuSans-30" x="63.623047"/>
      </g>
     </g>
    </g>
    <g id="ytick_3">
     <g id="line2d_10">
      <g>
       <use xlink:href="#ma489973b01" x="57.6" y="90.689595" style="stroke: #000000; stroke-width: 0.8"/>
      </g>
     </g>
     <g id="text_10">
      <!-- 90 -->
      <g transform="translate(37.875 94.488814)scale(0.1 -0.1)">
       <defs>
        <path id="DejaVuSans-39" d="M 703 97 
L 703 672 
Q 941 559 1184 500 
Q 1428 441 1663 441 
Q 2288 441 2617 861 
Q 2947 1281 2994 2138 
Q 2813 1869 2534 1725 
Q 2256 1581 1919 1581 
Q 1219 1581 811 2004 
Q 403 2428 403 3163 
Q 403 3881 828 4315 
Q 1253 4750 1959 4750 
Q 2769 4750 3195 4129 
Q 3622 3509 3622 2328 
Q 3622 1225 3098 567 
Q 2575 -91 1691 -91 
Q 1453 -91 1209 -44 
Q 966 3 703 97 
z
M 1959 2075 
Q 2384 2075 2632 2365 
Q 2881 2656 2881 3163 
Q 2881 3666 2632 3958 
Q 2384 4250 1959 4250 
Q 1534 4250 1286 3958 
Q 1038 3666 1038 3163 
Q 1038 2656 1286 2365 
Q 1534 2075 1959 2075 
z
" transform="scale(0.015625)"/>
       </defs>
       <use xlink:href="#DejaVuSans-39"/>
       <use xlink:href="#DejaVuSans-30" x="63.623047"/>
      </g>
     </g>
    </g>
    <g id="ytick_4">
     <g id="line2d_11">
      <g>
       <use xlink:href="#ma489973b01" x="57.6" y="64.08549" style="stroke: #000000; stroke-width: 0.8"/>
      </g>
     </g>
     <g id="text_11">
      <!-- 100 -->
      <g transform="translate(31.5125 67.884708)scale(0.1 -0.1)">
       <use xlink:href="#DejaVuSans-31"/>
       <use xlink:href="#DejaVuSans-30" x="63.623047"/>
       <use xlink:href="#DejaVuSans-30" x="127.246094"/>
      </g>
     </g>
    </g>
   </g>
   <g id="line2d_12">
    <path d="M 73.832727 66.7459 
L 73.890328 72.066721 
L 73.947929 69.406311 
L 73.958402 69.406311 
L 74.031712 66.7459 
L 74.068367 69.406311 
L 74.089313 69.406311 
L 74.120732 72.066721 
L 74.16786 68.962909 
L 74.199279 68.962909 
L 74.209752 68.962909 
L 74.288298 71.62332 
L 74.324953 71.091238 
L 74.351136 71.091238 
L 74.471574 68.430827 
L 74.602485 68.430827 
L 74.681032 73.751648 
L 74.717687 72.421443 
L 74.796234 72.421443 
L 74.911436 71.091238 
L 75.031874 71.091238 
L 75.094711 73.751648 
L 75.141839 71.091238 
L 75.147076 71.091238 
L 75.262278 73.751648 
L 75.77545 73.751648 
L 75.859233 72.421443 
L 75.864469 75.081853 
L 75.880178 75.081853 
L 76.000617 75.081853 
L 76.115819 73.751648 
L 76.361932 73.751648 
L 76.388114 72.864845 
L 76.39335 75.525255 
L 76.466661 74.19505 
L 77.770536 74.19505 
L 77.885738 72.864845 
L 78.215634 72.864845 
L 78.330836 75.525255 
L 79.435727 75.525255 
L 79.550929 74.19505 
L 80.221194 74.19505 
L 80.336396 72.864845 
L 80.414943 72.864845 
L 80.530144 71.534639 
L 81.242301 71.534639 
L 81.357503 74.19505 
L 81.498887 74.19505 
L 81.614089 76.85546 
L 82.368138 76.85546 
L 82.48334 75.525255 
L 86.410676 75.525255 
L 86.525877 74.19505 
L 87.295635 74.19505 
L 87.410837 72.864845 
L 87.850699 72.864845 
L 87.965901 75.525255 
L 88.746131 75.525255 
L 88.861333 74.19505 
L 92.275497 74.19505 
L 92.390699 76.85546 
L 98.752984 76.85546 
L 98.868186 75.525255 
L 103.209201 75.525255 
L 103.324403 74.19505 
L 120.547081 74.19505 
L 120.662283 76.85546 
L 124.32256 76.85546 
L 124.437762 75.525255 
L 135.146298 75.525255 
L 135.2615 74.19505 
L 159.061156 74.19505 
L 159.176358 72.864845 
L 164.585609 72.864845 
L 164.700811 75.525255 
L 190.862106 75.525255 
L 190.977308 74.19505 
L 210.561623 74.19505 
L 210.676825 76.85546 
L 231.428869 76.85546 
L 231.544071 75.525255 
L 270.560846 75.525255 
L 270.676048 78.185666 
L 280.222092 78.185666 
L 280.337294 76.85546 
L 370.346601 76.85546 
L 370.461803 79.515871 
L 370.954029 79.515871 
L 371.069231 78.185666 
L 398.487273 78.185666 
L 398.487273 78.185666 
" clip-path="url(#p724db53fa1)" style="fill: none; stroke: #1f77b4; stroke-width: 1.5; stroke-linecap: square"/>
   </g>
   <g id="line2d_13">
    <path d="M 73.832727 66.7459 
L 73.8432 68.874229 
L 73.958402 64.883613 
L 73.963638 64.883613 
L 74.07884 67.544023 
L 74.194042 63.553408 
L 74.602485 63.553408 
L 74.717687 66.213818 
L 75.147076 66.213818 
L 75.262278 68.874229 
L 75.859233 68.874229 
L 75.974435 71.534639 
L 78.215634 71.534639 
L 78.330836 74.19505 
L 80.221194 74.19505 
L 80.336396 76.85546 
L 80.414943 76.85546 
L 80.530144 79.515871 
L 81.498887 79.515871 
L 81.614089 82.176282 
L 82.368138 82.176282 
L 82.48334 84.836692 
L 87.295635 84.836692 
L 87.410837 87.497103 
L 92.275497 87.497103 
L 92.390699 90.157513 
L 98.752984 90.157513 
L 98.868186 92.817924 
L 103.209201 92.817924 
L 103.324403 95.478334 
L 105.324726 95.478334 
L 105.439928 92.817924 
L 120.547081 92.817924 
L 120.662283 92.285842 
L 135.146298 92.285842 
L 135.2615 94.946252 
L 152.719818 94.946252 
L 152.83502 92.285842 
L 159.061156 92.285842 
L 159.176358 94.946252 
L 164.585609 94.946252 
L 164.700811 97.606663 
L 210.561623 97.606663 
L 210.676825 100.267073 
L 212.80806 100.267073 
L 212.923262 97.606663 
L 270.560846 97.606663 
L 270.676048 97.163261 
L 280.222092 97.163261 
L 280.337294 99.823672 
L 356.878456 99.823672 
L 356.993658 97.163261 
L 370.954029 97.163261 
L 371.069231 99.823672 
L 398.487273 99.823672 
L 398.487273 99.823672 
" clip-path="url(#p724db53fa1)" style="fill: none; stroke: #ff7f0e; stroke-width: 1.5; stroke-linecap: square"/>
   </g>
   <g id="line2d_14">
    <path d="M 73.832727 66.7459 
L 73.963638 77.653584 
L 73.979348 77.653584 
L 73.995057 76.988481 
L 74.036949 82.309302 
L 74.052658 82.309302 
L 74.089313 82.309302 
L 74.125968 87.630123 
L 74.204515 86.299918 
L 74.209752 86.299918 
L 74.319717 88.960328 
L 74.351136 88.295226 
L 74.356372 90.955636 
L 74.413973 90.955636 
L 74.508229 93.616047 
L 74.523938 92.729243 
L 74.602485 92.197161 
L 74.607722 94.857572 
L 74.612958 94.857572 
L 74.660086 94.857572 
L 74.701978 100.178393 
L 74.775288 98.626487 
L 74.796234 98.626487 
L 74.900963 101.286897 
L 74.906199 100.400094 
L 74.942854 100.400094 
L 75.031874 99.51329 
L 75.03711 102.173701 
L 75.042347 102.173701 
L 75.094711 102.173701 
L 75.220386 110.154933 
L 75.445553 110.154933 
L 75.560755 109.48983 
L 75.696903 109.48983 
L 75.77545 108.824727 
L 75.780686 111.485138 
L 75.791159 111.485138 
L 75.822578 111.485138 
L 75.859233 110.820035 
L 75.864469 113.480446 
L 75.916834 113.480446 
L 76.000617 113.480446 
L 76.079164 116.140856 
L 76.110582 115.254053 
L 76.162947 115.254053 
L 76.278149 114.367249 
L 76.361932 114.367249 
L 76.487606 122.348481 
L 76.524262 122.348481 
L 76.639463 121.683378 
L 76.686591 121.683378 
L 76.801793 121.018276 
L 77.482532 121.018276 
L 77.597733 120.353173 
L 77.770536 120.353173 
L 77.885738 123.013584 
L 78.011413 123.013584 
L 78.126615 122.348481 
L 78.215634 122.348481 
L 78.330836 125.008891 
L 78.880663 125.008891 
L 78.995865 124.343789 
L 79.435727 124.343789 
L 79.509037 127.004199 
L 79.545692 126.339097 
L 79.561401 126.339097 
L 79.676603 125.673994 
L 80.907169 125.673994 
L 81.022371 125.008891 
L 81.242301 125.008891 
L 81.357503 127.669302 
L 81.498887 127.669302 
L 81.614089 130.329713 
L 85.023017 130.329713 
L 85.138219 129.66461 
L 86.410676 129.66461 
L 86.525877 132.325021 
L 87.850699 132.325021 
L 87.965901 134.985431 
L 88.746131 134.985431 
L 88.861333 137.645842 
L 89.343087 137.645842 
L 89.458288 136.980739 
L 90.992568 136.980739 
L 91.10777 136.315636 
L 92.275497 136.315636 
L 92.390699 138.976047 
L 120.547081 138.976047 
L 120.662283 141.636457 
L 124.32256 141.636457 
L 124.437762 144.296868 
L 133.585836 144.296868 
L 133.701038 143.631765 
L 155.699357 143.631765 
L 155.814559 142.966663 
L 164.585609 142.966663 
L 164.700811 145.627073 
L 190.862106 145.627073 
L 190.977308 148.287484 
L 202.03145 148.287484 
L 202.146651 147.622381 
L 210.561623 147.622381 
L 210.676825 150.282792 
L 231.428869 150.282792 
L 231.544071 152.943202 
L 269.696832 152.943202 
L 269.812034 152.2781 
L 270.560846 152.2781 
L 270.676048 154.93851 
L 341.844614 154.93851 
L 341.959816 154.273408 
L 370.346601 154.273408 
L 370.461803 156.933818 
L 398.487273 156.933818 
L 398.487273 156.933818 
" clip-path="url(#p724db53fa1)" style="fill: none; stroke: #2ca02c; stroke-width: 1.5; stroke-linecap: square"/>
   </g>
   <g id="line2d_15">
    <path d="M 73.832727 64.08549 
L 73.890328 64.08549 
L 74.010767 63.110006 
L 74.031712 63.110006 
L 74.146914 65.770416 
L 74.152151 65.770416 
L 74.267352 65.327015 
L 74.319717 65.327015 
L 74.434919 64.661912 
L 74.523938 64.661912 
L 74.63914 64.12983 
L 75.031874 64.12983 
L 75.147076 63.464727 
L 398.487273 63.464727 
L 398.487273 63.464727 
" clip-path="url(#p724db53fa1)" style="fill: none; stroke: #d62728; stroke-width: 1.5; stroke-linecap: square"/>
   </g>
   <g id="line2d_16">
    <path d="M 73.832727 64.08549 
L 73.848437 69.406311 
L 73.947929 68.209126 
L 74.031712 68.209126 
L 74.152151 73.529947 
L 74.209752 73.529947 
L 74.288298 76.190358 
L 74.324953 75.658276 
L 74.602485 75.658276 
L 74.717687 78.318686 
L 76.388114 78.318686 
L 76.503316 80.979097 
L 81.242301 80.979097 
L 81.357503 83.639507 
L 81.498887 83.639507 
L 81.614089 86.299918 
L 92.275497 86.299918 
L 92.390699 88.960328 
L 270.560846 88.960328 
L 270.676048 91.620739 
L 398.487273 91.620739 
L 398.487273 91.620739 
" clip-path="url(#p724db53fa1)" style="fill: none; stroke: #9467bd; stroke-width: 1.5; stroke-linecap: square"/>
   </g>
   <g id="line2d_17">
    <path d="M 73.832727 66.7459 
L 73.963638 79.072469 
L 73.979348 79.072469 
L 74.031712 78.407367 
L 74.036949 81.067777 
L 74.073604 81.067777 
L 74.152151 81.067777 
L 74.209752 80.624375 
L 74.214988 83.284786 
L 74.235934 83.284786 
L 74.288298 83.284786 
L 74.4035 85.945196 
L 74.523938 85.945196 
L 74.602485 85.413114 
L 74.607722 88.073525 
L 74.612958 88.073525 
L 74.660086 88.073525 
L 74.707214 90.733935 
L 74.770051 90.068833 
L 75.147076 90.068833 
L 75.262278 92.729243 
L 75.445553 92.729243 
L 75.560755 92.064141 
L 75.696903 92.064141 
L 75.812105 91.399038 
L 75.822578 91.399038 
L 75.859233 90.733935 
L 75.864469 93.394346 
L 75.916834 93.394346 
L 76.361932 93.394346 
L 76.48237 98.715167 
L 76.524262 98.715167 
L 76.639463 98.050065 
L 76.686591 98.050065 
L 76.801793 97.384962 
L 77.482532 97.384962 
L 77.597733 96.719859 
L 78.011413 96.719859 
L 78.126615 96.054757 
L 78.215634 96.054757 
L 78.330836 98.715167 
L 78.880663 98.715167 
L 78.995865 98.050065 
L 79.509037 98.050065 
L 79.629475 96.719859 
L 80.907169 96.719859 
L 81.022371 96.054757 
L 81.242301 96.054757 
L 81.357503 98.715167 
L 81.498887 98.715167 
L 81.614089 101.375578 
L 85.023017 101.375578 
L 85.138219 100.710475 
L 89.343087 100.710475 
L 89.458288 100.045372 
L 90.992568 100.045372 
L 91.10777 99.38027 
L 92.275497 99.38027 
L 92.390699 102.04068 
L 120.547081 102.04068 
L 120.662283 104.701091 
L 133.585836 104.701091 
L 133.701038 104.035988 
L 155.699357 104.035988 
L 155.814559 103.370886 
L 164.585609 103.370886 
L 164.700811 106.031296 
L 202.03145 106.031296 
L 202.146651 105.366194 
L 210.561623 105.366194 
L 210.676825 108.026604 
L 269.696832 108.026604 
L 269.812034 107.361501 
L 270.560846 107.361501 
L 270.676048 110.021912 
L 341.844614 110.021912 
L 341.959816 109.356809 
L 370.346601 109.356809 
L 370.461803 112.01722 
L 398.487273 112.01722 
L 398.487273 112.01722 
" clip-path="url(#p724db53fa1)" style="fill: none; stroke: #8c564b; stroke-width: 1.5; stroke-linecap: square"/>
   </g>
   <g id="line2d_18">
    <path d="M 73.832727 63.553408 
L 73.848437 66.213818 
L 73.942693 65.016633 
L 73.963638 65.016633 
L 74.031712 64.12983 
L 74.036949 66.79024 
L 74.063131 66.79024 
L 74.089313 66.79024 
L 74.204515 69.450651 
L 74.209752 69.450651 
L 74.288298 72.111062 
L 74.324953 71.578979 
L 74.602485 71.578979 
L 74.717687 71.046897 
L 76.388114 71.046897 
L 76.503316 73.707308 
L 81.242301 73.707308 
L 81.357503 76.367718 
L 81.498887 76.367718 
L 81.614089 79.028129 
L 92.275497 79.028129 
L 92.390699 81.68854 
L 270.560846 81.68854 
L 270.676048 84.34895 
L 398.487273 84.34895 
L 398.487273 84.34895 
" clip-path="url(#p724db53fa1)" style="fill: none; stroke: #e377c2; stroke-width: 1.5; stroke-linecap: square"/>
   </g>
   <g id="line2d_19">
    <path d="M 73.832727 66.7459 
L 73.848437 65.681736 
L 73.85891 71.002557 
L 73.906038 70.559155 
L 73.921747 70.559155 
L 73.937456 70.027073 
L 73.963638 74.461091 
L 74.07884 79.116809 
L 74.089313 79.116809 
L 74.120732 78.451707 
L 74.125968 81.112117 
L 74.194042 79.781912 
L 74.209752 79.781912 
L 74.288298 79.24983 
L 74.293535 81.91024 
L 74.298771 81.91024 
L 74.319717 81.91024 
L 74.351136 81.245138 
L 74.356372 83.905548 
L 74.413973 83.905548 
L 74.508229 86.565959 
L 74.523938 85.679155 
L 74.602485 85.147073 
L 74.607722 87.807484 
L 74.612958 87.807484 
L 74.681032 87.807484 
L 74.701978 90.467894 
L 74.790997 88.915988 
L 74.796234 88.915988 
L 74.900963 91.576399 
L 74.906199 90.689595 
L 74.942854 90.689595 
L 75.058056 89.137689 
L 75.094711 89.137689 
L 75.21515 94.45851 
L 75.445553 94.45851 
L 75.560755 93.793408 
L 75.696903 93.793408 
L 75.77545 93.128305 
L 75.780686 95.788716 
L 75.791159 95.788716 
L 75.822578 95.788716 
L 75.943016 94.591531 
L 76.000617 94.591531 
L 76.079164 97.251941 
L 76.110582 96.365138 
L 76.162947 96.365138 
L 76.278149 95.478334 
L 76.361932 95.478334 
L 76.48237 100.799155 
L 76.524262 100.799155 
L 76.639463 100.134053 
L 76.686591 100.134053 
L 76.801793 99.46895 
L 77.482532 99.46895 
L 77.597733 98.803848 
L 77.770536 98.803848 
L 77.885738 101.464258 
L 78.011413 101.464258 
L 78.126615 100.799155 
L 78.215634 100.799155 
L 78.330836 100.267073 
L 78.880663 100.267073 
L 78.995865 99.601971 
L 79.435727 99.601971 
L 79.509037 102.262381 
L 79.545692 101.597279 
L 79.561401 101.597279 
L 79.676603 100.932176 
L 80.907169 100.932176 
L 81.022371 100.267073 
L 81.242301 100.267073 
L 81.357503 99.601971 
L 81.498887 99.601971 
L 81.614089 99.069889 
L 85.023017 99.069889 
L 85.138219 98.404786 
L 86.410676 98.404786 
L 86.525877 101.065196 
L 88.746131 101.065196 
L 88.861333 103.725607 
L 89.343087 103.725607 
L 89.458288 103.060504 
L 90.992568 103.060504 
L 91.10777 102.395402 
L 92.275497 102.395402 
L 92.390699 101.86332 
L 120.547081 101.86332 
L 120.662283 101.331238 
L 124.32256 101.331238 
L 124.437762 103.991648 
L 133.585836 103.991648 
L 133.701038 103.326545 
L 155.699357 103.326545 
L 155.814559 102.661443 
L 190.862106 102.661443 
L 190.977308 105.321853 
L 202.03145 105.321853 
L 202.146651 104.656751 
L 210.561623 104.656751 
L 210.676825 104.124669 
L 231.428869 104.124669 
L 231.544071 106.785079 
L 269.696832 106.785079 
L 269.812034 106.119977 
L 270.560846 106.119977 
L 270.676048 105.676575 
L 341.844614 105.676575 
L 341.959816 105.011472 
L 398.487273 105.011472 
L 398.487273 105.011472 
" clip-path="url(#p724db53fa1)" style="fill: none; stroke: #7f7f7f; stroke-width: 1.5; stroke-linecap: square"/>
   </g>
   <g id="line2d_20">
    <path d="M 73.832727 63.553408 
L 73.974111 60.405255 
L 74.031712 60.405255 
L 74.152151 59.07505 
L 74.209752 59.07505 
L 74.33019 58.010886 
L 74.602485 58.010886 
L 74.722923 56.813701 
L 75.031874 56.813701 
L 75.152312 55.261795 
L 75.859233 55.261795 
L 75.974435 54.729713 
L 76.388114 54.729713 
L 76.503316 53.842909 
L 78.215634 53.842909 
L 78.330836 53.310827 
L 81.242301 53.310827 
L 81.357503 52.645724 
L 81.498887 52.645724 
L 81.614089 52.113642 
L 87.850699 52.113642 
L 87.965901 50.783437 
L 92.275497 50.783437 
L 92.390699 50.251355 
L 120.547081 50.251355 
L 120.662283 49.719273 
L 164.585609 49.719273 
L 164.700811 48.832469 
L 210.561623 48.832469 
L 210.676825 48.300387 
L 270.560846 48.300387 
L 270.676048 47.856985 
L 370.346601 47.856985 
L 370.461803 46.970182 
L 398.487273 46.970182 
L 398.487273 46.970182 
" clip-path="url(#p724db53fa1)" style="fill: none; stroke: #bcbd22; stroke-width: 1.5; stroke-linecap: square"/>
   </g>
   <g id="line2d_21">
    <path d="M 73.832727 63.553408 
L 73.848437 59.828833 
L 73.85891 65.149654 
L 73.937456 64.17417 
L 74.031712 73.263906 
L 74.063131 72.598804 
L 74.089313 72.598804 
L 74.120732 71.933701 
L 74.125968 74.594111 
L 74.194042 73.263906 
L 74.209752 73.263906 
L 74.288298 72.731824 
L 74.293535 75.392235 
L 74.298771 75.392235 
L 74.319717 75.392235 
L 74.351136 74.727132 
L 74.356372 77.387543 
L 74.413973 77.387543 
L 74.508229 80.047953 
L 74.523938 79.16115 
L 74.644377 78.096985 
L 74.660086 78.096985 
L 74.681032 77.431883 
L 74.686268 80.092293 
L 74.764815 78.540387 
L 74.796234 78.540387 
L 74.900963 81.200798 
L 74.906199 80.313994 
L 74.942854 80.313994 
L 75.058056 78.762088 
L 75.094711 78.762088 
L 75.21515 84.082909 
L 75.445553 84.082909 
L 75.560755 83.417806 
L 75.696903 83.417806 
L 75.77545 82.752704 
L 75.780686 85.413114 
L 75.791159 85.413114 
L 75.822578 85.413114 
L 75.943016 84.21593 
L 76.000617 84.21593 
L 76.079164 86.87634 
L 76.110582 85.989537 
L 76.162947 85.989537 
L 76.278149 85.102733 
L 76.361932 85.102733 
L 76.48237 90.423554 
L 76.524262 90.423554 
L 76.639463 89.758452 
L 76.686591 89.758452 
L 76.801793 89.093349 
L 77.482532 89.093349 
L 77.597733 88.428246 
L 77.770536 88.428246 
L 77.885738 91.088657 
L 78.011413 91.088657 
L 78.126615 90.423554 
L 78.215634 90.423554 
L 78.330836 89.891472 
L 78.880663 89.891472 
L 78.995865 89.22637 
L 79.435727 89.22637 
L 79.509037 91.88678 
L 79.545692 91.221677 
L 79.561401 91.221677 
L 79.676603 90.556575 
L 80.907169 90.556575 
L 81.022371 89.891472 
L 81.242301 89.891472 
L 81.357503 89.22637 
L 81.498887 89.22637 
L 81.614089 88.694287 
L 85.023017 88.694287 
L 85.138219 88.029185 
L 86.410676 88.029185 
L 86.525877 90.689595 
L 87.850699 90.689595 
L 87.965901 89.35939 
L 88.746131 89.35939 
L 88.861333 92.019801 
L 89.343087 92.019801 
L 89.458288 91.354698 
L 90.992568 91.354698 
L 91.10777 90.689595 
L 92.275497 90.689595 
L 92.390699 90.157513 
L 120.547081 90.157513 
L 120.662283 89.625431 
L 124.32256 89.625431 
L 124.437762 92.285842 
L 133.585836 92.285842 
L 133.701038 91.620739 
L 155.699357 91.620739 
L 155.814559 90.955636 
L 190.862106 90.955636 
L 190.977308 93.616047 
L 202.03145 93.616047 
L 202.146651 92.950944 
L 210.561623 92.950944 
L 210.676825 92.418862 
L 231.428869 92.418862 
L 231.544071 95.079273 
L 269.696832 95.079273 
L 269.812034 94.41417 
L 270.560846 94.41417 
L 270.676048 93.970768 
L 341.844614 93.970768 
L 341.959816 93.305666 
L 398.487273 93.305666 
L 398.487273 93.305666 
" clip-path="url(#p724db53fa1)" style="fill: none; stroke: #17becf; stroke-width: 1.5; stroke-linecap: square"/>
   </g>
   <g id="line2d_22">
    <path d="M 73.832727 63.553408 
L 73.890328 61.292059 
L 73.895565 63.952469 
L 73.921747 63.952469 
L 74.031712 68.386487 
L 74.036949 67.721384 
L 74.152151 67.721384 
L 74.209752 70.381795 
L 74.267352 69.849713 
L 74.288298 69.849713 
L 74.4035 69.31763 
L 74.523938 69.31763 
L 74.602485 71.978041 
L 74.63914 71.445959 
L 74.660086 71.445959 
L 74.707214 70.780856 
L 74.712451 73.441267 
L 74.754342 73.441267 
L 75.147076 73.441267 
L 75.262278 72.554463 
L 75.445553 72.554463 
L 75.560755 75.214874 
L 75.696903 75.214874 
L 75.812105 77.875284 
L 75.822578 77.875284 
L 75.859233 80.535695 
L 75.937779 80.003613 
L 76.361932 80.003613 
L 76.48237 78.230006 
L 76.524262 78.230006 
L 76.639463 80.890416 
L 76.686591 80.890416 
L 76.801793 83.550827 
L 77.482532 83.550827 
L 77.597733 86.211238 
L 78.011413 86.211238 
L 78.126615 88.871648 
L 78.215634 88.871648 
L 78.330836 88.339566 
L 78.880663 88.339566 
L 78.995865 90.999977 
L 79.509037 90.999977 
L 79.629475 96.320798 
L 80.907169 96.320798 
L 81.022371 98.981208 
L 81.242301 98.981208 
L 81.357503 98.316106 
L 81.498887 98.316106 
L 81.614089 97.784023 
L 85.023017 97.784023 
L 85.138219 100.444434 
L 89.343087 100.444434 
L 89.458288 103.104845 
L 90.992568 103.104845 
L 91.10777 105.765255 
L 92.275497 105.765255 
L 92.390699 105.233173 
L 120.547081 105.233173 
L 120.662283 104.701091 
L 133.585836 104.701091 
L 133.701038 107.361501 
L 155.699357 107.361501 
L 155.814559 110.021912 
L 164.585609 110.021912 
L 164.700811 109.135109 
L 202.03145 109.135109 
L 202.146651 111.795519 
L 210.561623 111.795519 
L 210.676825 111.263437 
L 269.696832 111.263437 
L 269.812034 113.923848 
L 270.560846 113.923848 
L 270.676048 113.480446 
L 341.844614 113.480446 
L 341.959816 116.140856 
L 370.346601 116.140856 
L 370.461803 115.254053 
L 398.487273 115.254053 
L 398.487273 115.254053 
" clip-path="url(#p724db53fa1)" style="fill: none; stroke: #1f77b4; stroke-width: 1.5; stroke-linecap: square"/>
   </g>
   <g id="line2d_23">
    <path d="M 73.832727 63.553408 
L 73.837964 63.553408 
L 73.853673 63.021326 
L 73.879855 68.342147 
L 73.890328 68.342147 
L 73.995057 78.540387 
L 74.016003 77.210182 
L 74.031712 77.210182 
L 74.07884 76.545079 
L 74.084077 79.20549 
L 74.110259 78.540387 
L 74.209752 87.851824 
L 74.235934 87.319742 
L 74.319717 87.319742 
L 74.351136 89.980152 
L 74.429682 87.319742 
L 74.508229 87.319742 
L 74.602485 92.640563 
L 74.628667 92.108481 
L 74.660086 92.108481 
L 74.701978 90.113173 
L 74.712451 95.433994 
L 74.743869 95.433994 
L 74.796234 95.433994 
L 74.900963 94.103789 
L 75.021401 99.42461 
L 75.094711 99.42461 
L 75.21515 95.877396 
L 75.445553 95.877396 
L 75.560755 98.537806 
L 75.696903 98.537806 
L 75.77545 101.198217 
L 75.806868 99.868012 
L 75.822578 99.868012 
L 75.859233 102.528422 
L 75.937779 101.99634 
L 76.000617 101.99634 
L 76.079164 100.666135 
L 76.0844 103.326545 
L 76.105346 103.326545 
L 76.162947 103.326545 
L 76.278149 105.986956 
L 76.361932 105.986956 
L 76.487606 102.883144 
L 76.524262 102.883144 
L 76.639463 105.543554 
L 76.686591 105.543554 
L 76.801793 108.203965 
L 77.482532 108.203965 
L 77.597733 110.864375 
L 77.770536 110.864375 
L 77.885738 109.53417 
L 78.011413 109.53417 
L 78.126615 112.194581 
L 78.215634 112.194581 
L 78.330836 111.662499 
L 78.880663 111.662499 
L 78.995865 114.322909 
L 79.435727 114.322909 
L 79.509037 112.992704 
L 79.514273 115.653114 
L 79.540456 115.653114 
L 79.561401 115.653114 
L 79.676603 118.313525 
L 80.221194 118.313525 
L 80.336396 116.98332 
L 80.414943 116.98332 
L 80.530144 115.653114 
L 80.907169 115.653114 
L 81.022371 118.313525 
L 81.498887 118.313525 
L 81.614089 117.781443 
L 82.368138 117.781443 
L 82.48334 116.451238 
L 85.023017 116.451238 
L 85.138219 119.111648 
L 86.410676 119.111648 
L 86.525877 117.781443 
L 87.295635 117.781443 
L 87.410837 116.451238 
L 88.746131 116.451238 
L 88.861333 115.121032 
L 89.343087 115.121032 
L 89.458288 117.781443 
L 90.992568 117.781443 
L 91.10777 120.441853 
L 92.275497 120.441853 
L 92.390699 119.909771 
L 98.752984 119.909771 
L 98.868186 118.579566 
L 103.209201 118.579566 
L 103.324403 117.249361 
L 105.324726 117.249361 
L 105.439928 119.909771 
L 120.547081 119.909771 
L 120.662283 122.570182 
L 124.32256 122.570182 
L 124.437762 121.239977 
L 133.585836 121.239977 
L 133.701038 123.900387 
L 135.146298 123.900387 
L 135.2615 122.570182 
L 152.719818 122.570182 
L 152.83502 125.230592 
L 155.699357 125.230592 
L 155.814559 127.891003 
L 159.061156 127.891003 
L 159.176358 126.560798 
L 164.585609 126.560798 
L 164.700811 125.673994 
L 190.862106 125.673994 
L 190.977308 124.343789 
L 202.03145 124.343789 
L 202.146651 127.004199 
L 210.561623 127.004199 
L 210.676825 126.472117 
L 212.80806 126.472117 
L 212.923262 129.132528 
L 231.428869 129.132528 
L 231.544071 127.802323 
L 269.696832 127.802323 
L 269.812034 130.462733 
L 270.560846 130.462733 
L 270.676048 130.019331 
L 280.222092 130.019331 
L 280.337294 128.689126 
L 341.844614 128.689126 
L 341.959816 131.349537 
L 356.878456 131.349537 
L 356.993658 134.009947 
L 370.346601 134.009947 
L 370.461803 133.123144 
L 370.954029 133.123144 
L 371.069231 131.792938 
L 398.487273 131.792938 
L 398.487273 131.792938 
" clip-path="url(#p724db53fa1)" style="fill: none; stroke: #ff7f0e; stroke-width: 1.5; stroke-linecap: square"/>
   </g>
   <g id="patch_3">
    <path d="M 57.6 162.432 
L 57.6 41.472 
" style="fill: none; stroke: #000000; stroke-width: 0.8; stroke-linejoin: miter; stroke-linecap: square"/>
   </g>
   <g id="patch_4">
    <path d="M 414.72 162.432 
L 414.72 41.472 
" style="fill: none; stroke: #000000; stroke-width: 0.8; stroke-linejoin: miter; stroke-linecap: square"/>
   </g>
   <g id="patch_5">
    <path d="M 57.6 162.432 
L 414.72 162.432 
" style="fill: none; stroke: #000000; stroke-width: 0.8; stroke-linejoin: miter; stroke-linecap: square"/>
   </g>
   <g id="patch_6">
    <path d="M 57.6 41.472 
L 414.72 41.472 
" style="fill: none; stroke: #000000; stroke-width: 0.8; stroke-linejoin: miter; stroke-linecap: square"/>
   </g>
   <g id="text_12">
    <!-- WSP -->
    <g transform="translate(361.832136 78.185666)scale(0.08 -0.08)">
     <defs>
      <path id="DejaVuSans-57" d="M 213 4666 
L 850 4666 
L 1831 722 
L 2809 4666 
L 3519 4666 
L 4500 722 
L 5478 4666 
L 6119 4666 
L 4947 0 
L 4153 0 
L 3169 4050 
L 2175 0 
L 1381 0 
L 213 4666 
z
" transform="scale(0.015625)"/>
      <path id="DejaVuSans-53" d="M 3425 4513 
L 3425 3897 
Q 3066 4069 2747 4153 
Q 2428 4238 2131 4238 
Q 1616 4238 1336 4038 
Q 1056 3838 1056 3469 
Q 1056 3159 1242 3001 
Q 1428 2844 1947 2747 
L 2328 2669 
Q 3034 2534 3370 2195 
Q 3706 1856 3706 1288 
Q 3706 609 3251 259 
Q 2797 -91 1919 -91 
Q 1588 -91 1214 -16 
Q 841 59 441 206 
L 441 856 
Q 825 641 1194 531 
Q 1563 422 1919 422 
Q 2459 422 2753 634 
Q 3047 847 3047 1241 
Q 3047 1584 2836 1778 
Q 2625 1972 2144 2069 
L 1759 2144 
Q 1053 2284 737 2584 
Q 422 2884 422 3419 
Q 422 4038 858 4394 
Q 1294 4750 2059 4750 
Q 2388 4750 2728 4690 
Q 3069 4631 3425 4513 
z
" transform="scale(0.015625)"/>
      <path id="DejaVuSans-50" d="M 1259 4147 
L 1259 2394 
L 2053 2394 
Q 2494 2394 2734 2622 
Q 2975 2850 2975 3272 
Q 2975 3691 2734 3919 
Q 2494 4147 2053 4147 
L 1259 4147 
z
M 628 4666 
L 2053 4666 
Q 2838 4666 3239 4311 
Q 3641 3956 3641 3272 
Q 3641 2581 3239 2228 
Q 2838 1875 2053 1875 
L 1259 1875 
L 1259 0 
L 628 0 
L 628 4666 
z
" transform="scale(0.015625)"/>
     </defs>
     <use xlink:href="#DejaVuSans-57"/>
     <use xlink:href="#DejaVuSans-53" x="98.876953"/>
     <use xlink:href="#DejaVuSans-50" x="162.353516"/>
    </g>
   </g>
   <g id="text_13">
    <!-- Iambic -->
    <g transform="translate(361.832136 99.823672)scale(0.08 -0.08)">
     <defs>
      <path id="DejaVuSans-49" d="M 628 4666 
L 1259 4666 
L 1259 0 
L 628 0 
L 628 4666 
z
" transform="scale(0.015625)"/>
      <path id="DejaVuSans-61" d="M 2194 1759 
Q 1497 1759 1228 1600 
Q 959 1441 959 1056 
Q 959 750 1161 570 
Q 1363 391 1709 391 
Q 2188 391 2477 730 
Q 2766 1069 2766 1631 
L 2766 1759 
L 2194 1759 
z
M 3341 1997 
L 3341 0 
L 2766 0 
L 2766 531 
Q 2569 213 2275 61 
Q 1981 -91 1556 -91 
Q 1019 -91 701 211 
Q 384 513 384 1019 
Q 384 1609 779 1909 
Q 1175 2209 1959 2209 
L 2766 2209 
L 2766 2266 
Q 2766 2663 2505 2880 
Q 2244 3097 1772 3097 
Q 1472 3097 1187 3025 
Q 903 2953 641 2809 
L 641 3341 
Q 956 3463 1253 3523 
Q 1550 3584 1831 3584 
Q 2591 3584 2966 3190 
Q 3341 2797 3341 1997 
z
" transform="scale(0.015625)"/>
      <path id="DejaVuSans-6d" d="M 3328 2828 
Q 3544 3216 3844 3400 
Q 4144 3584 4550 3584 
Q 5097 3584 5394 3201 
Q 5691 2819 5691 2113 
L 5691 0 
L 5113 0 
L 5113 2094 
Q 5113 2597 4934 2840 
Q 4756 3084 4391 3084 
Q 3944 3084 3684 2787 
Q 3425 2491 3425 1978 
L 3425 0 
L 2847 0 
L 2847 2094 
Q 2847 2600 2669 2842 
Q 2491 3084 2119 3084 
Q 1678 3084 1418 2786 
Q 1159 2488 1159 1978 
L 1159 0 
L 581 0 
L 581 3500 
L 1159 3500 
L 1159 2956 
Q 1356 3278 1631 3431 
Q 1906 3584 2284 3584 
Q 2666 3584 2933 3390 
Q 3200 3197 3328 2828 
z
" transform="scale(0.015625)"/>
      <path id="DejaVuSans-62" d="M 3116 1747 
Q 3116 2381 2855 2742 
Q 2594 3103 2138 3103 
Q 1681 3103 1420 2742 
Q 1159 2381 1159 1747 
Q 1159 1113 1420 752 
Q 1681 391 2138 391 
Q 2594 391 2855 752 
Q 3116 1113 3116 1747 
z
M 1159 2969 
Q 1341 3281 1617 3432 
Q 1894 3584 2278 3584 
Q 2916 3584 3314 3078 
Q 3713 2572 3713 1747 
Q 3713 922 3314 415 
Q 2916 -91 2278 -91 
Q 1894 -91 1617 61 
Q 1341 213 1159 525 
L 1159 0 
L 581 0 
L 581 4863 
L 1159 4863 
L 1159 2969 
z
" transform="scale(0.015625)"/>
      <path id="DejaVuSans-69" d="M 603 3500 
L 1178 3500 
L 1178 0 
L 603 0 
L 603 3500 
z
M 603 4863 
L 1178 4863 
L 1178 4134 
L 603 4134 
L 603 4863 
z
" transform="scale(0.015625)"/>
      <path id="DejaVuSans-63" d="M 3122 3366 
L 3122 2828 
Q 2878 2963 2633 3030 
Q 2388 3097 2138 3097 
Q 1578 3097 1268 2742 
Q 959 2388 959 1747 
Q 959 1106 1268 751 
Q 1578 397 2138 397 
Q 2388 397 2633 464 
Q 2878 531 3122 666 
L 3122 134 
Q 2881 22 2623 -34 
Q 2366 -91 2075 -91 
Q 1284 -91 818 406 
Q 353 903 353 1747 
Q 353 2603 823 3093 
Q 1294 3584 2113 3584 
Q 2378 3584 2631 3529 
Q 2884 3475 3122 3366 
z
" transform="scale(0.015625)"/>
     </defs>
     <use xlink:href="#DejaVuSans-49"/>
     <use xlink:href="#DejaVuSans-61" x="29.492188"/>
     <use xlink:href="#DejaVuSans-6d" x="90.771484"/>
     <use xlink:href="#DejaVuSans-62" x="188.183594"/>
     <use xlink:href="#DejaVuSans-69" x="251.660156"/>
     <use xlink:href="#DejaVuSans-63" x="279.443359"/>
    </g>
   </g>
   <g id="text_14">
    <!-- Parse -->
    <g transform="translate(361.832136 156.933818)scale(0.08 -0.08)">
     <defs>
      <path id="DejaVuSans-72" d="M 2631 2963 
Q 2534 3019 2420 3045 
Q 2306 3072 2169 3072 
Q 1681 3072 1420 2755 
Q 1159 2438 1159 1844 
L 1159 0 
L 581 0 
L 581 3500 
L 1159 3500 
L 1159 2956 
Q 1341 3275 1631 3429 
Q 1922 3584 2338 3584 
Q 2397 3584 2469 3576 
Q 2541 3569 2628 3553 
L 2631 2963 
z
" transform="scale(0.015625)"/>
      <path id="DejaVuSans-73" d="M 2834 3397 
L 2834 2853 
Q 2591 2978 2328 3040 
Q 2066 3103 1784 3103 
Q 1356 3103 1142 2972 
Q 928 2841 928 2578 
Q 928 2378 1081 2264 
Q 1234 2150 1697 2047 
L 1894 2003 
Q 2506 1872 2764 1633 
Q 3022 1394 3022 966 
Q 3022 478 2636 193 
Q 2250 -91 1575 -91 
Q 1294 -91 989 -36 
Q 684 19 347 128 
L 347 722 
Q 666 556 975 473 
Q 1284 391 1588 391 
Q 1994 391 2212 530 
Q 2431 669 2431 922 
Q 2431 1156 2273 1281 
Q 2116 1406 1581 1522 
L 1381 1569 
Q 847 1681 609 1914 
Q 372 2147 372 2553 
Q 372 3047 722 3315 
Q 1072 3584 1716 3584 
Q 2034 3584 2315 3537 
Q 2597 3491 2834 3397 
z
" transform="scale(0.015625)"/>
      <path id="DejaVuSans-65" d="M 3597 1894 
L 3597 1613 
L 953 1613 
Q 991 1019 1311 708 
Q 1631 397 2203 397 
Q 2534 397 2845 478 
Q 3156 559 3463 722 
L 3463 178 
Q 3153 47 2828 -22 
Q 2503 -91 2169 -91 
Q 1331 -91 842 396 
Q 353 884 353 1716 
Q 353 2575 817 3079 
Q 1281 3584 2069 3584 
Q 2775 3584 3186 3129 
Q 3597 2675 3597 1894 
z
M 3022 2063 
Q 3016 2534 2758 2815 
Q 2500 3097 2075 3097 
Q 1594 3097 1305 2825 
Q 1016 2553 972 2059 
L 3022 2063 
z
" transform="scale(0.015625)"/>
     </defs>
     <use xlink:href="#DejaVuSans-50"/>
     <use xlink:href="#DejaVuSans-61" x="55.802734"/>
     <use xlink:href="#DejaVuSans-72" x="117.082031"/>
     <use xlink:href="#DejaVuSans-73" x="158.195312"/>
     <use xlink:href="#DejaVuSans-65" x="210.294922"/>
    </g>
   </g>
   <g id="text_15">
    <!-- FootBin -->
    <g transform="translate(361.832136 63.464727)scale(0.08 -0.08)">
     <defs>
      <path id="DejaVuSans-46" d="M 628 4666 
L 3309 4666 
L 3309 4134 
L 1259 4134 
L 1259 2759 
L 3109 2759 
L 3109 2228 
L 1259 2228 
L 1259 0 
L 628 0 
L 628 4666 
z
" transform="scale(0.015625)"/>
      <path id="DejaVuSans-6f" d="M 1959 3097 
Q 1497 3097 1228 2736 
Q 959 2375 959 1747 
Q 959 1119 1226 758 
Q 1494 397 1959 397 
Q 2419 397 2687 759 
Q 2956 1122 2956 1747 
Q 2956 2369 2687 2733 
Q 2419 3097 1959 3097 
z
M 1959 3584 
Q 2709 3584 3137 3096 
Q 3566 2609 3566 1747 
Q 3566 888 3137 398 
Q 2709 -91 1959 -91 
Q 1206 -91 779 398 
Q 353 888 353 1747 
Q 353 2609 779 3096 
Q 1206 3584 1959 3584 
z
" transform="scale(0.015625)"/>
      <path id="DejaVuSans-74" d="M 1172 4494 
L 1172 3500 
L 2356 3500 
L 2356 3053 
L 1172 3053 
L 1172 1153 
Q 1172 725 1289 603 
Q 1406 481 1766 481 
L 2356 481 
L 2356 0 
L 1766 0 
Q 1100 0 847 248 
Q 594 497 594 1153 
L 594 3053 
L 172 3053 
L 172 3500 
L 594 3500 
L 594 4494 
L 1172 4494 
z
" transform="scale(0.015625)"/>
      <path id="DejaVuSans-42" d="M 1259 2228 
L 1259 519 
L 2272 519 
Q 2781 519 3026 730 
Q 3272 941 3272 1375 
Q 3272 1813 3026 2020 
Q 2781 2228 2272 2228 
L 1259 2228 
z
M 1259 4147 
L 1259 2741 
L 2194 2741 
Q 2656 2741 2882 2914 
Q 3109 3088 3109 3444 
Q 3109 3797 2882 3972 
Q 2656 4147 2194 4147 
L 1259 4147 
z
M 628 4666 
L 2241 4666 
Q 2963 4666 3353 4366 
Q 3744 4066 3744 3513 
Q 3744 3084 3544 2831 
Q 3344 2578 2956 2516 
Q 3422 2416 3680 2098 
Q 3938 1781 3938 1306 
Q 3938 681 3513 340 
Q 3088 0 2303 0 
L 628 0 
L 628 4666 
z
" transform="scale(0.015625)"/>
      <path id="DejaVuSans-6e" d="M 3513 2113 
L 3513 0 
L 2938 0 
L 2938 2094 
Q 2938 2591 2744 2837 
Q 2550 3084 2163 3084 
Q 1697 3084 1428 2787 
Q 1159 2491 1159 1978 
L 1159 0 
L 581 0 
L 581 3500 
L 1159 3500 
L 1159 2956 
Q 1366 3272 1645 3428 
Q 1925 3584 2291 3584 
Q 2894 3584 3203 3211 
Q 3513 2838 3513 2113 
z
" transform="scale(0.015625)"/>
     </defs>
     <use xlink:href="#DejaVuSans-46"/>
     <use xlink:href="#DejaVuSans-6f" x="53.894531"/>
     <use xlink:href="#DejaVuSans-6f" x="115.076172"/>
     <use xlink:href="#DejaVuSans-74" x="176.257812"/>
     <use xlink:href="#DejaVuSans-42" x="215.466797"/>
     <use xlink:href="#DejaVuSans-69" x="284.070312"/>
     <use xlink:href="#DejaVuSans-6e" x="311.853516"/>
    </g>
   </g>
   <g id="text_16">
    <!-- WFL -->
    <g transform="translate(361.832136 91.620739)scale(0.08 -0.08)">
     <defs>
      <path id="DejaVuSans-4c" d="M 628 4666 
L 1259 4666 
L 1259 531 
L 3531 531 
L 3531 0 
L 628 0 
L 628 4666 
z
" transform="scale(0.015625)"/>
     </defs>
     <use xlink:href="#DejaVuSans-57"/>
     <use xlink:href="#DejaVuSans-46" x="98.876953"/>
     <use xlink:href="#DejaVuSans-4c" x="156.396484"/>
    </g>
   </g>
   <g id="text_17">
    <!-- WFR -->
    <g transform="translate(361.832136 112.01722)scale(0.08 -0.08)">
     <defs>
      <path id="DejaVuSans-52" d="M 2841 2188 
Q 3044 2119 3236 1894 
Q 3428 1669 3622 1275 
L 4263 0 
L 3584 0 
L 2988 1197 
Q 2756 1666 2539 1819 
Q 2322 1972 1947 1972 
L 1259 1972 
L 1259 0 
L 628 0 
L 628 4666 
L 2053 4666 
Q 2853 4666 3247 4331 
Q 3641 3997 3641 3322 
Q 3641 2881 3436 2590 
Q 3231 2300 2841 2188 
z
M 1259 4147 
L 1259 2491 
L 2053 2491 
Q 2509 2491 2742 2702 
Q 2975 2913 2975 3322 
Q 2975 3731 2742 3939 
Q 2509 4147 2053 4147 
L 1259 4147 
z
" transform="scale(0.015625)"/>
     </defs>
     <use xlink:href="#DejaVuSans-57"/>
     <use xlink:href="#DejaVuSans-46" x="98.876953"/>
     <use xlink:href="#DejaVuSans-52" x="156.396484"/>
    </g>
   </g>
   <g id="text_18">
    <!-- Main-L -->
    <g transform="translate(361.832136 84.34895)scale(0.08 -0.08)">
     <defs>
      <path id="DejaVuSans-4d" d="M 628 4666 
L 1569 4666 
L 2759 1491 
L 3956 4666 
L 4897 4666 
L 4897 0 
L 4281 0 
L 4281 4097 
L 3078 897 
L 2444 897 
L 1241 4097 
L 1241 0 
L 628 0 
L 628 4666 
z
" transform="scale(0.015625)"/>
      <path id="DejaVuSans-2d" d="M 313 2009 
L 1997 2009 
L 1997 1497 
L 313 1497 
L 313 2009 
z
" transform="scale(0.015625)"/>
     </defs>
     <use xlink:href="#DejaVuSans-4d"/>
     <use xlink:href="#DejaVuSans-61" x="86.279297"/>
     <use xlink:href="#DejaVuSans-69" x="147.558594"/>
     <use xlink:href="#DejaVuSans-6e" x="175.341797"/>
     <use xlink:href="#DejaVuSans-2d" x="238.720703"/>
     <use xlink:href="#DejaVuSans-4c" x="274.804688"/>
    </g>
   </g>
   <g id="text_19">
    <!-- Main-R -->
    <g transform="translate(361.832136 105.011472)scale(0.08 -0.08)">
     <use xlink:href="#DejaVuSans-4d"/>
     <use xlink:href="#DejaVuSans-61" x="86.279297"/>
     <use xlink:href="#DejaVuSans-69" x="147.558594"/>
     <use xlink:href="#DejaVuSans-6e" x="175.341797"/>
     <use xlink:href="#DejaVuSans-2d" x="238.720703"/>
     <use xlink:href="#DejaVuSans-52" x="274.804688"/>
    </g>
   </g>
   <g id="text_20">
    <!-- AFL -->
    <g transform="translate(361.832136 46.970182)scale(0.08 -0.08)">
     <defs>
      <path id="DejaVuSans-41" d="M 2188 4044 
L 1331 1722 
L 3047 1722 
L 2188 4044 
z
M 1831 4666 
L 2547 4666 
L 4325 0 
L 3669 0 
L 3244 1197 
L 1141 1197 
L 716 0 
L 50 0 
L 1831 4666 
z
" transform="scale(0.015625)"/>
     </defs>
     <use xlink:href="#DejaVuSans-41"/>
     <use xlink:href="#DejaVuSans-46" x="68.408203"/>
     <use xlink:href="#DejaVuSans-4c" x="125.927734"/>
    </g>
   </g>
   <g id="text_21">
    <!-- AFR -->
    <g transform="translate(361.832136 93.305666)scale(0.08 -0.08)">
     <use xlink:href="#DejaVuSans-41"/>
     <use xlink:href="#DejaVuSans-46" x="68.408203"/>
     <use xlink:href="#DejaVuSans-52" x="125.927734"/>
    </g>
   </g>
   <g id="text_22">
    <!-- Nonfinal -->
    <g transform="translate(361.832136 115.254053)scale(0.08 -0.08)">
     <defs>
      <path id="DejaVuSans-4e" d="M 628 4666 
L 1478 4666 
L 3547 763 
L 3547 4666 
L 4159 4666 
L 4159 0 
L 3309 0 
L 1241 3903 
L 1241 0 
L 628 0 
L 628 4666 
z
" transform="scale(0.015625)"/>
      <path id="DejaVuSans-66" d="M 2375 4863 
L 2375 4384 
L 1825 4384 
Q 1516 4384 1395 4259 
Q 1275 4134 1275 3809 
L 1275 3500 
L 2222 3500 
L 2222 3053 
L 1275 3053 
L 1275 0 
L 697 0 
L 697 3053 
L 147 3053 
L 147 3500 
L 697 3500 
L 697 3744 
Q 697 4328 969 4595 
Q 1241 4863 1831 4863 
L 2375 4863 
z
" transform="scale(0.015625)"/>
      <path id="DejaVuSans-6c" d="M 603 4863 
L 1178 4863 
L 1178 0 
L 603 0 
L 603 4863 
z
" transform="scale(0.015625)"/>
     </defs>
     <use xlink:href="#DejaVuSans-4e"/>
     <use xlink:href="#DejaVuSans-6f" x="74.804688"/>
     <use xlink:href="#DejaVuSans-6e" x="135.986328"/>
     <use xlink:href="#DejaVuSans-66" x="199.365234"/>
     <use xlink:href="#DejaVuSans-69" x="234.570312"/>
     <use xlink:href="#DejaVuSans-6e" x="262.353516"/>
     <use xlink:href="#DejaVuSans-61" x="325.732422"/>
     <use xlink:href="#DejaVuSans-6c" x="387.011719"/>
    </g>
   </g>
   <g id="text_23">
    <!-- Trochaic -->
    <g transform="translate(361.832136 131.792938)scale(0.08 -0.08)">
     <defs>
      <path id="DejaVuSans-54" d="M -19 4666 
L 3928 4666 
L 3928 4134 
L 2272 4134 
L 2272 0 
L 1638 0 
L 1638 4134 
L -19 4134 
L -19 4666 
z
" transform="scale(0.015625)"/>
      <path id="DejaVuSans-68" d="M 3513 2113 
L 3513 0 
L 2938 0 
L 2938 2094 
Q 2938 2591 2744 2837 
Q 2550 3084 2163 3084 
Q 1697 3084 1428 2787 
Q 1159 2491 1159 1978 
L 1159 0 
L 581 0 
L 581 4863 
L 1159 4863 
L 1159 2956 
Q 1366 3272 1645 3428 
Q 1925 3584 2291 3584 
Q 2894 3584 3203 3211 
Q 3513 2838 3513 2113 
z
" transform="scale(0.015625)"/>
     </defs>
     <use xlink:href="#DejaVuSans-54"/>
     <use xlink:href="#DejaVuSans-72" x="46.333984"/>
     <use xlink:href="#DejaVuSans-6f" x="85.197266"/>
     <use xlink:href="#DejaVuSans-63" x="146.378906"/>
     <use xlink:href="#DejaVuSans-68" x="201.359375"/>
     <use xlink:href="#DejaVuSans-61" x="264.738281"/>
     <use xlink:href="#DejaVuSans-69" x="326.017578"/>
     <use xlink:href="#DejaVuSans-63" x="353.800781"/>
    </g>
   </g>
  </g>
  <g id="axes_2">
   <g id="patch_7">
    <path d="M 57.6 307.584 
L 414.72 307.584 
L 414.72 186.624 
L 57.6 186.624 
z
" style="fill: #ffffff"/>
   </g>
   <g id="matplotlib.axis_3">
    <g id="xtick_8">
     <g id="line2d_24">
      <g>
       <use xlink:href="#m69ab096904" x="70.553388" y="307.584" style="stroke: #000000; stroke-width: 0.8"/>
      </g>
     </g>
     <g id="text_24">
      <!-- 0 -->
      <g transform="translate(67.372138 322.182437)scale(0.1 -0.1)">
       <use xlink:href="#DejaVuSans-30"/>
      </g>
     </g>
    </g>
    <g id="xtick_9">
     <g id="line2d_25">
      <g>
       <use xlink:href="#m69ab096904" x="136.140165" y="307.584" style="stroke: #000000; stroke-width: 0.8"/>
      </g>
     </g>
     <g id="text_25">
      <!-- 20 -->
      <g transform="translate(129.777665 322.182437)scale(0.1 -0.1)">
       <use xlink:href="#DejaVuSans-32"/>
       <use xlink:href="#DejaVuSans-30" x="63.623047"/>
      </g>
     </g>
    </g>
    <g id="xtick_10">
     <g id="line2d_26">
      <g>
       <use xlink:href="#m69ab096904" x="201.726942" y="307.584" style="stroke: #000000; stroke-width: 0.8"/>
      </g>
     </g>
     <g id="text_26">
      <!-- 40 -->
      <g transform="translate(195.364442 322.182437)scale(0.1 -0.1)">
       <use xlink:href="#DejaVuSans-34"/>
       <use xlink:href="#DejaVuSans-30" x="63.623047"/>
      </g>
     </g>
    </g>
    <g id="xtick_11">
     <g id="line2d_27">
      <g>
       <use xlink:href="#m69ab096904" x="267.313719" y="307.584" style="stroke: #000000; stroke-width: 0.8"/>
      </g>
     </g>
     <g id="text_27">
      <!-- 60 -->
      <g transform="translate(260.951219 322.182437)scale(0.1 -0.1)">
       <use xlink:href="#DejaVuSans-36"/>
       <use xlink:href="#DejaVuSans-30" x="63.623047"/>
      </g>
     </g>
    </g>
    <g id="xtick_12">
     <g id="line2d_28">
      <g>
       <use xlink:href="#m69ab096904" x="332.900496" y="307.584" style="stroke: #000000; stroke-width: 0.8"/>
      </g>
     </g>
     <g id="text_28">
      <!-- 80 -->
      <g transform="translate(326.537996 322.182437)scale(0.1 -0.1)">
       <use xlink:href="#DejaVuSans-38"/>
       <use xlink:href="#DejaVuSans-30" x="63.623047"/>
      </g>
     </g>
    </g>
    <g id="xtick_13">
     <g id="line2d_29">
      <g>
       <use xlink:href="#m69ab096904" x="398.487273" y="307.584" style="stroke: #000000; stroke-width: 0.8"/>
      </g>
     </g>
     <g id="text_29">
      <!-- 100 -->
      <g transform="translate(388.943523 322.182437)scale(0.1 -0.1)">
       <use xlink:href="#DejaVuSans-31"/>
       <use xlink:href="#DejaVuSans-30" x="63.623047"/>
       <use xlink:href="#DejaVuSans-30" x="127.246094"/>
      </g>
     </g>
    </g>
   </g>
   <g id="matplotlib.axis_4">
    <g id="ytick_5">
     <g id="line2d_30">
      <g>
       <use xlink:href="#ma489973b01" x="57.6" y="302.095163" style="stroke: #000000; stroke-width: 0.8"/>
      </g>
     </g>
     <g id="text_30">
      <!-- 0 -->
      <g transform="translate(44.2375 305.894382)scale(0.1 -0.1)">
       <use xlink:href="#DejaVuSans-30"/>
      </g>
     </g>
    </g>
    <g id="ytick_6">
     <g id="line2d_31">
      <g>
       <use xlink:href="#ma489973b01" x="57.6" y="278.732446" style="stroke: #000000; stroke-width: 0.8"/>
      </g>
     </g>
     <g id="text_31">
      <!-- 2500 -->
      <g transform="translate(25.15 282.531665)scale(0.1 -0.1)">
       <use xlink:href="#DejaVuSans-32"/>
       <use xlink:href="#DejaVuSans-35" x="63.623047"/>
       <use xlink:href="#DejaVuSans-30" x="127.246094"/>
       <use xlink:href="#DejaVuSans-30" x="190.869141"/>
      </g>
     </g>
    </g>
    <g id="ytick_7">
     <g id="line2d_32">
      <g>
       <use xlink:href="#ma489973b01" x="57.6" y="255.369729" style="stroke: #000000; stroke-width: 0.8"/>
      </g>
     </g>
     <g id="text_32">
      <!-- 5000 -->
      <g transform="translate(25.15 259.168948)scale(0.1 -0.1)">
       <use xlink:href="#DejaVuSans-35"/>
       <use xlink:href="#DejaVuSans-30" x="63.623047"/>
       <use xlink:href="#DejaVuSans-30" x="127.246094"/>
       <use xlink:href="#DejaVuSans-30" x="190.869141"/>
      </g>
     </g>
    </g>
    <g id="ytick_8">
     <g id="line2d_33">
      <g>
       <use xlink:href="#ma489973b01" x="57.6" y="232.007012" style="stroke: #000000; stroke-width: 0.8"/>
      </g>
     </g>
     <g id="text_33">
      <!-- 7500 -->
      <g transform="translate(25.15 235.806231)scale(0.1 -0.1)">
       <use xlink:href="#DejaVuSans-37"/>
       <use xlink:href="#DejaVuSans-35" x="63.623047"/>
       <use xlink:href="#DejaVuSans-30" x="127.246094"/>
       <use xlink:href="#DejaVuSans-30" x="190.869141"/>
      </g>
     </g>
    </g>
    <g id="ytick_9">
     <g id="line2d_34">
      <g>
       <use xlink:href="#ma489973b01" x="57.6" y="208.644295" style="stroke: #000000; stroke-width: 0.8"/>
      </g>
     </g>
     <g id="text_34">
      <!-- 10000 -->
      <g transform="translate(18.7875 212.443514)scale(0.1 -0.1)">
       <use xlink:href="#DejaVuSans-31"/>
       <use xlink:href="#DejaVuSans-30" x="63.623047"/>
       <use xlink:href="#DejaVuSans-30" x="127.246094"/>
       <use xlink:href="#DejaVuSans-30" x="190.869141"/>
       <use xlink:href="#DejaVuSans-30" x="254.492188"/>
      </g>
     </g>
    </g>
   </g>
   <g id="line2d_35">
    <path d="M 73.832727 302.085818 
L 77.112066 302.085818 
L 80.391405 302.085818 
L 83.670744 302.085818 
L 86.950083 302.085818 
L 90.229421 302.057783 
L 93.50876 302.067128 
L 96.788099 302.067128 
L 100.067438 302.067128 
L 103.346777 302.067128 
L 106.626116 302.085818 
L 109.905455 302.067128 
L 113.184793 302.085818 
L 116.464132 302.067128 
L 119.743471 302.067128 
L 123.02281 302.029748 
L 126.302149 302.011057 
L 129.581488 302.076473 
L 132.860826 302.057783 
L 136.140165 302.076473 
L 139.419504 302.085818 
L 142.698843 302.048438 
L 145.978182 302.076473 
L 149.257521 302.011057 
L 152.53686 301.954987 
L 155.816198 302.039093 
L 159.095537 302.039093 
L 162.374876 301.983022 
L 165.654215 301.926952 
L 168.933554 302.067128 
L 172.212893 301.954987 
L 175.492231 301.992367 
L 178.77157 302.057783 
L 182.050909 302.057783 
L 185.330248 302.085818 
L 188.609587 301.936297 
L 191.888926 301.908262 
L 195.168264 302.020403 
L 198.447603 301.936297 
L 201.726942 301.983022 
L 205.006281 302.057783 
L 208.28562 302.039093 
L 211.564959 301.562493 
L 214.844298 301.646599 
L 218.123636 301.954987 
L 221.402975 302.011057 
L 224.682314 302.029748 
L 227.961653 301.842846 
L 231.240992 301.954987 
L 234.520331 301.945642 
L 237.799669 301.74005 
L 241.079008 302.048438 
L 244.358347 302.001712 
L 247.637686 301.945642 
L 250.917025 301.805466 
L 254.196364 300.67471 
L 257.475702 301.581183 
L 260.755041 301.665289 
L 264.03438 301.730705 
L 267.313719 300.908337 
L 270.593058 301.104584 
L 273.872397 301.964332 
L 277.151736 302.001712 
L 280.431074 300.917682 
L 283.710413 301.749395 
L 286.989752 301.216725 
L 290.269091 301.497078 
L 293.54843 301.637254 
L 296.827769 300.543879 
L 300.107107 297.357204 
L 303.386446 299.618715 
L 306.665785 300.515844 
L 309.945124 301.104584 
L 313.224463 300.497153 
L 316.503802 301.029823 
L 319.78314 299.151461 
L 323.062479 299.805617 
L 326.341818 290.535291 
L 329.621157 294.142494 
L 332.900496 298.319748 
L 336.179835 274.928996 
L 339.459174 295.357356 
L 342.738512 285.563705 
L 346.017851 299.310327 
L 349.29719 270.733052 
L 352.576529 296.777809 
L 355.855868 296.095618 
L 359.135207 292.236097 
L 362.414545 255.201518 
L 365.693884 282.162093 
L 368.973223 286.872017 
L 372.252562 298.086121 
L 375.531901 268.864035 
L 378.81124 233.801269 
L 382.090579 300.553224 
L 385.369917 284.853478 
L 388.649256 192.122182 
L 391.928595 275.265419 
L 395.207934 278.0596 
L 398.487273 301.011133 
" clip-path="url(#pd8bcb906af)" style="fill: none; stroke: #1f77b4; stroke-width: 1.5; stroke-linecap: square"/>
   </g>
   <g id="patch_8">
    <path d="M 57.6 307.584 
L 57.6 186.624 
" style="fill: none; stroke: #000000; stroke-width: 0.8; stroke-linejoin: miter; stroke-linecap: square"/>
   </g>
   <g id="patch_9">
    <path d="M 414.72 307.584 
L 414.72 186.624 
" style="fill: none; stroke: #000000; stroke-width: 0.8; stroke-linejoin: miter; stroke-linecap: square"/>
   </g>
   <g id="patch_10">
    <path d="M 57.6 307.584 
L 414.72 307.584 
" style="fill: none; stroke: #000000; stroke-width: 0.8; stroke-linejoin: miter; stroke-linecap: square"/>
   </g>
   <g id="patch_11">
    <path d="M 57.6 186.624 
L 414.72 186.624 
" style="fill: none; stroke: #000000; stroke-width: 0.8; stroke-linejoin: miter; stroke-linecap: square"/>
   </g>
  </g>
 </g>
 <defs>
  <clipPath id="p724db53fa1">
   <rect x="57.6" y="41.472" width="357.12" height="120.96"/>
  </clipPath>
  <clipPath id="pd8bcb906af">
   <rect x="57.6" y="186.624" width="357.12" height="120.96"/>
  </clipPath>
 </defs>
</svg>
