<?xml version="1.0" encoding="utf-8" standalone="no"?>
<!DOCTYPE svg PUBLIC "-//W3C//DTD SVG 1.1//EN"
  "http://www.w3.org/Graphics/SVG/1.1/DTD/svg11.dtd">
<svg xmlns:xlink="http://www.w3.org/1999/xlink" width="460.8pt" height="345.6pt" viewBox="0 0 460.8 345.6" xmlns="http://www.w3.org/2000/svg" version="1.1">
 <metadata>
  <rdf:RDF xmlns:dc="http://purl.org/dc/elements/1.1/" xmlns:cc="http://creativecommons.org/ns#" xmlns:rdf="http://www.w3.org/1999/02/22-rdf-syntax-ns#">
   <cc:Work>
    <dc:type rdf:resource="http://purl.org/dc/dcmitype/StillImage"/>
    <dc:date>2022-05-14T00:03:24.309492</dc:date>
    <dc:format>image/svg+xml</dc:format>
    <dc:creator>
     <cc:Agent>
      <dc:title>Matplotlib v3.5.1, https://matplotlib.org/</dc:title>
     </cc:Agent>
    </dc:creator>
   </cc:Work>
  </rdf:RDF>
 </metadata>
 <defs>
  <style type="text/css">*{stroke-linejoin: round; stroke-linecap: butt}</style>
 </defs>
 <g id="figure_1">
  <g id="patch_1">
   <path d="M 0 345.6 
L 460.8 345.6 
L 460.8 0 
L 0 0 
z
" style="fill: #ffffff"/>
  </g>
  <g id="axes_1">
   <g id="patch_2">
    <path d="M 57.6 162.432 
L 414.72 162.432 
L 414.72 41.472 
L 57.6 41.472 
z
" style="fill: #ffffff"/>
   </g>
   <g id="matplotlib.axis_1">
    <g id="xtick_1">
     <g id="line2d_1">
      <defs>
       <path id="m326e34f4d6" d="M 0 0 
L 0 3.5 
" style="stroke: #000000; stroke-width: 0.8"/>
      </defs>
      <g>
       <use xlink:href="#m326e34f4d6" x="73.827491" y="162.432" style="stroke: #000000; stroke-width: 0.8"/>
      </g>
     </g>
     <g id="text_1">
      <!-- 0 -->
      <g transform="translate(70.646241 177.030437)scale(0.1 -0.1)">
       <defs>
        <path id="DejaVuSans-30" d="M 2034 4250 
Q 1547 4250 1301 3770 
Q 1056 3291 1056 2328 
Q 1056 1369 1301 889 
Q 1547 409 2034 409 
Q 2525 409 2770 889 
Q 3016 1369 3016 2328 
Q 3016 3291 2770 3770 
Q 2525 4250 2034 4250 
z
M 2034 4750 
Q 2819 4750 3233 4129 
Q 3647 3509 3647 2328 
Q 3647 1150 3233 529 
Q 2819 -91 2034 -91 
Q 1250 -91 836 529 
Q 422 1150 422 2328 
Q 422 3509 836 4129 
Q 1250 4750 2034 4750 
z
" transform="scale(0.015625)"/>
       </defs>
       <use xlink:href="#DejaVuSans-30"/>
      </g>
     </g>
    </g>
    <g id="xtick_2">
     <g id="line2d_2">
      <g>
       <use xlink:href="#m326e34f4d6" x="126.191972" y="162.432" style="stroke: #000000; stroke-width: 0.8"/>
      </g>
     </g>
     <g id="text_2">
      <!-- 10000 -->
      <g transform="translate(110.285722 177.030437)scale(0.1 -0.1)">
       <defs>
        <path id="DejaVuSans-31" d="M 794 531 
L 1825 531 
L 1825 4091 
L 703 3866 
L 703 4441 
L 1819 4666 
L 2450 4666 
L 2450 531 
L 3481 531 
L 3481 0 
L 794 0 
L 794 531 
z
" transform="scale(0.015625)"/>
       </defs>
       <use xlink:href="#DejaVuSans-31"/>
       <use xlink:href="#DejaVuSans-30" x="63.623047"/>
       <use xlink:href="#DejaVuSans-30" x="127.246094"/>
       <use xlink:href="#DejaVuSans-30" x="190.869141"/>
       <use xlink:href="#DejaVuSans-30" x="254.492188"/>
      </g>
     </g>
    </g>
    <g id="xtick_3">
     <g id="line2d_3">
      <g>
       <use xlink:href="#m326e34f4d6" x="178.556453" y="162.432" style="stroke: #000000; stroke-width: 0.8"/>
      </g>
     </g>
     <g id="text_3">
      <!-- 20000 -->
      <g transform="translate(162.650203 177.030437)scale(0.1 -0.1)">
       <defs>
        <path id="DejaVuSans-32" d="M 1228 531 
L 3431 531 
L 3431 0 
L 469 0 
L 469 531 
Q 828 903 1448 1529 
Q 2069 2156 2228 2338 
Q 2531 2678 2651 2914 
Q 2772 3150 2772 3378 
Q 2772 3750 2511 3984 
Q 2250 4219 1831 4219 
Q 1534 4219 1204 4116 
Q 875 4013 500 3803 
L 500 4441 
Q 881 4594 1212 4672 
Q 1544 4750 1819 4750 
Q 2544 4750 2975 4387 
Q 3406 4025 3406 3419 
Q 3406 3131 3298 2873 
Q 3191 2616 2906 2266 
Q 2828 2175 2409 1742 
Q 1991 1309 1228 531 
z
" transform="scale(0.015625)"/>
       </defs>
       <use xlink:href="#DejaVuSans-32"/>
       <use xlink:href="#DejaVuSans-30" x="63.623047"/>
       <use xlink:href="#DejaVuSans-30" x="127.246094"/>
       <use xlink:href="#DejaVuSans-30" x="190.869141"/>
       <use xlink:href="#DejaVuSans-30" x="254.492188"/>
      </g>
     </g>
    </g>
    <g id="xtick_4">
     <g id="line2d_4">
      <g>
       <use xlink:href="#m326e34f4d6" x="230.920934" y="162.432" style="stroke: #000000; stroke-width: 0.8"/>
      </g>
     </g>
     <g id="text_4">
      <!-- 30000 -->
      <g transform="translate(215.014684 177.030437)scale(0.1 -0.1)">
       <defs>
        <path id="DejaVuSans-33" d="M 2597 2516 
Q 3050 2419 3304 2112 
Q 3559 1806 3559 1356 
Q 3559 666 3084 287 
Q 2609 -91 1734 -91 
Q 1441 -91 1130 -33 
Q 819 25 488 141 
L 488 750 
Q 750 597 1062 519 
Q 1375 441 1716 441 
Q 2309 441 2620 675 
Q 2931 909 2931 1356 
Q 2931 1769 2642 2001 
Q 2353 2234 1838 2234 
L 1294 2234 
L 1294 2753 
L 1863 2753 
Q 2328 2753 2575 2939 
Q 2822 3125 2822 3475 
Q 2822 3834 2567 4026 
Q 2313 4219 1838 4219 
Q 1578 4219 1281 4162 
Q 984 4106 628 3988 
L 628 4550 
Q 988 4650 1302 4700 
Q 1616 4750 1894 4750 
Q 2613 4750 3031 4423 
Q 3450 4097 3450 3541 
Q 3450 3153 3228 2886 
Q 3006 2619 2597 2516 
z
" transform="scale(0.015625)"/>
       </defs>
       <use xlink:href="#DejaVuSans-33"/>
       <use xlink:href="#DejaVuSans-30" x="63.623047"/>
       <use xlink:href="#DejaVuSans-30" x="127.246094"/>
       <use xlink:href="#DejaVuSans-30" x="190.869141"/>
       <use xlink:href="#DejaVuSans-30" x="254.492188"/>
      </g>
     </g>
    </g>
    <g id="xtick_5">
     <g id="line2d_5">
      <g>
       <use xlink:href="#m326e34f4d6" x="283.285415" y="162.432" style="stroke: #000000; stroke-width: 0.8"/>
      </g>
     </g>
     <g id="text_5">
      <!-- 40000 -->
      <g transform="translate(267.379165 177.030437)scale(0.1 -0.1)">
       <defs>
        <path id="DejaVuSans-34" d="M 2419 4116 
L 825 1625 
L 2419 1625 
L 2419 4116 
z
M 2253 4666 
L 3047 4666 
L 3047 1625 
L 3713 1625 
L 3713 1100 
L 3047 1100 
L 3047 0 
L 2419 0 
L 2419 1100 
L 313 1100 
L 313 1709 
L 2253 4666 
z
" transform="scale(0.015625)"/>
       </defs>
       <use xlink:href="#DejaVuSans-34"/>
       <use xlink:href="#DejaVuSans-30" x="63.623047"/>
       <use xlink:href="#DejaVuSans-30" x="127.246094"/>
       <use xlink:href="#DejaVuSans-30" x="190.869141"/>
       <use xlink:href="#DejaVuSans-30" x="254.492188"/>
      </g>
     </g>
    </g>
    <g id="xtick_6">
     <g id="line2d_6">
      <g>
       <use xlink:href="#m326e34f4d6" x="335.649896" y="162.432" style="stroke: #000000; stroke-width: 0.8"/>
      </g>
     </g>
     <g id="text_6">
      <!-- 50000 -->
      <g transform="translate(319.743646 177.030437)scale(0.1 -0.1)">
       <defs>
        <path id="DejaVuSans-35" d="M 691 4666 
L 3169 4666 
L 3169 4134 
L 1269 4134 
L 1269 2991 
Q 1406 3038 1543 3061 
Q 1681 3084 1819 3084 
Q 2600 3084 3056 2656 
Q 3513 2228 3513 1497 
Q 3513 744 3044 326 
Q 2575 -91 1722 -91 
Q 1428 -91 1123 -41 
Q 819 9 494 109 
L 494 744 
Q 775 591 1075 516 
Q 1375 441 1709 441 
Q 2250 441 2565 725 
Q 2881 1009 2881 1497 
Q 2881 1984 2565 2268 
Q 2250 2553 1709 2553 
Q 1456 2553 1204 2497 
Q 953 2441 691 2322 
L 691 4666 
z
" transform="scale(0.015625)"/>
       </defs>
       <use xlink:href="#DejaVuSans-35"/>
       <use xlink:href="#DejaVuSans-30" x="63.623047"/>
       <use xlink:href="#DejaVuSans-30" x="127.246094"/>
       <use xlink:href="#DejaVuSans-30" x="190.869141"/>
       <use xlink:href="#DejaVuSans-30" x="254.492188"/>
      </g>
     </g>
    </g>
    <g id="xtick_7">
     <g id="line2d_7">
      <g>
       <use xlink:href="#m326e34f4d6" x="388.014377" y="162.432" style="stroke: #000000; stroke-width: 0.8"/>
      </g>
     </g>
     <g id="text_7">
      <!-- 60000 -->
      <g transform="translate(372.108127 177.030437)scale(0.1 -0.1)">
       <defs>
        <path id="DejaVuSans-36" d="M 2113 2584 
Q 1688 2584 1439 2293 
Q 1191 2003 1191 1497 
Q 1191 994 1439 701 
Q 1688 409 2113 409 
Q 2538 409 2786 701 
Q 3034 994 3034 1497 
Q 3034 2003 2786 2293 
Q 2538 2584 2113 2584 
z
M 3366 4563 
L 3366 3988 
Q 3128 4100 2886 4159 
Q 2644 4219 2406 4219 
Q 1781 4219 1451 3797 
Q 1122 3375 1075 2522 
Q 1259 2794 1537 2939 
Q 1816 3084 2150 3084 
Q 2853 3084 3261 2657 
Q 3669 2231 3669 1497 
Q 3669 778 3244 343 
Q 2819 -91 2113 -91 
Q 1303 -91 875 529 
Q 447 1150 447 2328 
Q 447 3434 972 4092 
Q 1497 4750 2381 4750 
Q 2619 4750 2861 4703 
Q 3103 4656 3366 4563 
z
" transform="scale(0.015625)"/>
       </defs>
       <use xlink:href="#DejaVuSans-36"/>
       <use xlink:href="#DejaVuSans-30" x="63.623047"/>
       <use xlink:href="#DejaVuSans-30" x="127.246094"/>
       <use xlink:href="#DejaVuSans-30" x="190.869141"/>
       <use xlink:href="#DejaVuSans-30" x="254.492188"/>
      </g>
     </g>
    </g>
   </g>
   <g id="matplotlib.axis_2">
    <g id="ytick_1">
     <g id="line2d_8">
      <defs>
       <path id="m104a02c4dd" d="M 0 0 
L -3.5 0 
" style="stroke: #000000; stroke-width: 0.8"/>
      </defs>
      <g>
       <use xlink:href="#m104a02c4dd" x="57.6" y="134.182721" style="stroke: #000000; stroke-width: 0.8"/>
      </g>
     </g>
     <g id="text_8">
      <!-- 80 -->
      <g transform="translate(37.875 137.98194)scale(0.1 -0.1)">
       <defs>
        <path id="DejaVuSans-38" d="M 2034 2216 
Q 1584 2216 1326 1975 
Q 1069 1734 1069 1313 
Q 1069 891 1326 650 
Q 1584 409 2034 409 
Q 2484 409 2743 651 
Q 3003 894 3003 1313 
Q 3003 1734 2745 1975 
Q 2488 2216 2034 2216 
z
M 1403 2484 
Q 997 2584 770 2862 
Q 544 3141 544 3541 
Q 544 4100 942 4425 
Q 1341 4750 2034 4750 
Q 2731 4750 3128 4425 
Q 3525 4100 3525 3541 
Q 3525 3141 3298 2862 
Q 3072 2584 2669 2484 
Q 3125 2378 3379 2068 
Q 3634 1759 3634 1313 
Q 3634 634 3220 271 
Q 2806 -91 2034 -91 
Q 1263 -91 848 271 
Q 434 634 434 1313 
Q 434 1759 690 2068 
Q 947 2378 1403 2484 
z
M 1172 3481 
Q 1172 3119 1398 2916 
Q 1625 2713 2034 2713 
Q 2441 2713 2670 2916 
Q 2900 3119 2900 3481 
Q 2900 3844 2670 4047 
Q 2441 4250 2034 4250 
Q 1625 4250 1398 4047 
Q 1172 3844 1172 3481 
z
" transform="scale(0.015625)"/>
       </defs>
       <use xlink:href="#DejaVuSans-38"/>
       <use xlink:href="#DejaVuSans-30" x="63.623047"/>
      </g>
     </g>
    </g>
    <g id="ytick_2">
     <g id="line2d_9">
      <g>
       <use xlink:href="#m104a02c4dd" x="57.6" y="98.634132" style="stroke: #000000; stroke-width: 0.8"/>
      </g>
     </g>
     <g id="text_9">
      <!-- 90 -->
      <g transform="translate(37.875 102.43335)scale(0.1 -0.1)">
       <defs>
        <path id="DejaVuSans-39" d="M 703 97 
L 703 672 
Q 941 559 1184 500 
Q 1428 441 1663 441 
Q 2288 441 2617 861 
Q 2947 1281 2994 2138 
Q 2813 1869 2534 1725 
Q 2256 1581 1919 1581 
Q 1219 1581 811 2004 
Q 403 2428 403 3163 
Q 403 3881 828 4315 
Q 1253 4750 1959 4750 
Q 2769 4750 3195 4129 
Q 3622 3509 3622 2328 
Q 3622 1225 3098 567 
Q 2575 -91 1691 -91 
Q 1453 -91 1209 -44 
Q 966 3 703 97 
z
M 1959 2075 
Q 2384 2075 2632 2365 
Q 2881 2656 2881 3163 
Q 2881 3666 2632 3958 
Q 2384 4250 1959 4250 
Q 1534 4250 1286 3958 
Q 1038 3666 1038 3163 
Q 1038 2656 1286 2365 
Q 1534 2075 1959 2075 
z
" transform="scale(0.015625)"/>
       </defs>
       <use xlink:href="#DejaVuSans-39"/>
       <use xlink:href="#DejaVuSans-30" x="63.623047"/>
      </g>
     </g>
    </g>
    <g id="ytick_3">
     <g id="line2d_10">
      <g>
       <use xlink:href="#m104a02c4dd" x="57.6" y="63.085542" style="stroke: #000000; stroke-width: 0.8"/>
      </g>
     </g>
     <g id="text_10">
      <!-- 100 -->
      <g transform="translate(31.5125 66.884761)scale(0.1 -0.1)">
       <use xlink:href="#DejaVuSans-31"/>
       <use xlink:href="#DejaVuSans-30" x="63.623047"/>
       <use xlink:href="#DejaVuSans-30" x="127.246094"/>
      </g>
     </g>
    </g>
   </g>
   <g id="line2d_11">
    <path d="M 73.832727 61.900589 
L 73.837964 61.900589 
L 73.995057 55.561091 
L 74.047422 55.561091 
L 74.162624 54.376138 
L 74.304008 54.376138 
L 74.419209 53.191185 
L 74.895726 53.191185 
L 75.016165 50.821279 
L 76.220548 50.821279 
L 76.335749 49.636326 
L 80.210721 49.636326 
L 80.325923 49.04385 
L 141.513819 49.04385 
L 141.629021 48.155135 
L 150.290106 48.155135 
L 150.405308 46.970182 
L 398.487273 46.970182 
L 398.487273 46.970182 
" clip-path="url(#p2b8eec8483)" style="fill: none; stroke: #1f77b4; stroke-width: 1.5; stroke-linecap: square"/>
   </g>
   <g id="line2d_12">
    <path d="M 73.832727 66.640401 
L 73.963638 82.222533 
L 73.989821 82.222533 
L 74.063131 78.371436 
L 74.099786 81.926295 
L 74.141678 81.926295 
L 74.199279 89.036013 
L 74.25688 88.147298 
L 74.377318 88.147298 
L 74.49252 91.702157 
L 74.597249 91.702157 
L 74.712451 95.257016 
L 74.785761 95.257016 
L 74.900963 98.811875 
L 74.9638 98.811875 
L 75.016165 97.626922 
L 75.021401 101.181781 
L 75.063293 101.181781 
L 75.346061 101.181781 
L 75.461263 104.736639 
L 75.576464 103.551687 
L 76.220548 103.551687 
L 76.335749 102.366734 
L 77.346384 102.366734 
L 77.461586 105.921592 
L 79.084885 105.921592 
L 79.200087 104.736639 
L 79.503801 104.736639 
L 79.619002 108.291498 
L 80.210721 108.291498 
L 80.325923 107.699022 
L 82.771344 107.699022 
L 82.886546 111.253881 
L 84.22184 111.253881 
L 84.337042 114.80874 
L 85.206293 114.80874 
L 85.248184 113.623787 
L 85.253421 117.178646 
L 85.305785 117.178646 
L 85.609499 117.178646 
L 85.724701 120.733505 
L 87.164724 120.733505 
L 87.279926 118.956075 
L 89.437343 118.956075 
L 89.552544 122.510934 
L 91.18108 122.510934 
L 91.296282 121.325981 
L 93.663156 121.325981 
L 93.778358 120.141028 
L 99.695544 120.141028 
L 99.810746 123.695887 
L 109.089732 123.695887 
L 109.204934 127.250746 
L 120.913632 127.250746 
L 121.028834 130.805605 
L 126.045351 130.805605 
L 126.160553 129.620652 
L 126.38572 129.620652 
L 126.500922 128.90968 
L 130.224037 128.90968 
L 130.339239 132.464539 
L 138.832757 132.464539 
L 138.947959 131.279586 
L 139.612988 131.279586 
L 139.72819 134.834445 
L 141.199632 134.834445 
L 141.314834 133.057016 
L 141.513819 133.057016 
L 141.629021 132.168301 
L 157.977212 132.168301 
L 158.092414 130.983348 
L 202.675533 130.983348 
L 202.790735 130.272376 
L 206.754726 130.272376 
L 206.869928 129.087423 
L 273.116232 129.087423 
L 273.231434 132.642282 
L 299.350837 132.642282 
L 299.466039 131.457329 
L 310.054137 131.457329 
L 310.169339 135.012188 
L 398.487273 135.012188 
L 398.487273 135.012188 
" clip-path="url(#p2b8eec8483)" style="fill: none; stroke: #ff7f0e; stroke-width: 1.5; stroke-linecap: square"/>
   </g>
   <g id="line2d_13">
    <path d="M 73.832727 61.900589 
L 73.853673 59.589931 
L 73.869382 70.254508 
L 74.021239 99.878332 
L 74.031712 99.878332 
L 74.036949 98.989618 
L 74.047422 106.099335 
L 74.105023 106.099335 
L 74.141678 106.099335 
L 74.199279 104.914382 
L 74.204515 108.469241 
L 74.24117 108.469241 
L 74.304008 108.469241 
L 74.351136 107.284288 
L 74.356372 110.839147 
L 74.408737 109.654194 
L 74.597249 109.654194 
L 74.623431 108.76548 
L 74.628667 112.320339 
L 74.691505 112.320339 
L 74.785761 112.320339 
L 74.900963 111.135386 
L 74.9638 111.135386 
L 74.979509 114.690245 
L 75.073765 112.320339 
L 75.346061 112.320339 
L 75.461263 111.135386 
L 75.576464 114.690245 
L 76.220548 114.690245 
L 76.335749 113.505292 
L 77.199763 113.505292 
L 77.314965 117.06015 
L 77.346384 117.06015 
L 77.461586 116.467674 
L 79.084885 116.467674 
L 79.200087 120.022533 
L 79.503801 120.022533 
L 79.619002 119.133818 
L 80.210721 119.133818 
L 80.320686 118.541342 
L 80.435888 122.096201 
L 82.771344 122.096201 
L 82.886546 120.911248 
L 84.22184 120.911248 
L 84.337042 120.022533 
L 85.206293 120.022533 
L 85.248184 123.577392 
L 85.321494 122.86642 
L 85.609499 122.86642 
L 85.724701 121.977705 
L 87.164724 121.977705 
L 87.279926 125.532564 
L 88.672821 125.532564 
L 88.788023 129.087423 
L 89.437343 129.087423 
L 89.552544 128.198708 
L 91.18108 128.198708 
L 91.296282 131.753567 
L 93.663156 131.753567 
L 93.778358 135.308426 
L 99.695544 135.308426 
L 99.810746 134.419712 
L 109.089732 134.419712 
L 109.204934 133.234759 
L 111.320459 133.234759 
L 111.435661 136.789618 
L 120.913632 136.789618 
L 121.028834 135.900903 
L 126.045351 135.900903 
L 126.160553 139.455762 
L 126.38572 139.455762 
L 126.500922 143.010621 
L 130.224037 143.010621 
L 130.339239 142.121906 
L 138.832757 142.121906 
L 138.947959 145.676765 
L 139.612988 145.676765 
L 139.72819 144.78805 
L 141.199632 144.78805 
L 141.314834 148.342909 
L 141.513819 148.342909 
L 141.629021 147.454194 
L 150.290106 147.454194 
L 150.405308 146.269241 
L 157.977212 146.269241 
L 158.092414 149.8241 
L 206.754726 149.8241 
L 206.869928 153.378959 
L 299.350837 153.378959 
L 299.466039 156.933818 
L 398.487273 156.933818 
L 398.487273 156.933818 
" clip-path="url(#p2b8eec8483)" style="fill: none; stroke: #2ca02c; stroke-width: 1.5; stroke-linecap: square"/>
   </g>
   <g id="line2d_14">
    <path d="M 73.832727 63.085542 
L 73.879855 61.485856 
L 73.885092 65.040715 
L 73.911274 64.448238 
L 73.921747 68.003097 
L 74.021239 65.929429 
L 74.036949 65.929429 
L 74.152151 63.855762 
L 74.199279 63.855762 
L 74.31448 62.967047 
L 74.351136 62.967047 
L 74.466337 61.782094 
L 77.199763 61.782094 
L 77.314965 60.597141 
L 77.346384 60.597141 
L 77.461586 60.004665 
L 79.362416 60.004665 
L 79.477618 59.11595 
L 84.227077 59.11595 
L 84.342279 58.227235 
L 85.410514 58.227235 
L 85.525716 57.33852 
L 87.662187 57.33852 
L 87.777389 56.449806 
L 88.672821 56.449806 
L 88.788023 55.264853 
L 126.38572 55.264853 
L 126.500922 54.553881 
L 141.513819 54.553881 
L 141.629021 58.10874 
L 161.229046 58.10874 
L 161.344248 57.220025 
L 310.054137 57.220025 
L 310.169339 56.33131 
L 398.487273 56.33131 
L 398.487273 56.33131 
" clip-path="url(#p2b8eec8483)" style="fill: none; stroke: #d62728; stroke-width: 1.5; stroke-linecap: square"/>
   </g>
   <g id="line2d_15">
    <path d="M 73.832727 63.085542 
L 73.900801 63.085542 
L 74.026476 73.750119 
L 74.031712 73.750119 
L 74.036949 72.861404 
L 74.052658 79.971122 
L 74.105023 79.971122 
L 74.141678 79.971122 
L 74.146914 78.786169 
L 74.204515 85.895887 
L 74.225461 85.895887 
L 74.351136 85.895887 
L 74.377318 89.450746 
L 74.461101 88.265793 
L 74.597249 88.265793 
L 74.712451 87.377078 
L 74.785761 87.377078 
L 74.895726 86.192125 
L 75.010928 89.746984 
L 75.016165 89.746984 
L 75.131366 88.562031 
L 75.346061 88.562031 
L 75.461263 87.377078 
L 77.199763 87.377078 
L 77.314965 90.931937 
L 79.503801 90.931937 
L 79.619002 90.043223 
L 80.210721 90.043223 
L 80.325923 89.450746 
L 82.771344 89.450746 
L 82.886546 88.265793 
L 84.22184 88.265793 
L 84.337042 87.377078 
L 85.248184 87.377078 
L 85.363386 86.666107 
L 85.609499 86.666107 
L 85.724701 85.777392 
L 87.662187 85.777392 
L 87.777389 89.332251 
L 88.672821 89.332251 
L 88.788023 92.88711 
L 89.437343 92.88711 
L 89.552544 91.998395 
L 99.695544 91.998395 
L 99.810746 91.10968 
L 120.913632 91.10968 
L 121.028834 90.220966 
L 130.224037 90.220966 
L 130.339239 89.332251 
L 139.612988 89.332251 
L 139.72819 88.443536 
L 202.675533 88.443536 
L 202.790735 87.732564 
L 310.054137 87.732564 
L 310.169339 91.287423 
L 398.487273 91.287423 
L 398.487273 91.287423 
" clip-path="url(#p2b8eec8483)" style="fill: none; stroke: #9467bd; stroke-width: 1.5; stroke-linecap: square"/>
   </g>
   <g id="line2d_16">
    <path d="M 73.832727 63.085542 
L 73.837964 63.085542 
L 73.85891 61.485856 
L 73.900801 67.410621 
L 73.906038 67.410621 
L 74.047422 88.147298 
L 74.063131 88.147298 
L 74.146914 91.702157 
L 74.173096 90.813442 
L 74.304008 90.813442 
L 74.419209 89.628489 
L 74.623431 89.628489 
L 74.738633 93.183348 
L 74.9638 93.183348 
L 74.979509 96.738207 
L 75.073765 95.553254 
L 75.461263 95.553254 
L 75.576464 99.108113 
L 77.346384 99.108113 
L 77.461586 98.515636 
L 79.084885 98.515636 
L 79.200087 102.070495 
L 80.210721 102.070495 
L 80.320686 101.478019 
L 80.435888 105.032878 
L 85.206293 105.032878 
L 85.248184 108.587737 
L 85.321494 107.876765 
L 93.663156 107.876765 
L 93.778358 111.431624 
L 111.320459 111.431624 
L 111.435661 114.986483 
L 126.045351 114.986483 
L 126.160553 118.541342 
L 141.513819 118.541342 
L 141.629021 117.652627 
L 150.290106 117.652627 
L 150.405308 116.467674 
L 157.977212 116.467674 
L 158.092414 120.022533 
L 206.754726 120.022533 
L 206.869928 123.577392 
L 299.350837 123.577392 
L 299.466039 127.132251 
L 310.054137 127.132251 
L 310.169339 126.243536 
L 398.487273 126.243536 
L 398.487273 126.243536 
" clip-path="url(#p2b8eec8483)" style="fill: none; stroke: #8c564b; stroke-width: 1.5; stroke-linecap: square"/>
   </g>
   <g id="line2d_17">
    <path d="M 73.832727 63.085542 
L 73.900801 60.478646 
L 73.906038 64.033505 
L 73.921747 63.14479 
L 74.042185 72.031937 
L 74.047422 70.254508 
L 74.052658 73.809367 
L 74.146914 71.735699 
L 74.262116 75.290558 
L 74.351136 75.290558 
L 74.377318 78.845417 
L 74.461101 77.660464 
L 74.597249 77.660464 
L 74.712451 76.771749 
L 74.785761 76.771749 
L 74.895726 75.586796 
L 75.010928 79.141655 
L 75.016165 79.141655 
L 75.131366 77.956702 
L 75.346061 77.956702 
L 75.461263 76.771749 
L 77.199763 76.771749 
L 77.314965 80.326608 
L 79.503801 80.326608 
L 79.619002 79.437893 
L 80.210721 79.437893 
L 80.325923 78.845417 
L 82.771344 78.845417 
L 82.886546 77.660464 
L 84.22184 77.660464 
L 84.337042 76.771749 
L 85.248184 76.771749 
L 85.363386 76.060777 
L 85.609499 76.060777 
L 85.724701 75.172063 
L 87.662187 75.172063 
L 87.777389 78.726922 
L 88.672821 78.726922 
L 88.788023 82.281781 
L 89.437343 82.281781 
L 89.552544 81.393066 
L 99.695544 81.393066 
L 99.810746 80.504351 
L 120.913632 80.504351 
L 121.028834 79.615636 
L 130.224037 79.615636 
L 130.339239 78.726922 
L 139.612988 78.726922 
L 139.72819 77.838207 
L 202.675533 77.838207 
L 202.790735 77.127235 
L 310.054137 77.127235 
L 310.169339 80.682094 
L 398.487273 80.682094 
L 398.487273 80.682094 
" clip-path="url(#p2b8eec8483)" style="fill: none; stroke: #e377c2; stroke-width: 1.5; stroke-linecap: square"/>
   </g>
   <g id="line2d_18">
    <path d="M 73.832727 63.085542 
L 73.974111 85.303411 
L 74.000294 85.303411 
L 74.031712 84.414696 
L 74.047422 90.339461 
L 74.063131 89.154508 
L 74.146914 96.264226 
L 74.178333 95.375511 
L 74.194042 95.375511 
L 74.199279 98.93037 
L 74.304008 98.041655 
L 74.351136 98.041655 
L 74.377318 96.856702 
L 74.382554 100.411561 
L 74.450628 100.411561 
L 74.597249 100.411561 
L 74.712451 103.96642 
L 74.785761 103.96642 
L 74.895726 107.521279 
L 75.010928 106.336326 
L 75.016165 106.336326 
L 75.131366 109.891185 
L 75.346061 109.891185 
L 75.461263 113.446044 
L 77.199763 113.446044 
L 77.314965 112.261091 
L 77.346384 112.261091 
L 77.461586 111.668614 
L 79.362416 111.668614 
L 79.477618 110.7799 
L 79.503801 110.7799 
L 79.619002 114.334759 
L 80.210721 114.334759 
L 80.325923 117.889618 
L 82.771344 117.889618 
L 82.886546 121.444476 
L 84.22184 121.444476 
L 84.227077 124.999335 
L 84.331806 124.110621 
L 85.248184 124.110621 
L 85.363386 127.66548 
L 85.410514 127.66548 
L 85.525716 126.776765 
L 85.609499 126.776765 
L 85.724701 130.331624 
L 87.164724 130.331624 
L 87.279926 133.886483 
L 87.662187 133.886483 
L 87.777389 132.997768 
L 88.672821 132.997768 
L 88.788023 131.812815 
L 89.437343 131.812815 
L 89.552544 135.367674 
L 99.695544 135.367674 
L 99.810746 138.922533 
L 120.913632 138.922533 
L 121.028834 142.477392 
L 126.38572 142.477392 
L 126.500922 141.76642 
L 130.224037 141.76642 
L 130.339239 145.321279 
L 139.612988 145.321279 
L 139.72819 148.876138 
L 141.199632 148.876138 
L 141.314834 152.430997 
L 141.513819 152.430997 
L 141.629021 155.985856 
L 161.229046 155.985856 
L 161.344248 155.097141 
L 310.054137 155.097141 
L 310.169339 154.208426 
L 398.487273 154.208426 
L 398.487273 154.208426 
" clip-path="url(#p2b8eec8483)" style="fill: none; stroke: #7f7f7f; stroke-width: 1.5; stroke-linecap: square"/>
   </g>
   <g id="line2d_19">
    <path d="M 73.832727 66.640401 
L 73.837964 65.929429 
L 73.853673 73.039147 
L 73.900801 71.854194 
L 73.937456 76.890245 
L 74.010767 74.2241 
L 74.047422 74.2241 
L 74.063131 77.778959 
L 74.157387 76.890245 
L 74.304008 76.890245 
L 74.419209 80.445103 
L 74.597249 80.445103 
L 74.623431 83.999962 
L 74.707214 82.815009 
L 74.895726 82.815009 
L 75.010928 88.739774 
L 75.461263 88.739774 
L 75.576464 87.554821 
L 76.220548 87.554821 
L 76.335749 91.10968 
L 77.346384 91.10968 
L 77.461586 90.517204 
L 79.084885 90.517204 
L 79.200087 89.332251 
L 79.362416 89.332251 
L 79.477618 88.443536 
L 79.503801 88.443536 
L 79.619002 91.998395 
L 80.210721 91.998395 
L 80.320686 95.553254 
L 80.435888 94.368301 
L 84.22184 94.368301 
L 84.227077 97.92316 
L 84.331806 97.034445 
L 85.206293 97.034445 
L 85.248184 95.849492 
L 85.253421 99.404351 
L 85.305785 99.404351 
L 85.410514 99.404351 
L 85.525716 98.515636 
L 85.609499 98.515636 
L 85.724701 102.070495 
L 87.164724 102.070495 
L 87.279926 100.293066 
L 87.662187 100.293066 
L 87.777389 99.404351 
L 89.437343 99.404351 
L 89.552544 102.95921 
L 91.18108 102.95921 
L 91.296282 101.774257 
L 93.663156 101.774257 
L 93.778358 100.589304 
L 99.695544 100.589304 
L 99.810746 104.144163 
L 111.320459 104.144163 
L 111.435661 102.95921 
L 120.913632 102.95921 
L 121.028834 106.514069 
L 126.045351 106.514069 
L 126.160553 105.329116 
L 126.38572 105.329116 
L 126.500922 104.618144 
L 130.224037 104.618144 
L 130.339239 108.173003 
L 138.832757 108.173003 
L 138.947959 106.98805 
L 139.612988 106.98805 
L 139.72819 110.542909 
L 141.199632 110.542909 
L 141.314834 108.76548 
L 141.513819 108.76548 
L 141.629021 112.320339 
L 150.290106 112.320339 
L 150.405308 115.875197 
L 157.977212 115.875197 
L 158.092414 114.690245 
L 161.229046 114.690245 
L 161.344248 113.80153 
L 202.675533 113.80153 
L 202.790735 113.090558 
L 206.754726 113.090558 
L 206.869928 111.905605 
L 299.350837 111.905605 
L 299.466039 110.720652 
L 398.487273 110.720652 
L 398.487273 110.720652 
" clip-path="url(#p2b8eec8483)" style="fill: none; stroke: #bcbd22; stroke-width: 1.5; stroke-linecap: square"/>
   </g>
   <g id="line2d_20">
    <path d="M 73.832727 66.640401 
L 73.837964 65.929429 
L 73.853673 73.039147 
L 73.879855 72.446671 
L 73.921747 82.518771 
L 74.000294 80.445103 
L 74.031712 79.556389 
L 74.047422 85.481154 
L 74.089313 83.407486 
L 74.141678 83.407486 
L 74.146914 86.962345 
L 74.251643 85.184915 
L 74.304008 85.184915 
L 74.419209 91.10968 
L 74.597249 91.10968 
L 74.623431 94.664539 
L 74.707214 93.479586 
L 74.785761 93.479586 
L 74.895726 97.034445 
L 75.010928 95.849492 
L 75.016165 95.849492 
L 75.131366 99.404351 
L 75.346061 99.404351 
L 75.461263 102.95921 
L 76.220548 102.95921 
L 76.335749 106.514069 
L 77.199763 106.514069 
L 77.314965 105.329116 
L 77.346384 105.329116 
L 77.461586 104.736639 
L 79.362416 104.736639 
L 79.477618 103.847925 
L 79.503801 103.847925 
L 79.619002 107.402784 
L 80.210721 107.402784 
L 80.320686 110.957643 
L 80.435888 109.77269 
L 82.771344 109.77269 
L 82.886546 113.327549 
L 84.22184 113.327549 
L 84.227077 116.882408 
L 84.331806 115.993693 
L 85.248184 115.993693 
L 85.363386 119.548552 
L 85.410514 119.548552 
L 85.525716 118.659837 
L 85.609499 118.659837 
L 85.724701 122.214696 
L 87.662187 122.214696 
L 87.777389 121.325981 
L 88.672821 121.325981 
L 88.788023 120.141028 
L 89.437343 120.141028 
L 89.552544 123.695887 
L 91.18108 123.695887 
L 91.296282 122.510934 
L 99.695544 122.510934 
L 99.810746 126.065793 
L 109.089732 126.065793 
L 109.204934 124.88084 
L 111.320459 124.88084 
L 111.435661 123.695887 
L 120.913632 123.695887 
L 121.028834 127.250746 
L 126.38572 127.250746 
L 126.500922 126.539774 
L 130.224037 126.539774 
L 130.339239 130.094633 
L 138.832757 130.094633 
L 138.947959 128.90968 
L 139.612988 128.90968 
L 139.72819 132.464539 
L 141.513819 132.464539 
L 141.629021 136.019398 
L 161.229046 136.019398 
L 161.344248 135.130683 
L 202.675533 135.130683 
L 202.790735 134.419712 
L 310.054137 134.419712 
L 310.169339 133.530997 
L 398.487273 133.530997 
L 398.487273 133.530997 
" clip-path="url(#p2b8eec8483)" style="fill: none; stroke: #17becf; stroke-width: 1.5; stroke-linecap: square"/>
   </g>
   <g id="line2d_21">
    <path d="M 73.832727 63.085542 
L 73.837964 63.085542 
L 73.937456 73.750119 
L 73.958402 72.268928 
L 73.989821 72.268928 
L 74.110259 69.306545 
L 74.146914 69.306545 
L 74.262116 72.861404 
L 74.304008 72.861404 
L 74.419209 76.416263 
L 74.623431 76.416263 
L 74.738633 75.23131 
L 74.9638 75.23131 
L 74.979509 74.046357 
L 74.984746 77.601216 
L 75.063293 77.601216 
L 75.461263 77.601216 
L 75.576464 76.416263 
L 77.346384 76.416263 
L 77.461586 79.971122 
L 79.084885 79.971122 
L 79.200087 78.786169 
L 80.210721 78.786169 
L 80.320686 82.341028 
L 80.435888 81.156075 
L 85.206293 81.156075 
L 85.248184 79.971122 
L 85.253421 83.525981 
L 85.305785 83.525981 
L 93.663156 83.525981 
L 93.778358 82.341028 
L 111.320459 82.341028 
L 111.435661 81.156075 
L 126.045351 81.156075 
L 126.160553 79.971122 
L 141.513819 79.971122 
L 141.629021 83.525981 
L 150.290106 83.525981 
L 150.405308 87.08084 
L 157.977212 87.08084 
L 158.092414 85.895887 
L 206.754726 85.895887 
L 206.869928 84.710934 
L 299.350837 84.710934 
L 299.466039 83.525981 
L 310.054137 83.525981 
L 310.169339 87.08084 
L 398.487273 87.08084 
L 398.487273 87.08084 
" clip-path="url(#p2b8eec8483)" style="fill: none; stroke: #1f77b4; stroke-width: 1.5; stroke-linecap: square"/>
   </g>
   <g id="line2d_22">
    <path d="M 73.832727 61.900589 
L 73.837964 61.900589 
L 73.848437 69.010307 
L 73.953166 67.825354 
L 73.958402 67.825354 
L 74.073604 64.270495 
L 74.597249 64.270495 
L 74.712451 63.381781 
L 76.220548 63.381781 
L 76.335749 66.936639 
L 77.346384 66.936639 
L 77.461586 70.491498 
L 79.362416 70.491498 
L 79.477618 74.046357 
L 79.503801 74.046357 
L 79.619002 73.157643 
L 80.210721 73.157643 
L 80.325923 76.712502 
L 84.22184 76.712502 
L 84.227077 75.823787 
L 84.232313 79.378646 
L 84.316096 79.378646 
L 85.248184 79.378646 
L 85.363386 78.667674 
L 85.410514 78.667674 
L 85.525716 82.222533 
L 85.609499 82.222533 
L 85.724701 81.333818 
L 87.662187 81.333818 
L 87.777389 84.888677 
L 89.437343 84.888677 
L 89.552544 83.999962 
L 99.695544 83.999962 
L 99.810746 83.111248 
L 109.089732 83.111248 
L 109.204934 81.926295 
L 120.913632 81.926295 
L 121.028834 81.03758 
L 126.38572 81.03758 
L 126.500922 84.592439 
L 130.224037 84.592439 
L 130.339239 83.703724 
L 139.612988 83.703724 
L 139.72819 82.815009 
L 141.513819 82.815009 
L 141.629021 86.369868 
L 161.229046 86.369868 
L 161.344248 89.924727 
L 202.675533 89.924727 
L 202.790735 93.479586 
L 273.116232 93.479586 
L 273.231434 89.924727 
L 398.487273 89.924727 
L 398.487273 89.924727 
" clip-path="url(#p2b8eec8483)" style="fill: none; stroke: #ff7f0e; stroke-width: 1.5; stroke-linecap: square"/>
   </g>
   <g id="patch_3">
    <path d="M 57.6 162.432 
L 57.6 41.472 
" style="fill: none; stroke: #000000; stroke-width: 0.8; stroke-linejoin: miter; stroke-linecap: square"/>
   </g>
   <g id="patch_4">
    <path d="M 414.72 162.432 
L 414.72 41.472 
" style="fill: none; stroke: #000000; stroke-width: 0.8; stroke-linejoin: miter; stroke-linecap: square"/>
   </g>
   <g id="patch_5">
    <path d="M 57.6 162.432 
L 414.72 162.432 
" style="fill: none; stroke: #000000; stroke-width: 0.8; stroke-linejoin: miter; stroke-linecap: square"/>
   </g>
   <g id="patch_6">
    <path d="M 57.6 41.472 
L 414.72 41.472 
" style="fill: none; stroke: #000000; stroke-width: 0.8; stroke-linejoin: miter; stroke-linecap: square"/>
   </g>
   <g id="text_11">
    <!-- WSP -->
    <g transform="translate(361.832136 46.970182)scale(0.08 -0.08)">
     <defs>
      <path id="DejaVuSans-57" d="M 213 4666 
L 850 4666 
L 1831 722 
L 2809 4666 
L 3519 4666 
L 4500 722 
L 5478 4666 
L 6119 4666 
L 4947 0 
L 4153 0 
L 3169 4050 
L 2175 0 
L 1381 0 
L 213 4666 
z
" transform="scale(0.015625)"/>
      <path id="DejaVuSans-53" d="M 3425 4513 
L 3425 3897 
Q 3066 4069 2747 4153 
Q 2428 4238 2131 4238 
Q 1616 4238 1336 4038 
Q 1056 3838 1056 3469 
Q 1056 3159 1242 3001 
Q 1428 2844 1947 2747 
L 2328 2669 
Q 3034 2534 3370 2195 
Q 3706 1856 3706 1288 
Q 3706 609 3251 259 
Q 2797 -91 1919 -91 
Q 1588 -91 1214 -16 
Q 841 59 441 206 
L 441 856 
Q 825 641 1194 531 
Q 1563 422 1919 422 
Q 2459 422 2753 634 
Q 3047 847 3047 1241 
Q 3047 1584 2836 1778 
Q 2625 1972 2144 2069 
L 1759 2144 
Q 1053 2284 737 2584 
Q 422 2884 422 3419 
Q 422 4038 858 4394 
Q 1294 4750 2059 4750 
Q 2388 4750 2728 4690 
Q 3069 4631 3425 4513 
z
" transform="scale(0.015625)"/>
      <path id="DejaVuSans-50" d="M 1259 4147 
L 1259 2394 
L 2053 2394 
Q 2494 2394 2734 2622 
Q 2975 2850 2975 3272 
Q 2975 3691 2734 3919 
Q 2494 4147 2053 4147 
L 1259 4147 
z
M 628 4666 
L 2053 4666 
Q 2838 4666 3239 4311 
Q 3641 3956 3641 3272 
Q 3641 2581 3239 2228 
Q 2838 1875 2053 1875 
L 1259 1875 
L 1259 0 
L 628 0 
L 628 4666 
z
" transform="scale(0.015625)"/>
     </defs>
     <use xlink:href="#DejaVuSans-57"/>
     <use xlink:href="#DejaVuSans-53" x="98.876953"/>
     <use xlink:href="#DejaVuSans-50" x="162.353516"/>
    </g>
   </g>
   <g id="text_12">
    <!-- Iambic -->
    <g transform="translate(361.832136 135.012188)scale(0.08 -0.08)">
     <defs>
      <path id="DejaVuSans-49" d="M 628 4666 
L 1259 4666 
L 1259 0 
L 628 0 
L 628 4666 
z
" transform="scale(0.015625)"/>
      <path id="DejaVuSans-61" d="M 2194 1759 
Q 1497 1759 1228 1600 
Q 959 1441 959 1056 
Q 959 750 1161 570 
Q 1363 391 1709 391 
Q 2188 391 2477 730 
Q 2766 1069 2766 1631 
L 2766 1759 
L 2194 1759 
z
M 3341 1997 
L 3341 0 
L 2766 0 
L 2766 531 
Q 2569 213 2275 61 
Q 1981 -91 1556 -91 
Q 1019 -91 701 211 
Q 384 513 384 1019 
Q 384 1609 779 1909 
Q 1175 2209 1959 2209 
L 2766 2209 
L 2766 2266 
Q 2766 2663 2505 2880 
Q 2244 3097 1772 3097 
Q 1472 3097 1187 3025 
Q 903 2953 641 2809 
L 641 3341 
Q 956 3463 1253 3523 
Q 1550 3584 1831 3584 
Q 2591 3584 2966 3190 
Q 3341 2797 3341 1997 
z
" transform="scale(0.015625)"/>
      <path id="DejaVuSans-6d" d="M 3328 2828 
Q 3544 3216 3844 3400 
Q 4144 3584 4550 3584 
Q 5097 3584 5394 3201 
Q 5691 2819 5691 2113 
L 5691 0 
L 5113 0 
L 5113 2094 
Q 5113 2597 4934 2840 
Q 4756 3084 4391 3084 
Q 3944 3084 3684 2787 
Q 3425 2491 3425 1978 
L 3425 0 
L 2847 0 
L 2847 2094 
Q 2847 2600 2669 2842 
Q 2491 3084 2119 3084 
Q 1678 3084 1418 2786 
Q 1159 2488 1159 1978 
L 1159 0 
L 581 0 
L 581 3500 
L 1159 3500 
L 1159 2956 
Q 1356 3278 1631 3431 
Q 1906 3584 2284 3584 
Q 2666 3584 2933 3390 
Q 3200 3197 3328 2828 
z
" transform="scale(0.015625)"/>
      <path id="DejaVuSans-62" d="M 3116 1747 
Q 3116 2381 2855 2742 
Q 2594 3103 2138 3103 
Q 1681 3103 1420 2742 
Q 1159 2381 1159 1747 
Q 1159 1113 1420 752 
Q 1681 391 2138 391 
Q 2594 391 2855 752 
Q 3116 1113 3116 1747 
z
M 1159 2969 
Q 1341 3281 1617 3432 
Q 1894 3584 2278 3584 
Q 2916 3584 3314 3078 
Q 3713 2572 3713 1747 
Q 3713 922 3314 415 
Q 2916 -91 2278 -91 
Q 1894 -91 1617 61 
Q 1341 213 1159 525 
L 1159 0 
L 581 0 
L 581 4863 
L 1159 4863 
L 1159 2969 
z
" transform="scale(0.015625)"/>
      <path id="DejaVuSans-69" d="M 603 3500 
L 1178 3500 
L 1178 0 
L 603 0 
L 603 3500 
z
M 603 4863 
L 1178 4863 
L 1178 4134 
L 603 4134 
L 603 4863 
z
" transform="scale(0.015625)"/>
      <path id="DejaVuSans-63" d="M 3122 3366 
L 3122 2828 
Q 2878 2963 2633 3030 
Q 2388 3097 2138 3097 
Q 1578 3097 1268 2742 
Q 959 2388 959 1747 
Q 959 1106 1268 751 
Q 1578 397 2138 397 
Q 2388 397 2633 464 
Q 2878 531 3122 666 
L 3122 134 
Q 2881 22 2623 -34 
Q 2366 -91 2075 -91 
Q 1284 -91 818 406 
Q 353 903 353 1747 
Q 353 2603 823 3093 
Q 1294 3584 2113 3584 
Q 2378 3584 2631 3529 
Q 2884 3475 3122 3366 
z
" transform="scale(0.015625)"/>
     </defs>
     <use xlink:href="#DejaVuSans-49"/>
     <use xlink:href="#DejaVuSans-61" x="29.492188"/>
     <use xlink:href="#DejaVuSans-6d" x="90.771484"/>
     <use xlink:href="#DejaVuSans-62" x="188.183594"/>
     <use xlink:href="#DejaVuSans-69" x="251.660156"/>
     <use xlink:href="#DejaVuSans-63" x="279.443359"/>
    </g>
   </g>
   <g id="text_13">
    <!-- Parse -->
    <g transform="translate(361.832136 156.933818)scale(0.08 -0.08)">
     <defs>
      <path id="DejaVuSans-72" d="M 2631 2963 
Q 2534 3019 2420 3045 
Q 2306 3072 2169 3072 
Q 1681 3072 1420 2755 
Q 1159 2438 1159 1844 
L 1159 0 
L 581 0 
L 581 3500 
L 1159 3500 
L 1159 2956 
Q 1341 3275 1631 3429 
Q 1922 3584 2338 3584 
Q 2397 3584 2469 3576 
Q 2541 3569 2628 3553 
L 2631 2963 
z
" transform="scale(0.015625)"/>
      <path id="DejaVuSans-73" d="M 2834 3397 
L 2834 2853 
Q 2591 2978 2328 3040 
Q 2066 3103 1784 3103 
Q 1356 3103 1142 2972 
Q 928 2841 928 2578 
Q 928 2378 1081 2264 
Q 1234 2150 1697 2047 
L 1894 2003 
Q 2506 1872 2764 1633 
Q 3022 1394 3022 966 
Q 3022 478 2636 193 
Q 2250 -91 1575 -91 
Q 1294 -91 989 -36 
Q 684 19 347 128 
L 347 722 
Q 666 556 975 473 
Q 1284 391 1588 391 
Q 1994 391 2212 530 
Q 2431 669 2431 922 
Q 2431 1156 2273 1281 
Q 2116 1406 1581 1522 
L 1381 1569 
Q 847 1681 609 1914 
Q 372 2147 372 2553 
Q 372 3047 722 3315 
Q 1072 3584 1716 3584 
Q 2034 3584 2315 3537 
Q 2597 3491 2834 3397 
z
" transform="scale(0.015625)"/>
      <path id="DejaVuSans-65" d="M 3597 1894 
L 3597 1613 
L 953 1613 
Q 991 1019 1311 708 
Q 1631 397 2203 397 
Q 2534 397 2845 478 
Q 3156 559 3463 722 
L 3463 178 
Q 3153 47 2828 -22 
Q 2503 -91 2169 -91 
Q 1331 -91 842 396 
Q 353 884 353 1716 
Q 353 2575 817 3079 
Q 1281 3584 2069 3584 
Q 2775 3584 3186 3129 
Q 3597 2675 3597 1894 
z
M 3022 2063 
Q 3016 2534 2758 2815 
Q 2500 3097 2075 3097 
Q 1594 3097 1305 2825 
Q 1016 2553 972 2059 
L 3022 2063 
z
" transform="scale(0.015625)"/>
     </defs>
     <use xlink:href="#DejaVuSans-50"/>
     <use xlink:href="#DejaVuSans-61" x="55.802734"/>
     <use xlink:href="#DejaVuSans-72" x="117.082031"/>
     <use xlink:href="#DejaVuSans-73" x="158.195312"/>
     <use xlink:href="#DejaVuSans-65" x="210.294922"/>
    </g>
   </g>
   <g id="text_14">
    <!-- FootBin -->
    <g transform="translate(361.832136 56.33131)scale(0.08 -0.08)">
     <defs>
      <path id="DejaVuSans-46" d="M 628 4666 
L 3309 4666 
L 3309 4134 
L 1259 4134 
L 1259 2759 
L 3109 2759 
L 3109 2228 
L 1259 2228 
L 1259 0 
L 628 0 
L 628 4666 
z
" transform="scale(0.015625)"/>
      <path id="DejaVuSans-6f" d="M 1959 3097 
Q 1497 3097 1228 2736 
Q 959 2375 959 1747 
Q 959 1119 1226 758 
Q 1494 397 1959 397 
Q 2419 397 2687 759 
Q 2956 1122 2956 1747 
Q 2956 2369 2687 2733 
Q 2419 3097 1959 3097 
z
M 1959 3584 
Q 2709 3584 3137 3096 
Q 3566 2609 3566 1747 
Q 3566 888 3137 398 
Q 2709 -91 1959 -91 
Q 1206 -91 779 398 
Q 353 888 353 1747 
Q 353 2609 779 3096 
Q 1206 3584 1959 3584 
z
" transform="scale(0.015625)"/>
      <path id="DejaVuSans-74" d="M 1172 4494 
L 1172 3500 
L 2356 3500 
L 2356 3053 
L 1172 3053 
L 1172 1153 
Q 1172 725 1289 603 
Q 1406 481 1766 481 
L 2356 481 
L 2356 0 
L 1766 0 
Q 1100 0 847 248 
Q 594 497 594 1153 
L 594 3053 
L 172 3053 
L 172 3500 
L 594 3500 
L 594 4494 
L 1172 4494 
z
" transform="scale(0.015625)"/>
      <path id="DejaVuSans-42" d="M 1259 2228 
L 1259 519 
L 2272 519 
Q 2781 519 3026 730 
Q 3272 941 3272 1375 
Q 3272 1813 3026 2020 
Q 2781 2228 2272 2228 
L 1259 2228 
z
M 1259 4147 
L 1259 2741 
L 2194 2741 
Q 2656 2741 2882 2914 
Q 3109 3088 3109 3444 
Q 3109 3797 2882 3972 
Q 2656 4147 2194 4147 
L 1259 4147 
z
M 628 4666 
L 2241 4666 
Q 2963 4666 3353 4366 
Q 3744 4066 3744 3513 
Q 3744 3084 3544 2831 
Q 3344 2578 2956 2516 
Q 3422 2416 3680 2098 
Q 3938 1781 3938 1306 
Q 3938 681 3513 340 
Q 3088 0 2303 0 
L 628 0 
L 628 4666 
z
" transform="scale(0.015625)"/>
      <path id="DejaVuSans-6e" d="M 3513 2113 
L 3513 0 
L 2938 0 
L 2938 2094 
Q 2938 2591 2744 2837 
Q 2550 3084 2163 3084 
Q 1697 3084 1428 2787 
Q 1159 2491 1159 1978 
L 1159 0 
L 581 0 
L 581 3500 
L 1159 3500 
L 1159 2956 
Q 1366 3272 1645 3428 
Q 1925 3584 2291 3584 
Q 2894 3584 3203 3211 
Q 3513 2838 3513 2113 
z
" transform="scale(0.015625)"/>
     </defs>
     <use xlink:href="#DejaVuSans-46"/>
     <use xlink:href="#DejaVuSans-6f" x="53.894531"/>
     <use xlink:href="#DejaVuSans-6f" x="115.076172"/>
     <use xlink:href="#DejaVuSans-74" x="176.257812"/>
     <use xlink:href="#DejaVuSans-42" x="215.466797"/>
     <use xlink:href="#DejaVuSans-69" x="284.070312"/>
     <use xlink:href="#DejaVuSans-6e" x="311.853516"/>
    </g>
   </g>
   <g id="text_15">
    <!-- WFL -->
    <g transform="translate(361.832136 91.287423)scale(0.08 -0.08)">
     <defs>
      <path id="DejaVuSans-4c" d="M 628 4666 
L 1259 4666 
L 1259 531 
L 3531 531 
L 3531 0 
L 628 0 
L 628 4666 
z
" transform="scale(0.015625)"/>
     </defs>
     <use xlink:href="#DejaVuSans-57"/>
     <use xlink:href="#DejaVuSans-46" x="98.876953"/>
     <use xlink:href="#DejaVuSans-4c" x="156.396484"/>
    </g>
   </g>
   <g id="text_16">
    <!-- WFR -->
    <g transform="translate(361.832136 126.243536)scale(0.08 -0.08)">
     <defs>
      <path id="DejaVuSans-52" d="M 2841 2188 
Q 3044 2119 3236 1894 
Q 3428 1669 3622 1275 
L 4263 0 
L 3584 0 
L 2988 1197 
Q 2756 1666 2539 1819 
Q 2322 1972 1947 1972 
L 1259 1972 
L 1259 0 
L 628 0 
L 628 4666 
L 2053 4666 
Q 2853 4666 3247 4331 
Q 3641 3997 3641 3322 
Q 3641 2881 3436 2590 
Q 3231 2300 2841 2188 
z
M 1259 4147 
L 1259 2491 
L 2053 2491 
Q 2509 2491 2742 2702 
Q 2975 2913 2975 3322 
Q 2975 3731 2742 3939 
Q 2509 4147 2053 4147 
L 1259 4147 
z
" transform="scale(0.015625)"/>
     </defs>
     <use xlink:href="#DejaVuSans-57"/>
     <use xlink:href="#DejaVuSans-46" x="98.876953"/>
     <use xlink:href="#DejaVuSans-52" x="156.396484"/>
    </g>
   </g>
   <g id="text_17">
    <!-- Main-L -->
    <g transform="translate(361.832136 80.682094)scale(0.08 -0.08)">
     <defs>
      <path id="DejaVuSans-4d" d="M 628 4666 
L 1569 4666 
L 2759 1491 
L 3956 4666 
L 4897 4666 
L 4897 0 
L 4281 0 
L 4281 4097 
L 3078 897 
L 2444 897 
L 1241 4097 
L 1241 0 
L 628 0 
L 628 4666 
z
" transform="scale(0.015625)"/>
      <path id="DejaVuSans-2d" d="M 313 2009 
L 1997 2009 
L 1997 1497 
L 313 1497 
L 313 2009 
z
" transform="scale(0.015625)"/>
     </defs>
     <use xlink:href="#DejaVuSans-4d"/>
     <use xlink:href="#DejaVuSans-61" x="86.279297"/>
     <use xlink:href="#DejaVuSans-69" x="147.558594"/>
     <use xlink:href="#DejaVuSans-6e" x="175.341797"/>
     <use xlink:href="#DejaVuSans-2d" x="238.720703"/>
     <use xlink:href="#DejaVuSans-4c" x="274.804688"/>
    </g>
   </g>
   <g id="text_18">
    <!-- Main-R -->
    <g transform="translate(361.832136 154.208426)scale(0.08 -0.08)">
     <use xlink:href="#DejaVuSans-4d"/>
     <use xlink:href="#DejaVuSans-61" x="86.279297"/>
     <use xlink:href="#DejaVuSans-69" x="147.558594"/>
     <use xlink:href="#DejaVuSans-6e" x="175.341797"/>
     <use xlink:href="#DejaVuSans-2d" x="238.720703"/>
     <use xlink:href="#DejaVuSans-52" x="274.804688"/>
    </g>
   </g>
   <g id="text_19">
    <!-- AFL -->
    <g transform="translate(361.832136 110.720652)scale(0.08 -0.08)">
     <defs>
      <path id="DejaVuSans-41" d="M 2188 4044 
L 1331 1722 
L 3047 1722 
L 2188 4044 
z
M 1831 4666 
L 2547 4666 
L 4325 0 
L 3669 0 
L 3244 1197 
L 1141 1197 
L 716 0 
L 50 0 
L 1831 4666 
z
" transform="scale(0.015625)"/>
     </defs>
     <use xlink:href="#DejaVuSans-41"/>
     <use xlink:href="#DejaVuSans-46" x="68.408203"/>
     <use xlink:href="#DejaVuSans-4c" x="125.927734"/>
    </g>
   </g>
   <g id="text_20">
    <!-- AFR -->
    <g transform="translate(361.832136 133.530997)scale(0.08 -0.08)">
     <use xlink:href="#DejaVuSans-41"/>
     <use xlink:href="#DejaVuSans-46" x="68.408203"/>
     <use xlink:href="#DejaVuSans-52" x="125.927734"/>
    </g>
   </g>
   <g id="text_21">
    <!-- Nonfinal -->
    <g transform="translate(361.832136 87.08084)scale(0.08 -0.08)">
     <defs>
      <path id="DejaVuSans-4e" d="M 628 4666 
L 1478 4666 
L 3547 763 
L 3547 4666 
L 4159 4666 
L 4159 0 
L 3309 0 
L 1241 3903 
L 1241 0 
L 628 0 
L 628 4666 
z
" transform="scale(0.015625)"/>
      <path id="DejaVuSans-66" d="M 2375 4863 
L 2375 4384 
L 1825 4384 
Q 1516 4384 1395 4259 
Q 1275 4134 1275 3809 
L 1275 3500 
L 2222 3500 
L 2222 3053 
L 1275 3053 
L 1275 0 
L 697 0 
L 697 3053 
L 147 3053 
L 147 3500 
L 697 3500 
L 697 3744 
Q 697 4328 969 4595 
Q 1241 4863 1831 4863 
L 2375 4863 
z
" transform="scale(0.015625)"/>
      <path id="DejaVuSans-6c" d="M 603 4863 
L 1178 4863 
L 1178 0 
L 603 0 
L 603 4863 
z
" transform="scale(0.015625)"/>
     </defs>
     <use xlink:href="#DejaVuSans-4e"/>
     <use xlink:href="#DejaVuSans-6f" x="74.804688"/>
     <use xlink:href="#DejaVuSans-6e" x="135.986328"/>
     <use xlink:href="#DejaVuSans-66" x="199.365234"/>
     <use xlink:href="#DejaVuSans-69" x="234.570312"/>
     <use xlink:href="#DejaVuSans-6e" x="262.353516"/>
     <use xlink:href="#DejaVuSans-61" x="325.732422"/>
     <use xlink:href="#DejaVuSans-6c" x="387.011719"/>
    </g>
   </g>
   <g id="text_22">
    <!-- Trochaic -->
    <g transform="translate(361.832136 89.924727)scale(0.08 -0.08)">
     <defs>
      <path id="DejaVuSans-54" d="M -19 4666 
L 3928 4666 
L 3928 4134 
L 2272 4134 
L 2272 0 
L 1638 0 
L 1638 4134 
L -19 4134 
L -19 4666 
z
" transform="scale(0.015625)"/>
      <path id="DejaVuSans-68" d="M 3513 2113 
L 3513 0 
L 2938 0 
L 2938 2094 
Q 2938 2591 2744 2837 
Q 2550 3084 2163 3084 
Q 1697 3084 1428 2787 
Q 1159 2491 1159 1978 
L 1159 0 
L 581 0 
L 581 4863 
L 1159 4863 
L 1159 2956 
Q 1366 3272 1645 3428 
Q 1925 3584 2291 3584 
Q 2894 3584 3203 3211 
Q 3513 2838 3513 2113 
z
" transform="scale(0.015625)"/>
     </defs>
     <use xlink:href="#DejaVuSans-54"/>
     <use xlink:href="#DejaVuSans-72" x="46.333984"/>
     <use xlink:href="#DejaVuSans-6f" x="85.197266"/>
     <use xlink:href="#DejaVuSans-63" x="146.378906"/>
     <use xlink:href="#DejaVuSans-68" x="201.359375"/>
     <use xlink:href="#DejaVuSans-61" x="264.738281"/>
     <use xlink:href="#DejaVuSans-69" x="326.017578"/>
     <use xlink:href="#DejaVuSans-63" x="353.800781"/>
    </g>
   </g>
  </g>
  <g id="axes_2">
   <g id="patch_7">
    <path d="M 57.6 307.584 
L 414.72 307.584 
L 414.72 186.624 
L 57.6 186.624 
z
" style="fill: #ffffff"/>
   </g>
   <g id="matplotlib.axis_3">
    <g id="xtick_8">
     <g id="line2d_23">
      <g>
       <use xlink:href="#m326e34f4d6" x="69.774545" y="307.584" style="stroke: #000000; stroke-width: 0.8"/>
      </g>
     </g>
     <g id="text_23">
      <!-- 0 -->
      <g transform="translate(66.593295 322.182437)scale(0.1 -0.1)">
       <use xlink:href="#DejaVuSans-30"/>
      </g>
     </g>
    </g>
    <g id="xtick_9">
     <g id="line2d_24">
      <g>
       <use xlink:href="#m326e34f4d6" x="110.356364" y="307.584" style="stroke: #000000; stroke-width: 0.8"/>
      </g>
     </g>
     <g id="text_24">
      <!-- 10 -->
      <g transform="translate(103.993864 322.182437)scale(0.1 -0.1)">
       <use xlink:href="#DejaVuSans-31"/>
       <use xlink:href="#DejaVuSans-30" x="63.623047"/>
      </g>
     </g>
    </g>
    <g id="xtick_10">
     <g id="line2d_25">
      <g>
       <use xlink:href="#m326e34f4d6" x="150.938182" y="307.584" style="stroke: #000000; stroke-width: 0.8"/>
      </g>
     </g>
     <g id="text_25">
      <!-- 20 -->
      <g transform="translate(144.575682 322.182437)scale(0.1 -0.1)">
       <use xlink:href="#DejaVuSans-32"/>
       <use xlink:href="#DejaVuSans-30" x="63.623047"/>
      </g>
     </g>
    </g>
    <g id="xtick_11">
     <g id="line2d_26">
      <g>
       <use xlink:href="#m326e34f4d6" x="191.52" y="307.584" style="stroke: #000000; stroke-width: 0.8"/>
      </g>
     </g>
     <g id="text_26">
      <!-- 30 -->
      <g transform="translate(185.1575 322.182437)scale(0.1 -0.1)">
       <use xlink:href="#DejaVuSans-33"/>
       <use xlink:href="#DejaVuSans-30" x="63.623047"/>
      </g>
     </g>
    </g>
    <g id="xtick_12">
     <g id="line2d_27">
      <g>
       <use xlink:href="#m326e34f4d6" x="232.101818" y="307.584" style="stroke: #000000; stroke-width: 0.8"/>
      </g>
     </g>
     <g id="text_27">
      <!-- 40 -->
      <g transform="translate(225.739318 322.182437)scale(0.1 -0.1)">
       <use xlink:href="#DejaVuSans-34"/>
       <use xlink:href="#DejaVuSans-30" x="63.623047"/>
      </g>
     </g>
    </g>
    <g id="xtick_13">
     <g id="line2d_28">
      <g>
       <use xlink:href="#m326e34f4d6" x="272.683636" y="307.584" style="stroke: #000000; stroke-width: 0.8"/>
      </g>
     </g>
     <g id="text_28">
      <!-- 50 -->
      <g transform="translate(266.321136 322.182437)scale(0.1 -0.1)">
       <use xlink:href="#DejaVuSans-35"/>
       <use xlink:href="#DejaVuSans-30" x="63.623047"/>
      </g>
     </g>
    </g>
    <g id="xtick_14">
     <g id="line2d_29">
      <g>
       <use xlink:href="#m326e34f4d6" x="313.265455" y="307.584" style="stroke: #000000; stroke-width: 0.8"/>
      </g>
     </g>
     <g id="text_29">
      <!-- 60 -->
      <g transform="translate(306.902955 322.182437)scale(0.1 -0.1)">
       <use xlink:href="#DejaVuSans-36"/>
       <use xlink:href="#DejaVuSans-30" x="63.623047"/>
      </g>
     </g>
    </g>
    <g id="xtick_15">
     <g id="line2d_30">
      <g>
       <use xlink:href="#m326e34f4d6" x="353.847273" y="307.584" style="stroke: #000000; stroke-width: 0.8"/>
      </g>
     </g>
     <g id="text_30">
      <!-- 70 -->
      <g transform="translate(347.484773 322.182437)scale(0.1 -0.1)">
       <defs>
        <path id="DejaVuSans-37" d="M 525 4666 
L 3525 4666 
L 3525 4397 
L 1831 0 
L 1172 0 
L 2766 4134 
L 525 4134 
L 525 4666 
z
" transform="scale(0.015625)"/>
       </defs>
       <use xlink:href="#DejaVuSans-37"/>
       <use xlink:href="#DejaVuSans-30" x="63.623047"/>
      </g>
     </g>
    </g>
    <g id="xtick_16">
     <g id="line2d_31">
      <g>
       <use xlink:href="#m326e34f4d6" x="394.429091" y="307.584" style="stroke: #000000; stroke-width: 0.8"/>
      </g>
     </g>
     <g id="text_31">
      <!-- 80 -->
      <g transform="translate(388.066591 322.182437)scale(0.1 -0.1)">
       <use xlink:href="#DejaVuSans-38"/>
       <use xlink:href="#DejaVuSans-30" x="63.623047"/>
      </g>
     </g>
    </g>
   </g>
   <g id="matplotlib.axis_4">
    <g id="ytick_4">
     <g id="line2d_32">
      <g>
       <use xlink:href="#m104a02c4dd" x="57.6" y="302.094496" style="stroke: #000000; stroke-width: 0.8"/>
      </g>
     </g>
     <g id="text_32">
      <!-- 0 -->
      <g transform="translate(44.2375 305.893715)scale(0.1 -0.1)">
       <use xlink:href="#DejaVuSans-30"/>
      </g>
     </g>
    </g>
    <g id="ytick_5">
     <g id="line2d_33">
      <g>
       <use xlink:href="#m104a02c4dd" x="57.6" y="280.400281" style="stroke: #000000; stroke-width: 0.8"/>
      </g>
     </g>
     <g id="text_33">
      <!-- 2500 -->
      <g transform="translate(25.15 284.1995)scale(0.1 -0.1)">
       <use xlink:href="#DejaVuSans-32"/>
       <use xlink:href="#DejaVuSans-35" x="63.623047"/>
       <use xlink:href="#DejaVuSans-30" x="127.246094"/>
       <use xlink:href="#DejaVuSans-30" x="190.869141"/>
      </g>
     </g>
    </g>
    <g id="ytick_6">
     <g id="line2d_34">
      <g>
       <use xlink:href="#m104a02c4dd" x="57.6" y="258.706066" style="stroke: #000000; stroke-width: 0.8"/>
      </g>
     </g>
     <g id="text_34">
      <!-- 5000 -->
      <g transform="translate(25.15 262.505285)scale(0.1 -0.1)">
       <use xlink:href="#DejaVuSans-35"/>
       <use xlink:href="#DejaVuSans-30" x="63.623047"/>
       <use xlink:href="#DejaVuSans-30" x="127.246094"/>
       <use xlink:href="#DejaVuSans-30" x="190.869141"/>
      </g>
     </g>
    </g>
    <g id="ytick_7">
     <g id="line2d_35">
      <g>
       <use xlink:href="#m104a02c4dd" x="57.6" y="237.011851" style="stroke: #000000; stroke-width: 0.8"/>
      </g>
     </g>
     <g id="text_35">
      <!-- 7500 -->
      <g transform="translate(25.15 240.81107)scale(0.1 -0.1)">
       <use xlink:href="#DejaVuSans-37"/>
       <use xlink:href="#DejaVuSans-35" x="63.623047"/>
       <use xlink:href="#DejaVuSans-30" x="127.246094"/>
       <use xlink:href="#DejaVuSans-30" x="190.869141"/>
      </g>
     </g>
    </g>
    <g id="ytick_8">
     <g id="line2d_36">
      <g>
       <use xlink:href="#m104a02c4dd" x="57.6" y="215.317636" style="stroke: #000000; stroke-width: 0.8"/>
      </g>
     </g>
     <g id="text_36">
      <!-- 10000 -->
      <g transform="translate(18.7875 219.116855)scale(0.1 -0.1)">
       <use xlink:href="#DejaVuSans-31"/>
       <use xlink:href="#DejaVuSans-30" x="63.623047"/>
       <use xlink:href="#DejaVuSans-30" x="127.246094"/>
       <use xlink:href="#DejaVuSans-30" x="190.869141"/>
       <use xlink:href="#DejaVuSans-30" x="254.492188"/>
      </g>
     </g>
    </g>
    <g id="ytick_9">
     <g id="line2d_37">
      <g>
       <use xlink:href="#m104a02c4dd" x="57.6" y="193.623421" style="stroke: #000000; stroke-width: 0.8"/>
      </g>
     </g>
     <g id="text_37">
      <!-- 12500 -->
      <g transform="translate(18.7875 197.42264)scale(0.1 -0.1)">
       <use xlink:href="#DejaVuSans-31"/>
       <use xlink:href="#DejaVuSans-32" x="63.623047"/>
       <use xlink:href="#DejaVuSans-35" x="127.246094"/>
       <use xlink:href="#DejaVuSans-30" x="190.869141"/>
       <use xlink:href="#DejaVuSans-30" x="254.492188"/>
      </g>
     </g>
    </g>
   </g>
   <g id="line2d_38">
    <path d="M 73.832727 302.085818 
L 77.890909 302.085818 
L 81.949091 302.085818 
L 86.007273 302.085818 
L 90.065455 302.085818 
L 94.123636 302.085818 
L 98.181818 302.085818 
L 102.24 302.085818 
L 106.298182 302.085818 
L 110.356364 302.085818 
L 114.414545 302.068463 
L 118.472727 302.085818 
L 122.530909 302.085818 
L 126.589091 302.085818 
L 130.647273 302.07714 
L 134.705455 302.068463 
L 138.763636 302.068463 
L 142.821818 302.085818 
L 146.88 302.04243 
L 150.938182 302.07714 
L 154.996364 302.04243 
L 159.054545 302.085818 
L 163.112727 302.085818 
L 167.170909 302.085818 
L 171.229091 302.068463 
L 175.287273 301.964331 
L 179.345455 302.085818 
L 183.403636 302.016397 
L 187.461818 302.085818 
L 191.52 301.920942 
L 195.578182 302.016397 
L 199.636364 302.051107 
L 203.694545 301.730033 
L 207.752727 302.051107 
L 211.810909 301.825488 
L 215.869091 301.912264 
L 219.927273 301.981686 
L 223.985455 302.068463 
L 228.043636 302.033752 
L 232.101818 301.547802 
L 236.16 301.903587 
L 240.218182 300.836231 
L 244.276364 300.471769 
L 248.334545 301.851521 
L 252.392727 299.213504 
L 256.450909 301.634579 
L 260.509091 301.860198 
L 264.567273 300.923008 
L 268.625455 301.912264 
L 272.683636 298.033339 
L 276.741818 299.690777 
L 280.8 302.085818 
L 284.858182 300.471769 
L 288.916364 302.025074 
L 292.974545 301.825488 
L 297.032727 301.764744 
L 301.090909 299.517223 
L 305.149091 301.270116 
L 309.207273 300.419702 
L 313.265455 300.827554 
L 317.323636 299.204826 
L 321.381818 297.981273 
L 325.44 292.097802 
L 329.498182 286.526727 
L 333.556364 298.397802 
L 337.614545 286.196975 
L 341.672727 293.590364 
L 345.730909 301.530446 
L 349.789091 295.733752 
L 353.847273 287.82838 
L 357.905455 300.801521 
L 361.963636 299.465157 
L 366.021818 301.573835 
L 370.08 287.550694 
L 374.138182 289.355653 
L 378.196364 296.705653 
L 382.254545 233.410612 
L 386.312727 295.334579 
L 390.370909 192.122182 
L 394.429091 258.619289 
L 398.487273 284.357306 
" clip-path="url(#pcc0a3b11a3)" style="fill: none; stroke: #1f77b4; stroke-width: 1.5; stroke-linecap: square"/>
   </g>
   <g id="patch_8">
    <path d="M 57.6 307.584 
L 57.6 186.624 
" style="fill: none; stroke: #000000; stroke-width: 0.8; stroke-linejoin: miter; stroke-linecap: square"/>
   </g>
   <g id="patch_9">
    <path d="M 414.72 307.584 
L 414.72 186.624 
" style="fill: none; stroke: #000000; stroke-width: 0.8; stroke-linejoin: miter; stroke-linecap: square"/>
   </g>
   <g id="patch_10">
    <path d="M 57.6 307.584 
L 414.72 307.584 
" style="fill: none; stroke: #000000; stroke-width: 0.8; stroke-linejoin: miter; stroke-linecap: square"/>
   </g>
   <g id="patch_11">
    <path d="M 57.6 186.624 
L 414.72 186.624 
" style="fill: none; stroke: #000000; stroke-width: 0.8; stroke-linejoin: miter; stroke-linecap: square"/>
   </g>
  </g>
 </g>
 <defs>
  <clipPath id="p2b8eec8483">
   <rect x="57.6" y="41.472" width="357.12" height="120.96"/>
  </clipPath>
  <clipPath id="pcc0a3b11a3">
   <rect x="57.6" y="186.624" width="357.12" height="120.96"/>
  </clipPath>
 </defs>
</svg>
