<?xml version="1.0" encoding="utf-8" standalone="no"?>
<!DOCTYPE svg PUBLIC "-//W3C//DTD SVG 1.1//EN"
  "http://www.w3.org/Graphics/SVG/1.1/DTD/svg11.dtd">
<svg xmlns:xlink="http://www.w3.org/1999/xlink" width="460.8pt" height="345.6pt" viewBox="0 0 460.8 345.6" xmlns="http://www.w3.org/2000/svg" version="1.1">
 <metadata>
  <rdf:RDF xmlns:dc="http://purl.org/dc/elements/1.1/" xmlns:cc="http://creativecommons.org/ns#" xmlns:rdf="http://www.w3.org/1999/02/22-rdf-syntax-ns#">
   <cc:Work>
    <dc:type rdf:resource="http://purl.org/dc/dcmitype/StillImage"/>
    <dc:date>2022-05-13T23:57:24.084895</dc:date>
    <dc:format>image/svg+xml</dc:format>
    <dc:creator>
     <cc:Agent>
      <dc:title>Matplotlib v3.5.1, https://matplotlib.org/</dc:title>
     </cc:Agent>
    </dc:creator>
   </cc:Work>
  </rdf:RDF>
 </metadata>
 <defs>
  <style type="text/css">*{stroke-linejoin: round; stroke-linecap: butt}</style>
 </defs>
 <g id="figure_1">
  <g id="patch_1">
   <path d="M 0 345.6 
L 460.8 345.6 
L 460.8 0 
L 0 0 
z
" style="fill: #ffffff"/>
  </g>
  <g id="axes_1">
   <g id="patch_2">
    <path d="M 57.6 162.432 
L 414.72 162.432 
L 414.72 41.472 
L 57.6 41.472 
z
" style="fill: #ffffff"/>
   </g>
   <g id="matplotlib.axis_1">
    <g id="xtick_1">
     <g id="line2d_1">
      <defs>
       <path id="mc985c485ba" d="M 0 0 
L 0 3.5 
" style="stroke: #000000; stroke-width: 0.8"/>
      </defs>
      <g>
       <use xlink:href="#mc985c485ba" x="73.827491" y="162.432" style="stroke: #000000; stroke-width: 0.8"/>
      </g>
     </g>
     <g id="text_1">
      <!-- 0 -->
      <g transform="translate(70.646241 177.030437)scale(0.1 -0.1)">
       <defs>
        <path id="DejaVuSans-30" d="M 2034 4250 
Q 1547 4250 1301 3770 
Q 1056 3291 1056 2328 
Q 1056 1369 1301 889 
Q 1547 409 2034 409 
Q 2525 409 2770 889 
Q 3016 1369 3016 2328 
Q 3016 3291 2770 3770 
Q 2525 4250 2034 4250 
z
M 2034 4750 
Q 2819 4750 3233 4129 
Q 3647 3509 3647 2328 
Q 3647 1150 3233 529 
Q 2819 -91 2034 -91 
Q 1250 -91 836 529 
Q 422 1150 422 2328 
Q 422 3509 836 4129 
Q 1250 4750 2034 4750 
z
" transform="scale(0.015625)"/>
       </defs>
       <use xlink:href="#DejaVuSans-30"/>
      </g>
     </g>
    </g>
    <g id="xtick_2">
     <g id="line2d_2">
      <g>
       <use xlink:href="#mc985c485ba" x="126.191972" y="162.432" style="stroke: #000000; stroke-width: 0.8"/>
      </g>
     </g>
     <g id="text_2">
      <!-- 10000 -->
      <g transform="translate(110.285722 177.030437)scale(0.1 -0.1)">
       <defs>
        <path id="DejaVuSans-31" d="M 794 531 
L 1825 531 
L 1825 4091 
L 703 3866 
L 703 4441 
L 1819 4666 
L 2450 4666 
L 2450 531 
L 3481 531 
L 3481 0 
L 794 0 
L 794 531 
z
" transform="scale(0.015625)"/>
       </defs>
       <use xlink:href="#DejaVuSans-31"/>
       <use xlink:href="#DejaVuSans-30" x="63.623047"/>
       <use xlink:href="#DejaVuSans-30" x="127.246094"/>
       <use xlink:href="#DejaVuSans-30" x="190.869141"/>
       <use xlink:href="#DejaVuSans-30" x="254.492188"/>
      </g>
     </g>
    </g>
    <g id="xtick_3">
     <g id="line2d_3">
      <g>
       <use xlink:href="#mc985c485ba" x="178.556453" y="162.432" style="stroke: #000000; stroke-width: 0.8"/>
      </g>
     </g>
     <g id="text_3">
      <!-- 20000 -->
      <g transform="translate(162.650203 177.030437)scale(0.1 -0.1)">
       <defs>
        <path id="DejaVuSans-32" d="M 1228 531 
L 3431 531 
L 3431 0 
L 469 0 
L 469 531 
Q 828 903 1448 1529 
Q 2069 2156 2228 2338 
Q 2531 2678 2651 2914 
Q 2772 3150 2772 3378 
Q 2772 3750 2511 3984 
Q 2250 4219 1831 4219 
Q 1534 4219 1204 4116 
Q 875 4013 500 3803 
L 500 4441 
Q 881 4594 1212 4672 
Q 1544 4750 1819 4750 
Q 2544 4750 2975 4387 
Q 3406 4025 3406 3419 
Q 3406 3131 3298 2873 
Q 3191 2616 2906 2266 
Q 2828 2175 2409 1742 
Q 1991 1309 1228 531 
z
" transform="scale(0.015625)"/>
       </defs>
       <use xlink:href="#DejaVuSans-32"/>
       <use xlink:href="#DejaVuSans-30" x="63.623047"/>
       <use xlink:href="#DejaVuSans-30" x="127.246094"/>
       <use xlink:href="#DejaVuSans-30" x="190.869141"/>
       <use xlink:href="#DejaVuSans-30" x="254.492188"/>
      </g>
     </g>
    </g>
    <g id="xtick_4">
     <g id="line2d_4">
      <g>
       <use xlink:href="#mc985c485ba" x="230.920934" y="162.432" style="stroke: #000000; stroke-width: 0.8"/>
      </g>
     </g>
     <g id="text_4">
      <!-- 30000 -->
      <g transform="translate(215.014684 177.030437)scale(0.1 -0.1)">
       <defs>
        <path id="DejaVuSans-33" d="M 2597 2516 
Q 3050 2419 3304 2112 
Q 3559 1806 3559 1356 
Q 3559 666 3084 287 
Q 2609 -91 1734 -91 
Q 1441 -91 1130 -33 
Q 819 25 488 141 
L 488 750 
Q 750 597 1062 519 
Q 1375 441 1716 441 
Q 2309 441 2620 675 
Q 2931 909 2931 1356 
Q 2931 1769 2642 2001 
Q 2353 2234 1838 2234 
L 1294 2234 
L 1294 2753 
L 1863 2753 
Q 2328 2753 2575 2939 
Q 2822 3125 2822 3475 
Q 2822 3834 2567 4026 
Q 2313 4219 1838 4219 
Q 1578 4219 1281 4162 
Q 984 4106 628 3988 
L 628 4550 
Q 988 4650 1302 4700 
Q 1616 4750 1894 4750 
Q 2613 4750 3031 4423 
Q 3450 4097 3450 3541 
Q 3450 3153 3228 2886 
Q 3006 2619 2597 2516 
z
" transform="scale(0.015625)"/>
       </defs>
       <use xlink:href="#DejaVuSans-33"/>
       <use xlink:href="#DejaVuSans-30" x="63.623047"/>
       <use xlink:href="#DejaVuSans-30" x="127.246094"/>
       <use xlink:href="#DejaVuSans-30" x="190.869141"/>
       <use xlink:href="#DejaVuSans-30" x="254.492188"/>
      </g>
     </g>
    </g>
    <g id="xtick_5">
     <g id="line2d_5">
      <g>
       <use xlink:href="#mc985c485ba" x="283.285415" y="162.432" style="stroke: #000000; stroke-width: 0.8"/>
      </g>
     </g>
     <g id="text_5">
      <!-- 40000 -->
      <g transform="translate(267.379165 177.030437)scale(0.1 -0.1)">
       <defs>
        <path id="DejaVuSans-34" d="M 2419 4116 
L 825 1625 
L 2419 1625 
L 2419 4116 
z
M 2253 4666 
L 3047 4666 
L 3047 1625 
L 3713 1625 
L 3713 1100 
L 3047 1100 
L 3047 0 
L 2419 0 
L 2419 1100 
L 313 1100 
L 313 1709 
L 2253 4666 
z
" transform="scale(0.015625)"/>
       </defs>
       <use xlink:href="#DejaVuSans-34"/>
       <use xlink:href="#DejaVuSans-30" x="63.623047"/>
       <use xlink:href="#DejaVuSans-30" x="127.246094"/>
       <use xlink:href="#DejaVuSans-30" x="190.869141"/>
       <use xlink:href="#DejaVuSans-30" x="254.492188"/>
      </g>
     </g>
    </g>
    <g id="xtick_6">
     <g id="line2d_6">
      <g>
       <use xlink:href="#mc985c485ba" x="335.649896" y="162.432" style="stroke: #000000; stroke-width: 0.8"/>
      </g>
     </g>
     <g id="text_6">
      <!-- 50000 -->
      <g transform="translate(319.743646 177.030437)scale(0.1 -0.1)">
       <defs>
        <path id="DejaVuSans-35" d="M 691 4666 
L 3169 4666 
L 3169 4134 
L 1269 4134 
L 1269 2991 
Q 1406 3038 1543 3061 
Q 1681 3084 1819 3084 
Q 2600 3084 3056 2656 
Q 3513 2228 3513 1497 
Q 3513 744 3044 326 
Q 2575 -91 1722 -91 
Q 1428 -91 1123 -41 
Q 819 9 494 109 
L 494 744 
Q 775 591 1075 516 
Q 1375 441 1709 441 
Q 2250 441 2565 725 
Q 2881 1009 2881 1497 
Q 2881 1984 2565 2268 
Q 2250 2553 1709 2553 
Q 1456 2553 1204 2497 
Q 953 2441 691 2322 
L 691 4666 
z
" transform="scale(0.015625)"/>
       </defs>
       <use xlink:href="#DejaVuSans-35"/>
       <use xlink:href="#DejaVuSans-30" x="63.623047"/>
       <use xlink:href="#DejaVuSans-30" x="127.246094"/>
       <use xlink:href="#DejaVuSans-30" x="190.869141"/>
       <use xlink:href="#DejaVuSans-30" x="254.492188"/>
      </g>
     </g>
    </g>
    <g id="xtick_7">
     <g id="line2d_7">
      <g>
       <use xlink:href="#mc985c485ba" x="388.014377" y="162.432" style="stroke: #000000; stroke-width: 0.8"/>
      </g>
     </g>
     <g id="text_7">
      <!-- 60000 -->
      <g transform="translate(372.108127 177.030437)scale(0.1 -0.1)">
       <defs>
        <path id="DejaVuSans-36" d="M 2113 2584 
Q 1688 2584 1439 2293 
Q 1191 2003 1191 1497 
Q 1191 994 1439 701 
Q 1688 409 2113 409 
Q 2538 409 2786 701 
Q 3034 994 3034 1497 
Q 3034 2003 2786 2293 
Q 2538 2584 2113 2584 
z
M 3366 4563 
L 3366 3988 
Q 3128 4100 2886 4159 
Q 2644 4219 2406 4219 
Q 1781 4219 1451 3797 
Q 1122 3375 1075 2522 
Q 1259 2794 1537 2939 
Q 1816 3084 2150 3084 
Q 2853 3084 3261 2657 
Q 3669 2231 3669 1497 
Q 3669 778 3244 343 
Q 2819 -91 2113 -91 
Q 1303 -91 875 529 
Q 447 1150 447 2328 
Q 447 3434 972 4092 
Q 1497 4750 2381 4750 
Q 2619 4750 2861 4703 
Q 3103 4656 3366 4563 
z
" transform="scale(0.015625)"/>
       </defs>
       <use xlink:href="#DejaVuSans-36"/>
       <use xlink:href="#DejaVuSans-30" x="63.623047"/>
       <use xlink:href="#DejaVuSans-30" x="127.246094"/>
       <use xlink:href="#DejaVuSans-30" x="190.869141"/>
       <use xlink:href="#DejaVuSans-30" x="254.492188"/>
      </g>
     </g>
    </g>
   </g>
   <g id="matplotlib.axis_2">
    <g id="ytick_1">
     <g id="line2d_8">
      <defs>
       <path id="mbea295011b" d="M 0 0 
L -3.5 0 
" style="stroke: #000000; stroke-width: 0.8"/>
      </defs>
      <g>
       <use xlink:href="#mbea295011b" x="57.6" y="140.285692" style="stroke: #000000; stroke-width: 0.8"/>
      </g>
     </g>
     <g id="text_8">
      <!-- 80 -->
      <g transform="translate(37.875 144.084911)scale(0.1 -0.1)">
       <defs>
        <path id="DejaVuSans-38" d="M 2034 2216 
Q 1584 2216 1326 1975 
Q 1069 1734 1069 1313 
Q 1069 891 1326 650 
Q 1584 409 2034 409 
Q 2484 409 2743 651 
Q 3003 894 3003 1313 
Q 3003 1734 2745 1975 
Q 2488 2216 2034 2216 
z
M 1403 2484 
Q 997 2584 770 2862 
Q 544 3141 544 3541 
Q 544 4100 942 4425 
Q 1341 4750 2034 4750 
Q 2731 4750 3128 4425 
Q 3525 4100 3525 3541 
Q 3525 3141 3298 2862 
Q 3072 2584 2669 2484 
Q 3125 2378 3379 2068 
Q 3634 1759 3634 1313 
Q 3634 634 3220 271 
Q 2806 -91 2034 -91 
Q 1263 -91 848 271 
Q 434 634 434 1313 
Q 434 1759 690 2068 
Q 947 2378 1403 2484 
z
M 1172 3481 
Q 1172 3119 1398 2916 
Q 1625 2713 2034 2713 
Q 2441 2713 2670 2916 
Q 2900 3119 2900 3481 
Q 2900 3844 2670 4047 
Q 2441 4250 2034 4250 
Q 1625 4250 1398 4047 
Q 1172 3844 1172 3481 
z
" transform="scale(0.015625)"/>
       </defs>
       <use xlink:href="#DejaVuSans-38"/>
       <use xlink:href="#DejaVuSans-30" x="63.623047"/>
      </g>
     </g>
    </g>
    <g id="ytick_2">
     <g id="line2d_9">
      <g>
       <use xlink:href="#mbea295011b" x="57.6" y="103.426373" style="stroke: #000000; stroke-width: 0.8"/>
      </g>
     </g>
     <g id="text_9">
      <!-- 90 -->
      <g transform="translate(37.875 107.225592)scale(0.1 -0.1)">
       <defs>
        <path id="DejaVuSans-39" d="M 703 97 
L 703 672 
Q 941 559 1184 500 
Q 1428 441 1663 441 
Q 2288 441 2617 861 
Q 2947 1281 2994 2138 
Q 2813 1869 2534 1725 
Q 2256 1581 1919 1581 
Q 1219 1581 811 2004 
Q 403 2428 403 3163 
Q 403 3881 828 4315 
Q 1253 4750 1959 4750 
Q 2769 4750 3195 4129 
Q 3622 3509 3622 2328 
Q 3622 1225 3098 567 
Q 2575 -91 1691 -91 
Q 1453 -91 1209 -44 
Q 966 3 703 97 
z
M 1959 2075 
Q 2384 2075 2632 2365 
Q 2881 2656 2881 3163 
Q 2881 3666 2632 3958 
Q 2384 4250 1959 4250 
Q 1534 4250 1286 3958 
Q 1038 3666 1038 3163 
Q 1038 2656 1286 2365 
Q 1534 2075 1959 2075 
z
" transform="scale(0.015625)"/>
       </defs>
       <use xlink:href="#DejaVuSans-39"/>
       <use xlink:href="#DejaVuSans-30" x="63.623047"/>
      </g>
     </g>
    </g>
    <g id="ytick_3">
     <g id="line2d_10">
      <g>
       <use xlink:href="#mbea295011b" x="57.6" y="66.567053" style="stroke: #000000; stroke-width: 0.8"/>
      </g>
     </g>
     <g id="text_10">
      <!-- 100 -->
      <g transform="translate(31.5125 70.366272)scale(0.1 -0.1)">
       <use xlink:href="#DejaVuSans-31"/>
       <use xlink:href="#DejaVuSans-30" x="63.623047"/>
       <use xlink:href="#DejaVuSans-30" x="127.246094"/>
      </g>
     </g>
    </g>
   </g>
   <g id="line2d_11">
    <path d="M 73.832727 65.64557 
L 73.853673 65.64557 
L 74.000294 59.195189 
L 74.036949 59.195189 
L 74.157387 55.509257 
L 74.272589 55.509257 
L 74.387791 54.772071 
L 75.545046 54.772071 
L 75.660248 53.543427 
L 75.812105 53.543427 
L 75.927307 52.806241 
L 75.979671 52.806241 
L 76.094873 51.577597 
L 77.7653 51.577597 
L 77.880502 50.348953 
L 78.744516 50.348953 
L 78.859717 49.42747 
L 148.829137 49.42747 
L 148.944339 48.198826 
L 310.012246 48.198826 
L 310.127448 46.970182 
L 398.487273 46.970182 
L 398.487273 46.970182 
" clip-path="url(#pda95b9e2be)" style="fill: none; stroke: #1f77b4; stroke-width: 1.5; stroke-linecap: square"/>
   </g>
   <g id="line2d_12">
    <path d="M 73.832727 66.567053 
L 73.853673 66.567053 
L 73.984584 82.539425 
L 73.995057 81.310781 
L 74.026476 87.761162 
L 74.09455 81.617942 
L 74.146914 81.617942 
L 74.267352 88.989806 
L 74.277825 88.989806 
L 74.393027 86.839679 
L 74.487283 86.839679 
L 74.602485 90.525611 
L 74.63914 90.525611 
L 74.707214 89.604128 
L 74.712451 93.29006 
L 74.733396 93.29006 
L 75.120894 93.29006 
L 75.236095 96.975992 
L 75.565992 96.975992 
L 75.681193 100.661924 
L 75.68643 100.661924 
L 75.801632 99.43328 
L 75.812105 99.43328 
L 75.890651 103.119212 
L 75.927307 102.382025 
L 76.356695 102.382025 
L 76.471897 100.539059 
L 76.958887 100.539059 
L 77.074089 104.224991 
L 78.744516 104.224991 
L 78.859717 103.303508 
L 79.079648 103.303508 
L 79.200087 110.675372 
L 79.629475 110.675372 
L 79.744677 114.361304 
L 80.147884 114.361304 
L 80.263086 113.13266 
L 81.975404 113.13266 
L 82.090606 116.818592 
L 83.237388 116.818592 
L 83.35259 120.504524 
L 83.556811 120.504524 
L 83.672013 119.27588 
L 84.78214 119.27588 
L 84.897342 118.047236 
L 89.494944 118.047236 
L 89.610145 121.733168 
L 94.024471 121.733168 
L 94.139673 120.504524 
L 99.512269 120.504524 
L 99.627471 124.190456 
L 105.445164 124.190456 
L 105.560366 127.876388 
L 110.707795 127.876388 
L 110.822997 126.647744 
L 131.088051 126.647744 
L 131.203253 130.333676 
L 142.472089 130.333676 
L 142.587291 129.59649 
L 152.505123 129.59649 
L 152.620325 133.282422 
L 157.914374 133.282422 
L 158.029576 132.053778 
L 193.721206 132.053778 
L 193.836408 130.825134 
L 202.958301 130.825134 
L 203.073503 134.511066 
L 376.300442 134.511066 
L 376.415644 133.282422 
L 398.487273 133.282422 
L 398.487273 133.282422 
" clip-path="url(#pda95b9e2be)" style="fill: none; stroke: #ff7f0e; stroke-width: 1.5; stroke-linecap: square"/>
   </g>
   <g id="line2d_13">
    <path d="M 73.832727 70.252985 
L 73.853673 70.252985 
L 73.85891 69.331502 
L 73.900801 79.160654 
L 73.911274 79.160654 
L 74.031712 86.839679 
L 74.036949 86.839679 
L 74.146914 94.211543 
L 74.152151 92.982899 
L 74.220224 92.982899 
L 74.277825 91.017069 
L 74.283062 94.703001 
L 74.319717 94.703001 
L 74.356372 94.703001 
L 74.471574 98.388932 
L 74.63914 98.388932 
L 74.754342 102.074864 
L 75.120894 102.074864 
L 75.236095 100.84622 
L 75.314642 100.84622 
L 75.429844 104.532152 
L 75.565992 104.532152 
L 75.681193 103.303508 
L 75.68643 103.303508 
L 75.801632 106.98944 
L 75.812105 106.98944 
L 75.890651 106.252254 
L 75.895888 109.938186 
L 75.901124 109.938186 
L 75.979671 109.938186 
L 76.094873 108.709542 
L 76.356695 108.709542 
L 76.471897 112.395474 
L 76.943177 112.395474 
L 76.958887 116.081406 
L 77.053143 115.159923 
L 77.273074 115.159923 
L 77.388276 118.845855 
L 77.7653 118.845855 
L 77.880502 117.617211 
L 78.744516 117.617211 
L 78.823062 116.695728 
L 78.828299 120.38166 
L 78.838772 120.38166 
L 79.163431 120.38166 
L 79.278633 118.538694 
L 80.147884 118.538694 
L 80.263086 122.224626 
L 81.975404 122.224626 
L 82.090606 121.303143 
L 83.237388 121.303143 
L 83.35259 120.074499 
L 83.556811 120.074499 
L 83.672013 123.760431 
L 84.326569 123.760431 
L 84.441771 127.446363 
L 84.78214 127.446363 
L 84.897342 131.132295 
L 89.494944 131.132295 
L 89.610145 129.903651 
L 94.024471 129.903651 
L 94.139673 133.589583 
L 94.982741 133.589583 
L 95.097943 137.275514 
L 99.512269 137.275514 
L 99.627471 136.354031 
L 105.445164 136.354031 
L 105.560366 135.432549 
L 110.707795 135.432549 
L 110.822997 139.11848 
L 112.865211 139.11848 
L 112.980413 142.804412 
L 131.088051 142.804412 
L 131.203253 141.882929 
L 142.472089 141.882929 
L 142.587291 145.568861 
L 148.829137 145.568861 
L 148.944339 144.340217 
L 157.914374 144.340217 
L 158.029576 148.026149 
L 186.620583 148.026149 
L 186.735785 151.712081 
L 193.721206 151.712081 
L 193.836408 155.398013 
L 202.958301 155.398013 
L 203.073503 154.47653 
L 310.012246 154.47653 
L 310.127448 153.247886 
L 376.300442 153.247886 
L 376.415644 156.933818 
L 398.487273 156.933818 
L 398.487273 156.933818 
" clip-path="url(#pda95b9e2be)" style="fill: none; stroke: #2ca02c; stroke-width: 1.5; stroke-linecap: square"/>
   </g>
   <g id="line2d_14">
    <path d="M 73.832727 66.567053 
L 73.874619 66.567053 
L 73.995057 63.188282 
L 74.24117 63.188282 
L 74.361609 61.345316 
L 74.63914 61.345316 
L 74.754342 60.423833 
L 75.890651 60.423833 
L 76.005853 59.686647 
L 76.937941 59.686647 
L 77.058379 57.843681 
L 77.273074 57.843681 
L 77.388276 56.615037 
L 78.744516 56.615037 
L 78.859717 60.300969 
L 79.079648 60.300969 
L 79.19485 59.379486 
L 79.838933 59.379486 
L 79.954135 58.458003 
L 84.326569 58.458003 
L 84.441771 57.229359 
L 94.982741 57.229359 
L 95.097943 56.000715 
L 102.051946 56.000715 
L 102.167148 55.079232 
L 112.865211 55.079232 
L 112.980413 53.850588 
L 142.472089 53.850588 
L 142.587291 53.113402 
L 398.487273 53.113402 
L 398.487273 53.113402 
" clip-path="url(#pda95b9e2be)" style="fill: none; stroke: #d62728; stroke-width: 1.5; stroke-linecap: square"/>
   </g>
   <g id="line2d_15">
    <path d="M 73.832727 70.252985 
L 73.853673 70.252985 
L 73.963638 81.310781 
L 73.974111 80.082137 
L 73.984584 78.853493 
L 74.042185 84.259527 
L 74.063131 84.259527 
L 74.146914 84.259527 
L 74.267352 81.802239 
L 74.272589 81.802239 
L 74.387791 81.065052 
L 74.63914 81.065052 
L 74.754342 84.750984 
L 75.120894 84.750984 
L 75.236095 83.52234 
L 75.545046 83.52234 
L 75.565992 87.208272 
L 75.655011 85.979628 
L 76.597572 85.979628 
L 76.712774 85.058145 
L 76.958887 85.058145 
L 77.074089 84.136662 
L 77.273074 84.136662 
L 77.388276 87.822594 
L 77.592497 87.822594 
L 77.707699 86.59395 
L 79.079648 86.59395 
L 79.19485 90.279882 
L 81.975404 90.279882 
L 82.090606 89.358399 
L 83.237388 89.358399 
L 83.35259 88.129755 
L 84.326569 88.129755 
L 84.441771 91.815687 
L 89.494944 91.815687 
L 89.610145 90.587043 
L 94.982741 90.587043 
L 95.097943 94.272975 
L 99.512269 94.272975 
L 99.627471 93.351492 
L 105.445164 93.351492 
L 105.560366 92.430009 
L 112.865211 92.430009 
L 112.980413 96.115941 
L 131.088051 96.115941 
L 131.203253 95.194458 
L 202.958301 95.194458 
L 203.073503 94.272975 
L 398.487273 94.272975 
L 398.487273 94.272975 
" clip-path="url(#pda95b9e2be)" style="fill: none; stroke: #9467bd; stroke-width: 1.5; stroke-linecap: square"/>
   </g>
   <g id="line2d_16">
    <path d="M 73.832727 70.252985 
L 73.853673 70.252985 
L 73.85891 69.331502 
L 73.900801 75.474722 
L 73.911274 75.474722 
L 74.036949 86.839679 
L 74.042185 86.839679 
L 74.157387 90.525611 
L 74.272589 90.525611 
L 74.277825 89.788425 
L 74.283062 93.474357 
L 74.356372 93.474357 
L 74.471574 97.160288 
L 75.314642 97.160288 
L 75.429844 100.84622 
L 75.68643 100.84622 
L 75.801632 104.532152 
L 75.812105 104.532152 
L 75.927307 103.794966 
L 75.979671 103.794966 
L 76.094873 102.566322 
L 76.597572 102.566322 
L 76.712774 106.252254 
L 76.943177 106.252254 
L 77.058379 109.938186 
L 77.7653 109.938186 
L 77.880502 108.709542 
L 78.744516 108.709542 
L 78.823062 107.788059 
L 78.828299 111.473991 
L 78.838772 111.473991 
L 79.079648 111.473991 
L 79.19485 110.552508 
L 84.78214 110.552508 
L 84.897342 114.23844 
L 94.024471 114.23844 
L 94.139673 117.924372 
L 110.707795 117.924372 
L 110.822997 121.610304 
L 148.829137 121.610304 
L 148.944339 120.38166 
L 157.914374 120.38166 
L 158.029576 124.067592 
L 186.620583 124.067592 
L 186.735785 127.753524 
L 193.721206 127.753524 
L 193.836408 131.439456 
L 310.012246 131.439456 
L 310.127448 130.210812 
L 376.300442 130.210812 
L 376.415644 133.896744 
L 398.487273 133.896744 
L 398.487273 133.896744 
" clip-path="url(#pda95b9e2be)" style="fill: none; stroke: #8c564b; stroke-width: 1.5; stroke-linecap: square"/>
   </g>
   <g id="line2d_17">
    <path d="M 73.832727 65.64557 
L 73.853673 65.64557 
L 73.921747 71.78879 
L 73.963638 69.638663 
L 73.984584 67.181375 
L 74.042185 72.587409 
L 74.057895 72.587409 
L 74.146914 72.587409 
L 74.267352 70.130121 
L 74.272589 70.130121 
L 74.387791 69.392934 
L 74.63914 69.392934 
L 74.754342 73.078866 
L 75.120894 73.078866 
L 75.236095 71.850222 
L 75.545046 71.850222 
L 75.565992 75.536154 
L 75.655011 74.30751 
L 76.597572 74.30751 
L 76.712774 73.386027 
L 76.958887 73.386027 
L 77.074089 72.464544 
L 77.273074 72.464544 
L 77.388276 76.150476 
L 77.592497 76.150476 
L 77.707699 74.921832 
L 79.079648 74.921832 
L 79.19485 78.607764 
L 81.975404 78.607764 
L 82.090606 77.686281 
L 83.237388 77.686281 
L 83.35259 76.457637 
L 84.326569 76.457637 
L 84.441771 80.143569 
L 89.494944 80.143569 
L 89.610145 78.914925 
L 94.982741 78.914925 
L 95.097943 82.600857 
L 99.512269 82.600857 
L 99.627471 81.679374 
L 105.445164 81.679374 
L 105.560366 80.757891 
L 112.865211 80.757891 
L 112.980413 84.443823 
L 131.088051 84.443823 
L 131.203253 83.52234 
L 202.958301 83.52234 
L 203.073503 82.600857 
L 398.487273 82.600857 
L 398.487273 82.600857 
" clip-path="url(#pda95b9e2be)" style="fill: none; stroke: #e377c2; stroke-width: 1.5; stroke-linecap: square"/>
   </g>
   <g id="line2d_18">
    <path d="M 73.832727 70.252985 
L 73.869382 70.252985 
L 74.010767 93.904382 
L 74.021239 93.904382 
L 74.136441 97.590314 
L 74.146914 97.590314 
L 74.24117 104.962178 
L 74.262116 103.119212 
L 74.63914 103.119212 
L 74.754342 102.197729 
L 75.120894 102.197729 
L 75.236095 105.883661 
L 75.545046 105.883661 
L 75.565992 104.655017 
L 75.571228 108.340949 
L 75.644538 108.340949 
L 75.812105 108.340949 
L 75.932543 106.866576 
L 76.356695 106.866576 
L 76.471897 110.552508 
L 76.597572 110.552508 
L 76.712774 114.23844 
L 76.937941 114.23844 
L 76.958887 113.316957 
L 76.964123 117.002889 
L 77.037434 116.081406 
L 77.273074 116.081406 
L 77.388276 114.852762 
L 77.592497 114.852762 
L 77.707699 118.538694 
L 78.744516 118.538694 
L 78.859717 122.224626 
L 79.079648 122.224626 
L 79.19485 121.303143 
L 79.838933 121.303143 
L 79.954135 120.38166 
L 81.975404 120.38166 
L 82.090606 124.067592 
L 83.237388 124.067592 
L 83.35259 127.753524 
L 84.326569 127.753524 
L 84.441771 126.52488 
L 89.494944 126.52488 
L 89.610145 130.210812 
L 94.024471 130.210812 
L 94.139673 133.896744 
L 94.982741 133.896744 
L 95.097943 132.6681 
L 99.512269 132.6681 
L 99.627471 136.354031 
L 102.051946 136.354031 
L 102.167148 135.432549 
L 105.445164 135.432549 
L 105.560366 139.11848 
L 112.865211 139.11848 
L 112.980413 137.889836 
L 131.088051 137.889836 
L 131.203253 141.575768 
L 142.472089 141.575768 
L 142.587291 140.838582 
L 202.958301 140.838582 
L 203.073503 144.524514 
L 398.487273 144.524514 
L 398.487273 144.524514 
" clip-path="url(#pda95b9e2be)" style="fill: none; stroke: #7f7f7f; stroke-width: 1.5; stroke-linecap: square"/>
   </g>
   <g id="line2d_19">
    <path d="M 73.832727 70.252985 
L 73.853673 70.252985 
L 73.989821 91.139933 
L 73.995057 91.139933 
L 74.036949 88.25262 
L 74.042185 91.938552 
L 74.105023 90.709908 
L 74.24117 90.709908 
L 74.272589 88.866942 
L 74.277825 92.552874 
L 74.345899 91.32423 
L 74.356372 91.32423 
L 74.471574 90.402747 
L 75.314642 90.402747 
L 75.429844 89.174103 
L 75.545046 89.174103 
L 75.660248 92.860035 
L 75.68643 92.860035 
L 75.801632 91.631391 
L 75.812105 91.631391 
L 75.890651 95.317322 
L 75.927307 94.580136 
L 75.979671 94.580136 
L 76.094873 98.266068 
L 76.356695 98.266068 
L 76.471897 96.423102 
L 76.597572 96.423102 
L 76.712774 95.501619 
L 76.937941 95.501619 
L 76.958887 93.351492 
L 76.964123 97.037424 
L 77.04267 96.115941 
L 77.592497 96.115941 
L 77.707699 94.887297 
L 77.7653 94.887297 
L 77.880502 98.573229 
L 78.744516 98.573229 
L 78.823062 102.259161 
L 78.854481 101.030517 
L 79.163431 101.030517 
L 79.278633 99.187551 
L 79.838933 99.187551 
L 79.954135 98.266068 
L 80.147884 98.266068 
L 80.263086 97.037424 
L 81.975404 97.037424 
L 82.090606 100.723356 
L 83.556811 100.723356 
L 83.672013 99.494712 
L 84.78214 99.494712 
L 84.897342 98.266068 
L 94.024471 98.266068 
L 94.139673 97.037424 
L 99.512269 97.037424 
L 99.627471 100.723356 
L 102.051946 100.723356 
L 102.167148 99.801873 
L 105.445164 99.801873 
L 105.560366 103.487805 
L 110.707795 103.487805 
L 110.822997 102.259161 
L 131.088051 102.259161 
L 131.203253 105.945093 
L 142.472089 105.945093 
L 142.587291 105.207907 
L 148.829137 105.207907 
L 148.944339 108.893838 
L 152.505123 108.893838 
L 152.620325 112.57977 
L 157.914374 112.57977 
L 158.029576 111.351126 
L 186.620583 111.351126 
L 186.735785 110.122482 
L 193.721206 110.122482 
L 193.836408 108.893838 
L 202.958301 108.893838 
L 203.073503 112.57977 
L 310.012246 112.57977 
L 310.127448 116.265702 
L 376.300442 116.265702 
L 376.415644 115.037058 
L 398.487273 115.037058 
L 398.487273 115.037058 
" clip-path="url(#pda95b9e2be)" style="fill: none; stroke: #bcbd22; stroke-width: 1.5; stroke-linecap: square"/>
   </g>
   <g id="line2d_20">
    <path d="M 73.832727 70.252985 
L 73.853673 70.252985 
L 73.874619 77.624849 
L 73.968875 76.703366 
L 73.974111 76.703366 
L 74.026476 86.839679 
L 74.09455 85.611035 
L 74.146914 85.611035 
L 74.24117 92.982899 
L 74.262116 91.139933 
L 74.356372 91.139933 
L 74.471574 90.21845 
L 74.63914 90.21845 
L 74.754342 89.296967 
L 75.120894 89.296967 
L 75.236095 92.982899 
L 75.314642 92.982899 
L 75.429844 91.754255 
L 75.545046 91.754255 
L 75.565992 90.525611 
L 75.571228 94.211543 
L 75.644538 94.211543 
L 75.812105 94.211543 
L 75.932543 92.73717 
L 76.597572 92.73717 
L 76.712774 96.423102 
L 76.937941 96.423102 
L 76.958887 94.272975 
L 76.964123 97.958907 
L 77.04267 97.037424 
L 77.273074 97.037424 
L 77.388276 95.80878 
L 77.592497 95.80878 
L 77.707699 99.494712 
L 78.744516 99.494712 
L 78.859717 103.180644 
L 79.079648 103.180644 
L 79.19485 102.259161 
L 79.838933 102.259161 
L 79.954135 101.337678 
L 80.147884 101.337678 
L 80.263086 100.109034 
L 81.975404 100.109034 
L 82.090606 103.794966 
L 83.237388 103.794966 
L 83.35259 107.480898 
L 83.556811 107.480898 
L 83.672013 106.252254 
L 84.326569 106.252254 
L 84.441771 105.02361 
L 89.494944 105.02361 
L 89.610145 108.709542 
L 94.024471 108.709542 
L 94.139673 112.395474 
L 94.982741 112.395474 
L 95.097943 111.16683 
L 99.512269 111.16683 
L 99.627471 114.852762 
L 102.051946 114.852762 
L 102.167148 113.931279 
L 105.445164 113.931279 
L 105.560366 117.617211 
L 112.865211 117.617211 
L 112.980413 116.388567 
L 131.088051 116.388567 
L 131.203253 120.074499 
L 142.472089 120.074499 
L 142.587291 119.337312 
L 152.505123 119.337312 
L 152.620325 117.494346 
L 186.620583 117.494346 
L 186.735785 116.265702 
L 202.958301 116.265702 
L 203.073503 119.951634 
L 398.487273 119.951634 
L 398.487273 119.951634 
" clip-path="url(#pda95b9e2be)" style="fill: none; stroke: #17becf; stroke-width: 1.5; stroke-linecap: square"/>
   </g>
   <g id="line2d_21">
    <path d="M 73.832727 65.64557 
L 73.853673 65.64557 
L 73.974111 75.474722 
L 73.984584 75.474722 
L 73.995057 79.160654 
L 74.09455 76.273341 
L 74.272589 76.273341 
L 74.277825 79.959273 
L 74.382554 77.809146 
L 75.314642 77.809146 
L 75.429844 76.580502 
L 75.68643 76.580502 
L 75.801632 75.351858 
L 75.812105 75.351858 
L 75.927307 79.03779 
L 75.979671 79.03779 
L 76.094873 82.723722 
L 76.597572 82.723722 
L 76.712774 81.802239 
L 76.943177 81.802239 
L 77.058379 80.573595 
L 77.7653 80.573595 
L 77.880502 84.259527 
L 78.744516 84.259527 
L 78.823062 87.945459 
L 78.854481 86.716815 
L 79.079648 86.716815 
L 79.19485 90.402747 
L 84.78214 90.402747 
L 84.897342 89.174103 
L 94.024471 89.174103 
L 94.139673 87.945459 
L 110.707795 87.945459 
L 110.822997 86.716815 
L 148.829137 86.716815 
L 148.944339 90.402747 
L 157.914374 90.402747 
L 158.029576 89.174103 
L 186.620583 89.174103 
L 186.735785 87.945459 
L 193.721206 87.945459 
L 193.836408 86.716815 
L 310.012246 86.716815 
L 310.127448 90.402747 
L 376.300442 90.402747 
L 376.415644 89.174103 
L 398.487273 89.174103 
L 398.487273 89.174103 
" clip-path="url(#pda95b9e2be)" style="fill: none; stroke: #1f77b4; stroke-width: 1.5; stroke-linecap: square"/>
   </g>
   <g id="line2d_22">
    <path d="M 73.832727 65.64557 
L 73.853673 65.64557 
L 73.979348 62.266799 
L 73.995057 62.266799 
L 74.073604 61.529613 
L 74.07884 65.215545 
L 74.084077 65.215545 
L 74.24117 65.215545 
L 74.366845 76.273341 
L 74.487283 76.273341 
L 74.602485 72.587409 
L 74.707214 72.587409 
L 74.822416 68.901477 
L 75.890651 68.901477 
L 76.005853 72.587409 
L 76.937941 72.587409 
L 77.053143 79.03779 
L 78.744516 79.03779 
L 78.823062 82.723722 
L 78.854481 81.495078 
L 79.629475 81.495078 
L 79.744677 77.809146 
L 79.838933 77.809146 
L 79.954135 81.495078 
L 81.975404 81.495078 
L 82.090606 80.573595 
L 99.512269 80.573595 
L 99.627471 79.652112 
L 102.051946 79.652112 
L 102.167148 83.338044 
L 105.445164 83.338044 
L 105.560366 82.416561 
L 131.088051 82.416561 
L 131.203253 81.495078 
L 142.472089 81.495078 
L 142.587291 85.18101 
L 148.829137 85.18101 
L 148.944339 88.866942 
L 152.505123 88.866942 
L 152.620325 87.023976 
L 202.958301 87.023976 
L 203.073503 86.102493 
L 310.012246 86.102493 
L 310.127448 89.788425 
L 398.487273 89.788425 
L 398.487273 89.788425 
" clip-path="url(#pda95b9e2be)" style="fill: none; stroke: #ff7f0e; stroke-width: 1.5; stroke-linecap: square"/>
   </g>
   <g id="patch_3">
    <path d="M 57.6 162.432 
L 57.6 41.472 
" style="fill: none; stroke: #000000; stroke-width: 0.8; stroke-linejoin: miter; stroke-linecap: square"/>
   </g>
   <g id="patch_4">
    <path d="M 414.72 162.432 
L 414.72 41.472 
" style="fill: none; stroke: #000000; stroke-width: 0.8; stroke-linejoin: miter; stroke-linecap: square"/>
   </g>
   <g id="patch_5">
    <path d="M 57.6 162.432 
L 414.72 162.432 
" style="fill: none; stroke: #000000; stroke-width: 0.8; stroke-linejoin: miter; stroke-linecap: square"/>
   </g>
   <g id="patch_6">
    <path d="M 57.6 41.472 
L 414.72 41.472 
" style="fill: none; stroke: #000000; stroke-width: 0.8; stroke-linejoin: miter; stroke-linecap: square"/>
   </g>
   <g id="text_11">
    <!-- WSP -->
    <g transform="translate(361.832136 46.970182)scale(0.08 -0.08)">
     <defs>
      <path id="DejaVuSans-57" d="M 213 4666 
L 850 4666 
L 1831 722 
L 2809 4666 
L 3519 4666 
L 4500 722 
L 5478 4666 
L 6119 4666 
L 4947 0 
L 4153 0 
L 3169 4050 
L 2175 0 
L 1381 0 
L 213 4666 
z
" transform="scale(0.015625)"/>
      <path id="DejaVuSans-53" d="M 3425 4513 
L 3425 3897 
Q 3066 4069 2747 4153 
Q 2428 4238 2131 4238 
Q 1616 4238 1336 4038 
Q 1056 3838 1056 3469 
Q 1056 3159 1242 3001 
Q 1428 2844 1947 2747 
L 2328 2669 
Q 3034 2534 3370 2195 
Q 3706 1856 3706 1288 
Q 3706 609 3251 259 
Q 2797 -91 1919 -91 
Q 1588 -91 1214 -16 
Q 841 59 441 206 
L 441 856 
Q 825 641 1194 531 
Q 1563 422 1919 422 
Q 2459 422 2753 634 
Q 3047 847 3047 1241 
Q 3047 1584 2836 1778 
Q 2625 1972 2144 2069 
L 1759 2144 
Q 1053 2284 737 2584 
Q 422 2884 422 3419 
Q 422 4038 858 4394 
Q 1294 4750 2059 4750 
Q 2388 4750 2728 4690 
Q 3069 4631 3425 4513 
z
" transform="scale(0.015625)"/>
      <path id="DejaVuSans-50" d="M 1259 4147 
L 1259 2394 
L 2053 2394 
Q 2494 2394 2734 2622 
Q 2975 2850 2975 3272 
Q 2975 3691 2734 3919 
Q 2494 4147 2053 4147 
L 1259 4147 
z
M 628 4666 
L 2053 4666 
Q 2838 4666 3239 4311 
Q 3641 3956 3641 3272 
Q 3641 2581 3239 2228 
Q 2838 1875 2053 1875 
L 1259 1875 
L 1259 0 
L 628 0 
L 628 4666 
z
" transform="scale(0.015625)"/>
     </defs>
     <use xlink:href="#DejaVuSans-57"/>
     <use xlink:href="#DejaVuSans-53" x="98.876953"/>
     <use xlink:href="#DejaVuSans-50" x="162.353516"/>
    </g>
   </g>
   <g id="text_12">
    <!-- Iambic -->
    <g transform="translate(361.832136 133.282422)scale(0.08 -0.08)">
     <defs>
      <path id="DejaVuSans-49" d="M 628 4666 
L 1259 4666 
L 1259 0 
L 628 0 
L 628 4666 
z
" transform="scale(0.015625)"/>
      <path id="DejaVuSans-61" d="M 2194 1759 
Q 1497 1759 1228 1600 
Q 959 1441 959 1056 
Q 959 750 1161 570 
Q 1363 391 1709 391 
Q 2188 391 2477 730 
Q 2766 1069 2766 1631 
L 2766 1759 
L 2194 1759 
z
M 3341 1997 
L 3341 0 
L 2766 0 
L 2766 531 
Q 2569 213 2275 61 
Q 1981 -91 1556 -91 
Q 1019 -91 701 211 
Q 384 513 384 1019 
Q 384 1609 779 1909 
Q 1175 2209 1959 2209 
L 2766 2209 
L 2766 2266 
Q 2766 2663 2505 2880 
Q 2244 3097 1772 3097 
Q 1472 3097 1187 3025 
Q 903 2953 641 2809 
L 641 3341 
Q 956 3463 1253 3523 
Q 1550 3584 1831 3584 
Q 2591 3584 2966 3190 
Q 3341 2797 3341 1997 
z
" transform="scale(0.015625)"/>
      <path id="DejaVuSans-6d" d="M 3328 2828 
Q 3544 3216 3844 3400 
Q 4144 3584 4550 3584 
Q 5097 3584 5394 3201 
Q 5691 2819 5691 2113 
L 5691 0 
L 5113 0 
L 5113 2094 
Q 5113 2597 4934 2840 
Q 4756 3084 4391 3084 
Q 3944 3084 3684 2787 
Q 3425 2491 3425 1978 
L 3425 0 
L 2847 0 
L 2847 2094 
Q 2847 2600 2669 2842 
Q 2491 3084 2119 3084 
Q 1678 3084 1418 2786 
Q 1159 2488 1159 1978 
L 1159 0 
L 581 0 
L 581 3500 
L 1159 3500 
L 1159 2956 
Q 1356 3278 1631 3431 
Q 1906 3584 2284 3584 
Q 2666 3584 2933 3390 
Q 3200 3197 3328 2828 
z
" transform="scale(0.015625)"/>
      <path id="DejaVuSans-62" d="M 3116 1747 
Q 3116 2381 2855 2742 
Q 2594 3103 2138 3103 
Q 1681 3103 1420 2742 
Q 1159 2381 1159 1747 
Q 1159 1113 1420 752 
Q 1681 391 2138 391 
Q 2594 391 2855 752 
Q 3116 1113 3116 1747 
z
M 1159 2969 
Q 1341 3281 1617 3432 
Q 1894 3584 2278 3584 
Q 2916 3584 3314 3078 
Q 3713 2572 3713 1747 
Q 3713 922 3314 415 
Q 2916 -91 2278 -91 
Q 1894 -91 1617 61 
Q 1341 213 1159 525 
L 1159 0 
L 581 0 
L 581 4863 
L 1159 4863 
L 1159 2969 
z
" transform="scale(0.015625)"/>
      <path id="DejaVuSans-69" d="M 603 3500 
L 1178 3500 
L 1178 0 
L 603 0 
L 603 3500 
z
M 603 4863 
L 1178 4863 
L 1178 4134 
L 603 4134 
L 603 4863 
z
" transform="scale(0.015625)"/>
      <path id="DejaVuSans-63" d="M 3122 3366 
L 3122 2828 
Q 2878 2963 2633 3030 
Q 2388 3097 2138 3097 
Q 1578 3097 1268 2742 
Q 959 2388 959 1747 
Q 959 1106 1268 751 
Q 1578 397 2138 397 
Q 2388 397 2633 464 
Q 2878 531 3122 666 
L 3122 134 
Q 2881 22 2623 -34 
Q 2366 -91 2075 -91 
Q 1284 -91 818 406 
Q 353 903 353 1747 
Q 353 2603 823 3093 
Q 1294 3584 2113 3584 
Q 2378 3584 2631 3529 
Q 2884 3475 3122 3366 
z
" transform="scale(0.015625)"/>
     </defs>
     <use xlink:href="#DejaVuSans-49"/>
     <use xlink:href="#DejaVuSans-61" x="29.492188"/>
     <use xlink:href="#DejaVuSans-6d" x="90.771484"/>
     <use xlink:href="#DejaVuSans-62" x="188.183594"/>
     <use xlink:href="#DejaVuSans-69" x="251.660156"/>
     <use xlink:href="#DejaVuSans-63" x="279.443359"/>
    </g>
   </g>
   <g id="text_13">
    <!-- Parse -->
    <g transform="translate(361.832136 156.933818)scale(0.08 -0.08)">
     <defs>
      <path id="DejaVuSans-72" d="M 2631 2963 
Q 2534 3019 2420 3045 
Q 2306 3072 2169 3072 
Q 1681 3072 1420 2755 
Q 1159 2438 1159 1844 
L 1159 0 
L 581 0 
L 581 3500 
L 1159 3500 
L 1159 2956 
Q 1341 3275 1631 3429 
Q 1922 3584 2338 3584 
Q 2397 3584 2469 3576 
Q 2541 3569 2628 3553 
L 2631 2963 
z
" transform="scale(0.015625)"/>
      <path id="DejaVuSans-73" d="M 2834 3397 
L 2834 2853 
Q 2591 2978 2328 3040 
Q 2066 3103 1784 3103 
Q 1356 3103 1142 2972 
Q 928 2841 928 2578 
Q 928 2378 1081 2264 
Q 1234 2150 1697 2047 
L 1894 2003 
Q 2506 1872 2764 1633 
Q 3022 1394 3022 966 
Q 3022 478 2636 193 
Q 2250 -91 1575 -91 
Q 1294 -91 989 -36 
Q 684 19 347 128 
L 347 722 
Q 666 556 975 473 
Q 1284 391 1588 391 
Q 1994 391 2212 530 
Q 2431 669 2431 922 
Q 2431 1156 2273 1281 
Q 2116 1406 1581 1522 
L 1381 1569 
Q 847 1681 609 1914 
Q 372 2147 372 2553 
Q 372 3047 722 3315 
Q 1072 3584 1716 3584 
Q 2034 3584 2315 3537 
Q 2597 3491 2834 3397 
z
" transform="scale(0.015625)"/>
      <path id="DejaVuSans-65" d="M 3597 1894 
L 3597 1613 
L 953 1613 
Q 991 1019 1311 708 
Q 1631 397 2203 397 
Q 2534 397 2845 478 
Q 3156 559 3463 722 
L 3463 178 
Q 3153 47 2828 -22 
Q 2503 -91 2169 -91 
Q 1331 -91 842 396 
Q 353 884 353 1716 
Q 353 2575 817 3079 
Q 1281 3584 2069 3584 
Q 2775 3584 3186 3129 
Q 3597 2675 3597 1894 
z
M 3022 2063 
Q 3016 2534 2758 2815 
Q 2500 3097 2075 3097 
Q 1594 3097 1305 2825 
Q 1016 2553 972 2059 
L 3022 2063 
z
" transform="scale(0.015625)"/>
     </defs>
     <use xlink:href="#DejaVuSans-50"/>
     <use xlink:href="#DejaVuSans-61" x="55.802734"/>
     <use xlink:href="#DejaVuSans-72" x="117.082031"/>
     <use xlink:href="#DejaVuSans-73" x="158.195312"/>
     <use xlink:href="#DejaVuSans-65" x="210.294922"/>
    </g>
   </g>
   <g id="text_14">
    <!-- FootBin -->
    <g transform="translate(361.832136 53.113402)scale(0.08 -0.08)">
     <defs>
      <path id="DejaVuSans-46" d="M 628 4666 
L 3309 4666 
L 3309 4134 
L 1259 4134 
L 1259 2759 
L 3109 2759 
L 3109 2228 
L 1259 2228 
L 1259 0 
L 628 0 
L 628 4666 
z
" transform="scale(0.015625)"/>
      <path id="DejaVuSans-6f" d="M 1959 3097 
Q 1497 3097 1228 2736 
Q 959 2375 959 1747 
Q 959 1119 1226 758 
Q 1494 397 1959 397 
Q 2419 397 2687 759 
Q 2956 1122 2956 1747 
Q 2956 2369 2687 2733 
Q 2419 3097 1959 3097 
z
M 1959 3584 
Q 2709 3584 3137 3096 
Q 3566 2609 3566 1747 
Q 3566 888 3137 398 
Q 2709 -91 1959 -91 
Q 1206 -91 779 398 
Q 353 888 353 1747 
Q 353 2609 779 3096 
Q 1206 3584 1959 3584 
z
" transform="scale(0.015625)"/>
      <path id="DejaVuSans-74" d="M 1172 4494 
L 1172 3500 
L 2356 3500 
L 2356 3053 
L 1172 3053 
L 1172 1153 
Q 1172 725 1289 603 
Q 1406 481 1766 481 
L 2356 481 
L 2356 0 
L 1766 0 
Q 1100 0 847 248 
Q 594 497 594 1153 
L 594 3053 
L 172 3053 
L 172 3500 
L 594 3500 
L 594 4494 
L 1172 4494 
z
" transform="scale(0.015625)"/>
      <path id="DejaVuSans-42" d="M 1259 2228 
L 1259 519 
L 2272 519 
Q 2781 519 3026 730 
Q 3272 941 3272 1375 
Q 3272 1813 3026 2020 
Q 2781 2228 2272 2228 
L 1259 2228 
z
M 1259 4147 
L 1259 2741 
L 2194 2741 
Q 2656 2741 2882 2914 
Q 3109 3088 3109 3444 
Q 3109 3797 2882 3972 
Q 2656 4147 2194 4147 
L 1259 4147 
z
M 628 4666 
L 2241 4666 
Q 2963 4666 3353 4366 
Q 3744 4066 3744 3513 
Q 3744 3084 3544 2831 
Q 3344 2578 2956 2516 
Q 3422 2416 3680 2098 
Q 3938 1781 3938 1306 
Q 3938 681 3513 340 
Q 3088 0 2303 0 
L 628 0 
L 628 4666 
z
" transform="scale(0.015625)"/>
      <path id="DejaVuSans-6e" d="M 3513 2113 
L 3513 0 
L 2938 0 
L 2938 2094 
Q 2938 2591 2744 2837 
Q 2550 3084 2163 3084 
Q 1697 3084 1428 2787 
Q 1159 2491 1159 1978 
L 1159 0 
L 581 0 
L 581 3500 
L 1159 3500 
L 1159 2956 
Q 1366 3272 1645 3428 
Q 1925 3584 2291 3584 
Q 2894 3584 3203 3211 
Q 3513 2838 3513 2113 
z
" transform="scale(0.015625)"/>
     </defs>
     <use xlink:href="#DejaVuSans-46"/>
     <use xlink:href="#DejaVuSans-6f" x="53.894531"/>
     <use xlink:href="#DejaVuSans-6f" x="115.076172"/>
     <use xlink:href="#DejaVuSans-74" x="176.257812"/>
     <use xlink:href="#DejaVuSans-42" x="215.466797"/>
     <use xlink:href="#DejaVuSans-69" x="284.070312"/>
     <use xlink:href="#DejaVuSans-6e" x="311.853516"/>
    </g>
   </g>
   <g id="text_15">
    <!-- WFL -->
    <g transform="translate(361.832136 94.272975)scale(0.08 -0.08)">
     <defs>
      <path id="DejaVuSans-4c" d="M 628 4666 
L 1259 4666 
L 1259 531 
L 3531 531 
L 3531 0 
L 628 0 
L 628 4666 
z
" transform="scale(0.015625)"/>
     </defs>
     <use xlink:href="#DejaVuSans-57"/>
     <use xlink:href="#DejaVuSans-46" x="98.876953"/>
     <use xlink:href="#DejaVuSans-4c" x="156.396484"/>
    </g>
   </g>
   <g id="text_16">
    <!-- WFR -->
    <g transform="translate(361.832136 133.896744)scale(0.08 -0.08)">
     <defs>
      <path id="DejaVuSans-52" d="M 2841 2188 
Q 3044 2119 3236 1894 
Q 3428 1669 3622 1275 
L 4263 0 
L 3584 0 
L 2988 1197 
Q 2756 1666 2539 1819 
Q 2322 1972 1947 1972 
L 1259 1972 
L 1259 0 
L 628 0 
L 628 4666 
L 2053 4666 
Q 2853 4666 3247 4331 
Q 3641 3997 3641 3322 
Q 3641 2881 3436 2590 
Q 3231 2300 2841 2188 
z
M 1259 4147 
L 1259 2491 
L 2053 2491 
Q 2509 2491 2742 2702 
Q 2975 2913 2975 3322 
Q 2975 3731 2742 3939 
Q 2509 4147 2053 4147 
L 1259 4147 
z
" transform="scale(0.015625)"/>
     </defs>
     <use xlink:href="#DejaVuSans-57"/>
     <use xlink:href="#DejaVuSans-46" x="98.876953"/>
     <use xlink:href="#DejaVuSans-52" x="156.396484"/>
    </g>
   </g>
   <g id="text_17">
    <!-- Main-L -->
    <g transform="translate(361.832136 82.600857)scale(0.08 -0.08)">
     <defs>
      <path id="DejaVuSans-4d" d="M 628 4666 
L 1569 4666 
L 2759 1491 
L 3956 4666 
L 4897 4666 
L 4897 0 
L 4281 0 
L 4281 4097 
L 3078 897 
L 2444 897 
L 1241 4097 
L 1241 0 
L 628 0 
L 628 4666 
z
" transform="scale(0.015625)"/>
      <path id="DejaVuSans-2d" d="M 313 2009 
L 1997 2009 
L 1997 1497 
L 313 1497 
L 313 2009 
z
" transform="scale(0.015625)"/>
     </defs>
     <use xlink:href="#DejaVuSans-4d"/>
     <use xlink:href="#DejaVuSans-61" x="86.279297"/>
     <use xlink:href="#DejaVuSans-69" x="147.558594"/>
     <use xlink:href="#DejaVuSans-6e" x="175.341797"/>
     <use xlink:href="#DejaVuSans-2d" x="238.720703"/>
     <use xlink:href="#DejaVuSans-4c" x="274.804688"/>
    </g>
   </g>
   <g id="text_18">
    <!-- Main-R -->
    <g transform="translate(361.832136 144.524514)scale(0.08 -0.08)">
     <use xlink:href="#DejaVuSans-4d"/>
     <use xlink:href="#DejaVuSans-61" x="86.279297"/>
     <use xlink:href="#DejaVuSans-69" x="147.558594"/>
     <use xlink:href="#DejaVuSans-6e" x="175.341797"/>
     <use xlink:href="#DejaVuSans-2d" x="238.720703"/>
     <use xlink:href="#DejaVuSans-52" x="274.804688"/>
    </g>
   </g>
   <g id="text_19">
    <!-- AFL -->
    <g transform="translate(361.832136 115.037058)scale(0.08 -0.08)">
     <defs>
      <path id="DejaVuSans-41" d="M 2188 4044 
L 1331 1722 
L 3047 1722 
L 2188 4044 
z
M 1831 4666 
L 2547 4666 
L 4325 0 
L 3669 0 
L 3244 1197 
L 1141 1197 
L 716 0 
L 50 0 
L 1831 4666 
z
" transform="scale(0.015625)"/>
     </defs>
     <use xlink:href="#DejaVuSans-41"/>
     <use xlink:href="#DejaVuSans-46" x="68.408203"/>
     <use xlink:href="#DejaVuSans-4c" x="125.927734"/>
    </g>
   </g>
   <g id="text_20">
    <!-- AFR -->
    <g transform="translate(361.832136 119.951634)scale(0.08 -0.08)">
     <use xlink:href="#DejaVuSans-41"/>
     <use xlink:href="#DejaVuSans-46" x="68.408203"/>
     <use xlink:href="#DejaVuSans-52" x="125.927734"/>
    </g>
   </g>
   <g id="text_21">
    <!-- Nonfinal -->
    <g transform="translate(361.832136 89.174103)scale(0.08 -0.08)">
     <defs>
      <path id="DejaVuSans-4e" d="M 628 4666 
L 1478 4666 
L 3547 763 
L 3547 4666 
L 4159 4666 
L 4159 0 
L 3309 0 
L 1241 3903 
L 1241 0 
L 628 0 
L 628 4666 
z
" transform="scale(0.015625)"/>
      <path id="DejaVuSans-66" d="M 2375 4863 
L 2375 4384 
L 1825 4384 
Q 1516 4384 1395 4259 
Q 1275 4134 1275 3809 
L 1275 3500 
L 2222 3500 
L 2222 3053 
L 1275 3053 
L 1275 0 
L 697 0 
L 697 3053 
L 147 3053 
L 147 3500 
L 697 3500 
L 697 3744 
Q 697 4328 969 4595 
Q 1241 4863 1831 4863 
L 2375 4863 
z
" transform="scale(0.015625)"/>
      <path id="DejaVuSans-6c" d="M 603 4863 
L 1178 4863 
L 1178 0 
L 603 0 
L 603 4863 
z
" transform="scale(0.015625)"/>
     </defs>
     <use xlink:href="#DejaVuSans-4e"/>
     <use xlink:href="#DejaVuSans-6f" x="74.804688"/>
     <use xlink:href="#DejaVuSans-6e" x="135.986328"/>
     <use xlink:href="#DejaVuSans-66" x="199.365234"/>
     <use xlink:href="#DejaVuSans-69" x="234.570312"/>
     <use xlink:href="#DejaVuSans-6e" x="262.353516"/>
     <use xlink:href="#DejaVuSans-61" x="325.732422"/>
     <use xlink:href="#DejaVuSans-6c" x="387.011719"/>
    </g>
   </g>
   <g id="text_22">
    <!-- Trochaic -->
    <g transform="translate(361.832136 89.788425)scale(0.08 -0.08)">
     <defs>
      <path id="DejaVuSans-54" d="M -19 4666 
L 3928 4666 
L 3928 4134 
L 2272 4134 
L 2272 0 
L 1638 0 
L 1638 4134 
L -19 4134 
L -19 4666 
z
" transform="scale(0.015625)"/>
      <path id="DejaVuSans-68" d="M 3513 2113 
L 3513 0 
L 2938 0 
L 2938 2094 
Q 2938 2591 2744 2837 
Q 2550 3084 2163 3084 
Q 1697 3084 1428 2787 
Q 1159 2491 1159 1978 
L 1159 0 
L 581 0 
L 581 4863 
L 1159 4863 
L 1159 2956 
Q 1366 3272 1645 3428 
Q 1925 3584 2291 3584 
Q 2894 3584 3203 3211 
Q 3513 2838 3513 2113 
z
" transform="scale(0.015625)"/>
     </defs>
     <use xlink:href="#DejaVuSans-54"/>
     <use xlink:href="#DejaVuSans-72" x="46.333984"/>
     <use xlink:href="#DejaVuSans-6f" x="85.197266"/>
     <use xlink:href="#DejaVuSans-63" x="146.378906"/>
     <use xlink:href="#DejaVuSans-68" x="201.359375"/>
     <use xlink:href="#DejaVuSans-61" x="264.738281"/>
     <use xlink:href="#DejaVuSans-69" x="326.017578"/>
     <use xlink:href="#DejaVuSans-63" x="353.800781"/>
    </g>
   </g>
  </g>
  <g id="axes_2">
   <g id="patch_7">
    <path d="M 57.6 307.584 
L 414.72 307.584 
L 414.72 186.624 
L 57.6 186.624 
z
" style="fill: #ffffff"/>
   </g>
   <g id="matplotlib.axis_3">
    <g id="xtick_8">
     <g id="line2d_23">
      <g>
       <use xlink:href="#mc985c485ba" x="69.723176" y="307.584" style="stroke: #000000; stroke-width: 0.8"/>
      </g>
     </g>
     <g id="text_23">
      <!-- 0 -->
      <g transform="translate(66.541926 322.182437)scale(0.1 -0.1)">
       <use xlink:href="#DejaVuSans-30"/>
      </g>
     </g>
    </g>
    <g id="xtick_9">
     <g id="line2d_24">
      <g>
       <use xlink:href="#mc985c485ba" x="110.818688" y="307.584" style="stroke: #000000; stroke-width: 0.8"/>
      </g>
     </g>
     <g id="text_24">
      <!-- 10 -->
      <g transform="translate(104.456188 322.182437)scale(0.1 -0.1)">
       <use xlink:href="#DejaVuSans-31"/>
       <use xlink:href="#DejaVuSans-30" x="63.623047"/>
      </g>
     </g>
    </g>
    <g id="xtick_10">
     <g id="line2d_25">
      <g>
       <use xlink:href="#mc985c485ba" x="151.9142" y="307.584" style="stroke: #000000; stroke-width: 0.8"/>
      </g>
     </g>
     <g id="text_25">
      <!-- 20 -->
      <g transform="translate(145.5517 322.182437)scale(0.1 -0.1)">
       <use xlink:href="#DejaVuSans-32"/>
       <use xlink:href="#DejaVuSans-30" x="63.623047"/>
      </g>
     </g>
    </g>
    <g id="xtick_11">
     <g id="line2d_26">
      <g>
       <use xlink:href="#mc985c485ba" x="193.009712" y="307.584" style="stroke: #000000; stroke-width: 0.8"/>
      </g>
     </g>
     <g id="text_26">
      <!-- 30 -->
      <g transform="translate(186.647212 322.182437)scale(0.1 -0.1)">
       <use xlink:href="#DejaVuSans-33"/>
       <use xlink:href="#DejaVuSans-30" x="63.623047"/>
      </g>
     </g>
    </g>
    <g id="xtick_12">
     <g id="line2d_27">
      <g>
       <use xlink:href="#mc985c485ba" x="234.105224" y="307.584" style="stroke: #000000; stroke-width: 0.8"/>
      </g>
     </g>
     <g id="text_27">
      <!-- 40 -->
      <g transform="translate(227.742724 322.182437)scale(0.1 -0.1)">
       <use xlink:href="#DejaVuSans-34"/>
       <use xlink:href="#DejaVuSans-30" x="63.623047"/>
      </g>
     </g>
    </g>
    <g id="xtick_13">
     <g id="line2d_28">
      <g>
       <use xlink:href="#mc985c485ba" x="275.200736" y="307.584" style="stroke: #000000; stroke-width: 0.8"/>
      </g>
     </g>
     <g id="text_28">
      <!-- 50 -->
      <g transform="translate(268.838236 322.182437)scale(0.1 -0.1)">
       <use xlink:href="#DejaVuSans-35"/>
       <use xlink:href="#DejaVuSans-30" x="63.623047"/>
      </g>
     </g>
    </g>
    <g id="xtick_14">
     <g id="line2d_29">
      <g>
       <use xlink:href="#mc985c485ba" x="316.296249" y="307.584" style="stroke: #000000; stroke-width: 0.8"/>
      </g>
     </g>
     <g id="text_29">
      <!-- 60 -->
      <g transform="translate(309.933749 322.182437)scale(0.1 -0.1)">
       <use xlink:href="#DejaVuSans-36"/>
       <use xlink:href="#DejaVuSans-30" x="63.623047"/>
      </g>
     </g>
    </g>
    <g id="xtick_15">
     <g id="line2d_30">
      <g>
       <use xlink:href="#mc985c485ba" x="357.391761" y="307.584" style="stroke: #000000; stroke-width: 0.8"/>
      </g>
     </g>
     <g id="text_30">
      <!-- 70 -->
      <g transform="translate(351.029261 322.182437)scale(0.1 -0.1)">
       <defs>
        <path id="DejaVuSans-37" d="M 525 4666 
L 3525 4666 
L 3525 4397 
L 1831 0 
L 1172 0 
L 2766 4134 
L 525 4134 
L 525 4666 
z
" transform="scale(0.015625)"/>
       </defs>
       <use xlink:href="#DejaVuSans-37"/>
       <use xlink:href="#DejaVuSans-30" x="63.623047"/>
      </g>
     </g>
    </g>
    <g id="xtick_16">
     <g id="line2d_31">
      <g>
       <use xlink:href="#mc985c485ba" x="398.487273" y="307.584" style="stroke: #000000; stroke-width: 0.8"/>
      </g>
     </g>
     <g id="text_31">
      <!-- 80 -->
      <g transform="translate(392.124773 322.182437)scale(0.1 -0.1)">
       <use xlink:href="#DejaVuSans-38"/>
       <use xlink:href="#DejaVuSans-30" x="63.623047"/>
      </g>
     </g>
    </g>
   </g>
   <g id="matplotlib.axis_4">
    <g id="ytick_4">
     <g id="line2d_32">
      <g>
       <use xlink:href="#mbea295011b" x="57.6" y="302.091197" style="stroke: #000000; stroke-width: 0.8"/>
      </g>
     </g>
     <g id="text_32">
      <!-- 0 -->
      <g transform="translate(44.2375 305.890416)scale(0.1 -0.1)">
       <use xlink:href="#DejaVuSans-30"/>
      </g>
     </g>
    </g>
    <g id="ytick_5">
     <g id="line2d_33">
      <g>
       <use xlink:href="#mbea295011b" x="57.6" y="275.196016" style="stroke: #000000; stroke-width: 0.8"/>
      </g>
     </g>
     <g id="text_33">
      <!-- 5000 -->
      <g transform="translate(25.15 278.995235)scale(0.1 -0.1)">
       <use xlink:href="#DejaVuSans-35"/>
       <use xlink:href="#DejaVuSans-30" x="63.623047"/>
       <use xlink:href="#DejaVuSans-30" x="127.246094"/>
       <use xlink:href="#DejaVuSans-30" x="190.869141"/>
      </g>
     </g>
    </g>
    <g id="ytick_6">
     <g id="line2d_34">
      <g>
       <use xlink:href="#mbea295011b" x="57.6" y="248.300836" style="stroke: #000000; stroke-width: 0.8"/>
      </g>
     </g>
     <g id="text_34">
      <!-- 10000 -->
      <g transform="translate(18.7875 252.100054)scale(0.1 -0.1)">
       <use xlink:href="#DejaVuSans-31"/>
       <use xlink:href="#DejaVuSans-30" x="63.623047"/>
       <use xlink:href="#DejaVuSans-30" x="127.246094"/>
       <use xlink:href="#DejaVuSans-30" x="190.869141"/>
       <use xlink:href="#DejaVuSans-30" x="254.492188"/>
      </g>
     </g>
    </g>
    <g id="ytick_7">
     <g id="line2d_35">
      <g>
       <use xlink:href="#mbea295011b" x="57.6" y="221.405655" style="stroke: #000000; stroke-width: 0.8"/>
      </g>
     </g>
     <g id="text_35">
      <!-- 15000 -->
      <g transform="translate(18.7875 225.204873)scale(0.1 -0.1)">
       <use xlink:href="#DejaVuSans-31"/>
       <use xlink:href="#DejaVuSans-35" x="63.623047"/>
       <use xlink:href="#DejaVuSans-30" x="127.246094"/>
       <use xlink:href="#DejaVuSans-30" x="190.869141"/>
       <use xlink:href="#DejaVuSans-30" x="254.492188"/>
      </g>
     </g>
    </g>
    <g id="ytick_8">
     <g id="line2d_36">
      <g>
       <use xlink:href="#mbea295011b" x="57.6" y="194.510474" style="stroke: #000000; stroke-width: 0.8"/>
      </g>
     </g>
     <g id="text_36">
      <!-- 20000 -->
      <g transform="translate(18.7875 198.309693)scale(0.1 -0.1)">
       <use xlink:href="#DejaVuSans-32"/>
       <use xlink:href="#DejaVuSans-30" x="63.623047"/>
       <use xlink:href="#DejaVuSans-30" x="127.246094"/>
       <use xlink:href="#DejaVuSans-30" x="190.869141"/>
       <use xlink:href="#DejaVuSans-30" x="254.492188"/>
      </g>
     </g>
    </g>
   </g>
   <g id="line2d_37">
    <path d="M 73.832727 302.064302 
L 77.942278 302.085818 
L 82.05183 302.085818 
L 86.161381 302.085818 
L 90.270932 302.085818 
L 94.380483 302.085818 
L 98.490035 302.07506 
L 102.599586 302.07506 
L 106.709137 302.085818 
L 110.818688 302.085818 
L 114.928239 302.069681 
L 119.037791 302.085818 
L 123.147342 302.07506 
L 127.256893 302.085818 
L 131.366444 302.085818 
L 135.475995 302.080439 
L 139.585547 302.080439 
L 143.695098 302.07506 
L 147.804649 302.080439 
L 151.9142 302.085818 
L 156.023751 302.080439 
L 160.133303 302.085818 
L 164.242854 302.058923 
L 168.352405 302.015891 
L 172.461956 302.015891 
L 176.571507 302.069681 
L 180.681059 302.07506 
L 184.79061 302.07506 
L 188.900161 302.085818 
L 193.009712 302.010512 
L 197.119264 301.956721 
L 201.228815 301.935205 
L 205.338366 302.02127 
L 209.447917 301.666253 
L 213.557468 301.892173 
L 217.66702 301.85452 
L 221.776571 302.069681 
L 225.886122 301.967479 
L 229.995673 301.9621 
L 234.105224 302.010512 
L 238.214776 301.999754 
L 242.324327 301.703907 
L 246.433878 301.843762 
L 250.543429 301.74156 
L 254.65298 302.085818 
L 258.762532 302.07506 
L 262.872083 302.053544 
L 266.981634 301.806108 
L 271.091185 301.763076 
L 275.200736 301.913689 
L 279.310288 301.085317 
L 283.419839 302.010512 
L 287.52939 301.827624 
L 291.638941 302.005133 
L 295.748493 301.612463 
L 299.858044 301.876036 
L 303.967595 301.773834 
L 308.077146 300.213914 
L 312.186697 300.79485 
L 316.296249 301.763076 
L 320.4058 301.300479 
L 324.515351 301.623221 
L 328.624902 297.250065 
L 332.734453 297.438331 
L 336.844005 301.106834 
L 340.953556 297.438331 
L 345.063107 299.482365 
L 349.172658 298.605582 
L 353.282209 296.685266 
L 357.391761 299.875034 
L 361.501312 283.372151 
L 365.610863 290.397173 
L 369.720414 295.561047 
L 373.829965 298.315114 
L 377.939517 296.534653 
L 382.049068 272.603321 
L 386.158619 294.797224 
L 390.26817 292.602577 
L 394.377722 192.122182 
L 398.487273 233.997978 
" clip-path="url(#p600f9909a3)" style="fill: none; stroke: #1f77b4; stroke-width: 1.5; stroke-linecap: square"/>
   </g>
   <g id="patch_8">
    <path d="M 57.6 307.584 
L 57.6 186.624 
" style="fill: none; stroke: #000000; stroke-width: 0.8; stroke-linejoin: miter; stroke-linecap: square"/>
   </g>
   <g id="patch_9">
    <path d="M 414.72 307.584 
L 414.72 186.624 
" style="fill: none; stroke: #000000; stroke-width: 0.8; stroke-linejoin: miter; stroke-linecap: square"/>
   </g>
   <g id="patch_10">
    <path d="M 57.6 307.584 
L 414.72 307.584 
" style="fill: none; stroke: #000000; stroke-width: 0.8; stroke-linejoin: miter; stroke-linecap: square"/>
   </g>
   <g id="patch_11">
    <path d="M 57.6 186.624 
L 414.72 186.624 
" style="fill: none; stroke: #000000; stroke-width: 0.8; stroke-linejoin: miter; stroke-linecap: square"/>
   </g>
  </g>
 </g>
 <defs>
  <clipPath id="pda95b9e2be">
   <rect x="57.6" y="41.472" width="357.12" height="120.96"/>
  </clipPath>
  <clipPath id="p600f9909a3">
   <rect x="57.6" y="186.624" width="357.12" height="120.96"/>
  </clipPath>
 </defs>
</svg>
