<?xml version="1.0" encoding="utf-8" standalone="no"?>
<!DOCTYPE svg PUBLIC "-//W3C//DTD SVG 1.1//EN"
  "http://www.w3.org/Graphics/SVG/1.1/DTD/svg11.dtd">
<svg xmlns:xlink="http://www.w3.org/1999/xlink" width="460.8pt" height="345.6pt" viewBox="0 0 460.8 345.6" xmlns="http://www.w3.org/2000/svg" version="1.1">
 <metadata>
  <rdf:RDF xmlns:dc="http://purl.org/dc/elements/1.1/" xmlns:cc="http://creativecommons.org/ns#" xmlns:rdf="http://www.w3.org/1999/02/22-rdf-syntax-ns#">
   <cc:Work>
    <dc:type rdf:resource="http://purl.org/dc/dcmitype/StillImage"/>
    <dc:date>2022-05-13T23:54:24.645823</dc:date>
    <dc:format>image/svg+xml</dc:format>
    <dc:creator>
     <cc:Agent>
      <dc:title>Matplotlib v3.5.1, https://matplotlib.org/</dc:title>
     </cc:Agent>
    </dc:creator>
   </cc:Work>
  </rdf:RDF>
 </metadata>
 <defs>
  <style type="text/css">*{stroke-linejoin: round; stroke-linecap: butt}</style>
 </defs>
 <g id="figure_1">
  <g id="patch_1">
   <path d="M 0 345.6 
L 460.8 345.6 
L 460.8 0 
L 0 0 
z
" style="fill: #ffffff"/>
  </g>
  <g id="axes_1">
   <g id="patch_2">
    <path d="M 57.6 162.432 
L 414.72 162.432 
L 414.72 41.472 
L 57.6 41.472 
z
" style="fill: #ffffff"/>
   </g>
   <g id="matplotlib.axis_1">
    <g id="xtick_1">
     <g id="line2d_1">
      <defs>
       <path id="m57285dc752" d="M 0 0 
L 0 3.5 
" style="stroke: #000000; stroke-width: 0.8"/>
      </defs>
      <g>
       <use xlink:href="#m57285dc752" x="73.827491" y="162.432" style="stroke: #000000; stroke-width: 0.8"/>
      </g>
     </g>
     <g id="text_1">
      <!-- 0 -->
      <g transform="translate(70.646241 177.030437)scale(0.1 -0.1)">
       <defs>
        <path id="DejaVuSans-30" d="M 2034 4250 
Q 1547 4250 1301 3770 
Q 1056 3291 1056 2328 
Q 1056 1369 1301 889 
Q 1547 409 2034 409 
Q 2525 409 2770 889 
Q 3016 1369 3016 2328 
Q 3016 3291 2770 3770 
Q 2525 4250 2034 4250 
z
M 2034 4750 
Q 2819 4750 3233 4129 
Q 3647 3509 3647 2328 
Q 3647 1150 3233 529 
Q 2819 -91 2034 -91 
Q 1250 -91 836 529 
Q 422 1150 422 2328 
Q 422 3509 836 4129 
Q 1250 4750 2034 4750 
z
" transform="scale(0.015625)"/>
       </defs>
       <use xlink:href="#DejaVuSans-30"/>
      </g>
     </g>
    </g>
    <g id="xtick_2">
     <g id="line2d_2">
      <g>
       <use xlink:href="#m57285dc752" x="126.191972" y="162.432" style="stroke: #000000; stroke-width: 0.8"/>
      </g>
     </g>
     <g id="text_2">
      <!-- 10000 -->
      <g transform="translate(110.285722 177.030437)scale(0.1 -0.1)">
       <defs>
        <path id="DejaVuSans-31" d="M 794 531 
L 1825 531 
L 1825 4091 
L 703 3866 
L 703 4441 
L 1819 4666 
L 2450 4666 
L 2450 531 
L 3481 531 
L 3481 0 
L 794 0 
L 794 531 
z
" transform="scale(0.015625)"/>
       </defs>
       <use xlink:href="#DejaVuSans-31"/>
       <use xlink:href="#DejaVuSans-30" x="63.623047"/>
       <use xlink:href="#DejaVuSans-30" x="127.246094"/>
       <use xlink:href="#DejaVuSans-30" x="190.869141"/>
       <use xlink:href="#DejaVuSans-30" x="254.492188"/>
      </g>
     </g>
    </g>
    <g id="xtick_3">
     <g id="line2d_3">
      <g>
       <use xlink:href="#m57285dc752" x="178.556453" y="162.432" style="stroke: #000000; stroke-width: 0.8"/>
      </g>
     </g>
     <g id="text_3">
      <!-- 20000 -->
      <g transform="translate(162.650203 177.030437)scale(0.1 -0.1)">
       <defs>
        <path id="DejaVuSans-32" d="M 1228 531 
L 3431 531 
L 3431 0 
L 469 0 
L 469 531 
Q 828 903 1448 1529 
Q 2069 2156 2228 2338 
Q 2531 2678 2651 2914 
Q 2772 3150 2772 3378 
Q 2772 3750 2511 3984 
Q 2250 4219 1831 4219 
Q 1534 4219 1204 4116 
Q 875 4013 500 3803 
L 500 4441 
Q 881 4594 1212 4672 
Q 1544 4750 1819 4750 
Q 2544 4750 2975 4387 
Q 3406 4025 3406 3419 
Q 3406 3131 3298 2873 
Q 3191 2616 2906 2266 
Q 2828 2175 2409 1742 
Q 1991 1309 1228 531 
z
" transform="scale(0.015625)"/>
       </defs>
       <use xlink:href="#DejaVuSans-32"/>
       <use xlink:href="#DejaVuSans-30" x="63.623047"/>
       <use xlink:href="#DejaVuSans-30" x="127.246094"/>
       <use xlink:href="#DejaVuSans-30" x="190.869141"/>
       <use xlink:href="#DejaVuSans-30" x="254.492188"/>
      </g>
     </g>
    </g>
    <g id="xtick_4">
     <g id="line2d_4">
      <g>
       <use xlink:href="#m57285dc752" x="230.920934" y="162.432" style="stroke: #000000; stroke-width: 0.8"/>
      </g>
     </g>
     <g id="text_4">
      <!-- 30000 -->
      <g transform="translate(215.014684 177.030437)scale(0.1 -0.1)">
       <defs>
        <path id="DejaVuSans-33" d="M 2597 2516 
Q 3050 2419 3304 2112 
Q 3559 1806 3559 1356 
Q 3559 666 3084 287 
Q 2609 -91 1734 -91 
Q 1441 -91 1130 -33 
Q 819 25 488 141 
L 488 750 
Q 750 597 1062 519 
Q 1375 441 1716 441 
Q 2309 441 2620 675 
Q 2931 909 2931 1356 
Q 2931 1769 2642 2001 
Q 2353 2234 1838 2234 
L 1294 2234 
L 1294 2753 
L 1863 2753 
Q 2328 2753 2575 2939 
Q 2822 3125 2822 3475 
Q 2822 3834 2567 4026 
Q 2313 4219 1838 4219 
Q 1578 4219 1281 4162 
Q 984 4106 628 3988 
L 628 4550 
Q 988 4650 1302 4700 
Q 1616 4750 1894 4750 
Q 2613 4750 3031 4423 
Q 3450 4097 3450 3541 
Q 3450 3153 3228 2886 
Q 3006 2619 2597 2516 
z
" transform="scale(0.015625)"/>
       </defs>
       <use xlink:href="#DejaVuSans-33"/>
       <use xlink:href="#DejaVuSans-30" x="63.623047"/>
       <use xlink:href="#DejaVuSans-30" x="127.246094"/>
       <use xlink:href="#DejaVuSans-30" x="190.869141"/>
       <use xlink:href="#DejaVuSans-30" x="254.492188"/>
      </g>
     </g>
    </g>
    <g id="xtick_5">
     <g id="line2d_5">
      <g>
       <use xlink:href="#m57285dc752" x="283.285415" y="162.432" style="stroke: #000000; stroke-width: 0.8"/>
      </g>
     </g>
     <g id="text_5">
      <!-- 40000 -->
      <g transform="translate(267.379165 177.030437)scale(0.1 -0.1)">
       <defs>
        <path id="DejaVuSans-34" d="M 2419 4116 
L 825 1625 
L 2419 1625 
L 2419 4116 
z
M 2253 4666 
L 3047 4666 
L 3047 1625 
L 3713 1625 
L 3713 1100 
L 3047 1100 
L 3047 0 
L 2419 0 
L 2419 1100 
L 313 1100 
L 313 1709 
L 2253 4666 
z
" transform="scale(0.015625)"/>
       </defs>
       <use xlink:href="#DejaVuSans-34"/>
       <use xlink:href="#DejaVuSans-30" x="63.623047"/>
       <use xlink:href="#DejaVuSans-30" x="127.246094"/>
       <use xlink:href="#DejaVuSans-30" x="190.869141"/>
       <use xlink:href="#DejaVuSans-30" x="254.492188"/>
      </g>
     </g>
    </g>
    <g id="xtick_6">
     <g id="line2d_6">
      <g>
       <use xlink:href="#m57285dc752" x="335.649896" y="162.432" style="stroke: #000000; stroke-width: 0.8"/>
      </g>
     </g>
     <g id="text_6">
      <!-- 50000 -->
      <g transform="translate(319.743646 177.030437)scale(0.1 -0.1)">
       <defs>
        <path id="DejaVuSans-35" d="M 691 4666 
L 3169 4666 
L 3169 4134 
L 1269 4134 
L 1269 2991 
Q 1406 3038 1543 3061 
Q 1681 3084 1819 3084 
Q 2600 3084 3056 2656 
Q 3513 2228 3513 1497 
Q 3513 744 3044 326 
Q 2575 -91 1722 -91 
Q 1428 -91 1123 -41 
Q 819 9 494 109 
L 494 744 
Q 775 591 1075 516 
Q 1375 441 1709 441 
Q 2250 441 2565 725 
Q 2881 1009 2881 1497 
Q 2881 1984 2565 2268 
Q 2250 2553 1709 2553 
Q 1456 2553 1204 2497 
Q 953 2441 691 2322 
L 691 4666 
z
" transform="scale(0.015625)"/>
       </defs>
       <use xlink:href="#DejaVuSans-35"/>
       <use xlink:href="#DejaVuSans-30" x="63.623047"/>
       <use xlink:href="#DejaVuSans-30" x="127.246094"/>
       <use xlink:href="#DejaVuSans-30" x="190.869141"/>
       <use xlink:href="#DejaVuSans-30" x="254.492188"/>
      </g>
     </g>
    </g>
    <g id="xtick_7">
     <g id="line2d_7">
      <g>
       <use xlink:href="#m57285dc752" x="388.014377" y="162.432" style="stroke: #000000; stroke-width: 0.8"/>
      </g>
     </g>
     <g id="text_7">
      <!-- 60000 -->
      <g transform="translate(372.108127 177.030437)scale(0.1 -0.1)">
       <defs>
        <path id="DejaVuSans-36" d="M 2113 2584 
Q 1688 2584 1439 2293 
Q 1191 2003 1191 1497 
Q 1191 994 1439 701 
Q 1688 409 2113 409 
Q 2538 409 2786 701 
Q 3034 994 3034 1497 
Q 3034 2003 2786 2293 
Q 2538 2584 2113 2584 
z
M 3366 4563 
L 3366 3988 
Q 3128 4100 2886 4159 
Q 2644 4219 2406 4219 
Q 1781 4219 1451 3797 
Q 1122 3375 1075 2522 
Q 1259 2794 1537 2939 
Q 1816 3084 2150 3084 
Q 2853 3084 3261 2657 
Q 3669 2231 3669 1497 
Q 3669 778 3244 343 
Q 2819 -91 2113 -91 
Q 1303 -91 875 529 
Q 447 1150 447 2328 
Q 447 3434 972 4092 
Q 1497 4750 2381 4750 
Q 2619 4750 2861 4703 
Q 3103 4656 3366 4563 
z
" transform="scale(0.015625)"/>
       </defs>
       <use xlink:href="#DejaVuSans-36"/>
       <use xlink:href="#DejaVuSans-30" x="63.623047"/>
       <use xlink:href="#DejaVuSans-30" x="127.246094"/>
       <use xlink:href="#DejaVuSans-30" x="190.869141"/>
       <use xlink:href="#DejaVuSans-30" x="254.492188"/>
      </g>
     </g>
    </g>
   </g>
   <g id="matplotlib.axis_2">
    <g id="ytick_1">
     <g id="line2d_8">
      <defs>
       <path id="ma04ed5a751" d="M 0 0 
L -3.5 0 
" style="stroke: #000000; stroke-width: 0.8"/>
      </defs>
      <g>
       <use xlink:href="#ma04ed5a751" x="57.6" y="157.285461" style="stroke: #000000; stroke-width: 0.8"/>
      </g>
     </g>
     <g id="text_8">
      <!-- 80 -->
      <g transform="translate(37.875 161.084679)scale(0.1 -0.1)">
       <defs>
        <path id="DejaVuSans-38" d="M 2034 2216 
Q 1584 2216 1326 1975 
Q 1069 1734 1069 1313 
Q 1069 891 1326 650 
Q 1584 409 2034 409 
Q 2484 409 2743 651 
Q 3003 894 3003 1313 
Q 3003 1734 2745 1975 
Q 2488 2216 2034 2216 
z
M 1403 2484 
Q 997 2584 770 2862 
Q 544 3141 544 3541 
Q 544 4100 942 4425 
Q 1341 4750 2034 4750 
Q 2731 4750 3128 4425 
Q 3525 4100 3525 3541 
Q 3525 3141 3298 2862 
Q 3072 2584 2669 2484 
Q 3125 2378 3379 2068 
Q 3634 1759 3634 1313 
Q 3634 634 3220 271 
Q 2806 -91 2034 -91 
Q 1263 -91 848 271 
Q 434 634 434 1313 
Q 434 1759 690 2068 
Q 947 2378 1403 2484 
z
M 1172 3481 
Q 1172 3119 1398 2916 
Q 1625 2713 2034 2713 
Q 2441 2713 2670 2916 
Q 2900 3119 2900 3481 
Q 2900 3844 2670 4047 
Q 2441 4250 2034 4250 
Q 1625 4250 1398 4047 
Q 1172 3844 1172 3481 
z
" transform="scale(0.015625)"/>
       </defs>
       <use xlink:href="#DejaVuSans-38"/>
       <use xlink:href="#DejaVuSans-30" x="63.623047"/>
      </g>
     </g>
    </g>
    <g id="ytick_2">
     <g id="line2d_9">
      <g>
       <use xlink:href="#ma04ed5a751" x="57.6" y="136.18691" style="stroke: #000000; stroke-width: 0.8"/>
      </g>
     </g>
     <g id="text_9">
      <!-- 85 -->
      <g transform="translate(37.875 139.986129)scale(0.1 -0.1)">
       <use xlink:href="#DejaVuSans-38"/>
       <use xlink:href="#DejaVuSans-35" x="63.623047"/>
      </g>
     </g>
    </g>
    <g id="ytick_3">
     <g id="line2d_10">
      <g>
       <use xlink:href="#ma04ed5a751" x="57.6" y="115.088359" style="stroke: #000000; stroke-width: 0.8"/>
      </g>
     </g>
     <g id="text_10">
      <!-- 90 -->
      <g transform="translate(37.875 118.887578)scale(0.1 -0.1)">
       <defs>
        <path id="DejaVuSans-39" d="M 703 97 
L 703 672 
Q 941 559 1184 500 
Q 1428 441 1663 441 
Q 2288 441 2617 861 
Q 2947 1281 2994 2138 
Q 2813 1869 2534 1725 
Q 2256 1581 1919 1581 
Q 1219 1581 811 2004 
Q 403 2428 403 3163 
Q 403 3881 828 4315 
Q 1253 4750 1959 4750 
Q 2769 4750 3195 4129 
Q 3622 3509 3622 2328 
Q 3622 1225 3098 567 
Q 2575 -91 1691 -91 
Q 1453 -91 1209 -44 
Q 966 3 703 97 
z
M 1959 2075 
Q 2384 2075 2632 2365 
Q 2881 2656 2881 3163 
Q 2881 3666 2632 3958 
Q 2384 4250 1959 4250 
Q 1534 4250 1286 3958 
Q 1038 3666 1038 3163 
Q 1038 2656 1286 2365 
Q 1534 2075 1959 2075 
z
" transform="scale(0.015625)"/>
       </defs>
       <use xlink:href="#DejaVuSans-39"/>
       <use xlink:href="#DejaVuSans-30" x="63.623047"/>
      </g>
     </g>
    </g>
    <g id="ytick_4">
     <g id="line2d_11">
      <g>
       <use xlink:href="#ma04ed5a751" x="57.6" y="93.989809" style="stroke: #000000; stroke-width: 0.8"/>
      </g>
     </g>
     <g id="text_11">
      <!-- 95 -->
      <g transform="translate(37.875 97.789028)scale(0.1 -0.1)">
       <use xlink:href="#DejaVuSans-39"/>
       <use xlink:href="#DejaVuSans-35" x="63.623047"/>
      </g>
     </g>
    </g>
    <g id="ytick_5">
     <g id="line2d_12">
      <g>
       <use xlink:href="#ma04ed5a751" x="57.6" y="72.891258" style="stroke: #000000; stroke-width: 0.8"/>
      </g>
     </g>
     <g id="text_12">
      <!-- 100 -->
      <g transform="translate(31.5125 76.690477)scale(0.1 -0.1)">
       <use xlink:href="#DejaVuSans-31"/>
       <use xlink:href="#DejaVuSans-30" x="63.623047"/>
       <use xlink:href="#DejaVuSans-30" x="127.246094"/>
      </g>
     </g>
    </g>
    <g id="ytick_6">
     <g id="line2d_13">
      <g>
       <use xlink:href="#ma04ed5a751" x="57.6" y="51.792708" style="stroke: #000000; stroke-width: 0.8"/>
      </g>
     </g>
     <g id="text_13">
      <!-- 105 -->
      <g transform="translate(31.5125 55.591926)scale(0.1 -0.1)">
       <use xlink:href="#DejaVuSans-31"/>
       <use xlink:href="#DejaVuSans-30" x="63.623047"/>
       <use xlink:href="#DejaVuSans-35" x="127.246094"/>
      </g>
     </g>
    </g>
   </g>
   <g id="line2d_14">
    <path d="M 73.832727 71.836331 
L 73.958402 65.607235 
L 73.968875 65.607235 
L 74.089313 62.794095 
L 74.230697 62.794095 
L 74.356372 58.574385 
L 75.162785 58.574385 
L 75.277987 57.519457 
L 75.550282 57.519457 
L 75.665484 55.409602 
L 77.718172 55.409602 
L 77.83861 52.596462 
L 87.81928 52.596462 
L 87.934482 51.189892 
L 125.390795 51.189892 
L 125.505997 50.486607 
L 182.92365 50.486607 
L 183.038852 48.376752 
L 334.8173 48.376752 
L 334.932502 46.970182 
L 398.487273 46.970182 
L 398.487273 46.970182 
" clip-path="url(#pe55d920eda)" style="fill: none; stroke: #1f77b4; stroke-width: 1.5; stroke-linecap: square"/>
   </g>
   <g id="line2d_15">
    <path d="M 73.832727 72.891258 
L 73.8432 72.891258 
L 73.968875 87.660244 
L 74.021239 87.660244 
L 74.047422 86.816302 
L 74.063131 95.255722 
L 74.089313 94.41178 
L 74.141678 94.41178 
L 74.214988 91.59864 
L 74.220224 95.81835 
L 74.246407 95.81835 
L 74.267352 95.81835 
L 74.356372 94.41178 
L 74.361609 98.63149 
L 74.366845 98.63149 
L 74.382554 98.63149 
L 74.455865 97.22492 
L 74.461101 101.44463 
L 74.482047 101.44463 
L 74.534411 101.44463 
L 74.649613 105.66434 
L 74.660086 105.66434 
L 74.775288 103.413828 
L 75.021401 103.413828 
L 75.136603 107.633538 
L 75.162785 107.633538 
L 75.168022 106.578611 
L 75.173258 110.798321 
L 75.236095 110.798321 
L 75.351297 115.018031 
L 75.550282 115.018031 
L 75.665484 112.908176 
L 75.764977 112.908176 
L 75.880178 112.204891 
L 76.058218 112.204891 
L 76.17342 116.424601 
L 76.278149 116.424601 
L 76.39335 115.580659 
L 76.948414 115.580659 
L 77.063616 119.800369 
L 77.136926 119.800369 
L 77.252128 118.956427 
L 77.665807 118.956427 
L 77.74959 123.176137 
L 77.775773 121.769567 
L 77.786246 121.769567 
L 77.901447 120.362997 
L 78.084723 120.362997 
L 78.199925 124.582707 
L 79.697549 124.582707 
L 79.812751 128.802417 
L 80.844331 128.802417 
L 80.959533 127.958475 
L 82.074897 127.958475 
L 82.190098 126.551905 
L 82.425739 126.551905 
L 82.54094 130.771615 
L 82.891782 130.771615 
L 83.006984 134.991326 
L 84.179949 134.991326 
L 84.295151 134.147384 
L 90.673144 134.147384 
L 90.788346 138.367094 
L 93.129039 138.367094 
L 93.24424 136.960524 
L 99.601288 136.960524 
L 99.71649 135.553954 
L 101.564956 135.553954 
L 101.680158 139.773664 
L 112.760482 139.773664 
L 112.875684 138.929722 
L 115.671948 138.929722 
L 115.787149 143.149432 
L 125.390795 143.149432 
L 125.505997 147.369142 
L 134.172319 147.369142 
L 134.287521 146.5252 
L 134.638363 146.5252 
L 134.753564 145.11863 
L 134.821638 145.11863 
L 134.93684 149.33834 
L 184.327019 149.33834 
L 184.44222 148.494398 
L 194.443836 148.494398 
L 194.559038 152.714108 
L 257.972425 152.714108 
L 258.087626 151.307538 
L 353.228652 151.307538 
L 353.343854 149.900968 
L 398.487273 149.900968 
L 398.487273 149.900968 
" clip-path="url(#pe55d920eda)" style="fill: none; stroke: #ff7f0e; stroke-width: 1.5; stroke-linecap: square"/>
   </g>
   <g id="line2d_16">
    <path d="M 73.832727 77.110968 
L 73.8432 75.001113 
L 73.853673 83.440534 
L 73.93222 80.627393 
L 73.947929 80.627393 
L 74.068367 90.473384 
L 74.141678 90.473384 
L 74.230697 98.912804 
L 74.25688 97.506234 
L 74.267352 97.506234 
L 74.298771 96.099664 
L 74.304008 100.319374 
L 74.372081 98.912804 
L 74.382554 98.912804 
L 74.502993 107.352224 
L 74.534411 107.352224 
L 74.649613 111.571934 
L 74.660086 111.571934 
L 74.780524 120.011355 
L 75.162785 120.011355 
L 75.28846 116.846572 
L 75.764977 116.846572 
L 75.880178 121.066282 
L 76.278149 121.066282 
L 76.39335 125.285992 
L 77.718172 125.285992 
L 77.786246 122.472852 
L 77.791482 126.692562 
L 77.822901 126.692562 
L 82.074897 126.692562 
L 82.190098 130.912272 
L 82.425739 130.912272 
L 82.54094 130.208987 
L 84.179949 130.208987 
L 84.295151 134.428698 
L 87.81928 134.428698 
L 87.934482 133.022127 
L 93.129039 133.022127 
L 93.24424 137.241838 
L 94.862303 137.241838 
L 94.977505 141.461548 
L 125.390795 141.461548 
L 125.505997 140.758263 
L 134.172319 140.758263 
L 134.287521 144.977973 
L 134.638363 144.977973 
L 134.753564 149.197683 
L 149.499402 149.197683 
L 149.614604 153.417393 
L 182.92365 153.417393 
L 183.038852 151.307538 
L 257.972425 151.307538 
L 258.087626 155.527248 
L 305.734068 155.527248 
L 305.849269 154.120678 
L 334.8173 154.120678 
L 334.932502 152.714108 
L 353.228652 152.714108 
L 353.343854 156.933818 
L 398.487273 156.933818 
L 398.487273 156.933818 
" clip-path="url(#pe55d920eda)" style="fill: none; stroke: #2ca02c; stroke-width: 1.5; stroke-linecap: square"/>
   </g>
   <g id="line2d_17">
    <path d="M 73.832727 72.891258 
L 73.8432 72.891258 
L 73.968875 69.334645 
L 74.016003 73.554356 
L 74.07884 71.655486 
L 74.110259 71.655486 
L 74.225461 70.600558 
L 74.298771 70.600558 
L 74.413973 69.193988 
L 74.696741 69.193988 
L 74.81718 67.295119 
L 74.979509 67.295119 
L 75.094711 66.240191 
L 75.162785 66.240191 
L 75.277987 70.459901 
L 75.764977 70.459901 
L 75.880178 69.756616 
L 76.278149 69.756616 
L 76.39335 68.912674 
L 77.136926 68.912674 
L 77.252128 68.068732 
L 79.294343 68.068732 
L 79.409544 67.013805 
L 79.540456 67.013805 
L 79.655658 65.958877 
L 80.844331 65.958877 
L 80.959533 65.114935 
L 82.425739 65.114935 
L 82.54094 64.41165 
L 84.179949 64.41165 
L 84.295151 63.567708 
L 99.601288 63.567708 
L 99.71649 67.787418 
L 102.884541 67.787418 
L 102.999743 66.732491 
L 112.760482 66.732491 
L 112.875684 65.888549 
L 121.112617 65.888549 
L 121.227819 70.108259 
L 124.076447 70.108259 
L 124.191649 69.053331 
L 134.172319 69.053331 
L 134.287521 68.209389 
L 152.520833 68.209389 
L 152.636035 67.154462 
L 184.327019 67.154462 
L 184.44222 66.31052 
L 214.860747 66.31052 
L 214.975949 65.255592 
L 305.734068 65.255592 
L 305.849269 69.475302 
L 398.487273 69.475302 
L 398.487273 69.475302 
" clip-path="url(#pe55d920eda)" style="fill: none; stroke: #d62728; stroke-width: 1.5; stroke-linecap: square"/>
   </g>
   <g id="line2d_18">
    <path d="M 73.832727 72.891258 
L 73.874619 72.891258 
L 73.989821 72.187973 
L 74.063131 72.187973 
L 74.178333 71.344031 
L 74.592012 71.344031 
L 74.707214 70.289104 
L 121.112617 70.289104 
L 121.227819 68.882534 
L 125.390795 68.882534 
L 125.505997 73.102244 
L 305.734068 73.102244 
L 305.849269 71.695674 
L 334.8173 71.695674 
L 334.932502 75.915384 
L 398.487273 75.915384 
L 398.487273 75.915384 
" clip-path="url(#pe55d920eda)" style="fill: none; stroke: #9467bd; stroke-width: 1.5; stroke-linecap: square"/>
   </g>
   <g id="line2d_19">
    <path d="M 73.832727 77.110968 
L 73.8432 77.110968 
L 73.968875 91.176669 
L 74.021239 88.363529 
L 74.026476 92.583239 
L 74.063131 92.583239 
L 74.183569 101.022659 
L 74.209752 101.022659 
L 74.230697 105.242369 
L 74.319717 103.835799 
L 74.351136 103.835799 
L 74.466337 102.429229 
L 74.592012 102.429229 
L 74.712451 110.868649 
L 75.162785 110.868649 
L 75.277987 109.813722 
L 75.764977 109.813722 
L 75.880178 114.033432 
L 76.833212 114.033432 
L 76.948414 118.253142 
L 77.718172 118.253142 
L 77.833374 116.846572 
L 82.074897 116.846572 
L 82.190098 121.066282 
L 82.425739 121.066282 
L 82.54094 120.362997 
L 87.81928 120.362997 
L 87.934482 118.956427 
L 93.129039 118.956427 
L 93.24424 123.176137 
L 94.862303 123.176137 
L 94.977505 127.395847 
L 125.390795 127.395847 
L 125.505997 126.692562 
L 134.638363 126.692562 
L 134.753564 130.912272 
L 257.972425 130.912272 
L 258.087626 135.131983 
L 334.8173 135.131983 
L 334.932502 133.725413 
L 353.228652 133.725413 
L 353.343854 137.945123 
L 398.487273 137.945123 
L 398.487273 137.945123 
" clip-path="url(#pe55d920eda)" style="fill: none; stroke: #8c564b; stroke-width: 1.5; stroke-linecap: square"/>
   </g>
   <g id="line2d_20">
    <path d="M 73.832727 71.836331 
L 73.8432 71.836331 
L 74.000294 66.31052 
L 74.063131 66.31052 
L 74.178333 65.466578 
L 74.592012 65.466578 
L 74.707214 64.41165 
L 74.733396 64.41165 
L 74.848598 60.19194 
L 99.601288 60.19194 
L 99.71649 58.78537 
L 121.112617 58.78537 
L 121.227819 57.3788 
L 125.390795 57.3788 
L 125.505997 61.59851 
L 149.499402 61.59851 
L 149.614604 59.488655 
L 305.734068 59.488655 
L 305.849269 58.082085 
L 334.8173 58.082085 
L 334.932502 62.301795 
L 398.487273 62.301795 
L 398.487273 62.301795 
" clip-path="url(#pe55d920eda)" style="fill: none; stroke: #e377c2; stroke-width: 1.5; stroke-linecap: square"/>
   </g>
   <g id="line2d_21">
    <path d="M 73.832727 77.110968 
L 73.8432 77.110968 
L 73.974111 95.255722 
L 74.016003 95.255722 
L 74.136441 93.145867 
L 74.267352 93.145867 
L 74.382554 97.365577 
L 74.592012 97.365577 
L 74.696741 101.585287 
L 74.701978 100.53036 
L 74.712451 100.53036 
L 74.733396 99.686418 
L 74.738633 103.906128 
L 74.80147 103.906128 
L 74.979509 103.906128 
L 75.094711 102.8512 
L 75.162785 102.8512 
L 75.277987 107.07091 
L 75.764977 107.07091 
L 75.880178 106.367625 
L 76.278149 106.367625 
L 76.39335 105.523683 
L 77.136926 105.523683 
L 77.252128 104.679741 
L 77.74959 104.679741 
L 77.864792 108.899451 
L 79.294343 108.899451 
L 79.409544 107.844524 
L 79.540456 107.844524 
L 79.655658 106.789596 
L 80.844331 106.789596 
L 80.959533 105.945654 
L 82.425739 105.945654 
L 82.54094 105.242369 
L 84.179949 105.242369 
L 84.295151 104.398427 
L 99.601288 104.398427 
L 99.71649 108.618137 
L 102.884541 108.618137 
L 102.999743 107.56321 
L 112.760482 107.56321 
L 112.875684 106.719268 
L 121.112617 106.719268 
L 121.227819 110.938978 
L 124.076447 110.938978 
L 124.191649 109.88405 
L 125.390795 109.88405 
L 125.505997 109.180765 
L 134.172319 109.180765 
L 134.287521 108.336823 
L 149.499402 108.336823 
L 149.614604 112.556533 
L 152.520833 112.556533 
L 152.636035 111.501606 
L 184.327019 111.501606 
L 184.44222 110.657664 
L 214.860747 110.657664 
L 214.975949 109.602736 
L 305.734068 109.602736 
L 305.849269 113.822446 
L 398.487273 113.822446 
L 398.487273 113.822446 
" clip-path="url(#pe55d920eda)" style="fill: none; stroke: #7f7f7f; stroke-width: 1.5; stroke-linecap: square"/>
   </g>
   <g id="line2d_22">
    <path d="M 73.832727 72.891258 
L 73.906038 82.837718 
L 73.947929 80.727863 
L 73.968875 79.883921 
L 73.984584 88.323341 
L 74.010767 88.323341 
L 74.016003 88.323341 
L 74.152151 83.119032 
L 74.204515 83.119032 
L 74.230697 77.492752 
L 74.272589 85.932172 
L 74.309244 84.525602 
L 74.351136 84.525602 
L 74.471574 95.778162 
L 74.534411 95.778162 
L 74.592012 99.997872 
L 74.644377 98.942945 
L 74.660086 98.942945 
L 74.780524 95.637505 
L 74.979509 95.637505 
L 75.094711 94.582578 
L 75.162785 94.582578 
L 75.168022 98.802288 
L 75.27275 96.692433 
L 75.764977 96.692433 
L 75.880178 95.989148 
L 76.278149 95.989148 
L 76.39335 95.145206 
L 76.833212 95.145206 
L 76.948414 93.035351 
L 77.136926 93.035351 
L 77.252128 92.191409 
L 77.718172 92.191409 
L 77.786246 100.630829 
L 77.833374 99.224259 
L 79.294343 99.224259 
L 79.409544 98.169331 
L 79.540456 98.169331 
L 79.655658 97.114404 
L 80.844331 97.114404 
L 80.959533 96.270462 
L 82.074897 96.270462 
L 82.190098 94.863892 
L 82.425739 94.863892 
L 82.54094 94.160607 
L 84.179949 94.160607 
L 84.295151 93.316665 
L 87.81928 93.316665 
L 87.934482 97.536375 
L 93.129039 97.536375 
L 93.24424 96.129805 
L 94.862303 96.129805 
L 94.977505 95.074877 
L 99.601288 95.074877 
L 99.71649 93.668307 
L 102.884541 93.668307 
L 102.999743 92.61338 
L 112.760482 92.61338 
L 112.875684 91.769438 
L 121.112617 91.769438 
L 121.227819 95.989148 
L 124.076447 95.989148 
L 124.191649 94.93422 
L 125.390795 94.93422 
L 125.505997 99.15393 
L 134.172319 99.15393 
L 134.287521 98.309988 
L 134.638363 98.309988 
L 134.753564 96.903418 
L 149.499402 96.903418 
L 149.614604 101.123128 
L 152.520833 101.123128 
L 152.636035 100.068201 
L 182.92365 100.068201 
L 183.038852 104.287911 
L 184.327019 104.287911 
L 184.44222 103.443969 
L 214.860747 103.443969 
L 214.975949 102.389041 
L 257.972425 102.389041 
L 258.087626 100.982471 
L 334.8173 100.982471 
L 334.932502 105.202181 
L 353.228652 105.202181 
L 353.343854 103.795611 
L 398.487273 103.795611 
L 398.487273 103.795611 
" clip-path="url(#pe55d920eda)" style="fill: none; stroke: #bcbd22; stroke-width: 1.5; stroke-linecap: square"/>
   </g>
   <g id="line2d_23">
    <path d="M 73.832727 77.110968 
L 73.906038 89.167283 
L 73.953166 86.213486 
L 73.968875 86.213486 
L 74.016003 90.433196 
L 74.07884 88.534327 
L 74.110259 88.534327 
L 74.204515 87.479399 
L 74.298771 100.138529 
L 74.324953 98.731959 
L 74.356372 98.731959 
L 74.471574 95.215534 
L 74.592012 95.215534 
L 74.696741 99.435244 
L 74.701978 98.380317 
L 74.712451 98.380317 
L 74.827652 97.536375 
L 74.979509 97.536375 
L 75.094711 96.481447 
L 75.162785 96.481447 
L 75.277987 100.701157 
L 75.764977 100.701157 
L 75.880178 99.997872 
L 76.278149 99.997872 
L 76.39335 99.15393 
L 76.833212 99.15393 
L 76.948414 103.37364 
L 77.136926 103.37364 
L 77.252128 102.529698 
L 77.74959 102.529698 
L 77.786246 106.749409 
L 77.859556 105.342838 
L 79.294343 105.342838 
L 79.409544 104.287911 
L 79.540456 104.287911 
L 79.655658 103.232983 
L 80.844331 103.232983 
L 80.959533 102.389041 
L 82.425739 102.389041 
L 82.54094 101.685756 
L 84.179949 101.685756 
L 84.295151 100.841814 
L 87.81928 100.841814 
L 87.934482 105.061524 
L 94.862303 105.061524 
L 94.977505 104.006597 
L 99.601288 104.006597 
L 99.71649 108.226307 
L 102.884541 108.226307 
L 102.999743 107.17138 
L 112.760482 107.17138 
L 112.875684 106.327438 
L 121.112617 106.327438 
L 121.227819 110.547148 
L 124.076447 110.547148 
L 124.191649 109.49222 
L 125.390795 109.49222 
L 125.505997 108.788935 
L 134.172319 108.788935 
L 134.287521 107.944993 
L 152.520833 107.944993 
L 152.636035 106.890066 
L 182.92365 106.890066 
L 183.038852 111.109776 
L 184.327019 111.109776 
L 184.44222 110.265834 
L 214.860747 110.265834 
L 214.975949 109.210906 
L 305.734068 109.210906 
L 305.849269 113.430616 
L 398.487273 113.430616 
L 398.487273 113.430616 
" clip-path="url(#pe55d920eda)" style="fill: none; stroke: #17becf; stroke-width: 1.5; stroke-linecap: square"/>
   </g>
   <g id="line2d_24">
    <path d="M 73.832727 71.836331 
L 73.8432 71.836331 
L 73.885092 69.12366 
L 73.895565 77.56308 
L 73.900801 77.56308 
L 73.947929 77.56308 
L 73.968875 76.719138 
L 73.984584 85.158558 
L 74.010767 85.158558 
L 74.021239 85.158558 
L 74.146914 82.064104 
L 74.209752 82.064104 
L 74.230697 80.657534 
L 74.235934 84.877244 
L 74.309244 84.877244 
L 74.351136 84.877244 
L 74.466337 89.096955 
L 74.592012 89.096955 
L 74.712451 86.635457 
L 75.162785 86.635457 
L 75.277987 90.855167 
L 75.764977 90.855167 
L 75.880178 90.151882 
L 76.833212 90.151882 
L 76.948414 88.042027 
L 77.718172 88.042027 
L 77.833374 92.261737 
L 82.074897 92.261737 
L 82.190098 90.855167 
L 82.425739 90.855167 
L 82.54094 95.074877 
L 87.81928 95.074877 
L 87.934482 99.294587 
L 93.129039 99.294587 
L 93.24424 97.888017 
L 94.862303 97.888017 
L 94.977505 96.83309 
L 125.390795 96.83309 
L 125.505997 101.0528 
L 134.638363 101.0528 
L 134.753564 99.64623 
L 257.972425 99.64623 
L 258.087626 98.23966 
L 334.8173 98.23966 
L 334.932502 102.45937 
L 353.228652 102.45937 
L 353.343854 101.0528 
L 398.487273 101.0528 
L 398.487273 101.0528 
" clip-path="url(#pe55d920eda)" style="fill: none; stroke: #1f77b4; stroke-width: 1.5; stroke-linecap: square"/>
   </g>
   <g id="line2d_25">
    <path d="M 73.832727 71.836331 
L 73.8432 71.836331 
L 73.906038 67.013805 
L 73.942693 71.233515 
L 74.047422 83.892645 
L 74.057895 79.672935 
L 74.063131 75.453225 
L 74.115495 83.892645 
L 74.162624 83.892645 
L 74.214988 83.892645 
L 74.298771 79.672935 
L 74.324953 83.892645 
L 74.351136 83.892645 
L 74.356372 88.112355 
L 74.455865 86.0025 
L 74.576303 77.56308 
L 74.696741 77.56308 
L 74.81718 86.0025 
L 74.979509 86.0025 
L 75.021401 90.222211 
L 75.089475 86.0025 
L 75.162785 86.0025 
L 75.236095 90.222211 
L 75.27275 86.0025 
L 75.550282 86.0025 
L 75.665484 90.222211 
L 75.764977 90.222211 
L 75.880178 94.441921 
L 76.058218 94.441921 
L 76.17342 90.222211 
L 76.278149 90.222211 
L 76.39335 94.441921 
L 76.948414 94.441921 
L 77.063616 90.222211 
L 77.136926 90.222211 
L 77.252128 94.441921 
L 77.665807 94.441921 
L 77.781009 90.222211 
L 78.084723 90.222211 
L 78.199925 86.0025 
L 79.294343 86.0025 
L 79.409544 90.222211 
L 79.540456 90.222211 
L 79.655658 94.441921 
L 79.697549 94.441921 
L 79.812751 90.222211 
L 80.844331 90.222211 
L 80.959533 94.441921 
L 82.425739 94.441921 
L 82.54094 98.661631 
L 82.891782 98.661631 
L 83.006984 94.441921 
L 84.179949 94.441921 
L 84.295151 98.661631 
L 87.81928 98.661631 
L 87.934482 102.881341 
L 90.673144 102.881341 
L 90.788346 98.661631 
L 94.862303 98.661631 
L 94.977505 97.606703 
L 99.601288 97.606703 
L 99.71649 101.826413 
L 101.564956 101.826413 
L 101.680158 97.606703 
L 102.884541 97.606703 
L 102.999743 101.826413 
L 112.760482 101.826413 
L 112.875684 106.046124 
L 115.671948 106.046124 
L 115.787149 101.826413 
L 121.112617 101.826413 
L 121.227819 100.419843 
L 124.076447 100.419843 
L 124.191649 104.639553 
L 125.390795 104.639553 
L 125.505997 103.936268 
L 134.172319 103.936268 
L 134.287521 108.155979 
L 134.821638 108.155979 
L 134.93684 103.936268 
L 149.499402 103.936268 
L 149.614604 101.826413 
L 152.520833 101.826413 
L 152.636035 106.046124 
L 184.327019 106.046124 
L 184.44222 110.265834 
L 194.443836 110.265834 
L 194.559038 106.046124 
L 214.860747 106.046124 
L 214.975949 110.265834 
L 398.487273 110.265834 
L 398.487273 110.265834 
" clip-path="url(#pe55d920eda)" style="fill: none; stroke: #ff7f0e; stroke-width: 1.5; stroke-linecap: square"/>
   </g>
   <g id="patch_3">
    <path d="M 57.6 162.432 
L 57.6 41.472 
" style="fill: none; stroke: #000000; stroke-width: 0.8; stroke-linejoin: miter; stroke-linecap: square"/>
   </g>
   <g id="patch_4">
    <path d="M 414.72 162.432 
L 414.72 41.472 
" style="fill: none; stroke: #000000; stroke-width: 0.8; stroke-linejoin: miter; stroke-linecap: square"/>
   </g>
   <g id="patch_5">
    <path d="M 57.6 162.432 
L 414.72 162.432 
" style="fill: none; stroke: #000000; stroke-width: 0.8; stroke-linejoin: miter; stroke-linecap: square"/>
   </g>
   <g id="patch_6">
    <path d="M 57.6 41.472 
L 414.72 41.472 
" style="fill: none; stroke: #000000; stroke-width: 0.8; stroke-linejoin: miter; stroke-linecap: square"/>
   </g>
   <g id="text_14">
    <!-- WSP -->
    <g transform="translate(361.832136 46.970182)scale(0.08 -0.08)">
     <defs>
      <path id="DejaVuSans-57" d="M 213 4666 
L 850 4666 
L 1831 722 
L 2809 4666 
L 3519 4666 
L 4500 722 
L 5478 4666 
L 6119 4666 
L 4947 0 
L 4153 0 
L 3169 4050 
L 2175 0 
L 1381 0 
L 213 4666 
z
" transform="scale(0.015625)"/>
      <path id="DejaVuSans-53" d="M 3425 4513 
L 3425 3897 
Q 3066 4069 2747 4153 
Q 2428 4238 2131 4238 
Q 1616 4238 1336 4038 
Q 1056 3838 1056 3469 
Q 1056 3159 1242 3001 
Q 1428 2844 1947 2747 
L 2328 2669 
Q 3034 2534 3370 2195 
Q 3706 1856 3706 1288 
Q 3706 609 3251 259 
Q 2797 -91 1919 -91 
Q 1588 -91 1214 -16 
Q 841 59 441 206 
L 441 856 
Q 825 641 1194 531 
Q 1563 422 1919 422 
Q 2459 422 2753 634 
Q 3047 847 3047 1241 
Q 3047 1584 2836 1778 
Q 2625 1972 2144 2069 
L 1759 2144 
Q 1053 2284 737 2584 
Q 422 2884 422 3419 
Q 422 4038 858 4394 
Q 1294 4750 2059 4750 
Q 2388 4750 2728 4690 
Q 3069 4631 3425 4513 
z
" transform="scale(0.015625)"/>
      <path id="DejaVuSans-50" d="M 1259 4147 
L 1259 2394 
L 2053 2394 
Q 2494 2394 2734 2622 
Q 2975 2850 2975 3272 
Q 2975 3691 2734 3919 
Q 2494 4147 2053 4147 
L 1259 4147 
z
M 628 4666 
L 2053 4666 
Q 2838 4666 3239 4311 
Q 3641 3956 3641 3272 
Q 3641 2581 3239 2228 
Q 2838 1875 2053 1875 
L 1259 1875 
L 1259 0 
L 628 0 
L 628 4666 
z
" transform="scale(0.015625)"/>
     </defs>
     <use xlink:href="#DejaVuSans-57"/>
     <use xlink:href="#DejaVuSans-53" x="98.876953"/>
     <use xlink:href="#DejaVuSans-50" x="162.353516"/>
    </g>
   </g>
   <g id="text_15">
    <!-- Iambic -->
    <g transform="translate(361.832136 149.900968)scale(0.08 -0.08)">
     <defs>
      <path id="DejaVuSans-49" d="M 628 4666 
L 1259 4666 
L 1259 0 
L 628 0 
L 628 4666 
z
" transform="scale(0.015625)"/>
      <path id="DejaVuSans-61" d="M 2194 1759 
Q 1497 1759 1228 1600 
Q 959 1441 959 1056 
Q 959 750 1161 570 
Q 1363 391 1709 391 
Q 2188 391 2477 730 
Q 2766 1069 2766 1631 
L 2766 1759 
L 2194 1759 
z
M 3341 1997 
L 3341 0 
L 2766 0 
L 2766 531 
Q 2569 213 2275 61 
Q 1981 -91 1556 -91 
Q 1019 -91 701 211 
Q 384 513 384 1019 
Q 384 1609 779 1909 
Q 1175 2209 1959 2209 
L 2766 2209 
L 2766 2266 
Q 2766 2663 2505 2880 
Q 2244 3097 1772 3097 
Q 1472 3097 1187 3025 
Q 903 2953 641 2809 
L 641 3341 
Q 956 3463 1253 3523 
Q 1550 3584 1831 3584 
Q 2591 3584 2966 3190 
Q 3341 2797 3341 1997 
z
" transform="scale(0.015625)"/>
      <path id="DejaVuSans-6d" d="M 3328 2828 
Q 3544 3216 3844 3400 
Q 4144 3584 4550 3584 
Q 5097 3584 5394 3201 
Q 5691 2819 5691 2113 
L 5691 0 
L 5113 0 
L 5113 2094 
Q 5113 2597 4934 2840 
Q 4756 3084 4391 3084 
Q 3944 3084 3684 2787 
Q 3425 2491 3425 1978 
L 3425 0 
L 2847 0 
L 2847 2094 
Q 2847 2600 2669 2842 
Q 2491 3084 2119 3084 
Q 1678 3084 1418 2786 
Q 1159 2488 1159 1978 
L 1159 0 
L 581 0 
L 581 3500 
L 1159 3500 
L 1159 2956 
Q 1356 3278 1631 3431 
Q 1906 3584 2284 3584 
Q 2666 3584 2933 3390 
Q 3200 3197 3328 2828 
z
" transform="scale(0.015625)"/>
      <path id="DejaVuSans-62" d="M 3116 1747 
Q 3116 2381 2855 2742 
Q 2594 3103 2138 3103 
Q 1681 3103 1420 2742 
Q 1159 2381 1159 1747 
Q 1159 1113 1420 752 
Q 1681 391 2138 391 
Q 2594 391 2855 752 
Q 3116 1113 3116 1747 
z
M 1159 2969 
Q 1341 3281 1617 3432 
Q 1894 3584 2278 3584 
Q 2916 3584 3314 3078 
Q 3713 2572 3713 1747 
Q 3713 922 3314 415 
Q 2916 -91 2278 -91 
Q 1894 -91 1617 61 
Q 1341 213 1159 525 
L 1159 0 
L 581 0 
L 581 4863 
L 1159 4863 
L 1159 2969 
z
" transform="scale(0.015625)"/>
      <path id="DejaVuSans-69" d="M 603 3500 
L 1178 3500 
L 1178 0 
L 603 0 
L 603 3500 
z
M 603 4863 
L 1178 4863 
L 1178 4134 
L 603 4134 
L 603 4863 
z
" transform="scale(0.015625)"/>
      <path id="DejaVuSans-63" d="M 3122 3366 
L 3122 2828 
Q 2878 2963 2633 3030 
Q 2388 3097 2138 3097 
Q 1578 3097 1268 2742 
Q 959 2388 959 1747 
Q 959 1106 1268 751 
Q 1578 397 2138 397 
Q 2388 397 2633 464 
Q 2878 531 3122 666 
L 3122 134 
Q 2881 22 2623 -34 
Q 2366 -91 2075 -91 
Q 1284 -91 818 406 
Q 353 903 353 1747 
Q 353 2603 823 3093 
Q 1294 3584 2113 3584 
Q 2378 3584 2631 3529 
Q 2884 3475 3122 3366 
z
" transform="scale(0.015625)"/>
     </defs>
     <use xlink:href="#DejaVuSans-49"/>
     <use xlink:href="#DejaVuSans-61" x="29.492188"/>
     <use xlink:href="#DejaVuSans-6d" x="90.771484"/>
     <use xlink:href="#DejaVuSans-62" x="188.183594"/>
     <use xlink:href="#DejaVuSans-69" x="251.660156"/>
     <use xlink:href="#DejaVuSans-63" x="279.443359"/>
    </g>
   </g>
   <g id="text_16">
    <!-- Parse -->
    <g transform="translate(361.832136 156.933818)scale(0.08 -0.08)">
     <defs>
      <path id="DejaVuSans-72" d="M 2631 2963 
Q 2534 3019 2420 3045 
Q 2306 3072 2169 3072 
Q 1681 3072 1420 2755 
Q 1159 2438 1159 1844 
L 1159 0 
L 581 0 
L 581 3500 
L 1159 3500 
L 1159 2956 
Q 1341 3275 1631 3429 
Q 1922 3584 2338 3584 
Q 2397 3584 2469 3576 
Q 2541 3569 2628 3553 
L 2631 2963 
z
" transform="scale(0.015625)"/>
      <path id="DejaVuSans-73" d="M 2834 3397 
L 2834 2853 
Q 2591 2978 2328 3040 
Q 2066 3103 1784 3103 
Q 1356 3103 1142 2972 
Q 928 2841 928 2578 
Q 928 2378 1081 2264 
Q 1234 2150 1697 2047 
L 1894 2003 
Q 2506 1872 2764 1633 
Q 3022 1394 3022 966 
Q 3022 478 2636 193 
Q 2250 -91 1575 -91 
Q 1294 -91 989 -36 
Q 684 19 347 128 
L 347 722 
Q 666 556 975 473 
Q 1284 391 1588 391 
Q 1994 391 2212 530 
Q 2431 669 2431 922 
Q 2431 1156 2273 1281 
Q 2116 1406 1581 1522 
L 1381 1569 
Q 847 1681 609 1914 
Q 372 2147 372 2553 
Q 372 3047 722 3315 
Q 1072 3584 1716 3584 
Q 2034 3584 2315 3537 
Q 2597 3491 2834 3397 
z
" transform="scale(0.015625)"/>
      <path id="DejaVuSans-65" d="M 3597 1894 
L 3597 1613 
L 953 1613 
Q 991 1019 1311 708 
Q 1631 397 2203 397 
Q 2534 397 2845 478 
Q 3156 559 3463 722 
L 3463 178 
Q 3153 47 2828 -22 
Q 2503 -91 2169 -91 
Q 1331 -91 842 396 
Q 353 884 353 1716 
Q 353 2575 817 3079 
Q 1281 3584 2069 3584 
Q 2775 3584 3186 3129 
Q 3597 2675 3597 1894 
z
M 3022 2063 
Q 3016 2534 2758 2815 
Q 2500 3097 2075 3097 
Q 1594 3097 1305 2825 
Q 1016 2553 972 2059 
L 3022 2063 
z
" transform="scale(0.015625)"/>
     </defs>
     <use xlink:href="#DejaVuSans-50"/>
     <use xlink:href="#DejaVuSans-61" x="55.802734"/>
     <use xlink:href="#DejaVuSans-72" x="117.082031"/>
     <use xlink:href="#DejaVuSans-73" x="158.195312"/>
     <use xlink:href="#DejaVuSans-65" x="210.294922"/>
    </g>
   </g>
   <g id="text_17">
    <!-- FootBin -->
    <g transform="translate(361.832136 69.475302)scale(0.08 -0.08)">
     <defs>
      <path id="DejaVuSans-46" d="M 628 4666 
L 3309 4666 
L 3309 4134 
L 1259 4134 
L 1259 2759 
L 3109 2759 
L 3109 2228 
L 1259 2228 
L 1259 0 
L 628 0 
L 628 4666 
z
" transform="scale(0.015625)"/>
      <path id="DejaVuSans-6f" d="M 1959 3097 
Q 1497 3097 1228 2736 
Q 959 2375 959 1747 
Q 959 1119 1226 758 
Q 1494 397 1959 397 
Q 2419 397 2687 759 
Q 2956 1122 2956 1747 
Q 2956 2369 2687 2733 
Q 2419 3097 1959 3097 
z
M 1959 3584 
Q 2709 3584 3137 3096 
Q 3566 2609 3566 1747 
Q 3566 888 3137 398 
Q 2709 -91 1959 -91 
Q 1206 -91 779 398 
Q 353 888 353 1747 
Q 353 2609 779 3096 
Q 1206 3584 1959 3584 
z
" transform="scale(0.015625)"/>
      <path id="DejaVuSans-74" d="M 1172 4494 
L 1172 3500 
L 2356 3500 
L 2356 3053 
L 1172 3053 
L 1172 1153 
Q 1172 725 1289 603 
Q 1406 481 1766 481 
L 2356 481 
L 2356 0 
L 1766 0 
Q 1100 0 847 248 
Q 594 497 594 1153 
L 594 3053 
L 172 3053 
L 172 3500 
L 594 3500 
L 594 4494 
L 1172 4494 
z
" transform="scale(0.015625)"/>
      <path id="DejaVuSans-42" d="M 1259 2228 
L 1259 519 
L 2272 519 
Q 2781 519 3026 730 
Q 3272 941 3272 1375 
Q 3272 1813 3026 2020 
Q 2781 2228 2272 2228 
L 1259 2228 
z
M 1259 4147 
L 1259 2741 
L 2194 2741 
Q 2656 2741 2882 2914 
Q 3109 3088 3109 3444 
Q 3109 3797 2882 3972 
Q 2656 4147 2194 4147 
L 1259 4147 
z
M 628 4666 
L 2241 4666 
Q 2963 4666 3353 4366 
Q 3744 4066 3744 3513 
Q 3744 3084 3544 2831 
Q 3344 2578 2956 2516 
Q 3422 2416 3680 2098 
Q 3938 1781 3938 1306 
Q 3938 681 3513 340 
Q 3088 0 2303 0 
L 628 0 
L 628 4666 
z
" transform="scale(0.015625)"/>
      <path id="DejaVuSans-6e" d="M 3513 2113 
L 3513 0 
L 2938 0 
L 2938 2094 
Q 2938 2591 2744 2837 
Q 2550 3084 2163 3084 
Q 1697 3084 1428 2787 
Q 1159 2491 1159 1978 
L 1159 0 
L 581 0 
L 581 3500 
L 1159 3500 
L 1159 2956 
Q 1366 3272 1645 3428 
Q 1925 3584 2291 3584 
Q 2894 3584 3203 3211 
Q 3513 2838 3513 2113 
z
" transform="scale(0.015625)"/>
     </defs>
     <use xlink:href="#DejaVuSans-46"/>
     <use xlink:href="#DejaVuSans-6f" x="53.894531"/>
     <use xlink:href="#DejaVuSans-6f" x="115.076172"/>
     <use xlink:href="#DejaVuSans-74" x="176.257812"/>
     <use xlink:href="#DejaVuSans-42" x="215.466797"/>
     <use xlink:href="#DejaVuSans-69" x="284.070312"/>
     <use xlink:href="#DejaVuSans-6e" x="311.853516"/>
    </g>
   </g>
   <g id="text_18">
    <!-- WFL -->
    <g transform="translate(361.832136 75.915384)scale(0.08 -0.08)">
     <defs>
      <path id="DejaVuSans-4c" d="M 628 4666 
L 1259 4666 
L 1259 531 
L 3531 531 
L 3531 0 
L 628 0 
L 628 4666 
z
" transform="scale(0.015625)"/>
     </defs>
     <use xlink:href="#DejaVuSans-57"/>
     <use xlink:href="#DejaVuSans-46" x="98.876953"/>
     <use xlink:href="#DejaVuSans-4c" x="156.396484"/>
    </g>
   </g>
   <g id="text_19">
    <!-- WFR -->
    <g transform="translate(361.832136 137.945123)scale(0.08 -0.08)">
     <defs>
      <path id="DejaVuSans-52" d="M 2841 2188 
Q 3044 2119 3236 1894 
Q 3428 1669 3622 1275 
L 4263 0 
L 3584 0 
L 2988 1197 
Q 2756 1666 2539 1819 
Q 2322 1972 1947 1972 
L 1259 1972 
L 1259 0 
L 628 0 
L 628 4666 
L 2053 4666 
Q 2853 4666 3247 4331 
Q 3641 3997 3641 3322 
Q 3641 2881 3436 2590 
Q 3231 2300 2841 2188 
z
M 1259 4147 
L 1259 2491 
L 2053 2491 
Q 2509 2491 2742 2702 
Q 2975 2913 2975 3322 
Q 2975 3731 2742 3939 
Q 2509 4147 2053 4147 
L 1259 4147 
z
" transform="scale(0.015625)"/>
     </defs>
     <use xlink:href="#DejaVuSans-57"/>
     <use xlink:href="#DejaVuSans-46" x="98.876953"/>
     <use xlink:href="#DejaVuSans-52" x="156.396484"/>
    </g>
   </g>
   <g id="text_20">
    <!-- Main-L -->
    <g transform="translate(361.832136 62.301795)scale(0.08 -0.08)">
     <defs>
      <path id="DejaVuSans-4d" d="M 628 4666 
L 1569 4666 
L 2759 1491 
L 3956 4666 
L 4897 4666 
L 4897 0 
L 4281 0 
L 4281 4097 
L 3078 897 
L 2444 897 
L 1241 4097 
L 1241 0 
L 628 0 
L 628 4666 
z
" transform="scale(0.015625)"/>
      <path id="DejaVuSans-2d" d="M 313 2009 
L 1997 2009 
L 1997 1497 
L 313 1497 
L 313 2009 
z
" transform="scale(0.015625)"/>
     </defs>
     <use xlink:href="#DejaVuSans-4d"/>
     <use xlink:href="#DejaVuSans-61" x="86.279297"/>
     <use xlink:href="#DejaVuSans-69" x="147.558594"/>
     <use xlink:href="#DejaVuSans-6e" x="175.341797"/>
     <use xlink:href="#DejaVuSans-2d" x="238.720703"/>
     <use xlink:href="#DejaVuSans-4c" x="274.804688"/>
    </g>
   </g>
   <g id="text_21">
    <!-- Main-R -->
    <g transform="translate(361.832136 113.822446)scale(0.08 -0.08)">
     <use xlink:href="#DejaVuSans-4d"/>
     <use xlink:href="#DejaVuSans-61" x="86.279297"/>
     <use xlink:href="#DejaVuSans-69" x="147.558594"/>
     <use xlink:href="#DejaVuSans-6e" x="175.341797"/>
     <use xlink:href="#DejaVuSans-2d" x="238.720703"/>
     <use xlink:href="#DejaVuSans-52" x="274.804688"/>
    </g>
   </g>
   <g id="text_22">
    <!-- AFL -->
    <g transform="translate(361.832136 103.795611)scale(0.08 -0.08)">
     <defs>
      <path id="DejaVuSans-41" d="M 2188 4044 
L 1331 1722 
L 3047 1722 
L 2188 4044 
z
M 1831 4666 
L 2547 4666 
L 4325 0 
L 3669 0 
L 3244 1197 
L 1141 1197 
L 716 0 
L 50 0 
L 1831 4666 
z
" transform="scale(0.015625)"/>
     </defs>
     <use xlink:href="#DejaVuSans-41"/>
     <use xlink:href="#DejaVuSans-46" x="68.408203"/>
     <use xlink:href="#DejaVuSans-4c" x="125.927734"/>
    </g>
   </g>
   <g id="text_23">
    <!-- AFR -->
    <g transform="translate(361.832136 113.430616)scale(0.08 -0.08)">
     <use xlink:href="#DejaVuSans-41"/>
     <use xlink:href="#DejaVuSans-46" x="68.408203"/>
     <use xlink:href="#DejaVuSans-52" x="125.927734"/>
    </g>
   </g>
   <g id="text_24">
    <!-- Nonfinal -->
    <g transform="translate(361.832136 101.0528)scale(0.08 -0.08)">
     <defs>
      <path id="DejaVuSans-4e" d="M 628 4666 
L 1478 4666 
L 3547 763 
L 3547 4666 
L 4159 4666 
L 4159 0 
L 3309 0 
L 1241 3903 
L 1241 0 
L 628 0 
L 628 4666 
z
" transform="scale(0.015625)"/>
      <path id="DejaVuSans-66" d="M 2375 4863 
L 2375 4384 
L 1825 4384 
Q 1516 4384 1395 4259 
Q 1275 4134 1275 3809 
L 1275 3500 
L 2222 3500 
L 2222 3053 
L 1275 3053 
L 1275 0 
L 697 0 
L 697 3053 
L 147 3053 
L 147 3500 
L 697 3500 
L 697 3744 
Q 697 4328 969 4595 
Q 1241 4863 1831 4863 
L 2375 4863 
z
" transform="scale(0.015625)"/>
      <path id="DejaVuSans-6c" d="M 603 4863 
L 1178 4863 
L 1178 0 
L 603 0 
L 603 4863 
z
" transform="scale(0.015625)"/>
     </defs>
     <use xlink:href="#DejaVuSans-4e"/>
     <use xlink:href="#DejaVuSans-6f" x="74.804688"/>
     <use xlink:href="#DejaVuSans-6e" x="135.986328"/>
     <use xlink:href="#DejaVuSans-66" x="199.365234"/>
     <use xlink:href="#DejaVuSans-69" x="234.570312"/>
     <use xlink:href="#DejaVuSans-6e" x="262.353516"/>
     <use xlink:href="#DejaVuSans-61" x="325.732422"/>
     <use xlink:href="#DejaVuSans-6c" x="387.011719"/>
    </g>
   </g>
   <g id="text_25">
    <!-- Trochaic -->
    <g transform="translate(361.832136 110.265834)scale(0.08 -0.08)">
     <defs>
      <path id="DejaVuSans-54" d="M -19 4666 
L 3928 4666 
L 3928 4134 
L 2272 4134 
L 2272 0 
L 1638 0 
L 1638 4134 
L -19 4134 
L -19 4666 
z
" transform="scale(0.015625)"/>
      <path id="DejaVuSans-68" d="M 3513 2113 
L 3513 0 
L 2938 0 
L 2938 2094 
Q 2938 2591 2744 2837 
Q 2550 3084 2163 3084 
Q 1697 3084 1428 2787 
Q 1159 2491 1159 1978 
L 1159 0 
L 581 0 
L 581 4863 
L 1159 4863 
L 1159 2956 
Q 1366 3272 1645 3428 
Q 1925 3584 2291 3584 
Q 2894 3584 3203 3211 
Q 3513 2838 3513 2113 
z
" transform="scale(0.015625)"/>
     </defs>
     <use xlink:href="#DejaVuSans-54"/>
     <use xlink:href="#DejaVuSans-72" x="46.333984"/>
     <use xlink:href="#DejaVuSans-6f" x="85.197266"/>
     <use xlink:href="#DejaVuSans-63" x="146.378906"/>
     <use xlink:href="#DejaVuSans-68" x="201.359375"/>
     <use xlink:href="#DejaVuSans-61" x="264.738281"/>
     <use xlink:href="#DejaVuSans-69" x="326.017578"/>
     <use xlink:href="#DejaVuSans-63" x="353.800781"/>
    </g>
   </g>
  </g>
  <g id="axes_2">
   <g id="patch_7">
    <path d="M 57.6 307.584 
L 414.72 307.584 
L 414.72 186.624 
L 57.6 186.624 
z
" style="fill: #ffffff"/>
   </g>
   <g id="matplotlib.axis_3">
    <g id="xtick_8">
     <g id="line2d_26">
      <g>
       <use xlink:href="#m57285dc752" x="70.013262" y="307.584" style="stroke: #000000; stroke-width: 0.8"/>
      </g>
     </g>
     <g id="text_26">
      <!-- 0 -->
      <g transform="translate(66.832012 322.182437)scale(0.1 -0.1)">
       <use xlink:href="#DejaVuSans-30"/>
      </g>
     </g>
    </g>
    <g id="xtick_9">
     <g id="line2d_27">
      <g>
       <use xlink:href="#m57285dc752" x="146.402567" y="307.584" style="stroke: #000000; stroke-width: 0.8"/>
      </g>
     </g>
     <g id="text_27">
      <!-- 20 -->
      <g transform="translate(140.040067 322.182437)scale(0.1 -0.1)">
       <use xlink:href="#DejaVuSans-32"/>
       <use xlink:href="#DejaVuSans-30" x="63.623047"/>
      </g>
     </g>
    </g>
    <g id="xtick_10">
     <g id="line2d_28">
      <g>
       <use xlink:href="#m57285dc752" x="222.791872" y="307.584" style="stroke: #000000; stroke-width: 0.8"/>
      </g>
     </g>
     <g id="text_28">
      <!-- 40 -->
      <g transform="translate(216.429372 322.182437)scale(0.1 -0.1)">
       <use xlink:href="#DejaVuSans-34"/>
       <use xlink:href="#DejaVuSans-30" x="63.623047"/>
      </g>
     </g>
    </g>
    <g id="xtick_11">
     <g id="line2d_29">
      <g>
       <use xlink:href="#m57285dc752" x="299.181176" y="307.584" style="stroke: #000000; stroke-width: 0.8"/>
      </g>
     </g>
     <g id="text_29">
      <!-- 60 -->
      <g transform="translate(292.818676 322.182437)scale(0.1 -0.1)">
       <use xlink:href="#DejaVuSans-36"/>
       <use xlink:href="#DejaVuSans-30" x="63.623047"/>
      </g>
     </g>
    </g>
    <g id="xtick_12">
     <g id="line2d_30">
      <g>
       <use xlink:href="#m57285dc752" x="375.570481" y="307.584" style="stroke: #000000; stroke-width: 0.8"/>
      </g>
     </g>
     <g id="text_30">
      <!-- 80 -->
      <g transform="translate(369.207981 322.182437)scale(0.1 -0.1)">
       <use xlink:href="#DejaVuSans-38"/>
       <use xlink:href="#DejaVuSans-30" x="63.623047"/>
      </g>
     </g>
    </g>
   </g>
   <g id="matplotlib.axis_4">
    <g id="ytick_7">
     <g id="line2d_31">
      <g>
       <use xlink:href="#ma04ed5a751" x="57.6" y="302.097876" style="stroke: #000000; stroke-width: 0.8"/>
      </g>
     </g>
     <g id="text_31">
      <!-- 0 -->
      <g transform="translate(44.2375 305.897094)scale(0.1 -0.1)">
       <use xlink:href="#DejaVuSans-30"/>
      </g>
     </g>
    </g>
    <g id="ytick_8">
     <g id="line2d_32">
      <g>
       <use xlink:href="#ma04ed5a751" x="57.6" y="277.983043" style="stroke: #000000; stroke-width: 0.8"/>
      </g>
     </g>
     <g id="text_32">
      <!-- 2000 -->
      <g transform="translate(25.15 281.782262)scale(0.1 -0.1)">
       <use xlink:href="#DejaVuSans-32"/>
       <use xlink:href="#DejaVuSans-30" x="63.623047"/>
       <use xlink:href="#DejaVuSans-30" x="127.246094"/>
       <use xlink:href="#DejaVuSans-30" x="190.869141"/>
      </g>
     </g>
    </g>
    <g id="ytick_9">
     <g id="line2d_33">
      <g>
       <use xlink:href="#ma04ed5a751" x="57.6" y="253.868211" style="stroke: #000000; stroke-width: 0.8"/>
      </g>
     </g>
     <g id="text_33">
      <!-- 4000 -->
      <g transform="translate(25.15 257.667429)scale(0.1 -0.1)">
       <use xlink:href="#DejaVuSans-34"/>
       <use xlink:href="#DejaVuSans-30" x="63.623047"/>
       <use xlink:href="#DejaVuSans-30" x="127.246094"/>
       <use xlink:href="#DejaVuSans-30" x="190.869141"/>
      </g>
     </g>
    </g>
    <g id="ytick_10">
     <g id="line2d_34">
      <g>
       <use xlink:href="#ma04ed5a751" x="57.6" y="229.753378" style="stroke: #000000; stroke-width: 0.8"/>
      </g>
     </g>
     <g id="text_34">
      <!-- 6000 -->
      <g transform="translate(25.15 233.552597)scale(0.1 -0.1)">
       <use xlink:href="#DejaVuSans-36"/>
       <use xlink:href="#DejaVuSans-30" x="63.623047"/>
       <use xlink:href="#DejaVuSans-30" x="127.246094"/>
       <use xlink:href="#DejaVuSans-30" x="190.869141"/>
      </g>
     </g>
    </g>
    <g id="ytick_11">
     <g id="line2d_35">
      <g>
       <use xlink:href="#ma04ed5a751" x="57.6" y="205.638545" style="stroke: #000000; stroke-width: 0.8"/>
      </g>
     </g>
     <g id="text_35">
      <!-- 8000 -->
      <g transform="translate(25.15 209.437764)scale(0.1 -0.1)">
       <use xlink:href="#DejaVuSans-38"/>
       <use xlink:href="#DejaVuSans-30" x="63.623047"/>
       <use xlink:href="#DejaVuSans-30" x="127.246094"/>
       <use xlink:href="#DejaVuSans-30" x="190.869141"/>
      </g>
     </g>
    </g>
   </g>
   <g id="line2d_36">
    <path d="M 73.832727 302.085818 
L 77.652193 302.073761 
L 81.471658 302.085818 
L 85.291123 302.073761 
L 89.110588 302.085818 
L 92.930053 302.073761 
L 96.749519 302.073761 
L 100.568984 302.085818 
L 104.388449 302.061703 
L 108.207914 302.013474 
L 112.02738 302.085818 
L 115.846845 302.049646 
L 119.66631 302.073761 
L 123.485775 302.013474 
L 127.305241 302.085818 
L 131.124706 302.037589 
L 134.944171 302.073761 
L 138.763636 302.085818 
L 142.583102 301.989359 
L 146.402567 302.025531 
L 150.222032 301.953187 
L 154.041497 302.085818 
L 157.860963 302.085818 
L 161.680428 302.061703 
L 165.499893 302.013474 
L 169.319358 302.025531 
L 173.138824 301.977301 
L 176.958289 302.085818 
L 180.777754 302.037589 
L 184.597219 301.929072 
L 188.416684 301.917014 
L 192.23615 301.965244 
L 196.055615 301.941129 
L 199.87508 302.013474 
L 203.694545 302.061703 
L 207.514011 302.049646 
L 211.333476 301.531177 
L 215.152941 302.001416 
L 218.972406 301.772325 
L 222.791872 302.085818 
L 226.611337 301.941129 
L 230.430802 301.374431 
L 234.250267 301.603522 
L 238.069733 301.42266 
L 241.889198 301.591464 
L 245.708663 300.819789 
L 249.528128 301.832612 
L 253.347594 301.663809 
L 257.167059 300.880077 
L 260.986524 301.977301 
L 264.805989 302.025531 
L 268.625455 302.013474 
L 272.44492 301.410603 
L 276.264385 299.312612 
L 280.08385 301.531177 
L 283.903316 301.736153 
L 287.722781 299.457301 
L 291.542246 299.264383 
L 295.361711 301.290029 
L 299.181176 301.024766 
L 303.000642 299.131751 
L 306.820107 293.717971 
L 310.639572 295.526584 
L 314.459037 296.442947 
L 318.278503 298.106871 
L 322.097968 291.185914 
L 325.917433 297.576344 
L 329.736898 299.059407 
L 333.556364 279.357589 
L 337.375829 295.393952 
L 341.195294 289.57022 
L 345.014759 295.273378 
L 348.834225 299.071464 
L 352.65369 281.877589 
L 356.473155 301.024766 
L 360.29262 301.675866 
L 364.112086 268.300938 
L 367.931551 295.140746 
L 371.751016 232.092517 
L 375.570481 298.866488 
L 379.389947 278.802947 
L 383.209412 255.08601 
L 387.028877 202.829167 
L 390.848342 192.122182 
L 394.667807 235.130986 
L 398.487273 259.704 
" clip-path="url(#p09b2857562)" style="fill: none; stroke: #1f77b4; stroke-width: 1.5; stroke-linecap: square"/>
   </g>
   <g id="patch_8">
    <path d="M 57.6 307.584 
L 57.6 186.624 
" style="fill: none; stroke: #000000; stroke-width: 0.8; stroke-linejoin: miter; stroke-linecap: square"/>
   </g>
   <g id="patch_9">
    <path d="M 414.72 307.584 
L 414.72 186.624 
" style="fill: none; stroke: #000000; stroke-width: 0.8; stroke-linejoin: miter; stroke-linecap: square"/>
   </g>
   <g id="patch_10">
    <path d="M 57.6 307.584 
L 414.72 307.584 
" style="fill: none; stroke: #000000; stroke-width: 0.8; stroke-linejoin: miter; stroke-linecap: square"/>
   </g>
   <g id="patch_11">
    <path d="M 57.6 186.624 
L 414.72 186.624 
" style="fill: none; stroke: #000000; stroke-width: 0.8; stroke-linejoin: miter; stroke-linecap: square"/>
   </g>
  </g>
 </g>
 <defs>
  <clipPath id="pe55d920eda">
   <rect x="57.6" y="41.472" width="357.12" height="120.96"/>
  </clipPath>
  <clipPath id="p09b2857562">
   <rect x="57.6" y="186.624" width="357.12" height="120.96"/>
  </clipPath>
 </defs>
</svg>
