<?xml version="1.0" encoding="utf-8" standalone="no"?>
<!DOCTYPE svg PUBLIC "-//W3C//DTD SVG 1.1//EN"
  "http://www.w3.org/Graphics/SVG/1.1/DTD/svg11.dtd">
<svg xmlns:xlink="http://www.w3.org/1999/xlink" width="460.8pt" height="345.6pt" viewBox="0 0 460.8 345.6" xmlns="http://www.w3.org/2000/svg" version="1.1">
 <metadata>
  <rdf:RDF xmlns:dc="http://purl.org/dc/elements/1.1/" xmlns:cc="http://creativecommons.org/ns#" xmlns:rdf="http://www.w3.org/1999/02/22-rdf-syntax-ns#">
   <cc:Work>
    <dc:type rdf:resource="http://purl.org/dc/dcmitype/StillImage"/>
    <dc:date>2022-05-13T15:30:47.974225</dc:date>
    <dc:format>image/svg+xml</dc:format>
    <dc:creator>
     <cc:Agent>
      <dc:title>Matplotlib v3.5.1, https://matplotlib.org/</dc:title>
     </cc:Agent>
    </dc:creator>
   </cc:Work>
  </rdf:RDF>
 </metadata>
 <defs>
  <style type="text/css">*{stroke-linejoin: round; stroke-linecap: butt}</style>
 </defs>
 <g id="figure_1">
  <g id="patch_1">
   <path d="M 0 345.6 
L 460.8 345.6 
L 460.8 0 
L 0 0 
z
" style="fill: #ffffff"/>
  </g>
  <g id="axes_1">
   <g id="patch_2">
    <path d="M 57.6 162.432 
L 414.72 162.432 
L 414.72 41.472 
L 57.6 41.472 
z
" style="fill: #ffffff"/>
   </g>
   <g id="matplotlib.axis_1">
    <g id="xtick_1">
     <g id="line2d_1">
      <defs>
       <path id="m3952103350" d="M 0 0 
L 0 3.5 
" style="stroke: #000000; stroke-width: 0.8"/>
      </defs>
      <g>
       <use xlink:href="#m3952103350" x="73.827491" y="162.432" style="stroke: #000000; stroke-width: 0.8"/>
      </g>
     </g>
     <g id="text_1">
      <!-- 0 -->
      <g transform="translate(70.646241 177.030437)scale(0.1 -0.1)">
       <defs>
        <path id="DejaVuSans-30" d="M 2034 4250 
Q 1547 4250 1301 3770 
Q 1056 3291 1056 2328 
Q 1056 1369 1301 889 
Q 1547 409 2034 409 
Q 2525 409 2770 889 
Q 3016 1369 3016 2328 
Q 3016 3291 2770 3770 
Q 2525 4250 2034 4250 
z
M 2034 4750 
Q 2819 4750 3233 4129 
Q 3647 3509 3647 2328 
Q 3647 1150 3233 529 
Q 2819 -91 2034 -91 
Q 1250 -91 836 529 
Q 422 1150 422 2328 
Q 422 3509 836 4129 
Q 1250 4750 2034 4750 
z
" transform="scale(0.015625)"/>
       </defs>
       <use xlink:href="#DejaVuSans-30"/>
      </g>
     </g>
    </g>
    <g id="xtick_2">
     <g id="line2d_2">
      <g>
       <use xlink:href="#m3952103350" x="126.191972" y="162.432" style="stroke: #000000; stroke-width: 0.8"/>
      </g>
     </g>
     <g id="text_2">
      <!-- 10000 -->
      <g transform="translate(110.285722 177.030437)scale(0.1 -0.1)">
       <defs>
        <path id="DejaVuSans-31" d="M 794 531 
L 1825 531 
L 1825 4091 
L 703 3866 
L 703 4441 
L 1819 4666 
L 2450 4666 
L 2450 531 
L 3481 531 
L 3481 0 
L 794 0 
L 794 531 
z
" transform="scale(0.015625)"/>
       </defs>
       <use xlink:href="#DejaVuSans-31"/>
       <use xlink:href="#DejaVuSans-30" x="63.623047"/>
       <use xlink:href="#DejaVuSans-30" x="127.246094"/>
       <use xlink:href="#DejaVuSans-30" x="190.869141"/>
       <use xlink:href="#DejaVuSans-30" x="254.492188"/>
      </g>
     </g>
    </g>
    <g id="xtick_3">
     <g id="line2d_3">
      <g>
       <use xlink:href="#m3952103350" x="178.556453" y="162.432" style="stroke: #000000; stroke-width: 0.8"/>
      </g>
     </g>
     <g id="text_3">
      <!-- 20000 -->
      <g transform="translate(162.650203 177.030437)scale(0.1 -0.1)">
       <defs>
        <path id="DejaVuSans-32" d="M 1228 531 
L 3431 531 
L 3431 0 
L 469 0 
L 469 531 
Q 828 903 1448 1529 
Q 2069 2156 2228 2338 
Q 2531 2678 2651 2914 
Q 2772 3150 2772 3378 
Q 2772 3750 2511 3984 
Q 2250 4219 1831 4219 
Q 1534 4219 1204 4116 
Q 875 4013 500 3803 
L 500 4441 
Q 881 4594 1212 4672 
Q 1544 4750 1819 4750 
Q 2544 4750 2975 4387 
Q 3406 4025 3406 3419 
Q 3406 3131 3298 2873 
Q 3191 2616 2906 2266 
Q 2828 2175 2409 1742 
Q 1991 1309 1228 531 
z
" transform="scale(0.015625)"/>
       </defs>
       <use xlink:href="#DejaVuSans-32"/>
       <use xlink:href="#DejaVuSans-30" x="63.623047"/>
       <use xlink:href="#DejaVuSans-30" x="127.246094"/>
       <use xlink:href="#DejaVuSans-30" x="190.869141"/>
       <use xlink:href="#DejaVuSans-30" x="254.492188"/>
      </g>
     </g>
    </g>
    <g id="xtick_4">
     <g id="line2d_4">
      <g>
       <use xlink:href="#m3952103350" x="230.920934" y="162.432" style="stroke: #000000; stroke-width: 0.8"/>
      </g>
     </g>
     <g id="text_4">
      <!-- 30000 -->
      <g transform="translate(215.014684 177.030437)scale(0.1 -0.1)">
       <defs>
        <path id="DejaVuSans-33" d="M 2597 2516 
Q 3050 2419 3304 2112 
Q 3559 1806 3559 1356 
Q 3559 666 3084 287 
Q 2609 -91 1734 -91 
Q 1441 -91 1130 -33 
Q 819 25 488 141 
L 488 750 
Q 750 597 1062 519 
Q 1375 441 1716 441 
Q 2309 441 2620 675 
Q 2931 909 2931 1356 
Q 2931 1769 2642 2001 
Q 2353 2234 1838 2234 
L 1294 2234 
L 1294 2753 
L 1863 2753 
Q 2328 2753 2575 2939 
Q 2822 3125 2822 3475 
Q 2822 3834 2567 4026 
Q 2313 4219 1838 4219 
Q 1578 4219 1281 4162 
Q 984 4106 628 3988 
L 628 4550 
Q 988 4650 1302 4700 
Q 1616 4750 1894 4750 
Q 2613 4750 3031 4423 
Q 3450 4097 3450 3541 
Q 3450 3153 3228 2886 
Q 3006 2619 2597 2516 
z
" transform="scale(0.015625)"/>
       </defs>
       <use xlink:href="#DejaVuSans-33"/>
       <use xlink:href="#DejaVuSans-30" x="63.623047"/>
       <use xlink:href="#DejaVuSans-30" x="127.246094"/>
       <use xlink:href="#DejaVuSans-30" x="190.869141"/>
       <use xlink:href="#DejaVuSans-30" x="254.492188"/>
      </g>
     </g>
    </g>
    <g id="xtick_5">
     <g id="line2d_5">
      <g>
       <use xlink:href="#m3952103350" x="283.285415" y="162.432" style="stroke: #000000; stroke-width: 0.8"/>
      </g>
     </g>
     <g id="text_5">
      <!-- 40000 -->
      <g transform="translate(267.379165 177.030437)scale(0.1 -0.1)">
       <defs>
        <path id="DejaVuSans-34" d="M 2419 4116 
L 825 1625 
L 2419 1625 
L 2419 4116 
z
M 2253 4666 
L 3047 4666 
L 3047 1625 
L 3713 1625 
L 3713 1100 
L 3047 1100 
L 3047 0 
L 2419 0 
L 2419 1100 
L 313 1100 
L 313 1709 
L 2253 4666 
z
" transform="scale(0.015625)"/>
       </defs>
       <use xlink:href="#DejaVuSans-34"/>
       <use xlink:href="#DejaVuSans-30" x="63.623047"/>
       <use xlink:href="#DejaVuSans-30" x="127.246094"/>
       <use xlink:href="#DejaVuSans-30" x="190.869141"/>
       <use xlink:href="#DejaVuSans-30" x="254.492188"/>
      </g>
     </g>
    </g>
    <g id="xtick_6">
     <g id="line2d_6">
      <g>
       <use xlink:href="#m3952103350" x="335.649896" y="162.432" style="stroke: #000000; stroke-width: 0.8"/>
      </g>
     </g>
     <g id="text_6">
      <!-- 50000 -->
      <g transform="translate(319.743646 177.030437)scale(0.1 -0.1)">
       <defs>
        <path id="DejaVuSans-35" d="M 691 4666 
L 3169 4666 
L 3169 4134 
L 1269 4134 
L 1269 2991 
Q 1406 3038 1543 3061 
Q 1681 3084 1819 3084 
Q 2600 3084 3056 2656 
Q 3513 2228 3513 1497 
Q 3513 744 3044 326 
Q 2575 -91 1722 -91 
Q 1428 -91 1123 -41 
Q 819 9 494 109 
L 494 744 
Q 775 591 1075 516 
Q 1375 441 1709 441 
Q 2250 441 2565 725 
Q 2881 1009 2881 1497 
Q 2881 1984 2565 2268 
Q 2250 2553 1709 2553 
Q 1456 2553 1204 2497 
Q 953 2441 691 2322 
L 691 4666 
z
" transform="scale(0.015625)"/>
       </defs>
       <use xlink:href="#DejaVuSans-35"/>
       <use xlink:href="#DejaVuSans-30" x="63.623047"/>
       <use xlink:href="#DejaVuSans-30" x="127.246094"/>
       <use xlink:href="#DejaVuSans-30" x="190.869141"/>
       <use xlink:href="#DejaVuSans-30" x="254.492188"/>
      </g>
     </g>
    </g>
    <g id="xtick_7">
     <g id="line2d_7">
      <g>
       <use xlink:href="#m3952103350" x="388.014377" y="162.432" style="stroke: #000000; stroke-width: 0.8"/>
      </g>
     </g>
     <g id="text_7">
      <!-- 60000 -->
      <g transform="translate(372.108127 177.030437)scale(0.1 -0.1)">
       <defs>
        <path id="DejaVuSans-36" d="M 2113 2584 
Q 1688 2584 1439 2293 
Q 1191 2003 1191 1497 
Q 1191 994 1439 701 
Q 1688 409 2113 409 
Q 2538 409 2786 701 
Q 3034 994 3034 1497 
Q 3034 2003 2786 2293 
Q 2538 2584 2113 2584 
z
M 3366 4563 
L 3366 3988 
Q 3128 4100 2886 4159 
Q 2644 4219 2406 4219 
Q 1781 4219 1451 3797 
Q 1122 3375 1075 2522 
Q 1259 2794 1537 2939 
Q 1816 3084 2150 3084 
Q 2853 3084 3261 2657 
Q 3669 2231 3669 1497 
Q 3669 778 3244 343 
Q 2819 -91 2113 -91 
Q 1303 -91 875 529 
Q 447 1150 447 2328 
Q 447 3434 972 4092 
Q 1497 4750 2381 4750 
Q 2619 4750 2861 4703 
Q 3103 4656 3366 4563 
z
" transform="scale(0.015625)"/>
       </defs>
       <use xlink:href="#DejaVuSans-36"/>
       <use xlink:href="#DejaVuSans-30" x="63.623047"/>
       <use xlink:href="#DejaVuSans-30" x="127.246094"/>
       <use xlink:href="#DejaVuSans-30" x="190.869141"/>
       <use xlink:href="#DejaVuSans-30" x="254.492188"/>
      </g>
     </g>
    </g>
   </g>
   <g id="matplotlib.axis_2">
    <g id="ytick_1">
     <g id="line2d_8">
      <defs>
       <path id="ma4cef42676" d="M 0 0 
L -3.5 0 
" style="stroke: #000000; stroke-width: 0.8"/>
      </defs>
      <g>
       <use xlink:href="#ma4cef42676" x="57.6" y="135.747107" style="stroke: #000000; stroke-width: 0.8"/>
      </g>
     </g>
     <g id="text_8">
      <!-- 80 -->
      <g transform="translate(37.875 139.546326)scale(0.1 -0.1)">
       <defs>
        <path id="DejaVuSans-38" d="M 2034 2216 
Q 1584 2216 1326 1975 
Q 1069 1734 1069 1313 
Q 1069 891 1326 650 
Q 1584 409 2034 409 
Q 2484 409 2743 651 
Q 3003 894 3003 1313 
Q 3003 1734 2745 1975 
Q 2488 2216 2034 2216 
z
M 1403 2484 
Q 997 2584 770 2862 
Q 544 3141 544 3541 
Q 544 4100 942 4425 
Q 1341 4750 2034 4750 
Q 2731 4750 3128 4425 
Q 3525 4100 3525 3541 
Q 3525 3141 3298 2862 
Q 3072 2584 2669 2484 
Q 3125 2378 3379 2068 
Q 3634 1759 3634 1313 
Q 3634 634 3220 271 
Q 2806 -91 2034 -91 
Q 1263 -91 848 271 
Q 434 634 434 1313 
Q 434 1759 690 2068 
Q 947 2378 1403 2484 
z
M 1172 3481 
Q 1172 3119 1398 2916 
Q 1625 2713 2034 2713 
Q 2441 2713 2670 2916 
Q 2900 3119 2900 3481 
Q 2900 3844 2670 4047 
Q 2441 4250 2034 4250 
Q 1625 4250 1398 4047 
Q 1172 3844 1172 3481 
z
" transform="scale(0.015625)"/>
       </defs>
       <use xlink:href="#DejaVuSans-38"/>
       <use xlink:href="#DejaVuSans-30" x="63.623047"/>
      </g>
     </g>
    </g>
    <g id="ytick_2">
     <g id="line2d_9">
      <g>
       <use xlink:href="#ma4cef42676" x="57.6" y="101.203556" style="stroke: #000000; stroke-width: 0.8"/>
      </g>
     </g>
     <g id="text_9">
      <!-- 90 -->
      <g transform="translate(37.875 105.002775)scale(0.1 -0.1)">
       <defs>
        <path id="DejaVuSans-39" d="M 703 97 
L 703 672 
Q 941 559 1184 500 
Q 1428 441 1663 441 
Q 2288 441 2617 861 
Q 2947 1281 2994 2138 
Q 2813 1869 2534 1725 
Q 2256 1581 1919 1581 
Q 1219 1581 811 2004 
Q 403 2428 403 3163 
Q 403 3881 828 4315 
Q 1253 4750 1959 4750 
Q 2769 4750 3195 4129 
Q 3622 3509 3622 2328 
Q 3622 1225 3098 567 
Q 2575 -91 1691 -91 
Q 1453 -91 1209 -44 
Q 966 3 703 97 
z
M 1959 2075 
Q 2384 2075 2632 2365 
Q 2881 2656 2881 3163 
Q 2881 3666 2632 3958 
Q 2384 4250 1959 4250 
Q 1534 4250 1286 3958 
Q 1038 3666 1038 3163 
Q 1038 2656 1286 2365 
Q 1534 2075 1959 2075 
z
" transform="scale(0.015625)"/>
       </defs>
       <use xlink:href="#DejaVuSans-39"/>
       <use xlink:href="#DejaVuSans-30" x="63.623047"/>
      </g>
     </g>
    </g>
    <g id="ytick_3">
     <g id="line2d_10">
      <g>
       <use xlink:href="#ma4cef42676" x="57.6" y="66.660006" style="stroke: #000000; stroke-width: 0.8"/>
      </g>
     </g>
     <g id="text_10">
      <!-- 100 -->
      <g transform="translate(31.5125 70.459224)scale(0.1 -0.1)">
       <use xlink:href="#DejaVuSans-31"/>
       <use xlink:href="#DejaVuSans-30" x="63.623047"/>
       <use xlink:href="#DejaVuSans-30" x="127.246094"/>
      </g>
     </g>
    </g>
   </g>
   <g id="line2d_11">
    <path d="M 73.832727 65.508554 
L 73.853673 65.508554 
L 73.984584 61.075465 
L 74.026476 61.075465 
L 74.141678 60.211876 
L 74.209752 60.211876 
L 74.324953 59.060425 
L 74.361609 59.060425 
L 74.482047 57.333247 
L 75.77545 57.333247 
L 75.890651 55.606069 
L 76.241493 55.606069 
L 76.356695 53.878892 
L 80.71342 53.878892 
L 80.828622 52.72744 
L 81.792128 52.72744 
L 81.90733 51.575989 
L 85.143455 51.575989 
L 85.258657 49.848811 
L 317.076214 49.848811 
L 317.191416 48.121634 
L 379.950246 48.121634 
L 380.065448 46.970182 
L 398.487273 46.970182 
L 398.487273 46.970182 
" clip-path="url(#pa64b7ee105)" style="fill: none; stroke: #1f77b4; stroke-width: 1.5; stroke-linecap: square"/>
   </g>
   <g id="line2d_12">
    <path d="M 73.832727 66.660006 
L 73.8432 63.205651 
L 73.921747 76.159482 
L 73.937456 69.250772 
L 73.942693 69.250772 
L 74.042185 81.916741 
L 74.063131 78.462386 
L 74.089313 75.00803 
L 74.173096 78.462386 
L 74.230697 78.462386 
L 74.324953 81.916741 
L 74.340663 78.462386 
L 74.361609 78.462386 
L 74.47681 88.825451 
L 74.482047 85.371096 
L 74.508229 85.371096 
L 74.623431 88.825451 
L 74.743869 88.825451 
L 74.859071 85.371096 
L 74.927145 85.371096 
L 75.021401 81.916741 
L 75.03711 85.371096 
L 75.131366 85.371096 
L 75.246568 81.916741 
L 75.712612 81.916741 
L 75.827814 85.371096 
L 75.927307 85.371096 
L 75.958725 81.916741 
L 76.037272 85.371096 
L 76.738956 85.371096 
L 76.854158 88.825451 
L 77.084562 88.825451 
L 77.199763 85.371096 
L 77.225946 85.371096 
L 77.341147 88.825451 
L 77.817664 88.825451 
L 77.932866 85.371096 
L 78.456511 85.371096 
L 78.571713 88.825451 
L 78.823062 88.825451 
L 78.938264 92.279806 
L 79.084885 92.279806 
L 79.200087 95.734161 
L 79.210559 95.734161 
L 79.325761 92.279806 
L 79.996027 92.279806 
L 80.016972 88.825451 
L 80.105992 92.279806 
L 80.682001 92.279806 
L 80.797203 95.734161 
L 81.216119 95.734161 
L 81.289429 99.188516 
L 81.315612 92.279806 
L 81.320848 92.279806 
L 81.336557 92.279806 
L 81.456996 99.188516 
L 81.792128 99.188516 
L 81.875912 106.097226 
L 81.90733 102.642871 
L 85.091091 102.642871 
L 85.206293 106.097226 
L 85.227238 106.097226 
L 85.34244 102.642871 
L 91.479557 102.642871 
L 91.594759 106.097226 
L 92.055567 106.097226 
L 92.170769 102.642871 
L 94.946086 102.642871 
L 95.061288 106.097226 
L 95.186963 106.097226 
L 95.302164 102.642871 
L 108.958821 102.642871 
L 109.074023 106.097226 
L 140.649805 106.097226 
L 140.765007 105.233637 
L 143.336103 105.233637 
L 143.451305 108.687992 
L 150.887061 108.687992 
L 151.002263 105.233637 
L 151.620164 105.233637 
L 151.735366 101.779282 
L 153.295827 101.779282 
L 153.342955 105.233637 
L 153.405793 101.779282 
L 153.662378 101.779282 
L 153.77758 105.233637 
L 167.088631 105.233637 
L 167.203833 108.687992 
L 189.343536 108.687992 
L 189.458738 112.142347 
L 192.99334 112.142347 
L 193.108542 108.687992 
L 200.35055 108.687992 
L 200.465752 112.142347 
L 212.284415 112.142347 
L 212.399617 115.596703 
L 253.495261 115.596703 
L 253.610463 119.051058 
L 271.105436 119.051058 
L 271.220638 115.596703 
L 335.461383 115.596703 
L 335.576585 112.142347 
L 368.859449 112.142347 
L 368.974651 115.596703 
L 379.950246 115.596703 
L 380.065448 119.051058 
L 398.487273 119.051058 
L 398.487273 119.051058 
" clip-path="url(#pa64b7ee105)" style="fill: none; stroke: #ff7f0e; stroke-width: 1.5; stroke-linecap: square"/>
   </g>
   <g id="line2d_13">
    <path d="M 73.832727 65.508554 
L 73.837964 65.508554 
L 73.8432 64.644965 
L 73.885092 75.583756 
L 73.890328 75.583756 
L 73.911274 73.165708 
L 73.91651 76.620063 
L 74.000294 75.468611 
L 74.026476 78.922966 
L 74.110259 77.368506 
L 74.199279 77.368506 
L 74.204515 75.641329 
L 74.235934 81.398587 
L 74.298771 79.67141 
L 74.31448 79.67141 
L 74.434919 86.58012 
L 74.471574 85.716531 
L 74.47681 89.170886 
L 74.534411 88.019435 
L 74.618194 88.019435 
L 74.681032 94.928145 
L 74.733396 93.200967 
L 74.953327 93.200967 
L 75.073765 100.109677 
L 75.712612 100.109677 
L 75.77545 103.564032 
L 75.822578 101.836855 
L 75.958725 101.836855 
L 76.073927 105.29121 
L 76.241493 105.29121 
L 76.356695 103.564032 
L 77.524423 103.564032 
L 77.639625 107.018387 
L 78.048068 107.018387 
L 78.16327 105.866936 
L 78.357018 105.866936 
L 78.47222 109.321291 
L 78.587422 109.321291 
L 78.70786 105.866936 
L 79.084885 105.866936 
L 79.200087 109.321291 
L 80.016972 109.321291 
L 80.132174 112.775646 
L 80.71342 112.775646 
L 80.828622 111.624194 
L 81.216119 111.624194 
L 81.331321 115.078549 
L 81.336557 115.078549 
L 81.451759 118.532904 
L 81.514597 118.532904 
L 81.629798 116.805727 
L 81.792128 116.805727 
L 81.912567 113.927098 
L 84.017619 113.927098 
L 84.132821 112.19992 
L 85.091091 112.19992 
L 85.211529 108.745565 
L 90.505578 108.745565 
L 90.62078 112.19992 
L 108.958821 112.19992 
L 109.074023 115.654275 
L 135.444776 115.654275 
L 135.559977 113.927098 
L 140.649805 113.927098 
L 140.765007 113.063509 
L 152.279956 113.063509 
L 152.395158 116.517864 
L 153.295827 116.517864 
L 153.411029 119.972219 
L 153.662378 119.972219 
L 153.77758 123.426574 
L 167.088631 123.426574 
L 167.203833 121.699396 
L 198.056985 121.699396 
L 198.172187 119.972219 
L 200.209166 119.972219 
L 200.324367 118.245041 
L 212.284415 118.245041 
L 212.399617 116.517864 
L 222.725892 116.517864 
L 222.841094 119.972219 
L 294.09868 119.972219 
L 294.213882 118.245041 
L 317.076214 118.245041 
L 317.191416 116.517864 
L 319.437852 116.517864 
L 319.553054 119.972219 
L 379.950246 119.972219 
L 380.065448 118.820767 
L 398.487273 118.820767 
L 398.487273 118.820767 
" clip-path="url(#pa64b7ee105)" style="fill: none; stroke: #2ca02c; stroke-width: 1.5; stroke-linecap: square"/>
   </g>
   <g id="line2d_14">
    <path d="M 73.832727 66.660006 
L 73.837964 66.660006 
L 73.85891 64.932828 
L 73.895565 70.690087 
L 73.926983 69.538635 
L 73.947929 69.538635 
L 74.026476 66.660006 
L 74.031712 70.114361 
L 74.052658 70.114361 
L 74.089313 70.114361 
L 74.199279 68.272038 
L 74.319717 75.180748 
L 74.361609 75.180748 
L 74.482047 73.453571 
L 74.508229 73.453571 
L 74.518702 72.302119 
L 74.523938 75.756474 
L 74.607722 75.756474 
L 74.681032 75.756474 
L 74.796234 79.210829 
L 74.953327 79.210829 
L 75.068529 77.195789 
L 75.712612 77.195789 
L 75.827814 76.3322 
L 75.958725 76.3322 
L 76.073927 75.468611 
L 76.738956 75.468611 
L 76.854158 74.317159 
L 77.225946 74.317159 
L 77.341147 73.165708 
L 78.048068 73.165708 
L 78.16327 76.620063 
L 78.357018 76.620063 
L 78.477457 74.317159 
L 78.587422 74.317159 
L 78.70786 81.22587 
L 78.823062 81.22587 
L 78.938264 80.074418 
L 79.084885 80.074418 
L 79.200087 79.210829 
L 80.016972 79.210829 
L 80.132174 78.34724 
L 80.682001 78.34724 
L 80.797203 77.195789 
L 81.216119 77.195789 
L 81.331321 76.3322 
L 81.336557 76.3322 
L 81.456996 74.317159 
L 81.514597 74.317159 
L 81.629798 77.771515 
L 81.797365 77.771515 
L 81.828784 76.907926 
L 81.83402 80.362281 
L 81.891621 80.362281 
L 84.017619 80.362281 
L 84.132821 83.816636 
L 91.479557 83.816636 
L 91.594759 82.665184 
L 94.946086 82.665184 
L 95.061288 81.513733 
L 108.958821 81.513733 
L 109.074023 80.650144 
L 135.444776 80.650144 
L 135.559977 84.104499 
L 140.649805 84.104499 
L 140.765007 87.558854 
L 143.336103 87.558854 
L 143.451305 86.407402 
L 153.295827 86.407402 
L 153.411029 85.543813 
L 153.662378 85.543813 
L 153.77758 84.680225 
L 189.343536 84.680225 
L 189.458738 83.528773 
L 198.056985 83.528773 
L 198.172187 86.983128 
L 200.209166 86.983128 
L 200.324367 90.437483 
L 200.35055 90.437483 
L 200.465752 89.286031 
L 253.495261 89.286031 
L 253.610463 88.13458 
L 294.09868 88.13458 
L 294.213882 91.588935 
L 368.859449 91.588935 
L 368.974651 90.437483 
L 398.487273 90.437483 
L 398.487273 90.437483 
" clip-path="url(#pa64b7ee105)" style="fill: none; stroke: #d62728; stroke-width: 1.5; stroke-linecap: square"/>
   </g>
   <g id="line2d_15">
    <path d="M 73.832727 66.660006 
L 73.8432 66.660006 
L 73.895565 70.114361 
L 73.958402 69.42349 
L 74.026476 69.42349 
L 74.141678 68.559901 
L 74.434919 68.559901 
L 74.555357 66.544861 
L 78.048068 66.544861 
L 78.16327 65.393409 
L 140.649805 65.393409 
L 140.765007 64.52982 
L 398.487273 64.52982 
L 398.487273 64.52982 
" clip-path="url(#pa64b7ee105)" style="fill: none; stroke: #9467bd; stroke-width: 1.5; stroke-linecap: square"/>
   </g>
   <g id="line2d_16">
    <path d="M 73.832727 66.660006 
L 73.853673 66.660006 
L 73.911274 61.766336 
L 73.968875 65.220691 
L 73.989821 65.220691 
L 74.105023 63.378368 
L 74.199279 63.378368 
L 74.319717 59.924013 
L 74.681032 59.924013 
L 74.796234 58.196836 
L 74.953327 58.196836 
L 75.068529 61.651191 
L 78.357018 61.651191 
L 78.47222 65.105546 
L 78.587422 65.105546 
L 78.70786 61.651191 
L 81.514597 61.651191 
L 81.629798 59.924013 
L 81.828784 59.924013 
L 81.943985 58.196836 
L 84.017619 58.196836 
L 84.132821 56.469658 
L 135.444776 56.469658 
L 135.559977 54.742481 
L 198.056985 54.742481 
L 198.172187 53.015303 
L 200.209166 53.015303 
L 200.324367 51.288126 
L 294.09868 51.288126 
L 294.213882 49.560948 
L 398.487273 49.560948 
L 398.487273 49.560948 
" clip-path="url(#pa64b7ee105)" style="fill: none; stroke: #8c564b; stroke-width: 1.5; stroke-linecap: square"/>
   </g>
   <g id="line2d_17">
    <path d="M 73.832727 66.660006 
L 73.8432 66.660006 
L 73.984584 61.651191 
L 74.026476 61.651191 
L 74.141678 60.787602 
L 74.434919 60.787602 
L 74.555357 58.772562 
L 78.048068 58.772562 
L 78.16327 57.62111 
L 85.091091 57.62111 
L 85.206293 55.893932 
L 140.649805 55.893932 
L 140.765007 55.030344 
L 167.088631 55.030344 
L 167.203833 53.303166 
L 212.284415 53.303166 
L 212.399617 51.575989 
L 398.487273 51.575989 
L 398.487273 51.575989 
" clip-path="url(#pa64b7ee105)" style="fill: none; stroke: #e377c2; stroke-width: 1.5; stroke-linecap: square"/>
   </g>
   <g id="line2d_18">
    <path d="M 73.832727 66.660006 
L 73.837964 66.660006 
L 73.8432 65.796417 
L 73.874619 76.159482 
L 73.890328 76.159482 
L 73.895565 76.159482 
L 73.942693 83.068192 
L 74.010767 81.053152 
L 74.026476 81.053152 
L 74.099786 84.507507 
L 74.141678 83.816636 
L 74.230697 83.816636 
L 74.345899 82.953047 
L 74.361609 82.953047 
L 74.482047 89.861757 
L 74.518702 89.861757 
L 74.633904 93.316112 
L 78.048068 93.316112 
L 78.16327 96.770467 
L 80.71342 96.770467 
L 80.828622 100.224822 
L 81.43605 100.224822 
L 81.551252 98.497645 
L 81.792128 98.497645 
L 81.797365 101.952 
L 81.902094 101.088411 
L 85.091091 101.088411 
L 85.206293 104.542766 
L 140.649805 104.542766 
L 140.765007 107.997121 
L 167.088631 107.997121 
L 167.203833 111.451476 
L 212.284415 111.451476 
L 212.399617 114.905832 
L 398.487273 114.905832 
L 398.487273 114.905832 
" clip-path="url(#pa64b7ee105)" style="fill: none; stroke: #7f7f7f; stroke-width: 1.5; stroke-linecap: square"/>
   </g>
   <g id="line2d_19">
    <path d="M 73.832727 70.114361 
L 73.8432 70.114361 
L 73.853673 69.250772 
L 73.874619 77.88666 
L 73.890328 77.88666 
L 73.91651 84.79537 
L 74.00553 83.068192 
L 74.026476 83.068192 
L 74.141678 88.825451 
L 74.199279 88.825451 
L 74.31448 96.59775 
L 74.434919 92.279806 
L 74.471574 92.279806 
L 74.518702 90.264765 
L 74.523938 93.71912 
L 74.571066 93.71912 
L 74.618194 93.71912 
L 74.681032 90.840491 
L 74.686268 94.294846 
L 74.722923 94.294846 
L 74.953327 94.294846 
L 75.068529 92.279806 
L 75.712612 92.279806 
L 75.77545 91.416217 
L 75.780686 94.870572 
L 75.806868 94.870572 
L 75.958725 94.870572 
L 76.073927 94.006983 
L 76.241493 94.006983 
L 76.356695 97.461338 
L 76.738956 97.461338 
L 76.854158 96.309887 
L 77.225946 96.309887 
L 77.341147 95.158435 
L 77.524423 95.158435 
L 77.639625 94.006983 
L 78.048068 94.006983 
L 78.16327 97.461338 
L 78.357018 97.461338 
L 78.477457 95.158435 
L 78.587422 95.158435 
L 78.70786 102.067145 
L 78.823062 102.067145 
L 78.938264 100.915693 
L 79.084885 100.915693 
L 79.200087 100.052105 
L 80.016972 100.052105 
L 80.132174 99.188516 
L 80.682001 99.188516 
L 80.71342 98.037064 
L 80.718657 101.491419 
L 80.781494 101.491419 
L 81.216119 101.491419 
L 81.331321 100.627831 
L 81.336557 100.627831 
L 81.43605 98.61279 
L 81.556488 105.5215 
L 81.792128 105.5215 
L 81.90733 111.566622 
L 84.017619 111.566622 
L 84.132821 115.020977 
L 85.091091 115.020977 
L 85.211529 121.929687 
L 90.505578 121.929687 
L 90.62078 120.778235 
L 91.479557 120.778235 
L 91.594759 119.626783 
L 94.946086 119.626783 
L 95.061288 118.475332 
L 108.958821 118.475332 
L 109.074023 117.611743 
L 135.444776 117.611743 
L 135.559977 121.066098 
L 140.649805 121.066098 
L 140.765007 124.520453 
L 143.336103 124.520453 
L 143.451305 123.369001 
L 152.279956 123.369001 
L 152.395158 122.21755 
L 153.295827 122.21755 
L 153.411029 121.353961 
L 153.662378 121.353961 
L 153.77758 120.490372 
L 167.088631 120.490372 
L 167.203833 123.944727 
L 189.343536 123.944727 
L 189.458738 122.793276 
L 198.056985 122.793276 
L 198.172187 126.247631 
L 200.209166 126.247631 
L 200.324367 129.701986 
L 200.35055 129.701986 
L 200.465752 128.550534 
L 212.284415 128.550534 
L 212.399617 132.004889 
L 222.725892 132.004889 
L 222.841094 130.277712 
L 253.495261 130.277712 
L 253.610463 129.12626 
L 294.09868 129.12626 
L 294.213882 132.580615 
L 317.076214 132.580615 
L 317.191416 136.03497 
L 319.437852 136.03497 
L 319.553054 134.307792 
L 368.859449 134.307792 
L 368.974651 133.156341 
L 379.950246 133.156341 
L 380.065448 136.610696 
L 398.487273 136.610696 
L 398.487273 136.610696 
" clip-path="url(#pa64b7ee105)" style="fill: none; stroke: #bcbd22; stroke-width: 1.5; stroke-linecap: square"/>
   </g>
   <g id="line2d_20">
    <path d="M 73.832727 70.114361 
L 73.837964 70.114361 
L 73.853673 66.660006 
L 73.900801 74.144442 
L 73.911274 74.144442 
L 73.91651 77.598797 
L 73.963638 73.280853 
L 74.021239 75.871619 
L 74.026476 75.871619 
L 74.089313 79.325974 
L 74.136441 77.483652 
L 74.204515 77.483652 
L 74.209752 75.756474 
L 74.214988 79.210829 
L 74.309244 78.34724 
L 74.31448 78.34724 
L 74.361609 74.892885 
L 74.424446 78.34724 
L 74.434919 78.34724 
L 74.550121 83.24091 
L 74.618194 83.24091 
L 74.733396 80.362281 
L 75.021401 80.362281 
L 75.136603 79.498692 
L 75.712612 79.498692 
L 75.77545 78.635103 
L 75.780686 82.089458 
L 75.806868 82.089458 
L 75.958725 82.089458 
L 76.073927 81.22587 
L 76.241493 81.22587 
L 76.356695 84.680225 
L 76.738956 84.680225 
L 76.854158 83.528773 
L 77.225946 83.528773 
L 77.341147 82.377321 
L 77.524423 82.377321 
L 77.639625 81.22587 
L 78.048068 81.22587 
L 78.16327 84.680225 
L 78.456511 84.680225 
L 78.571713 83.528773 
L 78.823062 83.528773 
L 78.938264 82.377321 
L 79.084885 82.377321 
L 79.200087 81.513733 
L 80.016972 81.513733 
L 80.132174 80.650144 
L 80.682001 80.650144 
L 80.71342 79.498692 
L 80.718657 82.953047 
L 80.781494 82.953047 
L 81.216119 82.953047 
L 81.331321 82.089458 
L 81.336557 82.089458 
L 81.467469 78.34724 
L 81.792128 78.34724 
L 81.797365 81.801595 
L 81.902094 80.938007 
L 85.091091 80.938007 
L 85.211529 87.846717 
L 90.505578 87.846717 
L 90.62078 86.695265 
L 91.479557 86.695265 
L 91.594759 85.543813 
L 94.946086 85.543813 
L 95.061288 84.392362 
L 108.958821 84.392362 
L 109.074023 83.528773 
L 140.649805 83.528773 
L 140.765007 86.983128 
L 143.336103 86.983128 
L 143.451305 85.831676 
L 152.279956 85.831676 
L 152.395158 84.680225 
L 153.295827 84.680225 
L 153.411029 83.816636 
L 153.662378 83.816636 
L 153.77758 82.953047 
L 167.088631 82.953047 
L 167.203833 86.407402 
L 189.343536 86.407402 
L 189.458738 85.25595 
L 200.35055 85.25595 
L 200.465752 84.104499 
L 212.284415 84.104499 
L 212.399617 87.558854 
L 222.725892 87.558854 
L 222.841094 85.831676 
L 253.495261 85.831676 
L 253.610463 84.680225 
L 317.076214 84.680225 
L 317.191416 88.13458 
L 319.437852 88.13458 
L 319.553054 86.407402 
L 368.859449 86.407402 
L 368.974651 85.25595 
L 379.950246 85.25595 
L 380.065448 88.710306 
L 398.487273 88.710306 
L 398.487273 88.710306 
" clip-path="url(#pa64b7ee105)" style="fill: none; stroke: #17becf; stroke-width: 1.5; stroke-linecap: square"/>
   </g>
   <g id="line2d_21">
    <path d="M 73.832727 66.660006 
L 73.853673 66.660006 
L 73.911274 80.477426 
L 73.979348 79.613837 
L 73.989821 79.613837 
L 74.110259 86.522547 
L 74.199279 86.522547 
L 74.319717 93.431257 
L 74.681032 93.431257 
L 74.796234 96.885613 
L 74.953327 96.885613 
L 75.068529 95.734161 
L 78.357018 95.734161 
L 78.47222 94.582709 
L 78.587422 94.582709 
L 78.70786 101.491419 
L 81.514597 101.491419 
L 81.629798 104.945774 
L 81.828784 104.945774 
L 81.943985 108.400129 
L 84.017619 108.400129 
L 84.132821 111.854485 
L 135.444776 111.854485 
L 135.559977 115.30884 
L 198.056985 115.30884 
L 198.172187 118.763195 
L 200.209166 118.763195 
L 200.324367 122.21755 
L 294.09868 122.21755 
L 294.213882 125.671905 
L 398.487273 125.671905 
L 398.487273 125.671905 
" clip-path="url(#pa64b7ee105)" style="fill: none; stroke: #1f77b4; stroke-width: 1.5; stroke-linecap: square"/>
   </g>
   <g id="line2d_22">
    <path d="M 73.832727 65.508554 
L 73.968875 83.816636 
L 73.989821 83.816636 
L 74.115495 96.770467 
L 74.209752 96.770467 
L 74.324953 94.755427 
L 74.361609 98.209782 
L 74.434919 97.346193 
L 74.471574 97.346193 
L 74.47681 96.482604 
L 74.482047 99.93696 
L 74.56583 99.93696 
L 74.660086 99.93696 
L 74.743869 98.785508 
L 74.749106 102.239863 
L 74.759579 102.239863 
L 74.927145 102.239863 
L 75.021401 105.694218 
L 75.03711 104.830629 
L 75.131366 104.830629 
L 75.246568 108.284984 
L 75.712612 108.284984 
L 75.827814 107.421396 
L 75.927307 107.421396 
L 75.958725 110.875751 
L 76.037272 110.012162 
L 77.084562 110.012162 
L 77.199763 113.466517 
L 77.524423 113.466517 
L 77.639625 112.315065 
L 77.817664 112.315065 
L 77.932866 115.76942 
L 79.084885 115.76942 
L 79.200087 114.905832 
L 79.210559 114.905832 
L 79.325761 118.360187 
L 79.996027 118.360187 
L 80.016972 121.814542 
L 80.105992 120.950953 
L 80.71342 120.950953 
L 80.828622 119.799501 
L 81.216119 119.799501 
L 81.289429 118.935912 
L 81.294666 122.390267 
L 81.310375 122.390267 
L 81.336557 125.844623 
L 81.420341 124.981034 
L 81.792128 124.981034 
L 81.875912 123.829582 
L 81.881148 127.283937 
L 81.891621 127.283937 
L 85.227238 127.283937 
L 85.34244 130.738292 
L 90.505578 130.738292 
L 90.62078 129.586841 
L 92.055567 129.586841 
L 92.170769 133.041196 
L 95.186963 133.041196 
L 95.302164 136.495551 
L 108.958821 136.495551 
L 109.074023 135.631962 
L 140.649805 135.631962 
L 140.765007 139.086317 
L 150.887061 139.086317 
L 151.002263 142.540672 
L 151.620164 142.540672 
L 151.735366 145.995027 
L 152.279956 145.995027 
L 152.395158 144.843575 
L 153.295827 144.843575 
L 153.342955 143.979987 
L 153.348192 147.434342 
L 153.390083 147.434342 
L 153.662378 147.434342 
L 153.77758 146.570753 
L 192.99334 146.570753 
L 193.108542 150.025108 
L 271.105436 150.025108 
L 271.220638 153.479463 
L 335.461383 153.479463 
L 335.576585 156.933818 
L 379.950246 156.933818 
L 380.065448 155.782366 
L 398.487273 155.782366 
L 398.487273 155.782366 
" clip-path="url(#pa64b7ee105)" style="fill: none; stroke: #ff7f0e; stroke-width: 1.5; stroke-linecap: square"/>
   </g>
   <g id="patch_3">
    <path d="M 57.6 162.432 
L 57.6 41.472 
" style="fill: none; stroke: #000000; stroke-width: 0.8; stroke-linejoin: miter; stroke-linecap: square"/>
   </g>
   <g id="patch_4">
    <path d="M 414.72 162.432 
L 414.72 41.472 
" style="fill: none; stroke: #000000; stroke-width: 0.8; stroke-linejoin: miter; stroke-linecap: square"/>
   </g>
   <g id="patch_5">
    <path d="M 57.6 162.432 
L 414.72 162.432 
" style="fill: none; stroke: #000000; stroke-width: 0.8; stroke-linejoin: miter; stroke-linecap: square"/>
   </g>
   <g id="patch_6">
    <path d="M 57.6 41.472 
L 414.72 41.472 
" style="fill: none; stroke: #000000; stroke-width: 0.8; stroke-linejoin: miter; stroke-linecap: square"/>
   </g>
   <g id="text_11">
    <!-- WSP -->
    <g transform="translate(361.832136 46.970182)scale(0.08 -0.08)">
     <defs>
      <path id="DejaVuSans-57" d="M 213 4666 
L 850 4666 
L 1831 722 
L 2809 4666 
L 3519 4666 
L 4500 722 
L 5478 4666 
L 6119 4666 
L 4947 0 
L 4153 0 
L 3169 4050 
L 2175 0 
L 1381 0 
L 213 4666 
z
" transform="scale(0.015625)"/>
      <path id="DejaVuSans-53" d="M 3425 4513 
L 3425 3897 
Q 3066 4069 2747 4153 
Q 2428 4238 2131 4238 
Q 1616 4238 1336 4038 
Q 1056 3838 1056 3469 
Q 1056 3159 1242 3001 
Q 1428 2844 1947 2747 
L 2328 2669 
Q 3034 2534 3370 2195 
Q 3706 1856 3706 1288 
Q 3706 609 3251 259 
Q 2797 -91 1919 -91 
Q 1588 -91 1214 -16 
Q 841 59 441 206 
L 441 856 
Q 825 641 1194 531 
Q 1563 422 1919 422 
Q 2459 422 2753 634 
Q 3047 847 3047 1241 
Q 3047 1584 2836 1778 
Q 2625 1972 2144 2069 
L 1759 2144 
Q 1053 2284 737 2584 
Q 422 2884 422 3419 
Q 422 4038 858 4394 
Q 1294 4750 2059 4750 
Q 2388 4750 2728 4690 
Q 3069 4631 3425 4513 
z
" transform="scale(0.015625)"/>
      <path id="DejaVuSans-50" d="M 1259 4147 
L 1259 2394 
L 2053 2394 
Q 2494 2394 2734 2622 
Q 2975 2850 2975 3272 
Q 2975 3691 2734 3919 
Q 2494 4147 2053 4147 
L 1259 4147 
z
M 628 4666 
L 2053 4666 
Q 2838 4666 3239 4311 
Q 3641 3956 3641 3272 
Q 3641 2581 3239 2228 
Q 2838 1875 2053 1875 
L 1259 1875 
L 1259 0 
L 628 0 
L 628 4666 
z
" transform="scale(0.015625)"/>
     </defs>
     <use xlink:href="#DejaVuSans-57"/>
     <use xlink:href="#DejaVuSans-53" x="98.876953"/>
     <use xlink:href="#DejaVuSans-50" x="162.353516"/>
    </g>
   </g>
   <g id="text_12">
    <!-- Iambic -->
    <g transform="translate(361.832136 119.051058)scale(0.08 -0.08)">
     <defs>
      <path id="DejaVuSans-49" d="M 628 4666 
L 1259 4666 
L 1259 0 
L 628 0 
L 628 4666 
z
" transform="scale(0.015625)"/>
      <path id="DejaVuSans-61" d="M 2194 1759 
Q 1497 1759 1228 1600 
Q 959 1441 959 1056 
Q 959 750 1161 570 
Q 1363 391 1709 391 
Q 2188 391 2477 730 
Q 2766 1069 2766 1631 
L 2766 1759 
L 2194 1759 
z
M 3341 1997 
L 3341 0 
L 2766 0 
L 2766 531 
Q 2569 213 2275 61 
Q 1981 -91 1556 -91 
Q 1019 -91 701 211 
Q 384 513 384 1019 
Q 384 1609 779 1909 
Q 1175 2209 1959 2209 
L 2766 2209 
L 2766 2266 
Q 2766 2663 2505 2880 
Q 2244 3097 1772 3097 
Q 1472 3097 1187 3025 
Q 903 2953 641 2809 
L 641 3341 
Q 956 3463 1253 3523 
Q 1550 3584 1831 3584 
Q 2591 3584 2966 3190 
Q 3341 2797 3341 1997 
z
" transform="scale(0.015625)"/>
      <path id="DejaVuSans-6d" d="M 3328 2828 
Q 3544 3216 3844 3400 
Q 4144 3584 4550 3584 
Q 5097 3584 5394 3201 
Q 5691 2819 5691 2113 
L 5691 0 
L 5113 0 
L 5113 2094 
Q 5113 2597 4934 2840 
Q 4756 3084 4391 3084 
Q 3944 3084 3684 2787 
Q 3425 2491 3425 1978 
L 3425 0 
L 2847 0 
L 2847 2094 
Q 2847 2600 2669 2842 
Q 2491 3084 2119 3084 
Q 1678 3084 1418 2786 
Q 1159 2488 1159 1978 
L 1159 0 
L 581 0 
L 581 3500 
L 1159 3500 
L 1159 2956 
Q 1356 3278 1631 3431 
Q 1906 3584 2284 3584 
Q 2666 3584 2933 3390 
Q 3200 3197 3328 2828 
z
" transform="scale(0.015625)"/>
      <path id="DejaVuSans-62" d="M 3116 1747 
Q 3116 2381 2855 2742 
Q 2594 3103 2138 3103 
Q 1681 3103 1420 2742 
Q 1159 2381 1159 1747 
Q 1159 1113 1420 752 
Q 1681 391 2138 391 
Q 2594 391 2855 752 
Q 3116 1113 3116 1747 
z
M 1159 2969 
Q 1341 3281 1617 3432 
Q 1894 3584 2278 3584 
Q 2916 3584 3314 3078 
Q 3713 2572 3713 1747 
Q 3713 922 3314 415 
Q 2916 -91 2278 -91 
Q 1894 -91 1617 61 
Q 1341 213 1159 525 
L 1159 0 
L 581 0 
L 581 4863 
L 1159 4863 
L 1159 2969 
z
" transform="scale(0.015625)"/>
      <path id="DejaVuSans-69" d="M 603 3500 
L 1178 3500 
L 1178 0 
L 603 0 
L 603 3500 
z
M 603 4863 
L 1178 4863 
L 1178 4134 
L 603 4134 
L 603 4863 
z
" transform="scale(0.015625)"/>
      <path id="DejaVuSans-63" d="M 3122 3366 
L 3122 2828 
Q 2878 2963 2633 3030 
Q 2388 3097 2138 3097 
Q 1578 3097 1268 2742 
Q 959 2388 959 1747 
Q 959 1106 1268 751 
Q 1578 397 2138 397 
Q 2388 397 2633 464 
Q 2878 531 3122 666 
L 3122 134 
Q 2881 22 2623 -34 
Q 2366 -91 2075 -91 
Q 1284 -91 818 406 
Q 353 903 353 1747 
Q 353 2603 823 3093 
Q 1294 3584 2113 3584 
Q 2378 3584 2631 3529 
Q 2884 3475 3122 3366 
z
" transform="scale(0.015625)"/>
     </defs>
     <use xlink:href="#DejaVuSans-49"/>
     <use xlink:href="#DejaVuSans-61" x="29.492188"/>
     <use xlink:href="#DejaVuSans-6d" x="90.771484"/>
     <use xlink:href="#DejaVuSans-62" x="188.183594"/>
     <use xlink:href="#DejaVuSans-69" x="251.660156"/>
     <use xlink:href="#DejaVuSans-63" x="279.443359"/>
    </g>
   </g>
   <g id="text_13">
    <!-- Parse -->
    <g transform="translate(361.832136 118.820767)scale(0.08 -0.08)">
     <defs>
      <path id="DejaVuSans-72" d="M 2631 2963 
Q 2534 3019 2420 3045 
Q 2306 3072 2169 3072 
Q 1681 3072 1420 2755 
Q 1159 2438 1159 1844 
L 1159 0 
L 581 0 
L 581 3500 
L 1159 3500 
L 1159 2956 
Q 1341 3275 1631 3429 
Q 1922 3584 2338 3584 
Q 2397 3584 2469 3576 
Q 2541 3569 2628 3553 
L 2631 2963 
z
" transform="scale(0.015625)"/>
      <path id="DejaVuSans-73" d="M 2834 3397 
L 2834 2853 
Q 2591 2978 2328 3040 
Q 2066 3103 1784 3103 
Q 1356 3103 1142 2972 
Q 928 2841 928 2578 
Q 928 2378 1081 2264 
Q 1234 2150 1697 2047 
L 1894 2003 
Q 2506 1872 2764 1633 
Q 3022 1394 3022 966 
Q 3022 478 2636 193 
Q 2250 -91 1575 -91 
Q 1294 -91 989 -36 
Q 684 19 347 128 
L 347 722 
Q 666 556 975 473 
Q 1284 391 1588 391 
Q 1994 391 2212 530 
Q 2431 669 2431 922 
Q 2431 1156 2273 1281 
Q 2116 1406 1581 1522 
L 1381 1569 
Q 847 1681 609 1914 
Q 372 2147 372 2553 
Q 372 3047 722 3315 
Q 1072 3584 1716 3584 
Q 2034 3584 2315 3537 
Q 2597 3491 2834 3397 
z
" transform="scale(0.015625)"/>
      <path id="DejaVuSans-65" d="M 3597 1894 
L 3597 1613 
L 953 1613 
Q 991 1019 1311 708 
Q 1631 397 2203 397 
Q 2534 397 2845 478 
Q 3156 559 3463 722 
L 3463 178 
Q 3153 47 2828 -22 
Q 2503 -91 2169 -91 
Q 1331 -91 842 396 
Q 353 884 353 1716 
Q 353 2575 817 3079 
Q 1281 3584 2069 3584 
Q 2775 3584 3186 3129 
Q 3597 2675 3597 1894 
z
M 3022 2063 
Q 3016 2534 2758 2815 
Q 2500 3097 2075 3097 
Q 1594 3097 1305 2825 
Q 1016 2553 972 2059 
L 3022 2063 
z
" transform="scale(0.015625)"/>
     </defs>
     <use xlink:href="#DejaVuSans-50"/>
     <use xlink:href="#DejaVuSans-61" x="55.802734"/>
     <use xlink:href="#DejaVuSans-72" x="117.082031"/>
     <use xlink:href="#DejaVuSans-73" x="158.195312"/>
     <use xlink:href="#DejaVuSans-65" x="210.294922"/>
    </g>
   </g>
   <g id="text_14">
    <!-- FootBin -->
    <g transform="translate(361.832136 90.437483)scale(0.08 -0.08)">
     <defs>
      <path id="DejaVuSans-46" d="M 628 4666 
L 3309 4666 
L 3309 4134 
L 1259 4134 
L 1259 2759 
L 3109 2759 
L 3109 2228 
L 1259 2228 
L 1259 0 
L 628 0 
L 628 4666 
z
" transform="scale(0.015625)"/>
      <path id="DejaVuSans-6f" d="M 1959 3097 
Q 1497 3097 1228 2736 
Q 959 2375 959 1747 
Q 959 1119 1226 758 
Q 1494 397 1959 397 
Q 2419 397 2687 759 
Q 2956 1122 2956 1747 
Q 2956 2369 2687 2733 
Q 2419 3097 1959 3097 
z
M 1959 3584 
Q 2709 3584 3137 3096 
Q 3566 2609 3566 1747 
Q 3566 888 3137 398 
Q 2709 -91 1959 -91 
Q 1206 -91 779 398 
Q 353 888 353 1747 
Q 353 2609 779 3096 
Q 1206 3584 1959 3584 
z
" transform="scale(0.015625)"/>
      <path id="DejaVuSans-74" d="M 1172 4494 
L 1172 3500 
L 2356 3500 
L 2356 3053 
L 1172 3053 
L 1172 1153 
Q 1172 725 1289 603 
Q 1406 481 1766 481 
L 2356 481 
L 2356 0 
L 1766 0 
Q 1100 0 847 248 
Q 594 497 594 1153 
L 594 3053 
L 172 3053 
L 172 3500 
L 594 3500 
L 594 4494 
L 1172 4494 
z
" transform="scale(0.015625)"/>
      <path id="DejaVuSans-42" d="M 1259 2228 
L 1259 519 
L 2272 519 
Q 2781 519 3026 730 
Q 3272 941 3272 1375 
Q 3272 1813 3026 2020 
Q 2781 2228 2272 2228 
L 1259 2228 
z
M 1259 4147 
L 1259 2741 
L 2194 2741 
Q 2656 2741 2882 2914 
Q 3109 3088 3109 3444 
Q 3109 3797 2882 3972 
Q 2656 4147 2194 4147 
L 1259 4147 
z
M 628 4666 
L 2241 4666 
Q 2963 4666 3353 4366 
Q 3744 4066 3744 3513 
Q 3744 3084 3544 2831 
Q 3344 2578 2956 2516 
Q 3422 2416 3680 2098 
Q 3938 1781 3938 1306 
Q 3938 681 3513 340 
Q 3088 0 2303 0 
L 628 0 
L 628 4666 
z
" transform="scale(0.015625)"/>
      <path id="DejaVuSans-6e" d="M 3513 2113 
L 3513 0 
L 2938 0 
L 2938 2094 
Q 2938 2591 2744 2837 
Q 2550 3084 2163 3084 
Q 1697 3084 1428 2787 
Q 1159 2491 1159 1978 
L 1159 0 
L 581 0 
L 581 3500 
L 1159 3500 
L 1159 2956 
Q 1366 3272 1645 3428 
Q 1925 3584 2291 3584 
Q 2894 3584 3203 3211 
Q 3513 2838 3513 2113 
z
" transform="scale(0.015625)"/>
     </defs>
     <use xlink:href="#DejaVuSans-46"/>
     <use xlink:href="#DejaVuSans-6f" x="53.894531"/>
     <use xlink:href="#DejaVuSans-6f" x="115.076172"/>
     <use xlink:href="#DejaVuSans-74" x="176.257812"/>
     <use xlink:href="#DejaVuSans-42" x="215.466797"/>
     <use xlink:href="#DejaVuSans-69" x="284.070312"/>
     <use xlink:href="#DejaVuSans-6e" x="311.853516"/>
    </g>
   </g>
   <g id="text_15">
    <!-- WFL -->
    <g transform="translate(361.832136 64.52982)scale(0.08 -0.08)">
     <defs>
      <path id="DejaVuSans-4c" d="M 628 4666 
L 1259 4666 
L 1259 531 
L 3531 531 
L 3531 0 
L 628 0 
L 628 4666 
z
" transform="scale(0.015625)"/>
     </defs>
     <use xlink:href="#DejaVuSans-57"/>
     <use xlink:href="#DejaVuSans-46" x="98.876953"/>
     <use xlink:href="#DejaVuSans-4c" x="156.396484"/>
    </g>
   </g>
   <g id="text_16">
    <!-- WFR -->
    <g transform="translate(361.832136 49.560948)scale(0.08 -0.08)">
     <defs>
      <path id="DejaVuSans-52" d="M 2841 2188 
Q 3044 2119 3236 1894 
Q 3428 1669 3622 1275 
L 4263 0 
L 3584 0 
L 2988 1197 
Q 2756 1666 2539 1819 
Q 2322 1972 1947 1972 
L 1259 1972 
L 1259 0 
L 628 0 
L 628 4666 
L 2053 4666 
Q 2853 4666 3247 4331 
Q 3641 3997 3641 3322 
Q 3641 2881 3436 2590 
Q 3231 2300 2841 2188 
z
M 1259 4147 
L 1259 2491 
L 2053 2491 
Q 2509 2491 2742 2702 
Q 2975 2913 2975 3322 
Q 2975 3731 2742 3939 
Q 2509 4147 2053 4147 
L 1259 4147 
z
" transform="scale(0.015625)"/>
     </defs>
     <use xlink:href="#DejaVuSans-57"/>
     <use xlink:href="#DejaVuSans-46" x="98.876953"/>
     <use xlink:href="#DejaVuSans-52" x="156.396484"/>
    </g>
   </g>
   <g id="text_17">
    <!-- Main-L -->
    <g transform="translate(361.832136 51.575989)scale(0.08 -0.08)">
     <defs>
      <path id="DejaVuSans-4d" d="M 628 4666 
L 1569 4666 
L 2759 1491 
L 3956 4666 
L 4897 4666 
L 4897 0 
L 4281 0 
L 4281 4097 
L 3078 897 
L 2444 897 
L 1241 4097 
L 1241 0 
L 628 0 
L 628 4666 
z
" transform="scale(0.015625)"/>
      <path id="DejaVuSans-2d" d="M 313 2009 
L 1997 2009 
L 1997 1497 
L 313 1497 
L 313 2009 
z
" transform="scale(0.015625)"/>
     </defs>
     <use xlink:href="#DejaVuSans-4d"/>
     <use xlink:href="#DejaVuSans-61" x="86.279297"/>
     <use xlink:href="#DejaVuSans-69" x="147.558594"/>
     <use xlink:href="#DejaVuSans-6e" x="175.341797"/>
     <use xlink:href="#DejaVuSans-2d" x="238.720703"/>
     <use xlink:href="#DejaVuSans-4c" x="274.804688"/>
    </g>
   </g>
   <g id="text_18">
    <!-- Main-R -->
    <g transform="translate(361.832136 114.905832)scale(0.08 -0.08)">
     <use xlink:href="#DejaVuSans-4d"/>
     <use xlink:href="#DejaVuSans-61" x="86.279297"/>
     <use xlink:href="#DejaVuSans-69" x="147.558594"/>
     <use xlink:href="#DejaVuSans-6e" x="175.341797"/>
     <use xlink:href="#DejaVuSans-2d" x="238.720703"/>
     <use xlink:href="#DejaVuSans-52" x="274.804688"/>
    </g>
   </g>
   <g id="text_19">
    <!-- AFL -->
    <g transform="translate(361.832136 136.610696)scale(0.08 -0.08)">
     <defs>
      <path id="DejaVuSans-41" d="M 2188 4044 
L 1331 1722 
L 3047 1722 
L 2188 4044 
z
M 1831 4666 
L 2547 4666 
L 4325 0 
L 3669 0 
L 3244 1197 
L 1141 1197 
L 716 0 
L 50 0 
L 1831 4666 
z
" transform="scale(0.015625)"/>
     </defs>
     <use xlink:href="#DejaVuSans-41"/>
     <use xlink:href="#DejaVuSans-46" x="68.408203"/>
     <use xlink:href="#DejaVuSans-4c" x="125.927734"/>
    </g>
   </g>
   <g id="text_20">
    <!-- AFR -->
    <g transform="translate(361.832136 88.710306)scale(0.08 -0.08)">
     <use xlink:href="#DejaVuSans-41"/>
     <use xlink:href="#DejaVuSans-46" x="68.408203"/>
     <use xlink:href="#DejaVuSans-52" x="125.927734"/>
    </g>
   </g>
   <g id="text_21">
    <!-- Nonfinal -->
    <g transform="translate(361.832136 125.671905)scale(0.08 -0.08)">
     <defs>
      <path id="DejaVuSans-4e" d="M 628 4666 
L 1478 4666 
L 3547 763 
L 3547 4666 
L 4159 4666 
L 4159 0 
L 3309 0 
L 1241 3903 
L 1241 0 
L 628 0 
L 628 4666 
z
" transform="scale(0.015625)"/>
      <path id="DejaVuSans-66" d="M 2375 4863 
L 2375 4384 
L 1825 4384 
Q 1516 4384 1395 4259 
Q 1275 4134 1275 3809 
L 1275 3500 
L 2222 3500 
L 2222 3053 
L 1275 3053 
L 1275 0 
L 697 0 
L 697 3053 
L 147 3053 
L 147 3500 
L 697 3500 
L 697 3744 
Q 697 4328 969 4595 
Q 1241 4863 1831 4863 
L 2375 4863 
z
" transform="scale(0.015625)"/>
      <path id="DejaVuSans-6c" d="M 603 4863 
L 1178 4863 
L 1178 0 
L 603 0 
L 603 4863 
z
" transform="scale(0.015625)"/>
     </defs>
     <use xlink:href="#DejaVuSans-4e"/>
     <use xlink:href="#DejaVuSans-6f" x="74.804688"/>
     <use xlink:href="#DejaVuSans-6e" x="135.986328"/>
     <use xlink:href="#DejaVuSans-66" x="199.365234"/>
     <use xlink:href="#DejaVuSans-69" x="234.570312"/>
     <use xlink:href="#DejaVuSans-6e" x="262.353516"/>
     <use xlink:href="#DejaVuSans-61" x="325.732422"/>
     <use xlink:href="#DejaVuSans-6c" x="387.011719"/>
    </g>
   </g>
   <g id="text_22">
    <!-- Trochaic -->
    <g transform="translate(361.832136 155.782366)scale(0.08 -0.08)">
     <defs>
      <path id="DejaVuSans-54" d="M -19 4666 
L 3928 4666 
L 3928 4134 
L 2272 4134 
L 2272 0 
L 1638 0 
L 1638 4134 
L -19 4134 
L -19 4666 
z
" transform="scale(0.015625)"/>
      <path id="DejaVuSans-68" d="M 3513 2113 
L 3513 0 
L 2938 0 
L 2938 2094 
Q 2938 2591 2744 2837 
Q 2550 3084 2163 3084 
Q 1697 3084 1428 2787 
Q 1159 2491 1159 1978 
L 1159 0 
L 581 0 
L 581 4863 
L 1159 4863 
L 1159 2956 
Q 1366 3272 1645 3428 
Q 1925 3584 2291 3584 
Q 2894 3584 3203 3211 
Q 3513 2838 3513 2113 
z
" transform="scale(0.015625)"/>
     </defs>
     <use xlink:href="#DejaVuSans-54"/>
     <use xlink:href="#DejaVuSans-72" x="46.333984"/>
     <use xlink:href="#DejaVuSans-6f" x="85.197266"/>
     <use xlink:href="#DejaVuSans-63" x="146.378906"/>
     <use xlink:href="#DejaVuSans-68" x="201.359375"/>
     <use xlink:href="#DejaVuSans-61" x="264.738281"/>
     <use xlink:href="#DejaVuSans-69" x="326.017578"/>
     <use xlink:href="#DejaVuSans-63" x="353.800781"/>
    </g>
   </g>
  </g>
  <g id="axes_2">
   <g id="patch_7">
    <path d="M 57.6 307.584 
L 414.72 307.584 
L 414.72 186.624 
L 57.6 186.624 
z
" style="fill: #ffffff"/>
   </g>
   <g id="matplotlib.axis_3">
    <g id="xtick_8">
     <g id="line2d_23">
      <g>
       <use xlink:href="#m3952103350" x="70.98488" y="307.584" style="stroke: #000000; stroke-width: 0.8"/>
      </g>
     </g>
     <g id="text_23">
      <!-- 0 -->
      <g transform="translate(67.80363 322.182437)scale(0.1 -0.1)">
       <use xlink:href="#DejaVuSans-30"/>
      </g>
     </g>
    </g>
    <g id="xtick_9">
     <g id="line2d_24">
      <g>
       <use xlink:href="#m3952103350" x="127.941818" y="307.584" style="stroke: #000000; stroke-width: 0.8"/>
      </g>
     </g>
     <g id="text_24">
      <!-- 20 -->
      <g transform="translate(121.579318 322.182437)scale(0.1 -0.1)">
       <use xlink:href="#DejaVuSans-32"/>
       <use xlink:href="#DejaVuSans-30" x="63.623047"/>
      </g>
     </g>
    </g>
    <g id="xtick_10">
     <g id="line2d_25">
      <g>
       <use xlink:href="#m3952103350" x="184.898756" y="307.584" style="stroke: #000000; stroke-width: 0.8"/>
      </g>
     </g>
     <g id="text_25">
      <!-- 40 -->
      <g transform="translate(178.536256 322.182437)scale(0.1 -0.1)">
       <use xlink:href="#DejaVuSans-34"/>
       <use xlink:href="#DejaVuSans-30" x="63.623047"/>
      </g>
     </g>
    </g>
    <g id="xtick_11">
     <g id="line2d_26">
      <g>
       <use xlink:href="#m3952103350" x="241.855694" y="307.584" style="stroke: #000000; stroke-width: 0.8"/>
      </g>
     </g>
     <g id="text_26">
      <!-- 60 -->
      <g transform="translate(235.493194 322.182437)scale(0.1 -0.1)">
       <use xlink:href="#DejaVuSans-36"/>
       <use xlink:href="#DejaVuSans-30" x="63.623047"/>
      </g>
     </g>
    </g>
    <g id="xtick_12">
     <g id="line2d_27">
      <g>
       <use xlink:href="#m3952103350" x="298.812632" y="307.584" style="stroke: #000000; stroke-width: 0.8"/>
      </g>
     </g>
     <g id="text_27">
      <!-- 80 -->
      <g transform="translate(292.450132 322.182437)scale(0.1 -0.1)">
       <use xlink:href="#DejaVuSans-38"/>
       <use xlink:href="#DejaVuSans-30" x="63.623047"/>
      </g>
     </g>
    </g>
    <g id="xtick_13">
     <g id="line2d_28">
      <g>
       <use xlink:href="#m3952103350" x="355.769569" y="307.584" style="stroke: #000000; stroke-width: 0.8"/>
      </g>
     </g>
     <g id="text_28">
      <!-- 100 -->
      <g transform="translate(346.225819 322.182437)scale(0.1 -0.1)">
       <use xlink:href="#DejaVuSans-31"/>
       <use xlink:href="#DejaVuSans-30" x="63.623047"/>
       <use xlink:href="#DejaVuSans-30" x="127.246094"/>
      </g>
     </g>
    </g>
    <g id="xtick_14">
     <g id="line2d_29">
      <g>
       <use xlink:href="#m3952103350" x="412.726507" y="307.584" style="stroke: #000000; stroke-width: 0.8"/>
      </g>
     </g>
     <g id="text_29">
      <!-- 120 -->
      <g transform="translate(403.182757 322.182437)scale(0.1 -0.1)">
       <use xlink:href="#DejaVuSans-31"/>
       <use xlink:href="#DejaVuSans-32" x="63.623047"/>
       <use xlink:href="#DejaVuSans-30" x="127.246094"/>
      </g>
     </g>
    </g>
   </g>
   <g id="matplotlib.axis_4">
    <g id="ytick_4">
     <g id="line2d_30">
      <g>
       <use xlink:href="#ma4cef42676" x="57.6" y="302.103062" style="stroke: #000000; stroke-width: 0.8"/>
      </g>
     </g>
     <g id="text_30">
      <!-- 0 -->
      <g transform="translate(44.2375 305.902281)scale(0.1 -0.1)">
       <use xlink:href="#DejaVuSans-30"/>
      </g>
     </g>
    </g>
    <g id="ytick_5">
     <g id="line2d_31">
      <g>
       <use xlink:href="#ma4cef42676" x="57.6" y="267.615486" style="stroke: #000000; stroke-width: 0.8"/>
      </g>
     </g>
     <g id="text_31">
      <!-- 2000 -->
      <g transform="translate(25.15 271.414705)scale(0.1 -0.1)">
       <use xlink:href="#DejaVuSans-32"/>
       <use xlink:href="#DejaVuSans-30" x="63.623047"/>
       <use xlink:href="#DejaVuSans-30" x="127.246094"/>
       <use xlink:href="#DejaVuSans-30" x="190.869141"/>
      </g>
     </g>
    </g>
    <g id="ytick_6">
     <g id="line2d_32">
      <g>
       <use xlink:href="#ma4cef42676" x="57.6" y="233.12791" style="stroke: #000000; stroke-width: 0.8"/>
      </g>
     </g>
     <g id="text_32">
      <!-- 4000 -->
      <g transform="translate(25.15 236.927129)scale(0.1 -0.1)">
       <use xlink:href="#DejaVuSans-34"/>
       <use xlink:href="#DejaVuSans-30" x="63.623047"/>
       <use xlink:href="#DejaVuSans-30" x="127.246094"/>
       <use xlink:href="#DejaVuSans-30" x="190.869141"/>
      </g>
     </g>
    </g>
    <g id="ytick_7">
     <g id="line2d_33">
      <g>
       <use xlink:href="#ma4cef42676" x="57.6" y="198.640334" style="stroke: #000000; stroke-width: 0.8"/>
      </g>
     </g>
     <g id="text_33">
      <!-- 6000 -->
      <g transform="translate(25.15 202.439552)scale(0.1 -0.1)">
       <use xlink:href="#DejaVuSans-36"/>
       <use xlink:href="#DejaVuSans-30" x="63.623047"/>
       <use xlink:href="#DejaVuSans-30" x="127.246094"/>
       <use xlink:href="#DejaVuSans-30" x="190.869141"/>
      </g>
     </g>
    </g>
   </g>
   <g id="line2d_34">
    <path d="M 73.832727 302.085818 
L 76.680574 302.085818 
L 79.528421 302.085818 
L 82.376268 302.085818 
L 85.224115 302.085818 
L 88.071962 302.085818 
L 90.919809 302.085818 
L 93.767656 302.085818 
L 96.615502 302.068574 
L 99.463349 302.068574 
L 102.311196 302.085818 
L 105.159043 302.051331 
L 108.00689 302.085818 
L 110.854737 302.085818 
L 113.702584 302.085818 
L 116.550431 302.051331 
L 119.398278 302.085818 
L 122.246124 302.068574 
L 125.093971 301.999599 
L 127.941818 302.068574 
L 130.789665 302.016843 
L 133.637512 302.051331 
L 136.485359 302.034087 
L 139.333206 302.016843 
L 142.181053 302.068574 
L 145.0289 301.77543 
L 147.876746 302.085818 
L 150.724593 302.085818 
L 153.57244 302.034087 
L 156.420287 301.947868 
L 159.268134 301.982355 
L 162.115981 302.085818 
L 164.963828 302.085818 
L 167.811675 301.982355 
L 170.659522 301.861649 
L 173.507368 301.982355 
L 176.355215 302.085818 
L 179.203062 301.999599 
L 182.050909 302.068574 
L 184.898756 301.77543 
L 187.746603 301.965112 
L 190.59445 302.034087 
L 193.442297 301.896137 
L 196.290144 301.499529 
L 199.13799 302.016843 
L 201.985837 301.878893 
L 204.833684 301.740942 
L 207.681531 300.189001 
L 210.529378 301.896137 
L 213.377225 301.602992 
L 216.225072 301.999599 
L 219.072919 301.171897 
L 221.920766 300.464902 
L 224.768612 300.964972 
L 227.616459 301.63748 
L 230.464306 301.120166 
L 233.312153 301.13741 
L 236.16 301.344335 
L 239.007847 301.085678 
L 241.855694 301.77543 
L 244.703541 301.671967 
L 247.551388 301.947868 
L 250.399234 301.482286 
L 253.247081 301.240873 
L 256.094928 301.689211 
L 258.942775 299.516494 
L 261.790622 302.034087 
L 264.638469 299.913101 
L 267.486316 301.999599 
L 270.334163 300.447658 
L 273.18201 301.861649 
L 276.029856 302.034087 
L 278.877703 302.016843 
L 281.72555 302.051331 
L 284.573397 301.827161 
L 287.421244 301.844405 
L 290.269091 301.189141 
L 293.116938 302.085818 
L 295.964785 301.999599 
L 298.812632 301.947868 
L 301.660478 295.050353 
L 304.508325 298.568085 
L 307.356172 301.930624 
L 310.204019 301.827161 
L 313.051866 284.721324 
L 315.899713 298.895717 
L 318.74756 300.206245 
L 321.595407 292.584491 
L 324.443254 301.309848 
L 327.2911 256.751899 
L 330.138947 214.883982 
L 332.986794 284.962737 
L 335.834641 293.256999 
L 338.682488 277.23752 
L 341.530335 299.688932 
L 344.378182 299.930345 
L 347.226029 298.757767 
L 350.073876 301.947868 
L 352.921722 301.051191 
L 355.769569 257.889989 
L 358.617416 228.816963 
L 361.465263 290.084142 
L 364.31311 285.428319 
L 367.160957 295.015865 
L 370.008804 301.63748 
L 372.856651 262.804469 
L 375.704498 267.718949 
L 378.552344 200.778563 
L 381.400191 244.112203 
L 384.248038 226.385589 
L 387.095885 226.43732 
L 389.943732 294.326114 
L 392.791579 249.337071 
L 395.639426 192.122182 
L 398.487273 265.580719 
" clip-path="url(#p241c07d855)" style="fill: none; stroke: #1f77b4; stroke-width: 1.5; stroke-linecap: square"/>
   </g>
   <g id="patch_8">
    <path d="M 57.6 307.584 
L 57.6 186.624 
" style="fill: none; stroke: #000000; stroke-width: 0.8; stroke-linejoin: miter; stroke-linecap: square"/>
   </g>
   <g id="patch_9">
    <path d="M 414.72 307.584 
L 414.72 186.624 
" style="fill: none; stroke: #000000; stroke-width: 0.8; stroke-linejoin: miter; stroke-linecap: square"/>
   </g>
   <g id="patch_10">
    <path d="M 57.6 307.584 
L 414.72 307.584 
" style="fill: none; stroke: #000000; stroke-width: 0.8; stroke-linejoin: miter; stroke-linecap: square"/>
   </g>
   <g id="patch_11">
    <path d="M 57.6 186.624 
L 414.72 186.624 
" style="fill: none; stroke: #000000; stroke-width: 0.8; stroke-linejoin: miter; stroke-linecap: square"/>
   </g>
  </g>
 </g>
 <defs>
  <clipPath id="pa64b7ee105">
   <rect x="57.6" y="41.472" width="357.12" height="120.96"/>
  </clipPath>
  <clipPath id="p241c07d855">
   <rect x="57.6" y="186.624" width="357.12" height="120.96"/>
  </clipPath>
 </defs>
</svg>
