<?xml version="1.0" encoding="utf-8" standalone="no"?>
<!DOCTYPE svg PUBLIC "-//W3C//DTD SVG 1.1//EN"
  "http://www.w3.org/Graphics/SVG/1.1/DTD/svg11.dtd">
<svg xmlns:xlink="http://www.w3.org/1999/xlink" width="460.8pt" height="345.6pt" viewBox="0 0 460.8 345.6" xmlns="http://www.w3.org/2000/svg" version="1.1">
 <metadata>
  <rdf:RDF xmlns:dc="http://purl.org/dc/elements/1.1/" xmlns:cc="http://creativecommons.org/ns#" xmlns:rdf="http://www.w3.org/1999/02/22-rdf-syntax-ns#">
   <cc:Work>
    <dc:type rdf:resource="http://purl.org/dc/dcmitype/StillImage"/>
    <dc:date>2022-05-13T15:27:41.017084</dc:date>
    <dc:format>image/svg+xml</dc:format>
    <dc:creator>
     <cc:Agent>
      <dc:title>Matplotlib v3.5.1, https://matplotlib.org/</dc:title>
     </cc:Agent>
    </dc:creator>
   </cc:Work>
  </rdf:RDF>
 </metadata>
 <defs>
  <style type="text/css">*{stroke-linejoin: round; stroke-linecap: butt}</style>
 </defs>
 <g id="figure_1">
  <g id="patch_1">
   <path d="M 0 345.6 
L 460.8 345.6 
L 460.8 0 
L 0 0 
z
" style="fill: #ffffff"/>
  </g>
  <g id="axes_1">
   <g id="patch_2">
    <path d="M 57.6 162.432 
L 414.72 162.432 
L 414.72 41.472 
L 57.6 41.472 
z
" style="fill: #ffffff"/>
   </g>
   <g id="matplotlib.axis_1">
    <g id="xtick_1">
     <g id="line2d_1">
      <defs>
       <path id="m168c41aeec" d="M 0 0 
L 0 3.5 
" style="stroke: #000000; stroke-width: 0.8"/>
      </defs>
      <g>
       <use xlink:href="#m168c41aeec" x="73.827491" y="162.432" style="stroke: #000000; stroke-width: 0.8"/>
      </g>
     </g>
     <g id="text_1">
      <!-- 0 -->
      <g transform="translate(70.646241 177.030437)scale(0.1 -0.1)">
       <defs>
        <path id="DejaVuSans-30" d="M 2034 4250 
Q 1547 4250 1301 3770 
Q 1056 3291 1056 2328 
Q 1056 1369 1301 889 
Q 1547 409 2034 409 
Q 2525 409 2770 889 
Q 3016 1369 3016 2328 
Q 3016 3291 2770 3770 
Q 2525 4250 2034 4250 
z
M 2034 4750 
Q 2819 4750 3233 4129 
Q 3647 3509 3647 2328 
Q 3647 1150 3233 529 
Q 2819 -91 2034 -91 
Q 1250 -91 836 529 
Q 422 1150 422 2328 
Q 422 3509 836 4129 
Q 1250 4750 2034 4750 
z
" transform="scale(0.015625)"/>
       </defs>
       <use xlink:href="#DejaVuSans-30"/>
      </g>
     </g>
    </g>
    <g id="xtick_2">
     <g id="line2d_2">
      <g>
       <use xlink:href="#m168c41aeec" x="126.191972" y="162.432" style="stroke: #000000; stroke-width: 0.8"/>
      </g>
     </g>
     <g id="text_2">
      <!-- 10000 -->
      <g transform="translate(110.285722 177.030437)scale(0.1 -0.1)">
       <defs>
        <path id="DejaVuSans-31" d="M 794 531 
L 1825 531 
L 1825 4091 
L 703 3866 
L 703 4441 
L 1819 4666 
L 2450 4666 
L 2450 531 
L 3481 531 
L 3481 0 
L 794 0 
L 794 531 
z
" transform="scale(0.015625)"/>
       </defs>
       <use xlink:href="#DejaVuSans-31"/>
       <use xlink:href="#DejaVuSans-30" x="63.623047"/>
       <use xlink:href="#DejaVuSans-30" x="127.246094"/>
       <use xlink:href="#DejaVuSans-30" x="190.869141"/>
       <use xlink:href="#DejaVuSans-30" x="254.492188"/>
      </g>
     </g>
    </g>
    <g id="xtick_3">
     <g id="line2d_3">
      <g>
       <use xlink:href="#m168c41aeec" x="178.556453" y="162.432" style="stroke: #000000; stroke-width: 0.8"/>
      </g>
     </g>
     <g id="text_3">
      <!-- 20000 -->
      <g transform="translate(162.650203 177.030437)scale(0.1 -0.1)">
       <defs>
        <path id="DejaVuSans-32" d="M 1228 531 
L 3431 531 
L 3431 0 
L 469 0 
L 469 531 
Q 828 903 1448 1529 
Q 2069 2156 2228 2338 
Q 2531 2678 2651 2914 
Q 2772 3150 2772 3378 
Q 2772 3750 2511 3984 
Q 2250 4219 1831 4219 
Q 1534 4219 1204 4116 
Q 875 4013 500 3803 
L 500 4441 
Q 881 4594 1212 4672 
Q 1544 4750 1819 4750 
Q 2544 4750 2975 4387 
Q 3406 4025 3406 3419 
Q 3406 3131 3298 2873 
Q 3191 2616 2906 2266 
Q 2828 2175 2409 1742 
Q 1991 1309 1228 531 
z
" transform="scale(0.015625)"/>
       </defs>
       <use xlink:href="#DejaVuSans-32"/>
       <use xlink:href="#DejaVuSans-30" x="63.623047"/>
       <use xlink:href="#DejaVuSans-30" x="127.246094"/>
       <use xlink:href="#DejaVuSans-30" x="190.869141"/>
       <use xlink:href="#DejaVuSans-30" x="254.492188"/>
      </g>
     </g>
    </g>
    <g id="xtick_4">
     <g id="line2d_4">
      <g>
       <use xlink:href="#m168c41aeec" x="230.920934" y="162.432" style="stroke: #000000; stroke-width: 0.8"/>
      </g>
     </g>
     <g id="text_4">
      <!-- 30000 -->
      <g transform="translate(215.014684 177.030437)scale(0.1 -0.1)">
       <defs>
        <path id="DejaVuSans-33" d="M 2597 2516 
Q 3050 2419 3304 2112 
Q 3559 1806 3559 1356 
Q 3559 666 3084 287 
Q 2609 -91 1734 -91 
Q 1441 -91 1130 -33 
Q 819 25 488 141 
L 488 750 
Q 750 597 1062 519 
Q 1375 441 1716 441 
Q 2309 441 2620 675 
Q 2931 909 2931 1356 
Q 2931 1769 2642 2001 
Q 2353 2234 1838 2234 
L 1294 2234 
L 1294 2753 
L 1863 2753 
Q 2328 2753 2575 2939 
Q 2822 3125 2822 3475 
Q 2822 3834 2567 4026 
Q 2313 4219 1838 4219 
Q 1578 4219 1281 4162 
Q 984 4106 628 3988 
L 628 4550 
Q 988 4650 1302 4700 
Q 1616 4750 1894 4750 
Q 2613 4750 3031 4423 
Q 3450 4097 3450 3541 
Q 3450 3153 3228 2886 
Q 3006 2619 2597 2516 
z
" transform="scale(0.015625)"/>
       </defs>
       <use xlink:href="#DejaVuSans-33"/>
       <use xlink:href="#DejaVuSans-30" x="63.623047"/>
       <use xlink:href="#DejaVuSans-30" x="127.246094"/>
       <use xlink:href="#DejaVuSans-30" x="190.869141"/>
       <use xlink:href="#DejaVuSans-30" x="254.492188"/>
      </g>
     </g>
    </g>
    <g id="xtick_5">
     <g id="line2d_5">
      <g>
       <use xlink:href="#m168c41aeec" x="283.285415" y="162.432" style="stroke: #000000; stroke-width: 0.8"/>
      </g>
     </g>
     <g id="text_5">
      <!-- 40000 -->
      <g transform="translate(267.379165 177.030437)scale(0.1 -0.1)">
       <defs>
        <path id="DejaVuSans-34" d="M 2419 4116 
L 825 1625 
L 2419 1625 
L 2419 4116 
z
M 2253 4666 
L 3047 4666 
L 3047 1625 
L 3713 1625 
L 3713 1100 
L 3047 1100 
L 3047 0 
L 2419 0 
L 2419 1100 
L 313 1100 
L 313 1709 
L 2253 4666 
z
" transform="scale(0.015625)"/>
       </defs>
       <use xlink:href="#DejaVuSans-34"/>
       <use xlink:href="#DejaVuSans-30" x="63.623047"/>
       <use xlink:href="#DejaVuSans-30" x="127.246094"/>
       <use xlink:href="#DejaVuSans-30" x="190.869141"/>
       <use xlink:href="#DejaVuSans-30" x="254.492188"/>
      </g>
     </g>
    </g>
    <g id="xtick_6">
     <g id="line2d_6">
      <g>
       <use xlink:href="#m168c41aeec" x="335.649896" y="162.432" style="stroke: #000000; stroke-width: 0.8"/>
      </g>
     </g>
     <g id="text_6">
      <!-- 50000 -->
      <g transform="translate(319.743646 177.030437)scale(0.1 -0.1)">
       <defs>
        <path id="DejaVuSans-35" d="M 691 4666 
L 3169 4666 
L 3169 4134 
L 1269 4134 
L 1269 2991 
Q 1406 3038 1543 3061 
Q 1681 3084 1819 3084 
Q 2600 3084 3056 2656 
Q 3513 2228 3513 1497 
Q 3513 744 3044 326 
Q 2575 -91 1722 -91 
Q 1428 -91 1123 -41 
Q 819 9 494 109 
L 494 744 
Q 775 591 1075 516 
Q 1375 441 1709 441 
Q 2250 441 2565 725 
Q 2881 1009 2881 1497 
Q 2881 1984 2565 2268 
Q 2250 2553 1709 2553 
Q 1456 2553 1204 2497 
Q 953 2441 691 2322 
L 691 4666 
z
" transform="scale(0.015625)"/>
       </defs>
       <use xlink:href="#DejaVuSans-35"/>
       <use xlink:href="#DejaVuSans-30" x="63.623047"/>
       <use xlink:href="#DejaVuSans-30" x="127.246094"/>
       <use xlink:href="#DejaVuSans-30" x="190.869141"/>
       <use xlink:href="#DejaVuSans-30" x="254.492188"/>
      </g>
     </g>
    </g>
    <g id="xtick_7">
     <g id="line2d_7">
      <g>
       <use xlink:href="#m168c41aeec" x="388.014377" y="162.432" style="stroke: #000000; stroke-width: 0.8"/>
      </g>
     </g>
     <g id="text_7">
      <!-- 60000 -->
      <g transform="translate(372.108127 177.030437)scale(0.1 -0.1)">
       <defs>
        <path id="DejaVuSans-36" d="M 2113 2584 
Q 1688 2584 1439 2293 
Q 1191 2003 1191 1497 
Q 1191 994 1439 701 
Q 1688 409 2113 409 
Q 2538 409 2786 701 
Q 3034 994 3034 1497 
Q 3034 2003 2786 2293 
Q 2538 2584 2113 2584 
z
M 3366 4563 
L 3366 3988 
Q 3128 4100 2886 4159 
Q 2644 4219 2406 4219 
Q 1781 4219 1451 3797 
Q 1122 3375 1075 2522 
Q 1259 2794 1537 2939 
Q 1816 3084 2150 3084 
Q 2853 3084 3261 2657 
Q 3669 2231 3669 1497 
Q 3669 778 3244 343 
Q 2819 -91 2113 -91 
Q 1303 -91 875 529 
Q 447 1150 447 2328 
Q 447 3434 972 4092 
Q 1497 4750 2381 4750 
Q 2619 4750 2861 4703 
Q 3103 4656 3366 4563 
z
" transform="scale(0.015625)"/>
       </defs>
       <use xlink:href="#DejaVuSans-36"/>
       <use xlink:href="#DejaVuSans-30" x="63.623047"/>
       <use xlink:href="#DejaVuSans-30" x="127.246094"/>
       <use xlink:href="#DejaVuSans-30" x="190.869141"/>
       <use xlink:href="#DejaVuSans-30" x="254.492188"/>
      </g>
     </g>
    </g>
   </g>
   <g id="matplotlib.axis_2">
    <g id="ytick_1">
     <g id="line2d_8">
      <defs>
       <path id="m7421e1aa4d" d="M 0 0 
L -3.5 0 
" style="stroke: #000000; stroke-width: 0.8"/>
      </defs>
      <g>
       <use xlink:href="#m7421e1aa4d" x="57.6" y="139.967671" style="stroke: #000000; stroke-width: 0.8"/>
      </g>
     </g>
     <g id="text_8">
      <!-- 80 -->
      <g transform="translate(37.875 143.76689)scale(0.1 -0.1)">
       <defs>
        <path id="DejaVuSans-38" d="M 2034 2216 
Q 1584 2216 1326 1975 
Q 1069 1734 1069 1313 
Q 1069 891 1326 650 
Q 1584 409 2034 409 
Q 2484 409 2743 651 
Q 3003 894 3003 1313 
Q 3003 1734 2745 1975 
Q 2488 2216 2034 2216 
z
M 1403 2484 
Q 997 2584 770 2862 
Q 544 3141 544 3541 
Q 544 4100 942 4425 
Q 1341 4750 2034 4750 
Q 2731 4750 3128 4425 
Q 3525 4100 3525 3541 
Q 3525 3141 3298 2862 
Q 3072 2584 2669 2484 
Q 3125 2378 3379 2068 
Q 3634 1759 3634 1313 
Q 3634 634 3220 271 
Q 2806 -91 2034 -91 
Q 1263 -91 848 271 
Q 434 634 434 1313 
Q 434 1759 690 2068 
Q 947 2378 1403 2484 
z
M 1172 3481 
Q 1172 3119 1398 2916 
Q 1625 2713 2034 2713 
Q 2441 2713 2670 2916 
Q 2900 3119 2900 3481 
Q 2900 3844 2670 4047 
Q 2441 4250 2034 4250 
Q 1625 4250 1398 4047 
Q 1172 3844 1172 3481 
z
" transform="scale(0.015625)"/>
       </defs>
       <use xlink:href="#DejaVuSans-38"/>
       <use xlink:href="#DejaVuSans-30" x="63.623047"/>
      </g>
     </g>
    </g>
    <g id="ytick_2">
     <g id="line2d_9">
      <g>
       <use xlink:href="#m7421e1aa4d" x="57.6" y="105.460254" style="stroke: #000000; stroke-width: 0.8"/>
      </g>
     </g>
     <g id="text_9">
      <!-- 90 -->
      <g transform="translate(37.875 109.259473)scale(0.1 -0.1)">
       <defs>
        <path id="DejaVuSans-39" d="M 703 97 
L 703 672 
Q 941 559 1184 500 
Q 1428 441 1663 441 
Q 2288 441 2617 861 
Q 2947 1281 2994 2138 
Q 2813 1869 2534 1725 
Q 2256 1581 1919 1581 
Q 1219 1581 811 2004 
Q 403 2428 403 3163 
Q 403 3881 828 4315 
Q 1253 4750 1959 4750 
Q 2769 4750 3195 4129 
Q 3622 3509 3622 2328 
Q 3622 1225 3098 567 
Q 2575 -91 1691 -91 
Q 1453 -91 1209 -44 
Q 966 3 703 97 
z
M 1959 2075 
Q 2384 2075 2632 2365 
Q 2881 2656 2881 3163 
Q 2881 3666 2632 3958 
Q 2384 4250 1959 4250 
Q 1534 4250 1286 3958 
Q 1038 3666 1038 3163 
Q 1038 2656 1286 2365 
Q 1534 2075 1959 2075 
z
" transform="scale(0.015625)"/>
       </defs>
       <use xlink:href="#DejaVuSans-39"/>
       <use xlink:href="#DejaVuSans-30" x="63.623047"/>
      </g>
     </g>
    </g>
    <g id="ytick_3">
     <g id="line2d_10">
      <g>
       <use xlink:href="#m7421e1aa4d" x="57.6" y="70.952837" style="stroke: #000000; stroke-width: 0.8"/>
      </g>
     </g>
     <g id="text_10">
      <!-- 100 -->
      <g transform="translate(31.5125 74.752056)scale(0.1 -0.1)">
       <use xlink:href="#DejaVuSans-31"/>
       <use xlink:href="#DejaVuSans-30" x="63.623047"/>
       <use xlink:href="#DejaVuSans-30" x="127.246094"/>
      </g>
     </g>
    </g>
   </g>
   <g id="line2d_11">
    <path d="M 73.832727 70.952837 
L 74.00553 62.210958 
L 74.235934 62.210958 
L 74.361609 59.622901 
L 74.513466 59.622901 
L 74.628667 58.472654 
L 74.675795 58.472654 
L 74.790997 56.747283 
L 76.32004 56.747283 
L 76.435242 55.597036 
L 77.849083 55.597036 
L 77.964285 54.446789 
L 82.15868 54.446789 
L 82.273882 52.721418 
L 88.201541 52.721418 
L 88.316743 51.571171 
L 104.827264 51.571171 
L 104.942465 50.420924 
L 116.897276 50.420924 
L 117.012478 48.695553 
L 248.436853 48.695553 
L 248.552054 46.970182 
L 398.487273 46.970182 
L 398.487273 46.970182 
" clip-path="url(#p124572e395)" style="fill: none; stroke: #1f77b4; stroke-width: 1.5; stroke-linecap: square"/>
   </g>
   <g id="line2d_12">
    <path d="M 73.832727 67.502095 
L 73.879855 72.678208 
L 73.947929 70.952837 
L 73.958402 70.952837 
L 74.047422 77.85432 
L 74.073604 76.704073 
L 74.152151 76.704073 
L 74.235934 73.253331 
L 74.262116 76.704073 
L 74.366845 76.704073 
L 74.429682 80.154815 
L 74.47681 76.704073 
L 74.508229 76.704073 
L 74.550121 83.605556 
L 74.623431 80.154815 
L 74.670559 80.154815 
L 74.675795 76.704073 
L 74.780524 80.154815 
L 74.785761 80.154815 
L 74.900963 83.605556 
L 74.953327 83.605556 
L 75.03711 80.154815 
L 75.063293 83.605556 
L 75.251805 83.605556 
L 75.367007 82.742871 
L 75.539809 82.742871 
L 75.660248 89.644355 
L 75.707376 89.644355 
L 75.791159 88.494107 
L 75.796395 91.944849 
L 75.806868 91.944849 
L 75.916834 91.944849 
L 76.032035 88.494107 
L 76.32004 88.494107 
L 76.435242 91.944849 
L 76.539971 91.944849 
L 76.655173 91.082164 
L 76.676119 91.082164 
L 76.681355 94.532905 
L 76.786084 91.082164 
L 77.362093 91.082164 
L 77.482532 97.983647 
L 77.849083 97.983647 
L 77.964285 101.434389 
L 77.985231 101.434389 
L 78.048068 104.88513 
L 78.095196 101.434389 
L 78.273235 101.434389 
L 78.388437 97.983647 
L 78.482693 97.983647 
L 78.597895 101.434389 
L 79.550929 101.434389 
L 79.66613 96.8334 
L 79.82846 96.8334 
L 79.943662 100.284141 
L 79.969844 100.284141 
L 80.085046 103.734883 
L 80.514435 103.734883 
L 80.629637 100.284141 
L 82.88131 100.284141 
L 82.996511 103.734883 
L 83.630122 103.734883 
L 83.651067 100.284141 
L 83.740087 103.734883 
L 84.216604 103.734883 
L 84.232313 102.872198 
L 84.23755 106.32294 
L 84.31086 106.32294 
L 88.201541 106.32294 
L 88.316743 109.773681 
L 91.950838 109.773681 
L 92.06604 113.224423 
L 92.783433 113.224423 
L 92.898635 109.773681 
L 96.338981 109.773681 
L 96.454183 106.32294 
L 102.952615 106.32294 
L 103.067817 109.773681 
L 105.010539 109.773681 
L 105.125741 113.224423 
L 122.788281 113.224423 
L 122.903482 116.675165 
L 129.26053 116.675165 
L 129.375732 113.224423 
L 163.554029 113.224423 
L 163.669231 109.773681 
L 192.516823 109.773681 
L 192.632025 113.224423 
L 202.795971 113.224423 
L 202.911173 116.675165 
L 221.945662 116.675165 
L 222.060864 113.224423 
L 238.079158 113.224423 
L 238.19436 116.675165 
L 250.212008 116.675165 
L 250.32721 120.125906 
L 257.160775 120.125906 
L 257.275977 116.675165 
L 314.787886 116.675165 
L 314.903088 120.125906 
L 325.019906 120.125906 
L 325.135108 116.675165 
L 342.797647 116.675165 
L 342.912849 120.125906 
L 392.502013 120.125906 
L 392.617214 116.675165 
L 398.487273 116.675165 
L 398.487273 116.675165 
" clip-path="url(#p124572e395)" style="fill: none; stroke: #ff7f0e; stroke-width: 1.5; stroke-linecap: square"/>
   </g>
   <g id="line2d_13">
    <path d="M 73.832727 70.952837 
L 73.900801 69.400003 
L 73.906038 72.850745 
L 73.937456 71.700498 
L 73.942693 71.700498 
L 73.947929 70.837812 
L 73.963638 77.739296 
L 74.031712 74.863677 
L 74.042185 74.863677 
L 74.16786 85.215903 
L 74.209752 85.215903 
L 74.235934 88.666644 
L 74.319717 87.803959 
L 74.351136 87.803959 
L 74.466337 91.254701 
L 74.544884 88.379083 
L 74.550121 91.829824 
L 74.56583 91.829824 
L 74.681032 95.280566 
L 75.026637 95.280566 
L 75.03711 93.555195 
L 75.042347 97.005937 
L 75.136603 95.280566 
L 75.251805 95.280566 
L 75.293696 94.417881 
L 75.298933 97.868622 
L 75.346061 97.868622 
L 75.560755 97.868622 
L 75.623593 96.143251 
L 75.628829 99.593993 
L 75.665484 99.593993 
L 75.707376 99.593993 
L 75.822578 98.443746 
L 76.32004 98.443746 
L 76.435242 97.293499 
L 76.539971 97.293499 
L 76.655173 96.430813 
L 77.246891 96.430813 
L 77.362093 95.280566 
L 77.477295 98.731308 
L 77.849083 98.731308 
L 77.953812 97.58106 
L 78.07425 104.482544 
L 78.482693 104.482544 
L 78.597895 107.933286 
L 79.624239 107.933286 
L 79.739441 106.783038 
L 79.781332 106.783038 
L 79.896534 105.057668 
L 80.195012 105.057668 
L 80.310214 108.508409 
L 82.15868 108.508409 
L 82.273882 106.783038 
L 82.88131 106.783038 
L 82.996511 110.23378 
L 83.651067 110.23378 
L 83.766269 113.684522 
L 84.216604 113.684522 
L 84.331806 112.821836 
L 88.201541 112.821836 
L 88.316743 111.671589 
L 91.950838 111.671589 
L 92.06604 115.122331 
L 104.308855 115.122331 
L 104.424057 113.39696 
L 104.827264 113.39696 
L 104.942465 112.246713 
L 117.185281 112.246713 
L 117.300483 115.697455 
L 117.583251 115.697455 
L 117.698453 113.972084 
L 121.322075 113.972084 
L 121.437277 117.422825 
L 122.788281 117.422825 
L 122.903482 120.873567 
L 132.103922 120.873567 
L 132.219124 119.148196 
L 202.795971 119.148196 
L 202.911173 117.422825 
L 238.079158 117.422825 
L 238.19436 120.873567 
L 248.436853 120.873567 
L 248.552054 119.148196 
L 250.212008 119.148196 
L 250.32721 122.598938 
L 314.787886 122.598938 
L 314.903088 120.873567 
L 317.940228 120.873567 
L 318.05543 124.324309 
L 342.797647 124.324309 
L 342.912849 127.775051 
L 398.487273 127.775051 
L 398.487273 127.775051 
" clip-path="url(#p124572e395)" style="fill: none; stroke: #2ca02c; stroke-width: 1.5; stroke-linecap: square"/>
   </g>
   <g id="line2d_14">
    <path d="M 73.832727 70.952837 
L 73.942693 70.952837 
L 74.07884 66.63941 
L 74.105023 66.63941 
L 74.225461 64.338915 
L 74.366845 64.338915 
L 74.466337 63.188668 
L 74.544884 68.939904 
L 74.581539 67.789657 
L 74.785761 67.789657 
L 74.900963 66.63941 
L 75.026637 66.63941 
L 75.141839 72.678208 
L 75.251805 72.678208 
L 75.367007 76.128949 
L 75.539809 76.128949 
L 75.560755 74.978702 
L 75.565992 78.429444 
L 75.639302 77.566758 
L 75.707376 77.566758 
L 75.791159 81.0175 
L 75.817341 79.867253 
L 76.32004 79.867253 
L 76.435242 83.317995 
L 76.539971 83.317995 
L 76.655173 86.768736 
L 76.676119 86.768736 
L 76.79132 85.618489 
L 77.362093 85.618489 
L 77.487768 82.455309 
L 77.985231 82.455309 
L 78.100432 81.592624 
L 78.482693 81.592624 
L 78.597895 80.729938 
L 79.624239 80.729938 
L 79.739441 84.18068 
L 79.781332 84.18068 
L 79.82846 87.631422 
L 79.891298 86.481175 
L 79.969844 86.481175 
L 80.085046 85.330927 
L 80.195012 85.330927 
L 80.310214 84.18068 
L 82.88131 84.18068 
L 82.996511 83.317995 
L 83.651067 83.317995 
L 83.766269 82.455309 
L 84.216604 82.455309 
L 84.232313 85.906051 
L 84.326569 84.755804 
L 102.952615 84.755804 
L 103.067817 83.605556 
L 104.308855 83.605556 
L 104.424057 87.056298 
L 105.010539 87.056298 
L 105.125741 85.906051 
L 117.583251 85.906051 
L 117.698453 89.356793 
L 121.322075 89.356793 
L 121.437277 88.494107 
L 122.788281 88.494107 
L 122.903482 87.631422 
L 132.103922 87.631422 
L 132.219124 91.082164 
L 192.516823 91.082164 
L 192.632025 89.931916 
L 238.079158 89.931916 
L 238.19436 89.069231 
L 398.487273 89.069231 
L 398.487273 89.069231 
" clip-path="url(#p124572e395)" style="fill: none; stroke: #d62728; stroke-width: 1.5; stroke-linecap: square"/>
   </g>
   <g id="line2d_15">
    <path d="M 73.832727 70.952837 
L 73.963638 68.249756 
L 74.235934 68.249756 
L 74.351136 67.38707 
L 75.251805 67.38707 
L 75.367007 66.524385 
L 76.539971 66.524385 
L 76.655173 65.6617 
L 77.246891 65.6617 
L 77.362093 64.511452 
L 84.216604 64.511452 
L 84.331806 63.648767 
L 398.487273 63.648767 
L 398.487273 63.648767 
" clip-path="url(#p124572e395)" style="fill: none; stroke: #9467bd; stroke-width: 1.5; stroke-linecap: square"/>
   </g>
   <g id="line2d_16">
    <path d="M 73.832727 70.952837 
L 73.953166 69.400003 
L 73.974111 69.400003 
L 74.042185 66.524385 
L 74.047422 69.975127 
L 74.07884 69.975127 
L 74.466337 69.975127 
L 74.544884 68.249756 
L 74.550121 71.700498 
L 74.571066 71.700498 
L 75.026637 71.700498 
L 75.147076 68.249756 
L 75.560755 68.249756 
L 75.675957 66.524385 
L 75.707376 66.524385 
L 75.822578 65.374138 
L 79.624239 65.374138 
L 79.739441 64.22389 
L 79.781332 64.22389 
L 79.896534 62.49852 
L 104.308855 62.49852 
L 104.424057 60.773149 
L 117.583251 60.773149 
L 117.698453 59.047778 
L 132.103922 59.047778 
L 132.219124 57.322407 
L 398.487273 57.322407 
L 398.487273 57.322407 
" clip-path="url(#p124572e395)" style="fill: none; stroke: #8c564b; stroke-width: 1.5; stroke-linecap: square"/>
   </g>
   <g id="line2d_17">
    <path d="M 73.832727 70.952837 
L 73.989821 64.799014 
L 74.16786 64.799014 
L 74.283062 60.485587 
L 75.251805 60.485587 
L 75.367007 59.622901 
L 76.539971 59.622901 
L 76.655173 58.760216 
L 77.246891 58.760216 
L 77.362093 57.609969 
L 77.849083 57.609969 
L 77.964285 56.459722 
L 84.216604 56.459722 
L 84.331806 55.597036 
L 202.795971 55.597036 
L 202.911173 53.871665 
L 314.787886 53.871665 
L 314.903088 52.146294 
L 398.487273 52.146294 
L 398.487273 52.146294 
" clip-path="url(#p124572e395)" style="fill: none; stroke: #e377c2; stroke-width: 1.5; stroke-linecap: square"/>
   </g>
   <g id="line2d_18">
    <path d="M 73.832727 70.952837 
L 73.958402 88.206545 
L 73.963638 87.34386 
L 74.105023 87.34386 
L 74.16786 85.043366 
L 74.173096 88.494107 
L 74.209752 88.494107 
L 74.235934 88.494107 
L 74.356372 95.395591 
L 74.513466 95.395591 
L 74.628667 98.846332 
L 74.974273 98.846332 
L 75.089475 97.120962 
L 75.251805 97.120962 
L 75.367007 100.571703 
L 76.539971 100.571703 
L 76.655173 104.022445 
L 77.246891 104.022445 
L 77.362093 107.473187 
L 77.849083 107.473187 
L 77.964285 110.923928 
L 84.216604 110.923928 
L 84.331806 114.37467 
L 91.950838 114.37467 
L 92.06604 113.511985 
L 116.897276 113.511985 
L 117.012478 116.962727 
L 202.795971 116.962727 
L 202.911173 120.413468 
L 250.212008 120.413468 
L 250.32721 119.550783 
L 314.787886 119.550783 
L 314.903088 123.001525 
L 342.797647 123.001525 
L 342.912849 122.138839 
L 398.487273 122.138839 
L 398.487273 122.138839 
" clip-path="url(#p124572e395)" style="fill: none; stroke: #7f7f7f; stroke-width: 1.5; stroke-linecap: square"/>
   </g>
   <g id="line2d_19">
    <path d="M 73.832727 70.952837 
L 73.900801 81.305062 
L 73.953166 79.292129 
L 73.958402 79.292129 
L 73.974111 78.429444 
L 74.00553 84.18068 
L 74.036949 84.18068 
L 74.042185 84.18068 
L 74.105023 80.154815 
L 74.125968 87.056298 
L 74.136441 87.056298 
L 74.209752 87.056298 
L 74.235934 85.906051 
L 74.24117 89.356793 
L 74.309244 89.356793 
L 74.366845 89.356793 
L 74.466337 88.206545 
L 74.544884 93.957782 
L 74.581539 91.657287 
L 74.785761 91.657287 
L 74.900963 90.50704 
L 74.974273 90.50704 
L 75.03711 97.408523 
L 75.089475 96.545838 
L 75.094711 96.545838 
L 75.209913 99.99658 
L 75.251805 99.99658 
L 75.293696 103.447321 
L 75.36177 101.721951 
L 75.539809 101.721951 
L 75.560755 100.571703 
L 75.565992 104.022445 
L 75.639302 103.15976 
L 75.707376 103.15976 
L 75.791159 106.610501 
L 75.817341 105.460254 
L 76.32004 105.460254 
L 76.435242 108.910996 
L 76.539971 108.910996 
L 76.655173 112.361738 
L 76.676119 112.361738 
L 76.79132 111.21149 
L 77.246891 111.21149 
L 77.362093 114.662232 
L 77.487768 111.499052 
L 77.849083 111.499052 
L 77.953812 114.949794 
L 77.959048 113.224423 
L 77.985231 113.224423 
L 78.100432 112.361738 
L 78.482693 112.361738 
L 78.597895 111.499052 
L 79.624239 111.499052 
L 79.739441 114.949794 
L 79.781332 114.949794 
L 79.82846 118.400536 
L 79.891298 117.250288 
L 79.969844 117.250288 
L 80.085046 116.100041 
L 80.195012 116.100041 
L 80.310214 114.949794 
L 82.15868 114.949794 
L 82.273882 118.400536 
L 82.88131 118.400536 
L 82.996511 117.53785 
L 83.651067 117.53785 
L 83.766269 116.675165 
L 84.216604 116.675165 
L 84.232313 120.125906 
L 84.326569 118.975659 
L 88.201541 118.975659 
L 88.316743 122.426401 
L 91.950838 122.426401 
L 92.06604 121.563715 
L 102.952615 121.563715 
L 103.067817 120.413468 
L 104.308855 120.413468 
L 104.424057 123.86421 
L 104.827264 123.86421 
L 104.942465 127.314952 
L 105.010539 127.314952 
L 105.125741 126.164704 
L 116.897276 126.164704 
L 117.012478 129.615446 
L 117.185281 129.615446 
L 117.300483 127.890075 
L 117.583251 127.890075 
L 117.698453 131.340817 
L 121.322075 131.340817 
L 121.437277 130.478132 
L 122.788281 130.478132 
L 122.903482 129.615446 
L 132.103922 129.615446 
L 132.219124 133.066188 
L 192.516823 133.066188 
L 192.632025 131.915941 
L 202.795971 131.915941 
L 202.911173 135.366682 
L 238.079158 135.366682 
L 238.19436 134.503997 
L 248.436853 134.503997 
L 248.552054 137.954739 
L 250.212008 137.954739 
L 250.32721 137.092053 
L 314.787886 137.092053 
L 314.903088 140.542795 
L 317.940228 140.542795 
L 318.05543 139.392548 
L 342.797647 139.392548 
L 342.912849 138.529862 
L 398.487273 138.529862 
L 398.487273 138.529862 
" clip-path="url(#p124572e395)" style="fill: none; stroke: #bcbd22; stroke-width: 1.5; stroke-linecap: square"/>
   </g>
   <g id="line2d_20">
    <path d="M 73.832727 70.952837 
L 73.942693 83.893118 
L 73.958402 81.880186 
L 74.084077 78.717006 
L 74.099786 78.717006 
L 74.225461 73.540893 
L 74.235934 73.540893 
L 74.356372 80.442377 
L 74.366845 80.442377 
L 74.482047 79.292129 
L 74.508229 79.292129 
L 74.513466 78.141882 
L 74.518702 81.592624 
L 74.612958 80.442377 
L 74.785761 80.442377 
L 74.900963 79.292129 
L 74.974273 79.292129 
L 75.089475 76.704073 
L 75.251805 76.704073 
L 75.293696 80.154815 
L 75.36177 78.429444 
L 75.539809 78.429444 
L 75.655011 76.416511 
L 75.791159 76.416511 
L 75.906361 75.266264 
L 76.32004 75.266264 
L 76.435242 78.717006 
L 76.539971 78.717006 
L 76.655173 82.167747 
L 76.676119 82.167747 
L 76.79132 81.0175 
L 77.246891 81.0175 
L 77.362093 84.468242 
L 77.487768 81.305062 
L 77.849083 81.305062 
L 77.953812 84.755804 
L 77.959048 83.030433 
L 77.985231 83.030433 
L 78.100432 82.167747 
L 78.482693 82.167747 
L 78.597895 81.305062 
L 79.82846 81.305062 
L 79.943662 80.154815 
L 79.969844 80.154815 
L 80.085046 79.004568 
L 80.195012 79.004568 
L 80.310214 77.85432 
L 82.15868 77.85432 
L 82.273882 81.305062 
L 82.88131 81.305062 
L 82.996511 80.442377 
L 83.651067 80.442377 
L 83.766269 79.579691 
L 84.216604 79.579691 
L 84.232313 83.030433 
L 84.326569 81.880186 
L 88.201541 81.880186 
L 88.316743 85.330927 
L 91.950838 85.330927 
L 92.06604 84.468242 
L 102.952615 84.468242 
L 103.067817 83.317995 
L 104.827264 83.317995 
L 104.942465 86.768736 
L 105.010539 86.768736 
L 105.125741 85.618489 
L 116.897276 85.618489 
L 117.012478 89.069231 
L 117.185281 89.069231 
L 117.300483 87.34386 
L 121.322075 87.34386 
L 121.437277 86.481175 
L 122.788281 86.481175 
L 122.903482 85.618489 
L 192.516823 85.618489 
L 192.632025 84.468242 
L 202.795971 84.468242 
L 202.911173 87.918984 
L 238.079158 87.918984 
L 238.19436 87.056298 
L 248.436853 87.056298 
L 248.552054 90.50704 
L 250.212008 90.50704 
L 250.32721 89.644355 
L 314.787886 89.644355 
L 314.903088 93.095096 
L 317.940228 93.095096 
L 318.05543 91.944849 
L 342.797647 91.944849 
L 342.912849 91.082164 
L 398.487273 91.082164 
L 398.487273 91.082164 
" clip-path="url(#p124572e395)" style="fill: none; stroke: #17becf; stroke-width: 1.5; stroke-linecap: square"/>
   </g>
   <g id="line2d_21">
    <path d="M 73.832727 70.952837 
L 73.953166 77.85432 
L 73.974111 77.85432 
L 74.042185 84.755804 
L 74.089313 83.605556 
L 74.466337 83.605556 
L 74.544884 87.056298 
L 74.576303 85.906051 
L 75.026637 85.906051 
L 75.147076 92.807534 
L 75.560755 92.807534 
L 75.675957 96.258276 
L 75.707376 96.258276 
L 75.822578 99.709018 
L 79.624239 99.709018 
L 79.739441 103.15976 
L 79.781332 103.15976 
L 79.896534 106.610501 
L 104.308855 106.610501 
L 104.424057 110.061243 
L 117.583251 110.061243 
L 117.698453 113.511985 
L 132.103922 113.511985 
L 132.219124 116.962727 
L 398.487273 116.962727 
L 398.487273 116.962727 
" clip-path="url(#p124572e395)" style="fill: none; stroke: #1f77b4; stroke-width: 1.5; stroke-linecap: square"/>
   </g>
   <g id="line2d_22">
    <path d="M 73.832727 74.403579 
L 73.8432 74.403579 
L 73.958402 85.618489 
L 73.968875 84.755804 
L 73.974111 84.755804 
L 74.09455 91.657287 
L 74.152151 91.657287 
L 74.209752 95.108029 
L 74.262116 93.957782 
L 74.351136 93.957782 
L 74.429682 92.232411 
L 74.434919 95.683153 
L 74.455865 95.683153 
L 74.513466 95.683153 
L 74.550121 94.532905 
L 74.555357 97.983647 
L 74.618194 96.8334 
L 74.670559 96.8334 
L 74.675795 100.284141 
L 74.780524 98.558771 
L 74.953327 98.558771 
L 75.03711 102.009512 
L 75.063293 101.146827 
L 75.251805 101.146827 
L 75.367007 104.597569 
L 75.623593 104.597569 
L 75.707376 103.734883 
L 75.712612 107.185625 
L 75.717849 107.185625 
L 75.916834 107.185625 
L 76.032035 110.636367 
L 76.32004 110.636367 
L 76.435242 109.486119 
L 76.539971 109.486119 
L 76.655173 112.936861 
L 76.681355 112.936861 
L 76.796557 116.387603 
L 77.362093 116.387603 
L 77.372566 115.524917 
L 77.377803 118.975659 
L 77.456349 118.975659 
L 77.985231 118.975659 
L 78.048068 118.112974 
L 78.053304 121.563715 
L 78.079487 121.563715 
L 78.273235 121.563715 
L 78.388437 125.014457 
L 78.482693 125.014457 
L 78.597895 124.151772 
L 79.550929 124.151772 
L 79.671367 131.053255 
L 80.514435 131.053255 
L 80.629637 134.503997 
L 82.88131 134.503997 
L 82.996511 133.641312 
L 83.630122 133.641312 
L 83.651067 137.092053 
L 83.740087 136.229368 
L 84.216604 136.229368 
L 84.331806 139.68011 
L 88.201541 139.68011 
L 88.316743 138.529862 
L 91.950838 138.529862 
L 92.06604 137.667177 
L 92.783433 137.667177 
L 92.898635 141.117919 
L 96.338981 141.117919 
L 96.454183 144.56866 
L 104.827264 144.56866 
L 104.942465 143.418413 
L 116.897276 143.418413 
L 117.012478 141.693042 
L 121.322075 141.693042 
L 121.437277 140.830357 
L 122.788281 140.830357 
L 122.903482 139.967671 
L 129.26053 139.967671 
L 129.375732 143.418413 
L 163.554029 143.418413 
L 163.669231 146.869155 
L 221.945662 146.869155 
L 222.060864 150.319897 
L 238.079158 150.319897 
L 238.19436 149.457211 
L 250.212008 149.457211 
L 250.32721 148.594526 
L 257.160775 148.594526 
L 257.275977 152.045267 
L 317.940228 152.045267 
L 318.05543 150.89502 
L 325.019906 150.89502 
L 325.135108 154.345762 
L 342.797647 154.345762 
L 342.912849 153.483076 
L 392.502013 153.483076 
L 392.617214 156.933818 
L 398.487273 156.933818 
L 398.487273 156.933818 
" clip-path="url(#p124572e395)" style="fill: none; stroke: #ff7f0e; stroke-width: 1.5; stroke-linecap: square"/>
   </g>
   <g id="patch_3">
    <path d="M 57.6 162.432 
L 57.6 41.472 
" style="fill: none; stroke: #000000; stroke-width: 0.8; stroke-linejoin: miter; stroke-linecap: square"/>
   </g>
   <g id="patch_4">
    <path d="M 414.72 162.432 
L 414.72 41.472 
" style="fill: none; stroke: #000000; stroke-width: 0.8; stroke-linejoin: miter; stroke-linecap: square"/>
   </g>
   <g id="patch_5">
    <path d="M 57.6 162.432 
L 414.72 162.432 
" style="fill: none; stroke: #000000; stroke-width: 0.8; stroke-linejoin: miter; stroke-linecap: square"/>
   </g>
   <g id="patch_6">
    <path d="M 57.6 41.472 
L 414.72 41.472 
" style="fill: none; stroke: #000000; stroke-width: 0.8; stroke-linejoin: miter; stroke-linecap: square"/>
   </g>
   <g id="text_11">
    <!-- WSP -->
    <g transform="translate(361.832136 46.970182)scale(0.08 -0.08)">
     <defs>
      <path id="DejaVuSans-57" d="M 213 4666 
L 850 4666 
L 1831 722 
L 2809 4666 
L 3519 4666 
L 4500 722 
L 5478 4666 
L 6119 4666 
L 4947 0 
L 4153 0 
L 3169 4050 
L 2175 0 
L 1381 0 
L 213 4666 
z
" transform="scale(0.015625)"/>
      <path id="DejaVuSans-53" d="M 3425 4513 
L 3425 3897 
Q 3066 4069 2747 4153 
Q 2428 4238 2131 4238 
Q 1616 4238 1336 4038 
Q 1056 3838 1056 3469 
Q 1056 3159 1242 3001 
Q 1428 2844 1947 2747 
L 2328 2669 
Q 3034 2534 3370 2195 
Q 3706 1856 3706 1288 
Q 3706 609 3251 259 
Q 2797 -91 1919 -91 
Q 1588 -91 1214 -16 
Q 841 59 441 206 
L 441 856 
Q 825 641 1194 531 
Q 1563 422 1919 422 
Q 2459 422 2753 634 
Q 3047 847 3047 1241 
Q 3047 1584 2836 1778 
Q 2625 1972 2144 2069 
L 1759 2144 
Q 1053 2284 737 2584 
Q 422 2884 422 3419 
Q 422 4038 858 4394 
Q 1294 4750 2059 4750 
Q 2388 4750 2728 4690 
Q 3069 4631 3425 4513 
z
" transform="scale(0.015625)"/>
      <path id="DejaVuSans-50" d="M 1259 4147 
L 1259 2394 
L 2053 2394 
Q 2494 2394 2734 2622 
Q 2975 2850 2975 3272 
Q 2975 3691 2734 3919 
Q 2494 4147 2053 4147 
L 1259 4147 
z
M 628 4666 
L 2053 4666 
Q 2838 4666 3239 4311 
Q 3641 3956 3641 3272 
Q 3641 2581 3239 2228 
Q 2838 1875 2053 1875 
L 1259 1875 
L 1259 0 
L 628 0 
L 628 4666 
z
" transform="scale(0.015625)"/>
     </defs>
     <use xlink:href="#DejaVuSans-57"/>
     <use xlink:href="#DejaVuSans-53" x="98.876953"/>
     <use xlink:href="#DejaVuSans-50" x="162.353516"/>
    </g>
   </g>
   <g id="text_12">
    <!-- Iambic -->
    <g transform="translate(361.832136 116.675165)scale(0.08 -0.08)">
     <defs>
      <path id="DejaVuSans-49" d="M 628 4666 
L 1259 4666 
L 1259 0 
L 628 0 
L 628 4666 
z
" transform="scale(0.015625)"/>
      <path id="DejaVuSans-61" d="M 2194 1759 
Q 1497 1759 1228 1600 
Q 959 1441 959 1056 
Q 959 750 1161 570 
Q 1363 391 1709 391 
Q 2188 391 2477 730 
Q 2766 1069 2766 1631 
L 2766 1759 
L 2194 1759 
z
M 3341 1997 
L 3341 0 
L 2766 0 
L 2766 531 
Q 2569 213 2275 61 
Q 1981 -91 1556 -91 
Q 1019 -91 701 211 
Q 384 513 384 1019 
Q 384 1609 779 1909 
Q 1175 2209 1959 2209 
L 2766 2209 
L 2766 2266 
Q 2766 2663 2505 2880 
Q 2244 3097 1772 3097 
Q 1472 3097 1187 3025 
Q 903 2953 641 2809 
L 641 3341 
Q 956 3463 1253 3523 
Q 1550 3584 1831 3584 
Q 2591 3584 2966 3190 
Q 3341 2797 3341 1997 
z
" transform="scale(0.015625)"/>
      <path id="DejaVuSans-6d" d="M 3328 2828 
Q 3544 3216 3844 3400 
Q 4144 3584 4550 3584 
Q 5097 3584 5394 3201 
Q 5691 2819 5691 2113 
L 5691 0 
L 5113 0 
L 5113 2094 
Q 5113 2597 4934 2840 
Q 4756 3084 4391 3084 
Q 3944 3084 3684 2787 
Q 3425 2491 3425 1978 
L 3425 0 
L 2847 0 
L 2847 2094 
Q 2847 2600 2669 2842 
Q 2491 3084 2119 3084 
Q 1678 3084 1418 2786 
Q 1159 2488 1159 1978 
L 1159 0 
L 581 0 
L 581 3500 
L 1159 3500 
L 1159 2956 
Q 1356 3278 1631 3431 
Q 1906 3584 2284 3584 
Q 2666 3584 2933 3390 
Q 3200 3197 3328 2828 
z
" transform="scale(0.015625)"/>
      <path id="DejaVuSans-62" d="M 3116 1747 
Q 3116 2381 2855 2742 
Q 2594 3103 2138 3103 
Q 1681 3103 1420 2742 
Q 1159 2381 1159 1747 
Q 1159 1113 1420 752 
Q 1681 391 2138 391 
Q 2594 391 2855 752 
Q 3116 1113 3116 1747 
z
M 1159 2969 
Q 1341 3281 1617 3432 
Q 1894 3584 2278 3584 
Q 2916 3584 3314 3078 
Q 3713 2572 3713 1747 
Q 3713 922 3314 415 
Q 2916 -91 2278 -91 
Q 1894 -91 1617 61 
Q 1341 213 1159 525 
L 1159 0 
L 581 0 
L 581 4863 
L 1159 4863 
L 1159 2969 
z
" transform="scale(0.015625)"/>
      <path id="DejaVuSans-69" d="M 603 3500 
L 1178 3500 
L 1178 0 
L 603 0 
L 603 3500 
z
M 603 4863 
L 1178 4863 
L 1178 4134 
L 603 4134 
L 603 4863 
z
" transform="scale(0.015625)"/>
      <path id="DejaVuSans-63" d="M 3122 3366 
L 3122 2828 
Q 2878 2963 2633 3030 
Q 2388 3097 2138 3097 
Q 1578 3097 1268 2742 
Q 959 2388 959 1747 
Q 959 1106 1268 751 
Q 1578 397 2138 397 
Q 2388 397 2633 464 
Q 2878 531 3122 666 
L 3122 134 
Q 2881 22 2623 -34 
Q 2366 -91 2075 -91 
Q 1284 -91 818 406 
Q 353 903 353 1747 
Q 353 2603 823 3093 
Q 1294 3584 2113 3584 
Q 2378 3584 2631 3529 
Q 2884 3475 3122 3366 
z
" transform="scale(0.015625)"/>
     </defs>
     <use xlink:href="#DejaVuSans-49"/>
     <use xlink:href="#DejaVuSans-61" x="29.492188"/>
     <use xlink:href="#DejaVuSans-6d" x="90.771484"/>
     <use xlink:href="#DejaVuSans-62" x="188.183594"/>
     <use xlink:href="#DejaVuSans-69" x="251.660156"/>
     <use xlink:href="#DejaVuSans-63" x="279.443359"/>
    </g>
   </g>
   <g id="text_13">
    <!-- Parse -->
    <g transform="translate(361.832136 127.775051)scale(0.08 -0.08)">
     <defs>
      <path id="DejaVuSans-72" d="M 2631 2963 
Q 2534 3019 2420 3045 
Q 2306 3072 2169 3072 
Q 1681 3072 1420 2755 
Q 1159 2438 1159 1844 
L 1159 0 
L 581 0 
L 581 3500 
L 1159 3500 
L 1159 2956 
Q 1341 3275 1631 3429 
Q 1922 3584 2338 3584 
Q 2397 3584 2469 3576 
Q 2541 3569 2628 3553 
L 2631 2963 
z
" transform="scale(0.015625)"/>
      <path id="DejaVuSans-73" d="M 2834 3397 
L 2834 2853 
Q 2591 2978 2328 3040 
Q 2066 3103 1784 3103 
Q 1356 3103 1142 2972 
Q 928 2841 928 2578 
Q 928 2378 1081 2264 
Q 1234 2150 1697 2047 
L 1894 2003 
Q 2506 1872 2764 1633 
Q 3022 1394 3022 966 
Q 3022 478 2636 193 
Q 2250 -91 1575 -91 
Q 1294 -91 989 -36 
Q 684 19 347 128 
L 347 722 
Q 666 556 975 473 
Q 1284 391 1588 391 
Q 1994 391 2212 530 
Q 2431 669 2431 922 
Q 2431 1156 2273 1281 
Q 2116 1406 1581 1522 
L 1381 1569 
Q 847 1681 609 1914 
Q 372 2147 372 2553 
Q 372 3047 722 3315 
Q 1072 3584 1716 3584 
Q 2034 3584 2315 3537 
Q 2597 3491 2834 3397 
z
" transform="scale(0.015625)"/>
      <path id="DejaVuSans-65" d="M 3597 1894 
L 3597 1613 
L 953 1613 
Q 991 1019 1311 708 
Q 1631 397 2203 397 
Q 2534 397 2845 478 
Q 3156 559 3463 722 
L 3463 178 
Q 3153 47 2828 -22 
Q 2503 -91 2169 -91 
Q 1331 -91 842 396 
Q 353 884 353 1716 
Q 353 2575 817 3079 
Q 1281 3584 2069 3584 
Q 2775 3584 3186 3129 
Q 3597 2675 3597 1894 
z
M 3022 2063 
Q 3016 2534 2758 2815 
Q 2500 3097 2075 3097 
Q 1594 3097 1305 2825 
Q 1016 2553 972 2059 
L 3022 2063 
z
" transform="scale(0.015625)"/>
     </defs>
     <use xlink:href="#DejaVuSans-50"/>
     <use xlink:href="#DejaVuSans-61" x="55.802734"/>
     <use xlink:href="#DejaVuSans-72" x="117.082031"/>
     <use xlink:href="#DejaVuSans-73" x="158.195312"/>
     <use xlink:href="#DejaVuSans-65" x="210.294922"/>
    </g>
   </g>
   <g id="text_14">
    <!-- FootBin -->
    <g transform="translate(361.832136 89.069231)scale(0.08 -0.08)">
     <defs>
      <path id="DejaVuSans-46" d="M 628 4666 
L 3309 4666 
L 3309 4134 
L 1259 4134 
L 1259 2759 
L 3109 2759 
L 3109 2228 
L 1259 2228 
L 1259 0 
L 628 0 
L 628 4666 
z
" transform="scale(0.015625)"/>
      <path id="DejaVuSans-6f" d="M 1959 3097 
Q 1497 3097 1228 2736 
Q 959 2375 959 1747 
Q 959 1119 1226 758 
Q 1494 397 1959 397 
Q 2419 397 2687 759 
Q 2956 1122 2956 1747 
Q 2956 2369 2687 2733 
Q 2419 3097 1959 3097 
z
M 1959 3584 
Q 2709 3584 3137 3096 
Q 3566 2609 3566 1747 
Q 3566 888 3137 398 
Q 2709 -91 1959 -91 
Q 1206 -91 779 398 
Q 353 888 353 1747 
Q 353 2609 779 3096 
Q 1206 3584 1959 3584 
z
" transform="scale(0.015625)"/>
      <path id="DejaVuSans-74" d="M 1172 4494 
L 1172 3500 
L 2356 3500 
L 2356 3053 
L 1172 3053 
L 1172 1153 
Q 1172 725 1289 603 
Q 1406 481 1766 481 
L 2356 481 
L 2356 0 
L 1766 0 
Q 1100 0 847 248 
Q 594 497 594 1153 
L 594 3053 
L 172 3053 
L 172 3500 
L 594 3500 
L 594 4494 
L 1172 4494 
z
" transform="scale(0.015625)"/>
      <path id="DejaVuSans-42" d="M 1259 2228 
L 1259 519 
L 2272 519 
Q 2781 519 3026 730 
Q 3272 941 3272 1375 
Q 3272 1813 3026 2020 
Q 2781 2228 2272 2228 
L 1259 2228 
z
M 1259 4147 
L 1259 2741 
L 2194 2741 
Q 2656 2741 2882 2914 
Q 3109 3088 3109 3444 
Q 3109 3797 2882 3972 
Q 2656 4147 2194 4147 
L 1259 4147 
z
M 628 4666 
L 2241 4666 
Q 2963 4666 3353 4366 
Q 3744 4066 3744 3513 
Q 3744 3084 3544 2831 
Q 3344 2578 2956 2516 
Q 3422 2416 3680 2098 
Q 3938 1781 3938 1306 
Q 3938 681 3513 340 
Q 3088 0 2303 0 
L 628 0 
L 628 4666 
z
" transform="scale(0.015625)"/>
      <path id="DejaVuSans-6e" d="M 3513 2113 
L 3513 0 
L 2938 0 
L 2938 2094 
Q 2938 2591 2744 2837 
Q 2550 3084 2163 3084 
Q 1697 3084 1428 2787 
Q 1159 2491 1159 1978 
L 1159 0 
L 581 0 
L 581 3500 
L 1159 3500 
L 1159 2956 
Q 1366 3272 1645 3428 
Q 1925 3584 2291 3584 
Q 2894 3584 3203 3211 
Q 3513 2838 3513 2113 
z
" transform="scale(0.015625)"/>
     </defs>
     <use xlink:href="#DejaVuSans-46"/>
     <use xlink:href="#DejaVuSans-6f" x="53.894531"/>
     <use xlink:href="#DejaVuSans-6f" x="115.076172"/>
     <use xlink:href="#DejaVuSans-74" x="176.257812"/>
     <use xlink:href="#DejaVuSans-42" x="215.466797"/>
     <use xlink:href="#DejaVuSans-69" x="284.070312"/>
     <use xlink:href="#DejaVuSans-6e" x="311.853516"/>
    </g>
   </g>
   <g id="text_15">
    <!-- WFL -->
    <g transform="translate(361.832136 63.648767)scale(0.08 -0.08)">
     <defs>
      <path id="DejaVuSans-4c" d="M 628 4666 
L 1259 4666 
L 1259 531 
L 3531 531 
L 3531 0 
L 628 0 
L 628 4666 
z
" transform="scale(0.015625)"/>
     </defs>
     <use xlink:href="#DejaVuSans-57"/>
     <use xlink:href="#DejaVuSans-46" x="98.876953"/>
     <use xlink:href="#DejaVuSans-4c" x="156.396484"/>
    </g>
   </g>
   <g id="text_16">
    <!-- WFR -->
    <g transform="translate(361.832136 57.322407)scale(0.08 -0.08)">
     <defs>
      <path id="DejaVuSans-52" d="M 2841 2188 
Q 3044 2119 3236 1894 
Q 3428 1669 3622 1275 
L 4263 0 
L 3584 0 
L 2988 1197 
Q 2756 1666 2539 1819 
Q 2322 1972 1947 1972 
L 1259 1972 
L 1259 0 
L 628 0 
L 628 4666 
L 2053 4666 
Q 2853 4666 3247 4331 
Q 3641 3997 3641 3322 
Q 3641 2881 3436 2590 
Q 3231 2300 2841 2188 
z
M 1259 4147 
L 1259 2491 
L 2053 2491 
Q 2509 2491 2742 2702 
Q 2975 2913 2975 3322 
Q 2975 3731 2742 3939 
Q 2509 4147 2053 4147 
L 1259 4147 
z
" transform="scale(0.015625)"/>
     </defs>
     <use xlink:href="#DejaVuSans-57"/>
     <use xlink:href="#DejaVuSans-46" x="98.876953"/>
     <use xlink:href="#DejaVuSans-52" x="156.396484"/>
    </g>
   </g>
   <g id="text_17">
    <!-- Main-L -->
    <g transform="translate(361.832136 52.146294)scale(0.08 -0.08)">
     <defs>
      <path id="DejaVuSans-4d" d="M 628 4666 
L 1569 4666 
L 2759 1491 
L 3956 4666 
L 4897 4666 
L 4897 0 
L 4281 0 
L 4281 4097 
L 3078 897 
L 2444 897 
L 1241 4097 
L 1241 0 
L 628 0 
L 628 4666 
z
" transform="scale(0.015625)"/>
      <path id="DejaVuSans-2d" d="M 313 2009 
L 1997 2009 
L 1997 1497 
L 313 1497 
L 313 2009 
z
" transform="scale(0.015625)"/>
     </defs>
     <use xlink:href="#DejaVuSans-4d"/>
     <use xlink:href="#DejaVuSans-61" x="86.279297"/>
     <use xlink:href="#DejaVuSans-69" x="147.558594"/>
     <use xlink:href="#DejaVuSans-6e" x="175.341797"/>
     <use xlink:href="#DejaVuSans-2d" x="238.720703"/>
     <use xlink:href="#DejaVuSans-4c" x="274.804688"/>
    </g>
   </g>
   <g id="text_18">
    <!-- Main-R -->
    <g transform="translate(361.832136 122.138839)scale(0.08 -0.08)">
     <use xlink:href="#DejaVuSans-4d"/>
     <use xlink:href="#DejaVuSans-61" x="86.279297"/>
     <use xlink:href="#DejaVuSans-69" x="147.558594"/>
     <use xlink:href="#DejaVuSans-6e" x="175.341797"/>
     <use xlink:href="#DejaVuSans-2d" x="238.720703"/>
     <use xlink:href="#DejaVuSans-52" x="274.804688"/>
    </g>
   </g>
   <g id="text_19">
    <!-- AFL -->
    <g transform="translate(361.832136 138.529862)scale(0.08 -0.08)">
     <defs>
      <path id="DejaVuSans-41" d="M 2188 4044 
L 1331 1722 
L 3047 1722 
L 2188 4044 
z
M 1831 4666 
L 2547 4666 
L 4325 0 
L 3669 0 
L 3244 1197 
L 1141 1197 
L 716 0 
L 50 0 
L 1831 4666 
z
" transform="scale(0.015625)"/>
     </defs>
     <use xlink:href="#DejaVuSans-41"/>
     <use xlink:href="#DejaVuSans-46" x="68.408203"/>
     <use xlink:href="#DejaVuSans-4c" x="125.927734"/>
    </g>
   </g>
   <g id="text_20">
    <!-- AFR -->
    <g transform="translate(361.832136 91.082164)scale(0.08 -0.08)">
     <use xlink:href="#DejaVuSans-41"/>
     <use xlink:href="#DejaVuSans-46" x="68.408203"/>
     <use xlink:href="#DejaVuSans-52" x="125.927734"/>
    </g>
   </g>
   <g id="text_21">
    <!-- Nonfinal -->
    <g transform="translate(361.832136 116.962727)scale(0.08 -0.08)">
     <defs>
      <path id="DejaVuSans-4e" d="M 628 4666 
L 1478 4666 
L 3547 763 
L 3547 4666 
L 4159 4666 
L 4159 0 
L 3309 0 
L 1241 3903 
L 1241 0 
L 628 0 
L 628 4666 
z
" transform="scale(0.015625)"/>
      <path id="DejaVuSans-66" d="M 2375 4863 
L 2375 4384 
L 1825 4384 
Q 1516 4384 1395 4259 
Q 1275 4134 1275 3809 
L 1275 3500 
L 2222 3500 
L 2222 3053 
L 1275 3053 
L 1275 0 
L 697 0 
L 697 3053 
L 147 3053 
L 147 3500 
L 697 3500 
L 697 3744 
Q 697 4328 969 4595 
Q 1241 4863 1831 4863 
L 2375 4863 
z
" transform="scale(0.015625)"/>
      <path id="DejaVuSans-6c" d="M 603 4863 
L 1178 4863 
L 1178 0 
L 603 0 
L 603 4863 
z
" transform="scale(0.015625)"/>
     </defs>
     <use xlink:href="#DejaVuSans-4e"/>
     <use xlink:href="#DejaVuSans-6f" x="74.804688"/>
     <use xlink:href="#DejaVuSans-6e" x="135.986328"/>
     <use xlink:href="#DejaVuSans-66" x="199.365234"/>
     <use xlink:href="#DejaVuSans-69" x="234.570312"/>
     <use xlink:href="#DejaVuSans-6e" x="262.353516"/>
     <use xlink:href="#DejaVuSans-61" x="325.732422"/>
     <use xlink:href="#DejaVuSans-6c" x="387.011719"/>
    </g>
   </g>
   <g id="text_22">
    <!-- Trochaic -->
    <g transform="translate(361.832136 156.933818)scale(0.08 -0.08)">
     <defs>
      <path id="DejaVuSans-54" d="M -19 4666 
L 3928 4666 
L 3928 4134 
L 2272 4134 
L 2272 0 
L 1638 0 
L 1638 4134 
L -19 4134 
L -19 4666 
z
" transform="scale(0.015625)"/>
      <path id="DejaVuSans-68" d="M 3513 2113 
L 3513 0 
L 2938 0 
L 2938 2094 
Q 2938 2591 2744 2837 
Q 2550 3084 2163 3084 
Q 1697 3084 1428 2787 
Q 1159 2491 1159 1978 
L 1159 0 
L 581 0 
L 581 4863 
L 1159 4863 
L 1159 2956 
Q 1366 3272 1645 3428 
Q 1925 3584 2291 3584 
Q 2894 3584 3203 3211 
Q 3513 2838 3513 2113 
z
" transform="scale(0.015625)"/>
     </defs>
     <use xlink:href="#DejaVuSans-54"/>
     <use xlink:href="#DejaVuSans-72" x="46.333984"/>
     <use xlink:href="#DejaVuSans-6f" x="85.197266"/>
     <use xlink:href="#DejaVuSans-63" x="146.378906"/>
     <use xlink:href="#DejaVuSans-68" x="201.359375"/>
     <use xlink:href="#DejaVuSans-61" x="264.738281"/>
     <use xlink:href="#DejaVuSans-69" x="326.017578"/>
     <use xlink:href="#DejaVuSans-63" x="353.800781"/>
    </g>
   </g>
  </g>
  <g id="axes_2">
   <g id="patch_7">
    <path d="M 57.6 307.584 
L 414.72 307.584 
L 414.72 186.624 
L 57.6 186.624 
z
" style="fill: #ffffff"/>
   </g>
   <g id="matplotlib.axis_3">
    <g id="xtick_8">
     <g id="line2d_23">
      <g>
       <use xlink:href="#m168c41aeec" x="70.711049" y="307.584" style="stroke: #000000; stroke-width: 0.8"/>
      </g>
     </g>
     <g id="text_23">
      <!-- 0 -->
      <g transform="translate(67.529799 322.182437)scale(0.1 -0.1)">
       <use xlink:href="#DejaVuSans-30"/>
      </g>
     </g>
    </g>
    <g id="xtick_9">
     <g id="line2d_24">
      <g>
       <use xlink:href="#m168c41aeec" x="133.144615" y="307.584" style="stroke: #000000; stroke-width: 0.8"/>
      </g>
     </g>
     <g id="text_24">
      <!-- 20 -->
      <g transform="translate(126.782115 322.182437)scale(0.1 -0.1)">
       <use xlink:href="#DejaVuSans-32"/>
       <use xlink:href="#DejaVuSans-30" x="63.623047"/>
      </g>
     </g>
    </g>
    <g id="xtick_10">
     <g id="line2d_25">
      <g>
       <use xlink:href="#m168c41aeec" x="195.578182" y="307.584" style="stroke: #000000; stroke-width: 0.8"/>
      </g>
     </g>
     <g id="text_25">
      <!-- 40 -->
      <g transform="translate(189.215682 322.182437)scale(0.1 -0.1)">
       <use xlink:href="#DejaVuSans-34"/>
       <use xlink:href="#DejaVuSans-30" x="63.623047"/>
      </g>
     </g>
    </g>
    <g id="xtick_11">
     <g id="line2d_26">
      <g>
       <use xlink:href="#m168c41aeec" x="258.011748" y="307.584" style="stroke: #000000; stroke-width: 0.8"/>
      </g>
     </g>
     <g id="text_26">
      <!-- 60 -->
      <g transform="translate(251.649248 322.182437)scale(0.1 -0.1)">
       <use xlink:href="#DejaVuSans-36"/>
       <use xlink:href="#DejaVuSans-30" x="63.623047"/>
      </g>
     </g>
    </g>
    <g id="xtick_12">
     <g id="line2d_27">
      <g>
       <use xlink:href="#m168c41aeec" x="320.445315" y="307.584" style="stroke: #000000; stroke-width: 0.8"/>
      </g>
     </g>
     <g id="text_27">
      <!-- 80 -->
      <g transform="translate(314.082815 322.182437)scale(0.1 -0.1)">
       <use xlink:href="#DejaVuSans-38"/>
       <use xlink:href="#DejaVuSans-30" x="63.623047"/>
      </g>
     </g>
    </g>
    <g id="xtick_13">
     <g id="line2d_28">
      <g>
       <use xlink:href="#m168c41aeec" x="382.878881" y="307.584" style="stroke: #000000; stroke-width: 0.8"/>
      </g>
     </g>
     <g id="text_28">
      <!-- 100 -->
      <g transform="translate(373.335131 322.182437)scale(0.1 -0.1)">
       <use xlink:href="#DejaVuSans-31"/>
       <use xlink:href="#DejaVuSans-30" x="63.623047"/>
       <use xlink:href="#DejaVuSans-30" x="127.246094"/>
      </g>
     </g>
    </g>
   </g>
   <g id="matplotlib.axis_4">
    <g id="ytick_4">
     <g id="line2d_29">
      <g>
       <use xlink:href="#m7421e1aa4d" x="57.6" y="302.095811" style="stroke: #000000; stroke-width: 0.8"/>
      </g>
     </g>
     <g id="text_29">
      <!-- 0 -->
      <g transform="translate(44.2375 305.89503)scale(0.1 -0.1)">
       <use xlink:href="#DejaVuSans-30"/>
      </g>
     </g>
    </g>
    <g id="ytick_5">
     <g id="line2d_30">
      <g>
       <use xlink:href="#m7421e1aa4d" x="57.6" y="277.11316" style="stroke: #000000; stroke-width: 0.8"/>
      </g>
     </g>
     <g id="text_30">
      <!-- 2500 -->
      <g transform="translate(25.15 280.912379)scale(0.1 -0.1)">
       <use xlink:href="#DejaVuSans-32"/>
       <use xlink:href="#DejaVuSans-35" x="63.623047"/>
       <use xlink:href="#DejaVuSans-30" x="127.246094"/>
       <use xlink:href="#DejaVuSans-30" x="190.869141"/>
      </g>
     </g>
    </g>
    <g id="ytick_6">
     <g id="line2d_31">
      <g>
       <use xlink:href="#m7421e1aa4d" x="57.6" y="252.130509" style="stroke: #000000; stroke-width: 0.8"/>
      </g>
     </g>
     <g id="text_31">
      <!-- 5000 -->
      <g transform="translate(25.15 255.929728)scale(0.1 -0.1)">
       <use xlink:href="#DejaVuSans-35"/>
       <use xlink:href="#DejaVuSans-30" x="63.623047"/>
       <use xlink:href="#DejaVuSans-30" x="127.246094"/>
       <use xlink:href="#DejaVuSans-30" x="190.869141"/>
      </g>
     </g>
    </g>
    <g id="ytick_7">
     <g id="line2d_32">
      <g>
       <use xlink:href="#m7421e1aa4d" x="57.6" y="227.147858" style="stroke: #000000; stroke-width: 0.8"/>
      </g>
     </g>
     <g id="text_32">
      <!-- 7500 -->
      <g transform="translate(25.15 230.947077)scale(0.1 -0.1)">
       <defs>
        <path id="DejaVuSans-37" d="M 525 4666 
L 3525 4666 
L 3525 4397 
L 1831 0 
L 1172 0 
L 2766 4134 
L 525 4134 
L 525 4666 
z
" transform="scale(0.015625)"/>
       </defs>
       <use xlink:href="#DejaVuSans-37"/>
       <use xlink:href="#DejaVuSans-35" x="63.623047"/>
       <use xlink:href="#DejaVuSans-30" x="127.246094"/>
       <use xlink:href="#DejaVuSans-30" x="190.869141"/>
      </g>
     </g>
    </g>
    <g id="ytick_8">
     <g id="line2d_33">
      <g>
       <use xlink:href="#m7421e1aa4d" x="57.6" y="202.165207" style="stroke: #000000; stroke-width: 0.8"/>
      </g>
     </g>
     <g id="text_33">
      <!-- 10000 -->
      <g transform="translate(18.7875 205.964426)scale(0.1 -0.1)">
       <use xlink:href="#DejaVuSans-31"/>
       <use xlink:href="#DejaVuSans-30" x="63.623047"/>
       <use xlink:href="#DejaVuSans-30" x="127.246094"/>
       <use xlink:href="#DejaVuSans-30" x="190.869141"/>
       <use xlink:href="#DejaVuSans-30" x="254.492188"/>
      </g>
     </g>
    </g>
   </g>
   <g id="line2d_34">
    <path d="M 73.832727 302.085818 
L 76.954406 302.085818 
L 80.076084 302.085818 
L 83.197762 302.055839 
L 86.319441 302.085818 
L 89.441119 302.075825 
L 92.562797 302.085818 
L 95.684476 302.065832 
L 98.806154 302.065832 
L 101.927832 302.045846 
L 105.04951 302.085818 
L 108.171189 302.075825 
L 111.292867 302.065832 
L 114.414545 302.085818 
L 117.536224 302.055839 
L 120.657902 302.015867 
L 123.77958 302.085818 
L 126.901259 301.995881 
L 130.022937 302.085818 
L 133.144615 302.065832 
L 136.266294 302.035853 
L 139.387972 302.065832 
L 142.50965 302.015867 
L 145.631329 302.045846 
L 148.753007 301.875964 
L 151.874685 302.065832 
L 154.996364 301.975895 
L 158.118042 302.02586 
L 161.23972 302.015867 
L 164.361399 302.085818 
L 167.483077 302.035853 
L 170.604755 302.085818 
L 173.726434 302.065832 
L 176.848112 301.89595 
L 179.96979 302.085818 
L 183.091469 301.885957 
L 186.213147 301.776033 
L 189.334825 302.055839 
L 192.456503 301.995881 
L 195.578182 302.075825 
L 198.69986 301.985888 
L 201.821538 301.796019 
L 204.943217 302.015867 
L 208.064895 301.626137 
L 211.186573 302.055839 
L 214.308252 301.975895 
L 217.42993 301.935922 
L 220.551608 301.935922 
L 223.673287 301.855978 
L 226.794965 301.326346 
L 229.916643 301.676103 
L 233.038322 301.835992 
L 236.16 302.085818 
L 239.281678 301.016561 
L 242.403357 301.875964 
L 245.525035 302.075825 
L 248.646713 301.955908 
L 251.768392 302.085818 
L 254.89007 301.336339 
L 258.011748 301.89595 
L 261.133427 302.035853 
L 264.255105 301.975895 
L 267.376783 301.66611 
L 270.498462 301.696089 
L 273.62014 300.057227 
L 276.741818 301.955908 
L 279.863497 301.796019 
L 282.985175 302.005874 
L 286.106853 301.825999 
L 289.228531 301.66611 
L 292.35021 301.486235 
L 295.471888 298.95799 
L 298.593566 300.716769 
L 301.715245 300.666804 
L 304.836923 302.055839 
L 307.958601 301.016561 
L 311.08028 302.065832 
L 314.201958 294.521071 
L 317.323636 294.94078 
L 320.445315 300.506915 
L 323.566993 295.310523 
L 326.688671 289.474576 
L 329.81035 299.507609 
L 332.932028 301.106498 
L 336.053706 301.746054 
L 339.175385 279.411564 
L 342.297063 301.546193 
L 345.418741 301.336339 
L 348.54042 294.960766 
L 351.662098 299.297754 
L 354.783776 289.744389 
L 357.905455 296.669579 
L 361.027133 242.077491 
L 364.148811 246.824194 
L 367.27049 282.479434 
L 370.392168 265.551189 
L 373.513846 271.307192 
L 376.635524 282.329538 
L 379.757203 298.708164 
L 382.878881 288.83502 
L 386.000559 192.122182 
L 389.122238 296.079989 
L 392.243916 288.585194 
L 395.365594 268.169371 
L 398.487273 207.241682 
" clip-path="url(#p9200c7139e)" style="fill: none; stroke: #1f77b4; stroke-width: 1.5; stroke-linecap: square"/>
   </g>
   <g id="patch_8">
    <path d="M 57.6 307.584 
L 57.6 186.624 
" style="fill: none; stroke: #000000; stroke-width: 0.8; stroke-linejoin: miter; stroke-linecap: square"/>
   </g>
   <g id="patch_9">
    <path d="M 414.72 307.584 
L 414.72 186.624 
" style="fill: none; stroke: #000000; stroke-width: 0.8; stroke-linejoin: miter; stroke-linecap: square"/>
   </g>
   <g id="patch_10">
    <path d="M 57.6 307.584 
L 414.72 307.584 
" style="fill: none; stroke: #000000; stroke-width: 0.8; stroke-linejoin: miter; stroke-linecap: square"/>
   </g>
   <g id="patch_11">
    <path d="M 57.6 186.624 
L 414.72 186.624 
" style="fill: none; stroke: #000000; stroke-width: 0.8; stroke-linejoin: miter; stroke-linecap: square"/>
   </g>
  </g>
 </g>
 <defs>
  <clipPath id="p124572e395">
   <rect x="57.6" y="41.472" width="357.12" height="120.96"/>
  </clipPath>
  <clipPath id="p9200c7139e">
   <rect x="57.6" y="186.624" width="357.12" height="120.96"/>
  </clipPath>
 </defs>
</svg>
