<?xml version="1.0" encoding="utf-8" standalone="no"?>
<!DOCTYPE svg PUBLIC "-//W3C//DTD SVG 1.1//EN"
  "http://www.w3.org/Graphics/SVG/1.1/DTD/svg11.dtd">
<svg xmlns:xlink="http://www.w3.org/1999/xlink" width="460.8pt" height="345.6pt" viewBox="0 0 460.8 345.6" xmlns="http://www.w3.org/2000/svg" version="1.1">
 <metadata>
  <rdf:RDF xmlns:dc="http://purl.org/dc/elements/1.1/" xmlns:cc="http://creativecommons.org/ns#" xmlns:rdf="http://www.w3.org/1999/02/22-rdf-syntax-ns#">
   <cc:Work>
    <dc:type rdf:resource="http://purl.org/dc/dcmitype/StillImage"/>
    <dc:date>2022-05-13T15:25:20.803542</dc:date>
    <dc:format>image/svg+xml</dc:format>
    <dc:creator>
     <cc:Agent>
      <dc:title>Matplotlib v3.5.1, https://matplotlib.org/</dc:title>
     </cc:Agent>
    </dc:creator>
   </cc:Work>
  </rdf:RDF>
 </metadata>
 <defs>
  <style type="text/css">*{stroke-linejoin: round; stroke-linecap: butt}</style>
 </defs>
 <g id="figure_1">
  <g id="patch_1">
   <path d="M 0 345.6 
L 460.8 345.6 
L 460.8 0 
L 0 0 
z
" style="fill: #ffffff"/>
  </g>
  <g id="axes_1">
   <g id="patch_2">
    <path d="M 57.6 162.432 
L 414.72 162.432 
L 414.72 41.472 
L 57.6 41.472 
z
" style="fill: #ffffff"/>
   </g>
   <g id="matplotlib.axis_1">
    <g id="xtick_1">
     <g id="line2d_1">
      <defs>
       <path id="m50e2bfc324" d="M 0 0 
L 0 3.5 
" style="stroke: #000000; stroke-width: 0.8"/>
      </defs>
      <g>
       <use xlink:href="#m50e2bfc324" x="73.827491" y="162.432" style="stroke: #000000; stroke-width: 0.8"/>
      </g>
     </g>
     <g id="text_1">
      <!-- 0 -->
      <g transform="translate(70.646241 177.030437)scale(0.1 -0.1)">
       <defs>
        <path id="DejaVuSans-30" d="M 2034 4250 
Q 1547 4250 1301 3770 
Q 1056 3291 1056 2328 
Q 1056 1369 1301 889 
Q 1547 409 2034 409 
Q 2525 409 2770 889 
Q 3016 1369 3016 2328 
Q 3016 3291 2770 3770 
Q 2525 4250 2034 4250 
z
M 2034 4750 
Q 2819 4750 3233 4129 
Q 3647 3509 3647 2328 
Q 3647 1150 3233 529 
Q 2819 -91 2034 -91 
Q 1250 -91 836 529 
Q 422 1150 422 2328 
Q 422 3509 836 4129 
Q 1250 4750 2034 4750 
z
" transform="scale(0.015625)"/>
       </defs>
       <use xlink:href="#DejaVuSans-30"/>
      </g>
     </g>
    </g>
    <g id="xtick_2">
     <g id="line2d_2">
      <g>
       <use xlink:href="#m50e2bfc324" x="126.191972" y="162.432" style="stroke: #000000; stroke-width: 0.8"/>
      </g>
     </g>
     <g id="text_2">
      <!-- 10000 -->
      <g transform="translate(110.285722 177.030437)scale(0.1 -0.1)">
       <defs>
        <path id="DejaVuSans-31" d="M 794 531 
L 1825 531 
L 1825 4091 
L 703 3866 
L 703 4441 
L 1819 4666 
L 2450 4666 
L 2450 531 
L 3481 531 
L 3481 0 
L 794 0 
L 794 531 
z
" transform="scale(0.015625)"/>
       </defs>
       <use xlink:href="#DejaVuSans-31"/>
       <use xlink:href="#DejaVuSans-30" x="63.623047"/>
       <use xlink:href="#DejaVuSans-30" x="127.246094"/>
       <use xlink:href="#DejaVuSans-30" x="190.869141"/>
       <use xlink:href="#DejaVuSans-30" x="254.492188"/>
      </g>
     </g>
    </g>
    <g id="xtick_3">
     <g id="line2d_3">
      <g>
       <use xlink:href="#m50e2bfc324" x="178.556453" y="162.432" style="stroke: #000000; stroke-width: 0.8"/>
      </g>
     </g>
     <g id="text_3">
      <!-- 20000 -->
      <g transform="translate(162.650203 177.030437)scale(0.1 -0.1)">
       <defs>
        <path id="DejaVuSans-32" d="M 1228 531 
L 3431 531 
L 3431 0 
L 469 0 
L 469 531 
Q 828 903 1448 1529 
Q 2069 2156 2228 2338 
Q 2531 2678 2651 2914 
Q 2772 3150 2772 3378 
Q 2772 3750 2511 3984 
Q 2250 4219 1831 4219 
Q 1534 4219 1204 4116 
Q 875 4013 500 3803 
L 500 4441 
Q 881 4594 1212 4672 
Q 1544 4750 1819 4750 
Q 2544 4750 2975 4387 
Q 3406 4025 3406 3419 
Q 3406 3131 3298 2873 
Q 3191 2616 2906 2266 
Q 2828 2175 2409 1742 
Q 1991 1309 1228 531 
z
" transform="scale(0.015625)"/>
       </defs>
       <use xlink:href="#DejaVuSans-32"/>
       <use xlink:href="#DejaVuSans-30" x="63.623047"/>
       <use xlink:href="#DejaVuSans-30" x="127.246094"/>
       <use xlink:href="#DejaVuSans-30" x="190.869141"/>
       <use xlink:href="#DejaVuSans-30" x="254.492188"/>
      </g>
     </g>
    </g>
    <g id="xtick_4">
     <g id="line2d_4">
      <g>
       <use xlink:href="#m50e2bfc324" x="230.920934" y="162.432" style="stroke: #000000; stroke-width: 0.8"/>
      </g>
     </g>
     <g id="text_4">
      <!-- 30000 -->
      <g transform="translate(215.014684 177.030437)scale(0.1 -0.1)">
       <defs>
        <path id="DejaVuSans-33" d="M 2597 2516 
Q 3050 2419 3304 2112 
Q 3559 1806 3559 1356 
Q 3559 666 3084 287 
Q 2609 -91 1734 -91 
Q 1441 -91 1130 -33 
Q 819 25 488 141 
L 488 750 
Q 750 597 1062 519 
Q 1375 441 1716 441 
Q 2309 441 2620 675 
Q 2931 909 2931 1356 
Q 2931 1769 2642 2001 
Q 2353 2234 1838 2234 
L 1294 2234 
L 1294 2753 
L 1863 2753 
Q 2328 2753 2575 2939 
Q 2822 3125 2822 3475 
Q 2822 3834 2567 4026 
Q 2313 4219 1838 4219 
Q 1578 4219 1281 4162 
Q 984 4106 628 3988 
L 628 4550 
Q 988 4650 1302 4700 
Q 1616 4750 1894 4750 
Q 2613 4750 3031 4423 
Q 3450 4097 3450 3541 
Q 3450 3153 3228 2886 
Q 3006 2619 2597 2516 
z
" transform="scale(0.015625)"/>
       </defs>
       <use xlink:href="#DejaVuSans-33"/>
       <use xlink:href="#DejaVuSans-30" x="63.623047"/>
       <use xlink:href="#DejaVuSans-30" x="127.246094"/>
       <use xlink:href="#DejaVuSans-30" x="190.869141"/>
       <use xlink:href="#DejaVuSans-30" x="254.492188"/>
      </g>
     </g>
    </g>
    <g id="xtick_5">
     <g id="line2d_5">
      <g>
       <use xlink:href="#m50e2bfc324" x="283.285415" y="162.432" style="stroke: #000000; stroke-width: 0.8"/>
      </g>
     </g>
     <g id="text_5">
      <!-- 40000 -->
      <g transform="translate(267.379165 177.030437)scale(0.1 -0.1)">
       <defs>
        <path id="DejaVuSans-34" d="M 2419 4116 
L 825 1625 
L 2419 1625 
L 2419 4116 
z
M 2253 4666 
L 3047 4666 
L 3047 1625 
L 3713 1625 
L 3713 1100 
L 3047 1100 
L 3047 0 
L 2419 0 
L 2419 1100 
L 313 1100 
L 313 1709 
L 2253 4666 
z
" transform="scale(0.015625)"/>
       </defs>
       <use xlink:href="#DejaVuSans-34"/>
       <use xlink:href="#DejaVuSans-30" x="63.623047"/>
       <use xlink:href="#DejaVuSans-30" x="127.246094"/>
       <use xlink:href="#DejaVuSans-30" x="190.869141"/>
       <use xlink:href="#DejaVuSans-30" x="254.492188"/>
      </g>
     </g>
    </g>
    <g id="xtick_6">
     <g id="line2d_6">
      <g>
       <use xlink:href="#m50e2bfc324" x="335.649896" y="162.432" style="stroke: #000000; stroke-width: 0.8"/>
      </g>
     </g>
     <g id="text_6">
      <!-- 50000 -->
      <g transform="translate(319.743646 177.030437)scale(0.1 -0.1)">
       <defs>
        <path id="DejaVuSans-35" d="M 691 4666 
L 3169 4666 
L 3169 4134 
L 1269 4134 
L 1269 2991 
Q 1406 3038 1543 3061 
Q 1681 3084 1819 3084 
Q 2600 3084 3056 2656 
Q 3513 2228 3513 1497 
Q 3513 744 3044 326 
Q 2575 -91 1722 -91 
Q 1428 -91 1123 -41 
Q 819 9 494 109 
L 494 744 
Q 775 591 1075 516 
Q 1375 441 1709 441 
Q 2250 441 2565 725 
Q 2881 1009 2881 1497 
Q 2881 1984 2565 2268 
Q 2250 2553 1709 2553 
Q 1456 2553 1204 2497 
Q 953 2441 691 2322 
L 691 4666 
z
" transform="scale(0.015625)"/>
       </defs>
       <use xlink:href="#DejaVuSans-35"/>
       <use xlink:href="#DejaVuSans-30" x="63.623047"/>
       <use xlink:href="#DejaVuSans-30" x="127.246094"/>
       <use xlink:href="#DejaVuSans-30" x="190.869141"/>
       <use xlink:href="#DejaVuSans-30" x="254.492188"/>
      </g>
     </g>
    </g>
    <g id="xtick_7">
     <g id="line2d_7">
      <g>
       <use xlink:href="#m50e2bfc324" x="388.014377" y="162.432" style="stroke: #000000; stroke-width: 0.8"/>
      </g>
     </g>
     <g id="text_7">
      <!-- 60000 -->
      <g transform="translate(372.108127 177.030437)scale(0.1 -0.1)">
       <defs>
        <path id="DejaVuSans-36" d="M 2113 2584 
Q 1688 2584 1439 2293 
Q 1191 2003 1191 1497 
Q 1191 994 1439 701 
Q 1688 409 2113 409 
Q 2538 409 2786 701 
Q 3034 994 3034 1497 
Q 3034 2003 2786 2293 
Q 2538 2584 2113 2584 
z
M 3366 4563 
L 3366 3988 
Q 3128 4100 2886 4159 
Q 2644 4219 2406 4219 
Q 1781 4219 1451 3797 
Q 1122 3375 1075 2522 
Q 1259 2794 1537 2939 
Q 1816 3084 2150 3084 
Q 2853 3084 3261 2657 
Q 3669 2231 3669 1497 
Q 3669 778 3244 343 
Q 2819 -91 2113 -91 
Q 1303 -91 875 529 
Q 447 1150 447 2328 
Q 447 3434 972 4092 
Q 1497 4750 2381 4750 
Q 2619 4750 2861 4703 
Q 3103 4656 3366 4563 
z
" transform="scale(0.015625)"/>
       </defs>
       <use xlink:href="#DejaVuSans-36"/>
       <use xlink:href="#DejaVuSans-30" x="63.623047"/>
       <use xlink:href="#DejaVuSans-30" x="127.246094"/>
       <use xlink:href="#DejaVuSans-30" x="190.869141"/>
       <use xlink:href="#DejaVuSans-30" x="254.492188"/>
      </g>
     </g>
    </g>
   </g>
   <g id="matplotlib.axis_2">
    <g id="ytick_1">
     <g id="line2d_8">
      <defs>
       <path id="maf95474984" d="M 0 0 
L -3.5 0 
" style="stroke: #000000; stroke-width: 0.8"/>
      </defs>
      <g>
       <use xlink:href="#maf95474984" x="57.6" y="138.645129" style="stroke: #000000; stroke-width: 0.8"/>
      </g>
     </g>
     <g id="text_8">
      <!-- 80 -->
      <g transform="translate(37.875 142.444348)scale(0.1 -0.1)">
       <defs>
        <path id="DejaVuSans-38" d="M 2034 2216 
Q 1584 2216 1326 1975 
Q 1069 1734 1069 1313 
Q 1069 891 1326 650 
Q 1584 409 2034 409 
Q 2484 409 2743 651 
Q 3003 894 3003 1313 
Q 3003 1734 2745 1975 
Q 2488 2216 2034 2216 
z
M 1403 2484 
Q 997 2584 770 2862 
Q 544 3141 544 3541 
Q 544 4100 942 4425 
Q 1341 4750 2034 4750 
Q 2731 4750 3128 4425 
Q 3525 4100 3525 3541 
Q 3525 3141 3298 2862 
Q 3072 2584 2669 2484 
Q 3125 2378 3379 2068 
Q 3634 1759 3634 1313 
Q 3634 634 3220 271 
Q 2806 -91 2034 -91 
Q 1263 -91 848 271 
Q 434 634 434 1313 
Q 434 1759 690 2068 
Q 947 2378 1403 2484 
z
M 1172 3481 
Q 1172 3119 1398 2916 
Q 1625 2713 2034 2713 
Q 2441 2713 2670 2916 
Q 2900 3119 2900 3481 
Q 2900 3844 2670 4047 
Q 2441 4250 2034 4250 
Q 1625 4250 1398 4047 
Q 1172 3844 1172 3481 
z
" transform="scale(0.015625)"/>
       </defs>
       <use xlink:href="#DejaVuSans-38"/>
       <use xlink:href="#DejaVuSans-30" x="63.623047"/>
      </g>
     </g>
    </g>
    <g id="ytick_2">
     <g id="line2d_9">
      <g>
       <use xlink:href="#maf95474984" x="57.6" y="103.91977" style="stroke: #000000; stroke-width: 0.8"/>
      </g>
     </g>
     <g id="text_9">
      <!-- 90 -->
      <g transform="translate(37.875 107.718989)scale(0.1 -0.1)">
       <defs>
        <path id="DejaVuSans-39" d="M 703 97 
L 703 672 
Q 941 559 1184 500 
Q 1428 441 1663 441 
Q 2288 441 2617 861 
Q 2947 1281 2994 2138 
Q 2813 1869 2534 1725 
Q 2256 1581 1919 1581 
Q 1219 1581 811 2004 
Q 403 2428 403 3163 
Q 403 3881 828 4315 
Q 1253 4750 1959 4750 
Q 2769 4750 3195 4129 
Q 3622 3509 3622 2328 
Q 3622 1225 3098 567 
Q 2575 -91 1691 -91 
Q 1453 -91 1209 -44 
Q 966 3 703 97 
z
M 1959 2075 
Q 2384 2075 2632 2365 
Q 2881 2656 2881 3163 
Q 2881 3666 2632 3958 
Q 2384 4250 1959 4250 
Q 1534 4250 1286 3958 
Q 1038 3666 1038 3163 
Q 1038 2656 1286 2365 
Q 1534 2075 1959 2075 
z
" transform="scale(0.015625)"/>
       </defs>
       <use xlink:href="#DejaVuSans-39"/>
       <use xlink:href="#DejaVuSans-30" x="63.623047"/>
      </g>
     </g>
    </g>
    <g id="ytick_3">
     <g id="line2d_10">
      <g>
       <use xlink:href="#maf95474984" x="57.6" y="69.194411" style="stroke: #000000; stroke-width: 0.8"/>
      </g>
     </g>
     <g id="text_10">
      <!-- 100 -->
      <g transform="translate(31.5125 72.99363)scale(0.1 -0.1)">
       <use xlink:href="#DejaVuSans-31"/>
       <use xlink:href="#DejaVuSans-30" x="63.623047"/>
       <use xlink:href="#DejaVuSans-30" x="127.246094"/>
      </g>
     </g>
    </g>
   </g>
   <g id="line2d_11">
    <path d="M 73.832727 68.326278 
L 74.000294 60.686699 
L 74.057895 60.686699 
L 74.173096 58.950431 
L 74.387791 58.950431 
L 74.502993 57.792919 
L 74.89049 57.792919 
L 75.005692 56.056651 
L 75.780686 56.056651 
L 75.895888 55.362144 
L 76.047745 55.362144 
L 76.162947 54.204632 
L 77.822901 54.204632 
L 77.938103 53.336498 
L 78.953974 53.336498 
L 79.069175 52.178986 
L 83.525393 52.178986 
L 83.640595 50.442718 
L 89.133629 50.442718 
L 89.24883 48.70645 
L 352.149944 48.70645 
L 352.265145 46.970182 
L 398.487273 46.970182 
L 398.487273 46.970182 
" clip-path="url(#p03ee5f28cc)" style="fill: none; stroke: #1f77b4; stroke-width: 1.5; stroke-linecap: square"/>
   </g>
   <g id="line2d_12">
    <path d="M 73.832727 68.326278 
L 73.953166 76.31311 
L 73.989821 76.31311 
L 74.105023 72.840574 
L 74.110259 72.840574 
L 74.225461 69.368038 
L 74.246407 69.368038 
L 74.366845 76.31311 
L 74.387791 76.31311 
L 74.49252 79.785646 
L 74.497756 76.31311 
L 74.523938 76.31311 
L 74.63914 86.730718 
L 74.644377 83.258182 
L 75.010928 83.258182 
L 75.016165 79.785646 
L 75.115657 83.258182 
L 75.230859 86.730718 
L 75.267514 86.730718 
L 75.382716 83.258182 
L 75.492681 83.258182 
L 75.607883 86.730718 
L 75.634065 86.730718 
L 75.749267 83.258182 
L 75.859233 83.258182 
L 75.969198 86.730718 
L 76.000617 83.258182 
L 76.052981 90.203254 
L 76.073927 90.203254 
L 76.435242 90.203254 
L 76.550444 93.675789 
L 76.864631 93.675789 
L 76.901286 97.148325 
L 76.974596 93.675789 
L 77.325438 93.675789 
L 77.44064 90.203254 
L 77.613443 90.203254 
L 77.728645 93.675789 
L 77.822901 93.675789 
L 77.938103 97.148325 
L 78.953974 97.148325 
L 79.069175 100.620861 
L 79.074412 100.620861 
L 79.189614 97.148325 
L 79.959372 97.148325 
L 80.074573 100.620861 
L 80.147884 100.620861 
L 80.263086 104.093397 
L 80.530144 104.093397 
L 80.650583 97.148325 
L 80.970006 97.148325 
L 81.085208 100.620861 
L 83.630122 100.620861 
L 83.745324 104.093397 
L 85.1068 104.093397 
L 85.222002 100.620861 
L 85.729937 100.620861 
L 85.845139 97.148325 
L 85.907977 97.148325 
L 86.023178 100.620861 
L 88.023502 100.620861 
L 88.138703 99.752727 
L 89.866731 99.752727 
L 89.981933 103.225263 
L 90.248992 103.225263 
L 90.285647 99.752727 
L 90.358957 103.225263 
L 92.903871 103.225263 
L 93.019073 106.697799 
L 97.648093 106.697799 
L 97.763295 110.170335 
L 98.988624 110.170335 
L 99.103826 106.697799 
L 99.208555 106.697799 
L 99.323757 110.170335 
L 99.737436 110.170335 
L 99.852638 106.697799 
L 101.842488 106.697799 
L 101.95769 103.225263 
L 102.287586 103.225263 
L 102.402788 106.697799 
L 108.922166 106.697799 
L 109.037368 110.170335 
L 120.060091 110.170335 
L 120.175293 106.697799 
L 130.559169 106.697799 
L 130.674371 105.829665 
L 131.810681 105.829665 
L 131.925882 109.302201 
L 182.232439 109.302201 
L 182.347641 112.774737 
L 185.829879 112.774737 
L 185.945081 116.247273 
L 203.550019 116.247273 
L 203.665221 112.774737 
L 276.907421 112.774737 
L 277.022623 116.247273 
L 294.255773 116.247273 
L 294.370975 119.719809 
L 352.149944 119.719809 
L 352.265145 123.192344 
L 387.946303 123.192344 
L 388.061505 119.719809 
L 398.487273 119.719809 
L 398.487273 119.719809 
" clip-path="url(#p03ee5f28cc)" style="fill: none; stroke: #ff7f0e; stroke-width: 1.5; stroke-linecap: square"/>
   </g>
   <g id="line2d_13">
    <path d="M 73.832727 68.326278 
L 73.837964 67.63177 
L 73.853673 72.840574 
L 73.911274 68.499904 
L 74.031712 75.444976 
L 74.036949 75.444976 
L 74.157387 84.126316 
L 74.183569 84.126316 
L 74.272589 91.071388 
L 74.298771 90.203254 
L 74.361609 90.203254 
L 74.387791 93.675789 
L 74.445392 89.045742 
L 74.466337 89.045742 
L 74.482047 89.045742 
L 74.602485 95.990813 
L 74.89049 95.990813 
L 75.005692 94.254545 
L 75.115657 94.254545 
L 75.194204 97.727081 
L 75.225622 95.990813 
L 75.346061 95.990813 
L 75.351297 94.833301 
L 75.356534 98.305837 
L 75.445553 98.305837 
L 75.780686 98.305837 
L 75.859233 97.61133 
L 75.864469 101.083866 
L 75.869706 101.083866 
L 75.99538 101.083866 
L 76.047745 108.028938 
L 76.110582 105.135158 
L 76.39335 105.135158 
L 76.508552 103.39889 
L 77.220709 103.39889 
L 77.335911 106.871426 
L 77.822901 106.871426 
L 77.938103 106.003292 
L 78.953974 106.003292 
L 79.069175 104.84578 
L 79.797042 104.84578 
L 79.912244 103.109512 
L 79.959372 103.109512 
L 80.074573 106.582048 
L 80.446361 106.582048 
L 80.561563 104.84578 
L 83.630122 104.84578 
L 83.745324 108.318316 
L 85.907977 108.318316 
L 86.023178 111.790852 
L 88.023502 111.790852 
L 88.138703 110.922718 
L 89.133629 110.922718 
L 89.24883 109.18645 
L 92.437827 109.18645 
L 92.553029 112.658986 
L 92.621103 112.658986 
L 92.736305 110.922718 
L 92.903871 110.922718 
L 93.019073 114.395254 
L 97.648093 114.395254 
L 97.763295 113.237742 
L 99.208555 113.237742 
L 99.323757 116.710278 
L 108.922166 116.710278 
L 109.037368 120.182813 
L 130.559169 120.182813 
L 130.674371 119.314679 
L 184.709279 119.314679 
L 184.824481 117.578411 
L 211.027667 117.578411 
L 211.142869 121.050947 
L 215.656687 121.050947 
L 215.771889 119.893435 
L 260.679668 119.893435 
L 260.79487 118.157167 
L 294.255773 118.157167 
L 294.370975 121.629703 
L 398.487273 121.629703 
L 398.487273 121.629703 
" clip-path="url(#p03ee5f28cc)" style="fill: none; stroke: #2ca02c; stroke-width: 1.5; stroke-linecap: square"/>
   </g>
   <g id="line2d_14">
    <path d="M 73.832727 69.194411 
L 73.953166 76.891866 
L 74.00553 76.891866 
L 74.120732 76.023732 
L 74.246407 76.023732 
L 74.372081 71.683062 
L 74.429682 71.683062 
L 74.523938 78.628134 
L 74.544884 77.470622 
L 74.571066 77.470622 
L 74.691505 75.444976 
L 75.016165 75.444976 
L 75.131366 73.41933 
L 75.194204 73.41933 
L 75.309406 76.891866 
L 75.346061 76.891866 
L 75.461263 80.364402 
L 75.492681 80.364402 
L 75.607883 79.20689 
L 75.859233 79.20689 
L 75.974435 78.338756 
L 75.99538 78.338756 
L 76.110582 76.31311 
L 76.39335 76.31311 
L 76.435242 79.785646 
L 76.503316 78.628134 
L 76.864631 78.628134 
L 76.979833 77.470622 
L 77.613443 77.470622 
L 77.728645 76.31311 
L 79.797042 76.31311 
L 79.912244 79.785646 
L 79.959372 79.785646 
L 80.074573 78.917512 
L 80.147884 78.917512 
L 80.263086 77.76 
L 80.446361 77.76 
L 80.561563 81.232536 
L 80.970006 81.232536 
L 81.085208 80.075024 
L 83.630122 80.075024 
L 83.745324 79.20689 
L 85.907977 79.20689 
L 86.023178 78.338756 
L 88.023502 78.338756 
L 88.138703 81.811292 
L 89.866731 81.811292 
L 89.981933 80.65378 
L 90.285647 80.65378 
L 90.400849 79.496268 
L 92.621103 79.496268 
L 92.736305 82.968804 
L 97.648093 82.968804 
L 97.763295 86.44134 
L 99.208555 86.44134 
L 99.323757 85.573206 
L 102.287586 85.573206 
L 102.402788 84.415694 
L 108.922166 84.415694 
L 109.037368 83.54756 
L 130.559169 83.54756 
L 130.674371 87.020096 
L 131.810681 87.020096 
L 131.925882 85.862584 
L 182.232439 85.862584 
L 182.347641 84.705072 
L 184.709279 84.705072 
L 184.824481 88.177608 
L 185.829879 88.177608 
L 185.945081 87.020096 
L 260.679668 87.020096 
L 260.79487 90.492632 
L 276.907421 90.492632 
L 277.022623 89.33512 
L 352.149944 89.33512 
L 352.265145 92.807656 
L 398.487273 92.807656 
L 398.487273 92.807656 
" clip-path="url(#p03ee5f28cc)" style="fill: none; stroke: #d62728; stroke-width: 1.5; stroke-linecap: square"/>
   </g>
   <g id="line2d_15">
    <path d="M 73.832727 69.194411 
L 73.953166 67.63177 
L 75.346061 67.63177 
L 75.461263 66.474258 
L 75.780686 66.474258 
L 75.895888 65.779751 
L 77.822901 65.779751 
L 77.938103 64.911617 
L 88.023502 64.911617 
L 88.138703 64.043483 
L 130.559169 64.043483 
L 130.674371 63.175349 
L 215.656687 63.175349 
L 215.771889 62.017837 
L 398.487273 62.017837 
L 398.487273 62.017837 
" clip-path="url(#p03ee5f28cc)" style="fill: none; stroke: #9467bd; stroke-width: 1.5; stroke-linecap: square"/>
   </g>
   <g id="line2d_16">
    <path d="M 73.832727 68.326278 
L 73.8432 68.326278 
L 73.963638 64.853742 
L 74.361609 64.853742 
L 74.429682 68.326278 
L 74.471574 64.853742 
L 75.194204 64.853742 
L 75.309406 63.117474 
L 75.99538 63.117474 
L 76.073927 66.59001 
L 76.105346 64.853742 
L 76.39335 64.853742 
L 76.508552 63.117474 
L 79.797042 63.117474 
L 79.912244 61.381206 
L 80.446361 61.381206 
L 80.561563 59.644938 
L 92.621103 59.644938 
L 92.736305 57.90867 
L 184.709279 57.90867 
L 184.824481 56.172402 
L 260.679668 56.172402 
L 260.79487 54.436134 
L 398.487273 54.436134 
L 398.487273 54.436134 
" clip-path="url(#p03ee5f28cc)" style="fill: none; stroke: #8c564b; stroke-width: 1.5; stroke-linecap: square"/>
   </g>
   <g id="line2d_17">
    <path d="M 73.832727 69.194411 
L 73.984584 63.2911 
L 74.052658 63.2911 
L 74.16786 59.818565 
L 75.346061 59.818565 
L 75.461263 58.661053 
L 75.780686 58.661053 
L 75.895888 57.966545 
L 77.822901 57.966545 
L 77.938103 57.098411 
L 88.023502 57.098411 
L 88.138703 56.230278 
L 97.648093 56.230278 
L 97.763295 55.072766 
L 130.559169 55.072766 
L 130.674371 54.204632 
L 215.656687 54.204632 
L 215.771889 53.04712 
L 398.487273 53.04712 
L 398.487273 53.04712 
" clip-path="url(#p03ee5f28cc)" style="fill: none; stroke: #e377c2; stroke-width: 1.5; stroke-linecap: square"/>
   </g>
   <g id="line2d_18">
    <path d="M 73.832727 69.194411 
L 73.963638 84.99445 
L 73.979348 84.99445 
L 74.099786 91.939522 
L 74.272589 91.939522 
L 74.387791 91.071388 
L 74.502993 94.543923 
L 74.571066 94.543923 
L 74.686268 93.675789 
L 75.346061 93.675789 
L 75.461263 97.148325 
L 75.780686 97.148325 
L 75.895888 100.620861 
L 76.047745 100.620861 
L 76.162947 104.093397 
L 77.822901 104.093397 
L 77.938103 107.565933 
L 83.525393 107.565933 
L 83.640595 111.038469 
L 88.023502 111.038469 
L 88.138703 114.511005 
L 92.903871 114.511005 
L 93.019073 113.642871 
L 97.648093 113.642871 
L 97.763295 117.115407 
L 130.559169 117.115407 
L 130.674371 120.587943 
L 215.656687 120.587943 
L 215.771889 124.060478 
L 294.255773 124.060478 
L 294.370975 123.192344 
L 352.149944 123.192344 
L 352.265145 126.66488 
L 398.487273 126.66488 
L 398.487273 126.66488 
" clip-path="url(#p03ee5f28cc)" style="fill: none; stroke: #7f7f7f; stroke-width: 1.5; stroke-linecap: square"/>
   </g>
   <g id="line2d_19">
    <path d="M 73.832727 72.666947 
L 73.968875 89.913876 
L 73.979348 89.913876 
L 74.063131 94.833301 
L 74.09455 93.675789 
L 74.152151 93.675789 
L 74.288298 87.88823 
L 74.304008 87.88823 
L 74.387791 85.573206 
L 74.393027 89.045742 
L 74.408737 89.045742 
L 74.429682 89.045742 
L 74.523938 98.305837 
L 74.550121 97.148325 
L 74.571066 97.148325 
L 74.691505 95.122679 
L 74.89049 95.122679 
L 75.005692 98.595215 
L 75.016165 98.595215 
L 75.131366 96.569569 
L 75.194204 96.569569 
L 75.309406 100.042105 
L 75.346061 100.042105 
L 75.351297 103.514641 
L 75.456026 101.778373 
L 75.492681 101.778373 
L 75.607883 100.620861 
L 75.780686 100.620861 
L 75.859233 104.093397 
L 75.890651 103.225263 
L 75.99538 103.225263 
L 76.047745 101.199617 
L 76.079164 108.144689 
L 76.39335 108.144689 
L 76.435242 111.617225 
L 76.503316 110.459713 
L 76.864631 110.459713 
L 76.979833 109.302201 
L 77.220709 109.302201 
L 77.335911 108.144689 
L 77.613443 108.144689 
L 77.728645 106.987177 
L 77.822901 106.987177 
L 77.938103 110.459713 
L 78.953974 110.459713 
L 79.069175 113.932249 
L 79.797042 113.932249 
L 79.912244 117.404785 
L 79.959372 117.404785 
L 80.074573 116.536651 
L 80.147884 116.536651 
L 80.263086 115.379139 
L 80.446361 115.379139 
L 80.561563 118.851675 
L 80.970006 118.851675 
L 81.085208 117.694163 
L 83.525393 117.694163 
L 83.630122 121.166699 
L 83.635358 120.298565 
L 85.907977 120.298565 
L 86.023178 119.430431 
L 88.023502 119.430431 
L 88.138703 122.902967 
L 89.133629 122.902967 
L 89.24883 126.375502 
L 89.866731 126.375502 
L 89.981933 125.21799 
L 90.285647 125.21799 
L 90.400849 124.060478 
L 92.437827 124.060478 
L 92.553029 122.902967 
L 92.621103 122.902967 
L 92.736305 126.375502 
L 92.903871 126.375502 
L 93.019073 125.507368 
L 97.648093 125.507368 
L 97.763295 128.979904 
L 99.208555 128.979904 
L 99.323757 128.11177 
L 102.287586 128.11177 
L 102.402788 126.954258 
L 108.922166 126.954258 
L 109.037368 126.086124 
L 130.559169 126.086124 
L 130.674371 129.55866 
L 131.810681 129.55866 
L 131.925882 128.401148 
L 182.232439 128.401148 
L 182.347641 127.243636 
L 184.709279 127.243636 
L 184.824481 130.716172 
L 185.829879 130.716172 
L 185.945081 129.55866 
L 211.027667 129.55866 
L 211.142869 127.822392 
L 260.679668 127.822392 
L 260.79487 131.294928 
L 276.907421 131.294928 
L 277.022623 130.137416 
L 294.255773 130.137416 
L 294.370975 129.269282 
L 352.149944 129.269282 
L 352.265145 132.741818 
L 398.487273 132.741818 
L 398.487273 132.741818 
" clip-path="url(#p03ee5f28cc)" style="fill: none; stroke: #bcbd22; stroke-width: 1.5; stroke-linecap: square"/>
   </g>
   <g id="line2d_20">
    <path d="M 73.832727 69.194411 
L 73.953166 78.628134 
L 73.979348 78.628134 
L 74.063131 83.54756 
L 74.09455 82.390048 
L 74.152151 82.390048 
L 74.288298 75.734354 
L 74.304008 75.734354 
L 74.387791 74.576842 
L 74.393027 78.049378 
L 74.4035 78.049378 
L 74.482047 78.049378 
L 74.602485 74.86622 
L 74.607722 74.86622 
L 74.722923 73.708708 
L 74.89049 73.708708 
L 75.005692 77.181244 
L 75.016165 77.181244 
L 75.131366 75.155598 
L 75.346061 75.155598 
L 75.351297 78.628134 
L 75.456026 76.891866 
L 75.492681 76.891866 
L 75.607883 75.734354 
L 75.780686 75.734354 
L 75.859233 79.20689 
L 75.890651 78.338756 
L 76.000617 78.338756 
L 76.047745 77.470622 
L 76.052981 80.943158 
L 76.094873 80.943158 
L 76.435242 80.943158 
L 76.550444 79.785646 
L 76.864631 79.785646 
L 76.979833 78.628134 
L 77.220709 78.628134 
L 77.335911 77.470622 
L 77.613443 77.470622 
L 77.728645 76.31311 
L 77.822901 76.31311 
L 77.938103 79.785646 
L 78.953974 79.785646 
L 79.069175 83.258182 
L 79.959372 83.258182 
L 80.074573 82.390048 
L 80.147884 82.390048 
L 80.263086 81.232536 
L 80.970006 81.232536 
L 81.085208 80.075024 
L 83.525393 80.075024 
L 83.630122 83.54756 
L 83.635358 82.679426 
L 85.907977 82.679426 
L 86.023178 81.811292 
L 88.023502 81.811292 
L 88.138703 85.283828 
L 89.133629 85.283828 
L 89.24883 88.756364 
L 89.866731 88.756364 
L 89.981933 87.598852 
L 90.285647 87.598852 
L 90.400849 86.44134 
L 92.437827 86.44134 
L 92.553029 85.283828 
L 92.903871 85.283828 
L 93.019073 84.415694 
L 97.648093 84.415694 
L 97.763295 87.88823 
L 99.208555 87.88823 
L 99.323757 87.020096 
L 102.287586 87.020096 
L 102.402788 85.862584 
L 108.922166 85.862584 
L 109.037368 84.99445 
L 130.559169 84.99445 
L 130.674371 88.466986 
L 131.810681 88.466986 
L 131.925882 87.309474 
L 182.232439 87.309474 
L 182.347641 86.151962 
L 185.829879 86.151962 
L 185.945081 84.99445 
L 211.027667 84.99445 
L 211.142869 83.258182 
L 215.656687 83.258182 
L 215.771889 86.730718 
L 276.907421 86.730718 
L 277.022623 85.573206 
L 294.255773 85.573206 
L 294.370975 84.705072 
L 352.149944 84.705072 
L 352.265145 88.177608 
L 398.487273 88.177608 
L 398.487273 88.177608 
" clip-path="url(#p03ee5f28cc)" style="fill: none; stroke: #17becf; stroke-width: 1.5; stroke-linecap: square"/>
   </g>
   <g id="line2d_21">
    <path d="M 73.832727 72.666947 
L 73.8432 72.666947 
L 73.963638 79.612019 
L 74.361609 79.612019 
L 74.429682 78.454507 
L 74.445392 85.399579 
L 75.194204 85.399579 
L 75.309406 88.872115 
L 75.99538 88.872115 
L 76.073927 87.714603 
L 76.079164 91.187139 
L 76.094873 91.187139 
L 76.39335 91.187139 
L 76.508552 94.659675 
L 79.797042 94.659675 
L 79.912244 98.132211 
L 80.446361 98.132211 
L 80.561563 101.604746 
L 92.621103 101.604746 
L 92.736305 105.077282 
L 184.709279 105.077282 
L 184.824481 108.549818 
L 260.679668 108.549818 
L 260.79487 112.022354 
L 398.487273 112.022354 
L 398.487273 112.022354 
" clip-path="url(#p03ee5f28cc)" style="fill: none; stroke: #1f77b4; stroke-width: 1.5; stroke-linecap: square"/>
   </g>
   <g id="line2d_22">
    <path d="M 73.832727 72.666947 
L 73.848437 71.97244 
L 73.874619 81.521914 
L 73.942693 84.99445 
L 73.984584 81.521914 
L 73.989821 81.521914 
L 74.105023 85.283828 
L 74.110259 85.283828 
L 74.152151 88.756364 
L 74.220224 87.598852 
L 74.272589 87.598852 
L 74.387791 91.071388 
L 74.440155 89.913876 
L 74.445392 93.386411 
L 74.49252 92.2289 
L 74.607722 95.701435 
L 74.63914 95.701435 
L 74.754342 99.173971 
L 75.010928 99.173971 
L 75.115657 102.646507 
L 75.120894 101.778373 
L 75.267514 101.778373 
L 75.382716 105.250909 
L 75.634065 105.250909 
L 75.749267 108.723445 
L 75.780686 108.723445 
L 75.901124 107.160804 
L 75.969198 107.160804 
L 76.0844 112.08023 
L 76.901286 112.08023 
L 77.016488 115.552766 
L 77.220709 115.552766 
L 77.325438 114.395254 
L 77.44064 117.867789 
L 78.953974 117.867789 
L 79.069175 116.710278 
L 79.074412 116.710278 
L 79.189614 120.182813 
L 79.959372 120.182813 
L 80.074573 119.314679 
L 80.530144 119.314679 
L 80.650583 126.259751 
L 83.525393 126.259751 
L 83.640595 123.655349 
L 85.1068 123.655349 
L 85.222002 127.127885 
L 85.729937 127.127885 
L 85.845139 130.600421 
L 85.907977 130.600421 
L 86.023178 129.732287 
L 88.023502 129.732287 
L 88.138703 133.204823 
L 90.248992 133.204823 
L 90.364194 136.677359 
L 92.437827 136.677359 
L 92.553029 135.519847 
L 92.903871 135.519847 
L 93.019073 134.651713 
L 97.648093 134.651713 
L 97.763295 133.494201 
L 98.988624 133.494201 
L 99.103826 136.966737 
L 99.208555 136.966737 
L 99.323757 136.098603 
L 99.737436 136.098603 
L 99.852638 139.571139 
L 101.842488 139.571139 
L 101.95769 143.043675 
L 108.922166 143.043675 
L 109.037368 142.175541 
L 120.060091 142.175541 
L 120.175293 145.648077 
L 130.559169 145.648077 
L 130.674371 149.120612 
L 203.550019 149.120612 
L 203.665221 152.593148 
L 215.656687 152.593148 
L 215.771889 156.065684 
L 294.255773 156.065684 
L 294.370975 155.19755 
L 352.149944 155.19755 
L 352.265145 153.461282 
L 387.946303 153.461282 
L 388.061505 156.933818 
L 398.487273 156.933818 
L 398.487273 156.933818 
" clip-path="url(#p03ee5f28cc)" style="fill: none; stroke: #ff7f0e; stroke-width: 1.5; stroke-linecap: square"/>
   </g>
   <g id="patch_3">
    <path d="M 57.6 162.432 
L 57.6 41.472 
" style="fill: none; stroke: #000000; stroke-width: 0.8; stroke-linejoin: miter; stroke-linecap: square"/>
   </g>
   <g id="patch_4">
    <path d="M 414.72 162.432 
L 414.72 41.472 
" style="fill: none; stroke: #000000; stroke-width: 0.8; stroke-linejoin: miter; stroke-linecap: square"/>
   </g>
   <g id="patch_5">
    <path d="M 57.6 162.432 
L 414.72 162.432 
" style="fill: none; stroke: #000000; stroke-width: 0.8; stroke-linejoin: miter; stroke-linecap: square"/>
   </g>
   <g id="patch_6">
    <path d="M 57.6 41.472 
L 414.72 41.472 
" style="fill: none; stroke: #000000; stroke-width: 0.8; stroke-linejoin: miter; stroke-linecap: square"/>
   </g>
   <g id="text_11">
    <!-- WSP -->
    <g transform="translate(361.832136 46.970182)scale(0.08 -0.08)">
     <defs>
      <path id="DejaVuSans-57" d="M 213 4666 
L 850 4666 
L 1831 722 
L 2809 4666 
L 3519 4666 
L 4500 722 
L 5478 4666 
L 6119 4666 
L 4947 0 
L 4153 0 
L 3169 4050 
L 2175 0 
L 1381 0 
L 213 4666 
z
" transform="scale(0.015625)"/>
      <path id="DejaVuSans-53" d="M 3425 4513 
L 3425 3897 
Q 3066 4069 2747 4153 
Q 2428 4238 2131 4238 
Q 1616 4238 1336 4038 
Q 1056 3838 1056 3469 
Q 1056 3159 1242 3001 
Q 1428 2844 1947 2747 
L 2328 2669 
Q 3034 2534 3370 2195 
Q 3706 1856 3706 1288 
Q 3706 609 3251 259 
Q 2797 -91 1919 -91 
Q 1588 -91 1214 -16 
Q 841 59 441 206 
L 441 856 
Q 825 641 1194 531 
Q 1563 422 1919 422 
Q 2459 422 2753 634 
Q 3047 847 3047 1241 
Q 3047 1584 2836 1778 
Q 2625 1972 2144 2069 
L 1759 2144 
Q 1053 2284 737 2584 
Q 422 2884 422 3419 
Q 422 4038 858 4394 
Q 1294 4750 2059 4750 
Q 2388 4750 2728 4690 
Q 3069 4631 3425 4513 
z
" transform="scale(0.015625)"/>
      <path id="DejaVuSans-50" d="M 1259 4147 
L 1259 2394 
L 2053 2394 
Q 2494 2394 2734 2622 
Q 2975 2850 2975 3272 
Q 2975 3691 2734 3919 
Q 2494 4147 2053 4147 
L 1259 4147 
z
M 628 4666 
L 2053 4666 
Q 2838 4666 3239 4311 
Q 3641 3956 3641 3272 
Q 3641 2581 3239 2228 
Q 2838 1875 2053 1875 
L 1259 1875 
L 1259 0 
L 628 0 
L 628 4666 
z
" transform="scale(0.015625)"/>
     </defs>
     <use xlink:href="#DejaVuSans-57"/>
     <use xlink:href="#DejaVuSans-53" x="98.876953"/>
     <use xlink:href="#DejaVuSans-50" x="162.353516"/>
    </g>
   </g>
   <g id="text_12">
    <!-- Iambic -->
    <g transform="translate(361.832136 119.719809)scale(0.08 -0.08)">
     <defs>
      <path id="DejaVuSans-49" d="M 628 4666 
L 1259 4666 
L 1259 0 
L 628 0 
L 628 4666 
z
" transform="scale(0.015625)"/>
      <path id="DejaVuSans-61" d="M 2194 1759 
Q 1497 1759 1228 1600 
Q 959 1441 959 1056 
Q 959 750 1161 570 
Q 1363 391 1709 391 
Q 2188 391 2477 730 
Q 2766 1069 2766 1631 
L 2766 1759 
L 2194 1759 
z
M 3341 1997 
L 3341 0 
L 2766 0 
L 2766 531 
Q 2569 213 2275 61 
Q 1981 -91 1556 -91 
Q 1019 -91 701 211 
Q 384 513 384 1019 
Q 384 1609 779 1909 
Q 1175 2209 1959 2209 
L 2766 2209 
L 2766 2266 
Q 2766 2663 2505 2880 
Q 2244 3097 1772 3097 
Q 1472 3097 1187 3025 
Q 903 2953 641 2809 
L 641 3341 
Q 956 3463 1253 3523 
Q 1550 3584 1831 3584 
Q 2591 3584 2966 3190 
Q 3341 2797 3341 1997 
z
" transform="scale(0.015625)"/>
      <path id="DejaVuSans-6d" d="M 3328 2828 
Q 3544 3216 3844 3400 
Q 4144 3584 4550 3584 
Q 5097 3584 5394 3201 
Q 5691 2819 5691 2113 
L 5691 0 
L 5113 0 
L 5113 2094 
Q 5113 2597 4934 2840 
Q 4756 3084 4391 3084 
Q 3944 3084 3684 2787 
Q 3425 2491 3425 1978 
L 3425 0 
L 2847 0 
L 2847 2094 
Q 2847 2600 2669 2842 
Q 2491 3084 2119 3084 
Q 1678 3084 1418 2786 
Q 1159 2488 1159 1978 
L 1159 0 
L 581 0 
L 581 3500 
L 1159 3500 
L 1159 2956 
Q 1356 3278 1631 3431 
Q 1906 3584 2284 3584 
Q 2666 3584 2933 3390 
Q 3200 3197 3328 2828 
z
" transform="scale(0.015625)"/>
      <path id="DejaVuSans-62" d="M 3116 1747 
Q 3116 2381 2855 2742 
Q 2594 3103 2138 3103 
Q 1681 3103 1420 2742 
Q 1159 2381 1159 1747 
Q 1159 1113 1420 752 
Q 1681 391 2138 391 
Q 2594 391 2855 752 
Q 3116 1113 3116 1747 
z
M 1159 2969 
Q 1341 3281 1617 3432 
Q 1894 3584 2278 3584 
Q 2916 3584 3314 3078 
Q 3713 2572 3713 1747 
Q 3713 922 3314 415 
Q 2916 -91 2278 -91 
Q 1894 -91 1617 61 
Q 1341 213 1159 525 
L 1159 0 
L 581 0 
L 581 4863 
L 1159 4863 
L 1159 2969 
z
" transform="scale(0.015625)"/>
      <path id="DejaVuSans-69" d="M 603 3500 
L 1178 3500 
L 1178 0 
L 603 0 
L 603 3500 
z
M 603 4863 
L 1178 4863 
L 1178 4134 
L 603 4134 
L 603 4863 
z
" transform="scale(0.015625)"/>
      <path id="DejaVuSans-63" d="M 3122 3366 
L 3122 2828 
Q 2878 2963 2633 3030 
Q 2388 3097 2138 3097 
Q 1578 3097 1268 2742 
Q 959 2388 959 1747 
Q 959 1106 1268 751 
Q 1578 397 2138 397 
Q 2388 397 2633 464 
Q 2878 531 3122 666 
L 3122 134 
Q 2881 22 2623 -34 
Q 2366 -91 2075 -91 
Q 1284 -91 818 406 
Q 353 903 353 1747 
Q 353 2603 823 3093 
Q 1294 3584 2113 3584 
Q 2378 3584 2631 3529 
Q 2884 3475 3122 3366 
z
" transform="scale(0.015625)"/>
     </defs>
     <use xlink:href="#DejaVuSans-49"/>
     <use xlink:href="#DejaVuSans-61" x="29.492188"/>
     <use xlink:href="#DejaVuSans-6d" x="90.771484"/>
     <use xlink:href="#DejaVuSans-62" x="188.183594"/>
     <use xlink:href="#DejaVuSans-69" x="251.660156"/>
     <use xlink:href="#DejaVuSans-63" x="279.443359"/>
    </g>
   </g>
   <g id="text_13">
    <!-- Parse -->
    <g transform="translate(361.832136 121.629703)scale(0.08 -0.08)">
     <defs>
      <path id="DejaVuSans-72" d="M 2631 2963 
Q 2534 3019 2420 3045 
Q 2306 3072 2169 3072 
Q 1681 3072 1420 2755 
Q 1159 2438 1159 1844 
L 1159 0 
L 581 0 
L 581 3500 
L 1159 3500 
L 1159 2956 
Q 1341 3275 1631 3429 
Q 1922 3584 2338 3584 
Q 2397 3584 2469 3576 
Q 2541 3569 2628 3553 
L 2631 2963 
z
" transform="scale(0.015625)"/>
      <path id="DejaVuSans-73" d="M 2834 3397 
L 2834 2853 
Q 2591 2978 2328 3040 
Q 2066 3103 1784 3103 
Q 1356 3103 1142 2972 
Q 928 2841 928 2578 
Q 928 2378 1081 2264 
Q 1234 2150 1697 2047 
L 1894 2003 
Q 2506 1872 2764 1633 
Q 3022 1394 3022 966 
Q 3022 478 2636 193 
Q 2250 -91 1575 -91 
Q 1294 -91 989 -36 
Q 684 19 347 128 
L 347 722 
Q 666 556 975 473 
Q 1284 391 1588 391 
Q 1994 391 2212 530 
Q 2431 669 2431 922 
Q 2431 1156 2273 1281 
Q 2116 1406 1581 1522 
L 1381 1569 
Q 847 1681 609 1914 
Q 372 2147 372 2553 
Q 372 3047 722 3315 
Q 1072 3584 1716 3584 
Q 2034 3584 2315 3537 
Q 2597 3491 2834 3397 
z
" transform="scale(0.015625)"/>
      <path id="DejaVuSans-65" d="M 3597 1894 
L 3597 1613 
L 953 1613 
Q 991 1019 1311 708 
Q 1631 397 2203 397 
Q 2534 397 2845 478 
Q 3156 559 3463 722 
L 3463 178 
Q 3153 47 2828 -22 
Q 2503 -91 2169 -91 
Q 1331 -91 842 396 
Q 353 884 353 1716 
Q 353 2575 817 3079 
Q 1281 3584 2069 3584 
Q 2775 3584 3186 3129 
Q 3597 2675 3597 1894 
z
M 3022 2063 
Q 3016 2534 2758 2815 
Q 2500 3097 2075 3097 
Q 1594 3097 1305 2825 
Q 1016 2553 972 2059 
L 3022 2063 
z
" transform="scale(0.015625)"/>
     </defs>
     <use xlink:href="#DejaVuSans-50"/>
     <use xlink:href="#DejaVuSans-61" x="55.802734"/>
     <use xlink:href="#DejaVuSans-72" x="117.082031"/>
     <use xlink:href="#DejaVuSans-73" x="158.195312"/>
     <use xlink:href="#DejaVuSans-65" x="210.294922"/>
    </g>
   </g>
   <g id="text_14">
    <!-- FootBin -->
    <g transform="translate(361.832136 92.807656)scale(0.08 -0.08)">
     <defs>
      <path id="DejaVuSans-46" d="M 628 4666 
L 3309 4666 
L 3309 4134 
L 1259 4134 
L 1259 2759 
L 3109 2759 
L 3109 2228 
L 1259 2228 
L 1259 0 
L 628 0 
L 628 4666 
z
" transform="scale(0.015625)"/>
      <path id="DejaVuSans-6f" d="M 1959 3097 
Q 1497 3097 1228 2736 
Q 959 2375 959 1747 
Q 959 1119 1226 758 
Q 1494 397 1959 397 
Q 2419 397 2687 759 
Q 2956 1122 2956 1747 
Q 2956 2369 2687 2733 
Q 2419 3097 1959 3097 
z
M 1959 3584 
Q 2709 3584 3137 3096 
Q 3566 2609 3566 1747 
Q 3566 888 3137 398 
Q 2709 -91 1959 -91 
Q 1206 -91 779 398 
Q 353 888 353 1747 
Q 353 2609 779 3096 
Q 1206 3584 1959 3584 
z
" transform="scale(0.015625)"/>
      <path id="DejaVuSans-74" d="M 1172 4494 
L 1172 3500 
L 2356 3500 
L 2356 3053 
L 1172 3053 
L 1172 1153 
Q 1172 725 1289 603 
Q 1406 481 1766 481 
L 2356 481 
L 2356 0 
L 1766 0 
Q 1100 0 847 248 
Q 594 497 594 1153 
L 594 3053 
L 172 3053 
L 172 3500 
L 594 3500 
L 594 4494 
L 1172 4494 
z
" transform="scale(0.015625)"/>
      <path id="DejaVuSans-42" d="M 1259 2228 
L 1259 519 
L 2272 519 
Q 2781 519 3026 730 
Q 3272 941 3272 1375 
Q 3272 1813 3026 2020 
Q 2781 2228 2272 2228 
L 1259 2228 
z
M 1259 4147 
L 1259 2741 
L 2194 2741 
Q 2656 2741 2882 2914 
Q 3109 3088 3109 3444 
Q 3109 3797 2882 3972 
Q 2656 4147 2194 4147 
L 1259 4147 
z
M 628 4666 
L 2241 4666 
Q 2963 4666 3353 4366 
Q 3744 4066 3744 3513 
Q 3744 3084 3544 2831 
Q 3344 2578 2956 2516 
Q 3422 2416 3680 2098 
Q 3938 1781 3938 1306 
Q 3938 681 3513 340 
Q 3088 0 2303 0 
L 628 0 
L 628 4666 
z
" transform="scale(0.015625)"/>
      <path id="DejaVuSans-6e" d="M 3513 2113 
L 3513 0 
L 2938 0 
L 2938 2094 
Q 2938 2591 2744 2837 
Q 2550 3084 2163 3084 
Q 1697 3084 1428 2787 
Q 1159 2491 1159 1978 
L 1159 0 
L 581 0 
L 581 3500 
L 1159 3500 
L 1159 2956 
Q 1366 3272 1645 3428 
Q 1925 3584 2291 3584 
Q 2894 3584 3203 3211 
Q 3513 2838 3513 2113 
z
" transform="scale(0.015625)"/>
     </defs>
     <use xlink:href="#DejaVuSans-46"/>
     <use xlink:href="#DejaVuSans-6f" x="53.894531"/>
     <use xlink:href="#DejaVuSans-6f" x="115.076172"/>
     <use xlink:href="#DejaVuSans-74" x="176.257812"/>
     <use xlink:href="#DejaVuSans-42" x="215.466797"/>
     <use xlink:href="#DejaVuSans-69" x="284.070312"/>
     <use xlink:href="#DejaVuSans-6e" x="311.853516"/>
    </g>
   </g>
   <g id="text_15">
    <!-- WFL -->
    <g transform="translate(361.832136 62.017837)scale(0.08 -0.08)">
     <defs>
      <path id="DejaVuSans-4c" d="M 628 4666 
L 1259 4666 
L 1259 531 
L 3531 531 
L 3531 0 
L 628 0 
L 628 4666 
z
" transform="scale(0.015625)"/>
     </defs>
     <use xlink:href="#DejaVuSans-57"/>
     <use xlink:href="#DejaVuSans-46" x="98.876953"/>
     <use xlink:href="#DejaVuSans-4c" x="156.396484"/>
    </g>
   </g>
   <g id="text_16">
    <!-- WFR -->
    <g transform="translate(361.832136 54.436134)scale(0.08 -0.08)">
     <defs>
      <path id="DejaVuSans-52" d="M 2841 2188 
Q 3044 2119 3236 1894 
Q 3428 1669 3622 1275 
L 4263 0 
L 3584 0 
L 2988 1197 
Q 2756 1666 2539 1819 
Q 2322 1972 1947 1972 
L 1259 1972 
L 1259 0 
L 628 0 
L 628 4666 
L 2053 4666 
Q 2853 4666 3247 4331 
Q 3641 3997 3641 3322 
Q 3641 2881 3436 2590 
Q 3231 2300 2841 2188 
z
M 1259 4147 
L 1259 2491 
L 2053 2491 
Q 2509 2491 2742 2702 
Q 2975 2913 2975 3322 
Q 2975 3731 2742 3939 
Q 2509 4147 2053 4147 
L 1259 4147 
z
" transform="scale(0.015625)"/>
     </defs>
     <use xlink:href="#DejaVuSans-57"/>
     <use xlink:href="#DejaVuSans-46" x="98.876953"/>
     <use xlink:href="#DejaVuSans-52" x="156.396484"/>
    </g>
   </g>
   <g id="text_17">
    <!-- Main-L -->
    <g transform="translate(361.832136 53.04712)scale(0.08 -0.08)">
     <defs>
      <path id="DejaVuSans-4d" d="M 628 4666 
L 1569 4666 
L 2759 1491 
L 3956 4666 
L 4897 4666 
L 4897 0 
L 4281 0 
L 4281 4097 
L 3078 897 
L 2444 897 
L 1241 4097 
L 1241 0 
L 628 0 
L 628 4666 
z
" transform="scale(0.015625)"/>
      <path id="DejaVuSans-2d" d="M 313 2009 
L 1997 2009 
L 1997 1497 
L 313 1497 
L 313 2009 
z
" transform="scale(0.015625)"/>
     </defs>
     <use xlink:href="#DejaVuSans-4d"/>
     <use xlink:href="#DejaVuSans-61" x="86.279297"/>
     <use xlink:href="#DejaVuSans-69" x="147.558594"/>
     <use xlink:href="#DejaVuSans-6e" x="175.341797"/>
     <use xlink:href="#DejaVuSans-2d" x="238.720703"/>
     <use xlink:href="#DejaVuSans-4c" x="274.804688"/>
    </g>
   </g>
   <g id="text_18">
    <!-- Main-R -->
    <g transform="translate(361.832136 126.66488)scale(0.08 -0.08)">
     <use xlink:href="#DejaVuSans-4d"/>
     <use xlink:href="#DejaVuSans-61" x="86.279297"/>
     <use xlink:href="#DejaVuSans-69" x="147.558594"/>
     <use xlink:href="#DejaVuSans-6e" x="175.341797"/>
     <use xlink:href="#DejaVuSans-2d" x="238.720703"/>
     <use xlink:href="#DejaVuSans-52" x="274.804688"/>
    </g>
   </g>
   <g id="text_19">
    <!-- AFL -->
    <g transform="translate(361.832136 132.741818)scale(0.08 -0.08)">
     <defs>
      <path id="DejaVuSans-41" d="M 2188 4044 
L 1331 1722 
L 3047 1722 
L 2188 4044 
z
M 1831 4666 
L 2547 4666 
L 4325 0 
L 3669 0 
L 3244 1197 
L 1141 1197 
L 716 0 
L 50 0 
L 1831 4666 
z
" transform="scale(0.015625)"/>
     </defs>
     <use xlink:href="#DejaVuSans-41"/>
     <use xlink:href="#DejaVuSans-46" x="68.408203"/>
     <use xlink:href="#DejaVuSans-4c" x="125.927734"/>
    </g>
   </g>
   <g id="text_20">
    <!-- AFR -->
    <g transform="translate(361.832136 88.177608)scale(0.08 -0.08)">
     <use xlink:href="#DejaVuSans-41"/>
     <use xlink:href="#DejaVuSans-46" x="68.408203"/>
     <use xlink:href="#DejaVuSans-52" x="125.927734"/>
    </g>
   </g>
   <g id="text_21">
    <!-- Nonfinal -->
    <g transform="translate(361.832136 112.022354)scale(0.08 -0.08)">
     <defs>
      <path id="DejaVuSans-4e" d="M 628 4666 
L 1478 4666 
L 3547 763 
L 3547 4666 
L 4159 4666 
L 4159 0 
L 3309 0 
L 1241 3903 
L 1241 0 
L 628 0 
L 628 4666 
z
" transform="scale(0.015625)"/>
      <path id="DejaVuSans-66" d="M 2375 4863 
L 2375 4384 
L 1825 4384 
Q 1516 4384 1395 4259 
Q 1275 4134 1275 3809 
L 1275 3500 
L 2222 3500 
L 2222 3053 
L 1275 3053 
L 1275 0 
L 697 0 
L 697 3053 
L 147 3053 
L 147 3500 
L 697 3500 
L 697 3744 
Q 697 4328 969 4595 
Q 1241 4863 1831 4863 
L 2375 4863 
z
" transform="scale(0.015625)"/>
      <path id="DejaVuSans-6c" d="M 603 4863 
L 1178 4863 
L 1178 0 
L 603 0 
L 603 4863 
z
" transform="scale(0.015625)"/>
     </defs>
     <use xlink:href="#DejaVuSans-4e"/>
     <use xlink:href="#DejaVuSans-6f" x="74.804688"/>
     <use xlink:href="#DejaVuSans-6e" x="135.986328"/>
     <use xlink:href="#DejaVuSans-66" x="199.365234"/>
     <use xlink:href="#DejaVuSans-69" x="234.570312"/>
     <use xlink:href="#DejaVuSans-6e" x="262.353516"/>
     <use xlink:href="#DejaVuSans-61" x="325.732422"/>
     <use xlink:href="#DejaVuSans-6c" x="387.011719"/>
    </g>
   </g>
   <g id="text_22">
    <!-- Trochaic -->
    <g transform="translate(361.832136 156.933818)scale(0.08 -0.08)">
     <defs>
      <path id="DejaVuSans-54" d="M -19 4666 
L 3928 4666 
L 3928 4134 
L 2272 4134 
L 2272 0 
L 1638 0 
L 1638 4134 
L -19 4134 
L -19 4666 
z
" transform="scale(0.015625)"/>
      <path id="DejaVuSans-68" d="M 3513 2113 
L 3513 0 
L 2938 0 
L 2938 2094 
Q 2938 2591 2744 2837 
Q 2550 3084 2163 3084 
Q 1697 3084 1428 2787 
Q 1159 2491 1159 1978 
L 1159 0 
L 581 0 
L 581 4863 
L 1159 4863 
L 1159 2956 
Q 1366 3272 1645 3428 
Q 1925 3584 2291 3584 
Q 2894 3584 3203 3211 
Q 3513 2838 3513 2113 
z
" transform="scale(0.015625)"/>
     </defs>
     <use xlink:href="#DejaVuSans-54"/>
     <use xlink:href="#DejaVuSans-72" x="46.333984"/>
     <use xlink:href="#DejaVuSans-6f" x="85.197266"/>
     <use xlink:href="#DejaVuSans-63" x="146.378906"/>
     <use xlink:href="#DejaVuSans-68" x="201.359375"/>
     <use xlink:href="#DejaVuSans-61" x="264.738281"/>
     <use xlink:href="#DejaVuSans-69" x="326.017578"/>
     <use xlink:href="#DejaVuSans-63" x="353.800781"/>
    </g>
   </g>
  </g>
  <g id="axes_2">
   <g id="patch_7">
    <path d="M 57.6 307.584 
L 414.72 307.584 
L 414.72 186.624 
L 57.6 186.624 
z
" style="fill: #ffffff"/>
   </g>
   <g id="matplotlib.axis_3">
    <g id="xtick_8">
     <g id="line2d_23">
      <g>
       <use xlink:href="#m50e2bfc324" x="70.711049" y="307.584" style="stroke: #000000; stroke-width: 0.8"/>
      </g>
     </g>
     <g id="text_23">
      <!-- 0 -->
      <g transform="translate(67.529799 322.182437)scale(0.1 -0.1)">
       <use xlink:href="#DejaVuSans-30"/>
      </g>
     </g>
    </g>
    <g id="xtick_9">
     <g id="line2d_24">
      <g>
       <use xlink:href="#m50e2bfc324" x="133.144615" y="307.584" style="stroke: #000000; stroke-width: 0.8"/>
      </g>
     </g>
     <g id="text_24">
      <!-- 20 -->
      <g transform="translate(126.782115 322.182437)scale(0.1 -0.1)">
       <use xlink:href="#DejaVuSans-32"/>
       <use xlink:href="#DejaVuSans-30" x="63.623047"/>
      </g>
     </g>
    </g>
    <g id="xtick_10">
     <g id="line2d_25">
      <g>
       <use xlink:href="#m50e2bfc324" x="195.578182" y="307.584" style="stroke: #000000; stroke-width: 0.8"/>
      </g>
     </g>
     <g id="text_25">
      <!-- 40 -->
      <g transform="translate(189.215682 322.182437)scale(0.1 -0.1)">
       <use xlink:href="#DejaVuSans-34"/>
       <use xlink:href="#DejaVuSans-30" x="63.623047"/>
      </g>
     </g>
    </g>
    <g id="xtick_11">
     <g id="line2d_26">
      <g>
       <use xlink:href="#m50e2bfc324" x="258.011748" y="307.584" style="stroke: #000000; stroke-width: 0.8"/>
      </g>
     </g>
     <g id="text_26">
      <!-- 60 -->
      <g transform="translate(251.649248 322.182437)scale(0.1 -0.1)">
       <use xlink:href="#DejaVuSans-36"/>
       <use xlink:href="#DejaVuSans-30" x="63.623047"/>
      </g>
     </g>
    </g>
    <g id="xtick_12">
     <g id="line2d_27">
      <g>
       <use xlink:href="#m50e2bfc324" x="320.445315" y="307.584" style="stroke: #000000; stroke-width: 0.8"/>
      </g>
     </g>
     <g id="text_27">
      <!-- 80 -->
      <g transform="translate(314.082815 322.182437)scale(0.1 -0.1)">
       <use xlink:href="#DejaVuSans-38"/>
       <use xlink:href="#DejaVuSans-30" x="63.623047"/>
      </g>
     </g>
    </g>
    <g id="xtick_13">
     <g id="line2d_28">
      <g>
       <use xlink:href="#m50e2bfc324" x="382.878881" y="307.584" style="stroke: #000000; stroke-width: 0.8"/>
      </g>
     </g>
     <g id="text_28">
      <!-- 100 -->
      <g transform="translate(373.335131 322.182437)scale(0.1 -0.1)">
       <use xlink:href="#DejaVuSans-31"/>
       <use xlink:href="#DejaVuSans-30" x="63.623047"/>
       <use xlink:href="#DejaVuSans-30" x="127.246094"/>
      </g>
     </g>
    </g>
   </g>
   <g id="matplotlib.axis_4">
    <g id="ytick_4">
     <g id="line2d_29">
      <g>
       <use xlink:href="#maf95474984" x="57.6" y="302.095765" style="stroke: #000000; stroke-width: 0.8"/>
      </g>
     </g>
     <g id="text_29">
      <!-- 0 -->
      <g transform="translate(44.2375 305.894984)scale(0.1 -0.1)">
       <use xlink:href="#DejaVuSans-30"/>
      </g>
     </g>
    </g>
    <g id="ytick_5">
     <g id="line2d_30">
      <g>
       <use xlink:href="#maf95474984" x="57.6" y="277.228367" style="stroke: #000000; stroke-width: 0.8"/>
      </g>
     </g>
     <g id="text_30">
      <!-- 2500 -->
      <g transform="translate(25.15 281.027585)scale(0.1 -0.1)">
       <use xlink:href="#DejaVuSans-32"/>
       <use xlink:href="#DejaVuSans-35" x="63.623047"/>
       <use xlink:href="#DejaVuSans-30" x="127.246094"/>
       <use xlink:href="#DejaVuSans-30" x="190.869141"/>
      </g>
     </g>
    </g>
    <g id="ytick_6">
     <g id="line2d_31">
      <g>
       <use xlink:href="#maf95474984" x="57.6" y="252.360968" style="stroke: #000000; stroke-width: 0.8"/>
      </g>
     </g>
     <g id="text_31">
      <!-- 5000 -->
      <g transform="translate(25.15 256.160187)scale(0.1 -0.1)">
       <use xlink:href="#DejaVuSans-35"/>
       <use xlink:href="#DejaVuSans-30" x="63.623047"/>
       <use xlink:href="#DejaVuSans-30" x="127.246094"/>
       <use xlink:href="#DejaVuSans-30" x="190.869141"/>
      </g>
     </g>
    </g>
    <g id="ytick_7">
     <g id="line2d_32">
      <g>
       <use xlink:href="#maf95474984" x="57.6" y="227.49357" style="stroke: #000000; stroke-width: 0.8"/>
      </g>
     </g>
     <g id="text_32">
      <!-- 7500 -->
      <g transform="translate(25.15 231.292788)scale(0.1 -0.1)">
       <defs>
        <path id="DejaVuSans-37" d="M 525 4666 
L 3525 4666 
L 3525 4397 
L 1831 0 
L 1172 0 
L 2766 4134 
L 525 4134 
L 525 4666 
z
" transform="scale(0.015625)"/>
       </defs>
       <use xlink:href="#DejaVuSans-37"/>
       <use xlink:href="#DejaVuSans-35" x="63.623047"/>
       <use xlink:href="#DejaVuSans-30" x="127.246094"/>
       <use xlink:href="#DejaVuSans-30" x="190.869141"/>
      </g>
     </g>
    </g>
    <g id="ytick_8">
     <g id="line2d_33">
      <g>
       <use xlink:href="#maf95474984" x="57.6" y="202.626171" style="stroke: #000000; stroke-width: 0.8"/>
      </g>
     </g>
     <g id="text_33">
      <!-- 10000 -->
      <g transform="translate(18.7875 206.42539)scale(0.1 -0.1)">
       <use xlink:href="#DejaVuSans-31"/>
       <use xlink:href="#DejaVuSans-30" x="63.623047"/>
       <use xlink:href="#DejaVuSans-30" x="127.246094"/>
       <use xlink:href="#DejaVuSans-30" x="190.869141"/>
       <use xlink:href="#DejaVuSans-30" x="254.492188"/>
      </g>
     </g>
    </g>
   </g>
   <g id="line2d_34">
    <path d="M 73.832727 302.085818 
L 76.954406 302.085818 
L 80.076084 302.085818 
L 83.197762 302.085818 
L 86.319441 302.075871 
L 89.441119 302.085818 
L 92.562797 302.085818 
L 95.684476 302.085818 
L 98.806154 302.075871 
L 101.927832 302.065924 
L 105.04951 302.075871 
L 108.171189 302.036083 
L 111.292867 302.026136 
L 114.414545 302.075871 
L 117.536224 302.065924 
L 120.657902 302.036083 
L 123.77958 302.065924 
L 126.901259 302.085818 
L 130.022937 302.085818 
L 133.144615 302.085818 
L 136.266294 302.016189 
L 139.387972 302.016189 
L 142.50965 302.036083 
L 145.631329 301.986349 
L 148.753007 302.085818 
L 151.874685 302.04603 
L 154.996364 302.036083 
L 158.118042 301.986349 
L 161.23972 302.04603 
L 164.361399 302.016189 
L 167.483077 302.075871 
L 170.604755 302.016189 
L 173.726434 302.075871 
L 176.848112 302.036083 
L 179.96979 302.006243 
L 183.091469 302.026136 
L 186.213147 302.036083 
L 189.334825 301.618311 
L 192.456503 301.866985 
L 195.578182 302.085818 
L 198.69986 301.906773 
L 201.821538 301.946561 
L 204.943217 301.956508 
L 208.064895 301.946561 
L 211.186573 302.085818 
L 214.308252 301.827197 
L 217.42993 301.827197 
L 220.551608 301.81725 
L 223.673287 301.946561 
L 226.794965 301.886879 
L 229.916643 302.04603 
L 233.038322 302.085818 
L 236.16 302.006243 
L 239.281678 302.04603 
L 242.403357 301.489001 
L 245.525035 302.016189 
L 248.646713 301.280114 
L 251.768392 302.026136 
L 254.89007 301.489001 
L 258.011748 301.896826 
L 261.133427 301.548682 
L 264.255105 301.697887 
L 267.376783 299.947222 
L 270.498462 301.866985 
L 273.62014 300.723085 
L 276.741818 301.787409 
L 279.863497 301.737675 
L 282.985175 301.528788 
L 286.106853 301.936614 
L 289.228531 301.936614 
L 292.35021 301.419372 
L 295.471888 297.241649 
L 298.593566 301.896826 
L 301.715245 299.290723 
L 304.836923 300.912077 
L 307.958601 301.757569 
L 311.08028 298.077194 
L 314.201958 299.98701 
L 317.323636 300.703191 
L 320.445315 301.369637 
L 323.566993 302.026136 
L 326.688671 298.007565 
L 329.81035 301.747622 
L 332.932028 301.558629 
L 336.053706 293.08382 
L 339.175385 299.549344 
L 342.297063 301.677993 
L 345.418741 301.091122 
L 348.54042 298.097087 
L 351.662098 301.250274 
L 354.783776 289.492968 
L 357.905455 280.938582 
L 361.027133 282.152112 
L 364.148811 299.718442 
L 367.27049 206.316493 
L 370.392168 297.390853 
L 373.513846 299.967116 
L 376.635524 268.435254 
L 379.757203 287.891507 
L 382.878881 293.302653 
L 386.000559 216.571808 
L 389.122238 271.270138 
L 392.243916 269.141489 
L 395.365594 192.122182 
L 398.487273 234.098351 
" clip-path="url(#p5672e770b5)" style="fill: none; stroke: #1f77b4; stroke-width: 1.5; stroke-linecap: square"/>
   </g>
   <g id="patch_8">
    <path d="M 57.6 307.584 
L 57.6 186.624 
" style="fill: none; stroke: #000000; stroke-width: 0.8; stroke-linejoin: miter; stroke-linecap: square"/>
   </g>
   <g id="patch_9">
    <path d="M 414.72 307.584 
L 414.72 186.624 
" style="fill: none; stroke: #000000; stroke-width: 0.8; stroke-linejoin: miter; stroke-linecap: square"/>
   </g>
   <g id="patch_10">
    <path d="M 57.6 307.584 
L 414.72 307.584 
" style="fill: none; stroke: #000000; stroke-width: 0.8; stroke-linejoin: miter; stroke-linecap: square"/>
   </g>
   <g id="patch_11">
    <path d="M 57.6 186.624 
L 414.72 186.624 
" style="fill: none; stroke: #000000; stroke-width: 0.8; stroke-linejoin: miter; stroke-linecap: square"/>
   </g>
  </g>
 </g>
 <defs>
  <clipPath id="p03ee5f28cc">
   <rect x="57.6" y="41.472" width="357.12" height="120.96"/>
  </clipPath>
  <clipPath id="p5672e770b5">
   <rect x="57.6" y="186.624" width="357.12" height="120.96"/>
  </clipPath>
 </defs>
</svg>
