<?xml version="1.0" encoding="utf-8" standalone="no"?>
<!DOCTYPE svg PUBLIC "-//W3C//DTD SVG 1.1//EN"
  "http://www.w3.org/Graphics/SVG/1.1/DTD/svg11.dtd">
<svg xmlns:xlink="http://www.w3.org/1999/xlink" width="460.8pt" height="345.6pt" viewBox="0 0 460.8 345.6" xmlns="http://www.w3.org/2000/svg" version="1.1">
 <metadata>
  <rdf:RDF xmlns:dc="http://purl.org/dc/elements/1.1/" xmlns:cc="http://creativecommons.org/ns#" xmlns:rdf="http://www.w3.org/1999/02/22-rdf-syntax-ns#">
   <cc:Work>
    <dc:type rdf:resource="http://purl.org/dc/dcmitype/StillImage"/>
    <dc:date>2022-05-13T11:53:07.107450</dc:date>
    <dc:format>image/svg+xml</dc:format>
    <dc:creator>
     <cc:Agent>
      <dc:title>Matplotlib v3.5.1, https://matplotlib.org/</dc:title>
     </cc:Agent>
    </dc:creator>
   </cc:Work>
  </rdf:RDF>
 </metadata>
 <defs>
  <style type="text/css">*{stroke-linejoin: round; stroke-linecap: butt}</style>
 </defs>
 <g id="figure_1">
  <g id="patch_1">
   <path d="M 0 345.6 
L 460.8 345.6 
L 460.8 0 
L 0 0 
z
" style="fill: #ffffff"/>
  </g>
  <g id="axes_1">
   <g id="patch_2">
    <path d="M 57.6 162.432 
L 414.72 162.432 
L 414.72 41.472 
L 57.6 41.472 
z
" style="fill: #ffffff"/>
   </g>
   <g id="matplotlib.axis_1">
    <g id="xtick_1">
     <g id="line2d_1">
      <defs>
       <path id="m8d2fa8f148" d="M 0 0 
L 0 3.5 
" style="stroke: #000000; stroke-width: 0.8"/>
      </defs>
      <g>
       <use xlink:href="#m8d2fa8f148" x="73.827491" y="162.432" style="stroke: #000000; stroke-width: 0.8"/>
      </g>
     </g>
     <g id="text_1">
      <!-- 0 -->
      <g transform="translate(70.646241 177.030437)scale(0.1 -0.1)">
       <defs>
        <path id="DejaVuSans-30" d="M 2034 4250 
Q 1547 4250 1301 3770 
Q 1056 3291 1056 2328 
Q 1056 1369 1301 889 
Q 1547 409 2034 409 
Q 2525 409 2770 889 
Q 3016 1369 3016 2328 
Q 3016 3291 2770 3770 
Q 2525 4250 2034 4250 
z
M 2034 4750 
Q 2819 4750 3233 4129 
Q 3647 3509 3647 2328 
Q 3647 1150 3233 529 
Q 2819 -91 2034 -91 
Q 1250 -91 836 529 
Q 422 1150 422 2328 
Q 422 3509 836 4129 
Q 1250 4750 2034 4750 
z
" transform="scale(0.015625)"/>
       </defs>
       <use xlink:href="#DejaVuSans-30"/>
      </g>
     </g>
    </g>
    <g id="xtick_2">
     <g id="line2d_2">
      <g>
       <use xlink:href="#m8d2fa8f148" x="126.191972" y="162.432" style="stroke: #000000; stroke-width: 0.8"/>
      </g>
     </g>
     <g id="text_2">
      <!-- 10000 -->
      <g transform="translate(110.285722 177.030437)scale(0.1 -0.1)">
       <defs>
        <path id="DejaVuSans-31" d="M 794 531 
L 1825 531 
L 1825 4091 
L 703 3866 
L 703 4441 
L 1819 4666 
L 2450 4666 
L 2450 531 
L 3481 531 
L 3481 0 
L 794 0 
L 794 531 
z
" transform="scale(0.015625)"/>
       </defs>
       <use xlink:href="#DejaVuSans-31"/>
       <use xlink:href="#DejaVuSans-30" x="63.623047"/>
       <use xlink:href="#DejaVuSans-30" x="127.246094"/>
       <use xlink:href="#DejaVuSans-30" x="190.869141"/>
       <use xlink:href="#DejaVuSans-30" x="254.492188"/>
      </g>
     </g>
    </g>
    <g id="xtick_3">
     <g id="line2d_3">
      <g>
       <use xlink:href="#m8d2fa8f148" x="178.556453" y="162.432" style="stroke: #000000; stroke-width: 0.8"/>
      </g>
     </g>
     <g id="text_3">
      <!-- 20000 -->
      <g transform="translate(162.650203 177.030437)scale(0.1 -0.1)">
       <defs>
        <path id="DejaVuSans-32" d="M 1228 531 
L 3431 531 
L 3431 0 
L 469 0 
L 469 531 
Q 828 903 1448 1529 
Q 2069 2156 2228 2338 
Q 2531 2678 2651 2914 
Q 2772 3150 2772 3378 
Q 2772 3750 2511 3984 
Q 2250 4219 1831 4219 
Q 1534 4219 1204 4116 
Q 875 4013 500 3803 
L 500 4441 
Q 881 4594 1212 4672 
Q 1544 4750 1819 4750 
Q 2544 4750 2975 4387 
Q 3406 4025 3406 3419 
Q 3406 3131 3298 2873 
Q 3191 2616 2906 2266 
Q 2828 2175 2409 1742 
Q 1991 1309 1228 531 
z
" transform="scale(0.015625)"/>
       </defs>
       <use xlink:href="#DejaVuSans-32"/>
       <use xlink:href="#DejaVuSans-30" x="63.623047"/>
       <use xlink:href="#DejaVuSans-30" x="127.246094"/>
       <use xlink:href="#DejaVuSans-30" x="190.869141"/>
       <use xlink:href="#DejaVuSans-30" x="254.492188"/>
      </g>
     </g>
    </g>
    <g id="xtick_4">
     <g id="line2d_4">
      <g>
       <use xlink:href="#m8d2fa8f148" x="230.920934" y="162.432" style="stroke: #000000; stroke-width: 0.8"/>
      </g>
     </g>
     <g id="text_4">
      <!-- 30000 -->
      <g transform="translate(215.014684 177.030437)scale(0.1 -0.1)">
       <defs>
        <path id="DejaVuSans-33" d="M 2597 2516 
Q 3050 2419 3304 2112 
Q 3559 1806 3559 1356 
Q 3559 666 3084 287 
Q 2609 -91 1734 -91 
Q 1441 -91 1130 -33 
Q 819 25 488 141 
L 488 750 
Q 750 597 1062 519 
Q 1375 441 1716 441 
Q 2309 441 2620 675 
Q 2931 909 2931 1356 
Q 2931 1769 2642 2001 
Q 2353 2234 1838 2234 
L 1294 2234 
L 1294 2753 
L 1863 2753 
Q 2328 2753 2575 2939 
Q 2822 3125 2822 3475 
Q 2822 3834 2567 4026 
Q 2313 4219 1838 4219 
Q 1578 4219 1281 4162 
Q 984 4106 628 3988 
L 628 4550 
Q 988 4650 1302 4700 
Q 1616 4750 1894 4750 
Q 2613 4750 3031 4423 
Q 3450 4097 3450 3541 
Q 3450 3153 3228 2886 
Q 3006 2619 2597 2516 
z
" transform="scale(0.015625)"/>
       </defs>
       <use xlink:href="#DejaVuSans-33"/>
       <use xlink:href="#DejaVuSans-30" x="63.623047"/>
       <use xlink:href="#DejaVuSans-30" x="127.246094"/>
       <use xlink:href="#DejaVuSans-30" x="190.869141"/>
       <use xlink:href="#DejaVuSans-30" x="254.492188"/>
      </g>
     </g>
    </g>
    <g id="xtick_5">
     <g id="line2d_5">
      <g>
       <use xlink:href="#m8d2fa8f148" x="283.285415" y="162.432" style="stroke: #000000; stroke-width: 0.8"/>
      </g>
     </g>
     <g id="text_5">
      <!-- 40000 -->
      <g transform="translate(267.379165 177.030437)scale(0.1 -0.1)">
       <defs>
        <path id="DejaVuSans-34" d="M 2419 4116 
L 825 1625 
L 2419 1625 
L 2419 4116 
z
M 2253 4666 
L 3047 4666 
L 3047 1625 
L 3713 1625 
L 3713 1100 
L 3047 1100 
L 3047 0 
L 2419 0 
L 2419 1100 
L 313 1100 
L 313 1709 
L 2253 4666 
z
" transform="scale(0.015625)"/>
       </defs>
       <use xlink:href="#DejaVuSans-34"/>
       <use xlink:href="#DejaVuSans-30" x="63.623047"/>
       <use xlink:href="#DejaVuSans-30" x="127.246094"/>
       <use xlink:href="#DejaVuSans-30" x="190.869141"/>
       <use xlink:href="#DejaVuSans-30" x="254.492188"/>
      </g>
     </g>
    </g>
    <g id="xtick_6">
     <g id="line2d_6">
      <g>
       <use xlink:href="#m8d2fa8f148" x="335.649896" y="162.432" style="stroke: #000000; stroke-width: 0.8"/>
      </g>
     </g>
     <g id="text_6">
      <!-- 50000 -->
      <g transform="translate(319.743646 177.030437)scale(0.1 -0.1)">
       <defs>
        <path id="DejaVuSans-35" d="M 691 4666 
L 3169 4666 
L 3169 4134 
L 1269 4134 
L 1269 2991 
Q 1406 3038 1543 3061 
Q 1681 3084 1819 3084 
Q 2600 3084 3056 2656 
Q 3513 2228 3513 1497 
Q 3513 744 3044 326 
Q 2575 -91 1722 -91 
Q 1428 -91 1123 -41 
Q 819 9 494 109 
L 494 744 
Q 775 591 1075 516 
Q 1375 441 1709 441 
Q 2250 441 2565 725 
Q 2881 1009 2881 1497 
Q 2881 1984 2565 2268 
Q 2250 2553 1709 2553 
Q 1456 2553 1204 2497 
Q 953 2441 691 2322 
L 691 4666 
z
" transform="scale(0.015625)"/>
       </defs>
       <use xlink:href="#DejaVuSans-35"/>
       <use xlink:href="#DejaVuSans-30" x="63.623047"/>
       <use xlink:href="#DejaVuSans-30" x="127.246094"/>
       <use xlink:href="#DejaVuSans-30" x="190.869141"/>
       <use xlink:href="#DejaVuSans-30" x="254.492188"/>
      </g>
     </g>
    </g>
    <g id="xtick_7">
     <g id="line2d_7">
      <g>
       <use xlink:href="#m8d2fa8f148" x="388.014377" y="162.432" style="stroke: #000000; stroke-width: 0.8"/>
      </g>
     </g>
     <g id="text_7">
      <!-- 60000 -->
      <g transform="translate(372.108127 177.030437)scale(0.1 -0.1)">
       <defs>
        <path id="DejaVuSans-36" d="M 2113 2584 
Q 1688 2584 1439 2293 
Q 1191 2003 1191 1497 
Q 1191 994 1439 701 
Q 1688 409 2113 409 
Q 2538 409 2786 701 
Q 3034 994 3034 1497 
Q 3034 2003 2786 2293 
Q 2538 2584 2113 2584 
z
M 3366 4563 
L 3366 3988 
Q 3128 4100 2886 4159 
Q 2644 4219 2406 4219 
Q 1781 4219 1451 3797 
Q 1122 3375 1075 2522 
Q 1259 2794 1537 2939 
Q 1816 3084 2150 3084 
Q 2853 3084 3261 2657 
Q 3669 2231 3669 1497 
Q 3669 778 3244 343 
Q 2819 -91 2113 -91 
Q 1303 -91 875 529 
Q 447 1150 447 2328 
Q 447 3434 972 4092 
Q 1497 4750 2381 4750 
Q 2619 4750 2861 4703 
Q 3103 4656 3366 4563 
z
" transform="scale(0.015625)"/>
       </defs>
       <use xlink:href="#DejaVuSans-36"/>
       <use xlink:href="#DejaVuSans-30" x="63.623047"/>
       <use xlink:href="#DejaVuSans-30" x="127.246094"/>
       <use xlink:href="#DejaVuSans-30" x="190.869141"/>
       <use xlink:href="#DejaVuSans-30" x="254.492188"/>
      </g>
     </g>
    </g>
   </g>
   <g id="matplotlib.axis_2">
    <g id="ytick_1">
     <g id="line2d_8">
      <defs>
       <path id="m91735c59f0" d="M 0 0 
L -3.5 0 
" style="stroke: #000000; stroke-width: 0.8"/>
      </defs>
      <g>
       <use xlink:href="#m91735c59f0" x="57.6" y="129.054091" style="stroke: #000000; stroke-width: 0.8"/>
      </g>
     </g>
     <g id="text_8">
      <!-- 60 -->
      <g transform="translate(37.875 132.853309)scale(0.1 -0.1)">
       <use xlink:href="#DejaVuSans-36"/>
       <use xlink:href="#DejaVuSans-30" x="63.623047"/>
      </g>
     </g>
    </g>
    <g id="ytick_2">
     <g id="line2d_9">
      <g>
       <use xlink:href="#m91735c59f0" x="57.6" y="94.492445" style="stroke: #000000; stroke-width: 0.8"/>
      </g>
     </g>
     <g id="text_9">
      <!-- 80 -->
      <g transform="translate(37.875 98.291664)scale(0.1 -0.1)">
       <defs>
        <path id="DejaVuSans-38" d="M 2034 2216 
Q 1584 2216 1326 1975 
Q 1069 1734 1069 1313 
Q 1069 891 1326 650 
Q 1584 409 2034 409 
Q 2484 409 2743 651 
Q 3003 894 3003 1313 
Q 3003 1734 2745 1975 
Q 2488 2216 2034 2216 
z
M 1403 2484 
Q 997 2584 770 2862 
Q 544 3141 544 3541 
Q 544 4100 942 4425 
Q 1341 4750 2034 4750 
Q 2731 4750 3128 4425 
Q 3525 4100 3525 3541 
Q 3525 3141 3298 2862 
Q 3072 2584 2669 2484 
Q 3125 2378 3379 2068 
Q 3634 1759 3634 1313 
Q 3634 634 3220 271 
Q 2806 -91 2034 -91 
Q 1263 -91 848 271 
Q 434 634 434 1313 
Q 434 1759 690 2068 
Q 947 2378 1403 2484 
z
M 1172 3481 
Q 1172 3119 1398 2916 
Q 1625 2713 2034 2713 
Q 2441 2713 2670 2916 
Q 2900 3119 2900 3481 
Q 2900 3844 2670 4047 
Q 2441 4250 2034 4250 
Q 1625 4250 1398 4047 
Q 1172 3844 1172 3481 
z
" transform="scale(0.015625)"/>
       </defs>
       <use xlink:href="#DejaVuSans-38"/>
       <use xlink:href="#DejaVuSans-30" x="63.623047"/>
      </g>
     </g>
    </g>
    <g id="ytick_3">
     <g id="line2d_10">
      <g>
       <use xlink:href="#m91735c59f0" x="57.6" y="59.930799" style="stroke: #000000; stroke-width: 0.8"/>
      </g>
     </g>
     <g id="text_10">
      <!-- 100 -->
      <g transform="translate(31.5125 63.730018)scale(0.1 -0.1)">
       <use xlink:href="#DejaVuSans-31"/>
       <use xlink:href="#DejaVuSans-30" x="63.623047"/>
       <use xlink:href="#DejaVuSans-30" x="127.246094"/>
      </g>
     </g>
    </g>
   </g>
   <g id="line2d_11">
    <path d="M 73.832727 59.642785 
L 73.864146 57.770696 
L 73.900801 62.378916 
L 73.93222 60.36282 
L 73.968875 60.36282 
L 74.047422 59.52758 
L 74.089313 64.711827 
L 74.105023 64.711827 
L 74.230697 62.695731 
L 74.272589 62.695731 
L 74.309244 62.119703 
L 74.31448 63.847786 
L 74.377318 63.271758 
L 74.471574 63.271758 
L 74.597249 61.543676 
L 74.764815 61.543676 
L 74.880017 63.271758 
L 74.932381 63.271758 
L 74.937618 64.99984 
L 75.042347 64.423813 
L 75.356534 64.423813 
L 75.476972 63.271758 
L 75.539809 63.271758 
L 75.571228 64.99984 
L 75.649775 64.423813 
L 75.796395 64.423813 
L 75.911597 66.151895 
L 75.932543 66.151895 
L 76.047745 65.575868 
L 76.503316 65.575868 
L 76.618518 64.99984 
L 77.084562 64.99984 
L 77.199763 64.135799 
L 77.299256 64.135799 
L 77.414458 63.559772 
L 78.079487 63.559772 
L 78.194689 62.983744 
L 78.273235 62.983744 
L 78.388437 64.711827 
L 78.864954 64.711827 
L 78.980156 64.135799 
L 79.629475 64.135799 
L 79.744677 63.559772 
L 80.718657 63.559772 
L 80.833858 65.287854 
L 81.174228 65.287854 
L 81.289429 64.711827 
L 83.200733 64.711827 
L 83.315935 64.135799 
L 87.693605 64.135799 
L 87.808807 65.863882 
L 88.274851 65.863882 
L 88.390053 65.287854 
L 93.113329 65.287854 
L 93.228531 64.423813 
L 93.621265 64.423813 
L 93.736466 63.559772 
L 96.129523 63.559772 
L 96.244725 65.287854 
L 99.842165 65.287854 
L 99.957367 64.855834 
L 104.827264 64.855834 
L 104.942465 64.279806 
L 109.849017 64.279806 
L 109.964219 66.007888 
L 113.629733 66.007888 
L 113.744935 65.431861 
L 124.008373 65.431861 
L 124.123575 64.855834 
L 130.595825 64.855834 
L 130.711026 66.583916 
L 131.3394 66.583916 
L 131.454602 66.007888 
L 139.178363 66.007888 
L 139.293565 67.735971 
L 158.312344 67.735971 
L 158.427546 67.159943 
L 169.476452 67.159943 
L 169.591654 66.583916 
L 196.297539 66.583916 
L 196.412741 66.007888 
L 250.316737 66.007888 
L 250.431939 65.575868 
L 288.453789 65.575868 
L 288.568991 67.30395 
L 291.145323 67.30395 
L 291.260525 66.727923 
L 301.110284 66.727923 
L 301.225486 68.456005 
L 365.125862 68.456005 
L 365.241064 70.184087 
L 396.989649 70.184087 
L 397.10485 69.752067 
L 398.487273 69.752067 
L 398.487273 69.752067 
" clip-path="url(#pe74df5d3a6)" style="fill: none; stroke: #1f77b4; stroke-width: 1.5; stroke-linecap: square"/>
   </g>
   <g id="line2d_12">
    <path d="M 73.832727 61.658881 
L 73.837964 61.226861 
L 73.853673 64.683025 
L 73.91651 62.090902 
L 73.942693 63.818984 
L 73.958402 60.36282 
L 74.026476 62.090902 
L 74.246407 62.090902 
L 74.288298 63.818984 
L 74.356372 62.090902 
L 74.612958 62.090902 
L 74.72816 60.36282 
L 301.110284 60.36282 
L 301.225486 62.090902 
L 301.827677 62.090902 
L 301.942879 63.818984 
L 365.125862 63.818984 
L 365.241064 65.547066 
L 391.507087 65.547066 
L 391.622289 67.275149 
L 398.487273 67.275149 
L 398.487273 67.275149 
" clip-path="url(#pe74df5d3a6)" style="fill: none; stroke: #ff7f0e; stroke-width: 1.5; stroke-linecap: square"/>
   </g>
   <g id="line2d_13">
    <path d="M 73.832727 59.930799 
L 73.848437 58.922751 
L 73.869382 64.106998 
L 73.989821 73.323437 
L 74.000294 72.459396 
L 74.047422 71.105731 
L 74.073604 75.425937 
L 74.105023 75.425937 
L 74.115495 74.849909 
L 74.120732 76.577992 
L 74.209752 76.001964 
L 74.24117 76.001964 
L 74.366845 84.642376 
L 74.372081 84.066348 
L 74.4035 84.066348 
L 74.471574 89.250595 
L 74.523938 88.09854 
L 74.534411 88.09854 
L 74.539648 87.522513 
L 74.544884 89.250595 
L 74.633904 89.250595 
L 74.691505 89.250595 
L 74.811943 92.70676 
L 74.853835 92.70676 
L 74.937618 96.162924 
L 74.969037 95.586897 
L 75.084238 95.586897 
L 75.19944 97.314979 
L 75.267514 97.314979 
L 75.387952 95.586897 
L 75.414135 95.586897 
L 75.456026 94.146828 
L 75.492681 97.602993 
L 75.503154 97.602993 
L 75.539809 97.602993 
L 75.571228 99.331075 
L 75.649775 98.755048 
L 75.655011 98.755048 
L 75.77545 102.211212 
L 75.785922 102.211212 
L 75.906361 105.667377 
L 75.911597 105.667377 
L 75.937779 104.227308 
L 75.943016 105.955391 
L 76.016326 105.955391 
L 76.058218 105.955391 
L 76.17342 105.091349 
L 76.503316 105.091349 
L 76.519025 104.515322 
L 76.524262 106.243404 
L 76.602808 106.243404 
L 76.822739 106.243404 
L 76.916995 105.379363 
L 76.922232 107.107445 
L 76.927468 107.107445 
L 76.958887 108.835528 
L 77.037434 107.971487 
L 77.299256 107.971487 
L 77.419694 106.531418 
L 77.430167 106.531418 
L 77.482532 104.803336 
L 77.534896 106.531418 
L 77.650098 108.2595 
L 77.697226 108.2595 
L 77.812428 109.987583 
L 77.833374 109.987583 
L 77.948575 109.123542 
L 78.079487 109.123542 
L 78.173743 108.547514 
L 78.178979 110.275596 
L 78.273235 110.275596 
L 78.388437 112.003679 
L 78.864954 112.003679 
L 78.980156 111.427651 
L 79.236742 111.427651 
L 79.241978 110.56361 
L 79.304816 115.747857 
L 79.325761 114.883816 
L 79.629475 114.883816 
L 79.718495 114.307788 
L 79.723731 116.035871 
L 79.728968 116.035871 
L 79.812751 116.035871 
L 79.927953 115.17183 
L 80.331159 115.17183 
L 80.446361 116.899912 
L 80.718657 116.899912 
L 80.833858 118.627994 
L 81.174228 118.627994 
L 81.289429 118.051967 
L 81.614089 118.051967 
L 81.729291 119.780049 
L 83.200733 119.780049 
L 83.315935 119.204022 
L 84.316096 119.204022 
L 84.431298 120.932104 
L 86.855774 120.932104 
L 86.970976 122.660186 
L 86.997158 122.660186 
L 87.11236 124.388268 
L 87.384655 124.388268 
L 87.499857 123.524227 
L 87.693605 123.524227 
L 87.808807 125.25231 
L 88.274851 125.25231 
L 88.390053 124.676282 
L 88.447654 124.676282 
L 88.562856 126.404364 
L 89.772475 126.404364 
L 89.887677 125.540323 
L 93.511299 125.540323 
L 93.626501 127.268406 
L 94.783756 127.268406 
L 94.898958 126.404364 
L 96.129523 126.404364 
L 96.244725 128.132447 
L 96.318035 128.132447 
L 96.433237 129.860529 
L 99.239973 129.860529 
L 99.355175 131.588611 
L 99.842165 131.588611 
L 99.957367 131.156591 
L 101.48641 131.156591 
L 101.601612 130.29255 
L 104.308855 130.29255 
L 104.424057 132.020632 
L 104.827264 132.020632 
L 104.942465 131.444604 
L 107.791093 131.444604 
L 107.906295 133.172687 
L 111.838868 133.172687 
L 111.954069 132.308646 
L 113.629733 132.308646 
L 113.744935 131.732618 
L 114.954554 131.732618 
L 115.069756 133.4607 
L 117.347611 133.4607 
L 117.462813 135.188783 
L 124.008373 135.188783 
L 124.123575 134.612755 
L 125.809711 134.612755 
L 125.924913 136.340838 
L 130.595825 136.340838 
L 130.711026 138.06892 
L 131.3394 138.06892 
L 131.423183 137.492892 
L 131.42842 139.220975 
L 131.438893 139.220975 
L 139.178363 139.220975 
L 139.293565 140.949057 
L 158.312344 140.949057 
L 158.427546 140.37303 
L 162.422956 140.37303 
L 162.538158 142.101112 
L 166.784917 142.101112 
L 166.900119 143.829194 
L 184.882082 143.829194 
L 184.997284 142.965153 
L 186.044574 142.965153 
L 186.159775 144.693235 
L 186.301159 144.693235 
L 186.416361 146.421318 
L 195.475417 146.421318 
L 195.590618 145.557276 
L 196.297539 145.557276 
L 196.412741 144.981249 
L 207.257425 144.981249 
L 207.372627 146.709331 
L 224.338718 146.709331 
L 224.45392 148.437414 
L 237.670715 148.437414 
L 237.785917 147.573372 
L 250.316737 147.573372 
L 250.431939 147.141352 
L 260.606358 147.141352 
L 260.72156 146.277311 
L 277.043569 146.277311 
L 277.15877 148.005393 
L 282.243361 148.005393 
L 282.358563 147.141352 
L 288.453789 147.141352 
L 288.568991 148.869434 
L 291.145323 148.869434 
L 291.260525 148.293407 
L 319.24934 148.293407 
L 319.364542 150.021489 
L 369.430222 150.021489 
L 369.545424 149.157448 
L 395.659591 149.157448 
L 395.774793 150.88553 
L 396.989649 150.88553 
L 397.10485 150.45351 
L 398.487273 150.45351 
L 398.487273 150.45351 
" clip-path="url(#pe74df5d3a6)" style="fill: none; stroke: #2ca02c; stroke-width: 1.5; stroke-linecap: square"/>
   </g>
   <g id="line2d_14">
    <path d="M 73.832727 59.930799 
L 73.848437 59.930799 
L 73.989821 58.202717 
L 74.036949 58.202717 
L 74.152151 57.8571 
L 74.351136 57.8571 
L 74.424446 59.585183 
L 74.461101 59.153162 
L 79.299579 59.153162 
L 79.414781 60.881244 
L 398.487273 60.881244 
L 398.487273 60.881244 
" clip-path="url(#pe74df5d3a6)" style="fill: none; stroke: #d62728; stroke-width: 1.5; stroke-linecap: square"/>
   </g>
   <g id="line2d_15">
    <path d="M 73.832727 59.642785 
L 73.837964 59.642785 
L 73.848437 59.066758 
L 73.906038 64.251005 
L 73.93222 64.251005 
L 73.974111 65.979087 
L 74.042185 64.625423 
L 74.047422 64.625423 
L 74.063131 66.353505 
L 74.157387 65.489464 
L 74.24117 65.489464 
L 74.335426 70.673711 
L 74.361609 70.097683 
L 74.424446 70.097683 
L 74.508229 71.825765 
L 74.534411 70.673711 
L 74.56583 70.673711 
L 74.681032 70.097683 
L 74.691505 70.097683 
L 74.806707 71.825765 
L 74.853835 71.825765 
L 74.969037 73.553848 
L 75.047583 73.553848 
L 75.084238 72.97782 
L 75.089475 74.705903 
L 75.147076 74.705903 
L 75.267514 74.705903 
L 75.356534 73.841861 
L 75.36177 75.569944 
L 75.377479 74.705903 
L 75.445553 74.705903 
L 75.456026 73.841861 
L 75.492681 77.298026 
L 75.539809 77.298026 
L 75.744031 77.298026 
L 75.864469 80.754191 
L 75.911597 80.754191 
L 75.932543 79.890149 
L 75.943016 83.346314 
L 76.005853 83.346314 
L 76.058218 83.346314 
L 76.17342 82.482273 
L 76.32004 82.482273 
L 76.435242 81.906245 
L 76.608045 81.906245 
L 76.723247 81.330218 
L 76.822739 81.330218 
L 76.916995 80.466177 
L 76.922232 82.194259 
L 76.927468 82.194259 
L 76.958887 83.922341 
L 77.037434 83.0583 
L 77.383039 83.0583 
L 77.482532 80.466177 
L 77.498241 82.194259 
L 77.534896 82.194259 
L 77.650098 83.922341 
L 77.833374 83.922341 
L 77.948575 82.482273 
L 78.079487 82.482273 
L 78.199925 85.938437 
L 79.236742 85.938437 
L 79.241978 85.074396 
L 79.247215 86.802479 
L 79.346707 85.938437 
L 79.812751 85.938437 
L 79.927953 85.074396 
L 80.331159 85.074396 
L 80.446361 86.802479 
L 86.855774 86.802479 
L 86.970976 88.530561 
L 86.997158 88.530561 
L 87.11236 90.258643 
L 87.384655 90.258643 
L 87.499857 89.394602 
L 88.447654 89.394602 
L 88.562856 91.122684 
L 89.772475 91.122684 
L 89.887677 90.258643 
L 93.511299 90.258643 
L 93.626501 91.986725 
L 94.783756 91.986725 
L 94.898958 91.122684 
L 96.318035 91.122684 
L 96.433237 92.850767 
L 101.48641 92.850767 
L 101.601612 91.986725 
L 104.308855 91.986725 
L 104.424057 93.714808 
L 109.849017 93.714808 
L 109.964219 93.282787 
L 111.838868 93.282787 
L 111.954069 92.418746 
L 114.954554 92.418746 
L 115.069756 94.146828 
L 117.347611 94.146828 
L 117.462813 95.874911 
L 131.423183 95.874911 
L 131.538385 97.602993 
L 162.422956 97.602993 
L 162.538158 99.331075 
L 169.476452 99.331075 
L 169.591654 101.059157 
L 184.882082 101.059157 
L 184.997284 100.195116 
L 186.044574 100.195116 
L 186.159775 101.923199 
L 195.475417 101.923199 
L 195.590618 101.059157 
L 207.257425 101.059157 
L 207.372627 102.78724 
L 237.670715 102.78724 
L 237.785917 101.923199 
L 260.606358 101.923199 
L 260.72156 101.059157 
L 277.043569 101.059157 
L 277.15877 102.78724 
L 282.243361 102.78724 
L 282.358563 101.923199 
L 369.430222 101.923199 
L 369.545424 101.059157 
L 395.659591 101.059157 
L 395.774793 102.78724 
L 398.487273 102.78724 
L 398.487273 102.78724 
" clip-path="url(#pe74df5d3a6)" style="fill: none; stroke: #9467bd; stroke-width: 1.5; stroke-linecap: square"/>
   </g>
   <g id="line2d_16">
    <path d="M 73.832727 61.658881 
L 73.848437 61.658881 
L 73.989821 72.027375 
L 74.047422 72.027375 
L 74.173096 77.211622 
L 74.309244 77.211622 
L 74.429682 80.667786 
L 74.764815 80.667786 
L 74.880017 82.395869 
L 74.932381 82.395869 
L 75.047583 84.123951 
L 75.539809 84.123951 
L 75.655011 85.852033 
L 75.796395 85.852033 
L 75.911597 87.580116 
L 78.273235 87.580116 
L 78.388437 89.308198 
L 79.299579 89.308198 
L 79.414781 91.03628 
L 80.718657 91.03628 
L 80.833858 92.764362 
L 87.693605 92.764362 
L 87.808807 94.492445 
L 96.129523 94.492445 
L 96.244725 96.220527 
L 109.849017 96.220527 
L 109.964219 97.948609 
L 130.595825 97.948609 
L 130.711026 99.676692 
L 139.178363 99.676692 
L 139.293565 101.404774 
L 288.453789 101.404774 
L 288.568991 103.132856 
L 398.487273 103.132856 
L 398.487273 103.132856 
" clip-path="url(#pe74df5d3a6)" style="fill: none; stroke: #8c564b; stroke-width: 1.5; stroke-linecap: square"/>
   </g>
   <g id="line2d_17">
    <path d="M 73.832727 59.642785 
L 73.968875 69.867272 
L 74.016003 68.369601 
L 74.031712 71.825765 
L 74.042185 71.825765 
L 74.16786 77.730047 
L 74.24117 77.730047 
L 74.272589 76.721999 
L 74.277825 78.450081 
L 74.345899 77.442033 
L 74.482047 86.514465 
L 74.487283 86.514465 
L 74.539648 88.818575 
L 74.597249 87.810527 
L 74.691505 87.810527 
L 74.806707 86.802479 
L 74.880017 86.802479 
L 74.995219 89.682616 
L 75.047583 89.682616 
L 75.162785 89.106588 
L 75.356534 89.106588 
L 75.476972 92.562753 
L 75.539809 92.562753 
L 75.571228 91.986725 
L 75.576464 93.714808 
L 75.639302 93.714808 
L 75.655011 93.714808 
L 75.770213 93.282787 
L 75.785922 93.282787 
L 75.906361 92.130732 
L 75.932543 92.130732 
L 75.937779 93.858815 
L 76.042508 93.282787 
L 76.15771 93.282787 
L 76.272912 95.010869 
L 76.32004 95.010869 
L 76.435242 94.434842 
L 76.503316 94.434842 
L 76.519025 96.162924 
L 76.613281 95.154876 
L 76.765138 95.154876 
L 76.88034 96.882959 
L 76.927468 96.882959 
L 77.04267 96.306931 
L 77.084562 96.306931 
L 77.199763 98.035013 
L 77.299256 98.035013 
L 77.414458 99.763096 
L 77.482532 99.763096 
L 77.597733 99.187068 
L 77.697226 99.187068 
L 77.812428 98.755048 
L 77.83861 98.755048 
L 77.953812 98.17902 
L 78.079487 98.17902 
L 78.194689 99.907103 
L 78.273235 99.907103 
L 78.377964 99.475082 
L 78.493166 101.203164 
L 78.864954 101.203164 
L 78.980156 102.931247 
L 79.26816 102.931247 
L 79.383362 102.499226 
L 79.629475 102.499226 
L 79.718495 104.227308 
L 79.739441 103.795288 
L 80.331159 103.795288 
L 80.446361 103.21926 
L 80.718657 103.21926 
L 80.833858 102.643233 
L 80.96477 102.643233 
L 81.079971 104.371315 
L 81.174228 104.371315 
L 81.289429 106.099397 
L 81.614089 106.099397 
L 81.729291 105.667377 
L 83.200733 105.667377 
L 83.315935 107.395459 
L 84.316096 107.395459 
L 84.431298 106.963439 
L 87.693605 106.963439 
L 87.808807 106.387411 
L 88.274851 106.387411 
L 88.390053 108.115493 
L 88.447654 108.115493 
L 88.562856 107.539466 
L 89.955751 107.539466 
L 90.070953 109.267548 
L 93.113329 109.267548 
L 93.228531 110.995631 
L 93.621265 110.995631 
L 93.736466 112.723713 
L 96.129523 112.723713 
L 96.244725 112.291692 
L 96.318035 112.291692 
L 96.433237 111.715665 
L 99.239973 111.715665 
L 99.355175 111.283644 
L 99.842165 111.283644 
L 99.957367 113.011727 
L 104.827264 113.011727 
L 104.942465 114.739809 
L 107.791093 114.739809 
L 107.906295 114.307788 
L 109.849017 114.307788 
L 109.964219 113.875768 
L 113.629733 113.875768 
L 113.744935 115.60385 
L 114.954554 115.60385 
L 115.069756 115.027823 
L 117.347611 115.027823 
L 117.462813 114.451795 
L 119.384589 114.451795 
L 119.499791 116.179878 
L 124.008373 116.179878 
L 124.123575 117.90796 
L 125.809711 117.90796 
L 125.924913 117.475939 
L 130.595825 117.475939 
L 130.711026 116.899912 
L 131.3394 116.899912 
L 131.423183 118.627994 
L 131.449366 118.051967 
L 139.178363 118.051967 
L 139.293565 117.619946 
L 158.312344 117.619946 
L 158.427546 119.348028 
L 166.784917 119.348028 
L 166.900119 118.916008 
L 169.476452 118.916008 
L 169.591654 120.64409 
L 186.301159 120.64409 
L 186.416361 120.21207 
L 196.297539 120.21207 
L 196.412741 121.940152 
L 207.257425 121.940152 
L 207.372627 121.364124 
L 224.338718 121.364124 
L 224.45392 120.932104 
L 247.855607 120.932104 
L 247.970809 122.660186 
L 250.316737 122.660186 
L 250.431939 124.388268 
L 277.043569 124.388268 
L 277.15877 123.812241 
L 288.453789 123.812241 
L 288.568991 123.38022 
L 291.145323 123.38022 
L 291.260525 125.108303 
L 319.24934 125.108303 
L 319.364542 124.676282 
L 395.659591 124.676282 
L 395.774793 124.100255 
L 396.989649 124.100255 
L 397.10485 125.828337 
L 398.487273 125.828337 
L 398.487273 125.828337 
" clip-path="url(#pe74df5d3a6)" style="fill: none; stroke: #e377c2; stroke-width: 1.5; stroke-linecap: square"/>
   </g>
   <g id="line2d_18">
    <path d="M 73.832727 61.658881 
L 73.848437 61.226861 
L 73.874619 63.674977 
L 73.937456 61.946895 
L 74.016003 68.859224 
L 74.057895 65.633471 
L 74.068367 65.633471 
L 74.131205 68.513608 
L 74.183569 67.93758 
L 74.267352 67.93758 
L 74.361609 72.5458 
L 74.382554 70.24169 
L 74.4035 70.24169 
L 74.445392 75.425937 
L 74.523938 74.273882 
L 74.534411 74.273882 
L 74.539648 73.697855 
L 74.571066 77.154019 
L 74.618194 77.154019 
L 74.764815 77.154019 
L 74.880017 78.882101 
L 74.932381 77.154019 
L 74.989982 78.306074 
L 75.047583 78.306074 
L 75.162785 80.034156 
L 75.356534 80.034156 
L 75.476972 78.882101 
L 75.539809 78.882101 
L 75.571228 80.610184 
L 75.649775 80.034156 
L 75.655011 80.034156 
L 75.770213 81.762239 
L 75.796395 81.762239 
L 75.911597 83.490321 
L 75.932543 83.490321 
L 76.047745 82.914293 
L 76.15771 82.914293 
L 76.272912 81.186211 
L 76.32004 81.186211 
L 76.435242 82.914293 
L 76.503316 82.914293 
L 76.519025 82.338266 
L 76.524262 84.066348 
L 76.602808 84.066348 
L 76.608045 84.066348 
L 76.723247 85.794431 
L 76.765138 85.794431 
L 76.88034 84.066348 
L 77.299256 84.066348 
L 77.414458 83.490321 
L 77.697226 83.490321 
L 77.812428 85.218403 
L 77.83861 85.218403 
L 77.953812 86.946485 
L 78.079487 86.946485 
L 78.194689 86.370458 
L 78.273235 86.370458 
L 78.377964 88.09854 
L 78.383201 86.370458 
L 78.864954 86.370458 
L 78.980156 85.794431 
L 79.26816 85.794431 
L 79.388599 89.250595 
L 79.629475 89.250595 
L 79.718495 88.674568 
L 79.723731 90.40265 
L 79.728968 90.40265 
L 80.718657 90.40265 
L 80.833858 92.130732 
L 80.96477 92.130732 
L 81.079971 90.40265 
L 81.174228 90.40265 
L 81.289429 89.826623 
L 81.614089 89.826623 
L 81.729291 91.554705 
L 83.200733 91.554705 
L 83.315935 90.978677 
L 84.316096 90.978677 
L 84.431298 92.70676 
L 87.693605 92.70676 
L 87.808807 94.434842 
L 88.274851 94.434842 
L 88.390053 93.858815 
L 89.955751 93.858815 
L 90.070953 92.130732 
L 96.129523 92.130732 
L 96.244725 93.858815 
L 99.239973 93.858815 
L 99.355175 95.586897 
L 99.842165 95.586897 
L 99.957367 95.154876 
L 104.827264 95.154876 
L 104.942465 94.578849 
L 107.791093 94.578849 
L 107.906295 96.306931 
L 109.849017 96.306931 
L 109.964219 98.035013 
L 113.629733 98.035013 
L 113.744935 97.458986 
L 119.384589 97.458986 
L 119.499791 95.730904 
L 124.008373 95.730904 
L 124.123575 95.154876 
L 125.809711 95.154876 
L 125.924913 96.882959 
L 130.595825 96.882959 
L 130.711026 98.611041 
L 131.3394 98.611041 
L 131.454602 98.035013 
L 139.178363 98.035013 
L 139.293565 99.763096 
L 158.312344 99.763096 
L 158.427546 99.187068 
L 166.784917 99.187068 
L 166.900119 100.915151 
L 169.476452 100.915151 
L 169.591654 100.339123 
L 186.301159 100.339123 
L 186.416361 102.067205 
L 196.297539 102.067205 
L 196.412741 101.491178 
L 224.338718 101.491178 
L 224.45392 103.21926 
L 247.855607 103.21926 
L 247.970809 101.491178 
L 250.316737 101.491178 
L 250.431939 101.059157 
L 288.453789 101.059157 
L 288.568991 102.78724 
L 291.145323 102.78724 
L 291.260525 102.211212 
L 319.24934 102.211212 
L 319.364542 103.939295 
L 396.989649 103.939295 
L 397.10485 103.507274 
L 398.487273 103.507274 
L 398.487273 103.507274 
" clip-path="url(#pe74df5d3a6)" style="fill: none; stroke: #7f7f7f; stroke-width: 1.5; stroke-linecap: square"/>
   </g>
   <g id="line2d_19">
    <path d="M 73.832727 59.642785 
L 73.926983 64.106998 
L 73.874619 59.498778 
L 73.953166 63.09895 
L 73.968875 63.09895 
L 73.989821 62.177306 
L 74.00553 65.633471 
L 74.042185 65.057443 
L 74.162624 68.657615 
L 74.24117 68.657615 
L 74.272589 67.649567 
L 74.277825 69.377649 
L 74.351136 68.369601 
L 74.366845 68.369601 
L 74.482047 70.529704 
L 74.487283 70.529704 
L 74.539648 72.833813 
L 74.597249 71.825765 
L 74.691505 71.825765 
L 74.806707 70.817717 
L 74.932381 70.817717 
L 74.937618 70.24169 
L 74.942854 71.969772 
L 75.031874 71.969772 
L 75.047583 71.969772 
L 75.162785 71.393745 
L 75.356534 71.393745 
L 75.456026 74.849909 
L 75.471736 73.985868 
L 75.539809 73.985868 
L 75.571228 73.409841 
L 75.576464 75.137923 
L 75.639302 75.137923 
L 75.655011 75.137923 
L 75.770213 74.705903 
L 75.785922 74.705903 
L 75.906361 73.553848 
L 75.932543 73.553848 
L 75.937779 75.28193 
L 76.042508 74.705903 
L 76.32004 74.705903 
L 76.435242 74.129875 
L 76.503316 74.129875 
L 76.519025 75.857957 
L 76.613281 74.849909 
L 76.927468 74.849909 
L 77.04267 74.273882 
L 77.084562 74.273882 
L 77.199763 76.001964 
L 77.299256 76.001964 
L 77.414458 77.730047 
L 77.482532 77.730047 
L 77.60297 76.289978 
L 77.697226 76.289978 
L 77.812428 75.857957 
L 77.83861 75.857957 
L 77.953812 75.28193 
L 78.079487 75.28193 
L 78.173743 77.010012 
L 78.189452 76.145971 
L 78.273235 76.145971 
L 78.388437 75.713951 
L 78.864954 75.713951 
L 78.980156 77.442033 
L 79.241978 77.442033 
L 79.35718 76.145971 
L 79.629475 76.145971 
L 79.718495 77.874053 
L 79.739441 77.442033 
L 80.331159 77.442033 
L 80.446361 76.866005 
L 80.718657 76.866005 
L 80.833858 76.289978 
L 81.174228 76.289978 
L 81.289429 78.01806 
L 81.614089 78.01806 
L 81.729291 77.58604 
L 83.200733 77.58604 
L 83.315935 79.314122 
L 84.316096 79.314122 
L 84.431298 78.882101 
L 86.855774 78.882101 
L 86.970976 78.01806 
L 86.997158 78.01806 
L 87.11236 77.154019 
L 87.693605 77.154019 
L 87.808807 76.577992 
L 88.274851 76.577992 
L 88.390053 78.306074 
L 88.447654 78.306074 
L 88.562856 77.730047 
L 93.113329 77.730047 
L 93.228531 79.458129 
L 93.511299 79.458129 
L 93.621265 78.594088 
L 93.736466 80.32217 
L 96.129523 80.32217 
L 96.244725 79.890149 
L 96.318035 79.890149 
L 96.433237 79.314122 
L 99.239973 79.314122 
L 99.355175 78.882101 
L 99.842165 78.882101 
L 99.957367 80.610184 
L 104.308855 80.610184 
L 104.424057 79.746143 
L 104.827264 79.746143 
L 104.942465 81.474225 
L 107.791093 81.474225 
L 107.906295 81.042204 
L 109.849017 81.042204 
L 109.964219 80.610184 
L 113.629733 80.610184 
L 113.744935 82.338266 
L 114.954554 82.338266 
L 115.069756 81.762239 
L 117.347611 81.762239 
L 117.462813 81.186211 
L 124.008373 81.186211 
L 124.123575 82.914293 
L 125.809711 82.914293 
L 125.924913 82.482273 
L 130.595825 82.482273 
L 130.711026 81.906245 
L 131.3394 81.906245 
L 131.423183 83.634328 
L 131.449366 83.0583 
L 139.178363 83.0583 
L 139.293565 82.62628 
L 158.312344 82.62628 
L 158.427546 84.354362 
L 162.422956 84.354362 
L 162.538158 83.490321 
L 166.784917 83.490321 
L 166.900119 83.0583 
L 169.476452 83.0583 
L 169.591654 84.786383 
L 186.044574 84.786383 
L 186.159775 83.922341 
L 186.301159 83.922341 
L 186.416361 83.490321 
L 196.297539 83.490321 
L 196.412741 85.218403 
L 207.257425 85.218403 
L 207.372627 84.642376 
L 224.338718 84.642376 
L 224.45392 84.210355 
L 250.316737 84.210355 
L 250.431939 85.938437 
L 277.043569 85.938437 
L 277.15877 85.36241 
L 288.453789 85.36241 
L 288.568991 84.930389 
L 291.145323 84.930389 
L 291.260525 86.658472 
L 319.24934 86.658472 
L 319.364542 86.226451 
L 395.659591 86.226451 
L 395.774793 85.650424 
L 396.989649 85.650424 
L 397.10485 87.378506 
L 398.487273 87.378506 
L 398.487273 87.378506 
" clip-path="url(#pe74df5d3a6)" style="fill: none; stroke: #bcbd22; stroke-width: 1.5; stroke-linecap: square"/>
   </g>
   <g id="line2d_20">
    <path d="M 73.832727 61.658881 
L 73.926983 67.131142 
L 73.953166 65.691073 
L 73.974111 65.691073 
L 74.120732 78.738095 
L 74.131205 78.738095 
L 74.24117 80.466177 
L 74.335426 78.01806 
L 74.351136 79.746143 
L 74.4035 83.202307 
L 74.466337 81.906245 
L 74.471574 81.906245 
L 74.607722 91.842719 
L 74.691505 91.842719 
L 74.806707 91.266691 
L 74.853835 91.266691 
L 74.937618 90.40265 
L 74.942854 92.130732 
L 74.958564 92.130732 
L 75.047583 92.130732 
L 75.084238 93.858815 
L 75.157549 92.994773 
L 75.267514 92.994773 
L 75.382716 95.874911 
L 75.414135 95.874911 
L 75.456026 99.331075 
L 75.529336 97.602993 
L 75.571228 97.602993 
L 75.655011 99.331075 
L 75.681193 98.899055 
L 75.744031 98.899055 
L 75.859233 97.458986 
L 75.911597 97.458986 
L 75.937779 99.187068 
L 76.021563 98.611041 
L 76.058218 98.611041 
L 76.17342 100.339123 
L 76.32004 100.339123 
L 76.435242 102.067205 
L 76.503316 102.067205 
L 76.618518 105.091349 
L 76.822739 105.091349 
L 76.916995 106.819432 
L 76.932705 105.379363 
L 76.958887 105.379363 
L 77.074089 107.107445 
L 77.084562 107.107445 
L 77.199763 108.835528 
L 77.299256 108.835528 
L 77.419694 112.291692 
L 77.430167 112.291692 
L 77.482532 115.747857 
L 77.545369 114.307788 
L 77.697226 114.307788 
L 77.812428 113.875768 
L 77.833374 113.875768 
L 77.953812 117.331932 
L 78.173743 117.331932 
L 78.288945 116.467891 
L 78.864954 116.467891 
L 78.980156 118.195974 
L 79.236742 118.195974 
L 79.35718 122.084159 
L 79.629475 122.084159 
L 79.718495 123.812241 
L 79.739441 123.38022 
L 79.812751 123.38022 
L 79.927953 125.108303 
L 80.331159 125.108303 
L 80.446361 124.532275 
L 81.174228 124.532275 
L 81.289429 126.260358 
L 81.614089 126.260358 
L 81.729291 125.828337 
L 83.200733 125.828337 
L 83.315935 127.556419 
L 84.316096 127.556419 
L 84.431298 127.124399 
L 86.855774 127.124399 
L 86.970976 126.260358 
L 86.997158 126.260358 
L 87.11236 125.396316 
L 87.384655 125.396316 
L 87.499857 127.124399 
L 88.274851 127.124399 
L 88.390053 128.852481 
L 88.447654 128.852481 
L 88.562856 128.276454 
L 89.772475 128.276454 
L 89.887677 130.004536 
L 93.113329 130.004536 
L 93.228531 131.732618 
L 93.511299 131.732618 
L 93.621265 130.868577 
L 93.736466 132.596659 
L 94.783756 132.596659 
L 94.898958 134.324742 
L 96.318035 134.324742 
L 96.433237 133.748714 
L 99.239973 133.748714 
L 99.355175 133.316694 
L 99.842165 133.316694 
L 99.957367 135.044776 
L 101.48641 135.044776 
L 101.601612 136.772858 
L 104.308855 136.772858 
L 104.424057 135.908817 
L 104.827264 135.908817 
L 104.942465 137.636899 
L 107.791093 137.636899 
L 107.906295 137.204879 
L 109.849017 137.204879 
L 109.964219 138.932961 
L 111.838868 138.932961 
L 111.954069 140.661043 
L 113.629733 140.661043 
L 113.744935 142.389126 
L 114.954554 142.389126 
L 115.069756 141.813098 
L 117.347611 141.813098 
L 117.462813 141.237071 
L 124.008373 141.237071 
L 124.123575 142.965153 
L 125.809711 142.965153 
L 125.924913 142.533132 
L 131.3394 142.533132 
L 131.423183 144.261215 
L 131.449366 143.685187 
L 158.312344 143.685187 
L 158.427546 145.41327 
L 162.422956 145.41327 
L 162.538158 144.549228 
L 166.784917 144.549228 
L 166.900119 144.117208 
L 169.476452 144.117208 
L 169.591654 143.54118 
L 184.882082 143.54118 
L 184.997284 145.269263 
L 186.044574 145.269263 
L 186.159775 144.405222 
L 186.301159 144.405222 
L 186.416361 143.973201 
L 195.475417 143.973201 
L 195.590618 145.701283 
L 196.297539 145.701283 
L 196.412741 147.429366 
L 207.257425 147.429366 
L 207.372627 146.853338 
L 224.338718 146.853338 
L 224.45392 146.421318 
L 237.670715 146.421318 
L 237.785917 148.1494 
L 250.316737 148.1494 
L 250.431939 149.877482 
L 260.606358 149.877482 
L 260.72156 151.605564 
L 277.043569 151.605564 
L 277.15877 151.029537 
L 282.243361 151.029537 
L 282.358563 152.757619 
L 291.145323 152.757619 
L 291.260525 154.485702 
L 319.24934 154.485702 
L 319.364542 154.053681 
L 369.430222 154.053681 
L 369.545424 155.781763 
L 395.659591 155.781763 
L 395.774793 155.205736 
L 396.989649 155.205736 
L 397.10485 156.933818 
L 398.487273 156.933818 
L 398.487273 156.933818 
" clip-path="url(#pe74df5d3a6)" style="fill: none; stroke: #17becf; stroke-width: 1.5; stroke-linecap: square"/>
   </g>
   <g id="line2d_21">
    <path d="M 73.832727 59.642785 
L 73.848437 59.642785 
L 74.010767 56.762648 
L 74.047422 56.762648 
L 74.173096 55.178573 
L 74.309244 55.178573 
L 74.434919 53.882511 
L 74.764815 53.882511 
L 74.880017 53.45049 
L 74.932381 53.45049 
L 75.047583 52.874463 
L 75.539809 52.874463 
L 75.655011 52.298436 
L 75.796395 52.298436 
L 75.911597 51.722408 
L 78.273235 51.722408 
L 78.388437 51.290388 
L 79.299579 51.290388 
L 79.414781 50.426346 
L 80.718657 50.426346 
L 80.833858 49.850319 
L 87.693605 49.850319 
L 87.808807 49.274292 
L 96.129523 49.274292 
L 96.244725 48.842271 
L 109.849017 48.842271 
L 109.964219 48.41025 
L 130.595825 48.41025 
L 130.711026 47.834223 
L 139.178363 47.834223 
L 139.293565 47.402202 
L 288.453789 47.402202 
L 288.568991 46.970182 
L 398.487273 46.970182 
L 398.487273 46.970182 
" clip-path="url(#pe74df5d3a6)" style="fill: none; stroke: #1f77b4; stroke-width: 1.5; stroke-linecap: square"/>
   </g>
   <g id="line2d_22">
    <path d="M 73.832727 59.642785 
L 73.963638 66.267101 
L 73.974111 66.267101 
L 74.036949 65.489464 
L 74.042185 67.217546 
L 74.063131 67.217546 
L 74.183569 71.537752 
L 74.246407 71.537752 
L 74.361609 68.945628 
L 74.366845 68.945628 
L 74.4035 70.673711 
L 74.47681 69.809669 
L 74.534411 69.809669 
L 74.649613 72.833813 
L 74.764815 72.833813 
L 74.89049 71.537752 
L 74.937618 71.537752 
L 75.05282 73.265834 
L 75.084238 73.265834 
L 75.19944 72.401793 
L 75.267514 72.401793 
L 75.387952 75.857957 
L 75.445553 75.857957 
L 75.487445 77.58604 
L 75.555519 76.721999 
L 75.571228 76.721999 
L 75.655011 78.450081 
L 75.681193 78.01806 
L 75.744031 78.01806 
L 75.859233 77.154019 
L 75.911597 77.154019 
L 76.026799 78.882101 
L 76.058218 78.882101 
L 76.17342 80.610184 
L 76.503316 80.610184 
L 76.519025 82.338266 
L 76.613281 81.906245 
L 76.822739 81.906245 
L 76.916995 83.634328 
L 76.932705 82.770287 
L 76.958887 82.770287 
L 77.074089 84.498369 
L 77.084562 84.498369 
L 77.199763 83.634328 
L 77.383039 83.634328 
L 77.508714 88.818575 
L 77.697226 88.818575 
L 77.812428 88.386554 
L 77.833374 88.386554 
L 77.948575 90.114636 
L 78.273235 90.114636 
L 78.388437 89.682616 
L 79.236742 89.682616 
L 79.351944 91.842719 
L 79.629475 91.842719 
L 79.718495 93.570801 
L 79.739441 93.13878 
L 79.812751 93.13878 
L 79.927953 94.866863 
L 81.174228 94.866863 
L 81.289429 96.594945 
L 81.614089 96.594945 
L 81.729291 96.162924 
L 83.200733 96.162924 
L 83.315935 97.891007 
L 84.316096 97.891007 
L 84.431298 97.458986 
L 87.384655 97.458986 
L 87.499857 99.187068 
L 88.274851 99.187068 
L 88.390053 100.915151 
L 89.772475 100.915151 
L 89.887677 102.643233 
L 93.113329 102.643233 
L 93.228531 101.779192 
L 93.621265 101.779192 
L 93.736466 100.915151 
L 94.783756 100.915151 
L 94.898958 102.643233 
L 96.129523 102.643233 
L 96.244725 102.211212 
L 99.239973 102.211212 
L 99.355175 101.779192 
L 99.842165 101.779192 
L 99.957367 101.347171 
L 101.48641 101.347171 
L 101.601612 103.075253 
L 104.827264 103.075253 
L 104.942465 104.803336 
L 107.791093 104.803336 
L 107.906295 104.371315 
L 111.838868 104.371315 
L 111.954069 106.099397 
L 113.629733 106.099397 
L 113.744935 107.82748 
L 124.008373 107.82748 
L 124.123575 109.555562 
L 125.809711 109.555562 
L 125.924913 109.123542 
L 131.3394 109.123542 
L 131.454602 110.851624 
L 139.178363 110.851624 
L 139.293565 110.419603 
L 158.312344 110.419603 
L 158.427546 112.147686 
L 166.784917 112.147686 
L 166.900119 111.715665 
L 184.882082 111.715665 
L 184.997284 113.443747 
L 186.301159 113.443747 
L 186.416361 113.011727 
L 195.475417 113.011727 
L 195.590618 114.739809 
L 224.338718 114.739809 
L 224.45392 114.307788 
L 237.670715 114.307788 
L 237.785917 116.035871 
L 250.316737 116.035871 
L 250.431939 115.60385 
L 260.606358 115.60385 
L 260.72156 117.331932 
L 282.243361 117.331932 
L 282.358563 119.060015 
L 288.453789 119.060015 
L 288.568991 118.627994 
L 291.145323 118.627994 
L 291.260525 120.356076 
L 301.110284 120.356076 
L 301.225486 118.627994 
L 301.827677 118.627994 
L 301.942879 116.899912 
L 319.24934 116.899912 
L 319.364542 116.467891 
L 365.125862 116.467891 
L 365.241064 114.739809 
L 369.430222 114.739809 
L 369.545424 116.467891 
L 391.507087 116.467891 
L 391.622289 114.739809 
L 396.989649 114.739809 
L 397.10485 114.307788 
L 398.487273 114.307788 
L 398.487273 114.307788 
" clip-path="url(#pe74df5d3a6)" style="fill: none; stroke: #ff7f0e; stroke-width: 1.5; stroke-linecap: square"/>
   </g>
   <g id="patch_3">
    <path d="M 57.6 162.432 
L 57.6 41.472 
" style="fill: none; stroke: #000000; stroke-width: 0.8; stroke-linejoin: miter; stroke-linecap: square"/>
   </g>
   <g id="patch_4">
    <path d="M 414.72 162.432 
L 414.72 41.472 
" style="fill: none; stroke: #000000; stroke-width: 0.8; stroke-linejoin: miter; stroke-linecap: square"/>
   </g>
   <g id="patch_5">
    <path d="M 57.6 162.432 
L 414.72 162.432 
" style="fill: none; stroke: #000000; stroke-width: 0.8; stroke-linejoin: miter; stroke-linecap: square"/>
   </g>
   <g id="patch_6">
    <path d="M 57.6 41.472 
L 414.72 41.472 
" style="fill: none; stroke: #000000; stroke-width: 0.8; stroke-linejoin: miter; stroke-linecap: square"/>
   </g>
   <g id="text_11">
    <!-- WSP -->
    <g transform="translate(361.832136 69.752067)scale(0.08 -0.08)">
     <defs>
      <path id="DejaVuSans-57" d="M 213 4666 
L 850 4666 
L 1831 722 
L 2809 4666 
L 3519 4666 
L 4500 722 
L 5478 4666 
L 6119 4666 
L 4947 0 
L 4153 0 
L 3169 4050 
L 2175 0 
L 1381 0 
L 213 4666 
z
" transform="scale(0.015625)"/>
      <path id="DejaVuSans-53" d="M 3425 4513 
L 3425 3897 
Q 3066 4069 2747 4153 
Q 2428 4238 2131 4238 
Q 1616 4238 1336 4038 
Q 1056 3838 1056 3469 
Q 1056 3159 1242 3001 
Q 1428 2844 1947 2747 
L 2328 2669 
Q 3034 2534 3370 2195 
Q 3706 1856 3706 1288 
Q 3706 609 3251 259 
Q 2797 -91 1919 -91 
Q 1588 -91 1214 -16 
Q 841 59 441 206 
L 441 856 
Q 825 641 1194 531 
Q 1563 422 1919 422 
Q 2459 422 2753 634 
Q 3047 847 3047 1241 
Q 3047 1584 2836 1778 
Q 2625 1972 2144 2069 
L 1759 2144 
Q 1053 2284 737 2584 
Q 422 2884 422 3419 
Q 422 4038 858 4394 
Q 1294 4750 2059 4750 
Q 2388 4750 2728 4690 
Q 3069 4631 3425 4513 
z
" transform="scale(0.015625)"/>
      <path id="DejaVuSans-50" d="M 1259 4147 
L 1259 2394 
L 2053 2394 
Q 2494 2394 2734 2622 
Q 2975 2850 2975 3272 
Q 2975 3691 2734 3919 
Q 2494 4147 2053 4147 
L 1259 4147 
z
M 628 4666 
L 2053 4666 
Q 2838 4666 3239 4311 
Q 3641 3956 3641 3272 
Q 3641 2581 3239 2228 
Q 2838 1875 2053 1875 
L 1259 1875 
L 1259 0 
L 628 0 
L 628 4666 
z
" transform="scale(0.015625)"/>
     </defs>
     <use xlink:href="#DejaVuSans-57"/>
     <use xlink:href="#DejaVuSans-53" x="98.876953"/>
     <use xlink:href="#DejaVuSans-50" x="162.353516"/>
    </g>
   </g>
   <g id="text_12">
    <!-- Iambic -->
    <g transform="translate(361.832136 67.275149)scale(0.08 -0.08)">
     <defs>
      <path id="DejaVuSans-49" d="M 628 4666 
L 1259 4666 
L 1259 0 
L 628 0 
L 628 4666 
z
" transform="scale(0.015625)"/>
      <path id="DejaVuSans-61" d="M 2194 1759 
Q 1497 1759 1228 1600 
Q 959 1441 959 1056 
Q 959 750 1161 570 
Q 1363 391 1709 391 
Q 2188 391 2477 730 
Q 2766 1069 2766 1631 
L 2766 1759 
L 2194 1759 
z
M 3341 1997 
L 3341 0 
L 2766 0 
L 2766 531 
Q 2569 213 2275 61 
Q 1981 -91 1556 -91 
Q 1019 -91 701 211 
Q 384 513 384 1019 
Q 384 1609 779 1909 
Q 1175 2209 1959 2209 
L 2766 2209 
L 2766 2266 
Q 2766 2663 2505 2880 
Q 2244 3097 1772 3097 
Q 1472 3097 1187 3025 
Q 903 2953 641 2809 
L 641 3341 
Q 956 3463 1253 3523 
Q 1550 3584 1831 3584 
Q 2591 3584 2966 3190 
Q 3341 2797 3341 1997 
z
" transform="scale(0.015625)"/>
      <path id="DejaVuSans-6d" d="M 3328 2828 
Q 3544 3216 3844 3400 
Q 4144 3584 4550 3584 
Q 5097 3584 5394 3201 
Q 5691 2819 5691 2113 
L 5691 0 
L 5113 0 
L 5113 2094 
Q 5113 2597 4934 2840 
Q 4756 3084 4391 3084 
Q 3944 3084 3684 2787 
Q 3425 2491 3425 1978 
L 3425 0 
L 2847 0 
L 2847 2094 
Q 2847 2600 2669 2842 
Q 2491 3084 2119 3084 
Q 1678 3084 1418 2786 
Q 1159 2488 1159 1978 
L 1159 0 
L 581 0 
L 581 3500 
L 1159 3500 
L 1159 2956 
Q 1356 3278 1631 3431 
Q 1906 3584 2284 3584 
Q 2666 3584 2933 3390 
Q 3200 3197 3328 2828 
z
" transform="scale(0.015625)"/>
      <path id="DejaVuSans-62" d="M 3116 1747 
Q 3116 2381 2855 2742 
Q 2594 3103 2138 3103 
Q 1681 3103 1420 2742 
Q 1159 2381 1159 1747 
Q 1159 1113 1420 752 
Q 1681 391 2138 391 
Q 2594 391 2855 752 
Q 3116 1113 3116 1747 
z
M 1159 2969 
Q 1341 3281 1617 3432 
Q 1894 3584 2278 3584 
Q 2916 3584 3314 3078 
Q 3713 2572 3713 1747 
Q 3713 922 3314 415 
Q 2916 -91 2278 -91 
Q 1894 -91 1617 61 
Q 1341 213 1159 525 
L 1159 0 
L 581 0 
L 581 4863 
L 1159 4863 
L 1159 2969 
z
" transform="scale(0.015625)"/>
      <path id="DejaVuSans-69" d="M 603 3500 
L 1178 3500 
L 1178 0 
L 603 0 
L 603 3500 
z
M 603 4863 
L 1178 4863 
L 1178 4134 
L 603 4134 
L 603 4863 
z
" transform="scale(0.015625)"/>
      <path id="DejaVuSans-63" d="M 3122 3366 
L 3122 2828 
Q 2878 2963 2633 3030 
Q 2388 3097 2138 3097 
Q 1578 3097 1268 2742 
Q 959 2388 959 1747 
Q 959 1106 1268 751 
Q 1578 397 2138 397 
Q 2388 397 2633 464 
Q 2878 531 3122 666 
L 3122 134 
Q 2881 22 2623 -34 
Q 2366 -91 2075 -91 
Q 1284 -91 818 406 
Q 353 903 353 1747 
Q 353 2603 823 3093 
Q 1294 3584 2113 3584 
Q 2378 3584 2631 3529 
Q 2884 3475 3122 3366 
z
" transform="scale(0.015625)"/>
     </defs>
     <use xlink:href="#DejaVuSans-49"/>
     <use xlink:href="#DejaVuSans-61" x="29.492188"/>
     <use xlink:href="#DejaVuSans-6d" x="90.771484"/>
     <use xlink:href="#DejaVuSans-62" x="188.183594"/>
     <use xlink:href="#DejaVuSans-69" x="251.660156"/>
     <use xlink:href="#DejaVuSans-63" x="279.443359"/>
    </g>
   </g>
   <g id="text_13">
    <!-- Parse -->
    <g transform="translate(361.832136 150.45351)scale(0.08 -0.08)">
     <defs>
      <path id="DejaVuSans-72" d="M 2631 2963 
Q 2534 3019 2420 3045 
Q 2306 3072 2169 3072 
Q 1681 3072 1420 2755 
Q 1159 2438 1159 1844 
L 1159 0 
L 581 0 
L 581 3500 
L 1159 3500 
L 1159 2956 
Q 1341 3275 1631 3429 
Q 1922 3584 2338 3584 
Q 2397 3584 2469 3576 
Q 2541 3569 2628 3553 
L 2631 2963 
z
" transform="scale(0.015625)"/>
      <path id="DejaVuSans-73" d="M 2834 3397 
L 2834 2853 
Q 2591 2978 2328 3040 
Q 2066 3103 1784 3103 
Q 1356 3103 1142 2972 
Q 928 2841 928 2578 
Q 928 2378 1081 2264 
Q 1234 2150 1697 2047 
L 1894 2003 
Q 2506 1872 2764 1633 
Q 3022 1394 3022 966 
Q 3022 478 2636 193 
Q 2250 -91 1575 -91 
Q 1294 -91 989 -36 
Q 684 19 347 128 
L 347 722 
Q 666 556 975 473 
Q 1284 391 1588 391 
Q 1994 391 2212 530 
Q 2431 669 2431 922 
Q 2431 1156 2273 1281 
Q 2116 1406 1581 1522 
L 1381 1569 
Q 847 1681 609 1914 
Q 372 2147 372 2553 
Q 372 3047 722 3315 
Q 1072 3584 1716 3584 
Q 2034 3584 2315 3537 
Q 2597 3491 2834 3397 
z
" transform="scale(0.015625)"/>
      <path id="DejaVuSans-65" d="M 3597 1894 
L 3597 1613 
L 953 1613 
Q 991 1019 1311 708 
Q 1631 397 2203 397 
Q 2534 397 2845 478 
Q 3156 559 3463 722 
L 3463 178 
Q 3153 47 2828 -22 
Q 2503 -91 2169 -91 
Q 1331 -91 842 396 
Q 353 884 353 1716 
Q 353 2575 817 3079 
Q 1281 3584 2069 3584 
Q 2775 3584 3186 3129 
Q 3597 2675 3597 1894 
z
M 3022 2063 
Q 3016 2534 2758 2815 
Q 2500 3097 2075 3097 
Q 1594 3097 1305 2825 
Q 1016 2553 972 2059 
L 3022 2063 
z
" transform="scale(0.015625)"/>
     </defs>
     <use xlink:href="#DejaVuSans-50"/>
     <use xlink:href="#DejaVuSans-61" x="55.802734"/>
     <use xlink:href="#DejaVuSans-72" x="117.082031"/>
     <use xlink:href="#DejaVuSans-73" x="158.195312"/>
     <use xlink:href="#DejaVuSans-65" x="210.294922"/>
    </g>
   </g>
   <g id="text_14">
    <!-- FootBin -->
    <g transform="translate(361.832136 60.881244)scale(0.08 -0.08)">
     <defs>
      <path id="DejaVuSans-46" d="M 628 4666 
L 3309 4666 
L 3309 4134 
L 1259 4134 
L 1259 2759 
L 3109 2759 
L 3109 2228 
L 1259 2228 
L 1259 0 
L 628 0 
L 628 4666 
z
" transform="scale(0.015625)"/>
      <path id="DejaVuSans-6f" d="M 1959 3097 
Q 1497 3097 1228 2736 
Q 959 2375 959 1747 
Q 959 1119 1226 758 
Q 1494 397 1959 397 
Q 2419 397 2687 759 
Q 2956 1122 2956 1747 
Q 2956 2369 2687 2733 
Q 2419 3097 1959 3097 
z
M 1959 3584 
Q 2709 3584 3137 3096 
Q 3566 2609 3566 1747 
Q 3566 888 3137 398 
Q 2709 -91 1959 -91 
Q 1206 -91 779 398 
Q 353 888 353 1747 
Q 353 2609 779 3096 
Q 1206 3584 1959 3584 
z
" transform="scale(0.015625)"/>
      <path id="DejaVuSans-74" d="M 1172 4494 
L 1172 3500 
L 2356 3500 
L 2356 3053 
L 1172 3053 
L 1172 1153 
Q 1172 725 1289 603 
Q 1406 481 1766 481 
L 2356 481 
L 2356 0 
L 1766 0 
Q 1100 0 847 248 
Q 594 497 594 1153 
L 594 3053 
L 172 3053 
L 172 3500 
L 594 3500 
L 594 4494 
L 1172 4494 
z
" transform="scale(0.015625)"/>
      <path id="DejaVuSans-42" d="M 1259 2228 
L 1259 519 
L 2272 519 
Q 2781 519 3026 730 
Q 3272 941 3272 1375 
Q 3272 1813 3026 2020 
Q 2781 2228 2272 2228 
L 1259 2228 
z
M 1259 4147 
L 1259 2741 
L 2194 2741 
Q 2656 2741 2882 2914 
Q 3109 3088 3109 3444 
Q 3109 3797 2882 3972 
Q 2656 4147 2194 4147 
L 1259 4147 
z
M 628 4666 
L 2241 4666 
Q 2963 4666 3353 4366 
Q 3744 4066 3744 3513 
Q 3744 3084 3544 2831 
Q 3344 2578 2956 2516 
Q 3422 2416 3680 2098 
Q 3938 1781 3938 1306 
Q 3938 681 3513 340 
Q 3088 0 2303 0 
L 628 0 
L 628 4666 
z
" transform="scale(0.015625)"/>
      <path id="DejaVuSans-6e" d="M 3513 2113 
L 3513 0 
L 2938 0 
L 2938 2094 
Q 2938 2591 2744 2837 
Q 2550 3084 2163 3084 
Q 1697 3084 1428 2787 
Q 1159 2491 1159 1978 
L 1159 0 
L 581 0 
L 581 3500 
L 1159 3500 
L 1159 2956 
Q 1366 3272 1645 3428 
Q 1925 3584 2291 3584 
Q 2894 3584 3203 3211 
Q 3513 2838 3513 2113 
z
" transform="scale(0.015625)"/>
     </defs>
     <use xlink:href="#DejaVuSans-46"/>
     <use xlink:href="#DejaVuSans-6f" x="53.894531"/>
     <use xlink:href="#DejaVuSans-6f" x="115.076172"/>
     <use xlink:href="#DejaVuSans-74" x="176.257812"/>
     <use xlink:href="#DejaVuSans-42" x="215.466797"/>
     <use xlink:href="#DejaVuSans-69" x="284.070312"/>
     <use xlink:href="#DejaVuSans-6e" x="311.853516"/>
    </g>
   </g>
   <g id="text_15">
    <!-- WFL -->
    <g transform="translate(361.832136 102.78724)scale(0.08 -0.08)">
     <defs>
      <path id="DejaVuSans-4c" d="M 628 4666 
L 1259 4666 
L 1259 531 
L 3531 531 
L 3531 0 
L 628 0 
L 628 4666 
z
" transform="scale(0.015625)"/>
     </defs>
     <use xlink:href="#DejaVuSans-57"/>
     <use xlink:href="#DejaVuSans-46" x="98.876953"/>
     <use xlink:href="#DejaVuSans-4c" x="156.396484"/>
    </g>
   </g>
   <g id="text_16">
    <!-- WFR -->
    <g transform="translate(361.832136 103.132856)scale(0.08 -0.08)">
     <defs>
      <path id="DejaVuSans-52" d="M 2841 2188 
Q 3044 2119 3236 1894 
Q 3428 1669 3622 1275 
L 4263 0 
L 3584 0 
L 2988 1197 
Q 2756 1666 2539 1819 
Q 2322 1972 1947 1972 
L 1259 1972 
L 1259 0 
L 628 0 
L 628 4666 
L 2053 4666 
Q 2853 4666 3247 4331 
Q 3641 3997 3641 3322 
Q 3641 2881 3436 2590 
Q 3231 2300 2841 2188 
z
M 1259 4147 
L 1259 2491 
L 2053 2491 
Q 2509 2491 2742 2702 
Q 2975 2913 2975 3322 
Q 2975 3731 2742 3939 
Q 2509 4147 2053 4147 
L 1259 4147 
z
" transform="scale(0.015625)"/>
     </defs>
     <use xlink:href="#DejaVuSans-57"/>
     <use xlink:href="#DejaVuSans-46" x="98.876953"/>
     <use xlink:href="#DejaVuSans-52" x="156.396484"/>
    </g>
   </g>
   <g id="text_17">
    <!-- Main-L -->
    <g transform="translate(361.832136 125.828337)scale(0.08 -0.08)">
     <defs>
      <path id="DejaVuSans-4d" d="M 628 4666 
L 1569 4666 
L 2759 1491 
L 3956 4666 
L 4897 4666 
L 4897 0 
L 4281 0 
L 4281 4097 
L 3078 897 
L 2444 897 
L 1241 4097 
L 1241 0 
L 628 0 
L 628 4666 
z
" transform="scale(0.015625)"/>
      <path id="DejaVuSans-2d" d="M 313 2009 
L 1997 2009 
L 1997 1497 
L 313 1497 
L 313 2009 
z
" transform="scale(0.015625)"/>
     </defs>
     <use xlink:href="#DejaVuSans-4d"/>
     <use xlink:href="#DejaVuSans-61" x="86.279297"/>
     <use xlink:href="#DejaVuSans-69" x="147.558594"/>
     <use xlink:href="#DejaVuSans-6e" x="175.341797"/>
     <use xlink:href="#DejaVuSans-2d" x="238.720703"/>
     <use xlink:href="#DejaVuSans-4c" x="274.804688"/>
    </g>
   </g>
   <g id="text_18">
    <!-- Main-R -->
    <g transform="translate(361.832136 103.507274)scale(0.08 -0.08)">
     <use xlink:href="#DejaVuSans-4d"/>
     <use xlink:href="#DejaVuSans-61" x="86.279297"/>
     <use xlink:href="#DejaVuSans-69" x="147.558594"/>
     <use xlink:href="#DejaVuSans-6e" x="175.341797"/>
     <use xlink:href="#DejaVuSans-2d" x="238.720703"/>
     <use xlink:href="#DejaVuSans-52" x="274.804688"/>
    </g>
   </g>
   <g id="text_19">
    <!-- AFL -->
    <g transform="translate(361.832136 87.378506)scale(0.08 -0.08)">
     <defs>
      <path id="DejaVuSans-41" d="M 2188 4044 
L 1331 1722 
L 3047 1722 
L 2188 4044 
z
M 1831 4666 
L 2547 4666 
L 4325 0 
L 3669 0 
L 3244 1197 
L 1141 1197 
L 716 0 
L 50 0 
L 1831 4666 
z
" transform="scale(0.015625)"/>
     </defs>
     <use xlink:href="#DejaVuSans-41"/>
     <use xlink:href="#DejaVuSans-46" x="68.408203"/>
     <use xlink:href="#DejaVuSans-4c" x="125.927734"/>
    </g>
   </g>
   <g id="text_20">
    <!-- AFR -->
    <g transform="translate(361.832136 156.933818)scale(0.08 -0.08)">
     <use xlink:href="#DejaVuSans-41"/>
     <use xlink:href="#DejaVuSans-46" x="68.408203"/>
     <use xlink:href="#DejaVuSans-52" x="125.927734"/>
    </g>
   </g>
   <g id="text_21">
    <!-- Nonfinal -->
    <g transform="translate(361.832136 46.970182)scale(0.08 -0.08)">
     <defs>
      <path id="DejaVuSans-4e" d="M 628 4666 
L 1478 4666 
L 3547 763 
L 3547 4666 
L 4159 4666 
L 4159 0 
L 3309 0 
L 1241 3903 
L 1241 0 
L 628 0 
L 628 4666 
z
" transform="scale(0.015625)"/>
      <path id="DejaVuSans-66" d="M 2375 4863 
L 2375 4384 
L 1825 4384 
Q 1516 4384 1395 4259 
Q 1275 4134 1275 3809 
L 1275 3500 
L 2222 3500 
L 2222 3053 
L 1275 3053 
L 1275 0 
L 697 0 
L 697 3053 
L 147 3053 
L 147 3500 
L 697 3500 
L 697 3744 
Q 697 4328 969 4595 
Q 1241 4863 1831 4863 
L 2375 4863 
z
" transform="scale(0.015625)"/>
      <path id="DejaVuSans-6c" d="M 603 4863 
L 1178 4863 
L 1178 0 
L 603 0 
L 603 4863 
z
" transform="scale(0.015625)"/>
     </defs>
     <use xlink:href="#DejaVuSans-4e"/>
     <use xlink:href="#DejaVuSans-6f" x="74.804688"/>
     <use xlink:href="#DejaVuSans-6e" x="135.986328"/>
     <use xlink:href="#DejaVuSans-66" x="199.365234"/>
     <use xlink:href="#DejaVuSans-69" x="234.570312"/>
     <use xlink:href="#DejaVuSans-6e" x="262.353516"/>
     <use xlink:href="#DejaVuSans-61" x="325.732422"/>
     <use xlink:href="#DejaVuSans-6c" x="387.011719"/>
    </g>
   </g>
   <g id="text_22">
    <!-- Trochaic -->
    <g transform="translate(361.832136 114.307788)scale(0.08 -0.08)">
     <defs>
      <path id="DejaVuSans-54" d="M -19 4666 
L 3928 4666 
L 3928 4134 
L 2272 4134 
L 2272 0 
L 1638 0 
L 1638 4134 
L -19 4134 
L -19 4666 
z
" transform="scale(0.015625)"/>
      <path id="DejaVuSans-68" d="M 3513 2113 
L 3513 0 
L 2938 0 
L 2938 2094 
Q 2938 2591 2744 2837 
Q 2550 3084 2163 3084 
Q 1697 3084 1428 2787 
Q 1159 2491 1159 1978 
L 1159 0 
L 581 0 
L 581 4863 
L 1159 4863 
L 1159 2956 
Q 1366 3272 1645 3428 
Q 1925 3584 2291 3584 
Q 2894 3584 3203 3211 
Q 3513 2838 3513 2113 
z
" transform="scale(0.015625)"/>
     </defs>
     <use xlink:href="#DejaVuSans-54"/>
     <use xlink:href="#DejaVuSans-72" x="46.333984"/>
     <use xlink:href="#DejaVuSans-6f" x="85.197266"/>
     <use xlink:href="#DejaVuSans-63" x="146.378906"/>
     <use xlink:href="#DejaVuSans-68" x="201.359375"/>
     <use xlink:href="#DejaVuSans-61" x="264.738281"/>
     <use xlink:href="#DejaVuSans-69" x="326.017578"/>
     <use xlink:href="#DejaVuSans-63" x="353.800781"/>
    </g>
   </g>
  </g>
  <g id="axes_2">
   <g id="patch_7">
    <path d="M 57.6 307.584 
L 414.72 307.584 
L 414.72 186.624 
L 57.6 186.624 
z
" style="fill: #ffffff"/>
   </g>
   <g id="matplotlib.axis_3">
    <g id="xtick_8">
     <g id="line2d_23">
      <g>
       <use xlink:href="#m8d2fa8f148" x="72.058659" y="307.584" style="stroke: #000000; stroke-width: 0.8"/>
      </g>
     </g>
     <g id="text_23">
      <!-- 0 -->
      <g transform="translate(68.877409 322.182437)scale(0.1 -0.1)">
       <use xlink:href="#DejaVuSans-30"/>
      </g>
     </g>
    </g>
    <g id="xtick_9">
     <g id="line2d_24">
      <g>
       <use xlink:href="#m8d2fa8f148" x="116.410373" y="307.584" style="stroke: #000000; stroke-width: 0.8"/>
      </g>
     </g>
     <g id="text_24">
      <!-- 25 -->
      <g transform="translate(110.047873 322.182437)scale(0.1 -0.1)">
       <use xlink:href="#DejaVuSans-32"/>
       <use xlink:href="#DejaVuSans-35" x="63.623047"/>
      </g>
     </g>
    </g>
    <g id="xtick_10">
     <g id="line2d_25">
      <g>
       <use xlink:href="#m8d2fa8f148" x="160.762086" y="307.584" style="stroke: #000000; stroke-width: 0.8"/>
      </g>
     </g>
     <g id="text_25">
      <!-- 50 -->
      <g transform="translate(154.399586 322.182437)scale(0.1 -0.1)">
       <use xlink:href="#DejaVuSans-35"/>
       <use xlink:href="#DejaVuSans-30" x="63.623047"/>
      </g>
     </g>
    </g>
    <g id="xtick_11">
     <g id="line2d_26">
      <g>
       <use xlink:href="#m8d2fa8f148" x="205.1138" y="307.584" style="stroke: #000000; stroke-width: 0.8"/>
      </g>
     </g>
     <g id="text_26">
      <!-- 75 -->
      <g transform="translate(198.7513 322.182437)scale(0.1 -0.1)">
       <defs>
        <path id="DejaVuSans-37" d="M 525 4666 
L 3525 4666 
L 3525 4397 
L 1831 0 
L 1172 0 
L 2766 4134 
L 525 4134 
L 525 4666 
z
" transform="scale(0.015625)"/>
       </defs>
       <use xlink:href="#DejaVuSans-37"/>
       <use xlink:href="#DejaVuSans-35" x="63.623047"/>
      </g>
     </g>
    </g>
    <g id="xtick_12">
     <g id="line2d_27">
      <g>
       <use xlink:href="#m8d2fa8f148" x="249.465514" y="307.584" style="stroke: #000000; stroke-width: 0.8"/>
      </g>
     </g>
     <g id="text_27">
      <!-- 100 -->
      <g transform="translate(239.921764 322.182437)scale(0.1 -0.1)">
       <use xlink:href="#DejaVuSans-31"/>
       <use xlink:href="#DejaVuSans-30" x="63.623047"/>
       <use xlink:href="#DejaVuSans-30" x="127.246094"/>
      </g>
     </g>
    </g>
    <g id="xtick_13">
     <g id="line2d_28">
      <g>
       <use xlink:href="#m8d2fa8f148" x="293.817228" y="307.584" style="stroke: #000000; stroke-width: 0.8"/>
      </g>
     </g>
     <g id="text_28">
      <!-- 125 -->
      <g transform="translate(284.273478 322.182437)scale(0.1 -0.1)">
       <use xlink:href="#DejaVuSans-31"/>
       <use xlink:href="#DejaVuSans-32" x="63.623047"/>
       <use xlink:href="#DejaVuSans-35" x="127.246094"/>
      </g>
     </g>
    </g>
    <g id="xtick_14">
     <g id="line2d_29">
      <g>
       <use xlink:href="#m8d2fa8f148" x="338.168942" y="307.584" style="stroke: #000000; stroke-width: 0.8"/>
      </g>
     </g>
     <g id="text_29">
      <!-- 150 -->
      <g transform="translate(328.625192 322.182437)scale(0.1 -0.1)">
       <use xlink:href="#DejaVuSans-31"/>
       <use xlink:href="#DejaVuSans-35" x="63.623047"/>
       <use xlink:href="#DejaVuSans-30" x="127.246094"/>
      </g>
     </g>
    </g>
    <g id="xtick_15">
     <g id="line2d_30">
      <g>
       <use xlink:href="#m8d2fa8f148" x="382.520656" y="307.584" style="stroke: #000000; stroke-width: 0.8"/>
      </g>
     </g>
     <g id="text_30">
      <!-- 175 -->
      <g transform="translate(372.976906 322.182437)scale(0.1 -0.1)">
       <use xlink:href="#DejaVuSans-31"/>
       <use xlink:href="#DejaVuSans-37" x="63.623047"/>
       <use xlink:href="#DejaVuSans-35" x="127.246094"/>
      </g>
     </g>
    </g>
   </g>
   <g id="matplotlib.axis_4">
    <g id="ytick_4">
     <g id="line2d_31">
      <g>
       <use xlink:href="#m91735c59f0" x="57.6" y="302.098371" style="stroke: #000000; stroke-width: 0.8"/>
      </g>
     </g>
     <g id="text_31">
      <!-- 0 -->
      <g transform="translate(44.2375 305.89759)scale(0.1 -0.1)">
       <use xlink:href="#DejaVuSans-30"/>
      </g>
     </g>
    </g>
    <g id="ytick_5">
     <g id="line2d_32">
      <g>
       <use xlink:href="#m91735c59f0" x="57.6" y="276.992518" style="stroke: #000000; stroke-width: 0.8"/>
      </g>
     </g>
     <g id="text_32">
      <!-- 2000 -->
      <g transform="translate(25.15 280.791737)scale(0.1 -0.1)">
       <use xlink:href="#DejaVuSans-32"/>
       <use xlink:href="#DejaVuSans-30" x="63.623047"/>
       <use xlink:href="#DejaVuSans-30" x="127.246094"/>
       <use xlink:href="#DejaVuSans-30" x="190.869141"/>
      </g>
     </g>
    </g>
    <g id="ytick_6">
     <g id="line2d_33">
      <g>
       <use xlink:href="#m91735c59f0" x="57.6" y="251.886665" style="stroke: #000000; stroke-width: 0.8"/>
      </g>
     </g>
     <g id="text_33">
      <!-- 4000 -->
      <g transform="translate(25.15 255.685884)scale(0.1 -0.1)">
       <use xlink:href="#DejaVuSans-34"/>
       <use xlink:href="#DejaVuSans-30" x="63.623047"/>
       <use xlink:href="#DejaVuSans-30" x="127.246094"/>
       <use xlink:href="#DejaVuSans-30" x="190.869141"/>
      </g>
     </g>
    </g>
    <g id="ytick_7">
     <g id="line2d_34">
      <g>
       <use xlink:href="#m91735c59f0" x="57.6" y="226.780812" style="stroke: #000000; stroke-width: 0.8"/>
      </g>
     </g>
     <g id="text_34">
      <!-- 6000 -->
      <g transform="translate(25.15 230.580031)scale(0.1 -0.1)">
       <use xlink:href="#DejaVuSans-36"/>
       <use xlink:href="#DejaVuSans-30" x="63.623047"/>
       <use xlink:href="#DejaVuSans-30" x="127.246094"/>
       <use xlink:href="#DejaVuSans-30" x="190.869141"/>
      </g>
     </g>
    </g>
    <g id="ytick_8">
     <g id="line2d_35">
      <g>
       <use xlink:href="#m91735c59f0" x="57.6" y="201.674959" style="stroke: #000000; stroke-width: 0.8"/>
      </g>
     </g>
     <g id="text_35">
      <!-- 8000 -->
      <g transform="translate(25.15 205.474178)scale(0.1 -0.1)">
       <use xlink:href="#DejaVuSans-38"/>
       <use xlink:href="#DejaVuSans-30" x="63.623047"/>
       <use xlink:href="#DejaVuSans-30" x="127.246094"/>
       <use xlink:href="#DejaVuSans-30" x="190.869141"/>
      </g>
     </g>
    </g>
   </g>
   <g id="line2d_36">
    <path d="M 73.832727 302.085818 
L 134.151058 302.060712 
L 135.925127 301.83476 
L 137.699195 302.085818 
L 143.021401 302.060712 
L 153.665812 302.073265 
L 162.536155 302.048159 
L 173.180566 302.048159 
L 176.728703 302.035606 
L 183.824978 301.884971 
L 185.599046 302.035606 
L 187.373115 301.972842 
L 189.147183 302.085818 
L 190.921252 301.83476 
L 192.69532 302.010501 
L 194.469389 301.659019 
L 198.017526 302.085818 
L 199.791595 301.972842 
L 205.1138 302.023054 
L 212.210075 301.884971 
L 215.758212 302.073265 
L 217.53228 301.822207 
L 219.306349 302.048159 
L 221.080417 302.085818 
L 222.854486 301.809654 
L 224.628554 301.859866 
L 228.176692 301.659019 
L 229.95076 302.060712 
L 233.498897 301.721783 
L 235.272966 301.960289 
L 237.047034 301.872418 
L 238.821103 302.073265 
L 240.595171 302.023054 
L 244.143308 301.583701 
L 245.917377 301.897524 
L 249.465514 302.023054 
L 253.013651 301.972842 
L 254.78772 301.70923 
L 256.561788 301.771995 
L 258.335857 302.085818 
L 260.109925 301.520936 
L 261.883994 301.872418 
L 265.432131 301.847313 
L 267.2062 300.930949 
L 268.980268 301.207113 
L 270.754337 302.085818 
L 274.302474 302.023054 
L 276.076542 302.085818 
L 277.850611 301.32009 
L 279.62468 301.884971 
L 281.398748 301.872418 
L 283.172817 300.855631 
L 286.720954 301.508384 
L 288.495022 301.596254 
L 290.269091 301.043925 
L 292.043159 298.294834 
L 293.817228 299.424598 
L 295.591297 296.010202 
L 297.365365 301.759442 
L 299.139434 301.169455 
L 300.913502 301.357748 
L 302.687571 300.704996 
L 304.461639 301.684125 
L 306.235708 298.922481 
L 308.009776 301.659019 
L 309.783845 294.528956 
L 311.557914 301.144349 
L 313.331982 301.83476 
L 315.106051 299.311621 
L 316.880119 298.872269 
L 318.654188 301.646466 
L 320.428256 295.093838 
L 322.202325 300.654785 
L 323.976393 298.156752 
L 325.750462 295.332344 
L 327.524531 300.855631 
L 329.298599 294.993415 
L 331.072668 297.165071 
L 332.846736 297.328259 
L 334.620805 297.80527 
L 336.394873 298.922481 
L 338.168942 296.361684 
L 339.94301 297.215283 
L 341.717079 291.014137 
L 343.491148 297.780164 
L 345.265216 290.624996 
L 347.039285 300.315856 
L 348.813353 301.897524 
L 350.587422 283.507487 
L 352.36149 256.229978 
L 354.135559 292.244324 
L 355.909627 291.641783 
L 357.683696 295.646167 
L 359.457765 265.167661 
L 361.231833 299.311621 
L 363.005902 301.483278 
L 364.77997 280.105644 
L 366.554039 300.127562 
L 368.328107 275.825096 
L 370.102176 261.150725 
L 371.876244 270.13862 
L 373.650313 277.682929 
L 375.424382 296.198496 
L 377.19845 277.43187 
L 378.972519 262.694735 
L 380.746587 289.633315 
L 382.520656 287.2106 
L 384.294724 295.646167 
L 386.068793 278.210152 
L 387.842861 300.37862 
L 389.61693 260.334785 
L 391.390999 192.122182 
L 393.165067 291.779866 
L 394.939136 249.175233 
L 396.713204 292.1439 
L 398.487273 298.909928 
L 398.487273 298.909928 
" clip-path="url(#p22202cd0fe)" style="fill: none; stroke: #1f77b4; stroke-width: 1.5; stroke-linecap: square"/>
   </g>
   <g id="patch_8">
    <path d="M 57.6 307.584 
L 57.6 186.624 
" style="fill: none; stroke: #000000; stroke-width: 0.8; stroke-linejoin: miter; stroke-linecap: square"/>
   </g>
   <g id="patch_9">
    <path d="M 414.72 307.584 
L 414.72 186.624 
" style="fill: none; stroke: #000000; stroke-width: 0.8; stroke-linejoin: miter; stroke-linecap: square"/>
   </g>
   <g id="patch_10">
    <path d="M 57.6 307.584 
L 414.72 307.584 
" style="fill: none; stroke: #000000; stroke-width: 0.8; stroke-linejoin: miter; stroke-linecap: square"/>
   </g>
   <g id="patch_11">
    <path d="M 57.6 186.624 
L 414.72 186.624 
" style="fill: none; stroke: #000000; stroke-width: 0.8; stroke-linejoin: miter; stroke-linecap: square"/>
   </g>
  </g>
 </g>
 <defs>
  <clipPath id="pe74df5d3a6">
   <rect x="57.6" y="41.472" width="357.12" height="120.96"/>
  </clipPath>
  <clipPath id="p22202cd0fe">
   <rect x="57.6" y="186.624" width="357.12" height="120.96"/>
  </clipPath>
 </defs>
</svg>
