<?xml version="1.0" encoding="utf-8" standalone="no"?>
<!DOCTYPE svg PUBLIC "-//W3C//DTD SVG 1.1//EN"
  "http://www.w3.org/Graphics/SVG/1.1/DTD/svg11.dtd">
<svg xmlns:xlink="http://www.w3.org/1999/xlink" width="460.8pt" height="345.6pt" viewBox="0 0 460.8 345.6" xmlns="http://www.w3.org/2000/svg" version="1.1">
 <metadata>
  <rdf:RDF xmlns:dc="http://purl.org/dc/elements/1.1/" xmlns:cc="http://creativecommons.org/ns#" xmlns:rdf="http://www.w3.org/1999/02/22-rdf-syntax-ns#">
   <cc:Work>
    <dc:type rdf:resource="http://purl.org/dc/dcmitype/StillImage"/>
    <dc:date>2022-05-13T23:13:19.199400</dc:date>
    <dc:format>image/svg+xml</dc:format>
    <dc:creator>
     <cc:Agent>
      <dc:title>Matplotlib v3.5.1, https://matplotlib.org/</dc:title>
     </cc:Agent>
    </dc:creator>
   </cc:Work>
  </rdf:RDF>
 </metadata>
 <defs>
  <style type="text/css">*{stroke-linejoin: round; stroke-linecap: butt}</style>
 </defs>
 <g id="figure_1">
  <g id="patch_1">
   <path d="M 0 345.6 
L 460.8 345.6 
L 460.8 0 
L 0 0 
z
" style="fill: #ffffff"/>
  </g>
  <g id="axes_1">
   <g id="patch_2">
    <path d="M 57.6 162.432 
L 414.72 162.432 
L 414.72 41.472 
L 57.6 41.472 
z
" style="fill: #ffffff"/>
   </g>
   <g id="matplotlib.axis_1">
    <g id="xtick_1">
     <g id="line2d_1">
      <defs>
       <path id="m0887488431" d="M 0 0 
L 0 3.5 
" style="stroke: #000000; stroke-width: 0.8"/>
      </defs>
      <g>
       <use xlink:href="#m0887488431" x="73.827491" y="162.432" style="stroke: #000000; stroke-width: 0.8"/>
      </g>
     </g>
     <g id="text_1">
      <!-- 0 -->
      <g transform="translate(70.646241 177.030437)scale(0.1 -0.1)">
       <defs>
        <path id="DejaVuSans-30" d="M 2034 4250 
Q 1547 4250 1301 3770 
Q 1056 3291 1056 2328 
Q 1056 1369 1301 889 
Q 1547 409 2034 409 
Q 2525 409 2770 889 
Q 3016 1369 3016 2328 
Q 3016 3291 2770 3770 
Q 2525 4250 2034 4250 
z
M 2034 4750 
Q 2819 4750 3233 4129 
Q 3647 3509 3647 2328 
Q 3647 1150 3233 529 
Q 2819 -91 2034 -91 
Q 1250 -91 836 529 
Q 422 1150 422 2328 
Q 422 3509 836 4129 
Q 1250 4750 2034 4750 
z
" transform="scale(0.015625)"/>
       </defs>
       <use xlink:href="#DejaVuSans-30"/>
      </g>
     </g>
    </g>
    <g id="xtick_2">
     <g id="line2d_2">
      <g>
       <use xlink:href="#m0887488431" x="126.191972" y="162.432" style="stroke: #000000; stroke-width: 0.8"/>
      </g>
     </g>
     <g id="text_2">
      <!-- 10000 -->
      <g transform="translate(110.285722 177.030437)scale(0.1 -0.1)">
       <defs>
        <path id="DejaVuSans-31" d="M 794 531 
L 1825 531 
L 1825 4091 
L 703 3866 
L 703 4441 
L 1819 4666 
L 2450 4666 
L 2450 531 
L 3481 531 
L 3481 0 
L 794 0 
L 794 531 
z
" transform="scale(0.015625)"/>
       </defs>
       <use xlink:href="#DejaVuSans-31"/>
       <use xlink:href="#DejaVuSans-30" x="63.623047"/>
       <use xlink:href="#DejaVuSans-30" x="127.246094"/>
       <use xlink:href="#DejaVuSans-30" x="190.869141"/>
       <use xlink:href="#DejaVuSans-30" x="254.492188"/>
      </g>
     </g>
    </g>
    <g id="xtick_3">
     <g id="line2d_3">
      <g>
       <use xlink:href="#m0887488431" x="178.556453" y="162.432" style="stroke: #000000; stroke-width: 0.8"/>
      </g>
     </g>
     <g id="text_3">
      <!-- 20000 -->
      <g transform="translate(162.650203 177.030437)scale(0.1 -0.1)">
       <defs>
        <path id="DejaVuSans-32" d="M 1228 531 
L 3431 531 
L 3431 0 
L 469 0 
L 469 531 
Q 828 903 1448 1529 
Q 2069 2156 2228 2338 
Q 2531 2678 2651 2914 
Q 2772 3150 2772 3378 
Q 2772 3750 2511 3984 
Q 2250 4219 1831 4219 
Q 1534 4219 1204 4116 
Q 875 4013 500 3803 
L 500 4441 
Q 881 4594 1212 4672 
Q 1544 4750 1819 4750 
Q 2544 4750 2975 4387 
Q 3406 4025 3406 3419 
Q 3406 3131 3298 2873 
Q 3191 2616 2906 2266 
Q 2828 2175 2409 1742 
Q 1991 1309 1228 531 
z
" transform="scale(0.015625)"/>
       </defs>
       <use xlink:href="#DejaVuSans-32"/>
       <use xlink:href="#DejaVuSans-30" x="63.623047"/>
       <use xlink:href="#DejaVuSans-30" x="127.246094"/>
       <use xlink:href="#DejaVuSans-30" x="190.869141"/>
       <use xlink:href="#DejaVuSans-30" x="254.492188"/>
      </g>
     </g>
    </g>
    <g id="xtick_4">
     <g id="line2d_4">
      <g>
       <use xlink:href="#m0887488431" x="230.920934" y="162.432" style="stroke: #000000; stroke-width: 0.8"/>
      </g>
     </g>
     <g id="text_4">
      <!-- 30000 -->
      <g transform="translate(215.014684 177.030437)scale(0.1 -0.1)">
       <defs>
        <path id="DejaVuSans-33" d="M 2597 2516 
Q 3050 2419 3304 2112 
Q 3559 1806 3559 1356 
Q 3559 666 3084 287 
Q 2609 -91 1734 -91 
Q 1441 -91 1130 -33 
Q 819 25 488 141 
L 488 750 
Q 750 597 1062 519 
Q 1375 441 1716 441 
Q 2309 441 2620 675 
Q 2931 909 2931 1356 
Q 2931 1769 2642 2001 
Q 2353 2234 1838 2234 
L 1294 2234 
L 1294 2753 
L 1863 2753 
Q 2328 2753 2575 2939 
Q 2822 3125 2822 3475 
Q 2822 3834 2567 4026 
Q 2313 4219 1838 4219 
Q 1578 4219 1281 4162 
Q 984 4106 628 3988 
L 628 4550 
Q 988 4650 1302 4700 
Q 1616 4750 1894 4750 
Q 2613 4750 3031 4423 
Q 3450 4097 3450 3541 
Q 3450 3153 3228 2886 
Q 3006 2619 2597 2516 
z
" transform="scale(0.015625)"/>
       </defs>
       <use xlink:href="#DejaVuSans-33"/>
       <use xlink:href="#DejaVuSans-30" x="63.623047"/>
       <use xlink:href="#DejaVuSans-30" x="127.246094"/>
       <use xlink:href="#DejaVuSans-30" x="190.869141"/>
       <use xlink:href="#DejaVuSans-30" x="254.492188"/>
      </g>
     </g>
    </g>
    <g id="xtick_5">
     <g id="line2d_5">
      <g>
       <use xlink:href="#m0887488431" x="283.285415" y="162.432" style="stroke: #000000; stroke-width: 0.8"/>
      </g>
     </g>
     <g id="text_5">
      <!-- 40000 -->
      <g transform="translate(267.379165 177.030437)scale(0.1 -0.1)">
       <defs>
        <path id="DejaVuSans-34" d="M 2419 4116 
L 825 1625 
L 2419 1625 
L 2419 4116 
z
M 2253 4666 
L 3047 4666 
L 3047 1625 
L 3713 1625 
L 3713 1100 
L 3047 1100 
L 3047 0 
L 2419 0 
L 2419 1100 
L 313 1100 
L 313 1709 
L 2253 4666 
z
" transform="scale(0.015625)"/>
       </defs>
       <use xlink:href="#DejaVuSans-34"/>
       <use xlink:href="#DejaVuSans-30" x="63.623047"/>
       <use xlink:href="#DejaVuSans-30" x="127.246094"/>
       <use xlink:href="#DejaVuSans-30" x="190.869141"/>
       <use xlink:href="#DejaVuSans-30" x="254.492188"/>
      </g>
     </g>
    </g>
    <g id="xtick_6">
     <g id="line2d_6">
      <g>
       <use xlink:href="#m0887488431" x="335.649896" y="162.432" style="stroke: #000000; stroke-width: 0.8"/>
      </g>
     </g>
     <g id="text_6">
      <!-- 50000 -->
      <g transform="translate(319.743646 177.030437)scale(0.1 -0.1)">
       <defs>
        <path id="DejaVuSans-35" d="M 691 4666 
L 3169 4666 
L 3169 4134 
L 1269 4134 
L 1269 2991 
Q 1406 3038 1543 3061 
Q 1681 3084 1819 3084 
Q 2600 3084 3056 2656 
Q 3513 2228 3513 1497 
Q 3513 744 3044 326 
Q 2575 -91 1722 -91 
Q 1428 -91 1123 -41 
Q 819 9 494 109 
L 494 744 
Q 775 591 1075 516 
Q 1375 441 1709 441 
Q 2250 441 2565 725 
Q 2881 1009 2881 1497 
Q 2881 1984 2565 2268 
Q 2250 2553 1709 2553 
Q 1456 2553 1204 2497 
Q 953 2441 691 2322 
L 691 4666 
z
" transform="scale(0.015625)"/>
       </defs>
       <use xlink:href="#DejaVuSans-35"/>
       <use xlink:href="#DejaVuSans-30" x="63.623047"/>
       <use xlink:href="#DejaVuSans-30" x="127.246094"/>
       <use xlink:href="#DejaVuSans-30" x="190.869141"/>
       <use xlink:href="#DejaVuSans-30" x="254.492188"/>
      </g>
     </g>
    </g>
    <g id="xtick_7">
     <g id="line2d_7">
      <g>
       <use xlink:href="#m0887488431" x="388.014377" y="162.432" style="stroke: #000000; stroke-width: 0.8"/>
      </g>
     </g>
     <g id="text_7">
      <!-- 60000 -->
      <g transform="translate(372.108127 177.030437)scale(0.1 -0.1)">
       <defs>
        <path id="DejaVuSans-36" d="M 2113 2584 
Q 1688 2584 1439 2293 
Q 1191 2003 1191 1497 
Q 1191 994 1439 701 
Q 1688 409 2113 409 
Q 2538 409 2786 701 
Q 3034 994 3034 1497 
Q 3034 2003 2786 2293 
Q 2538 2584 2113 2584 
z
M 3366 4563 
L 3366 3988 
Q 3128 4100 2886 4159 
Q 2644 4219 2406 4219 
Q 1781 4219 1451 3797 
Q 1122 3375 1075 2522 
Q 1259 2794 1537 2939 
Q 1816 3084 2150 3084 
Q 2853 3084 3261 2657 
Q 3669 2231 3669 1497 
Q 3669 778 3244 343 
Q 2819 -91 2113 -91 
Q 1303 -91 875 529 
Q 447 1150 447 2328 
Q 447 3434 972 4092 
Q 1497 4750 2381 4750 
Q 2619 4750 2861 4703 
Q 3103 4656 3366 4563 
z
" transform="scale(0.015625)"/>
       </defs>
       <use xlink:href="#DejaVuSans-36"/>
       <use xlink:href="#DejaVuSans-30" x="63.623047"/>
       <use xlink:href="#DejaVuSans-30" x="127.246094"/>
       <use xlink:href="#DejaVuSans-30" x="190.869141"/>
       <use xlink:href="#DejaVuSans-30" x="254.492188"/>
      </g>
     </g>
    </g>
   </g>
   <g id="matplotlib.axis_2">
    <g id="ytick_1">
     <g id="line2d_8">
      <defs>
       <path id="m890a010030" d="M 0 0 
L -3.5 0 
" style="stroke: #000000; stroke-width: 0.8"/>
      </defs>
      <g>
       <use xlink:href="#m890a010030" x="57.6" y="137.380227" style="stroke: #000000; stroke-width: 0.8"/>
      </g>
     </g>
     <g id="text_8">
      <!-- 40 -->
      <g transform="translate(37.875 141.179446)scale(0.1 -0.1)">
       <use xlink:href="#DejaVuSans-34"/>
       <use xlink:href="#DejaVuSans-30" x="63.623047"/>
      </g>
     </g>
    </g>
    <g id="ytick_2">
     <g id="line2d_9">
      <g>
       <use xlink:href="#m890a010030" x="57.6" y="110.37872" style="stroke: #000000; stroke-width: 0.8"/>
      </g>
     </g>
     <g id="text_9">
      <!-- 60 -->
      <g transform="translate(37.875 114.177939)scale(0.1 -0.1)">
       <use xlink:href="#DejaVuSans-36"/>
       <use xlink:href="#DejaVuSans-30" x="63.623047"/>
      </g>
     </g>
    </g>
    <g id="ytick_3">
     <g id="line2d_10">
      <g>
       <use xlink:href="#m890a010030" x="57.6" y="83.377213" style="stroke: #000000; stroke-width: 0.8"/>
      </g>
     </g>
     <g id="text_10">
      <!-- 80 -->
      <g transform="translate(37.875 87.176432)scale(0.1 -0.1)">
       <defs>
        <path id="DejaVuSans-38" d="M 2034 2216 
Q 1584 2216 1326 1975 
Q 1069 1734 1069 1313 
Q 1069 891 1326 650 
Q 1584 409 2034 409 
Q 2484 409 2743 651 
Q 3003 894 3003 1313 
Q 3003 1734 2745 1975 
Q 2488 2216 2034 2216 
z
M 1403 2484 
Q 997 2584 770 2862 
Q 544 3141 544 3541 
Q 544 4100 942 4425 
Q 1341 4750 2034 4750 
Q 2731 4750 3128 4425 
Q 3525 4100 3525 3541 
Q 3525 3141 3298 2862 
Q 3072 2584 2669 2484 
Q 3125 2378 3379 2068 
Q 3634 1759 3634 1313 
Q 3634 634 3220 271 
Q 2806 -91 2034 -91 
Q 1263 -91 848 271 
Q 434 634 434 1313 
Q 434 1759 690 2068 
Q 947 2378 1403 2484 
z
M 1172 3481 
Q 1172 3119 1398 2916 
Q 1625 2713 2034 2713 
Q 2441 2713 2670 2916 
Q 2900 3119 2900 3481 
Q 2900 3844 2670 4047 
Q 2441 4250 2034 4250 
Q 1625 4250 1398 4047 
Q 1172 3844 1172 3481 
z
" transform="scale(0.015625)"/>
       </defs>
       <use xlink:href="#DejaVuSans-38"/>
       <use xlink:href="#DejaVuSans-30" x="63.623047"/>
      </g>
     </g>
    </g>
    <g id="ytick_4">
     <g id="line2d_11">
      <g>
       <use xlink:href="#m890a010030" x="57.6" y="56.375707" style="stroke: #000000; stroke-width: 0.8"/>
      </g>
     </g>
     <g id="text_11">
      <!-- 100 -->
      <g transform="translate(31.5125 60.174925)scale(0.1 -0.1)">
       <use xlink:href="#DejaVuSans-31"/>
       <use xlink:href="#DejaVuSans-30" x="63.623047"/>
       <use xlink:href="#DejaVuSans-30" x="127.246094"/>
      </g>
     </g>
    </g>
   </g>
   <g id="line2d_12">
    <path d="M 73.832727 55.925682 
L 73.837964 55.925682 
L 73.848437 55.475656 
L 73.906038 58.130805 
L 73.921747 57.68078 
L 73.984584 61.618499 
L 74.036949 59.818399 
L 74.131205 59.818399 
L 74.173096 58.918349 
L 74.178333 60.268424 
L 74.235934 60.268424 
L 74.293535 60.268424 
L 74.335426 61.168474 
L 74.408737 59.818399 
L 74.471574 59.818399 
L 74.482047 61.168474 
L 74.581539 60.718449 
L 74.649613 60.718449 
L 74.770051 59.593386 
L 74.921908 59.593386 
L 75.042347 58.693336 
L 75.058056 58.693336 
L 75.173258 60.043411 
L 75.414135 60.043411 
L 75.529336 59.593386 
L 75.874942 59.593386 
L 75.958725 58.918349 
L 75.963962 60.268424 
L 75.979671 60.268424 
L 76.492843 60.268424 
L 76.503316 61.618499 
L 76.602808 61.168474 
L 76.613281 61.168474 
L 76.728483 62.518549 
L 76.775611 62.518549 
L 76.890813 62.181031 
L 76.906522 62.181031 
L 77.021724 61.731006 
L 77.445876 61.731006 
L 77.561078 61.393487 
L 77.74959 61.393487 
L 77.864792 62.743562 
L 78.021886 62.743562 
L 78.137088 62.293537 
L 78.39891 62.293537 
L 78.514112 61.843512 
L 80.310214 61.843512 
L 80.425415 61.393487 
L 80.71342 61.393487 
L 80.828622 62.743562 
L 81.064262 62.743562 
L 81.179464 62.293537 
L 81.320848 62.293537 
L 81.43605 61.956018 
L 83.080295 61.956018 
L 83.195496 61.618499 
L 87.777389 61.618499 
L 87.89259 61.168474 
L 89.437343 61.168474 
L 89.552544 60.830955 
L 108.168117 60.830955 
L 108.283319 62.181031 
L 114.169087 62.181031 
L 114.284289 61.731006 
L 115.336815 61.731006 
L 115.452017 61.055968 
L 117.609433 61.055968 
L 117.724635 62.406043 
L 133.716748 62.406043 
L 133.83195 62.068524 
L 135.753726 62.068524 
L 135.868928 63.4186 
L 138.293403 63.4186 
L 138.408605 62.968575 
L 168.298251 62.968575 
L 168.413453 62.631056 
L 169.099427 62.631056 
L 169.214629 62.181031 
L 176.755115 62.181031 
L 176.870316 61.505993 
L 209.430551 61.505993 
L 209.545753 62.856068 
L 220.086723 62.856068 
L 220.201924 62.181031 
L 285.516142 62.181031 
L 285.631343 61.731006 
L 295.931437 61.731006 
L 296.046639 63.081081 
L 302.817366 63.081081 
L 302.932568 62.631056 
L 398.487273 62.631056 
L 398.487273 62.631056 
" clip-path="url(#p0a117d82eb)" style="fill: none; stroke: #1f77b4; stroke-width: 1.5; stroke-linecap: square"/>
   </g>
   <g id="line2d_13">
    <path d="M 73.832727 57.725782 
L 73.879855 57.725782 
L 73.921747 56.330704 
L 73.963638 60.38093 
L 73.968875 60.38093 
L 73.974111 60.38093 
L 73.984584 61.731006 
L 74.057895 59.48088 
L 74.07884 59.48088 
L 74.272589 59.48088 
L 74.387791 57.455767 
L 74.471574 57.455767 
L 74.586776 58.805842 
L 74.633904 58.805842 
L 74.749106 57.455767 
L 398.487273 57.455767 
L 398.487273 57.455767 
" clip-path="url(#p0a117d82eb)" style="fill: none; stroke: #ff7f0e; stroke-width: 1.5; stroke-linecap: square"/>
   </g>
   <g id="line2d_14">
    <path d="M 73.832727 55.925682 
L 73.947929 64.206144 
L 73.974111 64.161141 
L 73.979348 63.823622 
L 74.010767 67.873848 
L 74.026476 67.873848 
L 74.052658 67.873848 
L 74.099786 69.223924 
L 74.162624 67.986355 
L 74.173096 67.986355 
L 74.288298 70.011468 
L 74.293535 70.011468 
L 74.345899 69.291427 
L 74.351136 70.641503 
L 74.393027 70.641503 
L 74.398264 70.641503 
L 74.482047 71.991578 
L 74.508229 71.204034 
L 74.581539 70.866515 
L 74.586776 72.216591 
L 74.602485 72.216591 
L 74.649613 72.216591 
L 74.72816 71.766566 
L 74.733396 73.116641 
L 74.749106 73.116641 
L 74.869544 73.116641 
L 75.000455 78.966967 
L 75.021401 78.966967 
L 75.099948 81.667118 
L 75.136603 80.654562 
L 75.325115 80.654562 
L 75.445553 79.867018 
L 75.487445 79.867018 
L 75.602647 81.217093 
L 75.675957 81.217093 
L 75.796395 83.917244 
L 75.958725 83.917244 
L 76.073927 86.617394 
L 76.194365 85.942357 
L 76.24673 85.942357 
L 76.340986 87.292432 
L 76.356695 86.617394 
L 76.492843 86.617394 
L 76.503316 87.96747 
L 76.602808 87.517445 
L 76.613281 87.517445 
L 76.618518 88.86752 
L 76.723247 88.192482 
L 76.775611 88.192482 
L 76.79132 87.854963 
L 76.843685 89.880076 
L 76.859394 89.880076 
L 76.885577 89.880076 
L 77.000778 92.130202 
L 77.184054 92.130202 
L 77.299256 93.480277 
L 77.445876 93.480277 
L 77.498241 93.142758 
L 77.503477 94.492834 
L 77.550605 93.817796 
L 77.561078 93.817796 
L 77.67628 93.142758 
L 77.718172 93.142758 
L 77.7653 95.842909 
L 77.833374 94.492834 
L 78.021886 94.492834 
L 78.116142 94.042809 
L 78.121378 95.392884 
L 78.267999 95.392884 
L 78.383201 96.742959 
L 78.39891 96.742959 
L 78.514112 96.292934 
L 78.817826 96.292934 
L 78.933028 97.64301 
L 79.105831 97.64301 
L 79.179141 96.967972 
L 79.184377 98.318047 
L 79.210559 98.318047 
L 79.26816 98.318047 
L 79.383362 97.64301 
L 79.886061 97.64301 
L 80.001263 96.967972 
L 80.210721 96.967972 
L 80.310214 98.318047 
L 80.320686 97.868022 
L 80.556327 97.868022 
L 80.671528 97.192984 
L 80.71342 97.192984 
L 80.828622 98.54306 
L 80.933351 98.54306 
L 81.043316 99.893135 
L 81.158518 98.768072 
L 81.320848 98.768072 
L 81.36274 98.430553 
L 81.367976 99.780629 
L 81.415104 99.780629 
L 81.718818 99.780629 
L 81.839256 102.48078 
L 81.970168 102.48078 
L 82.085369 101.805742 
L 83.080295 101.805742 
L 83.195496 101.468223 
L 83.682486 101.468223 
L 83.797688 100.793185 
L 83.975727 100.793185 
L 84.090929 102.143261 
L 86.504932 102.143261 
L 86.620134 103.493336 
L 86.777227 103.493336 
L 86.892429 104.843411 
L 87.698842 104.843411 
L 87.704078 104.168374 
L 87.709315 105.518449 
L 87.803571 105.068424 
L 87.950191 105.068424 
L 88.065393 106.418499 
L 89.285486 106.418499 
L 89.400687 105.743462 
L 89.437343 105.743462 
L 89.552544 105.405943 
L 89.66251 105.405943 
L 89.777712 106.756018 
L 91.49003 106.756018 
L 91.605232 108.106093 
L 92.820088 108.106093 
L 92.93529 109.456169 
L 94.574298 109.456169 
L 94.6895 108.781131 
L 95.312637 108.781131 
L 95.427839 108.106093 
L 96.558912 108.106093 
L 96.674114 109.456169 
L 98.072246 109.456169 
L 98.187447 108.781131 
L 105.031485 108.781131 
L 105.146687 110.131206 
L 108.168117 110.131206 
L 108.283319 111.481282 
L 114.169087 111.481282 
L 114.284289 111.031257 
L 115.897115 111.031257 
L 116.012317 112.381332 
L 117.609433 112.381332 
L 117.724635 113.731407 
L 126.354302 113.731407 
L 126.469504 113.05637 
L 126.54805 113.05637 
L 126.663252 112.381332 
L 132.842261 112.381332 
L 132.957463 113.731407 
L 133.716748 113.731407 
L 133.83195 115.081483 
L 135.146298 115.081483 
L 135.2615 116.431558 
L 135.753726 116.431558 
L 135.868928 117.781633 
L 138.293403 117.781633 
L 138.408605 117.331608 
L 140.073796 117.331608 
L 140.188998 116.656571 
L 148.289783 116.656571 
L 148.404985 115.981533 
L 157.155089 115.981533 
L 157.270291 117.331608 
L 164.260949 117.331608 
L 164.376151 118.681684 
L 168.298251 118.681684 
L 168.413453 118.344165 
L 169.099427 118.344165 
L 169.214629 117.89414 
L 169.27223 117.89414 
L 169.387432 119.244215 
L 179.535669 119.244215 
L 179.65087 120.59429 
L 196.512233 120.59429 
L 196.627435 121.944366 
L 209.430551 121.944366 
L 209.545753 123.294441 
L 212.624784 123.294441 
L 212.739986 122.619403 
L 222.186538 122.619403 
L 222.30174 121.944366 
L 225.956781 121.944366 
L 226.071983 121.269328 
L 227.41775 121.269328 
L 227.532952 120.59429 
L 232.381903 120.59429 
L 232.497105 121.944366 
L 254.259783 121.944366 
L 254.374985 123.294441 
L 285.516142 123.294441 
L 285.631343 122.844416 
L 294.198172 122.844416 
L 294.313374 124.194491 
L 295.931437 124.194491 
L 296.046639 125.544567 
L 297.172475 125.544567 
L 297.287677 124.869529 
L 302.817366 124.869529 
L 302.932568 124.419504 
L 329.538961 124.419504 
L 329.654163 123.744466 
L 389.035484 123.744466 
L 389.150686 125.094541 
L 398.487273 125.094541 
L 398.487273 125.094541 
" clip-path="url(#p0a117d82eb)" style="fill: none; stroke: #2ca02c; stroke-width: 1.5; stroke-linecap: square"/>
   </g>
   <g id="line2d_15">
    <path d="M 73.832727 56.375707 
L 73.874619 56.375707 
L 73.890328 56.105692 
L 73.895565 57.455767 
L 73.974111 56.960739 
L 74.885253 56.960739 
L 75.000455 58.310815 
L 78.116142 58.310815 
L 78.231344 59.66089 
L 91.49003 59.66089 
L 91.605232 61.010965 
L 398.487273 61.010965 
L 398.487273 61.010965 
" clip-path="url(#p0a117d82eb)" style="fill: none; stroke: #d62728; stroke-width: 1.5; stroke-linecap: square"/>
   </g>
   <g id="line2d_16">
    <path d="M 73.832727 55.925682 
L 73.837964 55.925682 
L 73.8432 55.475656 
L 73.895565 58.175807 
L 73.921747 58.175807 
L 74.063131 67.176309 
L 74.099786 67.176309 
L 74.225461 66.163753 
L 74.277825 66.163753 
L 74.33019 67.513828 
L 74.393027 67.243813 
L 74.49252 67.243813 
L 74.612958 66.568775 
L 74.665323 66.568775 
L 74.780524 66.11875 
L 74.989982 66.11875 
L 75.099948 68.818901 
L 75.105184 68.481382 
L 75.120894 68.481382 
L 75.236095 67.806345 
L 75.325115 67.806345 
L 75.440317 67.468826 
L 75.503154 67.468826 
L 75.618356 67.018801 
L 75.675957 67.018801 
L 75.796395 69.718951 
L 76.01109 69.718951 
L 76.037272 71.069027 
L 76.121055 70.281483 
L 76.162947 70.281483 
L 76.24673 69.943964 
L 76.251966 71.294039 
L 76.257203 71.294039 
L 76.340986 71.294039 
L 76.456188 70.619002 
L 76.618518 70.619002 
L 76.73372 69.943964 
L 76.775611 69.943964 
L 76.896049 73.319152 
L 77.184054 73.319152 
L 77.299256 74.669228 
L 77.498241 74.669228 
L 77.519187 76.019303 
L 77.608206 74.669228 
L 77.718172 74.669228 
L 77.7653 76.019303 
L 77.828137 74.669228 
L 78.817826 74.669228 
L 78.933028 76.019303 
L 79.105831 76.019303 
L 79.179141 75.344265 
L 79.184377 76.694341 
L 79.210559 76.694341 
L 79.26816 76.694341 
L 79.383362 76.019303 
L 79.886061 76.019303 
L 80.001263 75.344265 
L 80.210721 75.344265 
L 80.325923 76.694341 
L 80.556327 76.694341 
L 80.671528 76.019303 
L 80.71342 76.019303 
L 80.828622 77.369378 
L 80.933351 77.369378 
L 81.043316 78.719454 
L 81.158518 78.044416 
L 81.718818 78.044416 
L 81.839256 80.744567 
L 81.970168 80.744567 
L 82.085369 80.069529 
L 83.682486 80.069529 
L 83.797688 79.394491 
L 83.975727 79.394491 
L 84.090929 80.744567 
L 86.777227 80.744567 
L 86.892429 82.094642 
L 87.698842 82.094642 
L 87.704078 81.419604 
L 87.709315 82.76968 
L 87.803571 82.76968 
L 89.285486 82.76968 
L 89.400687 82.094642 
L 92.820088 82.094642 
L 92.93529 83.444717 
L 94.574298 83.444717 
L 94.6895 82.76968 
L 95.312637 82.76968 
L 95.427839 82.094642 
L 98.072246 82.094642 
L 98.187447 81.419604 
L 108.168117 81.419604 
L 108.283319 82.76968 
L 126.354302 82.76968 
L 126.469504 82.094642 
L 126.54805 82.094642 
L 126.663252 81.419604 
L 132.842261 81.419604 
L 132.957463 82.76968 
L 133.716748 82.76968 
L 133.83195 84.119755 
L 135.146298 84.119755 
L 135.2615 85.46983 
L 140.073796 85.46983 
L 140.188998 84.794793 
L 148.289783 84.794793 
L 148.404985 84.119755 
L 157.155089 84.119755 
L 157.270291 85.46983 
L 164.260949 85.46983 
L 164.376151 86.819906 
L 180.321136 86.819906 
L 180.436338 86.36988 
L 196.512233 86.36988 
L 196.627435 87.719956 
L 209.430551 87.719956 
L 209.545753 89.070031 
L 212.624784 89.070031 
L 212.739986 88.394993 
L 222.186538 88.394993 
L 222.30174 87.719956 
L 225.956781 87.719956 
L 226.071983 87.044918 
L 227.41775 87.044918 
L 227.532952 86.36988 
L 232.381903 86.36988 
L 232.497105 87.719956 
L 254.259783 87.719956 
L 254.374985 89.070031 
L 281.248436 89.070031 
L 281.363638 88.620006 
L 294.198172 88.620006 
L 294.313374 89.970081 
L 295.931437 89.970081 
L 296.046639 91.320157 
L 297.172475 91.320157 
L 297.287677 90.645119 
L 329.538961 90.645119 
L 329.654163 89.970081 
L 398.487273 89.970081 
L 398.487273 89.970081 
" clip-path="url(#p0a117d82eb)" style="fill: none; stroke: #9467bd; stroke-width: 1.5; stroke-linecap: square"/>
   </g>
   <g id="line2d_17">
    <path d="M 73.832727 56.375707 
L 73.984584 68.07636 
L 74.173096 68.07636 
L 74.288298 69.426435 
L 74.33019 69.426435 
L 74.445392 70.77651 
L 74.471574 70.77651 
L 74.586776 72.126586 
L 74.885253 72.126586 
L 75.000455 73.476661 
L 75.058056 73.476661 
L 75.173258 74.826736 
L 75.958725 74.826736 
L 76.073927 76.176812 
L 76.492843 76.176812 
L 76.608045 77.526887 
L 76.613281 77.526887 
L 76.728483 78.876962 
L 77.74959 78.876962 
L 77.864792 80.227038 
L 78.116142 80.227038 
L 78.231344 81.577113 
L 80.71342 81.577113 
L 80.828622 82.927188 
L 91.49003 82.927188 
L 91.605232 84.277264 
L 108.168117 84.277264 
L 108.283319 85.627339 
L 117.609433 85.627339 
L 117.724635 86.977414 
L 135.753726 86.977414 
L 135.868928 88.32749 
L 209.430551 88.32749 
L 209.545753 89.677565 
L 295.931437 89.677565 
L 296.046639 91.02764 
L 398.487273 91.02764 
L 398.487273 91.02764 
" clip-path="url(#p0a117d82eb)" style="fill: none; stroke: #8c564b; stroke-width: 1.5; stroke-linecap: square"/>
   </g>
   <g id="line2d_18">
    <path d="M 73.832727 56.375707 
L 73.837964 56.375707 
L 73.979348 64.791176 
L 74.00553 64.341151 
L 74.016003 67.041302 
L 74.063131 67.041302 
L 74.09455 67.041302 
L 74.173096 70.754009 
L 74.214988 69.966465 
L 74.220224 69.966465 
L 74.225461 69.628946 
L 74.230697 70.979022 
L 74.293535 70.979022 
L 74.33019 72.329097 
L 74.408737 72.059082 
L 74.471574 72.059082 
L 74.482047 71.721563 
L 74.487283 73.071638 
L 74.576303 72.396601 
L 74.581539 72.396601 
L 74.665323 76.446827 
L 74.701978 75.996802 
L 74.869544 75.996802 
L 74.895726 75.321764 
L 74.932381 79.034471 
L 75.058056 79.034471 
L 75.110421 78.246927 
L 75.115657 79.597003 
L 75.152312 79.597003 
L 75.267514 80.947078 
L 75.325115 80.947078 
L 75.414135 80.609559 
L 75.419371 81.959634 
L 75.487445 81.959634 
L 75.607883 81.17209 
L 75.675957 81.17209 
L 75.796395 80.27204 
L 75.874942 80.27204 
L 75.958725 81.622116 
L 75.984907 81.17209 
L 76.037272 81.17209 
L 76.068691 80.722065 
L 76.073927 82.072141 
L 76.136764 81.734622 
L 76.162947 81.734622 
L 76.262439 81.397103 
L 76.377641 82.747178 
L 76.492843 82.747178 
L 76.503316 82.297153 
L 76.508552 83.647229 
L 76.592335 83.647229 
L 76.613281 83.647229 
L 76.728483 83.197203 
L 76.775611 83.197203 
L 76.79132 84.547279 
L 76.885577 84.097254 
L 76.906522 83.759735 
L 76.911759 85.10981 
L 76.985069 84.772291 
L 77.184054 84.772291 
L 77.304492 87.472442 
L 77.445876 87.472442 
L 77.561078 88.822517 
L 77.718172 88.822517 
L 77.833374 88.034973 
L 78.021886 88.034973 
L 78.137088 89.385049 
L 78.267999 89.385049 
L 78.383201 89.04753 
L 78.39891 89.04753 
L 78.514112 90.397605 
L 78.817826 90.397605 
L 78.933028 89.94758 
L 80.210721 89.94758 
L 80.310214 89.610061 
L 80.425415 90.960137 
L 80.71342 90.960137 
L 80.828622 90.622618 
L 80.933351 90.622618 
L 81.048553 90.172593 
L 81.064262 90.172593 
L 81.179464 91.522668 
L 81.320848 91.522668 
L 81.36274 92.872743 
L 81.430813 92.535225 
L 83.080295 92.535225 
L 83.195496 93.8853 
L 83.975727 93.8853 
L 84.090929 93.547781 
L 84.818795 93.547781 
L 84.933997 94.897856 
L 86.504932 94.897856 
L 86.620134 94.560338 
L 86.777227 94.560338 
L 86.892429 94.110312 
L 87.704078 94.110312 
L 87.777389 93.660287 
L 87.782625 95.010363 
L 87.803571 95.010363 
L 87.950191 95.010363 
L 88.065393 94.672844 
L 88.159649 94.672844 
L 88.274851 96.022919 
L 89.437343 96.022919 
L 89.552544 97.372994 
L 89.66251 97.372994 
L 89.777712 97.035476 
L 92.820088 97.035476 
L 92.93529 96.585451 
L 93.17093 96.585451 
L 93.286132 97.935526 
L 96.558912 97.935526 
L 96.674114 97.598007 
L 105.031485 97.598007 
L 105.146687 97.260488 
L 106.91137 97.260488 
L 107.026572 98.610564 
L 108.168117 98.610564 
L 108.283319 98.273045 
L 108.728417 98.273045 
L 108.843619 99.62312 
L 114.169087 99.62312 
L 114.284289 100.973195 
L 115.336815 100.973195 
L 115.452017 102.323271 
L 115.897115 102.323271 
L 116.012317 101.985752 
L 117.609433 101.985752 
L 117.724635 101.535727 
L 132.842261 101.535727 
L 132.957463 101.085702 
L 133.716748 101.085702 
L 133.83195 102.435777 
L 135.753726 102.435777 
L 135.868928 101.985752 
L 138.293403 101.985752 
L 138.408605 103.335827 
L 168.298251 103.335827 
L 168.413453 104.685903 
L 169.099427 104.685903 
L 169.214629 106.035978 
L 169.27223 106.035978 
L 169.387432 105.698459 
L 176.755115 105.698459 
L 176.870316 107.048534 
L 179.535669 107.048534 
L 179.65087 106.711016 
L 180.321136 106.711016 
L 180.436338 106.26099 
L 196.512233 106.26099 
L 196.627435 105.810965 
L 209.430551 105.810965 
L 209.545753 105.473447 
L 220.086723 105.473447 
L 220.201924 106.823522 
L 232.381903 106.823522 
L 232.497105 106.373497 
L 254.259783 106.373497 
L 254.374985 105.923472 
L 281.248436 105.923472 
L 281.363638 105.473447 
L 285.516142 105.473447 
L 285.631343 106.823522 
L 294.198172 106.823522 
L 294.313374 106.373497 
L 295.931437 106.373497 
L 296.046639 106.035978 
L 297.633282 106.035978 
L 297.748484 107.386053 
L 302.817366 107.386053 
L 302.932568 108.736129 
L 389.035484 108.736129 
L 389.150686 108.39861 
L 398.487273 108.39861 
L 398.487273 108.39861 
" clip-path="url(#p0a117d82eb)" style="fill: none; stroke: #e377c2; stroke-width: 1.5; stroke-linecap: square"/>
   </g>
   <g id="line2d_19">
    <path d="M 73.832727 56.375707 
L 73.8432 56.375707 
L 73.848437 55.925682 
L 73.900801 59.030855 
L 73.921747 58.58083 
L 74.052658 66.793788 
L 74.057895 66.343763 
L 74.09455 66.343763 
L 74.173096 64.093637 
L 74.204515 65.443713 
L 74.225461 65.443713 
L 74.33019 63.643612 
L 74.335426 64.993688 
L 74.345899 64.993688 
L 74.466337 67.693838 
L 74.471574 67.693838 
L 74.482047 69.043914 
L 74.581539 68.593888 
L 74.665323 66.11875 
L 74.696741 67.468826 
L 74.72816 67.468826 
L 74.843362 68.818901 
L 74.869544 68.818901 
L 74.921908 72.869127 
L 74.989982 71.969077 
L 75.058056 71.969077 
L 75.110421 73.319152 
L 75.157549 70.619002 
L 75.162785 70.619002 
L 75.414135 70.619002 
L 75.487445 70.168976 
L 75.492681 71.519052 
L 75.503154 71.519052 
L 75.618356 72.869127 
L 75.958725 72.869127 
L 76.068691 75.569278 
L 76.073927 74.219202 
L 76.262439 74.219202 
L 76.377641 72.869127 
L 76.492843 72.869127 
L 76.503316 74.219202 
L 76.602808 73.769177 
L 76.613281 73.769177 
L 76.728483 75.119253 
L 76.775611 75.119253 
L 76.885577 74.781734 
L 77.000778 77.031859 
L 77.184054 77.031859 
L 77.314965 75.231759 
L 77.445876 75.231759 
L 77.561078 74.89424 
L 77.74959 74.89424 
L 77.864792 76.244315 
L 78.021886 76.244315 
L 78.116142 75.79429 
L 78.121378 77.144366 
L 78.267999 77.144366 
L 78.383201 78.494441 
L 78.39891 78.494441 
L 78.514112 78.044416 
L 80.210721 78.044416 
L 80.310214 79.394491 
L 80.320686 78.944466 
L 80.71342 78.944466 
L 80.828622 80.294541 
L 81.064262 80.294541 
L 81.179464 79.844516 
L 81.320848 79.844516 
L 81.36274 79.506997 
L 81.367976 80.857073 
L 81.415104 80.857073 
L 83.080295 80.857073 
L 83.195496 80.519554 
L 83.975727 80.519554 
L 84.090929 81.869629 
L 84.818795 81.869629 
L 84.933997 80.519554 
L 86.504932 80.519554 
L 86.620134 81.869629 
L 87.777389 81.869629 
L 87.89259 81.419604 
L 87.950191 81.419604 
L 88.065393 82.76968 
L 88.159649 82.76968 
L 88.274851 81.419604 
L 89.437343 81.419604 
L 89.552544 81.082085 
L 89.66251 81.082085 
L 89.777712 82.432161 
L 91.49003 82.432161 
L 91.605232 83.782236 
L 93.17093 83.782236 
L 93.286132 82.432161 
L 96.558912 82.432161 
L 96.674114 83.782236 
L 105.031485 83.782236 
L 105.146687 85.132311 
L 106.91137 85.132311 
L 107.026572 83.782236 
L 108.168117 83.782236 
L 108.283319 85.132311 
L 108.728417 85.132311 
L 108.843619 83.782236 
L 114.169087 83.782236 
L 114.284289 83.332211 
L 115.897115 83.332211 
L 116.012317 84.682286 
L 117.609433 84.682286 
L 117.724635 86.032362 
L 133.716748 86.032362 
L 133.83195 85.694843 
L 135.753726 85.694843 
L 135.868928 87.044918 
L 138.293403 87.044918 
L 138.408605 86.594893 
L 168.298251 86.594893 
L 168.413453 86.257374 
L 169.099427 86.257374 
L 169.214629 85.807349 
L 169.27223 85.807349 
L 169.387432 87.157424 
L 179.535669 87.157424 
L 179.65087 88.5075 
L 180.321136 88.5075 
L 180.436338 89.857575 
L 209.430551 89.857575 
L 209.545753 91.20765 
L 281.248436 91.20765 
L 281.363638 92.557726 
L 285.516142 92.557726 
L 285.631343 92.107701 
L 295.931437 92.107701 
L 296.046639 93.457776 
L 297.633282 93.457776 
L 297.748484 92.107701 
L 302.817366 92.107701 
L 302.932568 91.657676 
L 389.035484 91.657676 
L 389.150686 93.007751 
L 398.487273 93.007751 
L 398.487273 93.007751 
" clip-path="url(#p0a117d82eb)" style="fill: none; stroke: #7f7f7f; stroke-width: 1.5; stroke-linecap: square"/>
   </g>
   <g id="line2d_20">
    <path d="M 73.832727 56.375707 
L 73.837964 55.925682 
L 73.911274 58.805842 
L 73.921747 58.805842 
L 73.947929 57.86079 
L 73.979348 61.190975 
L 73.984584 60.74095 
L 74.031712 64.791176 
L 74.099786 63.441101 
L 74.131205 63.103582 
L 74.157387 65.803733 
L 74.183569 65.016189 
L 74.220224 65.016189 
L 74.293535 64.67867 
L 74.298771 66.028745 
L 74.31448 66.028745 
L 74.33019 66.028745 
L 74.445392 65.75873 
L 74.471574 65.75873 
L 74.482047 65.421211 
L 74.487283 66.771287 
L 74.576303 66.096249 
L 74.581539 66.096249 
L 74.665323 68.7964 
L 74.696741 68.346375 
L 74.869544 68.346375 
L 74.921908 67.333818 
L 74.932381 70.033969 
L 74.953327 70.033969 
L 75.058056 70.033969 
L 75.173258 69.246425 
L 75.325115 69.246425 
L 75.414135 68.908906 
L 75.419371 70.258981 
L 75.487445 70.258981 
L 75.607883 69.471437 
L 75.675957 69.471437 
L 75.796395 68.571387 
L 75.874942 68.571387 
L 75.958725 69.921463 
L 75.984907 69.471437 
L 76.037272 69.471437 
L 76.152474 68.683894 
L 76.162947 68.683894 
L 76.288621 67.671337 
L 76.492843 67.671337 
L 76.503316 67.221312 
L 76.508552 68.571387 
L 76.592335 68.571387 
L 76.613281 68.571387 
L 76.728483 68.121362 
L 76.775611 68.121362 
L 76.79132 69.471437 
L 76.885577 68.346375 
L 76.906522 68.008856 
L 76.911759 69.358931 
L 76.985069 69.021412 
L 77.184054 69.021412 
L 77.299256 68.571387 
L 77.445876 68.571387 
L 77.561078 69.921463 
L 77.718172 69.921463 
L 77.833374 69.133919 
L 78.021886 69.133919 
L 78.137088 70.483994 
L 78.267999 70.483994 
L 78.383201 70.146475 
L 78.39891 70.146475 
L 78.514112 71.49655 
L 78.817826 71.49655 
L 78.933028 71.046525 
L 79.179141 71.046525 
L 79.294343 70.371488 
L 80.210721 70.371488 
L 80.310214 70.033969 
L 80.425415 71.384044 
L 80.71342 71.384044 
L 80.828622 71.046525 
L 80.933351 71.046525 
L 81.048553 70.5965 
L 81.064262 70.5965 
L 81.179464 71.946576 
L 81.320848 71.946576 
L 81.36274 73.296651 
L 81.430813 72.959132 
L 81.718818 72.959132 
L 81.839256 71.609057 
L 83.080295 71.609057 
L 83.195496 72.959132 
L 83.975727 72.959132 
L 84.090929 72.621613 
L 86.504932 72.621613 
L 86.620134 72.284094 
L 86.777227 72.284094 
L 86.892429 71.834069 
L 87.704078 71.834069 
L 87.777389 71.384044 
L 87.782625 72.73412 
L 87.803571 72.73412 
L 87.950191 72.73412 
L 88.065393 72.396601 
L 89.437343 72.396601 
L 89.552544 73.746676 
L 89.66251 73.746676 
L 89.777712 73.409157 
L 92.820088 73.409157 
L 92.93529 72.959132 
L 96.558912 72.959132 
L 96.674114 72.621613 
L 105.031485 72.621613 
L 105.146687 72.284094 
L 108.168117 72.284094 
L 108.283319 71.946576 
L 114.169087 71.946576 
L 114.284289 73.296651 
L 115.336815 73.296651 
L 115.452017 74.646726 
L 115.897115 74.646726 
L 116.012317 74.309207 
L 117.609433 74.309207 
L 117.724635 73.859182 
L 132.842261 73.859182 
L 132.957463 73.409157 
L 133.716748 73.409157 
L 133.83195 74.759233 
L 135.146298 74.759233 
L 135.2615 74.084195 
L 135.753726 74.084195 
L 135.868928 73.63417 
L 138.293403 73.63417 
L 138.408605 74.984245 
L 157.155089 74.984245 
L 157.270291 74.309207 
L 164.260949 74.309207 
L 164.376151 73.63417 
L 168.298251 73.63417 
L 168.413453 74.984245 
L 169.099427 74.984245 
L 169.214629 76.33432 
L 169.27223 76.33432 
L 169.387432 75.996802 
L 176.755115 75.996802 
L 176.870316 77.346877 
L 179.535669 77.346877 
L 179.65087 77.009358 
L 180.321136 77.009358 
L 180.436338 76.559333 
L 196.512233 76.559333 
L 196.627435 76.109308 
L 209.430551 76.109308 
L 209.545753 75.771789 
L 220.086723 75.771789 
L 220.201924 77.121864 
L 232.381903 77.121864 
L 232.497105 76.671839 
L 254.259783 76.671839 
L 254.374985 76.221814 
L 281.248436 76.221814 
L 281.363638 75.771789 
L 285.516142 75.771789 
L 285.631343 77.121864 
L 294.198172 77.121864 
L 294.313374 76.671839 
L 295.931437 76.671839 
L 296.046639 76.33432 
L 302.817366 76.33432 
L 302.932568 77.684396 
L 389.035484 77.684396 
L 389.150686 77.346877 
L 398.487273 77.346877 
L 398.487273 77.346877 
" clip-path="url(#p0a117d82eb)" style="fill: none; stroke: #bcbd22; stroke-width: 1.5; stroke-linecap: square"/>
   </g>
   <g id="line2d_21">
    <path d="M 73.832727 57.725782 
L 73.837964 57.725782 
L 73.968875 67.041302 
L 73.979348 66.591277 
L 74.010767 66.591277 
L 74.141678 72.891628 
L 74.152151 72.891628 
L 74.277825 76.941854 
L 74.293535 76.266817 
L 74.351136 80.317043 
L 74.361609 80.317043 
L 74.398264 80.317043 
L 74.523938 85.379825 
L 74.649613 85.379825 
L 74.775288 89.430051 
L 74.869544 89.430051 
L 74.885253 89.092532 
L 74.932381 92.467721 
L 74.989982 92.467721 
L 75.099948 91.117645 
L 75.220386 93.817796 
L 75.325115 93.817796 
L 75.445553 96.517947 
L 75.487445 96.517947 
L 75.503154 96.180428 
L 75.508391 97.530503 
L 75.581701 97.530503 
L 75.675957 97.530503 
L 75.796395 96.630453 
L 75.874942 96.630453 
L 75.990144 97.980528 
L 76.01109 97.980528 
L 76.037272 97.305491 
L 76.079164 100.005641 
L 76.105346 100.005641 
L 76.162947 100.005641 
L 76.24673 101.355717 
L 76.272912 100.680679 
L 76.340986 100.680679 
L 76.456188 102.030754 
L 76.503316 102.030754 
L 76.623754 104.730905 
L 76.775611 104.730905 
L 76.838448 106.981031 
L 76.890813 105.968474 
L 76.906522 105.968474 
L 76.911759 107.318549 
L 77.016488 106.981031 
L 77.184054 106.981031 
L 77.299256 106.531006 
L 77.445876 106.531006 
L 77.566315 109.906194 
L 77.718172 109.906194 
L 77.7653 109.456169 
L 77.770536 110.806244 
L 77.807191 110.806244 
L 77.922393 112.156319 
L 78.021886 112.156319 
L 78.142324 114.85647 
L 78.267999 114.85647 
L 78.383201 114.518951 
L 78.39891 114.518951 
L 78.514112 115.869027 
L 78.817826 115.869027 
L 78.933028 115.419002 
L 79.105831 115.419002 
L 79.179141 116.769077 
L 79.215796 116.094039 
L 79.26816 116.094039 
L 79.383362 117.444115 
L 79.886061 117.444115 
L 80.001263 118.79419 
L 80.210721 118.79419 
L 80.310214 118.456671 
L 80.425415 119.806746 
L 80.556327 119.806746 
L 80.671528 121.156822 
L 80.71342 121.156822 
L 80.828622 120.819303 
L 80.933351 120.819303 
L 81.043316 120.369278 
L 81.163755 123.069428 
L 81.320848 123.069428 
L 81.36274 124.419504 
L 81.430813 124.081985 
L 81.718818 124.081985 
L 81.839256 122.73191 
L 81.970168 122.73191 
L 82.085369 124.081985 
L 83.080295 124.081985 
L 83.195496 125.43206 
L 83.682486 125.43206 
L 83.797688 126.782136 
L 83.975727 126.782136 
L 84.090929 126.444617 
L 86.504932 126.444617 
L 86.620134 126.107098 
L 86.777227 126.107098 
L 86.892429 125.657073 
L 87.698842 125.657073 
L 87.814044 127.907198 
L 87.950191 127.907198 
L 88.065393 127.56968 
L 89.285486 127.56968 
L 89.400687 128.919755 
L 89.437343 128.919755 
L 89.552544 130.26983 
L 89.66251 130.26983 
L 89.777712 129.932311 
L 91.49003 129.932311 
L 91.605232 131.282387 
L 92.820088 131.282387 
L 92.93529 130.832362 
L 94.574298 130.832362 
L 94.6895 132.182437 
L 95.312637 132.182437 
L 95.427839 133.532512 
L 96.558912 133.532512 
L 96.674114 133.194993 
L 98.072246 133.194993 
L 98.187447 134.545069 
L 105.031485 134.545069 
L 105.146687 134.20755 
L 114.169087 134.20755 
L 114.284289 135.557625 
L 115.336815 135.557625 
L 115.452017 136.907701 
L 115.897115 136.907701 
L 116.012317 136.570182 
L 126.354302 136.570182 
L 126.469504 137.920257 
L 126.54805 137.920257 
L 126.663252 139.270332 
L 132.842261 139.270332 
L 132.957463 138.820307 
L 133.716748 138.820307 
L 133.83195 138.482789 
L 135.146298 138.482789 
L 135.2615 137.807751 
L 138.293403 137.807751 
L 138.408605 139.157826 
L 140.073796 139.157826 
L 140.188998 140.507902 
L 148.289783 140.507902 
L 148.404985 141.857977 
L 157.155089 141.857977 
L 157.270291 141.182939 
L 164.260949 141.182939 
L 164.376151 140.507902 
L 168.298251 140.507902 
L 168.413453 141.857977 
L 169.099427 141.857977 
L 169.214629 143.208052 
L 169.27223 143.208052 
L 169.387432 142.870533 
L 176.755115 142.870533 
L 176.870316 144.220609 
L 179.535669 144.220609 
L 179.65087 143.88309 
L 180.321136 143.88309 
L 180.436338 145.233165 
L 196.512233 145.233165 
L 196.627435 144.78314 
L 212.624784 144.78314 
L 212.739986 146.133215 
L 220.086723 146.133215 
L 220.201924 147.483291 
L 222.186538 147.483291 
L 222.30174 148.833366 
L 225.956781 148.833366 
L 226.071983 150.183441 
L 227.41775 150.183441 
L 227.532952 151.533517 
L 232.381903 151.533517 
L 232.497105 151.083492 
L 254.259783 151.083492 
L 254.374985 150.633467 
L 281.248436 150.633467 
L 281.363638 151.983542 
L 285.516142 151.983542 
L 285.631343 153.333617 
L 294.198172 153.333617 
L 294.313374 152.883592 
L 297.172475 152.883592 
L 297.287677 154.233668 
L 302.817366 154.233668 
L 302.932568 155.583743 
L 329.538961 155.583743 
L 329.654163 156.933818 
L 389.035484 156.933818 
L 389.150686 156.596299 
L 398.487273 156.596299 
L 398.487273 156.596299 
" clip-path="url(#p0a117d82eb)" style="fill: none; stroke: #17becf; stroke-width: 1.5; stroke-linecap: square"/>
   </g>
   <g id="line2d_22">
    <path d="M 73.832727 56.375707 
L 73.848437 57.275757 
L 73.953166 55.160639 
L 73.958402 55.160639 
L 74.07884 54.440599 
L 74.173096 54.440599 
L 74.288298 53.990574 
L 74.33019 53.990574 
L 74.445392 53.720559 
L 74.471574 53.720559 
L 74.586776 53.38304 
L 74.885253 53.38304 
L 75.000455 52.708002 
L 75.058056 52.708002 
L 75.173258 52.257977 
L 75.958725 52.257977 
L 76.073927 51.807952 
L 76.492843 51.807952 
L 76.608045 51.357927 
L 76.613281 51.357927 
L 76.728483 50.907902 
L 77.74959 50.907902 
L 77.864792 50.570383 
L 78.116142 50.570383 
L 78.231344 49.895345 
L 80.71342 49.895345 
L 80.828622 49.557826 
L 91.49003 49.557826 
L 91.605232 48.882789 
L 108.168117 48.882789 
L 108.283319 48.54527 
L 117.609433 48.54527 
L 117.724635 48.095245 
L 135.753726 48.095245 
L 135.868928 47.645219 
L 209.430551 47.645219 
L 209.545753 47.307701 
L 295.931437 47.307701 
L 296.046639 46.970182 
L 398.487273 46.970182 
L 398.487273 46.970182 
" clip-path="url(#p0a117d82eb)" style="fill: none; stroke: #1f77b4; stroke-width: 1.5; stroke-linecap: square"/>
   </g>
   <g id="line2d_23">
    <path d="M 73.832727 56.375707 
L 73.848437 55.925682 
L 73.879855 57.950795 
L 73.93222 57.005742 
L 73.974111 57.005742 
L 74.089313 56.668223 
L 74.099786 56.668223 
L 74.225461 60.718449 
L 74.272589 60.718449 
L 74.345899 63.4186 
L 74.387791 62.743562 
L 74.398264 62.743562 
L 74.49252 62.068524 
L 74.497756 63.4186 
L 74.502993 63.4186 
L 74.508229 63.4186 
L 74.581539 64.768675 
L 74.618194 64.093637 
L 74.633904 64.093637 
L 74.72816 66.793788 
L 74.749106 66.11875 
L 74.869544 66.11875 
L 74.921908 64.431156 
L 74.984746 65.781232 
L 74.989982 65.781232 
L 75.099948 64.431156 
L 75.220386 67.131307 
L 75.325115 67.131307 
L 75.445553 69.831458 
L 75.487445 69.831458 
L 75.602647 69.493939 
L 75.874942 69.493939 
L 75.990144 68.818901 
L 76.01109 68.818901 
L 76.073927 68.143863 
L 76.079164 69.493939 
L 76.115819 69.493939 
L 76.162947 69.493939 
L 76.278149 70.844014 
L 76.340986 70.844014 
L 76.456188 72.194089 
L 76.618518 72.194089 
L 76.73372 73.544165 
L 76.775611 73.544165 
L 76.796557 73.206646 
L 76.801793 74.556721 
L 76.869867 74.556721 
L 76.885577 74.556721 
L 77.006015 73.881684 
L 77.445876 73.881684 
L 77.519187 72.869127 
L 77.524423 74.219202 
L 77.550605 74.219202 
L 77.561078 74.219202 
L 77.67628 75.569278 
L 77.74959 75.569278 
L 77.7653 75.231759 
L 77.812428 77.93191 
L 77.822901 77.93191 
L 78.116142 77.93191 
L 78.231344 77.256872 
L 78.267999 77.256872 
L 78.383201 76.919353 
L 79.105831 76.919353 
L 79.221032 78.269428 
L 79.26816 78.269428 
L 79.383362 79.619504 
L 79.886061 79.619504 
L 80.001263 80.969579 
L 80.210721 80.969579 
L 80.325923 80.63206 
L 80.556327 80.63206 
L 80.671528 81.982136 
L 81.043316 81.982136 
L 81.163755 84.682286 
L 81.320848 84.682286 
L 81.441286 84.007249 
L 81.970168 84.007249 
L 82.085369 85.357324 
L 83.080295 85.357324 
L 83.195496 85.019805 
L 83.682486 85.019805 
L 83.797688 86.36988 
L 83.975727 86.36988 
L 84.090929 86.032362 
L 86.504932 86.032362 
L 86.620134 85.694843 
L 87.698842 85.694843 
L 87.81928 88.394993 
L 87.950191 88.394993 
L 88.065393 88.057475 
L 89.285486 88.057475 
L 89.400687 89.40755 
L 89.437343 89.40755 
L 89.552544 89.070031 
L 89.66251 89.070031 
L 89.777712 88.732512 
L 91.49003 88.732512 
L 91.605232 88.057475 
L 94.574298 88.057475 
L 94.6895 89.40755 
L 95.312637 89.40755 
L 95.427839 90.757625 
L 96.558912 90.757625 
L 96.674114 90.420106 
L 98.072246 90.420106 
L 98.187447 91.770182 
L 105.031485 91.770182 
L 105.146687 91.432663 
L 108.168117 91.432663 
L 108.283319 91.095144 
L 114.169087 91.095144 
L 114.284289 92.445219 
L 115.336815 92.445219 
L 115.452017 91.770182 
L 115.897115 91.770182 
L 116.012317 91.432663 
L 126.354302 91.432663 
L 126.469504 92.782738 
L 126.54805 92.782738 
L 126.663252 94.132814 
L 133.716748 94.132814 
L 133.83195 93.795295 
L 140.073796 93.795295 
L 140.188998 95.14537 
L 148.289783 95.14537 
L 148.404985 96.495446 
L 168.298251 96.495446 
L 168.413453 96.157927 
L 169.099427 96.157927 
L 169.214629 97.508002 
L 169.27223 97.508002 
L 169.387432 97.170483 
L 176.755115 97.170483 
L 176.870316 96.495446 
L 179.535669 96.495446 
L 179.65087 96.157927 
L 209.430551 96.157927 
L 209.545753 95.820408 
L 212.624784 95.820408 
L 212.739986 97.170483 
L 220.086723 97.170483 
L 220.201924 96.495446 
L 222.186538 96.495446 
L 222.30174 97.845521 
L 225.956781 97.845521 
L 226.071983 99.195596 
L 227.41775 99.195596 
L 227.532952 100.545672 
L 295.931437 100.545672 
L 296.046639 100.208153 
L 297.172475 100.208153 
L 297.287677 101.558228 
L 329.538961 101.558228 
L 329.654163 102.908303 
L 389.035484 102.908303 
L 389.150686 102.570785 
L 398.487273 102.570785 
L 398.487273 102.570785 
" clip-path="url(#p0a117d82eb)" style="fill: none; stroke: #ff7f0e; stroke-width: 1.5; stroke-linecap: square"/>
   </g>
   <g id="patch_3">
    <path d="M 57.6 162.432 
L 57.6 41.472 
" style="fill: none; stroke: #000000; stroke-width: 0.8; stroke-linejoin: miter; stroke-linecap: square"/>
   </g>
   <g id="patch_4">
    <path d="M 414.72 162.432 
L 414.72 41.472 
" style="fill: none; stroke: #000000; stroke-width: 0.8; stroke-linejoin: miter; stroke-linecap: square"/>
   </g>
   <g id="patch_5">
    <path d="M 57.6 162.432 
L 414.72 162.432 
" style="fill: none; stroke: #000000; stroke-width: 0.8; stroke-linejoin: miter; stroke-linecap: square"/>
   </g>
   <g id="patch_6">
    <path d="M 57.6 41.472 
L 414.72 41.472 
" style="fill: none; stroke: #000000; stroke-width: 0.8; stroke-linejoin: miter; stroke-linecap: square"/>
   </g>
   <g id="text_12">
    <!-- WSP -->
    <g transform="translate(361.832136 62.631056)scale(0.08 -0.08)">
     <defs>
      <path id="DejaVuSans-57" d="M 213 4666 
L 850 4666 
L 1831 722 
L 2809 4666 
L 3519 4666 
L 4500 722 
L 5478 4666 
L 6119 4666 
L 4947 0 
L 4153 0 
L 3169 4050 
L 2175 0 
L 1381 0 
L 213 4666 
z
" transform="scale(0.015625)"/>
      <path id="DejaVuSans-53" d="M 3425 4513 
L 3425 3897 
Q 3066 4069 2747 4153 
Q 2428 4238 2131 4238 
Q 1616 4238 1336 4038 
Q 1056 3838 1056 3469 
Q 1056 3159 1242 3001 
Q 1428 2844 1947 2747 
L 2328 2669 
Q 3034 2534 3370 2195 
Q 3706 1856 3706 1288 
Q 3706 609 3251 259 
Q 2797 -91 1919 -91 
Q 1588 -91 1214 -16 
Q 841 59 441 206 
L 441 856 
Q 825 641 1194 531 
Q 1563 422 1919 422 
Q 2459 422 2753 634 
Q 3047 847 3047 1241 
Q 3047 1584 2836 1778 
Q 2625 1972 2144 2069 
L 1759 2144 
Q 1053 2284 737 2584 
Q 422 2884 422 3419 
Q 422 4038 858 4394 
Q 1294 4750 2059 4750 
Q 2388 4750 2728 4690 
Q 3069 4631 3425 4513 
z
" transform="scale(0.015625)"/>
      <path id="DejaVuSans-50" d="M 1259 4147 
L 1259 2394 
L 2053 2394 
Q 2494 2394 2734 2622 
Q 2975 2850 2975 3272 
Q 2975 3691 2734 3919 
Q 2494 4147 2053 4147 
L 1259 4147 
z
M 628 4666 
L 2053 4666 
Q 2838 4666 3239 4311 
Q 3641 3956 3641 3272 
Q 3641 2581 3239 2228 
Q 2838 1875 2053 1875 
L 1259 1875 
L 1259 0 
L 628 0 
L 628 4666 
z
" transform="scale(0.015625)"/>
     </defs>
     <use xlink:href="#DejaVuSans-57"/>
     <use xlink:href="#DejaVuSans-53" x="98.876953"/>
     <use xlink:href="#DejaVuSans-50" x="162.353516"/>
    </g>
   </g>
   <g id="text_13">
    <!-- Iambic -->
    <g transform="translate(361.832136 57.455767)scale(0.08 -0.08)">
     <defs>
      <path id="DejaVuSans-49" d="M 628 4666 
L 1259 4666 
L 1259 0 
L 628 0 
L 628 4666 
z
" transform="scale(0.015625)"/>
      <path id="DejaVuSans-61" d="M 2194 1759 
Q 1497 1759 1228 1600 
Q 959 1441 959 1056 
Q 959 750 1161 570 
Q 1363 391 1709 391 
Q 2188 391 2477 730 
Q 2766 1069 2766 1631 
L 2766 1759 
L 2194 1759 
z
M 3341 1997 
L 3341 0 
L 2766 0 
L 2766 531 
Q 2569 213 2275 61 
Q 1981 -91 1556 -91 
Q 1019 -91 701 211 
Q 384 513 384 1019 
Q 384 1609 779 1909 
Q 1175 2209 1959 2209 
L 2766 2209 
L 2766 2266 
Q 2766 2663 2505 2880 
Q 2244 3097 1772 3097 
Q 1472 3097 1187 3025 
Q 903 2953 641 2809 
L 641 3341 
Q 956 3463 1253 3523 
Q 1550 3584 1831 3584 
Q 2591 3584 2966 3190 
Q 3341 2797 3341 1997 
z
" transform="scale(0.015625)"/>
      <path id="DejaVuSans-6d" d="M 3328 2828 
Q 3544 3216 3844 3400 
Q 4144 3584 4550 3584 
Q 5097 3584 5394 3201 
Q 5691 2819 5691 2113 
L 5691 0 
L 5113 0 
L 5113 2094 
Q 5113 2597 4934 2840 
Q 4756 3084 4391 3084 
Q 3944 3084 3684 2787 
Q 3425 2491 3425 1978 
L 3425 0 
L 2847 0 
L 2847 2094 
Q 2847 2600 2669 2842 
Q 2491 3084 2119 3084 
Q 1678 3084 1418 2786 
Q 1159 2488 1159 1978 
L 1159 0 
L 581 0 
L 581 3500 
L 1159 3500 
L 1159 2956 
Q 1356 3278 1631 3431 
Q 1906 3584 2284 3584 
Q 2666 3584 2933 3390 
Q 3200 3197 3328 2828 
z
" transform="scale(0.015625)"/>
      <path id="DejaVuSans-62" d="M 3116 1747 
Q 3116 2381 2855 2742 
Q 2594 3103 2138 3103 
Q 1681 3103 1420 2742 
Q 1159 2381 1159 1747 
Q 1159 1113 1420 752 
Q 1681 391 2138 391 
Q 2594 391 2855 752 
Q 3116 1113 3116 1747 
z
M 1159 2969 
Q 1341 3281 1617 3432 
Q 1894 3584 2278 3584 
Q 2916 3584 3314 3078 
Q 3713 2572 3713 1747 
Q 3713 922 3314 415 
Q 2916 -91 2278 -91 
Q 1894 -91 1617 61 
Q 1341 213 1159 525 
L 1159 0 
L 581 0 
L 581 4863 
L 1159 4863 
L 1159 2969 
z
" transform="scale(0.015625)"/>
      <path id="DejaVuSans-69" d="M 603 3500 
L 1178 3500 
L 1178 0 
L 603 0 
L 603 3500 
z
M 603 4863 
L 1178 4863 
L 1178 4134 
L 603 4134 
L 603 4863 
z
" transform="scale(0.015625)"/>
      <path id="DejaVuSans-63" d="M 3122 3366 
L 3122 2828 
Q 2878 2963 2633 3030 
Q 2388 3097 2138 3097 
Q 1578 3097 1268 2742 
Q 959 2388 959 1747 
Q 959 1106 1268 751 
Q 1578 397 2138 397 
Q 2388 397 2633 464 
Q 2878 531 3122 666 
L 3122 134 
Q 2881 22 2623 -34 
Q 2366 -91 2075 -91 
Q 1284 -91 818 406 
Q 353 903 353 1747 
Q 353 2603 823 3093 
Q 1294 3584 2113 3584 
Q 2378 3584 2631 3529 
Q 2884 3475 3122 3366 
z
" transform="scale(0.015625)"/>
     </defs>
     <use xlink:href="#DejaVuSans-49"/>
     <use xlink:href="#DejaVuSans-61" x="29.492188"/>
     <use xlink:href="#DejaVuSans-6d" x="90.771484"/>
     <use xlink:href="#DejaVuSans-62" x="188.183594"/>
     <use xlink:href="#DejaVuSans-69" x="251.660156"/>
     <use xlink:href="#DejaVuSans-63" x="279.443359"/>
    </g>
   </g>
   <g id="text_14">
    <!-- Parse -->
    <g transform="translate(361.832136 125.094541)scale(0.08 -0.08)">
     <defs>
      <path id="DejaVuSans-72" d="M 2631 2963 
Q 2534 3019 2420 3045 
Q 2306 3072 2169 3072 
Q 1681 3072 1420 2755 
Q 1159 2438 1159 1844 
L 1159 0 
L 581 0 
L 581 3500 
L 1159 3500 
L 1159 2956 
Q 1341 3275 1631 3429 
Q 1922 3584 2338 3584 
Q 2397 3584 2469 3576 
Q 2541 3569 2628 3553 
L 2631 2963 
z
" transform="scale(0.015625)"/>
      <path id="DejaVuSans-73" d="M 2834 3397 
L 2834 2853 
Q 2591 2978 2328 3040 
Q 2066 3103 1784 3103 
Q 1356 3103 1142 2972 
Q 928 2841 928 2578 
Q 928 2378 1081 2264 
Q 1234 2150 1697 2047 
L 1894 2003 
Q 2506 1872 2764 1633 
Q 3022 1394 3022 966 
Q 3022 478 2636 193 
Q 2250 -91 1575 -91 
Q 1294 -91 989 -36 
Q 684 19 347 128 
L 347 722 
Q 666 556 975 473 
Q 1284 391 1588 391 
Q 1994 391 2212 530 
Q 2431 669 2431 922 
Q 2431 1156 2273 1281 
Q 2116 1406 1581 1522 
L 1381 1569 
Q 847 1681 609 1914 
Q 372 2147 372 2553 
Q 372 3047 722 3315 
Q 1072 3584 1716 3584 
Q 2034 3584 2315 3537 
Q 2597 3491 2834 3397 
z
" transform="scale(0.015625)"/>
      <path id="DejaVuSans-65" d="M 3597 1894 
L 3597 1613 
L 953 1613 
Q 991 1019 1311 708 
Q 1631 397 2203 397 
Q 2534 397 2845 478 
Q 3156 559 3463 722 
L 3463 178 
Q 3153 47 2828 -22 
Q 2503 -91 2169 -91 
Q 1331 -91 842 396 
Q 353 884 353 1716 
Q 353 2575 817 3079 
Q 1281 3584 2069 3584 
Q 2775 3584 3186 3129 
Q 3597 2675 3597 1894 
z
M 3022 2063 
Q 3016 2534 2758 2815 
Q 2500 3097 2075 3097 
Q 1594 3097 1305 2825 
Q 1016 2553 972 2059 
L 3022 2063 
z
" transform="scale(0.015625)"/>
     </defs>
     <use xlink:href="#DejaVuSans-50"/>
     <use xlink:href="#DejaVuSans-61" x="55.802734"/>
     <use xlink:href="#DejaVuSans-72" x="117.082031"/>
     <use xlink:href="#DejaVuSans-73" x="158.195312"/>
     <use xlink:href="#DejaVuSans-65" x="210.294922"/>
    </g>
   </g>
   <g id="text_15">
    <!-- FootBin -->
    <g transform="translate(361.832136 61.010965)scale(0.08 -0.08)">
     <defs>
      <path id="DejaVuSans-46" d="M 628 4666 
L 3309 4666 
L 3309 4134 
L 1259 4134 
L 1259 2759 
L 3109 2759 
L 3109 2228 
L 1259 2228 
L 1259 0 
L 628 0 
L 628 4666 
z
" transform="scale(0.015625)"/>
      <path id="DejaVuSans-6f" d="M 1959 3097 
Q 1497 3097 1228 2736 
Q 959 2375 959 1747 
Q 959 1119 1226 758 
Q 1494 397 1959 397 
Q 2419 397 2687 759 
Q 2956 1122 2956 1747 
Q 2956 2369 2687 2733 
Q 2419 3097 1959 3097 
z
M 1959 3584 
Q 2709 3584 3137 3096 
Q 3566 2609 3566 1747 
Q 3566 888 3137 398 
Q 2709 -91 1959 -91 
Q 1206 -91 779 398 
Q 353 888 353 1747 
Q 353 2609 779 3096 
Q 1206 3584 1959 3584 
z
" transform="scale(0.015625)"/>
      <path id="DejaVuSans-74" d="M 1172 4494 
L 1172 3500 
L 2356 3500 
L 2356 3053 
L 1172 3053 
L 1172 1153 
Q 1172 725 1289 603 
Q 1406 481 1766 481 
L 2356 481 
L 2356 0 
L 1766 0 
Q 1100 0 847 248 
Q 594 497 594 1153 
L 594 3053 
L 172 3053 
L 172 3500 
L 594 3500 
L 594 4494 
L 1172 4494 
z
" transform="scale(0.015625)"/>
      <path id="DejaVuSans-42" d="M 1259 2228 
L 1259 519 
L 2272 519 
Q 2781 519 3026 730 
Q 3272 941 3272 1375 
Q 3272 1813 3026 2020 
Q 2781 2228 2272 2228 
L 1259 2228 
z
M 1259 4147 
L 1259 2741 
L 2194 2741 
Q 2656 2741 2882 2914 
Q 3109 3088 3109 3444 
Q 3109 3797 2882 3972 
Q 2656 4147 2194 4147 
L 1259 4147 
z
M 628 4666 
L 2241 4666 
Q 2963 4666 3353 4366 
Q 3744 4066 3744 3513 
Q 3744 3084 3544 2831 
Q 3344 2578 2956 2516 
Q 3422 2416 3680 2098 
Q 3938 1781 3938 1306 
Q 3938 681 3513 340 
Q 3088 0 2303 0 
L 628 0 
L 628 4666 
z
" transform="scale(0.015625)"/>
      <path id="DejaVuSans-6e" d="M 3513 2113 
L 3513 0 
L 2938 0 
L 2938 2094 
Q 2938 2591 2744 2837 
Q 2550 3084 2163 3084 
Q 1697 3084 1428 2787 
Q 1159 2491 1159 1978 
L 1159 0 
L 581 0 
L 581 3500 
L 1159 3500 
L 1159 2956 
Q 1366 3272 1645 3428 
Q 1925 3584 2291 3584 
Q 2894 3584 3203 3211 
Q 3513 2838 3513 2113 
z
" transform="scale(0.015625)"/>
     </defs>
     <use xlink:href="#DejaVuSans-46"/>
     <use xlink:href="#DejaVuSans-6f" x="53.894531"/>
     <use xlink:href="#DejaVuSans-6f" x="115.076172"/>
     <use xlink:href="#DejaVuSans-74" x="176.257812"/>
     <use xlink:href="#DejaVuSans-42" x="215.466797"/>
     <use xlink:href="#DejaVuSans-69" x="284.070312"/>
     <use xlink:href="#DejaVuSans-6e" x="311.853516"/>
    </g>
   </g>
   <g id="text_16">
    <!-- WFL -->
    <g transform="translate(361.832136 89.970081)scale(0.08 -0.08)">
     <defs>
      <path id="DejaVuSans-4c" d="M 628 4666 
L 1259 4666 
L 1259 531 
L 3531 531 
L 3531 0 
L 628 0 
L 628 4666 
z
" transform="scale(0.015625)"/>
     </defs>
     <use xlink:href="#DejaVuSans-57"/>
     <use xlink:href="#DejaVuSans-46" x="98.876953"/>
     <use xlink:href="#DejaVuSans-4c" x="156.396484"/>
    </g>
   </g>
   <g id="text_17">
    <!-- WFR -->
    <g transform="translate(361.832136 91.02764)scale(0.08 -0.08)">
     <defs>
      <path id="DejaVuSans-52" d="M 2841 2188 
Q 3044 2119 3236 1894 
Q 3428 1669 3622 1275 
L 4263 0 
L 3584 0 
L 2988 1197 
Q 2756 1666 2539 1819 
Q 2322 1972 1947 1972 
L 1259 1972 
L 1259 0 
L 628 0 
L 628 4666 
L 2053 4666 
Q 2853 4666 3247 4331 
Q 3641 3997 3641 3322 
Q 3641 2881 3436 2590 
Q 3231 2300 2841 2188 
z
M 1259 4147 
L 1259 2491 
L 2053 2491 
Q 2509 2491 2742 2702 
Q 2975 2913 2975 3322 
Q 2975 3731 2742 3939 
Q 2509 4147 2053 4147 
L 1259 4147 
z
" transform="scale(0.015625)"/>
     </defs>
     <use xlink:href="#DejaVuSans-57"/>
     <use xlink:href="#DejaVuSans-46" x="98.876953"/>
     <use xlink:href="#DejaVuSans-52" x="156.396484"/>
    </g>
   </g>
   <g id="text_18">
    <!-- Main-L -->
    <g transform="translate(361.832136 108.39861)scale(0.08 -0.08)">
     <defs>
      <path id="DejaVuSans-4d" d="M 628 4666 
L 1569 4666 
L 2759 1491 
L 3956 4666 
L 4897 4666 
L 4897 0 
L 4281 0 
L 4281 4097 
L 3078 897 
L 2444 897 
L 1241 4097 
L 1241 0 
L 628 0 
L 628 4666 
z
" transform="scale(0.015625)"/>
      <path id="DejaVuSans-2d" d="M 313 2009 
L 1997 2009 
L 1997 1497 
L 313 1497 
L 313 2009 
z
" transform="scale(0.015625)"/>
     </defs>
     <use xlink:href="#DejaVuSans-4d"/>
     <use xlink:href="#DejaVuSans-61" x="86.279297"/>
     <use xlink:href="#DejaVuSans-69" x="147.558594"/>
     <use xlink:href="#DejaVuSans-6e" x="175.341797"/>
     <use xlink:href="#DejaVuSans-2d" x="238.720703"/>
     <use xlink:href="#DejaVuSans-4c" x="274.804688"/>
    </g>
   </g>
   <g id="text_19">
    <!-- Main-R -->
    <g transform="translate(361.832136 93.007751)scale(0.08 -0.08)">
     <use xlink:href="#DejaVuSans-4d"/>
     <use xlink:href="#DejaVuSans-61" x="86.279297"/>
     <use xlink:href="#DejaVuSans-69" x="147.558594"/>
     <use xlink:href="#DejaVuSans-6e" x="175.341797"/>
     <use xlink:href="#DejaVuSans-2d" x="238.720703"/>
     <use xlink:href="#DejaVuSans-52" x="274.804688"/>
    </g>
   </g>
   <g id="text_20">
    <!-- AFL -->
    <g transform="translate(361.832136 77.346877)scale(0.08 -0.08)">
     <defs>
      <path id="DejaVuSans-41" d="M 2188 4044 
L 1331 1722 
L 3047 1722 
L 2188 4044 
z
M 1831 4666 
L 2547 4666 
L 4325 0 
L 3669 0 
L 3244 1197 
L 1141 1197 
L 716 0 
L 50 0 
L 1831 4666 
z
" transform="scale(0.015625)"/>
     </defs>
     <use xlink:href="#DejaVuSans-41"/>
     <use xlink:href="#DejaVuSans-46" x="68.408203"/>
     <use xlink:href="#DejaVuSans-4c" x="125.927734"/>
    </g>
   </g>
   <g id="text_21">
    <!-- AFR -->
    <g transform="translate(361.832136 156.596299)scale(0.08 -0.08)">
     <use xlink:href="#DejaVuSans-41"/>
     <use xlink:href="#DejaVuSans-46" x="68.408203"/>
     <use xlink:href="#DejaVuSans-52" x="125.927734"/>
    </g>
   </g>
   <g id="text_22">
    <!-- Nonfinal -->
    <g transform="translate(361.832136 46.970182)scale(0.08 -0.08)">
     <defs>
      <path id="DejaVuSans-4e" d="M 628 4666 
L 1478 4666 
L 3547 763 
L 3547 4666 
L 4159 4666 
L 4159 0 
L 3309 0 
L 1241 3903 
L 1241 0 
L 628 0 
L 628 4666 
z
" transform="scale(0.015625)"/>
      <path id="DejaVuSans-66" d="M 2375 4863 
L 2375 4384 
L 1825 4384 
Q 1516 4384 1395 4259 
Q 1275 4134 1275 3809 
L 1275 3500 
L 2222 3500 
L 2222 3053 
L 1275 3053 
L 1275 0 
L 697 0 
L 697 3053 
L 147 3053 
L 147 3500 
L 697 3500 
L 697 3744 
Q 697 4328 969 4595 
Q 1241 4863 1831 4863 
L 2375 4863 
z
" transform="scale(0.015625)"/>
      <path id="DejaVuSans-6c" d="M 603 4863 
L 1178 4863 
L 1178 0 
L 603 0 
L 603 4863 
z
" transform="scale(0.015625)"/>
     </defs>
     <use xlink:href="#DejaVuSans-4e"/>
     <use xlink:href="#DejaVuSans-6f" x="74.804688"/>
     <use xlink:href="#DejaVuSans-6e" x="135.986328"/>
     <use xlink:href="#DejaVuSans-66" x="199.365234"/>
     <use xlink:href="#DejaVuSans-69" x="234.570312"/>
     <use xlink:href="#DejaVuSans-6e" x="262.353516"/>
     <use xlink:href="#DejaVuSans-61" x="325.732422"/>
     <use xlink:href="#DejaVuSans-6c" x="387.011719"/>
    </g>
   </g>
   <g id="text_23">
    <!-- Trochaic -->
    <g transform="translate(361.832136 102.570785)scale(0.08 -0.08)">
     <defs>
      <path id="DejaVuSans-54" d="M -19 4666 
L 3928 4666 
L 3928 4134 
L 2272 4134 
L 2272 0 
L 1638 0 
L 1638 4134 
L -19 4134 
L -19 4666 
z
" transform="scale(0.015625)"/>
      <path id="DejaVuSans-68" d="M 3513 2113 
L 3513 0 
L 2938 0 
L 2938 2094 
Q 2938 2591 2744 2837 
Q 2550 3084 2163 3084 
Q 1697 3084 1428 2787 
Q 1159 2491 1159 1978 
L 1159 0 
L 581 0 
L 581 4863 
L 1159 4863 
L 1159 2956 
Q 1366 3272 1645 3428 
Q 1925 3584 2291 3584 
Q 2894 3584 3203 3211 
Q 3513 2838 3513 2113 
z
" transform="scale(0.015625)"/>
     </defs>
     <use xlink:href="#DejaVuSans-54"/>
     <use xlink:href="#DejaVuSans-72" x="46.333984"/>
     <use xlink:href="#DejaVuSans-6f" x="85.197266"/>
     <use xlink:href="#DejaVuSans-63" x="146.378906"/>
     <use xlink:href="#DejaVuSans-68" x="201.359375"/>
     <use xlink:href="#DejaVuSans-61" x="264.738281"/>
     <use xlink:href="#DejaVuSans-69" x="326.017578"/>
     <use xlink:href="#DejaVuSans-63" x="353.800781"/>
    </g>
   </g>
  </g>
  <g id="axes_2">
   <g id="patch_7">
    <path d="M 57.6 307.584 
L 414.72 307.584 
L 414.72 186.624 
L 57.6 186.624 
z
" style="fill: #ffffff"/>
   </g>
   <g id="matplotlib.axis_3">
    <g id="xtick_8">
     <g id="line2d_24">
      <g>
       <use xlink:href="#m0887488431" x="72.096607" y="307.584" style="stroke: #000000; stroke-width: 0.8"/>
      </g>
     </g>
     <g id="text_24">
      <!-- 0 -->
      <g transform="translate(68.915357 322.182437)scale(0.1 -0.1)">
       <use xlink:href="#DejaVuSans-30"/>
      </g>
     </g>
    </g>
    <g id="xtick_9">
     <g id="line2d_25">
      <g>
       <use xlink:href="#m0887488431" x="115.499621" y="307.584" style="stroke: #000000; stroke-width: 0.8"/>
      </g>
     </g>
     <g id="text_25">
      <!-- 25 -->
      <g transform="translate(109.137121 322.182437)scale(0.1 -0.1)">
       <use xlink:href="#DejaVuSans-32"/>
       <use xlink:href="#DejaVuSans-35" x="63.623047"/>
      </g>
     </g>
    </g>
    <g id="xtick_10">
     <g id="line2d_26">
      <g>
       <use xlink:href="#m0887488431" x="158.902635" y="307.584" style="stroke: #000000; stroke-width: 0.8"/>
      </g>
     </g>
     <g id="text_26">
      <!-- 50 -->
      <g transform="translate(152.540135 322.182437)scale(0.1 -0.1)">
       <use xlink:href="#DejaVuSans-35"/>
       <use xlink:href="#DejaVuSans-30" x="63.623047"/>
      </g>
     </g>
    </g>
    <g id="xtick_11">
     <g id="line2d_27">
      <g>
       <use xlink:href="#m0887488431" x="202.305649" y="307.584" style="stroke: #000000; stroke-width: 0.8"/>
      </g>
     </g>
     <g id="text_27">
      <!-- 75 -->
      <g transform="translate(195.943149 322.182437)scale(0.1 -0.1)">
       <defs>
        <path id="DejaVuSans-37" d="M 525 4666 
L 3525 4666 
L 3525 4397 
L 1831 0 
L 1172 0 
L 2766 4134 
L 525 4134 
L 525 4666 
z
" transform="scale(0.015625)"/>
       </defs>
       <use xlink:href="#DejaVuSans-37"/>
       <use xlink:href="#DejaVuSans-35" x="63.623047"/>
      </g>
     </g>
    </g>
    <g id="xtick_12">
     <g id="line2d_28">
      <g>
       <use xlink:href="#m0887488431" x="245.708663" y="307.584" style="stroke: #000000; stroke-width: 0.8"/>
      </g>
     </g>
     <g id="text_28">
      <!-- 100 -->
      <g transform="translate(236.164913 322.182437)scale(0.1 -0.1)">
       <use xlink:href="#DejaVuSans-31"/>
       <use xlink:href="#DejaVuSans-30" x="63.623047"/>
       <use xlink:href="#DejaVuSans-30" x="127.246094"/>
      </g>
     </g>
    </g>
    <g id="xtick_13">
     <g id="line2d_29">
      <g>
       <use xlink:href="#m0887488431" x="289.111677" y="307.584" style="stroke: #000000; stroke-width: 0.8"/>
      </g>
     </g>
     <g id="text_29">
      <!-- 125 -->
      <g transform="translate(279.567927 322.182437)scale(0.1 -0.1)">
       <use xlink:href="#DejaVuSans-31"/>
       <use xlink:href="#DejaVuSans-32" x="63.623047"/>
       <use xlink:href="#DejaVuSans-35" x="127.246094"/>
      </g>
     </g>
    </g>
    <g id="xtick_14">
     <g id="line2d_30">
      <g>
       <use xlink:href="#m0887488431" x="332.514691" y="307.584" style="stroke: #000000; stroke-width: 0.8"/>
      </g>
     </g>
     <g id="text_30">
      <!-- 150 -->
      <g transform="translate(322.970941 322.182437)scale(0.1 -0.1)">
       <use xlink:href="#DejaVuSans-31"/>
       <use xlink:href="#DejaVuSans-35" x="63.623047"/>
       <use xlink:href="#DejaVuSans-30" x="127.246094"/>
      </g>
     </g>
    </g>
    <g id="xtick_15">
     <g id="line2d_31">
      <g>
       <use xlink:href="#m0887488431" x="375.917705" y="307.584" style="stroke: #000000; stroke-width: 0.8"/>
      </g>
     </g>
     <g id="text_31">
      <!-- 175 -->
      <g transform="translate(366.373955 322.182437)scale(0.1 -0.1)">
       <use xlink:href="#DejaVuSans-31"/>
       <use xlink:href="#DejaVuSans-37" x="63.623047"/>
       <use xlink:href="#DejaVuSans-35" x="127.246094"/>
      </g>
     </g>
    </g>
   </g>
   <g id="matplotlib.axis_4">
    <g id="ytick_5">
     <g id="line2d_32">
      <g>
       <use xlink:href="#m890a010030" x="57.6" y="302.095497" style="stroke: #000000; stroke-width: 0.8"/>
      </g>
     </g>
     <g id="text_32">
      <!-- 0 -->
      <g transform="translate(44.2375 305.894716)scale(0.1 -0.1)">
       <use xlink:href="#DejaVuSans-30"/>
      </g>
     </g>
    </g>
    <g id="ytick_6">
     <g id="line2d_33">
      <g>
       <use xlink:href="#m890a010030" x="57.6" y="277.897883" style="stroke: #000000; stroke-width: 0.8"/>
      </g>
     </g>
     <g id="text_33">
      <!-- 2500 -->
      <g transform="translate(25.15 281.697102)scale(0.1 -0.1)">
       <use xlink:href="#DejaVuSans-32"/>
       <use xlink:href="#DejaVuSans-35" x="63.623047"/>
       <use xlink:href="#DejaVuSans-30" x="127.246094"/>
       <use xlink:href="#DejaVuSans-30" x="190.869141"/>
      </g>
     </g>
    </g>
    <g id="ytick_7">
     <g id="line2d_34">
      <g>
       <use xlink:href="#m890a010030" x="57.6" y="253.70027" style="stroke: #000000; stroke-width: 0.8"/>
      </g>
     </g>
     <g id="text_34">
      <!-- 5000 -->
      <g transform="translate(25.15 257.499488)scale(0.1 -0.1)">
       <use xlink:href="#DejaVuSans-35"/>
       <use xlink:href="#DejaVuSans-30" x="63.623047"/>
       <use xlink:href="#DejaVuSans-30" x="127.246094"/>
       <use xlink:href="#DejaVuSans-30" x="190.869141"/>
      </g>
     </g>
    </g>
    <g id="ytick_8">
     <g id="line2d_35">
      <g>
       <use xlink:href="#m890a010030" x="57.6" y="229.502656" style="stroke: #000000; stroke-width: 0.8"/>
      </g>
     </g>
     <g id="text_35">
      <!-- 7500 -->
      <g transform="translate(25.15 233.301874)scale(0.1 -0.1)">
       <use xlink:href="#DejaVuSans-37"/>
       <use xlink:href="#DejaVuSans-35" x="63.623047"/>
       <use xlink:href="#DejaVuSans-30" x="127.246094"/>
       <use xlink:href="#DejaVuSans-30" x="190.869141"/>
      </g>
     </g>
    </g>
    <g id="ytick_9">
     <g id="line2d_36">
      <g>
       <use xlink:href="#m890a010030" x="57.6" y="205.305042" style="stroke: #000000; stroke-width: 0.8"/>
      </g>
     </g>
     <g id="text_36">
      <!-- 10000 -->
      <g transform="translate(18.7875 209.104261)scale(0.1 -0.1)">
       <use xlink:href="#DejaVuSans-31"/>
       <use xlink:href="#DejaVuSans-30" x="63.623047"/>
       <use xlink:href="#DejaVuSans-30" x="127.246094"/>
       <use xlink:href="#DejaVuSans-30" x="190.869141"/>
       <use xlink:href="#DejaVuSans-30" x="254.492188"/>
      </g>
     </g>
    </g>
   </g>
   <g id="line2d_37">
    <path d="M 73.832727 302.085818 
L 145.01367 301.998707 
L 146.749791 301.959991 
L 148.485912 302.076139 
L 151.958153 302.06646 
L 153.694273 301.959991 
L 157.166514 302.056781 
L 162.374876 301.979349 
L 164.110997 301.834163 
L 165.847117 302.06646 
L 174.52772 302.085818 
L 176.263841 301.979349 
L 179.736082 302.027744 
L 186.680564 302.037423 
L 188.416684 301.776089 
L 190.152805 301.930953 
L 193.625046 302.06646 
L 195.361167 301.776089 
L 197.097287 302.037423 
L 198.833408 301.785768 
L 202.305649 301.998707 
L 207.514011 302.085818 
L 209.250131 301.930953 
L 210.986252 301.940632 
L 212.722372 302.06646 
L 216.194614 301.814805 
L 217.930734 302.076139 
L 219.666855 301.892237 
L 221.402975 302.085818 
L 223.139096 301.805126 
L 224.875216 302.06646 
L 228.347457 302.018065 
L 233.555819 302.085818 
L 235.29194 301.592187 
L 237.02806 301.930953 
L 238.764181 301.776089 
L 240.500301 301.998707 
L 243.972543 302.018065 
L 245.708663 301.805126 
L 247.444784 302.037423 
L 250.917025 302.018065 
L 252.653145 301.698656 
L 254.389266 301.921274 
L 256.125386 301.814805 
L 257.861507 301.853521 
L 259.597628 301.321174 
L 261.333748 301.56315 
L 263.069869 301.959991 
L 264.805989 301.930953 
L 266.54211 300.95337 
L 268.27823 301.495396 
L 270.014351 301.911595 
L 271.750472 301.640582 
L 273.486592 301.805126 
L 275.222713 301.688977 
L 278.694954 302.056781 
L 280.431074 301.621224 
L 282.167195 302.018065 
L 283.903316 301.437322 
L 285.639436 301.998707 
L 287.375557 301.727693 
L 289.111677 300.04354 
L 290.847798 300.982407 
L 292.583918 301.553471 
L 294.320039 300.537171 
L 296.056159 298.978845 
L 297.79228 301.592187 
L 299.528401 300.391985 
L 301.264521 302.085818 
L 306.472883 301.708335 
L 308.209003 300.014502 
L 309.945124 301.814805 
L 311.681245 301.679298 
L 313.417365 298.71751 
L 315.153486 299.63702 
L 316.889606 301.447001 
L 318.625727 299.501513 
L 320.361847 300.730752 
L 322.097968 299.791884 
L 323.834088 299.298253 
L 325.570209 289.232046 
L 327.30633 298.62072 
L 329.04245 299.772526 
L 330.778571 301.059839 
L 332.514691 292.038969 
L 334.250812 299.93707 
L 335.986932 301.059839 
L 337.723053 298.930449 
L 339.459174 285.931491 
L 341.195294 301.737373 
L 342.931415 290.461284 
L 344.667535 300.479097 
L 346.403656 299.453118 
L 348.139776 300.972728 
L 349.875897 297.40116 
L 351.612018 298.804622 
L 353.348138 286.909075 
L 355.084259 285.708873 
L 356.820379 288.961032 
L 360.29262 300.614603 
L 362.028741 301.776089 
L 363.764861 288.264141 
L 365.500982 296.955924 
L 367.237103 300.64364 
L 368.973223 272.167888 
L 370.709344 278.217292 
L 372.445464 296.191279 
L 374.181585 288.302857 
L 375.917705 298.2142 
L 377.653826 295.126584 
L 379.389947 299.395044 
L 381.126067 292.919762 
L 382.862188 261.656445 
L 384.598308 252.209697 
L 386.334429 294.207075 
L 388.070549 286.04764 
L 389.80667 298.891733 
L 391.54279 299.801563 
L 393.278911 301.243741 
L 395.015032 292.513242 
L 396.751152 252.703328 
L 398.487273 192.122182 
L 398.487273 192.122182 
" clip-path="url(#pe4f7faf3f4)" style="fill: none; stroke: #1f77b4; stroke-width: 1.5; stroke-linecap: square"/>
   </g>
   <g id="patch_8">
    <path d="M 57.6 307.584 
L 57.6 186.624 
" style="fill: none; stroke: #000000; stroke-width: 0.8; stroke-linejoin: miter; stroke-linecap: square"/>
   </g>
   <g id="patch_9">
    <path d="M 414.72 307.584 
L 414.72 186.624 
" style="fill: none; stroke: #000000; stroke-width: 0.8; stroke-linejoin: miter; stroke-linecap: square"/>
   </g>
   <g id="patch_10">
    <path d="M 57.6 307.584 
L 414.72 307.584 
" style="fill: none; stroke: #000000; stroke-width: 0.8; stroke-linejoin: miter; stroke-linecap: square"/>
   </g>
   <g id="patch_11">
    <path d="M 57.6 186.624 
L 414.72 186.624 
" style="fill: none; stroke: #000000; stroke-width: 0.8; stroke-linejoin: miter; stroke-linecap: square"/>
   </g>
  </g>
 </g>
 <defs>
  <clipPath id="p0a117d82eb">
   <rect x="57.6" y="41.472" width="357.12" height="120.96"/>
  </clipPath>
  <clipPath id="pe4f7faf3f4">
   <rect x="57.6" y="186.624" width="357.12" height="120.96"/>
  </clipPath>
 </defs>
</svg>
