<?xml version="1.0" encoding="utf-8" standalone="no"?>
<!DOCTYPE svg PUBLIC "-//W3C//DTD SVG 1.1//EN"
  "http://www.w3.org/Graphics/SVG/1.1/DTD/svg11.dtd">
<svg xmlns:xlink="http://www.w3.org/1999/xlink" width="460.8pt" height="345.6pt" viewBox="0 0 460.8 345.6" xmlns="http://www.w3.org/2000/svg" version="1.1">
 <metadata>
  <rdf:RDF xmlns:dc="http://purl.org/dc/elements/1.1/" xmlns:cc="http://creativecommons.org/ns#" xmlns:rdf="http://www.w3.org/1999/02/22-rdf-syntax-ns#">
   <cc:Work>
    <dc:type rdf:resource="http://purl.org/dc/dcmitype/StillImage"/>
    <dc:date>2022-05-13T23:42:24.307004</dc:date>
    <dc:format>image/svg+xml</dc:format>
    <dc:creator>
     <cc:Agent>
      <dc:title>Matplotlib v3.5.1, https://matplotlib.org/</dc:title>
     </cc:Agent>
    </dc:creator>
   </cc:Work>
  </rdf:RDF>
 </metadata>
 <defs>
  <style type="text/css">*{stroke-linejoin: round; stroke-linecap: butt}</style>
 </defs>
 <g id="figure_1">
  <g id="patch_1">
   <path d="M 0 345.6 
L 460.8 345.6 
L 460.8 0 
L 0 0 
z
" style="fill: #ffffff"/>
  </g>
  <g id="axes_1">
   <g id="patch_2">
    <path d="M 57.6 162.432 
L 414.72 162.432 
L 414.72 41.472 
L 57.6 41.472 
z
" style="fill: #ffffff"/>
   </g>
   <g id="matplotlib.axis_1">
    <g id="xtick_1">
     <g id="line2d_1">
      <defs>
       <path id="mc698b7ae79" d="M 0 0 
L 0 3.5 
" style="stroke: #000000; stroke-width: 0.8"/>
      </defs>
      <g>
       <use xlink:href="#mc698b7ae79" x="73.827491" y="162.432" style="stroke: #000000; stroke-width: 0.8"/>
      </g>
     </g>
     <g id="text_1">
      <!-- 0 -->
      <g transform="translate(70.646241 177.030437)scale(0.1 -0.1)">
       <defs>
        <path id="DejaVuSans-30" d="M 2034 4250 
Q 1547 4250 1301 3770 
Q 1056 3291 1056 2328 
Q 1056 1369 1301 889 
Q 1547 409 2034 409 
Q 2525 409 2770 889 
Q 3016 1369 3016 2328 
Q 3016 3291 2770 3770 
Q 2525 4250 2034 4250 
z
M 2034 4750 
Q 2819 4750 3233 4129 
Q 3647 3509 3647 2328 
Q 3647 1150 3233 529 
Q 2819 -91 2034 -91 
Q 1250 -91 836 529 
Q 422 1150 422 2328 
Q 422 3509 836 4129 
Q 1250 4750 2034 4750 
z
" transform="scale(0.015625)"/>
       </defs>
       <use xlink:href="#DejaVuSans-30"/>
      </g>
     </g>
    </g>
    <g id="xtick_2">
     <g id="line2d_2">
      <g>
       <use xlink:href="#mc698b7ae79" x="126.191972" y="162.432" style="stroke: #000000; stroke-width: 0.8"/>
      </g>
     </g>
     <g id="text_2">
      <!-- 10000 -->
      <g transform="translate(110.285722 177.030437)scale(0.1 -0.1)">
       <defs>
        <path id="DejaVuSans-31" d="M 794 531 
L 1825 531 
L 1825 4091 
L 703 3866 
L 703 4441 
L 1819 4666 
L 2450 4666 
L 2450 531 
L 3481 531 
L 3481 0 
L 794 0 
L 794 531 
z
" transform="scale(0.015625)"/>
       </defs>
       <use xlink:href="#DejaVuSans-31"/>
       <use xlink:href="#DejaVuSans-30" x="63.623047"/>
       <use xlink:href="#DejaVuSans-30" x="127.246094"/>
       <use xlink:href="#DejaVuSans-30" x="190.869141"/>
       <use xlink:href="#DejaVuSans-30" x="254.492188"/>
      </g>
     </g>
    </g>
    <g id="xtick_3">
     <g id="line2d_3">
      <g>
       <use xlink:href="#mc698b7ae79" x="178.556453" y="162.432" style="stroke: #000000; stroke-width: 0.8"/>
      </g>
     </g>
     <g id="text_3">
      <!-- 20000 -->
      <g transform="translate(162.650203 177.030437)scale(0.1 -0.1)">
       <defs>
        <path id="DejaVuSans-32" d="M 1228 531 
L 3431 531 
L 3431 0 
L 469 0 
L 469 531 
Q 828 903 1448 1529 
Q 2069 2156 2228 2338 
Q 2531 2678 2651 2914 
Q 2772 3150 2772 3378 
Q 2772 3750 2511 3984 
Q 2250 4219 1831 4219 
Q 1534 4219 1204 4116 
Q 875 4013 500 3803 
L 500 4441 
Q 881 4594 1212 4672 
Q 1544 4750 1819 4750 
Q 2544 4750 2975 4387 
Q 3406 4025 3406 3419 
Q 3406 3131 3298 2873 
Q 3191 2616 2906 2266 
Q 2828 2175 2409 1742 
Q 1991 1309 1228 531 
z
" transform="scale(0.015625)"/>
       </defs>
       <use xlink:href="#DejaVuSans-32"/>
       <use xlink:href="#DejaVuSans-30" x="63.623047"/>
       <use xlink:href="#DejaVuSans-30" x="127.246094"/>
       <use xlink:href="#DejaVuSans-30" x="190.869141"/>
       <use xlink:href="#DejaVuSans-30" x="254.492188"/>
      </g>
     </g>
    </g>
    <g id="xtick_4">
     <g id="line2d_4">
      <g>
       <use xlink:href="#mc698b7ae79" x="230.920934" y="162.432" style="stroke: #000000; stroke-width: 0.8"/>
      </g>
     </g>
     <g id="text_4">
      <!-- 30000 -->
      <g transform="translate(215.014684 177.030437)scale(0.1 -0.1)">
       <defs>
        <path id="DejaVuSans-33" d="M 2597 2516 
Q 3050 2419 3304 2112 
Q 3559 1806 3559 1356 
Q 3559 666 3084 287 
Q 2609 -91 1734 -91 
Q 1441 -91 1130 -33 
Q 819 25 488 141 
L 488 750 
Q 750 597 1062 519 
Q 1375 441 1716 441 
Q 2309 441 2620 675 
Q 2931 909 2931 1356 
Q 2931 1769 2642 2001 
Q 2353 2234 1838 2234 
L 1294 2234 
L 1294 2753 
L 1863 2753 
Q 2328 2753 2575 2939 
Q 2822 3125 2822 3475 
Q 2822 3834 2567 4026 
Q 2313 4219 1838 4219 
Q 1578 4219 1281 4162 
Q 984 4106 628 3988 
L 628 4550 
Q 988 4650 1302 4700 
Q 1616 4750 1894 4750 
Q 2613 4750 3031 4423 
Q 3450 4097 3450 3541 
Q 3450 3153 3228 2886 
Q 3006 2619 2597 2516 
z
" transform="scale(0.015625)"/>
       </defs>
       <use xlink:href="#DejaVuSans-33"/>
       <use xlink:href="#DejaVuSans-30" x="63.623047"/>
       <use xlink:href="#DejaVuSans-30" x="127.246094"/>
       <use xlink:href="#DejaVuSans-30" x="190.869141"/>
       <use xlink:href="#DejaVuSans-30" x="254.492188"/>
      </g>
     </g>
    </g>
    <g id="xtick_5">
     <g id="line2d_5">
      <g>
       <use xlink:href="#mc698b7ae79" x="283.285415" y="162.432" style="stroke: #000000; stroke-width: 0.8"/>
      </g>
     </g>
     <g id="text_5">
      <!-- 40000 -->
      <g transform="translate(267.379165 177.030437)scale(0.1 -0.1)">
       <defs>
        <path id="DejaVuSans-34" d="M 2419 4116 
L 825 1625 
L 2419 1625 
L 2419 4116 
z
M 2253 4666 
L 3047 4666 
L 3047 1625 
L 3713 1625 
L 3713 1100 
L 3047 1100 
L 3047 0 
L 2419 0 
L 2419 1100 
L 313 1100 
L 313 1709 
L 2253 4666 
z
" transform="scale(0.015625)"/>
       </defs>
       <use xlink:href="#DejaVuSans-34"/>
       <use xlink:href="#DejaVuSans-30" x="63.623047"/>
       <use xlink:href="#DejaVuSans-30" x="127.246094"/>
       <use xlink:href="#DejaVuSans-30" x="190.869141"/>
       <use xlink:href="#DejaVuSans-30" x="254.492188"/>
      </g>
     </g>
    </g>
    <g id="xtick_6">
     <g id="line2d_6">
      <g>
       <use xlink:href="#mc698b7ae79" x="335.649896" y="162.432" style="stroke: #000000; stroke-width: 0.8"/>
      </g>
     </g>
     <g id="text_6">
      <!-- 50000 -->
      <g transform="translate(319.743646 177.030437)scale(0.1 -0.1)">
       <defs>
        <path id="DejaVuSans-35" d="M 691 4666 
L 3169 4666 
L 3169 4134 
L 1269 4134 
L 1269 2991 
Q 1406 3038 1543 3061 
Q 1681 3084 1819 3084 
Q 2600 3084 3056 2656 
Q 3513 2228 3513 1497 
Q 3513 744 3044 326 
Q 2575 -91 1722 -91 
Q 1428 -91 1123 -41 
Q 819 9 494 109 
L 494 744 
Q 775 591 1075 516 
Q 1375 441 1709 441 
Q 2250 441 2565 725 
Q 2881 1009 2881 1497 
Q 2881 1984 2565 2268 
Q 2250 2553 1709 2553 
Q 1456 2553 1204 2497 
Q 953 2441 691 2322 
L 691 4666 
z
" transform="scale(0.015625)"/>
       </defs>
       <use xlink:href="#DejaVuSans-35"/>
       <use xlink:href="#DejaVuSans-30" x="63.623047"/>
       <use xlink:href="#DejaVuSans-30" x="127.246094"/>
       <use xlink:href="#DejaVuSans-30" x="190.869141"/>
       <use xlink:href="#DejaVuSans-30" x="254.492188"/>
      </g>
     </g>
    </g>
    <g id="xtick_7">
     <g id="line2d_7">
      <g>
       <use xlink:href="#mc698b7ae79" x="388.014377" y="162.432" style="stroke: #000000; stroke-width: 0.8"/>
      </g>
     </g>
     <g id="text_7">
      <!-- 60000 -->
      <g transform="translate(372.108127 177.030437)scale(0.1 -0.1)">
       <defs>
        <path id="DejaVuSans-36" d="M 2113 2584 
Q 1688 2584 1439 2293 
Q 1191 2003 1191 1497 
Q 1191 994 1439 701 
Q 1688 409 2113 409 
Q 2538 409 2786 701 
Q 3034 994 3034 1497 
Q 3034 2003 2786 2293 
Q 2538 2584 2113 2584 
z
M 3366 4563 
L 3366 3988 
Q 3128 4100 2886 4159 
Q 2644 4219 2406 4219 
Q 1781 4219 1451 3797 
Q 1122 3375 1075 2522 
Q 1259 2794 1537 2939 
Q 1816 3084 2150 3084 
Q 2853 3084 3261 2657 
Q 3669 2231 3669 1497 
Q 3669 778 3244 343 
Q 2819 -91 2113 -91 
Q 1303 -91 875 529 
Q 447 1150 447 2328 
Q 447 3434 972 4092 
Q 1497 4750 2381 4750 
Q 2619 4750 2861 4703 
Q 3103 4656 3366 4563 
z
" transform="scale(0.015625)"/>
       </defs>
       <use xlink:href="#DejaVuSans-36"/>
       <use xlink:href="#DejaVuSans-30" x="63.623047"/>
       <use xlink:href="#DejaVuSans-30" x="127.246094"/>
       <use xlink:href="#DejaVuSans-30" x="190.869141"/>
       <use xlink:href="#DejaVuSans-30" x="254.492188"/>
      </g>
     </g>
    </g>
   </g>
   <g id="matplotlib.axis_2">
    <g id="ytick_1">
     <g id="line2d_8">
      <defs>
       <path id="m94d411ca97" d="M 0 0 
L -3.5 0 
" style="stroke: #000000; stroke-width: 0.8"/>
      </defs>
      <g>
       <use xlink:href="#m94d411ca97" x="57.6" y="149.396405" style="stroke: #000000; stroke-width: 0.8"/>
      </g>
     </g>
     <g id="text_8">
      <!-- 40 -->
      <g transform="translate(37.875 153.195623)scale(0.1 -0.1)">
       <use xlink:href="#DejaVuSans-34"/>
       <use xlink:href="#DejaVuSans-30" x="63.623047"/>
      </g>
     </g>
    </g>
    <g id="ytick_2">
     <g id="line2d_9">
      <g>
       <use xlink:href="#m94d411ca97" x="57.6" y="118.420732" style="stroke: #000000; stroke-width: 0.8"/>
      </g>
     </g>
     <g id="text_9">
      <!-- 60 -->
      <g transform="translate(37.875 122.219951)scale(0.1 -0.1)">
       <use xlink:href="#DejaVuSans-36"/>
       <use xlink:href="#DejaVuSans-30" x="63.623047"/>
      </g>
     </g>
    </g>
    <g id="ytick_3">
     <g id="line2d_10">
      <g>
       <use xlink:href="#m94d411ca97" x="57.6" y="87.44506" style="stroke: #000000; stroke-width: 0.8"/>
      </g>
     </g>
     <g id="text_10">
      <!-- 80 -->
      <g transform="translate(37.875 91.244279)scale(0.1 -0.1)">
       <defs>
        <path id="DejaVuSans-38" d="M 2034 2216 
Q 1584 2216 1326 1975 
Q 1069 1734 1069 1313 
Q 1069 891 1326 650 
Q 1584 409 2034 409 
Q 2484 409 2743 651 
Q 3003 894 3003 1313 
Q 3003 1734 2745 1975 
Q 2488 2216 2034 2216 
z
M 1403 2484 
Q 997 2584 770 2862 
Q 544 3141 544 3541 
Q 544 4100 942 4425 
Q 1341 4750 2034 4750 
Q 2731 4750 3128 4425 
Q 3525 4100 3525 3541 
Q 3525 3141 3298 2862 
Q 3072 2584 2669 2484 
Q 3125 2378 3379 2068 
Q 3634 1759 3634 1313 
Q 3634 634 3220 271 
Q 2806 -91 2034 -91 
Q 1263 -91 848 271 
Q 434 634 434 1313 
Q 434 1759 690 2068 
Q 947 2378 1403 2484 
z
M 1172 3481 
Q 1172 3119 1398 2916 
Q 1625 2713 2034 2713 
Q 2441 2713 2670 2916 
Q 2900 3119 2900 3481 
Q 2900 3844 2670 4047 
Q 2441 4250 2034 4250 
Q 1625 4250 1398 4047 
Q 1172 3844 1172 3481 
z
" transform="scale(0.015625)"/>
       </defs>
       <use xlink:href="#DejaVuSans-38"/>
       <use xlink:href="#DejaVuSans-30" x="63.623047"/>
      </g>
     </g>
    </g>
    <g id="ytick_4">
     <g id="line2d_11">
      <g>
       <use xlink:href="#m94d411ca97" x="57.6" y="56.469388" style="stroke: #000000; stroke-width: 0.8"/>
      </g>
     </g>
     <g id="text_11">
      <!-- 100 -->
      <g transform="translate(31.5125 60.268607)scale(0.1 -0.1)">
       <use xlink:href="#DejaVuSans-31"/>
       <use xlink:href="#DejaVuSans-30" x="63.623047"/>
       <use xlink:href="#DejaVuSans-30" x="127.246094"/>
      </g>
     </g>
    </g>
   </g>
   <g id="line2d_12">
    <path d="M 73.832727 56.159631 
L 73.85891 55.64337 
L 73.895565 59.644394 
L 73.906038 61.193178 
L 73.942693 58.870003 
L 74.00553 60.418786 
L 74.010767 60.418786 
L 74.084077 58.611872 
L 74.120732 60.160656 
L 74.152151 60.160656 
L 74.267352 61.709439 
L 74.471574 61.709439 
L 74.508229 63.258223 
L 74.581539 62.741962 
L 74.733396 62.741962 
L 74.848598 62.354766 
L 74.864308 62.354766 
L 74.895726 61.838504 
L 74.900963 63.387288 
L 74.969037 62.871027 
L 78.906845 62.871027 
L 79.022047 62.354766 
L 79.598057 62.354766 
L 79.713258 61.838504 
L 79.770859 61.838504 
L 79.886061 61.322243 
L 81.881148 61.322243 
L 81.99635 60.805982 
L 82.268645 60.805982 
L 82.383847 62.354766 
L 83.033167 62.354766 
L 83.148368 63.903549 
L 83.174551 63.903549 
L 83.289753 63.387288 
L 85.091091 63.387288 
L 85.206293 62.612896 
L 87.049522 62.612896 
L 87.164724 62.096635 
L 90.887839 62.096635 
L 91.003041 63.645419 
L 91.369592 63.645419 
L 91.484794 63.129157 
L 92.940526 63.129157 
L 93.055728 62.612896 
L 94.118727 62.612896 
L 94.233929 62.096635 
L 96.365163 62.096635 
L 96.480365 63.645419 
L 98.21363 63.645419 
L 98.328831 63.129157 
L 99.334229 63.129157 
L 99.449431 62.741962 
L 157.558296 62.741962 
L 157.673498 64.290745 
L 157.710153 64.290745 
L 157.825355 63.774484 
L 164.161457 63.774484 
L 164.276659 63.000092 
L 175.278436 63.000092 
L 175.393638 62.483831 
L 176.545657 62.483831 
L 176.660859 64.032615 
L 181.860651 64.032615 
L 181.975853 65.581398 
L 208.755049 65.581398 
L 208.870251 65.194202 
L 222.427415 65.194202 
L 222.542617 64.677941 
L 242.414937 64.677941 
L 242.530139 63.903549 
L 299.544586 63.903549 
L 299.659788 63.387288 
L 398.487273 63.387288 
L 398.487273 63.387288 
" clip-path="url(#pc6e7a3abbf)" style="fill: none; stroke: #1f77b4; stroke-width: 1.5; stroke-linecap: square"/>
   </g>
   <g id="line2d_13">
    <path d="M 73.832727 58.018172 
L 73.864146 58.018172 
L 73.937456 62.148261 
L 73.979348 60.599478 
L 74.010767 60.599478 
L 74.131205 63.697045 
L 74.194042 63.697045 
L 74.31448 60.599478 
L 74.790997 60.599478 
L 74.911436 57.50191 
L 75.094711 57.50191 
L 75.209913 55.953127 
L 96.365163 55.953127 
L 96.480365 57.50191 
L 157.558296 57.50191 
L 157.673498 59.050694 
L 398.487273 59.050694 
L 398.487273 59.050694 
" clip-path="url(#pc6e7a3abbf)" style="fill: none; stroke: #ff7f0e; stroke-width: 1.5; stroke-linecap: square"/>
   </g>
   <g id="line2d_14">
    <path d="M 73.832727 56.159631 
L 73.8432 56.159631 
L 73.989821 68.162704 
L 74.010767 68.162704 
L 74.084077 67.130182 
L 74.036949 68.937096 
L 74.115495 68.678965 
L 74.230697 71.389337 
L 74.31448 71.389337 
L 74.393027 77.584471 
L 74.440155 76.810079 
L 74.450628 76.810079 
L 74.508229 78.358863 
L 74.560594 77.842602 
L 74.576303 77.842602 
L 74.691505 80.552973 
L 74.733396 80.552973 
L 74.853835 84.812128 
L 74.864308 84.812128 
L 74.869544 84.295867 
L 74.927145 88.942218 
L 74.932381 88.942218 
L 75.099948 88.942218 
L 75.225622 93.588569 
L 75.230859 93.588569 
L 75.277987 92.814177 
L 75.309406 95.911744 
L 75.325115 95.911744 
L 75.471736 95.911744 
L 75.586937 95.524548 
L 75.702139 97.073332 
L 75.948252 97.073332 
L 75.963962 96.29894 
L 75.969198 97.847723 
L 76.052981 97.847723 
L 76.147237 97.847723 
L 76.241493 96.29894 
L 76.257203 97.847723 
L 76.382877 97.847723 
L 76.430006 97.460528 
L 76.435242 99.009311 
L 76.477134 99.009311 
L 76.597572 99.009311 
L 76.628991 100.558095 
L 76.707537 100.170899 
L 76.864631 100.170899 
L 76.88034 99.396507 
L 76.885577 100.945291 
L 76.96936 100.558095 
L 77.011251 100.558095 
L 77.13169 103.655662 
L 77.346384 103.655662 
L 77.461586 103.268466 
L 77.545369 103.268466 
L 77.561078 104.81725 
L 77.613443 102.88127 
L 77.655334 104.430054 
L 77.671044 104.430054 
L 77.781009 103.268466 
L 77.896211 104.81725 
L 77.901447 104.81725 
L 77.974758 104.430054 
L 77.979994 105.978837 
L 77.995704 105.978837 
L 78.011413 105.978837 
L 78.126615 107.527621 
L 78.257526 107.527621 
L 78.304654 106.753229 
L 78.30989 108.302013 
L 78.367491 107.527621 
L 78.582186 107.527621 
L 78.697388 109.076405 
L 78.906845 109.076405 
L 78.917318 108.560143 
L 78.922555 110.108927 
L 79.006338 110.108927 
L 79.016811 110.108927 
L 79.132013 111.657711 
L 79.503801 111.657711 
L 79.598057 113.206494 
L 79.613766 112.690233 
L 79.770859 112.690233 
L 79.886061 111.786776 
L 80.069337 111.786776 
L 80.184539 113.33556 
L 80.294504 113.33556 
L 80.409706 114.884343 
L 80.723893 114.884343 
L 80.839095 114.109951 
L 80.886223 114.109951 
L 81.001425 115.658735 
L 81.881148 115.658735 
L 81.99635 115.142474 
L 82.053951 115.142474 
L 82.169153 116.691257 
L 82.268645 116.691257 
L 82.389083 119.788825 
L 82.441448 119.788825 
L 82.55665 119.014433 
L 82.823709 119.014433 
L 82.938911 118.240041 
L 83.033167 118.240041 
L 83.148368 119.788825 
L 83.960018 119.788825 
L 84.049038 119.014433 
L 84.054274 120.563216 
L 84.064747 120.563216 
L 85.316258 120.563216 
L 85.43146 122.112 
L 85.90274 122.112 
L 86.017942 121.337608 
L 87.049522 121.337608 
L 87.164724 120.821347 
L 87.311345 120.821347 
L 87.426547 122.370131 
L 87.704078 122.370131 
L 87.81928 123.918914 
L 87.950191 123.918914 
L 88.065393 123.144522 
L 90.887839 123.144522 
L 91.003041 124.693306 
L 91.369592 124.693306 
L 91.484794 124.177045 
L 92.322625 124.177045 
L 92.437827 125.725828 
L 92.940526 125.725828 
L 93.055728 125.209567 
L 94.328185 125.209567 
L 94.443387 126.758351 
L 94.967032 126.758351 
L 95.082234 125.983959 
L 95.145071 125.983959 
L 95.265509 129.081526 
L 95.794391 129.081526 
L 95.909592 130.63031 
L 95.935775 130.63031 
L 96.050977 132.179093 
L 96.365163 132.179093 
L 96.480365 133.727877 
L 96.579858 133.727877 
L 96.69506 132.953485 
L 97.312961 132.953485 
L 97.428162 132.179093 
L 97.548601 132.179093 
L 97.663803 131.404702 
L 99.334229 131.404702 
L 99.449431 131.017506 
L 99.894529 131.017506 
L 100.009731 132.566289 
L 100.418174 132.566289 
L 100.533376 131.791898 
L 110.011347 131.791898 
L 110.126549 131.017506 
L 110.440736 131.017506 
L 110.555938 132.566289 
L 117.782236 132.566289 
L 117.897438 134.115073 
L 117.955039 134.115073 
L 118.070241 135.663857 
L 146.425607 135.663857 
L 146.540809 134.889465 
L 152.772182 134.889465 
L 152.887384 136.438248 
L 157.558296 136.438248 
L 157.673498 137.987032 
L 157.710153 137.987032 
L 157.825355 137.470771 
L 160.166047 137.470771 
L 160.281249 136.696379 
L 160.459288 136.696379 
L 160.57449 135.921987 
L 161.302356 135.921987 
L 161.417558 137.470771 
L 163.931053 137.470771 
L 164.046255 136.696379 
L 167.75366 136.696379 
L 167.868862 135.921987 
L 172.937744 135.921987 
L 173.052946 137.470771 
L 181.860651 137.470771 
L 181.975853 139.019554 
L 187.013316 139.019554 
L 187.128518 140.568338 
L 208.755049 140.568338 
L 208.870251 140.181142 
L 209.781393 140.181142 
L 209.896595 139.40675 
L 218.133527 139.40675 
L 218.248729 140.955534 
L 222.427415 140.955534 
L 222.542617 140.439273 
L 223.574197 140.439273 
L 223.689399 141.988056 
L 240.76022 141.988056 
L 240.875422 141.213665 
L 243.629793 141.213665 
L 243.744995 142.762448 
L 248.66202 142.762448 
L 248.777222 144.311232 
L 250.054915 144.311232 
L 250.170117 145.860015 
L 253.086818 145.860015 
L 253.20202 147.408799 
L 255.149979 147.408799 
L 255.265181 146.634407 
L 258.590325 146.634407 
L 258.705527 145.860015 
L 263.135562 145.860015 
L 263.250764 145.085624 
L 299.544586 145.085624 
L 299.659788 144.569362 
L 316.165072 144.569362 
L 316.280274 143.794971 
L 319.385488 143.794971 
L 319.50069 145.343754 
L 390.103719 145.343754 
L 390.218921 144.569362 
L 398.487273 144.569362 
L 398.487273 144.569362 
" clip-path="url(#pc6e7a3abbf)" style="fill: none; stroke: #2ca02c; stroke-width: 1.5; stroke-linecap: square"/>
   </g>
   <g id="line2d_15">
    <path d="M 73.832727 56.159631 
L 73.837964 56.159631 
L 73.947929 55.462679 
L 73.953166 57.011462 
L 74.057895 56.31451 
L 74.152151 56.31451 
L 74.267352 57.863293 
L 74.471574 57.863293 
L 74.592012 60.96086 
L 74.754342 60.96086 
L 74.880017 59.799273 
L 76.922232 59.799273 
L 77.037434 59.412077 
L 82.268645 59.412077 
L 82.383847 60.96086 
L 181.860651 60.96086 
L 181.975853 62.509644 
L 398.487273 62.509644 
L 398.487273 62.509644 
" clip-path="url(#pc6e7a3abbf)" style="fill: none; stroke: #d62728; stroke-width: 1.5; stroke-linecap: square"/>
   </g>
   <g id="line2d_16">
    <path d="M 73.832727 58.018172 
L 73.837964 58.018172 
L 73.869382 57.321219 
L 73.890328 60.160656 
L 73.911274 60.160656 
L 74.026476 62.741962 
L 74.031712 62.741962 
L 74.042185 65.839529 
L 74.146914 64.032615 
L 74.152151 64.032615 
L 74.272589 63.258223 
L 74.288298 63.258223 
L 74.351136 62.741962 
L 74.372081 65.839529 
L 74.393027 65.839529 
L 74.508229 64.677941 
L 74.612958 64.677941 
L 74.649613 64.290745 
L 74.65485 65.839529 
L 74.707214 65.839529 
L 74.733396 65.839529 
L 74.853835 68.937096 
L 74.906199 68.937096 
L 75.026637 72.034663 
L 75.03711 72.034663 
L 75.152312 71.518402 
L 75.230859 71.518402 
L 75.304169 70.74401 
L 75.309406 72.292794 
L 75.335588 72.292794 
L 75.471736 72.292794 
L 75.586937 71.905598 
L 75.943016 71.905598 
L 75.963962 70.614945 
L 75.969198 72.163729 
L 76.047745 72.163729 
L 76.147237 72.163729 
L 76.241493 70.614945 
L 76.257203 72.163729 
L 76.262439 72.163729 
L 76.377641 71.647467 
L 76.382877 71.647467 
L 76.430006 71.260271 
L 76.435242 72.809055 
L 76.477134 72.809055 
L 76.597572 72.809055 
L 76.628991 74.357839 
L 76.707537 73.970643 
L 76.864631 73.970643 
L 76.88034 73.196251 
L 76.885577 74.745035 
L 76.96936 74.745035 
L 77.006015 74.745035 
L 77.068852 74.228773 
L 77.074089 75.777557 
L 77.105507 75.777557 
L 77.346384 75.777557 
L 77.461586 75.390361 
L 77.493004 75.390361 
L 77.545369 74.8741 
L 77.550605 76.422883 
L 77.60297 75.261296 
L 77.608206 75.261296 
L 77.728645 73.712512 
L 77.775773 73.712512 
L 77.781009 73.325316 
L 77.786246 74.8741 
L 77.870029 74.8741 
L 77.901447 74.8741 
L 77.974758 74.486904 
L 77.979994 76.035688 
L 77.995704 76.035688 
L 78.011413 76.035688 
L 78.126615 77.584471 
L 78.257526 77.584471 
L 78.304654 76.810079 
L 78.30989 78.358863 
L 78.367491 77.584471 
L 78.435565 77.584471 
L 78.550767 77.06821 
L 79.016811 77.06821 
L 79.03252 78.616994 
L 79.126776 77.06821 
L 79.503801 77.06821 
L 79.619002 78.616994 
L 79.781332 78.616994 
L 79.896534 78.229798 
L 80.069337 78.229798 
L 80.184539 79.778581 
L 80.294504 79.778581 
L 80.409706 81.327365 
L 80.723893 81.327365 
L 80.839095 80.552973 
L 82.383847 80.552973 
L 82.441448 82.101757 
L 82.493812 81.327365 
L 82.823709 81.327365 
L 82.938911 80.552973 
L 83.174551 80.552973 
L 83.289753 82.101757 
L 83.960018 82.101757 
L 84.07522 81.327365 
L 85.316258 81.327365 
L 85.43146 82.876149 
L 85.90274 82.876149 
L 86.017942 82.101757 
L 86.892429 82.101757 
L 87.007631 81.585496 
L 87.311345 81.585496 
L 87.426547 83.134279 
L 87.704078 83.134279 
L 87.81928 84.683063 
L 87.950191 84.683063 
L 88.065393 83.908671 
L 94.118727 83.908671 
L 94.233929 85.457455 
L 94.328185 85.457455 
L 94.443387 87.006238 
L 94.967032 87.006238 
L 95.082234 86.231846 
L 95.145071 86.231846 
L 95.265509 89.329414 
L 96.579858 89.329414 
L 96.69506 88.555022 
L 97.312961 88.555022 
L 97.428162 87.78063 
L 97.548601 87.78063 
L 97.663803 87.006238 
L 98.21363 87.006238 
L 98.328831 88.555022 
L 99.894529 88.555022 
L 100.009731 90.103805 
L 100.418174 90.103805 
L 100.533376 89.329414 
L 105.638913 89.329414 
L 105.754115 88.813152 
L 110.011347 88.813152 
L 110.126549 88.038761 
L 110.440736 88.038761 
L 110.555938 89.587544 
L 146.425607 89.587544 
L 146.540809 88.813152 
L 152.772182 88.813152 
L 152.887384 90.361936 
L 157.558296 90.361936 
L 157.673498 91.91072 
L 160.166047 91.91072 
L 160.281249 91.136328 
L 160.459288 91.136328 
L 160.57449 90.361936 
L 163.931053 90.361936 
L 164.046255 89.587544 
L 167.75366 89.587544 
L 167.868862 88.813152 
L 172.937744 88.813152 
L 173.052946 90.361936 
L 175.278436 90.361936 
L 175.393638 91.91072 
L 176.545657 91.91072 
L 176.660859 91.523524 
L 187.013316 91.523524 
L 187.128518 93.072307 
L 209.781393 93.072307 
L 209.896595 92.297915 
L 218.133527 92.297915 
L 218.248729 93.846699 
L 240.76022 93.846699 
L 240.875422 93.072307 
L 248.66202 93.072307 
L 248.777222 94.621091 
L 250.054915 94.621091 
L 250.170117 96.169875 
L 251.337845 96.169875 
L 251.453047 95.653613 
L 253.086818 95.653613 
L 253.20202 97.202397 
L 255.149979 97.202397 
L 255.265181 96.428005 
L 258.590325 96.428005 
L 258.705527 95.653613 
L 263.135562 95.653613 
L 263.250764 94.879222 
L 316.165072 94.879222 
L 316.280274 94.10483 
L 319.385488 94.10483 
L 319.50069 95.653613 
L 390.103719 95.653613 
L 390.218921 94.879222 
L 398.487273 94.879222 
L 398.487273 94.879222 
" clip-path="url(#pc6e7a3abbf)" style="fill: none; stroke: #9467bd; stroke-width: 1.5; stroke-linecap: square"/>
   </g>
   <g id="line2d_17">
    <path d="M 73.832727 56.469388 
L 73.837964 56.469388 
L 73.989821 68.859657 
L 74.031712 68.859657 
L 74.157387 73.506008 
L 74.471574 73.506008 
L 74.592012 76.603575 
L 74.895726 76.603575 
L 75.010928 78.152359 
L 82.268645 78.152359 
L 82.383847 79.701142 
L 83.033167 79.701142 
L 83.148368 81.249926 
L 90.887839 81.249926 
L 91.003041 82.798709 
L 96.365163 82.798709 
L 96.480365 84.347493 
L 157.558296 84.347493 
L 157.673498 85.896277 
L 176.545657 85.896277 
L 176.660859 87.44506 
L 181.860651 87.44506 
L 181.975853 88.993844 
L 398.487273 88.993844 
L 398.487273 88.993844 
" clip-path="url(#pc6e7a3abbf)" style="fill: none; stroke: #8c564b; stroke-width: 1.5; stroke-linecap: square"/>
   </g>
   <g id="line2d_18">
    <path d="M 73.832727 58.018172 
L 73.947929 67.904574 
L 73.974111 67.130182 
L 73.979348 67.130182 
L 74.031712 70.227749 
L 74.09455 69.530796 
L 74.115495 69.530796 
L 74.16786 68.369209 
L 74.173096 69.917992 
L 74.199279 69.917992 
L 74.31448 73.660886 
L 74.319717 73.27369 
L 74.377318 73.27369 
L 74.487283 72.112102 
L 74.612958 76.758453 
L 74.665323 76.371257 
L 74.670559 77.920041 
L 74.707214 77.920041 
L 74.733396 77.920041 
L 74.822416 80.630412 
L 74.848598 80.243216 
L 74.864308 80.243216 
L 74.979509 82.437327 
L 75.03711 82.437327 
L 75.12613 81.146673 
L 75.131366 82.695457 
L 75.141839 82.695457 
L 75.157549 82.695457 
L 75.230859 82.308261 
L 75.236095 83.857045 
L 75.251805 83.857045 
L 75.277987 83.857045 
L 75.393189 83.469849 
L 75.471736 83.469849 
L 75.586937 83.082653 
L 75.702139 84.631437 
L 75.728321 84.631437 
L 75.843523 86.18022 
L 75.943016 86.18022 
L 76.058218 85.663959 
L 76.079164 85.663959 
L 76.199602 88.761526 
L 76.262439 88.761526 
L 76.377641 88.245265 
L 76.382877 88.245265 
L 76.498079 87.858069 
L 76.628991 87.858069 
L 76.744192 87.470873 
L 76.864631 87.470873 
L 76.979833 89.019657 
L 77.006015 89.019657 
L 77.121217 88.1162 
L 77.168345 88.1162 
L 77.283547 89.664983 
L 77.346384 89.664983 
L 77.461586 89.277787 
L 77.493004 89.277787 
L 77.561078 88.245265 
L 77.566315 89.794049 
L 77.597733 89.406853 
L 77.608206 89.406853 
L 77.613443 90.955636 
L 77.718172 90.56844 
L 77.775773 90.56844 
L 77.896211 89.664983 
L 77.901447 89.664983 
L 78.021886 88.245265 
L 78.137088 89.794049 
L 78.304654 89.794049 
L 78.320363 89.277787 
L 78.3256 90.826571 
L 78.404146 90.826571 
L 78.435565 90.826571 
L 78.550767 90.31031 
L 78.582186 90.31031 
L 78.697388 89.923114 
L 78.786407 89.923114 
L 78.901609 91.471898 
L 78.906845 91.471898 
L 78.917318 93.020681 
L 79.016811 92.633485 
L 79.132013 91.730028 
L 79.503801 91.730028 
L 79.598057 91.213767 
L 79.603293 92.762551 
L 79.770859 92.762551 
L 79.781332 94.311334 
L 79.880825 93.924138 
L 80.069337 93.924138 
L 80.184539 93.407877 
L 80.294504 93.407877 
L 80.409706 92.891616 
L 80.55109 92.891616 
L 80.666292 94.440399 
L 80.886223 94.440399 
L 81.001425 94.053204 
L 81.881148 94.053204 
L 81.99635 95.601987 
L 82.053951 95.601987 
L 82.169153 95.214791 
L 83.033167 95.214791 
L 83.148368 94.827595 
L 83.174551 94.827595 
L 83.294989 97.925163 
L 84.049038 97.925163 
L 84.164239 97.537967 
L 85.091091 97.537967 
L 85.206293 99.08675 
L 85.316258 99.08675 
L 85.43146 98.570489 
L 86.892429 98.570489 
L 87.007631 98.054228 
L 87.049522 98.054228 
L 87.164724 99.603012 
L 87.311345 99.603012 
L 87.426547 99.08675 
L 87.704078 99.08675 
L 87.81928 98.570489 
L 90.887839 98.570489 
L 91.003041 98.054228 
L 91.369592 98.054228 
L 91.484794 99.603012 
L 92.322625 99.603012 
L 92.437827 99.215816 
L 92.940526 99.215816 
L 93.055728 100.764599 
L 94.118727 100.764599 
L 94.233929 102.313383 
L 94.328185 102.313383 
L 94.443387 101.797122 
L 95.145071 101.797122 
L 95.223618 100.764599 
L 95.228854 102.313383 
L 95.2498 102.313383 
L 95.794391 102.313383 
L 95.909592 101.926187 
L 95.935775 101.926187 
L 96.050977 101.538991 
L 96.365163 101.538991 
L 96.480365 101.229234 
L 96.789316 101.229234 
L 96.904518 102.778018 
L 98.21363 102.778018 
L 98.328831 104.326802 
L 99.334229 104.326802 
L 99.449431 105.875585 
L 99.894529 105.875585 
L 100.009731 105.359324 
L 105.638913 105.359324 
L 105.754115 104.843063 
L 110.440736 104.843063 
L 110.555938 104.326802 
L 117.782236 104.326802 
L 117.897438 103.939606 
L 117.955039 103.939606 
L 118.070241 103.55241 
L 119.494555 103.55241 
L 119.609757 105.101193 
L 151.410706 105.101193 
L 151.525908 106.649977 
L 152.772182 106.649977 
L 152.887384 106.262781 
L 157.21269 106.262781 
L 157.327892 107.811565 
L 157.558296 107.811565 
L 157.673498 107.501808 
L 157.710153 107.501808 
L 157.825355 109.050592 
L 161.302356 109.050592 
L 161.417558 108.663396 
L 164.161457 108.663396 
L 164.276659 110.212179 
L 172.937744 110.212179 
L 173.052946 109.695918 
L 175.278436 109.695918 
L 175.393638 111.244702 
L 176.545657 111.244702 
L 176.660859 110.857506 
L 186.411125 110.857506 
L 186.526327 112.406289 
L 187.013316 112.406289 
L 187.128518 111.890028 
L 208.755049 111.890028 
L 208.870251 113.438812 
L 218.133527 113.438812 
L 218.248729 112.922551 
L 222.427415 112.922551 
L 222.542617 114.471334 
L 223.574197 114.471334 
L 223.689399 114.084138 
L 242.414937 114.084138 
L 242.530139 115.632922 
L 243.629793 115.632922 
L 243.744995 115.245726 
L 248.66202 115.245726 
L 248.777222 114.729465 
L 251.337845 114.729465 
L 251.453047 114.213204 
L 253.086818 114.213204 
L 253.20202 113.696942 
L 299.544586 113.696942 
L 299.659788 115.245726 
L 319.385488 115.245726 
L 319.50069 114.729465 
L 398.487273 114.729465 
L 398.487273 114.729465 
" clip-path="url(#pc6e7a3abbf)" style="fill: none; stroke: #e377c2; stroke-width: 1.5; stroke-linecap: square"/>
   </g>
   <g id="line2d_19">
    <path d="M 73.832727 56.159631 
L 73.837964 55.64337 
L 73.885092 61.322243 
L 73.890328 60.935047 
L 73.979348 65.194202 
L 74.010767 64.41981 
L 74.016003 64.41981 
L 74.031712 62.871027 
L 74.089313 65.968594 
L 74.115495 65.968594 
L 74.16786 69.066161 
L 74.230697 67.517378 
L 74.262116 67.517378 
L 74.31448 65.968594 
L 74.372081 67.517378 
L 74.377318 67.517378 
L 74.487283 72.163729 
L 74.497756 70.614945 
L 74.508229 70.614945 
L 74.576303 68.5499 
L 74.623431 70.098684 
L 74.665323 70.098684 
L 74.754342 68.162704 
L 74.775288 69.711488 
L 74.785761 69.711488 
L 74.822416 67.775508 
L 74.87478 70.356814 
L 74.885253 70.356814 
L 74.895726 70.356814 
L 74.906199 71.905598 
L 75.005692 71.389337 
L 75.03711 71.389337 
L 75.162785 76.035688 
L 75.277987 76.035688 
L 75.393189 77.584471 
L 75.586937 77.584471 
L 75.702139 76.810079 
L 75.728321 76.810079 
L 75.843523 75.261296 
L 75.943016 75.261296 
L 76.058218 76.810079 
L 76.079164 76.810079 
L 76.194365 75.261296 
L 76.262439 75.261296 
L 76.377641 76.810079 
L 76.922232 76.810079 
L 77.006015 76.422883 
L 77.011251 77.971667 
L 77.126453 79.520451 
L 77.168345 79.520451 
L 77.283547 77.971667 
L 77.493004 77.971667 
L 77.608206 79.520451 
L 77.613443 79.520451 
L 77.728645 81.069234 
L 78.021886 81.069234 
L 78.137088 79.520451 
L 78.320363 79.520451 
L 78.435565 77.971667 
L 78.550767 79.520451 
L 78.582186 79.520451 
L 78.697388 81.069234 
L 78.786407 81.069234 
L 78.901609 79.520451 
L 78.906845 79.520451 
L 78.917318 79.00419 
L 78.922555 80.552973 
L 79.006338 80.552973 
L 79.100594 80.552973 
L 79.215796 82.101757 
L 79.598057 82.101757 
L 79.713258 81.585496 
L 79.770859 81.585496 
L 79.886061 81.069234 
L 80.55109 81.069234 
L 80.666292 79.520451 
L 80.886223 79.520451 
L 81.001425 81.069234 
L 81.881148 81.069234 
L 81.99635 80.552973 
L 82.053951 80.552973 
L 82.169153 82.101757 
L 82.268645 82.101757 
L 82.383847 83.65054 
L 83.033167 83.65054 
L 83.148368 85.199324 
L 83.174551 85.199324 
L 83.305462 83.134279 
L 84.049038 83.134279 
L 84.164239 84.683063 
L 86.892429 84.683063 
L 87.007631 86.231846 
L 87.049522 86.231846 
L 87.164724 85.715585 
L 90.887839 85.715585 
L 91.003041 87.264369 
L 91.369592 87.264369 
L 91.484794 86.748108 
L 92.322625 86.748108 
L 92.437827 88.296891 
L 92.940526 88.296891 
L 93.055728 87.78063 
L 94.118727 87.78063 
L 94.233929 87.264369 
L 95.223618 87.264369 
L 95.33882 85.715585 
L 95.794391 85.715585 
L 95.909592 87.264369 
L 95.935775 87.264369 
L 96.050977 88.813152 
L 96.365163 88.813152 
L 96.480365 90.361936 
L 96.789316 90.361936 
L 96.904518 88.813152 
L 98.21363 88.813152 
L 98.328831 88.296891 
L 99.334229 88.296891 
L 99.449431 87.909695 
L 105.638913 87.909695 
L 105.754115 89.458479 
L 117.782236 89.458479 
L 117.897438 91.007262 
L 117.955039 91.007262 
L 118.070241 92.556046 
L 119.494555 92.556046 
L 119.609757 91.007262 
L 151.410706 91.007262 
L 151.525908 89.458479 
L 152.772182 89.458479 
L 152.887384 91.007262 
L 157.21269 91.007262 
L 157.327892 89.458479 
L 157.558296 89.458479 
L 157.673498 91.007262 
L 157.710153 91.007262 
L 157.825355 90.491001 
L 161.302356 90.491001 
L 161.417558 92.039785 
L 175.278436 92.039785 
L 175.393638 91.523524 
L 176.545657 91.523524 
L 176.660859 93.072307 
L 181.860651 93.072307 
L 181.975853 94.621091 
L 186.411125 94.621091 
L 186.526327 93.072307 
L 208.755049 93.072307 
L 208.870251 92.685111 
L 222.427415 92.685111 
L 222.542617 92.16885 
L 223.574197 92.16885 
L 223.689399 93.717634 
L 243.629793 93.717634 
L 243.744995 95.266417 
L 251.337845 95.266417 
L 251.453047 96.815201 
L 299.544586 96.815201 
L 299.659788 96.29894 
L 398.487273 96.29894 
L 398.487273 96.29894 
" clip-path="url(#pc6e7a3abbf)" style="fill: none; stroke: #7f7f7f; stroke-width: 1.5; stroke-linecap: square"/>
   </g>
   <g id="line2d_20">
    <path d="M 73.832727 58.018172 
L 73.947929 67.646443 
L 73.968875 67.259247 
L 73.979348 66.872051 
L 74.016003 69.969618 
L 74.036949 69.659862 
L 74.084077 72.757429 
L 74.152151 71.983037 
L 74.277825 70.821449 
L 74.288298 70.821449 
L 74.408737 69.530796 
L 74.450628 69.530796 
L 74.508229 68.756405 
L 74.513466 70.305188 
L 74.550121 70.305188 
L 74.612958 70.305188 
L 74.72816 69.917992 
L 74.733396 69.917992 
L 74.754342 71.466776 
L 74.843362 70.692384 
L 74.864308 70.692384 
L 74.979509 72.886494 
L 75.03711 72.886494 
L 75.162785 71.208645 
L 75.230859 71.208645 
L 75.277987 72.757429 
L 75.340824 72.370233 
L 75.471736 72.370233 
L 75.586937 71.983037 
L 75.702139 73.531821 
L 75.943016 73.531821 
L 76.058218 73.01556 
L 76.147237 73.01556 
L 76.262439 74.564343 
L 76.377641 74.048082 
L 76.382877 74.048082 
L 76.498079 73.660886 
L 76.628991 73.660886 
L 76.744192 73.27369 
L 76.864631 73.27369 
L 76.979833 74.822474 
L 77.006015 74.822474 
L 77.121217 73.919017 
L 77.346384 73.919017 
L 77.461586 73.531821 
L 77.493004 73.531821 
L 77.561078 72.499298 
L 77.566315 74.048082 
L 77.597733 73.660886 
L 77.608206 73.660886 
L 77.613443 75.20967 
L 77.718172 74.822474 
L 77.775773 74.822474 
L 77.896211 73.919017 
L 77.901447 73.919017 
L 78.027122 72.499298 
L 78.304654 72.499298 
L 78.419856 71.983037 
L 78.435565 71.983037 
L 78.550767 71.466776 
L 78.582186 71.466776 
L 78.697388 71.07958 
L 78.906845 71.07958 
L 78.917318 72.628364 
L 79.016811 72.241168 
L 79.132013 71.337711 
L 79.503801 71.337711 
L 79.598057 70.821449 
L 79.603293 72.370233 
L 79.770859 72.370233 
L 79.781332 73.919017 
L 79.880825 73.531821 
L 80.069337 73.531821 
L 80.184539 73.01556 
L 80.294504 73.01556 
L 80.409706 72.499298 
L 80.886223 72.499298 
L 81.001425 72.112102 
L 81.881148 72.112102 
L 81.99635 73.660886 
L 82.053951 73.660886 
L 82.169153 73.27369 
L 82.383847 73.27369 
L 82.499049 72.499298 
L 83.033167 72.499298 
L 83.148368 72.112102 
L 83.174551 72.112102 
L 83.289753 73.660886 
L 84.049038 73.660886 
L 84.164239 73.27369 
L 85.091091 73.27369 
L 85.206293 74.822474 
L 85.316258 74.822474 
L 85.43146 74.306213 
L 86.892429 74.306213 
L 87.007631 73.789951 
L 87.049522 73.789951 
L 87.164724 75.338735 
L 87.311345 75.338735 
L 87.426547 74.822474 
L 87.704078 74.822474 
L 87.81928 74.306213 
L 90.887839 74.306213 
L 91.003041 73.789951 
L 91.369592 73.789951 
L 91.484794 75.338735 
L 92.322625 75.338735 
L 92.437827 74.951539 
L 92.940526 74.951539 
L 93.055728 76.500323 
L 94.118727 76.500323 
L 94.233929 78.049106 
L 94.328185 78.049106 
L 94.443387 77.532845 
L 95.145071 77.532845 
L 95.265509 76.500323 
L 95.794391 76.500323 
L 95.909592 76.113127 
L 95.935775 76.113127 
L 96.050977 75.725931 
L 96.365163 75.725931 
L 96.480365 75.416174 
L 98.21363 75.416174 
L 98.328831 76.964958 
L 99.334229 76.964958 
L 99.449431 78.513741 
L 99.894529 78.513741 
L 100.009731 77.99748 
L 105.638913 77.99748 
L 105.754115 77.481219 
L 110.440736 77.481219 
L 110.555938 76.964958 
L 117.782236 76.964958 
L 117.897438 76.577762 
L 117.955039 76.577762 
L 118.070241 76.190566 
L 152.772182 76.190566 
L 152.887384 75.80337 
L 157.558296 75.80337 
L 157.673498 75.493613 
L 157.710153 75.493613 
L 157.825355 77.042397 
L 161.302356 77.042397 
L 161.417558 76.655201 
L 164.161457 76.655201 
L 164.276659 78.203985 
L 172.937744 78.203985 
L 173.052946 77.687723 
L 175.278436 77.687723 
L 175.393638 79.236507 
L 176.545657 79.236507 
L 176.660859 78.849311 
L 187.013316 78.849311 
L 187.128518 78.33305 
L 208.755049 78.33305 
L 208.870251 79.881834 
L 218.133527 79.881834 
L 218.248729 79.365572 
L 222.427415 79.365572 
L 222.542617 80.914356 
L 223.574197 80.914356 
L 223.689399 80.52716 
L 242.414937 80.52716 
L 242.530139 82.075944 
L 243.629793 82.075944 
L 243.744995 81.688748 
L 248.66202 81.688748 
L 248.777222 81.172487 
L 250.054915 81.172487 
L 250.170117 80.398095 
L 251.337845 80.398095 
L 251.453047 79.881834 
L 253.086818 79.881834 
L 253.20202 79.365572 
L 299.544586 79.365572 
L 299.659788 80.914356 
L 319.385488 80.914356 
L 319.50069 80.398095 
L 398.487273 80.398095 
L 398.487273 80.398095 
" clip-path="url(#pc6e7a3abbf)" style="fill: none; stroke: #bcbd22; stroke-width: 1.5; stroke-linecap: square"/>
   </g>
   <g id="line2d_21">
    <path d="M 73.832727 56.159631 
L 73.953166 63.258223 
L 73.963638 62.871027 
L 73.968875 62.871027 
L 74.09455 67.982013 
L 74.115495 67.982013 
L 74.152151 67.594817 
L 74.16786 70.692384 
L 74.188806 70.692384 
L 74.209752 70.692384 
L 74.288298 70.305188 
L 74.293535 71.853972 
L 74.304008 71.853972 
L 74.31448 71.853972 
L 74.393027 69.530796 
L 74.434919 71.07958 
L 74.450628 71.07958 
L 74.471574 70.692384 
L 74.513466 73.789951 
L 74.523938 73.789951 
L 74.576303 73.789951 
L 74.649613 76.887519 
L 74.691505 76.113127 
L 74.733396 76.113127 
L 74.864308 74.564343 
L 74.869544 76.113127 
L 74.927145 74.435278 
L 74.974273 74.435278 
L 75.03711 74.435278 
L 75.099948 75.984061 
L 75.147076 75.20967 
L 75.157549 75.20967 
L 75.230859 74.822474 
L 75.236095 76.371257 
L 75.251805 76.371257 
L 75.277987 76.371257 
L 75.403662 75.20967 
L 75.471736 75.20967 
L 75.586937 76.758453 
L 75.943016 76.758453 
L 75.963962 79.85602 
L 76.058218 79.081629 
L 76.147237 79.081629 
L 76.267676 82.953588 
L 76.382877 82.953588 
L 76.430006 84.502371 
L 76.492843 83.72798 
L 76.597572 83.72798 
L 76.628991 82.953588 
L 76.634227 84.502371 
L 76.702301 84.502371 
L 76.864631 84.502371 
L 76.88034 86.051155 
L 76.974596 84.889567 
L 77.006015 84.889567 
L 77.011251 86.438351 
L 77.11598 85.276763 
L 77.346384 85.276763 
L 77.461586 86.825547 
L 77.493004 86.825547 
L 77.613443 92.50442 
L 77.618679 92.117224 
L 77.671044 92.117224 
L 77.781009 95.214791 
L 77.786246 94.69853 
L 77.901447 94.69853 
L 77.974758 96.247314 
L 78.011413 95.731052 
L 78.126615 95.214791 
L 78.257526 95.214791 
L 78.372728 97.796097 
L 78.435565 97.796097 
L 78.550767 99.344881 
L 78.582186 99.344881 
L 78.697388 98.957685 
L 78.906845 98.957685 
L 78.917318 100.506469 
L 79.016811 100.119273 
L 79.03252 99.603012 
L 79.079648 102.700579 
L 79.100594 102.700579 
L 79.215796 102.313383 
L 79.503801 102.313383 
L 79.598057 101.797122 
L 79.603293 103.345905 
L 79.770859 103.345905 
L 79.891298 106.443472 
L 80.069337 106.443472 
L 80.184539 105.927211 
L 80.294504 105.927211 
L 80.409706 105.41095 
L 80.723893 105.41095 
L 80.839095 106.959734 
L 80.886223 106.959734 
L 81.001425 106.572538 
L 81.881148 106.572538 
L 81.99635 108.121321 
L 82.053951 108.121321 
L 82.169153 107.734125 
L 82.268645 107.734125 
L 82.383847 109.282909 
L 82.441448 108.508517 
L 82.446684 110.057301 
L 82.488576 110.057301 
L 82.823709 110.057301 
L 82.938911 111.606085 
L 83.174551 111.606085 
L 83.289753 111.089823 
L 83.960018 111.089823 
L 84.049038 112.638607 
L 84.069983 112.251411 
L 85.091091 112.251411 
L 85.206293 113.800195 
L 85.316258 113.800195 
L 85.43146 113.283933 
L 85.90274 113.283933 
L 86.017942 114.832717 
L 86.892429 114.832717 
L 87.007631 116.381501 
L 87.049522 116.381501 
L 87.164724 117.930284 
L 87.311345 117.930284 
L 87.426547 117.414023 
L 87.704078 117.414023 
L 87.81928 116.897762 
L 87.950191 116.897762 
L 88.065393 118.446545 
L 91.369592 118.446545 
L 91.484794 119.995329 
L 92.322625 119.995329 
L 92.437827 119.608133 
L 92.940526 119.608133 
L 93.055728 121.156917 
L 94.118727 121.156917 
L 94.233929 120.640656 
L 94.328185 120.640656 
L 94.443387 120.124394 
L 94.967032 120.124394 
L 95.082234 121.673178 
L 95.145071 121.673178 
L 95.265509 120.640656 
L 95.794391 120.640656 
L 95.909592 120.25346 
L 95.935775 120.25346 
L 96.050977 119.866264 
L 96.365163 119.866264 
L 96.480365 119.556507 
L 96.579858 119.556507 
L 96.69506 121.105291 
L 97.312961 121.105291 
L 97.428162 122.654074 
L 97.548601 122.654074 
L 97.663803 124.202858 
L 98.21363 124.202858 
L 98.328831 125.751641 
L 99.334229 125.751641 
L 99.449431 127.300425 
L 99.894529 127.300425 
L 100.009731 126.784164 
L 100.418174 126.784164 
L 100.533376 128.332948 
L 105.638913 128.332948 
L 105.754115 129.881731 
L 110.011347 129.881731 
L 110.126549 131.430515 
L 110.440736 131.430515 
L 110.555938 130.914254 
L 117.782236 130.914254 
L 117.897438 130.527058 
L 117.955039 130.527058 
L 118.070241 130.139862 
L 146.425607 130.139862 
L 146.540809 131.688645 
L 152.772182 131.688645 
L 152.887384 131.301449 
L 157.558296 131.301449 
L 157.673498 130.991693 
L 157.710153 130.991693 
L 157.825355 132.540476 
L 160.166047 132.540476 
L 160.281249 134.08926 
L 160.459288 134.08926 
L 160.57449 135.638044 
L 161.302356 135.638044 
L 161.417558 135.250848 
L 163.931053 135.250848 
L 164.046255 136.799631 
L 164.161457 136.799631 
L 164.276659 138.348415 
L 167.75366 138.348415 
L 167.868862 139.897198 
L 172.937744 139.897198 
L 173.052946 139.380937 
L 176.545657 139.380937 
L 176.660859 140.929721 
L 181.860651 140.929721 
L 181.975853 142.478504 
L 187.013316 142.478504 
L 187.128518 141.962243 
L 208.755049 141.962243 
L 208.870251 143.511027 
L 209.781393 143.511027 
L 209.896595 145.05981 
L 218.133527 145.05981 
L 218.248729 144.543549 
L 222.427415 144.543549 
L 222.542617 146.092333 
L 223.574197 146.092333 
L 223.689399 145.705137 
L 240.76022 145.705137 
L 240.875422 147.253921 
L 242.414937 147.253921 
L 242.530139 148.802704 
L 243.629793 148.802704 
L 243.744995 148.415508 
L 248.66202 148.415508 
L 248.777222 147.899247 
L 250.054915 147.899247 
L 250.170117 147.124855 
L 251.337845 147.124855 
L 251.453047 148.673639 
L 253.086818 148.673639 
L 253.20202 148.157378 
L 255.149979 148.157378 
L 255.265181 149.706161 
L 258.590325 149.706161 
L 258.705527 151.254945 
L 263.135562 151.254945 
L 263.250764 152.803729 
L 299.544586 152.803729 
L 299.659788 154.352512 
L 316.165072 154.352512 
L 316.280274 155.901296 
L 319.385488 155.901296 
L 319.50069 155.385035 
L 390.103719 155.385035 
L 390.218921 156.933818 
L 398.487273 156.933818 
L 398.487273 156.933818 
" clip-path="url(#pc6e7a3abbf)" style="fill: none; stroke: #17becf; stroke-width: 1.5; stroke-linecap: square"/>
   </g>
   <g id="line2d_22">
    <path d="M 73.832727 56.469388 
L 73.837964 56.469388 
L 74.000294 53.191129 
L 74.031712 53.191129 
L 74.157387 52.106981 
L 74.471574 52.106981 
L 74.597249 50.945393 
L 74.895726 50.945393 
L 75.010928 50.429132 
L 82.268645 50.429132 
L 82.383847 49.65474 
L 83.033167 49.65474 
L 83.148368 49.267544 
L 90.887839 49.267544 
L 91.003041 48.751283 
L 96.365163 48.751283 
L 96.480365 48.441526 
L 157.558296 48.441526 
L 157.673498 48.13177 
L 176.545657 48.13177 
L 176.660859 47.744574 
L 181.860651 47.744574 
L 181.975853 46.970182 
L 398.487273 46.970182 
L 398.487273 46.970182 
" clip-path="url(#pc6e7a3abbf)" style="fill: none; stroke: #1f77b4; stroke-width: 1.5; stroke-linecap: square"/>
   </g>
   <g id="line2d_23">
    <path d="M 73.832727 56.469388 
L 73.837964 55.953127 
L 73.879855 58.663498 
L 73.926983 57.760041 
L 73.953166 57.760041 
L 74.07884 62.406392 
L 74.084077 62.406392 
L 74.162624 61.632 
L 74.16786 63.180784 
L 74.183569 63.180784 
L 74.194042 63.180784 
L 74.309244 65.891155 
L 74.31448 65.891155 
L 74.393027 63.56798 
L 74.434919 65.116763 
L 74.450628 65.116763 
L 74.56583 64.729567 
L 74.576303 64.729567 
L 74.612958 63.955175 
L 74.618194 65.503959 
L 74.686268 64.729567 
L 74.733396 64.729567 
L 74.785761 64.342371 
L 74.796234 67.439939 
L 74.806707 67.439939 
L 74.848598 67.439939 
L 74.869544 68.988722 
L 74.958564 67.827134 
L 75.094711 67.827134 
L 75.099948 69.375918 
L 75.204677 68.21433 
L 75.277987 68.21433 
L 75.403662 67.052743 
L 75.471736 67.052743 
L 75.586937 68.601526 
L 75.702139 67.827134 
L 75.948252 67.827134 
L 75.963962 69.375918 
L 76.058218 68.601526 
L 76.17342 68.601526 
L 76.241493 70.15031 
L 76.283385 69.375918 
L 76.382877 69.375918 
L 76.430006 70.924702 
L 76.492843 70.15031 
L 76.597572 70.15031 
L 76.628991 69.375918 
L 76.634227 70.924702 
L 76.702301 70.924702 
L 76.88034 70.924702 
L 76.922232 70.15031 
L 76.927468 71.699093 
L 76.985069 71.699093 
L 77.011251 71.699093 
L 77.136926 70.537506 
L 77.346384 70.537506 
L 77.461586 72.086289 
L 77.566315 72.086289 
L 77.681517 74.796661 
L 77.775773 74.796661 
L 77.890975 76.345444 
L 77.901447 76.345444 
L 78.016649 77.894228 
L 78.257526 77.894228 
L 78.377964 80.991795 
L 78.582186 80.991795 
L 78.697388 80.604599 
L 78.917318 80.604599 
L 79.03252 80.217403 
L 79.100594 83.314971 
L 79.147722 82.927775 
L 79.781332 82.927775 
L 79.896534 84.476558 
L 80.723893 84.476558 
L 80.839095 86.025342 
L 80.886223 86.025342 
L 81.001425 85.638146 
L 82.053951 85.638146 
L 82.169153 85.25095 
L 82.268645 85.25095 
L 82.383847 84.476558 
L 82.441448 84.476558 
L 82.55665 86.025342 
L 82.823709 86.025342 
L 82.938911 87.574125 
L 83.033167 87.574125 
L 83.148368 87.18693 
L 83.960018 87.18693 
L 84.049038 88.735713 
L 84.069983 88.348517 
L 85.091091 88.348517 
L 85.206293 87.574125 
L 85.90274 87.574125 
L 86.017942 89.122909 
L 87.950191 89.122909 
L 88.065393 90.671693 
L 92.322625 90.671693 
L 92.437827 90.284497 
L 92.940526 90.284497 
L 93.055728 91.83328 
L 94.967032 91.83328 
L 95.082234 93.382064 
L 95.794391 93.382064 
L 95.909592 92.994868 
L 95.935775 92.994868 
L 96.050977 92.607672 
L 96.365163 92.607672 
L 96.480365 92.297915 
L 96.579858 92.297915 
L 96.69506 93.846699 
L 97.312961 93.846699 
L 97.428162 95.395483 
L 97.548601 95.395483 
L 97.663803 96.944266 
L 98.21363 96.944266 
L 98.328831 96.428005 
L 99.334229 96.428005 
L 99.449431 96.040809 
L 100.418174 96.040809 
L 100.533376 97.589593 
L 110.011347 97.589593 
L 110.126549 99.138376 
L 117.782236 99.138376 
L 117.897438 98.751181 
L 117.955039 98.751181 
L 118.070241 98.363985 
L 146.425607 98.363985 
L 146.540809 99.912768 
L 152.772182 99.912768 
L 152.887384 99.525572 
L 157.558296 99.525572 
L 157.673498 99.215816 
L 160.166047 99.215816 
L 160.281249 100.764599 
L 160.459288 100.764599 
L 160.57449 102.313383 
L 161.302356 102.313383 
L 161.417558 101.926187 
L 163.931053 101.926187 
L 164.046255 103.474971 
L 164.161457 103.474971 
L 164.276659 102.700579 
L 167.75366 102.700579 
L 167.868862 104.249362 
L 175.278436 104.249362 
L 175.393638 103.733101 
L 181.860651 103.733101 
L 181.975853 102.958709 
L 208.755049 102.958709 
L 208.870251 102.571513 
L 209.781393 102.571513 
L 209.896595 104.120297 
L 223.574197 104.120297 
L 223.689399 103.733101 
L 240.76022 103.733101 
L 240.875422 105.281885 
L 242.414937 105.281885 
L 242.530139 104.507493 
L 243.629793 104.507493 
L 243.744995 104.120297 
L 255.149979 104.120297 
L 255.265181 105.669081 
L 258.590325 105.669081 
L 258.705527 107.217864 
L 263.135562 107.217864 
L 263.250764 108.766648 
L 299.544586 108.766648 
L 299.659788 110.315431 
L 316.165072 110.315431 
L 316.280274 111.864215 
L 390.103719 111.864215 
L 390.218921 113.412999 
L 398.487273 113.412999 
L 398.487273 113.412999 
" clip-path="url(#pc6e7a3abbf)" style="fill: none; stroke: #ff7f0e; stroke-width: 1.5; stroke-linecap: square"/>
   </g>
   <g id="patch_3">
    <path d="M 57.6 162.432 
L 57.6 41.472 
" style="fill: none; stroke: #000000; stroke-width: 0.8; stroke-linejoin: miter; stroke-linecap: square"/>
   </g>
   <g id="patch_4">
    <path d="M 414.72 162.432 
L 414.72 41.472 
" style="fill: none; stroke: #000000; stroke-width: 0.8; stroke-linejoin: miter; stroke-linecap: square"/>
   </g>
   <g id="patch_5">
    <path d="M 57.6 162.432 
L 414.72 162.432 
" style="fill: none; stroke: #000000; stroke-width: 0.8; stroke-linejoin: miter; stroke-linecap: square"/>
   </g>
   <g id="patch_6">
    <path d="M 57.6 41.472 
L 414.72 41.472 
" style="fill: none; stroke: #000000; stroke-width: 0.8; stroke-linejoin: miter; stroke-linecap: square"/>
   </g>
   <g id="text_12">
    <!-- WSP -->
    <g transform="translate(361.832136 63.387288)scale(0.08 -0.08)">
     <defs>
      <path id="DejaVuSans-57" d="M 213 4666 
L 850 4666 
L 1831 722 
L 2809 4666 
L 3519 4666 
L 4500 722 
L 5478 4666 
L 6119 4666 
L 4947 0 
L 4153 0 
L 3169 4050 
L 2175 0 
L 1381 0 
L 213 4666 
z
" transform="scale(0.015625)"/>
      <path id="DejaVuSans-53" d="M 3425 4513 
L 3425 3897 
Q 3066 4069 2747 4153 
Q 2428 4238 2131 4238 
Q 1616 4238 1336 4038 
Q 1056 3838 1056 3469 
Q 1056 3159 1242 3001 
Q 1428 2844 1947 2747 
L 2328 2669 
Q 3034 2534 3370 2195 
Q 3706 1856 3706 1288 
Q 3706 609 3251 259 
Q 2797 -91 1919 -91 
Q 1588 -91 1214 -16 
Q 841 59 441 206 
L 441 856 
Q 825 641 1194 531 
Q 1563 422 1919 422 
Q 2459 422 2753 634 
Q 3047 847 3047 1241 
Q 3047 1584 2836 1778 
Q 2625 1972 2144 2069 
L 1759 2144 
Q 1053 2284 737 2584 
Q 422 2884 422 3419 
Q 422 4038 858 4394 
Q 1294 4750 2059 4750 
Q 2388 4750 2728 4690 
Q 3069 4631 3425 4513 
z
" transform="scale(0.015625)"/>
      <path id="DejaVuSans-50" d="M 1259 4147 
L 1259 2394 
L 2053 2394 
Q 2494 2394 2734 2622 
Q 2975 2850 2975 3272 
Q 2975 3691 2734 3919 
Q 2494 4147 2053 4147 
L 1259 4147 
z
M 628 4666 
L 2053 4666 
Q 2838 4666 3239 4311 
Q 3641 3956 3641 3272 
Q 3641 2581 3239 2228 
Q 2838 1875 2053 1875 
L 1259 1875 
L 1259 0 
L 628 0 
L 628 4666 
z
" transform="scale(0.015625)"/>
     </defs>
     <use xlink:href="#DejaVuSans-57"/>
     <use xlink:href="#DejaVuSans-53" x="98.876953"/>
     <use xlink:href="#DejaVuSans-50" x="162.353516"/>
    </g>
   </g>
   <g id="text_13">
    <!-- Iambic -->
    <g transform="translate(361.832136 59.050694)scale(0.08 -0.08)">
     <defs>
      <path id="DejaVuSans-49" d="M 628 4666 
L 1259 4666 
L 1259 0 
L 628 0 
L 628 4666 
z
" transform="scale(0.015625)"/>
      <path id="DejaVuSans-61" d="M 2194 1759 
Q 1497 1759 1228 1600 
Q 959 1441 959 1056 
Q 959 750 1161 570 
Q 1363 391 1709 391 
Q 2188 391 2477 730 
Q 2766 1069 2766 1631 
L 2766 1759 
L 2194 1759 
z
M 3341 1997 
L 3341 0 
L 2766 0 
L 2766 531 
Q 2569 213 2275 61 
Q 1981 -91 1556 -91 
Q 1019 -91 701 211 
Q 384 513 384 1019 
Q 384 1609 779 1909 
Q 1175 2209 1959 2209 
L 2766 2209 
L 2766 2266 
Q 2766 2663 2505 2880 
Q 2244 3097 1772 3097 
Q 1472 3097 1187 3025 
Q 903 2953 641 2809 
L 641 3341 
Q 956 3463 1253 3523 
Q 1550 3584 1831 3584 
Q 2591 3584 2966 3190 
Q 3341 2797 3341 1997 
z
" transform="scale(0.015625)"/>
      <path id="DejaVuSans-6d" d="M 3328 2828 
Q 3544 3216 3844 3400 
Q 4144 3584 4550 3584 
Q 5097 3584 5394 3201 
Q 5691 2819 5691 2113 
L 5691 0 
L 5113 0 
L 5113 2094 
Q 5113 2597 4934 2840 
Q 4756 3084 4391 3084 
Q 3944 3084 3684 2787 
Q 3425 2491 3425 1978 
L 3425 0 
L 2847 0 
L 2847 2094 
Q 2847 2600 2669 2842 
Q 2491 3084 2119 3084 
Q 1678 3084 1418 2786 
Q 1159 2488 1159 1978 
L 1159 0 
L 581 0 
L 581 3500 
L 1159 3500 
L 1159 2956 
Q 1356 3278 1631 3431 
Q 1906 3584 2284 3584 
Q 2666 3584 2933 3390 
Q 3200 3197 3328 2828 
z
" transform="scale(0.015625)"/>
      <path id="DejaVuSans-62" d="M 3116 1747 
Q 3116 2381 2855 2742 
Q 2594 3103 2138 3103 
Q 1681 3103 1420 2742 
Q 1159 2381 1159 1747 
Q 1159 1113 1420 752 
Q 1681 391 2138 391 
Q 2594 391 2855 752 
Q 3116 1113 3116 1747 
z
M 1159 2969 
Q 1341 3281 1617 3432 
Q 1894 3584 2278 3584 
Q 2916 3584 3314 3078 
Q 3713 2572 3713 1747 
Q 3713 922 3314 415 
Q 2916 -91 2278 -91 
Q 1894 -91 1617 61 
Q 1341 213 1159 525 
L 1159 0 
L 581 0 
L 581 4863 
L 1159 4863 
L 1159 2969 
z
" transform="scale(0.015625)"/>
      <path id="DejaVuSans-69" d="M 603 3500 
L 1178 3500 
L 1178 0 
L 603 0 
L 603 3500 
z
M 603 4863 
L 1178 4863 
L 1178 4134 
L 603 4134 
L 603 4863 
z
" transform="scale(0.015625)"/>
      <path id="DejaVuSans-63" d="M 3122 3366 
L 3122 2828 
Q 2878 2963 2633 3030 
Q 2388 3097 2138 3097 
Q 1578 3097 1268 2742 
Q 959 2388 959 1747 
Q 959 1106 1268 751 
Q 1578 397 2138 397 
Q 2388 397 2633 464 
Q 2878 531 3122 666 
L 3122 134 
Q 2881 22 2623 -34 
Q 2366 -91 2075 -91 
Q 1284 -91 818 406 
Q 353 903 353 1747 
Q 353 2603 823 3093 
Q 1294 3584 2113 3584 
Q 2378 3584 2631 3529 
Q 2884 3475 3122 3366 
z
" transform="scale(0.015625)"/>
     </defs>
     <use xlink:href="#DejaVuSans-49"/>
     <use xlink:href="#DejaVuSans-61" x="29.492188"/>
     <use xlink:href="#DejaVuSans-6d" x="90.771484"/>
     <use xlink:href="#DejaVuSans-62" x="188.183594"/>
     <use xlink:href="#DejaVuSans-69" x="251.660156"/>
     <use xlink:href="#DejaVuSans-63" x="279.443359"/>
    </g>
   </g>
   <g id="text_14">
    <!-- Parse -->
    <g transform="translate(361.832136 144.569362)scale(0.08 -0.08)">
     <defs>
      <path id="DejaVuSans-72" d="M 2631 2963 
Q 2534 3019 2420 3045 
Q 2306 3072 2169 3072 
Q 1681 3072 1420 2755 
Q 1159 2438 1159 1844 
L 1159 0 
L 581 0 
L 581 3500 
L 1159 3500 
L 1159 2956 
Q 1341 3275 1631 3429 
Q 1922 3584 2338 3584 
Q 2397 3584 2469 3576 
Q 2541 3569 2628 3553 
L 2631 2963 
z
" transform="scale(0.015625)"/>
      <path id="DejaVuSans-73" d="M 2834 3397 
L 2834 2853 
Q 2591 2978 2328 3040 
Q 2066 3103 1784 3103 
Q 1356 3103 1142 2972 
Q 928 2841 928 2578 
Q 928 2378 1081 2264 
Q 1234 2150 1697 2047 
L 1894 2003 
Q 2506 1872 2764 1633 
Q 3022 1394 3022 966 
Q 3022 478 2636 193 
Q 2250 -91 1575 -91 
Q 1294 -91 989 -36 
Q 684 19 347 128 
L 347 722 
Q 666 556 975 473 
Q 1284 391 1588 391 
Q 1994 391 2212 530 
Q 2431 669 2431 922 
Q 2431 1156 2273 1281 
Q 2116 1406 1581 1522 
L 1381 1569 
Q 847 1681 609 1914 
Q 372 2147 372 2553 
Q 372 3047 722 3315 
Q 1072 3584 1716 3584 
Q 2034 3584 2315 3537 
Q 2597 3491 2834 3397 
z
" transform="scale(0.015625)"/>
      <path id="DejaVuSans-65" d="M 3597 1894 
L 3597 1613 
L 953 1613 
Q 991 1019 1311 708 
Q 1631 397 2203 397 
Q 2534 397 2845 478 
Q 3156 559 3463 722 
L 3463 178 
Q 3153 47 2828 -22 
Q 2503 -91 2169 -91 
Q 1331 -91 842 396 
Q 353 884 353 1716 
Q 353 2575 817 3079 
Q 1281 3584 2069 3584 
Q 2775 3584 3186 3129 
Q 3597 2675 3597 1894 
z
M 3022 2063 
Q 3016 2534 2758 2815 
Q 2500 3097 2075 3097 
Q 1594 3097 1305 2825 
Q 1016 2553 972 2059 
L 3022 2063 
z
" transform="scale(0.015625)"/>
     </defs>
     <use xlink:href="#DejaVuSans-50"/>
     <use xlink:href="#DejaVuSans-61" x="55.802734"/>
     <use xlink:href="#DejaVuSans-72" x="117.082031"/>
     <use xlink:href="#DejaVuSans-73" x="158.195312"/>
     <use xlink:href="#DejaVuSans-65" x="210.294922"/>
    </g>
   </g>
   <g id="text_15">
    <!-- FootBin -->
    <g transform="translate(361.832136 62.509644)scale(0.08 -0.08)">
     <defs>
      <path id="DejaVuSans-46" d="M 628 4666 
L 3309 4666 
L 3309 4134 
L 1259 4134 
L 1259 2759 
L 3109 2759 
L 3109 2228 
L 1259 2228 
L 1259 0 
L 628 0 
L 628 4666 
z
" transform="scale(0.015625)"/>
      <path id="DejaVuSans-6f" d="M 1959 3097 
Q 1497 3097 1228 2736 
Q 959 2375 959 1747 
Q 959 1119 1226 758 
Q 1494 397 1959 397 
Q 2419 397 2687 759 
Q 2956 1122 2956 1747 
Q 2956 2369 2687 2733 
Q 2419 3097 1959 3097 
z
M 1959 3584 
Q 2709 3584 3137 3096 
Q 3566 2609 3566 1747 
Q 3566 888 3137 398 
Q 2709 -91 1959 -91 
Q 1206 -91 779 398 
Q 353 888 353 1747 
Q 353 2609 779 3096 
Q 1206 3584 1959 3584 
z
" transform="scale(0.015625)"/>
      <path id="DejaVuSans-74" d="M 1172 4494 
L 1172 3500 
L 2356 3500 
L 2356 3053 
L 1172 3053 
L 1172 1153 
Q 1172 725 1289 603 
Q 1406 481 1766 481 
L 2356 481 
L 2356 0 
L 1766 0 
Q 1100 0 847 248 
Q 594 497 594 1153 
L 594 3053 
L 172 3053 
L 172 3500 
L 594 3500 
L 594 4494 
L 1172 4494 
z
" transform="scale(0.015625)"/>
      <path id="DejaVuSans-42" d="M 1259 2228 
L 1259 519 
L 2272 519 
Q 2781 519 3026 730 
Q 3272 941 3272 1375 
Q 3272 1813 3026 2020 
Q 2781 2228 2272 2228 
L 1259 2228 
z
M 1259 4147 
L 1259 2741 
L 2194 2741 
Q 2656 2741 2882 2914 
Q 3109 3088 3109 3444 
Q 3109 3797 2882 3972 
Q 2656 4147 2194 4147 
L 1259 4147 
z
M 628 4666 
L 2241 4666 
Q 2963 4666 3353 4366 
Q 3744 4066 3744 3513 
Q 3744 3084 3544 2831 
Q 3344 2578 2956 2516 
Q 3422 2416 3680 2098 
Q 3938 1781 3938 1306 
Q 3938 681 3513 340 
Q 3088 0 2303 0 
L 628 0 
L 628 4666 
z
" transform="scale(0.015625)"/>
      <path id="DejaVuSans-6e" d="M 3513 2113 
L 3513 0 
L 2938 0 
L 2938 2094 
Q 2938 2591 2744 2837 
Q 2550 3084 2163 3084 
Q 1697 3084 1428 2787 
Q 1159 2491 1159 1978 
L 1159 0 
L 581 0 
L 581 3500 
L 1159 3500 
L 1159 2956 
Q 1366 3272 1645 3428 
Q 1925 3584 2291 3584 
Q 2894 3584 3203 3211 
Q 3513 2838 3513 2113 
z
" transform="scale(0.015625)"/>
     </defs>
     <use xlink:href="#DejaVuSans-46"/>
     <use xlink:href="#DejaVuSans-6f" x="53.894531"/>
     <use xlink:href="#DejaVuSans-6f" x="115.076172"/>
     <use xlink:href="#DejaVuSans-74" x="176.257812"/>
     <use xlink:href="#DejaVuSans-42" x="215.466797"/>
     <use xlink:href="#DejaVuSans-69" x="284.070312"/>
     <use xlink:href="#DejaVuSans-6e" x="311.853516"/>
    </g>
   </g>
   <g id="text_16">
    <!-- WFL -->
    <g transform="translate(361.832136 94.879222)scale(0.08 -0.08)">
     <defs>
      <path id="DejaVuSans-4c" d="M 628 4666 
L 1259 4666 
L 1259 531 
L 3531 531 
L 3531 0 
L 628 0 
L 628 4666 
z
" transform="scale(0.015625)"/>
     </defs>
     <use xlink:href="#DejaVuSans-57"/>
     <use xlink:href="#DejaVuSans-46" x="98.876953"/>
     <use xlink:href="#DejaVuSans-4c" x="156.396484"/>
    </g>
   </g>
   <g id="text_17">
    <!-- WFR -->
    <g transform="translate(361.832136 88.993844)scale(0.08 -0.08)">
     <defs>
      <path id="DejaVuSans-52" d="M 2841 2188 
Q 3044 2119 3236 1894 
Q 3428 1669 3622 1275 
L 4263 0 
L 3584 0 
L 2988 1197 
Q 2756 1666 2539 1819 
Q 2322 1972 1947 1972 
L 1259 1972 
L 1259 0 
L 628 0 
L 628 4666 
L 2053 4666 
Q 2853 4666 3247 4331 
Q 3641 3997 3641 3322 
Q 3641 2881 3436 2590 
Q 3231 2300 2841 2188 
z
M 1259 4147 
L 1259 2491 
L 2053 2491 
Q 2509 2491 2742 2702 
Q 2975 2913 2975 3322 
Q 2975 3731 2742 3939 
Q 2509 4147 2053 4147 
L 1259 4147 
z
" transform="scale(0.015625)"/>
     </defs>
     <use xlink:href="#DejaVuSans-57"/>
     <use xlink:href="#DejaVuSans-46" x="98.876953"/>
     <use xlink:href="#DejaVuSans-52" x="156.396484"/>
    </g>
   </g>
   <g id="text_18">
    <!-- Main-L -->
    <g transform="translate(361.832136 114.729465)scale(0.08 -0.08)">
     <defs>
      <path id="DejaVuSans-4d" d="M 628 4666 
L 1569 4666 
L 2759 1491 
L 3956 4666 
L 4897 4666 
L 4897 0 
L 4281 0 
L 4281 4097 
L 3078 897 
L 2444 897 
L 1241 4097 
L 1241 0 
L 628 0 
L 628 4666 
z
" transform="scale(0.015625)"/>
      <path id="DejaVuSans-2d" d="M 313 2009 
L 1997 2009 
L 1997 1497 
L 313 1497 
L 313 2009 
z
" transform="scale(0.015625)"/>
     </defs>
     <use xlink:href="#DejaVuSans-4d"/>
     <use xlink:href="#DejaVuSans-61" x="86.279297"/>
     <use xlink:href="#DejaVuSans-69" x="147.558594"/>
     <use xlink:href="#DejaVuSans-6e" x="175.341797"/>
     <use xlink:href="#DejaVuSans-2d" x="238.720703"/>
     <use xlink:href="#DejaVuSans-4c" x="274.804688"/>
    </g>
   </g>
   <g id="text_19">
    <!-- Main-R -->
    <g transform="translate(361.832136 96.29894)scale(0.08 -0.08)">
     <use xlink:href="#DejaVuSans-4d"/>
     <use xlink:href="#DejaVuSans-61" x="86.279297"/>
     <use xlink:href="#DejaVuSans-69" x="147.558594"/>
     <use xlink:href="#DejaVuSans-6e" x="175.341797"/>
     <use xlink:href="#DejaVuSans-2d" x="238.720703"/>
     <use xlink:href="#DejaVuSans-52" x="274.804688"/>
    </g>
   </g>
   <g id="text_20">
    <!-- AFL -->
    <g transform="translate(361.832136 80.398095)scale(0.08 -0.08)">
     <defs>
      <path id="DejaVuSans-41" d="M 2188 4044 
L 1331 1722 
L 3047 1722 
L 2188 4044 
z
M 1831 4666 
L 2547 4666 
L 4325 0 
L 3669 0 
L 3244 1197 
L 1141 1197 
L 716 0 
L 50 0 
L 1831 4666 
z
" transform="scale(0.015625)"/>
     </defs>
     <use xlink:href="#DejaVuSans-41"/>
     <use xlink:href="#DejaVuSans-46" x="68.408203"/>
     <use xlink:href="#DejaVuSans-4c" x="125.927734"/>
    </g>
   </g>
   <g id="text_21">
    <!-- AFR -->
    <g transform="translate(361.832136 156.933818)scale(0.08 -0.08)">
     <use xlink:href="#DejaVuSans-41"/>
     <use xlink:href="#DejaVuSans-46" x="68.408203"/>
     <use xlink:href="#DejaVuSans-52" x="125.927734"/>
    </g>
   </g>
   <g id="text_22">
    <!-- Nonfinal -->
    <g transform="translate(361.832136 46.970182)scale(0.08 -0.08)">
     <defs>
      <path id="DejaVuSans-4e" d="M 628 4666 
L 1478 4666 
L 3547 763 
L 3547 4666 
L 4159 4666 
L 4159 0 
L 3309 0 
L 1241 3903 
L 1241 0 
L 628 0 
L 628 4666 
z
" transform="scale(0.015625)"/>
      <path id="DejaVuSans-66" d="M 2375 4863 
L 2375 4384 
L 1825 4384 
Q 1516 4384 1395 4259 
Q 1275 4134 1275 3809 
L 1275 3500 
L 2222 3500 
L 2222 3053 
L 1275 3053 
L 1275 0 
L 697 0 
L 697 3053 
L 147 3053 
L 147 3500 
L 697 3500 
L 697 3744 
Q 697 4328 969 4595 
Q 1241 4863 1831 4863 
L 2375 4863 
z
" transform="scale(0.015625)"/>
      <path id="DejaVuSans-6c" d="M 603 4863 
L 1178 4863 
L 1178 0 
L 603 0 
L 603 4863 
z
" transform="scale(0.015625)"/>
     </defs>
     <use xlink:href="#DejaVuSans-4e"/>
     <use xlink:href="#DejaVuSans-6f" x="74.804688"/>
     <use xlink:href="#DejaVuSans-6e" x="135.986328"/>
     <use xlink:href="#DejaVuSans-66" x="199.365234"/>
     <use xlink:href="#DejaVuSans-69" x="234.570312"/>
     <use xlink:href="#DejaVuSans-6e" x="262.353516"/>
     <use xlink:href="#DejaVuSans-61" x="325.732422"/>
     <use xlink:href="#DejaVuSans-6c" x="387.011719"/>
    </g>
   </g>
   <g id="text_23">
    <!-- Trochaic -->
    <g transform="translate(361.832136 113.412999)scale(0.08 -0.08)">
     <defs>
      <path id="DejaVuSans-54" d="M -19 4666 
L 3928 4666 
L 3928 4134 
L 2272 4134 
L 2272 0 
L 1638 0 
L 1638 4134 
L -19 4134 
L -19 4666 
z
" transform="scale(0.015625)"/>
      <path id="DejaVuSans-68" d="M 3513 2113 
L 3513 0 
L 2938 0 
L 2938 2094 
Q 2938 2591 2744 2837 
Q 2550 3084 2163 3084 
Q 1697 3084 1428 2787 
Q 1159 2491 1159 1978 
L 1159 0 
L 581 0 
L 581 4863 
L 1159 4863 
L 1159 2956 
Q 1366 3272 1645 3428 
Q 1925 3584 2291 3584 
Q 2894 3584 3203 3211 
Q 3513 2838 3513 2113 
z
" transform="scale(0.015625)"/>
     </defs>
     <use xlink:href="#DejaVuSans-54"/>
     <use xlink:href="#DejaVuSans-72" x="46.333984"/>
     <use xlink:href="#DejaVuSans-6f" x="85.197266"/>
     <use xlink:href="#DejaVuSans-63" x="146.378906"/>
     <use xlink:href="#DejaVuSans-68" x="201.359375"/>
     <use xlink:href="#DejaVuSans-61" x="264.738281"/>
     <use xlink:href="#DejaVuSans-69" x="326.017578"/>
     <use xlink:href="#DejaVuSans-63" x="353.800781"/>
    </g>
   </g>
  </g>
  <g id="axes_2">
   <g id="patch_7">
    <path d="M 57.6 307.584 
L 414.72 307.584 
L 414.72 186.624 
L 57.6 186.624 
z
" style="fill: #ffffff"/>
   </g>
   <g id="matplotlib.axis_3">
    <g id="xtick_8">
     <g id="line2d_24">
      <g>
       <use xlink:href="#mc698b7ae79" x="72.31565" y="307.584" style="stroke: #000000; stroke-width: 0.8"/>
      </g>
     </g>
     <g id="text_24">
      <!-- 0 -->
      <g transform="translate(69.1344 322.182437)scale(0.1 -0.1)">
       <use xlink:href="#DejaVuSans-30"/>
      </g>
     </g>
    </g>
    <g id="xtick_9">
     <g id="line2d_25">
      <g>
       <use xlink:href="#mc698b7ae79" x="148.169516" y="307.584" style="stroke: #000000; stroke-width: 0.8"/>
      </g>
     </g>
     <g id="text_25">
      <!-- 50 -->
      <g transform="translate(141.807016 322.182437)scale(0.1 -0.1)">
       <use xlink:href="#DejaVuSans-35"/>
       <use xlink:href="#DejaVuSans-30" x="63.623047"/>
      </g>
     </g>
    </g>
    <g id="xtick_10">
     <g id="line2d_26">
      <g>
       <use xlink:href="#mc698b7ae79" x="224.023381" y="307.584" style="stroke: #000000; stroke-width: 0.8"/>
      </g>
     </g>
     <g id="text_26">
      <!-- 100 -->
      <g transform="translate(214.479631 322.182437)scale(0.1 -0.1)">
       <use xlink:href="#DejaVuSans-31"/>
       <use xlink:href="#DejaVuSans-30" x="63.623047"/>
       <use xlink:href="#DejaVuSans-30" x="127.246094"/>
      </g>
     </g>
    </g>
    <g id="xtick_11">
     <g id="line2d_27">
      <g>
       <use xlink:href="#mc698b7ae79" x="299.877247" y="307.584" style="stroke: #000000; stroke-width: 0.8"/>
      </g>
     </g>
     <g id="text_27">
      <!-- 150 -->
      <g transform="translate(290.333497 322.182437)scale(0.1 -0.1)">
       <use xlink:href="#DejaVuSans-31"/>
       <use xlink:href="#DejaVuSans-35" x="63.623047"/>
       <use xlink:href="#DejaVuSans-30" x="127.246094"/>
      </g>
     </g>
    </g>
    <g id="xtick_12">
     <g id="line2d_28">
      <g>
       <use xlink:href="#mc698b7ae79" x="375.731113" y="307.584" style="stroke: #000000; stroke-width: 0.8"/>
      </g>
     </g>
     <g id="text_28">
      <!-- 200 -->
      <g transform="translate(366.187363 322.182437)scale(0.1 -0.1)">
       <use xlink:href="#DejaVuSans-32"/>
       <use xlink:href="#DejaVuSans-30" x="63.623047"/>
       <use xlink:href="#DejaVuSans-30" x="127.246094"/>
      </g>
     </g>
    </g>
   </g>
   <g id="matplotlib.axis_4">
    <g id="ytick_5">
     <g id="line2d_29">
      <g>
       <use xlink:href="#m94d411ca97" x="57.6" y="302.093961" style="stroke: #000000; stroke-width: 0.8"/>
      </g>
     </g>
     <g id="text_29">
      <!-- 0 -->
      <g transform="translate(44.2375 305.89318)scale(0.1 -0.1)">
       <use xlink:href="#DejaVuSans-30"/>
      </g>
     </g>
    </g>
    <g id="ytick_6">
     <g id="line2d_30">
      <g>
       <use xlink:href="#m94d411ca97" x="57.6" y="281.736357" style="stroke: #000000; stroke-width: 0.8"/>
      </g>
     </g>
     <g id="text_30">
      <!-- 2500 -->
      <g transform="translate(25.15 285.535575)scale(0.1 -0.1)">
       <use xlink:href="#DejaVuSans-32"/>
       <use xlink:href="#DejaVuSans-35" x="63.623047"/>
       <use xlink:href="#DejaVuSans-30" x="127.246094"/>
       <use xlink:href="#DejaVuSans-30" x="190.869141"/>
      </g>
     </g>
    </g>
    <g id="ytick_7">
     <g id="line2d_31">
      <g>
       <use xlink:href="#m94d411ca97" x="57.6" y="261.378752" style="stroke: #000000; stroke-width: 0.8"/>
      </g>
     </g>
     <g id="text_31">
      <!-- 5000 -->
      <g transform="translate(25.15 265.177971)scale(0.1 -0.1)">
       <use xlink:href="#DejaVuSans-35"/>
       <use xlink:href="#DejaVuSans-30" x="63.623047"/>
       <use xlink:href="#DejaVuSans-30" x="127.246094"/>
       <use xlink:href="#DejaVuSans-30" x="190.869141"/>
      </g>
     </g>
    </g>
    <g id="ytick_8">
     <g id="line2d_32">
      <g>
       <use xlink:href="#m94d411ca97" x="57.6" y="241.021148" style="stroke: #000000; stroke-width: 0.8"/>
      </g>
     </g>
     <g id="text_32">
      <!-- 7500 -->
      <g transform="translate(25.15 244.820367)scale(0.1 -0.1)">
       <defs>
        <path id="DejaVuSans-37" d="M 525 4666 
L 3525 4666 
L 3525 4397 
L 1831 0 
L 1172 0 
L 2766 4134 
L 525 4134 
L 525 4666 
z
" transform="scale(0.015625)"/>
       </defs>
       <use xlink:href="#DejaVuSans-37"/>
       <use xlink:href="#DejaVuSans-35" x="63.623047"/>
       <use xlink:href="#DejaVuSans-30" x="127.246094"/>
       <use xlink:href="#DejaVuSans-30" x="190.869141"/>
      </g>
     </g>
    </g>
    <g id="ytick_9">
     <g id="line2d_33">
      <g>
       <use xlink:href="#m94d411ca97" x="57.6" y="220.663543" style="stroke: #000000; stroke-width: 0.8"/>
      </g>
     </g>
     <g id="text_33">
      <!-- 10000 -->
      <g transform="translate(18.7875 224.462762)scale(0.1 -0.1)">
       <use xlink:href="#DejaVuSans-31"/>
       <use xlink:href="#DejaVuSans-30" x="63.623047"/>
       <use xlink:href="#DejaVuSans-30" x="127.246094"/>
       <use xlink:href="#DejaVuSans-30" x="190.869141"/>
       <use xlink:href="#DejaVuSans-30" x="254.492188"/>
      </g>
     </g>
    </g>
    <g id="ytick_10">
     <g id="line2d_34">
      <g>
       <use xlink:href="#m94d411ca97" x="57.6" y="200.305939" style="stroke: #000000; stroke-width: 0.8"/>
      </g>
     </g>
     <g id="text_34">
      <!-- 12500 -->
      <g transform="translate(18.7875 204.105158)scale(0.1 -0.1)">
       <use xlink:href="#DejaVuSans-31"/>
       <use xlink:href="#DejaVuSans-32" x="63.623047"/>
       <use xlink:href="#DejaVuSans-35" x="127.246094"/>
       <use xlink:href="#DejaVuSans-30" x="190.869141"/>
       <use xlink:href="#DejaVuSans-30" x="254.492188"/>
      </g>
     </g>
    </g>
   </g>
   <g id="line2d_35">
    <path d="M 73.832727 302.085818 
L 170.925675 302.069532 
L 172.442753 301.914814 
L 176.993985 302.077675 
L 184.579371 302.053246 
L 186.096449 301.833384 
L 187.613526 301.914814 
L 190.647681 301.760097 
L 192.164758 302.085818 
L 193.681835 302.069532 
L 195.198912 301.914814 
L 198.233067 302.053246 
L 199.750144 301.988102 
L 201.267222 302.061389 
L 202.784299 301.906671 
L 204.301376 302.020674 
L 205.818454 301.833384 
L 207.335531 302.045103 
L 208.852608 301.727524 
L 210.369686 302.069532 
L 213.40384 301.963673 
L 214.920918 302.085818 
L 220.989227 301.865956 
L 224.023381 302.069532 
L 228.574613 302.085818 
L 231.608768 301.9311 
L 233.125845 302.085818 
L 234.642923 301.906671 
L 239.194155 302.077675 
L 240.711232 301.727524 
L 242.228309 302.020674 
L 245.262464 302.077675 
L 248.296619 301.865956 
L 249.813696 301.776383 
L 252.84785 302.077675 
L 254.364928 301.939243 
L 255.882005 302.069532 
L 258.91616 302.053246 
L 260.433237 301.466947 
L 261.950314 301.947386 
L 263.467392 301.825241 
L 264.984469 302.077675 
L 266.501546 301.646094 
L 268.018624 301.74381 
L 269.535701 301.694952 
L 271.052778 301.825241 
L 272.569856 301.841527 
L 274.086933 300.546783 
L 275.60401 301.825241 
L 277.121088 301.760097 
L 280.155242 302.004388 
L 281.672319 301.499519 
L 283.189397 301.76824 
L 286.223551 302.045103 
L 287.740629 300.921363 
L 289.257706 301.95553 
L 290.774783 300.473496 
L 292.291861 301.74381 
L 295.326015 300.554926 
L 296.843093 301.84967 
L 299.877247 301.483233 
L 301.394325 301.711238 
L 302.911402 297.525715 
L 304.428479 301.344801 
L 305.945556 300.611928 
L 307.462634 301.133082 
L 308.979711 300.261777 
L 310.496788 301.76824 
L 312.013866 301.10051 
L 313.530943 301.817098 
L 315.04802 302.069532 
L 316.565098 301.996245 
L 318.082175 301.20637 
L 319.599252 301.874099 
L 321.11633 301.426232 
L 322.633407 301.760097 
L 324.150484 301.76824 
L 325.667562 301.279657 
L 327.184639 301.727524 
L 330.218794 300.35135 
L 331.735871 301.222656 
L 333.252948 301.279657 
L 334.770025 293.975349 
L 336.287103 295.294521 
L 337.80418 301.426232 
L 339.321257 290.677417 
L 340.838335 301.825241 
L 342.355412 299.699907 
L 343.872489 260.214297 
L 345.389567 294.341785 
L 346.906644 299.97677 
L 348.423721 295.188662 
L 349.940799 301.55652 
L 351.457876 301.857813 
L 352.974953 298.274875 
L 354.492031 301.637951 
L 356.009108 300.782931 
L 357.526185 298.006154 
L 359.043263 301.735667 
L 360.56034 296.507835 
L 362.077417 294.03235 
L 363.594494 298.454022 
L 365.111572 300.123345 
L 366.628649 293.828774 
L 368.145726 295.017658 
L 369.662804 301.157511 
L 371.179881 268.284052 
L 372.696958 300.497925 
L 374.214036 289.10581 
L 375.731113 295.416667 
L 377.24819 300.310635 
L 378.765268 275.368498 
L 380.282345 299.52076 
L 381.799422 300.204776 
L 383.3165 294.268498 
L 384.833577 299.927912 
L 386.350654 300.098916 
L 387.867732 299.374185 
L 389.384809 298.885603 
L 390.901886 296.743983 
L 392.418963 295.025801 
L 393.936041 245.475392 
L 395.453118 276.247947 
L 396.970195 297.085991 
L 398.487273 192.122182 
L 398.487273 192.122182 
" clip-path="url(#p7c7bc67dba)" style="fill: none; stroke: #1f77b4; stroke-width: 1.5; stroke-linecap: square"/>
   </g>
   <g id="patch_8">
    <path d="M 57.6 307.584 
L 57.6 186.624 
" style="fill: none; stroke: #000000; stroke-width: 0.8; stroke-linejoin: miter; stroke-linecap: square"/>
   </g>
   <g id="patch_9">
    <path d="M 414.72 307.584 
L 414.72 186.624 
" style="fill: none; stroke: #000000; stroke-width: 0.8; stroke-linejoin: miter; stroke-linecap: square"/>
   </g>
   <g id="patch_10">
    <path d="M 57.6 307.584 
L 414.72 307.584 
" style="fill: none; stroke: #000000; stroke-width: 0.8; stroke-linejoin: miter; stroke-linecap: square"/>
   </g>
   <g id="patch_11">
    <path d="M 57.6 186.624 
L 414.72 186.624 
" style="fill: none; stroke: #000000; stroke-width: 0.8; stroke-linejoin: miter; stroke-linecap: square"/>
   </g>
  </g>
 </g>
 <defs>
  <clipPath id="pc6e7a3abbf">
   <rect x="57.6" y="41.472" width="357.12" height="120.96"/>
  </clipPath>
  <clipPath id="p7c7bc67dba">
   <rect x="57.6" y="186.624" width="357.12" height="120.96"/>
  </clipPath>
 </defs>
</svg>
