<?xml version="1.0" encoding="utf-8" standalone="no"?>
<!DOCTYPE svg PUBLIC "-//W3C//DTD SVG 1.1//EN"
  "http://www.w3.org/Graphics/SVG/1.1/DTD/svg11.dtd">
<svg xmlns:xlink="http://www.w3.org/1999/xlink" width="460.8pt" height="345.6pt" viewBox="0 0 460.8 345.6" xmlns="http://www.w3.org/2000/svg" version="1.1">
 <metadata>
  <rdf:RDF xmlns:dc="http://purl.org/dc/elements/1.1/" xmlns:cc="http://creativecommons.org/ns#" xmlns:rdf="http://www.w3.org/1999/02/22-rdf-syntax-ns#">
   <cc:Work>
    <dc:type rdf:resource="http://purl.org/dc/dcmitype/StillImage"/>
    <dc:date>2022-05-14T01:53:56.281408</dc:date>
    <dc:format>image/svg+xml</dc:format>
    <dc:creator>
     <cc:Agent>
      <dc:title>Matplotlib v3.5.1, https://matplotlib.org/</dc:title>
     </cc:Agent>
    </dc:creator>
   </cc:Work>
  </rdf:RDF>
 </metadata>
 <defs>
  <style type="text/css">*{stroke-linejoin: round; stroke-linecap: butt}</style>
 </defs>
 <g id="figure_1">
  <g id="patch_1">
   <path d="M 0 345.6 
L 460.8 345.6 
L 460.8 0 
L 0 0 
z
" style="fill: #ffffff"/>
  </g>
  <g id="axes_1">
   <g id="patch_2">
    <path d="M 57.6 162.432 
L 414.72 162.432 
L 414.72 41.472 
L 57.6 41.472 
z
" style="fill: #ffffff"/>
   </g>
   <g id="matplotlib.axis_1">
    <g id="xtick_1">
     <g id="line2d_1">
      <defs>
       <path id="m94f767a1ef" d="M 0 0 
L 0 3.5 
" style="stroke: #000000; stroke-width: 0.8"/>
      </defs>
      <g>
       <use xlink:href="#m94f767a1ef" x="73.827491" y="162.432" style="stroke: #000000; stroke-width: 0.8"/>
      </g>
     </g>
     <g id="text_1">
      <!-- 0 -->
      <g transform="translate(70.646241 177.030437)scale(0.1 -0.1)">
       <defs>
        <path id="DejaVuSans-30" d="M 2034 4250 
Q 1547 4250 1301 3770 
Q 1056 3291 1056 2328 
Q 1056 1369 1301 889 
Q 1547 409 2034 409 
Q 2525 409 2770 889 
Q 3016 1369 3016 2328 
Q 3016 3291 2770 3770 
Q 2525 4250 2034 4250 
z
M 2034 4750 
Q 2819 4750 3233 4129 
Q 3647 3509 3647 2328 
Q 3647 1150 3233 529 
Q 2819 -91 2034 -91 
Q 1250 -91 836 529 
Q 422 1150 422 2328 
Q 422 3509 836 4129 
Q 1250 4750 2034 4750 
z
" transform="scale(0.015625)"/>
       </defs>
       <use xlink:href="#DejaVuSans-30"/>
      </g>
     </g>
    </g>
    <g id="xtick_2">
     <g id="line2d_2">
      <g>
       <use xlink:href="#m94f767a1ef" x="126.191972" y="162.432" style="stroke: #000000; stroke-width: 0.8"/>
      </g>
     </g>
     <g id="text_2">
      <!-- 10000 -->
      <g transform="translate(110.285722 177.030437)scale(0.1 -0.1)">
       <defs>
        <path id="DejaVuSans-31" d="M 794 531 
L 1825 531 
L 1825 4091 
L 703 3866 
L 703 4441 
L 1819 4666 
L 2450 4666 
L 2450 531 
L 3481 531 
L 3481 0 
L 794 0 
L 794 531 
z
" transform="scale(0.015625)"/>
       </defs>
       <use xlink:href="#DejaVuSans-31"/>
       <use xlink:href="#DejaVuSans-30" x="63.623047"/>
       <use xlink:href="#DejaVuSans-30" x="127.246094"/>
       <use xlink:href="#DejaVuSans-30" x="190.869141"/>
       <use xlink:href="#DejaVuSans-30" x="254.492188"/>
      </g>
     </g>
    </g>
    <g id="xtick_3">
     <g id="line2d_3">
      <g>
       <use xlink:href="#m94f767a1ef" x="178.556453" y="162.432" style="stroke: #000000; stroke-width: 0.8"/>
      </g>
     </g>
     <g id="text_3">
      <!-- 20000 -->
      <g transform="translate(162.650203 177.030437)scale(0.1 -0.1)">
       <defs>
        <path id="DejaVuSans-32" d="M 1228 531 
L 3431 531 
L 3431 0 
L 469 0 
L 469 531 
Q 828 903 1448 1529 
Q 2069 2156 2228 2338 
Q 2531 2678 2651 2914 
Q 2772 3150 2772 3378 
Q 2772 3750 2511 3984 
Q 2250 4219 1831 4219 
Q 1534 4219 1204 4116 
Q 875 4013 500 3803 
L 500 4441 
Q 881 4594 1212 4672 
Q 1544 4750 1819 4750 
Q 2544 4750 2975 4387 
Q 3406 4025 3406 3419 
Q 3406 3131 3298 2873 
Q 3191 2616 2906 2266 
Q 2828 2175 2409 1742 
Q 1991 1309 1228 531 
z
" transform="scale(0.015625)"/>
       </defs>
       <use xlink:href="#DejaVuSans-32"/>
       <use xlink:href="#DejaVuSans-30" x="63.623047"/>
       <use xlink:href="#DejaVuSans-30" x="127.246094"/>
       <use xlink:href="#DejaVuSans-30" x="190.869141"/>
       <use xlink:href="#DejaVuSans-30" x="254.492188"/>
      </g>
     </g>
    </g>
    <g id="xtick_4">
     <g id="line2d_4">
      <g>
       <use xlink:href="#m94f767a1ef" x="230.920934" y="162.432" style="stroke: #000000; stroke-width: 0.8"/>
      </g>
     </g>
     <g id="text_4">
      <!-- 30000 -->
      <g transform="translate(215.014684 177.030437)scale(0.1 -0.1)">
       <defs>
        <path id="DejaVuSans-33" d="M 2597 2516 
Q 3050 2419 3304 2112 
Q 3559 1806 3559 1356 
Q 3559 666 3084 287 
Q 2609 -91 1734 -91 
Q 1441 -91 1130 -33 
Q 819 25 488 141 
L 488 750 
Q 750 597 1062 519 
Q 1375 441 1716 441 
Q 2309 441 2620 675 
Q 2931 909 2931 1356 
Q 2931 1769 2642 2001 
Q 2353 2234 1838 2234 
L 1294 2234 
L 1294 2753 
L 1863 2753 
Q 2328 2753 2575 2939 
Q 2822 3125 2822 3475 
Q 2822 3834 2567 4026 
Q 2313 4219 1838 4219 
Q 1578 4219 1281 4162 
Q 984 4106 628 3988 
L 628 4550 
Q 988 4650 1302 4700 
Q 1616 4750 1894 4750 
Q 2613 4750 3031 4423 
Q 3450 4097 3450 3541 
Q 3450 3153 3228 2886 
Q 3006 2619 2597 2516 
z
" transform="scale(0.015625)"/>
       </defs>
       <use xlink:href="#DejaVuSans-33"/>
       <use xlink:href="#DejaVuSans-30" x="63.623047"/>
       <use xlink:href="#DejaVuSans-30" x="127.246094"/>
       <use xlink:href="#DejaVuSans-30" x="190.869141"/>
       <use xlink:href="#DejaVuSans-30" x="254.492188"/>
      </g>
     </g>
    </g>
    <g id="xtick_5">
     <g id="line2d_5">
      <g>
       <use xlink:href="#m94f767a1ef" x="283.285415" y="162.432" style="stroke: #000000; stroke-width: 0.8"/>
      </g>
     </g>
     <g id="text_5">
      <!-- 40000 -->
      <g transform="translate(267.379165 177.030437)scale(0.1 -0.1)">
       <defs>
        <path id="DejaVuSans-34" d="M 2419 4116 
L 825 1625 
L 2419 1625 
L 2419 4116 
z
M 2253 4666 
L 3047 4666 
L 3047 1625 
L 3713 1625 
L 3713 1100 
L 3047 1100 
L 3047 0 
L 2419 0 
L 2419 1100 
L 313 1100 
L 313 1709 
L 2253 4666 
z
" transform="scale(0.015625)"/>
       </defs>
       <use xlink:href="#DejaVuSans-34"/>
       <use xlink:href="#DejaVuSans-30" x="63.623047"/>
       <use xlink:href="#DejaVuSans-30" x="127.246094"/>
       <use xlink:href="#DejaVuSans-30" x="190.869141"/>
       <use xlink:href="#DejaVuSans-30" x="254.492188"/>
      </g>
     </g>
    </g>
    <g id="xtick_6">
     <g id="line2d_6">
      <g>
       <use xlink:href="#m94f767a1ef" x="335.649896" y="162.432" style="stroke: #000000; stroke-width: 0.8"/>
      </g>
     </g>
     <g id="text_6">
      <!-- 50000 -->
      <g transform="translate(319.743646 177.030437)scale(0.1 -0.1)">
       <defs>
        <path id="DejaVuSans-35" d="M 691 4666 
L 3169 4666 
L 3169 4134 
L 1269 4134 
L 1269 2991 
Q 1406 3038 1543 3061 
Q 1681 3084 1819 3084 
Q 2600 3084 3056 2656 
Q 3513 2228 3513 1497 
Q 3513 744 3044 326 
Q 2575 -91 1722 -91 
Q 1428 -91 1123 -41 
Q 819 9 494 109 
L 494 744 
Q 775 591 1075 516 
Q 1375 441 1709 441 
Q 2250 441 2565 725 
Q 2881 1009 2881 1497 
Q 2881 1984 2565 2268 
Q 2250 2553 1709 2553 
Q 1456 2553 1204 2497 
Q 953 2441 691 2322 
L 691 4666 
z
" transform="scale(0.015625)"/>
       </defs>
       <use xlink:href="#DejaVuSans-35"/>
       <use xlink:href="#DejaVuSans-30" x="63.623047"/>
       <use xlink:href="#DejaVuSans-30" x="127.246094"/>
       <use xlink:href="#DejaVuSans-30" x="190.869141"/>
       <use xlink:href="#DejaVuSans-30" x="254.492188"/>
      </g>
     </g>
    </g>
    <g id="xtick_7">
     <g id="line2d_7">
      <g>
       <use xlink:href="#m94f767a1ef" x="388.014377" y="162.432" style="stroke: #000000; stroke-width: 0.8"/>
      </g>
     </g>
     <g id="text_7">
      <!-- 60000 -->
      <g transform="translate(372.108127 177.030437)scale(0.1 -0.1)">
       <defs>
        <path id="DejaVuSans-36" d="M 2113 2584 
Q 1688 2584 1439 2293 
Q 1191 2003 1191 1497 
Q 1191 994 1439 701 
Q 1688 409 2113 409 
Q 2538 409 2786 701 
Q 3034 994 3034 1497 
Q 3034 2003 2786 2293 
Q 2538 2584 2113 2584 
z
M 3366 4563 
L 3366 3988 
Q 3128 4100 2886 4159 
Q 2644 4219 2406 4219 
Q 1781 4219 1451 3797 
Q 1122 3375 1075 2522 
Q 1259 2794 1537 2939 
Q 1816 3084 2150 3084 
Q 2853 3084 3261 2657 
Q 3669 2231 3669 1497 
Q 3669 778 3244 343 
Q 2819 -91 2113 -91 
Q 1303 -91 875 529 
Q 447 1150 447 2328 
Q 447 3434 972 4092 
Q 1497 4750 2381 4750 
Q 2619 4750 2861 4703 
Q 3103 4656 3366 4563 
z
" transform="scale(0.015625)"/>
       </defs>
       <use xlink:href="#DejaVuSans-36"/>
       <use xlink:href="#DejaVuSans-30" x="63.623047"/>
       <use xlink:href="#DejaVuSans-30" x="127.246094"/>
       <use xlink:href="#DejaVuSans-30" x="190.869141"/>
       <use xlink:href="#DejaVuSans-30" x="254.492188"/>
      </g>
     </g>
    </g>
   </g>
   <g id="matplotlib.axis_2">
    <g id="ytick_1">
     <g id="line2d_8">
      <defs>
       <path id="mde3e2f8bf1" d="M 0 0 
L -3.5 0 
" style="stroke: #000000; stroke-width: 0.8"/>
      </defs>
      <g>
       <use xlink:href="#mde3e2f8bf1" x="57.6" y="147.301454" style="stroke: #000000; stroke-width: 0.8"/>
      </g>
     </g>
     <g id="text_8">
      <!-- 60 -->
      <g transform="translate(37.875 151.100672)scale(0.1 -0.1)">
       <use xlink:href="#DejaVuSans-36"/>
       <use xlink:href="#DejaVuSans-30" x="63.623047"/>
      </g>
     </g>
    </g>
    <g id="ytick_2">
     <g id="line2d_9">
      <g>
       <use xlink:href="#mde3e2f8bf1" x="57.6" y="126.208684" style="stroke: #000000; stroke-width: 0.8"/>
      </g>
     </g>
     <g id="text_9">
      <!-- 70 -->
      <g transform="translate(37.875 130.007903)scale(0.1 -0.1)">
       <defs>
        <path id="DejaVuSans-37" d="M 525 4666 
L 3525 4666 
L 3525 4397 
L 1831 0 
L 1172 0 
L 2766 4134 
L 525 4134 
L 525 4666 
z
" transform="scale(0.015625)"/>
       </defs>
       <use xlink:href="#DejaVuSans-37"/>
       <use xlink:href="#DejaVuSans-30" x="63.623047"/>
      </g>
     </g>
    </g>
    <g id="ytick_3">
     <g id="line2d_10">
      <g>
       <use xlink:href="#mde3e2f8bf1" x="57.6" y="105.115915" style="stroke: #000000; stroke-width: 0.8"/>
      </g>
     </g>
     <g id="text_10">
      <!-- 80 -->
      <g transform="translate(37.875 108.915134)scale(0.1 -0.1)">
       <defs>
        <path id="DejaVuSans-38" d="M 2034 2216 
Q 1584 2216 1326 1975 
Q 1069 1734 1069 1313 
Q 1069 891 1326 650 
Q 1584 409 2034 409 
Q 2484 409 2743 651 
Q 3003 894 3003 1313 
Q 3003 1734 2745 1975 
Q 2488 2216 2034 2216 
z
M 1403 2484 
Q 997 2584 770 2862 
Q 544 3141 544 3541 
Q 544 4100 942 4425 
Q 1341 4750 2034 4750 
Q 2731 4750 3128 4425 
Q 3525 4100 3525 3541 
Q 3525 3141 3298 2862 
Q 3072 2584 2669 2484 
Q 3125 2378 3379 2068 
Q 3634 1759 3634 1313 
Q 3634 634 3220 271 
Q 2806 -91 2034 -91 
Q 1263 -91 848 271 
Q 434 634 434 1313 
Q 434 1759 690 2068 
Q 947 2378 1403 2484 
z
M 1172 3481 
Q 1172 3119 1398 2916 
Q 1625 2713 2034 2713 
Q 2441 2713 2670 2916 
Q 2900 3119 2900 3481 
Q 2900 3844 2670 4047 
Q 2441 4250 2034 4250 
Q 1625 4250 1398 4047 
Q 1172 3844 1172 3481 
z
" transform="scale(0.015625)"/>
       </defs>
       <use xlink:href="#DejaVuSans-38"/>
       <use xlink:href="#DejaVuSans-30" x="63.623047"/>
      </g>
     </g>
    </g>
    <g id="ytick_4">
     <g id="line2d_11">
      <g>
       <use xlink:href="#mde3e2f8bf1" x="57.6" y="84.023146" style="stroke: #000000; stroke-width: 0.8"/>
      </g>
     </g>
     <g id="text_11">
      <!-- 90 -->
      <g transform="translate(37.875 87.822365)scale(0.1 -0.1)">
       <defs>
        <path id="DejaVuSans-39" d="M 703 97 
L 703 672 
Q 941 559 1184 500 
Q 1428 441 1663 441 
Q 2288 441 2617 861 
Q 2947 1281 2994 2138 
Q 2813 1869 2534 1725 
Q 2256 1581 1919 1581 
Q 1219 1581 811 2004 
Q 403 2428 403 3163 
Q 403 3881 828 4315 
Q 1253 4750 1959 4750 
Q 2769 4750 3195 4129 
Q 3622 3509 3622 2328 
Q 3622 1225 3098 567 
Q 2575 -91 1691 -91 
Q 1453 -91 1209 -44 
Q 966 3 703 97 
z
M 1959 2075 
Q 2384 2075 2632 2365 
Q 2881 2656 2881 3163 
Q 2881 3666 2632 3958 
Q 2384 4250 1959 4250 
Q 1534 4250 1286 3958 
Q 1038 3666 1038 3163 
Q 1038 2656 1286 2365 
Q 1534 2075 1959 2075 
z
" transform="scale(0.015625)"/>
       </defs>
       <use xlink:href="#DejaVuSans-39"/>
       <use xlink:href="#DejaVuSans-30" x="63.623047"/>
      </g>
     </g>
    </g>
    <g id="ytick_5">
     <g id="line2d_12">
      <g>
       <use xlink:href="#mde3e2f8bf1" x="57.6" y="62.930377" style="stroke: #000000; stroke-width: 0.8"/>
      </g>
     </g>
     <g id="text_12">
      <!-- 100 -->
      <g transform="translate(31.5125 66.729596)scale(0.1 -0.1)">
       <use xlink:href="#DejaVuSans-31"/>
       <use xlink:href="#DejaVuSans-30" x="63.623047"/>
       <use xlink:href="#DejaVuSans-30" x="127.246094"/>
      </g>
     </g>
    </g>
    <g id="ytick_6">
     <g id="line2d_13">
      <g>
       <use xlink:href="#mde3e2f8bf1" x="57.6" y="41.837608" style="stroke: #000000; stroke-width: 0.8"/>
      </g>
     </g>
     <g id="text_13">
      <!-- 110 -->
      <g transform="translate(31.5125 45.636827)scale(0.1 -0.1)">
       <use xlink:href="#DejaVuSans-31"/>
       <use xlink:href="#DejaVuSans-31" x="63.623047"/>
       <use xlink:href="#DejaVuSans-30" x="127.246094"/>
      </g>
     </g>
    </g>
   </g>
   <g id="line2d_14">
    <path d="M 73.832727 62.930377 
L 73.837964 62.930377 
L 73.979348 59.766462 
L 74.07884 59.766462 
L 74.199279 57.657185 
L 74.288298 57.657185 
L 74.4035 57.129866 
L 74.618194 57.129866 
L 74.738633 55.899454 
L 74.927145 55.899454 
L 75.042347 54.844816 
L 75.262278 54.844816 
L 75.377479 53.790177 
L 77.225946 53.790177 
L 77.341147 53.087085 
L 77.7653 53.087085 
L 77.880502 52.383993 
L 77.979994 52.383993 
L 78.095196 51.329354 
L 82.074897 51.329354 
L 82.190098 50.626262 
L 86.044124 50.626262 
L 86.159326 49.571623 
L 101.659212 49.571623 
L 101.774414 48.516985 
L 131.57504 48.516985 
L 131.690242 48.09513 
L 372.247431 48.09513 
L 372.362633 47.673274 
L 386.621481 47.673274 
L 386.736683 46.970182 
L 398.487273 46.970182 
L 398.487273 46.970182 
" clip-path="url(#pb8060a710d)" style="fill: none; stroke: #1f77b4; stroke-width: 1.5; stroke-linecap: square"/>
   </g>
   <g id="line2d_15">
    <path d="M 73.832727 62.930377 
L 73.864146 62.930377 
L 73.906038 68.555116 
L 73.979348 65.742746 
L 73.995057 65.742746 
L 74.031712 61.524193 
L 74.07884 67.852023 
L 74.105023 65.742746 
L 74.110259 65.742746 
L 74.235934 72.070577 
L 74.288298 72.070577 
L 74.356372 69.433981 
L 74.4035 71.543258 
L 74.466337 71.543258 
L 74.581539 73.652535 
L 74.602485 73.652535 
L 74.65485 75.761812 
L 74.670559 71.543258 
L 74.712451 73.652535 
L 74.72816 73.652535 
L 74.848598 77.871089 
L 74.885253 77.871089 
L 75.010928 71.543258 
L 75.089475 71.543258 
L 75.21515 77.871089 
L 75.28846 77.871089 
L 75.351297 82.089642 
L 75.398425 77.871089 
L 75.492681 77.871089 
L 75.576464 79.980365 
L 75.602647 77.871089 
L 75.911597 77.871089 
L 76.026799 75.761812 
L 76.126292 75.761812 
L 76.241493 77.871089 
L 76.812266 77.871089 
L 76.927468 75.761812 
L 77.246891 75.761812 
L 77.36733 79.980365 
L 77.7653 79.980365 
L 77.775773 81.38655 
L 77.880502 79.277273 
L 78.16327 79.277273 
L 78.199925 81.38655 
L 78.273235 79.277273 
L 78.377964 79.277273 
L 78.493166 81.38655 
L 78.718333 81.38655 
L 78.786407 83.495827 
L 78.828299 81.38655 
L 79.084885 81.38655 
L 79.200087 83.495827 
L 79.231505 83.495827 
L 79.346707 85.605104 
L 79.414781 85.605104 
L 79.529983 83.495827 
L 79.807515 83.495827 
L 79.838933 81.38655 
L 79.91748 83.495827 
L 80.053628 83.495827 
L 80.168829 81.38655 
L 80.341632 81.38655 
L 80.456834 79.277273 
L 81.530306 79.277273 
L 81.645508 81.38655 
L 81.985877 81.38655 
L 82.017296 80.683458 
L 82.022532 82.792735 
L 82.085369 82.792735 
L 82.279118 82.792735 
L 82.39432 84.902012 
L 83.195496 84.902012 
L 83.310698 87.011289 
L 83.83958 87.011289 
L 83.954781 84.902012 
L 84.525554 84.902012 
L 84.63552 87.011289 
L 84.750722 84.902012 
L 86.562533 84.902012 
L 86.677734 87.011289 
L 92.68394 87.011289 
L 92.799142 89.120565 
L 94.05589 89.120565 
L 94.171092 91.229842 
L 95.563987 91.229842 
L 95.679189 89.120565 
L 100.67476 89.120565 
L 100.789962 91.229842 
L 102.460389 91.229842 
L 102.575591 89.120565 
L 103.355822 89.120565 
L 103.471023 87.011289 
L 106.58671 87.011289 
L 106.701912 89.120565 
L 111.917414 89.120565 
L 112.032616 91.229842 
L 113.535477 91.229842 
L 113.650679 89.120565 
L 131.57504 89.120565 
L 131.690242 91.229842 
L 147.661409 91.229842 
L 147.776611 89.120565 
L 170.413776 89.120565 
L 170.528978 91.229842 
L 190.170895 91.229842 
L 190.286096 93.339119 
L 208.084784 93.339119 
L 208.199985 91.229842 
L 224.919964 91.229842 
L 225.035166 89.120565 
L 227.841902 89.120565 
L 227.957104 91.229842 
L 257.668711 91.229842 
L 257.783912 93.339119 
L 308.352292 93.339119 
L 308.467494 91.229842 
L 356.852274 91.229842 
L 356.967476 93.339119 
L 372.247431 93.339119 
L 372.362633 95.448396 
L 398.487273 95.448396 
L 398.487273 95.448396 
" clip-path="url(#pb8060a710d)" style="fill: none; stroke: #ff7f0e; stroke-width: 1.5; stroke-linecap: square"/>
   </g>
   <g id="line2d_16">
    <path d="M 73.832727 65.039654 
L 73.837964 65.039654 
L 73.8432 64.512335 
L 73.869382 70.312846 
L 73.885092 69.258208 
L 74.026476 83.320054 
L 74.052658 83.320054 
L 74.178333 89.226029 
L 74.214988 89.226029 
L 74.220224 91.335306 
L 74.324953 90.104895 
L 74.340663 90.104895 
L 74.455865 92.214172 
L 74.482047 92.214172 
L 74.602485 96.432725 
L 74.618194 96.432725 
L 74.65485 95.905406 
L 74.670559 100.12396 
L 74.696741 99.702105 
L 74.701978 99.702105 
L 74.81718 98.999012 
L 74.885253 98.999012 
L 75.005692 104.272205 
L 75.262278 104.272205 
L 75.351297 102.795711 
L 75.356534 104.904988 
L 75.367007 104.904988 
L 75.393189 104.904988 
L 75.508391 107.014265 
L 75.576464 107.014265 
L 75.691666 109.123542 
L 75.911597 109.123542 
L 76.026799 111.232818 
L 76.304331 111.232818 
L 76.419533 113.342095 
L 76.812266 113.342095 
L 76.927468 115.451372 
L 77.225946 115.451372 
L 77.246891 114.74828 
L 77.252128 116.857557 
L 77.330675 116.154465 
L 77.791482 116.154465 
L 77.906684 118.263741 
L 77.979994 118.263741 
L 78.069014 117.209103 
L 78.07425 119.31838 
L 78.084723 119.31838 
L 78.199925 119.31838 
L 78.315127 121.427657 
L 78.786407 121.427657 
L 78.901609 123.536934 
L 79.084885 123.536934 
L 79.200087 123.115078 
L 79.414781 123.115078 
L 79.529983 125.224355 
L 79.807515 125.224355 
L 79.838933 127.333632 
L 79.922716 126.911777 
L 80.053628 126.911777 
L 80.168829 129.021054 
L 80.341632 129.021054 
L 80.456834 131.130331 
L 82.074897 131.130331 
L 82.190098 130.427238 
L 83.83958 130.427238 
L 83.954781 132.536515 
L 84.63552 132.536515 
L 84.750722 134.645792 
L 86.044124 134.645792 
L 86.159326 133.591154 
L 86.562533 133.591154 
L 86.677734 133.169298 
L 95.563987 133.169298 
L 95.679189 135.278575 
L 101.659212 135.278575 
L 101.774414 134.223937 
L 102.460389 134.223937 
L 102.575591 136.333214 
L 103.355822 136.333214 
L 103.471023 138.442491 
L 113.535477 138.442491 
L 113.650679 140.551767 
L 131.57504 140.551767 
L 131.690242 140.129912 
L 147.661409 140.129912 
L 147.776611 142.239189 
L 183.557261 142.239189 
L 183.672463 141.817334 
L 208.084784 141.817334 
L 208.199985 143.926611 
L 224.919964 143.926611 
L 225.035166 146.035887 
L 227.841902 146.035887 
L 227.957104 145.614032 
L 257.668711 145.614032 
L 257.783912 145.262486 
L 308.352292 145.262486 
L 308.467494 147.371763 
L 372.247431 147.371763 
L 372.362633 146.949907 
L 386.621481 146.949907 
L 386.736683 146.246815 
L 398.487273 146.246815 
L 398.487273 146.246815 
" clip-path="url(#pb8060a710d)" style="fill: none; stroke: #2ca02c; stroke-width: 1.5; stroke-linecap: square"/>
   </g>
   <g id="line2d_17">
    <path d="M 73.832727 62.930377 
L 73.853673 62.930377 
L 73.869382 61.524193 
L 73.900801 65.039654 
L 73.937456 64.512335 
L 74.031712 71.719031 
L 74.057895 69.609754 
L 74.073604 69.609754 
L 74.084077 69.187899 
L 74.099786 73.406452 
L 74.152151 71.824495 
L 74.16786 71.824495 
L 74.173096 71.297176 
L 74.225461 73.933772 
L 74.25688 73.933772 
L 74.288298 73.933772 
L 74.356372 78.152326 
L 74.4035 77.625006 
L 74.466337 77.625006 
L 74.482047 77.097687 
L 74.487283 79.206964 
L 74.576303 77.625006 
L 74.602485 77.625006 
L 74.65485 77.097687 
L 74.670559 81.316241 
L 74.675795 81.316241 
L 74.686268 81.316241 
L 74.811943 79.839747 
L 74.885253 79.839747 
L 75.010928 86.167578 
L 75.089475 86.167578 
L 75.21515 84.58562 
L 75.28846 84.58562 
L 75.351297 83.636445 
L 75.356534 85.745722 
L 75.387952 85.745722 
L 75.393189 85.745722 
L 75.492681 87.854999 
L 75.503154 87.32768 
L 75.576464 87.32768 
L 75.691666 89.436957 
L 75.911597 89.436957 
L 76.026799 91.546234 
L 76.126292 91.546234 
L 76.241493 91.018915 
L 76.304331 91.018915 
L 76.419533 89.964276 
L 76.812266 89.964276 
L 76.927468 92.073553 
L 77.246891 92.073553 
L 77.299256 91.018915 
L 77.304492 93.128192 
L 77.346384 93.128192 
L 77.770536 93.128192 
L 77.791482 92.600872 
L 77.796718 94.710149 
L 77.864792 94.710149 
L 78.069014 94.710149 
L 78.184216 93.128192 
L 78.199925 93.128192 
L 78.315127 95.237468 
L 78.377964 95.237468 
L 78.493166 94.710149 
L 78.718333 94.710149 
L 78.786407 94.18283 
L 78.791644 96.292107 
L 78.812589 96.292107 
L 79.084885 96.292107 
L 79.200087 95.870252 
L 79.231505 95.870252 
L 79.346707 95.342932 
L 79.414781 95.342932 
L 79.529983 97.452209 
L 79.807515 97.452209 
L 79.838933 99.561486 
L 79.922716 99.139631 
L 80.053628 99.139631 
L 80.168829 101.248908 
L 80.341632 101.248908 
L 80.456834 103.358185 
L 81.530306 103.358185 
L 81.645508 102.830865 
L 82.017296 102.830865 
L 82.132498 102.303546 
L 82.279118 102.303546 
L 82.39432 101.776227 
L 83.195496 101.776227 
L 83.310698 101.248908 
L 83.83958 101.248908 
L 83.954781 103.358185 
L 84.525554 103.358185 
L 84.63552 102.830865 
L 84.750722 104.940142 
L 86.562533 104.940142 
L 86.677734 104.518287 
L 92.68394 104.518287 
L 92.799142 103.990968 
L 94.05589 103.990968 
L 94.171092 103.463648 
L 95.563987 103.463648 
L 95.679189 105.572925 
L 100.67476 105.572925 
L 100.789962 105.045606 
L 102.460389 105.045606 
L 102.575591 107.154883 
L 103.355822 107.154883 
L 103.471023 109.26416 
L 106.58671 109.26416 
L 106.701912 108.736841 
L 111.917414 108.736841 
L 112.032616 108.209522 
L 113.535477 108.209522 
L 113.650679 110.318798 
L 147.661409 110.318798 
L 147.776611 112.428075 
L 170.413776 112.428075 
L 170.528978 111.900756 
L 183.557261 111.900756 
L 183.672463 111.478901 
L 190.170895 111.478901 
L 190.286096 110.951581 
L 208.084784 110.951581 
L 208.199985 113.060858 
L 224.919964 113.060858 
L 225.035166 115.170135 
L 227.841902 115.170135 
L 227.957104 114.74828 
L 257.668711 114.74828 
L 257.783912 114.396734 
L 308.352292 114.396734 
L 308.467494 116.506011 
L 356.852274 116.506011 
L 356.967476 115.978691 
L 398.487273 115.978691 
L 398.487273 115.978691 
" clip-path="url(#pb8060a710d)" style="fill: none; stroke: #d62728; stroke-width: 1.5; stroke-linecap: square"/>
   </g>
   <g id="line2d_18">
    <path d="M 73.832727 65.039654 
L 73.848437 65.039654 
L 73.979348 73.476762 
L 74.052658 73.476762 
L 74.16786 75.586039 
L 74.214988 75.586039 
L 74.288298 77.695316 
L 74.324953 77.167996 
L 74.482047 77.167996 
L 74.602485 81.38655 
L 74.701978 81.38655 
L 74.81718 80.683458 
L 74.885253 80.683458 
L 75.000455 82.792735 
L 76.304331 82.792735 
L 76.419533 84.902012 
L 76.812266 84.902012 
L 76.927468 87.011289 
L 77.225946 87.011289 
L 77.246891 86.308196 
L 77.252128 88.417473 
L 77.325438 88.417473 
L 78.069014 88.417473 
L 78.184216 90.52675 
L 79.414781 90.52675 
L 79.529983 92.636027 
L 82.074897 92.636027 
L 82.190098 91.932935 
L 83.83958 91.932935 
L 83.954781 94.042212 
L 84.63552 94.042212 
L 84.750722 96.151488 
L 95.563987 96.151488 
L 95.679189 98.260765 
L 102.460389 98.260765 
L 102.575591 100.370042 
L 103.355822 100.370042 
L 103.471023 102.479319 
L 113.535477 102.479319 
L 113.650679 104.588596 
L 131.57504 104.588596 
L 131.690242 104.166741 
L 147.661409 104.166741 
L 147.776611 106.276018 
L 224.919964 106.276018 
L 225.035166 108.385295 
L 257.668711 108.385295 
L 257.783912 108.033748 
L 308.352292 108.033748 
L 308.467494 110.143025 
L 372.247431 110.143025 
L 372.362633 109.72117 
L 386.621481 109.72117 
L 386.736683 109.018078 
L 398.487273 109.018078 
L 398.487273 109.018078 
" clip-path="url(#pb8060a710d)" style="fill: none; stroke: #9467bd; stroke-width: 1.5; stroke-linecap: square"/>
   </g>
   <g id="line2d_19">
    <path d="M 73.832727 62.930377 
L 73.837964 62.930377 
L 73.963638 60.996873 
L 74.220224 60.996873 
L 74.335426 60.293781 
L 74.618194 60.293781 
L 74.733396 59.766462 
L 77.299256 59.766462 
L 77.414458 59.063369 
L 77.7653 59.063369 
L 77.880502 61.172646 
L 81.985877 61.172646 
L 82.101079 60.469554 
L 183.557261 60.469554 
L 183.672463 60.047699 
L 398.487273 60.047699 
L 398.487273 60.047699 
" clip-path="url(#pb8060a710d)" style="fill: none; stroke: #8c564b; stroke-width: 1.5; stroke-linecap: square"/>
   </g>
   <g id="line2d_20">
    <path d="M 73.832727 65.039654 
L 73.837964 65.039654 
L 73.974111 77.167996 
L 73.995057 76.640677 
L 74.021239 80.859231 
L 74.057895 79.804592 
L 74.073604 79.804592 
L 74.084077 79.382737 
L 74.099786 83.601291 
L 74.152151 82.019333 
L 74.16786 82.019333 
L 74.173096 81.492014 
L 74.225461 85.183249 
L 74.246407 85.183249 
L 74.288298 85.183249 
L 74.356372 89.401802 
L 74.4035 88.874483 
L 74.466337 88.874483 
L 74.482047 88.347164 
L 74.487283 90.456441 
L 74.56583 89.929122 
L 74.602485 89.929122 
L 74.618194 89.401802 
L 74.660086 93.620356 
L 74.665323 93.620356 
L 74.686268 95.729633 
L 74.775288 94.253139 
L 74.885253 94.253139 
L 75.010928 100.58097 
L 75.089475 100.58097 
L 75.21515 98.999012 
L 75.28846 98.999012 
L 75.351297 98.049838 
L 75.356534 100.159115 
L 75.387952 100.159115 
L 75.393189 100.159115 
L 75.492681 102.268392 
L 75.503154 101.741072 
L 75.576464 101.741072 
L 75.691666 103.850349 
L 75.911597 103.850349 
L 76.026799 105.959626 
L 76.126292 105.959626 
L 76.241493 105.432307 
L 76.812266 105.432307 
L 76.927468 107.541584 
L 77.246891 107.541584 
L 77.299256 106.486945 
L 77.304492 108.596222 
L 77.346384 108.596222 
L 77.770536 108.596222 
L 77.791482 108.068903 
L 77.796718 110.17818 
L 77.864792 110.17818 
L 78.16327 110.17818 
L 78.199925 109.650861 
L 78.205161 111.760138 
L 78.257526 111.760138 
L 78.377964 111.760138 
L 78.493166 111.232818 
L 78.718333 111.232818 
L 78.786407 110.705499 
L 78.791644 112.814776 
L 78.812589 112.814776 
L 79.084885 112.814776 
L 79.200087 112.392921 
L 79.231505 112.392921 
L 79.346707 111.865601 
L 79.414781 111.865601 
L 79.529983 113.974878 
L 79.807515 113.974878 
L 79.838933 116.084155 
L 79.922716 115.6623 
L 80.053628 115.6623 
L 80.168829 117.771577 
L 80.341632 117.771577 
L 80.456834 119.880854 
L 81.530306 119.880854 
L 81.645508 119.353535 
L 81.985877 119.353535 
L 82.017296 121.462811 
L 82.095842 120.935492 
L 82.279118 120.935492 
L 82.39432 120.408173 
L 83.195496 120.408173 
L 83.310698 119.880854 
L 83.83958 119.880854 
L 83.954781 121.990131 
L 84.525554 121.990131 
L 84.63552 121.462811 
L 84.750722 123.572088 
L 86.562533 123.572088 
L 86.677734 123.150233 
L 92.68394 123.150233 
L 92.799142 122.622914 
L 94.05589 122.622914 
L 94.171092 122.095595 
L 95.563987 122.095595 
L 95.679189 124.204871 
L 100.67476 124.204871 
L 100.789962 123.677552 
L 102.460389 123.677552 
L 102.575591 125.786829 
L 103.355822 125.786829 
L 103.471023 127.896106 
L 106.58671 127.896106 
L 106.701912 127.368787 
L 111.917414 127.368787 
L 112.032616 126.841468 
L 113.535477 126.841468 
L 113.650679 128.950744 
L 131.57504 128.950744 
L 131.690242 128.528889 
L 147.661409 128.528889 
L 147.776611 130.638166 
L 170.413776 130.638166 
L 170.528978 130.110847 
L 190.170895 130.110847 
L 190.286096 129.583528 
L 208.084784 129.583528 
L 208.199985 131.692804 
L 224.919964 131.692804 
L 225.035166 133.802081 
L 227.841902 133.802081 
L 227.957104 133.380226 
L 257.668711 133.380226 
L 257.783912 133.02868 
L 308.352292 133.02868 
L 308.467494 135.137957 
L 356.852274 135.137957 
L 356.967476 134.610638 
L 372.247431 134.610638 
L 372.362633 134.188782 
L 398.487273 134.188782 
L 398.487273 134.188782 
" clip-path="url(#pb8060a710d)" style="fill: none; stroke: #e377c2; stroke-width: 1.5; stroke-linecap: square"/>
   </g>
   <g id="line2d_21">
    <path d="M 73.832727 62.930377 
L 73.837964 62.930377 
L 73.968875 60.469554 
L 74.220224 60.469554 
L 74.335426 59.766462 
L 74.618194 59.766462 
L 74.733396 59.239143 
L 77.299256 59.239143 
L 77.414458 58.53605 
L 77.7653 58.53605 
L 77.880502 60.645327 
L 81.985877 60.645327 
L 82.101079 59.942235 
L 183.557261 59.942235 
L 183.672463 59.520379 
L 398.487273 59.520379 
L 398.487273 59.520379 
" clip-path="url(#pb8060a710d)" style="fill: none; stroke: #7f7f7f; stroke-width: 1.5; stroke-linecap: square"/>
   </g>
   <g id="line2d_22">
    <path d="M 73.832727 65.039654 
L 73.837964 65.039654 
L 73.974111 75.761812 
L 73.995057 75.234492 
L 74.021239 79.453046 
L 74.057895 78.398408 
L 74.073604 78.398408 
L 74.07884 77.976552 
L 74.099786 84.304383 
L 74.125968 82.722425 
L 74.152151 82.722425 
L 74.272589 87.995618 
L 74.288298 87.995618 
L 74.356372 92.214172 
L 74.4035 91.686852 
L 74.466337 91.686852 
L 74.482047 91.159533 
L 74.487283 93.26881 
L 74.56583 92.741491 
L 74.602485 92.741491 
L 74.618194 92.214172 
L 74.660086 96.432725 
L 74.665323 96.432725 
L 74.72816 100.229424 
L 74.780524 99.174785 
L 74.885253 99.174785 
L 75.016165 107.611893 
L 75.089475 107.611893 
L 75.21515 106.029935 
L 75.262278 106.029935 
L 75.377479 109.299315 
L 75.393189 109.299315 
L 75.492681 111.408591 
L 75.503154 110.881272 
L 75.576464 110.881272 
L 75.691666 112.990549 
L 75.911597 112.990549 
L 76.026799 115.099826 
L 76.126292 115.099826 
L 76.241493 114.572507 
L 76.812266 114.572507 
L 76.927468 116.681784 
L 77.225946 116.681784 
L 77.341147 119.845699 
L 77.7653 119.845699 
L 77.880502 123.536934 
L 77.979994 123.536934 
L 78.095196 125.646211 
L 78.16327 125.646211 
L 78.199925 125.118891 
L 78.205161 127.228168 
L 78.257526 127.228168 
L 78.377964 127.228168 
L 78.493166 126.700849 
L 78.718333 126.700849 
L 78.786407 126.17353 
L 78.791644 128.282807 
L 78.812589 128.282807 
L 79.084885 128.282807 
L 79.200087 127.860951 
L 79.231505 127.860951 
L 79.346707 127.333632 
L 79.414781 127.333632 
L 79.529983 129.442909 
L 79.807515 129.442909 
L 79.838933 131.552186 
L 79.922716 131.130331 
L 80.053628 131.130331 
L 80.168829 133.239608 
L 80.341632 133.239608 
L 80.456834 135.348884 
L 81.530306 135.348884 
L 81.645508 134.821565 
L 81.985877 134.821565 
L 82.101079 138.5128 
L 82.279118 138.5128 
L 82.39432 137.985481 
L 83.195496 137.985481 
L 83.310698 137.458161 
L 83.83958 137.458161 
L 83.954781 139.567438 
L 84.525554 139.567438 
L 84.63552 139.040119 
L 84.750722 141.149396 
L 86.044124 141.149396 
L 86.159326 143.258673 
L 86.562533 143.258673 
L 86.677734 142.836817 
L 92.68394 142.836817 
L 92.799142 142.309498 
L 94.05589 142.309498 
L 94.171092 141.782179 
L 95.563987 141.782179 
L 95.679189 143.891456 
L 100.67476 143.891456 
L 100.789962 143.364137 
L 101.659212 143.364137 
L 101.774414 145.473414 
L 102.460389 145.473414 
L 102.575591 147.582691 
L 103.355822 147.582691 
L 103.471023 149.691967 
L 106.58671 149.691967 
L 106.701912 149.164648 
L 111.917414 149.164648 
L 112.032616 148.637329 
L 113.535477 148.637329 
L 113.650679 150.746606 
L 131.57504 150.746606 
L 131.690242 150.324751 
L 147.661409 150.324751 
L 147.776611 152.434027 
L 170.413776 152.434027 
L 170.528978 151.906708 
L 190.170895 151.906708 
L 190.286096 151.379389 
L 208.084784 151.379389 
L 208.199985 153.488666 
L 224.919964 153.488666 
L 225.035166 155.597943 
L 227.841902 155.597943 
L 227.957104 155.176087 
L 257.668711 155.176087 
L 257.783912 154.824541 
L 308.352292 154.824541 
L 308.467494 156.933818 
L 356.852274 156.933818 
L 356.967476 156.406499 
L 372.247431 156.406499 
L 372.362633 155.984644 
L 398.487273 155.984644 
L 398.487273 155.984644 
" clip-path="url(#pb8060a710d)" style="fill: none; stroke: #bcbd22; stroke-width: 1.5; stroke-linecap: square"/>
   </g>
   <g id="line2d_23">
    <path d="M 73.832727 61.875739 
L 73.837964 61.875739 
L 73.953166 71.191712 
L 73.968875 70.488619 
L 73.974111 70.488619 
L 74.07884 67.430168 
L 74.09455 69.539445 
L 74.099786 69.539445 
L 74.157387 70.066764 
L 74.225461 67.957487 
L 74.288298 67.957487 
L 74.356372 70.066764 
L 74.398264 69.539445 
L 74.466337 69.539445 
L 74.597249 67.430168 
L 74.602485 67.430168 
L 74.701978 66.480993 
L 74.72816 68.59027 
L 74.811943 67.535632 
L 74.927145 67.535632 
L 75.042347 69.644909 
L 75.089475 69.644909 
L 75.21515 68.062951 
L 75.262278 68.062951 
L 75.28846 70.172228 
L 75.372243 69.223053 
L 75.492681 69.223053 
L 75.607883 68.695734 
L 76.126292 68.695734 
L 76.241493 68.168415 
L 76.304331 68.168415 
L 76.419533 67.113776 
L 77.225946 67.113776 
L 77.246891 69.223053 
L 77.335911 68.168415 
L 77.7653 68.168415 
L 77.770536 70.277692 
L 77.875265 69.750372 
L 77.979994 69.750372 
L 78.069014 71.859649 
L 78.08996 70.805011 
L 78.16327 70.805011 
L 78.278472 70.277692 
L 78.377964 70.277692 
L 78.493166 69.750372 
L 78.718333 69.750372 
L 78.833535 69.223053 
L 79.084885 69.223053 
L 79.200087 68.801198 
L 79.231505 68.801198 
L 79.346707 68.273879 
L 79.838933 68.273879 
L 79.954135 67.852023 
L 81.530306 67.852023 
L 81.645508 67.324704 
L 81.985877 67.324704 
L 82.101079 71.015939 
L 82.279118 71.015939 
L 82.39432 70.488619 
L 83.195496 70.488619 
L 83.310698 69.9613 
L 84.525554 69.9613 
L 84.640756 69.433981 
L 86.044124 69.433981 
L 86.159326 71.543258 
L 86.562533 71.543258 
L 86.677734 71.121402 
L 92.68394 71.121402 
L 92.799142 70.594083 
L 94.05589 70.594083 
L 94.171092 70.066764 
L 100.67476 70.066764 
L 100.789962 69.539445 
L 101.659212 69.539445 
L 101.774414 71.648722 
L 106.58671 71.648722 
L 106.701912 71.121402 
L 111.917414 71.121402 
L 112.032616 70.594083 
L 131.57504 70.594083 
L 131.690242 72.70336 
L 170.413776 72.70336 
L 170.528978 72.176041 
L 183.557261 72.176041 
L 183.672463 71.754186 
L 190.170895 71.754186 
L 190.286096 71.226866 
L 227.841902 71.226866 
L 227.957104 70.805011 
L 257.668711 70.805011 
L 257.783912 70.453465 
L 356.852274 70.453465 
L 356.967476 69.926146 
L 372.247431 69.926146 
L 372.362633 72.035422 
L 386.621481 72.035422 
L 386.736683 74.144699 
L 398.487273 74.144699 
L 398.487273 74.144699 
" clip-path="url(#pb8060a710d)" style="fill: none; stroke: #17becf; stroke-width: 1.5; stroke-linecap: square"/>
   </g>
   <g id="line2d_24">
    <path d="M 73.832727 62.930377 
L 73.837964 62.930377 
L 73.963638 69.258208 
L 74.220224 69.258208 
L 74.335426 71.367485 
L 74.618194 71.367485 
L 74.733396 73.476762 
L 77.299256 73.476762 
L 77.414458 75.586039 
L 77.7653 75.586039 
L 77.880502 74.882946 
L 81.985877 74.882946 
L 82.101079 76.992223 
L 183.557261 76.992223 
L 183.672463 79.1015 
L 398.487273 79.1015 
L 398.487273 79.1015 
" clip-path="url(#pb8060a710d)" style="fill: none; stroke: #1f77b4; stroke-width: 1.5; stroke-linecap: square"/>
   </g>
   <g id="line2d_25">
    <path d="M 73.832727 61.875739 
L 73.8432 61.875739 
L 73.958402 60.293781 
L 74.701978 60.293781 
L 74.81718 62.403058 
L 81.985877 62.403058 
L 82.101079 64.512335 
L 86.044124 64.512335 
L 86.159326 66.621612 
L 131.57504 66.621612 
L 131.690242 68.730889 
L 183.557261 68.730889 
L 183.672463 70.840166 
L 257.668711 70.840166 
L 257.783912 72.949442 
L 372.247431 72.949442 
L 372.362633 75.058719 
L 398.487273 75.058719 
L 398.487273 75.058719 
" clip-path="url(#pb8060a710d)" style="fill: none; stroke: #ff7f0e; stroke-width: 1.5; stroke-linecap: square"/>
   </g>
   <g id="patch_3">
    <path d="M 57.6 162.432 
L 57.6 41.472 
" style="fill: none; stroke: #000000; stroke-width: 0.8; stroke-linejoin: miter; stroke-linecap: square"/>
   </g>
   <g id="patch_4">
    <path d="M 414.72 162.432 
L 414.72 41.472 
" style="fill: none; stroke: #000000; stroke-width: 0.8; stroke-linejoin: miter; stroke-linecap: square"/>
   </g>
   <g id="patch_5">
    <path d="M 57.6 162.432 
L 414.72 162.432 
" style="fill: none; stroke: #000000; stroke-width: 0.8; stroke-linejoin: miter; stroke-linecap: square"/>
   </g>
   <g id="patch_6">
    <path d="M 57.6 41.472 
L 414.72 41.472 
" style="fill: none; stroke: #000000; stroke-width: 0.8; stroke-linejoin: miter; stroke-linecap: square"/>
   </g>
   <g id="text_14">
    <!-- WSP -->
    <g transform="translate(361.832136 46.970182)scale(0.08 -0.08)">
     <defs>
      <path id="DejaVuSans-57" d="M 213 4666 
L 850 4666 
L 1831 722 
L 2809 4666 
L 3519 4666 
L 4500 722 
L 5478 4666 
L 6119 4666 
L 4947 0 
L 4153 0 
L 3169 4050 
L 2175 0 
L 1381 0 
L 213 4666 
z
" transform="scale(0.015625)"/>
      <path id="DejaVuSans-53" d="M 3425 4513 
L 3425 3897 
Q 3066 4069 2747 4153 
Q 2428 4238 2131 4238 
Q 1616 4238 1336 4038 
Q 1056 3838 1056 3469 
Q 1056 3159 1242 3001 
Q 1428 2844 1947 2747 
L 2328 2669 
Q 3034 2534 3370 2195 
Q 3706 1856 3706 1288 
Q 3706 609 3251 259 
Q 2797 -91 1919 -91 
Q 1588 -91 1214 -16 
Q 841 59 441 206 
L 441 856 
Q 825 641 1194 531 
Q 1563 422 1919 422 
Q 2459 422 2753 634 
Q 3047 847 3047 1241 
Q 3047 1584 2836 1778 
Q 2625 1972 2144 2069 
L 1759 2144 
Q 1053 2284 737 2584 
Q 422 2884 422 3419 
Q 422 4038 858 4394 
Q 1294 4750 2059 4750 
Q 2388 4750 2728 4690 
Q 3069 4631 3425 4513 
z
" transform="scale(0.015625)"/>
      <path id="DejaVuSans-50" d="M 1259 4147 
L 1259 2394 
L 2053 2394 
Q 2494 2394 2734 2622 
Q 2975 2850 2975 3272 
Q 2975 3691 2734 3919 
Q 2494 4147 2053 4147 
L 1259 4147 
z
M 628 4666 
L 2053 4666 
Q 2838 4666 3239 4311 
Q 3641 3956 3641 3272 
Q 3641 2581 3239 2228 
Q 2838 1875 2053 1875 
L 1259 1875 
L 1259 0 
L 628 0 
L 628 4666 
z
" transform="scale(0.015625)"/>
     </defs>
     <use xlink:href="#DejaVuSans-57"/>
     <use xlink:href="#DejaVuSans-53" x="98.876953"/>
     <use xlink:href="#DejaVuSans-50" x="162.353516"/>
    </g>
   </g>
   <g id="text_15">
    <!-- Iambic -->
    <g transform="translate(361.832136 95.448396)scale(0.08 -0.08)">
     <defs>
      <path id="DejaVuSans-49" d="M 628 4666 
L 1259 4666 
L 1259 0 
L 628 0 
L 628 4666 
z
" transform="scale(0.015625)"/>
      <path id="DejaVuSans-61" d="M 2194 1759 
Q 1497 1759 1228 1600 
Q 959 1441 959 1056 
Q 959 750 1161 570 
Q 1363 391 1709 391 
Q 2188 391 2477 730 
Q 2766 1069 2766 1631 
L 2766 1759 
L 2194 1759 
z
M 3341 1997 
L 3341 0 
L 2766 0 
L 2766 531 
Q 2569 213 2275 61 
Q 1981 -91 1556 -91 
Q 1019 -91 701 211 
Q 384 513 384 1019 
Q 384 1609 779 1909 
Q 1175 2209 1959 2209 
L 2766 2209 
L 2766 2266 
Q 2766 2663 2505 2880 
Q 2244 3097 1772 3097 
Q 1472 3097 1187 3025 
Q 903 2953 641 2809 
L 641 3341 
Q 956 3463 1253 3523 
Q 1550 3584 1831 3584 
Q 2591 3584 2966 3190 
Q 3341 2797 3341 1997 
z
" transform="scale(0.015625)"/>
      <path id="DejaVuSans-6d" d="M 3328 2828 
Q 3544 3216 3844 3400 
Q 4144 3584 4550 3584 
Q 5097 3584 5394 3201 
Q 5691 2819 5691 2113 
L 5691 0 
L 5113 0 
L 5113 2094 
Q 5113 2597 4934 2840 
Q 4756 3084 4391 3084 
Q 3944 3084 3684 2787 
Q 3425 2491 3425 1978 
L 3425 0 
L 2847 0 
L 2847 2094 
Q 2847 2600 2669 2842 
Q 2491 3084 2119 3084 
Q 1678 3084 1418 2786 
Q 1159 2488 1159 1978 
L 1159 0 
L 581 0 
L 581 3500 
L 1159 3500 
L 1159 2956 
Q 1356 3278 1631 3431 
Q 1906 3584 2284 3584 
Q 2666 3584 2933 3390 
Q 3200 3197 3328 2828 
z
" transform="scale(0.015625)"/>
      <path id="DejaVuSans-62" d="M 3116 1747 
Q 3116 2381 2855 2742 
Q 2594 3103 2138 3103 
Q 1681 3103 1420 2742 
Q 1159 2381 1159 1747 
Q 1159 1113 1420 752 
Q 1681 391 2138 391 
Q 2594 391 2855 752 
Q 3116 1113 3116 1747 
z
M 1159 2969 
Q 1341 3281 1617 3432 
Q 1894 3584 2278 3584 
Q 2916 3584 3314 3078 
Q 3713 2572 3713 1747 
Q 3713 922 3314 415 
Q 2916 -91 2278 -91 
Q 1894 -91 1617 61 
Q 1341 213 1159 525 
L 1159 0 
L 581 0 
L 581 4863 
L 1159 4863 
L 1159 2969 
z
" transform="scale(0.015625)"/>
      <path id="DejaVuSans-69" d="M 603 3500 
L 1178 3500 
L 1178 0 
L 603 0 
L 603 3500 
z
M 603 4863 
L 1178 4863 
L 1178 4134 
L 603 4134 
L 603 4863 
z
" transform="scale(0.015625)"/>
      <path id="DejaVuSans-63" d="M 3122 3366 
L 3122 2828 
Q 2878 2963 2633 3030 
Q 2388 3097 2138 3097 
Q 1578 3097 1268 2742 
Q 959 2388 959 1747 
Q 959 1106 1268 751 
Q 1578 397 2138 397 
Q 2388 397 2633 464 
Q 2878 531 3122 666 
L 3122 134 
Q 2881 22 2623 -34 
Q 2366 -91 2075 -91 
Q 1284 -91 818 406 
Q 353 903 353 1747 
Q 353 2603 823 3093 
Q 1294 3584 2113 3584 
Q 2378 3584 2631 3529 
Q 2884 3475 3122 3366 
z
" transform="scale(0.015625)"/>
     </defs>
     <use xlink:href="#DejaVuSans-49"/>
     <use xlink:href="#DejaVuSans-61" x="29.492188"/>
     <use xlink:href="#DejaVuSans-6d" x="90.771484"/>
     <use xlink:href="#DejaVuSans-62" x="188.183594"/>
     <use xlink:href="#DejaVuSans-69" x="251.660156"/>
     <use xlink:href="#DejaVuSans-63" x="279.443359"/>
    </g>
   </g>
   <g id="text_16">
    <!-- Parse -->
    <g transform="translate(361.832136 146.246815)scale(0.08 -0.08)">
     <defs>
      <path id="DejaVuSans-72" d="M 2631 2963 
Q 2534 3019 2420 3045 
Q 2306 3072 2169 3072 
Q 1681 3072 1420 2755 
Q 1159 2438 1159 1844 
L 1159 0 
L 581 0 
L 581 3500 
L 1159 3500 
L 1159 2956 
Q 1341 3275 1631 3429 
Q 1922 3584 2338 3584 
Q 2397 3584 2469 3576 
Q 2541 3569 2628 3553 
L 2631 2963 
z
" transform="scale(0.015625)"/>
      <path id="DejaVuSans-73" d="M 2834 3397 
L 2834 2853 
Q 2591 2978 2328 3040 
Q 2066 3103 1784 3103 
Q 1356 3103 1142 2972 
Q 928 2841 928 2578 
Q 928 2378 1081 2264 
Q 1234 2150 1697 2047 
L 1894 2003 
Q 2506 1872 2764 1633 
Q 3022 1394 3022 966 
Q 3022 478 2636 193 
Q 2250 -91 1575 -91 
Q 1294 -91 989 -36 
Q 684 19 347 128 
L 347 722 
Q 666 556 975 473 
Q 1284 391 1588 391 
Q 1994 391 2212 530 
Q 2431 669 2431 922 
Q 2431 1156 2273 1281 
Q 2116 1406 1581 1522 
L 1381 1569 
Q 847 1681 609 1914 
Q 372 2147 372 2553 
Q 372 3047 722 3315 
Q 1072 3584 1716 3584 
Q 2034 3584 2315 3537 
Q 2597 3491 2834 3397 
z
" transform="scale(0.015625)"/>
      <path id="DejaVuSans-65" d="M 3597 1894 
L 3597 1613 
L 953 1613 
Q 991 1019 1311 708 
Q 1631 397 2203 397 
Q 2534 397 2845 478 
Q 3156 559 3463 722 
L 3463 178 
Q 3153 47 2828 -22 
Q 2503 -91 2169 -91 
Q 1331 -91 842 396 
Q 353 884 353 1716 
Q 353 2575 817 3079 
Q 1281 3584 2069 3584 
Q 2775 3584 3186 3129 
Q 3597 2675 3597 1894 
z
M 3022 2063 
Q 3016 2534 2758 2815 
Q 2500 3097 2075 3097 
Q 1594 3097 1305 2825 
Q 1016 2553 972 2059 
L 3022 2063 
z
" transform="scale(0.015625)"/>
     </defs>
     <use xlink:href="#DejaVuSans-50"/>
     <use xlink:href="#DejaVuSans-61" x="55.802734"/>
     <use xlink:href="#DejaVuSans-72" x="117.082031"/>
     <use xlink:href="#DejaVuSans-73" x="158.195312"/>
     <use xlink:href="#DejaVuSans-65" x="210.294922"/>
    </g>
   </g>
   <g id="text_17">
    <!-- FootBin -->
    <g transform="translate(361.832136 115.978691)scale(0.08 -0.08)">
     <defs>
      <path id="DejaVuSans-46" d="M 628 4666 
L 3309 4666 
L 3309 4134 
L 1259 4134 
L 1259 2759 
L 3109 2759 
L 3109 2228 
L 1259 2228 
L 1259 0 
L 628 0 
L 628 4666 
z
" transform="scale(0.015625)"/>
      <path id="DejaVuSans-6f" d="M 1959 3097 
Q 1497 3097 1228 2736 
Q 959 2375 959 1747 
Q 959 1119 1226 758 
Q 1494 397 1959 397 
Q 2419 397 2687 759 
Q 2956 1122 2956 1747 
Q 2956 2369 2687 2733 
Q 2419 3097 1959 3097 
z
M 1959 3584 
Q 2709 3584 3137 3096 
Q 3566 2609 3566 1747 
Q 3566 888 3137 398 
Q 2709 -91 1959 -91 
Q 1206 -91 779 398 
Q 353 888 353 1747 
Q 353 2609 779 3096 
Q 1206 3584 1959 3584 
z
" transform="scale(0.015625)"/>
      <path id="DejaVuSans-74" d="M 1172 4494 
L 1172 3500 
L 2356 3500 
L 2356 3053 
L 1172 3053 
L 1172 1153 
Q 1172 725 1289 603 
Q 1406 481 1766 481 
L 2356 481 
L 2356 0 
L 1766 0 
Q 1100 0 847 248 
Q 594 497 594 1153 
L 594 3053 
L 172 3053 
L 172 3500 
L 594 3500 
L 594 4494 
L 1172 4494 
z
" transform="scale(0.015625)"/>
      <path id="DejaVuSans-42" d="M 1259 2228 
L 1259 519 
L 2272 519 
Q 2781 519 3026 730 
Q 3272 941 3272 1375 
Q 3272 1813 3026 2020 
Q 2781 2228 2272 2228 
L 1259 2228 
z
M 1259 4147 
L 1259 2741 
L 2194 2741 
Q 2656 2741 2882 2914 
Q 3109 3088 3109 3444 
Q 3109 3797 2882 3972 
Q 2656 4147 2194 4147 
L 1259 4147 
z
M 628 4666 
L 2241 4666 
Q 2963 4666 3353 4366 
Q 3744 4066 3744 3513 
Q 3744 3084 3544 2831 
Q 3344 2578 2956 2516 
Q 3422 2416 3680 2098 
Q 3938 1781 3938 1306 
Q 3938 681 3513 340 
Q 3088 0 2303 0 
L 628 0 
L 628 4666 
z
" transform="scale(0.015625)"/>
      <path id="DejaVuSans-6e" d="M 3513 2113 
L 3513 0 
L 2938 0 
L 2938 2094 
Q 2938 2591 2744 2837 
Q 2550 3084 2163 3084 
Q 1697 3084 1428 2787 
Q 1159 2491 1159 1978 
L 1159 0 
L 581 0 
L 581 3500 
L 1159 3500 
L 1159 2956 
Q 1366 3272 1645 3428 
Q 1925 3584 2291 3584 
Q 2894 3584 3203 3211 
Q 3513 2838 3513 2113 
z
" transform="scale(0.015625)"/>
     </defs>
     <use xlink:href="#DejaVuSans-46"/>
     <use xlink:href="#DejaVuSans-6f" x="53.894531"/>
     <use xlink:href="#DejaVuSans-6f" x="115.076172"/>
     <use xlink:href="#DejaVuSans-74" x="176.257812"/>
     <use xlink:href="#DejaVuSans-42" x="215.466797"/>
     <use xlink:href="#DejaVuSans-69" x="284.070312"/>
     <use xlink:href="#DejaVuSans-6e" x="311.853516"/>
    </g>
   </g>
   <g id="text_18">
    <!-- WFL -->
    <g transform="translate(361.832136 109.018078)scale(0.08 -0.08)">
     <defs>
      <path id="DejaVuSans-4c" d="M 628 4666 
L 1259 4666 
L 1259 531 
L 3531 531 
L 3531 0 
L 628 0 
L 628 4666 
z
" transform="scale(0.015625)"/>
     </defs>
     <use xlink:href="#DejaVuSans-57"/>
     <use xlink:href="#DejaVuSans-46" x="98.876953"/>
     <use xlink:href="#DejaVuSans-4c" x="156.396484"/>
    </g>
   </g>
   <g id="text_19">
    <!-- WFR -->
    <g transform="translate(361.832136 60.047699)scale(0.08 -0.08)">
     <defs>
      <path id="DejaVuSans-52" d="M 2841 2188 
Q 3044 2119 3236 1894 
Q 3428 1669 3622 1275 
L 4263 0 
L 3584 0 
L 2988 1197 
Q 2756 1666 2539 1819 
Q 2322 1972 1947 1972 
L 1259 1972 
L 1259 0 
L 628 0 
L 628 4666 
L 2053 4666 
Q 2853 4666 3247 4331 
Q 3641 3997 3641 3322 
Q 3641 2881 3436 2590 
Q 3231 2300 2841 2188 
z
M 1259 4147 
L 1259 2491 
L 2053 2491 
Q 2509 2491 2742 2702 
Q 2975 2913 2975 3322 
Q 2975 3731 2742 3939 
Q 2509 4147 2053 4147 
L 1259 4147 
z
" transform="scale(0.015625)"/>
     </defs>
     <use xlink:href="#DejaVuSans-57"/>
     <use xlink:href="#DejaVuSans-46" x="98.876953"/>
     <use xlink:href="#DejaVuSans-52" x="156.396484"/>
    </g>
   </g>
   <g id="text_20">
    <!-- Main-L -->
    <g transform="translate(361.832136 134.188782)scale(0.08 -0.08)">
     <defs>
      <path id="DejaVuSans-4d" d="M 628 4666 
L 1569 4666 
L 2759 1491 
L 3956 4666 
L 4897 4666 
L 4897 0 
L 4281 0 
L 4281 4097 
L 3078 897 
L 2444 897 
L 1241 4097 
L 1241 0 
L 628 0 
L 628 4666 
z
" transform="scale(0.015625)"/>
      <path id="DejaVuSans-2d" d="M 313 2009 
L 1997 2009 
L 1997 1497 
L 313 1497 
L 313 2009 
z
" transform="scale(0.015625)"/>
     </defs>
     <use xlink:href="#DejaVuSans-4d"/>
     <use xlink:href="#DejaVuSans-61" x="86.279297"/>
     <use xlink:href="#DejaVuSans-69" x="147.558594"/>
     <use xlink:href="#DejaVuSans-6e" x="175.341797"/>
     <use xlink:href="#DejaVuSans-2d" x="238.720703"/>
     <use xlink:href="#DejaVuSans-4c" x="274.804688"/>
    </g>
   </g>
   <g id="text_21">
    <!-- Main-R -->
    <g transform="translate(361.832136 59.520379)scale(0.08 -0.08)">
     <use xlink:href="#DejaVuSans-4d"/>
     <use xlink:href="#DejaVuSans-61" x="86.279297"/>
     <use xlink:href="#DejaVuSans-69" x="147.558594"/>
     <use xlink:href="#DejaVuSans-6e" x="175.341797"/>
     <use xlink:href="#DejaVuSans-2d" x="238.720703"/>
     <use xlink:href="#DejaVuSans-52" x="274.804688"/>
    </g>
   </g>
   <g id="text_22">
    <!-- AFL -->
    <g transform="translate(361.832136 155.984644)scale(0.08 -0.08)">
     <defs>
      <path id="DejaVuSans-41" d="M 2188 4044 
L 1331 1722 
L 3047 1722 
L 2188 4044 
z
M 1831 4666 
L 2547 4666 
L 4325 0 
L 3669 0 
L 3244 1197 
L 1141 1197 
L 716 0 
L 50 0 
L 1831 4666 
z
" transform="scale(0.015625)"/>
     </defs>
     <use xlink:href="#DejaVuSans-41"/>
     <use xlink:href="#DejaVuSans-46" x="68.408203"/>
     <use xlink:href="#DejaVuSans-4c" x="125.927734"/>
    </g>
   </g>
   <g id="text_23">
    <!-- AFR -->
    <g transform="translate(361.832136 74.144699)scale(0.08 -0.08)">
     <use xlink:href="#DejaVuSans-41"/>
     <use xlink:href="#DejaVuSans-46" x="68.408203"/>
     <use xlink:href="#DejaVuSans-52" x="125.927734"/>
    </g>
   </g>
   <g id="text_24">
    <!-- Nonfinal -->
    <g transform="translate(361.832136 79.1015)scale(0.08 -0.08)">
     <defs>
      <path id="DejaVuSans-4e" d="M 628 4666 
L 1478 4666 
L 3547 763 
L 3547 4666 
L 4159 4666 
L 4159 0 
L 3309 0 
L 1241 3903 
L 1241 0 
L 628 0 
L 628 4666 
z
" transform="scale(0.015625)"/>
      <path id="DejaVuSans-66" d="M 2375 4863 
L 2375 4384 
L 1825 4384 
Q 1516 4384 1395 4259 
Q 1275 4134 1275 3809 
L 1275 3500 
L 2222 3500 
L 2222 3053 
L 1275 3053 
L 1275 0 
L 697 0 
L 697 3053 
L 147 3053 
L 147 3500 
L 697 3500 
L 697 3744 
Q 697 4328 969 4595 
Q 1241 4863 1831 4863 
L 2375 4863 
z
" transform="scale(0.015625)"/>
      <path id="DejaVuSans-6c" d="M 603 4863 
L 1178 4863 
L 1178 0 
L 603 0 
L 603 4863 
z
" transform="scale(0.015625)"/>
     </defs>
     <use xlink:href="#DejaVuSans-4e"/>
     <use xlink:href="#DejaVuSans-6f" x="74.804688"/>
     <use xlink:href="#DejaVuSans-6e" x="135.986328"/>
     <use xlink:href="#DejaVuSans-66" x="199.365234"/>
     <use xlink:href="#DejaVuSans-69" x="234.570312"/>
     <use xlink:href="#DejaVuSans-6e" x="262.353516"/>
     <use xlink:href="#DejaVuSans-61" x="325.732422"/>
     <use xlink:href="#DejaVuSans-6c" x="387.011719"/>
    </g>
   </g>
   <g id="text_25">
    <!-- Trochaic -->
    <g transform="translate(361.832136 75.058719)scale(0.08 -0.08)">
     <defs>
      <path id="DejaVuSans-54" d="M -19 4666 
L 3928 4666 
L 3928 4134 
L 2272 4134 
L 2272 0 
L 1638 0 
L 1638 4134 
L -19 4134 
L -19 4666 
z
" transform="scale(0.015625)"/>
      <path id="DejaVuSans-68" d="M 3513 2113 
L 3513 0 
L 2938 0 
L 2938 2094 
Q 2938 2591 2744 2837 
Q 2550 3084 2163 3084 
Q 1697 3084 1428 2787 
Q 1159 2491 1159 1978 
L 1159 0 
L 581 0 
L 581 4863 
L 1159 4863 
L 1159 2956 
Q 1366 3272 1645 3428 
Q 1925 3584 2291 3584 
Q 2894 3584 3203 3211 
Q 3513 2838 3513 2113 
z
" transform="scale(0.015625)"/>
     </defs>
     <use xlink:href="#DejaVuSans-54"/>
     <use xlink:href="#DejaVuSans-72" x="46.333984"/>
     <use xlink:href="#DejaVuSans-6f" x="85.197266"/>
     <use xlink:href="#DejaVuSans-63" x="146.378906"/>
     <use xlink:href="#DejaVuSans-68" x="201.359375"/>
     <use xlink:href="#DejaVuSans-61" x="264.738281"/>
     <use xlink:href="#DejaVuSans-69" x="326.017578"/>
     <use xlink:href="#DejaVuSans-63" x="353.800781"/>
    </g>
   </g>
  </g>
  <g id="axes_2">
   <g id="patch_7">
    <path d="M 57.6 307.584 
L 414.72 307.584 
L 414.72 186.624 
L 57.6 186.624 
z
" style="fill: #ffffff"/>
   </g>
   <g id="matplotlib.axis_3">
    <g id="xtick_8">
     <g id="line2d_26">
      <g>
       <use xlink:href="#m94f767a1ef" x="71.127273" y="307.584" style="stroke: #000000; stroke-width: 0.8"/>
      </g>
     </g>
     <g id="text_26">
      <!-- 0 -->
      <g transform="translate(67.946023 322.182437)scale(0.1 -0.1)">
       <use xlink:href="#DejaVuSans-30"/>
      </g>
     </g>
    </g>
    <g id="xtick_9">
     <g id="line2d_27">
      <g>
       <use xlink:href="#m94f767a1ef" x="125.236364" y="307.584" style="stroke: #000000; stroke-width: 0.8"/>
      </g>
     </g>
     <g id="text_27">
      <!-- 20 -->
      <g transform="translate(118.873864 322.182437)scale(0.1 -0.1)">
       <use xlink:href="#DejaVuSans-32"/>
       <use xlink:href="#DejaVuSans-30" x="63.623047"/>
      </g>
     </g>
    </g>
    <g id="xtick_10">
     <g id="line2d_28">
      <g>
       <use xlink:href="#m94f767a1ef" x="179.345455" y="307.584" style="stroke: #000000; stroke-width: 0.8"/>
      </g>
     </g>
     <g id="text_28">
      <!-- 40 -->
      <g transform="translate(172.982955 322.182437)scale(0.1 -0.1)">
       <use xlink:href="#DejaVuSans-34"/>
       <use xlink:href="#DejaVuSans-30" x="63.623047"/>
      </g>
     </g>
    </g>
    <g id="xtick_11">
     <g id="line2d_29">
      <g>
       <use xlink:href="#m94f767a1ef" x="233.454545" y="307.584" style="stroke: #000000; stroke-width: 0.8"/>
      </g>
     </g>
     <g id="text_29">
      <!-- 60 -->
      <g transform="translate(227.092045 322.182437)scale(0.1 -0.1)">
       <use xlink:href="#DejaVuSans-36"/>
       <use xlink:href="#DejaVuSans-30" x="63.623047"/>
      </g>
     </g>
    </g>
    <g id="xtick_12">
     <g id="line2d_30">
      <g>
       <use xlink:href="#m94f767a1ef" x="287.563636" y="307.584" style="stroke: #000000; stroke-width: 0.8"/>
      </g>
     </g>
     <g id="text_30">
      <!-- 80 -->
      <g transform="translate(281.201136 322.182437)scale(0.1 -0.1)">
       <use xlink:href="#DejaVuSans-38"/>
       <use xlink:href="#DejaVuSans-30" x="63.623047"/>
      </g>
     </g>
    </g>
    <g id="xtick_13">
     <g id="line2d_31">
      <g>
       <use xlink:href="#m94f767a1ef" x="341.672727" y="307.584" style="stroke: #000000; stroke-width: 0.8"/>
      </g>
     </g>
     <g id="text_31">
      <!-- 100 -->
      <g transform="translate(332.128977 322.182437)scale(0.1 -0.1)">
       <use xlink:href="#DejaVuSans-31"/>
       <use xlink:href="#DejaVuSans-30" x="63.623047"/>
       <use xlink:href="#DejaVuSans-30" x="127.246094"/>
      </g>
     </g>
    </g>
    <g id="xtick_14">
     <g id="line2d_32">
      <g>
       <use xlink:href="#m94f767a1ef" x="395.781818" y="307.584" style="stroke: #000000; stroke-width: 0.8"/>
      </g>
     </g>
     <g id="text_32">
      <!-- 120 -->
      <g transform="translate(386.238068 322.182437)scale(0.1 -0.1)">
       <use xlink:href="#DejaVuSans-31"/>
       <use xlink:href="#DejaVuSans-32" x="63.623047"/>
       <use xlink:href="#DejaVuSans-30" x="127.246094"/>
      </g>
     </g>
    </g>
   </g>
   <g id="matplotlib.axis_4">
    <g id="ytick_7">
     <g id="line2d_33">
      <g>
       <use xlink:href="#mde3e2f8bf1" x="57.6" y="302.09718" style="stroke: #000000; stroke-width: 0.8"/>
      </g>
     </g>
     <g id="text_33">
      <!-- 0 -->
      <g transform="translate(44.2375 305.896399)scale(0.1 -0.1)">
       <use xlink:href="#DejaVuSans-30"/>
      </g>
     </g>
    </g>
    <g id="ytick_8">
     <g id="line2d_34">
      <g>
       <use xlink:href="#mde3e2f8bf1" x="57.6" y="279.372726" style="stroke: #000000; stroke-width: 0.8"/>
      </g>
     </g>
     <g id="text_34">
      <!-- 2000 -->
      <g transform="translate(25.15 283.171944)scale(0.1 -0.1)">
       <use xlink:href="#DejaVuSans-32"/>
       <use xlink:href="#DejaVuSans-30" x="63.623047"/>
       <use xlink:href="#DejaVuSans-30" x="127.246094"/>
       <use xlink:href="#DejaVuSans-30" x="190.869141"/>
      </g>
     </g>
    </g>
    <g id="ytick_9">
     <g id="line2d_35">
      <g>
       <use xlink:href="#mde3e2f8bf1" x="57.6" y="256.648271" style="stroke: #000000; stroke-width: 0.8"/>
      </g>
     </g>
     <g id="text_35">
      <!-- 4000 -->
      <g transform="translate(25.15 260.44749)scale(0.1 -0.1)">
       <use xlink:href="#DejaVuSans-34"/>
       <use xlink:href="#DejaVuSans-30" x="63.623047"/>
       <use xlink:href="#DejaVuSans-30" x="127.246094"/>
       <use xlink:href="#DejaVuSans-30" x="190.869141"/>
      </g>
     </g>
    </g>
    <g id="ytick_10">
     <g id="line2d_36">
      <g>
       <use xlink:href="#mde3e2f8bf1" x="57.6" y="233.923816" style="stroke: #000000; stroke-width: 0.8"/>
      </g>
     </g>
     <g id="text_36">
      <!-- 6000 -->
      <g transform="translate(25.15 237.723035)scale(0.1 -0.1)">
       <use xlink:href="#DejaVuSans-36"/>
       <use xlink:href="#DejaVuSans-30" x="63.623047"/>
       <use xlink:href="#DejaVuSans-30" x="127.246094"/>
       <use xlink:href="#DejaVuSans-30" x="190.869141"/>
      </g>
     </g>
    </g>
    <g id="ytick_11">
     <g id="line2d_37">
      <g>
       <use xlink:href="#mde3e2f8bf1" x="57.6" y="211.199362" style="stroke: #000000; stroke-width: 0.8"/>
      </g>
     </g>
     <g id="text_37">
      <!-- 8000 -->
      <g transform="translate(25.15 214.99858)scale(0.1 -0.1)">
       <use xlink:href="#DejaVuSans-38"/>
       <use xlink:href="#DejaVuSans-30" x="63.623047"/>
       <use xlink:href="#DejaVuSans-30" x="127.246094"/>
       <use xlink:href="#DejaVuSans-30" x="190.869141"/>
      </g>
     </g>
    </g>
    <g id="ytick_12">
     <g id="line2d_38">
      <g>
       <use xlink:href="#mde3e2f8bf1" x="57.6" y="188.474907" style="stroke: #000000; stroke-width: 0.8"/>
      </g>
     </g>
     <g id="text_38">
      <!-- 10000 -->
      <g transform="translate(18.7875 192.274126)scale(0.1 -0.1)">
       <use xlink:href="#DejaVuSans-31"/>
       <use xlink:href="#DejaVuSans-30" x="63.623047"/>
       <use xlink:href="#DejaVuSans-30" x="127.246094"/>
       <use xlink:href="#DejaVuSans-30" x="190.869141"/>
       <use xlink:href="#DejaVuSans-30" x="254.492188"/>
      </g>
     </g>
    </g>
   </g>
   <g id="line2d_39">
    <path d="M 73.832727 302.074456 
L 76.538182 302.085818 
L 79.243636 302.085818 
L 81.949091 302.085818 
L 84.654545 302.074456 
L 87.36 302.085818 
L 90.065455 302.085818 
L 92.770909 302.074456 
L 95.476364 302.074456 
L 98.181818 302.085818 
L 100.887273 302.085818 
L 103.592727 302.029007 
L 106.298182 302.063094 
L 109.003636 302.063094 
L 111.709091 302.085818 
L 114.414545 302.051731 
L 117.12 302.051731 
L 119.825455 302.063094 
L 122.530909 302.074456 
L 125.236364 302.074456 
L 127.941818 302.051731 
L 130.647273 302.085818 
L 133.352727 302.085818 
L 136.058182 302.074456 
L 138.763636 302.085818 
L 141.469091 302.074456 
L 144.174545 302.085818 
L 146.88 302.017645 
L 149.585455 302.063094 
L 152.290909 302.085818 
L 154.996364 302.029007 
L 157.701818 302.074456 
L 160.407273 302.085818 
L 163.112727 301.949471 
L 165.818182 301.983558 
L 168.523636 302.063094 
L 171.229091 301.858574 
L 173.934545 302.063094 
L 176.64 302.029007 
L 179.345455 302.074456 
L 182.050909 301.926747 
L 184.756364 302.063094 
L 187.461818 302.017645 
L 190.167273 302.074456 
L 192.872727 302.051731 
L 195.578182 302.063094 
L 198.283636 302.040369 
L 200.989091 302.085818 
L 203.694545 301.767676 
L 206.4 302.017645 
L 209.105455 302.085818 
L 211.810909 301.99492 
L 214.516364 301.847211 
L 217.221818 302.074456 
L 219.927273 302.085818 
L 222.632727 301.756314 
L 225.338182 302.040369 
L 228.043636 302.085818 
L 230.749091 301.972196 
L 233.454545 302.006283 
L 236.16 301.881298 
L 238.865455 301.915385 
L 241.570909 301.369998 
L 244.276364 301.631329 
L 246.981818 301.710865 
L 249.687273 300.995044 
L 252.392727 301.199564 
L 255.098182 302.051731 
L 257.803636 302.051731 
L 260.509091 302.029007 
L 263.214545 301.085942 
L 265.92 302.085818 
L 268.625455 302.051731 
L 271.330909 301.68814 
L 274.036364 301.904023 
L 276.741818 301.89266 
L 279.447273 302.017645 
L 282.152727 301.710865 
L 284.858182 301.358636 
L 287.563636 301.949471 
L 290.269091 301.449533 
L 292.974545 301.779038 
L 295.68 301.699502 
L 298.385455 301.245013 
L 301.090909 302.029007 
L 303.796364 301.631329 
L 306.501818 301.472258 
L 309.207273 299.517955 
L 311.912727 301.108667 
L 314.618182 302.029007 
L 317.323636 301.972196 
L 320.029091 301.654054 
L 322.734545 300.108791 
L 325.44 300.699626 
L 328.145455 300.608729 
L 330.850909 301.858574 
L 333.556364 299.040741 
L 336.261818 300.97232 
L 338.967273 288.814737 
L 341.672727 299.120277 
L 344.378182 298.824859 
L 347.083636 291.007647 
L 349.789091 299.961082 
L 352.494545 300.35876 
L 355.2 300.15424 
L 357.905455 295.086686 
L 360.610909 290.530433 
L 363.316364 298.586252 
L 366.021818 262.954307 
L 368.727273 267.192418 
L 371.432727 252.728303 
L 374.138182 273.57799 
L 376.843636 287.746687 
L 379.549091 263.227001 
L 382.254545 265.567619 
L 384.96 295.757058 
L 387.665455 237.377933 
L 390.370909 192.122182 
L 393.076364 196.860231 
L 395.781818 268.692232 
L 398.487273 270.907866 
" clip-path="url(#pfa886b2dd6)" style="fill: none; stroke: #1f77b4; stroke-width: 1.5; stroke-linecap: square"/>
   </g>
   <g id="patch_8">
    <path d="M 57.6 307.584 
L 57.6 186.624 
" style="fill: none; stroke: #000000; stroke-width: 0.8; stroke-linejoin: miter; stroke-linecap: square"/>
   </g>
   <g id="patch_9">
    <path d="M 414.72 307.584 
L 414.72 186.624 
" style="fill: none; stroke: #000000; stroke-width: 0.8; stroke-linejoin: miter; stroke-linecap: square"/>
   </g>
   <g id="patch_10">
    <path d="M 57.6 307.584 
L 414.72 307.584 
" style="fill: none; stroke: #000000; stroke-width: 0.8; stroke-linejoin: miter; stroke-linecap: square"/>
   </g>
   <g id="patch_11">
    <path d="M 57.6 186.624 
L 414.72 186.624 
" style="fill: none; stroke: #000000; stroke-width: 0.8; stroke-linejoin: miter; stroke-linecap: square"/>
   </g>
  </g>
 </g>
 <defs>
  <clipPath id="pb8060a710d">
   <rect x="57.6" y="41.472" width="357.12" height="120.96"/>
  </clipPath>
  <clipPath id="pfa886b2dd6">
   <rect x="57.6" y="186.624" width="357.12" height="120.96"/>
  </clipPath>
 </defs>
</svg>
