<?xml version="1.0" encoding="utf-8" standalone="no"?>
<!DOCTYPE svg PUBLIC "-//W3C//DTD SVG 1.1//EN"
  "http://www.w3.org/Graphics/SVG/1.1/DTD/svg11.dtd">
<svg xmlns:xlink="http://www.w3.org/1999/xlink" width="460.8pt" height="345.6pt" viewBox="0 0 460.8 345.6" xmlns="http://www.w3.org/2000/svg" version="1.1">
 <metadata>
  <rdf:RDF xmlns:dc="http://purl.org/dc/elements/1.1/" xmlns:cc="http://creativecommons.org/ns#" xmlns:rdf="http://www.w3.org/1999/02/22-rdf-syntax-ns#">
   <cc:Work>
    <dc:type rdf:resource="http://purl.org/dc/dcmitype/StillImage"/>
    <dc:date>2022-05-14T05:23:38.068824</dc:date>
    <dc:format>image/svg+xml</dc:format>
    <dc:creator>
     <cc:Agent>
      <dc:title>Matplotlib v3.5.1, https://matplotlib.org/</dc:title>
     </cc:Agent>
    </dc:creator>
   </cc:Work>
  </rdf:RDF>
 </metadata>
 <defs>
  <style type="text/css">*{stroke-linejoin: round; stroke-linecap: butt}</style>
 </defs>
 <g id="figure_1">
  <g id="patch_1">
   <path d="M 0 345.6 
L 460.8 345.6 
L 460.8 0 
L 0 0 
z
" style="fill: #ffffff"/>
  </g>
  <g id="axes_1">
   <g id="patch_2">
    <path d="M 57.6 162.432 
L 414.72 162.432 
L 414.72 41.472 
L 57.6 41.472 
z
" style="fill: #ffffff"/>
   </g>
   <g id="matplotlib.axis_1">
    <g id="xtick_1">
     <g id="line2d_1">
      <defs>
       <path id="mbb4b8d8a86" d="M 0 0 
L 0 3.5 
" style="stroke: #000000; stroke-width: 0.8"/>
      </defs>
      <g>
       <use xlink:href="#mbb4b8d8a86" x="73.827491" y="162.432" style="stroke: #000000; stroke-width: 0.8"/>
      </g>
     </g>
     <g id="text_1">
      <!-- 0 -->
      <g transform="translate(70.646241 177.030437)scale(0.1 -0.1)">
       <defs>
        <path id="DejaVuSans-30" d="M 2034 4250 
Q 1547 4250 1301 3770 
Q 1056 3291 1056 2328 
Q 1056 1369 1301 889 
Q 1547 409 2034 409 
Q 2525 409 2770 889 
Q 3016 1369 3016 2328 
Q 3016 3291 2770 3770 
Q 2525 4250 2034 4250 
z
M 2034 4750 
Q 2819 4750 3233 4129 
Q 3647 3509 3647 2328 
Q 3647 1150 3233 529 
Q 2819 -91 2034 -91 
Q 1250 -91 836 529 
Q 422 1150 422 2328 
Q 422 3509 836 4129 
Q 1250 4750 2034 4750 
z
" transform="scale(0.015625)"/>
       </defs>
       <use xlink:href="#DejaVuSans-30"/>
      </g>
     </g>
    </g>
    <g id="xtick_2">
     <g id="line2d_2">
      <g>
       <use xlink:href="#mbb4b8d8a86" x="126.191972" y="162.432" style="stroke: #000000; stroke-width: 0.8"/>
      </g>
     </g>
     <g id="text_2">
      <!-- 10000 -->
      <g transform="translate(110.285722 177.030437)scale(0.1 -0.1)">
       <defs>
        <path id="DejaVuSans-31" d="M 794 531 
L 1825 531 
L 1825 4091 
L 703 3866 
L 703 4441 
L 1819 4666 
L 2450 4666 
L 2450 531 
L 3481 531 
L 3481 0 
L 794 0 
L 794 531 
z
" transform="scale(0.015625)"/>
       </defs>
       <use xlink:href="#DejaVuSans-31"/>
       <use xlink:href="#DejaVuSans-30" x="63.623047"/>
       <use xlink:href="#DejaVuSans-30" x="127.246094"/>
       <use xlink:href="#DejaVuSans-30" x="190.869141"/>
       <use xlink:href="#DejaVuSans-30" x="254.492188"/>
      </g>
     </g>
    </g>
    <g id="xtick_3">
     <g id="line2d_3">
      <g>
       <use xlink:href="#mbb4b8d8a86" x="178.556453" y="162.432" style="stroke: #000000; stroke-width: 0.8"/>
      </g>
     </g>
     <g id="text_3">
      <!-- 20000 -->
      <g transform="translate(162.650203 177.030437)scale(0.1 -0.1)">
       <defs>
        <path id="DejaVuSans-32" d="M 1228 531 
L 3431 531 
L 3431 0 
L 469 0 
L 469 531 
Q 828 903 1448 1529 
Q 2069 2156 2228 2338 
Q 2531 2678 2651 2914 
Q 2772 3150 2772 3378 
Q 2772 3750 2511 3984 
Q 2250 4219 1831 4219 
Q 1534 4219 1204 4116 
Q 875 4013 500 3803 
L 500 4441 
Q 881 4594 1212 4672 
Q 1544 4750 1819 4750 
Q 2544 4750 2975 4387 
Q 3406 4025 3406 3419 
Q 3406 3131 3298 2873 
Q 3191 2616 2906 2266 
Q 2828 2175 2409 1742 
Q 1991 1309 1228 531 
z
" transform="scale(0.015625)"/>
       </defs>
       <use xlink:href="#DejaVuSans-32"/>
       <use xlink:href="#DejaVuSans-30" x="63.623047"/>
       <use xlink:href="#DejaVuSans-30" x="127.246094"/>
       <use xlink:href="#DejaVuSans-30" x="190.869141"/>
       <use xlink:href="#DejaVuSans-30" x="254.492188"/>
      </g>
     </g>
    </g>
    <g id="xtick_4">
     <g id="line2d_4">
      <g>
       <use xlink:href="#mbb4b8d8a86" x="230.920934" y="162.432" style="stroke: #000000; stroke-width: 0.8"/>
      </g>
     </g>
     <g id="text_4">
      <!-- 30000 -->
      <g transform="translate(215.014684 177.030437)scale(0.1 -0.1)">
       <defs>
        <path id="DejaVuSans-33" d="M 2597 2516 
Q 3050 2419 3304 2112 
Q 3559 1806 3559 1356 
Q 3559 666 3084 287 
Q 2609 -91 1734 -91 
Q 1441 -91 1130 -33 
Q 819 25 488 141 
L 488 750 
Q 750 597 1062 519 
Q 1375 441 1716 441 
Q 2309 441 2620 675 
Q 2931 909 2931 1356 
Q 2931 1769 2642 2001 
Q 2353 2234 1838 2234 
L 1294 2234 
L 1294 2753 
L 1863 2753 
Q 2328 2753 2575 2939 
Q 2822 3125 2822 3475 
Q 2822 3834 2567 4026 
Q 2313 4219 1838 4219 
Q 1578 4219 1281 4162 
Q 984 4106 628 3988 
L 628 4550 
Q 988 4650 1302 4700 
Q 1616 4750 1894 4750 
Q 2613 4750 3031 4423 
Q 3450 4097 3450 3541 
Q 3450 3153 3228 2886 
Q 3006 2619 2597 2516 
z
" transform="scale(0.015625)"/>
       </defs>
       <use xlink:href="#DejaVuSans-33"/>
       <use xlink:href="#DejaVuSans-30" x="63.623047"/>
       <use xlink:href="#DejaVuSans-30" x="127.246094"/>
       <use xlink:href="#DejaVuSans-30" x="190.869141"/>
       <use xlink:href="#DejaVuSans-30" x="254.492188"/>
      </g>
     </g>
    </g>
    <g id="xtick_5">
     <g id="line2d_5">
      <g>
       <use xlink:href="#mbb4b8d8a86" x="283.285415" y="162.432" style="stroke: #000000; stroke-width: 0.8"/>
      </g>
     </g>
     <g id="text_5">
      <!-- 40000 -->
      <g transform="translate(267.379165 177.030437)scale(0.1 -0.1)">
       <defs>
        <path id="DejaVuSans-34" d="M 2419 4116 
L 825 1625 
L 2419 1625 
L 2419 4116 
z
M 2253 4666 
L 3047 4666 
L 3047 1625 
L 3713 1625 
L 3713 1100 
L 3047 1100 
L 3047 0 
L 2419 0 
L 2419 1100 
L 313 1100 
L 313 1709 
L 2253 4666 
z
" transform="scale(0.015625)"/>
       </defs>
       <use xlink:href="#DejaVuSans-34"/>
       <use xlink:href="#DejaVuSans-30" x="63.623047"/>
       <use xlink:href="#DejaVuSans-30" x="127.246094"/>
       <use xlink:href="#DejaVuSans-30" x="190.869141"/>
       <use xlink:href="#DejaVuSans-30" x="254.492188"/>
      </g>
     </g>
    </g>
    <g id="xtick_6">
     <g id="line2d_6">
      <g>
       <use xlink:href="#mbb4b8d8a86" x="335.649896" y="162.432" style="stroke: #000000; stroke-width: 0.8"/>
      </g>
     </g>
     <g id="text_6">
      <!-- 50000 -->
      <g transform="translate(319.743646 177.030437)scale(0.1 -0.1)">
       <defs>
        <path id="DejaVuSans-35" d="M 691 4666 
L 3169 4666 
L 3169 4134 
L 1269 4134 
L 1269 2991 
Q 1406 3038 1543 3061 
Q 1681 3084 1819 3084 
Q 2600 3084 3056 2656 
Q 3513 2228 3513 1497 
Q 3513 744 3044 326 
Q 2575 -91 1722 -91 
Q 1428 -91 1123 -41 
Q 819 9 494 109 
L 494 744 
Q 775 591 1075 516 
Q 1375 441 1709 441 
Q 2250 441 2565 725 
Q 2881 1009 2881 1497 
Q 2881 1984 2565 2268 
Q 2250 2553 1709 2553 
Q 1456 2553 1204 2497 
Q 953 2441 691 2322 
L 691 4666 
z
" transform="scale(0.015625)"/>
       </defs>
       <use xlink:href="#DejaVuSans-35"/>
       <use xlink:href="#DejaVuSans-30" x="63.623047"/>
       <use xlink:href="#DejaVuSans-30" x="127.246094"/>
       <use xlink:href="#DejaVuSans-30" x="190.869141"/>
       <use xlink:href="#DejaVuSans-30" x="254.492188"/>
      </g>
     </g>
    </g>
    <g id="xtick_7">
     <g id="line2d_7">
      <g>
       <use xlink:href="#mbb4b8d8a86" x="388.014377" y="162.432" style="stroke: #000000; stroke-width: 0.8"/>
      </g>
     </g>
     <g id="text_7">
      <!-- 60000 -->
      <g transform="translate(372.108127 177.030437)scale(0.1 -0.1)">
       <defs>
        <path id="DejaVuSans-36" d="M 2113 2584 
Q 1688 2584 1439 2293 
Q 1191 2003 1191 1497 
Q 1191 994 1439 701 
Q 1688 409 2113 409 
Q 2538 409 2786 701 
Q 3034 994 3034 1497 
Q 3034 2003 2786 2293 
Q 2538 2584 2113 2584 
z
M 3366 4563 
L 3366 3988 
Q 3128 4100 2886 4159 
Q 2644 4219 2406 4219 
Q 1781 4219 1451 3797 
Q 1122 3375 1075 2522 
Q 1259 2794 1537 2939 
Q 1816 3084 2150 3084 
Q 2853 3084 3261 2657 
Q 3669 2231 3669 1497 
Q 3669 778 3244 343 
Q 2819 -91 2113 -91 
Q 1303 -91 875 529 
Q 447 1150 447 2328 
Q 447 3434 972 4092 
Q 1497 4750 2381 4750 
Q 2619 4750 2861 4703 
Q 3103 4656 3366 4563 
z
" transform="scale(0.015625)"/>
       </defs>
       <use xlink:href="#DejaVuSans-36"/>
       <use xlink:href="#DejaVuSans-30" x="63.623047"/>
       <use xlink:href="#DejaVuSans-30" x="127.246094"/>
       <use xlink:href="#DejaVuSans-30" x="190.869141"/>
       <use xlink:href="#DejaVuSans-30" x="254.492188"/>
      </g>
     </g>
    </g>
   </g>
   <g id="matplotlib.axis_2">
    <g id="ytick_1">
     <g id="line2d_8">
      <defs>
       <path id="me28902c4e1" d="M 0 0 
L -3.5 0 
" style="stroke: #000000; stroke-width: 0.8"/>
      </defs>
      <g>
       <use xlink:href="#me28902c4e1" x="57.6" y="157.616351" style="stroke: #000000; stroke-width: 0.8"/>
      </g>
     </g>
     <g id="text_8">
      <!-- 80 -->
      <g transform="translate(37.875 161.41557)scale(0.1 -0.1)">
       <defs>
        <path id="DejaVuSans-38" d="M 2034 2216 
Q 1584 2216 1326 1975 
Q 1069 1734 1069 1313 
Q 1069 891 1326 650 
Q 1584 409 2034 409 
Q 2484 409 2743 651 
Q 3003 894 3003 1313 
Q 3003 1734 2745 1975 
Q 2488 2216 2034 2216 
z
M 1403 2484 
Q 997 2584 770 2862 
Q 544 3141 544 3541 
Q 544 4100 942 4425 
Q 1341 4750 2034 4750 
Q 2731 4750 3128 4425 
Q 3525 4100 3525 3541 
Q 3525 3141 3298 2862 
Q 3072 2584 2669 2484 
Q 3125 2378 3379 2068 
Q 3634 1759 3634 1313 
Q 3634 634 3220 271 
Q 2806 -91 2034 -91 
Q 1263 -91 848 271 
Q 434 634 434 1313 
Q 434 1759 690 2068 
Q 947 2378 1403 2484 
z
M 1172 3481 
Q 1172 3119 1398 2916 
Q 1625 2713 2034 2713 
Q 2441 2713 2670 2916 
Q 2900 3119 2900 3481 
Q 2900 3844 2670 4047 
Q 2441 4250 2034 4250 
Q 1625 4250 1398 4047 
Q 1172 3844 1172 3481 
z
" transform="scale(0.015625)"/>
       </defs>
       <use xlink:href="#DejaVuSans-38"/>
       <use xlink:href="#DejaVuSans-30" x="63.623047"/>
      </g>
     </g>
    </g>
    <g id="ytick_2">
     <g id="line2d_9">
      <g>
       <use xlink:href="#me28902c4e1" x="57.6" y="134.865254" style="stroke: #000000; stroke-width: 0.8"/>
      </g>
     </g>
     <g id="text_9">
      <!-- 85 -->
      <g transform="translate(37.875 138.664473)scale(0.1 -0.1)">
       <use xlink:href="#DejaVuSans-38"/>
       <use xlink:href="#DejaVuSans-35" x="63.623047"/>
      </g>
     </g>
    </g>
    <g id="ytick_3">
     <g id="line2d_10">
      <g>
       <use xlink:href="#me28902c4e1" x="57.6" y="112.114157" style="stroke: #000000; stroke-width: 0.8"/>
      </g>
     </g>
     <g id="text_10">
      <!-- 90 -->
      <g transform="translate(37.875 115.913375)scale(0.1 -0.1)">
       <defs>
        <path id="DejaVuSans-39" d="M 703 97 
L 703 672 
Q 941 559 1184 500 
Q 1428 441 1663 441 
Q 2288 441 2617 861 
Q 2947 1281 2994 2138 
Q 2813 1869 2534 1725 
Q 2256 1581 1919 1581 
Q 1219 1581 811 2004 
Q 403 2428 403 3163 
Q 403 3881 828 4315 
Q 1253 4750 1959 4750 
Q 2769 4750 3195 4129 
Q 3622 3509 3622 2328 
Q 3622 1225 3098 567 
Q 2575 -91 1691 -91 
Q 1453 -91 1209 -44 
Q 966 3 703 97 
z
M 1959 2075 
Q 2384 2075 2632 2365 
Q 2881 2656 2881 3163 
Q 2881 3666 2632 3958 
Q 2384 4250 1959 4250 
Q 1534 4250 1286 3958 
Q 1038 3666 1038 3163 
Q 1038 2656 1286 2365 
Q 1534 2075 1959 2075 
z
" transform="scale(0.015625)"/>
       </defs>
       <use xlink:href="#DejaVuSans-39"/>
       <use xlink:href="#DejaVuSans-30" x="63.623047"/>
      </g>
     </g>
    </g>
    <g id="ytick_4">
     <g id="line2d_11">
      <g>
       <use xlink:href="#me28902c4e1" x="57.6" y="89.36306" style="stroke: #000000; stroke-width: 0.8"/>
      </g>
     </g>
     <g id="text_11">
      <!-- 95 -->
      <g transform="translate(37.875 93.162278)scale(0.1 -0.1)">
       <use xlink:href="#DejaVuSans-39"/>
       <use xlink:href="#DejaVuSans-35" x="63.623047"/>
      </g>
     </g>
    </g>
    <g id="ytick_5">
     <g id="line2d_12">
      <g>
       <use xlink:href="#me28902c4e1" x="57.6" y="66.611962" style="stroke: #000000; stroke-width: 0.8"/>
      </g>
     </g>
     <g id="text_12">
      <!-- 100 -->
      <g transform="translate(31.5125 70.411181)scale(0.1 -0.1)">
       <use xlink:href="#DejaVuSans-31"/>
       <use xlink:href="#DejaVuSans-30" x="63.623047"/>
       <use xlink:href="#DejaVuSans-30" x="127.246094"/>
      </g>
     </g>
    </g>
    <g id="ytick_6">
     <g id="line2d_13">
      <g>
       <use xlink:href="#me28902c4e1" x="57.6" y="43.860865" style="stroke: #000000; stroke-width: 0.8"/>
      </g>
     </g>
     <g id="text_13">
      <!-- 105 -->
      <g transform="translate(31.5125 47.660084)scale(0.1 -0.1)">
       <use xlink:href="#DejaVuSans-31"/>
       <use xlink:href="#DejaVuSans-30" x="63.623047"/>
       <use xlink:href="#DejaVuSans-35" x="127.246094"/>
      </g>
     </g>
    </g>
   </g>
   <g id="line2d_14">
    <path d="M 73.832727 66.611962 
L 73.974111 60.772514 
L 74.073604 60.772514 
L 74.199279 56.222295 
L 74.366845 56.222295 
L 74.487283 53.188815 
L 78.294181 53.188815 
L 78.409383 51.672075 
L 80.922878 51.672075 
L 81.03808 50.762031 
L 100.172061 50.762031 
L 100.287263 50.003661 
L 135.874164 50.003661 
L 135.989366 48.486922 
L 245.399713 48.486922 
L 245.514915 46.970182 
L 398.487273 46.970182 
L 398.487273 46.970182 
" clip-path="url(#p2689f19e2d)" style="fill: none; stroke: #1f77b4; stroke-width: 1.5; stroke-linecap: square"/>
   </g>
   <g id="line2d_15">
    <path d="M 73.832727 65.853592 
L 73.8432 70.403812 
L 73.879855 64.716038 
L 73.937456 64.716038 
L 73.963638 64.716038 
L 73.979348 69.266257 
L 74.073604 64.716038 
L 74.429682 64.716038 
L 74.544884 60.165818 
L 80.922878 60.165818 
L 81.03808 64.716038 
L 100.172061 64.716038 
L 100.287263 69.266257 
L 113.451694 69.266257 
L 113.566895 73.816476 
L 113.938683 73.816476 
L 114.053885 69.266257 
L 169.560235 69.266257 
L 169.675437 67.749517 
L 175.550732 67.749517 
L 175.665933 63.199298 
L 398.487273 63.199298 
L 398.487273 63.199298 
" clip-path="url(#p2689f19e2d)" style="fill: none; stroke: #ff7f0e; stroke-width: 1.5; stroke-linecap: square"/>
   </g>
   <g id="line2d_16">
    <path d="M 73.832727 71.162182 
L 73.85891 68.735398 
L 73.885092 76.698282 
L 73.963638 93.38242 
L 74.010767 92.244865 
L 74.052658 92.244865 
L 74.125968 89.211386 
L 74.131205 93.761605 
L 74.157387 93.761605 
L 74.194042 93.761605 
L 74.288298 102.862044 
L 74.309244 101.724489 
L 74.340663 101.724489 
L 74.461101 110.824928 
L 74.471574 110.824928 
L 74.523938 115.375147 
L 74.586776 114.465103 
L 74.618194 114.465103 
L 74.644377 119.015323 
L 74.72816 117.498583 
L 74.764815 117.498583 
L 74.848598 115.981843 
L 74.853835 120.532063 
L 74.864308 120.532063 
L 75.089475 120.532063 
L 75.204677 119.622019 
L 75.497918 119.622019 
L 75.61312 124.172238 
L 76.560917 124.172238 
L 76.676119 123.034683 
L 77.058379 123.034683 
L 77.173581 127.584903 
L 77.629152 127.584903 
L 77.744354 126.674859 
L 78.294181 126.674859 
L 78.409383 125.158119 
L 79.896534 125.158119 
L 80.011736 129.708339 
L 80.137411 129.708339 
L 80.252613 134.258558 
L 80.922878 134.258558 
L 81.03808 133.348514 
L 81.980641 133.348514 
L 82.095842 131.831774 
L 82.708507 131.831774 
L 82.823709 136.381994 
L 84.567446 136.381994 
L 84.682648 140.932213 
L 100.172061 140.932213 
L 100.287263 140.173843 
L 113.451694 140.173843 
L 113.566895 139.036288 
L 116.478361 139.036288 
L 116.593562 143.586508 
L 121.547242 143.586508 
L 121.662444 142.676464 
L 135.874164 142.676464 
L 135.989366 141.159724 
L 155.772667 141.159724 
L 155.887869 145.709944 
L 207.812488 145.709944 
L 207.92769 144.193204 
L 259.381029 144.193204 
L 259.496231 148.743423 
L 271.581953 148.743423 
L 271.697155 153.293643 
L 302.079027 153.293643 
L 302.194229 152.383599 
L 310.169339 152.383599 
L 310.284541 156.933818 
L 398.487273 156.933818 
L 398.487273 156.933818 
" clip-path="url(#p2689f19e2d)" style="fill: none; stroke: #2ca02c; stroke-width: 1.5; stroke-linecap: square"/>
   </g>
   <g id="line2d_17">
    <path d="M 73.832727 65.853592 
L 73.979348 59.255774 
L 74.152151 59.255774 
L 74.267352 63.805994 
L 74.288298 63.805994 
L 74.366845 62.668439 
L 74.372081 67.218658 
L 74.382554 67.218658 
L 74.497756 67.218658 
L 74.618194 65.17106 
L 74.932381 65.17106 
L 75.047583 63.65432 
L 75.089475 63.65432 
L 75.204677 62.744276 
L 77.629152 62.744276 
L 77.744354 61.834232 
L 113.451694 61.834232 
L 113.566895 60.696677 
L 121.547242 60.696677 
L 121.662444 59.786633 
L 302.079027 59.786633 
L 302.194229 58.876589 
L 398.487273 58.876589 
L 398.487273 58.876589 
" clip-path="url(#p2689f19e2d)" style="fill: none; stroke: #d62728; stroke-width: 1.5; stroke-linecap: square"/>
   </g>
   <g id="line2d_18">
    <path d="M 73.832727 66.611962 
L 73.895565 71.162182 
L 73.942693 69.645442 
L 73.947929 69.645442 
L 74.047422 78.745881 
L 74.063131 76.091586 
L 74.152151 76.091586 
L 74.267352 80.641806 
L 74.345899 80.641806 
L 74.366845 77.987511 
L 74.372081 82.53773 
L 74.445392 82.53773 
L 74.644377 82.53773 
L 74.759579 81.020991 
L 74.764815 81.020991 
L 74.880017 79.504251 
L 76.560917 79.504251 
L 76.676119 78.366696 
L 81.980641 78.366696 
L 82.095842 76.849956 
L 85.002071 76.849956 
L 85.117273 75.712401 
L 207.812488 75.712401 
L 207.92769 74.195661 
L 245.399713 74.195661 
L 245.514915 78.745881 
L 398.487273 78.745881 
L 398.487273 78.745881 
" clip-path="url(#p2689f19e2d)" style="fill: none; stroke: #9467bd; stroke-width: 1.5; stroke-linecap: square"/>
   </g>
   <g id="line2d_19">
    <path d="M 73.832727 71.162182 
L 73.853673 71.162182 
L 73.885092 68.507887 
L 73.91651 77.608326 
L 73.937456 77.608326 
L 73.942693 77.608326 
L 74.063131 86.708765 
L 74.073604 86.708765 
L 74.125968 83.675285 
L 74.131205 88.225505 
L 74.183569 86.708765 
L 74.194042 86.708765 
L 74.31448 95.809204 
L 74.340663 95.809204 
L 74.461101 107.943122 
L 74.523938 107.943122 
L 74.618194 107.033078 
L 74.733396 111.583298 
L 75.089475 111.583298 
L 75.204677 110.673254 
L 75.497918 110.673254 
L 75.61312 115.223473 
L 77.058379 115.223473 
L 77.173581 119.773693 
L 77.629152 119.773693 
L 77.744354 118.863649 
L 78.294181 118.863649 
L 78.409383 117.346909 
L 79.896534 117.346909 
L 80.011736 121.897129 
L 80.137411 121.897129 
L 80.252613 126.447348 
L 80.922878 126.447348 
L 81.03808 125.537304 
L 82.708507 125.537304 
L 82.823709 130.087524 
L 84.567446 130.087524 
L 84.682648 134.637743 
L 85.002071 134.637743 
L 85.117273 139.187962 
L 100.172061 139.187962 
L 100.287263 138.429592 
L 121.547242 138.429592 
L 121.662444 137.519549 
L 135.874164 137.519549 
L 135.989366 136.002809 
L 155.772667 136.002809 
L 155.887869 140.553028 
L 169.560235 140.553028 
L 169.675437 145.103248 
L 245.399713 145.103248 
L 245.514915 143.586508 
L 302.079027 143.586508 
L 302.194229 142.676464 
L 310.169339 142.676464 
L 310.284541 147.226683 
L 398.487273 147.226683 
L 398.487273 147.226683 
" clip-path="url(#p2689f19e2d)" style="fill: none; stroke: #8c564b; stroke-width: 1.5; stroke-linecap: square"/>
   </g>
   <g id="line2d_20">
    <path d="M 73.832727 65.853592 
L 73.947929 63.426809 
L 74.047422 72.527248 
L 74.063131 69.872953 
L 74.141678 69.872953 
L 74.152151 65.322734 
L 74.251643 69.872953 
L 74.345899 69.872953 
L 74.366845 67.218658 
L 74.372081 71.768878 
L 74.445392 71.768878 
L 74.644377 71.768878 
L 74.759579 70.252138 
L 74.764815 70.252138 
L 74.880017 68.735398 
L 76.560917 68.735398 
L 76.676119 67.597843 
L 81.980641 67.597843 
L 82.095842 66.081103 
L 82.708507 66.081103 
L 82.823709 64.943549 
L 85.002071 64.943549 
L 85.117273 63.805994 
L 207.812488 63.805994 
L 207.92769 62.289254 
L 245.399713 62.289254 
L 245.514915 66.839473 
L 259.381029 66.839473 
L 259.496231 64.564364 
L 398.487273 64.564364 
L 398.487273 64.564364 
" clip-path="url(#p2689f19e2d)" style="fill: none; stroke: #e377c2; stroke-width: 1.5; stroke-linecap: square"/>
   </g>
   <g id="line2d_21">
    <path d="M 73.832727 71.162182 
L 73.947929 84.81284 
L 73.953166 83.2961 
L 73.963638 83.2961 
L 74.047422 82.158545 
L 74.052658 86.708765 
L 74.173096 95.809204 
L 74.288298 95.809204 
L 74.345899 94.671649 
L 74.361609 103.772088 
L 74.497756 103.772088 
L 74.618194 101.724489 
L 74.644377 101.724489 
L 74.759579 106.274708 
L 74.764815 106.274708 
L 74.880017 110.824928 
L 74.932381 110.824928 
L 75.047583 109.308188 
L 75.089475 109.308188 
L 75.204677 108.398144 
L 76.560917 108.398144 
L 76.676119 112.948364 
L 77.629152 112.948364 
L 77.744354 112.03832 
L 80.922878 112.03832 
L 81.03808 111.128276 
L 81.980641 111.128276 
L 82.095842 115.678495 
L 82.708507 115.678495 
L 82.823709 120.228715 
L 85.002071 120.228715 
L 85.117273 124.778934 
L 100.172061 124.778934 
L 100.287263 124.020564 
L 113.451694 124.020564 
L 113.566895 122.883009 
L 121.547242 122.883009 
L 121.662444 121.972966 
L 207.812488 121.972966 
L 207.92769 126.523185 
L 259.381029 126.523185 
L 259.496231 131.073404 
L 302.079027 131.073404 
L 302.194229 130.163361 
L 398.487273 130.163361 
L 398.487273 130.163361 
" clip-path="url(#p2689f19e2d)" style="fill: none; stroke: #7f7f7f; stroke-width: 1.5; stroke-linecap: square"/>
   </g>
   <g id="line2d_22">
    <path d="M 73.832727 65.853592 
L 73.8432 65.853592 
L 73.968875 78.745881 
L 74.047422 78.745881 
L 74.052658 77.608326 
L 74.089313 91.258984 
L 74.099786 91.258984 
L 74.125968 91.258984 
L 74.152151 89.742245 
L 74.157387 94.292464 
L 74.230697 92.775724 
L 74.235934 92.775724 
L 74.356372 89.742245 
L 74.366845 86.32958 
L 74.372081 90.879799 
L 74.440155 90.879799 
L 74.445392 95.430019 
L 74.502993 90.500614 
L 74.550121 90.500614 
L 74.618194 90.500614 
L 74.644377 88.983875 
L 74.649613 93.534094 
L 74.717687 93.534094 
L 74.764815 93.534094 
L 74.848598 98.084313 
L 74.87478 95.809204 
L 74.932381 95.809204 
L 75.047583 100.359423 
L 75.497918 100.359423 
L 75.61312 98.842683 
L 76.560917 98.842683 
L 76.676119 97.705129 
L 77.058379 97.705129 
L 77.173581 96.188389 
L 78.294181 96.188389 
L 78.409383 100.738608 
L 79.896534 100.738608 
L 80.011736 99.221868 
L 80.137411 99.221868 
L 80.252613 97.705129 
L 80.922878 97.705129 
L 81.03808 102.255348 
L 82.708507 102.255348 
L 82.823709 101.117793 
L 84.567446 101.117793 
L 84.682648 99.601053 
L 85.002071 99.601053 
L 85.117273 98.463498 
L 100.172061 98.463498 
L 100.287263 103.013718 
L 113.451694 103.013718 
L 113.566895 107.563937 
L 116.478361 107.563937 
L 116.593562 106.047197 
L 135.874164 106.047197 
L 135.989366 110.597417 
L 155.772667 110.597417 
L 155.887869 109.080677 
L 169.560235 109.080677 
L 169.675437 107.563937 
L 207.812488 107.563937 
L 207.92769 112.114157 
L 245.399713 112.114157 
L 245.514915 116.664376 
L 259.381029 116.664376 
L 259.496231 121.214596 
L 271.581953 121.214596 
L 271.697155 119.697856 
L 310.169339 119.697856 
L 310.284541 118.181116 
L 398.487273 118.181116 
L 398.487273 118.181116 
" clip-path="url(#p2689f19e2d)" style="fill: none; stroke: #bcbd22; stroke-width: 1.5; stroke-linecap: square"/>
   </g>
   <g id="line2d_23">
    <path d="M 73.832727 65.853592 
L 73.8432 64.943549 
L 73.869382 72.527248 
L 73.874619 72.527248 
L 73.947929 80.110947 
L 73.989821 77.456652 
L 74.047422 77.456652 
L 74.084077 86.557091 
L 74.162624 85.040351 
L 74.288298 85.040351 
L 74.345899 83.902796 
L 74.361609 93.003235 
L 74.366845 90.728125 
L 74.471574 95.278345 
L 74.47681 93.003235 
L 74.497756 93.003235 
L 74.618194 90.955636 
L 74.644377 90.955636 
L 74.759579 95.505856 
L 74.764815 95.505856 
L 74.848598 100.056075 
L 74.87478 97.780966 
L 74.932381 97.780966 
L 75.047583 96.264226 
L 75.089475 96.264226 
L 75.204677 95.354182 
L 76.560917 95.354182 
L 76.676119 99.904401 
L 77.629152 99.904401 
L 77.744354 98.994357 
L 80.922878 98.994357 
L 81.03808 98.084313 
L 81.980641 98.084313 
L 82.095842 102.634533 
L 85.002071 102.634533 
L 85.117273 107.184752 
L 100.172061 107.184752 
L 100.287263 106.426382 
L 113.451694 106.426382 
L 113.566895 105.288828 
L 116.478361 105.288828 
L 116.593562 103.772088 
L 121.547242 103.772088 
L 121.662444 102.862044 
L 169.560235 102.862044 
L 169.675437 107.412263 
L 207.812488 107.412263 
L 207.92769 111.962483 
L 271.581953 111.962483 
L 271.697155 110.445743 
L 302.079027 110.445743 
L 302.194229 109.535699 
L 398.487273 109.535699 
L 398.487273 109.535699 
" clip-path="url(#p2689f19e2d)" style="fill: none; stroke: #17becf; stroke-width: 1.5; stroke-linecap: square"/>
   </g>
   <g id="line2d_24">
    <path d="M 73.832727 65.853592 
L 73.853673 65.853592 
L 73.885092 74.954031 
L 73.968875 70.403812 
L 74.047422 70.403812 
L 74.073604 69.266257 
L 74.089313 78.366696 
L 74.120732 78.366696 
L 74.125968 78.366696 
L 74.152151 76.849956 
L 74.157387 81.400176 
L 74.230697 79.883436 
L 74.235934 79.883436 
L 74.356372 76.849956 
L 74.440155 75.712401 
L 74.445392 80.262621 
L 74.455865 78.745881 
L 74.523938 78.745881 
L 74.618194 83.2961 
L 74.633904 81.779361 
L 75.089475 81.779361 
L 75.204677 86.32958 
L 75.497918 86.32958 
L 75.61312 84.81284 
L 77.058379 84.81284 
L 77.173581 83.2961 
L 77.629152 83.2961 
L 77.744354 87.84632 
L 78.294181 87.84632 
L 78.409383 92.396539 
L 79.896534 92.396539 
L 80.011736 90.879799 
L 80.137411 90.879799 
L 80.252613 89.36306 
L 80.922878 89.36306 
L 81.03808 93.913279 
L 82.708507 93.913279 
L 82.823709 92.775724 
L 84.567446 92.775724 
L 84.682648 91.258984 
L 85.002071 91.258984 
L 85.117273 90.121429 
L 100.172061 90.121429 
L 100.287263 94.671649 
L 121.547242 94.671649 
L 121.662444 99.221868 
L 135.874164 99.221868 
L 135.989366 103.772088 
L 155.772667 103.772088 
L 155.887869 102.255348 
L 169.560235 102.255348 
L 169.675437 100.738608 
L 245.399713 100.738608 
L 245.514915 105.288828 
L 302.079027 105.288828 
L 302.194229 109.839047 
L 310.169339 109.839047 
L 310.284541 108.322307 
L 398.487273 108.322307 
L 398.487273 108.322307 
" clip-path="url(#p2689f19e2d)" style="fill: none; stroke: #1f77b4; stroke-width: 1.5; stroke-linecap: square"/>
   </g>
   <g id="line2d_25">
    <path d="M 73.832727 71.162182 
L 73.853673 71.162182 
L 73.879855 83.2961 
L 73.974111 80.262621 
L 73.979348 80.262621 
L 74.099786 89.36306 
L 74.125968 89.36306 
L 74.25688 83.2961 
L 74.288298 83.2961 
L 74.366845 90.879799 
L 74.4035 89.36306 
L 74.429682 89.36306 
L 74.550121 101.496978 
L 74.618194 101.496978 
L 74.733396 99.980238 
L 75.089475 99.980238 
L 75.204677 104.530458 
L 75.497918 104.530458 
L 75.61312 103.013718 
L 76.560917 103.013718 
L 76.676119 107.563937 
L 77.058379 107.563937 
L 77.173581 106.047197 
L 77.629152 106.047197 
L 77.744354 110.597417 
L 79.896534 110.597417 
L 80.011736 109.080677 
L 80.137411 109.080677 
L 80.252613 107.563937 
L 80.922878 107.563937 
L 81.03808 112.114157 
L 81.980641 112.114157 
L 82.095842 116.664376 
L 82.708507 116.664376 
L 82.823709 115.526821 
L 84.567446 115.526821 
L 84.682648 114.010082 
L 100.172061 114.010082 
L 100.287263 113.251712 
L 113.938683 113.251712 
L 114.053885 117.801931 
L 116.478361 117.801931 
L 116.593562 116.285191 
L 121.547242 116.285191 
L 121.662444 120.835411 
L 155.772667 120.835411 
L 155.887869 119.318671 
L 169.560235 119.318671 
L 169.675437 123.86889 
L 175.550732 123.86889 
L 175.665933 128.41911 
L 245.399713 128.41911 
L 245.514915 126.90237 
L 259.381029 126.90237 
L 259.496231 124.62726 
L 271.581953 124.62726 
L 271.697155 123.11052 
L 302.079027 123.11052 
L 302.194229 127.66074 
L 310.169339 127.66074 
L 310.284541 126.144 
L 398.487273 126.144 
L 398.487273 126.144 
" clip-path="url(#p2689f19e2d)" style="fill: none; stroke: #ff7f0e; stroke-width: 1.5; stroke-linecap: square"/>
   </g>
   <g id="patch_3">
    <path d="M 57.6 162.432 
L 57.6 41.472 
" style="fill: none; stroke: #000000; stroke-width: 0.8; stroke-linejoin: miter; stroke-linecap: square"/>
   </g>
   <g id="patch_4">
    <path d="M 414.72 162.432 
L 414.72 41.472 
" style="fill: none; stroke: #000000; stroke-width: 0.8; stroke-linejoin: miter; stroke-linecap: square"/>
   </g>
   <g id="patch_5">
    <path d="M 57.6 162.432 
L 414.72 162.432 
" style="fill: none; stroke: #000000; stroke-width: 0.8; stroke-linejoin: miter; stroke-linecap: square"/>
   </g>
   <g id="patch_6">
    <path d="M 57.6 41.472 
L 414.72 41.472 
" style="fill: none; stroke: #000000; stroke-width: 0.8; stroke-linejoin: miter; stroke-linecap: square"/>
   </g>
   <g id="text_14">
    <!-- WSP -->
    <g transform="translate(361.832136 46.970182)scale(0.08 -0.08)">
     <defs>
      <path id="DejaVuSans-57" d="M 213 4666 
L 850 4666 
L 1831 722 
L 2809 4666 
L 3519 4666 
L 4500 722 
L 5478 4666 
L 6119 4666 
L 4947 0 
L 4153 0 
L 3169 4050 
L 2175 0 
L 1381 0 
L 213 4666 
z
" transform="scale(0.015625)"/>
      <path id="DejaVuSans-53" d="M 3425 4513 
L 3425 3897 
Q 3066 4069 2747 4153 
Q 2428 4238 2131 4238 
Q 1616 4238 1336 4038 
Q 1056 3838 1056 3469 
Q 1056 3159 1242 3001 
Q 1428 2844 1947 2747 
L 2328 2669 
Q 3034 2534 3370 2195 
Q 3706 1856 3706 1288 
Q 3706 609 3251 259 
Q 2797 -91 1919 -91 
Q 1588 -91 1214 -16 
Q 841 59 441 206 
L 441 856 
Q 825 641 1194 531 
Q 1563 422 1919 422 
Q 2459 422 2753 634 
Q 3047 847 3047 1241 
Q 3047 1584 2836 1778 
Q 2625 1972 2144 2069 
L 1759 2144 
Q 1053 2284 737 2584 
Q 422 2884 422 3419 
Q 422 4038 858 4394 
Q 1294 4750 2059 4750 
Q 2388 4750 2728 4690 
Q 3069 4631 3425 4513 
z
" transform="scale(0.015625)"/>
      <path id="DejaVuSans-50" d="M 1259 4147 
L 1259 2394 
L 2053 2394 
Q 2494 2394 2734 2622 
Q 2975 2850 2975 3272 
Q 2975 3691 2734 3919 
Q 2494 4147 2053 4147 
L 1259 4147 
z
M 628 4666 
L 2053 4666 
Q 2838 4666 3239 4311 
Q 3641 3956 3641 3272 
Q 3641 2581 3239 2228 
Q 2838 1875 2053 1875 
L 1259 1875 
L 1259 0 
L 628 0 
L 628 4666 
z
" transform="scale(0.015625)"/>
     </defs>
     <use xlink:href="#DejaVuSans-57"/>
     <use xlink:href="#DejaVuSans-53" x="98.876953"/>
     <use xlink:href="#DejaVuSans-50" x="162.353516"/>
    </g>
   </g>
   <g id="text_15">
    <!-- Iambic -->
    <g transform="translate(361.832136 63.199298)scale(0.08 -0.08)">
     <defs>
      <path id="DejaVuSans-49" d="M 628 4666 
L 1259 4666 
L 1259 0 
L 628 0 
L 628 4666 
z
" transform="scale(0.015625)"/>
      <path id="DejaVuSans-61" d="M 2194 1759 
Q 1497 1759 1228 1600 
Q 959 1441 959 1056 
Q 959 750 1161 570 
Q 1363 391 1709 391 
Q 2188 391 2477 730 
Q 2766 1069 2766 1631 
L 2766 1759 
L 2194 1759 
z
M 3341 1997 
L 3341 0 
L 2766 0 
L 2766 531 
Q 2569 213 2275 61 
Q 1981 -91 1556 -91 
Q 1019 -91 701 211 
Q 384 513 384 1019 
Q 384 1609 779 1909 
Q 1175 2209 1959 2209 
L 2766 2209 
L 2766 2266 
Q 2766 2663 2505 2880 
Q 2244 3097 1772 3097 
Q 1472 3097 1187 3025 
Q 903 2953 641 2809 
L 641 3341 
Q 956 3463 1253 3523 
Q 1550 3584 1831 3584 
Q 2591 3584 2966 3190 
Q 3341 2797 3341 1997 
z
" transform="scale(0.015625)"/>
      <path id="DejaVuSans-6d" d="M 3328 2828 
Q 3544 3216 3844 3400 
Q 4144 3584 4550 3584 
Q 5097 3584 5394 3201 
Q 5691 2819 5691 2113 
L 5691 0 
L 5113 0 
L 5113 2094 
Q 5113 2597 4934 2840 
Q 4756 3084 4391 3084 
Q 3944 3084 3684 2787 
Q 3425 2491 3425 1978 
L 3425 0 
L 2847 0 
L 2847 2094 
Q 2847 2600 2669 2842 
Q 2491 3084 2119 3084 
Q 1678 3084 1418 2786 
Q 1159 2488 1159 1978 
L 1159 0 
L 581 0 
L 581 3500 
L 1159 3500 
L 1159 2956 
Q 1356 3278 1631 3431 
Q 1906 3584 2284 3584 
Q 2666 3584 2933 3390 
Q 3200 3197 3328 2828 
z
" transform="scale(0.015625)"/>
      <path id="DejaVuSans-62" d="M 3116 1747 
Q 3116 2381 2855 2742 
Q 2594 3103 2138 3103 
Q 1681 3103 1420 2742 
Q 1159 2381 1159 1747 
Q 1159 1113 1420 752 
Q 1681 391 2138 391 
Q 2594 391 2855 752 
Q 3116 1113 3116 1747 
z
M 1159 2969 
Q 1341 3281 1617 3432 
Q 1894 3584 2278 3584 
Q 2916 3584 3314 3078 
Q 3713 2572 3713 1747 
Q 3713 922 3314 415 
Q 2916 -91 2278 -91 
Q 1894 -91 1617 61 
Q 1341 213 1159 525 
L 1159 0 
L 581 0 
L 581 4863 
L 1159 4863 
L 1159 2969 
z
" transform="scale(0.015625)"/>
      <path id="DejaVuSans-69" d="M 603 3500 
L 1178 3500 
L 1178 0 
L 603 0 
L 603 3500 
z
M 603 4863 
L 1178 4863 
L 1178 4134 
L 603 4134 
L 603 4863 
z
" transform="scale(0.015625)"/>
      <path id="DejaVuSans-63" d="M 3122 3366 
L 3122 2828 
Q 2878 2963 2633 3030 
Q 2388 3097 2138 3097 
Q 1578 3097 1268 2742 
Q 959 2388 959 1747 
Q 959 1106 1268 751 
Q 1578 397 2138 397 
Q 2388 397 2633 464 
Q 2878 531 3122 666 
L 3122 134 
Q 2881 22 2623 -34 
Q 2366 -91 2075 -91 
Q 1284 -91 818 406 
Q 353 903 353 1747 
Q 353 2603 823 3093 
Q 1294 3584 2113 3584 
Q 2378 3584 2631 3529 
Q 2884 3475 3122 3366 
z
" transform="scale(0.015625)"/>
     </defs>
     <use xlink:href="#DejaVuSans-49"/>
     <use xlink:href="#DejaVuSans-61" x="29.492188"/>
     <use xlink:href="#DejaVuSans-6d" x="90.771484"/>
     <use xlink:href="#DejaVuSans-62" x="188.183594"/>
     <use xlink:href="#DejaVuSans-69" x="251.660156"/>
     <use xlink:href="#DejaVuSans-63" x="279.443359"/>
    </g>
   </g>
   <g id="text_16">
    <!-- Parse -->
    <g transform="translate(361.832136 156.933818)scale(0.08 -0.08)">
     <defs>
      <path id="DejaVuSans-72" d="M 2631 2963 
Q 2534 3019 2420 3045 
Q 2306 3072 2169 3072 
Q 1681 3072 1420 2755 
Q 1159 2438 1159 1844 
L 1159 0 
L 581 0 
L 581 3500 
L 1159 3500 
L 1159 2956 
Q 1341 3275 1631 3429 
Q 1922 3584 2338 3584 
Q 2397 3584 2469 3576 
Q 2541 3569 2628 3553 
L 2631 2963 
z
" transform="scale(0.015625)"/>
      <path id="DejaVuSans-73" d="M 2834 3397 
L 2834 2853 
Q 2591 2978 2328 3040 
Q 2066 3103 1784 3103 
Q 1356 3103 1142 2972 
Q 928 2841 928 2578 
Q 928 2378 1081 2264 
Q 1234 2150 1697 2047 
L 1894 2003 
Q 2506 1872 2764 1633 
Q 3022 1394 3022 966 
Q 3022 478 2636 193 
Q 2250 -91 1575 -91 
Q 1294 -91 989 -36 
Q 684 19 347 128 
L 347 722 
Q 666 556 975 473 
Q 1284 391 1588 391 
Q 1994 391 2212 530 
Q 2431 669 2431 922 
Q 2431 1156 2273 1281 
Q 2116 1406 1581 1522 
L 1381 1569 
Q 847 1681 609 1914 
Q 372 2147 372 2553 
Q 372 3047 722 3315 
Q 1072 3584 1716 3584 
Q 2034 3584 2315 3537 
Q 2597 3491 2834 3397 
z
" transform="scale(0.015625)"/>
      <path id="DejaVuSans-65" d="M 3597 1894 
L 3597 1613 
L 953 1613 
Q 991 1019 1311 708 
Q 1631 397 2203 397 
Q 2534 397 2845 478 
Q 3156 559 3463 722 
L 3463 178 
Q 3153 47 2828 -22 
Q 2503 -91 2169 -91 
Q 1331 -91 842 396 
Q 353 884 353 1716 
Q 353 2575 817 3079 
Q 1281 3584 2069 3584 
Q 2775 3584 3186 3129 
Q 3597 2675 3597 1894 
z
M 3022 2063 
Q 3016 2534 2758 2815 
Q 2500 3097 2075 3097 
Q 1594 3097 1305 2825 
Q 1016 2553 972 2059 
L 3022 2063 
z
" transform="scale(0.015625)"/>
     </defs>
     <use xlink:href="#DejaVuSans-50"/>
     <use xlink:href="#DejaVuSans-61" x="55.802734"/>
     <use xlink:href="#DejaVuSans-72" x="117.082031"/>
     <use xlink:href="#DejaVuSans-73" x="158.195312"/>
     <use xlink:href="#DejaVuSans-65" x="210.294922"/>
    </g>
   </g>
   <g id="text_17">
    <!-- FootBin -->
    <g transform="translate(361.832136 58.876589)scale(0.08 -0.08)">
     <defs>
      <path id="DejaVuSans-46" d="M 628 4666 
L 3309 4666 
L 3309 4134 
L 1259 4134 
L 1259 2759 
L 3109 2759 
L 3109 2228 
L 1259 2228 
L 1259 0 
L 628 0 
L 628 4666 
z
" transform="scale(0.015625)"/>
      <path id="DejaVuSans-6f" d="M 1959 3097 
Q 1497 3097 1228 2736 
Q 959 2375 959 1747 
Q 959 1119 1226 758 
Q 1494 397 1959 397 
Q 2419 397 2687 759 
Q 2956 1122 2956 1747 
Q 2956 2369 2687 2733 
Q 2419 3097 1959 3097 
z
M 1959 3584 
Q 2709 3584 3137 3096 
Q 3566 2609 3566 1747 
Q 3566 888 3137 398 
Q 2709 -91 1959 -91 
Q 1206 -91 779 398 
Q 353 888 353 1747 
Q 353 2609 779 3096 
Q 1206 3584 1959 3584 
z
" transform="scale(0.015625)"/>
      <path id="DejaVuSans-74" d="M 1172 4494 
L 1172 3500 
L 2356 3500 
L 2356 3053 
L 1172 3053 
L 1172 1153 
Q 1172 725 1289 603 
Q 1406 481 1766 481 
L 2356 481 
L 2356 0 
L 1766 0 
Q 1100 0 847 248 
Q 594 497 594 1153 
L 594 3053 
L 172 3053 
L 172 3500 
L 594 3500 
L 594 4494 
L 1172 4494 
z
" transform="scale(0.015625)"/>
      <path id="DejaVuSans-42" d="M 1259 2228 
L 1259 519 
L 2272 519 
Q 2781 519 3026 730 
Q 3272 941 3272 1375 
Q 3272 1813 3026 2020 
Q 2781 2228 2272 2228 
L 1259 2228 
z
M 1259 4147 
L 1259 2741 
L 2194 2741 
Q 2656 2741 2882 2914 
Q 3109 3088 3109 3444 
Q 3109 3797 2882 3972 
Q 2656 4147 2194 4147 
L 1259 4147 
z
M 628 4666 
L 2241 4666 
Q 2963 4666 3353 4366 
Q 3744 4066 3744 3513 
Q 3744 3084 3544 2831 
Q 3344 2578 2956 2516 
Q 3422 2416 3680 2098 
Q 3938 1781 3938 1306 
Q 3938 681 3513 340 
Q 3088 0 2303 0 
L 628 0 
L 628 4666 
z
" transform="scale(0.015625)"/>
      <path id="DejaVuSans-6e" d="M 3513 2113 
L 3513 0 
L 2938 0 
L 2938 2094 
Q 2938 2591 2744 2837 
Q 2550 3084 2163 3084 
Q 1697 3084 1428 2787 
Q 1159 2491 1159 1978 
L 1159 0 
L 581 0 
L 581 3500 
L 1159 3500 
L 1159 2956 
Q 1366 3272 1645 3428 
Q 1925 3584 2291 3584 
Q 2894 3584 3203 3211 
Q 3513 2838 3513 2113 
z
" transform="scale(0.015625)"/>
     </defs>
     <use xlink:href="#DejaVuSans-46"/>
     <use xlink:href="#DejaVuSans-6f" x="53.894531"/>
     <use xlink:href="#DejaVuSans-6f" x="115.076172"/>
     <use xlink:href="#DejaVuSans-74" x="176.257812"/>
     <use xlink:href="#DejaVuSans-42" x="215.466797"/>
     <use xlink:href="#DejaVuSans-69" x="284.070312"/>
     <use xlink:href="#DejaVuSans-6e" x="311.853516"/>
    </g>
   </g>
   <g id="text_18">
    <!-- WFL -->
    <g transform="translate(361.832136 78.745881)scale(0.08 -0.08)">
     <defs>
      <path id="DejaVuSans-4c" d="M 628 4666 
L 1259 4666 
L 1259 531 
L 3531 531 
L 3531 0 
L 628 0 
L 628 4666 
z
" transform="scale(0.015625)"/>
     </defs>
     <use xlink:href="#DejaVuSans-57"/>
     <use xlink:href="#DejaVuSans-46" x="98.876953"/>
     <use xlink:href="#DejaVuSans-4c" x="156.396484"/>
    </g>
   </g>
   <g id="text_19">
    <!-- WFR -->
    <g transform="translate(361.832136 147.226683)scale(0.08 -0.08)">
     <defs>
      <path id="DejaVuSans-52" d="M 2841 2188 
Q 3044 2119 3236 1894 
Q 3428 1669 3622 1275 
L 4263 0 
L 3584 0 
L 2988 1197 
Q 2756 1666 2539 1819 
Q 2322 1972 1947 1972 
L 1259 1972 
L 1259 0 
L 628 0 
L 628 4666 
L 2053 4666 
Q 2853 4666 3247 4331 
Q 3641 3997 3641 3322 
Q 3641 2881 3436 2590 
Q 3231 2300 2841 2188 
z
M 1259 4147 
L 1259 2491 
L 2053 2491 
Q 2509 2491 2742 2702 
Q 2975 2913 2975 3322 
Q 2975 3731 2742 3939 
Q 2509 4147 2053 4147 
L 1259 4147 
z
" transform="scale(0.015625)"/>
     </defs>
     <use xlink:href="#DejaVuSans-57"/>
     <use xlink:href="#DejaVuSans-46" x="98.876953"/>
     <use xlink:href="#DejaVuSans-52" x="156.396484"/>
    </g>
   </g>
   <g id="text_20">
    <!-- Main-L -->
    <g transform="translate(361.832136 64.564364)scale(0.08 -0.08)">
     <defs>
      <path id="DejaVuSans-4d" d="M 628 4666 
L 1569 4666 
L 2759 1491 
L 3956 4666 
L 4897 4666 
L 4897 0 
L 4281 0 
L 4281 4097 
L 3078 897 
L 2444 897 
L 1241 4097 
L 1241 0 
L 628 0 
L 628 4666 
z
" transform="scale(0.015625)"/>
      <path id="DejaVuSans-2d" d="M 313 2009 
L 1997 2009 
L 1997 1497 
L 313 1497 
L 313 2009 
z
" transform="scale(0.015625)"/>
     </defs>
     <use xlink:href="#DejaVuSans-4d"/>
     <use xlink:href="#DejaVuSans-61" x="86.279297"/>
     <use xlink:href="#DejaVuSans-69" x="147.558594"/>
     <use xlink:href="#DejaVuSans-6e" x="175.341797"/>
     <use xlink:href="#DejaVuSans-2d" x="238.720703"/>
     <use xlink:href="#DejaVuSans-4c" x="274.804688"/>
    </g>
   </g>
   <g id="text_21">
    <!-- Main-R -->
    <g transform="translate(361.832136 130.163361)scale(0.08 -0.08)">
     <use xlink:href="#DejaVuSans-4d"/>
     <use xlink:href="#DejaVuSans-61" x="86.279297"/>
     <use xlink:href="#DejaVuSans-69" x="147.558594"/>
     <use xlink:href="#DejaVuSans-6e" x="175.341797"/>
     <use xlink:href="#DejaVuSans-2d" x="238.720703"/>
     <use xlink:href="#DejaVuSans-52" x="274.804688"/>
    </g>
   </g>
   <g id="text_22">
    <!-- AFL -->
    <g transform="translate(361.832136 118.181116)scale(0.08 -0.08)">
     <defs>
      <path id="DejaVuSans-41" d="M 2188 4044 
L 1331 1722 
L 3047 1722 
L 2188 4044 
z
M 1831 4666 
L 2547 4666 
L 4325 0 
L 3669 0 
L 3244 1197 
L 1141 1197 
L 716 0 
L 50 0 
L 1831 4666 
z
" transform="scale(0.015625)"/>
     </defs>
     <use xlink:href="#DejaVuSans-41"/>
     <use xlink:href="#DejaVuSans-46" x="68.408203"/>
     <use xlink:href="#DejaVuSans-4c" x="125.927734"/>
    </g>
   </g>
   <g id="text_23">
    <!-- AFR -->
    <g transform="translate(361.832136 109.535699)scale(0.08 -0.08)">
     <use xlink:href="#DejaVuSans-41"/>
     <use xlink:href="#DejaVuSans-46" x="68.408203"/>
     <use xlink:href="#DejaVuSans-52" x="125.927734"/>
    </g>
   </g>
   <g id="text_24">
    <!-- Nonfinal -->
    <g transform="translate(361.832136 108.322307)scale(0.08 -0.08)">
     <defs>
      <path id="DejaVuSans-4e" d="M 628 4666 
L 1478 4666 
L 3547 763 
L 3547 4666 
L 4159 4666 
L 4159 0 
L 3309 0 
L 1241 3903 
L 1241 0 
L 628 0 
L 628 4666 
z
" transform="scale(0.015625)"/>
      <path id="DejaVuSans-66" d="M 2375 4863 
L 2375 4384 
L 1825 4384 
Q 1516 4384 1395 4259 
Q 1275 4134 1275 3809 
L 1275 3500 
L 2222 3500 
L 2222 3053 
L 1275 3053 
L 1275 0 
L 697 0 
L 697 3053 
L 147 3053 
L 147 3500 
L 697 3500 
L 697 3744 
Q 697 4328 969 4595 
Q 1241 4863 1831 4863 
L 2375 4863 
z
" transform="scale(0.015625)"/>
      <path id="DejaVuSans-6c" d="M 603 4863 
L 1178 4863 
L 1178 0 
L 603 0 
L 603 4863 
z
" transform="scale(0.015625)"/>
     </defs>
     <use xlink:href="#DejaVuSans-4e"/>
     <use xlink:href="#DejaVuSans-6f" x="74.804688"/>
     <use xlink:href="#DejaVuSans-6e" x="135.986328"/>
     <use xlink:href="#DejaVuSans-66" x="199.365234"/>
     <use xlink:href="#DejaVuSans-69" x="234.570312"/>
     <use xlink:href="#DejaVuSans-6e" x="262.353516"/>
     <use xlink:href="#DejaVuSans-61" x="325.732422"/>
     <use xlink:href="#DejaVuSans-6c" x="387.011719"/>
    </g>
   </g>
   <g id="text_25">
    <!-- Trochaic -->
    <g transform="translate(361.832136 126.144)scale(0.08 -0.08)">
     <defs>
      <path id="DejaVuSans-54" d="M -19 4666 
L 3928 4666 
L 3928 4134 
L 2272 4134 
L 2272 0 
L 1638 0 
L 1638 4134 
L -19 4134 
L -19 4666 
z
" transform="scale(0.015625)"/>
      <path id="DejaVuSans-68" d="M 3513 2113 
L 3513 0 
L 2938 0 
L 2938 2094 
Q 2938 2591 2744 2837 
Q 2550 3084 2163 3084 
Q 1697 3084 1428 2787 
Q 1159 2491 1159 1978 
L 1159 0 
L 581 0 
L 581 4863 
L 1159 4863 
L 1159 2956 
Q 1366 3272 1645 3428 
Q 1925 3584 2291 3584 
Q 2894 3584 3203 3211 
Q 3513 2838 3513 2113 
z
" transform="scale(0.015625)"/>
     </defs>
     <use xlink:href="#DejaVuSans-54"/>
     <use xlink:href="#DejaVuSans-72" x="46.333984"/>
     <use xlink:href="#DejaVuSans-6f" x="85.197266"/>
     <use xlink:href="#DejaVuSans-63" x="146.378906"/>
     <use xlink:href="#DejaVuSans-68" x="201.359375"/>
     <use xlink:href="#DejaVuSans-61" x="264.738281"/>
     <use xlink:href="#DejaVuSans-69" x="326.017578"/>
     <use xlink:href="#DejaVuSans-63" x="353.800781"/>
    </g>
   </g>
  </g>
  <g id="axes_2">
   <g id="patch_7">
    <path d="M 57.6 307.584 
L 414.72 307.584 
L 414.72 186.624 
L 57.6 186.624 
z
" style="fill: #ffffff"/>
   </g>
   <g id="matplotlib.axis_3">
    <g id="xtick_8">
     <g id="line2d_26">
      <g>
       <use xlink:href="#mbb4b8d8a86" x="68.987137" y="307.584" style="stroke: #000000; stroke-width: 0.8"/>
      </g>
     </g>
     <g id="text_26">
      <!-- 0 -->
      <g transform="translate(65.805887 322.182437)scale(0.1 -0.1)">
       <use xlink:href="#DejaVuSans-30"/>
      </g>
     </g>
    </g>
    <g id="xtick_9">
     <g id="line2d_27">
      <g>
       <use xlink:href="#mbb4b8d8a86" x="117.443039" y="307.584" style="stroke: #000000; stroke-width: 0.8"/>
      </g>
     </g>
     <g id="text_27">
      <!-- 10 -->
      <g transform="translate(111.080539 322.182437)scale(0.1 -0.1)">
       <use xlink:href="#DejaVuSans-31"/>
       <use xlink:href="#DejaVuSans-30" x="63.623047"/>
      </g>
     </g>
    </g>
    <g id="xtick_10">
     <g id="line2d_28">
      <g>
       <use xlink:href="#mbb4b8d8a86" x="165.898942" y="307.584" style="stroke: #000000; stroke-width: 0.8"/>
      </g>
     </g>
     <g id="text_28">
      <!-- 20 -->
      <g transform="translate(159.536442 322.182437)scale(0.1 -0.1)">
       <use xlink:href="#DejaVuSans-32"/>
       <use xlink:href="#DejaVuSans-30" x="63.623047"/>
      </g>
     </g>
    </g>
    <g id="xtick_11">
     <g id="line2d_29">
      <g>
       <use xlink:href="#mbb4b8d8a86" x="214.354844" y="307.584" style="stroke: #000000; stroke-width: 0.8"/>
      </g>
     </g>
     <g id="text_29">
      <!-- 30 -->
      <g transform="translate(207.992344 322.182437)scale(0.1 -0.1)">
       <use xlink:href="#DejaVuSans-33"/>
       <use xlink:href="#DejaVuSans-30" x="63.623047"/>
      </g>
     </g>
    </g>
    <g id="xtick_12">
     <g id="line2d_30">
      <g>
       <use xlink:href="#mbb4b8d8a86" x="262.810746" y="307.584" style="stroke: #000000; stroke-width: 0.8"/>
      </g>
     </g>
     <g id="text_30">
      <!-- 40 -->
      <g transform="translate(256.448246 322.182437)scale(0.1 -0.1)">
       <use xlink:href="#DejaVuSans-34"/>
       <use xlink:href="#DejaVuSans-30" x="63.623047"/>
      </g>
     </g>
    </g>
    <g id="xtick_13">
     <g id="line2d_31">
      <g>
       <use xlink:href="#mbb4b8d8a86" x="311.266649" y="307.584" style="stroke: #000000; stroke-width: 0.8"/>
      </g>
     </g>
     <g id="text_31">
      <!-- 50 -->
      <g transform="translate(304.904149 322.182437)scale(0.1 -0.1)">
       <use xlink:href="#DejaVuSans-35"/>
       <use xlink:href="#DejaVuSans-30" x="63.623047"/>
      </g>
     </g>
    </g>
    <g id="xtick_14">
     <g id="line2d_32">
      <g>
       <use xlink:href="#mbb4b8d8a86" x="359.722551" y="307.584" style="stroke: #000000; stroke-width: 0.8"/>
      </g>
     </g>
     <g id="text_32">
      <!-- 60 -->
      <g transform="translate(353.360051 322.182437)scale(0.1 -0.1)">
       <use xlink:href="#DejaVuSans-36"/>
       <use xlink:href="#DejaVuSans-30" x="63.623047"/>
      </g>
     </g>
    </g>
    <g id="xtick_15">
     <g id="line2d_33">
      <g>
       <use xlink:href="#mbb4b8d8a86" x="408.178453" y="307.584" style="stroke: #000000; stroke-width: 0.8"/>
      </g>
     </g>
     <g id="text_33">
      <!-- 70 -->
      <g transform="translate(401.815953 322.182437)scale(0.1 -0.1)">
       <defs>
        <path id="DejaVuSans-37" d="M 525 4666 
L 3525 4666 
L 3525 4397 
L 1831 0 
L 1172 0 
L 2766 4134 
L 525 4134 
L 525 4666 
z
" transform="scale(0.015625)"/>
       </defs>
       <use xlink:href="#DejaVuSans-37"/>
       <use xlink:href="#DejaVuSans-30" x="63.623047"/>
      </g>
     </g>
    </g>
   </g>
   <g id="matplotlib.axis_4">
    <g id="ytick_7">
     <g id="line2d_34">
      <g>
       <use xlink:href="#me28902c4e1" x="57.6" y="302.10114" style="stroke: #000000; stroke-width: 0.8"/>
      </g>
     </g>
     <g id="text_34">
      <!-- 0 -->
      <g transform="translate(44.2375 305.900359)scale(0.1 -0.1)">
       <use xlink:href="#DejaVuSans-30"/>
      </g>
     </g>
    </g>
    <g id="ytick_8">
     <g id="line2d_35">
      <g>
       <use xlink:href="#me28902c4e1" x="57.6" y="271.457797" style="stroke: #000000; stroke-width: 0.8"/>
      </g>
     </g>
     <g id="text_35">
      <!-- 2000 -->
      <g transform="translate(25.15 275.257016)scale(0.1 -0.1)">
       <use xlink:href="#DejaVuSans-32"/>
       <use xlink:href="#DejaVuSans-30" x="63.623047"/>
       <use xlink:href="#DejaVuSans-30" x="127.246094"/>
       <use xlink:href="#DejaVuSans-30" x="190.869141"/>
      </g>
     </g>
    </g>
    <g id="ytick_9">
     <g id="line2d_36">
      <g>
       <use xlink:href="#me28902c4e1" x="57.6" y="240.814454" style="stroke: #000000; stroke-width: 0.8"/>
      </g>
     </g>
     <g id="text_36">
      <!-- 4000 -->
      <g transform="translate(25.15 244.613673)scale(0.1 -0.1)">
       <use xlink:href="#DejaVuSans-34"/>
       <use xlink:href="#DejaVuSans-30" x="63.623047"/>
       <use xlink:href="#DejaVuSans-30" x="127.246094"/>
       <use xlink:href="#DejaVuSans-30" x="190.869141"/>
      </g>
     </g>
    </g>
    <g id="ytick_10">
     <g id="line2d_37">
      <g>
       <use xlink:href="#me28902c4e1" x="57.6" y="210.171111" style="stroke: #000000; stroke-width: 0.8"/>
      </g>
     </g>
     <g id="text_37">
      <!-- 6000 -->
      <g transform="translate(25.15 213.97033)scale(0.1 -0.1)">
       <use xlink:href="#DejaVuSans-36"/>
       <use xlink:href="#DejaVuSans-30" x="63.623047"/>
       <use xlink:href="#DejaVuSans-30" x="127.246094"/>
       <use xlink:href="#DejaVuSans-30" x="190.869141"/>
      </g>
     </g>
    </g>
   </g>
   <g id="line2d_38">
    <path d="M 73.832727 302.085818 
L 78.678318 302.070497 
L 83.523908 302.070497 
L 88.369498 302.085818 
L 93.215088 302.085818 
L 98.060678 302.070497 
L 102.906269 302.085818 
L 107.751859 302.085818 
L 112.597449 302.070497 
L 117.443039 302.055175 
L 122.28863 302.00921 
L 127.13422 302.085818 
L 131.97981 302.055175 
L 136.8254 302.055175 
L 141.670991 301.901958 
L 146.516581 302.085818 
L 151.362171 302.039853 
L 156.207761 302.070497 
L 161.053351 301.978566 
L 165.898942 302.055175 
L 170.744532 302.070497 
L 175.590122 301.978566 
L 180.435712 301.978566 
L 185.281303 301.947923 
L 190.126893 301.947923 
L 194.972483 302.085818 
L 199.818073 302.070497 
L 204.663664 302.085818 
L 209.509254 302.085818 
L 214.354844 301.91728 
L 219.200434 302.070497 
L 224.046024 302.085818 
L 228.891615 302.024531 
L 233.737205 302.024531 
L 238.582795 302.024531 
L 243.428385 301.82535 
L 248.273976 302.024531 
L 253.119566 301.748741 
L 257.965156 301.855993 
L 262.810746 301.855993 
L 267.656336 301.64149 
L 272.501927 300.906049 
L 277.347517 298.990841 
L 282.193107 300.645581 
L 287.038697 300.431078 
L 291.884288 300.155288 
L 296.729878 297.412708 
L 301.575468 301.396343 
L 306.421058 299.802889 
L 311.266649 299.006162 
L 316.112239 299.971428 
L 320.957829 296.661946 
L 325.803419 300.829441 
L 330.649009 257.714258 
L 335.4946 263.245381 
L 340.34019 300.676224 
L 345.18578 294.670129 
L 350.03137 287.269762 
L 354.876961 260.181047 
L 359.722551 243.878788 
L 364.568141 261.759179 
L 369.413731 284.573148 
L 374.259322 207.704322 
L 379.104912 192.122182 
L 383.950502 261.192277 
L 388.796092 266.401645 
L 393.641682 212.867725 
L 398.487273 278.429157 
" clip-path="url(#pb9f3a8776f)" style="fill: none; stroke: #1f77b4; stroke-width: 1.5; stroke-linecap: square"/>
   </g>
   <g id="patch_8">
    <path d="M 57.6 307.584 
L 57.6 186.624 
" style="fill: none; stroke: #000000; stroke-width: 0.8; stroke-linejoin: miter; stroke-linecap: square"/>
   </g>
   <g id="patch_9">
    <path d="M 414.72 307.584 
L 414.72 186.624 
" style="fill: none; stroke: #000000; stroke-width: 0.8; stroke-linejoin: miter; stroke-linecap: square"/>
   </g>
   <g id="patch_10">
    <path d="M 57.6 307.584 
L 414.72 307.584 
" style="fill: none; stroke: #000000; stroke-width: 0.8; stroke-linejoin: miter; stroke-linecap: square"/>
   </g>
   <g id="patch_11">
    <path d="M 57.6 186.624 
L 414.72 186.624 
" style="fill: none; stroke: #000000; stroke-width: 0.8; stroke-linejoin: miter; stroke-linecap: square"/>
   </g>
  </g>
 </g>
 <defs>
  <clipPath id="p2689f19e2d">
   <rect x="57.6" y="41.472" width="357.12" height="120.96"/>
  </clipPath>
  <clipPath id="pb9f3a8776f">
   <rect x="57.6" y="186.624" width="357.12" height="120.96"/>
  </clipPath>
 </defs>
</svg>
