<?xml version="1.0" encoding="utf-8" standalone="no"?>
<!DOCTYPE svg PUBLIC "-//W3C//DTD SVG 1.1//EN"
  "http://www.w3.org/Graphics/SVG/1.1/DTD/svg11.dtd">
<svg xmlns:xlink="http://www.w3.org/1999/xlink" width="460.8pt" height="345.6pt" viewBox="0 0 460.8 345.6" xmlns="http://www.w3.org/2000/svg" version="1.1">
 <metadata>
  <rdf:RDF xmlns:dc="http://purl.org/dc/elements/1.1/" xmlns:cc="http://creativecommons.org/ns#" xmlns:rdf="http://www.w3.org/1999/02/22-rdf-syntax-ns#">
   <cc:Work>
    <dc:type rdf:resource="http://purl.org/dc/dcmitype/StillImage"/>
    <dc:date>2022-05-13T23:54:37.318693</dc:date>
    <dc:format>image/svg+xml</dc:format>
    <dc:creator>
     <cc:Agent>
      <dc:title>Matplotlib v3.5.1, https://matplotlib.org/</dc:title>
     </cc:Agent>
    </dc:creator>
   </cc:Work>
  </rdf:RDF>
 </metadata>
 <defs>
  <style type="text/css">*{stroke-linejoin: round; stroke-linecap: butt}</style>
 </defs>
 <g id="figure_1">
  <g id="patch_1">
   <path d="M 0 345.6 
L 460.8 345.6 
L 460.8 0 
L 0 0 
z
" style="fill: #ffffff"/>
  </g>
  <g id="axes_1">
   <g id="patch_2">
    <path d="M 57.6 162.432 
L 414.72 162.432 
L 414.72 41.472 
L 57.6 41.472 
z
" style="fill: #ffffff"/>
   </g>
   <g id="matplotlib.axis_1">
    <g id="xtick_1">
     <g id="line2d_1">
      <defs>
       <path id="m1242d94274" d="M 0 0 
L 0 3.5 
" style="stroke: #000000; stroke-width: 0.8"/>
      </defs>
      <g>
       <use xlink:href="#m1242d94274" x="73.827491" y="162.432" style="stroke: #000000; stroke-width: 0.8"/>
      </g>
     </g>
     <g id="text_1">
      <!-- 0 -->
      <g transform="translate(70.646241 177.030437)scale(0.1 -0.1)">
       <defs>
        <path id="DejaVuSans-30" d="M 2034 4250 
Q 1547 4250 1301 3770 
Q 1056 3291 1056 2328 
Q 1056 1369 1301 889 
Q 1547 409 2034 409 
Q 2525 409 2770 889 
Q 3016 1369 3016 2328 
Q 3016 3291 2770 3770 
Q 2525 4250 2034 4250 
z
M 2034 4750 
Q 2819 4750 3233 4129 
Q 3647 3509 3647 2328 
Q 3647 1150 3233 529 
Q 2819 -91 2034 -91 
Q 1250 -91 836 529 
Q 422 1150 422 2328 
Q 422 3509 836 4129 
Q 1250 4750 2034 4750 
z
" transform="scale(0.015625)"/>
       </defs>
       <use xlink:href="#DejaVuSans-30"/>
      </g>
     </g>
    </g>
    <g id="xtick_2">
     <g id="line2d_2">
      <g>
       <use xlink:href="#m1242d94274" x="126.191972" y="162.432" style="stroke: #000000; stroke-width: 0.8"/>
      </g>
     </g>
     <g id="text_2">
      <!-- 10000 -->
      <g transform="translate(110.285722 177.030437)scale(0.1 -0.1)">
       <defs>
        <path id="DejaVuSans-31" d="M 794 531 
L 1825 531 
L 1825 4091 
L 703 3866 
L 703 4441 
L 1819 4666 
L 2450 4666 
L 2450 531 
L 3481 531 
L 3481 0 
L 794 0 
L 794 531 
z
" transform="scale(0.015625)"/>
       </defs>
       <use xlink:href="#DejaVuSans-31"/>
       <use xlink:href="#DejaVuSans-30" x="63.623047"/>
       <use xlink:href="#DejaVuSans-30" x="127.246094"/>
       <use xlink:href="#DejaVuSans-30" x="190.869141"/>
       <use xlink:href="#DejaVuSans-30" x="254.492188"/>
      </g>
     </g>
    </g>
    <g id="xtick_3">
     <g id="line2d_3">
      <g>
       <use xlink:href="#m1242d94274" x="178.556453" y="162.432" style="stroke: #000000; stroke-width: 0.8"/>
      </g>
     </g>
     <g id="text_3">
      <!-- 20000 -->
      <g transform="translate(162.650203 177.030437)scale(0.1 -0.1)">
       <defs>
        <path id="DejaVuSans-32" d="M 1228 531 
L 3431 531 
L 3431 0 
L 469 0 
L 469 531 
Q 828 903 1448 1529 
Q 2069 2156 2228 2338 
Q 2531 2678 2651 2914 
Q 2772 3150 2772 3378 
Q 2772 3750 2511 3984 
Q 2250 4219 1831 4219 
Q 1534 4219 1204 4116 
Q 875 4013 500 3803 
L 500 4441 
Q 881 4594 1212 4672 
Q 1544 4750 1819 4750 
Q 2544 4750 2975 4387 
Q 3406 4025 3406 3419 
Q 3406 3131 3298 2873 
Q 3191 2616 2906 2266 
Q 2828 2175 2409 1742 
Q 1991 1309 1228 531 
z
" transform="scale(0.015625)"/>
       </defs>
       <use xlink:href="#DejaVuSans-32"/>
       <use xlink:href="#DejaVuSans-30" x="63.623047"/>
       <use xlink:href="#DejaVuSans-30" x="127.246094"/>
       <use xlink:href="#DejaVuSans-30" x="190.869141"/>
       <use xlink:href="#DejaVuSans-30" x="254.492188"/>
      </g>
     </g>
    </g>
    <g id="xtick_4">
     <g id="line2d_4">
      <g>
       <use xlink:href="#m1242d94274" x="230.920934" y="162.432" style="stroke: #000000; stroke-width: 0.8"/>
      </g>
     </g>
     <g id="text_4">
      <!-- 30000 -->
      <g transform="translate(215.014684 177.030437)scale(0.1 -0.1)">
       <defs>
        <path id="DejaVuSans-33" d="M 2597 2516 
Q 3050 2419 3304 2112 
Q 3559 1806 3559 1356 
Q 3559 666 3084 287 
Q 2609 -91 1734 -91 
Q 1441 -91 1130 -33 
Q 819 25 488 141 
L 488 750 
Q 750 597 1062 519 
Q 1375 441 1716 441 
Q 2309 441 2620 675 
Q 2931 909 2931 1356 
Q 2931 1769 2642 2001 
Q 2353 2234 1838 2234 
L 1294 2234 
L 1294 2753 
L 1863 2753 
Q 2328 2753 2575 2939 
Q 2822 3125 2822 3475 
Q 2822 3834 2567 4026 
Q 2313 4219 1838 4219 
Q 1578 4219 1281 4162 
Q 984 4106 628 3988 
L 628 4550 
Q 988 4650 1302 4700 
Q 1616 4750 1894 4750 
Q 2613 4750 3031 4423 
Q 3450 4097 3450 3541 
Q 3450 3153 3228 2886 
Q 3006 2619 2597 2516 
z
" transform="scale(0.015625)"/>
       </defs>
       <use xlink:href="#DejaVuSans-33"/>
       <use xlink:href="#DejaVuSans-30" x="63.623047"/>
       <use xlink:href="#DejaVuSans-30" x="127.246094"/>
       <use xlink:href="#DejaVuSans-30" x="190.869141"/>
       <use xlink:href="#DejaVuSans-30" x="254.492188"/>
      </g>
     </g>
    </g>
    <g id="xtick_5">
     <g id="line2d_5">
      <g>
       <use xlink:href="#m1242d94274" x="283.285415" y="162.432" style="stroke: #000000; stroke-width: 0.8"/>
      </g>
     </g>
     <g id="text_5">
      <!-- 40000 -->
      <g transform="translate(267.379165 177.030437)scale(0.1 -0.1)">
       <defs>
        <path id="DejaVuSans-34" d="M 2419 4116 
L 825 1625 
L 2419 1625 
L 2419 4116 
z
M 2253 4666 
L 3047 4666 
L 3047 1625 
L 3713 1625 
L 3713 1100 
L 3047 1100 
L 3047 0 
L 2419 0 
L 2419 1100 
L 313 1100 
L 313 1709 
L 2253 4666 
z
" transform="scale(0.015625)"/>
       </defs>
       <use xlink:href="#DejaVuSans-34"/>
       <use xlink:href="#DejaVuSans-30" x="63.623047"/>
       <use xlink:href="#DejaVuSans-30" x="127.246094"/>
       <use xlink:href="#DejaVuSans-30" x="190.869141"/>
       <use xlink:href="#DejaVuSans-30" x="254.492188"/>
      </g>
     </g>
    </g>
    <g id="xtick_6">
     <g id="line2d_6">
      <g>
       <use xlink:href="#m1242d94274" x="335.649896" y="162.432" style="stroke: #000000; stroke-width: 0.8"/>
      </g>
     </g>
     <g id="text_6">
      <!-- 50000 -->
      <g transform="translate(319.743646 177.030437)scale(0.1 -0.1)">
       <defs>
        <path id="DejaVuSans-35" d="M 691 4666 
L 3169 4666 
L 3169 4134 
L 1269 4134 
L 1269 2991 
Q 1406 3038 1543 3061 
Q 1681 3084 1819 3084 
Q 2600 3084 3056 2656 
Q 3513 2228 3513 1497 
Q 3513 744 3044 326 
Q 2575 -91 1722 -91 
Q 1428 -91 1123 -41 
Q 819 9 494 109 
L 494 744 
Q 775 591 1075 516 
Q 1375 441 1709 441 
Q 2250 441 2565 725 
Q 2881 1009 2881 1497 
Q 2881 1984 2565 2268 
Q 2250 2553 1709 2553 
Q 1456 2553 1204 2497 
Q 953 2441 691 2322 
L 691 4666 
z
" transform="scale(0.015625)"/>
       </defs>
       <use xlink:href="#DejaVuSans-35"/>
       <use xlink:href="#DejaVuSans-30" x="63.623047"/>
       <use xlink:href="#DejaVuSans-30" x="127.246094"/>
       <use xlink:href="#DejaVuSans-30" x="190.869141"/>
       <use xlink:href="#DejaVuSans-30" x="254.492188"/>
      </g>
     </g>
    </g>
    <g id="xtick_7">
     <g id="line2d_7">
      <g>
       <use xlink:href="#m1242d94274" x="388.014377" y="162.432" style="stroke: #000000; stroke-width: 0.8"/>
      </g>
     </g>
     <g id="text_7">
      <!-- 60000 -->
      <g transform="translate(372.108127 177.030437)scale(0.1 -0.1)">
       <defs>
        <path id="DejaVuSans-36" d="M 2113 2584 
Q 1688 2584 1439 2293 
Q 1191 2003 1191 1497 
Q 1191 994 1439 701 
Q 1688 409 2113 409 
Q 2538 409 2786 701 
Q 3034 994 3034 1497 
Q 3034 2003 2786 2293 
Q 2538 2584 2113 2584 
z
M 3366 4563 
L 3366 3988 
Q 3128 4100 2886 4159 
Q 2644 4219 2406 4219 
Q 1781 4219 1451 3797 
Q 1122 3375 1075 2522 
Q 1259 2794 1537 2939 
Q 1816 3084 2150 3084 
Q 2853 3084 3261 2657 
Q 3669 2231 3669 1497 
Q 3669 778 3244 343 
Q 2819 -91 2113 -91 
Q 1303 -91 875 529 
Q 447 1150 447 2328 
Q 447 3434 972 4092 
Q 1497 4750 2381 4750 
Q 2619 4750 2861 4703 
Q 3103 4656 3366 4563 
z
" transform="scale(0.015625)"/>
       </defs>
       <use xlink:href="#DejaVuSans-36"/>
       <use xlink:href="#DejaVuSans-30" x="63.623047"/>
       <use xlink:href="#DejaVuSans-30" x="127.246094"/>
       <use xlink:href="#DejaVuSans-30" x="190.869141"/>
       <use xlink:href="#DejaVuSans-30" x="254.492188"/>
      </g>
     </g>
    </g>
   </g>
   <g id="matplotlib.axis_2">
    <g id="ytick_1">
     <g id="line2d_8">
      <defs>
       <path id="mcfe0b1a847" d="M 0 0 
L -3.5 0 
" style="stroke: #000000; stroke-width: 0.8"/>
      </defs>
      <g>
       <use xlink:href="#mcfe0b1a847" x="57.6" y="142.83541" style="stroke: #000000; stroke-width: 0.8"/>
      </g>
     </g>
     <g id="text_8">
      <!-- 20 -->
      <g transform="translate(37.875 146.634629)scale(0.1 -0.1)">
       <use xlink:href="#DejaVuSans-32"/>
       <use xlink:href="#DejaVuSans-30" x="63.623047"/>
      </g>
     </g>
    </g>
    <g id="ytick_2">
     <g id="line2d_9">
      <g>
       <use xlink:href="#mcfe0b1a847" x="57.6" y="119.140606" style="stroke: #000000; stroke-width: 0.8"/>
      </g>
     </g>
     <g id="text_9">
      <!-- 40 -->
      <g transform="translate(37.875 122.939825)scale(0.1 -0.1)">
       <use xlink:href="#DejaVuSans-34"/>
       <use xlink:href="#DejaVuSans-30" x="63.623047"/>
      </g>
     </g>
    </g>
    <g id="ytick_3">
     <g id="line2d_10">
      <g>
       <use xlink:href="#mcfe0b1a847" x="57.6" y="95.445802" style="stroke: #000000; stroke-width: 0.8"/>
      </g>
     </g>
     <g id="text_10">
      <!-- 60 -->
      <g transform="translate(37.875 99.24502)scale(0.1 -0.1)">
       <use xlink:href="#DejaVuSans-36"/>
       <use xlink:href="#DejaVuSans-30" x="63.623047"/>
      </g>
     </g>
    </g>
    <g id="ytick_4">
     <g id="line2d_11">
      <g>
       <use xlink:href="#mcfe0b1a847" x="57.6" y="71.750998" style="stroke: #000000; stroke-width: 0.8"/>
      </g>
     </g>
     <g id="text_11">
      <!-- 80 -->
      <g transform="translate(37.875 75.550216)scale(0.1 -0.1)">
       <defs>
        <path id="DejaVuSans-38" d="M 2034 2216 
Q 1584 2216 1326 1975 
Q 1069 1734 1069 1313 
Q 1069 891 1326 650 
Q 1584 409 2034 409 
Q 2484 409 2743 651 
Q 3003 894 3003 1313 
Q 3003 1734 2745 1975 
Q 2488 2216 2034 2216 
z
M 1403 2484 
Q 997 2584 770 2862 
Q 544 3141 544 3541 
Q 544 4100 942 4425 
Q 1341 4750 2034 4750 
Q 2731 4750 3128 4425 
Q 3525 4100 3525 3541 
Q 3525 3141 3298 2862 
Q 3072 2584 2669 2484 
Q 3125 2378 3379 2068 
Q 3634 1759 3634 1313 
Q 3634 634 3220 271 
Q 2806 -91 2034 -91 
Q 1263 -91 848 271 
Q 434 634 434 1313 
Q 434 1759 690 2068 
Q 947 2378 1403 2484 
z
M 1172 3481 
Q 1172 3119 1398 2916 
Q 1625 2713 2034 2713 
Q 2441 2713 2670 2916 
Q 2900 3119 2900 3481 
Q 2900 3844 2670 4047 
Q 2441 4250 2034 4250 
Q 1625 4250 1398 4047 
Q 1172 3844 1172 3481 
z
" transform="scale(0.015625)"/>
       </defs>
       <use xlink:href="#DejaVuSans-38"/>
       <use xlink:href="#DejaVuSans-30" x="63.623047"/>
      </g>
     </g>
    </g>
    <g id="ytick_5">
     <g id="line2d_12">
      <g>
       <use xlink:href="#mcfe0b1a847" x="57.6" y="48.056194" style="stroke: #000000; stroke-width: 0.8"/>
      </g>
     </g>
     <g id="text_12">
      <!-- 100 -->
      <g transform="translate(31.5125 51.855412)scale(0.1 -0.1)">
       <use xlink:href="#DejaVuSans-31"/>
       <use xlink:href="#DejaVuSans-30" x="63.623047"/>
       <use xlink:href="#DejaVuSans-30" x="127.246094"/>
      </g>
     </g>
    </g>
   </g>
   <g id="line2d_13">
    <path d="M 73.832727 49.240934 
L 73.8432 48.944749 
L 73.864146 52.104056 
L 73.874619 51.709143 
L 73.979348 58.323942 
L 74.00553 57.139202 
L 74.016003 57.139202 
L 74.07884 61.878163 
L 74.141678 61.443758 
L 74.146914 61.443758 
L 74.262116 67.367459 
L 74.277825 66.577632 
L 74.31448 66.577632 
L 74.324953 66.182719 
L 74.361609 69.736939 
L 74.382554 69.736939 
L 74.387791 69.736939 
L 74.393027 70.92168 
L 74.461101 69.539483 
L 74.497756 69.539483 
L 74.523938 69.539483 
L 74.534411 69.144569 
L 74.581539 73.093703 
L 74.586776 73.093703 
L 74.592012 73.093703 
L 74.618194 72.797518 
L 74.665323 75.166999 
L 74.681032 75.166999 
L 74.81718 86.323302 
L 74.838125 85.928389 
L 74.843362 85.928389 
L 75.026637 102.277804 
L 75.047583 101.685433 
L 75.084238 105.239654 
L 75.110421 105.239654 
L 75.115657 105.239654 
L 75.283223 120.246363 
L 75.28846 119.85145 
L 75.293696 119.85145 
L 75.45079 130.277164 
L 75.492681 130.277164 
L 75.628829 136.200865 
L 75.644538 136.200865 
L 75.738794 135.608495 
L 75.744031 136.793235 
L 75.749267 136.793235 
L 75.885415 136.793235 
L 76.01109 140.347455 
L 76.100109 140.347455 
L 76.215311 139.952542 
L 76.461424 139.952542 
L 76.576626 141.137282 
L 76.608045 141.137282 
L 76.665646 140.149999 
L 76.670882 141.334739 
L 76.712774 141.334739 
L 76.822739 141.334739 
L 76.937941 140.742369 
L 77.032197 140.742369 
L 77.147399 141.927109 
L 77.199763 141.927109 
L 77.314965 143.111849 
L 77.744354 143.111849 
L 77.859556 144.296589 
L 78.262762 144.296589 
L 78.377964 143.901676 
L 78.388437 143.901676 
L 78.503639 143.506763 
L 79.456673 143.506763 
L 79.51951 144.691503 
L 79.566638 144.296589 
L 80.284031 144.296589 
L 80.399233 143.901676 
L 80.441125 143.901676 
L 80.556327 143.506763 
L 82.404793 143.506763 
L 82.519995 142.914392 
L 82.933674 142.914392 
L 83.048876 144.099133 
L 83.164078 143.506763 
L 83.609176 143.506763 
L 83.724378 143.111849 
L 83.897181 143.111849 
L 84.012382 144.296589 
L 86.520641 144.296589 
L 86.635843 145.48133 
L 98.265994 145.48133 
L 98.381196 146.66607 
L 98.726802 146.66607 
L 98.842003 146.0737 
L 99.135244 146.0737 
L 99.250446 147.25844 
L 111.446134 147.25844 
L 111.561336 148.44318 
L 116.363159 148.44318 
L 116.478361 149.62792 
L 117.263828 149.62792 
L 117.37903 149.233007 
L 120.306204 149.233007 
L 120.421406 150.417747 
L 124.715293 150.417747 
L 124.830495 149.825377 
L 140.398455 149.825377 
L 140.513657 149.430464 
L 141.236287 149.430464 
L 141.351489 150.615204 
L 189.662959 150.615204 
L 189.778161 150.22029 
L 189.877654 150.22029 
L 189.992855 149.825377 
L 193.55364 149.825377 
L 193.668842 151.010117 
L 212.97039 151.010117 
L 213.085591 152.194857 
L 234.895398 152.194857 
L 235.0106 153.379598 
L 301.125993 153.379598 
L 301.241195 154.564338 
L 303.278173 154.564338 
L 303.393375 155.749078 
L 331.083713 155.749078 
L 331.198915 156.933818 
L 398.487273 156.933818 
L 398.487273 156.933818 
" clip-path="url(#pea58c3286b)" style="fill: none; stroke: #1f77b4; stroke-width: 1.5; stroke-linecap: square"/>
   </g>
   <g id="line2d_14">
    <path d="M 73.832727 48.056194 
L 73.837964 48.056194 
L 73.989821 57.731572 
L 73.995057 57.731572 
L 74.036949 56.941745 
L 74.068367 60.495966 
L 74.199279 66.22221 
L 74.345899 61.878163 
L 74.351136 63.062903 
L 74.356372 63.062903 
L 74.387791 65.432383 
L 74.471574 64.4451 
L 74.482047 64.4451 
L 74.612958 69.578974 
L 74.618194 69.578974 
L 74.707214 69.480246 
L 74.743869 73.034466 
L 74.754342 73.034466 
L 74.869544 77.733936 
L 74.880017 77.141566 
L 74.89049 77.141566 
L 74.927145 76.154282 
L 74.948091 78.523763 
L 74.9638 78.523763 
L 75.073765 85.632204 
L 75.094711 85.336019 
L 75.115657 83.558908 
L 75.183731 89.877523 
L 75.330351 98.960531 
L 75.340824 98.960531 
L 75.346061 98.368161 
L 75.393189 104.291862 
L 75.429844 104.054914 
L 75.513627 106.424394 
L 75.539809 106.424394 
L 75.670721 111.163355 
L 75.738794 111.163355 
L 75.853996 112.348095 
L 75.885415 112.348095 
L 76.01109 115.902316 
L 76.073927 115.902316 
L 76.189129 117.087056 
L 76.461424 117.087056 
L 76.576626 118.271796 
L 76.665646 118.271796 
L 76.786084 120.641277 
L 76.990305 120.641277 
L 77.110744 123.010757 
L 77.199763 123.010757 
L 77.314965 124.195497 
L 77.744354 124.195497 
L 77.859556 125.380237 
L 79.456673 125.380237 
L 79.571874 126.564978 
L 82.933674 126.564978 
L 83.048876 127.749718 
L 83.897181 127.749718 
L 84.012382 128.934458 
L 86.520641 128.934458 
L 86.635843 130.119198 
L 96.229016 130.119198 
L 96.344218 131.303938 
L 98.265994 131.303938 
L 98.381196 132.488679 
L 99.135244 132.488679 
L 99.250446 133.673419 
L 111.446134 133.673419 
L 111.561336 134.858159 
L 116.363159 134.858159 
L 116.478361 136.042899 
L 141.236287 136.042899 
L 141.351489 137.227639 
L 234.895398 137.227639 
L 235.0106 138.41238 
L 301.125993 138.41238 
L 301.241195 139.59712 
L 398.487273 139.59712 
L 398.487273 139.59712 
" clip-path="url(#pea58c3286b)" style="fill: none; stroke: #ff7f0e; stroke-width: 1.5; stroke-linecap: square"/>
   </g>
   <g id="line2d_15">
    <path d="M 73.832727 49.240934 
L 73.837964 49.240934 
L 73.8432 48.84602 
L 73.879855 53.190068 
L 73.890328 52.795154 
L 74.026476 58.580636 
L 74.036949 58.580636 
L 74.068367 57.948774 
L 74.099786 61.108082 
L 74.115495 60.871134 
L 74.146914 60.871134 
L 74.173096 59.587665 
L 74.214988 62.746972 
L 74.225461 61.562232 
L 74.356372 67.880846 
L 74.361609 67.584661 
L 74.387791 66.103736 
L 74.450628 70.447783 
L 74.461101 70.05287 
L 74.47681 70.05287 
L 74.487283 68.670673 
L 74.56583 73.172686 
L 74.571066 72.777773 
L 74.707214 80.379855 
L 74.72816 78.997659 
L 74.80147 82.472897 
L 74.942854 91.457176 
L 74.948091 91.220228 
L 74.953327 91.220228 
L 75.000455 89.048205 
L 75.016165 92.602425 
L 75.042347 92.602425 
L 75.168022 99.37519 
L 75.178494 98.684092 
L 75.188967 98.486635 
L 75.220386 100.461202 
L 75.241332 99.671375 
L 75.251805 102.040856 
L 75.319879 98.05223 
L 75.340824 98.05223 
L 75.398425 98.05223 
L 75.529336 104.568301 
L 75.534573 103.975931 
L 75.539809 103.975931 
L 75.649775 102.198821 
L 75.655011 103.383561 
L 75.785922 103.383561 
L 75.817341 102.791191 
L 75.822578 103.975931 
L 75.890651 103.975931 
L 75.916834 103.975931 
L 76.037272 106.345412 
L 76.073927 106.345412 
L 76.189129 105.358128 
L 76.293858 105.358128 
L 76.361932 104.173388 
L 76.403823 105.358128 
L 76.576626 105.358128 
L 76.608045 106.542868 
L 76.665646 104.370845 
L 76.681355 104.370845 
L 76.702301 104.370845 
L 76.754665 103.778474 
L 76.759902 104.963215 
L 76.80703 104.963215 
L 76.822739 104.963215 
L 76.937941 104.370845 
L 76.990305 104.370845 
L 77.105507 103.778474 
L 77.168345 103.778474 
L 77.283547 102.593734 
L 77.356857 102.593734 
L 77.44064 103.778474 
L 77.466822 102.593734 
L 78.07425 102.593734 
L 78.189452 103.778474 
L 78.262762 103.778474 
L 78.377964 103.383561 
L 78.388437 103.383561 
L 78.503639 102.988648 
L 80.126938 102.988648 
L 80.24214 104.173388 
L 80.284031 104.173388 
L 80.399233 103.778474 
L 82.404793 103.778474 
L 82.519995 103.186104 
L 82.682325 103.186104 
L 82.797526 104.370845 
L 83.048876 104.370845 
L 83.164078 103.778474 
L 83.609176 103.778474 
L 83.724378 103.383561 
L 83.949545 103.383561 
L 84.064747 104.568301 
L 84.818795 104.568301 
L 84.933997 103.975931 
L 96.229016 103.975931 
L 96.344218 103.383561 
L 98.726802 103.383561 
L 98.842003 102.791191 
L 98.941496 102.791191 
L 99.056698 103.975931 
L 99.334229 103.975931 
L 99.449431 105.160671 
L 121.044543 105.160671 
L 121.159745 103.975931 
L 124.715293 103.975931 
L 124.830495 103.383561 
L 184.845427 103.383561 
L 184.965865 105.753041 
L 189.877654 105.753041 
L 189.992855 105.358128 
L 197.261045 105.358128 
L 197.376247 104.173388 
L 234.27226 104.173388 
L 234.387462 102.988648 
L 280.693373 102.988648 
L 280.808575 104.173388 
L 398.487273 104.173388 
L 398.487273 104.173388 
" clip-path="url(#pea58c3286b)" style="fill: none; stroke: #2ca02c; stroke-width: 1.5; stroke-linecap: square"/>
   </g>
   <g id="line2d_16">
    <path d="M 73.832727 47.760009 
L 73.984584 58.679364 
L 73.989821 58.442416 
L 73.995057 58.442416 
L 74.068367 60.278763 
L 74.110259 59.74563 
L 74.120732 59.74563 
L 74.230697 63.299851 
L 74.24117 62.904938 
L 74.25688 62.510024 
L 74.304008 65.669331 
L 74.309244 65.669331 
L 74.440155 71.593032 
L 74.47681 70.901934 
L 74.508229 72.777773 
L 74.523938 72.382859 
L 74.63914 76.39123 
L 74.649613 75.996317 
L 74.665323 75.601403 
L 74.701978 78.859439 
L 74.707214 78.563254 
L 74.827652 83.420689 
L 74.785761 77.496988 
L 74.832889 83.025775 
L 74.838125 82.72959 
L 74.906199 83.973567 
L 75.03711 91.57565 
L 75.042347 91.180737 
L 75.058056 90.489639 
L 75.105184 94.458518 
L 75.110421 94.162333 
L 75.152312 94.162333 
L 75.251805 97.775791 
L 75.27275 96.749016 
L 75.283223 96.749016 
L 75.356534 98.723583 
L 75.398425 97.933756 
L 75.424607 97.301895 
L 75.429844 98.486635 
L 75.513627 97.696808 
L 75.518864 97.696808 
L 75.634065 97.301895 
L 75.649775 97.301895 
L 75.764977 96.906981 
L 75.785922 96.906981 
L 75.817341 98.091722 
L 75.895888 97.696808 
L 75.916834 97.696808 
L 76.037272 96.906981 
L 76.361932 96.906981 
L 76.477134 96.512068 
L 76.576626 96.512068 
L 76.691828 96.117155 
L 76.754665 96.117155 
L 76.869867 95.722241 
L 77.356857 95.722241 
L 77.472059 95.327328 
L 78.07425 95.327328 
L 78.189452 94.932414 
L 80.126938 94.932414 
L 80.24214 94.537501 
L 82.682325 94.537501 
L 82.797526 94.142588 
L 83.949545 94.142588 
L 84.064747 93.747674 
L 98.941496 93.747674 
L 99.056698 93.352761 
L 99.334229 93.352761 
L 99.449431 92.957847 
L 184.845427 92.957847 
L 184.965865 92.168021 
L 280.693373 92.168021 
L 280.808575 91.773107 
L 398.487273 91.773107 
L 398.487273 91.773107 
" clip-path="url(#pea58c3286b)" style="fill: none; stroke: #d62728; stroke-width: 1.5; stroke-linecap: square"/>
   </g>
   <g id="line2d_17">
    <path d="M 73.832727 48.056194 
L 398.487273 48.056194 
L 398.487273 48.056194 
" clip-path="url(#pea58c3286b)" style="fill: none; stroke: #9467bd; stroke-width: 1.5; stroke-linecap: square"/>
   </g>
   <g id="line2d_18">
    <path d="M 73.832727 49.240934 
L 73.968875 55.658277 
L 73.979348 55.658277 
L 74.010767 54.236588 
L 74.026476 57.790809 
L 74.068367 57.158948 
L 74.204515 62.944429 
L 74.209752 62.549515 
L 74.262116 66.893563 
L 74.272589 66.103736 
L 74.31448 66.103736 
L 74.324953 65.708823 
L 74.356372 68.078303 
L 74.387791 67.485933 
L 74.513466 71.82998 
L 74.523938 71.82998 
L 74.544884 70.803206 
L 74.581539 73.962513 
L 74.597249 73.666328 
L 74.712451 77.220548 
L 74.722923 77.023092 
L 74.72816 77.023092 
L 74.81718 80.340364 
L 74.796234 76.786144 
L 74.848598 79.451809 
L 74.853835 79.056896 
L 74.895726 82.611116 
L 74.911436 82.611116 
L 74.942854 85.572967 
L 75.031874 84.941105 
L 75.063293 84.941105 
L 75.068529 84.704157 
L 75.084238 88.258378 
L 75.105184 87.666008 
L 75.236095 92.799882 
L 75.36177 91.615142 
L 75.398425 91.615142 
L 75.513627 93.984622 
L 75.5241 94.576992 
L 75.628829 93.392252 
L 75.649775 93.392252 
L 75.764977 94.576992 
L 75.785922 94.576992 
L 75.817341 93.984622 
L 75.822578 95.169362 
L 75.895888 94.576992 
L 75.916834 94.576992 
L 76.037272 96.946473 
L 76.073927 96.946473 
L 76.189129 95.959189 
L 76.361932 95.959189 
L 76.477134 97.143929 
L 76.576626 97.143929 
L 76.608045 98.32867 
L 76.686591 97.933756 
L 76.702301 97.933756 
L 76.754665 97.341386 
L 76.759902 98.526126 
L 76.80703 98.526126 
L 76.990305 98.526126 
L 77.105507 97.933756 
L 77.356857 97.933756 
L 77.472059 99.118496 
L 78.07425 99.118496 
L 78.189452 100.303237 
L 78.262762 100.303237 
L 78.377964 99.908323 
L 78.388437 99.908323 
L 78.503639 99.51341 
L 80.126938 99.51341 
L 80.24214 100.69815 
L 80.284031 100.69815 
L 80.399233 100.303237 
L 82.682325 100.303237 
L 82.797526 101.487977 
L 83.609176 101.487977 
L 83.724378 101.093063 
L 83.949545 101.093063 
L 84.064747 102.277804 
L 84.818795 102.277804 
L 84.933997 101.685433 
L 96.229016 101.685433 
L 96.344218 101.093063 
L 98.941496 101.093063 
L 99.056698 102.277804 
L 101.842488 102.277804 
L 101.95769 101.685433 
L 184.913501 101.685433 
L 185.028703 102.870174 
L 189.662959 102.870174 
L 189.778161 102.47526 
L 189.877654 102.47526 
L 189.992855 102.080347 
L 280.693373 102.080347 
L 280.808575 103.265087 
L 364.015735 103.265087 
L 364.130937 102.672717 
L 398.487273 102.672717 
L 398.487273 102.672717 
" clip-path="url(#pea58c3286b)" style="fill: none; stroke: #8c564b; stroke-width: 1.5; stroke-linecap: square"/>
   </g>
   <g id="line2d_19">
    <path d="M 73.832727 48.056194 
L 73.953166 47.365095 
L 398.487273 47.365095 
L 398.487273 47.365095 
" clip-path="url(#pea58c3286b)" style="fill: none; stroke: #e377c2; stroke-width: 1.5; stroke-linecap: square"/>
   </g>
   <g id="line2d_20">
    <path d="M 73.832727 48.056194 
L 73.958402 55.125144 
L 73.968875 54.13786 
L 73.979348 53.742947 
L 74.026476 58.008011 
L 74.031712 58.008011 
L 74.052658 59.192752 
L 74.105023 57.395896 
L 74.136441 57.395896 
L 74.146914 57.395896 
L 74.225461 57.099711 
L 74.230697 58.284451 
L 74.24117 58.284451 
L 74.262116 58.284451 
L 74.345899 61.838671 
L 74.382554 61.246301 
L 74.393027 61.246301 
L 74.518702 64.603065 
L 74.523938 64.603065 
L 74.649613 68.413979 
L 74.660086 68.413979 
L 74.665323 68.117794 
L 74.701978 71.079645 
L 74.785761 70.803206 
L 74.832889 76.726907 
L 74.838125 76.430721 
L 74.87478 79.4913 
L 74.89049 79.4913 
L 75.005692 83.203486 
L 75.010928 82.907301 
L 75.026637 82.611116 
L 75.063293 84.684412 
L 75.073765 84.210515 
L 75.209913 90.331673 
L 75.21515 90.331673 
L 75.241332 90.094725 
L 75.28846 92.029801 
L 75.314642 92.029801 
L 75.45079 97.953502 
L 75.513627 97.953502 
L 75.639302 101.507722 
L 75.644538 101.507722 
L 75.75974 102.692463 
L 75.785922 102.692463 
L 75.901124 103.877203 
L 76.100109 103.877203 
L 76.215311 105.061943 
L 76.293858 105.061943 
L 76.40906 106.246683 
L 76.634227 106.246683 
L 76.754665 108.616164 
L 76.822739 108.616164 
L 76.937941 109.800904 
L 77.168345 109.800904 
L 77.283547 110.985644 
L 77.44064 110.985644 
L 77.555842 112.170384 
L 77.733881 112.170384 
L 77.849083 111.578014 
L 79.51951 111.578014 
L 79.634712 111.183101 
L 80.441125 111.183101 
L 80.556327 110.788187 
L 82.404793 110.788187 
L 82.519995 111.972928 
L 83.048876 111.972928 
L 83.164078 113.157668 
L 88.657112 113.157668 
L 88.772314 112.565298 
L 98.726802 112.565298 
L 98.842003 113.750038 
L 109.189225 113.750038 
L 109.304427 113.157668 
L 117.263828 113.157668 
L 117.37903 112.762754 
L 121.044543 112.762754 
L 121.159745 113.947495 
L 124.715293 113.947495 
L 124.830495 115.132235 
L 135.245791 115.132235 
L 135.360992 114.539865 
L 140.398455 114.539865 
L 140.513657 114.144951 
L 152.169991 114.144951 
L 152.285193 113.552581 
L 197.261045 113.552581 
L 197.376247 114.737321 
L 224.988038 114.737321 
L 225.10324 114.144951 
L 234.27226 114.144951 
L 234.387462 115.329691 
L 303.278173 115.329691 
L 303.393375 114.737321 
L 398.487273 114.737321 
L 398.487273 114.737321 
" clip-path="url(#pea58c3286b)" style="fill: none; stroke: #7f7f7f; stroke-width: 1.5; stroke-linecap: square"/>
   </g>
   <g id="line2d_21">
    <path d="M 73.832727 47.760009 
L 74.00553 62.431041 
L 74.010767 62.431041 
L 74.031712 61.502995 
L 74.07884 64.188406 
L 74.209752 70.013379 
L 74.251643 69.421009 
L 74.272589 72.580316 
L 74.298771 72.185402 
L 74.440155 80.379855 
L 74.455865 79.688757 
L 74.508229 82.749336 
L 74.513466 82.354423 
L 74.523938 82.354423 
L 74.628667 88.969222 
L 74.65485 87.784482 
L 74.660086 87.784482 
L 74.796234 95.248345 
L 74.80147 94.853432 
L 74.81718 93.866148 
L 74.843362 98.210196 
L 74.895726 96.097409 
L 74.900963 96.097409 
L 75.03711 102.870174 
L 75.047583 102.080347 
L 75.099948 105.693804 
L 75.241332 114.24368 
L 75.262278 112.624535 
L 75.319879 117.560952 
L 75.325115 117.560952 
L 75.419371 112.585043 
L 75.445553 114.362154 
L 75.476972 114.362154 
L 75.513627 112.979957 
L 75.560755 115.546894 
L 75.592174 113.769784 
L 75.61312 113.769784 
L 75.733558 112.19013 
L 75.738794 112.19013 
L 75.785922 111.59776 
L 75.83305 113.572327 
L 75.885415 113.572327 
L 76.01109 111.400303 
L 76.016326 111.400303 
L 76.073927 111.00539 
L 76.079164 112.19013 
L 76.100109 112.19013 
L 76.215311 113.37487 
L 76.293858 113.37487 
L 76.361932 114.55961 
L 76.403823 114.164697 
L 76.461424 114.164697 
L 76.576626 113.572327 
L 76.608045 113.177413 
L 76.639463 115.546894 
L 76.660409 115.546894 
L 76.754665 117.324004 
L 76.775611 116.929091 
L 76.796557 116.929091 
L 76.822739 115.744351 
L 76.906522 116.929091 
L 76.990305 116.929091 
L 77.032197 118.113831 
L 77.100271 117.521461 
L 77.168345 117.521461 
L 77.199763 118.706201 
L 77.27831 118.113831 
L 77.356857 118.113831 
L 77.44064 117.718918 
L 77.445876 118.903658 
L 77.456349 118.903658 
L 77.733881 118.903658 
L 77.744354 120.088398 
L 77.843847 119.496028 
L 78.058541 119.496028 
L 78.173743 117.916374 
L 78.262762 117.916374 
L 78.377964 119.101114 
L 78.388437 119.101114 
L 78.503639 120.285855 
L 78.629314 120.285855 
L 78.744516 119.101114 
L 79.456673 119.101114 
L 79.51951 118.508744 
L 79.524746 119.693485 
L 79.561401 119.693485 
L 80.064101 119.693485 
L 80.179302 118.113831 
L 80.284031 118.113831 
L 80.399233 119.298571 
L 80.441125 119.298571 
L 80.556327 120.483311 
L 82.404793 120.483311 
L 82.519995 121.668052 
L 82.682325 121.668052 
L 82.797526 121.273138 
L 82.933674 121.273138 
L 83.048876 120.680768 
L 83.164078 121.865508 
L 83.609176 121.865508 
L 83.724378 123.050248 
L 83.897181 123.050248 
L 84.012382 122.062965 
L 84.818795 122.062965 
L 84.933997 123.247705 
L 86.520641 123.247705 
L 86.635843 122.655335 
L 86.944793 122.655335 
L 87.059995 121.470595 
L 88.657112 121.470595 
L 88.772314 122.655335 
L 96.229016 122.655335 
L 96.344218 123.840075 
L 98.265994 123.840075 
L 98.381196 123.247705 
L 98.726802 123.247705 
L 98.842003 124.432445 
L 98.941496 124.432445 
L 99.056698 124.037532 
L 99.135244 124.037532 
L 99.250446 123.445162 
L 99.334229 123.445162 
L 99.449431 123.050248 
L 101.842488 123.050248 
L 101.95769 124.234989 
L 104.020851 124.234989 
L 104.136052 123.050248 
L 104.706825 123.050248 
L 104.822027 121.865508 
L 109.189225 121.865508 
L 109.304427 123.050248 
L 111.446134 123.050248 
L 111.561336 122.457878 
L 116.363159 122.457878 
L 116.478361 121.865508 
L 117.263828 121.865508 
L 117.37903 123.050248 
L 120.306204 123.050248 
L 120.421406 121.865508 
L 121.044543 121.865508 
L 121.159745 123.050248 
L 124.715293 123.050248 
L 124.830495 124.234989 
L 135.245791 124.234989 
L 135.360992 125.419729 
L 139.785791 125.419729 
L 139.900993 124.234989 
L 140.398455 124.234989 
L 140.513657 125.419729 
L 141.236287 125.419729 
L 141.351489 124.827359 
L 152.169991 124.827359 
L 152.285193 126.012099 
L 155.013382 126.012099 
L 155.128584 124.827359 
L 184.845427 124.827359 
L 184.965865 124.037532 
L 189.662959 124.037532 
L 189.778161 125.222272 
L 189.877654 125.222272 
L 189.992855 126.407012 
L 193.55364 126.407012 
L 193.668842 125.222272 
L 197.261045 125.222272 
L 197.376247 126.407012 
L 212.97039 126.407012 
L 213.085591 125.222272 
L 224.988038 125.222272 
L 225.10324 126.407012 
L 234.27226 126.407012 
L 234.387462 127.591753 
L 234.895398 127.591753 
L 235.0106 126.999382 
L 280.693373 126.999382 
L 280.808575 126.604469 
L 301.125993 126.604469 
L 301.241195 126.012099 
L 303.278173 126.012099 
L 303.393375 127.196839 
L 331.083713 127.196839 
L 331.198915 126.012099 
L 364.015735 126.012099 
L 364.130937 127.196839 
L 398.487273 127.196839 
L 398.487273 127.196839 
" clip-path="url(#pea58c3286b)" style="fill: none; stroke: #bcbd22; stroke-width: 1.5; stroke-linecap: square"/>
   </g>
   <g id="line2d_22">
    <path d="M 73.832727 47.760009 
L 74.00553 62.589007 
L 74.010767 62.589007 
L 74.021239 62.055874 
L 74.036949 64.425354 
L 74.089313 64.346371 
L 74.220224 69.440754 
L 74.225461 69.440754 
L 74.377318 78.721219 
L 74.387791 78.425034 
L 74.429682 81.68307 
L 74.434919 81.68307 
L 74.440155 81.68307 
L 74.555357 86.579996 
L 74.56583 85.987626 
L 74.592012 85.987626 
L 74.712451 92.602425 
L 74.72816 92.404969 
L 74.733396 92.404969 
L 74.790997 90.746332 
L 74.80147 93.115813 
L 74.911436 103.284833 
L 74.942854 101.310266 
L 74.948091 101.073318 
L 74.989982 104.035168 
L 75.000455 103.541526 
L 75.005692 103.541526 
L 75.016165 102.949156 
L 75.063293 105.417365 
L 75.073765 104.943469 
L 75.105184 108.49769 
L 75.188967 106.621851 
L 75.19944 106.621851 
L 75.346061 116.810617 
L 75.351297 116.218247 
L 75.356534 116.218247 
L 75.398425 114.83605 
L 75.424607 117.20553 
L 75.461263 116.61316 
L 75.482208 116.61316 
L 75.513627 115.625876 
L 75.534573 117.995357 
L 75.555519 117.995357 
L 75.675957 120.957207 
L 75.738794 120.957207 
L 75.785922 120.364837 
L 75.791159 121.549577 
L 75.84876 120.957207 
L 75.885415 120.957207 
L 76.01109 119.180097 
L 76.100109 119.180097 
L 76.215311 120.364837 
L 76.293858 120.364837 
L 76.40906 121.549577 
L 76.461424 121.549577 
L 76.576626 120.957207 
L 76.634227 120.957207 
L 76.665646 123.326688 
L 76.749429 122.734318 
L 76.796557 122.734318 
L 76.916995 125.103798 
L 77.032197 125.103798 
L 77.147399 124.511428 
L 77.168345 124.511428 
L 77.199763 125.696168 
L 77.27831 125.103798 
L 77.44064 125.103798 
L 77.555842 126.288538 
L 77.733881 126.288538 
L 77.854319 125.103798 
L 78.058541 125.103798 
L 78.173743 126.288538 
L 78.629314 126.288538 
L 78.744516 127.473279 
L 79.456673 127.473279 
L 79.571874 126.485995 
L 80.064101 126.485995 
L 80.179302 127.670735 
L 80.284031 127.670735 
L 80.399233 128.855475 
L 80.441125 128.855475 
L 80.556327 128.460562 
L 82.404793 128.460562 
L 82.519995 129.645302 
L 82.933674 129.645302 
L 83.048876 129.052932 
L 83.164078 130.237672 
L 83.609176 130.237672 
L 83.724378 131.422413 
L 83.897181 131.422413 
L 84.012382 130.830042 
L 84.818795 130.830042 
L 84.933997 132.014783 
L 86.520641 132.014783 
L 86.635843 131.422413 
L 86.944793 131.422413 
L 87.059995 132.607153 
L 88.657112 132.607153 
L 88.772314 132.014783 
L 98.265994 132.014783 
L 98.381196 131.422413 
L 98.726802 131.422413 
L 98.842003 132.607153 
L 99.135244 132.607153 
L 99.250446 132.014783 
L 99.334229 132.014783 
L 99.449431 131.619869 
L 101.842488 131.619869 
L 101.95769 131.027499 
L 104.020851 131.027499 
L 104.136052 132.212239 
L 104.706825 132.212239 
L 104.822027 133.39698 
L 109.189225 133.39698 
L 109.304427 132.804609 
L 111.446134 132.804609 
L 111.561336 132.212239 
L 116.363159 132.212239 
L 116.478361 131.619869 
L 117.263828 131.619869 
L 117.37903 131.224956 
L 120.306204 131.224956 
L 120.421406 132.409696 
L 121.044543 132.409696 
L 121.159745 133.594436 
L 124.715293 133.594436 
L 124.830495 134.779176 
L 135.245791 134.779176 
L 135.360992 134.186806 
L 139.785791 134.186806 
L 139.900993 135.371547 
L 140.398455 135.371547 
L 140.513657 134.976633 
L 141.236287 134.976633 
L 141.351489 134.384263 
L 152.169991 134.384263 
L 152.285193 133.791893 
L 155.013382 133.791893 
L 155.128584 134.976633 
L 184.845427 134.976633 
L 184.960629 134.58172 
L 189.662959 134.58172 
L 189.778161 134.186806 
L 189.877654 134.186806 
L 189.992855 135.371547 
L 193.55364 135.371547 
L 193.668842 136.556287 
L 197.261045 136.556287 
L 197.376247 137.741027 
L 212.97039 137.741027 
L 213.085591 138.925767 
L 224.988038 138.925767 
L 225.10324 138.333397 
L 234.27226 138.333397 
L 234.387462 139.518137 
L 234.895398 139.518137 
L 235.0106 138.925767 
L 301.125993 138.925767 
L 301.241195 138.333397 
L 303.278173 138.333397 
L 303.393375 137.741027 
L 331.083713 137.741027 
L 331.198915 138.925767 
L 364.015735 138.925767 
L 364.130937 138.333397 
L 398.487273 138.333397 
L 398.487273 138.333397 
" clip-path="url(#pea58c3286b)" style="fill: none; stroke: #17becf; stroke-width: 1.5; stroke-linecap: square"/>
   </g>
   <g id="line2d_23">
    <path d="M 73.832727 47.760009 
L 73.837964 47.463824 
L 73.874619 50.623131 
L 73.879855 50.623131 
L 73.906038 49.793813 
L 74.010767 55.3226 
L 74.036949 54.394554 
L 74.057895 56.764034 
L 74.089313 56.132173 
L 74.209752 60.081307 
L 74.214988 59.488937 
L 74.225461 59.488937 
L 74.251643 58.69911 
L 74.272589 61.858417 
L 74.304008 61.858417 
L 74.31448 61.858417 
L 74.434919 64.721539 
L 74.445392 64.721539 
L 74.455865 64.326626 
L 74.508229 67.584661 
L 74.518702 67.189748 
L 74.523938 67.189748 
L 74.63914 72.619807 
L 74.65485 71.82998 
L 74.660086 71.82998 
L 74.796234 79.135878 
L 74.80147 78.740965 
L 74.81718 77.753681 
L 74.853835 82.492642 
L 74.869544 81.860781 
L 74.89049 81.860781 
L 74.921908 80.774769 
L 74.969037 83.934076 
L 74.989982 83.934076 
L 75.105184 86.362794 
L 75.110421 86.066608 
L 75.131366 86.066608 
L 75.277987 94.517755 
L 75.283223 94.517755 
L 75.314642 94.122842 
L 75.346061 96.492322 
L 75.367007 96.492322 
L 75.398425 96.492322 
L 75.419371 95.860461 
L 75.429844 98.229941 
L 75.466499 98.229941 
L 75.476972 98.229941 
L 75.513627 97.835028 
L 75.534573 99.809595 
L 75.555519 99.809595 
L 75.649775 100.994335 
L 75.665484 100.599422 
L 75.785922 100.599422 
L 75.901124 102.573989 
L 75.916834 102.573989 
L 76.037272 101.784162 
L 76.073927 101.784162 
L 76.194365 104.153642 
L 76.361932 104.153642 
L 76.477134 103.758729 
L 76.576626 103.758729 
L 76.608045 103.363815 
L 76.613281 104.548556 
L 76.676119 104.548556 
L 76.702301 104.548556 
L 76.754665 105.733296 
L 76.812266 105.338382 
L 76.990305 105.338382 
L 77.105507 106.523123 
L 77.356857 106.523123 
L 77.472059 106.128209 
L 78.07425 106.128209 
L 78.189452 105.733296 
L 78.262762 105.733296 
L 78.377964 106.918036 
L 78.388437 106.918036 
L 78.503639 108.102776 
L 80.126938 108.102776 
L 80.24214 107.707863 
L 80.284031 107.707863 
L 80.399233 108.892603 
L 82.682325 108.892603 
L 82.797526 108.49769 
L 83.609176 108.49769 
L 83.724378 109.68243 
L 83.949545 109.68243 
L 84.064747 109.287516 
L 84.818795 109.287516 
L 84.933997 110.472257 
L 96.229016 110.472257 
L 96.344218 111.656997 
L 98.941496 111.656997 
L 99.056698 111.262083 
L 101.842488 111.262083 
L 101.95769 112.446824 
L 184.913501 112.446824 
L 185.028703 112.05191 
L 189.662959 112.05191 
L 189.778161 113.23665 
L 189.877654 113.23665 
L 189.992855 114.421391 
L 280.693373 114.421391 
L 280.808575 114.026477 
L 364.015735 114.026477 
L 364.130937 115.211217 
L 398.487273 115.211217 
L 398.487273 115.211217 
" clip-path="url(#pea58c3286b)" style="fill: none; stroke: #1f77b4; stroke-width: 1.5; stroke-linecap: square"/>
   </g>
   <g id="line2d_24">
    <path d="M 73.832727 49.240934 
L 73.979348 46.970182 
L 398.487273 46.970182 
L 398.487273 46.970182 
" clip-path="url(#pea58c3286b)" style="fill: none; stroke: #ff7f0e; stroke-width: 1.5; stroke-linecap: square"/>
   </g>
   <g id="patch_3">
    <path d="M 57.6 162.432 
L 57.6 41.472 
" style="fill: none; stroke: #000000; stroke-width: 0.8; stroke-linejoin: miter; stroke-linecap: square"/>
   </g>
   <g id="patch_4">
    <path d="M 414.72 162.432 
L 414.72 41.472 
" style="fill: none; stroke: #000000; stroke-width: 0.8; stroke-linejoin: miter; stroke-linecap: square"/>
   </g>
   <g id="patch_5">
    <path d="M 57.6 162.432 
L 414.72 162.432 
" style="fill: none; stroke: #000000; stroke-width: 0.8; stroke-linejoin: miter; stroke-linecap: square"/>
   </g>
   <g id="patch_6">
    <path d="M 57.6 41.472 
L 414.72 41.472 
" style="fill: none; stroke: #000000; stroke-width: 0.8; stroke-linejoin: miter; stroke-linecap: square"/>
   </g>
   <g id="text_13">
    <!-- WSP -->
    <g transform="translate(361.832136 156.933818)scale(0.08 -0.08)">
     <defs>
      <path id="DejaVuSans-57" d="M 213 4666 
L 850 4666 
L 1831 722 
L 2809 4666 
L 3519 4666 
L 4500 722 
L 5478 4666 
L 6119 4666 
L 4947 0 
L 4153 0 
L 3169 4050 
L 2175 0 
L 1381 0 
L 213 4666 
z
" transform="scale(0.015625)"/>
      <path id="DejaVuSans-53" d="M 3425 4513 
L 3425 3897 
Q 3066 4069 2747 4153 
Q 2428 4238 2131 4238 
Q 1616 4238 1336 4038 
Q 1056 3838 1056 3469 
Q 1056 3159 1242 3001 
Q 1428 2844 1947 2747 
L 2328 2669 
Q 3034 2534 3370 2195 
Q 3706 1856 3706 1288 
Q 3706 609 3251 259 
Q 2797 -91 1919 -91 
Q 1588 -91 1214 -16 
Q 841 59 441 206 
L 441 856 
Q 825 641 1194 531 
Q 1563 422 1919 422 
Q 2459 422 2753 634 
Q 3047 847 3047 1241 
Q 3047 1584 2836 1778 
Q 2625 1972 2144 2069 
L 1759 2144 
Q 1053 2284 737 2584 
Q 422 2884 422 3419 
Q 422 4038 858 4394 
Q 1294 4750 2059 4750 
Q 2388 4750 2728 4690 
Q 3069 4631 3425 4513 
z
" transform="scale(0.015625)"/>
      <path id="DejaVuSans-50" d="M 1259 4147 
L 1259 2394 
L 2053 2394 
Q 2494 2394 2734 2622 
Q 2975 2850 2975 3272 
Q 2975 3691 2734 3919 
Q 2494 4147 2053 4147 
L 1259 4147 
z
M 628 4666 
L 2053 4666 
Q 2838 4666 3239 4311 
Q 3641 3956 3641 3272 
Q 3641 2581 3239 2228 
Q 2838 1875 2053 1875 
L 1259 1875 
L 1259 0 
L 628 0 
L 628 4666 
z
" transform="scale(0.015625)"/>
     </defs>
     <use xlink:href="#DejaVuSans-57"/>
     <use xlink:href="#DejaVuSans-53" x="98.876953"/>
     <use xlink:href="#DejaVuSans-50" x="162.353516"/>
    </g>
   </g>
   <g id="text_14">
    <!-- Iambic -->
    <g transform="translate(361.832136 139.59712)scale(0.08 -0.08)">
     <defs>
      <path id="DejaVuSans-49" d="M 628 4666 
L 1259 4666 
L 1259 0 
L 628 0 
L 628 4666 
z
" transform="scale(0.015625)"/>
      <path id="DejaVuSans-61" d="M 2194 1759 
Q 1497 1759 1228 1600 
Q 959 1441 959 1056 
Q 959 750 1161 570 
Q 1363 391 1709 391 
Q 2188 391 2477 730 
Q 2766 1069 2766 1631 
L 2766 1759 
L 2194 1759 
z
M 3341 1997 
L 3341 0 
L 2766 0 
L 2766 531 
Q 2569 213 2275 61 
Q 1981 -91 1556 -91 
Q 1019 -91 701 211 
Q 384 513 384 1019 
Q 384 1609 779 1909 
Q 1175 2209 1959 2209 
L 2766 2209 
L 2766 2266 
Q 2766 2663 2505 2880 
Q 2244 3097 1772 3097 
Q 1472 3097 1187 3025 
Q 903 2953 641 2809 
L 641 3341 
Q 956 3463 1253 3523 
Q 1550 3584 1831 3584 
Q 2591 3584 2966 3190 
Q 3341 2797 3341 1997 
z
" transform="scale(0.015625)"/>
      <path id="DejaVuSans-6d" d="M 3328 2828 
Q 3544 3216 3844 3400 
Q 4144 3584 4550 3584 
Q 5097 3584 5394 3201 
Q 5691 2819 5691 2113 
L 5691 0 
L 5113 0 
L 5113 2094 
Q 5113 2597 4934 2840 
Q 4756 3084 4391 3084 
Q 3944 3084 3684 2787 
Q 3425 2491 3425 1978 
L 3425 0 
L 2847 0 
L 2847 2094 
Q 2847 2600 2669 2842 
Q 2491 3084 2119 3084 
Q 1678 3084 1418 2786 
Q 1159 2488 1159 1978 
L 1159 0 
L 581 0 
L 581 3500 
L 1159 3500 
L 1159 2956 
Q 1356 3278 1631 3431 
Q 1906 3584 2284 3584 
Q 2666 3584 2933 3390 
Q 3200 3197 3328 2828 
z
" transform="scale(0.015625)"/>
      <path id="DejaVuSans-62" d="M 3116 1747 
Q 3116 2381 2855 2742 
Q 2594 3103 2138 3103 
Q 1681 3103 1420 2742 
Q 1159 2381 1159 1747 
Q 1159 1113 1420 752 
Q 1681 391 2138 391 
Q 2594 391 2855 752 
Q 3116 1113 3116 1747 
z
M 1159 2969 
Q 1341 3281 1617 3432 
Q 1894 3584 2278 3584 
Q 2916 3584 3314 3078 
Q 3713 2572 3713 1747 
Q 3713 922 3314 415 
Q 2916 -91 2278 -91 
Q 1894 -91 1617 61 
Q 1341 213 1159 525 
L 1159 0 
L 581 0 
L 581 4863 
L 1159 4863 
L 1159 2969 
z
" transform="scale(0.015625)"/>
      <path id="DejaVuSans-69" d="M 603 3500 
L 1178 3500 
L 1178 0 
L 603 0 
L 603 3500 
z
M 603 4863 
L 1178 4863 
L 1178 4134 
L 603 4134 
L 603 4863 
z
" transform="scale(0.015625)"/>
      <path id="DejaVuSans-63" d="M 3122 3366 
L 3122 2828 
Q 2878 2963 2633 3030 
Q 2388 3097 2138 3097 
Q 1578 3097 1268 2742 
Q 959 2388 959 1747 
Q 959 1106 1268 751 
Q 1578 397 2138 397 
Q 2388 397 2633 464 
Q 2878 531 3122 666 
L 3122 134 
Q 2881 22 2623 -34 
Q 2366 -91 2075 -91 
Q 1284 -91 818 406 
Q 353 903 353 1747 
Q 353 2603 823 3093 
Q 1294 3584 2113 3584 
Q 2378 3584 2631 3529 
Q 2884 3475 3122 3366 
z
" transform="scale(0.015625)"/>
     </defs>
     <use xlink:href="#DejaVuSans-49"/>
     <use xlink:href="#DejaVuSans-61" x="29.492188"/>
     <use xlink:href="#DejaVuSans-6d" x="90.771484"/>
     <use xlink:href="#DejaVuSans-62" x="188.183594"/>
     <use xlink:href="#DejaVuSans-69" x="251.660156"/>
     <use xlink:href="#DejaVuSans-63" x="279.443359"/>
    </g>
   </g>
   <g id="text_15">
    <!-- Parse -->
    <g transform="translate(361.832136 104.173388)scale(0.08 -0.08)">
     <defs>
      <path id="DejaVuSans-72" d="M 2631 2963 
Q 2534 3019 2420 3045 
Q 2306 3072 2169 3072 
Q 1681 3072 1420 2755 
Q 1159 2438 1159 1844 
L 1159 0 
L 581 0 
L 581 3500 
L 1159 3500 
L 1159 2956 
Q 1341 3275 1631 3429 
Q 1922 3584 2338 3584 
Q 2397 3584 2469 3576 
Q 2541 3569 2628 3553 
L 2631 2963 
z
" transform="scale(0.015625)"/>
      <path id="DejaVuSans-73" d="M 2834 3397 
L 2834 2853 
Q 2591 2978 2328 3040 
Q 2066 3103 1784 3103 
Q 1356 3103 1142 2972 
Q 928 2841 928 2578 
Q 928 2378 1081 2264 
Q 1234 2150 1697 2047 
L 1894 2003 
Q 2506 1872 2764 1633 
Q 3022 1394 3022 966 
Q 3022 478 2636 193 
Q 2250 -91 1575 -91 
Q 1294 -91 989 -36 
Q 684 19 347 128 
L 347 722 
Q 666 556 975 473 
Q 1284 391 1588 391 
Q 1994 391 2212 530 
Q 2431 669 2431 922 
Q 2431 1156 2273 1281 
Q 2116 1406 1581 1522 
L 1381 1569 
Q 847 1681 609 1914 
Q 372 2147 372 2553 
Q 372 3047 722 3315 
Q 1072 3584 1716 3584 
Q 2034 3584 2315 3537 
Q 2597 3491 2834 3397 
z
" transform="scale(0.015625)"/>
      <path id="DejaVuSans-65" d="M 3597 1894 
L 3597 1613 
L 953 1613 
Q 991 1019 1311 708 
Q 1631 397 2203 397 
Q 2534 397 2845 478 
Q 3156 559 3463 722 
L 3463 178 
Q 3153 47 2828 -22 
Q 2503 -91 2169 -91 
Q 1331 -91 842 396 
Q 353 884 353 1716 
Q 353 2575 817 3079 
Q 1281 3584 2069 3584 
Q 2775 3584 3186 3129 
Q 3597 2675 3597 1894 
z
M 3022 2063 
Q 3016 2534 2758 2815 
Q 2500 3097 2075 3097 
Q 1594 3097 1305 2825 
Q 1016 2553 972 2059 
L 3022 2063 
z
" transform="scale(0.015625)"/>
     </defs>
     <use xlink:href="#DejaVuSans-50"/>
     <use xlink:href="#DejaVuSans-61" x="55.802734"/>
     <use xlink:href="#DejaVuSans-72" x="117.082031"/>
     <use xlink:href="#DejaVuSans-73" x="158.195312"/>
     <use xlink:href="#DejaVuSans-65" x="210.294922"/>
    </g>
   </g>
   <g id="text_16">
    <!-- FootBin -->
    <g transform="translate(361.832136 91.773107)scale(0.08 -0.08)">
     <defs>
      <path id="DejaVuSans-46" d="M 628 4666 
L 3309 4666 
L 3309 4134 
L 1259 4134 
L 1259 2759 
L 3109 2759 
L 3109 2228 
L 1259 2228 
L 1259 0 
L 628 0 
L 628 4666 
z
" transform="scale(0.015625)"/>
      <path id="DejaVuSans-6f" d="M 1959 3097 
Q 1497 3097 1228 2736 
Q 959 2375 959 1747 
Q 959 1119 1226 758 
Q 1494 397 1959 397 
Q 2419 397 2687 759 
Q 2956 1122 2956 1747 
Q 2956 2369 2687 2733 
Q 2419 3097 1959 3097 
z
M 1959 3584 
Q 2709 3584 3137 3096 
Q 3566 2609 3566 1747 
Q 3566 888 3137 398 
Q 2709 -91 1959 -91 
Q 1206 -91 779 398 
Q 353 888 353 1747 
Q 353 2609 779 3096 
Q 1206 3584 1959 3584 
z
" transform="scale(0.015625)"/>
      <path id="DejaVuSans-74" d="M 1172 4494 
L 1172 3500 
L 2356 3500 
L 2356 3053 
L 1172 3053 
L 1172 1153 
Q 1172 725 1289 603 
Q 1406 481 1766 481 
L 2356 481 
L 2356 0 
L 1766 0 
Q 1100 0 847 248 
Q 594 497 594 1153 
L 594 3053 
L 172 3053 
L 172 3500 
L 594 3500 
L 594 4494 
L 1172 4494 
z
" transform="scale(0.015625)"/>
      <path id="DejaVuSans-42" d="M 1259 2228 
L 1259 519 
L 2272 519 
Q 2781 519 3026 730 
Q 3272 941 3272 1375 
Q 3272 1813 3026 2020 
Q 2781 2228 2272 2228 
L 1259 2228 
z
M 1259 4147 
L 1259 2741 
L 2194 2741 
Q 2656 2741 2882 2914 
Q 3109 3088 3109 3444 
Q 3109 3797 2882 3972 
Q 2656 4147 2194 4147 
L 1259 4147 
z
M 628 4666 
L 2241 4666 
Q 2963 4666 3353 4366 
Q 3744 4066 3744 3513 
Q 3744 3084 3544 2831 
Q 3344 2578 2956 2516 
Q 3422 2416 3680 2098 
Q 3938 1781 3938 1306 
Q 3938 681 3513 340 
Q 3088 0 2303 0 
L 628 0 
L 628 4666 
z
" transform="scale(0.015625)"/>
      <path id="DejaVuSans-6e" d="M 3513 2113 
L 3513 0 
L 2938 0 
L 2938 2094 
Q 2938 2591 2744 2837 
Q 2550 3084 2163 3084 
Q 1697 3084 1428 2787 
Q 1159 2491 1159 1978 
L 1159 0 
L 581 0 
L 581 3500 
L 1159 3500 
L 1159 2956 
Q 1366 3272 1645 3428 
Q 1925 3584 2291 3584 
Q 2894 3584 3203 3211 
Q 3513 2838 3513 2113 
z
" transform="scale(0.015625)"/>
     </defs>
     <use xlink:href="#DejaVuSans-46"/>
     <use xlink:href="#DejaVuSans-6f" x="53.894531"/>
     <use xlink:href="#DejaVuSans-6f" x="115.076172"/>
     <use xlink:href="#DejaVuSans-74" x="176.257812"/>
     <use xlink:href="#DejaVuSans-42" x="215.466797"/>
     <use xlink:href="#DejaVuSans-69" x="284.070312"/>
     <use xlink:href="#DejaVuSans-6e" x="311.853516"/>
    </g>
   </g>
   <g id="text_17">
    <!-- WFL -->
    <g transform="translate(361.832136 48.056194)scale(0.08 -0.08)">
     <defs>
      <path id="DejaVuSans-4c" d="M 628 4666 
L 1259 4666 
L 1259 531 
L 3531 531 
L 3531 0 
L 628 0 
L 628 4666 
z
" transform="scale(0.015625)"/>
     </defs>
     <use xlink:href="#DejaVuSans-57"/>
     <use xlink:href="#DejaVuSans-46" x="98.876953"/>
     <use xlink:href="#DejaVuSans-4c" x="156.396484"/>
    </g>
   </g>
   <g id="text_18">
    <!-- WFR -->
    <g transform="translate(361.832136 102.672717)scale(0.08 -0.08)">
     <defs>
      <path id="DejaVuSans-52" d="M 2841 2188 
Q 3044 2119 3236 1894 
Q 3428 1669 3622 1275 
L 4263 0 
L 3584 0 
L 2988 1197 
Q 2756 1666 2539 1819 
Q 2322 1972 1947 1972 
L 1259 1972 
L 1259 0 
L 628 0 
L 628 4666 
L 2053 4666 
Q 2853 4666 3247 4331 
Q 3641 3997 3641 3322 
Q 3641 2881 3436 2590 
Q 3231 2300 2841 2188 
z
M 1259 4147 
L 1259 2491 
L 2053 2491 
Q 2509 2491 2742 2702 
Q 2975 2913 2975 3322 
Q 2975 3731 2742 3939 
Q 2509 4147 2053 4147 
L 1259 4147 
z
" transform="scale(0.015625)"/>
     </defs>
     <use xlink:href="#DejaVuSans-57"/>
     <use xlink:href="#DejaVuSans-46" x="98.876953"/>
     <use xlink:href="#DejaVuSans-52" x="156.396484"/>
    </g>
   </g>
   <g id="text_19">
    <!-- Main-L -->
    <g transform="translate(361.832136 47.365095)scale(0.08 -0.08)">
     <defs>
      <path id="DejaVuSans-4d" d="M 628 4666 
L 1569 4666 
L 2759 1491 
L 3956 4666 
L 4897 4666 
L 4897 0 
L 4281 0 
L 4281 4097 
L 3078 897 
L 2444 897 
L 1241 4097 
L 1241 0 
L 628 0 
L 628 4666 
z
" transform="scale(0.015625)"/>
      <path id="DejaVuSans-2d" d="M 313 2009 
L 1997 2009 
L 1997 1497 
L 313 1497 
L 313 2009 
z
" transform="scale(0.015625)"/>
     </defs>
     <use xlink:href="#DejaVuSans-4d"/>
     <use xlink:href="#DejaVuSans-61" x="86.279297"/>
     <use xlink:href="#DejaVuSans-69" x="147.558594"/>
     <use xlink:href="#DejaVuSans-6e" x="175.341797"/>
     <use xlink:href="#DejaVuSans-2d" x="238.720703"/>
     <use xlink:href="#DejaVuSans-4c" x="274.804688"/>
    </g>
   </g>
   <g id="text_20">
    <!-- Main-R -->
    <g transform="translate(361.832136 114.737321)scale(0.08 -0.08)">
     <use xlink:href="#DejaVuSans-4d"/>
     <use xlink:href="#DejaVuSans-61" x="86.279297"/>
     <use xlink:href="#DejaVuSans-69" x="147.558594"/>
     <use xlink:href="#DejaVuSans-6e" x="175.341797"/>
     <use xlink:href="#DejaVuSans-2d" x="238.720703"/>
     <use xlink:href="#DejaVuSans-52" x="274.804688"/>
    </g>
   </g>
   <g id="text_21">
    <!-- AFL -->
    <g transform="translate(361.832136 127.196839)scale(0.08 -0.08)">
     <defs>
      <path id="DejaVuSans-41" d="M 2188 4044 
L 1331 1722 
L 3047 1722 
L 2188 4044 
z
M 1831 4666 
L 2547 4666 
L 4325 0 
L 3669 0 
L 3244 1197 
L 1141 1197 
L 716 0 
L 50 0 
L 1831 4666 
z
" transform="scale(0.015625)"/>
     </defs>
     <use xlink:href="#DejaVuSans-41"/>
     <use xlink:href="#DejaVuSans-46" x="68.408203"/>
     <use xlink:href="#DejaVuSans-4c" x="125.927734"/>
    </g>
   </g>
   <g id="text_22">
    <!-- AFR -->
    <g transform="translate(361.832136 138.333397)scale(0.08 -0.08)">
     <use xlink:href="#DejaVuSans-41"/>
     <use xlink:href="#DejaVuSans-46" x="68.408203"/>
     <use xlink:href="#DejaVuSans-52" x="125.927734"/>
    </g>
   </g>
   <g id="text_23">
    <!-- Nonfinal -->
    <g transform="translate(361.832136 115.211217)scale(0.08 -0.08)">
     <defs>
      <path id="DejaVuSans-4e" d="M 628 4666 
L 1478 4666 
L 3547 763 
L 3547 4666 
L 4159 4666 
L 4159 0 
L 3309 0 
L 1241 3903 
L 1241 0 
L 628 0 
L 628 4666 
z
" transform="scale(0.015625)"/>
      <path id="DejaVuSans-66" d="M 2375 4863 
L 2375 4384 
L 1825 4384 
Q 1516 4384 1395 4259 
Q 1275 4134 1275 3809 
L 1275 3500 
L 2222 3500 
L 2222 3053 
L 1275 3053 
L 1275 0 
L 697 0 
L 697 3053 
L 147 3053 
L 147 3500 
L 697 3500 
L 697 3744 
Q 697 4328 969 4595 
Q 1241 4863 1831 4863 
L 2375 4863 
z
" transform="scale(0.015625)"/>
      <path id="DejaVuSans-6c" d="M 603 4863 
L 1178 4863 
L 1178 0 
L 603 0 
L 603 4863 
z
" transform="scale(0.015625)"/>
     </defs>
     <use xlink:href="#DejaVuSans-4e"/>
     <use xlink:href="#DejaVuSans-6f" x="74.804688"/>
     <use xlink:href="#DejaVuSans-6e" x="135.986328"/>
     <use xlink:href="#DejaVuSans-66" x="199.365234"/>
     <use xlink:href="#DejaVuSans-69" x="234.570312"/>
     <use xlink:href="#DejaVuSans-6e" x="262.353516"/>
     <use xlink:href="#DejaVuSans-61" x="325.732422"/>
     <use xlink:href="#DejaVuSans-6c" x="387.011719"/>
    </g>
   </g>
   <g id="text_24">
    <!-- Trochaic -->
    <g transform="translate(361.832136 46.970182)scale(0.08 -0.08)">
     <defs>
      <path id="DejaVuSans-54" d="M -19 4666 
L 3928 4666 
L 3928 4134 
L 2272 4134 
L 2272 0 
L 1638 0 
L 1638 4134 
L -19 4134 
L -19 4666 
z
" transform="scale(0.015625)"/>
      <path id="DejaVuSans-68" d="M 3513 2113 
L 3513 0 
L 2938 0 
L 2938 2094 
Q 2938 2591 2744 2837 
Q 2550 3084 2163 3084 
Q 1697 3084 1428 2787 
Q 1159 2491 1159 1978 
L 1159 0 
L 581 0 
L 581 4863 
L 1159 4863 
L 1159 2956 
Q 1366 3272 1645 3428 
Q 1925 3584 2291 3584 
Q 2894 3584 3203 3211 
Q 3513 2838 3513 2113 
z
" transform="scale(0.015625)"/>
     </defs>
     <use xlink:href="#DejaVuSans-54"/>
     <use xlink:href="#DejaVuSans-72" x="46.333984"/>
     <use xlink:href="#DejaVuSans-6f" x="85.197266"/>
     <use xlink:href="#DejaVuSans-63" x="146.378906"/>
     <use xlink:href="#DejaVuSans-68" x="201.359375"/>
     <use xlink:href="#DejaVuSans-61" x="264.738281"/>
     <use xlink:href="#DejaVuSans-69" x="326.017578"/>
     <use xlink:href="#DejaVuSans-63" x="353.800781"/>
    </g>
   </g>
  </g>
  <g id="axes_2">
   <g id="patch_7">
    <path d="M 57.6 307.584 
L 414.72 307.584 
L 414.72 186.624 
L 57.6 186.624 
z
" style="fill: #ffffff"/>
   </g>
   <g id="matplotlib.axis_3">
    <g id="xtick_8">
     <g id="line2d_25">
      <g>
       <use xlink:href="#m1242d94274" x="72.795492" y="307.584" style="stroke: #000000; stroke-width: 0.8"/>
      </g>
     </g>
     <g id="text_25">
      <!-- 0 -->
      <g transform="translate(69.614242 322.182437)scale(0.1 -0.1)">
       <use xlink:href="#DejaVuSans-30"/>
      </g>
     </g>
    </g>
    <g id="xtick_9">
     <g id="line2d_26">
      <g>
       <use xlink:href="#m1242d94274" x="124.657241" y="307.584" style="stroke: #000000; stroke-width: 0.8"/>
      </g>
     </g>
     <g id="text_26">
      <!-- 50 -->
      <g transform="translate(118.294741 322.182437)scale(0.1 -0.1)">
       <use xlink:href="#DejaVuSans-35"/>
       <use xlink:href="#DejaVuSans-30" x="63.623047"/>
      </g>
     </g>
    </g>
    <g id="xtick_10">
     <g id="line2d_27">
      <g>
       <use xlink:href="#m1242d94274" x="176.518989" y="307.584" style="stroke: #000000; stroke-width: 0.8"/>
      </g>
     </g>
     <g id="text_27">
      <!-- 100 -->
      <g transform="translate(166.975239 322.182437)scale(0.1 -0.1)">
       <use xlink:href="#DejaVuSans-31"/>
       <use xlink:href="#DejaVuSans-30" x="63.623047"/>
       <use xlink:href="#DejaVuSans-30" x="127.246094"/>
      </g>
     </g>
    </g>
    <g id="xtick_11">
     <g id="line2d_28">
      <g>
       <use xlink:href="#m1242d94274" x="228.380738" y="307.584" style="stroke: #000000; stroke-width: 0.8"/>
      </g>
     </g>
     <g id="text_28">
      <!-- 150 -->
      <g transform="translate(218.836988 322.182437)scale(0.1 -0.1)">
       <use xlink:href="#DejaVuSans-31"/>
       <use xlink:href="#DejaVuSans-35" x="63.623047"/>
       <use xlink:href="#DejaVuSans-30" x="127.246094"/>
      </g>
     </g>
    </g>
    <g id="xtick_12">
     <g id="line2d_29">
      <g>
       <use xlink:href="#m1242d94274" x="280.242486" y="307.584" style="stroke: #000000; stroke-width: 0.8"/>
      </g>
     </g>
     <g id="text_29">
      <!-- 200 -->
      <g transform="translate(270.698736 322.182437)scale(0.1 -0.1)">
       <use xlink:href="#DejaVuSans-32"/>
       <use xlink:href="#DejaVuSans-30" x="63.623047"/>
       <use xlink:href="#DejaVuSans-30" x="127.246094"/>
      </g>
     </g>
    </g>
    <g id="xtick_13">
     <g id="line2d_30">
      <g>
       <use xlink:href="#m1242d94274" x="332.104235" y="307.584" style="stroke: #000000; stroke-width: 0.8"/>
      </g>
     </g>
     <g id="text_30">
      <!-- 250 -->
      <g transform="translate(322.560485 322.182437)scale(0.1 -0.1)">
       <use xlink:href="#DejaVuSans-32"/>
       <use xlink:href="#DejaVuSans-35" x="63.623047"/>
       <use xlink:href="#DejaVuSans-30" x="127.246094"/>
      </g>
     </g>
    </g>
    <g id="xtick_14">
     <g id="line2d_31">
      <g>
       <use xlink:href="#m1242d94274" x="383.965983" y="307.584" style="stroke: #000000; stroke-width: 0.8"/>
      </g>
     </g>
     <g id="text_31">
      <!-- 300 -->
      <g transform="translate(374.422233 322.182437)scale(0.1 -0.1)">
       <use xlink:href="#DejaVuSans-33"/>
       <use xlink:href="#DejaVuSans-30" x="63.623047"/>
       <use xlink:href="#DejaVuSans-30" x="127.246094"/>
      </g>
     </g>
    </g>
   </g>
   <g id="matplotlib.axis_4">
    <g id="ytick_6">
     <g id="line2d_32">
      <g>
       <use xlink:href="#mcfe0b1a847" x="57.6" y="302.098393" style="stroke: #000000; stroke-width: 0.8"/>
      </g>
     </g>
     <g id="text_32">
      <!-- 0 -->
      <g transform="translate(44.2375 305.897611)scale(0.1 -0.1)">
       <use xlink:href="#DejaVuSans-30"/>
      </g>
     </g>
    </g>
    <g id="ytick_7">
     <g id="line2d_33">
      <g>
       <use xlink:href="#mcfe0b1a847" x="57.6" y="276.949476" style="stroke: #000000; stroke-width: 0.8"/>
      </g>
     </g>
     <g id="text_33">
      <!-- 2000 -->
      <g transform="translate(25.15 280.748695)scale(0.1 -0.1)">
       <use xlink:href="#DejaVuSans-32"/>
       <use xlink:href="#DejaVuSans-30" x="63.623047"/>
       <use xlink:href="#DejaVuSans-30" x="127.246094"/>
       <use xlink:href="#DejaVuSans-30" x="190.869141"/>
      </g>
     </g>
    </g>
    <g id="ytick_8">
     <g id="line2d_34">
      <g>
       <use xlink:href="#mcfe0b1a847" x="57.6" y="251.80056" style="stroke: #000000; stroke-width: 0.8"/>
      </g>
     </g>
     <g id="text_34">
      <!-- 4000 -->
      <g transform="translate(25.15 255.599779)scale(0.1 -0.1)">
       <use xlink:href="#DejaVuSans-34"/>
       <use xlink:href="#DejaVuSans-30" x="63.623047"/>
       <use xlink:href="#DejaVuSans-30" x="127.246094"/>
       <use xlink:href="#DejaVuSans-30" x="190.869141"/>
      </g>
     </g>
    </g>
    <g id="ytick_9">
     <g id="line2d_35">
      <g>
       <use xlink:href="#mcfe0b1a847" x="57.6" y="226.651644" style="stroke: #000000; stroke-width: 0.8"/>
      </g>
     </g>
     <g id="text_35">
      <!-- 6000 -->
      <g transform="translate(25.15 230.450863)scale(0.1 -0.1)">
       <use xlink:href="#DejaVuSans-36"/>
       <use xlink:href="#DejaVuSans-30" x="63.623047"/>
       <use xlink:href="#DejaVuSans-30" x="127.246094"/>
       <use xlink:href="#DejaVuSans-30" x="190.869141"/>
      </g>
     </g>
    </g>
    <g id="ytick_10">
     <g id="line2d_36">
      <g>
       <use xlink:href="#mcfe0b1a847" x="57.6" y="201.502728" style="stroke: #000000; stroke-width: 0.8"/>
      </g>
     </g>
     <g id="text_36">
      <!-- 8000 -->
      <g transform="translate(25.15 205.301946)scale(0.1 -0.1)">
       <use xlink:href="#DejaVuSans-38"/>
       <use xlink:href="#DejaVuSans-30" x="63.623047"/>
       <use xlink:href="#DejaVuSans-30" x="127.246094"/>
       <use xlink:href="#DejaVuSans-30" x="190.869141"/>
      </g>
     </g>
    </g>
   </g>
   <g id="line2d_37">
    <path d="M 73.832727 302.085818 
L 305.136125 302.085818 
L 306.17336 301.897201 
L 309.285065 302.073244 
L 310.3223 301.960074 
L 312.39677 302.073244 
L 315.508475 301.960074 
L 316.54571 302.03552 
L 317.582945 301.633138 
L 318.62018 301.934925 
L 320.69465 301.821755 
L 321.731885 302.022946 
L 325.880825 302.010371 
L 327.955295 301.997797 
L 328.99253 302.03552 
L 330.029765 301.69601 
L 331.067 301.997797 
L 332.104235 301.771457 
L 333.14147 302.022946 
L 334.178705 301.721159 
L 335.21594 301.897201 
L 336.253175 301.394223 
L 337.29041 302.073244 
L 338.327644 301.343925 
L 339.364879 302.060669 
L 340.402114 301.645712 
L 341.439349 301.796606 
L 342.476584 301.519968 
L 343.513819 300.111628 
L 344.551054 301.947499 
L 345.588289 300.790649 
L 346.625524 301.947499 
L 347.662759 301.721159 
L 348.699994 301.721159 
L 349.737229 297.382971 
L 350.774464 301.431946 
L 351.811699 301.494819 
L 352.848934 301.821755 
L 353.886169 300.752926 
L 355.960639 301.972648 
L 358.035109 298.011694 
L 359.072344 301.079862 
L 360.109579 297.986545 
L 361.146814 283.915726 
L 362.184049 297.206928 
L 363.221284 300.99184 
L 364.258519 301.58284 
L 366.332989 301.620563 
L 367.370224 296.075227 
L 368.407459 296.867418 
L 369.444694 300.451139 
L 370.481929 291.334656 
L 371.519164 296.678801 
L 372.556398 290.290976 
L 373.593633 299.935586 
L 374.630868 294.792632 
L 375.668103 300.325394 
L 376.705338 293.283697 
L 377.742573 276.811157 
L 378.779808 291.196337 
L 379.817043 300.627181 
L 380.854278 300.086479 
L 381.891513 275.842924 
L 382.928748 295.270462 
L 383.965983 230.461705 
L 385.003218 301.934925 
L 386.040453 290.693359 
L 387.077688 301.58284 
L 388.114923 293.271123 
L 389.152158 293.195676 
L 390.189393 264.375018 
L 391.226628 273.240011 
L 392.263863 279.803878 
L 393.301098 300.602032 
L 394.338333 192.122182 
L 395.375568 253.032857 
L 396.412803 296.93029 
L 397.450038 235.32802 
L 398.487273 223.017625 
L 398.487273 223.017625 
" clip-path="url(#p500406f928)" style="fill: none; stroke: #1f77b4; stroke-width: 1.5; stroke-linecap: square"/>
   </g>
   <g id="patch_8">
    <path d="M 57.6 307.584 
L 57.6 186.624 
" style="fill: none; stroke: #000000; stroke-width: 0.8; stroke-linejoin: miter; stroke-linecap: square"/>
   </g>
   <g id="patch_9">
    <path d="M 414.72 307.584 
L 414.72 186.624 
" style="fill: none; stroke: #000000; stroke-width: 0.8; stroke-linejoin: miter; stroke-linecap: square"/>
   </g>
   <g id="patch_10">
    <path d="M 57.6 307.584 
L 414.72 307.584 
" style="fill: none; stroke: #000000; stroke-width: 0.8; stroke-linejoin: miter; stroke-linecap: square"/>
   </g>
   <g id="patch_11">
    <path d="M 57.6 186.624 
L 414.72 186.624 
" style="fill: none; stroke: #000000; stroke-width: 0.8; stroke-linejoin: miter; stroke-linecap: square"/>
   </g>
  </g>
 </g>
 <defs>
  <clipPath id="pea58c3286b">
   <rect x="57.6" y="41.472" width="357.12" height="120.96"/>
  </clipPath>
  <clipPath id="p500406f928">
   <rect x="57.6" y="186.624" width="357.12" height="120.96"/>
  </clipPath>
 </defs>
</svg>
