<?xml version="1.0" encoding="utf-8" standalone="no"?>
<!DOCTYPE svg PUBLIC "-//W3C//DTD SVG 1.1//EN"
  "http://www.w3.org/Graphics/SVG/1.1/DTD/svg11.dtd">
<svg xmlns:xlink="http://www.w3.org/1999/xlink" width="460.8pt" height="345.6pt" viewBox="0 0 460.8 345.6" xmlns="http://www.w3.org/2000/svg" version="1.1">
 <metadata>
  <rdf:RDF xmlns:dc="http://purl.org/dc/elements/1.1/" xmlns:cc="http://creativecommons.org/ns#" xmlns:rdf="http://www.w3.org/1999/02/22-rdf-syntax-ns#">
   <cc:Work>
    <dc:type rdf:resource="http://purl.org/dc/dcmitype/StillImage"/>
    <dc:date>2022-05-13T23:51:33.603487</dc:date>
    <dc:format>image/svg+xml</dc:format>
    <dc:creator>
     <cc:Agent>
      <dc:title>Matplotlib v3.5.1, https://matplotlib.org/</dc:title>
     </cc:Agent>
    </dc:creator>
   </cc:Work>
  </rdf:RDF>
 </metadata>
 <defs>
  <style type="text/css">*{stroke-linejoin: round; stroke-linecap: butt}</style>
 </defs>
 <g id="figure_1">
  <g id="patch_1">
   <path d="M 0 345.6 
L 460.8 345.6 
L 460.8 0 
L 0 0 
z
" style="fill: #ffffff"/>
  </g>
  <g id="axes_1">
   <g id="patch_2">
    <path d="M 57.6 162.432 
L 414.72 162.432 
L 414.72 41.472 
L 57.6 41.472 
z
" style="fill: #ffffff"/>
   </g>
   <g id="matplotlib.axis_1">
    <g id="xtick_1">
     <g id="line2d_1">
      <defs>
       <path id="m0c292258ee" d="M 0 0 
L 0 3.5 
" style="stroke: #000000; stroke-width: 0.8"/>
      </defs>
      <g>
       <use xlink:href="#m0c292258ee" x="73.827491" y="162.432" style="stroke: #000000; stroke-width: 0.8"/>
      </g>
     </g>
     <g id="text_1">
      <!-- 0 -->
      <g transform="translate(70.646241 177.030437)scale(0.1 -0.1)">
       <defs>
        <path id="DejaVuSans-30" d="M 2034 4250 
Q 1547 4250 1301 3770 
Q 1056 3291 1056 2328 
Q 1056 1369 1301 889 
Q 1547 409 2034 409 
Q 2525 409 2770 889 
Q 3016 1369 3016 2328 
Q 3016 3291 2770 3770 
Q 2525 4250 2034 4250 
z
M 2034 4750 
Q 2819 4750 3233 4129 
Q 3647 3509 3647 2328 
Q 3647 1150 3233 529 
Q 2819 -91 2034 -91 
Q 1250 -91 836 529 
Q 422 1150 422 2328 
Q 422 3509 836 4129 
Q 1250 4750 2034 4750 
z
" transform="scale(0.015625)"/>
       </defs>
       <use xlink:href="#DejaVuSans-30"/>
      </g>
     </g>
    </g>
    <g id="xtick_2">
     <g id="line2d_2">
      <g>
       <use xlink:href="#m0c292258ee" x="126.191972" y="162.432" style="stroke: #000000; stroke-width: 0.8"/>
      </g>
     </g>
     <g id="text_2">
      <!-- 10000 -->
      <g transform="translate(110.285722 177.030437)scale(0.1 -0.1)">
       <defs>
        <path id="DejaVuSans-31" d="M 794 531 
L 1825 531 
L 1825 4091 
L 703 3866 
L 703 4441 
L 1819 4666 
L 2450 4666 
L 2450 531 
L 3481 531 
L 3481 0 
L 794 0 
L 794 531 
z
" transform="scale(0.015625)"/>
       </defs>
       <use xlink:href="#DejaVuSans-31"/>
       <use xlink:href="#DejaVuSans-30" x="63.623047"/>
       <use xlink:href="#DejaVuSans-30" x="127.246094"/>
       <use xlink:href="#DejaVuSans-30" x="190.869141"/>
       <use xlink:href="#DejaVuSans-30" x="254.492188"/>
      </g>
     </g>
    </g>
    <g id="xtick_3">
     <g id="line2d_3">
      <g>
       <use xlink:href="#m0c292258ee" x="178.556453" y="162.432" style="stroke: #000000; stroke-width: 0.8"/>
      </g>
     </g>
     <g id="text_3">
      <!-- 20000 -->
      <g transform="translate(162.650203 177.030437)scale(0.1 -0.1)">
       <defs>
        <path id="DejaVuSans-32" d="M 1228 531 
L 3431 531 
L 3431 0 
L 469 0 
L 469 531 
Q 828 903 1448 1529 
Q 2069 2156 2228 2338 
Q 2531 2678 2651 2914 
Q 2772 3150 2772 3378 
Q 2772 3750 2511 3984 
Q 2250 4219 1831 4219 
Q 1534 4219 1204 4116 
Q 875 4013 500 3803 
L 500 4441 
Q 881 4594 1212 4672 
Q 1544 4750 1819 4750 
Q 2544 4750 2975 4387 
Q 3406 4025 3406 3419 
Q 3406 3131 3298 2873 
Q 3191 2616 2906 2266 
Q 2828 2175 2409 1742 
Q 1991 1309 1228 531 
z
" transform="scale(0.015625)"/>
       </defs>
       <use xlink:href="#DejaVuSans-32"/>
       <use xlink:href="#DejaVuSans-30" x="63.623047"/>
       <use xlink:href="#DejaVuSans-30" x="127.246094"/>
       <use xlink:href="#DejaVuSans-30" x="190.869141"/>
       <use xlink:href="#DejaVuSans-30" x="254.492188"/>
      </g>
     </g>
    </g>
    <g id="xtick_4">
     <g id="line2d_4">
      <g>
       <use xlink:href="#m0c292258ee" x="230.920934" y="162.432" style="stroke: #000000; stroke-width: 0.8"/>
      </g>
     </g>
     <g id="text_4">
      <!-- 30000 -->
      <g transform="translate(215.014684 177.030437)scale(0.1 -0.1)">
       <defs>
        <path id="DejaVuSans-33" d="M 2597 2516 
Q 3050 2419 3304 2112 
Q 3559 1806 3559 1356 
Q 3559 666 3084 287 
Q 2609 -91 1734 -91 
Q 1441 -91 1130 -33 
Q 819 25 488 141 
L 488 750 
Q 750 597 1062 519 
Q 1375 441 1716 441 
Q 2309 441 2620 675 
Q 2931 909 2931 1356 
Q 2931 1769 2642 2001 
Q 2353 2234 1838 2234 
L 1294 2234 
L 1294 2753 
L 1863 2753 
Q 2328 2753 2575 2939 
Q 2822 3125 2822 3475 
Q 2822 3834 2567 4026 
Q 2313 4219 1838 4219 
Q 1578 4219 1281 4162 
Q 984 4106 628 3988 
L 628 4550 
Q 988 4650 1302 4700 
Q 1616 4750 1894 4750 
Q 2613 4750 3031 4423 
Q 3450 4097 3450 3541 
Q 3450 3153 3228 2886 
Q 3006 2619 2597 2516 
z
" transform="scale(0.015625)"/>
       </defs>
       <use xlink:href="#DejaVuSans-33"/>
       <use xlink:href="#DejaVuSans-30" x="63.623047"/>
       <use xlink:href="#DejaVuSans-30" x="127.246094"/>
       <use xlink:href="#DejaVuSans-30" x="190.869141"/>
       <use xlink:href="#DejaVuSans-30" x="254.492188"/>
      </g>
     </g>
    </g>
    <g id="xtick_5">
     <g id="line2d_5">
      <g>
       <use xlink:href="#m0c292258ee" x="283.285415" y="162.432" style="stroke: #000000; stroke-width: 0.8"/>
      </g>
     </g>
     <g id="text_5">
      <!-- 40000 -->
      <g transform="translate(267.379165 177.030437)scale(0.1 -0.1)">
       <defs>
        <path id="DejaVuSans-34" d="M 2419 4116 
L 825 1625 
L 2419 1625 
L 2419 4116 
z
M 2253 4666 
L 3047 4666 
L 3047 1625 
L 3713 1625 
L 3713 1100 
L 3047 1100 
L 3047 0 
L 2419 0 
L 2419 1100 
L 313 1100 
L 313 1709 
L 2253 4666 
z
" transform="scale(0.015625)"/>
       </defs>
       <use xlink:href="#DejaVuSans-34"/>
       <use xlink:href="#DejaVuSans-30" x="63.623047"/>
       <use xlink:href="#DejaVuSans-30" x="127.246094"/>
       <use xlink:href="#DejaVuSans-30" x="190.869141"/>
       <use xlink:href="#DejaVuSans-30" x="254.492188"/>
      </g>
     </g>
    </g>
    <g id="xtick_6">
     <g id="line2d_6">
      <g>
       <use xlink:href="#m0c292258ee" x="335.649896" y="162.432" style="stroke: #000000; stroke-width: 0.8"/>
      </g>
     </g>
     <g id="text_6">
      <!-- 50000 -->
      <g transform="translate(319.743646 177.030437)scale(0.1 -0.1)">
       <defs>
        <path id="DejaVuSans-35" d="M 691 4666 
L 3169 4666 
L 3169 4134 
L 1269 4134 
L 1269 2991 
Q 1406 3038 1543 3061 
Q 1681 3084 1819 3084 
Q 2600 3084 3056 2656 
Q 3513 2228 3513 1497 
Q 3513 744 3044 326 
Q 2575 -91 1722 -91 
Q 1428 -91 1123 -41 
Q 819 9 494 109 
L 494 744 
Q 775 591 1075 516 
Q 1375 441 1709 441 
Q 2250 441 2565 725 
Q 2881 1009 2881 1497 
Q 2881 1984 2565 2268 
Q 2250 2553 1709 2553 
Q 1456 2553 1204 2497 
Q 953 2441 691 2322 
L 691 4666 
z
" transform="scale(0.015625)"/>
       </defs>
       <use xlink:href="#DejaVuSans-35"/>
       <use xlink:href="#DejaVuSans-30" x="63.623047"/>
       <use xlink:href="#DejaVuSans-30" x="127.246094"/>
       <use xlink:href="#DejaVuSans-30" x="190.869141"/>
       <use xlink:href="#DejaVuSans-30" x="254.492188"/>
      </g>
     </g>
    </g>
    <g id="xtick_7">
     <g id="line2d_7">
      <g>
       <use xlink:href="#m0c292258ee" x="388.014377" y="162.432" style="stroke: #000000; stroke-width: 0.8"/>
      </g>
     </g>
     <g id="text_7">
      <!-- 60000 -->
      <g transform="translate(372.108127 177.030437)scale(0.1 -0.1)">
       <defs>
        <path id="DejaVuSans-36" d="M 2113 2584 
Q 1688 2584 1439 2293 
Q 1191 2003 1191 1497 
Q 1191 994 1439 701 
Q 1688 409 2113 409 
Q 2538 409 2786 701 
Q 3034 994 3034 1497 
Q 3034 2003 2786 2293 
Q 2538 2584 2113 2584 
z
M 3366 4563 
L 3366 3988 
Q 3128 4100 2886 4159 
Q 2644 4219 2406 4219 
Q 1781 4219 1451 3797 
Q 1122 3375 1075 2522 
Q 1259 2794 1537 2939 
Q 1816 3084 2150 3084 
Q 2853 3084 3261 2657 
Q 3669 2231 3669 1497 
Q 3669 778 3244 343 
Q 2819 -91 2113 -91 
Q 1303 -91 875 529 
Q 447 1150 447 2328 
Q 447 3434 972 4092 
Q 1497 4750 2381 4750 
Q 2619 4750 2861 4703 
Q 3103 4656 3366 4563 
z
" transform="scale(0.015625)"/>
       </defs>
       <use xlink:href="#DejaVuSans-36"/>
       <use xlink:href="#DejaVuSans-30" x="63.623047"/>
       <use xlink:href="#DejaVuSans-30" x="127.246094"/>
       <use xlink:href="#DejaVuSans-30" x="190.869141"/>
       <use xlink:href="#DejaVuSans-30" x="254.492188"/>
      </g>
     </g>
    </g>
   </g>
   <g id="matplotlib.axis_2">
    <g id="ytick_1">
     <g id="line2d_8">
      <defs>
       <path id="me24c96be69" d="M 0 0 
L -3.5 0 
" style="stroke: #000000; stroke-width: 0.8"/>
      </defs>
      <g>
       <use xlink:href="#me24c96be69" x="57.6" y="158.425573" style="stroke: #000000; stroke-width: 0.8"/>
      </g>
     </g>
     <g id="text_8">
      <!-- 60 -->
      <g transform="translate(37.875 162.224792)scale(0.1 -0.1)">
       <use xlink:href="#DejaVuSans-36"/>
       <use xlink:href="#DejaVuSans-30" x="63.623047"/>
      </g>
     </g>
    </g>
    <g id="ytick_2">
     <g id="line2d_9">
      <g>
       <use xlink:href="#me24c96be69" x="57.6" y="132.852634" style="stroke: #000000; stroke-width: 0.8"/>
      </g>
     </g>
     <g id="text_9">
      <!-- 70 -->
      <g transform="translate(37.875 136.651853)scale(0.1 -0.1)">
       <defs>
        <path id="DejaVuSans-37" d="M 525 4666 
L 3525 4666 
L 3525 4397 
L 1831 0 
L 1172 0 
L 2766 4134 
L 525 4134 
L 525 4666 
z
" transform="scale(0.015625)"/>
       </defs>
       <use xlink:href="#DejaVuSans-37"/>
       <use xlink:href="#DejaVuSans-30" x="63.623047"/>
      </g>
     </g>
    </g>
    <g id="ytick_3">
     <g id="line2d_10">
      <g>
       <use xlink:href="#me24c96be69" x="57.6" y="107.279696" style="stroke: #000000; stroke-width: 0.8"/>
      </g>
     </g>
     <g id="text_10">
      <!-- 80 -->
      <g transform="translate(37.875 111.078914)scale(0.1 -0.1)">
       <defs>
        <path id="DejaVuSans-38" d="M 2034 2216 
Q 1584 2216 1326 1975 
Q 1069 1734 1069 1313 
Q 1069 891 1326 650 
Q 1584 409 2034 409 
Q 2484 409 2743 651 
Q 3003 894 3003 1313 
Q 3003 1734 2745 1975 
Q 2488 2216 2034 2216 
z
M 1403 2484 
Q 997 2584 770 2862 
Q 544 3141 544 3541 
Q 544 4100 942 4425 
Q 1341 4750 2034 4750 
Q 2731 4750 3128 4425 
Q 3525 4100 3525 3541 
Q 3525 3141 3298 2862 
Q 3072 2584 2669 2484 
Q 3125 2378 3379 2068 
Q 3634 1759 3634 1313 
Q 3634 634 3220 271 
Q 2806 -91 2034 -91 
Q 1263 -91 848 271 
Q 434 634 434 1313 
Q 434 1759 690 2068 
Q 947 2378 1403 2484 
z
M 1172 3481 
Q 1172 3119 1398 2916 
Q 1625 2713 2034 2713 
Q 2441 2713 2670 2916 
Q 2900 3119 2900 3481 
Q 2900 3844 2670 4047 
Q 2441 4250 2034 4250 
Q 1625 4250 1398 4047 
Q 1172 3844 1172 3481 
z
" transform="scale(0.015625)"/>
       </defs>
       <use xlink:href="#DejaVuSans-38"/>
       <use xlink:href="#DejaVuSans-30" x="63.623047"/>
      </g>
     </g>
    </g>
    <g id="ytick_4">
     <g id="line2d_11">
      <g>
       <use xlink:href="#me24c96be69" x="57.6" y="81.706757" style="stroke: #000000; stroke-width: 0.8"/>
      </g>
     </g>
     <g id="text_11">
      <!-- 90 -->
      <g transform="translate(37.875 85.505976)scale(0.1 -0.1)">
       <defs>
        <path id="DejaVuSans-39" d="M 703 97 
L 703 672 
Q 941 559 1184 500 
Q 1428 441 1663 441 
Q 2288 441 2617 861 
Q 2947 1281 2994 2138 
Q 2813 1869 2534 1725 
Q 2256 1581 1919 1581 
Q 1219 1581 811 2004 
Q 403 2428 403 3163 
Q 403 3881 828 4315 
Q 1253 4750 1959 4750 
Q 2769 4750 3195 4129 
Q 3622 3509 3622 2328 
Q 3622 1225 3098 567 
Q 2575 -91 1691 -91 
Q 1453 -91 1209 -44 
Q 966 3 703 97 
z
M 1959 2075 
Q 2384 2075 2632 2365 
Q 2881 2656 2881 3163 
Q 2881 3666 2632 3958 
Q 2384 4250 1959 4250 
Q 1534 4250 1286 3958 
Q 1038 3666 1038 3163 
Q 1038 2656 1286 2365 
Q 1534 2075 1959 2075 
z
" transform="scale(0.015625)"/>
       </defs>
       <use xlink:href="#DejaVuSans-39"/>
       <use xlink:href="#DejaVuSans-30" x="63.623047"/>
      </g>
     </g>
    </g>
    <g id="ytick_5">
     <g id="line2d_12">
      <g>
       <use xlink:href="#me24c96be69" x="57.6" y="56.133818" style="stroke: #000000; stroke-width: 0.8"/>
      </g>
     </g>
     <g id="text_12">
      <!-- 100 -->
      <g transform="translate(31.5125 59.933037)scale(0.1 -0.1)">
       <use xlink:href="#DejaVuSans-31"/>
       <use xlink:href="#DejaVuSans-30" x="63.623047"/>
       <use xlink:href="#DejaVuSans-30" x="127.246094"/>
      </g>
     </g>
    </g>
   </g>
   <g id="line2d_13">
    <path d="M 73.832727 58.691112 
L 73.8432 57.838681 
L 73.879855 67.215425 
L 73.890328 67.215425 
L 73.895565 67.215425 
L 73.926983 65.936778 
L 73.958402 71.051366 
L 73.995057 68.280964 
L 74.099786 75.100414 
L 74.115495 74.247983 
L 74.141678 74.247983 
L 74.183569 73.395552 
L 74.188806 75.952846 
L 74.230697 75.100414 
L 74.31448 79.362571 
L 74.345899 77.231493 
L 74.387791 77.231493 
L 74.518702 87.460668 
L 74.529175 87.460668 
L 74.644377 84.903374 
L 74.722923 90.017962 
L 74.759579 89.165531 
L 74.796234 89.165531 
L 74.806707 91.722825 
L 74.906199 90.017962 
L 74.948091 90.017962 
L 75.068529 96.411197 
L 75.131366 96.411197 
L 75.246568 94.280118 
L 75.262278 94.280118 
L 75.377479 96.837412 
L 75.560755 96.837412 
L 75.681193 101.952 
L 76.005853 101.952 
L 76.121055 101.099569 
L 76.236257 103.656863 
L 76.262439 103.656863 
L 76.309567 102.804431 
L 76.314804 105.361725 
L 76.361932 105.361725 
L 76.414296 105.361725 
L 76.492843 102.378216 
L 76.513789 107.492803 
L 76.73372 107.492803 
L 76.848921 110.050097 
L 77.068852 110.050097 
L 77.184054 112.607391 
L 77.985231 112.607391 
L 78.100432 115.164685 
L 78.336073 115.164685 
L 78.451274 113.886038 
L 78.556003 113.886038 
L 78.676442 119.000626 
L 78.849245 119.000626 
L 78.964446 121.55792 
L 79.19485 121.55792 
L 79.310052 120.705488 
L 79.713258 120.705488 
L 79.82846 123.262782 
L 80.179302 123.262782 
L 80.294504 125.820076 
L 81.1847 125.820076 
L 81.299902 128.37737 
L 82.860364 128.37737 
L 82.975566 130.934664 
L 84.452244 130.934664 
L 84.567446 130.082233 
L 86.195981 130.082233 
L 86.311183 132.639526 
L 87.405601 132.639526 
L 87.520803 135.19682 
L 88.526201 135.19682 
L 88.641402 137.754114 
L 89.636328 137.754114 
L 89.751529 136.901683 
L 91.935128 136.901683 
L 92.05033 139.458977 
L 94.322949 139.458977 
L 94.438151 142.016271 
L 104.822027 142.016271 
L 104.937229 141.163839 
L 109.618614 141.163839 
L 109.733815 139.885192 
L 113.257945 139.885192 
L 113.373147 139.032761 
L 119.772086 139.032761 
L 119.887288 138.18033 
L 120.117692 138.18033 
L 120.232894 140.737624 
L 122.426966 140.737624 
L 122.542167 143.294918 
L 123.259561 143.294918 
L 123.374763 145.852211 
L 128.867797 145.852211 
L 128.982999 148.409505 
L 130.873356 148.409505 
L 130.988558 147.557074 
L 135.800854 147.557074 
L 135.916056 146.704643 
L 142.561109 146.704643 
L 142.67631 145.852211 
L 150.091121 145.852211 
L 150.206323 148.409505 
L 151.662055 148.409505 
L 151.777257 150.966799 
L 152.971167 150.966799 
L 153.086369 153.524093 
L 168.355852 153.524093 
L 168.471054 152.671662 
L 198.664413 152.671662 
L 198.779615 155.228956 
L 226.915051 155.228956 
L 227.030253 154.376524 
L 232.69609 154.376524 
L 232.811291 156.933818 
L 264.533694 156.933818 
L 264.648896 155.655171 
L 326.056723 155.655171 
L 326.171925 154.376524 
L 361.240417 154.376524 
L 361.355619 156.933818 
L 375.200788 156.933818 
L 375.31599 156.081387 
L 398.487273 156.081387 
L 398.487273 156.081387 
" clip-path="url(#p05b5756faf)" style="fill: none; stroke: #1f77b4; stroke-width: 1.5; stroke-linecap: square"/>
   </g>
   <g id="line2d_14">
    <path d="M 73.832727 58.691112 
L 73.968875 72.756228 
L 73.995057 72.756228 
L 74.099786 80.42811 
L 74.115495 79.575679 
L 74.304008 79.575679 
L 74.424446 86.395129 
L 74.434919 86.395129 
L 74.555357 91.509717 
L 74.701978 91.509717 
L 74.806707 96.624304 
L 74.81718 95.771873 
L 74.948091 95.771873 
L 75.073765 103.443755 
L 75.262278 103.443755 
L 75.377479 106.001049 
L 76.262439 106.001049 
L 76.309567 105.148617 
L 76.314804 107.705911 
L 76.361932 107.705911 
L 76.492843 107.705911 
L 76.608045 110.263205 
L 76.73372 110.263205 
L 76.848921 112.820499 
L 76.88034 112.820499 
L 76.995542 112.30904 
L 77.068852 112.30904 
L 77.184054 114.866334 
L 77.985231 114.866334 
L 78.100432 117.423628 
L 78.556003 117.423628 
L 78.671205 119.980922 
L 82.860364 119.980922 
L 82.975566 122.538216 
L 86.195981 122.538216 
L 86.311183 125.09551 
L 87.405601 125.09551 
L 87.520803 127.652803 
L 88.526201 127.652803 
L 88.641402 130.210097 
L 94.322949 130.210097 
L 94.438151 132.767391 
L 113.257945 132.767391 
L 113.373147 131.91496 
L 120.117692 131.91496 
L 120.232894 134.472254 
L 123.259561 134.472254 
L 123.374763 137.029548 
L 128.867797 137.029548 
L 128.982999 139.586841 
L 151.662055 139.586841 
L 151.777257 142.144135 
L 152.971167 142.144135 
L 153.086369 144.701429 
L 198.664413 144.701429 
L 198.779615 147.258723 
L 232.69609 147.258723 
L 232.811291 149.816017 
L 398.487273 149.816017 
L 398.487273 149.816017 
" clip-path="url(#p05b5756faf)" style="fill: none; stroke: #ff7f0e; stroke-width: 1.5; stroke-linecap: square"/>
   </g>
   <g id="line2d_15">
    <path d="M 73.832727 56.133818 
L 73.874619 53.576524 
L 73.911274 57.412465 
L 73.93222 57.412465 
L 73.953166 57.412465 
L 73.958402 59.969759 
L 74.052658 55.707603 
L 74.057895 55.707603 
L 74.152151 55.707603 
L 74.267352 59.969759 
L 74.293535 59.969759 
L 74.393027 66.362994 
L 74.408737 63.8057 
L 74.450628 63.8057 
L 74.461101 66.362994 
L 74.560594 63.8057 
L 74.612958 63.8057 
L 74.72816 62.527053 
L 74.764815 62.527053 
L 74.885253 67.641641 
L 74.927145 67.641641 
L 75.042347 71.477581 
L 75.068529 71.477581 
L 75.183731 67.641641 
L 75.204677 67.641641 
L 75.225622 62.527053 
L 75.314642 67.641641 
L 75.675957 67.641641 
L 75.791159 66.362994 
L 76.079164 66.362994 
L 76.199602 71.477581 
L 76.204838 71.477581 
L 76.304331 68.920288 
L 76.314804 71.477581 
L 76.414296 71.477581 
L 76.529498 69.346503 
L 76.587099 69.346503 
L 76.623754 71.903797 
L 76.697064 69.346503 
L 76.88034 69.346503 
L 76.995542 71.903797 
L 77.215473 71.903797 
L 77.330675 74.461091 
L 77.44064 74.461091 
L 77.555842 73.182444 
L 77.83861 73.182444 
L 77.864792 75.739738 
L 77.948575 74.461091 
L 78.336073 74.461091 
L 78.451274 73.182444 
L 78.65026 73.182444 
L 78.765461 71.903797 
L 79.063939 71.903797 
L 79.179141 74.461091 
L 79.19485 74.461091 
L 79.310052 73.60866 
L 79.91748 73.60866 
L 80.032682 72.330013 
L 82.729453 72.330013 
L 82.844654 74.887307 
L 84.211367 74.887307 
L 84.326569 73.60866 
L 87.269453 73.60866 
L 87.384655 71.051366 
L 88.589038 71.051366 
L 88.70424 73.60866 
L 88.829915 73.60866 
L 88.945116 71.051366 
L 106.293469 71.051366 
L 106.408671 73.60866 
L 109.618614 73.60866 
L 109.733815 72.330013 
L 114.514693 72.330013 
L 114.629894 69.772719 
L 128.694994 69.772719 
L 128.810196 72.330013 
L 131.459839 72.330013 
L 131.57504 74.887307 
L 133.769112 74.887307 
L 133.884314 72.330013 
L 135.800854 72.330013 
L 135.916056 71.477581 
L 142.561109 71.477581 
L 142.67631 70.62515 
L 155.552736 70.62515 
L 155.667938 73.182444 
L 264.533694 73.182444 
L 264.648896 71.903797 
L 326.056723 71.903797 
L 326.171925 70.62515 
L 328.041337 70.62515 
L 328.156538 73.182444 
L 398.487273 73.182444 
L 398.487273 73.182444 
" clip-path="url(#p05b5756faf)" style="fill: none; stroke: #2ca02c; stroke-width: 1.5; stroke-linecap: square"/>
   </g>
   <g id="line2d_16">
    <path d="M 73.832727 56.133818 
L 73.874619 56.133818 
L 73.989821 61.248406 
L 74.099786 58.691112 
L 74.141678 61.248406 
L 74.209752 59.756651 
L 74.230697 59.756651 
L 74.340663 57.625573 
L 74.351136 60.182867 
L 74.450628 59.330436 
L 74.56583 58.691112 
L 74.764815 58.691112 
L 74.806707 57.838681 
L 74.811943 60.395975 
L 74.869544 59.543543 
L 74.927145 59.543543 
L 75.042347 58.051789 
L 75.225622 58.051789 
L 75.346061 56.346926 
L 76.079164 56.346926 
L 76.199602 54.642063 
L 76.304331 54.642063 
L 76.419533 53.789632 
L 76.587099 53.789632 
L 76.702301 52.937201 
L 76.88034 52.937201 
L 76.995542 55.494495 
L 77.215473 55.494495 
L 77.330675 54.642063 
L 77.83861 54.642063 
L 77.953812 53.789632 
L 79.063939 53.789632 
L 79.179141 52.937201 
L 82.729453 52.937201 
L 82.844654 52.08477 
L 88.589038 52.08477 
L 88.70424 51.232338 
L 106.293469 51.232338 
L 106.408671 50.379907 
L 128.694994 50.379907 
L 128.810196 49.527476 
L 131.459839 49.527476 
L 131.57504 48.675044 
L 155.552736 48.675044 
L 155.667938 47.822613 
L 328.041337 47.822613 
L 328.156538 46.970182 
L 398.487273 46.970182 
L 398.487273 46.970182 
" clip-path="url(#p05b5756faf)" style="fill: none; stroke: #d62728; stroke-width: 1.5; stroke-linecap: square"/>
   </g>
   <g id="line2d_17">
    <path d="M 73.832727 56.133818 
L 76.88034 56.133818 
L 76.995542 55.622359 
L 135.617578 55.622359 
L 135.73278 54.983036 
L 398.487273 54.983036 
L 398.487273 54.983036 
" clip-path="url(#p05b5756faf)" style="fill: none; stroke: #9467bd; stroke-width: 1.5; stroke-linecap: square"/>
   </g>
   <g id="line2d_18">
    <path d="M 73.832727 56.133818 
L 73.947929 55.281387 
L 73.953166 55.281387 
L 73.958402 57.838681 
L 74.063131 56.133818 
L 74.099786 56.133818 
L 74.220224 54.428956 
L 74.319717 54.428956 
L 74.340663 56.986249 
L 74.429682 56.133818 
L 74.461101 56.133818 
L 74.576303 54.855171 
L 74.806707 54.855171 
L 74.921908 54.00274 
L 75.225622 54.00274 
L 75.346061 59.117328 
L 75.675957 59.117328 
L 75.791159 57.838681 
L 76.194365 57.838681 
L 76.309567 62.100837 
L 76.430006 62.100837 
L 76.545207 61.248406 
L 76.88034 61.248406 
L 76.995542 63.8057 
L 77.215473 63.8057 
L 77.330675 66.362994 
L 77.44064 66.362994 
L 77.555842 65.084347 
L 77.83861 65.084347 
L 77.864792 67.641641 
L 77.948575 66.362994 
L 78.65026 66.362994 
L 78.765461 65.084347 
L 79.063939 65.084347 
L 79.179141 67.641641 
L 79.19485 67.641641 
L 79.310052 66.789209 
L 79.91748 66.789209 
L 80.032682 65.510562 
L 82.729453 65.510562 
L 82.844654 68.067856 
L 84.211367 68.067856 
L 84.326569 66.789209 
L 106.293469 66.789209 
L 106.408671 69.346503 
L 113.257945 69.346503 
L 113.373147 68.494072 
L 128.694994 68.494072 
L 128.810196 71.051366 
L 131.459839 71.051366 
L 131.57504 73.60866 
L 135.617578 73.60866 
L 135.73278 76.165953 
L 135.800854 76.165953 
L 135.916056 75.313522 
L 142.561109 75.313522 
L 142.67631 74.461091 
L 149.593658 74.461091 
L 149.70886 73.182444 
L 155.552736 73.182444 
L 155.667938 75.739738 
L 199.046674 75.739738 
L 199.161876 74.461091 
L 202.759316 74.461091 
L 202.874518 73.182444 
L 328.041337 73.182444 
L 328.156538 75.739738 
L 375.200788 75.739738 
L 375.31599 74.887307 
L 398.487273 74.887307 
L 398.487273 74.887307 
" clip-path="url(#p05b5756faf)" style="fill: none; stroke: #8c564b; stroke-width: 1.5; stroke-linecap: square"/>
   </g>
   <g id="line2d_19">
    <path d="M 73.832727 55.281387 
L 73.853673 55.281387 
L 73.974111 50.166799 
L 76.88034 50.166799 
L 76.995542 49.65534 
L 135.617578 49.65534 
L 135.73278 49.016017 
L 398.487273 49.016017 
L 398.487273 49.016017 
" clip-path="url(#p05b5756faf)" style="fill: none; stroke: #e377c2; stroke-width: 1.5; stroke-linecap: square"/>
   </g>
   <g id="line2d_20">
    <path d="M 73.832727 58.691112 
L 73.8432 58.691112 
L 73.853673 57.838681 
L 73.911274 64.231915 
L 73.91651 64.231915 
L 73.942693 64.231915 
L 73.953166 62.953268 
L 73.989821 68.067856 
L 74.042185 65.936778 
L 74.057895 65.936778 
L 74.099786 64.658131 
L 74.146914 69.772719 
L 74.152151 69.772719 
L 74.214988 69.133395 
L 74.220224 71.690689 
L 74.251643 71.051366 
L 74.25688 71.051366 
L 74.340663 68.70718 
L 74.345899 71.264474 
L 74.361609 71.264474 
L 74.450628 71.264474 
L 74.529175 70.62515 
L 74.534411 73.182444 
L 74.544884 73.182444 
L 74.644377 73.182444 
L 74.759579 71.051366 
L 74.780524 71.051366 
L 74.806707 69.772719 
L 74.838125 74.887307 
L 74.87478 74.887307 
L 74.948091 74.887307 
L 75.063293 73.395552 
L 75.131366 73.395552 
L 75.251805 80.215002 
L 75.560755 80.215002 
L 75.681193 77.657708 
L 75.68643 77.657708 
L 75.801632 76.379061 
L 76.005853 76.379061 
L 76.121055 75.52663 
L 76.204838 75.52663 
L 76.325277 80.641218 
L 76.414296 80.641218 
L 76.48237 83.198512 
L 76.524262 82.34608 
L 76.623754 82.34608 
L 76.738956 84.903374 
L 76.88034 84.903374 
L 76.995542 87.460668 
L 77.13169 87.460668 
L 77.246891 86.182021 
L 77.44064 86.182021 
L 77.555842 88.739315 
L 77.906684 88.739315 
L 78.021886 87.460668 
L 78.336073 87.460668 
L 78.362255 90.017962 
L 78.446038 88.739315 
L 79.577111 88.739315 
L 79.692313 87.460668 
L 81.1847 87.460668 
L 81.299902 86.182021 
L 84.452244 86.182021 
L 84.567446 85.32959 
L 87.269453 85.32959 
L 87.384655 87.886884 
L 88.829915 87.886884 
L 88.945116 90.444178 
L 89.636328 90.444178 
L 89.751529 89.591746 
L 104.822027 89.591746 
L 104.937229 88.739315 
L 109.618614 88.739315 
L 109.733815 91.296609 
L 113.257945 91.296609 
L 113.373147 93.853903 
L 114.514693 93.853903 
L 114.629894 96.411197 
L 119.772086 96.411197 
L 119.887288 95.558765 
L 126.846528 95.558765 
L 126.96173 94.280118 
L 130.873356 94.280118 
L 130.988558 93.427687 
L 133.769112 93.427687 
L 133.884314 95.984981 
L 135.617578 95.984981 
L 135.73278 98.542275 
L 168.355852 98.542275 
L 168.471054 97.689844 
L 181.179913 97.689844 
L 181.295115 96.411197 
L 226.915051 96.411197 
L 227.030253 95.558765 
L 237.204671 95.558765 
L 237.319873 94.280118 
L 264.533694 94.280118 
L 264.648896 96.837412 
L 326.056723 96.837412 
L 326.171925 99.394706 
L 340.828743 99.394706 
L 340.943945 98.116059 
L 398.487273 98.116059 
L 398.487273 98.116059 
" clip-path="url(#p05b5756faf)" style="fill: none; stroke: #7f7f7f; stroke-width: 1.5; stroke-linecap: square"/>
   </g>
   <g id="line2d_21">
    <path d="M 73.832727 55.281387 
L 73.926983 63.8057 
L 73.953166 62.527053 
L 73.958402 61.674622 
L 73.995057 69.346503 
L 74.010767 68.70718 
L 74.125968 72.969336 
L 74.141678 72.969336 
L 74.214988 68.920288 
L 74.25688 70.838258 
L 74.351136 76.165953 
L 74.372081 75.313522 
L 74.387791 75.313522 
L 74.461101 73.395552 
L 74.398264 76.592169 
L 74.49252 75.952846 
L 74.502993 75.952846 
L 74.529175 73.395552 
L 74.612958 75.952846 
L 74.733396 82.34608 
L 74.764815 82.34608 
L 74.780524 78.936355 
L 74.811943 82.772296 
L 74.87478 81.919865 
L 74.927145 81.919865 
L 74.989982 77.657708 
L 75.047583 79.575679 
L 75.063293 79.575679 
L 75.068529 78.297032 
L 75.136603 83.411619 
L 75.157549 83.411619 
L 75.225622 91.083501 
L 75.277987 88.099992 
L 75.560755 88.099992 
L 75.681193 95.771873 
L 75.68643 93.214579 
L 75.791159 95.771873 
L 75.812105 95.771873 
L 75.932543 90.657285 
L 76.005853 90.657285 
L 76.079164 93.214579 
L 76.115819 92.362148 
L 76.121055 92.362148 
L 76.204838 88.952423 
L 76.231021 91.509717 
L 76.262439 91.509717 
L 76.304331 94.067011 
L 76.372405 91.935932 
L 76.414296 91.935932 
L 76.492843 99.607814 
L 76.529498 95.771873 
L 76.587099 95.771873 
L 76.623754 94.919442 
L 76.628991 97.476736 
L 76.686591 97.476736 
L 76.73372 97.476736 
L 76.848921 96.198089 
L 76.88034 96.198089 
L 76.995542 95.68663 
L 77.068852 95.68663 
L 77.13169 94.407983 
L 77.136926 96.965277 
L 77.173581 96.965277 
L 77.215473 96.965277 
L 77.330675 96.112846 
L 77.44064 96.112846 
L 77.555842 98.67014 
L 77.83861 98.67014 
L 77.864792 97.817708 
L 77.91192 102.932296 
L 77.922393 102.932296 
L 77.985231 102.932296 
L 78.100432 101.653649 
L 78.189452 101.653649 
L 78.304654 99.096355 
L 78.336073 99.096355 
L 78.456511 104.210943 
L 78.556003 104.210943 
L 78.65026 100.375002 
L 78.671205 102.932296 
L 78.849245 102.932296 
L 78.964446 100.375002 
L 79.063939 100.375002 
L 79.179141 99.522571 
L 79.19485 99.522571 
L 79.310052 102.079865 
L 79.577111 102.079865 
L 79.692313 104.637159 
L 79.713258 104.637159 
L 79.82846 102.079865 
L 79.91748 102.079865 
L 80.032682 104.637159 
L 80.179302 104.637159 
L 80.294504 102.079865 
L 81.1847 102.079865 
L 81.299902 104.637159 
L 82.729453 104.637159 
L 82.844654 103.784727 
L 82.860364 103.784727 
L 82.975566 102.50608 
L 84.211367 102.50608 
L 84.326569 105.063374 
L 84.452244 105.063374 
L 84.567446 107.620668 
L 86.195981 107.620668 
L 86.311183 106.342021 
L 87.269453 106.342021 
L 87.384655 108.899315 
L 87.405601 108.899315 
L 87.520803 107.620668 
L 88.526201 107.620668 
L 88.641402 105.48959 
L 88.829915 105.48959 
L 88.945116 108.046884 
L 89.636328 108.046884 
L 89.751529 110.604178 
L 91.935128 110.604178 
L 92.05033 108.046884 
L 94.322949 108.046884 
L 94.438151 106.768237 
L 104.822027 106.768237 
L 104.937229 109.325531 
L 106.293469 109.325531 
L 106.408671 108.473099 
L 109.618614 108.473099 
L 109.733815 111.030393 
L 113.257945 111.030393 
L 113.373147 113.587687 
L 114.514693 113.587687 
L 114.629894 116.144981 
L 119.772086 116.144981 
L 119.887288 118.702275 
L 120.117692 118.702275 
L 120.232894 117.423628 
L 122.426966 117.423628 
L 122.542167 114.866334 
L 123.259561 114.866334 
L 123.374763 113.587687 
L 126.846528 113.587687 
L 126.96173 116.144981 
L 128.694994 116.144981 
L 128.810196 115.29255 
L 128.867797 115.29255 
L 128.982999 114.013903 
L 130.873356 114.013903 
L 130.988558 116.571197 
L 131.459839 116.571197 
L 131.57504 115.718765 
L 133.769112 115.718765 
L 133.884314 118.276059 
L 135.617578 118.276059 
L 135.73278 117.636736 
L 135.800854 117.636736 
L 135.916056 120.19403 
L 142.561109 120.19403 
L 142.67631 122.751323 
L 149.593658 122.751323 
L 149.70886 125.308617 
L 150.091121 125.308617 
L 150.206323 122.751323 
L 151.662055 122.751323 
L 151.777257 121.472677 
L 152.971167 121.472677 
L 153.086369 120.19403 
L 155.552736 120.19403 
L 155.667938 119.341598 
L 168.355852 119.341598 
L 168.471054 121.898892 
L 172.325079 121.898892 
L 172.440281 119.341598 
L 181.179913 119.341598 
L 181.295115 121.898892 
L 198.664413 121.898892 
L 198.779615 120.620245 
L 199.046674 120.620245 
L 199.161876 123.177539 
L 202.759316 123.177539 
L 202.874518 125.734833 
L 203.539547 125.734833 
L 203.654748 123.177539 
L 206.152534 123.177539 
L 206.267736 120.620245 
L 226.915051 120.620245 
L 227.030253 123.177539 
L 232.69609 123.177539 
L 232.811291 121.898892 
L 235.057728 121.898892 
L 235.17293 119.341598 
L 237.204671 119.341598 
L 237.319873 121.898892 
L 242.964764 121.898892 
L 243.079966 119.341598 
L 264.533694 119.341598 
L 264.648896 121.898892 
L 326.056723 121.898892 
L 326.171925 124.456186 
L 328.041337 124.456186 
L 328.156538 123.603755 
L 340.828743 123.603755 
L 340.943945 126.161049 
L 361.240417 126.161049 
L 361.355619 123.603755 
L 375.200788 123.603755 
L 375.31599 126.161049 
L 398.487273 126.161049 
L 398.487273 126.161049 
" clip-path="url(#p05b5756faf)" style="fill: none; stroke: #bcbd22; stroke-width: 1.5; stroke-linecap: square"/>
   </g>
   <g id="line2d_22">
    <path d="M 73.832727 55.281387 
L 73.968875 67.641641 
L 73.984584 67.641641 
L 74.105023 74.461091 
L 74.141678 74.461091 
L 74.230697 81.493649 
L 74.262116 80.001894 
L 74.293535 80.001894 
L 74.31448 78.51014 
L 74.345899 83.624727 
L 74.377318 82.772296 
L 74.387791 82.772296 
L 74.398264 84.050943 
L 74.502993 80.854326 
L 74.628667 88.526207 
L 74.644377 88.526207 
L 74.770051 84.264051 
L 74.89049 89.378638 
L 74.927145 89.378638 
L 74.953327 87.673776 
L 74.995219 92.788364 
L 75.016165 92.14904 
L 75.063293 92.14904 
L 75.068529 90.870393 
L 75.136603 95.984981 
L 75.157549 95.984981 
L 75.204677 95.13255 
L 75.220386 100.247137 
L 75.241332 100.247137 
L 75.262278 100.247137 
L 75.377479 98.96849 
L 75.560755 98.96849 
L 75.675957 96.411197 
L 75.68643 101.525784 
L 75.791159 100.247137 
L 75.812105 100.247137 
L 75.932543 105.361725 
L 76.005853 105.361725 
L 76.121055 103.656863 
L 76.241493 108.77145 
L 76.262439 108.77145 
L 76.309567 111.328744 
L 76.372405 110.050097 
L 76.414296 110.050097 
L 76.529498 113.033607 
L 76.587099 113.033607 
L 76.623754 112.181175 
L 76.628991 114.738469 
L 76.686591 114.738469 
L 76.73372 114.738469 
L 76.848921 113.459822 
L 76.88034 113.459822 
L 76.995542 116.017116 
L 77.068852 116.017116 
L 77.189291 113.459822 
L 77.44064 113.459822 
L 77.555842 116.017116 
L 77.864792 116.017116 
L 77.906684 118.57441 
L 77.974758 117.295763 
L 77.985231 117.295763 
L 78.100432 116.017116 
L 78.189452 116.017116 
L 78.304654 118.57441 
L 78.336073 118.57441 
L 78.362255 121.131704 
L 78.446038 119.853057 
L 78.556003 119.853057 
L 78.603131 118.57441 
L 78.608368 121.131704 
L 78.65026 121.131704 
L 78.765461 123.688998 
L 78.849245 123.688998 
L 78.964446 126.246292 
L 79.577111 126.246292 
L 79.692313 124.967645 
L 79.713258 124.967645 
L 79.82846 127.524939 
L 79.91748 127.524939 
L 80.032682 130.082233 
L 80.179302 130.082233 
L 80.294504 132.639526 
L 81.1847 132.639526 
L 81.299902 131.360879 
L 82.860364 131.360879 
L 82.975566 130.082233 
L 84.211367 130.082233 
L 84.326569 132.639526 
L 84.452244 132.639526 
L 84.567446 131.787095 
L 86.195981 131.787095 
L 86.311183 130.508448 
L 87.269453 130.508448 
L 87.384655 133.065742 
L 87.405601 133.065742 
L 87.520803 131.787095 
L 88.526201 131.787095 
L 88.641402 129.656017 
L 88.829915 129.656017 
L 88.945116 132.213311 
L 89.636328 132.213311 
L 89.751529 131.360879 
L 91.935128 131.360879 
L 92.05033 133.918173 
L 94.322949 133.918173 
L 94.438151 132.639526 
L 104.822027 132.639526 
L 104.937229 131.787095 
L 109.618614 131.787095 
L 109.733815 134.344389 
L 113.257945 134.344389 
L 113.373147 136.901683 
L 114.514693 136.901683 
L 114.629894 139.458977 
L 119.772086 139.458977 
L 119.887288 138.606545 
L 120.117692 138.606545 
L 120.232894 137.327899 
L 122.426966 137.327899 
L 122.542167 139.885192 
L 123.259561 139.885192 
L 123.374763 138.606545 
L 126.846528 138.606545 
L 126.96173 137.327899 
L 128.867797 137.327899 
L 128.982999 136.049252 
L 130.873356 136.049252 
L 130.988558 135.19682 
L 133.769112 135.19682 
L 133.884314 137.754114 
L 135.617578 137.754114 
L 135.73278 140.311408 
L 135.800854 140.311408 
L 135.916056 142.868702 
L 149.593658 142.868702 
L 149.70886 141.590055 
L 150.091121 141.590055 
L 150.206323 144.147349 
L 151.662055 144.147349 
L 151.777257 142.868702 
L 152.971167 142.868702 
L 153.086369 141.590055 
L 168.355852 141.590055 
L 168.471054 140.737624 
L 172.325079 140.737624 
L 172.440281 143.294918 
L 181.179913 143.294918 
L 181.295115 142.016271 
L 198.664413 142.016271 
L 198.779615 140.737624 
L 199.046674 140.737624 
L 199.161876 139.458977 
L 202.759316 139.458977 
L 202.874518 138.18033 
L 203.539547 138.18033 
L 203.654748 140.737624 
L 206.152534 140.737624 
L 206.267736 143.294918 
L 226.915051 143.294918 
L 227.030253 142.442486 
L 232.69609 142.442486 
L 232.811291 141.163839 
L 235.057728 141.163839 
L 235.17293 143.721133 
L 237.204671 143.721133 
L 237.319873 142.442486 
L 242.964764 142.442486 
L 243.079966 144.99978 
L 264.533694 144.99978 
L 264.648896 147.557074 
L 326.056723 147.557074 
L 326.171925 150.114368 
L 340.828743 150.114368 
L 340.943945 148.835721 
L 361.240417 148.835721 
L 361.355619 151.393015 
L 375.200788 151.393015 
L 375.31599 150.540584 
L 398.487273 150.540584 
L 398.487273 150.540584 
" clip-path="url(#p05b5756faf)" style="fill: none; stroke: #17becf; stroke-width: 1.5; stroke-linecap: square"/>
   </g>
   <g id="line2d_23">
    <path d="M 73.832727 56.133818 
L 73.947929 58.691112 
L 73.953166 58.691112 
L 73.958402 57.838681 
L 74.016003 62.953268 
L 74.036949 62.953268 
L 74.099786 62.953268 
L 74.220224 68.067856 
L 74.319717 68.067856 
L 74.340663 67.215425 
L 74.345899 69.772719 
L 74.419209 69.772719 
L 74.461101 69.772719 
L 74.576303 72.330013 
L 74.806707 72.330013 
L 74.921908 74.887307 
L 75.225622 74.887307 
L 75.346061 73.182444 
L 75.675957 73.182444 
L 75.791159 75.739738 
L 76.194365 75.739738 
L 76.262439 74.887307 
L 76.267676 77.4446 
L 76.293858 77.4446 
L 76.304331 77.4446 
L 76.419533 76.592169 
L 76.430006 76.592169 
L 76.545207 79.149463 
L 76.88034 79.149463 
L 76.995542 78.638004 
L 77.215473 78.638004 
L 77.330675 77.785573 
L 77.44064 77.785573 
L 77.555842 80.342867 
L 77.83861 80.342867 
L 77.864792 79.490436 
L 77.870029 82.047729 
L 77.938103 82.047729 
L 78.65026 82.047729 
L 78.765461 84.605023 
L 79.063939 84.605023 
L 79.179141 83.752592 
L 79.19485 83.752592 
L 79.310052 86.309886 
L 79.91748 86.309886 
L 80.032682 88.86718 
L 82.729453 88.86718 
L 82.844654 88.014748 
L 84.211367 88.014748 
L 84.326569 90.572042 
L 106.293469 90.572042 
L 106.408671 89.719611 
L 113.257945 89.719611 
L 113.373147 92.276905 
L 128.694994 92.276905 
L 128.810196 91.424474 
L 131.459839 91.424474 
L 131.57504 90.572042 
L 135.617578 90.572042 
L 135.73278 89.932719 
L 135.800854 89.932719 
L 135.916056 92.490013 
L 142.561109 92.490013 
L 142.67631 95.047307 
L 149.593658 95.047307 
L 149.70886 97.6046 
L 155.552736 97.6046 
L 155.667938 96.752169 
L 199.046674 96.752169 
L 199.161876 99.309463 
L 202.759316 99.309463 
L 202.874518 101.866757 
L 328.041337 101.866757 
L 328.156538 101.014326 
L 375.200788 101.014326 
L 375.31599 103.571619 
L 398.487273 103.571619 
L 398.487273 103.571619 
" clip-path="url(#p05b5756faf)" style="fill: none; stroke: #1f77b4; stroke-width: 1.5; stroke-linecap: square"/>
   </g>
   <g id="line2d_24">
    <path d="M 73.832727 56.133818 
L 73.848437 56.133818 
L 73.864146 57.838681 
L 73.974111 53.150309 
L 398.487273 53.150309 
L 398.487273 53.150309 
" clip-path="url(#p05b5756faf)" style="fill: none; stroke: #ff7f0e; stroke-width: 1.5; stroke-linecap: square"/>
   </g>
   <g id="patch_3">
    <path d="M 57.6 162.432 
L 57.6 41.472 
" style="fill: none; stroke: #000000; stroke-width: 0.8; stroke-linejoin: miter; stroke-linecap: square"/>
   </g>
   <g id="patch_4">
    <path d="M 414.72 162.432 
L 414.72 41.472 
" style="fill: none; stroke: #000000; stroke-width: 0.8; stroke-linejoin: miter; stroke-linecap: square"/>
   </g>
   <g id="patch_5">
    <path d="M 57.6 162.432 
L 414.72 162.432 
" style="fill: none; stroke: #000000; stroke-width: 0.8; stroke-linejoin: miter; stroke-linecap: square"/>
   </g>
   <g id="patch_6">
    <path d="M 57.6 41.472 
L 414.72 41.472 
" style="fill: none; stroke: #000000; stroke-width: 0.8; stroke-linejoin: miter; stroke-linecap: square"/>
   </g>
   <g id="text_13">
    <!-- WSP -->
    <g transform="translate(361.832136 156.081387)scale(0.08 -0.08)">
     <defs>
      <path id="DejaVuSans-57" d="M 213 4666 
L 850 4666 
L 1831 722 
L 2809 4666 
L 3519 4666 
L 4500 722 
L 5478 4666 
L 6119 4666 
L 4947 0 
L 4153 0 
L 3169 4050 
L 2175 0 
L 1381 0 
L 213 4666 
z
" transform="scale(0.015625)"/>
      <path id="DejaVuSans-53" d="M 3425 4513 
L 3425 3897 
Q 3066 4069 2747 4153 
Q 2428 4238 2131 4238 
Q 1616 4238 1336 4038 
Q 1056 3838 1056 3469 
Q 1056 3159 1242 3001 
Q 1428 2844 1947 2747 
L 2328 2669 
Q 3034 2534 3370 2195 
Q 3706 1856 3706 1288 
Q 3706 609 3251 259 
Q 2797 -91 1919 -91 
Q 1588 -91 1214 -16 
Q 841 59 441 206 
L 441 856 
Q 825 641 1194 531 
Q 1563 422 1919 422 
Q 2459 422 2753 634 
Q 3047 847 3047 1241 
Q 3047 1584 2836 1778 
Q 2625 1972 2144 2069 
L 1759 2144 
Q 1053 2284 737 2584 
Q 422 2884 422 3419 
Q 422 4038 858 4394 
Q 1294 4750 2059 4750 
Q 2388 4750 2728 4690 
Q 3069 4631 3425 4513 
z
" transform="scale(0.015625)"/>
      <path id="DejaVuSans-50" d="M 1259 4147 
L 1259 2394 
L 2053 2394 
Q 2494 2394 2734 2622 
Q 2975 2850 2975 3272 
Q 2975 3691 2734 3919 
Q 2494 4147 2053 4147 
L 1259 4147 
z
M 628 4666 
L 2053 4666 
Q 2838 4666 3239 4311 
Q 3641 3956 3641 3272 
Q 3641 2581 3239 2228 
Q 2838 1875 2053 1875 
L 1259 1875 
L 1259 0 
L 628 0 
L 628 4666 
z
" transform="scale(0.015625)"/>
     </defs>
     <use xlink:href="#DejaVuSans-57"/>
     <use xlink:href="#DejaVuSans-53" x="98.876953"/>
     <use xlink:href="#DejaVuSans-50" x="162.353516"/>
    </g>
   </g>
   <g id="text_14">
    <!-- Iambic -->
    <g transform="translate(361.832136 149.816017)scale(0.08 -0.08)">
     <defs>
      <path id="DejaVuSans-49" d="M 628 4666 
L 1259 4666 
L 1259 0 
L 628 0 
L 628 4666 
z
" transform="scale(0.015625)"/>
      <path id="DejaVuSans-61" d="M 2194 1759 
Q 1497 1759 1228 1600 
Q 959 1441 959 1056 
Q 959 750 1161 570 
Q 1363 391 1709 391 
Q 2188 391 2477 730 
Q 2766 1069 2766 1631 
L 2766 1759 
L 2194 1759 
z
M 3341 1997 
L 3341 0 
L 2766 0 
L 2766 531 
Q 2569 213 2275 61 
Q 1981 -91 1556 -91 
Q 1019 -91 701 211 
Q 384 513 384 1019 
Q 384 1609 779 1909 
Q 1175 2209 1959 2209 
L 2766 2209 
L 2766 2266 
Q 2766 2663 2505 2880 
Q 2244 3097 1772 3097 
Q 1472 3097 1187 3025 
Q 903 2953 641 2809 
L 641 3341 
Q 956 3463 1253 3523 
Q 1550 3584 1831 3584 
Q 2591 3584 2966 3190 
Q 3341 2797 3341 1997 
z
" transform="scale(0.015625)"/>
      <path id="DejaVuSans-6d" d="M 3328 2828 
Q 3544 3216 3844 3400 
Q 4144 3584 4550 3584 
Q 5097 3584 5394 3201 
Q 5691 2819 5691 2113 
L 5691 0 
L 5113 0 
L 5113 2094 
Q 5113 2597 4934 2840 
Q 4756 3084 4391 3084 
Q 3944 3084 3684 2787 
Q 3425 2491 3425 1978 
L 3425 0 
L 2847 0 
L 2847 2094 
Q 2847 2600 2669 2842 
Q 2491 3084 2119 3084 
Q 1678 3084 1418 2786 
Q 1159 2488 1159 1978 
L 1159 0 
L 581 0 
L 581 3500 
L 1159 3500 
L 1159 2956 
Q 1356 3278 1631 3431 
Q 1906 3584 2284 3584 
Q 2666 3584 2933 3390 
Q 3200 3197 3328 2828 
z
" transform="scale(0.015625)"/>
      <path id="DejaVuSans-62" d="M 3116 1747 
Q 3116 2381 2855 2742 
Q 2594 3103 2138 3103 
Q 1681 3103 1420 2742 
Q 1159 2381 1159 1747 
Q 1159 1113 1420 752 
Q 1681 391 2138 391 
Q 2594 391 2855 752 
Q 3116 1113 3116 1747 
z
M 1159 2969 
Q 1341 3281 1617 3432 
Q 1894 3584 2278 3584 
Q 2916 3584 3314 3078 
Q 3713 2572 3713 1747 
Q 3713 922 3314 415 
Q 2916 -91 2278 -91 
Q 1894 -91 1617 61 
Q 1341 213 1159 525 
L 1159 0 
L 581 0 
L 581 4863 
L 1159 4863 
L 1159 2969 
z
" transform="scale(0.015625)"/>
      <path id="DejaVuSans-69" d="M 603 3500 
L 1178 3500 
L 1178 0 
L 603 0 
L 603 3500 
z
M 603 4863 
L 1178 4863 
L 1178 4134 
L 603 4134 
L 603 4863 
z
" transform="scale(0.015625)"/>
      <path id="DejaVuSans-63" d="M 3122 3366 
L 3122 2828 
Q 2878 2963 2633 3030 
Q 2388 3097 2138 3097 
Q 1578 3097 1268 2742 
Q 959 2388 959 1747 
Q 959 1106 1268 751 
Q 1578 397 2138 397 
Q 2388 397 2633 464 
Q 2878 531 3122 666 
L 3122 134 
Q 2881 22 2623 -34 
Q 2366 -91 2075 -91 
Q 1284 -91 818 406 
Q 353 903 353 1747 
Q 353 2603 823 3093 
Q 1294 3584 2113 3584 
Q 2378 3584 2631 3529 
Q 2884 3475 3122 3366 
z
" transform="scale(0.015625)"/>
     </defs>
     <use xlink:href="#DejaVuSans-49"/>
     <use xlink:href="#DejaVuSans-61" x="29.492188"/>
     <use xlink:href="#DejaVuSans-6d" x="90.771484"/>
     <use xlink:href="#DejaVuSans-62" x="188.183594"/>
     <use xlink:href="#DejaVuSans-69" x="251.660156"/>
     <use xlink:href="#DejaVuSans-63" x="279.443359"/>
    </g>
   </g>
   <g id="text_15">
    <!-- Parse -->
    <g transform="translate(361.832136 73.182444)scale(0.08 -0.08)">
     <defs>
      <path id="DejaVuSans-72" d="M 2631 2963 
Q 2534 3019 2420 3045 
Q 2306 3072 2169 3072 
Q 1681 3072 1420 2755 
Q 1159 2438 1159 1844 
L 1159 0 
L 581 0 
L 581 3500 
L 1159 3500 
L 1159 2956 
Q 1341 3275 1631 3429 
Q 1922 3584 2338 3584 
Q 2397 3584 2469 3576 
Q 2541 3569 2628 3553 
L 2631 2963 
z
" transform="scale(0.015625)"/>
      <path id="DejaVuSans-73" d="M 2834 3397 
L 2834 2853 
Q 2591 2978 2328 3040 
Q 2066 3103 1784 3103 
Q 1356 3103 1142 2972 
Q 928 2841 928 2578 
Q 928 2378 1081 2264 
Q 1234 2150 1697 2047 
L 1894 2003 
Q 2506 1872 2764 1633 
Q 3022 1394 3022 966 
Q 3022 478 2636 193 
Q 2250 -91 1575 -91 
Q 1294 -91 989 -36 
Q 684 19 347 128 
L 347 722 
Q 666 556 975 473 
Q 1284 391 1588 391 
Q 1994 391 2212 530 
Q 2431 669 2431 922 
Q 2431 1156 2273 1281 
Q 2116 1406 1581 1522 
L 1381 1569 
Q 847 1681 609 1914 
Q 372 2147 372 2553 
Q 372 3047 722 3315 
Q 1072 3584 1716 3584 
Q 2034 3584 2315 3537 
Q 2597 3491 2834 3397 
z
" transform="scale(0.015625)"/>
      <path id="DejaVuSans-65" d="M 3597 1894 
L 3597 1613 
L 953 1613 
Q 991 1019 1311 708 
Q 1631 397 2203 397 
Q 2534 397 2845 478 
Q 3156 559 3463 722 
L 3463 178 
Q 3153 47 2828 -22 
Q 2503 -91 2169 -91 
Q 1331 -91 842 396 
Q 353 884 353 1716 
Q 353 2575 817 3079 
Q 1281 3584 2069 3584 
Q 2775 3584 3186 3129 
Q 3597 2675 3597 1894 
z
M 3022 2063 
Q 3016 2534 2758 2815 
Q 2500 3097 2075 3097 
Q 1594 3097 1305 2825 
Q 1016 2553 972 2059 
L 3022 2063 
z
" transform="scale(0.015625)"/>
     </defs>
     <use xlink:href="#DejaVuSans-50"/>
     <use xlink:href="#DejaVuSans-61" x="55.802734"/>
     <use xlink:href="#DejaVuSans-72" x="117.082031"/>
     <use xlink:href="#DejaVuSans-73" x="158.195312"/>
     <use xlink:href="#DejaVuSans-65" x="210.294922"/>
    </g>
   </g>
   <g id="text_16">
    <!-- FootBin -->
    <g transform="translate(361.832136 46.970182)scale(0.08 -0.08)">
     <defs>
      <path id="DejaVuSans-46" d="M 628 4666 
L 3309 4666 
L 3309 4134 
L 1259 4134 
L 1259 2759 
L 3109 2759 
L 3109 2228 
L 1259 2228 
L 1259 0 
L 628 0 
L 628 4666 
z
" transform="scale(0.015625)"/>
      <path id="DejaVuSans-6f" d="M 1959 3097 
Q 1497 3097 1228 2736 
Q 959 2375 959 1747 
Q 959 1119 1226 758 
Q 1494 397 1959 397 
Q 2419 397 2687 759 
Q 2956 1122 2956 1747 
Q 2956 2369 2687 2733 
Q 2419 3097 1959 3097 
z
M 1959 3584 
Q 2709 3584 3137 3096 
Q 3566 2609 3566 1747 
Q 3566 888 3137 398 
Q 2709 -91 1959 -91 
Q 1206 -91 779 398 
Q 353 888 353 1747 
Q 353 2609 779 3096 
Q 1206 3584 1959 3584 
z
" transform="scale(0.015625)"/>
      <path id="DejaVuSans-74" d="M 1172 4494 
L 1172 3500 
L 2356 3500 
L 2356 3053 
L 1172 3053 
L 1172 1153 
Q 1172 725 1289 603 
Q 1406 481 1766 481 
L 2356 481 
L 2356 0 
L 1766 0 
Q 1100 0 847 248 
Q 594 497 594 1153 
L 594 3053 
L 172 3053 
L 172 3500 
L 594 3500 
L 594 4494 
L 1172 4494 
z
" transform="scale(0.015625)"/>
      <path id="DejaVuSans-42" d="M 1259 2228 
L 1259 519 
L 2272 519 
Q 2781 519 3026 730 
Q 3272 941 3272 1375 
Q 3272 1813 3026 2020 
Q 2781 2228 2272 2228 
L 1259 2228 
z
M 1259 4147 
L 1259 2741 
L 2194 2741 
Q 2656 2741 2882 2914 
Q 3109 3088 3109 3444 
Q 3109 3797 2882 3972 
Q 2656 4147 2194 4147 
L 1259 4147 
z
M 628 4666 
L 2241 4666 
Q 2963 4666 3353 4366 
Q 3744 4066 3744 3513 
Q 3744 3084 3544 2831 
Q 3344 2578 2956 2516 
Q 3422 2416 3680 2098 
Q 3938 1781 3938 1306 
Q 3938 681 3513 340 
Q 3088 0 2303 0 
L 628 0 
L 628 4666 
z
" transform="scale(0.015625)"/>
      <path id="DejaVuSans-6e" d="M 3513 2113 
L 3513 0 
L 2938 0 
L 2938 2094 
Q 2938 2591 2744 2837 
Q 2550 3084 2163 3084 
Q 1697 3084 1428 2787 
Q 1159 2491 1159 1978 
L 1159 0 
L 581 0 
L 581 3500 
L 1159 3500 
L 1159 2956 
Q 1366 3272 1645 3428 
Q 1925 3584 2291 3584 
Q 2894 3584 3203 3211 
Q 3513 2838 3513 2113 
z
" transform="scale(0.015625)"/>
     </defs>
     <use xlink:href="#DejaVuSans-46"/>
     <use xlink:href="#DejaVuSans-6f" x="53.894531"/>
     <use xlink:href="#DejaVuSans-6f" x="115.076172"/>
     <use xlink:href="#DejaVuSans-74" x="176.257812"/>
     <use xlink:href="#DejaVuSans-42" x="215.466797"/>
     <use xlink:href="#DejaVuSans-69" x="284.070312"/>
     <use xlink:href="#DejaVuSans-6e" x="311.853516"/>
    </g>
   </g>
   <g id="text_17">
    <!-- WFL -->
    <g transform="translate(361.832136 54.983036)scale(0.08 -0.08)">
     <defs>
      <path id="DejaVuSans-4c" d="M 628 4666 
L 1259 4666 
L 1259 531 
L 3531 531 
L 3531 0 
L 628 0 
L 628 4666 
z
" transform="scale(0.015625)"/>
     </defs>
     <use xlink:href="#DejaVuSans-57"/>
     <use xlink:href="#DejaVuSans-46" x="98.876953"/>
     <use xlink:href="#DejaVuSans-4c" x="156.396484"/>
    </g>
   </g>
   <g id="text_18">
    <!-- WFR -->
    <g transform="translate(361.832136 74.887307)scale(0.08 -0.08)">
     <defs>
      <path id="DejaVuSans-52" d="M 2841 2188 
Q 3044 2119 3236 1894 
Q 3428 1669 3622 1275 
L 4263 0 
L 3584 0 
L 2988 1197 
Q 2756 1666 2539 1819 
Q 2322 1972 1947 1972 
L 1259 1972 
L 1259 0 
L 628 0 
L 628 4666 
L 2053 4666 
Q 2853 4666 3247 4331 
Q 3641 3997 3641 3322 
Q 3641 2881 3436 2590 
Q 3231 2300 2841 2188 
z
M 1259 4147 
L 1259 2491 
L 2053 2491 
Q 2509 2491 2742 2702 
Q 2975 2913 2975 3322 
Q 2975 3731 2742 3939 
Q 2509 4147 2053 4147 
L 1259 4147 
z
" transform="scale(0.015625)"/>
     </defs>
     <use xlink:href="#DejaVuSans-57"/>
     <use xlink:href="#DejaVuSans-46" x="98.876953"/>
     <use xlink:href="#DejaVuSans-52" x="156.396484"/>
    </g>
   </g>
   <g id="text_19">
    <!-- Main-L -->
    <g transform="translate(361.832136 49.016017)scale(0.08 -0.08)">
     <defs>
      <path id="DejaVuSans-4d" d="M 628 4666 
L 1569 4666 
L 2759 1491 
L 3956 4666 
L 4897 4666 
L 4897 0 
L 4281 0 
L 4281 4097 
L 3078 897 
L 2444 897 
L 1241 4097 
L 1241 0 
L 628 0 
L 628 4666 
z
" transform="scale(0.015625)"/>
      <path id="DejaVuSans-2d" d="M 313 2009 
L 1997 2009 
L 1997 1497 
L 313 1497 
L 313 2009 
z
" transform="scale(0.015625)"/>
     </defs>
     <use xlink:href="#DejaVuSans-4d"/>
     <use xlink:href="#DejaVuSans-61" x="86.279297"/>
     <use xlink:href="#DejaVuSans-69" x="147.558594"/>
     <use xlink:href="#DejaVuSans-6e" x="175.341797"/>
     <use xlink:href="#DejaVuSans-2d" x="238.720703"/>
     <use xlink:href="#DejaVuSans-4c" x="274.804688"/>
    </g>
   </g>
   <g id="text_20">
    <!-- Main-R -->
    <g transform="translate(361.832136 98.116059)scale(0.08 -0.08)">
     <use xlink:href="#DejaVuSans-4d"/>
     <use xlink:href="#DejaVuSans-61" x="86.279297"/>
     <use xlink:href="#DejaVuSans-69" x="147.558594"/>
     <use xlink:href="#DejaVuSans-6e" x="175.341797"/>
     <use xlink:href="#DejaVuSans-2d" x="238.720703"/>
     <use xlink:href="#DejaVuSans-52" x="274.804688"/>
    </g>
   </g>
   <g id="text_21">
    <!-- AFL -->
    <g transform="translate(361.832136 126.161049)scale(0.08 -0.08)">
     <defs>
      <path id="DejaVuSans-41" d="M 2188 4044 
L 1331 1722 
L 3047 1722 
L 2188 4044 
z
M 1831 4666 
L 2547 4666 
L 4325 0 
L 3669 0 
L 3244 1197 
L 1141 1197 
L 716 0 
L 50 0 
L 1831 4666 
z
" transform="scale(0.015625)"/>
     </defs>
     <use xlink:href="#DejaVuSans-41"/>
     <use xlink:href="#DejaVuSans-46" x="68.408203"/>
     <use xlink:href="#DejaVuSans-4c" x="125.927734"/>
    </g>
   </g>
   <g id="text_22">
    <!-- AFR -->
    <g transform="translate(361.832136 150.540584)scale(0.08 -0.08)">
     <use xlink:href="#DejaVuSans-41"/>
     <use xlink:href="#DejaVuSans-46" x="68.408203"/>
     <use xlink:href="#DejaVuSans-52" x="125.927734"/>
    </g>
   </g>
   <g id="text_23">
    <!-- Nonfinal -->
    <g transform="translate(361.832136 103.571619)scale(0.08 -0.08)">
     <defs>
      <path id="DejaVuSans-4e" d="M 628 4666 
L 1478 4666 
L 3547 763 
L 3547 4666 
L 4159 4666 
L 4159 0 
L 3309 0 
L 1241 3903 
L 1241 0 
L 628 0 
L 628 4666 
z
" transform="scale(0.015625)"/>
      <path id="DejaVuSans-66" d="M 2375 4863 
L 2375 4384 
L 1825 4384 
Q 1516 4384 1395 4259 
Q 1275 4134 1275 3809 
L 1275 3500 
L 2222 3500 
L 2222 3053 
L 1275 3053 
L 1275 0 
L 697 0 
L 697 3053 
L 147 3053 
L 147 3500 
L 697 3500 
L 697 3744 
Q 697 4328 969 4595 
Q 1241 4863 1831 4863 
L 2375 4863 
z
" transform="scale(0.015625)"/>
      <path id="DejaVuSans-6c" d="M 603 4863 
L 1178 4863 
L 1178 0 
L 603 0 
L 603 4863 
z
" transform="scale(0.015625)"/>
     </defs>
     <use xlink:href="#DejaVuSans-4e"/>
     <use xlink:href="#DejaVuSans-6f" x="74.804688"/>
     <use xlink:href="#DejaVuSans-6e" x="135.986328"/>
     <use xlink:href="#DejaVuSans-66" x="199.365234"/>
     <use xlink:href="#DejaVuSans-69" x="234.570312"/>
     <use xlink:href="#DejaVuSans-6e" x="262.353516"/>
     <use xlink:href="#DejaVuSans-61" x="325.732422"/>
     <use xlink:href="#DejaVuSans-6c" x="387.011719"/>
    </g>
   </g>
   <g id="text_24">
    <!-- Trochaic -->
    <g transform="translate(361.832136 53.150309)scale(0.08 -0.08)">
     <defs>
      <path id="DejaVuSans-54" d="M -19 4666 
L 3928 4666 
L 3928 4134 
L 2272 4134 
L 2272 0 
L 1638 0 
L 1638 4134 
L -19 4134 
L -19 4666 
z
" transform="scale(0.015625)"/>
      <path id="DejaVuSans-68" d="M 3513 2113 
L 3513 0 
L 2938 0 
L 2938 2094 
Q 2938 2591 2744 2837 
Q 2550 3084 2163 3084 
Q 1697 3084 1428 2787 
Q 1159 2491 1159 1978 
L 1159 0 
L 581 0 
L 581 4863 
L 1159 4863 
L 1159 2956 
Q 1366 3272 1645 3428 
Q 1925 3584 2291 3584 
Q 2894 3584 3203 3211 
Q 3513 2838 3513 2113 
z
" transform="scale(0.015625)"/>
     </defs>
     <use xlink:href="#DejaVuSans-54"/>
     <use xlink:href="#DejaVuSans-72" x="46.333984"/>
     <use xlink:href="#DejaVuSans-6f" x="85.197266"/>
     <use xlink:href="#DejaVuSans-63" x="146.378906"/>
     <use xlink:href="#DejaVuSans-68" x="201.359375"/>
     <use xlink:href="#DejaVuSans-61" x="264.738281"/>
     <use xlink:href="#DejaVuSans-69" x="326.017578"/>
     <use xlink:href="#DejaVuSans-63" x="353.800781"/>
    </g>
   </g>
  </g>
  <g id="axes_2">
   <g id="patch_7">
    <path d="M 57.6 307.584 
L 414.72 307.584 
L 414.72 186.624 
L 57.6 186.624 
z
" style="fill: #ffffff"/>
   </g>
   <g id="matplotlib.axis_3">
    <g id="xtick_8">
     <g id="line2d_25">
      <g>
       <use xlink:href="#m0c292258ee" x="71.90026" y="307.584" style="stroke: #000000; stroke-width: 0.8"/>
      </g>
     </g>
     <g id="text_25">
      <!-- 0 -->
      <g transform="translate(68.71901 322.182437)scale(0.1 -0.1)">
       <use xlink:href="#DejaVuSans-30"/>
      </g>
     </g>
    </g>
    <g id="xtick_9">
     <g id="line2d_26">
      <g>
       <use xlink:href="#m0c292258ee" x="120.211948" y="307.584" style="stroke: #000000; stroke-width: 0.8"/>
      </g>
     </g>
     <g id="text_26">
      <!-- 25 -->
      <g transform="translate(113.849448 322.182437)scale(0.1 -0.1)">
       <use xlink:href="#DejaVuSans-32"/>
       <use xlink:href="#DejaVuSans-35" x="63.623047"/>
      </g>
     </g>
    </g>
    <g id="xtick_10">
     <g id="line2d_27">
      <g>
       <use xlink:href="#m0c292258ee" x="168.523636" y="307.584" style="stroke: #000000; stroke-width: 0.8"/>
      </g>
     </g>
     <g id="text_27">
      <!-- 50 -->
      <g transform="translate(162.161136 322.182437)scale(0.1 -0.1)">
       <use xlink:href="#DejaVuSans-35"/>
       <use xlink:href="#DejaVuSans-30" x="63.623047"/>
      </g>
     </g>
    </g>
    <g id="xtick_11">
     <g id="line2d_28">
      <g>
       <use xlink:href="#m0c292258ee" x="216.835325" y="307.584" style="stroke: #000000; stroke-width: 0.8"/>
      </g>
     </g>
     <g id="text_28">
      <!-- 75 -->
      <g transform="translate(210.472825 322.182437)scale(0.1 -0.1)">
       <use xlink:href="#DejaVuSans-37"/>
       <use xlink:href="#DejaVuSans-35" x="63.623047"/>
      </g>
     </g>
    </g>
    <g id="xtick_12">
     <g id="line2d_29">
      <g>
       <use xlink:href="#m0c292258ee" x="265.147013" y="307.584" style="stroke: #000000; stroke-width: 0.8"/>
      </g>
     </g>
     <g id="text_29">
      <!-- 100 -->
      <g transform="translate(255.603263 322.182437)scale(0.1 -0.1)">
       <use xlink:href="#DejaVuSans-31"/>
       <use xlink:href="#DejaVuSans-30" x="63.623047"/>
       <use xlink:href="#DejaVuSans-30" x="127.246094"/>
      </g>
     </g>
    </g>
    <g id="xtick_13">
     <g id="line2d_30">
      <g>
       <use xlink:href="#m0c292258ee" x="313.458701" y="307.584" style="stroke: #000000; stroke-width: 0.8"/>
      </g>
     </g>
     <g id="text_30">
      <!-- 125 -->
      <g transform="translate(303.914951 322.182437)scale(0.1 -0.1)">
       <use xlink:href="#DejaVuSans-31"/>
       <use xlink:href="#DejaVuSans-32" x="63.623047"/>
       <use xlink:href="#DejaVuSans-35" x="127.246094"/>
      </g>
     </g>
    </g>
    <g id="xtick_14">
     <g id="line2d_31">
      <g>
       <use xlink:href="#m0c292258ee" x="361.77039" y="307.584" style="stroke: #000000; stroke-width: 0.8"/>
      </g>
     </g>
     <g id="text_31">
      <!-- 150 -->
      <g transform="translate(352.22664 322.182437)scale(0.1 -0.1)">
       <use xlink:href="#DejaVuSans-31"/>
       <use xlink:href="#DejaVuSans-35" x="63.623047"/>
       <use xlink:href="#DejaVuSans-30" x="127.246094"/>
      </g>
     </g>
    </g>
    <g id="xtick_15">
     <g id="line2d_32">
      <g>
       <use xlink:href="#m0c292258ee" x="410.082078" y="307.584" style="stroke: #000000; stroke-width: 0.8"/>
      </g>
     </g>
     <g id="text_32">
      <!-- 175 -->
      <g transform="translate(400.538328 322.182437)scale(0.1 -0.1)">
       <use xlink:href="#DejaVuSans-31"/>
       <use xlink:href="#DejaVuSans-37" x="63.623047"/>
       <use xlink:href="#DejaVuSans-35" x="127.246094"/>
      </g>
     </g>
    </g>
   </g>
   <g id="matplotlib.axis_4">
    <g id="ytick_6">
     <g id="line2d_33">
      <g>
       <use xlink:href="#me24c96be69" x="57.6" y="302.095178" style="stroke: #000000; stroke-width: 0.8"/>
      </g>
     </g>
     <g id="text_33">
      <!-- 0 -->
      <g transform="translate(44.2375 305.894397)scale(0.1 -0.1)">
       <use xlink:href="#DejaVuSans-30"/>
      </g>
     </g>
    </g>
    <g id="ytick_7">
     <g id="line2d_34">
      <g>
       <use xlink:href="#me24c96be69" x="57.6" y="278.694677" style="stroke: #000000; stroke-width: 0.8"/>
      </g>
     </g>
     <g id="text_34">
      <!-- 2500 -->
      <g transform="translate(25.15 282.493896)scale(0.1 -0.1)">
       <use xlink:href="#DejaVuSans-32"/>
       <use xlink:href="#DejaVuSans-35" x="63.623047"/>
       <use xlink:href="#DejaVuSans-30" x="127.246094"/>
       <use xlink:href="#DejaVuSans-30" x="190.869141"/>
      </g>
     </g>
    </g>
    <g id="ytick_8">
     <g id="line2d_35">
      <g>
       <use xlink:href="#me24c96be69" x="57.6" y="255.294176" style="stroke: #000000; stroke-width: 0.8"/>
      </g>
     </g>
     <g id="text_35">
      <!-- 5000 -->
      <g transform="translate(25.15 259.093394)scale(0.1 -0.1)">
       <use xlink:href="#DejaVuSans-35"/>
       <use xlink:href="#DejaVuSans-30" x="63.623047"/>
       <use xlink:href="#DejaVuSans-30" x="127.246094"/>
       <use xlink:href="#DejaVuSans-30" x="190.869141"/>
      </g>
     </g>
    </g>
    <g id="ytick_9">
     <g id="line2d_36">
      <g>
       <use xlink:href="#me24c96be69" x="57.6" y="231.893674" style="stroke: #000000; stroke-width: 0.8"/>
      </g>
     </g>
     <g id="text_36">
      <!-- 7500 -->
      <g transform="translate(25.15 235.692893)scale(0.1 -0.1)">
       <use xlink:href="#DejaVuSans-37"/>
       <use xlink:href="#DejaVuSans-35" x="63.623047"/>
       <use xlink:href="#DejaVuSans-30" x="127.246094"/>
       <use xlink:href="#DejaVuSans-30" x="190.869141"/>
      </g>
     </g>
    </g>
    <g id="ytick_10">
     <g id="line2d_37">
      <g>
       <use xlink:href="#me24c96be69" x="57.6" y="208.493173" style="stroke: #000000; stroke-width: 0.8"/>
      </g>
     </g>
     <g id="text_37">
      <!-- 10000 -->
      <g transform="translate(18.7875 212.292391)scale(0.1 -0.1)">
       <use xlink:href="#DejaVuSans-31"/>
       <use xlink:href="#DejaVuSans-30" x="63.623047"/>
       <use xlink:href="#DejaVuSans-30" x="127.246094"/>
       <use xlink:href="#DejaVuSans-30" x="190.869141"/>
       <use xlink:href="#DejaVuSans-30" x="254.492188"/>
      </g>
     </g>
    </g>
   </g>
   <g id="line2d_38">
    <path d="M 73.832727 302.085818 
L 97.022338 302.076458 
L 156.928831 302.048377 
L 158.861299 301.945415 
L 160.793766 302.039017 
L 162.726234 301.992216 
L 168.523636 302.085818 
L 176.253506 302.048377 
L 178.185974 301.926695 
L 182.050909 302.085818 
L 183.983377 302.029657 
L 185.915844 302.085818 
L 187.848312 301.973496 
L 189.780779 302.085818 
L 191.713247 301.982856 
L 197.510649 302.076458 
L 203.308052 302.076458 
L 205.240519 301.580367 
L 207.172987 301.945415 
L 211.037922 302.085818 
L 212.97039 302.085818 
L 214.902857 301.870534 
L 216.835325 301.964136 
L 218.767792 301.879894 
L 222.632727 302.020297 
L 224.565195 301.964136 
L 226.497662 302.076458 
L 228.43013 301.992216 
L 232.295065 302.085818 
L 234.227532 301.907974 
L 236.16 302.067098 
L 238.092468 302.001576 
L 241.957403 302.067098 
L 243.88987 301.954775 
L 245.822338 302.029657 
L 249.687273 301.833093 
L 251.61974 301.758211 
L 253.552208 301.982856 
L 255.484675 301.945415 
L 259.34961 301.383803 
L 261.282078 302.048377 
L 265.147013 301.954775 
L 267.079481 301.730131 
L 269.011948 301.833093 
L 270.944416 302.048377 
L 272.876883 301.748851 
L 274.809351 302.010937 
L 276.741818 302.010937 
L 278.674286 301.739491 
L 280.606753 301.71141 
L 282.539221 301.861173 
L 284.471688 301.411884 
L 286.404156 301.851813 
L 290.269091 301.627168 
L 292.201558 300.29802 
L 294.134026 299.333919 
L 296.066494 301.861173 
L 297.998961 299.680247 
L 299.931429 301.664609 
L 301.863896 298.978232 
L 303.796364 300.176337 
L 305.728831 301.851813 
L 307.661299 300.092095 
L 309.593766 301.982856 
L 311.526234 301.664609 
L 313.458701 300.653707 
L 315.391169 297.98605 
L 317.323636 297.826927 
L 319.256104 283.327976 
L 321.188571 299.464962 
L 323.121039 296.151451 
L 325.053506 295.589839 
L 326.985974 299.84873 
L 328.918442 292.697537 
L 330.850909 301.477405 
L 332.783377 297.96733 
L 334.715844 300.606906 
L 336.648312 295.683441 
L 340.513247 301.786292 
L 342.445714 298.510222 
L 344.378182 301.046836 
L 346.310649 297.96733 
L 348.243117 298.791028 
L 350.175584 301.767571 
L 352.108052 290.011159 
L 354.040519 289.524429 
L 355.972987 301.205959 
L 357.905455 299.287118 
L 359.837922 299.755128 
L 361.77039 297.480599 
L 363.702857 279.209488 
L 365.635325 295.000146 
L 367.567792 286.267079 
L 369.50026 270.841469 
L 371.432727 301.411884 
L 373.365195 295.458796 
L 375.297662 300.700508 
L 377.23013 297.424438 
L 379.162597 264.981983 
L 381.095065 291.761517 
L 383.027532 297.873728 
L 384.96 298.257496 
L 386.892468 291.798958 
L 388.824935 263.540512 
L 390.757403 192.122182 
L 392.68987 298.547662 
L 394.622338 279.237569 
L 396.554805 265.609117 
L 398.487273 277.140884 
L 398.487273 277.140884 
" clip-path="url(#pd7ce4b96dd)" style="fill: none; stroke: #1f77b4; stroke-width: 1.5; stroke-linecap: square"/>
   </g>
   <g id="patch_8">
    <path d="M 57.6 307.584 
L 57.6 186.624 
" style="fill: none; stroke: #000000; stroke-width: 0.8; stroke-linejoin: miter; stroke-linecap: square"/>
   </g>
   <g id="patch_9">
    <path d="M 414.72 307.584 
L 414.72 186.624 
" style="fill: none; stroke: #000000; stroke-width: 0.8; stroke-linejoin: miter; stroke-linecap: square"/>
   </g>
   <g id="patch_10">
    <path d="M 57.6 307.584 
L 414.72 307.584 
" style="fill: none; stroke: #000000; stroke-width: 0.8; stroke-linejoin: miter; stroke-linecap: square"/>
   </g>
   <g id="patch_11">
    <path d="M 57.6 186.624 
L 414.72 186.624 
" style="fill: none; stroke: #000000; stroke-width: 0.8; stroke-linejoin: miter; stroke-linecap: square"/>
   </g>
  </g>
 </g>
 <defs>
  <clipPath id="p05b5756faf">
   <rect x="57.6" y="41.472" width="357.12" height="120.96"/>
  </clipPath>
  <clipPath id="pd7ce4b96dd">
   <rect x="57.6" y="186.624" width="357.12" height="120.96"/>
  </clipPath>
 </defs>
</svg>
