<?xml version="1.0" encoding="utf-8" standalone="no"?>
<!DOCTYPE svg PUBLIC "-//W3C//DTD SVG 1.1//EN"
  "http://www.w3.org/Graphics/SVG/1.1/DTD/svg11.dtd">
<svg xmlns:xlink="http://www.w3.org/1999/xlink" width="460.8pt" height="345.6pt" viewBox="0 0 460.8 345.6" xmlns="http://www.w3.org/2000/svg" version="1.1">
 <metadata>
  <rdf:RDF xmlns:dc="http://purl.org/dc/elements/1.1/" xmlns:cc="http://creativecommons.org/ns#" xmlns:rdf="http://www.w3.org/1999/02/22-rdf-syntax-ns#">
   <cc:Work>
    <dc:type rdf:resource="http://purl.org/dc/dcmitype/StillImage"/>
    <dc:date>2022-05-14T00:09:56.669413</dc:date>
    <dc:format>image/svg+xml</dc:format>
    <dc:creator>
     <cc:Agent>
      <dc:title>Matplotlib v3.5.1, https://matplotlib.org/</dc:title>
     </cc:Agent>
    </dc:creator>
   </cc:Work>
  </rdf:RDF>
 </metadata>
 <defs>
  <style type="text/css">*{stroke-linejoin: round; stroke-linecap: butt}</style>
 </defs>
 <g id="figure_1">
  <g id="patch_1">
   <path d="M 0 345.6 
L 460.8 345.6 
L 460.8 0 
L 0 0 
z
" style="fill: #ffffff"/>
  </g>
  <g id="axes_1">
   <g id="patch_2">
    <path d="M 57.6 162.432 
L 414.72 162.432 
L 414.72 41.472 
L 57.6 41.472 
z
" style="fill: #ffffff"/>
   </g>
   <g id="matplotlib.axis_1">
    <g id="xtick_1">
     <g id="line2d_1">
      <defs>
       <path id="m56d3890052" d="M 0 0 
L 0 3.5 
" style="stroke: #000000; stroke-width: 0.8"/>
      </defs>
      <g>
       <use xlink:href="#m56d3890052" x="73.827491" y="162.432" style="stroke: #000000; stroke-width: 0.8"/>
      </g>
     </g>
     <g id="text_1">
      <!-- 0 -->
      <g transform="translate(70.646241 177.030437)scale(0.1 -0.1)">
       <defs>
        <path id="DejaVuSans-30" d="M 2034 4250 
Q 1547 4250 1301 3770 
Q 1056 3291 1056 2328 
Q 1056 1369 1301 889 
Q 1547 409 2034 409 
Q 2525 409 2770 889 
Q 3016 1369 3016 2328 
Q 3016 3291 2770 3770 
Q 2525 4250 2034 4250 
z
M 2034 4750 
Q 2819 4750 3233 4129 
Q 3647 3509 3647 2328 
Q 3647 1150 3233 529 
Q 2819 -91 2034 -91 
Q 1250 -91 836 529 
Q 422 1150 422 2328 
Q 422 3509 836 4129 
Q 1250 4750 2034 4750 
z
" transform="scale(0.015625)"/>
       </defs>
       <use xlink:href="#DejaVuSans-30"/>
      </g>
     </g>
    </g>
    <g id="xtick_2">
     <g id="line2d_2">
      <g>
       <use xlink:href="#m56d3890052" x="126.191972" y="162.432" style="stroke: #000000; stroke-width: 0.8"/>
      </g>
     </g>
     <g id="text_2">
      <!-- 10000 -->
      <g transform="translate(110.285722 177.030437)scale(0.1 -0.1)">
       <defs>
        <path id="DejaVuSans-31" d="M 794 531 
L 1825 531 
L 1825 4091 
L 703 3866 
L 703 4441 
L 1819 4666 
L 2450 4666 
L 2450 531 
L 3481 531 
L 3481 0 
L 794 0 
L 794 531 
z
" transform="scale(0.015625)"/>
       </defs>
       <use xlink:href="#DejaVuSans-31"/>
       <use xlink:href="#DejaVuSans-30" x="63.623047"/>
       <use xlink:href="#DejaVuSans-30" x="127.246094"/>
       <use xlink:href="#DejaVuSans-30" x="190.869141"/>
       <use xlink:href="#DejaVuSans-30" x="254.492188"/>
      </g>
     </g>
    </g>
    <g id="xtick_3">
     <g id="line2d_3">
      <g>
       <use xlink:href="#m56d3890052" x="178.556453" y="162.432" style="stroke: #000000; stroke-width: 0.8"/>
      </g>
     </g>
     <g id="text_3">
      <!-- 20000 -->
      <g transform="translate(162.650203 177.030437)scale(0.1 -0.1)">
       <defs>
        <path id="DejaVuSans-32" d="M 1228 531 
L 3431 531 
L 3431 0 
L 469 0 
L 469 531 
Q 828 903 1448 1529 
Q 2069 2156 2228 2338 
Q 2531 2678 2651 2914 
Q 2772 3150 2772 3378 
Q 2772 3750 2511 3984 
Q 2250 4219 1831 4219 
Q 1534 4219 1204 4116 
Q 875 4013 500 3803 
L 500 4441 
Q 881 4594 1212 4672 
Q 1544 4750 1819 4750 
Q 2544 4750 2975 4387 
Q 3406 4025 3406 3419 
Q 3406 3131 3298 2873 
Q 3191 2616 2906 2266 
Q 2828 2175 2409 1742 
Q 1991 1309 1228 531 
z
" transform="scale(0.015625)"/>
       </defs>
       <use xlink:href="#DejaVuSans-32"/>
       <use xlink:href="#DejaVuSans-30" x="63.623047"/>
       <use xlink:href="#DejaVuSans-30" x="127.246094"/>
       <use xlink:href="#DejaVuSans-30" x="190.869141"/>
       <use xlink:href="#DejaVuSans-30" x="254.492188"/>
      </g>
     </g>
    </g>
    <g id="xtick_4">
     <g id="line2d_4">
      <g>
       <use xlink:href="#m56d3890052" x="230.920934" y="162.432" style="stroke: #000000; stroke-width: 0.8"/>
      </g>
     </g>
     <g id="text_4">
      <!-- 30000 -->
      <g transform="translate(215.014684 177.030437)scale(0.1 -0.1)">
       <defs>
        <path id="DejaVuSans-33" d="M 2597 2516 
Q 3050 2419 3304 2112 
Q 3559 1806 3559 1356 
Q 3559 666 3084 287 
Q 2609 -91 1734 -91 
Q 1441 -91 1130 -33 
Q 819 25 488 141 
L 488 750 
Q 750 597 1062 519 
Q 1375 441 1716 441 
Q 2309 441 2620 675 
Q 2931 909 2931 1356 
Q 2931 1769 2642 2001 
Q 2353 2234 1838 2234 
L 1294 2234 
L 1294 2753 
L 1863 2753 
Q 2328 2753 2575 2939 
Q 2822 3125 2822 3475 
Q 2822 3834 2567 4026 
Q 2313 4219 1838 4219 
Q 1578 4219 1281 4162 
Q 984 4106 628 3988 
L 628 4550 
Q 988 4650 1302 4700 
Q 1616 4750 1894 4750 
Q 2613 4750 3031 4423 
Q 3450 4097 3450 3541 
Q 3450 3153 3228 2886 
Q 3006 2619 2597 2516 
z
" transform="scale(0.015625)"/>
       </defs>
       <use xlink:href="#DejaVuSans-33"/>
       <use xlink:href="#DejaVuSans-30" x="63.623047"/>
       <use xlink:href="#DejaVuSans-30" x="127.246094"/>
       <use xlink:href="#DejaVuSans-30" x="190.869141"/>
       <use xlink:href="#DejaVuSans-30" x="254.492188"/>
      </g>
     </g>
    </g>
    <g id="xtick_5">
     <g id="line2d_5">
      <g>
       <use xlink:href="#m56d3890052" x="283.285415" y="162.432" style="stroke: #000000; stroke-width: 0.8"/>
      </g>
     </g>
     <g id="text_5">
      <!-- 40000 -->
      <g transform="translate(267.379165 177.030437)scale(0.1 -0.1)">
       <defs>
        <path id="DejaVuSans-34" d="M 2419 4116 
L 825 1625 
L 2419 1625 
L 2419 4116 
z
M 2253 4666 
L 3047 4666 
L 3047 1625 
L 3713 1625 
L 3713 1100 
L 3047 1100 
L 3047 0 
L 2419 0 
L 2419 1100 
L 313 1100 
L 313 1709 
L 2253 4666 
z
" transform="scale(0.015625)"/>
       </defs>
       <use xlink:href="#DejaVuSans-34"/>
       <use xlink:href="#DejaVuSans-30" x="63.623047"/>
       <use xlink:href="#DejaVuSans-30" x="127.246094"/>
       <use xlink:href="#DejaVuSans-30" x="190.869141"/>
       <use xlink:href="#DejaVuSans-30" x="254.492188"/>
      </g>
     </g>
    </g>
    <g id="xtick_6">
     <g id="line2d_6">
      <g>
       <use xlink:href="#m56d3890052" x="335.649896" y="162.432" style="stroke: #000000; stroke-width: 0.8"/>
      </g>
     </g>
     <g id="text_6">
      <!-- 50000 -->
      <g transform="translate(319.743646 177.030437)scale(0.1 -0.1)">
       <defs>
        <path id="DejaVuSans-35" d="M 691 4666 
L 3169 4666 
L 3169 4134 
L 1269 4134 
L 1269 2991 
Q 1406 3038 1543 3061 
Q 1681 3084 1819 3084 
Q 2600 3084 3056 2656 
Q 3513 2228 3513 1497 
Q 3513 744 3044 326 
Q 2575 -91 1722 -91 
Q 1428 -91 1123 -41 
Q 819 9 494 109 
L 494 744 
Q 775 591 1075 516 
Q 1375 441 1709 441 
Q 2250 441 2565 725 
Q 2881 1009 2881 1497 
Q 2881 1984 2565 2268 
Q 2250 2553 1709 2553 
Q 1456 2553 1204 2497 
Q 953 2441 691 2322 
L 691 4666 
z
" transform="scale(0.015625)"/>
       </defs>
       <use xlink:href="#DejaVuSans-35"/>
       <use xlink:href="#DejaVuSans-30" x="63.623047"/>
       <use xlink:href="#DejaVuSans-30" x="127.246094"/>
       <use xlink:href="#DejaVuSans-30" x="190.869141"/>
       <use xlink:href="#DejaVuSans-30" x="254.492188"/>
      </g>
     </g>
    </g>
    <g id="xtick_7">
     <g id="line2d_7">
      <g>
       <use xlink:href="#m56d3890052" x="388.014377" y="162.432" style="stroke: #000000; stroke-width: 0.8"/>
      </g>
     </g>
     <g id="text_7">
      <!-- 60000 -->
      <g transform="translate(372.108127 177.030437)scale(0.1 -0.1)">
       <defs>
        <path id="DejaVuSans-36" d="M 2113 2584 
Q 1688 2584 1439 2293 
Q 1191 2003 1191 1497 
Q 1191 994 1439 701 
Q 1688 409 2113 409 
Q 2538 409 2786 701 
Q 3034 994 3034 1497 
Q 3034 2003 2786 2293 
Q 2538 2584 2113 2584 
z
M 3366 4563 
L 3366 3988 
Q 3128 4100 2886 4159 
Q 2644 4219 2406 4219 
Q 1781 4219 1451 3797 
Q 1122 3375 1075 2522 
Q 1259 2794 1537 2939 
Q 1816 3084 2150 3084 
Q 2853 3084 3261 2657 
Q 3669 2231 3669 1497 
Q 3669 778 3244 343 
Q 2819 -91 2113 -91 
Q 1303 -91 875 529 
Q 447 1150 447 2328 
Q 447 3434 972 4092 
Q 1497 4750 2381 4750 
Q 2619 4750 2861 4703 
Q 3103 4656 3366 4563 
z
" transform="scale(0.015625)"/>
       </defs>
       <use xlink:href="#DejaVuSans-36"/>
       <use xlink:href="#DejaVuSans-30" x="63.623047"/>
       <use xlink:href="#DejaVuSans-30" x="127.246094"/>
       <use xlink:href="#DejaVuSans-30" x="190.869141"/>
       <use xlink:href="#DejaVuSans-30" x="254.492188"/>
      </g>
     </g>
    </g>
   </g>
   <g id="matplotlib.axis_2">
    <g id="ytick_1">
     <g id="line2d_8">
      <defs>
       <path id="ma2591d35f2" d="M 0 0 
L -3.5 0 
" style="stroke: #000000; stroke-width: 0.8"/>
      </defs>
      <g>
       <use xlink:href="#ma2591d35f2" x="57.6" y="148.132194" style="stroke: #000000; stroke-width: 0.8"/>
      </g>
     </g>
     <g id="text_8">
      <!-- 60 -->
      <g transform="translate(37.875 151.931413)scale(0.1 -0.1)">
       <use xlink:href="#DejaVuSans-36"/>
       <use xlink:href="#DejaVuSans-30" x="63.623047"/>
      </g>
     </g>
    </g>
    <g id="ytick_2">
     <g id="line2d_9">
      <g>
       <use xlink:href="#ma2591d35f2" x="57.6" y="125.467068" style="stroke: #000000; stroke-width: 0.8"/>
      </g>
     </g>
     <g id="text_9">
      <!-- 70 -->
      <g transform="translate(37.875 129.266287)scale(0.1 -0.1)">
       <defs>
        <path id="DejaVuSans-37" d="M 525 4666 
L 3525 4666 
L 3525 4397 
L 1831 0 
L 1172 0 
L 2766 4134 
L 525 4134 
L 525 4666 
z
" transform="scale(0.015625)"/>
       </defs>
       <use xlink:href="#DejaVuSans-37"/>
       <use xlink:href="#DejaVuSans-30" x="63.623047"/>
      </g>
     </g>
    </g>
    <g id="ytick_3">
     <g id="line2d_10">
      <g>
       <use xlink:href="#ma2591d35f2" x="57.6" y="102.801942" style="stroke: #000000; stroke-width: 0.8"/>
      </g>
     </g>
     <g id="text_10">
      <!-- 80 -->
      <g transform="translate(37.875 106.601161)scale(0.1 -0.1)">
       <defs>
        <path id="DejaVuSans-38" d="M 2034 2216 
Q 1584 2216 1326 1975 
Q 1069 1734 1069 1313 
Q 1069 891 1326 650 
Q 1584 409 2034 409 
Q 2484 409 2743 651 
Q 3003 894 3003 1313 
Q 3003 1734 2745 1975 
Q 2488 2216 2034 2216 
z
M 1403 2484 
Q 997 2584 770 2862 
Q 544 3141 544 3541 
Q 544 4100 942 4425 
Q 1341 4750 2034 4750 
Q 2731 4750 3128 4425 
Q 3525 4100 3525 3541 
Q 3525 3141 3298 2862 
Q 3072 2584 2669 2484 
Q 3125 2378 3379 2068 
Q 3634 1759 3634 1313 
Q 3634 634 3220 271 
Q 2806 -91 2034 -91 
Q 1263 -91 848 271 
Q 434 634 434 1313 
Q 434 1759 690 2068 
Q 947 2378 1403 2484 
z
M 1172 3481 
Q 1172 3119 1398 2916 
Q 1625 2713 2034 2713 
Q 2441 2713 2670 2916 
Q 2900 3119 2900 3481 
Q 2900 3844 2670 4047 
Q 2441 4250 2034 4250 
Q 1625 4250 1398 4047 
Q 1172 3844 1172 3481 
z
" transform="scale(0.015625)"/>
       </defs>
       <use xlink:href="#DejaVuSans-38"/>
       <use xlink:href="#DejaVuSans-30" x="63.623047"/>
      </g>
     </g>
    </g>
    <g id="ytick_4">
     <g id="line2d_11">
      <g>
       <use xlink:href="#ma2591d35f2" x="57.6" y="80.136816" style="stroke: #000000; stroke-width: 0.8"/>
      </g>
     </g>
     <g id="text_11">
      <!-- 90 -->
      <g transform="translate(37.875 83.936035)scale(0.1 -0.1)">
       <defs>
        <path id="DejaVuSans-39" d="M 703 97 
L 703 672 
Q 941 559 1184 500 
Q 1428 441 1663 441 
Q 2288 441 2617 861 
Q 2947 1281 2994 2138 
Q 2813 1869 2534 1725 
Q 2256 1581 1919 1581 
Q 1219 1581 811 2004 
Q 403 2428 403 3163 
Q 403 3881 828 4315 
Q 1253 4750 1959 4750 
Q 2769 4750 3195 4129 
Q 3622 3509 3622 2328 
Q 3622 1225 3098 567 
Q 2575 -91 1691 -91 
Q 1453 -91 1209 -44 
Q 966 3 703 97 
z
M 1959 2075 
Q 2384 2075 2632 2365 
Q 2881 2656 2881 3163 
Q 2881 3666 2632 3958 
Q 2384 4250 1959 4250 
Q 1534 4250 1286 3958 
Q 1038 3666 1038 3163 
Q 1038 2656 1286 2365 
Q 1534 2075 1959 2075 
z
" transform="scale(0.015625)"/>
       </defs>
       <use xlink:href="#DejaVuSans-39"/>
       <use xlink:href="#DejaVuSans-30" x="63.623047"/>
      </g>
     </g>
    </g>
    <g id="ytick_5">
     <g id="line2d_12">
      <g>
       <use xlink:href="#ma2591d35f2" x="57.6" y="57.47169" style="stroke: #000000; stroke-width: 0.8"/>
      </g>
     </g>
     <g id="text_12">
      <!-- 100 -->
      <g transform="translate(31.5125 61.270909)scale(0.1 -0.1)">
       <use xlink:href="#DejaVuSans-31"/>
       <use xlink:href="#DejaVuSans-30" x="63.623047"/>
       <use xlink:href="#DejaVuSans-30" x="127.246094"/>
      </g>
     </g>
    </g>
   </g>
   <g id="line2d_13">
    <path d="M 73.832727 59.738203 
L 73.8432 59.2849 
L 73.869382 63.251297 
L 73.91651 61.740289 
L 74.052658 72.6951 
L 74.057895 72.6951 
L 74.188806 83.272159 
L 74.204515 83.272159 
L 74.246407 82.516654 
L 74.251643 84.783167 
L 74.304008 84.783167 
L 74.387791 84.783167 
L 74.47681 82.516654 
L 74.497756 84.783167 
L 74.508229 84.783167 
L 74.612958 82.138902 
L 74.618194 84.405415 
L 74.738633 88.93844 
L 74.780524 88.93844 
L 74.838125 95.737978 
L 74.900963 94.604722 
L 75.042347 94.604722 
L 75.157549 96.871234 
L 75.466499 96.871234 
L 75.581701 99.137747 
L 75.655011 99.137747 
L 75.733558 105.937285 
L 75.77545 104.048524 
L 76.131528 104.048524 
L 76.24673 106.315037 
L 76.262439 106.315037 
L 76.351459 105.559533 
L 76.356695 107.826045 
L 76.361932 107.826045 
L 76.623754 107.826045 
L 76.738956 107.070541 
L 76.943177 107.070541 
L 77.058379 109.337054 
L 77.246891 109.337054 
L 77.341147 108.581549 
L 77.346384 110.848062 
L 78.16327 110.848062 
L 78.278472 113.114575 
L 78.613604 113.114575 
L 78.728806 112.35907 
L 79.671367 112.35907 
L 79.786569 111.603566 
L 80.07981 111.603566 
L 80.200248 116.136591 
L 80.414943 116.136591 
L 80.530144 118.403104 
L 80.912405 118.403104 
L 81.027607 120.669617 
L 81.561725 120.669617 
L 81.676927 119.53636 
L 83.090768 119.53636 
L 83.205969 118.780856 
L 85.007308 118.780856 
L 85.03349 118.025352 
L 85.038726 120.291864 
L 85.1068 120.291864 
L 88.641402 120.291864 
L 88.756604 122.558377 
L 90.191391 122.558377 
L 90.306593 121.802873 
L 92.636812 121.802873 
L 92.694413 124.069385 
L 92.746778 123.313881 
L 95.480204 123.313881 
L 95.595406 125.580394 
L 96.050977 125.580394 
L 96.166178 127.846906 
L 98.318359 127.846906 
L 98.43356 126.71365 
L 109.707633 126.71365 
L 109.822835 125.958146 
L 110.089894 125.958146 
L 110.205096 125.202642 
L 113.205581 125.202642 
L 113.320782 127.469154 
L 118.531048 127.469154 
L 118.64625 129.735667 
L 121.809065 129.735667 
L 121.924267 132.00218 
L 134.826875 132.00218 
L 134.942077 134.268692 
L 137.795941 134.268692 
L 137.911143 136.535205 
L 140.9221 136.535205 
L 141.037302 135.779701 
L 152.190937 135.779701 
L 152.306138 138.046213 
L 152.876911 138.046213 
L 152.992113 136.912957 
L 153.63096 136.912957 
L 153.746162 135.779701 
L 155.976889 135.779701 
L 156.09209 138.046213 
L 172.251769 138.046213 
L 172.366971 140.312726 
L 179.48854 140.312726 
L 179.603742 139.557222 
L 183.64628 139.557222 
L 183.761482 141.823734 
L 185.348126 141.823734 
L 185.463328 144.090247 
L 187.165173 144.090247 
L 187.280375 143.334743 
L 194.758023 143.334743 
L 194.873225 145.601255 
L 208.278532 145.601255 
L 208.393734 147.867768 
L 230.329215 147.867768 
L 230.444417 150.13428 
L 233.382064 150.13428 
L 233.497266 149.378776 
L 235.843195 149.378776 
L 235.958397 148.623272 
L 241.027279 148.623272 
L 241.14248 147.867768 
L 242.273553 147.867768 
L 242.388755 150.13428 
L 245.776737 150.13428 
L 245.891939 152.400793 
L 247.29007 152.400793 
L 247.405272 154.667306 
L 251.782943 154.667306 
L 251.898145 156.933818 
L 258.799783 156.933818 
L 258.914985 155.800562 
L 268.471503 155.800562 
L 268.586705 154.667306 
L 276.006752 154.667306 
L 276.121954 153.911801 
L 282.945046 153.911801 
L 283.060247 156.178314 
L 398.487273 156.178314 
L 398.487273 156.178314 
" clip-path="url(#p8407d05ece)" style="fill: none; stroke: #1f77b4; stroke-width: 1.5; stroke-linecap: square"/>
   </g>
   <g id="line2d_14">
    <path d="M 73.832727 57.47169 
L 73.968875 70.315262 
L 73.979348 70.315262 
L 74.021239 69.182005 
L 74.063131 75.981543 
L 74.162624 75.981543 
L 74.283062 80.514568 
L 74.502993 80.514568 
L 74.612958 80.061266 
L 74.733396 84.594291 
L 74.780524 83.461035 
L 74.796234 87.99406 
L 74.827652 87.99406 
L 75.466499 87.99406 
L 75.581701 90.260572 
L 75.655011 90.260572 
L 75.754504 97.06011 
L 75.77545 96.304606 
L 76.131528 96.304606 
L 76.24673 98.571119 
L 76.943177 98.571119 
L 77.058379 100.837631 
L 77.341147 100.837631 
L 77.456349 103.104144 
L 78.16327 103.104144 
L 78.278472 105.370657 
L 78.294181 105.370657 
L 78.409383 104.917354 
L 79.639948 104.917354 
L 79.75515 104.464051 
L 79.870352 104.464051 
L 79.985554 106.730564 
L 80.07981 106.730564 
L 80.200248 111.263589 
L 88.641402 111.263589 
L 88.756604 113.530102 
L 92.636812 113.530102 
L 92.752014 115.796614 
L 95.480204 115.796614 
L 95.595406 118.063127 
L 99.915475 118.063127 
L 100.030677 117.609825 
L 113.205581 117.609825 
L 113.320782 119.876337 
L 121.809065 119.876337 
L 121.924267 122.14285 
L 135.790381 122.14285 
L 135.905583 121.689547 
L 148.980994 121.689547 
L 149.096196 121.236245 
L 155.976889 121.236245 
L 156.09209 123.502757 
L 172.251769 123.502757 
L 172.366971 125.76927 
L 183.64628 125.76927 
L 183.761482 128.035783 
L 208.278532 128.035783 
L 208.393734 130.302295 
L 222.720656 130.302295 
L 222.835858 129.848993 
L 245.776737 129.848993 
L 245.891939 132.115505 
L 247.29007 132.115505 
L 247.405272 134.382018 
L 322.077022 134.382018 
L 322.192224 133.928715 
L 398.487273 133.928715 
L 398.487273 133.928715 
" clip-path="url(#p8407d05ece)" style="fill: none; stroke: #ff7f0e; stroke-width: 1.5; stroke-linecap: square"/>
   </g>
   <g id="line2d_15">
    <path d="M 73.832727 59.738203 
L 73.874619 62.118041 
L 73.947929 59.096024 
L 73.979348 59.096024 
L 74.016003 56.829512 
L 74.089313 61.362537 
L 74.105023 60.607033 
L 74.110259 62.873545 
L 74.188806 62.873545 
L 74.387791 62.873545 
L 74.4035 61.740289 
L 74.461101 67.40657 
L 74.471574 67.40657 
L 74.544884 69.673083 
L 74.581539 68.539827 
L 74.712451 65.51781 
L 74.733396 65.51781 
L 74.738633 67.784323 
L 74.838125 65.51781 
L 74.953327 64.384554 
L 75.099948 64.384554 
L 75.21515 66.651066 
L 75.59741 66.651066 
L 75.644538 68.917579 
L 75.707376 66.651066 
L 75.733558 66.651066 
L 75.84876 65.51781 
L 76.047745 65.51781 
L 76.162947 67.784323 
L 76.623754 67.784323 
L 76.738956 67.028818 
L 76.869867 67.028818 
L 76.985069 64.762306 
L 77.377803 64.762306 
L 77.493004 62.495793 
L 78.173743 62.495793 
L 78.288945 64.762306 
L 78.294181 64.762306 
L 78.409383 67.028818 
L 78.613604 67.028818 
L 78.728806 66.273314 
L 79.639948 66.273314 
L 79.75515 68.539827 
L 79.870352 68.539827 
L 79.891298 67.40657 
L 79.896534 69.673083 
L 79.975081 69.673083 
L 80.111229 69.673083 
L 80.22643 67.40657 
L 81.561725 67.40657 
L 81.676927 66.273314 
L 87.756443 66.273314 
L 87.871645 64.006802 
L 89.730584 64.006802 
L 89.845786 66.273314 
L 92.217897 66.273314 
L 92.333098 68.539827 
L 92.542556 68.539827 
L 92.657758 66.273314 
L 98.318359 66.273314 
L 98.43356 65.140058 
L 99.915475 65.140058 
L 100.030677 67.40657 
L 110.089894 67.40657 
L 110.205096 66.651066 
L 134.978732 66.651066 
L 135.093934 65.51781 
L 135.790381 65.51781 
L 135.905583 67.784323 
L 148.980994 67.784323 
L 149.096196 70.050835 
L 152.876911 70.050835 
L 152.992113 68.917579 
L 153.63096 68.917579 
L 153.746162 67.784323 
L 222.720656 67.784323 
L 222.835858 70.050835 
L 243.504118 70.050835 
L 243.61932 67.784323 
L 257.605873 67.784323 
L 257.721075 70.050835 
L 258.799783 70.050835 
L 258.914985 68.917579 
L 267.188573 68.917579 
L 267.303775 71.184091 
L 268.471503 71.184091 
L 268.586705 70.050835 
L 276.006752 70.050835 
L 276.121954 69.295331 
L 322.077022 69.295331 
L 322.192224 71.561844 
L 379.154306 71.561844 
L 379.269508 69.295331 
L 398.487273 69.295331 
L 398.487273 69.295331 
" clip-path="url(#p8407d05ece)" style="fill: none; stroke: #2ca02c; stroke-width: 1.5; stroke-linecap: square"/>
   </g>
   <g id="line2d_16">
    <path d="M 73.832727 57.47169 
L 73.906038 57.47169 
L 73.91651 59.738203 
L 74.016003 59.171575 
L 74.089313 58.604947 
L 74.09455 60.871459 
L 74.115495 60.418157 
L 74.4035 60.418157 
L 74.534411 56.942837 
L 75.099948 56.942837 
L 75.21515 56.187333 
L 75.59741 56.187333 
L 75.712612 55.431829 
L 76.047745 55.431829 
L 76.162947 54.676325 
L 78.173743 54.676325 
L 78.288945 53.92082 
L 78.294181 53.92082 
L 78.409383 53.467518 
L 79.639948 53.467518 
L 79.75515 53.014215 
L 79.891298 53.014215 
L 80.0065 52.258711 
L 89.730584 52.258711 
L 89.845786 51.503207 
L 92.217897 51.503207 
L 92.333098 50.747703 
L 99.915475 50.747703 
L 100.030677 50.2944 
L 135.790381 50.2944 
L 135.905583 49.841098 
L 148.980994 49.841098 
L 149.096196 49.387795 
L 222.720656 49.387795 
L 222.835858 48.934493 
L 257.605873 48.934493 
L 257.721075 48.178989 
L 267.188573 48.178989 
L 267.303775 47.423484 
L 322.077022 47.423484 
L 322.192224 46.970182 
L 398.487273 46.970182 
L 398.487273 46.970182 
" clip-path="url(#p8407d05ece)" style="fill: none; stroke: #d62728; stroke-width: 1.5; stroke-linecap: square"/>
   </g>
   <g id="line2d_17">
    <path d="M 73.832727 57.47169 
L 73.947929 57.018388 
L 117.693217 57.018388 
L 117.808418 56.45176 
L 398.487273 56.45176 
L 398.487273 56.45176 
" clip-path="url(#p8407d05ece)" style="fill: none; stroke: #9467bd; stroke-width: 1.5; stroke-linecap: square"/>
   </g>
   <g id="line2d_18">
    <path d="M 73.832727 57.47169 
L 73.8432 57.47169 
L 73.853673 59.738203 
L 73.942693 55.016302 
L 73.947929 55.016302 
L 74.089313 55.016302 
L 74.105023 54.260797 
L 74.110259 56.52731 
L 74.188806 56.52731 
L 74.413973 56.52731 
L 74.534411 62.193591 
L 74.581539 62.193591 
L 74.696741 61.438087 
L 75.59741 61.438087 
L 75.712612 63.7046 
L 75.754504 63.7046 
L 75.869706 62.949096 
L 76.047745 62.949096 
L 76.162947 65.215608 
L 76.623754 65.215608 
L 76.738956 64.460104 
L 76.786084 64.460104 
L 76.901286 63.326848 
L 77.330675 63.326848 
L 77.445876 62.193591 
L 78.173743 62.193591 
L 78.288945 64.460104 
L 78.294181 64.460104 
L 78.409383 66.726617 
L 78.613604 66.726617 
L 78.728806 65.971112 
L 79.639948 65.971112 
L 79.75515 68.237625 
L 79.870352 68.237625 
L 79.891298 67.104369 
L 79.896534 69.370881 
L 79.975081 69.370881 
L 85.007308 69.370881 
L 85.122509 68.615377 
L 92.694413 68.615377 
L 92.809615 67.859873 
L 99.915475 67.859873 
L 100.030677 70.126386 
L 110.089894 70.126386 
L 110.205096 69.370881 
L 117.693217 69.370881 
L 117.808418 71.637394 
L 134.978732 71.637394 
L 135.093934 70.504138 
L 135.790381 70.504138 
L 135.905583 72.77065 
L 148.980994 72.77065 
L 149.096196 75.037163 
L 149.347545 75.037163 
L 149.462747 73.903907 
L 187.165173 73.903907 
L 187.280375 73.148402 
L 222.720656 73.148402 
L 222.835858 75.414915 
L 235.843195 75.414915 
L 235.958397 74.659411 
L 241.634706 74.659411 
L 241.749908 73.526154 
L 267.188573 73.526154 
L 267.303775 75.792667 
L 276.006752 75.792667 
L 276.121954 75.037163 
L 322.077022 75.037163 
L 322.192224 77.303675 
L 398.487273 77.303675 
L 398.487273 77.303675 
" clip-path="url(#p8407d05ece)" style="fill: none; stroke: #8c564b; stroke-width: 1.5; stroke-linecap: square"/>
   </g>
   <g id="line2d_19">
    <path d="M 73.832727 56.716186 
L 73.947929 56.262883 
L 73.979348 56.262883 
L 74.099786 53.996371 
L 74.733396 53.996371 
L 74.848598 52.863115 
L 117.693217 52.863115 
L 117.808418 52.296486 
L 398.487273 52.296486 
L 398.487273 52.296486 
" clip-path="url(#p8407d05ece)" style="fill: none; stroke: #e377c2; stroke-width: 1.5; stroke-linecap: square"/>
   </g>
   <g id="line2d_20">
    <path d="M 73.832727 59.738203 
L 73.91651 68.237625 
L 73.958402 66.915493 
L 73.974111 66.915493 
L 73.979348 65.782236 
L 74.042185 68.993129 
L 74.07884 67.859873 
L 74.089313 67.859873 
L 74.105023 70.126386 
L 74.146914 67.40657 
L 74.199279 67.40657 
L 74.31448 65.51781 
L 74.387791 65.51781 
L 74.502993 67.784323 
L 74.508229 67.784323 
L 74.592012 67.028818 
L 74.597249 69.295331 
L 74.607722 69.295331 
L 74.707214 69.295331 
L 74.733396 68.162075 
L 74.743869 72.6951 
L 74.80147 72.6951 
L 74.838125 72.6951 
L 74.953327 74.961612 
L 75.068529 74.961612 
L 75.188967 72.6951 
L 75.466499 72.6951 
L 75.581701 71.939596 
L 75.634065 71.939596 
L 75.644538 70.806339 
L 75.649775 73.072852 
L 75.733558 73.072852 
L 75.817341 77.605877 
L 75.84876 76.472621 
L 76.210075 76.472621 
L 76.325277 74.58386 
L 76.623754 74.58386 
L 76.738956 76.850373 
L 76.864631 76.850373 
L 76.869867 75.717117 
L 76.875104 77.983629 
L 76.96936 77.983629 
L 77.246891 77.983629 
L 77.362093 77.228125 
L 77.377803 77.228125 
L 77.493004 79.494638 
L 79.671367 79.494638 
L 79.791805 77.605877 
L 80.111229 77.605877 
L 80.22643 79.87239 
L 80.912405 79.87239 
L 81.027607 78.739133 
L 81.561725 78.739133 
L 81.676927 81.005646 
L 82.933674 81.005646 
L 83.048876 79.87239 
L 83.090768 79.87239 
L 83.205969 79.116886 
L 87.756443 79.116886 
L 87.871645 81.383398 
L 90.191391 81.383398 
L 90.306593 80.627894 
L 92.542556 80.627894 
L 92.657758 82.894407 
L 93.191876 82.894407 
L 93.307078 81.76115 
L 94.401495 81.76115 
L 94.516697 80.627894 
L 98.318359 80.627894 
L 98.43356 82.894407 
L 98.569708 82.894407 
L 98.68491 81.76115 
L 109.707633 81.76115 
L 109.822835 81.005646 
L 110.089894 81.005646 
L 110.205096 83.272159 
L 117.693217 83.272159 
L 117.808418 85.538671 
L 118.531048 85.538671 
L 118.64625 84.405415 
L 128.778777 84.405415 
L 128.893979 83.272159 
L 134.423668 83.272159 
L 134.53887 82.138902 
L 134.978732 82.138902 
L 135.093934 84.405415 
L 140.9221 84.405415 
L 141.037302 83.649911 
L 152.876911 83.649911 
L 152.992113 85.916423 
L 153.63096 85.916423 
L 153.746162 88.182936 
L 179.48854 88.182936 
L 179.603742 87.427432 
L 181.933962 87.427432 
L 182.049164 86.294175 
L 183.714354 86.294175 
L 183.829556 85.160919 
L 233.382064 85.160919 
L 233.497266 84.405415 
L 241.027279 84.405415 
L 241.14248 83.649911 
L 243.504118 83.649911 
L 243.61932 85.916423 
L 258.799783 85.916423 
L 258.914985 88.182936 
L 261.884051 88.182936 
L 261.999253 87.04968 
L 268.471503 87.04968 
L 268.586705 89.316192 
L 276.006752 89.316192 
L 276.121954 91.582705 
L 343.080415 91.582705 
L 343.195617 90.449449 
L 379.154306 90.449449 
L 379.269508 92.715961 
L 398.487273 92.715961 
L 398.487273 92.715961 
" clip-path="url(#p8407d05ece)" style="fill: none; stroke: #7f7f7f; stroke-width: 1.5; stroke-linecap: square"/>
   </g>
   <g id="line2d_21">
    <path d="M 73.832727 56.716186 
L 73.8432 56.716186 
L 73.853673 56.149558 
L 73.864146 60.682583 
L 73.906038 59.927079 
L 74.042185 70.88189 
L 74.089313 67.482121 
L 74.136441 71.561844 
L 74.141678 71.561844 
L 74.246407 76.094869 
L 74.25688 73.828356 
L 74.277825 73.828356 
L 74.387791 71.561844 
L 74.482047 70.806339 
L 74.502993 75.339365 
L 74.508229 74.886062 
L 74.550121 79.419087 
L 74.56583 79.419087 
L 74.581539 79.419087 
L 74.612958 83.952112 
L 74.691505 79.419087 
L 74.707214 79.419087 
L 74.780524 86.218625 
L 74.827652 83.952112 
L 74.838125 81.6856 
L 74.937618 83.952112 
L 75.042347 83.952112 
L 75.068529 81.6856 
L 75.131366 85.463121 
L 75.147076 85.463121 
L 75.372243 85.463121 
L 75.487445 82.441104 
L 75.565992 82.441104 
L 75.634065 79.419087 
L 75.649775 83.952112 
L 75.675957 81.6856 
L 75.681193 81.6856 
L 75.733558 80.552344 
L 75.75974 85.085369 
L 75.77545 85.085369 
L 75.817341 85.085369 
L 75.932543 87.351881 
L 76.047745 87.351881 
L 76.168183 85.463121 
L 76.210075 85.463121 
L 76.330513 89.996146 
L 76.351459 89.996146 
L 76.471897 85.463121 
L 76.623754 85.463121 
L 76.738956 87.729633 
L 76.786084 87.729633 
L 76.906522 92.262659 
L 76.943177 92.262659 
L 77.058379 91.129402 
L 77.246891 91.129402 
L 77.341147 95.662428 
L 77.356857 94.529171 
L 77.377803 92.262659 
L 77.466822 94.529171 
L 78.037595 94.529171 
L 78.152797 92.262659 
L 78.16327 92.262659 
L 78.278472 90.373898 
L 78.294181 90.373898 
L 78.409383 89.920596 
L 78.556003 89.920596 
L 78.613604 87.654083 
L 78.665969 89.920596 
L 78.765461 89.920596 
L 78.880663 87.654083 
L 79.639948 87.654083 
L 79.671367 87.20078 
L 79.676603 89.467293 
L 79.708022 89.467293 
L 79.823224 91.733806 
L 79.870352 91.733806 
L 79.891298 94.000318 
L 79.980317 93.244814 
L 80.07981 93.244814 
L 80.111229 92.111558 
L 80.116465 94.37807 
L 80.189775 93.244814 
L 80.414943 93.244814 
L 80.530144 90.978301 
L 80.912405 90.978301 
L 81.027607 93.244814 
L 81.561725 93.244814 
L 81.676927 95.511327 
L 82.603778 95.511327 
L 82.71898 93.244814 
L 82.933674 93.244814 
L 83.048876 95.511327 
L 83.090768 95.511327 
L 83.205969 97.777839 
L 83.698195 97.777839 
L 83.813397 95.511327 
L 85.007308 95.511327 
L 85.03349 97.777839 
L 85.117273 95.511327 
L 87.756443 95.511327 
L 87.871645 97.777839 
L 88.641402 97.777839 
L 88.756604 96.644583 
L 89.730584 96.644583 
L 89.845786 95.889079 
L 90.191391 95.889079 
L 90.306593 98.155591 
L 91.395774 98.155591 
L 91.510976 95.889079 
L 92.217897 95.889079 
L 92.333098 95.133575 
L 92.542556 95.133575 
L 92.636812 97.400087 
L 92.652522 96.266831 
L 92.694413 96.266831 
L 92.809615 98.533343 
L 92.924817 98.533343 
L 93.040019 96.266831 
L 93.191876 96.266831 
L 93.307078 98.533343 
L 94.401495 98.533343 
L 94.516697 100.799856 
L 95.480204 100.799856 
L 95.595406 99.6666 
L 96.050977 99.6666 
L 96.166178 97.400087 
L 98.318359 97.400087 
L 98.43356 99.6666 
L 98.569708 99.6666 
L 98.68491 101.933112 
L 99.915475 101.933112 
L 100.030677 101.47981 
L 100.533376 101.47981 
L 100.648578 99.213297 
L 109.707633 99.213297 
L 109.822835 101.47981 
L 110.089894 101.47981 
L 110.205096 103.746322 
L 113.205581 103.746322 
L 113.320782 102.613066 
L 117.693217 102.613066 
L 117.808418 102.046438 
L 118.531048 102.046438 
L 118.64625 104.312951 
L 121.809065 104.312951 
L 121.924267 103.179694 
L 123.51091 103.179694 
L 123.626112 100.913182 
L 128.778777 100.913182 
L 128.893979 103.179694 
L 134.423668 103.179694 
L 134.53887 105.446207 
L 134.826875 105.446207 
L 134.942077 103.179694 
L 134.978732 103.179694 
L 135.093934 105.446207 
L 135.790381 105.446207 
L 135.905583 104.992904 
L 137.795941 104.992904 
L 137.911143 102.726392 
L 140.9221 102.726392 
L 141.037302 104.992904 
L 148.980994 104.992904 
L 149.096196 104.539602 
L 149.347545 104.539602 
L 149.462747 106.806114 
L 152.190937 106.806114 
L 152.306138 104.539602 
L 152.876911 104.539602 
L 152.992113 106.806114 
L 153.63096 106.806114 
L 153.746162 109.072627 
L 155.976889 109.072627 
L 156.09209 107.939371 
L 172.251769 107.939371 
L 172.366971 106.806114 
L 179.48854 106.806114 
L 179.603742 109.072627 
L 181.148495 109.072627 
L 181.263696 106.806114 
L 181.933962 106.806114 
L 182.049164 109.072627 
L 183.64628 109.072627 
L 183.714354 107.939371 
L 183.719591 110.205883 
L 183.751009 110.205883 
L 185.348126 110.205883 
L 185.463328 107.939371 
L 187.165173 107.939371 
L 187.280375 110.205883 
L 194.758023 110.205883 
L 194.873225 107.939371 
L 208.278532 107.939371 
L 208.393734 106.806114 
L 222.720656 106.806114 
L 222.835858 106.352812 
L 230.329215 106.352812 
L 230.444417 104.086299 
L 233.382064 104.086299 
L 233.497266 106.352812 
L 235.843195 106.352812 
L 235.958397 108.619325 
L 241.027279 108.619325 
L 241.14248 110.885837 
L 241.634706 110.885837 
L 241.749908 113.15235 
L 242.273553 113.15235 
L 242.388755 110.885837 
L 243.504118 110.885837 
L 243.61932 113.15235 
L 245.776737 113.15235 
L 245.891939 112.019093 
L 247.29007 112.019093 
L 247.405272 110.885837 
L 251.782943 110.885837 
L 251.898145 108.619325 
L 257.605873 108.619325 
L 257.721075 107.86382 
L 258.799783 107.86382 
L 258.914985 110.130333 
L 261.140476 110.130333 
L 261.255677 107.86382 
L 261.884051 107.86382 
L 261.999253 110.130333 
L 267.188573 110.130333 
L 267.303775 109.374829 
L 268.471503 109.374829 
L 268.586705 111.641341 
L 276.006752 111.641341 
L 276.121954 113.907854 
L 282.945046 113.907854 
L 283.060247 111.641341 
L 322.077022 111.641341 
L 322.192224 111.188039 
L 343.080415 111.188039 
L 343.195617 113.454551 
L 379.154306 113.454551 
L 379.269508 115.721064 
L 398.487273 115.721064 
L 398.487273 115.721064 
" clip-path="url(#p8407d05ece)" style="fill: none; stroke: #bcbd22; stroke-width: 1.5; stroke-linecap: square"/>
   </g>
   <g id="line2d_22">
    <path d="M 73.832727 56.716186 
L 73.942693 68.426501 
L 73.968875 67.670997 
L 73.974111 67.670997 
L 73.979348 66.537741 
L 74.026476 77.303675 
L 74.042185 75.414915 
L 74.105023 79.94794 
L 74.157387 77.228125 
L 74.162624 77.228125 
L 74.246407 73.072852 
L 74.277825 75.339365 
L 74.398264 79.87239 
L 74.4035 79.87239 
L 74.408737 79.116886 
L 74.482047 82.894407 
L 74.487283 81.76115 
L 74.607722 87.351881 
L 74.612958 87.351881 
L 74.644377 85.085369 
L 74.72816 86.218625 
L 74.738633 86.218625 
L 74.859071 90.75165 
L 75.042347 90.75165 
L 75.068529 93.018163 
L 75.131366 89.996146 
L 75.147076 89.996146 
L 75.372243 89.996146 
L 75.466499 92.262659 
L 75.482208 91.507154 
L 75.565992 91.507154 
L 75.655011 94.906923 
L 75.675957 92.640411 
L 75.681193 92.640411 
L 75.733558 91.507154 
L 75.75974 96.04018 
L 75.77545 96.04018 
L 75.817341 96.04018 
L 75.932543 94.906923 
L 76.131528 94.906923 
L 76.251966 92.640411 
L 76.262439 92.640411 
L 76.351459 91.884907 
L 76.356695 94.151419 
L 76.471897 96.417932 
L 76.623754 96.417932 
L 76.738956 98.684444 
L 76.786084 98.684444 
L 76.854158 97.551188 
L 76.875104 100.950957 
L 76.885577 100.950957 
L 76.943177 100.950957 
L 77.058379 99.817701 
L 77.246891 99.817701 
L 77.356857 96.795684 
L 77.362093 99.062196 
L 77.377803 99.062196 
L 77.493004 101.328709 
L 78.037595 101.328709 
L 78.152797 103.595222 
L 78.16327 103.595222 
L 78.278472 102.461965 
L 78.294181 102.461965 
L 78.409383 102.008663 
L 78.556003 102.008663 
L 78.671205 104.275175 
L 78.765461 104.275175 
L 78.880663 106.541688 
L 79.639948 106.541688 
L 79.776096 104.199625 
L 80.07981 104.199625 
L 80.111229 103.066369 
L 80.116465 105.332881 
L 80.189775 104.199625 
L 80.414943 104.199625 
L 80.530144 106.466138 
L 80.912405 106.466138 
L 81.027607 105.332881 
L 81.561725 105.332881 
L 81.676927 107.599394 
L 82.603778 107.599394 
L 82.71898 109.865906 
L 82.933674 109.865906 
L 83.048876 108.73265 
L 83.090768 108.73265 
L 83.205969 107.977146 
L 83.698195 107.977146 
L 83.813397 110.243659 
L 85.007308 110.243659 
L 85.03349 109.488154 
L 85.038726 111.754667 
L 85.1068 111.754667 
L 87.756443 111.754667 
L 87.871645 114.02118 
L 88.641402 114.02118 
L 88.756604 112.887923 
L 89.730584 112.887923 
L 89.845786 112.132419 
L 90.191391 112.132419 
L 90.306593 111.376915 
L 91.395774 111.376915 
L 91.510976 113.643428 
L 92.217897 113.643428 
L 92.333098 112.887923 
L 92.542556 112.887923 
L 92.636812 115.154436 
L 92.652522 114.02118 
L 92.694413 114.02118 
L 92.809615 113.265675 
L 92.924817 113.265675 
L 93.040019 115.532188 
L 93.191876 115.532188 
L 93.307078 114.398932 
L 94.401495 114.398932 
L 94.516697 113.265675 
L 95.480204 113.265675 
L 95.595406 112.132419 
L 96.050977 112.132419 
L 96.166178 114.398932 
L 98.318359 114.398932 
L 98.43356 116.665444 
L 98.569708 116.665444 
L 98.68491 115.532188 
L 99.915475 115.532188 
L 100.030677 115.078885 
L 100.533376 115.078885 
L 100.648578 117.345398 
L 109.707633 117.345398 
L 109.822835 116.589894 
L 110.089894 116.589894 
L 110.205096 118.856406 
L 113.205581 118.856406 
L 113.320782 117.72315 
L 117.693217 117.72315 
L 117.808418 119.989663 
L 118.531048 119.989663 
L 118.64625 118.856406 
L 121.809065 118.856406 
L 121.924267 117.72315 
L 123.51091 117.72315 
L 123.626112 119.989663 
L 128.778777 119.989663 
L 128.893979 118.856406 
L 134.423668 118.856406 
L 134.53887 117.72315 
L 134.826875 117.72315 
L 134.942077 119.989663 
L 134.978732 119.989663 
L 135.093934 122.256175 
L 135.790381 122.256175 
L 135.905583 121.802873 
L 137.795941 121.802873 
L 137.911143 124.069385 
L 140.9221 124.069385 
L 141.037302 123.313881 
L 148.980994 123.313881 
L 149.096196 122.860579 
L 149.347545 122.860579 
L 149.462747 121.727322 
L 152.190937 121.727322 
L 152.306138 123.993835 
L 152.876911 123.993835 
L 152.992113 126.260348 
L 153.63096 126.260348 
L 153.746162 128.52686 
L 155.976889 128.52686 
L 156.09209 127.393604 
L 172.251769 127.393604 
L 172.366971 126.260348 
L 179.48854 126.260348 
L 179.603742 125.504843 
L 181.148495 125.504843 
L 181.263696 127.771356 
L 181.933962 127.771356 
L 182.049164 126.6381 
L 183.64628 126.6381 
L 183.766719 124.371587 
L 185.348126 124.371587 
L 185.463328 126.6381 
L 187.165173 126.6381 
L 187.280375 125.882596 
L 194.758023 125.882596 
L 194.873225 128.149108 
L 208.278532 128.149108 
L 208.393734 127.015852 
L 222.720656 127.015852 
L 222.835858 126.562549 
L 230.329215 126.562549 
L 230.444417 128.829062 
L 233.382064 128.829062 
L 233.497266 128.073558 
L 235.843195 128.073558 
L 235.958397 127.318054 
L 241.027279 127.318054 
L 241.14248 126.562549 
L 241.634706 126.562549 
L 241.749908 125.429293 
L 242.273553 125.429293 
L 242.388755 127.695806 
L 243.504118 127.695806 
L 243.61932 129.962318 
L 245.776737 129.962318 
L 245.891939 128.829062 
L 247.29007 128.829062 
L 247.405272 127.695806 
L 251.782943 127.695806 
L 251.898145 129.962318 
L 257.605873 129.962318 
L 257.721075 129.206814 
L 258.799783 129.206814 
L 258.914985 131.473327 
L 261.140476 131.473327 
L 261.255677 133.739839 
L 261.884051 133.739839 
L 261.999253 132.606583 
L 268.471503 132.606583 
L 268.586705 134.873096 
L 276.006752 134.873096 
L 276.121954 137.139608 
L 282.945046 137.139608 
L 283.060247 139.406121 
L 322.077022 139.406121 
L 322.192224 138.952818 
L 343.080415 138.952818 
L 343.195617 137.819562 
L 379.154306 137.819562 
L 379.269508 140.086075 
L 398.487273 140.086075 
L 398.487273 140.086075 
" clip-path="url(#p8407d05ece)" style="fill: none; stroke: #17becf; stroke-width: 1.5; stroke-linecap: square"/>
   </g>
   <g id="line2d_23">
    <path d="M 73.832727 57.47169 
L 73.8432 57.47169 
L 73.853673 56.905062 
L 73.885092 63.7046 
L 73.895565 63.7046 
L 73.906038 63.7046 
L 74.031712 70.504138 
L 74.089313 70.504138 
L 74.105023 72.77065 
L 74.204515 72.317348 
L 74.413973 72.317348 
L 74.482047 70.806339 
L 74.487283 73.072852 
L 74.518702 72.619549 
L 74.581539 72.619549 
L 74.696741 74.886062 
L 75.59741 74.886062 
L 75.712612 74.130558 
L 75.754504 74.130558 
L 75.869706 76.39707 
L 76.047745 76.39707 
L 76.162947 75.641566 
L 76.623754 75.641566 
L 76.738956 77.908079 
L 76.786084 77.908079 
L 76.901286 80.174591 
L 77.330675 80.174591 
L 77.445876 82.441104 
L 78.173743 82.441104 
L 78.288945 81.6856 
L 78.294181 81.6856 
L 78.409383 81.232297 
L 78.613604 81.232297 
L 78.728806 83.49881 
L 79.639948 83.49881 
L 79.75515 83.045507 
L 79.870352 83.045507 
L 79.891298 85.31202 
L 79.980317 84.556516 
L 85.007308 84.556516 
L 85.122509 86.823028 
L 92.694413 86.823028 
L 92.809615 89.089541 
L 99.915475 89.089541 
L 100.030677 88.636238 
L 110.089894 88.636238 
L 110.205096 90.902751 
L 117.693217 90.902751 
L 117.808418 90.336123 
L 134.978732 90.336123 
L 135.093934 92.602636 
L 135.790381 92.602636 
L 135.905583 92.149333 
L 148.980994 92.149333 
L 149.096196 91.69603 
L 149.347545 91.69603 
L 149.462747 93.962543 
L 187.165173 93.962543 
L 187.280375 96.229056 
L 222.720656 96.229056 
L 222.835858 95.775753 
L 235.843195 95.775753 
L 235.958397 98.042266 
L 241.634706 98.042266 
L 241.749908 100.308778 
L 267.188573 100.308778 
L 267.303775 99.553274 
L 276.006752 99.553274 
L 276.121954 101.819787 
L 322.077022 101.819787 
L 322.192224 101.366484 
L 398.487273 101.366484 
L 398.487273 101.366484 
" clip-path="url(#p8407d05ece)" style="fill: none; stroke: #1f77b4; stroke-width: 1.5; stroke-linecap: square"/>
   </g>
   <g id="line2d_24">
    <path d="M 73.832727 57.47169 
L 73.953166 56.45176 
L 74.021239 56.45176 
L 74.089313 55.318503 
L 74.09455 57.585016 
L 74.125968 57.585016 
L 74.502993 57.585016 
L 74.618194 59.851528 
L 78.294181 59.851528 
L 78.409383 62.118041 
L 79.639948 62.118041 
L 79.75515 64.384554 
L 135.790381 64.384554 
L 135.905583 66.651066 
L 148.980994 66.651066 
L 149.096196 68.917579 
L 322.077022 68.917579 
L 322.192224 71.184091 
L 398.487273 71.184091 
L 398.487273 71.184091 
" clip-path="url(#p8407d05ece)" style="fill: none; stroke: #ff7f0e; stroke-width: 1.5; stroke-linecap: square"/>
   </g>
   <g id="patch_3">
    <path d="M 57.6 162.432 
L 57.6 41.472 
" style="fill: none; stroke: #000000; stroke-width: 0.8; stroke-linejoin: miter; stroke-linecap: square"/>
   </g>
   <g id="patch_4">
    <path d="M 414.72 162.432 
L 414.72 41.472 
" style="fill: none; stroke: #000000; stroke-width: 0.8; stroke-linejoin: miter; stroke-linecap: square"/>
   </g>
   <g id="patch_5">
    <path d="M 57.6 162.432 
L 414.72 162.432 
" style="fill: none; stroke: #000000; stroke-width: 0.8; stroke-linejoin: miter; stroke-linecap: square"/>
   </g>
   <g id="patch_6">
    <path d="M 57.6 41.472 
L 414.72 41.472 
" style="fill: none; stroke: #000000; stroke-width: 0.8; stroke-linejoin: miter; stroke-linecap: square"/>
   </g>
   <g id="text_13">
    <!-- WSP -->
    <g transform="translate(361.832136 156.178314)scale(0.08 -0.08)">
     <defs>
      <path id="DejaVuSans-57" d="M 213 4666 
L 850 4666 
L 1831 722 
L 2809 4666 
L 3519 4666 
L 4500 722 
L 5478 4666 
L 6119 4666 
L 4947 0 
L 4153 0 
L 3169 4050 
L 2175 0 
L 1381 0 
L 213 4666 
z
" transform="scale(0.015625)"/>
      <path id="DejaVuSans-53" d="M 3425 4513 
L 3425 3897 
Q 3066 4069 2747 4153 
Q 2428 4238 2131 4238 
Q 1616 4238 1336 4038 
Q 1056 3838 1056 3469 
Q 1056 3159 1242 3001 
Q 1428 2844 1947 2747 
L 2328 2669 
Q 3034 2534 3370 2195 
Q 3706 1856 3706 1288 
Q 3706 609 3251 259 
Q 2797 -91 1919 -91 
Q 1588 -91 1214 -16 
Q 841 59 441 206 
L 441 856 
Q 825 641 1194 531 
Q 1563 422 1919 422 
Q 2459 422 2753 634 
Q 3047 847 3047 1241 
Q 3047 1584 2836 1778 
Q 2625 1972 2144 2069 
L 1759 2144 
Q 1053 2284 737 2584 
Q 422 2884 422 3419 
Q 422 4038 858 4394 
Q 1294 4750 2059 4750 
Q 2388 4750 2728 4690 
Q 3069 4631 3425 4513 
z
" transform="scale(0.015625)"/>
      <path id="DejaVuSans-50" d="M 1259 4147 
L 1259 2394 
L 2053 2394 
Q 2494 2394 2734 2622 
Q 2975 2850 2975 3272 
Q 2975 3691 2734 3919 
Q 2494 4147 2053 4147 
L 1259 4147 
z
M 628 4666 
L 2053 4666 
Q 2838 4666 3239 4311 
Q 3641 3956 3641 3272 
Q 3641 2581 3239 2228 
Q 2838 1875 2053 1875 
L 1259 1875 
L 1259 0 
L 628 0 
L 628 4666 
z
" transform="scale(0.015625)"/>
     </defs>
     <use xlink:href="#DejaVuSans-57"/>
     <use xlink:href="#DejaVuSans-53" x="98.876953"/>
     <use xlink:href="#DejaVuSans-50" x="162.353516"/>
    </g>
   </g>
   <g id="text_14">
    <!-- Iambic -->
    <g transform="translate(361.832136 133.928715)scale(0.08 -0.08)">
     <defs>
      <path id="DejaVuSans-49" d="M 628 4666 
L 1259 4666 
L 1259 0 
L 628 0 
L 628 4666 
z
" transform="scale(0.015625)"/>
      <path id="DejaVuSans-61" d="M 2194 1759 
Q 1497 1759 1228 1600 
Q 959 1441 959 1056 
Q 959 750 1161 570 
Q 1363 391 1709 391 
Q 2188 391 2477 730 
Q 2766 1069 2766 1631 
L 2766 1759 
L 2194 1759 
z
M 3341 1997 
L 3341 0 
L 2766 0 
L 2766 531 
Q 2569 213 2275 61 
Q 1981 -91 1556 -91 
Q 1019 -91 701 211 
Q 384 513 384 1019 
Q 384 1609 779 1909 
Q 1175 2209 1959 2209 
L 2766 2209 
L 2766 2266 
Q 2766 2663 2505 2880 
Q 2244 3097 1772 3097 
Q 1472 3097 1187 3025 
Q 903 2953 641 2809 
L 641 3341 
Q 956 3463 1253 3523 
Q 1550 3584 1831 3584 
Q 2591 3584 2966 3190 
Q 3341 2797 3341 1997 
z
" transform="scale(0.015625)"/>
      <path id="DejaVuSans-6d" d="M 3328 2828 
Q 3544 3216 3844 3400 
Q 4144 3584 4550 3584 
Q 5097 3584 5394 3201 
Q 5691 2819 5691 2113 
L 5691 0 
L 5113 0 
L 5113 2094 
Q 5113 2597 4934 2840 
Q 4756 3084 4391 3084 
Q 3944 3084 3684 2787 
Q 3425 2491 3425 1978 
L 3425 0 
L 2847 0 
L 2847 2094 
Q 2847 2600 2669 2842 
Q 2491 3084 2119 3084 
Q 1678 3084 1418 2786 
Q 1159 2488 1159 1978 
L 1159 0 
L 581 0 
L 581 3500 
L 1159 3500 
L 1159 2956 
Q 1356 3278 1631 3431 
Q 1906 3584 2284 3584 
Q 2666 3584 2933 3390 
Q 3200 3197 3328 2828 
z
" transform="scale(0.015625)"/>
      <path id="DejaVuSans-62" d="M 3116 1747 
Q 3116 2381 2855 2742 
Q 2594 3103 2138 3103 
Q 1681 3103 1420 2742 
Q 1159 2381 1159 1747 
Q 1159 1113 1420 752 
Q 1681 391 2138 391 
Q 2594 391 2855 752 
Q 3116 1113 3116 1747 
z
M 1159 2969 
Q 1341 3281 1617 3432 
Q 1894 3584 2278 3584 
Q 2916 3584 3314 3078 
Q 3713 2572 3713 1747 
Q 3713 922 3314 415 
Q 2916 -91 2278 -91 
Q 1894 -91 1617 61 
Q 1341 213 1159 525 
L 1159 0 
L 581 0 
L 581 4863 
L 1159 4863 
L 1159 2969 
z
" transform="scale(0.015625)"/>
      <path id="DejaVuSans-69" d="M 603 3500 
L 1178 3500 
L 1178 0 
L 603 0 
L 603 3500 
z
M 603 4863 
L 1178 4863 
L 1178 4134 
L 603 4134 
L 603 4863 
z
" transform="scale(0.015625)"/>
      <path id="DejaVuSans-63" d="M 3122 3366 
L 3122 2828 
Q 2878 2963 2633 3030 
Q 2388 3097 2138 3097 
Q 1578 3097 1268 2742 
Q 959 2388 959 1747 
Q 959 1106 1268 751 
Q 1578 397 2138 397 
Q 2388 397 2633 464 
Q 2878 531 3122 666 
L 3122 134 
Q 2881 22 2623 -34 
Q 2366 -91 2075 -91 
Q 1284 -91 818 406 
Q 353 903 353 1747 
Q 353 2603 823 3093 
Q 1294 3584 2113 3584 
Q 2378 3584 2631 3529 
Q 2884 3475 3122 3366 
z
" transform="scale(0.015625)"/>
     </defs>
     <use xlink:href="#DejaVuSans-49"/>
     <use xlink:href="#DejaVuSans-61" x="29.492188"/>
     <use xlink:href="#DejaVuSans-6d" x="90.771484"/>
     <use xlink:href="#DejaVuSans-62" x="188.183594"/>
     <use xlink:href="#DejaVuSans-69" x="251.660156"/>
     <use xlink:href="#DejaVuSans-63" x="279.443359"/>
    </g>
   </g>
   <g id="text_15">
    <!-- Parse -->
    <g transform="translate(361.832136 69.295331)scale(0.08 -0.08)">
     <defs>
      <path id="DejaVuSans-72" d="M 2631 2963 
Q 2534 3019 2420 3045 
Q 2306 3072 2169 3072 
Q 1681 3072 1420 2755 
Q 1159 2438 1159 1844 
L 1159 0 
L 581 0 
L 581 3500 
L 1159 3500 
L 1159 2956 
Q 1341 3275 1631 3429 
Q 1922 3584 2338 3584 
Q 2397 3584 2469 3576 
Q 2541 3569 2628 3553 
L 2631 2963 
z
" transform="scale(0.015625)"/>
      <path id="DejaVuSans-73" d="M 2834 3397 
L 2834 2853 
Q 2591 2978 2328 3040 
Q 2066 3103 1784 3103 
Q 1356 3103 1142 2972 
Q 928 2841 928 2578 
Q 928 2378 1081 2264 
Q 1234 2150 1697 2047 
L 1894 2003 
Q 2506 1872 2764 1633 
Q 3022 1394 3022 966 
Q 3022 478 2636 193 
Q 2250 -91 1575 -91 
Q 1294 -91 989 -36 
Q 684 19 347 128 
L 347 722 
Q 666 556 975 473 
Q 1284 391 1588 391 
Q 1994 391 2212 530 
Q 2431 669 2431 922 
Q 2431 1156 2273 1281 
Q 2116 1406 1581 1522 
L 1381 1569 
Q 847 1681 609 1914 
Q 372 2147 372 2553 
Q 372 3047 722 3315 
Q 1072 3584 1716 3584 
Q 2034 3584 2315 3537 
Q 2597 3491 2834 3397 
z
" transform="scale(0.015625)"/>
      <path id="DejaVuSans-65" d="M 3597 1894 
L 3597 1613 
L 953 1613 
Q 991 1019 1311 708 
Q 1631 397 2203 397 
Q 2534 397 2845 478 
Q 3156 559 3463 722 
L 3463 178 
Q 3153 47 2828 -22 
Q 2503 -91 2169 -91 
Q 1331 -91 842 396 
Q 353 884 353 1716 
Q 353 2575 817 3079 
Q 1281 3584 2069 3584 
Q 2775 3584 3186 3129 
Q 3597 2675 3597 1894 
z
M 3022 2063 
Q 3016 2534 2758 2815 
Q 2500 3097 2075 3097 
Q 1594 3097 1305 2825 
Q 1016 2553 972 2059 
L 3022 2063 
z
" transform="scale(0.015625)"/>
     </defs>
     <use xlink:href="#DejaVuSans-50"/>
     <use xlink:href="#DejaVuSans-61" x="55.802734"/>
     <use xlink:href="#DejaVuSans-72" x="117.082031"/>
     <use xlink:href="#DejaVuSans-73" x="158.195312"/>
     <use xlink:href="#DejaVuSans-65" x="210.294922"/>
    </g>
   </g>
   <g id="text_16">
    <!-- FootBin -->
    <g transform="translate(361.832136 46.970182)scale(0.08 -0.08)">
     <defs>
      <path id="DejaVuSans-46" d="M 628 4666 
L 3309 4666 
L 3309 4134 
L 1259 4134 
L 1259 2759 
L 3109 2759 
L 3109 2228 
L 1259 2228 
L 1259 0 
L 628 0 
L 628 4666 
z
" transform="scale(0.015625)"/>
      <path id="DejaVuSans-6f" d="M 1959 3097 
Q 1497 3097 1228 2736 
Q 959 2375 959 1747 
Q 959 1119 1226 758 
Q 1494 397 1959 397 
Q 2419 397 2687 759 
Q 2956 1122 2956 1747 
Q 2956 2369 2687 2733 
Q 2419 3097 1959 3097 
z
M 1959 3584 
Q 2709 3584 3137 3096 
Q 3566 2609 3566 1747 
Q 3566 888 3137 398 
Q 2709 -91 1959 -91 
Q 1206 -91 779 398 
Q 353 888 353 1747 
Q 353 2609 779 3096 
Q 1206 3584 1959 3584 
z
" transform="scale(0.015625)"/>
      <path id="DejaVuSans-74" d="M 1172 4494 
L 1172 3500 
L 2356 3500 
L 2356 3053 
L 1172 3053 
L 1172 1153 
Q 1172 725 1289 603 
Q 1406 481 1766 481 
L 2356 481 
L 2356 0 
L 1766 0 
Q 1100 0 847 248 
Q 594 497 594 1153 
L 594 3053 
L 172 3053 
L 172 3500 
L 594 3500 
L 594 4494 
L 1172 4494 
z
" transform="scale(0.015625)"/>
      <path id="DejaVuSans-42" d="M 1259 2228 
L 1259 519 
L 2272 519 
Q 2781 519 3026 730 
Q 3272 941 3272 1375 
Q 3272 1813 3026 2020 
Q 2781 2228 2272 2228 
L 1259 2228 
z
M 1259 4147 
L 1259 2741 
L 2194 2741 
Q 2656 2741 2882 2914 
Q 3109 3088 3109 3444 
Q 3109 3797 2882 3972 
Q 2656 4147 2194 4147 
L 1259 4147 
z
M 628 4666 
L 2241 4666 
Q 2963 4666 3353 4366 
Q 3744 4066 3744 3513 
Q 3744 3084 3544 2831 
Q 3344 2578 2956 2516 
Q 3422 2416 3680 2098 
Q 3938 1781 3938 1306 
Q 3938 681 3513 340 
Q 3088 0 2303 0 
L 628 0 
L 628 4666 
z
" transform="scale(0.015625)"/>
      <path id="DejaVuSans-6e" d="M 3513 2113 
L 3513 0 
L 2938 0 
L 2938 2094 
Q 2938 2591 2744 2837 
Q 2550 3084 2163 3084 
Q 1697 3084 1428 2787 
Q 1159 2491 1159 1978 
L 1159 0 
L 581 0 
L 581 3500 
L 1159 3500 
L 1159 2956 
Q 1366 3272 1645 3428 
Q 1925 3584 2291 3584 
Q 2894 3584 3203 3211 
Q 3513 2838 3513 2113 
z
" transform="scale(0.015625)"/>
     </defs>
     <use xlink:href="#DejaVuSans-46"/>
     <use xlink:href="#DejaVuSans-6f" x="53.894531"/>
     <use xlink:href="#DejaVuSans-6f" x="115.076172"/>
     <use xlink:href="#DejaVuSans-74" x="176.257812"/>
     <use xlink:href="#DejaVuSans-42" x="215.466797"/>
     <use xlink:href="#DejaVuSans-69" x="284.070312"/>
     <use xlink:href="#DejaVuSans-6e" x="311.853516"/>
    </g>
   </g>
   <g id="text_17">
    <!-- WFL -->
    <g transform="translate(361.832136 56.45176)scale(0.08 -0.08)">
     <defs>
      <path id="DejaVuSans-4c" d="M 628 4666 
L 1259 4666 
L 1259 531 
L 3531 531 
L 3531 0 
L 628 0 
L 628 4666 
z
" transform="scale(0.015625)"/>
     </defs>
     <use xlink:href="#DejaVuSans-57"/>
     <use xlink:href="#DejaVuSans-46" x="98.876953"/>
     <use xlink:href="#DejaVuSans-4c" x="156.396484"/>
    </g>
   </g>
   <g id="text_18">
    <!-- WFR -->
    <g transform="translate(361.832136 77.303675)scale(0.08 -0.08)">
     <defs>
      <path id="DejaVuSans-52" d="M 2841 2188 
Q 3044 2119 3236 1894 
Q 3428 1669 3622 1275 
L 4263 0 
L 3584 0 
L 2988 1197 
Q 2756 1666 2539 1819 
Q 2322 1972 1947 1972 
L 1259 1972 
L 1259 0 
L 628 0 
L 628 4666 
L 2053 4666 
Q 2853 4666 3247 4331 
Q 3641 3997 3641 3322 
Q 3641 2881 3436 2590 
Q 3231 2300 2841 2188 
z
M 1259 4147 
L 1259 2491 
L 2053 2491 
Q 2509 2491 2742 2702 
Q 2975 2913 2975 3322 
Q 2975 3731 2742 3939 
Q 2509 4147 2053 4147 
L 1259 4147 
z
" transform="scale(0.015625)"/>
     </defs>
     <use xlink:href="#DejaVuSans-57"/>
     <use xlink:href="#DejaVuSans-46" x="98.876953"/>
     <use xlink:href="#DejaVuSans-52" x="156.396484"/>
    </g>
   </g>
   <g id="text_19">
    <!-- Main-L -->
    <g transform="translate(361.832136 52.296486)scale(0.08 -0.08)">
     <defs>
      <path id="DejaVuSans-4d" d="M 628 4666 
L 1569 4666 
L 2759 1491 
L 3956 4666 
L 4897 4666 
L 4897 0 
L 4281 0 
L 4281 4097 
L 3078 897 
L 2444 897 
L 1241 4097 
L 1241 0 
L 628 0 
L 628 4666 
z
" transform="scale(0.015625)"/>
      <path id="DejaVuSans-2d" d="M 313 2009 
L 1997 2009 
L 1997 1497 
L 313 1497 
L 313 2009 
z
" transform="scale(0.015625)"/>
     </defs>
     <use xlink:href="#DejaVuSans-4d"/>
     <use xlink:href="#DejaVuSans-61" x="86.279297"/>
     <use xlink:href="#DejaVuSans-69" x="147.558594"/>
     <use xlink:href="#DejaVuSans-6e" x="175.341797"/>
     <use xlink:href="#DejaVuSans-2d" x="238.720703"/>
     <use xlink:href="#DejaVuSans-4c" x="274.804688"/>
    </g>
   </g>
   <g id="text_20">
    <!-- Main-R -->
    <g transform="translate(361.832136 92.715961)scale(0.08 -0.08)">
     <use xlink:href="#DejaVuSans-4d"/>
     <use xlink:href="#DejaVuSans-61" x="86.279297"/>
     <use xlink:href="#DejaVuSans-69" x="147.558594"/>
     <use xlink:href="#DejaVuSans-6e" x="175.341797"/>
     <use xlink:href="#DejaVuSans-2d" x="238.720703"/>
     <use xlink:href="#DejaVuSans-52" x="274.804688"/>
    </g>
   </g>
   <g id="text_21">
    <!-- AFL -->
    <g transform="translate(361.832136 115.721064)scale(0.08 -0.08)">
     <defs>
      <path id="DejaVuSans-41" d="M 2188 4044 
L 1331 1722 
L 3047 1722 
L 2188 4044 
z
M 1831 4666 
L 2547 4666 
L 4325 0 
L 3669 0 
L 3244 1197 
L 1141 1197 
L 716 0 
L 50 0 
L 1831 4666 
z
" transform="scale(0.015625)"/>
     </defs>
     <use xlink:href="#DejaVuSans-41"/>
     <use xlink:href="#DejaVuSans-46" x="68.408203"/>
     <use xlink:href="#DejaVuSans-4c" x="125.927734"/>
    </g>
   </g>
   <g id="text_22">
    <!-- AFR -->
    <g transform="translate(361.832136 140.086075)scale(0.08 -0.08)">
     <use xlink:href="#DejaVuSans-41"/>
     <use xlink:href="#DejaVuSans-46" x="68.408203"/>
     <use xlink:href="#DejaVuSans-52" x="125.927734"/>
    </g>
   </g>
   <g id="text_23">
    <!-- Nonfinal -->
    <g transform="translate(361.832136 101.366484)scale(0.08 -0.08)">
     <defs>
      <path id="DejaVuSans-4e" d="M 628 4666 
L 1478 4666 
L 3547 763 
L 3547 4666 
L 4159 4666 
L 4159 0 
L 3309 0 
L 1241 3903 
L 1241 0 
L 628 0 
L 628 4666 
z
" transform="scale(0.015625)"/>
      <path id="DejaVuSans-66" d="M 2375 4863 
L 2375 4384 
L 1825 4384 
Q 1516 4384 1395 4259 
Q 1275 4134 1275 3809 
L 1275 3500 
L 2222 3500 
L 2222 3053 
L 1275 3053 
L 1275 0 
L 697 0 
L 697 3053 
L 147 3053 
L 147 3500 
L 697 3500 
L 697 3744 
Q 697 4328 969 4595 
Q 1241 4863 1831 4863 
L 2375 4863 
z
" transform="scale(0.015625)"/>
      <path id="DejaVuSans-6c" d="M 603 4863 
L 1178 4863 
L 1178 0 
L 603 0 
L 603 4863 
z
" transform="scale(0.015625)"/>
     </defs>
     <use xlink:href="#DejaVuSans-4e"/>
     <use xlink:href="#DejaVuSans-6f" x="74.804688"/>
     <use xlink:href="#DejaVuSans-6e" x="135.986328"/>
     <use xlink:href="#DejaVuSans-66" x="199.365234"/>
     <use xlink:href="#DejaVuSans-69" x="234.570312"/>
     <use xlink:href="#DejaVuSans-6e" x="262.353516"/>
     <use xlink:href="#DejaVuSans-61" x="325.732422"/>
     <use xlink:href="#DejaVuSans-6c" x="387.011719"/>
    </g>
   </g>
   <g id="text_24">
    <!-- Trochaic -->
    <g transform="translate(361.832136 71.184091)scale(0.08 -0.08)">
     <defs>
      <path id="DejaVuSans-54" d="M -19 4666 
L 3928 4666 
L 3928 4134 
L 2272 4134 
L 2272 0 
L 1638 0 
L 1638 4134 
L -19 4134 
L -19 4666 
z
" transform="scale(0.015625)"/>
      <path id="DejaVuSans-68" d="M 3513 2113 
L 3513 0 
L 2938 0 
L 2938 2094 
Q 2938 2591 2744 2837 
Q 2550 3084 2163 3084 
Q 1697 3084 1428 2787 
Q 1159 2491 1159 1978 
L 1159 0 
L 581 0 
L 581 4863 
L 1159 4863 
L 1159 2956 
Q 1366 3272 1645 3428 
Q 1925 3584 2291 3584 
Q 2894 3584 3203 3211 
Q 3513 2838 3513 2113 
z
" transform="scale(0.015625)"/>
     </defs>
     <use xlink:href="#DejaVuSans-54"/>
     <use xlink:href="#DejaVuSans-72" x="46.333984"/>
     <use xlink:href="#DejaVuSans-6f" x="85.197266"/>
     <use xlink:href="#DejaVuSans-63" x="146.378906"/>
     <use xlink:href="#DejaVuSans-68" x="201.359375"/>
     <use xlink:href="#DejaVuSans-61" x="264.738281"/>
     <use xlink:href="#DejaVuSans-69" x="326.017578"/>
     <use xlink:href="#DejaVuSans-63" x="353.800781"/>
    </g>
   </g>
  </g>
  <g id="axes_2">
   <g id="patch_7">
    <path d="M 57.6 307.584 
L 414.72 307.584 
L 414.72 186.624 
L 57.6 186.624 
z
" style="fill: #ffffff"/>
   </g>
   <g id="matplotlib.axis_3">
    <g id="xtick_8">
     <g id="line2d_25">
      <g>
       <use xlink:href="#m56d3890052" x="72.077838" y="307.584" style="stroke: #000000; stroke-width: 0.8"/>
      </g>
     </g>
     <g id="text_25">
      <!-- 0 -->
      <g transform="translate(68.896588 322.182437)scale(0.1 -0.1)">
       <use xlink:href="#DejaVuSans-30"/>
      </g>
     </g>
    </g>
    <g id="xtick_9">
     <g id="line2d_26">
      <g>
       <use xlink:href="#m56d3890052" x="115.950074" y="307.584" style="stroke: #000000; stroke-width: 0.8"/>
      </g>
     </g>
     <g id="text_26">
      <!-- 25 -->
      <g transform="translate(109.587574 322.182437)scale(0.1 -0.1)">
       <use xlink:href="#DejaVuSans-32"/>
       <use xlink:href="#DejaVuSans-35" x="63.623047"/>
      </g>
     </g>
    </g>
    <g id="xtick_10">
     <g id="line2d_27">
      <g>
       <use xlink:href="#m56d3890052" x="159.82231" y="307.584" style="stroke: #000000; stroke-width: 0.8"/>
      </g>
     </g>
     <g id="text_27">
      <!-- 50 -->
      <g transform="translate(153.45981 322.182437)scale(0.1 -0.1)">
       <use xlink:href="#DejaVuSans-35"/>
       <use xlink:href="#DejaVuSans-30" x="63.623047"/>
      </g>
     </g>
    </g>
    <g id="xtick_11">
     <g id="line2d_28">
      <g>
       <use xlink:href="#m56d3890052" x="203.694545" y="307.584" style="stroke: #000000; stroke-width: 0.8"/>
      </g>
     </g>
     <g id="text_28">
      <!-- 75 -->
      <g transform="translate(197.332045 322.182437)scale(0.1 -0.1)">
       <use xlink:href="#DejaVuSans-37"/>
       <use xlink:href="#DejaVuSans-35" x="63.623047"/>
      </g>
     </g>
    </g>
    <g id="xtick_12">
     <g id="line2d_29">
      <g>
       <use xlink:href="#m56d3890052" x="247.566781" y="307.584" style="stroke: #000000; stroke-width: 0.8"/>
      </g>
     </g>
     <g id="text_29">
      <!-- 100 -->
      <g transform="translate(238.023031 322.182437)scale(0.1 -0.1)">
       <use xlink:href="#DejaVuSans-31"/>
       <use xlink:href="#DejaVuSans-30" x="63.623047"/>
       <use xlink:href="#DejaVuSans-30" x="127.246094"/>
      </g>
     </g>
    </g>
    <g id="xtick_13">
     <g id="line2d_30">
      <g>
       <use xlink:href="#m56d3890052" x="291.439017" y="307.584" style="stroke: #000000; stroke-width: 0.8"/>
      </g>
     </g>
     <g id="text_30">
      <!-- 125 -->
      <g transform="translate(281.895267 322.182437)scale(0.1 -0.1)">
       <use xlink:href="#DejaVuSans-31"/>
       <use xlink:href="#DejaVuSans-32" x="63.623047"/>
       <use xlink:href="#DejaVuSans-35" x="127.246094"/>
      </g>
     </g>
    </g>
    <g id="xtick_14">
     <g id="line2d_31">
      <g>
       <use xlink:href="#m56d3890052" x="335.311253" y="307.584" style="stroke: #000000; stroke-width: 0.8"/>
      </g>
     </g>
     <g id="text_31">
      <!-- 150 -->
      <g transform="translate(325.767503 322.182437)scale(0.1 -0.1)">
       <use xlink:href="#DejaVuSans-31"/>
       <use xlink:href="#DejaVuSans-35" x="63.623047"/>
       <use xlink:href="#DejaVuSans-30" x="127.246094"/>
      </g>
     </g>
    </g>
    <g id="xtick_15">
     <g id="line2d_32">
      <g>
       <use xlink:href="#m56d3890052" x="379.183489" y="307.584" style="stroke: #000000; stroke-width: 0.8"/>
      </g>
     </g>
     <g id="text_32">
      <!-- 175 -->
      <g transform="translate(369.639739 322.182437)scale(0.1 -0.1)">
       <use xlink:href="#DejaVuSans-31"/>
       <use xlink:href="#DejaVuSans-37" x="63.623047"/>
       <use xlink:href="#DejaVuSans-35" x="127.246094"/>
      </g>
     </g>
    </g>
   </g>
   <g id="matplotlib.axis_4">
    <g id="ytick_6">
     <g id="line2d_33">
      <g>
       <use xlink:href="#ma2591d35f2" x="57.6" y="302.100535" style="stroke: #000000; stroke-width: 0.8"/>
      </g>
     </g>
     <g id="text_33">
      <!-- 0 -->
      <g transform="translate(44.2375 305.899754)scale(0.1 -0.1)">
       <use xlink:href="#DejaVuSans-30"/>
      </g>
     </g>
    </g>
    <g id="ytick_7">
     <g id="line2d_34">
      <g>
       <use xlink:href="#ma2591d35f2" x="57.6" y="272.667013" style="stroke: #000000; stroke-width: 0.8"/>
      </g>
     </g>
     <g id="text_34">
      <!-- 2000 -->
      <g transform="translate(25.15 276.466232)scale(0.1 -0.1)">
       <use xlink:href="#DejaVuSans-32"/>
       <use xlink:href="#DejaVuSans-30" x="63.623047"/>
       <use xlink:href="#DejaVuSans-30" x="127.246094"/>
       <use xlink:href="#DejaVuSans-30" x="190.869141"/>
      </g>
     </g>
    </g>
    <g id="ytick_8">
     <g id="line2d_35">
      <g>
       <use xlink:href="#ma2591d35f2" x="57.6" y="243.233492" style="stroke: #000000; stroke-width: 0.8"/>
      </g>
     </g>
     <g id="text_35">
      <!-- 4000 -->
      <g transform="translate(25.15 247.032711)scale(0.1 -0.1)">
       <use xlink:href="#DejaVuSans-34"/>
       <use xlink:href="#DejaVuSans-30" x="63.623047"/>
       <use xlink:href="#DejaVuSans-30" x="127.246094"/>
       <use xlink:href="#DejaVuSans-30" x="190.869141"/>
      </g>
     </g>
    </g>
    <g id="ytick_9">
     <g id="line2d_36">
      <g>
       <use xlink:href="#ma2591d35f2" x="57.6" y="213.79997" style="stroke: #000000; stroke-width: 0.8"/>
      </g>
     </g>
     <g id="text_36">
      <!-- 6000 -->
      <g transform="translate(25.15 217.599189)scale(0.1 -0.1)">
       <use xlink:href="#DejaVuSans-36"/>
       <use xlink:href="#DejaVuSans-30" x="63.623047"/>
       <use xlink:href="#DejaVuSans-30" x="127.246094"/>
       <use xlink:href="#DejaVuSans-30" x="190.869141"/>
      </g>
     </g>
    </g>
   </g>
   <g id="line2d_37">
    <path d="M 73.832727 302.085818 
L 87.871843 302.071101 
L 93.136511 302.085818 
L 94.8914 302.012234 
L 98.401179 302.085818 
L 112.440295 302.071101 
L 119.459853 302.056385 
L 124.724521 302.041668 
L 126.47941 302.085818 
L 128.2343 302.012234 
L 129.989189 302.085818 
L 131.744079 301.982801 
L 133.498968 302.012234 
L 135.253857 301.791483 
L 137.008747 302.056385 
L 140.518526 302.085818 
L 142.273415 301.982801 
L 145.783194 302.085818 
L 163.332088 302.026951 
L 165.086978 301.923934 
L 168.596757 302.085818 
L 170.351646 301.982801 
L 172.106536 302.071101 
L 173.861425 301.997518 
L 175.616314 302.071101 
L 177.371204 301.526581 
L 179.126093 302.026951 
L 182.635872 302.026951 
L 184.390762 301.408847 
L 186.145651 301.835633 
L 187.900541 301.820916 
L 189.65543 302.012234 
L 194.920098 302.071101 
L 198.429877 302.056385 
L 200.184767 301.953367 
L 201.939656 302.041668 
L 203.694545 301.923934 
L 205.449435 301.452997 
L 207.204324 301.865067 
L 212.468993 301.85035 
L 214.223882 302.085818 
L 215.978771 301.34998 
L 219.48855 301.909217 
L 221.24344 302.071101 
L 222.998329 302.085818 
L 224.753219 301.8945 
L 226.508108 301.246963 
L 228.262998 301.865067 
L 230.017887 302.071101 
L 233.527666 302.041668 
L 235.282555 300.246223 
L 237.037445 301.747333 
L 238.792334 302.071101 
L 242.302113 301.364697 
L 244.057002 301.938651 
L 245.811892 301.673749 
L 247.566781 299.642836 
L 249.321671 302.012234 
L 251.07656 301.997518 
L 252.83145 301.644315 
L 254.586339 302.041668 
L 256.341229 301.570732 
L 258.096118 302.012234 
L 259.851007 302.071101 
L 261.605897 301.276396 
L 263.360786 300.702443 
L 265.115676 300.275657 
L 266.870565 299.1719 
L 268.625455 301.173379 
L 270.380344 301.659032 
L 272.135233 300.393391 
L 273.890123 298.421345 
L 275.645012 302.026951 
L 277.399902 294.447819 
L 279.154791 299.613402 
L 280.909681 299.039449 
L 282.66457 300.80546 
L 284.419459 298.71568 
L 286.174349 299.790004 
L 287.929238 301.188096 
L 289.684128 301.835633 
L 291.439017 301.938651 
L 293.193907 301.452997 
L 294.948796 301.34998 
L 296.703686 298.700963 
L 298.458575 299.068882 
L 300.213464 300.496408 
L 301.968354 295.728178 
L 303.723243 301.39413 
L 305.478133 298.318327 
L 307.233022 300.363957 
L 308.987912 276.31677 
L 310.742801 301.026211 
L 312.49769 293.344062 
L 314.25258 289.488271 
L 316.007469 299.745853 
L 317.762359 292.887843 
L 319.517248 297.317588 
L 321.272138 287.295474 
L 323.027027 286.235867 
L 324.781916 300.967344 
L 326.536806 301.673749 
L 328.291695 299.819437 
L 331.801474 293.314629 
L 333.556364 279.45144 
L 335.311253 301.070362 
L 337.066143 294.109334 
L 338.821032 300.172639 
L 340.575921 299.981321 
L 342.330811 295.507426 
L 344.0857 256.360843 
L 345.84059 281.761972 
L 347.595479 297.435322 
L 349.350369 299.893021 
L 351.105258 297.288154 
L 352.860147 301.909217 
L 354.615037 297.508906 
L 356.369926 296.993819 
L 359.879705 264.101859 
L 361.634595 261.511709 
L 363.389484 280.717082 
L 365.144373 293.520663 
L 366.899263 295.183657 
L 368.654152 287.530942 
L 370.409042 300.393391 
L 372.163931 300.30509 
L 373.918821 298.642096 
L 375.67371 295.713461 
L 377.4286 297.847391 
L 379.183489 289.473554 
L 380.938378 285.735497 
L 382.693268 298.745113 
L 384.448157 295.522143 
L 386.203047 300.010755 
L 387.957936 287.192456 
L 389.712826 298.494929 
L 391.467715 280.923116 
L 393.222604 282.600827 
L 394.977494 192.122182 
L 396.732383 243.071608 
L 398.487273 200.71677 
L 398.487273 200.71677 
" clip-path="url(#p2a1463a215)" style="fill: none; stroke: #1f77b4; stroke-width: 1.5; stroke-linecap: square"/>
   </g>
   <g id="patch_8">
    <path d="M 57.6 307.584 
L 57.6 186.624 
" style="fill: none; stroke: #000000; stroke-width: 0.8; stroke-linejoin: miter; stroke-linecap: square"/>
   </g>
   <g id="patch_9">
    <path d="M 414.72 307.584 
L 414.72 186.624 
" style="fill: none; stroke: #000000; stroke-width: 0.8; stroke-linejoin: miter; stroke-linecap: square"/>
   </g>
   <g id="patch_10">
    <path d="M 57.6 307.584 
L 414.72 307.584 
" style="fill: none; stroke: #000000; stroke-width: 0.8; stroke-linejoin: miter; stroke-linecap: square"/>
   </g>
   <g id="patch_11">
    <path d="M 57.6 186.624 
L 414.72 186.624 
" style="fill: none; stroke: #000000; stroke-width: 0.8; stroke-linejoin: miter; stroke-linecap: square"/>
   </g>
  </g>
 </g>
 <defs>
  <clipPath id="p8407d05ece">
   <rect x="57.6" y="41.472" width="357.12" height="120.96"/>
  </clipPath>
  <clipPath id="p2a1463a215">
   <rect x="57.6" y="186.624" width="357.12" height="120.96"/>
  </clipPath>
 </defs>
</svg>
