<?xml version="1.0" encoding="utf-8" standalone="no"?>
<!DOCTYPE svg PUBLIC "-//W3C//DTD SVG 1.1//EN"
  "http://www.w3.org/Graphics/SVG/1.1/DTD/svg11.dtd">
<svg xmlns:xlink="http://www.w3.org/1999/xlink" width="460.8pt" height="345.6pt" viewBox="0 0 460.8 345.6" xmlns="http://www.w3.org/2000/svg" version="1.1">
 <metadata>
  <rdf:RDF xmlns:dc="http://purl.org/dc/elements/1.1/" xmlns:cc="http://creativecommons.org/ns#" xmlns:rdf="http://www.w3.org/1999/02/22-rdf-syntax-ns#">
   <cc:Work>
    <dc:type rdf:resource="http://purl.org/dc/dcmitype/StillImage"/>
    <dc:date>2022-05-14T04:17:40.285799</dc:date>
    <dc:format>image/svg+xml</dc:format>
    <dc:creator>
     <cc:Agent>
      <dc:title>Matplotlib v3.5.1, https://matplotlib.org/</dc:title>
     </cc:Agent>
    </dc:creator>
   </cc:Work>
  </rdf:RDF>
 </metadata>
 <defs>
  <style type="text/css">*{stroke-linejoin: round; stroke-linecap: butt}</style>
 </defs>
 <g id="figure_1">
  <g id="patch_1">
   <path d="M 0 345.6 
L 460.8 345.6 
L 460.8 0 
L 0 0 
z
" style="fill: #ffffff"/>
  </g>
  <g id="axes_1">
   <g id="patch_2">
    <path d="M 57.6 162.432 
L 414.72 162.432 
L 414.72 41.472 
L 57.6 41.472 
z
" style="fill: #ffffff"/>
   </g>
   <g id="matplotlib.axis_1">
    <g id="xtick_1">
     <g id="line2d_1">
      <defs>
       <path id="mb372e92b62" d="M 0 0 
L 0 3.5 
" style="stroke: #000000; stroke-width: 0.8"/>
      </defs>
      <g>
       <use xlink:href="#mb372e92b62" x="73.827491" y="162.432" style="stroke: #000000; stroke-width: 0.8"/>
      </g>
     </g>
     <g id="text_1">
      <!-- 0 -->
      <g transform="translate(70.646241 177.030437)scale(0.1 -0.1)">
       <defs>
        <path id="DejaVuSans-30" d="M 2034 4250 
Q 1547 4250 1301 3770 
Q 1056 3291 1056 2328 
Q 1056 1369 1301 889 
Q 1547 409 2034 409 
Q 2525 409 2770 889 
Q 3016 1369 3016 2328 
Q 3016 3291 2770 3770 
Q 2525 4250 2034 4250 
z
M 2034 4750 
Q 2819 4750 3233 4129 
Q 3647 3509 3647 2328 
Q 3647 1150 3233 529 
Q 2819 -91 2034 -91 
Q 1250 -91 836 529 
Q 422 1150 422 2328 
Q 422 3509 836 4129 
Q 1250 4750 2034 4750 
z
" transform="scale(0.015625)"/>
       </defs>
       <use xlink:href="#DejaVuSans-30"/>
      </g>
     </g>
    </g>
    <g id="xtick_2">
     <g id="line2d_2">
      <g>
       <use xlink:href="#mb372e92b62" x="126.191972" y="162.432" style="stroke: #000000; stroke-width: 0.8"/>
      </g>
     </g>
     <g id="text_2">
      <!-- 10000 -->
      <g transform="translate(110.285722 177.030437)scale(0.1 -0.1)">
       <defs>
        <path id="DejaVuSans-31" d="M 794 531 
L 1825 531 
L 1825 4091 
L 703 3866 
L 703 4441 
L 1819 4666 
L 2450 4666 
L 2450 531 
L 3481 531 
L 3481 0 
L 794 0 
L 794 531 
z
" transform="scale(0.015625)"/>
       </defs>
       <use xlink:href="#DejaVuSans-31"/>
       <use xlink:href="#DejaVuSans-30" x="63.623047"/>
       <use xlink:href="#DejaVuSans-30" x="127.246094"/>
       <use xlink:href="#DejaVuSans-30" x="190.869141"/>
       <use xlink:href="#DejaVuSans-30" x="254.492188"/>
      </g>
     </g>
    </g>
    <g id="xtick_3">
     <g id="line2d_3">
      <g>
       <use xlink:href="#mb372e92b62" x="178.556453" y="162.432" style="stroke: #000000; stroke-width: 0.8"/>
      </g>
     </g>
     <g id="text_3">
      <!-- 20000 -->
      <g transform="translate(162.650203 177.030437)scale(0.1 -0.1)">
       <defs>
        <path id="DejaVuSans-32" d="M 1228 531 
L 3431 531 
L 3431 0 
L 469 0 
L 469 531 
Q 828 903 1448 1529 
Q 2069 2156 2228 2338 
Q 2531 2678 2651 2914 
Q 2772 3150 2772 3378 
Q 2772 3750 2511 3984 
Q 2250 4219 1831 4219 
Q 1534 4219 1204 4116 
Q 875 4013 500 3803 
L 500 4441 
Q 881 4594 1212 4672 
Q 1544 4750 1819 4750 
Q 2544 4750 2975 4387 
Q 3406 4025 3406 3419 
Q 3406 3131 3298 2873 
Q 3191 2616 2906 2266 
Q 2828 2175 2409 1742 
Q 1991 1309 1228 531 
z
" transform="scale(0.015625)"/>
       </defs>
       <use xlink:href="#DejaVuSans-32"/>
       <use xlink:href="#DejaVuSans-30" x="63.623047"/>
       <use xlink:href="#DejaVuSans-30" x="127.246094"/>
       <use xlink:href="#DejaVuSans-30" x="190.869141"/>
       <use xlink:href="#DejaVuSans-30" x="254.492188"/>
      </g>
     </g>
    </g>
    <g id="xtick_4">
     <g id="line2d_4">
      <g>
       <use xlink:href="#mb372e92b62" x="230.920934" y="162.432" style="stroke: #000000; stroke-width: 0.8"/>
      </g>
     </g>
     <g id="text_4">
      <!-- 30000 -->
      <g transform="translate(215.014684 177.030437)scale(0.1 -0.1)">
       <defs>
        <path id="DejaVuSans-33" d="M 2597 2516 
Q 3050 2419 3304 2112 
Q 3559 1806 3559 1356 
Q 3559 666 3084 287 
Q 2609 -91 1734 -91 
Q 1441 -91 1130 -33 
Q 819 25 488 141 
L 488 750 
Q 750 597 1062 519 
Q 1375 441 1716 441 
Q 2309 441 2620 675 
Q 2931 909 2931 1356 
Q 2931 1769 2642 2001 
Q 2353 2234 1838 2234 
L 1294 2234 
L 1294 2753 
L 1863 2753 
Q 2328 2753 2575 2939 
Q 2822 3125 2822 3475 
Q 2822 3834 2567 4026 
Q 2313 4219 1838 4219 
Q 1578 4219 1281 4162 
Q 984 4106 628 3988 
L 628 4550 
Q 988 4650 1302 4700 
Q 1616 4750 1894 4750 
Q 2613 4750 3031 4423 
Q 3450 4097 3450 3541 
Q 3450 3153 3228 2886 
Q 3006 2619 2597 2516 
z
" transform="scale(0.015625)"/>
       </defs>
       <use xlink:href="#DejaVuSans-33"/>
       <use xlink:href="#DejaVuSans-30" x="63.623047"/>
       <use xlink:href="#DejaVuSans-30" x="127.246094"/>
       <use xlink:href="#DejaVuSans-30" x="190.869141"/>
       <use xlink:href="#DejaVuSans-30" x="254.492188"/>
      </g>
     </g>
    </g>
    <g id="xtick_5">
     <g id="line2d_5">
      <g>
       <use xlink:href="#mb372e92b62" x="283.285415" y="162.432" style="stroke: #000000; stroke-width: 0.8"/>
      </g>
     </g>
     <g id="text_5">
      <!-- 40000 -->
      <g transform="translate(267.379165 177.030437)scale(0.1 -0.1)">
       <defs>
        <path id="DejaVuSans-34" d="M 2419 4116 
L 825 1625 
L 2419 1625 
L 2419 4116 
z
M 2253 4666 
L 3047 4666 
L 3047 1625 
L 3713 1625 
L 3713 1100 
L 3047 1100 
L 3047 0 
L 2419 0 
L 2419 1100 
L 313 1100 
L 313 1709 
L 2253 4666 
z
" transform="scale(0.015625)"/>
       </defs>
       <use xlink:href="#DejaVuSans-34"/>
       <use xlink:href="#DejaVuSans-30" x="63.623047"/>
       <use xlink:href="#DejaVuSans-30" x="127.246094"/>
       <use xlink:href="#DejaVuSans-30" x="190.869141"/>
       <use xlink:href="#DejaVuSans-30" x="254.492188"/>
      </g>
     </g>
    </g>
    <g id="xtick_6">
     <g id="line2d_6">
      <g>
       <use xlink:href="#mb372e92b62" x="335.649896" y="162.432" style="stroke: #000000; stroke-width: 0.8"/>
      </g>
     </g>
     <g id="text_6">
      <!-- 50000 -->
      <g transform="translate(319.743646 177.030437)scale(0.1 -0.1)">
       <defs>
        <path id="DejaVuSans-35" d="M 691 4666 
L 3169 4666 
L 3169 4134 
L 1269 4134 
L 1269 2991 
Q 1406 3038 1543 3061 
Q 1681 3084 1819 3084 
Q 2600 3084 3056 2656 
Q 3513 2228 3513 1497 
Q 3513 744 3044 326 
Q 2575 -91 1722 -91 
Q 1428 -91 1123 -41 
Q 819 9 494 109 
L 494 744 
Q 775 591 1075 516 
Q 1375 441 1709 441 
Q 2250 441 2565 725 
Q 2881 1009 2881 1497 
Q 2881 1984 2565 2268 
Q 2250 2553 1709 2553 
Q 1456 2553 1204 2497 
Q 953 2441 691 2322 
L 691 4666 
z
" transform="scale(0.015625)"/>
       </defs>
       <use xlink:href="#DejaVuSans-35"/>
       <use xlink:href="#DejaVuSans-30" x="63.623047"/>
       <use xlink:href="#DejaVuSans-30" x="127.246094"/>
       <use xlink:href="#DejaVuSans-30" x="190.869141"/>
       <use xlink:href="#DejaVuSans-30" x="254.492188"/>
      </g>
     </g>
    </g>
    <g id="xtick_7">
     <g id="line2d_7">
      <g>
       <use xlink:href="#mb372e92b62" x="388.014377" y="162.432" style="stroke: #000000; stroke-width: 0.8"/>
      </g>
     </g>
     <g id="text_7">
      <!-- 60000 -->
      <g transform="translate(372.108127 177.030437)scale(0.1 -0.1)">
       <defs>
        <path id="DejaVuSans-36" d="M 2113 2584 
Q 1688 2584 1439 2293 
Q 1191 2003 1191 1497 
Q 1191 994 1439 701 
Q 1688 409 2113 409 
Q 2538 409 2786 701 
Q 3034 994 3034 1497 
Q 3034 2003 2786 2293 
Q 2538 2584 2113 2584 
z
M 3366 4563 
L 3366 3988 
Q 3128 4100 2886 4159 
Q 2644 4219 2406 4219 
Q 1781 4219 1451 3797 
Q 1122 3375 1075 2522 
Q 1259 2794 1537 2939 
Q 1816 3084 2150 3084 
Q 2853 3084 3261 2657 
Q 3669 2231 3669 1497 
Q 3669 778 3244 343 
Q 2819 -91 2113 -91 
Q 1303 -91 875 529 
Q 447 1150 447 2328 
Q 447 3434 972 4092 
Q 1497 4750 2381 4750 
Q 2619 4750 2861 4703 
Q 3103 4656 3366 4563 
z
" transform="scale(0.015625)"/>
       </defs>
       <use xlink:href="#DejaVuSans-36"/>
       <use xlink:href="#DejaVuSans-30" x="63.623047"/>
       <use xlink:href="#DejaVuSans-30" x="127.246094"/>
       <use xlink:href="#DejaVuSans-30" x="190.869141"/>
       <use xlink:href="#DejaVuSans-30" x="254.492188"/>
      </g>
     </g>
    </g>
   </g>
   <g id="matplotlib.axis_2">
    <g id="ytick_1">
     <g id="line2d_8">
      <defs>
       <path id="m3201415419" d="M 0 0 
L -3.5 0 
" style="stroke: #000000; stroke-width: 0.8"/>
      </defs>
      <g>
       <use xlink:href="#m3201415419" x="57.6" y="138.085324" style="stroke: #000000; stroke-width: 0.8"/>
      </g>
     </g>
     <g id="text_8">
      <!-- 70 -->
      <g transform="translate(37.875 141.884543)scale(0.1 -0.1)">
       <defs>
        <path id="DejaVuSans-37" d="M 525 4666 
L 3525 4666 
L 3525 4397 
L 1831 0 
L 1172 0 
L 2766 4134 
L 525 4134 
L 525 4666 
z
" transform="scale(0.015625)"/>
       </defs>
       <use xlink:href="#DejaVuSans-37"/>
       <use xlink:href="#DejaVuSans-30" x="63.623047"/>
      </g>
     </g>
    </g>
    <g id="ytick_2">
     <g id="line2d_9">
      <g>
       <use xlink:href="#m3201415419" x="57.6" y="112.728605" style="stroke: #000000; stroke-width: 0.8"/>
      </g>
     </g>
     <g id="text_9">
      <!-- 80 -->
      <g transform="translate(37.875 116.527824)scale(0.1 -0.1)">
       <defs>
        <path id="DejaVuSans-38" d="M 2034 2216 
Q 1584 2216 1326 1975 
Q 1069 1734 1069 1313 
Q 1069 891 1326 650 
Q 1584 409 2034 409 
Q 2484 409 2743 651 
Q 3003 894 3003 1313 
Q 3003 1734 2745 1975 
Q 2488 2216 2034 2216 
z
M 1403 2484 
Q 997 2584 770 2862 
Q 544 3141 544 3541 
Q 544 4100 942 4425 
Q 1341 4750 2034 4750 
Q 2731 4750 3128 4425 
Q 3525 4100 3525 3541 
Q 3525 3141 3298 2862 
Q 3072 2584 2669 2484 
Q 3125 2378 3379 2068 
Q 3634 1759 3634 1313 
Q 3634 634 3220 271 
Q 2806 -91 2034 -91 
Q 1263 -91 848 271 
Q 434 634 434 1313 
Q 434 1759 690 2068 
Q 947 2378 1403 2484 
z
M 1172 3481 
Q 1172 3119 1398 2916 
Q 1625 2713 2034 2713 
Q 2441 2713 2670 2916 
Q 2900 3119 2900 3481 
Q 2900 3844 2670 4047 
Q 2441 4250 2034 4250 
Q 1625 4250 1398 4047 
Q 1172 3844 1172 3481 
z
" transform="scale(0.015625)"/>
       </defs>
       <use xlink:href="#DejaVuSans-38"/>
       <use xlink:href="#DejaVuSans-30" x="63.623047"/>
      </g>
     </g>
    </g>
    <g id="ytick_3">
     <g id="line2d_10">
      <g>
       <use xlink:href="#m3201415419" x="57.6" y="87.371887" style="stroke: #000000; stroke-width: 0.8"/>
      </g>
     </g>
     <g id="text_10">
      <!-- 90 -->
      <g transform="translate(37.875 91.171106)scale(0.1 -0.1)">
       <defs>
        <path id="DejaVuSans-39" d="M 703 97 
L 703 672 
Q 941 559 1184 500 
Q 1428 441 1663 441 
Q 2288 441 2617 861 
Q 2947 1281 2994 2138 
Q 2813 1869 2534 1725 
Q 2256 1581 1919 1581 
Q 1219 1581 811 2004 
Q 403 2428 403 3163 
Q 403 3881 828 4315 
Q 1253 4750 1959 4750 
Q 2769 4750 3195 4129 
Q 3622 3509 3622 2328 
Q 3622 1225 3098 567 
Q 2575 -91 1691 -91 
Q 1453 -91 1209 -44 
Q 966 3 703 97 
z
M 1959 2075 
Q 2384 2075 2632 2365 
Q 2881 2656 2881 3163 
Q 2881 3666 2632 3958 
Q 2384 4250 1959 4250 
Q 1534 4250 1286 3958 
Q 1038 3666 1038 3163 
Q 1038 2656 1286 2365 
Q 1534 2075 1959 2075 
z
" transform="scale(0.015625)"/>
       </defs>
       <use xlink:href="#DejaVuSans-39"/>
       <use xlink:href="#DejaVuSans-30" x="63.623047"/>
      </g>
     </g>
    </g>
    <g id="ytick_4">
     <g id="line2d_11">
      <g>
       <use xlink:href="#m3201415419" x="57.6" y="62.015168" style="stroke: #000000; stroke-width: 0.8"/>
      </g>
     </g>
     <g id="text_11">
      <!-- 100 -->
      <g transform="translate(31.5125 65.814387)scale(0.1 -0.1)">
       <use xlink:href="#DejaVuSans-31"/>
       <use xlink:href="#DejaVuSans-30" x="63.623047"/>
       <use xlink:href="#DejaVuSans-30" x="127.246094"/>
      </g>
     </g>
    </g>
   </g>
   <g id="line2d_12">
    <path d="M 73.832727 64.55084 
L 73.837964 64.55084 
L 73.989821 84.624909 
L 74.00553 84.624909 
L 74.136441 94.767596 
L 74.199279 94.767596 
L 74.31448 98.993716 
L 74.576303 98.993716 
L 74.691505 98.571104 
L 74.775288 98.571104 
L 74.900963 106.17812 
L 75.178494 106.17812 
L 75.293696 108.713792 
L 75.796395 108.713792 
L 75.911597 111.249463 
L 76.0844 111.249463 
L 76.199602 113.785135 
L 76.503316 113.785135 
L 76.618518 116.320807 
L 77.51395 116.320807 
L 77.629152 118.856479 
L 79.545692 118.856479 
L 79.660894 121.392151 
L 80.252613 121.392151 
L 80.367814 123.927823 
L 82.258172 123.927823 
L 82.373374 126.463495 
L 90.191391 126.463495 
L 90.306593 128.999167 
L 94.338658 128.999167 
L 94.45386 131.534838 
L 98.485925 131.534838 
L 98.601127 130.689614 
L 99.030516 130.689614 
L 99.145717 133.225286 
L 99.737436 133.225286 
L 99.852638 135.760958 
L 117.36332 135.760958 
L 117.478522 138.29663 
L 147.640463 138.29663 
L 147.755665 140.832302 
L 154.254097 140.832302 
L 154.369299 143.367974 
L 184.552186 143.367974 
L 184.667388 142.734056 
L 200.968451 142.734056 
L 201.083652 145.269728 
L 224.904255 145.269728 
L 225.019457 144.63581 
L 242.451592 144.63581 
L 242.566794 147.171482 
L 283.034065 147.171482 
L 283.149267 146.664347 
L 293.527907 146.664347 
L 293.643109 149.200019 
L 370.367546 149.200019 
L 370.482748 151.735691 
L 398.487273 151.735691 
L 398.487273 151.735691 
" clip-path="url(#pc81f3f7ae3)" style="fill: none; stroke: #1f77b4; stroke-width: 1.5; stroke-linecap: square"/>
   </g>
   <g id="line2d_13">
    <path d="M 73.832727 62.015168 
L 73.837964 62.015168 
L 73.947929 74.693527 
L 73.968875 73.848304 
L 73.979348 73.214386 
L 74.00553 78.285729 
L 74.036949 77.440505 
L 74.157387 84.413603 
L 74.199279 84.413603 
L 74.319717 88.977812 
L 74.382554 88.977812 
L 74.466337 94.049156 
L 74.502993 93.542022 
L 74.576303 93.542022 
L 74.691505 93.11941 
L 74.696741 93.11941 
L 74.811943 96.289 
L 75.649775 96.289 
L 75.764977 95.655082 
L 75.796395 95.655082 
L 75.916834 100.726425 
L 76.0844 100.726425 
L 76.199602 99.458589 
L 76.398587 99.458589 
L 76.503316 98.613365 
L 76.618518 101.149037 
L 77.51395 101.149037 
L 77.524423 103.684709 
L 77.623916 102.416873 
L 79.320525 102.416873 
L 79.435727 101.909739 
L 79.535219 101.909739 
L 79.545692 101.064515 
L 79.550929 103.600187 
L 79.634712 103.600187 
L 79.880825 103.600187 
L 79.996027 106.135859 
L 80.252613 106.135859 
L 80.367814 108.67153 
L 81.551252 108.67153 
L 81.666454 108.164396 
L 82.258172 108.164396 
L 82.373374 107.319172 
L 85.436696 107.319172 
L 85.551898 106.051336 
L 86.630606 106.051336 
L 86.745808 108.587008 
L 89.494944 108.587008 
L 89.531599 107.95309 
L 89.536835 110.488762 
L 89.5892 110.488762 
L 90.191391 110.488762 
L 90.306593 109.643538 
L 90.950676 109.643538 
L 90.997804 112.17921 
L 91.060642 111.333986 
L 93.98258 111.333986 
L 94.097781 113.869658 
L 99.030516 113.869658 
L 99.145717 116.40533 
L 99.737436 116.40533 
L 99.852638 118.941001 
L 117.36332 118.941001 
L 117.478522 118.307084 
L 147.640463 118.307084 
L 147.755665 117.673166 
L 154.254097 117.673166 
L 154.369299 120.208837 
L 200.968451 120.208837 
L 201.083652 122.744509 
L 224.904255 122.744509 
L 225.019457 122.110591 
L 242.451592 122.110591 
L 242.566794 124.646263 
L 270.953579 124.646263 
L 271.068781 123.378427 
L 293.527907 123.378427 
L 293.643109 125.914099 
L 356.035388 125.914099 
L 356.15059 125.406965 
L 370.367546 125.406965 
L 370.482748 124.561741 
L 372.524963 124.561741 
L 372.640165 127.097413 
L 398.487273 127.097413 
L 398.487273 127.097413 
" clip-path="url(#pc81f3f7ae3)" style="fill: none; stroke: #ff7f0e; stroke-width: 1.5; stroke-linecap: square"/>
   </g>
   <g id="line2d_14">
    <path d="M 73.832727 64.55084 
L 73.837964 64.55084 
L 73.979348 83.145767 
L 73.984584 82.638633 
L 73.995057 82.638633 
L 74.00553 81.286274 
L 74.026476 86.357618 
L 74.07884 85.089782 
L 74.105023 85.089782 
L 74.152151 87.625454 
L 74.214988 86.146312 
L 74.288298 86.146312 
L 74.413973 83.61064 
L 74.576303 83.61064 
L 74.691505 86.146312 
L 74.696741 86.146312 
L 74.775288 85.301088 
L 74.780524 87.83676 
L 74.790997 87.83676 
L 74.80147 90.372432 
L 74.900963 89.738514 
L 75.796395 89.738514 
L 75.911597 88.259372 
L 76.0844 88.259372 
L 76.199602 90.795044 
L 76.398587 90.795044 
L 76.503316 93.330716 
L 76.508552 92.485492 
L 77.51395 92.485492 
L 77.524423 91.851574 
L 77.52966 94.387246 
L 77.608206 94.387246 
L 79.535219 94.387246 
L 79.545692 96.922917 
L 79.645185 96.077694 
L 79.880825 96.077694 
L 79.996027 95.23247 
L 80.252613 95.23247 
L 80.367814 94.387246 
L 82.258172 94.387246 
L 82.373374 96.922917 
L 85.436696 96.922917 
L 85.551898 99.458589 
L 86.630606 99.458589 
L 86.745808 98.613365 
L 89.494944 98.613365 
L 89.531599 101.149037 
L 89.604909 100.303813 
L 90.191391 100.303813 
L 90.306593 102.839485 
L 90.950676 102.839485 
L 90.997804 102.205567 
L 91.003041 104.741239 
L 91.044932 104.741239 
L 93.98258 104.741239 
L 94.097781 103.896015 
L 99.030516 103.896015 
L 99.145717 103.262097 
L 99.737436 103.262097 
L 99.852638 102.416873 
L 117.36332 102.416873 
L 117.478522 104.952545 
L 147.640463 104.952545 
L 147.755665 107.488217 
L 154.254097 107.488217 
L 154.369299 106.642993 
L 200.968451 106.642993 
L 201.083652 105.797769 
L 224.904255 105.797769 
L 225.019457 108.333441 
L 242.451592 108.333441 
L 242.566794 107.488217 
L 270.953579 107.488217 
L 271.068781 110.023889 
L 293.527907 110.023889 
L 293.643109 109.178665 
L 370.367546 109.178665 
L 370.482748 111.714337 
L 372.524963 111.714337 
L 372.640165 110.869113 
L 398.487273 110.869113 
L 398.487273 110.869113 
" clip-path="url(#pc81f3f7ae3)" style="fill: none; stroke: #2ca02c; stroke-width: 1.5; stroke-linecap: square"/>
   </g>
   <g id="line2d_15">
    <path d="M 73.832727 62.015168 
L 73.837964 62.015168 
L 73.853673 61.38125 
L 73.895565 68.354348 
L 73.968875 68.354348 
L 73.979348 73.425692 
L 74.084077 71.777505 
L 74.790997 71.777505 
L 74.906199 74.313177 
L 76.398587 74.313177 
L 76.513789 76.848849 
L 79.535219 76.848849 
L 79.650421 79.38452 
L 82.258172 79.38452 
L 82.373374 81.920192 
L 89.494944 81.920192 
L 89.610145 84.455864 
L 90.191391 84.455864 
L 90.306593 86.991536 
L 90.997804 86.991536 
L 91.113006 89.527208 
L 117.36332 89.527208 
L 117.478522 92.06288 
L 147.640463 92.06288 
L 147.755665 94.598552 
L 270.953579 94.598552 
L 271.068781 97.134223 
L 370.367546 97.134223 
L 370.482748 99.669895 
L 398.487273 99.669895 
L 398.487273 99.669895 
" clip-path="url(#pc81f3f7ae3)" style="fill: none; stroke: #d62728; stroke-width: 1.5; stroke-linecap: square"/>
   </g>
   <g id="line2d_16">
    <path d="M 73.832727 64.55084 
L 73.979348 84.836215 
L 73.984584 84.329081 
L 74.00553 84.329081 
L 74.136441 96.373522 
L 74.162624 96.373522 
L 74.199279 98.909194 
L 74.272589 97.768141 
L 74.283062 97.768141 
L 74.4035 102.839485 
L 74.466337 102.839485 
L 74.47681 102.332351 
L 74.482047 104.868023 
L 74.539648 104.868023 
L 74.576303 107.403695 
L 74.65485 106.981083 
L 74.775288 106.981083 
L 74.89049 111.418508 
L 75.178494 111.418508 
L 75.293696 113.95418 
L 75.827814 113.95418 
L 75.943016 113.320262 
L 76.0844 113.320262 
L 76.199602 115.855934 
L 76.398587 115.855934 
L 76.513789 118.391606 
L 77.51395 118.391606 
L 77.524423 117.757688 
L 77.52966 120.29336 
L 77.608206 120.29336 
L 79.152959 120.29336 
L 79.26816 122.829032 
L 79.320525 122.829032 
L 79.440963 121.687979 
L 79.535219 121.687979 
L 79.650421 124.223651 
L 81.237065 124.223651 
L 81.352267 126.759323 
L 81.551252 126.759323 
L 81.666454 126.252189 
L 82.258172 126.252189 
L 82.373374 128.787861 
L 85.436696 128.787861 
L 85.551898 131.323532 
L 90.191391 131.323532 
L 90.306593 133.859204 
L 90.950676 133.859204 
L 90.997804 133.225286 
L 91.003041 135.760958 
L 91.044932 135.760958 
L 94.338658 135.760958 
L 94.45386 138.29663 
L 98.485925 138.29663 
L 98.601127 140.832302 
L 99.030516 140.832302 
L 99.145717 140.198384 
L 154.159841 140.198384 
L 154.275043 142.734056 
L 197.748035 142.734056 
L 197.863237 145.269728 
L 224.904255 145.269728 
L 225.019457 147.805399 
L 270.953579 147.805399 
L 271.068781 150.341071 
L 283.034065 150.341071 
L 283.149267 149.833937 
L 314.615084 149.833937 
L 314.730285 152.369609 
L 356.035388 152.369609 
L 356.15059 151.862474 
L 370.367546 151.862474 
L 370.482748 154.398146 
L 391.245265 154.398146 
L 391.360467 156.933818 
L 398.487273 156.933818 
L 398.487273 156.933818 
" clip-path="url(#pc81f3f7ae3)" style="fill: none; stroke: #9467bd; stroke-width: 1.5; stroke-linecap: square"/>
   </g>
   <g id="line2d_17">
    <path d="M 73.832727 64.55084 
L 73.8432 64.55084 
L 73.989821 82.300543 
L 73.995057 82.300543 
L 74.115495 87.371887 
L 74.131205 87.371887 
L 74.251643 92.443231 
L 74.466337 92.443231 
L 74.586776 97.514574 
L 74.790997 97.514574 
L 74.906199 100.050246 
L 75.649775 100.050246 
L 75.764977 102.585918 
L 79.320525 102.585918 
L 79.440963 107.657262 
L 81.551252 107.657262 
L 81.666454 110.192934 
L 89.494944 110.192934 
L 89.610145 112.728605 
L 117.36332 112.728605 
L 117.478522 115.264277 
L 147.640463 115.264277 
L 147.755665 117.799949 
L 184.552186 117.799949 
L 184.667388 120.335621 
L 283.034065 120.335621 
L 283.149267 122.871293 
L 356.035388 122.871293 
L 356.15059 125.406965 
L 398.487273 125.406965 
L 398.487273 125.406965 
" clip-path="url(#pc81f3f7ae3)" style="fill: none; stroke: #8c564b; stroke-width: 1.5; stroke-linecap: square"/>
   </g>
   <g id="line2d_18">
    <path d="M 73.832727 64.55084 
L 73.958402 78.497035 
L 73.968875 77.651811 
L 73.974111 77.017893 
L 74.031712 82.765416 
L 74.042185 82.131498 
L 74.073604 82.131498 
L 74.110259 80.863662 
L 74.131205 85.935006 
L 74.162624 84.244558 
L 74.199279 86.78023 
L 74.272589 85.639178 
L 74.283062 85.639178 
L 74.382554 89.865297 
L 74.398264 88.17485 
L 74.466337 88.17485 
L 74.47681 87.667715 
L 74.482047 90.203387 
L 74.539648 90.203387 
L 74.576303 92.739059 
L 74.65485 92.316447 
L 74.696741 92.316447 
L 74.806707 90.203387 
L 74.921908 92.739059 
L 75.178494 92.739059 
L 75.293696 95.274731 
L 75.649775 95.274731 
L 75.764977 94.640813 
L 75.796395 94.640813 
L 75.911597 93.161671 
L 76.398587 93.161671 
L 76.503316 95.697343 
L 76.508552 94.852119 
L 77.51395 94.852119 
L 77.629152 94.218201 
L 79.152959 94.218201 
L 79.26816 96.753873 
L 79.320525 96.753873 
L 79.440963 95.61282 
L 79.535219 95.61282 
L 79.545692 98.148492 
L 79.645185 97.303268 
L 79.880825 97.303268 
L 79.996027 96.458044 
L 80.252613 96.458044 
L 80.367814 95.61282 
L 81.237065 95.61282 
L 81.352267 98.148492 
L 81.551252 98.148492 
L 81.666454 97.641358 
L 82.258172 97.641358 
L 82.373374 100.17703 
L 86.630606 100.17703 
L 86.745808 99.331806 
L 89.494944 99.331806 
L 89.615382 97.852664 
L 90.191391 97.852664 
L 90.306593 100.388336 
L 90.950676 100.388336 
L 90.997804 99.754418 
L 91.003041 102.29009 
L 91.044932 102.29009 
L 93.98258 102.29009 
L 94.097781 101.444866 
L 94.338658 101.444866 
L 94.45386 103.980537 
L 98.485925 103.980537 
L 98.601127 106.516209 
L 99.030516 106.516209 
L 99.145717 105.882291 
L 99.737436 105.882291 
L 99.852638 105.037067 
L 117.36332 105.037067 
L 117.478522 104.403149 
L 147.640463 104.403149 
L 147.755665 103.769232 
L 154.159841 103.769232 
L 154.254097 106.304903 
L 154.269806 105.459679 
L 184.552186 105.459679 
L 184.667388 104.825761 
L 197.748035 104.825761 
L 197.863237 107.361433 
L 200.968451 107.361433 
L 201.083652 106.516209 
L 224.904255 106.516209 
L 225.019457 109.051881 
L 242.451592 109.051881 
L 242.566794 108.206657 
L 283.034065 108.206657 
L 283.149267 107.699523 
L 293.527907 107.699523 
L 293.643109 106.854299 
L 314.615084 106.854299 
L 314.730285 109.389971 
L 356.035388 109.389971 
L 356.15059 108.882836 
L 370.367546 108.882836 
L 370.482748 111.418508 
L 372.524963 111.418508 
L 372.640165 110.573284 
L 391.245265 110.573284 
L 391.360467 113.108956 
L 398.487273 113.108956 
L 398.487273 113.108956 
" clip-path="url(#pc81f3f7ae3)" style="fill: none; stroke: #e377c2; stroke-width: 1.5; stroke-linecap: square"/>
   </g>
   <g id="line2d_19">
    <path d="M 73.832727 61.508034 
L 73.8432 60.240198 
L 73.895565 71.016803 
L 73.900801 71.016803 
L 73.906038 71.016803 
L 73.958402 66.156766 
L 74.000294 72.495945 
L 74.010767 72.495945 
L 74.021239 72.495945 
L 74.09455 70.382885 
L 74.110259 75.454229 
L 74.120732 74.186393 
L 74.125968 74.186393 
L 74.131205 72.918557 
L 74.209752 76.722065 
L 74.225461 76.722065 
L 74.283062 76.722065 
L 74.4035 74.609005 
L 74.466337 74.609005 
L 74.581539 77.144677 
L 74.790997 77.144677 
L 74.806707 79.680349 
L 74.900963 78.412513 
L 75.178494 78.412513 
L 75.293696 77.144677 
L 75.649775 77.144677 
L 75.764977 79.680349 
L 76.0844 79.680349 
L 76.199602 82.216021 
L 76.398587 82.216021 
L 76.513789 81.370797 
L 77.524423 81.370797 
L 77.639625 83.906469 
L 79.152959 83.906469 
L 79.26816 82.638633 
L 79.320525 82.638633 
L 79.440963 87.709976 
L 79.535219 87.709976 
L 79.650421 86.864752 
L 81.237065 86.864752 
L 81.352267 85.596916 
L 81.551252 85.596916 
L 81.666454 88.132588 
L 82.258172 88.132588 
L 82.373374 87.287364 
L 89.494944 87.287364 
L 89.610145 89.823036 
L 90.191391 89.823036 
L 90.306593 88.977812 
L 90.997804 88.977812 
L 91.113006 88.132588 
L 94.338658 88.132588 
L 94.45386 86.864752 
L 98.485925 86.864752 
L 98.601127 86.019528 
L 117.36332 86.019528 
L 117.478522 88.5552 
L 147.640463 88.5552 
L 147.755665 91.090872 
L 154.159841 91.090872 
L 154.275043 89.823036 
L 184.552186 89.823036 
L 184.667388 92.358708 
L 197.748035 92.358708 
L 197.863237 91.090872 
L 224.904255 91.090872 
L 225.019457 90.456954 
L 270.953579 90.456954 
L 271.068781 92.992626 
L 283.034065 92.992626 
L 283.149267 95.528298 
L 314.615084 95.528298 
L 314.730285 94.260462 
L 356.035388 94.260462 
L 356.15059 96.796134 
L 370.367546 96.796134 
L 370.482748 95.95091 
L 391.245265 95.95091 
L 391.360467 94.683074 
L 398.487273 94.683074 
L 398.487273 94.683074 
" clip-path="url(#pc81f3f7ae3)" style="fill: none; stroke: #7f7f7f; stroke-width: 1.5; stroke-linecap: square"/>
   </g>
   <g id="line2d_20">
    <path d="M 73.832727 61.508034 
L 73.958402 72.918557 
L 73.963638 72.073333 
L 73.968875 72.073333 
L 73.974111 71.439415 
L 74.031712 77.186938 
L 74.042185 76.55302 
L 74.073604 76.55302 
L 74.110259 75.285184 
L 74.131205 80.356528 
L 74.162624 78.66608 
L 74.199279 81.201752 
L 74.272589 80.0607 
L 74.283062 80.0607 
L 74.382554 84.286819 
L 74.398264 82.596371 
L 74.466337 82.596371 
L 74.47681 82.089237 
L 74.482047 84.624909 
L 74.539648 84.624909 
L 74.576303 87.160581 
L 74.65485 86.737969 
L 74.696741 86.737969 
L 74.806707 84.624909 
L 74.921908 87.160581 
L 75.178494 87.160581 
L 75.293696 89.696253 
L 75.649775 89.696253 
L 75.764977 89.062335 
L 75.796395 89.062335 
L 75.911597 87.583193 
L 76.398587 87.583193 
L 76.503316 90.118865 
L 76.508552 89.273641 
L 77.51395 89.273641 
L 77.629152 88.639723 
L 79.152959 88.639723 
L 79.26816 91.175395 
L 79.320525 91.175395 
L 79.440963 90.034342 
L 79.535219 90.034342 
L 79.545692 92.570014 
L 79.645185 91.72479 
L 79.880825 91.72479 
L 79.996027 90.879566 
L 80.252613 90.879566 
L 80.367814 90.034342 
L 81.237065 90.034342 
L 81.352267 92.570014 
L 81.551252 92.570014 
L 81.666454 92.06288 
L 82.258172 92.06288 
L 82.373374 94.598552 
L 86.630606 94.598552 
L 86.745808 93.753328 
L 89.494944 93.753328 
L 89.615382 92.274186 
L 90.191391 92.274186 
L 90.306593 94.809858 
L 90.950676 94.809858 
L 90.997804 94.17594 
L 91.003041 96.711611 
L 91.044932 96.711611 
L 93.98258 96.711611 
L 94.097781 95.866388 
L 94.338658 95.866388 
L 94.45386 98.402059 
L 98.485925 98.402059 
L 98.601127 100.937731 
L 99.030516 100.937731 
L 99.145717 100.303813 
L 99.737436 100.303813 
L 99.852638 99.458589 
L 117.36332 99.458589 
L 117.478522 98.824671 
L 147.640463 98.824671 
L 147.755665 98.190753 
L 154.159841 98.190753 
L 154.254097 100.726425 
L 154.269806 99.881201 
L 184.552186 99.881201 
L 184.667388 99.247283 
L 197.748035 99.247283 
L 197.863237 101.782955 
L 200.968451 101.782955 
L 201.083652 100.937731 
L 224.904255 100.937731 
L 225.019457 103.473403 
L 242.451592 103.473403 
L 242.566794 102.628179 
L 283.034065 102.628179 
L 283.149267 102.121045 
L 293.527907 102.121045 
L 293.643109 101.275821 
L 314.615084 101.275821 
L 314.730285 103.811493 
L 356.035388 103.811493 
L 356.15059 103.304358 
L 370.367546 103.304358 
L 370.482748 105.84003 
L 372.524963 105.84003 
L 372.640165 104.994806 
L 391.245265 104.994806 
L 391.360467 107.530478 
L 398.487273 107.530478 
L 398.487273 107.530478 
" clip-path="url(#pc81f3f7ae3)" style="fill: none; stroke: #bcbd22; stroke-width: 1.5; stroke-linecap: square"/>
   </g>
   <g id="line2d_21">
    <path d="M 73.832727 61.508034 
L 73.8432 59.60628 
L 73.895565 69.537661 
L 73.911274 68.269825 
L 73.921747 68.269825 
L 73.958402 64.677624 
L 74.000294 71.016803 
L 74.042185 66.368072 
L 74.09455 66.368072 
L 74.214988 72.707251 
L 74.283062 72.707251 
L 74.4035 70.594191 
L 74.466337 70.594191 
L 74.581539 73.129863 
L 74.775288 73.129863 
L 74.790997 71.862027 
L 74.796234 74.397699 
L 74.885253 73.129863 
L 75.178494 73.129863 
L 75.293696 71.862027 
L 75.649775 71.862027 
L 75.764977 74.397699 
L 76.0844 74.397699 
L 76.199602 73.129863 
L 76.398587 73.129863 
L 76.513789 72.284639 
L 77.524423 72.284639 
L 77.639625 71.016803 
L 79.152959 71.016803 
L 79.26816 69.748967 
L 79.320525 69.748967 
L 79.440963 74.820311 
L 79.535219 74.820311 
L 79.650421 73.975087 
L 81.237065 73.975087 
L 81.352267 72.707251 
L 81.551252 72.707251 
L 81.666454 75.242923 
L 82.258172 75.242923 
L 82.373374 74.397699 
L 85.436696 74.397699 
L 85.551898 73.129863 
L 89.494944 73.129863 
L 89.610145 75.665535 
L 90.191391 75.665535 
L 90.306593 74.820311 
L 90.997804 74.820311 
L 91.113006 73.975087 
L 94.338658 73.975087 
L 94.45386 72.707251 
L 98.485925 72.707251 
L 98.601127 71.862027 
L 117.36332 71.862027 
L 117.478522 74.397699 
L 147.640463 74.397699 
L 147.755665 76.933371 
L 154.159841 76.933371 
L 154.275043 75.665535 
L 184.552186 75.665535 
L 184.667388 78.201207 
L 197.748035 78.201207 
L 197.863237 76.933371 
L 224.904255 76.933371 
L 225.019457 76.299453 
L 270.953579 76.299453 
L 271.068781 75.031617 
L 283.034065 75.031617 
L 283.149267 77.567289 
L 314.615084 77.567289 
L 314.730285 76.299453 
L 356.035388 76.299453 
L 356.15059 78.835125 
L 370.367546 78.835125 
L 370.482748 77.989901 
L 391.245265 77.989901 
L 391.360467 76.722065 
L 398.487273 76.722065 
L 398.487273 76.722065 
" clip-path="url(#pc81f3f7ae3)" style="fill: none; stroke: #17becf; stroke-width: 1.5; stroke-linecap: square"/>
   </g>
   <g id="line2d_22">
    <path d="M 73.832727 61.508034 
L 73.8432 61.508034 
L 73.989821 56.859302 
L 73.995057 56.859302 
L 74.115495 55.71825 
L 74.131205 55.71825 
L 74.246407 54.365891 
L 74.466337 54.365891 
L 74.586776 53.436145 
L 74.790997 53.436145 
L 74.906199 52.802227 
L 75.649775 52.802227 
L 75.764977 52.168309 
L 79.320525 52.168309 
L 79.440963 51.027257 
L 81.551252 51.027257 
L 81.666454 50.520122 
L 89.494944 50.520122 
L 89.610145 49.886204 
L 117.36332 49.886204 
L 117.478522 49.252286 
L 147.640463 49.252286 
L 147.755665 48.618369 
L 184.552186 48.618369 
L 184.667388 47.984451 
L 283.034065 47.984451 
L 283.149267 47.477316 
L 356.035388 47.477316 
L 356.15059 46.970182 
L 398.487273 46.970182 
L 398.487273 46.970182 
" clip-path="url(#pc81f3f7ae3)" style="fill: none; stroke: #1f77b4; stroke-width: 1.5; stroke-linecap: square"/>
   </g>
   <g id="line2d_23">
    <path d="M 73.832727 61.508034 
L 73.848437 61.508034 
L 73.963638 58.338444 
L 73.995057 58.338444 
L 74.105023 63.409788 
L 74.110259 60.874116 
L 74.204515 60.874116 
L 74.319717 63.409788 
L 74.466337 63.409788 
L 74.581539 65.94546 
L 75.649775 65.94546 
L 75.764977 68.481131 
L 79.320525 68.481131 
L 79.435727 71.016803 
L 81.551252 71.016803 
L 81.666454 73.552475 
L 356.035388 73.552475 
L 356.15059 76.088147 
L 398.487273 76.088147 
L 398.487273 76.088147 
" clip-path="url(#pc81f3f7ae3)" style="fill: none; stroke: #ff7f0e; stroke-width: 1.5; stroke-linecap: square"/>
   </g>
   <g id="patch_3">
    <path d="M 57.6 162.432 
L 57.6 41.472 
" style="fill: none; stroke: #000000; stroke-width: 0.8; stroke-linejoin: miter; stroke-linecap: square"/>
   </g>
   <g id="patch_4">
    <path d="M 414.72 162.432 
L 414.72 41.472 
" style="fill: none; stroke: #000000; stroke-width: 0.8; stroke-linejoin: miter; stroke-linecap: square"/>
   </g>
   <g id="patch_5">
    <path d="M 57.6 162.432 
L 414.72 162.432 
" style="fill: none; stroke: #000000; stroke-width: 0.8; stroke-linejoin: miter; stroke-linecap: square"/>
   </g>
   <g id="patch_6">
    <path d="M 57.6 41.472 
L 414.72 41.472 
" style="fill: none; stroke: #000000; stroke-width: 0.8; stroke-linejoin: miter; stroke-linecap: square"/>
   </g>
   <g id="text_12">
    <!-- WSP -->
    <g transform="translate(361.832136 151.735691)scale(0.08 -0.08)">
     <defs>
      <path id="DejaVuSans-57" d="M 213 4666 
L 850 4666 
L 1831 722 
L 2809 4666 
L 3519 4666 
L 4500 722 
L 5478 4666 
L 6119 4666 
L 4947 0 
L 4153 0 
L 3169 4050 
L 2175 0 
L 1381 0 
L 213 4666 
z
" transform="scale(0.015625)"/>
      <path id="DejaVuSans-53" d="M 3425 4513 
L 3425 3897 
Q 3066 4069 2747 4153 
Q 2428 4238 2131 4238 
Q 1616 4238 1336 4038 
Q 1056 3838 1056 3469 
Q 1056 3159 1242 3001 
Q 1428 2844 1947 2747 
L 2328 2669 
Q 3034 2534 3370 2195 
Q 3706 1856 3706 1288 
Q 3706 609 3251 259 
Q 2797 -91 1919 -91 
Q 1588 -91 1214 -16 
Q 841 59 441 206 
L 441 856 
Q 825 641 1194 531 
Q 1563 422 1919 422 
Q 2459 422 2753 634 
Q 3047 847 3047 1241 
Q 3047 1584 2836 1778 
Q 2625 1972 2144 2069 
L 1759 2144 
Q 1053 2284 737 2584 
Q 422 2884 422 3419 
Q 422 4038 858 4394 
Q 1294 4750 2059 4750 
Q 2388 4750 2728 4690 
Q 3069 4631 3425 4513 
z
" transform="scale(0.015625)"/>
      <path id="DejaVuSans-50" d="M 1259 4147 
L 1259 2394 
L 2053 2394 
Q 2494 2394 2734 2622 
Q 2975 2850 2975 3272 
Q 2975 3691 2734 3919 
Q 2494 4147 2053 4147 
L 1259 4147 
z
M 628 4666 
L 2053 4666 
Q 2838 4666 3239 4311 
Q 3641 3956 3641 3272 
Q 3641 2581 3239 2228 
Q 2838 1875 2053 1875 
L 1259 1875 
L 1259 0 
L 628 0 
L 628 4666 
z
" transform="scale(0.015625)"/>
     </defs>
     <use xlink:href="#DejaVuSans-57"/>
     <use xlink:href="#DejaVuSans-53" x="98.876953"/>
     <use xlink:href="#DejaVuSans-50" x="162.353516"/>
    </g>
   </g>
   <g id="text_13">
    <!-- Iambic -->
    <g transform="translate(361.832136 127.097413)scale(0.08 -0.08)">
     <defs>
      <path id="DejaVuSans-49" d="M 628 4666 
L 1259 4666 
L 1259 0 
L 628 0 
L 628 4666 
z
" transform="scale(0.015625)"/>
      <path id="DejaVuSans-61" d="M 2194 1759 
Q 1497 1759 1228 1600 
Q 959 1441 959 1056 
Q 959 750 1161 570 
Q 1363 391 1709 391 
Q 2188 391 2477 730 
Q 2766 1069 2766 1631 
L 2766 1759 
L 2194 1759 
z
M 3341 1997 
L 3341 0 
L 2766 0 
L 2766 531 
Q 2569 213 2275 61 
Q 1981 -91 1556 -91 
Q 1019 -91 701 211 
Q 384 513 384 1019 
Q 384 1609 779 1909 
Q 1175 2209 1959 2209 
L 2766 2209 
L 2766 2266 
Q 2766 2663 2505 2880 
Q 2244 3097 1772 3097 
Q 1472 3097 1187 3025 
Q 903 2953 641 2809 
L 641 3341 
Q 956 3463 1253 3523 
Q 1550 3584 1831 3584 
Q 2591 3584 2966 3190 
Q 3341 2797 3341 1997 
z
" transform="scale(0.015625)"/>
      <path id="DejaVuSans-6d" d="M 3328 2828 
Q 3544 3216 3844 3400 
Q 4144 3584 4550 3584 
Q 5097 3584 5394 3201 
Q 5691 2819 5691 2113 
L 5691 0 
L 5113 0 
L 5113 2094 
Q 5113 2597 4934 2840 
Q 4756 3084 4391 3084 
Q 3944 3084 3684 2787 
Q 3425 2491 3425 1978 
L 3425 0 
L 2847 0 
L 2847 2094 
Q 2847 2600 2669 2842 
Q 2491 3084 2119 3084 
Q 1678 3084 1418 2786 
Q 1159 2488 1159 1978 
L 1159 0 
L 581 0 
L 581 3500 
L 1159 3500 
L 1159 2956 
Q 1356 3278 1631 3431 
Q 1906 3584 2284 3584 
Q 2666 3584 2933 3390 
Q 3200 3197 3328 2828 
z
" transform="scale(0.015625)"/>
      <path id="DejaVuSans-62" d="M 3116 1747 
Q 3116 2381 2855 2742 
Q 2594 3103 2138 3103 
Q 1681 3103 1420 2742 
Q 1159 2381 1159 1747 
Q 1159 1113 1420 752 
Q 1681 391 2138 391 
Q 2594 391 2855 752 
Q 3116 1113 3116 1747 
z
M 1159 2969 
Q 1341 3281 1617 3432 
Q 1894 3584 2278 3584 
Q 2916 3584 3314 3078 
Q 3713 2572 3713 1747 
Q 3713 922 3314 415 
Q 2916 -91 2278 -91 
Q 1894 -91 1617 61 
Q 1341 213 1159 525 
L 1159 0 
L 581 0 
L 581 4863 
L 1159 4863 
L 1159 2969 
z
" transform="scale(0.015625)"/>
      <path id="DejaVuSans-69" d="M 603 3500 
L 1178 3500 
L 1178 0 
L 603 0 
L 603 3500 
z
M 603 4863 
L 1178 4863 
L 1178 4134 
L 603 4134 
L 603 4863 
z
" transform="scale(0.015625)"/>
      <path id="DejaVuSans-63" d="M 3122 3366 
L 3122 2828 
Q 2878 2963 2633 3030 
Q 2388 3097 2138 3097 
Q 1578 3097 1268 2742 
Q 959 2388 959 1747 
Q 959 1106 1268 751 
Q 1578 397 2138 397 
Q 2388 397 2633 464 
Q 2878 531 3122 666 
L 3122 134 
Q 2881 22 2623 -34 
Q 2366 -91 2075 -91 
Q 1284 -91 818 406 
Q 353 903 353 1747 
Q 353 2603 823 3093 
Q 1294 3584 2113 3584 
Q 2378 3584 2631 3529 
Q 2884 3475 3122 3366 
z
" transform="scale(0.015625)"/>
     </defs>
     <use xlink:href="#DejaVuSans-49"/>
     <use xlink:href="#DejaVuSans-61" x="29.492188"/>
     <use xlink:href="#DejaVuSans-6d" x="90.771484"/>
     <use xlink:href="#DejaVuSans-62" x="188.183594"/>
     <use xlink:href="#DejaVuSans-69" x="251.660156"/>
     <use xlink:href="#DejaVuSans-63" x="279.443359"/>
    </g>
   </g>
   <g id="text_14">
    <!-- Parse -->
    <g transform="translate(361.832136 110.869113)scale(0.08 -0.08)">
     <defs>
      <path id="DejaVuSans-72" d="M 2631 2963 
Q 2534 3019 2420 3045 
Q 2306 3072 2169 3072 
Q 1681 3072 1420 2755 
Q 1159 2438 1159 1844 
L 1159 0 
L 581 0 
L 581 3500 
L 1159 3500 
L 1159 2956 
Q 1341 3275 1631 3429 
Q 1922 3584 2338 3584 
Q 2397 3584 2469 3576 
Q 2541 3569 2628 3553 
L 2631 2963 
z
" transform="scale(0.015625)"/>
      <path id="DejaVuSans-73" d="M 2834 3397 
L 2834 2853 
Q 2591 2978 2328 3040 
Q 2066 3103 1784 3103 
Q 1356 3103 1142 2972 
Q 928 2841 928 2578 
Q 928 2378 1081 2264 
Q 1234 2150 1697 2047 
L 1894 2003 
Q 2506 1872 2764 1633 
Q 3022 1394 3022 966 
Q 3022 478 2636 193 
Q 2250 -91 1575 -91 
Q 1294 -91 989 -36 
Q 684 19 347 128 
L 347 722 
Q 666 556 975 473 
Q 1284 391 1588 391 
Q 1994 391 2212 530 
Q 2431 669 2431 922 
Q 2431 1156 2273 1281 
Q 2116 1406 1581 1522 
L 1381 1569 
Q 847 1681 609 1914 
Q 372 2147 372 2553 
Q 372 3047 722 3315 
Q 1072 3584 1716 3584 
Q 2034 3584 2315 3537 
Q 2597 3491 2834 3397 
z
" transform="scale(0.015625)"/>
      <path id="DejaVuSans-65" d="M 3597 1894 
L 3597 1613 
L 953 1613 
Q 991 1019 1311 708 
Q 1631 397 2203 397 
Q 2534 397 2845 478 
Q 3156 559 3463 722 
L 3463 178 
Q 3153 47 2828 -22 
Q 2503 -91 2169 -91 
Q 1331 -91 842 396 
Q 353 884 353 1716 
Q 353 2575 817 3079 
Q 1281 3584 2069 3584 
Q 2775 3584 3186 3129 
Q 3597 2675 3597 1894 
z
M 3022 2063 
Q 3016 2534 2758 2815 
Q 2500 3097 2075 3097 
Q 1594 3097 1305 2825 
Q 1016 2553 972 2059 
L 3022 2063 
z
" transform="scale(0.015625)"/>
     </defs>
     <use xlink:href="#DejaVuSans-50"/>
     <use xlink:href="#DejaVuSans-61" x="55.802734"/>
     <use xlink:href="#DejaVuSans-72" x="117.082031"/>
     <use xlink:href="#DejaVuSans-73" x="158.195312"/>
     <use xlink:href="#DejaVuSans-65" x="210.294922"/>
    </g>
   </g>
   <g id="text_15">
    <!-- FootBin -->
    <g transform="translate(361.832136 99.669895)scale(0.08 -0.08)">
     <defs>
      <path id="DejaVuSans-46" d="M 628 4666 
L 3309 4666 
L 3309 4134 
L 1259 4134 
L 1259 2759 
L 3109 2759 
L 3109 2228 
L 1259 2228 
L 1259 0 
L 628 0 
L 628 4666 
z
" transform="scale(0.015625)"/>
      <path id="DejaVuSans-6f" d="M 1959 3097 
Q 1497 3097 1228 2736 
Q 959 2375 959 1747 
Q 959 1119 1226 758 
Q 1494 397 1959 397 
Q 2419 397 2687 759 
Q 2956 1122 2956 1747 
Q 2956 2369 2687 2733 
Q 2419 3097 1959 3097 
z
M 1959 3584 
Q 2709 3584 3137 3096 
Q 3566 2609 3566 1747 
Q 3566 888 3137 398 
Q 2709 -91 1959 -91 
Q 1206 -91 779 398 
Q 353 888 353 1747 
Q 353 2609 779 3096 
Q 1206 3584 1959 3584 
z
" transform="scale(0.015625)"/>
      <path id="DejaVuSans-74" d="M 1172 4494 
L 1172 3500 
L 2356 3500 
L 2356 3053 
L 1172 3053 
L 1172 1153 
Q 1172 725 1289 603 
Q 1406 481 1766 481 
L 2356 481 
L 2356 0 
L 1766 0 
Q 1100 0 847 248 
Q 594 497 594 1153 
L 594 3053 
L 172 3053 
L 172 3500 
L 594 3500 
L 594 4494 
L 1172 4494 
z
" transform="scale(0.015625)"/>
      <path id="DejaVuSans-42" d="M 1259 2228 
L 1259 519 
L 2272 519 
Q 2781 519 3026 730 
Q 3272 941 3272 1375 
Q 3272 1813 3026 2020 
Q 2781 2228 2272 2228 
L 1259 2228 
z
M 1259 4147 
L 1259 2741 
L 2194 2741 
Q 2656 2741 2882 2914 
Q 3109 3088 3109 3444 
Q 3109 3797 2882 3972 
Q 2656 4147 2194 4147 
L 1259 4147 
z
M 628 4666 
L 2241 4666 
Q 2963 4666 3353 4366 
Q 3744 4066 3744 3513 
Q 3744 3084 3544 2831 
Q 3344 2578 2956 2516 
Q 3422 2416 3680 2098 
Q 3938 1781 3938 1306 
Q 3938 681 3513 340 
Q 3088 0 2303 0 
L 628 0 
L 628 4666 
z
" transform="scale(0.015625)"/>
      <path id="DejaVuSans-6e" d="M 3513 2113 
L 3513 0 
L 2938 0 
L 2938 2094 
Q 2938 2591 2744 2837 
Q 2550 3084 2163 3084 
Q 1697 3084 1428 2787 
Q 1159 2491 1159 1978 
L 1159 0 
L 581 0 
L 581 3500 
L 1159 3500 
L 1159 2956 
Q 1366 3272 1645 3428 
Q 1925 3584 2291 3584 
Q 2894 3584 3203 3211 
Q 3513 2838 3513 2113 
z
" transform="scale(0.015625)"/>
     </defs>
     <use xlink:href="#DejaVuSans-46"/>
     <use xlink:href="#DejaVuSans-6f" x="53.894531"/>
     <use xlink:href="#DejaVuSans-6f" x="115.076172"/>
     <use xlink:href="#DejaVuSans-74" x="176.257812"/>
     <use xlink:href="#DejaVuSans-42" x="215.466797"/>
     <use xlink:href="#DejaVuSans-69" x="284.070312"/>
     <use xlink:href="#DejaVuSans-6e" x="311.853516"/>
    </g>
   </g>
   <g id="text_16">
    <!-- WFL -->
    <g transform="translate(361.832136 156.933818)scale(0.08 -0.08)">
     <defs>
      <path id="DejaVuSans-4c" d="M 628 4666 
L 1259 4666 
L 1259 531 
L 3531 531 
L 3531 0 
L 628 0 
L 628 4666 
z
" transform="scale(0.015625)"/>
     </defs>
     <use xlink:href="#DejaVuSans-57"/>
     <use xlink:href="#DejaVuSans-46" x="98.876953"/>
     <use xlink:href="#DejaVuSans-4c" x="156.396484"/>
    </g>
   </g>
   <g id="text_17">
    <!-- WFR -->
    <g transform="translate(361.832136 125.406965)scale(0.08 -0.08)">
     <defs>
      <path id="DejaVuSans-52" d="M 2841 2188 
Q 3044 2119 3236 1894 
Q 3428 1669 3622 1275 
L 4263 0 
L 3584 0 
L 2988 1197 
Q 2756 1666 2539 1819 
Q 2322 1972 1947 1972 
L 1259 1972 
L 1259 0 
L 628 0 
L 628 4666 
L 2053 4666 
Q 2853 4666 3247 4331 
Q 3641 3997 3641 3322 
Q 3641 2881 3436 2590 
Q 3231 2300 2841 2188 
z
M 1259 4147 
L 1259 2491 
L 2053 2491 
Q 2509 2491 2742 2702 
Q 2975 2913 2975 3322 
Q 2975 3731 2742 3939 
Q 2509 4147 2053 4147 
L 1259 4147 
z
" transform="scale(0.015625)"/>
     </defs>
     <use xlink:href="#DejaVuSans-57"/>
     <use xlink:href="#DejaVuSans-46" x="98.876953"/>
     <use xlink:href="#DejaVuSans-52" x="156.396484"/>
    </g>
   </g>
   <g id="text_18">
    <!-- Main-L -->
    <g transform="translate(361.832136 113.108956)scale(0.08 -0.08)">
     <defs>
      <path id="DejaVuSans-4d" d="M 628 4666 
L 1569 4666 
L 2759 1491 
L 3956 4666 
L 4897 4666 
L 4897 0 
L 4281 0 
L 4281 4097 
L 3078 897 
L 2444 897 
L 1241 4097 
L 1241 0 
L 628 0 
L 628 4666 
z
" transform="scale(0.015625)"/>
      <path id="DejaVuSans-2d" d="M 313 2009 
L 1997 2009 
L 1997 1497 
L 313 1497 
L 313 2009 
z
" transform="scale(0.015625)"/>
     </defs>
     <use xlink:href="#DejaVuSans-4d"/>
     <use xlink:href="#DejaVuSans-61" x="86.279297"/>
     <use xlink:href="#DejaVuSans-69" x="147.558594"/>
     <use xlink:href="#DejaVuSans-6e" x="175.341797"/>
     <use xlink:href="#DejaVuSans-2d" x="238.720703"/>
     <use xlink:href="#DejaVuSans-4c" x="274.804688"/>
    </g>
   </g>
   <g id="text_19">
    <!-- Main-R -->
    <g transform="translate(361.832136 94.683074)scale(0.08 -0.08)">
     <use xlink:href="#DejaVuSans-4d"/>
     <use xlink:href="#DejaVuSans-61" x="86.279297"/>
     <use xlink:href="#DejaVuSans-69" x="147.558594"/>
     <use xlink:href="#DejaVuSans-6e" x="175.341797"/>
     <use xlink:href="#DejaVuSans-2d" x="238.720703"/>
     <use xlink:href="#DejaVuSans-52" x="274.804688"/>
    </g>
   </g>
   <g id="text_20">
    <!-- AFL -->
    <g transform="translate(361.832136 107.530478)scale(0.08 -0.08)">
     <defs>
      <path id="DejaVuSans-41" d="M 2188 4044 
L 1331 1722 
L 3047 1722 
L 2188 4044 
z
M 1831 4666 
L 2547 4666 
L 4325 0 
L 3669 0 
L 3244 1197 
L 1141 1197 
L 716 0 
L 50 0 
L 1831 4666 
z
" transform="scale(0.015625)"/>
     </defs>
     <use xlink:href="#DejaVuSans-41"/>
     <use xlink:href="#DejaVuSans-46" x="68.408203"/>
     <use xlink:href="#DejaVuSans-4c" x="125.927734"/>
    </g>
   </g>
   <g id="text_21">
    <!-- AFR -->
    <g transform="translate(361.832136 76.722065)scale(0.08 -0.08)">
     <use xlink:href="#DejaVuSans-41"/>
     <use xlink:href="#DejaVuSans-46" x="68.408203"/>
     <use xlink:href="#DejaVuSans-52" x="125.927734"/>
    </g>
   </g>
   <g id="text_22">
    <!-- Nonfinal -->
    <g transform="translate(361.832136 46.970182)scale(0.08 -0.08)">
     <defs>
      <path id="DejaVuSans-4e" d="M 628 4666 
L 1478 4666 
L 3547 763 
L 3547 4666 
L 4159 4666 
L 4159 0 
L 3309 0 
L 1241 3903 
L 1241 0 
L 628 0 
L 628 4666 
z
" transform="scale(0.015625)"/>
      <path id="DejaVuSans-66" d="M 2375 4863 
L 2375 4384 
L 1825 4384 
Q 1516 4384 1395 4259 
Q 1275 4134 1275 3809 
L 1275 3500 
L 2222 3500 
L 2222 3053 
L 1275 3053 
L 1275 0 
L 697 0 
L 697 3053 
L 147 3053 
L 147 3500 
L 697 3500 
L 697 3744 
Q 697 4328 969 4595 
Q 1241 4863 1831 4863 
L 2375 4863 
z
" transform="scale(0.015625)"/>
      <path id="DejaVuSans-6c" d="M 603 4863 
L 1178 4863 
L 1178 0 
L 603 0 
L 603 4863 
z
" transform="scale(0.015625)"/>
     </defs>
     <use xlink:href="#DejaVuSans-4e"/>
     <use xlink:href="#DejaVuSans-6f" x="74.804688"/>
     <use xlink:href="#DejaVuSans-6e" x="135.986328"/>
     <use xlink:href="#DejaVuSans-66" x="199.365234"/>
     <use xlink:href="#DejaVuSans-69" x="234.570312"/>
     <use xlink:href="#DejaVuSans-6e" x="262.353516"/>
     <use xlink:href="#DejaVuSans-61" x="325.732422"/>
     <use xlink:href="#DejaVuSans-6c" x="387.011719"/>
    </g>
   </g>
   <g id="text_23">
    <!-- Trochaic -->
    <g transform="translate(361.832136 76.088147)scale(0.08 -0.08)">
     <defs>
      <path id="DejaVuSans-54" d="M -19 4666 
L 3928 4666 
L 3928 4134 
L 2272 4134 
L 2272 0 
L 1638 0 
L 1638 4134 
L -19 4134 
L -19 4666 
z
" transform="scale(0.015625)"/>
      <path id="DejaVuSans-68" d="M 3513 2113 
L 3513 0 
L 2938 0 
L 2938 2094 
Q 2938 2591 2744 2837 
Q 2550 3084 2163 3084 
Q 1697 3084 1428 2787 
Q 1159 2491 1159 1978 
L 1159 0 
L 581 0 
L 581 4863 
L 1159 4863 
L 1159 2956 
Q 1366 3272 1645 3428 
Q 1925 3584 2291 3584 
Q 2894 3584 3203 3211 
Q 3513 2838 3513 2113 
z
" transform="scale(0.015625)"/>
     </defs>
     <use xlink:href="#DejaVuSans-54"/>
     <use xlink:href="#DejaVuSans-72" x="46.333984"/>
     <use xlink:href="#DejaVuSans-6f" x="85.197266"/>
     <use xlink:href="#DejaVuSans-63" x="146.378906"/>
     <use xlink:href="#DejaVuSans-68" x="201.359375"/>
     <use xlink:href="#DejaVuSans-61" x="264.738281"/>
     <use xlink:href="#DejaVuSans-69" x="326.017578"/>
     <use xlink:href="#DejaVuSans-63" x="353.800781"/>
    </g>
   </g>
  </g>
  <g id="axes_2">
   <g id="patch_7">
    <path d="M 57.6 307.584 
L 414.72 307.584 
L 414.72 186.624 
L 57.6 186.624 
z
" style="fill: #ffffff"/>
   </g>
   <g id="matplotlib.axis_3">
    <g id="xtick_8">
     <g id="line2d_24">
      <g>
       <use xlink:href="#mb372e92b62" x="70.553388" y="307.584" style="stroke: #000000; stroke-width: 0.8"/>
      </g>
     </g>
     <g id="text_24">
      <!-- 0 -->
      <g transform="translate(67.372138 322.182437)scale(0.1 -0.1)">
       <use xlink:href="#DejaVuSans-30"/>
      </g>
     </g>
    </g>
    <g id="xtick_9">
     <g id="line2d_25">
      <g>
       <use xlink:href="#mb372e92b62" x="136.140165" y="307.584" style="stroke: #000000; stroke-width: 0.8"/>
      </g>
     </g>
     <g id="text_25">
      <!-- 20 -->
      <g transform="translate(129.777665 322.182437)scale(0.1 -0.1)">
       <use xlink:href="#DejaVuSans-32"/>
       <use xlink:href="#DejaVuSans-30" x="63.623047"/>
      </g>
     </g>
    </g>
    <g id="xtick_10">
     <g id="line2d_26">
      <g>
       <use xlink:href="#mb372e92b62" x="201.726942" y="307.584" style="stroke: #000000; stroke-width: 0.8"/>
      </g>
     </g>
     <g id="text_26">
      <!-- 40 -->
      <g transform="translate(195.364442 322.182437)scale(0.1 -0.1)">
       <use xlink:href="#DejaVuSans-34"/>
       <use xlink:href="#DejaVuSans-30" x="63.623047"/>
      </g>
     </g>
    </g>
    <g id="xtick_11">
     <g id="line2d_27">
      <g>
       <use xlink:href="#mb372e92b62" x="267.313719" y="307.584" style="stroke: #000000; stroke-width: 0.8"/>
      </g>
     </g>
     <g id="text_27">
      <!-- 60 -->
      <g transform="translate(260.951219 322.182437)scale(0.1 -0.1)">
       <use xlink:href="#DejaVuSans-36"/>
       <use xlink:href="#DejaVuSans-30" x="63.623047"/>
      </g>
     </g>
    </g>
    <g id="xtick_12">
     <g id="line2d_28">
      <g>
       <use xlink:href="#mb372e92b62" x="332.900496" y="307.584" style="stroke: #000000; stroke-width: 0.8"/>
      </g>
     </g>
     <g id="text_28">
      <!-- 80 -->
      <g transform="translate(326.537996 322.182437)scale(0.1 -0.1)">
       <use xlink:href="#DejaVuSans-38"/>
       <use xlink:href="#DejaVuSans-30" x="63.623047"/>
      </g>
     </g>
    </g>
    <g id="xtick_13">
     <g id="line2d_29">
      <g>
       <use xlink:href="#mb372e92b62" x="398.487273" y="307.584" style="stroke: #000000; stroke-width: 0.8"/>
      </g>
     </g>
     <g id="text_29">
      <!-- 100 -->
      <g transform="translate(388.943523 322.182437)scale(0.1 -0.1)">
       <use xlink:href="#DejaVuSans-31"/>
       <use xlink:href="#DejaVuSans-30" x="63.623047"/>
       <use xlink:href="#DejaVuSans-30" x="127.246094"/>
      </g>
     </g>
    </g>
   </g>
   <g id="matplotlib.axis_4">
    <g id="ytick_5">
     <g id="line2d_30">
      <g>
       <use xlink:href="#m3201415419" x="57.6" y="302.099722" style="stroke: #000000; stroke-width: 0.8"/>
      </g>
     </g>
     <g id="text_30">
      <!-- 0 -->
      <g transform="translate(44.2375 305.898941)scale(0.1 -0.1)">
       <use xlink:href="#DejaVuSans-30"/>
      </g>
     </g>
    </g>
    <g id="ytick_6">
     <g id="line2d_31">
      <g>
       <use xlink:href="#m3201415419" x="57.6" y="274.292506" style="stroke: #000000; stroke-width: 0.8"/>
      </g>
     </g>
     <g id="text_31">
      <!-- 2000 -->
      <g transform="translate(25.15 278.091724)scale(0.1 -0.1)">
       <use xlink:href="#DejaVuSans-32"/>
       <use xlink:href="#DejaVuSans-30" x="63.623047"/>
       <use xlink:href="#DejaVuSans-30" x="127.246094"/>
       <use xlink:href="#DejaVuSans-30" x="190.869141"/>
      </g>
     </g>
    </g>
    <g id="ytick_7">
     <g id="line2d_32">
      <g>
       <use xlink:href="#m3201415419" x="57.6" y="246.485289" style="stroke: #000000; stroke-width: 0.8"/>
      </g>
     </g>
     <g id="text_32">
      <!-- 4000 -->
      <g transform="translate(25.15 250.284508)scale(0.1 -0.1)">
       <use xlink:href="#DejaVuSans-34"/>
       <use xlink:href="#DejaVuSans-30" x="63.623047"/>
       <use xlink:href="#DejaVuSans-30" x="127.246094"/>
       <use xlink:href="#DejaVuSans-30" x="190.869141"/>
      </g>
     </g>
    </g>
    <g id="ytick_8">
     <g id="line2d_33">
      <g>
       <use xlink:href="#m3201415419" x="57.6" y="218.678073" style="stroke: #000000; stroke-width: 0.8"/>
      </g>
     </g>
     <g id="text_33">
      <!-- 6000 -->
      <g transform="translate(25.15 222.477292)scale(0.1 -0.1)">
       <use xlink:href="#DejaVuSans-36"/>
       <use xlink:href="#DejaVuSans-30" x="63.623047"/>
       <use xlink:href="#DejaVuSans-30" x="127.246094"/>
       <use xlink:href="#DejaVuSans-30" x="190.869141"/>
      </g>
     </g>
    </g>
    <g id="ytick_9">
     <g id="line2d_34">
      <g>
       <use xlink:href="#m3201415419" x="57.6" y="190.870857" style="stroke: #000000; stroke-width: 0.8"/>
      </g>
     </g>
     <g id="text_34">
      <!-- 8000 -->
      <g transform="translate(25.15 194.670076)scale(0.1 -0.1)">
       <use xlink:href="#DejaVuSans-38"/>
       <use xlink:href="#DejaVuSans-30" x="63.623047"/>
       <use xlink:href="#DejaVuSans-30" x="127.246094"/>
       <use xlink:href="#DejaVuSans-30" x="190.869141"/>
      </g>
     </g>
    </g>
   </g>
   <g id="line2d_35">
    <path d="M 73.832727 302.085818 
L 77.112066 302.085818 
L 80.391405 302.085818 
L 83.670744 302.085818 
L 86.950083 302.085818 
L 90.229421 302.085818 
L 93.50876 302.085818 
L 96.788099 302.085818 
L 100.067438 302.085818 
L 103.346777 302.085818 
L 106.626116 302.085818 
L 109.905455 302.085818 
L 113.184793 302.058011 
L 116.464132 302.058011 
L 119.743471 302.071915 
L 123.02281 302.085818 
L 126.302149 302.085818 
L 129.581488 302.085818 
L 132.860826 302.071915 
L 136.140165 302.071915 
L 139.419504 302.085818 
L 142.698843 302.085818 
L 145.978182 302.058011 
L 149.257521 302.085818 
L 152.53686 302.085818 
L 155.816198 302.058011 
L 159.095537 302.085818 
L 162.374876 302.071915 
L 165.654215 302.002397 
L 168.933554 302.044107 
L 172.212893 302.071915 
L 175.492231 302.085818 
L 178.77157 302.058011 
L 182.050909 302.085818 
L 185.330248 302.044107 
L 188.609587 302.071915 
L 191.888926 302.002397 
L 195.168264 302.085818 
L 198.447603 301.891168 
L 201.726942 302.085818 
L 205.006281 301.932878 
L 208.28562 302.0163 
L 211.564959 302.085818 
L 214.844298 301.891168 
L 218.123636 302.071915 
L 221.402975 301.932878 
L 224.682314 302.002397 
L 227.961653 301.779939 
L 231.240992 301.891168 
L 234.520331 302.058011 
L 237.799669 302.071915 
L 241.079008 302.085818 
L 244.358347 301.112566 
L 247.637686 300.848397 
L 250.917025 301.710421 
L 254.196364 302.0163 
L 257.475702 301.418445 
L 260.755041 301.265505 
L 264.03438 301.82165 
L 267.313719 299.416325 
L 270.593058 302.071915 
L 273.872397 297.7757 
L 277.151736 301.654806 
L 280.431074 302.058011 
L 283.710413 301.571385 
L 286.989752 302.071915 
L 290.269091 301.209891 
L 293.54843 301.112566 
L 296.827769 299.485843 
L 300.107107 301.265505 
L 303.386446 300.222735 
L 306.665785 293.660232 
L 309.945124 298.929699 
L 313.224463 294.494448 
L 316.503802 302.002397 
L 319.78314 300.347867 
L 323.062479 300.083699 
L 326.341818 301.974589 
L 329.621157 294.174665 
L 332.900496 301.154276 
L 336.179835 291.088064 
L 339.459174 300.653747 
L 342.738512 300.222735 
L 346.017851 255.300177 
L 349.29719 221.70906 
L 352.576529 284.78973 
L 355.855868 301.849457 
L 359.135207 221.653445 
L 362.414545 267.062629 
L 365.693884 293.549003 
L 368.973223 238.546329 
L 372.252562 255.508731 
L 375.531901 226.422383 
L 378.81124 270.024098 
L 382.090579 274.236891 
L 385.369917 246.109892 
L 388.649256 192.122182 
L 391.928595 264.045546 
L 395.207934 296.371435 
L 398.487273 252.394323 
" clip-path="url(#p80dd73ff45)" style="fill: none; stroke: #1f77b4; stroke-width: 1.5; stroke-linecap: square"/>
   </g>
   <g id="patch_8">
    <path d="M 57.6 307.584 
L 57.6 186.624 
" style="fill: none; stroke: #000000; stroke-width: 0.8; stroke-linejoin: miter; stroke-linecap: square"/>
   </g>
   <g id="patch_9">
    <path d="M 414.72 307.584 
L 414.72 186.624 
" style="fill: none; stroke: #000000; stroke-width: 0.8; stroke-linejoin: miter; stroke-linecap: square"/>
   </g>
   <g id="patch_10">
    <path d="M 57.6 307.584 
L 414.72 307.584 
" style="fill: none; stroke: #000000; stroke-width: 0.8; stroke-linejoin: miter; stroke-linecap: square"/>
   </g>
   <g id="patch_11">
    <path d="M 57.6 186.624 
L 414.72 186.624 
" style="fill: none; stroke: #000000; stroke-width: 0.8; stroke-linejoin: miter; stroke-linecap: square"/>
   </g>
  </g>
 </g>
 <defs>
  <clipPath id="pc81f3f7ae3">
   <rect x="57.6" y="41.472" width="357.12" height="120.96"/>
  </clipPath>
  <clipPath id="p80dd73ff45">
   <rect x="57.6" y="186.624" width="357.12" height="120.96"/>
  </clipPath>
 </defs>
</svg>
