<?xml version="1.0" encoding="utf-8" standalone="no"?>
<!DOCTYPE svg PUBLIC "-//W3C//DTD SVG 1.1//EN"
  "http://www.w3.org/Graphics/SVG/1.1/DTD/svg11.dtd">
<svg xmlns:xlink="http://www.w3.org/1999/xlink" width="460.8pt" height="345.6pt" viewBox="0 0 460.8 345.6" xmlns="http://www.w3.org/2000/svg" version="1.1">
 <metadata>
  <rdf:RDF xmlns:dc="http://purl.org/dc/elements/1.1/" xmlns:cc="http://creativecommons.org/ns#" xmlns:rdf="http://www.w3.org/1999/02/22-rdf-syntax-ns#">
   <cc:Work>
    <dc:type rdf:resource="http://purl.org/dc/dcmitype/StillImage"/>
    <dc:date>2022-05-13T13:07:43.898469</dc:date>
    <dc:format>image/svg+xml</dc:format>
    <dc:creator>
     <cc:Agent>
      <dc:title>Matplotlib v3.5.1, https://matplotlib.org/</dc:title>
     </cc:Agent>
    </dc:creator>
   </cc:Work>
  </rdf:RDF>
 </metadata>
 <defs>
  <style type="text/css">*{stroke-linejoin: round; stroke-linecap: butt}</style>
 </defs>
 <g id="figure_1">
  <g id="patch_1">
   <path d="M 0 345.6 
L 460.8 345.6 
L 460.8 0 
L 0 0 
z
" style="fill: #ffffff"/>
  </g>
  <g id="axes_1">
   <g id="patch_2">
    <path d="M 57.6 162.432 
L 414.72 162.432 
L 414.72 41.472 
L 57.6 41.472 
z
" style="fill: #ffffff"/>
   </g>
   <g id="matplotlib.axis_1">
    <g id="xtick_1">
     <g id="line2d_1">
      <defs>
       <path id="m7810b19830" d="M 0 0 
L 0 3.5 
" style="stroke: #000000; stroke-width: 0.8"/>
      </defs>
      <g>
       <use xlink:href="#m7810b19830" x="73.827491" y="162.432" style="stroke: #000000; stroke-width: 0.8"/>
      </g>
     </g>
     <g id="text_1">
      <!-- 0 -->
      <g transform="translate(70.646241 177.030437)scale(0.1 -0.1)">
       <defs>
        <path id="DejaVuSans-30" d="M 2034 4250 
Q 1547 4250 1301 3770 
Q 1056 3291 1056 2328 
Q 1056 1369 1301 889 
Q 1547 409 2034 409 
Q 2525 409 2770 889 
Q 3016 1369 3016 2328 
Q 3016 3291 2770 3770 
Q 2525 4250 2034 4250 
z
M 2034 4750 
Q 2819 4750 3233 4129 
Q 3647 3509 3647 2328 
Q 3647 1150 3233 529 
Q 2819 -91 2034 -91 
Q 1250 -91 836 529 
Q 422 1150 422 2328 
Q 422 3509 836 4129 
Q 1250 4750 2034 4750 
z
" transform="scale(0.015625)"/>
       </defs>
       <use xlink:href="#DejaVuSans-30"/>
      </g>
     </g>
    </g>
    <g id="xtick_2">
     <g id="line2d_2">
      <g>
       <use xlink:href="#m7810b19830" x="126.191972" y="162.432" style="stroke: #000000; stroke-width: 0.8"/>
      </g>
     </g>
     <g id="text_2">
      <!-- 10000 -->
      <g transform="translate(110.285722 177.030437)scale(0.1 -0.1)">
       <defs>
        <path id="DejaVuSans-31" d="M 794 531 
L 1825 531 
L 1825 4091 
L 703 3866 
L 703 4441 
L 1819 4666 
L 2450 4666 
L 2450 531 
L 3481 531 
L 3481 0 
L 794 0 
L 794 531 
z
" transform="scale(0.015625)"/>
       </defs>
       <use xlink:href="#DejaVuSans-31"/>
       <use xlink:href="#DejaVuSans-30" x="63.623047"/>
       <use xlink:href="#DejaVuSans-30" x="127.246094"/>
       <use xlink:href="#DejaVuSans-30" x="190.869141"/>
       <use xlink:href="#DejaVuSans-30" x="254.492188"/>
      </g>
     </g>
    </g>
    <g id="xtick_3">
     <g id="line2d_3">
      <g>
       <use xlink:href="#m7810b19830" x="178.556453" y="162.432" style="stroke: #000000; stroke-width: 0.8"/>
      </g>
     </g>
     <g id="text_3">
      <!-- 20000 -->
      <g transform="translate(162.650203 177.030437)scale(0.1 -0.1)">
       <defs>
        <path id="DejaVuSans-32" d="M 1228 531 
L 3431 531 
L 3431 0 
L 469 0 
L 469 531 
Q 828 903 1448 1529 
Q 2069 2156 2228 2338 
Q 2531 2678 2651 2914 
Q 2772 3150 2772 3378 
Q 2772 3750 2511 3984 
Q 2250 4219 1831 4219 
Q 1534 4219 1204 4116 
Q 875 4013 500 3803 
L 500 4441 
Q 881 4594 1212 4672 
Q 1544 4750 1819 4750 
Q 2544 4750 2975 4387 
Q 3406 4025 3406 3419 
Q 3406 3131 3298 2873 
Q 3191 2616 2906 2266 
Q 2828 2175 2409 1742 
Q 1991 1309 1228 531 
z
" transform="scale(0.015625)"/>
       </defs>
       <use xlink:href="#DejaVuSans-32"/>
       <use xlink:href="#DejaVuSans-30" x="63.623047"/>
       <use xlink:href="#DejaVuSans-30" x="127.246094"/>
       <use xlink:href="#DejaVuSans-30" x="190.869141"/>
       <use xlink:href="#DejaVuSans-30" x="254.492188"/>
      </g>
     </g>
    </g>
    <g id="xtick_4">
     <g id="line2d_4">
      <g>
       <use xlink:href="#m7810b19830" x="230.920934" y="162.432" style="stroke: #000000; stroke-width: 0.8"/>
      </g>
     </g>
     <g id="text_4">
      <!-- 30000 -->
      <g transform="translate(215.014684 177.030437)scale(0.1 -0.1)">
       <defs>
        <path id="DejaVuSans-33" d="M 2597 2516 
Q 3050 2419 3304 2112 
Q 3559 1806 3559 1356 
Q 3559 666 3084 287 
Q 2609 -91 1734 -91 
Q 1441 -91 1130 -33 
Q 819 25 488 141 
L 488 750 
Q 750 597 1062 519 
Q 1375 441 1716 441 
Q 2309 441 2620 675 
Q 2931 909 2931 1356 
Q 2931 1769 2642 2001 
Q 2353 2234 1838 2234 
L 1294 2234 
L 1294 2753 
L 1863 2753 
Q 2328 2753 2575 2939 
Q 2822 3125 2822 3475 
Q 2822 3834 2567 4026 
Q 2313 4219 1838 4219 
Q 1578 4219 1281 4162 
Q 984 4106 628 3988 
L 628 4550 
Q 988 4650 1302 4700 
Q 1616 4750 1894 4750 
Q 2613 4750 3031 4423 
Q 3450 4097 3450 3541 
Q 3450 3153 3228 2886 
Q 3006 2619 2597 2516 
z
" transform="scale(0.015625)"/>
       </defs>
       <use xlink:href="#DejaVuSans-33"/>
       <use xlink:href="#DejaVuSans-30" x="63.623047"/>
       <use xlink:href="#DejaVuSans-30" x="127.246094"/>
       <use xlink:href="#DejaVuSans-30" x="190.869141"/>
       <use xlink:href="#DejaVuSans-30" x="254.492188"/>
      </g>
     </g>
    </g>
    <g id="xtick_5">
     <g id="line2d_5">
      <g>
       <use xlink:href="#m7810b19830" x="283.285415" y="162.432" style="stroke: #000000; stroke-width: 0.8"/>
      </g>
     </g>
     <g id="text_5">
      <!-- 40000 -->
      <g transform="translate(267.379165 177.030437)scale(0.1 -0.1)">
       <defs>
        <path id="DejaVuSans-34" d="M 2419 4116 
L 825 1625 
L 2419 1625 
L 2419 4116 
z
M 2253 4666 
L 3047 4666 
L 3047 1625 
L 3713 1625 
L 3713 1100 
L 3047 1100 
L 3047 0 
L 2419 0 
L 2419 1100 
L 313 1100 
L 313 1709 
L 2253 4666 
z
" transform="scale(0.015625)"/>
       </defs>
       <use xlink:href="#DejaVuSans-34"/>
       <use xlink:href="#DejaVuSans-30" x="63.623047"/>
       <use xlink:href="#DejaVuSans-30" x="127.246094"/>
       <use xlink:href="#DejaVuSans-30" x="190.869141"/>
       <use xlink:href="#DejaVuSans-30" x="254.492188"/>
      </g>
     </g>
    </g>
    <g id="xtick_6">
     <g id="line2d_6">
      <g>
       <use xlink:href="#m7810b19830" x="335.649896" y="162.432" style="stroke: #000000; stroke-width: 0.8"/>
      </g>
     </g>
     <g id="text_6">
      <!-- 50000 -->
      <g transform="translate(319.743646 177.030437)scale(0.1 -0.1)">
       <defs>
        <path id="DejaVuSans-35" d="M 691 4666 
L 3169 4666 
L 3169 4134 
L 1269 4134 
L 1269 2991 
Q 1406 3038 1543 3061 
Q 1681 3084 1819 3084 
Q 2600 3084 3056 2656 
Q 3513 2228 3513 1497 
Q 3513 744 3044 326 
Q 2575 -91 1722 -91 
Q 1428 -91 1123 -41 
Q 819 9 494 109 
L 494 744 
Q 775 591 1075 516 
Q 1375 441 1709 441 
Q 2250 441 2565 725 
Q 2881 1009 2881 1497 
Q 2881 1984 2565 2268 
Q 2250 2553 1709 2553 
Q 1456 2553 1204 2497 
Q 953 2441 691 2322 
L 691 4666 
z
" transform="scale(0.015625)"/>
       </defs>
       <use xlink:href="#DejaVuSans-35"/>
       <use xlink:href="#DejaVuSans-30" x="63.623047"/>
       <use xlink:href="#DejaVuSans-30" x="127.246094"/>
       <use xlink:href="#DejaVuSans-30" x="190.869141"/>
       <use xlink:href="#DejaVuSans-30" x="254.492188"/>
      </g>
     </g>
    </g>
    <g id="xtick_7">
     <g id="line2d_7">
      <g>
       <use xlink:href="#m7810b19830" x="388.014377" y="162.432" style="stroke: #000000; stroke-width: 0.8"/>
      </g>
     </g>
     <g id="text_7">
      <!-- 60000 -->
      <g transform="translate(372.108127 177.030437)scale(0.1 -0.1)">
       <defs>
        <path id="DejaVuSans-36" d="M 2113 2584 
Q 1688 2584 1439 2293 
Q 1191 2003 1191 1497 
Q 1191 994 1439 701 
Q 1688 409 2113 409 
Q 2538 409 2786 701 
Q 3034 994 3034 1497 
Q 3034 2003 2786 2293 
Q 2538 2584 2113 2584 
z
M 3366 4563 
L 3366 3988 
Q 3128 4100 2886 4159 
Q 2644 4219 2406 4219 
Q 1781 4219 1451 3797 
Q 1122 3375 1075 2522 
Q 1259 2794 1537 2939 
Q 1816 3084 2150 3084 
Q 2853 3084 3261 2657 
Q 3669 2231 3669 1497 
Q 3669 778 3244 343 
Q 2819 -91 2113 -91 
Q 1303 -91 875 529 
Q 447 1150 447 2328 
Q 447 3434 972 4092 
Q 1497 4750 2381 4750 
Q 2619 4750 2861 4703 
Q 3103 4656 3366 4563 
z
" transform="scale(0.015625)"/>
       </defs>
       <use xlink:href="#DejaVuSans-36"/>
       <use xlink:href="#DejaVuSans-30" x="63.623047"/>
       <use xlink:href="#DejaVuSans-30" x="127.246094"/>
       <use xlink:href="#DejaVuSans-30" x="190.869141"/>
       <use xlink:href="#DejaVuSans-30" x="254.492188"/>
      </g>
     </g>
    </g>
   </g>
   <g id="matplotlib.axis_2">
    <g id="ytick_1">
     <g id="line2d_8">
      <defs>
       <path id="m2d13edefb4" d="M 0 0 
L -3.5 0 
" style="stroke: #000000; stroke-width: 0.8"/>
      </defs>
      <g>
       <use xlink:href="#m2d13edefb4" x="57.6" y="137.792262" style="stroke: #000000; stroke-width: 0.8"/>
      </g>
     </g>
     <g id="text_8">
      <!-- 40 -->
      <g transform="translate(37.875 141.591481)scale(0.1 -0.1)">
       <use xlink:href="#DejaVuSans-34"/>
       <use xlink:href="#DejaVuSans-30" x="63.623047"/>
      </g>
     </g>
    </g>
    <g id="ytick_2">
     <g id="line2d_9">
      <g>
       <use xlink:href="#m2d13edefb4" x="57.6" y="109.469368" style="stroke: #000000; stroke-width: 0.8"/>
      </g>
     </g>
     <g id="text_9">
      <!-- 60 -->
      <g transform="translate(37.875 113.268587)scale(0.1 -0.1)">
       <use xlink:href="#DejaVuSans-36"/>
       <use xlink:href="#DejaVuSans-30" x="63.623047"/>
      </g>
     </g>
    </g>
    <g id="ytick_3">
     <g id="line2d_10">
      <g>
       <use xlink:href="#m2d13edefb4" x="57.6" y="81.146474" style="stroke: #000000; stroke-width: 0.8"/>
      </g>
     </g>
     <g id="text_10">
      <!-- 80 -->
      <g transform="translate(37.875 84.945693)scale(0.1 -0.1)">
       <defs>
        <path id="DejaVuSans-38" d="M 2034 2216 
Q 1584 2216 1326 1975 
Q 1069 1734 1069 1313 
Q 1069 891 1326 650 
Q 1584 409 2034 409 
Q 2484 409 2743 651 
Q 3003 894 3003 1313 
Q 3003 1734 2745 1975 
Q 2488 2216 2034 2216 
z
M 1403 2484 
Q 997 2584 770 2862 
Q 544 3141 544 3541 
Q 544 4100 942 4425 
Q 1341 4750 2034 4750 
Q 2731 4750 3128 4425 
Q 3525 4100 3525 3541 
Q 3525 3141 3298 2862 
Q 3072 2584 2669 2484 
Q 3125 2378 3379 2068 
Q 3634 1759 3634 1313 
Q 3634 634 3220 271 
Q 2806 -91 2034 -91 
Q 1263 -91 848 271 
Q 434 634 434 1313 
Q 434 1759 690 2068 
Q 947 2378 1403 2484 
z
M 1172 3481 
Q 1172 3119 1398 2916 
Q 1625 2713 2034 2713 
Q 2441 2713 2670 2916 
Q 2900 3119 2900 3481 
Q 2900 3844 2670 4047 
Q 2441 4250 2034 4250 
Q 1625 4250 1398 4047 
Q 1172 3844 1172 3481 
z
" transform="scale(0.015625)"/>
       </defs>
       <use xlink:href="#DejaVuSans-38"/>
       <use xlink:href="#DejaVuSans-30" x="63.623047"/>
      </g>
     </g>
    </g>
    <g id="ytick_4">
     <g id="line2d_11">
      <g>
       <use xlink:href="#m2d13edefb4" x="57.6" y="52.82358" style="stroke: #000000; stroke-width: 0.8"/>
      </g>
     </g>
     <g id="text_11">
      <!-- 100 -->
      <g transform="translate(31.5125 56.622799)scale(0.1 -0.1)">
       <use xlink:href="#DejaVuSans-31"/>
       <use xlink:href="#DejaVuSans-30" x="63.623047"/>
       <use xlink:href="#DejaVuSans-30" x="127.246094"/>
      </g>
     </g>
    </g>
   </g>
   <g id="line2d_12">
    <path d="M 73.832727 52.82358 
L 73.958402 57.732882 
L 73.974111 57.732882 
L 74.099786 61.981316 
L 74.157387 61.981316 
L 74.162624 63.39746 
L 74.267352 63.043424 
L 75.241332 63.043424 
L 75.356534 64.459569 
L 75.36177 64.459569 
L 75.482208 67.291858 
L 75.702139 67.291858 
L 75.822578 70.124148 
L 75.927307 70.124148 
L 76.042508 71.540292 
L 76.330513 71.540292 
L 76.445715 70.83222 
L 76.890813 70.83222 
L 77.006015 72.248365 
L 77.592497 72.248365 
L 77.639625 73.66451 
L 77.702462 72.956437 
L 77.91192 72.956437 
L 78.027122 72.248365 
L 78.262762 72.248365 
L 78.377964 73.66451 
L 78.435565 73.66451 
L 78.550767 72.956437 
L 79.980317 72.956437 
L 80.100756 71.540292 
L 81.059026 71.540292 
L 81.174228 72.956437 
L 81.278956 72.956437 
L 81.394158 74.372582 
L 81.640271 74.372582 
L 81.755473 74.089353 
L 81.844493 74.089353 
L 81.959695 75.505498 
L 83.761033 75.505498 
L 83.876235 76.921642 
L 85.01778 76.921642 
L 85.132982 78.337787 
L 86.740572 78.337787 
L 86.855774 79.753932 
L 88.128231 79.753932 
L 88.212014 81.170076 
L 88.238196 80.462004 
L 88.264378 80.462004 
L 88.37958 81.878149 
L 88.410999 81.878149 
L 88.526201 83.294294 
L 89.112683 83.294294 
L 89.227885 84.710438 
L 89.311668 84.710438 
L 89.432106 83.294294 
L 89.610145 83.294294 
L 89.66251 84.710438 
L 89.720111 84.002366 
L 90.228046 84.002366 
L 90.343248 85.418511 
L 91.997966 85.418511 
L 92.113168 86.834655 
L 92.37499 86.834655 
L 92.490192 88.2508 
L 92.526847 88.2508 
L 92.647285 91.083089 
L 93.411807 91.083089 
L 93.527009 90.375017 
L 94.987978 90.375017 
L 95.103179 91.791162 
L 95.438312 91.791162 
L 95.553514 93.207306 
L 98.470216 93.207306 
L 98.585417 94.623451 
L 99.784564 94.623451 
L 99.899766 93.915379 
L 100.245371 93.915379 
L 100.360573 95.331524 
L 100.821381 95.331524 
L 100.936583 94.623451 
L 107.979605 94.623451 
L 108.094807 96.039596 
L 109.419629 96.039596 
L 109.53483 97.455741 
L 115.247795 97.455741 
L 115.362997 98.871885 
L 122.578823 98.871885 
L 122.694024 100.28803 
L 126.851764 100.28803 
L 126.966966 101.704175 
L 130.585352 101.704175 
L 130.700554 100.996102 
L 132.250542 100.996102 
L 132.365744 102.412247 
L 133.606782 102.412247 
L 133.721984 103.828392 
L 133.779585 103.828392 
L 133.894787 105.244536 
L 134.250865 105.244536 
L 134.366067 106.660681 
L 136.204061 106.660681 
L 136.319262 105.952609 
L 140.979701 105.952609 
L 141.094903 105.244536 
L 142.723438 105.244536 
L 142.812458 106.660681 
L 142.833404 105.952609 
L 143.660763 105.952609 
L 143.775964 107.368753 
L 163.108931 107.368753 
L 163.224133 108.784898 
L 170.115298 108.784898 
L 170.2305 108.076826 
L 180.703396 108.076826 
L 180.818598 109.492971 
L 185.206742 109.492971 
L 185.321944 110.909115 
L 185.547111 110.909115 
L 185.662313 112.32526 
L 188.406212 112.32526 
L 188.521413 113.741405 
L 195.716293 113.741405 
L 195.831495 115.157549 
L 197.250572 115.157549 
L 197.365774 114.449477 
L 197.679961 114.449477 
L 197.795163 115.865622 
L 198.303098 115.865622 
L 198.4183 115.157549 
L 200.193456 115.157549 
L 200.308658 116.573694 
L 204.073664 116.573694 
L 204.188866 117.989839 
L 211.048613 117.989839 
L 211.163815 119.405983 
L 217.300932 119.405983 
L 217.416134 120.822128 
L 218.46866 120.822128 
L 218.583862 122.238273 
L 219.604969 122.238273 
L 219.720171 121.530201 
L 221.427253 121.530201 
L 221.542455 122.946345 
L 237.435075 122.946345 
L 237.550277 124.36249 
L 242.357336 124.36249 
L 242.472538 125.778635 
L 246.300382 125.778635 
L 246.415584 127.194779 
L 249.232793 127.194779 
L 249.347995 128.610924 
L 258.920222 128.610924 
L 259.035424 130.027069 
L 259.370556 130.027069 
L 259.485758 129.318996 
L 271.01118 129.318996 
L 271.126382 130.735141 
L 277.143061 130.735141 
L 277.258263 132.151286 
L 281.505022 132.151286 
L 281.620224 131.443213 
L 284.327468 131.443213 
L 284.44267 132.859358 
L 293.711183 132.859358 
L 293.826385 134.275503 
L 308.498912 134.275503 
L 308.614114 135.691648 
L 310.452107 135.691648 
L 310.567309 137.107792 
L 319.170793 137.107792 
L 319.285995 138.523937 
L 329.329503 138.523937 
L 329.444705 139.940082 
L 331.041821 139.940082 
L 331.157023 141.356226 
L 331.596885 141.356226 
L 331.712087 140.648154 
L 336.000738 140.648154 
L 336.115939 142.064299 
L 336.257324 142.064299 
L 336.372525 141.356226 
L 336.91188 141.356226 
L 337.027081 142.772371 
L 340.886344 142.772371 
L 341.001546 144.188516 
L 352.333219 144.188516 
L 352.448421 145.604661 
L 354.438271 145.604661 
L 354.553473 144.896588 
L 354.799586 144.896588 
L 354.914788 146.312733 
L 363.968607 146.312733 
L 364.089045 149.145022 
L 365.000187 149.145022 
L 365.115389 148.43695 
L 366.83818 148.43695 
L 366.953382 149.853095 
L 370.262817 149.853095 
L 370.378019 151.269239 
L 381.269831 151.269239 
L 381.385033 152.685384 
L 385.548009 152.685384 
L 385.663211 154.101529 
L 385.998344 154.101529 
L 386.113546 155.517673 
L 386.139728 155.517673 
L 386.25493 156.933818 
L 398.487273 156.933818 
L 398.487273 156.933818 
" clip-path="url(#p1bcf326d27)" style="fill: none; stroke: #1f77b4; stroke-width: 1.5; stroke-linecap: square"/>
   </g>
   <g id="line2d_13">
    <path d="M 73.832727 52.540351 
L 73.853673 52.540351 
L 73.968875 51.124206 
L 73.989821 51.124206 
L 74.000294 52.540351 
L 74.099786 51.124206 
L 74.162624 51.124206 
L 74.277825 52.540351 
L 75.241332 52.540351 
L 75.356534 53.956496 
L 75.387952 53.956496 
L 75.503154 55.37264 
L 75.702139 55.37264 
L 75.817341 56.788785 
L 75.916834 56.788785 
L 76.032035 55.37264 
L 76.272912 55.37264 
L 76.330513 56.788785 
L 76.382877 56.080713 
L 76.890813 56.080713 
L 77.006015 57.496857 
L 77.100271 57.496857 
L 77.215473 56.080713 
L 77.592497 56.080713 
L 77.639625 57.496857 
L 77.702462 56.788785 
L 77.760063 56.788785 
L 77.875265 55.37264 
L 77.91192 55.37264 
L 78.027122 56.788785 
L 78.262762 56.788785 
L 78.377964 58.20493 
L 78.404146 58.20493 
L 78.519348 56.080713 
L 79.66613 56.080713 
L 79.781332 57.496857 
L 79.901771 57.496857 
L 79.980317 58.913002 
L 80.011736 58.20493 
L 80.069337 58.20493 
L 80.184539 57.496857 
L 80.645346 57.496857 
L 80.739602 56.080713 
L 80.755312 57.496857 
L 80.954297 57.496857 
L 81.059026 58.913002 
L 81.064262 57.496857 
L 81.278956 57.496857 
L 81.394158 58.913002 
L 81.493651 58.913002 
L 81.608853 57.496857 
L 81.640271 57.496857 
L 81.76071 60.329147 
L 81.844493 60.329147 
L 81.964931 57.496857 
L 82.996511 57.496857 
L 83.064585 56.080713 
L 83.106477 57.496857 
L 83.66154 57.496857 
L 83.761033 56.080713 
L 83.771506 57.496857 
L 84.761194 57.496857 
L 84.876396 56.080713 
L 85.01778 56.080713 
L 85.132982 57.496857 
L 85.237711 57.496857 
L 85.352913 58.913002 
L 86.69868 58.913002 
L 86.740572 60.329147 
L 86.808646 58.913002 
L 87.683132 58.913002 
L 87.798334 57.496857 
L 87.871645 57.496857 
L 87.986846 58.913002 
L 88.128231 58.913002 
L 88.212014 60.329147 
L 88.238196 59.621075 
L 88.264378 59.621075 
L 88.37958 58.20493 
L 88.410999 58.20493 
L 88.526201 59.621075 
L 88.829915 59.621075 
L 88.945116 58.20493 
L 89.060318 58.20493 
L 89.133629 61.037219 
L 89.17552 59.621075 
L 89.285486 59.621075 
L 89.327377 62.453364 
L 89.400687 61.745292 
L 89.610145 61.745292 
L 89.725347 59.621075 
L 90.228046 59.621075 
L 90.301357 61.037219 
L 90.338012 59.621075 
L 91.385301 59.621075 
L 91.500503 58.20493 
L 91.521449 58.20493 
L 91.636651 59.621075 
L 91.997966 59.621075 
L 92.118404 62.453364 
L 92.176005 62.453364 
L 92.291207 61.037219 
L 92.37499 61.037219 
L 92.490192 59.621075 
L 92.526847 59.621075 
L 92.621103 61.037219 
L 92.636812 59.621075 
L 92.668231 59.621075 
L 92.783433 61.037219 
L 93.411807 61.037219 
L 93.527009 60.329147 
L 94.987978 60.329147 
L 95.103179 61.745292 
L 95.307401 61.745292 
L 95.427839 58.913002 
L 95.438312 58.913002 
L 95.553514 60.329147 
L 98.470216 60.329147 
L 98.585417 61.745292 
L 99.784564 61.745292 
L 99.899766 61.037219 
L 100.245371 61.037219 
L 100.360573 62.453364 
L 100.821381 62.453364 
L 100.936583 61.745292 
L 101.816306 61.745292 
L 101.915798 60.329147 
L 101.926271 61.745292 
L 102.078128 61.745292 
L 102.19333 60.329147 
L 105.947863 60.329147 
L 106.063065 58.913002 
L 107.021335 58.913002 
L 107.136537 60.329147 
L 107.979605 60.329147 
L 108.094807 61.745292 
L 108.587033 61.745292 
L 108.702235 60.329147 
L 109.084496 60.329147 
L 109.199698 58.913002 
L 113.598314 58.913002 
L 113.713516 60.329147 
L 115.247795 60.329147 
L 115.362997 58.913002 
L 116.069918 58.913002 
L 116.185119 60.329147 
L 116.960114 60.329147 
L 117.075316 58.913002 
L 122.578823 58.913002 
L 122.694024 60.329147 
L 122.835409 60.329147 
L 122.95061 58.913002 
L 126.521868 58.913002 
L 126.63707 60.329147 
L 126.851764 60.329147 
L 126.966966 61.745292 
L 127.145005 61.745292 
L 127.260207 60.329147 
L 130.585352 60.329147 
L 130.700554 59.621075 
L 132.250542 59.621075 
L 132.365744 61.037219 
L 133.606782 61.037219 
L 133.721984 59.621075 
L 133.779585 59.621075 
L 133.894787 61.037219 
L 134.250865 61.037219 
L 134.366067 62.453364 
L 135.046806 62.453364 
L 135.114879 63.869509 
L 135.156771 62.453364 
L 136.204061 62.453364 
L 136.319262 61.745292 
L 137.88496 61.745292 
L 138.000162 63.161436 
L 138.183438 63.161436 
L 138.29864 61.745292 
L 140.979701 61.745292 
L 141.094903 61.037219 
L 142.723438 61.037219 
L 142.812458 62.453364 
L 142.833404 61.745292 
L 143.660763 61.745292 
L 143.775964 60.329147 
L 154.699195 60.329147 
L 154.814397 61.745292 
L 161.13479 61.745292 
L 161.155736 63.161436 
L 161.244755 61.745292 
L 161.789346 61.745292 
L 161.904548 60.329147 
L 162.637651 60.329147 
L 162.752852 61.745292 
L 163.108931 61.745292 
L 163.224133 60.329147 
L 164.344733 60.329147 
L 164.459934 61.745292 
L 170.115298 61.745292 
L 170.2305 61.037219 
L 180.703396 61.037219 
L 180.818598 62.453364 
L 185.206742 62.453364 
L 185.321944 63.869509 
L 185.547111 63.869509 
L 185.662313 62.453364 
L 187.542198 62.453364 
L 187.6574 63.869509 
L 188.406212 63.869509 
L 188.521413 62.453364 
L 191.862267 62.453364 
L 191.977469 61.037219 
L 195.716293 61.037219 
L 195.831495 62.453364 
L 196.245174 62.453364 
L 196.360376 63.869509 
L 197.250572 63.869509 
L 197.365774 63.161436 
L 197.679961 63.161436 
L 197.795163 64.577581 
L 198.303098 64.577581 
L 198.4183 63.869509 
L 199.601738 63.869509 
L 199.716939 62.453364 
L 200.193456 62.453364 
L 200.308658 63.869509 
L 200.957978 63.869509 
L 201.07318 62.453364 
L 203.712349 62.453364 
L 203.827551 63.869509 
L 204.073664 63.869509 
L 204.188866 62.453364 
L 211.048613 62.453364 
L 211.059086 63.869509 
L 211.158579 62.453364 
L 217.300932 62.453364 
L 217.416134 63.869509 
L 218.46866 63.869509 
L 218.583862 62.453364 
L 218.709537 62.453364 
L 218.824739 63.869509 
L 219.604969 63.869509 
L 219.720171 63.161436 
L 221.427253 63.161436 
L 221.542455 64.577581 
L 223.076734 64.577581 
L 223.191936 63.161436 
L 226.5485 63.161436 
L 226.663701 64.577581 
L 230.706239 64.577581 
L 230.821441 63.161436 
L 231.208938 63.161436 
L 231.32414 61.745292 
L 237.435075 61.745292 
L 237.550277 63.161436 
L 241.639943 63.161436 
L 241.755145 61.745292 
L 242.357336 61.745292 
L 242.472538 63.161436 
L 245.870993 63.161436 
L 245.986195 64.577581 
L 246.300382 64.577581 
L 246.415584 63.161436 
L 247.813715 63.161436 
L 247.928917 64.577581 
L 249.232793 64.577581 
L 249.347995 63.161436 
L 252.98209 63.161436 
L 253.023981 64.577581 
L 253.092055 63.161436 
L 253.118237 63.161436 
L 253.233439 61.745292 
L 258.365158 61.745292 
L 258.48036 63.161436 
L 258.784074 63.161436 
L 258.904512 65.993726 
L 258.920222 65.993726 
L 259.035424 64.577581 
L 259.265827 64.577581 
L 259.370556 65.993726 
L 259.375793 65.285653 
L 259.496231 65.285653 
L 259.611433 63.869509 
L 264.277108 63.869509 
L 264.39231 65.285653 
L 266.486889 65.285653 
L 266.602091 63.869509 
L 271.01118 63.869509 
L 271.126382 62.453364 
L 273.063868 62.453364 
L 273.17907 63.869509 
L 276.677017 63.869509 
L 276.792219 65.285653 
L 277.143061 65.285653 
L 277.258263 63.869509 
L 281.505022 63.869509 
L 281.620224 63.161436 
L 284.327468 63.161436 
L 284.44267 64.577581 
L 286.840963 64.577581 
L 286.851436 65.993726 
L 286.950928 64.577581 
L 289.433005 64.577581 
L 289.548207 65.993726 
L 290.234181 65.993726 
L 290.349383 64.577581 
L 290.564077 64.577581 
L 290.679279 63.161436 
L 293.711183 63.161436 
L 293.826385 61.745292 
L 299.890192 61.745292 
L 300.005393 63.161436 
L 301.471599 63.161436 
L 301.586801 64.577581 
L 303.246755 64.577581 
L 303.361957 63.161436 
L 307.284056 63.161436 
L 307.399258 64.577581 
L 308.498912 64.577581 
L 308.614114 63.161436 
L 310.452107 63.161436 
L 310.567309 64.577581 
L 312.483849 64.577581 
L 312.599051 65.993726 
L 313.154115 65.993726 
L 313.269316 64.577581 
L 313.274553 64.577581 
L 313.389755 63.161436 
L 319.170793 63.161436 
L 319.285995 64.577581 
L 324.464842 64.577581 
L 324.580044 63.161436 
L 329.329503 63.161436 
L 329.444705 64.577581 
L 329.79031 64.577581 
L 329.800783 65.993726 
L 329.900276 64.577581 
L 331.041821 64.577581 
L 331.157023 65.993726 
L 331.596885 65.993726 
L 331.712087 65.285653 
L 336.000738 65.285653 
L 336.115939 66.701798 
L 336.257324 66.701798 
L 336.382998 64.577581 
L 336.91188 64.577581 
L 337.027081 65.993726 
L 340.886344 65.993726 
L 341.006782 63.161436 
L 341.404752 63.161436 
L 341.519954 64.577581 
L 344.32669 64.577581 
L 344.441892 65.993726 
L 345.112157 65.993726 
L 345.227359 64.577581 
L 352.254672 64.577581 
L 352.333219 65.993726 
L 352.364638 64.577581 
L 353.919863 64.577581 
L 354.035065 65.993726 
L 354.438271 65.993726 
L 354.553473 65.285653 
L 354.799586 65.285653 
L 354.914788 66.701798 
L 357.642978 66.701798 
L 357.758179 65.285653 
L 361.036196 65.285653 
L 361.151398 63.869509 
L 363.968607 63.869509 
L 364.089045 66.701798 
L 365.000187 66.701798 
L 365.115389 65.993726 
L 365.748999 65.993726 
L 365.864201 64.577581 
L 366.83818 64.577581 
L 366.953382 65.993726 
L 370.262817 65.993726 
L 370.378019 64.577581 
L 381.269831 64.577581 
L 381.385033 65.993726 
L 385.548009 65.993726 
L 385.663211 67.40987 
L 385.998344 67.40987 
L 386.113546 68.826015 
L 386.139728 68.826015 
L 386.260166 65.993726 
L 390.166557 65.993726 
L 390.281759 64.577581 
L 390.564527 64.577581 
L 390.679729 65.993726 
L 392.989002 65.993726 
L 393.104204 64.577581 
L 398.487273 64.577581 
L 398.487273 64.577581 
" clip-path="url(#p1bcf326d27)" style="fill: none; stroke: #ff7f0e; stroke-width: 1.5; stroke-linecap: square"/>
   </g>
   <g id="line2d_14">
    <path d="M 73.832727 54.239725 
L 73.942693 59.432255 
L 73.958402 58.960207 
L 73.974111 58.960207 
L 73.984584 60.376352 
L 74.084077 59.432255 
L 74.157387 59.432255 
L 74.272589 58.960207 
L 75.073765 58.960207 
L 75.188967 60.376352 
L 75.241332 60.376352 
L 75.356534 61.792496 
L 75.36177 61.792496 
L 75.476972 61.320448 
L 75.927307 61.320448 
L 75.948252 62.736593 
L 76.037272 62.264545 
L 85.651391 62.264545 
L 85.766592 61.792496 
L 109.419629 61.792496 
L 109.53483 63.208641 
L 398.487273 63.208641 
L 398.487273 63.208641 
" clip-path="url(#p1bcf326d27)" style="fill: none; stroke: #2ca02c; stroke-width: 1.5; stroke-linecap: square"/>
   </g>
   <g id="line2d_15">
    <path d="M 73.832727 52.540351 
L 75.927307 52.540351 
L 76.042508 53.956496 
L 109.419629 53.956496 
L 109.53483 55.37264 
L 398.487273 55.37264 
L 398.487273 55.37264 
" clip-path="url(#p1bcf326d27)" style="fill: none; stroke: #d62728; stroke-width: 1.5; stroke-linecap: square"/>
   </g>
   <g id="line2d_16">
    <path d="M 73.832727 52.82358 
L 74.09455 52.82358 
L 74.209752 52.351532 
L 75.241332 52.351532 
L 75.356534 53.767676 
L 398.487273 53.767676 
L 398.487273 53.767676 
" clip-path="url(#p1bcf326d27)" style="fill: none; stroke: #9467bd; stroke-width: 1.5; stroke-linecap: square"/>
   </g>
   <g id="line2d_17">
    <path d="M 73.832727 54.239725 
L 73.968875 61.320448 
L 73.989821 61.320448 
L 74.105023 62.736593 
L 75.241332 62.736593 
L 75.356534 64.152738 
L 75.927307 64.152738 
L 76.042508 65.568882 
L 81.640271 65.568882 
L 81.755473 66.985027 
L 109.419629 66.985027 
L 109.53483 68.401172 
L 398.487273 68.401172 
L 398.487273 68.401172 
" clip-path="url(#p1bcf326d27)" style="fill: none; stroke: #8c564b; stroke-width: 1.5; stroke-linecap: square"/>
   </g>
   <g id="line2d_18">
    <path d="M 73.832727 52.82358 
L 73.85891 52.82358 
L 73.979348 52.068303 
L 73.989821 52.068303 
L 74.110259 51.242218 
L 74.162624 51.242218 
L 74.277825 50.888182 
L 75.073765 50.888182 
L 75.188967 50.534146 
L 75.241332 50.534146 
L 75.356534 50.250917 
L 81.640271 50.250917 
L 81.755473 49.967688 
L 92.668231 49.967688 
L 92.783433 49.49564 
L 133.779585 49.49564 
L 133.894787 49.023592 
L 398.487273 49.023592 
L 398.487273 49.023592 
" clip-path="url(#p1bcf326d27)" style="fill: none; stroke: #e377c2; stroke-width: 1.5; stroke-linecap: square"/>
   </g>
   <g id="line2d_19">
    <path d="M 73.832727 52.82358 
L 73.85891 51.997496 
L 73.879855 55.773881 
L 73.895565 55.773881 
L 73.942693 55.773881 
L 73.989821 54.357737 
L 74.052658 55.773881 
L 74.068367 55.773881 
L 74.09455 55.301833 
L 74.099786 56.717978 
L 74.162624 56.24593 
L 74.277825 57.662074 
L 75.073765 57.662074 
L 75.188967 59.078219 
L 75.241332 59.078219 
L 75.356534 60.494364 
L 75.36177 60.494364 
L 75.476972 60.022316 
L 75.927307 60.022316 
L 75.948252 61.43846 
L 76.037272 60.966412 
L 81.640271 60.966412 
L 81.755473 62.382557 
L 85.651391 62.382557 
L 85.766592 61.910508 
L 92.668231 61.910508 
L 92.783433 63.326653 
L 109.419629 63.326653 
L 109.53483 64.742798 
L 133.779585 64.742798 
L 133.894787 66.158943 
L 398.487273 66.158943 
L 398.487273 66.158943 
" clip-path="url(#p1bcf326d27)" style="fill: none; stroke: #7f7f7f; stroke-width: 1.5; stroke-linecap: square"/>
   </g>
   <g id="line2d_20">
    <path d="M 73.832727 52.540351 
L 73.979348 50.014893 
L 73.989821 50.014893 
L 74.110259 49.188809 
L 74.162624 49.188809 
L 74.277825 48.834772 
L 75.073765 48.834772 
L 75.188967 48.480736 
L 75.241332 48.480736 
L 75.356534 48.197507 
L 81.640271 48.197507 
L 81.755473 47.914278 
L 92.668231 47.914278 
L 92.783433 47.44223 
L 133.779585 47.44223 
L 133.894787 46.970182 
L 398.487273 46.970182 
L 398.487273 46.970182 
" clip-path="url(#p1bcf326d27)" style="fill: none; stroke: #bcbd22; stroke-width: 1.5; stroke-linecap: square"/>
   </g>
   <g id="line2d_21">
    <path d="M 73.832727 52.540351 
L 73.85891 51.714267 
L 73.879855 55.490652 
L 73.895565 55.490652 
L 73.942693 55.490652 
L 73.989821 54.074508 
L 74.052658 55.490652 
L 74.068367 55.490652 
L 74.09455 55.018604 
L 74.099786 56.434749 
L 74.162624 55.962701 
L 74.277825 57.378845 
L 75.073765 57.378845 
L 75.188967 57.024809 
L 75.241332 57.024809 
L 75.356534 56.74158 
L 75.36177 56.74158 
L 75.476972 56.269532 
L 75.927307 56.269532 
L 75.948252 57.685677 
L 76.037272 57.213629 
L 81.640271 57.213629 
L 81.755473 58.629773 
L 85.651391 58.629773 
L 85.766592 58.157725 
L 92.668231 58.157725 
L 92.783433 59.57387 
L 109.419629 59.57387 
L 109.53483 60.990014 
L 133.779585 60.990014 
L 133.894787 62.406159 
L 398.487273 62.406159 
L 398.487273 62.406159 
" clip-path="url(#p1bcf326d27)" style="fill: none; stroke: #17becf; stroke-width: 1.5; stroke-linecap: square"/>
   </g>
   <g id="line2d_22">
    <path d="M 73.832727 52.540351 
L 73.974111 50.486941 
L 73.989821 50.486941 
L 74.105023 50.132905 
L 75.241332 50.132905 
L 75.356534 49.849676 
L 75.927307 49.849676 
L 76.042508 49.141604 
L 81.640271 49.141604 
L 81.755473 48.858375 
L 109.419629 48.858375 
L 109.53483 48.150302 
L 398.487273 48.150302 
L 398.487273 48.150302 
" clip-path="url(#p1bcf326d27)" style="fill: none; stroke: #1f77b4; stroke-width: 1.5; stroke-linecap: square"/>
   </g>
   <g id="line2d_23">
    <path d="M 73.832727 54.239725 
L 73.837964 54.239725 
L 73.968875 60.093123 
L 73.984584 60.093123 
L 74.105023 63.987521 
L 74.157387 63.987521 
L 74.162624 65.403665 
L 74.267352 65.049629 
L 75.073765 65.049629 
L 75.188967 64.695593 
L 75.241332 64.695593 
L 75.356534 64.412364 
L 75.36177 64.412364 
L 75.387952 65.828509 
L 75.471736 64.412364 
L 75.702139 64.412364 
L 75.817341 62.996219 
L 75.916834 62.996219 
L 76.032035 65.120436 
L 76.272912 65.120436 
L 76.330513 63.704292 
L 76.382877 65.120436 
L 76.890813 65.120436 
L 77.006015 63.704292 
L 77.100271 63.704292 
L 77.215473 65.120436 
L 77.592497 65.120436 
L 77.639625 63.704292 
L 77.702462 65.120436 
L 77.760063 65.120436 
L 77.875265 66.536581 
L 77.91192 66.536581 
L 78.027122 65.828509 
L 78.262762 65.828509 
L 78.377964 64.412364 
L 78.404146 64.412364 
L 78.524585 67.244654 
L 79.66613 67.244654 
L 79.781332 65.828509 
L 79.901771 65.828509 
L 79.980317 64.412364 
L 80.011736 65.828509 
L 80.069337 65.828509 
L 80.184539 67.244654 
L 80.645346 67.244654 
L 80.739602 68.660798 
L 80.755312 67.244654 
L 80.954297 67.244654 
L 81.059026 65.828509 
L 81.064262 67.244654 
L 81.278956 67.244654 
L 81.394158 65.828509 
L 81.493651 65.828509 
L 81.608853 67.244654 
L 81.640271 67.244654 
L 81.781655 65.54528 
L 81.844493 65.54528 
L 81.964931 68.377569 
L 82.996511 68.377569 
L 83.064585 69.793714 
L 83.106477 68.377569 
L 83.66154 68.377569 
L 83.761033 69.793714 
L 83.771506 68.377569 
L 84.761194 68.377569 
L 84.876396 69.793714 
L 85.01778 69.793714 
L 85.132982 68.377569 
L 85.237711 68.377569 
L 85.352913 66.961425 
L 85.651391 66.961425 
L 85.766592 68.377569 
L 86.69868 68.377569 
L 86.740572 66.961425 
L 86.808646 68.377569 
L 87.683132 68.377569 
L 87.798334 69.793714 
L 87.871645 69.793714 
L 87.986846 68.377569 
L 88.128231 68.377569 
L 88.212014 66.961425 
L 88.238196 68.377569 
L 88.264378 68.377569 
L 88.37958 69.793714 
L 88.410999 69.793714 
L 88.526201 68.377569 
L 88.829915 68.377569 
L 88.945116 69.793714 
L 89.060318 69.793714 
L 89.133629 66.961425 
L 89.17552 68.377569 
L 89.285486 68.377569 
L 89.327377 66.253352 
L 89.395451 67.669497 
L 89.610145 67.669497 
L 89.730584 70.501786 
L 90.228046 70.501786 
L 90.301357 69.085642 
L 90.338012 70.501786 
L 91.385301 70.501786 
L 91.500503 71.917931 
L 91.521449 71.917931 
L 91.636651 70.501786 
L 91.997966 70.501786 
L 92.118404 67.669497 
L 92.176005 67.669497 
L 92.291207 69.085642 
L 92.37499 69.085642 
L 92.490192 70.501786 
L 92.526847 70.501786 
L 92.621103 69.085642 
L 92.636812 70.501786 
L 92.668231 70.501786 
L 92.783433 70.029738 
L 93.411807 70.029738 
L 93.527009 71.445883 
L 94.987978 71.445883 
L 95.103179 70.029738 
L 95.307401 70.029738 
L 95.427839 72.862028 
L 95.438312 72.862028 
L 95.553514 71.445883 
L 98.470216 71.445883 
L 98.585417 70.029738 
L 99.784564 70.029738 
L 99.899766 71.445883 
L 100.245371 71.445883 
L 100.360573 70.029738 
L 100.821381 70.029738 
L 100.936583 71.445883 
L 101.816306 71.445883 
L 101.915798 72.862028 
L 101.926271 71.445883 
L 102.078128 71.445883 
L 102.19333 72.862028 
L 105.947863 72.862028 
L 106.063065 74.278172 
L 107.021335 74.278172 
L 107.136537 72.862028 
L 107.979605 72.862028 
L 108.094807 71.445883 
L 108.587033 71.445883 
L 108.702235 72.862028 
L 109.084496 72.862028 
L 109.199698 74.278172 
L 109.419629 74.278172 
L 109.53483 73.5701 
L 113.598314 73.5701 
L 113.713516 72.153955 
L 115.247795 72.153955 
L 115.362997 73.5701 
L 116.069918 73.5701 
L 116.185119 72.153955 
L 116.960114 72.153955 
L 117.075316 73.5701 
L 122.578823 73.5701 
L 122.694024 72.153955 
L 122.835409 72.153955 
L 122.95061 73.5701 
L 126.521868 73.5701 
L 126.63707 72.153955 
L 126.851764 72.153955 
L 126.966966 70.73781 
L 127.145005 70.73781 
L 127.260207 72.153955 
L 130.585352 72.153955 
L 130.700554 73.5701 
L 132.250542 73.5701 
L 132.365744 72.153955 
L 133.606782 72.153955 
L 133.721984 73.5701 
L 133.779585 73.5701 
L 133.894787 73.098052 
L 134.250865 73.098052 
L 134.366067 71.681907 
L 135.046806 71.681907 
L 135.114879 70.265762 
L 135.156771 71.681907 
L 136.204061 71.681907 
L 136.319262 73.098052 
L 137.88496 73.098052 
L 138.000162 71.681907 
L 138.183438 71.681907 
L 138.29864 73.098052 
L 140.979701 73.098052 
L 141.094903 74.514196 
L 142.723438 74.514196 
L 142.812458 73.098052 
L 142.833404 74.514196 
L 143.660763 74.514196 
L 143.775964 75.930341 
L 154.699195 75.930341 
L 154.814397 74.514196 
L 161.13479 74.514196 
L 161.155736 73.098052 
L 161.244755 74.514196 
L 161.789346 74.514196 
L 161.904548 75.930341 
L 162.637651 75.930341 
L 162.752852 74.514196 
L 163.108931 74.514196 
L 163.224133 75.930341 
L 164.344733 75.930341 
L 164.459934 74.514196 
L 170.115298 74.514196 
L 170.2305 75.930341 
L 180.703396 75.930341 
L 180.818598 74.514196 
L 185.206742 74.514196 
L 185.321944 73.098052 
L 185.547111 73.098052 
L 185.662313 74.514196 
L 187.542198 74.514196 
L 187.6574 73.098052 
L 188.406212 73.098052 
L 188.521413 74.514196 
L 191.862267 74.514196 
L 191.977469 75.930341 
L 195.716293 75.930341 
L 195.831495 74.514196 
L 196.245174 74.514196 
L 196.360376 73.098052 
L 197.250572 73.098052 
L 197.365774 74.514196 
L 197.679961 74.514196 
L 197.795163 73.098052 
L 198.303098 73.098052 
L 198.4183 74.514196 
L 199.601738 74.514196 
L 199.716939 75.930341 
L 200.193456 75.930341 
L 200.308658 74.514196 
L 200.957978 74.514196 
L 201.07318 75.930341 
L 203.712349 75.930341 
L 203.827551 74.514196 
L 204.073664 74.514196 
L 204.188866 75.930341 
L 211.048613 75.930341 
L 211.059086 74.514196 
L 211.158579 75.930341 
L 217.300932 75.930341 
L 217.416134 74.514196 
L 218.46866 74.514196 
L 218.583862 75.930341 
L 218.709537 75.930341 
L 218.824739 74.514196 
L 219.604969 74.514196 
L 219.720171 75.930341 
L 221.427253 75.930341 
L 221.542455 74.514196 
L 223.076734 74.514196 
L 223.191936 75.930341 
L 226.5485 75.930341 
L 226.663701 74.514196 
L 230.706239 74.514196 
L 230.821441 75.930341 
L 231.208938 75.930341 
L 231.32414 77.346486 
L 237.435075 77.346486 
L 237.550277 75.930341 
L 241.639943 75.930341 
L 241.755145 77.346486 
L 242.357336 77.346486 
L 242.472538 75.930341 
L 245.870993 75.930341 
L 245.986195 74.514196 
L 246.300382 74.514196 
L 246.415584 75.930341 
L 247.813715 75.930341 
L 247.928917 74.514196 
L 249.232793 74.514196 
L 249.347995 75.930341 
L 252.98209 75.930341 
L 253.023981 74.514196 
L 253.092055 75.930341 
L 253.118237 75.930341 
L 253.233439 77.346486 
L 258.365158 77.346486 
L 258.48036 75.930341 
L 258.784074 75.930341 
L 258.904512 73.098052 
L 258.920222 73.098052 
L 259.035424 74.514196 
L 259.265827 74.514196 
L 259.370556 73.098052 
L 259.375793 74.514196 
L 259.496231 74.514196 
L 259.611433 75.930341 
L 264.277108 75.930341 
L 264.39231 74.514196 
L 266.486889 74.514196 
L 266.602091 75.930341 
L 271.01118 75.930341 
L 271.126382 77.346486 
L 273.063868 77.346486 
L 273.17907 75.930341 
L 276.677017 75.930341 
L 276.792219 74.514196 
L 277.143061 74.514196 
L 277.258263 75.930341 
L 281.505022 75.930341 
L 281.620224 77.346486 
L 284.327468 77.346486 
L 284.44267 75.930341 
L 286.840963 75.930341 
L 286.851436 74.514196 
L 286.950928 75.930341 
L 289.433005 75.930341 
L 289.548207 74.514196 
L 290.234181 74.514196 
L 290.349383 75.930341 
L 290.564077 75.930341 
L 290.679279 77.346486 
L 293.711183 77.346486 
L 293.826385 78.76263 
L 299.890192 78.76263 
L 300.005393 77.346486 
L 301.471599 77.346486 
L 301.586801 75.930341 
L 303.246755 75.930341 
L 303.361957 77.346486 
L 307.284056 77.346486 
L 307.399258 75.930341 
L 308.498912 75.930341 
L 308.614114 77.346486 
L 310.452107 77.346486 
L 310.567309 75.930341 
L 312.483849 75.930341 
L 312.599051 74.514196 
L 313.154115 74.514196 
L 313.269316 75.930341 
L 313.274553 75.930341 
L 313.389755 77.346486 
L 319.170793 77.346486 
L 319.285995 75.930341 
L 324.464842 75.930341 
L 324.580044 77.346486 
L 329.329503 77.346486 
L 329.444705 75.930341 
L 329.79031 75.930341 
L 329.800783 74.514196 
L 329.900276 75.930341 
L 331.041821 75.930341 
L 331.157023 74.514196 
L 331.596885 74.514196 
L 331.712087 75.930341 
L 336.000738 75.930341 
L 336.115939 74.514196 
L 336.257324 74.514196 
L 336.377762 77.346486 
L 336.91188 77.346486 
L 337.027081 75.930341 
L 340.886344 75.930341 
L 341.006782 78.76263 
L 341.404752 78.76263 
L 341.519954 77.346486 
L 344.32669 77.346486 
L 344.441892 75.930341 
L 345.112157 75.930341 
L 345.227359 77.346486 
L 352.254672 77.346486 
L 352.333219 75.930341 
L 352.364638 77.346486 
L 353.919863 77.346486 
L 354.035065 75.930341 
L 354.438271 75.930341 
L 354.553473 77.346486 
L 354.799586 77.346486 
L 354.914788 75.930341 
L 357.642978 75.930341 
L 357.758179 77.346486 
L 361.036196 77.346486 
L 361.151398 78.76263 
L 363.968607 78.76263 
L 364.089045 75.930341 
L 365.000187 75.930341 
L 365.115389 77.346486 
L 365.748999 77.346486 
L 365.864201 78.76263 
L 366.83818 78.76263 
L 366.953382 77.346486 
L 370.262817 77.346486 
L 370.378019 78.76263 
L 381.269831 78.76263 
L 381.385033 77.346486 
L 385.548009 77.346486 
L 385.663211 75.930341 
L 385.998344 75.930341 
L 386.113546 74.514196 
L 386.139728 74.514196 
L 386.260166 77.346486 
L 390.166557 77.346486 
L 390.281759 78.76263 
L 390.564527 78.76263 
L 390.679729 77.346486 
L 392.989002 77.346486 
L 393.104204 78.76263 
L 398.487273 78.76263 
L 398.487273 78.76263 
" clip-path="url(#p1bcf326d27)" style="fill: none; stroke: #ff7f0e; stroke-width: 1.5; stroke-linecap: square"/>
   </g>
   <g id="patch_3">
    <path d="M 57.6 162.432 
L 57.6 41.472 
" style="fill: none; stroke: #000000; stroke-width: 0.8; stroke-linejoin: miter; stroke-linecap: square"/>
   </g>
   <g id="patch_4">
    <path d="M 414.72 162.432 
L 414.72 41.472 
" style="fill: none; stroke: #000000; stroke-width: 0.8; stroke-linejoin: miter; stroke-linecap: square"/>
   </g>
   <g id="patch_5">
    <path d="M 57.6 162.432 
L 414.72 162.432 
" style="fill: none; stroke: #000000; stroke-width: 0.8; stroke-linejoin: miter; stroke-linecap: square"/>
   </g>
   <g id="patch_6">
    <path d="M 57.6 41.472 
L 414.72 41.472 
" style="fill: none; stroke: #000000; stroke-width: 0.8; stroke-linejoin: miter; stroke-linecap: square"/>
   </g>
   <g id="text_12">
    <!-- WSP -->
    <g transform="translate(361.832136 156.933818)scale(0.08 -0.08)">
     <defs>
      <path id="DejaVuSans-57" d="M 213 4666 
L 850 4666 
L 1831 722 
L 2809 4666 
L 3519 4666 
L 4500 722 
L 5478 4666 
L 6119 4666 
L 4947 0 
L 4153 0 
L 3169 4050 
L 2175 0 
L 1381 0 
L 213 4666 
z
" transform="scale(0.015625)"/>
      <path id="DejaVuSans-53" d="M 3425 4513 
L 3425 3897 
Q 3066 4069 2747 4153 
Q 2428 4238 2131 4238 
Q 1616 4238 1336 4038 
Q 1056 3838 1056 3469 
Q 1056 3159 1242 3001 
Q 1428 2844 1947 2747 
L 2328 2669 
Q 3034 2534 3370 2195 
Q 3706 1856 3706 1288 
Q 3706 609 3251 259 
Q 2797 -91 1919 -91 
Q 1588 -91 1214 -16 
Q 841 59 441 206 
L 441 856 
Q 825 641 1194 531 
Q 1563 422 1919 422 
Q 2459 422 2753 634 
Q 3047 847 3047 1241 
Q 3047 1584 2836 1778 
Q 2625 1972 2144 2069 
L 1759 2144 
Q 1053 2284 737 2584 
Q 422 2884 422 3419 
Q 422 4038 858 4394 
Q 1294 4750 2059 4750 
Q 2388 4750 2728 4690 
Q 3069 4631 3425 4513 
z
" transform="scale(0.015625)"/>
      <path id="DejaVuSans-50" d="M 1259 4147 
L 1259 2394 
L 2053 2394 
Q 2494 2394 2734 2622 
Q 2975 2850 2975 3272 
Q 2975 3691 2734 3919 
Q 2494 4147 2053 4147 
L 1259 4147 
z
M 628 4666 
L 2053 4666 
Q 2838 4666 3239 4311 
Q 3641 3956 3641 3272 
Q 3641 2581 3239 2228 
Q 2838 1875 2053 1875 
L 1259 1875 
L 1259 0 
L 628 0 
L 628 4666 
z
" transform="scale(0.015625)"/>
     </defs>
     <use xlink:href="#DejaVuSans-57"/>
     <use xlink:href="#DejaVuSans-53" x="98.876953"/>
     <use xlink:href="#DejaVuSans-50" x="162.353516"/>
    </g>
   </g>
   <g id="text_13">
    <!-- Iambic -->
    <g transform="translate(361.832136 64.577581)scale(0.08 -0.08)">
     <defs>
      <path id="DejaVuSans-49" d="M 628 4666 
L 1259 4666 
L 1259 0 
L 628 0 
L 628 4666 
z
" transform="scale(0.015625)"/>
      <path id="DejaVuSans-61" d="M 2194 1759 
Q 1497 1759 1228 1600 
Q 959 1441 959 1056 
Q 959 750 1161 570 
Q 1363 391 1709 391 
Q 2188 391 2477 730 
Q 2766 1069 2766 1631 
L 2766 1759 
L 2194 1759 
z
M 3341 1997 
L 3341 0 
L 2766 0 
L 2766 531 
Q 2569 213 2275 61 
Q 1981 -91 1556 -91 
Q 1019 -91 701 211 
Q 384 513 384 1019 
Q 384 1609 779 1909 
Q 1175 2209 1959 2209 
L 2766 2209 
L 2766 2266 
Q 2766 2663 2505 2880 
Q 2244 3097 1772 3097 
Q 1472 3097 1187 3025 
Q 903 2953 641 2809 
L 641 3341 
Q 956 3463 1253 3523 
Q 1550 3584 1831 3584 
Q 2591 3584 2966 3190 
Q 3341 2797 3341 1997 
z
" transform="scale(0.015625)"/>
      <path id="DejaVuSans-6d" d="M 3328 2828 
Q 3544 3216 3844 3400 
Q 4144 3584 4550 3584 
Q 5097 3584 5394 3201 
Q 5691 2819 5691 2113 
L 5691 0 
L 5113 0 
L 5113 2094 
Q 5113 2597 4934 2840 
Q 4756 3084 4391 3084 
Q 3944 3084 3684 2787 
Q 3425 2491 3425 1978 
L 3425 0 
L 2847 0 
L 2847 2094 
Q 2847 2600 2669 2842 
Q 2491 3084 2119 3084 
Q 1678 3084 1418 2786 
Q 1159 2488 1159 1978 
L 1159 0 
L 581 0 
L 581 3500 
L 1159 3500 
L 1159 2956 
Q 1356 3278 1631 3431 
Q 1906 3584 2284 3584 
Q 2666 3584 2933 3390 
Q 3200 3197 3328 2828 
z
" transform="scale(0.015625)"/>
      <path id="DejaVuSans-62" d="M 3116 1747 
Q 3116 2381 2855 2742 
Q 2594 3103 2138 3103 
Q 1681 3103 1420 2742 
Q 1159 2381 1159 1747 
Q 1159 1113 1420 752 
Q 1681 391 2138 391 
Q 2594 391 2855 752 
Q 3116 1113 3116 1747 
z
M 1159 2969 
Q 1341 3281 1617 3432 
Q 1894 3584 2278 3584 
Q 2916 3584 3314 3078 
Q 3713 2572 3713 1747 
Q 3713 922 3314 415 
Q 2916 -91 2278 -91 
Q 1894 -91 1617 61 
Q 1341 213 1159 525 
L 1159 0 
L 581 0 
L 581 4863 
L 1159 4863 
L 1159 2969 
z
" transform="scale(0.015625)"/>
      <path id="DejaVuSans-69" d="M 603 3500 
L 1178 3500 
L 1178 0 
L 603 0 
L 603 3500 
z
M 603 4863 
L 1178 4863 
L 1178 4134 
L 603 4134 
L 603 4863 
z
" transform="scale(0.015625)"/>
      <path id="DejaVuSans-63" d="M 3122 3366 
L 3122 2828 
Q 2878 2963 2633 3030 
Q 2388 3097 2138 3097 
Q 1578 3097 1268 2742 
Q 959 2388 959 1747 
Q 959 1106 1268 751 
Q 1578 397 2138 397 
Q 2388 397 2633 464 
Q 2878 531 3122 666 
L 3122 134 
Q 2881 22 2623 -34 
Q 2366 -91 2075 -91 
Q 1284 -91 818 406 
Q 353 903 353 1747 
Q 353 2603 823 3093 
Q 1294 3584 2113 3584 
Q 2378 3584 2631 3529 
Q 2884 3475 3122 3366 
z
" transform="scale(0.015625)"/>
     </defs>
     <use xlink:href="#DejaVuSans-49"/>
     <use xlink:href="#DejaVuSans-61" x="29.492188"/>
     <use xlink:href="#DejaVuSans-6d" x="90.771484"/>
     <use xlink:href="#DejaVuSans-62" x="188.183594"/>
     <use xlink:href="#DejaVuSans-69" x="251.660156"/>
     <use xlink:href="#DejaVuSans-63" x="279.443359"/>
    </g>
   </g>
   <g id="text_14">
    <!-- Parse -->
    <g transform="translate(361.832136 63.208641)scale(0.08 -0.08)">
     <defs>
      <path id="DejaVuSans-72" d="M 2631 2963 
Q 2534 3019 2420 3045 
Q 2306 3072 2169 3072 
Q 1681 3072 1420 2755 
Q 1159 2438 1159 1844 
L 1159 0 
L 581 0 
L 581 3500 
L 1159 3500 
L 1159 2956 
Q 1341 3275 1631 3429 
Q 1922 3584 2338 3584 
Q 2397 3584 2469 3576 
Q 2541 3569 2628 3553 
L 2631 2963 
z
" transform="scale(0.015625)"/>
      <path id="DejaVuSans-73" d="M 2834 3397 
L 2834 2853 
Q 2591 2978 2328 3040 
Q 2066 3103 1784 3103 
Q 1356 3103 1142 2972 
Q 928 2841 928 2578 
Q 928 2378 1081 2264 
Q 1234 2150 1697 2047 
L 1894 2003 
Q 2506 1872 2764 1633 
Q 3022 1394 3022 966 
Q 3022 478 2636 193 
Q 2250 -91 1575 -91 
Q 1294 -91 989 -36 
Q 684 19 347 128 
L 347 722 
Q 666 556 975 473 
Q 1284 391 1588 391 
Q 1994 391 2212 530 
Q 2431 669 2431 922 
Q 2431 1156 2273 1281 
Q 2116 1406 1581 1522 
L 1381 1569 
Q 847 1681 609 1914 
Q 372 2147 372 2553 
Q 372 3047 722 3315 
Q 1072 3584 1716 3584 
Q 2034 3584 2315 3537 
Q 2597 3491 2834 3397 
z
" transform="scale(0.015625)"/>
      <path id="DejaVuSans-65" d="M 3597 1894 
L 3597 1613 
L 953 1613 
Q 991 1019 1311 708 
Q 1631 397 2203 397 
Q 2534 397 2845 478 
Q 3156 559 3463 722 
L 3463 178 
Q 3153 47 2828 -22 
Q 2503 -91 2169 -91 
Q 1331 -91 842 396 
Q 353 884 353 1716 
Q 353 2575 817 3079 
Q 1281 3584 2069 3584 
Q 2775 3584 3186 3129 
Q 3597 2675 3597 1894 
z
M 3022 2063 
Q 3016 2534 2758 2815 
Q 2500 3097 2075 3097 
Q 1594 3097 1305 2825 
Q 1016 2553 972 2059 
L 3022 2063 
z
" transform="scale(0.015625)"/>
     </defs>
     <use xlink:href="#DejaVuSans-50"/>
     <use xlink:href="#DejaVuSans-61" x="55.802734"/>
     <use xlink:href="#DejaVuSans-72" x="117.082031"/>
     <use xlink:href="#DejaVuSans-73" x="158.195312"/>
     <use xlink:href="#DejaVuSans-65" x="210.294922"/>
    </g>
   </g>
   <g id="text_15">
    <!-- FootBin -->
    <g transform="translate(361.832136 55.37264)scale(0.08 -0.08)">
     <defs>
      <path id="DejaVuSans-46" d="M 628 4666 
L 3309 4666 
L 3309 4134 
L 1259 4134 
L 1259 2759 
L 3109 2759 
L 3109 2228 
L 1259 2228 
L 1259 0 
L 628 0 
L 628 4666 
z
" transform="scale(0.015625)"/>
      <path id="DejaVuSans-6f" d="M 1959 3097 
Q 1497 3097 1228 2736 
Q 959 2375 959 1747 
Q 959 1119 1226 758 
Q 1494 397 1959 397 
Q 2419 397 2687 759 
Q 2956 1122 2956 1747 
Q 2956 2369 2687 2733 
Q 2419 3097 1959 3097 
z
M 1959 3584 
Q 2709 3584 3137 3096 
Q 3566 2609 3566 1747 
Q 3566 888 3137 398 
Q 2709 -91 1959 -91 
Q 1206 -91 779 398 
Q 353 888 353 1747 
Q 353 2609 779 3096 
Q 1206 3584 1959 3584 
z
" transform="scale(0.015625)"/>
      <path id="DejaVuSans-74" d="M 1172 4494 
L 1172 3500 
L 2356 3500 
L 2356 3053 
L 1172 3053 
L 1172 1153 
Q 1172 725 1289 603 
Q 1406 481 1766 481 
L 2356 481 
L 2356 0 
L 1766 0 
Q 1100 0 847 248 
Q 594 497 594 1153 
L 594 3053 
L 172 3053 
L 172 3500 
L 594 3500 
L 594 4494 
L 1172 4494 
z
" transform="scale(0.015625)"/>
      <path id="DejaVuSans-42" d="M 1259 2228 
L 1259 519 
L 2272 519 
Q 2781 519 3026 730 
Q 3272 941 3272 1375 
Q 3272 1813 3026 2020 
Q 2781 2228 2272 2228 
L 1259 2228 
z
M 1259 4147 
L 1259 2741 
L 2194 2741 
Q 2656 2741 2882 2914 
Q 3109 3088 3109 3444 
Q 3109 3797 2882 3972 
Q 2656 4147 2194 4147 
L 1259 4147 
z
M 628 4666 
L 2241 4666 
Q 2963 4666 3353 4366 
Q 3744 4066 3744 3513 
Q 3744 3084 3544 2831 
Q 3344 2578 2956 2516 
Q 3422 2416 3680 2098 
Q 3938 1781 3938 1306 
Q 3938 681 3513 340 
Q 3088 0 2303 0 
L 628 0 
L 628 4666 
z
" transform="scale(0.015625)"/>
      <path id="DejaVuSans-6e" d="M 3513 2113 
L 3513 0 
L 2938 0 
L 2938 2094 
Q 2938 2591 2744 2837 
Q 2550 3084 2163 3084 
Q 1697 3084 1428 2787 
Q 1159 2491 1159 1978 
L 1159 0 
L 581 0 
L 581 3500 
L 1159 3500 
L 1159 2956 
Q 1366 3272 1645 3428 
Q 1925 3584 2291 3584 
Q 2894 3584 3203 3211 
Q 3513 2838 3513 2113 
z
" transform="scale(0.015625)"/>
     </defs>
     <use xlink:href="#DejaVuSans-46"/>
     <use xlink:href="#DejaVuSans-6f" x="53.894531"/>
     <use xlink:href="#DejaVuSans-6f" x="115.076172"/>
     <use xlink:href="#DejaVuSans-74" x="176.257812"/>
     <use xlink:href="#DejaVuSans-42" x="215.466797"/>
     <use xlink:href="#DejaVuSans-69" x="284.070312"/>
     <use xlink:href="#DejaVuSans-6e" x="311.853516"/>
    </g>
   </g>
   <g id="text_16">
    <!-- WFL -->
    <g transform="translate(361.832136 53.767676)scale(0.08 -0.08)">
     <defs>
      <path id="DejaVuSans-4c" d="M 628 4666 
L 1259 4666 
L 1259 531 
L 3531 531 
L 3531 0 
L 628 0 
L 628 4666 
z
" transform="scale(0.015625)"/>
     </defs>
     <use xlink:href="#DejaVuSans-57"/>
     <use xlink:href="#DejaVuSans-46" x="98.876953"/>
     <use xlink:href="#DejaVuSans-4c" x="156.396484"/>
    </g>
   </g>
   <g id="text_17">
    <!-- WFR -->
    <g transform="translate(361.832136 68.401172)scale(0.08 -0.08)">
     <defs>
      <path id="DejaVuSans-52" d="M 2841 2188 
Q 3044 2119 3236 1894 
Q 3428 1669 3622 1275 
L 4263 0 
L 3584 0 
L 2988 1197 
Q 2756 1666 2539 1819 
Q 2322 1972 1947 1972 
L 1259 1972 
L 1259 0 
L 628 0 
L 628 4666 
L 2053 4666 
Q 2853 4666 3247 4331 
Q 3641 3997 3641 3322 
Q 3641 2881 3436 2590 
Q 3231 2300 2841 2188 
z
M 1259 4147 
L 1259 2491 
L 2053 2491 
Q 2509 2491 2742 2702 
Q 2975 2913 2975 3322 
Q 2975 3731 2742 3939 
Q 2509 4147 2053 4147 
L 1259 4147 
z
" transform="scale(0.015625)"/>
     </defs>
     <use xlink:href="#DejaVuSans-57"/>
     <use xlink:href="#DejaVuSans-46" x="98.876953"/>
     <use xlink:href="#DejaVuSans-52" x="156.396484"/>
    </g>
   </g>
   <g id="text_18">
    <!-- Main-L -->
    <g transform="translate(361.832136 49.023592)scale(0.08 -0.08)">
     <defs>
      <path id="DejaVuSans-4d" d="M 628 4666 
L 1569 4666 
L 2759 1491 
L 3956 4666 
L 4897 4666 
L 4897 0 
L 4281 0 
L 4281 4097 
L 3078 897 
L 2444 897 
L 1241 4097 
L 1241 0 
L 628 0 
L 628 4666 
z
" transform="scale(0.015625)"/>
      <path id="DejaVuSans-2d" d="M 313 2009 
L 1997 2009 
L 1997 1497 
L 313 1497 
L 313 2009 
z
" transform="scale(0.015625)"/>
     </defs>
     <use xlink:href="#DejaVuSans-4d"/>
     <use xlink:href="#DejaVuSans-61" x="86.279297"/>
     <use xlink:href="#DejaVuSans-69" x="147.558594"/>
     <use xlink:href="#DejaVuSans-6e" x="175.341797"/>
     <use xlink:href="#DejaVuSans-2d" x="238.720703"/>
     <use xlink:href="#DejaVuSans-4c" x="274.804688"/>
    </g>
   </g>
   <g id="text_19">
    <!-- Main-R -->
    <g transform="translate(361.832136 66.158943)scale(0.08 -0.08)">
     <use xlink:href="#DejaVuSans-4d"/>
     <use xlink:href="#DejaVuSans-61" x="86.279297"/>
     <use xlink:href="#DejaVuSans-69" x="147.558594"/>
     <use xlink:href="#DejaVuSans-6e" x="175.341797"/>
     <use xlink:href="#DejaVuSans-2d" x="238.720703"/>
     <use xlink:href="#DejaVuSans-52" x="274.804688"/>
    </g>
   </g>
   <g id="text_20">
    <!-- AFL -->
    <g transform="translate(361.832136 46.970182)scale(0.08 -0.08)">
     <defs>
      <path id="DejaVuSans-41" d="M 2188 4044 
L 1331 1722 
L 3047 1722 
L 2188 4044 
z
M 1831 4666 
L 2547 4666 
L 4325 0 
L 3669 0 
L 3244 1197 
L 1141 1197 
L 716 0 
L 50 0 
L 1831 4666 
z
" transform="scale(0.015625)"/>
     </defs>
     <use xlink:href="#DejaVuSans-41"/>
     <use xlink:href="#DejaVuSans-46" x="68.408203"/>
     <use xlink:href="#DejaVuSans-4c" x="125.927734"/>
    </g>
   </g>
   <g id="text_21">
    <!-- AFR -->
    <g transform="translate(361.832136 62.406159)scale(0.08 -0.08)">
     <use xlink:href="#DejaVuSans-41"/>
     <use xlink:href="#DejaVuSans-46" x="68.408203"/>
     <use xlink:href="#DejaVuSans-52" x="125.927734"/>
    </g>
   </g>
   <g id="text_22">
    <!-- Nonfinal -->
    <g transform="translate(361.832136 48.150302)scale(0.08 -0.08)">
     <defs>
      <path id="DejaVuSans-4e" d="M 628 4666 
L 1478 4666 
L 3547 763 
L 3547 4666 
L 4159 4666 
L 4159 0 
L 3309 0 
L 1241 3903 
L 1241 0 
L 628 0 
L 628 4666 
z
" transform="scale(0.015625)"/>
      <path id="DejaVuSans-66" d="M 2375 4863 
L 2375 4384 
L 1825 4384 
Q 1516 4384 1395 4259 
Q 1275 4134 1275 3809 
L 1275 3500 
L 2222 3500 
L 2222 3053 
L 1275 3053 
L 1275 0 
L 697 0 
L 697 3053 
L 147 3053 
L 147 3500 
L 697 3500 
L 697 3744 
Q 697 4328 969 4595 
Q 1241 4863 1831 4863 
L 2375 4863 
z
" transform="scale(0.015625)"/>
      <path id="DejaVuSans-6c" d="M 603 4863 
L 1178 4863 
L 1178 0 
L 603 0 
L 603 4863 
z
" transform="scale(0.015625)"/>
     </defs>
     <use xlink:href="#DejaVuSans-4e"/>
     <use xlink:href="#DejaVuSans-6f" x="74.804688"/>
     <use xlink:href="#DejaVuSans-6e" x="135.986328"/>
     <use xlink:href="#DejaVuSans-66" x="199.365234"/>
     <use xlink:href="#DejaVuSans-69" x="234.570312"/>
     <use xlink:href="#DejaVuSans-6e" x="262.353516"/>
     <use xlink:href="#DejaVuSans-61" x="325.732422"/>
     <use xlink:href="#DejaVuSans-6c" x="387.011719"/>
    </g>
   </g>
   <g id="text_23">
    <!-- Trochaic -->
    <g transform="translate(361.832136 78.76263)scale(0.08 -0.08)">
     <defs>
      <path id="DejaVuSans-54" d="M -19 4666 
L 3928 4666 
L 3928 4134 
L 2272 4134 
L 2272 0 
L 1638 0 
L 1638 4134 
L -19 4134 
L -19 4666 
z
" transform="scale(0.015625)"/>
      <path id="DejaVuSans-68" d="M 3513 2113 
L 3513 0 
L 2938 0 
L 2938 2094 
Q 2938 2591 2744 2837 
Q 2550 3084 2163 3084 
Q 1697 3084 1428 2787 
Q 1159 2491 1159 1978 
L 1159 0 
L 581 0 
L 581 4863 
L 1159 4863 
L 1159 2956 
Q 1366 3272 1645 3428 
Q 1925 3584 2291 3584 
Q 2894 3584 3203 3211 
Q 3513 2838 3513 2113 
z
" transform="scale(0.015625)"/>
     </defs>
     <use xlink:href="#DejaVuSans-54"/>
     <use xlink:href="#DejaVuSans-72" x="46.333984"/>
     <use xlink:href="#DejaVuSans-6f" x="85.197266"/>
     <use xlink:href="#DejaVuSans-63" x="146.378906"/>
     <use xlink:href="#DejaVuSans-68" x="201.359375"/>
     <use xlink:href="#DejaVuSans-61" x="264.738281"/>
     <use xlink:href="#DejaVuSans-69" x="326.017578"/>
     <use xlink:href="#DejaVuSans-63" x="353.800781"/>
    </g>
   </g>
  </g>
  <g id="axes_2">
   <g id="patch_7">
    <path d="M 57.6 307.584 
L 414.72 307.584 
L 414.72 186.624 
L 57.6 186.624 
z
" style="fill: #ffffff"/>
   </g>
   <g id="matplotlib.axis_3">
    <g id="xtick_8">
     <g id="line2d_24">
      <g>
       <use xlink:href="#m7810b19830" x="72.485613" y="307.584" style="stroke: #000000; stroke-width: 0.8"/>
      </g>
     </g>
     <g id="text_24">
      <!-- 0 -->
      <g transform="translate(69.304363 322.182437)scale(0.1 -0.1)">
       <use xlink:href="#DejaVuSans-30"/>
      </g>
     </g>
    </g>
    <g id="xtick_9">
     <g id="line2d_25">
      <g>
       <use xlink:href="#m7810b19830" x="139.841328" y="307.584" style="stroke: #000000; stroke-width: 0.8"/>
      </g>
     </g>
     <g id="text_25">
      <!-- 50 -->
      <g transform="translate(133.478828 322.182437)scale(0.1 -0.1)">
       <use xlink:href="#DejaVuSans-35"/>
       <use xlink:href="#DejaVuSans-30" x="63.623047"/>
      </g>
     </g>
    </g>
    <g id="xtick_10">
     <g id="line2d_26">
      <g>
       <use xlink:href="#m7810b19830" x="207.197043" y="307.584" style="stroke: #000000; stroke-width: 0.8"/>
      </g>
     </g>
     <g id="text_26">
      <!-- 100 -->
      <g transform="translate(197.653293 322.182437)scale(0.1 -0.1)">
       <use xlink:href="#DejaVuSans-31"/>
       <use xlink:href="#DejaVuSans-30" x="63.623047"/>
       <use xlink:href="#DejaVuSans-30" x="127.246094"/>
      </g>
     </g>
    </g>
    <g id="xtick_11">
     <g id="line2d_27">
      <g>
       <use xlink:href="#m7810b19830" x="274.552757" y="307.584" style="stroke: #000000; stroke-width: 0.8"/>
      </g>
     </g>
     <g id="text_27">
      <!-- 150 -->
      <g transform="translate(265.009007 322.182437)scale(0.1 -0.1)">
       <use xlink:href="#DejaVuSans-31"/>
       <use xlink:href="#DejaVuSans-35" x="63.623047"/>
       <use xlink:href="#DejaVuSans-30" x="127.246094"/>
      </g>
     </g>
    </g>
    <g id="xtick_12">
     <g id="line2d_28">
      <g>
       <use xlink:href="#m7810b19830" x="341.908472" y="307.584" style="stroke: #000000; stroke-width: 0.8"/>
      </g>
     </g>
     <g id="text_28">
      <!-- 200 -->
      <g transform="translate(332.364722 322.182437)scale(0.1 -0.1)">
       <use xlink:href="#DejaVuSans-32"/>
       <use xlink:href="#DejaVuSans-30" x="63.623047"/>
       <use xlink:href="#DejaVuSans-30" x="127.246094"/>
      </g>
     </g>
    </g>
    <g id="xtick_13">
     <g id="line2d_29">
      <g>
       <use xlink:href="#m7810b19830" x="409.264187" y="307.584" style="stroke: #000000; stroke-width: 0.8"/>
      </g>
     </g>
     <g id="text_29">
      <!-- 250 -->
      <g transform="translate(399.720437 322.182437)scale(0.1 -0.1)">
       <use xlink:href="#DejaVuSans-32"/>
       <use xlink:href="#DejaVuSans-35" x="63.623047"/>
       <use xlink:href="#DejaVuSans-30" x="127.246094"/>
      </g>
     </g>
    </g>
   </g>
   <g id="matplotlib.axis_4">
    <g id="ytick_5">
     <g id="line2d_30">
      <g>
       <use xlink:href="#m2d13edefb4" x="57.6" y="302.138008" style="stroke: #000000; stroke-width: 0.8"/>
      </g>
     </g>
     <g id="text_30">
      <!-- 0 -->
      <g transform="translate(44.2375 305.937227)scale(0.1 -0.1)">
       <use xlink:href="#DejaVuSans-30"/>
      </g>
     </g>
    </g>
    <g id="ytick_6">
     <g id="line2d_31">
      <g>
       <use xlink:href="#m2d13edefb4" x="57.6" y="276.043172" style="stroke: #000000; stroke-width: 0.8"/>
      </g>
     </g>
     <g id="text_31">
      <!-- 500 -->
      <g transform="translate(31.5125 279.842391)scale(0.1 -0.1)">
       <use xlink:href="#DejaVuSans-35"/>
       <use xlink:href="#DejaVuSans-30" x="63.623047"/>
       <use xlink:href="#DejaVuSans-30" x="127.246094"/>
      </g>
     </g>
    </g>
    <g id="ytick_7">
     <g id="line2d_32">
      <g>
       <use xlink:href="#m2d13edefb4" x="57.6" y="249.948337" style="stroke: #000000; stroke-width: 0.8"/>
      </g>
     </g>
     <g id="text_32">
      <!-- 1000 -->
      <g transform="translate(25.15 253.747556)scale(0.1 -0.1)">
       <use xlink:href="#DejaVuSans-31"/>
       <use xlink:href="#DejaVuSans-30" x="63.623047"/>
       <use xlink:href="#DejaVuSans-30" x="127.246094"/>
       <use xlink:href="#DejaVuSans-30" x="190.869141"/>
      </g>
     </g>
    </g>
    <g id="ytick_8">
     <g id="line2d_33">
      <g>
       <use xlink:href="#m2d13edefb4" x="57.6" y="223.853502" style="stroke: #000000; stroke-width: 0.8"/>
      </g>
     </g>
     <g id="text_33">
      <!-- 1500 -->
      <g transform="translate(25.15 227.65272)scale(0.1 -0.1)">
       <use xlink:href="#DejaVuSans-31"/>
       <use xlink:href="#DejaVuSans-35" x="63.623047"/>
       <use xlink:href="#DejaVuSans-30" x="127.246094"/>
       <use xlink:href="#DejaVuSans-30" x="190.869141"/>
      </g>
     </g>
    </g>
    <g id="ytick_9">
     <g id="line2d_34">
      <g>
       <use xlink:href="#m2d13edefb4" x="57.6" y="197.758666" style="stroke: #000000; stroke-width: 0.8"/>
      </g>
     </g>
     <g id="text_34">
      <!-- 2000 -->
      <g transform="translate(25.15 201.557885)scale(0.1 -0.1)">
       <use xlink:href="#DejaVuSans-32"/>
       <use xlink:href="#DejaVuSans-30" x="63.623047"/>
       <use xlink:href="#DejaVuSans-30" x="127.246094"/>
       <use xlink:href="#DejaVuSans-30" x="190.869141"/>
      </g>
     </g>
    </g>
   </g>
   <g id="line2d_35">
    <path d="M 73.832727 302.085818 
L 81.915413 302.085818 
L 83.262527 301.616111 
L 84.609642 302.033629 
L 85.956756 302.085818 
L 87.30387 301.82487 
L 88.650985 302.033629 
L 91.345213 302.033629 
L 92.692327 301.459542 
L 94.039442 301.877059 
L 95.386556 301.511732 
L 96.73367 302.085818 
L 98.080785 293.057005 
L 99.427899 300.467938 
L 100.775013 300.937645 
L 102.122127 301.877059 
L 103.469242 299.006628 
L 104.816356 301.877059 
L 107.510585 300.989835 
L 108.857699 302.033629 
L 110.204813 301.929249 
L 111.551928 298.902248 
L 112.899042 301.563921 
L 114.246156 296.553713 
L 115.59327 300.050421 
L 116.940385 297.232179 
L 118.287499 301.668301 
L 119.634613 300.937645 
L 120.981728 300.624507 
L 122.328842 298.6413 
L 123.675956 300.728887 
L 125.023071 301.82487 
L 126.370185 289.873435 
L 127.717299 299.789473 
L 129.064413 301.355163 
L 130.411528 301.250783 
L 131.758642 296.397144 
L 133.105756 301.198594 
L 134.452871 299.998231 
L 135.799985 301.094214 
L 137.147099 299.946042 
L 138.494214 299.998231 
L 139.841328 300.676697 
L 141.188442 301.042025 
L 142.535556 301.198594 
L 143.882671 301.981439 
L 145.229785 290.812849 
L 146.576899 301.459542 
L 147.924014 296.188385 
L 149.271128 301.146404 
L 150.618242 292.169781 
L 151.965356 299.580714 
L 153.312471 299.946042 
L 154.659585 298.015024 
L 156.006699 291.700074 
L 157.353814 301.72049 
L 158.700928 292.743867 
L 160.048042 300.25918 
L 161.395157 299.580714 
L 162.742271 301.302973 
L 164.089385 301.616111 
L 165.436499 300.676697 
L 166.783614 297.962834 
L 169.477842 301.616111 
L 170.824957 301.929249 
L 172.172071 300.624507 
L 173.519185 301.877059 
L 174.8663 301.981439 
L 176.213414 299.319766 
L 177.560528 301.616111 
L 178.907642 296.501523 
L 180.254757 301.407352 
L 181.601871 291.334746 
L 182.948985 300.781076 
L 184.2961 297.388748 
L 185.643214 301.877059 
L 186.990328 300.624507 
L 188.337442 300.1548 
L 192.378785 301.668301 
L 193.7259 294.727075 
L 195.073014 286.428917 
L 196.420128 298.954438 
L 197.767243 301.616111 
L 199.114357 301.355163 
L 200.461471 271.920188 
L 201.808585 289.0384 
L 203.1557 297.545317 
L 204.502814 296.397144 
L 205.849928 292.22197 
L 207.197043 301.146404 
L 208.544157 300.520128 
L 209.891271 263.569841 
L 211.238386 291.439125 
L 212.5855 292.587298 
L 213.932614 296.084006 
L 215.279728 297.179989 
L 216.626843 298.797869 
L 217.973957 260.490651 
L 219.321071 285.698262 
L 220.668186 293.94423 
L 222.0153 293.265764 
L 223.362414 246.138491 
L 224.709528 299.580714 
L 226.056643 265.39648 
L 227.403757 298.850059 
L 228.750871 299.215386 
L 230.097986 267.849394 
L 231.4451 285.541693 
L 232.792214 288.620883 
L 234.139329 300.415749 
L 236.833557 294.205178 
L 238.180671 301.459542 
L 239.527786 291.282556 
L 240.8749 285.385124 
L 242.222014 299.163197 
L 243.569129 274.268724 
L 244.916243 284.758847 
L 246.263357 301.250783 
L 247.610472 293.683281 
L 248.957586 192.122182 
L 250.3047 237.996902 
L 251.651814 301.929249 
L 252.998929 295.823058 
L 254.346043 293.683281 
L 255.693157 297.440937 
L 257.040272 289.821246 
L 259.7345 196.610494 
L 261.081614 257.254891 
L 262.428729 298.745679 
L 263.775843 282.253743 
L 265.122957 293.526712 
L 266.470072 267.692825 
L 267.817186 263.72641 
L 269.1643 296.866851 
L 270.511415 292.117591 
L 271.858529 297.858455 
L 273.205643 295.927437 
L 274.552757 289.194969 
L 275.899872 296.240575 
L 277.246986 294.518316 
L 278.5941 274.686241 
L 279.941215 298.536921 
L 281.288329 232.621366 
L 282.635443 302.033629 
L 283.982558 239.92792 
L 285.329672 290.499711 
L 286.676786 299.737283 
L 288.0239 293.213574 
L 289.371015 283.976002 
L 290.718129 285.698262 
L 292.065243 267.536256 
L 293.412358 260.699409 
L 294.759472 297.127799 
L 296.106586 240.084489 
L 297.4537 260.229702 
L 298.800815 294.988023 
L 300.147929 267.118739 
L 301.495043 297.858455 
L 302.842158 287.055193 
L 304.189272 287.994607 
L 305.536386 264.770204 
L 306.883501 301.72049 
L 308.230615 301.198594 
L 309.577729 249.843958 
L 310.924843 297.962834 
L 312.271958 301.042025 
L 313.619072 301.877059 
L 314.966186 298.69349 
L 316.313301 301.094214 
L 317.660415 300.885456 
L 319.007529 254.488838 
L 320.354644 280.113967 
L 321.701758 257.046132 
L 323.048872 281.679657 
L 324.395986 266.127135 
L 325.743101 297.493127 
L 327.090215 258.664012 
L 328.437329 274.007775 
L 329.784444 277.086966 
L 331.131558 302.033629 
L 332.478672 276.4085 
L 333.825786 294.152988 
L 335.172901 298.850059 
L 337.867129 240.554196 
L 339.214244 286.376727 
L 340.561358 284.445709 
L 341.908472 261.899772 
L 343.255587 290.030004 
L 344.602701 282.671261 
L 345.949815 281.888416 
L 347.296929 295.45773 
L 348.644044 300.937645 
L 349.991158 243.372439 
L 351.338272 249.374251 
L 352.685387 253.653804 
L 354.032501 297.545317 
L 355.379615 302.033629 
L 356.72673 289.769056 
L 358.073844 296.605903 
L 359.420958 258.246495 
L 360.768072 299.580714 
L 362.115187 301.302973 
L 363.462301 296.449334 
L 364.809415 262.526048 
L 366.15653 301.616111 
L 367.503644 297.493127 
L 368.850758 273.016172 
L 370.197873 294.309557 
L 371.544987 230.951297 
L 372.892101 301.355163 
L 374.239215 286.324538 
L 375.58633 296.97123 
L 376.933444 298.536921 
L 378.280558 273.799017 
L 379.627673 268.319101 
L 380.974787 272.911792 
L 382.321901 301.094214 
L 383.669015 292.900436 
L 385.01613 294.674885 
L 386.363244 291.282556 
L 387.710358 268.005963 
L 389.057473 192.43532 
L 390.404587 259.499047 
L 391.751701 297.649696 
L 393.098816 300.728887 
L 394.44593 301.146404 
L 395.793044 262.995755 
L 397.140158 298.171593 
L 398.487273 277.97419 
L 398.487273 277.97419 
" clip-path="url(#pecc400d8a2)" style="fill: none; stroke: #1f77b4; stroke-width: 1.5; stroke-linecap: square"/>
   </g>
   <g id="patch_8">
    <path d="M 57.6 307.584 
L 57.6 186.624 
" style="fill: none; stroke: #000000; stroke-width: 0.8; stroke-linejoin: miter; stroke-linecap: square"/>
   </g>
   <g id="patch_9">
    <path d="M 414.72 307.584 
L 414.72 186.624 
" style="fill: none; stroke: #000000; stroke-width: 0.8; stroke-linejoin: miter; stroke-linecap: square"/>
   </g>
   <g id="patch_10">
    <path d="M 57.6 307.584 
L 414.72 307.584 
" style="fill: none; stroke: #000000; stroke-width: 0.8; stroke-linejoin: miter; stroke-linecap: square"/>
   </g>
   <g id="patch_11">
    <path d="M 57.6 186.624 
L 414.72 186.624 
" style="fill: none; stroke: #000000; stroke-width: 0.8; stroke-linejoin: miter; stroke-linecap: square"/>
   </g>
  </g>
 </g>
 <defs>
  <clipPath id="p1bcf326d27">
   <rect x="57.6" y="41.472" width="357.12" height="120.96"/>
  </clipPath>
  <clipPath id="pecc400d8a2">
   <rect x="57.6" y="186.624" width="357.12" height="120.96"/>
  </clipPath>
 </defs>
</svg>
