<?xml version="1.0" encoding="utf-8" standalone="no"?>
<!DOCTYPE svg PUBLIC "-//W3C//DTD SVG 1.1//EN"
  "http://www.w3.org/Graphics/SVG/1.1/DTD/svg11.dtd">
<svg xmlns:xlink="http://www.w3.org/1999/xlink" width="460.8pt" height="345.6pt" viewBox="0 0 460.8 345.6" xmlns="http://www.w3.org/2000/svg" version="1.1">
 <metadata>
  <rdf:RDF xmlns:dc="http://purl.org/dc/elements/1.1/" xmlns:cc="http://creativecommons.org/ns#" xmlns:rdf="http://www.w3.org/1999/02/22-rdf-syntax-ns#">
   <cc:Work>
    <dc:type rdf:resource="http://purl.org/dc/dcmitype/StillImage"/>
    <dc:date>2022-05-13T12:58:23.378439</dc:date>
    <dc:format>image/svg+xml</dc:format>
    <dc:creator>
     <cc:Agent>
      <dc:title>Matplotlib v3.5.1, https://matplotlib.org/</dc:title>
     </cc:Agent>
    </dc:creator>
   </cc:Work>
  </rdf:RDF>
 </metadata>
 <defs>
  <style type="text/css">*{stroke-linejoin: round; stroke-linecap: butt}</style>
 </defs>
 <g id="figure_1">
  <g id="patch_1">
   <path d="M 0 345.6 
L 460.8 345.6 
L 460.8 0 
L 0 0 
z
" style="fill: #ffffff"/>
  </g>
  <g id="axes_1">
   <g id="patch_2">
    <path d="M 57.6 162.432 
L 414.72 162.432 
L 414.72 41.472 
L 57.6 41.472 
z
" style="fill: #ffffff"/>
   </g>
   <g id="matplotlib.axis_1">
    <g id="xtick_1">
     <g id="line2d_1">
      <defs>
       <path id="mb0252b7f3b" d="M 0 0 
L 0 3.5 
" style="stroke: #000000; stroke-width: 0.8"/>
      </defs>
      <g>
       <use xlink:href="#mb0252b7f3b" x="73.827491" y="162.432" style="stroke: #000000; stroke-width: 0.8"/>
      </g>
     </g>
     <g id="text_1">
      <!-- 0 -->
      <g transform="translate(70.646241 177.030437)scale(0.1 -0.1)">
       <defs>
        <path id="DejaVuSans-30" d="M 2034 4250 
Q 1547 4250 1301 3770 
Q 1056 3291 1056 2328 
Q 1056 1369 1301 889 
Q 1547 409 2034 409 
Q 2525 409 2770 889 
Q 3016 1369 3016 2328 
Q 3016 3291 2770 3770 
Q 2525 4250 2034 4250 
z
M 2034 4750 
Q 2819 4750 3233 4129 
Q 3647 3509 3647 2328 
Q 3647 1150 3233 529 
Q 2819 -91 2034 -91 
Q 1250 -91 836 529 
Q 422 1150 422 2328 
Q 422 3509 836 4129 
Q 1250 4750 2034 4750 
z
" transform="scale(0.015625)"/>
       </defs>
       <use xlink:href="#DejaVuSans-30"/>
      </g>
     </g>
    </g>
    <g id="xtick_2">
     <g id="line2d_2">
      <g>
       <use xlink:href="#mb0252b7f3b" x="126.191972" y="162.432" style="stroke: #000000; stroke-width: 0.8"/>
      </g>
     </g>
     <g id="text_2">
      <!-- 10000 -->
      <g transform="translate(110.285722 177.030437)scale(0.1 -0.1)">
       <defs>
        <path id="DejaVuSans-31" d="M 794 531 
L 1825 531 
L 1825 4091 
L 703 3866 
L 703 4441 
L 1819 4666 
L 2450 4666 
L 2450 531 
L 3481 531 
L 3481 0 
L 794 0 
L 794 531 
z
" transform="scale(0.015625)"/>
       </defs>
       <use xlink:href="#DejaVuSans-31"/>
       <use xlink:href="#DejaVuSans-30" x="63.623047"/>
       <use xlink:href="#DejaVuSans-30" x="127.246094"/>
       <use xlink:href="#DejaVuSans-30" x="190.869141"/>
       <use xlink:href="#DejaVuSans-30" x="254.492188"/>
      </g>
     </g>
    </g>
    <g id="xtick_3">
     <g id="line2d_3">
      <g>
       <use xlink:href="#mb0252b7f3b" x="178.556453" y="162.432" style="stroke: #000000; stroke-width: 0.8"/>
      </g>
     </g>
     <g id="text_3">
      <!-- 20000 -->
      <g transform="translate(162.650203 177.030437)scale(0.1 -0.1)">
       <defs>
        <path id="DejaVuSans-32" d="M 1228 531 
L 3431 531 
L 3431 0 
L 469 0 
L 469 531 
Q 828 903 1448 1529 
Q 2069 2156 2228 2338 
Q 2531 2678 2651 2914 
Q 2772 3150 2772 3378 
Q 2772 3750 2511 3984 
Q 2250 4219 1831 4219 
Q 1534 4219 1204 4116 
Q 875 4013 500 3803 
L 500 4441 
Q 881 4594 1212 4672 
Q 1544 4750 1819 4750 
Q 2544 4750 2975 4387 
Q 3406 4025 3406 3419 
Q 3406 3131 3298 2873 
Q 3191 2616 2906 2266 
Q 2828 2175 2409 1742 
Q 1991 1309 1228 531 
z
" transform="scale(0.015625)"/>
       </defs>
       <use xlink:href="#DejaVuSans-32"/>
       <use xlink:href="#DejaVuSans-30" x="63.623047"/>
       <use xlink:href="#DejaVuSans-30" x="127.246094"/>
       <use xlink:href="#DejaVuSans-30" x="190.869141"/>
       <use xlink:href="#DejaVuSans-30" x="254.492188"/>
      </g>
     </g>
    </g>
    <g id="xtick_4">
     <g id="line2d_4">
      <g>
       <use xlink:href="#mb0252b7f3b" x="230.920934" y="162.432" style="stroke: #000000; stroke-width: 0.8"/>
      </g>
     </g>
     <g id="text_4">
      <!-- 30000 -->
      <g transform="translate(215.014684 177.030437)scale(0.1 -0.1)">
       <defs>
        <path id="DejaVuSans-33" d="M 2597 2516 
Q 3050 2419 3304 2112 
Q 3559 1806 3559 1356 
Q 3559 666 3084 287 
Q 2609 -91 1734 -91 
Q 1441 -91 1130 -33 
Q 819 25 488 141 
L 488 750 
Q 750 597 1062 519 
Q 1375 441 1716 441 
Q 2309 441 2620 675 
Q 2931 909 2931 1356 
Q 2931 1769 2642 2001 
Q 2353 2234 1838 2234 
L 1294 2234 
L 1294 2753 
L 1863 2753 
Q 2328 2753 2575 2939 
Q 2822 3125 2822 3475 
Q 2822 3834 2567 4026 
Q 2313 4219 1838 4219 
Q 1578 4219 1281 4162 
Q 984 4106 628 3988 
L 628 4550 
Q 988 4650 1302 4700 
Q 1616 4750 1894 4750 
Q 2613 4750 3031 4423 
Q 3450 4097 3450 3541 
Q 3450 3153 3228 2886 
Q 3006 2619 2597 2516 
z
" transform="scale(0.015625)"/>
       </defs>
       <use xlink:href="#DejaVuSans-33"/>
       <use xlink:href="#DejaVuSans-30" x="63.623047"/>
       <use xlink:href="#DejaVuSans-30" x="127.246094"/>
       <use xlink:href="#DejaVuSans-30" x="190.869141"/>
       <use xlink:href="#DejaVuSans-30" x="254.492188"/>
      </g>
     </g>
    </g>
    <g id="xtick_5">
     <g id="line2d_5">
      <g>
       <use xlink:href="#mb0252b7f3b" x="283.285415" y="162.432" style="stroke: #000000; stroke-width: 0.8"/>
      </g>
     </g>
     <g id="text_5">
      <!-- 40000 -->
      <g transform="translate(267.379165 177.030437)scale(0.1 -0.1)">
       <defs>
        <path id="DejaVuSans-34" d="M 2419 4116 
L 825 1625 
L 2419 1625 
L 2419 4116 
z
M 2253 4666 
L 3047 4666 
L 3047 1625 
L 3713 1625 
L 3713 1100 
L 3047 1100 
L 3047 0 
L 2419 0 
L 2419 1100 
L 313 1100 
L 313 1709 
L 2253 4666 
z
" transform="scale(0.015625)"/>
       </defs>
       <use xlink:href="#DejaVuSans-34"/>
       <use xlink:href="#DejaVuSans-30" x="63.623047"/>
       <use xlink:href="#DejaVuSans-30" x="127.246094"/>
       <use xlink:href="#DejaVuSans-30" x="190.869141"/>
       <use xlink:href="#DejaVuSans-30" x="254.492188"/>
      </g>
     </g>
    </g>
    <g id="xtick_6">
     <g id="line2d_6">
      <g>
       <use xlink:href="#mb0252b7f3b" x="335.649896" y="162.432" style="stroke: #000000; stroke-width: 0.8"/>
      </g>
     </g>
     <g id="text_6">
      <!-- 50000 -->
      <g transform="translate(319.743646 177.030437)scale(0.1 -0.1)">
       <defs>
        <path id="DejaVuSans-35" d="M 691 4666 
L 3169 4666 
L 3169 4134 
L 1269 4134 
L 1269 2991 
Q 1406 3038 1543 3061 
Q 1681 3084 1819 3084 
Q 2600 3084 3056 2656 
Q 3513 2228 3513 1497 
Q 3513 744 3044 326 
Q 2575 -91 1722 -91 
Q 1428 -91 1123 -41 
Q 819 9 494 109 
L 494 744 
Q 775 591 1075 516 
Q 1375 441 1709 441 
Q 2250 441 2565 725 
Q 2881 1009 2881 1497 
Q 2881 1984 2565 2268 
Q 2250 2553 1709 2553 
Q 1456 2553 1204 2497 
Q 953 2441 691 2322 
L 691 4666 
z
" transform="scale(0.015625)"/>
       </defs>
       <use xlink:href="#DejaVuSans-35"/>
       <use xlink:href="#DejaVuSans-30" x="63.623047"/>
       <use xlink:href="#DejaVuSans-30" x="127.246094"/>
       <use xlink:href="#DejaVuSans-30" x="190.869141"/>
       <use xlink:href="#DejaVuSans-30" x="254.492188"/>
      </g>
     </g>
    </g>
    <g id="xtick_7">
     <g id="line2d_7">
      <g>
       <use xlink:href="#mb0252b7f3b" x="388.014377" y="162.432" style="stroke: #000000; stroke-width: 0.8"/>
      </g>
     </g>
     <g id="text_7">
      <!-- 60000 -->
      <g transform="translate(372.108127 177.030437)scale(0.1 -0.1)">
       <defs>
        <path id="DejaVuSans-36" d="M 2113 2584 
Q 1688 2584 1439 2293 
Q 1191 2003 1191 1497 
Q 1191 994 1439 701 
Q 1688 409 2113 409 
Q 2538 409 2786 701 
Q 3034 994 3034 1497 
Q 3034 2003 2786 2293 
Q 2538 2584 2113 2584 
z
M 3366 4563 
L 3366 3988 
Q 3128 4100 2886 4159 
Q 2644 4219 2406 4219 
Q 1781 4219 1451 3797 
Q 1122 3375 1075 2522 
Q 1259 2794 1537 2939 
Q 1816 3084 2150 3084 
Q 2853 3084 3261 2657 
Q 3669 2231 3669 1497 
Q 3669 778 3244 343 
Q 2819 -91 2113 -91 
Q 1303 -91 875 529 
Q 447 1150 447 2328 
Q 447 3434 972 4092 
Q 1497 4750 2381 4750 
Q 2619 4750 2861 4703 
Q 3103 4656 3366 4563 
z
" transform="scale(0.015625)"/>
       </defs>
       <use xlink:href="#DejaVuSans-36"/>
       <use xlink:href="#DejaVuSans-30" x="63.623047"/>
       <use xlink:href="#DejaVuSans-30" x="127.246094"/>
       <use xlink:href="#DejaVuSans-30" x="190.869141"/>
       <use xlink:href="#DejaVuSans-30" x="254.492188"/>
      </g>
     </g>
    </g>
   </g>
   <g id="matplotlib.axis_2">
    <g id="ytick_1">
     <g id="line2d_8">
      <defs>
       <path id="md0ff5cfb6b" d="M 0 0 
L -3.5 0 
" style="stroke: #000000; stroke-width: 0.8"/>
      </defs>
      <g>
       <use xlink:href="#md0ff5cfb6b" x="57.6" y="145.482099" style="stroke: #000000; stroke-width: 0.8"/>
      </g>
     </g>
     <g id="text_8">
      <!-- 20 -->
      <g transform="translate(37.875 149.281317)scale(0.1 -0.1)">
       <use xlink:href="#DejaVuSans-32"/>
       <use xlink:href="#DejaVuSans-30" x="63.623047"/>
      </g>
     </g>
    </g>
    <g id="ytick_2">
     <g id="line2d_9">
      <g>
       <use xlink:href="#md0ff5cfb6b" x="57.6" y="122.229876" style="stroke: #000000; stroke-width: 0.8"/>
      </g>
     </g>
     <g id="text_9">
      <!-- 40 -->
      <g transform="translate(37.875 126.029095)scale(0.1 -0.1)">
       <use xlink:href="#DejaVuSans-34"/>
       <use xlink:href="#DejaVuSans-30" x="63.623047"/>
      </g>
     </g>
    </g>
    <g id="ytick_3">
     <g id="line2d_10">
      <g>
       <use xlink:href="#md0ff5cfb6b" x="57.6" y="98.977653" style="stroke: #000000; stroke-width: 0.8"/>
      </g>
     </g>
     <g id="text_10">
      <!-- 60 -->
      <g transform="translate(37.875 102.776872)scale(0.1 -0.1)">
       <use xlink:href="#DejaVuSans-36"/>
       <use xlink:href="#DejaVuSans-30" x="63.623047"/>
      </g>
     </g>
    </g>
    <g id="ytick_4">
     <g id="line2d_11">
      <g>
       <use xlink:href="#md0ff5cfb6b" x="57.6" y="75.725431" style="stroke: #000000; stroke-width: 0.8"/>
      </g>
     </g>
     <g id="text_11">
      <!-- 80 -->
      <g transform="translate(37.875 79.524649)scale(0.1 -0.1)">
       <defs>
        <path id="DejaVuSans-38" d="M 2034 2216 
Q 1584 2216 1326 1975 
Q 1069 1734 1069 1313 
Q 1069 891 1326 650 
Q 1584 409 2034 409 
Q 2484 409 2743 651 
Q 3003 894 3003 1313 
Q 3003 1734 2745 1975 
Q 2488 2216 2034 2216 
z
M 1403 2484 
Q 997 2584 770 2862 
Q 544 3141 544 3541 
Q 544 4100 942 4425 
Q 1341 4750 2034 4750 
Q 2731 4750 3128 4425 
Q 3525 4100 3525 3541 
Q 3525 3141 3298 2862 
Q 3072 2584 2669 2484 
Q 3125 2378 3379 2068 
Q 3634 1759 3634 1313 
Q 3634 634 3220 271 
Q 2806 -91 2034 -91 
Q 1263 -91 848 271 
Q 434 634 434 1313 
Q 434 1759 690 2068 
Q 947 2378 1403 2484 
z
M 1172 3481 
Q 1172 3119 1398 2916 
Q 1625 2713 2034 2713 
Q 2441 2713 2670 2916 
Q 2900 3119 2900 3481 
Q 2900 3844 2670 4047 
Q 2441 4250 2034 4250 
Q 1625 4250 1398 4047 
Q 1172 3844 1172 3481 
z
" transform="scale(0.015625)"/>
       </defs>
       <use xlink:href="#DejaVuSans-38"/>
       <use xlink:href="#DejaVuSans-30" x="63.623047"/>
      </g>
     </g>
    </g>
    <g id="ytick_5">
     <g id="line2d_12">
      <g>
       <use xlink:href="#md0ff5cfb6b" x="57.6" y="52.473208" style="stroke: #000000; stroke-width: 0.8"/>
      </g>
     </g>
     <g id="text_12">
      <!-- 100 -->
      <g transform="translate(31.5125 56.272427)scale(0.1 -0.1)">
       <use xlink:href="#DejaVuSans-31"/>
       <use xlink:href="#DejaVuSans-30" x="63.623047"/>
       <use xlink:href="#DejaVuSans-30" x="127.246094"/>
      </g>
     </g>
    </g>
   </g>
   <g id="line2d_13">
    <path d="M 73.832727 53.635819 
L 73.963638 58.286264 
L 74.09455 58.286264 
L 74.173096 61.774097 
L 74.220224 61.541575 
L 74.319717 61.541575 
L 74.440155 63.866797 
L 74.764815 63.866797 
L 74.880017 65.029408 
L 75.026637 65.029408 
L 75.147076 67.35463 
L 75.932543 67.35463 
L 76.047745 68.517241 
L 76.079164 68.517241 
L 76.194365 68.226589 
L 76.503316 68.226589 
L 76.618518 69.3892 
L 76.691828 69.3892 
L 76.80703 70.551811 
L 76.911759 70.551811 
L 77.032197 72.877033 
L 77.477295 72.877033 
L 77.592497 74.039644 
L 77.812428 74.039644 
L 77.92763 73.458339 
L 79.320525 73.458339 
L 79.435727 74.62095 
L 80.781494 74.62095 
L 80.896696 75.783561 
L 82.54094 75.783561 
L 82.656142 76.946172 
L 83.593467 76.946172 
L 83.708668 78.108783 
L 83.766269 78.108783 
L 83.881471 79.271394 
L 84.970652 79.271394 
L 85.085854 80.434006 
L 85.551898 80.434006 
L 85.6671 81.596617 
L 87.279926 81.596617 
L 87.395128 81.015311 
L 89.144102 81.015311 
L 89.19123 80.434006 
L 89.196466 81.596617 
L 89.24883 81.596617 
L 89.26454 81.596617 
L 89.379742 82.759228 
L 90.720272 82.759228 
L 90.746455 83.921839 
L 90.830238 83.340533 
L 93.045255 83.340533 
L 93.113329 84.503145 
L 93.155221 83.921839 
L 94.144909 83.921839 
L 94.260111 83.689317 
L 94.490515 83.689317 
L 94.605717 83.108011 
L 94.61619 83.108011 
L 94.731392 84.270622 
L 95.302164 84.270622 
L 95.417366 85.433233 
L 95.694898 85.433233 
L 95.8101 86.595845 
L 96.763133 86.595845 
L 96.878335 87.758456 
L 98.161265 87.758456 
L 98.276467 87.17715 
L 100.213953 87.17715 
L 100.329155 88.339761 
L 102.905487 88.339761 
L 103.020689 87.758456 
L 103.444841 87.758456 
L 103.560043 88.921067 
L 103.811393 88.921067 
L 103.926594 90.083678 
L 104.544495 90.083678 
L 104.664934 92.4089 
L 104.706825 92.4089 
L 104.822027 91.827595 
L 105.55513 91.827595 
L 105.670332 92.990206 
L 105.858844 92.990206 
L 105.974046 92.4089 
L 107.167956 92.4089 
L 107.283158 93.571511 
L 113.179398 93.571511 
L 113.2946 94.734123 
L 115.551509 94.734123 
L 115.666711 95.896734 
L 115.740021 95.896734 
L 115.855223 95.315428 
L 122.615478 95.315428 
L 122.73068 96.478039 
L 122.814463 96.478039 
L 122.929665 97.64065 
L 126.019169 97.64065 
L 126.134371 98.803262 
L 129.42286 98.803262 
L 129.538062 99.965873 
L 144.938456 99.965873 
L 145.053658 99.384567 
L 163.972945 99.384567 
L 164.030546 100.547178 
L 164.08291 99.965873 
L 172.812069 99.965873 
L 172.927271 101.128484 
L 177.598183 101.128484 
L 177.713385 102.291095 
L 178.493615 102.291095 
L 178.608817 103.453706 
L 186.814331 103.453706 
L 186.929533 104.616317 
L 187.128518 104.616317 
L 187.24372 105.778928 
L 189.217861 105.778928 
L 189.333063 106.941539 
L 195.616801 106.941539 
L 195.732002 108.104151 
L 196.904967 108.104151 
L 197.020169 109.266762 
L 197.166789 109.266762 
L 197.281991 110.429373 
L 198.491611 110.429373 
L 198.606812 109.848067 
L 200.690919 109.848067 
L 200.806121 109.266762 
L 201.518278 109.266762 
L 201.633479 110.429373 
L 202.387528 110.429373 
L 202.50273 111.591984 
L 223.008661 111.591984 
L 223.123862 112.754595 
L 227.297312 112.754595 
L 227.412513 113.917206 
L 232.439504 113.917206 
L 232.554705 115.079817 
L 233.979019 115.079817 
L 234.094221 116.242429 
L 236.607716 116.242429 
L 236.722918 117.40504 
L 240.063772 117.40504 
L 240.178974 118.567651 
L 246.90781 118.567651 
L 247.023012 119.730262 
L 249.1333 119.730262 
L 249.248502 119.148956 
L 249.358467 119.148956 
L 249.473669 120.311567 
L 255.9145 120.311567 
L 256.029702 121.474179 
L 270.592264 121.474179 
L 270.707466 122.63679 
L 274.027374 122.63679 
L 274.142576 123.799401 
L 274.205414 123.799401 
L 274.320615 124.962012 
L 276.619416 124.962012 
L 276.734618 126.124623 
L 280.551989 126.124623 
L 280.667191 127.287234 
L 285.463777 127.287234 
L 285.495196 128.449845 
L 285.573742 127.86854 
L 293.334159 127.86854 
L 293.44936 129.031151 
L 297.088692 129.031151 
L 297.203894 130.193762 
L 297.340041 130.193762 
L 297.455243 131.356373 
L 298.345439 131.356373 
L 298.460641 132.518984 
L 298.774828 132.518984 
L 298.89003 133.681596 
L 302.539834 133.681596 
L 302.655036 134.844207 
L 307.744864 134.844207 
L 307.860066 136.006818 
L 315.850885 136.006818 
L 315.966087 137.169429 
L 317.385165 137.169429 
L 317.500366 138.33204 
L 320.830747 138.33204 
L 320.945949 137.750734 
L 322.867726 137.750734 
L 322.982928 137.169429 
L 337.409342 137.169429 
L 337.524544 138.33204 
L 337.702583 138.33204 
L 337.817785 137.750734 
L 341.766067 137.750734 
L 341.881269 137.169429 
L 343.818755 137.169429 
L 343.933956 138.33204 
L 344.949827 138.33204 
L 345.065029 139.494651 
L 345.290197 139.494651 
L 345.405398 140.657262 
L 345.510127 140.657262 
L 345.625329 141.819873 
L 348.295918 141.819873 
L 348.41112 142.982485 
L 353.60044 142.982485 
L 353.715642 144.145096 
L 355.150428 144.145096 
L 355.26563 143.56379 
L 355.731674 143.56379 
L 355.846876 144.726401 
L 363.806277 144.726401 
L 363.921479 144.145096 
L 365.989876 144.145096 
L 366.105078 145.307707 
L 367.759795 145.307707 
L 367.874997 146.470318 
L 370.079542 146.470318 
L 370.194744 147.632929 
L 373.368031 147.632929 
L 373.48847 149.958151 
L 374.174444 149.958151 
L 374.289646 149.376846 
L 377.729992 149.376846 
L 377.845194 148.79554 
L 379.746025 148.79554 
L 379.861227 149.958151 
L 380.484364 149.958151 
L 380.599566 149.376846 
L 380.939935 149.376846 
L 381.055137 150.539457 
L 382.709855 150.539457 
L 382.825056 149.958151 
L 386.171147 149.958151 
L 386.286349 151.120763 
L 386.574353 151.120763 
L 386.689555 152.283374 
L 386.851885 152.283374 
L 386.967087 153.445985 
L 389.428218 153.445985 
L 389.543419 154.608596 
L 394.031055 154.608596 
L 394.146257 155.771207 
L 394.80605 155.771207 
L 394.921252 156.933818 
L 398.487273 156.933818 
L 398.487273 156.933818 
" clip-path="url(#pe84eeacc3a)" style="fill: none; stroke: #1f77b4; stroke-width: 1.5; stroke-linecap: square"/>
   </g>
   <g id="line2d_14">
    <path d="M 73.832727 52.473208 
L 73.900801 51.019944 
L 73.947929 52.182555 
L 74.026476 52.182555 
L 74.115495 55.670388 
L 74.141678 53.345166 
L 74.173096 53.345166 
L 74.262116 54.507777 
L 74.283062 53.345166 
L 74.387791 53.345166 
L 74.502993 52.182555 
L 76.079164 52.182555 
L 76.194365 53.345166 
L 76.503316 53.345166 
L 76.618518 54.507777 
L 76.691828 54.507777 
L 76.80703 55.670388 
L 76.911759 55.670388 
L 77.026961 54.507777 
L 77.812428 54.507777 
L 77.92763 55.670388 
L 79.817987 55.670388 
L 79.933189 56.833 
L 80.378287 56.833 
L 80.493489 55.670388 
L 80.781494 55.670388 
L 80.823385 56.833 
L 80.891459 55.670388 
L 81.195173 55.670388 
L 81.310375 54.507777 
L 82.441448 54.507777 
L 82.561886 56.833 
L 82.609014 56.833 
L 82.724216 55.670388 
L 83.593467 55.670388 
L 83.713905 57.995611 
L 83.766269 57.995611 
L 83.881471 56.833 
L 84.79785 56.833 
L 84.913051 55.670388 
L 84.970652 55.670388 
L 85.085854 56.833 
L 85.237711 56.833 
L 85.352913 57.995611 
L 85.551898 57.995611 
L 85.6671 56.833 
L 87.279926 56.833 
L 87.395128 56.251694 
L 89.049845 56.251694 
L 89.165047 57.414305 
L 89.19123 57.414305 
L 89.26454 58.576916 
L 89.301195 57.414305 
L 89.725347 57.414305 
L 89.840549 56.251694 
L 90.720272 56.251694 
L 90.746455 57.414305 
L 90.830238 56.833 
L 91.997966 56.833 
L 92.113168 57.995611 
L 92.458773 57.995611 
L 92.573975 56.833 
L 92.589684 56.833 
L 92.605394 57.995611 
L 92.69965 56.833 
L 93.045255 56.833 
L 93.113329 57.995611 
L 93.155221 57.414305 
L 94.144909 57.414305 
L 94.265348 59.739527 
L 94.490515 59.739527 
L 94.605717 59.158222 
L 94.61619 59.158222 
L 94.731392 57.995611 
L 95.302164 57.995611 
L 95.417366 59.158222 
L 95.694898 59.158222 
L 95.8101 57.995611 
L 96.391346 57.995611 
L 96.506548 59.158222 
L 96.763133 59.158222 
L 96.878335 57.995611 
L 98.161265 57.995611 
L 98.276467 59.158222 
L 98.292176 59.158222 
L 98.407378 57.995611 
L 100.213953 57.995611 
L 100.329155 56.833 
L 100.884218 56.833 
L 100.99942 57.995611 
L 102.905487 57.995611 
L 103.020689 57.414305 
L 103.444841 57.414305 
L 103.560043 58.576916 
L 103.617644 58.576916 
L 103.732846 59.739527 
L 103.811393 59.739527 
L 103.926594 60.902139 
L 103.958013 60.902139 
L 104.073215 59.739527 
L 104.177944 59.739527 
L 104.293146 60.902139 
L 104.387402 60.902139 
L 104.502604 59.739527 
L 104.544495 59.739527 
L 104.617806 60.902139 
L 104.654461 59.739527 
L 104.706825 59.739527 
L 104.822027 59.158222 
L 105.55513 59.158222 
L 105.670332 60.320833 
L 105.785534 59.158222 
L 105.858844 59.158222 
L 105.974046 58.576916 
L 106.162558 58.576916 
L 106.27776 59.739527 
L 107.167956 59.739527 
L 107.230793 60.902139 
L 107.277921 59.739527 
L 107.304103 59.739527 
L 107.419305 58.576916 
L 115.551509 58.576916 
L 115.666711 59.739527 
L 115.740021 59.739527 
L 115.855223 59.158222 
L 116.808257 59.158222 
L 116.923459 60.320833 
L 117.2167 60.320833 
L 117.331902 59.158222 
L 119.112294 59.158222 
L 119.227496 57.995611 
L 119.546919 57.995611 
L 119.662121 56.833 
L 119.688303 56.833 
L 119.803505 57.995611 
L 120.793194 57.995611 
L 120.908396 59.158222 
L 122.615478 59.158222 
L 122.73068 60.320833 
L 122.814463 60.320833 
L 122.929665 59.158222 
L 124.568673 59.158222 
L 124.683875 57.995611 
L 126.019169 57.995611 
L 126.134371 59.158222 
L 128.736886 59.158222 
L 128.852087 60.320833 
L 129.42286 60.320833 
L 129.538062 59.158222 
L 138.042054 59.158222 
L 138.157256 60.320833 
L 138.712319 60.320833 
L 138.832757 57.995611 
L 142.20503 57.995611 
L 142.320232 59.158222 
L 144.571905 59.158222 
L 144.692343 61.483444 
L 144.749944 61.483444 
L 144.865146 60.320833 
L 144.938456 60.320833 
L 145.053658 59.739527 
L 154.966254 59.739527 
L 155.081456 58.576916 
L 155.411352 58.576916 
L 155.526554 59.739527 
L 157.778227 59.739527 
L 157.893429 58.576916 
L 160.935805 58.576916 
L 161.051007 59.739527 
L 162.632414 59.739527 
L 162.747616 58.576916 
L 163.224133 58.576916 
L 163.339335 59.739527 
L 163.972945 59.739527 
L 164.030546 60.902139 
L 164.08291 60.320833 
L 167.313799 60.320833 
L 167.429001 59.158222 
L 172.812069 59.158222 
L 172.927271 60.320833 
L 175.02185 60.320833 
L 175.137052 61.483444 
L 175.189417 61.483444 
L 175.304618 60.320833 
L 177.598183 60.320833 
L 177.713385 61.483444 
L 177.990916 61.483444 
L 178.106118 60.320833 
L 178.493615 60.320833 
L 178.608817 61.483444 
L 178.87064 61.483444 
L 178.985841 60.320833 
L 183.373985 60.320833 
L 183.489187 59.158222 
L 184.122797 59.158222 
L 184.237999 60.320833 
L 184.505058 60.320833 
L 184.62026 59.158222 
L 186.814331 59.158222 
L 186.929533 57.995611 
L 187.128518 57.995611 
L 187.24372 59.158222 
L 189.217861 59.158222 
L 189.333063 60.320833 
L 189.898599 60.320833 
L 190.019038 62.646055 
L 190.087111 62.646055 
L 190.202313 61.483444 
L 190.521737 61.483444 
L 190.636938 60.320833 
L 190.75214 60.320833 
L 190.867342 59.158222 
L 195.616801 59.158222 
L 195.732002 60.320833 
L 196.904967 60.320833 
L 197.020169 61.483444 
L 197.166789 61.483444 
L 197.281991 60.320833 
L 198.491611 60.320833 
L 198.606812 59.739527 
L 200.455279 59.739527 
L 200.570481 60.902139 
L 200.690919 60.902139 
L 200.806121 60.320833 
L 201.518278 60.320833 
L 201.633479 61.483444 
L 202.288035 61.483444 
L 202.387528 60.320833 
L 202.398001 61.483444 
L 203.131104 61.483444 
L 203.246305 60.320833 
L 208.01671 60.320833 
L 208.131912 61.483444 
L 208.844069 61.483444 
L 208.95927 62.646055 
L 209.011635 62.646055 
L 209.126837 61.483444 
L 209.760447 61.483444 
L 209.875649 60.320833 
L 217.855996 60.320833 
L 217.876941 59.158222 
L 217.965961 60.320833 
L 220.212397 60.320833 
L 220.327599 61.483444 
L 222.621163 61.483444 
L 222.736365 62.646055 
L 222.814912 62.646055 
L 222.930114 61.483444 
L 223.008661 61.483444 
L 223.123862 60.320833 
L 224.003586 60.320833 
L 224.118788 61.483444 
L 224.14497 61.483444 
L 224.260172 60.320833 
L 226.260495 60.320833 
L 226.328569 61.483444 
L 226.37046 60.320833 
L 227.297312 60.320833 
L 227.370622 61.483444 
L 227.407277 60.320833 
L 232.439504 60.320833 
L 232.554705 61.483444 
L 232.664671 61.483444 
L 232.779873 60.320833 
L 233.821926 60.320833 
L 233.937128 61.483444 
L 233.979019 61.483444 
L 234.094221 60.320833 
L 234.27226 60.320833 
L 234.387462 61.483444 
L 236.607716 61.483444 
L 236.722918 60.320833 
L 240.063772 60.320833 
L 240.178974 61.483444 
L 240.205156 61.483444 
L 240.320358 60.320833 
L 243.671685 60.320833 
L 243.786887 61.483444 
L 244.970324 61.483444 
L 245.085526 60.320833 
L 246.750716 60.320833 
L 246.865918 61.483444 
L 246.90781 61.483444 
L 247.023012 60.320833 
L 247.682804 60.320833 
L 247.798006 61.483444 
L 248.672493 61.483444 
L 248.787695 62.646055 
L 249.1333 62.646055 
L 249.248502 62.06475 
L 249.358467 62.06475 
L 249.473669 60.902139 
L 254.636807 60.902139 
L 254.752009 59.739527 
L 255.9145 59.739527 
L 256.029702 60.902139 
L 258.972586 60.902139 
L 259.087788 62.06475 
L 259.43863 62.06475 
L 259.553832 60.902139 
L 261.847396 60.902139 
L 261.962598 62.06475 
L 262.805666 62.06475 
L 262.920868 60.902139 
L 264.680315 60.902139 
L 264.795516 59.739527 
L 270.592264 59.739527 
L 270.707466 60.902139 
L 274.027374 60.902139 
L 274.142576 62.06475 
L 274.205414 62.06475 
L 274.268251 63.227361 
L 274.315379 62.06475 
L 276.619416 62.06475 
L 276.734618 60.902139 
L 280.551989 60.902139 
L 280.60959 62.06475 
L 280.661954 60.902139 
L 284.772566 60.902139 
L 284.887768 62.06475 
L 285.463777 62.06475 
L 285.578979 60.320833 
L 291.040594 60.320833 
L 291.155796 61.483444 
L 293.334159 61.483444 
L 293.44936 60.320833 
L 297.088692 60.320833 
L 297.20913 62.646055 
L 297.340041 62.646055 
L 297.455243 61.483444 
L 298.345439 61.483444 
L 298.460641 60.320833 
L 298.774828 60.320833 
L 298.89003 61.483444 
L 301.267377 61.483444 
L 301.382579 60.320833 
L 302.539834 60.320833 
L 302.655036 61.483444 
L 307.744864 61.483444 
L 307.860066 60.320833 
L 311.782165 60.320833 
L 311.897367 61.483444 
L 315.112546 61.483444 
L 315.227748 60.320833 
L 315.850885 60.320833 
L 315.966087 61.483444 
L 317.123342 61.483444 
L 317.238544 62.646055 
L 317.385165 62.646055 
L 317.500366 63.808666 
L 317.610332 63.808666 
L 317.73077 61.483444 
L 320.830747 61.483444 
L 320.945949 60.902139 
L 322.53783 60.902139 
L 322.653031 62.06475 
L 322.867726 62.06475 
L 322.982928 61.483444 
L 326.580367 61.483444 
L 326.695569 62.646055 
L 328.203666 62.646055 
L 328.318868 61.483444 
L 328.84775 61.483444 
L 328.962951 60.320833 
L 333.356331 60.320833 
L 333.471533 61.483444 
L 336.42489 61.483444 
L 336.540092 62.646055 
L 337.409342 62.646055 
L 337.524544 61.483444 
L 337.702583 61.483444 
L 337.817785 60.902139 
L 338.880784 60.902139 
L 338.995986 62.06475 
L 340.854925 62.06475 
L 340.970127 63.227361 
L 341.766067 63.227361 
L 341.881269 62.646055 
L 343.473149 62.646055 
L 343.588351 61.483444 
L 343.818755 61.483444 
L 343.933956 62.646055 
L 344.949827 62.646055 
L 345.065029 63.808666 
L 345.290197 63.808666 
L 345.405398 62.646055 
L 345.510127 62.646055 
L 345.625329 61.483444 
L 348.295918 61.483444 
L 348.41112 62.646055 
L 349.112804 62.646055 
L 349.228005 61.483444 
L 349.411281 61.483444 
L 349.526483 62.646055 
L 350.222931 62.646055 
L 350.338132 61.483444 
L 351.369713 61.483444 
L 351.484915 62.646055 
L 351.673427 62.646055 
L 351.788629 61.483444 
L 353.60044 61.483444 
L 353.715642 62.646055 
L 355.150428 62.646055 
L 355.26563 62.06475 
L 355.731674 62.06475 
L 355.820694 64.389972 
L 355.846876 63.227361 
L 360.109345 63.227361 
L 360.224546 62.06475 
L 363.109829 62.06475 
L 363.225031 63.227361 
L 363.806277 63.227361 
L 363.921479 62.646055 
L 364.083809 62.646055 
L 364.199011 63.808666 
L 364.780256 63.808666 
L 364.895458 62.646055 
L 365.989876 62.646055 
L 366.105078 63.808666 
L 367.759795 63.808666 
L 367.874997 62.646055 
L 368.236312 62.646055 
L 368.351514 61.483444 
L 370.079542 61.483444 
L 370.194744 62.646055 
L 373.210938 62.646055 
L 373.32614 63.808666 
L 373.368031 63.808666 
L 373.462287 64.971278 
L 373.477997 63.808666 
L 374.174444 63.808666 
L 374.289646 63.227361 
L 377.358205 63.227361 
L 377.473407 64.389972 
L 377.729992 64.389972 
L 377.845194 63.808666 
L 379.746025 63.808666 
L 379.861227 64.971278 
L 380.34298 64.971278 
L 380.421527 67.2965 
L 380.458182 66.133889 
L 380.484364 66.133889 
L 380.599566 65.552583 
L 380.939935 65.552583 
L 381.055137 64.389972 
L 382.709855 64.389972 
L 382.825056 63.808666 
L 386.171147 63.808666 
L 386.286349 64.971278 
L 386.574353 64.971278 
L 386.689555 66.133889 
L 386.851885 66.133889 
L 386.967087 64.971278 
L 387.087525 64.971278 
L 387.202727 63.808666 
L 389.428218 63.808666 
L 389.543419 64.971278 
L 389.642912 64.971278 
L 389.758114 63.808666 
L 389.862843 63.808666 
L 389.978045 64.971278 
L 391.213846 64.971278 
L 391.329048 63.808666 
L 394.031055 63.808666 
L 394.146257 64.971278 
L 394.376661 64.971278 
L 394.491863 63.808666 
L 394.80605 63.808666 
L 394.921252 64.971278 
L 395.313985 64.971278 
L 395.429187 63.808666 
L 398.487273 63.808666 
L 398.487273 63.808666 
" clip-path="url(#pe84eeacc3a)" style="fill: none; stroke: #ff7f0e; stroke-width: 1.5; stroke-linecap: square"/>
   </g>
   <g id="line2d_15">
    <path d="M 73.832727 53.635819 
L 73.947929 57.898726 
L 73.958402 57.511189 
L 73.968875 57.511189 
L 74.084077 57.220537 
L 74.272589 57.220537 
L 74.387791 59.158222 
L 74.534411 59.158222 
L 74.649613 58.770685 
L 74.764815 58.770685 
L 74.880017 59.933296 
L 74.984746 59.933296 
L 75.021401 59.642643 
L 75.026637 60.805254 
L 75.084238 60.417717 
L 75.12613 60.417717 
L 75.241332 60.03018 
L 75.932543 60.03018 
L 76.047745 59.642643 
L 76.979833 59.642643 
L 77.095034 59.255106 
L 77.477295 59.255106 
L 77.592497 58.867569 
L 79.320525 58.867569 
L 79.435727 60.03018 
L 113.179398 60.03018 
L 113.2946 61.192791 
L 398.487273 61.192791 
L 398.487273 61.192791 
" clip-path="url(#pe84eeacc3a)" style="fill: none; stroke: #2ca02c; stroke-width: 1.5; stroke-linecap: square"/>
   </g>
   <g id="line2d_16">
    <path d="M 73.832727 52.473208 
L 73.837964 52.473208 
L 73.953166 52.182555 
L 73.968875 52.182555 
L 74.084077 51.891902 
L 74.324953 51.891902 
L 74.440155 53.054513 
L 74.764815 53.054513 
L 74.880017 54.217125 
L 74.984746 54.217125 
L 75.099948 53.926472 
L 398.487273 53.926472 
L 398.487273 53.926472 
" clip-path="url(#pe84eeacc3a)" style="fill: none; stroke: #d62728; stroke-width: 1.5; stroke-linecap: square"/>
   </g>
   <g id="line2d_17">
    <path d="M 73.832727 52.473208 
L 73.874619 52.473208 
L 73.989821 53.635819 
L 398.487273 53.635819 
L 398.487273 53.635819 
" clip-path="url(#pe84eeacc3a)" style="fill: none; stroke: #9467bd; stroke-width: 1.5; stroke-linecap: square"/>
   </g>
   <g id="line2d_18">
    <path d="M 73.832727 52.473208 
L 73.958402 55.961041 
L 74.026476 55.961041 
L 74.141678 57.123652 
L 74.173096 57.123652 
L 74.288298 58.286264 
L 74.324953 58.286264 
L 74.440155 59.448875 
L 74.764815 59.448875 
L 74.880017 60.611486 
L 75.021401 60.611486 
L 75.136603 61.774097 
L 94.144909 61.774097 
L 94.260111 62.936708 
L 119.688303 62.936708 
L 119.803505 64.099319 
L 398.487273 64.099319 
L 398.487273 64.099319 
" clip-path="url(#pe84eeacc3a)" style="fill: none; stroke: #8c564b; stroke-width: 1.5; stroke-linecap: square"/>
   </g>
   <g id="line2d_19">
    <path d="M 73.832727 52.085671 
L 73.968875 50.535523 
L 74.026476 50.535523 
L 74.141678 50.24487 
L 74.173096 50.24487 
L 74.288298 50.012348 
L 76.079164 50.012348 
L 76.194365 49.721695 
L 85.237711 49.721695 
L 85.352913 49.334158 
L 94.144909 49.334158 
L 94.260111 49.101636 
L 119.688303 49.101636 
L 119.803505 48.810983 
L 398.487273 48.810983 
L 398.487273 48.810983 
" clip-path="url(#pe84eeacc3a)" style="fill: none; stroke: #e377c2; stroke-width: 1.5; stroke-linecap: square"/>
   </g>
   <g id="line2d_20">
    <path d="M 73.832727 53.635819 
L 73.947929 57.608074 
L 73.958402 57.220537 
L 73.968875 57.220537 
L 74.026476 56.929884 
L 74.031712 58.092495 
L 74.063131 58.092495 
L 74.173096 58.092495 
L 74.288298 59.255106 
L 74.319717 59.255106 
L 74.324953 58.867569 
L 74.33019 60.03018 
L 74.419209 60.03018 
L 74.534411 60.03018 
L 74.649613 59.642643 
L 74.764815 59.642643 
L 74.880017 60.805254 
L 74.984746 60.805254 
L 75.021401 60.514602 
L 75.026637 61.677213 
L 75.084238 61.289676 
L 75.12613 61.289676 
L 75.241332 60.902139 
L 75.932543 60.902139 
L 76.047745 60.514602 
L 76.079164 60.514602 
L 76.194365 61.677213 
L 76.979833 61.677213 
L 77.095034 61.289676 
L 77.477295 61.289676 
L 77.592497 60.902139 
L 85.237711 60.902139 
L 85.352913 62.06475 
L 94.144909 62.06475 
L 94.260111 63.227361 
L 119.688303 63.227361 
L 119.803505 64.389972 
L 398.487273 64.389972 
L 398.487273 64.389972 
" clip-path="url(#pe84eeacc3a)" style="fill: none; stroke: #7f7f7f; stroke-width: 1.5; stroke-linecap: square"/>
   </g>
   <g id="line2d_21">
    <path d="M 73.832727 52.085671 
L 73.979348 49.857333 
L 74.026476 49.857333 
L 74.141678 49.56668 
L 74.173096 49.56668 
L 74.293535 48.946621 
L 76.079164 48.946621 
L 76.194365 48.655968 
L 79.320525 48.655968 
L 79.435727 48.268431 
L 85.237711 48.268431 
L 85.352913 47.880894 
L 94.144909 47.880894 
L 94.260111 47.648372 
L 113.179398 47.648372 
L 113.2946 47.260835 
L 119.688303 47.260835 
L 119.803505 46.970182 
L 398.487273 46.970182 
L 398.487273 46.970182 
" clip-path="url(#pe84eeacc3a)" style="fill: none; stroke: #bcbd22; stroke-width: 1.5; stroke-linecap: square"/>
   </g>
   <g id="line2d_22">
    <path d="M 73.832727 52.085671 
L 73.837964 52.085671 
L 73.879855 51.019944 
L 73.906038 53.345166 
L 73.921747 53.345166 
L 73.947929 53.345166 
L 74.026476 52.666976 
L 74.031712 53.829588 
L 74.047422 53.829588 
L 74.173096 53.829588 
L 74.272589 54.992199 
L 74.283062 54.604662 
L 74.319717 54.604662 
L 74.324953 54.217125 
L 74.33019 55.379736 
L 74.419209 55.379736 
L 74.534411 55.379736 
L 74.649613 54.992199 
L 74.764815 54.992199 
L 74.880017 56.15481 
L 74.984746 56.15481 
L 75.021401 55.864157 
L 75.026637 57.026768 
L 75.084238 56.639231 
L 75.12613 56.639231 
L 75.241332 56.251694 
L 75.932543 56.251694 
L 76.047745 55.864157 
L 76.079164 55.864157 
L 76.194365 57.026768 
L 76.979833 57.026768 
L 77.095034 56.639231 
L 77.477295 56.639231 
L 77.592497 56.251694 
L 79.320525 56.251694 
L 79.435727 55.864157 
L 85.237711 55.864157 
L 85.352913 57.026768 
L 94.144909 57.026768 
L 94.260111 58.189379 
L 113.179398 58.189379 
L 113.2946 57.801842 
L 119.688303 57.801842 
L 119.803505 58.964453 
L 398.487273 58.964453 
L 398.487273 58.964453 
" clip-path="url(#pe84eeacc3a)" style="fill: none; stroke: #17becf; stroke-width: 1.5; stroke-linecap: square"/>
   </g>
   <g id="line2d_23">
    <path d="M 73.832727 52.473208 
L 73.958402 51.504365 
L 74.026476 51.504365 
L 74.141678 51.213712 
L 74.173096 51.213712 
L 74.288298 50.98119 
L 74.324953 50.98119 
L 74.440155 50.399885 
L 74.764815 50.399885 
L 74.880017 49.818579 
L 75.021401 49.818579 
L 75.136603 49.237274 
L 94.144909 49.237274 
L 94.260111 49.004751 
L 119.688303 49.004751 
L 119.803505 48.714099 
L 398.487273 48.714099 
L 398.487273 48.714099 
" clip-path="url(#pe84eeacc3a)" style="fill: none; stroke: #1f77b4; stroke-width: 1.5; stroke-linecap: square"/>
   </g>
   <g id="line2d_24">
    <path d="M 73.832727 53.635819 
L 73.837964 53.635819 
L 73.963638 57.608074 
L 73.968875 57.608074 
L 74.026476 58.770685 
L 74.07884 58.480032 
L 74.09455 58.480032 
L 74.115495 56.15481 
L 74.204515 58.24751 
L 74.262116 58.24751 
L 74.324953 60.185195 
L 74.377318 59.603889 
L 74.387791 59.603889 
L 74.502993 60.766501 
L 74.534411 60.766501 
L 74.649613 61.929112 
L 74.764815 61.929112 
L 74.880017 61.347806 
L 74.984746 61.347806 
L 75.099948 63.091723 
L 75.12613 63.091723 
L 75.241332 64.254334 
L 75.932543 64.254334 
L 76.047745 65.416945 
L 76.079164 65.416945 
L 76.194365 65.126292 
L 76.503316 65.126292 
L 76.618518 63.963681 
L 76.691828 63.963681 
L 76.80703 62.80107 
L 76.911759 62.80107 
L 77.032197 65.126292 
L 77.477295 65.126292 
L 77.592497 66.288903 
L 77.812428 66.288903 
L 77.92763 65.707598 
L 79.320525 65.707598 
L 79.435727 65.320061 
L 79.817987 65.320061 
L 79.933189 64.15745 
L 80.378287 64.15745 
L 80.493489 65.320061 
L 80.781494 65.320061 
L 80.823385 64.15745 
L 80.891459 65.320061 
L 81.195173 65.320061 
L 81.310375 66.482672 
L 82.441448 66.482672 
L 82.561886 64.15745 
L 82.609014 64.15745 
L 82.724216 65.320061 
L 83.593467 65.320061 
L 83.713905 62.994839 
L 83.766269 62.994839 
L 83.881471 64.15745 
L 84.79785 64.15745 
L 84.913051 65.320061 
L 84.970652 65.320061 
L 85.085854 64.15745 
L 85.237711 64.15745 
L 85.274366 64.932524 
L 85.352913 63.769913 
L 85.551898 63.769913 
L 85.6671 64.932524 
L 87.279926 64.932524 
L 87.395128 66.095135 
L 89.049845 66.095135 
L 89.086501 64.932524 
L 89.159811 65.513829 
L 89.19123 65.513829 
L 89.26454 64.351218 
L 89.301195 65.513829 
L 89.725347 65.513829 
L 89.840549 66.676441 
L 90.720272 66.676441 
L 90.746455 65.513829 
L 90.830238 66.676441 
L 91.997966 66.676441 
L 92.113168 65.513829 
L 92.458773 65.513829 
L 92.573975 66.676441 
L 92.589684 66.676441 
L 92.605394 65.513829 
L 92.69965 66.676441 
L 93.045255 66.676441 
L 93.113329 65.513829 
L 93.155221 66.676441 
L 94.144909 66.676441 
L 94.286294 65.281307 
L 94.490515 65.281307 
L 94.605717 66.443918 
L 94.61619 66.443918 
L 94.731392 67.606529 
L 95.302164 67.606529 
L 95.417366 66.443918 
L 95.694898 66.443918 
L 95.8101 67.606529 
L 96.391346 67.606529 
L 96.506548 66.443918 
L 96.763133 66.443918 
L 96.878335 67.606529 
L 98.161265 67.606529 
L 98.276467 67.025224 
L 98.292176 67.025224 
L 98.407378 68.187835 
L 100.213953 68.187835 
L 100.329155 69.350446 
L 100.884218 69.350446 
L 100.99942 68.187835 
L 102.905487 68.187835 
L 103.020689 69.350446 
L 103.444841 69.350446 
L 103.560043 68.187835 
L 103.617644 68.187835 
L 103.732846 67.025224 
L 103.811393 67.025224 
L 103.926594 65.862613 
L 103.958013 65.862613 
L 104.073215 67.025224 
L 104.177944 67.025224 
L 104.293146 65.862613 
L 104.387402 65.862613 
L 104.502604 67.025224 
L 104.544495 67.025224 
L 104.617806 65.862613 
L 104.654461 67.025224 
L 104.706825 67.025224 
L 104.822027 68.187835 
L 105.55513 68.187835 
L 105.670332 67.025224 
L 105.785534 68.187835 
L 105.858844 68.187835 
L 105.974046 69.350446 
L 106.162558 69.350446 
L 106.27776 68.187835 
L 107.167956 68.187835 
L 107.230793 67.025224 
L 107.277921 68.187835 
L 107.304103 68.187835 
L 107.419305 69.350446 
L 113.179398 69.350446 
L 113.2946 68.962909 
L 115.551509 68.962909 
L 115.666711 67.800298 
L 115.740021 67.800298 
L 115.855223 68.962909 
L 116.808257 68.962909 
L 116.923459 67.800298 
L 117.2167 67.800298 
L 117.331902 68.962909 
L 119.112294 68.962909 
L 119.227496 70.12552 
L 119.546919 70.12552 
L 119.662121 71.288131 
L 119.688303 71.288131 
L 119.803505 70.997479 
L 120.793194 70.997479 
L 120.908396 69.834867 
L 122.615478 69.834867 
L 122.73068 68.672256 
L 122.814463 68.672256 
L 122.929665 69.834867 
L 124.568673 69.834867 
L 124.683875 70.997479 
L 126.019169 70.997479 
L 126.134371 69.834867 
L 128.736886 69.834867 
L 128.852087 68.672256 
L 129.42286 68.672256 
L 129.538062 69.834867 
L 138.042054 69.834867 
L 138.157256 68.672256 
L 138.712319 68.672256 
L 138.832757 70.997479 
L 142.20503 70.997479 
L 142.320232 69.834867 
L 144.571905 69.834867 
L 144.692343 67.509645 
L 144.749944 67.509645 
L 144.865146 68.672256 
L 144.938456 68.672256 
L 145.053658 69.834867 
L 154.966254 69.834867 
L 155.081456 70.997479 
L 155.411352 70.997479 
L 155.526554 69.834867 
L 157.778227 69.834867 
L 157.893429 70.997479 
L 160.935805 70.997479 
L 161.051007 69.834867 
L 162.632414 69.834867 
L 162.747616 70.997479 
L 163.224133 70.997479 
L 163.339335 69.834867 
L 163.972945 69.834867 
L 164.030546 68.672256 
L 164.08291 69.834867 
L 167.313799 69.834867 
L 167.429001 70.997479 
L 172.812069 70.997479 
L 172.927271 69.834867 
L 175.02185 69.834867 
L 175.137052 68.672256 
L 175.189417 68.672256 
L 175.304618 69.834867 
L 177.598183 69.834867 
L 177.713385 68.672256 
L 177.990916 68.672256 
L 178.106118 69.834867 
L 178.493615 69.834867 
L 178.608817 68.672256 
L 178.87064 68.672256 
L 178.985841 69.834867 
L 183.373985 69.834867 
L 183.489187 70.997479 
L 184.122797 70.997479 
L 184.237999 69.834867 
L 184.505058 69.834867 
L 184.62026 70.997479 
L 186.814331 70.997479 
L 186.929533 72.16009 
L 187.128518 72.16009 
L 187.24372 70.997479 
L 189.217861 70.997479 
L 189.333063 69.834867 
L 189.898599 69.834867 
L 190.019038 67.509645 
L 190.087111 67.509645 
L 190.202313 68.672256 
L 190.521737 68.672256 
L 190.636938 69.834867 
L 190.75214 69.834867 
L 190.867342 70.997479 
L 195.616801 70.997479 
L 195.732002 69.834867 
L 196.904967 69.834867 
L 197.020169 68.672256 
L 197.166789 68.672256 
L 197.281991 69.834867 
L 198.491611 69.834867 
L 198.606812 70.997479 
L 200.455279 70.997479 
L 200.570481 69.834867 
L 200.690919 69.834867 
L 200.806121 70.997479 
L 201.518278 70.997479 
L 201.633479 69.834867 
L 202.288035 69.834867 
L 202.387528 70.997479 
L 202.398001 69.834867 
L 203.131104 69.834867 
L 203.246305 70.997479 
L 208.01671 70.997479 
L 208.131912 69.834867 
L 208.844069 69.834867 
L 208.95927 68.672256 
L 209.011635 68.672256 
L 209.126837 69.834867 
L 209.760447 69.834867 
L 209.875649 70.997479 
L 217.855996 70.997479 
L 217.876941 72.16009 
L 217.965961 70.997479 
L 220.212397 70.997479 
L 220.327599 69.834867 
L 222.621163 69.834867 
L 222.736365 68.672256 
L 222.814912 68.672256 
L 222.930114 69.834867 
L 223.008661 69.834867 
L 223.123862 70.997479 
L 224.003586 70.997479 
L 224.118788 69.834867 
L 224.14497 69.834867 
L 224.260172 70.997479 
L 226.260495 70.997479 
L 226.328569 69.834867 
L 226.37046 70.997479 
L 227.297312 70.997479 
L 227.370622 69.834867 
L 227.407277 70.997479 
L 232.439504 70.997479 
L 232.554705 69.834867 
L 232.664671 69.834867 
L 232.779873 70.997479 
L 233.821926 70.997479 
L 233.937128 69.834867 
L 233.979019 69.834867 
L 234.094221 70.997479 
L 234.27226 70.997479 
L 234.387462 69.834867 
L 236.607716 69.834867 
L 236.722918 70.997479 
L 240.063772 70.997479 
L 240.178974 69.834867 
L 240.205156 69.834867 
L 240.320358 70.997479 
L 243.671685 70.997479 
L 243.786887 69.834867 
L 244.970324 69.834867 
L 245.085526 70.997479 
L 246.750716 70.997479 
L 246.865918 69.834867 
L 246.90781 69.834867 
L 247.023012 70.997479 
L 247.682804 70.997479 
L 247.798006 69.834867 
L 248.672493 69.834867 
L 248.787695 68.672256 
L 249.1333 68.672256 
L 249.248502 69.834867 
L 249.358467 69.834867 
L 249.473669 70.997479 
L 254.636807 70.997479 
L 254.752009 72.16009 
L 255.9145 72.16009 
L 256.029702 70.997479 
L 258.972586 70.997479 
L 259.087788 69.834867 
L 259.43863 69.834867 
L 259.553832 70.997479 
L 261.847396 70.997479 
L 261.962598 69.834867 
L 262.805666 69.834867 
L 262.920868 70.997479 
L 264.680315 70.997479 
L 264.795516 72.16009 
L 270.592264 72.16009 
L 270.707466 70.997479 
L 274.027374 70.997479 
L 274.142576 69.834867 
L 274.205414 69.834867 
L 274.268251 68.672256 
L 274.315379 69.834867 
L 276.619416 69.834867 
L 276.734618 70.997479 
L 280.551989 70.997479 
L 280.60959 69.834867 
L 280.661954 70.997479 
L 284.772566 70.997479 
L 284.887768 69.834867 
L 285.463777 69.834867 
L 285.584215 72.16009 
L 291.040594 72.16009 
L 291.155796 70.997479 
L 293.334159 70.997479 
L 293.44936 72.16009 
L 297.088692 72.16009 
L 297.20913 69.834867 
L 297.340041 69.834867 
L 297.455243 70.997479 
L 298.345439 70.997479 
L 298.460641 72.16009 
L 298.774828 72.16009 
L 298.89003 70.997479 
L 301.267377 70.997479 
L 301.382579 72.16009 
L 302.539834 72.16009 
L 302.655036 70.997479 
L 307.744864 70.997479 
L 307.860066 72.16009 
L 311.782165 72.16009 
L 311.897367 70.997479 
L 315.112546 70.997479 
L 315.227748 72.16009 
L 315.850885 72.16009 
L 315.966087 70.997479 
L 317.123342 70.997479 
L 317.238544 69.834867 
L 317.385165 69.834867 
L 317.500366 68.672256 
L 317.610332 68.672256 
L 317.73077 70.997479 
L 320.830747 70.997479 
L 320.945949 72.16009 
L 322.53783 72.16009 
L 322.653031 70.997479 
L 322.867726 70.997479 
L 322.982928 72.16009 
L 326.580367 72.16009 
L 326.695569 70.997479 
L 328.203666 70.997479 
L 328.318868 72.16009 
L 328.84775 72.16009 
L 328.962951 73.322701 
L 333.356331 73.322701 
L 333.471533 72.16009 
L 336.42489 72.16009 
L 336.540092 70.997479 
L 337.409342 70.997479 
L 337.524544 72.16009 
L 337.702583 72.16009 
L 337.817785 73.322701 
L 338.880784 73.322701 
L 338.995986 72.16009 
L 340.854925 72.16009 
L 340.970127 70.997479 
L 341.766067 70.997479 
L 341.881269 72.16009 
L 343.473149 72.16009 
L 343.588351 73.322701 
L 343.818755 73.322701 
L 343.933956 72.16009 
L 344.949827 72.16009 
L 345.065029 70.997479 
L 345.290197 70.997479 
L 345.405398 72.16009 
L 345.510127 72.16009 
L 345.625329 73.322701 
L 348.295918 73.322701 
L 348.41112 72.16009 
L 349.112804 72.16009 
L 349.228005 73.322701 
L 349.411281 73.322701 
L 349.526483 72.16009 
L 350.222931 72.16009 
L 350.338132 73.322701 
L 351.369713 73.322701 
L 351.484915 72.16009 
L 351.673427 72.16009 
L 351.788629 73.322701 
L 353.60044 73.322701 
L 353.715642 72.16009 
L 355.150428 72.16009 
L 355.26563 73.322701 
L 355.731674 73.322701 
L 355.820694 70.997479 
L 355.846876 72.16009 
L 360.109345 72.16009 
L 360.224546 73.322701 
L 363.109829 73.322701 
L 363.225031 72.16009 
L 363.806277 72.16009 
L 363.921479 73.322701 
L 364.083809 73.322701 
L 364.199011 72.16009 
L 364.780256 72.16009 
L 364.895458 73.322701 
L 365.989876 73.322701 
L 366.105078 72.16009 
L 367.759795 72.16009 
L 367.874997 73.322701 
L 368.236312 73.322701 
L 368.351514 74.485312 
L 370.079542 74.485312 
L 370.194744 73.322701 
L 373.210938 73.322701 
L 373.32614 72.16009 
L 373.368031 72.16009 
L 373.462287 70.997479 
L 373.477997 72.16009 
L 374.174444 72.16009 
L 374.289646 73.322701 
L 377.358205 73.322701 
L 377.473407 72.16009 
L 377.729992 72.16009 
L 377.845194 73.322701 
L 379.746025 73.322701 
L 379.861227 72.16009 
L 380.34298 72.16009 
L 380.421527 69.834867 
L 380.458182 70.997479 
L 380.484364 70.997479 
L 380.599566 72.16009 
L 380.939935 72.16009 
L 381.055137 73.322701 
L 382.709855 73.322701 
L 382.825056 74.485312 
L 386.171147 74.485312 
L 386.286349 73.322701 
L 386.574353 73.322701 
L 386.689555 72.16009 
L 386.851885 72.16009 
L 386.967087 73.322701 
L 387.087525 73.322701 
L 387.202727 74.485312 
L 389.428218 74.485312 
L 389.543419 73.322701 
L 389.642912 73.322701 
L 389.758114 74.485312 
L 389.862843 74.485312 
L 389.978045 73.322701 
L 391.213846 73.322701 
L 391.329048 74.485312 
L 394.031055 74.485312 
L 394.146257 73.322701 
L 394.376661 73.322701 
L 394.491863 74.485312 
L 394.80605 74.485312 
L 394.921252 73.322701 
L 395.313985 73.322701 
L 395.429187 74.485312 
L 398.487273 74.485312 
L 398.487273 74.485312 
" clip-path="url(#pe84eeacc3a)" style="fill: none; stroke: #ff7f0e; stroke-width: 1.5; stroke-linecap: square"/>
   </g>
   <g id="patch_3">
    <path d="M 57.6 162.432 
L 57.6 41.472 
" style="fill: none; stroke: #000000; stroke-width: 0.8; stroke-linejoin: miter; stroke-linecap: square"/>
   </g>
   <g id="patch_4">
    <path d="M 414.72 162.432 
L 414.72 41.472 
" style="fill: none; stroke: #000000; stroke-width: 0.8; stroke-linejoin: miter; stroke-linecap: square"/>
   </g>
   <g id="patch_5">
    <path d="M 57.6 162.432 
L 414.72 162.432 
" style="fill: none; stroke: #000000; stroke-width: 0.8; stroke-linejoin: miter; stroke-linecap: square"/>
   </g>
   <g id="patch_6">
    <path d="M 57.6 41.472 
L 414.72 41.472 
" style="fill: none; stroke: #000000; stroke-width: 0.8; stroke-linejoin: miter; stroke-linecap: square"/>
   </g>
   <g id="text_13">
    <!-- WSP -->
    <g transform="translate(361.832136 156.933818)scale(0.08 -0.08)">
     <defs>
      <path id="DejaVuSans-57" d="M 213 4666 
L 850 4666 
L 1831 722 
L 2809 4666 
L 3519 4666 
L 4500 722 
L 5478 4666 
L 6119 4666 
L 4947 0 
L 4153 0 
L 3169 4050 
L 2175 0 
L 1381 0 
L 213 4666 
z
" transform="scale(0.015625)"/>
      <path id="DejaVuSans-53" d="M 3425 4513 
L 3425 3897 
Q 3066 4069 2747 4153 
Q 2428 4238 2131 4238 
Q 1616 4238 1336 4038 
Q 1056 3838 1056 3469 
Q 1056 3159 1242 3001 
Q 1428 2844 1947 2747 
L 2328 2669 
Q 3034 2534 3370 2195 
Q 3706 1856 3706 1288 
Q 3706 609 3251 259 
Q 2797 -91 1919 -91 
Q 1588 -91 1214 -16 
Q 841 59 441 206 
L 441 856 
Q 825 641 1194 531 
Q 1563 422 1919 422 
Q 2459 422 2753 634 
Q 3047 847 3047 1241 
Q 3047 1584 2836 1778 
Q 2625 1972 2144 2069 
L 1759 2144 
Q 1053 2284 737 2584 
Q 422 2884 422 3419 
Q 422 4038 858 4394 
Q 1294 4750 2059 4750 
Q 2388 4750 2728 4690 
Q 3069 4631 3425 4513 
z
" transform="scale(0.015625)"/>
      <path id="DejaVuSans-50" d="M 1259 4147 
L 1259 2394 
L 2053 2394 
Q 2494 2394 2734 2622 
Q 2975 2850 2975 3272 
Q 2975 3691 2734 3919 
Q 2494 4147 2053 4147 
L 1259 4147 
z
M 628 4666 
L 2053 4666 
Q 2838 4666 3239 4311 
Q 3641 3956 3641 3272 
Q 3641 2581 3239 2228 
Q 2838 1875 2053 1875 
L 1259 1875 
L 1259 0 
L 628 0 
L 628 4666 
z
" transform="scale(0.015625)"/>
     </defs>
     <use xlink:href="#DejaVuSans-57"/>
     <use xlink:href="#DejaVuSans-53" x="98.876953"/>
     <use xlink:href="#DejaVuSans-50" x="162.353516"/>
    </g>
   </g>
   <g id="text_14">
    <!-- Iambic -->
    <g transform="translate(361.832136 63.808666)scale(0.08 -0.08)">
     <defs>
      <path id="DejaVuSans-49" d="M 628 4666 
L 1259 4666 
L 1259 0 
L 628 0 
L 628 4666 
z
" transform="scale(0.015625)"/>
      <path id="DejaVuSans-61" d="M 2194 1759 
Q 1497 1759 1228 1600 
Q 959 1441 959 1056 
Q 959 750 1161 570 
Q 1363 391 1709 391 
Q 2188 391 2477 730 
Q 2766 1069 2766 1631 
L 2766 1759 
L 2194 1759 
z
M 3341 1997 
L 3341 0 
L 2766 0 
L 2766 531 
Q 2569 213 2275 61 
Q 1981 -91 1556 -91 
Q 1019 -91 701 211 
Q 384 513 384 1019 
Q 384 1609 779 1909 
Q 1175 2209 1959 2209 
L 2766 2209 
L 2766 2266 
Q 2766 2663 2505 2880 
Q 2244 3097 1772 3097 
Q 1472 3097 1187 3025 
Q 903 2953 641 2809 
L 641 3341 
Q 956 3463 1253 3523 
Q 1550 3584 1831 3584 
Q 2591 3584 2966 3190 
Q 3341 2797 3341 1997 
z
" transform="scale(0.015625)"/>
      <path id="DejaVuSans-6d" d="M 3328 2828 
Q 3544 3216 3844 3400 
Q 4144 3584 4550 3584 
Q 5097 3584 5394 3201 
Q 5691 2819 5691 2113 
L 5691 0 
L 5113 0 
L 5113 2094 
Q 5113 2597 4934 2840 
Q 4756 3084 4391 3084 
Q 3944 3084 3684 2787 
Q 3425 2491 3425 1978 
L 3425 0 
L 2847 0 
L 2847 2094 
Q 2847 2600 2669 2842 
Q 2491 3084 2119 3084 
Q 1678 3084 1418 2786 
Q 1159 2488 1159 1978 
L 1159 0 
L 581 0 
L 581 3500 
L 1159 3500 
L 1159 2956 
Q 1356 3278 1631 3431 
Q 1906 3584 2284 3584 
Q 2666 3584 2933 3390 
Q 3200 3197 3328 2828 
z
" transform="scale(0.015625)"/>
      <path id="DejaVuSans-62" d="M 3116 1747 
Q 3116 2381 2855 2742 
Q 2594 3103 2138 3103 
Q 1681 3103 1420 2742 
Q 1159 2381 1159 1747 
Q 1159 1113 1420 752 
Q 1681 391 2138 391 
Q 2594 391 2855 752 
Q 3116 1113 3116 1747 
z
M 1159 2969 
Q 1341 3281 1617 3432 
Q 1894 3584 2278 3584 
Q 2916 3584 3314 3078 
Q 3713 2572 3713 1747 
Q 3713 922 3314 415 
Q 2916 -91 2278 -91 
Q 1894 -91 1617 61 
Q 1341 213 1159 525 
L 1159 0 
L 581 0 
L 581 4863 
L 1159 4863 
L 1159 2969 
z
" transform="scale(0.015625)"/>
      <path id="DejaVuSans-69" d="M 603 3500 
L 1178 3500 
L 1178 0 
L 603 0 
L 603 3500 
z
M 603 4863 
L 1178 4863 
L 1178 4134 
L 603 4134 
L 603 4863 
z
" transform="scale(0.015625)"/>
      <path id="DejaVuSans-63" d="M 3122 3366 
L 3122 2828 
Q 2878 2963 2633 3030 
Q 2388 3097 2138 3097 
Q 1578 3097 1268 2742 
Q 959 2388 959 1747 
Q 959 1106 1268 751 
Q 1578 397 2138 397 
Q 2388 397 2633 464 
Q 2878 531 3122 666 
L 3122 134 
Q 2881 22 2623 -34 
Q 2366 -91 2075 -91 
Q 1284 -91 818 406 
Q 353 903 353 1747 
Q 353 2603 823 3093 
Q 1294 3584 2113 3584 
Q 2378 3584 2631 3529 
Q 2884 3475 3122 3366 
z
" transform="scale(0.015625)"/>
     </defs>
     <use xlink:href="#DejaVuSans-49"/>
     <use xlink:href="#DejaVuSans-61" x="29.492188"/>
     <use xlink:href="#DejaVuSans-6d" x="90.771484"/>
     <use xlink:href="#DejaVuSans-62" x="188.183594"/>
     <use xlink:href="#DejaVuSans-69" x="251.660156"/>
     <use xlink:href="#DejaVuSans-63" x="279.443359"/>
    </g>
   </g>
   <g id="text_15">
    <!-- Parse -->
    <g transform="translate(361.832136 61.192791)scale(0.08 -0.08)">
     <defs>
      <path id="DejaVuSans-72" d="M 2631 2963 
Q 2534 3019 2420 3045 
Q 2306 3072 2169 3072 
Q 1681 3072 1420 2755 
Q 1159 2438 1159 1844 
L 1159 0 
L 581 0 
L 581 3500 
L 1159 3500 
L 1159 2956 
Q 1341 3275 1631 3429 
Q 1922 3584 2338 3584 
Q 2397 3584 2469 3576 
Q 2541 3569 2628 3553 
L 2631 2963 
z
" transform="scale(0.015625)"/>
      <path id="DejaVuSans-73" d="M 2834 3397 
L 2834 2853 
Q 2591 2978 2328 3040 
Q 2066 3103 1784 3103 
Q 1356 3103 1142 2972 
Q 928 2841 928 2578 
Q 928 2378 1081 2264 
Q 1234 2150 1697 2047 
L 1894 2003 
Q 2506 1872 2764 1633 
Q 3022 1394 3022 966 
Q 3022 478 2636 193 
Q 2250 -91 1575 -91 
Q 1294 -91 989 -36 
Q 684 19 347 128 
L 347 722 
Q 666 556 975 473 
Q 1284 391 1588 391 
Q 1994 391 2212 530 
Q 2431 669 2431 922 
Q 2431 1156 2273 1281 
Q 2116 1406 1581 1522 
L 1381 1569 
Q 847 1681 609 1914 
Q 372 2147 372 2553 
Q 372 3047 722 3315 
Q 1072 3584 1716 3584 
Q 2034 3584 2315 3537 
Q 2597 3491 2834 3397 
z
" transform="scale(0.015625)"/>
      <path id="DejaVuSans-65" d="M 3597 1894 
L 3597 1613 
L 953 1613 
Q 991 1019 1311 708 
Q 1631 397 2203 397 
Q 2534 397 2845 478 
Q 3156 559 3463 722 
L 3463 178 
Q 3153 47 2828 -22 
Q 2503 -91 2169 -91 
Q 1331 -91 842 396 
Q 353 884 353 1716 
Q 353 2575 817 3079 
Q 1281 3584 2069 3584 
Q 2775 3584 3186 3129 
Q 3597 2675 3597 1894 
z
M 3022 2063 
Q 3016 2534 2758 2815 
Q 2500 3097 2075 3097 
Q 1594 3097 1305 2825 
Q 1016 2553 972 2059 
L 3022 2063 
z
" transform="scale(0.015625)"/>
     </defs>
     <use xlink:href="#DejaVuSans-50"/>
     <use xlink:href="#DejaVuSans-61" x="55.802734"/>
     <use xlink:href="#DejaVuSans-72" x="117.082031"/>
     <use xlink:href="#DejaVuSans-73" x="158.195312"/>
     <use xlink:href="#DejaVuSans-65" x="210.294922"/>
    </g>
   </g>
   <g id="text_16">
    <!-- FootBin -->
    <g transform="translate(361.832136 53.926472)scale(0.08 -0.08)">
     <defs>
      <path id="DejaVuSans-46" d="M 628 4666 
L 3309 4666 
L 3309 4134 
L 1259 4134 
L 1259 2759 
L 3109 2759 
L 3109 2228 
L 1259 2228 
L 1259 0 
L 628 0 
L 628 4666 
z
" transform="scale(0.015625)"/>
      <path id="DejaVuSans-6f" d="M 1959 3097 
Q 1497 3097 1228 2736 
Q 959 2375 959 1747 
Q 959 1119 1226 758 
Q 1494 397 1959 397 
Q 2419 397 2687 759 
Q 2956 1122 2956 1747 
Q 2956 2369 2687 2733 
Q 2419 3097 1959 3097 
z
M 1959 3584 
Q 2709 3584 3137 3096 
Q 3566 2609 3566 1747 
Q 3566 888 3137 398 
Q 2709 -91 1959 -91 
Q 1206 -91 779 398 
Q 353 888 353 1747 
Q 353 2609 779 3096 
Q 1206 3584 1959 3584 
z
" transform="scale(0.015625)"/>
      <path id="DejaVuSans-74" d="M 1172 4494 
L 1172 3500 
L 2356 3500 
L 2356 3053 
L 1172 3053 
L 1172 1153 
Q 1172 725 1289 603 
Q 1406 481 1766 481 
L 2356 481 
L 2356 0 
L 1766 0 
Q 1100 0 847 248 
Q 594 497 594 1153 
L 594 3053 
L 172 3053 
L 172 3500 
L 594 3500 
L 594 4494 
L 1172 4494 
z
" transform="scale(0.015625)"/>
      <path id="DejaVuSans-42" d="M 1259 2228 
L 1259 519 
L 2272 519 
Q 2781 519 3026 730 
Q 3272 941 3272 1375 
Q 3272 1813 3026 2020 
Q 2781 2228 2272 2228 
L 1259 2228 
z
M 1259 4147 
L 1259 2741 
L 2194 2741 
Q 2656 2741 2882 2914 
Q 3109 3088 3109 3444 
Q 3109 3797 2882 3972 
Q 2656 4147 2194 4147 
L 1259 4147 
z
M 628 4666 
L 2241 4666 
Q 2963 4666 3353 4366 
Q 3744 4066 3744 3513 
Q 3744 3084 3544 2831 
Q 3344 2578 2956 2516 
Q 3422 2416 3680 2098 
Q 3938 1781 3938 1306 
Q 3938 681 3513 340 
Q 3088 0 2303 0 
L 628 0 
L 628 4666 
z
" transform="scale(0.015625)"/>
      <path id="DejaVuSans-6e" d="M 3513 2113 
L 3513 0 
L 2938 0 
L 2938 2094 
Q 2938 2591 2744 2837 
Q 2550 3084 2163 3084 
Q 1697 3084 1428 2787 
Q 1159 2491 1159 1978 
L 1159 0 
L 581 0 
L 581 3500 
L 1159 3500 
L 1159 2956 
Q 1366 3272 1645 3428 
Q 1925 3584 2291 3584 
Q 2894 3584 3203 3211 
Q 3513 2838 3513 2113 
z
" transform="scale(0.015625)"/>
     </defs>
     <use xlink:href="#DejaVuSans-46"/>
     <use xlink:href="#DejaVuSans-6f" x="53.894531"/>
     <use xlink:href="#DejaVuSans-6f" x="115.076172"/>
     <use xlink:href="#DejaVuSans-74" x="176.257812"/>
     <use xlink:href="#DejaVuSans-42" x="215.466797"/>
     <use xlink:href="#DejaVuSans-69" x="284.070312"/>
     <use xlink:href="#DejaVuSans-6e" x="311.853516"/>
    </g>
   </g>
   <g id="text_17">
    <!-- WFL -->
    <g transform="translate(361.832136 53.635819)scale(0.08 -0.08)">
     <defs>
      <path id="DejaVuSans-4c" d="M 628 4666 
L 1259 4666 
L 1259 531 
L 3531 531 
L 3531 0 
L 628 0 
L 628 4666 
z
" transform="scale(0.015625)"/>
     </defs>
     <use xlink:href="#DejaVuSans-57"/>
     <use xlink:href="#DejaVuSans-46" x="98.876953"/>
     <use xlink:href="#DejaVuSans-4c" x="156.396484"/>
    </g>
   </g>
   <g id="text_18">
    <!-- WFR -->
    <g transform="translate(361.832136 64.099319)scale(0.08 -0.08)">
     <defs>
      <path id="DejaVuSans-52" d="M 2841 2188 
Q 3044 2119 3236 1894 
Q 3428 1669 3622 1275 
L 4263 0 
L 3584 0 
L 2988 1197 
Q 2756 1666 2539 1819 
Q 2322 1972 1947 1972 
L 1259 1972 
L 1259 0 
L 628 0 
L 628 4666 
L 2053 4666 
Q 2853 4666 3247 4331 
Q 3641 3997 3641 3322 
Q 3641 2881 3436 2590 
Q 3231 2300 2841 2188 
z
M 1259 4147 
L 1259 2491 
L 2053 2491 
Q 2509 2491 2742 2702 
Q 2975 2913 2975 3322 
Q 2975 3731 2742 3939 
Q 2509 4147 2053 4147 
L 1259 4147 
z
" transform="scale(0.015625)"/>
     </defs>
     <use xlink:href="#DejaVuSans-57"/>
     <use xlink:href="#DejaVuSans-46" x="98.876953"/>
     <use xlink:href="#DejaVuSans-52" x="156.396484"/>
    </g>
   </g>
   <g id="text_19">
    <!-- Main-L -->
    <g transform="translate(361.832136 48.810983)scale(0.08 -0.08)">
     <defs>
      <path id="DejaVuSans-4d" d="M 628 4666 
L 1569 4666 
L 2759 1491 
L 3956 4666 
L 4897 4666 
L 4897 0 
L 4281 0 
L 4281 4097 
L 3078 897 
L 2444 897 
L 1241 4097 
L 1241 0 
L 628 0 
L 628 4666 
z
" transform="scale(0.015625)"/>
      <path id="DejaVuSans-2d" d="M 313 2009 
L 1997 2009 
L 1997 1497 
L 313 1497 
L 313 2009 
z
" transform="scale(0.015625)"/>
     </defs>
     <use xlink:href="#DejaVuSans-4d"/>
     <use xlink:href="#DejaVuSans-61" x="86.279297"/>
     <use xlink:href="#DejaVuSans-69" x="147.558594"/>
     <use xlink:href="#DejaVuSans-6e" x="175.341797"/>
     <use xlink:href="#DejaVuSans-2d" x="238.720703"/>
     <use xlink:href="#DejaVuSans-4c" x="274.804688"/>
    </g>
   </g>
   <g id="text_20">
    <!-- Main-R -->
    <g transform="translate(361.832136 64.389972)scale(0.08 -0.08)">
     <use xlink:href="#DejaVuSans-4d"/>
     <use xlink:href="#DejaVuSans-61" x="86.279297"/>
     <use xlink:href="#DejaVuSans-69" x="147.558594"/>
     <use xlink:href="#DejaVuSans-6e" x="175.341797"/>
     <use xlink:href="#DejaVuSans-2d" x="238.720703"/>
     <use xlink:href="#DejaVuSans-52" x="274.804688"/>
    </g>
   </g>
   <g id="text_21">
    <!-- AFL -->
    <g transform="translate(361.832136 46.970182)scale(0.08 -0.08)">
     <defs>
      <path id="DejaVuSans-41" d="M 2188 4044 
L 1331 1722 
L 3047 1722 
L 2188 4044 
z
M 1831 4666 
L 2547 4666 
L 4325 0 
L 3669 0 
L 3244 1197 
L 1141 1197 
L 716 0 
L 50 0 
L 1831 4666 
z
" transform="scale(0.015625)"/>
     </defs>
     <use xlink:href="#DejaVuSans-41"/>
     <use xlink:href="#DejaVuSans-46" x="68.408203"/>
     <use xlink:href="#DejaVuSans-4c" x="125.927734"/>
    </g>
   </g>
   <g id="text_22">
    <!-- AFR -->
    <g transform="translate(361.832136 58.964453)scale(0.08 -0.08)">
     <use xlink:href="#DejaVuSans-41"/>
     <use xlink:href="#DejaVuSans-46" x="68.408203"/>
     <use xlink:href="#DejaVuSans-52" x="125.927734"/>
    </g>
   </g>
   <g id="text_23">
    <!-- Nonfinal -->
    <g transform="translate(361.832136 48.714099)scale(0.08 -0.08)">
     <defs>
      <path id="DejaVuSans-4e" d="M 628 4666 
L 1478 4666 
L 3547 763 
L 3547 4666 
L 4159 4666 
L 4159 0 
L 3309 0 
L 1241 3903 
L 1241 0 
L 628 0 
L 628 4666 
z
" transform="scale(0.015625)"/>
      <path id="DejaVuSans-66" d="M 2375 4863 
L 2375 4384 
L 1825 4384 
Q 1516 4384 1395 4259 
Q 1275 4134 1275 3809 
L 1275 3500 
L 2222 3500 
L 2222 3053 
L 1275 3053 
L 1275 0 
L 697 0 
L 697 3053 
L 147 3053 
L 147 3500 
L 697 3500 
L 697 3744 
Q 697 4328 969 4595 
Q 1241 4863 1831 4863 
L 2375 4863 
z
" transform="scale(0.015625)"/>
      <path id="DejaVuSans-6c" d="M 603 4863 
L 1178 4863 
L 1178 0 
L 603 0 
L 603 4863 
z
" transform="scale(0.015625)"/>
     </defs>
     <use xlink:href="#DejaVuSans-4e"/>
     <use xlink:href="#DejaVuSans-6f" x="74.804688"/>
     <use xlink:href="#DejaVuSans-6e" x="135.986328"/>
     <use xlink:href="#DejaVuSans-66" x="199.365234"/>
     <use xlink:href="#DejaVuSans-69" x="234.570312"/>
     <use xlink:href="#DejaVuSans-6e" x="262.353516"/>
     <use xlink:href="#DejaVuSans-61" x="325.732422"/>
     <use xlink:href="#DejaVuSans-6c" x="387.011719"/>
    </g>
   </g>
   <g id="text_24">
    <!-- Trochaic -->
    <g transform="translate(361.832136 74.485312)scale(0.08 -0.08)">
     <defs>
      <path id="DejaVuSans-54" d="M -19 4666 
L 3928 4666 
L 3928 4134 
L 2272 4134 
L 2272 0 
L 1638 0 
L 1638 4134 
L -19 4134 
L -19 4666 
z
" transform="scale(0.015625)"/>
      <path id="DejaVuSans-68" d="M 3513 2113 
L 3513 0 
L 2938 0 
L 2938 2094 
Q 2938 2591 2744 2837 
Q 2550 3084 2163 3084 
Q 1697 3084 1428 2787 
Q 1159 2491 1159 1978 
L 1159 0 
L 581 0 
L 581 4863 
L 1159 4863 
L 1159 2956 
Q 1366 3272 1645 3428 
Q 1925 3584 2291 3584 
Q 2894 3584 3203 3211 
Q 3513 2838 3513 2113 
z
" transform="scale(0.015625)"/>
     </defs>
     <use xlink:href="#DejaVuSans-54"/>
     <use xlink:href="#DejaVuSans-72" x="46.333984"/>
     <use xlink:href="#DejaVuSans-6f" x="85.197266"/>
     <use xlink:href="#DejaVuSans-63" x="146.378906"/>
     <use xlink:href="#DejaVuSans-68" x="201.359375"/>
     <use xlink:href="#DejaVuSans-61" x="264.738281"/>
     <use xlink:href="#DejaVuSans-69" x="326.017578"/>
     <use xlink:href="#DejaVuSans-63" x="353.800781"/>
    </g>
   </g>
  </g>
  <g id="axes_2">
   <g id="patch_7">
    <path d="M 57.6 307.584 
L 414.72 307.584 
L 414.72 186.624 
L 57.6 186.624 
z
" style="fill: #ffffff"/>
   </g>
   <g id="matplotlib.axis_3">
    <g id="xtick_8">
     <g id="line2d_25">
      <g>
       <use xlink:href="#mb0252b7f3b" x="72.701527" y="307.584" style="stroke: #000000; stroke-width: 0.8"/>
      </g>
     </g>
     <g id="text_25">
      <!-- 0 -->
      <g transform="translate(69.520277 322.182437)scale(0.1 -0.1)">
       <use xlink:href="#DejaVuSans-30"/>
      </g>
     </g>
    </g>
    <g id="xtick_9">
     <g id="line2d_26">
      <g>
       <use xlink:href="#mb0252b7f3b" x="129.261552" y="307.584" style="stroke: #000000; stroke-width: 0.8"/>
      </g>
     </g>
     <g id="text_26">
      <!-- 50 -->
      <g transform="translate(122.899052 322.182437)scale(0.1 -0.1)">
       <use xlink:href="#DejaVuSans-35"/>
       <use xlink:href="#DejaVuSans-30" x="63.623047"/>
      </g>
     </g>
    </g>
    <g id="xtick_10">
     <g id="line2d_27">
      <g>
       <use xlink:href="#mb0252b7f3b" x="185.821577" y="307.584" style="stroke: #000000; stroke-width: 0.8"/>
      </g>
     </g>
     <g id="text_27">
      <!-- 100 -->
      <g transform="translate(176.277827 322.182437)scale(0.1 -0.1)">
       <use xlink:href="#DejaVuSans-31"/>
       <use xlink:href="#DejaVuSans-30" x="63.623047"/>
       <use xlink:href="#DejaVuSans-30" x="127.246094"/>
      </g>
     </g>
    </g>
    <g id="xtick_11">
     <g id="line2d_28">
      <g>
       <use xlink:href="#mb0252b7f3b" x="242.381603" y="307.584" style="stroke: #000000; stroke-width: 0.8"/>
      </g>
     </g>
     <g id="text_28">
      <!-- 150 -->
      <g transform="translate(232.837853 322.182437)scale(0.1 -0.1)">
       <use xlink:href="#DejaVuSans-31"/>
       <use xlink:href="#DejaVuSans-35" x="63.623047"/>
       <use xlink:href="#DejaVuSans-30" x="127.246094"/>
      </g>
     </g>
    </g>
    <g id="xtick_12">
     <g id="line2d_29">
      <g>
       <use xlink:href="#mb0252b7f3b" x="298.941628" y="307.584" style="stroke: #000000; stroke-width: 0.8"/>
      </g>
     </g>
     <g id="text_29">
      <!-- 200 -->
      <g transform="translate(289.397878 322.182437)scale(0.1 -0.1)">
       <use xlink:href="#DejaVuSans-32"/>
       <use xlink:href="#DejaVuSans-30" x="63.623047"/>
       <use xlink:href="#DejaVuSans-30" x="127.246094"/>
      </g>
     </g>
    </g>
    <g id="xtick_13">
     <g id="line2d_30">
      <g>
       <use xlink:href="#mb0252b7f3b" x="355.501653" y="307.584" style="stroke: #000000; stroke-width: 0.8"/>
      </g>
     </g>
     <g id="text_30">
      <!-- 250 -->
      <g transform="translate(345.957903 322.182437)scale(0.1 -0.1)">
       <use xlink:href="#DejaVuSans-32"/>
       <use xlink:href="#DejaVuSans-35" x="63.623047"/>
       <use xlink:href="#DejaVuSans-30" x="127.246094"/>
      </g>
     </g>
    </g>
    <g id="xtick_14">
     <g id="line2d_31">
      <g>
       <use xlink:href="#mb0252b7f3b" x="412.061679" y="307.584" style="stroke: #000000; stroke-width: 0.8"/>
      </g>
     </g>
     <g id="text_31">
      <!-- 300 -->
      <g transform="translate(402.517929 322.182437)scale(0.1 -0.1)">
       <use xlink:href="#DejaVuSans-33"/>
       <use xlink:href="#DejaVuSans-30" x="63.623047"/>
       <use xlink:href="#DejaVuSans-30" x="127.246094"/>
      </g>
     </g>
    </g>
   </g>
   <g id="matplotlib.axis_4">
    <g id="ytick_6">
     <g id="line2d_32">
      <g>
       <use xlink:href="#md0ff5cfb6b" x="57.6" y="302.14327" style="stroke: #000000; stroke-width: 0.8"/>
      </g>
     </g>
     <g id="text_32">
      <!-- 0 -->
      <g transform="translate(44.2375 305.942489)scale(0.1 -0.1)">
       <use xlink:href="#DejaVuSans-30"/>
      </g>
     </g>
    </g>
    <g id="ytick_7">
     <g id="line2d_33">
      <g>
       <use xlink:href="#md0ff5cfb6b" x="57.6" y="273.417138" style="stroke: #000000; stroke-width: 0.8"/>
      </g>
     </g>
     <g id="text_33">
      <!-- 500 -->
      <g transform="translate(31.5125 277.216356)scale(0.1 -0.1)">
       <use xlink:href="#DejaVuSans-35"/>
       <use xlink:href="#DejaVuSans-30" x="63.623047"/>
       <use xlink:href="#DejaVuSans-30" x="127.246094"/>
      </g>
     </g>
    </g>
    <g id="ytick_8">
     <g id="line2d_34">
      <g>
       <use xlink:href="#md0ff5cfb6b" x="57.6" y="244.691005" style="stroke: #000000; stroke-width: 0.8"/>
      </g>
     </g>
     <g id="text_34">
      <!-- 1000 -->
      <g transform="translate(25.15 248.490224)scale(0.1 -0.1)">
       <use xlink:href="#DejaVuSans-31"/>
       <use xlink:href="#DejaVuSans-30" x="63.623047"/>
       <use xlink:href="#DejaVuSans-30" x="127.246094"/>
       <use xlink:href="#DejaVuSans-30" x="190.869141"/>
      </g>
     </g>
    </g>
    <g id="ytick_9">
     <g id="line2d_35">
      <g>
       <use xlink:href="#md0ff5cfb6b" x="57.6" y="215.964872" style="stroke: #000000; stroke-width: 0.8"/>
      </g>
     </g>
     <g id="text_35">
      <!-- 1500 -->
      <g transform="translate(25.15 219.764091)scale(0.1 -0.1)">
       <use xlink:href="#DejaVuSans-31"/>
       <use xlink:href="#DejaVuSans-35" x="63.623047"/>
       <use xlink:href="#DejaVuSans-30" x="127.246094"/>
       <use xlink:href="#DejaVuSans-30" x="190.869141"/>
      </g>
     </g>
    </g>
    <g id="ytick_10">
     <g id="line2d_36">
      <g>
       <use xlink:href="#md0ff5cfb6b" x="57.6" y="187.238739" style="stroke: #000000; stroke-width: 0.8"/>
      </g>
     </g>
     <g id="text_36">
      <!-- 2000 -->
      <g transform="translate(25.15 191.037958)scale(0.1 -0.1)">
       <use xlink:href="#DejaVuSans-32"/>
       <use xlink:href="#DejaVuSans-30" x="63.623047"/>
       <use xlink:href="#DejaVuSans-30" x="127.246094"/>
       <use xlink:href="#DejaVuSans-30" x="190.869141"/>
      </g>
     </g>
    </g>
   </g>
   <g id="line2d_37">
    <path d="M 73.832727 302.085818 
L 74.963928 302.085818 
L 76.095128 301.970914 
L 77.226329 301.970914 
L 78.357529 302.085818 
L 80.61993 302.085818 
L 81.751131 301.970914 
L 82.882331 301.6262 
L 84.013532 301.913461 
L 85.144732 301.511296 
L 86.275933 301.396391 
L 87.407133 302.085818 
L 90.800735 301.741105 
L 91.931935 301.166582 
L 93.063136 302.028366 
L 94.194336 301.6262 
L 95.325537 302.085818 
L 96.456737 301.453843 
L 98.719138 299.615371 
L 99.850339 299.730275 
L 100.981539 301.741105 
L 102.11274 302.085818 
L 103.24394 301.051677 
L 104.375141 293.295622 
L 105.506341 300.534607 
L 106.637542 297.489637 
L 107.768742 300.074989 
L 108.899943 299.730275 
L 110.031143 301.396391 
L 111.162344 296.685305 
L 112.293545 298.466325 
L 113.424745 285.597018 
L 114.555946 296.685305 
L 115.687146 295.995878 
L 116.818347 297.719446 
L 117.949547 301.683652 
L 119.080748 298.06416 
L 120.211948 288.469631 
L 121.343149 301.051677 
L 122.474349 301.396391 
L 123.60555 291.342245 
L 124.73675 301.970914 
L 125.867951 300.419702 
L 126.999151 290.825174 
L 128.130352 300.247346 
L 129.261552 299.213205 
L 130.392753 301.798557 
L 131.523953 301.453843 
L 132.655154 299.730275 
L 133.786354 283.184023 
L 134.917555 282.724405 
L 136.048755 301.741105 
L 137.179956 301.511296 
L 138.311156 301.6262 
L 139.442357 301.338939 
L 140.573557 297.087471 
L 141.704758 291.22734 
L 142.835958 301.856009 
L 143.967159 288.412179 
L 145.098359 297.087471 
L 146.22956 300.706964 
L 147.36076 301.970914 
L 148.491961 297.31728 
L 149.623161 301.396391 
L 150.754362 290.825174 
L 151.885562 301.10913 
L 153.016763 299.385562 
L 154.147963 300.764416 
L 155.279164 294.617024 
L 156.410364 297.834351 
L 157.541565 294.502119 
L 158.672765 298.06416 
L 159.803966 286.803516 
L 160.935166 300.706964 
L 162.066367 281.058289 
L 163.197567 294.78938 
L 164.328768 279.966696 
L 165.459968 296.225687 
L 166.591169 300.247346 
L 167.722369 300.017537 
L 168.85357 300.534607 
L 169.98477 299.730275 
L 171.115971 299.84518 
L 172.247171 300.419702 
L 173.378372 301.338939 
L 174.509572 301.166582 
L 175.640773 292.836003 
L 176.771973 300.879321 
L 177.903174 300.074989 
L 179.034374 298.811039 
L 180.165575 291.112435 
L 181.296775 301.453843 
L 182.427976 301.338939 
L 183.559176 237.681828 
L 184.690377 276.117394 
L 185.821577 300.074989 
L 186.952778 290.423008 
L 188.083978 302.028366 
L 189.215179 301.798557 
L 190.346379 298.121612 
L 191.47758 281.34555 
L 192.60878 297.374732 
L 193.739981 300.592059 
L 194.871182 290.020842 
L 196.002382 282.149882 
L 197.133583 299.960084 
L 198.264783 282.896761 
L 199.395984 286.228993 
L 200.527184 272.325545 
L 201.658385 294.617024 
L 202.789585 207.576841 
L 203.920786 294.78938 
L 205.051986 301.856009 
L 206.183187 264.109871 
L 207.314387 276.174846 
L 208.445588 301.338939 
L 209.576788 300.994225 
L 210.707989 300.074989 
L 211.839189 192.122182 
L 212.97039 297.259828 
L 214.10159 276.174846 
L 215.232791 267.499554 
L 216.363991 283.528736 
L 217.495192 295.651164 
L 218.626392 293.927596 
L 219.757593 301.511296 
L 220.888793 266.1207 
L 222.019994 241.818392 
L 223.151194 277.898414 
L 224.282395 300.304798 
L 225.413595 275.715228 
L 226.544796 297.834351 
L 227.675996 296.627853 
L 228.807197 298.006707 
L 229.938397 252.734322 
L 231.069598 293.927596 
L 232.200798 297.949255 
L 233.331999 276.806821 
L 234.463199 298.696135 
L 235.5944 279.219816 
L 236.7256 294.674476 
L 237.856801 301.568748 
L 238.988001 300.649512 
L 240.119202 297.374732 
L 241.250402 299.615371 
L 242.381603 248.770116 
L 243.512803 288.010013 
L 244.644004 299.270657 
L 245.775204 287.607847 
L 246.906405 280.598671 
L 248.037605 299.557918 
L 249.168806 293.065812 
L 250.300006 293.697787 
L 251.431207 301.051677 
L 252.562407 293.985049 
L 253.693608 248.540307 
L 254.824808 293.065812 
L 255.956009 300.304798 
L 257.087209 293.927596 
L 258.21841 213.322068 
L 259.34961 301.913461 
L 260.480811 276.51956 
L 261.612011 275.715228 
L 262.743212 300.017537 
L 263.874412 300.017537 
L 265.005613 291.22734 
L 266.136813 300.592059 
L 267.268014 278.932555 
L 268.399214 301.396391 
L 269.530415 291.514601 
L 270.661615 301.338939 
L 271.792816 246.529477 
L 272.924016 299.672823 
L 274.055217 289.44632 
L 275.186417 300.419702 
L 276.317618 298.925944 
L 277.448818 276.51956 
L 278.580019 264.224775 
L 279.71122 300.592059 
L 280.84242 264.109871 
L 281.973621 287.895109 
L 283.104821 282.6095 
L 284.236022 300.419702 
L 285.367222 293.640335 
L 286.498423 291.284792 
L 287.629623 297.087471 
L 288.760824 299.672823 
L 289.892024 244.231387 
L 291.023225 288.124918 
L 292.154425 268.591147 
L 293.285626 297.030019 
L 294.416826 275.715228 
L 295.548027 291.629506 
L 296.679227 281.575359 
L 297.810428 237.279663 
L 298.941628 264.454584 
L 300.072829 300.189893 
L 301.204029 301.453843 
L 302.33523 276.347203 
L 303.46643 258.996619 
L 304.597631 301.511296 
L 305.728831 256.468719 
L 306.860032 294.559571 
L 307.991232 301.798557 
L 309.122433 241.301321 
L 310.253633 276.979178 
L 311.384834 260.949996 
L 312.516034 300.879321 
L 313.647235 300.649512 
L 314.778435 291.112435 
L 315.909636 297.432185 
L 317.040836 274.795992 
L 318.172037 288.18237 
L 319.303237 245.035718 
L 320.434438 257.847574 
L 321.565638 265.60363 
L 322.696839 294.042501 
L 323.828039 288.18237 
L 324.95924 299.270657 
L 326.09044 299.672823 
L 327.221641 301.453843 
L 328.352841 267.499554 
L 330.615242 298.523778 
L 331.746443 261.409614 
L 332.877643 284.333068 
L 334.008844 295.076642 
L 335.140044 252.67687 
L 336.271245 268.476243 
L 337.402445 291.342245 
L 338.533646 298.925944 
L 339.664846 289.216511 
L 340.796047 280.483766 
L 341.927247 292.146576 
L 343.058448 283.413832 
L 344.189648 298.351421 
L 345.320849 289.733581 
L 346.452049 298.408873 
L 347.58325 299.730275 
L 348.71445 271.578665 
L 349.845651 293.180717 
L 350.976851 298.868491 
L 352.108052 293.238169 
L 353.239252 289.561224 
L 354.370453 298.811039 
L 355.501653 281.000837 
L 356.632854 285.1374 
L 357.764054 295.766069 
L 358.895255 302.085818 
L 360.026455 301.224034 
L 361.157656 255.089865 
L 362.288857 269.223122 
L 363.420057 294.502119 
L 364.551258 299.0983 
L 365.682458 294.502119 
L 367.944859 282.724405 
L 369.07606 296.915114 
L 371.338461 267.786816 
L 372.469661 300.419702 
L 373.600862 301.10913 
L 374.732062 294.329762 
L 375.863263 267.212293 
L 376.994463 298.06416 
L 378.125664 280.024148 
L 379.256864 295.593712 
L 380.388065 301.6262 
L 381.519265 301.798557 
L 382.650466 301.453843 
L 383.781666 297.144923 
L 384.912867 282.724405 
L 386.044067 264.167323 
L 387.175268 297.719446 
L 388.306468 299.0983 
L 389.437669 299.557918 
L 390.568869 276.462108 
L 391.70007 299.787728 
L 392.83127 299.730275 
L 393.962471 287.320586 
L 395.093671 271.233952 
L 396.224872 298.351421 
L 398.487273 296.570401 
L 398.487273 296.570401 
" clip-path="url(#p5984f82767)" style="fill: none; stroke: #1f77b4; stroke-width: 1.5; stroke-linecap: square"/>
   </g>
   <g id="patch_8">
    <path d="M 57.6 307.584 
L 57.6 186.624 
" style="fill: none; stroke: #000000; stroke-width: 0.8; stroke-linejoin: miter; stroke-linecap: square"/>
   </g>
   <g id="patch_9">
    <path d="M 414.72 307.584 
L 414.72 186.624 
" style="fill: none; stroke: #000000; stroke-width: 0.8; stroke-linejoin: miter; stroke-linecap: square"/>
   </g>
   <g id="patch_10">
    <path d="M 57.6 307.584 
L 414.72 307.584 
" style="fill: none; stroke: #000000; stroke-width: 0.8; stroke-linejoin: miter; stroke-linecap: square"/>
   </g>
   <g id="patch_11">
    <path d="M 57.6 186.624 
L 414.72 186.624 
" style="fill: none; stroke: #000000; stroke-width: 0.8; stroke-linejoin: miter; stroke-linecap: square"/>
   </g>
  </g>
 </g>
 <defs>
  <clipPath id="pe84eeacc3a">
   <rect x="57.6" y="41.472" width="357.12" height="120.96"/>
  </clipPath>
  <clipPath id="p5984f82767">
   <rect x="57.6" y="186.624" width="357.12" height="120.96"/>
  </clipPath>
 </defs>
</svg>
