<?xml version="1.0" encoding="utf-8" standalone="no"?>
<!DOCTYPE svg PUBLIC "-//W3C//DTD SVG 1.1//EN"
  "http://www.w3.org/Graphics/SVG/1.1/DTD/svg11.dtd">
<svg xmlns:xlink="http://www.w3.org/1999/xlink" width="460.8pt" height="345.6pt" viewBox="0 0 460.8 345.6" xmlns="http://www.w3.org/2000/svg" version="1.1">
 <metadata>
  <rdf:RDF xmlns:dc="http://purl.org/dc/elements/1.1/" xmlns:cc="http://creativecommons.org/ns#" xmlns:rdf="http://www.w3.org/1999/02/22-rdf-syntax-ns#">
   <cc:Work>
    <dc:type rdf:resource="http://purl.org/dc/dcmitype/StillImage"/>
    <dc:date>2022-05-13T16:38:56.286680</dc:date>
    <dc:format>image/svg+xml</dc:format>
    <dc:creator>
     <cc:Agent>
      <dc:title>Matplotlib v3.5.1, https://matplotlib.org/</dc:title>
     </cc:Agent>
    </dc:creator>
   </cc:Work>
  </rdf:RDF>
 </metadata>
 <defs>
  <style type="text/css">*{stroke-linejoin: round; stroke-linecap: butt}</style>
 </defs>
 <g id="figure_1">
  <g id="patch_1">
   <path d="M 0 345.6 
L 460.8 345.6 
L 460.8 0 
L 0 0 
z
" style="fill: #ffffff"/>
  </g>
  <g id="axes_1">
   <g id="patch_2">
    <path d="M 57.6 162.432 
L 414.72 162.432 
L 414.72 41.472 
L 57.6 41.472 
z
" style="fill: #ffffff"/>
   </g>
   <g id="matplotlib.axis_1">
    <g id="xtick_1">
     <g id="line2d_1">
      <defs>
       <path id="mdb26ffcaa1" d="M 0 0 
L 0 3.5 
" style="stroke: #000000; stroke-width: 0.8"/>
      </defs>
      <g>
       <use xlink:href="#mdb26ffcaa1" x="73.827491" y="162.432" style="stroke: #000000; stroke-width: 0.8"/>
      </g>
     </g>
     <g id="text_1">
      <!-- 0 -->
      <g transform="translate(70.646241 177.030437)scale(0.1 -0.1)">
       <defs>
        <path id="DejaVuSans-30" d="M 2034 4250 
Q 1547 4250 1301 3770 
Q 1056 3291 1056 2328 
Q 1056 1369 1301 889 
Q 1547 409 2034 409 
Q 2525 409 2770 889 
Q 3016 1369 3016 2328 
Q 3016 3291 2770 3770 
Q 2525 4250 2034 4250 
z
M 2034 4750 
Q 2819 4750 3233 4129 
Q 3647 3509 3647 2328 
Q 3647 1150 3233 529 
Q 2819 -91 2034 -91 
Q 1250 -91 836 529 
Q 422 1150 422 2328 
Q 422 3509 836 4129 
Q 1250 4750 2034 4750 
z
" transform="scale(0.015625)"/>
       </defs>
       <use xlink:href="#DejaVuSans-30"/>
      </g>
     </g>
    </g>
    <g id="xtick_2">
     <g id="line2d_2">
      <g>
       <use xlink:href="#mdb26ffcaa1" x="126.191972" y="162.432" style="stroke: #000000; stroke-width: 0.8"/>
      </g>
     </g>
     <g id="text_2">
      <!-- 10000 -->
      <g transform="translate(110.285722 177.030437)scale(0.1 -0.1)">
       <defs>
        <path id="DejaVuSans-31" d="M 794 531 
L 1825 531 
L 1825 4091 
L 703 3866 
L 703 4441 
L 1819 4666 
L 2450 4666 
L 2450 531 
L 3481 531 
L 3481 0 
L 794 0 
L 794 531 
z
" transform="scale(0.015625)"/>
       </defs>
       <use xlink:href="#DejaVuSans-31"/>
       <use xlink:href="#DejaVuSans-30" x="63.623047"/>
       <use xlink:href="#DejaVuSans-30" x="127.246094"/>
       <use xlink:href="#DejaVuSans-30" x="190.869141"/>
       <use xlink:href="#DejaVuSans-30" x="254.492188"/>
      </g>
     </g>
    </g>
    <g id="xtick_3">
     <g id="line2d_3">
      <g>
       <use xlink:href="#mdb26ffcaa1" x="178.556453" y="162.432" style="stroke: #000000; stroke-width: 0.8"/>
      </g>
     </g>
     <g id="text_3">
      <!-- 20000 -->
      <g transform="translate(162.650203 177.030437)scale(0.1 -0.1)">
       <defs>
        <path id="DejaVuSans-32" d="M 1228 531 
L 3431 531 
L 3431 0 
L 469 0 
L 469 531 
Q 828 903 1448 1529 
Q 2069 2156 2228 2338 
Q 2531 2678 2651 2914 
Q 2772 3150 2772 3378 
Q 2772 3750 2511 3984 
Q 2250 4219 1831 4219 
Q 1534 4219 1204 4116 
Q 875 4013 500 3803 
L 500 4441 
Q 881 4594 1212 4672 
Q 1544 4750 1819 4750 
Q 2544 4750 2975 4387 
Q 3406 4025 3406 3419 
Q 3406 3131 3298 2873 
Q 3191 2616 2906 2266 
Q 2828 2175 2409 1742 
Q 1991 1309 1228 531 
z
" transform="scale(0.015625)"/>
       </defs>
       <use xlink:href="#DejaVuSans-32"/>
       <use xlink:href="#DejaVuSans-30" x="63.623047"/>
       <use xlink:href="#DejaVuSans-30" x="127.246094"/>
       <use xlink:href="#DejaVuSans-30" x="190.869141"/>
       <use xlink:href="#DejaVuSans-30" x="254.492188"/>
      </g>
     </g>
    </g>
    <g id="xtick_4">
     <g id="line2d_4">
      <g>
       <use xlink:href="#mdb26ffcaa1" x="230.920934" y="162.432" style="stroke: #000000; stroke-width: 0.8"/>
      </g>
     </g>
     <g id="text_4">
      <!-- 30000 -->
      <g transform="translate(215.014684 177.030437)scale(0.1 -0.1)">
       <defs>
        <path id="DejaVuSans-33" d="M 2597 2516 
Q 3050 2419 3304 2112 
Q 3559 1806 3559 1356 
Q 3559 666 3084 287 
Q 2609 -91 1734 -91 
Q 1441 -91 1130 -33 
Q 819 25 488 141 
L 488 750 
Q 750 597 1062 519 
Q 1375 441 1716 441 
Q 2309 441 2620 675 
Q 2931 909 2931 1356 
Q 2931 1769 2642 2001 
Q 2353 2234 1838 2234 
L 1294 2234 
L 1294 2753 
L 1863 2753 
Q 2328 2753 2575 2939 
Q 2822 3125 2822 3475 
Q 2822 3834 2567 4026 
Q 2313 4219 1838 4219 
Q 1578 4219 1281 4162 
Q 984 4106 628 3988 
L 628 4550 
Q 988 4650 1302 4700 
Q 1616 4750 1894 4750 
Q 2613 4750 3031 4423 
Q 3450 4097 3450 3541 
Q 3450 3153 3228 2886 
Q 3006 2619 2597 2516 
z
" transform="scale(0.015625)"/>
       </defs>
       <use xlink:href="#DejaVuSans-33"/>
       <use xlink:href="#DejaVuSans-30" x="63.623047"/>
       <use xlink:href="#DejaVuSans-30" x="127.246094"/>
       <use xlink:href="#DejaVuSans-30" x="190.869141"/>
       <use xlink:href="#DejaVuSans-30" x="254.492188"/>
      </g>
     </g>
    </g>
    <g id="xtick_5">
     <g id="line2d_5">
      <g>
       <use xlink:href="#mdb26ffcaa1" x="283.285415" y="162.432" style="stroke: #000000; stroke-width: 0.8"/>
      </g>
     </g>
     <g id="text_5">
      <!-- 40000 -->
      <g transform="translate(267.379165 177.030437)scale(0.1 -0.1)">
       <defs>
        <path id="DejaVuSans-34" d="M 2419 4116 
L 825 1625 
L 2419 1625 
L 2419 4116 
z
M 2253 4666 
L 3047 4666 
L 3047 1625 
L 3713 1625 
L 3713 1100 
L 3047 1100 
L 3047 0 
L 2419 0 
L 2419 1100 
L 313 1100 
L 313 1709 
L 2253 4666 
z
" transform="scale(0.015625)"/>
       </defs>
       <use xlink:href="#DejaVuSans-34"/>
       <use xlink:href="#DejaVuSans-30" x="63.623047"/>
       <use xlink:href="#DejaVuSans-30" x="127.246094"/>
       <use xlink:href="#DejaVuSans-30" x="190.869141"/>
       <use xlink:href="#DejaVuSans-30" x="254.492188"/>
      </g>
     </g>
    </g>
    <g id="xtick_6">
     <g id="line2d_6">
      <g>
       <use xlink:href="#mdb26ffcaa1" x="335.649896" y="162.432" style="stroke: #000000; stroke-width: 0.8"/>
      </g>
     </g>
     <g id="text_6">
      <!-- 50000 -->
      <g transform="translate(319.743646 177.030437)scale(0.1 -0.1)">
       <defs>
        <path id="DejaVuSans-35" d="M 691 4666 
L 3169 4666 
L 3169 4134 
L 1269 4134 
L 1269 2991 
Q 1406 3038 1543 3061 
Q 1681 3084 1819 3084 
Q 2600 3084 3056 2656 
Q 3513 2228 3513 1497 
Q 3513 744 3044 326 
Q 2575 -91 1722 -91 
Q 1428 -91 1123 -41 
Q 819 9 494 109 
L 494 744 
Q 775 591 1075 516 
Q 1375 441 1709 441 
Q 2250 441 2565 725 
Q 2881 1009 2881 1497 
Q 2881 1984 2565 2268 
Q 2250 2553 1709 2553 
Q 1456 2553 1204 2497 
Q 953 2441 691 2322 
L 691 4666 
z
" transform="scale(0.015625)"/>
       </defs>
       <use xlink:href="#DejaVuSans-35"/>
       <use xlink:href="#DejaVuSans-30" x="63.623047"/>
       <use xlink:href="#DejaVuSans-30" x="127.246094"/>
       <use xlink:href="#DejaVuSans-30" x="190.869141"/>
       <use xlink:href="#DejaVuSans-30" x="254.492188"/>
      </g>
     </g>
    </g>
    <g id="xtick_7">
     <g id="line2d_7">
      <g>
       <use xlink:href="#mdb26ffcaa1" x="388.014377" y="162.432" style="stroke: #000000; stroke-width: 0.8"/>
      </g>
     </g>
     <g id="text_7">
      <!-- 60000 -->
      <g transform="translate(372.108127 177.030437)scale(0.1 -0.1)">
       <defs>
        <path id="DejaVuSans-36" d="M 2113 2584 
Q 1688 2584 1439 2293 
Q 1191 2003 1191 1497 
Q 1191 994 1439 701 
Q 1688 409 2113 409 
Q 2538 409 2786 701 
Q 3034 994 3034 1497 
Q 3034 2003 2786 2293 
Q 2538 2584 2113 2584 
z
M 3366 4563 
L 3366 3988 
Q 3128 4100 2886 4159 
Q 2644 4219 2406 4219 
Q 1781 4219 1451 3797 
Q 1122 3375 1075 2522 
Q 1259 2794 1537 2939 
Q 1816 3084 2150 3084 
Q 2853 3084 3261 2657 
Q 3669 2231 3669 1497 
Q 3669 778 3244 343 
Q 2819 -91 2113 -91 
Q 1303 -91 875 529 
Q 447 1150 447 2328 
Q 447 3434 972 4092 
Q 1497 4750 2381 4750 
Q 2619 4750 2861 4703 
Q 3103 4656 3366 4563 
z
" transform="scale(0.015625)"/>
       </defs>
       <use xlink:href="#DejaVuSans-36"/>
       <use xlink:href="#DejaVuSans-30" x="63.623047"/>
       <use xlink:href="#DejaVuSans-30" x="127.246094"/>
       <use xlink:href="#DejaVuSans-30" x="190.869141"/>
       <use xlink:href="#DejaVuSans-30" x="254.492188"/>
      </g>
     </g>
    </g>
   </g>
   <g id="matplotlib.axis_2">
    <g id="ytick_1">
     <g id="line2d_8">
      <defs>
       <path id="m978e3f8a1e" d="M 0 0 
L -3.5 0 
" style="stroke: #000000; stroke-width: 0.8"/>
      </defs>
      <g>
       <use xlink:href="#m978e3f8a1e" x="57.6" y="155.14042" style="stroke: #000000; stroke-width: 0.8"/>
      </g>
     </g>
     <g id="text_8">
      <!-- 70 -->
      <g transform="translate(37.875 158.939639)scale(0.1 -0.1)">
       <defs>
        <path id="DejaVuSans-37" d="M 525 4666 
L 3525 4666 
L 3525 4397 
L 1831 0 
L 1172 0 
L 2766 4134 
L 525 4134 
L 525 4666 
z
" transform="scale(0.015625)"/>
       </defs>
       <use xlink:href="#DejaVuSans-37"/>
       <use xlink:href="#DejaVuSans-30" x="63.623047"/>
      </g>
     </g>
    </g>
    <g id="ytick_2">
     <g id="line2d_9">
      <g>
       <use xlink:href="#m978e3f8a1e" x="57.6" y="126.823604" style="stroke: #000000; stroke-width: 0.8"/>
      </g>
     </g>
     <g id="text_9">
      <!-- 80 -->
      <g transform="translate(37.875 130.622822)scale(0.1 -0.1)">
       <defs>
        <path id="DejaVuSans-38" d="M 2034 2216 
Q 1584 2216 1326 1975 
Q 1069 1734 1069 1313 
Q 1069 891 1326 650 
Q 1584 409 2034 409 
Q 2484 409 2743 651 
Q 3003 894 3003 1313 
Q 3003 1734 2745 1975 
Q 2488 2216 2034 2216 
z
M 1403 2484 
Q 997 2584 770 2862 
Q 544 3141 544 3541 
Q 544 4100 942 4425 
Q 1341 4750 2034 4750 
Q 2731 4750 3128 4425 
Q 3525 4100 3525 3541 
Q 3525 3141 3298 2862 
Q 3072 2584 2669 2484 
Q 3125 2378 3379 2068 
Q 3634 1759 3634 1313 
Q 3634 634 3220 271 
Q 2806 -91 2034 -91 
Q 1263 -91 848 271 
Q 434 634 434 1313 
Q 434 1759 690 2068 
Q 947 2378 1403 2484 
z
M 1172 3481 
Q 1172 3119 1398 2916 
Q 1625 2713 2034 2713 
Q 2441 2713 2670 2916 
Q 2900 3119 2900 3481 
Q 2900 3844 2670 4047 
Q 2441 4250 2034 4250 
Q 1625 4250 1398 4047 
Q 1172 3844 1172 3481 
z
" transform="scale(0.015625)"/>
       </defs>
       <use xlink:href="#DejaVuSans-38"/>
       <use xlink:href="#DejaVuSans-30" x="63.623047"/>
      </g>
     </g>
    </g>
    <g id="ytick_3">
     <g id="line2d_10">
      <g>
       <use xlink:href="#m978e3f8a1e" x="57.6" y="98.506787" style="stroke: #000000; stroke-width: 0.8"/>
      </g>
     </g>
     <g id="text_10">
      <!-- 90 -->
      <g transform="translate(37.875 102.306006)scale(0.1 -0.1)">
       <defs>
        <path id="DejaVuSans-39" d="M 703 97 
L 703 672 
Q 941 559 1184 500 
Q 1428 441 1663 441 
Q 2288 441 2617 861 
Q 2947 1281 2994 2138 
Q 2813 1869 2534 1725 
Q 2256 1581 1919 1581 
Q 1219 1581 811 2004 
Q 403 2428 403 3163 
Q 403 3881 828 4315 
Q 1253 4750 1959 4750 
Q 2769 4750 3195 4129 
Q 3622 3509 3622 2328 
Q 3622 1225 3098 567 
Q 2575 -91 1691 -91 
Q 1453 -91 1209 -44 
Q 966 3 703 97 
z
M 1959 2075 
Q 2384 2075 2632 2365 
Q 2881 2656 2881 3163 
Q 2881 3666 2632 3958 
Q 2384 4250 1959 4250 
Q 1534 4250 1286 3958 
Q 1038 3666 1038 3163 
Q 1038 2656 1286 2365 
Q 1534 2075 1959 2075 
z
" transform="scale(0.015625)"/>
       </defs>
       <use xlink:href="#DejaVuSans-39"/>
       <use xlink:href="#DejaVuSans-30" x="63.623047"/>
      </g>
     </g>
    </g>
    <g id="ytick_4">
     <g id="line2d_11">
      <g>
       <use xlink:href="#m978e3f8a1e" x="57.6" y="70.189971" style="stroke: #000000; stroke-width: 0.8"/>
      </g>
     </g>
     <g id="text_11">
      <!-- 100 -->
      <g transform="translate(31.5125 73.98919)scale(0.1 -0.1)">
       <use xlink:href="#DejaVuSans-31"/>
       <use xlink:href="#DejaVuSans-30" x="63.623047"/>
       <use xlink:href="#DejaVuSans-30" x="127.246094"/>
      </g>
     </g>
    </g>
    <g id="ytick_5">
     <g id="line2d_12">
      <g>
       <use xlink:href="#m978e3f8a1e" x="57.6" y="41.873155" style="stroke: #000000; stroke-width: 0.8"/>
      </g>
     </g>
     <g id="text_12">
      <!-- 110 -->
      <g transform="translate(31.5125 45.672374)scale(0.1 -0.1)">
       <use xlink:href="#DejaVuSans-31"/>
       <use xlink:href="#DejaVuSans-31" x="63.623047"/>
       <use xlink:href="#DejaVuSans-30" x="127.246094"/>
      </g>
     </g>
    </g>
   </g>
   <g id="line2d_13">
    <path d="M 73.832727 69.623635 
L 73.953166 86.849698 
L 73.968875 85.905804 
L 74.000294 85.905804 
L 74.110259 101.952 
L 74.136441 100.300186 
L 74.16786 100.300186 
L 74.293535 110.918992 
L 74.502993 110.918992 
L 74.618194 115.874435 
L 74.822416 115.874435 
L 74.937618 114.930541 
L 75.026637 114.930541 
L 75.141839 117.762222 
L 75.204677 117.762222 
L 75.319879 120.593904 
L 75.351297 120.593904 
L 75.466499 123.425586 
L 75.581701 123.425586 
L 75.628829 122.717665 
L 75.634065 125.549347 
L 75.675957 125.549347 
L 75.749267 125.549347 
L 75.864469 128.381028 
L 76.618518 128.381028 
L 76.73372 127.437135 
L 76.948414 127.437135 
L 77.063616 126.729214 
L 77.681517 126.729214 
L 77.796718 129.560896 
L 80.137411 129.560896 
L 80.252613 132.392577 
L 80.697711 132.392577 
L 80.812913 135.224259 
L 82.23199 135.224259 
L 82.347192 138.055941 
L 82.928438 138.055941 
L 83.043639 140.887622 
L 89.390215 140.887622 
L 89.505416 139.943728 
L 90.489869 139.943728 
L 90.605071 142.77541 
L 92.736305 142.77541 
L 92.851507 145.607092 
L 107.403596 145.607092 
L 107.518798 148.438773 
L 111.205257 148.438773 
L 111.320459 147.494879 
L 112.509133 147.494879 
L 112.624335 150.326561 
L 115.886642 150.326561 
L 116.001844 153.158243 
L 177.844296 153.158243 
L 177.959498 152.214349 
L 179.331447 152.214349 
L 179.446649 151.270455 
L 179.797491 151.270455 
L 179.912693 154.102137 
L 357.632505 154.102137 
L 357.747707 156.933818 
L 398.487273 156.933818 
L 398.487273 156.933818 
" clip-path="url(#p553875c221)" style="fill: none; stroke: #1f77b4; stroke-width: 1.5; stroke-linecap: square"/>
   </g>
   <g id="line2d_14">
    <path d="M 73.832727 70.189971 
L 73.837964 68.77413 
L 73.885092 76.561255 
L 73.921747 75.145414 
L 73.926983 75.145414 
L 73.937456 72.313732 
L 74.036949 75.145414 
L 398.487273 75.145414 
L 398.487273 75.145414 
" clip-path="url(#p553875c221)" style="fill: none; stroke: #ff7f0e; stroke-width: 1.5; stroke-linecap: square"/>
   </g>
   <g id="line2d_15">
    <path d="M 73.832727 69.623635 
L 73.947929 80.714388 
L 73.958402 78.354653 
L 74.120732 78.354653 
L 74.24117 75.994918 
L 74.508229 75.994918 
L 74.623431 75.286998 
L 74.822416 75.286998 
L 74.937618 74.343104 
L 398.487273 74.343104 
L 398.487273 74.343104 
" clip-path="url(#p553875c221)" style="fill: none; stroke: #2ca02c; stroke-width: 1.5; stroke-linecap: square"/>
   </g>
   <g id="line2d_16">
    <path d="M 73.832727 73.021653 
L 73.979348 94.495238 
L 74.000294 94.495238 
L 74.120732 88.831875 
L 74.131205 91.663557 
L 74.173096 91.663557 
L 74.230697 100.158602 
L 74.293535 99.450681 
L 74.361609 98.506787 
L 74.366845 101.338469 
L 74.377318 101.338469 
L 74.49252 106.057938 
L 74.502993 106.057938 
L 74.592012 111.721302 
L 74.618194 110.777408 
L 74.738633 110.777408 
L 74.853835 113.609089 
L 75.12613 113.609089 
L 75.230859 119.272453 
L 75.241332 118.328559 
L 75.581701 118.328559 
L 75.702139 116.676744 
L 75.749267 116.676744 
L 75.864469 119.508426 
L 76.450951 119.508426 
L 76.57139 125.171789 
L 76.948414 125.171789 
L 77.063616 124.463869 
L 77.199763 124.463869 
L 77.314965 127.295551 
L 77.388276 127.295551 
L 77.503477 126.351657 
L 77.681517 126.351657 
L 77.796718 125.407763 
L 78.152797 125.407763 
L 78.267999 128.239444 
L 82.23199 128.239444 
L 82.347192 131.071126 
L 82.577596 131.071126 
L 82.692797 130.127232 
L 82.928438 130.127232 
L 83.043639 132.958914 
L 89.390215 132.958914 
L 89.510653 131.071126 
L 91.762326 131.071126 
L 91.877527 130.127232 
L 92.736305 130.127232 
L 92.851507 132.958914 
L 95.427839 132.958914 
L 95.543041 131.543073 
L 100.968001 131.543073 
L 101.083203 130.599179 
L 104.544495 130.599179 
L 104.659697 129.655285 
L 112.509133 129.655285 
L 112.624335 132.486967 
L 114.624658 132.486967 
L 114.73986 131.071126 
L 115.886642 131.071126 
L 116.001844 133.902808 
L 148.745354 133.902808 
L 148.860556 136.734489 
L 150.714258 136.734489 
L 150.82946 135.318648 
L 179.797491 135.318648 
L 179.912693 138.15033 
L 181.645957 138.15033 
L 181.761159 137.206436 
L 235.162457 137.206436 
L 235.277658 140.038118 
L 357.632505 140.038118 
L 357.747707 139.094224 
L 398.487273 139.094224 
L 398.487273 139.094224 
" clip-path="url(#p553875c221)" style="fill: none; stroke: #d62728; stroke-width: 1.5; stroke-linecap: square"/>
   </g>
   <g id="line2d_17">
    <path d="M 73.832727 73.021653 
L 73.947929 93.787318 
L 73.974111 91.427583 
L 74.120732 91.427583 
L 74.24117 89.067849 
L 74.822416 89.067849 
L 74.937618 88.123955 
L 398.487273 88.123955 
L 398.487273 88.123955 
" clip-path="url(#p553875c221)" style="fill: none; stroke: #9467bd; stroke-width: 1.5; stroke-linecap: square"/>
   </g>
   <g id="line2d_18">
    <path d="M 73.832727 69.623635 
L 73.853673 69.623635 
L 73.974111 67.735847 
L 74.508229 67.735847 
L 74.623431 67.027927 
L 398.487273 67.027927 
L 398.487273 67.027927 
" clip-path="url(#p553875c221)" style="fill: none; stroke: #8c564b; stroke-width: 1.5; stroke-linecap: square"/>
   </g>
   <g id="line2d_19">
    <path d="M 73.832727 73.021653 
L 73.942693 98.506787 
L 73.979348 94.967185 
L 74.000294 94.967185 
L 74.183569 85.0563 
L 74.230697 85.0563 
L 74.277825 84.348379 
L 74.283062 87.180061 
L 74.33019 86.236167 
L 74.361609 86.236167 
L 74.47681 83.876432 
L 74.508229 83.876432 
L 74.571066 86.708114 
L 74.618194 85.292273 
L 74.948091 85.292273 
L 75.031874 83.876432 
L 75.03711 86.708114 
L 75.058056 85.292273 
L 75.230859 85.292273 
L 75.346061 84.348379 
L 75.351297 84.348379 
L 75.466499 82.932538 
L 75.581701 82.932538 
L 75.681193 85.76422 
L 75.691666 84.348379 
L 75.733558 84.348379 
L 75.84876 87.180061 
L 76.618518 87.180061 
L 76.73372 86.236167 
L 76.927468 86.236167 
L 77.04267 84.112406 
L 77.173581 84.112406 
L 77.288783 82.696565 
L 78.152797 82.696565 
L 78.267999 81.280724 
L 78.336073 81.280724 
L 78.451274 84.112406 
L 79.51951 84.112406 
L 79.634712 82.696565 
L 81.828784 82.696565 
L 81.943985 81.280724 
L 82.352428 81.280724 
L 82.46763 84.112406 
L 82.577596 84.112406 
L 82.692797 83.168512 
L 86.096489 83.168512 
L 86.211691 81.752671 
L 88.358634 81.752671 
L 88.473836 84.584353 
L 89.468761 84.584353 
L 89.583963 83.640459 
L 91.762326 83.640459 
L 91.877527 82.696565 
L 100.470539 82.696565 
L 100.585741 81.280724 
L 111.205257 81.280724 
L 111.320459 80.33683 
L 112.592916 80.33683 
L 112.708118 78.920989 
L 115.116884 78.920989 
L 115.232086 77.505149 
L 115.687657 77.505149 
L 115.802859 80.33683 
L 146.148075 80.33683 
L 146.263277 78.920989 
L 148.755827 78.920989 
L 148.871028 77.505149 
L 150.59382 77.505149 
L 150.709022 80.33683 
L 177.844296 80.33683 
L 177.959498 79.392936 
L 179.331447 79.392936 
L 179.446649 82.224618 
L 297.984124 82.224618 
L 298.099326 80.808777 
L 398.487273 80.808777 
L 398.487273 80.808777 
" clip-path="url(#p553875c221)" style="fill: none; stroke: #e377c2; stroke-width: 1.5; stroke-linecap: square"/>
   </g>
   <g id="line2d_20">
    <path d="M 73.832727 69.623635 
L 73.853673 69.623635 
L 73.974111 67.735847 
L 74.277825 67.735847 
L 74.393027 66.320006 
L 74.508229 66.320006 
L 74.623431 65.612086 
L 75.031874 65.612086 
L 75.147076 62.780404 
L 75.581701 62.780404 
L 75.696903 62.072484 
L 75.733558 62.072484 
L 75.84876 59.240802 
L 78.336073 59.240802 
L 78.451274 56.409121 
L 82.352428 56.409121 
L 82.46763 53.577439 
L 88.358634 53.577439 
L 88.473836 52.161598 
L 115.687657 52.161598 
L 115.802859 50.745757 
L 150.59382 50.745757 
L 150.709022 47.914076 
L 179.331447 47.914076 
L 179.446649 46.970182 
L 398.487273 46.970182 
L 398.487273 46.970182 
" clip-path="url(#p553875c221)" style="fill: none; stroke: #7f7f7f; stroke-width: 1.5; stroke-linecap: square"/>
   </g>
   <g id="line2d_21">
    <path d="M 73.832727 73.021653 
L 73.958402 107.237806 
L 74.000294 104.406124 
L 74.042185 97.562893 
L 74.131205 101.102496 
L 74.16786 101.102496 
L 74.173096 99.686655 
L 74.225461 108.1817 
L 74.251643 107.473779 
L 74.277825 107.473779 
L 74.288298 106.057938 
L 74.293535 108.88962 
L 74.377318 106.529885 
L 74.49252 111.249355 
L 74.502993 111.249355 
L 74.571066 116.912718 
L 74.618194 114.552983 
L 74.738633 114.552983 
L 74.859071 120.216346 
L 74.948091 120.216346 
L 75.026637 118.800506 
L 75.031874 121.632187 
L 75.058056 120.216346 
L 75.12613 120.216346 
L 75.230859 125.87971 
L 75.241332 124.935816 
L 75.351297 124.935816 
L 75.466499 123.519975 
L 75.581701 123.519975 
L 75.712612 120.45232 
L 75.749267 120.45232 
L 75.864469 123.284002 
L 76.450951 123.284002 
L 76.57139 128.947365 
L 76.618518 128.947365 
L 76.73372 128.003471 
L 76.927468 128.003471 
L 77.04267 125.87971 
L 77.173581 125.87971 
L 77.199763 124.463869 
L 77.205 127.295551 
L 77.27831 127.295551 
L 77.388276 127.295551 
L 77.503477 126.351657 
L 77.681517 126.351657 
L 77.796718 125.407763 
L 78.152797 125.407763 
L 78.267999 123.991922 
L 78.964446 123.991922 
L 79.079648 126.823604 
L 79.51951 126.823604 
L 79.634712 125.407763 
L 80.137411 125.407763 
L 80.252613 123.991922 
L 80.697711 123.991922 
L 80.812913 126.823604 
L 81.828784 126.823604 
L 81.943985 125.407763 
L 82.23199 125.407763 
L 82.347192 128.239444 
L 82.577596 128.239444 
L 82.692797 127.295551 
L 82.928438 127.295551 
L 83.043639 130.127232 
L 86.096489 130.127232 
L 86.211691 128.711391 
L 88.358634 128.711391 
L 88.473836 127.295551 
L 89.390215 127.295551 
L 89.468761 130.127232 
L 89.50018 129.183338 
L 90.489869 129.183338 
L 90.605071 127.767497 
L 91.762326 127.767497 
L 91.877527 126.823604 
L 92.736305 126.823604 
L 92.851507 129.655285 
L 95.427839 129.655285 
L 95.543041 132.486967 
L 100.470539 132.486967 
L 100.585741 131.071126 
L 100.968001 131.071126 
L 101.083203 130.127232 
L 104.544495 130.127232 
L 104.659697 129.183338 
L 107.403596 129.183338 
L 107.518798 132.01502 
L 111.205257 132.01502 
L 111.320459 131.071126 
L 112.509133 131.071126 
L 112.592916 133.902808 
L 112.619098 132.486967 
L 114.624658 132.486967 
L 114.73986 135.318648 
L 115.116884 135.318648 
L 115.232086 133.902808 
L 115.687657 133.902808 
L 115.802859 132.486967 
L 115.886642 132.486967 
L 116.001844 135.318648 
L 135.052042 135.318648 
L 135.167244 138.15033 
L 146.148075 138.15033 
L 146.263277 136.734489 
L 148.745354 136.734489 
L 148.755827 139.566171 
L 148.855319 138.15033 
L 150.714258 138.15033 
L 150.82946 140.982012 
L 177.844296 140.982012 
L 177.959498 140.038118 
L 179.331447 140.038118 
L 179.446649 139.094224 
L 179.797491 139.094224 
L 179.912693 141.925906 
L 181.645957 141.925906 
L 181.761159 140.982012 
L 235.162457 140.982012 
L 235.277658 143.813693 
L 297.984124 143.813693 
L 298.099326 142.397853 
L 357.632505 142.397853 
L 357.747707 141.453959 
L 398.487273 141.453959 
L 398.487273 141.453959 
" clip-path="url(#p553875c221)" style="fill: none; stroke: #bcbd22; stroke-width: 1.5; stroke-linecap: square"/>
   </g>
   <g id="line2d_22">
    <path d="M 73.832727 69.623635 
L 73.837964 68.207794 
L 73.906038 77.882706 
L 73.921747 75.051025 
L 74.063131 95.344743 
L 74.068367 94.400849 
L 74.110259 90.625274 
L 74.125968 95.344743 
L 74.183569 91.09722 
L 74.209752 91.09722 
L 74.33019 96.760584 
L 74.361609 96.760584 
L 74.419209 99.592265 
L 74.471574 96.760584 
L 74.502993 96.760584 
L 74.508229 93.928902 
L 74.576303 99.592265 
L 74.607722 98.648371 
L 74.738633 98.648371 
L 74.822416 95.81669 
L 74.848598 98.648371 
L 74.948091 98.648371 
L 75.063293 101.480053 
L 75.12613 101.480053 
L 75.230859 95.81669 
L 75.241332 98.648371 
L 75.351297 98.648371 
L 75.466499 101.480053 
L 75.581701 101.480053 
L 75.696903 106.199522 
L 75.749267 106.199522 
L 75.864469 103.367841 
L 76.450951 103.367841 
L 76.57139 97.704478 
L 76.618518 97.704478 
L 76.73372 100.536159 
L 76.927468 100.536159 
L 77.047906 106.199522 
L 77.173581 106.199522 
L 77.199763 109.031204 
L 77.283547 106.199522 
L 77.388276 106.199522 
L 77.503477 105.255629 
L 77.681517 105.255629 
L 77.796718 104.311735 
L 78.152797 104.311735 
L 78.267999 107.143416 
L 78.964446 107.143416 
L 79.079648 104.311735 
L 79.51951 104.311735 
L 79.634712 107.143416 
L 80.137411 107.143416 
L 80.252613 105.727575 
L 80.697711 105.727575 
L 80.812913 102.895894 
L 81.828784 102.895894 
L 81.943985 105.727575 
L 82.23199 105.727575 
L 82.347192 102.895894 
L 82.577596 102.895894 
L 82.692797 105.727575 
L 82.928438 105.727575 
L 83.043639 102.895894 
L 86.096489 102.895894 
L 86.211691 105.727575 
L 88.358634 105.727575 
L 88.473836 108.559257 
L 89.390215 108.559257 
L 89.468761 107.615363 
L 89.473998 110.447045 
L 89.489707 110.447045 
L 90.489869 110.447045 
L 90.605071 109.031204 
L 91.762326 109.031204 
L 91.877527 111.862886 
L 92.736305 111.862886 
L 92.851507 109.031204 
L 95.427839 109.031204 
L 95.543041 107.615363 
L 100.470539 107.615363 
L 100.585741 110.447045 
L 100.968001 110.447045 
L 101.083203 109.503151 
L 104.544495 109.503151 
L 104.659697 108.559257 
L 107.403596 108.559257 
L 107.518798 105.727575 
L 111.205257 105.727575 
L 111.320459 108.559257 
L 112.509133 108.559257 
L 112.592916 105.727575 
L 112.619098 108.559257 
L 114.624658 108.559257 
L 114.73986 107.143416 
L 115.116884 107.143416 
L 115.232086 109.975098 
L 115.687657 109.975098 
L 115.802859 112.80678 
L 115.886642 112.80678 
L 116.001844 109.975098 
L 135.052042 109.975098 
L 135.167244 107.143416 
L 146.148075 107.143416 
L 146.263277 109.975098 
L 148.745354 109.975098 
L 148.755827 107.143416 
L 148.855319 109.975098 
L 150.714258 109.975098 
L 150.82946 108.559257 
L 177.844296 108.559257 
L 177.959498 111.390939 
L 179.331447 111.390939 
L 179.446649 114.22262 
L 179.797491 114.22262 
L 179.912693 111.390939 
L 181.645957 111.390939 
L 181.761159 110.447045 
L 235.162457 110.447045 
L 235.277658 107.615363 
L 297.984124 107.615363 
L 298.099326 110.447045 
L 357.632505 110.447045 
L 357.747707 109.503151 
L 398.487273 109.503151 
L 398.487273 109.503151 
" clip-path="url(#p553875c221)" style="fill: none; stroke: #17becf; stroke-width: 1.5; stroke-linecap: square"/>
   </g>
   <g id="line2d_23">
    <path d="M 73.832727 73.021653 
L 73.853673 73.021653 
L 73.979348 81.516698 
L 74.508229 81.516698 
L 74.623431 84.348379 
L 398.487273 84.348379 
L 398.487273 84.348379 
" clip-path="url(#p553875c221)" style="fill: none; stroke: #1f77b4; stroke-width: 1.5; stroke-linecap: square"/>
   </g>
   <g id="line2d_24">
    <path d="M 73.832727 70.189971 
L 73.853673 70.189971 
L 74.010767 95.675106 
L 74.021239 95.675106 
L 74.152151 107.001832 
L 74.16786 107.001832 
L 74.288298 112.665195 
L 74.592012 112.665195 
L 74.707214 115.496877 
L 74.822416 115.496877 
L 74.937618 118.328559 
L 75.628829 118.328559 
L 75.744031 121.16024 
L 77.388276 121.16024 
L 77.503477 123.991922 
L 77.681517 123.991922 
L 77.796718 126.823604 
L 80.137411 126.823604 
L 80.252613 129.655285 
L 90.489869 129.655285 
L 90.605071 132.486967 
L 100.968001 132.486967 
L 101.083203 135.318648 
L 104.544495 135.318648 
L 104.659697 138.15033 
L 181.645957 138.15033 
L 181.761159 140.982012 
L 357.632505 140.982012 
L 357.747707 143.813693 
L 398.487273 143.813693 
L 398.487273 143.813693 
" clip-path="url(#p553875c221)" style="fill: none; stroke: #ff7f0e; stroke-width: 1.5; stroke-linecap: square"/>
   </g>
   <g id="patch_3">
    <path d="M 57.6 162.432 
L 57.6 41.472 
" style="fill: none; stroke: #000000; stroke-width: 0.8; stroke-linejoin: miter; stroke-linecap: square"/>
   </g>
   <g id="patch_4">
    <path d="M 414.72 162.432 
L 414.72 41.472 
" style="fill: none; stroke: #000000; stroke-width: 0.8; stroke-linejoin: miter; stroke-linecap: square"/>
   </g>
   <g id="patch_5">
    <path d="M 57.6 162.432 
L 414.72 162.432 
" style="fill: none; stroke: #000000; stroke-width: 0.8; stroke-linejoin: miter; stroke-linecap: square"/>
   </g>
   <g id="patch_6">
    <path d="M 57.6 41.472 
L 414.72 41.472 
" style="fill: none; stroke: #000000; stroke-width: 0.8; stroke-linejoin: miter; stroke-linecap: square"/>
   </g>
   <g id="text_13">
    <!-- WSP -->
    <g transform="translate(361.832136 156.933818)scale(0.08 -0.08)">
     <defs>
      <path id="DejaVuSans-57" d="M 213 4666 
L 850 4666 
L 1831 722 
L 2809 4666 
L 3519 4666 
L 4500 722 
L 5478 4666 
L 6119 4666 
L 4947 0 
L 4153 0 
L 3169 4050 
L 2175 0 
L 1381 0 
L 213 4666 
z
" transform="scale(0.015625)"/>
      <path id="DejaVuSans-53" d="M 3425 4513 
L 3425 3897 
Q 3066 4069 2747 4153 
Q 2428 4238 2131 4238 
Q 1616 4238 1336 4038 
Q 1056 3838 1056 3469 
Q 1056 3159 1242 3001 
Q 1428 2844 1947 2747 
L 2328 2669 
Q 3034 2534 3370 2195 
Q 3706 1856 3706 1288 
Q 3706 609 3251 259 
Q 2797 -91 1919 -91 
Q 1588 -91 1214 -16 
Q 841 59 441 206 
L 441 856 
Q 825 641 1194 531 
Q 1563 422 1919 422 
Q 2459 422 2753 634 
Q 3047 847 3047 1241 
Q 3047 1584 2836 1778 
Q 2625 1972 2144 2069 
L 1759 2144 
Q 1053 2284 737 2584 
Q 422 2884 422 3419 
Q 422 4038 858 4394 
Q 1294 4750 2059 4750 
Q 2388 4750 2728 4690 
Q 3069 4631 3425 4513 
z
" transform="scale(0.015625)"/>
      <path id="DejaVuSans-50" d="M 1259 4147 
L 1259 2394 
L 2053 2394 
Q 2494 2394 2734 2622 
Q 2975 2850 2975 3272 
Q 2975 3691 2734 3919 
Q 2494 4147 2053 4147 
L 1259 4147 
z
M 628 4666 
L 2053 4666 
Q 2838 4666 3239 4311 
Q 3641 3956 3641 3272 
Q 3641 2581 3239 2228 
Q 2838 1875 2053 1875 
L 1259 1875 
L 1259 0 
L 628 0 
L 628 4666 
z
" transform="scale(0.015625)"/>
     </defs>
     <use xlink:href="#DejaVuSans-57"/>
     <use xlink:href="#DejaVuSans-53" x="98.876953"/>
     <use xlink:href="#DejaVuSans-50" x="162.353516"/>
    </g>
   </g>
   <g id="text_14">
    <!-- Iambic -->
    <g transform="translate(361.832136 75.145414)scale(0.08 -0.08)">
     <defs>
      <path id="DejaVuSans-49" d="M 628 4666 
L 1259 4666 
L 1259 0 
L 628 0 
L 628 4666 
z
" transform="scale(0.015625)"/>
      <path id="DejaVuSans-61" d="M 2194 1759 
Q 1497 1759 1228 1600 
Q 959 1441 959 1056 
Q 959 750 1161 570 
Q 1363 391 1709 391 
Q 2188 391 2477 730 
Q 2766 1069 2766 1631 
L 2766 1759 
L 2194 1759 
z
M 3341 1997 
L 3341 0 
L 2766 0 
L 2766 531 
Q 2569 213 2275 61 
Q 1981 -91 1556 -91 
Q 1019 -91 701 211 
Q 384 513 384 1019 
Q 384 1609 779 1909 
Q 1175 2209 1959 2209 
L 2766 2209 
L 2766 2266 
Q 2766 2663 2505 2880 
Q 2244 3097 1772 3097 
Q 1472 3097 1187 3025 
Q 903 2953 641 2809 
L 641 3341 
Q 956 3463 1253 3523 
Q 1550 3584 1831 3584 
Q 2591 3584 2966 3190 
Q 3341 2797 3341 1997 
z
" transform="scale(0.015625)"/>
      <path id="DejaVuSans-6d" d="M 3328 2828 
Q 3544 3216 3844 3400 
Q 4144 3584 4550 3584 
Q 5097 3584 5394 3201 
Q 5691 2819 5691 2113 
L 5691 0 
L 5113 0 
L 5113 2094 
Q 5113 2597 4934 2840 
Q 4756 3084 4391 3084 
Q 3944 3084 3684 2787 
Q 3425 2491 3425 1978 
L 3425 0 
L 2847 0 
L 2847 2094 
Q 2847 2600 2669 2842 
Q 2491 3084 2119 3084 
Q 1678 3084 1418 2786 
Q 1159 2488 1159 1978 
L 1159 0 
L 581 0 
L 581 3500 
L 1159 3500 
L 1159 2956 
Q 1356 3278 1631 3431 
Q 1906 3584 2284 3584 
Q 2666 3584 2933 3390 
Q 3200 3197 3328 2828 
z
" transform="scale(0.015625)"/>
      <path id="DejaVuSans-62" d="M 3116 1747 
Q 3116 2381 2855 2742 
Q 2594 3103 2138 3103 
Q 1681 3103 1420 2742 
Q 1159 2381 1159 1747 
Q 1159 1113 1420 752 
Q 1681 391 2138 391 
Q 2594 391 2855 752 
Q 3116 1113 3116 1747 
z
M 1159 2969 
Q 1341 3281 1617 3432 
Q 1894 3584 2278 3584 
Q 2916 3584 3314 3078 
Q 3713 2572 3713 1747 
Q 3713 922 3314 415 
Q 2916 -91 2278 -91 
Q 1894 -91 1617 61 
Q 1341 213 1159 525 
L 1159 0 
L 581 0 
L 581 4863 
L 1159 4863 
L 1159 2969 
z
" transform="scale(0.015625)"/>
      <path id="DejaVuSans-69" d="M 603 3500 
L 1178 3500 
L 1178 0 
L 603 0 
L 603 3500 
z
M 603 4863 
L 1178 4863 
L 1178 4134 
L 603 4134 
L 603 4863 
z
" transform="scale(0.015625)"/>
      <path id="DejaVuSans-63" d="M 3122 3366 
L 3122 2828 
Q 2878 2963 2633 3030 
Q 2388 3097 2138 3097 
Q 1578 3097 1268 2742 
Q 959 2388 959 1747 
Q 959 1106 1268 751 
Q 1578 397 2138 397 
Q 2388 397 2633 464 
Q 2878 531 3122 666 
L 3122 134 
Q 2881 22 2623 -34 
Q 2366 -91 2075 -91 
Q 1284 -91 818 406 
Q 353 903 353 1747 
Q 353 2603 823 3093 
Q 1294 3584 2113 3584 
Q 2378 3584 2631 3529 
Q 2884 3475 3122 3366 
z
" transform="scale(0.015625)"/>
     </defs>
     <use xlink:href="#DejaVuSans-49"/>
     <use xlink:href="#DejaVuSans-61" x="29.492188"/>
     <use xlink:href="#DejaVuSans-6d" x="90.771484"/>
     <use xlink:href="#DejaVuSans-62" x="188.183594"/>
     <use xlink:href="#DejaVuSans-69" x="251.660156"/>
     <use xlink:href="#DejaVuSans-63" x="279.443359"/>
    </g>
   </g>
   <g id="text_15">
    <!-- Parse -->
    <g transform="translate(361.832136 74.343104)scale(0.08 -0.08)">
     <defs>
      <path id="DejaVuSans-72" d="M 2631 2963 
Q 2534 3019 2420 3045 
Q 2306 3072 2169 3072 
Q 1681 3072 1420 2755 
Q 1159 2438 1159 1844 
L 1159 0 
L 581 0 
L 581 3500 
L 1159 3500 
L 1159 2956 
Q 1341 3275 1631 3429 
Q 1922 3584 2338 3584 
Q 2397 3584 2469 3576 
Q 2541 3569 2628 3553 
L 2631 2963 
z
" transform="scale(0.015625)"/>
      <path id="DejaVuSans-73" d="M 2834 3397 
L 2834 2853 
Q 2591 2978 2328 3040 
Q 2066 3103 1784 3103 
Q 1356 3103 1142 2972 
Q 928 2841 928 2578 
Q 928 2378 1081 2264 
Q 1234 2150 1697 2047 
L 1894 2003 
Q 2506 1872 2764 1633 
Q 3022 1394 3022 966 
Q 3022 478 2636 193 
Q 2250 -91 1575 -91 
Q 1294 -91 989 -36 
Q 684 19 347 128 
L 347 722 
Q 666 556 975 473 
Q 1284 391 1588 391 
Q 1994 391 2212 530 
Q 2431 669 2431 922 
Q 2431 1156 2273 1281 
Q 2116 1406 1581 1522 
L 1381 1569 
Q 847 1681 609 1914 
Q 372 2147 372 2553 
Q 372 3047 722 3315 
Q 1072 3584 1716 3584 
Q 2034 3584 2315 3537 
Q 2597 3491 2834 3397 
z
" transform="scale(0.015625)"/>
      <path id="DejaVuSans-65" d="M 3597 1894 
L 3597 1613 
L 953 1613 
Q 991 1019 1311 708 
Q 1631 397 2203 397 
Q 2534 397 2845 478 
Q 3156 559 3463 722 
L 3463 178 
Q 3153 47 2828 -22 
Q 2503 -91 2169 -91 
Q 1331 -91 842 396 
Q 353 884 353 1716 
Q 353 2575 817 3079 
Q 1281 3584 2069 3584 
Q 2775 3584 3186 3129 
Q 3597 2675 3597 1894 
z
M 3022 2063 
Q 3016 2534 2758 2815 
Q 2500 3097 2075 3097 
Q 1594 3097 1305 2825 
Q 1016 2553 972 2059 
L 3022 2063 
z
" transform="scale(0.015625)"/>
     </defs>
     <use xlink:href="#DejaVuSans-50"/>
     <use xlink:href="#DejaVuSans-61" x="55.802734"/>
     <use xlink:href="#DejaVuSans-72" x="117.082031"/>
     <use xlink:href="#DejaVuSans-73" x="158.195312"/>
     <use xlink:href="#DejaVuSans-65" x="210.294922"/>
    </g>
   </g>
   <g id="text_16">
    <!-- FootBin -->
    <g transform="translate(361.832136 139.094224)scale(0.08 -0.08)">
     <defs>
      <path id="DejaVuSans-46" d="M 628 4666 
L 3309 4666 
L 3309 4134 
L 1259 4134 
L 1259 2759 
L 3109 2759 
L 3109 2228 
L 1259 2228 
L 1259 0 
L 628 0 
L 628 4666 
z
" transform="scale(0.015625)"/>
      <path id="DejaVuSans-6f" d="M 1959 3097 
Q 1497 3097 1228 2736 
Q 959 2375 959 1747 
Q 959 1119 1226 758 
Q 1494 397 1959 397 
Q 2419 397 2687 759 
Q 2956 1122 2956 1747 
Q 2956 2369 2687 2733 
Q 2419 3097 1959 3097 
z
M 1959 3584 
Q 2709 3584 3137 3096 
Q 3566 2609 3566 1747 
Q 3566 888 3137 398 
Q 2709 -91 1959 -91 
Q 1206 -91 779 398 
Q 353 888 353 1747 
Q 353 2609 779 3096 
Q 1206 3584 1959 3584 
z
" transform="scale(0.015625)"/>
      <path id="DejaVuSans-74" d="M 1172 4494 
L 1172 3500 
L 2356 3500 
L 2356 3053 
L 1172 3053 
L 1172 1153 
Q 1172 725 1289 603 
Q 1406 481 1766 481 
L 2356 481 
L 2356 0 
L 1766 0 
Q 1100 0 847 248 
Q 594 497 594 1153 
L 594 3053 
L 172 3053 
L 172 3500 
L 594 3500 
L 594 4494 
L 1172 4494 
z
" transform="scale(0.015625)"/>
      <path id="DejaVuSans-42" d="M 1259 2228 
L 1259 519 
L 2272 519 
Q 2781 519 3026 730 
Q 3272 941 3272 1375 
Q 3272 1813 3026 2020 
Q 2781 2228 2272 2228 
L 1259 2228 
z
M 1259 4147 
L 1259 2741 
L 2194 2741 
Q 2656 2741 2882 2914 
Q 3109 3088 3109 3444 
Q 3109 3797 2882 3972 
Q 2656 4147 2194 4147 
L 1259 4147 
z
M 628 4666 
L 2241 4666 
Q 2963 4666 3353 4366 
Q 3744 4066 3744 3513 
Q 3744 3084 3544 2831 
Q 3344 2578 2956 2516 
Q 3422 2416 3680 2098 
Q 3938 1781 3938 1306 
Q 3938 681 3513 340 
Q 3088 0 2303 0 
L 628 0 
L 628 4666 
z
" transform="scale(0.015625)"/>
      <path id="DejaVuSans-6e" d="M 3513 2113 
L 3513 0 
L 2938 0 
L 2938 2094 
Q 2938 2591 2744 2837 
Q 2550 3084 2163 3084 
Q 1697 3084 1428 2787 
Q 1159 2491 1159 1978 
L 1159 0 
L 581 0 
L 581 3500 
L 1159 3500 
L 1159 2956 
Q 1366 3272 1645 3428 
Q 1925 3584 2291 3584 
Q 2894 3584 3203 3211 
Q 3513 2838 3513 2113 
z
" transform="scale(0.015625)"/>
     </defs>
     <use xlink:href="#DejaVuSans-46"/>
     <use xlink:href="#DejaVuSans-6f" x="53.894531"/>
     <use xlink:href="#DejaVuSans-6f" x="115.076172"/>
     <use xlink:href="#DejaVuSans-74" x="176.257812"/>
     <use xlink:href="#DejaVuSans-42" x="215.466797"/>
     <use xlink:href="#DejaVuSans-69" x="284.070312"/>
     <use xlink:href="#DejaVuSans-6e" x="311.853516"/>
    </g>
   </g>
   <g id="text_17">
    <!-- WFL -->
    <g transform="translate(361.832136 88.123955)scale(0.08 -0.08)">
     <defs>
      <path id="DejaVuSans-4c" d="M 628 4666 
L 1259 4666 
L 1259 531 
L 3531 531 
L 3531 0 
L 628 0 
L 628 4666 
z
" transform="scale(0.015625)"/>
     </defs>
     <use xlink:href="#DejaVuSans-57"/>
     <use xlink:href="#DejaVuSans-46" x="98.876953"/>
     <use xlink:href="#DejaVuSans-4c" x="156.396484"/>
    </g>
   </g>
   <g id="text_18">
    <!-- WFR -->
    <g transform="translate(361.832136 67.027927)scale(0.08 -0.08)">
     <defs>
      <path id="DejaVuSans-52" d="M 2841 2188 
Q 3044 2119 3236 1894 
Q 3428 1669 3622 1275 
L 4263 0 
L 3584 0 
L 2988 1197 
Q 2756 1666 2539 1819 
Q 2322 1972 1947 1972 
L 1259 1972 
L 1259 0 
L 628 0 
L 628 4666 
L 2053 4666 
Q 2853 4666 3247 4331 
Q 3641 3997 3641 3322 
Q 3641 2881 3436 2590 
Q 3231 2300 2841 2188 
z
M 1259 4147 
L 1259 2491 
L 2053 2491 
Q 2509 2491 2742 2702 
Q 2975 2913 2975 3322 
Q 2975 3731 2742 3939 
Q 2509 4147 2053 4147 
L 1259 4147 
z
" transform="scale(0.015625)"/>
     </defs>
     <use xlink:href="#DejaVuSans-57"/>
     <use xlink:href="#DejaVuSans-46" x="98.876953"/>
     <use xlink:href="#DejaVuSans-52" x="156.396484"/>
    </g>
   </g>
   <g id="text_19">
    <!-- Main-L -->
    <g transform="translate(361.832136 80.808777)scale(0.08 -0.08)">
     <defs>
      <path id="DejaVuSans-4d" d="M 628 4666 
L 1569 4666 
L 2759 1491 
L 3956 4666 
L 4897 4666 
L 4897 0 
L 4281 0 
L 4281 4097 
L 3078 897 
L 2444 897 
L 1241 4097 
L 1241 0 
L 628 0 
L 628 4666 
z
" transform="scale(0.015625)"/>
      <path id="DejaVuSans-2d" d="M 313 2009 
L 1997 2009 
L 1997 1497 
L 313 1497 
L 313 2009 
z
" transform="scale(0.015625)"/>
     </defs>
     <use xlink:href="#DejaVuSans-4d"/>
     <use xlink:href="#DejaVuSans-61" x="86.279297"/>
     <use xlink:href="#DejaVuSans-69" x="147.558594"/>
     <use xlink:href="#DejaVuSans-6e" x="175.341797"/>
     <use xlink:href="#DejaVuSans-2d" x="238.720703"/>
     <use xlink:href="#DejaVuSans-4c" x="274.804688"/>
    </g>
   </g>
   <g id="text_20">
    <!-- Main-R -->
    <g transform="translate(361.832136 46.970182)scale(0.08 -0.08)">
     <use xlink:href="#DejaVuSans-4d"/>
     <use xlink:href="#DejaVuSans-61" x="86.279297"/>
     <use xlink:href="#DejaVuSans-69" x="147.558594"/>
     <use xlink:href="#DejaVuSans-6e" x="175.341797"/>
     <use xlink:href="#DejaVuSans-2d" x="238.720703"/>
     <use xlink:href="#DejaVuSans-52" x="274.804688"/>
    </g>
   </g>
   <g id="text_21">
    <!-- AFL -->
    <g transform="translate(361.832136 141.453959)scale(0.08 -0.08)">
     <defs>
      <path id="DejaVuSans-41" d="M 2188 4044 
L 1331 1722 
L 3047 1722 
L 2188 4044 
z
M 1831 4666 
L 2547 4666 
L 4325 0 
L 3669 0 
L 3244 1197 
L 1141 1197 
L 716 0 
L 50 0 
L 1831 4666 
z
" transform="scale(0.015625)"/>
     </defs>
     <use xlink:href="#DejaVuSans-41"/>
     <use xlink:href="#DejaVuSans-46" x="68.408203"/>
     <use xlink:href="#DejaVuSans-4c" x="125.927734"/>
    </g>
   </g>
   <g id="text_22">
    <!-- AFR -->
    <g transform="translate(361.832136 109.503151)scale(0.08 -0.08)">
     <use xlink:href="#DejaVuSans-41"/>
     <use xlink:href="#DejaVuSans-46" x="68.408203"/>
     <use xlink:href="#DejaVuSans-52" x="125.927734"/>
    </g>
   </g>
   <g id="text_23">
    <!-- Nonfinal -->
    <g transform="translate(361.832136 84.348379)scale(0.08 -0.08)">
     <defs>
      <path id="DejaVuSans-4e" d="M 628 4666 
L 1478 4666 
L 3547 763 
L 3547 4666 
L 4159 4666 
L 4159 0 
L 3309 0 
L 1241 3903 
L 1241 0 
L 628 0 
L 628 4666 
z
" transform="scale(0.015625)"/>
      <path id="DejaVuSans-66" d="M 2375 4863 
L 2375 4384 
L 1825 4384 
Q 1516 4384 1395 4259 
Q 1275 4134 1275 3809 
L 1275 3500 
L 2222 3500 
L 2222 3053 
L 1275 3053 
L 1275 0 
L 697 0 
L 697 3053 
L 147 3053 
L 147 3500 
L 697 3500 
L 697 3744 
Q 697 4328 969 4595 
Q 1241 4863 1831 4863 
L 2375 4863 
z
" transform="scale(0.015625)"/>
      <path id="DejaVuSans-6c" d="M 603 4863 
L 1178 4863 
L 1178 0 
L 603 0 
L 603 4863 
z
" transform="scale(0.015625)"/>
     </defs>
     <use xlink:href="#DejaVuSans-4e"/>
     <use xlink:href="#DejaVuSans-6f" x="74.804688"/>
     <use xlink:href="#DejaVuSans-6e" x="135.986328"/>
     <use xlink:href="#DejaVuSans-66" x="199.365234"/>
     <use xlink:href="#DejaVuSans-69" x="234.570312"/>
     <use xlink:href="#DejaVuSans-6e" x="262.353516"/>
     <use xlink:href="#DejaVuSans-61" x="325.732422"/>
     <use xlink:href="#DejaVuSans-6c" x="387.011719"/>
    </g>
   </g>
   <g id="text_24">
    <!-- Trochaic -->
    <g transform="translate(361.832136 143.813693)scale(0.08 -0.08)">
     <defs>
      <path id="DejaVuSans-54" d="M -19 4666 
L 3928 4666 
L 3928 4134 
L 2272 4134 
L 2272 0 
L 1638 0 
L 1638 4134 
L -19 4134 
L -19 4666 
z
" transform="scale(0.015625)"/>
      <path id="DejaVuSans-68" d="M 3513 2113 
L 3513 0 
L 2938 0 
L 2938 2094 
Q 2938 2591 2744 2837 
Q 2550 3084 2163 3084 
Q 1697 3084 1428 2787 
Q 1159 2491 1159 1978 
L 1159 0 
L 581 0 
L 581 4863 
L 1159 4863 
L 1159 2956 
Q 1366 3272 1645 3428 
Q 1925 3584 2291 3584 
Q 2894 3584 3203 3211 
Q 3513 2838 3513 2113 
z
" transform="scale(0.015625)"/>
     </defs>
     <use xlink:href="#DejaVuSans-54"/>
     <use xlink:href="#DejaVuSans-72" x="46.333984"/>
     <use xlink:href="#DejaVuSans-6f" x="85.197266"/>
     <use xlink:href="#DejaVuSans-63" x="146.378906"/>
     <use xlink:href="#DejaVuSans-68" x="201.359375"/>
     <use xlink:href="#DejaVuSans-61" x="264.738281"/>
     <use xlink:href="#DejaVuSans-69" x="326.017578"/>
     <use xlink:href="#DejaVuSans-63" x="353.800781"/>
    </g>
   </g>
  </g>
  <g id="axes_2">
   <g id="patch_7">
    <path d="M 57.6 307.584 
L 414.72 307.584 
L 414.72 186.624 
L 57.6 186.624 
z
" style="fill: #ffffff"/>
   </g>
   <g id="matplotlib.axis_3">
    <g id="xtick_8">
     <g id="line2d_25">
      <g>
       <use xlink:href="#mdb26ffcaa1" x="71.171624" y="307.584" style="stroke: #000000; stroke-width: 0.8"/>
      </g>
     </g>
     <g id="text_25">
      <!-- 0 -->
      <g transform="translate(67.990374 322.182437)scale(0.1 -0.1)">
       <use xlink:href="#DejaVuSans-30"/>
      </g>
     </g>
    </g>
    <g id="xtick_9">
     <g id="line2d_26">
      <g>
       <use xlink:href="#mdb26ffcaa1" x="124.393681" y="307.584" style="stroke: #000000; stroke-width: 0.8"/>
      </g>
     </g>
     <g id="text_26">
      <!-- 20 -->
      <g transform="translate(118.031181 322.182437)scale(0.1 -0.1)">
       <use xlink:href="#DejaVuSans-32"/>
       <use xlink:href="#DejaVuSans-30" x="63.623047"/>
      </g>
     </g>
    </g>
    <g id="xtick_10">
     <g id="line2d_27">
      <g>
       <use xlink:href="#mdb26ffcaa1" x="177.615738" y="307.584" style="stroke: #000000; stroke-width: 0.8"/>
      </g>
     </g>
     <g id="text_27">
      <!-- 40 -->
      <g transform="translate(171.253238 322.182437)scale(0.1 -0.1)">
       <use xlink:href="#DejaVuSans-34"/>
       <use xlink:href="#DejaVuSans-30" x="63.623047"/>
      </g>
     </g>
    </g>
    <g id="xtick_11">
     <g id="line2d_28">
      <g>
       <use xlink:href="#mdb26ffcaa1" x="230.837794" y="307.584" style="stroke: #000000; stroke-width: 0.8"/>
      </g>
     </g>
     <g id="text_28">
      <!-- 60 -->
      <g transform="translate(224.475294 322.182437)scale(0.1 -0.1)">
       <use xlink:href="#DejaVuSans-36"/>
       <use xlink:href="#DejaVuSans-30" x="63.623047"/>
      </g>
     </g>
    </g>
    <g id="xtick_12">
     <g id="line2d_29">
      <g>
       <use xlink:href="#mdb26ffcaa1" x="284.059851" y="307.584" style="stroke: #000000; stroke-width: 0.8"/>
      </g>
     </g>
     <g id="text_29">
      <!-- 80 -->
      <g transform="translate(277.697351 322.182437)scale(0.1 -0.1)">
       <use xlink:href="#DejaVuSans-38"/>
       <use xlink:href="#DejaVuSans-30" x="63.623047"/>
      </g>
     </g>
    </g>
    <g id="xtick_13">
     <g id="line2d_30">
      <g>
       <use xlink:href="#mdb26ffcaa1" x="337.281908" y="307.584" style="stroke: #000000; stroke-width: 0.8"/>
      </g>
     </g>
     <g id="text_30">
      <!-- 100 -->
      <g transform="translate(327.738158 322.182437)scale(0.1 -0.1)">
       <use xlink:href="#DejaVuSans-31"/>
       <use xlink:href="#DejaVuSans-30" x="63.623047"/>
       <use xlink:href="#DejaVuSans-30" x="127.246094"/>
      </g>
     </g>
    </g>
    <g id="xtick_14">
     <g id="line2d_31">
      <g>
       <use xlink:href="#mdb26ffcaa1" x="390.503964" y="307.584" style="stroke: #000000; stroke-width: 0.8"/>
      </g>
     </g>
     <g id="text_31">
      <!-- 120 -->
      <g transform="translate(380.960214 322.182437)scale(0.1 -0.1)">
       <use xlink:href="#DejaVuSans-31"/>
       <use xlink:href="#DejaVuSans-32" x="63.623047"/>
       <use xlink:href="#DejaVuSans-30" x="127.246094"/>
      </g>
     </g>
    </g>
   </g>
   <g id="matplotlib.axis_4">
    <g id="ytick_6">
     <g id="line2d_32">
      <g>
       <use xlink:href="#m978e3f8a1e" x="57.6" y="302.094985" style="stroke: #000000; stroke-width: 0.8"/>
      </g>
     </g>
     <g id="text_32">
      <!-- 0 -->
      <g transform="translate(44.2375 305.894204)scale(0.1 -0.1)">
       <use xlink:href="#DejaVuSans-30"/>
      </g>
     </g>
    </g>
    <g id="ytick_7">
     <g id="line2d_33">
      <g>
       <use xlink:href="#m978e3f8a1e" x="57.6" y="279.178255" style="stroke: #000000; stroke-width: 0.8"/>
      </g>
     </g>
     <g id="text_33">
      <!-- 2500 -->
      <g transform="translate(25.15 282.977474)scale(0.1 -0.1)">
       <use xlink:href="#DejaVuSans-32"/>
       <use xlink:href="#DejaVuSans-35" x="63.623047"/>
       <use xlink:href="#DejaVuSans-30" x="127.246094"/>
       <use xlink:href="#DejaVuSans-30" x="190.869141"/>
      </g>
     </g>
    </g>
    <g id="ytick_8">
     <g id="line2d_34">
      <g>
       <use xlink:href="#m978e3f8a1e" x="57.6" y="256.261525" style="stroke: #000000; stroke-width: 0.8"/>
      </g>
     </g>
     <g id="text_34">
      <!-- 5000 -->
      <g transform="translate(25.15 260.060744)scale(0.1 -0.1)">
       <use xlink:href="#DejaVuSans-35"/>
       <use xlink:href="#DejaVuSans-30" x="63.623047"/>
       <use xlink:href="#DejaVuSans-30" x="127.246094"/>
       <use xlink:href="#DejaVuSans-30" x="190.869141"/>
      </g>
     </g>
    </g>
    <g id="ytick_9">
     <g id="line2d_35">
      <g>
       <use xlink:href="#m978e3f8a1e" x="57.6" y="233.344795" style="stroke: #000000; stroke-width: 0.8"/>
      </g>
     </g>
     <g id="text_35">
      <!-- 7500 -->
      <g transform="translate(25.15 237.144014)scale(0.1 -0.1)">
       <use xlink:href="#DejaVuSans-37"/>
       <use xlink:href="#DejaVuSans-35" x="63.623047"/>
       <use xlink:href="#DejaVuSans-30" x="127.246094"/>
       <use xlink:href="#DejaVuSans-30" x="190.869141"/>
      </g>
     </g>
    </g>
    <g id="ytick_10">
     <g id="line2d_36">
      <g>
       <use xlink:href="#m978e3f8a1e" x="57.6" y="210.428066" style="stroke: #000000; stroke-width: 0.8"/>
      </g>
     </g>
     <g id="text_36">
      <!-- 10000 -->
      <g transform="translate(18.7875 214.227284)scale(0.1 -0.1)">
       <use xlink:href="#DejaVuSans-31"/>
       <use xlink:href="#DejaVuSans-30" x="63.623047"/>
       <use xlink:href="#DejaVuSans-30" x="127.246094"/>
       <use xlink:href="#DejaVuSans-30" x="190.869141"/>
       <use xlink:href="#DejaVuSans-30" x="254.492188"/>
      </g>
     </g>
    </g>
    <g id="ytick_11">
     <g id="line2d_37">
      <g>
       <use xlink:href="#m978e3f8a1e" x="57.6" y="187.511336" style="stroke: #000000; stroke-width: 0.8"/>
      </g>
     </g>
     <g id="text_37">
      <!-- 12500 -->
      <g transform="translate(18.7875 191.310555)scale(0.1 -0.1)">
       <use xlink:href="#DejaVuSans-31"/>
       <use xlink:href="#DejaVuSans-32" x="63.623047"/>
       <use xlink:href="#DejaVuSans-35" x="127.246094"/>
       <use xlink:href="#DejaVuSans-30" x="190.869141"/>
       <use xlink:href="#DejaVuSans-30" x="254.492188"/>
      </g>
     </g>
    </g>
   </g>
   <g id="line2d_38">
    <path d="M 73.832727 302.085818 
L 76.49383 302.085818 
L 79.154933 302.076651 
L 81.816036 302.085818 
L 84.477139 302.085818 
L 87.138241 302.085818 
L 89.799344 302.085818 
L 92.460447 302.085818 
L 95.12155 302.085818 
L 97.782653 302.085818 
L 100.443756 302.085818 
L 103.104858 302.085818 
L 105.765961 302.085818 
L 108.427064 302.085818 
L 111.088167 302.085818 
L 113.74927 302.076651 
L 116.410373 302.085818 
L 119.071475 302.085818 
L 121.732578 302.085818 
L 124.393681 302.085818 
L 127.054784 302.085818 
L 129.715887 302.085818 
L 132.37699 302.085818 
L 135.038092 302.076651 
L 137.699195 302.085818 
L 140.360298 302.049151 
L 143.021401 302.085818 
L 145.682504 302.076651 
L 148.343607 302.085818 
L 151.004709 302.085818 
L 153.665812 302.085818 
L 156.326915 302.085818 
L 158.988018 302.085818 
L 161.649121 302.085818 
L 164.310224 302.067485 
L 166.971326 302.085818 
L 169.632429 302.067485 
L 172.293532 302.049151 
L 174.954635 302.085818 
L 177.615738 302.085818 
L 180.276841 302.012485 
L 182.937943 302.085818 
L 185.599046 302.030818 
L 188.260149 302.076651 
L 190.921252 302.076651 
L 193.582355 302.012485 
L 196.243458 302.076651 
L 198.90456 302.085818 
L 201.565663 301.975818 
L 204.226766 302.067485 
L 206.887869 302.058318 
L 209.548972 302.058318 
L 212.210075 301.948318 
L 214.871177 302.085818 
L 217.53228 301.984985 
L 220.193383 302.058318 
L 222.854486 301.838317 
L 225.515589 301.948318 
L 228.176692 301.874984 
L 230.837794 301.957484 
L 233.498897 302.085818 
L 236.16 302.085818 
L 238.821103 301.939151 
L 241.482206 301.957484 
L 244.143308 302.049151 
L 246.804411 301.884151 
L 249.465514 301.69165 
L 252.126617 302.012485 
L 254.78772 302.003318 
L 257.448823 302.003318 
L 260.109925 302.067485 
L 262.771028 300.866648 
L 265.432131 302.085818 
L 268.093234 301.810817 
L 270.754337 301.55415 
L 273.41544 302.058318 
L 276.076542 301.700817 
L 278.737645 302.049151 
L 281.398748 301.764984 
L 284.059851 301.58165 
L 286.720954 301.269983 
L 289.382057 301.774151 
L 292.043159 300.994982 
L 294.704262 301.123316 
L 297.365365 301.013315 
L 300.026468 301.114149 
L 302.687571 300.114979 
L 305.348674 301.38915 
L 308.009776 301.884151 
L 310.670879 301.700817 
L 313.331982 301.480817 
L 315.993085 296.549136 
L 318.654188 298.134974 
L 321.315291 300.289147 
L 323.976393 301.957484 
L 326.637496 300.30748 
L 329.298599 299.867479 
L 331.959702 300.38998 
L 334.620805 297.383305 
L 337.281908 293.267461 
L 339.94301 301.224149 
L 342.604113 295.834134 
L 345.265216 297.089971 
L 347.926319 295.439967 
L 350.587422 299.812479 
L 353.248525 301.948318 
L 355.909627 298.538308 
L 358.57073 301.233316 
L 361.231833 301.095815 
L 363.892936 301.746651 
L 366.554039 268.544892 
L 369.215142 282.670765 
L 371.876244 297.548306 
L 374.537347 302.076651 
L 377.19845 298.877476 
L 379.859553 301.884151 
L 382.520656 254.602354 
L 385.181759 299.491644 
L 387.842861 301.279149 
L 390.503964 298.859143 
L 393.165067 208.411393 
L 395.82617 192.122182 
L 398.487273 197.677197 
" clip-path="url(#p3b8cec961d)" style="fill: none; stroke: #1f77b4; stroke-width: 1.5; stroke-linecap: square"/>
   </g>
   <g id="patch_8">
    <path d="M 57.6 307.584 
L 57.6 186.624 
" style="fill: none; stroke: #000000; stroke-width: 0.8; stroke-linejoin: miter; stroke-linecap: square"/>
   </g>
   <g id="patch_9">
    <path d="M 414.72 307.584 
L 414.72 186.624 
" style="fill: none; stroke: #000000; stroke-width: 0.8; stroke-linejoin: miter; stroke-linecap: square"/>
   </g>
   <g id="patch_10">
    <path d="M 57.6 307.584 
L 414.72 307.584 
" style="fill: none; stroke: #000000; stroke-width: 0.8; stroke-linejoin: miter; stroke-linecap: square"/>
   </g>
   <g id="patch_11">
    <path d="M 57.6 186.624 
L 414.72 186.624 
" style="fill: none; stroke: #000000; stroke-width: 0.8; stroke-linejoin: miter; stroke-linecap: square"/>
   </g>
  </g>
 </g>
 <defs>
  <clipPath id="p553875c221">
   <rect x="57.6" y="41.472" width="357.12" height="120.96"/>
  </clipPath>
  <clipPath id="p3b8cec961d">
   <rect x="57.6" y="186.624" width="357.12" height="120.96"/>
  </clipPath>
 </defs>
</svg>
