<?xml version="1.0" encoding="utf-8" standalone="no"?>
<!DOCTYPE svg PUBLIC "-//W3C//DTD SVG 1.1//EN"
  "http://www.w3.org/Graphics/SVG/1.1/DTD/svg11.dtd">
<svg xmlns:xlink="http://www.w3.org/1999/xlink" width="460.8pt" height="345.6pt" viewBox="0 0 460.8 345.6" xmlns="http://www.w3.org/2000/svg" version="1.1">
 <metadata>
  <rdf:RDF xmlns:dc="http://purl.org/dc/elements/1.1/" xmlns:cc="http://creativecommons.org/ns#" xmlns:rdf="http://www.w3.org/1999/02/22-rdf-syntax-ns#">
   <cc:Work>
    <dc:type rdf:resource="http://purl.org/dc/dcmitype/StillImage"/>
    <dc:date>2022-05-13T12:29:06.670982</dc:date>
    <dc:format>image/svg+xml</dc:format>
    <dc:creator>
     <cc:Agent>
      <dc:title>Matplotlib v3.5.1, https://matplotlib.org/</dc:title>
     </cc:Agent>
    </dc:creator>
   </cc:Work>
  </rdf:RDF>
 </metadata>
 <defs>
  <style type="text/css">*{stroke-linejoin: round; stroke-linecap: butt}</style>
 </defs>
 <g id="figure_1">
  <g id="patch_1">
   <path d="M 0 345.6 
L 460.8 345.6 
L 460.8 0 
L 0 0 
z
" style="fill: #ffffff"/>
  </g>
  <g id="axes_1">
   <g id="patch_2">
    <path d="M 57.6 162.432 
L 414.72 162.432 
L 414.72 41.472 
L 57.6 41.472 
z
" style="fill: #ffffff"/>
   </g>
   <g id="matplotlib.axis_1">
    <g id="xtick_1">
     <g id="line2d_1">
      <defs>
       <path id="m03dd7f9785" d="M 0 0 
L 0 3.5 
" style="stroke: #000000; stroke-width: 0.8"/>
      </defs>
      <g>
       <use xlink:href="#m03dd7f9785" x="73.827491" y="162.432" style="stroke: #000000; stroke-width: 0.8"/>
      </g>
     </g>
     <g id="text_1">
      <!-- 0 -->
      <g transform="translate(70.646241 177.030437)scale(0.1 -0.1)">
       <defs>
        <path id="DejaVuSans-30" d="M 2034 4250 
Q 1547 4250 1301 3770 
Q 1056 3291 1056 2328 
Q 1056 1369 1301 889 
Q 1547 409 2034 409 
Q 2525 409 2770 889 
Q 3016 1369 3016 2328 
Q 3016 3291 2770 3770 
Q 2525 4250 2034 4250 
z
M 2034 4750 
Q 2819 4750 3233 4129 
Q 3647 3509 3647 2328 
Q 3647 1150 3233 529 
Q 2819 -91 2034 -91 
Q 1250 -91 836 529 
Q 422 1150 422 2328 
Q 422 3509 836 4129 
Q 1250 4750 2034 4750 
z
" transform="scale(0.015625)"/>
       </defs>
       <use xlink:href="#DejaVuSans-30"/>
      </g>
     </g>
    </g>
    <g id="xtick_2">
     <g id="line2d_2">
      <g>
       <use xlink:href="#m03dd7f9785" x="126.191972" y="162.432" style="stroke: #000000; stroke-width: 0.8"/>
      </g>
     </g>
     <g id="text_2">
      <!-- 10000 -->
      <g transform="translate(110.285722 177.030437)scale(0.1 -0.1)">
       <defs>
        <path id="DejaVuSans-31" d="M 794 531 
L 1825 531 
L 1825 4091 
L 703 3866 
L 703 4441 
L 1819 4666 
L 2450 4666 
L 2450 531 
L 3481 531 
L 3481 0 
L 794 0 
L 794 531 
z
" transform="scale(0.015625)"/>
       </defs>
       <use xlink:href="#DejaVuSans-31"/>
       <use xlink:href="#DejaVuSans-30" x="63.623047"/>
       <use xlink:href="#DejaVuSans-30" x="127.246094"/>
       <use xlink:href="#DejaVuSans-30" x="190.869141"/>
       <use xlink:href="#DejaVuSans-30" x="254.492188"/>
      </g>
     </g>
    </g>
    <g id="xtick_3">
     <g id="line2d_3">
      <g>
       <use xlink:href="#m03dd7f9785" x="178.556453" y="162.432" style="stroke: #000000; stroke-width: 0.8"/>
      </g>
     </g>
     <g id="text_3">
      <!-- 20000 -->
      <g transform="translate(162.650203 177.030437)scale(0.1 -0.1)">
       <defs>
        <path id="DejaVuSans-32" d="M 1228 531 
L 3431 531 
L 3431 0 
L 469 0 
L 469 531 
Q 828 903 1448 1529 
Q 2069 2156 2228 2338 
Q 2531 2678 2651 2914 
Q 2772 3150 2772 3378 
Q 2772 3750 2511 3984 
Q 2250 4219 1831 4219 
Q 1534 4219 1204 4116 
Q 875 4013 500 3803 
L 500 4441 
Q 881 4594 1212 4672 
Q 1544 4750 1819 4750 
Q 2544 4750 2975 4387 
Q 3406 4025 3406 3419 
Q 3406 3131 3298 2873 
Q 3191 2616 2906 2266 
Q 2828 2175 2409 1742 
Q 1991 1309 1228 531 
z
" transform="scale(0.015625)"/>
       </defs>
       <use xlink:href="#DejaVuSans-32"/>
       <use xlink:href="#DejaVuSans-30" x="63.623047"/>
       <use xlink:href="#DejaVuSans-30" x="127.246094"/>
       <use xlink:href="#DejaVuSans-30" x="190.869141"/>
       <use xlink:href="#DejaVuSans-30" x="254.492188"/>
      </g>
     </g>
    </g>
    <g id="xtick_4">
     <g id="line2d_4">
      <g>
       <use xlink:href="#m03dd7f9785" x="230.920934" y="162.432" style="stroke: #000000; stroke-width: 0.8"/>
      </g>
     </g>
     <g id="text_4">
      <!-- 30000 -->
      <g transform="translate(215.014684 177.030437)scale(0.1 -0.1)">
       <defs>
        <path id="DejaVuSans-33" d="M 2597 2516 
Q 3050 2419 3304 2112 
Q 3559 1806 3559 1356 
Q 3559 666 3084 287 
Q 2609 -91 1734 -91 
Q 1441 -91 1130 -33 
Q 819 25 488 141 
L 488 750 
Q 750 597 1062 519 
Q 1375 441 1716 441 
Q 2309 441 2620 675 
Q 2931 909 2931 1356 
Q 2931 1769 2642 2001 
Q 2353 2234 1838 2234 
L 1294 2234 
L 1294 2753 
L 1863 2753 
Q 2328 2753 2575 2939 
Q 2822 3125 2822 3475 
Q 2822 3834 2567 4026 
Q 2313 4219 1838 4219 
Q 1578 4219 1281 4162 
Q 984 4106 628 3988 
L 628 4550 
Q 988 4650 1302 4700 
Q 1616 4750 1894 4750 
Q 2613 4750 3031 4423 
Q 3450 4097 3450 3541 
Q 3450 3153 3228 2886 
Q 3006 2619 2597 2516 
z
" transform="scale(0.015625)"/>
       </defs>
       <use xlink:href="#DejaVuSans-33"/>
       <use xlink:href="#DejaVuSans-30" x="63.623047"/>
       <use xlink:href="#DejaVuSans-30" x="127.246094"/>
       <use xlink:href="#DejaVuSans-30" x="190.869141"/>
       <use xlink:href="#DejaVuSans-30" x="254.492188"/>
      </g>
     </g>
    </g>
    <g id="xtick_5">
     <g id="line2d_5">
      <g>
       <use xlink:href="#m03dd7f9785" x="283.285415" y="162.432" style="stroke: #000000; stroke-width: 0.8"/>
      </g>
     </g>
     <g id="text_5">
      <!-- 40000 -->
      <g transform="translate(267.379165 177.030437)scale(0.1 -0.1)">
       <defs>
        <path id="DejaVuSans-34" d="M 2419 4116 
L 825 1625 
L 2419 1625 
L 2419 4116 
z
M 2253 4666 
L 3047 4666 
L 3047 1625 
L 3713 1625 
L 3713 1100 
L 3047 1100 
L 3047 0 
L 2419 0 
L 2419 1100 
L 313 1100 
L 313 1709 
L 2253 4666 
z
" transform="scale(0.015625)"/>
       </defs>
       <use xlink:href="#DejaVuSans-34"/>
       <use xlink:href="#DejaVuSans-30" x="63.623047"/>
       <use xlink:href="#DejaVuSans-30" x="127.246094"/>
       <use xlink:href="#DejaVuSans-30" x="190.869141"/>
       <use xlink:href="#DejaVuSans-30" x="254.492188"/>
      </g>
     </g>
    </g>
    <g id="xtick_6">
     <g id="line2d_6">
      <g>
       <use xlink:href="#m03dd7f9785" x="335.649896" y="162.432" style="stroke: #000000; stroke-width: 0.8"/>
      </g>
     </g>
     <g id="text_6">
      <!-- 50000 -->
      <g transform="translate(319.743646 177.030437)scale(0.1 -0.1)">
       <defs>
        <path id="DejaVuSans-35" d="M 691 4666 
L 3169 4666 
L 3169 4134 
L 1269 4134 
L 1269 2991 
Q 1406 3038 1543 3061 
Q 1681 3084 1819 3084 
Q 2600 3084 3056 2656 
Q 3513 2228 3513 1497 
Q 3513 744 3044 326 
Q 2575 -91 1722 -91 
Q 1428 -91 1123 -41 
Q 819 9 494 109 
L 494 744 
Q 775 591 1075 516 
Q 1375 441 1709 441 
Q 2250 441 2565 725 
Q 2881 1009 2881 1497 
Q 2881 1984 2565 2268 
Q 2250 2553 1709 2553 
Q 1456 2553 1204 2497 
Q 953 2441 691 2322 
L 691 4666 
z
" transform="scale(0.015625)"/>
       </defs>
       <use xlink:href="#DejaVuSans-35"/>
       <use xlink:href="#DejaVuSans-30" x="63.623047"/>
       <use xlink:href="#DejaVuSans-30" x="127.246094"/>
       <use xlink:href="#DejaVuSans-30" x="190.869141"/>
       <use xlink:href="#DejaVuSans-30" x="254.492188"/>
      </g>
     </g>
    </g>
    <g id="xtick_7">
     <g id="line2d_7">
      <g>
       <use xlink:href="#m03dd7f9785" x="388.014377" y="162.432" style="stroke: #000000; stroke-width: 0.8"/>
      </g>
     </g>
     <g id="text_7">
      <!-- 60000 -->
      <g transform="translate(372.108127 177.030437)scale(0.1 -0.1)">
       <defs>
        <path id="DejaVuSans-36" d="M 2113 2584 
Q 1688 2584 1439 2293 
Q 1191 2003 1191 1497 
Q 1191 994 1439 701 
Q 1688 409 2113 409 
Q 2538 409 2786 701 
Q 3034 994 3034 1497 
Q 3034 2003 2786 2293 
Q 2538 2584 2113 2584 
z
M 3366 4563 
L 3366 3988 
Q 3128 4100 2886 4159 
Q 2644 4219 2406 4219 
Q 1781 4219 1451 3797 
Q 1122 3375 1075 2522 
Q 1259 2794 1537 2939 
Q 1816 3084 2150 3084 
Q 2853 3084 3261 2657 
Q 3669 2231 3669 1497 
Q 3669 778 3244 343 
Q 2819 -91 2113 -91 
Q 1303 -91 875 529 
Q 447 1150 447 2328 
Q 447 3434 972 4092 
Q 1497 4750 2381 4750 
Q 2619 4750 2861 4703 
Q 3103 4656 3366 4563 
z
" transform="scale(0.015625)"/>
       </defs>
       <use xlink:href="#DejaVuSans-36"/>
       <use xlink:href="#DejaVuSans-30" x="63.623047"/>
       <use xlink:href="#DejaVuSans-30" x="127.246094"/>
       <use xlink:href="#DejaVuSans-30" x="190.869141"/>
       <use xlink:href="#DejaVuSans-30" x="254.492188"/>
      </g>
     </g>
    </g>
   </g>
   <g id="matplotlib.axis_2">
    <g id="ytick_1">
     <g id="line2d_8">
      <defs>
       <path id="me4854b9bdc" d="M 0 0 
L -3.5 0 
" style="stroke: #000000; stroke-width: 0.8"/>
      </defs>
      <g>
       <use xlink:href="#me4854b9bdc" x="57.6" y="150.845436" style="stroke: #000000; stroke-width: 0.8"/>
      </g>
     </g>
     <g id="text_8">
      <!-- 80 -->
      <g transform="translate(37.875 154.644655)scale(0.1 -0.1)">
       <defs>
        <path id="DejaVuSans-38" d="M 2034 2216 
Q 1584 2216 1326 1975 
Q 1069 1734 1069 1313 
Q 1069 891 1326 650 
Q 1584 409 2034 409 
Q 2484 409 2743 651 
Q 3003 894 3003 1313 
Q 3003 1734 2745 1975 
Q 2488 2216 2034 2216 
z
M 1403 2484 
Q 997 2584 770 2862 
Q 544 3141 544 3541 
Q 544 4100 942 4425 
Q 1341 4750 2034 4750 
Q 2731 4750 3128 4425 
Q 3525 4100 3525 3541 
Q 3525 3141 3298 2862 
Q 3072 2584 2669 2484 
Q 3125 2378 3379 2068 
Q 3634 1759 3634 1313 
Q 3634 634 3220 271 
Q 2806 -91 2034 -91 
Q 1263 -91 848 271 
Q 434 634 434 1313 
Q 434 1759 690 2068 
Q 947 2378 1403 2484 
z
M 1172 3481 
Q 1172 3119 1398 2916 
Q 1625 2713 2034 2713 
Q 2441 2713 2670 2916 
Q 2900 3119 2900 3481 
Q 2900 3844 2670 4047 
Q 2441 4250 2034 4250 
Q 1625 4250 1398 4047 
Q 1172 3844 1172 3481 
z
" transform="scale(0.015625)"/>
       </defs>
       <use xlink:href="#DejaVuSans-38"/>
       <use xlink:href="#DejaVuSans-30" x="63.623047"/>
      </g>
     </g>
    </g>
    <g id="ytick_2">
     <g id="line2d_9">
      <g>
       <use xlink:href="#me4854b9bdc" x="57.6" y="113.569627" style="stroke: #000000; stroke-width: 0.8"/>
      </g>
     </g>
     <g id="text_9">
      <!-- 90 -->
      <g transform="translate(37.875 117.368846)scale(0.1 -0.1)">
       <defs>
        <path id="DejaVuSans-39" d="M 703 97 
L 703 672 
Q 941 559 1184 500 
Q 1428 441 1663 441 
Q 2288 441 2617 861 
Q 2947 1281 2994 2138 
Q 2813 1869 2534 1725 
Q 2256 1581 1919 1581 
Q 1219 1581 811 2004 
Q 403 2428 403 3163 
Q 403 3881 828 4315 
Q 1253 4750 1959 4750 
Q 2769 4750 3195 4129 
Q 3622 3509 3622 2328 
Q 3622 1225 3098 567 
Q 2575 -91 1691 -91 
Q 1453 -91 1209 -44 
Q 966 3 703 97 
z
M 1959 2075 
Q 2384 2075 2632 2365 
Q 2881 2656 2881 3163 
Q 2881 3666 2632 3958 
Q 2384 4250 1959 4250 
Q 1534 4250 1286 3958 
Q 1038 3666 1038 3163 
Q 1038 2656 1286 2365 
Q 1534 2075 1959 2075 
z
" transform="scale(0.015625)"/>
       </defs>
       <use xlink:href="#DejaVuSans-39"/>
       <use xlink:href="#DejaVuSans-30" x="63.623047"/>
      </g>
     </g>
    </g>
    <g id="ytick_3">
     <g id="line2d_10">
      <g>
       <use xlink:href="#me4854b9bdc" x="57.6" y="76.293818" style="stroke: #000000; stroke-width: 0.8"/>
      </g>
     </g>
     <g id="text_10">
      <!-- 100 -->
      <g transform="translate(31.5125 80.093037)scale(0.1 -0.1)">
       <use xlink:href="#DejaVuSans-31"/>
       <use xlink:href="#DejaVuSans-30" x="63.623047"/>
       <use xlink:href="#DejaVuSans-30" x="127.246094"/>
      </g>
     </g>
    </g>
   </g>
   <g id="line2d_11">
    <path d="M 73.832727 75.361923 
L 73.968875 64.676191 
L 74.304008 64.676191 
L 74.424446 61.569874 
L 74.602485 61.569874 
L 74.717687 59.706083 
L 74.749106 59.706083 
L 74.864308 57.842293 
L 75.152312 57.842293 
L 75.277987 55.046607 
L 75.335588 55.046607 
L 75.45079 53.182817 
L 77.13169 53.182817 
L 77.246891 51.94029 
L 77.304492 51.94029 
L 77.419694 50.697763 
L 126.066297 50.697763 
L 126.181499 49.455236 
L 145.797233 49.455236 
L 145.912435 48.212709 
L 319.024173 48.212709 
L 319.139375 46.970182 
L 398.487273 46.970182 
L 398.487273 46.970182 
" clip-path="url(#p848fb952b6)" style="fill: none; stroke: #1f77b4; stroke-width: 1.5; stroke-linecap: square"/>
   </g>
   <g id="line2d_12">
    <path d="M 73.832727 80.021399 
L 73.874619 80.021399 
L 73.885092 79.089504 
L 73.921747 89.52673 
L 73.93222 89.52673 
L 73.942693 89.52673 
L 74.000294 86.420413 
L 74.00553 90.147994 
L 74.047422 90.147994 
L 74.057895 90.147994 
L 74.105023 87.66294 
L 74.110259 91.390521 
L 74.162624 91.390521 
L 74.25688 91.390521 
L 74.293535 95.118102 
L 74.366845 94.372586 
L 74.440155 91.266268 
L 74.445392 94.993849 
L 74.471574 94.993849 
L 74.502993 94.993849 
L 74.602485 98.72143 
L 74.612958 96.857639 
L 74.65485 96.857639 
L 74.743869 95.615112 
L 74.749106 99.342693 
L 74.759579 97.478903 
L 74.764815 97.478903 
L 74.822416 95.987871 
L 74.827652 99.715451 
L 74.859071 99.715451 
L 75.152312 99.715451 
L 75.157549 103.443032 
L 75.262278 102.200505 
L 75.335588 102.200505 
L 75.393189 99.094188 
L 75.398425 102.821769 
L 75.440317 102.821769 
L 75.476972 102.821769 
L 75.592174 106.54935 
L 75.61312 106.54935 
L 75.728321 110.276931 
L 75.843523 110.276931 
L 75.958725 109.034404 
L 76.000617 109.034404 
L 76.115819 112.761985 
L 76.728483 112.761985 
L 76.843685 116.489565 
L 77.550605 116.489565 
L 77.665807 120.217146 
L 78.100432 120.217146 
L 78.215634 118.974619 
L 78.524585 118.974619 
L 78.639787 117.732092 
L 87.358473 117.732092 
L 87.473675 121.459673 
L 98.512107 121.459673 
L 98.627309 120.217146 
L 98.674437 120.217146 
L 98.789639 123.944727 
L 121.35873 123.944727 
L 121.473932 127.672308 
L 121.913794 127.672308 
L 122.028996 131.399889 
L 142.744384 131.399889 
L 142.859586 130.157362 
L 175.388402 130.157362 
L 175.503603 128.914835 
L 213.970551 128.914835 
L 214.085753 132.642416 
L 398.487273 132.642416 
L 398.487273 132.642416 
" clip-path="url(#p848fb952b6)" style="fill: none; stroke: #ff7f0e; stroke-width: 1.5; stroke-linecap: square"/>
   </g>
   <g id="line2d_13">
    <path d="M 73.832727 75.361923 
L 73.837964 75.361923 
L 73.968875 91.701153 
L 74.000294 91.701153 
L 74.125968 102.883895 
L 74.293535 102.883895 
L 74.408737 109.09653 
L 74.602485 109.09653 
L 74.722923 116.551692 
L 74.743869 116.551692 
L 74.749106 115.619797 
L 74.770051 123.074958 
L 74.796234 123.074958 
L 74.911436 126.802539 
L 75.152312 126.802539 
L 75.157549 125.870644 
L 75.162785 129.598225 
L 75.257041 127.734435 
L 75.382716 127.734435 
L 75.497918 131.462015 
L 75.843523 131.462015 
L 75.958725 135.189596 
L 76.618518 135.189596 
L 76.728483 138.917177 
L 76.843685 137.67465 
L 77.13169 137.67465 
L 77.246891 136.432123 
L 77.304492 136.432123 
L 77.419694 135.189596 
L 77.430167 135.189596 
L 77.545369 138.917177 
L 77.550605 138.917177 
L 77.665807 137.985282 
L 78.100432 137.985282 
L 78.215634 141.712863 
L 78.524585 141.712863 
L 78.639787 145.440444 
L 98.512107 145.440444 
L 98.627309 149.168025 
L 121.913794 149.168025 
L 122.028996 148.236129 
L 126.066297 148.236129 
L 126.181499 146.993602 
L 142.744384 146.993602 
L 142.859586 150.721183 
L 145.797233 150.721183 
L 145.912435 149.478656 
L 153.620487 149.478656 
L 153.735689 153.206237 
L 175.388402 153.206237 
L 175.503603 156.933818 
L 319.024173 156.933818 
L 319.139375 155.691291 
L 398.487273 155.691291 
L 398.487273 155.691291 
" clip-path="url(#p848fb952b6)" style="fill: none; stroke: #2ca02c; stroke-width: 1.5; stroke-linecap: square"/>
   </g>
   <g id="line2d_14">
    <path d="M 73.832727 76.293818 
L 73.837964 76.293818 
L 73.963638 72.566237 
L 74.293535 72.566237 
L 74.413973 70.888826 
L 74.764815 70.888826 
L 74.885253 69.397794 
L 75.387952 69.397794 
L 75.508391 67.534003 
L 75.696903 67.534003 
L 75.812105 66.602108 
L 76.618518 66.602108 
L 76.73372 65.359581 
L 77.430167 65.359581 
L 77.545369 64.117054 
L 78.110905 64.117054 
L 78.226107 63.185159 
L 79.226269 63.185159 
L 79.341471 62.253263 
L 91.191553 62.253263 
L 91.306755 61.321368 
L 106.948025 61.321368 
L 107.063227 60.389473 
L 108.995476 60.389473 
L 109.110678 59.457578 
L 121.803828 59.457578 
L 121.91903 58.525683 
L 175.603096 58.525683 
L 175.718298 57.593787 
L 240.50887 57.593787 
L 240.624072 56.661892 
L 398.487273 56.661892 
L 398.487273 56.661892 
" clip-path="url(#p848fb952b6)" style="fill: none; stroke: #d62728; stroke-width: 1.5; stroke-linecap: square"/>
   </g>
   <g id="line2d_15">
    <path d="M 73.832727 75.361923 
L 73.848437 75.361923 
L 73.900801 79.089504 
L 73.958402 77.412092 
L 74.602485 77.412092 
L 74.717687 81.139673 
L 74.743869 81.139673 
L 74.749106 80.207778 
L 74.754342 83.935359 
L 74.838125 83.935359 
L 75.152312 83.935359 
L 75.267514 83.003464 
L 76.618518 83.003464 
L 76.728483 86.731045 
L 76.843685 85.488518 
L 77.430167 85.488518 
L 77.545369 89.216099 
L 77.550605 89.216099 
L 77.665807 88.284203 
L 77.686753 88.284203 
L 77.801955 87.041676 
L 84.771667 87.041676 
L 84.886869 86.109781 
L 92.961472 86.109781 
L 93.076674 84.867254 
L 121.913794 84.867254 
L 122.028996 83.935359 
L 205.639362 83.935359 
L 205.754564 83.003464 
L 398.487273 83.003464 
L 398.487273 83.003464 
" clip-path="url(#p848fb952b6)" style="fill: none; stroke: #9467bd; stroke-width: 1.5; stroke-linecap: square"/>
   </g>
   <g id="line2d_16">
    <path d="M 73.832727 76.293818 
L 73.837964 76.293818 
L 73.963638 86.855297 
L 74.000294 86.855297 
L 74.120732 94.310459 
L 74.304008 94.310459 
L 74.419209 93.067932 
L 74.65485 93.067932 
L 74.770051 96.795513 
L 75.157549 96.795513 
L 75.27275 100.523094 
L 75.382716 100.523094 
L 75.497918 104.250675 
L 75.843523 104.250675 
L 75.958725 107.978256 
L 77.13169 107.978256 
L 77.246891 106.735729 
L 77.304492 106.735729 
L 77.419694 105.493202 
L 78.100432 105.493202 
L 78.215634 109.220783 
L 78.524585 109.220783 
L 78.639787 112.948364 
L 84.771667 112.948364 
L 84.886869 116.675945 
L 98.512107 116.675945 
L 98.627309 120.403525 
L 126.066297 120.403525 
L 126.181499 119.160998 
L 142.744384 119.160998 
L 142.859586 122.888579 
L 145.797233 122.888579 
L 145.912435 121.646052 
L 153.620487 121.646052 
L 153.735689 125.373633 
L 175.388402 125.373633 
L 175.503603 129.101214 
L 205.639362 129.101214 
L 205.754564 132.828795 
L 319.024173 132.828795 
L 319.139375 131.586268 
L 398.487273 131.586268 
L 398.487273 131.586268 
" clip-path="url(#p848fb952b6)" style="fill: none; stroke: #8c564b; stroke-width: 1.5; stroke-linecap: square"/>
   </g>
   <g id="line2d_17">
    <path d="M 73.832727 75.361923 
L 73.848437 75.361923 
L 73.85891 79.089504 
L 73.906038 74.616407 
L 73.953166 74.616407 
L 74.089313 69.956931 
L 74.356372 69.956931 
L 74.471574 66.22935 
L 74.602485 66.22935 
L 74.717687 69.956931 
L 74.743869 69.956931 
L 74.749106 69.025035 
L 74.754342 72.752616 
L 74.838125 72.752616 
L 75.152312 72.752616 
L 75.267514 71.820721 
L 76.618518 71.820721 
L 76.728483 75.548302 
L 76.843685 74.305775 
L 77.430167 74.305775 
L 77.545369 78.033356 
L 77.550605 78.033356 
L 77.665807 77.101461 
L 77.686753 77.101461 
L 77.801955 75.858934 
L 84.771667 75.858934 
L 84.886869 74.927039 
L 92.961472 74.927039 
L 93.076674 73.684512 
L 121.913794 73.684512 
L 122.028996 72.752616 
L 205.639362 72.752616 
L 205.754564 71.820721 
L 398.487273 71.820721 
L 398.487273 71.820721 
" clip-path="url(#p848fb952b6)" style="fill: none; stroke: #e377c2; stroke-width: 1.5; stroke-linecap: square"/>
   </g>
   <g id="line2d_18">
    <path d="M 73.832727 80.021399 
L 73.958402 93.689196 
L 73.963638 93.689196 
L 74.07884 97.416777 
L 74.293535 97.416777 
L 74.356372 96.67126 
L 74.361609 100.398841 
L 74.366845 100.398841 
L 74.382554 104.126422 
L 74.47681 103.194527 
L 74.743869 103.194527 
L 74.764815 106.922108 
L 74.853835 105.431076 
L 75.152312 105.431076 
L 75.27275 112.886237 
L 75.387952 112.886237 
L 75.508391 111.022447 
L 75.696903 111.022447 
L 75.812105 110.090552 
L 76.618518 110.090552 
L 76.728483 108.848025 
L 76.843685 112.575606 
L 77.430167 112.575606 
L 77.545369 111.333079 
L 77.550605 111.333079 
L 77.665807 115.060659 
L 77.686753 115.060659 
L 77.801955 118.78824 
L 78.110905 118.78824 
L 78.226107 117.856345 
L 79.226269 117.856345 
L 79.341471 116.92445 
L 84.771667 116.92445 
L 84.886869 120.652031 
L 91.191553 120.652031 
L 91.306755 119.720136 
L 92.961472 119.720136 
L 93.076674 123.447716 
L 106.948025 123.447716 
L 107.063227 122.515821 
L 108.995476 122.515821 
L 109.110678 121.583926 
L 121.803828 121.583926 
L 121.913794 120.652031 
L 122.028996 124.379612 
L 175.603096 124.379612 
L 175.718298 123.447716 
L 205.639362 123.447716 
L 205.754564 127.175297 
L 240.50887 127.175297 
L 240.624072 126.243402 
L 398.487273 126.243402 
L 398.487273 126.243402 
" clip-path="url(#p848fb952b6)" style="fill: none; stroke: #7f7f7f; stroke-width: 1.5; stroke-linecap: square"/>
   </g>
   <g id="line2d_19">
    <path d="M 73.832727 80.021399 
L 73.958402 100.212462 
L 73.968875 98.969935 
L 74.000294 98.969935 
L 74.125968 95.552986 
L 74.293535 95.552986 
L 74.304008 94.80747 
L 74.309244 98.535051 
L 74.366845 98.535051 
L 74.382554 102.262632 
L 74.47681 100.08821 
L 74.602485 100.08821 
L 74.65485 103.81579 
L 74.712451 102.573263 
L 74.743869 102.573263 
L 74.764815 110.028425 
L 74.859071 108.537393 
L 75.152312 108.537393 
L 75.267514 114.750028 
L 75.382716 114.750028 
L 75.503154 111.64371 
L 75.696903 111.64371 
L 75.812105 110.711815 
L 75.843523 110.711815 
L 75.958725 109.469288 
L 77.13169 109.469288 
L 77.246891 113.196869 
L 77.304492 113.196869 
L 77.419694 116.92445 
L 77.550605 116.92445 
L 77.665807 120.652031 
L 77.686753 120.652031 
L 77.801955 119.409504 
L 78.100432 119.409504 
L 78.215634 117.235082 
L 78.524585 117.235082 
L 78.639787 115.992555 
L 79.226269 115.992555 
L 79.341471 115.060659 
L 84.771667 115.060659 
L 84.886869 114.128764 
L 91.191553 114.128764 
L 91.306755 113.196869 
L 92.961472 113.196869 
L 93.076674 111.954342 
L 98.512107 111.954342 
L 98.627309 110.711815 
L 106.948025 110.711815 
L 107.063227 109.77992 
L 108.995476 109.77992 
L 109.110678 108.848025 
L 121.803828 108.848025 
L 121.913794 107.916129 
L 122.028996 111.64371 
L 126.066297 111.64371 
L 126.181499 115.371291 
L 142.744384 115.371291 
L 142.859586 114.128764 
L 145.797233 114.128764 
L 145.912435 117.856345 
L 153.620487 117.856345 
L 153.735689 116.613818 
L 175.388402 116.613818 
L 175.503603 115.371291 
L 175.603096 115.371291 
L 175.718298 114.439396 
L 205.639362 114.439396 
L 205.754564 113.507501 
L 240.50887 113.507501 
L 240.624072 112.575606 
L 319.024173 112.575606 
L 319.139375 116.303186 
L 398.487273 116.303186 
L 398.487273 116.303186 
" clip-path="url(#p848fb952b6)" style="fill: none; stroke: #bcbd22; stroke-width: 1.5; stroke-linecap: square"/>
   </g>
   <g id="line2d_20">
    <path d="M 73.832727 80.021399 
L 73.848437 83.74898 
L 73.900801 79.089504 
L 73.942693 81.574558 
L 73.953166 81.574558 
L 74.000294 85.302139 
L 74.063131 83.127716 
L 74.293535 83.127716 
L 74.366845 82.3822 
L 74.372081 86.109781 
L 74.387791 85.177886 
L 74.398264 85.177886 
L 74.513466 83.935359 
L 74.743869 83.935359 
L 74.764815 87.66294 
L 74.853835 86.171908 
L 75.152312 86.171908 
L 75.27275 93.627069 
L 75.387952 93.627069 
L 75.508391 91.763279 
L 75.696903 91.763279 
L 75.812105 90.831384 
L 76.618518 90.831384 
L 76.728483 89.588857 
L 76.843685 93.316438 
L 77.430167 93.316438 
L 77.545369 92.073911 
L 77.550605 92.073911 
L 77.665807 95.801492 
L 77.686753 95.801492 
L 77.801955 99.529072 
L 78.110905 99.529072 
L 78.226107 98.597177 
L 79.226269 98.597177 
L 79.341471 97.665282 
L 84.771667 97.665282 
L 84.886869 101.392863 
L 91.191553 101.392863 
L 91.306755 100.460968 
L 92.961472 100.460968 
L 93.076674 104.188549 
L 106.948025 104.188549 
L 107.063227 103.256653 
L 108.995476 103.256653 
L 109.110678 102.324758 
L 121.803828 102.324758 
L 121.913794 101.392863 
L 122.028996 105.120444 
L 153.620487 105.120444 
L 153.735689 103.877917 
L 175.603096 103.877917 
L 175.718298 102.946022 
L 205.639362 102.946022 
L 205.754564 106.673602 
L 240.50887 106.673602 
L 240.624072 105.741707 
L 398.487273 105.741707 
L 398.487273 105.741707 
" clip-path="url(#p848fb952b6)" style="fill: none; stroke: #17becf; stroke-width: 1.5; stroke-linecap: square"/>
   </g>
   <g id="line2d_21">
    <path d="M 73.832727 76.293818 
L 73.837964 76.293818 
L 73.869382 75.051291 
L 73.911274 84.991507 
L 73.91651 84.991507 
L 73.921747 88.719088 
L 74.026476 85.302139 
L 74.073604 85.302139 
L 74.188806 84.059612 
L 74.304008 84.059612 
L 74.419209 87.787193 
L 74.65485 87.787193 
L 74.770051 86.544666 
L 75.157549 86.544666 
L 75.27275 85.302139 
L 75.382716 85.302139 
L 75.497918 84.059612 
L 75.843523 84.059612 
L 75.958725 82.817085 
L 77.13169 82.817085 
L 77.246891 86.544666 
L 77.304492 86.544666 
L 77.419694 90.272247 
L 78.100432 90.272247 
L 78.215634 89.02972 
L 78.524585 89.02972 
L 78.639787 87.787193 
L 84.771667 87.787193 
L 84.886869 86.855297 
L 98.512107 86.855297 
L 98.627309 85.61277 
L 126.066297 85.61277 
L 126.181499 89.340351 
L 142.744384 89.340351 
L 142.859586 88.097824 
L 145.797233 88.097824 
L 145.912435 91.825405 
L 153.620487 91.825405 
L 153.735689 90.582878 
L 175.388402 90.582878 
L 175.503603 89.340351 
L 205.639362 89.340351 
L 205.754564 88.408456 
L 319.024173 88.408456 
L 319.139375 92.136037 
L 398.487273 92.136037 
L 398.487273 92.136037 
" clip-path="url(#p848fb952b6)" style="fill: none; stroke: #1f77b4; stroke-width: 1.5; stroke-linecap: square"/>
   </g>
   <g id="line2d_22">
    <path d="M 73.832727 76.293818 
L 73.874619 74.430028 
L 73.906038 80.953294 
L 73.93222 80.021399 
L 73.942693 80.021399 
L 74.000294 87.476561 
L 74.057895 86.544666 
L 74.105023 86.544666 
L 74.220224 82.817085 
L 74.25688 82.817085 
L 74.293535 79.089504 
L 74.366845 82.817085 
L 74.382554 82.817085 
L 74.440155 86.544666 
L 74.49252 82.817085 
L 74.502993 82.817085 
L 74.618194 79.089504 
L 74.743869 79.089504 
L 74.764815 78.157609 
L 74.80147 85.61277 
L 74.81718 85.61277 
L 74.822416 85.61277 
L 74.937618 81.88519 
L 75.335588 81.88519 
L 75.456026 89.340351 
L 75.476972 89.340351 
L 75.592174 85.61277 
L 75.61312 85.61277 
L 75.696903 81.88519 
L 75.723085 85.61277 
L 76.000617 85.61277 
L 76.115819 81.88519 
L 77.550605 81.88519 
L 77.665807 80.953294 
L 78.110905 80.953294 
L 78.226107 84.680875 
L 79.226269 84.680875 
L 79.341471 88.408456 
L 87.358473 88.408456 
L 87.473675 84.680875 
L 91.191553 84.680875 
L 91.306755 88.408456 
L 98.674437 88.408456 
L 98.789639 84.680875 
L 106.948025 84.680875 
L 107.063227 88.408456 
L 108.995476 88.408456 
L 109.110678 92.136037 
L 121.35873 92.136037 
L 121.473932 88.408456 
L 121.803828 88.408456 
L 121.913794 92.136037 
L 122.028996 91.204142 
L 175.603096 91.204142 
L 175.718298 94.931723 
L 213.970551 94.931723 
L 214.085753 91.204142 
L 240.50887 91.204142 
L 240.624072 94.931723 
L 398.487273 94.931723 
L 398.487273 94.931723 
" clip-path="url(#p848fb952b6)" style="fill: none; stroke: #ff7f0e; stroke-width: 1.5; stroke-linecap: square"/>
   </g>
   <g id="patch_3">
    <path d="M 57.6 162.432 
L 57.6 41.472 
" style="fill: none; stroke: #000000; stroke-width: 0.8; stroke-linejoin: miter; stroke-linecap: square"/>
   </g>
   <g id="patch_4">
    <path d="M 414.72 162.432 
L 414.72 41.472 
" style="fill: none; stroke: #000000; stroke-width: 0.8; stroke-linejoin: miter; stroke-linecap: square"/>
   </g>
   <g id="patch_5">
    <path d="M 57.6 162.432 
L 414.72 162.432 
" style="fill: none; stroke: #000000; stroke-width: 0.8; stroke-linejoin: miter; stroke-linecap: square"/>
   </g>
   <g id="patch_6">
    <path d="M 57.6 41.472 
L 414.72 41.472 
" style="fill: none; stroke: #000000; stroke-width: 0.8; stroke-linejoin: miter; stroke-linecap: square"/>
   </g>
   <g id="text_11">
    <!-- WSP -->
    <g transform="translate(361.832136 46.970182)scale(0.08 -0.08)">
     <defs>
      <path id="DejaVuSans-57" d="M 213 4666 
L 850 4666 
L 1831 722 
L 2809 4666 
L 3519 4666 
L 4500 722 
L 5478 4666 
L 6119 4666 
L 4947 0 
L 4153 0 
L 3169 4050 
L 2175 0 
L 1381 0 
L 213 4666 
z
" transform="scale(0.015625)"/>
      <path id="DejaVuSans-53" d="M 3425 4513 
L 3425 3897 
Q 3066 4069 2747 4153 
Q 2428 4238 2131 4238 
Q 1616 4238 1336 4038 
Q 1056 3838 1056 3469 
Q 1056 3159 1242 3001 
Q 1428 2844 1947 2747 
L 2328 2669 
Q 3034 2534 3370 2195 
Q 3706 1856 3706 1288 
Q 3706 609 3251 259 
Q 2797 -91 1919 -91 
Q 1588 -91 1214 -16 
Q 841 59 441 206 
L 441 856 
Q 825 641 1194 531 
Q 1563 422 1919 422 
Q 2459 422 2753 634 
Q 3047 847 3047 1241 
Q 3047 1584 2836 1778 
Q 2625 1972 2144 2069 
L 1759 2144 
Q 1053 2284 737 2584 
Q 422 2884 422 3419 
Q 422 4038 858 4394 
Q 1294 4750 2059 4750 
Q 2388 4750 2728 4690 
Q 3069 4631 3425 4513 
z
" transform="scale(0.015625)"/>
      <path id="DejaVuSans-50" d="M 1259 4147 
L 1259 2394 
L 2053 2394 
Q 2494 2394 2734 2622 
Q 2975 2850 2975 3272 
Q 2975 3691 2734 3919 
Q 2494 4147 2053 4147 
L 1259 4147 
z
M 628 4666 
L 2053 4666 
Q 2838 4666 3239 4311 
Q 3641 3956 3641 3272 
Q 3641 2581 3239 2228 
Q 2838 1875 2053 1875 
L 1259 1875 
L 1259 0 
L 628 0 
L 628 4666 
z
" transform="scale(0.015625)"/>
     </defs>
     <use xlink:href="#DejaVuSans-57"/>
     <use xlink:href="#DejaVuSans-53" x="98.876953"/>
     <use xlink:href="#DejaVuSans-50" x="162.353516"/>
    </g>
   </g>
   <g id="text_12">
    <!-- Iambic -->
    <g transform="translate(361.832136 132.642416)scale(0.08 -0.08)">
     <defs>
      <path id="DejaVuSans-49" d="M 628 4666 
L 1259 4666 
L 1259 0 
L 628 0 
L 628 4666 
z
" transform="scale(0.015625)"/>
      <path id="DejaVuSans-61" d="M 2194 1759 
Q 1497 1759 1228 1600 
Q 959 1441 959 1056 
Q 959 750 1161 570 
Q 1363 391 1709 391 
Q 2188 391 2477 730 
Q 2766 1069 2766 1631 
L 2766 1759 
L 2194 1759 
z
M 3341 1997 
L 3341 0 
L 2766 0 
L 2766 531 
Q 2569 213 2275 61 
Q 1981 -91 1556 -91 
Q 1019 -91 701 211 
Q 384 513 384 1019 
Q 384 1609 779 1909 
Q 1175 2209 1959 2209 
L 2766 2209 
L 2766 2266 
Q 2766 2663 2505 2880 
Q 2244 3097 1772 3097 
Q 1472 3097 1187 3025 
Q 903 2953 641 2809 
L 641 3341 
Q 956 3463 1253 3523 
Q 1550 3584 1831 3584 
Q 2591 3584 2966 3190 
Q 3341 2797 3341 1997 
z
" transform="scale(0.015625)"/>
      <path id="DejaVuSans-6d" d="M 3328 2828 
Q 3544 3216 3844 3400 
Q 4144 3584 4550 3584 
Q 5097 3584 5394 3201 
Q 5691 2819 5691 2113 
L 5691 0 
L 5113 0 
L 5113 2094 
Q 5113 2597 4934 2840 
Q 4756 3084 4391 3084 
Q 3944 3084 3684 2787 
Q 3425 2491 3425 1978 
L 3425 0 
L 2847 0 
L 2847 2094 
Q 2847 2600 2669 2842 
Q 2491 3084 2119 3084 
Q 1678 3084 1418 2786 
Q 1159 2488 1159 1978 
L 1159 0 
L 581 0 
L 581 3500 
L 1159 3500 
L 1159 2956 
Q 1356 3278 1631 3431 
Q 1906 3584 2284 3584 
Q 2666 3584 2933 3390 
Q 3200 3197 3328 2828 
z
" transform="scale(0.015625)"/>
      <path id="DejaVuSans-62" d="M 3116 1747 
Q 3116 2381 2855 2742 
Q 2594 3103 2138 3103 
Q 1681 3103 1420 2742 
Q 1159 2381 1159 1747 
Q 1159 1113 1420 752 
Q 1681 391 2138 391 
Q 2594 391 2855 752 
Q 3116 1113 3116 1747 
z
M 1159 2969 
Q 1341 3281 1617 3432 
Q 1894 3584 2278 3584 
Q 2916 3584 3314 3078 
Q 3713 2572 3713 1747 
Q 3713 922 3314 415 
Q 2916 -91 2278 -91 
Q 1894 -91 1617 61 
Q 1341 213 1159 525 
L 1159 0 
L 581 0 
L 581 4863 
L 1159 4863 
L 1159 2969 
z
" transform="scale(0.015625)"/>
      <path id="DejaVuSans-69" d="M 603 3500 
L 1178 3500 
L 1178 0 
L 603 0 
L 603 3500 
z
M 603 4863 
L 1178 4863 
L 1178 4134 
L 603 4134 
L 603 4863 
z
" transform="scale(0.015625)"/>
      <path id="DejaVuSans-63" d="M 3122 3366 
L 3122 2828 
Q 2878 2963 2633 3030 
Q 2388 3097 2138 3097 
Q 1578 3097 1268 2742 
Q 959 2388 959 1747 
Q 959 1106 1268 751 
Q 1578 397 2138 397 
Q 2388 397 2633 464 
Q 2878 531 3122 666 
L 3122 134 
Q 2881 22 2623 -34 
Q 2366 -91 2075 -91 
Q 1284 -91 818 406 
Q 353 903 353 1747 
Q 353 2603 823 3093 
Q 1294 3584 2113 3584 
Q 2378 3584 2631 3529 
Q 2884 3475 3122 3366 
z
" transform="scale(0.015625)"/>
     </defs>
     <use xlink:href="#DejaVuSans-49"/>
     <use xlink:href="#DejaVuSans-61" x="29.492188"/>
     <use xlink:href="#DejaVuSans-6d" x="90.771484"/>
     <use xlink:href="#DejaVuSans-62" x="188.183594"/>
     <use xlink:href="#DejaVuSans-69" x="251.660156"/>
     <use xlink:href="#DejaVuSans-63" x="279.443359"/>
    </g>
   </g>
   <g id="text_13">
    <!-- Parse -->
    <g transform="translate(361.832136 155.691291)scale(0.08 -0.08)">
     <defs>
      <path id="DejaVuSans-72" d="M 2631 2963 
Q 2534 3019 2420 3045 
Q 2306 3072 2169 3072 
Q 1681 3072 1420 2755 
Q 1159 2438 1159 1844 
L 1159 0 
L 581 0 
L 581 3500 
L 1159 3500 
L 1159 2956 
Q 1341 3275 1631 3429 
Q 1922 3584 2338 3584 
Q 2397 3584 2469 3576 
Q 2541 3569 2628 3553 
L 2631 2963 
z
" transform="scale(0.015625)"/>
      <path id="DejaVuSans-73" d="M 2834 3397 
L 2834 2853 
Q 2591 2978 2328 3040 
Q 2066 3103 1784 3103 
Q 1356 3103 1142 2972 
Q 928 2841 928 2578 
Q 928 2378 1081 2264 
Q 1234 2150 1697 2047 
L 1894 2003 
Q 2506 1872 2764 1633 
Q 3022 1394 3022 966 
Q 3022 478 2636 193 
Q 2250 -91 1575 -91 
Q 1294 -91 989 -36 
Q 684 19 347 128 
L 347 722 
Q 666 556 975 473 
Q 1284 391 1588 391 
Q 1994 391 2212 530 
Q 2431 669 2431 922 
Q 2431 1156 2273 1281 
Q 2116 1406 1581 1522 
L 1381 1569 
Q 847 1681 609 1914 
Q 372 2147 372 2553 
Q 372 3047 722 3315 
Q 1072 3584 1716 3584 
Q 2034 3584 2315 3537 
Q 2597 3491 2834 3397 
z
" transform="scale(0.015625)"/>
      <path id="DejaVuSans-65" d="M 3597 1894 
L 3597 1613 
L 953 1613 
Q 991 1019 1311 708 
Q 1631 397 2203 397 
Q 2534 397 2845 478 
Q 3156 559 3463 722 
L 3463 178 
Q 3153 47 2828 -22 
Q 2503 -91 2169 -91 
Q 1331 -91 842 396 
Q 353 884 353 1716 
Q 353 2575 817 3079 
Q 1281 3584 2069 3584 
Q 2775 3584 3186 3129 
Q 3597 2675 3597 1894 
z
M 3022 2063 
Q 3016 2534 2758 2815 
Q 2500 3097 2075 3097 
Q 1594 3097 1305 2825 
Q 1016 2553 972 2059 
L 3022 2063 
z
" transform="scale(0.015625)"/>
     </defs>
     <use xlink:href="#DejaVuSans-50"/>
     <use xlink:href="#DejaVuSans-61" x="55.802734"/>
     <use xlink:href="#DejaVuSans-72" x="117.082031"/>
     <use xlink:href="#DejaVuSans-73" x="158.195312"/>
     <use xlink:href="#DejaVuSans-65" x="210.294922"/>
    </g>
   </g>
   <g id="text_14">
    <!-- FootBin -->
    <g transform="translate(361.832136 56.661892)scale(0.08 -0.08)">
     <defs>
      <path id="DejaVuSans-46" d="M 628 4666 
L 3309 4666 
L 3309 4134 
L 1259 4134 
L 1259 2759 
L 3109 2759 
L 3109 2228 
L 1259 2228 
L 1259 0 
L 628 0 
L 628 4666 
z
" transform="scale(0.015625)"/>
      <path id="DejaVuSans-6f" d="M 1959 3097 
Q 1497 3097 1228 2736 
Q 959 2375 959 1747 
Q 959 1119 1226 758 
Q 1494 397 1959 397 
Q 2419 397 2687 759 
Q 2956 1122 2956 1747 
Q 2956 2369 2687 2733 
Q 2419 3097 1959 3097 
z
M 1959 3584 
Q 2709 3584 3137 3096 
Q 3566 2609 3566 1747 
Q 3566 888 3137 398 
Q 2709 -91 1959 -91 
Q 1206 -91 779 398 
Q 353 888 353 1747 
Q 353 2609 779 3096 
Q 1206 3584 1959 3584 
z
" transform="scale(0.015625)"/>
      <path id="DejaVuSans-74" d="M 1172 4494 
L 1172 3500 
L 2356 3500 
L 2356 3053 
L 1172 3053 
L 1172 1153 
Q 1172 725 1289 603 
Q 1406 481 1766 481 
L 2356 481 
L 2356 0 
L 1766 0 
Q 1100 0 847 248 
Q 594 497 594 1153 
L 594 3053 
L 172 3053 
L 172 3500 
L 594 3500 
L 594 4494 
L 1172 4494 
z
" transform="scale(0.015625)"/>
      <path id="DejaVuSans-42" d="M 1259 2228 
L 1259 519 
L 2272 519 
Q 2781 519 3026 730 
Q 3272 941 3272 1375 
Q 3272 1813 3026 2020 
Q 2781 2228 2272 2228 
L 1259 2228 
z
M 1259 4147 
L 1259 2741 
L 2194 2741 
Q 2656 2741 2882 2914 
Q 3109 3088 3109 3444 
Q 3109 3797 2882 3972 
Q 2656 4147 2194 4147 
L 1259 4147 
z
M 628 4666 
L 2241 4666 
Q 2963 4666 3353 4366 
Q 3744 4066 3744 3513 
Q 3744 3084 3544 2831 
Q 3344 2578 2956 2516 
Q 3422 2416 3680 2098 
Q 3938 1781 3938 1306 
Q 3938 681 3513 340 
Q 3088 0 2303 0 
L 628 0 
L 628 4666 
z
" transform="scale(0.015625)"/>
      <path id="DejaVuSans-6e" d="M 3513 2113 
L 3513 0 
L 2938 0 
L 2938 2094 
Q 2938 2591 2744 2837 
Q 2550 3084 2163 3084 
Q 1697 3084 1428 2787 
Q 1159 2491 1159 1978 
L 1159 0 
L 581 0 
L 581 3500 
L 1159 3500 
L 1159 2956 
Q 1366 3272 1645 3428 
Q 1925 3584 2291 3584 
Q 2894 3584 3203 3211 
Q 3513 2838 3513 2113 
z
" transform="scale(0.015625)"/>
     </defs>
     <use xlink:href="#DejaVuSans-46"/>
     <use xlink:href="#DejaVuSans-6f" x="53.894531"/>
     <use xlink:href="#DejaVuSans-6f" x="115.076172"/>
     <use xlink:href="#DejaVuSans-74" x="176.257812"/>
     <use xlink:href="#DejaVuSans-42" x="215.466797"/>
     <use xlink:href="#DejaVuSans-69" x="284.070312"/>
     <use xlink:href="#DejaVuSans-6e" x="311.853516"/>
    </g>
   </g>
   <g id="text_15">
    <!-- WFL -->
    <g transform="translate(361.832136 83.003464)scale(0.08 -0.08)">
     <defs>
      <path id="DejaVuSans-4c" d="M 628 4666 
L 1259 4666 
L 1259 531 
L 3531 531 
L 3531 0 
L 628 0 
L 628 4666 
z
" transform="scale(0.015625)"/>
     </defs>
     <use xlink:href="#DejaVuSans-57"/>
     <use xlink:href="#DejaVuSans-46" x="98.876953"/>
     <use xlink:href="#DejaVuSans-4c" x="156.396484"/>
    </g>
   </g>
   <g id="text_16">
    <!-- WFR -->
    <g transform="translate(361.832136 131.586268)scale(0.08 -0.08)">
     <defs>
      <path id="DejaVuSans-52" d="M 2841 2188 
Q 3044 2119 3236 1894 
Q 3428 1669 3622 1275 
L 4263 0 
L 3584 0 
L 2988 1197 
Q 2756 1666 2539 1819 
Q 2322 1972 1947 1972 
L 1259 1972 
L 1259 0 
L 628 0 
L 628 4666 
L 2053 4666 
Q 2853 4666 3247 4331 
Q 3641 3997 3641 3322 
Q 3641 2881 3436 2590 
Q 3231 2300 2841 2188 
z
M 1259 4147 
L 1259 2491 
L 2053 2491 
Q 2509 2491 2742 2702 
Q 2975 2913 2975 3322 
Q 2975 3731 2742 3939 
Q 2509 4147 2053 4147 
L 1259 4147 
z
" transform="scale(0.015625)"/>
     </defs>
     <use xlink:href="#DejaVuSans-57"/>
     <use xlink:href="#DejaVuSans-46" x="98.876953"/>
     <use xlink:href="#DejaVuSans-52" x="156.396484"/>
    </g>
   </g>
   <g id="text_17">
    <!-- Main-L -->
    <g transform="translate(361.832136 71.820721)scale(0.08 -0.08)">
     <defs>
      <path id="DejaVuSans-4d" d="M 628 4666 
L 1569 4666 
L 2759 1491 
L 3956 4666 
L 4897 4666 
L 4897 0 
L 4281 0 
L 4281 4097 
L 3078 897 
L 2444 897 
L 1241 4097 
L 1241 0 
L 628 0 
L 628 4666 
z
" transform="scale(0.015625)"/>
      <path id="DejaVuSans-2d" d="M 313 2009 
L 1997 2009 
L 1997 1497 
L 313 1497 
L 313 2009 
z
" transform="scale(0.015625)"/>
     </defs>
     <use xlink:href="#DejaVuSans-4d"/>
     <use xlink:href="#DejaVuSans-61" x="86.279297"/>
     <use xlink:href="#DejaVuSans-69" x="147.558594"/>
     <use xlink:href="#DejaVuSans-6e" x="175.341797"/>
     <use xlink:href="#DejaVuSans-2d" x="238.720703"/>
     <use xlink:href="#DejaVuSans-4c" x="274.804688"/>
    </g>
   </g>
   <g id="text_18">
    <!-- Main-R -->
    <g transform="translate(361.832136 126.243402)scale(0.08 -0.08)">
     <use xlink:href="#DejaVuSans-4d"/>
     <use xlink:href="#DejaVuSans-61" x="86.279297"/>
     <use xlink:href="#DejaVuSans-69" x="147.558594"/>
     <use xlink:href="#DejaVuSans-6e" x="175.341797"/>
     <use xlink:href="#DejaVuSans-2d" x="238.720703"/>
     <use xlink:href="#DejaVuSans-52" x="274.804688"/>
    </g>
   </g>
   <g id="text_19">
    <!-- AFL -->
    <g transform="translate(361.832136 116.303186)scale(0.08 -0.08)">
     <defs>
      <path id="DejaVuSans-41" d="M 2188 4044 
L 1331 1722 
L 3047 1722 
L 2188 4044 
z
M 1831 4666 
L 2547 4666 
L 4325 0 
L 3669 0 
L 3244 1197 
L 1141 1197 
L 716 0 
L 50 0 
L 1831 4666 
z
" transform="scale(0.015625)"/>
     </defs>
     <use xlink:href="#DejaVuSans-41"/>
     <use xlink:href="#DejaVuSans-46" x="68.408203"/>
     <use xlink:href="#DejaVuSans-4c" x="125.927734"/>
    </g>
   </g>
   <g id="text_20">
    <!-- AFR -->
    <g transform="translate(361.832136 105.741707)scale(0.08 -0.08)">
     <use xlink:href="#DejaVuSans-41"/>
     <use xlink:href="#DejaVuSans-46" x="68.408203"/>
     <use xlink:href="#DejaVuSans-52" x="125.927734"/>
    </g>
   </g>
   <g id="text_21">
    <!-- Nonfinal -->
    <g transform="translate(361.832136 92.136037)scale(0.08 -0.08)">
     <defs>
      <path id="DejaVuSans-4e" d="M 628 4666 
L 1478 4666 
L 3547 763 
L 3547 4666 
L 4159 4666 
L 4159 0 
L 3309 0 
L 1241 3903 
L 1241 0 
L 628 0 
L 628 4666 
z
" transform="scale(0.015625)"/>
      <path id="DejaVuSans-66" d="M 2375 4863 
L 2375 4384 
L 1825 4384 
Q 1516 4384 1395 4259 
Q 1275 4134 1275 3809 
L 1275 3500 
L 2222 3500 
L 2222 3053 
L 1275 3053 
L 1275 0 
L 697 0 
L 697 3053 
L 147 3053 
L 147 3500 
L 697 3500 
L 697 3744 
Q 697 4328 969 4595 
Q 1241 4863 1831 4863 
L 2375 4863 
z
" transform="scale(0.015625)"/>
      <path id="DejaVuSans-6c" d="M 603 4863 
L 1178 4863 
L 1178 0 
L 603 0 
L 603 4863 
z
" transform="scale(0.015625)"/>
     </defs>
     <use xlink:href="#DejaVuSans-4e"/>
     <use xlink:href="#DejaVuSans-6f" x="74.804688"/>
     <use xlink:href="#DejaVuSans-6e" x="135.986328"/>
     <use xlink:href="#DejaVuSans-66" x="199.365234"/>
     <use xlink:href="#DejaVuSans-69" x="234.570312"/>
     <use xlink:href="#DejaVuSans-6e" x="262.353516"/>
     <use xlink:href="#DejaVuSans-61" x="325.732422"/>
     <use xlink:href="#DejaVuSans-6c" x="387.011719"/>
    </g>
   </g>
   <g id="text_22">
    <!-- Trochaic -->
    <g transform="translate(361.832136 94.931723)scale(0.08 -0.08)">
     <defs>
      <path id="DejaVuSans-54" d="M -19 4666 
L 3928 4666 
L 3928 4134 
L 2272 4134 
L 2272 0 
L 1638 0 
L 1638 4134 
L -19 4134 
L -19 4666 
z
" transform="scale(0.015625)"/>
      <path id="DejaVuSans-68" d="M 3513 2113 
L 3513 0 
L 2938 0 
L 2938 2094 
Q 2938 2591 2744 2837 
Q 2550 3084 2163 3084 
Q 1697 3084 1428 2787 
Q 1159 2491 1159 1978 
L 1159 0 
L 581 0 
L 581 4863 
L 1159 4863 
L 1159 2956 
Q 1366 3272 1645 3428 
Q 1925 3584 2291 3584 
Q 2894 3584 3203 3211 
Q 3513 2838 3513 2113 
z
" transform="scale(0.015625)"/>
     </defs>
     <use xlink:href="#DejaVuSans-54"/>
     <use xlink:href="#DejaVuSans-72" x="46.333984"/>
     <use xlink:href="#DejaVuSans-6f" x="85.197266"/>
     <use xlink:href="#DejaVuSans-63" x="146.378906"/>
     <use xlink:href="#DejaVuSans-68" x="201.359375"/>
     <use xlink:href="#DejaVuSans-61" x="264.738281"/>
     <use xlink:href="#DejaVuSans-69" x="326.017578"/>
     <use xlink:href="#DejaVuSans-63" x="353.800781"/>
    </g>
   </g>
  </g>
  <g id="axes_2">
   <g id="patch_7">
    <path d="M 57.6 307.584 
L 414.72 307.584 
L 414.72 186.624 
L 57.6 186.624 
z
" style="fill: #ffffff"/>
   </g>
   <g id="matplotlib.axis_3">
    <g id="xtick_8">
     <g id="line2d_23">
      <g>
       <use xlink:href="#m03dd7f9785" x="69.824646" y="307.584" style="stroke: #000000; stroke-width: 0.8"/>
      </g>
     </g>
     <g id="text_23">
      <!-- 0 -->
      <g transform="translate(66.643396 322.182437)scale(0.1 -0.1)">
       <use xlink:href="#DejaVuSans-30"/>
      </g>
     </g>
    </g>
    <g id="xtick_9">
     <g id="line2d_24">
      <g>
       <use xlink:href="#m03dd7f9785" x="109.905455" y="307.584" style="stroke: #000000; stroke-width: 0.8"/>
      </g>
     </g>
     <g id="text_24">
      <!-- 10 -->
      <g transform="translate(103.542955 322.182437)scale(0.1 -0.1)">
       <use xlink:href="#DejaVuSans-31"/>
       <use xlink:href="#DejaVuSans-30" x="63.623047"/>
      </g>
     </g>
    </g>
    <g id="xtick_10">
     <g id="line2d_25">
      <g>
       <use xlink:href="#m03dd7f9785" x="149.986263" y="307.584" style="stroke: #000000; stroke-width: 0.8"/>
      </g>
     </g>
     <g id="text_25">
      <!-- 20 -->
      <g transform="translate(143.623763 322.182437)scale(0.1 -0.1)">
       <use xlink:href="#DejaVuSans-32"/>
       <use xlink:href="#DejaVuSans-30" x="63.623047"/>
      </g>
     </g>
    </g>
    <g id="xtick_11">
     <g id="line2d_26">
      <g>
       <use xlink:href="#m03dd7f9785" x="190.067071" y="307.584" style="stroke: #000000; stroke-width: 0.8"/>
      </g>
     </g>
     <g id="text_26">
      <!-- 30 -->
      <g transform="translate(183.704571 322.182437)scale(0.1 -0.1)">
       <use xlink:href="#DejaVuSans-33"/>
       <use xlink:href="#DejaVuSans-30" x="63.623047"/>
      </g>
     </g>
    </g>
    <g id="xtick_12">
     <g id="line2d_27">
      <g>
       <use xlink:href="#m03dd7f9785" x="230.147879" y="307.584" style="stroke: #000000; stroke-width: 0.8"/>
      </g>
     </g>
     <g id="text_27">
      <!-- 40 -->
      <g transform="translate(223.785379 322.182437)scale(0.1 -0.1)">
       <use xlink:href="#DejaVuSans-34"/>
       <use xlink:href="#DejaVuSans-30" x="63.623047"/>
      </g>
     </g>
    </g>
    <g id="xtick_13">
     <g id="line2d_28">
      <g>
       <use xlink:href="#m03dd7f9785" x="270.228687" y="307.584" style="stroke: #000000; stroke-width: 0.8"/>
      </g>
     </g>
     <g id="text_28">
      <!-- 50 -->
      <g transform="translate(263.866187 322.182437)scale(0.1 -0.1)">
       <use xlink:href="#DejaVuSans-35"/>
       <use xlink:href="#DejaVuSans-30" x="63.623047"/>
      </g>
     </g>
    </g>
    <g id="xtick_14">
     <g id="line2d_29">
      <g>
       <use xlink:href="#m03dd7f9785" x="310.309495" y="307.584" style="stroke: #000000; stroke-width: 0.8"/>
      </g>
     </g>
     <g id="text_29">
      <!-- 60 -->
      <g transform="translate(303.946995 322.182437)scale(0.1 -0.1)">
       <use xlink:href="#DejaVuSans-36"/>
       <use xlink:href="#DejaVuSans-30" x="63.623047"/>
      </g>
     </g>
    </g>
    <g id="xtick_15">
     <g id="line2d_30">
      <g>
       <use xlink:href="#m03dd7f9785" x="350.390303" y="307.584" style="stroke: #000000; stroke-width: 0.8"/>
      </g>
     </g>
     <g id="text_30">
      <!-- 70 -->
      <g transform="translate(344.027803 322.182437)scale(0.1 -0.1)">
       <defs>
        <path id="DejaVuSans-37" d="M 525 4666 
L 3525 4666 
L 3525 4397 
L 1831 0 
L 1172 0 
L 2766 4134 
L 525 4134 
L 525 4666 
z
" transform="scale(0.015625)"/>
       </defs>
       <use xlink:href="#DejaVuSans-37"/>
       <use xlink:href="#DejaVuSans-30" x="63.623047"/>
      </g>
     </g>
    </g>
    <g id="xtick_16">
     <g id="line2d_31">
      <g>
       <use xlink:href="#m03dd7f9785" x="390.471111" y="307.584" style="stroke: #000000; stroke-width: 0.8"/>
      </g>
     </g>
     <g id="text_31">
      <!-- 80 -->
      <g transform="translate(384.108611 322.182437)scale(0.1 -0.1)">
       <use xlink:href="#DejaVuSans-38"/>
       <use xlink:href="#DejaVuSans-30" x="63.623047"/>
      </g>
     </g>
    </g>
   </g>
   <g id="matplotlib.axis_4">
    <g id="ytick_4">
     <g id="line2d_32">
      <g>
       <use xlink:href="#me4854b9bdc" x="57.6" y="302.093153" style="stroke: #000000; stroke-width: 0.8"/>
      </g>
     </g>
     <g id="text_32">
      <!-- 0 -->
      <g transform="translate(44.2375 305.892371)scale(0.1 -0.1)">
       <use xlink:href="#DejaVuSans-30"/>
      </g>
     </g>
    </g>
    <g id="ytick_5">
     <g id="line2d_33">
      <g>
       <use xlink:href="#me4854b9bdc" x="57.6" y="265.421494" style="stroke: #000000; stroke-width: 0.8"/>
      </g>
     </g>
     <g id="text_33">
      <!-- 5000 -->
      <g transform="translate(25.15 269.220712)scale(0.1 -0.1)">
       <use xlink:href="#DejaVuSans-35"/>
       <use xlink:href="#DejaVuSans-30" x="63.623047"/>
       <use xlink:href="#DejaVuSans-30" x="127.246094"/>
       <use xlink:href="#DejaVuSans-30" x="190.869141"/>
      </g>
     </g>
    </g>
    <g id="ytick_6">
     <g id="line2d_34">
      <g>
       <use xlink:href="#me4854b9bdc" x="57.6" y="228.749835" style="stroke: #000000; stroke-width: 0.8"/>
      </g>
     </g>
     <g id="text_34">
      <!-- 10000 -->
      <g transform="translate(18.7875 232.549053)scale(0.1 -0.1)">
       <use xlink:href="#DejaVuSans-31"/>
       <use xlink:href="#DejaVuSans-30" x="63.623047"/>
       <use xlink:href="#DejaVuSans-30" x="127.246094"/>
       <use xlink:href="#DejaVuSans-30" x="190.869141"/>
       <use xlink:href="#DejaVuSans-30" x="254.492188"/>
      </g>
     </g>
    </g>
    <g id="ytick_7">
     <g id="line2d_35">
      <g>
       <use xlink:href="#me4854b9bdc" x="57.6" y="192.078176" style="stroke: #000000; stroke-width: 0.8"/>
      </g>
     </g>
     <g id="text_35">
      <!-- 15000 -->
      <g transform="translate(18.7875 195.877395)scale(0.1 -0.1)">
       <use xlink:href="#DejaVuSans-31"/>
       <use xlink:href="#DejaVuSans-35" x="63.623047"/>
       <use xlink:href="#DejaVuSans-30" x="127.246094"/>
       <use xlink:href="#DejaVuSans-30" x="190.869141"/>
       <use xlink:href="#DejaVuSans-30" x="254.492188"/>
      </g>
     </g>
    </g>
   </g>
   <g id="line2d_36">
    <path d="M 73.832727 302.085818 
L 77.840808 302.085818 
L 81.848889 302.078484 
L 85.85697 302.078484 
L 89.865051 302.078484 
L 93.873131 302.085818 
L 97.881212 302.078484 
L 101.889293 302.085818 
L 105.897374 302.085818 
L 109.905455 302.085818 
L 113.913535 302.085818 
L 117.921616 302.078484 
L 121.929697 302.085818 
L 125.937778 302.063815 
L 129.945859 302.078484 
L 133.953939 302.085818 
L 137.96202 302.085818 
L 141.970101 302.041812 
L 145.978182 302.012475 
L 149.986263 302.07115 
L 153.994343 302.049147 
L 158.002424 301.880457 
L 162.010505 302.041812 
L 166.018586 302.078484 
L 170.026667 302.019809 
L 174.034747 302.078484 
L 178.042828 302.07115 
L 182.050909 302.07115 
L 186.05899 302.034478 
L 190.067071 302.005141 
L 194.075152 301.9538 
L 198.083232 302.019809 
L 202.091313 301.968469 
L 206.099394 302.085818 
L 210.107475 302.07115 
L 214.115556 302.049147 
L 218.123636 302.056481 
L 222.131717 301.63109 
L 226.139798 302.085818 
L 230.147879 302.056481 
L 234.15596 301.880457 
L 238.16404 302.027144 
L 242.172121 302.085818 
L 246.180202 302.085818 
L 250.188283 302.027144 
L 254.196364 302.041812 
L 258.204444 301.90246 
L 262.212525 301.975803 
L 266.220606 301.887791 
L 270.228687 301.873123 
L 274.236768 301.227701 
L 278.244848 301.939132 
L 282.252929 301.528409 
L 286.26101 301.85112 
L 290.269091 301.917129 
L 294.277172 301.924463 
L 298.285253 301.90246 
L 302.293333 301.51374 
L 306.301414 302.078484 
L 310.309495 301.51374 
L 314.317576 301.110352 
L 318.325657 294.326095 
L 322.333737 298.469993 
L 326.341818 296.724422 
L 330.349899 299.614148 
L 334.35798 294.318761 
L 338.366061 301.865788 
L 342.374141 290.504908 
L 346.382222 299.225429 
L 350.390303 284.776795 
L 354.398384 301.469734 
L 358.406465 301.939132 
L 362.414545 296.277027 
L 366.422626 278.733306 
L 370.430707 297.817237 
L 374.438788 291.135661 
L 378.446869 271.604335 
L 382.454949 301.792445 
L 386.46303 260.023425 
L 390.471111 290.424231 
L 394.479192 264.922759 
L 398.487273 192.122182 
" clip-path="url(#pbd5ac57810)" style="fill: none; stroke: #1f77b4; stroke-width: 1.5; stroke-linecap: square"/>
   </g>
   <g id="patch_8">
    <path d="M 57.6 307.584 
L 57.6 186.624 
" style="fill: none; stroke: #000000; stroke-width: 0.8; stroke-linejoin: miter; stroke-linecap: square"/>
   </g>
   <g id="patch_9">
    <path d="M 414.72 307.584 
L 414.72 186.624 
" style="fill: none; stroke: #000000; stroke-width: 0.8; stroke-linejoin: miter; stroke-linecap: square"/>
   </g>
   <g id="patch_10">
    <path d="M 57.6 307.584 
L 414.72 307.584 
" style="fill: none; stroke: #000000; stroke-width: 0.8; stroke-linejoin: miter; stroke-linecap: square"/>
   </g>
   <g id="patch_11">
    <path d="M 57.6 186.624 
L 414.72 186.624 
" style="fill: none; stroke: #000000; stroke-width: 0.8; stroke-linejoin: miter; stroke-linecap: square"/>
   </g>
  </g>
 </g>
 <defs>
  <clipPath id="p848fb952b6">
   <rect x="57.6" y="41.472" width="357.12" height="120.96"/>
  </clipPath>
  <clipPath id="pbd5ac57810">
   <rect x="57.6" y="186.624" width="357.12" height="120.96"/>
  </clipPath>
 </defs>
</svg>
