<?xml version="1.0" encoding="utf-8" standalone="no"?>
<!DOCTYPE svg PUBLIC "-//W3C//DTD SVG 1.1//EN"
  "http://www.w3.org/Graphics/SVG/1.1/DTD/svg11.dtd">
<svg xmlns:xlink="http://www.w3.org/1999/xlink" width="460.8pt" height="345.6pt" viewBox="0 0 460.8 345.6" xmlns="http://www.w3.org/2000/svg" version="1.1">
 <metadata>
  <rdf:RDF xmlns:dc="http://purl.org/dc/elements/1.1/" xmlns:cc="http://creativecommons.org/ns#" xmlns:rdf="http://www.w3.org/1999/02/22-rdf-syntax-ns#">
   <cc:Work>
    <dc:type rdf:resource="http://purl.org/dc/dcmitype/StillImage"/>
    <dc:date>2022-05-13T12:07:42.704592</dc:date>
    <dc:format>image/svg+xml</dc:format>
    <dc:creator>
     <cc:Agent>
      <dc:title>Matplotlib v3.5.1, https://matplotlib.org/</dc:title>
     </cc:Agent>
    </dc:creator>
   </cc:Work>
  </rdf:RDF>
 </metadata>
 <defs>
  <style type="text/css">*{stroke-linejoin: round; stroke-linecap: butt}</style>
 </defs>
 <g id="figure_1">
  <g id="patch_1">
   <path d="M 0 345.6 
L 460.8 345.6 
L 460.8 0 
L 0 0 
z
" style="fill: #ffffff"/>
  </g>
  <g id="axes_1">
   <g id="patch_2">
    <path d="M 57.6 162.432 
L 414.72 162.432 
L 414.72 41.472 
L 57.6 41.472 
z
" style="fill: #ffffff"/>
   </g>
   <g id="matplotlib.axis_1">
    <g id="xtick_1">
     <g id="line2d_1">
      <defs>
       <path id="m5afedb63ec" d="M 0 0 
L 0 3.5 
" style="stroke: #000000; stroke-width: 0.8"/>
      </defs>
      <g>
       <use xlink:href="#m5afedb63ec" x="73.827491" y="162.432" style="stroke: #000000; stroke-width: 0.8"/>
      </g>
     </g>
     <g id="text_1">
      <!-- 0 -->
      <g transform="translate(70.646241 177.030437)scale(0.1 -0.1)">
       <defs>
        <path id="DejaVuSans-30" d="M 2034 4250 
Q 1547 4250 1301 3770 
Q 1056 3291 1056 2328 
Q 1056 1369 1301 889 
Q 1547 409 2034 409 
Q 2525 409 2770 889 
Q 3016 1369 3016 2328 
Q 3016 3291 2770 3770 
Q 2525 4250 2034 4250 
z
M 2034 4750 
Q 2819 4750 3233 4129 
Q 3647 3509 3647 2328 
Q 3647 1150 3233 529 
Q 2819 -91 2034 -91 
Q 1250 -91 836 529 
Q 422 1150 422 2328 
Q 422 3509 836 4129 
Q 1250 4750 2034 4750 
z
" transform="scale(0.015625)"/>
       </defs>
       <use xlink:href="#DejaVuSans-30"/>
      </g>
     </g>
    </g>
    <g id="xtick_2">
     <g id="line2d_2">
      <g>
       <use xlink:href="#m5afedb63ec" x="126.191972" y="162.432" style="stroke: #000000; stroke-width: 0.8"/>
      </g>
     </g>
     <g id="text_2">
      <!-- 10000 -->
      <g transform="translate(110.285722 177.030437)scale(0.1 -0.1)">
       <defs>
        <path id="DejaVuSans-31" d="M 794 531 
L 1825 531 
L 1825 4091 
L 703 3866 
L 703 4441 
L 1819 4666 
L 2450 4666 
L 2450 531 
L 3481 531 
L 3481 0 
L 794 0 
L 794 531 
z
" transform="scale(0.015625)"/>
       </defs>
       <use xlink:href="#DejaVuSans-31"/>
       <use xlink:href="#DejaVuSans-30" x="63.623047"/>
       <use xlink:href="#DejaVuSans-30" x="127.246094"/>
       <use xlink:href="#DejaVuSans-30" x="190.869141"/>
       <use xlink:href="#DejaVuSans-30" x="254.492188"/>
      </g>
     </g>
    </g>
    <g id="xtick_3">
     <g id="line2d_3">
      <g>
       <use xlink:href="#m5afedb63ec" x="178.556453" y="162.432" style="stroke: #000000; stroke-width: 0.8"/>
      </g>
     </g>
     <g id="text_3">
      <!-- 20000 -->
      <g transform="translate(162.650203 177.030437)scale(0.1 -0.1)">
       <defs>
        <path id="DejaVuSans-32" d="M 1228 531 
L 3431 531 
L 3431 0 
L 469 0 
L 469 531 
Q 828 903 1448 1529 
Q 2069 2156 2228 2338 
Q 2531 2678 2651 2914 
Q 2772 3150 2772 3378 
Q 2772 3750 2511 3984 
Q 2250 4219 1831 4219 
Q 1534 4219 1204 4116 
Q 875 4013 500 3803 
L 500 4441 
Q 881 4594 1212 4672 
Q 1544 4750 1819 4750 
Q 2544 4750 2975 4387 
Q 3406 4025 3406 3419 
Q 3406 3131 3298 2873 
Q 3191 2616 2906 2266 
Q 2828 2175 2409 1742 
Q 1991 1309 1228 531 
z
" transform="scale(0.015625)"/>
       </defs>
       <use xlink:href="#DejaVuSans-32"/>
       <use xlink:href="#DejaVuSans-30" x="63.623047"/>
       <use xlink:href="#DejaVuSans-30" x="127.246094"/>
       <use xlink:href="#DejaVuSans-30" x="190.869141"/>
       <use xlink:href="#DejaVuSans-30" x="254.492188"/>
      </g>
     </g>
    </g>
    <g id="xtick_4">
     <g id="line2d_4">
      <g>
       <use xlink:href="#m5afedb63ec" x="230.920934" y="162.432" style="stroke: #000000; stroke-width: 0.8"/>
      </g>
     </g>
     <g id="text_4">
      <!-- 30000 -->
      <g transform="translate(215.014684 177.030437)scale(0.1 -0.1)">
       <defs>
        <path id="DejaVuSans-33" d="M 2597 2516 
Q 3050 2419 3304 2112 
Q 3559 1806 3559 1356 
Q 3559 666 3084 287 
Q 2609 -91 1734 -91 
Q 1441 -91 1130 -33 
Q 819 25 488 141 
L 488 750 
Q 750 597 1062 519 
Q 1375 441 1716 441 
Q 2309 441 2620 675 
Q 2931 909 2931 1356 
Q 2931 1769 2642 2001 
Q 2353 2234 1838 2234 
L 1294 2234 
L 1294 2753 
L 1863 2753 
Q 2328 2753 2575 2939 
Q 2822 3125 2822 3475 
Q 2822 3834 2567 4026 
Q 2313 4219 1838 4219 
Q 1578 4219 1281 4162 
Q 984 4106 628 3988 
L 628 4550 
Q 988 4650 1302 4700 
Q 1616 4750 1894 4750 
Q 2613 4750 3031 4423 
Q 3450 4097 3450 3541 
Q 3450 3153 3228 2886 
Q 3006 2619 2597 2516 
z
" transform="scale(0.015625)"/>
       </defs>
       <use xlink:href="#DejaVuSans-33"/>
       <use xlink:href="#DejaVuSans-30" x="63.623047"/>
       <use xlink:href="#DejaVuSans-30" x="127.246094"/>
       <use xlink:href="#DejaVuSans-30" x="190.869141"/>
       <use xlink:href="#DejaVuSans-30" x="254.492188"/>
      </g>
     </g>
    </g>
    <g id="xtick_5">
     <g id="line2d_5">
      <g>
       <use xlink:href="#m5afedb63ec" x="283.285415" y="162.432" style="stroke: #000000; stroke-width: 0.8"/>
      </g>
     </g>
     <g id="text_5">
      <!-- 40000 -->
      <g transform="translate(267.379165 177.030437)scale(0.1 -0.1)">
       <defs>
        <path id="DejaVuSans-34" d="M 2419 4116 
L 825 1625 
L 2419 1625 
L 2419 4116 
z
M 2253 4666 
L 3047 4666 
L 3047 1625 
L 3713 1625 
L 3713 1100 
L 3047 1100 
L 3047 0 
L 2419 0 
L 2419 1100 
L 313 1100 
L 313 1709 
L 2253 4666 
z
" transform="scale(0.015625)"/>
       </defs>
       <use xlink:href="#DejaVuSans-34"/>
       <use xlink:href="#DejaVuSans-30" x="63.623047"/>
       <use xlink:href="#DejaVuSans-30" x="127.246094"/>
       <use xlink:href="#DejaVuSans-30" x="190.869141"/>
       <use xlink:href="#DejaVuSans-30" x="254.492188"/>
      </g>
     </g>
    </g>
    <g id="xtick_6">
     <g id="line2d_6">
      <g>
       <use xlink:href="#m5afedb63ec" x="335.649896" y="162.432" style="stroke: #000000; stroke-width: 0.8"/>
      </g>
     </g>
     <g id="text_6">
      <!-- 50000 -->
      <g transform="translate(319.743646 177.030437)scale(0.1 -0.1)">
       <defs>
        <path id="DejaVuSans-35" d="M 691 4666 
L 3169 4666 
L 3169 4134 
L 1269 4134 
L 1269 2991 
Q 1406 3038 1543 3061 
Q 1681 3084 1819 3084 
Q 2600 3084 3056 2656 
Q 3513 2228 3513 1497 
Q 3513 744 3044 326 
Q 2575 -91 1722 -91 
Q 1428 -91 1123 -41 
Q 819 9 494 109 
L 494 744 
Q 775 591 1075 516 
Q 1375 441 1709 441 
Q 2250 441 2565 725 
Q 2881 1009 2881 1497 
Q 2881 1984 2565 2268 
Q 2250 2553 1709 2553 
Q 1456 2553 1204 2497 
Q 953 2441 691 2322 
L 691 4666 
z
" transform="scale(0.015625)"/>
       </defs>
       <use xlink:href="#DejaVuSans-35"/>
       <use xlink:href="#DejaVuSans-30" x="63.623047"/>
       <use xlink:href="#DejaVuSans-30" x="127.246094"/>
       <use xlink:href="#DejaVuSans-30" x="190.869141"/>
       <use xlink:href="#DejaVuSans-30" x="254.492188"/>
      </g>
     </g>
    </g>
    <g id="xtick_7">
     <g id="line2d_7">
      <g>
       <use xlink:href="#m5afedb63ec" x="388.014377" y="162.432" style="stroke: #000000; stroke-width: 0.8"/>
      </g>
     </g>
     <g id="text_7">
      <!-- 60000 -->
      <g transform="translate(372.108127 177.030437)scale(0.1 -0.1)">
       <defs>
        <path id="DejaVuSans-36" d="M 2113 2584 
Q 1688 2584 1439 2293 
Q 1191 2003 1191 1497 
Q 1191 994 1439 701 
Q 1688 409 2113 409 
Q 2538 409 2786 701 
Q 3034 994 3034 1497 
Q 3034 2003 2786 2293 
Q 2538 2584 2113 2584 
z
M 3366 4563 
L 3366 3988 
Q 3128 4100 2886 4159 
Q 2644 4219 2406 4219 
Q 1781 4219 1451 3797 
Q 1122 3375 1075 2522 
Q 1259 2794 1537 2939 
Q 1816 3084 2150 3084 
Q 2853 3084 3261 2657 
Q 3669 2231 3669 1497 
Q 3669 778 3244 343 
Q 2819 -91 2113 -91 
Q 1303 -91 875 529 
Q 447 1150 447 2328 
Q 447 3434 972 4092 
Q 1497 4750 2381 4750 
Q 2619 4750 2861 4703 
Q 3103 4656 3366 4563 
z
" transform="scale(0.015625)"/>
       </defs>
       <use xlink:href="#DejaVuSans-36"/>
       <use xlink:href="#DejaVuSans-30" x="63.623047"/>
       <use xlink:href="#DejaVuSans-30" x="127.246094"/>
       <use xlink:href="#DejaVuSans-30" x="190.869141"/>
       <use xlink:href="#DejaVuSans-30" x="254.492188"/>
      </g>
     </g>
    </g>
   </g>
   <g id="matplotlib.axis_2">
    <g id="ytick_1">
     <g id="line2d_8">
      <defs>
       <path id="m6b1ad9c71a" d="M 0 0 
L -3.5 0 
" style="stroke: #000000; stroke-width: 0.8"/>
      </defs>
      <g>
       <use xlink:href="#m6b1ad9c71a" x="57.6" y="138.300627" style="stroke: #000000; stroke-width: 0.8"/>
      </g>
     </g>
     <g id="text_8">
      <!-- 80 -->
      <g transform="translate(37.875 142.099846)scale(0.1 -0.1)">
       <defs>
        <path id="DejaVuSans-38" d="M 2034 2216 
Q 1584 2216 1326 1975 
Q 1069 1734 1069 1313 
Q 1069 891 1326 650 
Q 1584 409 2034 409 
Q 2484 409 2743 651 
Q 3003 894 3003 1313 
Q 3003 1734 2745 1975 
Q 2488 2216 2034 2216 
z
M 1403 2484 
Q 997 2584 770 2862 
Q 544 3141 544 3541 
Q 544 4100 942 4425 
Q 1341 4750 2034 4750 
Q 2731 4750 3128 4425 
Q 3525 4100 3525 3541 
Q 3525 3141 3298 2862 
Q 3072 2584 2669 2484 
Q 3125 2378 3379 2068 
Q 3634 1759 3634 1313 
Q 3634 634 3220 271 
Q 2806 -91 2034 -91 
Q 1263 -91 848 271 
Q 434 634 434 1313 
Q 434 1759 690 2068 
Q 947 2378 1403 2484 
z
M 1172 3481 
Q 1172 3119 1398 2916 
Q 1625 2713 2034 2713 
Q 2441 2713 2670 2916 
Q 2900 3119 2900 3481 
Q 2900 3844 2670 4047 
Q 2441 4250 2034 4250 
Q 1625 4250 1398 4047 
Q 1172 3844 1172 3481 
z
" transform="scale(0.015625)"/>
       </defs>
       <use xlink:href="#DejaVuSans-38"/>
       <use xlink:href="#DejaVuSans-30" x="63.623047"/>
      </g>
     </g>
    </g>
    <g id="ytick_2">
     <g id="line2d_9">
      <g>
       <use xlink:href="#m6b1ad9c71a" x="57.6" y="104.927748" style="stroke: #000000; stroke-width: 0.8"/>
      </g>
     </g>
     <g id="text_9">
      <!-- 90 -->
      <g transform="translate(37.875 108.726967)scale(0.1 -0.1)">
       <defs>
        <path id="DejaVuSans-39" d="M 703 97 
L 703 672 
Q 941 559 1184 500 
Q 1428 441 1663 441 
Q 2288 441 2617 861 
Q 2947 1281 2994 2138 
Q 2813 1869 2534 1725 
Q 2256 1581 1919 1581 
Q 1219 1581 811 2004 
Q 403 2428 403 3163 
Q 403 3881 828 4315 
Q 1253 4750 1959 4750 
Q 2769 4750 3195 4129 
Q 3622 3509 3622 2328 
Q 3622 1225 3098 567 
Q 2575 -91 1691 -91 
Q 1453 -91 1209 -44 
Q 966 3 703 97 
z
M 1959 2075 
Q 2384 2075 2632 2365 
Q 2881 2656 2881 3163 
Q 2881 3666 2632 3958 
Q 2384 4250 1959 4250 
Q 1534 4250 1286 3958 
Q 1038 3666 1038 3163 
Q 1038 2656 1286 2365 
Q 1534 2075 1959 2075 
z
" transform="scale(0.015625)"/>
       </defs>
       <use xlink:href="#DejaVuSans-39"/>
       <use xlink:href="#DejaVuSans-30" x="63.623047"/>
      </g>
     </g>
    </g>
    <g id="ytick_3">
     <g id="line2d_10">
      <g>
       <use xlink:href="#m6b1ad9c71a" x="57.6" y="71.554869" style="stroke: #000000; stroke-width: 0.8"/>
      </g>
     </g>
     <g id="text_10">
      <!-- 100 -->
      <g transform="translate(31.5125 75.354088)scale(0.1 -0.1)">
       <use xlink:href="#DejaVuSans-31"/>
       <use xlink:href="#DejaVuSans-30" x="63.623047"/>
       <use xlink:href="#DejaVuSans-30" x="127.246094"/>
      </g>
     </g>
    </g>
   </g>
   <g id="line2d_11">
    <path d="M 73.832727 70.887412 
L 73.848437 70.887412 
L 73.974111 66.993909 
L 73.995057 66.993909 
L 74.115495 65.325265 
L 74.141678 65.325265 
L 74.25688 62.544192 
L 74.576303 62.544192 
L 74.691505 61.431763 
L 75.178494 61.431763 
L 75.293696 60.319333 
L 76.105346 60.319333 
L 76.220548 58.650689 
L 76.361932 58.650689 
L 76.477134 57.53826 
L 77.079325 57.53826 
L 77.194527 55.869616 
L 78.79688 55.869616 
L 78.912082 54.200972 
L 81.949222 54.200972 
L 82.064424 53.088543 
L 109.293954 53.088543 
L 109.409156 51.976114 
L 133.140738 51.976114 
L 133.25594 50.863684 
L 258.579853 50.863684 
L 258.695054 49.751255 
L 330.099261 49.751255 
L 330.214462 48.082611 
L 371.603348 48.082611 
L 371.71855 46.970182 
L 398.487273 46.970182 
L 398.487273 46.970182 
" clip-path="url(#pa48591818f)" style="fill: none; stroke: #1f77b4; stroke-width: 1.5; stroke-linecap: square"/>
   </g>
   <g id="line2d_12">
    <path d="M 73.832727 71.554869 
L 73.953166 79.619982 
L 73.968875 79.619982 
L 74.084077 85.460236 
L 74.099786 85.460236 
L 74.188806 83.680349 
L 74.194042 87.017637 
L 74.199279 87.017637 
L 74.319717 87.017637 
L 74.440155 93.692212 
L 74.482047 93.692212 
L 74.602485 100.366788 
L 74.612958 100.366788 
L 74.63914 103.704076 
L 74.722923 101.924189 
L 75.220386 101.924189 
L 75.335588 100.81176 
L 75.707376 100.81176 
L 75.822578 104.149048 
L 76.105346 104.149048 
L 76.220548 102.480404 
L 77.100271 102.480404 
L 77.215473 101.367975 
L 78.79688 101.367975 
L 78.912082 99.699331 
L 79.058702 99.699331 
L 79.173904 103.036619 
L 79.461909 103.036619 
L 79.577111 102.369161 
L 79.875588 102.369161 
L 79.99079 105.706449 
L 81.566961 105.706449 
L 81.682163 109.043737 
L 84.94447 109.043737 
L 85.059672 112.381025 
L 92.809615 112.381025 
L 92.924817 111.546703 
L 99.742672 111.546703 
L 99.857874 110.879245 
L 105.429455 110.879245 
L 105.544657 114.216533 
L 136.434464 114.216533 
L 136.549666 113.104104 
L 154.934835 113.104104 
L 155.050037 111.991674 
L 161.307593 111.991674 
L 161.422795 115.328962 
L 173.215276 115.328962 
L 173.330478 114.661505 
L 178.891585 114.661505 
L 179.006787 117.998793 
L 179.127226 117.998793 
L 179.242427 117.331335 
L 200.837539 117.331335 
L 200.952741 120.668623 
L 248.216922 120.668623 
L 248.332124 119.556194 
L 249.526034 119.556194 
L 249.641236 122.893482 
L 330.099261 122.893482 
L 330.214462 121.224838 
L 365.654743 121.224838 
L 365.769945 124.562126 
L 376.970708 124.562126 
L 377.085909 123.449696 
L 398.487273 123.449696 
L 398.487273 123.449696 
" clip-path="url(#pa48591818f)" style="fill: none; stroke: #ff7f0e; stroke-width: 1.5; stroke-linecap: square"/>
   </g>
   <g id="line2d_13">
    <path d="M 73.832727 71.554869 
L 73.8432 71.554869 
L 73.979348 88.797524 
L 73.995057 88.797524 
L 74.089313 87.12888 
L 74.09455 90.466167 
L 74.099786 90.466167 
L 74.220224 99.365602 
L 74.267352 99.365602 
L 74.319717 102.70289 
L 74.377318 101.59046 
L 74.393027 101.59046 
L 74.424446 100.756139 
L 74.429682 104.093426 
L 74.471574 104.093426 
L 74.482047 110.768002 
L 74.586776 107.708822 
L 74.612958 107.708822 
L 74.63914 106.596392 
L 74.649613 113.270968 
L 74.696741 113.270968 
L 75.178494 113.270968 
L 75.220386 112.158539 
L 75.225622 115.495827 
L 75.277987 115.495827 
L 75.36177 115.495827 
L 75.476972 118.833115 
L 76.361932 118.833115 
L 76.440478 117.720685 
L 76.445715 121.057973 
L 76.461424 121.057973 
L 77.079325 121.057973 
L 77.100271 119.389329 
L 77.105507 122.726617 
L 77.184054 122.726617 
L 78.79688 122.726617 
L 78.912082 126.063905 
L 79.461909 126.063905 
L 79.577111 129.401193 
L 81.566961 129.401193 
L 81.682163 128.566871 
L 81.949222 128.566871 
L 82.064424 127.454442 
L 82.315773 127.454442 
L 82.430975 130.79173 
L 83.122186 130.79173 
L 83.237388 134.129018 
L 84.94447 134.129018 
L 85.059672 133.016588 
L 92.809615 133.016588 
L 92.924817 136.353876 
L 99.742672 136.353876 
L 99.857874 139.691164 
L 109.293954 139.691164 
L 109.409156 138.578735 
L 118.070241 138.578735 
L 118.185443 141.916023 
L 133.140738 141.916023 
L 133.25594 140.803593 
L 136.434464 140.803593 
L 136.549666 144.140881 
L 154.934835 144.140881 
L 155.050037 147.478169 
L 173.215276 147.478169 
L 173.330478 150.815457 
L 178.891585 150.815457 
L 179.006787 149.981135 
L 179.127226 149.981135 
L 179.242427 153.318423 
L 200.837539 153.318423 
L 200.952741 152.484101 
L 248.216922 152.484101 
L 248.332124 155.821389 
L 258.579853 155.821389 
L 258.695054 154.70896 
L 371.603348 154.70896 
L 371.71855 153.59653 
L 376.970708 153.59653 
L 377.085909 156.933818 
L 398.487273 156.933818 
L 398.487273 156.933818 
" clip-path="url(#pa48591818f)" style="fill: none; stroke: #2ca02c; stroke-width: 1.5; stroke-linecap: square"/>
   </g>
   <g id="line2d_14">
    <path d="M 73.832727 74.892157 
L 73.8432 74.892157 
L 73.979348 69.330011 
L 74.089313 69.330011 
L 74.204515 67.550124 
L 74.267352 67.550124 
L 74.382554 65.603373 
L 74.47681 65.603373 
L 74.592012 64.490943 
L 74.63914 64.490943 
L 74.754342 63.823486 
L 74.932381 63.823486 
L 75.047583 62.989164 
L 78.807353 62.989164 
L 78.922555 62.154842 
L 79.461909 62.154842 
L 79.577111 61.487384 
L 81.608853 61.487384 
L 81.724055 60.653062 
L 82.315773 60.653062 
L 82.430975 59.540633 
L 99.742672 59.540633 
L 99.857874 58.873175 
L 104.549732 58.873175 
L 104.664934 58.038853 
L 118.070241 58.038853 
L 118.185443 56.926424 
L 173.215276 56.926424 
L 173.330478 56.258966 
L 179.127226 56.258966 
L 179.242427 55.591509 
L 247.499528 55.591509 
L 247.61473 54.757187 
L 398.487273 54.757187 
L 398.487273 54.757187 
" clip-path="url(#pa48591818f)" style="fill: none; stroke: #d62728; stroke-width: 1.5; stroke-linecap: square"/>
   </g>
   <g id="line2d_15">
    <path d="M 73.832727 70.887412 
L 73.958402 70.887412 
L 74.063131 74.2247 
L 74.068367 73.390378 
L 74.089313 73.390378 
L 74.204515 76.727666 
L 74.267352 76.727666 
L 74.319717 80.064954 
L 74.377318 78.952524 
L 74.393027 78.952524 
L 74.47681 78.118202 
L 74.482047 81.45549 
L 74.49252 80.621168 
L 74.529175 80.621168 
L 74.649613 78.39631 
L 78.79688 78.39631 
L 78.912082 81.733597 
L 81.566961 81.733597 
L 81.682163 80.899275 
L 82.315773 80.899275 
L 82.430975 84.236563 
L 84.94447 84.236563 
L 85.059672 83.124134 
L 108.717944 83.124134 
L 108.833146 82.289812 
L 118.070241 82.289812 
L 118.185443 85.6271 
L 178.891585 85.6271 
L 179.006787 84.792778 
L 200.837539 84.792778 
L 200.952741 83.958456 
L 398.487273 83.958456 
L 398.487273 83.958456 
" clip-path="url(#pa48591818f)" style="fill: none; stroke: #9467bd; stroke-width: 1.5; stroke-linecap: square"/>
   </g>
   <g id="line2d_16">
    <path d="M 73.832727 74.892157 
L 73.869382 74.892157 
L 73.874619 73.779728 
L 73.937456 79.898089 
L 73.995057 86.572665 
L 74.052658 85.738343 
L 74.146914 85.738343 
L 74.157387 84.625914 
L 74.162624 87.963202 
L 74.246407 87.963202 
L 74.424446 87.963202 
L 74.544884 94.637777 
L 74.576303 94.637777 
L 74.644377 93.525348 
L 74.649613 96.862636 
L 74.675795 96.862636 
L 75.178494 96.862636 
L 75.220386 95.750207 
L 75.225622 99.087495 
L 75.277987 99.087495 
L 75.36177 99.087495 
L 75.476972 102.424782 
L 76.361932 102.424782 
L 76.440478 101.312353 
L 76.445715 104.649641 
L 76.461424 104.649641 
L 77.100271 104.649641 
L 77.215473 107.986929 
L 81.949222 107.986929 
L 82.064424 106.8745 
L 83.122186 106.8745 
L 83.237388 110.211788 
L 92.809615 110.211788 
L 92.924817 113.549075 
L 108.717944 113.549075 
L 108.833146 116.886363 
L 109.293954 116.886363 
L 109.409156 115.773934 
L 133.140738 115.773934 
L 133.25594 114.661505 
L 136.434464 114.661505 
L 136.549666 117.998793 
L 154.934835 117.998793 
L 155.050037 121.336081 
L 248.216922 121.336081 
L 248.332124 124.673368 
L 258.579853 124.673368 
L 258.695054 123.560939 
L 371.603348 123.560939 
L 371.71855 122.44851 
L 376.970708 122.44851 
L 377.085909 125.785798 
L 398.487273 125.785798 
L 398.487273 125.785798 
" clip-path="url(#pa48591818f)" style="fill: none; stroke: #8c564b; stroke-width: 1.5; stroke-linecap: square"/>
   </g>
   <g id="line2d_17">
    <path d="M 73.832727 70.887412 
L 73.848437 70.887412 
L 73.958402 66.437695 
L 73.963638 69.774982 
L 74.063131 69.774982 
L 74.089313 68.940661 
L 74.09455 72.277948 
L 74.157387 72.277948 
L 74.267352 72.277948 
L 74.319717 75.615236 
L 74.377318 74.502807 
L 74.393027 74.502807 
L 74.47681 70.331197 
L 74.513466 72.834163 
L 74.529175 72.834163 
L 74.649613 70.609304 
L 78.79688 70.609304 
L 78.912082 73.946592 
L 81.566961 73.946592 
L 81.682163 73.11227 
L 82.315773 73.11227 
L 82.430975 76.449558 
L 84.94447 76.449558 
L 85.059672 75.337129 
L 92.809615 75.337129 
L 92.924817 74.502807 
L 108.717944 74.502807 
L 108.833146 73.668485 
L 118.070241 73.668485 
L 118.185443 77.005773 
L 120.154347 77.005773 
L 120.269549 73.668485 
L 178.891585 73.668485 
L 179.006787 72.834163 
L 200.837539 72.834163 
L 200.952741 71.999841 
L 398.487273 71.999841 
L 398.487273 71.999841 
" clip-path="url(#pa48591818f)" style="fill: none; stroke: #e377c2; stroke-width: 1.5; stroke-linecap: square"/>
   </g>
   <g id="line2d_18">
    <path d="M 73.832727 74.892157 
L 73.848437 74.892157 
L 73.958402 83.513484 
L 73.968875 82.401055 
L 73.995057 82.401055 
L 74.089313 89.075631 
L 74.110259 87.963202 
L 74.141678 87.963202 
L 74.157387 91.300489 
L 74.251643 89.79871 
L 74.267352 89.79871 
L 74.319717 88.686281 
L 74.324953 92.023568 
L 74.366845 91.189247 
L 74.393027 91.189247 
L 74.513466 100.088681 
L 74.529175 100.088681 
L 74.63914 106.763257 
L 74.649613 106.095799 
L 74.932381 106.095799 
L 75.047583 105.261477 
L 75.36177 105.261477 
L 75.476972 104.427155 
L 78.807353 104.427155 
L 78.922555 103.592833 
L 79.461909 103.592833 
L 79.577111 102.925376 
L 81.566961 102.925376 
L 81.608853 106.262664 
L 81.676927 105.428342 
L 82.315773 105.428342 
L 82.430975 104.315912 
L 83.122186 104.315912 
L 83.237388 103.48159 
L 84.94447 103.48159 
L 85.059672 106.818878 
L 92.809615 106.818878 
L 92.924817 110.156166 
L 99.742672 110.156166 
L 99.857874 109.488709 
L 104.549732 109.488709 
L 104.664934 108.654387 
L 108.717944 108.654387 
L 108.833146 111.991674 
L 118.070241 111.991674 
L 118.185443 110.879245 
L 120.154347 110.879245 
L 120.269549 114.216533 
L 173.215276 114.216533 
L 173.330478 113.549075 
L 178.891585 113.549075 
L 179.006787 116.886363 
L 179.127226 116.886363 
L 179.242427 116.218906 
L 200.837539 116.218906 
L 200.952741 119.556194 
L 247.499528 119.556194 
L 247.61473 118.721872 
L 398.487273 118.721872 
L 398.487273 118.721872 
" clip-path="url(#pa48591818f)" style="fill: none; stroke: #7f7f7f; stroke-width: 1.5; stroke-linecap: square"/>
   </g>
   <g id="line2d_19">
    <path d="M 73.832727 71.554869 
L 73.8432 71.554869 
L 73.869382 70.44244 
L 73.900801 79.619982 
L 73.91651 78.78566 
L 73.93222 78.78566 
L 73.995057 75.726479 
L 74.000294 79.063767 
L 74.036949 79.063767 
L 74.099786 79.063767 
L 74.141678 77.951338 
L 74.152151 84.625914 
L 74.188806 83.124134 
L 74.340663 83.124134 
L 74.393027 82.289812 
L 74.398264 85.6271 
L 74.440155 84.514671 
L 74.471574 84.514671 
L 74.482047 83.402241 
L 74.487283 86.739529 
L 74.571066 86.739529 
L 74.576303 86.739529 
L 74.63914 90.076817 
L 74.686268 88.29693 
L 74.932381 88.29693 
L 75.047583 87.462608 
L 75.178494 87.462608 
L 75.220386 90.799896 
L 75.28846 89.687467 
L 75.36177 89.687467 
L 75.476972 88.853145 
L 76.361932 88.853145 
L 76.440478 92.190433 
L 76.471897 91.078004 
L 77.079325 91.078004 
L 77.100271 94.415291 
L 77.189291 93.302862 
L 78.79688 93.302862 
L 78.807353 96.64015 
L 78.906845 95.805828 
L 79.461909 95.805828 
L 79.577111 95.138371 
L 81.566961 95.138371 
L 81.608853 98.475658 
L 81.676927 97.641336 
L 81.949222 97.641336 
L 82.064424 100.978624 
L 83.122186 100.978624 
L 83.237388 100.144302 
L 92.809615 100.144302 
L 92.924817 99.30998 
L 99.742672 99.30998 
L 99.857874 98.642523 
L 104.549732 98.642523 
L 104.664934 97.808201 
L 108.717944 97.808201 
L 108.833146 96.973879 
L 109.293954 96.973879 
L 109.409156 100.311167 
L 133.140738 100.311167 
L 133.25594 103.648455 
L 136.434464 103.648455 
L 136.549666 102.536025 
L 154.934835 102.536025 
L 155.050037 101.423596 
L 173.215276 101.423596 
L 173.330478 100.756139 
L 178.891585 100.756139 
L 179.006787 104.093426 
L 179.127226 104.093426 
L 179.242427 103.425969 
L 200.837539 103.425969 
L 200.952741 106.763257 
L 247.499528 106.763257 
L 247.61473 105.928935 
L 248.216922 105.928935 
L 248.332124 104.816505 
L 258.579853 104.816505 
L 258.695054 108.153793 
L 371.603348 108.153793 
L 371.71855 111.491081 
L 376.970708 111.491081 
L 377.085909 110.378652 
L 398.487273 110.378652 
L 398.487273 110.378652 
" clip-path="url(#pa48591818f)" style="fill: none; stroke: #bcbd22; stroke-width: 1.5; stroke-linecap: square"/>
   </g>
   <g id="line2d_20">
    <path d="M 73.832727 74.892157 
L 73.8432 74.892157 
L 73.895565 72.389191 
L 73.900801 75.726479 
L 73.953166 74.057835 
L 73.958402 74.057835 
L 73.995057 72.945406 
L 74.000294 76.282694 
L 74.057895 76.282694 
L 74.063131 76.282694 
L 74.157387 84.069699 
L 74.183569 83.235377 
L 74.304008 81.45549 
L 74.319717 81.45549 
L 74.424446 87.295744 
L 74.434919 86.183315 
L 74.471574 86.183315 
L 74.482047 83.958456 
L 74.534411 90.633032 
L 74.560594 90.633032 
L 74.576303 90.633032 
L 74.63914 97.307608 
L 74.696741 96.64015 
L 74.932381 96.64015 
L 75.047583 95.805828 
L 75.178494 95.805828 
L 75.293696 99.143116 
L 75.36177 99.143116 
L 75.476972 98.308794 
L 76.440478 98.308794 
L 76.55568 97.196365 
L 77.079325 97.196365 
L 77.194527 100.533653 
L 78.807353 100.533653 
L 78.922555 99.699331 
L 79.461909 99.699331 
L 79.577111 99.031873 
L 81.566961 99.031873 
L 81.608853 102.369161 
L 81.676927 101.534839 
L 82.315773 101.534839 
L 82.430975 100.42241 
L 83.122186 100.42241 
L 83.237388 99.588088 
L 84.94447 99.588088 
L 85.059672 102.925376 
L 99.742672 102.925376 
L 99.857874 102.257918 
L 104.549732 102.257918 
L 104.664934 101.423596 
L 108.717944 101.423596 
L 108.833146 104.760884 
L 118.070241 104.760884 
L 118.185443 103.648455 
L 173.215276 103.648455 
L 173.330478 102.980997 
L 178.891585 102.980997 
L 179.006787 106.318285 
L 179.127226 106.318285 
L 179.242427 105.650827 
L 200.837539 105.650827 
L 200.952741 108.988115 
L 247.499528 108.988115 
L 247.61473 108.153793 
L 398.487273 108.153793 
L 398.487273 108.153793 
" clip-path="url(#pa48591818f)" style="fill: none; stroke: #17becf; stroke-width: 1.5; stroke-linecap: square"/>
   </g>
   <g id="line2d_21">
    <path d="M 73.832727 70.887412 
L 73.869382 70.887412 
L 73.93222 76.727666 
L 73.984584 73.668485 
L 73.995057 73.668485 
L 74.110259 77.005773 
L 74.146914 77.005773 
L 74.157387 80.343061 
L 74.25688 79.508739 
L 74.424446 79.508739 
L 74.544884 77.28388 
L 74.576303 77.28388 
L 74.644377 80.621168 
L 74.686268 79.508739 
L 75.178494 79.508739 
L 75.220386 82.846027 
L 75.28846 81.733597 
L 75.36177 81.733597 
L 75.476972 80.899275 
L 76.361932 80.899275 
L 76.440478 84.236563 
L 76.471897 83.124134 
L 77.100271 83.124134 
L 77.215473 82.011705 
L 81.949222 82.011705 
L 82.064424 85.348993 
L 83.122186 85.348993 
L 83.237388 84.514671 
L 92.809615 84.514671 
L 92.924817 83.680349 
L 108.717944 83.680349 
L 108.833146 82.846027 
L 109.293954 82.846027 
L 109.409156 86.183315 
L 133.140738 86.183315 
L 133.25594 89.520603 
L 136.434464 89.520603 
L 136.549666 88.408173 
L 154.934835 88.408173 
L 155.050037 87.295744 
L 248.216922 87.295744 
L 248.332124 86.183315 
L 258.579853 86.183315 
L 258.695054 89.520603 
L 371.603348 89.520603 
L 371.71855 92.85789 
L 376.970708 92.85789 
L 377.085909 91.745461 
L 398.487273 91.745461 
L 398.487273 91.745461 
" clip-path="url(#pa48591818f)" style="fill: none; stroke: #1f77b4; stroke-width: 1.5; stroke-linecap: square"/>
   </g>
   <g id="line2d_22">
    <path d="M 73.832727 70.887412 
L 73.848437 67.550124 
L 73.885092 74.2247 
L 73.937456 73.11227 
L 73.995057 68.662553 
L 74.052658 71.999841 
L 74.141678 71.999841 
L 74.188806 73.668485 
L 74.25688 70.331197 
L 74.340663 70.331197 
L 74.393027 73.668485 
L 74.450628 72.834163 
L 74.482047 72.834163 
L 74.597249 71.999841 
L 74.63914 71.999841 
L 74.754342 75.337129 
L 74.932381 75.337129 
L 75.047583 78.674417 
L 75.707376 78.674417 
L 75.822578 75.337129 
L 76.105346 75.337129 
L 76.220548 78.674417 
L 78.807353 78.674417 
L 78.922555 82.011705 
L 79.058702 82.011705 
L 79.173904 78.674417 
L 79.461909 78.674417 
L 79.577111 82.011705 
L 79.875588 82.011705 
L 79.99079 78.674417 
L 81.566961 78.674417 
L 81.608853 77.840095 
L 81.614089 81.177383 
L 81.661217 81.177383 
L 99.742672 81.177383 
L 99.857874 84.514671 
L 104.549732 84.514671 
L 104.664934 87.851959 
L 105.429455 87.851959 
L 105.544657 84.514671 
L 161.307593 84.514671 
L 161.422795 81.177383 
L 173.215276 81.177383 
L 173.330478 84.514671 
L 178.891585 84.514671 
L 179.006787 83.680349 
L 179.127226 83.680349 
L 179.242427 87.017637 
L 200.837539 87.017637 
L 200.952741 86.183315 
L 247.499528 86.183315 
L 247.61473 89.520603 
L 249.526034 89.520603 
L 249.641236 86.183315 
L 330.099261 86.183315 
L 330.214462 89.520603 
L 365.654743 89.520603 
L 365.769945 86.183315 
L 398.487273 86.183315 
L 398.487273 86.183315 
" clip-path="url(#pa48591818f)" style="fill: none; stroke: #ff7f0e; stroke-width: 1.5; stroke-linecap: square"/>
   </g>
   <g id="patch_3">
    <path d="M 57.6 162.432 
L 57.6 41.472 
" style="fill: none; stroke: #000000; stroke-width: 0.8; stroke-linejoin: miter; stroke-linecap: square"/>
   </g>
   <g id="patch_4">
    <path d="M 414.72 162.432 
L 414.72 41.472 
" style="fill: none; stroke: #000000; stroke-width: 0.8; stroke-linejoin: miter; stroke-linecap: square"/>
   </g>
   <g id="patch_5">
    <path d="M 57.6 162.432 
L 414.72 162.432 
" style="fill: none; stroke: #000000; stroke-width: 0.8; stroke-linejoin: miter; stroke-linecap: square"/>
   </g>
   <g id="patch_6">
    <path d="M 57.6 41.472 
L 414.72 41.472 
" style="fill: none; stroke: #000000; stroke-width: 0.8; stroke-linejoin: miter; stroke-linecap: square"/>
   </g>
   <g id="text_11">
    <!-- WSP -->
    <g transform="translate(361.832136 46.970182)scale(0.08 -0.08)">
     <defs>
      <path id="DejaVuSans-57" d="M 213 4666 
L 850 4666 
L 1831 722 
L 2809 4666 
L 3519 4666 
L 4500 722 
L 5478 4666 
L 6119 4666 
L 4947 0 
L 4153 0 
L 3169 4050 
L 2175 0 
L 1381 0 
L 213 4666 
z
" transform="scale(0.015625)"/>
      <path id="DejaVuSans-53" d="M 3425 4513 
L 3425 3897 
Q 3066 4069 2747 4153 
Q 2428 4238 2131 4238 
Q 1616 4238 1336 4038 
Q 1056 3838 1056 3469 
Q 1056 3159 1242 3001 
Q 1428 2844 1947 2747 
L 2328 2669 
Q 3034 2534 3370 2195 
Q 3706 1856 3706 1288 
Q 3706 609 3251 259 
Q 2797 -91 1919 -91 
Q 1588 -91 1214 -16 
Q 841 59 441 206 
L 441 856 
Q 825 641 1194 531 
Q 1563 422 1919 422 
Q 2459 422 2753 634 
Q 3047 847 3047 1241 
Q 3047 1584 2836 1778 
Q 2625 1972 2144 2069 
L 1759 2144 
Q 1053 2284 737 2584 
Q 422 2884 422 3419 
Q 422 4038 858 4394 
Q 1294 4750 2059 4750 
Q 2388 4750 2728 4690 
Q 3069 4631 3425 4513 
z
" transform="scale(0.015625)"/>
      <path id="DejaVuSans-50" d="M 1259 4147 
L 1259 2394 
L 2053 2394 
Q 2494 2394 2734 2622 
Q 2975 2850 2975 3272 
Q 2975 3691 2734 3919 
Q 2494 4147 2053 4147 
L 1259 4147 
z
M 628 4666 
L 2053 4666 
Q 2838 4666 3239 4311 
Q 3641 3956 3641 3272 
Q 3641 2581 3239 2228 
Q 2838 1875 2053 1875 
L 1259 1875 
L 1259 0 
L 628 0 
L 628 4666 
z
" transform="scale(0.015625)"/>
     </defs>
     <use xlink:href="#DejaVuSans-57"/>
     <use xlink:href="#DejaVuSans-53" x="98.876953"/>
     <use xlink:href="#DejaVuSans-50" x="162.353516"/>
    </g>
   </g>
   <g id="text_12">
    <!-- Iambic -->
    <g transform="translate(361.832136 123.449696)scale(0.08 -0.08)">
     <defs>
      <path id="DejaVuSans-49" d="M 628 4666 
L 1259 4666 
L 1259 0 
L 628 0 
L 628 4666 
z
" transform="scale(0.015625)"/>
      <path id="DejaVuSans-61" d="M 2194 1759 
Q 1497 1759 1228 1600 
Q 959 1441 959 1056 
Q 959 750 1161 570 
Q 1363 391 1709 391 
Q 2188 391 2477 730 
Q 2766 1069 2766 1631 
L 2766 1759 
L 2194 1759 
z
M 3341 1997 
L 3341 0 
L 2766 0 
L 2766 531 
Q 2569 213 2275 61 
Q 1981 -91 1556 -91 
Q 1019 -91 701 211 
Q 384 513 384 1019 
Q 384 1609 779 1909 
Q 1175 2209 1959 2209 
L 2766 2209 
L 2766 2266 
Q 2766 2663 2505 2880 
Q 2244 3097 1772 3097 
Q 1472 3097 1187 3025 
Q 903 2953 641 2809 
L 641 3341 
Q 956 3463 1253 3523 
Q 1550 3584 1831 3584 
Q 2591 3584 2966 3190 
Q 3341 2797 3341 1997 
z
" transform="scale(0.015625)"/>
      <path id="DejaVuSans-6d" d="M 3328 2828 
Q 3544 3216 3844 3400 
Q 4144 3584 4550 3584 
Q 5097 3584 5394 3201 
Q 5691 2819 5691 2113 
L 5691 0 
L 5113 0 
L 5113 2094 
Q 5113 2597 4934 2840 
Q 4756 3084 4391 3084 
Q 3944 3084 3684 2787 
Q 3425 2491 3425 1978 
L 3425 0 
L 2847 0 
L 2847 2094 
Q 2847 2600 2669 2842 
Q 2491 3084 2119 3084 
Q 1678 3084 1418 2786 
Q 1159 2488 1159 1978 
L 1159 0 
L 581 0 
L 581 3500 
L 1159 3500 
L 1159 2956 
Q 1356 3278 1631 3431 
Q 1906 3584 2284 3584 
Q 2666 3584 2933 3390 
Q 3200 3197 3328 2828 
z
" transform="scale(0.015625)"/>
      <path id="DejaVuSans-62" d="M 3116 1747 
Q 3116 2381 2855 2742 
Q 2594 3103 2138 3103 
Q 1681 3103 1420 2742 
Q 1159 2381 1159 1747 
Q 1159 1113 1420 752 
Q 1681 391 2138 391 
Q 2594 391 2855 752 
Q 3116 1113 3116 1747 
z
M 1159 2969 
Q 1341 3281 1617 3432 
Q 1894 3584 2278 3584 
Q 2916 3584 3314 3078 
Q 3713 2572 3713 1747 
Q 3713 922 3314 415 
Q 2916 -91 2278 -91 
Q 1894 -91 1617 61 
Q 1341 213 1159 525 
L 1159 0 
L 581 0 
L 581 4863 
L 1159 4863 
L 1159 2969 
z
" transform="scale(0.015625)"/>
      <path id="DejaVuSans-69" d="M 603 3500 
L 1178 3500 
L 1178 0 
L 603 0 
L 603 3500 
z
M 603 4863 
L 1178 4863 
L 1178 4134 
L 603 4134 
L 603 4863 
z
" transform="scale(0.015625)"/>
      <path id="DejaVuSans-63" d="M 3122 3366 
L 3122 2828 
Q 2878 2963 2633 3030 
Q 2388 3097 2138 3097 
Q 1578 3097 1268 2742 
Q 959 2388 959 1747 
Q 959 1106 1268 751 
Q 1578 397 2138 397 
Q 2388 397 2633 464 
Q 2878 531 3122 666 
L 3122 134 
Q 2881 22 2623 -34 
Q 2366 -91 2075 -91 
Q 1284 -91 818 406 
Q 353 903 353 1747 
Q 353 2603 823 3093 
Q 1294 3584 2113 3584 
Q 2378 3584 2631 3529 
Q 2884 3475 3122 3366 
z
" transform="scale(0.015625)"/>
     </defs>
     <use xlink:href="#DejaVuSans-49"/>
     <use xlink:href="#DejaVuSans-61" x="29.492188"/>
     <use xlink:href="#DejaVuSans-6d" x="90.771484"/>
     <use xlink:href="#DejaVuSans-62" x="188.183594"/>
     <use xlink:href="#DejaVuSans-69" x="251.660156"/>
     <use xlink:href="#DejaVuSans-63" x="279.443359"/>
    </g>
   </g>
   <g id="text_13">
    <!-- Parse -->
    <g transform="translate(361.832136 156.933818)scale(0.08 -0.08)">
     <defs>
      <path id="DejaVuSans-72" d="M 2631 2963 
Q 2534 3019 2420 3045 
Q 2306 3072 2169 3072 
Q 1681 3072 1420 2755 
Q 1159 2438 1159 1844 
L 1159 0 
L 581 0 
L 581 3500 
L 1159 3500 
L 1159 2956 
Q 1341 3275 1631 3429 
Q 1922 3584 2338 3584 
Q 2397 3584 2469 3576 
Q 2541 3569 2628 3553 
L 2631 2963 
z
" transform="scale(0.015625)"/>
      <path id="DejaVuSans-73" d="M 2834 3397 
L 2834 2853 
Q 2591 2978 2328 3040 
Q 2066 3103 1784 3103 
Q 1356 3103 1142 2972 
Q 928 2841 928 2578 
Q 928 2378 1081 2264 
Q 1234 2150 1697 2047 
L 1894 2003 
Q 2506 1872 2764 1633 
Q 3022 1394 3022 966 
Q 3022 478 2636 193 
Q 2250 -91 1575 -91 
Q 1294 -91 989 -36 
Q 684 19 347 128 
L 347 722 
Q 666 556 975 473 
Q 1284 391 1588 391 
Q 1994 391 2212 530 
Q 2431 669 2431 922 
Q 2431 1156 2273 1281 
Q 2116 1406 1581 1522 
L 1381 1569 
Q 847 1681 609 1914 
Q 372 2147 372 2553 
Q 372 3047 722 3315 
Q 1072 3584 1716 3584 
Q 2034 3584 2315 3537 
Q 2597 3491 2834 3397 
z
" transform="scale(0.015625)"/>
      <path id="DejaVuSans-65" d="M 3597 1894 
L 3597 1613 
L 953 1613 
Q 991 1019 1311 708 
Q 1631 397 2203 397 
Q 2534 397 2845 478 
Q 3156 559 3463 722 
L 3463 178 
Q 3153 47 2828 -22 
Q 2503 -91 2169 -91 
Q 1331 -91 842 396 
Q 353 884 353 1716 
Q 353 2575 817 3079 
Q 1281 3584 2069 3584 
Q 2775 3584 3186 3129 
Q 3597 2675 3597 1894 
z
M 3022 2063 
Q 3016 2534 2758 2815 
Q 2500 3097 2075 3097 
Q 1594 3097 1305 2825 
Q 1016 2553 972 2059 
L 3022 2063 
z
" transform="scale(0.015625)"/>
     </defs>
     <use xlink:href="#DejaVuSans-50"/>
     <use xlink:href="#DejaVuSans-61" x="55.802734"/>
     <use xlink:href="#DejaVuSans-72" x="117.082031"/>
     <use xlink:href="#DejaVuSans-73" x="158.195312"/>
     <use xlink:href="#DejaVuSans-65" x="210.294922"/>
    </g>
   </g>
   <g id="text_14">
    <!-- FootBin -->
    <g transform="translate(361.832136 54.757187)scale(0.08 -0.08)">
     <defs>
      <path id="DejaVuSans-46" d="M 628 4666 
L 3309 4666 
L 3309 4134 
L 1259 4134 
L 1259 2759 
L 3109 2759 
L 3109 2228 
L 1259 2228 
L 1259 0 
L 628 0 
L 628 4666 
z
" transform="scale(0.015625)"/>
      <path id="DejaVuSans-6f" d="M 1959 3097 
Q 1497 3097 1228 2736 
Q 959 2375 959 1747 
Q 959 1119 1226 758 
Q 1494 397 1959 397 
Q 2419 397 2687 759 
Q 2956 1122 2956 1747 
Q 2956 2369 2687 2733 
Q 2419 3097 1959 3097 
z
M 1959 3584 
Q 2709 3584 3137 3096 
Q 3566 2609 3566 1747 
Q 3566 888 3137 398 
Q 2709 -91 1959 -91 
Q 1206 -91 779 398 
Q 353 888 353 1747 
Q 353 2609 779 3096 
Q 1206 3584 1959 3584 
z
" transform="scale(0.015625)"/>
      <path id="DejaVuSans-74" d="M 1172 4494 
L 1172 3500 
L 2356 3500 
L 2356 3053 
L 1172 3053 
L 1172 1153 
Q 1172 725 1289 603 
Q 1406 481 1766 481 
L 2356 481 
L 2356 0 
L 1766 0 
Q 1100 0 847 248 
Q 594 497 594 1153 
L 594 3053 
L 172 3053 
L 172 3500 
L 594 3500 
L 594 4494 
L 1172 4494 
z
" transform="scale(0.015625)"/>
      <path id="DejaVuSans-42" d="M 1259 2228 
L 1259 519 
L 2272 519 
Q 2781 519 3026 730 
Q 3272 941 3272 1375 
Q 3272 1813 3026 2020 
Q 2781 2228 2272 2228 
L 1259 2228 
z
M 1259 4147 
L 1259 2741 
L 2194 2741 
Q 2656 2741 2882 2914 
Q 3109 3088 3109 3444 
Q 3109 3797 2882 3972 
Q 2656 4147 2194 4147 
L 1259 4147 
z
M 628 4666 
L 2241 4666 
Q 2963 4666 3353 4366 
Q 3744 4066 3744 3513 
Q 3744 3084 3544 2831 
Q 3344 2578 2956 2516 
Q 3422 2416 3680 2098 
Q 3938 1781 3938 1306 
Q 3938 681 3513 340 
Q 3088 0 2303 0 
L 628 0 
L 628 4666 
z
" transform="scale(0.015625)"/>
      <path id="DejaVuSans-6e" d="M 3513 2113 
L 3513 0 
L 2938 0 
L 2938 2094 
Q 2938 2591 2744 2837 
Q 2550 3084 2163 3084 
Q 1697 3084 1428 2787 
Q 1159 2491 1159 1978 
L 1159 0 
L 581 0 
L 581 3500 
L 1159 3500 
L 1159 2956 
Q 1366 3272 1645 3428 
Q 1925 3584 2291 3584 
Q 2894 3584 3203 3211 
Q 3513 2838 3513 2113 
z
" transform="scale(0.015625)"/>
     </defs>
     <use xlink:href="#DejaVuSans-46"/>
     <use xlink:href="#DejaVuSans-6f" x="53.894531"/>
     <use xlink:href="#DejaVuSans-6f" x="115.076172"/>
     <use xlink:href="#DejaVuSans-74" x="176.257812"/>
     <use xlink:href="#DejaVuSans-42" x="215.466797"/>
     <use xlink:href="#DejaVuSans-69" x="284.070312"/>
     <use xlink:href="#DejaVuSans-6e" x="311.853516"/>
    </g>
   </g>
   <g id="text_15">
    <!-- WFL -->
    <g transform="translate(361.832136 83.958456)scale(0.08 -0.08)">
     <defs>
      <path id="DejaVuSans-4c" d="M 628 4666 
L 1259 4666 
L 1259 531 
L 3531 531 
L 3531 0 
L 628 0 
L 628 4666 
z
" transform="scale(0.015625)"/>
     </defs>
     <use xlink:href="#DejaVuSans-57"/>
     <use xlink:href="#DejaVuSans-46" x="98.876953"/>
     <use xlink:href="#DejaVuSans-4c" x="156.396484"/>
    </g>
   </g>
   <g id="text_16">
    <!-- WFR -->
    <g transform="translate(361.832136 125.785798)scale(0.08 -0.08)">
     <defs>
      <path id="DejaVuSans-52" d="M 2841 2188 
Q 3044 2119 3236 1894 
Q 3428 1669 3622 1275 
L 4263 0 
L 3584 0 
L 2988 1197 
Q 2756 1666 2539 1819 
Q 2322 1972 1947 1972 
L 1259 1972 
L 1259 0 
L 628 0 
L 628 4666 
L 2053 4666 
Q 2853 4666 3247 4331 
Q 3641 3997 3641 3322 
Q 3641 2881 3436 2590 
Q 3231 2300 2841 2188 
z
M 1259 4147 
L 1259 2491 
L 2053 2491 
Q 2509 2491 2742 2702 
Q 2975 2913 2975 3322 
Q 2975 3731 2742 3939 
Q 2509 4147 2053 4147 
L 1259 4147 
z
" transform="scale(0.015625)"/>
     </defs>
     <use xlink:href="#DejaVuSans-57"/>
     <use xlink:href="#DejaVuSans-46" x="98.876953"/>
     <use xlink:href="#DejaVuSans-52" x="156.396484"/>
    </g>
   </g>
   <g id="text_17">
    <!-- Main-L -->
    <g transform="translate(361.832136 71.999841)scale(0.08 -0.08)">
     <defs>
      <path id="DejaVuSans-4d" d="M 628 4666 
L 1569 4666 
L 2759 1491 
L 3956 4666 
L 4897 4666 
L 4897 0 
L 4281 0 
L 4281 4097 
L 3078 897 
L 2444 897 
L 1241 4097 
L 1241 0 
L 628 0 
L 628 4666 
z
" transform="scale(0.015625)"/>
      <path id="DejaVuSans-2d" d="M 313 2009 
L 1997 2009 
L 1997 1497 
L 313 1497 
L 313 2009 
z
" transform="scale(0.015625)"/>
     </defs>
     <use xlink:href="#DejaVuSans-4d"/>
     <use xlink:href="#DejaVuSans-61" x="86.279297"/>
     <use xlink:href="#DejaVuSans-69" x="147.558594"/>
     <use xlink:href="#DejaVuSans-6e" x="175.341797"/>
     <use xlink:href="#DejaVuSans-2d" x="238.720703"/>
     <use xlink:href="#DejaVuSans-4c" x="274.804688"/>
    </g>
   </g>
   <g id="text_18">
    <!-- Main-R -->
    <g transform="translate(361.832136 118.721872)scale(0.08 -0.08)">
     <use xlink:href="#DejaVuSans-4d"/>
     <use xlink:href="#DejaVuSans-61" x="86.279297"/>
     <use xlink:href="#DejaVuSans-69" x="147.558594"/>
     <use xlink:href="#DejaVuSans-6e" x="175.341797"/>
     <use xlink:href="#DejaVuSans-2d" x="238.720703"/>
     <use xlink:href="#DejaVuSans-52" x="274.804688"/>
    </g>
   </g>
   <g id="text_19">
    <!-- AFL -->
    <g transform="translate(361.832136 110.378652)scale(0.08 -0.08)">
     <defs>
      <path id="DejaVuSans-41" d="M 2188 4044 
L 1331 1722 
L 3047 1722 
L 2188 4044 
z
M 1831 4666 
L 2547 4666 
L 4325 0 
L 3669 0 
L 3244 1197 
L 1141 1197 
L 716 0 
L 50 0 
L 1831 4666 
z
" transform="scale(0.015625)"/>
     </defs>
     <use xlink:href="#DejaVuSans-41"/>
     <use xlink:href="#DejaVuSans-46" x="68.408203"/>
     <use xlink:href="#DejaVuSans-4c" x="125.927734"/>
    </g>
   </g>
   <g id="text_20">
    <!-- AFR -->
    <g transform="translate(361.832136 108.153793)scale(0.08 -0.08)">
     <use xlink:href="#DejaVuSans-41"/>
     <use xlink:href="#DejaVuSans-46" x="68.408203"/>
     <use xlink:href="#DejaVuSans-52" x="125.927734"/>
    </g>
   </g>
   <g id="text_21">
    <!-- Nonfinal -->
    <g transform="translate(361.832136 91.745461)scale(0.08 -0.08)">
     <defs>
      <path id="DejaVuSans-4e" d="M 628 4666 
L 1478 4666 
L 3547 763 
L 3547 4666 
L 4159 4666 
L 4159 0 
L 3309 0 
L 1241 3903 
L 1241 0 
L 628 0 
L 628 4666 
z
" transform="scale(0.015625)"/>
      <path id="DejaVuSans-66" d="M 2375 4863 
L 2375 4384 
L 1825 4384 
Q 1516 4384 1395 4259 
Q 1275 4134 1275 3809 
L 1275 3500 
L 2222 3500 
L 2222 3053 
L 1275 3053 
L 1275 0 
L 697 0 
L 697 3053 
L 147 3053 
L 147 3500 
L 697 3500 
L 697 3744 
Q 697 4328 969 4595 
Q 1241 4863 1831 4863 
L 2375 4863 
z
" transform="scale(0.015625)"/>
      <path id="DejaVuSans-6c" d="M 603 4863 
L 1178 4863 
L 1178 0 
L 603 0 
L 603 4863 
z
" transform="scale(0.015625)"/>
     </defs>
     <use xlink:href="#DejaVuSans-4e"/>
     <use xlink:href="#DejaVuSans-6f" x="74.804688"/>
     <use xlink:href="#DejaVuSans-6e" x="135.986328"/>
     <use xlink:href="#DejaVuSans-66" x="199.365234"/>
     <use xlink:href="#DejaVuSans-69" x="234.570312"/>
     <use xlink:href="#DejaVuSans-6e" x="262.353516"/>
     <use xlink:href="#DejaVuSans-61" x="325.732422"/>
     <use xlink:href="#DejaVuSans-6c" x="387.011719"/>
    </g>
   </g>
   <g id="text_22">
    <!-- Trochaic -->
    <g transform="translate(361.832136 86.183315)scale(0.08 -0.08)">
     <defs>
      <path id="DejaVuSans-54" d="M -19 4666 
L 3928 4666 
L 3928 4134 
L 2272 4134 
L 2272 0 
L 1638 0 
L 1638 4134 
L -19 4134 
L -19 4666 
z
" transform="scale(0.015625)"/>
      <path id="DejaVuSans-68" d="M 3513 2113 
L 3513 0 
L 2938 0 
L 2938 2094 
Q 2938 2591 2744 2837 
Q 2550 3084 2163 3084 
Q 1697 3084 1428 2787 
Q 1159 2491 1159 1978 
L 1159 0 
L 581 0 
L 581 4863 
L 1159 4863 
L 1159 2956 
Q 1366 3272 1645 3428 
Q 1925 3584 2291 3584 
Q 2894 3584 3203 3211 
Q 3513 2838 3513 2113 
z
" transform="scale(0.015625)"/>
     </defs>
     <use xlink:href="#DejaVuSans-54"/>
     <use xlink:href="#DejaVuSans-72" x="46.333984"/>
     <use xlink:href="#DejaVuSans-6f" x="85.197266"/>
     <use xlink:href="#DejaVuSans-63" x="146.378906"/>
     <use xlink:href="#DejaVuSans-68" x="201.359375"/>
     <use xlink:href="#DejaVuSans-61" x="264.738281"/>
     <use xlink:href="#DejaVuSans-69" x="326.017578"/>
     <use xlink:href="#DejaVuSans-63" x="353.800781"/>
    </g>
   </g>
  </g>
  <g id="axes_2">
   <g id="patch_7">
    <path d="M 57.6 307.584 
L 414.72 307.584 
L 414.72 186.624 
L 57.6 186.624 
z
" style="fill: #ffffff"/>
   </g>
   <g id="matplotlib.axis_3">
    <g id="xtick_8">
     <g id="line2d_23">
      <g>
       <use xlink:href="#m5afedb63ec" x="69.824646" y="307.584" style="stroke: #000000; stroke-width: 0.8"/>
      </g>
     </g>
     <g id="text_23">
      <!-- 0 -->
      <g transform="translate(66.643396 322.182437)scale(0.1 -0.1)">
       <use xlink:href="#DejaVuSans-30"/>
      </g>
     </g>
    </g>
    <g id="xtick_9">
     <g id="line2d_24">
      <g>
       <use xlink:href="#m5afedb63ec" x="109.905455" y="307.584" style="stroke: #000000; stroke-width: 0.8"/>
      </g>
     </g>
     <g id="text_24">
      <!-- 10 -->
      <g transform="translate(103.542955 322.182437)scale(0.1 -0.1)">
       <use xlink:href="#DejaVuSans-31"/>
       <use xlink:href="#DejaVuSans-30" x="63.623047"/>
      </g>
     </g>
    </g>
    <g id="xtick_10">
     <g id="line2d_25">
      <g>
       <use xlink:href="#m5afedb63ec" x="149.986263" y="307.584" style="stroke: #000000; stroke-width: 0.8"/>
      </g>
     </g>
     <g id="text_25">
      <!-- 20 -->
      <g transform="translate(143.623763 322.182437)scale(0.1 -0.1)">
       <use xlink:href="#DejaVuSans-32"/>
       <use xlink:href="#DejaVuSans-30" x="63.623047"/>
      </g>
     </g>
    </g>
    <g id="xtick_11">
     <g id="line2d_26">
      <g>
       <use xlink:href="#m5afedb63ec" x="190.067071" y="307.584" style="stroke: #000000; stroke-width: 0.8"/>
      </g>
     </g>
     <g id="text_26">
      <!-- 30 -->
      <g transform="translate(183.704571 322.182437)scale(0.1 -0.1)">
       <use xlink:href="#DejaVuSans-33"/>
       <use xlink:href="#DejaVuSans-30" x="63.623047"/>
      </g>
     </g>
    </g>
    <g id="xtick_12">
     <g id="line2d_27">
      <g>
       <use xlink:href="#m5afedb63ec" x="230.147879" y="307.584" style="stroke: #000000; stroke-width: 0.8"/>
      </g>
     </g>
     <g id="text_27">
      <!-- 40 -->
      <g transform="translate(223.785379 322.182437)scale(0.1 -0.1)">
       <use xlink:href="#DejaVuSans-34"/>
       <use xlink:href="#DejaVuSans-30" x="63.623047"/>
      </g>
     </g>
    </g>
    <g id="xtick_13">
     <g id="line2d_28">
      <g>
       <use xlink:href="#m5afedb63ec" x="270.228687" y="307.584" style="stroke: #000000; stroke-width: 0.8"/>
      </g>
     </g>
     <g id="text_28">
      <!-- 50 -->
      <g transform="translate(263.866187 322.182437)scale(0.1 -0.1)">
       <use xlink:href="#DejaVuSans-35"/>
       <use xlink:href="#DejaVuSans-30" x="63.623047"/>
      </g>
     </g>
    </g>
    <g id="xtick_14">
     <g id="line2d_29">
      <g>
       <use xlink:href="#m5afedb63ec" x="310.309495" y="307.584" style="stroke: #000000; stroke-width: 0.8"/>
      </g>
     </g>
     <g id="text_29">
      <!-- 60 -->
      <g transform="translate(303.946995 322.182437)scale(0.1 -0.1)">
       <use xlink:href="#DejaVuSans-36"/>
       <use xlink:href="#DejaVuSans-30" x="63.623047"/>
      </g>
     </g>
    </g>
    <g id="xtick_15">
     <g id="line2d_30">
      <g>
       <use xlink:href="#m5afedb63ec" x="350.390303" y="307.584" style="stroke: #000000; stroke-width: 0.8"/>
      </g>
     </g>
     <g id="text_30">
      <!-- 70 -->
      <g transform="translate(344.027803 322.182437)scale(0.1 -0.1)">
       <defs>
        <path id="DejaVuSans-37" d="M 525 4666 
L 3525 4666 
L 3525 4397 
L 1831 0 
L 1172 0 
L 2766 4134 
L 525 4134 
L 525 4666 
z
" transform="scale(0.015625)"/>
       </defs>
       <use xlink:href="#DejaVuSans-37"/>
       <use xlink:href="#DejaVuSans-30" x="63.623047"/>
      </g>
     </g>
    </g>
    <g id="xtick_16">
     <g id="line2d_31">
      <g>
       <use xlink:href="#m5afedb63ec" x="390.471111" y="307.584" style="stroke: #000000; stroke-width: 0.8"/>
      </g>
     </g>
     <g id="text_31">
      <!-- 80 -->
      <g transform="translate(384.108611 322.182437)scale(0.1 -0.1)">
       <use xlink:href="#DejaVuSans-38"/>
       <use xlink:href="#DejaVuSans-30" x="63.623047"/>
      </g>
     </g>
    </g>
   </g>
   <g id="matplotlib.axis_4">
    <g id="ytick_4">
     <g id="line2d_32">
      <g>
       <use xlink:href="#m6b1ad9c71a" x="57.6" y="302.09387" style="stroke: #000000; stroke-width: 0.8"/>
      </g>
     </g>
     <g id="text_32">
      <!-- 0 -->
      <g transform="translate(44.2375 305.893089)scale(0.1 -0.1)">
       <use xlink:href="#DejaVuSans-30"/>
      </g>
     </g>
    </g>
    <g id="ytick_5">
     <g id="line2d_33">
      <g>
       <use xlink:href="#m6b1ad9c71a" x="57.6" y="261.834795" style="stroke: #000000; stroke-width: 0.8"/>
      </g>
     </g>
     <g id="text_33">
      <!-- 5000 -->
      <g transform="translate(25.15 265.634014)scale(0.1 -0.1)">
       <use xlink:href="#DejaVuSans-35"/>
       <use xlink:href="#DejaVuSans-30" x="63.623047"/>
       <use xlink:href="#DejaVuSans-30" x="127.246094"/>
       <use xlink:href="#DejaVuSans-30" x="190.869141"/>
      </g>
     </g>
    </g>
    <g id="ytick_6">
     <g id="line2d_34">
      <g>
       <use xlink:href="#m6b1ad9c71a" x="57.6" y="221.575721" style="stroke: #000000; stroke-width: 0.8"/>
      </g>
     </g>
     <g id="text_34">
      <!-- 10000 -->
      <g transform="translate(18.7875 225.37494)scale(0.1 -0.1)">
       <use xlink:href="#DejaVuSans-31"/>
       <use xlink:href="#DejaVuSans-30" x="63.623047"/>
       <use xlink:href="#DejaVuSans-30" x="127.246094"/>
       <use xlink:href="#DejaVuSans-30" x="190.869141"/>
       <use xlink:href="#DejaVuSans-30" x="254.492188"/>
      </g>
     </g>
    </g>
   </g>
   <g id="line2d_35">
    <path d="M 73.832727 302.085818 
L 77.840808 302.077766 
L 81.848889 302.085818 
L 85.85697 302.061663 
L 89.865051 302.085818 
L 93.873131 302.085818 
L 97.881212 302.069715 
L 101.889293 302.085818 
L 105.897374 302.069715 
L 109.905455 302.069715 
L 113.913535 302.085818 
L 117.921616 302.061663 
L 121.929697 302.077766 
L 125.937778 302.085818 
L 129.945859 302.061663 
L 133.953939 301.989196 
L 137.96202 302.053611 
L 141.970101 302.077766 
L 145.978182 302.029455 
L 149.986263 302.085818 
L 153.994343 302.077766 
L 158.002424 302.053611 
L 162.010505 302.085818 
L 166.018586 301.973093 
L 170.026667 302.013352 
L 174.034747 302.061663 
L 178.042828 302.013352 
L 182.050909 302.053611 
L 186.05899 302.085818 
L 190.067071 302.021404 
L 194.075152 302.085818 
L 198.083232 302.085818 
L 202.091313 302.021404 
L 206.099394 302.021404 
L 210.107475 302.037507 
L 214.115556 302.053611 
L 218.123636 302.085818 
L 222.131717 301.65102 
L 226.139798 301.715435 
L 230.147879 302.029455 
L 234.15596 301.876471 
L 238.16404 301.56245 
L 242.172121 301.481932 
L 246.180202 301.699331 
L 250.188283 301.973093 
L 254.196364 301.111549 
L 258.204444 302.061663 
L 262.212525 299.485082 
L 266.220606 302.077766 
L 270.228687 301.707383 
L 274.236768 301.47388 
L 278.244848 301.457777 
L 282.252929 299.493134 
L 286.26101 302.029455 
L 290.269091 301.570502 
L 294.277172 301.530243 
L 298.285253 300.85389 
L 302.293333 299.291838 
L 306.301414 290.000044 
L 310.309495 291.433267 
L 314.317576 294.702304 
L 318.325657 300.741165 
L 322.333737 297.03733 
L 326.341818 301.20817 
L 330.349899 288.599028 
L 334.35798 298.889248 
L 338.366061 282.125369 
L 342.374141 297.029278 
L 346.382222 273.646808 
L 350.390303 292.294811 
L 354.398384 283.784043 
L 358.406465 293.365703 
L 362.414545 301.731538 
L 366.422626 268.711045 
L 370.430707 230.344147 
L 374.438788 300.990771 
L 378.446869 300.080916 
L 382.454949 288.172282 
L 386.46303 192.122182 
L 390.471111 247.422047 
L 394.479192 292.947008 
L 398.487273 293.84076 
" clip-path="url(#p8e648a660a)" style="fill: none; stroke: #1f77b4; stroke-width: 1.5; stroke-linecap: square"/>
   </g>
   <g id="patch_8">
    <path d="M 57.6 307.584 
L 57.6 186.624 
" style="fill: none; stroke: #000000; stroke-width: 0.8; stroke-linejoin: miter; stroke-linecap: square"/>
   </g>
   <g id="patch_9">
    <path d="M 414.72 307.584 
L 414.72 186.624 
" style="fill: none; stroke: #000000; stroke-width: 0.8; stroke-linejoin: miter; stroke-linecap: square"/>
   </g>
   <g id="patch_10">
    <path d="M 57.6 307.584 
L 414.72 307.584 
" style="fill: none; stroke: #000000; stroke-width: 0.8; stroke-linejoin: miter; stroke-linecap: square"/>
   </g>
   <g id="patch_11">
    <path d="M 57.6 186.624 
L 414.72 186.624 
" style="fill: none; stroke: #000000; stroke-width: 0.8; stroke-linejoin: miter; stroke-linecap: square"/>
   </g>
  </g>
 </g>
 <defs>
  <clipPath id="pa48591818f">
   <rect x="57.6" y="41.472" width="357.12" height="120.96"/>
  </clipPath>
  <clipPath id="p8e648a660a">
   <rect x="57.6" y="186.624" width="357.12" height="120.96"/>
  </clipPath>
 </defs>
</svg>
