<?xml version="1.0" encoding="utf-8" standalone="no"?>
<!DOCTYPE svg PUBLIC "-//W3C//DTD SVG 1.1//EN"
  "http://www.w3.org/Graphics/SVG/1.1/DTD/svg11.dtd">
<svg xmlns:xlink="http://www.w3.org/1999/xlink" width="460.8pt" height="345.6pt" viewBox="0 0 460.8 345.6" xmlns="http://www.w3.org/2000/svg" version="1.1">
 <metadata>
  <rdf:RDF xmlns:dc="http://purl.org/dc/elements/1.1/" xmlns:cc="http://creativecommons.org/ns#" xmlns:rdf="http://www.w3.org/1999/02/22-rdf-syntax-ns#">
   <cc:Work>
    <dc:type rdf:resource="http://purl.org/dc/dcmitype/StillImage"/>
    <dc:date>2022-05-13T17:26:44.143147</dc:date>
    <dc:format>image/svg+xml</dc:format>
    <dc:creator>
     <cc:Agent>
      <dc:title>Matplotlib v3.5.1, https://matplotlib.org/</dc:title>
     </cc:Agent>
    </dc:creator>
   </cc:Work>
  </rdf:RDF>
 </metadata>
 <defs>
  <style type="text/css">*{stroke-linejoin: round; stroke-linecap: butt}</style>
 </defs>
 <g id="figure_1">
  <g id="patch_1">
   <path d="M 0 345.6 
L 460.8 345.6 
L 460.8 0 
L 0 0 
z
" style="fill: #ffffff"/>
  </g>
  <g id="axes_1">
   <g id="patch_2">
    <path d="M 57.6 162.432 
L 414.72 162.432 
L 414.72 41.472 
L 57.6 41.472 
z
" style="fill: #ffffff"/>
   </g>
   <g id="matplotlib.axis_1">
    <g id="xtick_1">
     <g id="line2d_1">
      <defs>
       <path id="m46c6839ba0" d="M 0 0 
L 0 3.5 
" style="stroke: #000000; stroke-width: 0.8"/>
      </defs>
      <g>
       <use xlink:href="#m46c6839ba0" x="73.827491" y="162.432" style="stroke: #000000; stroke-width: 0.8"/>
      </g>
     </g>
     <g id="text_1">
      <!-- 0 -->
      <g transform="translate(70.646241 177.030437)scale(0.1 -0.1)">
       <defs>
        <path id="DejaVuSans-30" d="M 2034 4250 
Q 1547 4250 1301 3770 
Q 1056 3291 1056 2328 
Q 1056 1369 1301 889 
Q 1547 409 2034 409 
Q 2525 409 2770 889 
Q 3016 1369 3016 2328 
Q 3016 3291 2770 3770 
Q 2525 4250 2034 4250 
z
M 2034 4750 
Q 2819 4750 3233 4129 
Q 3647 3509 3647 2328 
Q 3647 1150 3233 529 
Q 2819 -91 2034 -91 
Q 1250 -91 836 529 
Q 422 1150 422 2328 
Q 422 3509 836 4129 
Q 1250 4750 2034 4750 
z
" transform="scale(0.015625)"/>
       </defs>
       <use xlink:href="#DejaVuSans-30"/>
      </g>
     </g>
    </g>
    <g id="xtick_2">
     <g id="line2d_2">
      <g>
       <use xlink:href="#m46c6839ba0" x="126.191972" y="162.432" style="stroke: #000000; stroke-width: 0.8"/>
      </g>
     </g>
     <g id="text_2">
      <!-- 10000 -->
      <g transform="translate(110.285722 177.030437)scale(0.1 -0.1)">
       <defs>
        <path id="DejaVuSans-31" d="M 794 531 
L 1825 531 
L 1825 4091 
L 703 3866 
L 703 4441 
L 1819 4666 
L 2450 4666 
L 2450 531 
L 3481 531 
L 3481 0 
L 794 0 
L 794 531 
z
" transform="scale(0.015625)"/>
       </defs>
       <use xlink:href="#DejaVuSans-31"/>
       <use xlink:href="#DejaVuSans-30" x="63.623047"/>
       <use xlink:href="#DejaVuSans-30" x="127.246094"/>
       <use xlink:href="#DejaVuSans-30" x="190.869141"/>
       <use xlink:href="#DejaVuSans-30" x="254.492188"/>
      </g>
     </g>
    </g>
    <g id="xtick_3">
     <g id="line2d_3">
      <g>
       <use xlink:href="#m46c6839ba0" x="178.556453" y="162.432" style="stroke: #000000; stroke-width: 0.8"/>
      </g>
     </g>
     <g id="text_3">
      <!-- 20000 -->
      <g transform="translate(162.650203 177.030437)scale(0.1 -0.1)">
       <defs>
        <path id="DejaVuSans-32" d="M 1228 531 
L 3431 531 
L 3431 0 
L 469 0 
L 469 531 
Q 828 903 1448 1529 
Q 2069 2156 2228 2338 
Q 2531 2678 2651 2914 
Q 2772 3150 2772 3378 
Q 2772 3750 2511 3984 
Q 2250 4219 1831 4219 
Q 1534 4219 1204 4116 
Q 875 4013 500 3803 
L 500 4441 
Q 881 4594 1212 4672 
Q 1544 4750 1819 4750 
Q 2544 4750 2975 4387 
Q 3406 4025 3406 3419 
Q 3406 3131 3298 2873 
Q 3191 2616 2906 2266 
Q 2828 2175 2409 1742 
Q 1991 1309 1228 531 
z
" transform="scale(0.015625)"/>
       </defs>
       <use xlink:href="#DejaVuSans-32"/>
       <use xlink:href="#DejaVuSans-30" x="63.623047"/>
       <use xlink:href="#DejaVuSans-30" x="127.246094"/>
       <use xlink:href="#DejaVuSans-30" x="190.869141"/>
       <use xlink:href="#DejaVuSans-30" x="254.492188"/>
      </g>
     </g>
    </g>
    <g id="xtick_4">
     <g id="line2d_4">
      <g>
       <use xlink:href="#m46c6839ba0" x="230.920934" y="162.432" style="stroke: #000000; stroke-width: 0.8"/>
      </g>
     </g>
     <g id="text_4">
      <!-- 30000 -->
      <g transform="translate(215.014684 177.030437)scale(0.1 -0.1)">
       <defs>
        <path id="DejaVuSans-33" d="M 2597 2516 
Q 3050 2419 3304 2112 
Q 3559 1806 3559 1356 
Q 3559 666 3084 287 
Q 2609 -91 1734 -91 
Q 1441 -91 1130 -33 
Q 819 25 488 141 
L 488 750 
Q 750 597 1062 519 
Q 1375 441 1716 441 
Q 2309 441 2620 675 
Q 2931 909 2931 1356 
Q 2931 1769 2642 2001 
Q 2353 2234 1838 2234 
L 1294 2234 
L 1294 2753 
L 1863 2753 
Q 2328 2753 2575 2939 
Q 2822 3125 2822 3475 
Q 2822 3834 2567 4026 
Q 2313 4219 1838 4219 
Q 1578 4219 1281 4162 
Q 984 4106 628 3988 
L 628 4550 
Q 988 4650 1302 4700 
Q 1616 4750 1894 4750 
Q 2613 4750 3031 4423 
Q 3450 4097 3450 3541 
Q 3450 3153 3228 2886 
Q 3006 2619 2597 2516 
z
" transform="scale(0.015625)"/>
       </defs>
       <use xlink:href="#DejaVuSans-33"/>
       <use xlink:href="#DejaVuSans-30" x="63.623047"/>
       <use xlink:href="#DejaVuSans-30" x="127.246094"/>
       <use xlink:href="#DejaVuSans-30" x="190.869141"/>
       <use xlink:href="#DejaVuSans-30" x="254.492188"/>
      </g>
     </g>
    </g>
    <g id="xtick_5">
     <g id="line2d_5">
      <g>
       <use xlink:href="#m46c6839ba0" x="283.285415" y="162.432" style="stroke: #000000; stroke-width: 0.8"/>
      </g>
     </g>
     <g id="text_5">
      <!-- 40000 -->
      <g transform="translate(267.379165 177.030437)scale(0.1 -0.1)">
       <defs>
        <path id="DejaVuSans-34" d="M 2419 4116 
L 825 1625 
L 2419 1625 
L 2419 4116 
z
M 2253 4666 
L 3047 4666 
L 3047 1625 
L 3713 1625 
L 3713 1100 
L 3047 1100 
L 3047 0 
L 2419 0 
L 2419 1100 
L 313 1100 
L 313 1709 
L 2253 4666 
z
" transform="scale(0.015625)"/>
       </defs>
       <use xlink:href="#DejaVuSans-34"/>
       <use xlink:href="#DejaVuSans-30" x="63.623047"/>
       <use xlink:href="#DejaVuSans-30" x="127.246094"/>
       <use xlink:href="#DejaVuSans-30" x="190.869141"/>
       <use xlink:href="#DejaVuSans-30" x="254.492188"/>
      </g>
     </g>
    </g>
    <g id="xtick_6">
     <g id="line2d_6">
      <g>
       <use xlink:href="#m46c6839ba0" x="335.649896" y="162.432" style="stroke: #000000; stroke-width: 0.8"/>
      </g>
     </g>
     <g id="text_6">
      <!-- 50000 -->
      <g transform="translate(319.743646 177.030437)scale(0.1 -0.1)">
       <defs>
        <path id="DejaVuSans-35" d="M 691 4666 
L 3169 4666 
L 3169 4134 
L 1269 4134 
L 1269 2991 
Q 1406 3038 1543 3061 
Q 1681 3084 1819 3084 
Q 2600 3084 3056 2656 
Q 3513 2228 3513 1497 
Q 3513 744 3044 326 
Q 2575 -91 1722 -91 
Q 1428 -91 1123 -41 
Q 819 9 494 109 
L 494 744 
Q 775 591 1075 516 
Q 1375 441 1709 441 
Q 2250 441 2565 725 
Q 2881 1009 2881 1497 
Q 2881 1984 2565 2268 
Q 2250 2553 1709 2553 
Q 1456 2553 1204 2497 
Q 953 2441 691 2322 
L 691 4666 
z
" transform="scale(0.015625)"/>
       </defs>
       <use xlink:href="#DejaVuSans-35"/>
       <use xlink:href="#DejaVuSans-30" x="63.623047"/>
       <use xlink:href="#DejaVuSans-30" x="127.246094"/>
       <use xlink:href="#DejaVuSans-30" x="190.869141"/>
       <use xlink:href="#DejaVuSans-30" x="254.492188"/>
      </g>
     </g>
    </g>
    <g id="xtick_7">
     <g id="line2d_7">
      <g>
       <use xlink:href="#m46c6839ba0" x="388.014377" y="162.432" style="stroke: #000000; stroke-width: 0.8"/>
      </g>
     </g>
     <g id="text_7">
      <!-- 60000 -->
      <g transform="translate(372.108127 177.030437)scale(0.1 -0.1)">
       <defs>
        <path id="DejaVuSans-36" d="M 2113 2584 
Q 1688 2584 1439 2293 
Q 1191 2003 1191 1497 
Q 1191 994 1439 701 
Q 1688 409 2113 409 
Q 2538 409 2786 701 
Q 3034 994 3034 1497 
Q 3034 2003 2786 2293 
Q 2538 2584 2113 2584 
z
M 3366 4563 
L 3366 3988 
Q 3128 4100 2886 4159 
Q 2644 4219 2406 4219 
Q 1781 4219 1451 3797 
Q 1122 3375 1075 2522 
Q 1259 2794 1537 2939 
Q 1816 3084 2150 3084 
Q 2853 3084 3261 2657 
Q 3669 2231 3669 1497 
Q 3669 778 3244 343 
Q 2819 -91 2113 -91 
Q 1303 -91 875 529 
Q 447 1150 447 2328 
Q 447 3434 972 4092 
Q 1497 4750 2381 4750 
Q 2619 4750 2861 4703 
Q 3103 4656 3366 4563 
z
" transform="scale(0.015625)"/>
       </defs>
       <use xlink:href="#DejaVuSans-36"/>
       <use xlink:href="#DejaVuSans-30" x="63.623047"/>
       <use xlink:href="#DejaVuSans-30" x="127.246094"/>
       <use xlink:href="#DejaVuSans-30" x="190.869141"/>
       <use xlink:href="#DejaVuSans-30" x="254.492188"/>
      </g>
     </g>
    </g>
   </g>
   <g id="matplotlib.axis_2">
    <g id="ytick_1">
     <g id="line2d_8">
      <defs>
       <path id="m9ceffc06ee" d="M 0 0 
L -3.5 0 
" style="stroke: #000000; stroke-width: 0.8"/>
      </defs>
      <g>
       <use xlink:href="#m9ceffc06ee" x="57.6" y="128.022632" style="stroke: #000000; stroke-width: 0.8"/>
      </g>
     </g>
     <g id="text_8">
      <!-- 60 -->
      <g transform="translate(37.875 131.821851)scale(0.1 -0.1)">
       <use xlink:href="#DejaVuSans-36"/>
       <use xlink:href="#DejaVuSans-30" x="63.623047"/>
      </g>
     </g>
    </g>
    <g id="ytick_2">
     <g id="line2d_9">
      <g>
       <use xlink:href="#m9ceffc06ee" x="57.6" y="92.32981" style="stroke: #000000; stroke-width: 0.8"/>
      </g>
     </g>
     <g id="text_9">
      <!-- 80 -->
      <g transform="translate(37.875 96.129029)scale(0.1 -0.1)">
       <defs>
        <path id="DejaVuSans-38" d="M 2034 2216 
Q 1584 2216 1326 1975 
Q 1069 1734 1069 1313 
Q 1069 891 1326 650 
Q 1584 409 2034 409 
Q 2484 409 2743 651 
Q 3003 894 3003 1313 
Q 3003 1734 2745 1975 
Q 2488 2216 2034 2216 
z
M 1403 2484 
Q 997 2584 770 2862 
Q 544 3141 544 3541 
Q 544 4100 942 4425 
Q 1341 4750 2034 4750 
Q 2731 4750 3128 4425 
Q 3525 4100 3525 3541 
Q 3525 3141 3298 2862 
Q 3072 2584 2669 2484 
Q 3125 2378 3379 2068 
Q 3634 1759 3634 1313 
Q 3634 634 3220 271 
Q 2806 -91 2034 -91 
Q 1263 -91 848 271 
Q 434 634 434 1313 
Q 434 1759 690 2068 
Q 947 2378 1403 2484 
z
M 1172 3481 
Q 1172 3119 1398 2916 
Q 1625 2713 2034 2713 
Q 2441 2713 2670 2916 
Q 2900 3119 2900 3481 
Q 2900 3844 2670 4047 
Q 2441 4250 2034 4250 
Q 1625 4250 1398 4047 
Q 1172 3844 1172 3481 
z
" transform="scale(0.015625)"/>
       </defs>
       <use xlink:href="#DejaVuSans-38"/>
       <use xlink:href="#DejaVuSans-30" x="63.623047"/>
      </g>
     </g>
    </g>
    <g id="ytick_3">
     <g id="line2d_10">
      <g>
       <use xlink:href="#m9ceffc06ee" x="57.6" y="56.636988" style="stroke: #000000; stroke-width: 0.8"/>
      </g>
     </g>
     <g id="text_10">
      <!-- 100 -->
      <g transform="translate(31.5125 60.436207)scale(0.1 -0.1)">
       <use xlink:href="#DejaVuSans-31"/>
       <use xlink:href="#DejaVuSans-30" x="63.623047"/>
       <use xlink:href="#DejaVuSans-30" x="127.246094"/>
      </g>
     </g>
    </g>
   </g>
   <g id="line2d_11">
    <path d="M 73.832727 56.636988 
L 73.837964 56.636988 
L 73.958402 60.741662 
L 73.974111 60.741662 
L 74.099786 57.856493 
L 74.194042 63.507856 
L 74.220224 62.704768 
L 74.24117 62.704768 
L 74.293535 62.347839 
L 74.361609 65.917122 
L 74.408737 65.917122 
L 74.424446 69.486404 
L 74.518702 66.898674 
L 74.560594 66.898674 
L 74.571066 67.790995 
L 74.681032 64.578641 
L 74.696741 64.578641 
L 74.743869 66.363282 
L 74.806707 65.173521 
L 74.859071 64.281201 
L 74.864308 66.065842 
L 74.911436 66.065842 
L 74.916672 66.065842 
L 75.042347 64.995057 
L 75.178494 64.995057 
L 75.298933 64.281201 
L 75.325115 64.281201 
L 75.440317 63.38888 
L 75.466499 63.38888 
L 75.539809 63.09144 
L 75.545046 64.876081 
L 75.550282 64.876081 
L 75.571228 64.876081 
L 75.581701 64.519153 
L 75.586937 66.303794 
L 75.670721 65.589937 
L 75.681193 65.589937 
L 75.796395 65.233009 
L 75.801632 65.233009 
L 75.927307 64.162225 
L 75.932543 64.162225 
L 76.047745 65.946866 
L 76.199602 65.946866 
L 76.314804 65.589937 
L 76.372405 65.589937 
L 76.487606 65.233009 
L 76.775611 65.233009 
L 76.890813 64.876081 
L 77.058379 64.876081 
L 77.184054 63.805296 
L 77.817664 63.805296 
L 77.932866 63.448368 
L 78.00094 63.448368 
L 78.116142 65.233009 
L 78.550767 65.233009 
L 78.665969 64.876081 
L 78.671205 64.876081 
L 78.786407 64.519153 
L 79.142486 64.519153 
L 79.257687 64.162225 
L 79.996027 64.162225 
L 80.111229 63.805296 
L 80.205485 63.805296 
L 80.320686 65.589937 
L 81.959695 65.589937 
L 82.080133 64.876081 
L 83.44161 64.876081 
L 83.556811 64.519153 
L 84.63552 64.519153 
L 84.750722 66.303794 
L 87.159488 66.303794 
L 87.27469 65.946866 
L 89.672983 65.946866 
L 89.788185 65.589937 
L 94.448623 65.589937 
L 94.569062 64.876081 
L 104.931993 64.876081 
L 105.047194 66.660722 
L 106.183504 66.660722 
L 106.298705 66.303794 
L 107.167956 66.303794 
L 107.283158 65.946866 
L 116.933932 65.946866 
L 117.049133 67.731507 
L 119.264151 67.731507 
L 119.379353 67.374579 
L 128.794486 67.374579 
L 128.909688 67.077138 
L 143.686945 67.077138 
L 143.802147 66.72021 
L 154.227915 66.72021 
L 154.343117 66.363282 
L 197.161553 66.363282 
L 197.276755 66.006354 
L 202.382292 66.006354 
L 202.497493 67.790995 
L 203.005429 67.790995 
L 203.120631 67.434067 
L 283.358725 67.434067 
L 283.473927 67.077138 
L 327.920898 67.077138 
L 328.0361 66.72021 
L 398.487273 66.72021 
L 398.487273 66.72021 
" clip-path="url(#pfd2f985206)" style="fill: none; stroke: #1f77b4; stroke-width: 1.5; stroke-linecap: square"/>
   </g>
   <g id="line2d_12">
    <path d="M 73.832727 56.636988 
L 73.963638 53.067706 
L 74.010767 53.067706 
L 74.084077 59.313949 
L 74.131205 56.934428 
L 74.152151 56.934428 
L 74.267352 56.042107 
L 74.283062 56.042107 
L 74.33019 59.61139 
L 74.398264 59.165229 
L 74.408737 59.165229 
L 74.487283 58.719069 
L 74.429682 60.50371 
L 74.502993 60.50371 
L 74.508229 60.50371 
L 74.618194 65.857634 
L 74.628667 64.072992 
L 74.63914 64.072992 
L 74.754342 69.426916 
L 74.759579 67.642275 
L 74.764815 67.642275 
L 74.885253 64.072992 
L 74.900963 64.072992 
L 74.916672 62.288351 
L 74.932381 65.857634 
L 75.010928 64.072992 
L 75.178494 64.072992 
L 75.298933 67.642275 
L 75.319879 67.642275 
L 75.43508 65.857634 
L 75.466499 65.857634 
L 75.503154 67.642275 
L 75.545046 65.262753 
L 75.576464 67.047394 
L 75.586937 67.047394 
L 75.707376 70.616677 
L 75.712612 70.616677 
L 75.801632 68.832035 
L 75.822578 70.616677 
L 75.874942 70.616677 
L 75.890651 68.832035 
L 75.92207 72.401318 
L 75.979671 72.401318 
L 76.047745 72.401318 
L 76.168183 68.832035 
L 76.199602 68.832035 
L 76.314804 70.616677 
L 76.372405 70.616677 
L 76.487606 72.401318 
L 76.529498 72.401318 
L 76.6447 70.616677 
L 76.775611 70.616677 
L 76.890813 72.401318 
L 76.979833 72.401318 
L 77.058379 70.616677 
L 77.089798 72.401318 
L 77.121217 72.401318 
L 77.241655 75.9706 
L 77.592497 75.9706 
L 77.707699 74.185959 
L 77.817664 74.185959 
L 77.932866 75.9706 
L 78.079487 75.9706 
L 78.194689 74.185959 
L 78.550767 74.185959 
L 78.665969 75.9706 
L 78.671205 75.9706 
L 78.702624 77.755241 
L 78.781171 75.9706 
L 78.985392 75.9706 
L 79.105831 72.401318 
L 79.142486 72.401318 
L 79.257687 74.185959 
L 79.996027 74.185959 
L 80.111229 75.9706 
L 80.205485 75.9706 
L 80.320686 75.52444 
L 80.441125 75.52444 
L 80.556327 73.739798 
L 81.959695 73.739798 
L 82.080133 77.309081 
L 83.44161 77.309081 
L 83.556811 79.093722 
L 84.342279 79.093722 
L 84.45748 77.309081 
L 84.63552 77.309081 
L 84.750722 76.7142 
L 87.159488 76.7142 
L 87.27469 78.498841 
L 89.672983 78.498841 
L 89.683456 80.283483 
L 89.782948 78.498841 
L 94.029708 78.498841 
L 94.144909 76.7142 
L 94.448623 76.7142 
L 94.569062 80.283483 
L 101.753469 80.283483 
L 101.86867 78.498841 
L 106.183504 78.498841 
L 106.298705 80.283483 
L 107.167956 80.283483 
L 107.283158 82.068124 
L 114.624658 82.068124 
L 114.73986 80.283483 
L 119.264151 80.283483 
L 119.379353 82.068124 
L 127.406828 82.068124 
L 127.52203 80.283483 
L 128.794486 80.283483 
L 128.909688 82.068124 
L 143.519379 82.068124 
L 143.63458 80.283483 
L 143.686945 80.283483 
L 143.802147 82.068124 
L 154.227915 82.068124 
L 154.343117 83.852765 
L 164.030546 83.852765 
L 164.145748 82.068124 
L 197.161553 82.068124 
L 197.276755 83.852765 
L 202.382292 83.852765 
L 202.497493 83.406604 
L 203.005429 83.406604 
L 203.120631 85.191246 
L 283.358725 85.191246 
L 283.473927 86.975887 
L 283.72004 86.975887 
L 283.835242 85.191246 
L 318.411508 85.191246 
L 318.52671 83.406604 
L 327.920898 83.406604 
L 328.0361 85.191246 
L 398.487273 85.191246 
L 398.487273 85.191246 
" clip-path="url(#pfd2f985206)" style="fill: none; stroke: #ff7f0e; stroke-width: 1.5; stroke-linecap: square"/>
   </g>
   <g id="line2d_13">
    <path d="M 73.832727 56.636988 
L 73.968875 66.898674 
L 73.974111 66.898674 
L 74.099786 73.23415 
L 74.110259 73.23415 
L 74.235934 78.588073 
L 74.24117 78.588073 
L 74.366845 83.941997 
L 74.408737 83.941997 
L 74.424446 87.511279 
L 74.529175 87.154351 
L 74.539648 87.154351 
L 74.63914 91.794418 
L 74.660086 91.080561 
L 74.696741 91.080561 
L 74.832889 99.706327 
L 74.843362 99.706327 
L 74.974273 107.558747 
L 75.178494 107.558747 
L 75.298933 106.844891 
L 75.319879 106.844891 
L 75.440317 110.414173 
L 75.466499 110.414173 
L 75.503154 110.116733 
L 75.508391 111.901374 
L 75.539809 111.901374 
L 75.586937 115.113728 
L 75.655011 114.399872 
L 75.670721 114.399872 
L 75.791159 117.612226 
L 75.801632 117.612226 
L 75.874942 117.255298 
L 75.880178 119.039939 
L 75.895888 118.68301 
L 75.916834 118.68301 
L 75.932543 118.326082 
L 75.937779 120.110723 
L 76.005853 120.110723 
L 76.047745 120.110723 
L 76.168183 123.680006 
L 76.199602 123.680006 
L 76.314804 123.323077 
L 76.372405 123.323077 
L 76.487606 122.966149 
L 76.529498 122.966149 
L 76.6447 124.75079 
L 76.775611 124.75079 
L 76.890813 124.393862 
L 76.979833 124.393862 
L 77.058379 126.178503 
L 77.095034 125.821575 
L 77.121217 125.821575 
L 77.241655 125.107718 
L 77.592497 125.107718 
L 77.707699 126.89236 
L 77.817664 126.89236 
L 77.932866 126.535431 
L 78.00094 126.535431 
L 78.121378 130.104714 
L 78.550767 130.104714 
L 78.665969 129.747785 
L 78.671205 129.747785 
L 78.702624 129.390857 
L 78.70786 131.175498 
L 78.760225 131.175498 
L 78.985392 131.175498 
L 79.105831 134.74478 
L 79.142486 134.74478 
L 79.257687 134.387852 
L 79.996027 134.387852 
L 80.111229 134.030924 
L 80.205485 134.030924 
L 80.320686 135.815565 
L 80.441125 135.815565 
L 80.556327 137.600206 
L 81.959695 137.600206 
L 82.080133 136.88635 
L 83.44161 136.88635 
L 83.556811 136.529421 
L 84.342279 136.529421 
L 84.45748 138.314063 
L 84.63552 138.314063 
L 84.750722 140.098704 
L 87.159488 140.098704 
L 87.27469 139.741775 
L 89.672983 139.741775 
L 89.683456 139.384847 
L 89.688692 141.169488 
L 89.762002 141.169488 
L 94.029708 141.169488 
L 94.144909 142.954129 
L 94.448623 142.954129 
L 94.569062 142.240273 
L 101.753469 142.240273 
L 101.86867 144.024914 
L 104.931993 144.024914 
L 105.047194 145.809555 
L 106.183504 145.809555 
L 106.298705 145.452627 
L 107.167956 145.452627 
L 107.283158 145.095699 
L 114.624658 145.095699 
L 114.73986 146.88034 
L 116.933932 146.88034 
L 117.049133 148.664981 
L 119.264151 148.664981 
L 119.379353 148.308053 
L 127.406828 148.308053 
L 127.52203 150.092694 
L 128.794486 150.092694 
L 128.909688 149.795254 
L 143.519379 149.795254 
L 143.63458 151.579895 
L 143.686945 151.579895 
L 143.802147 151.222967 
L 154.227915 151.222967 
L 154.343117 150.866038 
L 164.030546 150.866038 
L 164.145748 152.65068 
L 197.161553 152.65068 
L 197.276755 152.293751 
L 202.382292 152.293751 
L 202.497493 154.078392 
L 203.005429 154.078392 
L 203.120631 153.721464 
L 283.358725 153.721464 
L 283.473927 153.364536 
L 283.72004 153.364536 
L 283.835242 155.149177 
L 318.411508 155.149177 
L 318.52671 156.933818 
L 327.920898 156.933818 
L 328.0361 156.57689 
L 398.487273 156.57689 
L 398.487273 156.57689 
" clip-path="url(#pfd2f985206)" style="fill: none; stroke: #2ca02c; stroke-width: 1.5; stroke-linecap: square"/>
   </g>
   <g id="line2d_14">
    <path d="M 73.832727 56.636988 
L 74.021239 56.636988 
L 74.099786 56.28006 
L 74.105023 58.064701 
L 74.110259 58.064701 
L 74.194042 58.064701 
L 74.31448 57.350844 
L 74.408737 57.350844 
L 74.424446 59.135485 
L 74.523938 58.778557 
L 74.597249 58.778557 
L 74.618194 58.064701 
L 74.623431 59.849342 
L 74.701978 59.135485 
L 74.749106 59.135485 
L 74.754342 58.838045 
L 74.770051 62.407327 
L 74.780524 62.407327 
L 74.906199 67.761251 
L 74.916672 67.761251 
L 74.953327 67.047394 
L 74.969037 70.259748 
L 74.989982 70.259748 
L 75.178494 70.259748 
L 75.298933 69.545892 
L 75.319879 69.545892 
L 75.440317 73.115174 
L 75.466499 73.115174 
L 75.503154 72.817734 
L 75.508391 74.602375 
L 75.550282 74.602375 
L 75.571228 74.602375 
L 75.702139 73.174662 
L 75.712612 73.174662 
L 75.801632 74.959303 
L 75.827814 74.602375 
L 75.874942 74.602375 
L 75.890651 76.387016 
L 75.984907 75.67316 
L 76.047745 75.67316 
L 76.168183 79.242442 
L 76.199602 79.242442 
L 76.314804 78.885514 
L 76.372405 78.885514 
L 76.487606 78.528585 
L 76.529498 78.528585 
L 76.6447 80.313227 
L 76.775611 80.313227 
L 76.890813 79.956298 
L 76.979833 79.956298 
L 77.058379 81.740939 
L 77.095034 81.384011 
L 77.121217 81.384011 
L 77.241655 80.670155 
L 77.592497 80.670155 
L 77.707699 82.454796 
L 77.817664 82.454796 
L 77.932866 82.097868 
L 78.079487 82.097868 
L 78.194689 83.882509 
L 78.550767 83.882509 
L 78.665969 83.525581 
L 78.671205 83.525581 
L 78.702624 83.168652 
L 78.70786 84.953293 
L 78.760225 84.953293 
L 78.985392 84.953293 
L 79.105831 88.522576 
L 79.142486 88.522576 
L 79.257687 88.165647 
L 79.996027 88.165647 
L 80.111229 87.808719 
L 80.205485 87.808719 
L 80.320686 89.59336 
L 80.441125 89.59336 
L 80.556327 91.378001 
L 81.959695 91.378001 
L 82.080133 90.664145 
L 83.44161 90.664145 
L 83.556811 90.307217 
L 84.342279 90.307217 
L 84.45748 92.091858 
L 87.159488 92.091858 
L 87.27469 91.73493 
L 89.672983 91.73493 
L 89.683456 91.378001 
L 89.688692 93.162643 
L 89.762002 93.162643 
L 94.029708 93.162643 
L 94.144909 94.947284 
L 94.448623 94.947284 
L 94.569062 94.233427 
L 101.753469 94.233427 
L 101.86867 96.018068 
L 106.183504 96.018068 
L 106.298705 95.66114 
L 107.167956 95.66114 
L 107.283158 95.304212 
L 114.624658 95.304212 
L 114.73986 97.088853 
L 119.264151 97.088853 
L 119.379353 96.731925 
L 127.406828 96.731925 
L 127.52203 98.516566 
L 128.794486 98.516566 
L 128.909688 98.219126 
L 143.519379 98.219126 
L 143.63458 100.003767 
L 143.686945 100.003767 
L 143.802147 99.646839 
L 154.227915 99.646839 
L 154.343117 99.28991 
L 164.030546 99.28991 
L 164.145748 101.074551 
L 197.161553 101.074551 
L 197.276755 100.717623 
L 202.382292 100.717623 
L 202.497493 102.502264 
L 203.005429 102.502264 
L 203.120631 102.145336 
L 283.358725 102.145336 
L 283.473927 101.788408 
L 283.72004 101.788408 
L 283.835242 103.573049 
L 327.920898 103.573049 
L 328.0361 103.216121 
L 398.487273 103.216121 
L 398.487273 103.216121 
" clip-path="url(#pfd2f985206)" style="fill: none; stroke: #d62728; stroke-width: 1.5; stroke-linecap: square"/>
   </g>
   <g id="line2d_15">
    <path d="M 73.832727 56.636988 
L 73.984584 70.557188 
L 74.026476 70.557188 
L 74.157387 77.695753 
L 74.178333 77.695753 
L 74.298771 81.265035 
L 74.33019 81.265035 
L 74.450628 84.834317 
L 74.47681 84.834317 
L 74.597249 88.4036 
L 74.749106 88.4036 
L 74.859071 88.106159 
L 74.974273 89.890801 
L 75.319879 89.890801 
L 75.43508 91.675442 
L 75.466499 91.675442 
L 75.539809 91.378001 
L 75.545046 93.162643 
L 75.550282 93.162643 
L 75.670721 93.162643 
L 75.785922 94.947284 
L 75.874942 94.947284 
L 75.99538 98.516566 
L 76.047745 98.516566 
L 76.162947 100.301207 
L 78.985392 100.301207 
L 79.100594 102.085848 
L 80.205485 102.085848 
L 80.320686 103.870489 
L 128.794486 103.870489 
L 128.909688 103.573049 
L 318.411508 103.573049 
L 318.52671 105.35769 
L 398.487273 105.35769 
L 398.487273 105.35769 
" clip-path="url(#pfd2f985206)" style="fill: none; stroke: #9467bd; stroke-width: 1.5; stroke-linecap: square"/>
   </g>
   <g id="line2d_16">
    <path d="M 73.832727 56.636988 
L 73.848437 56.636988 
L 73.911274 55.744667 
L 73.91651 57.529308 
L 73.93222 57.529308 
L 74.052658 65.262753 
L 74.063131 64.370433 
L 74.099786 64.370433 
L 74.110259 63.775552 
L 74.115495 65.560193 
L 74.194042 64.965313 
L 74.319717 70.319236 
L 74.408737 70.319236 
L 74.434919 69.873076 
L 74.440155 71.657717 
L 74.508229 71.062837 
L 80.205485 71.062837 
L 80.320686 70.616677 
L 202.382292 70.616677 
L 202.497493 70.170516 
L 398.487273 70.170516 
L 398.487273 70.170516 
" clip-path="url(#pfd2f985206)" style="fill: none; stroke: #8c564b; stroke-width: 1.5; stroke-linecap: square"/>
   </g>
   <g id="line2d_17">
    <path d="M 73.832727 56.636988 
L 73.837964 56.636988 
L 73.974111 66.095586 
L 74.016003 66.095586 
L 74.052658 64.846337 
L 74.063131 68.415619 
L 74.099786 68.415619 
L 74.194042 71.984901 
L 74.214988 71.181813 
L 74.25688 71.181813 
L 74.33019 70.824885 
L 74.335426 72.609526 
L 74.345899 72.609526 
L 74.408737 72.609526 
L 74.523938 75.375719 
L 74.539648 75.375719 
L 74.63914 78.231145 
L 74.65485 77.874217 
L 74.712451 77.517289 
L 74.717687 79.30193 
L 74.743869 79.30193 
L 74.749106 79.30193 
L 74.754342 79.00449 
L 74.770051 82.573772 
L 74.780524 82.573772 
L 74.906199 87.927695 
L 74.916672 87.927695 
L 74.953327 87.213839 
L 74.969037 90.426193 
L 74.989982 90.426193 
L 75.178494 90.426193 
L 75.298933 89.712336 
L 75.319879 89.712336 
L 75.440317 93.281619 
L 75.466499 93.281619 
L 75.503154 92.984178 
L 75.508391 94.76882 
L 75.550282 94.76882 
L 75.571228 94.76882 
L 75.670721 93.698035 
L 75.791159 96.910389 
L 75.801632 96.910389 
L 75.874942 96.553461 
L 75.880178 98.338102 
L 75.895888 97.981174 
L 75.916834 97.981174 
L 76.032035 97.624245 
L 76.047745 97.624245 
L 76.168183 101.193528 
L 76.199602 101.193528 
L 76.314804 100.836599 
L 76.372405 100.836599 
L 76.487606 100.479671 
L 76.529498 100.479671 
L 76.6447 102.264312 
L 76.775611 102.264312 
L 76.890813 101.907384 
L 76.979833 101.907384 
L 77.058379 103.692025 
L 77.095034 103.335097 
L 77.121217 103.335097 
L 77.241655 102.62124 
L 77.592497 102.62124 
L 77.707699 104.405882 
L 77.817664 104.405882 
L 77.932866 104.048953 
L 78.079487 104.048953 
L 78.194689 105.833594 
L 78.550767 105.833594 
L 78.665969 105.476666 
L 78.671205 105.476666 
L 78.702624 105.119738 
L 78.70786 106.904379 
L 78.760225 106.904379 
L 78.985392 106.904379 
L 79.105831 110.473661 
L 79.142486 110.473661 
L 79.257687 110.116733 
L 79.996027 110.116733 
L 80.111229 109.759805 
L 80.205485 109.759805 
L 80.320686 111.544446 
L 80.441125 111.544446 
L 80.556327 113.329087 
L 81.959695 113.329087 
L 82.080133 112.615231 
L 83.44161 112.615231 
L 83.556811 112.258302 
L 84.342279 112.258302 
L 84.45748 114.042944 
L 87.159488 114.042944 
L 87.27469 113.686015 
L 89.672983 113.686015 
L 89.683456 113.329087 
L 89.688692 115.113728 
L 89.762002 115.113728 
L 94.029708 115.113728 
L 94.144909 116.898369 
L 94.448623 116.898369 
L 94.569062 116.184513 
L 101.753469 116.184513 
L 101.86867 117.969154 
L 106.183504 117.969154 
L 106.298705 117.612226 
L 107.167956 117.612226 
L 107.283158 117.255298 
L 114.624658 117.255298 
L 114.73986 119.039939 
L 119.264151 119.039939 
L 119.379353 118.68301 
L 127.406828 118.68301 
L 127.52203 120.467652 
L 128.794486 120.467652 
L 128.909688 120.170211 
L 143.519379 120.170211 
L 143.63458 121.954852 
L 143.686945 121.954852 
L 143.802147 121.597924 
L 154.227915 121.597924 
L 154.343117 121.240996 
L 164.030546 121.240996 
L 164.145748 123.025637 
L 197.161553 123.025637 
L 197.276755 122.668709 
L 202.382292 122.668709 
L 202.497493 124.45335 
L 203.005429 124.45335 
L 203.120631 124.096422 
L 283.358725 124.096422 
L 283.473927 123.739494 
L 283.72004 123.739494 
L 283.835242 125.524135 
L 318.411508 125.524135 
L 318.52671 127.308776 
L 327.920898 127.308776 
L 328.0361 126.951848 
L 398.487273 126.951848 
L 398.487273 126.951848 
" clip-path="url(#pfd2f985206)" style="fill: none; stroke: #e377c2; stroke-width: 1.5; stroke-linecap: square"/>
   </g>
   <g id="line2d_18">
    <path d="M 73.832727 56.636988 
L 73.837964 56.636988 
L 73.911274 54.852347 
L 73.93222 56.636988 
L 74.052658 64.370433 
L 74.063131 63.478112 
L 74.099786 63.478112 
L 74.110259 62.883232 
L 74.115495 64.667873 
L 74.194042 64.072992 
L 74.319717 69.426916 
L 74.33019 69.426916 
L 74.434919 68.534595 
L 74.47681 70.319236 
L 74.544884 69.724356 
L 80.205485 69.724356 
L 80.320686 69.278196 
L 202.382292 69.278196 
L 202.497493 68.832035 
L 398.487273 68.832035 
L 398.487273 68.832035 
" clip-path="url(#pfd2f985206)" style="fill: none; stroke: #7f7f7f; stroke-width: 1.5; stroke-linecap: square"/>
   </g>
   <g id="line2d_19">
    <path d="M 73.832727 56.636988 
L 73.837964 56.636988 
L 73.848437 56.190828 
L 73.874619 61.544751 
L 73.890328 61.544751 
L 73.911274 61.544751 
L 73.937456 60.295502 
L 73.963638 63.864784 
L 73.984584 63.864784 
L 74.016003 63.864784 
L 74.052658 62.615536 
L 74.063131 66.184818 
L 74.099786 66.184818 
L 74.194042 68.266899 
L 74.209752 67.909971 
L 74.335426 66.660722 
L 74.351136 66.660722 
L 74.408737 65.768402 
L 74.413973 67.553043 
L 74.461101 66.749954 
L 74.47681 66.749954 
L 74.56583 70.319236 
L 74.592012 69.426916 
L 74.597249 69.426916 
L 74.618194 68.713059 
L 74.623431 70.4977 
L 74.712451 68.891523 
L 74.848598 77.517289 
L 74.900963 77.517289 
L 75.021401 81.800427 
L 75.178494 81.800427 
L 75.298933 81.086571 
L 75.319879 81.086571 
L 75.440317 84.655853 
L 75.466499 84.655853 
L 75.503154 84.358413 
L 75.508391 86.143054 
L 75.560755 85.548174 
L 75.571228 85.548174 
L 75.670721 83.585069 
L 75.68643 85.012781 
L 75.712612 85.012781 
L 75.801632 86.797423 
L 75.827814 86.440494 
L 75.874942 86.440494 
L 75.890651 88.225135 
L 75.984907 87.511279 
L 76.047745 87.511279 
L 76.168183 91.080561 
L 76.199602 91.080561 
L 76.314804 90.723633 
L 76.372405 90.723633 
L 76.487606 90.366705 
L 76.529498 90.366705 
L 76.6447 92.151346 
L 76.775611 92.151346 
L 76.890813 91.794418 
L 76.979833 91.794418 
L 77.058379 93.579059 
L 77.095034 93.222131 
L 77.121217 93.222131 
L 77.241655 92.508274 
L 77.592497 92.508274 
L 77.707699 94.292915 
L 77.817664 94.292915 
L 77.932866 93.935987 
L 78.00094 93.935987 
L 78.079487 93.043666 
L 78.084723 94.828308 
L 78.105669 94.828308 
L 78.550767 94.828308 
L 78.665969 94.471379 
L 78.671205 94.471379 
L 78.702624 94.114451 
L 78.70786 95.899092 
L 78.760225 95.899092 
L 78.985392 95.899092 
L 79.105831 99.468374 
L 79.142486 99.468374 
L 79.257687 99.111446 
L 79.996027 99.111446 
L 80.111229 98.754518 
L 80.205485 98.754518 
L 80.320686 100.539159 
L 80.441125 100.539159 
L 80.556327 102.3238 
L 81.959695 102.3238 
L 82.080133 101.609944 
L 83.44161 101.609944 
L 83.556811 101.253016 
L 84.342279 101.253016 
L 84.45748 103.037657 
L 84.63552 103.037657 
L 84.750722 102.442776 
L 87.159488 102.442776 
L 87.27469 102.085848 
L 89.672983 102.085848 
L 89.683456 101.72892 
L 89.688692 103.513561 
L 89.762002 103.513561 
L 94.029708 103.513561 
L 94.144909 105.298202 
L 94.448623 105.298202 
L 94.569062 104.584346 
L 101.753469 104.584346 
L 101.86867 106.368987 
L 104.931993 106.368987 
L 105.047194 105.476666 
L 106.183504 105.476666 
L 106.298705 105.119738 
L 107.167956 105.119738 
L 107.283158 104.76281 
L 114.624658 104.76281 
L 114.73986 106.547451 
L 116.933932 106.547451 
L 117.049133 105.65513 
L 119.264151 105.65513 
L 119.379353 105.298202 
L 127.406828 105.298202 
L 127.52203 107.082843 
L 128.794486 107.082843 
L 128.909688 106.785403 
L 143.519379 106.785403 
L 143.63458 108.570044 
L 143.686945 108.570044 
L 143.802147 108.213116 
L 154.227915 108.213116 
L 154.343117 107.856188 
L 164.030546 107.856188 
L 164.145748 109.640829 
L 197.161553 109.640829 
L 197.276755 109.283901 
L 202.382292 109.283901 
L 202.497493 111.068542 
L 203.005429 111.068542 
L 203.120631 110.711613 
L 283.358725 110.711613 
L 283.473927 110.354685 
L 283.72004 110.354685 
L 283.835242 112.139326 
L 318.411508 112.139326 
L 318.52671 113.923967 
L 327.920898 113.923967 
L 328.0361 113.567039 
L 398.487273 113.567039 
L 398.487273 113.567039 
" clip-path="url(#pfd2f985206)" style="fill: none; stroke: #bcbd22; stroke-width: 1.5; stroke-linecap: square"/>
   </g>
   <g id="line2d_20">
    <path d="M 73.832727 56.636988 
L 73.911274 53.067706 
L 73.963638 53.216426 
L 73.974111 53.216426 
L 74.052658 59.46267 
L 74.09455 57.678028 
L 74.099786 57.678028 
L 74.194042 56.785708 
L 74.115495 58.867789 
L 74.199279 58.570349 
L 74.209752 58.570349 
L 74.324953 60.35499 
L 74.33019 60.35499 
L 74.434919 56.785708 
L 74.461101 58.570349 
L 74.47681 58.570349 
L 74.597249 57.083148 
L 74.696741 57.083148 
L 74.811943 56.190828 
L 74.859071 56.190828 
L 74.974273 54.406186 
L 75.539809 54.406186 
L 75.660248 52.918986 
L 75.932543 52.918986 
L 76.047745 51.134344 
L 78.00094 51.134344 
L 78.116142 50.242024 
L 80.205485 50.242024 
L 80.320686 49.795864 
L 84.63552 49.795864 
L 84.750722 49.200983 
L 104.931993 49.200983 
L 105.047194 48.308663 
L 116.933932 48.308663 
L 117.049133 47.416342 
L 202.382292 47.416342 
L 202.497493 46.970182 
L 398.487273 46.970182 
L 398.487273 46.970182 
" clip-path="url(#pfd2f985206)" style="fill: none; stroke: #17becf; stroke-width: 1.5; stroke-linecap: square"/>
   </g>
   <g id="line2d_21">
    <path d="M 73.832727 56.636988 
L 73.848437 56.636988 
L 73.974111 62.972464 
L 74.052658 60.890382 
L 74.063131 64.459665 
L 74.068367 64.459665 
L 74.099786 64.459665 
L 74.194042 67.434067 
L 74.214988 66.630978 
L 74.25688 66.630978 
L 74.372081 66.27405 
L 74.408737 66.27405 
L 74.523938 69.397172 
L 80.205485 69.397172 
L 80.320686 71.181813 
L 202.382292 71.181813 
L 202.497493 72.966454 
L 398.487273 72.966454 
L 398.487273 72.966454 
" clip-path="url(#pfd2f985206)" style="fill: none; stroke: #1f77b4; stroke-width: 1.5; stroke-linecap: square"/>
   </g>
   <g id="line2d_22">
    <path d="M 73.832727 56.636988 
L 73.837964 56.636988 
L 73.853673 56.190828 
L 73.874619 61.544751 
L 73.890328 61.544751 
L 73.895565 61.544751 
L 74.021239 58.719069 
L 74.047422 58.719069 
L 74.084077 58.124189 
L 74.063131 59.90883 
L 74.152151 59.313949 
L 74.272589 62.883232 
L 74.283062 62.883232 
L 74.4035 61.098591 
L 74.429682 61.098591 
L 74.487283 62.883232 
L 74.539648 61.098591 
L 74.560594 61.098591 
L 74.592012 61.990911 
L 74.675795 60.20627 
L 74.733396 60.20627 
L 74.743869 61.990911 
L 74.843362 60.20627 
L 75.325115 60.20627 
L 75.440317 59.313949 
L 398.487273 59.313949 
L 398.487273 59.313949 
" clip-path="url(#pfd2f985206)" style="fill: none; stroke: #ff7f0e; stroke-width: 1.5; stroke-linecap: square"/>
   </g>
   <g id="patch_3">
    <path d="M 57.6 162.432 
L 57.6 41.472 
" style="fill: none; stroke: #000000; stroke-width: 0.8; stroke-linejoin: miter; stroke-linecap: square"/>
   </g>
   <g id="patch_4">
    <path d="M 414.72 162.432 
L 414.72 41.472 
" style="fill: none; stroke: #000000; stroke-width: 0.8; stroke-linejoin: miter; stroke-linecap: square"/>
   </g>
   <g id="patch_5">
    <path d="M 57.6 162.432 
L 414.72 162.432 
" style="fill: none; stroke: #000000; stroke-width: 0.8; stroke-linejoin: miter; stroke-linecap: square"/>
   </g>
   <g id="patch_6">
    <path d="M 57.6 41.472 
L 414.72 41.472 
" style="fill: none; stroke: #000000; stroke-width: 0.8; stroke-linejoin: miter; stroke-linecap: square"/>
   </g>
   <g id="text_11">
    <!-- WSP -->
    <g transform="translate(361.832136 66.72021)scale(0.08 -0.08)">
     <defs>
      <path id="DejaVuSans-57" d="M 213 4666 
L 850 4666 
L 1831 722 
L 2809 4666 
L 3519 4666 
L 4500 722 
L 5478 4666 
L 6119 4666 
L 4947 0 
L 4153 0 
L 3169 4050 
L 2175 0 
L 1381 0 
L 213 4666 
z
" transform="scale(0.015625)"/>
      <path id="DejaVuSans-53" d="M 3425 4513 
L 3425 3897 
Q 3066 4069 2747 4153 
Q 2428 4238 2131 4238 
Q 1616 4238 1336 4038 
Q 1056 3838 1056 3469 
Q 1056 3159 1242 3001 
Q 1428 2844 1947 2747 
L 2328 2669 
Q 3034 2534 3370 2195 
Q 3706 1856 3706 1288 
Q 3706 609 3251 259 
Q 2797 -91 1919 -91 
Q 1588 -91 1214 -16 
Q 841 59 441 206 
L 441 856 
Q 825 641 1194 531 
Q 1563 422 1919 422 
Q 2459 422 2753 634 
Q 3047 847 3047 1241 
Q 3047 1584 2836 1778 
Q 2625 1972 2144 2069 
L 1759 2144 
Q 1053 2284 737 2584 
Q 422 2884 422 3419 
Q 422 4038 858 4394 
Q 1294 4750 2059 4750 
Q 2388 4750 2728 4690 
Q 3069 4631 3425 4513 
z
" transform="scale(0.015625)"/>
      <path id="DejaVuSans-50" d="M 1259 4147 
L 1259 2394 
L 2053 2394 
Q 2494 2394 2734 2622 
Q 2975 2850 2975 3272 
Q 2975 3691 2734 3919 
Q 2494 4147 2053 4147 
L 1259 4147 
z
M 628 4666 
L 2053 4666 
Q 2838 4666 3239 4311 
Q 3641 3956 3641 3272 
Q 3641 2581 3239 2228 
Q 2838 1875 2053 1875 
L 1259 1875 
L 1259 0 
L 628 0 
L 628 4666 
z
" transform="scale(0.015625)"/>
     </defs>
     <use xlink:href="#DejaVuSans-57"/>
     <use xlink:href="#DejaVuSans-53" x="98.876953"/>
     <use xlink:href="#DejaVuSans-50" x="162.353516"/>
    </g>
   </g>
   <g id="text_12">
    <!-- Iambic -->
    <g transform="translate(361.832136 85.191246)scale(0.08 -0.08)">
     <defs>
      <path id="DejaVuSans-49" d="M 628 4666 
L 1259 4666 
L 1259 0 
L 628 0 
L 628 4666 
z
" transform="scale(0.015625)"/>
      <path id="DejaVuSans-61" d="M 2194 1759 
Q 1497 1759 1228 1600 
Q 959 1441 959 1056 
Q 959 750 1161 570 
Q 1363 391 1709 391 
Q 2188 391 2477 730 
Q 2766 1069 2766 1631 
L 2766 1759 
L 2194 1759 
z
M 3341 1997 
L 3341 0 
L 2766 0 
L 2766 531 
Q 2569 213 2275 61 
Q 1981 -91 1556 -91 
Q 1019 -91 701 211 
Q 384 513 384 1019 
Q 384 1609 779 1909 
Q 1175 2209 1959 2209 
L 2766 2209 
L 2766 2266 
Q 2766 2663 2505 2880 
Q 2244 3097 1772 3097 
Q 1472 3097 1187 3025 
Q 903 2953 641 2809 
L 641 3341 
Q 956 3463 1253 3523 
Q 1550 3584 1831 3584 
Q 2591 3584 2966 3190 
Q 3341 2797 3341 1997 
z
" transform="scale(0.015625)"/>
      <path id="DejaVuSans-6d" d="M 3328 2828 
Q 3544 3216 3844 3400 
Q 4144 3584 4550 3584 
Q 5097 3584 5394 3201 
Q 5691 2819 5691 2113 
L 5691 0 
L 5113 0 
L 5113 2094 
Q 5113 2597 4934 2840 
Q 4756 3084 4391 3084 
Q 3944 3084 3684 2787 
Q 3425 2491 3425 1978 
L 3425 0 
L 2847 0 
L 2847 2094 
Q 2847 2600 2669 2842 
Q 2491 3084 2119 3084 
Q 1678 3084 1418 2786 
Q 1159 2488 1159 1978 
L 1159 0 
L 581 0 
L 581 3500 
L 1159 3500 
L 1159 2956 
Q 1356 3278 1631 3431 
Q 1906 3584 2284 3584 
Q 2666 3584 2933 3390 
Q 3200 3197 3328 2828 
z
" transform="scale(0.015625)"/>
      <path id="DejaVuSans-62" d="M 3116 1747 
Q 3116 2381 2855 2742 
Q 2594 3103 2138 3103 
Q 1681 3103 1420 2742 
Q 1159 2381 1159 1747 
Q 1159 1113 1420 752 
Q 1681 391 2138 391 
Q 2594 391 2855 752 
Q 3116 1113 3116 1747 
z
M 1159 2969 
Q 1341 3281 1617 3432 
Q 1894 3584 2278 3584 
Q 2916 3584 3314 3078 
Q 3713 2572 3713 1747 
Q 3713 922 3314 415 
Q 2916 -91 2278 -91 
Q 1894 -91 1617 61 
Q 1341 213 1159 525 
L 1159 0 
L 581 0 
L 581 4863 
L 1159 4863 
L 1159 2969 
z
" transform="scale(0.015625)"/>
      <path id="DejaVuSans-69" d="M 603 3500 
L 1178 3500 
L 1178 0 
L 603 0 
L 603 3500 
z
M 603 4863 
L 1178 4863 
L 1178 4134 
L 603 4134 
L 603 4863 
z
" transform="scale(0.015625)"/>
      <path id="DejaVuSans-63" d="M 3122 3366 
L 3122 2828 
Q 2878 2963 2633 3030 
Q 2388 3097 2138 3097 
Q 1578 3097 1268 2742 
Q 959 2388 959 1747 
Q 959 1106 1268 751 
Q 1578 397 2138 397 
Q 2388 397 2633 464 
Q 2878 531 3122 666 
L 3122 134 
Q 2881 22 2623 -34 
Q 2366 -91 2075 -91 
Q 1284 -91 818 406 
Q 353 903 353 1747 
Q 353 2603 823 3093 
Q 1294 3584 2113 3584 
Q 2378 3584 2631 3529 
Q 2884 3475 3122 3366 
z
" transform="scale(0.015625)"/>
     </defs>
     <use xlink:href="#DejaVuSans-49"/>
     <use xlink:href="#DejaVuSans-61" x="29.492188"/>
     <use xlink:href="#DejaVuSans-6d" x="90.771484"/>
     <use xlink:href="#DejaVuSans-62" x="188.183594"/>
     <use xlink:href="#DejaVuSans-69" x="251.660156"/>
     <use xlink:href="#DejaVuSans-63" x="279.443359"/>
    </g>
   </g>
   <g id="text_13">
    <!-- Parse -->
    <g transform="translate(361.832136 156.57689)scale(0.08 -0.08)">
     <defs>
      <path id="DejaVuSans-72" d="M 2631 2963 
Q 2534 3019 2420 3045 
Q 2306 3072 2169 3072 
Q 1681 3072 1420 2755 
Q 1159 2438 1159 1844 
L 1159 0 
L 581 0 
L 581 3500 
L 1159 3500 
L 1159 2956 
Q 1341 3275 1631 3429 
Q 1922 3584 2338 3584 
Q 2397 3584 2469 3576 
Q 2541 3569 2628 3553 
L 2631 2963 
z
" transform="scale(0.015625)"/>
      <path id="DejaVuSans-73" d="M 2834 3397 
L 2834 2853 
Q 2591 2978 2328 3040 
Q 2066 3103 1784 3103 
Q 1356 3103 1142 2972 
Q 928 2841 928 2578 
Q 928 2378 1081 2264 
Q 1234 2150 1697 2047 
L 1894 2003 
Q 2506 1872 2764 1633 
Q 3022 1394 3022 966 
Q 3022 478 2636 193 
Q 2250 -91 1575 -91 
Q 1294 -91 989 -36 
Q 684 19 347 128 
L 347 722 
Q 666 556 975 473 
Q 1284 391 1588 391 
Q 1994 391 2212 530 
Q 2431 669 2431 922 
Q 2431 1156 2273 1281 
Q 2116 1406 1581 1522 
L 1381 1569 
Q 847 1681 609 1914 
Q 372 2147 372 2553 
Q 372 3047 722 3315 
Q 1072 3584 1716 3584 
Q 2034 3584 2315 3537 
Q 2597 3491 2834 3397 
z
" transform="scale(0.015625)"/>
      <path id="DejaVuSans-65" d="M 3597 1894 
L 3597 1613 
L 953 1613 
Q 991 1019 1311 708 
Q 1631 397 2203 397 
Q 2534 397 2845 478 
Q 3156 559 3463 722 
L 3463 178 
Q 3153 47 2828 -22 
Q 2503 -91 2169 -91 
Q 1331 -91 842 396 
Q 353 884 353 1716 
Q 353 2575 817 3079 
Q 1281 3584 2069 3584 
Q 2775 3584 3186 3129 
Q 3597 2675 3597 1894 
z
M 3022 2063 
Q 3016 2534 2758 2815 
Q 2500 3097 2075 3097 
Q 1594 3097 1305 2825 
Q 1016 2553 972 2059 
L 3022 2063 
z
" transform="scale(0.015625)"/>
     </defs>
     <use xlink:href="#DejaVuSans-50"/>
     <use xlink:href="#DejaVuSans-61" x="55.802734"/>
     <use xlink:href="#DejaVuSans-72" x="117.082031"/>
     <use xlink:href="#DejaVuSans-73" x="158.195312"/>
     <use xlink:href="#DejaVuSans-65" x="210.294922"/>
    </g>
   </g>
   <g id="text_14">
    <!-- FootBin -->
    <g transform="translate(361.832136 103.216121)scale(0.08 -0.08)">
     <defs>
      <path id="DejaVuSans-46" d="M 628 4666 
L 3309 4666 
L 3309 4134 
L 1259 4134 
L 1259 2759 
L 3109 2759 
L 3109 2228 
L 1259 2228 
L 1259 0 
L 628 0 
L 628 4666 
z
" transform="scale(0.015625)"/>
      <path id="DejaVuSans-6f" d="M 1959 3097 
Q 1497 3097 1228 2736 
Q 959 2375 959 1747 
Q 959 1119 1226 758 
Q 1494 397 1959 397 
Q 2419 397 2687 759 
Q 2956 1122 2956 1747 
Q 2956 2369 2687 2733 
Q 2419 3097 1959 3097 
z
M 1959 3584 
Q 2709 3584 3137 3096 
Q 3566 2609 3566 1747 
Q 3566 888 3137 398 
Q 2709 -91 1959 -91 
Q 1206 -91 779 398 
Q 353 888 353 1747 
Q 353 2609 779 3096 
Q 1206 3584 1959 3584 
z
" transform="scale(0.015625)"/>
      <path id="DejaVuSans-74" d="M 1172 4494 
L 1172 3500 
L 2356 3500 
L 2356 3053 
L 1172 3053 
L 1172 1153 
Q 1172 725 1289 603 
Q 1406 481 1766 481 
L 2356 481 
L 2356 0 
L 1766 0 
Q 1100 0 847 248 
Q 594 497 594 1153 
L 594 3053 
L 172 3053 
L 172 3500 
L 594 3500 
L 594 4494 
L 1172 4494 
z
" transform="scale(0.015625)"/>
      <path id="DejaVuSans-42" d="M 1259 2228 
L 1259 519 
L 2272 519 
Q 2781 519 3026 730 
Q 3272 941 3272 1375 
Q 3272 1813 3026 2020 
Q 2781 2228 2272 2228 
L 1259 2228 
z
M 1259 4147 
L 1259 2741 
L 2194 2741 
Q 2656 2741 2882 2914 
Q 3109 3088 3109 3444 
Q 3109 3797 2882 3972 
Q 2656 4147 2194 4147 
L 1259 4147 
z
M 628 4666 
L 2241 4666 
Q 2963 4666 3353 4366 
Q 3744 4066 3744 3513 
Q 3744 3084 3544 2831 
Q 3344 2578 2956 2516 
Q 3422 2416 3680 2098 
Q 3938 1781 3938 1306 
Q 3938 681 3513 340 
Q 3088 0 2303 0 
L 628 0 
L 628 4666 
z
" transform="scale(0.015625)"/>
      <path id="DejaVuSans-6e" d="M 3513 2113 
L 3513 0 
L 2938 0 
L 2938 2094 
Q 2938 2591 2744 2837 
Q 2550 3084 2163 3084 
Q 1697 3084 1428 2787 
Q 1159 2491 1159 1978 
L 1159 0 
L 581 0 
L 581 3500 
L 1159 3500 
L 1159 2956 
Q 1366 3272 1645 3428 
Q 1925 3584 2291 3584 
Q 2894 3584 3203 3211 
Q 3513 2838 3513 2113 
z
" transform="scale(0.015625)"/>
     </defs>
     <use xlink:href="#DejaVuSans-46"/>
     <use xlink:href="#DejaVuSans-6f" x="53.894531"/>
     <use xlink:href="#DejaVuSans-6f" x="115.076172"/>
     <use xlink:href="#DejaVuSans-74" x="176.257812"/>
     <use xlink:href="#DejaVuSans-42" x="215.466797"/>
     <use xlink:href="#DejaVuSans-69" x="284.070312"/>
     <use xlink:href="#DejaVuSans-6e" x="311.853516"/>
    </g>
   </g>
   <g id="text_15">
    <!-- WFL -->
    <g transform="translate(361.832136 105.35769)scale(0.08 -0.08)">
     <defs>
      <path id="DejaVuSans-4c" d="M 628 4666 
L 1259 4666 
L 1259 531 
L 3531 531 
L 3531 0 
L 628 0 
L 628 4666 
z
" transform="scale(0.015625)"/>
     </defs>
     <use xlink:href="#DejaVuSans-57"/>
     <use xlink:href="#DejaVuSans-46" x="98.876953"/>
     <use xlink:href="#DejaVuSans-4c" x="156.396484"/>
    </g>
   </g>
   <g id="text_16">
    <!-- WFR -->
    <g transform="translate(361.832136 70.170516)scale(0.08 -0.08)">
     <defs>
      <path id="DejaVuSans-52" d="M 2841 2188 
Q 3044 2119 3236 1894 
Q 3428 1669 3622 1275 
L 4263 0 
L 3584 0 
L 2988 1197 
Q 2756 1666 2539 1819 
Q 2322 1972 1947 1972 
L 1259 1972 
L 1259 0 
L 628 0 
L 628 4666 
L 2053 4666 
Q 2853 4666 3247 4331 
Q 3641 3997 3641 3322 
Q 3641 2881 3436 2590 
Q 3231 2300 2841 2188 
z
M 1259 4147 
L 1259 2491 
L 2053 2491 
Q 2509 2491 2742 2702 
Q 2975 2913 2975 3322 
Q 2975 3731 2742 3939 
Q 2509 4147 2053 4147 
L 1259 4147 
z
" transform="scale(0.015625)"/>
     </defs>
     <use xlink:href="#DejaVuSans-57"/>
     <use xlink:href="#DejaVuSans-46" x="98.876953"/>
     <use xlink:href="#DejaVuSans-52" x="156.396484"/>
    </g>
   </g>
   <g id="text_17">
    <!-- Main-L -->
    <g transform="translate(361.832136 126.951848)scale(0.08 -0.08)">
     <defs>
      <path id="DejaVuSans-4d" d="M 628 4666 
L 1569 4666 
L 2759 1491 
L 3956 4666 
L 4897 4666 
L 4897 0 
L 4281 0 
L 4281 4097 
L 3078 897 
L 2444 897 
L 1241 4097 
L 1241 0 
L 628 0 
L 628 4666 
z
" transform="scale(0.015625)"/>
      <path id="DejaVuSans-2d" d="M 313 2009 
L 1997 2009 
L 1997 1497 
L 313 1497 
L 313 2009 
z
" transform="scale(0.015625)"/>
     </defs>
     <use xlink:href="#DejaVuSans-4d"/>
     <use xlink:href="#DejaVuSans-61" x="86.279297"/>
     <use xlink:href="#DejaVuSans-69" x="147.558594"/>
     <use xlink:href="#DejaVuSans-6e" x="175.341797"/>
     <use xlink:href="#DejaVuSans-2d" x="238.720703"/>
     <use xlink:href="#DejaVuSans-4c" x="274.804688"/>
    </g>
   </g>
   <g id="text_18">
    <!-- Main-R -->
    <g transform="translate(361.832136 68.832035)scale(0.08 -0.08)">
     <use xlink:href="#DejaVuSans-4d"/>
     <use xlink:href="#DejaVuSans-61" x="86.279297"/>
     <use xlink:href="#DejaVuSans-69" x="147.558594"/>
     <use xlink:href="#DejaVuSans-6e" x="175.341797"/>
     <use xlink:href="#DejaVuSans-2d" x="238.720703"/>
     <use xlink:href="#DejaVuSans-52" x="274.804688"/>
    </g>
   </g>
   <g id="text_19">
    <!-- AFL -->
    <g transform="translate(361.832136 113.567039)scale(0.08 -0.08)">
     <defs>
      <path id="DejaVuSans-41" d="M 2188 4044 
L 1331 1722 
L 3047 1722 
L 2188 4044 
z
M 1831 4666 
L 2547 4666 
L 4325 0 
L 3669 0 
L 3244 1197 
L 1141 1197 
L 716 0 
L 50 0 
L 1831 4666 
z
" transform="scale(0.015625)"/>
     </defs>
     <use xlink:href="#DejaVuSans-41"/>
     <use xlink:href="#DejaVuSans-46" x="68.408203"/>
     <use xlink:href="#DejaVuSans-4c" x="125.927734"/>
    </g>
   </g>
   <g id="text_20">
    <!-- AFR -->
    <g transform="translate(361.832136 46.970182)scale(0.08 -0.08)">
     <use xlink:href="#DejaVuSans-41"/>
     <use xlink:href="#DejaVuSans-46" x="68.408203"/>
     <use xlink:href="#DejaVuSans-52" x="125.927734"/>
    </g>
   </g>
   <g id="text_21">
    <!-- Nonfinal -->
    <g transform="translate(361.832136 72.966454)scale(0.08 -0.08)">
     <defs>
      <path id="DejaVuSans-4e" d="M 628 4666 
L 1478 4666 
L 3547 763 
L 3547 4666 
L 4159 4666 
L 4159 0 
L 3309 0 
L 1241 3903 
L 1241 0 
L 628 0 
L 628 4666 
z
" transform="scale(0.015625)"/>
      <path id="DejaVuSans-66" d="M 2375 4863 
L 2375 4384 
L 1825 4384 
Q 1516 4384 1395 4259 
Q 1275 4134 1275 3809 
L 1275 3500 
L 2222 3500 
L 2222 3053 
L 1275 3053 
L 1275 0 
L 697 0 
L 697 3053 
L 147 3053 
L 147 3500 
L 697 3500 
L 697 3744 
Q 697 4328 969 4595 
Q 1241 4863 1831 4863 
L 2375 4863 
z
" transform="scale(0.015625)"/>
      <path id="DejaVuSans-6c" d="M 603 4863 
L 1178 4863 
L 1178 0 
L 603 0 
L 603 4863 
z
" transform="scale(0.015625)"/>
     </defs>
     <use xlink:href="#DejaVuSans-4e"/>
     <use xlink:href="#DejaVuSans-6f" x="74.804688"/>
     <use xlink:href="#DejaVuSans-6e" x="135.986328"/>
     <use xlink:href="#DejaVuSans-66" x="199.365234"/>
     <use xlink:href="#DejaVuSans-69" x="234.570312"/>
     <use xlink:href="#DejaVuSans-6e" x="262.353516"/>
     <use xlink:href="#DejaVuSans-61" x="325.732422"/>
     <use xlink:href="#DejaVuSans-6c" x="387.011719"/>
    </g>
   </g>
   <g id="text_22">
    <!-- Trochaic -->
    <g transform="translate(361.832136 59.313949)scale(0.08 -0.08)">
     <defs>
      <path id="DejaVuSans-54" d="M -19 4666 
L 3928 4666 
L 3928 4134 
L 2272 4134 
L 2272 0 
L 1638 0 
L 1638 4134 
L -19 4134 
L -19 4666 
z
" transform="scale(0.015625)"/>
      <path id="DejaVuSans-68" d="M 3513 2113 
L 3513 0 
L 2938 0 
L 2938 2094 
Q 2938 2591 2744 2837 
Q 2550 3084 2163 3084 
Q 1697 3084 1428 2787 
Q 1159 2491 1159 1978 
L 1159 0 
L 581 0 
L 581 4863 
L 1159 4863 
L 1159 2956 
Q 1366 3272 1645 3428 
Q 1925 3584 2291 3584 
Q 2894 3584 3203 3211 
Q 3513 2838 3513 2113 
z
" transform="scale(0.015625)"/>
     </defs>
     <use xlink:href="#DejaVuSans-54"/>
     <use xlink:href="#DejaVuSans-72" x="46.333984"/>
     <use xlink:href="#DejaVuSans-6f" x="85.197266"/>
     <use xlink:href="#DejaVuSans-63" x="146.378906"/>
     <use xlink:href="#DejaVuSans-68" x="201.359375"/>
     <use xlink:href="#DejaVuSans-61" x="264.738281"/>
     <use xlink:href="#DejaVuSans-69" x="326.017578"/>
     <use xlink:href="#DejaVuSans-63" x="353.800781"/>
    </g>
   </g>
  </g>
  <g id="axes_2">
   <g id="patch_7">
    <path d="M 57.6 307.584 
L 414.72 307.584 
L 414.72 186.624 
L 57.6 186.624 
z
" style="fill: #ffffff"/>
   </g>
   <g id="matplotlib.axis_3">
    <g id="xtick_8">
     <g id="line2d_23">
      <g>
       <use xlink:href="#m46c6839ba0" x="71.624193" y="307.584" style="stroke: #000000; stroke-width: 0.8"/>
      </g>
     </g>
     <g id="text_23">
      <!-- 0 -->
      <g transform="translate(68.442943 322.182437)scale(0.1 -0.1)">
       <use xlink:href="#DejaVuSans-30"/>
      </g>
     </g>
    </g>
    <g id="xtick_9">
     <g id="line2d_24">
      <g>
       <use xlink:href="#m46c6839ba0" x="115.794879" y="307.584" style="stroke: #000000; stroke-width: 0.8"/>
      </g>
     </g>
     <g id="text_24">
      <!-- 20 -->
      <g transform="translate(109.432379 322.182437)scale(0.1 -0.1)">
       <use xlink:href="#DejaVuSans-32"/>
       <use xlink:href="#DejaVuSans-30" x="63.623047"/>
      </g>
     </g>
    </g>
    <g id="xtick_10">
     <g id="line2d_25">
      <g>
       <use xlink:href="#m46c6839ba0" x="159.965566" y="307.584" style="stroke: #000000; stroke-width: 0.8"/>
      </g>
     </g>
     <g id="text_25">
      <!-- 40 -->
      <g transform="translate(153.603066 322.182437)scale(0.1 -0.1)">
       <use xlink:href="#DejaVuSans-34"/>
       <use xlink:href="#DejaVuSans-30" x="63.623047"/>
      </g>
     </g>
    </g>
    <g id="xtick_11">
     <g id="line2d_26">
      <g>
       <use xlink:href="#m46c6839ba0" x="204.136252" y="307.584" style="stroke: #000000; stroke-width: 0.8"/>
      </g>
     </g>
     <g id="text_26">
      <!-- 60 -->
      <g transform="translate(197.773752 322.182437)scale(0.1 -0.1)">
       <use xlink:href="#DejaVuSans-36"/>
       <use xlink:href="#DejaVuSans-30" x="63.623047"/>
      </g>
     </g>
    </g>
    <g id="xtick_12">
     <g id="line2d_27">
      <g>
       <use xlink:href="#m46c6839ba0" x="248.306939" y="307.584" style="stroke: #000000; stroke-width: 0.8"/>
      </g>
     </g>
     <g id="text_27">
      <!-- 80 -->
      <g transform="translate(241.944439 322.182437)scale(0.1 -0.1)">
       <use xlink:href="#DejaVuSans-38"/>
       <use xlink:href="#DejaVuSans-30" x="63.623047"/>
      </g>
     </g>
    </g>
    <g id="xtick_13">
     <g id="line2d_28">
      <g>
       <use xlink:href="#m46c6839ba0" x="292.477625" y="307.584" style="stroke: #000000; stroke-width: 0.8"/>
      </g>
     </g>
     <g id="text_28">
      <!-- 100 -->
      <g transform="translate(282.933875 322.182437)scale(0.1 -0.1)">
       <use xlink:href="#DejaVuSans-31"/>
       <use xlink:href="#DejaVuSans-30" x="63.623047"/>
       <use xlink:href="#DejaVuSans-30" x="127.246094"/>
      </g>
     </g>
    </g>
    <g id="xtick_14">
     <g id="line2d_29">
      <g>
       <use xlink:href="#m46c6839ba0" x="336.648312" y="307.584" style="stroke: #000000; stroke-width: 0.8"/>
      </g>
     </g>
     <g id="text_29">
      <!-- 120 -->
      <g transform="translate(327.104562 322.182437)scale(0.1 -0.1)">
       <use xlink:href="#DejaVuSans-31"/>
       <use xlink:href="#DejaVuSans-32" x="63.623047"/>
       <use xlink:href="#DejaVuSans-30" x="127.246094"/>
      </g>
     </g>
    </g>
    <g id="xtick_15">
     <g id="line2d_30">
      <g>
       <use xlink:href="#m46c6839ba0" x="380.818998" y="307.584" style="stroke: #000000; stroke-width: 0.8"/>
      </g>
     </g>
     <g id="text_30">
      <!-- 140 -->
      <g transform="translate(371.275248 322.182437)scale(0.1 -0.1)">
       <use xlink:href="#DejaVuSans-31"/>
       <use xlink:href="#DejaVuSans-34" x="63.623047"/>
       <use xlink:href="#DejaVuSans-30" x="127.246094"/>
      </g>
     </g>
    </g>
   </g>
   <g id="matplotlib.axis_4">
    <g id="ytick_4">
     <g id="line2d_31">
      <g>
       <use xlink:href="#m9ceffc06ee" x="57.6" y="302.092985" style="stroke: #000000; stroke-width: 0.8"/>
      </g>
     </g>
     <g id="text_31">
      <!-- 0 -->
      <g transform="translate(44.2375 305.892203)scale(0.1 -0.1)">
       <use xlink:href="#DejaVuSans-30"/>
      </g>
     </g>
    </g>
    <g id="ytick_5">
     <g id="line2d_32">
      <g>
       <use xlink:href="#m9ceffc06ee" x="57.6" y="266.260204" style="stroke: #000000; stroke-width: 0.8"/>
      </g>
     </g>
     <g id="text_32">
      <!-- 5000 -->
      <g transform="translate(25.15 270.059423)scale(0.1 -0.1)">
       <use xlink:href="#DejaVuSans-35"/>
       <use xlink:href="#DejaVuSans-30" x="63.623047"/>
       <use xlink:href="#DejaVuSans-30" x="127.246094"/>
       <use xlink:href="#DejaVuSans-30" x="190.869141"/>
      </g>
     </g>
    </g>
    <g id="ytick_6">
     <g id="line2d_33">
      <g>
       <use xlink:href="#m9ceffc06ee" x="57.6" y="230.427424" style="stroke: #000000; stroke-width: 0.8"/>
      </g>
     </g>
     <g id="text_33">
      <!-- 10000 -->
      <g transform="translate(18.7875 234.226643)scale(0.1 -0.1)">
       <use xlink:href="#DejaVuSans-31"/>
       <use xlink:href="#DejaVuSans-30" x="63.623047"/>
       <use xlink:href="#DejaVuSans-30" x="127.246094"/>
       <use xlink:href="#DejaVuSans-30" x="190.869141"/>
       <use xlink:href="#DejaVuSans-30" x="254.492188"/>
      </g>
     </g>
    </g>
    <g id="ytick_7">
     <g id="line2d_34">
      <g>
       <use xlink:href="#m9ceffc06ee" x="57.6" y="194.594644" style="stroke: #000000; stroke-width: 0.8"/>
      </g>
     </g>
     <g id="text_34">
      <!-- 15000 -->
      <g transform="translate(18.7875 198.393862)scale(0.1 -0.1)">
       <use xlink:href="#DejaVuSans-31"/>
       <use xlink:href="#DejaVuSans-35" x="63.623047"/>
       <use xlink:href="#DejaVuSans-30" x="127.246094"/>
       <use xlink:href="#DejaVuSans-30" x="190.869141"/>
       <use xlink:href="#DejaVuSans-30" x="254.492188"/>
      </g>
     </g>
    </g>
   </g>
   <g id="line2d_35">
    <path d="M 73.832727 302.085818 
L 106.960742 302.085818 
L 235.055733 302.085818 
L 237.264267 301.799156 
L 241.681336 302.028486 
L 246.098404 302.057152 
L 248.306939 301.935321 
L 252.724007 302.042819 
L 268.183748 302.049985 
L 272.600816 301.992653 
L 277.017885 302.057152 
L 279.226419 302.071485 
L 281.434954 301.935321 
L 285.852022 301.992653 
L 288.060557 301.856488 
L 290.269091 301.877988 
L 292.477625 301.756157 
L 294.68616 301.813489 
L 296.894694 301.985486 
L 301.311763 302.021319 
L 303.520297 301.51966 
L 305.728831 301.784823 
L 310.1459 301.985486 
L 312.354434 301.447995 
L 314.562968 301.928154 
L 316.771503 302.049985 
L 318.980037 301.705991 
L 321.188571 302.006986 
L 323.397106 301.963987 
L 325.60564 300.924836 
L 327.814174 301.806322 
L 330.022709 301.77049 
L 332.231243 300.014683 
L 334.439777 302.028486 
L 336.648312 300.129348 
L 341.06538 301.691658 
L 343.273915 298.638705 
L 345.482449 298.653038 
L 347.690983 302.078652 
L 349.899518 296.144743 
L 352.108052 301.51966 
L 354.316586 302.014153 
L 356.525121 292.174471 
L 358.733655 297.742885 
L 360.942189 300.380178 
L 363.150724 300.745672 
L 365.359258 291.887809 
L 367.567792 298.932534 
L 369.776327 298.903867 
L 371.984861 290.94899 
L 374.193395 300.193847 
L 376.401929 281.940629 
L 378.610464 301.863655 
L 380.818998 287.666707 
L 383.027532 288.677192 
L 385.236067 256.750184 
L 387.444601 294.947928 
L 389.653135 301.240165 
L 391.86167 192.122182 
L 394.070204 301.598492 
L 396.278738 254.614551 
L 398.487273 289.078519 
L 398.487273 289.078519 
" clip-path="url(#peb7966b193)" style="fill: none; stroke: #1f77b4; stroke-width: 1.5; stroke-linecap: square"/>
   </g>
   <g id="patch_8">
    <path d="M 57.6 307.584 
L 57.6 186.624 
" style="fill: none; stroke: #000000; stroke-width: 0.8; stroke-linejoin: miter; stroke-linecap: square"/>
   </g>
   <g id="patch_9">
    <path d="M 414.72 307.584 
L 414.72 186.624 
" style="fill: none; stroke: #000000; stroke-width: 0.8; stroke-linejoin: miter; stroke-linecap: square"/>
   </g>
   <g id="patch_10">
    <path d="M 57.6 307.584 
L 414.72 307.584 
" style="fill: none; stroke: #000000; stroke-width: 0.8; stroke-linejoin: miter; stroke-linecap: square"/>
   </g>
   <g id="patch_11">
    <path d="M 57.6 186.624 
L 414.72 186.624 
" style="fill: none; stroke: #000000; stroke-width: 0.8; stroke-linejoin: miter; stroke-linecap: square"/>
   </g>
  </g>
 </g>
 <defs>
  <clipPath id="pfd2f985206">
   <rect x="57.6" y="41.472" width="357.12" height="120.96"/>
  </clipPath>
  <clipPath id="peb7966b193">
   <rect x="57.6" y="186.624" width="357.12" height="120.96"/>
  </clipPath>
 </defs>
</svg>
