<?xml version="1.0" encoding="utf-8" standalone="no"?>
<!DOCTYPE svg PUBLIC "-//W3C//DTD SVG 1.1//EN"
  "http://www.w3.org/Graphics/SVG/1.1/DTD/svg11.dtd">
<svg xmlns:xlink="http://www.w3.org/1999/xlink" width="460.8pt" height="345.6pt" viewBox="0 0 460.8 345.6" xmlns="http://www.w3.org/2000/svg" version="1.1">
 <metadata>
  <rdf:RDF xmlns:dc="http://purl.org/dc/elements/1.1/" xmlns:cc="http://creativecommons.org/ns#" xmlns:rdf="http://www.w3.org/1999/02/22-rdf-syntax-ns#">
   <cc:Work>
    <dc:type rdf:resource="http://purl.org/dc/dcmitype/StillImage"/>
    <dc:date>2022-05-14T04:25:13.094966</dc:date>
    <dc:format>image/svg+xml</dc:format>
    <dc:creator>
     <cc:Agent>
      <dc:title>Matplotlib v3.5.1, https://matplotlib.org/</dc:title>
     </cc:Agent>
    </dc:creator>
   </cc:Work>
  </rdf:RDF>
 </metadata>
 <defs>
  <style type="text/css">*{stroke-linejoin: round; stroke-linecap: butt}</style>
 </defs>
 <g id="figure_1">
  <g id="patch_1">
   <path d="M 0 345.6 
L 460.8 345.6 
L 460.8 0 
L 0 0 
z
" style="fill: #ffffff"/>
  </g>
  <g id="axes_1">
   <g id="patch_2">
    <path d="M 57.6 162.432 
L 414.72 162.432 
L 414.72 41.472 
L 57.6 41.472 
z
" style="fill: #ffffff"/>
   </g>
   <g id="matplotlib.axis_1">
    <g id="xtick_1">
     <g id="line2d_1">
      <defs>
       <path id="m7b2716afb6" d="M 0 0 
L 0 3.5 
" style="stroke: #000000; stroke-width: 0.8"/>
      </defs>
      <g>
       <use xlink:href="#m7b2716afb6" x="73.827491" y="162.432" style="stroke: #000000; stroke-width: 0.8"/>
      </g>
     </g>
     <g id="text_1">
      <!-- 0 -->
      <g transform="translate(70.646241 177.030437)scale(0.1 -0.1)">
       <defs>
        <path id="DejaVuSans-30" d="M 2034 4250 
Q 1547 4250 1301 3770 
Q 1056 3291 1056 2328 
Q 1056 1369 1301 889 
Q 1547 409 2034 409 
Q 2525 409 2770 889 
Q 3016 1369 3016 2328 
Q 3016 3291 2770 3770 
Q 2525 4250 2034 4250 
z
M 2034 4750 
Q 2819 4750 3233 4129 
Q 3647 3509 3647 2328 
Q 3647 1150 3233 529 
Q 2819 -91 2034 -91 
Q 1250 -91 836 529 
Q 422 1150 422 2328 
Q 422 3509 836 4129 
Q 1250 4750 2034 4750 
z
" transform="scale(0.015625)"/>
       </defs>
       <use xlink:href="#DejaVuSans-30"/>
      </g>
     </g>
    </g>
    <g id="xtick_2">
     <g id="line2d_2">
      <g>
       <use xlink:href="#m7b2716afb6" x="126.191972" y="162.432" style="stroke: #000000; stroke-width: 0.8"/>
      </g>
     </g>
     <g id="text_2">
      <!-- 10000 -->
      <g transform="translate(110.285722 177.030437)scale(0.1 -0.1)">
       <defs>
        <path id="DejaVuSans-31" d="M 794 531 
L 1825 531 
L 1825 4091 
L 703 3866 
L 703 4441 
L 1819 4666 
L 2450 4666 
L 2450 531 
L 3481 531 
L 3481 0 
L 794 0 
L 794 531 
z
" transform="scale(0.015625)"/>
       </defs>
       <use xlink:href="#DejaVuSans-31"/>
       <use xlink:href="#DejaVuSans-30" x="63.623047"/>
       <use xlink:href="#DejaVuSans-30" x="127.246094"/>
       <use xlink:href="#DejaVuSans-30" x="190.869141"/>
       <use xlink:href="#DejaVuSans-30" x="254.492188"/>
      </g>
     </g>
    </g>
    <g id="xtick_3">
     <g id="line2d_3">
      <g>
       <use xlink:href="#m7b2716afb6" x="178.556453" y="162.432" style="stroke: #000000; stroke-width: 0.8"/>
      </g>
     </g>
     <g id="text_3">
      <!-- 20000 -->
      <g transform="translate(162.650203 177.030437)scale(0.1 -0.1)">
       <defs>
        <path id="DejaVuSans-32" d="M 1228 531 
L 3431 531 
L 3431 0 
L 469 0 
L 469 531 
Q 828 903 1448 1529 
Q 2069 2156 2228 2338 
Q 2531 2678 2651 2914 
Q 2772 3150 2772 3378 
Q 2772 3750 2511 3984 
Q 2250 4219 1831 4219 
Q 1534 4219 1204 4116 
Q 875 4013 500 3803 
L 500 4441 
Q 881 4594 1212 4672 
Q 1544 4750 1819 4750 
Q 2544 4750 2975 4387 
Q 3406 4025 3406 3419 
Q 3406 3131 3298 2873 
Q 3191 2616 2906 2266 
Q 2828 2175 2409 1742 
Q 1991 1309 1228 531 
z
" transform="scale(0.015625)"/>
       </defs>
       <use xlink:href="#DejaVuSans-32"/>
       <use xlink:href="#DejaVuSans-30" x="63.623047"/>
       <use xlink:href="#DejaVuSans-30" x="127.246094"/>
       <use xlink:href="#DejaVuSans-30" x="190.869141"/>
       <use xlink:href="#DejaVuSans-30" x="254.492188"/>
      </g>
     </g>
    </g>
    <g id="xtick_4">
     <g id="line2d_4">
      <g>
       <use xlink:href="#m7b2716afb6" x="230.920934" y="162.432" style="stroke: #000000; stroke-width: 0.8"/>
      </g>
     </g>
     <g id="text_4">
      <!-- 30000 -->
      <g transform="translate(215.014684 177.030437)scale(0.1 -0.1)">
       <defs>
        <path id="DejaVuSans-33" d="M 2597 2516 
Q 3050 2419 3304 2112 
Q 3559 1806 3559 1356 
Q 3559 666 3084 287 
Q 2609 -91 1734 -91 
Q 1441 -91 1130 -33 
Q 819 25 488 141 
L 488 750 
Q 750 597 1062 519 
Q 1375 441 1716 441 
Q 2309 441 2620 675 
Q 2931 909 2931 1356 
Q 2931 1769 2642 2001 
Q 2353 2234 1838 2234 
L 1294 2234 
L 1294 2753 
L 1863 2753 
Q 2328 2753 2575 2939 
Q 2822 3125 2822 3475 
Q 2822 3834 2567 4026 
Q 2313 4219 1838 4219 
Q 1578 4219 1281 4162 
Q 984 4106 628 3988 
L 628 4550 
Q 988 4650 1302 4700 
Q 1616 4750 1894 4750 
Q 2613 4750 3031 4423 
Q 3450 4097 3450 3541 
Q 3450 3153 3228 2886 
Q 3006 2619 2597 2516 
z
" transform="scale(0.015625)"/>
       </defs>
       <use xlink:href="#DejaVuSans-33"/>
       <use xlink:href="#DejaVuSans-30" x="63.623047"/>
       <use xlink:href="#DejaVuSans-30" x="127.246094"/>
       <use xlink:href="#DejaVuSans-30" x="190.869141"/>
       <use xlink:href="#DejaVuSans-30" x="254.492188"/>
      </g>
     </g>
    </g>
    <g id="xtick_5">
     <g id="line2d_5">
      <g>
       <use xlink:href="#m7b2716afb6" x="283.285415" y="162.432" style="stroke: #000000; stroke-width: 0.8"/>
      </g>
     </g>
     <g id="text_5">
      <!-- 40000 -->
      <g transform="translate(267.379165 177.030437)scale(0.1 -0.1)">
       <defs>
        <path id="DejaVuSans-34" d="M 2419 4116 
L 825 1625 
L 2419 1625 
L 2419 4116 
z
M 2253 4666 
L 3047 4666 
L 3047 1625 
L 3713 1625 
L 3713 1100 
L 3047 1100 
L 3047 0 
L 2419 0 
L 2419 1100 
L 313 1100 
L 313 1709 
L 2253 4666 
z
" transform="scale(0.015625)"/>
       </defs>
       <use xlink:href="#DejaVuSans-34"/>
       <use xlink:href="#DejaVuSans-30" x="63.623047"/>
       <use xlink:href="#DejaVuSans-30" x="127.246094"/>
       <use xlink:href="#DejaVuSans-30" x="190.869141"/>
       <use xlink:href="#DejaVuSans-30" x="254.492188"/>
      </g>
     </g>
    </g>
    <g id="xtick_6">
     <g id="line2d_6">
      <g>
       <use xlink:href="#m7b2716afb6" x="335.649896" y="162.432" style="stroke: #000000; stroke-width: 0.8"/>
      </g>
     </g>
     <g id="text_6">
      <!-- 50000 -->
      <g transform="translate(319.743646 177.030437)scale(0.1 -0.1)">
       <defs>
        <path id="DejaVuSans-35" d="M 691 4666 
L 3169 4666 
L 3169 4134 
L 1269 4134 
L 1269 2991 
Q 1406 3038 1543 3061 
Q 1681 3084 1819 3084 
Q 2600 3084 3056 2656 
Q 3513 2228 3513 1497 
Q 3513 744 3044 326 
Q 2575 -91 1722 -91 
Q 1428 -91 1123 -41 
Q 819 9 494 109 
L 494 744 
Q 775 591 1075 516 
Q 1375 441 1709 441 
Q 2250 441 2565 725 
Q 2881 1009 2881 1497 
Q 2881 1984 2565 2268 
Q 2250 2553 1709 2553 
Q 1456 2553 1204 2497 
Q 953 2441 691 2322 
L 691 4666 
z
" transform="scale(0.015625)"/>
       </defs>
       <use xlink:href="#DejaVuSans-35"/>
       <use xlink:href="#DejaVuSans-30" x="63.623047"/>
       <use xlink:href="#DejaVuSans-30" x="127.246094"/>
       <use xlink:href="#DejaVuSans-30" x="190.869141"/>
       <use xlink:href="#DejaVuSans-30" x="254.492188"/>
      </g>
     </g>
    </g>
    <g id="xtick_7">
     <g id="line2d_7">
      <g>
       <use xlink:href="#m7b2716afb6" x="388.014377" y="162.432" style="stroke: #000000; stroke-width: 0.8"/>
      </g>
     </g>
     <g id="text_7">
      <!-- 60000 -->
      <g transform="translate(372.108127 177.030437)scale(0.1 -0.1)">
       <defs>
        <path id="DejaVuSans-36" d="M 2113 2584 
Q 1688 2584 1439 2293 
Q 1191 2003 1191 1497 
Q 1191 994 1439 701 
Q 1688 409 2113 409 
Q 2538 409 2786 701 
Q 3034 994 3034 1497 
Q 3034 2003 2786 2293 
Q 2538 2584 2113 2584 
z
M 3366 4563 
L 3366 3988 
Q 3128 4100 2886 4159 
Q 2644 4219 2406 4219 
Q 1781 4219 1451 3797 
Q 1122 3375 1075 2522 
Q 1259 2794 1537 2939 
Q 1816 3084 2150 3084 
Q 2853 3084 3261 2657 
Q 3669 2231 3669 1497 
Q 3669 778 3244 343 
Q 2819 -91 2113 -91 
Q 1303 -91 875 529 
Q 447 1150 447 2328 
Q 447 3434 972 4092 
Q 1497 4750 2381 4750 
Q 2619 4750 2861 4703 
Q 3103 4656 3366 4563 
z
" transform="scale(0.015625)"/>
       </defs>
       <use xlink:href="#DejaVuSans-36"/>
       <use xlink:href="#DejaVuSans-30" x="63.623047"/>
       <use xlink:href="#DejaVuSans-30" x="127.246094"/>
       <use xlink:href="#DejaVuSans-30" x="190.869141"/>
       <use xlink:href="#DejaVuSans-30" x="254.492188"/>
      </g>
     </g>
    </g>
   </g>
   <g id="matplotlib.axis_2">
    <g id="ytick_1">
     <g id="line2d_8">
      <defs>
       <path id="m772c509af2" d="M 0 0 
L -3.5 0 
" style="stroke: #000000; stroke-width: 0.8"/>
      </defs>
      <g>
       <use xlink:href="#m772c509af2" x="57.6" y="160.419053" style="stroke: #000000; stroke-width: 0.8"/>
      </g>
     </g>
     <g id="text_8">
      <!-- 60 -->
      <g transform="translate(37.875 164.218272)scale(0.1 -0.1)">
       <use xlink:href="#DejaVuSans-36"/>
       <use xlink:href="#DejaVuSans-30" x="63.623047"/>
      </g>
     </g>
    </g>
    <g id="ytick_2">
     <g id="line2d_9">
      <g>
       <use xlink:href="#m772c509af2" x="57.6" y="133.609552" style="stroke: #000000; stroke-width: 0.8"/>
      </g>
     </g>
     <g id="text_9">
      <!-- 70 -->
      <g transform="translate(37.875 137.408771)scale(0.1 -0.1)">
       <defs>
        <path id="DejaVuSans-37" d="M 525 4666 
L 3525 4666 
L 3525 4397 
L 1831 0 
L 1172 0 
L 2766 4134 
L 525 4134 
L 525 4666 
z
" transform="scale(0.015625)"/>
       </defs>
       <use xlink:href="#DejaVuSans-37"/>
       <use xlink:href="#DejaVuSans-30" x="63.623047"/>
      </g>
     </g>
    </g>
    <g id="ytick_3">
     <g id="line2d_10">
      <g>
       <use xlink:href="#m772c509af2" x="57.6" y="106.800051" style="stroke: #000000; stroke-width: 0.8"/>
      </g>
     </g>
     <g id="text_10">
      <!-- 80 -->
      <g transform="translate(37.875 110.59927)scale(0.1 -0.1)">
       <defs>
        <path id="DejaVuSans-38" d="M 2034 2216 
Q 1584 2216 1326 1975 
Q 1069 1734 1069 1313 
Q 1069 891 1326 650 
Q 1584 409 2034 409 
Q 2484 409 2743 651 
Q 3003 894 3003 1313 
Q 3003 1734 2745 1975 
Q 2488 2216 2034 2216 
z
M 1403 2484 
Q 997 2584 770 2862 
Q 544 3141 544 3541 
Q 544 4100 942 4425 
Q 1341 4750 2034 4750 
Q 2731 4750 3128 4425 
Q 3525 4100 3525 3541 
Q 3525 3141 3298 2862 
Q 3072 2584 2669 2484 
Q 3125 2378 3379 2068 
Q 3634 1759 3634 1313 
Q 3634 634 3220 271 
Q 2806 -91 2034 -91 
Q 1263 -91 848 271 
Q 434 634 434 1313 
Q 434 1759 690 2068 
Q 947 2378 1403 2484 
z
M 1172 3481 
Q 1172 3119 1398 2916 
Q 1625 2713 2034 2713 
Q 2441 2713 2670 2916 
Q 2900 3119 2900 3481 
Q 2900 3844 2670 4047 
Q 2441 4250 2034 4250 
Q 1625 4250 1398 4047 
Q 1172 3844 1172 3481 
z
" transform="scale(0.015625)"/>
       </defs>
       <use xlink:href="#DejaVuSans-38"/>
       <use xlink:href="#DejaVuSans-30" x="63.623047"/>
      </g>
     </g>
    </g>
    <g id="ytick_4">
     <g id="line2d_11">
      <g>
       <use xlink:href="#m772c509af2" x="57.6" y="79.99055" style="stroke: #000000; stroke-width: 0.8"/>
      </g>
     </g>
     <g id="text_11">
      <!-- 90 -->
      <g transform="translate(37.875 83.789769)scale(0.1 -0.1)">
       <defs>
        <path id="DejaVuSans-39" d="M 703 97 
L 703 672 
Q 941 559 1184 500 
Q 1428 441 1663 441 
Q 2288 441 2617 861 
Q 2947 1281 2994 2138 
Q 2813 1869 2534 1725 
Q 2256 1581 1919 1581 
Q 1219 1581 811 2004 
Q 403 2428 403 3163 
Q 403 3881 828 4315 
Q 1253 4750 1959 4750 
Q 2769 4750 3195 4129 
Q 3622 3509 3622 2328 
Q 3622 1225 3098 567 
Q 2575 -91 1691 -91 
Q 1453 -91 1209 -44 
Q 966 3 703 97 
z
M 1959 2075 
Q 2384 2075 2632 2365 
Q 2881 2656 2881 3163 
Q 2881 3666 2632 3958 
Q 2384 4250 1959 4250 
Q 1534 4250 1286 3958 
Q 1038 3666 1038 3163 
Q 1038 2656 1286 2365 
Q 1534 2075 1959 2075 
z
" transform="scale(0.015625)"/>
       </defs>
       <use xlink:href="#DejaVuSans-39"/>
       <use xlink:href="#DejaVuSans-30" x="63.623047"/>
      </g>
     </g>
    </g>
    <g id="ytick_5">
     <g id="line2d_12">
      <g>
       <use xlink:href="#m772c509af2" x="57.6" y="53.18105" style="stroke: #000000; stroke-width: 0.8"/>
      </g>
     </g>
     <g id="text_12">
      <!-- 100 -->
      <g transform="translate(31.5125 56.980268)scale(0.1 -0.1)">
       <use xlink:href="#DejaVuSans-31"/>
       <use xlink:href="#DejaVuSans-30" x="63.623047"/>
       <use xlink:href="#DejaVuSans-30" x="127.246094"/>
      </g>
     </g>
    </g>
   </g>
   <g id="line2d_13">
    <path d="M 73.832727 52.2874 
L 73.837964 52.2874 
L 73.937456 71.500875 
L 73.979348 68.596513 
L 73.995057 67.256038 
L 74.057895 76.639363 
L 74.063131 75.745713 
L 74.120732 82.448088 
L 74.136441 81.554438 
L 74.267352 92.278238 
L 74.298771 92.278238 
L 74.356372 91.384588 
L 74.366845 96.746489 
L 74.382554 96.746489 
L 74.780524 96.746489 
L 74.900963 95.316649 
L 75.655011 95.316649 
L 75.770213 93.976173 
L 76.194365 93.976173 
L 76.267676 93.082523 
L 76.272912 95.763474 
L 76.293858 95.763474 
L 76.39335 95.763474 
L 76.508552 98.444424 
L 76.827976 98.444424 
L 76.854158 101.125374 
L 76.937941 100.231724 
L 78.760225 100.231724 
L 78.875427 99.338074 
L 79.671367 99.338074 
L 79.786569 102.019024 
L 82.577596 102.019024 
L 82.692797 101.125374 
L 83.640595 101.125374 
L 83.755796 103.806324 
L 86.494459 103.806324 
L 86.609661 106.487274 
L 109.885672 106.487274 
L 110.000874 109.168224 
L 115.46249 109.168224 
L 115.577691 108.274574 
L 152.363739 108.274574 
L 152.478941 110.955524 
L 162.480557 110.955524 
L 162.595759 113.636474 
L 163.648285 113.636474 
L 163.763487 112.742824 
L 167.261434 112.742824 
L 167.376636 111.849174 
L 209.613826 111.849174 
L 209.729028 110.955524 
L 217.929306 110.955524 
L 218.044508 113.636474 
L 278.67734 113.636474 
L 278.792542 116.317424 
L 322.276007 116.317424 
L 322.391209 118.998374 
L 322.590194 118.998374 
L 322.705396 118.462184 
L 398.487273 118.462184 
L 398.487273 118.462184 
" clip-path="url(#p8e4fd4e7f9)" style="fill: none; stroke: #1f77b4; stroke-width: 1.5; stroke-linecap: square"/>
   </g>
   <g id="line2d_14">
    <path d="M 73.832727 55.862 
L 73.837964 55.862 
L 73.85891 54.78962 
L 73.864146 57.47057 
L 73.953166 55.236445 
L 73.974111 55.236445 
L 74.089313 53.89597 
L 398.487273 53.89597 
L 398.487273 53.89597 
" clip-path="url(#p8e4fd4e7f9)" style="fill: none; stroke: #ff7f0e; stroke-width: 1.5; stroke-linecap: square"/>
   </g>
   <g id="line2d_15">
    <path d="M 73.832727 52.2874 
L 73.837964 52.2874 
L 73.8432 51.751209 
L 73.879855 58.230172 
L 73.900801 56.889697 
L 73.921747 56.889697 
L 73.93222 52.868272 
L 74.00553 62.698422 
L 74.010767 62.698422 
L 74.146914 78.337298 
L 74.162624 76.996823 
L 74.209752 83.699198 
L 74.24117 82.358723 
L 74.298771 82.358723 
L 74.366845 90.401573 
L 74.419209 87.720623 
L 74.523938 87.720623 
L 74.63914 90.401573 
L 74.780524 90.401573 
L 74.81718 95.763474 
L 74.895726 94.869824 
L 75.246568 94.869824 
L 75.36177 93.529348 
L 75.461263 93.529348 
L 75.576464 92.188873 
L 76.194365 92.188873 
L 76.267676 91.295223 
L 76.272912 93.976173 
L 76.293858 93.976173 
L 76.39335 93.976173 
L 76.477134 96.657124 
L 76.503316 95.316649 
L 76.827976 95.316649 
L 76.854158 97.997599 
L 76.937941 97.103949 
L 77.294019 97.103949 
L 77.409221 95.763474 
L 78.760225 95.763474 
L 78.875427 94.869824 
L 79.671367 94.869824 
L 79.786569 97.550774 
L 81.258011 97.550774 
L 81.373213 96.657124 
L 81.551252 96.657124 
L 81.666454 95.763474 
L 82.577596 95.763474 
L 82.692797 94.869824 
L 82.79229 94.869824 
L 82.907492 97.550774 
L 83.640595 97.550774 
L 83.755796 100.231724 
L 84.049038 100.231724 
L 84.164239 99.695534 
L 86.494459 99.695534 
L 86.609661 102.376484 
L 86.724862 102.376484 
L 86.840064 105.057434 
L 93.464171 105.057434 
L 93.579373 103.716959 
L 95.637297 103.716959 
L 95.752499 102.823309 
L 99.585579 102.823309 
L 99.700781 105.504259 
L 109.885672 105.504259 
L 110.000874 108.185209 
L 115.46249 108.185209 
L 115.577691 107.291559 
L 142.566345 107.291559 
L 142.681547 109.972509 
L 152.363739 109.972509 
L 152.478941 112.653459 
L 162.480557 112.653459 
L 162.595759 115.334409 
L 163.648285 115.334409 
L 163.763487 114.440759 
L 167.261434 114.440759 
L 167.376636 113.547109 
L 209.613826 113.547109 
L 209.729028 112.653459 
L 217.929306 112.653459 
L 218.044508 115.334409 
L 278.67734 115.334409 
L 278.792542 114.798219 
L 322.590194 114.798219 
L 322.705396 114.262029 
L 398.487273 114.262029 
L 398.487273 114.262029 
" clip-path="url(#p8e4fd4e7f9)" style="fill: none; stroke: #2ca02c; stroke-width: 1.5; stroke-linecap: square"/>
   </g>
   <g id="line2d_16">
    <path d="M 73.832727 53.18105 
L 73.848437 53.18105 
L 73.995057 72.886033 
L 74.000294 72.886033 
L 74.010767 71.992383 
L 74.016003 74.673333 
L 74.105023 73.109445 
L 74.115495 73.109445 
L 74.235934 79.81182 
L 74.246407 79.81182 
L 74.361609 78.91817 
L 74.366845 78.91817 
L 74.482047 81.599121 
L 74.780524 81.599121 
L 74.906199 89.641971 
L 75.246568 89.641971 
L 75.36177 92.322921 
L 76.267676 92.322921 
L 76.382877 95.003871 
L 76.937941 95.003871 
L 77.053143 97.684821 
L 77.67628 97.684821 
L 77.791482 100.365771 
L 78.760225 100.365771 
L 78.875427 103.046721 
L 81.258011 103.046721 
L 81.373213 102.153071 
L 81.551252 102.153071 
L 81.666454 104.834021 
L 84.049038 104.834021 
L 84.164239 104.297831 
L 86.724862 104.297831 
L 86.840064 106.978781 
L 95.637297 106.978781 
L 95.752499 106.085131 
L 163.648285 106.085131 
L 163.763487 108.766081 
L 209.613826 108.766081 
L 209.729028 111.447032 
L 217.929306 111.447032 
L 218.044508 110.776794 
L 278.67734 110.776794 
L 278.792542 110.240604 
L 322.276007 110.240604 
L 322.391209 112.921554 
L 398.487273 112.921554 
L 398.487273 112.921554 
" clip-path="url(#p8e4fd4e7f9)" style="fill: none; stroke: #d62728; stroke-width: 1.5; stroke-linecap: square"/>
   </g>
   <g id="line2d_17">
    <path d="M 73.832727 53.18105 
L 73.8432 53.18105 
L 73.984584 69.490163 
L 74.010767 66.809213 
L 74.036949 70.830638 
L 74.099786 67.256038 
L 74.120732 67.256038 
L 74.25688 62.340962 
L 74.366845 62.340962 
L 74.487283 59.660012 
L 74.780524 59.660012 
L 74.81718 62.340962 
L 74.89049 61.447312 
L 75.246568 61.447312 
L 75.36177 60.106837 
L 76.194365 60.106837 
L 76.309567 59.213187 
L 76.477134 59.213187 
L 76.592335 57.872712 
L 76.854158 57.872712 
L 76.96936 56.979062 
L 77.294019 56.979062 
L 77.409221 55.638587 
L 78.760225 55.638587 
L 78.875427 54.744937 
L 82.577596 54.744937 
L 82.692797 53.851287 
L 84.049038 53.851287 
L 84.164239 53.315097 
L 93.464171 53.315097 
L 93.579373 51.974622 
L 115.46249 51.974622 
L 115.577691 51.080972 
L 162.480557 51.080972 
L 162.595759 53.761922 
L 163.648285 53.761922 
L 163.763487 52.868272 
L 167.261434 52.868272 
L 167.376636 51.974622 
L 209.613826 51.974622 
L 209.729028 51.080972 
L 322.590194 51.080972 
L 322.705396 50.544782 
L 398.487273 50.544782 
L 398.487273 50.544782 
" clip-path="url(#p8e4fd4e7f9)" style="fill: none; stroke: #9467bd; stroke-width: 1.5; stroke-linecap: square"/>
   </g>
   <g id="line2d_18">
    <path d="M 73.832727 53.18105 
L 73.837964 53.18105 
L 73.968875 50.634147 
L 74.780524 50.634147 
L 74.895726 50.097957 
L 81.551252 50.097957 
L 81.666454 49.204307 
L 96.763133 49.204307 
L 96.878335 48.310657 
L 162.480557 48.310657 
L 162.595759 47.640419 
L 398.487273 47.640419 
L 398.487273 47.640419 
" clip-path="url(#p8e4fd4e7f9)" style="fill: none; stroke: #8c564b; stroke-width: 1.5; stroke-linecap: square"/>
   </g>
   <g id="line2d_19">
    <path d="M 73.832727 52.2874 
L 73.8432 52.2874 
L 74.00553 79.364995 
L 74.010767 79.364995 
L 74.141678 92.099508 
L 74.146914 91.429271 
L 74.204515 97.908234 
L 74.298771 97.908234 
L 74.413973 102.376484 
L 74.780524 102.376484 
L 74.906199 110.419334 
L 75.246568 110.419334 
L 75.36177 113.100284 
L 75.655011 113.100284 
L 75.770213 115.781234 
L 76.267676 115.781234 
L 76.382877 118.462184 
L 76.477134 118.462184 
L 76.592335 121.143134 
L 76.827976 121.143134 
L 76.948414 126.505035 
L 77.294019 126.505035 
L 77.409221 129.185985 
L 77.67628 129.185985 
L 77.791482 131.866935 
L 78.760225 131.866935 
L 78.875427 134.547885 
L 79.671367 134.547885 
L 79.786569 133.654235 
L 81.551252 133.654235 
L 81.666454 136.335185 
L 82.577596 136.335185 
L 82.692797 139.016135 
L 83.640595 139.016135 
L 83.755796 138.122485 
L 84.049038 138.122485 
L 84.164239 137.586295 
L 86.494459 137.586295 
L 86.609661 136.692645 
L 86.724862 136.692645 
L 86.840064 139.373595 
L 96.763133 139.373595 
L 96.878335 142.054545 
L 115.46249 142.054545 
L 115.577691 144.735495 
L 162.480557 144.735495 
L 162.595759 147.416445 
L 163.648285 147.416445 
L 163.763487 150.097395 
L 167.261434 150.097395 
L 167.376636 152.778346 
L 209.613826 152.778346 
L 209.729028 155.459296 
L 217.929306 155.459296 
L 218.044508 154.789058 
L 278.67734 154.789058 
L 278.792542 154.252868 
L 322.276007 154.252868 
L 322.391209 156.933818 
L 322.590194 156.933818 
L 322.705396 156.397628 
L 398.487273 156.397628 
L 398.487273 156.397628 
" clip-path="url(#p8e4fd4e7f9)" style="fill: none; stroke: #e377c2; stroke-width: 1.5; stroke-linecap: square"/>
   </g>
   <g id="line2d_20">
    <path d="M 73.832727 53.18105 
L 73.837964 53.18105 
L 73.979348 49.963909 
L 74.780524 49.963909 
L 74.895726 49.427719 
L 81.551252 49.427719 
L 81.666454 48.534069 
L 96.763133 48.534069 
L 96.878335 47.640419 
L 162.480557 47.640419 
L 162.595759 46.970182 
L 398.487273 46.970182 
L 398.487273 46.970182 
" clip-path="url(#p8e4fd4e7f9)" style="fill: none; stroke: #7f7f7f; stroke-width: 1.5; stroke-linecap: square"/>
   </g>
   <g id="line2d_21">
    <path d="M 73.832727 53.18105 
L 73.8432 53.18105 
L 73.848437 52.510812 
L 73.890328 61.134535 
L 73.995057 76.907458 
L 74.021239 74.673333 
L 74.036949 73.779683 
L 74.07884 80.035233 
L 74.089313 78.694758 
L 74.204515 86.961021 
L 74.209752 86.067371 
L 74.246407 86.067371 
L 74.366845 83.386421 
L 74.482047 86.067371 
L 74.523938 86.067371 
L 74.63914 85.173721 
L 74.780524 85.173721 
L 74.900963 90.535621 
L 75.246568 90.535621 
L 75.36177 93.216571 
L 75.655011 93.216571 
L 75.770213 95.897521 
L 76.39335 95.897521 
L 76.477134 94.557046 
L 76.48237 97.237996 
L 76.498079 97.237996 
L 76.937941 97.237996 
L 77.053143 99.918946 
L 77.294019 99.918946 
L 77.409221 102.599896 
L 77.67628 102.599896 
L 77.791482 105.280846 
L 78.760225 105.280846 
L 78.875427 107.961796 
L 79.671367 107.961796 
L 79.786569 107.068146 
L 81.551252 107.068146 
L 81.666454 109.749097 
L 82.577596 109.749097 
L 82.692797 112.430047 
L 82.79229 112.430047 
L 82.907492 111.536397 
L 83.640595 111.536397 
L 83.755796 110.642747 
L 84.049038 110.642747 
L 84.164239 110.106557 
L 86.494459 110.106557 
L 86.609661 109.212907 
L 86.724862 109.212907 
L 86.840064 108.319256 
L 96.763133 108.319256 
L 96.878335 111.000207 
L 99.585579 111.000207 
L 99.700781 110.106557 
L 109.885672 110.106557 
L 110.000874 108.766081 
L 115.46249 108.766081 
L 115.577691 111.447032 
L 142.566345 111.447032 
L 142.681547 110.553382 
L 152.363739 110.553382 
L 152.478941 109.212907 
L 162.480557 109.212907 
L 162.595759 111.893857 
L 163.648285 111.893857 
L 163.763487 114.574807 
L 167.261434 114.574807 
L 167.376636 117.255757 
L 209.613826 117.255757 
L 209.729028 119.936707 
L 217.929306 119.936707 
L 218.044508 119.266469 
L 278.67734 119.266469 
L 278.792542 118.730279 
L 322.276007 118.730279 
L 322.391209 121.411229 
L 322.590194 121.411229 
L 322.705396 120.875039 
L 398.487273 120.875039 
L 398.487273 120.875039 
" clip-path="url(#p8e4fd4e7f9)" style="fill: none; stroke: #bcbd22; stroke-width: 1.5; stroke-linecap: square"/>
   </g>
   <g id="line2d_22">
    <path d="M 73.832727 55.862 
L 73.837964 55.862 
L 73.921747 53.89597 
L 73.885092 59.928107 
L 73.926983 56.57692 
L 74.063131 72.349843 
L 74.073604 71.456193 
L 74.09455 75.477618 
L 74.157387 74.583968 
L 74.162624 74.583968 
L 74.199279 70.33913 
L 74.230697 74.80738 
L 74.272589 73.91373 
L 74.298771 73.91373 
L 74.366845 71.23278 
L 74.398264 73.91373 
L 74.513466 76.59468 
L 74.523938 76.59468 
L 74.63914 75.70103 
L 74.780524 75.70103 
L 74.81718 73.824365 
L 74.822416 76.505315 
L 74.880017 76.505315 
L 75.246568 76.505315 
L 75.36177 79.186265 
L 75.461263 79.186265 
L 75.576464 77.84579 
L 75.655011 77.84579 
L 75.770213 76.505315 
L 76.194365 76.505315 
L 76.267676 79.186265 
L 76.304331 76.505315 
L 76.39335 76.505315 
L 76.477134 75.16484 
L 76.48237 77.84579 
L 76.498079 77.84579 
L 76.827976 77.84579 
L 76.943177 75.16484 
L 77.294019 75.16484 
L 77.409221 77.84579 
L 77.67628 77.84579 
L 77.791482 75.16484 
L 78.760225 75.16484 
L 78.875427 77.84579 
L 79.671367 77.84579 
L 79.786569 76.95214 
L 81.258011 76.95214 
L 81.373213 76.05849 
L 82.577596 76.05849 
L 82.692797 78.73944 
L 82.79229 78.73944 
L 82.907492 77.84579 
L 83.640595 77.84579 
L 83.755796 76.95214 
L 84.049038 76.95214 
L 84.164239 79.63309 
L 86.494459 79.63309 
L 86.609661 78.73944 
L 86.724862 78.73944 
L 86.840064 77.84579 
L 93.464171 77.84579 
L 93.579373 80.52674 
L 95.637297 80.52674 
L 95.752499 79.63309 
L 96.763133 79.63309 
L 96.878335 78.73944 
L 99.585579 78.73944 
L 99.700781 77.84579 
L 109.885672 77.84579 
L 110.000874 76.505315 
L 115.46249 76.505315 
L 115.577691 79.186265 
L 142.566345 79.186265 
L 142.681547 78.292615 
L 152.363739 78.292615 
L 152.478941 76.95214 
L 162.480557 76.95214 
L 162.595759 76.281903 
L 163.648285 76.281903 
L 163.763487 78.962853 
L 167.261434 78.962853 
L 167.376636 81.643803 
L 209.613826 81.643803 
L 209.729028 84.324753 
L 217.929306 84.324753 
L 218.044508 83.654516 
L 278.67734 83.654516 
L 278.792542 83.118326 
L 322.276007 83.118326 
L 322.391209 80.437375 
L 322.590194 80.437375 
L 322.705396 83.118326 
L 398.487273 83.118326 
L 398.487273 83.118326 
" clip-path="url(#p8e4fd4e7f9)" style="fill: none; stroke: #17becf; stroke-width: 1.5; stroke-linecap: square"/>
   </g>
   <g id="line2d_23">
    <path d="M 73.832727 53.18105 
L 73.837964 53.18105 
L 73.968875 63.90485 
L 74.780524 63.90485 
L 74.895726 66.5858 
L 81.551252 66.5858 
L 81.666454 69.26675 
L 96.763133 69.26675 
L 96.878335 71.9477 
L 162.480557 71.9477 
L 162.595759 74.62865 
L 398.487273 74.62865 
L 398.487273 74.62865 
" clip-path="url(#p8e4fd4e7f9)" style="fill: none; stroke: #1f77b4; stroke-width: 1.5; stroke-linecap: square"/>
   </g>
   <g id="line2d_24">
    <path d="M 73.832727 55.862 
L 73.837964 55.862 
L 73.958402 69.847623 
L 73.968875 67.613498 
L 73.974111 67.613498 
L 74.063131 85.486498 
L 74.115495 84.592848 
L 74.120732 84.592848 
L 74.251643 96.210299 
L 74.298771 96.210299 
L 74.398264 94.422998 
L 74.4035 97.103949 
L 74.523938 97.103949 
L 74.63914 96.210299 
L 74.780524 96.210299 
L 74.906199 94.333633 
L 75.461263 94.333633 
L 75.576464 97.014584 
L 76.194365 97.014584 
L 76.309567 99.695534 
L 76.854158 99.695534 
L 76.96936 102.376484 
L 81.258011 102.376484 
L 81.373213 105.057434 
L 82.79229 105.057434 
L 82.907492 104.163784 
L 84.049038 104.163784 
L 84.164239 106.844734 
L 86.724862 106.844734 
L 86.840064 105.951084 
L 93.464171 105.951084 
L 93.579373 108.632034 
L 95.637297 108.632034 
L 95.752499 111.312984 
L 99.585579 111.312984 
L 99.700781 110.419334 
L 109.885672 110.419334 
L 110.000874 113.100284 
L 142.566345 113.100284 
L 142.681547 112.206634 
L 152.363739 112.206634 
L 152.478941 114.887584 
L 162.480557 114.887584 
L 162.595759 114.217347 
L 278.67734 114.217347 
L 278.792542 116.898297 
L 322.590194 116.898297 
L 322.705396 119.579247 
L 398.487273 119.579247 
L 398.487273 119.579247 
" clip-path="url(#p8e4fd4e7f9)" style="fill: none; stroke: #ff7f0e; stroke-width: 1.5; stroke-linecap: square"/>
   </g>
   <g id="patch_3">
    <path d="M 57.6 162.432 
L 57.6 41.472 
" style="fill: none; stroke: #000000; stroke-width: 0.8; stroke-linejoin: miter; stroke-linecap: square"/>
   </g>
   <g id="patch_4">
    <path d="M 414.72 162.432 
L 414.72 41.472 
" style="fill: none; stroke: #000000; stroke-width: 0.8; stroke-linejoin: miter; stroke-linecap: square"/>
   </g>
   <g id="patch_5">
    <path d="M 57.6 162.432 
L 414.72 162.432 
" style="fill: none; stroke: #000000; stroke-width: 0.8; stroke-linejoin: miter; stroke-linecap: square"/>
   </g>
   <g id="patch_6">
    <path d="M 57.6 41.472 
L 414.72 41.472 
" style="fill: none; stroke: #000000; stroke-width: 0.8; stroke-linejoin: miter; stroke-linecap: square"/>
   </g>
   <g id="text_13">
    <!-- WSP -->
    <g transform="translate(361.832136 118.462184)scale(0.08 -0.08)">
     <defs>
      <path id="DejaVuSans-57" d="M 213 4666 
L 850 4666 
L 1831 722 
L 2809 4666 
L 3519 4666 
L 4500 722 
L 5478 4666 
L 6119 4666 
L 4947 0 
L 4153 0 
L 3169 4050 
L 2175 0 
L 1381 0 
L 213 4666 
z
" transform="scale(0.015625)"/>
      <path id="DejaVuSans-53" d="M 3425 4513 
L 3425 3897 
Q 3066 4069 2747 4153 
Q 2428 4238 2131 4238 
Q 1616 4238 1336 4038 
Q 1056 3838 1056 3469 
Q 1056 3159 1242 3001 
Q 1428 2844 1947 2747 
L 2328 2669 
Q 3034 2534 3370 2195 
Q 3706 1856 3706 1288 
Q 3706 609 3251 259 
Q 2797 -91 1919 -91 
Q 1588 -91 1214 -16 
Q 841 59 441 206 
L 441 856 
Q 825 641 1194 531 
Q 1563 422 1919 422 
Q 2459 422 2753 634 
Q 3047 847 3047 1241 
Q 3047 1584 2836 1778 
Q 2625 1972 2144 2069 
L 1759 2144 
Q 1053 2284 737 2584 
Q 422 2884 422 3419 
Q 422 4038 858 4394 
Q 1294 4750 2059 4750 
Q 2388 4750 2728 4690 
Q 3069 4631 3425 4513 
z
" transform="scale(0.015625)"/>
      <path id="DejaVuSans-50" d="M 1259 4147 
L 1259 2394 
L 2053 2394 
Q 2494 2394 2734 2622 
Q 2975 2850 2975 3272 
Q 2975 3691 2734 3919 
Q 2494 4147 2053 4147 
L 1259 4147 
z
M 628 4666 
L 2053 4666 
Q 2838 4666 3239 4311 
Q 3641 3956 3641 3272 
Q 3641 2581 3239 2228 
Q 2838 1875 2053 1875 
L 1259 1875 
L 1259 0 
L 628 0 
L 628 4666 
z
" transform="scale(0.015625)"/>
     </defs>
     <use xlink:href="#DejaVuSans-57"/>
     <use xlink:href="#DejaVuSans-53" x="98.876953"/>
     <use xlink:href="#DejaVuSans-50" x="162.353516"/>
    </g>
   </g>
   <g id="text_14">
    <!-- Iambic -->
    <g transform="translate(361.832136 53.89597)scale(0.08 -0.08)">
     <defs>
      <path id="DejaVuSans-49" d="M 628 4666 
L 1259 4666 
L 1259 0 
L 628 0 
L 628 4666 
z
" transform="scale(0.015625)"/>
      <path id="DejaVuSans-61" d="M 2194 1759 
Q 1497 1759 1228 1600 
Q 959 1441 959 1056 
Q 959 750 1161 570 
Q 1363 391 1709 391 
Q 2188 391 2477 730 
Q 2766 1069 2766 1631 
L 2766 1759 
L 2194 1759 
z
M 3341 1997 
L 3341 0 
L 2766 0 
L 2766 531 
Q 2569 213 2275 61 
Q 1981 -91 1556 -91 
Q 1019 -91 701 211 
Q 384 513 384 1019 
Q 384 1609 779 1909 
Q 1175 2209 1959 2209 
L 2766 2209 
L 2766 2266 
Q 2766 2663 2505 2880 
Q 2244 3097 1772 3097 
Q 1472 3097 1187 3025 
Q 903 2953 641 2809 
L 641 3341 
Q 956 3463 1253 3523 
Q 1550 3584 1831 3584 
Q 2591 3584 2966 3190 
Q 3341 2797 3341 1997 
z
" transform="scale(0.015625)"/>
      <path id="DejaVuSans-6d" d="M 3328 2828 
Q 3544 3216 3844 3400 
Q 4144 3584 4550 3584 
Q 5097 3584 5394 3201 
Q 5691 2819 5691 2113 
L 5691 0 
L 5113 0 
L 5113 2094 
Q 5113 2597 4934 2840 
Q 4756 3084 4391 3084 
Q 3944 3084 3684 2787 
Q 3425 2491 3425 1978 
L 3425 0 
L 2847 0 
L 2847 2094 
Q 2847 2600 2669 2842 
Q 2491 3084 2119 3084 
Q 1678 3084 1418 2786 
Q 1159 2488 1159 1978 
L 1159 0 
L 581 0 
L 581 3500 
L 1159 3500 
L 1159 2956 
Q 1356 3278 1631 3431 
Q 1906 3584 2284 3584 
Q 2666 3584 2933 3390 
Q 3200 3197 3328 2828 
z
" transform="scale(0.015625)"/>
      <path id="DejaVuSans-62" d="M 3116 1747 
Q 3116 2381 2855 2742 
Q 2594 3103 2138 3103 
Q 1681 3103 1420 2742 
Q 1159 2381 1159 1747 
Q 1159 1113 1420 752 
Q 1681 391 2138 391 
Q 2594 391 2855 752 
Q 3116 1113 3116 1747 
z
M 1159 2969 
Q 1341 3281 1617 3432 
Q 1894 3584 2278 3584 
Q 2916 3584 3314 3078 
Q 3713 2572 3713 1747 
Q 3713 922 3314 415 
Q 2916 -91 2278 -91 
Q 1894 -91 1617 61 
Q 1341 213 1159 525 
L 1159 0 
L 581 0 
L 581 4863 
L 1159 4863 
L 1159 2969 
z
" transform="scale(0.015625)"/>
      <path id="DejaVuSans-69" d="M 603 3500 
L 1178 3500 
L 1178 0 
L 603 0 
L 603 3500 
z
M 603 4863 
L 1178 4863 
L 1178 4134 
L 603 4134 
L 603 4863 
z
" transform="scale(0.015625)"/>
      <path id="DejaVuSans-63" d="M 3122 3366 
L 3122 2828 
Q 2878 2963 2633 3030 
Q 2388 3097 2138 3097 
Q 1578 3097 1268 2742 
Q 959 2388 959 1747 
Q 959 1106 1268 751 
Q 1578 397 2138 397 
Q 2388 397 2633 464 
Q 2878 531 3122 666 
L 3122 134 
Q 2881 22 2623 -34 
Q 2366 -91 2075 -91 
Q 1284 -91 818 406 
Q 353 903 353 1747 
Q 353 2603 823 3093 
Q 1294 3584 2113 3584 
Q 2378 3584 2631 3529 
Q 2884 3475 3122 3366 
z
" transform="scale(0.015625)"/>
     </defs>
     <use xlink:href="#DejaVuSans-49"/>
     <use xlink:href="#DejaVuSans-61" x="29.492188"/>
     <use xlink:href="#DejaVuSans-6d" x="90.771484"/>
     <use xlink:href="#DejaVuSans-62" x="188.183594"/>
     <use xlink:href="#DejaVuSans-69" x="251.660156"/>
     <use xlink:href="#DejaVuSans-63" x="279.443359"/>
    </g>
   </g>
   <g id="text_15">
    <!-- Parse -->
    <g transform="translate(361.832136 114.262029)scale(0.08 -0.08)">
     <defs>
      <path id="DejaVuSans-72" d="M 2631 2963 
Q 2534 3019 2420 3045 
Q 2306 3072 2169 3072 
Q 1681 3072 1420 2755 
Q 1159 2438 1159 1844 
L 1159 0 
L 581 0 
L 581 3500 
L 1159 3500 
L 1159 2956 
Q 1341 3275 1631 3429 
Q 1922 3584 2338 3584 
Q 2397 3584 2469 3576 
Q 2541 3569 2628 3553 
L 2631 2963 
z
" transform="scale(0.015625)"/>
      <path id="DejaVuSans-73" d="M 2834 3397 
L 2834 2853 
Q 2591 2978 2328 3040 
Q 2066 3103 1784 3103 
Q 1356 3103 1142 2972 
Q 928 2841 928 2578 
Q 928 2378 1081 2264 
Q 1234 2150 1697 2047 
L 1894 2003 
Q 2506 1872 2764 1633 
Q 3022 1394 3022 966 
Q 3022 478 2636 193 
Q 2250 -91 1575 -91 
Q 1294 -91 989 -36 
Q 684 19 347 128 
L 347 722 
Q 666 556 975 473 
Q 1284 391 1588 391 
Q 1994 391 2212 530 
Q 2431 669 2431 922 
Q 2431 1156 2273 1281 
Q 2116 1406 1581 1522 
L 1381 1569 
Q 847 1681 609 1914 
Q 372 2147 372 2553 
Q 372 3047 722 3315 
Q 1072 3584 1716 3584 
Q 2034 3584 2315 3537 
Q 2597 3491 2834 3397 
z
" transform="scale(0.015625)"/>
      <path id="DejaVuSans-65" d="M 3597 1894 
L 3597 1613 
L 953 1613 
Q 991 1019 1311 708 
Q 1631 397 2203 397 
Q 2534 397 2845 478 
Q 3156 559 3463 722 
L 3463 178 
Q 3153 47 2828 -22 
Q 2503 -91 2169 -91 
Q 1331 -91 842 396 
Q 353 884 353 1716 
Q 353 2575 817 3079 
Q 1281 3584 2069 3584 
Q 2775 3584 3186 3129 
Q 3597 2675 3597 1894 
z
M 3022 2063 
Q 3016 2534 2758 2815 
Q 2500 3097 2075 3097 
Q 1594 3097 1305 2825 
Q 1016 2553 972 2059 
L 3022 2063 
z
" transform="scale(0.015625)"/>
     </defs>
     <use xlink:href="#DejaVuSans-50"/>
     <use xlink:href="#DejaVuSans-61" x="55.802734"/>
     <use xlink:href="#DejaVuSans-72" x="117.082031"/>
     <use xlink:href="#DejaVuSans-73" x="158.195312"/>
     <use xlink:href="#DejaVuSans-65" x="210.294922"/>
    </g>
   </g>
   <g id="text_16">
    <!-- FootBin -->
    <g transform="translate(361.832136 112.921554)scale(0.08 -0.08)">
     <defs>
      <path id="DejaVuSans-46" d="M 628 4666 
L 3309 4666 
L 3309 4134 
L 1259 4134 
L 1259 2759 
L 3109 2759 
L 3109 2228 
L 1259 2228 
L 1259 0 
L 628 0 
L 628 4666 
z
" transform="scale(0.015625)"/>
      <path id="DejaVuSans-6f" d="M 1959 3097 
Q 1497 3097 1228 2736 
Q 959 2375 959 1747 
Q 959 1119 1226 758 
Q 1494 397 1959 397 
Q 2419 397 2687 759 
Q 2956 1122 2956 1747 
Q 2956 2369 2687 2733 
Q 2419 3097 1959 3097 
z
M 1959 3584 
Q 2709 3584 3137 3096 
Q 3566 2609 3566 1747 
Q 3566 888 3137 398 
Q 2709 -91 1959 -91 
Q 1206 -91 779 398 
Q 353 888 353 1747 
Q 353 2609 779 3096 
Q 1206 3584 1959 3584 
z
" transform="scale(0.015625)"/>
      <path id="DejaVuSans-74" d="M 1172 4494 
L 1172 3500 
L 2356 3500 
L 2356 3053 
L 1172 3053 
L 1172 1153 
Q 1172 725 1289 603 
Q 1406 481 1766 481 
L 2356 481 
L 2356 0 
L 1766 0 
Q 1100 0 847 248 
Q 594 497 594 1153 
L 594 3053 
L 172 3053 
L 172 3500 
L 594 3500 
L 594 4494 
L 1172 4494 
z
" transform="scale(0.015625)"/>
      <path id="DejaVuSans-42" d="M 1259 2228 
L 1259 519 
L 2272 519 
Q 2781 519 3026 730 
Q 3272 941 3272 1375 
Q 3272 1813 3026 2020 
Q 2781 2228 2272 2228 
L 1259 2228 
z
M 1259 4147 
L 1259 2741 
L 2194 2741 
Q 2656 2741 2882 2914 
Q 3109 3088 3109 3444 
Q 3109 3797 2882 3972 
Q 2656 4147 2194 4147 
L 1259 4147 
z
M 628 4666 
L 2241 4666 
Q 2963 4666 3353 4366 
Q 3744 4066 3744 3513 
Q 3744 3084 3544 2831 
Q 3344 2578 2956 2516 
Q 3422 2416 3680 2098 
Q 3938 1781 3938 1306 
Q 3938 681 3513 340 
Q 3088 0 2303 0 
L 628 0 
L 628 4666 
z
" transform="scale(0.015625)"/>
      <path id="DejaVuSans-6e" d="M 3513 2113 
L 3513 0 
L 2938 0 
L 2938 2094 
Q 2938 2591 2744 2837 
Q 2550 3084 2163 3084 
Q 1697 3084 1428 2787 
Q 1159 2491 1159 1978 
L 1159 0 
L 581 0 
L 581 3500 
L 1159 3500 
L 1159 2956 
Q 1366 3272 1645 3428 
Q 1925 3584 2291 3584 
Q 2894 3584 3203 3211 
Q 3513 2838 3513 2113 
z
" transform="scale(0.015625)"/>
     </defs>
     <use xlink:href="#DejaVuSans-46"/>
     <use xlink:href="#DejaVuSans-6f" x="53.894531"/>
     <use xlink:href="#DejaVuSans-6f" x="115.076172"/>
     <use xlink:href="#DejaVuSans-74" x="176.257812"/>
     <use xlink:href="#DejaVuSans-42" x="215.466797"/>
     <use xlink:href="#DejaVuSans-69" x="284.070312"/>
     <use xlink:href="#DejaVuSans-6e" x="311.853516"/>
    </g>
   </g>
   <g id="text_17">
    <!-- WFL -->
    <g transform="translate(361.832136 50.544782)scale(0.08 -0.08)">
     <defs>
      <path id="DejaVuSans-4c" d="M 628 4666 
L 1259 4666 
L 1259 531 
L 3531 531 
L 3531 0 
L 628 0 
L 628 4666 
z
" transform="scale(0.015625)"/>
     </defs>
     <use xlink:href="#DejaVuSans-57"/>
     <use xlink:href="#DejaVuSans-46" x="98.876953"/>
     <use xlink:href="#DejaVuSans-4c" x="156.396484"/>
    </g>
   </g>
   <g id="text_18">
    <!-- WFR -->
    <g transform="translate(361.832136 47.640419)scale(0.08 -0.08)">
     <defs>
      <path id="DejaVuSans-52" d="M 2841 2188 
Q 3044 2119 3236 1894 
Q 3428 1669 3622 1275 
L 4263 0 
L 3584 0 
L 2988 1197 
Q 2756 1666 2539 1819 
Q 2322 1972 1947 1972 
L 1259 1972 
L 1259 0 
L 628 0 
L 628 4666 
L 2053 4666 
Q 2853 4666 3247 4331 
Q 3641 3997 3641 3322 
Q 3641 2881 3436 2590 
Q 3231 2300 2841 2188 
z
M 1259 4147 
L 1259 2491 
L 2053 2491 
Q 2509 2491 2742 2702 
Q 2975 2913 2975 3322 
Q 2975 3731 2742 3939 
Q 2509 4147 2053 4147 
L 1259 4147 
z
" transform="scale(0.015625)"/>
     </defs>
     <use xlink:href="#DejaVuSans-57"/>
     <use xlink:href="#DejaVuSans-46" x="98.876953"/>
     <use xlink:href="#DejaVuSans-52" x="156.396484"/>
    </g>
   </g>
   <g id="text_19">
    <!-- Main-L -->
    <g transform="translate(361.832136 156.397628)scale(0.08 -0.08)">
     <defs>
      <path id="DejaVuSans-4d" d="M 628 4666 
L 1569 4666 
L 2759 1491 
L 3956 4666 
L 4897 4666 
L 4897 0 
L 4281 0 
L 4281 4097 
L 3078 897 
L 2444 897 
L 1241 4097 
L 1241 0 
L 628 0 
L 628 4666 
z
" transform="scale(0.015625)"/>
      <path id="DejaVuSans-2d" d="M 313 2009 
L 1997 2009 
L 1997 1497 
L 313 1497 
L 313 2009 
z
" transform="scale(0.015625)"/>
     </defs>
     <use xlink:href="#DejaVuSans-4d"/>
     <use xlink:href="#DejaVuSans-61" x="86.279297"/>
     <use xlink:href="#DejaVuSans-69" x="147.558594"/>
     <use xlink:href="#DejaVuSans-6e" x="175.341797"/>
     <use xlink:href="#DejaVuSans-2d" x="238.720703"/>
     <use xlink:href="#DejaVuSans-4c" x="274.804688"/>
    </g>
   </g>
   <g id="text_20">
    <!-- Main-R -->
    <g transform="translate(361.832136 46.970182)scale(0.08 -0.08)">
     <use xlink:href="#DejaVuSans-4d"/>
     <use xlink:href="#DejaVuSans-61" x="86.279297"/>
     <use xlink:href="#DejaVuSans-69" x="147.558594"/>
     <use xlink:href="#DejaVuSans-6e" x="175.341797"/>
     <use xlink:href="#DejaVuSans-2d" x="238.720703"/>
     <use xlink:href="#DejaVuSans-52" x="274.804688"/>
    </g>
   </g>
   <g id="text_21">
    <!-- AFL -->
    <g transform="translate(361.832136 120.875039)scale(0.08 -0.08)">
     <defs>
      <path id="DejaVuSans-41" d="M 2188 4044 
L 1331 1722 
L 3047 1722 
L 2188 4044 
z
M 1831 4666 
L 2547 4666 
L 4325 0 
L 3669 0 
L 3244 1197 
L 1141 1197 
L 716 0 
L 50 0 
L 1831 4666 
z
" transform="scale(0.015625)"/>
     </defs>
     <use xlink:href="#DejaVuSans-41"/>
     <use xlink:href="#DejaVuSans-46" x="68.408203"/>
     <use xlink:href="#DejaVuSans-4c" x="125.927734"/>
    </g>
   </g>
   <g id="text_22">
    <!-- AFR -->
    <g transform="translate(361.832136 83.118326)scale(0.08 -0.08)">
     <use xlink:href="#DejaVuSans-41"/>
     <use xlink:href="#DejaVuSans-46" x="68.408203"/>
     <use xlink:href="#DejaVuSans-52" x="125.927734"/>
    </g>
   </g>
   <g id="text_23">
    <!-- Nonfinal -->
    <g transform="translate(361.832136 74.62865)scale(0.08 -0.08)">
     <defs>
      <path id="DejaVuSans-4e" d="M 628 4666 
L 1478 4666 
L 3547 763 
L 3547 4666 
L 4159 4666 
L 4159 0 
L 3309 0 
L 1241 3903 
L 1241 0 
L 628 0 
L 628 4666 
z
" transform="scale(0.015625)"/>
      <path id="DejaVuSans-66" d="M 2375 4863 
L 2375 4384 
L 1825 4384 
Q 1516 4384 1395 4259 
Q 1275 4134 1275 3809 
L 1275 3500 
L 2222 3500 
L 2222 3053 
L 1275 3053 
L 1275 0 
L 697 0 
L 697 3053 
L 147 3053 
L 147 3500 
L 697 3500 
L 697 3744 
Q 697 4328 969 4595 
Q 1241 4863 1831 4863 
L 2375 4863 
z
" transform="scale(0.015625)"/>
      <path id="DejaVuSans-6c" d="M 603 4863 
L 1178 4863 
L 1178 0 
L 603 0 
L 603 4863 
z
" transform="scale(0.015625)"/>
     </defs>
     <use xlink:href="#DejaVuSans-4e"/>
     <use xlink:href="#DejaVuSans-6f" x="74.804688"/>
     <use xlink:href="#DejaVuSans-6e" x="135.986328"/>
     <use xlink:href="#DejaVuSans-66" x="199.365234"/>
     <use xlink:href="#DejaVuSans-69" x="234.570312"/>
     <use xlink:href="#DejaVuSans-6e" x="262.353516"/>
     <use xlink:href="#DejaVuSans-61" x="325.732422"/>
     <use xlink:href="#DejaVuSans-6c" x="387.011719"/>
    </g>
   </g>
   <g id="text_24">
    <!-- Trochaic -->
    <g transform="translate(361.832136 119.579247)scale(0.08 -0.08)">
     <defs>
      <path id="DejaVuSans-54" d="M -19 4666 
L 3928 4666 
L 3928 4134 
L 2272 4134 
L 2272 0 
L 1638 0 
L 1638 4134 
L -19 4134 
L -19 4666 
z
" transform="scale(0.015625)"/>
      <path id="DejaVuSans-68" d="M 3513 2113 
L 3513 0 
L 2938 0 
L 2938 2094 
Q 2938 2591 2744 2837 
Q 2550 3084 2163 3084 
Q 1697 3084 1428 2787 
Q 1159 2491 1159 1978 
L 1159 0 
L 581 0 
L 581 4863 
L 1159 4863 
L 1159 2956 
Q 1366 3272 1645 3428 
Q 1925 3584 2291 3584 
Q 2894 3584 3203 3211 
Q 3513 2838 3513 2113 
z
" transform="scale(0.015625)"/>
     </defs>
     <use xlink:href="#DejaVuSans-54"/>
     <use xlink:href="#DejaVuSans-72" x="46.333984"/>
     <use xlink:href="#DejaVuSans-6f" x="85.197266"/>
     <use xlink:href="#DejaVuSans-63" x="146.378906"/>
     <use xlink:href="#DejaVuSans-68" x="201.359375"/>
     <use xlink:href="#DejaVuSans-61" x="264.738281"/>
     <use xlink:href="#DejaVuSans-69" x="326.017578"/>
     <use xlink:href="#DejaVuSans-63" x="353.800781"/>
    </g>
   </g>
  </g>
  <g id="axes_2">
   <g id="patch_7">
    <path d="M 57.6 307.584 
L 414.72 307.584 
L 414.72 186.624 
L 57.6 186.624 
z
" style="fill: #ffffff"/>
   </g>
   <g id="matplotlib.axis_3">
    <g id="xtick_8">
     <g id="line2d_25">
      <g>
       <use xlink:href="#m7b2716afb6" x="70.586182" y="307.584" style="stroke: #000000; stroke-width: 0.8"/>
      </g>
     </g>
     <g id="text_25">
      <!-- 0 -->
      <g transform="translate(67.404932 322.182437)scale(0.1 -0.1)">
       <use xlink:href="#DejaVuSans-30"/>
      </g>
     </g>
    </g>
    <g id="xtick_9">
     <g id="line2d_26">
      <g>
       <use xlink:href="#m7b2716afb6" x="135.517091" y="307.584" style="stroke: #000000; stroke-width: 0.8"/>
      </g>
     </g>
     <g id="text_26">
      <!-- 20 -->
      <g transform="translate(129.154591 322.182437)scale(0.1 -0.1)">
       <use xlink:href="#DejaVuSans-32"/>
       <use xlink:href="#DejaVuSans-30" x="63.623047"/>
      </g>
     </g>
    </g>
    <g id="xtick_10">
     <g id="line2d_27">
      <g>
       <use xlink:href="#m7b2716afb6" x="200.448" y="307.584" style="stroke: #000000; stroke-width: 0.8"/>
      </g>
     </g>
     <g id="text_27">
      <!-- 40 -->
      <g transform="translate(194.0855 322.182437)scale(0.1 -0.1)">
       <use xlink:href="#DejaVuSans-34"/>
       <use xlink:href="#DejaVuSans-30" x="63.623047"/>
      </g>
     </g>
    </g>
    <g id="xtick_11">
     <g id="line2d_28">
      <g>
       <use xlink:href="#m7b2716afb6" x="265.378909" y="307.584" style="stroke: #000000; stroke-width: 0.8"/>
      </g>
     </g>
     <g id="text_28">
      <!-- 60 -->
      <g transform="translate(259.016409 322.182437)scale(0.1 -0.1)">
       <use xlink:href="#DejaVuSans-36"/>
       <use xlink:href="#DejaVuSans-30" x="63.623047"/>
      </g>
     </g>
    </g>
    <g id="xtick_12">
     <g id="line2d_29">
      <g>
       <use xlink:href="#m7b2716afb6" x="330.309818" y="307.584" style="stroke: #000000; stroke-width: 0.8"/>
      </g>
     </g>
     <g id="text_29">
      <!-- 80 -->
      <g transform="translate(323.947318 322.182437)scale(0.1 -0.1)">
       <use xlink:href="#DejaVuSans-38"/>
       <use xlink:href="#DejaVuSans-30" x="63.623047"/>
      </g>
     </g>
    </g>
    <g id="xtick_13">
     <g id="line2d_30">
      <g>
       <use xlink:href="#m7b2716afb6" x="395.240727" y="307.584" style="stroke: #000000; stroke-width: 0.8"/>
      </g>
     </g>
     <g id="text_30">
      <!-- 100 -->
      <g transform="translate(385.696977 322.182437)scale(0.1 -0.1)">
       <use xlink:href="#DejaVuSans-31"/>
       <use xlink:href="#DejaVuSans-30" x="63.623047"/>
       <use xlink:href="#DejaVuSans-30" x="127.246094"/>
      </g>
     </g>
    </g>
   </g>
   <g id="matplotlib.axis_4">
    <g id="ytick_6">
     <g id="line2d_31">
      <g>
       <use xlink:href="#m772c509af2" x="57.6" y="302.095298" style="stroke: #000000; stroke-width: 0.8"/>
      </g>
     </g>
     <g id="text_31">
      <!-- 0 -->
      <g transform="translate(44.2375 305.894517)scale(0.1 -0.1)">
       <use xlink:href="#DejaVuSans-30"/>
      </g>
     </g>
    </g>
    <g id="ytick_7">
     <g id="line2d_32">
      <g>
       <use xlink:href="#m772c509af2" x="57.6" y="278.396238" style="stroke: #000000; stroke-width: 0.8"/>
      </g>
     </g>
     <g id="text_32">
      <!-- 2500 -->
      <g transform="translate(25.15 282.195457)scale(0.1 -0.1)">
       <use xlink:href="#DejaVuSans-32"/>
       <use xlink:href="#DejaVuSans-35" x="63.623047"/>
       <use xlink:href="#DejaVuSans-30" x="127.246094"/>
       <use xlink:href="#DejaVuSans-30" x="190.869141"/>
      </g>
     </g>
    </g>
    <g id="ytick_8">
     <g id="line2d_33">
      <g>
       <use xlink:href="#m772c509af2" x="57.6" y="254.697179" style="stroke: #000000; stroke-width: 0.8"/>
      </g>
     </g>
     <g id="text_33">
      <!-- 5000 -->
      <g transform="translate(25.15 258.496397)scale(0.1 -0.1)">
       <use xlink:href="#DejaVuSans-35"/>
       <use xlink:href="#DejaVuSans-30" x="63.623047"/>
       <use xlink:href="#DejaVuSans-30" x="127.246094"/>
       <use xlink:href="#DejaVuSans-30" x="190.869141"/>
      </g>
     </g>
    </g>
    <g id="ytick_9">
     <g id="line2d_34">
      <g>
       <use xlink:href="#m772c509af2" x="57.6" y="230.998119" style="stroke: #000000; stroke-width: 0.8"/>
      </g>
     </g>
     <g id="text_34">
      <!-- 7500 -->
      <g transform="translate(25.15 234.797338)scale(0.1 -0.1)">
       <use xlink:href="#DejaVuSans-37"/>
       <use xlink:href="#DejaVuSans-35" x="63.623047"/>
       <use xlink:href="#DejaVuSans-30" x="127.246094"/>
       <use xlink:href="#DejaVuSans-30" x="190.869141"/>
      </g>
     </g>
    </g>
    <g id="ytick_10">
     <g id="line2d_35">
      <g>
       <use xlink:href="#m772c509af2" x="57.6" y="207.29906" style="stroke: #000000; stroke-width: 0.8"/>
      </g>
     </g>
     <g id="text_35">
      <!-- 10000 -->
      <g transform="translate(18.7875 211.098278)scale(0.1 -0.1)">
       <use xlink:href="#DejaVuSans-31"/>
       <use xlink:href="#DejaVuSans-30" x="63.623047"/>
       <use xlink:href="#DejaVuSans-30" x="127.246094"/>
       <use xlink:href="#DejaVuSans-30" x="190.869141"/>
       <use xlink:href="#DejaVuSans-30" x="254.492188"/>
      </g>
     </g>
    </g>
   </g>
   <g id="line2d_36">
    <path d="M 73.832727 302.076339 
L 77.079273 302.085818 
L 80.325818 302.085818 
L 83.572364 302.085818 
L 86.818909 302.085818 
L 90.065455 302.085818 
L 93.312 302.085818 
L 96.558545 302.085818 
L 99.805091 302.085818 
L 103.051636 302.085818 
L 106.298182 302.085818 
L 109.544727 302.066859 
L 112.791273 302.076339 
L 116.037818 302.085818 
L 119.284364 302.085818 
L 122.530909 302.085818 
L 125.777455 302.085818 
L 129.024 302.085818 
L 132.270545 302.085818 
L 135.517091 302.085818 
L 138.763636 302.085818 
L 142.010182 302.085818 
L 145.256727 302.076339 
L 148.503273 302.085818 
L 151.749818 302.085818 
L 154.996364 302.085818 
L 158.242909 302.085818 
L 161.489455 302.085818 
L 164.736 302.076339 
L 167.982545 302.085818 
L 171.229091 302.085818 
L 174.475636 302.076339 
L 177.722182 302.085818 
L 180.968727 302.076339 
L 184.215273 302.085818 
L 187.461818 302.085818 
L 190.708364 302.085818 
L 193.954909 302.076339 
L 197.201455 302.085818 
L 200.448 302.076339 
L 203.694545 302.085818 
L 206.941091 302.057379 
L 210.187636 302.085818 
L 213.434182 302.076339 
L 216.680727 302.085818 
L 219.927273 302.085818 
L 223.173818 302.085818 
L 226.420364 302.066859 
L 229.666909 302.066859 
L 232.913455 302.076339 
L 236.16 302.076339 
L 239.406545 302.085818 
L 242.653091 302.057379 
L 245.899636 302.057379 
L 249.146182 302.000502 
L 252.392727 301.991022 
L 255.639273 302.085818 
L 258.885818 302.085818 
L 262.132364 302.03842 
L 265.378909 301.867787 
L 268.625455 301.630796 
L 271.872 302.057379 
L 275.118545 302.066859 
L 278.365091 301.317969 
L 281.611636 301.706633 
L 284.858182 301.744552 
L 288.104727 301.118897 
L 291.351273 301.962583 
L 294.597818 301.867787 
L 297.844364 301.943624 
L 301.090909 301.460163 
L 304.337455 302.0479 
L 307.584 301.943624 
L 310.830545 301.450683 
L 314.077091 301.403285 
L 317.323636 300.133016 
L 320.570182 300.445843 
L 323.816727 299.222972 
L 327.063273 301.564439 
L 330.309818 300.237292 
L 333.556364 301.706633 
L 336.802909 300.559599 
L 340.049455 301.355887 
L 343.296 297.668313 
L 346.542545 301.678194 
L 349.789091 289.895022 
L 353.035636 298.161254 
L 356.282182 300.057179 
L 359.528727 296.985781 
L 362.775273 283.448878 
L 366.021818 291.999498 
L 369.268364 253.028765 
L 372.514909 284.358922 
L 375.761455 283.780665 
L 379.008 299.981342 
L 382.254545 295.554357 
L 385.501091 225.4241 
L 388.747636 287.041655 
L 391.994182 192.122182 
L 395.240727 223.16795 
L 398.487273 301.52652 
" clip-path="url(#p05b4781308)" style="fill: none; stroke: #1f77b4; stroke-width: 1.5; stroke-linecap: square"/>
   </g>
   <g id="patch_8">
    <path d="M 57.6 307.584 
L 57.6 186.624 
" style="fill: none; stroke: #000000; stroke-width: 0.8; stroke-linejoin: miter; stroke-linecap: square"/>
   </g>
   <g id="patch_9">
    <path d="M 414.72 307.584 
L 414.72 186.624 
" style="fill: none; stroke: #000000; stroke-width: 0.8; stroke-linejoin: miter; stroke-linecap: square"/>
   </g>
   <g id="patch_10">
    <path d="M 57.6 307.584 
L 414.72 307.584 
" style="fill: none; stroke: #000000; stroke-width: 0.8; stroke-linejoin: miter; stroke-linecap: square"/>
   </g>
   <g id="patch_11">
    <path d="M 57.6 186.624 
L 414.72 186.624 
" style="fill: none; stroke: #000000; stroke-width: 0.8; stroke-linejoin: miter; stroke-linecap: square"/>
   </g>
  </g>
 </g>
 <defs>
  <clipPath id="p8e4fd4e7f9">
   <rect x="57.6" y="41.472" width="357.12" height="120.96"/>
  </clipPath>
  <clipPath id="p05b4781308">
   <rect x="57.6" y="186.624" width="357.12" height="120.96"/>
  </clipPath>
 </defs>
</svg>
