<?xml version="1.0" encoding="utf-8" standalone="no"?>
<!DOCTYPE svg PUBLIC "-//W3C//DTD SVG 1.1//EN"
  "http://www.w3.org/Graphics/SVG/1.1/DTD/svg11.dtd">
<svg xmlns:xlink="http://www.w3.org/1999/xlink" width="460.8pt" height="345.6pt" viewBox="0 0 460.8 345.6" xmlns="http://www.w3.org/2000/svg" version="1.1">
 <metadata>
  <rdf:RDF xmlns:dc="http://purl.org/dc/elements/1.1/" xmlns:cc="http://creativecommons.org/ns#" xmlns:rdf="http://www.w3.org/1999/02/22-rdf-syntax-ns#">
   <cc:Work>
    <dc:type rdf:resource="http://purl.org/dc/dcmitype/StillImage"/>
    <dc:date>2022-05-14T04:47:15.885137</dc:date>
    <dc:format>image/svg+xml</dc:format>
    <dc:creator>
     <cc:Agent>
      <dc:title>Matplotlib v3.5.1, https://matplotlib.org/</dc:title>
     </cc:Agent>
    </dc:creator>
   </cc:Work>
  </rdf:RDF>
 </metadata>
 <defs>
  <style type="text/css">*{stroke-linejoin: round; stroke-linecap: butt}</style>
 </defs>
 <g id="figure_1">
  <g id="patch_1">
   <path d="M 0 345.6 
L 460.8 345.6 
L 460.8 0 
L 0 0 
z
" style="fill: #ffffff"/>
  </g>
  <g id="axes_1">
   <g id="patch_2">
    <path d="M 57.6 162.432 
L 414.72 162.432 
L 414.72 41.472 
L 57.6 41.472 
z
" style="fill: #ffffff"/>
   </g>
   <g id="matplotlib.axis_1">
    <g id="xtick_1">
     <g id="line2d_1">
      <defs>
       <path id="me4211c8d60" d="M 0 0 
L 0 3.5 
" style="stroke: #000000; stroke-width: 0.8"/>
      </defs>
      <g>
       <use xlink:href="#me4211c8d60" x="73.827491" y="162.432" style="stroke: #000000; stroke-width: 0.8"/>
      </g>
     </g>
     <g id="text_1">
      <!-- 0 -->
      <g transform="translate(70.646241 177.030437)scale(0.1 -0.1)">
       <defs>
        <path id="DejaVuSans-30" d="M 2034 4250 
Q 1547 4250 1301 3770 
Q 1056 3291 1056 2328 
Q 1056 1369 1301 889 
Q 1547 409 2034 409 
Q 2525 409 2770 889 
Q 3016 1369 3016 2328 
Q 3016 3291 2770 3770 
Q 2525 4250 2034 4250 
z
M 2034 4750 
Q 2819 4750 3233 4129 
Q 3647 3509 3647 2328 
Q 3647 1150 3233 529 
Q 2819 -91 2034 -91 
Q 1250 -91 836 529 
Q 422 1150 422 2328 
Q 422 3509 836 4129 
Q 1250 4750 2034 4750 
z
" transform="scale(0.015625)"/>
       </defs>
       <use xlink:href="#DejaVuSans-30"/>
      </g>
     </g>
    </g>
    <g id="xtick_2">
     <g id="line2d_2">
      <g>
       <use xlink:href="#me4211c8d60" x="126.191972" y="162.432" style="stroke: #000000; stroke-width: 0.8"/>
      </g>
     </g>
     <g id="text_2">
      <!-- 10000 -->
      <g transform="translate(110.285722 177.030437)scale(0.1 -0.1)">
       <defs>
        <path id="DejaVuSans-31" d="M 794 531 
L 1825 531 
L 1825 4091 
L 703 3866 
L 703 4441 
L 1819 4666 
L 2450 4666 
L 2450 531 
L 3481 531 
L 3481 0 
L 794 0 
L 794 531 
z
" transform="scale(0.015625)"/>
       </defs>
       <use xlink:href="#DejaVuSans-31"/>
       <use xlink:href="#DejaVuSans-30" x="63.623047"/>
       <use xlink:href="#DejaVuSans-30" x="127.246094"/>
       <use xlink:href="#DejaVuSans-30" x="190.869141"/>
       <use xlink:href="#DejaVuSans-30" x="254.492188"/>
      </g>
     </g>
    </g>
    <g id="xtick_3">
     <g id="line2d_3">
      <g>
       <use xlink:href="#me4211c8d60" x="178.556453" y="162.432" style="stroke: #000000; stroke-width: 0.8"/>
      </g>
     </g>
     <g id="text_3">
      <!-- 20000 -->
      <g transform="translate(162.650203 177.030437)scale(0.1 -0.1)">
       <defs>
        <path id="DejaVuSans-32" d="M 1228 531 
L 3431 531 
L 3431 0 
L 469 0 
L 469 531 
Q 828 903 1448 1529 
Q 2069 2156 2228 2338 
Q 2531 2678 2651 2914 
Q 2772 3150 2772 3378 
Q 2772 3750 2511 3984 
Q 2250 4219 1831 4219 
Q 1534 4219 1204 4116 
Q 875 4013 500 3803 
L 500 4441 
Q 881 4594 1212 4672 
Q 1544 4750 1819 4750 
Q 2544 4750 2975 4387 
Q 3406 4025 3406 3419 
Q 3406 3131 3298 2873 
Q 3191 2616 2906 2266 
Q 2828 2175 2409 1742 
Q 1991 1309 1228 531 
z
" transform="scale(0.015625)"/>
       </defs>
       <use xlink:href="#DejaVuSans-32"/>
       <use xlink:href="#DejaVuSans-30" x="63.623047"/>
       <use xlink:href="#DejaVuSans-30" x="127.246094"/>
       <use xlink:href="#DejaVuSans-30" x="190.869141"/>
       <use xlink:href="#DejaVuSans-30" x="254.492188"/>
      </g>
     </g>
    </g>
    <g id="xtick_4">
     <g id="line2d_4">
      <g>
       <use xlink:href="#me4211c8d60" x="230.920934" y="162.432" style="stroke: #000000; stroke-width: 0.8"/>
      </g>
     </g>
     <g id="text_4">
      <!-- 30000 -->
      <g transform="translate(215.014684 177.030437)scale(0.1 -0.1)">
       <defs>
        <path id="DejaVuSans-33" d="M 2597 2516 
Q 3050 2419 3304 2112 
Q 3559 1806 3559 1356 
Q 3559 666 3084 287 
Q 2609 -91 1734 -91 
Q 1441 -91 1130 -33 
Q 819 25 488 141 
L 488 750 
Q 750 597 1062 519 
Q 1375 441 1716 441 
Q 2309 441 2620 675 
Q 2931 909 2931 1356 
Q 2931 1769 2642 2001 
Q 2353 2234 1838 2234 
L 1294 2234 
L 1294 2753 
L 1863 2753 
Q 2328 2753 2575 2939 
Q 2822 3125 2822 3475 
Q 2822 3834 2567 4026 
Q 2313 4219 1838 4219 
Q 1578 4219 1281 4162 
Q 984 4106 628 3988 
L 628 4550 
Q 988 4650 1302 4700 
Q 1616 4750 1894 4750 
Q 2613 4750 3031 4423 
Q 3450 4097 3450 3541 
Q 3450 3153 3228 2886 
Q 3006 2619 2597 2516 
z
" transform="scale(0.015625)"/>
       </defs>
       <use xlink:href="#DejaVuSans-33"/>
       <use xlink:href="#DejaVuSans-30" x="63.623047"/>
       <use xlink:href="#DejaVuSans-30" x="127.246094"/>
       <use xlink:href="#DejaVuSans-30" x="190.869141"/>
       <use xlink:href="#DejaVuSans-30" x="254.492188"/>
      </g>
     </g>
    </g>
    <g id="xtick_5">
     <g id="line2d_5">
      <g>
       <use xlink:href="#me4211c8d60" x="283.285415" y="162.432" style="stroke: #000000; stroke-width: 0.8"/>
      </g>
     </g>
     <g id="text_5">
      <!-- 40000 -->
      <g transform="translate(267.379165 177.030437)scale(0.1 -0.1)">
       <defs>
        <path id="DejaVuSans-34" d="M 2419 4116 
L 825 1625 
L 2419 1625 
L 2419 4116 
z
M 2253 4666 
L 3047 4666 
L 3047 1625 
L 3713 1625 
L 3713 1100 
L 3047 1100 
L 3047 0 
L 2419 0 
L 2419 1100 
L 313 1100 
L 313 1709 
L 2253 4666 
z
" transform="scale(0.015625)"/>
       </defs>
       <use xlink:href="#DejaVuSans-34"/>
       <use xlink:href="#DejaVuSans-30" x="63.623047"/>
       <use xlink:href="#DejaVuSans-30" x="127.246094"/>
       <use xlink:href="#DejaVuSans-30" x="190.869141"/>
       <use xlink:href="#DejaVuSans-30" x="254.492188"/>
      </g>
     </g>
    </g>
    <g id="xtick_6">
     <g id="line2d_6">
      <g>
       <use xlink:href="#me4211c8d60" x="335.649896" y="162.432" style="stroke: #000000; stroke-width: 0.8"/>
      </g>
     </g>
     <g id="text_6">
      <!-- 50000 -->
      <g transform="translate(319.743646 177.030437)scale(0.1 -0.1)">
       <defs>
        <path id="DejaVuSans-35" d="M 691 4666 
L 3169 4666 
L 3169 4134 
L 1269 4134 
L 1269 2991 
Q 1406 3038 1543 3061 
Q 1681 3084 1819 3084 
Q 2600 3084 3056 2656 
Q 3513 2228 3513 1497 
Q 3513 744 3044 326 
Q 2575 -91 1722 -91 
Q 1428 -91 1123 -41 
Q 819 9 494 109 
L 494 744 
Q 775 591 1075 516 
Q 1375 441 1709 441 
Q 2250 441 2565 725 
Q 2881 1009 2881 1497 
Q 2881 1984 2565 2268 
Q 2250 2553 1709 2553 
Q 1456 2553 1204 2497 
Q 953 2441 691 2322 
L 691 4666 
z
" transform="scale(0.015625)"/>
       </defs>
       <use xlink:href="#DejaVuSans-35"/>
       <use xlink:href="#DejaVuSans-30" x="63.623047"/>
       <use xlink:href="#DejaVuSans-30" x="127.246094"/>
       <use xlink:href="#DejaVuSans-30" x="190.869141"/>
       <use xlink:href="#DejaVuSans-30" x="254.492188"/>
      </g>
     </g>
    </g>
    <g id="xtick_7">
     <g id="line2d_7">
      <g>
       <use xlink:href="#me4211c8d60" x="388.014377" y="162.432" style="stroke: #000000; stroke-width: 0.8"/>
      </g>
     </g>
     <g id="text_7">
      <!-- 60000 -->
      <g transform="translate(372.108127 177.030437)scale(0.1 -0.1)">
       <defs>
        <path id="DejaVuSans-36" d="M 2113 2584 
Q 1688 2584 1439 2293 
Q 1191 2003 1191 1497 
Q 1191 994 1439 701 
Q 1688 409 2113 409 
Q 2538 409 2786 701 
Q 3034 994 3034 1497 
Q 3034 2003 2786 2293 
Q 2538 2584 2113 2584 
z
M 3366 4563 
L 3366 3988 
Q 3128 4100 2886 4159 
Q 2644 4219 2406 4219 
Q 1781 4219 1451 3797 
Q 1122 3375 1075 2522 
Q 1259 2794 1537 2939 
Q 1816 3084 2150 3084 
Q 2853 3084 3261 2657 
Q 3669 2231 3669 1497 
Q 3669 778 3244 343 
Q 2819 -91 2113 -91 
Q 1303 -91 875 529 
Q 447 1150 447 2328 
Q 447 3434 972 4092 
Q 1497 4750 2381 4750 
Q 2619 4750 2861 4703 
Q 3103 4656 3366 4563 
z
" transform="scale(0.015625)"/>
       </defs>
       <use xlink:href="#DejaVuSans-36"/>
       <use xlink:href="#DejaVuSans-30" x="63.623047"/>
       <use xlink:href="#DejaVuSans-30" x="127.246094"/>
       <use xlink:href="#DejaVuSans-30" x="190.869141"/>
       <use xlink:href="#DejaVuSans-30" x="254.492188"/>
      </g>
     </g>
    </g>
   </g>
   <g id="matplotlib.axis_2">
    <g id="ytick_1">
     <g id="line2d_8">
      <defs>
       <path id="m232b90db1a" d="M 0 0 
L -3.5 0 
" style="stroke: #000000; stroke-width: 0.8"/>
      </defs>
      <g>
       <use xlink:href="#m232b90db1a" x="57.6" y="138.327971" style="stroke: #000000; stroke-width: 0.8"/>
      </g>
     </g>
     <g id="text_8">
      <!-- 70 -->
      <g transform="translate(37.875 142.12719)scale(0.1 -0.1)">
       <defs>
        <path id="DejaVuSans-37" d="M 525 4666 
L 3525 4666 
L 3525 4397 
L 1831 0 
L 1172 0 
L 2766 4134 
L 525 4134 
L 525 4666 
z
" transform="scale(0.015625)"/>
       </defs>
       <use xlink:href="#DejaVuSans-37"/>
       <use xlink:href="#DejaVuSans-30" x="63.623047"/>
      </g>
     </g>
    </g>
    <g id="ytick_2">
     <g id="line2d_9">
      <g>
       <use xlink:href="#m232b90db1a" x="57.6" y="111.936698" style="stroke: #000000; stroke-width: 0.8"/>
      </g>
     </g>
     <g id="text_9">
      <!-- 80 -->
      <g transform="translate(37.875 115.735917)scale(0.1 -0.1)">
       <defs>
        <path id="DejaVuSans-38" d="M 2034 2216 
Q 1584 2216 1326 1975 
Q 1069 1734 1069 1313 
Q 1069 891 1326 650 
Q 1584 409 2034 409 
Q 2484 409 2743 651 
Q 3003 894 3003 1313 
Q 3003 1734 2745 1975 
Q 2488 2216 2034 2216 
z
M 1403 2484 
Q 997 2584 770 2862 
Q 544 3141 544 3541 
Q 544 4100 942 4425 
Q 1341 4750 2034 4750 
Q 2731 4750 3128 4425 
Q 3525 4100 3525 3541 
Q 3525 3141 3298 2862 
Q 3072 2584 2669 2484 
Q 3125 2378 3379 2068 
Q 3634 1759 3634 1313 
Q 3634 634 3220 271 
Q 2806 -91 2034 -91 
Q 1263 -91 848 271 
Q 434 634 434 1313 
Q 434 1759 690 2068 
Q 947 2378 1403 2484 
z
M 1172 3481 
Q 1172 3119 1398 2916 
Q 1625 2713 2034 2713 
Q 2441 2713 2670 2916 
Q 2900 3119 2900 3481 
Q 2900 3844 2670 4047 
Q 2441 4250 2034 4250 
Q 1625 4250 1398 4047 
Q 1172 3844 1172 3481 
z
" transform="scale(0.015625)"/>
       </defs>
       <use xlink:href="#DejaVuSans-38"/>
       <use xlink:href="#DejaVuSans-30" x="63.623047"/>
      </g>
     </g>
    </g>
    <g id="ytick_3">
     <g id="line2d_10">
      <g>
       <use xlink:href="#m232b90db1a" x="57.6" y="85.545425" style="stroke: #000000; stroke-width: 0.8"/>
      </g>
     </g>
     <g id="text_10">
      <!-- 90 -->
      <g transform="translate(37.875 89.344644)scale(0.1 -0.1)">
       <defs>
        <path id="DejaVuSans-39" d="M 703 97 
L 703 672 
Q 941 559 1184 500 
Q 1428 441 1663 441 
Q 2288 441 2617 861 
Q 2947 1281 2994 2138 
Q 2813 1869 2534 1725 
Q 2256 1581 1919 1581 
Q 1219 1581 811 2004 
Q 403 2428 403 3163 
Q 403 3881 828 4315 
Q 1253 4750 1959 4750 
Q 2769 4750 3195 4129 
Q 3622 3509 3622 2328 
Q 3622 1225 3098 567 
Q 2575 -91 1691 -91 
Q 1453 -91 1209 -44 
Q 966 3 703 97 
z
M 1959 2075 
Q 2384 2075 2632 2365 
Q 2881 2656 2881 3163 
Q 2881 3666 2632 3958 
Q 2384 4250 1959 4250 
Q 1534 4250 1286 3958 
Q 1038 3666 1038 3163 
Q 1038 2656 1286 2365 
Q 1534 2075 1959 2075 
z
" transform="scale(0.015625)"/>
       </defs>
       <use xlink:href="#DejaVuSans-39"/>
       <use xlink:href="#DejaVuSans-30" x="63.623047"/>
      </g>
     </g>
    </g>
    <g id="ytick_4">
     <g id="line2d_11">
      <g>
       <use xlink:href="#m232b90db1a" x="57.6" y="59.154153" style="stroke: #000000; stroke-width: 0.8"/>
      </g>
     </g>
     <g id="text_11">
      <!-- 100 -->
      <g transform="translate(31.5125 62.953371)scale(0.1 -0.1)">
       <use xlink:href="#DejaVuSans-31"/>
       <use xlink:href="#DejaVuSans-30" x="63.623047"/>
       <use xlink:href="#DejaVuSans-30" x="127.246094"/>
      </g>
     </g>
    </g>
   </g>
   <g id="line2d_12">
    <path d="M 73.832727 61.79328 
L 73.837964 61.79328 
L 73.8432 61.133498 
L 73.869382 68.171171 
L 73.900801 67.643345 
L 74.036949 85.237527 
L 74.042185 84.357818 
L 74.047422 84.357818 
L 74.16786 89.108247 
L 74.246407 89.108247 
L 74.366845 94.826356 
L 74.508229 94.826356 
L 74.623431 97.465484 
L 74.838125 97.465484 
L 74.9638 105.382865 
L 74.979509 105.382865 
L 75.094711 108.021993 
L 75.157549 108.021993 
L 75.178494 106.262575 
L 75.183731 108.901702 
L 75.257041 108.901702 
L 75.372243 111.540829 
L 75.408898 111.540829 
L 75.5241 114.179956 
L 75.539809 114.179956 
L 75.655011 116.819084 
L 75.665484 116.819084 
L 75.780686 116.291258 
L 75.916834 116.291258 
L 76.032035 118.930385 
L 76.052981 118.930385 
L 76.168183 118.050676 
L 82.101079 118.050676 
L 82.216281 117.170967 
L 84.316096 117.170967 
L 84.431298 116.291258 
L 85.352913 116.291258 
L 85.468115 115.411549 
L 88.086339 115.411549 
L 88.201541 114.53184 
L 99.7898 114.53184 
L 99.905002 113.652131 
L 102.795522 113.652131 
L 102.910724 116.291258 
L 122.322237 116.291258 
L 122.437438 118.930385 
L 127.899054 118.930385 
L 128.014256 118.050676 
L 139.895756 118.050676 
L 140.010958 117.610822 
L 164.266186 117.610822 
L 164.381388 116.731113 
L 168.31396 116.731113 
L 168.429162 119.37024 
L 323.019583 119.37024 
L 323.134785 122.009367 
L 398.487273 122.009367 
L 398.487273 122.009367 
" clip-path="url(#pbceca35488)" style="fill: none; stroke: #1f77b4; stroke-width: 1.5; stroke-linecap: square"/>
   </g>
   <g id="line2d_13">
    <path d="M 73.832727 59.154153 
L 73.895565 62.672989 
L 73.942693 60.033862 
L 74.089313 60.033862 
L 74.204515 62.672989 
L 74.979509 62.672989 
L 75.094711 65.312116 
L 75.665484 65.312116 
L 75.712612 67.951244 
L 75.77545 65.312116 
L 398.487273 65.312116 
L 398.487273 65.312116 
" clip-path="url(#pbceca35488)" style="fill: none; stroke: #ff7f0e; stroke-width: 1.5; stroke-linecap: square"/>
   </g>
   <g id="line2d_14">
    <path d="M 73.832727 61.79328 
L 73.8432 60.913571 
L 73.906038 67.951244 
L 73.91651 67.951244 
L 73.921747 66.63168 
L 73.958402 73.669353 
L 73.989821 73.669353 
L 74.09455 82.026589 
L 74.110259 80.707025 
L 74.115495 80.707025 
L 74.183569 80.1792 
L 74.141678 82.818327 
L 74.204515 82.818327 
L 74.220224 82.818327 
L 74.324953 88.096582 
L 74.335426 87.216873 
L 74.408737 87.216873 
L 74.523938 85.897309 
L 74.529175 85.897309 
L 74.644377 84.577745 
L 74.785761 84.577745 
L 74.87478 82.5984 
L 74.880017 85.237527 
L 74.89049 85.237527 
L 75.03711 85.237527 
L 75.147076 82.5984 
L 75.267514 88.756364 
L 75.408898 88.756364 
L 75.5241 91.395491 
L 75.539809 91.395491 
L 75.655011 94.034618 
L 75.665484 94.034618 
L 75.791159 92.187229 
L 75.916834 92.187229 
L 76.032035 94.826356 
L 76.052981 94.826356 
L 76.168183 93.946647 
L 76.655173 93.946647 
L 76.770375 96.585775 
L 79.037757 96.585775 
L 79.152959 99.224902 
L 82.101079 99.224902 
L 82.216281 98.345193 
L 82.378611 98.345193 
L 82.493812 100.98432 
L 84.316096 100.98432 
L 84.431298 100.104611 
L 85.352913 100.104611 
L 85.468115 99.224902 
L 86.93432 99.224902 
L 87.049522 101.864029 
L 88.086339 101.864029 
L 88.201541 100.98432 
L 99.7898 100.98432 
L 99.905002 100.104611 
L 101.030839 100.104611 
L 101.146041 102.743738 
L 102.387079 102.743738 
L 102.502281 101.424175 
L 102.795522 101.424175 
L 102.910724 104.063302 
L 127.899054 104.063302 
L 128.014256 103.183593 
L 139.895756 103.183593 
L 140.010958 102.743738 
L 162.286808 102.743738 
L 162.40201 105.382865 
L 164.266186 105.382865 
L 164.381388 104.503156 
L 168.31396 104.503156 
L 168.429162 107.142284 
L 179.389048 107.142284 
L 179.50425 106.482502 
L 266.890096 106.482502 
L 267.005298 105.162938 
L 323.019583 105.162938 
L 323.134785 107.802065 
L 372.373106 107.802065 
L 372.488308 110.441193 
L 398.487273 110.441193 
L 398.487273 110.441193 
" clip-path="url(#pbceca35488)" style="fill: none; stroke: #2ca02c; stroke-width: 1.5; stroke-linecap: square"/>
   </g>
   <g id="line2d_15">
    <path d="M 73.832727 59.154153 
L 73.91651 58.274444 
L 73.921747 60.913571 
L 73.93222 60.913571 
L 73.958402 60.913571 
L 74.073604 65.312116 
L 74.356372 65.312116 
L 74.471574 67.951244 
L 74.508229 67.951244 
L 74.628667 73.229498 
L 74.979509 73.229498 
L 75.105184 81.14688 
L 75.168022 81.14688 
L 75.28846 86.425135 
L 75.408898 86.425135 
L 75.5241 89.064262 
L 75.733558 89.064262 
L 75.84876 91.703389 
L 79.037757 91.703389 
L 79.152959 90.82368 
L 80.561563 90.82368 
L 80.676765 93.462807 
L 84.132821 93.462807 
L 84.248023 96.101935 
L 87.489384 96.101935 
L 87.604586 98.741062 
L 93.65792 98.741062 
L 93.773122 101.380189 
L 101.030839 101.380189 
L 101.146041 100.720407 
L 122.322237 100.720407 
L 122.437438 103.359535 
L 124.689111 103.359535 
L 124.804313 105.998662 
L 139.895756 105.998662 
L 140.010958 105.558807 
L 398.487273 105.558807 
L 398.487273 105.558807 
" clip-path="url(#pbceca35488)" style="fill: none; stroke: #d62728; stroke-width: 1.5; stroke-linecap: square"/>
   </g>
   <g id="line2d_16">
    <path d="M 73.832727 61.79328 
L 73.837964 61.79328 
L 73.91651 68.830953 
L 73.958402 66.63168 
L 73.984584 63.992553 
L 74.073604 64.432407 
L 74.089313 64.432407 
L 74.09455 67.071535 
L 74.183569 62.585018 
L 74.194042 62.585018 
L 74.324953 62.585018 
L 74.445392 60.385745 
L 74.529175 60.385745 
L 74.644377 59.066182 
L 74.785761 59.066182 
L 74.900963 57.746618 
L 74.979509 57.746618 
L 75.03711 60.385745 
L 75.089475 57.746618 
L 75.157549 57.746618 
L 75.277987 55.9872 
L 75.665484 55.9872 
L 75.733558 58.626327 
L 75.77545 57.306764 
L 76.052981 57.306764 
L 76.168183 56.427055 
L 82.101079 56.427055 
L 82.216281 55.547345 
L 84.316096 55.547345 
L 84.431298 54.667636 
L 85.352913 54.667636 
L 85.468115 53.787927 
L 88.086339 53.787927 
L 88.201541 52.908218 
L 99.7898 52.908218 
L 99.905002 52.028509 
L 102.387079 52.028509 
L 102.502281 50.708945 
L 127.899054 50.708945 
L 128.014256 49.829236 
L 164.266186 49.829236 
L 164.381388 48.949527 
L 179.389048 48.949527 
L 179.50425 48.289745 
L 266.890096 48.289745 
L 267.005298 46.970182 
L 398.487273 46.970182 
L 398.487273 46.970182 
" clip-path="url(#pbceca35488)" style="fill: none; stroke: #9467bd; stroke-width: 1.5; stroke-linecap: square"/>
   </g>
   <g id="line2d_17">
    <path d="M 73.832727 59.154153 
L 73.837964 59.154153 
L 73.958402 57.526691 
L 74.089313 57.526691 
L 74.204515 56.866909 
L 74.979509 56.866909 
L 75.094711 56.207127 
L 75.665484 56.207127 
L 75.780686 55.679302 
L 139.895756 55.679302 
L 140.010958 55.239447 
L 162.292045 55.239447 
L 162.407247 54.359738 
L 249.677891 54.359738 
L 249.793093 53.480029 
L 398.487273 53.480029 
L 398.487273 53.480029 
" clip-path="url(#pbceca35488)" style="fill: none; stroke: #8c564b; stroke-width: 1.5; stroke-linecap: square"/>
   </g>
   <g id="line2d_18">
    <path d="M 73.832727 61.79328 
L 73.837964 60.913571 
L 73.890328 70.590371 
L 73.900801 70.590371 
L 73.91651 69.710662 
L 73.947929 77.628044 
L 73.958402 77.628044 
L 74.047422 88.184553 
L 74.084077 87.304844 
L 74.089313 87.304844 
L 74.115495 92.583098 
L 74.209752 92.055273 
L 74.225461 92.055273 
L 74.345899 99.092945 
L 74.356372 99.092945 
L 74.471574 101.732073 
L 74.508229 101.732073 
L 74.628667 107.010327 
L 74.785761 107.010327 
L 74.848598 112.288582 
L 74.900963 111.6288 
L 74.979509 111.6288 
L 75.110421 122.185309 
L 75.168022 122.185309 
L 75.257041 127.463564 
L 75.283223 126.583855 
L 75.408898 126.583855 
L 75.5241 129.222982 
L 75.665484 129.222982 
L 75.785922 134.501236 
L 76.655173 134.501236 
L 76.770375 133.621527 
L 80.561563 133.621527 
L 80.676765 136.260655 
L 82.378611 136.260655 
L 82.493812 135.380945 
L 84.132821 135.380945 
L 84.248023 138.020073 
L 85.352913 138.020073 
L 85.468115 140.6592 
L 86.93432 140.6592 
L 87.049522 139.779491 
L 87.489384 139.779491 
L 87.604586 142.418618 
L 93.65792 142.418618 
L 93.773122 145.057745 
L 101.030839 145.057745 
L 101.146041 144.397964 
L 122.322237 144.397964 
L 122.437438 147.037091 
L 124.689111 147.037091 
L 124.804313 149.676218 
L 127.899054 149.676218 
L 128.014256 152.315345 
L 162.292045 152.315345 
L 162.407247 154.954473 
L 179.389048 154.954473 
L 179.50425 154.294691 
L 249.677891 154.294691 
L 249.793093 156.933818 
L 323.019583 156.933818 
L 323.134785 156.054109 
L 398.487273 156.054109 
L 398.487273 156.054109 
" clip-path="url(#pbceca35488)" style="fill: none; stroke: #e377c2; stroke-width: 1.5; stroke-linecap: square"/>
   </g>
   <g id="line2d_19">
    <path d="M 73.832727 57.834589 
L 73.837964 57.834589 
L 73.958402 56.207127 
L 74.089313 56.207127 
L 74.204515 55.547345 
L 74.979509 55.547345 
L 75.094711 54.887564 
L 75.665484 54.887564 
L 75.780686 54.359738 
L 139.895756 54.359738 
L 140.010958 53.919884 
L 162.292045 53.919884 
L 162.407247 53.040175 
L 249.677891 53.040175 
L 249.793093 52.160465 
L 398.487273 52.160465 
L 398.487273 52.160465 
" clip-path="url(#pbceca35488)" style="fill: none; stroke: #7f7f7f; stroke-width: 1.5; stroke-linecap: square"/>
   </g>
   <g id="line2d_20">
    <path d="M 73.832727 59.154153 
L 73.837964 59.154153 
L 73.974111 74.109207 
L 73.979348 74.109207 
L 74.09455 77.628044 
L 74.110259 77.628044 
L 74.115495 80.267171 
L 74.188806 77.540073 
L 74.220224 77.540073 
L 74.225461 76.660364 
L 74.298771 79.739345 
L 74.31448 79.739345 
L 74.324953 79.739345 
L 74.445392 85.0176 
L 74.508229 85.0176 
L 74.628667 90.295855 
L 74.785761 90.295855 
L 74.848598 95.574109 
L 74.900963 94.034618 
L 74.979509 94.034618 
L 75.110421 104.591127 
L 75.147076 104.591127 
L 75.168022 103.271564 
L 75.173258 105.910691 
L 75.251805 105.910691 
L 75.257041 105.910691 
L 75.372243 105.030982 
L 75.408898 105.030982 
L 75.5241 104.151273 
L 75.539809 104.151273 
L 75.655011 103.271564 
L 75.665484 103.271564 
L 75.785922 108.549818 
L 75.916834 108.549818 
L 76.032035 107.670109 
L 76.655173 107.670109 
L 76.770375 106.7904 
L 79.037757 106.7904 
L 79.152959 105.910691 
L 80.561563 105.910691 
L 80.676765 108.549818 
L 82.378611 108.549818 
L 82.493812 107.670109 
L 84.132821 107.670109 
L 84.248023 110.309236 
L 85.352913 110.309236 
L 85.468115 112.948364 
L 86.93432 112.948364 
L 87.049522 112.068655 
L 87.489384 112.068655 
L 87.604586 114.707782 
L 93.65792 114.707782 
L 93.773122 117.346909 
L 101.030839 117.346909 
L 101.146041 116.687127 
L 102.795522 116.687127 
L 102.910724 115.807418 
L 122.322237 115.807418 
L 122.437438 118.446545 
L 124.689111 118.446545 
L 124.804313 121.085673 
L 127.899054 121.085673 
L 128.014256 123.7248 
L 162.286808 123.7248 
L 162.292045 122.845091 
L 162.297281 125.484218 
L 162.386301 125.484218 
L 168.31396 125.484218 
L 168.429162 124.604509 
L 179.389048 124.604509 
L 179.50425 123.944727 
L 249.677891 123.944727 
L 249.793093 126.583855 
L 323.019583 126.583855 
L 323.134785 125.704145 
L 372.373106 125.704145 
L 372.488308 124.824436 
L 398.487273 124.824436 
L 398.487273 124.824436 
" clip-path="url(#pbceca35488)" style="fill: none; stroke: #bcbd22; stroke-width: 1.5; stroke-linecap: square"/>
   </g>
   <g id="line2d_21">
    <path d="M 73.832727 57.834589 
L 73.968875 71.821964 
L 73.979348 71.821964 
L 74.047422 76.220509 
L 74.089313 74.021236 
L 74.115495 73.361455 
L 74.152151 77.320145 
L 74.173096 77.320145 
L 74.178333 77.320145 
L 74.183569 79.959273 
L 74.277825 73.361455 
L 74.293535 73.361455 
L 74.33019 74.681018 
L 74.408737 72.041891 
L 74.508229 74.681018 
L 74.518702 72.041891 
L 74.529175 72.041891 
L 74.644377 74.681018 
L 74.785761 74.681018 
L 74.838125 77.320145 
L 74.880017 73.141527 
L 74.89049 73.141527 
L 74.979509 73.141527 
L 75.03711 72.481745 
L 75.042347 75.120873 
L 75.068529 75.120873 
L 75.178494 79.079564 
L 75.152312 73.801309 
L 75.183731 77.76 
L 75.257041 77.76 
L 75.372243 76.880291 
L 75.408898 76.880291 
L 75.5241 76.000582 
L 75.539809 76.000582 
L 75.655011 75.120873 
L 75.665484 75.120873 
L 75.733558 74.593047 
L 75.738794 77.232175 
L 75.754504 77.232175 
L 75.916834 77.232175 
L 76.032035 76.352465 
L 76.052981 76.352465 
L 76.168183 78.991593 
L 76.655173 78.991593 
L 76.770375 78.111884 
L 79.037757 78.111884 
L 79.152959 77.232175 
L 80.561563 77.232175 
L 80.676765 74.593047 
L 82.101079 74.593047 
L 82.216281 77.232175 
L 82.378611 77.232175 
L 82.493812 76.352465 
L 84.132821 76.352465 
L 84.248023 73.713338 
L 84.316096 73.713338 
L 84.431298 76.352465 
L 85.352913 76.352465 
L 85.468115 78.991593 
L 86.93432 78.991593 
L 87.049522 78.111884 
L 87.489384 78.111884 
L 87.604586 75.472756 
L 88.086339 75.472756 
L 88.201541 78.111884 
L 93.65792 78.111884 
L 93.773122 75.472756 
L 99.7898 75.472756 
L 99.905002 78.111884 
L 101.030839 78.111884 
L 101.146041 77.452102 
L 102.387079 77.452102 
L 102.502281 80.091229 
L 102.795522 80.091229 
L 102.910724 79.21152 
L 122.322237 79.21152 
L 122.437438 76.572393 
L 124.689111 76.572393 
L 124.804313 73.933265 
L 127.899054 73.933265 
L 128.014256 76.572393 
L 139.895756 76.572393 
L 140.010958 76.132538 
L 162.286808 76.132538 
L 162.407247 74.37312 
L 164.266186 74.37312 
L 164.381388 77.012247 
L 168.31396 77.012247 
L 168.429162 76.132538 
L 179.389048 76.132538 
L 179.50425 78.771665 
L 249.677891 78.771665 
L 249.793093 77.891956 
L 266.890096 77.891956 
L 267.005298 80.531084 
L 323.019583 80.531084 
L 323.134785 79.651375 
L 372.373106 79.651375 
L 372.488308 78.771665 
L 398.487273 78.771665 
L 398.487273 78.771665 
" clip-path="url(#pbceca35488)" style="fill: none; stroke: #17becf; stroke-width: 1.5; stroke-linecap: square"/>
   </g>
   <g id="line2d_22">
    <path d="M 73.832727 59.154153 
L 73.837964 59.154153 
L 73.963638 67.071535 
L 74.089313 67.071535 
L 74.204515 69.710662 
L 74.979509 69.710662 
L 75.094711 72.349789 
L 75.665484 72.349789 
L 75.780686 74.988916 
L 139.895756 74.988916 
L 140.010958 77.628044 
L 162.292045 77.628044 
L 162.407247 80.267171 
L 249.677891 80.267171 
L 249.793093 82.906298 
L 398.487273 82.906298 
L 398.487273 82.906298 
" clip-path="url(#pbceca35488)" style="fill: none; stroke: #1f77b4; stroke-width: 1.5; stroke-linecap: square"/>
   </g>
   <g id="line2d_23">
    <path d="M 73.832727 59.154153 
L 73.979348 77.76 
L 73.989821 77.76 
L 74.110259 83.698036 
L 74.115495 83.698036 
L 74.183569 91.615418 
L 74.235934 89.856 
L 74.246407 89.856 
L 74.361609 92.495127 
L 74.408737 92.495127 
L 74.523938 95.134255 
L 74.848598 95.134255 
L 74.87478 97.773382 
L 74.958564 96.893673 
L 74.979509 96.893673 
L 75.094711 96.233891 
L 75.157549 96.233891 
L 75.178494 98.873018 
L 75.267514 97.553455 
L 75.408898 97.553455 
L 75.5241 96.673745 
L 75.539809 96.673745 
L 75.655011 95.794036 
L 75.712612 95.794036 
L 75.827814 98.433164 
L 75.916834 98.433164 
L 76.032035 97.553455 
L 76.052981 97.553455 
L 76.168183 100.192582 
L 79.037757 100.192582 
L 79.152959 102.831709 
L 82.101079 102.831709 
L 82.216281 105.470836 
L 84.316096 105.470836 
L 84.431298 108.109964 
L 88.086339 108.109964 
L 88.201541 110.749091 
L 99.7898 110.749091 
L 99.905002 113.388218 
L 102.387079 113.388218 
L 102.502281 116.027345 
L 102.795522 116.027345 
L 102.910724 115.147636 
L 139.895756 115.147636 
L 140.010958 117.786764 
L 162.286808 117.786764 
L 162.40201 116.907055 
L 164.266186 116.907055 
L 164.381388 119.546182 
L 168.31396 119.546182 
L 168.429162 118.666473 
L 179.389048 118.666473 
L 179.50425 121.3056 
L 266.890096 121.3056 
L 267.005298 123.944727 
L 372.373106 123.944727 
L 372.488308 123.065018 
L 398.487273 123.065018 
L 398.487273 123.065018 
" clip-path="url(#pbceca35488)" style="fill: none; stroke: #ff7f0e; stroke-width: 1.5; stroke-linecap: square"/>
   </g>
   <g id="patch_3">
    <path d="M 57.6 162.432 
L 57.6 41.472 
" style="fill: none; stroke: #000000; stroke-width: 0.8; stroke-linejoin: miter; stroke-linecap: square"/>
   </g>
   <g id="patch_4">
    <path d="M 414.72 162.432 
L 414.72 41.472 
" style="fill: none; stroke: #000000; stroke-width: 0.8; stroke-linejoin: miter; stroke-linecap: square"/>
   </g>
   <g id="patch_5">
    <path d="M 57.6 162.432 
L 414.72 162.432 
" style="fill: none; stroke: #000000; stroke-width: 0.8; stroke-linejoin: miter; stroke-linecap: square"/>
   </g>
   <g id="patch_6">
    <path d="M 57.6 41.472 
L 414.72 41.472 
" style="fill: none; stroke: #000000; stroke-width: 0.8; stroke-linejoin: miter; stroke-linecap: square"/>
   </g>
   <g id="text_12">
    <!-- WSP -->
    <g transform="translate(361.832136 122.009367)scale(0.08 -0.08)">
     <defs>
      <path id="DejaVuSans-57" d="M 213 4666 
L 850 4666 
L 1831 722 
L 2809 4666 
L 3519 4666 
L 4500 722 
L 5478 4666 
L 6119 4666 
L 4947 0 
L 4153 0 
L 3169 4050 
L 2175 0 
L 1381 0 
L 213 4666 
z
" transform="scale(0.015625)"/>
      <path id="DejaVuSans-53" d="M 3425 4513 
L 3425 3897 
Q 3066 4069 2747 4153 
Q 2428 4238 2131 4238 
Q 1616 4238 1336 4038 
Q 1056 3838 1056 3469 
Q 1056 3159 1242 3001 
Q 1428 2844 1947 2747 
L 2328 2669 
Q 3034 2534 3370 2195 
Q 3706 1856 3706 1288 
Q 3706 609 3251 259 
Q 2797 -91 1919 -91 
Q 1588 -91 1214 -16 
Q 841 59 441 206 
L 441 856 
Q 825 641 1194 531 
Q 1563 422 1919 422 
Q 2459 422 2753 634 
Q 3047 847 3047 1241 
Q 3047 1584 2836 1778 
Q 2625 1972 2144 2069 
L 1759 2144 
Q 1053 2284 737 2584 
Q 422 2884 422 3419 
Q 422 4038 858 4394 
Q 1294 4750 2059 4750 
Q 2388 4750 2728 4690 
Q 3069 4631 3425 4513 
z
" transform="scale(0.015625)"/>
      <path id="DejaVuSans-50" d="M 1259 4147 
L 1259 2394 
L 2053 2394 
Q 2494 2394 2734 2622 
Q 2975 2850 2975 3272 
Q 2975 3691 2734 3919 
Q 2494 4147 2053 4147 
L 1259 4147 
z
M 628 4666 
L 2053 4666 
Q 2838 4666 3239 4311 
Q 3641 3956 3641 3272 
Q 3641 2581 3239 2228 
Q 2838 1875 2053 1875 
L 1259 1875 
L 1259 0 
L 628 0 
L 628 4666 
z
" transform="scale(0.015625)"/>
     </defs>
     <use xlink:href="#DejaVuSans-57"/>
     <use xlink:href="#DejaVuSans-53" x="98.876953"/>
     <use xlink:href="#DejaVuSans-50" x="162.353516"/>
    </g>
   </g>
   <g id="text_13">
    <!-- Iambic -->
    <g transform="translate(361.832136 65.312116)scale(0.08 -0.08)">
     <defs>
      <path id="DejaVuSans-49" d="M 628 4666 
L 1259 4666 
L 1259 0 
L 628 0 
L 628 4666 
z
" transform="scale(0.015625)"/>
      <path id="DejaVuSans-61" d="M 2194 1759 
Q 1497 1759 1228 1600 
Q 959 1441 959 1056 
Q 959 750 1161 570 
Q 1363 391 1709 391 
Q 2188 391 2477 730 
Q 2766 1069 2766 1631 
L 2766 1759 
L 2194 1759 
z
M 3341 1997 
L 3341 0 
L 2766 0 
L 2766 531 
Q 2569 213 2275 61 
Q 1981 -91 1556 -91 
Q 1019 -91 701 211 
Q 384 513 384 1019 
Q 384 1609 779 1909 
Q 1175 2209 1959 2209 
L 2766 2209 
L 2766 2266 
Q 2766 2663 2505 2880 
Q 2244 3097 1772 3097 
Q 1472 3097 1187 3025 
Q 903 2953 641 2809 
L 641 3341 
Q 956 3463 1253 3523 
Q 1550 3584 1831 3584 
Q 2591 3584 2966 3190 
Q 3341 2797 3341 1997 
z
" transform="scale(0.015625)"/>
      <path id="DejaVuSans-6d" d="M 3328 2828 
Q 3544 3216 3844 3400 
Q 4144 3584 4550 3584 
Q 5097 3584 5394 3201 
Q 5691 2819 5691 2113 
L 5691 0 
L 5113 0 
L 5113 2094 
Q 5113 2597 4934 2840 
Q 4756 3084 4391 3084 
Q 3944 3084 3684 2787 
Q 3425 2491 3425 1978 
L 3425 0 
L 2847 0 
L 2847 2094 
Q 2847 2600 2669 2842 
Q 2491 3084 2119 3084 
Q 1678 3084 1418 2786 
Q 1159 2488 1159 1978 
L 1159 0 
L 581 0 
L 581 3500 
L 1159 3500 
L 1159 2956 
Q 1356 3278 1631 3431 
Q 1906 3584 2284 3584 
Q 2666 3584 2933 3390 
Q 3200 3197 3328 2828 
z
" transform="scale(0.015625)"/>
      <path id="DejaVuSans-62" d="M 3116 1747 
Q 3116 2381 2855 2742 
Q 2594 3103 2138 3103 
Q 1681 3103 1420 2742 
Q 1159 2381 1159 1747 
Q 1159 1113 1420 752 
Q 1681 391 2138 391 
Q 2594 391 2855 752 
Q 3116 1113 3116 1747 
z
M 1159 2969 
Q 1341 3281 1617 3432 
Q 1894 3584 2278 3584 
Q 2916 3584 3314 3078 
Q 3713 2572 3713 1747 
Q 3713 922 3314 415 
Q 2916 -91 2278 -91 
Q 1894 -91 1617 61 
Q 1341 213 1159 525 
L 1159 0 
L 581 0 
L 581 4863 
L 1159 4863 
L 1159 2969 
z
" transform="scale(0.015625)"/>
      <path id="DejaVuSans-69" d="M 603 3500 
L 1178 3500 
L 1178 0 
L 603 0 
L 603 3500 
z
M 603 4863 
L 1178 4863 
L 1178 4134 
L 603 4134 
L 603 4863 
z
" transform="scale(0.015625)"/>
      <path id="DejaVuSans-63" d="M 3122 3366 
L 3122 2828 
Q 2878 2963 2633 3030 
Q 2388 3097 2138 3097 
Q 1578 3097 1268 2742 
Q 959 2388 959 1747 
Q 959 1106 1268 751 
Q 1578 397 2138 397 
Q 2388 397 2633 464 
Q 2878 531 3122 666 
L 3122 134 
Q 2881 22 2623 -34 
Q 2366 -91 2075 -91 
Q 1284 -91 818 406 
Q 353 903 353 1747 
Q 353 2603 823 3093 
Q 1294 3584 2113 3584 
Q 2378 3584 2631 3529 
Q 2884 3475 3122 3366 
z
" transform="scale(0.015625)"/>
     </defs>
     <use xlink:href="#DejaVuSans-49"/>
     <use xlink:href="#DejaVuSans-61" x="29.492188"/>
     <use xlink:href="#DejaVuSans-6d" x="90.771484"/>
     <use xlink:href="#DejaVuSans-62" x="188.183594"/>
     <use xlink:href="#DejaVuSans-69" x="251.660156"/>
     <use xlink:href="#DejaVuSans-63" x="279.443359"/>
    </g>
   </g>
   <g id="text_14">
    <!-- Parse -->
    <g transform="translate(361.832136 110.441193)scale(0.08 -0.08)">
     <defs>
      <path id="DejaVuSans-72" d="M 2631 2963 
Q 2534 3019 2420 3045 
Q 2306 3072 2169 3072 
Q 1681 3072 1420 2755 
Q 1159 2438 1159 1844 
L 1159 0 
L 581 0 
L 581 3500 
L 1159 3500 
L 1159 2956 
Q 1341 3275 1631 3429 
Q 1922 3584 2338 3584 
Q 2397 3584 2469 3576 
Q 2541 3569 2628 3553 
L 2631 2963 
z
" transform="scale(0.015625)"/>
      <path id="DejaVuSans-73" d="M 2834 3397 
L 2834 2853 
Q 2591 2978 2328 3040 
Q 2066 3103 1784 3103 
Q 1356 3103 1142 2972 
Q 928 2841 928 2578 
Q 928 2378 1081 2264 
Q 1234 2150 1697 2047 
L 1894 2003 
Q 2506 1872 2764 1633 
Q 3022 1394 3022 966 
Q 3022 478 2636 193 
Q 2250 -91 1575 -91 
Q 1294 -91 989 -36 
Q 684 19 347 128 
L 347 722 
Q 666 556 975 473 
Q 1284 391 1588 391 
Q 1994 391 2212 530 
Q 2431 669 2431 922 
Q 2431 1156 2273 1281 
Q 2116 1406 1581 1522 
L 1381 1569 
Q 847 1681 609 1914 
Q 372 2147 372 2553 
Q 372 3047 722 3315 
Q 1072 3584 1716 3584 
Q 2034 3584 2315 3537 
Q 2597 3491 2834 3397 
z
" transform="scale(0.015625)"/>
      <path id="DejaVuSans-65" d="M 3597 1894 
L 3597 1613 
L 953 1613 
Q 991 1019 1311 708 
Q 1631 397 2203 397 
Q 2534 397 2845 478 
Q 3156 559 3463 722 
L 3463 178 
Q 3153 47 2828 -22 
Q 2503 -91 2169 -91 
Q 1331 -91 842 396 
Q 353 884 353 1716 
Q 353 2575 817 3079 
Q 1281 3584 2069 3584 
Q 2775 3584 3186 3129 
Q 3597 2675 3597 1894 
z
M 3022 2063 
Q 3016 2534 2758 2815 
Q 2500 3097 2075 3097 
Q 1594 3097 1305 2825 
Q 1016 2553 972 2059 
L 3022 2063 
z
" transform="scale(0.015625)"/>
     </defs>
     <use xlink:href="#DejaVuSans-50"/>
     <use xlink:href="#DejaVuSans-61" x="55.802734"/>
     <use xlink:href="#DejaVuSans-72" x="117.082031"/>
     <use xlink:href="#DejaVuSans-73" x="158.195312"/>
     <use xlink:href="#DejaVuSans-65" x="210.294922"/>
    </g>
   </g>
   <g id="text_15">
    <!-- FootBin -->
    <g transform="translate(361.832136 105.558807)scale(0.08 -0.08)">
     <defs>
      <path id="DejaVuSans-46" d="M 628 4666 
L 3309 4666 
L 3309 4134 
L 1259 4134 
L 1259 2759 
L 3109 2759 
L 3109 2228 
L 1259 2228 
L 1259 0 
L 628 0 
L 628 4666 
z
" transform="scale(0.015625)"/>
      <path id="DejaVuSans-6f" d="M 1959 3097 
Q 1497 3097 1228 2736 
Q 959 2375 959 1747 
Q 959 1119 1226 758 
Q 1494 397 1959 397 
Q 2419 397 2687 759 
Q 2956 1122 2956 1747 
Q 2956 2369 2687 2733 
Q 2419 3097 1959 3097 
z
M 1959 3584 
Q 2709 3584 3137 3096 
Q 3566 2609 3566 1747 
Q 3566 888 3137 398 
Q 2709 -91 1959 -91 
Q 1206 -91 779 398 
Q 353 888 353 1747 
Q 353 2609 779 3096 
Q 1206 3584 1959 3584 
z
" transform="scale(0.015625)"/>
      <path id="DejaVuSans-74" d="M 1172 4494 
L 1172 3500 
L 2356 3500 
L 2356 3053 
L 1172 3053 
L 1172 1153 
Q 1172 725 1289 603 
Q 1406 481 1766 481 
L 2356 481 
L 2356 0 
L 1766 0 
Q 1100 0 847 248 
Q 594 497 594 1153 
L 594 3053 
L 172 3053 
L 172 3500 
L 594 3500 
L 594 4494 
L 1172 4494 
z
" transform="scale(0.015625)"/>
      <path id="DejaVuSans-42" d="M 1259 2228 
L 1259 519 
L 2272 519 
Q 2781 519 3026 730 
Q 3272 941 3272 1375 
Q 3272 1813 3026 2020 
Q 2781 2228 2272 2228 
L 1259 2228 
z
M 1259 4147 
L 1259 2741 
L 2194 2741 
Q 2656 2741 2882 2914 
Q 3109 3088 3109 3444 
Q 3109 3797 2882 3972 
Q 2656 4147 2194 4147 
L 1259 4147 
z
M 628 4666 
L 2241 4666 
Q 2963 4666 3353 4366 
Q 3744 4066 3744 3513 
Q 3744 3084 3544 2831 
Q 3344 2578 2956 2516 
Q 3422 2416 3680 2098 
Q 3938 1781 3938 1306 
Q 3938 681 3513 340 
Q 3088 0 2303 0 
L 628 0 
L 628 4666 
z
" transform="scale(0.015625)"/>
      <path id="DejaVuSans-6e" d="M 3513 2113 
L 3513 0 
L 2938 0 
L 2938 2094 
Q 2938 2591 2744 2837 
Q 2550 3084 2163 3084 
Q 1697 3084 1428 2787 
Q 1159 2491 1159 1978 
L 1159 0 
L 581 0 
L 581 3500 
L 1159 3500 
L 1159 2956 
Q 1366 3272 1645 3428 
Q 1925 3584 2291 3584 
Q 2894 3584 3203 3211 
Q 3513 2838 3513 2113 
z
" transform="scale(0.015625)"/>
     </defs>
     <use xlink:href="#DejaVuSans-46"/>
     <use xlink:href="#DejaVuSans-6f" x="53.894531"/>
     <use xlink:href="#DejaVuSans-6f" x="115.076172"/>
     <use xlink:href="#DejaVuSans-74" x="176.257812"/>
     <use xlink:href="#DejaVuSans-42" x="215.466797"/>
     <use xlink:href="#DejaVuSans-69" x="284.070312"/>
     <use xlink:href="#DejaVuSans-6e" x="311.853516"/>
    </g>
   </g>
   <g id="text_16">
    <!-- WFL -->
    <g transform="translate(361.832136 46.970182)scale(0.08 -0.08)">
     <defs>
      <path id="DejaVuSans-4c" d="M 628 4666 
L 1259 4666 
L 1259 531 
L 3531 531 
L 3531 0 
L 628 0 
L 628 4666 
z
" transform="scale(0.015625)"/>
     </defs>
     <use xlink:href="#DejaVuSans-57"/>
     <use xlink:href="#DejaVuSans-46" x="98.876953"/>
     <use xlink:href="#DejaVuSans-4c" x="156.396484"/>
    </g>
   </g>
   <g id="text_17">
    <!-- WFR -->
    <g transform="translate(361.832136 53.480029)scale(0.08 -0.08)">
     <defs>
      <path id="DejaVuSans-52" d="M 2841 2188 
Q 3044 2119 3236 1894 
Q 3428 1669 3622 1275 
L 4263 0 
L 3584 0 
L 2988 1197 
Q 2756 1666 2539 1819 
Q 2322 1972 1947 1972 
L 1259 1972 
L 1259 0 
L 628 0 
L 628 4666 
L 2053 4666 
Q 2853 4666 3247 4331 
Q 3641 3997 3641 3322 
Q 3641 2881 3436 2590 
Q 3231 2300 2841 2188 
z
M 1259 4147 
L 1259 2491 
L 2053 2491 
Q 2509 2491 2742 2702 
Q 2975 2913 2975 3322 
Q 2975 3731 2742 3939 
Q 2509 4147 2053 4147 
L 1259 4147 
z
" transform="scale(0.015625)"/>
     </defs>
     <use xlink:href="#DejaVuSans-57"/>
     <use xlink:href="#DejaVuSans-46" x="98.876953"/>
     <use xlink:href="#DejaVuSans-52" x="156.396484"/>
    </g>
   </g>
   <g id="text_18">
    <!-- Main-L -->
    <g transform="translate(361.832136 156.054109)scale(0.08 -0.08)">
     <defs>
      <path id="DejaVuSans-4d" d="M 628 4666 
L 1569 4666 
L 2759 1491 
L 3956 4666 
L 4897 4666 
L 4897 0 
L 4281 0 
L 4281 4097 
L 3078 897 
L 2444 897 
L 1241 4097 
L 1241 0 
L 628 0 
L 628 4666 
z
" transform="scale(0.015625)"/>
      <path id="DejaVuSans-2d" d="M 313 2009 
L 1997 2009 
L 1997 1497 
L 313 1497 
L 313 2009 
z
" transform="scale(0.015625)"/>
     </defs>
     <use xlink:href="#DejaVuSans-4d"/>
     <use xlink:href="#DejaVuSans-61" x="86.279297"/>
     <use xlink:href="#DejaVuSans-69" x="147.558594"/>
     <use xlink:href="#DejaVuSans-6e" x="175.341797"/>
     <use xlink:href="#DejaVuSans-2d" x="238.720703"/>
     <use xlink:href="#DejaVuSans-4c" x="274.804688"/>
    </g>
   </g>
   <g id="text_19">
    <!-- Main-R -->
    <g transform="translate(361.832136 52.160465)scale(0.08 -0.08)">
     <use xlink:href="#DejaVuSans-4d"/>
     <use xlink:href="#DejaVuSans-61" x="86.279297"/>
     <use xlink:href="#DejaVuSans-69" x="147.558594"/>
     <use xlink:href="#DejaVuSans-6e" x="175.341797"/>
     <use xlink:href="#DejaVuSans-2d" x="238.720703"/>
     <use xlink:href="#DejaVuSans-52" x="274.804688"/>
    </g>
   </g>
   <g id="text_20">
    <!-- AFL -->
    <g transform="translate(361.832136 124.824436)scale(0.08 -0.08)">
     <defs>
      <path id="DejaVuSans-41" d="M 2188 4044 
L 1331 1722 
L 3047 1722 
L 2188 4044 
z
M 1831 4666 
L 2547 4666 
L 4325 0 
L 3669 0 
L 3244 1197 
L 1141 1197 
L 716 0 
L 50 0 
L 1831 4666 
z
" transform="scale(0.015625)"/>
     </defs>
     <use xlink:href="#DejaVuSans-41"/>
     <use xlink:href="#DejaVuSans-46" x="68.408203"/>
     <use xlink:href="#DejaVuSans-4c" x="125.927734"/>
    </g>
   </g>
   <g id="text_21">
    <!-- AFR -->
    <g transform="translate(361.832136 78.771665)scale(0.08 -0.08)">
     <use xlink:href="#DejaVuSans-41"/>
     <use xlink:href="#DejaVuSans-46" x="68.408203"/>
     <use xlink:href="#DejaVuSans-52" x="125.927734"/>
    </g>
   </g>
   <g id="text_22">
    <!-- Nonfinal -->
    <g transform="translate(361.832136 82.906298)scale(0.08 -0.08)">
     <defs>
      <path id="DejaVuSans-4e" d="M 628 4666 
L 1478 4666 
L 3547 763 
L 3547 4666 
L 4159 4666 
L 4159 0 
L 3309 0 
L 1241 3903 
L 1241 0 
L 628 0 
L 628 4666 
z
" transform="scale(0.015625)"/>
      <path id="DejaVuSans-66" d="M 2375 4863 
L 2375 4384 
L 1825 4384 
Q 1516 4384 1395 4259 
Q 1275 4134 1275 3809 
L 1275 3500 
L 2222 3500 
L 2222 3053 
L 1275 3053 
L 1275 0 
L 697 0 
L 697 3053 
L 147 3053 
L 147 3500 
L 697 3500 
L 697 3744 
Q 697 4328 969 4595 
Q 1241 4863 1831 4863 
L 2375 4863 
z
" transform="scale(0.015625)"/>
      <path id="DejaVuSans-6c" d="M 603 4863 
L 1178 4863 
L 1178 0 
L 603 0 
L 603 4863 
z
" transform="scale(0.015625)"/>
     </defs>
     <use xlink:href="#DejaVuSans-4e"/>
     <use xlink:href="#DejaVuSans-6f" x="74.804688"/>
     <use xlink:href="#DejaVuSans-6e" x="135.986328"/>
     <use xlink:href="#DejaVuSans-66" x="199.365234"/>
     <use xlink:href="#DejaVuSans-69" x="234.570312"/>
     <use xlink:href="#DejaVuSans-6e" x="262.353516"/>
     <use xlink:href="#DejaVuSans-61" x="325.732422"/>
     <use xlink:href="#DejaVuSans-6c" x="387.011719"/>
    </g>
   </g>
   <g id="text_23">
    <!-- Trochaic -->
    <g transform="translate(361.832136 123.065018)scale(0.08 -0.08)">
     <defs>
      <path id="DejaVuSans-54" d="M -19 4666 
L 3928 4666 
L 3928 4134 
L 2272 4134 
L 2272 0 
L 1638 0 
L 1638 4134 
L -19 4134 
L -19 4666 
z
" transform="scale(0.015625)"/>
      <path id="DejaVuSans-68" d="M 3513 2113 
L 3513 0 
L 2938 0 
L 2938 2094 
Q 2938 2591 2744 2837 
Q 2550 3084 2163 3084 
Q 1697 3084 1428 2787 
Q 1159 2491 1159 1978 
L 1159 0 
L 581 0 
L 581 4863 
L 1159 4863 
L 1159 2956 
Q 1366 3272 1645 3428 
Q 1925 3584 2291 3584 
Q 2894 3584 3203 3211 
Q 3513 2838 3513 2113 
z
" transform="scale(0.015625)"/>
     </defs>
     <use xlink:href="#DejaVuSans-54"/>
     <use xlink:href="#DejaVuSans-72" x="46.333984"/>
     <use xlink:href="#DejaVuSans-6f" x="85.197266"/>
     <use xlink:href="#DejaVuSans-63" x="146.378906"/>
     <use xlink:href="#DejaVuSans-68" x="201.359375"/>
     <use xlink:href="#DejaVuSans-61" x="264.738281"/>
     <use xlink:href="#DejaVuSans-69" x="326.017578"/>
     <use xlink:href="#DejaVuSans-63" x="353.800781"/>
    </g>
   </g>
  </g>
  <g id="axes_2">
   <g id="patch_7">
    <path d="M 57.6 307.584 
L 414.72 307.584 
L 414.72 186.624 
L 57.6 186.624 
z
" style="fill: #ffffff"/>
   </g>
   <g id="matplotlib.axis_3">
    <g id="xtick_8">
     <g id="line2d_24">
      <g>
       <use xlink:href="#me4211c8d60" x="70.415311" y="307.584" style="stroke: #000000; stroke-width: 0.8"/>
      </g>
     </g>
     <g id="text_24">
      <!-- 0 -->
      <g transform="translate(67.234061 322.182437)scale(0.1 -0.1)">
       <use xlink:href="#DejaVuSans-30"/>
      </g>
     </g>
    </g>
    <g id="xtick_9">
     <g id="line2d_25">
      <g>
       <use xlink:href="#me4211c8d60" x="138.763636" y="307.584" style="stroke: #000000; stroke-width: 0.8"/>
      </g>
     </g>
     <g id="text_25">
      <!-- 20 -->
      <g transform="translate(132.401136 322.182437)scale(0.1 -0.1)">
       <use xlink:href="#DejaVuSans-32"/>
       <use xlink:href="#DejaVuSans-30" x="63.623047"/>
      </g>
     </g>
    </g>
    <g id="xtick_10">
     <g id="line2d_26">
      <g>
       <use xlink:href="#me4211c8d60" x="207.111962" y="307.584" style="stroke: #000000; stroke-width: 0.8"/>
      </g>
     </g>
     <g id="text_26">
      <!-- 40 -->
      <g transform="translate(200.749462 322.182437)scale(0.1 -0.1)">
       <use xlink:href="#DejaVuSans-34"/>
       <use xlink:href="#DejaVuSans-30" x="63.623047"/>
      </g>
     </g>
    </g>
    <g id="xtick_11">
     <g id="line2d_27">
      <g>
       <use xlink:href="#me4211c8d60" x="275.460287" y="307.584" style="stroke: #000000; stroke-width: 0.8"/>
      </g>
     </g>
     <g id="text_27">
      <!-- 60 -->
      <g transform="translate(269.097787 322.182437)scale(0.1 -0.1)">
       <use xlink:href="#DejaVuSans-36"/>
       <use xlink:href="#DejaVuSans-30" x="63.623047"/>
      </g>
     </g>
    </g>
    <g id="xtick_12">
     <g id="line2d_28">
      <g>
       <use xlink:href="#me4211c8d60" x="343.808612" y="307.584" style="stroke: #000000; stroke-width: 0.8"/>
      </g>
     </g>
     <g id="text_28">
      <!-- 80 -->
      <g transform="translate(337.446112 322.182437)scale(0.1 -0.1)">
       <use xlink:href="#DejaVuSans-38"/>
       <use xlink:href="#DejaVuSans-30" x="63.623047"/>
      </g>
     </g>
    </g>
    <g id="xtick_13">
     <g id="line2d_29">
      <g>
       <use xlink:href="#me4211c8d60" x="412.156938" y="307.584" style="stroke: #000000; stroke-width: 0.8"/>
      </g>
     </g>
     <g id="text_29">
      <!-- 100 -->
      <g transform="translate(402.613188 322.182437)scale(0.1 -0.1)">
       <use xlink:href="#DejaVuSans-31"/>
       <use xlink:href="#DejaVuSans-30" x="63.623047"/>
       <use xlink:href="#DejaVuSans-30" x="127.246094"/>
      </g>
     </g>
    </g>
   </g>
   <g id="matplotlib.axis_4">
    <g id="ytick_5">
     <g id="line2d_30">
      <g>
       <use xlink:href="#m232b90db1a" x="57.6" y="302.094011" style="stroke: #000000; stroke-width: 0.8"/>
      </g>
     </g>
     <g id="text_30">
      <!-- 0 -->
      <g transform="translate(44.2375 305.89323)scale(0.1 -0.1)">
       <use xlink:href="#DejaVuSans-30"/>
      </g>
     </g>
    </g>
    <g id="ytick_6">
     <g id="line2d_31">
      <g>
       <use xlink:href="#m232b90db1a" x="57.6" y="281.612034" style="stroke: #000000; stroke-width: 0.8"/>
      </g>
     </g>
     <g id="text_31">
      <!-- 2500 -->
      <g transform="translate(25.15 285.411253)scale(0.1 -0.1)">
       <use xlink:href="#DejaVuSans-32"/>
       <use xlink:href="#DejaVuSans-35" x="63.623047"/>
       <use xlink:href="#DejaVuSans-30" x="127.246094"/>
       <use xlink:href="#DejaVuSans-30" x="190.869141"/>
      </g>
     </g>
    </g>
    <g id="ytick_7">
     <g id="line2d_32">
      <g>
       <use xlink:href="#m232b90db1a" x="57.6" y="261.130058" style="stroke: #000000; stroke-width: 0.8"/>
      </g>
     </g>
     <g id="text_32">
      <!-- 5000 -->
      <g transform="translate(25.15 264.929276)scale(0.1 -0.1)">
       <use xlink:href="#DejaVuSans-35"/>
       <use xlink:href="#DejaVuSans-30" x="63.623047"/>
       <use xlink:href="#DejaVuSans-30" x="127.246094"/>
       <use xlink:href="#DejaVuSans-30" x="190.869141"/>
      </g>
     </g>
    </g>
    <g id="ytick_8">
     <g id="line2d_33">
      <g>
       <use xlink:href="#m232b90db1a" x="57.6" y="240.648081" style="stroke: #000000; stroke-width: 0.8"/>
      </g>
     </g>
     <g id="text_33">
      <!-- 7500 -->
      <g transform="translate(25.15 244.4473)scale(0.1 -0.1)">
       <use xlink:href="#DejaVuSans-37"/>
       <use xlink:href="#DejaVuSans-35" x="63.623047"/>
       <use xlink:href="#DejaVuSans-30" x="127.246094"/>
       <use xlink:href="#DejaVuSans-30" x="190.869141"/>
      </g>
     </g>
    </g>
    <g id="ytick_9">
     <g id="line2d_34">
      <g>
       <use xlink:href="#m232b90db1a" x="57.6" y="220.166104" style="stroke: #000000; stroke-width: 0.8"/>
      </g>
     </g>
     <g id="text_34">
      <!-- 10000 -->
      <g transform="translate(18.7875 223.965323)scale(0.1 -0.1)">
       <use xlink:href="#DejaVuSans-31"/>
       <use xlink:href="#DejaVuSans-30" x="63.623047"/>
       <use xlink:href="#DejaVuSans-30" x="127.246094"/>
       <use xlink:href="#DejaVuSans-30" x="190.869141"/>
       <use xlink:href="#DejaVuSans-30" x="254.492188"/>
      </g>
     </g>
    </g>
    <g id="ytick_10">
     <g id="line2d_35">
      <g>
       <use xlink:href="#m232b90db1a" x="57.6" y="199.684128" style="stroke: #000000; stroke-width: 0.8"/>
      </g>
     </g>
     <g id="text_35">
      <!-- 12500 -->
      <g transform="translate(18.7875 203.483346)scale(0.1 -0.1)">
       <use xlink:href="#DejaVuSans-31"/>
       <use xlink:href="#DejaVuSans-32" x="63.623047"/>
       <use xlink:href="#DejaVuSans-35" x="127.246094"/>
       <use xlink:href="#DejaVuSans-30" x="190.869141"/>
       <use xlink:href="#DejaVuSans-30" x="254.492188"/>
      </g>
     </g>
    </g>
   </g>
   <g id="line2d_36">
    <path d="M 73.832727 302.085818 
L 77.250144 302.085818 
L 80.66756 302.085818 
L 84.084976 302.085818 
L 87.502392 302.085818 
L 90.919809 302.085818 
L 94.337225 302.085818 
L 97.754641 302.085818 
L 101.172057 302.085818 
L 104.589474 302.085818 
L 108.00689 302.085818 
L 111.424306 302.085818 
L 114.841722 302.085818 
L 118.259139 302.085818 
L 121.676555 302.069433 
L 125.093971 302.085818 
L 128.511388 302.085818 
L 131.928804 302.085818 
L 135.34622 302.077625 
L 138.763636 302.077625 
L 142.181053 302.085818 
L 145.598469 302.06124 
L 149.015885 302.085818 
L 152.433301 302.085818 
L 155.850718 302.077625 
L 159.268134 302.06124 
L 162.68555 302.069433 
L 166.102967 302.077625 
L 169.520383 302.069433 
L 172.937799 302.053047 
L 176.355215 302.085818 
L 179.772632 302.069433 
L 183.190048 302.085818 
L 186.607464 302.06124 
L 190.02488 302.077625 
L 193.442297 302.044854 
L 196.859713 302.085818 
L 200.277129 302.036661 
L 203.694545 302.085818 
L 207.111962 302.06124 
L 210.529378 302.053047 
L 213.946794 302.06124 
L 217.364211 302.044854 
L 220.781627 302.044854 
L 224.199043 302.012083 
L 227.616459 301.938348 
L 231.033876 302.06124 
L 234.451292 301.692564 
L 237.868708 302.012083 
L 241.286124 302.077625 
L 244.703541 302.053047 
L 248.120957 301.930155 
L 251.538373 302.00389 
L 254.955789 302.044854 
L 258.373206 302.085818 
L 261.790622 301.979312 
L 265.208038 302.077625 
L 268.625455 302.077625 
L 272.042871 302.077625 
L 275.460287 301.971119 
L 278.877703 301.85642 
L 282.29512 301.889191 
L 285.712536 301.897384 
L 289.129952 302.020276 
L 292.547368 302.06124 
L 295.964785 301.807263 
L 299.382201 301.880998 
L 302.799617 301.15184 
L 306.217033 298.366291 
L 309.63445 299.709909 
L 313.051866 299.685331 
L 316.469282 301.659793 
L 319.886699 299.349426 
L 323.304115 301.807263 
L 326.721531 300.471838 
L 330.138947 299.619788 
L 333.556364 301.225575 
L 336.97378 301.160033 
L 340.391196 293.376882 
L 343.808612 292.500253 
L 347.226029 300.15232 
L 350.643445 299.972078 
L 354.060861 301.454973 
L 357.478278 271.543095 
L 360.895694 298.39087 
L 364.31311 297.07183 
L 367.730526 283.324328 
L 371.147943 267.061638 
L 374.565359 302.085818 
L 377.982775 299.005329 
L 381.400191 295.760984 
L 384.817608 284.766259 
L 388.235024 192.122182 
L 391.65244 275.164308 
L 395.069856 214.275488 
L 398.487273 224.876959 
" clip-path="url(#pf5271f32b7)" style="fill: none; stroke: #1f77b4; stroke-width: 1.5; stroke-linecap: square"/>
   </g>
   <g id="patch_8">
    <path d="M 57.6 307.584 
L 57.6 186.624 
" style="fill: none; stroke: #000000; stroke-width: 0.8; stroke-linejoin: miter; stroke-linecap: square"/>
   </g>
   <g id="patch_9">
    <path d="M 414.72 307.584 
L 414.72 186.624 
" style="fill: none; stroke: #000000; stroke-width: 0.8; stroke-linejoin: miter; stroke-linecap: square"/>
   </g>
   <g id="patch_10">
    <path d="M 57.6 307.584 
L 414.72 307.584 
" style="fill: none; stroke: #000000; stroke-width: 0.8; stroke-linejoin: miter; stroke-linecap: square"/>
   </g>
   <g id="patch_11">
    <path d="M 57.6 186.624 
L 414.72 186.624 
" style="fill: none; stroke: #000000; stroke-width: 0.8; stroke-linejoin: miter; stroke-linecap: square"/>
   </g>
  </g>
 </g>
 <defs>
  <clipPath id="pbceca35488">
   <rect x="57.6" y="41.472" width="357.12" height="120.96"/>
  </clipPath>
  <clipPath id="pf5271f32b7">
   <rect x="57.6" y="186.624" width="357.12" height="120.96"/>
  </clipPath>
 </defs>
</svg>
