<?xml version="1.0" encoding="utf-8" standalone="no"?>
<!DOCTYPE svg PUBLIC "-//W3C//DTD SVG 1.1//EN"
  "http://www.w3.org/Graphics/SVG/1.1/DTD/svg11.dtd">
<svg xmlns:xlink="http://www.w3.org/1999/xlink" width="460.8pt" height="345.6pt" viewBox="0 0 460.8 345.6" xmlns="http://www.w3.org/2000/svg" version="1.1">
 <metadata>
  <rdf:RDF xmlns:dc="http://purl.org/dc/elements/1.1/" xmlns:cc="http://creativecommons.org/ns#" xmlns:rdf="http://www.w3.org/1999/02/22-rdf-syntax-ns#">
   <cc:Work>
    <dc:type rdf:resource="http://purl.org/dc/dcmitype/StillImage"/>
    <dc:date>2022-05-14T04:52:32.025468</dc:date>
    <dc:format>image/svg+xml</dc:format>
    <dc:creator>
     <cc:Agent>
      <dc:title>Matplotlib v3.5.1, https://matplotlib.org/</dc:title>
     </cc:Agent>
    </dc:creator>
   </cc:Work>
  </rdf:RDF>
 </metadata>
 <defs>
  <style type="text/css">*{stroke-linejoin: round; stroke-linecap: butt}</style>
 </defs>
 <g id="figure_1">
  <g id="patch_1">
   <path d="M 0 345.6 
L 460.8 345.6 
L 460.8 0 
L 0 0 
z
" style="fill: #ffffff"/>
  </g>
  <g id="axes_1">
   <g id="patch_2">
    <path d="M 57.6 162.432 
L 414.72 162.432 
L 414.72 41.472 
L 57.6 41.472 
z
" style="fill: #ffffff"/>
   </g>
   <g id="matplotlib.axis_1">
    <g id="xtick_1">
     <g id="line2d_1">
      <defs>
       <path id="m2f45d6cbff" d="M 0 0 
L 0 3.5 
" style="stroke: #000000; stroke-width: 0.8"/>
      </defs>
      <g>
       <use xlink:href="#m2f45d6cbff" x="73.827491" y="162.432" style="stroke: #000000; stroke-width: 0.8"/>
      </g>
     </g>
     <g id="text_1">
      <!-- 0 -->
      <g transform="translate(70.646241 177.030437)scale(0.1 -0.1)">
       <defs>
        <path id="DejaVuSans-30" d="M 2034 4250 
Q 1547 4250 1301 3770 
Q 1056 3291 1056 2328 
Q 1056 1369 1301 889 
Q 1547 409 2034 409 
Q 2525 409 2770 889 
Q 3016 1369 3016 2328 
Q 3016 3291 2770 3770 
Q 2525 4250 2034 4250 
z
M 2034 4750 
Q 2819 4750 3233 4129 
Q 3647 3509 3647 2328 
Q 3647 1150 3233 529 
Q 2819 -91 2034 -91 
Q 1250 -91 836 529 
Q 422 1150 422 2328 
Q 422 3509 836 4129 
Q 1250 4750 2034 4750 
z
" transform="scale(0.015625)"/>
       </defs>
       <use xlink:href="#DejaVuSans-30"/>
      </g>
     </g>
    </g>
    <g id="xtick_2">
     <g id="line2d_2">
      <g>
       <use xlink:href="#m2f45d6cbff" x="126.191972" y="162.432" style="stroke: #000000; stroke-width: 0.8"/>
      </g>
     </g>
     <g id="text_2">
      <!-- 10000 -->
      <g transform="translate(110.285722 177.030437)scale(0.1 -0.1)">
       <defs>
        <path id="DejaVuSans-31" d="M 794 531 
L 1825 531 
L 1825 4091 
L 703 3866 
L 703 4441 
L 1819 4666 
L 2450 4666 
L 2450 531 
L 3481 531 
L 3481 0 
L 794 0 
L 794 531 
z
" transform="scale(0.015625)"/>
       </defs>
       <use xlink:href="#DejaVuSans-31"/>
       <use xlink:href="#DejaVuSans-30" x="63.623047"/>
       <use xlink:href="#DejaVuSans-30" x="127.246094"/>
       <use xlink:href="#DejaVuSans-30" x="190.869141"/>
       <use xlink:href="#DejaVuSans-30" x="254.492188"/>
      </g>
     </g>
    </g>
    <g id="xtick_3">
     <g id="line2d_3">
      <g>
       <use xlink:href="#m2f45d6cbff" x="178.556453" y="162.432" style="stroke: #000000; stroke-width: 0.8"/>
      </g>
     </g>
     <g id="text_3">
      <!-- 20000 -->
      <g transform="translate(162.650203 177.030437)scale(0.1 -0.1)">
       <defs>
        <path id="DejaVuSans-32" d="M 1228 531 
L 3431 531 
L 3431 0 
L 469 0 
L 469 531 
Q 828 903 1448 1529 
Q 2069 2156 2228 2338 
Q 2531 2678 2651 2914 
Q 2772 3150 2772 3378 
Q 2772 3750 2511 3984 
Q 2250 4219 1831 4219 
Q 1534 4219 1204 4116 
Q 875 4013 500 3803 
L 500 4441 
Q 881 4594 1212 4672 
Q 1544 4750 1819 4750 
Q 2544 4750 2975 4387 
Q 3406 4025 3406 3419 
Q 3406 3131 3298 2873 
Q 3191 2616 2906 2266 
Q 2828 2175 2409 1742 
Q 1991 1309 1228 531 
z
" transform="scale(0.015625)"/>
       </defs>
       <use xlink:href="#DejaVuSans-32"/>
       <use xlink:href="#DejaVuSans-30" x="63.623047"/>
       <use xlink:href="#DejaVuSans-30" x="127.246094"/>
       <use xlink:href="#DejaVuSans-30" x="190.869141"/>
       <use xlink:href="#DejaVuSans-30" x="254.492188"/>
      </g>
     </g>
    </g>
    <g id="xtick_4">
     <g id="line2d_4">
      <g>
       <use xlink:href="#m2f45d6cbff" x="230.920934" y="162.432" style="stroke: #000000; stroke-width: 0.8"/>
      </g>
     </g>
     <g id="text_4">
      <!-- 30000 -->
      <g transform="translate(215.014684 177.030437)scale(0.1 -0.1)">
       <defs>
        <path id="DejaVuSans-33" d="M 2597 2516 
Q 3050 2419 3304 2112 
Q 3559 1806 3559 1356 
Q 3559 666 3084 287 
Q 2609 -91 1734 -91 
Q 1441 -91 1130 -33 
Q 819 25 488 141 
L 488 750 
Q 750 597 1062 519 
Q 1375 441 1716 441 
Q 2309 441 2620 675 
Q 2931 909 2931 1356 
Q 2931 1769 2642 2001 
Q 2353 2234 1838 2234 
L 1294 2234 
L 1294 2753 
L 1863 2753 
Q 2328 2753 2575 2939 
Q 2822 3125 2822 3475 
Q 2822 3834 2567 4026 
Q 2313 4219 1838 4219 
Q 1578 4219 1281 4162 
Q 984 4106 628 3988 
L 628 4550 
Q 988 4650 1302 4700 
Q 1616 4750 1894 4750 
Q 2613 4750 3031 4423 
Q 3450 4097 3450 3541 
Q 3450 3153 3228 2886 
Q 3006 2619 2597 2516 
z
" transform="scale(0.015625)"/>
       </defs>
       <use xlink:href="#DejaVuSans-33"/>
       <use xlink:href="#DejaVuSans-30" x="63.623047"/>
       <use xlink:href="#DejaVuSans-30" x="127.246094"/>
       <use xlink:href="#DejaVuSans-30" x="190.869141"/>
       <use xlink:href="#DejaVuSans-30" x="254.492188"/>
      </g>
     </g>
    </g>
    <g id="xtick_5">
     <g id="line2d_5">
      <g>
       <use xlink:href="#m2f45d6cbff" x="283.285415" y="162.432" style="stroke: #000000; stroke-width: 0.8"/>
      </g>
     </g>
     <g id="text_5">
      <!-- 40000 -->
      <g transform="translate(267.379165 177.030437)scale(0.1 -0.1)">
       <defs>
        <path id="DejaVuSans-34" d="M 2419 4116 
L 825 1625 
L 2419 1625 
L 2419 4116 
z
M 2253 4666 
L 3047 4666 
L 3047 1625 
L 3713 1625 
L 3713 1100 
L 3047 1100 
L 3047 0 
L 2419 0 
L 2419 1100 
L 313 1100 
L 313 1709 
L 2253 4666 
z
" transform="scale(0.015625)"/>
       </defs>
       <use xlink:href="#DejaVuSans-34"/>
       <use xlink:href="#DejaVuSans-30" x="63.623047"/>
       <use xlink:href="#DejaVuSans-30" x="127.246094"/>
       <use xlink:href="#DejaVuSans-30" x="190.869141"/>
       <use xlink:href="#DejaVuSans-30" x="254.492188"/>
      </g>
     </g>
    </g>
    <g id="xtick_6">
     <g id="line2d_6">
      <g>
       <use xlink:href="#m2f45d6cbff" x="335.649896" y="162.432" style="stroke: #000000; stroke-width: 0.8"/>
      </g>
     </g>
     <g id="text_6">
      <!-- 50000 -->
      <g transform="translate(319.743646 177.030437)scale(0.1 -0.1)">
       <defs>
        <path id="DejaVuSans-35" d="M 691 4666 
L 3169 4666 
L 3169 4134 
L 1269 4134 
L 1269 2991 
Q 1406 3038 1543 3061 
Q 1681 3084 1819 3084 
Q 2600 3084 3056 2656 
Q 3513 2228 3513 1497 
Q 3513 744 3044 326 
Q 2575 -91 1722 -91 
Q 1428 -91 1123 -41 
Q 819 9 494 109 
L 494 744 
Q 775 591 1075 516 
Q 1375 441 1709 441 
Q 2250 441 2565 725 
Q 2881 1009 2881 1497 
Q 2881 1984 2565 2268 
Q 2250 2553 1709 2553 
Q 1456 2553 1204 2497 
Q 953 2441 691 2322 
L 691 4666 
z
" transform="scale(0.015625)"/>
       </defs>
       <use xlink:href="#DejaVuSans-35"/>
       <use xlink:href="#DejaVuSans-30" x="63.623047"/>
       <use xlink:href="#DejaVuSans-30" x="127.246094"/>
       <use xlink:href="#DejaVuSans-30" x="190.869141"/>
       <use xlink:href="#DejaVuSans-30" x="254.492188"/>
      </g>
     </g>
    </g>
    <g id="xtick_7">
     <g id="line2d_7">
      <g>
       <use xlink:href="#m2f45d6cbff" x="388.014377" y="162.432" style="stroke: #000000; stroke-width: 0.8"/>
      </g>
     </g>
     <g id="text_7">
      <!-- 60000 -->
      <g transform="translate(372.108127 177.030437)scale(0.1 -0.1)">
       <defs>
        <path id="DejaVuSans-36" d="M 2113 2584 
Q 1688 2584 1439 2293 
Q 1191 2003 1191 1497 
Q 1191 994 1439 701 
Q 1688 409 2113 409 
Q 2538 409 2786 701 
Q 3034 994 3034 1497 
Q 3034 2003 2786 2293 
Q 2538 2584 2113 2584 
z
M 3366 4563 
L 3366 3988 
Q 3128 4100 2886 4159 
Q 2644 4219 2406 4219 
Q 1781 4219 1451 3797 
Q 1122 3375 1075 2522 
Q 1259 2794 1537 2939 
Q 1816 3084 2150 3084 
Q 2853 3084 3261 2657 
Q 3669 2231 3669 1497 
Q 3669 778 3244 343 
Q 2819 -91 2113 -91 
Q 1303 -91 875 529 
Q 447 1150 447 2328 
Q 447 3434 972 4092 
Q 1497 4750 2381 4750 
Q 2619 4750 2861 4703 
Q 3103 4656 3366 4563 
z
" transform="scale(0.015625)"/>
       </defs>
       <use xlink:href="#DejaVuSans-36"/>
       <use xlink:href="#DejaVuSans-30" x="63.623047"/>
       <use xlink:href="#DejaVuSans-30" x="127.246094"/>
       <use xlink:href="#DejaVuSans-30" x="190.869141"/>
       <use xlink:href="#DejaVuSans-30" x="254.492188"/>
      </g>
     </g>
    </g>
   </g>
   <g id="matplotlib.axis_2">
    <g id="ytick_1">
     <g id="line2d_8">
      <defs>
       <path id="mafafdffa17" d="M 0 0 
L -3.5 0 
" style="stroke: #000000; stroke-width: 0.8"/>
      </defs>
      <g>
       <use xlink:href="#mafafdffa17" x="57.6" y="147.039131" style="stroke: #000000; stroke-width: 0.8"/>
      </g>
     </g>
     <g id="text_8">
      <!-- 70 -->
      <g transform="translate(37.875 150.83835)scale(0.1 -0.1)">
       <defs>
        <path id="DejaVuSans-37" d="M 525 4666 
L 3525 4666 
L 3525 4397 
L 1831 0 
L 1172 0 
L 2766 4134 
L 525 4134 
L 525 4666 
z
" transform="scale(0.015625)"/>
       </defs>
       <use xlink:href="#DejaVuSans-37"/>
       <use xlink:href="#DejaVuSans-30" x="63.623047"/>
      </g>
     </g>
    </g>
    <g id="ytick_2">
     <g id="line2d_9">
      <g>
       <use xlink:href="#mafafdffa17" x="57.6" y="116.437006" style="stroke: #000000; stroke-width: 0.8"/>
      </g>
     </g>
     <g id="text_9">
      <!-- 80 -->
      <g transform="translate(37.875 120.236225)scale(0.1 -0.1)">
       <defs>
        <path id="DejaVuSans-38" d="M 2034 2216 
Q 1584 2216 1326 1975 
Q 1069 1734 1069 1313 
Q 1069 891 1326 650 
Q 1584 409 2034 409 
Q 2484 409 2743 651 
Q 3003 894 3003 1313 
Q 3003 1734 2745 1975 
Q 2488 2216 2034 2216 
z
M 1403 2484 
Q 997 2584 770 2862 
Q 544 3141 544 3541 
Q 544 4100 942 4425 
Q 1341 4750 2034 4750 
Q 2731 4750 3128 4425 
Q 3525 4100 3525 3541 
Q 3525 3141 3298 2862 
Q 3072 2584 2669 2484 
Q 3125 2378 3379 2068 
Q 3634 1759 3634 1313 
Q 3634 634 3220 271 
Q 2806 -91 2034 -91 
Q 1263 -91 848 271 
Q 434 634 434 1313 
Q 434 1759 690 2068 
Q 947 2378 1403 2484 
z
M 1172 3481 
Q 1172 3119 1398 2916 
Q 1625 2713 2034 2713 
Q 2441 2713 2670 2916 
Q 2900 3119 2900 3481 
Q 2900 3844 2670 4047 
Q 2441 4250 2034 4250 
Q 1625 4250 1398 4047 
Q 1172 3844 1172 3481 
z
" transform="scale(0.015625)"/>
       </defs>
       <use xlink:href="#DejaVuSans-38"/>
       <use xlink:href="#DejaVuSans-30" x="63.623047"/>
      </g>
     </g>
    </g>
    <g id="ytick_3">
     <g id="line2d_10">
      <g>
       <use xlink:href="#mafafdffa17" x="57.6" y="85.834881" style="stroke: #000000; stroke-width: 0.8"/>
      </g>
     </g>
     <g id="text_10">
      <!-- 90 -->
      <g transform="translate(37.875 89.6341)scale(0.1 -0.1)">
       <defs>
        <path id="DejaVuSans-39" d="M 703 97 
L 703 672 
Q 941 559 1184 500 
Q 1428 441 1663 441 
Q 2288 441 2617 861 
Q 2947 1281 2994 2138 
Q 2813 1869 2534 1725 
Q 2256 1581 1919 1581 
Q 1219 1581 811 2004 
Q 403 2428 403 3163 
Q 403 3881 828 4315 
Q 1253 4750 1959 4750 
Q 2769 4750 3195 4129 
Q 3622 3509 3622 2328 
Q 3622 1225 3098 567 
Q 2575 -91 1691 -91 
Q 1453 -91 1209 -44 
Q 966 3 703 97 
z
M 1959 2075 
Q 2384 2075 2632 2365 
Q 2881 2656 2881 3163 
Q 2881 3666 2632 3958 
Q 2384 4250 1959 4250 
Q 1534 4250 1286 3958 
Q 1038 3666 1038 3163 
Q 1038 2656 1286 2365 
Q 1534 2075 1959 2075 
z
" transform="scale(0.015625)"/>
       </defs>
       <use xlink:href="#DejaVuSans-39"/>
       <use xlink:href="#DejaVuSans-30" x="63.623047"/>
      </g>
     </g>
    </g>
    <g id="ytick_4">
     <g id="line2d_11">
      <g>
       <use xlink:href="#mafafdffa17" x="57.6" y="55.232756" style="stroke: #000000; stroke-width: 0.8"/>
      </g>
     </g>
     <g id="text_11">
      <!-- 100 -->
      <g transform="translate(31.5125 59.031974)scale(0.1 -0.1)">
       <use xlink:href="#DejaVuSans-31"/>
       <use xlink:href="#DejaVuSans-30" x="63.623047"/>
       <use xlink:href="#DejaVuSans-30" x="127.246094"/>
      </g>
     </g>
    </g>
   </g>
   <g id="line2d_12">
    <path d="M 73.832727 58.292968 
L 73.979348 81.65259 
L 73.995057 81.65259 
L 74.120732 91.853299 
L 74.141678 91.853299 
L 74.262116 100.013865 
L 74.288298 100.013865 
L 74.4035 103.074078 
L 74.450628 103.074078 
L 74.571066 109.194503 
L 74.686268 109.194503 
L 74.80147 114.294857 
L 74.9638 114.294857 
L 75.084238 120.415282 
L 75.387952 120.415282 
L 75.429844 123.475495 
L 75.497918 122.455424 
L 75.990144 122.455424 
L 76.105346 121.435353 
L 76.57139 121.435353 
L 76.686591 124.495566 
L 76.958887 124.495566 
L 77.074089 127.555778 
L 77.110744 127.555778 
L 77.225946 126.535707 
L 77.341147 126.535707 
L 77.456349 129.59592 
L 78.147561 129.59592 
L 78.262762 132.656132 
L 78.980156 132.656132 
L 79.095358 131.636061 
L 79.273397 131.636061 
L 79.388599 134.696274 
L 82.341955 134.696274 
L 82.457157 137.756486 
L 82.965093 137.756486 
L 83.080295 140.816699 
L 83.541102 140.816699 
L 83.656304 139.796628 
L 92.589684 139.796628 
L 92.704886 139.031575 
L 133.282122 139.031575 
L 133.397324 142.091787 
L 141.346253 142.091787 
L 141.461454 141.479745 
L 178.875876 141.479745 
L 178.991078 144.539957 
L 322.417391 144.539957 
L 322.532593 147.60017 
L 398.487273 147.60017 
L 398.487273 147.60017 
" clip-path="url(#p485bed490f)" style="fill: none; stroke: #1f77b4; stroke-width: 1.5; stroke-linecap: square"/>
   </g>
   <g id="line2d_13">
    <path d="M 73.832727 55.232756 
L 73.869382 55.232756 
L 73.984584 64.413393 
L 73.989821 63.64834 
L 74.07884 63.64834 
L 74.194042 62.883287 
L 398.487273 62.883287 
L 398.487273 62.883287 
" clip-path="url(#p485bed490f)" style="fill: none; stroke: #ff7f0e; stroke-width: 1.5; stroke-linecap: square"/>
   </g>
   <g id="line2d_14">
    <path d="M 73.832727 53.702649 
L 73.85891 48.857313 
L 73.885092 58.03795 
L 73.911274 56.507844 
L 74.052658 75.88919 
L 74.07884 75.88919 
L 74.204515 84.81481 
L 74.225461 84.81481 
L 74.246407 81.754597 
L 74.293535 87.875022 
L 74.324953 87.875022 
L 74.429682 87.875022 
L 74.450628 86.344916 
L 74.47681 92.465341 
L 74.534411 89.405129 
L 74.623431 89.405129 
L 74.670559 92.465341 
L 74.733396 89.915164 
L 74.743869 89.915164 
L 74.770051 92.975377 
L 74.853835 91.44527 
L 74.9638 91.44527 
L 75.005692 94.505483 
L 75.073765 92.975377 
L 75.28846 92.975377 
L 75.382716 96.035589 
L 75.398425 94.505483 
L 75.429844 94.505483 
L 75.503154 93.485412 
L 75.508391 96.545625 
L 75.518864 96.545625 
L 75.59741 99.605837 
L 75.628829 98.075731 
L 75.990144 98.075731 
L 76.105346 97.05566 
L 76.57139 97.05566 
L 76.686591 100.115872 
L 77.110744 100.115872 
L 77.225946 99.095802 
L 77.880502 99.095802 
L 77.995704 96.953653 
L 78.147561 96.953653 
L 78.262762 100.013865 
L 78.414619 100.013865 
L 78.529821 99.248812 
L 78.980156 99.248812 
L 79.095358 98.228741 
L 79.163431 98.228741 
L 79.278633 101.288954 
L 81.378449 101.288954 
L 81.493651 99.758848 
L 82.341955 99.758848 
L 82.457157 102.81906 
L 83.541102 102.81906 
L 83.656304 101.798989 
L 83.870998 101.798989 
L 83.9862 104.859202 
L 85.656627 104.859202 
L 85.771829 107.919414 
L 89.730584 107.919414 
L 89.845786 106.389308 
L 92.856743 106.389308 
L 92.971945 104.859202 
L 93.191876 104.859202 
L 93.307078 107.919414 
L 97.548601 107.919414 
L 97.663803 110.979627 
L 101.30837 110.979627 
L 101.423572 114.039839 
L 101.95769 114.039839 
L 102.072892 113.274786 
L 141.346253 113.274786 
L 141.461454 112.662744 
L 168.806186 112.662744 
L 168.921388 111.132638 
L 169.052299 111.132638 
L 169.167501 114.19285 
L 180.603904 114.19285 
L 180.719106 112.662744 
L 183.096453 112.662744 
L 183.211655 115.722956 
L 186.379706 115.722956 
L 186.494908 118.783169 
L 322.417391 118.783169 
L 322.532593 121.843381 
L 398.487273 121.843381 
L 398.487273 121.843381 
" clip-path="url(#p485bed490f)" style="fill: none; stroke: #2ca02c; stroke-width: 1.5; stroke-linecap: square"/>
   </g>
   <g id="line2d_15">
    <path d="M 73.832727 55.232756 
L 73.8432 55.232756 
L 73.864146 60.588128 
L 73.958402 59.109025 
L 74.036949 59.109025 
L 74.162624 68.289662 
L 74.49252 68.289662 
L 74.607722 71.349875 
L 74.686268 71.349875 
L 74.811943 80.530512 
L 75.031874 80.530512 
L 75.147076 83.590725 
L 75.387952 83.590725 
L 75.508391 89.71115 
L 75.990144 89.71115 
L 76.105346 92.771362 
L 76.57139 92.771362 
L 76.686591 92.006309 
L 77.110744 92.006309 
L 77.225946 95.066522 
L 77.341147 95.066522 
L 77.456349 98.126734 
L 77.890975 98.126734 
L 78.006176 97.514692 
L 78.147561 97.514692 
L 78.262762 96.749639 
L 79.273397 96.749639 
L 79.388599 99.809851 
L 82.965093 99.809851 
L 83.080295 102.870064 
L 83.870998 102.870064 
L 83.9862 102.105011 
L 89.730584 102.105011 
L 89.845786 105.165223 
L 92.589684 105.165223 
L 92.704886 108.225436 
L 93.191876 108.225436 
L 93.307078 107.460383 
L 133.282122 107.460383 
L 133.397324 110.520595 
L 178.875876 110.520595 
L 178.991078 113.580808 
L 180.603904 113.580808 
L 180.719106 116.64102 
L 183.096453 116.64102 
L 183.211655 115.875967 
L 322.417391 115.875967 
L 322.532593 115.110914 
L 398.487273 115.110914 
L 398.487273 115.110914 
" clip-path="url(#p485bed490f)" style="fill: none; stroke: #d62728; stroke-width: 1.5; stroke-linecap: square"/>
   </g>
   <g id="line2d_16">
    <path d="M 73.832727 58.292968 
L 73.85891 56.507844 
L 73.885092 65.688482 
L 73.890328 65.688482 
L 73.958402 74.869119 
L 74.010767 72.318942 
L 74.07884 68.748694 
L 74.131205 70.2788 
L 74.157387 70.2788 
L 74.178333 73.339013 
L 74.246407 69.25873 
L 74.262116 69.25873 
L 74.429682 69.25873 
L 74.555357 64.668411 
L 74.696741 64.668411 
L 74.81718 62.118234 
L 75.005692 62.118234 
L 75.120894 60.588128 
L 75.382716 60.588128 
L 75.497918 58.03795 
L 75.990144 58.03795 
L 76.105346 57.01788 
L 77.110744 57.01788 
L 77.225946 55.997809 
L 77.880502 55.997809 
L 77.995704 54.467702 
L 78.980156 54.467702 
L 79.095358 53.447632 
L 81.378449 53.447632 
L 81.493651 51.917525 
L 82.341955 51.917525 
L 82.457157 54.977738 
L 83.541102 54.977738 
L 83.656304 53.957667 
L 89.730584 53.957667 
L 89.845786 52.427561 
L 92.589684 52.427561 
L 92.704886 55.487773 
L 92.856743 55.487773 
L 92.971945 53.957667 
L 101.95769 53.957667 
L 102.072892 53.192614 
L 141.346253 53.192614 
L 141.461454 52.580571 
L 168.806186 52.580571 
L 168.921388 51.050465 
L 180.603904 51.050465 
L 180.719106 49.520359 
L 398.487273 49.520359 
L 398.487273 49.520359 
" clip-path="url(#p485bed490f)" style="fill: none; stroke: #9467bd; stroke-width: 1.5; stroke-linecap: square"/>
   </g>
   <g id="line2d_17">
    <path d="M 73.832727 55.232756 
L 73.853673 55.232756 
L 73.974111 52.835589 
L 74.09455 52.835589 
L 74.209752 52.070536 
L 78.414619 52.070536 
L 78.529821 51.305483 
L 82.341955 51.305483 
L 82.457157 50.54043 
L 92.589684 50.54043 
L 92.704886 49.775377 
L 398.487273 49.775377 
L 398.487273 49.775377 
" clip-path="url(#p485bed490f)" style="fill: none; stroke: #8c564b; stroke-width: 1.5; stroke-linecap: square"/>
   </g>
   <g id="line2d_18">
    <path d="M 73.832727 55.232756 
L 73.984584 79.867466 
L 74.036949 79.102413 
L 74.042185 82.162626 
L 74.084077 81.397573 
L 74.141678 81.397573 
L 74.267352 90.57821 
L 74.429682 90.57821 
L 74.555357 99.758848 
L 74.623431 99.758848 
L 74.686268 98.738777 
L 74.701978 104.859202 
L 74.707214 104.859202 
L 74.764815 104.859202 
L 74.880017 107.919414 
L 75.005692 107.919414 
L 75.12613 114.039839 
L 75.387952 114.039839 
L 75.513627 123.220477 
L 75.518864 123.220477 
L 75.634065 122.200406 
L 75.990144 122.200406 
L 76.105346 125.260619 
L 76.57139 125.260619 
L 76.686591 124.495566 
L 76.958887 124.495566 
L 77.074089 127.555778 
L 77.110744 127.555778 
L 77.225946 130.615991 
L 77.341147 130.615991 
L 77.456349 133.676203 
L 77.880502 133.676203 
L 77.890975 136.736416 
L 77.995704 136.124373 
L 78.147561 136.124373 
L 78.262762 135.35932 
L 78.980156 135.35932 
L 79.095358 138.419532 
L 79.163431 138.419532 
L 79.273397 137.399462 
L 79.388599 140.459674 
L 82.341955 140.459674 
L 82.457157 143.519887 
L 82.965093 143.519887 
L 83.080295 146.580099 
L 83.870998 146.580099 
L 83.9862 145.815046 
L 89.730584 145.815046 
L 89.845786 148.875259 
L 92.589684 148.875259 
L 92.704886 151.935471 
L 93.191876 151.935471 
L 93.307078 151.170418 
L 97.548601 151.170418 
L 97.663803 150.150347 
L 101.95769 150.150347 
L 102.072892 149.385294 
L 133.282122 149.385294 
L 133.397324 152.445506 
L 141.346253 152.445506 
L 141.461454 151.833464 
L 169.052299 151.833464 
L 169.167501 150.813393 
L 178.875876 150.813393 
L 178.991078 153.873606 
L 180.603904 153.873606 
L 180.719106 156.933818 
L 183.096453 156.933818 
L 183.211655 156.168765 
L 186.379706 156.168765 
L 186.494908 155.148694 
L 322.417391 155.148694 
L 322.532593 154.383641 
L 398.487273 154.383641 
L 398.487273 154.383641 
" clip-path="url(#p485bed490f)" style="fill: none; stroke: #e377c2; stroke-width: 1.5; stroke-linecap: square"/>
   </g>
   <g id="line2d_19">
    <path d="M 73.832727 55.232756 
L 73.979348 50.030394 
L 74.09455 50.030394 
L 74.209752 49.265341 
L 78.414619 49.265341 
L 78.529821 48.500288 
L 82.341955 48.500288 
L 82.457157 47.735235 
L 92.589684 47.735235 
L 92.704886 46.970182 
L 398.487273 46.970182 
L 398.487273 46.970182 
" clip-path="url(#p485bed490f)" style="fill: none; stroke: #7f7f7f; stroke-width: 1.5; stroke-linecap: square"/>
   </g>
   <g id="line2d_20">
    <path d="M 73.832727 58.292968 
L 73.8432 57.527915 
L 73.890328 63.801351 
L 73.895565 62.78128 
L 73.974111 79.357431 
L 74.021239 71.961917 
L 74.036949 71.961917 
L 74.047422 75.02213 
L 74.105023 71.7069 
L 74.152151 74.767112 
L 74.157387 74.767112 
L 74.246407 77.827325 
L 74.267352 76.807254 
L 74.288298 76.807254 
L 74.4035 75.277148 
L 74.429682 75.277148 
L 74.550121 81.397573 
L 74.623431 81.397573 
L 74.686268 80.377502 
L 74.701978 86.497927 
L 74.707214 86.497927 
L 74.743869 86.497927 
L 74.764815 84.967821 
L 74.770051 88.028033 
L 74.848598 88.028033 
L 74.9638 88.028033 
L 75.005692 86.497927 
L 75.03711 92.618352 
L 75.058056 92.618352 
L 75.28846 92.618352 
L 75.387952 91.598281 
L 75.503154 97.718706 
L 75.623593 95.678564 
L 75.990144 95.678564 
L 76.105346 98.738777 
L 76.57139 98.738777 
L 76.686591 97.973724 
L 76.958887 97.973724 
L 77.074089 101.033936 
L 77.110744 101.033936 
L 77.225946 104.094149 
L 77.341147 104.094149 
L 77.456349 107.154361 
L 77.880502 107.154361 
L 77.890975 110.214574 
L 77.995704 109.602531 
L 78.147561 109.602531 
L 78.262762 108.837478 
L 78.980156 108.837478 
L 79.095358 111.897691 
L 79.163431 111.897691 
L 79.273397 110.87762 
L 79.388599 113.937832 
L 82.341955 113.937832 
L 82.457157 116.998045 
L 82.965093 116.998045 
L 83.080295 120.058257 
L 83.870998 120.058257 
L 83.9862 119.293204 
L 85.656627 119.293204 
L 85.771829 118.273133 
L 89.730584 118.273133 
L 89.845786 121.333346 
L 92.589684 121.333346 
L 92.704886 124.393558 
L 93.191876 124.393558 
L 93.307078 123.628505 
L 97.548601 123.628505 
L 97.663803 122.608434 
L 101.30837 122.608434 
L 101.423572 121.588364 
L 101.95769 121.588364 
L 102.072892 120.823311 
L 133.282122 120.823311 
L 133.397324 123.883523 
L 141.346253 123.883523 
L 141.461454 123.271481 
L 169.052299 123.271481 
L 169.167501 122.25141 
L 178.875876 122.25141 
L 178.991078 125.311622 
L 180.603904 125.311622 
L 180.719106 128.371835 
L 183.096453 128.371835 
L 183.211655 127.606782 
L 186.379706 127.606782 
L 186.494908 126.586711 
L 322.417391 126.586711 
L 322.532593 125.821658 
L 398.487273 125.821658 
L 398.487273 125.821658 
" clip-path="url(#p485bed490f)" style="fill: none; stroke: #bcbd22; stroke-width: 1.5; stroke-linecap: square"/>
   </g>
   <g id="line2d_21">
    <path d="M 73.832727 53.702649 
L 73.974111 76.705247 
L 73.979348 75.685176 
L 73.984584 75.685176 
L 74.010767 71.85991 
L 74.047422 79.510442 
L 74.073604 78.490371 
L 74.07884 78.490371 
L 74.178333 73.900052 
L 74.209752 75.430158 
L 74.225461 75.430158 
L 74.246407 81.550583 
L 74.340663 79.000406 
L 74.429682 79.000406 
L 74.550121 85.120831 
L 74.623431 85.120831 
L 74.696741 79.510442 
L 74.754342 81.040548 
L 74.764815 81.040548 
L 74.770051 77.980335 
L 74.87478 81.040548 
L 74.9638 81.040548 
L 75.010928 82.570654 
L 75.079002 79.510442 
L 75.28846 79.510442 
L 75.387952 81.550583 
L 75.403662 78.490371 
L 75.429844 78.490371 
L 75.503154 81.550583 
L 75.539809 79.510442 
L 75.59741 79.510442 
L 75.712612 77.980335 
L 75.990144 77.980335 
L 76.105346 81.040548 
L 76.57139 81.040548 
L 76.686591 80.275495 
L 76.958887 80.275495 
L 77.074089 77.215282 
L 77.110744 77.215282 
L 77.225946 80.275495 
L 77.341147 80.275495 
L 77.456349 77.215282 
L 77.880502 77.215282 
L 77.890975 80.275495 
L 77.995704 79.663452 
L 78.147561 79.663452 
L 78.262762 78.898399 
L 78.414619 78.898399 
L 78.529821 78.133346 
L 78.980156 78.133346 
L 79.095358 81.193558 
L 79.163431 81.193558 
L 79.294343 77.113275 
L 81.378449 77.113275 
L 81.493651 80.173488 
L 82.341955 80.173488 
L 82.457157 79.408434 
L 82.965093 79.408434 
L 83.080295 76.348222 
L 83.541102 76.348222 
L 83.656304 79.408434 
L 83.870998 79.408434 
L 83.9862 78.643381 
L 85.656627 78.643381 
L 85.771829 77.623311 
L 89.730584 77.623311 
L 89.845786 80.683523 
L 92.856743 80.683523 
L 92.971945 83.743736 
L 93.191876 83.743736 
L 93.307078 82.978682 
L 97.548601 82.978682 
L 97.663803 81.958612 
L 101.30837 81.958612 
L 101.423572 80.938541 
L 101.95769 80.938541 
L 102.072892 83.998753 
L 133.282122 83.998753 
L 133.397324 80.938541 
L 141.346253 80.938541 
L 141.461454 83.998753 
L 168.806186 83.998753 
L 168.921388 87.058966 
L 169.052299 87.058966 
L 169.167501 86.038895 
L 178.875876 86.038895 
L 178.991078 82.978682 
L 180.603904 82.978682 
L 180.719106 86.038895 
L 183.096453 86.038895 
L 183.211655 85.273842 
L 186.379706 85.273842 
L 186.494908 84.253771 
L 322.417391 84.253771 
L 322.532593 83.488718 
L 398.487273 83.488718 
L 398.487273 83.488718 
" clip-path="url(#p485bed490f)" style="fill: none; stroke: #17becf; stroke-width: 1.5; stroke-linecap: square"/>
   </g>
   <g id="line2d_22">
    <path d="M 73.832727 55.232756 
L 73.853673 55.232756 
L 73.979348 64.413393 
L 74.09455 64.413393 
L 74.209752 67.473606 
L 78.414619 67.473606 
L 78.529821 70.533818 
L 82.341955 70.533818 
L 82.457157 73.594031 
L 92.589684 73.594031 
L 92.704886 76.654243 
L 398.487273 76.654243 
L 398.487273 76.654243 
" clip-path="url(#p485bed490f)" style="fill: none; stroke: #1f77b4; stroke-width: 1.5; stroke-linecap: square"/>
   </g>
   <g id="line2d_23">
    <path d="M 73.832727 58.292968 
L 73.974111 78.082342 
L 73.984584 77.062272 
L 74.047422 83.182697 
L 74.063131 82.162626 
L 74.07884 82.162626 
L 74.183569 92.87337 
L 74.204515 91.343263 
L 74.225461 91.343263 
L 74.246407 97.463688 
L 74.340663 96.443617 
L 74.670559 96.443617 
L 74.790997 102.564043 
L 75.28846 102.564043 
L 75.382716 101.543972 
L 75.387952 104.604184 
L 75.503154 104.604184 
L 75.59741 103.584113 
L 75.602647 106.644326 
L 77.890975 106.644326 
L 78.006176 109.704538 
L 78.414619 109.704538 
L 78.529821 112.764751 
L 81.378449 112.764751 
L 81.493651 115.824963 
L 82.341955 115.824963 
L 82.457157 115.05991 
L 83.541102 115.05991 
L 83.656304 118.120123 
L 85.656627 118.120123 
L 85.771829 117.100052 
L 92.589684 117.100052 
L 92.704886 116.334999 
L 92.856743 116.334999 
L 92.971945 119.395211 
L 101.30837 119.395211 
L 101.423572 118.37514 
L 101.95769 118.37514 
L 102.072892 121.435353 
L 141.346253 121.435353 
L 141.461454 124.495566 
L 168.806186 124.495566 
L 168.921388 127.555778 
L 398.487273 127.555778 
L 398.487273 127.555778 
" clip-path="url(#p485bed490f)" style="fill: none; stroke: #ff7f0e; stroke-width: 1.5; stroke-linecap: square"/>
   </g>
   <g id="patch_3">
    <path d="M 57.6 162.432 
L 57.6 41.472 
" style="fill: none; stroke: #000000; stroke-width: 0.8; stroke-linejoin: miter; stroke-linecap: square"/>
   </g>
   <g id="patch_4">
    <path d="M 414.72 162.432 
L 414.72 41.472 
" style="fill: none; stroke: #000000; stroke-width: 0.8; stroke-linejoin: miter; stroke-linecap: square"/>
   </g>
   <g id="patch_5">
    <path d="M 57.6 162.432 
L 414.72 162.432 
" style="fill: none; stroke: #000000; stroke-width: 0.8; stroke-linejoin: miter; stroke-linecap: square"/>
   </g>
   <g id="patch_6">
    <path d="M 57.6 41.472 
L 414.72 41.472 
" style="fill: none; stroke: #000000; stroke-width: 0.8; stroke-linejoin: miter; stroke-linecap: square"/>
   </g>
   <g id="text_12">
    <!-- WSP -->
    <g transform="translate(361.832136 147.60017)scale(0.08 -0.08)">
     <defs>
      <path id="DejaVuSans-57" d="M 213 4666 
L 850 4666 
L 1831 722 
L 2809 4666 
L 3519 4666 
L 4500 722 
L 5478 4666 
L 6119 4666 
L 4947 0 
L 4153 0 
L 3169 4050 
L 2175 0 
L 1381 0 
L 213 4666 
z
" transform="scale(0.015625)"/>
      <path id="DejaVuSans-53" d="M 3425 4513 
L 3425 3897 
Q 3066 4069 2747 4153 
Q 2428 4238 2131 4238 
Q 1616 4238 1336 4038 
Q 1056 3838 1056 3469 
Q 1056 3159 1242 3001 
Q 1428 2844 1947 2747 
L 2328 2669 
Q 3034 2534 3370 2195 
Q 3706 1856 3706 1288 
Q 3706 609 3251 259 
Q 2797 -91 1919 -91 
Q 1588 -91 1214 -16 
Q 841 59 441 206 
L 441 856 
Q 825 641 1194 531 
Q 1563 422 1919 422 
Q 2459 422 2753 634 
Q 3047 847 3047 1241 
Q 3047 1584 2836 1778 
Q 2625 1972 2144 2069 
L 1759 2144 
Q 1053 2284 737 2584 
Q 422 2884 422 3419 
Q 422 4038 858 4394 
Q 1294 4750 2059 4750 
Q 2388 4750 2728 4690 
Q 3069 4631 3425 4513 
z
" transform="scale(0.015625)"/>
      <path id="DejaVuSans-50" d="M 1259 4147 
L 1259 2394 
L 2053 2394 
Q 2494 2394 2734 2622 
Q 2975 2850 2975 3272 
Q 2975 3691 2734 3919 
Q 2494 4147 2053 4147 
L 1259 4147 
z
M 628 4666 
L 2053 4666 
Q 2838 4666 3239 4311 
Q 3641 3956 3641 3272 
Q 3641 2581 3239 2228 
Q 2838 1875 2053 1875 
L 1259 1875 
L 1259 0 
L 628 0 
L 628 4666 
z
" transform="scale(0.015625)"/>
     </defs>
     <use xlink:href="#DejaVuSans-57"/>
     <use xlink:href="#DejaVuSans-53" x="98.876953"/>
     <use xlink:href="#DejaVuSans-50" x="162.353516"/>
    </g>
   </g>
   <g id="text_13">
    <!-- Iambic -->
    <g transform="translate(361.832136 62.883287)scale(0.08 -0.08)">
     <defs>
      <path id="DejaVuSans-49" d="M 628 4666 
L 1259 4666 
L 1259 0 
L 628 0 
L 628 4666 
z
" transform="scale(0.015625)"/>
      <path id="DejaVuSans-61" d="M 2194 1759 
Q 1497 1759 1228 1600 
Q 959 1441 959 1056 
Q 959 750 1161 570 
Q 1363 391 1709 391 
Q 2188 391 2477 730 
Q 2766 1069 2766 1631 
L 2766 1759 
L 2194 1759 
z
M 3341 1997 
L 3341 0 
L 2766 0 
L 2766 531 
Q 2569 213 2275 61 
Q 1981 -91 1556 -91 
Q 1019 -91 701 211 
Q 384 513 384 1019 
Q 384 1609 779 1909 
Q 1175 2209 1959 2209 
L 2766 2209 
L 2766 2266 
Q 2766 2663 2505 2880 
Q 2244 3097 1772 3097 
Q 1472 3097 1187 3025 
Q 903 2953 641 2809 
L 641 3341 
Q 956 3463 1253 3523 
Q 1550 3584 1831 3584 
Q 2591 3584 2966 3190 
Q 3341 2797 3341 1997 
z
" transform="scale(0.015625)"/>
      <path id="DejaVuSans-6d" d="M 3328 2828 
Q 3544 3216 3844 3400 
Q 4144 3584 4550 3584 
Q 5097 3584 5394 3201 
Q 5691 2819 5691 2113 
L 5691 0 
L 5113 0 
L 5113 2094 
Q 5113 2597 4934 2840 
Q 4756 3084 4391 3084 
Q 3944 3084 3684 2787 
Q 3425 2491 3425 1978 
L 3425 0 
L 2847 0 
L 2847 2094 
Q 2847 2600 2669 2842 
Q 2491 3084 2119 3084 
Q 1678 3084 1418 2786 
Q 1159 2488 1159 1978 
L 1159 0 
L 581 0 
L 581 3500 
L 1159 3500 
L 1159 2956 
Q 1356 3278 1631 3431 
Q 1906 3584 2284 3584 
Q 2666 3584 2933 3390 
Q 3200 3197 3328 2828 
z
" transform="scale(0.015625)"/>
      <path id="DejaVuSans-62" d="M 3116 1747 
Q 3116 2381 2855 2742 
Q 2594 3103 2138 3103 
Q 1681 3103 1420 2742 
Q 1159 2381 1159 1747 
Q 1159 1113 1420 752 
Q 1681 391 2138 391 
Q 2594 391 2855 752 
Q 3116 1113 3116 1747 
z
M 1159 2969 
Q 1341 3281 1617 3432 
Q 1894 3584 2278 3584 
Q 2916 3584 3314 3078 
Q 3713 2572 3713 1747 
Q 3713 922 3314 415 
Q 2916 -91 2278 -91 
Q 1894 -91 1617 61 
Q 1341 213 1159 525 
L 1159 0 
L 581 0 
L 581 4863 
L 1159 4863 
L 1159 2969 
z
" transform="scale(0.015625)"/>
      <path id="DejaVuSans-69" d="M 603 3500 
L 1178 3500 
L 1178 0 
L 603 0 
L 603 3500 
z
M 603 4863 
L 1178 4863 
L 1178 4134 
L 603 4134 
L 603 4863 
z
" transform="scale(0.015625)"/>
      <path id="DejaVuSans-63" d="M 3122 3366 
L 3122 2828 
Q 2878 2963 2633 3030 
Q 2388 3097 2138 3097 
Q 1578 3097 1268 2742 
Q 959 2388 959 1747 
Q 959 1106 1268 751 
Q 1578 397 2138 397 
Q 2388 397 2633 464 
Q 2878 531 3122 666 
L 3122 134 
Q 2881 22 2623 -34 
Q 2366 -91 2075 -91 
Q 1284 -91 818 406 
Q 353 903 353 1747 
Q 353 2603 823 3093 
Q 1294 3584 2113 3584 
Q 2378 3584 2631 3529 
Q 2884 3475 3122 3366 
z
" transform="scale(0.015625)"/>
     </defs>
     <use xlink:href="#DejaVuSans-49"/>
     <use xlink:href="#DejaVuSans-61" x="29.492188"/>
     <use xlink:href="#DejaVuSans-6d" x="90.771484"/>
     <use xlink:href="#DejaVuSans-62" x="188.183594"/>
     <use xlink:href="#DejaVuSans-69" x="251.660156"/>
     <use xlink:href="#DejaVuSans-63" x="279.443359"/>
    </g>
   </g>
   <g id="text_14">
    <!-- Parse -->
    <g transform="translate(361.832136 121.843381)scale(0.08 -0.08)">
     <defs>
      <path id="DejaVuSans-72" d="M 2631 2963 
Q 2534 3019 2420 3045 
Q 2306 3072 2169 3072 
Q 1681 3072 1420 2755 
Q 1159 2438 1159 1844 
L 1159 0 
L 581 0 
L 581 3500 
L 1159 3500 
L 1159 2956 
Q 1341 3275 1631 3429 
Q 1922 3584 2338 3584 
Q 2397 3584 2469 3576 
Q 2541 3569 2628 3553 
L 2631 2963 
z
" transform="scale(0.015625)"/>
      <path id="DejaVuSans-73" d="M 2834 3397 
L 2834 2853 
Q 2591 2978 2328 3040 
Q 2066 3103 1784 3103 
Q 1356 3103 1142 2972 
Q 928 2841 928 2578 
Q 928 2378 1081 2264 
Q 1234 2150 1697 2047 
L 1894 2003 
Q 2506 1872 2764 1633 
Q 3022 1394 3022 966 
Q 3022 478 2636 193 
Q 2250 -91 1575 -91 
Q 1294 -91 989 -36 
Q 684 19 347 128 
L 347 722 
Q 666 556 975 473 
Q 1284 391 1588 391 
Q 1994 391 2212 530 
Q 2431 669 2431 922 
Q 2431 1156 2273 1281 
Q 2116 1406 1581 1522 
L 1381 1569 
Q 847 1681 609 1914 
Q 372 2147 372 2553 
Q 372 3047 722 3315 
Q 1072 3584 1716 3584 
Q 2034 3584 2315 3537 
Q 2597 3491 2834 3397 
z
" transform="scale(0.015625)"/>
      <path id="DejaVuSans-65" d="M 3597 1894 
L 3597 1613 
L 953 1613 
Q 991 1019 1311 708 
Q 1631 397 2203 397 
Q 2534 397 2845 478 
Q 3156 559 3463 722 
L 3463 178 
Q 3153 47 2828 -22 
Q 2503 -91 2169 -91 
Q 1331 -91 842 396 
Q 353 884 353 1716 
Q 353 2575 817 3079 
Q 1281 3584 2069 3584 
Q 2775 3584 3186 3129 
Q 3597 2675 3597 1894 
z
M 3022 2063 
Q 3016 2534 2758 2815 
Q 2500 3097 2075 3097 
Q 1594 3097 1305 2825 
Q 1016 2553 972 2059 
L 3022 2063 
z
" transform="scale(0.015625)"/>
     </defs>
     <use xlink:href="#DejaVuSans-50"/>
     <use xlink:href="#DejaVuSans-61" x="55.802734"/>
     <use xlink:href="#DejaVuSans-72" x="117.082031"/>
     <use xlink:href="#DejaVuSans-73" x="158.195312"/>
     <use xlink:href="#DejaVuSans-65" x="210.294922"/>
    </g>
   </g>
   <g id="text_15">
    <!-- FootBin -->
    <g transform="translate(361.832136 115.110914)scale(0.08 -0.08)">
     <defs>
      <path id="DejaVuSans-46" d="M 628 4666 
L 3309 4666 
L 3309 4134 
L 1259 4134 
L 1259 2759 
L 3109 2759 
L 3109 2228 
L 1259 2228 
L 1259 0 
L 628 0 
L 628 4666 
z
" transform="scale(0.015625)"/>
      <path id="DejaVuSans-6f" d="M 1959 3097 
Q 1497 3097 1228 2736 
Q 959 2375 959 1747 
Q 959 1119 1226 758 
Q 1494 397 1959 397 
Q 2419 397 2687 759 
Q 2956 1122 2956 1747 
Q 2956 2369 2687 2733 
Q 2419 3097 1959 3097 
z
M 1959 3584 
Q 2709 3584 3137 3096 
Q 3566 2609 3566 1747 
Q 3566 888 3137 398 
Q 2709 -91 1959 -91 
Q 1206 -91 779 398 
Q 353 888 353 1747 
Q 353 2609 779 3096 
Q 1206 3584 1959 3584 
z
" transform="scale(0.015625)"/>
      <path id="DejaVuSans-74" d="M 1172 4494 
L 1172 3500 
L 2356 3500 
L 2356 3053 
L 1172 3053 
L 1172 1153 
Q 1172 725 1289 603 
Q 1406 481 1766 481 
L 2356 481 
L 2356 0 
L 1766 0 
Q 1100 0 847 248 
Q 594 497 594 1153 
L 594 3053 
L 172 3053 
L 172 3500 
L 594 3500 
L 594 4494 
L 1172 4494 
z
" transform="scale(0.015625)"/>
      <path id="DejaVuSans-42" d="M 1259 2228 
L 1259 519 
L 2272 519 
Q 2781 519 3026 730 
Q 3272 941 3272 1375 
Q 3272 1813 3026 2020 
Q 2781 2228 2272 2228 
L 1259 2228 
z
M 1259 4147 
L 1259 2741 
L 2194 2741 
Q 2656 2741 2882 2914 
Q 3109 3088 3109 3444 
Q 3109 3797 2882 3972 
Q 2656 4147 2194 4147 
L 1259 4147 
z
M 628 4666 
L 2241 4666 
Q 2963 4666 3353 4366 
Q 3744 4066 3744 3513 
Q 3744 3084 3544 2831 
Q 3344 2578 2956 2516 
Q 3422 2416 3680 2098 
Q 3938 1781 3938 1306 
Q 3938 681 3513 340 
Q 3088 0 2303 0 
L 628 0 
L 628 4666 
z
" transform="scale(0.015625)"/>
      <path id="DejaVuSans-6e" d="M 3513 2113 
L 3513 0 
L 2938 0 
L 2938 2094 
Q 2938 2591 2744 2837 
Q 2550 3084 2163 3084 
Q 1697 3084 1428 2787 
Q 1159 2491 1159 1978 
L 1159 0 
L 581 0 
L 581 3500 
L 1159 3500 
L 1159 2956 
Q 1366 3272 1645 3428 
Q 1925 3584 2291 3584 
Q 2894 3584 3203 3211 
Q 3513 2838 3513 2113 
z
" transform="scale(0.015625)"/>
     </defs>
     <use xlink:href="#DejaVuSans-46"/>
     <use xlink:href="#DejaVuSans-6f" x="53.894531"/>
     <use xlink:href="#DejaVuSans-6f" x="115.076172"/>
     <use xlink:href="#DejaVuSans-74" x="176.257812"/>
     <use xlink:href="#DejaVuSans-42" x="215.466797"/>
     <use xlink:href="#DejaVuSans-69" x="284.070312"/>
     <use xlink:href="#DejaVuSans-6e" x="311.853516"/>
    </g>
   </g>
   <g id="text_16">
    <!-- WFL -->
    <g transform="translate(361.832136 49.520359)scale(0.08 -0.08)">
     <defs>
      <path id="DejaVuSans-4c" d="M 628 4666 
L 1259 4666 
L 1259 531 
L 3531 531 
L 3531 0 
L 628 0 
L 628 4666 
z
" transform="scale(0.015625)"/>
     </defs>
     <use xlink:href="#DejaVuSans-57"/>
     <use xlink:href="#DejaVuSans-46" x="98.876953"/>
     <use xlink:href="#DejaVuSans-4c" x="156.396484"/>
    </g>
   </g>
   <g id="text_17">
    <!-- WFR -->
    <g transform="translate(361.832136 49.775377)scale(0.08 -0.08)">
     <defs>
      <path id="DejaVuSans-52" d="M 2841 2188 
Q 3044 2119 3236 1894 
Q 3428 1669 3622 1275 
L 4263 0 
L 3584 0 
L 2988 1197 
Q 2756 1666 2539 1819 
Q 2322 1972 1947 1972 
L 1259 1972 
L 1259 0 
L 628 0 
L 628 4666 
L 2053 4666 
Q 2853 4666 3247 4331 
Q 3641 3997 3641 3322 
Q 3641 2881 3436 2590 
Q 3231 2300 2841 2188 
z
M 1259 4147 
L 1259 2491 
L 2053 2491 
Q 2509 2491 2742 2702 
Q 2975 2913 2975 3322 
Q 2975 3731 2742 3939 
Q 2509 4147 2053 4147 
L 1259 4147 
z
" transform="scale(0.015625)"/>
     </defs>
     <use xlink:href="#DejaVuSans-57"/>
     <use xlink:href="#DejaVuSans-46" x="98.876953"/>
     <use xlink:href="#DejaVuSans-52" x="156.396484"/>
    </g>
   </g>
   <g id="text_18">
    <!-- Main-L -->
    <g transform="translate(361.832136 154.383641)scale(0.08 -0.08)">
     <defs>
      <path id="DejaVuSans-4d" d="M 628 4666 
L 1569 4666 
L 2759 1491 
L 3956 4666 
L 4897 4666 
L 4897 0 
L 4281 0 
L 4281 4097 
L 3078 897 
L 2444 897 
L 1241 4097 
L 1241 0 
L 628 0 
L 628 4666 
z
" transform="scale(0.015625)"/>
      <path id="DejaVuSans-2d" d="M 313 2009 
L 1997 2009 
L 1997 1497 
L 313 1497 
L 313 2009 
z
" transform="scale(0.015625)"/>
     </defs>
     <use xlink:href="#DejaVuSans-4d"/>
     <use xlink:href="#DejaVuSans-61" x="86.279297"/>
     <use xlink:href="#DejaVuSans-69" x="147.558594"/>
     <use xlink:href="#DejaVuSans-6e" x="175.341797"/>
     <use xlink:href="#DejaVuSans-2d" x="238.720703"/>
     <use xlink:href="#DejaVuSans-4c" x="274.804688"/>
    </g>
   </g>
   <g id="text_19">
    <!-- Main-R -->
    <g transform="translate(361.832136 46.970182)scale(0.08 -0.08)">
     <use xlink:href="#DejaVuSans-4d"/>
     <use xlink:href="#DejaVuSans-61" x="86.279297"/>
     <use xlink:href="#DejaVuSans-69" x="147.558594"/>
     <use xlink:href="#DejaVuSans-6e" x="175.341797"/>
     <use xlink:href="#DejaVuSans-2d" x="238.720703"/>
     <use xlink:href="#DejaVuSans-52" x="274.804688"/>
    </g>
   </g>
   <g id="text_20">
    <!-- AFL -->
    <g transform="translate(361.832136 125.821658)scale(0.08 -0.08)">
     <defs>
      <path id="DejaVuSans-41" d="M 2188 4044 
L 1331 1722 
L 3047 1722 
L 2188 4044 
z
M 1831 4666 
L 2547 4666 
L 4325 0 
L 3669 0 
L 3244 1197 
L 1141 1197 
L 716 0 
L 50 0 
L 1831 4666 
z
" transform="scale(0.015625)"/>
     </defs>
     <use xlink:href="#DejaVuSans-41"/>
     <use xlink:href="#DejaVuSans-46" x="68.408203"/>
     <use xlink:href="#DejaVuSans-4c" x="125.927734"/>
    </g>
   </g>
   <g id="text_21">
    <!-- AFR -->
    <g transform="translate(361.832136 83.488718)scale(0.08 -0.08)">
     <use xlink:href="#DejaVuSans-41"/>
     <use xlink:href="#DejaVuSans-46" x="68.408203"/>
     <use xlink:href="#DejaVuSans-52" x="125.927734"/>
    </g>
   </g>
   <g id="text_22">
    <!-- Nonfinal -->
    <g transform="translate(361.832136 76.654243)scale(0.08 -0.08)">
     <defs>
      <path id="DejaVuSans-4e" d="M 628 4666 
L 1478 4666 
L 3547 763 
L 3547 4666 
L 4159 4666 
L 4159 0 
L 3309 0 
L 1241 3903 
L 1241 0 
L 628 0 
L 628 4666 
z
" transform="scale(0.015625)"/>
      <path id="DejaVuSans-66" d="M 2375 4863 
L 2375 4384 
L 1825 4384 
Q 1516 4384 1395 4259 
Q 1275 4134 1275 3809 
L 1275 3500 
L 2222 3500 
L 2222 3053 
L 1275 3053 
L 1275 0 
L 697 0 
L 697 3053 
L 147 3053 
L 147 3500 
L 697 3500 
L 697 3744 
Q 697 4328 969 4595 
Q 1241 4863 1831 4863 
L 2375 4863 
z
" transform="scale(0.015625)"/>
      <path id="DejaVuSans-6c" d="M 603 4863 
L 1178 4863 
L 1178 0 
L 603 0 
L 603 4863 
z
" transform="scale(0.015625)"/>
     </defs>
     <use xlink:href="#DejaVuSans-4e"/>
     <use xlink:href="#DejaVuSans-6f" x="74.804688"/>
     <use xlink:href="#DejaVuSans-6e" x="135.986328"/>
     <use xlink:href="#DejaVuSans-66" x="199.365234"/>
     <use xlink:href="#DejaVuSans-69" x="234.570312"/>
     <use xlink:href="#DejaVuSans-6e" x="262.353516"/>
     <use xlink:href="#DejaVuSans-61" x="325.732422"/>
     <use xlink:href="#DejaVuSans-6c" x="387.011719"/>
    </g>
   </g>
   <g id="text_23">
    <!-- Trochaic -->
    <g transform="translate(361.832136 127.555778)scale(0.08 -0.08)">
     <defs>
      <path id="DejaVuSans-54" d="M -19 4666 
L 3928 4666 
L 3928 4134 
L 2272 4134 
L 2272 0 
L 1638 0 
L 1638 4134 
L -19 4134 
L -19 4666 
z
" transform="scale(0.015625)"/>
      <path id="DejaVuSans-68" d="M 3513 2113 
L 3513 0 
L 2938 0 
L 2938 2094 
Q 2938 2591 2744 2837 
Q 2550 3084 2163 3084 
Q 1697 3084 1428 2787 
Q 1159 2491 1159 1978 
L 1159 0 
L 581 0 
L 581 4863 
L 1159 4863 
L 1159 2956 
Q 1366 3272 1645 3428 
Q 1925 3584 2291 3584 
Q 2894 3584 3203 3211 
Q 3513 2838 3513 2113 
z
" transform="scale(0.015625)"/>
     </defs>
     <use xlink:href="#DejaVuSans-54"/>
     <use xlink:href="#DejaVuSans-72" x="46.333984"/>
     <use xlink:href="#DejaVuSans-6f" x="85.197266"/>
     <use xlink:href="#DejaVuSans-63" x="146.378906"/>
     <use xlink:href="#DejaVuSans-68" x="201.359375"/>
     <use xlink:href="#DejaVuSans-61" x="264.738281"/>
     <use xlink:href="#DejaVuSans-69" x="326.017578"/>
     <use xlink:href="#DejaVuSans-63" x="353.800781"/>
    </g>
   </g>
  </g>
  <g id="axes_2">
   <g id="patch_7">
    <path d="M 57.6 307.584 
L 414.72 307.584 
L 414.72 186.624 
L 57.6 186.624 
z
" style="fill: #ffffff"/>
   </g>
   <g id="matplotlib.axis_3">
    <g id="xtick_8">
     <g id="line2d_24">
      <g>
       <use xlink:href="#m2f45d6cbff" x="70.586182" y="307.584" style="stroke: #000000; stroke-width: 0.8"/>
      </g>
     </g>
     <g id="text_24">
      <!-- 0 -->
      <g transform="translate(67.404932 322.182437)scale(0.1 -0.1)">
       <use xlink:href="#DejaVuSans-30"/>
      </g>
     </g>
    </g>
    <g id="xtick_9">
     <g id="line2d_25">
      <g>
       <use xlink:href="#m2f45d6cbff" x="135.517091" y="307.584" style="stroke: #000000; stroke-width: 0.8"/>
      </g>
     </g>
     <g id="text_25">
      <!-- 20 -->
      <g transform="translate(129.154591 322.182437)scale(0.1 -0.1)">
       <use xlink:href="#DejaVuSans-32"/>
       <use xlink:href="#DejaVuSans-30" x="63.623047"/>
      </g>
     </g>
    </g>
    <g id="xtick_10">
     <g id="line2d_26">
      <g>
       <use xlink:href="#m2f45d6cbff" x="200.448" y="307.584" style="stroke: #000000; stroke-width: 0.8"/>
      </g>
     </g>
     <g id="text_26">
      <!-- 40 -->
      <g transform="translate(194.0855 322.182437)scale(0.1 -0.1)">
       <use xlink:href="#DejaVuSans-34"/>
       <use xlink:href="#DejaVuSans-30" x="63.623047"/>
      </g>
     </g>
    </g>
    <g id="xtick_11">
     <g id="line2d_27">
      <g>
       <use xlink:href="#m2f45d6cbff" x="265.378909" y="307.584" style="stroke: #000000; stroke-width: 0.8"/>
      </g>
     </g>
     <g id="text_27">
      <!-- 60 -->
      <g transform="translate(259.016409 322.182437)scale(0.1 -0.1)">
       <use xlink:href="#DejaVuSans-36"/>
       <use xlink:href="#DejaVuSans-30" x="63.623047"/>
      </g>
     </g>
    </g>
    <g id="xtick_12">
     <g id="line2d_28">
      <g>
       <use xlink:href="#m2f45d6cbff" x="330.309818" y="307.584" style="stroke: #000000; stroke-width: 0.8"/>
      </g>
     </g>
     <g id="text_28">
      <!-- 80 -->
      <g transform="translate(323.947318 322.182437)scale(0.1 -0.1)">
       <use xlink:href="#DejaVuSans-38"/>
       <use xlink:href="#DejaVuSans-30" x="63.623047"/>
      </g>
     </g>
    </g>
    <g id="xtick_13">
     <g id="line2d_29">
      <g>
       <use xlink:href="#m2f45d6cbff" x="395.240727" y="307.584" style="stroke: #000000; stroke-width: 0.8"/>
      </g>
     </g>
     <g id="text_29">
      <!-- 100 -->
      <g transform="translate(385.696977 322.182437)scale(0.1 -0.1)">
       <use xlink:href="#DejaVuSans-31"/>
       <use xlink:href="#DejaVuSans-30" x="63.623047"/>
       <use xlink:href="#DejaVuSans-30" x="127.246094"/>
      </g>
     </g>
    </g>
   </g>
   <g id="matplotlib.axis_4">
    <g id="ytick_5">
     <g id="line2d_30">
      <g>
       <use xlink:href="#mafafdffa17" x="57.6" y="302.090051" style="stroke: #000000; stroke-width: 0.8"/>
      </g>
     </g>
     <g id="text_30">
      <!-- 0 -->
      <g transform="translate(44.2375 305.88927)scale(0.1 -0.1)">
       <use xlink:href="#DejaVuSans-30"/>
      </g>
     </g>
    </g>
    <g id="ytick_6">
     <g id="line2d_31">
      <g>
       <use xlink:href="#mafafdffa17" x="57.6" y="280.925289" style="stroke: #000000; stroke-width: 0.8"/>
      </g>
     </g>
     <g id="text_31">
      <!-- 5000 -->
      <g transform="translate(25.15 284.724508)scale(0.1 -0.1)">
       <use xlink:href="#DejaVuSans-35"/>
       <use xlink:href="#DejaVuSans-30" x="63.623047"/>
       <use xlink:href="#DejaVuSans-30" x="127.246094"/>
       <use xlink:href="#DejaVuSans-30" x="190.869141"/>
      </g>
     </g>
    </g>
    <g id="ytick_7">
     <g id="line2d_32">
      <g>
       <use xlink:href="#mafafdffa17" x="57.6" y="259.760528" style="stroke: #000000; stroke-width: 0.8"/>
      </g>
     </g>
     <g id="text_32">
      <!-- 10000 -->
      <g transform="translate(18.7875 263.559746)scale(0.1 -0.1)">
       <use xlink:href="#DejaVuSans-31"/>
       <use xlink:href="#DejaVuSans-30" x="63.623047"/>
       <use xlink:href="#DejaVuSans-30" x="127.246094"/>
       <use xlink:href="#DejaVuSans-30" x="190.869141"/>
       <use xlink:href="#DejaVuSans-30" x="254.492188"/>
      </g>
     </g>
    </g>
    <g id="ytick_8">
     <g id="line2d_33">
      <g>
       <use xlink:href="#mafafdffa17" x="57.6" y="238.595766" style="stroke: #000000; stroke-width: 0.8"/>
      </g>
     </g>
     <g id="text_33">
      <!-- 15000 -->
      <g transform="translate(18.7875 242.394985)scale(0.1 -0.1)">
       <use xlink:href="#DejaVuSans-31"/>
       <use xlink:href="#DejaVuSans-35" x="63.623047"/>
       <use xlink:href="#DejaVuSans-30" x="127.246094"/>
       <use xlink:href="#DejaVuSans-30" x="190.869141"/>
       <use xlink:href="#DejaVuSans-30" x="254.492188"/>
      </g>
     </g>
    </g>
    <g id="ytick_9">
     <g id="line2d_34">
      <g>
       <use xlink:href="#mafafdffa17" x="57.6" y="217.431004" style="stroke: #000000; stroke-width: 0.8"/>
      </g>
     </g>
     <g id="text_34">
      <!-- 20000 -->
      <g transform="translate(18.7875 221.230223)scale(0.1 -0.1)">
       <use xlink:href="#DejaVuSans-32"/>
       <use xlink:href="#DejaVuSans-30" x="63.623047"/>
       <use xlink:href="#DejaVuSans-30" x="127.246094"/>
       <use xlink:href="#DejaVuSans-30" x="190.869141"/>
       <use xlink:href="#DejaVuSans-30" x="254.492188"/>
      </g>
     </g>
    </g>
    <g id="ytick_10">
     <g id="line2d_35">
      <g>
       <use xlink:href="#mafafdffa17" x="57.6" y="196.266242" style="stroke: #000000; stroke-width: 0.8"/>
      </g>
     </g>
     <g id="text_35">
      <!-- 25000 -->
      <g transform="translate(18.7875 200.065461)scale(0.1 -0.1)">
       <use xlink:href="#DejaVuSans-32"/>
       <use xlink:href="#DejaVuSans-35" x="63.623047"/>
       <use xlink:href="#DejaVuSans-30" x="127.246094"/>
       <use xlink:href="#DejaVuSans-30" x="190.869141"/>
       <use xlink:href="#DejaVuSans-30" x="254.492188"/>
      </g>
     </g>
    </g>
   </g>
   <g id="line2d_36">
    <path d="M 73.832727 302.085818 
L 77.079273 302.085818 
L 80.325818 302.085818 
L 83.572364 302.085818 
L 86.818909 302.085818 
L 90.065455 302.085818 
L 93.312 302.085818 
L 96.558545 302.085818 
L 99.805091 302.081585 
L 103.051636 302.085818 
L 106.298182 302.085818 
L 109.544727 302.085818 
L 112.791273 302.081585 
L 116.037818 302.085818 
L 119.284364 302.085818 
L 122.530909 302.085818 
L 125.777455 302.085818 
L 129.024 302.085818 
L 132.270545 302.085818 
L 135.517091 302.085818 
L 138.763636 302.085818 
L 142.010182 302.085818 
L 145.256727 302.085818 
L 148.503273 302.085818 
L 151.749818 302.081585 
L 154.996364 302.081585 
L 158.242909 302.081585 
L 161.489455 302.085818 
L 164.736 302.081585 
L 167.982545 302.085818 
L 171.229091 302.073119 
L 174.475636 302.085818 
L 177.722182 302.085818 
L 180.968727 302.064653 
L 184.215273 302.077352 
L 187.461818 302.085818 
L 190.708364 302.081585 
L 193.954909 302.064653 
L 197.201455 302.077352 
L 200.448 302.073119 
L 203.694545 302.085818 
L 206.941091 302.056188 
L 210.187636 302.077352 
L 213.434182 302.085818 
L 216.680727 302.056188 
L 219.927273 301.975761 
L 223.173818 302.073119 
L 226.420364 302.073119 
L 229.666909 302.073119 
L 232.913455 302.064653 
L 236.16 302.009625 
L 239.406545 302.051955 
L 242.653091 302.077352 
L 245.899636 302.081585 
L 249.146182 302.051955 
L 252.392727 302.073119 
L 255.639273 302.085818 
L 258.885818 301.933432 
L 262.132364 302.056188 
L 265.378909 302.068886 
L 268.625455 301.882636 
L 271.872 302.013858 
L 275.118545 302.085818 
L 278.365091 302.056188 
L 281.611636 302.03079 
L 284.858182 302.077352 
L 288.104727 302.026557 
L 291.351273 301.77258 
L 294.597818 301.620193 
L 297.844364 301.776813 
L 301.090909 301.967296 
L 304.337455 301.903801 
L 307.584 301.654057 
L 310.830545 302.081585 
L 314.077091 301.882636 
L 317.323636 301.874171 
L 320.570182 301.632892 
L 323.816727 301.941898 
L 327.063273 302.001159 
L 330.309818 300.388404 
L 333.556364 301.311188 
L 336.802909 301.58633 
L 340.049455 301.624426 
L 343.296 301.823375 
L 346.542545 300.646614 
L 349.789091 298.796814 
L 353.035636 299.778859 
L 356.282182 301.874171 
L 359.528727 301.819142 
L 362.775273 298.568235 
L 366.021818 299.050791 
L 369.268364 301.565165 
L 372.514909 276.76853 
L 375.761455 295.571305 
L 379.008 279.892449 
L 382.254545 301.891102 
L 385.501091 294.149033 
L 388.747636 300.693177 
L 391.994182 300.075166 
L 395.240727 299.43599 
L 398.487273 192.122182 
" clip-path="url(#p82c27941ca)" style="fill: none; stroke: #1f77b4; stroke-width: 1.5; stroke-linecap: square"/>
   </g>
   <g id="patch_8">
    <path d="M 57.6 307.584 
L 57.6 186.624 
" style="fill: none; stroke: #000000; stroke-width: 0.8; stroke-linejoin: miter; stroke-linecap: square"/>
   </g>
   <g id="patch_9">
    <path d="M 414.72 307.584 
L 414.72 186.624 
" style="fill: none; stroke: #000000; stroke-width: 0.8; stroke-linejoin: miter; stroke-linecap: square"/>
   </g>
   <g id="patch_10">
    <path d="M 57.6 307.584 
L 414.72 307.584 
" style="fill: none; stroke: #000000; stroke-width: 0.8; stroke-linejoin: miter; stroke-linecap: square"/>
   </g>
   <g id="patch_11">
    <path d="M 57.6 186.624 
L 414.72 186.624 
" style="fill: none; stroke: #000000; stroke-width: 0.8; stroke-linejoin: miter; stroke-linecap: square"/>
   </g>
  </g>
 </g>
 <defs>
  <clipPath id="p485bed490f">
   <rect x="57.6" y="41.472" width="357.12" height="120.96"/>
  </clipPath>
  <clipPath id="p82c27941ca">
   <rect x="57.6" y="186.624" width="357.12" height="120.96"/>
  </clipPath>
 </defs>
</svg>
