<?xml version="1.0" encoding="utf-8" standalone="no"?>
<!DOCTYPE svg PUBLIC "-//W3C//DTD SVG 1.1//EN"
  "http://www.w3.org/Graphics/SVG/1.1/DTD/svg11.dtd">
<svg xmlns:xlink="http://www.w3.org/1999/xlink" width="460.8pt" height="345.6pt" viewBox="0 0 460.8 345.6" xmlns="http://www.w3.org/2000/svg" version="1.1">
 <metadata>
  <rdf:RDF xmlns:dc="http://purl.org/dc/elements/1.1/" xmlns:cc="http://creativecommons.org/ns#" xmlns:rdf="http://www.w3.org/1999/02/22-rdf-syntax-ns#">
   <cc:Work>
    <dc:type rdf:resource="http://purl.org/dc/dcmitype/StillImage"/>
    <dc:date>2022-05-13T19:13:26.395017</dc:date>
    <dc:format>image/svg+xml</dc:format>
    <dc:creator>
     <cc:Agent>
      <dc:title>Matplotlib v3.5.1, https://matplotlib.org/</dc:title>
     </cc:Agent>
    </dc:creator>
   </cc:Work>
  </rdf:RDF>
 </metadata>
 <defs>
  <style type="text/css">*{stroke-linejoin: round; stroke-linecap: butt}</style>
 </defs>
 <g id="figure_1">
  <g id="patch_1">
   <path d="M 0 345.6 
L 460.8 345.6 
L 460.8 0 
L 0 0 
z
" style="fill: #ffffff"/>
  </g>
  <g id="axes_1">
   <g id="patch_2">
    <path d="M 57.6 162.432 
L 414.72 162.432 
L 414.72 41.472 
L 57.6 41.472 
z
" style="fill: #ffffff"/>
   </g>
   <g id="matplotlib.axis_1">
    <g id="xtick_1">
     <g id="line2d_1">
      <defs>
       <path id="m858592c6ff" d="M 0 0 
L 0 3.5 
" style="stroke: #000000; stroke-width: 0.8"/>
      </defs>
      <g>
       <use xlink:href="#m858592c6ff" x="73.827491" y="162.432" style="stroke: #000000; stroke-width: 0.8"/>
      </g>
     </g>
     <g id="text_1">
      <!-- 0 -->
      <g transform="translate(70.646241 177.030437)scale(0.1 -0.1)">
       <defs>
        <path id="DejaVuSans-30" d="M 2034 4250 
Q 1547 4250 1301 3770 
Q 1056 3291 1056 2328 
Q 1056 1369 1301 889 
Q 1547 409 2034 409 
Q 2525 409 2770 889 
Q 3016 1369 3016 2328 
Q 3016 3291 2770 3770 
Q 2525 4250 2034 4250 
z
M 2034 4750 
Q 2819 4750 3233 4129 
Q 3647 3509 3647 2328 
Q 3647 1150 3233 529 
Q 2819 -91 2034 -91 
Q 1250 -91 836 529 
Q 422 1150 422 2328 
Q 422 3509 836 4129 
Q 1250 4750 2034 4750 
z
" transform="scale(0.015625)"/>
       </defs>
       <use xlink:href="#DejaVuSans-30"/>
      </g>
     </g>
    </g>
    <g id="xtick_2">
     <g id="line2d_2">
      <g>
       <use xlink:href="#m858592c6ff" x="126.191972" y="162.432" style="stroke: #000000; stroke-width: 0.8"/>
      </g>
     </g>
     <g id="text_2">
      <!-- 10000 -->
      <g transform="translate(110.285722 177.030437)scale(0.1 -0.1)">
       <defs>
        <path id="DejaVuSans-31" d="M 794 531 
L 1825 531 
L 1825 4091 
L 703 3866 
L 703 4441 
L 1819 4666 
L 2450 4666 
L 2450 531 
L 3481 531 
L 3481 0 
L 794 0 
L 794 531 
z
" transform="scale(0.015625)"/>
       </defs>
       <use xlink:href="#DejaVuSans-31"/>
       <use xlink:href="#DejaVuSans-30" x="63.623047"/>
       <use xlink:href="#DejaVuSans-30" x="127.246094"/>
       <use xlink:href="#DejaVuSans-30" x="190.869141"/>
       <use xlink:href="#DejaVuSans-30" x="254.492188"/>
      </g>
     </g>
    </g>
    <g id="xtick_3">
     <g id="line2d_3">
      <g>
       <use xlink:href="#m858592c6ff" x="178.556453" y="162.432" style="stroke: #000000; stroke-width: 0.8"/>
      </g>
     </g>
     <g id="text_3">
      <!-- 20000 -->
      <g transform="translate(162.650203 177.030437)scale(0.1 -0.1)">
       <defs>
        <path id="DejaVuSans-32" d="M 1228 531 
L 3431 531 
L 3431 0 
L 469 0 
L 469 531 
Q 828 903 1448 1529 
Q 2069 2156 2228 2338 
Q 2531 2678 2651 2914 
Q 2772 3150 2772 3378 
Q 2772 3750 2511 3984 
Q 2250 4219 1831 4219 
Q 1534 4219 1204 4116 
Q 875 4013 500 3803 
L 500 4441 
Q 881 4594 1212 4672 
Q 1544 4750 1819 4750 
Q 2544 4750 2975 4387 
Q 3406 4025 3406 3419 
Q 3406 3131 3298 2873 
Q 3191 2616 2906 2266 
Q 2828 2175 2409 1742 
Q 1991 1309 1228 531 
z
" transform="scale(0.015625)"/>
       </defs>
       <use xlink:href="#DejaVuSans-32"/>
       <use xlink:href="#DejaVuSans-30" x="63.623047"/>
       <use xlink:href="#DejaVuSans-30" x="127.246094"/>
       <use xlink:href="#DejaVuSans-30" x="190.869141"/>
       <use xlink:href="#DejaVuSans-30" x="254.492188"/>
      </g>
     </g>
    </g>
    <g id="xtick_4">
     <g id="line2d_4">
      <g>
       <use xlink:href="#m858592c6ff" x="230.920934" y="162.432" style="stroke: #000000; stroke-width: 0.8"/>
      </g>
     </g>
     <g id="text_4">
      <!-- 30000 -->
      <g transform="translate(215.014684 177.030437)scale(0.1 -0.1)">
       <defs>
        <path id="DejaVuSans-33" d="M 2597 2516 
Q 3050 2419 3304 2112 
Q 3559 1806 3559 1356 
Q 3559 666 3084 287 
Q 2609 -91 1734 -91 
Q 1441 -91 1130 -33 
Q 819 25 488 141 
L 488 750 
Q 750 597 1062 519 
Q 1375 441 1716 441 
Q 2309 441 2620 675 
Q 2931 909 2931 1356 
Q 2931 1769 2642 2001 
Q 2353 2234 1838 2234 
L 1294 2234 
L 1294 2753 
L 1863 2753 
Q 2328 2753 2575 2939 
Q 2822 3125 2822 3475 
Q 2822 3834 2567 4026 
Q 2313 4219 1838 4219 
Q 1578 4219 1281 4162 
Q 984 4106 628 3988 
L 628 4550 
Q 988 4650 1302 4700 
Q 1616 4750 1894 4750 
Q 2613 4750 3031 4423 
Q 3450 4097 3450 3541 
Q 3450 3153 3228 2886 
Q 3006 2619 2597 2516 
z
" transform="scale(0.015625)"/>
       </defs>
       <use xlink:href="#DejaVuSans-33"/>
       <use xlink:href="#DejaVuSans-30" x="63.623047"/>
       <use xlink:href="#DejaVuSans-30" x="127.246094"/>
       <use xlink:href="#DejaVuSans-30" x="190.869141"/>
       <use xlink:href="#DejaVuSans-30" x="254.492188"/>
      </g>
     </g>
    </g>
    <g id="xtick_5">
     <g id="line2d_5">
      <g>
       <use xlink:href="#m858592c6ff" x="283.285415" y="162.432" style="stroke: #000000; stroke-width: 0.8"/>
      </g>
     </g>
     <g id="text_5">
      <!-- 40000 -->
      <g transform="translate(267.379165 177.030437)scale(0.1 -0.1)">
       <defs>
        <path id="DejaVuSans-34" d="M 2419 4116 
L 825 1625 
L 2419 1625 
L 2419 4116 
z
M 2253 4666 
L 3047 4666 
L 3047 1625 
L 3713 1625 
L 3713 1100 
L 3047 1100 
L 3047 0 
L 2419 0 
L 2419 1100 
L 313 1100 
L 313 1709 
L 2253 4666 
z
" transform="scale(0.015625)"/>
       </defs>
       <use xlink:href="#DejaVuSans-34"/>
       <use xlink:href="#DejaVuSans-30" x="63.623047"/>
       <use xlink:href="#DejaVuSans-30" x="127.246094"/>
       <use xlink:href="#DejaVuSans-30" x="190.869141"/>
       <use xlink:href="#DejaVuSans-30" x="254.492188"/>
      </g>
     </g>
    </g>
    <g id="xtick_6">
     <g id="line2d_6">
      <g>
       <use xlink:href="#m858592c6ff" x="335.649896" y="162.432" style="stroke: #000000; stroke-width: 0.8"/>
      </g>
     </g>
     <g id="text_6">
      <!-- 50000 -->
      <g transform="translate(319.743646 177.030437)scale(0.1 -0.1)">
       <defs>
        <path id="DejaVuSans-35" d="M 691 4666 
L 3169 4666 
L 3169 4134 
L 1269 4134 
L 1269 2991 
Q 1406 3038 1543 3061 
Q 1681 3084 1819 3084 
Q 2600 3084 3056 2656 
Q 3513 2228 3513 1497 
Q 3513 744 3044 326 
Q 2575 -91 1722 -91 
Q 1428 -91 1123 -41 
Q 819 9 494 109 
L 494 744 
Q 775 591 1075 516 
Q 1375 441 1709 441 
Q 2250 441 2565 725 
Q 2881 1009 2881 1497 
Q 2881 1984 2565 2268 
Q 2250 2553 1709 2553 
Q 1456 2553 1204 2497 
Q 953 2441 691 2322 
L 691 4666 
z
" transform="scale(0.015625)"/>
       </defs>
       <use xlink:href="#DejaVuSans-35"/>
       <use xlink:href="#DejaVuSans-30" x="63.623047"/>
       <use xlink:href="#DejaVuSans-30" x="127.246094"/>
       <use xlink:href="#DejaVuSans-30" x="190.869141"/>
       <use xlink:href="#DejaVuSans-30" x="254.492188"/>
      </g>
     </g>
    </g>
    <g id="xtick_7">
     <g id="line2d_7">
      <g>
       <use xlink:href="#m858592c6ff" x="388.014377" y="162.432" style="stroke: #000000; stroke-width: 0.8"/>
      </g>
     </g>
     <g id="text_7">
      <!-- 60000 -->
      <g transform="translate(372.108127 177.030437)scale(0.1 -0.1)">
       <defs>
        <path id="DejaVuSans-36" d="M 2113 2584 
Q 1688 2584 1439 2293 
Q 1191 2003 1191 1497 
Q 1191 994 1439 701 
Q 1688 409 2113 409 
Q 2538 409 2786 701 
Q 3034 994 3034 1497 
Q 3034 2003 2786 2293 
Q 2538 2584 2113 2584 
z
M 3366 4563 
L 3366 3988 
Q 3128 4100 2886 4159 
Q 2644 4219 2406 4219 
Q 1781 4219 1451 3797 
Q 1122 3375 1075 2522 
Q 1259 2794 1537 2939 
Q 1816 3084 2150 3084 
Q 2853 3084 3261 2657 
Q 3669 2231 3669 1497 
Q 3669 778 3244 343 
Q 2819 -91 2113 -91 
Q 1303 -91 875 529 
Q 447 1150 447 2328 
Q 447 3434 972 4092 
Q 1497 4750 2381 4750 
Q 2619 4750 2861 4703 
Q 3103 4656 3366 4563 
z
" transform="scale(0.015625)"/>
       </defs>
       <use xlink:href="#DejaVuSans-36"/>
       <use xlink:href="#DejaVuSans-30" x="63.623047"/>
       <use xlink:href="#DejaVuSans-30" x="127.246094"/>
       <use xlink:href="#DejaVuSans-30" x="190.869141"/>
       <use xlink:href="#DejaVuSans-30" x="254.492188"/>
      </g>
     </g>
    </g>
   </g>
   <g id="matplotlib.axis_2">
    <g id="ytick_1">
     <g id="line2d_8">
      <defs>
       <path id="m2fa475faf2" d="M 0 0 
L -3.5 0 
" style="stroke: #000000; stroke-width: 0.8"/>
      </defs>
      <g>
       <use xlink:href="#m2fa475faf2" x="57.6" y="139.390981" style="stroke: #000000; stroke-width: 0.8"/>
      </g>
     </g>
     <g id="text_8">
      <!-- 70 -->
      <g transform="translate(37.875 143.1902)scale(0.1 -0.1)">
       <defs>
        <path id="DejaVuSans-37" d="M 525 4666 
L 3525 4666 
L 3525 4397 
L 1831 0 
L 1172 0 
L 2766 4134 
L 525 4134 
L 525 4666 
z
" transform="scale(0.015625)"/>
       </defs>
       <use xlink:href="#DejaVuSans-37"/>
       <use xlink:href="#DejaVuSans-30" x="63.623047"/>
      </g>
     </g>
    </g>
    <g id="ytick_2">
     <g id="line2d_9">
      <g>
       <use xlink:href="#m2fa475faf2" x="57.6" y="113.718537" style="stroke: #000000; stroke-width: 0.8"/>
      </g>
     </g>
     <g id="text_9">
      <!-- 80 -->
      <g transform="translate(37.875 117.517756)scale(0.1 -0.1)">
       <defs>
        <path id="DejaVuSans-38" d="M 2034 2216 
Q 1584 2216 1326 1975 
Q 1069 1734 1069 1313 
Q 1069 891 1326 650 
Q 1584 409 2034 409 
Q 2484 409 2743 651 
Q 3003 894 3003 1313 
Q 3003 1734 2745 1975 
Q 2488 2216 2034 2216 
z
M 1403 2484 
Q 997 2584 770 2862 
Q 544 3141 544 3541 
Q 544 4100 942 4425 
Q 1341 4750 2034 4750 
Q 2731 4750 3128 4425 
Q 3525 4100 3525 3541 
Q 3525 3141 3298 2862 
Q 3072 2584 2669 2484 
Q 3125 2378 3379 2068 
Q 3634 1759 3634 1313 
Q 3634 634 3220 271 
Q 2806 -91 2034 -91 
Q 1263 -91 848 271 
Q 434 634 434 1313 
Q 434 1759 690 2068 
Q 947 2378 1403 2484 
z
M 1172 3481 
Q 1172 3119 1398 2916 
Q 1625 2713 2034 2713 
Q 2441 2713 2670 2916 
Q 2900 3119 2900 3481 
Q 2900 3844 2670 4047 
Q 2441 4250 2034 4250 
Q 1625 4250 1398 4047 
Q 1172 3844 1172 3481 
z
" transform="scale(0.015625)"/>
       </defs>
       <use xlink:href="#DejaVuSans-38"/>
       <use xlink:href="#DejaVuSans-30" x="63.623047"/>
      </g>
     </g>
    </g>
    <g id="ytick_3">
     <g id="line2d_10">
      <g>
       <use xlink:href="#m2fa475faf2" x="57.6" y="88.046093" style="stroke: #000000; stroke-width: 0.8"/>
      </g>
     </g>
     <g id="text_10">
      <!-- 90 -->
      <g transform="translate(37.875 91.845311)scale(0.1 -0.1)">
       <defs>
        <path id="DejaVuSans-39" d="M 703 97 
L 703 672 
Q 941 559 1184 500 
Q 1428 441 1663 441 
Q 2288 441 2617 861 
Q 2947 1281 2994 2138 
Q 2813 1869 2534 1725 
Q 2256 1581 1919 1581 
Q 1219 1581 811 2004 
Q 403 2428 403 3163 
Q 403 3881 828 4315 
Q 1253 4750 1959 4750 
Q 2769 4750 3195 4129 
Q 3622 3509 3622 2328 
Q 3622 1225 3098 567 
Q 2575 -91 1691 -91 
Q 1453 -91 1209 -44 
Q 966 3 703 97 
z
M 1959 2075 
Q 2384 2075 2632 2365 
Q 2881 2656 2881 3163 
Q 2881 3666 2632 3958 
Q 2384 4250 1959 4250 
Q 1534 4250 1286 3958 
Q 1038 3666 1038 3163 
Q 1038 2656 1286 2365 
Q 1534 2075 1959 2075 
z
" transform="scale(0.015625)"/>
       </defs>
       <use xlink:href="#DejaVuSans-39"/>
       <use xlink:href="#DejaVuSans-30" x="63.623047"/>
      </g>
     </g>
    </g>
    <g id="ytick_4">
     <g id="line2d_11">
      <g>
       <use xlink:href="#m2fa475faf2" x="57.6" y="62.373648" style="stroke: #000000; stroke-width: 0.8"/>
      </g>
     </g>
     <g id="text_11">
      <!-- 100 -->
      <g transform="translate(31.5125 66.172867)scale(0.1 -0.1)">
       <use xlink:href="#DejaVuSans-31"/>
       <use xlink:href="#DejaVuSans-30" x="63.623047"/>
       <use xlink:href="#DejaVuSans-30" x="127.246094"/>
      </g>
     </g>
    </g>
   </g>
   <g id="line2d_12">
    <path d="M 73.832727 62.373648 
L 73.8432 62.373648 
L 73.958402 61.731837 
L 73.963638 61.731837 
L 74.099786 58.522782 
L 74.927145 58.522782 
L 75.042347 57.23916 
L 88.321979 57.23916 
L 88.437181 55.955537 
L 104.706825 55.955537 
L 104.822027 54.671915 
L 109.78618 54.671915 
L 109.901382 54.030104 
L 117.389503 54.030104 
L 117.504704 52.746482 
L 196.365613 52.746482 
L 196.480815 51.46286 
L 398.487273 51.46286 
L 398.487273 51.46286 
" clip-path="url(#pd518db77e0)" style="fill: none; stroke: #1f77b4; stroke-width: 1.5; stroke-linecap: square"/>
   </g>
   <g id="line2d_13">
    <path d="M 73.832727 62.373648 
L 73.837964 62.373648 
L 73.953166 64.940893 
L 73.963638 64.940893 
L 73.968875 67.508137 
L 73.979348 62.373648 
L 74.068367 62.373648 
L 74.309244 62.373648 
L 74.424446 59.806404 
L 74.811943 59.806404 
L 74.927145 57.23916 
L 78.210398 57.23916 
L 78.3256 54.671915 
L 88.400526 54.671915 
L 88.515728 52.104671 
L 153.473866 52.104671 
L 153.589068 49.537426 
L 206.487667 49.537426 
L 206.602869 46.970182 
L 398.487273 46.970182 
L 398.487273 46.970182 
" clip-path="url(#pd518db77e0)" style="fill: none; stroke: #ff7f0e; stroke-width: 1.5; stroke-linecap: square"/>
   </g>
   <g id="line2d_14">
    <path d="M 73.832727 62.373648 
L 73.874619 58.308845 
L 73.947929 60.876089 
L 73.963638 60.876089 
L 74.07884 60.234278 
L 74.440155 60.234278 
L 74.555357 59.37853 
L 74.576303 59.37853 
L 74.691505 58.522782 
L 78.613604 58.522782 
L 78.728806 55.955537 
L 81.268484 55.955537 
L 81.383685 53.388293 
L 109.78618 53.388293 
L 109.901382 52.746482 
L 283.871897 52.746482 
L 283.987099 50.179237 
L 380.552438 50.179237 
L 380.66764 49.323489 
L 398.487273 49.323489 
L 398.487273 49.323489 
" clip-path="url(#pd518db77e0)" style="fill: none; stroke: #2ca02c; stroke-width: 1.5; stroke-linecap: square"/>
   </g>
   <g id="line2d_15">
    <path d="M 73.832727 62.373648 
L 73.874619 71.786878 
L 73.947929 66.652389 
L 73.963638 66.652389 
L 74.089313 75.423808 
L 74.209752 73.0705 
L 74.25688 73.0705 
L 74.309244 70.93113 
L 74.31448 73.498374 
L 74.361609 73.498374 
L 74.440155 73.498374 
L 74.487283 76.065619 
L 74.550121 75.209871 
L 74.576303 75.209871 
L 74.602485 77.777115 
L 74.686268 76.493493 
L 74.712451 76.493493 
L 74.811943 74.995933 
L 74.87478 77.563178 
L 74.921908 76.279556 
L 74.927145 76.279556 
L 74.932381 78.8468 
L 75.03711 77.563178 
L 75.136603 77.563178 
L 75.251805 76.70743 
L 75.262278 76.70743 
L 75.377479 75.423808 
L 75.618356 75.423808 
L 75.733558 74.140185 
L 77.917157 74.140185 
L 78.032359 72.856563 
L 78.210398 72.856563 
L 78.3256 75.423808 
L 78.613604 75.423808 
L 78.624077 77.991052 
L 78.72357 77.135304 
L 79.901771 77.135304 
L 80.016972 75.851682 
L 81.268484 75.851682 
L 81.383685 78.418926 
L 81.92304 78.418926 
L 82.038241 77.135304 
L 82.834182 77.135304 
L 82.949383 76.493493 
L 83.645831 76.493493 
L 83.761033 75.637745 
L 85.405278 75.637745 
L 85.520479 74.354122 
L 86.724862 74.354122 
L 86.840064 73.0705 
L 88.321979 73.0705 
L 88.442417 78.204989 
L 90.081426 78.204989 
L 90.196628 76.921367 
L 95.370238 76.921367 
L 95.48544 75.637745 
L 96.689823 75.637745 
L 96.805025 74.995933 
L 104.544495 74.995933 
L 104.659697 73.712311 
L 104.706825 73.712311 
L 104.822027 76.279556 
L 105.424219 76.279556 
L 105.53942 75.423808 
L 117.389503 75.423808 
L 117.504704 77.991052 
L 134.418432 77.991052 
L 134.533634 76.70743 
L 153.473866 76.70743 
L 153.589068 79.274674 
L 165.638135 79.274674 
L 165.753337 78.418926 
L 169.92155 78.418926 
L 170.036752 77.135304 
L 186.646765 77.135304 
L 186.761967 75.851682 
L 196.365613 75.851682 
L 196.480815 78.418926 
L 206.487667 78.418926 
L 206.602869 80.98617 
L 212.347252 80.98617 
L 212.462454 80.344359 
L 245.996668 80.344359 
L 246.11187 79.488611 
L 264.565113 79.488611 
L 264.680315 78.632863 
L 283.871897 78.632863 
L 283.987099 81.200108 
L 379.913591 81.200108 
L 380.028793 79.916485 
L 380.552438 79.916485 
L 380.66764 82.48373 
L 398.487273 82.48373 
L 398.487273 82.48373 
" clip-path="url(#pd518db77e0)" style="fill: none; stroke: #d62728; stroke-width: 1.5; stroke-linecap: square"/>
   </g>
   <g id="line2d_16">
    <path d="M 73.832727 62.373648 
L 73.874619 62.373648 
L 73.963638 64.940893 
L 73.984584 64.299082 
L 398.487273 64.299082 
L 398.487273 64.299082 
" clip-path="url(#pd518db77e0)" style="fill: none; stroke: #9467bd; stroke-width: 1.5; stroke-linecap: square"/>
   </g>
   <g id="line2d_17">
    <path d="M 73.832727 62.373648 
L 73.947929 60.876089 
L 74.440155 60.876089 
L 74.555357 60.020341 
L 74.576303 60.020341 
L 74.691505 59.164593 
L 109.78618 59.164593 
L 109.901382 58.522782 
L 380.552438 58.522782 
L 380.66764 57.667034 
L 398.487273 57.667034 
L 398.487273 57.667034 
" clip-path="url(#pd518db77e0)" style="fill: none; stroke: #8c564b; stroke-width: 1.5; stroke-linecap: square"/>
   </g>
   <g id="line2d_18">
    <path d="M 73.832727 64.940893 
L 73.974111 80.344359 
L 74.00553 80.344359 
L 74.016003 79.702548 
L 74.07884 83.553415 
L 74.089313 83.553415 
L 74.115495 83.553415 
L 74.235934 80.344359 
L 74.272589 80.344359 
L 74.393027 85.478848 
L 74.440155 85.478848 
L 74.445392 88.046093 
L 74.550121 86.76247 
L 74.576303 86.76247 
L 74.691505 89.329715 
L 74.712451 89.329715 
L 74.811943 88.687904 
L 74.900963 91.255148 
L 74.921908 89.971526 
L 74.927145 89.971526 
L 74.948091 92.53877 
L 75.03711 91.255148 
L 75.21515 91.255148 
L 75.335588 88.687904 
L 75.791159 88.687904 
L 75.906361 87.404282 
L 76.356695 87.404282 
L 76.471897 86.120659 
L 77.152635 86.120659 
L 77.267837 84.837037 
L 77.608206 84.837037 
L 77.723408 83.553415 
L 77.917157 83.553415 
L 77.985231 86.120659 
L 78.027122 84.837037 
L 78.210398 84.837037 
L 78.3256 87.404282 
L 79.896534 87.404282 
L 79.901771 86.120659 
L 79.907007 88.687904 
L 80.001263 88.687904 
L 80.629637 88.687904 
L 80.744839 87.404282 
L 81.92304 87.404282 
L 82.038241 89.971526 
L 82.834182 89.971526 
L 82.949383 89.329715 
L 83.58823 89.329715 
L 83.708668 86.76247 
L 85.405278 86.76247 
L 85.520479 89.329715 
L 85.635681 89.329715 
L 85.750883 88.046093 
L 86.724862 88.046093 
L 86.840064 90.613337 
L 86.850537 90.613337 
L 86.965739 89.329715 
L 88.321979 89.329715 
L 88.442417 94.464204 
L 89.290722 94.464204 
L 89.405924 93.180582 
L 90.081426 93.180582 
L 90.196628 95.747826 
L 94.773283 95.747826 
L 94.888485 94.464204 
L 95.370238 94.464204 
L 95.48544 97.031448 
L 96.689823 97.031448 
L 96.805025 96.389637 
L 97.96228 96.389637 
L 98.077482 95.106015 
L 99.522742 95.106015 
L 99.637943 93.822393 
L 104.544495 93.822393 
L 104.659697 96.389637 
L 104.706825 96.389637 
L 104.822027 98.956881 
L 105.136214 98.956881 
L 105.251416 97.673259 
L 106.18874 97.673259 
L 106.303942 96.389637 
L 109.78618 96.389637 
L 109.901382 98.956881 
L 115.310633 98.956881 
L 115.425834 97.673259 
L 117.389503 97.673259 
L 117.504704 100.240504 
L 134.030935 100.240504 
L 134.146136 98.956881 
L 134.418432 98.956881 
L 134.533634 101.524126 
L 139.068398 101.524126 
L 139.1836 100.240504 
L 147.357695 100.240504 
L 147.472897 98.956881 
L 153.473866 98.956881 
L 153.589068 101.524126 
L 160.213175 101.524126 
L 160.328377 100.240504 
L 169.92155 100.240504 
L 170.036752 102.807748 
L 173.26764 102.807748 
L 173.382842 101.524126 
L 186.646765 101.524126 
L 186.761967 104.09137 
L 187.33274 104.09137 
L 187.447942 102.807748 
L 191.741829 102.807748 
L 191.857031 101.524126 
L 196.365613 101.524126 
L 196.480815 104.09137 
L 206.487667 104.09137 
L 206.602869 106.658615 
L 212.347252 106.658615 
L 212.462454 106.016804 
L 274.404399 106.016804 
L 274.519601 104.733181 
L 317.222835 104.733181 
L 317.338037 103.449559 
L 347.578524 103.449559 
L 347.693726 102.165937 
L 379.913591 102.165937 
L 380.028793 104.733181 
L 380.552438 104.733181 
L 380.66764 107.300426 
L 398.487273 107.300426 
L 398.487273 107.300426 
" clip-path="url(#pd518db77e0)" style="fill: none; stroke: #e377c2; stroke-width: 1.5; stroke-linecap: square"/>
   </g>
   <g id="line2d_19">
    <path d="M 73.832727 59.806404 
L 73.963638 55.7416 
L 74.440155 55.7416 
L 74.555357 54.885852 
L 74.576303 54.885852 
L 74.691505 54.030104 
L 109.78618 54.030104 
L 109.901382 53.388293 
L 380.552438 53.388293 
L 380.66764 52.532545 
L 398.487273 52.532545 
L 398.487273 52.532545 
" clip-path="url(#pd518db77e0)" style="fill: none; stroke: #7f7f7f; stroke-width: 1.5; stroke-linecap: square"/>
   </g>
   <g id="line2d_20">
    <path d="M 73.832727 62.373648 
L 73.958402 71.786878 
L 73.963638 71.786878 
L 74.089313 81.841919 
L 74.225461 76.921367 
L 74.25688 76.921367 
L 74.272589 76.065619 
L 74.31448 81.200108 
L 74.340663 81.200108 
L 74.440155 81.200108 
L 74.445392 83.767352 
L 74.550121 81.627982 
L 74.576303 81.627982 
L 74.696741 86.76247 
L 74.712451 86.76247 
L 74.811943 85.264911 
L 74.937618 94.250267 
L 74.948091 94.250267 
L 75.063293 92.966644 
L 75.136603 92.966644 
L 75.141839 92.110896 
L 75.147076 94.678141 
L 75.241332 93.394519 
L 75.251805 93.394519 
L 75.267514 94.678141 
L 75.367007 92.110896 
L 75.618356 92.110896 
L 75.733558 94.678141 
L 75.791159 94.678141 
L 75.906361 93.394519 
L 76.194365 93.394519 
L 76.314804 98.529007 
L 76.356695 98.529007 
L 76.471897 97.245385 
L 77.152635 97.245385 
L 77.189291 95.961763 
L 77.194527 98.529007 
L 77.257364 98.529007 
L 77.608206 98.529007 
L 77.681517 97.245385 
L 77.686753 99.81263 
L 77.712935 99.81263 
L 77.801955 99.81263 
L 77.922393 104.947119 
L 77.985231 104.947119 
L 78.100432 103.663496 
L 78.210398 103.663496 
L 78.3256 106.230741 
L 78.613604 106.230741 
L 78.624077 108.797985 
L 78.72357 107.942237 
L 79.896534 107.942237 
L 79.901771 106.658615 
L 79.907007 109.225859 
L 80.001263 109.225859 
L 80.629637 109.225859 
L 80.744839 107.942237 
L 81.226592 107.942237 
L 81.34703 113.076726 
L 81.92304 113.076726 
L 82.038241 115.64397 
L 82.834182 115.64397 
L 82.949383 115.002159 
L 83.19026 115.002159 
L 83.305462 117.569404 
L 83.58823 117.569404 
L 83.708668 114.146411 
L 85.405278 114.146411 
L 85.520479 116.713655 
L 85.635681 116.713655 
L 85.735174 115.430033 
L 85.74041 117.997278 
L 86.724862 117.997278 
L 86.840064 120.564522 
L 86.850537 120.564522 
L 86.965739 119.2809 
L 88.321979 119.2809 
L 88.442417 124.415389 
L 89.290722 124.415389 
L 89.405924 123.131767 
L 90.081426 123.131767 
L 90.196628 125.699011 
L 94.773283 125.699011 
L 94.888485 124.415389 
L 95.370238 124.415389 
L 95.48544 126.982633 
L 96.689823 126.982633 
L 96.805025 126.340822 
L 97.96228 126.340822 
L 98.077482 125.0572 
L 99.522742 125.0572 
L 99.637943 123.773578 
L 102.98927 123.773578 
L 103.104472 126.340822 
L 104.544495 126.340822 
L 104.659697 128.908067 
L 104.706825 128.908067 
L 104.822027 131.475311 
L 105.136214 131.475311 
L 105.251416 130.191689 
L 105.424219 130.191689 
L 105.53942 129.335941 
L 106.18874 129.335941 
L 106.303942 128.052318 
L 108.100044 128.052318 
L 108.215245 130.619563 
L 109.78618 130.619563 
L 109.901382 133.186807 
L 115.310633 133.186807 
L 115.425834 131.903185 
L 117.389503 131.903185 
L 117.504704 134.470429 
L 134.030935 134.470429 
L 134.146136 133.186807 
L 134.418432 133.186807 
L 134.533634 135.754052 
L 139.068398 135.754052 
L 139.1836 134.470429 
L 140.047613 134.470429 
L 140.162815 137.037674 
L 145.860071 137.037674 
L 145.975273 139.604918 
L 147.357695 139.604918 
L 147.472897 138.321296 
L 153.473866 138.321296 
L 153.589068 140.888541 
L 160.213175 140.888541 
L 160.328377 139.604918 
L 165.638135 139.604918 
L 165.753337 138.74917 
L 167.151469 138.74917 
L 167.266671 141.316415 
L 169.92155 141.316415 
L 170.036752 143.883659 
L 173.26764 143.883659 
L 173.382842 142.600037 
L 186.002682 142.600037 
L 186.117884 145.167281 
L 186.646765 145.167281 
L 186.761967 147.734526 
L 187.33274 147.734526 
L 187.447942 146.450903 
L 191.741829 146.450903 
L 191.857031 145.167281 
L 196.365613 145.167281 
L 196.480815 147.734526 
L 206.487667 147.734526 
L 206.602869 150.30177 
L 212.347252 150.30177 
L 212.462454 149.659959 
L 245.996668 149.659959 
L 246.11187 148.804211 
L 261.323751 148.804211 
L 261.438953 151.371455 
L 264.565113 151.371455 
L 264.680315 150.515707 
L 274.404399 150.515707 
L 274.519601 149.232085 
L 283.871897 149.232085 
L 283.987099 151.799329 
L 317.222835 151.799329 
L 317.338037 150.515707 
L 338.770819 150.515707 
L 338.886021 153.082952 
L 347.578524 153.082952 
L 347.693726 151.799329 
L 379.913591 151.799329 
L 380.028793 154.366574 
L 380.552438 154.366574 
L 380.66764 156.933818 
L 398.487273 156.933818 
L 398.487273 156.933818 
" clip-path="url(#pd518db77e0)" style="fill: none; stroke: #bcbd22; stroke-width: 1.5; stroke-linecap: square"/>
   </g>
   <g id="line2d_21">
    <path d="M 73.832727 62.373648 
L 73.874619 71.786878 
L 73.947929 66.652389 
L 73.963638 66.652389 
L 74.089313 80.558296 
L 74.099786 79.702548 
L 74.115495 79.702548 
L 74.230697 83.339478 
L 74.25688 83.339478 
L 74.309244 81.200108 
L 74.31448 83.767352 
L 74.361609 83.767352 
L 74.445392 83.767352 
L 74.487283 86.334596 
L 74.555357 85.478848 
L 74.602485 85.478848 
L 74.717687 83.553415 
L 74.770051 83.553415 
L 74.811943 82.697667 
L 74.81718 85.264911 
L 74.869544 85.264911 
L 74.87478 85.264911 
L 74.900963 83.981289 
L 74.953327 90.3994 
L 74.9638 90.3994 
L 75.136603 90.3994 
L 75.21515 86.976407 
L 75.251805 89.543652 
L 75.372243 95.961763 
L 75.618356 95.961763 
L 75.733558 94.678141 
L 75.791159 94.678141 
L 75.906361 97.245385 
L 76.194365 97.245385 
L 76.314804 92.110896 
L 76.356695 92.110896 
L 76.471897 94.678141 
L 77.152635 94.678141 
L 77.189291 97.245385 
L 77.262601 94.678141 
L 77.608206 94.678141 
L 77.681517 97.245385 
L 77.718172 94.678141 
L 77.801955 94.678141 
L 77.917157 92.110896 
L 77.985231 90.827274 
L 77.990467 93.394519 
L 78.021886 93.394519 
L 78.210398 93.394519 
L 78.3256 95.961763 
L 78.613604 95.961763 
L 78.624077 98.529007 
L 78.72357 97.673259 
L 79.896534 97.673259 
L 79.901771 100.240504 
L 80.0065 98.956881 
L 80.629637 98.956881 
L 80.744839 101.524126 
L 81.226592 101.524126 
L 81.268484 98.956881 
L 81.336557 101.524126 
L 81.92304 101.524126 
L 82.038241 100.240504 
L 82.834182 100.240504 
L 82.949383 99.598693 
L 83.19026 99.598693 
L 83.305462 97.031448 
L 83.58823 97.031448 
L 83.703432 101.310189 
L 85.405278 101.310189 
L 85.520479 100.026567 
L 85.635681 100.026567 
L 85.735174 102.593811 
L 85.745647 100.026567 
L 86.724862 100.026567 
L 86.840064 98.742944 
L 86.850537 98.742944 
L 86.965739 101.310189 
L 88.321979 101.310189 
L 88.442417 106.444678 
L 89.290722 106.444678 
L 89.405924 109.011922 
L 90.081426 109.011922 
L 90.196628 107.7283 
L 94.773283 107.7283 
L 94.888485 110.295544 
L 95.370238 110.295544 
L 95.48544 109.011922 
L 96.689823 109.011922 
L 96.805025 108.370111 
L 97.96228 108.370111 
L 98.077482 110.937356 
L 99.522742 110.937356 
L 99.637943 113.5046 
L 102.98927 113.5046 
L 103.104472 110.937356 
L 104.544495 110.937356 
L 104.659697 109.653733 
L 104.706825 109.653733 
L 104.822027 112.220978 
L 105.136214 112.220978 
L 105.251416 114.788222 
L 105.424219 114.788222 
L 105.53942 113.932474 
L 106.18874 113.932474 
L 106.303942 116.499718 
L 108.100044 116.499718 
L 108.215245 113.932474 
L 115.310633 113.932474 
L 115.425834 116.499718 
L 117.389503 116.499718 
L 117.504704 119.066963 
L 134.030935 119.066963 
L 134.146136 121.634207 
L 134.418432 121.634207 
L 134.533634 120.350585 
L 139.068398 120.350585 
L 139.1836 122.91783 
L 140.047613 122.91783 
L 140.162815 120.350585 
L 145.860071 120.350585 
L 145.975273 117.783341 
L 147.357695 117.783341 
L 147.472897 120.350585 
L 153.473866 120.350585 
L 153.589068 122.91783 
L 160.213175 122.91783 
L 160.328377 125.485074 
L 165.638135 125.485074 
L 165.753337 124.629326 
L 167.151469 124.629326 
L 167.266671 122.062081 
L 169.92155 122.062081 
L 170.036752 120.778459 
L 173.26764 120.778459 
L 173.382842 123.345704 
L 186.002682 123.345704 
L 186.117884 120.778459 
L 186.646765 120.778459 
L 186.761967 119.494837 
L 187.33274 119.494837 
L 187.447942 122.062081 
L 191.741829 122.062081 
L 191.857031 124.629326 
L 196.365613 124.629326 
L 196.480815 127.19657 
L 206.487667 127.19657 
L 206.602869 129.763815 
L 212.347252 129.763815 
L 212.462454 129.122004 
L 245.996668 129.122004 
L 246.11187 128.266255 
L 261.323751 128.266255 
L 261.438953 125.699011 
L 264.565113 125.699011 
L 264.680315 124.843263 
L 274.404399 124.843263 
L 274.519601 127.410507 
L 283.871897 127.410507 
L 283.987099 129.977752 
L 317.222835 129.977752 
L 317.338037 132.544996 
L 338.770819 132.544996 
L 338.886021 129.977752 
L 347.578524 129.977752 
L 347.693726 132.544996 
L 379.913591 132.544996 
L 380.028793 131.261374 
L 398.487273 131.261374 
L 398.487273 131.261374 
" clip-path="url(#pd518db77e0)" style="fill: none; stroke: #17becf; stroke-width: 1.5; stroke-linecap: square"/>
   </g>
   <g id="line2d_22">
    <path d="M 73.832727 62.373648 
L 73.953166 67.508137 
L 74.440155 67.508137 
L 74.555357 70.075382 
L 74.576303 70.075382 
L 74.691505 72.642626 
L 109.78618 72.642626 
L 109.901382 75.209871 
L 380.552438 75.209871 
L 380.66764 77.777115 
L 398.487273 77.777115 
L 398.487273 77.777115 
" clip-path="url(#pd518db77e0)" style="fill: none; stroke: #1f77b4; stroke-width: 1.5; stroke-linecap: square"/>
   </g>
   <g id="line2d_23">
    <path d="M 73.832727 62.373648 
L 73.963638 72.642626 
L 73.968875 72.000815 
L 74.010767 75.851682 
L 74.047422 73.284437 
L 74.16786 79.702548 
L 74.173096 79.702548 
L 74.293535 84.837037 
L 74.487283 84.837037 
L 74.602485 87.404282 
L 74.712451 87.404282 
L 74.832889 92.53877 
L 74.927145 92.53877 
L 75.042347 91.255148 
L 75.136603 91.255148 
L 75.251805 93.822393 
L 78.624077 93.822393 
L 78.739279 96.389637 
L 82.834182 96.389637 
L 82.949383 98.956881 
L 83.645831 98.956881 
L 83.761033 101.524126 
L 88.321979 101.524126 
L 88.437181 100.240504 
L 96.689823 100.240504 
L 96.805025 102.807748 
L 104.706825 102.807748 
L 104.822027 101.524126 
L 105.424219 101.524126 
L 105.53942 104.09137 
L 117.389503 104.09137 
L 117.504704 102.807748 
L 165.638135 102.807748 
L 165.753337 105.374993 
L 196.365613 105.374993 
L 196.480815 104.09137 
L 212.347252 104.09137 
L 212.462454 106.658615 
L 245.996668 106.658615 
L 246.11187 109.225859 
L 264.565113 109.225859 
L 264.680315 111.793104 
L 398.487273 111.793104 
L 398.487273 111.793104 
" clip-path="url(#pd518db77e0)" style="fill: none; stroke: #ff7f0e; stroke-width: 1.5; stroke-linecap: square"/>
   </g>
   <g id="patch_3">
    <path d="M 57.6 162.432 
L 57.6 41.472 
" style="fill: none; stroke: #000000; stroke-width: 0.8; stroke-linejoin: miter; stroke-linecap: square"/>
   </g>
   <g id="patch_4">
    <path d="M 414.72 162.432 
L 414.72 41.472 
" style="fill: none; stroke: #000000; stroke-width: 0.8; stroke-linejoin: miter; stroke-linecap: square"/>
   </g>
   <g id="patch_5">
    <path d="M 57.6 162.432 
L 414.72 162.432 
" style="fill: none; stroke: #000000; stroke-width: 0.8; stroke-linejoin: miter; stroke-linecap: square"/>
   </g>
   <g id="patch_6">
    <path d="M 57.6 41.472 
L 414.72 41.472 
" style="fill: none; stroke: #000000; stroke-width: 0.8; stroke-linejoin: miter; stroke-linecap: square"/>
   </g>
   <g id="text_12">
    <!-- WSP -->
    <g transform="translate(361.832136 51.46286)scale(0.08 -0.08)">
     <defs>
      <path id="DejaVuSans-57" d="M 213 4666 
L 850 4666 
L 1831 722 
L 2809 4666 
L 3519 4666 
L 4500 722 
L 5478 4666 
L 6119 4666 
L 4947 0 
L 4153 0 
L 3169 4050 
L 2175 0 
L 1381 0 
L 213 4666 
z
" transform="scale(0.015625)"/>
      <path id="DejaVuSans-53" d="M 3425 4513 
L 3425 3897 
Q 3066 4069 2747 4153 
Q 2428 4238 2131 4238 
Q 1616 4238 1336 4038 
Q 1056 3838 1056 3469 
Q 1056 3159 1242 3001 
Q 1428 2844 1947 2747 
L 2328 2669 
Q 3034 2534 3370 2195 
Q 3706 1856 3706 1288 
Q 3706 609 3251 259 
Q 2797 -91 1919 -91 
Q 1588 -91 1214 -16 
Q 841 59 441 206 
L 441 856 
Q 825 641 1194 531 
Q 1563 422 1919 422 
Q 2459 422 2753 634 
Q 3047 847 3047 1241 
Q 3047 1584 2836 1778 
Q 2625 1972 2144 2069 
L 1759 2144 
Q 1053 2284 737 2584 
Q 422 2884 422 3419 
Q 422 4038 858 4394 
Q 1294 4750 2059 4750 
Q 2388 4750 2728 4690 
Q 3069 4631 3425 4513 
z
" transform="scale(0.015625)"/>
      <path id="DejaVuSans-50" d="M 1259 4147 
L 1259 2394 
L 2053 2394 
Q 2494 2394 2734 2622 
Q 2975 2850 2975 3272 
Q 2975 3691 2734 3919 
Q 2494 4147 2053 4147 
L 1259 4147 
z
M 628 4666 
L 2053 4666 
Q 2838 4666 3239 4311 
Q 3641 3956 3641 3272 
Q 3641 2581 3239 2228 
Q 2838 1875 2053 1875 
L 1259 1875 
L 1259 0 
L 628 0 
L 628 4666 
z
" transform="scale(0.015625)"/>
     </defs>
     <use xlink:href="#DejaVuSans-57"/>
     <use xlink:href="#DejaVuSans-53" x="98.876953"/>
     <use xlink:href="#DejaVuSans-50" x="162.353516"/>
    </g>
   </g>
   <g id="text_13">
    <!-- Iambic -->
    <g transform="translate(361.832136 46.970182)scale(0.08 -0.08)">
     <defs>
      <path id="DejaVuSans-49" d="M 628 4666 
L 1259 4666 
L 1259 0 
L 628 0 
L 628 4666 
z
" transform="scale(0.015625)"/>
      <path id="DejaVuSans-61" d="M 2194 1759 
Q 1497 1759 1228 1600 
Q 959 1441 959 1056 
Q 959 750 1161 570 
Q 1363 391 1709 391 
Q 2188 391 2477 730 
Q 2766 1069 2766 1631 
L 2766 1759 
L 2194 1759 
z
M 3341 1997 
L 3341 0 
L 2766 0 
L 2766 531 
Q 2569 213 2275 61 
Q 1981 -91 1556 -91 
Q 1019 -91 701 211 
Q 384 513 384 1019 
Q 384 1609 779 1909 
Q 1175 2209 1959 2209 
L 2766 2209 
L 2766 2266 
Q 2766 2663 2505 2880 
Q 2244 3097 1772 3097 
Q 1472 3097 1187 3025 
Q 903 2953 641 2809 
L 641 3341 
Q 956 3463 1253 3523 
Q 1550 3584 1831 3584 
Q 2591 3584 2966 3190 
Q 3341 2797 3341 1997 
z
" transform="scale(0.015625)"/>
      <path id="DejaVuSans-6d" d="M 3328 2828 
Q 3544 3216 3844 3400 
Q 4144 3584 4550 3584 
Q 5097 3584 5394 3201 
Q 5691 2819 5691 2113 
L 5691 0 
L 5113 0 
L 5113 2094 
Q 5113 2597 4934 2840 
Q 4756 3084 4391 3084 
Q 3944 3084 3684 2787 
Q 3425 2491 3425 1978 
L 3425 0 
L 2847 0 
L 2847 2094 
Q 2847 2600 2669 2842 
Q 2491 3084 2119 3084 
Q 1678 3084 1418 2786 
Q 1159 2488 1159 1978 
L 1159 0 
L 581 0 
L 581 3500 
L 1159 3500 
L 1159 2956 
Q 1356 3278 1631 3431 
Q 1906 3584 2284 3584 
Q 2666 3584 2933 3390 
Q 3200 3197 3328 2828 
z
" transform="scale(0.015625)"/>
      <path id="DejaVuSans-62" d="M 3116 1747 
Q 3116 2381 2855 2742 
Q 2594 3103 2138 3103 
Q 1681 3103 1420 2742 
Q 1159 2381 1159 1747 
Q 1159 1113 1420 752 
Q 1681 391 2138 391 
Q 2594 391 2855 752 
Q 3116 1113 3116 1747 
z
M 1159 2969 
Q 1341 3281 1617 3432 
Q 1894 3584 2278 3584 
Q 2916 3584 3314 3078 
Q 3713 2572 3713 1747 
Q 3713 922 3314 415 
Q 2916 -91 2278 -91 
Q 1894 -91 1617 61 
Q 1341 213 1159 525 
L 1159 0 
L 581 0 
L 581 4863 
L 1159 4863 
L 1159 2969 
z
" transform="scale(0.015625)"/>
      <path id="DejaVuSans-69" d="M 603 3500 
L 1178 3500 
L 1178 0 
L 603 0 
L 603 3500 
z
M 603 4863 
L 1178 4863 
L 1178 4134 
L 603 4134 
L 603 4863 
z
" transform="scale(0.015625)"/>
      <path id="DejaVuSans-63" d="M 3122 3366 
L 3122 2828 
Q 2878 2963 2633 3030 
Q 2388 3097 2138 3097 
Q 1578 3097 1268 2742 
Q 959 2388 959 1747 
Q 959 1106 1268 751 
Q 1578 397 2138 397 
Q 2388 397 2633 464 
Q 2878 531 3122 666 
L 3122 134 
Q 2881 22 2623 -34 
Q 2366 -91 2075 -91 
Q 1284 -91 818 406 
Q 353 903 353 1747 
Q 353 2603 823 3093 
Q 1294 3584 2113 3584 
Q 2378 3584 2631 3529 
Q 2884 3475 3122 3366 
z
" transform="scale(0.015625)"/>
     </defs>
     <use xlink:href="#DejaVuSans-49"/>
     <use xlink:href="#DejaVuSans-61" x="29.492188"/>
     <use xlink:href="#DejaVuSans-6d" x="90.771484"/>
     <use xlink:href="#DejaVuSans-62" x="188.183594"/>
     <use xlink:href="#DejaVuSans-69" x="251.660156"/>
     <use xlink:href="#DejaVuSans-63" x="279.443359"/>
    </g>
   </g>
   <g id="text_14">
    <!-- Parse -->
    <g transform="translate(361.832136 49.323489)scale(0.08 -0.08)">
     <defs>
      <path id="DejaVuSans-72" d="M 2631 2963 
Q 2534 3019 2420 3045 
Q 2306 3072 2169 3072 
Q 1681 3072 1420 2755 
Q 1159 2438 1159 1844 
L 1159 0 
L 581 0 
L 581 3500 
L 1159 3500 
L 1159 2956 
Q 1341 3275 1631 3429 
Q 1922 3584 2338 3584 
Q 2397 3584 2469 3576 
Q 2541 3569 2628 3553 
L 2631 2963 
z
" transform="scale(0.015625)"/>
      <path id="DejaVuSans-73" d="M 2834 3397 
L 2834 2853 
Q 2591 2978 2328 3040 
Q 2066 3103 1784 3103 
Q 1356 3103 1142 2972 
Q 928 2841 928 2578 
Q 928 2378 1081 2264 
Q 1234 2150 1697 2047 
L 1894 2003 
Q 2506 1872 2764 1633 
Q 3022 1394 3022 966 
Q 3022 478 2636 193 
Q 2250 -91 1575 -91 
Q 1294 -91 989 -36 
Q 684 19 347 128 
L 347 722 
Q 666 556 975 473 
Q 1284 391 1588 391 
Q 1994 391 2212 530 
Q 2431 669 2431 922 
Q 2431 1156 2273 1281 
Q 2116 1406 1581 1522 
L 1381 1569 
Q 847 1681 609 1914 
Q 372 2147 372 2553 
Q 372 3047 722 3315 
Q 1072 3584 1716 3584 
Q 2034 3584 2315 3537 
Q 2597 3491 2834 3397 
z
" transform="scale(0.015625)"/>
      <path id="DejaVuSans-65" d="M 3597 1894 
L 3597 1613 
L 953 1613 
Q 991 1019 1311 708 
Q 1631 397 2203 397 
Q 2534 397 2845 478 
Q 3156 559 3463 722 
L 3463 178 
Q 3153 47 2828 -22 
Q 2503 -91 2169 -91 
Q 1331 -91 842 396 
Q 353 884 353 1716 
Q 353 2575 817 3079 
Q 1281 3584 2069 3584 
Q 2775 3584 3186 3129 
Q 3597 2675 3597 1894 
z
M 3022 2063 
Q 3016 2534 2758 2815 
Q 2500 3097 2075 3097 
Q 1594 3097 1305 2825 
Q 1016 2553 972 2059 
L 3022 2063 
z
" transform="scale(0.015625)"/>
     </defs>
     <use xlink:href="#DejaVuSans-50"/>
     <use xlink:href="#DejaVuSans-61" x="55.802734"/>
     <use xlink:href="#DejaVuSans-72" x="117.082031"/>
     <use xlink:href="#DejaVuSans-73" x="158.195312"/>
     <use xlink:href="#DejaVuSans-65" x="210.294922"/>
    </g>
   </g>
   <g id="text_15">
    <!-- FootBin -->
    <g transform="translate(361.832136 82.48373)scale(0.08 -0.08)">
     <defs>
      <path id="DejaVuSans-46" d="M 628 4666 
L 3309 4666 
L 3309 4134 
L 1259 4134 
L 1259 2759 
L 3109 2759 
L 3109 2228 
L 1259 2228 
L 1259 0 
L 628 0 
L 628 4666 
z
" transform="scale(0.015625)"/>
      <path id="DejaVuSans-6f" d="M 1959 3097 
Q 1497 3097 1228 2736 
Q 959 2375 959 1747 
Q 959 1119 1226 758 
Q 1494 397 1959 397 
Q 2419 397 2687 759 
Q 2956 1122 2956 1747 
Q 2956 2369 2687 2733 
Q 2419 3097 1959 3097 
z
M 1959 3584 
Q 2709 3584 3137 3096 
Q 3566 2609 3566 1747 
Q 3566 888 3137 398 
Q 2709 -91 1959 -91 
Q 1206 -91 779 398 
Q 353 888 353 1747 
Q 353 2609 779 3096 
Q 1206 3584 1959 3584 
z
" transform="scale(0.015625)"/>
      <path id="DejaVuSans-74" d="M 1172 4494 
L 1172 3500 
L 2356 3500 
L 2356 3053 
L 1172 3053 
L 1172 1153 
Q 1172 725 1289 603 
Q 1406 481 1766 481 
L 2356 481 
L 2356 0 
L 1766 0 
Q 1100 0 847 248 
Q 594 497 594 1153 
L 594 3053 
L 172 3053 
L 172 3500 
L 594 3500 
L 594 4494 
L 1172 4494 
z
" transform="scale(0.015625)"/>
      <path id="DejaVuSans-42" d="M 1259 2228 
L 1259 519 
L 2272 519 
Q 2781 519 3026 730 
Q 3272 941 3272 1375 
Q 3272 1813 3026 2020 
Q 2781 2228 2272 2228 
L 1259 2228 
z
M 1259 4147 
L 1259 2741 
L 2194 2741 
Q 2656 2741 2882 2914 
Q 3109 3088 3109 3444 
Q 3109 3797 2882 3972 
Q 2656 4147 2194 4147 
L 1259 4147 
z
M 628 4666 
L 2241 4666 
Q 2963 4666 3353 4366 
Q 3744 4066 3744 3513 
Q 3744 3084 3544 2831 
Q 3344 2578 2956 2516 
Q 3422 2416 3680 2098 
Q 3938 1781 3938 1306 
Q 3938 681 3513 340 
Q 3088 0 2303 0 
L 628 0 
L 628 4666 
z
" transform="scale(0.015625)"/>
      <path id="DejaVuSans-6e" d="M 3513 2113 
L 3513 0 
L 2938 0 
L 2938 2094 
Q 2938 2591 2744 2837 
Q 2550 3084 2163 3084 
Q 1697 3084 1428 2787 
Q 1159 2491 1159 1978 
L 1159 0 
L 581 0 
L 581 3500 
L 1159 3500 
L 1159 2956 
Q 1366 3272 1645 3428 
Q 1925 3584 2291 3584 
Q 2894 3584 3203 3211 
Q 3513 2838 3513 2113 
z
" transform="scale(0.015625)"/>
     </defs>
     <use xlink:href="#DejaVuSans-46"/>
     <use xlink:href="#DejaVuSans-6f" x="53.894531"/>
     <use xlink:href="#DejaVuSans-6f" x="115.076172"/>
     <use xlink:href="#DejaVuSans-74" x="176.257812"/>
     <use xlink:href="#DejaVuSans-42" x="215.466797"/>
     <use xlink:href="#DejaVuSans-69" x="284.070312"/>
     <use xlink:href="#DejaVuSans-6e" x="311.853516"/>
    </g>
   </g>
   <g id="text_16">
    <!-- WFL -->
    <g transform="translate(361.832136 64.299082)scale(0.08 -0.08)">
     <defs>
      <path id="DejaVuSans-4c" d="M 628 4666 
L 1259 4666 
L 1259 531 
L 3531 531 
L 3531 0 
L 628 0 
L 628 4666 
z
" transform="scale(0.015625)"/>
     </defs>
     <use xlink:href="#DejaVuSans-57"/>
     <use xlink:href="#DejaVuSans-46" x="98.876953"/>
     <use xlink:href="#DejaVuSans-4c" x="156.396484"/>
    </g>
   </g>
   <g id="text_17">
    <!-- WFR -->
    <g transform="translate(361.832136 57.667034)scale(0.08 -0.08)">
     <defs>
      <path id="DejaVuSans-52" d="M 2841 2188 
Q 3044 2119 3236 1894 
Q 3428 1669 3622 1275 
L 4263 0 
L 3584 0 
L 2988 1197 
Q 2756 1666 2539 1819 
Q 2322 1972 1947 1972 
L 1259 1972 
L 1259 0 
L 628 0 
L 628 4666 
L 2053 4666 
Q 2853 4666 3247 4331 
Q 3641 3997 3641 3322 
Q 3641 2881 3436 2590 
Q 3231 2300 2841 2188 
z
M 1259 4147 
L 1259 2491 
L 2053 2491 
Q 2509 2491 2742 2702 
Q 2975 2913 2975 3322 
Q 2975 3731 2742 3939 
Q 2509 4147 2053 4147 
L 1259 4147 
z
" transform="scale(0.015625)"/>
     </defs>
     <use xlink:href="#DejaVuSans-57"/>
     <use xlink:href="#DejaVuSans-46" x="98.876953"/>
     <use xlink:href="#DejaVuSans-52" x="156.396484"/>
    </g>
   </g>
   <g id="text_18">
    <!-- Main-L -->
    <g transform="translate(361.832136 107.300426)scale(0.08 -0.08)">
     <defs>
      <path id="DejaVuSans-4d" d="M 628 4666 
L 1569 4666 
L 2759 1491 
L 3956 4666 
L 4897 4666 
L 4897 0 
L 4281 0 
L 4281 4097 
L 3078 897 
L 2444 897 
L 1241 4097 
L 1241 0 
L 628 0 
L 628 4666 
z
" transform="scale(0.015625)"/>
      <path id="DejaVuSans-2d" d="M 313 2009 
L 1997 2009 
L 1997 1497 
L 313 1497 
L 313 2009 
z
" transform="scale(0.015625)"/>
     </defs>
     <use xlink:href="#DejaVuSans-4d"/>
     <use xlink:href="#DejaVuSans-61" x="86.279297"/>
     <use xlink:href="#DejaVuSans-69" x="147.558594"/>
     <use xlink:href="#DejaVuSans-6e" x="175.341797"/>
     <use xlink:href="#DejaVuSans-2d" x="238.720703"/>
     <use xlink:href="#DejaVuSans-4c" x="274.804688"/>
    </g>
   </g>
   <g id="text_19">
    <!-- Main-R -->
    <g transform="translate(361.832136 52.532545)scale(0.08 -0.08)">
     <use xlink:href="#DejaVuSans-4d"/>
     <use xlink:href="#DejaVuSans-61" x="86.279297"/>
     <use xlink:href="#DejaVuSans-69" x="147.558594"/>
     <use xlink:href="#DejaVuSans-6e" x="175.341797"/>
     <use xlink:href="#DejaVuSans-2d" x="238.720703"/>
     <use xlink:href="#DejaVuSans-52" x="274.804688"/>
    </g>
   </g>
   <g id="text_20">
    <!-- AFL -->
    <g transform="translate(361.832136 156.933818)scale(0.08 -0.08)">
     <defs>
      <path id="DejaVuSans-41" d="M 2188 4044 
L 1331 1722 
L 3047 1722 
L 2188 4044 
z
M 1831 4666 
L 2547 4666 
L 4325 0 
L 3669 0 
L 3244 1197 
L 1141 1197 
L 716 0 
L 50 0 
L 1831 4666 
z
" transform="scale(0.015625)"/>
     </defs>
     <use xlink:href="#DejaVuSans-41"/>
     <use xlink:href="#DejaVuSans-46" x="68.408203"/>
     <use xlink:href="#DejaVuSans-4c" x="125.927734"/>
    </g>
   </g>
   <g id="text_21">
    <!-- AFR -->
    <g transform="translate(361.832136 131.261374)scale(0.08 -0.08)">
     <use xlink:href="#DejaVuSans-41"/>
     <use xlink:href="#DejaVuSans-46" x="68.408203"/>
     <use xlink:href="#DejaVuSans-52" x="125.927734"/>
    </g>
   </g>
   <g id="text_22">
    <!-- Nonfinal -->
    <g transform="translate(361.832136 77.777115)scale(0.08 -0.08)">
     <defs>
      <path id="DejaVuSans-4e" d="M 628 4666 
L 1478 4666 
L 3547 763 
L 3547 4666 
L 4159 4666 
L 4159 0 
L 3309 0 
L 1241 3903 
L 1241 0 
L 628 0 
L 628 4666 
z
" transform="scale(0.015625)"/>
      <path id="DejaVuSans-66" d="M 2375 4863 
L 2375 4384 
L 1825 4384 
Q 1516 4384 1395 4259 
Q 1275 4134 1275 3809 
L 1275 3500 
L 2222 3500 
L 2222 3053 
L 1275 3053 
L 1275 0 
L 697 0 
L 697 3053 
L 147 3053 
L 147 3500 
L 697 3500 
L 697 3744 
Q 697 4328 969 4595 
Q 1241 4863 1831 4863 
L 2375 4863 
z
" transform="scale(0.015625)"/>
      <path id="DejaVuSans-6c" d="M 603 4863 
L 1178 4863 
L 1178 0 
L 603 0 
L 603 4863 
z
" transform="scale(0.015625)"/>
     </defs>
     <use xlink:href="#DejaVuSans-4e"/>
     <use xlink:href="#DejaVuSans-6f" x="74.804688"/>
     <use xlink:href="#DejaVuSans-6e" x="135.986328"/>
     <use xlink:href="#DejaVuSans-66" x="199.365234"/>
     <use xlink:href="#DejaVuSans-69" x="234.570312"/>
     <use xlink:href="#DejaVuSans-6e" x="262.353516"/>
     <use xlink:href="#DejaVuSans-61" x="325.732422"/>
     <use xlink:href="#DejaVuSans-6c" x="387.011719"/>
    </g>
   </g>
   <g id="text_23">
    <!-- Trochaic -->
    <g transform="translate(361.832136 111.793104)scale(0.08 -0.08)">
     <defs>
      <path id="DejaVuSans-54" d="M -19 4666 
L 3928 4666 
L 3928 4134 
L 2272 4134 
L 2272 0 
L 1638 0 
L 1638 4134 
L -19 4134 
L -19 4666 
z
" transform="scale(0.015625)"/>
      <path id="DejaVuSans-68" d="M 3513 2113 
L 3513 0 
L 2938 0 
L 2938 2094 
Q 2938 2591 2744 2837 
Q 2550 3084 2163 3084 
Q 1697 3084 1428 2787 
Q 1159 2491 1159 1978 
L 1159 0 
L 581 0 
L 581 4863 
L 1159 4863 
L 1159 2956 
Q 1366 3272 1645 3428 
Q 1925 3584 2291 3584 
Q 2894 3584 3203 3211 
Q 3513 2838 3513 2113 
z
" transform="scale(0.015625)"/>
     </defs>
     <use xlink:href="#DejaVuSans-54"/>
     <use xlink:href="#DejaVuSans-72" x="46.333984"/>
     <use xlink:href="#DejaVuSans-6f" x="85.197266"/>
     <use xlink:href="#DejaVuSans-63" x="146.378906"/>
     <use xlink:href="#DejaVuSans-68" x="201.359375"/>
     <use xlink:href="#DejaVuSans-61" x="264.738281"/>
     <use xlink:href="#DejaVuSans-69" x="326.017578"/>
     <use xlink:href="#DejaVuSans-63" x="353.800781"/>
    </g>
   </g>
  </g>
  <g id="axes_2">
   <g id="patch_7">
    <path d="M 57.6 307.584 
L 414.72 307.584 
L 414.72 186.624 
L 57.6 186.624 
z
" style="fill: #ffffff"/>
   </g>
   <g id="matplotlib.axis_3">
    <g id="xtick_8">
     <g id="line2d_24">
      <g>
       <use xlink:href="#m858592c6ff" x="71.256104" y="307.584" style="stroke: #000000; stroke-width: 0.8"/>
      </g>
     </g>
     <g id="text_24">
      <!-- 0 -->
      <g transform="translate(68.074854 322.182437)scale(0.1 -0.1)">
       <use xlink:href="#DejaVuSans-30"/>
      </g>
     </g>
    </g>
    <g id="xtick_9">
     <g id="line2d_25">
      <g>
       <use xlink:href="#m858592c6ff" x="122.788571" y="307.584" style="stroke: #000000; stroke-width: 0.8"/>
      </g>
     </g>
     <g id="text_25">
      <!-- 20 -->
      <g transform="translate(116.426071 322.182437)scale(0.1 -0.1)">
       <use xlink:href="#DejaVuSans-32"/>
       <use xlink:href="#DejaVuSans-30" x="63.623047"/>
      </g>
     </g>
    </g>
    <g id="xtick_10">
     <g id="line2d_26">
      <g>
       <use xlink:href="#m858592c6ff" x="174.321039" y="307.584" style="stroke: #000000; stroke-width: 0.8"/>
      </g>
     </g>
     <g id="text_26">
      <!-- 40 -->
      <g transform="translate(167.958539 322.182437)scale(0.1 -0.1)">
       <use xlink:href="#DejaVuSans-34"/>
       <use xlink:href="#DejaVuSans-30" x="63.623047"/>
      </g>
     </g>
    </g>
    <g id="xtick_11">
     <g id="line2d_27">
      <g>
       <use xlink:href="#m858592c6ff" x="225.853506" y="307.584" style="stroke: #000000; stroke-width: 0.8"/>
      </g>
     </g>
     <g id="text_27">
      <!-- 60 -->
      <g transform="translate(219.491006 322.182437)scale(0.1 -0.1)">
       <use xlink:href="#DejaVuSans-36"/>
       <use xlink:href="#DejaVuSans-30" x="63.623047"/>
      </g>
     </g>
    </g>
    <g id="xtick_12">
     <g id="line2d_28">
      <g>
       <use xlink:href="#m858592c6ff" x="277.385974" y="307.584" style="stroke: #000000; stroke-width: 0.8"/>
      </g>
     </g>
     <g id="text_28">
      <!-- 80 -->
      <g transform="translate(271.023474 322.182437)scale(0.1 -0.1)">
       <use xlink:href="#DejaVuSans-38"/>
       <use xlink:href="#DejaVuSans-30" x="63.623047"/>
      </g>
     </g>
    </g>
    <g id="xtick_13">
     <g id="line2d_29">
      <g>
       <use xlink:href="#m858592c6ff" x="328.918442" y="307.584" style="stroke: #000000; stroke-width: 0.8"/>
      </g>
     </g>
     <g id="text_29">
      <!-- 100 -->
      <g transform="translate(319.374692 322.182437)scale(0.1 -0.1)">
       <use xlink:href="#DejaVuSans-31"/>
       <use xlink:href="#DejaVuSans-30" x="63.623047"/>
       <use xlink:href="#DejaVuSans-30" x="127.246094"/>
      </g>
     </g>
    </g>
    <g id="xtick_14">
     <g id="line2d_30">
      <g>
       <use xlink:href="#m858592c6ff" x="380.450909" y="307.584" style="stroke: #000000; stroke-width: 0.8"/>
      </g>
     </g>
     <g id="text_30">
      <!-- 120 -->
      <g transform="translate(370.907159 322.182437)scale(0.1 -0.1)">
       <use xlink:href="#DejaVuSans-31"/>
       <use xlink:href="#DejaVuSans-32" x="63.623047"/>
       <use xlink:href="#DejaVuSans-30" x="127.246094"/>
      </g>
     </g>
    </g>
   </g>
   <g id="matplotlib.axis_4">
    <g id="ytick_5">
     <g id="line2d_31">
      <g>
       <use xlink:href="#m2fa475faf2" x="57.6" y="302.102933" style="stroke: #000000; stroke-width: 0.8"/>
      </g>
     </g>
     <g id="text_31">
      <!-- 0 -->
      <g transform="translate(44.2375 305.902152)scale(0.1 -0.1)">
       <use xlink:href="#DejaVuSans-30"/>
      </g>
     </g>
    </g>
    <g id="ytick_6">
     <g id="line2d_32">
      <g>
       <use xlink:href="#m2fa475faf2" x="57.6" y="267.873007" style="stroke: #000000; stroke-width: 0.8"/>
      </g>
     </g>
     <g id="text_32">
      <!-- 2000 -->
      <g transform="translate(25.15 271.672226)scale(0.1 -0.1)">
       <use xlink:href="#DejaVuSans-32"/>
       <use xlink:href="#DejaVuSans-30" x="63.623047"/>
       <use xlink:href="#DejaVuSans-30" x="127.246094"/>
       <use xlink:href="#DejaVuSans-30" x="190.869141"/>
      </g>
     </g>
    </g>
    <g id="ytick_7">
     <g id="line2d_33">
      <g>
       <use xlink:href="#m2fa475faf2" x="57.6" y="233.643082" style="stroke: #000000; stroke-width: 0.8"/>
      </g>
     </g>
     <g id="text_33">
      <!-- 4000 -->
      <g transform="translate(25.15 237.4423)scale(0.1 -0.1)">
       <use xlink:href="#DejaVuSans-34"/>
       <use xlink:href="#DejaVuSans-30" x="63.623047"/>
       <use xlink:href="#DejaVuSans-30" x="127.246094"/>
       <use xlink:href="#DejaVuSans-30" x="190.869141"/>
      </g>
     </g>
    </g>
    <g id="ytick_8">
     <g id="line2d_34">
      <g>
       <use xlink:href="#m2fa475faf2" x="57.6" y="199.413156" style="stroke: #000000; stroke-width: 0.8"/>
      </g>
     </g>
     <g id="text_34">
      <!-- 6000 -->
      <g transform="translate(25.15 203.212375)scale(0.1 -0.1)">
       <use xlink:href="#DejaVuSans-36"/>
       <use xlink:href="#DejaVuSans-30" x="63.623047"/>
       <use xlink:href="#DejaVuSans-30" x="127.246094"/>
       <use xlink:href="#DejaVuSans-30" x="190.869141"/>
      </g>
     </g>
    </g>
   </g>
   <g id="line2d_35">
    <path d="M 73.832727 302.085818 
L 76.409351 302.085818 
L 78.985974 302.085818 
L 81.562597 302.068703 
L 84.139221 302.085818 
L 86.715844 302.085818 
L 89.292468 302.068703 
L 91.869091 302.051588 
L 94.445714 302.034473 
L 97.022338 302.068703 
L 99.598961 302.051588 
L 102.175584 302.017358 
L 104.752208 302.085818 
L 107.328831 302.085818 
L 109.905455 302.068703 
L 112.482078 302.034473 
L 115.058701 302.068703 
L 117.635325 302.051588 
L 120.211948 302.051588 
L 122.788571 302.017358 
L 125.365195 302.051588 
L 127.941818 302.017358 
L 130.518442 302.034473 
L 133.095065 301.983128 
L 135.671688 302.068703 
L 138.248312 301.863324 
L 140.824935 302.051588 
L 143.401558 301.983128 
L 145.978182 301.675059 
L 148.554805 302.085818 
L 151.131429 301.966013 
L 153.708052 301.811979 
L 156.284675 302.017358 
L 158.861299 301.743519 
L 161.437922 301.914669 
L 164.014545 301.966013 
L 166.591169 301.897554 
L 169.167792 302.017358 
L 171.744416 302.017358 
L 174.321039 302.085818 
L 176.897662 302.051588 
L 179.474286 301.486794 
L 182.050909 302.085818 
L 184.627532 301.863324 
L 187.204156 301.983128 
L 189.780779 302.068703 
L 192.357403 302.068703 
L 194.934026 302.085818 
L 197.510649 300.990461 
L 200.087273 301.538139 
L 202.663896 300.785081 
L 205.240519 302.000243 
L 207.817143 301.675059 
L 210.393766 299.501459 
L 212.97039 301.983128 
L 215.547013 300.733736 
L 218.123636 301.863324 
L 220.70026 301.709289 
L 223.276883 301.726404 
L 225.853506 301.880439 
L 228.43013 301.36699 
L 231.006753 300.785081 
L 233.583377 302.068703 
L 236.16 297.943997 
L 238.736623 302.085818 
L 241.313247 299.723953 
L 243.88987 300.151827 
L 246.466494 301.966013 
L 249.043117 299.963563 
L 251.61974 299.12493 
L 254.196364 300.939116 
L 256.772987 300.802196 
L 259.34961 301.914669 
L 261.926234 302.017358 
L 264.502857 296.43788 
L 267.079481 301.349875 
L 269.656104 301.777749 
L 272.232727 298.868205 
L 274.809351 301.692174 
L 277.385974 297.293629 
L 279.962597 301.846209 
L 282.539221 299.193389 
L 285.115844 299.518574 
L 287.692468 286.767926 
L 290.269091 300.151827 
L 292.845714 297.789963 
L 295.422338 297.943997 
L 297.998961 297.002674 
L 300.575584 290.772828 
L 303.152208 297.019789 
L 305.728831 301.572369 
L 308.305455 300.699506 
L 310.882078 301.16161 
L 313.458701 299.604149 
L 316.035325 295.855972 
L 318.611948 296.591915 
L 321.188571 284.046647 
L 323.765195 295.308293 
L 326.341818 247.711581 
L 328.918442 300.836426 
L 331.495065 286.904846 
L 334.071688 298.902435 
L 336.648312 283.105324 
L 339.224935 297.208054 
L 341.801558 282.112657 
L 344.378182 280.075976 
L 346.954805 284.371832 
L 349.531429 297.156709 
L 352.108052 293.049118 
L 354.684675 291.166472 
L 357.261299 260.479343 
L 359.837922 299.997793 
L 362.414545 299.860873 
L 364.991169 287.692134 
L 367.567792 286.990421 
L 370.144416 269.01971 
L 372.721039 282.95129 
L 375.297662 192.122182 
L 377.874286 252.007437 
L 380.450909 291.508771 
L 383.027532 269.943918 
L 385.604156 271.15908 
L 388.180779 193.097735 
L 390.757403 231.674861 
L 393.334026 273.315566 
L 395.910649 196.418037 
L 398.487273 300.014908 
" clip-path="url(#p51b8475fe3)" style="fill: none; stroke: #1f77b4; stroke-width: 1.5; stroke-linecap: square"/>
   </g>
   <g id="patch_8">
    <path d="M 57.6 307.584 
L 57.6 186.624 
" style="fill: none; stroke: #000000; stroke-width: 0.8; stroke-linejoin: miter; stroke-linecap: square"/>
   </g>
   <g id="patch_9">
    <path d="M 414.72 307.584 
L 414.72 186.624 
" style="fill: none; stroke: #000000; stroke-width: 0.8; stroke-linejoin: miter; stroke-linecap: square"/>
   </g>
   <g id="patch_10">
    <path d="M 57.6 307.584 
L 414.72 307.584 
" style="fill: none; stroke: #000000; stroke-width: 0.8; stroke-linejoin: miter; stroke-linecap: square"/>
   </g>
   <g id="patch_11">
    <path d="M 57.6 186.624 
L 414.72 186.624 
" style="fill: none; stroke: #000000; stroke-width: 0.8; stroke-linejoin: miter; stroke-linecap: square"/>
   </g>
  </g>
 </g>
 <defs>
  <clipPath id="pd518db77e0">
   <rect x="57.6" y="41.472" width="357.12" height="120.96"/>
  </clipPath>
  <clipPath id="p51b8475fe3">
   <rect x="57.6" y="186.624" width="357.12" height="120.96"/>
  </clipPath>
 </defs>
</svg>
