<?xml version="1.0" encoding="utf-8" standalone="no"?>
<!DOCTYPE svg PUBLIC "-//W3C//DTD SVG 1.1//EN"
  "http://www.w3.org/Graphics/SVG/1.1/DTD/svg11.dtd">
<svg xmlns:xlink="http://www.w3.org/1999/xlink" width="460.8pt" height="345.6pt" viewBox="0 0 460.8 345.6" xmlns="http://www.w3.org/2000/svg" version="1.1">
 <metadata>
  <rdf:RDF xmlns:dc="http://purl.org/dc/elements/1.1/" xmlns:cc="http://creativecommons.org/ns#" xmlns:rdf="http://www.w3.org/1999/02/22-rdf-syntax-ns#">
   <cc:Work>
    <dc:type rdf:resource="http://purl.org/dc/dcmitype/StillImage"/>
    <dc:date>2022-05-14T02:45:13.039604</dc:date>
    <dc:format>image/svg+xml</dc:format>
    <dc:creator>
     <cc:Agent>
      <dc:title>Matplotlib v3.5.1, https://matplotlib.org/</dc:title>
     </cc:Agent>
    </dc:creator>
   </cc:Work>
  </rdf:RDF>
 </metadata>
 <defs>
  <style type="text/css">*{stroke-linejoin: round; stroke-linecap: butt}</style>
 </defs>
 <g id="figure_1">
  <g id="patch_1">
   <path d="M 0 345.6 
L 460.8 345.6 
L 460.8 0 
L 0 0 
z
" style="fill: #ffffff"/>
  </g>
  <g id="axes_1">
   <g id="patch_2">
    <path d="M 57.6 162.432 
L 414.72 162.432 
L 414.72 41.472 
L 57.6 41.472 
z
" style="fill: #ffffff"/>
   </g>
   <g id="matplotlib.axis_1">
    <g id="xtick_1">
     <g id="line2d_1">
      <defs>
       <path id="m45a66405ca" d="M 0 0 
L 0 3.5 
" style="stroke: #000000; stroke-width: 0.8"/>
      </defs>
      <g>
       <use xlink:href="#m45a66405ca" x="73.827491" y="162.432" style="stroke: #000000; stroke-width: 0.8"/>
      </g>
     </g>
     <g id="text_1">
      <!-- 0 -->
      <g transform="translate(70.646241 177.030437)scale(0.1 -0.1)">
       <defs>
        <path id="DejaVuSans-30" d="M 2034 4250 
Q 1547 4250 1301 3770 
Q 1056 3291 1056 2328 
Q 1056 1369 1301 889 
Q 1547 409 2034 409 
Q 2525 409 2770 889 
Q 3016 1369 3016 2328 
Q 3016 3291 2770 3770 
Q 2525 4250 2034 4250 
z
M 2034 4750 
Q 2819 4750 3233 4129 
Q 3647 3509 3647 2328 
Q 3647 1150 3233 529 
Q 2819 -91 2034 -91 
Q 1250 -91 836 529 
Q 422 1150 422 2328 
Q 422 3509 836 4129 
Q 1250 4750 2034 4750 
z
" transform="scale(0.015625)"/>
       </defs>
       <use xlink:href="#DejaVuSans-30"/>
      </g>
     </g>
    </g>
    <g id="xtick_2">
     <g id="line2d_2">
      <g>
       <use xlink:href="#m45a66405ca" x="126.191972" y="162.432" style="stroke: #000000; stroke-width: 0.8"/>
      </g>
     </g>
     <g id="text_2">
      <!-- 10000 -->
      <g transform="translate(110.285722 177.030437)scale(0.1 -0.1)">
       <defs>
        <path id="DejaVuSans-31" d="M 794 531 
L 1825 531 
L 1825 4091 
L 703 3866 
L 703 4441 
L 1819 4666 
L 2450 4666 
L 2450 531 
L 3481 531 
L 3481 0 
L 794 0 
L 794 531 
z
" transform="scale(0.015625)"/>
       </defs>
       <use xlink:href="#DejaVuSans-31"/>
       <use xlink:href="#DejaVuSans-30" x="63.623047"/>
       <use xlink:href="#DejaVuSans-30" x="127.246094"/>
       <use xlink:href="#DejaVuSans-30" x="190.869141"/>
       <use xlink:href="#DejaVuSans-30" x="254.492188"/>
      </g>
     </g>
    </g>
    <g id="xtick_3">
     <g id="line2d_3">
      <g>
       <use xlink:href="#m45a66405ca" x="178.556453" y="162.432" style="stroke: #000000; stroke-width: 0.8"/>
      </g>
     </g>
     <g id="text_3">
      <!-- 20000 -->
      <g transform="translate(162.650203 177.030437)scale(0.1 -0.1)">
       <defs>
        <path id="DejaVuSans-32" d="M 1228 531 
L 3431 531 
L 3431 0 
L 469 0 
L 469 531 
Q 828 903 1448 1529 
Q 2069 2156 2228 2338 
Q 2531 2678 2651 2914 
Q 2772 3150 2772 3378 
Q 2772 3750 2511 3984 
Q 2250 4219 1831 4219 
Q 1534 4219 1204 4116 
Q 875 4013 500 3803 
L 500 4441 
Q 881 4594 1212 4672 
Q 1544 4750 1819 4750 
Q 2544 4750 2975 4387 
Q 3406 4025 3406 3419 
Q 3406 3131 3298 2873 
Q 3191 2616 2906 2266 
Q 2828 2175 2409 1742 
Q 1991 1309 1228 531 
z
" transform="scale(0.015625)"/>
       </defs>
       <use xlink:href="#DejaVuSans-32"/>
       <use xlink:href="#DejaVuSans-30" x="63.623047"/>
       <use xlink:href="#DejaVuSans-30" x="127.246094"/>
       <use xlink:href="#DejaVuSans-30" x="190.869141"/>
       <use xlink:href="#DejaVuSans-30" x="254.492188"/>
      </g>
     </g>
    </g>
    <g id="xtick_4">
     <g id="line2d_4">
      <g>
       <use xlink:href="#m45a66405ca" x="230.920934" y="162.432" style="stroke: #000000; stroke-width: 0.8"/>
      </g>
     </g>
     <g id="text_4">
      <!-- 30000 -->
      <g transform="translate(215.014684 177.030437)scale(0.1 -0.1)">
       <defs>
        <path id="DejaVuSans-33" d="M 2597 2516 
Q 3050 2419 3304 2112 
Q 3559 1806 3559 1356 
Q 3559 666 3084 287 
Q 2609 -91 1734 -91 
Q 1441 -91 1130 -33 
Q 819 25 488 141 
L 488 750 
Q 750 597 1062 519 
Q 1375 441 1716 441 
Q 2309 441 2620 675 
Q 2931 909 2931 1356 
Q 2931 1769 2642 2001 
Q 2353 2234 1838 2234 
L 1294 2234 
L 1294 2753 
L 1863 2753 
Q 2328 2753 2575 2939 
Q 2822 3125 2822 3475 
Q 2822 3834 2567 4026 
Q 2313 4219 1838 4219 
Q 1578 4219 1281 4162 
Q 984 4106 628 3988 
L 628 4550 
Q 988 4650 1302 4700 
Q 1616 4750 1894 4750 
Q 2613 4750 3031 4423 
Q 3450 4097 3450 3541 
Q 3450 3153 3228 2886 
Q 3006 2619 2597 2516 
z
" transform="scale(0.015625)"/>
       </defs>
       <use xlink:href="#DejaVuSans-33"/>
       <use xlink:href="#DejaVuSans-30" x="63.623047"/>
       <use xlink:href="#DejaVuSans-30" x="127.246094"/>
       <use xlink:href="#DejaVuSans-30" x="190.869141"/>
       <use xlink:href="#DejaVuSans-30" x="254.492188"/>
      </g>
     </g>
    </g>
    <g id="xtick_5">
     <g id="line2d_5">
      <g>
       <use xlink:href="#m45a66405ca" x="283.285415" y="162.432" style="stroke: #000000; stroke-width: 0.8"/>
      </g>
     </g>
     <g id="text_5">
      <!-- 40000 -->
      <g transform="translate(267.379165 177.030437)scale(0.1 -0.1)">
       <defs>
        <path id="DejaVuSans-34" d="M 2419 4116 
L 825 1625 
L 2419 1625 
L 2419 4116 
z
M 2253 4666 
L 3047 4666 
L 3047 1625 
L 3713 1625 
L 3713 1100 
L 3047 1100 
L 3047 0 
L 2419 0 
L 2419 1100 
L 313 1100 
L 313 1709 
L 2253 4666 
z
" transform="scale(0.015625)"/>
       </defs>
       <use xlink:href="#DejaVuSans-34"/>
       <use xlink:href="#DejaVuSans-30" x="63.623047"/>
       <use xlink:href="#DejaVuSans-30" x="127.246094"/>
       <use xlink:href="#DejaVuSans-30" x="190.869141"/>
       <use xlink:href="#DejaVuSans-30" x="254.492188"/>
      </g>
     </g>
    </g>
    <g id="xtick_6">
     <g id="line2d_6">
      <g>
       <use xlink:href="#m45a66405ca" x="335.649896" y="162.432" style="stroke: #000000; stroke-width: 0.8"/>
      </g>
     </g>
     <g id="text_6">
      <!-- 50000 -->
      <g transform="translate(319.743646 177.030437)scale(0.1 -0.1)">
       <defs>
        <path id="DejaVuSans-35" d="M 691 4666 
L 3169 4666 
L 3169 4134 
L 1269 4134 
L 1269 2991 
Q 1406 3038 1543 3061 
Q 1681 3084 1819 3084 
Q 2600 3084 3056 2656 
Q 3513 2228 3513 1497 
Q 3513 744 3044 326 
Q 2575 -91 1722 -91 
Q 1428 -91 1123 -41 
Q 819 9 494 109 
L 494 744 
Q 775 591 1075 516 
Q 1375 441 1709 441 
Q 2250 441 2565 725 
Q 2881 1009 2881 1497 
Q 2881 1984 2565 2268 
Q 2250 2553 1709 2553 
Q 1456 2553 1204 2497 
Q 953 2441 691 2322 
L 691 4666 
z
" transform="scale(0.015625)"/>
       </defs>
       <use xlink:href="#DejaVuSans-35"/>
       <use xlink:href="#DejaVuSans-30" x="63.623047"/>
       <use xlink:href="#DejaVuSans-30" x="127.246094"/>
       <use xlink:href="#DejaVuSans-30" x="190.869141"/>
       <use xlink:href="#DejaVuSans-30" x="254.492188"/>
      </g>
     </g>
    </g>
    <g id="xtick_7">
     <g id="line2d_7">
      <g>
       <use xlink:href="#m45a66405ca" x="388.014377" y="162.432" style="stroke: #000000; stroke-width: 0.8"/>
      </g>
     </g>
     <g id="text_7">
      <!-- 60000 -->
      <g transform="translate(372.108127 177.030437)scale(0.1 -0.1)">
       <defs>
        <path id="DejaVuSans-36" d="M 2113 2584 
Q 1688 2584 1439 2293 
Q 1191 2003 1191 1497 
Q 1191 994 1439 701 
Q 1688 409 2113 409 
Q 2538 409 2786 701 
Q 3034 994 3034 1497 
Q 3034 2003 2786 2293 
Q 2538 2584 2113 2584 
z
M 3366 4563 
L 3366 3988 
Q 3128 4100 2886 4159 
Q 2644 4219 2406 4219 
Q 1781 4219 1451 3797 
Q 1122 3375 1075 2522 
Q 1259 2794 1537 2939 
Q 1816 3084 2150 3084 
Q 2853 3084 3261 2657 
Q 3669 2231 3669 1497 
Q 3669 778 3244 343 
Q 2819 -91 2113 -91 
Q 1303 -91 875 529 
Q 447 1150 447 2328 
Q 447 3434 972 4092 
Q 1497 4750 2381 4750 
Q 2619 4750 2861 4703 
Q 3103 4656 3366 4563 
z
" transform="scale(0.015625)"/>
       </defs>
       <use xlink:href="#DejaVuSans-36"/>
       <use xlink:href="#DejaVuSans-30" x="63.623047"/>
       <use xlink:href="#DejaVuSans-30" x="127.246094"/>
       <use xlink:href="#DejaVuSans-30" x="190.869141"/>
       <use xlink:href="#DejaVuSans-30" x="254.492188"/>
      </g>
     </g>
    </g>
   </g>
   <g id="matplotlib.axis_2">
    <g id="ytick_1">
     <g id="line2d_8">
      <defs>
       <path id="mc0c81d1b7e" d="M 0 0 
L -3.5 0 
" style="stroke: #000000; stroke-width: 0.8"/>
      </defs>
      <g>
       <use xlink:href="#mc0c81d1b7e" x="57.6" y="133.172662" style="stroke: #000000; stroke-width: 0.8"/>
      </g>
     </g>
     <g id="text_8">
      <!-- 80 -->
      <g transform="translate(37.875 136.971881)scale(0.1 -0.1)">
       <defs>
        <path id="DejaVuSans-38" d="M 2034 2216 
Q 1584 2216 1326 1975 
Q 1069 1734 1069 1313 
Q 1069 891 1326 650 
Q 1584 409 2034 409 
Q 2484 409 2743 651 
Q 3003 894 3003 1313 
Q 3003 1734 2745 1975 
Q 2488 2216 2034 2216 
z
M 1403 2484 
Q 997 2584 770 2862 
Q 544 3141 544 3541 
Q 544 4100 942 4425 
Q 1341 4750 2034 4750 
Q 2731 4750 3128 4425 
Q 3525 4100 3525 3541 
Q 3525 3141 3298 2862 
Q 3072 2584 2669 2484 
Q 3125 2378 3379 2068 
Q 3634 1759 3634 1313 
Q 3634 634 3220 271 
Q 2806 -91 2034 -91 
Q 1263 -91 848 271 
Q 434 634 434 1313 
Q 434 1759 690 2068 
Q 947 2378 1403 2484 
z
M 1172 3481 
Q 1172 3119 1398 2916 
Q 1625 2713 2034 2713 
Q 2441 2713 2670 2916 
Q 2900 3119 2900 3481 
Q 2900 3844 2670 4047 
Q 2441 4250 2034 4250 
Q 1625 4250 1398 4047 
Q 1172 3844 1172 3481 
z
" transform="scale(0.015625)"/>
       </defs>
       <use xlink:href="#DejaVuSans-38"/>
       <use xlink:href="#DejaVuSans-30" x="63.623047"/>
      </g>
     </g>
    </g>
    <g id="ytick_2">
     <g id="line2d_9">
      <g>
       <use xlink:href="#mc0c81d1b7e" x="57.6" y="97.871335" style="stroke: #000000; stroke-width: 0.8"/>
      </g>
     </g>
     <g id="text_9">
      <!-- 90 -->
      <g transform="translate(37.875 101.670553)scale(0.1 -0.1)">
       <defs>
        <path id="DejaVuSans-39" d="M 703 97 
L 703 672 
Q 941 559 1184 500 
Q 1428 441 1663 441 
Q 2288 441 2617 861 
Q 2947 1281 2994 2138 
Q 2813 1869 2534 1725 
Q 2256 1581 1919 1581 
Q 1219 1581 811 2004 
Q 403 2428 403 3163 
Q 403 3881 828 4315 
Q 1253 4750 1959 4750 
Q 2769 4750 3195 4129 
Q 3622 3509 3622 2328 
Q 3622 1225 3098 567 
Q 2575 -91 1691 -91 
Q 1453 -91 1209 -44 
Q 966 3 703 97 
z
M 1959 2075 
Q 2384 2075 2632 2365 
Q 2881 2656 2881 3163 
Q 2881 3666 2632 3958 
Q 2384 4250 1959 4250 
Q 1534 4250 1286 3958 
Q 1038 3666 1038 3163 
Q 1038 2656 1286 2365 
Q 1534 2075 1959 2075 
z
" transform="scale(0.015625)"/>
       </defs>
       <use xlink:href="#DejaVuSans-39"/>
       <use xlink:href="#DejaVuSans-30" x="63.623047"/>
      </g>
     </g>
    </g>
    <g id="ytick_3">
     <g id="line2d_10">
      <g>
       <use xlink:href="#mc0c81d1b7e" x="57.6" y="62.570007" style="stroke: #000000; stroke-width: 0.8"/>
      </g>
     </g>
     <g id="text_10">
      <!-- 100 -->
      <g transform="translate(31.5125 66.369225)scale(0.1 -0.1)">
       <use xlink:href="#DejaVuSans-31"/>
       <use xlink:href="#DejaVuSans-30" x="63.623047"/>
       <use xlink:href="#DejaVuSans-30" x="127.246094"/>
      </g>
     </g>
    </g>
   </g>
   <g id="line2d_11">
    <path d="M 73.832727 62.570007 
L 73.958402 90.811069 
L 73.984584 90.306764 
L 73.989821 90.306764 
L 74.110259 99.720452 
L 74.157387 99.720452 
L 74.173096 98.837919 
L 74.178333 102.368051 
L 74.25688 101.19134 
L 74.351136 101.19134 
L 74.466337 104.721473 
L 74.49252 104.721473 
L 74.607722 103.83894 
L 74.623431 103.83894 
L 74.738633 107.369073 
L 74.995219 107.369073 
L 75.115657 114.429338 
L 75.236095 114.429338 
L 75.351297 117.959471 
L 75.387952 117.959471 
L 75.403662 117.076938 
L 75.408898 120.607071 
L 75.482208 120.607071 
L 75.77545 120.607071 
L 75.890651 124.137204 
L 76.430006 124.137204 
L 76.545207 123.431177 
L 76.649936 123.431177 
L 76.765138 122.548644 
L 76.822739 122.548644 
L 76.937941 121.371933 
L 77.482532 121.371933 
L 77.597733 124.902066 
L 77.822901 124.902066 
L 77.938103 124.019532 
L 78.912082 124.019532 
L 79.027284 127.549665 
L 79.660894 127.549665 
L 79.776096 131.079798 
L 81.132336 131.079798 
L 81.247538 130.373771 
L 82.88131 130.373771 
L 82.944147 129.197061 
L 82.949383 132.727193 
L 82.980802 132.727193 
L 83.635358 132.727193 
L 83.75056 131.550482 
L 85.614735 131.550482 
L 85.729937 135.080615 
L 90.13379 135.080615 
L 90.248992 133.903904 
L 93.317551 133.903904 
L 93.432752 137.434037 
L 98.726802 137.434037 
L 98.842003 136.551504 
L 99.056698 136.551504 
L 99.1719 140.081637 
L 100.323918 140.081637 
L 100.43912 143.611769 
L 116.551671 143.611769 
L 116.666873 147.141902 
L 122.578823 147.141902 
L 122.694024 146.637598 
L 134.994441 146.637598 
L 135.109643 145.755064 
L 160.370268 145.755064 
L 160.48547 149.285197 
L 162.967547 149.285197 
L 163.082749 148.402664 
L 180.970455 148.402664 
L 181.085657 147.520131 
L 182.515207 147.520131 
L 182.630409 151.050264 
L 316.589225 151.050264 
L 316.704426 149.873553 
L 337.891095 149.873553 
L 338.006297 153.403685 
L 380.699059 153.403685 
L 380.81426 156.933818 
L 398.487273 156.933818 
L 398.487273 156.933818 
" clip-path="url(#pae1f4969d4)" style="fill: none; stroke: #1f77b4; stroke-width: 1.5; stroke-linecap: square"/>
   </g>
   <g id="line2d_12">
    <path d="M 73.832727 66.10014 
L 73.984584 93.836897 
L 73.989821 93.836897 
L 74.047422 92.660186 
L 74.052658 96.190319 
L 74.089313 96.190319 
L 74.225461 96.190319 
L 74.277825 99.720452 
L 74.335426 97.955385 
L 74.345899 97.955385 
L 74.466337 105.015651 
L 74.49252 105.015651 
L 74.612958 102.956407 
L 74.623431 102.956407 
L 74.743869 110.016672 
L 75.110421 110.016672 
L 75.225622 113.546805 
L 75.236095 113.546805 
L 75.351297 112.664272 
L 75.403662 112.664272 
L 75.518864 111.487561 
L 75.77545 111.487561 
L 75.890651 115.017694 
L 76.377641 115.017694 
L 76.430006 122.077959 
L 76.498079 121.371933 
L 76.822739 121.371933 
L 76.937941 124.902066 
L 77.398748 124.902066 
L 77.519187 131.962331 
L 79.660894 131.962331 
L 79.776096 130.78562 
L 82.88131 130.78562 
L 82.996511 134.315753 
L 83.090768 134.315753 
L 83.205969 133.727398 
L 88.604747 133.727398 
L 88.719949 132.844864 
L 98.726802 132.844864 
L 98.842003 136.374997 
L 99.056698 136.374997 
L 99.1719 139.90513 
L 104.942465 139.90513 
L 105.057667 143.435263 
L 122.578823 143.435263 
L 122.694024 142.930958 
L 152.159518 142.930958 
L 152.27472 146.461091 
L 171.068332 146.461091 
L 171.183534 149.991224 
L 337.891095 149.991224 
L 338.006297 153.521356 
L 398.487273 153.521356 
L 398.487273 153.521356 
" clip-path="url(#pae1f4969d4)" style="fill: none; stroke: #ff7f0e; stroke-width: 1.5; stroke-linecap: square"/>
   </g>
   <g id="line2d_13">
    <path d="M 73.832727 61.687474 
L 73.848437 56.274603 
L 73.890328 71.571845 
L 73.911274 68.041713 
L 73.91651 68.041713 
L 73.953166 80.397177 
L 74.042185 78.127806 
L 74.063131 75.186029 
L 74.073604 82.246294 
L 74.131205 82.246294 
L 74.157387 82.246294 
L 74.277825 90.483271 
L 74.345899 90.483271 
L 74.351136 89.30656 
L 74.356372 92.836693 
L 74.445392 92.836693 
L 74.529175 92.836693 
L 74.623431 96.366826 
L 74.63914 93.425048 
L 74.995219 93.425048 
L 75.110421 96.955181 
L 75.225622 95.190115 
L 75.236095 95.190115 
L 75.351297 94.307581 
L 75.387952 94.307581 
L 75.508391 101.367847 
L 75.77545 101.367847 
L 75.890651 98.42607 
L 76.377641 98.42607 
L 76.498079 94.895937 
L 76.822739 94.895937 
L 76.937941 93.719226 
L 77.398748 93.719226 
L 77.424931 91.95416 
L 77.430167 95.484292 
L 77.508714 93.719226 
L 78.095196 93.719226 
L 78.210398 97.249359 
L 78.912082 97.249359 
L 78.943501 100.779492 
L 79.027284 100.073465 
L 79.660894 100.073465 
L 79.776096 103.603598 
L 81.132336 103.603598 
L 81.247538 102.897571 
L 82.88131 102.897571 
L 82.944147 101.72086 
L 82.949383 105.250993 
L 82.980802 105.250993 
L 83.090768 105.250993 
L 83.205969 104.662638 
L 83.635358 104.662638 
L 83.75056 103.485927 
L 84.462717 103.485927 
L 84.577919 107.01606 
L 85.614735 107.01606 
L 85.729937 110.546192 
L 89.919096 110.546192 
L 90.034298 114.076325 
L 90.13379 114.076325 
L 90.248992 112.899614 
L 93.317551 112.899614 
L 93.432752 116.429747 
L 97.826132 116.429747 
L 97.941334 114.664681 
L 98.726802 114.664681 
L 98.842003 113.782147 
L 99.056698 113.782147 
L 99.1719 112.017081 
L 104.942465 112.017081 
L 105.057667 110.84037 
L 116.551671 110.84037 
L 116.666873 114.370503 
L 122.578823 114.370503 
L 122.694024 113.866198 
L 152.159518 113.866198 
L 152.27472 112.101132 
L 160.370268 112.101132 
L 160.48547 115.631265 
L 162.967547 115.631265 
L 163.082749 114.748731 
L 171.068332 114.748731 
L 171.183534 112.983665 
L 180.970455 112.983665 
L 181.085657 112.101132 
L 182.515207 112.101132 
L 182.630409 115.631265 
L 218.657172 115.631265 
L 218.772374 119.161397 
L 316.589225 119.161397 
L 316.704426 117.984686 
L 337.891095 117.984686 
L 338.006297 116.21962 
L 380.699059 116.21962 
L 380.81426 119.749753 
L 398.487273 119.749753 
L 398.487273 119.749753 
" clip-path="url(#pae1f4969d4)" style="fill: none; stroke: #2ca02c; stroke-width: 1.5; stroke-linecap: square"/>
   </g>
   <g id="line2d_14">
    <path d="M 73.832727 66.10014 
L 73.837964 66.10014 
L 73.968875 81.985737 
L 73.984584 81.985737 
L 74.068367 92.576135 
L 74.105023 91.399424 
L 74.157387 91.399424 
L 74.277825 88.457647 
L 74.345899 91.98778 
L 74.387791 90.811069 
L 74.49252 90.811069 
L 74.607722 94.341202 
L 74.628667 94.341202 
L 74.743869 93.164491 
L 74.995219 93.164491 
L 75.063293 90.811069 
L 75.068529 94.341202 
L 75.099948 94.341202 
L 75.236095 94.341202 
L 75.356534 101.401467 
L 75.387952 101.401467 
L 75.508391 99.342223 
L 75.822578 99.342223 
L 75.937779 102.872356 
L 76.649936 102.872356 
L 76.765138 101.989823 
L 77.424931 101.989823 
L 77.540133 100.813112 
L 77.822901 100.813112 
L 77.938103 99.930579 
L 78.095196 99.930579 
L 78.210398 98.753868 
L 79.660894 98.753868 
L 79.776096 97.577157 
L 81.132336 97.577157 
L 81.247538 101.10729 
L 83.090768 101.10729 
L 83.205969 104.637422 
L 83.635358 104.637422 
L 83.75056 108.167555 
L 84.462717 108.167555 
L 84.577919 106.990844 
L 88.604747 106.990844 
L 88.719949 110.520977 
L 89.919096 110.520977 
L 90.034298 109.344266 
L 97.826132 109.344266 
L 97.941334 112.874399 
L 98.726802 112.874399 
L 98.842003 111.991866 
L 100.323918 111.991866 
L 100.43912 115.521999 
L 104.942465 115.521999 
L 105.057667 114.345288 
L 134.994441 114.345288 
L 135.109643 113.462754 
L 162.302518 113.462754 
L 162.41772 116.992887 
L 180.970455 116.992887 
L 181.085657 120.52302 
L 316.589225 120.52302 
L 316.704426 124.053153 
L 380.699059 124.053153 
L 380.81426 122.876442 
L 398.487273 122.876442 
L 398.487273 122.876442 
" clip-path="url(#pae1f4969d4)" style="fill: none; stroke: #d62728; stroke-width: 1.5; stroke-linecap: square"/>
   </g>
   <g id="line2d_15">
    <path d="M 73.832727 61.687474 
L 73.837964 61.687474 
L 73.953166 60.981447 
L 73.958402 60.981447 
L 74.073604 60.477142 
L 74.49252 60.477142 
L 74.607722 59.594609 
L 75.236095 59.594609 
L 75.351297 58.712076 
L 75.822578 58.712076 
L 75.937779 57.535365 
L 76.430006 57.535365 
L 76.545207 56.829338 
L 78.943501 56.829338 
L 79.058702 56.123312 
L 81.132336 56.123312 
L 81.247538 55.417285 
L 83.090768 55.417285 
L 83.205969 54.82893 
L 88.604747 54.82893 
L 88.719949 53.946397 
L 122.578823 53.946397 
L 122.694024 53.442092 
L 162.967547 53.442092 
L 163.082749 52.559559 
L 180.970455 52.559559 
L 181.085657 51.677026 
L 398.487273 51.677026 
L 398.487273 51.677026 
" clip-path="url(#pae1f4969d4)" style="fill: none; stroke: #9467bd; stroke-width: 1.5; stroke-linecap: square"/>
   </g>
   <g id="line2d_16">
    <path d="M 73.832727 62.570007 
L 73.837964 61.393296 
L 73.885092 74.925471 
L 73.890328 74.925471 
L 74.026476 68.453561 
L 74.042185 68.453561 
L 74.157387 67.27685 
L 74.183569 67.27685 
L 74.304008 64.335073 
L 76.430006 64.335073 
L 76.545207 67.865206 
L 76.822739 67.865206 
L 76.937941 66.688495 
L 77.398748 66.688495 
L 77.51395 64.923429 
L 78.943501 64.923429 
L 79.058702 68.453561 
L 81.132336 68.453561 
L 81.247538 71.983694 
L 82.88131 71.983694 
L 82.996511 70.806983 
L 83.090768 70.806983 
L 83.205969 74.337116 
L 83.635358 74.337116 
L 83.75056 73.160405 
L 88.604747 73.160405 
L 88.719949 76.690538 
L 90.13379 76.690538 
L 90.248992 75.513827 
L 97.826132 75.513827 
L 97.941334 73.748761 
L 122.578823 73.748761 
L 122.694024 77.278893 
L 171.068332 77.278893 
L 171.183534 75.513827 
L 316.589225 75.513827 
L 316.704426 74.337116 
L 398.487273 74.337116 
L 398.487273 74.337116 
" clip-path="url(#pae1f4969d4)" style="fill: none; stroke: #8c564b; stroke-width: 1.5; stroke-linecap: square"/>
   </g>
   <g id="line2d_17">
    <path d="M 73.832727 61.687474 
L 73.837964 61.687474 
L 73.989821 55.770299 
L 74.49252 55.770299 
L 74.607722 54.887765 
L 75.236095 54.887765 
L 75.351297 54.005232 
L 75.822578 54.005232 
L 75.937779 52.828521 
L 76.430006 52.828521 
L 76.545207 52.122495 
L 78.943501 52.122495 
L 79.058702 51.416468 
L 81.132336 51.416468 
L 81.247538 50.710442 
L 83.090768 50.710442 
L 83.205969 50.122086 
L 88.604747 50.122086 
L 88.719949 49.239553 
L 122.578823 49.239553 
L 122.694024 48.735248 
L 162.967547 48.735248 
L 163.082749 47.852715 
L 180.970455 47.852715 
L 181.085657 46.970182 
L 398.487273 46.970182 
L 398.487273 46.970182 
" clip-path="url(#pae1f4969d4)" style="fill: none; stroke: #e377c2; stroke-width: 1.5; stroke-linecap: square"/>
   </g>
   <g id="line2d_18">
    <path d="M 73.832727 66.10014 
L 73.837964 66.10014 
L 73.974111 83.92731 
L 73.989821 83.92731 
L 74.110259 90.987576 
L 74.183569 90.987576 
L 74.298771 97.165308 
L 74.49252 97.165308 
L 74.534411 104.225574 
L 74.607722 102.460507 
L 75.047583 102.460507 
L 75.168022 99.51873 
L 75.236095 99.51873 
L 75.241332 103.048863 
L 75.346061 101.283796 
L 75.403662 101.283796 
L 75.518864 104.813929 
L 75.822578 104.813929 
L 75.937779 108.344062 
L 76.430006 108.344062 
L 76.545207 111.874195 
L 76.649936 111.874195 
L 76.765138 110.991661 
L 77.822901 110.991661 
L 77.938103 110.109128 
L 78.943501 110.109128 
L 78.974919 113.639261 
L 79.053466 111.874195 
L 79.660894 111.874195 
L 79.776096 115.404327 
L 80.613928 115.404327 
L 80.729129 113.639261 
L 81.132336 113.639261 
L 81.247538 117.169394 
L 81.718818 117.169394 
L 81.83402 115.404327 
L 83.090768 115.404327 
L 83.205969 118.93446 
L 83.635358 118.93446 
L 83.75056 122.464593 
L 88.604747 122.464593 
L 88.719949 125.994726 
L 90.13379 125.994726 
L 90.248992 129.524859 
L 100.323918 129.524859 
L 100.43912 127.759792 
L 122.578823 127.759792 
L 122.694024 131.289925 
L 128.31797 131.289925 
L 128.433172 129.524859 
L 134.994441 129.524859 
L 135.109643 128.642325 
L 162.302518 128.642325 
L 162.41772 126.877259 
L 162.967547 126.877259 
L 163.082749 130.407392 
L 180.970455 130.407392 
L 181.085657 133.937525 
L 316.589225 133.937525 
L 316.704426 137.467657 
L 398.487273 137.467657 
L 398.487273 137.467657 
" clip-path="url(#pae1f4969d4)" style="fill: none; stroke: #7f7f7f; stroke-width: 1.5; stroke-linecap: square"/>
   </g>
   <g id="line2d_19">
    <path d="M 73.832727 61.687474 
L 73.974111 85.364578 
L 73.984584 85.364578 
L 74.047422 91.248133 
L 74.09455 86.541289 
L 74.157387 86.541289 
L 74.183569 83.89369 
L 74.188806 87.423823 
L 74.267352 86.247112 
L 74.272589 86.247112 
L 74.277825 85.364578 
L 74.283062 88.894711 
L 74.382554 85.952934 
L 74.49252 85.952934 
L 74.607722 91.836489 
L 74.623431 91.836489 
L 74.738633 88.894711 
L 74.995219 88.894711 
L 75.047583 87.718 
L 75.068529 94.778266 
L 75.079002 94.778266 
L 75.110421 94.778266 
L 75.225622 93.013199 
L 75.241332 93.013199 
L 75.356534 96.543332 
L 75.387952 96.543332 
L 75.508391 94.484088 
L 75.77545 94.484088 
L 75.890651 92.719022 
L 76.377641 92.719022 
L 76.498079 89.188889 
L 76.649936 89.188889 
L 76.765138 92.719022 
L 76.822739 92.719022 
L 76.937941 96.249155 
L 77.398748 96.249155 
L 77.424931 99.779287 
L 77.508714 96.83751 
L 77.822901 96.83751 
L 77.938103 100.367643 
L 78.095196 100.367643 
L 78.210398 99.190932 
L 78.912082 99.190932 
L 78.974919 96.719839 
L 78.980156 100.249972 
L 79.016811 100.249972 
L 79.660894 100.249972 
L 79.776096 99.073261 
L 80.613928 99.073261 
L 80.729129 102.603394 
L 81.718818 102.603394 
L 81.83402 106.133526 
L 82.88131 106.133526 
L 82.944147 109.663659 
L 82.991275 107.898593 
L 83.090768 107.898593 
L 83.205969 107.310237 
L 83.635358 107.310237 
L 83.75056 110.84037 
L 84.462717 110.84037 
L 84.577919 109.663659 
L 85.614735 109.663659 
L 85.729937 107.898593 
L 89.919096 107.898593 
L 90.034298 106.721882 
L 90.13379 106.721882 
L 90.248992 110.252015 
L 93.317551 110.252015 
L 93.432752 108.486948 
L 97.826132 108.486948 
L 97.941334 112.017081 
L 98.726802 112.017081 
L 98.842003 111.134548 
L 99.056698 111.134548 
L 99.1719 109.369481 
L 100.323918 109.369481 
L 100.43912 112.899614 
L 104.942465 112.899614 
L 105.057667 111.722903 
L 116.551671 111.722903 
L 116.666873 109.957837 
L 122.578823 109.957837 
L 122.694024 109.453532 
L 128.31797 109.453532 
L 128.433172 112.983665 
L 134.994441 112.983665 
L 135.109643 116.513798 
L 152.159518 116.513798 
L 152.27472 114.748731 
L 160.370268 114.748731 
L 160.48547 112.983665 
L 162.302518 112.983665 
L 162.41772 116.513798 
L 171.068332 116.513798 
L 171.183534 120.043931 
L 180.970455 120.043931 
L 181.085657 123.574063 
L 182.515207 123.574063 
L 182.630409 121.808997 
L 218.657172 121.808997 
L 218.772374 120.043931 
L 316.589225 120.043931 
L 316.704426 123.574063 
L 337.891095 123.574063 
L 338.006297 121.808997 
L 380.699059 121.808997 
L 380.81426 120.632286 
L 398.487273 120.632286 
L 398.487273 120.632286 
" clip-path="url(#pae1f4969d4)" style="fill: none; stroke: #bcbd22; stroke-width: 1.5; stroke-linecap: square"/>
   </g>
   <g id="line2d_20">
    <path d="M 73.832727 66.10014 
L 73.837964 66.10014 
L 73.900801 78.043755 
L 73.953166 69.806779 
L 73.958402 69.806779 
L 74.063131 75.690334 
L 74.073604 72.748556 
L 74.157387 72.748556 
L 74.183569 70.100957 
L 74.188806 73.631089 
L 74.262116 73.631089 
L 74.272589 73.631089 
L 74.277825 72.748556 
L 74.283062 76.278689 
L 74.377318 74.513623 
L 74.49252 74.513623 
L 74.529175 78.043755 
L 74.602485 75.101978 
L 74.995219 75.101978 
L 75.120894 70.98349 
L 75.236095 70.98349 
L 75.241332 74.513623 
L 75.346061 72.748556 
L 75.387952 72.748556 
L 75.503154 71.866023 
L 75.822578 71.866023 
L 75.937779 75.396156 
L 76.430006 75.396156 
L 76.545207 78.926289 
L 76.649936 78.926289 
L 76.765138 78.043755 
L 77.424931 78.043755 
L 77.540133 76.867045 
L 77.822901 76.867045 
L 77.938103 75.984511 
L 78.095196 75.984511 
L 78.210398 74.8078 
L 78.912082 74.8078 
L 78.943501 73.042734 
L 78.948737 76.572867 
L 79.022047 74.8078 
L 80.613928 74.8078 
L 80.729129 73.042734 
L 81.132336 73.042734 
L 81.247538 76.572867 
L 81.718818 76.572867 
L 81.83402 74.8078 
L 82.944147 74.8078 
L 83.059349 73.042734 
L 83.090768 73.042734 
L 83.205969 76.572867 
L 83.635358 76.572867 
L 83.75056 80.103 
L 84.462717 80.103 
L 84.577919 78.926289 
L 85.614735 78.926289 
L 85.729937 77.161222 
L 88.604747 77.161222 
L 88.719949 80.691355 
L 89.919096 80.691355 
L 90.034298 79.514644 
L 90.13379 79.514644 
L 90.248992 83.044777 
L 93.317551 83.044777 
L 93.432752 81.27971 
L 100.323918 81.27971 
L 100.43912 79.514644 
L 116.551671 79.514644 
L 116.666873 77.749578 
L 122.578823 77.749578 
L 122.694024 81.27971 
L 128.31797 81.27971 
L 128.433172 79.514644 
L 134.994441 79.514644 
L 135.109643 78.632111 
L 160.370268 78.632111 
L 160.48547 76.867045 
L 162.302518 76.867045 
L 162.41772 75.101978 
L 162.967547 75.101978 
L 163.082749 78.632111 
L 180.970455 78.632111 
L 181.085657 82.162244 
L 182.515207 82.162244 
L 182.630409 80.397177 
L 218.657172 80.397177 
L 218.772374 78.632111 
L 316.589225 78.632111 
L 316.704426 82.162244 
L 380.699059 82.162244 
L 380.81426 80.985533 
L 398.487273 80.985533 
L 398.487273 80.985533 
" clip-path="url(#pae1f4969d4)" style="fill: none; stroke: #17becf; stroke-width: 1.5; stroke-linecap: square"/>
   </g>
   <g id="line2d_21">
    <path d="M 73.832727 62.570007 
L 73.968875 82.716979 
L 73.984584 82.716979 
L 74.105023 89.777244 
L 74.183569 89.777244 
L 74.304008 96.83751 
L 76.430006 96.83751 
L 76.545207 96.131483 
L 76.822739 96.131483 
L 76.937941 99.661616 
L 77.398748 99.661616 
L 77.51395 103.191749 
L 78.943501 103.191749 
L 79.058702 102.485722 
L 81.132336 102.485722 
L 81.247538 101.779696 
L 82.88131 101.779696 
L 82.996511 105.309829 
L 83.090768 105.309829 
L 83.205969 104.721473 
L 83.635358 104.721473 
L 83.75056 108.251606 
L 88.604747 108.251606 
L 88.719949 107.369073 
L 90.13379 107.369073 
L 90.248992 110.899206 
L 97.826132 110.899206 
L 97.941334 114.429338 
L 122.578823 114.429338 
L 122.694024 113.925034 
L 171.068332 113.925034 
L 171.183534 117.455166 
L 316.589225 117.455166 
L 316.704426 120.985299 
L 398.487273 120.985299 
L 398.487273 120.985299 
" clip-path="url(#pae1f4969d4)" style="fill: none; stroke: #1f77b4; stroke-width: 1.5; stroke-linecap: square"/>
   </g>
   <g id="line2d_22">
    <path d="M 73.832727 62.570007 
L 73.8432 61.393296 
L 73.848437 64.923429 
L 73.942693 62.452336 
L 73.958402 62.452336 
L 74.073604 65.982468 
L 75.236095 65.982468 
L 75.351297 69.512601 
L 78.943501 69.512601 
L 79.058702 73.042734 
L 83.090768 73.042734 
L 83.205969 76.572867 
L 122.578823 76.572867 
L 122.694024 80.103 
L 398.487273 80.103 
L 398.487273 80.103 
" clip-path="url(#pae1f4969d4)" style="fill: none; stroke: #ff7f0e; stroke-width: 1.5; stroke-linecap: square"/>
   </g>
   <g id="patch_3">
    <path d="M 57.6 162.432 
L 57.6 41.472 
" style="fill: none; stroke: #000000; stroke-width: 0.8; stroke-linejoin: miter; stroke-linecap: square"/>
   </g>
   <g id="patch_4">
    <path d="M 414.72 162.432 
L 414.72 41.472 
" style="fill: none; stroke: #000000; stroke-width: 0.8; stroke-linejoin: miter; stroke-linecap: square"/>
   </g>
   <g id="patch_5">
    <path d="M 57.6 162.432 
L 414.72 162.432 
" style="fill: none; stroke: #000000; stroke-width: 0.8; stroke-linejoin: miter; stroke-linecap: square"/>
   </g>
   <g id="patch_6">
    <path d="M 57.6 41.472 
L 414.72 41.472 
" style="fill: none; stroke: #000000; stroke-width: 0.8; stroke-linejoin: miter; stroke-linecap: square"/>
   </g>
   <g id="text_11">
    <!-- WSP -->
    <g transform="translate(361.832136 156.933818)scale(0.08 -0.08)">
     <defs>
      <path id="DejaVuSans-57" d="M 213 4666 
L 850 4666 
L 1831 722 
L 2809 4666 
L 3519 4666 
L 4500 722 
L 5478 4666 
L 6119 4666 
L 4947 0 
L 4153 0 
L 3169 4050 
L 2175 0 
L 1381 0 
L 213 4666 
z
" transform="scale(0.015625)"/>
      <path id="DejaVuSans-53" d="M 3425 4513 
L 3425 3897 
Q 3066 4069 2747 4153 
Q 2428 4238 2131 4238 
Q 1616 4238 1336 4038 
Q 1056 3838 1056 3469 
Q 1056 3159 1242 3001 
Q 1428 2844 1947 2747 
L 2328 2669 
Q 3034 2534 3370 2195 
Q 3706 1856 3706 1288 
Q 3706 609 3251 259 
Q 2797 -91 1919 -91 
Q 1588 -91 1214 -16 
Q 841 59 441 206 
L 441 856 
Q 825 641 1194 531 
Q 1563 422 1919 422 
Q 2459 422 2753 634 
Q 3047 847 3047 1241 
Q 3047 1584 2836 1778 
Q 2625 1972 2144 2069 
L 1759 2144 
Q 1053 2284 737 2584 
Q 422 2884 422 3419 
Q 422 4038 858 4394 
Q 1294 4750 2059 4750 
Q 2388 4750 2728 4690 
Q 3069 4631 3425 4513 
z
" transform="scale(0.015625)"/>
      <path id="DejaVuSans-50" d="M 1259 4147 
L 1259 2394 
L 2053 2394 
Q 2494 2394 2734 2622 
Q 2975 2850 2975 3272 
Q 2975 3691 2734 3919 
Q 2494 4147 2053 4147 
L 1259 4147 
z
M 628 4666 
L 2053 4666 
Q 2838 4666 3239 4311 
Q 3641 3956 3641 3272 
Q 3641 2581 3239 2228 
Q 2838 1875 2053 1875 
L 1259 1875 
L 1259 0 
L 628 0 
L 628 4666 
z
" transform="scale(0.015625)"/>
     </defs>
     <use xlink:href="#DejaVuSans-57"/>
     <use xlink:href="#DejaVuSans-53" x="98.876953"/>
     <use xlink:href="#DejaVuSans-50" x="162.353516"/>
    </g>
   </g>
   <g id="text_12">
    <!-- Iambic -->
    <g transform="translate(361.832136 153.521356)scale(0.08 -0.08)">
     <defs>
      <path id="DejaVuSans-49" d="M 628 4666 
L 1259 4666 
L 1259 0 
L 628 0 
L 628 4666 
z
" transform="scale(0.015625)"/>
      <path id="DejaVuSans-61" d="M 2194 1759 
Q 1497 1759 1228 1600 
Q 959 1441 959 1056 
Q 959 750 1161 570 
Q 1363 391 1709 391 
Q 2188 391 2477 730 
Q 2766 1069 2766 1631 
L 2766 1759 
L 2194 1759 
z
M 3341 1997 
L 3341 0 
L 2766 0 
L 2766 531 
Q 2569 213 2275 61 
Q 1981 -91 1556 -91 
Q 1019 -91 701 211 
Q 384 513 384 1019 
Q 384 1609 779 1909 
Q 1175 2209 1959 2209 
L 2766 2209 
L 2766 2266 
Q 2766 2663 2505 2880 
Q 2244 3097 1772 3097 
Q 1472 3097 1187 3025 
Q 903 2953 641 2809 
L 641 3341 
Q 956 3463 1253 3523 
Q 1550 3584 1831 3584 
Q 2591 3584 2966 3190 
Q 3341 2797 3341 1997 
z
" transform="scale(0.015625)"/>
      <path id="DejaVuSans-6d" d="M 3328 2828 
Q 3544 3216 3844 3400 
Q 4144 3584 4550 3584 
Q 5097 3584 5394 3201 
Q 5691 2819 5691 2113 
L 5691 0 
L 5113 0 
L 5113 2094 
Q 5113 2597 4934 2840 
Q 4756 3084 4391 3084 
Q 3944 3084 3684 2787 
Q 3425 2491 3425 1978 
L 3425 0 
L 2847 0 
L 2847 2094 
Q 2847 2600 2669 2842 
Q 2491 3084 2119 3084 
Q 1678 3084 1418 2786 
Q 1159 2488 1159 1978 
L 1159 0 
L 581 0 
L 581 3500 
L 1159 3500 
L 1159 2956 
Q 1356 3278 1631 3431 
Q 1906 3584 2284 3584 
Q 2666 3584 2933 3390 
Q 3200 3197 3328 2828 
z
" transform="scale(0.015625)"/>
      <path id="DejaVuSans-62" d="M 3116 1747 
Q 3116 2381 2855 2742 
Q 2594 3103 2138 3103 
Q 1681 3103 1420 2742 
Q 1159 2381 1159 1747 
Q 1159 1113 1420 752 
Q 1681 391 2138 391 
Q 2594 391 2855 752 
Q 3116 1113 3116 1747 
z
M 1159 2969 
Q 1341 3281 1617 3432 
Q 1894 3584 2278 3584 
Q 2916 3584 3314 3078 
Q 3713 2572 3713 1747 
Q 3713 922 3314 415 
Q 2916 -91 2278 -91 
Q 1894 -91 1617 61 
Q 1341 213 1159 525 
L 1159 0 
L 581 0 
L 581 4863 
L 1159 4863 
L 1159 2969 
z
" transform="scale(0.015625)"/>
      <path id="DejaVuSans-69" d="M 603 3500 
L 1178 3500 
L 1178 0 
L 603 0 
L 603 3500 
z
M 603 4863 
L 1178 4863 
L 1178 4134 
L 603 4134 
L 603 4863 
z
" transform="scale(0.015625)"/>
      <path id="DejaVuSans-63" d="M 3122 3366 
L 3122 2828 
Q 2878 2963 2633 3030 
Q 2388 3097 2138 3097 
Q 1578 3097 1268 2742 
Q 959 2388 959 1747 
Q 959 1106 1268 751 
Q 1578 397 2138 397 
Q 2388 397 2633 464 
Q 2878 531 3122 666 
L 3122 134 
Q 2881 22 2623 -34 
Q 2366 -91 2075 -91 
Q 1284 -91 818 406 
Q 353 903 353 1747 
Q 353 2603 823 3093 
Q 1294 3584 2113 3584 
Q 2378 3584 2631 3529 
Q 2884 3475 3122 3366 
z
" transform="scale(0.015625)"/>
     </defs>
     <use xlink:href="#DejaVuSans-49"/>
     <use xlink:href="#DejaVuSans-61" x="29.492188"/>
     <use xlink:href="#DejaVuSans-6d" x="90.771484"/>
     <use xlink:href="#DejaVuSans-62" x="188.183594"/>
     <use xlink:href="#DejaVuSans-69" x="251.660156"/>
     <use xlink:href="#DejaVuSans-63" x="279.443359"/>
    </g>
   </g>
   <g id="text_13">
    <!-- Parse -->
    <g transform="translate(361.832136 119.749753)scale(0.08 -0.08)">
     <defs>
      <path id="DejaVuSans-72" d="M 2631 2963 
Q 2534 3019 2420 3045 
Q 2306 3072 2169 3072 
Q 1681 3072 1420 2755 
Q 1159 2438 1159 1844 
L 1159 0 
L 581 0 
L 581 3500 
L 1159 3500 
L 1159 2956 
Q 1341 3275 1631 3429 
Q 1922 3584 2338 3584 
Q 2397 3584 2469 3576 
Q 2541 3569 2628 3553 
L 2631 2963 
z
" transform="scale(0.015625)"/>
      <path id="DejaVuSans-73" d="M 2834 3397 
L 2834 2853 
Q 2591 2978 2328 3040 
Q 2066 3103 1784 3103 
Q 1356 3103 1142 2972 
Q 928 2841 928 2578 
Q 928 2378 1081 2264 
Q 1234 2150 1697 2047 
L 1894 2003 
Q 2506 1872 2764 1633 
Q 3022 1394 3022 966 
Q 3022 478 2636 193 
Q 2250 -91 1575 -91 
Q 1294 -91 989 -36 
Q 684 19 347 128 
L 347 722 
Q 666 556 975 473 
Q 1284 391 1588 391 
Q 1994 391 2212 530 
Q 2431 669 2431 922 
Q 2431 1156 2273 1281 
Q 2116 1406 1581 1522 
L 1381 1569 
Q 847 1681 609 1914 
Q 372 2147 372 2553 
Q 372 3047 722 3315 
Q 1072 3584 1716 3584 
Q 2034 3584 2315 3537 
Q 2597 3491 2834 3397 
z
" transform="scale(0.015625)"/>
      <path id="DejaVuSans-65" d="M 3597 1894 
L 3597 1613 
L 953 1613 
Q 991 1019 1311 708 
Q 1631 397 2203 397 
Q 2534 397 2845 478 
Q 3156 559 3463 722 
L 3463 178 
Q 3153 47 2828 -22 
Q 2503 -91 2169 -91 
Q 1331 -91 842 396 
Q 353 884 353 1716 
Q 353 2575 817 3079 
Q 1281 3584 2069 3584 
Q 2775 3584 3186 3129 
Q 3597 2675 3597 1894 
z
M 3022 2063 
Q 3016 2534 2758 2815 
Q 2500 3097 2075 3097 
Q 1594 3097 1305 2825 
Q 1016 2553 972 2059 
L 3022 2063 
z
" transform="scale(0.015625)"/>
     </defs>
     <use xlink:href="#DejaVuSans-50"/>
     <use xlink:href="#DejaVuSans-61" x="55.802734"/>
     <use xlink:href="#DejaVuSans-72" x="117.082031"/>
     <use xlink:href="#DejaVuSans-73" x="158.195312"/>
     <use xlink:href="#DejaVuSans-65" x="210.294922"/>
    </g>
   </g>
   <g id="text_14">
    <!-- FootBin -->
    <g transform="translate(361.832136 122.876442)scale(0.08 -0.08)">
     <defs>
      <path id="DejaVuSans-46" d="M 628 4666 
L 3309 4666 
L 3309 4134 
L 1259 4134 
L 1259 2759 
L 3109 2759 
L 3109 2228 
L 1259 2228 
L 1259 0 
L 628 0 
L 628 4666 
z
" transform="scale(0.015625)"/>
      <path id="DejaVuSans-6f" d="M 1959 3097 
Q 1497 3097 1228 2736 
Q 959 2375 959 1747 
Q 959 1119 1226 758 
Q 1494 397 1959 397 
Q 2419 397 2687 759 
Q 2956 1122 2956 1747 
Q 2956 2369 2687 2733 
Q 2419 3097 1959 3097 
z
M 1959 3584 
Q 2709 3584 3137 3096 
Q 3566 2609 3566 1747 
Q 3566 888 3137 398 
Q 2709 -91 1959 -91 
Q 1206 -91 779 398 
Q 353 888 353 1747 
Q 353 2609 779 3096 
Q 1206 3584 1959 3584 
z
" transform="scale(0.015625)"/>
      <path id="DejaVuSans-74" d="M 1172 4494 
L 1172 3500 
L 2356 3500 
L 2356 3053 
L 1172 3053 
L 1172 1153 
Q 1172 725 1289 603 
Q 1406 481 1766 481 
L 2356 481 
L 2356 0 
L 1766 0 
Q 1100 0 847 248 
Q 594 497 594 1153 
L 594 3053 
L 172 3053 
L 172 3500 
L 594 3500 
L 594 4494 
L 1172 4494 
z
" transform="scale(0.015625)"/>
      <path id="DejaVuSans-42" d="M 1259 2228 
L 1259 519 
L 2272 519 
Q 2781 519 3026 730 
Q 3272 941 3272 1375 
Q 3272 1813 3026 2020 
Q 2781 2228 2272 2228 
L 1259 2228 
z
M 1259 4147 
L 1259 2741 
L 2194 2741 
Q 2656 2741 2882 2914 
Q 3109 3088 3109 3444 
Q 3109 3797 2882 3972 
Q 2656 4147 2194 4147 
L 1259 4147 
z
M 628 4666 
L 2241 4666 
Q 2963 4666 3353 4366 
Q 3744 4066 3744 3513 
Q 3744 3084 3544 2831 
Q 3344 2578 2956 2516 
Q 3422 2416 3680 2098 
Q 3938 1781 3938 1306 
Q 3938 681 3513 340 
Q 3088 0 2303 0 
L 628 0 
L 628 4666 
z
" transform="scale(0.015625)"/>
      <path id="DejaVuSans-6e" d="M 3513 2113 
L 3513 0 
L 2938 0 
L 2938 2094 
Q 2938 2591 2744 2837 
Q 2550 3084 2163 3084 
Q 1697 3084 1428 2787 
Q 1159 2491 1159 1978 
L 1159 0 
L 581 0 
L 581 3500 
L 1159 3500 
L 1159 2956 
Q 1366 3272 1645 3428 
Q 1925 3584 2291 3584 
Q 2894 3584 3203 3211 
Q 3513 2838 3513 2113 
z
" transform="scale(0.015625)"/>
     </defs>
     <use xlink:href="#DejaVuSans-46"/>
     <use xlink:href="#DejaVuSans-6f" x="53.894531"/>
     <use xlink:href="#DejaVuSans-6f" x="115.076172"/>
     <use xlink:href="#DejaVuSans-74" x="176.257812"/>
     <use xlink:href="#DejaVuSans-42" x="215.466797"/>
     <use xlink:href="#DejaVuSans-69" x="284.070312"/>
     <use xlink:href="#DejaVuSans-6e" x="311.853516"/>
    </g>
   </g>
   <g id="text_15">
    <!-- WFL -->
    <g transform="translate(361.832136 51.677026)scale(0.08 -0.08)">
     <defs>
      <path id="DejaVuSans-4c" d="M 628 4666 
L 1259 4666 
L 1259 531 
L 3531 531 
L 3531 0 
L 628 0 
L 628 4666 
z
" transform="scale(0.015625)"/>
     </defs>
     <use xlink:href="#DejaVuSans-57"/>
     <use xlink:href="#DejaVuSans-46" x="98.876953"/>
     <use xlink:href="#DejaVuSans-4c" x="156.396484"/>
    </g>
   </g>
   <g id="text_16">
    <!-- WFR -->
    <g transform="translate(361.832136 74.337116)scale(0.08 -0.08)">
     <defs>
      <path id="DejaVuSans-52" d="M 2841 2188 
Q 3044 2119 3236 1894 
Q 3428 1669 3622 1275 
L 4263 0 
L 3584 0 
L 2988 1197 
Q 2756 1666 2539 1819 
Q 2322 1972 1947 1972 
L 1259 1972 
L 1259 0 
L 628 0 
L 628 4666 
L 2053 4666 
Q 2853 4666 3247 4331 
Q 3641 3997 3641 3322 
Q 3641 2881 3436 2590 
Q 3231 2300 2841 2188 
z
M 1259 4147 
L 1259 2491 
L 2053 2491 
Q 2509 2491 2742 2702 
Q 2975 2913 2975 3322 
Q 2975 3731 2742 3939 
Q 2509 4147 2053 4147 
L 1259 4147 
z
" transform="scale(0.015625)"/>
     </defs>
     <use xlink:href="#DejaVuSans-57"/>
     <use xlink:href="#DejaVuSans-46" x="98.876953"/>
     <use xlink:href="#DejaVuSans-52" x="156.396484"/>
    </g>
   </g>
   <g id="text_17">
    <!-- Main-L -->
    <g transform="translate(361.832136 46.970182)scale(0.08 -0.08)">
     <defs>
      <path id="DejaVuSans-4d" d="M 628 4666 
L 1569 4666 
L 2759 1491 
L 3956 4666 
L 4897 4666 
L 4897 0 
L 4281 0 
L 4281 4097 
L 3078 897 
L 2444 897 
L 1241 4097 
L 1241 0 
L 628 0 
L 628 4666 
z
" transform="scale(0.015625)"/>
      <path id="DejaVuSans-2d" d="M 313 2009 
L 1997 2009 
L 1997 1497 
L 313 1497 
L 313 2009 
z
" transform="scale(0.015625)"/>
     </defs>
     <use xlink:href="#DejaVuSans-4d"/>
     <use xlink:href="#DejaVuSans-61" x="86.279297"/>
     <use xlink:href="#DejaVuSans-69" x="147.558594"/>
     <use xlink:href="#DejaVuSans-6e" x="175.341797"/>
     <use xlink:href="#DejaVuSans-2d" x="238.720703"/>
     <use xlink:href="#DejaVuSans-4c" x="274.804688"/>
    </g>
   </g>
   <g id="text_18">
    <!-- Main-R -->
    <g transform="translate(361.832136 137.467657)scale(0.08 -0.08)">
     <use xlink:href="#DejaVuSans-4d"/>
     <use xlink:href="#DejaVuSans-61" x="86.279297"/>
     <use xlink:href="#DejaVuSans-69" x="147.558594"/>
     <use xlink:href="#DejaVuSans-6e" x="175.341797"/>
     <use xlink:href="#DejaVuSans-2d" x="238.720703"/>
     <use xlink:href="#DejaVuSans-52" x="274.804688"/>
    </g>
   </g>
   <g id="text_19">
    <!-- AFL -->
    <g transform="translate(361.832136 120.632286)scale(0.08 -0.08)">
     <defs>
      <path id="DejaVuSans-41" d="M 2188 4044 
L 1331 1722 
L 3047 1722 
L 2188 4044 
z
M 1831 4666 
L 2547 4666 
L 4325 0 
L 3669 0 
L 3244 1197 
L 1141 1197 
L 716 0 
L 50 0 
L 1831 4666 
z
" transform="scale(0.015625)"/>
     </defs>
     <use xlink:href="#DejaVuSans-41"/>
     <use xlink:href="#DejaVuSans-46" x="68.408203"/>
     <use xlink:href="#DejaVuSans-4c" x="125.927734"/>
    </g>
   </g>
   <g id="text_20">
    <!-- AFR -->
    <g transform="translate(361.832136 80.985533)scale(0.08 -0.08)">
     <use xlink:href="#DejaVuSans-41"/>
     <use xlink:href="#DejaVuSans-46" x="68.408203"/>
     <use xlink:href="#DejaVuSans-52" x="125.927734"/>
    </g>
   </g>
   <g id="text_21">
    <!-- Nonfinal -->
    <g transform="translate(361.832136 120.985299)scale(0.08 -0.08)">
     <defs>
      <path id="DejaVuSans-4e" d="M 628 4666 
L 1478 4666 
L 3547 763 
L 3547 4666 
L 4159 4666 
L 4159 0 
L 3309 0 
L 1241 3903 
L 1241 0 
L 628 0 
L 628 4666 
z
" transform="scale(0.015625)"/>
      <path id="DejaVuSans-66" d="M 2375 4863 
L 2375 4384 
L 1825 4384 
Q 1516 4384 1395 4259 
Q 1275 4134 1275 3809 
L 1275 3500 
L 2222 3500 
L 2222 3053 
L 1275 3053 
L 1275 0 
L 697 0 
L 697 3053 
L 147 3053 
L 147 3500 
L 697 3500 
L 697 3744 
Q 697 4328 969 4595 
Q 1241 4863 1831 4863 
L 2375 4863 
z
" transform="scale(0.015625)"/>
      <path id="DejaVuSans-6c" d="M 603 4863 
L 1178 4863 
L 1178 0 
L 603 0 
L 603 4863 
z
" transform="scale(0.015625)"/>
     </defs>
     <use xlink:href="#DejaVuSans-4e"/>
     <use xlink:href="#DejaVuSans-6f" x="74.804688"/>
     <use xlink:href="#DejaVuSans-6e" x="135.986328"/>
     <use xlink:href="#DejaVuSans-66" x="199.365234"/>
     <use xlink:href="#DejaVuSans-69" x="234.570312"/>
     <use xlink:href="#DejaVuSans-6e" x="262.353516"/>
     <use xlink:href="#DejaVuSans-61" x="325.732422"/>
     <use xlink:href="#DejaVuSans-6c" x="387.011719"/>
    </g>
   </g>
   <g id="text_22">
    <!-- Trochaic -->
    <g transform="translate(361.832136 80.103)scale(0.08 -0.08)">
     <defs>
      <path id="DejaVuSans-54" d="M -19 4666 
L 3928 4666 
L 3928 4134 
L 2272 4134 
L 2272 0 
L 1638 0 
L 1638 4134 
L -19 4134 
L -19 4666 
z
" transform="scale(0.015625)"/>
      <path id="DejaVuSans-68" d="M 3513 2113 
L 3513 0 
L 2938 0 
L 2938 2094 
Q 2938 2591 2744 2837 
Q 2550 3084 2163 3084 
Q 1697 3084 1428 2787 
Q 1159 2491 1159 1978 
L 1159 0 
L 581 0 
L 581 4863 
L 1159 4863 
L 1159 2956 
Q 1366 3272 1645 3428 
Q 1925 3584 2291 3584 
Q 2894 3584 3203 3211 
Q 3513 2838 3513 2113 
z
" transform="scale(0.015625)"/>
     </defs>
     <use xlink:href="#DejaVuSans-54"/>
     <use xlink:href="#DejaVuSans-72" x="46.333984"/>
     <use xlink:href="#DejaVuSans-6f" x="85.197266"/>
     <use xlink:href="#DejaVuSans-63" x="146.378906"/>
     <use xlink:href="#DejaVuSans-68" x="201.359375"/>
     <use xlink:href="#DejaVuSans-61" x="264.738281"/>
     <use xlink:href="#DejaVuSans-69" x="326.017578"/>
     <use xlink:href="#DejaVuSans-63" x="353.800781"/>
    </g>
   </g>
  </g>
  <g id="axes_2">
   <g id="patch_7">
    <path d="M 57.6 307.584 
L 414.72 307.584 
L 414.72 186.624 
L 57.6 186.624 
z
" style="fill: #ffffff"/>
   </g>
   <g id="matplotlib.axis_3">
    <g id="xtick_8">
     <g id="line2d_23">
      <g>
       <use xlink:href="#m45a66405ca" x="70.519926" y="307.584" style="stroke: #000000; stroke-width: 0.8"/>
      </g>
     </g>
     <g id="text_23">
      <!-- 0 -->
      <g transform="translate(67.338676 322.182437)scale(0.1 -0.1)">
       <use xlink:href="#DejaVuSans-30"/>
      </g>
     </g>
    </g>
    <g id="xtick_9">
     <g id="line2d_24">
      <g>
       <use xlink:href="#m45a66405ca" x="136.775955" y="307.584" style="stroke: #000000; stroke-width: 0.8"/>
      </g>
     </g>
     <g id="text_24">
      <!-- 20 -->
      <g transform="translate(130.413455 322.182437)scale(0.1 -0.1)">
       <use xlink:href="#DejaVuSans-32"/>
       <use xlink:href="#DejaVuSans-30" x="63.623047"/>
      </g>
     </g>
    </g>
    <g id="xtick_10">
     <g id="line2d_25">
      <g>
       <use xlink:href="#m45a66405ca" x="203.031985" y="307.584" style="stroke: #000000; stroke-width: 0.8"/>
      </g>
     </g>
     <g id="text_25">
      <!-- 40 -->
      <g transform="translate(196.669485 322.182437)scale(0.1 -0.1)">
       <use xlink:href="#DejaVuSans-34"/>
       <use xlink:href="#DejaVuSans-30" x="63.623047"/>
      </g>
     </g>
    </g>
    <g id="xtick_11">
     <g id="line2d_26">
      <g>
       <use xlink:href="#m45a66405ca" x="269.288015" y="307.584" style="stroke: #000000; stroke-width: 0.8"/>
      </g>
     </g>
     <g id="text_26">
      <!-- 60 -->
      <g transform="translate(262.925515 322.182437)scale(0.1 -0.1)">
       <use xlink:href="#DejaVuSans-36"/>
       <use xlink:href="#DejaVuSans-30" x="63.623047"/>
      </g>
     </g>
    </g>
    <g id="xtick_12">
     <g id="line2d_27">
      <g>
       <use xlink:href="#m45a66405ca" x="335.544045" y="307.584" style="stroke: #000000; stroke-width: 0.8"/>
      </g>
     </g>
     <g id="text_27">
      <!-- 80 -->
      <g transform="translate(329.181545 322.182437)scale(0.1 -0.1)">
       <use xlink:href="#DejaVuSans-38"/>
       <use xlink:href="#DejaVuSans-30" x="63.623047"/>
      </g>
     </g>
    </g>
    <g id="xtick_13">
     <g id="line2d_28">
      <g>
       <use xlink:href="#m45a66405ca" x="401.800074" y="307.584" style="stroke: #000000; stroke-width: 0.8"/>
      </g>
     </g>
     <g id="text_28">
      <!-- 100 -->
      <g transform="translate(392.256324 322.182437)scale(0.1 -0.1)">
       <use xlink:href="#DejaVuSans-31"/>
       <use xlink:href="#DejaVuSans-30" x="63.623047"/>
       <use xlink:href="#DejaVuSans-30" x="127.246094"/>
      </g>
     </g>
    </g>
   </g>
   <g id="matplotlib.axis_4">
    <g id="ytick_4">
     <g id="line2d_29">
      <g>
       <use xlink:href="#mc0c81d1b7e" x="57.6" y="302.091698" style="stroke: #000000; stroke-width: 0.8"/>
      </g>
     </g>
     <g id="text_29">
      <!-- 0 -->
      <g transform="translate(44.2375 305.890917)scale(0.1 -0.1)">
       <use xlink:href="#DejaVuSans-30"/>
      </g>
     </g>
    </g>
    <g id="ytick_5">
     <g id="line2d_30">
      <g>
       <use xlink:href="#mc0c81d1b7e" x="57.6" y="272.691229" style="stroke: #000000; stroke-width: 0.8"/>
      </g>
     </g>
     <g id="text_30">
      <!-- 5000 -->
      <g transform="translate(25.15 276.490447)scale(0.1 -0.1)">
       <use xlink:href="#DejaVuSans-35"/>
       <use xlink:href="#DejaVuSans-30" x="63.623047"/>
       <use xlink:href="#DejaVuSans-30" x="127.246094"/>
       <use xlink:href="#DejaVuSans-30" x="190.869141"/>
      </g>
     </g>
    </g>
    <g id="ytick_6">
     <g id="line2d_31">
      <g>
       <use xlink:href="#mc0c81d1b7e" x="57.6" y="243.290759" style="stroke: #000000; stroke-width: 0.8"/>
      </g>
     </g>
     <g id="text_31">
      <!-- 10000 -->
      <g transform="translate(18.7875 247.089978)scale(0.1 -0.1)">
       <use xlink:href="#DejaVuSans-31"/>
       <use xlink:href="#DejaVuSans-30" x="63.623047"/>
       <use xlink:href="#DejaVuSans-30" x="127.246094"/>
       <use xlink:href="#DejaVuSans-30" x="190.869141"/>
       <use xlink:href="#DejaVuSans-30" x="254.492188"/>
      </g>
     </g>
    </g>
    <g id="ytick_7">
     <g id="line2d_32">
      <g>
       <use xlink:href="#mc0c81d1b7e" x="57.6" y="213.89029" style="stroke: #000000; stroke-width: 0.8"/>
      </g>
     </g>
     <g id="text_32">
      <!-- 15000 -->
      <g transform="translate(18.7875 217.689508)scale(0.1 -0.1)">
       <use xlink:href="#DejaVuSans-31"/>
       <use xlink:href="#DejaVuSans-35" x="63.623047"/>
       <use xlink:href="#DejaVuSans-30" x="127.246094"/>
       <use xlink:href="#DejaVuSans-30" x="190.869141"/>
       <use xlink:href="#DejaVuSans-30" x="254.492188"/>
      </g>
     </g>
    </g>
   </g>
   <g id="line2d_33">
    <path d="M 73.832727 302.085818 
L 77.145529 302.085818 
L 80.45833 302.085818 
L 83.771132 302.085818 
L 87.083933 302.085818 
L 90.396735 302.085818 
L 93.709536 302.085818 
L 97.022338 302.085818 
L 100.335139 302.085818 
L 103.647941 302.085818 
L 106.960742 302.085818 
L 110.273544 302.085818 
L 113.586345 302.085818 
L 116.899147 302.085818 
L 120.211948 302.079938 
L 123.52475 302.085818 
L 126.837551 302.085818 
L 130.150353 302.085818 
L 133.463154 302.079938 
L 136.775955 302.079938 
L 140.088757 302.085818 
L 143.401558 302.085818 
L 146.71436 302.085818 
L 150.027161 302.068178 
L 153.339963 302.085818 
L 156.652764 302.032897 
L 159.965566 302.085818 
L 163.278367 302.074058 
L 166.591169 302.085818 
L 169.90397 301.991737 
L 173.216772 302.074058 
L 176.529573 302.079938 
L 179.842375 302.044658 
L 183.155176 302.038777 
L 186.467978 302.085818 
L 189.780779 302.015257 
L 193.093581 302.085818 
L 196.406382 301.932936 
L 199.719184 302.050538 
L 203.031985 302.085818 
L 206.344787 301.991737 
L 209.657588 302.085818 
L 212.97039 301.680092 
L 216.283191 302.032897 
L 219.595993 302.074058 
L 222.908794 302.038777 
L 226.221596 301.950576 
L 229.534397 302.085818 
L 232.847199 301.927056 
L 236.16 302.074058 
L 239.472801 301.674212 
L 242.785603 302.038777 
L 246.098404 301.468408 
L 249.411206 302.050538 
L 252.724007 302.074058 
L 256.036809 301.844734 
L 259.34961 301.897655 
L 262.662412 301.444888 
L 265.975213 302.062298 
L 269.288015 302.027017 
L 272.600816 301.709492 
L 275.913618 301.785933 
L 279.226419 301.174404 
L 282.539221 302.056418 
L 285.852022 302.056418 
L 289.164824 301.321406 
L 292.477625 301.021521 
L 295.790427 301.509569 
L 299.103228 301.433128 
L 302.41603 300.786317 
L 305.728831 302.021137 
L 309.041633 301.927056 
L 312.354434 301.480169 
L 315.667236 301.162643 
L 318.980037 300.798078 
L 322.292839 298.734165 
L 325.60564 300.615795 
L 328.918442 301.850614 
L 332.231243 298.516601 
L 335.544045 297.028937 
L 338.856846 301.080322 
L 342.169647 301.721252 
L 345.482449 300.668716 
L 348.79525 296.905455 
L 352.108052 289.05553 
L 355.420853 295.32371 
L 358.733655 295.647115 
L 362.046456 294.594579 
L 365.359258 282.81675 
L 368.672059 292.871711 
L 371.984861 299.921944 
L 375.297662 301.344926 
L 378.610464 292.995193 
L 381.923265 290.972441 
L 385.236067 300.357071 
L 388.548868 261.50729 
L 391.86167 192.122182 
L 395.174471 278.171476 
L 398.487273 254.02193 
" clip-path="url(#p379d1e4813)" style="fill: none; stroke: #1f77b4; stroke-width: 1.5; stroke-linecap: square"/>
   </g>
   <g id="patch_8">
    <path d="M 57.6 307.584 
L 57.6 186.624 
" style="fill: none; stroke: #000000; stroke-width: 0.8; stroke-linejoin: miter; stroke-linecap: square"/>
   </g>
   <g id="patch_9">
    <path d="M 414.72 307.584 
L 414.72 186.624 
" style="fill: none; stroke: #000000; stroke-width: 0.8; stroke-linejoin: miter; stroke-linecap: square"/>
   </g>
   <g id="patch_10">
    <path d="M 57.6 307.584 
L 414.72 307.584 
" style="fill: none; stroke: #000000; stroke-width: 0.8; stroke-linejoin: miter; stroke-linecap: square"/>
   </g>
   <g id="patch_11">
    <path d="M 57.6 186.624 
L 414.72 186.624 
" style="fill: none; stroke: #000000; stroke-width: 0.8; stroke-linejoin: miter; stroke-linecap: square"/>
   </g>
  </g>
 </g>
 <defs>
  <clipPath id="pae1f4969d4">
   <rect x="57.6" y="41.472" width="357.12" height="120.96"/>
  </clipPath>
  <clipPath id="p379d1e4813">
   <rect x="57.6" y="186.624" width="357.12" height="120.96"/>
  </clipPath>
 </defs>
</svg>
