<?xml version="1.0" encoding="utf-8" standalone="no"?>
<!DOCTYPE svg PUBLIC "-//W3C//DTD SVG 1.1//EN"
  "http://www.w3.org/Graphics/SVG/1.1/DTD/svg11.dtd">
<svg xmlns:xlink="http://www.w3.org/1999/xlink" width="460.8pt" height="345.6pt" viewBox="0 0 460.8 345.6" xmlns="http://www.w3.org/2000/svg" version="1.1">
 <metadata>
  <rdf:RDF xmlns:dc="http://purl.org/dc/elements/1.1/" xmlns:cc="http://creativecommons.org/ns#" xmlns:rdf="http://www.w3.org/1999/02/22-rdf-syntax-ns#">
   <cc:Work>
    <dc:type rdf:resource="http://purl.org/dc/dcmitype/StillImage"/>
    <dc:date>2022-05-14T03:33:36.446498</dc:date>
    <dc:format>image/svg+xml</dc:format>
    <dc:creator>
     <cc:Agent>
      <dc:title>Matplotlib v3.5.1, https://matplotlib.org/</dc:title>
     </cc:Agent>
    </dc:creator>
   </cc:Work>
  </rdf:RDF>
 </metadata>
 <defs>
  <style type="text/css">*{stroke-linejoin: round; stroke-linecap: butt}</style>
 </defs>
 <g id="figure_1">
  <g id="patch_1">
   <path d="M 0 345.6 
L 460.8 345.6 
L 460.8 0 
L 0 0 
z
" style="fill: #ffffff"/>
  </g>
  <g id="axes_1">
   <g id="patch_2">
    <path d="M 57.6 162.432 
L 414.72 162.432 
L 414.72 41.472 
L 57.6 41.472 
z
" style="fill: #ffffff"/>
   </g>
   <g id="matplotlib.axis_1">
    <g id="xtick_1">
     <g id="line2d_1">
      <defs>
       <path id="mc1a44e241a" d="M 0 0 
L 0 3.5 
" style="stroke: #000000; stroke-width: 0.8"/>
      </defs>
      <g>
       <use xlink:href="#mc1a44e241a" x="73.827491" y="162.432" style="stroke: #000000; stroke-width: 0.8"/>
      </g>
     </g>
     <g id="text_1">
      <!-- 0 -->
      <g transform="translate(70.646241 177.030437)scale(0.1 -0.1)">
       <defs>
        <path id="DejaVuSans-30" d="M 2034 4250 
Q 1547 4250 1301 3770 
Q 1056 3291 1056 2328 
Q 1056 1369 1301 889 
Q 1547 409 2034 409 
Q 2525 409 2770 889 
Q 3016 1369 3016 2328 
Q 3016 3291 2770 3770 
Q 2525 4250 2034 4250 
z
M 2034 4750 
Q 2819 4750 3233 4129 
Q 3647 3509 3647 2328 
Q 3647 1150 3233 529 
Q 2819 -91 2034 -91 
Q 1250 -91 836 529 
Q 422 1150 422 2328 
Q 422 3509 836 4129 
Q 1250 4750 2034 4750 
z
" transform="scale(0.015625)"/>
       </defs>
       <use xlink:href="#DejaVuSans-30"/>
      </g>
     </g>
    </g>
    <g id="xtick_2">
     <g id="line2d_2">
      <g>
       <use xlink:href="#mc1a44e241a" x="126.191972" y="162.432" style="stroke: #000000; stroke-width: 0.8"/>
      </g>
     </g>
     <g id="text_2">
      <!-- 10000 -->
      <g transform="translate(110.285722 177.030437)scale(0.1 -0.1)">
       <defs>
        <path id="DejaVuSans-31" d="M 794 531 
L 1825 531 
L 1825 4091 
L 703 3866 
L 703 4441 
L 1819 4666 
L 2450 4666 
L 2450 531 
L 3481 531 
L 3481 0 
L 794 0 
L 794 531 
z
" transform="scale(0.015625)"/>
       </defs>
       <use xlink:href="#DejaVuSans-31"/>
       <use xlink:href="#DejaVuSans-30" x="63.623047"/>
       <use xlink:href="#DejaVuSans-30" x="127.246094"/>
       <use xlink:href="#DejaVuSans-30" x="190.869141"/>
       <use xlink:href="#DejaVuSans-30" x="254.492188"/>
      </g>
     </g>
    </g>
    <g id="xtick_3">
     <g id="line2d_3">
      <g>
       <use xlink:href="#mc1a44e241a" x="178.556453" y="162.432" style="stroke: #000000; stroke-width: 0.8"/>
      </g>
     </g>
     <g id="text_3">
      <!-- 20000 -->
      <g transform="translate(162.650203 177.030437)scale(0.1 -0.1)">
       <defs>
        <path id="DejaVuSans-32" d="M 1228 531 
L 3431 531 
L 3431 0 
L 469 0 
L 469 531 
Q 828 903 1448 1529 
Q 2069 2156 2228 2338 
Q 2531 2678 2651 2914 
Q 2772 3150 2772 3378 
Q 2772 3750 2511 3984 
Q 2250 4219 1831 4219 
Q 1534 4219 1204 4116 
Q 875 4013 500 3803 
L 500 4441 
Q 881 4594 1212 4672 
Q 1544 4750 1819 4750 
Q 2544 4750 2975 4387 
Q 3406 4025 3406 3419 
Q 3406 3131 3298 2873 
Q 3191 2616 2906 2266 
Q 2828 2175 2409 1742 
Q 1991 1309 1228 531 
z
" transform="scale(0.015625)"/>
       </defs>
       <use xlink:href="#DejaVuSans-32"/>
       <use xlink:href="#DejaVuSans-30" x="63.623047"/>
       <use xlink:href="#DejaVuSans-30" x="127.246094"/>
       <use xlink:href="#DejaVuSans-30" x="190.869141"/>
       <use xlink:href="#DejaVuSans-30" x="254.492188"/>
      </g>
     </g>
    </g>
    <g id="xtick_4">
     <g id="line2d_4">
      <g>
       <use xlink:href="#mc1a44e241a" x="230.920934" y="162.432" style="stroke: #000000; stroke-width: 0.8"/>
      </g>
     </g>
     <g id="text_4">
      <!-- 30000 -->
      <g transform="translate(215.014684 177.030437)scale(0.1 -0.1)">
       <defs>
        <path id="DejaVuSans-33" d="M 2597 2516 
Q 3050 2419 3304 2112 
Q 3559 1806 3559 1356 
Q 3559 666 3084 287 
Q 2609 -91 1734 -91 
Q 1441 -91 1130 -33 
Q 819 25 488 141 
L 488 750 
Q 750 597 1062 519 
Q 1375 441 1716 441 
Q 2309 441 2620 675 
Q 2931 909 2931 1356 
Q 2931 1769 2642 2001 
Q 2353 2234 1838 2234 
L 1294 2234 
L 1294 2753 
L 1863 2753 
Q 2328 2753 2575 2939 
Q 2822 3125 2822 3475 
Q 2822 3834 2567 4026 
Q 2313 4219 1838 4219 
Q 1578 4219 1281 4162 
Q 984 4106 628 3988 
L 628 4550 
Q 988 4650 1302 4700 
Q 1616 4750 1894 4750 
Q 2613 4750 3031 4423 
Q 3450 4097 3450 3541 
Q 3450 3153 3228 2886 
Q 3006 2619 2597 2516 
z
" transform="scale(0.015625)"/>
       </defs>
       <use xlink:href="#DejaVuSans-33"/>
       <use xlink:href="#DejaVuSans-30" x="63.623047"/>
       <use xlink:href="#DejaVuSans-30" x="127.246094"/>
       <use xlink:href="#DejaVuSans-30" x="190.869141"/>
       <use xlink:href="#DejaVuSans-30" x="254.492188"/>
      </g>
     </g>
    </g>
    <g id="xtick_5">
     <g id="line2d_5">
      <g>
       <use xlink:href="#mc1a44e241a" x="283.285415" y="162.432" style="stroke: #000000; stroke-width: 0.8"/>
      </g>
     </g>
     <g id="text_5">
      <!-- 40000 -->
      <g transform="translate(267.379165 177.030437)scale(0.1 -0.1)">
       <defs>
        <path id="DejaVuSans-34" d="M 2419 4116 
L 825 1625 
L 2419 1625 
L 2419 4116 
z
M 2253 4666 
L 3047 4666 
L 3047 1625 
L 3713 1625 
L 3713 1100 
L 3047 1100 
L 3047 0 
L 2419 0 
L 2419 1100 
L 313 1100 
L 313 1709 
L 2253 4666 
z
" transform="scale(0.015625)"/>
       </defs>
       <use xlink:href="#DejaVuSans-34"/>
       <use xlink:href="#DejaVuSans-30" x="63.623047"/>
       <use xlink:href="#DejaVuSans-30" x="127.246094"/>
       <use xlink:href="#DejaVuSans-30" x="190.869141"/>
       <use xlink:href="#DejaVuSans-30" x="254.492188"/>
      </g>
     </g>
    </g>
    <g id="xtick_6">
     <g id="line2d_6">
      <g>
       <use xlink:href="#mc1a44e241a" x="335.649896" y="162.432" style="stroke: #000000; stroke-width: 0.8"/>
      </g>
     </g>
     <g id="text_6">
      <!-- 50000 -->
      <g transform="translate(319.743646 177.030437)scale(0.1 -0.1)">
       <defs>
        <path id="DejaVuSans-35" d="M 691 4666 
L 3169 4666 
L 3169 4134 
L 1269 4134 
L 1269 2991 
Q 1406 3038 1543 3061 
Q 1681 3084 1819 3084 
Q 2600 3084 3056 2656 
Q 3513 2228 3513 1497 
Q 3513 744 3044 326 
Q 2575 -91 1722 -91 
Q 1428 -91 1123 -41 
Q 819 9 494 109 
L 494 744 
Q 775 591 1075 516 
Q 1375 441 1709 441 
Q 2250 441 2565 725 
Q 2881 1009 2881 1497 
Q 2881 1984 2565 2268 
Q 2250 2553 1709 2553 
Q 1456 2553 1204 2497 
Q 953 2441 691 2322 
L 691 4666 
z
" transform="scale(0.015625)"/>
       </defs>
       <use xlink:href="#DejaVuSans-35"/>
       <use xlink:href="#DejaVuSans-30" x="63.623047"/>
       <use xlink:href="#DejaVuSans-30" x="127.246094"/>
       <use xlink:href="#DejaVuSans-30" x="190.869141"/>
       <use xlink:href="#DejaVuSans-30" x="254.492188"/>
      </g>
     </g>
    </g>
    <g id="xtick_7">
     <g id="line2d_7">
      <g>
       <use xlink:href="#mc1a44e241a" x="388.014377" y="162.432" style="stroke: #000000; stroke-width: 0.8"/>
      </g>
     </g>
     <g id="text_7">
      <!-- 60000 -->
      <g transform="translate(372.108127 177.030437)scale(0.1 -0.1)">
       <defs>
        <path id="DejaVuSans-36" d="M 2113 2584 
Q 1688 2584 1439 2293 
Q 1191 2003 1191 1497 
Q 1191 994 1439 701 
Q 1688 409 2113 409 
Q 2538 409 2786 701 
Q 3034 994 3034 1497 
Q 3034 2003 2786 2293 
Q 2538 2584 2113 2584 
z
M 3366 4563 
L 3366 3988 
Q 3128 4100 2886 4159 
Q 2644 4219 2406 4219 
Q 1781 4219 1451 3797 
Q 1122 3375 1075 2522 
Q 1259 2794 1537 2939 
Q 1816 3084 2150 3084 
Q 2853 3084 3261 2657 
Q 3669 2231 3669 1497 
Q 3669 778 3244 343 
Q 2819 -91 2113 -91 
Q 1303 -91 875 529 
Q 447 1150 447 2328 
Q 447 3434 972 4092 
Q 1497 4750 2381 4750 
Q 2619 4750 2861 4703 
Q 3103 4656 3366 4563 
z
" transform="scale(0.015625)"/>
       </defs>
       <use xlink:href="#DejaVuSans-36"/>
       <use xlink:href="#DejaVuSans-30" x="63.623047"/>
       <use xlink:href="#DejaVuSans-30" x="127.246094"/>
       <use xlink:href="#DejaVuSans-30" x="190.869141"/>
       <use xlink:href="#DejaVuSans-30" x="254.492188"/>
      </g>
     </g>
    </g>
   </g>
   <g id="matplotlib.axis_2">
    <g id="ytick_1">
     <g id="line2d_8">
      <defs>
       <path id="m2ad4f4261e" d="M 0 0 
L -3.5 0 
" style="stroke: #000000; stroke-width: 0.8"/>
      </defs>
      <g>
       <use xlink:href="#m2ad4f4261e" x="57.6" y="147.015529" style="stroke: #000000; stroke-width: 0.8"/>
      </g>
     </g>
     <g id="text_8">
      <!-- 70 -->
      <g transform="translate(37.875 150.814748)scale(0.1 -0.1)">
       <defs>
        <path id="DejaVuSans-37" d="M 525 4666 
L 3525 4666 
L 3525 4397 
L 1831 0 
L 1172 0 
L 2766 4134 
L 525 4134 
L 525 4666 
z
" transform="scale(0.015625)"/>
       </defs>
       <use xlink:href="#DejaVuSans-37"/>
       <use xlink:href="#DejaVuSans-30" x="63.623047"/>
      </g>
     </g>
    </g>
    <g id="ytick_2">
     <g id="line2d_9">
      <g>
       <use xlink:href="#m2ad4f4261e" x="57.6" y="121.141733" style="stroke: #000000; stroke-width: 0.8"/>
      </g>
     </g>
     <g id="text_9">
      <!-- 80 -->
      <g transform="translate(37.875 124.940951)scale(0.1 -0.1)">
       <defs>
        <path id="DejaVuSans-38" d="M 2034 2216 
Q 1584 2216 1326 1975 
Q 1069 1734 1069 1313 
Q 1069 891 1326 650 
Q 1584 409 2034 409 
Q 2484 409 2743 651 
Q 3003 894 3003 1313 
Q 3003 1734 2745 1975 
Q 2488 2216 2034 2216 
z
M 1403 2484 
Q 997 2584 770 2862 
Q 544 3141 544 3541 
Q 544 4100 942 4425 
Q 1341 4750 2034 4750 
Q 2731 4750 3128 4425 
Q 3525 4100 3525 3541 
Q 3525 3141 3298 2862 
Q 3072 2584 2669 2484 
Q 3125 2378 3379 2068 
Q 3634 1759 3634 1313 
Q 3634 634 3220 271 
Q 2806 -91 2034 -91 
Q 1263 -91 848 271 
Q 434 634 434 1313 
Q 434 1759 690 2068 
Q 947 2378 1403 2484 
z
M 1172 3481 
Q 1172 3119 1398 2916 
Q 1625 2713 2034 2713 
Q 2441 2713 2670 2916 
Q 2900 3119 2900 3481 
Q 2900 3844 2670 4047 
Q 2441 4250 2034 4250 
Q 1625 4250 1398 4047 
Q 1172 3844 1172 3481 
z
" transform="scale(0.015625)"/>
       </defs>
       <use xlink:href="#DejaVuSans-38"/>
       <use xlink:href="#DejaVuSans-30" x="63.623047"/>
      </g>
     </g>
    </g>
    <g id="ytick_3">
     <g id="line2d_10">
      <g>
       <use xlink:href="#m2ad4f4261e" x="57.6" y="95.267936" style="stroke: #000000; stroke-width: 0.8"/>
      </g>
     </g>
     <g id="text_10">
      <!-- 90 -->
      <g transform="translate(37.875 99.067155)scale(0.1 -0.1)">
       <defs>
        <path id="DejaVuSans-39" d="M 703 97 
L 703 672 
Q 941 559 1184 500 
Q 1428 441 1663 441 
Q 2288 441 2617 861 
Q 2947 1281 2994 2138 
Q 2813 1869 2534 1725 
Q 2256 1581 1919 1581 
Q 1219 1581 811 2004 
Q 403 2428 403 3163 
Q 403 3881 828 4315 
Q 1253 4750 1959 4750 
Q 2769 4750 3195 4129 
Q 3622 3509 3622 2328 
Q 3622 1225 3098 567 
Q 2575 -91 1691 -91 
Q 1453 -91 1209 -44 
Q 966 3 703 97 
z
M 1959 2075 
Q 2384 2075 2632 2365 
Q 2881 2656 2881 3163 
Q 2881 3666 2632 3958 
Q 2384 4250 1959 4250 
Q 1534 4250 1286 3958 
Q 1038 3666 1038 3163 
Q 1038 2656 1286 2365 
Q 1534 2075 1959 2075 
z
" transform="scale(0.015625)"/>
       </defs>
       <use xlink:href="#DejaVuSans-39"/>
       <use xlink:href="#DejaVuSans-30" x="63.623047"/>
      </g>
     </g>
    </g>
    <g id="ytick_4">
     <g id="line2d_11">
      <g>
       <use xlink:href="#m2ad4f4261e" x="57.6" y="69.394139" style="stroke: #000000; stroke-width: 0.8"/>
      </g>
     </g>
     <g id="text_11">
      <!-- 100 -->
      <g transform="translate(31.5125 73.193358)scale(0.1 -0.1)">
       <use xlink:href="#DejaVuSans-31"/>
       <use xlink:href="#DejaVuSans-30" x="63.623047"/>
       <use xlink:href="#DejaVuSans-30" x="127.246094"/>
      </g>
     </g>
    </g>
    <g id="ytick_5">
     <g id="line2d_12">
      <g>
       <use xlink:href="#m2ad4f4261e" x="57.6" y="43.520342" style="stroke: #000000; stroke-width: 0.8"/>
      </g>
     </g>
     <g id="text_12">
      <!-- 110 -->
      <g transform="translate(31.5125 47.319561)scale(0.1 -0.1)">
       <use xlink:href="#DejaVuSans-31"/>
       <use xlink:href="#DejaVuSans-31" x="63.623047"/>
       <use xlink:href="#DejaVuSans-30" x="127.246094"/>
      </g>
     </g>
    </g>
   </g>
   <g id="line2d_13">
    <path d="M 73.832727 71.981519 
L 73.869382 71.334674 
L 73.963638 82.115422 
L 73.968875 82.115422 
L 74.000294 80.174888 
L 74.042185 88.368257 
L 74.052658 88.368257 
L 74.057895 88.368257 
L 74.194042 101.305155 
L 74.214988 101.305155 
L 74.340663 109.067294 
L 74.393027 109.067294 
L 74.513466 114.242053 
L 74.602485 114.242053 
L 74.717687 112.948364 
L 74.738633 112.948364 
L 74.864308 110.576599 
L 74.895726 110.576599 
L 75.010928 113.163979 
L 75.304169 113.163979 
L 75.424607 111.439059 
L 75.681193 111.439059 
L 75.796395 114.026439 
L 76.293858 114.026439 
L 76.40906 113.379594 
L 76.613281 113.379594 
L 76.728483 115.966973 
L 76.88034 115.966973 
L 76.995542 118.554353 
L 77.257364 118.554353 
L 77.372566 116.398203 
L 77.419694 116.398203 
L 77.534896 118.985583 
L 77.660571 118.985583 
L 77.781009 124.160342 
L 78.069014 124.160342 
L 78.184216 126.747722 
L 78.545531 126.747722 
L 78.660732 125.885262 
L 81.938749 125.885262 
L 82.053951 128.472642 
L 84.347515 128.472642 
L 84.462717 131.060021 
L 84.865923 131.060021 
L 84.981125 133.647401 
L 89.57349 133.647401 
L 89.688692 136.234781 
L 92.903871 136.234781 
L 93.019073 138.82216 
L 98.883895 138.82216 
L 98.999097 141.40954 
L 122.264636 141.40954 
L 122.379838 143.99692 
L 122.861591 143.99692 
L 122.976793 146.584299 
L 125.532179 146.584299 
L 125.647381 145.72184 
L 138.068236 145.72184 
L 138.183438 144.85938 
L 185.709441 144.85938 
L 185.824643 147.446759 
L 202.219962 147.446759 
L 202.335164 150.034139 
L 210.310274 150.034139 
L 210.425476 149.171679 
L 219.91392 149.171679 
L 220.029122 151.759059 
L 268.539577 151.759059 
L 268.654779 154.346439 
L 382.107663 154.346439 
L 382.222865 156.933818 
L 398.487273 156.933818 
L 398.487273 156.933818 
" clip-path="url(#pd20af8c399)" style="fill: none; stroke: #1f77b4; stroke-width: 1.5; stroke-linecap: square"/>
   </g>
   <g id="line2d_14">
    <path d="M 73.832727 69.394139 
L 73.853673 69.394139 
L 73.874619 74.568898 
L 73.926983 65.51307 
L 73.953166 65.51307 
L 75.675957 65.51307 
L 75.791159 68.100449 
L 76.299094 68.100449 
L 76.414296 70.687829 
L 76.466661 70.687829 
L 76.581863 73.275209 
L 84.07522 73.275209 
L 84.190422 75.862588 
L 99.795037 75.862588 
L 99.910239 78.449968 
L 202.219962 78.449968 
L 202.335164 81.037348 
L 398.487273 81.037348 
L 398.487273 81.037348 
" clip-path="url(#pd20af8c399)" style="fill: none; stroke: #ff7f0e; stroke-width: 1.5; stroke-linecap: square"/>
   </g>
   <g id="line2d_15">
    <path d="M 73.832727 68.100449 
L 73.8432 68.100449 
L 73.984584 64.21938 
L 74.764815 64.21938 
L 74.885253 69.394139 
L 76.299094 69.394139 
L 76.414296 71.981519 
L 76.466661 71.981519 
L 76.581863 71.334674 
L 77.257364 71.334674 
L 77.372566 70.040984 
L 78.466984 70.040984 
L 78.582186 72.628364 
L 84.07522 72.628364 
L 84.190422 71.334674 
L 88.945116 71.334674 
L 89.060318 73.922053 
L 93.64221 73.922053 
L 93.757412 76.509433 
L 95.32311 76.509433 
L 95.438312 73.922053 
L 99.795037 73.922053 
L 99.910239 76.509433 
L 153.924201 76.509433 
L 154.039403 73.922053 
L 398.487273 73.922053 
L 398.487273 73.922053 
" clip-path="url(#pd20af8c399)" style="fill: none; stroke: #2ca02c; stroke-width: 1.5; stroke-linecap: square"/>
   </g>
   <g id="line2d_16">
    <path d="M 73.832727 71.981519 
L 73.853673 71.981519 
L 73.885092 71.334674 
L 73.890328 73.922053 
L 73.93222 73.922053 
L 74.063131 86.212107 
L 74.07884 86.212107 
L 74.146914 85.349647 
L 74.152151 87.937027 
L 74.178333 87.937027 
L 74.209752 87.937027 
L 74.288298 94.405476 
L 74.33019 93.543016 
L 74.4035 93.543016 
L 74.523938 98.717775 
L 74.56583 98.717775 
L 74.586776 97.424086 
L 74.592012 100.011465 
L 74.670559 99.149005 
L 74.738633 99.149005 
L 74.81718 97.639701 
L 74.822416 100.22708 
L 74.838125 100.22708 
L 74.895726 100.22708 
L 74.932381 99.36462 
L 74.937618 101.952 
L 74.995219 101.952 
L 75.304169 101.952 
L 75.419371 101.08954 
L 75.571228 101.08954 
L 75.68643 105.40184 
L 75.963962 105.40184 
L 76.079164 104.53938 
L 76.293858 104.53938 
L 76.40906 103.892535 
L 76.466661 103.892535 
L 76.566153 106.479914 
L 76.576626 105.617455 
L 76.613281 105.617455 
L 76.728483 108.204834 
L 76.88034 108.204834 
L 76.995542 107.342374 
L 77.346384 107.342374 
L 77.461586 106.479914 
L 77.671044 106.479914 
L 77.786246 109.067294 
L 77.833374 109.067294 
L 77.948575 108.204834 
L 77.964285 108.204834 
L 78.069014 110.792214 
L 78.07425 109.929754 
L 78.215634 109.929754 
L 78.330836 109.067294 
L 78.466984 109.067294 
L 78.545531 111.654674 
L 78.576949 110.792214 
L 78.760225 110.792214 
L 78.875427 113.379594 
L 81.938749 113.379594 
L 82.053951 112.517134 
L 84.284678 112.517134 
L 84.347515 115.104513 
L 84.394643 114.242053 
L 84.865923 114.242053 
L 84.981125 116.829433 
L 88.164886 116.829433 
L 88.280088 119.416813 
L 88.86657 119.416813 
L 88.987008 124.591572 
L 89.57349 124.591572 
L 89.688692 123.729112 
L 90.573652 123.729112 
L 90.688854 126.316492 
L 91.531922 126.316492 
L 91.647124 128.903872 
L 93.64221 128.903872 
L 93.757412 131.491251 
L 95.32311 131.491251 
L 95.438312 134.078631 
L 101.036075 134.078631 
L 101.151277 133.216171 
L 122.264636 133.216171 
L 122.379838 132.353711 
L 125.532179 132.353711 
L 125.647381 131.491251 
L 138.068236 131.491251 
L 138.183438 130.628791 
L 151.148883 130.628791 
L 151.264085 129.766332 
L 153.924201 129.766332 
L 154.039403 132.353711 
L 185.709441 132.353711 
L 185.824643 131.491251 
L 219.91392 131.491251 
L 220.029122 130.628791 
L 226.700357 130.628791 
L 226.815558 129.335102 
L 263.821537 129.335102 
L 263.936739 131.922481 
L 288.553281 131.922481 
L 288.668483 134.509861 
L 382.107663 134.509861 
L 382.222865 137.097241 
L 398.487273 137.097241 
L 398.487273 137.097241 
" clip-path="url(#pd20af8c399)" style="fill: none; stroke: #d62728; stroke-width: 1.5; stroke-linecap: square"/>
   </g>
   <g id="line2d_17">
    <path d="M 73.832727 68.100449 
L 76.299094 68.100449 
L 76.414296 70.687829 
L 78.466984 70.687829 
L 78.582186 73.275209 
L 99.795037 73.275209 
L 99.910239 75.862588 
L 398.487273 75.862588 
L 398.487273 75.862588 
" clip-path="url(#pd20af8c399)" style="fill: none; stroke: #9467bd; stroke-width: 1.5; stroke-linecap: square"/>
   </g>
   <g id="line2d_18">
    <path d="M 73.832727 69.394139 
L 73.8432 69.394139 
L 73.958402 68.747294 
L 73.974111 68.747294 
L 74.089313 68.100449 
L 74.125968 68.100449 
L 74.24117 67.237989 
L 76.466661 67.237989 
L 76.581863 66.591144 
L 398.487273 66.591144 
L 398.487273 66.591144 
" clip-path="url(#pd20af8c399)" style="fill: none; stroke: #8c564b; stroke-width: 1.5; stroke-linecap: square"/>
   </g>
   <g id="line2d_19">
    <path d="M 73.832727 71.981519 
L 73.8432 71.119059 
L 73.911274 76.725048 
L 73.91651 79.312428 
L 73.968875 76.509433 
L 74.021239 77.803123 
L 74.026476 77.803123 
L 74.031712 76.940663 
L 74.063131 80.821733 
L 74.120732 79.959273 
L 74.125968 79.959273 
L 74.141678 82.546652 
L 74.220224 77.803123 
L 74.230697 77.803123 
L 74.304008 77.803123 
L 74.424446 75.215743 
L 74.502993 75.215743 
L 74.623431 72.628364 
L 74.738633 72.628364 
L 74.764815 71.981519 
L 74.770051 74.568898 
L 74.843362 73.275209 
L 74.958564 75.862588 
L 75.314642 75.862588 
L 75.429844 75.000128 
L 75.571228 75.000128 
L 75.675957 72.843979 
L 75.791159 75.431358 
L 76.293858 75.431358 
L 76.299094 74.784513 
L 76.304331 77.371893 
L 76.388114 77.371893 
L 76.466661 77.371893 
L 76.581863 79.959273 
L 76.613281 79.959273 
L 76.728483 78.665583 
L 77.283547 78.665583 
L 77.403985 76.940663 
L 77.660571 76.940663 
L 77.775773 75.646973 
L 77.964285 75.646973 
L 78.079487 74.353283 
L 78.466984 74.353283 
L 78.582186 76.940663 
L 79.51951 76.940663 
L 79.634712 75.646973 
L 81.67169 75.646973 
L 81.786892 74.353283 
L 84.07522 74.353283 
L 84.190422 76.940663 
L 84.284678 76.940663 
L 84.39988 75.646973 
L 86.264055 75.646973 
L 86.379257 74.353283 
L 88.86657 74.353283 
L 88.945116 73.059594 
L 88.950353 75.646973 
L 88.971299 75.646973 
L 89.238358 75.646973 
L 89.353559 74.353283 
L 90.301357 74.353283 
L 90.416558 73.059594 
L 90.573652 73.059594 
L 90.688854 75.646973 
L 93.64221 75.646973 
L 93.757412 78.234353 
L 94.411968 78.234353 
L 94.52717 76.940663 
L 99.402303 76.940663 
L 99.517505 75.646973 
L 99.795037 75.646973 
L 99.910239 78.234353 
L 122.861591 78.234353 
L 122.976793 76.940663 
L 202.219962 76.940663 
L 202.335164 79.528043 
L 210.310274 79.528043 
L 210.425476 78.665583 
L 263.821537 78.665583 
L 263.936739 77.371893 
L 288.553281 77.371893 
L 288.668483 76.078203 
L 398.487273 76.078203 
L 398.487273 76.078203 
" clip-path="url(#pd20af8c399)" style="fill: none; stroke: #e377c2; stroke-width: 1.5; stroke-linecap: square"/>
   </g>
   <g id="line2d_20">
    <path d="M 73.832727 69.394139 
L 73.8432 69.394139 
L 74.000294 63.572535 
L 74.031712 63.572535 
L 74.152151 60.122695 
L 74.764815 60.122695 
L 74.885253 57.966545 
L 75.675957 57.966545 
L 75.791159 56.672856 
L 76.299094 56.672856 
L 76.414296 55.379166 
L 76.466661 55.379166 
L 76.581863 54.732321 
L 78.466984 54.732321 
L 78.582186 53.438631 
L 88.945116 53.438631 
L 89.060318 52.144941 
L 90.573652 52.144941 
L 90.688854 50.851251 
L 93.64221 50.851251 
L 93.757412 49.557561 
L 99.795037 49.557561 
L 99.910239 48.263872 
L 202.219962 48.263872 
L 202.335164 46.970182 
L 398.487273 46.970182 
L 398.487273 46.970182 
" clip-path="url(#pd20af8c399)" style="fill: none; stroke: #7f7f7f; stroke-width: 1.5; stroke-linecap: square"/>
   </g>
   <g id="line2d_21">
    <path d="M 73.832727 71.981519 
L 73.837964 71.119059 
L 73.895565 79.528043 
L 73.900801 78.665583 
L 73.911274 78.665583 
L 74.016003 90.093176 
L 74.036949 86.643337 
L 74.07884 85.349647 
L 74.09455 90.524406 
L 74.125968 89.661947 
L 74.157387 93.974246 
L 74.235934 91.386866 
L 74.262116 91.386866 
L 74.288298 96.561626 
L 74.377318 94.405476 
L 74.382554 94.405476 
L 74.4035 91.818096 
L 74.49252 94.405476 
L 74.502993 94.405476 
L 74.56583 93.111786 
L 74.571066 95.699166 
L 74.602485 94.405476 
L 74.618194 96.992856 
L 74.712451 96.130396 
L 74.738633 96.130396 
L 74.790997 95.483551 
L 74.796234 98.07093 
L 74.843362 96.777241 
L 74.864308 96.777241 
L 74.979509 101.08954 
L 75.304169 101.08954 
L 75.314642 103.67692 
L 75.414135 102.81446 
L 75.571228 102.81446 
L 75.670721 100.65831 
L 75.675957 103.24569 
L 75.681193 103.24569 
L 75.796395 105.83307 
L 75.963962 105.83307 
L 76.079164 104.97061 
L 76.293858 104.97061 
L 76.299094 104.323765 
L 76.304331 106.911144 
L 76.388114 106.911144 
L 76.466661 106.911144 
L 76.566153 109.498524 
L 76.576626 108.636064 
L 76.613281 108.636064 
L 76.728483 107.342374 
L 76.88034 107.342374 
L 76.995542 106.479914 
L 77.257364 106.479914 
L 77.283547 109.067294 
L 77.36733 107.342374 
L 77.419694 107.342374 
L 77.540133 112.517134 
L 77.660571 112.517134 
L 77.671044 111.223444 
L 77.67628 113.810824 
L 77.7653 113.810824 
L 77.833374 113.810824 
L 77.948575 112.948364 
L 77.964285 112.948364 
L 78.079487 110.792214 
L 78.215634 110.792214 
L 78.330836 109.929754 
L 78.466984 109.929754 
L 78.587422 115.104513 
L 78.760225 115.104513 
L 78.875427 117.691893 
L 79.51951 117.691893 
L 79.634712 116.398203 
L 81.67169 116.398203 
L 81.786892 115.104513 
L 81.938749 115.104513 
L 82.053951 114.242053 
L 82.169153 114.242053 
L 82.284354 116.829433 
L 84.07522 116.829433 
L 84.190422 119.416813 
L 84.284678 119.416813 
L 84.39988 117.260663 
L 84.865923 117.260663 
L 84.981125 119.848043 
L 86.264055 119.848043 
L 86.379257 118.554353 
L 87.007631 118.554353 
L 87.122833 121.141733 
L 88.164886 121.141733 
L 88.280088 123.729112 
L 88.86657 123.729112 
L 88.945116 122.435422 
L 88.950353 125.022802 
L 88.971299 125.022802 
L 89.238358 125.022802 
L 89.353559 123.729112 
L 89.57349 123.729112 
L 89.688692 122.866652 
L 90.290884 122.866652 
L 90.301357 125.454032 
L 90.400849 124.160342 
L 90.573652 124.160342 
L 90.688854 122.866652 
L 91.531922 122.866652 
L 91.647124 125.454032 
L 92.37499 125.454032 
L 92.490192 128.041412 
L 92.903871 128.041412 
L 93.019073 126.747722 
L 94.411968 126.747722 
L 94.52717 125.454032 
L 95.32311 125.454032 
L 95.438312 128.041412 
L 98.883895 128.041412 
L 98.999097 126.747722 
L 99.402303 126.747722 
L 99.517505 125.454032 
L 99.795037 125.454032 
L 99.910239 128.041412 
L 101.036075 128.041412 
L 101.151277 127.178952 
L 122.264636 127.178952 
L 122.379838 126.316492 
L 122.861591 126.316492 
L 122.976793 125.022802 
L 125.532179 125.022802 
L 125.647381 127.610182 
L 138.068236 127.610182 
L 138.183438 130.197561 
L 151.148883 130.197561 
L 151.264085 129.335102 
L 153.924201 129.335102 
L 154.039403 131.922481 
L 185.709441 131.922481 
L 185.824643 131.060021 
L 210.310274 131.060021 
L 210.425476 130.197561 
L 219.91392 130.197561 
L 220.029122 129.335102 
L 226.700357 129.335102 
L 226.815558 131.922481 
L 263.821537 131.922481 
L 263.936739 130.628791 
L 268.539577 130.628791 
L 268.654779 133.216171 
L 288.553281 133.216171 
L 288.668483 131.922481 
L 382.107663 131.922481 
L 382.222865 134.509861 
L 398.487273 134.509861 
L 398.487273 134.509861 
" clip-path="url(#pd20af8c399)" style="fill: none; stroke: #bcbd22; stroke-width: 1.5; stroke-linecap: square"/>
   </g>
   <g id="line2d_22">
    <path d="M 73.832727 71.981519 
L 73.8432 69.825369 
L 73.890328 76.940663 
L 73.921747 74.784513 
L 73.93222 74.784513 
L 73.963638 71.550289 
L 73.979348 79.312428 
L 74.031712 79.312428 
L 74.068367 84.487187 
L 74.146914 84.055957 
L 74.157387 81.468578 
L 74.173096 86.643337 
L 74.251643 85.349647 
L 74.262116 85.349647 
L 74.304008 80.606118 
L 74.377318 83.193497 
L 74.382554 83.193497 
L 74.393027 85.780877 
L 74.408737 81.899807 
L 74.487283 81.899807 
L 74.502993 81.899807 
L 74.602485 85.780877 
L 74.618194 84.487187 
L 74.733396 83.624727 
L 74.738633 83.624727 
L 74.864308 93.111786 
L 74.984746 87.074567 
L 75.304169 87.074567 
L 75.314642 86.212107 
L 75.319879 88.799487 
L 75.403662 88.799487 
L 75.571228 88.799487 
L 75.670721 93.974246 
L 75.681193 91.386866 
L 75.796395 88.799487 
L 75.963962 88.799487 
L 76.079164 87.937027 
L 76.293858 87.937027 
L 76.40906 90.524406 
L 76.566153 90.524406 
L 76.613281 89.661947 
L 76.618518 92.249326 
L 76.665646 92.249326 
L 76.88034 92.249326 
L 76.995542 91.386866 
L 77.257364 91.386866 
L 77.383039 99.149005 
L 77.419694 99.149005 
L 77.540133 93.974246 
L 77.660571 93.974246 
L 77.671044 96.561626 
L 77.770536 93.974246 
L 77.833374 93.974246 
L 77.948575 93.111786 
L 77.964285 93.111786 
L 78.069014 95.699166 
L 78.07425 94.836706 
L 78.215634 94.836706 
L 78.330836 93.974246 
L 78.466984 93.974246 
L 78.545531 96.561626 
L 78.576949 95.699166 
L 78.760225 95.699166 
L 78.875427 93.111786 
L 79.51951 93.111786 
L 79.634712 95.699166 
L 81.67169 95.699166 
L 81.786892 98.286545 
L 81.938749 98.286545 
L 82.053951 97.424086 
L 82.169153 97.424086 
L 82.284354 94.836706 
L 84.07522 94.836706 
L 84.190422 97.424086 
L 84.284678 97.424086 
L 84.347515 100.011465 
L 84.394643 99.149005 
L 84.865923 99.149005 
L 84.981125 96.561626 
L 86.264055 96.561626 
L 86.379257 99.149005 
L 87.007631 99.149005 
L 87.122833 96.561626 
L 88.164886 96.561626 
L 88.280088 93.974246 
L 88.86657 93.974246 
L 88.981772 96.561626 
L 89.238358 96.561626 
L 89.353559 99.149005 
L 89.57349 99.149005 
L 89.688692 98.286545 
L 90.290884 98.286545 
L 90.301357 95.699166 
L 90.400849 98.286545 
L 90.573652 98.286545 
L 90.688854 100.873925 
L 91.531922 100.873925 
L 91.647124 98.286545 
L 92.37499 98.286545 
L 92.490192 95.699166 
L 92.903871 95.699166 
L 93.019073 94.405476 
L 93.64221 94.405476 
L 93.757412 96.992856 
L 94.411968 96.992856 
L 94.52717 99.580235 
L 95.32311 99.580235 
L 95.438312 102.167615 
L 98.883895 102.167615 
L 98.999097 100.873925 
L 99.402303 100.873925 
L 99.517505 103.461305 
L 101.036075 103.461305 
L 101.151277 102.598845 
L 122.264636 102.598845 
L 122.379838 101.736385 
L 122.861591 101.736385 
L 122.976793 104.323765 
L 125.532179 104.323765 
L 125.647381 103.461305 
L 138.068236 103.461305 
L 138.183438 102.598845 
L 151.148883 102.598845 
L 151.264085 101.736385 
L 153.924201 101.736385 
L 154.039403 104.323765 
L 185.709441 104.323765 
L 185.824643 103.461305 
L 210.310274 103.461305 
L 210.425476 106.048684 
L 219.91392 106.048684 
L 220.029122 105.186225 
L 226.700357 105.186225 
L 226.815558 103.892535 
L 263.821537 103.892535 
L 263.936739 106.479914 
L 268.539577 106.479914 
L 268.654779 103.892535 
L 288.553281 103.892535 
L 288.668483 106.479914 
L 382.107663 106.479914 
L 382.222865 103.892535 
L 398.487273 103.892535 
L 398.487273 103.892535 
" clip-path="url(#pd20af8c399)" style="fill: none; stroke: #17becf; stroke-width: 1.5; stroke-linecap: square"/>
   </g>
   <g id="line2d_23">
    <path d="M 73.832727 69.394139 
L 73.8432 69.394139 
L 73.958402 71.981519 
L 73.974111 71.981519 
L 74.089313 74.568898 
L 74.125968 74.568898 
L 74.24117 77.156278 
L 76.466661 77.156278 
L 76.581863 79.743658 
L 398.487273 79.743658 
L 398.487273 79.743658 
" clip-path="url(#pd20af8c399)" style="fill: none; stroke: #1f77b4; stroke-width: 1.5; stroke-linecap: square"/>
   </g>
   <g id="line2d_24">
    <path d="M 73.832727 69.394139 
L 73.979348 87.505797 
L 74.000294 87.505797 
L 74.120732 92.680556 
L 74.183569 92.680556 
L 74.304008 97.855316 
L 74.393027 97.855316 
L 74.508229 100.442695 
L 74.618194 100.442695 
L 74.733396 103.030075 
L 74.764815 103.030075 
L 74.885253 100.873925 
L 74.895726 100.873925 
L 75.010928 103.461305 
L 75.675957 103.461305 
L 75.791159 102.167615 
L 75.963962 102.167615 
L 76.079164 104.754995 
L 76.299094 104.754995 
L 76.414296 103.461305 
L 76.466661 103.461305 
L 76.566153 102.81446 
L 76.681355 105.40184 
L 76.88034 105.40184 
L 76.995542 107.989219 
L 77.833374 107.989219 
L 77.948575 110.576599 
L 78.069014 110.576599 
L 78.184216 113.163979 
L 78.215634 113.163979 
L 78.330836 115.751358 
L 78.466984 115.751358 
L 78.582186 114.457668 
L 81.938749 114.457668 
L 82.053951 117.045048 
L 84.07522 117.045048 
L 84.190422 115.751358 
L 84.347515 115.751358 
L 84.462717 118.338738 
L 88.945116 118.338738 
L 89.060318 117.045048 
L 89.57349 117.045048 
L 89.688692 119.632428 
L 92.903871 119.632428 
L 93.019073 122.219807 
L 93.64221 122.219807 
L 93.757412 120.926118 
L 98.883895 120.926118 
L 98.999097 123.513497 
L 99.795037 123.513497 
L 99.910239 122.219807 
L 101.036075 122.219807 
L 101.151277 124.807187 
L 122.264636 124.807187 
L 122.379838 127.394567 
L 151.148883 127.394567 
L 151.264085 129.981947 
L 185.709441 129.981947 
L 185.824643 132.569326 
L 202.219962 132.569326 
L 202.335164 131.275636 
L 219.91392 131.275636 
L 220.029122 133.863016 
L 398.487273 133.863016 
L 398.487273 133.863016 
" clip-path="url(#pd20af8c399)" style="fill: none; stroke: #ff7f0e; stroke-width: 1.5; stroke-linecap: square"/>
   </g>
   <g id="patch_3">
    <path d="M 57.6 162.432 
L 57.6 41.472 
" style="fill: none; stroke: #000000; stroke-width: 0.8; stroke-linejoin: miter; stroke-linecap: square"/>
   </g>
   <g id="patch_4">
    <path d="M 414.72 162.432 
L 414.72 41.472 
" style="fill: none; stroke: #000000; stroke-width: 0.8; stroke-linejoin: miter; stroke-linecap: square"/>
   </g>
   <g id="patch_5">
    <path d="M 57.6 162.432 
L 414.72 162.432 
" style="fill: none; stroke: #000000; stroke-width: 0.8; stroke-linejoin: miter; stroke-linecap: square"/>
   </g>
   <g id="patch_6">
    <path d="M 57.6 41.472 
L 414.72 41.472 
" style="fill: none; stroke: #000000; stroke-width: 0.8; stroke-linejoin: miter; stroke-linecap: square"/>
   </g>
   <g id="text_13">
    <!-- WSP -->
    <g transform="translate(361.832136 156.933818)scale(0.08 -0.08)">
     <defs>
      <path id="DejaVuSans-57" d="M 213 4666 
L 850 4666 
L 1831 722 
L 2809 4666 
L 3519 4666 
L 4500 722 
L 5478 4666 
L 6119 4666 
L 4947 0 
L 4153 0 
L 3169 4050 
L 2175 0 
L 1381 0 
L 213 4666 
z
" transform="scale(0.015625)"/>
      <path id="DejaVuSans-53" d="M 3425 4513 
L 3425 3897 
Q 3066 4069 2747 4153 
Q 2428 4238 2131 4238 
Q 1616 4238 1336 4038 
Q 1056 3838 1056 3469 
Q 1056 3159 1242 3001 
Q 1428 2844 1947 2747 
L 2328 2669 
Q 3034 2534 3370 2195 
Q 3706 1856 3706 1288 
Q 3706 609 3251 259 
Q 2797 -91 1919 -91 
Q 1588 -91 1214 -16 
Q 841 59 441 206 
L 441 856 
Q 825 641 1194 531 
Q 1563 422 1919 422 
Q 2459 422 2753 634 
Q 3047 847 3047 1241 
Q 3047 1584 2836 1778 
Q 2625 1972 2144 2069 
L 1759 2144 
Q 1053 2284 737 2584 
Q 422 2884 422 3419 
Q 422 4038 858 4394 
Q 1294 4750 2059 4750 
Q 2388 4750 2728 4690 
Q 3069 4631 3425 4513 
z
" transform="scale(0.015625)"/>
      <path id="DejaVuSans-50" d="M 1259 4147 
L 1259 2394 
L 2053 2394 
Q 2494 2394 2734 2622 
Q 2975 2850 2975 3272 
Q 2975 3691 2734 3919 
Q 2494 4147 2053 4147 
L 1259 4147 
z
M 628 4666 
L 2053 4666 
Q 2838 4666 3239 4311 
Q 3641 3956 3641 3272 
Q 3641 2581 3239 2228 
Q 2838 1875 2053 1875 
L 1259 1875 
L 1259 0 
L 628 0 
L 628 4666 
z
" transform="scale(0.015625)"/>
     </defs>
     <use xlink:href="#DejaVuSans-57"/>
     <use xlink:href="#DejaVuSans-53" x="98.876953"/>
     <use xlink:href="#DejaVuSans-50" x="162.353516"/>
    </g>
   </g>
   <g id="text_14">
    <!-- Iambic -->
    <g transform="translate(361.832136 81.037348)scale(0.08 -0.08)">
     <defs>
      <path id="DejaVuSans-49" d="M 628 4666 
L 1259 4666 
L 1259 0 
L 628 0 
L 628 4666 
z
" transform="scale(0.015625)"/>
      <path id="DejaVuSans-61" d="M 2194 1759 
Q 1497 1759 1228 1600 
Q 959 1441 959 1056 
Q 959 750 1161 570 
Q 1363 391 1709 391 
Q 2188 391 2477 730 
Q 2766 1069 2766 1631 
L 2766 1759 
L 2194 1759 
z
M 3341 1997 
L 3341 0 
L 2766 0 
L 2766 531 
Q 2569 213 2275 61 
Q 1981 -91 1556 -91 
Q 1019 -91 701 211 
Q 384 513 384 1019 
Q 384 1609 779 1909 
Q 1175 2209 1959 2209 
L 2766 2209 
L 2766 2266 
Q 2766 2663 2505 2880 
Q 2244 3097 1772 3097 
Q 1472 3097 1187 3025 
Q 903 2953 641 2809 
L 641 3341 
Q 956 3463 1253 3523 
Q 1550 3584 1831 3584 
Q 2591 3584 2966 3190 
Q 3341 2797 3341 1997 
z
" transform="scale(0.015625)"/>
      <path id="DejaVuSans-6d" d="M 3328 2828 
Q 3544 3216 3844 3400 
Q 4144 3584 4550 3584 
Q 5097 3584 5394 3201 
Q 5691 2819 5691 2113 
L 5691 0 
L 5113 0 
L 5113 2094 
Q 5113 2597 4934 2840 
Q 4756 3084 4391 3084 
Q 3944 3084 3684 2787 
Q 3425 2491 3425 1978 
L 3425 0 
L 2847 0 
L 2847 2094 
Q 2847 2600 2669 2842 
Q 2491 3084 2119 3084 
Q 1678 3084 1418 2786 
Q 1159 2488 1159 1978 
L 1159 0 
L 581 0 
L 581 3500 
L 1159 3500 
L 1159 2956 
Q 1356 3278 1631 3431 
Q 1906 3584 2284 3584 
Q 2666 3584 2933 3390 
Q 3200 3197 3328 2828 
z
" transform="scale(0.015625)"/>
      <path id="DejaVuSans-62" d="M 3116 1747 
Q 3116 2381 2855 2742 
Q 2594 3103 2138 3103 
Q 1681 3103 1420 2742 
Q 1159 2381 1159 1747 
Q 1159 1113 1420 752 
Q 1681 391 2138 391 
Q 2594 391 2855 752 
Q 3116 1113 3116 1747 
z
M 1159 2969 
Q 1341 3281 1617 3432 
Q 1894 3584 2278 3584 
Q 2916 3584 3314 3078 
Q 3713 2572 3713 1747 
Q 3713 922 3314 415 
Q 2916 -91 2278 -91 
Q 1894 -91 1617 61 
Q 1341 213 1159 525 
L 1159 0 
L 581 0 
L 581 4863 
L 1159 4863 
L 1159 2969 
z
" transform="scale(0.015625)"/>
      <path id="DejaVuSans-69" d="M 603 3500 
L 1178 3500 
L 1178 0 
L 603 0 
L 603 3500 
z
M 603 4863 
L 1178 4863 
L 1178 4134 
L 603 4134 
L 603 4863 
z
" transform="scale(0.015625)"/>
      <path id="DejaVuSans-63" d="M 3122 3366 
L 3122 2828 
Q 2878 2963 2633 3030 
Q 2388 3097 2138 3097 
Q 1578 3097 1268 2742 
Q 959 2388 959 1747 
Q 959 1106 1268 751 
Q 1578 397 2138 397 
Q 2388 397 2633 464 
Q 2878 531 3122 666 
L 3122 134 
Q 2881 22 2623 -34 
Q 2366 -91 2075 -91 
Q 1284 -91 818 406 
Q 353 903 353 1747 
Q 353 2603 823 3093 
Q 1294 3584 2113 3584 
Q 2378 3584 2631 3529 
Q 2884 3475 3122 3366 
z
" transform="scale(0.015625)"/>
     </defs>
     <use xlink:href="#DejaVuSans-49"/>
     <use xlink:href="#DejaVuSans-61" x="29.492188"/>
     <use xlink:href="#DejaVuSans-6d" x="90.771484"/>
     <use xlink:href="#DejaVuSans-62" x="188.183594"/>
     <use xlink:href="#DejaVuSans-69" x="251.660156"/>
     <use xlink:href="#DejaVuSans-63" x="279.443359"/>
    </g>
   </g>
   <g id="text_15">
    <!-- Parse -->
    <g transform="translate(361.832136 73.922053)scale(0.08 -0.08)">
     <defs>
      <path id="DejaVuSans-72" d="M 2631 2963 
Q 2534 3019 2420 3045 
Q 2306 3072 2169 3072 
Q 1681 3072 1420 2755 
Q 1159 2438 1159 1844 
L 1159 0 
L 581 0 
L 581 3500 
L 1159 3500 
L 1159 2956 
Q 1341 3275 1631 3429 
Q 1922 3584 2338 3584 
Q 2397 3584 2469 3576 
Q 2541 3569 2628 3553 
L 2631 2963 
z
" transform="scale(0.015625)"/>
      <path id="DejaVuSans-73" d="M 2834 3397 
L 2834 2853 
Q 2591 2978 2328 3040 
Q 2066 3103 1784 3103 
Q 1356 3103 1142 2972 
Q 928 2841 928 2578 
Q 928 2378 1081 2264 
Q 1234 2150 1697 2047 
L 1894 2003 
Q 2506 1872 2764 1633 
Q 3022 1394 3022 966 
Q 3022 478 2636 193 
Q 2250 -91 1575 -91 
Q 1294 -91 989 -36 
Q 684 19 347 128 
L 347 722 
Q 666 556 975 473 
Q 1284 391 1588 391 
Q 1994 391 2212 530 
Q 2431 669 2431 922 
Q 2431 1156 2273 1281 
Q 2116 1406 1581 1522 
L 1381 1569 
Q 847 1681 609 1914 
Q 372 2147 372 2553 
Q 372 3047 722 3315 
Q 1072 3584 1716 3584 
Q 2034 3584 2315 3537 
Q 2597 3491 2834 3397 
z
" transform="scale(0.015625)"/>
      <path id="DejaVuSans-65" d="M 3597 1894 
L 3597 1613 
L 953 1613 
Q 991 1019 1311 708 
Q 1631 397 2203 397 
Q 2534 397 2845 478 
Q 3156 559 3463 722 
L 3463 178 
Q 3153 47 2828 -22 
Q 2503 -91 2169 -91 
Q 1331 -91 842 396 
Q 353 884 353 1716 
Q 353 2575 817 3079 
Q 1281 3584 2069 3584 
Q 2775 3584 3186 3129 
Q 3597 2675 3597 1894 
z
M 3022 2063 
Q 3016 2534 2758 2815 
Q 2500 3097 2075 3097 
Q 1594 3097 1305 2825 
Q 1016 2553 972 2059 
L 3022 2063 
z
" transform="scale(0.015625)"/>
     </defs>
     <use xlink:href="#DejaVuSans-50"/>
     <use xlink:href="#DejaVuSans-61" x="55.802734"/>
     <use xlink:href="#DejaVuSans-72" x="117.082031"/>
     <use xlink:href="#DejaVuSans-73" x="158.195312"/>
     <use xlink:href="#DejaVuSans-65" x="210.294922"/>
    </g>
   </g>
   <g id="text_16">
    <!-- FootBin -->
    <g transform="translate(361.832136 137.097241)scale(0.08 -0.08)">
     <defs>
      <path id="DejaVuSans-46" d="M 628 4666 
L 3309 4666 
L 3309 4134 
L 1259 4134 
L 1259 2759 
L 3109 2759 
L 3109 2228 
L 1259 2228 
L 1259 0 
L 628 0 
L 628 4666 
z
" transform="scale(0.015625)"/>
      <path id="DejaVuSans-6f" d="M 1959 3097 
Q 1497 3097 1228 2736 
Q 959 2375 959 1747 
Q 959 1119 1226 758 
Q 1494 397 1959 397 
Q 2419 397 2687 759 
Q 2956 1122 2956 1747 
Q 2956 2369 2687 2733 
Q 2419 3097 1959 3097 
z
M 1959 3584 
Q 2709 3584 3137 3096 
Q 3566 2609 3566 1747 
Q 3566 888 3137 398 
Q 2709 -91 1959 -91 
Q 1206 -91 779 398 
Q 353 888 353 1747 
Q 353 2609 779 3096 
Q 1206 3584 1959 3584 
z
" transform="scale(0.015625)"/>
      <path id="DejaVuSans-74" d="M 1172 4494 
L 1172 3500 
L 2356 3500 
L 2356 3053 
L 1172 3053 
L 1172 1153 
Q 1172 725 1289 603 
Q 1406 481 1766 481 
L 2356 481 
L 2356 0 
L 1766 0 
Q 1100 0 847 248 
Q 594 497 594 1153 
L 594 3053 
L 172 3053 
L 172 3500 
L 594 3500 
L 594 4494 
L 1172 4494 
z
" transform="scale(0.015625)"/>
      <path id="DejaVuSans-42" d="M 1259 2228 
L 1259 519 
L 2272 519 
Q 2781 519 3026 730 
Q 3272 941 3272 1375 
Q 3272 1813 3026 2020 
Q 2781 2228 2272 2228 
L 1259 2228 
z
M 1259 4147 
L 1259 2741 
L 2194 2741 
Q 2656 2741 2882 2914 
Q 3109 3088 3109 3444 
Q 3109 3797 2882 3972 
Q 2656 4147 2194 4147 
L 1259 4147 
z
M 628 4666 
L 2241 4666 
Q 2963 4666 3353 4366 
Q 3744 4066 3744 3513 
Q 3744 3084 3544 2831 
Q 3344 2578 2956 2516 
Q 3422 2416 3680 2098 
Q 3938 1781 3938 1306 
Q 3938 681 3513 340 
Q 3088 0 2303 0 
L 628 0 
L 628 4666 
z
" transform="scale(0.015625)"/>
      <path id="DejaVuSans-6e" d="M 3513 2113 
L 3513 0 
L 2938 0 
L 2938 2094 
Q 2938 2591 2744 2837 
Q 2550 3084 2163 3084 
Q 1697 3084 1428 2787 
Q 1159 2491 1159 1978 
L 1159 0 
L 581 0 
L 581 3500 
L 1159 3500 
L 1159 2956 
Q 1366 3272 1645 3428 
Q 1925 3584 2291 3584 
Q 2894 3584 3203 3211 
Q 3513 2838 3513 2113 
z
" transform="scale(0.015625)"/>
     </defs>
     <use xlink:href="#DejaVuSans-46"/>
     <use xlink:href="#DejaVuSans-6f" x="53.894531"/>
     <use xlink:href="#DejaVuSans-6f" x="115.076172"/>
     <use xlink:href="#DejaVuSans-74" x="176.257812"/>
     <use xlink:href="#DejaVuSans-42" x="215.466797"/>
     <use xlink:href="#DejaVuSans-69" x="284.070312"/>
     <use xlink:href="#DejaVuSans-6e" x="311.853516"/>
    </g>
   </g>
   <g id="text_17">
    <!-- WFL -->
    <g transform="translate(361.832136 75.862588)scale(0.08 -0.08)">
     <defs>
      <path id="DejaVuSans-4c" d="M 628 4666 
L 1259 4666 
L 1259 531 
L 3531 531 
L 3531 0 
L 628 0 
L 628 4666 
z
" transform="scale(0.015625)"/>
     </defs>
     <use xlink:href="#DejaVuSans-57"/>
     <use xlink:href="#DejaVuSans-46" x="98.876953"/>
     <use xlink:href="#DejaVuSans-4c" x="156.396484"/>
    </g>
   </g>
   <g id="text_18">
    <!-- WFR -->
    <g transform="translate(361.832136 66.591144)scale(0.08 -0.08)">
     <defs>
      <path id="DejaVuSans-52" d="M 2841 2188 
Q 3044 2119 3236 1894 
Q 3428 1669 3622 1275 
L 4263 0 
L 3584 0 
L 2988 1197 
Q 2756 1666 2539 1819 
Q 2322 1972 1947 1972 
L 1259 1972 
L 1259 0 
L 628 0 
L 628 4666 
L 2053 4666 
Q 2853 4666 3247 4331 
Q 3641 3997 3641 3322 
Q 3641 2881 3436 2590 
Q 3231 2300 2841 2188 
z
M 1259 4147 
L 1259 2491 
L 2053 2491 
Q 2509 2491 2742 2702 
Q 2975 2913 2975 3322 
Q 2975 3731 2742 3939 
Q 2509 4147 2053 4147 
L 1259 4147 
z
" transform="scale(0.015625)"/>
     </defs>
     <use xlink:href="#DejaVuSans-57"/>
     <use xlink:href="#DejaVuSans-46" x="98.876953"/>
     <use xlink:href="#DejaVuSans-52" x="156.396484"/>
    </g>
   </g>
   <g id="text_19">
    <!-- Main-L -->
    <g transform="translate(361.832136 76.078203)scale(0.08 -0.08)">
     <defs>
      <path id="DejaVuSans-4d" d="M 628 4666 
L 1569 4666 
L 2759 1491 
L 3956 4666 
L 4897 4666 
L 4897 0 
L 4281 0 
L 4281 4097 
L 3078 897 
L 2444 897 
L 1241 4097 
L 1241 0 
L 628 0 
L 628 4666 
z
" transform="scale(0.015625)"/>
      <path id="DejaVuSans-2d" d="M 313 2009 
L 1997 2009 
L 1997 1497 
L 313 1497 
L 313 2009 
z
" transform="scale(0.015625)"/>
     </defs>
     <use xlink:href="#DejaVuSans-4d"/>
     <use xlink:href="#DejaVuSans-61" x="86.279297"/>
     <use xlink:href="#DejaVuSans-69" x="147.558594"/>
     <use xlink:href="#DejaVuSans-6e" x="175.341797"/>
     <use xlink:href="#DejaVuSans-2d" x="238.720703"/>
     <use xlink:href="#DejaVuSans-4c" x="274.804688"/>
    </g>
   </g>
   <g id="text_20">
    <!-- Main-R -->
    <g transform="translate(361.832136 46.970182)scale(0.08 -0.08)">
     <use xlink:href="#DejaVuSans-4d"/>
     <use xlink:href="#DejaVuSans-61" x="86.279297"/>
     <use xlink:href="#DejaVuSans-69" x="147.558594"/>
     <use xlink:href="#DejaVuSans-6e" x="175.341797"/>
     <use xlink:href="#DejaVuSans-2d" x="238.720703"/>
     <use xlink:href="#DejaVuSans-52" x="274.804688"/>
    </g>
   </g>
   <g id="text_21">
    <!-- AFL -->
    <g transform="translate(361.832136 134.509861)scale(0.08 -0.08)">
     <defs>
      <path id="DejaVuSans-41" d="M 2188 4044 
L 1331 1722 
L 3047 1722 
L 2188 4044 
z
M 1831 4666 
L 2547 4666 
L 4325 0 
L 3669 0 
L 3244 1197 
L 1141 1197 
L 716 0 
L 50 0 
L 1831 4666 
z
" transform="scale(0.015625)"/>
     </defs>
     <use xlink:href="#DejaVuSans-41"/>
     <use xlink:href="#DejaVuSans-46" x="68.408203"/>
     <use xlink:href="#DejaVuSans-4c" x="125.927734"/>
    </g>
   </g>
   <g id="text_22">
    <!-- AFR -->
    <g transform="translate(361.832136 103.892535)scale(0.08 -0.08)">
     <use xlink:href="#DejaVuSans-41"/>
     <use xlink:href="#DejaVuSans-46" x="68.408203"/>
     <use xlink:href="#DejaVuSans-52" x="125.927734"/>
    </g>
   </g>
   <g id="text_23">
    <!-- Nonfinal -->
    <g transform="translate(361.832136 79.743658)scale(0.08 -0.08)">
     <defs>
      <path id="DejaVuSans-4e" d="M 628 4666 
L 1478 4666 
L 3547 763 
L 3547 4666 
L 4159 4666 
L 4159 0 
L 3309 0 
L 1241 3903 
L 1241 0 
L 628 0 
L 628 4666 
z
" transform="scale(0.015625)"/>
      <path id="DejaVuSans-66" d="M 2375 4863 
L 2375 4384 
L 1825 4384 
Q 1516 4384 1395 4259 
Q 1275 4134 1275 3809 
L 1275 3500 
L 2222 3500 
L 2222 3053 
L 1275 3053 
L 1275 0 
L 697 0 
L 697 3053 
L 147 3053 
L 147 3500 
L 697 3500 
L 697 3744 
Q 697 4328 969 4595 
Q 1241 4863 1831 4863 
L 2375 4863 
z
" transform="scale(0.015625)"/>
      <path id="DejaVuSans-6c" d="M 603 4863 
L 1178 4863 
L 1178 0 
L 603 0 
L 603 4863 
z
" transform="scale(0.015625)"/>
     </defs>
     <use xlink:href="#DejaVuSans-4e"/>
     <use xlink:href="#DejaVuSans-6f" x="74.804688"/>
     <use xlink:href="#DejaVuSans-6e" x="135.986328"/>
     <use xlink:href="#DejaVuSans-66" x="199.365234"/>
     <use xlink:href="#DejaVuSans-69" x="234.570312"/>
     <use xlink:href="#DejaVuSans-6e" x="262.353516"/>
     <use xlink:href="#DejaVuSans-61" x="325.732422"/>
     <use xlink:href="#DejaVuSans-6c" x="387.011719"/>
    </g>
   </g>
   <g id="text_24">
    <!-- Trochaic -->
    <g transform="translate(361.832136 133.863016)scale(0.08 -0.08)">
     <defs>
      <path id="DejaVuSans-54" d="M -19 4666 
L 3928 4666 
L 3928 4134 
L 2272 4134 
L 2272 0 
L 1638 0 
L 1638 4134 
L -19 4134 
L -19 4666 
z
" transform="scale(0.015625)"/>
      <path id="DejaVuSans-68" d="M 3513 2113 
L 3513 0 
L 2938 0 
L 2938 2094 
Q 2938 2591 2744 2837 
Q 2550 3084 2163 3084 
Q 1697 3084 1428 2787 
Q 1159 2491 1159 1978 
L 1159 0 
L 581 0 
L 581 4863 
L 1159 4863 
L 1159 2956 
Q 1366 3272 1645 3428 
Q 1925 3584 2291 3584 
Q 2894 3584 3203 3211 
Q 3513 2838 3513 2113 
z
" transform="scale(0.015625)"/>
     </defs>
     <use xlink:href="#DejaVuSans-54"/>
     <use xlink:href="#DejaVuSans-72" x="46.333984"/>
     <use xlink:href="#DejaVuSans-6f" x="85.197266"/>
     <use xlink:href="#DejaVuSans-63" x="146.378906"/>
     <use xlink:href="#DejaVuSans-68" x="201.359375"/>
     <use xlink:href="#DejaVuSans-61" x="264.738281"/>
     <use xlink:href="#DejaVuSans-69" x="326.017578"/>
     <use xlink:href="#DejaVuSans-63" x="353.800781"/>
    </g>
   </g>
  </g>
  <g id="axes_2">
   <g id="patch_7">
    <path d="M 57.6 307.584 
L 414.72 307.584 
L 414.72 186.624 
L 57.6 186.624 
z
" style="fill: #ffffff"/>
   </g>
   <g id="matplotlib.axis_3">
    <g id="xtick_8">
     <g id="line2d_25">
      <g>
       <use xlink:href="#mc1a44e241a" x="71.373223" y="307.584" style="stroke: #000000; stroke-width: 0.8"/>
      </g>
     </g>
     <g id="text_25">
      <!-- 0 -->
      <g transform="translate(68.191973 322.182437)scale(0.1 -0.1)">
       <use xlink:href="#DejaVuSans-30"/>
      </g>
     </g>
    </g>
    <g id="xtick_9">
     <g id="line2d_26">
      <g>
       <use xlink:href="#mc1a44e241a" x="120.563306" y="307.584" style="stroke: #000000; stroke-width: 0.8"/>
      </g>
     </g>
     <g id="text_26">
      <!-- 20 -->
      <g transform="translate(114.200806 322.182437)scale(0.1 -0.1)">
       <use xlink:href="#DejaVuSans-32"/>
       <use xlink:href="#DejaVuSans-30" x="63.623047"/>
      </g>
     </g>
    </g>
    <g id="xtick_10">
     <g id="line2d_27">
      <g>
       <use xlink:href="#mc1a44e241a" x="169.753388" y="307.584" style="stroke: #000000; stroke-width: 0.8"/>
      </g>
     </g>
     <g id="text_27">
      <!-- 40 -->
      <g transform="translate(163.390888 322.182437)scale(0.1 -0.1)">
       <use xlink:href="#DejaVuSans-34"/>
       <use xlink:href="#DejaVuSans-30" x="63.623047"/>
      </g>
     </g>
    </g>
    <g id="xtick_11">
     <g id="line2d_28">
      <g>
       <use xlink:href="#mc1a44e241a" x="218.943471" y="307.584" style="stroke: #000000; stroke-width: 0.8"/>
      </g>
     </g>
     <g id="text_28">
      <!-- 60 -->
      <g transform="translate(212.580971 322.182437)scale(0.1 -0.1)">
       <use xlink:href="#DejaVuSans-36"/>
       <use xlink:href="#DejaVuSans-30" x="63.623047"/>
      </g>
     </g>
    </g>
    <g id="xtick_12">
     <g id="line2d_29">
      <g>
       <use xlink:href="#mc1a44e241a" x="268.133554" y="307.584" style="stroke: #000000; stroke-width: 0.8"/>
      </g>
     </g>
     <g id="text_29">
      <!-- 80 -->
      <g transform="translate(261.771054 322.182437)scale(0.1 -0.1)">
       <use xlink:href="#DejaVuSans-38"/>
       <use xlink:href="#DejaVuSans-30" x="63.623047"/>
      </g>
     </g>
    </g>
    <g id="xtick_13">
     <g id="line2d_30">
      <g>
       <use xlink:href="#mc1a44e241a" x="317.323636" y="307.584" style="stroke: #000000; stroke-width: 0.8"/>
      </g>
     </g>
     <g id="text_30">
      <!-- 100 -->
      <g transform="translate(307.779886 322.182437)scale(0.1 -0.1)">
       <use xlink:href="#DejaVuSans-31"/>
       <use xlink:href="#DejaVuSans-30" x="63.623047"/>
       <use xlink:href="#DejaVuSans-30" x="127.246094"/>
      </g>
     </g>
    </g>
    <g id="xtick_14">
     <g id="line2d_31">
      <g>
       <use xlink:href="#mc1a44e241a" x="366.513719" y="307.584" style="stroke: #000000; stroke-width: 0.8"/>
      </g>
     </g>
     <g id="text_31">
      <!-- 120 -->
      <g transform="translate(356.969969 322.182437)scale(0.1 -0.1)">
       <use xlink:href="#DejaVuSans-31"/>
       <use xlink:href="#DejaVuSans-32" x="63.623047"/>
       <use xlink:href="#DejaVuSans-30" x="127.246094"/>
      </g>
     </g>
    </g>
   </g>
   <g id="matplotlib.axis_4">
    <g id="ytick_6">
     <g id="line2d_32">
      <g>
       <use xlink:href="#m2ad4f4261e" x="57.6" y="302.091973" style="stroke: #000000; stroke-width: 0.8"/>
      </g>
     </g>
     <g id="text_32">
      <!-- 0 -->
      <g transform="translate(44.2375 305.891192)scale(0.1 -0.1)">
       <use xlink:href="#DejaVuSans-30"/>
      </g>
     </g>
    </g>
    <g id="ytick_7">
     <g id="line2d_33">
      <g>
       <use xlink:href="#m2ad4f4261e" x="57.6" y="271.315697" style="stroke: #000000; stroke-width: 0.8"/>
      </g>
     </g>
     <g id="text_33">
      <!-- 5000 -->
      <g transform="translate(25.15 275.114916)scale(0.1 -0.1)">
       <use xlink:href="#DejaVuSans-35"/>
       <use xlink:href="#DejaVuSans-30" x="63.623047"/>
       <use xlink:href="#DejaVuSans-30" x="127.246094"/>
       <use xlink:href="#DejaVuSans-30" x="190.869141"/>
      </g>
     </g>
    </g>
    <g id="ytick_8">
     <g id="line2d_34">
      <g>
       <use xlink:href="#m2ad4f4261e" x="57.6" y="240.53942" style="stroke: #000000; stroke-width: 0.8"/>
      </g>
     </g>
     <g id="text_34">
      <!-- 10000 -->
      <g transform="translate(18.7875 244.338639)scale(0.1 -0.1)">
       <use xlink:href="#DejaVuSans-31"/>
       <use xlink:href="#DejaVuSans-30" x="63.623047"/>
       <use xlink:href="#DejaVuSans-30" x="127.246094"/>
       <use xlink:href="#DejaVuSans-30" x="190.869141"/>
       <use xlink:href="#DejaVuSans-30" x="254.492188"/>
      </g>
     </g>
    </g>
    <g id="ytick_9">
     <g id="line2d_35">
      <g>
       <use xlink:href="#m2ad4f4261e" x="57.6" y="209.763144" style="stroke: #000000; stroke-width: 0.8"/>
      </g>
     </g>
     <g id="text_35">
      <!-- 15000 -->
      <g transform="translate(18.7875 213.562362)scale(0.1 -0.1)">
       <use xlink:href="#DejaVuSans-31"/>
       <use xlink:href="#DejaVuSans-35" x="63.623047"/>
       <use xlink:href="#DejaVuSans-30" x="127.246094"/>
       <use xlink:href="#DejaVuSans-30" x="190.869141"/>
       <use xlink:href="#DejaVuSans-30" x="254.492188"/>
      </g>
     </g>
    </g>
   </g>
   <g id="line2d_36">
    <path d="M 73.832727 302.085818 
L 204.186446 302.073508 
L 206.64595 301.950403 
L 211.564959 302.061197 
L 223.862479 302.048887 
L 226.321983 301.65495 
L 228.781488 302.079663 
L 231.240992 301.790366 
L 236.16 302.085818 
L 241.079008 302.085818 
L 243.538512 301.75959 
L 245.998017 301.704192 
L 248.457521 302.085818 
L 250.917025 301.895005 
L 255.836033 302.036576 
L 258.295537 301.778055 
L 260.755041 301.648795 
L 263.214545 302.061197 
L 268.133554 302.0058 
L 270.593058 302.055042 
L 273.052562 301.845763 
L 275.512066 302.079663 
L 277.97157 301.901161 
L 285.350083 301.919626 
L 287.809587 301.796521 
L 290.269091 301.999645 
L 292.728595 301.839608 
L 295.188099 301.199461 
L 297.647603 299.562163 
L 300.107107 301.778055 
L 302.566612 301.821142 
L 305.026116 299.85146 
L 307.48562 301.845763 
L 309.945124 302.01811 
L 312.404628 301.482603 
L 314.864132 300.44852 
L 317.323636 301.217927 
L 319.78314 300.731662 
L 322.242645 301.267169 
L 324.702149 301.999645 
L 327.161653 301.747279 
L 329.621157 301.698037 
L 332.080661 301.248703 
L 334.540165 302.079663 
L 336.999669 301.7719 
L 339.459174 300.965562 
L 341.918678 301.100977 
L 344.378182 301.470293 
L 346.837686 301.224082 
L 349.29719 301.187151 
L 351.756694 301.020959 
L 354.216198 297.9064 
L 356.675702 301.482603 
L 359.135207 301.630329 
L 361.594711 300.633178 
L 364.054215 277.138568 
L 366.513719 301.390274 
L 368.973223 298.952793 
L 371.432727 287.356292 
L 373.892231 286.716146 
L 376.351736 298.829688 
L 378.81124 264.729574 
L 381.270744 282.684453 
L 383.730248 292.582104 
L 386.189752 290.803235 
L 388.649256 294.114763 
L 391.10876 258.457368 
L 393.568264 296.546088 
L 396.027769 278.566588 
L 398.487273 192.122182 
L 398.487273 192.122182 
" clip-path="url(#p2d21e4a719)" style="fill: none; stroke: #1f77b4; stroke-width: 1.5; stroke-linecap: square"/>
   </g>
   <g id="patch_8">
    <path d="M 57.6 307.584 
L 57.6 186.624 
" style="fill: none; stroke: #000000; stroke-width: 0.8; stroke-linejoin: miter; stroke-linecap: square"/>
   </g>
   <g id="patch_9">
    <path d="M 414.72 307.584 
L 414.72 186.624 
" style="fill: none; stroke: #000000; stroke-width: 0.8; stroke-linejoin: miter; stroke-linecap: square"/>
   </g>
   <g id="patch_10">
    <path d="M 57.6 307.584 
L 414.72 307.584 
" style="fill: none; stroke: #000000; stroke-width: 0.8; stroke-linejoin: miter; stroke-linecap: square"/>
   </g>
   <g id="patch_11">
    <path d="M 57.6 186.624 
L 414.72 186.624 
" style="fill: none; stroke: #000000; stroke-width: 0.8; stroke-linejoin: miter; stroke-linecap: square"/>
   </g>
  </g>
 </g>
 <defs>
  <clipPath id="pd20af8c399">
   <rect x="57.6" y="41.472" width="357.12" height="120.96"/>
  </clipPath>
  <clipPath id="p2d21e4a719">
   <rect x="57.6" y="186.624" width="357.12" height="120.96"/>
  </clipPath>
 </defs>
</svg>
