<?xml version="1.0" encoding="utf-8" standalone="no"?>
<!DOCTYPE svg PUBLIC "-//W3C//DTD SVG 1.1//EN"
  "http://www.w3.org/Graphics/SVG/1.1/DTD/svg11.dtd">
<svg xmlns:xlink="http://www.w3.org/1999/xlink" width="460.8pt" height="345.6pt" viewBox="0 0 460.8 345.6" xmlns="http://www.w3.org/2000/svg" version="1.1">
 <metadata>
  <rdf:RDF xmlns:dc="http://purl.org/dc/elements/1.1/" xmlns:cc="http://creativecommons.org/ns#" xmlns:rdf="http://www.w3.org/1999/02/22-rdf-syntax-ns#">
   <cc:Work>
    <dc:type rdf:resource="http://purl.org/dc/dcmitype/StillImage"/>
    <dc:date>2022-05-14T02:23:37.963350</dc:date>
    <dc:format>image/svg+xml</dc:format>
    <dc:creator>
     <cc:Agent>
      <dc:title>Matplotlib v3.5.1, https://matplotlib.org/</dc:title>
     </cc:Agent>
    </dc:creator>
   </cc:Work>
  </rdf:RDF>
 </metadata>
 <defs>
  <style type="text/css">*{stroke-linejoin: round; stroke-linecap: butt}</style>
 </defs>
 <g id="figure_1">
  <g id="patch_1">
   <path d="M 0 345.6 
L 460.8 345.6 
L 460.8 0 
L 0 0 
z
" style="fill: #ffffff"/>
  </g>
  <g id="axes_1">
   <g id="patch_2">
    <path d="M 57.6 162.432 
L 414.72 162.432 
L 414.72 41.472 
L 57.6 41.472 
z
" style="fill: #ffffff"/>
   </g>
   <g id="matplotlib.axis_1">
    <g id="xtick_1">
     <g id="line2d_1">
      <defs>
       <path id="md3a025b5c9" d="M 0 0 
L 0 3.5 
" style="stroke: #000000; stroke-width: 0.8"/>
      </defs>
      <g>
       <use xlink:href="#md3a025b5c9" x="73.827491" y="162.432" style="stroke: #000000; stroke-width: 0.8"/>
      </g>
     </g>
     <g id="text_1">
      <!-- 0 -->
      <g transform="translate(70.646241 177.030437)scale(0.1 -0.1)">
       <defs>
        <path id="DejaVuSans-30" d="M 2034 4250 
Q 1547 4250 1301 3770 
Q 1056 3291 1056 2328 
Q 1056 1369 1301 889 
Q 1547 409 2034 409 
Q 2525 409 2770 889 
Q 3016 1369 3016 2328 
Q 3016 3291 2770 3770 
Q 2525 4250 2034 4250 
z
M 2034 4750 
Q 2819 4750 3233 4129 
Q 3647 3509 3647 2328 
Q 3647 1150 3233 529 
Q 2819 -91 2034 -91 
Q 1250 -91 836 529 
Q 422 1150 422 2328 
Q 422 3509 836 4129 
Q 1250 4750 2034 4750 
z
" transform="scale(0.015625)"/>
       </defs>
       <use xlink:href="#DejaVuSans-30"/>
      </g>
     </g>
    </g>
    <g id="xtick_2">
     <g id="line2d_2">
      <g>
       <use xlink:href="#md3a025b5c9" x="126.191972" y="162.432" style="stroke: #000000; stroke-width: 0.8"/>
      </g>
     </g>
     <g id="text_2">
      <!-- 10000 -->
      <g transform="translate(110.285722 177.030437)scale(0.1 -0.1)">
       <defs>
        <path id="DejaVuSans-31" d="M 794 531 
L 1825 531 
L 1825 4091 
L 703 3866 
L 703 4441 
L 1819 4666 
L 2450 4666 
L 2450 531 
L 3481 531 
L 3481 0 
L 794 0 
L 794 531 
z
" transform="scale(0.015625)"/>
       </defs>
       <use xlink:href="#DejaVuSans-31"/>
       <use xlink:href="#DejaVuSans-30" x="63.623047"/>
       <use xlink:href="#DejaVuSans-30" x="127.246094"/>
       <use xlink:href="#DejaVuSans-30" x="190.869141"/>
       <use xlink:href="#DejaVuSans-30" x="254.492188"/>
      </g>
     </g>
    </g>
    <g id="xtick_3">
     <g id="line2d_3">
      <g>
       <use xlink:href="#md3a025b5c9" x="178.556453" y="162.432" style="stroke: #000000; stroke-width: 0.8"/>
      </g>
     </g>
     <g id="text_3">
      <!-- 20000 -->
      <g transform="translate(162.650203 177.030437)scale(0.1 -0.1)">
       <defs>
        <path id="DejaVuSans-32" d="M 1228 531 
L 3431 531 
L 3431 0 
L 469 0 
L 469 531 
Q 828 903 1448 1529 
Q 2069 2156 2228 2338 
Q 2531 2678 2651 2914 
Q 2772 3150 2772 3378 
Q 2772 3750 2511 3984 
Q 2250 4219 1831 4219 
Q 1534 4219 1204 4116 
Q 875 4013 500 3803 
L 500 4441 
Q 881 4594 1212 4672 
Q 1544 4750 1819 4750 
Q 2544 4750 2975 4387 
Q 3406 4025 3406 3419 
Q 3406 3131 3298 2873 
Q 3191 2616 2906 2266 
Q 2828 2175 2409 1742 
Q 1991 1309 1228 531 
z
" transform="scale(0.015625)"/>
       </defs>
       <use xlink:href="#DejaVuSans-32"/>
       <use xlink:href="#DejaVuSans-30" x="63.623047"/>
       <use xlink:href="#DejaVuSans-30" x="127.246094"/>
       <use xlink:href="#DejaVuSans-30" x="190.869141"/>
       <use xlink:href="#DejaVuSans-30" x="254.492188"/>
      </g>
     </g>
    </g>
    <g id="xtick_4">
     <g id="line2d_4">
      <g>
       <use xlink:href="#md3a025b5c9" x="230.920934" y="162.432" style="stroke: #000000; stroke-width: 0.8"/>
      </g>
     </g>
     <g id="text_4">
      <!-- 30000 -->
      <g transform="translate(215.014684 177.030437)scale(0.1 -0.1)">
       <defs>
        <path id="DejaVuSans-33" d="M 2597 2516 
Q 3050 2419 3304 2112 
Q 3559 1806 3559 1356 
Q 3559 666 3084 287 
Q 2609 -91 1734 -91 
Q 1441 -91 1130 -33 
Q 819 25 488 141 
L 488 750 
Q 750 597 1062 519 
Q 1375 441 1716 441 
Q 2309 441 2620 675 
Q 2931 909 2931 1356 
Q 2931 1769 2642 2001 
Q 2353 2234 1838 2234 
L 1294 2234 
L 1294 2753 
L 1863 2753 
Q 2328 2753 2575 2939 
Q 2822 3125 2822 3475 
Q 2822 3834 2567 4026 
Q 2313 4219 1838 4219 
Q 1578 4219 1281 4162 
Q 984 4106 628 3988 
L 628 4550 
Q 988 4650 1302 4700 
Q 1616 4750 1894 4750 
Q 2613 4750 3031 4423 
Q 3450 4097 3450 3541 
Q 3450 3153 3228 2886 
Q 3006 2619 2597 2516 
z
" transform="scale(0.015625)"/>
       </defs>
       <use xlink:href="#DejaVuSans-33"/>
       <use xlink:href="#DejaVuSans-30" x="63.623047"/>
       <use xlink:href="#DejaVuSans-30" x="127.246094"/>
       <use xlink:href="#DejaVuSans-30" x="190.869141"/>
       <use xlink:href="#DejaVuSans-30" x="254.492188"/>
      </g>
     </g>
    </g>
    <g id="xtick_5">
     <g id="line2d_5">
      <g>
       <use xlink:href="#md3a025b5c9" x="283.285415" y="162.432" style="stroke: #000000; stroke-width: 0.8"/>
      </g>
     </g>
     <g id="text_5">
      <!-- 40000 -->
      <g transform="translate(267.379165 177.030437)scale(0.1 -0.1)">
       <defs>
        <path id="DejaVuSans-34" d="M 2419 4116 
L 825 1625 
L 2419 1625 
L 2419 4116 
z
M 2253 4666 
L 3047 4666 
L 3047 1625 
L 3713 1625 
L 3713 1100 
L 3047 1100 
L 3047 0 
L 2419 0 
L 2419 1100 
L 313 1100 
L 313 1709 
L 2253 4666 
z
" transform="scale(0.015625)"/>
       </defs>
       <use xlink:href="#DejaVuSans-34"/>
       <use xlink:href="#DejaVuSans-30" x="63.623047"/>
       <use xlink:href="#DejaVuSans-30" x="127.246094"/>
       <use xlink:href="#DejaVuSans-30" x="190.869141"/>
       <use xlink:href="#DejaVuSans-30" x="254.492188"/>
      </g>
     </g>
    </g>
    <g id="xtick_6">
     <g id="line2d_6">
      <g>
       <use xlink:href="#md3a025b5c9" x="335.649896" y="162.432" style="stroke: #000000; stroke-width: 0.8"/>
      </g>
     </g>
     <g id="text_6">
      <!-- 50000 -->
      <g transform="translate(319.743646 177.030437)scale(0.1 -0.1)">
       <defs>
        <path id="DejaVuSans-35" d="M 691 4666 
L 3169 4666 
L 3169 4134 
L 1269 4134 
L 1269 2991 
Q 1406 3038 1543 3061 
Q 1681 3084 1819 3084 
Q 2600 3084 3056 2656 
Q 3513 2228 3513 1497 
Q 3513 744 3044 326 
Q 2575 -91 1722 -91 
Q 1428 -91 1123 -41 
Q 819 9 494 109 
L 494 744 
Q 775 591 1075 516 
Q 1375 441 1709 441 
Q 2250 441 2565 725 
Q 2881 1009 2881 1497 
Q 2881 1984 2565 2268 
Q 2250 2553 1709 2553 
Q 1456 2553 1204 2497 
Q 953 2441 691 2322 
L 691 4666 
z
" transform="scale(0.015625)"/>
       </defs>
       <use xlink:href="#DejaVuSans-35"/>
       <use xlink:href="#DejaVuSans-30" x="63.623047"/>
       <use xlink:href="#DejaVuSans-30" x="127.246094"/>
       <use xlink:href="#DejaVuSans-30" x="190.869141"/>
       <use xlink:href="#DejaVuSans-30" x="254.492188"/>
      </g>
     </g>
    </g>
    <g id="xtick_7">
     <g id="line2d_7">
      <g>
       <use xlink:href="#md3a025b5c9" x="388.014377" y="162.432" style="stroke: #000000; stroke-width: 0.8"/>
      </g>
     </g>
     <g id="text_7">
      <!-- 60000 -->
      <g transform="translate(372.108127 177.030437)scale(0.1 -0.1)">
       <defs>
        <path id="DejaVuSans-36" d="M 2113 2584 
Q 1688 2584 1439 2293 
Q 1191 2003 1191 1497 
Q 1191 994 1439 701 
Q 1688 409 2113 409 
Q 2538 409 2786 701 
Q 3034 994 3034 1497 
Q 3034 2003 2786 2293 
Q 2538 2584 2113 2584 
z
M 3366 4563 
L 3366 3988 
Q 3128 4100 2886 4159 
Q 2644 4219 2406 4219 
Q 1781 4219 1451 3797 
Q 1122 3375 1075 2522 
Q 1259 2794 1537 2939 
Q 1816 3084 2150 3084 
Q 2853 3084 3261 2657 
Q 3669 2231 3669 1497 
Q 3669 778 3244 343 
Q 2819 -91 2113 -91 
Q 1303 -91 875 529 
Q 447 1150 447 2328 
Q 447 3434 972 4092 
Q 1497 4750 2381 4750 
Q 2619 4750 2861 4703 
Q 3103 4656 3366 4563 
z
" transform="scale(0.015625)"/>
       </defs>
       <use xlink:href="#DejaVuSans-36"/>
       <use xlink:href="#DejaVuSans-30" x="63.623047"/>
       <use xlink:href="#DejaVuSans-30" x="127.246094"/>
       <use xlink:href="#DejaVuSans-30" x="190.869141"/>
       <use xlink:href="#DejaVuSans-30" x="254.492188"/>
      </g>
     </g>
    </g>
   </g>
   <g id="matplotlib.axis_2">
    <g id="ytick_1">
     <g id="line2d_8">
      <defs>
       <path id="m8324bea4bf" d="M 0 0 
L -3.5 0 
" style="stroke: #000000; stroke-width: 0.8"/>
      </defs>
      <g>
       <use xlink:href="#m8324bea4bf" x="57.6" y="135.299112" style="stroke: #000000; stroke-width: 0.8"/>
      </g>
     </g>
     <g id="text_8">
      <!-- 80 -->
      <g transform="translate(37.875 139.098331)scale(0.1 -0.1)">
       <defs>
        <path id="DejaVuSans-38" d="M 2034 2216 
Q 1584 2216 1326 1975 
Q 1069 1734 1069 1313 
Q 1069 891 1326 650 
Q 1584 409 2034 409 
Q 2484 409 2743 651 
Q 3003 894 3003 1313 
Q 3003 1734 2745 1975 
Q 2488 2216 2034 2216 
z
M 1403 2484 
Q 997 2584 770 2862 
Q 544 3141 544 3541 
Q 544 4100 942 4425 
Q 1341 4750 2034 4750 
Q 2731 4750 3128 4425 
Q 3525 4100 3525 3541 
Q 3525 3141 3298 2862 
Q 3072 2584 2669 2484 
Q 3125 2378 3379 2068 
Q 3634 1759 3634 1313 
Q 3634 634 3220 271 
Q 2806 -91 2034 -91 
Q 1263 -91 848 271 
Q 434 634 434 1313 
Q 434 1759 690 2068 
Q 947 2378 1403 2484 
z
M 1172 3481 
Q 1172 3119 1398 2916 
Q 1625 2713 2034 2713 
Q 2441 2713 2670 2916 
Q 2900 3119 2900 3481 
Q 2900 3844 2670 4047 
Q 2441 4250 2034 4250 
Q 1625 4250 1398 4047 
Q 1172 3844 1172 3481 
z
" transform="scale(0.015625)"/>
       </defs>
       <use xlink:href="#DejaVuSans-38"/>
       <use xlink:href="#DejaVuSans-30" x="63.623047"/>
      </g>
     </g>
    </g>
    <g id="ytick_2">
     <g id="line2d_9">
      <g>
       <use xlink:href="#m8324bea4bf" x="57.6" y="104.611586" style="stroke: #000000; stroke-width: 0.8"/>
      </g>
     </g>
     <g id="text_9">
      <!-- 90 -->
      <g transform="translate(37.875 108.410804)scale(0.1 -0.1)">
       <defs>
        <path id="DejaVuSans-39" d="M 703 97 
L 703 672 
Q 941 559 1184 500 
Q 1428 441 1663 441 
Q 2288 441 2617 861 
Q 2947 1281 2994 2138 
Q 2813 1869 2534 1725 
Q 2256 1581 1919 1581 
Q 1219 1581 811 2004 
Q 403 2428 403 3163 
Q 403 3881 828 4315 
Q 1253 4750 1959 4750 
Q 2769 4750 3195 4129 
Q 3622 3509 3622 2328 
Q 3622 1225 3098 567 
Q 2575 -91 1691 -91 
Q 1453 -91 1209 -44 
Q 966 3 703 97 
z
M 1959 2075 
Q 2384 2075 2632 2365 
Q 2881 2656 2881 3163 
Q 2881 3666 2632 3958 
Q 2384 4250 1959 4250 
Q 1534 4250 1286 3958 
Q 1038 3666 1038 3163 
Q 1038 2656 1286 2365 
Q 1534 2075 1959 2075 
z
" transform="scale(0.015625)"/>
       </defs>
       <use xlink:href="#DejaVuSans-39"/>
       <use xlink:href="#DejaVuSans-30" x="63.623047"/>
      </g>
     </g>
    </g>
    <g id="ytick_3">
     <g id="line2d_10">
      <g>
       <use xlink:href="#m8324bea4bf" x="57.6" y="73.924059" style="stroke: #000000; stroke-width: 0.8"/>
      </g>
     </g>
     <g id="text_10">
      <!-- 100 -->
      <g transform="translate(31.5125 77.723278)scale(0.1 -0.1)">
       <use xlink:href="#DejaVuSans-31"/>
       <use xlink:href="#DejaVuSans-30" x="63.623047"/>
       <use xlink:href="#DejaVuSans-30" x="127.246094"/>
      </g>
     </g>
    </g>
    <g id="ytick_4">
     <g id="line2d_11">
      <g>
       <use xlink:href="#m8324bea4bf" x="57.6" y="43.236533" style="stroke: #000000; stroke-width: 0.8"/>
      </g>
     </g>
     <g id="text_11">
      <!-- 110 -->
      <g transform="translate(31.5125 47.035752)scale(0.1 -0.1)">
       <use xlink:href="#DejaVuSans-31"/>
       <use xlink:href="#DejaVuSans-31" x="63.623047"/>
       <use xlink:href="#DejaVuSans-30" x="127.246094"/>
      </g>
     </g>
    </g>
   </g>
   <g id="line2d_12">
    <path d="M 73.832727 76.992812 
L 73.837964 76.992812 
L 73.864146 74.946977 
L 73.895565 87.221987 
L 73.900801 87.221987 
L 73.953166 86.966258 
L 74.031712 99.241268 
L 74.178333 99.241268 
L 74.235934 97.706892 
L 74.24117 100.775645 
L 74.283062 100.775645 
L 74.31448 100.775645 
L 74.434919 107.680338 
L 74.550121 107.680338 
L 74.670559 113.817844 
L 74.843362 113.817844 
L 74.958564 112.283467 
L 75.220386 112.283467 
L 75.335588 111.516279 
L 75.367007 111.516279 
L 75.482208 114.585032 
L 75.529336 114.585032 
L 75.644538 113.050655 
L 75.77545 113.050655 
L 75.890651 110.749091 
L 75.92207 110.749091 
L 76.037272 113.817844 
L 76.340986 113.817844 
L 76.382877 116.886596 
L 76.450951 115.505658 
L 76.665646 115.505658 
L 76.786084 121.643163 
L 77.707699 121.643163 
L 77.822901 120.875975 
L 78.016649 120.875975 
L 78.131851 120.108786 
L 78.158033 120.108786 
L 78.273235 123.177539 
L 78.660732 123.177539 
L 78.775934 126.246292 
L 79.042993 126.246292 
L 79.158195 124.711915 
L 79.891298 124.711915 
L 80.0065 127.780668 
L 81.158518 127.780668 
L 81.27372 130.849421 
L 83.478265 130.849421 
L 83.593467 133.918173 
L 84.22184 133.918173 
L 84.342279 140.055679 
L 87.374182 140.055679 
L 87.489384 139.28849 
L 90.332775 139.28849 
L 90.453214 145.425996 
L 96.318035 145.425996 
L 96.433237 148.494748 
L 108.50325 148.494748 
L 108.618452 151.563501 
L 109.409156 151.563501 
L 109.524357 150.796313 
L 116.740183 150.796313 
L 116.855385 150.029125 
L 119.573101 150.029125 
L 119.688303 149.261937 
L 132.418109 149.261937 
L 132.53331 152.330689 
L 177.530109 152.330689 
L 177.645311 155.399442 
L 231.832076 155.399442 
L 231.947278 154.632254 
L 252.154731 154.632254 
L 252.269933 153.865066 
L 267.41374 153.865066 
L 267.528942 156.933818 
L 398.487273 156.933818 
L 398.487273 156.933818 
" clip-path="url(#p0de2404189)" style="fill: none; stroke: #1f77b4; stroke-width: 1.5; stroke-linecap: square"/>
   </g>
   <g id="line2d_13">
    <path d="M 73.832727 73.924059 
L 73.837964 73.924059 
L 73.885092 74.946977 
L 73.947929 71.878224 
L 73.984584 74.946977 
L 74.057895 71.878224 
L 76.414296 71.878224 
L 76.529498 74.946977 
L 398.487273 74.946977 
L 398.487273 74.946977 
" clip-path="url(#p0de2404189)" style="fill: none; stroke: #ff7f0e; stroke-width: 1.5; stroke-linecap: square"/>
   </g>
   <g id="line2d_14">
    <path d="M 73.832727 73.924059 
L 73.963638 67.786554 
L 73.995057 67.786554 
L 74.110259 67.172803 
L 74.178333 67.172803 
L 74.293535 64.61551 
L 74.356372 64.61551 
L 74.471574 63.081133 
L 75.77545 63.081133 
L 75.890651 61.546757 
L 78.72357 61.546757 
L 78.838772 60.012381 
L 79.042993 60.012381 
L 79.158195 58.478004 
L 79.477618 58.478004 
L 79.59282 55.409252 
L 99.030516 55.409252 
L 99.145717 52.340499 
L 109.409156 52.340499 
L 109.524357 51.573311 
L 156.401041 51.573311 
L 156.516243 50.038934 
L 366.04224 50.038934 
L 366.157442 46.970182 
L 398.487273 46.970182 
L 398.487273 46.970182 
" clip-path="url(#p0de2404189)" style="fill: none; stroke: #2ca02c; stroke-width: 1.5; stroke-linecap: square"/>
   </g>
   <g id="line2d_15">
    <path d="M 73.832727 73.156871 
L 73.837964 73.156871 
L 73.953166 83.130317 
L 73.963638 82.1074 
L 74.084077 80.726461 
L 74.089313 80.726461 
L 74.204515 79.703543 
L 74.319717 79.703543 
L 74.356372 78.936355 
L 74.361609 82.005108 
L 74.413973 82.005108 
L 74.560594 82.005108 
L 74.675795 80.98219 
L 74.969037 80.98219 
L 75.089475 78.936355 
L 75.220386 78.936355 
L 75.335588 78.169167 
L 75.77545 78.169167 
L 75.812105 81.23792 
L 75.885415 80.470732 
L 76.382877 80.470732 
L 76.498079 79.703543 
L 76.581863 79.703543 
L 76.697064 78.680626 
L 76.937941 78.680626 
L 77.053143 77.657708 
L 77.707699 77.657708 
L 77.822901 76.89052 
L 78.016649 76.89052 
L 78.131851 76.123332 
L 78.56124 76.123332 
L 78.676442 75.100414 
L 78.72357 75.100414 
L 78.765461 78.169167 
L 78.833535 77.146249 
L 79.042993 77.146249 
L 79.158195 80.215002 
L 79.477618 80.215002 
L 79.59282 83.283755 
L 81.954458 83.283755 
L 82.06966 82.260837 
L 83.069822 82.260837 
L 83.185024 81.23792 
L 87.374182 81.23792 
L 87.489384 80.470732 
L 90.332775 80.470732 
L 90.447977 79.447814 
L 99.030516 79.447814 
L 99.145717 82.516567 
L 101.915798 82.516567 
L 102.031 81.493649 
L 116.740183 81.493649 
L 116.855385 80.726461 
L 119.573101 80.726461 
L 119.688303 79.959273 
L 156.401041 79.959273 
L 156.516243 83.028025 
L 172.38268 83.028025 
L 172.497882 82.005108 
L 231.832076 82.005108 
L 231.947278 81.23792 
L 252.154731 81.23792 
L 252.269933 80.470732 
L 268.733325 80.470732 
L 268.848527 79.447814 
L 366.04224 79.447814 
L 366.157442 82.516567 
L 398.487273 82.516567 
L 398.487273 82.516567 
" clip-path="url(#p0de2404189)" style="fill: none; stroke: #d62728; stroke-width: 1.5; stroke-linecap: square"/>
   </g>
   <g id="line2d_16">
    <path d="M 73.832727 73.924059 
L 73.947929 72.389683 
L 76.414296 72.389683 
L 76.529498 75.458436 
L 78.72357 75.458436 
L 78.838772 73.924059 
L 156.401041 73.924059 
L 156.516243 72.389683 
L 398.487273 72.389683 
L 398.487273 72.389683 
" clip-path="url(#p0de2404189)" style="fill: none; stroke: #9467bd; stroke-width: 1.5; stroke-linecap: square"/>
   </g>
   <g id="line2d_17">
    <path d="M 73.832727 73.924059 
L 73.869382 73.924059 
L 73.984584 72.901142 
L 73.995057 72.901142 
L 74.110259 72.287391 
L 74.235934 72.287391 
L 74.351136 71.264474 
L 76.414296 71.264474 
L 76.529498 70.650723 
L 109.409156 70.650723 
L 109.524357 69.883535 
L 398.487273 69.883535 
L 398.487273 69.883535 
" clip-path="url(#p0de2404189)" style="fill: none; stroke: #8c564b; stroke-width: 1.5; stroke-linecap: square"/>
   </g>
   <g id="line2d_18">
    <path d="M 73.832727 73.156871 
L 73.953166 95.405328 
L 73.974111 93.615222 
L 74.09455 91.569387 
L 74.214988 91.569387 
L 74.319717 100.775645 
L 74.335426 100.008457 
L 74.356372 100.008457 
L 74.47681 106.145962 
L 74.550121 106.145962 
L 74.560594 109.214715 
L 74.660086 107.168879 
L 74.843362 107.168879 
L 74.958564 110.237632 
L 74.969037 110.237632 
L 75.089475 108.191797 
L 75.220386 108.191797 
L 75.335588 107.424609 
L 75.367007 107.424609 
L 75.482208 110.493362 
L 75.529336 110.493362 
L 75.644538 113.562114 
L 75.77545 113.562114 
L 75.812105 116.630867 
L 75.885415 115.863679 
L 75.92207 115.863679 
L 76.037272 114.840761 
L 76.340986 114.840761 
L 76.414296 113.050655 
L 76.419533 116.119408 
L 76.440478 116.119408 
L 76.581863 116.119408 
L 76.702301 114.073573 
L 76.843685 114.073573 
L 76.937941 117.142326 
L 76.95365 116.119408 
L 77.707699 116.119408 
L 77.822901 115.35222 
L 78.016649 115.35222 
L 78.131851 114.585032 
L 78.56124 114.585032 
L 78.624077 113.562114 
L 78.629314 116.630867 
L 78.660732 116.630867 
L 78.765461 122.768372 
L 78.775934 121.745455 
L 79.042993 121.745455 
L 79.163431 127.88296 
L 79.477618 127.88296 
L 79.59282 130.951712 
L 79.891298 130.951712 
L 80.0065 129.928795 
L 81.954458 129.928795 
L 82.06966 128.905877 
L 83.069822 128.905877 
L 83.185024 127.88296 
L 84.274205 127.88296 
L 84.389407 130.951712 
L 87.374182 130.951712 
L 87.489384 130.184524 
L 90.332775 130.184524 
L 90.447977 129.161607 
L 96.318035 129.161607 
L 96.433237 132.230359 
L 99.030516 132.230359 
L 99.145717 135.299112 
L 101.915798 135.299112 
L 102.031 134.276195 
L 104.371693 134.276195 
L 104.486894 137.344947 
L 108.50325 137.344947 
L 108.618452 136.32203 
L 109.409156 136.32203 
L 109.524357 139.390782 
L 116.740183 139.390782 
L 116.855385 138.623594 
L 119.573101 138.623594 
L 119.688303 137.856406 
L 120.122928 137.856406 
L 120.23813 140.925159 
L 156.401041 140.925159 
L 156.516243 143.993911 
L 172.38268 143.993911 
L 172.497882 142.970994 
L 204.712511 142.970994 
L 204.827713 141.948076 
L 231.832076 141.948076 
L 231.947278 141.180888 
L 237.623587 141.180888 
L 237.738789 144.249641 
L 251.243589 144.249641 
L 251.358791 147.318393 
L 252.154731 147.318393 
L 252.269933 146.551205 
L 268.733325 146.551205 
L 268.848527 145.528288 
L 284.688783 145.528288 
L 284.803985 148.59704 
L 366.04224 148.59704 
L 366.157442 151.665793 
L 398.487273 151.665793 
L 398.487273 151.665793 
" clip-path="url(#p0de2404189)" style="fill: none; stroke: #e377c2; stroke-width: 1.5; stroke-linecap: square"/>
   </g>
   <g id="line2d_19">
    <path d="M 73.832727 73.924059 
L 73.85891 73.924059 
L 73.974111 69.832389 
L 73.995057 69.832389 
L 74.110259 69.218638 
L 74.235934 69.218638 
L 74.351136 68.195721 
L 76.414296 68.195721 
L 76.529498 67.58197 
L 109.409156 67.58197 
L 109.524357 66.814782 
L 398.487273 66.814782 
L 398.487273 66.814782 
" clip-path="url(#p0de2404189)" style="fill: none; stroke: #7f7f7f; stroke-width: 1.5; stroke-linecap: square"/>
   </g>
   <g id="line2d_20">
    <path d="M 73.832727 73.156871 
L 73.953166 95.405328 
L 73.974111 93.615222 
L 74.09455 91.569387 
L 74.178333 91.569387 
L 74.304008 100.775645 
L 74.31448 100.775645 
L 74.434919 107.680338 
L 74.550121 107.680338 
L 74.560594 110.749091 
L 74.660086 108.703256 
L 74.843362 108.703256 
L 74.958564 111.772008 
L 74.969037 111.772008 
L 75.089475 109.726173 
L 75.220386 109.726173 
L 75.335588 108.958985 
L 75.367007 108.958985 
L 75.482208 112.027738 
L 75.529336 112.027738 
L 75.644538 115.09649 
L 75.77545 115.09649 
L 75.812105 118.165243 
L 75.885415 117.398055 
L 75.92207 117.398055 
L 76.037272 116.375137 
L 76.340986 116.375137 
L 76.414296 114.585032 
L 76.419533 117.653784 
L 76.440478 117.653784 
L 76.581863 117.653784 
L 76.702301 115.607949 
L 76.759902 115.607949 
L 76.88034 121.745455 
L 76.937941 121.745455 
L 77.053143 120.722537 
L 77.707699 120.722537 
L 77.822901 119.955349 
L 78.016649 119.955349 
L 78.131851 119.188161 
L 78.158033 119.188161 
L 78.273235 122.256913 
L 78.56124 122.256913 
L 78.624077 121.233996 
L 78.629314 124.302748 
L 78.660732 124.302748 
L 78.765461 130.440254 
L 78.775934 129.417336 
L 79.042993 129.417336 
L 79.163431 135.554841 
L 79.477618 135.554841 
L 79.59282 138.623594 
L 79.891298 138.623594 
L 80.0065 137.600677 
L 81.158518 137.600677 
L 81.27372 136.0663 
L 81.954458 136.0663 
L 82.06966 135.043383 
L 83.069822 135.043383 
L 83.185024 134.020465 
L 83.478265 134.020465 
L 83.593467 132.486089 
L 84.22184 132.486089 
L 84.274205 130.951712 
L 84.279441 134.020465 
L 84.326569 134.020465 
L 87.374182 134.020465 
L 87.489384 133.253277 
L 90.332775 133.253277 
L 90.453214 130.695983 
L 96.318035 130.695983 
L 96.433237 133.764736 
L 99.030516 133.764736 
L 99.145717 136.833488 
L 101.915798 136.833488 
L 102.031 135.810571 
L 104.371693 135.810571 
L 104.486894 138.879323 
L 108.50325 138.879323 
L 108.618452 137.856406 
L 109.409156 137.856406 
L 109.524357 140.925159 
L 116.740183 140.925159 
L 116.855385 140.15797 
L 119.573101 140.15797 
L 119.688303 139.390782 
L 120.122928 139.390782 
L 120.23813 142.459535 
L 132.418109 142.459535 
L 132.53331 140.925159 
L 156.401041 140.925159 
L 156.516243 143.993911 
L 172.38268 143.993911 
L 172.497882 142.970994 
L 177.530109 142.970994 
L 177.645311 141.436617 
L 204.712511 141.436617 
L 204.827713 140.4137 
L 231.832076 140.4137 
L 231.947278 139.646512 
L 237.623587 139.646512 
L 237.738789 142.715264 
L 251.243589 142.715264 
L 251.358791 145.784017 
L 252.154731 145.784017 
L 252.269933 145.016829 
L 267.41374 145.016829 
L 267.528942 143.482452 
L 268.733325 143.482452 
L 268.848527 142.459535 
L 284.688783 142.459535 
L 284.803985 145.528288 
L 366.04224 145.528288 
L 366.157442 148.59704 
L 398.487273 148.59704 
L 398.487273 148.59704 
" clip-path="url(#p0de2404189)" style="fill: none; stroke: #bcbd22; stroke-width: 1.5; stroke-linecap: square"/>
   </g>
   <g id="line2d_21">
    <path d="M 73.832727 73.156871 
L 73.958402 84.408964 
L 73.963638 84.408964 
L 74.089313 82.005108 
L 74.209752 88.142613 
L 74.214988 88.142613 
L 74.319717 85.07386 
L 74.324953 88.142613 
L 74.356372 88.142613 
L 74.372081 91.211366 
L 74.382554 86.608237 
L 74.461101 86.608237 
L 74.550121 86.608237 
L 74.560594 83.539484 
L 74.660086 85.585319 
L 74.843362 85.585319 
L 74.958564 84.050943 
L 74.969037 84.050943 
L 75.089475 90.188448 
L 75.220386 90.188448 
L 75.335588 93.257201 
L 75.367007 93.257201 
L 75.482208 90.188448 
L 75.529336 90.188448 
L 75.644538 88.654072 
L 75.77545 88.654072 
L 75.895888 94.791577 
L 75.92207 94.791577 
L 76.037272 93.76866 
L 76.340986 93.76866 
L 76.382877 92.745742 
L 76.388114 95.814495 
L 76.440478 95.200744 
L 76.581863 95.200744 
L 76.665646 98.269497 
L 76.691828 97.246579 
L 76.759902 97.246579 
L 76.88034 91.109074 
L 76.937941 91.109074 
L 77.053143 94.177827 
L 77.707699 94.177827 
L 77.822901 97.246579 
L 78.016649 97.246579 
L 78.131851 100.315332 
L 78.158033 100.315332 
L 78.273235 97.246579 
L 78.56124 97.246579 
L 78.624077 100.315332 
L 78.665969 94.177827 
L 78.72357 94.177827 
L 78.844008 100.315332 
L 79.042993 100.315332 
L 79.100594 103.384085 
L 79.152959 100.315332 
L 79.477618 100.315332 
L 79.59282 103.384085 
L 79.891298 103.384085 
L 80.0065 102.361167 
L 81.158518 102.361167 
L 81.27372 100.826791 
L 81.954458 100.826791 
L 82.06966 103.895543 
L 83.069822 103.895543 
L 83.185024 106.964296 
L 83.478265 106.964296 
L 83.593467 105.42992 
L 84.22184 105.42992 
L 84.347515 100.826791 
L 87.374182 100.826791 
L 87.489384 103.895543 
L 90.332775 103.895543 
L 90.36943 106.964296 
L 90.442741 105.42992 
L 96.318035 105.42992 
L 96.433237 102.361167 
L 99.030516 102.361167 
L 99.145717 105.42992 
L 101.915798 105.42992 
L 102.031 108.498672 
L 104.371693 108.498672 
L 104.486894 105.42992 
L 108.50325 105.42992 
L 108.618452 104.407002 
L 116.740183 104.407002 
L 116.855385 107.475755 
L 119.573101 107.475755 
L 119.688303 110.544507 
L 120.122928 110.544507 
L 120.23813 107.475755 
L 132.418109 107.475755 
L 132.53331 105.941378 
L 156.401041 105.941378 
L 156.516243 109.010131 
L 172.38268 109.010131 
L 172.497882 112.078884 
L 177.530109 112.078884 
L 177.645311 110.544507 
L 204.712511 110.544507 
L 204.827713 109.52159 
L 231.832076 109.52159 
L 231.947278 112.590342 
L 237.623587 112.590342 
L 237.738789 109.52159 
L 251.243589 109.52159 
L 251.358791 106.452837 
L 252.154731 106.452837 
L 252.269933 109.52159 
L 267.41374 109.52159 
L 267.528942 107.987214 
L 268.733325 107.987214 
L 268.848527 111.055966 
L 284.688783 111.055966 
L 284.803985 107.987214 
L 366.04224 107.987214 
L 366.157442 111.055966 
L 398.487273 111.055966 
L 398.487273 111.055966 
" clip-path="url(#p0de2404189)" style="fill: none; stroke: #17becf; stroke-width: 1.5; stroke-linecap: square"/>
   </g>
   <g id="line2d_22">
    <path d="M 73.832727 73.924059 
L 73.869382 73.924059 
L 73.984584 76.992812 
L 73.995057 76.992812 
L 74.110259 80.061564 
L 74.235934 80.061564 
L 74.351136 83.130317 
L 76.414296 83.130317 
L 76.529498 86.19907 
L 109.409156 86.19907 
L 109.524357 89.267822 
L 398.487273 89.267822 
L 398.487273 89.267822 
" clip-path="url(#p0de2404189)" style="fill: none; stroke: #1f77b4; stroke-width: 1.5; stroke-linecap: square"/>
   </g>
   <g id="line2d_23">
    <path d="M 73.832727 76.992812 
L 73.837964 76.992812 
L 73.979348 95.916786 
L 73.984584 95.916786 
L 74.105023 102.054292 
L 74.372081 102.054292 
L 74.487283 105.123044 
L 74.628667 105.123044 
L 74.743869 108.191797 
L 75.92207 108.191797 
L 76.037272 111.26055 
L 76.340986 111.26055 
L 76.414296 114.329302 
L 76.456188 113.715552 
L 76.665646 113.715552 
L 76.780848 116.784304 
L 79.891298 116.784304 
L 80.0065 119.853057 
L 81.158518 119.853057 
L 81.27372 122.92181 
L 83.478265 122.92181 
L 83.593467 125.990562 
L 84.22184 125.990562 
L 84.337042 129.059315 
L 90.36943 129.059315 
L 90.484632 132.128068 
L 108.50325 132.128068 
L 108.618452 135.19682 
L 132.418109 135.19682 
L 132.53331 138.265573 
L 177.530109 138.265573 
L 177.645311 141.334326 
L 204.712511 141.334326 
L 204.827713 144.403078 
L 267.41374 144.403078 
L 267.528942 147.471831 
L 398.487273 147.471831 
L 398.487273 147.471831 
" clip-path="url(#p0de2404189)" style="fill: none; stroke: #ff7f0e; stroke-width: 1.5; stroke-linecap: square"/>
   </g>
   <g id="patch_3">
    <path d="M 57.6 162.432 
L 57.6 41.472 
" style="fill: none; stroke: #000000; stroke-width: 0.8; stroke-linejoin: miter; stroke-linecap: square"/>
   </g>
   <g id="patch_4">
    <path d="M 414.72 162.432 
L 414.72 41.472 
" style="fill: none; stroke: #000000; stroke-width: 0.8; stroke-linejoin: miter; stroke-linecap: square"/>
   </g>
   <g id="patch_5">
    <path d="M 57.6 162.432 
L 414.72 162.432 
" style="fill: none; stroke: #000000; stroke-width: 0.8; stroke-linejoin: miter; stroke-linecap: square"/>
   </g>
   <g id="patch_6">
    <path d="M 57.6 41.472 
L 414.72 41.472 
" style="fill: none; stroke: #000000; stroke-width: 0.8; stroke-linejoin: miter; stroke-linecap: square"/>
   </g>
   <g id="text_12">
    <!-- WSP -->
    <g transform="translate(361.832136 156.933818)scale(0.08 -0.08)">
     <defs>
      <path id="DejaVuSans-57" d="M 213 4666 
L 850 4666 
L 1831 722 
L 2809 4666 
L 3519 4666 
L 4500 722 
L 5478 4666 
L 6119 4666 
L 4947 0 
L 4153 0 
L 3169 4050 
L 2175 0 
L 1381 0 
L 213 4666 
z
" transform="scale(0.015625)"/>
      <path id="DejaVuSans-53" d="M 3425 4513 
L 3425 3897 
Q 3066 4069 2747 4153 
Q 2428 4238 2131 4238 
Q 1616 4238 1336 4038 
Q 1056 3838 1056 3469 
Q 1056 3159 1242 3001 
Q 1428 2844 1947 2747 
L 2328 2669 
Q 3034 2534 3370 2195 
Q 3706 1856 3706 1288 
Q 3706 609 3251 259 
Q 2797 -91 1919 -91 
Q 1588 -91 1214 -16 
Q 841 59 441 206 
L 441 856 
Q 825 641 1194 531 
Q 1563 422 1919 422 
Q 2459 422 2753 634 
Q 3047 847 3047 1241 
Q 3047 1584 2836 1778 
Q 2625 1972 2144 2069 
L 1759 2144 
Q 1053 2284 737 2584 
Q 422 2884 422 3419 
Q 422 4038 858 4394 
Q 1294 4750 2059 4750 
Q 2388 4750 2728 4690 
Q 3069 4631 3425 4513 
z
" transform="scale(0.015625)"/>
      <path id="DejaVuSans-50" d="M 1259 4147 
L 1259 2394 
L 2053 2394 
Q 2494 2394 2734 2622 
Q 2975 2850 2975 3272 
Q 2975 3691 2734 3919 
Q 2494 4147 2053 4147 
L 1259 4147 
z
M 628 4666 
L 2053 4666 
Q 2838 4666 3239 4311 
Q 3641 3956 3641 3272 
Q 3641 2581 3239 2228 
Q 2838 1875 2053 1875 
L 1259 1875 
L 1259 0 
L 628 0 
L 628 4666 
z
" transform="scale(0.015625)"/>
     </defs>
     <use xlink:href="#DejaVuSans-57"/>
     <use xlink:href="#DejaVuSans-53" x="98.876953"/>
     <use xlink:href="#DejaVuSans-50" x="162.353516"/>
    </g>
   </g>
   <g id="text_13">
    <!-- Iambic -->
    <g transform="translate(361.832136 74.946977)scale(0.08 -0.08)">
     <defs>
      <path id="DejaVuSans-49" d="M 628 4666 
L 1259 4666 
L 1259 0 
L 628 0 
L 628 4666 
z
" transform="scale(0.015625)"/>
      <path id="DejaVuSans-61" d="M 2194 1759 
Q 1497 1759 1228 1600 
Q 959 1441 959 1056 
Q 959 750 1161 570 
Q 1363 391 1709 391 
Q 2188 391 2477 730 
Q 2766 1069 2766 1631 
L 2766 1759 
L 2194 1759 
z
M 3341 1997 
L 3341 0 
L 2766 0 
L 2766 531 
Q 2569 213 2275 61 
Q 1981 -91 1556 -91 
Q 1019 -91 701 211 
Q 384 513 384 1019 
Q 384 1609 779 1909 
Q 1175 2209 1959 2209 
L 2766 2209 
L 2766 2266 
Q 2766 2663 2505 2880 
Q 2244 3097 1772 3097 
Q 1472 3097 1187 3025 
Q 903 2953 641 2809 
L 641 3341 
Q 956 3463 1253 3523 
Q 1550 3584 1831 3584 
Q 2591 3584 2966 3190 
Q 3341 2797 3341 1997 
z
" transform="scale(0.015625)"/>
      <path id="DejaVuSans-6d" d="M 3328 2828 
Q 3544 3216 3844 3400 
Q 4144 3584 4550 3584 
Q 5097 3584 5394 3201 
Q 5691 2819 5691 2113 
L 5691 0 
L 5113 0 
L 5113 2094 
Q 5113 2597 4934 2840 
Q 4756 3084 4391 3084 
Q 3944 3084 3684 2787 
Q 3425 2491 3425 1978 
L 3425 0 
L 2847 0 
L 2847 2094 
Q 2847 2600 2669 2842 
Q 2491 3084 2119 3084 
Q 1678 3084 1418 2786 
Q 1159 2488 1159 1978 
L 1159 0 
L 581 0 
L 581 3500 
L 1159 3500 
L 1159 2956 
Q 1356 3278 1631 3431 
Q 1906 3584 2284 3584 
Q 2666 3584 2933 3390 
Q 3200 3197 3328 2828 
z
" transform="scale(0.015625)"/>
      <path id="DejaVuSans-62" d="M 3116 1747 
Q 3116 2381 2855 2742 
Q 2594 3103 2138 3103 
Q 1681 3103 1420 2742 
Q 1159 2381 1159 1747 
Q 1159 1113 1420 752 
Q 1681 391 2138 391 
Q 2594 391 2855 752 
Q 3116 1113 3116 1747 
z
M 1159 2969 
Q 1341 3281 1617 3432 
Q 1894 3584 2278 3584 
Q 2916 3584 3314 3078 
Q 3713 2572 3713 1747 
Q 3713 922 3314 415 
Q 2916 -91 2278 -91 
Q 1894 -91 1617 61 
Q 1341 213 1159 525 
L 1159 0 
L 581 0 
L 581 4863 
L 1159 4863 
L 1159 2969 
z
" transform="scale(0.015625)"/>
      <path id="DejaVuSans-69" d="M 603 3500 
L 1178 3500 
L 1178 0 
L 603 0 
L 603 3500 
z
M 603 4863 
L 1178 4863 
L 1178 4134 
L 603 4134 
L 603 4863 
z
" transform="scale(0.015625)"/>
      <path id="DejaVuSans-63" d="M 3122 3366 
L 3122 2828 
Q 2878 2963 2633 3030 
Q 2388 3097 2138 3097 
Q 1578 3097 1268 2742 
Q 959 2388 959 1747 
Q 959 1106 1268 751 
Q 1578 397 2138 397 
Q 2388 397 2633 464 
Q 2878 531 3122 666 
L 3122 134 
Q 2881 22 2623 -34 
Q 2366 -91 2075 -91 
Q 1284 -91 818 406 
Q 353 903 353 1747 
Q 353 2603 823 3093 
Q 1294 3584 2113 3584 
Q 2378 3584 2631 3529 
Q 2884 3475 3122 3366 
z
" transform="scale(0.015625)"/>
     </defs>
     <use xlink:href="#DejaVuSans-49"/>
     <use xlink:href="#DejaVuSans-61" x="29.492188"/>
     <use xlink:href="#DejaVuSans-6d" x="90.771484"/>
     <use xlink:href="#DejaVuSans-62" x="188.183594"/>
     <use xlink:href="#DejaVuSans-69" x="251.660156"/>
     <use xlink:href="#DejaVuSans-63" x="279.443359"/>
    </g>
   </g>
   <g id="text_14">
    <!-- Parse -->
    <g transform="translate(361.832136 46.970182)scale(0.08 -0.08)">
     <defs>
      <path id="DejaVuSans-72" d="M 2631 2963 
Q 2534 3019 2420 3045 
Q 2306 3072 2169 3072 
Q 1681 3072 1420 2755 
Q 1159 2438 1159 1844 
L 1159 0 
L 581 0 
L 581 3500 
L 1159 3500 
L 1159 2956 
Q 1341 3275 1631 3429 
Q 1922 3584 2338 3584 
Q 2397 3584 2469 3576 
Q 2541 3569 2628 3553 
L 2631 2963 
z
" transform="scale(0.015625)"/>
      <path id="DejaVuSans-73" d="M 2834 3397 
L 2834 2853 
Q 2591 2978 2328 3040 
Q 2066 3103 1784 3103 
Q 1356 3103 1142 2972 
Q 928 2841 928 2578 
Q 928 2378 1081 2264 
Q 1234 2150 1697 2047 
L 1894 2003 
Q 2506 1872 2764 1633 
Q 3022 1394 3022 966 
Q 3022 478 2636 193 
Q 2250 -91 1575 -91 
Q 1294 -91 989 -36 
Q 684 19 347 128 
L 347 722 
Q 666 556 975 473 
Q 1284 391 1588 391 
Q 1994 391 2212 530 
Q 2431 669 2431 922 
Q 2431 1156 2273 1281 
Q 2116 1406 1581 1522 
L 1381 1569 
Q 847 1681 609 1914 
Q 372 2147 372 2553 
Q 372 3047 722 3315 
Q 1072 3584 1716 3584 
Q 2034 3584 2315 3537 
Q 2597 3491 2834 3397 
z
" transform="scale(0.015625)"/>
      <path id="DejaVuSans-65" d="M 3597 1894 
L 3597 1613 
L 953 1613 
Q 991 1019 1311 708 
Q 1631 397 2203 397 
Q 2534 397 2845 478 
Q 3156 559 3463 722 
L 3463 178 
Q 3153 47 2828 -22 
Q 2503 -91 2169 -91 
Q 1331 -91 842 396 
Q 353 884 353 1716 
Q 353 2575 817 3079 
Q 1281 3584 2069 3584 
Q 2775 3584 3186 3129 
Q 3597 2675 3597 1894 
z
M 3022 2063 
Q 3016 2534 2758 2815 
Q 2500 3097 2075 3097 
Q 1594 3097 1305 2825 
Q 1016 2553 972 2059 
L 3022 2063 
z
" transform="scale(0.015625)"/>
     </defs>
     <use xlink:href="#DejaVuSans-50"/>
     <use xlink:href="#DejaVuSans-61" x="55.802734"/>
     <use xlink:href="#DejaVuSans-72" x="117.082031"/>
     <use xlink:href="#DejaVuSans-73" x="158.195312"/>
     <use xlink:href="#DejaVuSans-65" x="210.294922"/>
    </g>
   </g>
   <g id="text_15">
    <!-- FootBin -->
    <g transform="translate(361.832136 82.516567)scale(0.08 -0.08)">
     <defs>
      <path id="DejaVuSans-46" d="M 628 4666 
L 3309 4666 
L 3309 4134 
L 1259 4134 
L 1259 2759 
L 3109 2759 
L 3109 2228 
L 1259 2228 
L 1259 0 
L 628 0 
L 628 4666 
z
" transform="scale(0.015625)"/>
      <path id="DejaVuSans-6f" d="M 1959 3097 
Q 1497 3097 1228 2736 
Q 959 2375 959 1747 
Q 959 1119 1226 758 
Q 1494 397 1959 397 
Q 2419 397 2687 759 
Q 2956 1122 2956 1747 
Q 2956 2369 2687 2733 
Q 2419 3097 1959 3097 
z
M 1959 3584 
Q 2709 3584 3137 3096 
Q 3566 2609 3566 1747 
Q 3566 888 3137 398 
Q 2709 -91 1959 -91 
Q 1206 -91 779 398 
Q 353 888 353 1747 
Q 353 2609 779 3096 
Q 1206 3584 1959 3584 
z
" transform="scale(0.015625)"/>
      <path id="DejaVuSans-74" d="M 1172 4494 
L 1172 3500 
L 2356 3500 
L 2356 3053 
L 1172 3053 
L 1172 1153 
Q 1172 725 1289 603 
Q 1406 481 1766 481 
L 2356 481 
L 2356 0 
L 1766 0 
Q 1100 0 847 248 
Q 594 497 594 1153 
L 594 3053 
L 172 3053 
L 172 3500 
L 594 3500 
L 594 4494 
L 1172 4494 
z
" transform="scale(0.015625)"/>
      <path id="DejaVuSans-42" d="M 1259 2228 
L 1259 519 
L 2272 519 
Q 2781 519 3026 730 
Q 3272 941 3272 1375 
Q 3272 1813 3026 2020 
Q 2781 2228 2272 2228 
L 1259 2228 
z
M 1259 4147 
L 1259 2741 
L 2194 2741 
Q 2656 2741 2882 2914 
Q 3109 3088 3109 3444 
Q 3109 3797 2882 3972 
Q 2656 4147 2194 4147 
L 1259 4147 
z
M 628 4666 
L 2241 4666 
Q 2963 4666 3353 4366 
Q 3744 4066 3744 3513 
Q 3744 3084 3544 2831 
Q 3344 2578 2956 2516 
Q 3422 2416 3680 2098 
Q 3938 1781 3938 1306 
Q 3938 681 3513 340 
Q 3088 0 2303 0 
L 628 0 
L 628 4666 
z
" transform="scale(0.015625)"/>
      <path id="DejaVuSans-6e" d="M 3513 2113 
L 3513 0 
L 2938 0 
L 2938 2094 
Q 2938 2591 2744 2837 
Q 2550 3084 2163 3084 
Q 1697 3084 1428 2787 
Q 1159 2491 1159 1978 
L 1159 0 
L 581 0 
L 581 3500 
L 1159 3500 
L 1159 2956 
Q 1366 3272 1645 3428 
Q 1925 3584 2291 3584 
Q 2894 3584 3203 3211 
Q 3513 2838 3513 2113 
z
" transform="scale(0.015625)"/>
     </defs>
     <use xlink:href="#DejaVuSans-46"/>
     <use xlink:href="#DejaVuSans-6f" x="53.894531"/>
     <use xlink:href="#DejaVuSans-6f" x="115.076172"/>
     <use xlink:href="#DejaVuSans-74" x="176.257812"/>
     <use xlink:href="#DejaVuSans-42" x="215.466797"/>
     <use xlink:href="#DejaVuSans-69" x="284.070312"/>
     <use xlink:href="#DejaVuSans-6e" x="311.853516"/>
    </g>
   </g>
   <g id="text_16">
    <!-- WFL -->
    <g transform="translate(361.832136 72.389683)scale(0.08 -0.08)">
     <defs>
      <path id="DejaVuSans-4c" d="M 628 4666 
L 1259 4666 
L 1259 531 
L 3531 531 
L 3531 0 
L 628 0 
L 628 4666 
z
" transform="scale(0.015625)"/>
     </defs>
     <use xlink:href="#DejaVuSans-57"/>
     <use xlink:href="#DejaVuSans-46" x="98.876953"/>
     <use xlink:href="#DejaVuSans-4c" x="156.396484"/>
    </g>
   </g>
   <g id="text_17">
    <!-- WFR -->
    <g transform="translate(361.832136 69.883535)scale(0.08 -0.08)">
     <defs>
      <path id="DejaVuSans-52" d="M 2841 2188 
Q 3044 2119 3236 1894 
Q 3428 1669 3622 1275 
L 4263 0 
L 3584 0 
L 2988 1197 
Q 2756 1666 2539 1819 
Q 2322 1972 1947 1972 
L 1259 1972 
L 1259 0 
L 628 0 
L 628 4666 
L 2053 4666 
Q 2853 4666 3247 4331 
Q 3641 3997 3641 3322 
Q 3641 2881 3436 2590 
Q 3231 2300 2841 2188 
z
M 1259 4147 
L 1259 2491 
L 2053 2491 
Q 2509 2491 2742 2702 
Q 2975 2913 2975 3322 
Q 2975 3731 2742 3939 
Q 2509 4147 2053 4147 
L 1259 4147 
z
" transform="scale(0.015625)"/>
     </defs>
     <use xlink:href="#DejaVuSans-57"/>
     <use xlink:href="#DejaVuSans-46" x="98.876953"/>
     <use xlink:href="#DejaVuSans-52" x="156.396484"/>
    </g>
   </g>
   <g id="text_18">
    <!-- Main-L -->
    <g transform="translate(361.832136 151.665793)scale(0.08 -0.08)">
     <defs>
      <path id="DejaVuSans-4d" d="M 628 4666 
L 1569 4666 
L 2759 1491 
L 3956 4666 
L 4897 4666 
L 4897 0 
L 4281 0 
L 4281 4097 
L 3078 897 
L 2444 897 
L 1241 4097 
L 1241 0 
L 628 0 
L 628 4666 
z
" transform="scale(0.015625)"/>
      <path id="DejaVuSans-2d" d="M 313 2009 
L 1997 2009 
L 1997 1497 
L 313 1497 
L 313 2009 
z
" transform="scale(0.015625)"/>
     </defs>
     <use xlink:href="#DejaVuSans-4d"/>
     <use xlink:href="#DejaVuSans-61" x="86.279297"/>
     <use xlink:href="#DejaVuSans-69" x="147.558594"/>
     <use xlink:href="#DejaVuSans-6e" x="175.341797"/>
     <use xlink:href="#DejaVuSans-2d" x="238.720703"/>
     <use xlink:href="#DejaVuSans-4c" x="274.804688"/>
    </g>
   </g>
   <g id="text_19">
    <!-- Main-R -->
    <g transform="translate(361.832136 66.814782)scale(0.08 -0.08)">
     <use xlink:href="#DejaVuSans-4d"/>
     <use xlink:href="#DejaVuSans-61" x="86.279297"/>
     <use xlink:href="#DejaVuSans-69" x="147.558594"/>
     <use xlink:href="#DejaVuSans-6e" x="175.341797"/>
     <use xlink:href="#DejaVuSans-2d" x="238.720703"/>
     <use xlink:href="#DejaVuSans-52" x="274.804688"/>
    </g>
   </g>
   <g id="text_20">
    <!-- AFL -->
    <g transform="translate(361.832136 148.59704)scale(0.08 -0.08)">
     <defs>
      <path id="DejaVuSans-41" d="M 2188 4044 
L 1331 1722 
L 3047 1722 
L 2188 4044 
z
M 1831 4666 
L 2547 4666 
L 4325 0 
L 3669 0 
L 3244 1197 
L 1141 1197 
L 716 0 
L 50 0 
L 1831 4666 
z
" transform="scale(0.015625)"/>
     </defs>
     <use xlink:href="#DejaVuSans-41"/>
     <use xlink:href="#DejaVuSans-46" x="68.408203"/>
     <use xlink:href="#DejaVuSans-4c" x="125.927734"/>
    </g>
   </g>
   <g id="text_21">
    <!-- AFR -->
    <g transform="translate(361.832136 111.055966)scale(0.08 -0.08)">
     <use xlink:href="#DejaVuSans-41"/>
     <use xlink:href="#DejaVuSans-46" x="68.408203"/>
     <use xlink:href="#DejaVuSans-52" x="125.927734"/>
    </g>
   </g>
   <g id="text_22">
    <!-- Nonfinal -->
    <g transform="translate(361.832136 89.267822)scale(0.08 -0.08)">
     <defs>
      <path id="DejaVuSans-4e" d="M 628 4666 
L 1478 4666 
L 3547 763 
L 3547 4666 
L 4159 4666 
L 4159 0 
L 3309 0 
L 1241 3903 
L 1241 0 
L 628 0 
L 628 4666 
z
" transform="scale(0.015625)"/>
      <path id="DejaVuSans-66" d="M 2375 4863 
L 2375 4384 
L 1825 4384 
Q 1516 4384 1395 4259 
Q 1275 4134 1275 3809 
L 1275 3500 
L 2222 3500 
L 2222 3053 
L 1275 3053 
L 1275 0 
L 697 0 
L 697 3053 
L 147 3053 
L 147 3500 
L 697 3500 
L 697 3744 
Q 697 4328 969 4595 
Q 1241 4863 1831 4863 
L 2375 4863 
z
" transform="scale(0.015625)"/>
      <path id="DejaVuSans-6c" d="M 603 4863 
L 1178 4863 
L 1178 0 
L 603 0 
L 603 4863 
z
" transform="scale(0.015625)"/>
     </defs>
     <use xlink:href="#DejaVuSans-4e"/>
     <use xlink:href="#DejaVuSans-6f" x="74.804688"/>
     <use xlink:href="#DejaVuSans-6e" x="135.986328"/>
     <use xlink:href="#DejaVuSans-66" x="199.365234"/>
     <use xlink:href="#DejaVuSans-69" x="234.570312"/>
     <use xlink:href="#DejaVuSans-6e" x="262.353516"/>
     <use xlink:href="#DejaVuSans-61" x="325.732422"/>
     <use xlink:href="#DejaVuSans-6c" x="387.011719"/>
    </g>
   </g>
   <g id="text_23">
    <!-- Trochaic -->
    <g transform="translate(361.832136 147.471831)scale(0.08 -0.08)">
     <defs>
      <path id="DejaVuSans-54" d="M -19 4666 
L 3928 4666 
L 3928 4134 
L 2272 4134 
L 2272 0 
L 1638 0 
L 1638 4134 
L -19 4134 
L -19 4666 
z
" transform="scale(0.015625)"/>
      <path id="DejaVuSans-68" d="M 3513 2113 
L 3513 0 
L 2938 0 
L 2938 2094 
Q 2938 2591 2744 2837 
Q 2550 3084 2163 3084 
Q 1697 3084 1428 2787 
Q 1159 2491 1159 1978 
L 1159 0 
L 581 0 
L 581 4863 
L 1159 4863 
L 1159 2956 
Q 1366 3272 1645 3428 
Q 1925 3584 2291 3584 
Q 2894 3584 3203 3211 
Q 3513 2838 3513 2113 
z
" transform="scale(0.015625)"/>
     </defs>
     <use xlink:href="#DejaVuSans-54"/>
     <use xlink:href="#DejaVuSans-72" x="46.333984"/>
     <use xlink:href="#DejaVuSans-6f" x="85.197266"/>
     <use xlink:href="#DejaVuSans-63" x="146.378906"/>
     <use xlink:href="#DejaVuSans-68" x="201.359375"/>
     <use xlink:href="#DejaVuSans-61" x="264.738281"/>
     <use xlink:href="#DejaVuSans-69" x="326.017578"/>
     <use xlink:href="#DejaVuSans-63" x="353.800781"/>
    </g>
   </g>
  </g>
  <g id="axes_2">
   <g id="patch_7">
    <path d="M 57.6 307.584 
L 414.72 307.584 
L 414.72 186.624 
L 57.6 186.624 
z
" style="fill: #ffffff"/>
   </g>
   <g id="matplotlib.axis_3">
    <g id="xtick_8">
     <g id="line2d_24">
      <g>
       <use xlink:href="#md3a025b5c9" x="70.184923" y="307.584" style="stroke: #000000; stroke-width: 0.8"/>
      </g>
     </g>
     <g id="text_24">
      <!-- 0 -->
      <g transform="translate(67.003673 322.182437)scale(0.1 -0.1)">
       <use xlink:href="#DejaVuSans-30"/>
      </g>
     </g>
    </g>
    <g id="xtick_9">
     <g id="line2d_25">
      <g>
       <use xlink:href="#md3a025b5c9" x="143.141001" y="307.584" style="stroke: #000000; stroke-width: 0.8"/>
      </g>
     </g>
     <g id="text_25">
      <!-- 20 -->
      <g transform="translate(136.778501 322.182437)scale(0.1 -0.1)">
       <use xlink:href="#DejaVuSans-32"/>
       <use xlink:href="#DejaVuSans-30" x="63.623047"/>
      </g>
     </g>
    </g>
    <g id="xtick_10">
     <g id="line2d_26">
      <g>
       <use xlink:href="#md3a025b5c9" x="216.097079" y="307.584" style="stroke: #000000; stroke-width: 0.8"/>
      </g>
     </g>
     <g id="text_26">
      <!-- 40 -->
      <g transform="translate(209.734579 322.182437)scale(0.1 -0.1)">
       <use xlink:href="#DejaVuSans-34"/>
       <use xlink:href="#DejaVuSans-30" x="63.623047"/>
      </g>
     </g>
    </g>
    <g id="xtick_11">
     <g id="line2d_27">
      <g>
       <use xlink:href="#md3a025b5c9" x="289.053156" y="307.584" style="stroke: #000000; stroke-width: 0.8"/>
      </g>
     </g>
     <g id="text_27">
      <!-- 60 -->
      <g transform="translate(282.690656 322.182437)scale(0.1 -0.1)">
       <use xlink:href="#DejaVuSans-36"/>
       <use xlink:href="#DejaVuSans-30" x="63.623047"/>
      </g>
     </g>
    </g>
    <g id="xtick_12">
     <g id="line2d_28">
      <g>
       <use xlink:href="#md3a025b5c9" x="362.009234" y="307.584" style="stroke: #000000; stroke-width: 0.8"/>
      </g>
     </g>
     <g id="text_28">
      <!-- 80 -->
      <g transform="translate(355.646734 322.182437)scale(0.1 -0.1)">
       <use xlink:href="#DejaVuSans-38"/>
       <use xlink:href="#DejaVuSans-30" x="63.623047"/>
      </g>
     </g>
    </g>
   </g>
   <g id="matplotlib.axis_4">
    <g id="ytick_5">
     <g id="line2d_29">
      <g>
       <use xlink:href="#m8324bea4bf" x="57.6" y="302.092897" style="stroke: #000000; stroke-width: 0.8"/>
      </g>
     </g>
     <g id="text_29">
      <!-- 0 -->
      <g transform="translate(44.2375 305.892115)scale(0.1 -0.1)">
       <use xlink:href="#DejaVuSans-30"/>
      </g>
     </g>
    </g>
    <g id="ytick_6">
     <g id="line2d_30">
      <g>
       <use xlink:href="#m8324bea4bf" x="57.6" y="266.700674" style="stroke: #000000; stroke-width: 0.8"/>
      </g>
     </g>
     <g id="text_30">
      <!-- 5000 -->
      <g transform="translate(25.15 270.499893)scale(0.1 -0.1)">
       <use xlink:href="#DejaVuSans-35"/>
       <use xlink:href="#DejaVuSans-30" x="63.623047"/>
       <use xlink:href="#DejaVuSans-30" x="127.246094"/>
       <use xlink:href="#DejaVuSans-30" x="190.869141"/>
      </g>
     </g>
    </g>
    <g id="ytick_7">
     <g id="line2d_31">
      <g>
       <use xlink:href="#m8324bea4bf" x="57.6" y="231.308451" style="stroke: #000000; stroke-width: 0.8"/>
      </g>
     </g>
     <g id="text_31">
      <!-- 10000 -->
      <g transform="translate(18.7875 235.10767)scale(0.1 -0.1)">
       <use xlink:href="#DejaVuSans-31"/>
       <use xlink:href="#DejaVuSans-30" x="63.623047"/>
       <use xlink:href="#DejaVuSans-30" x="127.246094"/>
       <use xlink:href="#DejaVuSans-30" x="190.869141"/>
       <use xlink:href="#DejaVuSans-30" x="254.492188"/>
      </g>
     </g>
    </g>
    <g id="ytick_8">
     <g id="line2d_32">
      <g>
       <use xlink:href="#m8324bea4bf" x="57.6" y="195.916228" style="stroke: #000000; stroke-width: 0.8"/>
      </g>
     </g>
     <g id="text_32">
      <!-- 15000 -->
      <g transform="translate(18.7875 199.715447)scale(0.1 -0.1)">
       <use xlink:href="#DejaVuSans-31"/>
       <use xlink:href="#DejaVuSans-35" x="63.623047"/>
       <use xlink:href="#DejaVuSans-30" x="127.246094"/>
       <use xlink:href="#DejaVuSans-30" x="190.869141"/>
       <use xlink:href="#DejaVuSans-30" x="254.492188"/>
      </g>
     </g>
    </g>
   </g>
   <g id="line2d_33">
    <path d="M 73.832727 302.085818 
L 77.480531 302.085818 
L 81.128335 302.07874 
L 84.776139 302.07874 
L 88.423943 302.085818 
L 92.071747 302.085818 
L 95.719551 302.085818 
L 99.367354 302.085818 
L 103.015158 302.07874 
L 106.662962 302.07874 
L 110.310766 302.07874 
L 113.95857 302.085818 
L 117.606374 302.050426 
L 121.254178 302.085818 
L 124.901982 302.07874 
L 128.549785 302.07874 
L 132.197589 302.07874 
L 135.845393 302.07874 
L 139.493197 301.965485 
L 143.141001 301.972563 
L 146.788805 302.043348 
L 150.436609 302.064583 
L 154.084413 301.98672 
L 157.732217 302.085818 
L 161.38002 302.043348 
L 165.027824 302.071661 
L 168.675628 302.085818 
L 172.323432 301.859308 
L 175.971236 302.07874 
L 179.61904 302.000877 
L 183.266844 301.80268 
L 186.914648 301.923014 
L 190.562451 302.07874 
L 194.210255 301.767288 
L 197.858059 301.8947 
L 201.505863 301.873465 
L 205.153667 301.76021 
L 208.801471 302.043348 
L 212.449275 301.944249 
L 216.097079 301.526621 
L 219.744883 302.036269 
L 223.392686 302.050426 
L 227.04049 301.866386 
L 230.688294 301.979642 
L 234.336098 301.965485 
L 237.983902 301.979642 
L 241.631706 301.965485 
L 245.27951 301.052365 
L 248.927314 301.675268 
L 252.575117 301.901779 
L 256.222921 301.547856 
L 259.870725 302.007955 
L 263.518529 302.043348 
L 267.166333 302.007955 
L 270.814137 302.036269 
L 274.461941 301.717739 
L 278.109745 302.015034 
L 281.757549 301.583249 
L 285.405352 301.5337 
L 289.053156 300.379913 
L 292.70096 301.016973 
L 296.348764 300.585188 
L 299.996568 301.540778 
L 303.644372 301.087757 
L 307.292176 302.022112 
L 310.93998 297.902457 
L 314.587783 298.093575 
L 318.235587 302.043348 
L 321.883391 294.051784 
L 325.531195 298.426262 
L 329.178999 298.192674 
L 332.826803 298.773106 
L 336.474607 296.508004 
L 340.122411 300.868326 
L 343.770215 292.183074 
L 347.418018 298.263458 
L 351.065822 301.34966 
L 354.713626 285.472709 
L 358.36143 269.673621 
L 362.009234 280.489484 
L 365.657038 295.134786 
L 369.304842 265.348691 
L 372.952646 265.433632 
L 376.600449 294.264137 
L 380.248253 283.681862 
L 383.896057 300.861247 
L 387.543861 281.466309 
L 391.191665 300.309129 
L 394.839469 280.524876 
L 398.487273 192.122182 
" clip-path="url(#pb71711dc74)" style="fill: none; stroke: #1f77b4; stroke-width: 1.5; stroke-linecap: square"/>
   </g>
   <g id="patch_8">
    <path d="M 57.6 307.584 
L 57.6 186.624 
" style="fill: none; stroke: #000000; stroke-width: 0.8; stroke-linejoin: miter; stroke-linecap: square"/>
   </g>
   <g id="patch_9">
    <path d="M 414.72 307.584 
L 414.72 186.624 
" style="fill: none; stroke: #000000; stroke-width: 0.8; stroke-linejoin: miter; stroke-linecap: square"/>
   </g>
   <g id="patch_10">
    <path d="M 57.6 307.584 
L 414.72 307.584 
" style="fill: none; stroke: #000000; stroke-width: 0.8; stroke-linejoin: miter; stroke-linecap: square"/>
   </g>
   <g id="patch_11">
    <path d="M 57.6 186.624 
L 414.72 186.624 
" style="fill: none; stroke: #000000; stroke-width: 0.8; stroke-linejoin: miter; stroke-linecap: square"/>
   </g>
  </g>
 </g>
 <defs>
  <clipPath id="p0de2404189">
   <rect x="57.6" y="41.472" width="357.12" height="120.96"/>
  </clipPath>
  <clipPath id="pb71711dc74">
   <rect x="57.6" y="186.624" width="357.12" height="120.96"/>
  </clipPath>
 </defs>
</svg>
