<?xml version="1.0" encoding="utf-8" standalone="no"?>
<!DOCTYPE svg PUBLIC "-//W3C//DTD SVG 1.1//EN"
  "http://www.w3.org/Graphics/SVG/1.1/DTD/svg11.dtd">
<svg xmlns:xlink="http://www.w3.org/1999/xlink" width="460.8pt" height="345.6pt" viewBox="0 0 460.8 345.6" xmlns="http://www.w3.org/2000/svg" version="1.1">
 <metadata>
  <rdf:RDF xmlns:dc="http://purl.org/dc/elements/1.1/" xmlns:cc="http://creativecommons.org/ns#" xmlns:rdf="http://www.w3.org/1999/02/22-rdf-syntax-ns#">
   <cc:Work>
    <dc:type rdf:resource="http://purl.org/dc/dcmitype/StillImage"/>
    <dc:date>2022-05-13T13:53:05.905505</dc:date>
    <dc:format>image/svg+xml</dc:format>
    <dc:creator>
     <cc:Agent>
      <dc:title>Matplotlib v3.5.1, https://matplotlib.org/</dc:title>
     </cc:Agent>
    </dc:creator>
   </cc:Work>
  </rdf:RDF>
 </metadata>
 <defs>
  <style type="text/css">*{stroke-linejoin: round; stroke-linecap: butt}</style>
 </defs>
 <g id="figure_1">
  <g id="patch_1">
   <path d="M 0 345.6 
L 460.8 345.6 
L 460.8 0 
L 0 0 
z
" style="fill: #ffffff"/>
  </g>
  <g id="axes_1">
   <g id="patch_2">
    <path d="M 57.6 162.432 
L 414.72 162.432 
L 414.72 41.472 
L 57.6 41.472 
z
" style="fill: #ffffff"/>
   </g>
   <g id="matplotlib.axis_1">
    <g id="xtick_1">
     <g id="line2d_1">
      <defs>
       <path id="mf9d26d2562" d="M 0 0 
L 0 3.5 
" style="stroke: #000000; stroke-width: 0.8"/>
      </defs>
      <g>
       <use xlink:href="#mf9d26d2562" x="73.827491" y="162.432" style="stroke: #000000; stroke-width: 0.8"/>
      </g>
     </g>
     <g id="text_1">
      <!-- 0 -->
      <g transform="translate(70.646241 177.030437)scale(0.1 -0.1)">
       <defs>
        <path id="DejaVuSans-30" d="M 2034 4250 
Q 1547 4250 1301 3770 
Q 1056 3291 1056 2328 
Q 1056 1369 1301 889 
Q 1547 409 2034 409 
Q 2525 409 2770 889 
Q 3016 1369 3016 2328 
Q 3016 3291 2770 3770 
Q 2525 4250 2034 4250 
z
M 2034 4750 
Q 2819 4750 3233 4129 
Q 3647 3509 3647 2328 
Q 3647 1150 3233 529 
Q 2819 -91 2034 -91 
Q 1250 -91 836 529 
Q 422 1150 422 2328 
Q 422 3509 836 4129 
Q 1250 4750 2034 4750 
z
" transform="scale(0.015625)"/>
       </defs>
       <use xlink:href="#DejaVuSans-30"/>
      </g>
     </g>
    </g>
    <g id="xtick_2">
     <g id="line2d_2">
      <g>
       <use xlink:href="#mf9d26d2562" x="126.191972" y="162.432" style="stroke: #000000; stroke-width: 0.8"/>
      </g>
     </g>
     <g id="text_2">
      <!-- 10000 -->
      <g transform="translate(110.285722 177.030437)scale(0.1 -0.1)">
       <defs>
        <path id="DejaVuSans-31" d="M 794 531 
L 1825 531 
L 1825 4091 
L 703 3866 
L 703 4441 
L 1819 4666 
L 2450 4666 
L 2450 531 
L 3481 531 
L 3481 0 
L 794 0 
L 794 531 
z
" transform="scale(0.015625)"/>
       </defs>
       <use xlink:href="#DejaVuSans-31"/>
       <use xlink:href="#DejaVuSans-30" x="63.623047"/>
       <use xlink:href="#DejaVuSans-30" x="127.246094"/>
       <use xlink:href="#DejaVuSans-30" x="190.869141"/>
       <use xlink:href="#DejaVuSans-30" x="254.492188"/>
      </g>
     </g>
    </g>
    <g id="xtick_3">
     <g id="line2d_3">
      <g>
       <use xlink:href="#mf9d26d2562" x="178.556453" y="162.432" style="stroke: #000000; stroke-width: 0.8"/>
      </g>
     </g>
     <g id="text_3">
      <!-- 20000 -->
      <g transform="translate(162.650203 177.030437)scale(0.1 -0.1)">
       <defs>
        <path id="DejaVuSans-32" d="M 1228 531 
L 3431 531 
L 3431 0 
L 469 0 
L 469 531 
Q 828 903 1448 1529 
Q 2069 2156 2228 2338 
Q 2531 2678 2651 2914 
Q 2772 3150 2772 3378 
Q 2772 3750 2511 3984 
Q 2250 4219 1831 4219 
Q 1534 4219 1204 4116 
Q 875 4013 500 3803 
L 500 4441 
Q 881 4594 1212 4672 
Q 1544 4750 1819 4750 
Q 2544 4750 2975 4387 
Q 3406 4025 3406 3419 
Q 3406 3131 3298 2873 
Q 3191 2616 2906 2266 
Q 2828 2175 2409 1742 
Q 1991 1309 1228 531 
z
" transform="scale(0.015625)"/>
       </defs>
       <use xlink:href="#DejaVuSans-32"/>
       <use xlink:href="#DejaVuSans-30" x="63.623047"/>
       <use xlink:href="#DejaVuSans-30" x="127.246094"/>
       <use xlink:href="#DejaVuSans-30" x="190.869141"/>
       <use xlink:href="#DejaVuSans-30" x="254.492188"/>
      </g>
     </g>
    </g>
    <g id="xtick_4">
     <g id="line2d_4">
      <g>
       <use xlink:href="#mf9d26d2562" x="230.920934" y="162.432" style="stroke: #000000; stroke-width: 0.8"/>
      </g>
     </g>
     <g id="text_4">
      <!-- 30000 -->
      <g transform="translate(215.014684 177.030437)scale(0.1 -0.1)">
       <defs>
        <path id="DejaVuSans-33" d="M 2597 2516 
Q 3050 2419 3304 2112 
Q 3559 1806 3559 1356 
Q 3559 666 3084 287 
Q 2609 -91 1734 -91 
Q 1441 -91 1130 -33 
Q 819 25 488 141 
L 488 750 
Q 750 597 1062 519 
Q 1375 441 1716 441 
Q 2309 441 2620 675 
Q 2931 909 2931 1356 
Q 2931 1769 2642 2001 
Q 2353 2234 1838 2234 
L 1294 2234 
L 1294 2753 
L 1863 2753 
Q 2328 2753 2575 2939 
Q 2822 3125 2822 3475 
Q 2822 3834 2567 4026 
Q 2313 4219 1838 4219 
Q 1578 4219 1281 4162 
Q 984 4106 628 3988 
L 628 4550 
Q 988 4650 1302 4700 
Q 1616 4750 1894 4750 
Q 2613 4750 3031 4423 
Q 3450 4097 3450 3541 
Q 3450 3153 3228 2886 
Q 3006 2619 2597 2516 
z
" transform="scale(0.015625)"/>
       </defs>
       <use xlink:href="#DejaVuSans-33"/>
       <use xlink:href="#DejaVuSans-30" x="63.623047"/>
       <use xlink:href="#DejaVuSans-30" x="127.246094"/>
       <use xlink:href="#DejaVuSans-30" x="190.869141"/>
       <use xlink:href="#DejaVuSans-30" x="254.492188"/>
      </g>
     </g>
    </g>
    <g id="xtick_5">
     <g id="line2d_5">
      <g>
       <use xlink:href="#mf9d26d2562" x="283.285415" y="162.432" style="stroke: #000000; stroke-width: 0.8"/>
      </g>
     </g>
     <g id="text_5">
      <!-- 40000 -->
      <g transform="translate(267.379165 177.030437)scale(0.1 -0.1)">
       <defs>
        <path id="DejaVuSans-34" d="M 2419 4116 
L 825 1625 
L 2419 1625 
L 2419 4116 
z
M 2253 4666 
L 3047 4666 
L 3047 1625 
L 3713 1625 
L 3713 1100 
L 3047 1100 
L 3047 0 
L 2419 0 
L 2419 1100 
L 313 1100 
L 313 1709 
L 2253 4666 
z
" transform="scale(0.015625)"/>
       </defs>
       <use xlink:href="#DejaVuSans-34"/>
       <use xlink:href="#DejaVuSans-30" x="63.623047"/>
       <use xlink:href="#DejaVuSans-30" x="127.246094"/>
       <use xlink:href="#DejaVuSans-30" x="190.869141"/>
       <use xlink:href="#DejaVuSans-30" x="254.492188"/>
      </g>
     </g>
    </g>
    <g id="xtick_6">
     <g id="line2d_6">
      <g>
       <use xlink:href="#mf9d26d2562" x="335.649896" y="162.432" style="stroke: #000000; stroke-width: 0.8"/>
      </g>
     </g>
     <g id="text_6">
      <!-- 50000 -->
      <g transform="translate(319.743646 177.030437)scale(0.1 -0.1)">
       <defs>
        <path id="DejaVuSans-35" d="M 691 4666 
L 3169 4666 
L 3169 4134 
L 1269 4134 
L 1269 2991 
Q 1406 3038 1543 3061 
Q 1681 3084 1819 3084 
Q 2600 3084 3056 2656 
Q 3513 2228 3513 1497 
Q 3513 744 3044 326 
Q 2575 -91 1722 -91 
Q 1428 -91 1123 -41 
Q 819 9 494 109 
L 494 744 
Q 775 591 1075 516 
Q 1375 441 1709 441 
Q 2250 441 2565 725 
Q 2881 1009 2881 1497 
Q 2881 1984 2565 2268 
Q 2250 2553 1709 2553 
Q 1456 2553 1204 2497 
Q 953 2441 691 2322 
L 691 4666 
z
" transform="scale(0.015625)"/>
       </defs>
       <use xlink:href="#DejaVuSans-35"/>
       <use xlink:href="#DejaVuSans-30" x="63.623047"/>
       <use xlink:href="#DejaVuSans-30" x="127.246094"/>
       <use xlink:href="#DejaVuSans-30" x="190.869141"/>
       <use xlink:href="#DejaVuSans-30" x="254.492188"/>
      </g>
     </g>
    </g>
    <g id="xtick_7">
     <g id="line2d_7">
      <g>
       <use xlink:href="#mf9d26d2562" x="388.014377" y="162.432" style="stroke: #000000; stroke-width: 0.8"/>
      </g>
     </g>
     <g id="text_7">
      <!-- 60000 -->
      <g transform="translate(372.108127 177.030437)scale(0.1 -0.1)">
       <defs>
        <path id="DejaVuSans-36" d="M 2113 2584 
Q 1688 2584 1439 2293 
Q 1191 2003 1191 1497 
Q 1191 994 1439 701 
Q 1688 409 2113 409 
Q 2538 409 2786 701 
Q 3034 994 3034 1497 
Q 3034 2003 2786 2293 
Q 2538 2584 2113 2584 
z
M 3366 4563 
L 3366 3988 
Q 3128 4100 2886 4159 
Q 2644 4219 2406 4219 
Q 1781 4219 1451 3797 
Q 1122 3375 1075 2522 
Q 1259 2794 1537 2939 
Q 1816 3084 2150 3084 
Q 2853 3084 3261 2657 
Q 3669 2231 3669 1497 
Q 3669 778 3244 343 
Q 2819 -91 2113 -91 
Q 1303 -91 875 529 
Q 447 1150 447 2328 
Q 447 3434 972 4092 
Q 1497 4750 2381 4750 
Q 2619 4750 2861 4703 
Q 3103 4656 3366 4563 
z
" transform="scale(0.015625)"/>
       </defs>
       <use xlink:href="#DejaVuSans-36"/>
       <use xlink:href="#DejaVuSans-30" x="63.623047"/>
       <use xlink:href="#DejaVuSans-30" x="127.246094"/>
       <use xlink:href="#DejaVuSans-30" x="190.869141"/>
       <use xlink:href="#DejaVuSans-30" x="254.492188"/>
      </g>
     </g>
    </g>
   </g>
   <g id="matplotlib.axis_2">
    <g id="ytick_1">
     <g id="line2d_8">
      <defs>
       <path id="m1a1bffee7e" d="M 0 0 
L -3.5 0 
" style="stroke: #000000; stroke-width: 0.8"/>
      </defs>
      <g>
       <use xlink:href="#m1a1bffee7e" x="57.6" y="132.911325" style="stroke: #000000; stroke-width: 0.8"/>
      </g>
     </g>
     <g id="text_8">
      <!-- 80 -->
      <g transform="translate(37.875 136.710544)scale(0.1 -0.1)">
       <defs>
        <path id="DejaVuSans-38" d="M 2034 2216 
Q 1584 2216 1326 1975 
Q 1069 1734 1069 1313 
Q 1069 891 1326 650 
Q 1584 409 2034 409 
Q 2484 409 2743 651 
Q 3003 894 3003 1313 
Q 3003 1734 2745 1975 
Q 2488 2216 2034 2216 
z
M 1403 2484 
Q 997 2584 770 2862 
Q 544 3141 544 3541 
Q 544 4100 942 4425 
Q 1341 4750 2034 4750 
Q 2731 4750 3128 4425 
Q 3525 4100 3525 3541 
Q 3525 3141 3298 2862 
Q 3072 2584 2669 2484 
Q 3125 2378 3379 2068 
Q 3634 1759 3634 1313 
Q 3634 634 3220 271 
Q 2806 -91 2034 -91 
Q 1263 -91 848 271 
Q 434 634 434 1313 
Q 434 1759 690 2068 
Q 947 2378 1403 2484 
z
M 1172 3481 
Q 1172 3119 1398 2916 
Q 1625 2713 2034 2713 
Q 2441 2713 2670 2916 
Q 2900 3119 2900 3481 
Q 2900 3844 2670 4047 
Q 2441 4250 2034 4250 
Q 1625 4250 1398 4047 
Q 1172 3844 1172 3481 
z
" transform="scale(0.015625)"/>
       </defs>
       <use xlink:href="#DejaVuSans-38"/>
       <use xlink:href="#DejaVuSans-30" x="63.623047"/>
      </g>
     </g>
    </g>
    <g id="ytick_2">
     <g id="line2d_9">
      <g>
       <use xlink:href="#m1a1bffee7e" x="57.6" y="100.521447" style="stroke: #000000; stroke-width: 0.8"/>
      </g>
     </g>
     <g id="text_9">
      <!-- 90 -->
      <g transform="translate(37.875 104.320666)scale(0.1 -0.1)">
       <defs>
        <path id="DejaVuSans-39" d="M 703 97 
L 703 672 
Q 941 559 1184 500 
Q 1428 441 1663 441 
Q 2288 441 2617 861 
Q 2947 1281 2994 2138 
Q 2813 1869 2534 1725 
Q 2256 1581 1919 1581 
Q 1219 1581 811 2004 
Q 403 2428 403 3163 
Q 403 3881 828 4315 
Q 1253 4750 1959 4750 
Q 2769 4750 3195 4129 
Q 3622 3509 3622 2328 
Q 3622 1225 3098 567 
Q 2575 -91 1691 -91 
Q 1453 -91 1209 -44 
Q 966 3 703 97 
z
M 1959 2075 
Q 2384 2075 2632 2365 
Q 2881 2656 2881 3163 
Q 2881 3666 2632 3958 
Q 2384 4250 1959 4250 
Q 1534 4250 1286 3958 
Q 1038 3666 1038 3163 
Q 1038 2656 1286 2365 
Q 1534 2075 1959 2075 
z
" transform="scale(0.015625)"/>
       </defs>
       <use xlink:href="#DejaVuSans-39"/>
       <use xlink:href="#DejaVuSans-30" x="63.623047"/>
      </g>
     </g>
    </g>
    <g id="ytick_3">
     <g id="line2d_10">
      <g>
       <use xlink:href="#m1a1bffee7e" x="57.6" y="68.131569" style="stroke: #000000; stroke-width: 0.8"/>
      </g>
     </g>
     <g id="text_10">
      <!-- 100 -->
      <g transform="translate(31.5125 71.930788)scale(0.1 -0.1)">
       <use xlink:href="#DejaVuSans-31"/>
       <use xlink:href="#DejaVuSans-30" x="63.623047"/>
       <use xlink:href="#DejaVuSans-30" x="127.246094"/>
      </g>
     </g>
    </g>
   </g>
   <g id="line2d_11">
    <path d="M 73.832727 67.321822 
L 73.837964 67.321822 
L 73.979348 62.355374 
L 74.099786 62.355374 
L 74.220224 59.656217 
L 74.283062 59.656217 
L 74.398264 58.036724 
L 77.608206 58.036724 
L 77.723408 56.41723 
L 94.422441 56.41723 
L 94.537643 54.797736 
L 206.49814 54.797736 
L 206.613342 53.178242 
L 257.506381 53.178242 
L 257.621583 51.558748 
L 398.487273 51.558748 
L 398.487273 51.558748 
" clip-path="url(#p46afc9b05c)" style="fill: none; stroke: #1f77b4; stroke-width: 1.5; stroke-linecap: square"/>
   </g>
   <g id="line2d_12">
    <path d="M 73.832727 68.131569 
L 73.837964 68.131569 
L 73.963638 80.439723 
L 73.995057 78.010482 
L 74.026476 83.408795 
L 74.063131 83.408795 
L 74.073604 83.408795 
L 74.194042 91.506264 
L 74.209752 91.506264 
L 74.324953 96.364746 
L 74.387791 96.364746 
L 74.440155 99.603734 
L 74.497756 98.524071 
L 74.775288 98.524071 
L 74.89049 101.763059 
L 75.188967 101.763059 
L 75.28846 105.002047 
L 75.298933 103.922384 
L 75.529336 103.922384 
L 75.644538 107.161372 
L 75.717849 107.161372 
L 75.83305 106.081709 
L 76.513789 106.081709 
L 76.623754 102.842722 
L 76.738956 106.081709 
L 76.786084 106.081709 
L 76.901286 109.320697 
L 77.273074 109.320697 
L 77.388276 108.241035 
L 77.608206 108.241035 
L 77.723408 106.621541 
L 77.739118 106.621541 
L 77.854319 109.860529 
L 77.969521 109.860529 
L 78.084723 113.099516 
L 78.247053 113.099516 
L 78.362255 112.019854 
L 78.713097 112.019854 
L 78.728806 115.258842 
L 78.823062 114.179179 
L 79.425254 114.179179 
L 79.540456 117.418167 
L 79.84417 117.418167 
L 79.959372 116.338504 
L 80.373051 116.338504 
L 80.488253 119.577492 
L 83.148368 119.577492 
L 83.26357 118.497829 
L 88.61522 118.497829 
L 88.730422 121.736817 
L 89.206939 121.736817 
L 89.322141 120.657155 
L 91.191553 120.657155 
L 91.306755 123.896142 
L 91.353883 123.896142 
L 91.469084 122.81648 
L 93.411807 122.81648 
L 93.527009 121.736817 
L 93.940688 121.736817 
L 94.05589 124.975805 
L 94.6895 124.975805 
L 94.736628 123.896142 
L 94.741865 127.13513 
L 94.788993 127.13513 
L 97.972753 127.13513 
L 98.087955 130.374118 
L 100.009731 130.374118 
L 100.124933 127.13513 
L 101.077967 127.13513 
L 101.193169 130.374118 
L 102.093838 130.374118 
L 102.20904 129.294455 
L 104.816791 129.294455 
L 104.931993 132.533443 
L 122.055178 132.533443 
L 122.17038 131.453781 
L 132.245306 131.453781 
L 132.360508 134.692769 
L 152.950222 134.692769 
L 153.065423 133.613106 
L 154.871998 133.613106 
L 154.9872 136.852094 
L 163.972945 136.852094 
L 164.088147 140.091082 
L 189.207388 140.091082 
L 189.32259 143.330069 
L 199.853087 143.330069 
L 199.968289 146.569057 
L 210.116525 146.569057 
L 210.231727 145.489395 
L 231.674982 145.489395 
L 231.790184 144.409732 
L 241.341465 144.409732 
L 241.456667 141.170744 
L 241.833692 141.170744 
L 241.948893 144.409732 
L 253.610463 144.409732 
L 253.725665 147.64872 
L 257.506381 147.64872 
L 257.621583 146.029226 
L 276.813165 146.029226 
L 276.928367 142.790238 
L 278.588321 142.790238 
L 278.703523 146.029226 
L 285.589452 146.029226 
L 285.704654 149.268214 
L 287.657849 149.268214 
L 287.773051 152.507201 
L 295.627723 152.507201 
L 295.742925 151.427539 
L 298.361149 151.427539 
L 298.476351 150.347876 
L 303.513814 150.347876 
L 303.629015 149.268214 
L 359.596173 149.268214 
L 359.711375 152.507201 
L 398.487273 152.507201 
L 398.487273 152.507201 
" clip-path="url(#p46afc9b05c)" style="fill: none; stroke: #ff7f0e; stroke-width: 1.5; stroke-linecap: square"/>
   </g>
   <g id="line2d_13">
    <path d="M 73.832727 67.321822 
L 73.837964 67.321822 
L 73.864146 65.432412 
L 73.869382 68.6714 
L 73.93222 68.023603 
L 74.063131 83.408795 
L 74.068367 83.408795 
L 74.105023 79.090144 
L 74.120732 85.56812 
L 74.173096 85.56812 
L 74.188806 85.56812 
L 74.194042 83.948626 
L 74.25688 93.66559 
L 74.272589 93.66559 
L 74.440155 93.66559 
L 74.555357 96.904577 
L 74.775288 96.904577 
L 74.87478 92.046096 
L 74.89049 95.285083 
L 74.948091 95.285083 
L 75.063293 98.524071 
L 75.073765 96.904577 
L 75.079002 100.143565 
L 75.168022 100.143565 
L 75.188967 100.143565 
L 75.28846 98.524071 
L 75.293696 101.763059 
L 75.497918 101.763059 
L 75.61312 99.063903 
L 75.717849 99.063903 
L 75.83305 102.30289 
L 75.869706 102.30289 
L 75.990144 108.780866 
L 76.786084 108.780866 
L 76.901286 107.701203 
L 77.273074 107.701203 
L 77.388276 110.940191 
L 77.969521 110.940191 
L 78.084723 109.860529 
L 78.247053 109.860529 
L 78.362255 113.099516 
L 78.713097 113.099516 
L 78.728806 112.019854 
L 78.734043 115.258842 
L 78.812589 115.258842 
L 79.168668 115.258842 
L 79.28387 118.497829 
L 79.84417 118.497829 
L 79.959372 121.736817 
L 80.373051 121.736817 
L 80.488253 120.657155 
L 83.148368 120.657155 
L 83.26357 123.896142 
L 88.61522 123.896142 
L 88.730422 122.81648 
L 89.206939 122.81648 
L 89.322141 126.055468 
L 91.191553 126.055468 
L 91.306755 124.975805 
L 91.353883 124.975805 
L 91.469084 128.214793 
L 93.411807 128.214793 
L 93.527009 131.453781 
L 93.940688 131.453781 
L 94.05589 130.374118 
L 94.422441 130.374118 
L 94.537643 128.754624 
L 94.6895 128.754624 
L 94.736628 131.993612 
L 94.799465 130.913949 
L 98.271231 130.913949 
L 98.386432 134.152937 
L 100.549085 134.152937 
L 100.664287 130.913949 
L 102.093838 130.913949 
L 102.20904 134.152937 
L 103.884703 134.152937 
L 103.999905 137.391925 
L 122.055178 137.391925 
L 122.17038 140.630913 
L 132.245306 140.630913 
L 132.360508 139.55125 
L 137.198986 139.55125 
L 137.314188 142.790238 
L 141.906553 142.790238 
L 142.021754 139.55125 
L 142.126483 139.55125 
L 142.241685 142.790238 
L 152.814074 142.790238 
L 152.929276 139.55125 
L 152.950222 139.55125 
L 153.065423 142.790238 
L 169.518343 142.790238 
L 169.633545 146.029226 
L 199.853087 146.029226 
L 199.968289 144.949563 
L 206.49814 144.949563 
L 206.613342 143.330069 
L 210.116525 143.330069 
L 210.231727 146.569057 
L 221.563401 146.569057 
L 221.678603 149.808045 
L 231.674982 149.808045 
L 231.790184 153.047033 
L 278.588321 153.047033 
L 278.703523 151.96737 
L 281.08087 151.96737 
L 281.196072 150.347876 
L 285.589452 150.347876 
L 285.704654 149.268214 
L 286.57914 149.268214 
L 286.694342 146.029226 
L 295.627723 146.029226 
L 295.742925 149.268214 
L 298.361149 149.268214 
L 298.476351 152.507201 
L 303.513814 152.507201 
L 303.629015 155.746189 
L 398.487273 155.746189 
L 398.487273 155.746189 
" clip-path="url(#p46afc9b05c)" style="fill: none; stroke: #2ca02c; stroke-width: 1.5; stroke-linecap: square"/>
   </g>
   <g id="line2d_14">
    <path d="M 73.832727 71.370557 
L 73.837964 71.370557 
L 73.937456 78.118448 
L 73.953166 77.308701 
L 73.974111 75.689207 
L 73.995057 82.167183 
L 74.042185 80.277773 
L 74.068367 80.277773 
L 74.173096 84.056592 
L 74.178333 82.437098 
L 74.209752 82.437098 
L 74.283062 78.928195 
L 74.324953 81.08752 
L 74.387791 81.08752 
L 74.502993 80.007858 
L 74.80147 80.007858 
L 74.916672 83.246845 
L 75.063293 83.246845 
L 75.178494 86.485833 
L 75.188967 86.485833 
L 75.304169 91.344315 
L 75.393189 91.344315 
L 75.497918 89.724821 
L 75.529336 92.963809 
L 75.607883 90.264652 
L 75.644538 90.264652 
L 75.75974 93.50364 
L 75.764977 93.50364 
L 75.885415 90.264652 
L 76.293858 90.264652 
L 76.351459 93.50364 
L 76.403823 91.884146 
L 76.513789 91.884146 
L 76.592335 98.362122 
L 76.628991 95.662965 
L 76.786084 95.662965 
L 76.906522 92.963809 
L 77.739118 92.963809 
L 77.864792 90.534568 
L 77.917157 90.534568 
L 77.969521 93.773556 
L 78.027122 92.693893 
L 78.550767 92.693893 
L 78.660732 95.932881 
L 78.775934 93.233724 
L 78.943501 93.233724 
L 79.058702 96.472712 
L 79.168668 96.472712 
L 79.215796 95.39305 
L 79.221032 98.632037 
L 79.26816 98.632037 
L 79.425254 98.632037 
L 79.540456 97.552375 
L 79.587584 97.552375 
L 79.702786 95.932881 
L 80.373051 95.932881 
L 80.493489 93.233724 
L 80.723893 93.233724 
L 80.839095 91.614231 
L 82.053951 91.614231 
L 82.169153 94.853218 
L 87.290399 94.853218 
L 87.405601 93.233724 
L 87.782625 93.233724 
L 87.897827 96.472712 
L 88.61522 96.472712 
L 88.730422 95.39305 
L 89.636328 95.39305 
L 89.751529 93.773556 
L 91.139188 93.773556 
L 91.25439 99.171869 
L 91.437666 99.171869 
L 91.542395 102.410857 
L 91.547631 100.791363 
L 91.877527 100.791363 
L 91.992729 99.171869 
L 92.788669 99.171869 
L 92.903871 102.410857 
L 93.647447 102.410857 
L 93.678866 105.649844 
L 93.757412 104.030351 
L 93.940688 104.030351 
L 94.061126 101.331194 
L 94.422441 101.331194 
L 94.537643 104.570182 
L 94.60048 104.570182 
L 94.715682 102.950688 
L 97.972753 102.950688 
L 98.087955 101.871025 
L 100.009731 101.871025 
L 100.124933 105.110013 
L 100.549085 105.110013 
L 100.664287 108.349001 
L 101.077967 108.349001 
L 101.193169 107.269338 
L 102.130493 107.269338 
L 102.245695 105.649844 
L 104.816791 105.649844 
L 104.937229 102.950688 
L 117.085789 102.950688 
L 117.20099 106.189676 
L 125.998223 106.189676 
L 126.113425 104.570182 
L 129.103437 104.570182 
L 129.218639 107.80917 
L 132.245306 107.80917 
L 132.360508 106.729507 
L 141.906553 106.729507 
L 142.021754 109.968495 
L 142.901478 109.968495 
L 143.01668 113.207483 
L 146.823577 113.207483 
L 146.938779 111.587989 
L 152.814074 111.587989 
L 152.929276 114.826977 
L 154.871998 114.826977 
L 154.9872 113.747314 
L 162.370592 113.747314 
L 162.485794 112.12782 
L 163.616866 112.12782 
L 163.732068 115.366808 
L 163.972945 115.366808 
L 164.088147 114.287145 
L 183.232601 114.287145 
L 183.347803 112.667651 
L 185.468564 112.667651 
L 185.583766 115.906639 
L 188.777999 115.906639 
L 188.893201 119.145627 
L 189.207388 119.145627 
L 189.32259 118.065964 
L 198.413064 118.065964 
L 198.528266 116.44647 
L 199.853087 116.44647 
L 199.968289 115.366808 
L 206.49814 115.366808 
L 206.613342 118.605796 
L 231.580726 118.605796 
L 231.695928 116.986302 
L 232.010115 116.986302 
L 232.125317 120.22529 
L 241.341465 120.22529 
L 241.456667 123.464277 
L 241.833692 123.464277 
L 241.948893 122.384615 
L 253.610463 122.384615 
L 253.725665 121.304952 
L 267.146682 121.304952 
L 267.261883 119.685458 
L 276.813165 119.685458 
L 276.928367 122.924446 
L 276.959785 122.924446 
L 277.074987 121.304952 
L 278.588321 121.304952 
L 278.703523 120.22529 
L 281.08087 120.22529 
L 281.196072 123.464277 
L 285.589452 123.464277 
L 285.704654 122.384615 
L 286.57914 122.384615 
L 286.694342 125.623603 
L 287.657849 125.623603 
L 287.773051 124.54394 
L 359.596173 124.54394 
L 359.711375 123.464277 
L 398.487273 123.464277 
L 398.487273 123.464277 
" clip-path="url(#p46afc9b05c)" style="fill: none; stroke: #d62728; stroke-width: 1.5; stroke-linecap: square"/>
   </g>
   <g id="line2d_15">
    <path d="M 73.832727 68.131569 
L 73.874619 68.131569 
L 73.989821 67.483771 
L 398.487273 67.483771 
L 398.487273 67.483771 
" clip-path="url(#p46afc9b05c)" style="fill: none; stroke: #9467bd; stroke-width: 1.5; stroke-linecap: square"/>
   </g>
   <g id="line2d_16">
    <path d="M 73.832727 67.321822 
L 73.837964 67.321822 
L 73.8432 66.512075 
L 73.848437 69.751063 
L 73.93222 69.751063 
L 73.958402 69.751063 
L 73.974111 72.990051 
L 74.068367 72.180304 
L 74.099786 72.180304 
L 74.220224 69.481147 
L 74.775288 69.481147 
L 74.89049 67.861653 
L 75.063293 67.861653 
L 75.178494 66.242159 
L 75.497918 66.242159 
L 75.61312 64.622665 
L 281.08087 64.622665 
L 281.196072 63.003172 
L 398.487273 63.003172 
L 398.487273 63.003172 
" clip-path="url(#p46afc9b05c)" style="fill: none; stroke: #8c564b; stroke-width: 1.5; stroke-linecap: square"/>
   </g>
   <g id="line2d_17">
    <path d="M 73.832727 68.131569 
L 73.874619 68.131569 
L 74.016003 64.244784 
L 76.021563 64.244784 
L 76.136764 61.005796 
L 78.63455 61.005796 
L 78.749752 57.766808 
L 89.196466 57.766808 
L 89.311668 54.52782 
L 94.736628 54.52782 
L 94.85183 53.448157 
L 97.213468 53.448157 
L 97.32867 50.20917 
L 273.32569 50.20917 
L 273.440892 46.970182 
L 398.487273 46.970182 
L 398.487273 46.970182 
" clip-path="url(#p46afc9b05c)" style="fill: none; stroke: #e377c2; stroke-width: 1.5; stroke-linecap: square"/>
   </g>
   <g id="line2d_18">
    <path d="M 73.832727 71.370557 
L 73.837964 71.370557 
L 73.968875 84.056592 
L 73.974111 84.056592 
L 73.995057 90.534568 
L 74.089313 88.105327 
L 74.162624 88.105327 
L 74.251643 91.344315 
L 74.272589 90.534568 
L 74.283062 90.534568 
L 74.398264 93.773556 
L 74.618194 93.773556 
L 74.738633 90.534568 
L 74.921908 90.534568 
L 75.03711 88.915074 
L 75.073765 88.915074 
L 75.188967 87.835411 
L 75.293696 91.074399 
L 75.298933 89.454905 
L 75.644538 89.454905 
L 75.75974 87.835411 
L 75.958725 87.835411 
L 76.021563 86.755749 
L 76.026799 89.994737 
L 76.058218 89.994737 
L 76.293858 89.994737 
L 76.40906 88.375243 
L 76.576626 88.375243 
L 76.691828 86.755749 
L 77.608206 86.755749 
L 77.723408 89.994737 
L 77.739118 89.994737 
L 77.854319 89.18499 
L 77.917157 89.18499 
L 78.032359 87.565496 
L 78.550767 87.565496 
L 78.63455 85.946002 
L 78.639787 89.18499 
L 78.655496 89.18499 
L 78.943501 89.18499 
L 79.058702 87.565496 
L 79.215796 87.565496 
L 79.330998 90.804484 
L 81.451759 90.804484 
L 81.566961 89.18499 
L 82.053951 89.18499 
L 82.169153 87.565496 
L 87.27469 87.565496 
L 87.389891 85.946002 
L 87.782625 85.946002 
L 87.897827 84.326508 
L 89.196466 84.326508 
L 89.311668 87.565496 
L 91.139188 87.565496 
L 91.259627 84.326508 
L 91.437666 84.326508 
L 91.552868 82.707014 
L 92.788669 82.707014 
L 92.903871 81.08752 
L 93.647447 81.08752 
L 93.762649 79.468026 
L 94.422441 79.468026 
L 94.537643 82.707014 
L 94.736628 82.707014 
L 94.85183 85.946002 
L 97.213468 85.946002 
L 97.32867 89.18499 
L 117.085789 89.18499 
L 117.20099 92.423978 
L 122.741152 92.423978 
L 122.856354 90.804484 
L 129.103437 90.804484 
L 129.218639 89.18499 
L 142.901478 89.18499 
L 143.01668 87.565496 
L 163.616866 87.565496 
L 163.732068 90.804484 
L 185.468564 90.804484 
L 185.583766 89.18499 
L 188.777999 89.18499 
L 188.893201 87.565496 
L 206.49814 87.565496 
L 206.613342 90.804484 
L 232.010115 90.804484 
L 232.125317 89.18499 
L 257.506381 89.18499 
L 257.621583 92.423978 
L 273.32569 92.423978 
L 273.440892 95.662965 
L 398.487273 95.662965 
L 398.487273 95.662965 
" clip-path="url(#p46afc9b05c)" style="fill: none; stroke: #7f7f7f; stroke-width: 1.5; stroke-linecap: square"/>
   </g>
   <g id="line2d_19">
    <path d="M 73.832727 71.370557 
L 73.837964 71.370557 
L 73.93222 81.357436 
L 73.958402 78.658279 
L 73.963638 77.848532 
L 73.995057 87.565496 
L 74.026476 84.596424 
L 74.068367 84.596424 
L 74.173096 89.994737 
L 74.183569 88.375243 
L 74.188806 88.375243 
L 74.194042 91.614231 
L 74.25688 86.485833 
L 74.298771 88.645158 
L 74.387791 88.645158 
L 74.508229 86.485833 
L 74.618194 86.485833 
L 74.738633 92.963809 
L 74.775288 92.963809 
L 74.87478 99.441784 
L 74.89049 97.822291 
L 74.921908 97.822291 
L 74.948091 101.061278 
L 75.031874 99.441784 
L 75.063293 99.441784 
L 75.073765 102.680772 
L 75.173258 101.60111 
L 75.188967 101.60111 
L 75.304169 105.379929 
L 75.393189 105.379929 
L 75.497918 103.760435 
L 75.529336 106.999423 
L 75.607883 104.300266 
L 75.644538 104.300266 
L 75.717849 107.539254 
L 75.754504 106.459591 
L 75.764977 106.459591 
L 75.890651 101.60111 
L 75.958725 101.60111 
L 76.073927 100.521447 
L 76.293858 100.521447 
L 76.351459 103.760435 
L 76.403823 102.140941 
L 76.513789 102.140941 
L 76.592335 108.618917 
L 76.628991 105.91976 
L 76.786084 105.91976 
L 76.906522 103.220604 
L 77.273074 103.220604 
L 77.388276 102.140941 
L 77.608206 102.140941 
L 77.723408 105.379929 
L 77.739118 105.379929 
L 77.864792 102.950688 
L 77.917157 102.950688 
L 77.969521 106.189676 
L 78.027122 105.110013 
L 78.247053 105.110013 
L 78.362255 104.030351 
L 78.550767 104.030351 
L 78.660732 107.269338 
L 78.781171 103.490519 
L 78.943501 103.490519 
L 79.058702 106.729507 
L 79.168668 106.729507 
L 79.215796 105.649844 
L 79.221032 108.888832 
L 79.26816 108.888832 
L 79.425254 108.888832 
L 79.540456 107.80917 
L 79.587584 107.80917 
L 79.702786 106.189676 
L 79.84417 106.189676 
L 79.959372 105.110013 
L 80.373051 105.110013 
L 80.493489 102.410857 
L 80.723893 102.410857 
L 80.839095 100.791363 
L 81.451759 100.791363 
L 81.566961 104.030351 
L 82.053951 104.030351 
L 82.169153 107.269338 
L 83.148368 107.269338 
L 83.26357 106.189676 
L 87.27469 106.189676 
L 87.290399 109.428664 
L 87.384655 107.80917 
L 87.782625 107.80917 
L 87.897827 111.048157 
L 88.61522 111.048157 
L 88.730422 109.968495 
L 89.206939 109.968495 
L 89.322141 108.888832 
L 89.636328 108.888832 
L 89.751529 107.269338 
L 91.139188 107.269338 
L 91.25439 112.667651 
L 91.353883 112.667651 
L 91.437666 111.587989 
L 91.442902 114.826977 
L 91.453375 114.826977 
L 91.542395 114.826977 
L 91.657597 113.207483 
L 91.877527 113.207483 
L 91.992729 111.587989 
L 92.788669 111.587989 
L 92.903871 114.826977 
L 93.411807 114.826977 
L 93.527009 113.747314 
L 93.647447 113.747314 
L 93.678866 116.986302 
L 93.757412 115.366808 
L 93.940688 115.366808 
L 94.061126 112.667651 
L 94.422441 112.667651 
L 94.537643 115.906639 
L 94.60048 115.906639 
L 94.715682 113.207483 
L 97.972753 113.207483 
L 98.087955 112.12782 
L 98.271231 112.12782 
L 98.386432 110.508326 
L 100.009731 110.508326 
L 100.124933 113.747314 
L 100.549085 113.747314 
L 100.664287 116.986302 
L 101.077967 116.986302 
L 101.193169 115.906639 
L 102.093838 115.906639 
L 102.214276 113.207483 
L 103.884703 113.207483 
L 103.999905 111.587989 
L 104.816791 111.587989 
L 104.937229 108.888832 
L 117.085789 108.888832 
L 117.20099 112.12782 
L 122.055178 112.12782 
L 122.17038 111.048157 
L 122.741152 111.048157 
L 122.856354 114.287145 
L 125.998223 114.287145 
L 126.113425 112.667651 
L 129.103437 112.667651 
L 129.218639 115.906639 
L 132.245306 115.906639 
L 132.360508 114.826977 
L 137.198986 114.826977 
L 137.314188 113.207483 
L 141.906553 113.207483 
L 142.021754 116.44647 
L 142.126483 116.44647 
L 142.241685 114.826977 
L 142.901478 114.826977 
L 143.01668 118.065964 
L 146.823577 118.065964 
L 146.938779 116.44647 
L 152.814074 116.44647 
L 152.929276 119.685458 
L 152.950222 119.685458 
L 153.065423 118.605796 
L 154.871998 118.605796 
L 154.9872 117.526133 
L 162.370592 117.526133 
L 162.485794 115.906639 
L 163.616866 115.906639 
L 163.732068 119.145627 
L 163.972945 119.145627 
L 164.088147 118.065964 
L 169.518343 118.065964 
L 169.633545 116.44647 
L 183.232601 116.44647 
L 183.347803 114.826977 
L 185.468564 114.826977 
L 185.583766 118.065964 
L 188.777999 118.065964 
L 188.893201 121.304952 
L 189.207388 121.304952 
L 189.32259 120.22529 
L 198.413064 120.22529 
L 198.528266 118.605796 
L 199.853087 118.605796 
L 199.968289 117.526133 
L 206.49814 117.526133 
L 206.613342 120.765121 
L 210.116525 120.765121 
L 210.231727 119.685458 
L 221.563401 119.685458 
L 221.678603 118.065964 
L 231.580726 118.065964 
L 231.695928 115.366808 
L 232.010115 115.366808 
L 232.125317 118.605796 
L 241.341465 118.605796 
L 241.456667 121.844784 
L 241.833692 121.844784 
L 241.948893 120.765121 
L 253.610463 120.765121 
L 253.725665 119.685458 
L 257.506381 119.685458 
L 257.621583 122.924446 
L 267.146682 122.924446 
L 267.261883 121.304952 
L 276.813165 121.304952 
L 276.928367 124.54394 
L 276.959785 124.54394 
L 277.074987 122.924446 
L 278.588321 122.924446 
L 278.703523 121.844784 
L 281.08087 121.844784 
L 281.196072 125.083771 
L 285.589452 125.083771 
L 285.704654 124.004109 
L 286.57914 124.004109 
L 286.694342 127.243097 
L 287.657849 127.243097 
L 287.773051 126.163434 
L 295.627723 126.163434 
L 295.742925 125.083771 
L 298.361149 125.083771 
L 298.476351 124.004109 
L 303.513814 124.004109 
L 303.629015 122.924446 
L 359.596173 122.924446 
L 359.711375 121.844784 
L 398.487273 121.844784 
L 398.487273 121.844784 
" clip-path="url(#p46afc9b05c)" style="fill: none; stroke: #bcbd22; stroke-width: 1.5; stroke-linecap: square"/>
   </g>
   <g id="line2d_20">
    <path d="M 73.832727 71.370557 
L 73.837964 71.370557 
L 73.93222 84.596424 
L 73.968875 84.326508 
L 73.974111 84.326508 
L 74.073604 91.074399 
L 74.089313 89.454905 
L 74.105023 89.454905 
L 74.162624 86.755749 
L 74.178333 93.233724 
L 74.204515 91.614231 
L 74.209752 91.614231 
L 74.235934 90.534568 
L 74.288298 96.202797 
L 74.298771 95.123134 
L 74.387791 95.123134 
L 74.508229 92.963809 
L 74.618194 92.963809 
L 74.738633 89.724821 
L 74.80147 89.724821 
L 74.87478 92.963809 
L 74.911436 91.344315 
L 74.921908 91.344315 
L 75.042347 88.105327 
L 75.073765 88.105327 
L 75.188967 87.025664 
L 75.28846 93.50364 
L 75.304169 90.804484 
L 75.393189 90.804484 
L 75.508391 94.043471 
L 75.560755 94.043471 
L 75.644538 97.282459 
L 75.670721 95.662965 
L 75.717849 95.662965 
L 75.764977 94.583303 
L 75.770213 97.822291 
L 75.806868 97.822291 
L 75.869706 101.061278 
L 75.916834 99.441784 
L 75.958725 99.441784 
L 76.073927 98.362122 
L 76.293858 98.362122 
L 76.351459 96.742628 
L 76.356695 99.981616 
L 76.398587 99.981616 
L 76.513789 99.981616 
L 76.623754 104.840097 
L 76.628991 103.760435 
L 76.859394 103.760435 
L 76.974596 106.999423 
L 77.273074 106.999423 
L 77.388276 105.91976 
L 77.608206 105.91976 
L 77.723408 109.158748 
L 77.739118 109.158748 
L 77.833374 108.349001 
L 77.917157 111.587989 
L 77.943339 109.968495 
L 78.247053 109.968495 
L 78.362255 108.888832 
L 78.550767 108.888832 
L 78.660732 107.269338 
L 78.728806 110.508326 
L 78.770698 109.428664 
L 78.943501 109.428664 
L 79.058702 107.80917 
L 79.168668 107.80917 
L 79.215796 106.729507 
L 79.221032 109.968495 
L 79.26816 109.968495 
L 79.425254 109.968495 
L 79.540456 108.888832 
L 79.587584 108.888832 
L 79.702786 112.12782 
L 79.84417 112.12782 
L 79.959372 111.048157 
L 80.441125 111.048157 
L 80.556327 114.287145 
L 80.723893 114.287145 
L 80.839095 117.526133 
L 81.451759 117.526133 
L 81.566961 115.906639 
L 82.053951 115.906639 
L 82.169153 114.287145 
L 83.148368 114.287145 
L 83.26357 113.207483 
L 87.27469 113.207483 
L 87.290399 111.587989 
L 87.295635 114.826977 
L 87.379418 114.826977 
L 87.782625 114.826977 
L 87.897827 113.207483 
L 89.206939 113.207483 
L 89.322141 112.12782 
L 89.636328 112.12782 
L 89.751529 115.366808 
L 91.139188 115.366808 
L 91.259627 112.12782 
L 91.353883 112.12782 
L 91.474321 109.428664 
L 91.542395 109.428664 
L 91.657597 112.667651 
L 91.877527 112.667651 
L 91.992729 115.906639 
L 92.788669 115.906639 
L 92.903871 114.287145 
L 93.411807 114.287145 
L 93.527009 113.207483 
L 93.647447 113.207483 
L 93.678866 111.587989 
L 93.684102 114.826977 
L 93.752176 114.826977 
L 94.04018 114.826977 
L 94.155382 118.065964 
L 94.422441 118.065964 
L 94.537643 121.304952 
L 94.60048 121.304952 
L 94.6895 124.54394 
L 94.710446 123.464277 
L 94.736628 123.464277 
L 94.85183 122.384615 
L 97.972753 122.384615 
L 98.087955 121.304952 
L 98.271231 121.304952 
L 98.386432 119.685458 
L 100.009731 119.685458 
L 100.124933 122.924446 
L 100.549085 122.924446 
L 100.664287 126.163434 
L 101.077967 126.163434 
L 101.193169 125.083771 
L 102.093838 125.083771 
L 102.130493 124.004109 
L 102.135729 127.243097 
L 102.19333 127.243097 
L 103.884703 127.243097 
L 103.999905 125.623603 
L 104.816791 125.623603 
L 104.853446 124.54394 
L 104.858682 127.782928 
L 104.916283 127.782928 
L 117.085789 127.782928 
L 117.20099 131.021916 
L 122.055178 131.021916 
L 122.17038 129.942253 
L 122.741152 129.942253 
L 122.856354 128.322759 
L 125.998223 128.322759 
L 126.113425 131.561747 
L 129.103437 131.561747 
L 129.218639 129.942253 
L 137.198986 129.942253 
L 137.314188 128.322759 
L 141.906553 128.322759 
L 142.021754 131.561747 
L 142.126483 131.561747 
L 142.241685 129.942253 
L 142.901478 129.942253 
L 143.01668 128.322759 
L 146.823577 128.322759 
L 146.938779 131.561747 
L 152.814074 131.561747 
L 152.929276 134.800735 
L 152.950222 134.800735 
L 153.065423 133.721072 
L 154.871998 133.721072 
L 154.9872 132.64141 
L 162.370592 132.64141 
L 162.485794 135.880397 
L 163.616866 135.880397 
L 163.732068 139.119385 
L 163.972945 139.119385 
L 164.088147 138.039723 
L 169.518343 138.039723 
L 169.633545 136.420229 
L 183.232601 136.420229 
L 183.347803 139.659216 
L 185.468564 139.659216 
L 185.583766 138.039723 
L 188.777999 138.039723 
L 188.893201 136.420229 
L 189.207388 136.420229 
L 189.32259 135.340566 
L 198.413064 135.340566 
L 198.528266 138.579554 
L 206.49814 138.579554 
L 206.613342 141.818542 
L 210.116525 141.818542 
L 210.231727 140.738879 
L 221.563401 140.738879 
L 221.678603 139.119385 
L 231.580726 139.119385 
L 231.674982 142.358373 
L 231.690692 141.27871 
L 232.010115 141.27871 
L 232.125317 139.659216 
L 241.341465 139.659216 
L 241.456667 142.898204 
L 241.833692 142.898204 
L 241.948893 141.818542 
L 253.610463 141.818542 
L 253.725665 140.738879 
L 257.506381 140.738879 
L 257.621583 143.977867 
L 267.146682 143.977867 
L 267.261883 147.216855 
L 276.813165 147.216855 
L 276.928367 150.455843 
L 276.959785 150.455843 
L 277.074987 153.69483 
L 286.57914 153.69483 
L 286.694342 156.933818 
L 287.657849 156.933818 
L 287.773051 155.854156 
L 295.627723 155.854156 
L 295.742925 154.774493 
L 298.361149 154.774493 
L 298.476351 153.69483 
L 303.513814 153.69483 
L 303.629015 152.615168 
L 359.596173 152.615168 
L 359.711375 151.535505 
L 398.487273 151.535505 
L 398.487273 151.535505 
" clip-path="url(#p46afc9b05c)" style="fill: none; stroke: #17becf; stroke-width: 1.5; stroke-linecap: square"/>
   </g>
   <g id="line2d_21">
    <path d="M 73.832727 71.370557 
L 73.837964 71.370557 
L 73.8432 74.609545 
L 73.947929 73.529882 
L 73.958402 73.529882 
L 73.974111 72.720135 
L 73.979348 75.959123 
L 74.052658 75.959123 
L 74.099786 75.959123 
L 74.220224 82.437098 
L 74.775288 82.437098 
L 74.89049 85.676086 
L 75.063293 85.676086 
L 75.178494 88.915074 
L 75.497918 88.915074 
L 75.61312 92.154062 
L 281.08087 92.154062 
L 281.196072 95.39305 
L 398.487273 95.39305 
L 398.487273 95.39305 
" clip-path="url(#p46afc9b05c)" style="fill: none; stroke: #1f77b4; stroke-width: 1.5; stroke-linecap: square"/>
   </g>
   <g id="line2d_22">
    <path d="M 73.832727 67.321822 
L 73.837964 67.321822 
L 73.853673 69.751063 
L 73.953166 66.512075 
L 73.989821 66.512075 
L 74.105023 63.273087 
L 75.188967 63.273087 
L 75.304169 61.653593 
L 79.215796 61.653593 
L 79.330998 58.414605 
L 117.085789 58.414605 
L 117.20099 55.175618 
L 163.616866 55.175618 
L 163.732068 51.93663 
L 398.487273 51.93663 
L 398.487273 51.93663 
" clip-path="url(#p46afc9b05c)" style="fill: none; stroke: #ff7f0e; stroke-width: 1.5; stroke-linecap: square"/>
   </g>
   <g id="patch_3">
    <path d="M 57.6 162.432 
L 57.6 41.472 
" style="fill: none; stroke: #000000; stroke-width: 0.8; stroke-linejoin: miter; stroke-linecap: square"/>
   </g>
   <g id="patch_4">
    <path d="M 414.72 162.432 
L 414.72 41.472 
" style="fill: none; stroke: #000000; stroke-width: 0.8; stroke-linejoin: miter; stroke-linecap: square"/>
   </g>
   <g id="patch_5">
    <path d="M 57.6 162.432 
L 414.72 162.432 
" style="fill: none; stroke: #000000; stroke-width: 0.8; stroke-linejoin: miter; stroke-linecap: square"/>
   </g>
   <g id="patch_6">
    <path d="M 57.6 41.472 
L 414.72 41.472 
" style="fill: none; stroke: #000000; stroke-width: 0.8; stroke-linejoin: miter; stroke-linecap: square"/>
   </g>
   <g id="text_11">
    <!-- WSP -->
    <g transform="translate(361.832136 51.558748)scale(0.08 -0.08)">
     <defs>
      <path id="DejaVuSans-57" d="M 213 4666 
L 850 4666 
L 1831 722 
L 2809 4666 
L 3519 4666 
L 4500 722 
L 5478 4666 
L 6119 4666 
L 4947 0 
L 4153 0 
L 3169 4050 
L 2175 0 
L 1381 0 
L 213 4666 
z
" transform="scale(0.015625)"/>
      <path id="DejaVuSans-53" d="M 3425 4513 
L 3425 3897 
Q 3066 4069 2747 4153 
Q 2428 4238 2131 4238 
Q 1616 4238 1336 4038 
Q 1056 3838 1056 3469 
Q 1056 3159 1242 3001 
Q 1428 2844 1947 2747 
L 2328 2669 
Q 3034 2534 3370 2195 
Q 3706 1856 3706 1288 
Q 3706 609 3251 259 
Q 2797 -91 1919 -91 
Q 1588 -91 1214 -16 
Q 841 59 441 206 
L 441 856 
Q 825 641 1194 531 
Q 1563 422 1919 422 
Q 2459 422 2753 634 
Q 3047 847 3047 1241 
Q 3047 1584 2836 1778 
Q 2625 1972 2144 2069 
L 1759 2144 
Q 1053 2284 737 2584 
Q 422 2884 422 3419 
Q 422 4038 858 4394 
Q 1294 4750 2059 4750 
Q 2388 4750 2728 4690 
Q 3069 4631 3425 4513 
z
" transform="scale(0.015625)"/>
      <path id="DejaVuSans-50" d="M 1259 4147 
L 1259 2394 
L 2053 2394 
Q 2494 2394 2734 2622 
Q 2975 2850 2975 3272 
Q 2975 3691 2734 3919 
Q 2494 4147 2053 4147 
L 1259 4147 
z
M 628 4666 
L 2053 4666 
Q 2838 4666 3239 4311 
Q 3641 3956 3641 3272 
Q 3641 2581 3239 2228 
Q 2838 1875 2053 1875 
L 1259 1875 
L 1259 0 
L 628 0 
L 628 4666 
z
" transform="scale(0.015625)"/>
     </defs>
     <use xlink:href="#DejaVuSans-57"/>
     <use xlink:href="#DejaVuSans-53" x="98.876953"/>
     <use xlink:href="#DejaVuSans-50" x="162.353516"/>
    </g>
   </g>
   <g id="text_12">
    <!-- Iambic -->
    <g transform="translate(361.832136 152.507201)scale(0.08 -0.08)">
     <defs>
      <path id="DejaVuSans-49" d="M 628 4666 
L 1259 4666 
L 1259 0 
L 628 0 
L 628 4666 
z
" transform="scale(0.015625)"/>
      <path id="DejaVuSans-61" d="M 2194 1759 
Q 1497 1759 1228 1600 
Q 959 1441 959 1056 
Q 959 750 1161 570 
Q 1363 391 1709 391 
Q 2188 391 2477 730 
Q 2766 1069 2766 1631 
L 2766 1759 
L 2194 1759 
z
M 3341 1997 
L 3341 0 
L 2766 0 
L 2766 531 
Q 2569 213 2275 61 
Q 1981 -91 1556 -91 
Q 1019 -91 701 211 
Q 384 513 384 1019 
Q 384 1609 779 1909 
Q 1175 2209 1959 2209 
L 2766 2209 
L 2766 2266 
Q 2766 2663 2505 2880 
Q 2244 3097 1772 3097 
Q 1472 3097 1187 3025 
Q 903 2953 641 2809 
L 641 3341 
Q 956 3463 1253 3523 
Q 1550 3584 1831 3584 
Q 2591 3584 2966 3190 
Q 3341 2797 3341 1997 
z
" transform="scale(0.015625)"/>
      <path id="DejaVuSans-6d" d="M 3328 2828 
Q 3544 3216 3844 3400 
Q 4144 3584 4550 3584 
Q 5097 3584 5394 3201 
Q 5691 2819 5691 2113 
L 5691 0 
L 5113 0 
L 5113 2094 
Q 5113 2597 4934 2840 
Q 4756 3084 4391 3084 
Q 3944 3084 3684 2787 
Q 3425 2491 3425 1978 
L 3425 0 
L 2847 0 
L 2847 2094 
Q 2847 2600 2669 2842 
Q 2491 3084 2119 3084 
Q 1678 3084 1418 2786 
Q 1159 2488 1159 1978 
L 1159 0 
L 581 0 
L 581 3500 
L 1159 3500 
L 1159 2956 
Q 1356 3278 1631 3431 
Q 1906 3584 2284 3584 
Q 2666 3584 2933 3390 
Q 3200 3197 3328 2828 
z
" transform="scale(0.015625)"/>
      <path id="DejaVuSans-62" d="M 3116 1747 
Q 3116 2381 2855 2742 
Q 2594 3103 2138 3103 
Q 1681 3103 1420 2742 
Q 1159 2381 1159 1747 
Q 1159 1113 1420 752 
Q 1681 391 2138 391 
Q 2594 391 2855 752 
Q 3116 1113 3116 1747 
z
M 1159 2969 
Q 1341 3281 1617 3432 
Q 1894 3584 2278 3584 
Q 2916 3584 3314 3078 
Q 3713 2572 3713 1747 
Q 3713 922 3314 415 
Q 2916 -91 2278 -91 
Q 1894 -91 1617 61 
Q 1341 213 1159 525 
L 1159 0 
L 581 0 
L 581 4863 
L 1159 4863 
L 1159 2969 
z
" transform="scale(0.015625)"/>
      <path id="DejaVuSans-69" d="M 603 3500 
L 1178 3500 
L 1178 0 
L 603 0 
L 603 3500 
z
M 603 4863 
L 1178 4863 
L 1178 4134 
L 603 4134 
L 603 4863 
z
" transform="scale(0.015625)"/>
      <path id="DejaVuSans-63" d="M 3122 3366 
L 3122 2828 
Q 2878 2963 2633 3030 
Q 2388 3097 2138 3097 
Q 1578 3097 1268 2742 
Q 959 2388 959 1747 
Q 959 1106 1268 751 
Q 1578 397 2138 397 
Q 2388 397 2633 464 
Q 2878 531 3122 666 
L 3122 134 
Q 2881 22 2623 -34 
Q 2366 -91 2075 -91 
Q 1284 -91 818 406 
Q 353 903 353 1747 
Q 353 2603 823 3093 
Q 1294 3584 2113 3584 
Q 2378 3584 2631 3529 
Q 2884 3475 3122 3366 
z
" transform="scale(0.015625)"/>
     </defs>
     <use xlink:href="#DejaVuSans-49"/>
     <use xlink:href="#DejaVuSans-61" x="29.492188"/>
     <use xlink:href="#DejaVuSans-6d" x="90.771484"/>
     <use xlink:href="#DejaVuSans-62" x="188.183594"/>
     <use xlink:href="#DejaVuSans-69" x="251.660156"/>
     <use xlink:href="#DejaVuSans-63" x="279.443359"/>
    </g>
   </g>
   <g id="text_13">
    <!-- Parse -->
    <g transform="translate(361.832136 155.746189)scale(0.08 -0.08)">
     <defs>
      <path id="DejaVuSans-72" d="M 2631 2963 
Q 2534 3019 2420 3045 
Q 2306 3072 2169 3072 
Q 1681 3072 1420 2755 
Q 1159 2438 1159 1844 
L 1159 0 
L 581 0 
L 581 3500 
L 1159 3500 
L 1159 2956 
Q 1341 3275 1631 3429 
Q 1922 3584 2338 3584 
Q 2397 3584 2469 3576 
Q 2541 3569 2628 3553 
L 2631 2963 
z
" transform="scale(0.015625)"/>
      <path id="DejaVuSans-73" d="M 2834 3397 
L 2834 2853 
Q 2591 2978 2328 3040 
Q 2066 3103 1784 3103 
Q 1356 3103 1142 2972 
Q 928 2841 928 2578 
Q 928 2378 1081 2264 
Q 1234 2150 1697 2047 
L 1894 2003 
Q 2506 1872 2764 1633 
Q 3022 1394 3022 966 
Q 3022 478 2636 193 
Q 2250 -91 1575 -91 
Q 1294 -91 989 -36 
Q 684 19 347 128 
L 347 722 
Q 666 556 975 473 
Q 1284 391 1588 391 
Q 1994 391 2212 530 
Q 2431 669 2431 922 
Q 2431 1156 2273 1281 
Q 2116 1406 1581 1522 
L 1381 1569 
Q 847 1681 609 1914 
Q 372 2147 372 2553 
Q 372 3047 722 3315 
Q 1072 3584 1716 3584 
Q 2034 3584 2315 3537 
Q 2597 3491 2834 3397 
z
" transform="scale(0.015625)"/>
      <path id="DejaVuSans-65" d="M 3597 1894 
L 3597 1613 
L 953 1613 
Q 991 1019 1311 708 
Q 1631 397 2203 397 
Q 2534 397 2845 478 
Q 3156 559 3463 722 
L 3463 178 
Q 3153 47 2828 -22 
Q 2503 -91 2169 -91 
Q 1331 -91 842 396 
Q 353 884 353 1716 
Q 353 2575 817 3079 
Q 1281 3584 2069 3584 
Q 2775 3584 3186 3129 
Q 3597 2675 3597 1894 
z
M 3022 2063 
Q 3016 2534 2758 2815 
Q 2500 3097 2075 3097 
Q 1594 3097 1305 2825 
Q 1016 2553 972 2059 
L 3022 2063 
z
" transform="scale(0.015625)"/>
     </defs>
     <use xlink:href="#DejaVuSans-50"/>
     <use xlink:href="#DejaVuSans-61" x="55.802734"/>
     <use xlink:href="#DejaVuSans-72" x="117.082031"/>
     <use xlink:href="#DejaVuSans-73" x="158.195312"/>
     <use xlink:href="#DejaVuSans-65" x="210.294922"/>
    </g>
   </g>
   <g id="text_14">
    <!-- FootBin -->
    <g transform="translate(361.832136 123.464277)scale(0.08 -0.08)">
     <defs>
      <path id="DejaVuSans-46" d="M 628 4666 
L 3309 4666 
L 3309 4134 
L 1259 4134 
L 1259 2759 
L 3109 2759 
L 3109 2228 
L 1259 2228 
L 1259 0 
L 628 0 
L 628 4666 
z
" transform="scale(0.015625)"/>
      <path id="DejaVuSans-6f" d="M 1959 3097 
Q 1497 3097 1228 2736 
Q 959 2375 959 1747 
Q 959 1119 1226 758 
Q 1494 397 1959 397 
Q 2419 397 2687 759 
Q 2956 1122 2956 1747 
Q 2956 2369 2687 2733 
Q 2419 3097 1959 3097 
z
M 1959 3584 
Q 2709 3584 3137 3096 
Q 3566 2609 3566 1747 
Q 3566 888 3137 398 
Q 2709 -91 1959 -91 
Q 1206 -91 779 398 
Q 353 888 353 1747 
Q 353 2609 779 3096 
Q 1206 3584 1959 3584 
z
" transform="scale(0.015625)"/>
      <path id="DejaVuSans-74" d="M 1172 4494 
L 1172 3500 
L 2356 3500 
L 2356 3053 
L 1172 3053 
L 1172 1153 
Q 1172 725 1289 603 
Q 1406 481 1766 481 
L 2356 481 
L 2356 0 
L 1766 0 
Q 1100 0 847 248 
Q 594 497 594 1153 
L 594 3053 
L 172 3053 
L 172 3500 
L 594 3500 
L 594 4494 
L 1172 4494 
z
" transform="scale(0.015625)"/>
      <path id="DejaVuSans-42" d="M 1259 2228 
L 1259 519 
L 2272 519 
Q 2781 519 3026 730 
Q 3272 941 3272 1375 
Q 3272 1813 3026 2020 
Q 2781 2228 2272 2228 
L 1259 2228 
z
M 1259 4147 
L 1259 2741 
L 2194 2741 
Q 2656 2741 2882 2914 
Q 3109 3088 3109 3444 
Q 3109 3797 2882 3972 
Q 2656 4147 2194 4147 
L 1259 4147 
z
M 628 4666 
L 2241 4666 
Q 2963 4666 3353 4366 
Q 3744 4066 3744 3513 
Q 3744 3084 3544 2831 
Q 3344 2578 2956 2516 
Q 3422 2416 3680 2098 
Q 3938 1781 3938 1306 
Q 3938 681 3513 340 
Q 3088 0 2303 0 
L 628 0 
L 628 4666 
z
" transform="scale(0.015625)"/>
      <path id="DejaVuSans-6e" d="M 3513 2113 
L 3513 0 
L 2938 0 
L 2938 2094 
Q 2938 2591 2744 2837 
Q 2550 3084 2163 3084 
Q 1697 3084 1428 2787 
Q 1159 2491 1159 1978 
L 1159 0 
L 581 0 
L 581 3500 
L 1159 3500 
L 1159 2956 
Q 1366 3272 1645 3428 
Q 1925 3584 2291 3584 
Q 2894 3584 3203 3211 
Q 3513 2838 3513 2113 
z
" transform="scale(0.015625)"/>
     </defs>
     <use xlink:href="#DejaVuSans-46"/>
     <use xlink:href="#DejaVuSans-6f" x="53.894531"/>
     <use xlink:href="#DejaVuSans-6f" x="115.076172"/>
     <use xlink:href="#DejaVuSans-74" x="176.257812"/>
     <use xlink:href="#DejaVuSans-42" x="215.466797"/>
     <use xlink:href="#DejaVuSans-69" x="284.070312"/>
     <use xlink:href="#DejaVuSans-6e" x="311.853516"/>
    </g>
   </g>
   <g id="text_15">
    <!-- WFL -->
    <g transform="translate(361.832136 67.483771)scale(0.08 -0.08)">
     <defs>
      <path id="DejaVuSans-4c" d="M 628 4666 
L 1259 4666 
L 1259 531 
L 3531 531 
L 3531 0 
L 628 0 
L 628 4666 
z
" transform="scale(0.015625)"/>
     </defs>
     <use xlink:href="#DejaVuSans-57"/>
     <use xlink:href="#DejaVuSans-46" x="98.876953"/>
     <use xlink:href="#DejaVuSans-4c" x="156.396484"/>
    </g>
   </g>
   <g id="text_16">
    <!-- WFR -->
    <g transform="translate(361.832136 63.003172)scale(0.08 -0.08)">
     <defs>
      <path id="DejaVuSans-52" d="M 2841 2188 
Q 3044 2119 3236 1894 
Q 3428 1669 3622 1275 
L 4263 0 
L 3584 0 
L 2988 1197 
Q 2756 1666 2539 1819 
Q 2322 1972 1947 1972 
L 1259 1972 
L 1259 0 
L 628 0 
L 628 4666 
L 2053 4666 
Q 2853 4666 3247 4331 
Q 3641 3997 3641 3322 
Q 3641 2881 3436 2590 
Q 3231 2300 2841 2188 
z
M 1259 4147 
L 1259 2491 
L 2053 2491 
Q 2509 2491 2742 2702 
Q 2975 2913 2975 3322 
Q 2975 3731 2742 3939 
Q 2509 4147 2053 4147 
L 1259 4147 
z
" transform="scale(0.015625)"/>
     </defs>
     <use xlink:href="#DejaVuSans-57"/>
     <use xlink:href="#DejaVuSans-46" x="98.876953"/>
     <use xlink:href="#DejaVuSans-52" x="156.396484"/>
    </g>
   </g>
   <g id="text_17">
    <!-- Main-L -->
    <g transform="translate(361.832136 46.970182)scale(0.08 -0.08)">
     <defs>
      <path id="DejaVuSans-4d" d="M 628 4666 
L 1569 4666 
L 2759 1491 
L 3956 4666 
L 4897 4666 
L 4897 0 
L 4281 0 
L 4281 4097 
L 3078 897 
L 2444 897 
L 1241 4097 
L 1241 0 
L 628 0 
L 628 4666 
z
" transform="scale(0.015625)"/>
      <path id="DejaVuSans-2d" d="M 313 2009 
L 1997 2009 
L 1997 1497 
L 313 1497 
L 313 2009 
z
" transform="scale(0.015625)"/>
     </defs>
     <use xlink:href="#DejaVuSans-4d"/>
     <use xlink:href="#DejaVuSans-61" x="86.279297"/>
     <use xlink:href="#DejaVuSans-69" x="147.558594"/>
     <use xlink:href="#DejaVuSans-6e" x="175.341797"/>
     <use xlink:href="#DejaVuSans-2d" x="238.720703"/>
     <use xlink:href="#DejaVuSans-4c" x="274.804688"/>
    </g>
   </g>
   <g id="text_18">
    <!-- Main-R -->
    <g transform="translate(361.832136 95.662965)scale(0.08 -0.08)">
     <use xlink:href="#DejaVuSans-4d"/>
     <use xlink:href="#DejaVuSans-61" x="86.279297"/>
     <use xlink:href="#DejaVuSans-69" x="147.558594"/>
     <use xlink:href="#DejaVuSans-6e" x="175.341797"/>
     <use xlink:href="#DejaVuSans-2d" x="238.720703"/>
     <use xlink:href="#DejaVuSans-52" x="274.804688"/>
    </g>
   </g>
   <g id="text_19">
    <!-- AFL -->
    <g transform="translate(361.832136 121.844784)scale(0.08 -0.08)">
     <defs>
      <path id="DejaVuSans-41" d="M 2188 4044 
L 1331 1722 
L 3047 1722 
L 2188 4044 
z
M 1831 4666 
L 2547 4666 
L 4325 0 
L 3669 0 
L 3244 1197 
L 1141 1197 
L 716 0 
L 50 0 
L 1831 4666 
z
" transform="scale(0.015625)"/>
     </defs>
     <use xlink:href="#DejaVuSans-41"/>
     <use xlink:href="#DejaVuSans-46" x="68.408203"/>
     <use xlink:href="#DejaVuSans-4c" x="125.927734"/>
    </g>
   </g>
   <g id="text_20">
    <!-- AFR -->
    <g transform="translate(361.832136 151.535505)scale(0.08 -0.08)">
     <use xlink:href="#DejaVuSans-41"/>
     <use xlink:href="#DejaVuSans-46" x="68.408203"/>
     <use xlink:href="#DejaVuSans-52" x="125.927734"/>
    </g>
   </g>
   <g id="text_21">
    <!-- Nonfinal -->
    <g transform="translate(361.832136 95.39305)scale(0.08 -0.08)">
     <defs>
      <path id="DejaVuSans-4e" d="M 628 4666 
L 1478 4666 
L 3547 763 
L 3547 4666 
L 4159 4666 
L 4159 0 
L 3309 0 
L 1241 3903 
L 1241 0 
L 628 0 
L 628 4666 
z
" transform="scale(0.015625)"/>
      <path id="DejaVuSans-66" d="M 2375 4863 
L 2375 4384 
L 1825 4384 
Q 1516 4384 1395 4259 
Q 1275 4134 1275 3809 
L 1275 3500 
L 2222 3500 
L 2222 3053 
L 1275 3053 
L 1275 0 
L 697 0 
L 697 3053 
L 147 3053 
L 147 3500 
L 697 3500 
L 697 3744 
Q 697 4328 969 4595 
Q 1241 4863 1831 4863 
L 2375 4863 
z
" transform="scale(0.015625)"/>
      <path id="DejaVuSans-6c" d="M 603 4863 
L 1178 4863 
L 1178 0 
L 603 0 
L 603 4863 
z
" transform="scale(0.015625)"/>
     </defs>
     <use xlink:href="#DejaVuSans-4e"/>
     <use xlink:href="#DejaVuSans-6f" x="74.804688"/>
     <use xlink:href="#DejaVuSans-6e" x="135.986328"/>
     <use xlink:href="#DejaVuSans-66" x="199.365234"/>
     <use xlink:href="#DejaVuSans-69" x="234.570312"/>
     <use xlink:href="#DejaVuSans-6e" x="262.353516"/>
     <use xlink:href="#DejaVuSans-61" x="325.732422"/>
     <use xlink:href="#DejaVuSans-6c" x="387.011719"/>
    </g>
   </g>
   <g id="text_22">
    <!-- Trochaic -->
    <g transform="translate(361.832136 51.93663)scale(0.08 -0.08)">
     <defs>
      <path id="DejaVuSans-54" d="M -19 4666 
L 3928 4666 
L 3928 4134 
L 2272 4134 
L 2272 0 
L 1638 0 
L 1638 4134 
L -19 4134 
L -19 4666 
z
" transform="scale(0.015625)"/>
      <path id="DejaVuSans-68" d="M 3513 2113 
L 3513 0 
L 2938 0 
L 2938 2094 
Q 2938 2591 2744 2837 
Q 2550 3084 2163 3084 
Q 1697 3084 1428 2787 
Q 1159 2491 1159 1978 
L 1159 0 
L 581 0 
L 581 4863 
L 1159 4863 
L 1159 2956 
Q 1366 3272 1645 3428 
Q 1925 3584 2291 3584 
Q 2894 3584 3203 3211 
Q 3513 2838 3513 2113 
z
" transform="scale(0.015625)"/>
     </defs>
     <use xlink:href="#DejaVuSans-54"/>
     <use xlink:href="#DejaVuSans-72" x="46.333984"/>
     <use xlink:href="#DejaVuSans-6f" x="85.197266"/>
     <use xlink:href="#DejaVuSans-63" x="146.378906"/>
     <use xlink:href="#DejaVuSans-68" x="201.359375"/>
     <use xlink:href="#DejaVuSans-61" x="264.738281"/>
     <use xlink:href="#DejaVuSans-69" x="326.017578"/>
     <use xlink:href="#DejaVuSans-63" x="353.800781"/>
    </g>
   </g>
  </g>
  <g id="axes_2">
   <g id="patch_7">
    <path d="M 57.6 307.584 
L 414.72 307.584 
L 414.72 186.624 
L 57.6 186.624 
z
" style="fill: #ffffff"/>
   </g>
   <g id="matplotlib.axis_3">
    <g id="xtick_8">
     <g id="line2d_23">
      <g>
       <use xlink:href="#mf9d26d2562" x="71.956111" y="307.584" style="stroke: #000000; stroke-width: 0.8"/>
      </g>
     </g>
     <g id="text_23">
      <!-- 0 -->
      <g transform="translate(68.774861 322.182437)scale(0.1 -0.1)">
       <use xlink:href="#DejaVuSans-30"/>
      </g>
     </g>
    </g>
    <g id="xtick_9">
     <g id="line2d_24">
      <g>
       <use xlink:href="#mf9d26d2562" x="118.871508" y="307.584" style="stroke: #000000; stroke-width: 0.8"/>
      </g>
     </g>
     <g id="text_24">
      <!-- 25 -->
      <g transform="translate(112.509008 322.182437)scale(0.1 -0.1)">
       <use xlink:href="#DejaVuSans-32"/>
       <use xlink:href="#DejaVuSans-35" x="63.623047"/>
      </g>
     </g>
    </g>
    <g id="xtick_10">
     <g id="line2d_25">
      <g>
       <use xlink:href="#mf9d26d2562" x="165.786905" y="307.584" style="stroke: #000000; stroke-width: 0.8"/>
      </g>
     </g>
     <g id="text_25">
      <!-- 50 -->
      <g transform="translate(159.424405 322.182437)scale(0.1 -0.1)">
       <use xlink:href="#DejaVuSans-35"/>
       <use xlink:href="#DejaVuSans-30" x="63.623047"/>
      </g>
     </g>
    </g>
    <g id="xtick_11">
     <g id="line2d_26">
      <g>
       <use xlink:href="#mf9d26d2562" x="212.702302" y="307.584" style="stroke: #000000; stroke-width: 0.8"/>
      </g>
     </g>
     <g id="text_26">
      <!-- 75 -->
      <g transform="translate(206.339802 322.182437)scale(0.1 -0.1)">
       <defs>
        <path id="DejaVuSans-37" d="M 525 4666 
L 3525 4666 
L 3525 4397 
L 1831 0 
L 1172 0 
L 2766 4134 
L 525 4134 
L 525 4666 
z
" transform="scale(0.015625)"/>
       </defs>
       <use xlink:href="#DejaVuSans-37"/>
       <use xlink:href="#DejaVuSans-35" x="63.623047"/>
      </g>
     </g>
    </g>
    <g id="xtick_12">
     <g id="line2d_27">
      <g>
       <use xlink:href="#mf9d26d2562" x="259.617698" y="307.584" style="stroke: #000000; stroke-width: 0.8"/>
      </g>
     </g>
     <g id="text_27">
      <!-- 100 -->
      <g transform="translate(250.073948 322.182437)scale(0.1 -0.1)">
       <use xlink:href="#DejaVuSans-31"/>
       <use xlink:href="#DejaVuSans-30" x="63.623047"/>
       <use xlink:href="#DejaVuSans-30" x="127.246094"/>
      </g>
     </g>
    </g>
    <g id="xtick_13">
     <g id="line2d_28">
      <g>
       <use xlink:href="#mf9d26d2562" x="306.533095" y="307.584" style="stroke: #000000; stroke-width: 0.8"/>
      </g>
     </g>
     <g id="text_28">
      <!-- 125 -->
      <g transform="translate(296.989345 322.182437)scale(0.1 -0.1)">
       <use xlink:href="#DejaVuSans-31"/>
       <use xlink:href="#DejaVuSans-32" x="63.623047"/>
       <use xlink:href="#DejaVuSans-35" x="127.246094"/>
      </g>
     </g>
    </g>
    <g id="xtick_14">
     <g id="line2d_29">
      <g>
       <use xlink:href="#mf9d26d2562" x="353.448492" y="307.584" style="stroke: #000000; stroke-width: 0.8"/>
      </g>
     </g>
     <g id="text_29">
      <!-- 150 -->
      <g transform="translate(343.904742 322.182437)scale(0.1 -0.1)">
       <use xlink:href="#DejaVuSans-31"/>
       <use xlink:href="#DejaVuSans-35" x="63.623047"/>
       <use xlink:href="#DejaVuSans-30" x="127.246094"/>
      </g>
     </g>
    </g>
    <g id="xtick_15">
     <g id="line2d_30">
      <g>
       <use xlink:href="#mf9d26d2562" x="400.363889" y="307.584" style="stroke: #000000; stroke-width: 0.8"/>
      </g>
     </g>
     <g id="text_30">
      <!-- 175 -->
      <g transform="translate(390.820139 322.182437)scale(0.1 -0.1)">
       <use xlink:href="#DejaVuSans-31"/>
       <use xlink:href="#DejaVuSans-37" x="63.623047"/>
       <use xlink:href="#DejaVuSans-35" x="127.246094"/>
      </g>
     </g>
    </g>
   </g>
   <g id="matplotlib.axis_4">
    <g id="ytick_4">
     <g id="line2d_31">
      <g>
       <use xlink:href="#m1a1bffee7e" x="57.6" y="302.096087" style="stroke: #000000; stroke-width: 0.8"/>
      </g>
     </g>
     <g id="text_31">
      <!-- 0 -->
      <g transform="translate(44.2375 305.895305)scale(0.1 -0.1)">
       <use xlink:href="#DejaVuSans-30"/>
      </g>
     </g>
    </g>
    <g id="ytick_5">
     <g id="line2d_32">
      <g>
       <use xlink:href="#m1a1bffee7e" x="57.6" y="281.55941" style="stroke: #000000; stroke-width: 0.8"/>
      </g>
     </g>
     <g id="text_32">
      <!-- 2000 -->
      <g transform="translate(25.15 285.358628)scale(0.1 -0.1)">
       <use xlink:href="#DejaVuSans-32"/>
       <use xlink:href="#DejaVuSans-30" x="63.623047"/>
       <use xlink:href="#DejaVuSans-30" x="127.246094"/>
       <use xlink:href="#DejaVuSans-30" x="190.869141"/>
      </g>
     </g>
    </g>
    <g id="ytick_6">
     <g id="line2d_33">
      <g>
       <use xlink:href="#m1a1bffee7e" x="57.6" y="261.022733" style="stroke: #000000; stroke-width: 0.8"/>
      </g>
     </g>
     <g id="text_33">
      <!-- 4000 -->
      <g transform="translate(25.15 264.821952)scale(0.1 -0.1)">
       <use xlink:href="#DejaVuSans-34"/>
       <use xlink:href="#DejaVuSans-30" x="63.623047"/>
       <use xlink:href="#DejaVuSans-30" x="127.246094"/>
       <use xlink:href="#DejaVuSans-30" x="190.869141"/>
      </g>
     </g>
    </g>
    <g id="ytick_7">
     <g id="line2d_34">
      <g>
       <use xlink:href="#m1a1bffee7e" x="57.6" y="240.486056" style="stroke: #000000; stroke-width: 0.8"/>
      </g>
     </g>
     <g id="text_34">
      <!-- 6000 -->
      <g transform="translate(25.15 244.285275)scale(0.1 -0.1)">
       <use xlink:href="#DejaVuSans-36"/>
       <use xlink:href="#DejaVuSans-30" x="63.623047"/>
       <use xlink:href="#DejaVuSans-30" x="127.246094"/>
       <use xlink:href="#DejaVuSans-30" x="190.869141"/>
      </g>
     </g>
    </g>
    <g id="ytick_8">
     <g id="line2d_35">
      <g>
       <use xlink:href="#m1a1bffee7e" x="57.6" y="219.949379" style="stroke: #000000; stroke-width: 0.8"/>
      </g>
     </g>
     <g id="text_35">
      <!-- 8000 -->
      <g transform="translate(25.15 223.748598)scale(0.1 -0.1)">
       <use xlink:href="#DejaVuSans-38"/>
       <use xlink:href="#DejaVuSans-30" x="63.623047"/>
       <use xlink:href="#DejaVuSans-30" x="127.246094"/>
       <use xlink:href="#DejaVuSans-30" x="190.869141"/>
      </g>
     </g>
    </g>
    <g id="ytick_9">
     <g id="line2d_36">
      <g>
       <use xlink:href="#m1a1bffee7e" x="57.6" y="199.412702" style="stroke: #000000; stroke-width: 0.8"/>
      </g>
     </g>
     <g id="text_36">
      <!-- 10000 -->
      <g transform="translate(18.7875 203.211921)scale(0.1 -0.1)">
       <use xlink:href="#DejaVuSans-31"/>
       <use xlink:href="#DejaVuSans-30" x="63.623047"/>
       <use xlink:href="#DejaVuSans-30" x="127.246094"/>
       <use xlink:href="#DejaVuSans-30" x="190.869141"/>
       <use xlink:href="#DejaVuSans-30" x="254.492188"/>
      </g>
     </g>
    </g>
   </g>
   <g id="line2d_37">
    <path d="M 73.832727 302.07555 
L 92.598886 302.085818 
L 101.981965 302.065282 
L 107.611813 302.065282 
L 109.488429 302.003671 
L 113.241661 302.085818 
L 120.748124 302.003671 
L 124.501356 302.065282 
L 132.007819 302.065282 
L 139.514283 301.993403 
L 141.390899 301.746963 
L 143.267514 302.034476 
L 145.14413 301.849646 
L 147.020746 302.044745 
L 148.897362 301.95233 
L 152.650594 302.044745 
L 154.52721 301.870183 
L 156.403826 302.07555 
L 158.280441 301.870183 
L 160.157057 302.055013 
L 162.033673 301.942061 
L 163.910289 302.085818 
L 165.786905 301.900988 
L 167.663521 301.89072 
L 169.540137 302.034476 
L 180.799832 301.972866 
L 184.553064 301.972866 
L 186.429679 301.562133 
L 188.306295 301.983135 
L 190.182911 301.777768 
L 193.936143 302.065282 
L 195.812759 302.034476 
L 197.689375 301.777768 
L 199.565991 301.95233 
L 201.442606 301.284888 
L 203.319222 301.438913 
L 205.195838 301.839378 
L 210.825686 301.993403 
L 212.702302 301.551865 
L 214.578917 301.500523 
L 216.455533 301.931793 
L 218.332149 302.044745 
L 220.208765 301.993403 
L 222.085381 302.065282 
L 223.961997 301.675085 
L 225.838613 301.654548 
L 227.715229 302.003671 
L 229.591844 301.685353 
L 231.46846 301.777768 
L 233.345076 301.592938 
L 235.221692 301.058984 
L 237.098308 301.962598 
L 238.974924 301.541596 
L 240.85154 300.668787 
L 242.728156 300.915228 
L 244.604771 299.950004 
L 246.481387 294.004636 
L 248.358003 302.065282 
L 250.234619 301.130863 
L 252.111235 300.463421 
L 253.987851 300.956301 
L 255.864467 302.07555 
L 257.741083 301.254083 
L 259.617698 299.149073 
L 261.494314 301.993403 
L 263.37093 302.034476 
L 265.247546 301.839378 
L 267.124162 301.931793 
L 269.000778 301.89072 
L 270.877394 301.438913 
L 272.754009 300.309396 
L 274.630625 300.874154 
L 276.507241 301.634011 
L 278.383857 302.034476 
L 280.260473 301.58267 
L 282.137089 301.900988 
L 284.013705 301.346498 
L 285.890321 301.746963 
L 289.643552 302.003671 
L 291.520168 297.239162 
L 293.396784 300.607177 
L 295.2734 301.510791 
L 297.150016 298.686998 
L 299.026632 301.038448 
L 300.903248 301.058984 
L 302.779863 300.104029 
L 304.656479 302.024208 
L 306.533095 298.656193 
L 310.286327 302.024208 
L 312.162943 278.109248 
L 314.039559 292.351433 
L 315.916174 300.750934 
L 317.79279 295.70918 
L 319.669406 296.006962 
L 321.546022 295.935083 
L 323.422638 292.382238 
L 325.299254 292.86485 
L 327.17587 301.664816 
L 329.052486 300.576372 
L 330.929101 294.405101 
L 332.805717 290.349107 
L 334.682333 301.82911 
L 336.558949 298.327606 
L 338.435565 287.391826 
L 340.312181 299.652222 
L 342.188797 301.39784 
L 344.065413 291.221916 
L 345.942028 275.203308 
L 347.818644 297.711506 
L 349.69526 295.606497 
L 351.571876 301.254083 
L 353.448492 284.044348 
L 355.325108 299.272293 
L 357.201724 289.065565 
L 359.078339 295.000665 
L 360.954955 279.649499 
L 362.831571 282.452755 
L 364.708187 301.911256 
L 366.584803 301.438913 
L 368.461419 283.797907 
L 370.338035 301.130863 
L 372.214651 279.002593 
L 374.091266 294.456443 
L 375.967882 283.192075 
L 377.844498 289.979447 
L 379.721114 295.257373 
L 381.59773 301.808573 
L 383.474346 298.902633 
L 385.350962 297.208357 
L 387.227578 293.255047 
L 389.104193 300.155371 
L 390.980809 299.980809 
L 392.857425 286.467675 
L 394.734041 296.736014 
L 396.610657 291.992041 
L 398.487273 192.122182 
L 398.487273 192.122182 
" clip-path="url(#pebafd1597b)" style="fill: none; stroke: #1f77b4; stroke-width: 1.5; stroke-linecap: square"/>
   </g>
   <g id="patch_8">
    <path d="M 57.6 307.584 
L 57.6 186.624 
" style="fill: none; stroke: #000000; stroke-width: 0.8; stroke-linejoin: miter; stroke-linecap: square"/>
   </g>
   <g id="patch_9">
    <path d="M 414.72 307.584 
L 414.72 186.624 
" style="fill: none; stroke: #000000; stroke-width: 0.8; stroke-linejoin: miter; stroke-linecap: square"/>
   </g>
   <g id="patch_10">
    <path d="M 57.6 307.584 
L 414.72 307.584 
" style="fill: none; stroke: #000000; stroke-width: 0.8; stroke-linejoin: miter; stroke-linecap: square"/>
   </g>
   <g id="patch_11">
    <path d="M 57.6 186.624 
L 414.72 186.624 
" style="fill: none; stroke: #000000; stroke-width: 0.8; stroke-linejoin: miter; stroke-linecap: square"/>
   </g>
  </g>
 </g>
 <defs>
  <clipPath id="p46afc9b05c">
   <rect x="57.6" y="41.472" width="357.12" height="120.96"/>
  </clipPath>
  <clipPath id="pebafd1597b">
   <rect x="57.6" y="186.624" width="357.12" height="120.96"/>
  </clipPath>
 </defs>
</svg>
