<?xml version="1.0" encoding="utf-8" standalone="no"?>
<!DOCTYPE svg PUBLIC "-//W3C//DTD SVG 1.1//EN"
  "http://www.w3.org/Graphics/SVG/1.1/DTD/svg11.dtd">
<svg xmlns:xlink="http://www.w3.org/1999/xlink" width="460.8pt" height="345.6pt" viewBox="0 0 460.8 345.6" xmlns="http://www.w3.org/2000/svg" version="1.1">
 <metadata>
  <rdf:RDF xmlns:dc="http://purl.org/dc/elements/1.1/" xmlns:cc="http://creativecommons.org/ns#" xmlns:rdf="http://www.w3.org/1999/02/22-rdf-syntax-ns#">
   <cc:Work>
    <dc:type rdf:resource="http://purl.org/dc/dcmitype/StillImage"/>
    <dc:date>2022-05-13T16:51:24.407735</dc:date>
    <dc:format>image/svg+xml</dc:format>
    <dc:creator>
     <cc:Agent>
      <dc:title>Matplotlib v3.5.1, https://matplotlib.org/</dc:title>
     </cc:Agent>
    </dc:creator>
   </cc:Work>
  </rdf:RDF>
 </metadata>
 <defs>
  <style type="text/css">*{stroke-linejoin: round; stroke-linecap: butt}</style>
 </defs>
 <g id="figure_1">
  <g id="patch_1">
   <path d="M 0 345.6 
L 460.8 345.6 
L 460.8 0 
L 0 0 
z
" style="fill: #ffffff"/>
  </g>
  <g id="axes_1">
   <g id="patch_2">
    <path d="M 57.6 162.432 
L 414.72 162.432 
L 414.72 41.472 
L 57.6 41.472 
z
" style="fill: #ffffff"/>
   </g>
   <g id="matplotlib.axis_1">
    <g id="xtick_1">
     <g id="line2d_1">
      <defs>
       <path id="m6b2b74310f" d="M 0 0 
L 0 3.5 
" style="stroke: #000000; stroke-width: 0.8"/>
      </defs>
      <g>
       <use xlink:href="#m6b2b74310f" x="73.827491" y="162.432" style="stroke: #000000; stroke-width: 0.8"/>
      </g>
     </g>
     <g id="text_1">
      <!-- 0 -->
      <g transform="translate(70.646241 177.030437)scale(0.1 -0.1)">
       <defs>
        <path id="DejaVuSans-30" d="M 2034 4250 
Q 1547 4250 1301 3770 
Q 1056 3291 1056 2328 
Q 1056 1369 1301 889 
Q 1547 409 2034 409 
Q 2525 409 2770 889 
Q 3016 1369 3016 2328 
Q 3016 3291 2770 3770 
Q 2525 4250 2034 4250 
z
M 2034 4750 
Q 2819 4750 3233 4129 
Q 3647 3509 3647 2328 
Q 3647 1150 3233 529 
Q 2819 -91 2034 -91 
Q 1250 -91 836 529 
Q 422 1150 422 2328 
Q 422 3509 836 4129 
Q 1250 4750 2034 4750 
z
" transform="scale(0.015625)"/>
       </defs>
       <use xlink:href="#DejaVuSans-30"/>
      </g>
     </g>
    </g>
    <g id="xtick_2">
     <g id="line2d_2">
      <g>
       <use xlink:href="#m6b2b74310f" x="126.191972" y="162.432" style="stroke: #000000; stroke-width: 0.8"/>
      </g>
     </g>
     <g id="text_2">
      <!-- 10000 -->
      <g transform="translate(110.285722 177.030437)scale(0.1 -0.1)">
       <defs>
        <path id="DejaVuSans-31" d="M 794 531 
L 1825 531 
L 1825 4091 
L 703 3866 
L 703 4441 
L 1819 4666 
L 2450 4666 
L 2450 531 
L 3481 531 
L 3481 0 
L 794 0 
L 794 531 
z
" transform="scale(0.015625)"/>
       </defs>
       <use xlink:href="#DejaVuSans-31"/>
       <use xlink:href="#DejaVuSans-30" x="63.623047"/>
       <use xlink:href="#DejaVuSans-30" x="127.246094"/>
       <use xlink:href="#DejaVuSans-30" x="190.869141"/>
       <use xlink:href="#DejaVuSans-30" x="254.492188"/>
      </g>
     </g>
    </g>
    <g id="xtick_3">
     <g id="line2d_3">
      <g>
       <use xlink:href="#m6b2b74310f" x="178.556453" y="162.432" style="stroke: #000000; stroke-width: 0.8"/>
      </g>
     </g>
     <g id="text_3">
      <!-- 20000 -->
      <g transform="translate(162.650203 177.030437)scale(0.1 -0.1)">
       <defs>
        <path id="DejaVuSans-32" d="M 1228 531 
L 3431 531 
L 3431 0 
L 469 0 
L 469 531 
Q 828 903 1448 1529 
Q 2069 2156 2228 2338 
Q 2531 2678 2651 2914 
Q 2772 3150 2772 3378 
Q 2772 3750 2511 3984 
Q 2250 4219 1831 4219 
Q 1534 4219 1204 4116 
Q 875 4013 500 3803 
L 500 4441 
Q 881 4594 1212 4672 
Q 1544 4750 1819 4750 
Q 2544 4750 2975 4387 
Q 3406 4025 3406 3419 
Q 3406 3131 3298 2873 
Q 3191 2616 2906 2266 
Q 2828 2175 2409 1742 
Q 1991 1309 1228 531 
z
" transform="scale(0.015625)"/>
       </defs>
       <use xlink:href="#DejaVuSans-32"/>
       <use xlink:href="#DejaVuSans-30" x="63.623047"/>
       <use xlink:href="#DejaVuSans-30" x="127.246094"/>
       <use xlink:href="#DejaVuSans-30" x="190.869141"/>
       <use xlink:href="#DejaVuSans-30" x="254.492188"/>
      </g>
     </g>
    </g>
    <g id="xtick_4">
     <g id="line2d_4">
      <g>
       <use xlink:href="#m6b2b74310f" x="230.920934" y="162.432" style="stroke: #000000; stroke-width: 0.8"/>
      </g>
     </g>
     <g id="text_4">
      <!-- 30000 -->
      <g transform="translate(215.014684 177.030437)scale(0.1 -0.1)">
       <defs>
        <path id="DejaVuSans-33" d="M 2597 2516 
Q 3050 2419 3304 2112 
Q 3559 1806 3559 1356 
Q 3559 666 3084 287 
Q 2609 -91 1734 -91 
Q 1441 -91 1130 -33 
Q 819 25 488 141 
L 488 750 
Q 750 597 1062 519 
Q 1375 441 1716 441 
Q 2309 441 2620 675 
Q 2931 909 2931 1356 
Q 2931 1769 2642 2001 
Q 2353 2234 1838 2234 
L 1294 2234 
L 1294 2753 
L 1863 2753 
Q 2328 2753 2575 2939 
Q 2822 3125 2822 3475 
Q 2822 3834 2567 4026 
Q 2313 4219 1838 4219 
Q 1578 4219 1281 4162 
Q 984 4106 628 3988 
L 628 4550 
Q 988 4650 1302 4700 
Q 1616 4750 1894 4750 
Q 2613 4750 3031 4423 
Q 3450 4097 3450 3541 
Q 3450 3153 3228 2886 
Q 3006 2619 2597 2516 
z
" transform="scale(0.015625)"/>
       </defs>
       <use xlink:href="#DejaVuSans-33"/>
       <use xlink:href="#DejaVuSans-30" x="63.623047"/>
       <use xlink:href="#DejaVuSans-30" x="127.246094"/>
       <use xlink:href="#DejaVuSans-30" x="190.869141"/>
       <use xlink:href="#DejaVuSans-30" x="254.492188"/>
      </g>
     </g>
    </g>
    <g id="xtick_5">
     <g id="line2d_5">
      <g>
       <use xlink:href="#m6b2b74310f" x="283.285415" y="162.432" style="stroke: #000000; stroke-width: 0.8"/>
      </g>
     </g>
     <g id="text_5">
      <!-- 40000 -->
      <g transform="translate(267.379165 177.030437)scale(0.1 -0.1)">
       <defs>
        <path id="DejaVuSans-34" d="M 2419 4116 
L 825 1625 
L 2419 1625 
L 2419 4116 
z
M 2253 4666 
L 3047 4666 
L 3047 1625 
L 3713 1625 
L 3713 1100 
L 3047 1100 
L 3047 0 
L 2419 0 
L 2419 1100 
L 313 1100 
L 313 1709 
L 2253 4666 
z
" transform="scale(0.015625)"/>
       </defs>
       <use xlink:href="#DejaVuSans-34"/>
       <use xlink:href="#DejaVuSans-30" x="63.623047"/>
       <use xlink:href="#DejaVuSans-30" x="127.246094"/>
       <use xlink:href="#DejaVuSans-30" x="190.869141"/>
       <use xlink:href="#DejaVuSans-30" x="254.492188"/>
      </g>
     </g>
    </g>
    <g id="xtick_6">
     <g id="line2d_6">
      <g>
       <use xlink:href="#m6b2b74310f" x="335.649896" y="162.432" style="stroke: #000000; stroke-width: 0.8"/>
      </g>
     </g>
     <g id="text_6">
      <!-- 50000 -->
      <g transform="translate(319.743646 177.030437)scale(0.1 -0.1)">
       <defs>
        <path id="DejaVuSans-35" d="M 691 4666 
L 3169 4666 
L 3169 4134 
L 1269 4134 
L 1269 2991 
Q 1406 3038 1543 3061 
Q 1681 3084 1819 3084 
Q 2600 3084 3056 2656 
Q 3513 2228 3513 1497 
Q 3513 744 3044 326 
Q 2575 -91 1722 -91 
Q 1428 -91 1123 -41 
Q 819 9 494 109 
L 494 744 
Q 775 591 1075 516 
Q 1375 441 1709 441 
Q 2250 441 2565 725 
Q 2881 1009 2881 1497 
Q 2881 1984 2565 2268 
Q 2250 2553 1709 2553 
Q 1456 2553 1204 2497 
Q 953 2441 691 2322 
L 691 4666 
z
" transform="scale(0.015625)"/>
       </defs>
       <use xlink:href="#DejaVuSans-35"/>
       <use xlink:href="#DejaVuSans-30" x="63.623047"/>
       <use xlink:href="#DejaVuSans-30" x="127.246094"/>
       <use xlink:href="#DejaVuSans-30" x="190.869141"/>
       <use xlink:href="#DejaVuSans-30" x="254.492188"/>
      </g>
     </g>
    </g>
    <g id="xtick_7">
     <g id="line2d_7">
      <g>
       <use xlink:href="#m6b2b74310f" x="388.014377" y="162.432" style="stroke: #000000; stroke-width: 0.8"/>
      </g>
     </g>
     <g id="text_7">
      <!-- 60000 -->
      <g transform="translate(372.108127 177.030437)scale(0.1 -0.1)">
       <defs>
        <path id="DejaVuSans-36" d="M 2113 2584 
Q 1688 2584 1439 2293 
Q 1191 2003 1191 1497 
Q 1191 994 1439 701 
Q 1688 409 2113 409 
Q 2538 409 2786 701 
Q 3034 994 3034 1497 
Q 3034 2003 2786 2293 
Q 2538 2584 2113 2584 
z
M 3366 4563 
L 3366 3988 
Q 3128 4100 2886 4159 
Q 2644 4219 2406 4219 
Q 1781 4219 1451 3797 
Q 1122 3375 1075 2522 
Q 1259 2794 1537 2939 
Q 1816 3084 2150 3084 
Q 2853 3084 3261 2657 
Q 3669 2231 3669 1497 
Q 3669 778 3244 343 
Q 2819 -91 2113 -91 
Q 1303 -91 875 529 
Q 447 1150 447 2328 
Q 447 3434 972 4092 
Q 1497 4750 2381 4750 
Q 2619 4750 2861 4703 
Q 3103 4656 3366 4563 
z
" transform="scale(0.015625)"/>
       </defs>
       <use xlink:href="#DejaVuSans-36"/>
       <use xlink:href="#DejaVuSans-30" x="63.623047"/>
       <use xlink:href="#DejaVuSans-30" x="127.246094"/>
       <use xlink:href="#DejaVuSans-30" x="190.869141"/>
       <use xlink:href="#DejaVuSans-30" x="254.492188"/>
      </g>
     </g>
    </g>
   </g>
   <g id="matplotlib.axis_2">
    <g id="ytick_1">
     <g id="line2d_8">
      <defs>
       <path id="m8c5cf51d99" d="M 0 0 
L -3.5 0 
" style="stroke: #000000; stroke-width: 0.8"/>
      </defs>
      <g>
       <use xlink:href="#m8c5cf51d99" x="57.6" y="141.747214" style="stroke: #000000; stroke-width: 0.8"/>
      </g>
     </g>
     <g id="text_8">
      <!-- 20 -->
      <g transform="translate(37.875 145.546433)scale(0.1 -0.1)">
       <use xlink:href="#DejaVuSans-32"/>
       <use xlink:href="#DejaVuSans-30" x="63.623047"/>
      </g>
     </g>
    </g>
    <g id="ytick_2">
     <g id="line2d_9">
      <g>
       <use xlink:href="#m8c5cf51d99" x="57.6" y="119.468578" style="stroke: #000000; stroke-width: 0.8"/>
      </g>
     </g>
     <g id="text_9">
      <!-- 40 -->
      <g transform="translate(37.875 123.267797)scale(0.1 -0.1)">
       <use xlink:href="#DejaVuSans-34"/>
       <use xlink:href="#DejaVuSans-30" x="63.623047"/>
      </g>
     </g>
    </g>
    <g id="ytick_3">
     <g id="line2d_10">
      <g>
       <use xlink:href="#m8c5cf51d99" x="57.6" y="97.189941" style="stroke: #000000; stroke-width: 0.8"/>
      </g>
     </g>
     <g id="text_10">
      <!-- 60 -->
      <g transform="translate(37.875 100.98916)scale(0.1 -0.1)">
       <use xlink:href="#DejaVuSans-36"/>
       <use xlink:href="#DejaVuSans-30" x="63.623047"/>
      </g>
     </g>
    </g>
    <g id="ytick_4">
     <g id="line2d_11">
      <g>
       <use xlink:href="#m8c5cf51d99" x="57.6" y="74.911305" style="stroke: #000000; stroke-width: 0.8"/>
      </g>
     </g>
     <g id="text_11">
      <!-- 80 -->
      <g transform="translate(37.875 78.710524)scale(0.1 -0.1)">
       <defs>
        <path id="DejaVuSans-38" d="M 2034 2216 
Q 1584 2216 1326 1975 
Q 1069 1734 1069 1313 
Q 1069 891 1326 650 
Q 1584 409 2034 409 
Q 2484 409 2743 651 
Q 3003 894 3003 1313 
Q 3003 1734 2745 1975 
Q 2488 2216 2034 2216 
z
M 1403 2484 
Q 997 2584 770 2862 
Q 544 3141 544 3541 
Q 544 4100 942 4425 
Q 1341 4750 2034 4750 
Q 2731 4750 3128 4425 
Q 3525 4100 3525 3541 
Q 3525 3141 3298 2862 
Q 3072 2584 2669 2484 
Q 3125 2378 3379 2068 
Q 3634 1759 3634 1313 
Q 3634 634 3220 271 
Q 2806 -91 2034 -91 
Q 1263 -91 848 271 
Q 434 634 434 1313 
Q 434 1759 690 2068 
Q 947 2378 1403 2484 
z
M 1172 3481 
Q 1172 3119 1398 2916 
Q 1625 2713 2034 2713 
Q 2441 2713 2670 2916 
Q 2900 3119 2900 3481 
Q 2900 3844 2670 4047 
Q 2441 4250 2034 4250 
Q 1625 4250 1398 4047 
Q 1172 3844 1172 3481 
z
" transform="scale(0.015625)"/>
       </defs>
       <use xlink:href="#DejaVuSans-38"/>
       <use xlink:href="#DejaVuSans-30" x="63.623047"/>
      </g>
     </g>
    </g>
    <g id="ytick_5">
     <g id="line2d_12">
      <g>
       <use xlink:href="#m8c5cf51d99" x="57.6" y="52.632669" style="stroke: #000000; stroke-width: 0.8"/>
      </g>
     </g>
     <g id="text_12">
      <!-- 100 -->
      <g transform="translate(31.5125 56.431887)scale(0.1 -0.1)">
       <use xlink:href="#DejaVuSans-31"/>
       <use xlink:href="#DejaVuSans-30" x="63.623047"/>
       <use xlink:href="#DejaVuSans-30" x="127.246094"/>
      </g>
     </g>
    </g>
   </g>
   <g id="line2d_13">
    <path d="M 73.832727 53.7466 
L 73.85891 52.818324 
L 73.879855 55.937333 
L 73.91651 55.566022 
L 73.921747 55.566022 
L 73.974111 54.452091 
L 74.042185 58.165197 
L 74.063131 57.422575 
L 74.073604 59.650439 
L 74.146914 58.536507 
L 74.157387 58.536507 
L 74.173096 58.165197 
L 74.225461 60.39306 
L 74.230697 60.39306 
L 74.351136 63.17789 
L 74.356372 63.17789 
L 74.455865 62.435269 
L 74.372081 63.920511 
L 74.461101 63.5492 
L 74.544884 65.405753 
L 74.576303 64.663132 
L 74.581539 64.663132 
L 74.586776 65.777064 
L 74.675795 64.291822 
L 74.686268 64.291822 
L 74.707214 64.291822 
L 74.775288 65.405753 
L 74.81718 65.034443 
L 74.822416 65.034443 
L 74.906199 67.262307 
L 74.937618 66.33403 
L 74.953327 66.33403 
L 75.068529 67.819272 
L 75.27275 67.819272 
L 75.387952 67.447962 
L 75.429844 67.447962 
L 75.497918 69.675825 
L 75.545046 69.304515 
L 75.68643 69.304515 
L 75.801632 68.747549 
L 75.822578 68.747549 
L 75.937779 68.524763 
L 75.969198 68.524763 
L 75.974435 68.153452 
L 75.979671 69.267384 
L 76.073927 68.896073 
L 76.15771 68.896073 
L 76.189129 70.010005 
L 76.267676 69.638694 
L 76.398587 69.638694 
L 76.424769 70.752626 
L 76.513789 70.52984 
L 76.545207 70.52984 
L 76.660409 69.972874 
L 76.676119 71.086806 
L 76.770375 70.52984 
L 76.827976 70.52984 
L 76.943177 70.158529 
L 77.35162 70.158529 
L 77.44064 69.378777 
L 77.445876 70.492709 
L 77.456349 70.492709 
L 77.733881 70.492709 
L 77.849083 71.606641 
L 77.854319 71.606641 
L 77.875265 71.23533 
L 77.880502 72.349262 
L 77.953812 72.349262 
L 77.979994 72.349262 
L 78.095196 71.977951 
L 78.304654 71.977951 
L 78.419856 71.049675 
L 78.749752 71.049675 
L 78.864954 72.163607 
L 78.896373 72.163607 
L 79.011574 73.277538 
L 79.063939 73.277538 
L 79.179141 72.720572 
L 79.262924 72.720572 
L 79.304816 73.834504 
L 79.378126 73.611718 
L 79.676603 73.611718 
L 79.687076 74.72565 
L 79.786569 74.354339 
L 79.886061 74.354339 
L 80.001263 73.797373 
L 80.053628 73.797373 
L 80.168829 73.574587 
L 80.346869 73.574587 
L 80.462071 72.98049 
L 80.535381 72.98049 
L 80.629637 74.094422 
L 80.645346 73.723111 
L 80.765785 73.723111 
L 80.80244 74.837043 
L 80.87575 74.465732 
L 80.922878 74.465732 
L 80.959533 75.579664 
L 81.032843 75.208354 
L 81.305139 75.208354 
L 81.341794 74.651388 
L 81.34703 75.765319 
L 81.409868 75.765319 
L 81.781655 75.765319 
L 81.797365 75.394009 
L 81.802601 76.507941 
L 81.886384 75.950975 
L 83.567284 75.950975 
L 83.682486 75.579664 
L 84.850214 75.579664 
L 84.902579 75.208354 
L 84.907815 76.322285 
L 84.949707 76.322285 
L 86.578242 76.322285 
L 86.620134 75.950975 
L 86.62537 77.064907 
L 86.677734 77.064907 
L 86.803409 77.064907 
L 86.918611 76.693596 
L 88.243432 76.693596 
L 88.358634 77.807528 
L 89.002717 77.807528 
L 89.117919 77.436217 
L 92.856743 77.436217 
L 92.971945 76.879251 
L 93.207585 76.879251 
L 93.33326 76.099499 
L 93.401334 76.099499 
L 93.516536 77.213431 
L 93.694575 77.213431 
L 93.809777 76.84212 
L 94.705209 76.84212 
L 94.820411 77.956052 
L 96.595567 77.956052 
L 96.710769 79.069984 
L 96.763133 79.069984 
L 96.878335 78.698673 
L 97.559074 78.698673 
L 97.674275 78.327363 
L 98.957205 78.327363 
L 99.072407 79.441294 
L 106.361543 79.441294 
L 106.476745 79.069984 
L 107.461197 79.069984 
L 107.581635 81.297847 
L 127.726251 81.297847 
L 127.841453 80.740882 
L 128.433172 80.740882 
L 128.548373 81.854813 
L 128.925398 81.854813 
L 129.0406 81.483503 
L 139.969067 81.483503 
L 140.084269 81.112192 
L 141.73375 81.112192 
L 141.848952 82.226124 
L 149.007176 82.226124 
L 149.122378 81.854813 
L 158.181433 81.854813 
L 158.296635 81.483503 
L 160.694928 81.483503 
L 160.81013 82.597435 
L 169.591654 82.597435 
L 169.706855 82.226124 
L 197.266282 82.226124 
L 197.381484 83.340056 
L 201.879593 83.340056 
L 201.994794 82.968745 
L 210.776318 82.968745 
L 210.89152 82.597435 
L 233.266862 82.597435 
L 233.382064 82.374648 
L 266.874386 82.374648 
L 266.989588 83.48858 
L 273.734133 83.48858 
L 273.849335 83.117269 
L 281.279855 83.117269 
L 281.395057 82.745959 
L 301.586801 82.745959 
L 301.702003 82.374648 
L 326.014831 82.374648 
L 326.130033 82.003338 
L 330.272063 82.003338 
L 330.387265 83.117269 
L 330.591487 83.117269 
L 330.706689 82.745959 
L 343.04376 82.745959 
L 343.158962 83.859891 
L 346.971096 83.859891 
L 347.086298 84.973822 
L 398.487273 84.973822 
L 398.487273 84.973822 
" clip-path="url(#p4e02fa4378)" style="fill: none; stroke: #1f77b4; stroke-width: 1.5; stroke-linecap: square"/>
   </g>
   <g id="line2d_14">
    <path d="M 73.832727 52.409882 
L 73.963638 57.478272 
L 74.000294 56.36434 
L 74.036949 59.706136 
L 74.042185 59.334825 
L 74.105023 61.191378 
L 74.152151 59.52048 
L 74.157387 59.52048 
L 74.262116 61.562689 
L 74.24117 59.334825 
L 74.272589 61.005723 
L 74.283062 61.005723 
L 74.377318 60.077446 
L 74.382554 61.191378 
L 74.393027 60.820067 
L 74.413973 60.820067 
L 74.534411 59.706136 
L 74.602485 59.706136 
L 74.607722 60.820067 
L 74.712451 59.706136 
L 74.827652 59.14917 
L 74.853835 59.14917 
L 74.859071 60.263102 
L 74.9638 59.14917 
L 75.131366 59.14917 
L 75.246568 58.592204 
L 75.461263 58.592204 
L 75.576464 58.035238 
L 75.59741 58.035238 
L 75.68643 59.14917 
L 75.707376 58.592204 
L 75.817341 58.592204 
L 75.822578 58.035238 
L 75.827814 59.14917 
L 75.92207 59.14917 
L 75.958725 59.14917 
L 76.073927 58.035238 
L 76.309567 58.035238 
L 76.424769 55.807374 
L 76.539971 56.921306 
L 76.545207 56.921306 
L 76.660409 58.035238 
L 76.676119 58.035238 
L 76.738956 60.263102 
L 76.79132 59.706136 
L 76.822739 59.706136 
L 76.937941 59.14917 
L 77.35162 59.14917 
L 77.383039 58.592204 
L 77.388276 59.706136 
L 77.456349 59.483349 
L 78.084723 59.483349 
L 78.199925 58.926383 
L 78.304654 58.926383 
L 78.419856 58.369417 
L 79.063939 58.369417 
L 79.179141 57.812452 
L 79.304816 57.812452 
L 79.404308 58.926383 
L 79.414781 57.812452 
L 79.886061 57.812452 
L 80.001263 58.926383 
L 80.053628 58.926383 
L 80.168829 60.040315 
L 80.210721 60.040315 
L 80.304977 61.154247 
L 80.320686 60.040315 
L 80.346869 60.040315 
L 80.462071 59.446218 
L 81.305139 59.446218 
L 81.420341 58.889252 
L 81.813074 58.889252 
L 81.928276 58.332286 
L 82.205808 58.332286 
L 82.32101 59.446218 
L 82.760871 59.446218 
L 82.876073 58.332286 
L 83.410191 58.332286 
L 83.525393 59.446218 
L 83.960018 59.446218 
L 84.07522 58.889252 
L 85.138219 58.889252 
L 85.206293 57.77532 
L 85.248184 58.889252 
L 85.82943 58.889252 
L 85.944632 58.332286 
L 87.986846 58.332286 
L 88.102048 59.446218 
L 92.856743 59.446218 
L 92.971945 58.889252 
L 93.003364 58.889252 
L 93.118566 60.003184 
L 93.207585 60.003184 
L 93.312314 61.117116 
L 93.317551 60.56015 
L 93.532245 60.56015 
L 93.647447 59.446218 
L 97.883733 59.446218 
L 97.998935 58.332286 
L 103.203965 58.332286 
L 103.319166 59.446218 
L 103.376767 59.446218 
L 103.491969 58.889252 
L 103.628117 58.889252 
L 103.743319 57.77532 
L 107.571162 57.77532 
L 107.686364 58.889252 
L 118.201152 58.889252 
L 118.316354 60.003184 
L 127.726251 60.003184 
L 127.841453 59.446218 
L 134.585998 59.446218 
L 134.7012 58.889252 
L 156.856612 58.889252 
L 156.971814 58.332286 
L 162.716197 58.332286 
L 162.831399 59.446218 
L 183.447295 59.446218 
L 183.562497 58.889252 
L 187.029026 58.889252 
L 187.144228 57.77532 
L 189.416846 57.77532 
L 189.532048 58.889252 
L 191.54808 58.889252 
L 191.663282 60.003184 
L 195.224067 60.003184 
L 195.339269 58.889252 
L 233.266862 58.889252 
L 233.382064 60.003184 
L 244.949378 60.003184 
L 245.06458 59.446218 
L 265.98419 59.446218 
L 266.099392 60.56015 
L 273.393764 60.56015 
L 273.508966 60.003184 
L 297.439534 60.003184 
L 297.554736 59.446218 
L 325.538314 59.446218 
L 325.653516 58.332286 
L 346.971096 58.332286 
L 347.086298 59.446218 
L 398.487273 59.446218 
L 398.487273 59.446218 
" clip-path="url(#p4e02fa4378)" style="fill: none; stroke: #ff7f0e; stroke-width: 1.5; stroke-linecap: square"/>
   </g>
   <g id="line2d_15">
    <path d="M 73.832727 53.7466 
L 73.853673 53.37529 
L 73.879855 57.831017 
L 73.890328 57.459706 
L 73.900801 57.459706 
L 74.042185 64.978746 
L 74.063131 64.236125 
L 74.110259 66.835299 
L 74.115495 66.835299 
L 74.277825 78.345928 
L 74.283062 78.345928 
L 74.419209 85.77214 
L 74.424446 85.40083 
L 74.440155 85.40083 
L 74.455865 85.029519 
L 74.466337 87.257383 
L 74.513466 86.886072 
L 74.618194 90.227868 
L 74.633904 89.856557 
L 74.63914 89.856557 
L 74.764815 93.569663 
L 74.775288 93.569663 
L 74.822416 92.827042 
L 74.864308 95.054905 
L 74.958564 98.02539 
L 74.984746 97.65408 
L 74.989982 97.65408 
L 75.047583 97.282769 
L 75.05282 98.396701 
L 75.089475 98.396701 
L 75.131366 98.396701 
L 75.246568 99.510633 
L 75.27275 99.510633 
L 75.387952 99.139322 
L 75.429844 99.139322 
L 75.497918 102.481118 
L 75.550282 102.109807 
L 75.555519 102.109807 
L 75.670721 101.552841 
L 75.68643 101.552841 
L 75.801632 102.666773 
L 75.817341 102.666773 
L 75.822578 103.780705 
L 75.932543 103.557918 
L 75.958725 103.557918 
L 76.026799 105.414471 
L 76.073927 105.043161 
L 76.15771 105.043161 
L 76.189129 106.157093 
L 76.267676 105.785782 
L 76.309567 105.785782 
L 76.424769 106.899714 
L 76.539971 106.676927 
L 76.660409 106.676927 
L 76.775611 108.626308 
L 76.822739 108.626308 
L 76.827976 109.74024 
L 76.932705 109.368929 
L 77.35162 109.368929 
L 77.472059 111.596793 
L 77.733881 111.596793 
L 77.849083 112.710725 
L 77.854319 112.710725 
L 77.875265 112.339414 
L 77.880502 113.453346 
L 77.953812 113.453346 
L 77.979994 113.453346 
L 78.084723 113.082035 
L 78.199925 114.195967 
L 78.304654 114.195967 
L 78.383201 115.309899 
L 78.414619 114.938588 
L 78.749752 114.938588 
L 78.864954 116.05252 
L 78.896373 116.05252 
L 79.011574 117.166452 
L 79.262924 117.166452 
L 79.304816 118.280384 
L 79.378126 118.057598 
L 79.404308 118.057598 
L 79.51951 119.171529 
L 79.676603 119.171529 
L 79.687076 120.285461 
L 79.786569 119.914151 
L 80.053628 119.914151 
L 80.168829 119.691364 
L 80.210721 119.691364 
L 80.304977 119.412881 
L 80.430652 122.754677 
L 80.535381 122.754677 
L 80.629637 123.868609 
L 80.645346 123.497298 
L 80.765785 123.497298 
L 80.80244 124.61123 
L 80.87575 124.239919 
L 80.922878 124.239919 
L 80.959533 125.353851 
L 81.032843 124.98254 
L 81.305139 124.98254 
L 81.425577 127.210404 
L 81.781655 127.210404 
L 81.797365 126.839093 
L 81.818311 129.066957 
L 81.865439 129.066957 
L 82.205808 129.066957 
L 82.32101 128.788474 
L 82.760871 128.788474 
L 82.876073 129.902406 
L 83.410191 129.902406 
L 83.525393 129.623923 
L 83.567284 129.623923 
L 83.682486 129.252612 
L 83.960018 129.252612 
L 84.07522 130.366544 
L 84.850214 130.366544 
L 84.902579 129.995234 
L 84.907815 131.109165 
L 84.949707 131.109165 
L 85.138219 131.109165 
L 85.206293 132.223097 
L 85.248184 131.944614 
L 85.82943 131.944614 
L 85.944632 133.058546 
L 86.578242 133.058546 
L 86.620134 132.687236 
L 86.62537 133.801167 
L 86.677734 133.801167 
L 86.803409 133.801167 
L 86.918611 133.429857 
L 87.986846 133.429857 
L 88.102048 133.151374 
L 88.243432 133.151374 
L 88.358634 134.265306 
L 89.002717 134.265306 
L 89.117919 133.893995 
L 92.856743 133.893995 
L 92.971945 135.007927 
L 93.003364 135.007927 
L 93.118566 134.729444 
L 93.207585 134.729444 
L 93.312314 134.506657 
L 93.432752 136.734521 
L 93.532245 136.734521 
L 93.647447 137.848453 
L 93.694575 137.848453 
L 93.809777 137.477142 
L 94.705209 137.477142 
L 94.820411 138.591074 
L 96.595567 138.591074 
L 96.710769 139.705006 
L 96.763133 139.705006 
L 96.878335 139.333695 
L 97.559074 139.333695 
L 97.674275 138.962385 
L 97.883733 138.962385 
L 97.998935 140.076317 
L 98.957205 140.076317 
L 99.072407 141.190248 
L 103.203965 141.190248 
L 103.319166 140.911765 
L 103.376767 140.911765 
L 103.491969 142.025697 
L 103.628117 142.025697 
L 103.743319 143.139629 
L 106.361543 143.139629 
L 106.476745 142.768319 
L 107.461197 142.768319 
L 107.571162 143.88225 
L 107.686364 143.603767 
L 127.726251 143.603767 
L 127.841453 144.717699 
L 128.433172 144.717699 
L 128.548373 145.831631 
L 128.925398 145.831631 
L 129.0406 145.46032 
L 134.585998 145.46032 
L 134.7012 146.574252 
L 139.969067 146.574252 
L 140.084269 146.202942 
L 141.73375 146.202942 
L 141.848952 147.316873 
L 149.007176 147.316873 
L 149.122378 146.945563 
L 156.856612 146.945563 
L 156.971814 148.059495 
L 158.181433 148.059495 
L 158.296635 147.688184 
L 160.694928 147.688184 
L 160.81013 148.802116 
L 162.716197 148.802116 
L 162.831399 148.523633 
L 169.591654 148.523633 
L 169.706855 148.152322 
L 183.447295 148.152322 
L 183.562497 149.266254 
L 187.029026 149.266254 
L 187.144228 150.380186 
L 189.416846 150.380186 
L 189.532048 150.101703 
L 195.224067 150.101703 
L 195.339269 151.215635 
L 197.266282 151.215635 
L 197.381484 152.329567 
L 201.879593 152.329567 
L 201.994794 151.958256 
L 210.776318 151.958256 
L 210.89152 151.586945 
L 233.266862 151.586945 
L 233.382064 151.364159 
L 244.949378 151.364159 
L 245.06458 152.478091 
L 265.98419 152.478091 
L 266.099392 152.10678 
L 266.874386 152.10678 
L 266.989588 153.220712 
L 273.393764 153.220712 
L 273.508966 154.334644 
L 273.734133 154.334644 
L 273.849335 153.963333 
L 281.279855 153.963333 
L 281.395057 153.592023 
L 297.439534 153.592023 
L 297.554736 154.705955 
L 301.586801 154.705955 
L 301.702003 154.334644 
L 325.538314 154.334644 
L 325.653516 155.448576 
L 326.014831 155.448576 
L 326.130033 155.077265 
L 330.272063 155.077265 
L 330.387265 156.191197 
L 330.591487 156.191197 
L 330.706689 155.819886 
L 343.04376 155.819886 
L 343.158962 156.933818 
L 346.971096 156.933818 
L 347.086298 156.655335 
L 398.487273 156.655335 
L 398.487273 156.655335 
" clip-path="url(#p4e02fa4378)" style="fill: none; stroke: #2ca02c; stroke-width: 1.5; stroke-linecap: square"/>
   </g>
   <g id="line2d_16">
    <path d="M 73.832727 52.409882 
L 73.942693 52.409882 
L 74.057895 52.131399 
L 75.822578 52.131399 
L 75.937779 51.908613 
L 76.424769 51.908613 
L 76.539971 51.685827 
L 76.712774 51.685827 
L 76.827976 51.407344 
L 79.304816 51.407344 
L 79.420017 51.184557 
L 80.053628 51.184557 
L 80.168829 50.961771 
L 80.210721 50.961771 
L 80.325923 50.683288 
L 82.205808 50.683288 
L 82.32101 50.404805 
L 83.410191 50.404805 
L 83.525393 50.126322 
L 85.206293 50.126322 
L 85.321494 49.847839 
L 87.986846 49.847839 
L 88.102048 49.569356 
L 93.003364 49.569356 
L 93.118566 49.290873 
L 93.207585 49.290873 
L 93.322787 49.068087 
L 103.203965 49.068087 
L 103.319166 48.789604 
L 162.716197 48.789604 
L 162.831399 48.511121 
L 189.416846 48.511121 
L 189.532048 48.232638 
L 233.266862 48.232638 
L 233.382064 48.009852 
L 398.487273 48.009852 
L 398.487273 48.009852 
" clip-path="url(#p4e02fa4378)" style="fill: none; stroke: #d62728; stroke-width: 1.5; stroke-linecap: square"/>
   </g>
   <g id="line2d_17">
    <path d="M 73.832727 53.7466 
L 73.853673 53.37529 
L 73.906038 56.345775 
L 73.947929 56.345775 
L 74.042185 57.831017 
L 74.057895 57.088396 
L 74.063131 57.088396 
L 74.136441 59.68757 
L 74.178333 58.944949 
L 74.183569 58.573638 
L 74.199279 60.801502 
L 74.272589 60.058881 
L 74.283062 60.058881 
L 74.4035 63.029366 
L 74.413973 63.029366 
L 74.529175 64.143297 
L 74.544884 64.143297 
L 74.607722 63.029366 
L 74.660086 63.771987 
L 74.665323 63.771987 
L 74.712451 63.029366 
L 74.717687 64.143297 
L 74.770051 64.143297 
L 74.775288 64.143297 
L 74.859071 63.771987 
L 74.864308 64.885919 
L 74.87478 64.885919 
L 74.906199 64.885919 
L 75.031874 63.771987 
L 75.131366 63.771987 
L 75.246568 64.885919 
L 75.27275 64.885919 
L 75.387952 64.514608 
L 75.461263 64.514608 
L 75.497918 65.62854 
L 75.571228 65.257229 
L 75.817341 65.257229 
L 75.932543 66.371161 
L 75.969198 66.371161 
L 76.089636 65.62854 
L 76.189129 65.62854 
L 76.304331 65.257229 
L 76.738956 65.257229 
L 76.827976 67.485093 
L 76.854158 67.113782 
L 77.388276 67.113782 
L 77.503477 66.890996 
L 77.854319 66.890996 
L 77.969521 66.519685 
L 77.979994 66.519685 
L 78.084723 66.148375 
L 78.199925 67.262307 
L 78.383201 67.262307 
L 78.498403 66.890996 
L 79.687076 66.890996 
L 79.802278 66.519685 
L 80.346869 66.519685 
L 80.467307 68.747549 
L 80.629637 68.747549 
L 80.744839 68.376238 
L 80.80244 68.376238 
L 80.917642 68.004928 
L 80.959533 68.004928 
L 81.074735 67.633617 
L 81.305139 67.633617 
L 81.420341 68.747549 
L 81.781655 68.747549 
L 81.896857 68.376238 
L 83.567284 68.376238 
L 83.682486 68.004928 
L 83.960018 68.004928 
L 84.07522 69.11886 
L 84.850214 69.11886 
L 84.965416 68.747549 
L 85.82943 68.747549 
L 85.944632 69.861481 
L 86.578242 69.861481 
L 86.693444 69.49017 
L 86.803409 69.49017 
L 86.918611 69.11886 
L 89.002717 69.11886 
L 89.117919 68.747549 
L 93.312314 68.747549 
L 93.427516 69.861481 
L 93.694575 69.861481 
L 93.809777 69.49017 
L 96.763133 69.49017 
L 96.878335 69.11886 
L 97.559074 69.11886 
L 97.674275 68.747549 
L 103.376767 68.747549 
L 103.491969 69.861481 
L 106.361543 69.861481 
L 106.476745 69.49017 
L 128.925398 69.49017 
L 129.0406 69.11886 
L 134.585998 69.11886 
L 134.7012 70.232791 
L 139.969067 70.232791 
L 140.084269 69.861481 
L 149.007176 69.861481 
L 149.122378 69.49017 
L 156.856612 69.49017 
L 156.971814 70.604102 
L 158.181433 70.604102 
L 158.296635 70.232791 
L 169.591654 70.232791 
L 169.706855 69.861481 
L 183.447295 69.861481 
L 183.562497 70.975413 
L 201.879593 70.975413 
L 201.994794 70.604102 
L 210.776318 70.604102 
L 210.89152 70.232791 
L 244.949378 70.232791 
L 245.06458 71.346723 
L 273.393764 71.346723 
L 273.508966 72.460655 
L 273.734133 72.460655 
L 273.849335 72.089344 
L 281.279855 72.089344 
L 281.395057 71.718034 
L 297.439534 71.718034 
L 297.554736 72.831966 
L 301.586801 72.831966 
L 301.702003 72.460655 
L 326.014831 72.460655 
L 326.130033 72.089344 
L 330.591487 72.089344 
L 330.706689 71.718034 
L 398.487273 71.718034 
L 398.487273 71.718034 
" clip-path="url(#p4e02fa4378)" style="fill: none; stroke: #9467bd; stroke-width: 1.5; stroke-linecap: square"/>
   </g>
   <g id="line2d_18">
    <path d="M 73.832727 52.632669 
L 73.837964 52.632669 
L 73.958402 51.667261 
L 74.796234 51.667261 
L 74.911436 51.29595 
L 76.403823 51.29595 
L 76.519025 52.409882 
L 76.560917 52.409882 
L 76.676119 52.038572 
L 77.388276 52.038572 
L 77.503477 51.815785 
L 80.414943 51.815785 
L 80.530144 51.592999 
L 107.571162 51.592999 
L 107.686364 51.314516 
L 265.98419 51.314516 
L 266.099392 50.943205 
L 346.971096 50.943205 
L 347.086298 50.664722 
L 398.487273 50.664722 
L 398.487273 50.664722 
" clip-path="url(#p4e02fa4378)" style="fill: none; stroke: #8c564b; stroke-width: 1.5; stroke-linecap: square"/>
   </g>
   <g id="line2d_19">
    <path d="M 73.832727 53.7466 
L 73.837964 53.7466 
L 73.979348 60.89433 
L 73.995057 60.89433 
L 74.136441 67.577921 
L 74.146914 67.577921 
L 74.277825 72.033648 
L 74.283062 72.033648 
L 74.408737 75.375443 
L 74.660086 75.375443 
L 74.775288 76.489375 
L 74.796234 76.489375 
L 74.911436 77.603307 
L 74.921908 77.603307 
L 75.03711 78.717239 
L 75.555519 78.717239 
L 75.670721 79.831171 
L 75.68643 79.831171 
L 75.801632 80.945102 
L 75.822578 80.945102 
L 75.937779 80.722316 
L 75.958725 80.722316 
L 76.073927 81.836248 
L 76.309567 81.836248 
L 76.403823 82.95018 
L 76.419533 82.578869 
L 76.424769 82.578869 
L 76.539971 82.356083 
L 76.560917 82.356083 
L 76.676119 83.470015 
L 76.712774 83.470015 
L 76.827976 83.191532 
L 77.35162 83.191532 
L 77.472059 85.419395 
L 78.304654 85.419395 
L 78.419856 86.533327 
L 79.063939 86.533327 
L 79.179141 87.647259 
L 79.304816 87.647259 
L 79.404308 87.424472 
L 79.51951 88.538404 
L 80.053628 88.538404 
L 80.168829 88.315618 
L 80.210721 88.315618 
L 80.304977 88.037135 
L 80.430652 91.37893 
L 81.305139 91.37893 
L 81.420341 92.492862 
L 81.813074 92.492862 
L 81.928276 93.606794 
L 82.205808 93.606794 
L 82.32101 93.328311 
L 82.760871 93.328311 
L 82.876073 94.442243 
L 83.410191 94.442243 
L 83.525393 94.16376 
L 85.138219 94.16376 
L 85.206293 95.277692 
L 85.248184 94.999209 
L 87.986846 94.999209 
L 88.102048 94.720726 
L 92.856743 94.720726 
L 92.971945 95.834658 
L 93.003364 95.834658 
L 93.118566 95.556175 
L 93.207585 95.556175 
L 93.312314 95.333388 
L 93.427516 96.44732 
L 93.532245 96.44732 
L 93.647447 97.561252 
L 97.883733 97.561252 
L 97.998935 98.675184 
L 103.203965 98.675184 
L 103.319166 98.396701 
L 103.628117 98.396701 
L 103.743319 99.510633 
L 107.571162 99.510633 
L 107.686364 100.624565 
L 127.726251 100.624565 
L 127.841453 101.738496 
L 162.716197 101.738496 
L 162.831399 101.460013 
L 187.029026 101.460013 
L 187.144228 102.573945 
L 189.416846 102.573945 
L 189.532048 102.295462 
L 195.224067 102.295462 
L 195.339269 103.409394 
L 233.266862 103.409394 
L 233.382064 103.186608 
L 265.98419 103.186608 
L 266.099392 104.30054 
L 325.538314 104.30054 
L 325.653516 105.414471 
L 346.971096 105.414471 
L 347.086298 106.528403 
L 398.487273 106.528403 
L 398.487273 106.528403 
" clip-path="url(#p4e02fa4378)" style="fill: none; stroke: #e377c2; stroke-width: 1.5; stroke-linecap: square"/>
   </g>
   <g id="line2d_20">
    <path d="M 73.832727 52.409882 
L 73.837964 52.409882 
L 73.958402 51.444475 
L 74.796234 51.444475 
L 74.911436 51.073164 
L 75.555519 51.073164 
L 75.670721 50.516198 
L 76.403823 50.516198 
L 76.519025 51.63013 
L 76.560917 51.63013 
L 76.676119 51.258819 
L 77.388276 51.258819 
L 77.503477 51.036033 
L 80.414943 51.036033 
L 80.530144 50.813247 
L 107.571162 50.813247 
L 107.686364 50.534764 
L 265.98419 50.534764 
L 266.099392 50.163453 
L 346.971096 50.163453 
L 347.086298 49.88497 
L 398.487273 49.88497 
L 398.487273 49.88497 
" clip-path="url(#p4e02fa4378)" style="fill: none; stroke: #7f7f7f; stroke-width: 1.5; stroke-linecap: square"/>
   </g>
   <g id="line2d_21">
    <path d="M 73.832727 52.409882 
L 73.837964 52.409882 
L 73.974111 58.165197 
L 73.984584 58.165197 
L 73.995057 57.051265 
L 74.052658 59.093473 
L 74.09455 58.165197 
L 74.220224 63.5492 
L 74.225461 62.992235 
L 74.230697 62.992235 
L 74.235934 62.435269 
L 74.288298 64.106166 
L 74.340663 62.992235 
L 74.356372 62.992235 
L 74.455865 64.663132 
L 74.466337 63.5492 
L 74.518702 63.5492 
L 74.644377 61.878303 
L 74.660086 61.878303 
L 74.707214 62.992235 
L 74.770051 62.435269 
L 74.796234 62.435269 
L 74.822416 63.5492 
L 74.906199 62.435269 
L 74.921908 62.435269 
L 74.953327 63.5492 
L 75.031874 62.992235 
L 75.047583 62.992235 
L 75.162785 62.435269 
L 75.429844 62.435269 
L 75.550282 61.321337 
L 75.555519 61.321337 
L 75.670721 62.435269 
L 75.68643 62.435269 
L 75.801632 63.5492 
L 75.822578 63.5492 
L 75.937779 63.326414 
L 75.958725 63.326414 
L 75.974435 64.440346 
L 76.068691 63.88338 
L 76.15771 63.88338 
L 76.272912 63.326414 
L 76.309567 63.326414 
L 76.403823 64.440346 
L 76.419533 64.069035 
L 76.424769 64.069035 
L 76.539971 63.846249 
L 76.560917 63.846249 
L 76.660409 64.960181 
L 76.670882 64.403215 
L 76.712774 64.403215 
L 76.827976 64.124732 
L 77.35162 64.124732 
L 77.44064 66.352596 
L 77.466822 65.79563 
L 77.733881 65.79563 
L 77.849083 65.238664 
L 77.875265 65.238664 
L 77.990467 64.681698 
L 78.304654 64.681698 
L 78.419856 65.79563 
L 78.749752 65.79563 
L 78.864954 65.238664 
L 78.896373 65.238664 
L 79.011574 64.681698 
L 79.063939 64.681698 
L 79.179141 65.79563 
L 79.262924 65.79563 
L 79.378126 65.015877 
L 79.404308 65.015877 
L 79.51951 66.129809 
L 79.676603 66.129809 
L 79.791805 65.572843 
L 80.053628 65.572843 
L 80.168829 65.350057 
L 80.210721 65.350057 
L 80.304977 65.071574 
L 80.430652 68.413369 
L 80.535381 68.413369 
L 80.650583 67.856403 
L 80.765785 67.856403 
L 80.880986 67.299438 
L 80.922878 67.299438 
L 81.03808 66.742472 
L 81.305139 66.742472 
L 81.341794 67.856403 
L 81.415104 67.299438 
L 81.797365 67.299438 
L 81.813074 66.742472 
L 81.818311 67.856403 
L 81.902094 67.856403 
L 82.205808 67.856403 
L 82.32101 67.577921 
L 82.760871 67.577921 
L 82.876073 68.691852 
L 83.410191 68.691852 
L 83.525393 68.413369 
L 84.902579 68.413369 
L 85.01778 67.856403 
L 85.138219 67.856403 
L 85.206293 68.970335 
L 85.248184 68.691852 
L 86.620134 68.691852 
L 86.735335 68.134886 
L 87.986846 68.134886 
L 88.102048 67.856403 
L 88.243432 67.856403 
L 88.358634 67.299438 
L 92.856743 67.299438 
L 92.971945 68.413369 
L 93.003364 68.413369 
L 93.118566 68.134886 
L 93.207585 68.134886 
L 93.312314 67.9121 
L 93.401334 69.026032 
L 93.42228 68.469066 
L 93.532245 68.469066 
L 93.647447 69.582998 
L 94.705209 69.582998 
L 94.820411 69.026032 
L 96.595567 69.026032 
L 96.710769 68.469066 
L 97.883733 68.469066 
L 97.998935 69.582998 
L 98.957205 69.582998 
L 99.072407 69.026032 
L 103.203965 69.026032 
L 103.319166 68.747549 
L 103.628117 68.747549 
L 103.743319 69.861481 
L 107.461197 69.861481 
L 107.571162 69.304515 
L 107.686364 70.418447 
L 127.726251 70.418447 
L 127.841453 71.532378 
L 128.433172 71.532378 
L 128.548373 70.975413 
L 141.73375 70.975413 
L 141.848952 70.418447 
L 160.694928 70.418447 
L 160.81013 69.861481 
L 162.716197 69.861481 
L 162.831399 69.582998 
L 187.029026 69.582998 
L 187.144228 70.69693 
L 189.416846 70.69693 
L 189.532048 70.418447 
L 195.224067 70.418447 
L 195.339269 71.532378 
L 197.266282 71.532378 
L 197.381484 70.975413 
L 233.266862 70.975413 
L 233.382064 70.752626 
L 265.98419 70.752626 
L 266.099392 71.866558 
L 266.874386 71.866558 
L 266.989588 71.309592 
L 325.538314 71.309592 
L 325.653516 72.423524 
L 330.272063 72.423524 
L 330.387265 71.866558 
L 343.04376 71.866558 
L 343.158962 71.309592 
L 346.971096 71.309592 
L 347.086298 72.423524 
L 398.487273 72.423524 
L 398.487273 72.423524 
" clip-path="url(#p4e02fa4378)" style="fill: none; stroke: #bcbd22; stroke-width: 1.5; stroke-linecap: square"/>
   </g>
   <g id="line2d_22">
    <path d="M 73.832727 52.409882 
L 73.837964 53.523814 
L 73.879855 51.722958 
L 73.937456 51.722958 
L 73.947929 51.722958 
L 73.953166 51.165992 
L 74.026476 55.064753 
L 74.152151 58.963514 
L 74.157387 58.963514 
L 74.262116 63.790552 
L 74.288298 63.233586 
L 74.377318 61.191378 
L 74.408737 61.933999 
L 74.413973 61.933999 
L 74.419209 61.377033 
L 74.445392 63.604897 
L 74.508229 63.604897 
L 74.513466 63.604897 
L 74.544884 62.490965 
L 74.592012 65.275795 
L 74.612958 64.718829 
L 74.618194 64.718829 
L 74.707214 67.503658 
L 74.733396 66.389727 
L 74.775288 66.389727 
L 74.822416 68.61759 
L 74.885253 66.946692 
L 74.906199 66.946692 
L 75.026637 69.731522 
L 75.047583 69.731522 
L 75.168022 68.61759 
L 75.27275 68.61759 
L 75.387952 69.731522 
L 75.429844 69.731522 
L 75.497918 68.060624 
L 75.545046 69.174556 
L 75.555519 69.174556 
L 75.670721 70.288488 
L 75.817341 70.288488 
L 75.932543 69.731522 
L 75.969198 69.731522 
L 76.0844 71.40242 
L 76.15771 71.40242 
L 76.189129 70.845454 
L 76.194365 71.959386 
L 76.262439 71.959386 
L 76.403823 71.959386 
L 76.519025 73.073318 
L 76.560917 73.073318 
L 76.681355 72.145041 
L 76.738956 72.145041 
L 76.827976 71.031109 
L 76.848921 72.145041 
L 77.388276 72.145041 
L 77.44064 73.258973 
L 77.498241 72.702007 
L 77.733881 72.702007 
L 77.849083 72.145041 
L 77.854319 72.145041 
L 77.875265 73.258973 
L 77.964285 72.702007 
L 77.979994 72.702007 
L 78.084723 73.815939 
L 78.08996 73.258973 
L 78.383201 73.258973 
L 78.498403 74.372905 
L 78.749752 74.372905 
L 78.864954 73.815939 
L 78.896373 73.815939 
L 79.011574 73.258973 
L 79.063939 73.258973 
L 79.179141 74.372905 
L 79.262924 74.372905 
L 79.378126 73.815939 
L 79.676603 73.815939 
L 79.687076 73.258973 
L 79.692313 74.372905 
L 79.781332 74.372905 
L 80.346869 74.372905 
L 80.462071 73.778808 
L 80.535381 73.778808 
L 80.629637 73.221842 
L 80.634873 74.335774 
L 80.64011 74.335774 
L 80.765785 74.335774 
L 80.80244 73.778808 
L 80.807676 74.892739 
L 80.870514 74.892739 
L 80.922878 74.892739 
L 80.959533 74.335774 
L 80.96477 75.449705 
L 81.027607 75.449705 
L 81.341794 75.449705 
L 81.456996 74.892739 
L 81.781655 74.892739 
L 81.797365 76.006671 
L 81.891621 75.449705 
L 83.567284 75.449705 
L 83.682486 76.563637 
L 83.960018 76.563637 
L 84.07522 76.006671 
L 84.850214 76.006671 
L 84.902579 77.120603 
L 84.960179 76.563637 
L 85.82943 76.563637 
L 85.944632 76.006671 
L 86.578242 76.006671 
L 86.620134 77.120603 
L 86.688207 76.563637 
L 86.803409 76.563637 
L 86.918611 77.677569 
L 88.243432 77.677569 
L 88.358634 77.120603 
L 89.002717 77.120603 
L 89.117919 78.234535 
L 93.401334 78.234535 
L 93.516536 77.677569 
L 93.694575 77.677569 
L 93.809777 78.791501 
L 94.705209 78.791501 
L 94.820411 78.234535 
L 96.595567 78.234535 
L 96.710769 77.677569 
L 96.763133 77.677569 
L 96.878335 78.791501 
L 97.559074 78.791501 
L 97.674275 79.905433 
L 98.957205 79.905433 
L 99.072407 79.348467 
L 103.376767 79.348467 
L 103.491969 78.791501 
L 106.361543 78.791501 
L 106.476745 79.905433 
L 107.461197 79.905433 
L 107.576399 79.069984 
L 128.433172 79.069984 
L 128.548373 78.513018 
L 128.925398 78.513018 
L 129.0406 79.62695 
L 134.585998 79.62695 
L 134.7012 79.069984 
L 139.969067 79.069984 
L 140.084269 80.183916 
L 141.73375 80.183916 
L 141.848952 79.62695 
L 149.007176 79.62695 
L 149.122378 80.740882 
L 156.856612 80.740882 
L 156.971814 80.183916 
L 158.181433 80.183916 
L 158.296635 81.297847 
L 160.694928 81.297847 
L 160.81013 80.740882 
L 169.591654 80.740882 
L 169.706855 81.854813 
L 183.447295 81.854813 
L 183.562497 81.297847 
L 197.266282 81.297847 
L 197.381484 80.740882 
L 201.879593 80.740882 
L 201.994794 81.854813 
L 210.776318 81.854813 
L 210.89152 82.968745 
L 244.949378 82.968745 
L 245.06458 82.411779 
L 266.874386 82.411779 
L 266.989588 81.854813 
L 273.393764 81.854813 
L 273.508966 81.297847 
L 273.734133 81.297847 
L 273.849335 82.411779 
L 281.279855 82.411779 
L 281.395057 83.525711 
L 297.439534 83.525711 
L 297.554736 82.968745 
L 301.586801 82.968745 
L 301.702003 84.082677 
L 326.014831 84.082677 
L 326.130033 85.196609 
L 330.272063 85.196609 
L 330.387265 84.639643 
L 330.591487 84.639643 
L 330.706689 85.753575 
L 343.04376 85.753575 
L 343.158962 85.196609 
L 346.971096 85.196609 
L 347.086298 84.918126 
L 398.487273 84.918126 
L 398.487273 84.918126 
" clip-path="url(#p4e02fa4378)" style="fill: none; stroke: #17becf; stroke-width: 1.5; stroke-linecap: square"/>
   </g>
   <g id="line2d_23">
    <path d="M 73.832727 52.632669 
L 73.837964 52.632669 
L 73.963638 55.974464 
L 74.796234 55.974464 
L 74.911436 57.088396 
L 76.403823 57.088396 
L 76.519025 56.717085 
L 76.560917 56.717085 
L 76.676119 57.831017 
L 77.388276 57.831017 
L 77.503477 58.944949 
L 80.414943 58.944949 
L 80.530144 60.058881 
L 107.571162 60.058881 
L 107.686364 61.172813 
L 265.98419 61.172813 
L 266.099392 62.286744 
L 346.971096 62.286744 
L 347.086298 63.400676 
L 398.487273 63.400676 
L 398.487273 63.400676 
" clip-path="url(#p4e02fa4378)" style="fill: none; stroke: #1f77b4; stroke-width: 1.5; stroke-linecap: square"/>
   </g>
   <g id="line2d_24">
    <path d="M 73.832727 52.632669 
L 73.848437 52.632669 
L 73.85891 51.518737 
L 73.93222 53.468117 
L 73.953166 53.468117 
L 74.000294 53.468117 
L 74.115495 52.539841 
L 74.602485 52.539841 
L 74.717687 51.982875 
L 74.853835 51.982875 
L 74.969037 50.868943 
L 75.555519 50.868943 
L 75.59741 51.982875 
L 75.665484 50.868943 
L 76.398587 50.868943 
L 76.513789 51.982875 
L 76.545207 51.982875 
L 76.660409 51.425909 
L 76.676119 51.425909 
L 76.79132 50.868943 
L 77.383039 50.868943 
L 77.498241 49.755011 
L 79.886061 49.755011 
L 80.001263 49.198045 
L 118.201152 49.198045 
L 118.316354 48.084114 
L 191.54808 48.084114 
L 191.663282 46.970182 
L 398.487273 46.970182 
L 398.487273 46.970182 
" clip-path="url(#p4e02fa4378)" style="fill: none; stroke: #ff7f0e; stroke-width: 1.5; stroke-linecap: square"/>
   </g>
   <g id="patch_3">
    <path d="M 57.6 162.432 
L 57.6 41.472 
" style="fill: none; stroke: #000000; stroke-width: 0.8; stroke-linejoin: miter; stroke-linecap: square"/>
   </g>
   <g id="patch_4">
    <path d="M 414.72 162.432 
L 414.72 41.472 
" style="fill: none; stroke: #000000; stroke-width: 0.8; stroke-linejoin: miter; stroke-linecap: square"/>
   </g>
   <g id="patch_5">
    <path d="M 57.6 162.432 
L 414.72 162.432 
" style="fill: none; stroke: #000000; stroke-width: 0.8; stroke-linejoin: miter; stroke-linecap: square"/>
   </g>
   <g id="patch_6">
    <path d="M 57.6 41.472 
L 414.72 41.472 
" style="fill: none; stroke: #000000; stroke-width: 0.8; stroke-linejoin: miter; stroke-linecap: square"/>
   </g>
   <g id="text_13">
    <!-- WSP -->
    <g transform="translate(361.832136 84.973822)scale(0.08 -0.08)">
     <defs>
      <path id="DejaVuSans-57" d="M 213 4666 
L 850 4666 
L 1831 722 
L 2809 4666 
L 3519 4666 
L 4500 722 
L 5478 4666 
L 6119 4666 
L 4947 0 
L 4153 0 
L 3169 4050 
L 2175 0 
L 1381 0 
L 213 4666 
z
" transform="scale(0.015625)"/>
      <path id="DejaVuSans-53" d="M 3425 4513 
L 3425 3897 
Q 3066 4069 2747 4153 
Q 2428 4238 2131 4238 
Q 1616 4238 1336 4038 
Q 1056 3838 1056 3469 
Q 1056 3159 1242 3001 
Q 1428 2844 1947 2747 
L 2328 2669 
Q 3034 2534 3370 2195 
Q 3706 1856 3706 1288 
Q 3706 609 3251 259 
Q 2797 -91 1919 -91 
Q 1588 -91 1214 -16 
Q 841 59 441 206 
L 441 856 
Q 825 641 1194 531 
Q 1563 422 1919 422 
Q 2459 422 2753 634 
Q 3047 847 3047 1241 
Q 3047 1584 2836 1778 
Q 2625 1972 2144 2069 
L 1759 2144 
Q 1053 2284 737 2584 
Q 422 2884 422 3419 
Q 422 4038 858 4394 
Q 1294 4750 2059 4750 
Q 2388 4750 2728 4690 
Q 3069 4631 3425 4513 
z
" transform="scale(0.015625)"/>
      <path id="DejaVuSans-50" d="M 1259 4147 
L 1259 2394 
L 2053 2394 
Q 2494 2394 2734 2622 
Q 2975 2850 2975 3272 
Q 2975 3691 2734 3919 
Q 2494 4147 2053 4147 
L 1259 4147 
z
M 628 4666 
L 2053 4666 
Q 2838 4666 3239 4311 
Q 3641 3956 3641 3272 
Q 3641 2581 3239 2228 
Q 2838 1875 2053 1875 
L 1259 1875 
L 1259 0 
L 628 0 
L 628 4666 
z
" transform="scale(0.015625)"/>
     </defs>
     <use xlink:href="#DejaVuSans-57"/>
     <use xlink:href="#DejaVuSans-53" x="98.876953"/>
     <use xlink:href="#DejaVuSans-50" x="162.353516"/>
    </g>
   </g>
   <g id="text_14">
    <!-- Iambic -->
    <g transform="translate(361.832136 59.446218)scale(0.08 -0.08)">
     <defs>
      <path id="DejaVuSans-49" d="M 628 4666 
L 1259 4666 
L 1259 0 
L 628 0 
L 628 4666 
z
" transform="scale(0.015625)"/>
      <path id="DejaVuSans-61" d="M 2194 1759 
Q 1497 1759 1228 1600 
Q 959 1441 959 1056 
Q 959 750 1161 570 
Q 1363 391 1709 391 
Q 2188 391 2477 730 
Q 2766 1069 2766 1631 
L 2766 1759 
L 2194 1759 
z
M 3341 1997 
L 3341 0 
L 2766 0 
L 2766 531 
Q 2569 213 2275 61 
Q 1981 -91 1556 -91 
Q 1019 -91 701 211 
Q 384 513 384 1019 
Q 384 1609 779 1909 
Q 1175 2209 1959 2209 
L 2766 2209 
L 2766 2266 
Q 2766 2663 2505 2880 
Q 2244 3097 1772 3097 
Q 1472 3097 1187 3025 
Q 903 2953 641 2809 
L 641 3341 
Q 956 3463 1253 3523 
Q 1550 3584 1831 3584 
Q 2591 3584 2966 3190 
Q 3341 2797 3341 1997 
z
" transform="scale(0.015625)"/>
      <path id="DejaVuSans-6d" d="M 3328 2828 
Q 3544 3216 3844 3400 
Q 4144 3584 4550 3584 
Q 5097 3584 5394 3201 
Q 5691 2819 5691 2113 
L 5691 0 
L 5113 0 
L 5113 2094 
Q 5113 2597 4934 2840 
Q 4756 3084 4391 3084 
Q 3944 3084 3684 2787 
Q 3425 2491 3425 1978 
L 3425 0 
L 2847 0 
L 2847 2094 
Q 2847 2600 2669 2842 
Q 2491 3084 2119 3084 
Q 1678 3084 1418 2786 
Q 1159 2488 1159 1978 
L 1159 0 
L 581 0 
L 581 3500 
L 1159 3500 
L 1159 2956 
Q 1356 3278 1631 3431 
Q 1906 3584 2284 3584 
Q 2666 3584 2933 3390 
Q 3200 3197 3328 2828 
z
" transform="scale(0.015625)"/>
      <path id="DejaVuSans-62" d="M 3116 1747 
Q 3116 2381 2855 2742 
Q 2594 3103 2138 3103 
Q 1681 3103 1420 2742 
Q 1159 2381 1159 1747 
Q 1159 1113 1420 752 
Q 1681 391 2138 391 
Q 2594 391 2855 752 
Q 3116 1113 3116 1747 
z
M 1159 2969 
Q 1341 3281 1617 3432 
Q 1894 3584 2278 3584 
Q 2916 3584 3314 3078 
Q 3713 2572 3713 1747 
Q 3713 922 3314 415 
Q 2916 -91 2278 -91 
Q 1894 -91 1617 61 
Q 1341 213 1159 525 
L 1159 0 
L 581 0 
L 581 4863 
L 1159 4863 
L 1159 2969 
z
" transform="scale(0.015625)"/>
      <path id="DejaVuSans-69" d="M 603 3500 
L 1178 3500 
L 1178 0 
L 603 0 
L 603 3500 
z
M 603 4863 
L 1178 4863 
L 1178 4134 
L 603 4134 
L 603 4863 
z
" transform="scale(0.015625)"/>
      <path id="DejaVuSans-63" d="M 3122 3366 
L 3122 2828 
Q 2878 2963 2633 3030 
Q 2388 3097 2138 3097 
Q 1578 3097 1268 2742 
Q 959 2388 959 1747 
Q 959 1106 1268 751 
Q 1578 397 2138 397 
Q 2388 397 2633 464 
Q 2878 531 3122 666 
L 3122 134 
Q 2881 22 2623 -34 
Q 2366 -91 2075 -91 
Q 1284 -91 818 406 
Q 353 903 353 1747 
Q 353 2603 823 3093 
Q 1294 3584 2113 3584 
Q 2378 3584 2631 3529 
Q 2884 3475 3122 3366 
z
" transform="scale(0.015625)"/>
     </defs>
     <use xlink:href="#DejaVuSans-49"/>
     <use xlink:href="#DejaVuSans-61" x="29.492188"/>
     <use xlink:href="#DejaVuSans-6d" x="90.771484"/>
     <use xlink:href="#DejaVuSans-62" x="188.183594"/>
     <use xlink:href="#DejaVuSans-69" x="251.660156"/>
     <use xlink:href="#DejaVuSans-63" x="279.443359"/>
    </g>
   </g>
   <g id="text_15">
    <!-- Parse -->
    <g transform="translate(361.832136 156.655335)scale(0.08 -0.08)">
     <defs>
      <path id="DejaVuSans-72" d="M 2631 2963 
Q 2534 3019 2420 3045 
Q 2306 3072 2169 3072 
Q 1681 3072 1420 2755 
Q 1159 2438 1159 1844 
L 1159 0 
L 581 0 
L 581 3500 
L 1159 3500 
L 1159 2956 
Q 1341 3275 1631 3429 
Q 1922 3584 2338 3584 
Q 2397 3584 2469 3576 
Q 2541 3569 2628 3553 
L 2631 2963 
z
" transform="scale(0.015625)"/>
      <path id="DejaVuSans-73" d="M 2834 3397 
L 2834 2853 
Q 2591 2978 2328 3040 
Q 2066 3103 1784 3103 
Q 1356 3103 1142 2972 
Q 928 2841 928 2578 
Q 928 2378 1081 2264 
Q 1234 2150 1697 2047 
L 1894 2003 
Q 2506 1872 2764 1633 
Q 3022 1394 3022 966 
Q 3022 478 2636 193 
Q 2250 -91 1575 -91 
Q 1294 -91 989 -36 
Q 684 19 347 128 
L 347 722 
Q 666 556 975 473 
Q 1284 391 1588 391 
Q 1994 391 2212 530 
Q 2431 669 2431 922 
Q 2431 1156 2273 1281 
Q 2116 1406 1581 1522 
L 1381 1569 
Q 847 1681 609 1914 
Q 372 2147 372 2553 
Q 372 3047 722 3315 
Q 1072 3584 1716 3584 
Q 2034 3584 2315 3537 
Q 2597 3491 2834 3397 
z
" transform="scale(0.015625)"/>
      <path id="DejaVuSans-65" d="M 3597 1894 
L 3597 1613 
L 953 1613 
Q 991 1019 1311 708 
Q 1631 397 2203 397 
Q 2534 397 2845 478 
Q 3156 559 3463 722 
L 3463 178 
Q 3153 47 2828 -22 
Q 2503 -91 2169 -91 
Q 1331 -91 842 396 
Q 353 884 353 1716 
Q 353 2575 817 3079 
Q 1281 3584 2069 3584 
Q 2775 3584 3186 3129 
Q 3597 2675 3597 1894 
z
M 3022 2063 
Q 3016 2534 2758 2815 
Q 2500 3097 2075 3097 
Q 1594 3097 1305 2825 
Q 1016 2553 972 2059 
L 3022 2063 
z
" transform="scale(0.015625)"/>
     </defs>
     <use xlink:href="#DejaVuSans-50"/>
     <use xlink:href="#DejaVuSans-61" x="55.802734"/>
     <use xlink:href="#DejaVuSans-72" x="117.082031"/>
     <use xlink:href="#DejaVuSans-73" x="158.195312"/>
     <use xlink:href="#DejaVuSans-65" x="210.294922"/>
    </g>
   </g>
   <g id="text_16">
    <!-- FootBin -->
    <g transform="translate(361.832136 48.009852)scale(0.08 -0.08)">
     <defs>
      <path id="DejaVuSans-46" d="M 628 4666 
L 3309 4666 
L 3309 4134 
L 1259 4134 
L 1259 2759 
L 3109 2759 
L 3109 2228 
L 1259 2228 
L 1259 0 
L 628 0 
L 628 4666 
z
" transform="scale(0.015625)"/>
      <path id="DejaVuSans-6f" d="M 1959 3097 
Q 1497 3097 1228 2736 
Q 959 2375 959 1747 
Q 959 1119 1226 758 
Q 1494 397 1959 397 
Q 2419 397 2687 759 
Q 2956 1122 2956 1747 
Q 2956 2369 2687 2733 
Q 2419 3097 1959 3097 
z
M 1959 3584 
Q 2709 3584 3137 3096 
Q 3566 2609 3566 1747 
Q 3566 888 3137 398 
Q 2709 -91 1959 -91 
Q 1206 -91 779 398 
Q 353 888 353 1747 
Q 353 2609 779 3096 
Q 1206 3584 1959 3584 
z
" transform="scale(0.015625)"/>
      <path id="DejaVuSans-74" d="M 1172 4494 
L 1172 3500 
L 2356 3500 
L 2356 3053 
L 1172 3053 
L 1172 1153 
Q 1172 725 1289 603 
Q 1406 481 1766 481 
L 2356 481 
L 2356 0 
L 1766 0 
Q 1100 0 847 248 
Q 594 497 594 1153 
L 594 3053 
L 172 3053 
L 172 3500 
L 594 3500 
L 594 4494 
L 1172 4494 
z
" transform="scale(0.015625)"/>
      <path id="DejaVuSans-42" d="M 1259 2228 
L 1259 519 
L 2272 519 
Q 2781 519 3026 730 
Q 3272 941 3272 1375 
Q 3272 1813 3026 2020 
Q 2781 2228 2272 2228 
L 1259 2228 
z
M 1259 4147 
L 1259 2741 
L 2194 2741 
Q 2656 2741 2882 2914 
Q 3109 3088 3109 3444 
Q 3109 3797 2882 3972 
Q 2656 4147 2194 4147 
L 1259 4147 
z
M 628 4666 
L 2241 4666 
Q 2963 4666 3353 4366 
Q 3744 4066 3744 3513 
Q 3744 3084 3544 2831 
Q 3344 2578 2956 2516 
Q 3422 2416 3680 2098 
Q 3938 1781 3938 1306 
Q 3938 681 3513 340 
Q 3088 0 2303 0 
L 628 0 
L 628 4666 
z
" transform="scale(0.015625)"/>
      <path id="DejaVuSans-6e" d="M 3513 2113 
L 3513 0 
L 2938 0 
L 2938 2094 
Q 2938 2591 2744 2837 
Q 2550 3084 2163 3084 
Q 1697 3084 1428 2787 
Q 1159 2491 1159 1978 
L 1159 0 
L 581 0 
L 581 3500 
L 1159 3500 
L 1159 2956 
Q 1366 3272 1645 3428 
Q 1925 3584 2291 3584 
Q 2894 3584 3203 3211 
Q 3513 2838 3513 2113 
z
" transform="scale(0.015625)"/>
     </defs>
     <use xlink:href="#DejaVuSans-46"/>
     <use xlink:href="#DejaVuSans-6f" x="53.894531"/>
     <use xlink:href="#DejaVuSans-6f" x="115.076172"/>
     <use xlink:href="#DejaVuSans-74" x="176.257812"/>
     <use xlink:href="#DejaVuSans-42" x="215.466797"/>
     <use xlink:href="#DejaVuSans-69" x="284.070312"/>
     <use xlink:href="#DejaVuSans-6e" x="311.853516"/>
    </g>
   </g>
   <g id="text_17">
    <!-- WFL -->
    <g transform="translate(361.832136 71.718034)scale(0.08 -0.08)">
     <defs>
      <path id="DejaVuSans-4c" d="M 628 4666 
L 1259 4666 
L 1259 531 
L 3531 531 
L 3531 0 
L 628 0 
L 628 4666 
z
" transform="scale(0.015625)"/>
     </defs>
     <use xlink:href="#DejaVuSans-57"/>
     <use xlink:href="#DejaVuSans-46" x="98.876953"/>
     <use xlink:href="#DejaVuSans-4c" x="156.396484"/>
    </g>
   </g>
   <g id="text_18">
    <!-- WFR -->
    <g transform="translate(361.832136 50.664722)scale(0.08 -0.08)">
     <defs>
      <path id="DejaVuSans-52" d="M 2841 2188 
Q 3044 2119 3236 1894 
Q 3428 1669 3622 1275 
L 4263 0 
L 3584 0 
L 2988 1197 
Q 2756 1666 2539 1819 
Q 2322 1972 1947 1972 
L 1259 1972 
L 1259 0 
L 628 0 
L 628 4666 
L 2053 4666 
Q 2853 4666 3247 4331 
Q 3641 3997 3641 3322 
Q 3641 2881 3436 2590 
Q 3231 2300 2841 2188 
z
M 1259 4147 
L 1259 2491 
L 2053 2491 
Q 2509 2491 2742 2702 
Q 2975 2913 2975 3322 
Q 2975 3731 2742 3939 
Q 2509 4147 2053 4147 
L 1259 4147 
z
" transform="scale(0.015625)"/>
     </defs>
     <use xlink:href="#DejaVuSans-57"/>
     <use xlink:href="#DejaVuSans-46" x="98.876953"/>
     <use xlink:href="#DejaVuSans-52" x="156.396484"/>
    </g>
   </g>
   <g id="text_19">
    <!-- Main-L -->
    <g transform="translate(361.832136 106.528403)scale(0.08 -0.08)">
     <defs>
      <path id="DejaVuSans-4d" d="M 628 4666 
L 1569 4666 
L 2759 1491 
L 3956 4666 
L 4897 4666 
L 4897 0 
L 4281 0 
L 4281 4097 
L 3078 897 
L 2444 897 
L 1241 4097 
L 1241 0 
L 628 0 
L 628 4666 
z
" transform="scale(0.015625)"/>
      <path id="DejaVuSans-2d" d="M 313 2009 
L 1997 2009 
L 1997 1497 
L 313 1497 
L 313 2009 
z
" transform="scale(0.015625)"/>
     </defs>
     <use xlink:href="#DejaVuSans-4d"/>
     <use xlink:href="#DejaVuSans-61" x="86.279297"/>
     <use xlink:href="#DejaVuSans-69" x="147.558594"/>
     <use xlink:href="#DejaVuSans-6e" x="175.341797"/>
     <use xlink:href="#DejaVuSans-2d" x="238.720703"/>
     <use xlink:href="#DejaVuSans-4c" x="274.804688"/>
    </g>
   </g>
   <g id="text_20">
    <!-- Main-R -->
    <g transform="translate(361.832136 49.88497)scale(0.08 -0.08)">
     <use xlink:href="#DejaVuSans-4d"/>
     <use xlink:href="#DejaVuSans-61" x="86.279297"/>
     <use xlink:href="#DejaVuSans-69" x="147.558594"/>
     <use xlink:href="#DejaVuSans-6e" x="175.341797"/>
     <use xlink:href="#DejaVuSans-2d" x="238.720703"/>
     <use xlink:href="#DejaVuSans-52" x="274.804688"/>
    </g>
   </g>
   <g id="text_21">
    <!-- AFL -->
    <g transform="translate(361.832136 72.423524)scale(0.08 -0.08)">
     <defs>
      <path id="DejaVuSans-41" d="M 2188 4044 
L 1331 1722 
L 3047 1722 
L 2188 4044 
z
M 1831 4666 
L 2547 4666 
L 4325 0 
L 3669 0 
L 3244 1197 
L 1141 1197 
L 716 0 
L 50 0 
L 1831 4666 
z
" transform="scale(0.015625)"/>
     </defs>
     <use xlink:href="#DejaVuSans-41"/>
     <use xlink:href="#DejaVuSans-46" x="68.408203"/>
     <use xlink:href="#DejaVuSans-4c" x="125.927734"/>
    </g>
   </g>
   <g id="text_22">
    <!-- AFR -->
    <g transform="translate(361.832136 84.918126)scale(0.08 -0.08)">
     <use xlink:href="#DejaVuSans-41"/>
     <use xlink:href="#DejaVuSans-46" x="68.408203"/>
     <use xlink:href="#DejaVuSans-52" x="125.927734"/>
    </g>
   </g>
   <g id="text_23">
    <!-- Nonfinal -->
    <g transform="translate(361.832136 63.400676)scale(0.08 -0.08)">
     <defs>
      <path id="DejaVuSans-4e" d="M 628 4666 
L 1478 4666 
L 3547 763 
L 3547 4666 
L 4159 4666 
L 4159 0 
L 3309 0 
L 1241 3903 
L 1241 0 
L 628 0 
L 628 4666 
z
" transform="scale(0.015625)"/>
      <path id="DejaVuSans-66" d="M 2375 4863 
L 2375 4384 
L 1825 4384 
Q 1516 4384 1395 4259 
Q 1275 4134 1275 3809 
L 1275 3500 
L 2222 3500 
L 2222 3053 
L 1275 3053 
L 1275 0 
L 697 0 
L 697 3053 
L 147 3053 
L 147 3500 
L 697 3500 
L 697 3744 
Q 697 4328 969 4595 
Q 1241 4863 1831 4863 
L 2375 4863 
z
" transform="scale(0.015625)"/>
      <path id="DejaVuSans-6c" d="M 603 4863 
L 1178 4863 
L 1178 0 
L 603 0 
L 603 4863 
z
" transform="scale(0.015625)"/>
     </defs>
     <use xlink:href="#DejaVuSans-4e"/>
     <use xlink:href="#DejaVuSans-6f" x="74.804688"/>
     <use xlink:href="#DejaVuSans-6e" x="135.986328"/>
     <use xlink:href="#DejaVuSans-66" x="199.365234"/>
     <use xlink:href="#DejaVuSans-69" x="234.570312"/>
     <use xlink:href="#DejaVuSans-6e" x="262.353516"/>
     <use xlink:href="#DejaVuSans-61" x="325.732422"/>
     <use xlink:href="#DejaVuSans-6c" x="387.011719"/>
    </g>
   </g>
   <g id="text_24">
    <!-- Trochaic -->
    <g transform="translate(361.832136 46.970182)scale(0.08 -0.08)">
     <defs>
      <path id="DejaVuSans-54" d="M -19 4666 
L 3928 4666 
L 3928 4134 
L 2272 4134 
L 2272 0 
L 1638 0 
L 1638 4134 
L -19 4134 
L -19 4666 
z
" transform="scale(0.015625)"/>
      <path id="DejaVuSans-68" d="M 3513 2113 
L 3513 0 
L 2938 0 
L 2938 2094 
Q 2938 2591 2744 2837 
Q 2550 3084 2163 3084 
Q 1697 3084 1428 2787 
Q 1159 2491 1159 1978 
L 1159 0 
L 581 0 
L 581 4863 
L 1159 4863 
L 1159 2956 
Q 1366 3272 1645 3428 
Q 1925 3584 2291 3584 
Q 2894 3584 3203 3211 
Q 3513 2838 3513 2113 
z
" transform="scale(0.015625)"/>
     </defs>
     <use xlink:href="#DejaVuSans-54"/>
     <use xlink:href="#DejaVuSans-72" x="46.333984"/>
     <use xlink:href="#DejaVuSans-6f" x="85.197266"/>
     <use xlink:href="#DejaVuSans-63" x="146.378906"/>
     <use xlink:href="#DejaVuSans-68" x="201.359375"/>
     <use xlink:href="#DejaVuSans-61" x="264.738281"/>
     <use xlink:href="#DejaVuSans-69" x="326.017578"/>
     <use xlink:href="#DejaVuSans-63" x="353.800781"/>
    </g>
   </g>
  </g>
  <g id="axes_2">
   <g id="patch_7">
    <path d="M 57.6 307.584 
L 414.72 307.584 
L 414.72 186.624 
L 57.6 186.624 
z
" style="fill: #ffffff"/>
   </g>
   <g id="matplotlib.axis_3">
    <g id="xtick_8">
     <g id="line2d_25">
      <g>
       <use xlink:href="#m6b2b74310f" x="72.427296" y="307.584" style="stroke: #000000; stroke-width: 0.8"/>
      </g>
     </g>
     <g id="text_25">
      <!-- 0 -->
      <g transform="translate(69.246046 322.182437)scale(0.1 -0.1)">
       <use xlink:href="#DejaVuSans-30"/>
      </g>
     </g>
    </g>
    <g id="xtick_9">
     <g id="line2d_26">
      <g>
       <use xlink:href="#m6b2b74310f" x="142.698843" y="307.584" style="stroke: #000000; stroke-width: 0.8"/>
      </g>
     </g>
     <g id="text_26">
      <!-- 50 -->
      <g transform="translate(136.336343 322.182437)scale(0.1 -0.1)">
       <use xlink:href="#DejaVuSans-35"/>
       <use xlink:href="#DejaVuSans-30" x="63.623047"/>
      </g>
     </g>
    </g>
    <g id="xtick_10">
     <g id="line2d_27">
      <g>
       <use xlink:href="#m6b2b74310f" x="212.97039" y="307.584" style="stroke: #000000; stroke-width: 0.8"/>
      </g>
     </g>
     <g id="text_27">
      <!-- 100 -->
      <g transform="translate(203.42664 322.182437)scale(0.1 -0.1)">
       <use xlink:href="#DejaVuSans-31"/>
       <use xlink:href="#DejaVuSans-30" x="63.623047"/>
       <use xlink:href="#DejaVuSans-30" x="127.246094"/>
      </g>
     </g>
    </g>
    <g id="xtick_11">
     <g id="line2d_28">
      <g>
       <use xlink:href="#m6b2b74310f" x="283.241936" y="307.584" style="stroke: #000000; stroke-width: 0.8"/>
      </g>
     </g>
     <g id="text_28">
      <!-- 150 -->
      <g transform="translate(273.698186 322.182437)scale(0.1 -0.1)">
       <use xlink:href="#DejaVuSans-31"/>
       <use xlink:href="#DejaVuSans-35" x="63.623047"/>
       <use xlink:href="#DejaVuSans-30" x="127.246094"/>
      </g>
     </g>
    </g>
    <g id="xtick_12">
     <g id="line2d_29">
      <g>
       <use xlink:href="#m6b2b74310f" x="353.513483" y="307.584" style="stroke: #000000; stroke-width: 0.8"/>
      </g>
     </g>
     <g id="text_29">
      <!-- 200 -->
      <g transform="translate(343.969733 322.182437)scale(0.1 -0.1)">
       <use xlink:href="#DejaVuSans-32"/>
       <use xlink:href="#DejaVuSans-30" x="63.623047"/>
       <use xlink:href="#DejaVuSans-30" x="127.246094"/>
      </g>
     </g>
    </g>
   </g>
   <g id="matplotlib.axis_4">
    <g id="ytick_6">
     <g id="line2d_30">
      <g>
       <use xlink:href="#m8c5cf51d99" x="57.6" y="302.109864" style="stroke: #000000; stroke-width: 0.8"/>
      </g>
     </g>
     <g id="text_30">
      <!-- 0 -->
      <g transform="translate(44.2375 305.909083)scale(0.1 -0.1)">
       <use xlink:href="#DejaVuSans-30"/>
      </g>
     </g>
    </g>
    <g id="ytick_7">
     <g id="line2d_31">
      <g>
       <use xlink:href="#m8c5cf51d99" x="57.6" y="278.063585" style="stroke: #000000; stroke-width: 0.8"/>
      </g>
     </g>
     <g id="text_31">
      <!-- 1000 -->
      <g transform="translate(25.15 281.862804)scale(0.1 -0.1)">
       <use xlink:href="#DejaVuSans-31"/>
       <use xlink:href="#DejaVuSans-30" x="63.623047"/>
       <use xlink:href="#DejaVuSans-30" x="127.246094"/>
       <use xlink:href="#DejaVuSans-30" x="190.869141"/>
      </g>
     </g>
    </g>
    <g id="ytick_8">
     <g id="line2d_32">
      <g>
       <use xlink:href="#m8c5cf51d99" x="57.6" y="254.017305" style="stroke: #000000; stroke-width: 0.8"/>
      </g>
     </g>
     <g id="text_32">
      <!-- 2000 -->
      <g transform="translate(25.15 257.816524)scale(0.1 -0.1)">
       <use xlink:href="#DejaVuSans-32"/>
       <use xlink:href="#DejaVuSans-30" x="63.623047"/>
       <use xlink:href="#DejaVuSans-30" x="127.246094"/>
       <use xlink:href="#DejaVuSans-30" x="190.869141"/>
      </g>
     </g>
    </g>
    <g id="ytick_9">
     <g id="line2d_33">
      <g>
       <use xlink:href="#m8c5cf51d99" x="57.6" y="229.971026" style="stroke: #000000; stroke-width: 0.8"/>
      </g>
     </g>
     <g id="text_33">
      <!-- 3000 -->
      <g transform="translate(25.15 233.770245)scale(0.1 -0.1)">
       <use xlink:href="#DejaVuSans-33"/>
       <use xlink:href="#DejaVuSans-30" x="63.623047"/>
       <use xlink:href="#DejaVuSans-30" x="127.246094"/>
       <use xlink:href="#DejaVuSans-30" x="190.869141"/>
      </g>
     </g>
    </g>
    <g id="ytick_10">
     <g id="line2d_34">
      <g>
       <use xlink:href="#m8c5cf51d99" x="57.6" y="205.924746" style="stroke: #000000; stroke-width: 0.8"/>
      </g>
     </g>
     <g id="text_34">
      <!-- 4000 -->
      <g transform="translate(25.15 209.723965)scale(0.1 -0.1)">
       <use xlink:href="#DejaVuSans-34"/>
       <use xlink:href="#DejaVuSans-30" x="63.623047"/>
       <use xlink:href="#DejaVuSans-30" x="127.246094"/>
       <use xlink:href="#DejaVuSans-30" x="190.869141"/>
      </g>
     </g>
    </g>
   </g>
   <g id="line2d_35">
    <path d="M 73.832727 302.085818 
L 155.347721 302.085818 
L 156.753152 301.821309 
L 158.158583 302.061772 
L 167.9966 302.085818 
L 169.402031 301.917494 
L 170.807462 302.061772 
L 172.212893 302.085818 
L 175.023754 301.989633 
L 177.834616 302.085818 
L 180.645478 302.085818 
L 186.267202 302.085818 
L 187.672633 302.085818 
L 189.078064 301.941541 
L 190.483495 302.085818 
L 191.888926 301.821309 
L 193.294357 302.013679 
L 196.105218 301.965587 
L 197.510649 302.085818 
L 198.91608 302.085818 
L 200.321511 301.917494 
L 201.726942 302.037726 
L 203.132373 301.965587 
L 204.537804 302.085818 
L 208.754097 301.725124 
L 210.159528 301.460615 
L 211.564959 301.388476 
L 212.97039 301.965587 
L 215.781251 302.061772 
L 217.186682 301.845355 
L 218.592113 301.917494 
L 221.402975 301.508707 
L 222.808406 302.085818 
L 224.213837 301.484661 
L 225.619268 302.061772 
L 227.024699 302.085818 
L 228.43013 301.869402 
L 229.835561 301.508707 
L 231.240992 301.965587 
L 232.646423 301.5568 
L 234.051854 301.701078 
L 235.457285 302.085818 
L 236.862715 302.013679 
L 238.268146 301.5568 
L 239.673577 302.037726 
L 241.079008 301.652985 
L 242.484439 302.037726 
L 243.88987 301.941541 
L 245.295301 301.989633 
L 246.700732 301.725124 
L 248.106163 302.085818 
L 249.511594 299.705237 
L 250.917025 301.965587 
L 252.322456 302.085818 
L 253.727887 301.869402 
L 255.133318 300.763273 
L 256.538749 301.5568 
L 257.944179 302.013679 
L 259.34961 301.628939 
L 260.755041 301.628939 
L 262.160472 301.099921 
L 263.565903 301.74917 
L 264.971334 300.426625 
L 266.376765 301.436569 
L 269.187627 301.196106 
L 270.593058 301.917494 
L 271.998489 301.652985 
L 273.40392 300.859458 
L 274.809351 302.061772 
L 276.214782 301.196106 
L 280.431074 301.677031 
L 281.836505 301.917494 
L 283.241936 301.797263 
L 284.647367 301.5568 
L 286.052798 301.677031 
L 287.458229 301.484661 
L 288.86366 301.941541 
L 290.269091 301.5568 
L 291.674522 301.941541 
L 293.079953 300.52281 
L 294.485384 301.941541 
L 295.890815 300.089977 
L 297.296246 302.037726 
L 298.701677 302.037726 
L 300.107107 300.306393 
L 301.512538 299.560959 
L 302.917969 299.128126 
L 304.3234 301.388476 
L 305.728831 300.306393 
L 307.134262 298.021997 
L 308.539693 301.869402 
L 309.945124 301.027782 
L 311.350555 301.797263 
L 312.755986 299.248357 
L 314.161417 298.671246 
L 315.566848 301.917494 
L 316.972279 301.268245 
L 318.37771 296.675405 
L 319.78314 300.931597 
L 321.188571 298.623154 
L 322.594002 284.411803 
L 323.999433 301.436569 
L 325.404864 301.17206 
L 326.810295 301.628939 
L 328.215726 301.701078 
L 331.026588 301.36443 
L 333.83745 293.429158 
L 335.242881 301.340384 
L 336.648312 298.45483 
L 338.053743 300.618995 
L 339.459174 297.180377 
L 340.864604 282.608332 
L 342.270035 301.316337 
L 343.675466 300.955643 
L 345.080897 289.557707 
L 346.486328 297.060146 
L 347.891759 301.604893 
L 349.29719 253.295917 
L 350.702621 258.369682 
L 352.108052 298.863617 
L 353.513483 299.849514 
L 354.918914 276.115836 
L 356.324345 277.390289 
L 357.729776 294.006268 
L 359.135207 268.709582 
L 360.540638 266.064491 
L 361.946068 296.026156 
L 363.351499 290.56765 
L 364.75693 292.828001 
L 366.162361 270.537099 
L 367.567792 238.483409 
L 368.973223 285.662209 
L 370.378654 291.144761 
L 371.784085 292.323029 
L 373.189516 285.229376 
L 374.594947 292.731815 
L 376.000378 280.925092 
L 377.405809 261.255236 
L 378.81124 198.831094 
L 380.216671 248.462615 
L 381.622102 205.51596 
L 383.027532 298.021997 
L 384.432963 272.172246 
L 385.838394 300.546856 
L 387.243825 267.459176 
L 388.649256 227.903046 
L 390.054687 283.065211 
L 391.460118 192.122182 
L 392.865549 299.921653 
L 394.27098 282.560239 
L 395.676411 300.643041 
L 397.081842 244.927812 
L 398.487273 284.075155 
L 398.487273 284.075155 
" clip-path="url(#p5a248384ee)" style="fill: none; stroke: #1f77b4; stroke-width: 1.5; stroke-linecap: square"/>
   </g>
   <g id="patch_8">
    <path d="M 57.6 307.584 
L 57.6 186.624 
" style="fill: none; stroke: #000000; stroke-width: 0.8; stroke-linejoin: miter; stroke-linecap: square"/>
   </g>
   <g id="patch_9">
    <path d="M 414.72 307.584 
L 414.72 186.624 
" style="fill: none; stroke: #000000; stroke-width: 0.8; stroke-linejoin: miter; stroke-linecap: square"/>
   </g>
   <g id="patch_10">
    <path d="M 57.6 307.584 
L 414.72 307.584 
" style="fill: none; stroke: #000000; stroke-width: 0.8; stroke-linejoin: miter; stroke-linecap: square"/>
   </g>
   <g id="patch_11">
    <path d="M 57.6 186.624 
L 414.72 186.624 
" style="fill: none; stroke: #000000; stroke-width: 0.8; stroke-linejoin: miter; stroke-linecap: square"/>
   </g>
  </g>
 </g>
 <defs>
  <clipPath id="p4e02fa4378">
   <rect x="57.6" y="41.472" width="357.12" height="120.96"/>
  </clipPath>
  <clipPath id="p5a248384ee">
   <rect x="57.6" y="186.624" width="357.12" height="120.96"/>
  </clipPath>
 </defs>
</svg>
