<?xml version="1.0" encoding="utf-8" standalone="no"?>
<!DOCTYPE svg PUBLIC "-//W3C//DTD SVG 1.1//EN"
  "http://www.w3.org/Graphics/SVG/1.1/DTD/svg11.dtd">
<svg xmlns:xlink="http://www.w3.org/1999/xlink" width="460.8pt" height="345.6pt" viewBox="0 0 460.8 345.6" xmlns="http://www.w3.org/2000/svg" version="1.1">
 <metadata>
  <rdf:RDF xmlns:dc="http://purl.org/dc/elements/1.1/" xmlns:cc="http://creativecommons.org/ns#" xmlns:rdf="http://www.w3.org/1999/02/22-rdf-syntax-ns#">
   <cc:Work>
    <dc:type rdf:resource="http://purl.org/dc/dcmitype/StillImage"/>
    <dc:date>2022-05-13T16:36:44.970943</dc:date>
    <dc:format>image/svg+xml</dc:format>
    <dc:creator>
     <cc:Agent>
      <dc:title>Matplotlib v3.5.1, https://matplotlib.org/</dc:title>
     </cc:Agent>
    </dc:creator>
   </cc:Work>
  </rdf:RDF>
 </metadata>
 <defs>
  <style type="text/css">*{stroke-linejoin: round; stroke-linecap: butt}</style>
 </defs>
 <g id="figure_1">
  <g id="patch_1">
   <path d="M 0 345.6 
L 460.8 345.6 
L 460.8 0 
L 0 0 
z
" style="fill: #ffffff"/>
  </g>
  <g id="axes_1">
   <g id="patch_2">
    <path d="M 57.6 162.432 
L 414.72 162.432 
L 414.72 41.472 
L 57.6 41.472 
z
" style="fill: #ffffff"/>
   </g>
   <g id="matplotlib.axis_1">
    <g id="xtick_1">
     <g id="line2d_1">
      <defs>
       <path id="mc6b4b350d6" d="M 0 0 
L 0 3.5 
" style="stroke: #000000; stroke-width: 0.8"/>
      </defs>
      <g>
       <use xlink:href="#mc6b4b350d6" x="73.827491" y="162.432" style="stroke: #000000; stroke-width: 0.8"/>
      </g>
     </g>
     <g id="text_1">
      <!-- 0 -->
      <g transform="translate(70.646241 177.030437)scale(0.1 -0.1)">
       <defs>
        <path id="DejaVuSans-30" d="M 2034 4250 
Q 1547 4250 1301 3770 
Q 1056 3291 1056 2328 
Q 1056 1369 1301 889 
Q 1547 409 2034 409 
Q 2525 409 2770 889 
Q 3016 1369 3016 2328 
Q 3016 3291 2770 3770 
Q 2525 4250 2034 4250 
z
M 2034 4750 
Q 2819 4750 3233 4129 
Q 3647 3509 3647 2328 
Q 3647 1150 3233 529 
Q 2819 -91 2034 -91 
Q 1250 -91 836 529 
Q 422 1150 422 2328 
Q 422 3509 836 4129 
Q 1250 4750 2034 4750 
z
" transform="scale(0.015625)"/>
       </defs>
       <use xlink:href="#DejaVuSans-30"/>
      </g>
     </g>
    </g>
    <g id="xtick_2">
     <g id="line2d_2">
      <g>
       <use xlink:href="#mc6b4b350d6" x="126.191972" y="162.432" style="stroke: #000000; stroke-width: 0.8"/>
      </g>
     </g>
     <g id="text_2">
      <!-- 10000 -->
      <g transform="translate(110.285722 177.030437)scale(0.1 -0.1)">
       <defs>
        <path id="DejaVuSans-31" d="M 794 531 
L 1825 531 
L 1825 4091 
L 703 3866 
L 703 4441 
L 1819 4666 
L 2450 4666 
L 2450 531 
L 3481 531 
L 3481 0 
L 794 0 
L 794 531 
z
" transform="scale(0.015625)"/>
       </defs>
       <use xlink:href="#DejaVuSans-31"/>
       <use xlink:href="#DejaVuSans-30" x="63.623047"/>
       <use xlink:href="#DejaVuSans-30" x="127.246094"/>
       <use xlink:href="#DejaVuSans-30" x="190.869141"/>
       <use xlink:href="#DejaVuSans-30" x="254.492188"/>
      </g>
     </g>
    </g>
    <g id="xtick_3">
     <g id="line2d_3">
      <g>
       <use xlink:href="#mc6b4b350d6" x="178.556453" y="162.432" style="stroke: #000000; stroke-width: 0.8"/>
      </g>
     </g>
     <g id="text_3">
      <!-- 20000 -->
      <g transform="translate(162.650203 177.030437)scale(0.1 -0.1)">
       <defs>
        <path id="DejaVuSans-32" d="M 1228 531 
L 3431 531 
L 3431 0 
L 469 0 
L 469 531 
Q 828 903 1448 1529 
Q 2069 2156 2228 2338 
Q 2531 2678 2651 2914 
Q 2772 3150 2772 3378 
Q 2772 3750 2511 3984 
Q 2250 4219 1831 4219 
Q 1534 4219 1204 4116 
Q 875 4013 500 3803 
L 500 4441 
Q 881 4594 1212 4672 
Q 1544 4750 1819 4750 
Q 2544 4750 2975 4387 
Q 3406 4025 3406 3419 
Q 3406 3131 3298 2873 
Q 3191 2616 2906 2266 
Q 2828 2175 2409 1742 
Q 1991 1309 1228 531 
z
" transform="scale(0.015625)"/>
       </defs>
       <use xlink:href="#DejaVuSans-32"/>
       <use xlink:href="#DejaVuSans-30" x="63.623047"/>
       <use xlink:href="#DejaVuSans-30" x="127.246094"/>
       <use xlink:href="#DejaVuSans-30" x="190.869141"/>
       <use xlink:href="#DejaVuSans-30" x="254.492188"/>
      </g>
     </g>
    </g>
    <g id="xtick_4">
     <g id="line2d_4">
      <g>
       <use xlink:href="#mc6b4b350d6" x="230.920934" y="162.432" style="stroke: #000000; stroke-width: 0.8"/>
      </g>
     </g>
     <g id="text_4">
      <!-- 30000 -->
      <g transform="translate(215.014684 177.030437)scale(0.1 -0.1)">
       <defs>
        <path id="DejaVuSans-33" d="M 2597 2516 
Q 3050 2419 3304 2112 
Q 3559 1806 3559 1356 
Q 3559 666 3084 287 
Q 2609 -91 1734 -91 
Q 1441 -91 1130 -33 
Q 819 25 488 141 
L 488 750 
Q 750 597 1062 519 
Q 1375 441 1716 441 
Q 2309 441 2620 675 
Q 2931 909 2931 1356 
Q 2931 1769 2642 2001 
Q 2353 2234 1838 2234 
L 1294 2234 
L 1294 2753 
L 1863 2753 
Q 2328 2753 2575 2939 
Q 2822 3125 2822 3475 
Q 2822 3834 2567 4026 
Q 2313 4219 1838 4219 
Q 1578 4219 1281 4162 
Q 984 4106 628 3988 
L 628 4550 
Q 988 4650 1302 4700 
Q 1616 4750 1894 4750 
Q 2613 4750 3031 4423 
Q 3450 4097 3450 3541 
Q 3450 3153 3228 2886 
Q 3006 2619 2597 2516 
z
" transform="scale(0.015625)"/>
       </defs>
       <use xlink:href="#DejaVuSans-33"/>
       <use xlink:href="#DejaVuSans-30" x="63.623047"/>
       <use xlink:href="#DejaVuSans-30" x="127.246094"/>
       <use xlink:href="#DejaVuSans-30" x="190.869141"/>
       <use xlink:href="#DejaVuSans-30" x="254.492188"/>
      </g>
     </g>
    </g>
    <g id="xtick_5">
     <g id="line2d_5">
      <g>
       <use xlink:href="#mc6b4b350d6" x="283.285415" y="162.432" style="stroke: #000000; stroke-width: 0.8"/>
      </g>
     </g>
     <g id="text_5">
      <!-- 40000 -->
      <g transform="translate(267.379165 177.030437)scale(0.1 -0.1)">
       <defs>
        <path id="DejaVuSans-34" d="M 2419 4116 
L 825 1625 
L 2419 1625 
L 2419 4116 
z
M 2253 4666 
L 3047 4666 
L 3047 1625 
L 3713 1625 
L 3713 1100 
L 3047 1100 
L 3047 0 
L 2419 0 
L 2419 1100 
L 313 1100 
L 313 1709 
L 2253 4666 
z
" transform="scale(0.015625)"/>
       </defs>
       <use xlink:href="#DejaVuSans-34"/>
       <use xlink:href="#DejaVuSans-30" x="63.623047"/>
       <use xlink:href="#DejaVuSans-30" x="127.246094"/>
       <use xlink:href="#DejaVuSans-30" x="190.869141"/>
       <use xlink:href="#DejaVuSans-30" x="254.492188"/>
      </g>
     </g>
    </g>
    <g id="xtick_6">
     <g id="line2d_6">
      <g>
       <use xlink:href="#mc6b4b350d6" x="335.649896" y="162.432" style="stroke: #000000; stroke-width: 0.8"/>
      </g>
     </g>
     <g id="text_6">
      <!-- 50000 -->
      <g transform="translate(319.743646 177.030437)scale(0.1 -0.1)">
       <defs>
        <path id="DejaVuSans-35" d="M 691 4666 
L 3169 4666 
L 3169 4134 
L 1269 4134 
L 1269 2991 
Q 1406 3038 1543 3061 
Q 1681 3084 1819 3084 
Q 2600 3084 3056 2656 
Q 3513 2228 3513 1497 
Q 3513 744 3044 326 
Q 2575 -91 1722 -91 
Q 1428 -91 1123 -41 
Q 819 9 494 109 
L 494 744 
Q 775 591 1075 516 
Q 1375 441 1709 441 
Q 2250 441 2565 725 
Q 2881 1009 2881 1497 
Q 2881 1984 2565 2268 
Q 2250 2553 1709 2553 
Q 1456 2553 1204 2497 
Q 953 2441 691 2322 
L 691 4666 
z
" transform="scale(0.015625)"/>
       </defs>
       <use xlink:href="#DejaVuSans-35"/>
       <use xlink:href="#DejaVuSans-30" x="63.623047"/>
       <use xlink:href="#DejaVuSans-30" x="127.246094"/>
       <use xlink:href="#DejaVuSans-30" x="190.869141"/>
       <use xlink:href="#DejaVuSans-30" x="254.492188"/>
      </g>
     </g>
    </g>
    <g id="xtick_7">
     <g id="line2d_7">
      <g>
       <use xlink:href="#mc6b4b350d6" x="388.014377" y="162.432" style="stroke: #000000; stroke-width: 0.8"/>
      </g>
     </g>
     <g id="text_7">
      <!-- 60000 -->
      <g transform="translate(372.108127 177.030437)scale(0.1 -0.1)">
       <defs>
        <path id="DejaVuSans-36" d="M 2113 2584 
Q 1688 2584 1439 2293 
Q 1191 2003 1191 1497 
Q 1191 994 1439 701 
Q 1688 409 2113 409 
Q 2538 409 2786 701 
Q 3034 994 3034 1497 
Q 3034 2003 2786 2293 
Q 2538 2584 2113 2584 
z
M 3366 4563 
L 3366 3988 
Q 3128 4100 2886 4159 
Q 2644 4219 2406 4219 
Q 1781 4219 1451 3797 
Q 1122 3375 1075 2522 
Q 1259 2794 1537 2939 
Q 1816 3084 2150 3084 
Q 2853 3084 3261 2657 
Q 3669 2231 3669 1497 
Q 3669 778 3244 343 
Q 2819 -91 2113 -91 
Q 1303 -91 875 529 
Q 447 1150 447 2328 
Q 447 3434 972 4092 
Q 1497 4750 2381 4750 
Q 2619 4750 2861 4703 
Q 3103 4656 3366 4563 
z
" transform="scale(0.015625)"/>
       </defs>
       <use xlink:href="#DejaVuSans-36"/>
       <use xlink:href="#DejaVuSans-30" x="63.623047"/>
       <use xlink:href="#DejaVuSans-30" x="127.246094"/>
       <use xlink:href="#DejaVuSans-30" x="190.869141"/>
       <use xlink:href="#DejaVuSans-30" x="254.492188"/>
      </g>
     </g>
    </g>
   </g>
   <g id="matplotlib.axis_2">
    <g id="ytick_1">
     <g id="line2d_8">
      <defs>
       <path id="m824b91bfd8" d="M 0 0 
L -3.5 0 
" style="stroke: #000000; stroke-width: 0.8"/>
      </defs>
      <g>
       <use xlink:href="#m824b91bfd8" x="57.6" y="156.291771" style="stroke: #000000; stroke-width: 0.8"/>
      </g>
     </g>
     <g id="text_8">
      <!-- 0 -->
      <g transform="translate(44.2375 160.09099)scale(0.1 -0.1)">
       <use xlink:href="#DejaVuSans-30"/>
      </g>
     </g>
    </g>
    <g id="ytick_2">
     <g id="line2d_9">
      <g>
       <use xlink:href="#m824b91bfd8" x="57.6" y="135.468611" style="stroke: #000000; stroke-width: 0.8"/>
      </g>
     </g>
     <g id="text_9">
      <!-- 20 -->
      <g transform="translate(37.875 139.26783)scale(0.1 -0.1)">
       <use xlink:href="#DejaVuSans-32"/>
       <use xlink:href="#DejaVuSans-30" x="63.623047"/>
      </g>
     </g>
    </g>
    <g id="ytick_3">
     <g id="line2d_10">
      <g>
       <use xlink:href="#m824b91bfd8" x="57.6" y="114.645451" style="stroke: #000000; stroke-width: 0.8"/>
      </g>
     </g>
     <g id="text_10">
      <!-- 40 -->
      <g transform="translate(37.875 118.44467)scale(0.1 -0.1)">
       <use xlink:href="#DejaVuSans-34"/>
       <use xlink:href="#DejaVuSans-30" x="63.623047"/>
      </g>
     </g>
    </g>
    <g id="ytick_4">
     <g id="line2d_11">
      <g>
       <use xlink:href="#m824b91bfd8" x="57.6" y="93.822291" style="stroke: #000000; stroke-width: 0.8"/>
      </g>
     </g>
     <g id="text_11">
      <!-- 60 -->
      <g transform="translate(37.875 97.62151)scale(0.1 -0.1)">
       <use xlink:href="#DejaVuSans-36"/>
       <use xlink:href="#DejaVuSans-30" x="63.623047"/>
      </g>
     </g>
    </g>
    <g id="ytick_5">
     <g id="line2d_12">
      <g>
       <use xlink:href="#m824b91bfd8" x="57.6" y="72.999132" style="stroke: #000000; stroke-width: 0.8"/>
      </g>
     </g>
     <g id="text_12">
      <!-- 80 -->
      <g transform="translate(37.875 76.79835)scale(0.1 -0.1)">
       <defs>
        <path id="DejaVuSans-38" d="M 2034 2216 
Q 1584 2216 1326 1975 
Q 1069 1734 1069 1313 
Q 1069 891 1326 650 
Q 1584 409 2034 409 
Q 2484 409 2743 651 
Q 3003 894 3003 1313 
Q 3003 1734 2745 1975 
Q 2488 2216 2034 2216 
z
M 1403 2484 
Q 997 2584 770 2862 
Q 544 3141 544 3541 
Q 544 4100 942 4425 
Q 1341 4750 2034 4750 
Q 2731 4750 3128 4425 
Q 3525 4100 3525 3541 
Q 3525 3141 3298 2862 
Q 3072 2584 2669 2484 
Q 3125 2378 3379 2068 
Q 3634 1759 3634 1313 
Q 3634 634 3220 271 
Q 2806 -91 2034 -91 
Q 1263 -91 848 271 
Q 434 634 434 1313 
Q 434 1759 690 2068 
Q 947 2378 1403 2484 
z
M 1172 3481 
Q 1172 3119 1398 2916 
Q 1625 2713 2034 2713 
Q 2441 2713 2670 2916 
Q 2900 3119 2900 3481 
Q 2900 3844 2670 4047 
Q 2441 4250 2034 4250 
Q 1625 4250 1398 4047 
Q 1172 3844 1172 3481 
z
" transform="scale(0.015625)"/>
       </defs>
       <use xlink:href="#DejaVuSans-38"/>
       <use xlink:href="#DejaVuSans-30" x="63.623047"/>
      </g>
     </g>
    </g>
    <g id="ytick_6">
     <g id="line2d_13">
      <g>
       <use xlink:href="#m824b91bfd8" x="57.6" y="52.175972" style="stroke: #000000; stroke-width: 0.8"/>
      </g>
     </g>
     <g id="text_13">
      <!-- 100 -->
      <g transform="translate(31.5125 55.975191)scale(0.1 -0.1)">
       <use xlink:href="#DejaVuSans-31"/>
       <use xlink:href="#DejaVuSans-30" x="63.623047"/>
       <use xlink:href="#DejaVuSans-30" x="127.246094"/>
      </g>
     </g>
    </g>
   </g>
   <g id="line2d_14">
    <path d="M 73.832727 51.828919 
L 73.963638 55.906788 
L 73.979348 55.212683 
L 74.021239 58.16263 
L 74.042185 57.815578 
L 74.047422 57.815578 
L 74.178333 61.98021 
L 74.194042 61.98021 
L 74.209752 61.633157 
L 74.25688 64.062525 
L 74.277825 63.36842 
L 74.382554 65.103683 
L 74.366845 63.021367 
L 74.393027 64.583104 
L 74.4035 64.583104 
L 74.466337 64.236052 
L 74.471574 65.27721 
L 74.487283 65.068978 
L 74.586776 66.283663 
L 74.597249 65.589557 
L 74.602485 65.589557 
L 74.722923 67.8454 
L 74.749106 67.8454 
L 74.87478 66.804242 
L 74.916672 66.804242 
L 75.031874 68.192452 
L 75.042347 68.192452 
L 75.079002 70.274768 
L 75.157549 69.927715 
L 75.241332 69.580663 
L 75.246568 70.621821 
L 75.257041 70.621821 
L 75.377479 70.621821 
L 75.456026 69.927715 
L 75.461263 70.968873 
L 75.482208 70.968873 
L 75.503154 70.968873 
L 75.618356 70.621821 
L 75.801632 70.621821 
L 75.84876 71.662979 
L 75.911597 71.315926 
L 75.99538 71.315926 
L 76.121055 70.101242 
L 76.142001 70.101242 
L 76.199602 69.580663 
L 76.204838 70.621821 
L 76.24673 70.621821 
L 76.304331 70.621821 
L 76.419533 71.662979 
L 76.691828 71.662979 
L 76.801793 70.795347 
L 76.875104 71.836505 
L 76.911759 71.489452 
L 77.037434 71.489452 
L 77.157872 73.571768 
L 77.294019 73.571768 
L 77.409221 73.224716 
L 77.461586 73.224716 
L 77.576788 72.877663 
L 77.922393 72.877663 
L 77.964285 73.918821 
L 78.037595 73.71059 
L 78.079487 73.71059 
L 78.194689 73.363537 
L 78.425092 73.363537 
L 78.540294 74.404695 
L 78.645023 74.404695 
L 78.760225 74.057642 
L 78.995865 74.057642 
L 79.111067 73.502358 
L 79.205323 73.502358 
L 79.304816 74.543516 
L 79.315288 74.022937 
L 79.875588 74.022937 
L 79.99079 73.675884 
L 80.032682 73.675884 
L 80.147884 73.328832 
L 80.373051 73.328832 
L 80.430652 74.36999 
L 80.483016 74.022937 
L 80.5668 74.022937 
L 80.682001 75.064095 
L 80.791967 75.064095 
L 80.907169 74.717042 
L 80.975242 74.717042 
L 81.090444 74.36999 
L 81.970168 74.36999 
L 82.085369 75.411148 
L 82.902255 75.411148 
L 83.017457 74.890569 
L 83.185024 74.890569 
L 83.300225 74.682337 
L 83.91289 74.682337 
L 84.028092 74.335284 
L 84.080456 74.335284 
L 84.195658 73.988232 
L 86.080779 73.988232 
L 86.195981 73.467653 
L 86.30071 73.467653 
L 86.415912 74.508811 
L 86.908138 74.508811 
L 87.02334 74.300579 
L 87.468438 74.300579 
L 87.58364 73.953526 
L 87.719788 73.953526 
L 87.740733 73.606474 
L 87.74597 74.647632 
L 87.81928 74.647632 
L 89.159811 74.647632 
L 89.26454 74.127053 
L 89.379742 75.168211 
L 89.521126 75.168211 
L 89.636328 76.209369 
L 89.997643 76.209369 
L 90.112844 77.250527 
L 91.521449 77.250527 
L 91.636651 78.291685 
L 92.018912 78.291685 
L 92.134113 77.944632 
L 95.223618 77.944632 
L 95.33882 77.597579 
L 104.680643 77.597579 
L 104.795845 78.638737 
L 107.288394 78.638737 
L 107.403596 78.291685 
L 108.079098 78.291685 
L 108.1943 77.944632 
L 110.199859 77.944632 
L 110.315061 78.98579 
L 113.236999 78.98579 
L 113.352201 78.777558 
L 113.61926 78.777558 
L 113.734462 78.256979 
L 116.446942 78.256979 
L 116.562144 79.298137 
L 118.641014 79.298137 
L 118.756215 78.951085 
L 122.17038 78.951085 
L 122.285581 78.742853 
L 122.898246 78.742853 
L 123.013448 79.784011 
L 125.757347 79.784011 
L 125.872548 79.263432 
L 126.38572 79.263432 
L 126.500922 78.916379 
L 127.862399 78.916379 
L 127.977601 79.957537 
L 128.579792 79.957537 
L 128.694994 79.610485 
L 132.166759 79.610485 
L 132.281961 79.263432 
L 136.21977 79.263432 
L 136.225006 80.30459 
L 136.329735 79.784011 
L 147.860394 79.784011 
L 147.975596 79.436958 
L 158.490384 79.436958 
L 158.605585 80.478116 
L 171.010731 80.478116 
L 171.125933 79.957537 
L 174.199728 79.957537 
L 174.31493 80.998695 
L 202.884991 80.998695 
L 202.937355 82.039853 
L 202.994956 81.519274 
L 213.158902 81.519274 
L 213.274104 81.172222 
L 217.903124 81.172222 
L 218.018326 80.825169 
L 218.384877 80.825169 
L 218.500079 80.478116 
L 220.631313 80.478116 
L 220.746515 81.519274 
L 222.013735 81.519274 
L 222.128937 81.172222 
L 249.05999 81.172222 
L 249.175192 80.96399 
L 249.353231 80.96399 
L 249.468433 80.443411 
L 260.548757 80.443411 
L 260.663959 80.23518 
L 267.97404 80.23518 
L 268.089242 79.888127 
L 279.583246 79.888127 
L 279.698448 79.541074 
L 281.332219 79.541074 
L 281.447421 80.582232 
L 289.05598 80.582232 
L 289.171182 81.62339 
L 293.0671 81.62339 
L 293.182302 81.276338 
L 360.496842 81.276338 
L 360.612044 82.317496 
L 366.890545 82.317496 
L 367.005747 81.970443 
L 398.487273 81.970443 
L 398.487273 81.970443 
" clip-path="url(#p4a5e275cbe)" style="fill: none; stroke: #1f77b4; stroke-width: 1.5; stroke-linecap: square"/>
   </g>
   <g id="line2d_15">
    <path d="M 73.832727 52.175972 
L 73.968875 57.728814 
L 73.974111 57.728814 
L 74.099786 62.240499 
L 73.995057 57.642051 
L 74.105023 61.71992 
L 74.110259 61.71992 
L 74.194042 59.81113 
L 74.230697 60.331709 
L 74.235934 60.331709 
L 74.335426 61.372867 
L 74.345899 60.852288 
L 74.351136 60.852288 
L 74.434919 59.290551 
L 74.466337 60.331709 
L 74.539648 60.331709 
L 74.618194 58.943499 
L 74.649613 59.984657 
L 74.701978 59.984657 
L 74.827652 58.42292 
L 74.932381 58.42292 
L 75.047583 57.381762 
L 75.073765 57.381762 
L 75.168022 59.464078 
L 75.188967 58.943499 
L 75.377479 58.943499 
L 75.492681 58.596446 
L 75.723085 58.596446 
L 75.75974 59.637604 
L 75.83305 59.117025 
L 76.110582 59.117025 
L 76.231021 57.815578 
L 76.267676 57.815578 
L 76.382877 58.856736 
L 76.430006 58.856736 
L 76.545207 59.897894 
L 76.634227 59.897894 
L 76.749429 59.377315 
L 76.786084 59.377315 
L 76.901286 58.856736 
L 77.11598 58.856736 
L 77.163108 59.897894 
L 77.225946 59.377315 
L 77.393512 59.377315 
L 77.508714 58.336157 
L 77.655334 58.336157 
L 77.770536 57.815578 
L 77.964285 57.815578 
L 78.079487 58.856736 
L 78.383201 58.856736 
L 78.498403 58.336157 
L 78.550767 58.336157 
L 78.665969 59.377315 
L 79.027284 59.377315 
L 79.090121 58.856736 
L 79.095358 59.897894 
L 79.132013 59.897894 
L 79.304816 59.897894 
L 79.420017 59.377315 
L 79.969844 59.377315 
L 80.085046 58.856736 
L 80.901932 58.856736 
L 81.017134 57.815578 
L 82.902255 57.815578 
L 83.017457 57.294999 
L 83.185024 57.294999 
L 83.300225 58.336157 
L 83.457319 58.336157 
L 83.572521 57.815578 
L 83.818634 57.815578 
L 83.939072 59.897894 
L 84.666938 59.897894 
L 84.78214 59.377315 
L 85.750883 59.377315 
L 85.866085 58.856736 
L 85.996996 58.856736 
L 86.080779 59.897894 
L 86.106962 59.377315 
L 86.824355 59.377315 
L 86.908138 58.336157 
L 86.93432 59.377315 
L 89.159811 59.377315 
L 89.217412 57.815578 
L 89.275013 58.856736 
L 89.950515 58.856736 
L 90.065716 59.897894 
L 90.102372 59.897894 
L 90.217573 58.856736 
L 102.596537 58.856736 
L 102.711739 59.897894 
L 103.670009 59.897894 
L 103.78521 59.377315 
L 106.701912 59.377315 
L 106.817114 58.336157 
L 113.236999 58.336157 
L 113.352201 59.377315 
L 113.61926 59.377315 
L 113.734462 58.856736 
L 120.007727 58.856736 
L 120.122928 58.336157 
L 122.17038 58.336157 
L 122.285581 59.377315 
L 125.375086 59.377315 
L 125.490288 58.856736 
L 125.757347 58.856736 
L 125.872548 58.336157 
L 128.87827 58.336157 
L 128.993472 59.377315 
L 131.187543 59.377315 
L 131.302745 58.856736 
L 136.225006 58.856736 
L 136.340208 58.336157 
L 137.377025 58.336157 
L 137.492227 59.377315 
L 149.064777 59.377315 
L 149.179979 58.336157 
L 171.010731 58.336157 
L 171.125933 57.815578 
L 192.391149 57.815578 
L 192.50635 58.856736 
L 202.937355 58.856736 
L 203.052557 59.897894 
L 206.739016 59.897894 
L 206.854218 59.377315 
L 217.416134 59.377315 
L 217.531336 58.856736 
L 249.05999 58.856736 
L 249.175192 59.897894 
L 249.353231 59.897894 
L 249.468433 59.377315 
L 259.229172 59.377315 
L 259.344374 58.856736 
L 260.548757 58.856736 
L 260.663959 59.897894 
L 266.266958 59.897894 
L 266.38216 59.377315 
L 270.649865 59.377315 
L 270.765067 60.418473 
L 283.332543 60.418473 
L 283.447745 59.377315 
L 321.333446 59.377315 
L 321.448648 58.856736 
L 395.35064 58.856736 
L 395.465842 59.897894 
L 398.042175 59.897894 
L 398.157376 58.856736 
L 398.487273 58.856736 
L 398.487273 58.856736 
" clip-path="url(#p4a5e275cbe)" style="fill: none; stroke: #ff7f0e; stroke-width: 1.5; stroke-linecap: square"/>
   </g>
   <g id="line2d_16">
    <path d="M 73.832727 51.828919 
L 73.837964 51.828919 
L 73.995057 61.71992 
L 74.000294 61.372867 
L 74.052658 63.802236 
L 74.073604 63.455183 
L 74.230697 77.33729 
L 74.246407 76.643185 
L 74.251643 76.643185 
L 74.4035 84.972448 
L 74.429682 84.625396 
L 74.471574 86.707712 
L 74.487283 86.49948 
L 74.618194 90.664112 
L 74.65485 90.664112 
L 74.780524 94.134639 
L 74.827652 94.134639 
L 74.916672 93.440533 
L 74.921908 94.481691 
L 74.932381 94.481691 
L 75.05282 96.91106 
L 75.068529 96.91106 
L 75.183731 98.038981 
L 75.241332 98.038981 
L 75.356534 99.080139 
L 75.377479 99.080139 
L 75.492681 100.815403 
L 75.503154 100.815403 
L 75.618356 100.46835 
L 75.75974 100.46835 
L 75.84876 102.550666 
L 75.874942 102.203613 
L 75.99538 102.203613 
L 76.110582 101.509508 
L 76.241493 105.67414 
L 76.267676 105.67414 
L 76.304331 105.41385 
L 76.309567 106.455008 
L 76.361932 106.455008 
L 76.430006 106.455008 
L 76.545207 106.194719 
L 76.634227 106.194719 
L 76.691828 107.235877 
L 76.744192 106.888824 
L 76.786084 106.888824 
L 76.875104 108.97114 
L 76.901286 108.624087 
L 77.037434 108.624087 
L 77.11598 110.706403 
L 77.152635 110.446114 
L 77.163108 110.446114 
L 77.27831 111.487272 
L 77.294019 111.487272 
L 77.393512 111.140219 
L 77.461586 112.181377 
L 77.503477 111.834325 
L 77.655334 111.834325 
L 77.770536 112.875483 
L 77.922393 112.875483 
L 77.964285 113.916641 
L 78.037595 113.708409 
L 78.079487 113.708409 
L 78.194689 113.361356 
L 78.383201 113.361356 
L 78.498403 114.402514 
L 78.550767 114.402514 
L 78.671205 113.795172 
L 78.995865 113.795172 
L 79.027284 113.448119 
L 79.03252 114.489277 
L 79.095358 114.281046 
L 79.205323 114.281046 
L 79.325761 116.363362 
L 79.875588 116.363362 
L 79.969844 116.016309 
L 79.975081 117.057467 
L 80.032682 117.057467 
L 80.147884 116.710415 
L 80.373051 116.710415 
L 80.430652 117.751572 
L 80.483016 117.40452 
L 80.5668 117.40452 
L 80.682001 118.445678 
L 80.791967 118.445678 
L 80.901932 118.098625 
L 80.975242 119.139783 
L 81.011898 118.79273 
L 81.970168 118.79273 
L 82.085369 119.833888 
L 82.902255 119.833888 
L 83.017457 120.875046 
L 83.185024 120.875046 
L 83.300225 120.666815 
L 83.457319 120.666815 
L 83.572521 121.707973 
L 83.818634 121.707973 
L 83.865762 122.749131 
L 83.928599 122.141789 
L 84.080456 122.141789 
L 84.195658 121.794736 
L 84.666938 121.794736 
L 84.78214 122.835894 
L 85.750883 122.835894 
L 85.866085 123.877052 
L 85.996996 123.877052 
L 86.112198 123.616763 
L 86.30071 123.616763 
L 86.415912 124.65792 
L 86.824355 124.65792 
L 86.908138 125.699078 
L 86.939557 125.490847 
L 87.468438 125.490847 
L 87.58364 125.143794 
L 87.719788 125.143794 
L 87.740733 124.796742 
L 87.74597 125.8379 
L 87.81928 125.8379 
L 89.159811 125.8379 
L 89.285486 128.961374 
L 89.521126 128.961374 
L 89.636328 130.002532 
L 89.997643 130.002532 
L 90.118081 132.084847 
L 91.521449 132.084847 
L 91.636651 133.126005 
L 92.018912 133.126005 
L 92.134113 132.778953 
L 95.223618 132.778953 
L 95.33882 132.4319 
L 103.670009 132.4319 
L 103.78521 133.473058 
L 104.680643 133.473058 
L 104.795845 134.514216 
L 106.701912 134.514216 
L 106.817114 135.555374 
L 107.288394 135.555374 
L 107.403596 135.208321 
L 108.079098 135.208321 
L 108.1943 134.861269 
L 110.199859 134.861269 
L 110.315061 135.902427 
L 113.236999 135.902427 
L 113.352201 135.694195 
L 113.61926 135.694195 
L 113.734462 136.735353 
L 116.446942 136.735353 
L 116.562144 137.776511 
L 118.641014 137.776511 
L 118.756215 137.429459 
L 120.007727 137.429459 
L 120.122928 138.470616 
L 122.17038 138.470616 
L 122.285581 138.262385 
L 122.898246 138.262385 
L 123.013448 139.303543 
L 125.375086 139.303543 
L 125.490288 140.344701 
L 125.757347 140.344701 
L 125.872548 141.385859 
L 126.38572 141.385859 
L 126.500922 141.038806 
L 127.862399 141.038806 
L 127.977601 142.079964 
L 128.579792 142.079964 
L 128.694994 141.732912 
L 128.87827 141.732912 
L 128.993472 141.472622 
L 131.187543 141.472622 
L 131.302745 142.51378 
L 132.166759 142.51378 
L 132.281961 142.166727 
L 136.21977 142.166727 
L 136.340208 144.249043 
L 137.377025 144.249043 
L 137.492227 143.988754 
L 147.860394 143.988754 
L 147.975596 143.641701 
L 149.064777 143.641701 
L 149.179979 144.682859 
L 154.887707 144.682859 
L 155.002909 144.335807 
L 158.490384 144.335807 
L 158.605585 145.376964 
L 171.010731 145.376964 
L 171.125933 146.418122 
L 174.199728 146.418122 
L 174.31493 147.45928 
L 192.391149 147.45928 
L 192.50635 147.198991 
L 202.884991 147.198991 
L 203.000192 148.240149 
L 206.739016 148.240149 
L 206.854218 149.281307 
L 213.158902 149.281307 
L 213.274104 148.934254 
L 217.416134 148.934254 
L 217.531336 149.975412 
L 217.903124 149.975412 
L 218.018326 149.62836 
L 218.384877 149.62836 
L 218.500079 149.281307 
L 220.631313 149.281307 
L 220.746515 150.322465 
L 222.013735 150.322465 
L 222.128937 149.975412 
L 249.05999 149.975412 
L 249.175192 149.767181 
L 249.353231 149.767181 
L 249.468433 150.808339 
L 259.229172 150.808339 
L 259.344374 151.849497 
L 260.548757 151.849497 
L 260.663959 151.641265 
L 266.266958 151.641265 
L 266.38216 152.682423 
L 267.97404 152.682423 
L 268.089242 152.33537 
L 270.649865 152.33537 
L 270.765067 152.075081 
L 279.583246 152.075081 
L 279.698448 151.728028 
L 281.332219 151.728028 
L 281.447421 152.769186 
L 283.332543 152.769186 
L 283.447745 153.810344 
L 289.05598 153.810344 
L 289.171182 154.851502 
L 293.0671 154.851502 
L 293.182302 154.50445 
L 321.333446 154.50445 
L 321.448648 155.545608 
L 360.496842 155.545608 
L 360.612044 156.586766 
L 366.890545 156.586766 
L 367.005747 156.239713 
L 395.35064 156.239713 
L 395.465842 155.89266 
L 398.042175 155.89266 
L 398.157376 156.933818 
L 398.487273 156.933818 
L 398.487273 156.933818 
" clip-path="url(#p4a5e275cbe)" style="fill: none; stroke: #2ca02c; stroke-width: 1.5; stroke-linecap: square"/>
   </g>
   <g id="line2d_17">
    <path d="M 73.832727 52.175972 
L 73.921747 52.175972 
L 73.937456 53.21713 
L 74.031712 52.436261 
L 75.073765 52.436261 
L 75.188967 52.175972 
L 76.267676 52.175972 
L 76.382877 51.915682 
L 76.430006 51.915682 
L 76.545207 51.655393 
L 77.11598 51.655393 
L 77.231182 51.395103 
L 77.964285 51.395103 
L 78.079487 51.186872 
L 78.550767 51.186872 
L 78.665969 50.926582 
L 79.090121 50.926582 
L 79.205323 50.718351 
L 83.185024 50.718351 
L 83.300225 50.510119 
L 83.865762 50.510119 
L 83.980964 50.249829 
L 85.996996 50.249829 
L 86.112198 49.98954 
L 86.908138 49.98954 
L 87.02334 49.781308 
L 89.950515 49.781308 
L 90.065716 49.521019 
L 113.236999 49.521019 
L 113.352201 49.312787 
L 122.17038 49.312787 
L 122.285581 49.104556 
L 128.87827 49.104556 
L 128.993472 48.844266 
L 137.377025 48.844266 
L 137.492227 48.583977 
L 192.391149 48.583977 
L 192.50635 48.323687 
L 249.05999 48.323687 
L 249.175192 48.115456 
L 260.548757 48.115456 
L 260.663959 47.907224 
L 270.649865 47.907224 
L 270.765067 47.646935 
L 398.487273 47.646935 
L 398.487273 47.646935 
" clip-path="url(#p4a5e275cbe)" style="fill: none; stroke: #d62728; stroke-width: 1.5; stroke-linecap: square"/>
   </g>
   <g id="line2d_18">
    <path d="M 73.832727 51.828919 
L 73.837964 51.828919 
L 73.963638 56.687656 
L 73.968875 56.340604 
L 73.974111 56.340604 
L 73.984584 55.993551 
L 73.995057 58.075867 
L 74.063131 57.728814 
L 74.073604 57.728814 
L 74.157387 59.464078 
L 74.188806 59.117025 
L 74.194042 59.117025 
L 74.272589 58.42292 
L 74.225461 59.81113 
L 74.304008 59.117025 
L 74.4035 63.281657 
L 74.429682 62.934604 
L 74.471574 62.934604 
L 74.576303 62.37932 
L 74.665323 63.767531 
L 74.691505 63.420478 
L 74.701978 63.420478 
L 74.749106 64.461636 
L 74.811943 64.114583 
L 74.827652 64.114583 
L 74.948091 63.420478 
L 74.953327 63.420478 
L 75.073765 62.726373 
L 75.079002 62.726373 
L 75.168022 62.032267 
L 75.173258 63.073425 
L 75.183731 63.073425 
L 75.377479 63.073425 
L 75.429844 64.114583 
L 75.487445 63.767531 
L 75.503154 63.767531 
L 75.618356 63.420478 
L 75.75974 63.420478 
L 75.84876 64.461636 
L 75.869706 64.114583 
L 75.99538 64.114583 
L 76.115819 63.420478 
L 76.142001 63.420478 
L 76.257203 64.461636 
L 76.634227 64.461636 
L 76.691828 65.502794 
L 76.744192 65.155741 
L 76.875104 65.155741 
L 76.990305 64.808689 
L 77.163108 64.808689 
L 77.27831 65.849847 
L 77.294019 65.849847 
L 77.409221 65.502794 
L 77.461586 65.502794 
L 77.576788 65.155741 
L 77.655334 65.155741 
L 77.770536 66.196899 
L 78.079487 66.196899 
L 78.194689 65.849847 
L 78.383201 65.849847 
L 78.498403 66.891005 
L 78.645023 66.891005 
L 78.760225 66.543952 
L 78.995865 66.543952 
L 79.027284 66.196899 
L 79.03252 67.238057 
L 79.095358 67.238057 
L 79.875588 67.238057 
L 79.969844 66.891005 
L 79.975081 67.932163 
L 80.032682 67.932163 
L 80.147884 67.58511 
L 80.430652 67.58511 
L 80.545854 67.238057 
L 80.791967 67.238057 
L 80.907169 66.891005 
L 80.975242 66.891005 
L 81.090444 66.543952 
L 83.457319 66.543952 
L 83.572521 67.58511 
L 83.91289 67.58511 
L 84.028092 67.238057 
L 84.080456 67.238057 
L 84.195658 66.891005 
L 84.666938 66.891005 
L 84.78214 67.932163 
L 85.750883 67.932163 
L 85.866085 68.973321 
L 87.468438 68.973321 
L 87.58364 68.626268 
L 87.719788 68.626268 
L 87.834989 68.279215 
L 92.018912 68.279215 
L 92.134113 67.932163 
L 95.223618 67.932163 
L 95.33882 67.58511 
L 103.670009 67.58511 
L 103.78521 68.626268 
L 107.288394 68.626268 
L 107.403596 68.279215 
L 108.079098 68.279215 
L 108.1943 67.932163 
L 118.641014 67.932163 
L 118.756215 67.58511 
L 120.007727 67.58511 
L 120.122928 68.626268 
L 125.375086 68.626268 
L 125.490288 69.667426 
L 126.38572 69.667426 
L 126.500922 69.320373 
L 128.579792 69.320373 
L 128.694994 68.973321 
L 131.187543 68.973321 
L 131.302745 70.014479 
L 132.166759 70.014479 
L 132.281961 69.667426 
L 147.860394 69.667426 
L 147.975596 69.320373 
L 206.739016 69.320373 
L 206.854218 70.361531 
L 213.158902 70.361531 
L 213.274104 70.014479 
L 217.416134 70.014479 
L 217.531336 71.055637 
L 217.903124 71.055637 
L 218.018326 70.708584 
L 218.384877 70.708584 
L 218.500079 70.361531 
L 222.013735 70.361531 
L 222.128937 70.014479 
L 259.229172 70.014479 
L 259.344374 71.055637 
L 266.266958 71.055637 
L 266.38216 72.096795 
L 267.97404 72.096795 
L 268.089242 71.749742 
L 279.583246 71.749742 
L 279.698448 71.402689 
L 293.0671 71.402689 
L 293.182302 71.055637 
L 321.333446 71.055637 
L 321.448648 72.096795 
L 366.890545 72.096795 
L 367.005747 71.749742 
L 398.487273 71.749742 
L 398.487273 71.749742 
" clip-path="url(#p4a5e275cbe)" style="fill: none; stroke: #9467bd; stroke-width: 1.5; stroke-linecap: square"/>
   </g>
   <g id="line2d_19">
    <path d="M 73.832727 52.175972 
L 73.848437 52.175972 
L 73.963638 51.56863 
L 73.979348 51.56863 
L 74.09455 51.30834 
L 74.471574 51.30834 
L 74.586776 51.100109 
L 76.225784 51.100109 
L 76.340986 50.839819 
L 78.425092 50.839819 
L 78.540294 50.492766 
L 154.887707 50.492766 
L 155.002909 50.145714 
L 395.35064 50.145714 
L 395.465842 49.798661 
L 398.487273 49.798661 
L 398.487273 49.798661 
" clip-path="url(#p4a5e275cbe)" style="fill: none; stroke: #8c564b; stroke-width: 1.5; stroke-linecap: square"/>
   </g>
   <g id="line2d_20">
    <path d="M 73.832727 52.175972 
L 73.837964 51.828919 
L 73.864146 55.993551 
L 73.885092 55.993551 
L 73.890328 55.993551 
L 74.016003 63.021367 
L 74.031712 62.761078 
L 74.052658 62.761078 
L 74.194042 69.008026 
L 74.220224 69.008026 
L 74.345899 72.1315 
L 74.361609 72.1315 
L 74.49252 76.296132 
L 74.539648 76.296132 
L 74.660086 78.378448 
L 74.754342 78.378448 
L 74.869544 79.419606 
L 74.932381 79.419606 
L 75.047583 80.460764 
L 75.073765 80.460764 
L 75.168022 80.200474 
L 75.283223 81.241632 
L 75.377479 81.241632 
L 75.492681 82.28279 
L 76.110582 82.28279 
L 76.236257 85.406264 
L 76.267676 85.406264 
L 76.382877 85.145975 
L 76.430006 85.145975 
L 76.545207 84.885685 
L 76.786084 84.885685 
L 76.901286 85.926843 
L 77.11598 85.926843 
L 77.231182 85.666554 
L 77.393512 85.666554 
L 77.508714 86.707712 
L 77.964285 86.707712 
L 78.079487 86.49948 
L 78.425092 86.49948 
L 78.540294 87.540638 
L 78.550767 87.540638 
L 78.665969 87.280349 
L 79.090121 87.280349 
L 79.205323 87.072117 
L 79.304816 87.072117 
L 79.420017 88.113275 
L 80.901932 88.113275 
L 81.017134 89.154433 
L 82.902255 89.154433 
L 83.017457 90.195591 
L 83.185024 90.195591 
L 83.300225 89.987359 
L 83.865762 89.987359 
L 83.980964 89.72707 
L 85.996996 89.72707 
L 86.080779 89.46678 
L 86.086016 90.507938 
L 86.091252 90.507938 
L 86.824355 90.507938 
L 86.908138 91.549096 
L 86.939557 91.340865 
L 89.159811 91.340865 
L 89.280249 93.423181 
L 89.950515 93.423181 
L 90.065716 93.162891 
L 90.102372 93.162891 
L 90.217573 94.204049 
L 106.701912 94.204049 
L 106.817114 95.245207 
L 113.236999 95.245207 
L 113.352201 95.036976 
L 113.61926 95.036976 
L 113.734462 96.078134 
L 120.007727 96.078134 
L 120.122928 97.119292 
L 122.17038 97.119292 
L 122.285581 96.91106 
L 125.757347 96.91106 
L 125.872548 97.952218 
L 128.87827 97.952218 
L 128.993472 97.691929 
L 136.225006 97.691929 
L 136.340208 98.733087 
L 137.377025 98.733087 
L 137.492227 98.472797 
L 149.064777 98.472797 
L 149.179979 99.513955 
L 154.887707 99.513955 
L 155.002909 100.555113 
L 171.010731 100.555113 
L 171.125933 101.596271 
L 192.391149 101.596271 
L 192.50635 101.335982 
L 249.05999 101.335982 
L 249.175192 101.12775 
L 249.353231 101.12775 
L 249.468433 102.168908 
L 260.548757 102.168908 
L 260.663959 101.960676 
L 270.649865 101.960676 
L 270.765067 101.700387 
L 283.332543 101.700387 
L 283.447745 102.741545 
L 395.35064 102.741545 
L 395.465842 103.782703 
L 398.042175 103.782703 
L 398.157376 104.823861 
L 398.487273 104.823861 
L 398.487273 104.823861 
" clip-path="url(#p4a5e275cbe)" style="fill: none; stroke: #e377c2; stroke-width: 1.5; stroke-linecap: square"/>
   </g>
   <g id="line2d_21">
    <path d="M 73.832727 52.175972 
L 73.837964 52.175972 
L 73.963638 50.874524 
L 73.979348 50.874524 
L 74.09455 50.614235 
L 74.471574 50.614235 
L 74.586776 50.406003 
L 76.225784 50.406003 
L 76.340986 50.145714 
L 78.425092 50.145714 
L 78.540294 49.798661 
L 154.887707 49.798661 
L 155.002909 49.451608 
L 395.35064 49.451608 
L 395.465842 49.104556 
L 398.487273 49.104556 
L 398.487273 49.104556 
" clip-path="url(#p4a5e275cbe)" style="fill: none; stroke: #7f7f7f; stroke-width: 1.5; stroke-linecap: square"/>
   </g>
   <g id="line2d_22">
    <path d="M 73.832727 52.175972 
L 73.848437 51.828919 
L 73.864146 54.952393 
L 73.890328 54.60534 
L 73.942693 58.943499 
L 74.016003 58.336157 
L 74.052658 57.728814 
L 74.057895 58.769972 
L 74.110259 58.249393 
L 74.235934 61.893446 
L 74.251643 61.893446 
L 74.298771 60.852288 
L 74.361609 61.893446 
L 74.482047 64.496341 
L 74.487283 64.496341 
L 74.539648 63.975762 
L 74.581539 65.537499 
L 74.586776 65.537499 
L 74.602485 65.537499 
L 74.733396 64.149289 
L 74.754342 64.149289 
L 74.869544 65.190447 
L 74.916672 65.190447 
L 74.932381 64.669868 
L 74.937618 65.711026 
L 75.021401 65.711026 
L 75.026637 65.711026 
L 75.152312 63.888999 
L 75.168022 63.888999 
L 75.241332 64.930157 
L 75.277987 64.409578 
L 75.377479 64.409578 
L 75.456026 65.450736 
L 75.487445 64.930157 
L 75.801632 64.930157 
L 75.916834 64.409578 
L 76.110582 64.409578 
L 76.231021 67.012473 
L 76.267676 67.012473 
L 76.39335 66.231605 
L 76.430006 66.231605 
L 76.545207 65.971315 
L 76.786084 65.971315 
L 76.801793 67.012473 
L 76.896049 66.491894 
L 77.037434 66.491894 
L 77.157872 65.190447 
L 77.393512 65.190447 
L 77.508714 66.231605 
L 77.922393 66.231605 
L 78.037595 65.502794 
L 78.425092 65.502794 
L 78.540294 66.543952 
L 78.550767 66.543952 
L 78.665969 66.283663 
L 79.090121 66.283663 
L 79.215796 65.554852 
L 79.304816 65.554852 
L 79.420017 66.59601 
L 80.373051 66.59601 
L 80.488253 66.075431 
L 80.5668 66.075431 
L 80.682001 65.554852 
L 80.901932 65.554852 
L 81.017134 66.59601 
L 81.970168 66.59601 
L 82.085369 66.075431 
L 82.902255 66.075431 
L 83.017457 67.116589 
L 83.185024 67.116589 
L 83.300225 66.908357 
L 83.818634 66.908357 
L 83.933836 66.301015 
L 85.996996 66.301015 
L 86.080779 66.040726 
L 86.086016 67.081884 
L 86.091252 67.081884 
L 86.30071 67.081884 
L 86.415912 66.561305 
L 86.824355 66.561305 
L 86.908138 67.602463 
L 86.939557 67.394231 
L 87.740733 67.394231 
L 87.855935 66.873652 
L 89.159811 66.873652 
L 89.26454 68.955968 
L 89.275013 68.435389 
L 89.521126 68.435389 
L 89.636328 67.91481 
L 89.950515 67.91481 
L 90.076189 67.133942 
L 90.102372 67.133942 
L 90.217573 68.1751 
L 91.521449 68.1751 
L 91.636651 67.654521 
L 104.680643 67.654521 
L 104.795845 67.133942 
L 106.701912 67.133942 
L 106.817114 68.1751 
L 110.199859 68.1751 
L 110.315061 67.654521 
L 113.236999 67.654521 
L 113.352201 67.446289 
L 113.61926 67.446289 
L 113.734462 68.487447 
L 116.446942 68.487447 
L 116.562144 67.966868 
L 120.007727 67.966868 
L 120.122928 69.008026 
L 122.17038 69.008026 
L 122.285581 68.799794 
L 122.898246 68.799794 
L 123.013448 68.279215 
L 125.757347 68.279215 
L 125.872548 69.320373 
L 127.862399 69.320373 
L 127.977601 68.799794 
L 128.87827 68.799794 
L 128.993472 68.539505 
L 136.21977 68.539505 
L 136.225006 68.018926 
L 136.230243 69.060084 
L 136.324499 69.060084 
L 137.377025 69.060084 
L 137.492227 68.799794 
L 149.064777 68.799794 
L 149.179979 69.840952 
L 154.887707 69.840952 
L 155.002909 70.88211 
L 158.490384 70.88211 
L 158.605585 70.361531 
L 171.010731 70.361531 
L 171.125933 71.402689 
L 174.199728 71.402689 
L 174.31493 70.88211 
L 192.391149 70.88211 
L 192.50635 70.621821 
L 202.884991 70.621821 
L 203.000192 70.101242 
L 220.631313 70.101242 
L 220.746515 69.580663 
L 249.05999 69.580663 
L 249.175192 69.372431 
L 249.353231 69.372431 
L 249.468433 70.413589 
L 260.548757 70.413589 
L 260.663959 70.205358 
L 270.649865 70.205358 
L 270.765067 69.945068 
L 281.332219 69.945068 
L 281.447421 69.424489 
L 283.332543 69.424489 
L 283.447745 70.465647 
L 289.05598 70.465647 
L 289.171182 69.945068 
L 360.496842 69.945068 
L 360.612044 69.424489 
L 395.35064 69.424489 
L 395.465842 70.465647 
L 398.042175 70.465647 
L 398.157376 71.506805 
L 398.487273 71.506805 
L 398.487273 71.506805 
" clip-path="url(#p4a5e275cbe)" style="fill: none; stroke: #bcbd22; stroke-width: 1.5; stroke-linecap: square"/>
   </g>
   <g id="line2d_23">
    <path d="M 73.832727 53.21713 
L 73.890328 52.349498 
L 73.91651 54.60534 
L 73.926983 54.258288 
L 73.93222 54.258288 
L 74.063131 58.249393 
L 74.073604 58.249393 
L 74.131205 57.728814 
L 74.089313 59.81113 
L 74.178333 58.769972 
L 74.194042 58.769972 
L 74.225461 58.249393 
L 74.324953 63.455183 
L 74.335426 63.455183 
L 74.4035 61.893446 
L 74.450628 62.934604 
L 74.466337 62.934604 
L 74.471574 62.414025 
L 74.56583 63.975762 
L 74.571066 63.455183 
L 74.576303 63.455183 
L 74.586776 62.934604 
L 74.597249 65.01692 
L 74.665323 64.149289 
L 74.780524 65.190447 
L 74.827652 65.190447 
L 74.916672 67.272763 
L 74.942854 66.752184 
L 74.953327 66.752184 
L 75.026637 68.8345 
L 75.068529 67.793342 
L 75.079002 67.272763 
L 75.162785 69.355079 
L 75.168022 69.355079 
L 75.28846 68.313921 
L 75.377479 68.313921 
L 75.429844 67.966868 
L 75.43508 69.008026 
L 75.482208 68.487447 
L 75.503154 68.487447 
L 75.618356 69.528605 
L 75.75974 69.528605 
L 75.84876 68.487447 
L 75.869706 69.528605 
L 75.99538 69.528605 
L 76.115819 71.610921 
L 76.199602 71.610921 
L 76.32004 70.309473 
L 76.634227 70.309473 
L 76.691828 69.788894 
L 76.697064 70.830052 
L 76.738956 70.830052 
L 76.801793 70.830052 
L 76.875104 70.309473 
L 76.88034 71.350631 
L 76.906522 71.350631 
L 77.037434 71.350631 
L 77.157872 70.309473 
L 77.163108 70.309473 
L 77.27831 69.788894 
L 77.294019 69.788894 
L 77.409221 70.830052 
L 77.461586 70.830052 
L 77.576788 71.87121 
L 77.655334 71.87121 
L 77.770536 71.350631 
L 77.922393 71.350631 
L 78.037595 70.830052 
L 78.079487 70.830052 
L 78.194689 71.87121 
L 78.383201 71.87121 
L 78.498403 71.003579 
L 78.645023 71.003579 
L 78.760225 72.044737 
L 78.995865 72.044737 
L 79.027284 73.085895 
L 79.105831 72.565316 
L 79.205323 72.565316 
L 79.320525 72.044737 
L 79.875588 72.044737 
L 79.969844 73.085895 
L 79.985554 72.565316 
L 80.032682 72.565316 
L 80.147884 73.606474 
L 80.373051 73.606474 
L 80.430652 73.085895 
L 80.435888 74.127053 
L 80.47778 74.127053 
L 80.5668 74.127053 
L 80.682001 73.606474 
L 80.791967 73.606474 
L 80.907169 74.647632 
L 80.975242 74.647632 
L 81.090444 75.68879 
L 81.970168 75.68879 
L 82.085369 75.168211 
L 83.457319 75.168211 
L 83.572521 74.647632 
L 83.818634 74.647632 
L 83.91289 74.300579 
L 83.918126 75.341737 
L 84.080456 75.341737 
L 84.195658 76.382895 
L 84.666938 76.382895 
L 84.78214 75.862316 
L 85.750883 75.862316 
L 85.866085 75.341737 
L 86.080779 75.341737 
L 86.195981 76.382895 
L 86.30071 76.382895 
L 86.415912 75.862316 
L 87.468438 75.862316 
L 87.58364 76.903474 
L 87.719788 76.903474 
L 87.740733 77.944632 
L 87.829753 77.424053 
L 89.26454 77.424053 
L 89.379742 76.903474 
L 89.521126 76.903474 
L 89.636328 76.382895 
L 89.950515 76.382895 
L 90.076189 75.602027 
L 91.521449 75.602027 
L 91.636651 75.081448 
L 92.018912 75.081448 
L 92.134113 76.122606 
L 95.223618 76.122606 
L 95.33882 77.163764 
L 103.670009 77.163764 
L 103.78521 76.643185 
L 104.680643 76.643185 
L 104.795845 76.122606 
L 107.288394 76.122606 
L 107.403596 77.163764 
L 108.079098 77.163764 
L 108.1943 78.204922 
L 110.199859 78.204922 
L 110.315061 77.684343 
L 116.446942 77.684343 
L 116.562144 77.163764 
L 118.641014 77.163764 
L 118.756215 78.204922 
L 120.007727 78.204922 
L 120.122928 77.684343 
L 122.898246 77.684343 
L 123.013448 77.163764 
L 125.375086 77.163764 
L 125.490288 76.643185 
L 126.38572 76.643185 
L 126.500922 77.684343 
L 127.862399 77.684343 
L 127.977601 77.163764 
L 128.579792 77.163764 
L 128.694994 78.204922 
L 131.187543 78.204922 
L 131.302745 77.684343 
L 132.166759 77.684343 
L 132.281961 78.725501 
L 136.21977 78.725501 
L 136.334972 78.204922 
L 147.860394 78.204922 
L 147.975596 79.24608 
L 154.887707 79.24608 
L 155.002909 80.287237 
L 158.490384 80.287237 
L 158.605585 79.766658 
L 174.199728 79.766658 
L 174.31493 79.24608 
L 202.884991 79.24608 
L 203.000192 78.725501 
L 206.739016 78.725501 
L 206.854218 78.204922 
L 213.158902 78.204922 
L 213.274104 79.24608 
L 217.416134 79.24608 
L 217.531336 78.725501 
L 217.903124 78.725501 
L 218.018326 79.766658 
L 218.384877 79.766658 
L 218.500079 80.807816 
L 220.631313 80.807816 
L 220.746515 80.287237 
L 222.013735 80.287237 
L 222.128937 81.328395 
L 259.229172 81.328395 
L 259.344374 80.807816 
L 266.266958 80.807816 
L 266.38216 80.287237 
L 267.97404 80.287237 
L 268.089242 81.328395 
L 279.583246 81.328395 
L 279.698448 82.369553 
L 281.332219 82.369553 
L 281.447421 81.848974 
L 289.05598 81.848974 
L 289.171182 81.328395 
L 293.0671 81.328395 
L 293.182302 82.369553 
L 321.333446 82.369553 
L 321.448648 81.848974 
L 360.496842 81.848974 
L 360.612044 81.328395 
L 366.890545 81.328395 
L 367.005747 82.369553 
L 398.487273 82.369553 
L 398.487273 82.369553 
" clip-path="url(#p4a5e275cbe)" style="fill: none; stroke: #17becf; stroke-width: 1.5; stroke-linecap: square"/>
   </g>
   <g id="line2d_24">
    <path d="M 73.832727 52.175972 
L 73.848437 52.175972 
L 73.968875 54.258288 
L 73.979348 54.258288 
L 74.09455 55.299446 
L 74.471574 55.299446 
L 74.586776 56.340604 
L 76.225784 56.340604 
L 76.340986 57.381762 
L 78.425092 57.381762 
L 78.540294 58.42292 
L 154.887707 58.42292 
L 155.002909 59.464078 
L 395.35064 59.464078 
L 395.465842 60.505236 
L 398.487273 60.505236 
L 398.487273 60.505236 
" clip-path="url(#p4a5e275cbe)" style="fill: none; stroke: #1f77b4; stroke-width: 1.5; stroke-linecap: square"/>
   </g>
   <g id="line2d_25">
    <path d="M 73.832727 52.175972 
L 73.864146 53.911235 
L 73.911274 51.481866 
L 73.937456 51.481866 
L 74.016003 51.481866 
L 74.131205 52.523024 
L 74.152151 52.523024 
L 74.267352 53.564182 
L 74.434919 53.564182 
L 74.550121 52.523024 
L 74.618194 52.523024 
L 74.733396 52.002445 
L 75.131366 52.002445 
L 75.246568 50.961287 
L 75.723085 50.961287 
L 75.838287 49.920129 
L 83.818634 49.920129 
L 83.933836 49.573077 
L 89.217412 49.573077 
L 89.332614 48.531919 
L 102.596537 48.531919 
L 102.711739 47.490761 
L 202.937355 47.490761 
L 203.052557 46.970182 
L 398.487273 46.970182 
L 398.487273 46.970182 
" clip-path="url(#p4a5e275cbe)" style="fill: none; stroke: #ff7f0e; stroke-width: 1.5; stroke-linecap: square"/>
   </g>
   <g id="patch_3">
    <path d="M 57.6 162.432 
L 57.6 41.472 
" style="fill: none; stroke: #000000; stroke-width: 0.8; stroke-linejoin: miter; stroke-linecap: square"/>
   </g>
   <g id="patch_4">
    <path d="M 414.72 162.432 
L 414.72 41.472 
" style="fill: none; stroke: #000000; stroke-width: 0.8; stroke-linejoin: miter; stroke-linecap: square"/>
   </g>
   <g id="patch_5">
    <path d="M 57.6 162.432 
L 414.72 162.432 
" style="fill: none; stroke: #000000; stroke-width: 0.8; stroke-linejoin: miter; stroke-linecap: square"/>
   </g>
   <g id="patch_6">
    <path d="M 57.6 41.472 
L 414.72 41.472 
" style="fill: none; stroke: #000000; stroke-width: 0.8; stroke-linejoin: miter; stroke-linecap: square"/>
   </g>
   <g id="text_14">
    <!-- WSP -->
    <g transform="translate(361.832136 81.970443)scale(0.08 -0.08)">
     <defs>
      <path id="DejaVuSans-57" d="M 213 4666 
L 850 4666 
L 1831 722 
L 2809 4666 
L 3519 4666 
L 4500 722 
L 5478 4666 
L 6119 4666 
L 4947 0 
L 4153 0 
L 3169 4050 
L 2175 0 
L 1381 0 
L 213 4666 
z
" transform="scale(0.015625)"/>
      <path id="DejaVuSans-53" d="M 3425 4513 
L 3425 3897 
Q 3066 4069 2747 4153 
Q 2428 4238 2131 4238 
Q 1616 4238 1336 4038 
Q 1056 3838 1056 3469 
Q 1056 3159 1242 3001 
Q 1428 2844 1947 2747 
L 2328 2669 
Q 3034 2534 3370 2195 
Q 3706 1856 3706 1288 
Q 3706 609 3251 259 
Q 2797 -91 1919 -91 
Q 1588 -91 1214 -16 
Q 841 59 441 206 
L 441 856 
Q 825 641 1194 531 
Q 1563 422 1919 422 
Q 2459 422 2753 634 
Q 3047 847 3047 1241 
Q 3047 1584 2836 1778 
Q 2625 1972 2144 2069 
L 1759 2144 
Q 1053 2284 737 2584 
Q 422 2884 422 3419 
Q 422 4038 858 4394 
Q 1294 4750 2059 4750 
Q 2388 4750 2728 4690 
Q 3069 4631 3425 4513 
z
" transform="scale(0.015625)"/>
      <path id="DejaVuSans-50" d="M 1259 4147 
L 1259 2394 
L 2053 2394 
Q 2494 2394 2734 2622 
Q 2975 2850 2975 3272 
Q 2975 3691 2734 3919 
Q 2494 4147 2053 4147 
L 1259 4147 
z
M 628 4666 
L 2053 4666 
Q 2838 4666 3239 4311 
Q 3641 3956 3641 3272 
Q 3641 2581 3239 2228 
Q 2838 1875 2053 1875 
L 1259 1875 
L 1259 0 
L 628 0 
L 628 4666 
z
" transform="scale(0.015625)"/>
     </defs>
     <use xlink:href="#DejaVuSans-57"/>
     <use xlink:href="#DejaVuSans-53" x="98.876953"/>
     <use xlink:href="#DejaVuSans-50" x="162.353516"/>
    </g>
   </g>
   <g id="text_15">
    <!-- Iambic -->
    <g transform="translate(361.832136 58.856736)scale(0.08 -0.08)">
     <defs>
      <path id="DejaVuSans-49" d="M 628 4666 
L 1259 4666 
L 1259 0 
L 628 0 
L 628 4666 
z
" transform="scale(0.015625)"/>
      <path id="DejaVuSans-61" d="M 2194 1759 
Q 1497 1759 1228 1600 
Q 959 1441 959 1056 
Q 959 750 1161 570 
Q 1363 391 1709 391 
Q 2188 391 2477 730 
Q 2766 1069 2766 1631 
L 2766 1759 
L 2194 1759 
z
M 3341 1997 
L 3341 0 
L 2766 0 
L 2766 531 
Q 2569 213 2275 61 
Q 1981 -91 1556 -91 
Q 1019 -91 701 211 
Q 384 513 384 1019 
Q 384 1609 779 1909 
Q 1175 2209 1959 2209 
L 2766 2209 
L 2766 2266 
Q 2766 2663 2505 2880 
Q 2244 3097 1772 3097 
Q 1472 3097 1187 3025 
Q 903 2953 641 2809 
L 641 3341 
Q 956 3463 1253 3523 
Q 1550 3584 1831 3584 
Q 2591 3584 2966 3190 
Q 3341 2797 3341 1997 
z
" transform="scale(0.015625)"/>
      <path id="DejaVuSans-6d" d="M 3328 2828 
Q 3544 3216 3844 3400 
Q 4144 3584 4550 3584 
Q 5097 3584 5394 3201 
Q 5691 2819 5691 2113 
L 5691 0 
L 5113 0 
L 5113 2094 
Q 5113 2597 4934 2840 
Q 4756 3084 4391 3084 
Q 3944 3084 3684 2787 
Q 3425 2491 3425 1978 
L 3425 0 
L 2847 0 
L 2847 2094 
Q 2847 2600 2669 2842 
Q 2491 3084 2119 3084 
Q 1678 3084 1418 2786 
Q 1159 2488 1159 1978 
L 1159 0 
L 581 0 
L 581 3500 
L 1159 3500 
L 1159 2956 
Q 1356 3278 1631 3431 
Q 1906 3584 2284 3584 
Q 2666 3584 2933 3390 
Q 3200 3197 3328 2828 
z
" transform="scale(0.015625)"/>
      <path id="DejaVuSans-62" d="M 3116 1747 
Q 3116 2381 2855 2742 
Q 2594 3103 2138 3103 
Q 1681 3103 1420 2742 
Q 1159 2381 1159 1747 
Q 1159 1113 1420 752 
Q 1681 391 2138 391 
Q 2594 391 2855 752 
Q 3116 1113 3116 1747 
z
M 1159 2969 
Q 1341 3281 1617 3432 
Q 1894 3584 2278 3584 
Q 2916 3584 3314 3078 
Q 3713 2572 3713 1747 
Q 3713 922 3314 415 
Q 2916 -91 2278 -91 
Q 1894 -91 1617 61 
Q 1341 213 1159 525 
L 1159 0 
L 581 0 
L 581 4863 
L 1159 4863 
L 1159 2969 
z
" transform="scale(0.015625)"/>
      <path id="DejaVuSans-69" d="M 603 3500 
L 1178 3500 
L 1178 0 
L 603 0 
L 603 3500 
z
M 603 4863 
L 1178 4863 
L 1178 4134 
L 603 4134 
L 603 4863 
z
" transform="scale(0.015625)"/>
      <path id="DejaVuSans-63" d="M 3122 3366 
L 3122 2828 
Q 2878 2963 2633 3030 
Q 2388 3097 2138 3097 
Q 1578 3097 1268 2742 
Q 959 2388 959 1747 
Q 959 1106 1268 751 
Q 1578 397 2138 397 
Q 2388 397 2633 464 
Q 2878 531 3122 666 
L 3122 134 
Q 2881 22 2623 -34 
Q 2366 -91 2075 -91 
Q 1284 -91 818 406 
Q 353 903 353 1747 
Q 353 2603 823 3093 
Q 1294 3584 2113 3584 
Q 2378 3584 2631 3529 
Q 2884 3475 3122 3366 
z
" transform="scale(0.015625)"/>
     </defs>
     <use xlink:href="#DejaVuSans-49"/>
     <use xlink:href="#DejaVuSans-61" x="29.492188"/>
     <use xlink:href="#DejaVuSans-6d" x="90.771484"/>
     <use xlink:href="#DejaVuSans-62" x="188.183594"/>
     <use xlink:href="#DejaVuSans-69" x="251.660156"/>
     <use xlink:href="#DejaVuSans-63" x="279.443359"/>
    </g>
   </g>
   <g id="text_16">
    <!-- Parse -->
    <g transform="translate(361.832136 156.933818)scale(0.08 -0.08)">
     <defs>
      <path id="DejaVuSans-72" d="M 2631 2963 
Q 2534 3019 2420 3045 
Q 2306 3072 2169 3072 
Q 1681 3072 1420 2755 
Q 1159 2438 1159 1844 
L 1159 0 
L 581 0 
L 581 3500 
L 1159 3500 
L 1159 2956 
Q 1341 3275 1631 3429 
Q 1922 3584 2338 3584 
Q 2397 3584 2469 3576 
Q 2541 3569 2628 3553 
L 2631 2963 
z
" transform="scale(0.015625)"/>
      <path id="DejaVuSans-73" d="M 2834 3397 
L 2834 2853 
Q 2591 2978 2328 3040 
Q 2066 3103 1784 3103 
Q 1356 3103 1142 2972 
Q 928 2841 928 2578 
Q 928 2378 1081 2264 
Q 1234 2150 1697 2047 
L 1894 2003 
Q 2506 1872 2764 1633 
Q 3022 1394 3022 966 
Q 3022 478 2636 193 
Q 2250 -91 1575 -91 
Q 1294 -91 989 -36 
Q 684 19 347 128 
L 347 722 
Q 666 556 975 473 
Q 1284 391 1588 391 
Q 1994 391 2212 530 
Q 2431 669 2431 922 
Q 2431 1156 2273 1281 
Q 2116 1406 1581 1522 
L 1381 1569 
Q 847 1681 609 1914 
Q 372 2147 372 2553 
Q 372 3047 722 3315 
Q 1072 3584 1716 3584 
Q 2034 3584 2315 3537 
Q 2597 3491 2834 3397 
z
" transform="scale(0.015625)"/>
      <path id="DejaVuSans-65" d="M 3597 1894 
L 3597 1613 
L 953 1613 
Q 991 1019 1311 708 
Q 1631 397 2203 397 
Q 2534 397 2845 478 
Q 3156 559 3463 722 
L 3463 178 
Q 3153 47 2828 -22 
Q 2503 -91 2169 -91 
Q 1331 -91 842 396 
Q 353 884 353 1716 
Q 353 2575 817 3079 
Q 1281 3584 2069 3584 
Q 2775 3584 3186 3129 
Q 3597 2675 3597 1894 
z
M 3022 2063 
Q 3016 2534 2758 2815 
Q 2500 3097 2075 3097 
Q 1594 3097 1305 2825 
Q 1016 2553 972 2059 
L 3022 2063 
z
" transform="scale(0.015625)"/>
     </defs>
     <use xlink:href="#DejaVuSans-50"/>
     <use xlink:href="#DejaVuSans-61" x="55.802734"/>
     <use xlink:href="#DejaVuSans-72" x="117.082031"/>
     <use xlink:href="#DejaVuSans-73" x="158.195312"/>
     <use xlink:href="#DejaVuSans-65" x="210.294922"/>
    </g>
   </g>
   <g id="text_17">
    <!-- FootBin -->
    <g transform="translate(361.832136 47.646935)scale(0.08 -0.08)">
     <defs>
      <path id="DejaVuSans-46" d="M 628 4666 
L 3309 4666 
L 3309 4134 
L 1259 4134 
L 1259 2759 
L 3109 2759 
L 3109 2228 
L 1259 2228 
L 1259 0 
L 628 0 
L 628 4666 
z
" transform="scale(0.015625)"/>
      <path id="DejaVuSans-6f" d="M 1959 3097 
Q 1497 3097 1228 2736 
Q 959 2375 959 1747 
Q 959 1119 1226 758 
Q 1494 397 1959 397 
Q 2419 397 2687 759 
Q 2956 1122 2956 1747 
Q 2956 2369 2687 2733 
Q 2419 3097 1959 3097 
z
M 1959 3584 
Q 2709 3584 3137 3096 
Q 3566 2609 3566 1747 
Q 3566 888 3137 398 
Q 2709 -91 1959 -91 
Q 1206 -91 779 398 
Q 353 888 353 1747 
Q 353 2609 779 3096 
Q 1206 3584 1959 3584 
z
" transform="scale(0.015625)"/>
      <path id="DejaVuSans-74" d="M 1172 4494 
L 1172 3500 
L 2356 3500 
L 2356 3053 
L 1172 3053 
L 1172 1153 
Q 1172 725 1289 603 
Q 1406 481 1766 481 
L 2356 481 
L 2356 0 
L 1766 0 
Q 1100 0 847 248 
Q 594 497 594 1153 
L 594 3053 
L 172 3053 
L 172 3500 
L 594 3500 
L 594 4494 
L 1172 4494 
z
" transform="scale(0.015625)"/>
      <path id="DejaVuSans-42" d="M 1259 2228 
L 1259 519 
L 2272 519 
Q 2781 519 3026 730 
Q 3272 941 3272 1375 
Q 3272 1813 3026 2020 
Q 2781 2228 2272 2228 
L 1259 2228 
z
M 1259 4147 
L 1259 2741 
L 2194 2741 
Q 2656 2741 2882 2914 
Q 3109 3088 3109 3444 
Q 3109 3797 2882 3972 
Q 2656 4147 2194 4147 
L 1259 4147 
z
M 628 4666 
L 2241 4666 
Q 2963 4666 3353 4366 
Q 3744 4066 3744 3513 
Q 3744 3084 3544 2831 
Q 3344 2578 2956 2516 
Q 3422 2416 3680 2098 
Q 3938 1781 3938 1306 
Q 3938 681 3513 340 
Q 3088 0 2303 0 
L 628 0 
L 628 4666 
z
" transform="scale(0.015625)"/>
      <path id="DejaVuSans-6e" d="M 3513 2113 
L 3513 0 
L 2938 0 
L 2938 2094 
Q 2938 2591 2744 2837 
Q 2550 3084 2163 3084 
Q 1697 3084 1428 2787 
Q 1159 2491 1159 1978 
L 1159 0 
L 581 0 
L 581 3500 
L 1159 3500 
L 1159 2956 
Q 1366 3272 1645 3428 
Q 1925 3584 2291 3584 
Q 2894 3584 3203 3211 
Q 3513 2838 3513 2113 
z
" transform="scale(0.015625)"/>
     </defs>
     <use xlink:href="#DejaVuSans-46"/>
     <use xlink:href="#DejaVuSans-6f" x="53.894531"/>
     <use xlink:href="#DejaVuSans-6f" x="115.076172"/>
     <use xlink:href="#DejaVuSans-74" x="176.257812"/>
     <use xlink:href="#DejaVuSans-42" x="215.466797"/>
     <use xlink:href="#DejaVuSans-69" x="284.070312"/>
     <use xlink:href="#DejaVuSans-6e" x="311.853516"/>
    </g>
   </g>
   <g id="text_18">
    <!-- WFL -->
    <g transform="translate(361.832136 71.749742)scale(0.08 -0.08)">
     <defs>
      <path id="DejaVuSans-4c" d="M 628 4666 
L 1259 4666 
L 1259 531 
L 3531 531 
L 3531 0 
L 628 0 
L 628 4666 
z
" transform="scale(0.015625)"/>
     </defs>
     <use xlink:href="#DejaVuSans-57"/>
     <use xlink:href="#DejaVuSans-46" x="98.876953"/>
     <use xlink:href="#DejaVuSans-4c" x="156.396484"/>
    </g>
   </g>
   <g id="text_19">
    <!-- WFR -->
    <g transform="translate(361.832136 49.798661)scale(0.08 -0.08)">
     <defs>
      <path id="DejaVuSans-52" d="M 2841 2188 
Q 3044 2119 3236 1894 
Q 3428 1669 3622 1275 
L 4263 0 
L 3584 0 
L 2988 1197 
Q 2756 1666 2539 1819 
Q 2322 1972 1947 1972 
L 1259 1972 
L 1259 0 
L 628 0 
L 628 4666 
L 2053 4666 
Q 2853 4666 3247 4331 
Q 3641 3997 3641 3322 
Q 3641 2881 3436 2590 
Q 3231 2300 2841 2188 
z
M 1259 4147 
L 1259 2491 
L 2053 2491 
Q 2509 2491 2742 2702 
Q 2975 2913 2975 3322 
Q 2975 3731 2742 3939 
Q 2509 4147 2053 4147 
L 1259 4147 
z
" transform="scale(0.015625)"/>
     </defs>
     <use xlink:href="#DejaVuSans-57"/>
     <use xlink:href="#DejaVuSans-46" x="98.876953"/>
     <use xlink:href="#DejaVuSans-52" x="156.396484"/>
    </g>
   </g>
   <g id="text_20">
    <!-- Main-L -->
    <g transform="translate(361.832136 104.823861)scale(0.08 -0.08)">
     <defs>
      <path id="DejaVuSans-4d" d="M 628 4666 
L 1569 4666 
L 2759 1491 
L 3956 4666 
L 4897 4666 
L 4897 0 
L 4281 0 
L 4281 4097 
L 3078 897 
L 2444 897 
L 1241 4097 
L 1241 0 
L 628 0 
L 628 4666 
z
" transform="scale(0.015625)"/>
      <path id="DejaVuSans-2d" d="M 313 2009 
L 1997 2009 
L 1997 1497 
L 313 1497 
L 313 2009 
z
" transform="scale(0.015625)"/>
     </defs>
     <use xlink:href="#DejaVuSans-4d"/>
     <use xlink:href="#DejaVuSans-61" x="86.279297"/>
     <use xlink:href="#DejaVuSans-69" x="147.558594"/>
     <use xlink:href="#DejaVuSans-6e" x="175.341797"/>
     <use xlink:href="#DejaVuSans-2d" x="238.720703"/>
     <use xlink:href="#DejaVuSans-4c" x="274.804688"/>
    </g>
   </g>
   <g id="text_21">
    <!-- Main-R -->
    <g transform="translate(361.832136 49.104556)scale(0.08 -0.08)">
     <use xlink:href="#DejaVuSans-4d"/>
     <use xlink:href="#DejaVuSans-61" x="86.279297"/>
     <use xlink:href="#DejaVuSans-69" x="147.558594"/>
     <use xlink:href="#DejaVuSans-6e" x="175.341797"/>
     <use xlink:href="#DejaVuSans-2d" x="238.720703"/>
     <use xlink:href="#DejaVuSans-52" x="274.804688"/>
    </g>
   </g>
   <g id="text_22">
    <!-- AFL -->
    <g transform="translate(361.832136 71.506805)scale(0.08 -0.08)">
     <defs>
      <path id="DejaVuSans-41" d="M 2188 4044 
L 1331 1722 
L 3047 1722 
L 2188 4044 
z
M 1831 4666 
L 2547 4666 
L 4325 0 
L 3669 0 
L 3244 1197 
L 1141 1197 
L 716 0 
L 50 0 
L 1831 4666 
z
" transform="scale(0.015625)"/>
     </defs>
     <use xlink:href="#DejaVuSans-41"/>
     <use xlink:href="#DejaVuSans-46" x="68.408203"/>
     <use xlink:href="#DejaVuSans-4c" x="125.927734"/>
    </g>
   </g>
   <g id="text_23">
    <!-- AFR -->
    <g transform="translate(361.832136 82.369553)scale(0.08 -0.08)">
     <use xlink:href="#DejaVuSans-41"/>
     <use xlink:href="#DejaVuSans-46" x="68.408203"/>
     <use xlink:href="#DejaVuSans-52" x="125.927734"/>
    </g>
   </g>
   <g id="text_24">
    <!-- Nonfinal -->
    <g transform="translate(361.832136 60.505236)scale(0.08 -0.08)">
     <defs>
      <path id="DejaVuSans-4e" d="M 628 4666 
L 1478 4666 
L 3547 763 
L 3547 4666 
L 4159 4666 
L 4159 0 
L 3309 0 
L 1241 3903 
L 1241 0 
L 628 0 
L 628 4666 
z
" transform="scale(0.015625)"/>
      <path id="DejaVuSans-66" d="M 2375 4863 
L 2375 4384 
L 1825 4384 
Q 1516 4384 1395 4259 
Q 1275 4134 1275 3809 
L 1275 3500 
L 2222 3500 
L 2222 3053 
L 1275 3053 
L 1275 0 
L 697 0 
L 697 3053 
L 147 3053 
L 147 3500 
L 697 3500 
L 697 3744 
Q 697 4328 969 4595 
Q 1241 4863 1831 4863 
L 2375 4863 
z
" transform="scale(0.015625)"/>
      <path id="DejaVuSans-6c" d="M 603 4863 
L 1178 4863 
L 1178 0 
L 603 0 
L 603 4863 
z
" transform="scale(0.015625)"/>
     </defs>
     <use xlink:href="#DejaVuSans-4e"/>
     <use xlink:href="#DejaVuSans-6f" x="74.804688"/>
     <use xlink:href="#DejaVuSans-6e" x="135.986328"/>
     <use xlink:href="#DejaVuSans-66" x="199.365234"/>
     <use xlink:href="#DejaVuSans-69" x="234.570312"/>
     <use xlink:href="#DejaVuSans-6e" x="262.353516"/>
     <use xlink:href="#DejaVuSans-61" x="325.732422"/>
     <use xlink:href="#DejaVuSans-6c" x="387.011719"/>
    </g>
   </g>
   <g id="text_25">
    <!-- Trochaic -->
    <g transform="translate(361.832136 46.970182)scale(0.08 -0.08)">
     <defs>
      <path id="DejaVuSans-54" d="M -19 4666 
L 3928 4666 
L 3928 4134 
L 2272 4134 
L 2272 0 
L 1638 0 
L 1638 4134 
L -19 4134 
L -19 4666 
z
" transform="scale(0.015625)"/>
      <path id="DejaVuSans-68" d="M 3513 2113 
L 3513 0 
L 2938 0 
L 2938 2094 
Q 2938 2591 2744 2837 
Q 2550 3084 2163 3084 
Q 1697 3084 1428 2787 
Q 1159 2491 1159 1978 
L 1159 0 
L 581 0 
L 581 4863 
L 1159 4863 
L 1159 2956 
Q 1366 3272 1645 3428 
Q 1925 3584 2291 3584 
Q 2894 3584 3203 3211 
Q 3513 2838 3513 2113 
z
" transform="scale(0.015625)"/>
     </defs>
     <use xlink:href="#DejaVuSans-54"/>
     <use xlink:href="#DejaVuSans-72" x="46.333984"/>
     <use xlink:href="#DejaVuSans-6f" x="85.197266"/>
     <use xlink:href="#DejaVuSans-63" x="146.378906"/>
     <use xlink:href="#DejaVuSans-68" x="201.359375"/>
     <use xlink:href="#DejaVuSans-61" x="264.738281"/>
     <use xlink:href="#DejaVuSans-69" x="326.017578"/>
     <use xlink:href="#DejaVuSans-63" x="353.800781"/>
    </g>
   </g>
  </g>
  <g id="axes_2">
   <g id="patch_7">
    <path d="M 57.6 307.584 
L 414.72 307.584 
L 414.72 186.624 
L 57.6 186.624 
z
" style="fill: #ffffff"/>
   </g>
   <g id="matplotlib.axis_3">
    <g id="xtick_8">
     <g id="line2d_26">
      <g>
       <use xlink:href="#mc6b4b350d6" x="72.502176" y="307.584" style="stroke: #000000; stroke-width: 0.8"/>
      </g>
     </g>
     <g id="text_26">
      <!-- 0 -->
      <g transform="translate(69.320926 322.182437)scale(0.1 -0.1)">
       <use xlink:href="#DejaVuSans-30"/>
      </g>
     </g>
    </g>
    <g id="xtick_9">
     <g id="line2d_27">
      <g>
       <use xlink:href="#mc6b4b350d6" x="139.029747" y="307.584" style="stroke: #000000; stroke-width: 0.8"/>
      </g>
     </g>
     <g id="text_27">
      <!-- 50 -->
      <g transform="translate(132.667247 322.182437)scale(0.1 -0.1)">
       <use xlink:href="#DejaVuSans-35"/>
       <use xlink:href="#DejaVuSans-30" x="63.623047"/>
      </g>
     </g>
    </g>
    <g id="xtick_10">
     <g id="line2d_28">
      <g>
       <use xlink:href="#mc6b4b350d6" x="205.557317" y="307.584" style="stroke: #000000; stroke-width: 0.8"/>
      </g>
     </g>
     <g id="text_28">
      <!-- 100 -->
      <g transform="translate(196.013567 322.182437)scale(0.1 -0.1)">
       <use xlink:href="#DejaVuSans-31"/>
       <use xlink:href="#DejaVuSans-30" x="63.623047"/>
       <use xlink:href="#DejaVuSans-30" x="127.246094"/>
      </g>
     </g>
    </g>
    <g id="xtick_11">
     <g id="line2d_29">
      <g>
       <use xlink:href="#mc6b4b350d6" x="272.084888" y="307.584" style="stroke: #000000; stroke-width: 0.8"/>
      </g>
     </g>
     <g id="text_29">
      <!-- 150 -->
      <g transform="translate(262.541138 322.182437)scale(0.1 -0.1)">
       <use xlink:href="#DejaVuSans-31"/>
       <use xlink:href="#DejaVuSans-35" x="63.623047"/>
       <use xlink:href="#DejaVuSans-30" x="127.246094"/>
      </g>
     </g>
    </g>
    <g id="xtick_12">
     <g id="line2d_30">
      <g>
       <use xlink:href="#mc6b4b350d6" x="338.612459" y="307.584" style="stroke: #000000; stroke-width: 0.8"/>
      </g>
     </g>
     <g id="text_30">
      <!-- 200 -->
      <g transform="translate(329.068709 322.182437)scale(0.1 -0.1)">
       <use xlink:href="#DejaVuSans-32"/>
       <use xlink:href="#DejaVuSans-30" x="63.623047"/>
       <use xlink:href="#DejaVuSans-30" x="127.246094"/>
      </g>
     </g>
    </g>
    <g id="xtick_13">
     <g id="line2d_31">
      <g>
       <use xlink:href="#mc6b4b350d6" x="405.14003" y="307.584" style="stroke: #000000; stroke-width: 0.8"/>
      </g>
     </g>
     <g id="text_31">
      <!-- 250 -->
      <g transform="translate(395.59628 322.182437)scale(0.1 -0.1)">
       <use xlink:href="#DejaVuSans-32"/>
       <use xlink:href="#DejaVuSans-35" x="63.623047"/>
       <use xlink:href="#DejaVuSans-30" x="127.246094"/>
      </g>
     </g>
    </g>
   </g>
   <g id="matplotlib.axis_4">
    <g id="ytick_7">
     <g id="line2d_32">
      <g>
       <use xlink:href="#m824b91bfd8" x="57.6" y="302.100523" style="stroke: #000000; stroke-width: 0.8"/>
      </g>
     </g>
     <g id="text_32">
      <!-- 0 -->
      <g transform="translate(44.2375 305.899742)scale(0.1 -0.1)">
       <use xlink:href="#DejaVuSans-30"/>
      </g>
     </g>
    </g>
    <g id="ytick_8">
     <g id="line2d_33">
      <g>
       <use xlink:href="#m824b91bfd8" x="57.6" y="272.690618" style="stroke: #000000; stroke-width: 0.8"/>
      </g>
     </g>
     <g id="text_33">
      <!-- 2000 -->
      <g transform="translate(25.15 276.489836)scale(0.1 -0.1)">
       <use xlink:href="#DejaVuSans-32"/>
       <use xlink:href="#DejaVuSans-30" x="63.623047"/>
       <use xlink:href="#DejaVuSans-30" x="127.246094"/>
       <use xlink:href="#DejaVuSans-30" x="190.869141"/>
      </g>
     </g>
    </g>
    <g id="ytick_9">
     <g id="line2d_34">
      <g>
       <use xlink:href="#m824b91bfd8" x="57.6" y="243.280712" style="stroke: #000000; stroke-width: 0.8"/>
      </g>
     </g>
     <g id="text_34">
      <!-- 4000 -->
      <g transform="translate(25.15 247.079931)scale(0.1 -0.1)">
       <use xlink:href="#DejaVuSans-34"/>
       <use xlink:href="#DejaVuSans-30" x="63.623047"/>
       <use xlink:href="#DejaVuSans-30" x="127.246094"/>
       <use xlink:href="#DejaVuSans-30" x="190.869141"/>
      </g>
     </g>
    </g>
    <g id="ytick_10">
     <g id="line2d_35">
      <g>
       <use xlink:href="#m824b91bfd8" x="57.6" y="213.870807" style="stroke: #000000; stroke-width: 0.8"/>
      </g>
     </g>
     <g id="text_35">
      <!-- 6000 -->
      <g transform="translate(25.15 217.670026)scale(0.1 -0.1)">
       <use xlink:href="#DejaVuSans-36"/>
       <use xlink:href="#DejaVuSans-30" x="63.623047"/>
       <use xlink:href="#DejaVuSans-30" x="127.246094"/>
       <use xlink:href="#DejaVuSans-30" x="190.869141"/>
      </g>
     </g>
    </g>
   </g>
   <g id="line2d_36">
    <path d="M 73.832727 302.085818 
L 176.285186 302.056408 
L 177.615738 301.953474 
L 180.276841 302.085818 
L 189.5907 302.071113 
L 192.251803 302.012293 
L 193.582355 301.968179 
L 194.912906 302.085818 
L 196.243458 301.894654 
L 197.574009 302.041703 
L 198.90456 301.909359 
L 200.235112 302.056408 
L 206.887869 302.026998 
L 209.548972 302.085818 
L 210.879523 301.953474 
L 213.540626 302.071113 
L 216.201729 301.718194 
L 217.53228 301.953474 
L 218.862832 302.026998 
L 220.193383 301.968179 
L 221.523934 301.482915 
L 222.854486 301.997588 
L 225.515589 301.968179 
L 226.84614 301.688784 
L 228.176692 302.026998 
L 229.507243 301.850539 
L 230.837794 302.012293 
L 232.168346 301.938769 
L 233.498897 302.026998 
L 236.16 301.997588 
L 238.821103 301.52703 
L 240.151654 301.938769 
L 241.482206 301.835834 
L 242.812757 302.056408 
L 245.47386 301.64467 
L 248.134963 302.071113 
L 249.465514 301.968179 
L 250.796066 301.732899 
L 253.457168 301.909359 
L 254.78772 301.55644 
L 256.118271 301.350571 
L 257.448823 301.982884 
L 258.779374 301.777014 
L 260.109925 301.247636 
L 261.440477 301.982884 
L 262.771028 301.747604 
L 264.10158 301.835834 
L 265.432131 301.115291 
L 266.762683 302.012293 
L 270.754337 301.821129 
L 272.084888 300.497683 
L 273.41544 301.835834 
L 274.745991 301.924064 
L 276.076542 301.144701 
L 277.407094 301.938769 
L 280.068197 301.46821 
L 281.398748 301.791719 
L 282.7293 301.894654 
L 284.059851 299.306582 
L 285.390402 299.483042 
L 286.720954 301.306456 
L 288.051505 301.335866 
L 289.382057 301.085881 
L 290.712608 301.968179 
L 292.043159 301.968179 
L 293.373711 301.629965 
L 294.704262 300.453568 
L 296.034814 299.056598 
L 297.365365 301.40939 
L 298.695917 301.865244 
L 300.026468 301.482915 
L 301.357019 300.630028 
L 302.687571 301.865244 
L 304.018122 300.527093 
L 305.348674 301.394685 
L 306.679225 302.041703 
L 308.009776 298.115481 
L 309.340328 302.012293 
L 312.001431 301.968179 
L 314.662534 300.894717 
L 315.993085 301.968179 
L 317.323636 301.806424 
L 318.654188 298.115481 
L 319.984739 300.703553 
L 321.315291 293.101092 
L 322.645842 281.39595 
L 323.976393 299.086008 
L 325.306945 299.262467 
L 326.637496 296.424411 
L 327.968048 300.453568 
L 329.298599 299.880075 
L 330.629151 296.145017 
L 331.959702 293.571651 
L 333.290253 301.027062 
L 334.620805 294.159849 
L 335.951356 295.939148 
L 337.281908 298.26253 
L 338.612459 296.027378 
L 339.94301 300.056535 
L 341.273562 295.145081 
L 342.604113 301.027062 
L 343.934665 300.335929 
L 345.265216 297.953726 
L 346.595768 300.085945 
L 347.926319 301.262341 
L 349.25687 295.615639 
L 350.587422 299.350697 
L 351.917973 290.71889 
L 353.248525 302.085818 
L 354.579076 298.865434 
L 355.909627 272.661208 
L 357.240179 298.718384 
L 358.57073 285.748616 
L 359.901282 291.983516 
L 361.231833 266.940981 
L 362.562385 293.145207 
L 363.892936 251.015517 
L 365.223487 272.631798 
L 366.554039 301.953474 
L 367.88459 291.424727 
L 369.215142 284.072251 
L 370.545693 290.145397 
L 371.876244 300.732963 
L 373.206796 300.747667 
L 374.537347 295.792098 
L 375.867899 298.218416 
L 377.19845 226.149442 
L 378.529001 301.277046 
L 379.859553 274.366982 
L 381.190104 298.394875 
L 382.520656 286.042715 
L 383.851207 297.306709 
L 385.181759 294.586292 
L 386.51231 277.013874 
L 387.842861 297.189069 
L 389.173413 296.483231 
L 390.503964 286.02801 
L 391.834516 290.836529 
L 393.165067 222.723188 
L 394.495618 192.122182 
L 395.82617 284.145776 
L 397.156721 222.179105 
L 398.487273 294.542177 
L 398.487273 294.542177 
" clip-path="url(#padafcaabc9)" style="fill: none; stroke: #1f77b4; stroke-width: 1.5; stroke-linecap: square"/>
   </g>
   <g id="patch_8">
    <path d="M 57.6 307.584 
L 57.6 186.624 
" style="fill: none; stroke: #000000; stroke-width: 0.8; stroke-linejoin: miter; stroke-linecap: square"/>
   </g>
   <g id="patch_9">
    <path d="M 414.72 307.584 
L 414.72 186.624 
" style="fill: none; stroke: #000000; stroke-width: 0.8; stroke-linejoin: miter; stroke-linecap: square"/>
   </g>
   <g id="patch_10">
    <path d="M 57.6 307.584 
L 414.72 307.584 
" style="fill: none; stroke: #000000; stroke-width: 0.8; stroke-linejoin: miter; stroke-linecap: square"/>
   </g>
   <g id="patch_11">
    <path d="M 57.6 186.624 
L 414.72 186.624 
" style="fill: none; stroke: #000000; stroke-width: 0.8; stroke-linejoin: miter; stroke-linecap: square"/>
   </g>
  </g>
 </g>
 <defs>
  <clipPath id="p4a5e275cbe">
   <rect x="57.6" y="41.472" width="357.12" height="120.96"/>
  </clipPath>
  <clipPath id="padafcaabc9">
   <rect x="57.6" y="186.624" width="357.12" height="120.96"/>
  </clipPath>
 </defs>
</svg>
