<?xml version="1.0" encoding="utf-8" standalone="no"?>
<!DOCTYPE svg PUBLIC "-//W3C//DTD SVG 1.1//EN"
  "http://www.w3.org/Graphics/SVG/1.1/DTD/svg11.dtd">
<svg xmlns:xlink="http://www.w3.org/1999/xlink" width="460.8pt" height="345.6pt" viewBox="0 0 460.8 345.6" xmlns="http://www.w3.org/2000/svg" version="1.1">
 <metadata>
  <rdf:RDF xmlns:dc="http://purl.org/dc/elements/1.1/" xmlns:cc="http://creativecommons.org/ns#" xmlns:rdf="http://www.w3.org/1999/02/22-rdf-syntax-ns#">
   <cc:Work>
    <dc:type rdf:resource="http://purl.org/dc/dcmitype/StillImage"/>
    <dc:date>2022-05-14T00:46:29.899916</dc:date>
    <dc:format>image/svg+xml</dc:format>
    <dc:creator>
     <cc:Agent>
      <dc:title>Matplotlib v3.5.1, https://matplotlib.org/</dc:title>
     </cc:Agent>
    </dc:creator>
   </cc:Work>
  </rdf:RDF>
 </metadata>
 <defs>
  <style type="text/css">*{stroke-linejoin: round; stroke-linecap: butt}</style>
 </defs>
 <g id="figure_1">
  <g id="patch_1">
   <path d="M 0 345.6 
L 460.8 345.6 
L 460.8 0 
L 0 0 
z
" style="fill: #ffffff"/>
  </g>
  <g id="axes_1">
   <g id="patch_2">
    <path d="M 57.6 162.432 
L 414.72 162.432 
L 414.72 41.472 
L 57.6 41.472 
z
" style="fill: #ffffff"/>
   </g>
   <g id="matplotlib.axis_1">
    <g id="xtick_1">
     <g id="line2d_1">
      <defs>
       <path id="m84e4b90fcc" d="M 0 0 
L 0 3.5 
" style="stroke: #000000; stroke-width: 0.8"/>
      </defs>
      <g>
       <use xlink:href="#m84e4b90fcc" x="73.827491" y="162.432" style="stroke: #000000; stroke-width: 0.8"/>
      </g>
     </g>
     <g id="text_1">
      <!-- 0 -->
      <g transform="translate(70.646241 177.030437)scale(0.1 -0.1)">
       <defs>
        <path id="DejaVuSans-30" d="M 2034 4250 
Q 1547 4250 1301 3770 
Q 1056 3291 1056 2328 
Q 1056 1369 1301 889 
Q 1547 409 2034 409 
Q 2525 409 2770 889 
Q 3016 1369 3016 2328 
Q 3016 3291 2770 3770 
Q 2525 4250 2034 4250 
z
M 2034 4750 
Q 2819 4750 3233 4129 
Q 3647 3509 3647 2328 
Q 3647 1150 3233 529 
Q 2819 -91 2034 -91 
Q 1250 -91 836 529 
Q 422 1150 422 2328 
Q 422 3509 836 4129 
Q 1250 4750 2034 4750 
z
" transform="scale(0.015625)"/>
       </defs>
       <use xlink:href="#DejaVuSans-30"/>
      </g>
     </g>
    </g>
    <g id="xtick_2">
     <g id="line2d_2">
      <g>
       <use xlink:href="#m84e4b90fcc" x="126.191972" y="162.432" style="stroke: #000000; stroke-width: 0.8"/>
      </g>
     </g>
     <g id="text_2">
      <!-- 10000 -->
      <g transform="translate(110.285722 177.030437)scale(0.1 -0.1)">
       <defs>
        <path id="DejaVuSans-31" d="M 794 531 
L 1825 531 
L 1825 4091 
L 703 3866 
L 703 4441 
L 1819 4666 
L 2450 4666 
L 2450 531 
L 3481 531 
L 3481 0 
L 794 0 
L 794 531 
z
" transform="scale(0.015625)"/>
       </defs>
       <use xlink:href="#DejaVuSans-31"/>
       <use xlink:href="#DejaVuSans-30" x="63.623047"/>
       <use xlink:href="#DejaVuSans-30" x="127.246094"/>
       <use xlink:href="#DejaVuSans-30" x="190.869141"/>
       <use xlink:href="#DejaVuSans-30" x="254.492188"/>
      </g>
     </g>
    </g>
    <g id="xtick_3">
     <g id="line2d_3">
      <g>
       <use xlink:href="#m84e4b90fcc" x="178.556453" y="162.432" style="stroke: #000000; stroke-width: 0.8"/>
      </g>
     </g>
     <g id="text_3">
      <!-- 20000 -->
      <g transform="translate(162.650203 177.030437)scale(0.1 -0.1)">
       <defs>
        <path id="DejaVuSans-32" d="M 1228 531 
L 3431 531 
L 3431 0 
L 469 0 
L 469 531 
Q 828 903 1448 1529 
Q 2069 2156 2228 2338 
Q 2531 2678 2651 2914 
Q 2772 3150 2772 3378 
Q 2772 3750 2511 3984 
Q 2250 4219 1831 4219 
Q 1534 4219 1204 4116 
Q 875 4013 500 3803 
L 500 4441 
Q 881 4594 1212 4672 
Q 1544 4750 1819 4750 
Q 2544 4750 2975 4387 
Q 3406 4025 3406 3419 
Q 3406 3131 3298 2873 
Q 3191 2616 2906 2266 
Q 2828 2175 2409 1742 
Q 1991 1309 1228 531 
z
" transform="scale(0.015625)"/>
       </defs>
       <use xlink:href="#DejaVuSans-32"/>
       <use xlink:href="#DejaVuSans-30" x="63.623047"/>
       <use xlink:href="#DejaVuSans-30" x="127.246094"/>
       <use xlink:href="#DejaVuSans-30" x="190.869141"/>
       <use xlink:href="#DejaVuSans-30" x="254.492188"/>
      </g>
     </g>
    </g>
    <g id="xtick_4">
     <g id="line2d_4">
      <g>
       <use xlink:href="#m84e4b90fcc" x="230.920934" y="162.432" style="stroke: #000000; stroke-width: 0.8"/>
      </g>
     </g>
     <g id="text_4">
      <!-- 30000 -->
      <g transform="translate(215.014684 177.030437)scale(0.1 -0.1)">
       <defs>
        <path id="DejaVuSans-33" d="M 2597 2516 
Q 3050 2419 3304 2112 
Q 3559 1806 3559 1356 
Q 3559 666 3084 287 
Q 2609 -91 1734 -91 
Q 1441 -91 1130 -33 
Q 819 25 488 141 
L 488 750 
Q 750 597 1062 519 
Q 1375 441 1716 441 
Q 2309 441 2620 675 
Q 2931 909 2931 1356 
Q 2931 1769 2642 2001 
Q 2353 2234 1838 2234 
L 1294 2234 
L 1294 2753 
L 1863 2753 
Q 2328 2753 2575 2939 
Q 2822 3125 2822 3475 
Q 2822 3834 2567 4026 
Q 2313 4219 1838 4219 
Q 1578 4219 1281 4162 
Q 984 4106 628 3988 
L 628 4550 
Q 988 4650 1302 4700 
Q 1616 4750 1894 4750 
Q 2613 4750 3031 4423 
Q 3450 4097 3450 3541 
Q 3450 3153 3228 2886 
Q 3006 2619 2597 2516 
z
" transform="scale(0.015625)"/>
       </defs>
       <use xlink:href="#DejaVuSans-33"/>
       <use xlink:href="#DejaVuSans-30" x="63.623047"/>
       <use xlink:href="#DejaVuSans-30" x="127.246094"/>
       <use xlink:href="#DejaVuSans-30" x="190.869141"/>
       <use xlink:href="#DejaVuSans-30" x="254.492188"/>
      </g>
     </g>
    </g>
    <g id="xtick_5">
     <g id="line2d_5">
      <g>
       <use xlink:href="#m84e4b90fcc" x="283.285415" y="162.432" style="stroke: #000000; stroke-width: 0.8"/>
      </g>
     </g>
     <g id="text_5">
      <!-- 40000 -->
      <g transform="translate(267.379165 177.030437)scale(0.1 -0.1)">
       <defs>
        <path id="DejaVuSans-34" d="M 2419 4116 
L 825 1625 
L 2419 1625 
L 2419 4116 
z
M 2253 4666 
L 3047 4666 
L 3047 1625 
L 3713 1625 
L 3713 1100 
L 3047 1100 
L 3047 0 
L 2419 0 
L 2419 1100 
L 313 1100 
L 313 1709 
L 2253 4666 
z
" transform="scale(0.015625)"/>
       </defs>
       <use xlink:href="#DejaVuSans-34"/>
       <use xlink:href="#DejaVuSans-30" x="63.623047"/>
       <use xlink:href="#DejaVuSans-30" x="127.246094"/>
       <use xlink:href="#DejaVuSans-30" x="190.869141"/>
       <use xlink:href="#DejaVuSans-30" x="254.492188"/>
      </g>
     </g>
    </g>
    <g id="xtick_6">
     <g id="line2d_6">
      <g>
       <use xlink:href="#m84e4b90fcc" x="335.649896" y="162.432" style="stroke: #000000; stroke-width: 0.8"/>
      </g>
     </g>
     <g id="text_6">
      <!-- 50000 -->
      <g transform="translate(319.743646 177.030437)scale(0.1 -0.1)">
       <defs>
        <path id="DejaVuSans-35" d="M 691 4666 
L 3169 4666 
L 3169 4134 
L 1269 4134 
L 1269 2991 
Q 1406 3038 1543 3061 
Q 1681 3084 1819 3084 
Q 2600 3084 3056 2656 
Q 3513 2228 3513 1497 
Q 3513 744 3044 326 
Q 2575 -91 1722 -91 
Q 1428 -91 1123 -41 
Q 819 9 494 109 
L 494 744 
Q 775 591 1075 516 
Q 1375 441 1709 441 
Q 2250 441 2565 725 
Q 2881 1009 2881 1497 
Q 2881 1984 2565 2268 
Q 2250 2553 1709 2553 
Q 1456 2553 1204 2497 
Q 953 2441 691 2322 
L 691 4666 
z
" transform="scale(0.015625)"/>
       </defs>
       <use xlink:href="#DejaVuSans-35"/>
       <use xlink:href="#DejaVuSans-30" x="63.623047"/>
       <use xlink:href="#DejaVuSans-30" x="127.246094"/>
       <use xlink:href="#DejaVuSans-30" x="190.869141"/>
       <use xlink:href="#DejaVuSans-30" x="254.492188"/>
      </g>
     </g>
    </g>
    <g id="xtick_7">
     <g id="line2d_7">
      <g>
       <use xlink:href="#m84e4b90fcc" x="388.014377" y="162.432" style="stroke: #000000; stroke-width: 0.8"/>
      </g>
     </g>
     <g id="text_7">
      <!-- 60000 -->
      <g transform="translate(372.108127 177.030437)scale(0.1 -0.1)">
       <defs>
        <path id="DejaVuSans-36" d="M 2113 2584 
Q 1688 2584 1439 2293 
Q 1191 2003 1191 1497 
Q 1191 994 1439 701 
Q 1688 409 2113 409 
Q 2538 409 2786 701 
Q 3034 994 3034 1497 
Q 3034 2003 2786 2293 
Q 2538 2584 2113 2584 
z
M 3366 4563 
L 3366 3988 
Q 3128 4100 2886 4159 
Q 2644 4219 2406 4219 
Q 1781 4219 1451 3797 
Q 1122 3375 1075 2522 
Q 1259 2794 1537 2939 
Q 1816 3084 2150 3084 
Q 2853 3084 3261 2657 
Q 3669 2231 3669 1497 
Q 3669 778 3244 343 
Q 2819 -91 2113 -91 
Q 1303 -91 875 529 
Q 447 1150 447 2328 
Q 447 3434 972 4092 
Q 1497 4750 2381 4750 
Q 2619 4750 2861 4703 
Q 3103 4656 3366 4563 
z
" transform="scale(0.015625)"/>
       </defs>
       <use xlink:href="#DejaVuSans-36"/>
       <use xlink:href="#DejaVuSans-30" x="63.623047"/>
       <use xlink:href="#DejaVuSans-30" x="127.246094"/>
       <use xlink:href="#DejaVuSans-30" x="190.869141"/>
       <use xlink:href="#DejaVuSans-30" x="254.492188"/>
      </g>
     </g>
    </g>
   </g>
   <g id="matplotlib.axis_2">
    <g id="ytick_1">
     <g id="line2d_8">
      <defs>
       <path id="m40d872e8f7" d="M 0 0 
L -3.5 0 
" style="stroke: #000000; stroke-width: 0.8"/>
      </defs>
      <g>
       <use xlink:href="#m40d872e8f7" x="57.6" y="143.8489" style="stroke: #000000; stroke-width: 0.8"/>
      </g>
     </g>
     <g id="text_8">
      <!-- 80 -->
      <g transform="translate(37.875 147.648119)scale(0.1 -0.1)">
       <defs>
        <path id="DejaVuSans-38" d="M 2034 2216 
Q 1584 2216 1326 1975 
Q 1069 1734 1069 1313 
Q 1069 891 1326 650 
Q 1584 409 2034 409 
Q 2484 409 2743 651 
Q 3003 894 3003 1313 
Q 3003 1734 2745 1975 
Q 2488 2216 2034 2216 
z
M 1403 2484 
Q 997 2584 770 2862 
Q 544 3141 544 3541 
Q 544 4100 942 4425 
Q 1341 4750 2034 4750 
Q 2731 4750 3128 4425 
Q 3525 4100 3525 3541 
Q 3525 3141 3298 2862 
Q 3072 2584 2669 2484 
Q 3125 2378 3379 2068 
Q 3634 1759 3634 1313 
Q 3634 634 3220 271 
Q 2806 -91 2034 -91 
Q 1263 -91 848 271 
Q 434 634 434 1313 
Q 434 1759 690 2068 
Q 947 2378 1403 2484 
z
M 1172 3481 
Q 1172 3119 1398 2916 
Q 1625 2713 2034 2713 
Q 2441 2713 2670 2916 
Q 2900 3119 2900 3481 
Q 2900 3844 2670 4047 
Q 2441 4250 2034 4250 
Q 1625 4250 1398 4047 
Q 1172 3844 1172 3481 
z
" transform="scale(0.015625)"/>
       </defs>
       <use xlink:href="#DejaVuSans-38"/>
       <use xlink:href="#DejaVuSans-30" x="63.623047"/>
      </g>
     </g>
    </g>
    <g id="ytick_2">
     <g id="line2d_9">
      <g>
       <use xlink:href="#m40d872e8f7" x="57.6" y="106.103945" style="stroke: #000000; stroke-width: 0.8"/>
      </g>
     </g>
     <g id="text_9">
      <!-- 90 -->
      <g transform="translate(37.875 109.903164)scale(0.1 -0.1)">
       <defs>
        <path id="DejaVuSans-39" d="M 703 97 
L 703 672 
Q 941 559 1184 500 
Q 1428 441 1663 441 
Q 2288 441 2617 861 
Q 2947 1281 2994 2138 
Q 2813 1869 2534 1725 
Q 2256 1581 1919 1581 
Q 1219 1581 811 2004 
Q 403 2428 403 3163 
Q 403 3881 828 4315 
Q 1253 4750 1959 4750 
Q 2769 4750 3195 4129 
Q 3622 3509 3622 2328 
Q 3622 1225 3098 567 
Q 2575 -91 1691 -91 
Q 1453 -91 1209 -44 
Q 966 3 703 97 
z
M 1959 2075 
Q 2384 2075 2632 2365 
Q 2881 2656 2881 3163 
Q 2881 3666 2632 3958 
Q 2384 4250 1959 4250 
Q 1534 4250 1286 3958 
Q 1038 3666 1038 3163 
Q 1038 2656 1286 2365 
Q 1534 2075 1959 2075 
z
" transform="scale(0.015625)"/>
       </defs>
       <use xlink:href="#DejaVuSans-39"/>
       <use xlink:href="#DejaVuSans-30" x="63.623047"/>
      </g>
     </g>
    </g>
    <g id="ytick_3">
     <g id="line2d_10">
      <g>
       <use xlink:href="#m40d872e8f7" x="57.6" y="68.35899" style="stroke: #000000; stroke-width: 0.8"/>
      </g>
     </g>
     <g id="text_10">
      <!-- 100 -->
      <g transform="translate(31.5125 72.158209)scale(0.1 -0.1)">
       <use xlink:href="#DejaVuSans-31"/>
       <use xlink:href="#DejaVuSans-30" x="63.623047"/>
       <use xlink:href="#DejaVuSans-30" x="127.246094"/>
      </g>
     </g>
    </g>
   </g>
   <g id="line2d_11">
    <path d="M 73.832727 72.133485 
L 73.837964 72.133485 
L 73.963638 83.456972 
L 73.995057 83.456972 
L 74.110259 89.747798 
L 74.277825 89.747798 
L 74.393027 93.522293 
L 74.455865 93.522293 
L 74.571066 97.296789 
L 74.660086 97.296789 
L 74.775288 101.071284 
L 74.906199 101.071284 
L 75.021401 104.84578 
L 75.105184 104.84578 
L 75.220386 108.620275 
L 75.309406 108.620275 
L 75.424607 112.394771 
L 75.534573 112.394771 
L 75.649775 116.169266 
L 76.17342 116.169266 
L 76.288621 119.943762 
L 76.398587 119.943762 
L 76.513789 119.188863 
L 76.95365 119.188863 
L 77.074089 126.737854 
L 77.194527 126.737854 
L 77.309729 130.512349 
L 81.106154 130.512349 
L 81.221356 134.286845 
L 86.436858 134.286845 
L 86.55206 138.061341 
L 90.411322 138.061341 
L 90.526524 141.835836 
L 94.04018 141.835836 
L 94.155382 145.610332 
L 137.691212 145.610332 
L 137.806414 149.384827 
L 140.838317 149.384827 
L 140.953519 153.159323 
L 141.854188 153.159323 
L 141.96939 156.933818 
L 398.487273 156.933818 
L 398.487273 156.933818 
" clip-path="url(#p7641e931dc)" style="fill: none; stroke: #1f77b4; stroke-width: 1.5; stroke-linecap: square"/>
   </g>
   <g id="line2d_12">
    <path d="M 73.832727 72.133485 
L 73.968875 67.415366 
L 73.984584 67.415366 
L 74.099786 71.189861 
L 74.24117 71.189861 
L 74.356372 74.964357 
L 74.393027 74.964357 
L 74.513466 82.513348 
L 74.539648 82.513348 
L 74.65485 78.738853 
L 74.660086 78.738853 
L 74.775288 74.964357 
L 75.534573 74.964357 
L 75.649775 78.738853 
L 76.398587 78.738853 
L 76.513789 82.513348 
L 92.631576 82.513348 
L 92.746778 86.287844 
L 398.487273 86.287844 
L 398.487273 86.287844 
" clip-path="url(#p7641e931dc)" style="fill: none; stroke: #ff7f0e; stroke-width: 1.5; stroke-linecap: square"/>
   </g>
   <g id="line2d_13">
    <path d="M 73.832727 72.133485 
L 73.93222 78.738853 
L 73.947929 76.537063 
L 73.984584 76.537063 
L 74.068367 82.827889 
L 74.099786 81.569724 
L 74.105023 81.569724 
L 74.16786 85.34422 
L 74.214988 84.400596 
L 74.277825 84.400596 
L 74.393027 83.456972 
L 74.707214 83.456972 
L 74.822416 82.513348 
L 74.906199 82.513348 
L 75.021401 81.569724 
L 75.105184 81.569724 
L 75.220386 85.34422 
L 75.309406 85.34422 
L 75.424607 84.400596 
L 75.534573 84.400596 
L 75.649775 88.175091 
L 76.17342 88.175091 
L 76.288621 91.949587 
L 76.95365 91.949587 
L 77.074089 90.062339 
L 77.194527 90.062339 
L 77.309729 89.118715 
L 78.466984 89.118715 
L 78.582186 88.175091 
L 81.106154 88.175091 
L 81.221356 91.949587 
L 81.802601 91.949587 
L 81.917803 91.005963 
L 86.436858 91.005963 
L 86.55206 90.062339 
L 90.411322 90.062339 
L 90.526524 93.836835 
L 94.04018 93.836835 
L 94.155382 92.893211 
L 112.210655 92.893211 
L 112.325857 91.949587 
L 137.691212 91.949587 
L 137.806414 95.724082 
L 140.838317 95.724082 
L 140.953519 99.498578 
L 141.854188 99.498578 
L 141.96939 98.554954 
L 165.758574 98.554954 
L 165.873775 97.61133 
L 398.487273 97.61133 
L 398.487273 97.61133 
" clip-path="url(#p7641e931dc)" style="fill: none; stroke: #2ca02c; stroke-width: 1.5; stroke-linecap: square"/>
   </g>
   <g id="line2d_14">
    <path d="M 73.832727 68.35899 
L 74.021239 68.35899 
L 74.068367 72.133485 
L 74.131205 70.87532 
L 76.17342 70.87532 
L 76.288621 70.246238 
L 90.411322 70.246238 
L 90.526524 74.020733 
L 137.691212 74.020733 
L 137.806414 77.795229 
L 398.487273 77.795229 
L 398.487273 77.795229 
" clip-path="url(#p7641e931dc)" style="fill: none; stroke: #d62728; stroke-width: 1.5; stroke-linecap: square"/>
   </g>
   <g id="line2d_15">
    <path d="M 73.832727 72.133485 
L 73.864146 75.907981 
L 73.942693 74.964357 
L 73.963638 74.964357 
L 73.984584 74.020733 
L 73.989821 77.795229 
L 74.057895 77.795229 
L 75.534573 77.795229 
L 75.649775 81.569724 
L 76.204838 81.569724 
L 76.32004 80.6261 
L 78.299417 80.6261 
L 78.414619 79.682476 
L 398.487273 79.682476 
L 398.487273 79.682476 
" clip-path="url(#p7641e931dc)" style="fill: none; stroke: #9467bd; stroke-width: 1.5; stroke-linecap: square"/>
   </g>
   <g id="line2d_16">
    <path d="M 73.832727 72.133485 
L 73.837964 72.133485 
L 73.937456 79.682476 
L 73.953166 78.738853 
L 73.963638 78.738853 
L 74.068367 90.062339 
L 74.084077 89.433257 
L 74.105023 88.804174 
L 74.110259 92.578669 
L 74.173096 91.635046 
L 74.24117 91.635046 
L 74.277825 95.409541 
L 74.351136 94.465917 
L 74.393027 94.465917 
L 74.513466 102.014908 
L 74.707214 102.014908 
L 74.822416 101.071284 
L 74.906199 101.071284 
L 75.021401 100.12766 
L 75.105184 100.12766 
L 75.220386 103.902156 
L 75.309406 103.902156 
L 75.424607 102.958532 
L 75.534573 102.958532 
L 75.649775 106.733028 
L 76.17342 106.733028 
L 76.293858 114.282019 
L 76.398587 114.282019 
L 76.513789 118.056514 
L 76.95365 118.056514 
L 77.074089 116.169266 
L 77.194527 116.169266 
L 77.309729 115.225643 
L 78.299417 115.225643 
L 78.414619 119.000138 
L 78.466984 119.000138 
L 78.582186 118.056514 
L 81.106154 118.056514 
L 81.221356 121.83101 
L 81.802601 121.83101 
L 81.917803 120.887386 
L 86.436858 120.887386 
L 86.55206 119.943762 
L 90.411322 119.943762 
L 90.526524 123.718258 
L 92.631576 123.718258 
L 92.746778 127.492753 
L 94.04018 127.492753 
L 94.155382 126.549129 
L 112.210655 126.549129 
L 112.325857 125.605505 
L 137.691212 125.605505 
L 137.806414 129.380001 
L 140.838317 129.380001 
L 140.953519 133.154496 
L 141.854188 133.154496 
L 141.96939 132.210872 
L 165.758574 132.210872 
L 165.873775 131.267249 
L 398.487273 131.267249 
L 398.487273 131.267249 
" clip-path="url(#p7641e931dc)" style="fill: none; stroke: #8c564b; stroke-width: 1.5; stroke-linecap: square"/>
   </g>
   <g id="line2d_17">
    <path d="M 73.832727 72.133485 
L 73.958402 68.988072 
L 73.963638 68.988072 
L 73.984584 68.044449 
L 73.989821 71.818944 
L 74.057895 71.818944 
L 74.105023 71.818944 
L 74.220224 70.87532 
L 74.24117 70.87532 
L 74.356372 69.931696 
L 74.393027 69.931696 
L 74.513466 68.044449 
L 75.534573 68.044449 
L 75.649775 71.818944 
L 76.204838 71.818944 
L 76.32004 70.87532 
L 76.398587 70.87532 
L 76.513789 70.120421 
L 78.299417 70.120421 
L 78.414619 69.176797 
L 90.411322 69.176797 
L 90.526524 68.233173 
L 92.631576 68.233173 
L 92.746778 67.289549 
L 137.691212 67.289549 
L 137.806414 66.345926 
L 398.487273 66.345926 
L 398.487273 66.345926 
" clip-path="url(#p7641e931dc)" style="fill: none; stroke: #e377c2; stroke-width: 1.5; stroke-linecap: square"/>
   </g>
   <g id="line2d_18">
    <path d="M 73.832727 67.415366 
L 73.874619 78.738853 
L 73.953166 75.278898 
L 73.963638 75.278898 
L 74.068367 80.814825 
L 74.07884 80.185742 
L 74.084077 80.185742 
L 74.105023 79.55666 
L 74.110259 83.331155 
L 74.173096 82.387532 
L 74.24117 82.387532 
L 74.277825 86.162027 
L 74.351136 85.218403 
L 74.393027 85.218403 
L 74.513466 92.767394 
L 74.707214 92.767394 
L 74.822416 91.82377 
L 74.906199 91.82377 
L 75.021401 90.880146 
L 75.105184 90.880146 
L 75.220386 89.936523 
L 75.309406 89.936523 
L 75.424607 88.992899 
L 75.534573 88.992899 
L 75.649775 88.238 
L 76.17342 88.238 
L 76.204838 87.608917 
L 76.210075 91.383413 
L 76.257203 91.383413 
L 76.398587 91.383413 
L 76.513789 95.157908 
L 76.95365 95.157908 
L 77.074089 93.27066 
L 77.194527 93.27066 
L 77.309729 92.327036 
L 78.299417 92.327036 
L 78.414619 96.101532 
L 78.466984 96.101532 
L 78.582186 95.157908 
L 81.106154 95.157908 
L 81.221356 94.403009 
L 81.802601 94.403009 
L 81.917803 93.459385 
L 86.436858 93.459385 
L 86.55206 92.515761 
L 90.411322 92.515761 
L 90.526524 96.290257 
L 92.631576 96.290257 
L 92.746778 100.064752 
L 94.04018 100.064752 
L 94.155382 99.121128 
L 112.210655 99.121128 
L 112.325857 98.177504 
L 137.691212 98.177504 
L 137.806414 101.952 
L 140.838317 101.952 
L 140.953519 101.197101 
L 141.854188 101.197101 
L 141.96939 100.253477 
L 165.758574 100.253477 
L 165.873775 99.309853 
L 398.487273 99.309853 
L 398.487273 99.309853 
" clip-path="url(#p7641e931dc)" style="fill: none; stroke: #7f7f7f; stroke-width: 1.5; stroke-linecap: square"/>
   </g>
   <g id="line2d_19">
    <path d="M 73.832727 67.415366 
L 73.979348 60.809999 
L 73.984584 60.809999 
L 74.099786 60.0551 
L 74.105023 60.0551 
L 74.220224 59.111476 
L 74.24117 59.111476 
L 74.356372 58.167852 
L 74.393027 58.167852 
L 74.513466 56.280604 
L 75.105184 56.280604 
L 75.220386 55.33698 
L 75.534573 55.33698 
L 75.649775 54.582081 
L 76.17342 54.582081 
L 76.293858 53.009375 
L 76.398587 53.009375 
L 76.513789 52.254476 
L 78.299417 52.254476 
L 78.414619 51.310852 
L 81.106154 51.310852 
L 81.221356 50.555953 
L 90.411322 50.555953 
L 90.526524 49.612329 
L 92.631576 49.612329 
L 92.746778 48.668705 
L 137.691212 48.668705 
L 137.806414 47.725081 
L 140.838317 47.725081 
L 140.953519 46.970182 
L 398.487273 46.970182 
L 398.487273 46.970182 
" clip-path="url(#p7641e931dc)" style="fill: none; stroke: #bcbd22; stroke-width: 1.5; stroke-linecap: square"/>
   </g>
   <g id="line2d_20">
    <path d="M 73.832727 67.415366 
L 73.837964 66.471742 
L 73.869382 74.020733 
L 73.911274 72.762568 
L 73.93222 72.762568 
L 73.963638 70.560779 
L 74.026476 76.096706 
L 74.068367 76.096706 
L 74.204515 72.951293 
L 74.24117 72.951293 
L 74.277825 76.725788 
L 74.351136 75.782164 
L 74.393027 75.782164 
L 74.513466 83.331155 
L 74.707214 83.331155 
L 74.822416 82.387532 
L 74.906199 82.387532 
L 75.021401 81.443908 
L 75.105184 81.443908 
L 75.220386 80.500284 
L 75.309406 80.500284 
L 75.424607 79.55666 
L 75.534573 79.55666 
L 75.649775 78.801761 
L 76.17342 78.801761 
L 76.204838 78.172678 
L 76.210075 81.947174 
L 76.257203 81.947174 
L 76.398587 81.947174 
L 76.513789 85.721669 
L 76.95365 85.721669 
L 77.074089 83.834421 
L 77.194527 83.834421 
L 77.309729 82.890798 
L 78.299417 82.890798 
L 78.414619 86.665293 
L 78.466984 86.665293 
L 78.582186 85.721669 
L 81.106154 85.721669 
L 81.221356 84.96677 
L 81.802601 84.96677 
L 81.917803 84.023146 
L 86.436858 84.023146 
L 86.55206 83.079522 
L 90.411322 83.079522 
L 90.526524 86.854018 
L 92.631576 86.854018 
L 92.746778 90.628513 
L 94.04018 90.628513 
L 94.155382 89.68489 
L 112.210655 89.68489 
L 112.325857 88.741266 
L 137.691212 88.741266 
L 137.806414 92.515761 
L 140.838317 92.515761 
L 140.953519 91.760862 
L 141.854188 91.760862 
L 141.96939 90.817238 
L 165.758574 90.817238 
L 165.873775 89.873614 
L 398.487273 89.873614 
L 398.487273 89.873614 
" clip-path="url(#p7641e931dc)" style="fill: none; stroke: #17becf; stroke-width: 1.5; stroke-linecap: square"/>
   </g>
   <g id="line2d_21">
    <path d="M 73.832727 67.415366 
L 73.837964 67.415366 
L 73.937456 64.899036 
L 73.942693 68.673531 
L 73.963638 68.673531 
L 74.068367 65.08776 
L 74.073604 68.862256 
L 74.084077 68.862256 
L 74.199279 75.467623 
L 74.24117 75.467623 
L 74.277825 74.523999 
L 74.283062 78.298495 
L 74.335426 78.298495 
L 74.393027 78.298495 
L 74.513466 76.411247 
L 74.707214 76.411247 
L 74.822416 80.185742 
L 74.906199 80.185742 
L 75.021401 83.960238 
L 75.105184 83.960238 
L 75.220386 83.016614 
L 75.309406 83.016614 
L 75.424607 86.79111 
L 75.534573 86.79111 
L 75.649775 86.036211 
L 76.17342 86.036211 
L 76.293858 84.463504 
L 76.398587 84.463504 
L 76.513789 83.708605 
L 76.95365 83.708605 
L 77.074089 91.257596 
L 77.194527 91.257596 
L 77.309729 95.032092 
L 78.299417 95.032092 
L 78.414619 94.088468 
L 78.466984 94.088468 
L 78.582186 97.862963 
L 81.106154 97.862963 
L 81.221356 97.108064 
L 81.802601 97.108064 
L 81.917803 100.88256 
L 86.436858 100.88256 
L 86.55206 104.657055 
L 90.411322 104.657055 
L 90.526524 103.713431 
L 92.631576 103.713431 
L 92.746778 102.769807 
L 94.04018 102.769807 
L 94.155382 106.544303 
L 112.210655 106.544303 
L 112.325857 110.318798 
L 137.691212 110.318798 
L 137.806414 109.375175 
L 140.838317 109.375175 
L 140.953519 108.620275 
L 141.854188 108.620275 
L 141.96939 112.394771 
L 165.758574 112.394771 
L 165.873775 116.169266 
L 398.487273 116.169266 
L 398.487273 116.169266 
" clip-path="url(#p7641e931dc)" style="fill: none; stroke: #1f77b4; stroke-width: 1.5; stroke-linecap: square"/>
   </g>
   <g id="line2d_22">
    <path d="M 73.832727 68.35899 
L 73.8432 68.35899 
L 73.974111 85.973302 
L 73.984584 85.973302 
L 73.995057 85.218403 
L 74.000294 88.992899 
L 74.068367 87.105651 
L 74.194042 98.429138 
L 74.24117 98.429138 
L 74.277825 97.485514 
L 74.283062 101.260009 
L 74.335426 101.260009 
L 74.393027 101.260009 
L 74.513466 99.372761 
L 74.539648 99.372761 
L 74.65485 103.147257 
L 74.660086 103.147257 
L 74.780524 110.696248 
L 74.906199 110.696248 
L 75.021401 114.470743 
L 75.309406 114.470743 
L 75.424607 118.245239 
L 75.534573 118.245239 
L 75.649775 117.49034 
L 76.17342 117.49034 
L 76.288621 116.861257 
L 76.398587 116.861257 
L 76.513789 116.106358 
L 76.95365 116.106358 
L 77.074089 123.655349 
L 77.194527 123.655349 
L 77.309729 127.429845 
L 78.466984 127.429845 
L 78.582186 131.20434 
L 81.106154 131.20434 
L 81.221356 130.449441 
L 81.802601 130.449441 
L 81.917803 134.223937 
L 86.436858 134.223937 
L 86.55206 137.998432 
L 90.411322 137.998432 
L 90.526524 137.054808 
L 92.631576 137.054808 
L 92.746778 136.111185 
L 94.04018 136.111185 
L 94.155382 139.88568 
L 112.210655 139.88568 
L 112.325857 143.660176 
L 137.691212 143.660176 
L 137.806414 142.716552 
L 140.838317 142.716552 
L 140.953519 141.961653 
L 141.854188 141.961653 
L 141.96939 145.736148 
L 165.758574 145.736148 
L 165.873775 149.510644 
L 398.487273 149.510644 
L 398.487273 149.510644 
" clip-path="url(#p7641e931dc)" style="fill: none; stroke: #ff7f0e; stroke-width: 1.5; stroke-linecap: square"/>
   </g>
   <g id="patch_3">
    <path d="M 57.6 162.432 
L 57.6 41.472 
" style="fill: none; stroke: #000000; stroke-width: 0.8; stroke-linejoin: miter; stroke-linecap: square"/>
   </g>
   <g id="patch_4">
    <path d="M 414.72 162.432 
L 414.72 41.472 
" style="fill: none; stroke: #000000; stroke-width: 0.8; stroke-linejoin: miter; stroke-linecap: square"/>
   </g>
   <g id="patch_5">
    <path d="M 57.6 162.432 
L 414.72 162.432 
" style="fill: none; stroke: #000000; stroke-width: 0.8; stroke-linejoin: miter; stroke-linecap: square"/>
   </g>
   <g id="patch_6">
    <path d="M 57.6 41.472 
L 414.72 41.472 
" style="fill: none; stroke: #000000; stroke-width: 0.8; stroke-linejoin: miter; stroke-linecap: square"/>
   </g>
   <g id="text_11">
    <!-- WSP -->
    <g transform="translate(361.832136 156.933818)scale(0.08 -0.08)">
     <defs>
      <path id="DejaVuSans-57" d="M 213 4666 
L 850 4666 
L 1831 722 
L 2809 4666 
L 3519 4666 
L 4500 722 
L 5478 4666 
L 6119 4666 
L 4947 0 
L 4153 0 
L 3169 4050 
L 2175 0 
L 1381 0 
L 213 4666 
z
" transform="scale(0.015625)"/>
      <path id="DejaVuSans-53" d="M 3425 4513 
L 3425 3897 
Q 3066 4069 2747 4153 
Q 2428 4238 2131 4238 
Q 1616 4238 1336 4038 
Q 1056 3838 1056 3469 
Q 1056 3159 1242 3001 
Q 1428 2844 1947 2747 
L 2328 2669 
Q 3034 2534 3370 2195 
Q 3706 1856 3706 1288 
Q 3706 609 3251 259 
Q 2797 -91 1919 -91 
Q 1588 -91 1214 -16 
Q 841 59 441 206 
L 441 856 
Q 825 641 1194 531 
Q 1563 422 1919 422 
Q 2459 422 2753 634 
Q 3047 847 3047 1241 
Q 3047 1584 2836 1778 
Q 2625 1972 2144 2069 
L 1759 2144 
Q 1053 2284 737 2584 
Q 422 2884 422 3419 
Q 422 4038 858 4394 
Q 1294 4750 2059 4750 
Q 2388 4750 2728 4690 
Q 3069 4631 3425 4513 
z
" transform="scale(0.015625)"/>
      <path id="DejaVuSans-50" d="M 1259 4147 
L 1259 2394 
L 2053 2394 
Q 2494 2394 2734 2622 
Q 2975 2850 2975 3272 
Q 2975 3691 2734 3919 
Q 2494 4147 2053 4147 
L 1259 4147 
z
M 628 4666 
L 2053 4666 
Q 2838 4666 3239 4311 
Q 3641 3956 3641 3272 
Q 3641 2581 3239 2228 
Q 2838 1875 2053 1875 
L 1259 1875 
L 1259 0 
L 628 0 
L 628 4666 
z
" transform="scale(0.015625)"/>
     </defs>
     <use xlink:href="#DejaVuSans-57"/>
     <use xlink:href="#DejaVuSans-53" x="98.876953"/>
     <use xlink:href="#DejaVuSans-50" x="162.353516"/>
    </g>
   </g>
   <g id="text_12">
    <!-- Iambic -->
    <g transform="translate(361.832136 86.287844)scale(0.08 -0.08)">
     <defs>
      <path id="DejaVuSans-49" d="M 628 4666 
L 1259 4666 
L 1259 0 
L 628 0 
L 628 4666 
z
" transform="scale(0.015625)"/>
      <path id="DejaVuSans-61" d="M 2194 1759 
Q 1497 1759 1228 1600 
Q 959 1441 959 1056 
Q 959 750 1161 570 
Q 1363 391 1709 391 
Q 2188 391 2477 730 
Q 2766 1069 2766 1631 
L 2766 1759 
L 2194 1759 
z
M 3341 1997 
L 3341 0 
L 2766 0 
L 2766 531 
Q 2569 213 2275 61 
Q 1981 -91 1556 -91 
Q 1019 -91 701 211 
Q 384 513 384 1019 
Q 384 1609 779 1909 
Q 1175 2209 1959 2209 
L 2766 2209 
L 2766 2266 
Q 2766 2663 2505 2880 
Q 2244 3097 1772 3097 
Q 1472 3097 1187 3025 
Q 903 2953 641 2809 
L 641 3341 
Q 956 3463 1253 3523 
Q 1550 3584 1831 3584 
Q 2591 3584 2966 3190 
Q 3341 2797 3341 1997 
z
" transform="scale(0.015625)"/>
      <path id="DejaVuSans-6d" d="M 3328 2828 
Q 3544 3216 3844 3400 
Q 4144 3584 4550 3584 
Q 5097 3584 5394 3201 
Q 5691 2819 5691 2113 
L 5691 0 
L 5113 0 
L 5113 2094 
Q 5113 2597 4934 2840 
Q 4756 3084 4391 3084 
Q 3944 3084 3684 2787 
Q 3425 2491 3425 1978 
L 3425 0 
L 2847 0 
L 2847 2094 
Q 2847 2600 2669 2842 
Q 2491 3084 2119 3084 
Q 1678 3084 1418 2786 
Q 1159 2488 1159 1978 
L 1159 0 
L 581 0 
L 581 3500 
L 1159 3500 
L 1159 2956 
Q 1356 3278 1631 3431 
Q 1906 3584 2284 3584 
Q 2666 3584 2933 3390 
Q 3200 3197 3328 2828 
z
" transform="scale(0.015625)"/>
      <path id="DejaVuSans-62" d="M 3116 1747 
Q 3116 2381 2855 2742 
Q 2594 3103 2138 3103 
Q 1681 3103 1420 2742 
Q 1159 2381 1159 1747 
Q 1159 1113 1420 752 
Q 1681 391 2138 391 
Q 2594 391 2855 752 
Q 3116 1113 3116 1747 
z
M 1159 2969 
Q 1341 3281 1617 3432 
Q 1894 3584 2278 3584 
Q 2916 3584 3314 3078 
Q 3713 2572 3713 1747 
Q 3713 922 3314 415 
Q 2916 -91 2278 -91 
Q 1894 -91 1617 61 
Q 1341 213 1159 525 
L 1159 0 
L 581 0 
L 581 4863 
L 1159 4863 
L 1159 2969 
z
" transform="scale(0.015625)"/>
      <path id="DejaVuSans-69" d="M 603 3500 
L 1178 3500 
L 1178 0 
L 603 0 
L 603 3500 
z
M 603 4863 
L 1178 4863 
L 1178 4134 
L 603 4134 
L 603 4863 
z
" transform="scale(0.015625)"/>
      <path id="DejaVuSans-63" d="M 3122 3366 
L 3122 2828 
Q 2878 2963 2633 3030 
Q 2388 3097 2138 3097 
Q 1578 3097 1268 2742 
Q 959 2388 959 1747 
Q 959 1106 1268 751 
Q 1578 397 2138 397 
Q 2388 397 2633 464 
Q 2878 531 3122 666 
L 3122 134 
Q 2881 22 2623 -34 
Q 2366 -91 2075 -91 
Q 1284 -91 818 406 
Q 353 903 353 1747 
Q 353 2603 823 3093 
Q 1294 3584 2113 3584 
Q 2378 3584 2631 3529 
Q 2884 3475 3122 3366 
z
" transform="scale(0.015625)"/>
     </defs>
     <use xlink:href="#DejaVuSans-49"/>
     <use xlink:href="#DejaVuSans-61" x="29.492188"/>
     <use xlink:href="#DejaVuSans-6d" x="90.771484"/>
     <use xlink:href="#DejaVuSans-62" x="188.183594"/>
     <use xlink:href="#DejaVuSans-69" x="251.660156"/>
     <use xlink:href="#DejaVuSans-63" x="279.443359"/>
    </g>
   </g>
   <g id="text_13">
    <!-- Parse -->
    <g transform="translate(361.832136 97.61133)scale(0.08 -0.08)">
     <defs>
      <path id="DejaVuSans-72" d="M 2631 2963 
Q 2534 3019 2420 3045 
Q 2306 3072 2169 3072 
Q 1681 3072 1420 2755 
Q 1159 2438 1159 1844 
L 1159 0 
L 581 0 
L 581 3500 
L 1159 3500 
L 1159 2956 
Q 1341 3275 1631 3429 
Q 1922 3584 2338 3584 
Q 2397 3584 2469 3576 
Q 2541 3569 2628 3553 
L 2631 2963 
z
" transform="scale(0.015625)"/>
      <path id="DejaVuSans-73" d="M 2834 3397 
L 2834 2853 
Q 2591 2978 2328 3040 
Q 2066 3103 1784 3103 
Q 1356 3103 1142 2972 
Q 928 2841 928 2578 
Q 928 2378 1081 2264 
Q 1234 2150 1697 2047 
L 1894 2003 
Q 2506 1872 2764 1633 
Q 3022 1394 3022 966 
Q 3022 478 2636 193 
Q 2250 -91 1575 -91 
Q 1294 -91 989 -36 
Q 684 19 347 128 
L 347 722 
Q 666 556 975 473 
Q 1284 391 1588 391 
Q 1994 391 2212 530 
Q 2431 669 2431 922 
Q 2431 1156 2273 1281 
Q 2116 1406 1581 1522 
L 1381 1569 
Q 847 1681 609 1914 
Q 372 2147 372 2553 
Q 372 3047 722 3315 
Q 1072 3584 1716 3584 
Q 2034 3584 2315 3537 
Q 2597 3491 2834 3397 
z
" transform="scale(0.015625)"/>
      <path id="DejaVuSans-65" d="M 3597 1894 
L 3597 1613 
L 953 1613 
Q 991 1019 1311 708 
Q 1631 397 2203 397 
Q 2534 397 2845 478 
Q 3156 559 3463 722 
L 3463 178 
Q 3153 47 2828 -22 
Q 2503 -91 2169 -91 
Q 1331 -91 842 396 
Q 353 884 353 1716 
Q 353 2575 817 3079 
Q 1281 3584 2069 3584 
Q 2775 3584 3186 3129 
Q 3597 2675 3597 1894 
z
M 3022 2063 
Q 3016 2534 2758 2815 
Q 2500 3097 2075 3097 
Q 1594 3097 1305 2825 
Q 1016 2553 972 2059 
L 3022 2063 
z
" transform="scale(0.015625)"/>
     </defs>
     <use xlink:href="#DejaVuSans-50"/>
     <use xlink:href="#DejaVuSans-61" x="55.802734"/>
     <use xlink:href="#DejaVuSans-72" x="117.082031"/>
     <use xlink:href="#DejaVuSans-73" x="158.195312"/>
     <use xlink:href="#DejaVuSans-65" x="210.294922"/>
    </g>
   </g>
   <g id="text_14">
    <!-- FootBin -->
    <g transform="translate(361.832136 77.795229)scale(0.08 -0.08)">
     <defs>
      <path id="DejaVuSans-46" d="M 628 4666 
L 3309 4666 
L 3309 4134 
L 1259 4134 
L 1259 2759 
L 3109 2759 
L 3109 2228 
L 1259 2228 
L 1259 0 
L 628 0 
L 628 4666 
z
" transform="scale(0.015625)"/>
      <path id="DejaVuSans-6f" d="M 1959 3097 
Q 1497 3097 1228 2736 
Q 959 2375 959 1747 
Q 959 1119 1226 758 
Q 1494 397 1959 397 
Q 2419 397 2687 759 
Q 2956 1122 2956 1747 
Q 2956 2369 2687 2733 
Q 2419 3097 1959 3097 
z
M 1959 3584 
Q 2709 3584 3137 3096 
Q 3566 2609 3566 1747 
Q 3566 888 3137 398 
Q 2709 -91 1959 -91 
Q 1206 -91 779 398 
Q 353 888 353 1747 
Q 353 2609 779 3096 
Q 1206 3584 1959 3584 
z
" transform="scale(0.015625)"/>
      <path id="DejaVuSans-74" d="M 1172 4494 
L 1172 3500 
L 2356 3500 
L 2356 3053 
L 1172 3053 
L 1172 1153 
Q 1172 725 1289 603 
Q 1406 481 1766 481 
L 2356 481 
L 2356 0 
L 1766 0 
Q 1100 0 847 248 
Q 594 497 594 1153 
L 594 3053 
L 172 3053 
L 172 3500 
L 594 3500 
L 594 4494 
L 1172 4494 
z
" transform="scale(0.015625)"/>
      <path id="DejaVuSans-42" d="M 1259 2228 
L 1259 519 
L 2272 519 
Q 2781 519 3026 730 
Q 3272 941 3272 1375 
Q 3272 1813 3026 2020 
Q 2781 2228 2272 2228 
L 1259 2228 
z
M 1259 4147 
L 1259 2741 
L 2194 2741 
Q 2656 2741 2882 2914 
Q 3109 3088 3109 3444 
Q 3109 3797 2882 3972 
Q 2656 4147 2194 4147 
L 1259 4147 
z
M 628 4666 
L 2241 4666 
Q 2963 4666 3353 4366 
Q 3744 4066 3744 3513 
Q 3744 3084 3544 2831 
Q 3344 2578 2956 2516 
Q 3422 2416 3680 2098 
Q 3938 1781 3938 1306 
Q 3938 681 3513 340 
Q 3088 0 2303 0 
L 628 0 
L 628 4666 
z
" transform="scale(0.015625)"/>
      <path id="DejaVuSans-6e" d="M 3513 2113 
L 3513 0 
L 2938 0 
L 2938 2094 
Q 2938 2591 2744 2837 
Q 2550 3084 2163 3084 
Q 1697 3084 1428 2787 
Q 1159 2491 1159 1978 
L 1159 0 
L 581 0 
L 581 3500 
L 1159 3500 
L 1159 2956 
Q 1366 3272 1645 3428 
Q 1925 3584 2291 3584 
Q 2894 3584 3203 3211 
Q 3513 2838 3513 2113 
z
" transform="scale(0.015625)"/>
     </defs>
     <use xlink:href="#DejaVuSans-46"/>
     <use xlink:href="#DejaVuSans-6f" x="53.894531"/>
     <use xlink:href="#DejaVuSans-6f" x="115.076172"/>
     <use xlink:href="#DejaVuSans-74" x="176.257812"/>
     <use xlink:href="#DejaVuSans-42" x="215.466797"/>
     <use xlink:href="#DejaVuSans-69" x="284.070312"/>
     <use xlink:href="#DejaVuSans-6e" x="311.853516"/>
    </g>
   </g>
   <g id="text_15">
    <!-- WFL -->
    <g transform="translate(361.832136 79.682476)scale(0.08 -0.08)">
     <defs>
      <path id="DejaVuSans-4c" d="M 628 4666 
L 1259 4666 
L 1259 531 
L 3531 531 
L 3531 0 
L 628 0 
L 628 4666 
z
" transform="scale(0.015625)"/>
     </defs>
     <use xlink:href="#DejaVuSans-57"/>
     <use xlink:href="#DejaVuSans-46" x="98.876953"/>
     <use xlink:href="#DejaVuSans-4c" x="156.396484"/>
    </g>
   </g>
   <g id="text_16">
    <!-- WFR -->
    <g transform="translate(361.832136 131.267249)scale(0.08 -0.08)">
     <defs>
      <path id="DejaVuSans-52" d="M 2841 2188 
Q 3044 2119 3236 1894 
Q 3428 1669 3622 1275 
L 4263 0 
L 3584 0 
L 2988 1197 
Q 2756 1666 2539 1819 
Q 2322 1972 1947 1972 
L 1259 1972 
L 1259 0 
L 628 0 
L 628 4666 
L 2053 4666 
Q 2853 4666 3247 4331 
Q 3641 3997 3641 3322 
Q 3641 2881 3436 2590 
Q 3231 2300 2841 2188 
z
M 1259 4147 
L 1259 2491 
L 2053 2491 
Q 2509 2491 2742 2702 
Q 2975 2913 2975 3322 
Q 2975 3731 2742 3939 
Q 2509 4147 2053 4147 
L 1259 4147 
z
" transform="scale(0.015625)"/>
     </defs>
     <use xlink:href="#DejaVuSans-57"/>
     <use xlink:href="#DejaVuSans-46" x="98.876953"/>
     <use xlink:href="#DejaVuSans-52" x="156.396484"/>
    </g>
   </g>
   <g id="text_17">
    <!-- Main-L -->
    <g transform="translate(361.832136 66.345926)scale(0.08 -0.08)">
     <defs>
      <path id="DejaVuSans-4d" d="M 628 4666 
L 1569 4666 
L 2759 1491 
L 3956 4666 
L 4897 4666 
L 4897 0 
L 4281 0 
L 4281 4097 
L 3078 897 
L 2444 897 
L 1241 4097 
L 1241 0 
L 628 0 
L 628 4666 
z
" transform="scale(0.015625)"/>
      <path id="DejaVuSans-2d" d="M 313 2009 
L 1997 2009 
L 1997 1497 
L 313 1497 
L 313 2009 
z
" transform="scale(0.015625)"/>
     </defs>
     <use xlink:href="#DejaVuSans-4d"/>
     <use xlink:href="#DejaVuSans-61" x="86.279297"/>
     <use xlink:href="#DejaVuSans-69" x="147.558594"/>
     <use xlink:href="#DejaVuSans-6e" x="175.341797"/>
     <use xlink:href="#DejaVuSans-2d" x="238.720703"/>
     <use xlink:href="#DejaVuSans-4c" x="274.804688"/>
    </g>
   </g>
   <g id="text_18">
    <!-- Main-R -->
    <g transform="translate(361.832136 99.309853)scale(0.08 -0.08)">
     <use xlink:href="#DejaVuSans-4d"/>
     <use xlink:href="#DejaVuSans-61" x="86.279297"/>
     <use xlink:href="#DejaVuSans-69" x="147.558594"/>
     <use xlink:href="#DejaVuSans-6e" x="175.341797"/>
     <use xlink:href="#DejaVuSans-2d" x="238.720703"/>
     <use xlink:href="#DejaVuSans-52" x="274.804688"/>
    </g>
   </g>
   <g id="text_19">
    <!-- AFL -->
    <g transform="translate(361.832136 46.970182)scale(0.08 -0.08)">
     <defs>
      <path id="DejaVuSans-41" d="M 2188 4044 
L 1331 1722 
L 3047 1722 
L 2188 4044 
z
M 1831 4666 
L 2547 4666 
L 4325 0 
L 3669 0 
L 3244 1197 
L 1141 1197 
L 716 0 
L 50 0 
L 1831 4666 
z
" transform="scale(0.015625)"/>
     </defs>
     <use xlink:href="#DejaVuSans-41"/>
     <use xlink:href="#DejaVuSans-46" x="68.408203"/>
     <use xlink:href="#DejaVuSans-4c" x="125.927734"/>
    </g>
   </g>
   <g id="text_20">
    <!-- AFR -->
    <g transform="translate(361.832136 89.873614)scale(0.08 -0.08)">
     <use xlink:href="#DejaVuSans-41"/>
     <use xlink:href="#DejaVuSans-46" x="68.408203"/>
     <use xlink:href="#DejaVuSans-52" x="125.927734"/>
    </g>
   </g>
   <g id="text_21">
    <!-- Nonfinal -->
    <g transform="translate(361.832136 116.169266)scale(0.08 -0.08)">
     <defs>
      <path id="DejaVuSans-4e" d="M 628 4666 
L 1478 4666 
L 3547 763 
L 3547 4666 
L 4159 4666 
L 4159 0 
L 3309 0 
L 1241 3903 
L 1241 0 
L 628 0 
L 628 4666 
z
" transform="scale(0.015625)"/>
      <path id="DejaVuSans-66" d="M 2375 4863 
L 2375 4384 
L 1825 4384 
Q 1516 4384 1395 4259 
Q 1275 4134 1275 3809 
L 1275 3500 
L 2222 3500 
L 2222 3053 
L 1275 3053 
L 1275 0 
L 697 0 
L 697 3053 
L 147 3053 
L 147 3500 
L 697 3500 
L 697 3744 
Q 697 4328 969 4595 
Q 1241 4863 1831 4863 
L 2375 4863 
z
" transform="scale(0.015625)"/>
      <path id="DejaVuSans-6c" d="M 603 4863 
L 1178 4863 
L 1178 0 
L 603 0 
L 603 4863 
z
" transform="scale(0.015625)"/>
     </defs>
     <use xlink:href="#DejaVuSans-4e"/>
     <use xlink:href="#DejaVuSans-6f" x="74.804688"/>
     <use xlink:href="#DejaVuSans-6e" x="135.986328"/>
     <use xlink:href="#DejaVuSans-66" x="199.365234"/>
     <use xlink:href="#DejaVuSans-69" x="234.570312"/>
     <use xlink:href="#DejaVuSans-6e" x="262.353516"/>
     <use xlink:href="#DejaVuSans-61" x="325.732422"/>
     <use xlink:href="#DejaVuSans-6c" x="387.011719"/>
    </g>
   </g>
   <g id="text_22">
    <!-- Trochaic -->
    <g transform="translate(361.832136 149.510644)scale(0.08 -0.08)">
     <defs>
      <path id="DejaVuSans-54" d="M -19 4666 
L 3928 4666 
L 3928 4134 
L 2272 4134 
L 2272 0 
L 1638 0 
L 1638 4134 
L -19 4134 
L -19 4666 
z
" transform="scale(0.015625)"/>
      <path id="DejaVuSans-68" d="M 3513 2113 
L 3513 0 
L 2938 0 
L 2938 2094 
Q 2938 2591 2744 2837 
Q 2550 3084 2163 3084 
Q 1697 3084 1428 2787 
Q 1159 2491 1159 1978 
L 1159 0 
L 581 0 
L 581 4863 
L 1159 4863 
L 1159 2956 
Q 1366 3272 1645 3428 
Q 1925 3584 2291 3584 
Q 2894 3584 3203 3211 
Q 3513 2838 3513 2113 
z
" transform="scale(0.015625)"/>
     </defs>
     <use xlink:href="#DejaVuSans-54"/>
     <use xlink:href="#DejaVuSans-72" x="46.333984"/>
     <use xlink:href="#DejaVuSans-6f" x="85.197266"/>
     <use xlink:href="#DejaVuSans-63" x="146.378906"/>
     <use xlink:href="#DejaVuSans-68" x="201.359375"/>
     <use xlink:href="#DejaVuSans-61" x="264.738281"/>
     <use xlink:href="#DejaVuSans-69" x="326.017578"/>
     <use xlink:href="#DejaVuSans-63" x="353.800781"/>
    </g>
   </g>
  </g>
  <g id="axes_2">
   <g id="patch_7">
    <path d="M 57.6 307.584 
L 414.72 307.584 
L 414.72 186.624 
L 57.6 186.624 
z
" style="fill: #ffffff"/>
   </g>
   <g id="matplotlib.axis_3">
    <g id="xtick_8">
     <g id="line2d_23">
      <g>
       <use xlink:href="#m84e4b90fcc" x="66.618182" y="307.584" style="stroke: #000000; stroke-width: 0.8"/>
      </g>
     </g>
     <g id="text_23">
      <!-- 0 -->
      <g transform="translate(63.436932 322.182437)scale(0.1 -0.1)">
       <use xlink:href="#DejaVuSans-30"/>
      </g>
     </g>
    </g>
    <g id="xtick_9">
     <g id="line2d_24">
      <g>
       <use xlink:href="#m84e4b90fcc" x="138.763636" y="307.584" style="stroke: #000000; stroke-width: 0.8"/>
      </g>
     </g>
     <g id="text_24">
      <!-- 10 -->
      <g transform="translate(132.401136 322.182437)scale(0.1 -0.1)">
       <use xlink:href="#DejaVuSans-31"/>
       <use xlink:href="#DejaVuSans-30" x="63.623047"/>
      </g>
     </g>
    </g>
    <g id="xtick_10">
     <g id="line2d_25">
      <g>
       <use xlink:href="#m84e4b90fcc" x="210.909091" y="307.584" style="stroke: #000000; stroke-width: 0.8"/>
      </g>
     </g>
     <g id="text_25">
      <!-- 20 -->
      <g transform="translate(204.546591 322.182437)scale(0.1 -0.1)">
       <use xlink:href="#DejaVuSans-32"/>
       <use xlink:href="#DejaVuSans-30" x="63.623047"/>
      </g>
     </g>
    </g>
    <g id="xtick_11">
     <g id="line2d_26">
      <g>
       <use xlink:href="#m84e4b90fcc" x="283.054545" y="307.584" style="stroke: #000000; stroke-width: 0.8"/>
      </g>
     </g>
     <g id="text_26">
      <!-- 30 -->
      <g transform="translate(276.692045 322.182437)scale(0.1 -0.1)">
       <use xlink:href="#DejaVuSans-33"/>
       <use xlink:href="#DejaVuSans-30" x="63.623047"/>
      </g>
     </g>
    </g>
    <g id="xtick_12">
     <g id="line2d_27">
      <g>
       <use xlink:href="#m84e4b90fcc" x="355.2" y="307.584" style="stroke: #000000; stroke-width: 0.8"/>
      </g>
     </g>
     <g id="text_27">
      <!-- 40 -->
      <g transform="translate(348.8375 322.182437)scale(0.1 -0.1)">
       <use xlink:href="#DejaVuSans-34"/>
       <use xlink:href="#DejaVuSans-30" x="63.623047"/>
      </g>
     </g>
    </g>
   </g>
   <g id="matplotlib.axis_4">
    <g id="ytick_4">
     <g id="line2d_28">
      <g>
       <use xlink:href="#m40d872e8f7" x="57.6" y="302.108421" style="stroke: #000000; stroke-width: 0.8"/>
      </g>
     </g>
     <g id="text_28">
      <!-- 0 -->
      <g transform="translate(44.2375 305.90764)scale(0.1 -0.1)">
       <use xlink:href="#DejaVuSans-30"/>
      </g>
     </g>
    </g>
    <g id="ytick_5">
     <g id="line2d_29">
      <g>
       <use xlink:href="#m40d872e8f7" x="57.6" y="279.505413" style="stroke: #000000; stroke-width: 0.8"/>
      </g>
     </g>
     <g id="text_29">
      <!-- 1000 -->
      <g transform="translate(25.15 283.304631)scale(0.1 -0.1)">
       <use xlink:href="#DejaVuSans-31"/>
       <use xlink:href="#DejaVuSans-30" x="63.623047"/>
       <use xlink:href="#DejaVuSans-30" x="127.246094"/>
       <use xlink:href="#DejaVuSans-30" x="190.869141"/>
      </g>
     </g>
    </g>
    <g id="ytick_6">
     <g id="line2d_30">
      <g>
       <use xlink:href="#m40d872e8f7" x="57.6" y="256.902404" style="stroke: #000000; stroke-width: 0.8"/>
      </g>
     </g>
     <g id="text_30">
      <!-- 2000 -->
      <g transform="translate(25.15 260.701623)scale(0.1 -0.1)">
       <use xlink:href="#DejaVuSans-32"/>
       <use xlink:href="#DejaVuSans-30" x="63.623047"/>
       <use xlink:href="#DejaVuSans-30" x="127.246094"/>
       <use xlink:href="#DejaVuSans-30" x="190.869141"/>
      </g>
     </g>
    </g>
    <g id="ytick_7">
     <g id="line2d_31">
      <g>
       <use xlink:href="#m40d872e8f7" x="57.6" y="234.299396" style="stroke: #000000; stroke-width: 0.8"/>
      </g>
     </g>
     <g id="text_31">
      <!-- 3000 -->
      <g transform="translate(25.15 238.098614)scale(0.1 -0.1)">
       <use xlink:href="#DejaVuSans-33"/>
       <use xlink:href="#DejaVuSans-30" x="63.623047"/>
       <use xlink:href="#DejaVuSans-30" x="127.246094"/>
       <use xlink:href="#DejaVuSans-30" x="190.869141"/>
      </g>
     </g>
    </g>
    <g id="ytick_8">
     <g id="line2d_32">
      <g>
       <use xlink:href="#m40d872e8f7" x="57.6" y="211.696387" style="stroke: #000000; stroke-width: 0.8"/>
      </g>
     </g>
     <g id="text_32">
      <!-- 4000 -->
      <g transform="translate(25.15 215.495606)scale(0.1 -0.1)">
       <use xlink:href="#DejaVuSans-34"/>
       <use xlink:href="#DejaVuSans-30" x="63.623047"/>
       <use xlink:href="#DejaVuSans-30" x="127.246094"/>
       <use xlink:href="#DejaVuSans-30" x="190.869141"/>
      </g>
     </g>
    </g>
    <g id="ytick_9">
     <g id="line2d_33">
      <g>
       <use xlink:href="#m40d872e8f7" x="57.6" y="189.093379" style="stroke: #000000; stroke-width: 0.8"/>
      </g>
     </g>
     <g id="text_33">
      <!-- 5000 -->
      <g transform="translate(25.15 192.892597)scale(0.1 -0.1)">
       <use xlink:href="#DejaVuSans-35"/>
       <use xlink:href="#DejaVuSans-30" x="63.623047"/>
       <use xlink:href="#DejaVuSans-30" x="127.246094"/>
       <use xlink:href="#DejaVuSans-30" x="190.869141"/>
      </g>
     </g>
    </g>
   </g>
   <g id="line2d_34">
    <path d="M 73.832727 302.085818 
L 81.047273 302.085818 
L 88.261818 302.085818 
L 95.476364 302.018009 
L 102.690909 302.063215 
L 109.905455 302.018009 
L 117.12 301.9502 
L 124.334545 302.085818 
L 131.549091 301.995406 
L 138.763636 302.018009 
L 145.978182 302.063215 
L 153.192727 301.995406 
L 160.407273 301.904994 
L 167.621818 302.040612 
L 174.836364 302.018009 
L 182.050909 301.837185 
L 189.265455 301.791979 
L 196.48 301.9502 
L 203.694545 301.611155 
L 210.909091 301.837185 
L 218.123636 301.746773 
L 225.338182 301.588552 
L 232.552727 301.904994 
L 239.767273 301.249507 
L 246.981818 301.249507 
L 254.196364 301.226904 
L 261.410909 301.136492 
L 268.625455 299.350854 
L 275.84 301.972803 
L 283.054545 301.27211 
L 290.269091 299.712502 
L 297.483636 301.814582 
L 304.698182 301.362522 
L 311.912727 297.339186 
L 319.127273 301.385125 
L 326.341818 290.716505 
L 333.556364 299.102221 
L 340.770909 282.104759 
L 347.985455 284.952738 
L 355.2 292.524746 
L 362.414545 296.028212 
L 369.629091 223.675982 
L 376.843636 192.122182 
L 384.058182 288.524013 
L 391.272727 297.723438 
L 398.487273 198.925687 
" clip-path="url(#p24caaa0dfe)" style="fill: none; stroke: #1f77b4; stroke-width: 1.5; stroke-linecap: square"/>
   </g>
   <g id="patch_8">
    <path d="M 57.6 307.584 
L 57.6 186.624 
" style="fill: none; stroke: #000000; stroke-width: 0.8; stroke-linejoin: miter; stroke-linecap: square"/>
   </g>
   <g id="patch_9">
    <path d="M 414.72 307.584 
L 414.72 186.624 
" style="fill: none; stroke: #000000; stroke-width: 0.8; stroke-linejoin: miter; stroke-linecap: square"/>
   </g>
   <g id="patch_10">
    <path d="M 57.6 307.584 
L 414.72 307.584 
" style="fill: none; stroke: #000000; stroke-width: 0.8; stroke-linejoin: miter; stroke-linecap: square"/>
   </g>
   <g id="patch_11">
    <path d="M 57.6 186.624 
L 414.72 186.624 
" style="fill: none; stroke: #000000; stroke-width: 0.8; stroke-linejoin: miter; stroke-linecap: square"/>
   </g>
  </g>
 </g>
 <defs>
  <clipPath id="p7641e931dc">
   <rect x="57.6" y="41.472" width="357.12" height="120.96"/>
  </clipPath>
  <clipPath id="p24caaa0dfe">
   <rect x="57.6" y="186.624" width="357.12" height="120.96"/>
  </clipPath>
 </defs>
</svg>
