<?xml version="1.0" encoding="utf-8" standalone="no"?>
<!DOCTYPE svg PUBLIC "-//W3C//DTD SVG 1.1//EN"
  "http://www.w3.org/Graphics/SVG/1.1/DTD/svg11.dtd">
<svg xmlns:xlink="http://www.w3.org/1999/xlink" width="460.8pt" height="345.6pt" viewBox="0 0 460.8 345.6" xmlns="http://www.w3.org/2000/svg" version="1.1">
 <metadata>
  <rdf:RDF xmlns:dc="http://purl.org/dc/elements/1.1/" xmlns:cc="http://creativecommons.org/ns#" xmlns:rdf="http://www.w3.org/1999/02/22-rdf-syntax-ns#">
   <cc:Work>
    <dc:type rdf:resource="http://purl.org/dc/dcmitype/StillImage"/>
    <dc:date>2022-05-14T00:55:23.882499</dc:date>
    <dc:format>image/svg+xml</dc:format>
    <dc:creator>
     <cc:Agent>
      <dc:title>Matplotlib v3.5.1, https://matplotlib.org/</dc:title>
     </cc:Agent>
    </dc:creator>
   </cc:Work>
  </rdf:RDF>
 </metadata>
 <defs>
  <style type="text/css">*{stroke-linejoin: round; stroke-linecap: butt}</style>
 </defs>
 <g id="figure_1">
  <g id="patch_1">
   <path d="M 0 345.6 
L 460.8 345.6 
L 460.8 0 
L 0 0 
z
" style="fill: #ffffff"/>
  </g>
  <g id="axes_1">
   <g id="patch_2">
    <path d="M 57.6 162.432 
L 414.72 162.432 
L 414.72 41.472 
L 57.6 41.472 
z
" style="fill: #ffffff"/>
   </g>
   <g id="matplotlib.axis_1">
    <g id="xtick_1">
     <g id="line2d_1">
      <defs>
       <path id="m4c5e5b9bd2" d="M 0 0 
L 0 3.5 
" style="stroke: #000000; stroke-width: 0.8"/>
      </defs>
      <g>
       <use xlink:href="#m4c5e5b9bd2" x="73.827491" y="162.432" style="stroke: #000000; stroke-width: 0.8"/>
      </g>
     </g>
     <g id="text_1">
      <!-- 0 -->
      <g transform="translate(70.646241 177.030437)scale(0.1 -0.1)">
       <defs>
        <path id="DejaVuSans-30" d="M 2034 4250 
Q 1547 4250 1301 3770 
Q 1056 3291 1056 2328 
Q 1056 1369 1301 889 
Q 1547 409 2034 409 
Q 2525 409 2770 889 
Q 3016 1369 3016 2328 
Q 3016 3291 2770 3770 
Q 2525 4250 2034 4250 
z
M 2034 4750 
Q 2819 4750 3233 4129 
Q 3647 3509 3647 2328 
Q 3647 1150 3233 529 
Q 2819 -91 2034 -91 
Q 1250 -91 836 529 
Q 422 1150 422 2328 
Q 422 3509 836 4129 
Q 1250 4750 2034 4750 
z
" transform="scale(0.015625)"/>
       </defs>
       <use xlink:href="#DejaVuSans-30"/>
      </g>
     </g>
    </g>
    <g id="xtick_2">
     <g id="line2d_2">
      <g>
       <use xlink:href="#m4c5e5b9bd2" x="126.191972" y="162.432" style="stroke: #000000; stroke-width: 0.8"/>
      </g>
     </g>
     <g id="text_2">
      <!-- 10000 -->
      <g transform="translate(110.285722 177.030437)scale(0.1 -0.1)">
       <defs>
        <path id="DejaVuSans-31" d="M 794 531 
L 1825 531 
L 1825 4091 
L 703 3866 
L 703 4441 
L 1819 4666 
L 2450 4666 
L 2450 531 
L 3481 531 
L 3481 0 
L 794 0 
L 794 531 
z
" transform="scale(0.015625)"/>
       </defs>
       <use xlink:href="#DejaVuSans-31"/>
       <use xlink:href="#DejaVuSans-30" x="63.623047"/>
       <use xlink:href="#DejaVuSans-30" x="127.246094"/>
       <use xlink:href="#DejaVuSans-30" x="190.869141"/>
       <use xlink:href="#DejaVuSans-30" x="254.492188"/>
      </g>
     </g>
    </g>
    <g id="xtick_3">
     <g id="line2d_3">
      <g>
       <use xlink:href="#m4c5e5b9bd2" x="178.556453" y="162.432" style="stroke: #000000; stroke-width: 0.8"/>
      </g>
     </g>
     <g id="text_3">
      <!-- 20000 -->
      <g transform="translate(162.650203 177.030437)scale(0.1 -0.1)">
       <defs>
        <path id="DejaVuSans-32" d="M 1228 531 
L 3431 531 
L 3431 0 
L 469 0 
L 469 531 
Q 828 903 1448 1529 
Q 2069 2156 2228 2338 
Q 2531 2678 2651 2914 
Q 2772 3150 2772 3378 
Q 2772 3750 2511 3984 
Q 2250 4219 1831 4219 
Q 1534 4219 1204 4116 
Q 875 4013 500 3803 
L 500 4441 
Q 881 4594 1212 4672 
Q 1544 4750 1819 4750 
Q 2544 4750 2975 4387 
Q 3406 4025 3406 3419 
Q 3406 3131 3298 2873 
Q 3191 2616 2906 2266 
Q 2828 2175 2409 1742 
Q 1991 1309 1228 531 
z
" transform="scale(0.015625)"/>
       </defs>
       <use xlink:href="#DejaVuSans-32"/>
       <use xlink:href="#DejaVuSans-30" x="63.623047"/>
       <use xlink:href="#DejaVuSans-30" x="127.246094"/>
       <use xlink:href="#DejaVuSans-30" x="190.869141"/>
       <use xlink:href="#DejaVuSans-30" x="254.492188"/>
      </g>
     </g>
    </g>
    <g id="xtick_4">
     <g id="line2d_4">
      <g>
       <use xlink:href="#m4c5e5b9bd2" x="230.920934" y="162.432" style="stroke: #000000; stroke-width: 0.8"/>
      </g>
     </g>
     <g id="text_4">
      <!-- 30000 -->
      <g transform="translate(215.014684 177.030437)scale(0.1 -0.1)">
       <defs>
        <path id="DejaVuSans-33" d="M 2597 2516 
Q 3050 2419 3304 2112 
Q 3559 1806 3559 1356 
Q 3559 666 3084 287 
Q 2609 -91 1734 -91 
Q 1441 -91 1130 -33 
Q 819 25 488 141 
L 488 750 
Q 750 597 1062 519 
Q 1375 441 1716 441 
Q 2309 441 2620 675 
Q 2931 909 2931 1356 
Q 2931 1769 2642 2001 
Q 2353 2234 1838 2234 
L 1294 2234 
L 1294 2753 
L 1863 2753 
Q 2328 2753 2575 2939 
Q 2822 3125 2822 3475 
Q 2822 3834 2567 4026 
Q 2313 4219 1838 4219 
Q 1578 4219 1281 4162 
Q 984 4106 628 3988 
L 628 4550 
Q 988 4650 1302 4700 
Q 1616 4750 1894 4750 
Q 2613 4750 3031 4423 
Q 3450 4097 3450 3541 
Q 3450 3153 3228 2886 
Q 3006 2619 2597 2516 
z
" transform="scale(0.015625)"/>
       </defs>
       <use xlink:href="#DejaVuSans-33"/>
       <use xlink:href="#DejaVuSans-30" x="63.623047"/>
       <use xlink:href="#DejaVuSans-30" x="127.246094"/>
       <use xlink:href="#DejaVuSans-30" x="190.869141"/>
       <use xlink:href="#DejaVuSans-30" x="254.492188"/>
      </g>
     </g>
    </g>
    <g id="xtick_5">
     <g id="line2d_5">
      <g>
       <use xlink:href="#m4c5e5b9bd2" x="283.285415" y="162.432" style="stroke: #000000; stroke-width: 0.8"/>
      </g>
     </g>
     <g id="text_5">
      <!-- 40000 -->
      <g transform="translate(267.379165 177.030437)scale(0.1 -0.1)">
       <defs>
        <path id="DejaVuSans-34" d="M 2419 4116 
L 825 1625 
L 2419 1625 
L 2419 4116 
z
M 2253 4666 
L 3047 4666 
L 3047 1625 
L 3713 1625 
L 3713 1100 
L 3047 1100 
L 3047 0 
L 2419 0 
L 2419 1100 
L 313 1100 
L 313 1709 
L 2253 4666 
z
" transform="scale(0.015625)"/>
       </defs>
       <use xlink:href="#DejaVuSans-34"/>
       <use xlink:href="#DejaVuSans-30" x="63.623047"/>
       <use xlink:href="#DejaVuSans-30" x="127.246094"/>
       <use xlink:href="#DejaVuSans-30" x="190.869141"/>
       <use xlink:href="#DejaVuSans-30" x="254.492188"/>
      </g>
     </g>
    </g>
    <g id="xtick_6">
     <g id="line2d_6">
      <g>
       <use xlink:href="#m4c5e5b9bd2" x="335.649896" y="162.432" style="stroke: #000000; stroke-width: 0.8"/>
      </g>
     </g>
     <g id="text_6">
      <!-- 50000 -->
      <g transform="translate(319.743646 177.030437)scale(0.1 -0.1)">
       <defs>
        <path id="DejaVuSans-35" d="M 691 4666 
L 3169 4666 
L 3169 4134 
L 1269 4134 
L 1269 2991 
Q 1406 3038 1543 3061 
Q 1681 3084 1819 3084 
Q 2600 3084 3056 2656 
Q 3513 2228 3513 1497 
Q 3513 744 3044 326 
Q 2575 -91 1722 -91 
Q 1428 -91 1123 -41 
Q 819 9 494 109 
L 494 744 
Q 775 591 1075 516 
Q 1375 441 1709 441 
Q 2250 441 2565 725 
Q 2881 1009 2881 1497 
Q 2881 1984 2565 2268 
Q 2250 2553 1709 2553 
Q 1456 2553 1204 2497 
Q 953 2441 691 2322 
L 691 4666 
z
" transform="scale(0.015625)"/>
       </defs>
       <use xlink:href="#DejaVuSans-35"/>
       <use xlink:href="#DejaVuSans-30" x="63.623047"/>
       <use xlink:href="#DejaVuSans-30" x="127.246094"/>
       <use xlink:href="#DejaVuSans-30" x="190.869141"/>
       <use xlink:href="#DejaVuSans-30" x="254.492188"/>
      </g>
     </g>
    </g>
    <g id="xtick_7">
     <g id="line2d_7">
      <g>
       <use xlink:href="#m4c5e5b9bd2" x="388.014377" y="162.432" style="stroke: #000000; stroke-width: 0.8"/>
      </g>
     </g>
     <g id="text_7">
      <!-- 60000 -->
      <g transform="translate(372.108127 177.030437)scale(0.1 -0.1)">
       <defs>
        <path id="DejaVuSans-36" d="M 2113 2584 
Q 1688 2584 1439 2293 
Q 1191 2003 1191 1497 
Q 1191 994 1439 701 
Q 1688 409 2113 409 
Q 2538 409 2786 701 
Q 3034 994 3034 1497 
Q 3034 2003 2786 2293 
Q 2538 2584 2113 2584 
z
M 3366 4563 
L 3366 3988 
Q 3128 4100 2886 4159 
Q 2644 4219 2406 4219 
Q 1781 4219 1451 3797 
Q 1122 3375 1075 2522 
Q 1259 2794 1537 2939 
Q 1816 3084 2150 3084 
Q 2853 3084 3261 2657 
Q 3669 2231 3669 1497 
Q 3669 778 3244 343 
Q 2819 -91 2113 -91 
Q 1303 -91 875 529 
Q 447 1150 447 2328 
Q 447 3434 972 4092 
Q 1497 4750 2381 4750 
Q 2619 4750 2861 4703 
Q 3103 4656 3366 4563 
z
" transform="scale(0.015625)"/>
       </defs>
       <use xlink:href="#DejaVuSans-36"/>
       <use xlink:href="#DejaVuSans-30" x="63.623047"/>
       <use xlink:href="#DejaVuSans-30" x="127.246094"/>
       <use xlink:href="#DejaVuSans-30" x="190.869141"/>
       <use xlink:href="#DejaVuSans-30" x="254.492188"/>
      </g>
     </g>
    </g>
   </g>
   <g id="matplotlib.axis_2">
    <g id="ytick_1">
     <g id="line2d_8">
      <defs>
       <path id="mae9dbae296" d="M 0 0 
L -3.5 0 
" style="stroke: #000000; stroke-width: 0.8"/>
      </defs>
      <g>
       <use xlink:href="#mae9dbae296" x="57.6" y="135.324751" style="stroke: #000000; stroke-width: 0.8"/>
      </g>
     </g>
     <g id="text_8">
      <!-- 80 -->
      <g transform="translate(37.875 139.123969)scale(0.1 -0.1)">
       <defs>
        <path id="DejaVuSans-38" d="M 2034 2216 
Q 1584 2216 1326 1975 
Q 1069 1734 1069 1313 
Q 1069 891 1326 650 
Q 1584 409 2034 409 
Q 2484 409 2743 651 
Q 3003 894 3003 1313 
Q 3003 1734 2745 1975 
Q 2488 2216 2034 2216 
z
M 1403 2484 
Q 997 2584 770 2862 
Q 544 3141 544 3541 
Q 544 4100 942 4425 
Q 1341 4750 2034 4750 
Q 2731 4750 3128 4425 
Q 3525 4100 3525 3541 
Q 3525 3141 3298 2862 
Q 3072 2584 2669 2484 
Q 3125 2378 3379 2068 
Q 3634 1759 3634 1313 
Q 3634 634 3220 271 
Q 2806 -91 2034 -91 
Q 1263 -91 848 271 
Q 434 634 434 1313 
Q 434 1759 690 2068 
Q 947 2378 1403 2484 
z
M 1172 3481 
Q 1172 3119 1398 2916 
Q 1625 2713 2034 2713 
Q 2441 2713 2670 2916 
Q 2900 3119 2900 3481 
Q 2900 3844 2670 4047 
Q 2441 4250 2034 4250 
Q 1625 4250 1398 4047 
Q 1172 3844 1172 3481 
z
" transform="scale(0.015625)"/>
       </defs>
       <use xlink:href="#DejaVuSans-38"/>
       <use xlink:href="#DejaVuSans-30" x="63.623047"/>
      </g>
     </g>
    </g>
    <g id="ytick_2">
     <g id="line2d_9">
      <g>
       <use xlink:href="#mae9dbae296" x="57.6" y="101.472425" style="stroke: #000000; stroke-width: 0.8"/>
      </g>
     </g>
     <g id="text_9">
      <!-- 90 -->
      <g transform="translate(37.875 105.271644)scale(0.1 -0.1)">
       <defs>
        <path id="DejaVuSans-39" d="M 703 97 
L 703 672 
Q 941 559 1184 500 
Q 1428 441 1663 441 
Q 2288 441 2617 861 
Q 2947 1281 2994 2138 
Q 2813 1869 2534 1725 
Q 2256 1581 1919 1581 
Q 1219 1581 811 2004 
Q 403 2428 403 3163 
Q 403 3881 828 4315 
Q 1253 4750 1959 4750 
Q 2769 4750 3195 4129 
Q 3622 3509 3622 2328 
Q 3622 1225 3098 567 
Q 2575 -91 1691 -91 
Q 1453 -91 1209 -44 
Q 966 3 703 97 
z
M 1959 2075 
Q 2384 2075 2632 2365 
Q 2881 2656 2881 3163 
Q 2881 3666 2632 3958 
Q 2384 4250 1959 4250 
Q 1534 4250 1286 3958 
Q 1038 3666 1038 3163 
Q 1038 2656 1286 2365 
Q 1534 2075 1959 2075 
z
" transform="scale(0.015625)"/>
       </defs>
       <use xlink:href="#DejaVuSans-39"/>
       <use xlink:href="#DejaVuSans-30" x="63.623047"/>
      </g>
     </g>
    </g>
    <g id="ytick_3">
     <g id="line2d_10">
      <g>
       <use xlink:href="#mae9dbae296" x="57.6" y="67.6201" style="stroke: #000000; stroke-width: 0.8"/>
      </g>
     </g>
     <g id="text_10">
      <!-- 100 -->
      <g transform="translate(31.5125 71.419319)scale(0.1 -0.1)">
       <use xlink:href="#DejaVuSans-31"/>
       <use xlink:href="#DejaVuSans-30" x="63.623047"/>
       <use xlink:href="#DejaVuSans-30" x="127.246094"/>
      </g>
     </g>
    </g>
   </g>
   <g id="line2d_11">
    <path d="M 73.832727 71.005333 
L 73.837964 71.005333 
L 73.963638 81.725236 
L 73.989821 81.725236 
L 74.099786 85.110468 
L 74.105023 84.546263 
L 74.146914 84.546263 
L 74.25688 94.70196 
L 74.267352 93.009344 
L 75.031874 93.009344 
L 75.147076 92.332298 
L 75.236095 92.332298 
L 75.356534 99.102763 
L 76.110582 99.102763 
L 76.225784 102.487995 
L 76.419533 102.487995 
L 76.539971 109.25846 
L 76.890813 109.25846 
L 77.006015 112.643693 
L 78.508875 112.643693 
L 78.624077 116.028925 
L 81.786892 116.028925 
L 81.902094 119.414158 
L 85.489061 119.414158 
L 85.604263 118.737111 
L 87.253744 118.737111 
L 87.368946 122.122344 
L 104.099397 122.122344 
L 104.214599 121.445297 
L 114.57753 121.445297 
L 114.692732 124.83053 
L 119.143713 124.83053 
L 119.258914 128.215762 
L 129.51188 128.215762 
L 129.627082 131.600995 
L 178.45696 131.600995 
L 178.572162 134.986227 
L 223.270483 134.986227 
L 223.385685 138.37146 
L 286.285899 138.37146 
L 286.401101 141.756692 
L 353.689459 141.756692 
L 353.804661 141.079646 
L 398.487273 141.079646 
L 398.487273 141.079646 
" clip-path="url(#p82bd9c987f)" style="fill: none; stroke: #1f77b4; stroke-width: 1.5; stroke-linecap: square"/>
   </g>
   <g id="line2d_12">
    <path d="M 73.832727 67.6201 
L 73.837964 67.6201 
L 73.926983 65.081176 
L 73.853673 70.159025 
L 73.942693 68.466408 
L 73.974111 68.466408 
L 74.000294 65.081176 
L 74.084077 68.466408 
L 74.115495 68.466408 
L 74.230697 71.851641 
L 74.25688 71.851641 
L 74.372081 70.159025 
L 75.031874 70.159025 
L 75.147076 73.544257 
L 75.236095 73.544257 
L 75.351297 70.159025 
L 76.419533 70.159025 
L 76.534734 73.544257 
L 87.253744 73.544257 
L 87.368946 76.92949 
L 90.45845 76.92949 
L 90.573652 80.314722 
L 104.099397 80.314722 
L 104.214599 83.699955 
L 119.143713 83.699955 
L 119.258914 87.085187 
L 353.689459 87.085187 
L 353.804661 90.47042 
L 398.487273 90.47042 
L 398.487273 90.47042 
" clip-path="url(#p82bd9c987f)" style="fill: none; stroke: #ff7f0e; stroke-width: 1.5; stroke-linecap: square"/>
   </g>
   <g id="line2d_13">
    <path d="M 73.832727 67.6201 
L 73.837964 67.6201 
L 73.974111 84.546263 
L 73.989821 84.546263 
L 74.105023 82.853647 
L 74.146914 82.853647 
L 74.272589 79.750517 
L 74.644377 79.750517 
L 74.701978 78.904209 
L 74.707214 82.289441 
L 74.738633 82.289441 
L 74.869544 82.289441 
L 74.953327 81.443133 
L 74.958564 84.828366 
L 74.9638 84.828366 
L 75.277987 84.828366 
L 75.398425 83.135749 
L 75.723085 83.135749 
L 75.843523 81.443133 
L 76.110582 81.443133 
L 76.225784 80.596825 
L 76.48237 80.596825 
L 76.597572 83.982057 
L 76.890813 83.982057 
L 77.006015 83.135749 
L 77.466822 83.135749 
L 77.582024 86.520982 
L 78.508875 86.520982 
L 78.624077 85.674674 
L 80.880986 85.674674 
L 80.996188 84.828366 
L 81.786892 84.828366 
L 81.902094 83.982057 
L 87.253744 83.982057 
L 87.368946 87.36729 
L 91.783271 87.36729 
L 91.898473 86.520982 
L 114.57753 86.520982 
L 114.692732 85.674674 
L 119.143713 85.674674 
L 119.258914 89.059906 
L 129.51188 89.059906 
L 129.627082 88.213598 
L 178.45696 88.213598 
L 178.572162 91.598831 
L 187.777838 91.598831 
L 187.89304 90.752522 
L 220.992628 90.752522 
L 221.10783 89.906214 
L 223.270483 89.906214 
L 223.385685 89.059906 
L 286.285899 89.059906 
L 286.401101 88.213598 
L 398.487273 88.213598 
L 398.487273 88.213598 
" clip-path="url(#p82bd9c987f)" style="fill: none; stroke: #2ca02c; stroke-width: 1.5; stroke-linecap: square"/>
   </g>
   <g id="line2d_14">
    <path d="M 73.832727 67.6201 
L 74.099786 67.6201 
L 74.214988 67.055895 
L 87.253744 67.055895 
L 87.368946 66.491689 
L 398.487273 66.491689 
L 398.487273 66.491689 
" clip-path="url(#p82bd9c987f)" style="fill: none; stroke: #d62728; stroke-width: 1.5; stroke-linecap: square"/>
   </g>
   <g id="line2d_15">
    <path d="M 73.832727 66.773792 
L 73.848437 66.773792 
L 73.93222 73.544257 
L 73.963638 72.415846 
L 74.204515 72.415846 
L 74.319717 71.569538 
L 74.581539 71.569538 
L 74.696741 70.72323 
L 74.953327 70.72323 
L 75.068529 74.108463 
L 76.48237 74.108463 
L 76.597572 77.493695 
L 78.199925 77.493695 
L 78.315127 76.647387 
L 85.489061 76.647387 
L 85.604263 75.97034 
L 87.253744 75.97034 
L 87.368946 79.355573 
L 119.143713 79.355573 
L 119.258914 82.740805 
L 165.983741 82.740805 
L 166.098943 81.894497 
L 178.45696 81.894497 
L 178.572162 85.27973 
L 398.487273 85.27973 
L 398.487273 85.27973 
" clip-path="url(#p82bd9c987f)" style="fill: none; stroke: #9467bd; stroke-width: 1.5; stroke-linecap: square"/>
   </g>
   <g id="line2d_16">
    <path d="M 73.832727 71.005333 
L 73.837964 71.005333 
L 73.968875 84.546263 
L 74.000294 84.546263 
L 74.120732 90.752522 
L 74.146914 90.752522 
L 74.204515 89.906214 
L 74.209752 93.291447 
L 74.24117 93.291447 
L 74.581539 93.291447 
L 74.644377 96.676679 
L 74.691505 95.830371 
L 74.701978 95.830371 
L 74.81718 99.215604 
L 74.869544 99.215604 
L 74.953327 98.369296 
L 74.958564 101.754528 
L 74.9638 101.754528 
L 75.031874 101.754528 
L 75.147076 105.139761 
L 75.277987 105.139761 
L 75.398425 103.447144 
L 75.723085 103.447144 
L 75.843523 101.754528 
L 76.110582 101.754528 
L 76.225784 100.90822 
L 76.419533 100.90822 
L 76.539971 107.678685 
L 76.890813 107.678685 
L 77.006015 106.832377 
L 77.466822 106.832377 
L 77.582024 110.217609 
L 78.199925 110.217609 
L 78.315127 113.602842 
L 78.508875 113.602842 
L 78.624077 112.756534 
L 80.880986 112.756534 
L 80.996188 111.910226 
L 81.786892 111.910226 
L 81.902094 111.063918 
L 85.489061 111.063918 
L 85.604263 114.44915 
L 87.253744 114.44915 
L 87.368946 117.834383 
L 90.45845 117.834383 
L 90.573652 121.219615 
L 91.783271 121.219615 
L 91.898473 120.373307 
L 104.099397 120.373307 
L 104.214599 123.758539 
L 114.57753 123.758539 
L 114.692732 122.912231 
L 119.143713 122.912231 
L 119.258914 126.297464 
L 129.51188 126.297464 
L 129.627082 125.451156 
L 165.983741 125.451156 
L 166.098943 128.836388 
L 178.45696 128.836388 
L 178.572162 132.221621 
L 187.777838 132.221621 
L 187.89304 131.375313 
L 220.992628 131.375313 
L 221.10783 130.529005 
L 223.270483 130.529005 
L 223.385685 129.682696 
L 286.285899 129.682696 
L 286.401101 128.836388 
L 353.689459 128.836388 
L 353.804661 132.221621 
L 398.487273 132.221621 
L 398.487273 132.221621 
" clip-path="url(#p82bd9c987f)" style="fill: none; stroke: #8c564b; stroke-width: 1.5; stroke-linecap: square"/>
   </g>
   <g id="line2d_17">
    <path d="M 73.832727 66.773792 
L 73.848437 66.773792 
L 73.979348 64.122027 
L 74.000294 64.122027 
L 74.120732 62.42941 
L 74.204515 62.42941 
L 74.319717 61.583102 
L 74.581539 61.583102 
L 74.696741 60.736794 
L 74.953327 60.736794 
L 75.031874 64.122027 
L 75.068529 63.44498 
L 76.419533 63.44498 
L 76.48237 62.598672 
L 76.487606 65.983904 
L 76.513789 65.983904 
L 78.199925 65.983904 
L 78.315127 65.137596 
L 85.489061 65.137596 
L 85.604263 64.46055 
L 87.253744 64.46055 
L 87.368946 67.845782 
L 90.45845 67.845782 
L 90.573652 66.999474 
L 104.099397 66.999474 
L 104.214599 66.322428 
L 119.143713 66.322428 
L 119.258914 69.70766 
L 165.983741 69.70766 
L 166.098943 68.861352 
L 178.45696 68.861352 
L 178.572162 72.246585 
L 353.689459 72.246585 
L 353.804661 71.569538 
L 398.487273 71.569538 
L 398.487273 71.569538 
" clip-path="url(#p82bd9c987f)" style="fill: none; stroke: #e377c2; stroke-width: 1.5; stroke-linecap: square"/>
   </g>
   <g id="line2d_18">
    <path d="M 73.832727 71.005333 
L 73.848437 71.005333 
L 73.947929 84.546263 
L 73.974111 83.417852 
L 73.989821 83.417852 
L 74.000294 82.289441 
L 74.00553 85.674674 
L 74.089313 85.674674 
L 74.099786 85.674674 
L 74.115495 85.110468 
L 74.120732 88.495701 
L 74.188806 87.649393 
L 74.204515 87.649393 
L 74.230697 91.034625 
L 74.31448 88.777803 
L 74.581539 88.777803 
L 74.644377 92.163036 
L 74.691505 91.316728 
L 74.869544 91.316728 
L 74.989982 89.793373 
L 75.031874 89.793373 
L 75.147076 93.178606 
L 75.277987 93.178606 
L 75.398425 91.485989 
L 75.723085 91.485989 
L 75.843523 89.793373 
L 76.110582 89.793373 
L 76.225784 88.947065 
L 76.419533 88.947065 
L 76.48237 92.332298 
L 76.534734 91.655251 
L 76.890813 91.655251 
L 77.006015 90.808943 
L 77.466822 90.808943 
L 77.582024 89.962635 
L 78.199925 89.962635 
L 78.315127 93.347867 
L 78.508875 93.347867 
L 78.624077 92.501559 
L 80.880986 92.501559 
L 80.996188 91.655251 
L 81.786892 91.655251 
L 81.902094 90.808943 
L 85.489061 90.808943 
L 85.604263 94.194175 
L 87.253744 94.194175 
L 87.368946 93.62997 
L 90.45845 93.62997 
L 90.573652 97.015203 
L 91.783271 97.015203 
L 91.898473 96.168894 
L 104.099397 96.168894 
L 104.214599 99.554127 
L 114.57753 99.554127 
L 114.692732 98.707819 
L 119.143713 98.707819 
L 119.258914 98.030772 
L 129.51188 98.030772 
L 129.627082 97.184464 
L 165.983741 97.184464 
L 166.098943 100.569697 
L 187.777838 100.569697 
L 187.89304 99.723389 
L 220.992628 99.723389 
L 221.10783 98.87708 
L 223.270483 98.87708 
L 223.385685 98.030772 
L 286.285899 98.030772 
L 286.401101 97.184464 
L 353.689459 97.184464 
L 353.804661 100.569697 
L 398.487273 100.569697 
L 398.487273 100.569697 
" clip-path="url(#p82bd9c987f)" style="fill: none; stroke: #7f7f7f; stroke-width: 1.5; stroke-linecap: square"/>
   </g>
   <g id="line2d_19">
    <path d="M 73.832727 66.773792 
L 73.837964 66.773792 
L 73.974111 62.147308 
L 74.000294 62.147308 
L 74.120732 60.454691 
L 74.204515 60.454691 
L 74.319717 59.608383 
L 74.581539 59.608383 
L 74.696741 58.762075 
L 74.701978 58.762075 
L 74.81718 57.633664 
L 74.953327 57.633664 
L 75.073765 56.279571 
L 76.419533 56.279571 
L 76.539971 54.756217 
L 77.466822 54.756217 
L 77.582024 53.909908 
L 78.199925 53.909908 
L 78.315127 53.0636 
L 85.489061 53.0636 
L 85.604263 52.386554 
L 87.253744 52.386554 
L 87.368946 51.822348 
L 90.45845 51.822348 
L 90.573652 50.97604 
L 104.099397 50.97604 
L 104.214599 50.298994 
L 119.143713 50.298994 
L 119.258914 49.621947 
L 165.983741 49.621947 
L 166.098943 48.775639 
L 178.45696 48.775639 
L 178.572162 47.647228 
L 353.689459 47.647228 
L 353.804661 46.970182 
L 398.487273 46.970182 
L 398.487273 46.970182 
" clip-path="url(#p82bd9c987f)" style="fill: none; stroke: #bcbd22; stroke-width: 1.5; stroke-linecap: square"/>
   </g>
   <g id="line2d_20">
    <path d="M 73.832727 67.6201 
L 73.837964 67.6201 
L 73.921747 62.711513 
L 73.93222 69.481978 
L 74.047422 73.995621 
L 74.099786 73.995621 
L 74.115495 73.431416 
L 74.120732 76.816649 
L 74.188806 75.97034 
L 74.204515 75.97034 
L 74.230697 79.355573 
L 74.31448 77.098751 
L 74.581539 77.098751 
L 74.644377 80.483984 
L 74.691505 79.637676 
L 74.869544 79.637676 
L 74.989982 78.114321 
L 75.031874 78.114321 
L 75.147076 81.499554 
L 75.277987 81.499554 
L 75.398425 79.806937 
L 75.723085 79.806937 
L 75.843523 78.114321 
L 76.110582 78.114321 
L 76.225784 77.268013 
L 76.419533 77.268013 
L 76.48237 80.653245 
L 76.534734 79.976199 
L 76.890813 79.976199 
L 77.006015 79.129891 
L 77.466822 79.129891 
L 77.582024 78.283583 
L 78.199925 78.283583 
L 78.315127 81.668815 
L 78.508875 81.668815 
L 78.624077 80.822507 
L 80.880986 80.822507 
L 80.996188 79.976199 
L 81.786892 79.976199 
L 81.902094 79.129891 
L 85.489061 79.129891 
L 85.604263 82.515123 
L 87.253744 82.515123 
L 87.368946 81.950918 
L 90.45845 81.950918 
L 90.573652 85.33615 
L 91.783271 85.33615 
L 91.898473 84.489842 
L 104.099397 84.489842 
L 104.214599 87.875075 
L 114.57753 87.875075 
L 114.692732 87.028767 
L 119.143713 87.028767 
L 119.258914 86.35172 
L 129.51188 86.35172 
L 129.627082 85.505412 
L 165.983741 85.505412 
L 166.098943 88.890645 
L 187.777838 88.890645 
L 187.89304 88.044336 
L 220.992628 88.044336 
L 221.10783 87.198028 
L 223.270483 87.198028 
L 223.385685 86.35172 
L 286.285899 86.35172 
L 286.401101 85.505412 
L 353.689459 85.505412 
L 353.804661 88.890645 
L 398.487273 88.890645 
L 398.487273 88.890645 
" clip-path="url(#p82bd9c987f)" style="fill: none; stroke: #17becf; stroke-width: 1.5; stroke-linecap: square"/>
   </g>
   <g id="line2d_21">
    <path d="M 73.832727 66.773792 
L 73.837964 66.773792 
L 73.968875 63.275718 
L 74.000294 63.275718 
L 74.099786 62.42941 
L 74.204515 68.353567 
L 74.214988 67.507259 
L 74.581539 67.507259 
L 74.644377 66.660951 
L 74.649613 70.046183 
L 74.675795 70.046183 
L 74.701978 70.046183 
L 74.81718 68.917773 
L 74.869544 68.917773 
L 74.953327 72.303005 
L 74.984746 71.625959 
L 75.031874 71.625959 
L 75.147076 70.948912 
L 75.277987 70.948912 
L 75.398425 77.719377 
L 75.723085 77.719377 
L 75.843523 84.489842 
L 76.110582 84.489842 
L 76.225784 87.875075 
L 76.419533 87.875075 
L 76.539971 86.35172 
L 76.890813 86.35172 
L 77.006015 89.736953 
L 77.466822 89.736953 
L 77.582024 88.890645 
L 78.199925 88.890645 
L 78.315127 88.044336 
L 78.508875 88.044336 
L 78.624077 91.429569 
L 80.880986 91.429569 
L 80.996188 94.814801 
L 81.786892 94.814801 
L 81.902094 98.200034 
L 85.489061 98.200034 
L 85.604263 97.522987 
L 87.253744 97.522987 
L 87.368946 96.958782 
L 90.45845 96.958782 
L 90.573652 96.112474 
L 91.783271 96.112474 
L 91.898473 99.497706 
L 104.099397 99.497706 
L 104.214599 98.82066 
L 114.57753 98.82066 
L 114.692732 102.205892 
L 119.143713 102.205892 
L 119.258914 101.528846 
L 129.51188 101.528846 
L 129.627082 104.914078 
L 165.983741 104.914078 
L 166.098943 104.06777 
L 178.45696 104.06777 
L 178.572162 102.939359 
L 187.777838 102.939359 
L 187.89304 106.324592 
L 220.992628 106.324592 
L 221.10783 109.709825 
L 223.270483 109.709825 
L 223.385685 113.095057 
L 286.285899 113.095057 
L 286.401101 116.48029 
L 353.689459 116.48029 
L 353.804661 115.803243 
L 398.487273 115.803243 
L 398.487273 115.803243 
" clip-path="url(#p82bd9c987f)" style="fill: none; stroke: #1f77b4; stroke-width: 1.5; stroke-linecap: square"/>
   </g>
   <g id="line2d_22">
    <path d="M 73.832727 71.005333 
L 73.837964 71.005333 
L 73.921747 80.483984 
L 73.958402 78.509265 
L 73.974111 78.509265 
L 74.000294 85.27973 
L 74.089313 84.433422 
L 74.099786 84.433422 
L 74.214988 90.357579 
L 74.230697 90.357579 
L 74.356372 100.513276 
L 74.644377 100.513276 
L 74.701978 103.898509 
L 74.754342 102.770098 
L 74.869544 102.770098 
L 74.953327 106.15533 
L 74.984746 105.478284 
L 75.031874 105.478284 
L 75.147076 104.801237 
L 75.236095 104.801237 
L 75.356534 111.571702 
L 75.367007 111.571702 
L 75.482208 114.956935 
L 75.723085 114.956935 
L 75.843523 121.7274 
L 76.110582 121.7274 
L 76.225784 125.112632 
L 76.419533 125.112632 
L 76.539971 123.589278 
L 76.890813 123.589278 
L 77.006015 126.97451 
L 78.508875 126.97451 
L 78.624077 130.359743 
L 80.880986 130.359743 
L 80.996188 133.744975 
L 81.786892 133.744975 
L 81.902094 137.130208 
L 87.253744 137.130208 
L 87.368946 136.566003 
L 90.45845 136.566003 
L 90.573652 135.719694 
L 91.783271 135.719694 
L 91.898473 139.104927 
L 104.099397 139.104927 
L 104.214599 138.42788 
L 114.57753 138.42788 
L 114.692732 141.813113 
L 119.143713 141.813113 
L 119.258914 141.136066 
L 129.51188 141.136066 
L 129.627082 144.521299 
L 178.45696 144.521299 
L 178.572162 143.392888 
L 187.777838 143.392888 
L 187.89304 146.778121 
L 220.992628 146.778121 
L 221.10783 150.163353 
L 223.270483 150.163353 
L 223.385685 153.548586 
L 286.285899 153.548586 
L 286.401101 156.933818 
L 353.689459 156.933818 
L 353.804661 156.256772 
L 398.487273 156.256772 
L 398.487273 156.256772 
" clip-path="url(#p82bd9c987f)" style="fill: none; stroke: #ff7f0e; stroke-width: 1.5; stroke-linecap: square"/>
   </g>
   <g id="patch_3">
    <path d="M 57.6 162.432 
L 57.6 41.472 
" style="fill: none; stroke: #000000; stroke-width: 0.8; stroke-linejoin: miter; stroke-linecap: square"/>
   </g>
   <g id="patch_4">
    <path d="M 414.72 162.432 
L 414.72 41.472 
" style="fill: none; stroke: #000000; stroke-width: 0.8; stroke-linejoin: miter; stroke-linecap: square"/>
   </g>
   <g id="patch_5">
    <path d="M 57.6 162.432 
L 414.72 162.432 
" style="fill: none; stroke: #000000; stroke-width: 0.8; stroke-linejoin: miter; stroke-linecap: square"/>
   </g>
   <g id="patch_6">
    <path d="M 57.6 41.472 
L 414.72 41.472 
" style="fill: none; stroke: #000000; stroke-width: 0.8; stroke-linejoin: miter; stroke-linecap: square"/>
   </g>
   <g id="text_11">
    <!-- WSP -->
    <g transform="translate(361.832136 141.079646)scale(0.08 -0.08)">
     <defs>
      <path id="DejaVuSans-57" d="M 213 4666 
L 850 4666 
L 1831 722 
L 2809 4666 
L 3519 4666 
L 4500 722 
L 5478 4666 
L 6119 4666 
L 4947 0 
L 4153 0 
L 3169 4050 
L 2175 0 
L 1381 0 
L 213 4666 
z
" transform="scale(0.015625)"/>
      <path id="DejaVuSans-53" d="M 3425 4513 
L 3425 3897 
Q 3066 4069 2747 4153 
Q 2428 4238 2131 4238 
Q 1616 4238 1336 4038 
Q 1056 3838 1056 3469 
Q 1056 3159 1242 3001 
Q 1428 2844 1947 2747 
L 2328 2669 
Q 3034 2534 3370 2195 
Q 3706 1856 3706 1288 
Q 3706 609 3251 259 
Q 2797 -91 1919 -91 
Q 1588 -91 1214 -16 
Q 841 59 441 206 
L 441 856 
Q 825 641 1194 531 
Q 1563 422 1919 422 
Q 2459 422 2753 634 
Q 3047 847 3047 1241 
Q 3047 1584 2836 1778 
Q 2625 1972 2144 2069 
L 1759 2144 
Q 1053 2284 737 2584 
Q 422 2884 422 3419 
Q 422 4038 858 4394 
Q 1294 4750 2059 4750 
Q 2388 4750 2728 4690 
Q 3069 4631 3425 4513 
z
" transform="scale(0.015625)"/>
      <path id="DejaVuSans-50" d="M 1259 4147 
L 1259 2394 
L 2053 2394 
Q 2494 2394 2734 2622 
Q 2975 2850 2975 3272 
Q 2975 3691 2734 3919 
Q 2494 4147 2053 4147 
L 1259 4147 
z
M 628 4666 
L 2053 4666 
Q 2838 4666 3239 4311 
Q 3641 3956 3641 3272 
Q 3641 2581 3239 2228 
Q 2838 1875 2053 1875 
L 1259 1875 
L 1259 0 
L 628 0 
L 628 4666 
z
" transform="scale(0.015625)"/>
     </defs>
     <use xlink:href="#DejaVuSans-57"/>
     <use xlink:href="#DejaVuSans-53" x="98.876953"/>
     <use xlink:href="#DejaVuSans-50" x="162.353516"/>
    </g>
   </g>
   <g id="text_12">
    <!-- Iambic -->
    <g transform="translate(361.832136 90.47042)scale(0.08 -0.08)">
     <defs>
      <path id="DejaVuSans-49" d="M 628 4666 
L 1259 4666 
L 1259 0 
L 628 0 
L 628 4666 
z
" transform="scale(0.015625)"/>
      <path id="DejaVuSans-61" d="M 2194 1759 
Q 1497 1759 1228 1600 
Q 959 1441 959 1056 
Q 959 750 1161 570 
Q 1363 391 1709 391 
Q 2188 391 2477 730 
Q 2766 1069 2766 1631 
L 2766 1759 
L 2194 1759 
z
M 3341 1997 
L 3341 0 
L 2766 0 
L 2766 531 
Q 2569 213 2275 61 
Q 1981 -91 1556 -91 
Q 1019 -91 701 211 
Q 384 513 384 1019 
Q 384 1609 779 1909 
Q 1175 2209 1959 2209 
L 2766 2209 
L 2766 2266 
Q 2766 2663 2505 2880 
Q 2244 3097 1772 3097 
Q 1472 3097 1187 3025 
Q 903 2953 641 2809 
L 641 3341 
Q 956 3463 1253 3523 
Q 1550 3584 1831 3584 
Q 2591 3584 2966 3190 
Q 3341 2797 3341 1997 
z
" transform="scale(0.015625)"/>
      <path id="DejaVuSans-6d" d="M 3328 2828 
Q 3544 3216 3844 3400 
Q 4144 3584 4550 3584 
Q 5097 3584 5394 3201 
Q 5691 2819 5691 2113 
L 5691 0 
L 5113 0 
L 5113 2094 
Q 5113 2597 4934 2840 
Q 4756 3084 4391 3084 
Q 3944 3084 3684 2787 
Q 3425 2491 3425 1978 
L 3425 0 
L 2847 0 
L 2847 2094 
Q 2847 2600 2669 2842 
Q 2491 3084 2119 3084 
Q 1678 3084 1418 2786 
Q 1159 2488 1159 1978 
L 1159 0 
L 581 0 
L 581 3500 
L 1159 3500 
L 1159 2956 
Q 1356 3278 1631 3431 
Q 1906 3584 2284 3584 
Q 2666 3584 2933 3390 
Q 3200 3197 3328 2828 
z
" transform="scale(0.015625)"/>
      <path id="DejaVuSans-62" d="M 3116 1747 
Q 3116 2381 2855 2742 
Q 2594 3103 2138 3103 
Q 1681 3103 1420 2742 
Q 1159 2381 1159 1747 
Q 1159 1113 1420 752 
Q 1681 391 2138 391 
Q 2594 391 2855 752 
Q 3116 1113 3116 1747 
z
M 1159 2969 
Q 1341 3281 1617 3432 
Q 1894 3584 2278 3584 
Q 2916 3584 3314 3078 
Q 3713 2572 3713 1747 
Q 3713 922 3314 415 
Q 2916 -91 2278 -91 
Q 1894 -91 1617 61 
Q 1341 213 1159 525 
L 1159 0 
L 581 0 
L 581 4863 
L 1159 4863 
L 1159 2969 
z
" transform="scale(0.015625)"/>
      <path id="DejaVuSans-69" d="M 603 3500 
L 1178 3500 
L 1178 0 
L 603 0 
L 603 3500 
z
M 603 4863 
L 1178 4863 
L 1178 4134 
L 603 4134 
L 603 4863 
z
" transform="scale(0.015625)"/>
      <path id="DejaVuSans-63" d="M 3122 3366 
L 3122 2828 
Q 2878 2963 2633 3030 
Q 2388 3097 2138 3097 
Q 1578 3097 1268 2742 
Q 959 2388 959 1747 
Q 959 1106 1268 751 
Q 1578 397 2138 397 
Q 2388 397 2633 464 
Q 2878 531 3122 666 
L 3122 134 
Q 2881 22 2623 -34 
Q 2366 -91 2075 -91 
Q 1284 -91 818 406 
Q 353 903 353 1747 
Q 353 2603 823 3093 
Q 1294 3584 2113 3584 
Q 2378 3584 2631 3529 
Q 2884 3475 3122 3366 
z
" transform="scale(0.015625)"/>
     </defs>
     <use xlink:href="#DejaVuSans-49"/>
     <use xlink:href="#DejaVuSans-61" x="29.492188"/>
     <use xlink:href="#DejaVuSans-6d" x="90.771484"/>
     <use xlink:href="#DejaVuSans-62" x="188.183594"/>
     <use xlink:href="#DejaVuSans-69" x="251.660156"/>
     <use xlink:href="#DejaVuSans-63" x="279.443359"/>
    </g>
   </g>
   <g id="text_13">
    <!-- Parse -->
    <g transform="translate(361.832136 88.213598)scale(0.08 -0.08)">
     <defs>
      <path id="DejaVuSans-72" d="M 2631 2963 
Q 2534 3019 2420 3045 
Q 2306 3072 2169 3072 
Q 1681 3072 1420 2755 
Q 1159 2438 1159 1844 
L 1159 0 
L 581 0 
L 581 3500 
L 1159 3500 
L 1159 2956 
Q 1341 3275 1631 3429 
Q 1922 3584 2338 3584 
Q 2397 3584 2469 3576 
Q 2541 3569 2628 3553 
L 2631 2963 
z
" transform="scale(0.015625)"/>
      <path id="DejaVuSans-73" d="M 2834 3397 
L 2834 2853 
Q 2591 2978 2328 3040 
Q 2066 3103 1784 3103 
Q 1356 3103 1142 2972 
Q 928 2841 928 2578 
Q 928 2378 1081 2264 
Q 1234 2150 1697 2047 
L 1894 2003 
Q 2506 1872 2764 1633 
Q 3022 1394 3022 966 
Q 3022 478 2636 193 
Q 2250 -91 1575 -91 
Q 1294 -91 989 -36 
Q 684 19 347 128 
L 347 722 
Q 666 556 975 473 
Q 1284 391 1588 391 
Q 1994 391 2212 530 
Q 2431 669 2431 922 
Q 2431 1156 2273 1281 
Q 2116 1406 1581 1522 
L 1381 1569 
Q 847 1681 609 1914 
Q 372 2147 372 2553 
Q 372 3047 722 3315 
Q 1072 3584 1716 3584 
Q 2034 3584 2315 3537 
Q 2597 3491 2834 3397 
z
" transform="scale(0.015625)"/>
      <path id="DejaVuSans-65" d="M 3597 1894 
L 3597 1613 
L 953 1613 
Q 991 1019 1311 708 
Q 1631 397 2203 397 
Q 2534 397 2845 478 
Q 3156 559 3463 722 
L 3463 178 
Q 3153 47 2828 -22 
Q 2503 -91 2169 -91 
Q 1331 -91 842 396 
Q 353 884 353 1716 
Q 353 2575 817 3079 
Q 1281 3584 2069 3584 
Q 2775 3584 3186 3129 
Q 3597 2675 3597 1894 
z
M 3022 2063 
Q 3016 2534 2758 2815 
Q 2500 3097 2075 3097 
Q 1594 3097 1305 2825 
Q 1016 2553 972 2059 
L 3022 2063 
z
" transform="scale(0.015625)"/>
     </defs>
     <use xlink:href="#DejaVuSans-50"/>
     <use xlink:href="#DejaVuSans-61" x="55.802734"/>
     <use xlink:href="#DejaVuSans-72" x="117.082031"/>
     <use xlink:href="#DejaVuSans-73" x="158.195312"/>
     <use xlink:href="#DejaVuSans-65" x="210.294922"/>
    </g>
   </g>
   <g id="text_14">
    <!-- FootBin -->
    <g transform="translate(361.832136 66.491689)scale(0.08 -0.08)">
     <defs>
      <path id="DejaVuSans-46" d="M 628 4666 
L 3309 4666 
L 3309 4134 
L 1259 4134 
L 1259 2759 
L 3109 2759 
L 3109 2228 
L 1259 2228 
L 1259 0 
L 628 0 
L 628 4666 
z
" transform="scale(0.015625)"/>
      <path id="DejaVuSans-6f" d="M 1959 3097 
Q 1497 3097 1228 2736 
Q 959 2375 959 1747 
Q 959 1119 1226 758 
Q 1494 397 1959 397 
Q 2419 397 2687 759 
Q 2956 1122 2956 1747 
Q 2956 2369 2687 2733 
Q 2419 3097 1959 3097 
z
M 1959 3584 
Q 2709 3584 3137 3096 
Q 3566 2609 3566 1747 
Q 3566 888 3137 398 
Q 2709 -91 1959 -91 
Q 1206 -91 779 398 
Q 353 888 353 1747 
Q 353 2609 779 3096 
Q 1206 3584 1959 3584 
z
" transform="scale(0.015625)"/>
      <path id="DejaVuSans-74" d="M 1172 4494 
L 1172 3500 
L 2356 3500 
L 2356 3053 
L 1172 3053 
L 1172 1153 
Q 1172 725 1289 603 
Q 1406 481 1766 481 
L 2356 481 
L 2356 0 
L 1766 0 
Q 1100 0 847 248 
Q 594 497 594 1153 
L 594 3053 
L 172 3053 
L 172 3500 
L 594 3500 
L 594 4494 
L 1172 4494 
z
" transform="scale(0.015625)"/>
      <path id="DejaVuSans-42" d="M 1259 2228 
L 1259 519 
L 2272 519 
Q 2781 519 3026 730 
Q 3272 941 3272 1375 
Q 3272 1813 3026 2020 
Q 2781 2228 2272 2228 
L 1259 2228 
z
M 1259 4147 
L 1259 2741 
L 2194 2741 
Q 2656 2741 2882 2914 
Q 3109 3088 3109 3444 
Q 3109 3797 2882 3972 
Q 2656 4147 2194 4147 
L 1259 4147 
z
M 628 4666 
L 2241 4666 
Q 2963 4666 3353 4366 
Q 3744 4066 3744 3513 
Q 3744 3084 3544 2831 
Q 3344 2578 2956 2516 
Q 3422 2416 3680 2098 
Q 3938 1781 3938 1306 
Q 3938 681 3513 340 
Q 3088 0 2303 0 
L 628 0 
L 628 4666 
z
" transform="scale(0.015625)"/>
      <path id="DejaVuSans-6e" d="M 3513 2113 
L 3513 0 
L 2938 0 
L 2938 2094 
Q 2938 2591 2744 2837 
Q 2550 3084 2163 3084 
Q 1697 3084 1428 2787 
Q 1159 2491 1159 1978 
L 1159 0 
L 581 0 
L 581 3500 
L 1159 3500 
L 1159 2956 
Q 1366 3272 1645 3428 
Q 1925 3584 2291 3584 
Q 2894 3584 3203 3211 
Q 3513 2838 3513 2113 
z
" transform="scale(0.015625)"/>
     </defs>
     <use xlink:href="#DejaVuSans-46"/>
     <use xlink:href="#DejaVuSans-6f" x="53.894531"/>
     <use xlink:href="#DejaVuSans-6f" x="115.076172"/>
     <use xlink:href="#DejaVuSans-74" x="176.257812"/>
     <use xlink:href="#DejaVuSans-42" x="215.466797"/>
     <use xlink:href="#DejaVuSans-69" x="284.070312"/>
     <use xlink:href="#DejaVuSans-6e" x="311.853516"/>
    </g>
   </g>
   <g id="text_15">
    <!-- WFL -->
    <g transform="translate(361.832136 85.27973)scale(0.08 -0.08)">
     <defs>
      <path id="DejaVuSans-4c" d="M 628 4666 
L 1259 4666 
L 1259 531 
L 3531 531 
L 3531 0 
L 628 0 
L 628 4666 
z
" transform="scale(0.015625)"/>
     </defs>
     <use xlink:href="#DejaVuSans-57"/>
     <use xlink:href="#DejaVuSans-46" x="98.876953"/>
     <use xlink:href="#DejaVuSans-4c" x="156.396484"/>
    </g>
   </g>
   <g id="text_16">
    <!-- WFR -->
    <g transform="translate(361.832136 132.221621)scale(0.08 -0.08)">
     <defs>
      <path id="DejaVuSans-52" d="M 2841 2188 
Q 3044 2119 3236 1894 
Q 3428 1669 3622 1275 
L 4263 0 
L 3584 0 
L 2988 1197 
Q 2756 1666 2539 1819 
Q 2322 1972 1947 1972 
L 1259 1972 
L 1259 0 
L 628 0 
L 628 4666 
L 2053 4666 
Q 2853 4666 3247 4331 
Q 3641 3997 3641 3322 
Q 3641 2881 3436 2590 
Q 3231 2300 2841 2188 
z
M 1259 4147 
L 1259 2491 
L 2053 2491 
Q 2509 2491 2742 2702 
Q 2975 2913 2975 3322 
Q 2975 3731 2742 3939 
Q 2509 4147 2053 4147 
L 1259 4147 
z
" transform="scale(0.015625)"/>
     </defs>
     <use xlink:href="#DejaVuSans-57"/>
     <use xlink:href="#DejaVuSans-46" x="98.876953"/>
     <use xlink:href="#DejaVuSans-52" x="156.396484"/>
    </g>
   </g>
   <g id="text_17">
    <!-- Main-L -->
    <g transform="translate(361.832136 71.569538)scale(0.08 -0.08)">
     <defs>
      <path id="DejaVuSans-4d" d="M 628 4666 
L 1569 4666 
L 2759 1491 
L 3956 4666 
L 4897 4666 
L 4897 0 
L 4281 0 
L 4281 4097 
L 3078 897 
L 2444 897 
L 1241 4097 
L 1241 0 
L 628 0 
L 628 4666 
z
" transform="scale(0.015625)"/>
      <path id="DejaVuSans-2d" d="M 313 2009 
L 1997 2009 
L 1997 1497 
L 313 1497 
L 313 2009 
z
" transform="scale(0.015625)"/>
     </defs>
     <use xlink:href="#DejaVuSans-4d"/>
     <use xlink:href="#DejaVuSans-61" x="86.279297"/>
     <use xlink:href="#DejaVuSans-69" x="147.558594"/>
     <use xlink:href="#DejaVuSans-6e" x="175.341797"/>
     <use xlink:href="#DejaVuSans-2d" x="238.720703"/>
     <use xlink:href="#DejaVuSans-4c" x="274.804688"/>
    </g>
   </g>
   <g id="text_18">
    <!-- Main-R -->
    <g transform="translate(361.832136 100.569697)scale(0.08 -0.08)">
     <use xlink:href="#DejaVuSans-4d"/>
     <use xlink:href="#DejaVuSans-61" x="86.279297"/>
     <use xlink:href="#DejaVuSans-69" x="147.558594"/>
     <use xlink:href="#DejaVuSans-6e" x="175.341797"/>
     <use xlink:href="#DejaVuSans-2d" x="238.720703"/>
     <use xlink:href="#DejaVuSans-52" x="274.804688"/>
    </g>
   </g>
   <g id="text_19">
    <!-- AFL -->
    <g transform="translate(361.832136 46.970182)scale(0.08 -0.08)">
     <defs>
      <path id="DejaVuSans-41" d="M 2188 4044 
L 1331 1722 
L 3047 1722 
L 2188 4044 
z
M 1831 4666 
L 2547 4666 
L 4325 0 
L 3669 0 
L 3244 1197 
L 1141 1197 
L 716 0 
L 50 0 
L 1831 4666 
z
" transform="scale(0.015625)"/>
     </defs>
     <use xlink:href="#DejaVuSans-41"/>
     <use xlink:href="#DejaVuSans-46" x="68.408203"/>
     <use xlink:href="#DejaVuSans-4c" x="125.927734"/>
    </g>
   </g>
   <g id="text_20">
    <!-- AFR -->
    <g transform="translate(361.832136 88.890645)scale(0.08 -0.08)">
     <use xlink:href="#DejaVuSans-41"/>
     <use xlink:href="#DejaVuSans-46" x="68.408203"/>
     <use xlink:href="#DejaVuSans-52" x="125.927734"/>
    </g>
   </g>
   <g id="text_21">
    <!-- Nonfinal -->
    <g transform="translate(361.832136 115.803243)scale(0.08 -0.08)">
     <defs>
      <path id="DejaVuSans-4e" d="M 628 4666 
L 1478 4666 
L 3547 763 
L 3547 4666 
L 4159 4666 
L 4159 0 
L 3309 0 
L 1241 3903 
L 1241 0 
L 628 0 
L 628 4666 
z
" transform="scale(0.015625)"/>
      <path id="DejaVuSans-66" d="M 2375 4863 
L 2375 4384 
L 1825 4384 
Q 1516 4384 1395 4259 
Q 1275 4134 1275 3809 
L 1275 3500 
L 2222 3500 
L 2222 3053 
L 1275 3053 
L 1275 0 
L 697 0 
L 697 3053 
L 147 3053 
L 147 3500 
L 697 3500 
L 697 3744 
Q 697 4328 969 4595 
Q 1241 4863 1831 4863 
L 2375 4863 
z
" transform="scale(0.015625)"/>
      <path id="DejaVuSans-6c" d="M 603 4863 
L 1178 4863 
L 1178 0 
L 603 0 
L 603 4863 
z
" transform="scale(0.015625)"/>
     </defs>
     <use xlink:href="#DejaVuSans-4e"/>
     <use xlink:href="#DejaVuSans-6f" x="74.804688"/>
     <use xlink:href="#DejaVuSans-6e" x="135.986328"/>
     <use xlink:href="#DejaVuSans-66" x="199.365234"/>
     <use xlink:href="#DejaVuSans-69" x="234.570312"/>
     <use xlink:href="#DejaVuSans-6e" x="262.353516"/>
     <use xlink:href="#DejaVuSans-61" x="325.732422"/>
     <use xlink:href="#DejaVuSans-6c" x="387.011719"/>
    </g>
   </g>
   <g id="text_22">
    <!-- Trochaic -->
    <g transform="translate(361.832136 156.256772)scale(0.08 -0.08)">
     <defs>
      <path id="DejaVuSans-54" d="M -19 4666 
L 3928 4666 
L 3928 4134 
L 2272 4134 
L 2272 0 
L 1638 0 
L 1638 4134 
L -19 4134 
L -19 4666 
z
" transform="scale(0.015625)"/>
      <path id="DejaVuSans-68" d="M 3513 2113 
L 3513 0 
L 2938 0 
L 2938 2094 
Q 2938 2591 2744 2837 
Q 2550 3084 2163 3084 
Q 1697 3084 1428 2787 
Q 1159 2491 1159 1978 
L 1159 0 
L 581 0 
L 581 4863 
L 1159 4863 
L 1159 2956 
Q 1366 3272 1645 3428 
Q 1925 3584 2291 3584 
Q 2894 3584 3203 3211 
Q 3513 2838 3513 2113 
z
" transform="scale(0.015625)"/>
     </defs>
     <use xlink:href="#DejaVuSans-54"/>
     <use xlink:href="#DejaVuSans-72" x="46.333984"/>
     <use xlink:href="#DejaVuSans-6f" x="85.197266"/>
     <use xlink:href="#DejaVuSans-63" x="146.378906"/>
     <use xlink:href="#DejaVuSans-68" x="201.359375"/>
     <use xlink:href="#DejaVuSans-61" x="264.738281"/>
     <use xlink:href="#DejaVuSans-69" x="326.017578"/>
     <use xlink:href="#DejaVuSans-63" x="353.800781"/>
    </g>
   </g>
  </g>
  <g id="axes_2">
   <g id="patch_7">
    <path d="M 57.6 307.584 
L 414.72 307.584 
L 414.72 186.624 
L 57.6 186.624 
z
" style="fill: #ffffff"/>
   </g>
   <g id="matplotlib.axis_3">
    <g id="xtick_8">
     <g id="line2d_23">
      <g>
       <use xlink:href="#m4c5e5b9bd2" x="67.70717" y="307.584" style="stroke: #000000; stroke-width: 0.8"/>
      </g>
     </g>
     <g id="text_23">
      <!-- 0 -->
      <g transform="translate(64.52592 322.182437)scale(0.1 -0.1)">
       <use xlink:href="#DejaVuSans-30"/>
      </g>
     </g>
    </g>
    <g id="xtick_9">
     <g id="line2d_24">
      <g>
       <use xlink:href="#m4c5e5b9bd2" x="128.962744" y="307.584" style="stroke: #000000; stroke-width: 0.8"/>
      </g>
     </g>
     <g id="text_24">
      <!-- 10 -->
      <g transform="translate(122.600244 322.182437)scale(0.1 -0.1)">
       <use xlink:href="#DejaVuSans-31"/>
       <use xlink:href="#DejaVuSans-30" x="63.623047"/>
      </g>
     </g>
    </g>
    <g id="xtick_10">
     <g id="line2d_25">
      <g>
       <use xlink:href="#m4c5e5b9bd2" x="190.218319" y="307.584" style="stroke: #000000; stroke-width: 0.8"/>
      </g>
     </g>
     <g id="text_25">
      <!-- 20 -->
      <g transform="translate(183.855819 322.182437)scale(0.1 -0.1)">
       <use xlink:href="#DejaVuSans-32"/>
       <use xlink:href="#DejaVuSans-30" x="63.623047"/>
      </g>
     </g>
    </g>
    <g id="xtick_11">
     <g id="line2d_26">
      <g>
       <use xlink:href="#m4c5e5b9bd2" x="251.473894" y="307.584" style="stroke: #000000; stroke-width: 0.8"/>
      </g>
     </g>
     <g id="text_26">
      <!-- 30 -->
      <g transform="translate(245.111394 322.182437)scale(0.1 -0.1)">
       <use xlink:href="#DejaVuSans-33"/>
       <use xlink:href="#DejaVuSans-30" x="63.623047"/>
      </g>
     </g>
    </g>
    <g id="xtick_12">
     <g id="line2d_27">
      <g>
       <use xlink:href="#m4c5e5b9bd2" x="312.729468" y="307.584" style="stroke: #000000; stroke-width: 0.8"/>
      </g>
     </g>
     <g id="text_27">
      <!-- 40 -->
      <g transform="translate(306.366968 322.182437)scale(0.1 -0.1)">
       <use xlink:href="#DejaVuSans-34"/>
       <use xlink:href="#DejaVuSans-30" x="63.623047"/>
      </g>
     </g>
    </g>
    <g id="xtick_13">
     <g id="line2d_28">
      <g>
       <use xlink:href="#m4c5e5b9bd2" x="373.985043" y="307.584" style="stroke: #000000; stroke-width: 0.8"/>
      </g>
     </g>
     <g id="text_28">
      <!-- 50 -->
      <g transform="translate(367.622543 322.182437)scale(0.1 -0.1)">
       <use xlink:href="#DejaVuSans-35"/>
       <use xlink:href="#DejaVuSans-30" x="63.623047"/>
      </g>
     </g>
    </g>
   </g>
   <g id="matplotlib.axis_4">
    <g id="ytick_4">
     <g id="line2d_29">
      <g>
       <use xlink:href="#mae9dbae296" x="57.6" y="302.094362" style="stroke: #000000; stroke-width: 0.8"/>
      </g>
     </g>
     <g id="text_29">
      <!-- 0 -->
      <g transform="translate(44.2375 305.89358)scale(0.1 -0.1)">
       <use xlink:href="#DejaVuSans-30"/>
      </g>
     </g>
    </g>
    <g id="ytick_5">
     <g id="line2d_30">
      <g>
       <use xlink:href="#mae9dbae296" x="57.6" y="280.735564" style="stroke: #000000; stroke-width: 0.8"/>
      </g>
     </g>
     <g id="text_30">
      <!-- 2500 -->
      <g transform="translate(25.15 284.534782)scale(0.1 -0.1)">
       <use xlink:href="#DejaVuSans-32"/>
       <use xlink:href="#DejaVuSans-35" x="63.623047"/>
       <use xlink:href="#DejaVuSans-30" x="127.246094"/>
       <use xlink:href="#DejaVuSans-30" x="190.869141"/>
      </g>
     </g>
    </g>
    <g id="ytick_6">
     <g id="line2d_31">
      <g>
       <use xlink:href="#mae9dbae296" x="57.6" y="259.376765" style="stroke: #000000; stroke-width: 0.8"/>
      </g>
     </g>
     <g id="text_31">
      <!-- 5000 -->
      <g transform="translate(25.15 263.175984)scale(0.1 -0.1)">
       <use xlink:href="#DejaVuSans-35"/>
       <use xlink:href="#DejaVuSans-30" x="63.623047"/>
       <use xlink:href="#DejaVuSans-30" x="127.246094"/>
       <use xlink:href="#DejaVuSans-30" x="190.869141"/>
      </g>
     </g>
    </g>
    <g id="ytick_7">
     <g id="line2d_32">
      <g>
       <use xlink:href="#mae9dbae296" x="57.6" y="238.017967" style="stroke: #000000; stroke-width: 0.8"/>
      </g>
     </g>
     <g id="text_32">
      <!-- 7500 -->
      <g transform="translate(25.15 241.817186)scale(0.1 -0.1)">
       <defs>
        <path id="DejaVuSans-37" d="M 525 4666 
L 3525 4666 
L 3525 4397 
L 1831 0 
L 1172 0 
L 2766 4134 
L 525 4134 
L 525 4666 
z
" transform="scale(0.015625)"/>
       </defs>
       <use xlink:href="#DejaVuSans-37"/>
       <use xlink:href="#DejaVuSans-35" x="63.623047"/>
       <use xlink:href="#DejaVuSans-30" x="127.246094"/>
       <use xlink:href="#DejaVuSans-30" x="190.869141"/>
      </g>
     </g>
    </g>
    <g id="ytick_8">
     <g id="line2d_33">
      <g>
       <use xlink:href="#mae9dbae296" x="57.6" y="216.659169" style="stroke: #000000; stroke-width: 0.8"/>
      </g>
     </g>
     <g id="text_33">
      <!-- 10000 -->
      <g transform="translate(18.7875 220.458388)scale(0.1 -0.1)">
       <use xlink:href="#DejaVuSans-31"/>
       <use xlink:href="#DejaVuSans-30" x="63.623047"/>
       <use xlink:href="#DejaVuSans-30" x="127.246094"/>
       <use xlink:href="#DejaVuSans-30" x="190.869141"/>
       <use xlink:href="#DejaVuSans-30" x="254.492188"/>
      </g>
     </g>
    </g>
    <g id="ytick_9">
     <g id="line2d_34">
      <g>
       <use xlink:href="#mae9dbae296" x="57.6" y="195.300371" style="stroke: #000000; stroke-width: 0.8"/>
      </g>
     </g>
     <g id="text_34">
      <!-- 12500 -->
      <g transform="translate(18.7875 199.09959)scale(0.1 -0.1)">
       <use xlink:href="#DejaVuSans-31"/>
       <use xlink:href="#DejaVuSans-32" x="63.623047"/>
       <use xlink:href="#DejaVuSans-35" x="127.246094"/>
       <use xlink:href="#DejaVuSans-30" x="190.869141"/>
       <use xlink:href="#DejaVuSans-30" x="254.492188"/>
      </g>
     </g>
    </g>
   </g>
   <g id="line2d_35">
    <path d="M 73.832727 302.077275 
L 79.958285 302.077275 
L 86.083842 302.085818 
L 92.2094 302.077275 
L 98.334957 302.051644 
L 104.460515 302.043101 
L 110.586072 302.085818 
L 116.71163 302.085818 
L 122.837187 302.068731 
L 128.962744 302.051644 
L 135.088302 302.068731 
L 141.213859 302.077275 
L 147.339417 301.932035 
L 153.464974 302.068731 
L 159.590532 302.043101 
L 165.716089 302.000383 
L 171.841647 302.051644 
L 177.967204 302.068731 
L 184.092762 302.077275 
L 190.218319 301.564664 
L 196.343877 301.991839 
L 202.469434 302.000383 
L 208.594991 301.820969 
L 214.720549 301.957665 
L 220.846106 301.966209 
L 226.971664 301.761164 
L 233.097221 302.026014 
L 239.222779 301.949122 
L 245.348336 301.513402 
L 251.473894 301.957665 
L 257.599451 301.598838 
L 263.725009 301.590294 
L 269.850566 301.991839 
L 275.976123 301.427967 
L 282.101681 301.154575 
L 288.227238 300.898269 
L 294.352796 301.590294 
L 300.478353 298.224147 
L 306.603911 300.616333 
L 312.729468 296.054094 
L 318.855026 299.215196 
L 324.980583 296.865728 
L 331.106141 299.932851 
L 337.231698 282.000004 
L 343.357256 284.99878 
L 349.482813 294.644413 
L 355.60837 285.178194 
L 361.733928 242.58875 
L 367.859485 281.743699 
L 373.985043 286.886897 
L 380.1106 247.902819 
L 386.236158 298.377931 
L 392.361715 199.281651 
L 398.487273 192.122182 
" clip-path="url(#p943406a8b9)" style="fill: none; stroke: #1f77b4; stroke-width: 1.5; stroke-linecap: square"/>
   </g>
   <g id="patch_8">
    <path d="M 57.6 307.584 
L 57.6 186.624 
" style="fill: none; stroke: #000000; stroke-width: 0.8; stroke-linejoin: miter; stroke-linecap: square"/>
   </g>
   <g id="patch_9">
    <path d="M 414.72 307.584 
L 414.72 186.624 
" style="fill: none; stroke: #000000; stroke-width: 0.8; stroke-linejoin: miter; stroke-linecap: square"/>
   </g>
   <g id="patch_10">
    <path d="M 57.6 307.584 
L 414.72 307.584 
" style="fill: none; stroke: #000000; stroke-width: 0.8; stroke-linejoin: miter; stroke-linecap: square"/>
   </g>
   <g id="patch_11">
    <path d="M 57.6 186.624 
L 414.72 186.624 
" style="fill: none; stroke: #000000; stroke-width: 0.8; stroke-linejoin: miter; stroke-linecap: square"/>
   </g>
  </g>
 </g>
 <defs>
  <clipPath id="p82bd9c987f">
   <rect x="57.6" y="41.472" width="357.12" height="120.96"/>
  </clipPath>
  <clipPath id="p943406a8b9">
   <rect x="57.6" y="186.624" width="357.12" height="120.96"/>
  </clipPath>
 </defs>
</svg>
