<?xml version="1.0" encoding="utf-8" standalone="no"?>
<!DOCTYPE svg PUBLIC "-//W3C//DTD SVG 1.1//EN"
  "http://www.w3.org/Graphics/SVG/1.1/DTD/svg11.dtd">
<svg xmlns:xlink="http://www.w3.org/1999/xlink" width="460.8pt" height="345.6pt" viewBox="0 0 460.8 345.6" xmlns="http://www.w3.org/2000/svg" version="1.1">
 <metadata>
  <rdf:RDF xmlns:dc="http://purl.org/dc/elements/1.1/" xmlns:cc="http://creativecommons.org/ns#" xmlns:rdf="http://www.w3.org/1999/02/22-rdf-syntax-ns#">
   <cc:Work>
    <dc:type rdf:resource="http://purl.org/dc/dcmitype/StillImage"/>
    <dc:date>2022-05-13T18:05:12.292633</dc:date>
    <dc:format>image/svg+xml</dc:format>
    <dc:creator>
     <cc:Agent>
      <dc:title>Matplotlib v3.5.1, https://matplotlib.org/</dc:title>
     </cc:Agent>
    </dc:creator>
   </cc:Work>
  </rdf:RDF>
 </metadata>
 <defs>
  <style type="text/css">*{stroke-linejoin: round; stroke-linecap: butt}</style>
 </defs>
 <g id="figure_1">
  <g id="patch_1">
   <path d="M 0 345.6 
L 460.8 345.6 
L 460.8 0 
L 0 0 
z
" style="fill: #ffffff"/>
  </g>
  <g id="axes_1">
   <g id="patch_2">
    <path d="M 57.6 162.432 
L 414.72 162.432 
L 414.72 41.472 
L 57.6 41.472 
z
" style="fill: #ffffff"/>
   </g>
   <g id="matplotlib.axis_1">
    <g id="xtick_1">
     <g id="line2d_1">
      <defs>
       <path id="m4b6315708b" d="M 0 0 
L 0 3.5 
" style="stroke: #000000; stroke-width: 0.8"/>
      </defs>
      <g>
       <use xlink:href="#m4b6315708b" x="73.827491" y="162.432" style="stroke: #000000; stroke-width: 0.8"/>
      </g>
     </g>
     <g id="text_1">
      <!-- 0 -->
      <g transform="translate(70.646241 177.030437)scale(0.1 -0.1)">
       <defs>
        <path id="DejaVuSans-30" d="M 2034 4250 
Q 1547 4250 1301 3770 
Q 1056 3291 1056 2328 
Q 1056 1369 1301 889 
Q 1547 409 2034 409 
Q 2525 409 2770 889 
Q 3016 1369 3016 2328 
Q 3016 3291 2770 3770 
Q 2525 4250 2034 4250 
z
M 2034 4750 
Q 2819 4750 3233 4129 
Q 3647 3509 3647 2328 
Q 3647 1150 3233 529 
Q 2819 -91 2034 -91 
Q 1250 -91 836 529 
Q 422 1150 422 2328 
Q 422 3509 836 4129 
Q 1250 4750 2034 4750 
z
" transform="scale(0.015625)"/>
       </defs>
       <use xlink:href="#DejaVuSans-30"/>
      </g>
     </g>
    </g>
    <g id="xtick_2">
     <g id="line2d_2">
      <g>
       <use xlink:href="#m4b6315708b" x="126.191972" y="162.432" style="stroke: #000000; stroke-width: 0.8"/>
      </g>
     </g>
     <g id="text_2">
      <!-- 10000 -->
      <g transform="translate(110.285722 177.030437)scale(0.1 -0.1)">
       <defs>
        <path id="DejaVuSans-31" d="M 794 531 
L 1825 531 
L 1825 4091 
L 703 3866 
L 703 4441 
L 1819 4666 
L 2450 4666 
L 2450 531 
L 3481 531 
L 3481 0 
L 794 0 
L 794 531 
z
" transform="scale(0.015625)"/>
       </defs>
       <use xlink:href="#DejaVuSans-31"/>
       <use xlink:href="#DejaVuSans-30" x="63.623047"/>
       <use xlink:href="#DejaVuSans-30" x="127.246094"/>
       <use xlink:href="#DejaVuSans-30" x="190.869141"/>
       <use xlink:href="#DejaVuSans-30" x="254.492188"/>
      </g>
     </g>
    </g>
    <g id="xtick_3">
     <g id="line2d_3">
      <g>
       <use xlink:href="#m4b6315708b" x="178.556453" y="162.432" style="stroke: #000000; stroke-width: 0.8"/>
      </g>
     </g>
     <g id="text_3">
      <!-- 20000 -->
      <g transform="translate(162.650203 177.030437)scale(0.1 -0.1)">
       <defs>
        <path id="DejaVuSans-32" d="M 1228 531 
L 3431 531 
L 3431 0 
L 469 0 
L 469 531 
Q 828 903 1448 1529 
Q 2069 2156 2228 2338 
Q 2531 2678 2651 2914 
Q 2772 3150 2772 3378 
Q 2772 3750 2511 3984 
Q 2250 4219 1831 4219 
Q 1534 4219 1204 4116 
Q 875 4013 500 3803 
L 500 4441 
Q 881 4594 1212 4672 
Q 1544 4750 1819 4750 
Q 2544 4750 2975 4387 
Q 3406 4025 3406 3419 
Q 3406 3131 3298 2873 
Q 3191 2616 2906 2266 
Q 2828 2175 2409 1742 
Q 1991 1309 1228 531 
z
" transform="scale(0.015625)"/>
       </defs>
       <use xlink:href="#DejaVuSans-32"/>
       <use xlink:href="#DejaVuSans-30" x="63.623047"/>
       <use xlink:href="#DejaVuSans-30" x="127.246094"/>
       <use xlink:href="#DejaVuSans-30" x="190.869141"/>
       <use xlink:href="#DejaVuSans-30" x="254.492188"/>
      </g>
     </g>
    </g>
    <g id="xtick_4">
     <g id="line2d_4">
      <g>
       <use xlink:href="#m4b6315708b" x="230.920934" y="162.432" style="stroke: #000000; stroke-width: 0.8"/>
      </g>
     </g>
     <g id="text_4">
      <!-- 30000 -->
      <g transform="translate(215.014684 177.030437)scale(0.1 -0.1)">
       <defs>
        <path id="DejaVuSans-33" d="M 2597 2516 
Q 3050 2419 3304 2112 
Q 3559 1806 3559 1356 
Q 3559 666 3084 287 
Q 2609 -91 1734 -91 
Q 1441 -91 1130 -33 
Q 819 25 488 141 
L 488 750 
Q 750 597 1062 519 
Q 1375 441 1716 441 
Q 2309 441 2620 675 
Q 2931 909 2931 1356 
Q 2931 1769 2642 2001 
Q 2353 2234 1838 2234 
L 1294 2234 
L 1294 2753 
L 1863 2753 
Q 2328 2753 2575 2939 
Q 2822 3125 2822 3475 
Q 2822 3834 2567 4026 
Q 2313 4219 1838 4219 
Q 1578 4219 1281 4162 
Q 984 4106 628 3988 
L 628 4550 
Q 988 4650 1302 4700 
Q 1616 4750 1894 4750 
Q 2613 4750 3031 4423 
Q 3450 4097 3450 3541 
Q 3450 3153 3228 2886 
Q 3006 2619 2597 2516 
z
" transform="scale(0.015625)"/>
       </defs>
       <use xlink:href="#DejaVuSans-33"/>
       <use xlink:href="#DejaVuSans-30" x="63.623047"/>
       <use xlink:href="#DejaVuSans-30" x="127.246094"/>
       <use xlink:href="#DejaVuSans-30" x="190.869141"/>
       <use xlink:href="#DejaVuSans-30" x="254.492188"/>
      </g>
     </g>
    </g>
    <g id="xtick_5">
     <g id="line2d_5">
      <g>
       <use xlink:href="#m4b6315708b" x="283.285415" y="162.432" style="stroke: #000000; stroke-width: 0.8"/>
      </g>
     </g>
     <g id="text_5">
      <!-- 40000 -->
      <g transform="translate(267.379165 177.030437)scale(0.1 -0.1)">
       <defs>
        <path id="DejaVuSans-34" d="M 2419 4116 
L 825 1625 
L 2419 1625 
L 2419 4116 
z
M 2253 4666 
L 3047 4666 
L 3047 1625 
L 3713 1625 
L 3713 1100 
L 3047 1100 
L 3047 0 
L 2419 0 
L 2419 1100 
L 313 1100 
L 313 1709 
L 2253 4666 
z
" transform="scale(0.015625)"/>
       </defs>
       <use xlink:href="#DejaVuSans-34"/>
       <use xlink:href="#DejaVuSans-30" x="63.623047"/>
       <use xlink:href="#DejaVuSans-30" x="127.246094"/>
       <use xlink:href="#DejaVuSans-30" x="190.869141"/>
       <use xlink:href="#DejaVuSans-30" x="254.492188"/>
      </g>
     </g>
    </g>
    <g id="xtick_6">
     <g id="line2d_6">
      <g>
       <use xlink:href="#m4b6315708b" x="335.649896" y="162.432" style="stroke: #000000; stroke-width: 0.8"/>
      </g>
     </g>
     <g id="text_6">
      <!-- 50000 -->
      <g transform="translate(319.743646 177.030437)scale(0.1 -0.1)">
       <defs>
        <path id="DejaVuSans-35" d="M 691 4666 
L 3169 4666 
L 3169 4134 
L 1269 4134 
L 1269 2991 
Q 1406 3038 1543 3061 
Q 1681 3084 1819 3084 
Q 2600 3084 3056 2656 
Q 3513 2228 3513 1497 
Q 3513 744 3044 326 
Q 2575 -91 1722 -91 
Q 1428 -91 1123 -41 
Q 819 9 494 109 
L 494 744 
Q 775 591 1075 516 
Q 1375 441 1709 441 
Q 2250 441 2565 725 
Q 2881 1009 2881 1497 
Q 2881 1984 2565 2268 
Q 2250 2553 1709 2553 
Q 1456 2553 1204 2497 
Q 953 2441 691 2322 
L 691 4666 
z
" transform="scale(0.015625)"/>
       </defs>
       <use xlink:href="#DejaVuSans-35"/>
       <use xlink:href="#DejaVuSans-30" x="63.623047"/>
       <use xlink:href="#DejaVuSans-30" x="127.246094"/>
       <use xlink:href="#DejaVuSans-30" x="190.869141"/>
       <use xlink:href="#DejaVuSans-30" x="254.492188"/>
      </g>
     </g>
    </g>
    <g id="xtick_7">
     <g id="line2d_7">
      <g>
       <use xlink:href="#m4b6315708b" x="388.014377" y="162.432" style="stroke: #000000; stroke-width: 0.8"/>
      </g>
     </g>
     <g id="text_7">
      <!-- 60000 -->
      <g transform="translate(372.108127 177.030437)scale(0.1 -0.1)">
       <defs>
        <path id="DejaVuSans-36" d="M 2113 2584 
Q 1688 2584 1439 2293 
Q 1191 2003 1191 1497 
Q 1191 994 1439 701 
Q 1688 409 2113 409 
Q 2538 409 2786 701 
Q 3034 994 3034 1497 
Q 3034 2003 2786 2293 
Q 2538 2584 2113 2584 
z
M 3366 4563 
L 3366 3988 
Q 3128 4100 2886 4159 
Q 2644 4219 2406 4219 
Q 1781 4219 1451 3797 
Q 1122 3375 1075 2522 
Q 1259 2794 1537 2939 
Q 1816 3084 2150 3084 
Q 2853 3084 3261 2657 
Q 3669 2231 3669 1497 
Q 3669 778 3244 343 
Q 2819 -91 2113 -91 
Q 1303 -91 875 529 
Q 447 1150 447 2328 
Q 447 3434 972 4092 
Q 1497 4750 2381 4750 
Q 2619 4750 2861 4703 
Q 3103 4656 3366 4563 
z
" transform="scale(0.015625)"/>
       </defs>
       <use xlink:href="#DejaVuSans-36"/>
       <use xlink:href="#DejaVuSans-30" x="63.623047"/>
       <use xlink:href="#DejaVuSans-30" x="127.246094"/>
       <use xlink:href="#DejaVuSans-30" x="190.869141"/>
       <use xlink:href="#DejaVuSans-30" x="254.492188"/>
      </g>
     </g>
    </g>
   </g>
   <g id="matplotlib.axis_2">
    <g id="ytick_1">
     <g id="line2d_8">
      <defs>
       <path id="me8f6bef938" d="M 0 0 
L -3.5 0 
" style="stroke: #000000; stroke-width: 0.8"/>
      </defs>
      <g>
       <use xlink:href="#me8f6bef938" x="57.6" y="144.213653" style="stroke: #000000; stroke-width: 0.8"/>
      </g>
     </g>
     <g id="text_8">
      <!-- 70 -->
      <g transform="translate(37.875 148.012872)scale(0.1 -0.1)">
       <defs>
        <path id="DejaVuSans-37" d="M 525 4666 
L 3525 4666 
L 3525 4397 
L 1831 0 
L 1172 0 
L 2766 4134 
L 525 4134 
L 525 4666 
z
" transform="scale(0.015625)"/>
       </defs>
       <use xlink:href="#DejaVuSans-37"/>
       <use xlink:href="#DejaVuSans-30" x="63.623047"/>
      </g>
     </g>
    </g>
    <g id="ytick_2">
     <g id="line2d_9">
      <g>
       <use xlink:href="#me8f6bef938" x="57.6" y="117.896069" style="stroke: #000000; stroke-width: 0.8"/>
      </g>
     </g>
     <g id="text_9">
      <!-- 80 -->
      <g transform="translate(37.875 121.695288)scale(0.1 -0.1)">
       <defs>
        <path id="DejaVuSans-38" d="M 2034 2216 
Q 1584 2216 1326 1975 
Q 1069 1734 1069 1313 
Q 1069 891 1326 650 
Q 1584 409 2034 409 
Q 2484 409 2743 651 
Q 3003 894 3003 1313 
Q 3003 1734 2745 1975 
Q 2488 2216 2034 2216 
z
M 1403 2484 
Q 997 2584 770 2862 
Q 544 3141 544 3541 
Q 544 4100 942 4425 
Q 1341 4750 2034 4750 
Q 2731 4750 3128 4425 
Q 3525 4100 3525 3541 
Q 3525 3141 3298 2862 
Q 3072 2584 2669 2484 
Q 3125 2378 3379 2068 
Q 3634 1759 3634 1313 
Q 3634 634 3220 271 
Q 2806 -91 2034 -91 
Q 1263 -91 848 271 
Q 434 634 434 1313 
Q 434 1759 690 2068 
Q 947 2378 1403 2484 
z
M 1172 3481 
Q 1172 3119 1398 2916 
Q 1625 2713 2034 2713 
Q 2441 2713 2670 2916 
Q 2900 3119 2900 3481 
Q 2900 3844 2670 4047 
Q 2441 4250 2034 4250 
Q 1625 4250 1398 4047 
Q 1172 3844 1172 3481 
z
" transform="scale(0.015625)"/>
       </defs>
       <use xlink:href="#DejaVuSans-38"/>
       <use xlink:href="#DejaVuSans-30" x="63.623047"/>
      </g>
     </g>
    </g>
    <g id="ytick_3">
     <g id="line2d_10">
      <g>
       <use xlink:href="#me8f6bef938" x="57.6" y="91.578486" style="stroke: #000000; stroke-width: 0.8"/>
      </g>
     </g>
     <g id="text_10">
      <!-- 90 -->
      <g transform="translate(37.875 95.377705)scale(0.1 -0.1)">
       <defs>
        <path id="DejaVuSans-39" d="M 703 97 
L 703 672 
Q 941 559 1184 500 
Q 1428 441 1663 441 
Q 2288 441 2617 861 
Q 2947 1281 2994 2138 
Q 2813 1869 2534 1725 
Q 2256 1581 1919 1581 
Q 1219 1581 811 2004 
Q 403 2428 403 3163 
Q 403 3881 828 4315 
Q 1253 4750 1959 4750 
Q 2769 4750 3195 4129 
Q 3622 3509 3622 2328 
Q 3622 1225 3098 567 
Q 2575 -91 1691 -91 
Q 1453 -91 1209 -44 
Q 966 3 703 97 
z
M 1959 2075 
Q 2384 2075 2632 2365 
Q 2881 2656 2881 3163 
Q 2881 3666 2632 3958 
Q 2384 4250 1959 4250 
Q 1534 4250 1286 3958 
Q 1038 3666 1038 3163 
Q 1038 2656 1286 2365 
Q 1534 2075 1959 2075 
z
" transform="scale(0.015625)"/>
       </defs>
       <use xlink:href="#DejaVuSans-39"/>
       <use xlink:href="#DejaVuSans-30" x="63.623047"/>
      </g>
     </g>
    </g>
    <g id="ytick_4">
     <g id="line2d_11">
      <g>
       <use xlink:href="#me8f6bef938" x="57.6" y="65.260902" style="stroke: #000000; stroke-width: 0.8"/>
      </g>
     </g>
     <g id="text_11">
      <!-- 100 -->
      <g transform="translate(31.5125 69.060121)scale(0.1 -0.1)">
       <use xlink:href="#DejaVuSans-31"/>
       <use xlink:href="#DejaVuSans-30" x="63.623047"/>
       <use xlink:href="#DejaVuSans-30" x="127.246094"/>
      </g>
     </g>
    </g>
   </g>
   <g id="line2d_12">
    <path d="M 73.832727 65.260902 
L 73.848437 65.260902 
L 73.942693 70.524419 
L 73.963638 69.20854 
L 73.968875 69.20854 
L 74.016003 67.454034 
L 74.031712 72.717551 
L 74.036949 72.717551 
L 74.084077 72.717551 
L 74.204515 77.981068 
L 74.272589 77.981068 
L 74.387791 80.612826 
L 74.628667 80.612826 
L 74.749106 85.876343 
L 74.754342 85.876343 
L 74.822416 88.508101 
L 74.864308 87.192222 
L 75.031874 87.192222 
L 75.099948 85.876343 
L 75.105184 88.508101 
L 75.136603 88.508101 
L 75.267514 88.508101 
L 75.382716 91.139859 
L 75.749267 91.139859 
L 75.864469 89.82398 
L 76.304331 89.82398 
L 76.419533 92.455739 
L 77.786246 92.455739 
L 77.901447 95.087497 
L 81.216119 95.087497 
L 81.331321 94.561145 
L 83.064585 94.561145 
L 83.179787 97.192904 
L 87.499857 97.192904 
L 87.615059 95.877024 
L 103.696191 95.877024 
L 103.811393 98.508783 
L 107.801566 98.508783 
L 107.916768 101.140541 
L 112.624335 101.140541 
L 112.739537 103.7723 
L 115.038337 103.7723 
L 115.153539 102.45642 
L 122.374601 102.45642 
L 122.489803 101.140541 
L 145.200278 101.140541 
L 145.31548 103.7723 
L 170.523741 103.7723 
L 170.638943 102.45642 
L 183.651517 102.45642 
L 183.766719 105.088179 
L 185.452855 105.088179 
L 185.568057 107.719937 
L 210.142708 107.719937 
L 210.257909 110.351695 
L 398.487273 110.351695 
L 398.487273 110.351695 
" clip-path="url(#paa23436d4d)" style="fill: none; stroke: #1f77b4; stroke-width: 1.5; stroke-linecap: square"/>
   </g>
   <g id="line2d_13">
    <path d="M 73.832727 65.260902 
L 73.879855 72.498238 
L 73.947929 67.673347 
L 73.968875 67.673347 
L 74.084077 74.69137 
L 74.089313 73.814117 
L 74.09455 73.814117 
L 74.194042 76.445875 
L 74.204515 73.814117 
L 74.214988 73.814117 
L 74.33019 77.761755 
L 74.335426 77.761755 
L 74.424446 81.709392 
L 74.445392 79.077634 
L 74.471574 79.077634 
L 74.586776 81.709392 
L 74.592012 81.709392 
L 74.644377 76.445875 
L 74.707214 79.077634 
L 74.754342 79.077634 
L 74.822416 81.709392 
L 74.864308 80.393513 
L 75.031874 80.393513 
L 75.03711 79.077634 
L 75.105184 84.34115 
L 75.136603 81.709392 
L 75.225622 81.709392 
L 75.267514 81.051452 
L 75.27275 83.683211 
L 75.319879 83.683211 
L 75.43508 83.683211 
L 75.513627 86.314969 
L 75.545046 83.683211 
L 75.749267 83.683211 
L 75.864469 82.367332 
L 76.304331 82.367332 
L 76.424769 87.630848 
L 76.435242 87.630848 
L 76.550444 84.99909 
L 77.346384 84.99909 
L 77.35162 82.367332 
L 77.456349 84.99909 
L 77.786246 84.99909 
L 77.901447 87.630848 
L 78.058541 87.630848 
L 78.173743 90.262607 
L 78.23658 90.262607 
L 78.372728 86.972909 
L 79.116303 86.972909 
L 79.231505 86.314969 
L 81.216119 86.314969 
L 81.331321 85.788617 
L 81.546015 85.788617 
L 81.666454 91.052134 
L 82.635197 91.052134 
L 82.750398 93.683893 
L 83.064585 93.683893 
L 83.179787 92.368013 
L 87.499857 92.368013 
L 87.615059 91.052134 
L 93.401334 91.052134 
L 93.516536 93.683893 
L 94.275821 93.683893 
L 94.391022 96.315651 
L 101.224587 96.315651 
L 101.339789 93.683893 
L 103.696191 93.683893 
L 103.811393 96.315651 
L 107.272685 96.315651 
L 107.387887 98.947409 
L 107.801566 98.947409 
L 107.916768 97.63153 
L 108.299029 97.63153 
L 108.41423 94.999772 
L 111.760321 94.999772 
L 111.875523 97.63153 
L 112.624335 97.63153 
L 112.739537 100.263288 
L 115.038337 100.263288 
L 115.153539 98.947409 
L 119.164658 98.947409 
L 119.27986 96.315651 
L 122.374601 96.315651 
L 122.489803 94.999772 
L 145.200278 94.999772 
L 145.320717 100.263288 
L 170.523741 100.263288 
L 170.638943 98.947409 
L 183.651517 98.947409 
L 183.766719 97.63153 
L 185.452855 97.63153 
L 185.568057 100.263288 
L 190.296569 100.263288 
L 190.411771 97.63153 
L 210.142708 97.63153 
L 210.257909 100.263288 
L 226.972652 100.263288 
L 227.087854 102.895047 
L 235.073437 102.895047 
L 235.188639 100.263288 
L 309.425764 100.263288 
L 309.540965 102.895047 
L 310.169339 102.895047 
L 310.284541 101.579168 
L 329.86362 101.579168 
L 329.978822 104.210926 
L 398.487273 104.210926 
L 398.487273 104.210926 
" clip-path="url(#paa23436d4d)" style="fill: none; stroke: #ff7f0e; stroke-width: 1.5; stroke-linecap: square"/>
   </g>
   <g id="line2d_14">
    <path d="M 73.832727 67.892661 
L 73.848437 67.892661 
L 73.968875 83.025271 
L 73.984584 82.586645 
L 74.016003 82.586645 
L 74.131205 94.429557 
L 74.146914 93.771618 
L 74.194042 93.771618 
L 74.31448 101.008953 
L 74.324953 101.008953 
L 74.351136 99.693074 
L 74.356372 102.324832 
L 74.424446 101.666893 
L 74.529175 106.27247 
L 74.539648 105.61453 
L 74.592012 105.61453 
L 74.644377 108.246289 
L 74.701978 107.588349 
L 74.754342 107.588349 
L 74.822416 106.93041 
L 74.827652 109.562168 
L 74.848598 109.562168 
L 75.031874 109.562168 
L 75.147076 113.509805 
L 75.225622 113.509805 
L 75.267514 116.141564 
L 75.335588 115.483624 
L 75.43508 115.483624 
L 75.513627 114.825685 
L 75.518864 117.457443 
L 75.529336 117.457443 
L 75.749267 117.457443 
L 75.864469 120.089201 
L 76.304331 120.089201 
L 76.424769 118.773322 
L 76.435242 118.773322 
L 76.550444 121.40508 
L 77.346384 121.40508 
L 77.35162 124.036839 
L 77.456349 123.378899 
L 77.786246 123.378899 
L 77.901447 122.72096 
L 78.058541 122.72096 
L 78.173743 122.06302 
L 78.23658 122.06302 
L 78.357018 127.326537 
L 79.116303 127.326537 
L 79.231505 129.958295 
L 81.216119 129.958295 
L 81.331321 132.590053 
L 81.546015 132.590053 
L 81.666454 131.274174 
L 82.635197 131.274174 
L 82.750398 130.616235 
L 83.064585 130.616235 
L 83.179787 133.247993 
L 87.499857 133.247993 
L 87.615059 135.879751 
L 93.401334 135.879751 
L 93.516536 135.221812 
L 94.275821 135.221812 
L 94.391022 134.563872 
L 101.224587 134.563872 
L 101.339789 137.195631 
L 103.696191 137.195631 
L 103.811393 136.537691 
L 107.272685 136.537691 
L 107.387887 135.879751 
L 107.801566 135.879751 
L 107.916768 138.51151 
L 108.299029 138.51151 
L 108.41423 141.143268 
L 111.760321 141.143268 
L 111.875523 140.485328 
L 112.624335 140.485328 
L 112.739537 139.827389 
L 115.038337 139.827389 
L 115.153539 142.459147 
L 119.164658 142.459147 
L 119.27986 145.090906 
L 122.374601 145.090906 
L 122.489803 147.722664 
L 145.200278 147.722664 
L 145.320717 146.406785 
L 170.523741 146.406785 
L 170.638943 149.038543 
L 183.651517 149.038543 
L 183.766719 151.670301 
L 185.452855 151.670301 
L 185.568057 151.012362 
L 190.296569 151.012362 
L 190.411771 153.64412 
L 210.142708 153.64412 
L 210.257909 152.986181 
L 226.972652 152.986181 
L 227.087854 152.328241 
L 235.073437 152.328241 
L 235.188639 154.959999 
L 309.425764 154.959999 
L 309.540965 154.30206 
L 310.169339 154.30206 
L 310.284541 156.933818 
L 329.86362 156.933818 
L 329.978822 156.275879 
L 398.487273 156.275879 
L 398.487273 156.275879 
" clip-path="url(#paa23436d4d)" style="fill: none; stroke: #2ca02c; stroke-width: 1.5; stroke-linecap: square"/>
   </g>
   <g id="line2d_15">
    <path d="M 73.832727 65.260902 
L 73.968875 65.260902 
L 74.031712 64.822276 
L 74.036949 67.454034 
L 74.057895 66.796095 
L 74.09455 66.796095 
L 74.209752 66.138155 
L 74.214988 66.138155 
L 74.340663 64.164336 
L 74.529175 64.164336 
L 74.644377 63.506397 
L 75.03711 63.506397 
L 75.152312 62.848457 
L 77.346384 62.848457 
L 77.461586 65.480216 
L 398.487273 65.480216 
L 398.487273 65.480216 
" clip-path="url(#paa23436d4d)" style="fill: none; stroke: #d62728; stroke-width: 1.5; stroke-linecap: square"/>
   </g>
   <g id="line2d_16">
    <path d="M 73.832727 67.892661 
L 73.837964 67.892661 
L 73.921747 81.051452 
L 73.968875 80.393513 
L 74.016003 79.954886 
L 74.021239 82.586645 
L 74.052658 82.586645 
L 74.084077 82.586645 
L 74.131205 85.218403 
L 74.194042 84.560464 
L 74.366845 84.560464 
L 74.487283 83.244584 
L 74.644377 83.244584 
L 74.764815 81.928705 
L 75.099948 81.928705 
L 75.21515 81.270766 
L 75.267514 81.270766 
L 75.382716 80.612826 
L 75.43508 80.612826 
L 75.550282 79.954886 
L 76.304331 79.954886 
L 76.424769 78.639007 
L 77.35162 78.639007 
L 77.466822 77.981068 
L 77.786246 77.981068 
L 77.901447 77.323128 
L 78.058541 77.323128 
L 78.173743 76.665189 
L 79.116303 76.665189 
L 79.231505 79.296947 
L 81.546015 79.296947 
L 81.666454 77.981068 
L 82.635197 77.981068 
L 82.750398 77.323128 
L 83.064585 77.323128 
L 83.179787 79.954886 
L 93.401334 79.954886 
L 93.516536 79.296947 
L 94.275821 79.296947 
L 94.391022 78.639007 
L 103.696191 78.639007 
L 103.811393 77.981068 
L 107.272685 77.981068 
L 107.387887 77.323128 
L 107.801566 77.323128 
L 107.916768 79.954886 
L 111.760321 79.954886 
L 111.875523 79.296947 
L 112.624335 79.296947 
L 112.739537 78.639007 
L 145.200278 78.639007 
L 145.320717 77.323128 
L 183.651517 77.323128 
L 183.766719 79.954886 
L 185.452855 79.954886 
L 185.568057 79.296947 
L 210.142708 79.296947 
L 210.257909 78.639007 
L 226.972652 78.639007 
L 227.087854 77.981068 
L 309.425764 77.981068 
L 309.540965 77.323128 
L 310.169339 77.323128 
L 310.284541 79.954886 
L 329.86362 79.954886 
L 329.978822 79.296947 
L 398.487273 79.296947 
L 398.487273 79.296947 
" clip-path="url(#paa23436d4d)" style="fill: none; stroke: #9467bd; stroke-width: 1.5; stroke-linecap: square"/>
   </g>
   <g id="line2d_17">
    <path d="M 73.832727 65.260902 
L 73.837964 65.260902 
L 73.953166 63.72571 
L 74.272589 63.72571 
L 74.387791 66.357468 
L 75.225622 66.357468 
L 75.340824 65.699529 
L 78.23658 65.699529 
L 78.351782 65.041589 
L 79.116303 65.041589 
L 79.231505 64.38365 
L 81.216119 64.38365 
L 81.331321 63.857298 
L 180.980928 63.857298 
L 181.09613 62.980045 
L 398.487273 62.980045 
L 398.487273 62.980045 
" clip-path="url(#paa23436d4d)" style="fill: none; stroke: #8c564b; stroke-width: 1.5; stroke-linecap: square"/>
   </g>
   <g id="line2d_18">
    <path d="M 73.832727 67.892661 
L 73.837964 67.892661 
L 73.968875 85.65703 
L 73.979348 85.218403 
L 74.031712 85.218403 
L 74.131205 89.166041 
L 74.146914 88.508101 
L 74.194042 88.508101 
L 74.309244 92.455739 
L 74.324953 92.455739 
L 74.351136 91.139859 
L 74.356372 93.771618 
L 74.424446 93.113678 
L 74.529175 97.719255 
L 74.539648 97.061316 
L 74.592012 97.061316 
L 74.644377 99.693074 
L 74.701978 99.035134 
L 74.754342 99.035134 
L 74.822416 98.377195 
L 74.827652 101.008953 
L 74.848598 101.008953 
L 75.031874 101.008953 
L 75.147076 104.956591 
L 75.225622 104.956591 
L 75.267514 107.588349 
L 75.335588 106.93041 
L 75.43508 106.93041 
L 75.513627 106.27247 
L 75.518864 108.904228 
L 75.529336 108.904228 
L 75.749267 108.904228 
L 75.864469 111.535987 
L 76.304331 111.535987 
L 76.424769 110.220107 
L 76.435242 110.220107 
L 76.550444 112.851866 
L 77.346384 112.851866 
L 77.35162 115.483624 
L 77.456349 114.825685 
L 77.786246 114.825685 
L 77.901447 114.167745 
L 78.058541 114.167745 
L 78.173743 113.509805 
L 78.23658 113.509805 
L 78.357018 118.773322 
L 79.116303 118.773322 
L 79.231505 121.40508 
L 81.216119 121.40508 
L 81.331321 124.036839 
L 81.546015 124.036839 
L 81.666454 122.72096 
L 82.635197 122.72096 
L 82.750398 122.06302 
L 87.499857 122.06302 
L 87.615059 124.694778 
L 93.401334 124.694778 
L 93.516536 124.036839 
L 94.275821 124.036839 
L 94.391022 123.378899 
L 101.224587 123.378899 
L 101.339789 126.010658 
L 103.696191 126.010658 
L 103.811393 125.352718 
L 107.272685 125.352718 
L 107.387887 124.694778 
L 108.299029 124.694778 
L 108.41423 127.326537 
L 111.760321 127.326537 
L 111.875523 126.668597 
L 112.624335 126.668597 
L 112.739537 126.010658 
L 115.038337 126.010658 
L 115.153539 128.642416 
L 119.164658 128.642416 
L 119.27986 131.274174 
L 122.374601 131.274174 
L 122.489803 133.905933 
L 145.200278 133.905933 
L 145.320717 132.590053 
L 170.523741 132.590053 
L 170.638943 135.221812 
L 180.980928 135.221812 
L 181.09613 137.85357 
L 185.452855 137.85357 
L 185.568057 137.195631 
L 190.296569 137.195631 
L 190.411771 139.827389 
L 210.142708 139.827389 
L 210.257909 139.169449 
L 226.972652 139.169449 
L 227.087854 138.51151 
L 235.073437 138.51151 
L 235.188639 141.143268 
L 309.425764 141.143268 
L 309.540965 140.485328 
L 329.86362 140.485328 
L 329.978822 139.827389 
L 398.487273 139.827389 
L 398.487273 139.827389 
" clip-path="url(#paa23436d4d)" style="fill: none; stroke: #e377c2; stroke-width: 1.5; stroke-linecap: square"/>
   </g>
   <g id="line2d_19">
    <path d="M 73.832727 64.38365 
L 73.837964 64.38365 
L 73.963638 61.532578 
L 74.272589 61.532578 
L 74.387791 64.164336 
L 75.225622 64.164336 
L 75.340824 63.506397 
L 78.23658 63.506397 
L 78.351782 62.848457 
L 79.116303 62.848457 
L 79.231505 62.190518 
L 81.216119 62.190518 
L 81.331321 61.664166 
L 180.980928 61.664166 
L 181.09613 60.786913 
L 398.487273 60.786913 
L 398.487273 60.786913 
" clip-path="url(#paa23436d4d)" style="fill: none; stroke: #7f7f7f; stroke-width: 1.5; stroke-linecap: square"/>
   </g>
   <g id="line2d_20">
    <path d="M 73.832727 65.260902 
L 73.837964 65.260902 
L 73.968875 79.51626 
L 73.974111 79.077634 
L 74.016003 79.077634 
L 74.031712 76.884502 
L 74.120732 79.954886 
L 74.131205 79.954886 
L 74.194042 79.296947 
L 74.199279 81.928705 
L 74.230697 81.270766 
L 74.272589 81.270766 
L 74.288298 80.612826 
L 74.356372 84.560464 
L 74.366845 84.560464 
L 74.424446 83.902524 
L 74.429682 86.534282 
L 74.461101 86.534282 
L 74.471574 86.534282 
L 74.47681 85.876343 
L 74.482047 88.508101 
L 74.571066 87.850162 
L 74.592012 87.850162 
L 74.644377 90.48192 
L 74.701978 89.82398 
L 74.754342 89.82398 
L 74.822416 89.166041 
L 74.827652 91.797799 
L 74.848598 91.797799 
L 75.031874 91.797799 
L 75.147076 95.745437 
L 75.225622 95.745437 
L 75.267514 98.377195 
L 75.335588 97.719255 
L 75.43508 97.719255 
L 75.513627 97.061316 
L 75.518864 99.693074 
L 75.529336 99.693074 
L 75.749267 99.693074 
L 75.864469 102.324832 
L 76.304331 102.324832 
L 76.424769 101.008953 
L 76.435242 101.008953 
L 76.550444 103.640712 
L 77.346384 103.640712 
L 77.35162 106.27247 
L 77.456349 105.61453 
L 77.786246 105.61453 
L 77.901447 104.956591 
L 78.058541 104.956591 
L 78.173743 104.298651 
L 78.23658 104.298651 
L 78.357018 109.562168 
L 79.116303 109.562168 
L 79.231505 112.193926 
L 81.216119 112.193926 
L 81.331321 114.825685 
L 81.546015 114.825685 
L 81.666454 113.509805 
L 82.635197 113.509805 
L 82.750398 112.851866 
L 87.499857 112.851866 
L 87.615059 115.483624 
L 93.401334 115.483624 
L 93.516536 114.825685 
L 94.275821 114.825685 
L 94.391022 114.167745 
L 101.224587 114.167745 
L 101.339789 116.799503 
L 103.696191 116.799503 
L 103.811393 116.141564 
L 107.272685 116.141564 
L 107.387887 115.483624 
L 108.299029 115.483624 
L 108.41423 118.115383 
L 111.760321 118.115383 
L 111.875523 117.457443 
L 112.624335 117.457443 
L 112.739537 116.799503 
L 115.038337 116.799503 
L 115.153539 119.431262 
L 119.164658 119.431262 
L 119.27986 122.06302 
L 122.374601 122.06302 
L 122.489803 124.694778 
L 145.200278 124.694778 
L 145.320717 123.378899 
L 170.523741 123.378899 
L 170.638943 126.010658 
L 180.980928 126.010658 
L 181.09613 128.642416 
L 185.452855 128.642416 
L 185.568057 127.984476 
L 190.296569 127.984476 
L 190.411771 130.616235 
L 210.142708 130.616235 
L 210.257909 129.958295 
L 226.972652 129.958295 
L 227.087854 129.300356 
L 235.073437 129.300356 
L 235.188639 131.932114 
L 309.425764 131.932114 
L 309.540965 131.274174 
L 329.86362 131.274174 
L 329.978822 130.616235 
L 398.487273 130.616235 
L 398.487273 130.616235 
" clip-path="url(#paa23436d4d)" style="fill: none; stroke: #bcbd22; stroke-width: 1.5; stroke-linecap: square"/>
   </g>
   <g id="line2d_21">
    <path d="M 73.832727 64.38365 
L 73.837964 64.38365 
L 73.974111 59.339446 
L 74.016003 59.339446 
L 74.141678 56.269061 
L 74.272589 56.269061 
L 74.387791 55.611122 
L 75.225622 55.611122 
L 75.340824 54.953182 
L 78.23658 54.953182 
L 78.351782 54.295243 
L 79.116303 54.295243 
L 79.231505 53.637303 
L 81.216119 53.637303 
L 81.331321 53.110951 
L 83.064585 53.110951 
L 83.179787 51.795072 
L 107.801566 51.795072 
L 107.916768 50.479193 
L 180.980928 50.479193 
L 181.09613 49.60194 
L 183.651517 49.60194 
L 183.766719 48.286061 
L 310.169339 48.286061 
L 310.284541 46.970182 
L 398.487273 46.970182 
L 398.487273 46.970182 
" clip-path="url(#paa23436d4d)" style="fill: none; stroke: #17becf; stroke-width: 1.5; stroke-linecap: square"/>
   </g>
   <g id="line2d_22">
    <path d="M 73.832727 65.260902 
L 73.837964 65.260902 
L 73.958402 70.524419 
L 74.272589 70.524419 
L 74.387791 69.866479 
L 75.225622 69.866479 
L 75.340824 72.498238 
L 78.23658 72.498238 
L 78.351782 75.129996 
L 79.116303 75.129996 
L 79.231505 77.761755 
L 81.216119 77.761755 
L 81.331321 80.393513 
L 180.980928 80.393513 
L 181.09613 83.025271 
L 398.487273 83.025271 
L 398.487273 83.025271 
" clip-path="url(#paa23436d4d)" style="fill: none; stroke: #1f77b4; stroke-width: 1.5; stroke-linecap: square"/>
   </g>
   <g id="line2d_23">
    <path d="M 73.832727 64.38365 
L 73.947929 60.436012 
L 74.00553 60.436012 
L 74.131205 56.488375 
L 74.628667 56.488375 
L 74.743869 59.120133 
L 398.487273 59.120133 
L 398.487273 59.120133 
" clip-path="url(#paa23436d4d)" style="fill: none; stroke: #ff7f0e; stroke-width: 1.5; stroke-linecap: square"/>
   </g>
   <g id="patch_3">
    <path d="M 57.6 162.432 
L 57.6 41.472 
" style="fill: none; stroke: #000000; stroke-width: 0.8; stroke-linejoin: miter; stroke-linecap: square"/>
   </g>
   <g id="patch_4">
    <path d="M 414.72 162.432 
L 414.72 41.472 
" style="fill: none; stroke: #000000; stroke-width: 0.8; stroke-linejoin: miter; stroke-linecap: square"/>
   </g>
   <g id="patch_5">
    <path d="M 57.6 162.432 
L 414.72 162.432 
" style="fill: none; stroke: #000000; stroke-width: 0.8; stroke-linejoin: miter; stroke-linecap: square"/>
   </g>
   <g id="patch_6">
    <path d="M 57.6 41.472 
L 414.72 41.472 
" style="fill: none; stroke: #000000; stroke-width: 0.8; stroke-linejoin: miter; stroke-linecap: square"/>
   </g>
   <g id="text_12">
    <!-- WSP -->
    <g transform="translate(361.832136 110.351695)scale(0.08 -0.08)">
     <defs>
      <path id="DejaVuSans-57" d="M 213 4666 
L 850 4666 
L 1831 722 
L 2809 4666 
L 3519 4666 
L 4500 722 
L 5478 4666 
L 6119 4666 
L 4947 0 
L 4153 0 
L 3169 4050 
L 2175 0 
L 1381 0 
L 213 4666 
z
" transform="scale(0.015625)"/>
      <path id="DejaVuSans-53" d="M 3425 4513 
L 3425 3897 
Q 3066 4069 2747 4153 
Q 2428 4238 2131 4238 
Q 1616 4238 1336 4038 
Q 1056 3838 1056 3469 
Q 1056 3159 1242 3001 
Q 1428 2844 1947 2747 
L 2328 2669 
Q 3034 2534 3370 2195 
Q 3706 1856 3706 1288 
Q 3706 609 3251 259 
Q 2797 -91 1919 -91 
Q 1588 -91 1214 -16 
Q 841 59 441 206 
L 441 856 
Q 825 641 1194 531 
Q 1563 422 1919 422 
Q 2459 422 2753 634 
Q 3047 847 3047 1241 
Q 3047 1584 2836 1778 
Q 2625 1972 2144 2069 
L 1759 2144 
Q 1053 2284 737 2584 
Q 422 2884 422 3419 
Q 422 4038 858 4394 
Q 1294 4750 2059 4750 
Q 2388 4750 2728 4690 
Q 3069 4631 3425 4513 
z
" transform="scale(0.015625)"/>
      <path id="DejaVuSans-50" d="M 1259 4147 
L 1259 2394 
L 2053 2394 
Q 2494 2394 2734 2622 
Q 2975 2850 2975 3272 
Q 2975 3691 2734 3919 
Q 2494 4147 2053 4147 
L 1259 4147 
z
M 628 4666 
L 2053 4666 
Q 2838 4666 3239 4311 
Q 3641 3956 3641 3272 
Q 3641 2581 3239 2228 
Q 2838 1875 2053 1875 
L 1259 1875 
L 1259 0 
L 628 0 
L 628 4666 
z
" transform="scale(0.015625)"/>
     </defs>
     <use xlink:href="#DejaVuSans-57"/>
     <use xlink:href="#DejaVuSans-53" x="98.876953"/>
     <use xlink:href="#DejaVuSans-50" x="162.353516"/>
    </g>
   </g>
   <g id="text_13">
    <!-- Iambic -->
    <g transform="translate(361.832136 104.210926)scale(0.08 -0.08)">
     <defs>
      <path id="DejaVuSans-49" d="M 628 4666 
L 1259 4666 
L 1259 0 
L 628 0 
L 628 4666 
z
" transform="scale(0.015625)"/>
      <path id="DejaVuSans-61" d="M 2194 1759 
Q 1497 1759 1228 1600 
Q 959 1441 959 1056 
Q 959 750 1161 570 
Q 1363 391 1709 391 
Q 2188 391 2477 730 
Q 2766 1069 2766 1631 
L 2766 1759 
L 2194 1759 
z
M 3341 1997 
L 3341 0 
L 2766 0 
L 2766 531 
Q 2569 213 2275 61 
Q 1981 -91 1556 -91 
Q 1019 -91 701 211 
Q 384 513 384 1019 
Q 384 1609 779 1909 
Q 1175 2209 1959 2209 
L 2766 2209 
L 2766 2266 
Q 2766 2663 2505 2880 
Q 2244 3097 1772 3097 
Q 1472 3097 1187 3025 
Q 903 2953 641 2809 
L 641 3341 
Q 956 3463 1253 3523 
Q 1550 3584 1831 3584 
Q 2591 3584 2966 3190 
Q 3341 2797 3341 1997 
z
" transform="scale(0.015625)"/>
      <path id="DejaVuSans-6d" d="M 3328 2828 
Q 3544 3216 3844 3400 
Q 4144 3584 4550 3584 
Q 5097 3584 5394 3201 
Q 5691 2819 5691 2113 
L 5691 0 
L 5113 0 
L 5113 2094 
Q 5113 2597 4934 2840 
Q 4756 3084 4391 3084 
Q 3944 3084 3684 2787 
Q 3425 2491 3425 1978 
L 3425 0 
L 2847 0 
L 2847 2094 
Q 2847 2600 2669 2842 
Q 2491 3084 2119 3084 
Q 1678 3084 1418 2786 
Q 1159 2488 1159 1978 
L 1159 0 
L 581 0 
L 581 3500 
L 1159 3500 
L 1159 2956 
Q 1356 3278 1631 3431 
Q 1906 3584 2284 3584 
Q 2666 3584 2933 3390 
Q 3200 3197 3328 2828 
z
" transform="scale(0.015625)"/>
      <path id="DejaVuSans-62" d="M 3116 1747 
Q 3116 2381 2855 2742 
Q 2594 3103 2138 3103 
Q 1681 3103 1420 2742 
Q 1159 2381 1159 1747 
Q 1159 1113 1420 752 
Q 1681 391 2138 391 
Q 2594 391 2855 752 
Q 3116 1113 3116 1747 
z
M 1159 2969 
Q 1341 3281 1617 3432 
Q 1894 3584 2278 3584 
Q 2916 3584 3314 3078 
Q 3713 2572 3713 1747 
Q 3713 922 3314 415 
Q 2916 -91 2278 -91 
Q 1894 -91 1617 61 
Q 1341 213 1159 525 
L 1159 0 
L 581 0 
L 581 4863 
L 1159 4863 
L 1159 2969 
z
" transform="scale(0.015625)"/>
      <path id="DejaVuSans-69" d="M 603 3500 
L 1178 3500 
L 1178 0 
L 603 0 
L 603 3500 
z
M 603 4863 
L 1178 4863 
L 1178 4134 
L 603 4134 
L 603 4863 
z
" transform="scale(0.015625)"/>
      <path id="DejaVuSans-63" d="M 3122 3366 
L 3122 2828 
Q 2878 2963 2633 3030 
Q 2388 3097 2138 3097 
Q 1578 3097 1268 2742 
Q 959 2388 959 1747 
Q 959 1106 1268 751 
Q 1578 397 2138 397 
Q 2388 397 2633 464 
Q 2878 531 3122 666 
L 3122 134 
Q 2881 22 2623 -34 
Q 2366 -91 2075 -91 
Q 1284 -91 818 406 
Q 353 903 353 1747 
Q 353 2603 823 3093 
Q 1294 3584 2113 3584 
Q 2378 3584 2631 3529 
Q 2884 3475 3122 3366 
z
" transform="scale(0.015625)"/>
     </defs>
     <use xlink:href="#DejaVuSans-49"/>
     <use xlink:href="#DejaVuSans-61" x="29.492188"/>
     <use xlink:href="#DejaVuSans-6d" x="90.771484"/>
     <use xlink:href="#DejaVuSans-62" x="188.183594"/>
     <use xlink:href="#DejaVuSans-69" x="251.660156"/>
     <use xlink:href="#DejaVuSans-63" x="279.443359"/>
    </g>
   </g>
   <g id="text_14">
    <!-- Parse -->
    <g transform="translate(361.832136 156.275879)scale(0.08 -0.08)">
     <defs>
      <path id="DejaVuSans-72" d="M 2631 2963 
Q 2534 3019 2420 3045 
Q 2306 3072 2169 3072 
Q 1681 3072 1420 2755 
Q 1159 2438 1159 1844 
L 1159 0 
L 581 0 
L 581 3500 
L 1159 3500 
L 1159 2956 
Q 1341 3275 1631 3429 
Q 1922 3584 2338 3584 
Q 2397 3584 2469 3576 
Q 2541 3569 2628 3553 
L 2631 2963 
z
" transform="scale(0.015625)"/>
      <path id="DejaVuSans-73" d="M 2834 3397 
L 2834 2853 
Q 2591 2978 2328 3040 
Q 2066 3103 1784 3103 
Q 1356 3103 1142 2972 
Q 928 2841 928 2578 
Q 928 2378 1081 2264 
Q 1234 2150 1697 2047 
L 1894 2003 
Q 2506 1872 2764 1633 
Q 3022 1394 3022 966 
Q 3022 478 2636 193 
Q 2250 -91 1575 -91 
Q 1294 -91 989 -36 
Q 684 19 347 128 
L 347 722 
Q 666 556 975 473 
Q 1284 391 1588 391 
Q 1994 391 2212 530 
Q 2431 669 2431 922 
Q 2431 1156 2273 1281 
Q 2116 1406 1581 1522 
L 1381 1569 
Q 847 1681 609 1914 
Q 372 2147 372 2553 
Q 372 3047 722 3315 
Q 1072 3584 1716 3584 
Q 2034 3584 2315 3537 
Q 2597 3491 2834 3397 
z
" transform="scale(0.015625)"/>
      <path id="DejaVuSans-65" d="M 3597 1894 
L 3597 1613 
L 953 1613 
Q 991 1019 1311 708 
Q 1631 397 2203 397 
Q 2534 397 2845 478 
Q 3156 559 3463 722 
L 3463 178 
Q 3153 47 2828 -22 
Q 2503 -91 2169 -91 
Q 1331 -91 842 396 
Q 353 884 353 1716 
Q 353 2575 817 3079 
Q 1281 3584 2069 3584 
Q 2775 3584 3186 3129 
Q 3597 2675 3597 1894 
z
M 3022 2063 
Q 3016 2534 2758 2815 
Q 2500 3097 2075 3097 
Q 1594 3097 1305 2825 
Q 1016 2553 972 2059 
L 3022 2063 
z
" transform="scale(0.015625)"/>
     </defs>
     <use xlink:href="#DejaVuSans-50"/>
     <use xlink:href="#DejaVuSans-61" x="55.802734"/>
     <use xlink:href="#DejaVuSans-72" x="117.082031"/>
     <use xlink:href="#DejaVuSans-73" x="158.195312"/>
     <use xlink:href="#DejaVuSans-65" x="210.294922"/>
    </g>
   </g>
   <g id="text_15">
    <!-- FootBin -->
    <g transform="translate(361.832136 65.480216)scale(0.08 -0.08)">
     <defs>
      <path id="DejaVuSans-46" d="M 628 4666 
L 3309 4666 
L 3309 4134 
L 1259 4134 
L 1259 2759 
L 3109 2759 
L 3109 2228 
L 1259 2228 
L 1259 0 
L 628 0 
L 628 4666 
z
" transform="scale(0.015625)"/>
      <path id="DejaVuSans-6f" d="M 1959 3097 
Q 1497 3097 1228 2736 
Q 959 2375 959 1747 
Q 959 1119 1226 758 
Q 1494 397 1959 397 
Q 2419 397 2687 759 
Q 2956 1122 2956 1747 
Q 2956 2369 2687 2733 
Q 2419 3097 1959 3097 
z
M 1959 3584 
Q 2709 3584 3137 3096 
Q 3566 2609 3566 1747 
Q 3566 888 3137 398 
Q 2709 -91 1959 -91 
Q 1206 -91 779 398 
Q 353 888 353 1747 
Q 353 2609 779 3096 
Q 1206 3584 1959 3584 
z
" transform="scale(0.015625)"/>
      <path id="DejaVuSans-74" d="M 1172 4494 
L 1172 3500 
L 2356 3500 
L 2356 3053 
L 1172 3053 
L 1172 1153 
Q 1172 725 1289 603 
Q 1406 481 1766 481 
L 2356 481 
L 2356 0 
L 1766 0 
Q 1100 0 847 248 
Q 594 497 594 1153 
L 594 3053 
L 172 3053 
L 172 3500 
L 594 3500 
L 594 4494 
L 1172 4494 
z
" transform="scale(0.015625)"/>
      <path id="DejaVuSans-42" d="M 1259 2228 
L 1259 519 
L 2272 519 
Q 2781 519 3026 730 
Q 3272 941 3272 1375 
Q 3272 1813 3026 2020 
Q 2781 2228 2272 2228 
L 1259 2228 
z
M 1259 4147 
L 1259 2741 
L 2194 2741 
Q 2656 2741 2882 2914 
Q 3109 3088 3109 3444 
Q 3109 3797 2882 3972 
Q 2656 4147 2194 4147 
L 1259 4147 
z
M 628 4666 
L 2241 4666 
Q 2963 4666 3353 4366 
Q 3744 4066 3744 3513 
Q 3744 3084 3544 2831 
Q 3344 2578 2956 2516 
Q 3422 2416 3680 2098 
Q 3938 1781 3938 1306 
Q 3938 681 3513 340 
Q 3088 0 2303 0 
L 628 0 
L 628 4666 
z
" transform="scale(0.015625)"/>
      <path id="DejaVuSans-6e" d="M 3513 2113 
L 3513 0 
L 2938 0 
L 2938 2094 
Q 2938 2591 2744 2837 
Q 2550 3084 2163 3084 
Q 1697 3084 1428 2787 
Q 1159 2491 1159 1978 
L 1159 0 
L 581 0 
L 581 3500 
L 1159 3500 
L 1159 2956 
Q 1366 3272 1645 3428 
Q 1925 3584 2291 3584 
Q 2894 3584 3203 3211 
Q 3513 2838 3513 2113 
z
" transform="scale(0.015625)"/>
     </defs>
     <use xlink:href="#DejaVuSans-46"/>
     <use xlink:href="#DejaVuSans-6f" x="53.894531"/>
     <use xlink:href="#DejaVuSans-6f" x="115.076172"/>
     <use xlink:href="#DejaVuSans-74" x="176.257812"/>
     <use xlink:href="#DejaVuSans-42" x="215.466797"/>
     <use xlink:href="#DejaVuSans-69" x="284.070312"/>
     <use xlink:href="#DejaVuSans-6e" x="311.853516"/>
    </g>
   </g>
   <g id="text_16">
    <!-- WFL -->
    <g transform="translate(361.832136 79.296947)scale(0.08 -0.08)">
     <defs>
      <path id="DejaVuSans-4c" d="M 628 4666 
L 1259 4666 
L 1259 531 
L 3531 531 
L 3531 0 
L 628 0 
L 628 4666 
z
" transform="scale(0.015625)"/>
     </defs>
     <use xlink:href="#DejaVuSans-57"/>
     <use xlink:href="#DejaVuSans-46" x="98.876953"/>
     <use xlink:href="#DejaVuSans-4c" x="156.396484"/>
    </g>
   </g>
   <g id="text_17">
    <!-- WFR -->
    <g transform="translate(361.832136 62.980045)scale(0.08 -0.08)">
     <defs>
      <path id="DejaVuSans-52" d="M 2841 2188 
Q 3044 2119 3236 1894 
Q 3428 1669 3622 1275 
L 4263 0 
L 3584 0 
L 2988 1197 
Q 2756 1666 2539 1819 
Q 2322 1972 1947 1972 
L 1259 1972 
L 1259 0 
L 628 0 
L 628 4666 
L 2053 4666 
Q 2853 4666 3247 4331 
Q 3641 3997 3641 3322 
Q 3641 2881 3436 2590 
Q 3231 2300 2841 2188 
z
M 1259 4147 
L 1259 2491 
L 2053 2491 
Q 2509 2491 2742 2702 
Q 2975 2913 2975 3322 
Q 2975 3731 2742 3939 
Q 2509 4147 2053 4147 
L 1259 4147 
z
" transform="scale(0.015625)"/>
     </defs>
     <use xlink:href="#DejaVuSans-57"/>
     <use xlink:href="#DejaVuSans-46" x="98.876953"/>
     <use xlink:href="#DejaVuSans-52" x="156.396484"/>
    </g>
   </g>
   <g id="text_18">
    <!-- Main-L -->
    <g transform="translate(361.832136 139.827389)scale(0.08 -0.08)">
     <defs>
      <path id="DejaVuSans-4d" d="M 628 4666 
L 1569 4666 
L 2759 1491 
L 3956 4666 
L 4897 4666 
L 4897 0 
L 4281 0 
L 4281 4097 
L 3078 897 
L 2444 897 
L 1241 4097 
L 1241 0 
L 628 0 
L 628 4666 
z
" transform="scale(0.015625)"/>
      <path id="DejaVuSans-2d" d="M 313 2009 
L 1997 2009 
L 1997 1497 
L 313 1497 
L 313 2009 
z
" transform="scale(0.015625)"/>
     </defs>
     <use xlink:href="#DejaVuSans-4d"/>
     <use xlink:href="#DejaVuSans-61" x="86.279297"/>
     <use xlink:href="#DejaVuSans-69" x="147.558594"/>
     <use xlink:href="#DejaVuSans-6e" x="175.341797"/>
     <use xlink:href="#DejaVuSans-2d" x="238.720703"/>
     <use xlink:href="#DejaVuSans-4c" x="274.804688"/>
    </g>
   </g>
   <g id="text_19">
    <!-- Main-R -->
    <g transform="translate(361.832136 60.786913)scale(0.08 -0.08)">
     <use xlink:href="#DejaVuSans-4d"/>
     <use xlink:href="#DejaVuSans-61" x="86.279297"/>
     <use xlink:href="#DejaVuSans-69" x="147.558594"/>
     <use xlink:href="#DejaVuSans-6e" x="175.341797"/>
     <use xlink:href="#DejaVuSans-2d" x="238.720703"/>
     <use xlink:href="#DejaVuSans-52" x="274.804688"/>
    </g>
   </g>
   <g id="text_20">
    <!-- AFL -->
    <g transform="translate(361.832136 130.616235)scale(0.08 -0.08)">
     <defs>
      <path id="DejaVuSans-41" d="M 2188 4044 
L 1331 1722 
L 3047 1722 
L 2188 4044 
z
M 1831 4666 
L 2547 4666 
L 4325 0 
L 3669 0 
L 3244 1197 
L 1141 1197 
L 716 0 
L 50 0 
L 1831 4666 
z
" transform="scale(0.015625)"/>
     </defs>
     <use xlink:href="#DejaVuSans-41"/>
     <use xlink:href="#DejaVuSans-46" x="68.408203"/>
     <use xlink:href="#DejaVuSans-4c" x="125.927734"/>
    </g>
   </g>
   <g id="text_21">
    <!-- AFR -->
    <g transform="translate(361.832136 46.970182)scale(0.08 -0.08)">
     <use xlink:href="#DejaVuSans-41"/>
     <use xlink:href="#DejaVuSans-46" x="68.408203"/>
     <use xlink:href="#DejaVuSans-52" x="125.927734"/>
    </g>
   </g>
   <g id="text_22">
    <!-- Nonfinal -->
    <g transform="translate(361.832136 83.025271)scale(0.08 -0.08)">
     <defs>
      <path id="DejaVuSans-4e" d="M 628 4666 
L 1478 4666 
L 3547 763 
L 3547 4666 
L 4159 4666 
L 4159 0 
L 3309 0 
L 1241 3903 
L 1241 0 
L 628 0 
L 628 4666 
z
" transform="scale(0.015625)"/>
      <path id="DejaVuSans-66" d="M 2375 4863 
L 2375 4384 
L 1825 4384 
Q 1516 4384 1395 4259 
Q 1275 4134 1275 3809 
L 1275 3500 
L 2222 3500 
L 2222 3053 
L 1275 3053 
L 1275 0 
L 697 0 
L 697 3053 
L 147 3053 
L 147 3500 
L 697 3500 
L 697 3744 
Q 697 4328 969 4595 
Q 1241 4863 1831 4863 
L 2375 4863 
z
" transform="scale(0.015625)"/>
      <path id="DejaVuSans-6c" d="M 603 4863 
L 1178 4863 
L 1178 0 
L 603 0 
L 603 4863 
z
" transform="scale(0.015625)"/>
     </defs>
     <use xlink:href="#DejaVuSans-4e"/>
     <use xlink:href="#DejaVuSans-6f" x="74.804688"/>
     <use xlink:href="#DejaVuSans-6e" x="135.986328"/>
     <use xlink:href="#DejaVuSans-66" x="199.365234"/>
     <use xlink:href="#DejaVuSans-69" x="234.570312"/>
     <use xlink:href="#DejaVuSans-6e" x="262.353516"/>
     <use xlink:href="#DejaVuSans-61" x="325.732422"/>
     <use xlink:href="#DejaVuSans-6c" x="387.011719"/>
    </g>
   </g>
   <g id="text_23">
    <!-- Trochaic -->
    <g transform="translate(361.832136 59.120133)scale(0.08 -0.08)">
     <defs>
      <path id="DejaVuSans-54" d="M -19 4666 
L 3928 4666 
L 3928 4134 
L 2272 4134 
L 2272 0 
L 1638 0 
L 1638 4134 
L -19 4134 
L -19 4666 
z
" transform="scale(0.015625)"/>
      <path id="DejaVuSans-68" d="M 3513 2113 
L 3513 0 
L 2938 0 
L 2938 2094 
Q 2938 2591 2744 2837 
Q 2550 3084 2163 3084 
Q 1697 3084 1428 2787 
Q 1159 2491 1159 1978 
L 1159 0 
L 581 0 
L 581 4863 
L 1159 4863 
L 1159 2956 
Q 1366 3272 1645 3428 
Q 1925 3584 2291 3584 
Q 2894 3584 3203 3211 
Q 3513 2838 3513 2113 
z
" transform="scale(0.015625)"/>
     </defs>
     <use xlink:href="#DejaVuSans-54"/>
     <use xlink:href="#DejaVuSans-72" x="46.333984"/>
     <use xlink:href="#DejaVuSans-6f" x="85.197266"/>
     <use xlink:href="#DejaVuSans-63" x="146.378906"/>
     <use xlink:href="#DejaVuSans-68" x="201.359375"/>
     <use xlink:href="#DejaVuSans-61" x="264.738281"/>
     <use xlink:href="#DejaVuSans-69" x="326.017578"/>
     <use xlink:href="#DejaVuSans-63" x="353.800781"/>
    </g>
   </g>
  </g>
  <g id="axes_2">
   <g id="patch_7">
    <path d="M 57.6 307.584 
L 414.72 307.584 
L 414.72 186.624 
L 57.6 186.624 
z
" style="fill: #ffffff"/>
   </g>
   <g id="matplotlib.axis_3">
    <g id="xtick_8">
     <g id="line2d_24">
      <g>
       <use xlink:href="#m4b6315708b" x="70.184923" y="307.584" style="stroke: #000000; stroke-width: 0.8"/>
      </g>
     </g>
     <g id="text_24">
      <!-- 0 -->
      <g transform="translate(67.003673 322.182437)scale(0.1 -0.1)">
       <use xlink:href="#DejaVuSans-30"/>
      </g>
     </g>
    </g>
    <g id="xtick_9">
     <g id="line2d_25">
      <g>
       <use xlink:href="#m4b6315708b" x="143.141001" y="307.584" style="stroke: #000000; stroke-width: 0.8"/>
      </g>
     </g>
     <g id="text_25">
      <!-- 20 -->
      <g transform="translate(136.778501 322.182437)scale(0.1 -0.1)">
       <use xlink:href="#DejaVuSans-32"/>
       <use xlink:href="#DejaVuSans-30" x="63.623047"/>
      </g>
     </g>
    </g>
    <g id="xtick_10">
     <g id="line2d_26">
      <g>
       <use xlink:href="#m4b6315708b" x="216.097079" y="307.584" style="stroke: #000000; stroke-width: 0.8"/>
      </g>
     </g>
     <g id="text_26">
      <!-- 40 -->
      <g transform="translate(209.734579 322.182437)scale(0.1 -0.1)">
       <use xlink:href="#DejaVuSans-34"/>
       <use xlink:href="#DejaVuSans-30" x="63.623047"/>
      </g>
     </g>
    </g>
    <g id="xtick_11">
     <g id="line2d_27">
      <g>
       <use xlink:href="#m4b6315708b" x="289.053156" y="307.584" style="stroke: #000000; stroke-width: 0.8"/>
      </g>
     </g>
     <g id="text_27">
      <!-- 60 -->
      <g transform="translate(282.690656 322.182437)scale(0.1 -0.1)">
       <use xlink:href="#DejaVuSans-36"/>
       <use xlink:href="#DejaVuSans-30" x="63.623047"/>
      </g>
     </g>
    </g>
    <g id="xtick_12">
     <g id="line2d_28">
      <g>
       <use xlink:href="#m4b6315708b" x="362.009234" y="307.584" style="stroke: #000000; stroke-width: 0.8"/>
      </g>
     </g>
     <g id="text_28">
      <!-- 80 -->
      <g transform="translate(355.646734 322.182437)scale(0.1 -0.1)">
       <use xlink:href="#DejaVuSans-38"/>
       <use xlink:href="#DejaVuSans-30" x="63.623047"/>
      </g>
     </g>
    </g>
   </g>
   <g id="matplotlib.axis_4">
    <g id="ytick_5">
     <g id="line2d_29">
      <g>
       <use xlink:href="#me8f6bef938" x="57.6" y="302.093563" style="stroke: #000000; stroke-width: 0.8"/>
      </g>
     </g>
     <g id="text_29">
      <!-- 0 -->
      <g transform="translate(44.2375 305.892782)scale(0.1 -0.1)">
       <use xlink:href="#DejaVuSans-30"/>
      </g>
     </g>
    </g>
    <g id="ytick_6">
     <g id="line2d_30">
      <g>
       <use xlink:href="#me8f6bef938" x="57.6" y="263.368519" style="stroke: #000000; stroke-width: 0.8"/>
      </g>
     </g>
     <g id="text_30">
      <!-- 5000 -->
      <g transform="translate(25.15 267.167737)scale(0.1 -0.1)">
       <use xlink:href="#DejaVuSans-35"/>
       <use xlink:href="#DejaVuSans-30" x="63.623047"/>
       <use xlink:href="#DejaVuSans-30" x="127.246094"/>
       <use xlink:href="#DejaVuSans-30" x="190.869141"/>
      </g>
     </g>
    </g>
    <g id="ytick_7">
     <g id="line2d_31">
      <g>
       <use xlink:href="#me8f6bef938" x="57.6" y="224.643474" style="stroke: #000000; stroke-width: 0.8"/>
      </g>
     </g>
     <g id="text_31">
      <!-- 10000 -->
      <g transform="translate(18.7875 228.442693)scale(0.1 -0.1)">
       <use xlink:href="#DejaVuSans-31"/>
       <use xlink:href="#DejaVuSans-30" x="63.623047"/>
       <use xlink:href="#DejaVuSans-30" x="127.246094"/>
       <use xlink:href="#DejaVuSans-30" x="190.869141"/>
       <use xlink:href="#DejaVuSans-30" x="254.492188"/>
      </g>
     </g>
    </g>
   </g>
   <g id="line2d_32">
    <path d="M 73.832727 302.085818 
L 77.480531 302.085818 
L 81.128335 302.085818 
L 84.776139 302.085818 
L 88.423943 302.085818 
L 92.071747 302.085818 
L 95.719551 302.062583 
L 99.367354 302.070328 
L 103.015158 302.070328 
L 106.662962 302.078073 
L 110.310766 302.078073 
L 113.95857 302.078073 
L 117.606374 302.054838 
L 121.254178 302.039348 
L 124.901982 302.078073 
L 128.549785 302.078073 
L 132.197589 302.085818 
L 135.845393 302.078073 
L 139.493197 302.085818 
L 143.141001 302.039348 
L 146.788805 302.078073 
L 150.436609 302.062583 
L 154.084413 302.070328 
L 157.732217 302.000623 
L 161.38002 302.062583 
L 165.027824 302.008368 
L 168.675628 302.070328 
L 172.323432 302.039348 
L 175.971236 302.078073 
L 179.61904 302.070328 
L 183.266844 302.070328 
L 186.914648 302.008368 
L 190.562451 302.023858 
L 194.210255 302.085818 
L 197.858059 302.016113 
L 201.505863 302.000623 
L 205.153667 302.039348 
L 208.801471 302.070328 
L 212.449275 301.930918 
L 216.097079 301.992878 
L 219.744883 301.783763 
L 223.392686 302.085818 
L 227.04049 302.000623 
L 230.688294 302.070328 
L 234.336098 301.930918 
L 237.983902 302.031603 
L 241.631706 301.845723 
L 245.27951 301.977388 
L 248.927314 301.745038 
L 252.575117 301.272592 
L 256.222921 301.946408 
L 259.870725 302.047093 
L 263.518529 300.745932 
L 267.166333 302.085818 
L 270.814137 301.450727 
L 274.461941 301.690823 
L 278.109745 301.830233 
L 281.757549 301.977388 
L 285.405352 300.908577 
L 289.053156 298.987815 
L 292.70096 301.605628 
L 296.348764 301.992878 
L 299.996568 300.583286 
L 303.644372 301.458472 
L 307.292176 295.533541 
L 310.93998 293.364938 
L 314.587783 300.800147 
L 318.235587 291.815936 
L 321.883391 298.437919 
L 325.531195 296.803722 
L 329.178999 301.311317 
L 332.826803 301.357787 
L 336.474607 296.974112 
L 340.122411 300.815637 
L 343.770215 298.523114 
L 347.418018 295.990496 
L 351.065822 297.345873 
L 354.713626 268.333069 
L 358.36143 301.923173 
L 362.009234 264.80909 
L 365.657038 286.62678 
L 369.304842 298.143609 
L 372.952646 299.42928 
L 376.600449 294.92943 
L 380.248253 272.739979 
L 383.896057 277.201105 
L 387.543861 290.112034 
L 391.191665 192.122182 
L 394.839469 300.993772 
L 398.487273 272.964585 
" clip-path="url(#pada804af36)" style="fill: none; stroke: #1f77b4; stroke-width: 1.5; stroke-linecap: square"/>
   </g>
   <g id="patch_8">
    <path d="M 57.6 307.584 
L 57.6 186.624 
" style="fill: none; stroke: #000000; stroke-width: 0.8; stroke-linejoin: miter; stroke-linecap: square"/>
   </g>
   <g id="patch_9">
    <path d="M 414.72 307.584 
L 414.72 186.624 
" style="fill: none; stroke: #000000; stroke-width: 0.8; stroke-linejoin: miter; stroke-linecap: square"/>
   </g>
   <g id="patch_10">
    <path d="M 57.6 307.584 
L 414.72 307.584 
" style="fill: none; stroke: #000000; stroke-width: 0.8; stroke-linejoin: miter; stroke-linecap: square"/>
   </g>
   <g id="patch_11">
    <path d="M 57.6 186.624 
L 414.72 186.624 
" style="fill: none; stroke: #000000; stroke-width: 0.8; stroke-linejoin: miter; stroke-linecap: square"/>
   </g>
  </g>
 </g>
 <defs>
  <clipPath id="paa23436d4d">
   <rect x="57.6" y="41.472" width="357.12" height="120.96"/>
  </clipPath>
  <clipPath id="pada804af36">
   <rect x="57.6" y="186.624" width="357.12" height="120.96"/>
  </clipPath>
 </defs>
</svg>
