<?xml version="1.0" encoding="utf-8" standalone="no"?>
<!DOCTYPE svg PUBLIC "-//W3C//DTD SVG 1.1//EN"
  "http://www.w3.org/Graphics/SVG/1.1/DTD/svg11.dtd">
<svg xmlns:xlink="http://www.w3.org/1999/xlink" width="460.8pt" height="345.6pt" viewBox="0 0 460.8 345.6" xmlns="http://www.w3.org/2000/svg" version="1.1">
 <metadata>
  <rdf:RDF xmlns:dc="http://purl.org/dc/elements/1.1/" xmlns:cc="http://creativecommons.org/ns#" xmlns:rdf="http://www.w3.org/1999/02/22-rdf-syntax-ns#">
   <cc:Work>
    <dc:type rdf:resource="http://purl.org/dc/dcmitype/StillImage"/>
    <dc:date>2022-05-13T13:47:08.020402</dc:date>
    <dc:format>image/svg+xml</dc:format>
    <dc:creator>
     <cc:Agent>
      <dc:title>Matplotlib v3.5.1, https://matplotlib.org/</dc:title>
     </cc:Agent>
    </dc:creator>
   </cc:Work>
  </rdf:RDF>
 </metadata>
 <defs>
  <style type="text/css">*{stroke-linejoin: round; stroke-linecap: butt}</style>
 </defs>
 <g id="figure_1">
  <g id="patch_1">
   <path d="M 0 345.6 
L 460.8 345.6 
L 460.8 0 
L 0 0 
z
" style="fill: #ffffff"/>
  </g>
  <g id="axes_1">
   <g id="patch_2">
    <path d="M 57.6 162.432 
L 414.72 162.432 
L 414.72 41.472 
L 57.6 41.472 
z
" style="fill: #ffffff"/>
   </g>
   <g id="matplotlib.axis_1">
    <g id="xtick_1">
     <g id="line2d_1">
      <defs>
       <path id="m755d7141c2" d="M 0 0 
L 0 3.5 
" style="stroke: #000000; stroke-width: 0.8"/>
      </defs>
      <g>
       <use xlink:href="#m755d7141c2" x="73.827491" y="162.432" style="stroke: #000000; stroke-width: 0.8"/>
      </g>
     </g>
     <g id="text_1">
      <!-- 0 -->
      <g transform="translate(70.646241 177.030437)scale(0.1 -0.1)">
       <defs>
        <path id="DejaVuSans-30" d="M 2034 4250 
Q 1547 4250 1301 3770 
Q 1056 3291 1056 2328 
Q 1056 1369 1301 889 
Q 1547 409 2034 409 
Q 2525 409 2770 889 
Q 3016 1369 3016 2328 
Q 3016 3291 2770 3770 
Q 2525 4250 2034 4250 
z
M 2034 4750 
Q 2819 4750 3233 4129 
Q 3647 3509 3647 2328 
Q 3647 1150 3233 529 
Q 2819 -91 2034 -91 
Q 1250 -91 836 529 
Q 422 1150 422 2328 
Q 422 3509 836 4129 
Q 1250 4750 2034 4750 
z
" transform="scale(0.015625)"/>
       </defs>
       <use xlink:href="#DejaVuSans-30"/>
      </g>
     </g>
    </g>
    <g id="xtick_2">
     <g id="line2d_2">
      <g>
       <use xlink:href="#m755d7141c2" x="126.191972" y="162.432" style="stroke: #000000; stroke-width: 0.8"/>
      </g>
     </g>
     <g id="text_2">
      <!-- 10000 -->
      <g transform="translate(110.285722 177.030437)scale(0.1 -0.1)">
       <defs>
        <path id="DejaVuSans-31" d="M 794 531 
L 1825 531 
L 1825 4091 
L 703 3866 
L 703 4441 
L 1819 4666 
L 2450 4666 
L 2450 531 
L 3481 531 
L 3481 0 
L 794 0 
L 794 531 
z
" transform="scale(0.015625)"/>
       </defs>
       <use xlink:href="#DejaVuSans-31"/>
       <use xlink:href="#DejaVuSans-30" x="63.623047"/>
       <use xlink:href="#DejaVuSans-30" x="127.246094"/>
       <use xlink:href="#DejaVuSans-30" x="190.869141"/>
       <use xlink:href="#DejaVuSans-30" x="254.492188"/>
      </g>
     </g>
    </g>
    <g id="xtick_3">
     <g id="line2d_3">
      <g>
       <use xlink:href="#m755d7141c2" x="178.556453" y="162.432" style="stroke: #000000; stroke-width: 0.8"/>
      </g>
     </g>
     <g id="text_3">
      <!-- 20000 -->
      <g transform="translate(162.650203 177.030437)scale(0.1 -0.1)">
       <defs>
        <path id="DejaVuSans-32" d="M 1228 531 
L 3431 531 
L 3431 0 
L 469 0 
L 469 531 
Q 828 903 1448 1529 
Q 2069 2156 2228 2338 
Q 2531 2678 2651 2914 
Q 2772 3150 2772 3378 
Q 2772 3750 2511 3984 
Q 2250 4219 1831 4219 
Q 1534 4219 1204 4116 
Q 875 4013 500 3803 
L 500 4441 
Q 881 4594 1212 4672 
Q 1544 4750 1819 4750 
Q 2544 4750 2975 4387 
Q 3406 4025 3406 3419 
Q 3406 3131 3298 2873 
Q 3191 2616 2906 2266 
Q 2828 2175 2409 1742 
Q 1991 1309 1228 531 
z
" transform="scale(0.015625)"/>
       </defs>
       <use xlink:href="#DejaVuSans-32"/>
       <use xlink:href="#DejaVuSans-30" x="63.623047"/>
       <use xlink:href="#DejaVuSans-30" x="127.246094"/>
       <use xlink:href="#DejaVuSans-30" x="190.869141"/>
       <use xlink:href="#DejaVuSans-30" x="254.492188"/>
      </g>
     </g>
    </g>
    <g id="xtick_4">
     <g id="line2d_4">
      <g>
       <use xlink:href="#m755d7141c2" x="230.920934" y="162.432" style="stroke: #000000; stroke-width: 0.8"/>
      </g>
     </g>
     <g id="text_4">
      <!-- 30000 -->
      <g transform="translate(215.014684 177.030437)scale(0.1 -0.1)">
       <defs>
        <path id="DejaVuSans-33" d="M 2597 2516 
Q 3050 2419 3304 2112 
Q 3559 1806 3559 1356 
Q 3559 666 3084 287 
Q 2609 -91 1734 -91 
Q 1441 -91 1130 -33 
Q 819 25 488 141 
L 488 750 
Q 750 597 1062 519 
Q 1375 441 1716 441 
Q 2309 441 2620 675 
Q 2931 909 2931 1356 
Q 2931 1769 2642 2001 
Q 2353 2234 1838 2234 
L 1294 2234 
L 1294 2753 
L 1863 2753 
Q 2328 2753 2575 2939 
Q 2822 3125 2822 3475 
Q 2822 3834 2567 4026 
Q 2313 4219 1838 4219 
Q 1578 4219 1281 4162 
Q 984 4106 628 3988 
L 628 4550 
Q 988 4650 1302 4700 
Q 1616 4750 1894 4750 
Q 2613 4750 3031 4423 
Q 3450 4097 3450 3541 
Q 3450 3153 3228 2886 
Q 3006 2619 2597 2516 
z
" transform="scale(0.015625)"/>
       </defs>
       <use xlink:href="#DejaVuSans-33"/>
       <use xlink:href="#DejaVuSans-30" x="63.623047"/>
       <use xlink:href="#DejaVuSans-30" x="127.246094"/>
       <use xlink:href="#DejaVuSans-30" x="190.869141"/>
       <use xlink:href="#DejaVuSans-30" x="254.492188"/>
      </g>
     </g>
    </g>
    <g id="xtick_5">
     <g id="line2d_5">
      <g>
       <use xlink:href="#m755d7141c2" x="283.285415" y="162.432" style="stroke: #000000; stroke-width: 0.8"/>
      </g>
     </g>
     <g id="text_5">
      <!-- 40000 -->
      <g transform="translate(267.379165 177.030437)scale(0.1 -0.1)">
       <defs>
        <path id="DejaVuSans-34" d="M 2419 4116 
L 825 1625 
L 2419 1625 
L 2419 4116 
z
M 2253 4666 
L 3047 4666 
L 3047 1625 
L 3713 1625 
L 3713 1100 
L 3047 1100 
L 3047 0 
L 2419 0 
L 2419 1100 
L 313 1100 
L 313 1709 
L 2253 4666 
z
" transform="scale(0.015625)"/>
       </defs>
       <use xlink:href="#DejaVuSans-34"/>
       <use xlink:href="#DejaVuSans-30" x="63.623047"/>
       <use xlink:href="#DejaVuSans-30" x="127.246094"/>
       <use xlink:href="#DejaVuSans-30" x="190.869141"/>
       <use xlink:href="#DejaVuSans-30" x="254.492188"/>
      </g>
     </g>
    </g>
    <g id="xtick_6">
     <g id="line2d_6">
      <g>
       <use xlink:href="#m755d7141c2" x="335.649896" y="162.432" style="stroke: #000000; stroke-width: 0.8"/>
      </g>
     </g>
     <g id="text_6">
      <!-- 50000 -->
      <g transform="translate(319.743646 177.030437)scale(0.1 -0.1)">
       <defs>
        <path id="DejaVuSans-35" d="M 691 4666 
L 3169 4666 
L 3169 4134 
L 1269 4134 
L 1269 2991 
Q 1406 3038 1543 3061 
Q 1681 3084 1819 3084 
Q 2600 3084 3056 2656 
Q 3513 2228 3513 1497 
Q 3513 744 3044 326 
Q 2575 -91 1722 -91 
Q 1428 -91 1123 -41 
Q 819 9 494 109 
L 494 744 
Q 775 591 1075 516 
Q 1375 441 1709 441 
Q 2250 441 2565 725 
Q 2881 1009 2881 1497 
Q 2881 1984 2565 2268 
Q 2250 2553 1709 2553 
Q 1456 2553 1204 2497 
Q 953 2441 691 2322 
L 691 4666 
z
" transform="scale(0.015625)"/>
       </defs>
       <use xlink:href="#DejaVuSans-35"/>
       <use xlink:href="#DejaVuSans-30" x="63.623047"/>
       <use xlink:href="#DejaVuSans-30" x="127.246094"/>
       <use xlink:href="#DejaVuSans-30" x="190.869141"/>
       <use xlink:href="#DejaVuSans-30" x="254.492188"/>
      </g>
     </g>
    </g>
    <g id="xtick_7">
     <g id="line2d_7">
      <g>
       <use xlink:href="#m755d7141c2" x="388.014377" y="162.432" style="stroke: #000000; stroke-width: 0.8"/>
      </g>
     </g>
     <g id="text_7">
      <!-- 60000 -->
      <g transform="translate(372.108127 177.030437)scale(0.1 -0.1)">
       <defs>
        <path id="DejaVuSans-36" d="M 2113 2584 
Q 1688 2584 1439 2293 
Q 1191 2003 1191 1497 
Q 1191 994 1439 701 
Q 1688 409 2113 409 
Q 2538 409 2786 701 
Q 3034 994 3034 1497 
Q 3034 2003 2786 2293 
Q 2538 2584 2113 2584 
z
M 3366 4563 
L 3366 3988 
Q 3128 4100 2886 4159 
Q 2644 4219 2406 4219 
Q 1781 4219 1451 3797 
Q 1122 3375 1075 2522 
Q 1259 2794 1537 2939 
Q 1816 3084 2150 3084 
Q 2853 3084 3261 2657 
Q 3669 2231 3669 1497 
Q 3669 778 3244 343 
Q 2819 -91 2113 -91 
Q 1303 -91 875 529 
Q 447 1150 447 2328 
Q 447 3434 972 4092 
Q 1497 4750 2381 4750 
Q 2619 4750 2861 4703 
Q 3103 4656 3366 4563 
z
" transform="scale(0.015625)"/>
       </defs>
       <use xlink:href="#DejaVuSans-36"/>
       <use xlink:href="#DejaVuSans-30" x="63.623047"/>
       <use xlink:href="#DejaVuSans-30" x="127.246094"/>
       <use xlink:href="#DejaVuSans-30" x="190.869141"/>
       <use xlink:href="#DejaVuSans-30" x="254.492188"/>
      </g>
     </g>
    </g>
   </g>
   <g id="matplotlib.axis_2">
    <g id="ytick_1">
     <g id="line2d_8">
      <defs>
       <path id="m9d5acd691b" d="M 0 0 
L -3.5 0 
" style="stroke: #000000; stroke-width: 0.8"/>
      </defs>
      <g>
       <use xlink:href="#m9d5acd691b" x="57.6" y="152.659613" style="stroke: #000000; stroke-width: 0.8"/>
      </g>
     </g>
     <g id="text_8">
      <!-- 60 -->
      <g transform="translate(37.875 156.458832)scale(0.1 -0.1)">
       <use xlink:href="#DejaVuSans-36"/>
       <use xlink:href="#DejaVuSans-30" x="63.623047"/>
      </g>
     </g>
    </g>
    <g id="ytick_2">
     <g id="line2d_9">
      <g>
       <use xlink:href="#m9d5acd691b" x="57.6" y="129.345768" style="stroke: #000000; stroke-width: 0.8"/>
      </g>
     </g>
     <g id="text_9">
      <!-- 70 -->
      <g transform="translate(37.875 133.144987)scale(0.1 -0.1)">
       <defs>
        <path id="DejaVuSans-37" d="M 525 4666 
L 3525 4666 
L 3525 4397 
L 1831 0 
L 1172 0 
L 2766 4134 
L 525 4134 
L 525 4666 
z
" transform="scale(0.015625)"/>
       </defs>
       <use xlink:href="#DejaVuSans-37"/>
       <use xlink:href="#DejaVuSans-30" x="63.623047"/>
      </g>
     </g>
    </g>
    <g id="ytick_3">
     <g id="line2d_10">
      <g>
       <use xlink:href="#m9d5acd691b" x="57.6" y="106.031923" style="stroke: #000000; stroke-width: 0.8"/>
      </g>
     </g>
     <g id="text_10">
      <!-- 80 -->
      <g transform="translate(37.875 109.831142)scale(0.1 -0.1)">
       <defs>
        <path id="DejaVuSans-38" d="M 2034 2216 
Q 1584 2216 1326 1975 
Q 1069 1734 1069 1313 
Q 1069 891 1326 650 
Q 1584 409 2034 409 
Q 2484 409 2743 651 
Q 3003 894 3003 1313 
Q 3003 1734 2745 1975 
Q 2488 2216 2034 2216 
z
M 1403 2484 
Q 997 2584 770 2862 
Q 544 3141 544 3541 
Q 544 4100 942 4425 
Q 1341 4750 2034 4750 
Q 2731 4750 3128 4425 
Q 3525 4100 3525 3541 
Q 3525 3141 3298 2862 
Q 3072 2584 2669 2484 
Q 3125 2378 3379 2068 
Q 3634 1759 3634 1313 
Q 3634 634 3220 271 
Q 2806 -91 2034 -91 
Q 1263 -91 848 271 
Q 434 634 434 1313 
Q 434 1759 690 2068 
Q 947 2378 1403 2484 
z
M 1172 3481 
Q 1172 3119 1398 2916 
Q 1625 2713 2034 2713 
Q 2441 2713 2670 2916 
Q 2900 3119 2900 3481 
Q 2900 3844 2670 4047 
Q 2441 4250 2034 4250 
Q 1625 4250 1398 4047 
Q 1172 3844 1172 3481 
z
" transform="scale(0.015625)"/>
       </defs>
       <use xlink:href="#DejaVuSans-38"/>
       <use xlink:href="#DejaVuSans-30" x="63.623047"/>
      </g>
     </g>
    </g>
    <g id="ytick_4">
     <g id="line2d_11">
      <g>
       <use xlink:href="#m9d5acd691b" x="57.6" y="82.718078" style="stroke: #000000; stroke-width: 0.8"/>
      </g>
     </g>
     <g id="text_11">
      <!-- 90 -->
      <g transform="translate(37.875 86.517296)scale(0.1 -0.1)">
       <defs>
        <path id="DejaVuSans-39" d="M 703 97 
L 703 672 
Q 941 559 1184 500 
Q 1428 441 1663 441 
Q 2288 441 2617 861 
Q 2947 1281 2994 2138 
Q 2813 1869 2534 1725 
Q 2256 1581 1919 1581 
Q 1219 1581 811 2004 
Q 403 2428 403 3163 
Q 403 3881 828 4315 
Q 1253 4750 1959 4750 
Q 2769 4750 3195 4129 
Q 3622 3509 3622 2328 
Q 3622 1225 3098 567 
Q 2575 -91 1691 -91 
Q 1453 -91 1209 -44 
Q 966 3 703 97 
z
M 1959 2075 
Q 2384 2075 2632 2365 
Q 2881 2656 2881 3163 
Q 2881 3666 2632 3958 
Q 2384 4250 1959 4250 
Q 1534 4250 1286 3958 
Q 1038 3666 1038 3163 
Q 1038 2656 1286 2365 
Q 1534 2075 1959 2075 
z
" transform="scale(0.015625)"/>
       </defs>
       <use xlink:href="#DejaVuSans-39"/>
       <use xlink:href="#DejaVuSans-30" x="63.623047"/>
      </g>
     </g>
    </g>
    <g id="ytick_5">
     <g id="line2d_12">
      <g>
       <use xlink:href="#m9d5acd691b" x="57.6" y="59.404233" style="stroke: #000000; stroke-width: 0.8"/>
      </g>
     </g>
     <g id="text_12">
      <!-- 100 -->
      <g transform="translate(31.5125 63.203451)scale(0.1 -0.1)">
       <use xlink:href="#DejaVuSans-31"/>
       <use xlink:href="#DejaVuSans-30" x="63.623047"/>
       <use xlink:href="#DejaVuSans-30" x="127.246094"/>
      </g>
     </g>
    </g>
   </g>
   <g id="line2d_13">
    <path d="M 73.832727 59.404233 
L 73.848437 59.404233 
L 73.85891 58.627104 
L 73.906038 61.347053 
L 73.926983 61.347053 
L 74.052658 70.089745 
L 74.057895 70.089745 
L 74.063131 68.924053 
L 74.120732 73.586822 
L 74.152151 73.586822 
L 74.178333 73.586822 
L 74.246407 80.969539 
L 74.298771 77.861027 
L 74.361609 77.861027 
L 74.47681 80.192411 
L 74.49252 80.192411 
L 74.518702 78.638155 
L 74.523938 80.969539 
L 74.592012 80.969539 
L 74.707214 83.689488 
L 74.738633 83.689488 
L 74.848598 80.969539 
L 74.953327 83.300924 
L 74.958564 82.523796 
L 74.974273 82.523796 
L 75.068529 84.85518 
L 75.084238 83.689488 
L 75.157549 83.689488 
L 75.27275 86.020872 
L 75.382716 86.020872 
L 75.398425 84.85518 
L 75.403662 87.186565 
L 75.487445 87.186565 
L 75.492681 87.186565 
L 75.586937 86.409437 
L 75.592174 88.740821 
L 75.723085 88.740821 
L 75.838287 87.575129 
L 76.016326 87.575129 
L 76.131528 86.409437 
L 76.236257 86.409437 
L 76.351459 85.632308 
L 76.388114 85.632308 
L 76.503316 87.963693 
L 76.843685 87.963693 
L 76.958887 90.295077 
L 77.807191 90.295077 
L 77.922393 89.129385 
L 78.304654 89.129385 
L 78.419856 88.352257 
L 79.063939 88.352257 
L 79.179141 90.683642 
L 79.320525 90.683642 
L 79.435727 89.517949 
L 79.514273 89.517949 
L 79.629475 88.740821 
L 79.823224 88.740821 
L 79.938426 91.072206 
L 80.184539 91.072206 
L 80.221194 93.40359 
L 80.294504 92.626462 
L 80.572036 92.626462 
L 80.687238 91.849334 
L 81.514597 91.849334 
L 81.629798 90.683642 
L 81.697872 90.683642 
L 81.813074 93.015026 
L 91.076351 93.015026 
L 91.118242 91.849334 
L 91.123479 94.180718 
L 91.18108 94.180718 
L 93.165694 94.180718 
L 93.286132 92.237898 
L 94.610953 92.237898 
L 94.726155 91.655052 
L 100.52814 91.655052 
L 100.643342 93.986436 
L 105.403273 93.986436 
L 105.518475 96.317821 
L 106.021174 96.317821 
L 106.136376 95.152128 
L 110.519283 95.152128 
L 110.634484 94.375 
L 122.065651 94.375 
L 122.180853 93.597872 
L 127.024567 93.597872 
L 127.139769 92.43218 
L 155.804086 92.43218 
L 155.919288 94.763564 
L 161.323302 94.763564 
L 161.438504 94.180718 
L 168.020719 94.180718 
L 168.135921 93.597872 
L 174.283511 93.597872 
L 174.398713 95.929257 
L 190.553155 95.929257 
L 190.668357 94.763564 
L 195.642983 94.763564 
L 195.758185 97.094949 
L 201.29311 97.094949 
L 201.408312 95.929257 
L 203.120631 95.929257 
L 203.235833 98.260641 
L 226.276204 98.260641 
L 226.391406 97.483513 
L 271.33584 97.483513 
L 271.451042 96.317821 
L 398.487273 96.317821 
L 398.487273 96.317821 
" clip-path="url(#pa8ce16779b)" style="fill: none; stroke: #1f77b4; stroke-width: 1.5; stroke-linecap: square"/>
   </g>
   <g id="line2d_14">
    <path d="M 73.832727 59.404233 
L 73.853673 56.490002 
L 73.879855 61.152771 
L 73.937456 60.569925 
L 73.984584 60.569925 
L 74.115495 77.861027 
L 74.131205 77.083898 
L 74.152151 77.083898 
L 74.277825 84.466616 
L 74.283062 84.466616 
L 74.288298 82.135232 
L 74.304008 89.129385 
L 74.387791 86.798001 
L 74.429682 91.46077 
L 74.502993 89.129385 
L 74.513466 89.129385 
L 74.576303 88.740821 
L 74.581539 91.072206 
L 74.597249 91.072206 
L 74.618194 95.734975 
L 74.712451 95.152128 
L 74.738633 95.152128 
L 74.848598 99.814898 
L 74.853835 99.232051 
L 74.895726 99.232051 
L 75.010928 96.900667 
L 75.068529 96.900667 
L 75.183731 99.232051 
L 75.304169 99.232051 
L 75.346061 96.900667 
L 75.387952 101.563436 
L 75.408898 101.563436 
L 75.492681 101.563436 
L 75.555519 103.89482 
L 75.602647 101.563436 
L 75.723085 101.563436 
L 75.806868 103.89482 
L 75.83305 101.563436 
L 76.016326 101.563436 
L 76.131528 103.89482 
L 77.807191 103.89482 
L 77.922393 106.226205 
L 78.95921 106.226205 
L 79.074412 103.89482 
L 79.320525 103.89482 
L 79.435727 106.226205 
L 79.514273 106.226205 
L 79.629475 108.557589 
L 79.823224 108.557589 
L 79.938426 110.888974 
L 80.310214 110.888974 
L 80.425415 108.557589 
L 81.514597 108.557589 
L 81.629798 110.888974 
L 93.207585 110.888974 
L 93.322787 113.220358 
L 106.021174 113.220358 
L 106.136376 115.551743 
L 110.519283 115.551743 
L 110.634484 117.883128 
L 122.065651 117.883128 
L 122.180853 120.214512 
L 123.521383 120.214512 
L 123.636585 117.883128 
L 127.024567 117.883128 
L 127.139769 120.214512 
L 131.805444 120.214512 
L 131.920646 117.883128 
L 161.323302 117.883128 
L 161.438504 117.300281 
L 190.553155 117.300281 
L 190.668357 119.631666 
L 201.29311 119.631666 
L 201.408312 121.96305 
L 271.33584 121.96305 
L 271.451042 124.294435 
L 398.487273 124.294435 
L 398.487273 124.294435 
" clip-path="url(#pa8ce16779b)" style="fill: none; stroke: #ff7f0e; stroke-width: 1.5; stroke-linecap: square"/>
   </g>
   <g id="line2d_15">
    <path d="M 73.832727 58.627104 
L 73.848437 58.627104 
L 73.864146 55.518592 
L 73.906038 63.289873 
L 73.921747 61.541335 
L 74.036949 70.284027 
L 74.047422 69.118335 
L 74.063131 69.118335 
L 74.183569 74.946796 
L 74.199279 74.946796 
L 74.293535 82.718078 
L 74.31448 76.889616 
L 74.319717 76.889616 
L 74.440155 81.552385 
L 74.461101 81.552385 
L 74.576303 86.992283 
L 74.592012 84.660898 
L 74.623431 88.546539 
L 74.681032 88.546539 
L 74.743869 88.546539 
L 74.796234 87.769411 
L 74.80147 90.100795 
L 74.848598 89.323667 
L 74.953327 91.655052 
L 74.958564 90.877924 
L 74.974273 90.877924 
L 75.010928 93.209308 
L 75.084238 92.043616 
L 75.168022 92.043616 
L 75.283223 94.375 
L 75.346061 94.375 
L 75.398425 92.043616 
L 75.456026 94.375 
L 75.492681 94.375 
L 75.586937 93.597872 
L 75.592174 95.929257 
L 76.15771 95.929257 
L 76.272912 93.986436 
L 76.388114 93.986436 
L 76.503316 96.317821 
L 76.843685 96.317821 
L 76.958887 98.649205 
L 77.445876 98.649205 
L 77.561078 97.483513 
L 78.304654 97.483513 
L 78.419856 96.706385 
L 78.980156 96.706385 
L 79.100594 101.369154 
L 79.514273 101.369154 
L 79.629475 100.592026 
L 79.823224 100.592026 
L 79.938426 102.92341 
L 80.184539 102.92341 
L 80.221194 105.254795 
L 80.294504 104.477667 
L 80.572036 104.477667 
L 80.687238 103.700538 
L 81.697872 103.700538 
L 81.708345 106.031923 
L 81.807838 104.866231 
L 82.012059 104.866231 
L 82.127261 107.197615 
L 83.394481 107.197615 
L 83.509683 106.031923 
L 85.248184 106.031923 
L 85.279603 108.363307 
L 85.35815 107.197615 
L 91.076351 107.197615 
L 91.196789 111.860384 
L 93.165694 111.860384 
L 93.280895 111.083256 
L 94.610953 111.083256 
L 94.726155 110.50041 
L 100.52814 110.50041 
L 100.643342 112.831794 
L 105.403273 112.831794 
L 105.518475 115.163179 
L 110.519283 115.163179 
L 110.634484 114.386051 
L 115.289687 114.386051 
L 115.404889 116.717435 
L 122.065651 116.717435 
L 122.180853 115.940307 
L 134.235156 115.940307 
L 134.350358 114.774615 
L 161.323302 114.774615 
L 161.438504 114.191769 
L 168.020719 114.191769 
L 168.135921 113.608923 
L 174.283511 113.608923 
L 174.398713 115.940307 
L 203.120631 115.940307 
L 203.235833 118.271692 
L 209.786629 118.271692 
L 209.901831 117.494563 
L 222.615927 117.494563 
L 222.731129 119.825948 
L 226.276204 119.825948 
L 226.391406 119.04882 
L 334.83301 119.04882 
L 334.948212 117.883128 
L 398.487273 117.883128 
L 398.487273 117.883128 
" clip-path="url(#pa8ce16779b)" style="fill: none; stroke: #2ca02c; stroke-width: 1.5; stroke-linecap: square"/>
   </g>
   <g id="line2d_16">
    <path d="M 73.832727 59.404233 
L 73.874619 59.404233 
L 73.989821 58.937956 
L 74.262116 58.937956 
L 74.377318 57.772263 
L 74.796234 57.772263 
L 74.911436 56.606571 
L 398.487273 56.606571 
L 398.487273 56.606571 
" clip-path="url(#pa8ce16779b)" style="fill: none; stroke: #d62728; stroke-width: 1.5; stroke-linecap: square"/>
   </g>
   <g id="line2d_17">
    <path d="M 73.832727 59.404233 
L 73.8432 59.404233 
L 73.848437 61.735617 
L 73.953166 59.792797 
L 74.021239 59.792797 
L 74.026476 59.015668 
L 74.031712 61.347053 
L 74.120732 61.347053 
L 74.209752 61.347053 
L 74.304008 66.78695 
L 74.33019 65.621258 
L 74.461101 65.621258 
L 74.581539 69.895463 
L 74.602485 69.895463 
L 74.717687 69.118335 
L 74.743869 69.118335 
L 74.796234 68.341207 
L 74.80147 70.672591 
L 74.843362 70.672591 
L 74.953327 70.672591 
L 74.974273 69.895463 
L 74.979509 72.226847 
L 75.058056 71.061155 
L 75.168022 71.061155 
L 75.283223 73.39254 
L 75.492681 73.39254 
L 75.607883 72.615412 
L 76.15771 72.615412 
L 76.272912 70.672591 
L 76.388114 70.672591 
L 76.503316 73.003976 
L 76.843685 73.003976 
L 76.958887 75.33536 
L 77.445876 75.33536 
L 77.561078 74.169668 
L 78.304654 74.169668 
L 78.419856 73.39254 
L 78.980156 73.39254 
L 79.100594 78.055309 
L 79.514273 78.055309 
L 79.629475 77.278181 
L 80.184539 77.278181 
L 80.221194 79.609565 
L 80.294504 78.832437 
L 80.572036 78.832437 
L 80.687238 78.055309 
L 81.697872 78.055309 
L 81.708345 80.386693 
L 81.807838 79.221001 
L 82.012059 79.221001 
L 82.127261 81.552385 
L 83.394481 81.552385 
L 83.509683 80.386693 
L 85.248184 80.386693 
L 85.279603 82.718078 
L 85.35815 81.552385 
L 91.118242 81.552385 
L 91.233444 83.88377 
L 93.165694 83.88377 
L 93.280895 83.106642 
L 105.403273 83.106642 
L 105.518475 85.438026 
L 110.519283 85.438026 
L 110.634484 84.660898 
L 115.289687 84.660898 
L 115.404889 86.992283 
L 122.065651 86.992283 
L 122.180853 86.215155 
L 134.235156 86.215155 
L 134.350358 85.049462 
L 174.283511 85.049462 
L 174.398713 87.380847 
L 195.642983 87.380847 
L 195.758185 86.215155 
L 203.120631 86.215155 
L 203.235833 88.546539 
L 222.615927 88.546539 
L 222.731129 90.877924 
L 226.276204 90.877924 
L 226.391406 90.100795 
L 334.83301 90.100795 
L 334.948212 88.935103 
L 398.487273 88.935103 
L 398.487273 88.935103 
" clip-path="url(#pa8ce16779b)" style="fill: none; stroke: #9467bd; stroke-width: 1.5; stroke-linecap: square"/>
   </g>
   <g id="line2d_18">
    <path d="M 73.832727 59.404233 
L 73.8432 59.404233 
L 73.874619 58.821386 
L 73.879855 61.152771 
L 73.947929 59.792797 
L 74.000294 59.792797 
L 74.115495 59.209951 
L 74.173096 59.209951 
L 74.288298 58.432822 
L 74.513466 58.432822 
L 74.628667 58.044258 
L 78.880663 58.044258 
L 78.995865 57.26713 
L 80.498726 57.26713 
L 80.613928 56.490002 
L 94.610953 56.490002 
L 94.726155 55.907156 
L 168.020719 55.907156 
L 168.135921 55.32431 
L 209.786629 55.32431 
L 209.901831 54.547181 
L 398.487273 54.547181 
L 398.487273 54.547181 
" clip-path="url(#pa8ce16779b)" style="fill: none; stroke: #8c564b; stroke-width: 1.5; stroke-linecap: square"/>
   </g>
   <g id="line2d_19">
    <path d="M 73.832727 61.735617 
L 73.8432 61.735617 
L 73.974111 71.372006 
L 74.000294 71.372006 
L 74.010767 73.703391 
L 74.110259 71.566288 
L 74.173096 71.566288 
L 74.209752 73.897673 
L 74.283062 72.343417 
L 74.461101 72.343417 
L 74.513466 71.566288 
L 74.518702 73.897673 
L 74.56583 73.120545 
L 74.618194 73.120545 
L 74.733396 72.537699 
L 74.827652 72.537699 
L 74.848598 74.869083 
L 74.937618 74.286237 
L 74.974273 74.286237 
L 75.089475 73.509109 
L 75.168022 73.509109 
L 75.283223 72.731981 
L 76.058218 72.731981 
L 76.17342 75.063365 
L 76.388114 75.063365 
L 76.503316 74.286237 
L 76.843685 74.286237 
L 76.958887 73.509109 
L 78.880663 73.509109 
L 78.980156 75.840493 
L 78.990629 75.063365 
L 79.063939 75.063365 
L 79.179141 74.286237 
L 80.184539 74.286237 
L 80.299741 73.509109 
L 80.498726 73.509109 
L 80.613928 75.840493 
L 81.697872 75.840493 
L 81.813074 75.063365 
L 82.012059 75.063365 
L 82.127261 74.286237 
L 84.174712 74.286237 
L 84.289914 76.617622 
L 85.248184 76.617622 
L 85.363386 75.840493 
L 91.118242 75.840493 
L 91.233444 75.063365 
L 94.610953 75.063365 
L 94.726155 77.39475 
L 105.403273 77.39475 
L 105.518475 76.617622 
L 115.289687 76.617622 
L 115.404889 75.840493 
L 161.323302 75.840493 
L 161.438504 78.171878 
L 168.020719 78.171878 
L 168.135921 80.503262 
L 174.283511 80.503262 
L 174.398713 79.726134 
L 203.120631 79.726134 
L 203.235833 78.949006 
L 209.786629 78.949006 
L 209.901831 81.280391 
L 222.615927 81.280391 
L 222.731129 80.503262 
L 398.487273 80.503262 
L 398.487273 80.503262 
" clip-path="url(#pa8ce16779b)" style="fill: none; stroke: #e377c2; stroke-width: 1.5; stroke-linecap: square"/>
   </g>
   <g id="line2d_20">
    <path d="M 73.832727 58.627104 
L 73.8432 58.627104 
L 73.874619 58.044258 
L 73.879855 60.375643 
L 73.953166 58.23854 
L 73.958402 58.23854 
L 74.073604 56.878566 
L 74.173096 56.878566 
L 74.288298 56.101438 
L 74.513466 56.101438 
L 74.628667 55.712874 
L 76.058218 55.712874 
L 76.17342 53.381489 
L 78.880663 53.381489 
L 78.995865 52.604361 
L 80.498726 52.604361 
L 80.613928 51.827233 
L 84.174712 51.827233 
L 84.289914 49.495848 
L 94.610953 49.495848 
L 94.726155 48.913002 
L 161.323302 48.913002 
L 161.438504 48.330156 
L 168.020719 48.330156 
L 168.135921 47.74731 
L 209.786629 47.74731 
L 209.901831 46.970182 
L 398.487273 46.970182 
L 398.487273 46.970182 
" clip-path="url(#pa8ce16779b)" style="fill: none; stroke: #7f7f7f; stroke-width: 1.5; stroke-linecap: square"/>
   </g>
   <g id="line2d_21">
    <path d="M 73.832727 58.627104 
L 73.8432 58.627104 
L 73.921747 66.709237 
L 73.968875 65.154981 
L 74.000294 65.154981 
L 74.010767 69.81775 
L 74.115495 68.069212 
L 74.152151 67.292084 
L 74.178333 71.954853 
L 74.214988 69.234904 
L 74.24117 69.234904 
L 74.293535 68.457776 
L 74.304008 73.120545 
L 74.33019 72.343417 
L 74.361609 72.343417 
L 74.47681 70.400596 
L 74.49252 70.400596 
L 74.592012 75.451929 
L 74.607722 74.286237 
L 74.618194 74.286237 
L 74.733396 73.703391 
L 74.827652 73.703391 
L 74.848598 76.034775 
L 74.937618 75.451929 
L 74.974273 75.451929 
L 75.089475 74.674801 
L 75.157549 74.674801 
L 75.27275 72.731981 
L 75.346061 72.731981 
L 75.398425 75.063365 
L 75.456026 73.897673 
L 75.586937 73.897673 
L 75.702139 72.731981 
L 76.388114 72.731981 
L 76.503316 71.954853 
L 76.843685 71.954853 
L 76.958887 71.177724 
L 78.880663 71.177724 
L 78.980156 73.509109 
L 78.990629 72.731981 
L 79.063939 72.731981 
L 79.179141 71.954853 
L 79.823224 71.954853 
L 79.938426 71.177724 
L 80.184539 71.177724 
L 80.299741 70.400596 
L 80.498726 70.400596 
L 80.613928 72.731981 
L 81.697872 72.731981 
L 81.813074 71.954853 
L 82.012059 71.954853 
L 82.127261 71.177724 
L 85.248184 71.177724 
L 85.363386 70.400596 
L 91.118242 70.400596 
L 91.233444 69.623468 
L 94.610953 69.623468 
L 94.726155 71.954853 
L 100.52814 71.954853 
L 100.643342 70.78916 
L 105.403273 70.78916 
L 105.518475 70.012032 
L 115.289687 70.012032 
L 115.404889 69.234904 
L 155.804086 69.234904 
L 155.919288 68.069212 
L 161.323302 68.069212 
L 161.438504 70.400596 
L 168.020719 70.400596 
L 168.135921 72.731981 
L 174.283511 72.731981 
L 174.398713 71.954853 
L 195.642983 71.954853 
L 195.758185 70.78916 
L 203.120631 70.78916 
L 203.235833 70.012032 
L 209.786629 70.012032 
L 209.901831 72.343417 
L 222.615927 72.343417 
L 222.731129 71.566288 
L 398.487273 71.566288 
L 398.487273 71.566288 
" clip-path="url(#pa8ce16779b)" style="fill: none; stroke: #bcbd22; stroke-width: 1.5; stroke-linecap: square"/>
   </g>
   <g id="line2d_22">
    <path d="M 73.832727 59.404233 
L 73.8432 59.404233 
L 73.848437 58.821386 
L 73.885092 66.514955 
L 73.895565 65.737827 
L 73.900801 65.737827 
L 73.906038 64.572135 
L 73.91651 69.234904 
L 74.000294 67.680648 
L 74.00553 67.680648 
L 74.026476 71.566288 
L 74.115495 69.429186 
L 74.157387 70.983442 
L 74.225461 67.486366 
L 74.319717 77.200468 
L 74.356372 76.42334 
L 74.361609 76.42334 
L 74.47681 74.480519 
L 74.49252 74.480519 
L 74.612958 80.697544 
L 74.618194 80.697544 
L 74.733396 80.114698 
L 74.743869 80.114698 
L 74.848598 83.611775 
L 74.859071 83.028929 
L 74.953327 83.028929 
L 75.068529 86.91457 
L 75.157549 86.91457 
L 75.27275 84.971749 
L 75.346061 84.971749 
L 75.398425 87.303134 
L 75.456026 86.137442 
L 75.492681 86.137442 
L 75.586937 88.468826 
L 75.602647 87.303134 
L 76.15771 87.303134 
L 76.278149 91.965903 
L 76.388114 91.965903 
L 76.503316 91.188775 
L 76.843685 91.188775 
L 76.958887 90.411647 
L 77.445876 90.411647 
L 77.561078 92.743031 
L 78.304654 92.743031 
L 78.419856 95.074416 
L 78.880663 95.074416 
L 79.001102 93.520159 
L 79.063939 93.520159 
L 79.179141 92.743031 
L 79.514273 92.743031 
L 79.629475 95.074416 
L 79.823224 95.074416 
L 79.938426 94.297288 
L 80.184539 94.297288 
L 80.221194 93.520159 
L 80.22643 95.851544 
L 80.284031 95.851544 
L 80.498726 95.851544 
L 80.572036 95.074416 
L 80.577272 97.4058 
L 80.598218 97.4058 
L 81.697872 97.4058 
L 81.708345 96.628672 
L 81.713582 98.960057 
L 81.797365 98.960057 
L 82.012059 98.960057 
L 82.127261 98.182928 
L 83.394481 98.182928 
L 83.509683 100.514313 
L 85.248184 100.514313 
L 85.279603 99.737185 
L 85.284839 102.068569 
L 85.347677 102.068569 
L 91.076351 102.068569 
L 91.118242 104.399954 
L 91.186316 103.622826 
L 93.165694 103.622826 
L 93.280895 105.95421 
L 100.52814 105.95421 
L 100.643342 104.788518 
L 105.403273 104.788518 
L 105.518475 104.01139 
L 110.519283 104.01139 
L 110.634484 106.342774 
L 115.289687 106.342774 
L 115.404889 105.565646 
L 122.065651 105.565646 
L 122.180853 107.897031 
L 134.235156 107.897031 
L 134.350358 110.228415 
L 155.804086 110.228415 
L 155.919288 109.062723 
L 161.323302 109.062723 
L 161.438504 111.394107 
L 174.283511 111.394107 
L 174.398713 110.616979 
L 195.642983 110.616979 
L 195.758185 112.948364 
L 203.120631 112.948364 
L 203.235833 112.171235 
L 222.615927 112.171235 
L 222.731129 111.394107 
L 226.276204 111.394107 
L 226.391406 113.725492 
L 334.83301 113.725492 
L 334.948212 116.056876 
L 398.487273 116.056876 
L 398.487273 116.056876 
" clip-path="url(#pa8ce16779b)" style="fill: none; stroke: #17becf; stroke-width: 1.5; stroke-linecap: square"/>
   </g>
   <g id="line2d_23">
    <path d="M 73.832727 59.404233 
L 73.8432 59.404233 
L 73.968875 65.932109 
L 74.000294 65.932109 
L 74.115495 68.263494 
L 74.173096 68.263494 
L 74.288298 70.594878 
L 74.513466 70.594878 
L 74.628667 72.926263 
L 78.880663 72.926263 
L 78.995865 75.257647 
L 80.498726 75.257647 
L 80.613928 77.589032 
L 94.610953 77.589032 
L 94.726155 79.920416 
L 168.020719 79.920416 
L 168.135921 82.251801 
L 209.786629 82.251801 
L 209.901831 84.583185 
L 398.487273 84.583185 
L 398.487273 84.583185 
" clip-path="url(#pa8ce16779b)" style="fill: none; stroke: #1f77b4; stroke-width: 1.5; stroke-linecap: square"/>
   </g>
   <g id="line2d_24">
    <path d="M 73.832727 61.735617 
L 73.963638 81.552385 
L 73.984584 80.775257 
L 74.036949 77.666745 
L 74.068367 83.495206 
L 74.07884 83.495206 
L 74.089313 83.495206 
L 74.209752 89.323667 
L 74.214988 89.323667 
L 74.230697 88.157975 
L 74.262116 92.820744 
L 74.304008 91.655052 
L 74.319717 96.317821 
L 74.413973 93.209308 
L 74.429682 93.209308 
L 74.560594 102.534846 
L 74.597249 102.534846 
L 74.618194 101.369154 
L 74.623431 103.700538 
L 74.701978 103.700538 
L 74.738633 103.700538 
L 74.749106 102.534846 
L 74.754342 104.866231 
L 74.843362 104.089102 
L 74.848598 104.089102 
L 74.974273 111.083256 
L 75.010928 111.083256 
L 75.068529 113.414641 
L 75.120894 112.248948 
L 75.157549 112.248948 
L 75.27275 114.580333 
L 75.304169 114.580333 
L 75.382716 116.911717 
L 75.414135 115.746025 
L 75.555519 115.746025 
L 75.670721 118.07741 
L 75.723085 118.07741 
L 75.806868 116.911717 
L 75.812105 119.243102 
L 75.827814 119.243102 
L 76.016326 119.243102 
L 76.131528 118.07741 
L 76.15771 118.07741 
L 76.278149 122.740179 
L 77.445876 122.740179 
L 77.561078 125.071563 
L 77.807191 125.071563 
L 77.922393 123.905871 
L 78.304654 123.905871 
L 78.419856 126.237255 
L 78.95921 126.237255 
L 79.074412 128.56864 
L 79.320525 128.56864 
L 79.435727 127.402948 
L 79.823224 127.402948 
L 79.938426 126.625819 
L 80.310214 126.625819 
L 80.425415 128.957204 
L 80.572036 128.957204 
L 80.687238 131.288588 
L 81.514597 131.288588 
L 81.629798 130.122896 
L 81.708345 130.122896 
L 81.823547 132.454281 
L 83.394481 132.454281 
L 83.509683 134.785665 
L 85.279603 134.785665 
L 85.394805 137.11705 
L 91.076351 137.11705 
L 91.191553 135.951358 
L 93.165694 135.951358 
L 93.207585 138.282742 
L 93.275659 137.11705 
L 94.610953 137.11705 
L 94.726155 139.448434 
L 100.52814 139.448434 
L 100.643342 141.779819 
L 106.021174 141.779819 
L 106.136376 140.614127 
L 123.521383 140.614127 
L 123.636585 142.945511 
L 127.024567 142.945511 
L 127.139769 141.779819 
L 131.805444 141.779819 
L 131.920646 144.111203 
L 134.235156 144.111203 
L 134.350358 146.442588 
L 155.804086 146.442588 
L 155.919288 148.773972 
L 161.323302 148.773972 
L 161.438504 151.105357 
L 168.020719 151.105357 
L 168.135921 153.436741 
L 190.553155 153.436741 
L 190.668357 152.271049 
L 201.29311 152.271049 
L 201.408312 151.105357 
L 209.786629 151.105357 
L 209.901831 153.436741 
L 226.276204 153.436741 
L 226.391406 155.768126 
L 271.33584 155.768126 
L 271.451042 154.602434 
L 334.83301 154.602434 
L 334.948212 156.933818 
L 398.487273 156.933818 
L 398.487273 156.933818 
" clip-path="url(#pa8ce16779b)" style="fill: none; stroke: #ff7f0e; stroke-width: 1.5; stroke-linecap: square"/>
   </g>
   <g id="patch_3">
    <path d="M 57.6 162.432 
L 57.6 41.472 
" style="fill: none; stroke: #000000; stroke-width: 0.8; stroke-linejoin: miter; stroke-linecap: square"/>
   </g>
   <g id="patch_4">
    <path d="M 414.72 162.432 
L 414.72 41.472 
" style="fill: none; stroke: #000000; stroke-width: 0.8; stroke-linejoin: miter; stroke-linecap: square"/>
   </g>
   <g id="patch_5">
    <path d="M 57.6 162.432 
L 414.72 162.432 
" style="fill: none; stroke: #000000; stroke-width: 0.8; stroke-linejoin: miter; stroke-linecap: square"/>
   </g>
   <g id="patch_6">
    <path d="M 57.6 41.472 
L 414.72 41.472 
" style="fill: none; stroke: #000000; stroke-width: 0.8; stroke-linejoin: miter; stroke-linecap: square"/>
   </g>
   <g id="text_13">
    <!-- WSP -->
    <g transform="translate(361.832136 96.317821)scale(0.08 -0.08)">
     <defs>
      <path id="DejaVuSans-57" d="M 213 4666 
L 850 4666 
L 1831 722 
L 2809 4666 
L 3519 4666 
L 4500 722 
L 5478 4666 
L 6119 4666 
L 4947 0 
L 4153 0 
L 3169 4050 
L 2175 0 
L 1381 0 
L 213 4666 
z
" transform="scale(0.015625)"/>
      <path id="DejaVuSans-53" d="M 3425 4513 
L 3425 3897 
Q 3066 4069 2747 4153 
Q 2428 4238 2131 4238 
Q 1616 4238 1336 4038 
Q 1056 3838 1056 3469 
Q 1056 3159 1242 3001 
Q 1428 2844 1947 2747 
L 2328 2669 
Q 3034 2534 3370 2195 
Q 3706 1856 3706 1288 
Q 3706 609 3251 259 
Q 2797 -91 1919 -91 
Q 1588 -91 1214 -16 
Q 841 59 441 206 
L 441 856 
Q 825 641 1194 531 
Q 1563 422 1919 422 
Q 2459 422 2753 634 
Q 3047 847 3047 1241 
Q 3047 1584 2836 1778 
Q 2625 1972 2144 2069 
L 1759 2144 
Q 1053 2284 737 2584 
Q 422 2884 422 3419 
Q 422 4038 858 4394 
Q 1294 4750 2059 4750 
Q 2388 4750 2728 4690 
Q 3069 4631 3425 4513 
z
" transform="scale(0.015625)"/>
      <path id="DejaVuSans-50" d="M 1259 4147 
L 1259 2394 
L 2053 2394 
Q 2494 2394 2734 2622 
Q 2975 2850 2975 3272 
Q 2975 3691 2734 3919 
Q 2494 4147 2053 4147 
L 1259 4147 
z
M 628 4666 
L 2053 4666 
Q 2838 4666 3239 4311 
Q 3641 3956 3641 3272 
Q 3641 2581 3239 2228 
Q 2838 1875 2053 1875 
L 1259 1875 
L 1259 0 
L 628 0 
L 628 4666 
z
" transform="scale(0.015625)"/>
     </defs>
     <use xlink:href="#DejaVuSans-57"/>
     <use xlink:href="#DejaVuSans-53" x="98.876953"/>
     <use xlink:href="#DejaVuSans-50" x="162.353516"/>
    </g>
   </g>
   <g id="text_14">
    <!-- Iambic -->
    <g transform="translate(361.832136 124.294435)scale(0.08 -0.08)">
     <defs>
      <path id="DejaVuSans-49" d="M 628 4666 
L 1259 4666 
L 1259 0 
L 628 0 
L 628 4666 
z
" transform="scale(0.015625)"/>
      <path id="DejaVuSans-61" d="M 2194 1759 
Q 1497 1759 1228 1600 
Q 959 1441 959 1056 
Q 959 750 1161 570 
Q 1363 391 1709 391 
Q 2188 391 2477 730 
Q 2766 1069 2766 1631 
L 2766 1759 
L 2194 1759 
z
M 3341 1997 
L 3341 0 
L 2766 0 
L 2766 531 
Q 2569 213 2275 61 
Q 1981 -91 1556 -91 
Q 1019 -91 701 211 
Q 384 513 384 1019 
Q 384 1609 779 1909 
Q 1175 2209 1959 2209 
L 2766 2209 
L 2766 2266 
Q 2766 2663 2505 2880 
Q 2244 3097 1772 3097 
Q 1472 3097 1187 3025 
Q 903 2953 641 2809 
L 641 3341 
Q 956 3463 1253 3523 
Q 1550 3584 1831 3584 
Q 2591 3584 2966 3190 
Q 3341 2797 3341 1997 
z
" transform="scale(0.015625)"/>
      <path id="DejaVuSans-6d" d="M 3328 2828 
Q 3544 3216 3844 3400 
Q 4144 3584 4550 3584 
Q 5097 3584 5394 3201 
Q 5691 2819 5691 2113 
L 5691 0 
L 5113 0 
L 5113 2094 
Q 5113 2597 4934 2840 
Q 4756 3084 4391 3084 
Q 3944 3084 3684 2787 
Q 3425 2491 3425 1978 
L 3425 0 
L 2847 0 
L 2847 2094 
Q 2847 2600 2669 2842 
Q 2491 3084 2119 3084 
Q 1678 3084 1418 2786 
Q 1159 2488 1159 1978 
L 1159 0 
L 581 0 
L 581 3500 
L 1159 3500 
L 1159 2956 
Q 1356 3278 1631 3431 
Q 1906 3584 2284 3584 
Q 2666 3584 2933 3390 
Q 3200 3197 3328 2828 
z
" transform="scale(0.015625)"/>
      <path id="DejaVuSans-62" d="M 3116 1747 
Q 3116 2381 2855 2742 
Q 2594 3103 2138 3103 
Q 1681 3103 1420 2742 
Q 1159 2381 1159 1747 
Q 1159 1113 1420 752 
Q 1681 391 2138 391 
Q 2594 391 2855 752 
Q 3116 1113 3116 1747 
z
M 1159 2969 
Q 1341 3281 1617 3432 
Q 1894 3584 2278 3584 
Q 2916 3584 3314 3078 
Q 3713 2572 3713 1747 
Q 3713 922 3314 415 
Q 2916 -91 2278 -91 
Q 1894 -91 1617 61 
Q 1341 213 1159 525 
L 1159 0 
L 581 0 
L 581 4863 
L 1159 4863 
L 1159 2969 
z
" transform="scale(0.015625)"/>
      <path id="DejaVuSans-69" d="M 603 3500 
L 1178 3500 
L 1178 0 
L 603 0 
L 603 3500 
z
M 603 4863 
L 1178 4863 
L 1178 4134 
L 603 4134 
L 603 4863 
z
" transform="scale(0.015625)"/>
      <path id="DejaVuSans-63" d="M 3122 3366 
L 3122 2828 
Q 2878 2963 2633 3030 
Q 2388 3097 2138 3097 
Q 1578 3097 1268 2742 
Q 959 2388 959 1747 
Q 959 1106 1268 751 
Q 1578 397 2138 397 
Q 2388 397 2633 464 
Q 2878 531 3122 666 
L 3122 134 
Q 2881 22 2623 -34 
Q 2366 -91 2075 -91 
Q 1284 -91 818 406 
Q 353 903 353 1747 
Q 353 2603 823 3093 
Q 1294 3584 2113 3584 
Q 2378 3584 2631 3529 
Q 2884 3475 3122 3366 
z
" transform="scale(0.015625)"/>
     </defs>
     <use xlink:href="#DejaVuSans-49"/>
     <use xlink:href="#DejaVuSans-61" x="29.492188"/>
     <use xlink:href="#DejaVuSans-6d" x="90.771484"/>
     <use xlink:href="#DejaVuSans-62" x="188.183594"/>
     <use xlink:href="#DejaVuSans-69" x="251.660156"/>
     <use xlink:href="#DejaVuSans-63" x="279.443359"/>
    </g>
   </g>
   <g id="text_15">
    <!-- Parse -->
    <g transform="translate(361.832136 117.883128)scale(0.08 -0.08)">
     <defs>
      <path id="DejaVuSans-72" d="M 2631 2963 
Q 2534 3019 2420 3045 
Q 2306 3072 2169 3072 
Q 1681 3072 1420 2755 
Q 1159 2438 1159 1844 
L 1159 0 
L 581 0 
L 581 3500 
L 1159 3500 
L 1159 2956 
Q 1341 3275 1631 3429 
Q 1922 3584 2338 3584 
Q 2397 3584 2469 3576 
Q 2541 3569 2628 3553 
L 2631 2963 
z
" transform="scale(0.015625)"/>
      <path id="DejaVuSans-73" d="M 2834 3397 
L 2834 2853 
Q 2591 2978 2328 3040 
Q 2066 3103 1784 3103 
Q 1356 3103 1142 2972 
Q 928 2841 928 2578 
Q 928 2378 1081 2264 
Q 1234 2150 1697 2047 
L 1894 2003 
Q 2506 1872 2764 1633 
Q 3022 1394 3022 966 
Q 3022 478 2636 193 
Q 2250 -91 1575 -91 
Q 1294 -91 989 -36 
Q 684 19 347 128 
L 347 722 
Q 666 556 975 473 
Q 1284 391 1588 391 
Q 1994 391 2212 530 
Q 2431 669 2431 922 
Q 2431 1156 2273 1281 
Q 2116 1406 1581 1522 
L 1381 1569 
Q 847 1681 609 1914 
Q 372 2147 372 2553 
Q 372 3047 722 3315 
Q 1072 3584 1716 3584 
Q 2034 3584 2315 3537 
Q 2597 3491 2834 3397 
z
" transform="scale(0.015625)"/>
      <path id="DejaVuSans-65" d="M 3597 1894 
L 3597 1613 
L 953 1613 
Q 991 1019 1311 708 
Q 1631 397 2203 397 
Q 2534 397 2845 478 
Q 3156 559 3463 722 
L 3463 178 
Q 3153 47 2828 -22 
Q 2503 -91 2169 -91 
Q 1331 -91 842 396 
Q 353 884 353 1716 
Q 353 2575 817 3079 
Q 1281 3584 2069 3584 
Q 2775 3584 3186 3129 
Q 3597 2675 3597 1894 
z
M 3022 2063 
Q 3016 2534 2758 2815 
Q 2500 3097 2075 3097 
Q 1594 3097 1305 2825 
Q 1016 2553 972 2059 
L 3022 2063 
z
" transform="scale(0.015625)"/>
     </defs>
     <use xlink:href="#DejaVuSans-50"/>
     <use xlink:href="#DejaVuSans-61" x="55.802734"/>
     <use xlink:href="#DejaVuSans-72" x="117.082031"/>
     <use xlink:href="#DejaVuSans-73" x="158.195312"/>
     <use xlink:href="#DejaVuSans-65" x="210.294922"/>
    </g>
   </g>
   <g id="text_16">
    <!-- FootBin -->
    <g transform="translate(361.832136 56.606571)scale(0.08 -0.08)">
     <defs>
      <path id="DejaVuSans-46" d="M 628 4666 
L 3309 4666 
L 3309 4134 
L 1259 4134 
L 1259 2759 
L 3109 2759 
L 3109 2228 
L 1259 2228 
L 1259 0 
L 628 0 
L 628 4666 
z
" transform="scale(0.015625)"/>
      <path id="DejaVuSans-6f" d="M 1959 3097 
Q 1497 3097 1228 2736 
Q 959 2375 959 1747 
Q 959 1119 1226 758 
Q 1494 397 1959 397 
Q 2419 397 2687 759 
Q 2956 1122 2956 1747 
Q 2956 2369 2687 2733 
Q 2419 3097 1959 3097 
z
M 1959 3584 
Q 2709 3584 3137 3096 
Q 3566 2609 3566 1747 
Q 3566 888 3137 398 
Q 2709 -91 1959 -91 
Q 1206 -91 779 398 
Q 353 888 353 1747 
Q 353 2609 779 3096 
Q 1206 3584 1959 3584 
z
" transform="scale(0.015625)"/>
      <path id="DejaVuSans-74" d="M 1172 4494 
L 1172 3500 
L 2356 3500 
L 2356 3053 
L 1172 3053 
L 1172 1153 
Q 1172 725 1289 603 
Q 1406 481 1766 481 
L 2356 481 
L 2356 0 
L 1766 0 
Q 1100 0 847 248 
Q 594 497 594 1153 
L 594 3053 
L 172 3053 
L 172 3500 
L 594 3500 
L 594 4494 
L 1172 4494 
z
" transform="scale(0.015625)"/>
      <path id="DejaVuSans-42" d="M 1259 2228 
L 1259 519 
L 2272 519 
Q 2781 519 3026 730 
Q 3272 941 3272 1375 
Q 3272 1813 3026 2020 
Q 2781 2228 2272 2228 
L 1259 2228 
z
M 1259 4147 
L 1259 2741 
L 2194 2741 
Q 2656 2741 2882 2914 
Q 3109 3088 3109 3444 
Q 3109 3797 2882 3972 
Q 2656 4147 2194 4147 
L 1259 4147 
z
M 628 4666 
L 2241 4666 
Q 2963 4666 3353 4366 
Q 3744 4066 3744 3513 
Q 3744 3084 3544 2831 
Q 3344 2578 2956 2516 
Q 3422 2416 3680 2098 
Q 3938 1781 3938 1306 
Q 3938 681 3513 340 
Q 3088 0 2303 0 
L 628 0 
L 628 4666 
z
" transform="scale(0.015625)"/>
      <path id="DejaVuSans-6e" d="M 3513 2113 
L 3513 0 
L 2938 0 
L 2938 2094 
Q 2938 2591 2744 2837 
Q 2550 3084 2163 3084 
Q 1697 3084 1428 2787 
Q 1159 2491 1159 1978 
L 1159 0 
L 581 0 
L 581 3500 
L 1159 3500 
L 1159 2956 
Q 1366 3272 1645 3428 
Q 1925 3584 2291 3584 
Q 2894 3584 3203 3211 
Q 3513 2838 3513 2113 
z
" transform="scale(0.015625)"/>
     </defs>
     <use xlink:href="#DejaVuSans-46"/>
     <use xlink:href="#DejaVuSans-6f" x="53.894531"/>
     <use xlink:href="#DejaVuSans-6f" x="115.076172"/>
     <use xlink:href="#DejaVuSans-74" x="176.257812"/>
     <use xlink:href="#DejaVuSans-42" x="215.466797"/>
     <use xlink:href="#DejaVuSans-69" x="284.070312"/>
     <use xlink:href="#DejaVuSans-6e" x="311.853516"/>
    </g>
   </g>
   <g id="text_17">
    <!-- WFL -->
    <g transform="translate(361.832136 88.935103)scale(0.08 -0.08)">
     <defs>
      <path id="DejaVuSans-4c" d="M 628 4666 
L 1259 4666 
L 1259 531 
L 3531 531 
L 3531 0 
L 628 0 
L 628 4666 
z
" transform="scale(0.015625)"/>
     </defs>
     <use xlink:href="#DejaVuSans-57"/>
     <use xlink:href="#DejaVuSans-46" x="98.876953"/>
     <use xlink:href="#DejaVuSans-4c" x="156.396484"/>
    </g>
   </g>
   <g id="text_18">
    <!-- WFR -->
    <g transform="translate(361.832136 54.547181)scale(0.08 -0.08)">
     <defs>
      <path id="DejaVuSans-52" d="M 2841 2188 
Q 3044 2119 3236 1894 
Q 3428 1669 3622 1275 
L 4263 0 
L 3584 0 
L 2988 1197 
Q 2756 1666 2539 1819 
Q 2322 1972 1947 1972 
L 1259 1972 
L 1259 0 
L 628 0 
L 628 4666 
L 2053 4666 
Q 2853 4666 3247 4331 
Q 3641 3997 3641 3322 
Q 3641 2881 3436 2590 
Q 3231 2300 2841 2188 
z
M 1259 4147 
L 1259 2491 
L 2053 2491 
Q 2509 2491 2742 2702 
Q 2975 2913 2975 3322 
Q 2975 3731 2742 3939 
Q 2509 4147 2053 4147 
L 1259 4147 
z
" transform="scale(0.015625)"/>
     </defs>
     <use xlink:href="#DejaVuSans-57"/>
     <use xlink:href="#DejaVuSans-46" x="98.876953"/>
     <use xlink:href="#DejaVuSans-52" x="156.396484"/>
    </g>
   </g>
   <g id="text_19">
    <!-- Main-L -->
    <g transform="translate(361.832136 80.503262)scale(0.08 -0.08)">
     <defs>
      <path id="DejaVuSans-4d" d="M 628 4666 
L 1569 4666 
L 2759 1491 
L 3956 4666 
L 4897 4666 
L 4897 0 
L 4281 0 
L 4281 4097 
L 3078 897 
L 2444 897 
L 1241 4097 
L 1241 0 
L 628 0 
L 628 4666 
z
" transform="scale(0.015625)"/>
      <path id="DejaVuSans-2d" d="M 313 2009 
L 1997 2009 
L 1997 1497 
L 313 1497 
L 313 2009 
z
" transform="scale(0.015625)"/>
     </defs>
     <use xlink:href="#DejaVuSans-4d"/>
     <use xlink:href="#DejaVuSans-61" x="86.279297"/>
     <use xlink:href="#DejaVuSans-69" x="147.558594"/>
     <use xlink:href="#DejaVuSans-6e" x="175.341797"/>
     <use xlink:href="#DejaVuSans-2d" x="238.720703"/>
     <use xlink:href="#DejaVuSans-4c" x="274.804688"/>
    </g>
   </g>
   <g id="text_20">
    <!-- Main-R -->
    <g transform="translate(361.832136 46.970182)scale(0.08 -0.08)">
     <use xlink:href="#DejaVuSans-4d"/>
     <use xlink:href="#DejaVuSans-61" x="86.279297"/>
     <use xlink:href="#DejaVuSans-69" x="147.558594"/>
     <use xlink:href="#DejaVuSans-6e" x="175.341797"/>
     <use xlink:href="#DejaVuSans-2d" x="238.720703"/>
     <use xlink:href="#DejaVuSans-52" x="274.804688"/>
    </g>
   </g>
   <g id="text_21">
    <!-- AFL -->
    <g transform="translate(361.832136 71.566288)scale(0.08 -0.08)">
     <defs>
      <path id="DejaVuSans-41" d="M 2188 4044 
L 1331 1722 
L 3047 1722 
L 2188 4044 
z
M 1831 4666 
L 2547 4666 
L 4325 0 
L 3669 0 
L 3244 1197 
L 1141 1197 
L 716 0 
L 50 0 
L 1831 4666 
z
" transform="scale(0.015625)"/>
     </defs>
     <use xlink:href="#DejaVuSans-41"/>
     <use xlink:href="#DejaVuSans-46" x="68.408203"/>
     <use xlink:href="#DejaVuSans-4c" x="125.927734"/>
    </g>
   </g>
   <g id="text_22">
    <!-- AFR -->
    <g transform="translate(361.832136 116.056876)scale(0.08 -0.08)">
     <use xlink:href="#DejaVuSans-41"/>
     <use xlink:href="#DejaVuSans-46" x="68.408203"/>
     <use xlink:href="#DejaVuSans-52" x="125.927734"/>
    </g>
   </g>
   <g id="text_23">
    <!-- Nonfinal -->
    <g transform="translate(361.832136 84.583185)scale(0.08 -0.08)">
     <defs>
      <path id="DejaVuSans-4e" d="M 628 4666 
L 1478 4666 
L 3547 763 
L 3547 4666 
L 4159 4666 
L 4159 0 
L 3309 0 
L 1241 3903 
L 1241 0 
L 628 0 
L 628 4666 
z
" transform="scale(0.015625)"/>
      <path id="DejaVuSans-66" d="M 2375 4863 
L 2375 4384 
L 1825 4384 
Q 1516 4384 1395 4259 
Q 1275 4134 1275 3809 
L 1275 3500 
L 2222 3500 
L 2222 3053 
L 1275 3053 
L 1275 0 
L 697 0 
L 697 3053 
L 147 3053 
L 147 3500 
L 697 3500 
L 697 3744 
Q 697 4328 969 4595 
Q 1241 4863 1831 4863 
L 2375 4863 
z
" transform="scale(0.015625)"/>
      <path id="DejaVuSans-6c" d="M 603 4863 
L 1178 4863 
L 1178 0 
L 603 0 
L 603 4863 
z
" transform="scale(0.015625)"/>
     </defs>
     <use xlink:href="#DejaVuSans-4e"/>
     <use xlink:href="#DejaVuSans-6f" x="74.804688"/>
     <use xlink:href="#DejaVuSans-6e" x="135.986328"/>
     <use xlink:href="#DejaVuSans-66" x="199.365234"/>
     <use xlink:href="#DejaVuSans-69" x="234.570312"/>
     <use xlink:href="#DejaVuSans-6e" x="262.353516"/>
     <use xlink:href="#DejaVuSans-61" x="325.732422"/>
     <use xlink:href="#DejaVuSans-6c" x="387.011719"/>
    </g>
   </g>
   <g id="text_24">
    <!-- Trochaic -->
    <g transform="translate(361.832136 156.933818)scale(0.08 -0.08)">
     <defs>
      <path id="DejaVuSans-54" d="M -19 4666 
L 3928 4666 
L 3928 4134 
L 2272 4134 
L 2272 0 
L 1638 0 
L 1638 4134 
L -19 4134 
L -19 4666 
z
" transform="scale(0.015625)"/>
      <path id="DejaVuSans-68" d="M 3513 2113 
L 3513 0 
L 2938 0 
L 2938 2094 
Q 2938 2591 2744 2837 
Q 2550 3084 2163 3084 
Q 1697 3084 1428 2787 
Q 1159 2491 1159 1978 
L 1159 0 
L 581 0 
L 581 4863 
L 1159 4863 
L 1159 2956 
Q 1366 3272 1645 3428 
Q 1925 3584 2291 3584 
Q 2894 3584 3203 3211 
Q 3513 2838 3513 2113 
z
" transform="scale(0.015625)"/>
     </defs>
     <use xlink:href="#DejaVuSans-54"/>
     <use xlink:href="#DejaVuSans-72" x="46.333984"/>
     <use xlink:href="#DejaVuSans-6f" x="85.197266"/>
     <use xlink:href="#DejaVuSans-63" x="146.378906"/>
     <use xlink:href="#DejaVuSans-68" x="201.359375"/>
     <use xlink:href="#DejaVuSans-61" x="264.738281"/>
     <use xlink:href="#DejaVuSans-69" x="326.017578"/>
     <use xlink:href="#DejaVuSans-63" x="353.800781"/>
    </g>
   </g>
  </g>
  <g id="axes_2">
   <g id="patch_7">
    <path d="M 57.6 307.584 
L 414.72 307.584 
L 414.72 186.624 
L 57.6 186.624 
z
" style="fill: #ffffff"/>
   </g>
   <g id="matplotlib.axis_3">
    <g id="xtick_8">
     <g id="line2d_25">
      <g>
       <use xlink:href="#m755d7141c2" x="71.624193" y="307.584" style="stroke: #000000; stroke-width: 0.8"/>
      </g>
     </g>
     <g id="text_25">
      <!-- 0 -->
      <g transform="translate(68.442943 322.182437)scale(0.1 -0.1)">
       <use xlink:href="#DejaVuSans-30"/>
      </g>
     </g>
    </g>
    <g id="xtick_9">
     <g id="line2d_26">
      <g>
       <use xlink:href="#m755d7141c2" x="115.794879" y="307.584" style="stroke: #000000; stroke-width: 0.8"/>
      </g>
     </g>
     <g id="text_26">
      <!-- 20 -->
      <g transform="translate(109.432379 322.182437)scale(0.1 -0.1)">
       <use xlink:href="#DejaVuSans-32"/>
       <use xlink:href="#DejaVuSans-30" x="63.623047"/>
      </g>
     </g>
    </g>
    <g id="xtick_10">
     <g id="line2d_27">
      <g>
       <use xlink:href="#m755d7141c2" x="159.965566" y="307.584" style="stroke: #000000; stroke-width: 0.8"/>
      </g>
     </g>
     <g id="text_27">
      <!-- 40 -->
      <g transform="translate(153.603066 322.182437)scale(0.1 -0.1)">
       <use xlink:href="#DejaVuSans-34"/>
       <use xlink:href="#DejaVuSans-30" x="63.623047"/>
      </g>
     </g>
    </g>
    <g id="xtick_11">
     <g id="line2d_28">
      <g>
       <use xlink:href="#m755d7141c2" x="204.136252" y="307.584" style="stroke: #000000; stroke-width: 0.8"/>
      </g>
     </g>
     <g id="text_28">
      <!-- 60 -->
      <g transform="translate(197.773752 322.182437)scale(0.1 -0.1)">
       <use xlink:href="#DejaVuSans-36"/>
       <use xlink:href="#DejaVuSans-30" x="63.623047"/>
      </g>
     </g>
    </g>
    <g id="xtick_12">
     <g id="line2d_29">
      <g>
       <use xlink:href="#m755d7141c2" x="248.306939" y="307.584" style="stroke: #000000; stroke-width: 0.8"/>
      </g>
     </g>
     <g id="text_29">
      <!-- 80 -->
      <g transform="translate(241.944439 322.182437)scale(0.1 -0.1)">
       <use xlink:href="#DejaVuSans-38"/>
       <use xlink:href="#DejaVuSans-30" x="63.623047"/>
      </g>
     </g>
    </g>
    <g id="xtick_13">
     <g id="line2d_30">
      <g>
       <use xlink:href="#m755d7141c2" x="292.477625" y="307.584" style="stroke: #000000; stroke-width: 0.8"/>
      </g>
     </g>
     <g id="text_30">
      <!-- 100 -->
      <g transform="translate(282.933875 322.182437)scale(0.1 -0.1)">
       <use xlink:href="#DejaVuSans-31"/>
       <use xlink:href="#DejaVuSans-30" x="63.623047"/>
       <use xlink:href="#DejaVuSans-30" x="127.246094"/>
      </g>
     </g>
    </g>
    <g id="xtick_14">
     <g id="line2d_31">
      <g>
       <use xlink:href="#m755d7141c2" x="336.648312" y="307.584" style="stroke: #000000; stroke-width: 0.8"/>
      </g>
     </g>
     <g id="text_31">
      <!-- 120 -->
      <g transform="translate(327.104562 322.182437)scale(0.1 -0.1)">
       <use xlink:href="#DejaVuSans-31"/>
       <use xlink:href="#DejaVuSans-32" x="63.623047"/>
       <use xlink:href="#DejaVuSans-30" x="127.246094"/>
      </g>
     </g>
    </g>
    <g id="xtick_15">
     <g id="line2d_32">
      <g>
       <use xlink:href="#m755d7141c2" x="380.818998" y="307.584" style="stroke: #000000; stroke-width: 0.8"/>
      </g>
     </g>
     <g id="text_32">
      <!-- 140 -->
      <g transform="translate(371.275248 322.182437)scale(0.1 -0.1)">
       <use xlink:href="#DejaVuSans-31"/>
       <use xlink:href="#DejaVuSans-34" x="63.623047"/>
       <use xlink:href="#DejaVuSans-30" x="127.246094"/>
      </g>
     </g>
    </g>
   </g>
   <g id="matplotlib.axis_4">
    <g id="ytick_6">
     <g id="line2d_33">
      <g>
       <use xlink:href="#m9d5acd691b" x="57.6" y="302.094887" style="stroke: #000000; stroke-width: 0.8"/>
      </g>
     </g>
     <g id="text_33">
      <!-- 0 -->
      <g transform="translate(44.2375 305.894106)scale(0.1 -0.1)">
       <use xlink:href="#DejaVuSans-30"/>
      </g>
     </g>
    </g>
    <g id="ytick_7">
     <g id="line2d_34">
      <g>
       <use xlink:href="#m9d5acd691b" x="57.6" y="279.421973" style="stroke: #000000; stroke-width: 0.8"/>
      </g>
     </g>
     <g id="text_34">
      <!-- 2500 -->
      <g transform="translate(25.15 283.221191)scale(0.1 -0.1)">
       <use xlink:href="#DejaVuSans-32"/>
       <use xlink:href="#DejaVuSans-35" x="63.623047"/>
       <use xlink:href="#DejaVuSans-30" x="127.246094"/>
       <use xlink:href="#DejaVuSans-30" x="190.869141"/>
      </g>
     </g>
    </g>
    <g id="ytick_8">
     <g id="line2d_35">
      <g>
       <use xlink:href="#m9d5acd691b" x="57.6" y="256.749058" style="stroke: #000000; stroke-width: 0.8"/>
      </g>
     </g>
     <g id="text_35">
      <!-- 5000 -->
      <g transform="translate(25.15 260.548277)scale(0.1 -0.1)">
       <use xlink:href="#DejaVuSans-35"/>
       <use xlink:href="#DejaVuSans-30" x="63.623047"/>
       <use xlink:href="#DejaVuSans-30" x="127.246094"/>
       <use xlink:href="#DejaVuSans-30" x="190.869141"/>
      </g>
     </g>
    </g>
    <g id="ytick_9">
     <g id="line2d_36">
      <g>
       <use xlink:href="#m9d5acd691b" x="57.6" y="234.076143" style="stroke: #000000; stroke-width: 0.8"/>
      </g>
     </g>
     <g id="text_36">
      <!-- 7500 -->
      <g transform="translate(25.15 237.875362)scale(0.1 -0.1)">
       <use xlink:href="#DejaVuSans-37"/>
       <use xlink:href="#DejaVuSans-35" x="63.623047"/>
       <use xlink:href="#DejaVuSans-30" x="127.246094"/>
       <use xlink:href="#DejaVuSans-30" x="190.869141"/>
      </g>
     </g>
    </g>
    <g id="ytick_10">
     <g id="line2d_37">
      <g>
       <use xlink:href="#m9d5acd691b" x="57.6" y="211.403228" style="stroke: #000000; stroke-width: 0.8"/>
      </g>
     </g>
     <g id="text_37">
      <!-- 10000 -->
      <g transform="translate(18.7875 215.202447)scale(0.1 -0.1)">
       <use xlink:href="#DejaVuSans-31"/>
       <use xlink:href="#DejaVuSans-30" x="63.623047"/>
       <use xlink:href="#DejaVuSans-30" x="127.246094"/>
       <use xlink:href="#DejaVuSans-30" x="190.869141"/>
       <use xlink:href="#DejaVuSans-30" x="254.492188"/>
      </g>
     </g>
    </g>
    <g id="ytick_11">
     <g id="line2d_38">
      <g>
       <use xlink:href="#m9d5acd691b" x="57.6" y="188.730314" style="stroke: #000000; stroke-width: 0.8"/>
      </g>
     </g>
     <g id="text_38">
      <!-- 12500 -->
      <g transform="translate(18.7875 192.529533)scale(0.1 -0.1)">
       <use xlink:href="#DejaVuSans-31"/>
       <use xlink:href="#DejaVuSans-32" x="63.623047"/>
       <use xlink:href="#DejaVuSans-35" x="127.246094"/>
       <use xlink:href="#DejaVuSans-30" x="190.869141"/>
       <use xlink:href="#DejaVuSans-30" x="254.492188"/>
      </g>
     </g>
    </g>
   </g>
   <g id="line2d_39">
    <path d="M 73.832727 302.085818 
L 102.543673 302.076749 
L 129.046085 302.076749 
L 221.804527 302.06768 
L 224.013061 301.886297 
L 226.221596 302.085818 
L 248.306939 301.995127 
L 250.515473 301.940712 
L 252.724007 302.076749 
L 254.932542 301.859089 
L 257.141076 302.022334 
L 261.558145 302.06768 
L 263.766679 301.931642 
L 268.183748 302.040472 
L 270.392282 301.859089 
L 272.600816 301.949781 
L 274.809351 301.732121 
L 277.017885 302.022334 
L 279.226419 301.922573 
L 281.434954 301.95885 
L 283.643488 301.831882 
L 285.852022 301.30587 
L 288.060557 301.051933 
L 290.269091 301.469115 
L 294.68616 301.097279 
L 296.894694 301.95885 
L 299.103228 302.058611 
L 301.311763 301.949781 
L 303.520297 301.650498 
L 305.728831 301.759328 
L 310.1459 301.469115 
L 312.354434 302.031403 
L 316.771503 301.768397 
L 318.980037 301.967919 
L 321.188571 300.462437 
L 323.397106 301.777467 
L 325.60564 302.076749 
L 327.814174 301.568876 
L 330.022709 299.700628 
L 332.231243 300.743582 
L 334.439777 300.235708 
L 336.648312 302.040472 
L 338.856846 292.055321 
L 341.06538 302.022334 
L 343.273915 298.548843 
L 345.482449 302.022334 
L 347.690983 299.664351 
L 349.899518 291.84673 
L 352.108052 293.651494 
L 354.316586 301.024726 
L 356.525121 294.304474 
L 358.733655 293.832877 
L 360.942189 290.359387 
L 363.150724 299.573659 
L 365.359258 296.027615 
L 367.567792 293.814739 
L 369.776327 297.886794 
L 371.984861 264.738993 
L 374.193395 292.535987 
L 376.401929 290.495424 
L 378.610464 291.248165 
L 380.818998 273.916989 
L 383.027532 293.279658 
L 385.236067 292.309257 
L 387.444601 298.929748 
L 389.653135 290.549839 
L 391.86167 279.875431 
L 394.070204 295.75554 
L 396.278738 224.054715 
L 398.487273 192.122182 
L 398.487273 192.122182 
" clip-path="url(#p539e5948f2)" style="fill: none; stroke: #1f77b4; stroke-width: 1.5; stroke-linecap: square"/>
   </g>
   <g id="patch_8">
    <path d="M 57.6 307.584 
L 57.6 186.624 
" style="fill: none; stroke: #000000; stroke-width: 0.8; stroke-linejoin: miter; stroke-linecap: square"/>
   </g>
   <g id="patch_9">
    <path d="M 414.72 307.584 
L 414.72 186.624 
" style="fill: none; stroke: #000000; stroke-width: 0.8; stroke-linejoin: miter; stroke-linecap: square"/>
   </g>
   <g id="patch_10">
    <path d="M 57.6 307.584 
L 414.72 307.584 
" style="fill: none; stroke: #000000; stroke-width: 0.8; stroke-linejoin: miter; stroke-linecap: square"/>
   </g>
   <g id="patch_11">
    <path d="M 57.6 186.624 
L 414.72 186.624 
" style="fill: none; stroke: #000000; stroke-width: 0.8; stroke-linejoin: miter; stroke-linecap: square"/>
   </g>
  </g>
 </g>
 <defs>
  <clipPath id="pa8ce16779b">
   <rect x="57.6" y="41.472" width="357.12" height="120.96"/>
  </clipPath>
  <clipPath id="p539e5948f2">
   <rect x="57.6" y="186.624" width="357.12" height="120.96"/>
  </clipPath>
 </defs>
</svg>
