<?xml version="1.0" encoding="utf-8" standalone="no"?>
<!DOCTYPE svg PUBLIC "-//W3C//DTD SVG 1.1//EN"
  "http://www.w3.org/Graphics/SVG/1.1/DTD/svg11.dtd">
<svg xmlns:xlink="http://www.w3.org/1999/xlink" width="460.8pt" height="345.6pt" viewBox="0 0 460.8 345.6" xmlns="http://www.w3.org/2000/svg" version="1.1">
 <metadata>
  <rdf:RDF xmlns:dc="http://purl.org/dc/elements/1.1/" xmlns:cc="http://creativecommons.org/ns#" xmlns:rdf="http://www.w3.org/1999/02/22-rdf-syntax-ns#">
   <cc:Work>
    <dc:type rdf:resource="http://purl.org/dc/dcmitype/StillImage"/>
    <dc:date>2022-05-14T01:41:28.076459</dc:date>
    <dc:format>image/svg+xml</dc:format>
    <dc:creator>
     <cc:Agent>
      <dc:title>Matplotlib v3.5.1, https://matplotlib.org/</dc:title>
     </cc:Agent>
    </dc:creator>
   </cc:Work>
  </rdf:RDF>
 </metadata>
 <defs>
  <style type="text/css">*{stroke-linejoin: round; stroke-linecap: butt}</style>
 </defs>
 <g id="figure_1">
  <g id="patch_1">
   <path d="M 0 345.6 
L 460.8 345.6 
L 460.8 0 
L 0 0 
z
" style="fill: #ffffff"/>
  </g>
  <g id="axes_1">
   <g id="patch_2">
    <path d="M 57.6 162.432 
L 414.72 162.432 
L 414.72 41.472 
L 57.6 41.472 
z
" style="fill: #ffffff"/>
   </g>
   <g id="matplotlib.axis_1">
    <g id="xtick_1">
     <g id="line2d_1">
      <defs>
       <path id="m07ca8aa15f" d="M 0 0 
L 0 3.5 
" style="stroke: #000000; stroke-width: 0.8"/>
      </defs>
      <g>
       <use xlink:href="#m07ca8aa15f" x="73.827491" y="162.432" style="stroke: #000000; stroke-width: 0.8"/>
      </g>
     </g>
     <g id="text_1">
      <!-- 0 -->
      <g transform="translate(70.646241 177.030437)scale(0.1 -0.1)">
       <defs>
        <path id="DejaVuSans-30" d="M 2034 4250 
Q 1547 4250 1301 3770 
Q 1056 3291 1056 2328 
Q 1056 1369 1301 889 
Q 1547 409 2034 409 
Q 2525 409 2770 889 
Q 3016 1369 3016 2328 
Q 3016 3291 2770 3770 
Q 2525 4250 2034 4250 
z
M 2034 4750 
Q 2819 4750 3233 4129 
Q 3647 3509 3647 2328 
Q 3647 1150 3233 529 
Q 2819 -91 2034 -91 
Q 1250 -91 836 529 
Q 422 1150 422 2328 
Q 422 3509 836 4129 
Q 1250 4750 2034 4750 
z
" transform="scale(0.015625)"/>
       </defs>
       <use xlink:href="#DejaVuSans-30"/>
      </g>
     </g>
    </g>
    <g id="xtick_2">
     <g id="line2d_2">
      <g>
       <use xlink:href="#m07ca8aa15f" x="126.191972" y="162.432" style="stroke: #000000; stroke-width: 0.8"/>
      </g>
     </g>
     <g id="text_2">
      <!-- 10000 -->
      <g transform="translate(110.285722 177.030437)scale(0.1 -0.1)">
       <defs>
        <path id="DejaVuSans-31" d="M 794 531 
L 1825 531 
L 1825 4091 
L 703 3866 
L 703 4441 
L 1819 4666 
L 2450 4666 
L 2450 531 
L 3481 531 
L 3481 0 
L 794 0 
L 794 531 
z
" transform="scale(0.015625)"/>
       </defs>
       <use xlink:href="#DejaVuSans-31"/>
       <use xlink:href="#DejaVuSans-30" x="63.623047"/>
       <use xlink:href="#DejaVuSans-30" x="127.246094"/>
       <use xlink:href="#DejaVuSans-30" x="190.869141"/>
       <use xlink:href="#DejaVuSans-30" x="254.492188"/>
      </g>
     </g>
    </g>
    <g id="xtick_3">
     <g id="line2d_3">
      <g>
       <use xlink:href="#m07ca8aa15f" x="178.556453" y="162.432" style="stroke: #000000; stroke-width: 0.8"/>
      </g>
     </g>
     <g id="text_3">
      <!-- 20000 -->
      <g transform="translate(162.650203 177.030437)scale(0.1 -0.1)">
       <defs>
        <path id="DejaVuSans-32" d="M 1228 531 
L 3431 531 
L 3431 0 
L 469 0 
L 469 531 
Q 828 903 1448 1529 
Q 2069 2156 2228 2338 
Q 2531 2678 2651 2914 
Q 2772 3150 2772 3378 
Q 2772 3750 2511 3984 
Q 2250 4219 1831 4219 
Q 1534 4219 1204 4116 
Q 875 4013 500 3803 
L 500 4441 
Q 881 4594 1212 4672 
Q 1544 4750 1819 4750 
Q 2544 4750 2975 4387 
Q 3406 4025 3406 3419 
Q 3406 3131 3298 2873 
Q 3191 2616 2906 2266 
Q 2828 2175 2409 1742 
Q 1991 1309 1228 531 
z
" transform="scale(0.015625)"/>
       </defs>
       <use xlink:href="#DejaVuSans-32"/>
       <use xlink:href="#DejaVuSans-30" x="63.623047"/>
       <use xlink:href="#DejaVuSans-30" x="127.246094"/>
       <use xlink:href="#DejaVuSans-30" x="190.869141"/>
       <use xlink:href="#DejaVuSans-30" x="254.492188"/>
      </g>
     </g>
    </g>
    <g id="xtick_4">
     <g id="line2d_4">
      <g>
       <use xlink:href="#m07ca8aa15f" x="230.920934" y="162.432" style="stroke: #000000; stroke-width: 0.8"/>
      </g>
     </g>
     <g id="text_4">
      <!-- 30000 -->
      <g transform="translate(215.014684 177.030437)scale(0.1 -0.1)">
       <defs>
        <path id="DejaVuSans-33" d="M 2597 2516 
Q 3050 2419 3304 2112 
Q 3559 1806 3559 1356 
Q 3559 666 3084 287 
Q 2609 -91 1734 -91 
Q 1441 -91 1130 -33 
Q 819 25 488 141 
L 488 750 
Q 750 597 1062 519 
Q 1375 441 1716 441 
Q 2309 441 2620 675 
Q 2931 909 2931 1356 
Q 2931 1769 2642 2001 
Q 2353 2234 1838 2234 
L 1294 2234 
L 1294 2753 
L 1863 2753 
Q 2328 2753 2575 2939 
Q 2822 3125 2822 3475 
Q 2822 3834 2567 4026 
Q 2313 4219 1838 4219 
Q 1578 4219 1281 4162 
Q 984 4106 628 3988 
L 628 4550 
Q 988 4650 1302 4700 
Q 1616 4750 1894 4750 
Q 2613 4750 3031 4423 
Q 3450 4097 3450 3541 
Q 3450 3153 3228 2886 
Q 3006 2619 2597 2516 
z
" transform="scale(0.015625)"/>
       </defs>
       <use xlink:href="#DejaVuSans-33"/>
       <use xlink:href="#DejaVuSans-30" x="63.623047"/>
       <use xlink:href="#DejaVuSans-30" x="127.246094"/>
       <use xlink:href="#DejaVuSans-30" x="190.869141"/>
       <use xlink:href="#DejaVuSans-30" x="254.492188"/>
      </g>
     </g>
    </g>
    <g id="xtick_5">
     <g id="line2d_5">
      <g>
       <use xlink:href="#m07ca8aa15f" x="283.285415" y="162.432" style="stroke: #000000; stroke-width: 0.8"/>
      </g>
     </g>
     <g id="text_5">
      <!-- 40000 -->
      <g transform="translate(267.379165 177.030437)scale(0.1 -0.1)">
       <defs>
        <path id="DejaVuSans-34" d="M 2419 4116 
L 825 1625 
L 2419 1625 
L 2419 4116 
z
M 2253 4666 
L 3047 4666 
L 3047 1625 
L 3713 1625 
L 3713 1100 
L 3047 1100 
L 3047 0 
L 2419 0 
L 2419 1100 
L 313 1100 
L 313 1709 
L 2253 4666 
z
" transform="scale(0.015625)"/>
       </defs>
       <use xlink:href="#DejaVuSans-34"/>
       <use xlink:href="#DejaVuSans-30" x="63.623047"/>
       <use xlink:href="#DejaVuSans-30" x="127.246094"/>
       <use xlink:href="#DejaVuSans-30" x="190.869141"/>
       <use xlink:href="#DejaVuSans-30" x="254.492188"/>
      </g>
     </g>
    </g>
    <g id="xtick_6">
     <g id="line2d_6">
      <g>
       <use xlink:href="#m07ca8aa15f" x="335.649896" y="162.432" style="stroke: #000000; stroke-width: 0.8"/>
      </g>
     </g>
     <g id="text_6">
      <!-- 50000 -->
      <g transform="translate(319.743646 177.030437)scale(0.1 -0.1)">
       <defs>
        <path id="DejaVuSans-35" d="M 691 4666 
L 3169 4666 
L 3169 4134 
L 1269 4134 
L 1269 2991 
Q 1406 3038 1543 3061 
Q 1681 3084 1819 3084 
Q 2600 3084 3056 2656 
Q 3513 2228 3513 1497 
Q 3513 744 3044 326 
Q 2575 -91 1722 -91 
Q 1428 -91 1123 -41 
Q 819 9 494 109 
L 494 744 
Q 775 591 1075 516 
Q 1375 441 1709 441 
Q 2250 441 2565 725 
Q 2881 1009 2881 1497 
Q 2881 1984 2565 2268 
Q 2250 2553 1709 2553 
Q 1456 2553 1204 2497 
Q 953 2441 691 2322 
L 691 4666 
z
" transform="scale(0.015625)"/>
       </defs>
       <use xlink:href="#DejaVuSans-35"/>
       <use xlink:href="#DejaVuSans-30" x="63.623047"/>
       <use xlink:href="#DejaVuSans-30" x="127.246094"/>
       <use xlink:href="#DejaVuSans-30" x="190.869141"/>
       <use xlink:href="#DejaVuSans-30" x="254.492188"/>
      </g>
     </g>
    </g>
    <g id="xtick_7">
     <g id="line2d_7">
      <g>
       <use xlink:href="#m07ca8aa15f" x="388.014377" y="162.432" style="stroke: #000000; stroke-width: 0.8"/>
      </g>
     </g>
     <g id="text_7">
      <!-- 60000 -->
      <g transform="translate(372.108127 177.030437)scale(0.1 -0.1)">
       <defs>
        <path id="DejaVuSans-36" d="M 2113 2584 
Q 1688 2584 1439 2293 
Q 1191 2003 1191 1497 
Q 1191 994 1439 701 
Q 1688 409 2113 409 
Q 2538 409 2786 701 
Q 3034 994 3034 1497 
Q 3034 2003 2786 2293 
Q 2538 2584 2113 2584 
z
M 3366 4563 
L 3366 3988 
Q 3128 4100 2886 4159 
Q 2644 4219 2406 4219 
Q 1781 4219 1451 3797 
Q 1122 3375 1075 2522 
Q 1259 2794 1537 2939 
Q 1816 3084 2150 3084 
Q 2853 3084 3261 2657 
Q 3669 2231 3669 1497 
Q 3669 778 3244 343 
Q 2819 -91 2113 -91 
Q 1303 -91 875 529 
Q 447 1150 447 2328 
Q 447 3434 972 4092 
Q 1497 4750 2381 4750 
Q 2619 4750 2861 4703 
Q 3103 4656 3366 4563 
z
" transform="scale(0.015625)"/>
       </defs>
       <use xlink:href="#DejaVuSans-36"/>
       <use xlink:href="#DejaVuSans-30" x="63.623047"/>
       <use xlink:href="#DejaVuSans-30" x="127.246094"/>
       <use xlink:href="#DejaVuSans-30" x="190.869141"/>
       <use xlink:href="#DejaVuSans-30" x="254.492188"/>
      </g>
     </g>
    </g>
   </g>
   <g id="matplotlib.axis_2">
    <g id="ytick_1">
     <g id="line2d_8">
      <defs>
       <path id="mf6a4f96675" d="M 0 0 
L -3.5 0 
" style="stroke: #000000; stroke-width: 0.8"/>
      </defs>
      <g>
       <use xlink:href="#mf6a4f96675" x="57.6" y="160.093306" style="stroke: #000000; stroke-width: 0.8"/>
      </g>
     </g>
     <g id="text_8">
      <!-- −400 -->
      <g transform="translate(23.132812 163.892525)scale(0.1 -0.1)">
       <defs>
        <path id="DejaVuSans-2212" d="M 678 2272 
L 4684 2272 
L 4684 1741 
L 678 1741 
L 678 2272 
z
" transform="scale(0.015625)"/>
       </defs>
       <use xlink:href="#DejaVuSans-2212"/>
       <use xlink:href="#DejaVuSans-34" x="83.789062"/>
       <use xlink:href="#DejaVuSans-30" x="147.412109"/>
       <use xlink:href="#DejaVuSans-30" x="211.035156"/>
      </g>
     </g>
    </g>
    <g id="ytick_2">
     <g id="line2d_9">
      <g>
       <use xlink:href="#mf6a4f96675" x="57.6" y="137.506326" style="stroke: #000000; stroke-width: 0.8"/>
      </g>
     </g>
     <g id="text_9">
      <!-- −300 -->
      <g transform="translate(23.132812 141.305545)scale(0.1 -0.1)">
       <use xlink:href="#DejaVuSans-2212"/>
       <use xlink:href="#DejaVuSans-33" x="83.789062"/>
       <use xlink:href="#DejaVuSans-30" x="147.412109"/>
       <use xlink:href="#DejaVuSans-30" x="211.035156"/>
      </g>
     </g>
    </g>
    <g id="ytick_3">
     <g id="line2d_10">
      <g>
       <use xlink:href="#mf6a4f96675" x="57.6" y="114.919347" style="stroke: #000000; stroke-width: 0.8"/>
      </g>
     </g>
     <g id="text_10">
      <!-- −200 -->
      <g transform="translate(23.132812 118.718565)scale(0.1 -0.1)">
       <use xlink:href="#DejaVuSans-2212"/>
       <use xlink:href="#DejaVuSans-32" x="83.789062"/>
       <use xlink:href="#DejaVuSans-30" x="147.412109"/>
       <use xlink:href="#DejaVuSans-30" x="211.035156"/>
      </g>
     </g>
    </g>
    <g id="ytick_4">
     <g id="line2d_11">
      <g>
       <use xlink:href="#mf6a4f96675" x="57.6" y="92.332367" style="stroke: #000000; stroke-width: 0.8"/>
      </g>
     </g>
     <g id="text_11">
      <!-- −100 -->
      <g transform="translate(23.132812 96.131585)scale(0.1 -0.1)">
       <use xlink:href="#DejaVuSans-2212"/>
       <use xlink:href="#DejaVuSans-31" x="83.789062"/>
       <use xlink:href="#DejaVuSans-30" x="147.412109"/>
       <use xlink:href="#DejaVuSans-30" x="211.035156"/>
      </g>
     </g>
    </g>
    <g id="ytick_5">
     <g id="line2d_12">
      <g>
       <use xlink:href="#mf6a4f96675" x="57.6" y="69.745387" style="stroke: #000000; stroke-width: 0.8"/>
      </g>
     </g>
     <g id="text_12">
      <!-- 0 -->
      <g transform="translate(44.2375 73.544605)scale(0.1 -0.1)">
       <use xlink:href="#DejaVuSans-30"/>
      </g>
     </g>
    </g>
    <g id="ytick_6">
     <g id="line2d_13">
      <g>
       <use xlink:href="#mf6a4f96675" x="57.6" y="47.158407" style="stroke: #000000; stroke-width: 0.8"/>
      </g>
     </g>
     <g id="text_13">
      <!-- 100 -->
      <g transform="translate(31.5125 50.957625)scale(0.1 -0.1)">
       <use xlink:href="#DejaVuSans-31"/>
       <use xlink:href="#DejaVuSans-30" x="63.623047"/>
       <use xlink:href="#DejaVuSans-30" x="127.246094"/>
      </g>
     </g>
    </g>
   </g>
   <g id="line2d_14">
    <path d="M 73.832727 47.384276 
L 73.8432 47.308987 
L 73.879855 48.212466 
L 74.026476 49.774732 
L 74.036949 49.774732 
L 74.199279 52.202832 
L 74.209752 52.202832 
L 74.356372 53.953323 
L 74.387791 53.878033 
L 74.393027 53.802743 
L 74.434919 54.405063 
L 74.455865 54.405063 
L 74.602485 56.136731 
L 74.607722 56.136731 
L 74.775288 58.640121 
L 74.790997 58.564832 
L 74.958564 61.049399 
L 74.9638 60.974109 
L 75.016165 61.802299 
L 75.162785 63.4775 
L 75.173258 63.4775 
L 75.325115 65.303281 
L 75.346061 65.227991 
L 75.518864 68.107831 
L 75.5241 68.032541 
L 75.565992 68.71015 
L 75.586937 68.503103 
L 75.723085 69.726564 
L 75.728321 69.651274 
L 75.764977 70.479463 
L 75.785922 70.404174 
L 75.791159 70.404174 
L 75.963962 73.566351 
L 75.969198 73.491061 
L 75.99538 73.415771 
L 76.016326 74.31925 
L 76.17342 76.352078 
L 76.178656 76.352078 
L 76.461424 83.77943 
L 76.471897 83.77943 
L 76.79132 92.927157 
L 76.801793 92.927157 
L 77.110744 101.660789 
L 77.121217 101.660789 
L 77.325438 106.046428 
L 77.330675 106.014161 
L 77.356857 105.938871 
L 77.561078 110.141662 
L 77.566315 110.141662 
L 77.786246 114.922573 
L 77.791482 114.922573 
L 77.990467 118.811298 
L 77.995704 118.811298 
L 78.189452 122.77854 
L 78.194689 122.733366 
L 78.199925 122.733366 
L 78.330836 124.653259 
L 78.346546 124.476328 
L 78.362255 124.401038 
L 78.367491 124.325748 
L 78.414619 125.229227 
L 78.566476 127.254527 
L 78.582186 127.103947 
L 78.618841 127.886962 
L 78.639787 127.679915 
L 78.812589 130.37153 
L 78.817826 130.37153 
L 79.022047 134.606588 
L 79.027284 134.606588 
L 79.215796 137.956991 
L 79.236742 137.956991 
L 79.414781 140.874475 
L 79.420017 140.818008 
L 79.456673 141.43915 
L 79.461909 141.382682 
L 79.624239 144.582505 
L 79.645185 144.526037 
L 79.650421 144.46957 
L 79.687076 145.147179 
L 79.692313 145.147179 
L 79.823224 146.193709 
L 79.838933 146.193709 
L 79.964608 147.040721 
L 79.975081 147.040721 
L 80.100756 147.71833 
L 80.105992 147.71833 
L 80.231667 148.39594 
L 80.310214 148.305592 
L 80.31545 148.249124 
L 80.357342 148.926734 
L 80.362578 148.926734 
L 80.367814 148.926734 
L 80.472543 149.954441 
L 80.498726 149.822684 
L 80.530144 149.822684 
L 80.655819 150.613228 
L 80.687238 150.568054 
L 80.812913 151.245664 
L 80.96477 151.189196 
L 81.03808 151.415066 
L 81.079971 151.369892 
L 81.195173 151.369892 
L 81.310375 151.765164 
L 81.336557 151.689874 
L 81.341794 151.915744 
L 81.399395 151.915744 
L 81.441286 152.141614 
L 81.50936 152.039973 
L 81.703109 152.039973 
L 81.844493 153.395191 
L 81.933512 153.338724 
L 82.053951 153.790463 
L 82.127261 153.790463 
L 82.14297 154.016333 
L 82.237226 153.959866 
L 82.389083 153.959866 
L 82.504285 154.185736 
L 82.745162 154.185736 
L 82.860364 154.411605 
L 83.551575 154.411605 
L 83.666777 154.637475 
L 84.007146 154.637475 
L 84.122348 154.863345 
L 84.687884 154.806878 
L 84.803086 155.032747 
L 87.232798 155.032747 
L 87.348 155.258617 
L 92.359281 155.258617 
L 92.474482 155.484487 
L 110.199859 155.484487 
L 110.315061 155.710357 
L 135.559977 155.710357 
L 135.675179 155.936227 
L 147.933704 155.936227 
L 148.048906 156.162096 
L 164.014836 156.086806 
L 164.130038 156.312676 
L 199.130457 156.312676 
L 199.245659 156.538546 
L 205.801692 156.482079 
L 205.916894 156.707948 
L 365.57096 156.707948 
L 365.686162 156.933818 
L 398.487273 156.933818 
L 398.487273 156.933818 
" clip-path="url(#p571f128c10)" style="fill: none; stroke: #1f77b4; stroke-width: 1.5; stroke-linecap: square"/>
   </g>
   <g id="line2d_15">
    <path d="M 73.832727 47.158407 
L 73.848437 47.113233 
L 73.921747 47.858603 
L 73.963638 47.406863 
L 73.974111 47.406863 
L 74.089313 47.293929 
L 75.817341 47.293929 
L 75.963962 48.875017 
L 76.000617 48.875017 
L 76.115819 49.100887 
L 76.168183 49.100887 
L 76.367168 52.940674 
L 76.382877 52.940674 
L 76.628991 58.813288 
L 76.634227 58.813288 
L 76.796557 61.071986 
L 76.801793 61.071986 
L 77.021724 65.815252 
L 77.053143 65.815252 
L 77.215473 68.07395 
L 77.220709 68.07395 
L 77.398748 71.010257 
L 77.414458 71.010257 
L 77.650098 76.611829 
L 77.655334 76.498894 
L 77.671044 77.176503 
L 77.739118 77.010865 
L 77.754827 77.010865 
L 77.885738 79.021106 
L 77.906684 78.945816 
L 77.91192 78.870527 
L 77.948575 79.642248 
L 77.969521 79.435201 
L 78.105669 81.189456 
L 78.116142 81.044254 
L 78.126615 81.044254 
L 78.278472 82.82271 
L 78.283708 82.709775 
L 78.330836 83.556787 
L 78.346546 83.455146 
L 78.47222 84.603317 
L 78.482693 84.558143 
L 78.493166 84.482853 
L 78.639787 86.22958 
L 78.655496 86.00371 
L 78.686915 86.52321 
L 78.713097 86.52321 
L 78.844008 87.50198 
L 78.854481 87.445512 
L 78.964446 89.40305 
L 79.001102 89.290115 
L 79.011574 89.064246 
L 79.063939 90.242533 
L 79.090121 90.054308 
L 79.095358 90.054308 
L 79.210559 91.439643 
L 79.236742 91.383176 
L 79.241978 91.307886 
L 79.289106 92.02314 
L 79.367653 92.757217 
L 79.409544 92.504996 
L 79.440963 92.504996 
L 79.60853 95.008386 
L 79.619002 94.951918 
L 79.624239 94.876629 
L 79.639948 95.328368 
L 79.713258 95.140143 
L 79.744677 95.140143 
L 79.870352 95.987155 
L 79.875588 95.987155 
L 79.901771 96.213025 
L 79.985554 95.987155 
L 80.032682 95.930688 
L 80.15312 96.382427 
L 80.273558 96.382427 
L 80.409706 97.511776 
L 80.430652 97.511776 
L 80.55109 98.114096 
L 80.634873 98.114096 
L 80.755312 98.565835 
L 80.943824 98.565835 
L 81.064262 99.017575 
L 81.132336 99.017575 
L 81.247538 99.243445 
L 81.252774 99.243445 
L 81.367976 99.469314 
L 81.467469 99.469314 
L 81.58267 99.695184 
L 81.629798 99.695184 
L 81.750237 100.146924 
L 81.865439 100.146924 
L 81.980641 100.372794 
L 398.487273 100.372794 
L 398.487273 100.372794 
" clip-path="url(#p571f128c10)" style="fill: none; stroke: #ff7f0e; stroke-width: 1.5; stroke-linecap: square"/>
   </g>
   <g id="line2d_16">
    <path d="M 73.832727 47.384276 
L 73.8432 47.263813 
L 73.885092 48.046828 
L 73.890328 47.99036 
L 74.016003 48.716908 
L 74.026476 48.558799 
L 74.047422 49.462279 
L 74.09455 49.172412 
L 74.235934 50.828791 
L 74.246407 50.489986 
L 74.31448 51.901672 
L 74.324953 51.675803 
L 74.466337 53.595696 
L 74.471574 53.482761 
L 74.482047 53.294536 
L 74.539648 54.16037 
L 74.560594 54.047436 
L 74.691505 56.023796 
L 74.707214 55.797926 
L 74.743869 56.588471 
L 74.770051 56.588471 
L 74.906199 57.823226 
L 74.911436 57.823226 
L 75.042347 59.027865 
L 75.047583 58.952575 
L 75.063293 58.896107 
L 75.220386 60.910113 
L 75.27275 60.834823 
L 75.293696 61.399498 
L 75.419371 62.491202 
L 75.424607 62.415912 
L 75.429844 62.415912 
L 75.440317 62.190042 
L 75.482208 63.206456 
L 75.497918 63.074699 
L 75.623593 64.52403 
L 75.634065 64.44874 
L 75.644538 64.260515 
L 75.702139 64.919302 
L 75.707376 64.874128 
L 75.84876 66.571916 
L 75.738794 64.798838 
L 75.853996 66.526742 
L 75.859233 66.526742 
L 75.916834 66.191702 
L 75.953489 66.673557 
L 75.958725 66.598267 
L 76.052981 67.701265 
L 75.984907 66.334753 
L 76.089636 67.66362 
L 76.094873 67.550685 
L 76.147237 68.378874 
L 76.183892 67.983602 
L 76.189129 67.983602 
L 76.314804 68.796733 
L 76.325277 68.751559 
L 76.351459 69.383995 
L 76.367168 69.214593 
L 76.477134 70.310061 
L 76.498079 70.13313 
L 76.503316 70.13313 
L 76.613281 70.957555 
L 76.628991 70.855913 
L 76.655173 70.584869 
L 76.691828 71.10437 
L 76.723247 70.776859 
L 76.859394 72.48594 
L 76.869867 72.41065 
L 76.875104 72.354183 
L 76.906522 73.201195 
L 76.911759 73.144727 
L 76.979833 73.38189 
L 76.937941 73.050615 
L 77.016488 73.137198 
L 77.026961 73.035557 
L 77.095034 73.396948 
L 77.100271 73.396948 
L 77.241655 74.710758 
L 77.246891 74.597823 
L 77.27831 75.162497 
L 77.335911 75.036118 
L 77.435404 76.165467 
L 77.461586 75.90733 
L 77.466822 75.850862 
L 77.51395 76.35154 
L 77.519187 76.57741 
L 77.597733 76.0165 
L 77.613443 76.072968 
L 77.623916 76.0165 
L 77.629152 75.960033 
L 77.665807 76.705403 
L 77.671044 76.705403 
L 77.67628 76.705403 
L 77.796718 78.26014 
L 77.817664 78.026741 
L 77.822901 77.951452 
L 77.849083 78.779641 
L 77.864792 78.659177 
L 78.006176 80.123566 
L 78.011413 80.078392 
L 78.058541 80.560248 
L 78.189452 81.969783 
L 78.199925 81.924609 
L 78.210398 81.7665 
L 78.273235 82.406464 
L 78.278472 82.406464 
L 78.435565 84.458115 
L 78.456511 84.364003 
L 78.47222 84.1946 
L 78.529821 84.770568 
L 78.665969 86.325305 
L 78.671205 86.280132 
L 78.692151 86.167197 
L 78.734043 86.743165 
L 78.87019 88.806109 
L 78.8859 88.655529 
L 78.912082 88.580239 
L 78.927791 88.429659 
L 78.969683 89.069624 
L 78.980156 89.069624 
L 79.116303 90.857759 
L 79.126776 90.801292 
L 79.163431 90.605538 
L 79.179141 91.283148 
L 79.304816 92.103808 
L 79.310052 92.028518 
L 79.372889 92.612015 
L 79.498564 94.36627 
L 79.51951 94.234513 
L 79.529983 94.159223 
L 79.582347 93.858063 
L 79.603293 94.422738 
L 79.734204 95.552087 
L 79.744677 95.476797 
L 79.817987 95.71396 
L 79.833697 95.71396 
L 79.849406 95.71396 
L 79.969844 96.259812 
L 79.975081 96.259812 
L 79.985554 96.485682 
L 80.064101 96.233461 
L 80.090283 96.45933 
L 80.105992 96.45933 
L 80.221194 96.6852 
L 80.278795 96.640026 
L 80.341632 96.463095 
L 80.357342 96.914835 
L 80.367814 96.914835 
L 80.493489 97.584915 
L 80.530144 97.584915 
L 80.535381 97.810785 
L 80.64011 97.62256 
L 80.734366 97.566092 
L 80.854804 98.017832 
L 81.132336 97.916191 
L 81.142809 97.840901 
L 81.1847 98.29264 
L 81.221356 98.21735 
L 81.310375 98.160883 
L 81.425577 98.386753 
L 81.59838 98.285111 
L 81.713582 98.209821 
L 81.802601 98.209821 
L 81.881148 98.586271 
L 81.917803 98.529804 
L 82.383847 98.473336 
L 82.499049 98.398046 
L 83.462555 98.398046 
L 83.577757 98.623916 
L 84.007146 98.623916 
L 84.122348 98.849786 
L 85.007308 98.793318 
L 85.122509 99.019188 
L 89.547308 98.943898 
L 89.66251 98.868608 
L 104.455476 98.793318 
L 104.570678 98.718028 
L 138.963669 98.718028 
L 139.078871 98.943898 
L 163.459773 98.943898 
L 163.574975 98.718028 
L 280.19591 98.661561 
L 280.311112 98.887431 
L 398.487273 98.887431 
L 398.487273 98.887431 
" clip-path="url(#p571f128c10)" style="fill: none; stroke: #2ca02c; stroke-width: 1.5; stroke-linecap: square"/>
   </g>
   <g id="line2d_17">
    <path d="M 73.832727 47.113233 
L 73.974111 48.581386 
L 73.979348 48.581386 
L 74.115495 49.684384 
L 74.125968 49.684384 
L 74.288298 51.905437 
L 74.298771 51.830147 
L 74.450628 53.731218 
L 74.466337 53.542993 
L 74.497756 54.220602 
L 74.518702 54.145312 
L 74.644377 55.745224 
L 74.660086 55.669934 
L 74.681032 55.613466 
L 74.806707 57.251022 
L 74.827652 57.194555 
L 74.838125 57.149381 
L 74.848598 57.60112 
L 74.87478 57.544653 
L 75.010928 58.655179 
L 75.021401 58.655179 
L 75.178494 60.763298 
L 75.241332 60.669185 
L 75.188967 60.9327 
L 75.251805 60.895055 
L 75.398425 62.683191 
L 75.429844 62.570256 
L 75.440317 63.021996 
L 75.456026 63.021996 
L 75.560755 64.132522 
L 75.586937 64.076055 
L 75.592174 64.019587 
L 75.655011 64.508972 
L 75.665484 64.452504 
L 75.791159 65.333397 
L 75.869706 65.11882 
L 75.880178 65.57056 
L 75.890651 65.450096 
L 75.901124 65.450096 
L 76.032035 66.771434 
L 76.037272 66.714967 
L 76.068691 66.714967 
L 76.178656 68.40899 
L 76.215311 68.262175 
L 76.225784 68.262175 
L 76.361932 69.414111 
L 76.492843 69.180712 
L 76.519025 69.105422 
L 76.550444 69.003781 
L 76.57139 69.45552 
L 76.587099 69.45552 
L 76.628991 69.365172 
L 76.786084 71.537287 
L 76.79132 71.48082 
L 76.822739 72.158429 
L 76.854158 71.973969 
L 76.88034 71.928795 
L 77.006015 72.809687 
L 77.04267 72.708045 
L 77.047906 72.933915 
L 77.095034 72.843567 
L 77.225946 73.920213 
L 77.241655 73.875039 
L 77.362093 74.542969 
L 77.372566 74.467679 
L 77.424931 74.949534 
L 77.451113 74.855422 
L 77.472059 74.747865 
L 77.493004 75.154431 
L 77.498241 75.109257 
L 77.618679 75.583583 
L 77.644861 75.583583 
L 77.791482 77.296429 
L 77.801955 77.239962 
L 77.833374 77.691701 
L 77.854319 77.691701 
L 77.974758 78.97163 
L 77.990467 78.915163 
L 77.995704 78.915163 
L 78.142324 81.580426 
L 78.16327 81.548159 
L 78.205161 81.548159 
L 78.315127 83.362647 
L 78.351782 83.272299 
L 78.48793 83.272299 
L 78.498403 83.498168 
L 78.597895 83.441701 
L 78.613604 83.441701 
L 78.754988 84.79692 
L 78.786407 84.79692 
L 78.927791 86.152139 
L 78.938264 86.152139 
L 79.111067 88.862576 
L 79.163431 88.862576 
L 79.304816 90.217795 
L 79.315288 90.217795 
L 79.461909 91.798884 
L 79.477618 91.798884 
L 79.624239 93.379972 
L 79.639948 93.379972 
L 79.776096 94.509321 
L 79.812751 94.509321 
L 79.938426 95.186931 
L 79.975081 95.186931 
L 80.100756 95.86454 
L 80.367814 95.86454 
L 80.467307 96.542149 
L 80.488253 96.466859 
L 80.634873 96.466859 
L 80.755312 96.918599 
L 81.132336 96.918599 
L 81.258011 97.596208 
L 81.441286 97.596208 
L 81.556488 97.822078 
L 81.59838 97.822078 
L 81.718818 98.273818 
L 81.802601 98.273818 
L 81.928276 98.951427 
L 82.14297 98.951427 
L 82.258172 99.177297 
L 82.383847 99.177297 
L 82.499049 99.403167 
L 84.007146 99.403167 
L 84.122348 99.629037 
L 84.415589 99.629037 
L 84.530791 99.854906 
L 85.007308 99.854906 
L 85.122509 100.080776 
L 86.15409 100.080776 
L 86.269291 100.306646 
L 89.547308 100.306646 
L 89.66251 100.532516 
L 90.044771 100.532516 
L 90.159972 100.758386 
L 104.455476 100.758386 
L 104.570678 100.984255 
L 134.439378 100.984255 
L 134.554579 100.871321 
L 147.739956 100.796031 
L 147.855158 100.683096 
L 163.459773 100.607806 
L 163.574975 100.833676 
L 200.162038 100.833676 
L 200.277239 101.059545 
L 280.19591 101.059545 
L 280.311112 101.285415 
L 398.487273 101.285415 
L 398.487273 101.285415 
" clip-path="url(#p571f128c10)" style="fill: none; stroke: #d62728; stroke-width: 1.5; stroke-linecap: square"/>
   </g>
   <g id="line2d_18">
    <path d="M 73.832727 47.384276 
L 74.021239 50.907845 
L 74.031712 50.862671 
L 74.047422 51.540281 
L 74.057895 51.540281 
L 74.07884 51.495107 
L 74.277825 55.447828 
L 74.288298 55.447828 
L 74.529175 61.094573 
L 74.534411 61.094573 
L 74.749106 65.781372 
L 74.764815 65.781372 
L 74.984746 70.479463 
L 75.000455 70.479463 
L 75.183731 73.811043 
L 75.188967 73.811043 
L 75.377479 77.368492 
L 75.398425 77.368492 
L 75.571228 80.248332 
L 75.586937 80.191865 
L 75.764977 83.47827 
L 75.770213 83.433096 
L 75.791159 83.387923 
L 75.806868 84.065532 
L 75.885415 85.149707 
L 75.937779 84.957718 
L 75.948252 84.957718 
L 76.126292 88.018253 
L 76.136764 88.018253 
L 76.293858 90.186603 
L 76.304331 90.130136 
L 76.340986 90.762571 
L 76.513789 93.427835 
L 76.545207 93.382661 
L 76.712774 95.855935 
L 76.723247 95.855935 
L 76.88034 97.979112 
L 76.896049 97.979112 
L 77.053143 100.486266 
L 77.063616 100.441092 
L 77.074089 100.384625 
L 77.110744 100.791191 
L 77.121217 100.791191 
L 77.262601 102.281931 
L 77.267837 102.225464 
L 77.309729 102.903073 
L 77.435404 104.960102 
L 77.461586 104.833722 
L 77.487768 104.720787 
L 77.519187 105.353223 
L 77.524423 105.353223 
L 77.540133 105.296755 
L 77.723408 108.537987 
L 77.733881 108.537987 
L 77.890975 110.555757 
L 77.91192 110.510583 
L 78.110905 114.38425 
L 78.121378 114.351983 
L 78.137088 114.803723 
L 78.142324 114.803723 
L 78.283708 116.192822 
L 78.294181 116.192822 
L 78.446038 117.99978 
L 78.466984 117.905668 
L 78.503639 118.357408 
L 78.524585 118.30094 
L 78.686915 120.54458 
L 78.754988 120.488113 
L 78.760225 120.431645 
L 78.786407 121.109255 
L 78.938264 122.953858 
L 78.953974 122.953858 
L 79.147722 126.522601 
L 79.152959 126.522601 
L 79.315288 128.867882 
L 79.325761 128.867882 
L 79.498564 131.657374 
L 79.524746 131.600907 
L 79.540456 132.052646 
L 79.556165 132.052646 
L 79.702786 133.67138 
L 79.708022 133.67138 
L 79.82846 134.134413 
L 79.849406 134.134413 
L 79.865115 134.360283 
L 79.959372 134.303815 
L 79.996027 134.228525 
L 80.105992 134.172058 
L 80.221194 134.397928 
L 80.278795 134.352754 
L 80.31545 134.23229 
L 80.320686 134.45816 
L 80.367814 134.45816 
L 80.472543 134.808258 
L 80.483016 134.751791 
L 80.645346 134.695323 
L 80.734366 134.593682 
L 80.739602 134.819551 
L 80.744839 134.819551 
L 81.210883 134.774377 
L 81.310375 134.699088 
L 81.425577 134.924957 
L 81.59838 134.823316 
L 81.703109 134.748026 
L 81.813074 134.973896 
L 81.865439 134.898606 
L 81.870675 135.124476 
L 81.917803 135.068008 
L 82.383847 135.011541 
L 82.499049 134.936251 
L 84.007146 134.936251 
L 84.122348 135.162121 
L 86.15409 135.105653 
L 86.269291 135.030363 
L 90.044771 134.955073 
L 90.159972 134.879783 
L 200.162038 134.804493 
L 200.277239 134.748026 
L 398.487273 134.748026 
L 398.487273 134.748026 
" clip-path="url(#p571f128c10)" style="fill: none; stroke: #9467bd; stroke-width: 1.5; stroke-linecap: square"/>
   </g>
   <g id="line2d_19">
    <path d="M 73.832727 47.384276 
L 73.837964 47.384276 
L 73.984584 48.920191 
L 75.83305 48.863724 
L 75.895888 48.498567 
L 75.906361 48.950307 
L 75.92207 48.905133 
L 76.047745 49.752145 
L 76.183892 49.650503 
L 76.189129 49.594036 
L 76.236257 50.102243 
L 76.241493 50.057069 
L 76.382877 52.210361 
L 76.398587 52.10872 
L 76.414296 51.950611 
L 76.445715 52.722333 
L 76.450951 52.665865 
L 76.618518 55.3236 
L 76.628991 55.203136 
L 76.676119 56.004974 
L 76.686591 55.892039 
L 76.691828 55.892039 
L 76.827976 57.811932 
L 76.843685 57.691468 
L 76.848921 57.653823 
L 76.88034 58.218498 
L 76.885577 58.16203 
L 77.037434 59.980282 
L 77.047906 59.980282 
L 77.079325 59.927579 
L 77.199763 61.802299 
L 77.220709 61.757125 
L 77.36733 63.319391 
L 77.377803 63.187633 
L 77.409221 63.808775 
L 77.435404 63.677018 
L 77.566315 65.2694 
L 77.576788 65.167759 
L 77.582024 65.111291 
L 77.608206 66.01477 
L 77.623916 65.845368 
L 77.629152 65.845368 
L 77.791482 68.104066 
L 77.801955 68.047599 
L 77.807191 67.972309 
L 77.833374 68.593451 
L 77.864792 68.472987 
L 77.969521 69.331292 
L 77.990467 69.229651 
L 77.995704 69.229651 
L 78.16327 72.309009 
L 78.173743 72.177251 
L 78.184216 72.056788 
L 78.215634 72.689223 
L 78.220871 72.689223 
L 78.357018 74.16867 
L 78.362255 74.09338 
L 78.367491 74.09338 
L 78.508875 75.580356 
L 78.529821 75.523889 
L 78.671205 77.172739 
L 78.676442 77.116271 
L 78.692151 77.003336 
L 78.734043 77.635772 
L 78.880663 79.378734 
L 78.933028 79.171686 
L 78.95921 79.491668 
L 78.964446 79.491668 
L 79.095358 81.411562 
L 79.111067 81.185692 
L 79.126776 81.129225 
L 79.241978 82.371508 
L 79.257687 82.258574 
L 79.26816 82.183284 
L 79.320525 82.804426 
L 79.325761 82.804426 
L 79.472382 84.780786 
L 79.477618 84.667851 
L 79.488091 84.517272 
L 79.535219 85.288993 
L 79.550929 85.213703 
L 79.702786 87.114774 
L 79.723731 87.039484 
L 79.797042 87.660626 
L 79.84417 87.558985 
L 79.849406 87.558985 
L 79.969844 88.161304 
L 79.975081 88.161304 
L 80.090283 88.49258 
L 80.105992 88.49258 
L 80.221194 88.71845 
L 80.310214 88.628102 
L 80.341632 88.496344 
L 80.357342 88.948084 
L 80.367814 88.948084 
L 80.493489 89.731099 
L 80.530144 89.731099 
L 80.634873 89.956969 
L 80.64011 89.881679 
L 80.682001 89.825212 
L 80.807676 90.502821 
L 81.132336 90.40118 
L 81.142809 90.32589 
L 81.1847 90.777629 
L 81.216119 90.777629 
L 81.310375 90.721162 
L 81.425577 90.947032 
L 81.629798 90.901858 
L 81.745 90.732455 
L 81.802601 90.732455 
L 81.92304 91.184195 
L 83.462555 91.184195 
L 83.577757 91.410065 
L 84.007146 91.410065 
L 84.122348 91.635935 
L 85.007308 91.635935 
L 85.122509 91.861804 
L 138.963669 91.861804 
L 139.078871 92.087674 
L 280.19591 92.087674 
L 280.311112 92.313544 
L 398.487273 92.313544 
L 398.487273 92.313544 
" clip-path="url(#p571f128c10)" style="fill: none; stroke: #8c564b; stroke-width: 1.5; stroke-linecap: square"/>
   </g>
   <g id="line2d_20">
    <path d="M 73.832727 47.384276 
L 73.963638 48.811021 
L 73.968875 48.698086 
L 73.995057 48.622796 
L 74.010767 49.300405 
L 74.031712 49.142296 
L 74.183569 50.960548 
L 74.188806 50.904081 
L 74.220224 51.468755 
L 74.251643 51.318175 
L 74.393027 53.106311 
L 74.398264 53.031021 
L 74.408737 52.955732 
L 74.56583 55.252074 
L 74.571066 55.176785 
L 74.576303 55.101495 
L 74.628667 55.779104 
L 74.63914 55.590879 
L 74.80147 57.924867 
L 74.806707 57.924867 
L 74.953327 59.743119 
L 74.9638 59.554894 
L 75.042347 60.157214 
L 75.047583 60.081924 
L 75.05282 60.081924 
L 75.194204 61.606545 
L 75.19944 61.550077 
L 75.209913 62.001817 
L 75.257041 61.964172 
L 75.403662 63.545261 
L 75.414135 63.545261 
L 75.440317 63.469971 
L 75.565992 65.408686 
L 75.576464 65.333397 
L 75.586937 65.201639 
L 75.644538 65.822781 
L 75.764977 67.415163 
L 75.785922 67.249525 
L 75.791159 67.13659 
L 75.843523 68.190649 
L 75.963962 68.932255 
L 75.969198 68.856965 
L 75.984907 68.668741 
L 76.01109 69.57222 
L 76.147237 70.712862 
L 76.168183 70.486992 
L 76.225784 71.202247 
L 76.382877 73.551293 
L 76.388114 73.506119 
L 76.40906 73.261426 
L 76.450951 73.987974 
L 76.456188 73.987974 
L 76.592335 75.075914 
L 76.628991 74.684406 
L 76.660409 75.203907 
L 76.670882 75.203907 
L 76.812266 76.826405 
L 76.817503 76.781231 
L 76.827976 76.668296 
L 76.859394 77.300731 
L 76.901286 77.293202 
L 77.032197 78.972168 
L 77.04267 78.746298 
L 77.047906 78.633363 
L 77.126453 79.201802 
L 77.136926 79.043693 
L 77.184054 78.998519 
L 77.320202 80.861945 
L 77.330675 80.603808 
L 77.346384 80.528518 
L 77.362093 80.472051 
L 77.383039 81.07437 
L 77.519187 82.258036 
L 77.534896 82.201568 
L 77.540133 82.126278 
L 77.60297 82.589311 
L 77.618679 82.532844 
L 77.781009 84.99106 
L 77.791482 84.889419 
L 77.843847 85.239517 
L 78.006176 87.607385 
L 78.027122 87.38528 
L 78.042832 88.06289 
L 78.053304 87.91231 
L 78.189452 89.626769 
L 78.199925 89.581595 
L 78.257526 89.197616 
L 78.283708 89.875226 
L 78.294181 89.762291 
L 78.430329 90.929285 
L 78.435565 90.929285 
L 78.576949 92.258152 
L 78.63455 92.137688 
L 78.645023 92.589428 
L 78.660732 92.551783 
L 78.791644 93.635958 
L 78.823062 93.485378 
L 78.849245 94.388857 
L 78.854481 94.33239 
L 78.901609 94.200632 
L 78.917318 94.652372 
L 78.927791 94.652372 
L 79.084885 97.268697 
L 79.095358 97.193407 
L 79.105831 97.042827 
L 79.147722 97.675263 
L 79.152959 97.675263 
L 79.299579 99.23 
L 79.310052 99.15471 
L 79.435727 100.42711 
L 79.4462 100.325469 
L 79.461909 100.269001 
L 79.613766 102.113604 
L 79.634712 102.057137 
L 79.645185 101.944202 
L 79.687076 102.678279 
L 79.708022 102.678279 
L 79.82846 103.084845 
L 79.849406 103.084845 
L 79.865115 103.310714 
L 79.959372 103.254247 
L 79.996027 103.178957 
L 80.105992 103.12249 
L 80.221194 103.348359 
L 80.278795 103.303185 
L 80.31545 103.182722 
L 80.320686 103.408591 
L 80.367814 103.408591 
L 80.472543 103.75869 
L 80.483016 103.702222 
L 80.561563 103.645755 
L 80.687238 103.487646 
L 80.734366 103.487646 
L 80.849568 103.713516 
L 81.210883 103.668342 
L 81.310375 103.593052 
L 81.425577 103.818921 
L 81.59838 103.71728 
L 81.703109 103.64199 
L 81.813074 103.86786 
L 81.865439 103.79257 
L 81.870675 104.01844 
L 81.917803 103.961972 
L 82.383847 103.905505 
L 82.499049 103.830215 
L 84.007146 103.830215 
L 84.122348 104.056085 
L 86.15409 103.999617 
L 86.269291 103.924327 
L 90.044771 103.849037 
L 90.159972 103.773747 
L 200.162038 103.698458 
L 200.277239 103.64199 
L 398.487273 103.64199 
L 398.487273 103.64199 
" clip-path="url(#p571f128c10)" style="fill: none; stroke: #e377c2; stroke-width: 1.5; stroke-linecap: square"/>
   </g>
   <g id="line2d_21">
    <path d="M 73.832727 47.113233 
L 73.837964 47.037943 
L 73.885092 47.794607 
L 74.031712 49.770967 
L 74.036949 49.695677 
L 74.052658 49.56392 
L 74.09455 50.354464 
L 74.099786 50.297997 
L 74.246407 52.236713 
L 74.251643 52.161423 
L 74.262116 52.086133 
L 74.304008 52.763742 
L 74.31448 52.613162 
L 74.450628 54.551878 
L 74.461101 54.438943 
L 74.466337 54.363653 
L 74.508229 55.229487 
L 74.665323 57.356428 
L 74.681032 57.111736 
L 74.707214 58.015215 
L 74.717687 57.82699 
L 74.843362 59.426901 
L 74.864308 59.370434 
L 74.87478 59.370434 
L 74.885253 59.144564 
L 74.942854 60.255091 
L 74.953327 60.066866 
L 75.094711 61.572664 
L 75.105184 61.459729 
L 75.147076 62.156161 
L 75.152312 62.156161 
L 75.314642 64.433682 
L 75.319879 64.358392 
L 75.372243 65.073646 
L 75.382716 65.017179 
L 75.497918 66.202995 
L 75.513627 66.071238 
L 75.518864 65.958303 
L 75.581701 66.974717 
L 75.728321 68.668741 
L 75.733558 68.555806 
L 75.791159 69.703977 
L 75.84876 69.365172 
L 75.885415 69.628687 
L 75.984907 70.758036 
L 76.01109 70.54346 
L 76.016326 70.430525 
L 76.063454 71.428117 
L 76.068691 71.428117 
L 76.178656 72.632756 
L 76.199602 72.48594 
L 76.215311 72.316538 
L 76.267676 72.659107 
L 76.278149 72.613933 
L 76.40906 74.161141 
L 76.419533 74.115967 
L 76.424769 74.115967 
L 76.461424 74.082087 
L 76.55568 75.109794 
L 76.560917 75.109794 
L 76.655173 76.690883 
L 76.592335 74.996859 
L 76.697064 76.216556 
L 76.71801 76.160089 
L 76.869867 77.963283 
L 76.88034 77.861641 
L 76.932705 78.475254 
L 77.068852 80.086459 
L 77.074089 80.041285 
L 77.079325 79.965995 
L 77.13169 80.59843 
L 77.246891 81.114167 
L 77.194527 80.508083 
L 77.252128 81.057699 
L 77.27831 80.813007 
L 77.299256 81.445442 
L 77.320202 81.27604 
L 77.466822 82.936183 
L 77.472059 82.936183 
L 77.613443 84.30646 
L 77.623916 84.249992 
L 77.69199 84.016593 
L 77.707699 84.468333 
L 77.718172 84.423159 
L 77.870029 86.715738 
L 77.875265 86.65927 
L 77.896211 86.527513 
L 77.938103 87.016897 
L 77.943339 87.016897 
L 78.116142 89.712277 
L 78.126615 89.636987 
L 78.247053 91.24604 
L 78.267999 91.163221 
L 78.288945 91.06158 
L 78.304654 91.456852 
L 78.336073 91.279921 
L 78.466984 92.616317 
L 78.47222 92.55985 
L 78.477457 92.514676 
L 78.498403 93.192285 
L 78.519348 93.090644 
L 78.681678 95.353106 
L 78.697388 95.240171 
L 78.728806 95.646737 
L 78.744516 95.646737 
L 78.875427 96.742206 
L 78.880663 96.685738 
L 78.901609 97.363347 
L 78.938264 97.137478 
L 79.063939 98.240475 
L 79.069175 98.184008 
L 79.084885 98.184008 
L 79.205323 99.62581 
L 79.226269 99.494053 
L 79.231505 99.494053 
L 79.388599 101.538174 
L 79.414781 101.538174 
L 79.535219 103.043973 
L 79.556165 102.893393 
L 79.566638 102.836926 
L 79.598057 103.514535 
L 79.613766 103.439245 
L 79.624239 103.439245 
L 79.75515 105.227381 
L 79.770859 105.152091 
L 79.781332 105.076801 
L 79.880825 105.803349 
L 79.907007 105.728059 
L 79.922716 105.728059 
L 80.053628 106.631538 
L 80.200248 106.586364 
L 80.273558 106.511074 
L 80.284031 106.962814 
L 80.294504 106.962814 
L 80.420179 107.715713 
L 80.430652 107.715713 
L 80.55109 108.574019 
L 80.556327 108.498729 
L 80.561563 108.423439 
L 80.64011 108.875178 
L 80.645346 108.875178 
L 80.687238 109.326918 
L 80.760548 109.101048 
L 80.943824 109.025758 
L 81.059026 109.402208 
L 81.132336 109.402208 
L 81.247538 109.733483 
L 81.252774 109.733483 
L 81.299902 109.959353 
L 81.36274 109.733483 
L 81.441286 109.658194 
L 81.561725 110.109933 
L 81.59838 110.109933 
L 81.703109 110.561673 
L 81.713582 110.505205 
L 81.802601 110.505205 
L 81.92304 111.062351 
L 82.127261 110.987061 
L 82.14297 110.911771 
L 82.148207 111.137641 
L 82.226754 111.137641 
L 82.383847 111.137641 
L 82.499049 111.363511 
L 83.462555 111.288221 
L 83.577757 111.51409 
L 84.415589 111.51409 
L 84.530791 111.73996 
L 86.15409 111.66467 
L 86.248346 111.89054 
L 86.264055 111.81525 
L 89.547308 111.73996 
L 89.66251 111.96583 
L 90.044771 111.89054 
L 90.159972 112.11641 
L 104.455476 112.11641 
L 104.570678 112.34228 
L 134.439378 112.34228 
L 134.554579 112.568149 
L 147.739956 112.568149 
L 147.855158 112.794019 
L 161.799819 112.718729 
L 161.915021 112.944599 
L 166.758735 112.869309 
L 166.873937 112.794019 
L 200.162038 112.718729 
L 200.277239 112.944599 
L 280.19591 112.944599 
L 280.311112 113.170469 
L 398.487273 113.095179 
L 398.487273 113.095179 
" clip-path="url(#p571f128c10)" style="fill: none; stroke: #7f7f7f; stroke-width: 1.5; stroke-linecap: square"/>
   </g>
   <g id="line2d_22">
    <path d="M 73.832727 47.113233 
L 73.995057 50.083421 
L 74.00553 49.970486 
L 74.052658 49.887667 
L 74.073604 50.294232 
L 74.07884 50.294232 
L 74.251643 53.249362 
L 74.272589 53.098782 
L 74.319717 53.851682 
L 74.497756 56.769167 
L 74.502993 56.693877 
L 74.550121 57.484421 
L 74.722923 60.251326 
L 74.72816 60.194859 
L 74.764815 60.816001 
L 74.775288 60.703066 
L 74.9638 64.045939 
L 74.974273 64.045939 
L 75.173258 67.866903 
L 75.183731 67.735145 
L 75.236095 68.52569 
L 75.241332 68.412755 
L 75.398425 71.217305 
L 75.414135 71.160837 
L 75.419371 71.10437 
L 75.461263 71.819624 
L 75.466499 71.819624 
L 75.618356 73.701873 
L 75.623593 73.701873 
L 75.791159 76.276788 
L 75.817341 76.107386 
L 75.838287 76.559126 
L 75.859233 76.513952 
L 76.005853 78.426316 
L 76.01109 78.381142 
L 76.016326 78.381142 
L 76.052981 78.260678 
L 76.178656 80.669956 
L 76.210075 80.410206 
L 76.231021 81.031348 
L 76.278149 80.67372 
L 76.351459 80.572079 
L 76.40906 81.61108 
L 76.424769 81.464265 
L 76.450951 82.051526 
L 76.456188 81.976236 
L 76.519025 82.589849 
L 76.566153 82.077878 
L 76.576626 81.94612 
L 76.628991 82.510795 
L 76.634227 82.454327 
L 76.749429 83.425567 
L 76.759902 83.350278 
L 76.775611 83.229814 
L 76.822739 83.975184 
L 76.833212 83.884836 
L 76.838448 83.828369 
L 76.875104 84.310224 
L 76.916995 84.15588 
L 76.922232 84.15588 
L 77.047906 85.401928 
L 77.058379 85.345461 
L 77.084562 85.255113 
L 77.11598 84.908779 
L 77.152635 85.496041 
L 77.173581 85.375577 
L 77.314965 87.461108 
L 77.330675 87.372373 
L 77.341147 87.327199 
L 77.466822 88.962604 
L 77.482532 88.785673 
L 77.487768 88.785673 
L 77.582024 89.738091 
L 77.618679 89.70421 
L 77.639625 89.602569 
L 77.650098 89.500927 
L 77.681517 90.347939 
L 77.686753 90.347939 
L 77.807191 91.699393 
L 77.822901 91.578929 
L 77.833374 91.420821 
L 77.880502 92.730865 
L 77.91192 92.535112 
L 77.932866 93.438591 
L 78.069014 95.16273 
L 78.079487 95.08744 
L 78.08996 94.997092 
L 78.105669 95.674702 
L 78.257526 97.676876 
L 78.262762 97.631702 
L 78.283708 98.264138 
L 78.288945 98.20767 
L 78.430329 99.811346 
L 78.435565 99.698411 
L 78.493166 100.41743 
L 78.514112 100.315788 
L 78.671205 102.371204 
L 78.676442 102.371204 
L 78.744516 102.307207 
L 78.802117 103.097751 
L 78.817826 103.097751 
L 78.854481 102.826708 
L 78.896373 103.628545 
L 79.074412 106.952596 
L 79.079648 106.896129 
L 79.084885 106.896129 
L 79.252451 109.508689 
L 79.257687 109.508689 
L 79.399072 111.507637 
L 79.409544 111.432347 
L 79.414781 111.357057 
L 79.467145 112.140072 
L 79.472382 112.140072 
L 79.634712 114.54935 
L 79.639948 114.54935 
L 79.692313 115.565764 
L 79.765623 115.283427 
L 79.797042 115.283427 
L 79.812751 115.509297 
L 79.865115 115.200608 
L 79.907007 115.351188 
L 79.985554 115.275898 
L 80.058864 115.953508 
L 80.105992 115.833044 
L 80.231667 115.569529 
L 80.273558 115.569529 
L 80.341632 116.473008 
L 80.399233 116.303606 
L 80.40447 116.303606 
L 80.430652 116.190671 
L 80.435888 116.416541 
L 80.514435 116.296077 
L 80.535381 116.220787 
L 80.650583 116.973686 
L 80.661056 116.860751 
L 80.687238 116.815577 
L 80.734366 116.589707 
L 80.80244 116.702642 
L 80.943824 116.627352 
L 81.059026 117.003802 
L 81.132336 117.003802 
L 81.247538 117.335078 
L 81.252774 117.335078 
L 81.336557 117.711527 
L 81.367976 117.560948 
L 81.441286 117.485658 
L 81.561725 117.937397 
L 81.59838 117.937397 
L 81.708345 118.615007 
L 81.718818 118.502072 
L 81.813074 118.276202 
L 81.828784 118.502072 
L 81.865439 118.426782 
L 81.881148 118.381608 
L 81.886384 118.607478 
L 81.964931 118.494543 
L 82.127261 118.419253 
L 82.14297 118.343963 
L 82.148207 118.569833 
L 82.226754 118.569833 
L 82.383847 118.569833 
L 82.389083 118.795703 
L 82.493812 118.682768 
L 83.551575 118.607478 
L 83.666777 118.494543 
L 84.415589 118.419253 
L 84.530791 118.645123 
L 86.15409 118.569833 
L 86.248346 118.795703 
L 86.264055 118.720413 
L 89.547308 118.645123 
L 89.66251 118.870992 
L 90.044771 118.795703 
L 90.159972 119.021572 
L 92.359281 119.021572 
L 92.474482 118.908637 
L 104.455476 118.908637 
L 104.570678 119.134507 
L 110.199859 119.134507 
L 110.315061 119.021572 
L 134.439378 119.021572 
L 134.554579 118.908637 
L 135.559977 118.908637 
L 135.675179 118.795703 
L 147.739956 118.720413 
L 147.855158 118.607478 
L 161.799819 118.532188 
L 161.915021 118.456898 
L 163.459773 118.456898 
L 163.574975 118.682768 
L 166.758735 118.607478 
L 166.873937 118.532188 
L 200.162038 118.456898 
L 200.277239 118.682768 
L 205.801692 118.682768 
L 205.916894 118.569833 
L 398.487273 118.494543 
L 398.487273 118.494543 
" clip-path="url(#p571f128c10)" style="fill: none; stroke: #bcbd22; stroke-width: 1.5; stroke-linecap: square"/>
   </g>
   <g id="line2d_23">
    <path d="M 73.832727 47.113233 
L 73.837964 47.113233 
L 73.984584 48.784669 
L 73.989821 48.784669 
L 74.105023 49.473572 
L 74.047422 48.739495 
L 74.110259 49.360637 
L 74.115495 49.247702 
L 74.173096 50.264116 
L 74.178333 50.188826 
L 74.324953 52.071075 
L 74.33019 51.995785 
L 74.340663 51.845205 
L 74.377318 52.842797 
L 74.424446 52.748684 
L 74.523938 54.423885 
L 74.544884 54.198015 
L 74.576303 54.743867 
L 74.597249 54.61211 
L 74.733396 56.456713 
L 74.743869 56.287311 
L 74.749106 56.287311 
L 74.895726 58.169559 
L 74.900963 58.094269 
L 74.921908 57.924867 
L 74.979509 58.583654 
L 74.995219 58.357784 
L 75.131366 59.618891 
L 75.141839 59.430666 
L 75.19944 60.37179 
L 75.209913 60.183565 
L 75.36177 62.103458 
L 75.382716 61.990523 
L 75.424607 62.442263 
L 75.429844 62.442263 
L 75.497918 63.17634 
L 75.550282 63.044583 
L 75.555519 62.988115 
L 75.586937 63.835127 
L 75.592174 63.778659 
L 75.738794 65.472683 
L 75.744031 65.397393 
L 75.791159 66.319695 
L 75.84876 65.98089 
L 75.885415 66.244405 
L 75.984907 67.667384 
L 76.021563 67.565743 
L 76.026799 67.490453 
L 76.073927 68.179356 
L 76.178656 69.082835 
L 76.199602 68.93602 
L 76.215311 68.766617 
L 76.267676 69.109187 
L 76.278149 69.064013 
L 76.430006 70.942497 
L 76.461424 70.682746 
L 76.503316 71.183424 
L 76.550444 70.791917 
L 76.655173 71.921266 
L 76.592335 70.754272 
L 76.676119 71.672809 
L 76.697064 71.446939 
L 76.73372 72.011614 
L 76.744192 71.955146 
L 76.864631 72.986618 
L 76.875104 72.873683 
L 76.916995 72.493469 
L 76.937941 73.171079 
L 76.95365 73.114611 
L 77.084562 74.390775 
L 77.089798 74.334308 
L 77.095034 74.289134 
L 77.13169 74.684406 
L 77.163108 75.090972 
L 77.225946 74.673113 
L 77.246891 75.023211 
L 77.27831 74.722051 
L 77.299256 75.354487 
L 77.325438 75.185084 
L 77.466822 76.619358 
L 77.472059 76.619358 
L 77.566315 77.722355 
L 77.597733 77.519072 
L 77.60297 77.462605 
L 77.655334 78.09504 
L 77.671044 77.906815 
L 77.67628 77.906815 
L 77.723408 77.823996 
L 77.812428 79.201802 
L 77.833374 79.100161 
L 77.870029 79.732596 
L 77.896211 79.469081 
L 78.027122 80.760304 
L 78.032359 80.703836 
L 78.042832 80.553257 
L 78.095196 81.15934 
L 78.257526 83.551409 
L 78.288945 83.291659 
L 78.304654 83.686931 
L 78.346546 83.622935 
L 78.466984 84.488769 
L 78.47222 84.432301 
L 78.477457 84.387127 
L 78.498403 85.064737 
L 78.519348 84.963095 
L 78.681678 87.225558 
L 78.697388 87.112623 
L 78.739279 87.745058 
L 78.744516 87.669769 
L 78.875427 88.689947 
L 78.880663 88.63348 
L 78.901609 89.311089 
L 78.938264 88.972284 
L 79.063939 90.451732 
L 79.079648 90.338797 
L 79.084885 90.338797 
L 79.205323 91.648842 
L 79.221032 91.460617 
L 79.231505 91.460617 
L 79.341471 92.909948 
L 79.262924 91.422972 
L 79.367653 92.740546 
L 79.378126 92.695372 
L 79.524746 94.35175 
L 79.529983 94.27646 
L 79.577111 94.784667 
L 79.59282 94.784667 
L 79.728968 96.064596 
L 79.734204 96.064596 
L 79.812751 96.761028 
L 79.854643 96.527629 
L 79.865115 96.452339 
L 79.99079 97.280529 
L 79.996027 97.280529 
L 80.058864 97.732268 
L 80.111229 97.611804 
L 80.142647 97.611804 
L 80.257849 97.423579 
L 80.273558 97.423579 
L 80.31545 98.327059 
L 80.399233 98.082366 
L 80.40447 98.082366 
L 80.414943 97.969431 
L 80.47778 98.601867 
L 80.488253 98.601867 
L 80.608691 99.128896 
L 80.634873 99.128896 
L 80.755312 99.693571 
L 80.943824 99.618281 
L 81.059026 99.994731 
L 81.132336 99.994731 
L 81.258011 100.777746 
L 81.310375 100.702456 
L 81.336557 100.928326 
L 81.420341 100.702456 
L 81.441286 100.702456 
L 81.561725 101.154196 
L 81.59838 101.154196 
L 81.703109 101.605935 
L 81.713582 101.436533 
L 81.718818 101.436533 
L 81.802601 101.210663 
L 81.818311 101.662403 
L 81.865439 101.587113 
L 81.881148 101.541939 
L 81.886384 101.767809 
L 81.964931 101.654874 
L 82.127261 101.579584 
L 82.14297 101.504294 
L 82.148207 101.730164 
L 82.226754 101.730164 
L 82.383847 101.730164 
L 82.389083 101.956033 
L 82.493812 101.843098 
L 83.462555 101.767809 
L 83.551575 101.993678 
L 83.572521 101.880743 
L 84.415589 101.880743 
L 84.530791 102.106613 
L 85.007308 102.031323 
L 85.122509 102.257193 
L 86.15409 102.257193 
L 86.248346 102.483063 
L 86.264055 102.407773 
L 89.547308 102.332483 
L 89.66251 102.558353 
L 90.044771 102.483063 
L 90.159972 102.708933 
L 92.359281 102.708933 
L 92.474482 102.595998 
L 104.455476 102.595998 
L 104.570678 102.821868 
L 110.199859 102.821868 
L 110.315061 102.708933 
L 134.439378 102.708933 
L 134.554579 102.934803 
L 135.559977 102.934803 
L 135.675179 102.821868 
L 147.739956 102.821868 
L 147.855158 103.047737 
L 161.799819 102.972447 
L 161.915021 103.198317 
L 163.459773 103.198317 
L 163.574975 103.424187 
L 166.758735 103.348897 
L 166.873937 103.273607 
L 200.162038 103.198317 
L 200.277239 103.424187 
L 205.801692 103.424187 
L 205.916894 103.311252 
L 280.19591 103.311252 
L 280.311112 103.537122 
L 398.487273 103.461832 
L 398.487273 103.461832 
" clip-path="url(#p571f128c10)" style="fill: none; stroke: #17becf; stroke-width: 1.5; stroke-linecap: square"/>
   </g>
   <g id="line2d_24">
    <path d="M 73.832727 47.113233 
L 73.848437 47.011591 
L 73.85891 47.237461 
L 73.911274 46.970182 
L 73.958402 46.970182 
L 75.817341 46.970182 
L 75.92207 48.438336 
L 75.958725 48.306578 
L 76.000617 48.306578 
L 76.005853 48.532448 
L 76.110582 48.430807 
L 76.168183 48.430807 
L 76.346222 51.483813 
L 76.361932 51.370878 
L 76.398587 51.95814 
L 76.534734 54.326008 
L 76.560917 54.318479 
L 76.57139 54.216838 
L 76.597572 54.894447 
L 76.602808 54.83798 
L 76.749429 56.644938 
L 76.775611 56.449184 
L 76.812266 57.126794 
L 76.827976 57.036446 
L 76.995542 59.622655 
L 77.000778 59.547365 
L 77.058379 60.021692 
L 77.189291 61.169863 
L 77.194527 61.113396 
L 77.210236 61.113396 
L 77.356857 62.733743 
L 77.36733 62.620808 
L 77.424931 63.592048 
L 77.44064 63.554403 
L 77.582024 65.905062 
L 77.597733 65.803421 
L 77.608206 65.690486 
L 77.639625 66.322921 
L 77.655334 66.108345 
L 77.807191 68.092235 
L 77.812428 68.047061 
L 77.859556 68.566561 
L 77.864792 68.566561 
L 77.870029 68.453626 
L 77.92763 69.387222 
L 78.079487 71.149006 
L 78.08996 71.058658 
L 78.105669 71.736268 
L 78.126615 71.591066 
L 78.288945 73.930431 
L 78.299417 73.873964 
L 78.446038 75.439994 
L 78.456511 75.345882 
L 78.47222 75.797622 
L 78.48793 75.707274 
L 78.613604 76.990967 
L 78.624077 76.945793 
L 78.645023 76.870503 
L 78.655496 76.719923 
L 78.686915 77.578229 
L 78.713097 77.521761 
L 78.754988 77.333536 
L 78.838772 78.406418 
L 78.854481 78.34995 
L 78.8859 78.850628 
L 78.901609 78.850628 
L 79.053466 80.725348 
L 79.095358 80.59359 
L 79.111067 81.2712 
L 79.116303 81.2712 
L 79.262924 82.904991 
L 79.273397 82.867346 
L 79.28387 82.792056 
L 79.341471 83.300264 
L 79.351944 83.243796 
L 79.488091 84.74583 
L 79.493328 84.689363 
L 79.498564 84.689363 
L 79.639948 86.063404 
L 79.645185 86.006937 
L 79.687076 86.722191 
L 79.708022 86.665724 
L 79.833697 87.362155 
L 79.859879 87.316981 
L 79.875588 87.241692 
L 79.880825 87.467561 
L 79.964608 87.354626 
L 80.032682 87.279336 
L 80.085046 87.731076 
L 80.147884 87.580496 
L 80.273558 87.580496 
L 80.40447 88.502798 
L 80.430652 88.502798 
L 80.451598 88.728668 
L 80.535381 88.457624 
L 80.540617 88.457624 
L 80.634873 88.457624 
L 80.682001 88.909364 
L 80.750075 88.63832 
L 80.943824 88.63832 
L 81.064262 89.090059 
L 81.132336 89.090059 
L 81.142809 89.315929 
L 81.242301 89.15782 
L 81.252774 89.15782 
L 81.310375 89.38369 
L 81.36274 89.3084 
L 81.467469 89.3084 
L 81.58267 89.53427 
L 81.629798 89.53427 
L 81.750237 89.98601 
L 81.802601 89.98601 
L 81.917803 89.827901 
L 83.462555 89.827901 
L 83.577757 89.714966 
L 85.007308 89.639676 
L 85.122509 89.526741 
L 280.19591 89.451451 
L 280.311112 89.338516 
L 398.487273 89.338516 
L 398.487273 89.338516 
" clip-path="url(#p571f128c10)" style="fill: none; stroke: #1f77b4; stroke-width: 1.5; stroke-linecap: square"/>
   </g>
   <g id="line2d_25">
    <path d="M 73.832727 47.158407 
L 73.837964 47.158407 
L 73.958402 47.632733 
L 73.974111 47.632733 
L 74.099786 48.310343 
L 74.827652 48.310343 
L 74.942854 48.536212 
L 75.702139 48.536212 
L 75.827814 49.213822 
L 75.84876 49.213822 
L 76.000617 51.02078 
L 76.042508 51.02078 
L 76.162947 51.47252 
L 76.183892 51.47252 
L 76.361932 54.408827 
L 76.372405 54.408827 
L 76.529498 56.441655 
L 76.534734 56.441655 
L 76.73372 60.281442 
L 76.765138 60.281442 
L 76.927468 62.54014 
L 76.95365 62.54014 
L 77.121217 65.024708 
L 77.126453 65.024708 
L 77.27831 66.831666 
L 77.283547 66.831666 
L 77.424931 68.186885 
L 77.435404 68.186885 
L 77.613443 71.123192 
L 77.629152 71.123192 
L 77.817664 74.511239 
L 77.828137 74.511239 
L 77.969521 75.866458 
L 77.979994 75.866458 
L 78.131851 77.673417 
L 78.137088 77.673417 
L 78.3256 81.061464 
L 78.330836 81.061464 
L 78.498403 83.546031 
L 78.503639 83.546031 
L 78.660732 85.57886 
L 78.665969 85.57886 
L 78.823062 87.592865 
L 78.849245 87.517575 
L 78.859717 87.969315 
L 78.917318 87.773561 
L 79.058702 89.12878 
L 79.074412 89.12878 
L 79.215796 90.596934 
L 79.247215 90.596934 
L 79.388599 92.102732 
L 79.399072 92.102732 
L 79.535219 93.326194 
L 79.550929 93.326194 
L 79.723731 96.017809 
L 79.734204 96.017809 
L 79.870352 97.214919 
L 79.880825 97.139629 
L 80.001263 97.629013 
L 80.058864 97.553723 
L 80.179302 98.156043 
L 80.200248 98.156043 
L 80.310214 98.381913 
L 80.341632 98.325445 
L 80.378287 98.720717 
L 80.38876 98.720717 
L 80.451598 99.323037 
L 80.509199 99.202573 
L 80.530144 99.202573 
L 80.655819 99.974295 
L 80.687238 99.974295 
L 80.734366 100.651904 
L 80.807676 100.538969 
L 80.812913 100.538969 
L 80.928114 100.764839 
L 80.96477 100.708372 
L 81.079971 100.934241 
L 81.142809 100.858952 
L 81.195173 100.700843 
L 81.20041 100.926712 
L 81.242301 100.926712 
L 81.299902 100.870245 
L 81.425577 101.698434 
L 81.629798 101.698434 
L 81.708345 101.529032 
L 81.724055 101.980772 
L 81.729291 101.980772 
L 81.844493 102.319576 
L 81.933512 102.274402 
L 82.053951 102.726142 
L 82.127261 102.726142 
L 82.242463 102.952012 
L 82.389083 102.952012 
L 82.504285 103.177881 
L 82.745162 103.177881 
L 82.860364 103.403751 
L 83.462555 103.403751 
L 83.551575 103.290816 
L 83.556811 103.516686 
L 83.567284 103.516686 
L 84.687884 103.441396 
L 84.803086 103.667266 
L 85.007308 103.667266 
L 85.122509 103.554331 
L 86.248346 103.554331 
L 86.363548 103.780201 
L 87.232798 103.780201 
L 87.348 104.006071 
L 89.966224 104.006071 
L 90.081426 104.231941 
L 92.359281 104.231941 
L 92.474482 104.45781 
L 110.199859 104.45781 
L 110.315061 104.68368 
L 135.559977 104.68368 
L 135.675179 104.90955 
L 147.933704 104.90955 
L 148.048906 105.13542 
L 164.014836 105.13542 
L 164.130038 105.36129 
L 166.758735 105.36129 
L 166.873937 105.587159 
L 199.130457 105.587159 
L 199.245659 105.813029 
L 205.801692 105.813029 
L 205.916894 106.038899 
L 280.19591 106.038899 
L 280.311112 105.925964 
L 365.57096 105.925964 
L 365.686162 106.151834 
L 398.487273 106.151834 
L 398.487273 106.151834 
" clip-path="url(#p571f128c10)" style="fill: none; stroke: #ff7f0e; stroke-width: 1.5; stroke-linecap: square"/>
   </g>
   <g id="patch_3">
    <path d="M 57.6 162.432 
L 57.6 41.472 
" style="fill: none; stroke: #000000; stroke-width: 0.8; stroke-linejoin: miter; stroke-linecap: square"/>
   </g>
   <g id="patch_4">
    <path d="M 414.72 162.432 
L 414.72 41.472 
" style="fill: none; stroke: #000000; stroke-width: 0.8; stroke-linejoin: miter; stroke-linecap: square"/>
   </g>
   <g id="patch_5">
    <path d="M 57.6 162.432 
L 414.72 162.432 
" style="fill: none; stroke: #000000; stroke-width: 0.8; stroke-linejoin: miter; stroke-linecap: square"/>
   </g>
   <g id="patch_6">
    <path d="M 57.6 41.472 
L 414.72 41.472 
" style="fill: none; stroke: #000000; stroke-width: 0.8; stroke-linejoin: miter; stroke-linecap: square"/>
   </g>
   <g id="text_14">
    <!-- WSP -->
    <g transform="translate(361.832136 156.933818)scale(0.08 -0.08)">
     <defs>
      <path id="DejaVuSans-57" d="M 213 4666 
L 850 4666 
L 1831 722 
L 2809 4666 
L 3519 4666 
L 4500 722 
L 5478 4666 
L 6119 4666 
L 4947 0 
L 4153 0 
L 3169 4050 
L 2175 0 
L 1381 0 
L 213 4666 
z
" transform="scale(0.015625)"/>
      <path id="DejaVuSans-53" d="M 3425 4513 
L 3425 3897 
Q 3066 4069 2747 4153 
Q 2428 4238 2131 4238 
Q 1616 4238 1336 4038 
Q 1056 3838 1056 3469 
Q 1056 3159 1242 3001 
Q 1428 2844 1947 2747 
L 2328 2669 
Q 3034 2534 3370 2195 
Q 3706 1856 3706 1288 
Q 3706 609 3251 259 
Q 2797 -91 1919 -91 
Q 1588 -91 1214 -16 
Q 841 59 441 206 
L 441 856 
Q 825 641 1194 531 
Q 1563 422 1919 422 
Q 2459 422 2753 634 
Q 3047 847 3047 1241 
Q 3047 1584 2836 1778 
Q 2625 1972 2144 2069 
L 1759 2144 
Q 1053 2284 737 2584 
Q 422 2884 422 3419 
Q 422 4038 858 4394 
Q 1294 4750 2059 4750 
Q 2388 4750 2728 4690 
Q 3069 4631 3425 4513 
z
" transform="scale(0.015625)"/>
      <path id="DejaVuSans-50" d="M 1259 4147 
L 1259 2394 
L 2053 2394 
Q 2494 2394 2734 2622 
Q 2975 2850 2975 3272 
Q 2975 3691 2734 3919 
Q 2494 4147 2053 4147 
L 1259 4147 
z
M 628 4666 
L 2053 4666 
Q 2838 4666 3239 4311 
Q 3641 3956 3641 3272 
Q 3641 2581 3239 2228 
Q 2838 1875 2053 1875 
L 1259 1875 
L 1259 0 
L 628 0 
L 628 4666 
z
" transform="scale(0.015625)"/>
     </defs>
     <use xlink:href="#DejaVuSans-57"/>
     <use xlink:href="#DejaVuSans-53" x="98.876953"/>
     <use xlink:href="#DejaVuSans-50" x="162.353516"/>
    </g>
   </g>
   <g id="text_15">
    <!-- Iambic -->
    <g transform="translate(361.832136 100.372794)scale(0.08 -0.08)">
     <defs>
      <path id="DejaVuSans-49" d="M 628 4666 
L 1259 4666 
L 1259 0 
L 628 0 
L 628 4666 
z
" transform="scale(0.015625)"/>
      <path id="DejaVuSans-61" d="M 2194 1759 
Q 1497 1759 1228 1600 
Q 959 1441 959 1056 
Q 959 750 1161 570 
Q 1363 391 1709 391 
Q 2188 391 2477 730 
Q 2766 1069 2766 1631 
L 2766 1759 
L 2194 1759 
z
M 3341 1997 
L 3341 0 
L 2766 0 
L 2766 531 
Q 2569 213 2275 61 
Q 1981 -91 1556 -91 
Q 1019 -91 701 211 
Q 384 513 384 1019 
Q 384 1609 779 1909 
Q 1175 2209 1959 2209 
L 2766 2209 
L 2766 2266 
Q 2766 2663 2505 2880 
Q 2244 3097 1772 3097 
Q 1472 3097 1187 3025 
Q 903 2953 641 2809 
L 641 3341 
Q 956 3463 1253 3523 
Q 1550 3584 1831 3584 
Q 2591 3584 2966 3190 
Q 3341 2797 3341 1997 
z
" transform="scale(0.015625)"/>
      <path id="DejaVuSans-6d" d="M 3328 2828 
Q 3544 3216 3844 3400 
Q 4144 3584 4550 3584 
Q 5097 3584 5394 3201 
Q 5691 2819 5691 2113 
L 5691 0 
L 5113 0 
L 5113 2094 
Q 5113 2597 4934 2840 
Q 4756 3084 4391 3084 
Q 3944 3084 3684 2787 
Q 3425 2491 3425 1978 
L 3425 0 
L 2847 0 
L 2847 2094 
Q 2847 2600 2669 2842 
Q 2491 3084 2119 3084 
Q 1678 3084 1418 2786 
Q 1159 2488 1159 1978 
L 1159 0 
L 581 0 
L 581 3500 
L 1159 3500 
L 1159 2956 
Q 1356 3278 1631 3431 
Q 1906 3584 2284 3584 
Q 2666 3584 2933 3390 
Q 3200 3197 3328 2828 
z
" transform="scale(0.015625)"/>
      <path id="DejaVuSans-62" d="M 3116 1747 
Q 3116 2381 2855 2742 
Q 2594 3103 2138 3103 
Q 1681 3103 1420 2742 
Q 1159 2381 1159 1747 
Q 1159 1113 1420 752 
Q 1681 391 2138 391 
Q 2594 391 2855 752 
Q 3116 1113 3116 1747 
z
M 1159 2969 
Q 1341 3281 1617 3432 
Q 1894 3584 2278 3584 
Q 2916 3584 3314 3078 
Q 3713 2572 3713 1747 
Q 3713 922 3314 415 
Q 2916 -91 2278 -91 
Q 1894 -91 1617 61 
Q 1341 213 1159 525 
L 1159 0 
L 581 0 
L 581 4863 
L 1159 4863 
L 1159 2969 
z
" transform="scale(0.015625)"/>
      <path id="DejaVuSans-69" d="M 603 3500 
L 1178 3500 
L 1178 0 
L 603 0 
L 603 3500 
z
M 603 4863 
L 1178 4863 
L 1178 4134 
L 603 4134 
L 603 4863 
z
" transform="scale(0.015625)"/>
      <path id="DejaVuSans-63" d="M 3122 3366 
L 3122 2828 
Q 2878 2963 2633 3030 
Q 2388 3097 2138 3097 
Q 1578 3097 1268 2742 
Q 959 2388 959 1747 
Q 959 1106 1268 751 
Q 1578 397 2138 397 
Q 2388 397 2633 464 
Q 2878 531 3122 666 
L 3122 134 
Q 2881 22 2623 -34 
Q 2366 -91 2075 -91 
Q 1284 -91 818 406 
Q 353 903 353 1747 
Q 353 2603 823 3093 
Q 1294 3584 2113 3584 
Q 2378 3584 2631 3529 
Q 2884 3475 3122 3366 
z
" transform="scale(0.015625)"/>
     </defs>
     <use xlink:href="#DejaVuSans-49"/>
     <use xlink:href="#DejaVuSans-61" x="29.492188"/>
     <use xlink:href="#DejaVuSans-6d" x="90.771484"/>
     <use xlink:href="#DejaVuSans-62" x="188.183594"/>
     <use xlink:href="#DejaVuSans-69" x="251.660156"/>
     <use xlink:href="#DejaVuSans-63" x="279.443359"/>
    </g>
   </g>
   <g id="text_16">
    <!-- Parse -->
    <g transform="translate(361.832136 98.887431)scale(0.08 -0.08)">
     <defs>
      <path id="DejaVuSans-72" d="M 2631 2963 
Q 2534 3019 2420 3045 
Q 2306 3072 2169 3072 
Q 1681 3072 1420 2755 
Q 1159 2438 1159 1844 
L 1159 0 
L 581 0 
L 581 3500 
L 1159 3500 
L 1159 2956 
Q 1341 3275 1631 3429 
Q 1922 3584 2338 3584 
Q 2397 3584 2469 3576 
Q 2541 3569 2628 3553 
L 2631 2963 
z
" transform="scale(0.015625)"/>
      <path id="DejaVuSans-73" d="M 2834 3397 
L 2834 2853 
Q 2591 2978 2328 3040 
Q 2066 3103 1784 3103 
Q 1356 3103 1142 2972 
Q 928 2841 928 2578 
Q 928 2378 1081 2264 
Q 1234 2150 1697 2047 
L 1894 2003 
Q 2506 1872 2764 1633 
Q 3022 1394 3022 966 
Q 3022 478 2636 193 
Q 2250 -91 1575 -91 
Q 1294 -91 989 -36 
Q 684 19 347 128 
L 347 722 
Q 666 556 975 473 
Q 1284 391 1588 391 
Q 1994 391 2212 530 
Q 2431 669 2431 922 
Q 2431 1156 2273 1281 
Q 2116 1406 1581 1522 
L 1381 1569 
Q 847 1681 609 1914 
Q 372 2147 372 2553 
Q 372 3047 722 3315 
Q 1072 3584 1716 3584 
Q 2034 3584 2315 3537 
Q 2597 3491 2834 3397 
z
" transform="scale(0.015625)"/>
      <path id="DejaVuSans-65" d="M 3597 1894 
L 3597 1613 
L 953 1613 
Q 991 1019 1311 708 
Q 1631 397 2203 397 
Q 2534 397 2845 478 
Q 3156 559 3463 722 
L 3463 178 
Q 3153 47 2828 -22 
Q 2503 -91 2169 -91 
Q 1331 -91 842 396 
Q 353 884 353 1716 
Q 353 2575 817 3079 
Q 1281 3584 2069 3584 
Q 2775 3584 3186 3129 
Q 3597 2675 3597 1894 
z
M 3022 2063 
Q 3016 2534 2758 2815 
Q 2500 3097 2075 3097 
Q 1594 3097 1305 2825 
Q 1016 2553 972 2059 
L 3022 2063 
z
" transform="scale(0.015625)"/>
     </defs>
     <use xlink:href="#DejaVuSans-50"/>
     <use xlink:href="#DejaVuSans-61" x="55.802734"/>
     <use xlink:href="#DejaVuSans-72" x="117.082031"/>
     <use xlink:href="#DejaVuSans-73" x="158.195312"/>
     <use xlink:href="#DejaVuSans-65" x="210.294922"/>
    </g>
   </g>
   <g id="text_17">
    <!-- FootBin -->
    <g transform="translate(361.832136 101.285415)scale(0.08 -0.08)">
     <defs>
      <path id="DejaVuSans-46" d="M 628 4666 
L 3309 4666 
L 3309 4134 
L 1259 4134 
L 1259 2759 
L 3109 2759 
L 3109 2228 
L 1259 2228 
L 1259 0 
L 628 0 
L 628 4666 
z
" transform="scale(0.015625)"/>
      <path id="DejaVuSans-6f" d="M 1959 3097 
Q 1497 3097 1228 2736 
Q 959 2375 959 1747 
Q 959 1119 1226 758 
Q 1494 397 1959 397 
Q 2419 397 2687 759 
Q 2956 1122 2956 1747 
Q 2956 2369 2687 2733 
Q 2419 3097 1959 3097 
z
M 1959 3584 
Q 2709 3584 3137 3096 
Q 3566 2609 3566 1747 
Q 3566 888 3137 398 
Q 2709 -91 1959 -91 
Q 1206 -91 779 398 
Q 353 888 353 1747 
Q 353 2609 779 3096 
Q 1206 3584 1959 3584 
z
" transform="scale(0.015625)"/>
      <path id="DejaVuSans-74" d="M 1172 4494 
L 1172 3500 
L 2356 3500 
L 2356 3053 
L 1172 3053 
L 1172 1153 
Q 1172 725 1289 603 
Q 1406 481 1766 481 
L 2356 481 
L 2356 0 
L 1766 0 
Q 1100 0 847 248 
Q 594 497 594 1153 
L 594 3053 
L 172 3053 
L 172 3500 
L 594 3500 
L 594 4494 
L 1172 4494 
z
" transform="scale(0.015625)"/>
      <path id="DejaVuSans-42" d="M 1259 2228 
L 1259 519 
L 2272 519 
Q 2781 519 3026 730 
Q 3272 941 3272 1375 
Q 3272 1813 3026 2020 
Q 2781 2228 2272 2228 
L 1259 2228 
z
M 1259 4147 
L 1259 2741 
L 2194 2741 
Q 2656 2741 2882 2914 
Q 3109 3088 3109 3444 
Q 3109 3797 2882 3972 
Q 2656 4147 2194 4147 
L 1259 4147 
z
M 628 4666 
L 2241 4666 
Q 2963 4666 3353 4366 
Q 3744 4066 3744 3513 
Q 3744 3084 3544 2831 
Q 3344 2578 2956 2516 
Q 3422 2416 3680 2098 
Q 3938 1781 3938 1306 
Q 3938 681 3513 340 
Q 3088 0 2303 0 
L 628 0 
L 628 4666 
z
" transform="scale(0.015625)"/>
      <path id="DejaVuSans-6e" d="M 3513 2113 
L 3513 0 
L 2938 0 
L 2938 2094 
Q 2938 2591 2744 2837 
Q 2550 3084 2163 3084 
Q 1697 3084 1428 2787 
Q 1159 2491 1159 1978 
L 1159 0 
L 581 0 
L 581 3500 
L 1159 3500 
L 1159 2956 
Q 1366 3272 1645 3428 
Q 1925 3584 2291 3584 
Q 2894 3584 3203 3211 
Q 3513 2838 3513 2113 
z
" transform="scale(0.015625)"/>
     </defs>
     <use xlink:href="#DejaVuSans-46"/>
     <use xlink:href="#DejaVuSans-6f" x="53.894531"/>
     <use xlink:href="#DejaVuSans-6f" x="115.076172"/>
     <use xlink:href="#DejaVuSans-74" x="176.257812"/>
     <use xlink:href="#DejaVuSans-42" x="215.466797"/>
     <use xlink:href="#DejaVuSans-69" x="284.070312"/>
     <use xlink:href="#DejaVuSans-6e" x="311.853516"/>
    </g>
   </g>
   <g id="text_18">
    <!-- WFL -->
    <g transform="translate(361.832136 134.748026)scale(0.08 -0.08)">
     <defs>
      <path id="DejaVuSans-4c" d="M 628 4666 
L 1259 4666 
L 1259 531 
L 3531 531 
L 3531 0 
L 628 0 
L 628 4666 
z
" transform="scale(0.015625)"/>
     </defs>
     <use xlink:href="#DejaVuSans-57"/>
     <use xlink:href="#DejaVuSans-46" x="98.876953"/>
     <use xlink:href="#DejaVuSans-4c" x="156.396484"/>
    </g>
   </g>
   <g id="text_19">
    <!-- WFR -->
    <g transform="translate(361.832136 92.313544)scale(0.08 -0.08)">
     <defs>
      <path id="DejaVuSans-52" d="M 2841 2188 
Q 3044 2119 3236 1894 
Q 3428 1669 3622 1275 
L 4263 0 
L 3584 0 
L 2988 1197 
Q 2756 1666 2539 1819 
Q 2322 1972 1947 1972 
L 1259 1972 
L 1259 0 
L 628 0 
L 628 4666 
L 2053 4666 
Q 2853 4666 3247 4331 
Q 3641 3997 3641 3322 
Q 3641 2881 3436 2590 
Q 3231 2300 2841 2188 
z
M 1259 4147 
L 1259 2491 
L 2053 2491 
Q 2509 2491 2742 2702 
Q 2975 2913 2975 3322 
Q 2975 3731 2742 3939 
Q 2509 4147 2053 4147 
L 1259 4147 
z
" transform="scale(0.015625)"/>
     </defs>
     <use xlink:href="#DejaVuSans-57"/>
     <use xlink:href="#DejaVuSans-46" x="98.876953"/>
     <use xlink:href="#DejaVuSans-52" x="156.396484"/>
    </g>
   </g>
   <g id="text_20">
    <!-- Main-L -->
    <g transform="translate(361.832136 103.64199)scale(0.08 -0.08)">
     <defs>
      <path id="DejaVuSans-4d" d="M 628 4666 
L 1569 4666 
L 2759 1491 
L 3956 4666 
L 4897 4666 
L 4897 0 
L 4281 0 
L 4281 4097 
L 3078 897 
L 2444 897 
L 1241 4097 
L 1241 0 
L 628 0 
L 628 4666 
z
" transform="scale(0.015625)"/>
      <path id="DejaVuSans-2d" d="M 313 2009 
L 1997 2009 
L 1997 1497 
L 313 1497 
L 313 2009 
z
" transform="scale(0.015625)"/>
     </defs>
     <use xlink:href="#DejaVuSans-4d"/>
     <use xlink:href="#DejaVuSans-61" x="86.279297"/>
     <use xlink:href="#DejaVuSans-69" x="147.558594"/>
     <use xlink:href="#DejaVuSans-6e" x="175.341797"/>
     <use xlink:href="#DejaVuSans-2d" x="238.720703"/>
     <use xlink:href="#DejaVuSans-4c" x="274.804688"/>
    </g>
   </g>
   <g id="text_21">
    <!-- Main-R -->
    <g transform="translate(361.832136 113.095179)scale(0.08 -0.08)">
     <use xlink:href="#DejaVuSans-4d"/>
     <use xlink:href="#DejaVuSans-61" x="86.279297"/>
     <use xlink:href="#DejaVuSans-69" x="147.558594"/>
     <use xlink:href="#DejaVuSans-6e" x="175.341797"/>
     <use xlink:href="#DejaVuSans-2d" x="238.720703"/>
     <use xlink:href="#DejaVuSans-52" x="274.804688"/>
    </g>
   </g>
   <g id="text_22">
    <!-- AFL -->
    <g transform="translate(361.832136 118.494543)scale(0.08 -0.08)">
     <defs>
      <path id="DejaVuSans-41" d="M 2188 4044 
L 1331 1722 
L 3047 1722 
L 2188 4044 
z
M 1831 4666 
L 2547 4666 
L 4325 0 
L 3669 0 
L 3244 1197 
L 1141 1197 
L 716 0 
L 50 0 
L 1831 4666 
z
" transform="scale(0.015625)"/>
     </defs>
     <use xlink:href="#DejaVuSans-41"/>
     <use xlink:href="#DejaVuSans-46" x="68.408203"/>
     <use xlink:href="#DejaVuSans-4c" x="125.927734"/>
    </g>
   </g>
   <g id="text_23">
    <!-- AFR -->
    <g transform="translate(361.832136 103.461832)scale(0.08 -0.08)">
     <use xlink:href="#DejaVuSans-41"/>
     <use xlink:href="#DejaVuSans-46" x="68.408203"/>
     <use xlink:href="#DejaVuSans-52" x="125.927734"/>
    </g>
   </g>
   <g id="text_24">
    <!-- Nonfinal -->
    <g transform="translate(361.832136 89.338516)scale(0.08 -0.08)">
     <defs>
      <path id="DejaVuSans-4e" d="M 628 4666 
L 1478 4666 
L 3547 763 
L 3547 4666 
L 4159 4666 
L 4159 0 
L 3309 0 
L 1241 3903 
L 1241 0 
L 628 0 
L 628 4666 
z
" transform="scale(0.015625)"/>
      <path id="DejaVuSans-66" d="M 2375 4863 
L 2375 4384 
L 1825 4384 
Q 1516 4384 1395 4259 
Q 1275 4134 1275 3809 
L 1275 3500 
L 2222 3500 
L 2222 3053 
L 1275 3053 
L 1275 0 
L 697 0 
L 697 3053 
L 147 3053 
L 147 3500 
L 697 3500 
L 697 3744 
Q 697 4328 969 4595 
Q 1241 4863 1831 4863 
L 2375 4863 
z
" transform="scale(0.015625)"/>
      <path id="DejaVuSans-6c" d="M 603 4863 
L 1178 4863 
L 1178 0 
L 603 0 
L 603 4863 
z
" transform="scale(0.015625)"/>
     </defs>
     <use xlink:href="#DejaVuSans-4e"/>
     <use xlink:href="#DejaVuSans-6f" x="74.804688"/>
     <use xlink:href="#DejaVuSans-6e" x="135.986328"/>
     <use xlink:href="#DejaVuSans-66" x="199.365234"/>
     <use xlink:href="#DejaVuSans-69" x="234.570312"/>
     <use xlink:href="#DejaVuSans-6e" x="262.353516"/>
     <use xlink:href="#DejaVuSans-61" x="325.732422"/>
     <use xlink:href="#DejaVuSans-6c" x="387.011719"/>
    </g>
   </g>
   <g id="text_25">
    <!-- Trochaic -->
    <g transform="translate(361.832136 106.151834)scale(0.08 -0.08)">
     <defs>
      <path id="DejaVuSans-54" d="M -19 4666 
L 3928 4666 
L 3928 4134 
L 2272 4134 
L 2272 0 
L 1638 0 
L 1638 4134 
L -19 4134 
L -19 4666 
z
" transform="scale(0.015625)"/>
      <path id="DejaVuSans-68" d="M 3513 2113 
L 3513 0 
L 2938 0 
L 2938 2094 
Q 2938 2591 2744 2837 
Q 2550 3084 2163 3084 
Q 1697 3084 1428 2787 
Q 1159 2491 1159 1978 
L 1159 0 
L 581 0 
L 581 4863 
L 1159 4863 
L 1159 2956 
Q 1366 3272 1645 3428 
Q 1925 3584 2291 3584 
Q 2894 3584 3203 3211 
Q 3513 2838 3513 2113 
z
" transform="scale(0.015625)"/>
     </defs>
     <use xlink:href="#DejaVuSans-54"/>
     <use xlink:href="#DejaVuSans-72" x="46.333984"/>
     <use xlink:href="#DejaVuSans-6f" x="85.197266"/>
     <use xlink:href="#DejaVuSans-63" x="146.378906"/>
     <use xlink:href="#DejaVuSans-68" x="201.359375"/>
     <use xlink:href="#DejaVuSans-61" x="264.738281"/>
     <use xlink:href="#DejaVuSans-69" x="326.017578"/>
     <use xlink:href="#DejaVuSans-63" x="353.800781"/>
    </g>
   </g>
  </g>
  <g id="axes_2">
   <g id="patch_7">
    <path d="M 57.6 307.584 
L 414.72 307.584 
L 414.72 186.624 
L 57.6 186.624 
z
" style="fill: #ffffff"/>
   </g>
   <g id="matplotlib.axis_3">
    <g id="xtick_8">
     <g id="line2d_26">
      <g>
       <use xlink:href="#m07ca8aa15f" x="73.542079" y="307.584" style="stroke: #000000; stroke-width: 0.8"/>
      </g>
     </g>
     <g id="text_26">
      <!-- 0 -->
      <g transform="translate(70.360829 322.182437)scale(0.1 -0.1)">
       <use xlink:href="#DejaVuSans-30"/>
      </g>
     </g>
    </g>
    <g id="xtick_9">
     <g id="line2d_27">
      <g>
       <use xlink:href="#m07ca8aa15f" x="131.671809" y="307.584" style="stroke: #000000; stroke-width: 0.8"/>
      </g>
     </g>
     <g id="text_27">
      <!-- 200 -->
      <g transform="translate(122.128059 322.182437)scale(0.1 -0.1)">
       <use xlink:href="#DejaVuSans-32"/>
       <use xlink:href="#DejaVuSans-30" x="63.623047"/>
       <use xlink:href="#DejaVuSans-30" x="127.246094"/>
      </g>
     </g>
    </g>
    <g id="xtick_10">
     <g id="line2d_28">
      <g>
       <use xlink:href="#m07ca8aa15f" x="189.80154" y="307.584" style="stroke: #000000; stroke-width: 0.8"/>
      </g>
     </g>
     <g id="text_28">
      <!-- 400 -->
      <g transform="translate(180.25779 322.182437)scale(0.1 -0.1)">
       <use xlink:href="#DejaVuSans-34"/>
       <use xlink:href="#DejaVuSans-30" x="63.623047"/>
       <use xlink:href="#DejaVuSans-30" x="127.246094"/>
      </g>
     </g>
    </g>
    <g id="xtick_11">
     <g id="line2d_29">
      <g>
       <use xlink:href="#m07ca8aa15f" x="247.93127" y="307.584" style="stroke: #000000; stroke-width: 0.8"/>
      </g>
     </g>
     <g id="text_29">
      <!-- 600 -->
      <g transform="translate(238.38752 322.182437)scale(0.1 -0.1)">
       <use xlink:href="#DejaVuSans-36"/>
       <use xlink:href="#DejaVuSans-30" x="63.623047"/>
       <use xlink:href="#DejaVuSans-30" x="127.246094"/>
      </g>
     </g>
    </g>
    <g id="xtick_12">
     <g id="line2d_30">
      <g>
       <use xlink:href="#m07ca8aa15f" x="306.061001" y="307.584" style="stroke: #000000; stroke-width: 0.8"/>
      </g>
     </g>
     <g id="text_30">
      <!-- 800 -->
      <g transform="translate(296.517251 322.182437)scale(0.1 -0.1)">
       <defs>
        <path id="DejaVuSans-38" d="M 2034 2216 
Q 1584 2216 1326 1975 
Q 1069 1734 1069 1313 
Q 1069 891 1326 650 
Q 1584 409 2034 409 
Q 2484 409 2743 651 
Q 3003 894 3003 1313 
Q 3003 1734 2745 1975 
Q 2488 2216 2034 2216 
z
M 1403 2484 
Q 997 2584 770 2862 
Q 544 3141 544 3541 
Q 544 4100 942 4425 
Q 1341 4750 2034 4750 
Q 2731 4750 3128 4425 
Q 3525 4100 3525 3541 
Q 3525 3141 3298 2862 
Q 3072 2584 2669 2484 
Q 3125 2378 3379 2068 
Q 3634 1759 3634 1313 
Q 3634 634 3220 271 
Q 2806 -91 2034 -91 
Q 1263 -91 848 271 
Q 434 634 434 1313 
Q 434 1759 690 2068 
Q 947 2378 1403 2484 
z
M 1172 3481 
Q 1172 3119 1398 2916 
Q 1625 2713 2034 2713 
Q 2441 2713 2670 2916 
Q 2900 3119 2900 3481 
Q 2900 3844 2670 4047 
Q 2441 4250 2034 4250 
Q 1625 4250 1398 4047 
Q 1172 3844 1172 3481 
z
" transform="scale(0.015625)"/>
       </defs>
       <use xlink:href="#DejaVuSans-38"/>
       <use xlink:href="#DejaVuSans-30" x="63.623047"/>
       <use xlink:href="#DejaVuSans-30" x="127.246094"/>
      </g>
     </g>
    </g>
    <g id="xtick_13">
     <g id="line2d_31">
      <g>
       <use xlink:href="#m07ca8aa15f" x="364.190732" y="307.584" style="stroke: #000000; stroke-width: 0.8"/>
      </g>
     </g>
     <g id="text_31">
      <!-- 1000 -->
      <g transform="translate(351.465732 322.182437)scale(0.1 -0.1)">
       <use xlink:href="#DejaVuSans-31"/>
       <use xlink:href="#DejaVuSans-30" x="63.623047"/>
       <use xlink:href="#DejaVuSans-30" x="127.246094"/>
       <use xlink:href="#DejaVuSans-30" x="190.869141"/>
      </g>
     </g>
    </g>
   </g>
   <g id="matplotlib.axis_4">
    <g id="ytick_7">
     <g id="line2d_32">
      <g>
       <use xlink:href="#mf6a4f96675" x="57.6" y="302.092563" style="stroke: #000000; stroke-width: 0.8"/>
      </g>
     </g>
     <g id="text_32">
      <!-- 0 -->
      <g transform="translate(44.2375 305.891782)scale(0.1 -0.1)">
       <use xlink:href="#DejaVuSans-30"/>
      </g>
     </g>
    </g>
    <g id="ytick_8">
     <g id="line2d_33">
      <g>
       <use xlink:href="#mf6a4f96675" x="57.6" y="268.367593" style="stroke: #000000; stroke-width: 0.8"/>
      </g>
     </g>
     <g id="text_33">
      <!-- 5000 -->
      <g transform="translate(25.15 272.166812)scale(0.1 -0.1)">
       <use xlink:href="#DejaVuSans-35"/>
       <use xlink:href="#DejaVuSans-30" x="63.623047"/>
       <use xlink:href="#DejaVuSans-30" x="127.246094"/>
       <use xlink:href="#DejaVuSans-30" x="190.869141"/>
      </g>
     </g>
    </g>
    <g id="ytick_9">
     <g id="line2d_34">
      <g>
       <use xlink:href="#mf6a4f96675" x="57.6" y="234.642624" style="stroke: #000000; stroke-width: 0.8"/>
      </g>
     </g>
     <g id="text_34">
      <!-- 10000 -->
      <g transform="translate(18.7875 238.441842)scale(0.1 -0.1)">
       <use xlink:href="#DejaVuSans-31"/>
       <use xlink:href="#DejaVuSans-30" x="63.623047"/>
       <use xlink:href="#DejaVuSans-30" x="127.246094"/>
       <use xlink:href="#DejaVuSans-30" x="190.869141"/>
       <use xlink:href="#DejaVuSans-30" x="254.492188"/>
      </g>
     </g>
    </g>
    <g id="ytick_10">
     <g id="line2d_35">
      <g>
       <use xlink:href="#mf6a4f96675" x="57.6" y="200.917654" style="stroke: #000000; stroke-width: 0.8"/>
      </g>
     </g>
     <g id="text_35">
      <!-- 15000 -->
      <g transform="translate(18.7875 204.716873)scale(0.1 -0.1)">
       <use xlink:href="#DejaVuSans-31"/>
       <use xlink:href="#DejaVuSans-35" x="63.623047"/>
       <use xlink:href="#DejaVuSans-30" x="127.246094"/>
       <use xlink:href="#DejaVuSans-30" x="190.869141"/>
       <use xlink:href="#DejaVuSans-30" x="254.492188"/>
      </g>
     </g>
    </g>
   </g>
   <g id="line2d_36">
    <path d="M 73.832727 302.085818 
L 380.176408 302.004878 
L 380.467056 301.923938 
L 380.757705 302.065583 
L 381.339002 301.971153 
L 381.629651 302.079073 
L 382.792245 302.038603 
L 385.698732 301.998133 
L 386.280029 302.079073 
L 388.605219 301.984643 
L 388.895867 301.950918 
L 389.186516 302.072328 
L 389.477164 301.782293 
L 389.767813 302.085818 
L 390.34911 301.168499 
L 390.639759 301.977898 
L 390.930408 301.505749 
L 391.221056 301.566454 
L 391.511705 301.741823 
L 391.802354 301.681119 
L 392.093002 300.61541 
L 392.383651 301.971153 
L 392.6743 300.824504 
L 392.964948 299.111276 
L 393.255597 301.552964 
L 393.546246 301.991388 
L 393.836894 299.111276 
L 394.127543 286.511627 
L 394.418192 294.693305 
L 394.70884 270.869986 
L 394.999489 300.649134 
L 395.290138 297.708317 
L 395.580786 290.787953 
L 395.871435 301.842998 
L 396.162084 284.231819 
L 396.452732 299.9544 
L 396.743381 301.377594 
L 397.034029 298.558186 
L 397.324678 260.395011 
L 397.615327 300.763799 
L 397.905975 294.828205 
L 398.196624 206.266434 
L 398.487273 192.122182 
L 398.487273 192.122182 
" clip-path="url(#pf3927330f2)" style="fill: none; stroke: #1f77b4; stroke-width: 1.5; stroke-linecap: square"/>
   </g>
   <g id="patch_8">
    <path d="M 57.6 307.584 
L 57.6 186.624 
" style="fill: none; stroke: #000000; stroke-width: 0.8; stroke-linejoin: miter; stroke-linecap: square"/>
   </g>
   <g id="patch_9">
    <path d="M 414.72 307.584 
L 414.72 186.624 
" style="fill: none; stroke: #000000; stroke-width: 0.8; stroke-linejoin: miter; stroke-linecap: square"/>
   </g>
   <g id="patch_10">
    <path d="M 57.6 307.584 
L 414.72 307.584 
" style="fill: none; stroke: #000000; stroke-width: 0.8; stroke-linejoin: miter; stroke-linecap: square"/>
   </g>
   <g id="patch_11">
    <path d="M 57.6 186.624 
L 414.72 186.624 
" style="fill: none; stroke: #000000; stroke-width: 0.8; stroke-linejoin: miter; stroke-linecap: square"/>
   </g>
  </g>
 </g>
 <defs>
  <clipPath id="p571f128c10">
   <rect x="57.6" y="41.472" width="357.12" height="120.96"/>
  </clipPath>
  <clipPath id="pf3927330f2">
   <rect x="57.6" y="186.624" width="357.12" height="120.96"/>
  </clipPath>
 </defs>
</svg>
