<?xml version="1.0" encoding="utf-8" standalone="no"?>
<!DOCTYPE svg PUBLIC "-//W3C//DTD SVG 1.1//EN"
  "http://www.w3.org/Graphics/SVG/1.1/DTD/svg11.dtd">
<svg xmlns:xlink="http://www.w3.org/1999/xlink" width="460.8pt" height="345.6pt" viewBox="0 0 460.8 345.6" xmlns="http://www.w3.org/2000/svg" version="1.1">
 <metadata>
  <rdf:RDF xmlns:dc="http://purl.org/dc/elements/1.1/" xmlns:cc="http://creativecommons.org/ns#" xmlns:rdf="http://www.w3.org/1999/02/22-rdf-syntax-ns#">
   <cc:Work>
    <dc:type rdf:resource="http://purl.org/dc/dcmitype/StillImage"/>
    <dc:date>2022-05-13T13:31:10.395544</dc:date>
    <dc:format>image/svg+xml</dc:format>
    <dc:creator>
     <cc:Agent>
      <dc:title>Matplotlib v3.5.1, https://matplotlib.org/</dc:title>
     </cc:Agent>
    </dc:creator>
   </cc:Work>
  </rdf:RDF>
 </metadata>
 <defs>
  <style type="text/css">*{stroke-linejoin: round; stroke-linecap: butt}</style>
 </defs>
 <g id="figure_1">
  <g id="patch_1">
   <path d="M 0 345.6 
L 460.8 345.6 
L 460.8 0 
L 0 0 
z
" style="fill: #ffffff"/>
  </g>
  <g id="axes_1">
   <g id="patch_2">
    <path d="M 57.6 162.432 
L 414.72 162.432 
L 414.72 41.472 
L 57.6 41.472 
z
" style="fill: #ffffff"/>
   </g>
   <g id="matplotlib.axis_1">
    <g id="xtick_1">
     <g id="line2d_1">
      <defs>
       <path id="m29e050732e" d="M 0 0 
L 0 3.5 
" style="stroke: #000000; stroke-width: 0.8"/>
      </defs>
      <g>
       <use xlink:href="#m29e050732e" x="73.827491" y="162.432" style="stroke: #000000; stroke-width: 0.8"/>
      </g>
     </g>
     <g id="text_1">
      <!-- 0 -->
      <g transform="translate(70.646241 177.030437)scale(0.1 -0.1)">
       <defs>
        <path id="DejaVuSans-30" d="M 2034 4250 
Q 1547 4250 1301 3770 
Q 1056 3291 1056 2328 
Q 1056 1369 1301 889 
Q 1547 409 2034 409 
Q 2525 409 2770 889 
Q 3016 1369 3016 2328 
Q 3016 3291 2770 3770 
Q 2525 4250 2034 4250 
z
M 2034 4750 
Q 2819 4750 3233 4129 
Q 3647 3509 3647 2328 
Q 3647 1150 3233 529 
Q 2819 -91 2034 -91 
Q 1250 -91 836 529 
Q 422 1150 422 2328 
Q 422 3509 836 4129 
Q 1250 4750 2034 4750 
z
" transform="scale(0.015625)"/>
       </defs>
       <use xlink:href="#DejaVuSans-30"/>
      </g>
     </g>
    </g>
    <g id="xtick_2">
     <g id="line2d_2">
      <g>
       <use xlink:href="#m29e050732e" x="126.191972" y="162.432" style="stroke: #000000; stroke-width: 0.8"/>
      </g>
     </g>
     <g id="text_2">
      <!-- 10000 -->
      <g transform="translate(110.285722 177.030437)scale(0.1 -0.1)">
       <defs>
        <path id="DejaVuSans-31" d="M 794 531 
L 1825 531 
L 1825 4091 
L 703 3866 
L 703 4441 
L 1819 4666 
L 2450 4666 
L 2450 531 
L 3481 531 
L 3481 0 
L 794 0 
L 794 531 
z
" transform="scale(0.015625)"/>
       </defs>
       <use xlink:href="#DejaVuSans-31"/>
       <use xlink:href="#DejaVuSans-30" x="63.623047"/>
       <use xlink:href="#DejaVuSans-30" x="127.246094"/>
       <use xlink:href="#DejaVuSans-30" x="190.869141"/>
       <use xlink:href="#DejaVuSans-30" x="254.492188"/>
      </g>
     </g>
    </g>
    <g id="xtick_3">
     <g id="line2d_3">
      <g>
       <use xlink:href="#m29e050732e" x="178.556453" y="162.432" style="stroke: #000000; stroke-width: 0.8"/>
      </g>
     </g>
     <g id="text_3">
      <!-- 20000 -->
      <g transform="translate(162.650203 177.030437)scale(0.1 -0.1)">
       <defs>
        <path id="DejaVuSans-32" d="M 1228 531 
L 3431 531 
L 3431 0 
L 469 0 
L 469 531 
Q 828 903 1448 1529 
Q 2069 2156 2228 2338 
Q 2531 2678 2651 2914 
Q 2772 3150 2772 3378 
Q 2772 3750 2511 3984 
Q 2250 4219 1831 4219 
Q 1534 4219 1204 4116 
Q 875 4013 500 3803 
L 500 4441 
Q 881 4594 1212 4672 
Q 1544 4750 1819 4750 
Q 2544 4750 2975 4387 
Q 3406 4025 3406 3419 
Q 3406 3131 3298 2873 
Q 3191 2616 2906 2266 
Q 2828 2175 2409 1742 
Q 1991 1309 1228 531 
z
" transform="scale(0.015625)"/>
       </defs>
       <use xlink:href="#DejaVuSans-32"/>
       <use xlink:href="#DejaVuSans-30" x="63.623047"/>
       <use xlink:href="#DejaVuSans-30" x="127.246094"/>
       <use xlink:href="#DejaVuSans-30" x="190.869141"/>
       <use xlink:href="#DejaVuSans-30" x="254.492188"/>
      </g>
     </g>
    </g>
    <g id="xtick_4">
     <g id="line2d_4">
      <g>
       <use xlink:href="#m29e050732e" x="230.920934" y="162.432" style="stroke: #000000; stroke-width: 0.8"/>
      </g>
     </g>
     <g id="text_4">
      <!-- 30000 -->
      <g transform="translate(215.014684 177.030437)scale(0.1 -0.1)">
       <defs>
        <path id="DejaVuSans-33" d="M 2597 2516 
Q 3050 2419 3304 2112 
Q 3559 1806 3559 1356 
Q 3559 666 3084 287 
Q 2609 -91 1734 -91 
Q 1441 -91 1130 -33 
Q 819 25 488 141 
L 488 750 
Q 750 597 1062 519 
Q 1375 441 1716 441 
Q 2309 441 2620 675 
Q 2931 909 2931 1356 
Q 2931 1769 2642 2001 
Q 2353 2234 1838 2234 
L 1294 2234 
L 1294 2753 
L 1863 2753 
Q 2328 2753 2575 2939 
Q 2822 3125 2822 3475 
Q 2822 3834 2567 4026 
Q 2313 4219 1838 4219 
Q 1578 4219 1281 4162 
Q 984 4106 628 3988 
L 628 4550 
Q 988 4650 1302 4700 
Q 1616 4750 1894 4750 
Q 2613 4750 3031 4423 
Q 3450 4097 3450 3541 
Q 3450 3153 3228 2886 
Q 3006 2619 2597 2516 
z
" transform="scale(0.015625)"/>
       </defs>
       <use xlink:href="#DejaVuSans-33"/>
       <use xlink:href="#DejaVuSans-30" x="63.623047"/>
       <use xlink:href="#DejaVuSans-30" x="127.246094"/>
       <use xlink:href="#DejaVuSans-30" x="190.869141"/>
       <use xlink:href="#DejaVuSans-30" x="254.492188"/>
      </g>
     </g>
    </g>
    <g id="xtick_5">
     <g id="line2d_5">
      <g>
       <use xlink:href="#m29e050732e" x="283.285415" y="162.432" style="stroke: #000000; stroke-width: 0.8"/>
      </g>
     </g>
     <g id="text_5">
      <!-- 40000 -->
      <g transform="translate(267.379165 177.030437)scale(0.1 -0.1)">
       <defs>
        <path id="DejaVuSans-34" d="M 2419 4116 
L 825 1625 
L 2419 1625 
L 2419 4116 
z
M 2253 4666 
L 3047 4666 
L 3047 1625 
L 3713 1625 
L 3713 1100 
L 3047 1100 
L 3047 0 
L 2419 0 
L 2419 1100 
L 313 1100 
L 313 1709 
L 2253 4666 
z
" transform="scale(0.015625)"/>
       </defs>
       <use xlink:href="#DejaVuSans-34"/>
       <use xlink:href="#DejaVuSans-30" x="63.623047"/>
       <use xlink:href="#DejaVuSans-30" x="127.246094"/>
       <use xlink:href="#DejaVuSans-30" x="190.869141"/>
       <use xlink:href="#DejaVuSans-30" x="254.492188"/>
      </g>
     </g>
    </g>
    <g id="xtick_6">
     <g id="line2d_6">
      <g>
       <use xlink:href="#m29e050732e" x="335.649896" y="162.432" style="stroke: #000000; stroke-width: 0.8"/>
      </g>
     </g>
     <g id="text_6">
      <!-- 50000 -->
      <g transform="translate(319.743646 177.030437)scale(0.1 -0.1)">
       <defs>
        <path id="DejaVuSans-35" d="M 691 4666 
L 3169 4666 
L 3169 4134 
L 1269 4134 
L 1269 2991 
Q 1406 3038 1543 3061 
Q 1681 3084 1819 3084 
Q 2600 3084 3056 2656 
Q 3513 2228 3513 1497 
Q 3513 744 3044 326 
Q 2575 -91 1722 -91 
Q 1428 -91 1123 -41 
Q 819 9 494 109 
L 494 744 
Q 775 591 1075 516 
Q 1375 441 1709 441 
Q 2250 441 2565 725 
Q 2881 1009 2881 1497 
Q 2881 1984 2565 2268 
Q 2250 2553 1709 2553 
Q 1456 2553 1204 2497 
Q 953 2441 691 2322 
L 691 4666 
z
" transform="scale(0.015625)"/>
       </defs>
       <use xlink:href="#DejaVuSans-35"/>
       <use xlink:href="#DejaVuSans-30" x="63.623047"/>
       <use xlink:href="#DejaVuSans-30" x="127.246094"/>
       <use xlink:href="#DejaVuSans-30" x="190.869141"/>
       <use xlink:href="#DejaVuSans-30" x="254.492188"/>
      </g>
     </g>
    </g>
    <g id="xtick_7">
     <g id="line2d_7">
      <g>
       <use xlink:href="#m29e050732e" x="388.014377" y="162.432" style="stroke: #000000; stroke-width: 0.8"/>
      </g>
     </g>
     <g id="text_7">
      <!-- 60000 -->
      <g transform="translate(372.108127 177.030437)scale(0.1 -0.1)">
       <defs>
        <path id="DejaVuSans-36" d="M 2113 2584 
Q 1688 2584 1439 2293 
Q 1191 2003 1191 1497 
Q 1191 994 1439 701 
Q 1688 409 2113 409 
Q 2538 409 2786 701 
Q 3034 994 3034 1497 
Q 3034 2003 2786 2293 
Q 2538 2584 2113 2584 
z
M 3366 4563 
L 3366 3988 
Q 3128 4100 2886 4159 
Q 2644 4219 2406 4219 
Q 1781 4219 1451 3797 
Q 1122 3375 1075 2522 
Q 1259 2794 1537 2939 
Q 1816 3084 2150 3084 
Q 2853 3084 3261 2657 
Q 3669 2231 3669 1497 
Q 3669 778 3244 343 
Q 2819 -91 2113 -91 
Q 1303 -91 875 529 
Q 447 1150 447 2328 
Q 447 3434 972 4092 
Q 1497 4750 2381 4750 
Q 2619 4750 2861 4703 
Q 3103 4656 3366 4563 
z
" transform="scale(0.015625)"/>
       </defs>
       <use xlink:href="#DejaVuSans-36"/>
       <use xlink:href="#DejaVuSans-30" x="63.623047"/>
       <use xlink:href="#DejaVuSans-30" x="127.246094"/>
       <use xlink:href="#DejaVuSans-30" x="190.869141"/>
       <use xlink:href="#DejaVuSans-30" x="254.492188"/>
      </g>
     </g>
    </g>
   </g>
   <g id="matplotlib.axis_2">
    <g id="ytick_1">
     <g id="line2d_8">
      <defs>
       <path id="m5d7d4a46ce" d="M 0 0 
L -3.5 0 
" style="stroke: #000000; stroke-width: 0.8"/>
      </defs>
      <g>
       <use xlink:href="#m5d7d4a46ce" x="57.6" y="129.772142" style="stroke: #000000; stroke-width: 0.8"/>
      </g>
     </g>
     <g id="text_8">
      <!-- 80 -->
      <g transform="translate(37.875 133.57136)scale(0.1 -0.1)">
       <defs>
        <path id="DejaVuSans-38" d="M 2034 2216 
Q 1584 2216 1326 1975 
Q 1069 1734 1069 1313 
Q 1069 891 1326 650 
Q 1584 409 2034 409 
Q 2484 409 2743 651 
Q 3003 894 3003 1313 
Q 3003 1734 2745 1975 
Q 2488 2216 2034 2216 
z
M 1403 2484 
Q 997 2584 770 2862 
Q 544 3141 544 3541 
Q 544 4100 942 4425 
Q 1341 4750 2034 4750 
Q 2731 4750 3128 4425 
Q 3525 4100 3525 3541 
Q 3525 3141 3298 2862 
Q 3072 2584 2669 2484 
Q 3125 2378 3379 2068 
Q 3634 1759 3634 1313 
Q 3634 634 3220 271 
Q 2806 -91 2034 -91 
Q 1263 -91 848 271 
Q 434 634 434 1313 
Q 434 1759 690 2068 
Q 947 2378 1403 2484 
z
M 1172 3481 
Q 1172 3119 1398 2916 
Q 1625 2713 2034 2713 
Q 2441 2713 2670 2916 
Q 2900 3119 2900 3481 
Q 2900 3844 2670 4047 
Q 2441 4250 2034 4250 
Q 1625 4250 1398 4047 
Q 1172 3844 1172 3481 
z
" transform="scale(0.015625)"/>
       </defs>
       <use xlink:href="#DejaVuSans-38"/>
       <use xlink:href="#DejaVuSans-30" x="63.623047"/>
      </g>
     </g>
    </g>
    <g id="ytick_2">
     <g id="line2d_9">
      <g>
       <use xlink:href="#m5d7d4a46ce" x="57.6" y="96.848897" style="stroke: #000000; stroke-width: 0.8"/>
      </g>
     </g>
     <g id="text_9">
      <!-- 90 -->
      <g transform="translate(37.875 100.648116)scale(0.1 -0.1)">
       <defs>
        <path id="DejaVuSans-39" d="M 703 97 
L 703 672 
Q 941 559 1184 500 
Q 1428 441 1663 441 
Q 2288 441 2617 861 
Q 2947 1281 2994 2138 
Q 2813 1869 2534 1725 
Q 2256 1581 1919 1581 
Q 1219 1581 811 2004 
Q 403 2428 403 3163 
Q 403 3881 828 4315 
Q 1253 4750 1959 4750 
Q 2769 4750 3195 4129 
Q 3622 3509 3622 2328 
Q 3622 1225 3098 567 
Q 2575 -91 1691 -91 
Q 1453 -91 1209 -44 
Q 966 3 703 97 
z
M 1959 2075 
Q 2384 2075 2632 2365 
Q 2881 2656 2881 3163 
Q 2881 3666 2632 3958 
Q 2384 4250 1959 4250 
Q 1534 4250 1286 3958 
Q 1038 3666 1038 3163 
Q 1038 2656 1286 2365 
Q 1534 2075 1959 2075 
z
" transform="scale(0.015625)"/>
       </defs>
       <use xlink:href="#DejaVuSans-39"/>
       <use xlink:href="#DejaVuSans-30" x="63.623047"/>
      </g>
     </g>
    </g>
    <g id="ytick_3">
     <g id="line2d_10">
      <g>
       <use xlink:href="#m5d7d4a46ce" x="57.6" y="63.925653" style="stroke: #000000; stroke-width: 0.8"/>
      </g>
     </g>
     <g id="text_10">
      <!-- 100 -->
      <g transform="translate(31.5125 67.724871)scale(0.1 -0.1)">
       <use xlink:href="#DejaVuSans-31"/>
       <use xlink:href="#DejaVuSans-30" x="63.623047"/>
       <use xlink:href="#DejaVuSans-30" x="127.246094"/>
      </g>
     </g>
    </g>
   </g>
   <g id="line2d_11">
    <path d="M 73.832727 63.925653 
L 73.968875 59.535887 
L 73.984584 59.535887 
L 74.105023 57.341004 
L 74.136441 57.341004 
L 74.25688 54.5974 
L 76.461424 54.5974 
L 76.576626 53.774319 
L 77.477295 53.774319 
L 77.592497 52.676878 
L 80.524908 52.676878 
L 80.64011 51.579436 
L 89.66251 51.579436 
L 89.777712 50.920971 
L 91.563341 50.920971 
L 91.678542 49.274809 
L 113.289364 49.274809 
L 113.404566 47.628647 
L 285.254319 47.628647 
L 285.369521 46.970182 
L 398.487273 46.970182 
L 398.487273 46.970182 
" clip-path="url(#p097eadbd04)" style="fill: none; stroke: #1f77b4; stroke-width: 1.5; stroke-linecap: square"/>
   </g>
   <g id="line2d_12">
    <path d="M 73.832727 63.925653 
L 73.837964 63.925653 
L 73.968875 79.289833 
L 73.984584 79.289833 
L 74.099786 83.95396 
L 74.136441 82.856518 
L 74.141678 86.148843 
L 74.199279 86.148843 
L 74.214988 86.148843 
L 74.230697 89.441167 
L 74.324953 87.795005 
L 74.340663 87.795005 
L 74.455865 91.087329 
L 74.482047 91.087329 
L 74.592012 90.264248 
L 74.644377 93.556573 
L 74.701978 92.733492 
L 74.743869 92.733492 
L 74.859071 96.025816 
L 75.136603 96.025816 
L 75.168022 91.91041 
L 75.246568 95.202735 
L 75.28846 95.202735 
L 75.403662 98.495059 
L 75.445553 98.495059 
L 75.560755 101.787384 
L 75.738794 101.787384 
L 75.853996 100.964303 
L 76.115819 100.964303 
L 76.231021 104.256627 
L 76.24673 104.256627 
L 76.325277 103.433546 
L 76.330513 106.72587 
L 76.340986 106.72587 
L 76.660409 106.72587 
L 76.775611 105.628429 
L 76.843685 105.628429 
L 76.958887 104.805348 
L 77.136926 104.805348 
L 77.252128 108.097672 
L 77.477295 108.097672 
L 77.524423 107.000231 
L 77.52966 110.292555 
L 77.576788 110.292555 
L 78.435565 110.292555 
L 78.550767 113.58488 
L 78.817826 113.58488 
L 78.906845 107.000231 
L 78.933028 110.292555 
L 79.126776 110.292555 
L 79.241978 113.58488 
L 79.980317 113.58488 
L 80.095519 116.877204 
L 80.441125 116.877204 
L 80.556327 112.487438 
L 80.582509 112.487438 
L 80.697711 115.779763 
L 81.467469 115.779763 
L 81.58267 114.682321 
L 81.776419 114.682321 
L 81.870675 113.85924 
L 81.985877 117.151565 
L 82.101079 113.85924 
L 82.441448 113.85924 
L 82.55665 117.151565 
L 82.8656 117.151565 
L 82.980802 113.85924 
L 83.080295 113.85924 
L 83.195496 117.151565 
L 84.159003 117.151565 
L 84.274205 113.85924 
L 84.295151 113.85924 
L 84.410352 117.151565 
L 84.598865 117.151565 
L 84.714066 113.85924 
L 84.761194 113.85924 
L 84.876396 117.151565 
L 85.389568 117.151565 
L 85.50477 120.443889 
L 86.871483 120.443889 
L 86.986685 123.736213 
L 89.66251 123.736213 
L 89.777712 123.077749 
L 89.892914 123.077749 
L 90.008115 126.370073 
L 91.071114 126.370073 
L 91.186316 129.662397 
L 93.432752 129.662397 
L 93.547954 132.954722 
L 96.799789 132.954722 
L 96.91499 129.662397 
L 97.998935 129.662397 
L 98.114137 128.839316 
L 103.041635 128.839316 
L 103.156837 132.131641 
L 104.314092 132.131641 
L 104.429293 128.839316 
L 105.53942 128.839316 
L 105.654622 132.131641 
L 112.844266 132.131641 
L 112.959467 135.423965 
L 114.085304 135.423965 
L 114.200506 134.600884 
L 115.347288 134.600884 
L 115.46249 131.30856 
L 123.186251 131.30856 
L 123.301452 134.600884 
L 124.579146 134.600884 
L 124.694348 131.30856 
L 125.668327 131.30856 
L 125.783529 134.600884 
L 128.972526 134.600884 
L 129.087728 131.30856 
L 130.203091 131.30856 
L 130.318293 134.600884 
L 137.099493 134.600884 
L 137.214695 133.777803 
L 143.891166 133.777803 
L 144.006368 137.070127 
L 147.017326 137.070127 
L 147.132528 140.362452 
L 156.620972 140.362452 
L 156.736174 137.070127 
L 172.120858 137.070127 
L 172.23606 133.777803 
L 175.220835 133.777803 
L 175.278436 132.954722 
L 175.283673 136.247046 
L 175.315091 136.247046 
L 179.048679 136.247046 
L 179.163881 139.539371 
L 183.065035 139.539371 
L 183.180236 138.71629 
L 201.764391 138.71629 
L 201.879593 135.423965 
L 201.989558 135.423965 
L 202.10476 138.71629 
L 202.82739 138.71629 
L 202.942592 142.008614 
L 207.911981 142.008614 
L 208.027183 138.71629 
L 208.749812 138.71629 
L 208.865014 142.008614 
L 213.033227 142.008614 
L 213.148429 145.300938 
L 230.847623 145.300938 
L 230.962825 142.008614 
L 232.648962 142.008614 
L 232.764163 145.300938 
L 236.497751 145.300938 
L 236.612953 144.477857 
L 251.960982 144.477857 
L 252.076184 147.770182 
L 253.065873 147.770182 
L 253.181075 144.477857 
L 253.746611 144.477857 
L 253.861813 141.185533 
L 253.971778 141.185533 
L 254.08698 144.477857 
L 254.940521 144.477857 
L 255.055723 147.770182 
L 259.192517 147.770182 
L 259.307719 146.947101 
L 270.560846 146.947101 
L 270.676048 143.654776 
L 274.304906 143.654776 
L 274.420108 146.947101 
L 278.310789 146.947101 
L 278.425991 143.654776 
L 281.630697 143.654776 
L 281.745899 146.947101 
L 283.091666 146.947101 
L 283.206868 143.654776 
L 283.908552 143.654776 
L 284.023754 146.947101 
L 287.830652 146.947101 
L 287.945853 150.239425 
L 314.939743 150.239425 
L 315.054945 153.53175 
L 344.818916 153.53175 
L 344.934118 150.239425 
L 349.982054 150.239425 
L 350.097256 149.141984 
L 351.238802 149.141984 
L 351.354003 145.849659 
L 352.385584 145.849659 
L 352.500786 149.141984 
L 352.919701 149.141984 
L 353.034903 148.318903 
L 353.176287 148.318903 
L 353.291489 151.611227 
L 355.810221 151.611227 
L 355.925423 154.903551 
L 379.850754 154.903551 
L 379.965956 151.611227 
L 380.03403 151.611227 
L 380.149231 154.903551 
L 392.968056 154.903551 
L 393.083258 151.611227 
L 393.59643 151.611227 
L 393.711632 150.788146 
L 396.932048 150.788146 
L 397.04725 154.08047 
L 398.487273 154.08047 
L 398.487273 154.08047 
" clip-path="url(#p097eadbd04)" style="fill: none; stroke: #ff7f0e; stroke-width: 1.5; stroke-linecap: square"/>
   </g>
   <g id="line2d_13">
    <path d="M 73.832727 63.925653 
L 73.837964 63.925653 
L 73.8432 63.102572 
L 73.848437 66.394896 
L 73.942693 64.474373 
L 73.953166 64.474373 
L 73.989821 61.73077 
L 74.047422 68.315419 
L 74.089313 74.900068 
L 74.16786 74.351347 
L 74.235934 74.351347 
L 74.335426 80.935996 
L 74.351136 77.643671 
L 74.419209 77.643671 
L 74.544884 87.520645 
L 74.592012 87.520645 
L 74.644377 85.874482 
L 74.649613 89.166807 
L 74.696741 89.166807 
L 74.743869 89.166807 
L 74.87478 84.777041 
L 74.911436 84.777041 
L 75.026637 88.069365 
L 75.147076 88.069365 
L 75.262278 91.36169 
L 75.27275 91.36169 
L 75.387952 89.715527 
L 75.393189 89.715527 
L 75.508391 93.007852 
L 75.738794 93.007852 
L 75.785922 96.300176 
L 75.84876 94.654014 
L 76.24673 94.654014 
L 76.361932 97.946339 
L 76.435242 97.946339 
L 76.550444 96.300176 
L 76.581863 96.300176 
L 76.660409 94.654014 
L 76.665646 97.946339 
L 76.686591 97.946339 
L 76.843685 97.946339 
L 76.958887 101.238663 
L 77.477295 101.238663 
L 77.592497 100.141222 
L 78.210398 100.141222 
L 78.3256 98.495059 
L 79.022047 98.495059 
L 79.137249 101.787384 
L 79.294343 101.787384 
L 79.409544 100.141222 
L 79.577111 100.141222 
L 79.692313 98.495059 
L 79.896534 98.495059 
L 80.011736 96.848897 
L 80.524908 96.848897 
L 80.64011 95.751456 
L 81.467469 95.751456 
L 81.58267 99.04378 
L 81.776419 99.04378 
L 81.891621 102.336105 
L 84.850214 102.336105 
L 84.965416 105.628429 
L 89.66251 105.628429 
L 89.777712 104.969964 
L 91.563341 104.969964 
L 91.678542 103.323802 
L 92.244079 103.323802 
L 92.359281 106.616126 
L 97.998935 106.616126 
L 98.114137 109.908451 
L 112.02738 109.908451 
L 112.142582 108.262289 
L 113.289364 108.262289 
L 113.404566 106.616126 
L 114.085304 106.616126 
L 114.200506 109.908451 
L 130.260692 109.908451 
L 130.375894 113.200775 
L 137.099493 113.200775 
L 137.214695 116.4931 
L 175.220835 116.4931 
L 175.336037 119.785424 
L 183.065035 119.785424 
L 183.180236 123.077749 
L 236.497751 123.077749 
L 236.612953 126.370073 
L 259.192517 126.370073 
L 259.307719 129.662397 
L 285.254319 129.662397 
L 285.369521 129.003932 
L 349.982054 129.003932 
L 350.097256 132.296257 
L 352.919701 132.296257 
L 353.034903 135.588581 
L 393.59643 135.588581 
L 393.711632 138.880906 
L 398.487273 138.880906 
L 398.487273 138.880906 
" clip-path="url(#p097eadbd04)" style="fill: none; stroke: #2ca02c; stroke-width: 1.5; stroke-linecap: square"/>
   </g>
   <g id="line2d_14">
    <path d="M 73.832727 63.925653 
L 73.947929 63.102572 
L 74.042185 63.102572 
L 74.157387 59.810247 
L 74.220224 63.102572 
L 74.267352 60.633328 
L 74.31448 60.633328 
L 74.335426 58.987166 
L 74.340663 62.27949 
L 74.419209 62.27949 
L 74.482047 62.27949 
L 74.597249 61.456409 
L 74.81718 61.456409 
L 74.911436 68.041058 
L 74.932381 65.846175 
L 75.026637 65.846175 
L 75.141839 64.748734 
L 75.147076 64.748734 
L 75.262278 63.925653 
L 75.466499 63.925653 
L 75.581701 62.828211 
L 75.738794 62.828211 
L 75.785922 62.00513 
L 75.791159 65.297455 
L 75.83305 65.297455 
L 76.24673 65.297455 
L 76.361932 64.474373 
L 76.435242 64.474373 
L 76.550444 67.766698 
L 76.581863 67.766698 
L 76.697064 71.059022 
L 76.843685 71.059022 
L 76.958887 70.235941 
L 77.267837 70.235941 
L 77.383039 69.1385 
L 77.938103 69.1385 
L 78.053304 68.041058 
L 78.210398 68.041058 
L 78.3256 71.333383 
L 79.294343 71.333383 
L 79.409544 74.625707 
L 79.509037 74.625707 
L 79.577111 73.528266 
L 79.582347 76.82059 
L 79.60853 76.82059 
L 79.786569 76.82059 
L 79.896534 75.723149 
L 80.011736 79.015473 
L 80.210721 79.015473 
L 80.325923 77.918032 
L 80.441125 77.918032 
L 80.556327 81.210356 
L 80.603455 81.210356 
L 80.718657 80.112915 
L 82.8656 80.112915 
L 82.980802 83.405239 
L 84.127584 83.405239 
L 84.159003 82.307797 
L 84.164239 85.600122 
L 84.227077 85.600122 
L 84.232313 85.600122 
L 84.347515 84.50268 
L 85.26913 84.50268 
L 85.389568 82.307797 
L 86.473513 82.307797 
L 86.588715 81.210356 
L 92.113168 81.210356 
L 92.228369 80.387275 
L 93.291368 80.387275 
L 93.40657 79.289833 
L 96.789316 79.289833 
L 96.904518 82.582158 
L 102.51799 82.582158 
L 102.633192 81.484716 
L 107.571162 81.484716 
L 107.686364 80.387275 
L 112.02738 80.387275 
L 112.142582 83.679599 
L 115.347288 83.679599 
L 115.46249 86.971924 
L 115.493908 86.971924 
L 115.60911 85.874482 
L 124.579146 85.874482 
L 124.694348 89.166807 
L 126.092479 89.166807 
L 126.207681 88.069365 
L 128.972526 88.069365 
L 129.087728 91.36169 
L 137.099493 91.36169 
L 137.214695 90.538609 
L 144.278663 90.538609 
L 144.393865 89.441167 
L 145.095549 89.441167 
L 145.210751 88.343726 
L 156.620972 88.343726 
L 156.736174 91.63605 
L 172.120858 91.63605 
L 172.23606 94.928375 
L 175.220835 94.928375 
L 175.336037 94.105293 
L 179.085334 94.105293 
L 179.200536 93.282212 
L 183.065035 93.282212 
L 183.180236 92.459131 
L 204.18363 92.459131 
L 204.298832 91.36169 
L 215.928983 91.36169 
L 216.044185 90.264248 
L 225.281279 90.264248 
L 225.396481 93.556573 
L 229.585639 93.556573 
L 229.700841 92.459131 
L 230.847623 92.459131 
L 230.962825 95.751456 
L 235.811776 95.751456 
L 235.926978 94.654014 
L 236.497751 94.654014 
L 236.612953 93.830933 
L 237.749262 93.830933 
L 237.864464 92.733492 
L 253.065873 92.733492 
L 253.181075 96.025816 
L 253.746611 96.025816 
L 253.861813 99.31814 
L 259.192517 99.31814 
L 259.307719 98.495059 
L 268.481976 98.495059 
L 268.597178 97.397618 
L 283.091666 97.397618 
L 283.206868 100.689942 
L 284.563108 100.689942 
L 284.67831 99.592501 
L 309.294852 99.592501 
L 309.410054 98.76942 
L 313.541612 98.76942 
L 313.656814 97.671978 
L 344.818916 97.671978 
L 344.934118 100.964303 
L 351.238802 100.964303 
L 351.354003 104.256627 
L 352.919701 104.256627 
L 353.034903 103.433546 
L 356.024915 103.433546 
L 356.140117 101.513023 
L 392.968056 101.513023 
L 393.083258 104.805348 
L 393.59643 104.805348 
L 393.711632 103.982267 
L 395.607226 103.982267 
L 395.722428 102.884825 
L 398.487273 102.884825 
L 398.487273 102.884825 
" clip-path="url(#p097eadbd04)" style="fill: none; stroke: #d62728; stroke-width: 1.5; stroke-linecap: square"/>
   </g>
   <g id="line2d_15">
    <path d="M 73.832727 63.925653 
L 73.890328 63.925653 
L 74.016003 60.084608 
L 74.042185 60.084608 
L 74.089313 66.669256 
L 74.157387 63.925653 
L 74.235934 63.925653 
L 74.335426 70.510302 
L 74.351136 67.217977 
L 74.592012 67.217977 
L 74.707214 65.571815 
L 74.743869 65.571815 
L 74.87478 61.182049 
L 75.785922 61.182049 
L 75.901124 59.535887 
L 76.435242 59.535887 
L 76.550444 57.889725 
L 76.581863 57.889725 
L 76.697064 56.243562 
L 78.210398 56.243562 
L 78.3256 54.5974 
L 79.294343 54.5974 
L 79.409544 52.951238 
L 79.577111 52.951238 
L 79.692313 51.305076 
L 79.896534 51.305076 
L 80.011736 49.658913 
L 112.02738 49.658913 
L 112.142582 48.012751 
L 398.487273 48.012751 
L 398.487273 48.012751 
" clip-path="url(#p097eadbd04)" style="fill: none; stroke: #9467bd; stroke-width: 1.5; stroke-linecap: square"/>
   </g>
   <g id="line2d_16">
    <path d="M 73.832727 63.925653 
L 73.837964 63.925653 
L 73.958402 62.27949 
L 76.461424 62.27949 
L 76.576626 61.456409 
L 89.66251 61.456409 
L 89.777712 60.797944 
L 285.254319 60.797944 
L 285.369521 60.13948 
L 398.487273 60.13948 
L 398.487273 60.13948 
" clip-path="url(#p097eadbd04)" style="fill: none; stroke: #8c564b; stroke-width: 1.5; stroke-linecap: square"/>
   </g>
   <g id="line2d_17">
    <path d="M 73.832727 63.925653 
L 73.837964 63.102572 
L 73.85891 72.979545 
L 73.879855 72.979545 
L 73.989821 76.271869 
L 74.099786 75.448788 
L 74.220224 85.325762 
L 74.230697 84.50268 
L 74.235934 87.795005 
L 74.31448 87.795005 
L 74.644377 87.795005 
L 74.743869 86.971924 
L 74.859071 90.264248 
L 75.241332 90.264248 
L 75.27275 88.618086 
L 75.277987 91.91041 
L 75.346061 91.91041 
L 76.461424 91.91041 
L 76.576626 95.202735 
L 77.477295 95.202735 
L 77.592497 98.495059 
L 80.441125 98.495059 
L 80.561563 105.079708 
L 81.776419 105.079708 
L 81.891621 104.256627 
L 82.8656 104.256627 
L 82.980802 107.548952 
L 84.159003 107.548952 
L 84.274205 110.841276 
L 89.66251 110.841276 
L 89.777712 114.1336 
L 92.113168 114.1336 
L 92.228369 113.310519 
L 96.789316 113.310519 
L 96.904518 116.602844 
L 97.998935 116.602844 
L 98.114137 115.779763 
L 114.085304 115.779763 
L 114.200506 114.956682 
L 115.347288 114.956682 
L 115.46249 118.249006 
L 124.579146 118.249006 
L 124.694348 121.54133 
L 128.972526 121.54133 
L 129.087728 124.833655 
L 156.620972 124.833655 
L 156.736174 128.125979 
L 172.120858 128.125979 
L 172.23606 131.418304 
L 179.085334 131.418304 
L 179.200536 130.595223 
L 225.281279 130.595223 
L 225.396481 133.887547 
L 230.847623 133.887547 
L 230.962825 137.179872 
L 253.065873 137.179872 
L 253.181075 140.472196 
L 253.746611 140.472196 
L 253.861813 143.76452 
L 283.091666 143.76452 
L 283.206868 147.056845 
L 285.254319 147.056845 
L 285.369521 150.349169 
L 295.433974 150.349169 
L 295.549176 148.703007 
L 309.294852 148.703007 
L 309.410054 147.879926 
L 344.818916 147.879926 
L 344.934118 151.17225 
L 351.238802 151.17225 
L 351.354003 154.464575 
L 356.040624 154.464575 
L 356.155826 153.641494 
L 392.968056 153.641494 
L 393.083258 156.933818 
L 398.487273 156.933818 
L 398.487273 156.933818 
" clip-path="url(#p097eadbd04)" style="fill: none; stroke: #e377c2; stroke-width: 1.5; stroke-linecap: square"/>
   </g>
   <g id="line2d_18">
    <path d="M 73.832727 63.925653 
L 73.837964 63.925653 
L 73.979348 58.987166 
L 74.194042 58.987166 
L 74.309244 55.694842 
L 75.27275 55.694842 
L 75.387952 54.048679 
L 76.461424 54.048679 
L 76.576626 53.225598 
L 89.66251 53.225598 
L 89.777712 52.567133 
L 285.254319 52.567133 
L 285.369521 51.908668 
L 398.487273 51.908668 
L 398.487273 51.908668 
" clip-path="url(#p097eadbd04)" style="fill: none; stroke: #7f7f7f; stroke-width: 1.5; stroke-linecap: square"/>
   </g>
   <g id="line2d_19">
    <path d="M 73.832727 63.925653 
L 73.837964 63.102572 
L 73.85891 71.882103 
L 73.890328 71.882103 
L 73.989821 78.466752 
L 74.00553 77.643671 
L 74.057895 77.643671 
L 74.099786 76.54623 
L 74.105023 79.838554 
L 74.157387 78.192392 
L 74.272589 83.95396 
L 74.419209 83.95396 
L 74.539648 79.838554 
L 74.644377 79.838554 
L 74.743869 79.015473 
L 74.859071 82.307797 
L 74.911436 82.307797 
L 75.03711 79.015473 
L 75.147076 79.015473 
L 75.27275 76.54623 
L 75.387952 79.838554 
L 75.393189 79.838554 
L 75.508391 77.09495 
L 75.738794 77.09495 
L 75.853996 76.271869 
L 76.24673 76.271869 
L 76.361932 75.448788 
L 76.461424 75.448788 
L 76.576626 78.741113 
L 76.660409 78.741113 
L 76.775611 77.643671 
L 76.843685 77.643671 
L 76.958887 76.82059 
L 77.267837 76.82059 
L 77.383039 75.723149 
L 77.477295 75.723149 
L 77.592497 79.015473 
L 77.938103 79.015473 
L 78.053304 77.918032 
L 79.022047 77.918032 
L 79.137249 76.271869 
L 79.509037 76.271869 
L 79.624239 75.174428 
L 79.786569 75.174428 
L 79.901771 74.076986 
L 80.210721 74.076986 
L 80.325923 72.979545 
L 80.441125 72.979545 
L 80.561563 79.564194 
L 80.603455 79.564194 
L 80.718657 78.466752 
L 81.467469 78.466752 
L 81.58267 77.369311 
L 81.776419 77.369311 
L 81.891621 76.54623 
L 82.8656 76.54623 
L 82.980802 79.838554 
L 84.127584 79.838554 
L 84.159003 78.741113 
L 84.164239 82.033437 
L 84.227077 82.033437 
L 84.232313 82.033437 
L 84.347515 80.935996 
L 84.850214 80.935996 
L 84.965416 79.289833 
L 85.26913 79.289833 
L 85.389568 77.09495 
L 86.473513 77.09495 
L 86.588715 75.997509 
L 89.66251 75.997509 
L 89.777712 79.289833 
L 91.563341 79.289833 
L 91.678542 82.582158 
L 92.113168 82.582158 
L 92.228369 81.759077 
L 92.244079 81.759077 
L 92.359281 80.112915 
L 93.291368 80.112915 
L 93.40657 79.015473 
L 96.789316 79.015473 
L 96.904518 82.307797 
L 97.998935 82.307797 
L 98.114137 81.484716 
L 102.51799 81.484716 
L 102.633192 80.387275 
L 107.571162 80.387275 
L 107.686364 79.289833 
L 113.289364 79.289833 
L 113.404566 82.582158 
L 114.085304 82.582158 
L 114.200506 81.759077 
L 115.347288 81.759077 
L 115.46249 85.051401 
L 115.493908 85.051401 
L 115.60911 83.95396 
L 124.579146 83.95396 
L 124.694348 87.246284 
L 126.092479 87.246284 
L 126.207681 86.148843 
L 126.904129 86.148843 
L 127.019331 84.50268 
L 128.972526 84.50268 
L 129.087728 87.795005 
L 130.260692 87.795005 
L 130.375894 86.148843 
L 137.099493 86.148843 
L 137.214695 85.325762 
L 144.278663 85.325762 
L 144.393865 84.22832 
L 145.095549 84.22832 
L 145.210751 83.130879 
L 156.620972 83.130879 
L 156.736174 86.423203 
L 172.120858 86.423203 
L 172.23606 89.715527 
L 175.220835 89.715527 
L 175.336037 88.892446 
L 179.085334 88.892446 
L 179.200536 88.069365 
L 183.065035 88.069365 
L 183.180236 87.246284 
L 204.18363 87.246284 
L 204.298832 86.148843 
L 215.928983 86.148843 
L 216.044185 85.051401 
L 225.281279 85.051401 
L 225.396481 88.343726 
L 229.585639 88.343726 
L 229.700841 87.246284 
L 230.847623 87.246284 
L 230.962825 90.538609 
L 235.811776 90.538609 
L 235.926978 89.441167 
L 236.497751 89.441167 
L 236.612953 88.618086 
L 237.749262 88.618086 
L 237.864464 87.520645 
L 253.065873 87.520645 
L 253.181075 90.812969 
L 253.746611 90.812969 
L 253.861813 94.105293 
L 259.192517 94.105293 
L 259.307719 93.282212 
L 268.481976 93.282212 
L 268.597178 92.184771 
L 283.091666 92.184771 
L 283.206868 95.477095 
L 284.563108 95.477095 
L 284.67831 94.379654 
L 285.254319 94.379654 
L 285.369521 97.671978 
L 295.433974 97.671978 
L 295.549176 96.025816 
L 309.294852 96.025816 
L 309.410054 95.202735 
L 313.541612 95.202735 
L 313.656814 94.105293 
L 344.818916 94.105293 
L 344.934118 97.397618 
L 349.982054 97.397618 
L 350.097256 96.300176 
L 351.238802 96.300176 
L 351.354003 99.592501 
L 352.919701 99.592501 
L 353.034903 98.76942 
L 356.024915 98.76942 
L 356.140117 96.848897 
L 392.968056 96.848897 
L 393.083258 100.141222 
L 393.59643 100.141222 
L 393.711632 99.31814 
L 395.607226 99.31814 
L 395.722428 98.220699 
L 398.487273 98.220699 
L 398.487273 98.220699 
" clip-path="url(#p097eadbd04)" style="fill: none; stroke: #bcbd22; stroke-width: 1.5; stroke-linecap: square"/>
   </g>
   <g id="line2d_20">
    <path d="M 73.832727 63.925653 
L 73.958402 74.351347 
L 73.984584 74.351347 
L 73.989821 77.643671 
L 74.063131 72.430824 
L 74.09455 75.723149 
L 74.099786 75.723149 
L 74.146914 82.307797 
L 74.209752 77.369311 
L 74.220224 77.369311 
L 74.235934 79.838554 
L 74.335426 76.54623 
L 74.419209 83.130879 
L 74.450628 81.484716 
L 74.482047 81.484716 
L 74.592012 79.015473 
L 74.644377 82.307797 
L 74.701978 81.484716 
L 74.743869 81.484716 
L 74.869544 91.36169 
L 74.911436 91.36169 
L 75.03711 88.069365 
L 75.147076 88.069365 
L 75.241332 87.246284 
L 75.36177 93.830933 
L 75.393189 93.830933 
L 75.508391 91.087329 
L 75.738794 91.087329 
L 75.785922 90.264248 
L 75.791159 93.556573 
L 75.83305 93.556573 
L 76.24673 93.556573 
L 76.361932 92.733492 
L 76.435242 92.733492 
L 76.461424 96.025816 
L 76.545207 95.202735 
L 76.581863 95.202735 
L 76.660409 98.495059 
L 76.691828 97.397618 
L 76.843685 97.397618 
L 76.958887 96.574537 
L 77.267837 96.574537 
L 77.383039 95.477095 
L 77.477295 95.477095 
L 77.592497 98.76942 
L 77.938103 98.76942 
L 78.053304 97.671978 
L 78.210398 97.671978 
L 78.3256 100.964303 
L 79.022047 100.964303 
L 79.137249 99.31814 
L 79.294343 99.31814 
L 79.409544 102.610465 
L 79.509037 102.610465 
L 79.577111 101.513023 
L 79.582347 104.805348 
L 79.60853 104.805348 
L 79.786569 104.805348 
L 79.896534 103.707906 
L 80.011736 107.000231 
L 80.210721 107.000231 
L 80.325923 105.902789 
L 80.441125 105.902789 
L 80.561563 112.487438 
L 80.603455 112.487438 
L 80.718657 111.389997 
L 81.467469 111.389997 
L 81.58267 110.292555 
L 81.776419 110.292555 
L 81.891621 109.469474 
L 82.8656 109.469474 
L 82.980802 112.761799 
L 84.127584 112.761799 
L 84.159003 111.664357 
L 84.164239 114.956682 
L 84.227077 114.956682 
L 84.232313 114.956682 
L 84.347515 113.85924 
L 84.850214 113.85924 
L 84.965416 112.213078 
L 85.26913 112.213078 
L 85.389568 110.018195 
L 86.473513 110.018195 
L 86.588715 108.920753 
L 89.66251 108.920753 
L 89.777712 112.213078 
L 91.563341 112.213078 
L 91.678542 115.505402 
L 92.113168 115.505402 
L 92.228369 114.682321 
L 92.244079 114.682321 
L 92.359281 113.036159 
L 93.291368 113.036159 
L 93.40657 111.938717 
L 96.789316 111.938717 
L 96.904518 115.231042 
L 97.998935 115.231042 
L 98.114137 114.407961 
L 102.51799 114.407961 
L 102.633192 113.310519 
L 107.571162 113.310519 
L 107.686364 112.213078 
L 112.02738 112.213078 
L 112.142582 115.505402 
L 113.289364 115.505402 
L 113.404566 118.797727 
L 114.085304 118.797727 
L 114.200506 117.974646 
L 115.347288 117.974646 
L 115.46249 121.26697 
L 115.493908 121.26697 
L 115.60911 120.169529 
L 124.579146 120.169529 
L 124.694348 123.461853 
L 126.092479 123.461853 
L 126.207681 122.364412 
L 126.904129 122.364412 
L 127.019331 120.718249 
L 128.972526 120.718249 
L 129.087728 124.010574 
L 130.260692 124.010574 
L 130.375894 122.364412 
L 137.099493 122.364412 
L 137.214695 121.54133 
L 144.278663 121.54133 
L 144.393865 120.443889 
L 145.095549 120.443889 
L 145.210751 119.346447 
L 156.620972 119.346447 
L 156.736174 122.638772 
L 172.120858 122.638772 
L 172.23606 125.931096 
L 175.220835 125.931096 
L 175.336037 125.108015 
L 179.085334 125.108015 
L 179.200536 124.284934 
L 183.065035 124.284934 
L 183.180236 123.461853 
L 204.18363 123.461853 
L 204.298832 122.364412 
L 215.928983 122.364412 
L 216.044185 121.26697 
L 225.281279 121.26697 
L 225.396481 124.559295 
L 229.585639 124.559295 
L 229.700841 123.461853 
L 230.847623 123.461853 
L 230.962825 126.754177 
L 235.811776 126.754177 
L 235.926978 125.656736 
L 236.497751 125.656736 
L 236.612953 124.833655 
L 237.749262 124.833655 
L 237.864464 123.736213 
L 253.065873 123.736213 
L 253.181075 127.028538 
L 253.746611 127.028538 
L 253.861813 130.320862 
L 259.192517 130.320862 
L 259.307719 129.497781 
L 268.481976 129.497781 
L 268.597178 128.40034 
L 283.091666 128.40034 
L 283.206868 131.692664 
L 284.563108 131.692664 
L 284.67831 130.595223 
L 285.254319 130.595223 
L 285.369521 129.936758 
L 295.433974 129.936758 
L 295.549176 133.229082 
L 309.294852 133.229082 
L 309.410054 132.406001 
L 313.541612 132.406001 
L 313.656814 131.30856 
L 344.818916 131.30856 
L 344.934118 134.600884 
L 349.982054 134.600884 
L 350.097256 133.503443 
L 351.238802 133.503443 
L 351.354003 136.795767 
L 352.919701 136.795767 
L 353.034903 135.972686 
L 356.024915 135.972686 
L 356.140117 134.052163 
L 392.968056 134.052163 
L 393.083258 137.344488 
L 393.59643 137.344488 
L 393.711632 136.521407 
L 395.607226 136.521407 
L 395.722428 135.423965 
L 398.487273 135.423965 
L 398.487273 135.423965 
" clip-path="url(#p097eadbd04)" style="fill: none; stroke: #17becf; stroke-width: 1.5; stroke-linecap: square"/>
   </g>
   <g id="line2d_21">
    <path d="M 73.832727 63.925653 
L 73.837964 63.925653 
L 73.958402 70.510302 
L 76.461424 70.510302 
L 76.576626 73.802626 
L 89.66251 73.802626 
L 89.777712 77.09495 
L 285.254319 77.09495 
L 285.369521 80.387275 
L 398.487273 80.387275 
L 398.487273 80.387275 
" clip-path="url(#p097eadbd04)" style="fill: none; stroke: #1f77b4; stroke-width: 1.5; stroke-linecap: square"/>
   </g>
   <g id="line2d_22">
    <path d="M 73.832727 63.925653 
L 73.848437 63.925653 
L 73.984584 59.810247 
L 73.989821 59.810247 
L 74.105023 63.102572 
L 74.214988 63.102572 
L 74.220224 59.810247 
L 74.235934 66.394896 
L 74.319717 66.394896 
L 74.482047 66.394896 
L 74.597249 69.68722 
L 74.644377 69.68722 
L 74.743869 72.979545 
L 74.754342 71.882103 
L 74.921908 71.882103 
L 75.042347 78.466752 
L 75.136603 78.466752 
L 75.168022 85.051401 
L 75.251805 81.759077 
L 75.27275 81.759077 
L 75.28846 85.051401 
L 75.382716 81.759077 
L 75.445553 81.759077 
L 75.466499 78.466752 
L 75.555519 81.759077 
L 75.738794 81.759077 
L 75.853996 85.051401 
L 76.115819 85.051401 
L 76.231021 81.759077 
L 76.24673 81.759077 
L 76.325277 85.051401 
L 76.356695 81.759077 
L 76.843685 81.759077 
L 76.958887 85.051401 
L 77.136926 85.051401 
L 77.252128 81.759077 
L 77.267837 81.759077 
L 77.383039 85.051401 
L 77.477295 85.051401 
L 77.524423 88.343726 
L 77.587261 85.051401 
L 77.938103 85.051401 
L 78.053304 88.343726 
L 78.435565 88.343726 
L 78.550767 85.051401 
L 78.817826 85.051401 
L 78.906845 91.63605 
L 78.933028 88.343726 
L 79.126776 88.343726 
L 79.241978 85.051401 
L 79.509037 85.051401 
L 79.624239 88.343726 
L 79.786569 88.343726 
L 79.901771 91.63605 
L 79.980317 91.63605 
L 80.095519 88.343726 
L 80.210721 88.343726 
L 80.325923 91.63605 
L 80.524908 91.63605 
L 80.64011 94.928375 
L 81.776419 94.928375 
L 81.870675 98.220699 
L 81.886384 94.928375 
L 81.985877 94.928375 
L 82.101079 98.220699 
L 82.441448 98.220699 
L 82.55665 94.928375 
L 83.080295 94.928375 
L 83.195496 91.63605 
L 84.127584 91.63605 
L 84.248023 98.220699 
L 84.295151 98.220699 
L 84.410352 94.928375 
L 84.598865 94.928375 
L 84.714066 98.220699 
L 84.761194 98.220699 
L 84.876396 94.928375 
L 85.26913 94.928375 
L 85.389568 101.513023 
L 85.50477 98.220699 
L 86.473513 98.220699 
L 86.588715 101.513023 
L 86.871483 101.513023 
L 86.986685 98.220699 
L 89.66251 98.220699 
L 89.777712 101.513023 
L 89.892914 101.513023 
L 90.008115 98.220699 
L 91.071114 98.220699 
L 91.186316 94.928375 
L 92.113168 94.928375 
L 92.228369 98.220699 
L 93.291368 98.220699 
L 93.40657 101.513023 
L 93.432752 101.513023 
L 93.547954 98.220699 
L 96.789316 98.220699 
L 96.799789 94.928375 
L 96.899281 98.220699 
L 97.998935 98.220699 
L 98.114137 101.513023 
L 102.51799 101.513023 
L 102.633192 104.805348 
L 103.041635 104.805348 
L 103.156837 101.513023 
L 104.314092 101.513023 
L 104.429293 104.805348 
L 105.53942 104.805348 
L 105.654622 101.513023 
L 107.571162 101.513023 
L 107.686364 104.805348 
L 112.844266 104.805348 
L 112.959467 101.513023 
L 114.085304 101.513023 
L 114.200506 104.805348 
L 115.493908 104.805348 
L 115.60911 108.097672 
L 123.186251 108.097672 
L 123.301452 104.805348 
L 125.668327 104.805348 
L 125.783529 101.513023 
L 126.092479 101.513023 
L 126.207681 104.805348 
L 126.904129 104.805348 
L 127.019331 108.097672 
L 130.203091 108.097672 
L 130.318293 104.805348 
L 137.099493 104.805348 
L 137.214695 108.097672 
L 143.891166 108.097672 
L 144.006368 104.805348 
L 144.278663 104.805348 
L 144.393865 108.097672 
L 145.095549 108.097672 
L 145.210751 111.389997 
L 147.017326 111.389997 
L 147.132528 108.097672 
L 175.220835 108.097672 
L 175.278436 111.389997 
L 175.330801 108.097672 
L 179.048679 108.097672 
L 179.085334 104.805348 
L 179.158644 108.097672 
L 183.065035 108.097672 
L 183.180236 111.389997 
L 201.764391 111.389997 
L 201.879593 114.682321 
L 201.989558 114.682321 
L 202.10476 111.389997 
L 202.82739 111.389997 
L 202.942592 108.097672 
L 204.18363 108.097672 
L 204.298832 111.389997 
L 207.911981 111.389997 
L 208.027183 114.682321 
L 208.749812 114.682321 
L 208.865014 111.389997 
L 213.033227 111.389997 
L 213.148429 108.097672 
L 215.928983 108.097672 
L 216.044185 111.389997 
L 225.281279 111.389997 
L 225.396481 108.097672 
L 229.585639 108.097672 
L 229.700841 111.389997 
L 232.648962 111.389997 
L 232.764163 108.097672 
L 235.811776 108.097672 
L 235.926978 111.389997 
L 236.497751 111.389997 
L 236.612953 114.682321 
L 237.749262 114.682321 
L 237.864464 117.974646 
L 251.960982 117.974646 
L 252.076184 114.682321 
L 253.746611 114.682321 
L 253.861813 117.974646 
L 253.971778 117.974646 
L 254.08698 114.682321 
L 254.940521 114.682321 
L 255.055723 111.389997 
L 259.192517 111.389997 
L 259.307719 114.682321 
L 268.481976 114.682321 
L 268.597178 117.974646 
L 270.560846 117.974646 
L 270.676048 121.26697 
L 274.304906 121.26697 
L 274.420108 117.974646 
L 278.310789 117.974646 
L 278.425991 121.26697 
L 281.630697 121.26697 
L 281.745899 117.974646 
L 283.908552 117.974646 
L 284.023754 114.682321 
L 284.563108 114.682321 
L 284.67831 117.974646 
L 285.254319 117.974646 
L 285.369521 121.26697 
L 287.830652 121.26697 
L 287.945853 117.974646 
L 309.294852 117.974646 
L 309.410054 121.26697 
L 313.541612 121.26697 
L 313.656814 124.559295 
L 314.939743 124.559295 
L 315.054945 121.26697 
L 352.385584 121.26697 
L 352.500786 117.974646 
L 352.919701 117.974646 
L 353.034903 121.26697 
L 353.176287 121.26697 
L 353.291489 117.974646 
L 355.810221 117.974646 
L 355.925423 114.682321 
L 356.024915 114.682321 
L 356.145353 121.26697 
L 379.850754 121.26697 
L 379.965956 124.559295 
L 380.03403 124.559295 
L 380.149231 121.26697 
L 393.59643 121.26697 
L 393.711632 124.559295 
L 395.607226 124.559295 
L 395.722428 127.851619 
L 396.932048 127.851619 
L 397.04725 124.559295 
L 398.487273 124.559295 
L 398.487273 124.559295 
" clip-path="url(#p097eadbd04)" style="fill: none; stroke: #ff7f0e; stroke-width: 1.5; stroke-linecap: square"/>
   </g>
   <g id="patch_3">
    <path d="M 57.6 162.432 
L 57.6 41.472 
" style="fill: none; stroke: #000000; stroke-width: 0.8; stroke-linejoin: miter; stroke-linecap: square"/>
   </g>
   <g id="patch_4">
    <path d="M 414.72 162.432 
L 414.72 41.472 
" style="fill: none; stroke: #000000; stroke-width: 0.8; stroke-linejoin: miter; stroke-linecap: square"/>
   </g>
   <g id="patch_5">
    <path d="M 57.6 162.432 
L 414.72 162.432 
" style="fill: none; stroke: #000000; stroke-width: 0.8; stroke-linejoin: miter; stroke-linecap: square"/>
   </g>
   <g id="patch_6">
    <path d="M 57.6 41.472 
L 414.72 41.472 
" style="fill: none; stroke: #000000; stroke-width: 0.8; stroke-linejoin: miter; stroke-linecap: square"/>
   </g>
   <g id="text_11">
    <!-- WSP -->
    <g transform="translate(361.832136 46.970182)scale(0.08 -0.08)">
     <defs>
      <path id="DejaVuSans-57" d="M 213 4666 
L 850 4666 
L 1831 722 
L 2809 4666 
L 3519 4666 
L 4500 722 
L 5478 4666 
L 6119 4666 
L 4947 0 
L 4153 0 
L 3169 4050 
L 2175 0 
L 1381 0 
L 213 4666 
z
" transform="scale(0.015625)"/>
      <path id="DejaVuSans-53" d="M 3425 4513 
L 3425 3897 
Q 3066 4069 2747 4153 
Q 2428 4238 2131 4238 
Q 1616 4238 1336 4038 
Q 1056 3838 1056 3469 
Q 1056 3159 1242 3001 
Q 1428 2844 1947 2747 
L 2328 2669 
Q 3034 2534 3370 2195 
Q 3706 1856 3706 1288 
Q 3706 609 3251 259 
Q 2797 -91 1919 -91 
Q 1588 -91 1214 -16 
Q 841 59 441 206 
L 441 856 
Q 825 641 1194 531 
Q 1563 422 1919 422 
Q 2459 422 2753 634 
Q 3047 847 3047 1241 
Q 3047 1584 2836 1778 
Q 2625 1972 2144 2069 
L 1759 2144 
Q 1053 2284 737 2584 
Q 422 2884 422 3419 
Q 422 4038 858 4394 
Q 1294 4750 2059 4750 
Q 2388 4750 2728 4690 
Q 3069 4631 3425 4513 
z
" transform="scale(0.015625)"/>
      <path id="DejaVuSans-50" d="M 1259 4147 
L 1259 2394 
L 2053 2394 
Q 2494 2394 2734 2622 
Q 2975 2850 2975 3272 
Q 2975 3691 2734 3919 
Q 2494 4147 2053 4147 
L 1259 4147 
z
M 628 4666 
L 2053 4666 
Q 2838 4666 3239 4311 
Q 3641 3956 3641 3272 
Q 3641 2581 3239 2228 
Q 2838 1875 2053 1875 
L 1259 1875 
L 1259 0 
L 628 0 
L 628 4666 
z
" transform="scale(0.015625)"/>
     </defs>
     <use xlink:href="#DejaVuSans-57"/>
     <use xlink:href="#DejaVuSans-53" x="98.876953"/>
     <use xlink:href="#DejaVuSans-50" x="162.353516"/>
    </g>
   </g>
   <g id="text_12">
    <!-- Iambic -->
    <g transform="translate(361.832136 154.08047)scale(0.08 -0.08)">
     <defs>
      <path id="DejaVuSans-49" d="M 628 4666 
L 1259 4666 
L 1259 0 
L 628 0 
L 628 4666 
z
" transform="scale(0.015625)"/>
      <path id="DejaVuSans-61" d="M 2194 1759 
Q 1497 1759 1228 1600 
Q 959 1441 959 1056 
Q 959 750 1161 570 
Q 1363 391 1709 391 
Q 2188 391 2477 730 
Q 2766 1069 2766 1631 
L 2766 1759 
L 2194 1759 
z
M 3341 1997 
L 3341 0 
L 2766 0 
L 2766 531 
Q 2569 213 2275 61 
Q 1981 -91 1556 -91 
Q 1019 -91 701 211 
Q 384 513 384 1019 
Q 384 1609 779 1909 
Q 1175 2209 1959 2209 
L 2766 2209 
L 2766 2266 
Q 2766 2663 2505 2880 
Q 2244 3097 1772 3097 
Q 1472 3097 1187 3025 
Q 903 2953 641 2809 
L 641 3341 
Q 956 3463 1253 3523 
Q 1550 3584 1831 3584 
Q 2591 3584 2966 3190 
Q 3341 2797 3341 1997 
z
" transform="scale(0.015625)"/>
      <path id="DejaVuSans-6d" d="M 3328 2828 
Q 3544 3216 3844 3400 
Q 4144 3584 4550 3584 
Q 5097 3584 5394 3201 
Q 5691 2819 5691 2113 
L 5691 0 
L 5113 0 
L 5113 2094 
Q 5113 2597 4934 2840 
Q 4756 3084 4391 3084 
Q 3944 3084 3684 2787 
Q 3425 2491 3425 1978 
L 3425 0 
L 2847 0 
L 2847 2094 
Q 2847 2600 2669 2842 
Q 2491 3084 2119 3084 
Q 1678 3084 1418 2786 
Q 1159 2488 1159 1978 
L 1159 0 
L 581 0 
L 581 3500 
L 1159 3500 
L 1159 2956 
Q 1356 3278 1631 3431 
Q 1906 3584 2284 3584 
Q 2666 3584 2933 3390 
Q 3200 3197 3328 2828 
z
" transform="scale(0.015625)"/>
      <path id="DejaVuSans-62" d="M 3116 1747 
Q 3116 2381 2855 2742 
Q 2594 3103 2138 3103 
Q 1681 3103 1420 2742 
Q 1159 2381 1159 1747 
Q 1159 1113 1420 752 
Q 1681 391 2138 391 
Q 2594 391 2855 752 
Q 3116 1113 3116 1747 
z
M 1159 2969 
Q 1341 3281 1617 3432 
Q 1894 3584 2278 3584 
Q 2916 3584 3314 3078 
Q 3713 2572 3713 1747 
Q 3713 922 3314 415 
Q 2916 -91 2278 -91 
Q 1894 -91 1617 61 
Q 1341 213 1159 525 
L 1159 0 
L 581 0 
L 581 4863 
L 1159 4863 
L 1159 2969 
z
" transform="scale(0.015625)"/>
      <path id="DejaVuSans-69" d="M 603 3500 
L 1178 3500 
L 1178 0 
L 603 0 
L 603 3500 
z
M 603 4863 
L 1178 4863 
L 1178 4134 
L 603 4134 
L 603 4863 
z
" transform="scale(0.015625)"/>
      <path id="DejaVuSans-63" d="M 3122 3366 
L 3122 2828 
Q 2878 2963 2633 3030 
Q 2388 3097 2138 3097 
Q 1578 3097 1268 2742 
Q 959 2388 959 1747 
Q 959 1106 1268 751 
Q 1578 397 2138 397 
Q 2388 397 2633 464 
Q 2878 531 3122 666 
L 3122 134 
Q 2881 22 2623 -34 
Q 2366 -91 2075 -91 
Q 1284 -91 818 406 
Q 353 903 353 1747 
Q 353 2603 823 3093 
Q 1294 3584 2113 3584 
Q 2378 3584 2631 3529 
Q 2884 3475 3122 3366 
z
" transform="scale(0.015625)"/>
     </defs>
     <use xlink:href="#DejaVuSans-49"/>
     <use xlink:href="#DejaVuSans-61" x="29.492188"/>
     <use xlink:href="#DejaVuSans-6d" x="90.771484"/>
     <use xlink:href="#DejaVuSans-62" x="188.183594"/>
     <use xlink:href="#DejaVuSans-69" x="251.660156"/>
     <use xlink:href="#DejaVuSans-63" x="279.443359"/>
    </g>
   </g>
   <g id="text_13">
    <!-- Parse -->
    <g transform="translate(361.832136 138.880906)scale(0.08 -0.08)">
     <defs>
      <path id="DejaVuSans-72" d="M 2631 2963 
Q 2534 3019 2420 3045 
Q 2306 3072 2169 3072 
Q 1681 3072 1420 2755 
Q 1159 2438 1159 1844 
L 1159 0 
L 581 0 
L 581 3500 
L 1159 3500 
L 1159 2956 
Q 1341 3275 1631 3429 
Q 1922 3584 2338 3584 
Q 2397 3584 2469 3576 
Q 2541 3569 2628 3553 
L 2631 2963 
z
" transform="scale(0.015625)"/>
      <path id="DejaVuSans-73" d="M 2834 3397 
L 2834 2853 
Q 2591 2978 2328 3040 
Q 2066 3103 1784 3103 
Q 1356 3103 1142 2972 
Q 928 2841 928 2578 
Q 928 2378 1081 2264 
Q 1234 2150 1697 2047 
L 1894 2003 
Q 2506 1872 2764 1633 
Q 3022 1394 3022 966 
Q 3022 478 2636 193 
Q 2250 -91 1575 -91 
Q 1294 -91 989 -36 
Q 684 19 347 128 
L 347 722 
Q 666 556 975 473 
Q 1284 391 1588 391 
Q 1994 391 2212 530 
Q 2431 669 2431 922 
Q 2431 1156 2273 1281 
Q 2116 1406 1581 1522 
L 1381 1569 
Q 847 1681 609 1914 
Q 372 2147 372 2553 
Q 372 3047 722 3315 
Q 1072 3584 1716 3584 
Q 2034 3584 2315 3537 
Q 2597 3491 2834 3397 
z
" transform="scale(0.015625)"/>
      <path id="DejaVuSans-65" d="M 3597 1894 
L 3597 1613 
L 953 1613 
Q 991 1019 1311 708 
Q 1631 397 2203 397 
Q 2534 397 2845 478 
Q 3156 559 3463 722 
L 3463 178 
Q 3153 47 2828 -22 
Q 2503 -91 2169 -91 
Q 1331 -91 842 396 
Q 353 884 353 1716 
Q 353 2575 817 3079 
Q 1281 3584 2069 3584 
Q 2775 3584 3186 3129 
Q 3597 2675 3597 1894 
z
M 3022 2063 
Q 3016 2534 2758 2815 
Q 2500 3097 2075 3097 
Q 1594 3097 1305 2825 
Q 1016 2553 972 2059 
L 3022 2063 
z
" transform="scale(0.015625)"/>
     </defs>
     <use xlink:href="#DejaVuSans-50"/>
     <use xlink:href="#DejaVuSans-61" x="55.802734"/>
     <use xlink:href="#DejaVuSans-72" x="117.082031"/>
     <use xlink:href="#DejaVuSans-73" x="158.195312"/>
     <use xlink:href="#DejaVuSans-65" x="210.294922"/>
    </g>
   </g>
   <g id="text_14">
    <!-- FootBin -->
    <g transform="translate(361.832136 102.884825)scale(0.08 -0.08)">
     <defs>
      <path id="DejaVuSans-46" d="M 628 4666 
L 3309 4666 
L 3309 4134 
L 1259 4134 
L 1259 2759 
L 3109 2759 
L 3109 2228 
L 1259 2228 
L 1259 0 
L 628 0 
L 628 4666 
z
" transform="scale(0.015625)"/>
      <path id="DejaVuSans-6f" d="M 1959 3097 
Q 1497 3097 1228 2736 
Q 959 2375 959 1747 
Q 959 1119 1226 758 
Q 1494 397 1959 397 
Q 2419 397 2687 759 
Q 2956 1122 2956 1747 
Q 2956 2369 2687 2733 
Q 2419 3097 1959 3097 
z
M 1959 3584 
Q 2709 3584 3137 3096 
Q 3566 2609 3566 1747 
Q 3566 888 3137 398 
Q 2709 -91 1959 -91 
Q 1206 -91 779 398 
Q 353 888 353 1747 
Q 353 2609 779 3096 
Q 1206 3584 1959 3584 
z
" transform="scale(0.015625)"/>
      <path id="DejaVuSans-74" d="M 1172 4494 
L 1172 3500 
L 2356 3500 
L 2356 3053 
L 1172 3053 
L 1172 1153 
Q 1172 725 1289 603 
Q 1406 481 1766 481 
L 2356 481 
L 2356 0 
L 1766 0 
Q 1100 0 847 248 
Q 594 497 594 1153 
L 594 3053 
L 172 3053 
L 172 3500 
L 594 3500 
L 594 4494 
L 1172 4494 
z
" transform="scale(0.015625)"/>
      <path id="DejaVuSans-42" d="M 1259 2228 
L 1259 519 
L 2272 519 
Q 2781 519 3026 730 
Q 3272 941 3272 1375 
Q 3272 1813 3026 2020 
Q 2781 2228 2272 2228 
L 1259 2228 
z
M 1259 4147 
L 1259 2741 
L 2194 2741 
Q 2656 2741 2882 2914 
Q 3109 3088 3109 3444 
Q 3109 3797 2882 3972 
Q 2656 4147 2194 4147 
L 1259 4147 
z
M 628 4666 
L 2241 4666 
Q 2963 4666 3353 4366 
Q 3744 4066 3744 3513 
Q 3744 3084 3544 2831 
Q 3344 2578 2956 2516 
Q 3422 2416 3680 2098 
Q 3938 1781 3938 1306 
Q 3938 681 3513 340 
Q 3088 0 2303 0 
L 628 0 
L 628 4666 
z
" transform="scale(0.015625)"/>
      <path id="DejaVuSans-6e" d="M 3513 2113 
L 3513 0 
L 2938 0 
L 2938 2094 
Q 2938 2591 2744 2837 
Q 2550 3084 2163 3084 
Q 1697 3084 1428 2787 
Q 1159 2491 1159 1978 
L 1159 0 
L 581 0 
L 581 3500 
L 1159 3500 
L 1159 2956 
Q 1366 3272 1645 3428 
Q 1925 3584 2291 3584 
Q 2894 3584 3203 3211 
Q 3513 2838 3513 2113 
z
" transform="scale(0.015625)"/>
     </defs>
     <use xlink:href="#DejaVuSans-46"/>
     <use xlink:href="#DejaVuSans-6f" x="53.894531"/>
     <use xlink:href="#DejaVuSans-6f" x="115.076172"/>
     <use xlink:href="#DejaVuSans-74" x="176.257812"/>
     <use xlink:href="#DejaVuSans-42" x="215.466797"/>
     <use xlink:href="#DejaVuSans-69" x="284.070312"/>
     <use xlink:href="#DejaVuSans-6e" x="311.853516"/>
    </g>
   </g>
   <g id="text_15">
    <!-- WFL -->
    <g transform="translate(361.832136 48.012751)scale(0.08 -0.08)">
     <defs>
      <path id="DejaVuSans-4c" d="M 628 4666 
L 1259 4666 
L 1259 531 
L 3531 531 
L 3531 0 
L 628 0 
L 628 4666 
z
" transform="scale(0.015625)"/>
     </defs>
     <use xlink:href="#DejaVuSans-57"/>
     <use xlink:href="#DejaVuSans-46" x="98.876953"/>
     <use xlink:href="#DejaVuSans-4c" x="156.396484"/>
    </g>
   </g>
   <g id="text_16">
    <!-- WFR -->
    <g transform="translate(361.832136 60.13948)scale(0.08 -0.08)">
     <defs>
      <path id="DejaVuSans-52" d="M 2841 2188 
Q 3044 2119 3236 1894 
Q 3428 1669 3622 1275 
L 4263 0 
L 3584 0 
L 2988 1197 
Q 2756 1666 2539 1819 
Q 2322 1972 1947 1972 
L 1259 1972 
L 1259 0 
L 628 0 
L 628 4666 
L 2053 4666 
Q 2853 4666 3247 4331 
Q 3641 3997 3641 3322 
Q 3641 2881 3436 2590 
Q 3231 2300 2841 2188 
z
M 1259 4147 
L 1259 2491 
L 2053 2491 
Q 2509 2491 2742 2702 
Q 2975 2913 2975 3322 
Q 2975 3731 2742 3939 
Q 2509 4147 2053 4147 
L 1259 4147 
z
" transform="scale(0.015625)"/>
     </defs>
     <use xlink:href="#DejaVuSans-57"/>
     <use xlink:href="#DejaVuSans-46" x="98.876953"/>
     <use xlink:href="#DejaVuSans-52" x="156.396484"/>
    </g>
   </g>
   <g id="text_17">
    <!-- Main-L -->
    <g transform="translate(361.832136 156.933818)scale(0.08 -0.08)">
     <defs>
      <path id="DejaVuSans-4d" d="M 628 4666 
L 1569 4666 
L 2759 1491 
L 3956 4666 
L 4897 4666 
L 4897 0 
L 4281 0 
L 4281 4097 
L 3078 897 
L 2444 897 
L 1241 4097 
L 1241 0 
L 628 0 
L 628 4666 
z
" transform="scale(0.015625)"/>
      <path id="DejaVuSans-2d" d="M 313 2009 
L 1997 2009 
L 1997 1497 
L 313 1497 
L 313 2009 
z
" transform="scale(0.015625)"/>
     </defs>
     <use xlink:href="#DejaVuSans-4d"/>
     <use xlink:href="#DejaVuSans-61" x="86.279297"/>
     <use xlink:href="#DejaVuSans-69" x="147.558594"/>
     <use xlink:href="#DejaVuSans-6e" x="175.341797"/>
     <use xlink:href="#DejaVuSans-2d" x="238.720703"/>
     <use xlink:href="#DejaVuSans-4c" x="274.804688"/>
    </g>
   </g>
   <g id="text_18">
    <!-- Main-R -->
    <g transform="translate(361.832136 51.908668)scale(0.08 -0.08)">
     <use xlink:href="#DejaVuSans-4d"/>
     <use xlink:href="#DejaVuSans-61" x="86.279297"/>
     <use xlink:href="#DejaVuSans-69" x="147.558594"/>
     <use xlink:href="#DejaVuSans-6e" x="175.341797"/>
     <use xlink:href="#DejaVuSans-2d" x="238.720703"/>
     <use xlink:href="#DejaVuSans-52" x="274.804688"/>
    </g>
   </g>
   <g id="text_19">
    <!-- AFL -->
    <g transform="translate(361.832136 98.220699)scale(0.08 -0.08)">
     <defs>
      <path id="DejaVuSans-41" d="M 2188 4044 
L 1331 1722 
L 3047 1722 
L 2188 4044 
z
M 1831 4666 
L 2547 4666 
L 4325 0 
L 3669 0 
L 3244 1197 
L 1141 1197 
L 716 0 
L 50 0 
L 1831 4666 
z
" transform="scale(0.015625)"/>
     </defs>
     <use xlink:href="#DejaVuSans-41"/>
     <use xlink:href="#DejaVuSans-46" x="68.408203"/>
     <use xlink:href="#DejaVuSans-4c" x="125.927734"/>
    </g>
   </g>
   <g id="text_20">
    <!-- AFR -->
    <g transform="translate(361.832136 135.423965)scale(0.08 -0.08)">
     <use xlink:href="#DejaVuSans-41"/>
     <use xlink:href="#DejaVuSans-46" x="68.408203"/>
     <use xlink:href="#DejaVuSans-52" x="125.927734"/>
    </g>
   </g>
   <g id="text_21">
    <!-- Nonfinal -->
    <g transform="translate(361.832136 80.387275)scale(0.08 -0.08)">
     <defs>
      <path id="DejaVuSans-4e" d="M 628 4666 
L 1478 4666 
L 3547 763 
L 3547 4666 
L 4159 4666 
L 4159 0 
L 3309 0 
L 1241 3903 
L 1241 0 
L 628 0 
L 628 4666 
z
" transform="scale(0.015625)"/>
      <path id="DejaVuSans-66" d="M 2375 4863 
L 2375 4384 
L 1825 4384 
Q 1516 4384 1395 4259 
Q 1275 4134 1275 3809 
L 1275 3500 
L 2222 3500 
L 2222 3053 
L 1275 3053 
L 1275 0 
L 697 0 
L 697 3053 
L 147 3053 
L 147 3500 
L 697 3500 
L 697 3744 
Q 697 4328 969 4595 
Q 1241 4863 1831 4863 
L 2375 4863 
z
" transform="scale(0.015625)"/>
      <path id="DejaVuSans-6c" d="M 603 4863 
L 1178 4863 
L 1178 0 
L 603 0 
L 603 4863 
z
" transform="scale(0.015625)"/>
     </defs>
     <use xlink:href="#DejaVuSans-4e"/>
     <use xlink:href="#DejaVuSans-6f" x="74.804688"/>
     <use xlink:href="#DejaVuSans-6e" x="135.986328"/>
     <use xlink:href="#DejaVuSans-66" x="199.365234"/>
     <use xlink:href="#DejaVuSans-69" x="234.570312"/>
     <use xlink:href="#DejaVuSans-6e" x="262.353516"/>
     <use xlink:href="#DejaVuSans-61" x="325.732422"/>
     <use xlink:href="#DejaVuSans-6c" x="387.011719"/>
    </g>
   </g>
   <g id="text_22">
    <!-- Trochaic -->
    <g transform="translate(361.832136 124.559295)scale(0.08 -0.08)">
     <defs>
      <path id="DejaVuSans-54" d="M -19 4666 
L 3928 4666 
L 3928 4134 
L 2272 4134 
L 2272 0 
L 1638 0 
L 1638 4134 
L -19 4134 
L -19 4666 
z
" transform="scale(0.015625)"/>
      <path id="DejaVuSans-68" d="M 3513 2113 
L 3513 0 
L 2938 0 
L 2938 2094 
Q 2938 2591 2744 2837 
Q 2550 3084 2163 3084 
Q 1697 3084 1428 2787 
Q 1159 2491 1159 1978 
L 1159 0 
L 581 0 
L 581 4863 
L 1159 4863 
L 1159 2956 
Q 1366 3272 1645 3428 
Q 1925 3584 2291 3584 
Q 2894 3584 3203 3211 
Q 3513 2838 3513 2113 
z
" transform="scale(0.015625)"/>
     </defs>
     <use xlink:href="#DejaVuSans-54"/>
     <use xlink:href="#DejaVuSans-72" x="46.333984"/>
     <use xlink:href="#DejaVuSans-6f" x="85.197266"/>
     <use xlink:href="#DejaVuSans-63" x="146.378906"/>
     <use xlink:href="#DejaVuSans-68" x="201.359375"/>
     <use xlink:href="#DejaVuSans-61" x="264.738281"/>
     <use xlink:href="#DejaVuSans-69" x="326.017578"/>
     <use xlink:href="#DejaVuSans-63" x="353.800781"/>
    </g>
   </g>
  </g>
  <g id="axes_2">
   <g id="patch_7">
    <path d="M 57.6 307.584 
L 414.72 307.584 
L 414.72 186.624 
L 57.6 186.624 
z
" style="fill: #ffffff"/>
   </g>
   <g id="matplotlib.axis_3">
    <g id="xtick_8">
     <g id="line2d_23">
      <g>
       <use xlink:href="#m29e050732e" x="72.114978" y="307.584" style="stroke: #000000; stroke-width: 0.8"/>
      </g>
     </g>
     <g id="text_23">
      <!-- 0 -->
      <g transform="translate(68.933728 322.182437)scale(0.1 -0.1)">
       <use xlink:href="#DejaVuSans-30"/>
      </g>
     </g>
    </g>
    <g id="xtick_9">
     <g id="line2d_24">
      <g>
       <use xlink:href="#m29e050732e" x="115.058701" y="307.584" style="stroke: #000000; stroke-width: 0.8"/>
      </g>
     </g>
     <g id="text_24">
      <!-- 25 -->
      <g transform="translate(108.696201 322.182437)scale(0.1 -0.1)">
       <use xlink:href="#DejaVuSans-32"/>
       <use xlink:href="#DejaVuSans-35" x="63.623047"/>
      </g>
     </g>
    </g>
    <g id="xtick_10">
     <g id="line2d_25">
      <g>
       <use xlink:href="#m29e050732e" x="158.002424" y="307.584" style="stroke: #000000; stroke-width: 0.8"/>
      </g>
     </g>
     <g id="text_25">
      <!-- 50 -->
      <g transform="translate(151.639924 322.182437)scale(0.1 -0.1)">
       <use xlink:href="#DejaVuSans-35"/>
       <use xlink:href="#DejaVuSans-30" x="63.623047"/>
      </g>
     </g>
    </g>
    <g id="xtick_11">
     <g id="line2d_26">
      <g>
       <use xlink:href="#m29e050732e" x="200.946147" y="307.584" style="stroke: #000000; stroke-width: 0.8"/>
      </g>
     </g>
     <g id="text_26">
      <!-- 75 -->
      <g transform="translate(194.583647 322.182437)scale(0.1 -0.1)">
       <defs>
        <path id="DejaVuSans-37" d="M 525 4666 
L 3525 4666 
L 3525 4397 
L 1831 0 
L 1172 0 
L 2766 4134 
L 525 4134 
L 525 4666 
z
" transform="scale(0.015625)"/>
       </defs>
       <use xlink:href="#DejaVuSans-37"/>
       <use xlink:href="#DejaVuSans-35" x="63.623047"/>
      </g>
     </g>
    </g>
    <g id="xtick_12">
     <g id="line2d_27">
      <g>
       <use xlink:href="#m29e050732e" x="243.88987" y="307.584" style="stroke: #000000; stroke-width: 0.8"/>
      </g>
     </g>
     <g id="text_27">
      <!-- 100 -->
      <g transform="translate(234.34612 322.182437)scale(0.1 -0.1)">
       <use xlink:href="#DejaVuSans-31"/>
       <use xlink:href="#DejaVuSans-30" x="63.623047"/>
       <use xlink:href="#DejaVuSans-30" x="127.246094"/>
      </g>
     </g>
    </g>
    <g id="xtick_13">
     <g id="line2d_28">
      <g>
       <use xlink:href="#m29e050732e" x="286.833593" y="307.584" style="stroke: #000000; stroke-width: 0.8"/>
      </g>
     </g>
     <g id="text_28">
      <!-- 125 -->
      <g transform="translate(277.289843 322.182437)scale(0.1 -0.1)">
       <use xlink:href="#DejaVuSans-31"/>
       <use xlink:href="#DejaVuSans-32" x="63.623047"/>
       <use xlink:href="#DejaVuSans-35" x="127.246094"/>
      </g>
     </g>
    </g>
    <g id="xtick_14">
     <g id="line2d_29">
      <g>
       <use xlink:href="#m29e050732e" x="329.777316" y="307.584" style="stroke: #000000; stroke-width: 0.8"/>
      </g>
     </g>
     <g id="text_29">
      <!-- 150 -->
      <g transform="translate(320.233566 322.182437)scale(0.1 -0.1)">
       <use xlink:href="#DejaVuSans-31"/>
       <use xlink:href="#DejaVuSans-35" x="63.623047"/>
       <use xlink:href="#DejaVuSans-30" x="127.246094"/>
      </g>
     </g>
    </g>
    <g id="xtick_15">
     <g id="line2d_30">
      <g>
       <use xlink:href="#m29e050732e" x="372.721039" y="307.584" style="stroke: #000000; stroke-width: 0.8"/>
      </g>
     </g>
     <g id="text_30">
      <!-- 175 -->
      <g transform="translate(363.177289 322.182437)scale(0.1 -0.1)">
       <use xlink:href="#DejaVuSans-31"/>
       <use xlink:href="#DejaVuSans-37" x="63.623047"/>
       <use xlink:href="#DejaVuSans-35" x="127.246094"/>
      </g>
     </g>
    </g>
   </g>
   <g id="matplotlib.axis_4">
    <g id="ytick_4">
     <g id="line2d_31">
      <g>
       <use xlink:href="#m5d7d4a46ce" x="57.6" y="302.105093" style="stroke: #000000; stroke-width: 0.8"/>
      </g>
     </g>
     <g id="text_31">
      <!-- 0 -->
      <g transform="translate(44.2375 305.904312)scale(0.1 -0.1)">
       <use xlink:href="#DejaVuSans-30"/>
      </g>
     </g>
    </g>
    <g id="ytick_5">
     <g id="line2d_32">
      <g>
       <use xlink:href="#m5d7d4a46ce" x="57.6" y="263.555177" style="stroke: #000000; stroke-width: 0.8"/>
      </g>
     </g>
     <g id="text_32">
      <!-- 2000 -->
      <g transform="translate(25.15 267.354396)scale(0.1 -0.1)">
       <use xlink:href="#DejaVuSans-32"/>
       <use xlink:href="#DejaVuSans-30" x="63.623047"/>
       <use xlink:href="#DejaVuSans-30" x="127.246094"/>
       <use xlink:href="#DejaVuSans-30" x="190.869141"/>
      </g>
     </g>
    </g>
    <g id="ytick_6">
     <g id="line2d_33">
      <g>
       <use xlink:href="#m5d7d4a46ce" x="57.6" y="225.00526" style="stroke: #000000; stroke-width: 0.8"/>
      </g>
     </g>
     <g id="text_33">
      <!-- 4000 -->
      <g transform="translate(25.15 228.804479)scale(0.1 -0.1)">
       <use xlink:href="#DejaVuSans-34"/>
       <use xlink:href="#DejaVuSans-30" x="63.623047"/>
       <use xlink:href="#DejaVuSans-30" x="127.246094"/>
       <use xlink:href="#DejaVuSans-30" x="190.869141"/>
      </g>
     </g>
    </g>
   </g>
   <g id="line2d_34">
    <path d="M 73.832727 302.085818 
L 82.421472 302.066543 
L 84.139221 301.873794 
L 85.85697 302.066543 
L 91.010216 301.912344 
L 92.727965 302.085818 
L 106.469957 302.027993 
L 109.905455 302.066543 
L 111.623203 302.085818 
L 113.340952 301.815969 
L 115.058701 302.027993 
L 116.77645 302.085818 
L 118.494199 301.815969 
L 121.929697 302.027993 
L 123.647446 301.777419 
L 125.365195 301.912344 
L 127.082944 301.738869 
L 128.800693 301.835244 
L 130.518442 302.085818 
L 132.23619 301.777419 
L 133.953939 302.066543 
L 135.671688 301.719594 
L 137.389437 301.700319 
L 139.107186 302.066543 
L 140.824935 302.027993 
L 142.542684 301.835244 
L 145.978182 302.047268 
L 147.695931 301.719594 
L 151.131429 302.027993 
L 152.849177 301.102795 
L 154.566926 301.931619 
L 156.284675 300.890771 
L 158.002424 301.623219 
L 159.720173 301.815969 
L 161.437922 301.700319 
L 163.155671 302.008718 
L 164.87342 301.661769 
L 166.591169 301.815969 
L 170.026667 301.025695 
L 171.744416 301.623219 
L 173.462165 301.334095 
L 175.179913 301.931619 
L 176.897662 300.582371 
L 178.615411 301.102795 
L 180.33316 301.27627 
L 182.050909 300.698021 
L 183.768658 302.047268 
L 187.204156 301.681044 
L 188.921905 301.719594 
L 192.357403 301.31482 
L 194.075152 301.854519 
L 195.7929 301.334095 
L 197.510649 301.700319 
L 199.228398 301.796694 
L 200.946147 301.256995 
L 202.663896 301.256995 
L 204.381645 301.796694 
L 207.817143 302.027993 
L 209.534892 298.924725 
L 211.252641 300.967871 
L 212.97039 301.758144 
L 214.688139 301.681044 
L 216.405887 300.428172 
L 218.123636 300.543822 
L 219.841385 301.31482 
L 221.559134 298.250102 
L 223.276883 301.989443 
L 224.994632 301.835244 
L 226.712381 301.873794 
L 228.43013 300.987146 
L 230.147879 301.507569 
L 231.865628 301.777419 
L 233.583377 300.563096 
L 235.301126 301.989443 
L 237.018874 301.777419 
L 238.736623 298.115177 
L 240.454372 300.640196 
L 242.172121 291.83154 
L 243.88987 301.256995 
L 245.607619 297.768228 
L 247.325368 300.293247 
L 249.043117 300.081223 
L 250.760866 301.623219 
L 252.478615 298.250102 
L 254.196364 301.584669 
L 255.914113 289.749845 
L 257.631861 302.066543 
L 259.34961 297.691128 
L 261.067359 285.470804 
L 262.785108 300.177597 
L 264.502857 297.421278 
L 266.220606 297.594753 
L 267.938355 294.626409 
L 269.656104 285.702104 
L 271.373853 299.0982 
L 273.091602 300.466722 
L 274.809351 299.175299 
L 276.5271 297.459828 
L 278.244848 301.565394 
L 279.962597 273.79018 
L 281.680346 296.977954 
L 283.398095 298.095902 
L 285.115844 300.543822 
L 286.833593 299.117475 
L 288.551342 294.491485 
L 290.269091 297.575478 
L 291.98684 301.893069 
L 293.704589 276.931998 
L 295.422338 277.105472 
L 297.140087 300.678746 
L 298.857835 299.0982 
L 300.575584 295.031183 
L 302.293333 266.75482 
L 304.011082 245.051217 
L 305.728831 290.694318 
L 307.44658 301.893069 
L 309.164329 288.227123 
L 310.882078 301.970168 
L 312.599827 287.456125 
L 314.317576 233.274218 
L 316.035325 301.27627 
L 317.753074 299.0211 
L 319.470823 297.112879 
L 321.188571 288.381323 
L 322.90632 299.0211 
L 324.624069 286.338177 
L 326.341818 291.446041 
L 328.059567 267.680018 
L 329.777316 286.261078 
L 331.495065 297.459828 
L 333.212814 295.474508 
L 334.930563 290.463018 
L 336.648312 299.580074 
L 338.366061 297.498378 
L 340.08381 249.792857 
L 341.801558 298.038077 
L 345.237056 301.27627 
L 346.954805 298.539226 
L 348.672554 286.453827 
L 350.390303 267.911317 
L 352.108052 294.452935 
L 353.825801 288.323498 
L 355.54355 287.35975 
L 357.261299 289.88477 
L 358.979048 296.72738 
L 360.696797 299.0982 
L 362.414545 299.695723 
L 364.132294 299.560799 
L 365.850043 292.621814 
L 367.567792 274.117854 
L 369.285541 251.084279 
L 371.00329 286.473102 
L 372.721039 296.958679 
L 374.438788 192.122182 
L 376.156537 283.099984 
L 377.874286 297.479103 
L 379.592035 297.883877 
L 381.309784 300.139047 
L 383.027532 301.16062 
L 384.745281 292.409789 
L 386.46303 301.31482 
L 388.180779 302.047268 
L 389.898528 214.461858 
L 391.616277 301.43047 
L 393.334026 254.495946 
L 395.051775 299.792098 
L 396.769524 294.703509 
L 398.487273 297.228529 
L 398.487273 297.228529 
" clip-path="url(#pcb495c3f68)" style="fill: none; stroke: #1f77b4; stroke-width: 1.5; stroke-linecap: square"/>
   </g>
   <g id="patch_8">
    <path d="M 57.6 307.584 
L 57.6 186.624 
" style="fill: none; stroke: #000000; stroke-width: 0.8; stroke-linejoin: miter; stroke-linecap: square"/>
   </g>
   <g id="patch_9">
    <path d="M 414.72 307.584 
L 414.72 186.624 
" style="fill: none; stroke: #000000; stroke-width: 0.8; stroke-linejoin: miter; stroke-linecap: square"/>
   </g>
   <g id="patch_10">
    <path d="M 57.6 307.584 
L 414.72 307.584 
" style="fill: none; stroke: #000000; stroke-width: 0.8; stroke-linejoin: miter; stroke-linecap: square"/>
   </g>
   <g id="patch_11">
    <path d="M 57.6 186.624 
L 414.72 186.624 
" style="fill: none; stroke: #000000; stroke-width: 0.8; stroke-linejoin: miter; stroke-linecap: square"/>
   </g>
  </g>
 </g>
 <defs>
  <clipPath id="p097eadbd04">
   <rect x="57.6" y="41.472" width="357.12" height="120.96"/>
  </clipPath>
  <clipPath id="pcb495c3f68">
   <rect x="57.6" y="186.624" width="357.12" height="120.96"/>
  </clipPath>
 </defs>
</svg>
