<?xml version="1.0" encoding="utf-8" standalone="no"?>
<!DOCTYPE svg PUBLIC "-//W3C//DTD SVG 1.1//EN"
  "http://www.w3.org/Graphics/SVG/1.1/DTD/svg11.dtd">
<svg xmlns:xlink="http://www.w3.org/1999/xlink" width="460.8pt" height="345.6pt" viewBox="0 0 460.8 345.6" xmlns="http://www.w3.org/2000/svg" version="1.1">
 <metadata>
  <rdf:RDF xmlns:dc="http://purl.org/dc/elements/1.1/" xmlns:cc="http://creativecommons.org/ns#" xmlns:rdf="http://www.w3.org/1999/02/22-rdf-syntax-ns#">
   <cc:Work>
    <dc:type rdf:resource="http://purl.org/dc/dcmitype/StillImage"/>
    <dc:date>2022-05-13T13:16:13.278590</dc:date>
    <dc:format>image/svg+xml</dc:format>
    <dc:creator>
     <cc:Agent>
      <dc:title>Matplotlib v3.5.1, https://matplotlib.org/</dc:title>
     </cc:Agent>
    </dc:creator>
   </cc:Work>
  </rdf:RDF>
 </metadata>
 <defs>
  <style type="text/css">*{stroke-linejoin: round; stroke-linecap: butt}</style>
 </defs>
 <g id="figure_1">
  <g id="patch_1">
   <path d="M 0 345.6 
L 460.8 345.6 
L 460.8 0 
L 0 0 
z
" style="fill: #ffffff"/>
  </g>
  <g id="axes_1">
   <g id="patch_2">
    <path d="M 57.6 162.432 
L 414.72 162.432 
L 414.72 41.472 
L 57.6 41.472 
z
" style="fill: #ffffff"/>
   </g>
   <g id="matplotlib.axis_1">
    <g id="xtick_1">
     <g id="line2d_1">
      <defs>
       <path id="m8f8db2436b" d="M 0 0 
L 0 3.5 
" style="stroke: #000000; stroke-width: 0.8"/>
      </defs>
      <g>
       <use xlink:href="#m8f8db2436b" x="73.827491" y="162.432" style="stroke: #000000; stroke-width: 0.8"/>
      </g>
     </g>
     <g id="text_1">
      <!-- 0 -->
      <g transform="translate(70.646241 177.030437)scale(0.1 -0.1)">
       <defs>
        <path id="DejaVuSans-30" d="M 2034 4250 
Q 1547 4250 1301 3770 
Q 1056 3291 1056 2328 
Q 1056 1369 1301 889 
Q 1547 409 2034 409 
Q 2525 409 2770 889 
Q 3016 1369 3016 2328 
Q 3016 3291 2770 3770 
Q 2525 4250 2034 4250 
z
M 2034 4750 
Q 2819 4750 3233 4129 
Q 3647 3509 3647 2328 
Q 3647 1150 3233 529 
Q 2819 -91 2034 -91 
Q 1250 -91 836 529 
Q 422 1150 422 2328 
Q 422 3509 836 4129 
Q 1250 4750 2034 4750 
z
" transform="scale(0.015625)"/>
       </defs>
       <use xlink:href="#DejaVuSans-30"/>
      </g>
     </g>
    </g>
    <g id="xtick_2">
     <g id="line2d_2">
      <g>
       <use xlink:href="#m8f8db2436b" x="126.191972" y="162.432" style="stroke: #000000; stroke-width: 0.8"/>
      </g>
     </g>
     <g id="text_2">
      <!-- 10000 -->
      <g transform="translate(110.285722 177.030437)scale(0.1 -0.1)">
       <defs>
        <path id="DejaVuSans-31" d="M 794 531 
L 1825 531 
L 1825 4091 
L 703 3866 
L 703 4441 
L 1819 4666 
L 2450 4666 
L 2450 531 
L 3481 531 
L 3481 0 
L 794 0 
L 794 531 
z
" transform="scale(0.015625)"/>
       </defs>
       <use xlink:href="#DejaVuSans-31"/>
       <use xlink:href="#DejaVuSans-30" x="63.623047"/>
       <use xlink:href="#DejaVuSans-30" x="127.246094"/>
       <use xlink:href="#DejaVuSans-30" x="190.869141"/>
       <use xlink:href="#DejaVuSans-30" x="254.492188"/>
      </g>
     </g>
    </g>
    <g id="xtick_3">
     <g id="line2d_3">
      <g>
       <use xlink:href="#m8f8db2436b" x="178.556453" y="162.432" style="stroke: #000000; stroke-width: 0.8"/>
      </g>
     </g>
     <g id="text_3">
      <!-- 20000 -->
      <g transform="translate(162.650203 177.030437)scale(0.1 -0.1)">
       <defs>
        <path id="DejaVuSans-32" d="M 1228 531 
L 3431 531 
L 3431 0 
L 469 0 
L 469 531 
Q 828 903 1448 1529 
Q 2069 2156 2228 2338 
Q 2531 2678 2651 2914 
Q 2772 3150 2772 3378 
Q 2772 3750 2511 3984 
Q 2250 4219 1831 4219 
Q 1534 4219 1204 4116 
Q 875 4013 500 3803 
L 500 4441 
Q 881 4594 1212 4672 
Q 1544 4750 1819 4750 
Q 2544 4750 2975 4387 
Q 3406 4025 3406 3419 
Q 3406 3131 3298 2873 
Q 3191 2616 2906 2266 
Q 2828 2175 2409 1742 
Q 1991 1309 1228 531 
z
" transform="scale(0.015625)"/>
       </defs>
       <use xlink:href="#DejaVuSans-32"/>
       <use xlink:href="#DejaVuSans-30" x="63.623047"/>
       <use xlink:href="#DejaVuSans-30" x="127.246094"/>
       <use xlink:href="#DejaVuSans-30" x="190.869141"/>
       <use xlink:href="#DejaVuSans-30" x="254.492188"/>
      </g>
     </g>
    </g>
    <g id="xtick_4">
     <g id="line2d_4">
      <g>
       <use xlink:href="#m8f8db2436b" x="230.920934" y="162.432" style="stroke: #000000; stroke-width: 0.8"/>
      </g>
     </g>
     <g id="text_4">
      <!-- 30000 -->
      <g transform="translate(215.014684 177.030437)scale(0.1 -0.1)">
       <defs>
        <path id="DejaVuSans-33" d="M 2597 2516 
Q 3050 2419 3304 2112 
Q 3559 1806 3559 1356 
Q 3559 666 3084 287 
Q 2609 -91 1734 -91 
Q 1441 -91 1130 -33 
Q 819 25 488 141 
L 488 750 
Q 750 597 1062 519 
Q 1375 441 1716 441 
Q 2309 441 2620 675 
Q 2931 909 2931 1356 
Q 2931 1769 2642 2001 
Q 2353 2234 1838 2234 
L 1294 2234 
L 1294 2753 
L 1863 2753 
Q 2328 2753 2575 2939 
Q 2822 3125 2822 3475 
Q 2822 3834 2567 4026 
Q 2313 4219 1838 4219 
Q 1578 4219 1281 4162 
Q 984 4106 628 3988 
L 628 4550 
Q 988 4650 1302 4700 
Q 1616 4750 1894 4750 
Q 2613 4750 3031 4423 
Q 3450 4097 3450 3541 
Q 3450 3153 3228 2886 
Q 3006 2619 2597 2516 
z
" transform="scale(0.015625)"/>
       </defs>
       <use xlink:href="#DejaVuSans-33"/>
       <use xlink:href="#DejaVuSans-30" x="63.623047"/>
       <use xlink:href="#DejaVuSans-30" x="127.246094"/>
       <use xlink:href="#DejaVuSans-30" x="190.869141"/>
       <use xlink:href="#DejaVuSans-30" x="254.492188"/>
      </g>
     </g>
    </g>
    <g id="xtick_5">
     <g id="line2d_5">
      <g>
       <use xlink:href="#m8f8db2436b" x="283.285415" y="162.432" style="stroke: #000000; stroke-width: 0.8"/>
      </g>
     </g>
     <g id="text_5">
      <!-- 40000 -->
      <g transform="translate(267.379165 177.030437)scale(0.1 -0.1)">
       <defs>
        <path id="DejaVuSans-34" d="M 2419 4116 
L 825 1625 
L 2419 1625 
L 2419 4116 
z
M 2253 4666 
L 3047 4666 
L 3047 1625 
L 3713 1625 
L 3713 1100 
L 3047 1100 
L 3047 0 
L 2419 0 
L 2419 1100 
L 313 1100 
L 313 1709 
L 2253 4666 
z
" transform="scale(0.015625)"/>
       </defs>
       <use xlink:href="#DejaVuSans-34"/>
       <use xlink:href="#DejaVuSans-30" x="63.623047"/>
       <use xlink:href="#DejaVuSans-30" x="127.246094"/>
       <use xlink:href="#DejaVuSans-30" x="190.869141"/>
       <use xlink:href="#DejaVuSans-30" x="254.492188"/>
      </g>
     </g>
    </g>
    <g id="xtick_6">
     <g id="line2d_6">
      <g>
       <use xlink:href="#m8f8db2436b" x="335.649896" y="162.432" style="stroke: #000000; stroke-width: 0.8"/>
      </g>
     </g>
     <g id="text_6">
      <!-- 50000 -->
      <g transform="translate(319.743646 177.030437)scale(0.1 -0.1)">
       <defs>
        <path id="DejaVuSans-35" d="M 691 4666 
L 3169 4666 
L 3169 4134 
L 1269 4134 
L 1269 2991 
Q 1406 3038 1543 3061 
Q 1681 3084 1819 3084 
Q 2600 3084 3056 2656 
Q 3513 2228 3513 1497 
Q 3513 744 3044 326 
Q 2575 -91 1722 -91 
Q 1428 -91 1123 -41 
Q 819 9 494 109 
L 494 744 
Q 775 591 1075 516 
Q 1375 441 1709 441 
Q 2250 441 2565 725 
Q 2881 1009 2881 1497 
Q 2881 1984 2565 2268 
Q 2250 2553 1709 2553 
Q 1456 2553 1204 2497 
Q 953 2441 691 2322 
L 691 4666 
z
" transform="scale(0.015625)"/>
       </defs>
       <use xlink:href="#DejaVuSans-35"/>
       <use xlink:href="#DejaVuSans-30" x="63.623047"/>
       <use xlink:href="#DejaVuSans-30" x="127.246094"/>
       <use xlink:href="#DejaVuSans-30" x="190.869141"/>
       <use xlink:href="#DejaVuSans-30" x="254.492188"/>
      </g>
     </g>
    </g>
    <g id="xtick_7">
     <g id="line2d_7">
      <g>
       <use xlink:href="#m8f8db2436b" x="388.014377" y="162.432" style="stroke: #000000; stroke-width: 0.8"/>
      </g>
     </g>
     <g id="text_7">
      <!-- 60000 -->
      <g transform="translate(372.108127 177.030437)scale(0.1 -0.1)">
       <defs>
        <path id="DejaVuSans-36" d="M 2113 2584 
Q 1688 2584 1439 2293 
Q 1191 2003 1191 1497 
Q 1191 994 1439 701 
Q 1688 409 2113 409 
Q 2538 409 2786 701 
Q 3034 994 3034 1497 
Q 3034 2003 2786 2293 
Q 2538 2584 2113 2584 
z
M 3366 4563 
L 3366 3988 
Q 3128 4100 2886 4159 
Q 2644 4219 2406 4219 
Q 1781 4219 1451 3797 
Q 1122 3375 1075 2522 
Q 1259 2794 1537 2939 
Q 1816 3084 2150 3084 
Q 2853 3084 3261 2657 
Q 3669 2231 3669 1497 
Q 3669 778 3244 343 
Q 2819 -91 2113 -91 
Q 1303 -91 875 529 
Q 447 1150 447 2328 
Q 447 3434 972 4092 
Q 1497 4750 2381 4750 
Q 2619 4750 2861 4703 
Q 3103 4656 3366 4563 
z
" transform="scale(0.015625)"/>
       </defs>
       <use xlink:href="#DejaVuSans-36"/>
       <use xlink:href="#DejaVuSans-30" x="63.623047"/>
       <use xlink:href="#DejaVuSans-30" x="127.246094"/>
       <use xlink:href="#DejaVuSans-30" x="190.869141"/>
       <use xlink:href="#DejaVuSans-30" x="254.492188"/>
      </g>
     </g>
    </g>
   </g>
   <g id="matplotlib.axis_2">
    <g id="ytick_1">
     <g id="line2d_8">
      <defs>
       <path id="m7fbcd6da49" d="M 0 0 
L -3.5 0 
" style="stroke: #000000; stroke-width: 0.8"/>
      </defs>
      <g>
       <use xlink:href="#m7fbcd6da49" x="57.6" y="156.004548" style="stroke: #000000; stroke-width: 0.8"/>
      </g>
     </g>
     <g id="text_8">
      <!-- 70 -->
      <g transform="translate(37.875 159.803767)scale(0.1 -0.1)">
       <defs>
        <path id="DejaVuSans-37" d="M 525 4666 
L 3525 4666 
L 3525 4397 
L 1831 0 
L 1172 0 
L 2766 4134 
L 525 4134 
L 525 4666 
z
" transform="scale(0.015625)"/>
       </defs>
       <use xlink:href="#DejaVuSans-37"/>
       <use xlink:href="#DejaVuSans-30" x="63.623047"/>
      </g>
     </g>
    </g>
    <g id="ytick_2">
     <g id="line2d_9">
      <g>
       <use xlink:href="#m7fbcd6da49" x="57.6" y="125.028876" style="stroke: #000000; stroke-width: 0.8"/>
      </g>
     </g>
     <g id="text_9">
      <!-- 80 -->
      <g transform="translate(37.875 128.828095)scale(0.1 -0.1)">
       <defs>
        <path id="DejaVuSans-38" d="M 2034 2216 
Q 1584 2216 1326 1975 
Q 1069 1734 1069 1313 
Q 1069 891 1326 650 
Q 1584 409 2034 409 
Q 2484 409 2743 651 
Q 3003 894 3003 1313 
Q 3003 1734 2745 1975 
Q 2488 2216 2034 2216 
z
M 1403 2484 
Q 997 2584 770 2862 
Q 544 3141 544 3541 
Q 544 4100 942 4425 
Q 1341 4750 2034 4750 
Q 2731 4750 3128 4425 
Q 3525 4100 3525 3541 
Q 3525 3141 3298 2862 
Q 3072 2584 2669 2484 
Q 3125 2378 3379 2068 
Q 3634 1759 3634 1313 
Q 3634 634 3220 271 
Q 2806 -91 2034 -91 
Q 1263 -91 848 271 
Q 434 634 434 1313 
Q 434 1759 690 2068 
Q 947 2378 1403 2484 
z
M 1172 3481 
Q 1172 3119 1398 2916 
Q 1625 2713 2034 2713 
Q 2441 2713 2670 2916 
Q 2900 3119 2900 3481 
Q 2900 3844 2670 4047 
Q 2441 4250 2034 4250 
Q 1625 4250 1398 4047 
Q 1172 3844 1172 3481 
z
" transform="scale(0.015625)"/>
       </defs>
       <use xlink:href="#DejaVuSans-38"/>
       <use xlink:href="#DejaVuSans-30" x="63.623047"/>
      </g>
     </g>
    </g>
    <g id="ytick_3">
     <g id="line2d_10">
      <g>
       <use xlink:href="#m7fbcd6da49" x="57.6" y="94.053204" style="stroke: #000000; stroke-width: 0.8"/>
      </g>
     </g>
     <g id="text_10">
      <!-- 90 -->
      <g transform="translate(37.875 97.852422)scale(0.1 -0.1)">
       <defs>
        <path id="DejaVuSans-39" d="M 703 97 
L 703 672 
Q 941 559 1184 500 
Q 1428 441 1663 441 
Q 2288 441 2617 861 
Q 2947 1281 2994 2138 
Q 2813 1869 2534 1725 
Q 2256 1581 1919 1581 
Q 1219 1581 811 2004 
Q 403 2428 403 3163 
Q 403 3881 828 4315 
Q 1253 4750 1959 4750 
Q 2769 4750 3195 4129 
Q 3622 3509 3622 2328 
Q 3622 1225 3098 567 
Q 2575 -91 1691 -91 
Q 1453 -91 1209 -44 
Q 966 3 703 97 
z
M 1959 2075 
Q 2384 2075 2632 2365 
Q 2881 2656 2881 3163 
Q 2881 3666 2632 3958 
Q 2384 4250 1959 4250 
Q 1534 4250 1286 3958 
Q 1038 3666 1038 3163 
Q 1038 2656 1286 2365 
Q 1534 2075 1959 2075 
z
" transform="scale(0.015625)"/>
       </defs>
       <use xlink:href="#DejaVuSans-39"/>
       <use xlink:href="#DejaVuSans-30" x="63.623047"/>
      </g>
     </g>
    </g>
    <g id="ytick_4">
     <g id="line2d_11">
      <g>
       <use xlink:href="#m7fbcd6da49" x="57.6" y="63.077531" style="stroke: #000000; stroke-width: 0.8"/>
      </g>
     </g>
     <g id="text_11">
      <!-- 100 -->
      <g transform="translate(31.5125 66.87675)scale(0.1 -0.1)">
       <use xlink:href="#DejaVuSans-31"/>
       <use xlink:href="#DejaVuSans-30" x="63.623047"/>
       <use xlink:href="#DejaVuSans-30" x="127.246094"/>
      </g>
     </g>
    </g>
   </g>
   <g id="line2d_12">
    <path d="M 73.832727 63.077531 
L 73.853673 63.077531 
L 73.979348 57.656789 
L 74.031712 57.656789 
L 74.157387 55.333613 
L 74.513466 55.333613 
L 74.628667 53.78483 
L 74.869544 53.78483 
L 74.984746 52.752307 
L 75.115657 52.752307 
L 75.230859 51.203524 
L 78.079487 51.203524 
L 78.194689 49.65474 
L 83.724378 49.65474 
L 83.83958 48.105956 
L 115.321106 48.105956 
L 115.436307 47.589695 
L 131.307982 47.589695 
L 131.423183 46.970182 
L 398.487273 46.970182 
L 398.487273 46.970182 
" clip-path="url(#p6658c2bacc)" style="fill: none; stroke: #1f77b4; stroke-width: 1.5; stroke-linecap: square"/>
   </g>
   <g id="line2d_13">
    <path d="M 73.832727 63.077531 
L 73.958402 72.886494 
L 73.963638 72.886494 
L 73.968875 75.984061 
L 74.057895 72.628364 
L 74.07884 75.725931 
L 74.141678 75.725931 
L 74.199279 78.823498 
L 74.251643 76.758453 
L 74.272589 76.758453 
L 74.393027 82.953588 
L 74.513466 82.953588 
L 74.523938 81.404804 
L 74.555357 87.599939 
L 74.607722 87.599939 
L 74.670559 87.599939 
L 74.785761 90.697506 
L 74.869544 90.697506 
L 74.911436 89.664983 
L 74.916672 92.762551 
L 74.969037 92.762551 
L 75.115657 92.762551 
L 75.178494 91.213767 
L 75.183731 94.311334 
L 75.220386 94.311334 
L 75.602647 94.311334 
L 75.717849 93.536942 
L 76.016326 93.536942 
L 76.037272 92.762551 
L 76.042508 95.860118 
L 76.110582 95.860118 
L 76.6447 95.860118 
L 76.759902 98.957685 
L 76.995542 98.957685 
L 77.110744 102.055252 
L 78.189452 102.055252 
L 78.304654 105.152819 
L 78.336073 105.152819 
L 78.451274 108.250387 
L 78.660732 108.250387 
L 78.775934 111.347954 
L 79.503801 111.347954 
L 79.619002 114.445521 
L 79.817987 114.445521 
L 79.933189 111.347954 
L 80.509199 111.347954 
L 80.6244 110.573562 
L 80.64011 110.573562 
L 80.755312 109.54104 
L 80.828622 109.54104 
L 80.943824 112.638607 
L 81.813074 112.638607 
L 81.928276 115.736174 
L 82.038241 115.736174 
L 82.153443 118.833741 
L 82.368138 118.833741 
L 82.48334 118.05935 
L 86.379257 118.05935 
L 86.494459 114.961782 
L 87.033813 114.961782 
L 87.149015 118.05935 
L 87.855935 118.05935 
L 87.971137 117.284958 
L 88.426708 117.284958 
L 88.54191 120.382525 
L 89.599672 120.382525 
L 89.714874 123.480092 
L 89.924332 123.480092 
L 90.039534 126.577659 
L 90.505578 126.577659 
L 90.62078 125.803268 
L 91.306755 125.803268 
L 91.442902 121.931309 
L 91.830399 121.931309 
L 91.945601 125.028876 
L 93.736466 125.028876 
L 93.851668 121.931309 
L 94.663318 121.931309 
L 94.77852 125.028876 
L 97.642857 125.028876 
L 97.758059 128.126443 
L 98.43356 128.126443 
L 98.548762 125.028876 
L 98.904841 125.028876 
L 99.020043 128.126443 
L 99.313284 128.126443 
L 99.428486 127.352051 
L 99.606525 127.352051 
L 99.721727 124.254484 
L 100.444356 124.254484 
L 100.491485 127.352051 
L 100.554322 126.577659 
L 100.60145 126.577659 
L 100.716652 129.675227 
L 102.245695 129.675227 
L 102.360896 126.577659 
L 102.68032 126.577659 
L 102.795522 129.675227 
L 103.486733 129.675227 
L 103.601935 126.577659 
L 103.921358 126.577659 
L 104.03656 129.675227 
L 104.413584 129.675227 
L 104.418821 126.577659 
L 104.52355 129.675227 
L 104.916283 129.675227 
L 105.031485 132.772794 
L 105.219997 132.772794 
L 105.335199 131.998402 
L 111.707956 131.998402 
L 111.823158 128.900835 
L 111.885996 128.900835 
L 112.001197 131.998402 
L 113.153216 131.998402 
L 113.231763 135.095969 
L 113.263181 131.998402 
L 113.373147 131.998402 
L 113.488349 128.900835 
L 113.587841 128.900835 
L 113.603551 131.998402 
L 113.666388 128.126443 
L 113.69257 128.126443 
L 113.912501 128.126443 
L 114.027703 127.352051 
L 114.409964 127.352051 
L 114.525165 130.449618 
L 114.703205 130.449618 
L 114.745096 133.547186 
L 114.81317 132.772794 
L 115.802859 132.772794 
L 115.918061 135.870361 
L 117.017715 135.870361 
L 117.132917 132.772794 
L 118.373955 132.772794 
L 118.489157 135.870361 
L 120.876977 135.870361 
L 120.992179 138.967928 
L 130.208327 138.967928 
L 130.323529 135.870361 
L 131.307982 135.870361 
L 131.397001 135.250848 
L 131.517439 141.445982 
L 132.109158 141.445982 
L 132.22436 140.67159 
L 133.077901 140.67159 
L 133.104083 143.769157 
L 133.187866 142.994766 
L 135.052042 142.994766 
L 135.167244 146.092333 
L 138.576172 146.092333 
L 138.691373 149.1899 
L 146.860232 149.1899 
L 146.975434 146.092333 
L 147.179656 146.092333 
L 147.294858 149.1899 
L 152.34803 149.1899 
L 152.463232 146.092333 
L 158.830753 146.092333 
L 158.945955 145.317941 
L 177.430616 145.317941 
L 177.535345 142.220374 
L 177.540582 145.317941 
L 179.640397 145.317941 
L 179.755599 148.415508 
L 193.192325 148.415508 
L 193.307527 151.513076 
L 193.846881 151.513076 
L 193.962083 150.738684 
L 197.088243 150.738684 
L 197.203444 149.964292 
L 204.895787 149.964292 
L 205.010989 153.061859 
L 207.639685 153.061859 
L 207.754887 156.159426 
L 216.861071 156.159426 
L 216.976272 153.061859 
L 227.590553 153.061859 
L 227.705755 156.159426 
L 228.962502 156.159426 
L 229.077704 155.385035 
L 315.88754 155.385035 
L 316.002742 153.836251 
L 319.155084 153.836251 
L 319.270286 150.738684 
L 323.721267 150.738684 
L 323.836469 153.836251 
L 336.492964 153.836251 
L 336.608166 156.933818 
L 344.32669 156.933818 
L 344.441892 153.836251 
L 373.923095 153.836251 
L 374.038297 156.933818 
L 398.487273 156.933818 
L 398.487273 156.933818 
" clip-path="url(#p6658c2bacc)" style="fill: none; stroke: #ff7f0e; stroke-width: 1.5; stroke-linecap: square"/>
   </g>
   <g id="line2d_14">
    <path d="M 73.832727 63.077531 
L 73.947929 74.435278 
L 73.958402 73.402755 
L 74.016003 73.402755 
L 74.042185 71.07958 
L 74.047422 74.177147 
L 74.120732 74.177147 
L 74.141678 74.177147 
L 74.157387 71.07958 
L 74.204515 77.274714 
L 74.24117 77.274714 
L 74.246407 77.274714 
L 74.372081 86.567416 
L 74.523938 86.567416 
L 74.592012 81.921065 
L 74.63914 85.018633 
L 74.670559 85.018633 
L 74.785761 83.469849 
L 74.853835 83.469849 
L 74.911436 87.083677 
L 74.9638 85.534894 
L 75.047583 85.534894 
L 75.168022 91.730028 
L 75.178494 91.730028 
L 75.293696 90.181245 
L 75.325115 90.181245 
L 75.440317 93.278812 
L 75.445553 93.278812 
L 75.560755 91.730028 
L 75.602647 91.730028 
L 75.618356 94.827595 
L 75.712612 91.730028 
L 75.717849 91.730028 
L 75.83305 94.827595 
L 75.958725 94.827595 
L 75.990144 93.278812 
L 76.032035 102.571513 
L 76.042508 101.538991 
L 76.304331 101.538991 
L 76.419533 104.636558 
L 76.435242 104.636558 
L 76.508552 103.087775 
L 76.513789 106.185342 
L 76.539971 106.185342 
L 76.550444 106.185342 
L 76.57139 104.636558 
L 76.597572 110.831693 
L 76.649936 109.282909 
L 76.712774 109.282909 
L 76.827976 107.734125 
L 76.859394 107.734125 
L 76.979833 104.636558 
L 76.995542 104.636558 
L 77.037434 103.604036 
L 77.04267 106.701603 
L 77.095034 106.701603 
L 77.121217 106.701603 
L 77.236419 105.152819 
L 77.372566 105.152819 
L 77.388276 108.250387 
L 77.482532 106.701603 
L 77.592497 106.701603 
L 77.707699 105.152819 
L 77.948575 105.152819 
L 77.969521 108.250387 
L 78.058541 105.152819 
L 78.079487 105.152819 
L 78.194689 103.604036 
L 79.503801 103.604036 
L 79.624239 101.02273 
L 80.509199 101.02273 
L 80.6244 104.120297 
L 80.64011 104.120297 
L 80.755312 107.217864 
L 81.1847 107.217864 
L 81.299902 105.669081 
L 82.368138 105.669081 
L 82.48334 108.766648 
L 83.724378 108.766648 
L 83.83958 107.217864 
L 87.855935 107.217864 
L 87.971137 110.315431 
L 90.505578 110.315431 
L 90.62078 113.412999 
L 91.306755 113.412999 
L 91.421956 116.510566 
L 92.238842 116.510566 
L 92.354044 114.961782 
L 99.313284 114.961782 
L 99.428486 118.05935 
L 100.491485 118.05935 
L 100.606686 121.156917 
L 105.219997 121.156917 
L 105.335199 124.254484 
L 113.603551 124.254484 
L 113.718752 127.352051 
L 113.912501 127.352051 
L 114.027703 130.449618 
L 114.745096 130.449618 
L 114.860298 133.547186 
L 115.321106 133.547186 
L 115.436307 133.030924 
L 131.307982 133.030924 
L 131.423183 132.411411 
L 132.109158 132.411411 
L 132.22436 135.508978 
L 133.104083 135.508978 
L 133.219285 138.606545 
L 158.830753 138.606545 
L 158.945955 141.704113 
L 193.846881 141.704113 
L 193.962083 144.80168 
L 197.088243 144.80168 
L 197.203444 147.899247 
L 228.962502 147.899247 
L 229.077704 150.996814 
L 398.487273 150.996814 
L 398.487273 150.996814 
" clip-path="url(#p6658c2bacc)" style="fill: none; stroke: #2ca02c; stroke-width: 1.5; stroke-linecap: square"/>
   </g>
   <g id="line2d_15">
    <path d="M 73.832727 63.077531 
L 73.974111 58.431181 
L 74.016003 58.431181 
L 74.068367 61.528748 
L 74.125968 60.754356 
L 74.146914 60.754356 
L 74.262116 63.851923 
L 74.272589 63.851923 
L 74.4035 60.754356 
L 74.581539 60.754356 
L 74.592012 63.851923 
L 74.691505 62.30314 
L 74.696741 62.30314 
L 74.811943 61.270617 
L 74.859071 61.270617 
L 74.895726 64.368184 
L 74.969037 62.819401 
L 75.445553 62.819401 
L 75.560755 65.916968 
L 75.602647 65.916968 
L 75.618356 65.142576 
L 75.623593 68.240143 
L 75.696903 68.240143 
L 75.707376 68.240143 
L 75.712612 71.337711 
L 75.817341 68.756405 
L 75.958725 68.756405 
L 76.016326 71.853972 
L 76.068691 69.530796 
L 76.304331 69.530796 
L 76.419533 67.982013 
L 76.435242 67.982013 
L 76.508552 71.07958 
L 76.545207 69.530796 
L 76.550444 69.530796 
L 76.57139 72.628364 
L 76.634227 68.498274 
L 76.655173 68.498274 
L 76.712774 68.498274 
L 76.759902 71.595841 
L 76.822739 70.563319 
L 76.859394 70.563319 
L 76.979833 76.758453 
L 77.037434 76.758453 
L 77.121217 75.20967 
L 77.126453 78.307237 
L 77.142162 78.307237 
L 77.36733 78.307237 
L 77.388276 75.725931 
L 77.393512 78.823498 
L 77.472059 78.823498 
L 77.592497 78.823498 
L 77.707699 81.921065 
L 77.723408 81.921065 
L 77.83861 80.888543 
L 77.948575 80.888543 
L 77.969521 79.339759 
L 78.00094 88.632461 
L 78.032359 88.632461 
L 78.226107 88.632461 
L 78.351782 85.534894 
L 78.419856 85.534894 
L 78.535058 84.502371 
L 78.828299 84.502371 
L 78.943501 83.469849 
L 79.147722 83.469849 
L 79.262924 82.437327 
L 79.566638 82.437327 
L 79.68184 85.534894 
L 79.817987 85.534894 
L 79.933189 88.632461 
L 80.509199 88.632461 
L 80.6244 87.858069 
L 81.048553 87.858069 
L 81.163755 86.825547 
L 81.1847 86.825547 
L 81.299902 89.923114 
L 82.368138 89.923114 
L 82.488576 88.1162 
L 86.253582 88.1162 
L 86.342602 91.213767 
L 86.363548 90.439375 
L 86.379257 90.439375 
L 86.494459 93.536942 
L 87.300872 93.536942 
L 87.416074 92.50442 
L 87.855935 92.50442 
L 87.971137 91.730028 
L 89.023663 91.730028 
L 89.138865 90.697506 
L 89.672983 90.697506 
L 89.788185 89.664983 
L 90.468923 89.664983 
L 90.505578 92.762551 
L 90.578888 91.988159 
L 91.306755 91.988159 
L 91.421956 91.213767 
L 92.238842 91.213767 
L 92.354044 94.311334 
L 93.736466 94.311334 
L 93.851668 97.408901 
L 96.249962 97.408901 
L 96.365163 96.376379 
L 97.187286 96.376379 
L 97.302488 95.343857 
L 98.43356 95.343857 
L 98.548762 98.441424 
L 99.313284 98.441424 
L 99.428486 97.667032 
L 99.606525 97.667032 
L 99.721727 100.764599 
L 100.491485 100.764599 
L 100.606686 99.990207 
L 100.988947 99.990207 
L 101.104149 99.215816 
L 103.62288 99.215816 
L 103.738082 98.183293 
L 105.219997 98.183293 
L 105.335199 97.408901 
L 111.14242 97.408901 
L 111.257622 96.376379 
L 113.231763 96.376379 
L 113.346965 99.473946 
L 113.373147 99.473946 
L 113.488349 102.571513 
L 113.551186 102.571513 
L 113.661151 100.764599 
L 113.776353 103.862166 
L 113.912501 103.862166 
L 114.027703 103.087775 
L 114.745096 103.087775 
L 114.860298 102.313383 
L 115.321106 102.313383 
L 115.436307 101.797122 
L 118.929018 101.797122 
L 119.04422 101.02273 
L 130.208327 101.02273 
L 130.323529 104.120297 
L 130.522514 104.120297 
L 130.637716 103.087775 
L 131.307982 103.087775 
L 131.423183 106.185342 
L 132.109158 106.185342 
L 132.22436 105.41095 
L 133.104083 105.41095 
L 133.219285 104.636558 
L 133.360669 104.636558 
L 133.475871 103.604036 
L 139.251673 103.604036 
L 139.366875 102.571513 
L 143.954004 102.571513 
L 144.069206 101.538991 
L 146.860232 101.538991 
L 146.975434 104.636558 
L 152.34803 104.636558 
L 152.463232 107.734125 
L 156.448169 107.734125 
L 156.563371 106.701603 
L 158.830753 106.701603 
L 158.945955 105.927211 
L 183.714354 105.927211 
L 183.829556 109.024778 
L 184.436984 109.024778 
L 184.552186 107.992256 
L 187.725473 107.992256 
L 187.840675 107.217864 
L 193.846881 107.217864 
L 193.962083 106.443472 
L 197.088243 106.443472 
L 197.203444 105.669081 
L 211.52513 105.669081 
L 211.640332 104.636558 
L 228.962502 104.636558 
L 229.077704 103.862166 
L 319.155084 103.862166 
L 319.270286 106.959734 
L 383.547686 106.959734 
L 383.662888 105.927211 
L 389.103558 105.927211 
L 389.21876 104.894689 
L 398.487273 104.894689 
L 398.487273 104.894689 
" clip-path="url(#p6658c2bacc)" style="fill: none; stroke: #d62728; stroke-width: 1.5; stroke-linecap: square"/>
   </g>
   <g id="line2d_16">
    <path d="M 73.832727 63.077531 
L 73.864146 63.077531 
L 73.947929 72.370233 
L 73.984584 71.337711 
L 74.016003 71.337711 
L 74.131205 69.788927 
L 74.141678 69.788927 
L 74.262116 66.69136 
L 74.345899 66.69136 
L 74.461101 69.788927 
L 74.513466 69.788927 
L 74.523938 72.886494 
L 74.586776 68.240143 
L 74.623431 71.337711 
L 74.670559 71.337711 
L 74.785761 69.788927 
L 74.859071 69.788927 
L 74.895726 68.240143 
L 74.900963 71.337711 
L 74.969037 69.788927 
L 75.115657 69.788927 
L 75.178494 72.886494 
L 75.225622 71.337711 
L 75.445553 71.337711 
L 75.560755 69.788927 
L 75.618356 69.788927 
L 75.717849 66.69136 
L 75.728321 69.788927 
L 75.958725 69.788927 
L 76.026799 68.240143 
L 76.032035 71.337711 
L 76.063454 70.305188 
L 76.304331 70.305188 
L 76.419533 73.402755 
L 76.435242 73.402755 
L 76.508552 71.853972 
L 76.513789 74.951539 
L 76.539971 74.951539 
L 76.550444 74.951539 
L 76.57139 73.402755 
L 76.597572 79.59789 
L 76.649936 78.049106 
L 76.712774 78.049106 
L 76.827976 76.500323 
L 76.859394 76.500323 
L 76.979833 73.402755 
L 76.995542 73.402755 
L 77.037434 72.370233 
L 77.04267 75.4678 
L 77.095034 75.4678 
L 77.121217 75.4678 
L 77.236419 73.919017 
L 77.372566 73.919017 
L 77.388276 77.016584 
L 77.482532 75.4678 
L 77.592497 75.4678 
L 77.707699 73.919017 
L 77.948575 73.919017 
L 77.969521 77.016584 
L 78.058541 73.919017 
L 79.503801 73.919017 
L 79.624239 71.337711 
L 81.1847 71.337711 
L 81.299902 69.788927 
L 92.238842 69.788927 
L 92.354044 68.240143 
L 398.487273 68.240143 
L 398.487273 68.240143 
" clip-path="url(#p6658c2bacc)" style="fill: none; stroke: #9467bd; stroke-width: 1.5; stroke-linecap: square"/>
   </g>
   <g id="line2d_17">
    <path d="M 73.832727 63.077531 
L 73.837964 63.077531 
L 73.953166 62.045009 
L 73.968875 62.045009 
L 74.089313 60.496225 
L 115.321106 60.496225 
L 115.436307 59.979964 
L 131.307982 59.979964 
L 131.423183 59.360451 
L 398.487273 59.360451 
L 398.487273 59.360451 
" clip-path="url(#p6658c2bacc)" style="fill: none; stroke: #8c564b; stroke-width: 1.5; stroke-linecap: square"/>
   </g>
   <g id="line2d_18">
    <path d="M 73.832727 66.175099 
L 73.837964 65.400707 
L 73.85891 71.595841 
L 73.906038 71.595841 
L 73.91651 71.595841 
L 74.047422 83.98611 
L 74.068367 83.98611 
L 74.183569 83.211718 
L 74.272589 83.211718 
L 74.393027 81.662935 
L 74.707214 81.662935 
L 74.822416 84.760502 
L 74.869544 84.760502 
L 74.984746 87.858069 
L 77.995704 87.858069 
L 78.110905 90.955636 
L 79.503801 90.955636 
L 79.619002 94.053204 
L 79.817987 94.053204 
L 79.933189 97.150771 
L 86.253582 97.150771 
L 86.342602 100.248338 
L 86.363548 99.473946 
L 86.379257 99.473946 
L 86.494459 102.571513 
L 90.468923 102.571513 
L 90.584125 105.669081 
L 93.736466 105.669081 
L 93.851668 108.766648 
L 98.43356 108.766648 
L 98.548762 111.864215 
L 99.606525 111.864215 
L 99.721727 114.961782 
L 100.988947 114.961782 
L 101.104149 114.187391 
L 113.231763 114.187391 
L 113.346965 117.284958 
L 113.373147 117.284958 
L 113.488349 120.382525 
L 113.661151 120.382525 
L 113.776353 123.480092 
L 118.929018 123.480092 
L 119.04422 122.7057 
L 130.208327 122.7057 
L 130.323529 125.803268 
L 131.307982 125.803268 
L 131.423183 128.900835 
L 146.860232 128.900835 
L 146.975434 131.998402 
L 152.34803 131.998402 
L 152.463232 135.095969 
L 183.714354 135.095969 
L 183.829556 138.193536 
L 187.725473 138.193536 
L 187.840675 137.419145 
L 315.88754 137.419145 
L 316.002742 140.516712 
L 319.155084 140.516712 
L 319.270286 143.614279 
L 398.487273 143.614279 
L 398.487273 143.614279 
" clip-path="url(#p6658c2bacc)" style="fill: none; stroke: #e377c2; stroke-width: 1.5; stroke-linecap: square"/>
   </g>
   <g id="line2d_19">
    <path d="M 73.832727 59.979964 
L 73.837964 59.979964 
L 73.953166 58.947442 
L 73.963638 58.947442 
L 74.089313 56.624266 
L 74.707214 56.624266 
L 74.822416 53.526699 
L 115.321106 53.526699 
L 115.436307 53.010438 
L 131.307982 53.010438 
L 131.423183 52.390924 
L 398.487273 52.390924 
L 398.487273 52.390924 
" clip-path="url(#p6658c2bacc)" style="fill: none; stroke: #7f7f7f; stroke-width: 1.5; stroke-linecap: square"/>
   </g>
   <g id="line2d_20">
    <path d="M 73.832727 63.077531 
L 73.837964 62.30314 
L 73.85891 68.498274 
L 73.885092 68.498274 
L 74.010767 79.081629 
L 74.031712 79.081629 
L 74.042185 82.179196 
L 74.141678 80.372282 
L 74.157387 80.372282 
L 74.283062 75.984061 
L 74.31448 75.984061 
L 74.429682 73.660886 
L 74.513466 73.660886 
L 74.628667 76.758453 
L 74.696741 76.758453 
L 74.811943 75.725931 
L 74.853835 75.725931 
L 74.869544 74.177147 
L 74.87478 77.274714 
L 74.958564 77.274714 
L 75.047583 77.274714 
L 75.115657 75.725931 
L 75.120894 78.823498 
L 75.152312 78.823498 
L 75.325115 78.823498 
L 75.440317 77.274714 
L 75.602647 77.274714 
L 75.723085 75.4678 
L 75.990144 75.4678 
L 76.037272 73.144625 
L 76.042508 76.242192 
L 76.094873 76.242192 
L 76.628991 76.242192 
L 76.744192 75.20967 
L 76.759902 75.20967 
L 76.875104 74.177147 
L 76.995542 74.177147 
L 77.110744 77.274714 
L 77.36733 77.274714 
L 77.482532 76.242192 
L 77.723408 76.242192 
L 77.83861 75.20967 
L 77.995704 75.20967 
L 78.116142 81.404804 
L 78.226107 81.404804 
L 78.351782 78.307237 
L 78.419856 78.307237 
L 78.535058 77.274714 
L 78.828299 77.274714 
L 78.943501 76.242192 
L 79.147722 76.242192 
L 79.262924 75.20967 
L 79.503801 75.20967 
L 79.619002 78.307237 
L 79.817987 78.307237 
L 79.933189 81.404804 
L 80.509199 81.404804 
L 80.6244 80.630412 
L 80.64011 80.630412 
L 80.755312 79.59789 
L 81.048553 79.59789 
L 81.163755 78.565367 
L 82.368138 78.565367 
L 82.488576 76.758453 
L 83.724378 76.758453 
L 83.83958 79.85602 
L 86.253582 79.85602 
L 86.342602 82.953588 
L 86.363548 82.179196 
L 86.379257 82.179196 
L 86.494459 85.276763 
L 87.300872 85.276763 
L 87.416074 84.244241 
L 87.855935 84.244241 
L 87.971137 83.469849 
L 89.023663 83.469849 
L 89.138865 82.437327 
L 89.672983 82.437327 
L 89.788185 81.404804 
L 90.468923 81.404804 
L 90.505578 84.502371 
L 90.578888 83.72798 
L 91.306755 83.72798 
L 91.421956 82.953588 
L 93.736466 82.953588 
L 93.851668 86.051155 
L 96.249962 86.051155 
L 96.365163 85.018633 
L 97.187286 85.018633 
L 97.302488 83.98611 
L 98.43356 83.98611 
L 98.548762 87.083677 
L 99.313284 87.083677 
L 99.428486 86.309286 
L 99.606525 86.309286 
L 99.721727 89.406853 
L 100.491485 89.406853 
L 100.606686 88.632461 
L 100.988947 88.632461 
L 101.104149 87.858069 
L 103.62288 87.858069 
L 103.738082 86.825547 
L 105.219997 86.825547 
L 105.335199 86.051155 
L 111.14242 86.051155 
L 111.257622 85.018633 
L 113.231763 85.018633 
L 113.346965 88.1162 
L 113.373147 88.1162 
L 113.488349 91.213767 
L 113.551186 91.213767 
L 113.661151 89.406853 
L 113.776353 92.50442 
L 113.912501 92.50442 
L 114.027703 91.730028 
L 114.745096 91.730028 
L 114.860298 90.955636 
L 118.929018 90.955636 
L 119.04422 90.181245 
L 130.208327 90.181245 
L 130.323529 93.278812 
L 130.522514 93.278812 
L 130.637716 92.246289 
L 131.307982 92.246289 
L 131.423183 95.343857 
L 132.109158 95.343857 
L 132.22436 94.569465 
L 133.104083 94.569465 
L 133.219285 93.795073 
L 133.360669 93.795073 
L 133.475871 92.762551 
L 139.251673 92.762551 
L 139.366875 91.730028 
L 143.954004 91.730028 
L 144.069206 90.697506 
L 146.860232 90.697506 
L 146.975434 93.795073 
L 152.34803 93.795073 
L 152.463232 96.89264 
L 156.448169 96.89264 
L 156.563371 95.860118 
L 158.830753 95.860118 
L 158.945955 95.085726 
L 183.714354 95.085726 
L 183.829556 98.183293 
L 184.436984 98.183293 
L 184.552186 97.150771 
L 187.725473 97.150771 
L 187.840675 96.376379 
L 193.846881 96.376379 
L 193.962083 95.601987 
L 197.088243 95.601987 
L 197.203444 94.827595 
L 211.52513 94.827595 
L 211.640332 93.795073 
L 228.962502 93.795073 
L 229.077704 93.020681 
L 315.88754 93.020681 
L 316.002742 96.118248 
L 319.155084 96.118248 
L 319.270286 99.215816 
L 383.547686 99.215816 
L 383.662888 98.183293 
L 389.103558 98.183293 
L 389.21876 97.150771 
L 398.487273 97.150771 
L 398.487273 97.150771 
" clip-path="url(#p6658c2bacc)" style="fill: none; stroke: #bcbd22; stroke-width: 1.5; stroke-linecap: square"/>
   </g>
   <g id="line2d_21">
    <path d="M 73.832727 63.077531 
L 73.837964 62.30314 
L 73.85891 68.498274 
L 73.895565 66.94949 
L 74.026476 79.081629 
L 74.042185 79.081629 
L 74.141678 77.274714 
L 74.157387 83.469849 
L 74.25688 79.85602 
L 74.272589 79.85602 
L 74.413973 75.20967 
L 74.513466 75.20967 
L 74.592012 87.599939 
L 74.63914 86.051155 
L 74.670559 86.051155 
L 74.696741 89.148722 
L 74.780524 88.1162 
L 74.853835 88.1162 
L 74.859071 86.567416 
L 74.916672 94.311334 
L 74.942854 94.311334 
L 75.047583 94.311334 
L 75.162785 92.762551 
L 75.178494 92.762551 
L 75.293696 95.860118 
L 75.325115 95.860118 
L 75.440317 94.311334 
L 75.445553 94.311334 
L 75.560755 97.408901 
L 75.602647 97.408901 
L 75.618356 96.63451 
L 75.623593 99.732077 
L 75.696903 99.732077 
L 75.707376 99.732077 
L 75.712612 102.829644 
L 75.817341 100.248338 
L 75.958725 100.248338 
L 75.990144 103.345905 
L 76.032035 99.473946 
L 76.068691 102.571513 
L 76.304331 102.571513 
L 76.419533 101.02273 
L 76.435242 101.02273 
L 76.508552 104.120297 
L 76.545207 102.571513 
L 76.550444 102.571513 
L 76.57139 105.669081 
L 76.634227 101.538991 
L 76.660409 104.636558 
L 76.712774 104.636558 
L 76.759902 107.734125 
L 76.822739 106.701603 
L 76.859394 106.701603 
L 76.979833 112.896738 
L 76.995542 112.896738 
L 77.037434 115.994305 
L 77.105507 114.445521 
L 77.121217 114.445521 
L 77.236419 117.543088 
L 77.36733 117.543088 
L 77.388276 114.961782 
L 77.393512 118.05935 
L 77.472059 118.05935 
L 77.592497 118.05935 
L 77.707699 121.156917 
L 77.723408 121.156917 
L 77.83861 120.124394 
L 77.948575 120.124394 
L 77.969521 118.575611 
L 78.00094 127.868312 
L 78.032359 127.868312 
L 78.079487 127.868312 
L 78.194689 130.96588 
L 78.226107 130.96588 
L 78.351782 127.868312 
L 78.419856 127.868312 
L 78.535058 126.83579 
L 78.828299 126.83579 
L 78.943501 125.803268 
L 79.147722 125.803268 
L 79.262924 124.770745 
L 79.503801 124.770745 
L 79.624239 130.96588 
L 79.817987 130.96588 
L 79.933189 134.063447 
L 80.509199 134.063447 
L 80.6244 133.289055 
L 80.64011 133.289055 
L 80.755312 132.256533 
L 81.048553 132.256533 
L 81.163755 131.22401 
L 81.1847 131.22401 
L 81.299902 134.321577 
L 82.368138 134.321577 
L 82.488576 132.514663 
L 83.724378 132.514663 
L 83.83958 135.61223 
L 86.253582 135.61223 
L 86.368784 131.740271 
L 86.379257 131.740271 
L 86.494459 134.837839 
L 87.300872 134.837839 
L 87.416074 133.805316 
L 87.855935 133.805316 
L 87.971137 133.030924 
L 89.023663 133.030924 
L 89.138865 131.998402 
L 89.672983 131.998402 
L 89.788185 130.96588 
L 90.468923 130.96588 
L 90.505578 134.063447 
L 90.578888 133.289055 
L 91.306755 133.289055 
L 91.421956 132.514663 
L 92.238842 132.514663 
L 92.354044 135.61223 
L 93.736466 135.61223 
L 93.851668 138.709798 
L 96.249962 138.709798 
L 96.365163 137.677275 
L 97.187286 137.677275 
L 97.302488 136.644753 
L 98.43356 136.644753 
L 98.548762 139.74232 
L 99.313284 139.74232 
L 99.428486 138.967928 
L 99.606525 138.967928 
L 99.721727 142.065496 
L 100.491485 142.065496 
L 100.606686 141.291104 
L 100.988947 141.291104 
L 101.104149 140.516712 
L 103.62288 140.516712 
L 103.738082 139.48419 
L 105.219997 139.48419 
L 105.335199 138.709798 
L 111.14242 138.709798 
L 111.257622 137.677275 
L 113.231763 137.677275 
L 113.346965 140.774843 
L 113.373147 140.774843 
L 113.488349 143.87241 
L 113.551186 143.87241 
L 113.661151 142.065496 
L 113.776353 145.163063 
L 113.912501 145.163063 
L 114.027703 144.388671 
L 114.745096 144.388671 
L 114.860298 143.614279 
L 115.321106 143.614279 
L 115.436307 143.098018 
L 118.929018 143.098018 
L 119.04422 142.323626 
L 130.208327 142.323626 
L 130.323529 145.421193 
L 130.522514 145.421193 
L 130.637716 144.388671 
L 131.307982 144.388671 
L 131.423183 147.486238 
L 132.109158 147.486238 
L 132.22436 146.711846 
L 133.104083 146.711846 
L 133.219285 145.937455 
L 133.360669 145.937455 
L 133.475871 144.904932 
L 139.251673 144.904932 
L 139.366875 143.87241 
L 143.954004 143.87241 
L 144.069206 142.839887 
L 146.860232 142.839887 
L 146.975434 145.937455 
L 152.34803 145.937455 
L 152.463232 149.035022 
L 156.448169 149.035022 
L 156.563371 148.002499 
L 158.830753 148.002499 
L 158.945955 147.228108 
L 183.714354 147.228108 
L 183.829556 150.325675 
L 184.436984 150.325675 
L 184.552186 149.293152 
L 187.725473 149.293152 
L 187.840675 148.518761 
L 193.846881 148.518761 
L 193.962083 147.744369 
L 197.088243 147.744369 
L 197.203444 146.969977 
L 211.52513 146.969977 
L 211.640332 145.937455 
L 228.962502 145.937455 
L 229.077704 145.163063 
L 315.88754 145.163063 
L 316.002742 143.614279 
L 319.155084 143.614279 
L 319.270286 146.711846 
L 383.547686 146.711846 
L 383.662888 145.679324 
L 389.103558 145.679324 
L 389.21876 144.646802 
L 398.487273 144.646802 
L 398.487273 144.646802 
" clip-path="url(#p6658c2bacc)" style="fill: none; stroke: #17becf; stroke-width: 1.5; stroke-linecap: square"/>
   </g>
   <g id="line2d_22">
    <path d="M 73.832727 63.077531 
L 73.837964 63.077531 
L 73.953166 66.175099 
L 73.968875 66.175099 
L 74.089313 72.370233 
L 115.321106 72.370233 
L 115.436307 75.4678 
L 131.307982 75.4678 
L 131.423183 78.565367 
L 398.487273 78.565367 
L 398.487273 78.565367 
" clip-path="url(#p6658c2bacc)" style="fill: none; stroke: #1f77b4; stroke-width: 1.5; stroke-linecap: square"/>
   </g>
   <g id="line2d_23">
    <path d="M 73.832727 63.077531 
L 73.848437 63.077531 
L 73.963638 58.947442 
L 74.052658 58.947442 
L 74.16786 62.045009 
L 74.696741 62.045009 
L 74.811943 65.142576 
L 75.602647 65.142576 
L 75.723085 71.337711 
L 76.016326 71.337711 
L 76.037272 74.435278 
L 76.126292 73.402755 
L 76.628991 73.402755 
L 76.744192 76.500323 
L 76.759902 76.500323 
L 76.875104 79.59789 
L 76.995542 79.59789 
L 77.110744 78.565367 
L 77.36733 78.565367 
L 77.482532 81.662935 
L 77.723408 81.662935 
L 77.83861 84.760502 
L 77.995704 84.760502 
L 78.079487 81.662935 
L 78.105669 84.760502 
L 78.189452 84.760502 
L 78.226107 81.662935 
L 78.299417 84.760502 
L 78.304654 84.760502 
L 78.425092 90.955636 
L 78.660732 90.955636 
L 78.775934 87.858069 
L 78.828299 87.858069 
L 78.943501 90.955636 
L 79.147722 90.955636 
L 79.262924 94.053204 
L 79.503801 94.053204 
L 79.619002 93.020681 
L 80.509199 93.020681 
L 80.6244 96.118248 
L 80.828622 96.118248 
L 80.943824 93.020681 
L 81.048553 93.020681 
L 81.163755 96.118248 
L 81.813074 96.118248 
L 81.928276 93.020681 
L 82.038241 93.020681 
L 82.153443 89.923114 
L 82.368138 89.923114 
L 82.488576 96.118248 
L 86.342602 96.118248 
L 86.457804 99.215816 
L 87.033813 99.215816 
L 87.149015 96.118248 
L 87.300872 96.118248 
L 87.416074 99.215816 
L 87.855935 99.215816 
L 87.971137 102.313383 
L 88.426708 102.313383 
L 88.54191 99.215816 
L 89.023663 99.215816 
L 89.138865 102.313383 
L 89.599672 102.313383 
L 89.672983 99.215816 
L 89.709638 102.313383 
L 89.924332 102.313383 
L 90.039534 99.215816 
L 90.468923 99.215816 
L 90.505578 96.118248 
L 90.578888 99.215816 
L 91.306755 99.215816 
L 91.427193 105.41095 
L 91.830399 105.41095 
L 91.945601 102.313383 
L 94.663318 102.313383 
L 94.77852 99.215816 
L 96.249962 99.215816 
L 96.365163 102.313383 
L 97.187286 102.313383 
L 97.302488 105.41095 
L 97.642857 105.41095 
L 97.758059 102.313383 
L 98.43356 102.313383 
L 98.548762 105.41095 
L 98.904841 105.41095 
L 99.020043 102.313383 
L 99.313284 102.313383 
L 99.428486 105.41095 
L 100.444356 105.41095 
L 100.491485 102.313383 
L 100.554322 105.41095 
L 100.60145 105.41095 
L 100.716652 102.313383 
L 100.988947 102.313383 
L 101.104149 105.41095 
L 102.245695 105.41095 
L 102.360896 108.508517 
L 102.68032 108.508517 
L 102.795522 105.41095 
L 103.486733 105.41095 
L 103.601935 108.508517 
L 103.62288 108.508517 
L 103.738082 111.606085 
L 103.921358 111.606085 
L 104.03656 108.508517 
L 104.413584 108.508517 
L 104.418821 111.606085 
L 104.52355 108.508517 
L 104.916283 108.508517 
L 105.031485 105.41095 
L 105.219997 105.41095 
L 105.335199 108.508517 
L 111.14242 108.508517 
L 111.257622 111.606085 
L 111.707956 111.606085 
L 111.823158 114.703652 
L 111.885996 114.703652 
L 112.001197 111.606085 
L 113.153216 111.606085 
L 113.268418 108.508517 
L 113.551186 108.508517 
L 113.666388 111.606085 
L 113.912501 111.606085 
L 114.027703 114.703652 
L 114.409964 114.703652 
L 114.525165 111.606085 
L 114.703205 111.606085 
L 114.745096 108.508517 
L 114.81317 111.606085 
L 115.321106 111.606085 
L 115.436307 114.703652 
L 115.802859 114.703652 
L 115.918061 111.606085 
L 117.017715 111.606085 
L 117.132917 114.703652 
L 118.373955 114.703652 
L 118.489157 111.606085 
L 118.929018 111.606085 
L 119.04422 114.703652 
L 120.876977 114.703652 
L 120.992179 111.606085 
L 130.522514 111.606085 
L 130.637716 114.703652 
L 131.307982 114.703652 
L 131.397001 117.801219 
L 131.417947 114.703652 
L 131.496494 114.703652 
L 131.611696 111.606085 
L 132.109158 111.606085 
L 132.22436 114.703652 
L 133.077901 114.703652 
L 133.104083 111.606085 
L 133.187866 114.703652 
L 133.360669 114.703652 
L 133.475871 117.801219 
L 135.052042 117.801219 
L 135.167244 114.703652 
L 138.576172 114.703652 
L 138.691373 111.606085 
L 139.251673 111.606085 
L 139.366875 114.703652 
L 143.954004 114.703652 
L 144.069206 117.801219 
L 147.179656 117.801219 
L 147.294858 114.703652 
L 156.448169 114.703652 
L 156.563371 117.801219 
L 158.830753 117.801219 
L 158.945955 120.898786 
L 177.430616 120.898786 
L 177.535345 123.996353 
L 177.540582 120.898786 
L 179.640397 120.898786 
L 179.755599 117.801219 
L 183.714354 117.801219 
L 183.829556 114.703652 
L 184.436984 114.703652 
L 184.552186 117.801219 
L 187.725473 117.801219 
L 187.840675 120.898786 
L 193.192325 120.898786 
L 193.307527 117.801219 
L 193.846881 117.801219 
L 193.962083 120.898786 
L 197.088243 120.898786 
L 197.203444 123.996353 
L 204.895787 123.996353 
L 205.010989 120.898786 
L 207.639685 120.898786 
L 207.754887 117.801219 
L 211.52513 117.801219 
L 211.640332 120.898786 
L 216.861071 120.898786 
L 216.976272 123.996353 
L 227.590553 123.996353 
L 227.705755 120.898786 
L 228.962502 120.898786 
L 229.077704 123.996353 
L 315.88754 123.996353 
L 316.002742 127.093921 
L 323.721267 127.093921 
L 323.836469 123.996353 
L 336.492964 123.996353 
L 336.608166 120.898786 
L 344.32669 120.898786 
L 344.441892 123.996353 
L 373.923095 123.996353 
L 374.038297 120.898786 
L 383.547686 120.898786 
L 383.662888 123.996353 
L 389.103558 123.996353 
L 389.21876 127.093921 
L 398.487273 127.093921 
L 398.487273 127.093921 
" clip-path="url(#p6658c2bacc)" style="fill: none; stroke: #ff7f0e; stroke-width: 1.5; stroke-linecap: square"/>
   </g>
   <g id="patch_3">
    <path d="M 57.6 162.432 
L 57.6 41.472 
" style="fill: none; stroke: #000000; stroke-width: 0.8; stroke-linejoin: miter; stroke-linecap: square"/>
   </g>
   <g id="patch_4">
    <path d="M 414.72 162.432 
L 414.72 41.472 
" style="fill: none; stroke: #000000; stroke-width: 0.8; stroke-linejoin: miter; stroke-linecap: square"/>
   </g>
   <g id="patch_5">
    <path d="M 57.6 162.432 
L 414.72 162.432 
" style="fill: none; stroke: #000000; stroke-width: 0.8; stroke-linejoin: miter; stroke-linecap: square"/>
   </g>
   <g id="patch_6">
    <path d="M 57.6 41.472 
L 414.72 41.472 
" style="fill: none; stroke: #000000; stroke-width: 0.8; stroke-linejoin: miter; stroke-linecap: square"/>
   </g>
   <g id="text_12">
    <!-- WSP -->
    <g transform="translate(361.832136 46.970182)scale(0.08 -0.08)">
     <defs>
      <path id="DejaVuSans-57" d="M 213 4666 
L 850 4666 
L 1831 722 
L 2809 4666 
L 3519 4666 
L 4500 722 
L 5478 4666 
L 6119 4666 
L 4947 0 
L 4153 0 
L 3169 4050 
L 2175 0 
L 1381 0 
L 213 4666 
z
" transform="scale(0.015625)"/>
      <path id="DejaVuSans-53" d="M 3425 4513 
L 3425 3897 
Q 3066 4069 2747 4153 
Q 2428 4238 2131 4238 
Q 1616 4238 1336 4038 
Q 1056 3838 1056 3469 
Q 1056 3159 1242 3001 
Q 1428 2844 1947 2747 
L 2328 2669 
Q 3034 2534 3370 2195 
Q 3706 1856 3706 1288 
Q 3706 609 3251 259 
Q 2797 -91 1919 -91 
Q 1588 -91 1214 -16 
Q 841 59 441 206 
L 441 856 
Q 825 641 1194 531 
Q 1563 422 1919 422 
Q 2459 422 2753 634 
Q 3047 847 3047 1241 
Q 3047 1584 2836 1778 
Q 2625 1972 2144 2069 
L 1759 2144 
Q 1053 2284 737 2584 
Q 422 2884 422 3419 
Q 422 4038 858 4394 
Q 1294 4750 2059 4750 
Q 2388 4750 2728 4690 
Q 3069 4631 3425 4513 
z
" transform="scale(0.015625)"/>
      <path id="DejaVuSans-50" d="M 1259 4147 
L 1259 2394 
L 2053 2394 
Q 2494 2394 2734 2622 
Q 2975 2850 2975 3272 
Q 2975 3691 2734 3919 
Q 2494 4147 2053 4147 
L 1259 4147 
z
M 628 4666 
L 2053 4666 
Q 2838 4666 3239 4311 
Q 3641 3956 3641 3272 
Q 3641 2581 3239 2228 
Q 2838 1875 2053 1875 
L 1259 1875 
L 1259 0 
L 628 0 
L 628 4666 
z
" transform="scale(0.015625)"/>
     </defs>
     <use xlink:href="#DejaVuSans-57"/>
     <use xlink:href="#DejaVuSans-53" x="98.876953"/>
     <use xlink:href="#DejaVuSans-50" x="162.353516"/>
    </g>
   </g>
   <g id="text_13">
    <!-- Iambic -->
    <g transform="translate(361.832136 156.933818)scale(0.08 -0.08)">
     <defs>
      <path id="DejaVuSans-49" d="M 628 4666 
L 1259 4666 
L 1259 0 
L 628 0 
L 628 4666 
z
" transform="scale(0.015625)"/>
      <path id="DejaVuSans-61" d="M 2194 1759 
Q 1497 1759 1228 1600 
Q 959 1441 959 1056 
Q 959 750 1161 570 
Q 1363 391 1709 391 
Q 2188 391 2477 730 
Q 2766 1069 2766 1631 
L 2766 1759 
L 2194 1759 
z
M 3341 1997 
L 3341 0 
L 2766 0 
L 2766 531 
Q 2569 213 2275 61 
Q 1981 -91 1556 -91 
Q 1019 -91 701 211 
Q 384 513 384 1019 
Q 384 1609 779 1909 
Q 1175 2209 1959 2209 
L 2766 2209 
L 2766 2266 
Q 2766 2663 2505 2880 
Q 2244 3097 1772 3097 
Q 1472 3097 1187 3025 
Q 903 2953 641 2809 
L 641 3341 
Q 956 3463 1253 3523 
Q 1550 3584 1831 3584 
Q 2591 3584 2966 3190 
Q 3341 2797 3341 1997 
z
" transform="scale(0.015625)"/>
      <path id="DejaVuSans-6d" d="M 3328 2828 
Q 3544 3216 3844 3400 
Q 4144 3584 4550 3584 
Q 5097 3584 5394 3201 
Q 5691 2819 5691 2113 
L 5691 0 
L 5113 0 
L 5113 2094 
Q 5113 2597 4934 2840 
Q 4756 3084 4391 3084 
Q 3944 3084 3684 2787 
Q 3425 2491 3425 1978 
L 3425 0 
L 2847 0 
L 2847 2094 
Q 2847 2600 2669 2842 
Q 2491 3084 2119 3084 
Q 1678 3084 1418 2786 
Q 1159 2488 1159 1978 
L 1159 0 
L 581 0 
L 581 3500 
L 1159 3500 
L 1159 2956 
Q 1356 3278 1631 3431 
Q 1906 3584 2284 3584 
Q 2666 3584 2933 3390 
Q 3200 3197 3328 2828 
z
" transform="scale(0.015625)"/>
      <path id="DejaVuSans-62" d="M 3116 1747 
Q 3116 2381 2855 2742 
Q 2594 3103 2138 3103 
Q 1681 3103 1420 2742 
Q 1159 2381 1159 1747 
Q 1159 1113 1420 752 
Q 1681 391 2138 391 
Q 2594 391 2855 752 
Q 3116 1113 3116 1747 
z
M 1159 2969 
Q 1341 3281 1617 3432 
Q 1894 3584 2278 3584 
Q 2916 3584 3314 3078 
Q 3713 2572 3713 1747 
Q 3713 922 3314 415 
Q 2916 -91 2278 -91 
Q 1894 -91 1617 61 
Q 1341 213 1159 525 
L 1159 0 
L 581 0 
L 581 4863 
L 1159 4863 
L 1159 2969 
z
" transform="scale(0.015625)"/>
      <path id="DejaVuSans-69" d="M 603 3500 
L 1178 3500 
L 1178 0 
L 603 0 
L 603 3500 
z
M 603 4863 
L 1178 4863 
L 1178 4134 
L 603 4134 
L 603 4863 
z
" transform="scale(0.015625)"/>
      <path id="DejaVuSans-63" d="M 3122 3366 
L 3122 2828 
Q 2878 2963 2633 3030 
Q 2388 3097 2138 3097 
Q 1578 3097 1268 2742 
Q 959 2388 959 1747 
Q 959 1106 1268 751 
Q 1578 397 2138 397 
Q 2388 397 2633 464 
Q 2878 531 3122 666 
L 3122 134 
Q 2881 22 2623 -34 
Q 2366 -91 2075 -91 
Q 1284 -91 818 406 
Q 353 903 353 1747 
Q 353 2603 823 3093 
Q 1294 3584 2113 3584 
Q 2378 3584 2631 3529 
Q 2884 3475 3122 3366 
z
" transform="scale(0.015625)"/>
     </defs>
     <use xlink:href="#DejaVuSans-49"/>
     <use xlink:href="#DejaVuSans-61" x="29.492188"/>
     <use xlink:href="#DejaVuSans-6d" x="90.771484"/>
     <use xlink:href="#DejaVuSans-62" x="188.183594"/>
     <use xlink:href="#DejaVuSans-69" x="251.660156"/>
     <use xlink:href="#DejaVuSans-63" x="279.443359"/>
    </g>
   </g>
   <g id="text_14">
    <!-- Parse -->
    <g transform="translate(361.832136 150.996814)scale(0.08 -0.08)">
     <defs>
      <path id="DejaVuSans-72" d="M 2631 2963 
Q 2534 3019 2420 3045 
Q 2306 3072 2169 3072 
Q 1681 3072 1420 2755 
Q 1159 2438 1159 1844 
L 1159 0 
L 581 0 
L 581 3500 
L 1159 3500 
L 1159 2956 
Q 1341 3275 1631 3429 
Q 1922 3584 2338 3584 
Q 2397 3584 2469 3576 
Q 2541 3569 2628 3553 
L 2631 2963 
z
" transform="scale(0.015625)"/>
      <path id="DejaVuSans-73" d="M 2834 3397 
L 2834 2853 
Q 2591 2978 2328 3040 
Q 2066 3103 1784 3103 
Q 1356 3103 1142 2972 
Q 928 2841 928 2578 
Q 928 2378 1081 2264 
Q 1234 2150 1697 2047 
L 1894 2003 
Q 2506 1872 2764 1633 
Q 3022 1394 3022 966 
Q 3022 478 2636 193 
Q 2250 -91 1575 -91 
Q 1294 -91 989 -36 
Q 684 19 347 128 
L 347 722 
Q 666 556 975 473 
Q 1284 391 1588 391 
Q 1994 391 2212 530 
Q 2431 669 2431 922 
Q 2431 1156 2273 1281 
Q 2116 1406 1581 1522 
L 1381 1569 
Q 847 1681 609 1914 
Q 372 2147 372 2553 
Q 372 3047 722 3315 
Q 1072 3584 1716 3584 
Q 2034 3584 2315 3537 
Q 2597 3491 2834 3397 
z
" transform="scale(0.015625)"/>
      <path id="DejaVuSans-65" d="M 3597 1894 
L 3597 1613 
L 953 1613 
Q 991 1019 1311 708 
Q 1631 397 2203 397 
Q 2534 397 2845 478 
Q 3156 559 3463 722 
L 3463 178 
Q 3153 47 2828 -22 
Q 2503 -91 2169 -91 
Q 1331 -91 842 396 
Q 353 884 353 1716 
Q 353 2575 817 3079 
Q 1281 3584 2069 3584 
Q 2775 3584 3186 3129 
Q 3597 2675 3597 1894 
z
M 3022 2063 
Q 3016 2534 2758 2815 
Q 2500 3097 2075 3097 
Q 1594 3097 1305 2825 
Q 1016 2553 972 2059 
L 3022 2063 
z
" transform="scale(0.015625)"/>
     </defs>
     <use xlink:href="#DejaVuSans-50"/>
     <use xlink:href="#DejaVuSans-61" x="55.802734"/>
     <use xlink:href="#DejaVuSans-72" x="117.082031"/>
     <use xlink:href="#DejaVuSans-73" x="158.195312"/>
     <use xlink:href="#DejaVuSans-65" x="210.294922"/>
    </g>
   </g>
   <g id="text_15">
    <!-- FootBin -->
    <g transform="translate(361.832136 104.894689)scale(0.08 -0.08)">
     <defs>
      <path id="DejaVuSans-46" d="M 628 4666 
L 3309 4666 
L 3309 4134 
L 1259 4134 
L 1259 2759 
L 3109 2759 
L 3109 2228 
L 1259 2228 
L 1259 0 
L 628 0 
L 628 4666 
z
" transform="scale(0.015625)"/>
      <path id="DejaVuSans-6f" d="M 1959 3097 
Q 1497 3097 1228 2736 
Q 959 2375 959 1747 
Q 959 1119 1226 758 
Q 1494 397 1959 397 
Q 2419 397 2687 759 
Q 2956 1122 2956 1747 
Q 2956 2369 2687 2733 
Q 2419 3097 1959 3097 
z
M 1959 3584 
Q 2709 3584 3137 3096 
Q 3566 2609 3566 1747 
Q 3566 888 3137 398 
Q 2709 -91 1959 -91 
Q 1206 -91 779 398 
Q 353 888 353 1747 
Q 353 2609 779 3096 
Q 1206 3584 1959 3584 
z
" transform="scale(0.015625)"/>
      <path id="DejaVuSans-74" d="M 1172 4494 
L 1172 3500 
L 2356 3500 
L 2356 3053 
L 1172 3053 
L 1172 1153 
Q 1172 725 1289 603 
Q 1406 481 1766 481 
L 2356 481 
L 2356 0 
L 1766 0 
Q 1100 0 847 248 
Q 594 497 594 1153 
L 594 3053 
L 172 3053 
L 172 3500 
L 594 3500 
L 594 4494 
L 1172 4494 
z
" transform="scale(0.015625)"/>
      <path id="DejaVuSans-42" d="M 1259 2228 
L 1259 519 
L 2272 519 
Q 2781 519 3026 730 
Q 3272 941 3272 1375 
Q 3272 1813 3026 2020 
Q 2781 2228 2272 2228 
L 1259 2228 
z
M 1259 4147 
L 1259 2741 
L 2194 2741 
Q 2656 2741 2882 2914 
Q 3109 3088 3109 3444 
Q 3109 3797 2882 3972 
Q 2656 4147 2194 4147 
L 1259 4147 
z
M 628 4666 
L 2241 4666 
Q 2963 4666 3353 4366 
Q 3744 4066 3744 3513 
Q 3744 3084 3544 2831 
Q 3344 2578 2956 2516 
Q 3422 2416 3680 2098 
Q 3938 1781 3938 1306 
Q 3938 681 3513 340 
Q 3088 0 2303 0 
L 628 0 
L 628 4666 
z
" transform="scale(0.015625)"/>
      <path id="DejaVuSans-6e" d="M 3513 2113 
L 3513 0 
L 2938 0 
L 2938 2094 
Q 2938 2591 2744 2837 
Q 2550 3084 2163 3084 
Q 1697 3084 1428 2787 
Q 1159 2491 1159 1978 
L 1159 0 
L 581 0 
L 581 3500 
L 1159 3500 
L 1159 2956 
Q 1366 3272 1645 3428 
Q 1925 3584 2291 3584 
Q 2894 3584 3203 3211 
Q 3513 2838 3513 2113 
z
" transform="scale(0.015625)"/>
     </defs>
     <use xlink:href="#DejaVuSans-46"/>
     <use xlink:href="#DejaVuSans-6f" x="53.894531"/>
     <use xlink:href="#DejaVuSans-6f" x="115.076172"/>
     <use xlink:href="#DejaVuSans-74" x="176.257812"/>
     <use xlink:href="#DejaVuSans-42" x="215.466797"/>
     <use xlink:href="#DejaVuSans-69" x="284.070312"/>
     <use xlink:href="#DejaVuSans-6e" x="311.853516"/>
    </g>
   </g>
   <g id="text_16">
    <!-- WFL -->
    <g transform="translate(361.832136 68.240143)scale(0.08 -0.08)">
     <defs>
      <path id="DejaVuSans-4c" d="M 628 4666 
L 1259 4666 
L 1259 531 
L 3531 531 
L 3531 0 
L 628 0 
L 628 4666 
z
" transform="scale(0.015625)"/>
     </defs>
     <use xlink:href="#DejaVuSans-57"/>
     <use xlink:href="#DejaVuSans-46" x="98.876953"/>
     <use xlink:href="#DejaVuSans-4c" x="156.396484"/>
    </g>
   </g>
   <g id="text_17">
    <!-- WFR -->
    <g transform="translate(361.832136 59.360451)scale(0.08 -0.08)">
     <defs>
      <path id="DejaVuSans-52" d="M 2841 2188 
Q 3044 2119 3236 1894 
Q 3428 1669 3622 1275 
L 4263 0 
L 3584 0 
L 2988 1197 
Q 2756 1666 2539 1819 
Q 2322 1972 1947 1972 
L 1259 1972 
L 1259 0 
L 628 0 
L 628 4666 
L 2053 4666 
Q 2853 4666 3247 4331 
Q 3641 3997 3641 3322 
Q 3641 2881 3436 2590 
Q 3231 2300 2841 2188 
z
M 1259 4147 
L 1259 2491 
L 2053 2491 
Q 2509 2491 2742 2702 
Q 2975 2913 2975 3322 
Q 2975 3731 2742 3939 
Q 2509 4147 2053 4147 
L 1259 4147 
z
" transform="scale(0.015625)"/>
     </defs>
     <use xlink:href="#DejaVuSans-57"/>
     <use xlink:href="#DejaVuSans-46" x="98.876953"/>
     <use xlink:href="#DejaVuSans-52" x="156.396484"/>
    </g>
   </g>
   <g id="text_18">
    <!-- Main-L -->
    <g transform="translate(361.832136 143.614279)scale(0.08 -0.08)">
     <defs>
      <path id="DejaVuSans-4d" d="M 628 4666 
L 1569 4666 
L 2759 1491 
L 3956 4666 
L 4897 4666 
L 4897 0 
L 4281 0 
L 4281 4097 
L 3078 897 
L 2444 897 
L 1241 4097 
L 1241 0 
L 628 0 
L 628 4666 
z
" transform="scale(0.015625)"/>
      <path id="DejaVuSans-2d" d="M 313 2009 
L 1997 2009 
L 1997 1497 
L 313 1497 
L 313 2009 
z
" transform="scale(0.015625)"/>
     </defs>
     <use xlink:href="#DejaVuSans-4d"/>
     <use xlink:href="#DejaVuSans-61" x="86.279297"/>
     <use xlink:href="#DejaVuSans-69" x="147.558594"/>
     <use xlink:href="#DejaVuSans-6e" x="175.341797"/>
     <use xlink:href="#DejaVuSans-2d" x="238.720703"/>
     <use xlink:href="#DejaVuSans-4c" x="274.804688"/>
    </g>
   </g>
   <g id="text_19">
    <!-- Main-R -->
    <g transform="translate(361.832136 52.390924)scale(0.08 -0.08)">
     <use xlink:href="#DejaVuSans-4d"/>
     <use xlink:href="#DejaVuSans-61" x="86.279297"/>
     <use xlink:href="#DejaVuSans-69" x="147.558594"/>
     <use xlink:href="#DejaVuSans-6e" x="175.341797"/>
     <use xlink:href="#DejaVuSans-2d" x="238.720703"/>
     <use xlink:href="#DejaVuSans-52" x="274.804688"/>
    </g>
   </g>
   <g id="text_20">
    <!-- AFL -->
    <g transform="translate(361.832136 97.150771)scale(0.08 -0.08)">
     <defs>
      <path id="DejaVuSans-41" d="M 2188 4044 
L 1331 1722 
L 3047 1722 
L 2188 4044 
z
M 1831 4666 
L 2547 4666 
L 4325 0 
L 3669 0 
L 3244 1197 
L 1141 1197 
L 716 0 
L 50 0 
L 1831 4666 
z
" transform="scale(0.015625)"/>
     </defs>
     <use xlink:href="#DejaVuSans-41"/>
     <use xlink:href="#DejaVuSans-46" x="68.408203"/>
     <use xlink:href="#DejaVuSans-4c" x="125.927734"/>
    </g>
   </g>
   <g id="text_21">
    <!-- AFR -->
    <g transform="translate(361.832136 144.646802)scale(0.08 -0.08)">
     <use xlink:href="#DejaVuSans-41"/>
     <use xlink:href="#DejaVuSans-46" x="68.408203"/>
     <use xlink:href="#DejaVuSans-52" x="125.927734"/>
    </g>
   </g>
   <g id="text_22">
    <!-- Nonfinal -->
    <g transform="translate(361.832136 78.565367)scale(0.08 -0.08)">
     <defs>
      <path id="DejaVuSans-4e" d="M 628 4666 
L 1478 4666 
L 3547 763 
L 3547 4666 
L 4159 4666 
L 4159 0 
L 3309 0 
L 1241 3903 
L 1241 0 
L 628 0 
L 628 4666 
z
" transform="scale(0.015625)"/>
      <path id="DejaVuSans-66" d="M 2375 4863 
L 2375 4384 
L 1825 4384 
Q 1516 4384 1395 4259 
Q 1275 4134 1275 3809 
L 1275 3500 
L 2222 3500 
L 2222 3053 
L 1275 3053 
L 1275 0 
L 697 0 
L 697 3053 
L 147 3053 
L 147 3500 
L 697 3500 
L 697 3744 
Q 697 4328 969 4595 
Q 1241 4863 1831 4863 
L 2375 4863 
z
" transform="scale(0.015625)"/>
      <path id="DejaVuSans-6c" d="M 603 4863 
L 1178 4863 
L 1178 0 
L 603 0 
L 603 4863 
z
" transform="scale(0.015625)"/>
     </defs>
     <use xlink:href="#DejaVuSans-4e"/>
     <use xlink:href="#DejaVuSans-6f" x="74.804688"/>
     <use xlink:href="#DejaVuSans-6e" x="135.986328"/>
     <use xlink:href="#DejaVuSans-66" x="199.365234"/>
     <use xlink:href="#DejaVuSans-69" x="234.570312"/>
     <use xlink:href="#DejaVuSans-6e" x="262.353516"/>
     <use xlink:href="#DejaVuSans-61" x="325.732422"/>
     <use xlink:href="#DejaVuSans-6c" x="387.011719"/>
    </g>
   </g>
   <g id="text_23">
    <!-- Trochaic -->
    <g transform="translate(361.832136 127.093921)scale(0.08 -0.08)">
     <defs>
      <path id="DejaVuSans-54" d="M -19 4666 
L 3928 4666 
L 3928 4134 
L 2272 4134 
L 2272 0 
L 1638 0 
L 1638 4134 
L -19 4134 
L -19 4666 
z
" transform="scale(0.015625)"/>
      <path id="DejaVuSans-68" d="M 3513 2113 
L 3513 0 
L 2938 0 
L 2938 2094 
Q 2938 2591 2744 2837 
Q 2550 3084 2163 3084 
Q 1697 3084 1428 2787 
Q 1159 2491 1159 1978 
L 1159 0 
L 581 0 
L 581 4863 
L 1159 4863 
L 1159 2956 
Q 1366 3272 1645 3428 
Q 1925 3584 2291 3584 
Q 2894 3584 3203 3211 
Q 3513 2838 3513 2113 
z
" transform="scale(0.015625)"/>
     </defs>
     <use xlink:href="#DejaVuSans-54"/>
     <use xlink:href="#DejaVuSans-72" x="46.333984"/>
     <use xlink:href="#DejaVuSans-6f" x="85.197266"/>
     <use xlink:href="#DejaVuSans-63" x="146.378906"/>
     <use xlink:href="#DejaVuSans-68" x="201.359375"/>
     <use xlink:href="#DejaVuSans-61" x="264.738281"/>
     <use xlink:href="#DejaVuSans-69" x="326.017578"/>
     <use xlink:href="#DejaVuSans-63" x="353.800781"/>
    </g>
   </g>
  </g>
  <g id="axes_2">
   <g id="patch_7">
    <path d="M 57.6 307.584 
L 414.72 307.584 
L 414.72 186.624 
L 57.6 186.624 
z
" style="fill: #ffffff"/>
   </g>
   <g id="matplotlib.axis_3">
    <g id="xtick_8">
     <g id="line2d_24">
      <g>
       <use xlink:href="#m8f8db2436b" x="72.225527" y="307.584" style="stroke: #000000; stroke-width: 0.8"/>
      </g>
     </g>
     <g id="text_24">
      <!-- 0 -->
      <g transform="translate(69.044277 322.182437)scale(0.1 -0.1)">
       <use xlink:href="#DejaVuSans-30"/>
      </g>
     </g>
    </g>
    <g id="xtick_9">
     <g id="line2d_25">
      <g>
       <use xlink:href="#m8f8db2436b" x="112.405545" y="307.584" style="stroke: #000000; stroke-width: 0.8"/>
      </g>
     </g>
     <g id="text_25">
      <!-- 25 -->
      <g transform="translate(106.043045 322.182437)scale(0.1 -0.1)">
       <use xlink:href="#DejaVuSans-32"/>
       <use xlink:href="#DejaVuSans-35" x="63.623047"/>
      </g>
     </g>
    </g>
    <g id="xtick_10">
     <g id="line2d_26">
      <g>
       <use xlink:href="#m8f8db2436b" x="152.585563" y="307.584" style="stroke: #000000; stroke-width: 0.8"/>
      </g>
     </g>
     <g id="text_26">
      <!-- 50 -->
      <g transform="translate(146.223063 322.182437)scale(0.1 -0.1)">
       <use xlink:href="#DejaVuSans-35"/>
       <use xlink:href="#DejaVuSans-30" x="63.623047"/>
      </g>
     </g>
    </g>
    <g id="xtick_11">
     <g id="line2d_27">
      <g>
       <use xlink:href="#m8f8db2436b" x="192.765581" y="307.584" style="stroke: #000000; stroke-width: 0.8"/>
      </g>
     </g>
     <g id="text_27">
      <!-- 75 -->
      <g transform="translate(186.403081 322.182437)scale(0.1 -0.1)">
       <use xlink:href="#DejaVuSans-37"/>
       <use xlink:href="#DejaVuSans-35" x="63.623047"/>
      </g>
     </g>
    </g>
    <g id="xtick_12">
     <g id="line2d_28">
      <g>
       <use xlink:href="#m8f8db2436b" x="232.945599" y="307.584" style="stroke: #000000; stroke-width: 0.8"/>
      </g>
     </g>
     <g id="text_28">
      <!-- 100 -->
      <g transform="translate(223.401849 322.182437)scale(0.1 -0.1)">
       <use xlink:href="#DejaVuSans-31"/>
       <use xlink:href="#DejaVuSans-30" x="63.623047"/>
       <use xlink:href="#DejaVuSans-30" x="127.246094"/>
      </g>
     </g>
    </g>
    <g id="xtick_13">
     <g id="line2d_29">
      <g>
       <use xlink:href="#m8f8db2436b" x="273.125617" y="307.584" style="stroke: #000000; stroke-width: 0.8"/>
      </g>
     </g>
     <g id="text_29">
      <!-- 125 -->
      <g transform="translate(263.581867 322.182437)scale(0.1 -0.1)">
       <use xlink:href="#DejaVuSans-31"/>
       <use xlink:href="#DejaVuSans-32" x="63.623047"/>
       <use xlink:href="#DejaVuSans-35" x="127.246094"/>
      </g>
     </g>
    </g>
    <g id="xtick_14">
     <g id="line2d_30">
      <g>
       <use xlink:href="#m8f8db2436b" x="313.305635" y="307.584" style="stroke: #000000; stroke-width: 0.8"/>
      </g>
     </g>
     <g id="text_30">
      <!-- 150 -->
      <g transform="translate(303.761885 322.182437)scale(0.1 -0.1)">
       <use xlink:href="#DejaVuSans-31"/>
       <use xlink:href="#DejaVuSans-35" x="63.623047"/>
       <use xlink:href="#DejaVuSans-30" x="127.246094"/>
      </g>
     </g>
    </g>
    <g id="xtick_15">
     <g id="line2d_31">
      <g>
       <use xlink:href="#m8f8db2436b" x="353.485653" y="307.584" style="stroke: #000000; stroke-width: 0.8"/>
      </g>
     </g>
     <g id="text_31">
      <!-- 175 -->
      <g transform="translate(343.941903 322.182437)scale(0.1 -0.1)">
       <use xlink:href="#DejaVuSans-31"/>
       <use xlink:href="#DejaVuSans-37" x="63.623047"/>
       <use xlink:href="#DejaVuSans-35" x="127.246094"/>
      </g>
     </g>
    </g>
    <g id="xtick_16">
     <g id="line2d_32">
      <g>
       <use xlink:href="#m8f8db2436b" x="393.665671" y="307.584" style="stroke: #000000; stroke-width: 0.8"/>
      </g>
     </g>
     <g id="text_32">
      <!-- 200 -->
      <g transform="translate(384.121921 322.182437)scale(0.1 -0.1)">
       <use xlink:href="#DejaVuSans-32"/>
       <use xlink:href="#DejaVuSans-30" x="63.623047"/>
       <use xlink:href="#DejaVuSans-30" x="127.246094"/>
      </g>
     </g>
    </g>
   </g>
   <g id="matplotlib.axis_4">
    <g id="ytick_5">
     <g id="line2d_33">
      <g>
       <use xlink:href="#m7fbcd6da49" x="57.6" y="302.092443" style="stroke: #000000; stroke-width: 0.8"/>
      </g>
     </g>
     <g id="text_33">
      <!-- 0 -->
      <g transform="translate(44.2375 305.891662)scale(0.1 -0.1)">
       <use xlink:href="#DejaVuSans-30"/>
      </g>
     </g>
    </g>
    <g id="ytick_6">
     <g id="line2d_34">
      <g>
       <use xlink:href="#m7fbcd6da49" x="57.6" y="268.96887" style="stroke: #000000; stroke-width: 0.8"/>
      </g>
     </g>
     <g id="text_34">
      <!-- 5000 -->
      <g transform="translate(25.15 272.768089)scale(0.1 -0.1)">
       <use xlink:href="#DejaVuSans-35"/>
       <use xlink:href="#DejaVuSans-30" x="63.623047"/>
       <use xlink:href="#DejaVuSans-30" x="127.246094"/>
       <use xlink:href="#DejaVuSans-30" x="190.869141"/>
      </g>
     </g>
    </g>
    <g id="ytick_7">
     <g id="line2d_35">
      <g>
       <use xlink:href="#m7fbcd6da49" x="57.6" y="235.845298" style="stroke: #000000; stroke-width: 0.8"/>
      </g>
     </g>
     <g id="text_35">
      <!-- 10000 -->
      <g transform="translate(18.7875 239.644516)scale(0.1 -0.1)">
       <use xlink:href="#DejaVuSans-31"/>
       <use xlink:href="#DejaVuSans-30" x="63.623047"/>
       <use xlink:href="#DejaVuSans-30" x="127.246094"/>
       <use xlink:href="#DejaVuSans-30" x="190.869141"/>
       <use xlink:href="#DejaVuSans-30" x="254.492188"/>
      </g>
     </g>
    </g>
    <g id="ytick_8">
     <g id="line2d_36">
      <g>
       <use xlink:href="#m7fbcd6da49" x="57.6" y="202.721725" style="stroke: #000000; stroke-width: 0.8"/>
      </g>
     </g>
     <g id="text_36">
      <!-- 15000 -->
      <g transform="translate(18.7875 206.520944)scale(0.1 -0.1)">
       <use xlink:href="#DejaVuSans-31"/>
       <use xlink:href="#DejaVuSans-35" x="63.623047"/>
       <use xlink:href="#DejaVuSans-30" x="127.246094"/>
       <use xlink:href="#DejaVuSans-30" x="190.869141"/>
       <use xlink:href="#DejaVuSans-30" x="254.492188"/>
      </g>
     </g>
    </g>
   </g>
   <g id="line2d_37">
    <path d="M 73.832727 302.085818 
L 117.227147 302.065944 
L 118.834347 301.906951 
L 120.441548 302.079193 
L 128.477552 302.059319 
L 130.084752 302.079193 
L 131.691953 301.906951 
L 133.299154 302.085818 
L 138.120756 302.072569 
L 139.727957 301.9202 
L 142.942358 302.012946 
L 144.549559 301.906951 
L 154.192763 302.085818 
L 155.799964 301.787706 
L 157.407165 302.052695 
L 162.228767 302.079193 
L 163.835968 301.754582 
L 167.050369 301.999697 
L 171.871971 302.065944 
L 179.907975 301.966573 
L 181.515176 302.085818 
L 183.122376 301.926825 
L 184.729577 302.039445 
L 186.336778 301.986447 
L 187.943978 301.781081 
L 189.551179 302.085818 
L 191.15838 302.072569 
L 192.765581 301.834079 
L 194.372781 301.926825 
L 195.979982 301.80758 
L 197.587183 302.065944 
L 202.408785 301.986447 
L 204.015986 301.953324 
L 205.623186 302.04607 
L 207.230387 301.993072 
L 210.444788 302.079193 
L 212.051989 301.999697 
L 213.65919 301.787706 
L 215.266391 301.880452 
L 216.873591 301.688335 
L 218.480792 301.641962 
L 220.087993 302.012946 
L 221.695194 301.774457 
L 223.302394 301.217981 
L 224.909595 301.926825 
L 228.123996 301.814205 
L 229.731197 301.9202 
L 231.338398 301.297477 
L 232.945599 301.80758 
L 234.552799 301.675086 
L 236.16 301.986447 
L 239.374401 298.892706 
L 240.981602 301.979823 
L 242.588803 302.04607 
L 244.196004 301.264354 
L 245.803204 301.754582 
L 247.410405 301.390223 
L 252.232007 301.363724 
L 253.839208 301.999697 
L 255.446409 301.774457 
L 257.053609 301.403473 
L 258.66081 302.04607 
L 260.268011 301.078862 
L 261.875212 302.072569 
L 263.482412 301.449846 
L 265.089613 301.575715 
L 266.696814 300.197775 
L 268.304014 300.919868 
L 269.911215 300.085154 
L 271.518416 300.906619 
L 273.125617 301.516093 
L 274.732817 301.092111 
L 276.340018 301.496219 
L 279.554419 301.721459 
L 281.16162 301.032489 
L 282.768821 302.03282 
L 284.376022 301.953324 
L 285.983222 301.602214 
L 287.590423 300.502511 
L 289.197624 301.542592 
L 290.804824 301.072237 
L 292.412025 301.9202 
L 295.626427 301.46972 
L 297.233627 302.085818 
L 298.840828 301.463095 
L 300.448029 301.708209 
L 302.05523 294.599891 
L 303.66243 301.376974 
L 305.269631 301.867203 
L 306.876832 300.489262 
L 308.484032 301.993072 
L 311.698434 301.867203 
L 313.305635 302.04607 
L 316.520036 302.019571 
L 319.734437 301.463095 
L 322.948839 302.039445 
L 324.55604 301.363724 
L 326.16324 301.482969 
L 327.770441 300.555509 
L 329.377642 300.376642 
L 330.984842 301.390223 
L 332.592043 299.628049 
L 334.199244 290.287202 
L 335.806445 301.69496 
L 337.413645 301.098736 
L 339.020846 301.979823 
L 340.628047 301.966573 
L 342.235248 301.317351 
L 343.842448 300.866871 
L 345.449649 302.059319 
L 347.05685 301.767832 
L 348.66405 299.95266 
L 350.271251 297.63401 
L 351.878452 301.237855 
L 353.485653 296.143449 
L 355.092853 298.415726 
L 356.700054 301.688335 
L 358.307255 295.55385 
L 359.914455 296.905291 
L 361.521656 299.078198 
L 363.128857 278.561457 
L 364.736058 301.959949 
L 367.950459 296.938415 
L 369.55766 301.178232 
L 371.16486 297.932122 
L 372.772061 295.176241 
L 374.379262 301.264354 
L 375.986463 297.991745 
L 377.593663 292.214994 
L 379.200864 298.621092 
L 380.808065 297.176905 
L 382.415266 295.341859 
L 384.022466 288.518403 
L 385.629667 300.356768 
L 387.236868 192.122182 
L 388.844068 297.958621 
L 390.451269 296.315692 
L 392.05847 285.934764 
L 393.665671 292.18187 
L 395.272871 264.649556 
L 396.880072 289.916218 
L 398.487273 295.063621 
L 398.487273 295.063621 
" clip-path="url(#p94d8591588)" style="fill: none; stroke: #1f77b4; stroke-width: 1.5; stroke-linecap: square"/>
   </g>
   <g id="patch_8">
    <path d="M 57.6 307.584 
L 57.6 186.624 
" style="fill: none; stroke: #000000; stroke-width: 0.8; stroke-linejoin: miter; stroke-linecap: square"/>
   </g>
   <g id="patch_9">
    <path d="M 414.72 307.584 
L 414.72 186.624 
" style="fill: none; stroke: #000000; stroke-width: 0.8; stroke-linejoin: miter; stroke-linecap: square"/>
   </g>
   <g id="patch_10">
    <path d="M 57.6 307.584 
L 414.72 307.584 
" style="fill: none; stroke: #000000; stroke-width: 0.8; stroke-linejoin: miter; stroke-linecap: square"/>
   </g>
   <g id="patch_11">
    <path d="M 57.6 186.624 
L 414.72 186.624 
" style="fill: none; stroke: #000000; stroke-width: 0.8; stroke-linejoin: miter; stroke-linecap: square"/>
   </g>
  </g>
 </g>
 <defs>
  <clipPath id="p6658c2bacc">
   <rect x="57.6" y="41.472" width="357.12" height="120.96"/>
  </clipPath>
  <clipPath id="p94d8591588">
   <rect x="57.6" y="186.624" width="357.12" height="120.96"/>
  </clipPath>
 </defs>
</svg>
