<?xml version="1.0" encoding="utf-8" standalone="no"?>
<!DOCTYPE svg PUBLIC "-//W3C//DTD SVG 1.1//EN"
  "http://www.w3.org/Graphics/SVG/1.1/DTD/svg11.dtd">
<svg xmlns:xlink="http://www.w3.org/1999/xlink" width="460.8pt" height="345.6pt" viewBox="0 0 460.8 345.6" xmlns="http://www.w3.org/2000/svg" version="1.1">
 <metadata>
  <rdf:RDF xmlns:dc="http://purl.org/dc/elements/1.1/" xmlns:cc="http://creativecommons.org/ns#" xmlns:rdf="http://www.w3.org/1999/02/22-rdf-syntax-ns#">
   <cc:Work>
    <dc:type rdf:resource="http://purl.org/dc/dcmitype/StillImage"/>
    <dc:date>2022-05-14T02:00:07.859256</dc:date>
    <dc:format>image/svg+xml</dc:format>
    <dc:creator>
     <cc:Agent>
      <dc:title>Matplotlib v3.5.1, https://matplotlib.org/</dc:title>
     </cc:Agent>
    </dc:creator>
   </cc:Work>
  </rdf:RDF>
 </metadata>
 <defs>
  <style type="text/css">*{stroke-linejoin: round; stroke-linecap: butt}</style>
 </defs>
 <g id="figure_1">
  <g id="patch_1">
   <path d="M 0 345.6 
L 460.8 345.6 
L 460.8 0 
L 0 0 
z
" style="fill: #ffffff"/>
  </g>
  <g id="axes_1">
   <g id="patch_2">
    <path d="M 57.6 162.432 
L 414.72 162.432 
L 414.72 41.472 
L 57.6 41.472 
z
" style="fill: #ffffff"/>
   </g>
   <g id="matplotlib.axis_1">
    <g id="xtick_1">
     <g id="line2d_1">
      <defs>
       <path id="m68eb2dc557" d="M 0 0 
L 0 3.5 
" style="stroke: #000000; stroke-width: 0.8"/>
      </defs>
      <g>
       <use xlink:href="#m68eb2dc557" x="73.827491" y="162.432" style="stroke: #000000; stroke-width: 0.8"/>
      </g>
     </g>
     <g id="text_1">
      <!-- 0 -->
      <g transform="translate(70.646241 177.030437)scale(0.1 -0.1)">
       <defs>
        <path id="DejaVuSans-30" d="M 2034 4250 
Q 1547 4250 1301 3770 
Q 1056 3291 1056 2328 
Q 1056 1369 1301 889 
Q 1547 409 2034 409 
Q 2525 409 2770 889 
Q 3016 1369 3016 2328 
Q 3016 3291 2770 3770 
Q 2525 4250 2034 4250 
z
M 2034 4750 
Q 2819 4750 3233 4129 
Q 3647 3509 3647 2328 
Q 3647 1150 3233 529 
Q 2819 -91 2034 -91 
Q 1250 -91 836 529 
Q 422 1150 422 2328 
Q 422 3509 836 4129 
Q 1250 4750 2034 4750 
z
" transform="scale(0.015625)"/>
       </defs>
       <use xlink:href="#DejaVuSans-30"/>
      </g>
     </g>
    </g>
    <g id="xtick_2">
     <g id="line2d_2">
      <g>
       <use xlink:href="#m68eb2dc557" x="126.191972" y="162.432" style="stroke: #000000; stroke-width: 0.8"/>
      </g>
     </g>
     <g id="text_2">
      <!-- 10000 -->
      <g transform="translate(110.285722 177.030437)scale(0.1 -0.1)">
       <defs>
        <path id="DejaVuSans-31" d="M 794 531 
L 1825 531 
L 1825 4091 
L 703 3866 
L 703 4441 
L 1819 4666 
L 2450 4666 
L 2450 531 
L 3481 531 
L 3481 0 
L 794 0 
L 794 531 
z
" transform="scale(0.015625)"/>
       </defs>
       <use xlink:href="#DejaVuSans-31"/>
       <use xlink:href="#DejaVuSans-30" x="63.623047"/>
       <use xlink:href="#DejaVuSans-30" x="127.246094"/>
       <use xlink:href="#DejaVuSans-30" x="190.869141"/>
       <use xlink:href="#DejaVuSans-30" x="254.492188"/>
      </g>
     </g>
    </g>
    <g id="xtick_3">
     <g id="line2d_3">
      <g>
       <use xlink:href="#m68eb2dc557" x="178.556453" y="162.432" style="stroke: #000000; stroke-width: 0.8"/>
      </g>
     </g>
     <g id="text_3">
      <!-- 20000 -->
      <g transform="translate(162.650203 177.030437)scale(0.1 -0.1)">
       <defs>
        <path id="DejaVuSans-32" d="M 1228 531 
L 3431 531 
L 3431 0 
L 469 0 
L 469 531 
Q 828 903 1448 1529 
Q 2069 2156 2228 2338 
Q 2531 2678 2651 2914 
Q 2772 3150 2772 3378 
Q 2772 3750 2511 3984 
Q 2250 4219 1831 4219 
Q 1534 4219 1204 4116 
Q 875 4013 500 3803 
L 500 4441 
Q 881 4594 1212 4672 
Q 1544 4750 1819 4750 
Q 2544 4750 2975 4387 
Q 3406 4025 3406 3419 
Q 3406 3131 3298 2873 
Q 3191 2616 2906 2266 
Q 2828 2175 2409 1742 
Q 1991 1309 1228 531 
z
" transform="scale(0.015625)"/>
       </defs>
       <use xlink:href="#DejaVuSans-32"/>
       <use xlink:href="#DejaVuSans-30" x="63.623047"/>
       <use xlink:href="#DejaVuSans-30" x="127.246094"/>
       <use xlink:href="#DejaVuSans-30" x="190.869141"/>
       <use xlink:href="#DejaVuSans-30" x="254.492188"/>
      </g>
     </g>
    </g>
    <g id="xtick_4">
     <g id="line2d_4">
      <g>
       <use xlink:href="#m68eb2dc557" x="230.920934" y="162.432" style="stroke: #000000; stroke-width: 0.8"/>
      </g>
     </g>
     <g id="text_4">
      <!-- 30000 -->
      <g transform="translate(215.014684 177.030437)scale(0.1 -0.1)">
       <defs>
        <path id="DejaVuSans-33" d="M 2597 2516 
Q 3050 2419 3304 2112 
Q 3559 1806 3559 1356 
Q 3559 666 3084 287 
Q 2609 -91 1734 -91 
Q 1441 -91 1130 -33 
Q 819 25 488 141 
L 488 750 
Q 750 597 1062 519 
Q 1375 441 1716 441 
Q 2309 441 2620 675 
Q 2931 909 2931 1356 
Q 2931 1769 2642 2001 
Q 2353 2234 1838 2234 
L 1294 2234 
L 1294 2753 
L 1863 2753 
Q 2328 2753 2575 2939 
Q 2822 3125 2822 3475 
Q 2822 3834 2567 4026 
Q 2313 4219 1838 4219 
Q 1578 4219 1281 4162 
Q 984 4106 628 3988 
L 628 4550 
Q 988 4650 1302 4700 
Q 1616 4750 1894 4750 
Q 2613 4750 3031 4423 
Q 3450 4097 3450 3541 
Q 3450 3153 3228 2886 
Q 3006 2619 2597 2516 
z
" transform="scale(0.015625)"/>
       </defs>
       <use xlink:href="#DejaVuSans-33"/>
       <use xlink:href="#DejaVuSans-30" x="63.623047"/>
       <use xlink:href="#DejaVuSans-30" x="127.246094"/>
       <use xlink:href="#DejaVuSans-30" x="190.869141"/>
       <use xlink:href="#DejaVuSans-30" x="254.492188"/>
      </g>
     </g>
    </g>
    <g id="xtick_5">
     <g id="line2d_5">
      <g>
       <use xlink:href="#m68eb2dc557" x="283.285415" y="162.432" style="stroke: #000000; stroke-width: 0.8"/>
      </g>
     </g>
     <g id="text_5">
      <!-- 40000 -->
      <g transform="translate(267.379165 177.030437)scale(0.1 -0.1)">
       <defs>
        <path id="DejaVuSans-34" d="M 2419 4116 
L 825 1625 
L 2419 1625 
L 2419 4116 
z
M 2253 4666 
L 3047 4666 
L 3047 1625 
L 3713 1625 
L 3713 1100 
L 3047 1100 
L 3047 0 
L 2419 0 
L 2419 1100 
L 313 1100 
L 313 1709 
L 2253 4666 
z
" transform="scale(0.015625)"/>
       </defs>
       <use xlink:href="#DejaVuSans-34"/>
       <use xlink:href="#DejaVuSans-30" x="63.623047"/>
       <use xlink:href="#DejaVuSans-30" x="127.246094"/>
       <use xlink:href="#DejaVuSans-30" x="190.869141"/>
       <use xlink:href="#DejaVuSans-30" x="254.492188"/>
      </g>
     </g>
    </g>
    <g id="xtick_6">
     <g id="line2d_6">
      <g>
       <use xlink:href="#m68eb2dc557" x="335.649896" y="162.432" style="stroke: #000000; stroke-width: 0.8"/>
      </g>
     </g>
     <g id="text_6">
      <!-- 50000 -->
      <g transform="translate(319.743646 177.030437)scale(0.1 -0.1)">
       <defs>
        <path id="DejaVuSans-35" d="M 691 4666 
L 3169 4666 
L 3169 4134 
L 1269 4134 
L 1269 2991 
Q 1406 3038 1543 3061 
Q 1681 3084 1819 3084 
Q 2600 3084 3056 2656 
Q 3513 2228 3513 1497 
Q 3513 744 3044 326 
Q 2575 -91 1722 -91 
Q 1428 -91 1123 -41 
Q 819 9 494 109 
L 494 744 
Q 775 591 1075 516 
Q 1375 441 1709 441 
Q 2250 441 2565 725 
Q 2881 1009 2881 1497 
Q 2881 1984 2565 2268 
Q 2250 2553 1709 2553 
Q 1456 2553 1204 2497 
Q 953 2441 691 2322 
L 691 4666 
z
" transform="scale(0.015625)"/>
       </defs>
       <use xlink:href="#DejaVuSans-35"/>
       <use xlink:href="#DejaVuSans-30" x="63.623047"/>
       <use xlink:href="#DejaVuSans-30" x="127.246094"/>
       <use xlink:href="#DejaVuSans-30" x="190.869141"/>
       <use xlink:href="#DejaVuSans-30" x="254.492188"/>
      </g>
     </g>
    </g>
    <g id="xtick_7">
     <g id="line2d_7">
      <g>
       <use xlink:href="#m68eb2dc557" x="388.014377" y="162.432" style="stroke: #000000; stroke-width: 0.8"/>
      </g>
     </g>
     <g id="text_7">
      <!-- 60000 -->
      <g transform="translate(372.108127 177.030437)scale(0.1 -0.1)">
       <defs>
        <path id="DejaVuSans-36" d="M 2113 2584 
Q 1688 2584 1439 2293 
Q 1191 2003 1191 1497 
Q 1191 994 1439 701 
Q 1688 409 2113 409 
Q 2538 409 2786 701 
Q 3034 994 3034 1497 
Q 3034 2003 2786 2293 
Q 2538 2584 2113 2584 
z
M 3366 4563 
L 3366 3988 
Q 3128 4100 2886 4159 
Q 2644 4219 2406 4219 
Q 1781 4219 1451 3797 
Q 1122 3375 1075 2522 
Q 1259 2794 1537 2939 
Q 1816 3084 2150 3084 
Q 2853 3084 3261 2657 
Q 3669 2231 3669 1497 
Q 3669 778 3244 343 
Q 2819 -91 2113 -91 
Q 1303 -91 875 529 
Q 447 1150 447 2328 
Q 447 3434 972 4092 
Q 1497 4750 2381 4750 
Q 2619 4750 2861 4703 
Q 3103 4656 3366 4563 
z
" transform="scale(0.015625)"/>
       </defs>
       <use xlink:href="#DejaVuSans-36"/>
       <use xlink:href="#DejaVuSans-30" x="63.623047"/>
       <use xlink:href="#DejaVuSans-30" x="127.246094"/>
       <use xlink:href="#DejaVuSans-30" x="190.869141"/>
       <use xlink:href="#DejaVuSans-30" x="254.492188"/>
      </g>
     </g>
    </g>
   </g>
   <g id="matplotlib.axis_2">
    <g id="ytick_1">
     <g id="line2d_8">
      <defs>
       <path id="mc2693ac555" d="M 0 0 
L -3.5 0 
" style="stroke: #000000; stroke-width: 0.8"/>
      </defs>
      <g>
       <use xlink:href="#mc2693ac555" x="57.6" y="145.642909" style="stroke: #000000; stroke-width: 0.8"/>
      </g>
     </g>
     <g id="text_8">
      <!-- 60 -->
      <g transform="translate(37.875 149.442128)scale(0.1 -0.1)">
       <use xlink:href="#DejaVuSans-36"/>
       <use xlink:href="#DejaVuSans-30" x="63.623047"/>
      </g>
     </g>
    </g>
    <g id="ytick_2">
     <g id="line2d_9">
      <g>
       <use xlink:href="#mc2693ac555" x="57.6" y="122.985566" style="stroke: #000000; stroke-width: 0.8"/>
      </g>
     </g>
     <g id="text_9">
      <!-- 70 -->
      <g transform="translate(37.875 126.784785)scale(0.1 -0.1)">
       <defs>
        <path id="DejaVuSans-37" d="M 525 4666 
L 3525 4666 
L 3525 4397 
L 1831 0 
L 1172 0 
L 2766 4134 
L 525 4134 
L 525 4666 
z
" transform="scale(0.015625)"/>
       </defs>
       <use xlink:href="#DejaVuSans-37"/>
       <use xlink:href="#DejaVuSans-30" x="63.623047"/>
      </g>
     </g>
    </g>
    <g id="ytick_3">
     <g id="line2d_10">
      <g>
       <use xlink:href="#mc2693ac555" x="57.6" y="100.328224" style="stroke: #000000; stroke-width: 0.8"/>
      </g>
     </g>
     <g id="text_10">
      <!-- 80 -->
      <g transform="translate(37.875 104.127443)scale(0.1 -0.1)">
       <defs>
        <path id="DejaVuSans-38" d="M 2034 2216 
Q 1584 2216 1326 1975 
Q 1069 1734 1069 1313 
Q 1069 891 1326 650 
Q 1584 409 2034 409 
Q 2484 409 2743 651 
Q 3003 894 3003 1313 
Q 3003 1734 2745 1975 
Q 2488 2216 2034 2216 
z
M 1403 2484 
Q 997 2584 770 2862 
Q 544 3141 544 3541 
Q 544 4100 942 4425 
Q 1341 4750 2034 4750 
Q 2731 4750 3128 4425 
Q 3525 4100 3525 3541 
Q 3525 3141 3298 2862 
Q 3072 2584 2669 2484 
Q 3125 2378 3379 2068 
Q 3634 1759 3634 1313 
Q 3634 634 3220 271 
Q 2806 -91 2034 -91 
Q 1263 -91 848 271 
Q 434 634 434 1313 
Q 434 1759 690 2068 
Q 947 2378 1403 2484 
z
M 1172 3481 
Q 1172 3119 1398 2916 
Q 1625 2713 2034 2713 
Q 2441 2713 2670 2916 
Q 2900 3119 2900 3481 
Q 2900 3844 2670 4047 
Q 2441 4250 2034 4250 
Q 1625 4250 1398 4047 
Q 1172 3844 1172 3481 
z
" transform="scale(0.015625)"/>
       </defs>
       <use xlink:href="#DejaVuSans-38"/>
       <use xlink:href="#DejaVuSans-30" x="63.623047"/>
      </g>
     </g>
    </g>
    <g id="ytick_4">
     <g id="line2d_11">
      <g>
       <use xlink:href="#mc2693ac555" x="57.6" y="77.670881" style="stroke: #000000; stroke-width: 0.8"/>
      </g>
     </g>
     <g id="text_11">
      <!-- 90 -->
      <g transform="translate(37.875 81.4701)scale(0.1 -0.1)">
       <defs>
        <path id="DejaVuSans-39" d="M 703 97 
L 703 672 
Q 941 559 1184 500 
Q 1428 441 1663 441 
Q 2288 441 2617 861 
Q 2947 1281 2994 2138 
Q 2813 1869 2534 1725 
Q 2256 1581 1919 1581 
Q 1219 1581 811 2004 
Q 403 2428 403 3163 
Q 403 3881 828 4315 
Q 1253 4750 1959 4750 
Q 2769 4750 3195 4129 
Q 3622 3509 3622 2328 
Q 3622 1225 3098 567 
Q 2575 -91 1691 -91 
Q 1453 -91 1209 -44 
Q 966 3 703 97 
z
M 1959 2075 
Q 2384 2075 2632 2365 
Q 2881 2656 2881 3163 
Q 2881 3666 2632 3958 
Q 2384 4250 1959 4250 
Q 1534 4250 1286 3958 
Q 1038 3666 1038 3163 
Q 1038 2656 1286 2365 
Q 1534 2075 1959 2075 
z
" transform="scale(0.015625)"/>
       </defs>
       <use xlink:href="#DejaVuSans-39"/>
       <use xlink:href="#DejaVuSans-30" x="63.623047"/>
      </g>
     </g>
    </g>
    <g id="ytick_5">
     <g id="line2d_12">
      <g>
       <use xlink:href="#mc2693ac555" x="57.6" y="55.013538" style="stroke: #000000; stroke-width: 0.8"/>
      </g>
     </g>
     <g id="text_12">
      <!-- 100 -->
      <g transform="translate(31.5125 58.812757)scale(0.1 -0.1)">
       <use xlink:href="#DejaVuSans-31"/>
       <use xlink:href="#DejaVuSans-30" x="63.623047"/>
       <use xlink:href="#DejaVuSans-30" x="127.246094"/>
      </g>
     </g>
    </g>
   </g>
   <g id="line2d_13">
    <path d="M 73.832727 55.013538 
L 73.837964 55.013538 
L 73.979348 50.331021 
L 73.995057 50.331021 
L 74.115495 49.198154 
L 74.298771 49.198154 
L 74.413973 48.745007 
L 75.068529 48.745007 
L 75.183731 47.536615 
L 76.859394 47.536615 
L 76.974596 46.970182 
L 398.487273 46.970182 
L 398.487273 46.970182 
" clip-path="url(#pfa968aedda)" style="fill: none; stroke: #1f77b4; stroke-width: 1.5; stroke-linecap: square"/>
   </g>
   <g id="line2d_14">
    <path d="M 73.832727 55.013538 
L 73.963638 64.000951 
L 73.979348 64.000951 
L 74.021239 61.735217 
L 74.036949 66.266685 
L 74.07884 66.266685 
L 74.131205 66.266685 
L 74.183569 70.798154 
L 74.246407 69.665287 
L 74.298771 69.665287 
L 74.413973 73.630322 
L 74.482047 73.630322 
L 74.49252 73.063888 
L 74.502993 77.595357 
L 74.560594 77.028923 
L 74.571066 77.028923 
L 74.686268 79.294657 
L 74.796234 79.294657 
L 74.80147 78.16179 
L 74.811943 82.693259 
L 74.89049 82.126825 
L 74.932381 82.126825 
L 75.047583 81.560392 
L 75.382716 81.560392 
L 75.387952 83.826126 
L 75.492681 83.259692 
L 76.037272 83.259692 
L 76.152474 82.693259 
L 76.210075 82.693259 
L 76.325277 81.560392 
L 76.487606 81.560392 
L 76.602808 83.826126 
L 76.660409 83.826126 
L 76.775611 86.09186 
L 76.796557 86.09186 
L 76.911759 85.525427 
L 77.770536 85.525427 
L 77.885738 84.392559 
L 78.037595 84.392559 
L 78.152797 86.658294 
L 78.294181 86.658294 
L 78.409383 88.924028 
L 79.482855 88.924028 
L 79.598057 91.189762 
L 79.996027 91.189762 
L 80.116465 95.721231 
L 80.870514 95.721231 
L 80.985715 97.986965 
L 81.289429 97.986965 
L 81.299902 97.420531 
L 81.305139 99.686266 
L 81.383685 99.686266 
L 81.844493 99.686266 
L 81.959695 98.364587 
L 84.101402 98.364587 
L 84.216604 97.798154 
L 86.122671 97.798154 
L 86.237873 97.23172 
L 87.190906 97.23172 
L 87.306108 99.497455 
L 88.421472 99.497455 
L 88.536674 98.931021 
L 93.872614 98.931021 
L 93.987816 98.364587 
L 99.543687 98.364587 
L 99.658889 97.798154 
L 102.140966 97.798154 
L 102.256168 96.665287 
L 102.502281 96.665287 
L 102.617482 98.931021 
L 103.774737 98.931021 
L 103.889939 101.196755 
L 118.991856 101.196755 
L 119.107058 100.063888 
L 123.798915 100.063888 
L 123.914117 102.329622 
L 150.90277 102.329622 
L 151.017972 104.595357 
L 164.250477 104.595357 
L 164.365678 104.028923 
L 166.318874 104.028923 
L 166.434075 103.46249 
L 173.278113 103.46249 
L 173.393315 105.728224 
L 195.07221 105.728224 
L 195.187412 107.993958 
L 195.831495 107.993958 
L 195.946697 107.427524 
L 217.866469 107.427524 
L 217.98167 106.861091 
L 232.69609 106.861091 
L 232.811291 106.294657 
L 234.811615 106.294657 
L 234.926816 108.560392 
L 249.243266 108.560392 
L 249.358467 110.826126 
L 257.12412 110.826126 
L 257.239322 110.259692 
L 299.68597 110.259692 
L 299.801172 112.525427 
L 398.487273 112.525427 
L 398.487273 112.525427 
" clip-path="url(#pfa968aedda)" style="fill: none; stroke: #ff7f0e; stroke-width: 1.5; stroke-linecap: square"/>
   </g>
   <g id="line2d_15">
    <path d="M 73.832727 57.279273 
L 73.837964 56.524028 
L 73.885092 65.133818 
L 73.895565 65.133818 
L 73.926983 62.339413 
L 73.984584 66.870881 
L 73.995057 66.870881 
L 74.010767 66.304448 
L 74.036949 71.968783 
L 74.057895 71.968783 
L 74.063131 71.968783 
L 74.178333 75.556196 
L 74.183569 75.556196 
L 74.298771 82.353399 
L 74.309244 81.900252 
L 74.31448 81.900252 
L 74.429682 84.165986 
L 74.482047 84.165986 
L 74.571066 90.207944 
L 74.602485 89.075077 
L 74.796234 89.075077 
L 74.911436 92.473678 
L 74.932381 92.473678 
L 75.047583 94.739413 
L 75.068529 94.739413 
L 75.110421 93.984168 
L 75.115657 96.249902 
L 75.168022 95.796755 
L 75.351297 95.796755 
L 75.466499 99.572979 
L 76.037272 99.572979 
L 76.152474 101.838713 
L 76.210075 101.838713 
L 76.325277 104.104448 
L 76.487606 104.104448 
L 76.602808 102.97158 
L 76.660409 102.97158 
L 76.775611 102.216336 
L 76.796557 102.216336 
L 76.859394 104.48207 
L 76.906522 103.915636 
L 77.702462 103.915636 
L 77.828137 110.712839 
L 77.92763 110.712839 
L 78.037595 112.978573 
L 78.152797 112.223329 
L 78.294181 112.223329 
L 78.409383 111.468084 
L 78.456511 111.468084 
L 78.571713 113.733818 
L 78.812589 113.733818 
L 78.927791 115.999552 
L 79.482855 115.999552 
L 79.598057 115.244308 
L 79.838933 115.244308 
L 79.954135 117.510042 
L 79.996027 117.510042 
L 80.121701 116.377175 
L 80.734366 116.377175 
L 80.849568 118.642909 
L 80.870514 118.642909 
L 80.985715 117.887664 
L 81.299902 117.887664 
L 81.415104 117.434517 
L 81.844493 117.434517 
L 81.964931 121.965986 
L 84.101402 121.965986 
L 84.216604 124.23172 
L 84.583155 124.23172 
L 84.698357 126.497455 
L 86.122671 126.497455 
L 86.237873 128.763189 
L 87.190906 128.763189 
L 87.306108 128.310042 
L 88.421472 128.310042 
L 88.536674 130.575776 
L 93.872614 130.575776 
L 93.987816 132.84151 
L 99.543687 132.84151 
L 99.658889 135.107245 
L 102.140966 135.107245 
L 102.256168 137.372979 
L 102.502281 137.372979 
L 102.617482 136.617734 
L 103.774737 136.617734 
L 103.889939 135.86249 
L 111.367587 135.86249 
L 111.482789 138.128224 
L 114.472801 138.128224 
L 114.588003 140.393958 
L 118.991856 140.393958 
L 119.107058 142.659692 
L 123.798915 142.659692 
L 123.914117 142.206545 
L 150.90277 142.206545 
L 151.017972 141.451301 
L 152.51036 141.451301 
L 152.625562 143.717035 
L 164.250477 143.717035 
L 164.365678 145.982769 
L 166.318874 145.982769 
L 166.434075 148.248503 
L 173.278113 148.248503 
L 173.393315 147.870881 
L 174.69719 147.870881 
L 174.812392 150.136615 
L 195.07221 150.136615 
L 195.187412 149.381371 
L 195.831495 149.381371 
L 195.946697 151.647105 
L 217.866469 151.647105 
L 217.98167 153.912839 
L 232.69609 153.912839 
L 232.811291 156.178573 
L 234.811615 156.178573 
L 234.926816 155.423329 
L 249.243266 155.423329 
L 249.358467 154.668084 
L 257.12412 154.668084 
L 257.239322 156.933818 
L 398.487273 156.933818 
L 398.487273 156.933818 
" clip-path="url(#pfa968aedda)" style="fill: none; stroke: #2ca02c; stroke-width: 1.5; stroke-linecap: square"/>
   </g>
   <g id="line2d_16">
    <path d="M 73.832727 55.013538 
L 73.853673 55.013538 
L 73.85891 57.279273 
L 73.885092 54.447105 
L 73.963638 55.126825 
L 73.995057 55.126825 
L 74.031712 59.658294 
L 74.110259 58.752 
L 74.131205 58.752 
L 74.251643 57.807944 
L 74.372081 57.807944 
L 74.487283 57.24151 
L 74.80147 57.24151 
L 74.916672 56.108643 
L 75.120894 56.108643 
L 75.236095 55.353399 
L 76.55568 55.353399 
L 76.670882 54.786965 
L 78.456511 54.786965 
L 78.571713 53.654098 
L 79.074412 53.654098 
L 79.189614 52.898853 
L 79.372889 52.898853 
L 79.488091 52.33242 
L 79.996027 52.33242 
L 80.111229 51.954797 
L 81.289429 51.954797 
L 81.404631 51.388364 
L 84.583155 51.388364 
L 84.698357 50.255497 
L 120.431879 50.255497 
L 120.547081 49.500252 
L 139.717717 49.500252 
L 139.832919 48.933818 
L 173.278113 48.933818 
L 173.393315 48.556196 
L 188.348611 48.556196 
L 188.463813 48.103049 
L 398.487273 48.103049 
L 398.487273 48.103049 
" clip-path="url(#pfa968aedda)" style="fill: none; stroke: #d62728; stroke-width: 1.5; stroke-linecap: square"/>
   </g>
   <g id="line2d_17">
    <path d="M 73.832727 55.013538 
L 73.85891 55.013538 
L 73.979348 60.111441 
L 74.021239 60.111441 
L 74.031712 58.978573 
L 74.068367 62.754797 
L 74.120732 62.188364 
L 74.298771 62.188364 
L 74.408737 66.719832 
L 74.413973 66.153399 
L 74.571066 66.153399 
L 74.686268 65.020531 
L 74.80147 65.020531 
L 74.806707 67.286266 
L 74.911436 66.153399 
L 75.162785 66.153399 
L 75.277987 65.700252 
L 75.382716 65.700252 
L 75.497918 64.945007 
L 76.487606 64.945007 
L 76.602808 63.81214 
L 76.660409 63.81214 
L 76.775611 63.056895 
L 77.92763 63.056895 
L 78.037595 65.322629 
L 78.152797 64.567385 
L 78.294181 64.567385 
L 78.409383 63.81214 
L 78.456511 63.81214 
L 78.571713 66.077874 
L 79.482855 66.077874 
L 79.598057 65.322629 
L 80.074573 65.322629 
L 80.189775 64.567385 
L 80.870514 64.567385 
L 80.985715 63.81214 
L 81.299902 63.81214 
L 81.415104 63.358993 
L 84.583155 63.358993 
L 84.698357 65.624727 
L 87.190906 65.624727 
L 87.306108 65.17158 
L 102.502281 65.17158 
L 102.617482 64.416336 
L 103.774737 64.416336 
L 103.889939 63.661091 
L 123.798915 63.661091 
L 123.914117 63.207944 
L 150.90277 63.207944 
L 151.017972 62.452699 
L 195.07221 62.452699 
L 195.187412 61.697455 
L 299.68597 61.697455 
L 299.801172 60.564587 
L 398.487273 60.564587 
L 398.487273 60.564587 
" clip-path="url(#pfa968aedda)" style="fill: none; stroke: #9467bd; stroke-width: 1.5; stroke-linecap: square"/>
   </g>
   <g id="line2d_18">
    <path d="M 73.832727 55.013538 
L 73.864146 55.013538 
L 73.879855 54.560392 
L 73.885092 56.826126 
L 73.942693 56.372979 
L 74.073604 67.135217 
L 74.115495 66.568783 
L 74.120732 68.834517 
L 74.16786 68.456895 
L 74.298771 68.456895 
L 74.31448 68.003748 
L 74.319717 70.269483 
L 74.393027 69.703049 
L 74.408737 69.703049 
L 74.534411 76.500252 
L 74.832889 76.500252 
L 74.953327 81.03172 
L 75.110421 81.03172 
L 75.162785 83.297455 
L 75.225622 82.844308 
L 76.859394 82.844308 
L 76.974596 82.277874 
L 79.996027 82.277874 
L 80.111229 81.900252 
L 80.734366 81.900252 
L 80.849568 84.165986 
L 81.299902 84.165986 
L 81.415104 83.712839 
L 84.101402 83.712839 
L 84.216604 85.978573 
L 86.122671 85.978573 
L 86.237873 88.244308 
L 87.190906 88.244308 
L 87.306108 87.791161 
L 93.872614 87.791161 
L 93.987816 90.056895 
L 99.543687 90.056895 
L 99.658889 92.322629 
L 114.472801 92.322629 
L 114.588003 94.588364 
L 123.798915 94.588364 
L 123.914117 94.135217 
L 173.278113 94.135217 
L 173.393315 93.757594 
L 188.348611 93.757594 
L 188.463813 93.304448 
L 195.831495 93.304448 
L 195.946697 95.570182 
L 232.69609 95.570182 
L 232.811291 97.835916 
L 257.12412 97.835916 
L 257.239322 100.10165 
L 398.487273 100.10165 
L 398.487273 100.10165 
" clip-path="url(#pfa968aedda)" style="fill: none; stroke: #8c564b; stroke-width: 1.5; stroke-linecap: square"/>
   </g>
   <g id="line2d_19">
    <path d="M 73.832727 57.279273 
L 73.906038 70.307245 
L 73.968875 68.721231 
L 73.989821 68.721231 
L 74.110259 74.989762 
L 74.115495 74.989762 
L 74.157387 73.856895 
L 74.162624 76.122629 
L 74.214988 74.234517 
L 74.31448 81.03172 
L 74.335426 80.465287 
L 74.408737 80.465287 
L 74.440155 79.898853 
L 74.445392 82.164587 
L 74.49252 81.598154 
L 74.523938 86.129622 
L 74.607722 85.563189 
L 74.796234 85.563189 
L 74.911436 89.528224 
L 74.932381 89.528224 
L 75.047583 88.96179 
L 75.068529 88.96179 
L 75.183731 92.926825 
L 75.21515 92.926825 
L 75.330351 95.192559 
L 75.351297 95.192559 
L 75.466499 93.870881 
L 76.037272 93.870881 
L 76.152474 93.304448 
L 76.210075 93.304448 
L 76.325277 95.570182 
L 76.55568 95.570182 
L 76.670882 95.003748 
L 76.796557 95.003748 
L 76.859394 94.437315 
L 76.864631 96.703049 
L 76.890813 96.703049 
L 77.702462 96.703049 
L 77.7653 95.192559 
L 77.775773 99.724028 
L 77.791482 99.724028 
L 77.83861 99.724028 
L 77.92763 101.989762 
L 77.948575 101.423329 
L 78.037595 101.423329 
L 78.152797 103.689063 
L 78.294181 103.689063 
L 78.409383 105.954797 
L 78.812589 105.954797 
L 78.927791 105.199552 
L 79.372889 105.199552 
L 79.488091 104.633119 
L 79.838933 104.633119 
L 79.954135 103.877874 
L 80.074573 103.877874 
L 80.189775 106.143608 
L 80.734366 106.143608 
L 80.849568 105.577175 
L 80.870514 105.577175 
L 80.985715 107.842909 
L 81.299902 107.842909 
L 81.415104 110.108643 
L 81.844493 110.108643 
L 81.928276 108.786965 
L 81.933512 111.052699 
L 81.943985 111.052699 
L 84.101402 111.052699 
L 84.216604 110.486266 
L 86.122671 110.486266 
L 86.237873 109.919832 
L 87.149015 109.919832 
L 87.269453 114.451301 
L 88.421472 114.451301 
L 88.536674 113.884867 
L 93.872614 113.884867 
L 93.961634 113.318434 
L 93.96687 115.584168 
L 99.543687 115.584168 
L 99.658889 115.017734 
L 102.140966 115.017734 
L 102.256168 117.283469 
L 103.774737 117.283469 
L 103.889939 119.549203 
L 111.367587 119.549203 
L 111.482789 118.793958 
L 114.472801 118.793958 
L 114.588003 118.227524 
L 118.991856 118.227524 
L 119.107058 120.493259 
L 123.798915 120.493259 
L 123.914117 122.758993 
L 139.717717 122.758993 
L 139.832919 122.192559 
L 152.51036 122.192559 
L 152.625562 121.437315 
L 156.552898 121.437315 
L 156.6681 123.703049 
L 164.17193 123.703049 
L 164.250477 125.968783 
L 164.281895 125.40235 
L 166.318874 125.40235 
L 166.434075 124.835916 
L 174.094999 124.835916 
L 174.210201 127.10165 
L 174.69719 127.10165 
L 174.812392 126.346406 
L 195.07221 126.346406 
L 195.187412 128.61214 
L 195.831495 128.61214 
L 195.946697 128.045706 
L 217.866469 128.045706 
L 217.98167 127.479273 
L 232.69609 127.479273 
L 232.811291 126.912839 
L 234.811615 126.912839 
L 234.926816 129.178573 
L 249.243266 129.178573 
L 249.358467 131.444308 
L 257.12412 131.444308 
L 257.239322 130.877874 
L 261.318515 130.877874 
L 261.433717 133.143608 
L 299.68597 133.143608 
L 299.801172 135.409343 
L 398.487273 135.409343 
L 398.487273 135.409343 
" clip-path="url(#pfa968aedda)" style="fill: none; stroke: #e377c2; stroke-width: 1.5; stroke-linecap: square"/>
   </g>
   <g id="line2d_20">
    <path d="M 73.832727 54.447105 
L 73.879855 52.483469 
L 73.885092 54.749203 
L 73.926983 54.296056 
L 74.052658 62.226126 
L 74.063131 62.226126 
L 74.157387 68.079273 
L 74.178333 65.813538 
L 74.183569 65.813538 
L 74.214988 72.610741 
L 74.298771 68.079273 
L 74.31448 67.626126 
L 74.319717 69.89186 
L 74.393027 69.325427 
L 74.408737 69.325427 
L 74.497756 71.591161 
L 74.518702 70.835916 
L 74.523938 70.835916 
L 74.63914 73.10165 
L 74.796234 73.10165 
L 74.838125 74.234517 
L 74.911436 71.968783 
L 74.932381 71.968783 
L 75.047583 74.234517 
L 75.068529 74.234517 
L 75.110421 73.479273 
L 75.115657 75.745007 
L 75.168022 75.29186 
L 75.21515 75.29186 
L 75.330351 73.026126 
L 75.351297 73.026126 
L 75.471736 77.557594 
L 76.037272 77.557594 
L 76.152474 79.823329 
L 76.210075 79.823329 
L 76.325277 78.690462 
L 76.796557 78.690462 
L 76.859394 80.956196 
L 76.906522 80.389762 
L 77.702462 80.389762 
L 77.7653 84.921231 
L 77.812428 81.522629 
L 77.83861 81.522629 
L 77.92763 79.256895 
L 77.948575 81.522629 
L 78.812589 81.522629 
L 78.927791 83.788364 
L 79.838933 83.788364 
L 79.954135 86.054098 
L 79.996027 86.054098 
L 80.111229 85.676476 
L 80.734366 85.676476 
L 80.849568 87.94221 
L 81.299902 87.94221 
L 81.415104 87.489063 
L 81.844493 87.489063 
L 81.928276 92.020531 
L 81.959695 89.754797 
L 84.101402 89.754797 
L 84.216604 92.020531 
L 86.122671 92.020531 
L 86.237873 94.286266 
L 87.149015 94.286266 
L 87.264217 91.567385 
L 88.421472 91.567385 
L 88.536674 93.833119 
L 93.872614 93.833119 
L 93.961634 96.098853 
L 93.98258 93.833119 
L 99.543687 93.833119 
L 99.658889 96.098853 
L 102.140966 96.098853 
L 102.256168 94.965986 
L 111.367587 94.965986 
L 111.482789 97.23172 
L 114.472801 97.23172 
L 114.588003 99.497455 
L 118.991856 99.497455 
L 119.107058 98.364587 
L 123.798915 98.364587 
L 123.914117 97.911441 
L 152.51036 97.911441 
L 152.625562 100.177175 
L 156.552898 100.177175 
L 156.6681 97.911441 
L 164.17193 97.911441 
L 164.250477 95.645706 
L 164.281895 97.911441 
L 166.318874 97.911441 
L 166.434075 100.177175 
L 173.278113 100.177175 
L 173.393315 99.799552 
L 174.094999 99.799552 
L 174.210201 97.533818 
L 174.69719 97.533818 
L 174.812392 99.799552 
L 188.348611 99.799552 
L 188.463813 99.346406 
L 195.831495 99.346406 
L 195.946697 101.61214 
L 217.866469 101.61214 
L 217.98167 103.877874 
L 232.69609 103.877874 
L 232.811291 106.143608 
L 234.811615 106.143608 
L 234.926816 105.388364 
L 249.243266 105.388364 
L 249.358467 104.633119 
L 257.12412 104.633119 
L 257.239322 106.898853 
L 261.318515 106.898853 
L 261.433717 104.633119 
L 398.487273 104.633119 
L 398.487273 104.633119 
" clip-path="url(#pfa968aedda)" style="fill: none; stroke: #7f7f7f; stroke-width: 1.5; stroke-linecap: square"/>
   </g>
   <g id="line2d_21">
    <path d="M 73.832727 54.447105 
L 73.837964 54.447105 
L 73.906038 67.475077 
L 73.974111 65.889063 
L 73.979348 65.889063 
L 74.073604 64.227524 
L 74.000294 67.02193 
L 74.084077 66.493259 
L 74.115495 66.493259 
L 74.25688 63.094657 
L 74.298771 63.094657 
L 74.31448 65.360392 
L 74.408737 64.793958 
L 74.49252 63.661091 
L 74.497756 65.926825 
L 74.508229 65.926825 
L 74.523938 65.926825 
L 74.63914 65.360392 
L 74.832889 65.360392 
L 74.953327 64.227524 
L 75.068529 64.227524 
L 75.183731 67.437315 
L 75.351297 67.437315 
L 75.382716 66.68207 
L 75.387952 68.947804 
L 75.45079 68.381371 
L 76.037272 68.381371 
L 76.152474 67.814937 
L 76.55568 67.814937 
L 76.660409 67.248503 
L 76.775611 69.514238 
L 76.796557 69.514238 
L 76.859394 68.947804 
L 76.864631 71.213538 
L 76.890813 71.213538 
L 77.702462 71.213538 
L 77.822901 69.703049 
L 77.92763 69.703049 
L 78.037595 69.136615 
L 78.152797 71.40235 
L 78.294181 71.40235 
L 78.409383 73.668084 
L 78.812589 73.668084 
L 78.927791 72.912839 
L 79.074412 72.912839 
L 79.189614 72.157594 
L 79.372889 72.157594 
L 79.482855 71.591161 
L 79.598057 73.856895 
L 79.838933 73.856895 
L 79.954135 73.10165 
L 79.996027 73.10165 
L 80.074573 72.724028 
L 80.07981 74.989762 
L 80.734366 74.989762 
L 80.849568 74.423329 
L 80.870514 74.423329 
L 80.985715 76.689063 
L 81.289429 76.689063 
L 81.299902 76.122629 
L 81.305139 78.388364 
L 81.383685 78.388364 
L 81.844493 78.388364 
L 81.959695 77.066685 
L 84.101402 77.066685 
L 84.216604 76.500252 
L 86.122671 76.500252 
L 86.237873 75.933818 
L 87.190906 75.933818 
L 87.306108 78.199552 
L 88.421472 78.199552 
L 88.536674 77.633119 
L 93.872614 77.633119 
L 93.987816 77.066685 
L 99.543687 77.066685 
L 99.658889 76.500252 
L 102.502281 76.500252 
L 102.617482 78.765986 
L 103.774737 78.765986 
L 103.889939 81.03172 
L 111.367587 81.03172 
L 111.482789 80.276476 
L 114.472801 80.276476 
L 114.588003 79.710042 
L 120.431879 79.710042 
L 120.547081 78.954797 
L 123.798915 78.954797 
L 123.914117 81.220531 
L 139.717717 81.220531 
L 139.832919 80.654098 
L 150.90277 80.654098 
L 151.017972 82.919832 
L 152.51036 82.919832 
L 152.625562 82.164587 
L 164.250477 82.164587 
L 164.365678 81.598154 
L 166.318874 81.598154 
L 166.434075 81.03172 
L 173.278113 81.03172 
L 173.393315 80.654098 
L 174.69719 80.654098 
L 174.812392 79.898853 
L 188.348611 79.898853 
L 188.463813 79.445706 
L 195.07221 79.445706 
L 195.187412 81.711441 
L 195.831495 81.711441 
L 195.946697 81.145007 
L 217.866469 81.145007 
L 217.98167 80.578573 
L 232.69609 80.578573 
L 232.811291 80.01214 
L 257.12412 80.01214 
L 257.239322 79.445706 
L 299.68597 79.445706 
L 299.801172 81.711441 
L 398.487273 81.711441 
L 398.487273 81.711441 
" clip-path="url(#pfa968aedda)" style="fill: none; stroke: #bcbd22; stroke-width: 1.5; stroke-linecap: square"/>
   </g>
   <g id="line2d_22">
    <path d="M 73.832727 54.447105 
L 73.837964 53.69186 
L 73.869382 61.62193 
L 73.900801 60.035916 
L 74.031712 71.477874 
L 74.036949 71.024727 
L 74.047422 71.024727 
L 74.131205 75.103049 
L 74.162624 74.158993 
L 74.183569 74.158993 
L 74.298771 72.270881 
L 74.413973 76.235916 
L 74.497756 76.235916 
L 74.571066 75.480671 
L 74.576303 77.746406 
L 74.597249 77.746406 
L 74.796234 77.746406 
L 74.911436 81.145007 
L 75.068529 81.145007 
L 75.110421 83.410741 
L 75.178494 82.089063 
L 75.351297 82.089063 
L 75.382716 81.333818 
L 75.387952 83.599552 
L 75.45079 83.033119 
L 76.037272 83.033119 
L 76.152474 82.466685 
L 76.210075 82.466685 
L 76.325277 84.73242 
L 76.487606 84.73242 
L 76.55568 86.998154 
L 76.597572 86.43172 
L 76.660409 86.43172 
L 76.775611 88.697455 
L 76.796557 88.697455 
L 76.911759 88.131021 
L 77.702462 88.131021 
L 77.770536 86.620531 
L 77.775773 88.886266 
L 77.807191 88.886266 
L 77.92763 88.886266 
L 78.037595 88.319832 
L 78.152797 90.585566 
L 78.294181 90.585566 
L 78.409383 92.851301 
L 78.456511 92.851301 
L 78.571713 91.718434 
L 78.812589 91.718434 
L 78.927791 90.963189 
L 79.074412 90.963189 
L 79.189614 90.207944 
L 79.372889 90.207944 
L 79.482855 89.64151 
L 79.598057 91.907245 
L 79.838933 91.907245 
L 79.954135 91.152 
L 79.996027 91.152 
L 80.074573 90.774378 
L 80.07981 93.040112 
L 80.734366 93.040112 
L 80.849568 92.473678 
L 80.870514 92.473678 
L 80.985715 94.739413 
L 81.289429 94.739413 
L 81.299902 94.172979 
L 81.305139 96.438713 
L 81.383685 96.438713 
L 81.870675 96.438713 
L 81.985877 95.87228 
L 84.583155 95.87228 
L 84.698357 94.739413 
L 87.190906 94.739413 
L 87.306108 97.005147 
L 88.421472 97.005147 
L 88.536674 96.438713 
L 99.543687 96.438713 
L 99.658889 98.704448 
L 102.140966 98.704448 
L 102.256168 100.970182 
L 102.502281 100.970182 
L 102.617482 103.235916 
L 103.774737 103.235916 
L 103.889939 105.50165 
L 111.367587 105.50165 
L 111.482789 104.746406 
L 114.472801 104.746406 
L 114.588003 104.179972 
L 118.991856 104.179972 
L 119.107058 106.445706 
L 120.431879 106.445706 
L 120.547081 105.690462 
L 123.798915 105.690462 
L 123.914117 107.956196 
L 139.717717 107.956196 
L 139.832919 107.389762 
L 150.90277 107.389762 
L 151.017972 109.655497 
L 152.51036 109.655497 
L 152.625562 108.900252 
L 164.250477 108.900252 
L 164.365678 108.333818 
L 166.318874 108.333818 
L 166.434075 107.767385 
L 173.278113 107.767385 
L 173.393315 107.389762 
L 174.69719 107.389762 
L 174.812392 106.634517 
L 188.348611 106.634517 
L 188.463813 106.181371 
L 195.07221 106.181371 
L 195.187412 108.447105 
L 217.866469 108.447105 
L 217.98167 107.880671 
L 234.811615 107.880671 
L 234.926816 107.125427 
L 249.243266 107.125427 
L 249.358467 106.370182 
L 299.68597 106.370182 
L 299.801172 108.635916 
L 398.487273 108.635916 
L 398.487273 108.635916 
" clip-path="url(#pfa968aedda)" style="fill: none; stroke: #17becf; stroke-width: 1.5; stroke-linecap: square"/>
   </g>
   <g id="line2d_23">
    <path d="M 73.832727 55.013538 
L 73.864146 55.013538 
L 73.984584 60.677874 
L 74.010767 60.677874 
L 74.073604 58.638713 
L 74.07884 60.904448 
L 74.120732 60.338014 
L 74.131205 60.338014 
L 74.246407 62.603748 
L 74.298771 62.603748 
L 74.408737 66.568783 
L 74.413973 66.00235 
L 74.482047 66.00235 
L 74.602485 64.869483 
L 74.832889 64.869483 
L 74.953327 63.736615 
L 75.110421 63.736615 
L 75.162785 63.170182 
L 75.168022 65.435916 
L 75.204677 65.435916 
L 76.859394 65.435916 
L 76.974596 67.70165 
L 79.996027 67.70165 
L 80.111229 69.967385 
L 80.734366 69.967385 
L 80.849568 69.400951 
L 81.299902 69.400951 
L 81.415104 71.666685 
L 84.101402 71.666685 
L 84.216604 71.100252 
L 86.122671 71.100252 
L 86.237873 70.533818 
L 87.190906 70.533818 
L 87.306108 72.799552 
L 93.872614 72.799552 
L 93.987816 72.233119 
L 99.543687 72.233119 
L 99.658889 71.666685 
L 114.472801 71.666685 
L 114.588003 71.100252 
L 123.798915 71.100252 
L 123.914117 73.365986 
L 173.278113 73.365986 
L 173.393315 75.63172 
L 188.348611 75.63172 
L 188.463813 77.897455 
L 195.831495 77.897455 
L 195.946697 77.331021 
L 232.69609 77.331021 
L 232.811291 76.764587 
L 257.12412 76.764587 
L 257.239322 76.198154 
L 398.487273 76.198154 
L 398.487273 76.198154 
" clip-path="url(#pfa968aedda)" style="fill: none; stroke: #1f77b4; stroke-width: 1.5; stroke-linecap: square"/>
   </g>
   <g id="line2d_24">
    <path d="M 73.832727 54.447105 
L 73.837964 54.447105 
L 73.900801 52.558993 
L 73.906038 54.824727 
L 73.942693 54.824727 
L 73.995057 54.824727 
L 74.115495 59.356196 
L 74.131205 59.356196 
L 74.136441 61.62193 
L 74.24117 59.356196 
L 74.298771 59.356196 
L 74.413973 58.903049 
L 74.49252 58.903049 
L 74.607722 56.637315 
L 75.120894 56.637315 
L 75.241332 61.168783 
L 75.382716 61.168783 
L 75.497918 60.413538 
L 76.55568 60.413538 
L 76.660409 62.679273 
L 76.665646 61.924028 
L 77.92763 61.924028 
L 78.048068 60.60235 
L 78.294181 60.60235 
L 78.409383 59.847105 
L 79.074412 59.847105 
L 79.189614 62.112839 
L 79.372889 62.112839 
L 79.482855 64.378573 
L 79.598057 63.623329 
L 79.996027 63.623329 
L 80.074573 65.889063 
L 80.105992 65.133818 
L 80.870514 65.133818 
L 80.985715 64.378573 
L 81.289429 64.378573 
L 81.299902 66.644308 
L 81.404631 66.191161 
L 87.190906 66.191161 
L 87.306108 65.738014 
L 102.502281 65.738014 
L 102.617482 64.982769 
L 103.774737 64.982769 
L 103.889939 64.227524 
L 120.431879 64.227524 
L 120.547081 66.493259 
L 123.798915 66.493259 
L 123.914117 66.040112 
L 139.717717 66.040112 
L 139.832919 68.305846 
L 150.90277 68.305846 
L 151.017972 67.550601 
L 173.278113 67.550601 
L 173.393315 69.816336 
L 188.348611 69.816336 
L 188.463813 72.08207 
L 195.07221 72.08207 
L 195.187412 71.326825 
L 299.68597 71.326825 
L 299.801172 70.193958 
L 398.487273 70.193958 
L 398.487273 70.193958 
" clip-path="url(#pfa968aedda)" style="fill: none; stroke: #ff7f0e; stroke-width: 1.5; stroke-linecap: square"/>
   </g>
   <g id="patch_3">
    <path d="M 57.6 162.432 
L 57.6 41.472 
" style="fill: none; stroke: #000000; stroke-width: 0.8; stroke-linejoin: miter; stroke-linecap: square"/>
   </g>
   <g id="patch_4">
    <path d="M 414.72 162.432 
L 414.72 41.472 
" style="fill: none; stroke: #000000; stroke-width: 0.8; stroke-linejoin: miter; stroke-linecap: square"/>
   </g>
   <g id="patch_5">
    <path d="M 57.6 162.432 
L 414.72 162.432 
" style="fill: none; stroke: #000000; stroke-width: 0.8; stroke-linejoin: miter; stroke-linecap: square"/>
   </g>
   <g id="patch_6">
    <path d="M 57.6 41.472 
L 414.72 41.472 
" style="fill: none; stroke: #000000; stroke-width: 0.8; stroke-linejoin: miter; stroke-linecap: square"/>
   </g>
   <g id="text_13">
    <!-- WSP -->
    <g transform="translate(361.832136 46.970182)scale(0.08 -0.08)">
     <defs>
      <path id="DejaVuSans-57" d="M 213 4666 
L 850 4666 
L 1831 722 
L 2809 4666 
L 3519 4666 
L 4500 722 
L 5478 4666 
L 6119 4666 
L 4947 0 
L 4153 0 
L 3169 4050 
L 2175 0 
L 1381 0 
L 213 4666 
z
" transform="scale(0.015625)"/>
      <path id="DejaVuSans-53" d="M 3425 4513 
L 3425 3897 
Q 3066 4069 2747 4153 
Q 2428 4238 2131 4238 
Q 1616 4238 1336 4038 
Q 1056 3838 1056 3469 
Q 1056 3159 1242 3001 
Q 1428 2844 1947 2747 
L 2328 2669 
Q 3034 2534 3370 2195 
Q 3706 1856 3706 1288 
Q 3706 609 3251 259 
Q 2797 -91 1919 -91 
Q 1588 -91 1214 -16 
Q 841 59 441 206 
L 441 856 
Q 825 641 1194 531 
Q 1563 422 1919 422 
Q 2459 422 2753 634 
Q 3047 847 3047 1241 
Q 3047 1584 2836 1778 
Q 2625 1972 2144 2069 
L 1759 2144 
Q 1053 2284 737 2584 
Q 422 2884 422 3419 
Q 422 4038 858 4394 
Q 1294 4750 2059 4750 
Q 2388 4750 2728 4690 
Q 3069 4631 3425 4513 
z
" transform="scale(0.015625)"/>
      <path id="DejaVuSans-50" d="M 1259 4147 
L 1259 2394 
L 2053 2394 
Q 2494 2394 2734 2622 
Q 2975 2850 2975 3272 
Q 2975 3691 2734 3919 
Q 2494 4147 2053 4147 
L 1259 4147 
z
M 628 4666 
L 2053 4666 
Q 2838 4666 3239 4311 
Q 3641 3956 3641 3272 
Q 3641 2581 3239 2228 
Q 2838 1875 2053 1875 
L 1259 1875 
L 1259 0 
L 628 0 
L 628 4666 
z
" transform="scale(0.015625)"/>
     </defs>
     <use xlink:href="#DejaVuSans-57"/>
     <use xlink:href="#DejaVuSans-53" x="98.876953"/>
     <use xlink:href="#DejaVuSans-50" x="162.353516"/>
    </g>
   </g>
   <g id="text_14">
    <!-- Iambic -->
    <g transform="translate(361.832136 112.525427)scale(0.08 -0.08)">
     <defs>
      <path id="DejaVuSans-49" d="M 628 4666 
L 1259 4666 
L 1259 0 
L 628 0 
L 628 4666 
z
" transform="scale(0.015625)"/>
      <path id="DejaVuSans-61" d="M 2194 1759 
Q 1497 1759 1228 1600 
Q 959 1441 959 1056 
Q 959 750 1161 570 
Q 1363 391 1709 391 
Q 2188 391 2477 730 
Q 2766 1069 2766 1631 
L 2766 1759 
L 2194 1759 
z
M 3341 1997 
L 3341 0 
L 2766 0 
L 2766 531 
Q 2569 213 2275 61 
Q 1981 -91 1556 -91 
Q 1019 -91 701 211 
Q 384 513 384 1019 
Q 384 1609 779 1909 
Q 1175 2209 1959 2209 
L 2766 2209 
L 2766 2266 
Q 2766 2663 2505 2880 
Q 2244 3097 1772 3097 
Q 1472 3097 1187 3025 
Q 903 2953 641 2809 
L 641 3341 
Q 956 3463 1253 3523 
Q 1550 3584 1831 3584 
Q 2591 3584 2966 3190 
Q 3341 2797 3341 1997 
z
" transform="scale(0.015625)"/>
      <path id="DejaVuSans-6d" d="M 3328 2828 
Q 3544 3216 3844 3400 
Q 4144 3584 4550 3584 
Q 5097 3584 5394 3201 
Q 5691 2819 5691 2113 
L 5691 0 
L 5113 0 
L 5113 2094 
Q 5113 2597 4934 2840 
Q 4756 3084 4391 3084 
Q 3944 3084 3684 2787 
Q 3425 2491 3425 1978 
L 3425 0 
L 2847 0 
L 2847 2094 
Q 2847 2600 2669 2842 
Q 2491 3084 2119 3084 
Q 1678 3084 1418 2786 
Q 1159 2488 1159 1978 
L 1159 0 
L 581 0 
L 581 3500 
L 1159 3500 
L 1159 2956 
Q 1356 3278 1631 3431 
Q 1906 3584 2284 3584 
Q 2666 3584 2933 3390 
Q 3200 3197 3328 2828 
z
" transform="scale(0.015625)"/>
      <path id="DejaVuSans-62" d="M 3116 1747 
Q 3116 2381 2855 2742 
Q 2594 3103 2138 3103 
Q 1681 3103 1420 2742 
Q 1159 2381 1159 1747 
Q 1159 1113 1420 752 
Q 1681 391 2138 391 
Q 2594 391 2855 752 
Q 3116 1113 3116 1747 
z
M 1159 2969 
Q 1341 3281 1617 3432 
Q 1894 3584 2278 3584 
Q 2916 3584 3314 3078 
Q 3713 2572 3713 1747 
Q 3713 922 3314 415 
Q 2916 -91 2278 -91 
Q 1894 -91 1617 61 
Q 1341 213 1159 525 
L 1159 0 
L 581 0 
L 581 4863 
L 1159 4863 
L 1159 2969 
z
" transform="scale(0.015625)"/>
      <path id="DejaVuSans-69" d="M 603 3500 
L 1178 3500 
L 1178 0 
L 603 0 
L 603 3500 
z
M 603 4863 
L 1178 4863 
L 1178 4134 
L 603 4134 
L 603 4863 
z
" transform="scale(0.015625)"/>
      <path id="DejaVuSans-63" d="M 3122 3366 
L 3122 2828 
Q 2878 2963 2633 3030 
Q 2388 3097 2138 3097 
Q 1578 3097 1268 2742 
Q 959 2388 959 1747 
Q 959 1106 1268 751 
Q 1578 397 2138 397 
Q 2388 397 2633 464 
Q 2878 531 3122 666 
L 3122 134 
Q 2881 22 2623 -34 
Q 2366 -91 2075 -91 
Q 1284 -91 818 406 
Q 353 903 353 1747 
Q 353 2603 823 3093 
Q 1294 3584 2113 3584 
Q 2378 3584 2631 3529 
Q 2884 3475 3122 3366 
z
" transform="scale(0.015625)"/>
     </defs>
     <use xlink:href="#DejaVuSans-49"/>
     <use xlink:href="#DejaVuSans-61" x="29.492188"/>
     <use xlink:href="#DejaVuSans-6d" x="90.771484"/>
     <use xlink:href="#DejaVuSans-62" x="188.183594"/>
     <use xlink:href="#DejaVuSans-69" x="251.660156"/>
     <use xlink:href="#DejaVuSans-63" x="279.443359"/>
    </g>
   </g>
   <g id="text_15">
    <!-- Parse -->
    <g transform="translate(361.832136 156.933818)scale(0.08 -0.08)">
     <defs>
      <path id="DejaVuSans-72" d="M 2631 2963 
Q 2534 3019 2420 3045 
Q 2306 3072 2169 3072 
Q 1681 3072 1420 2755 
Q 1159 2438 1159 1844 
L 1159 0 
L 581 0 
L 581 3500 
L 1159 3500 
L 1159 2956 
Q 1341 3275 1631 3429 
Q 1922 3584 2338 3584 
Q 2397 3584 2469 3576 
Q 2541 3569 2628 3553 
L 2631 2963 
z
" transform="scale(0.015625)"/>
      <path id="DejaVuSans-73" d="M 2834 3397 
L 2834 2853 
Q 2591 2978 2328 3040 
Q 2066 3103 1784 3103 
Q 1356 3103 1142 2972 
Q 928 2841 928 2578 
Q 928 2378 1081 2264 
Q 1234 2150 1697 2047 
L 1894 2003 
Q 2506 1872 2764 1633 
Q 3022 1394 3022 966 
Q 3022 478 2636 193 
Q 2250 -91 1575 -91 
Q 1294 -91 989 -36 
Q 684 19 347 128 
L 347 722 
Q 666 556 975 473 
Q 1284 391 1588 391 
Q 1994 391 2212 530 
Q 2431 669 2431 922 
Q 2431 1156 2273 1281 
Q 2116 1406 1581 1522 
L 1381 1569 
Q 847 1681 609 1914 
Q 372 2147 372 2553 
Q 372 3047 722 3315 
Q 1072 3584 1716 3584 
Q 2034 3584 2315 3537 
Q 2597 3491 2834 3397 
z
" transform="scale(0.015625)"/>
      <path id="DejaVuSans-65" d="M 3597 1894 
L 3597 1613 
L 953 1613 
Q 991 1019 1311 708 
Q 1631 397 2203 397 
Q 2534 397 2845 478 
Q 3156 559 3463 722 
L 3463 178 
Q 3153 47 2828 -22 
Q 2503 -91 2169 -91 
Q 1331 -91 842 396 
Q 353 884 353 1716 
Q 353 2575 817 3079 
Q 1281 3584 2069 3584 
Q 2775 3584 3186 3129 
Q 3597 2675 3597 1894 
z
M 3022 2063 
Q 3016 2534 2758 2815 
Q 2500 3097 2075 3097 
Q 1594 3097 1305 2825 
Q 1016 2553 972 2059 
L 3022 2063 
z
" transform="scale(0.015625)"/>
     </defs>
     <use xlink:href="#DejaVuSans-50"/>
     <use xlink:href="#DejaVuSans-61" x="55.802734"/>
     <use xlink:href="#DejaVuSans-72" x="117.082031"/>
     <use xlink:href="#DejaVuSans-73" x="158.195312"/>
     <use xlink:href="#DejaVuSans-65" x="210.294922"/>
    </g>
   </g>
   <g id="text_16">
    <!-- FootBin -->
    <g transform="translate(361.832136 48.103049)scale(0.08 -0.08)">
     <defs>
      <path id="DejaVuSans-46" d="M 628 4666 
L 3309 4666 
L 3309 4134 
L 1259 4134 
L 1259 2759 
L 3109 2759 
L 3109 2228 
L 1259 2228 
L 1259 0 
L 628 0 
L 628 4666 
z
" transform="scale(0.015625)"/>
      <path id="DejaVuSans-6f" d="M 1959 3097 
Q 1497 3097 1228 2736 
Q 959 2375 959 1747 
Q 959 1119 1226 758 
Q 1494 397 1959 397 
Q 2419 397 2687 759 
Q 2956 1122 2956 1747 
Q 2956 2369 2687 2733 
Q 2419 3097 1959 3097 
z
M 1959 3584 
Q 2709 3584 3137 3096 
Q 3566 2609 3566 1747 
Q 3566 888 3137 398 
Q 2709 -91 1959 -91 
Q 1206 -91 779 398 
Q 353 888 353 1747 
Q 353 2609 779 3096 
Q 1206 3584 1959 3584 
z
" transform="scale(0.015625)"/>
      <path id="DejaVuSans-74" d="M 1172 4494 
L 1172 3500 
L 2356 3500 
L 2356 3053 
L 1172 3053 
L 1172 1153 
Q 1172 725 1289 603 
Q 1406 481 1766 481 
L 2356 481 
L 2356 0 
L 1766 0 
Q 1100 0 847 248 
Q 594 497 594 1153 
L 594 3053 
L 172 3053 
L 172 3500 
L 594 3500 
L 594 4494 
L 1172 4494 
z
" transform="scale(0.015625)"/>
      <path id="DejaVuSans-42" d="M 1259 2228 
L 1259 519 
L 2272 519 
Q 2781 519 3026 730 
Q 3272 941 3272 1375 
Q 3272 1813 3026 2020 
Q 2781 2228 2272 2228 
L 1259 2228 
z
M 1259 4147 
L 1259 2741 
L 2194 2741 
Q 2656 2741 2882 2914 
Q 3109 3088 3109 3444 
Q 3109 3797 2882 3972 
Q 2656 4147 2194 4147 
L 1259 4147 
z
M 628 4666 
L 2241 4666 
Q 2963 4666 3353 4366 
Q 3744 4066 3744 3513 
Q 3744 3084 3544 2831 
Q 3344 2578 2956 2516 
Q 3422 2416 3680 2098 
Q 3938 1781 3938 1306 
Q 3938 681 3513 340 
Q 3088 0 2303 0 
L 628 0 
L 628 4666 
z
" transform="scale(0.015625)"/>
      <path id="DejaVuSans-6e" d="M 3513 2113 
L 3513 0 
L 2938 0 
L 2938 2094 
Q 2938 2591 2744 2837 
Q 2550 3084 2163 3084 
Q 1697 3084 1428 2787 
Q 1159 2491 1159 1978 
L 1159 0 
L 581 0 
L 581 3500 
L 1159 3500 
L 1159 2956 
Q 1366 3272 1645 3428 
Q 1925 3584 2291 3584 
Q 2894 3584 3203 3211 
Q 3513 2838 3513 2113 
z
" transform="scale(0.015625)"/>
     </defs>
     <use xlink:href="#DejaVuSans-46"/>
     <use xlink:href="#DejaVuSans-6f" x="53.894531"/>
     <use xlink:href="#DejaVuSans-6f" x="115.076172"/>
     <use xlink:href="#DejaVuSans-74" x="176.257812"/>
     <use xlink:href="#DejaVuSans-42" x="215.466797"/>
     <use xlink:href="#DejaVuSans-69" x="284.070312"/>
     <use xlink:href="#DejaVuSans-6e" x="311.853516"/>
    </g>
   </g>
   <g id="text_17">
    <!-- WFL -->
    <g transform="translate(361.832136 60.564587)scale(0.08 -0.08)">
     <defs>
      <path id="DejaVuSans-4c" d="M 628 4666 
L 1259 4666 
L 1259 531 
L 3531 531 
L 3531 0 
L 628 0 
L 628 4666 
z
" transform="scale(0.015625)"/>
     </defs>
     <use xlink:href="#DejaVuSans-57"/>
     <use xlink:href="#DejaVuSans-46" x="98.876953"/>
     <use xlink:href="#DejaVuSans-4c" x="156.396484"/>
    </g>
   </g>
   <g id="text_18">
    <!-- WFR -->
    <g transform="translate(361.832136 100.10165)scale(0.08 -0.08)">
     <defs>
      <path id="DejaVuSans-52" d="M 2841 2188 
Q 3044 2119 3236 1894 
Q 3428 1669 3622 1275 
L 4263 0 
L 3584 0 
L 2988 1197 
Q 2756 1666 2539 1819 
Q 2322 1972 1947 1972 
L 1259 1972 
L 1259 0 
L 628 0 
L 628 4666 
L 2053 4666 
Q 2853 4666 3247 4331 
Q 3641 3997 3641 3322 
Q 3641 2881 3436 2590 
Q 3231 2300 2841 2188 
z
M 1259 4147 
L 1259 2491 
L 2053 2491 
Q 2509 2491 2742 2702 
Q 2975 2913 2975 3322 
Q 2975 3731 2742 3939 
Q 2509 4147 2053 4147 
L 1259 4147 
z
" transform="scale(0.015625)"/>
     </defs>
     <use xlink:href="#DejaVuSans-57"/>
     <use xlink:href="#DejaVuSans-46" x="98.876953"/>
     <use xlink:href="#DejaVuSans-52" x="156.396484"/>
    </g>
   </g>
   <g id="text_19">
    <!-- Main-L -->
    <g transform="translate(361.832136 135.409343)scale(0.08 -0.08)">
     <defs>
      <path id="DejaVuSans-4d" d="M 628 4666 
L 1569 4666 
L 2759 1491 
L 3956 4666 
L 4897 4666 
L 4897 0 
L 4281 0 
L 4281 4097 
L 3078 897 
L 2444 897 
L 1241 4097 
L 1241 0 
L 628 0 
L 628 4666 
z
" transform="scale(0.015625)"/>
      <path id="DejaVuSans-2d" d="M 313 2009 
L 1997 2009 
L 1997 1497 
L 313 1497 
L 313 2009 
z
" transform="scale(0.015625)"/>
     </defs>
     <use xlink:href="#DejaVuSans-4d"/>
     <use xlink:href="#DejaVuSans-61" x="86.279297"/>
     <use xlink:href="#DejaVuSans-69" x="147.558594"/>
     <use xlink:href="#DejaVuSans-6e" x="175.341797"/>
     <use xlink:href="#DejaVuSans-2d" x="238.720703"/>
     <use xlink:href="#DejaVuSans-4c" x="274.804688"/>
    </g>
   </g>
   <g id="text_20">
    <!-- Main-R -->
    <g transform="translate(361.832136 104.633119)scale(0.08 -0.08)">
     <use xlink:href="#DejaVuSans-4d"/>
     <use xlink:href="#DejaVuSans-61" x="86.279297"/>
     <use xlink:href="#DejaVuSans-69" x="147.558594"/>
     <use xlink:href="#DejaVuSans-6e" x="175.341797"/>
     <use xlink:href="#DejaVuSans-2d" x="238.720703"/>
     <use xlink:href="#DejaVuSans-52" x="274.804688"/>
    </g>
   </g>
   <g id="text_21">
    <!-- AFL -->
    <g transform="translate(361.832136 81.711441)scale(0.08 -0.08)">
     <defs>
      <path id="DejaVuSans-41" d="M 2188 4044 
L 1331 1722 
L 3047 1722 
L 2188 4044 
z
M 1831 4666 
L 2547 4666 
L 4325 0 
L 3669 0 
L 3244 1197 
L 1141 1197 
L 716 0 
L 50 0 
L 1831 4666 
z
" transform="scale(0.015625)"/>
     </defs>
     <use xlink:href="#DejaVuSans-41"/>
     <use xlink:href="#DejaVuSans-46" x="68.408203"/>
     <use xlink:href="#DejaVuSans-4c" x="125.927734"/>
    </g>
   </g>
   <g id="text_22">
    <!-- AFR -->
    <g transform="translate(361.832136 108.635916)scale(0.08 -0.08)">
     <use xlink:href="#DejaVuSans-41"/>
     <use xlink:href="#DejaVuSans-46" x="68.408203"/>
     <use xlink:href="#DejaVuSans-52" x="125.927734"/>
    </g>
   </g>
   <g id="text_23">
    <!-- Nonfinal -->
    <g transform="translate(361.832136 76.198154)scale(0.08 -0.08)">
     <defs>
      <path id="DejaVuSans-4e" d="M 628 4666 
L 1478 4666 
L 3547 763 
L 3547 4666 
L 4159 4666 
L 4159 0 
L 3309 0 
L 1241 3903 
L 1241 0 
L 628 0 
L 628 4666 
z
" transform="scale(0.015625)"/>
      <path id="DejaVuSans-66" d="M 2375 4863 
L 2375 4384 
L 1825 4384 
Q 1516 4384 1395 4259 
Q 1275 4134 1275 3809 
L 1275 3500 
L 2222 3500 
L 2222 3053 
L 1275 3053 
L 1275 0 
L 697 0 
L 697 3053 
L 147 3053 
L 147 3500 
L 697 3500 
L 697 3744 
Q 697 4328 969 4595 
Q 1241 4863 1831 4863 
L 2375 4863 
z
" transform="scale(0.015625)"/>
      <path id="DejaVuSans-6c" d="M 603 4863 
L 1178 4863 
L 1178 0 
L 603 0 
L 603 4863 
z
" transform="scale(0.015625)"/>
     </defs>
     <use xlink:href="#DejaVuSans-4e"/>
     <use xlink:href="#DejaVuSans-6f" x="74.804688"/>
     <use xlink:href="#DejaVuSans-6e" x="135.986328"/>
     <use xlink:href="#DejaVuSans-66" x="199.365234"/>
     <use xlink:href="#DejaVuSans-69" x="234.570312"/>
     <use xlink:href="#DejaVuSans-6e" x="262.353516"/>
     <use xlink:href="#DejaVuSans-61" x="325.732422"/>
     <use xlink:href="#DejaVuSans-6c" x="387.011719"/>
    </g>
   </g>
   <g id="text_24">
    <!-- Trochaic -->
    <g transform="translate(361.832136 70.193958)scale(0.08 -0.08)">
     <defs>
      <path id="DejaVuSans-54" d="M -19 4666 
L 3928 4666 
L 3928 4134 
L 2272 4134 
L 2272 0 
L 1638 0 
L 1638 4134 
L -19 4134 
L -19 4666 
z
" transform="scale(0.015625)"/>
      <path id="DejaVuSans-68" d="M 3513 2113 
L 3513 0 
L 2938 0 
L 2938 2094 
Q 2938 2591 2744 2837 
Q 2550 3084 2163 3084 
Q 1697 3084 1428 2787 
Q 1159 2491 1159 1978 
L 1159 0 
L 581 0 
L 581 4863 
L 1159 4863 
L 1159 2956 
Q 1366 3272 1645 3428 
Q 1925 3584 2291 3584 
Q 2894 3584 3203 3211 
Q 3513 2838 3513 2113 
z
" transform="scale(0.015625)"/>
     </defs>
     <use xlink:href="#DejaVuSans-54"/>
     <use xlink:href="#DejaVuSans-72" x="46.333984"/>
     <use xlink:href="#DejaVuSans-6f" x="85.197266"/>
     <use xlink:href="#DejaVuSans-63" x="146.378906"/>
     <use xlink:href="#DejaVuSans-68" x="201.359375"/>
     <use xlink:href="#DejaVuSans-61" x="264.738281"/>
     <use xlink:href="#DejaVuSans-69" x="326.017578"/>
     <use xlink:href="#DejaVuSans-63" x="353.800781"/>
    </g>
   </g>
  </g>
  <g id="axes_2">
   <g id="patch_7">
    <path d="M 57.6 307.584 
L 414.72 307.584 
L 414.72 186.624 
L 57.6 186.624 
z
" style="fill: #ffffff"/>
   </g>
   <g id="matplotlib.axis_3">
    <g id="xtick_8">
     <g id="line2d_25">
      <g>
       <use xlink:href="#m68eb2dc557" x="71.256104" y="307.584" style="stroke: #000000; stroke-width: 0.8"/>
      </g>
     </g>
     <g id="text_25">
      <!-- 0 -->
      <g transform="translate(68.074854 322.182437)scale(0.1 -0.1)">
       <use xlink:href="#DejaVuSans-30"/>
      </g>
     </g>
    </g>
    <g id="xtick_9">
     <g id="line2d_26">
      <g>
       <use xlink:href="#m68eb2dc557" x="122.788571" y="307.584" style="stroke: #000000; stroke-width: 0.8"/>
      </g>
     </g>
     <g id="text_26">
      <!-- 20 -->
      <g transform="translate(116.426071 322.182437)scale(0.1 -0.1)">
       <use xlink:href="#DejaVuSans-32"/>
       <use xlink:href="#DejaVuSans-30" x="63.623047"/>
      </g>
     </g>
    </g>
    <g id="xtick_10">
     <g id="line2d_27">
      <g>
       <use xlink:href="#m68eb2dc557" x="174.321039" y="307.584" style="stroke: #000000; stroke-width: 0.8"/>
      </g>
     </g>
     <g id="text_27">
      <!-- 40 -->
      <g transform="translate(167.958539 322.182437)scale(0.1 -0.1)">
       <use xlink:href="#DejaVuSans-34"/>
       <use xlink:href="#DejaVuSans-30" x="63.623047"/>
      </g>
     </g>
    </g>
    <g id="xtick_11">
     <g id="line2d_28">
      <g>
       <use xlink:href="#m68eb2dc557" x="225.853506" y="307.584" style="stroke: #000000; stroke-width: 0.8"/>
      </g>
     </g>
     <g id="text_28">
      <!-- 60 -->
      <g transform="translate(219.491006 322.182437)scale(0.1 -0.1)">
       <use xlink:href="#DejaVuSans-36"/>
       <use xlink:href="#DejaVuSans-30" x="63.623047"/>
      </g>
     </g>
    </g>
    <g id="xtick_12">
     <g id="line2d_29">
      <g>
       <use xlink:href="#m68eb2dc557" x="277.385974" y="307.584" style="stroke: #000000; stroke-width: 0.8"/>
      </g>
     </g>
     <g id="text_29">
      <!-- 80 -->
      <g transform="translate(271.023474 322.182437)scale(0.1 -0.1)">
       <use xlink:href="#DejaVuSans-38"/>
       <use xlink:href="#DejaVuSans-30" x="63.623047"/>
      </g>
     </g>
    </g>
    <g id="xtick_13">
     <g id="line2d_30">
      <g>
       <use xlink:href="#m68eb2dc557" x="328.918442" y="307.584" style="stroke: #000000; stroke-width: 0.8"/>
      </g>
     </g>
     <g id="text_30">
      <!-- 100 -->
      <g transform="translate(319.374692 322.182437)scale(0.1 -0.1)">
       <use xlink:href="#DejaVuSans-31"/>
       <use xlink:href="#DejaVuSans-30" x="63.623047"/>
       <use xlink:href="#DejaVuSans-30" x="127.246094"/>
      </g>
     </g>
    </g>
    <g id="xtick_14">
     <g id="line2d_31">
      <g>
       <use xlink:href="#m68eb2dc557" x="380.450909" y="307.584" style="stroke: #000000; stroke-width: 0.8"/>
      </g>
     </g>
     <g id="text_31">
      <!-- 120 -->
      <g transform="translate(370.907159 322.182437)scale(0.1 -0.1)">
       <use xlink:href="#DejaVuSans-31"/>
       <use xlink:href="#DejaVuSans-32" x="63.623047"/>
       <use xlink:href="#DejaVuSans-30" x="127.246094"/>
      </g>
     </g>
    </g>
   </g>
   <g id="matplotlib.axis_4">
    <g id="ytick_6">
     <g id="line2d_32">
      <g>
       <use xlink:href="#mc2693ac555" x="57.6" y="302.100828" style="stroke: #000000; stroke-width: 0.8"/>
      </g>
     </g>
     <g id="text_32">
      <!-- 0 -->
      <g transform="translate(44.2375 305.900047)scale(0.1 -0.1)">
       <use xlink:href="#DejaVuSans-30"/>
      </g>
     </g>
    </g>
    <g id="ytick_7">
     <g id="line2d_33">
      <g>
       <use xlink:href="#mc2693ac555" x="57.6" y="272.080725" style="stroke: #000000; stroke-width: 0.8"/>
      </g>
     </g>
     <g id="text_33">
      <!-- 2000 -->
      <g transform="translate(25.15 275.879944)scale(0.1 -0.1)">
       <use xlink:href="#DejaVuSans-32"/>
       <use xlink:href="#DejaVuSans-30" x="63.623047"/>
       <use xlink:href="#DejaVuSans-30" x="127.246094"/>
       <use xlink:href="#DejaVuSans-30" x="190.869141"/>
      </g>
     </g>
    </g>
    <g id="ytick_8">
     <g id="line2d_34">
      <g>
       <use xlink:href="#mc2693ac555" x="57.6" y="242.060623" style="stroke: #000000; stroke-width: 0.8"/>
      </g>
     </g>
     <g id="text_34">
      <!-- 4000 -->
      <g transform="translate(25.15 245.859841)scale(0.1 -0.1)">
       <use xlink:href="#DejaVuSans-34"/>
       <use xlink:href="#DejaVuSans-30" x="63.623047"/>
       <use xlink:href="#DejaVuSans-30" x="127.246094"/>
       <use xlink:href="#DejaVuSans-30" x="190.869141"/>
      </g>
     </g>
    </g>
    <g id="ytick_9">
     <g id="line2d_35">
      <g>
       <use xlink:href="#mc2693ac555" x="57.6" y="212.04052" style="stroke: #000000; stroke-width: 0.8"/>
      </g>
     </g>
     <g id="text_35">
      <!-- 6000 -->
      <g transform="translate(25.15 215.839739)scale(0.1 -0.1)">
       <use xlink:href="#DejaVuSans-36"/>
       <use xlink:href="#DejaVuSans-30" x="63.623047"/>
       <use xlink:href="#DejaVuSans-30" x="127.246094"/>
       <use xlink:href="#DejaVuSans-30" x="190.869141"/>
      </g>
     </g>
    </g>
   </g>
   <g id="line2d_36">
    <path d="M 73.832727 302.085818 
L 76.409351 302.085818 
L 78.985974 302.070808 
L 81.562597 302.085818 
L 84.139221 302.085818 
L 86.715844 302.085818 
L 89.292468 302.085818 
L 91.869091 302.070808 
L 94.445714 302.055798 
L 97.022338 302.085818 
L 99.598961 302.085818 
L 102.175584 302.070808 
L 104.752208 302.070808 
L 107.328831 302.055798 
L 109.905455 302.055798 
L 112.482078 302.040788 
L 115.058701 302.070808 
L 117.635325 302.085818 
L 120.211948 302.055798 
L 122.788571 302.085818 
L 125.365195 302.085818 
L 127.941818 302.070808 
L 130.518442 302.085818 
L 133.095065 302.070808 
L 135.671688 302.055798 
L 138.248312 302.070808 
L 140.824935 301.980748 
L 143.401558 302.055798 
L 145.978182 302.085818 
L 148.554805 302.085818 
L 151.131429 302.055798 
L 153.708052 302.025778 
L 156.284675 302.070808 
L 158.861299 302.055798 
L 161.437922 302.085818 
L 164.014545 301.920708 
L 166.591169 302.040788 
L 169.167792 302.055798 
L 171.744416 301.935718 
L 174.321039 301.995758 
L 176.897662 302.010768 
L 179.474286 301.980748 
L 182.050909 302.070808 
L 184.627532 302.085818 
L 187.204156 302.025778 
L 189.780779 301.965738 
L 192.357403 301.455396 
L 194.934026 302.085818 
L 197.510649 302.085818 
L 200.087273 302.025778 
L 202.663896 302.025778 
L 205.240519 301.890688 
L 207.817143 301.710567 
L 210.393766 301.980748 
L 212.97039 302.070808 
L 215.547013 301.980748 
L 218.123636 301.950728 
L 220.70026 301.710567 
L 223.276883 302.010768 
L 225.853506 302.085818 
L 228.43013 300.239582 
L 231.006753 301.605497 
L 233.583377 301.305296 
L 236.16 301.905698 
L 238.736623 301.800627 
L 241.313247 301.710567 
L 243.88987 301.920708 
L 246.466494 299.68421 
L 249.043117 301.995758 
L 251.61974 302.025778 
L 254.196364 302.085818 
L 256.772987 301.905698 
L 259.34961 301.845657 
L 261.926234 301.785617 
L 264.502857 301.365336 
L 267.079481 301.635517 
L 269.656104 301.080145 
L 272.232727 301.350326 
L 274.809351 301.245255 
L 277.385974 301.785617 
L 279.962597 301.080145 
L 282.539221 301.650527 
L 285.115844 301.875677 
L 287.692468 300.209562 
L 290.269091 301.710567 
L 292.845714 300.900024 
L 295.422338 302.070808 
L 297.998961 300.539783 
L 300.575584 302.025778 
L 303.152208 301.935718 
L 305.728831 295.871657 
L 308.305455 300.719904 
L 310.882078 297.687873 
L 313.458701 299.158858 
L 316.035325 301.980748 
L 318.611948 298.573466 
L 321.188571 286.475365 
L 323.765195 301.845657 
L 326.341818 286.100113 
L 328.918442 294.655843 
L 331.495065 301.065135 
L 334.071688 298.453386 
L 336.648312 280.336254 
L 339.224935 293.199868 
L 341.801558 289.147154 
L 344.378182 297.973064 
L 346.954805 292.449365 
L 349.531429 256.470272 
L 352.108052 270.039358 
L 354.684675 297.492742 
L 357.261299 290.513069 
L 359.837922 280.261203 
L 362.414545 301.875677 
L 364.991169 296.171858 
L 367.567792 282.15247 
L 370.144416 299.75926 
L 372.721039 300.374672 
L 375.297662 262.969624 
L 377.874286 282.827922 
L 380.450909 299.924371 
L 383.027532 238.938532 
L 385.604156 259.592363 
L 388.180779 296.036767 
L 390.757403 260.733127 
L 393.334026 279.510701 
L 395.910649 290.077777 
L 398.487273 192.122182 
" clip-path="url(#pcfa9d75264)" style="fill: none; stroke: #1f77b4; stroke-width: 1.5; stroke-linecap: square"/>
   </g>
   <g id="patch_8">
    <path d="M 57.6 307.584 
L 57.6 186.624 
" style="fill: none; stroke: #000000; stroke-width: 0.8; stroke-linejoin: miter; stroke-linecap: square"/>
   </g>
   <g id="patch_9">
    <path d="M 414.72 307.584 
L 414.72 186.624 
" style="fill: none; stroke: #000000; stroke-width: 0.8; stroke-linejoin: miter; stroke-linecap: square"/>
   </g>
   <g id="patch_10">
    <path d="M 57.6 307.584 
L 414.72 307.584 
" style="fill: none; stroke: #000000; stroke-width: 0.8; stroke-linejoin: miter; stroke-linecap: square"/>
   </g>
   <g id="patch_11">
    <path d="M 57.6 186.624 
L 414.72 186.624 
" style="fill: none; stroke: #000000; stroke-width: 0.8; stroke-linejoin: miter; stroke-linecap: square"/>
   </g>
  </g>
 </g>
 <defs>
  <clipPath id="pfa968aedda">
   <rect x="57.6" y="41.472" width="357.12" height="120.96"/>
  </clipPath>
  <clipPath id="pcfa9d75264">
   <rect x="57.6" y="186.624" width="357.12" height="120.96"/>
  </clipPath>
 </defs>
</svg>
