<?xml version="1.0" encoding="utf-8" standalone="no"?>
<!DOCTYPE svg PUBLIC "-//W3C//DTD SVG 1.1//EN"
  "http://www.w3.org/Graphics/SVG/1.1/DTD/svg11.dtd">
<svg xmlns:xlink="http://www.w3.org/1999/xlink" width="460.8pt" height="345.6pt" viewBox="0 0 460.8 345.6" xmlns="http://www.w3.org/2000/svg" version="1.1">
 <metadata>
  <rdf:RDF xmlns:dc="http://purl.org/dc/elements/1.1/" xmlns:cc="http://creativecommons.org/ns#" xmlns:rdf="http://www.w3.org/1999/02/22-rdf-syntax-ns#">
   <cc:Work>
    <dc:type rdf:resource="http://purl.org/dc/dcmitype/StillImage"/>
    <dc:date>2022-05-14T01:57:05.331838</dc:date>
    <dc:format>image/svg+xml</dc:format>
    <dc:creator>
     <cc:Agent>
      <dc:title>Matplotlib v3.5.1, https://matplotlib.org/</dc:title>
     </cc:Agent>
    </dc:creator>
   </cc:Work>
  </rdf:RDF>
 </metadata>
 <defs>
  <style type="text/css">*{stroke-linejoin: round; stroke-linecap: butt}</style>
 </defs>
 <g id="figure_1">
  <g id="patch_1">
   <path d="M 0 345.6 
L 460.8 345.6 
L 460.8 0 
L 0 0 
z
" style="fill: #ffffff"/>
  </g>
  <g id="axes_1">
   <g id="patch_2">
    <path d="M 57.6 162.432 
L 414.72 162.432 
L 414.72 41.472 
L 57.6 41.472 
z
" style="fill: #ffffff"/>
   </g>
   <g id="matplotlib.axis_1">
    <g id="xtick_1">
     <g id="line2d_1">
      <defs>
       <path id="m066918d0c0" d="M 0 0 
L 0 3.5 
" style="stroke: #000000; stroke-width: 0.8"/>
      </defs>
      <g>
       <use xlink:href="#m066918d0c0" x="73.827491" y="162.432" style="stroke: #000000; stroke-width: 0.8"/>
      </g>
     </g>
     <g id="text_1">
      <!-- 0 -->
      <g transform="translate(70.646241 177.030437)scale(0.1 -0.1)">
       <defs>
        <path id="DejaVuSans-30" d="M 2034 4250 
Q 1547 4250 1301 3770 
Q 1056 3291 1056 2328 
Q 1056 1369 1301 889 
Q 1547 409 2034 409 
Q 2525 409 2770 889 
Q 3016 1369 3016 2328 
Q 3016 3291 2770 3770 
Q 2525 4250 2034 4250 
z
M 2034 4750 
Q 2819 4750 3233 4129 
Q 3647 3509 3647 2328 
Q 3647 1150 3233 529 
Q 2819 -91 2034 -91 
Q 1250 -91 836 529 
Q 422 1150 422 2328 
Q 422 3509 836 4129 
Q 1250 4750 2034 4750 
z
" transform="scale(0.015625)"/>
       </defs>
       <use xlink:href="#DejaVuSans-30"/>
      </g>
     </g>
    </g>
    <g id="xtick_2">
     <g id="line2d_2">
      <g>
       <use xlink:href="#m066918d0c0" x="126.191972" y="162.432" style="stroke: #000000; stroke-width: 0.8"/>
      </g>
     </g>
     <g id="text_2">
      <!-- 10000 -->
      <g transform="translate(110.285722 177.030437)scale(0.1 -0.1)">
       <defs>
        <path id="DejaVuSans-31" d="M 794 531 
L 1825 531 
L 1825 4091 
L 703 3866 
L 703 4441 
L 1819 4666 
L 2450 4666 
L 2450 531 
L 3481 531 
L 3481 0 
L 794 0 
L 794 531 
z
" transform="scale(0.015625)"/>
       </defs>
       <use xlink:href="#DejaVuSans-31"/>
       <use xlink:href="#DejaVuSans-30" x="63.623047"/>
       <use xlink:href="#DejaVuSans-30" x="127.246094"/>
       <use xlink:href="#DejaVuSans-30" x="190.869141"/>
       <use xlink:href="#DejaVuSans-30" x="254.492188"/>
      </g>
     </g>
    </g>
    <g id="xtick_3">
     <g id="line2d_3">
      <g>
       <use xlink:href="#m066918d0c0" x="178.556453" y="162.432" style="stroke: #000000; stroke-width: 0.8"/>
      </g>
     </g>
     <g id="text_3">
      <!-- 20000 -->
      <g transform="translate(162.650203 177.030437)scale(0.1 -0.1)">
       <defs>
        <path id="DejaVuSans-32" d="M 1228 531 
L 3431 531 
L 3431 0 
L 469 0 
L 469 531 
Q 828 903 1448 1529 
Q 2069 2156 2228 2338 
Q 2531 2678 2651 2914 
Q 2772 3150 2772 3378 
Q 2772 3750 2511 3984 
Q 2250 4219 1831 4219 
Q 1534 4219 1204 4116 
Q 875 4013 500 3803 
L 500 4441 
Q 881 4594 1212 4672 
Q 1544 4750 1819 4750 
Q 2544 4750 2975 4387 
Q 3406 4025 3406 3419 
Q 3406 3131 3298 2873 
Q 3191 2616 2906 2266 
Q 2828 2175 2409 1742 
Q 1991 1309 1228 531 
z
" transform="scale(0.015625)"/>
       </defs>
       <use xlink:href="#DejaVuSans-32"/>
       <use xlink:href="#DejaVuSans-30" x="63.623047"/>
       <use xlink:href="#DejaVuSans-30" x="127.246094"/>
       <use xlink:href="#DejaVuSans-30" x="190.869141"/>
       <use xlink:href="#DejaVuSans-30" x="254.492188"/>
      </g>
     </g>
    </g>
    <g id="xtick_4">
     <g id="line2d_4">
      <g>
       <use xlink:href="#m066918d0c0" x="230.920934" y="162.432" style="stroke: #000000; stroke-width: 0.8"/>
      </g>
     </g>
     <g id="text_4">
      <!-- 30000 -->
      <g transform="translate(215.014684 177.030437)scale(0.1 -0.1)">
       <defs>
        <path id="DejaVuSans-33" d="M 2597 2516 
Q 3050 2419 3304 2112 
Q 3559 1806 3559 1356 
Q 3559 666 3084 287 
Q 2609 -91 1734 -91 
Q 1441 -91 1130 -33 
Q 819 25 488 141 
L 488 750 
Q 750 597 1062 519 
Q 1375 441 1716 441 
Q 2309 441 2620 675 
Q 2931 909 2931 1356 
Q 2931 1769 2642 2001 
Q 2353 2234 1838 2234 
L 1294 2234 
L 1294 2753 
L 1863 2753 
Q 2328 2753 2575 2939 
Q 2822 3125 2822 3475 
Q 2822 3834 2567 4026 
Q 2313 4219 1838 4219 
Q 1578 4219 1281 4162 
Q 984 4106 628 3988 
L 628 4550 
Q 988 4650 1302 4700 
Q 1616 4750 1894 4750 
Q 2613 4750 3031 4423 
Q 3450 4097 3450 3541 
Q 3450 3153 3228 2886 
Q 3006 2619 2597 2516 
z
" transform="scale(0.015625)"/>
       </defs>
       <use xlink:href="#DejaVuSans-33"/>
       <use xlink:href="#DejaVuSans-30" x="63.623047"/>
       <use xlink:href="#DejaVuSans-30" x="127.246094"/>
       <use xlink:href="#DejaVuSans-30" x="190.869141"/>
       <use xlink:href="#DejaVuSans-30" x="254.492188"/>
      </g>
     </g>
    </g>
    <g id="xtick_5">
     <g id="line2d_5">
      <g>
       <use xlink:href="#m066918d0c0" x="283.285415" y="162.432" style="stroke: #000000; stroke-width: 0.8"/>
      </g>
     </g>
     <g id="text_5">
      <!-- 40000 -->
      <g transform="translate(267.379165 177.030437)scale(0.1 -0.1)">
       <defs>
        <path id="DejaVuSans-34" d="M 2419 4116 
L 825 1625 
L 2419 1625 
L 2419 4116 
z
M 2253 4666 
L 3047 4666 
L 3047 1625 
L 3713 1625 
L 3713 1100 
L 3047 1100 
L 3047 0 
L 2419 0 
L 2419 1100 
L 313 1100 
L 313 1709 
L 2253 4666 
z
" transform="scale(0.015625)"/>
       </defs>
       <use xlink:href="#DejaVuSans-34"/>
       <use xlink:href="#DejaVuSans-30" x="63.623047"/>
       <use xlink:href="#DejaVuSans-30" x="127.246094"/>
       <use xlink:href="#DejaVuSans-30" x="190.869141"/>
       <use xlink:href="#DejaVuSans-30" x="254.492188"/>
      </g>
     </g>
    </g>
    <g id="xtick_6">
     <g id="line2d_6">
      <g>
       <use xlink:href="#m066918d0c0" x="335.649896" y="162.432" style="stroke: #000000; stroke-width: 0.8"/>
      </g>
     </g>
     <g id="text_6">
      <!-- 50000 -->
      <g transform="translate(319.743646 177.030437)scale(0.1 -0.1)">
       <defs>
        <path id="DejaVuSans-35" d="M 691 4666 
L 3169 4666 
L 3169 4134 
L 1269 4134 
L 1269 2991 
Q 1406 3038 1543 3061 
Q 1681 3084 1819 3084 
Q 2600 3084 3056 2656 
Q 3513 2228 3513 1497 
Q 3513 744 3044 326 
Q 2575 -91 1722 -91 
Q 1428 -91 1123 -41 
Q 819 9 494 109 
L 494 744 
Q 775 591 1075 516 
Q 1375 441 1709 441 
Q 2250 441 2565 725 
Q 2881 1009 2881 1497 
Q 2881 1984 2565 2268 
Q 2250 2553 1709 2553 
Q 1456 2553 1204 2497 
Q 953 2441 691 2322 
L 691 4666 
z
" transform="scale(0.015625)"/>
       </defs>
       <use xlink:href="#DejaVuSans-35"/>
       <use xlink:href="#DejaVuSans-30" x="63.623047"/>
       <use xlink:href="#DejaVuSans-30" x="127.246094"/>
       <use xlink:href="#DejaVuSans-30" x="190.869141"/>
       <use xlink:href="#DejaVuSans-30" x="254.492188"/>
      </g>
     </g>
    </g>
    <g id="xtick_7">
     <g id="line2d_7">
      <g>
       <use xlink:href="#m066918d0c0" x="388.014377" y="162.432" style="stroke: #000000; stroke-width: 0.8"/>
      </g>
     </g>
     <g id="text_7">
      <!-- 60000 -->
      <g transform="translate(372.108127 177.030437)scale(0.1 -0.1)">
       <defs>
        <path id="DejaVuSans-36" d="M 2113 2584 
Q 1688 2584 1439 2293 
Q 1191 2003 1191 1497 
Q 1191 994 1439 701 
Q 1688 409 2113 409 
Q 2538 409 2786 701 
Q 3034 994 3034 1497 
Q 3034 2003 2786 2293 
Q 2538 2584 2113 2584 
z
M 3366 4563 
L 3366 3988 
Q 3128 4100 2886 4159 
Q 2644 4219 2406 4219 
Q 1781 4219 1451 3797 
Q 1122 3375 1075 2522 
Q 1259 2794 1537 2939 
Q 1816 3084 2150 3084 
Q 2853 3084 3261 2657 
Q 3669 2231 3669 1497 
Q 3669 778 3244 343 
Q 2819 -91 2113 -91 
Q 1303 -91 875 529 
Q 447 1150 447 2328 
Q 447 3434 972 4092 
Q 1497 4750 2381 4750 
Q 2619 4750 2861 4703 
Q 3103 4656 3366 4563 
z
" transform="scale(0.015625)"/>
       </defs>
       <use xlink:href="#DejaVuSans-36"/>
       <use xlink:href="#DejaVuSans-30" x="63.623047"/>
       <use xlink:href="#DejaVuSans-30" x="127.246094"/>
       <use xlink:href="#DejaVuSans-30" x="190.869141"/>
       <use xlink:href="#DejaVuSans-30" x="254.492188"/>
      </g>
     </g>
    </g>
   </g>
   <g id="matplotlib.axis_2">
    <g id="ytick_1">
     <g id="line2d_8">
      <defs>
       <path id="m9c7aa4c5b3" d="M 0 0 
L -3.5 0 
" style="stroke: #000000; stroke-width: 0.8"/>
      </defs>
      <g>
       <use xlink:href="#m9c7aa4c5b3" x="57.6" y="137.954877" style="stroke: #000000; stroke-width: 0.8"/>
      </g>
     </g>
     <g id="text_8">
      <!-- 70 -->
      <g transform="translate(37.875 141.754095)scale(0.1 -0.1)">
       <defs>
        <path id="DejaVuSans-37" d="M 525 4666 
L 3525 4666 
L 3525 4397 
L 1831 0 
L 1172 0 
L 2766 4134 
L 525 4134 
L 525 4666 
z
" transform="scale(0.015625)"/>
       </defs>
       <use xlink:href="#DejaVuSans-37"/>
       <use xlink:href="#DejaVuSans-30" x="63.623047"/>
      </g>
     </g>
    </g>
    <g id="ytick_2">
     <g id="line2d_9">
      <g>
       <use xlink:href="#m9c7aa4c5b3" x="57.6" y="111.595235" style="stroke: #000000; stroke-width: 0.8"/>
      </g>
     </g>
     <g id="text_9">
      <!-- 80 -->
      <g transform="translate(37.875 115.394454)scale(0.1 -0.1)">
       <defs>
        <path id="DejaVuSans-38" d="M 2034 2216 
Q 1584 2216 1326 1975 
Q 1069 1734 1069 1313 
Q 1069 891 1326 650 
Q 1584 409 2034 409 
Q 2484 409 2743 651 
Q 3003 894 3003 1313 
Q 3003 1734 2745 1975 
Q 2488 2216 2034 2216 
z
M 1403 2484 
Q 997 2584 770 2862 
Q 544 3141 544 3541 
Q 544 4100 942 4425 
Q 1341 4750 2034 4750 
Q 2731 4750 3128 4425 
Q 3525 4100 3525 3541 
Q 3525 3141 3298 2862 
Q 3072 2584 2669 2484 
Q 3125 2378 3379 2068 
Q 3634 1759 3634 1313 
Q 3634 634 3220 271 
Q 2806 -91 2034 -91 
Q 1263 -91 848 271 
Q 434 634 434 1313 
Q 434 1759 690 2068 
Q 947 2378 1403 2484 
z
M 1172 3481 
Q 1172 3119 1398 2916 
Q 1625 2713 2034 2713 
Q 2441 2713 2670 2916 
Q 2900 3119 2900 3481 
Q 2900 3844 2670 4047 
Q 2441 4250 2034 4250 
Q 1625 4250 1398 4047 
Q 1172 3844 1172 3481 
z
" transform="scale(0.015625)"/>
       </defs>
       <use xlink:href="#DejaVuSans-38"/>
       <use xlink:href="#DejaVuSans-30" x="63.623047"/>
      </g>
     </g>
    </g>
    <g id="ytick_3">
     <g id="line2d_10">
      <g>
       <use xlink:href="#m9c7aa4c5b3" x="57.6" y="85.235594" style="stroke: #000000; stroke-width: 0.8"/>
      </g>
     </g>
     <g id="text_10">
      <!-- 90 -->
      <g transform="translate(37.875 89.034813)scale(0.1 -0.1)">
       <defs>
        <path id="DejaVuSans-39" d="M 703 97 
L 703 672 
Q 941 559 1184 500 
Q 1428 441 1663 441 
Q 2288 441 2617 861 
Q 2947 1281 2994 2138 
Q 2813 1869 2534 1725 
Q 2256 1581 1919 1581 
Q 1219 1581 811 2004 
Q 403 2428 403 3163 
Q 403 3881 828 4315 
Q 1253 4750 1959 4750 
Q 2769 4750 3195 4129 
Q 3622 3509 3622 2328 
Q 3622 1225 3098 567 
Q 2575 -91 1691 -91 
Q 1453 -91 1209 -44 
Q 966 3 703 97 
z
M 1959 2075 
Q 2384 2075 2632 2365 
Q 2881 2656 2881 3163 
Q 2881 3666 2632 3958 
Q 2384 4250 1959 4250 
Q 1534 4250 1286 3958 
Q 1038 3666 1038 3163 
Q 1038 2656 1286 2365 
Q 1534 2075 1959 2075 
z
" transform="scale(0.015625)"/>
       </defs>
       <use xlink:href="#DejaVuSans-39"/>
       <use xlink:href="#DejaVuSans-30" x="63.623047"/>
      </g>
     </g>
    </g>
    <g id="ytick_4">
     <g id="line2d_11">
      <g>
       <use xlink:href="#m9c7aa4c5b3" x="57.6" y="58.875953" style="stroke: #000000; stroke-width: 0.8"/>
      </g>
     </g>
     <g id="text_11">
      <!-- 100 -->
      <g transform="translate(31.5125 62.675172)scale(0.1 -0.1)">
       <use xlink:href="#DejaVuSans-31"/>
       <use xlink:href="#DejaVuSans-30" x="63.623047"/>
       <use xlink:href="#DejaVuSans-30" x="127.246094"/>
      </g>
     </g>
    </g>
   </g>
   <g id="line2d_12">
    <path d="M 73.832727 58.875953 
L 73.968875 55.493132 
L 74.047422 55.493132 
L 74.16786 53.296496 
L 74.178333 53.296496 
L 74.293535 52.637505 
L 74.429682 52.637505 
L 74.544884 51.978514 
L 74.785761 51.978514 
L 74.900963 51.319523 
L 75.042347 51.319523 
L 75.157549 50.660532 
L 81.488414 50.660532 
L 81.603616 50.133339 
L 83.609176 50.133339 
L 83.724378 49.606146 
L 89.055082 49.606146 
L 89.170284 48.947155 
L 121.583897 48.947155 
L 121.699099 47.629173 
L 174.482496 47.629173 
L 174.597698 46.970182 
L 398.487273 46.970182 
L 398.487273 46.970182 
" clip-path="url(#p447a9caa82)" style="fill: none; stroke: #1f77b4; stroke-width: 1.5; stroke-linecap: square"/>
   </g>
   <g id="line2d_13">
    <path d="M 73.832727 58.34876 
L 73.890328 68.013962 
L 73.958402 65.72946 
L 74.021239 65.72946 
L 74.042185 65.070469 
L 74.073604 72.099706 
L 74.07884 72.099706 
L 74.084077 72.099706 
L 74.105023 71.440715 
L 74.110259 74.076679 
L 74.188806 72.758697 
L 74.204515 72.758697 
L 74.309244 75.394662 
L 74.31448 74.735671 
L 74.429682 72.758697 
L 74.455865 72.758697 
L 74.571066 75.394662 
L 74.602485 75.394662 
L 74.717687 79.128944 
L 75.042347 79.128944 
L 75.120894 78.469953 
L 75.12613 81.105917 
L 75.141839 80.446926 
L 75.21515 80.446926 
L 75.330351 79.787935 
L 75.351297 79.787935 
L 75.466499 82.423899 
L 75.880178 82.423899 
L 75.99538 85.059863 
L 76.377641 85.059863 
L 76.492843 84.400872 
L 76.587099 84.400872 
L 76.702301 87.036836 
L 76.827976 87.036836 
L 76.943177 86.377845 
L 77.241655 86.377845 
L 77.356857 89.013809 
L 77.503477 89.013809 
L 77.618679 91.649774 
L 78.482693 91.649774 
L 78.597895 90.990783 
L 79.503801 90.990783 
L 79.619002 93.626747 
L 79.802278 93.626747 
L 79.91748 92.967756 
L 79.943662 92.967756 
L 80.058864 92.089101 
L 80.661056 92.089101 
L 80.776257 94.725065 
L 81.488414 94.725065 
L 81.603616 94.197872 
L 81.954458 94.197872 
L 82.06966 93.538881 
L 83.918126 93.538881 
L 84.033328 96.174845 
L 84.436535 96.174845 
L 84.551737 95.515854 
L 84.834505 95.515854 
L 84.949707 94.856863 
L 88.30627 94.856863 
L 88.421472 97.492827 
L 90.280411 97.492827 
L 90.395613 96.833836 
L 92.909108 96.833836 
L 92.961472 99.4698 
L 93.019073 98.810809 
L 99.737436 98.810809 
L 99.852638 97.492827 
L 104.246018 97.492827 
L 104.36122 96.833836 
L 106.330124 96.833836 
L 106.445326 99.4698 
L 116.117046 99.4698 
L 116.232247 98.810809 
L 121.295893 98.810809 
L 121.411095 98.151818 
L 121.583897 98.151818 
L 121.699099 96.833836 
L 123.264797 96.833836 
L 123.379999 96.174845 
L 129.668973 96.174845 
L 129.784175 95.515854 
L 131.810681 95.515854 
L 131.925882 98.151818 
L 141.40909 98.151818 
L 141.524292 97.492827 
L 151.489253 97.492827 
L 151.604454 100.128791 
L 157.825355 100.128791 
L 157.940557 102.764756 
L 166.266509 102.764756 
L 166.381711 105.40072 
L 181.211332 105.40072 
L 181.326534 104.741729 
L 191.349095 104.741729 
L 191.464297 104.082738 
L 237.571223 104.082738 
L 237.686425 106.718702 
L 270.62892 106.718702 
L 270.744121 109.354666 
L 339.22639 109.354666 
L 339.341591 108.827473 
L 390.009463 108.827473 
L 390.124665 111.463437 
L 398.487273 111.463437 
L 398.487273 111.463437 
" clip-path="url(#p447a9caa82)" style="fill: none; stroke: #ff7f0e; stroke-width: 1.5; stroke-linecap: square"/>
   </g>
   <g id="line2d_14">
    <path d="M 73.832727 61.511917 
L 73.8432 60.852926 
L 73.853673 66.124854 
L 73.890328 65.465863 
L 74.026476 80.622657 
L 74.042185 80.622657 
L 74.084077 78.645684 
L 74.131205 82.731428 
L 74.141678 82.731428 
L 74.309244 82.731428 
L 74.424446 93.275285 
L 74.434919 91.737639 
L 74.455865 91.737639 
L 74.571066 90.419657 
L 74.602485 90.419657 
L 74.612958 89.101675 
L 74.665323 94.373603 
L 74.696741 94.373603 
L 74.712451 94.373603 
L 74.827652 92.39663 
L 74.843362 92.39663 
L 74.958564 95.032594 
L 75.131366 95.032594 
L 75.251805 100.304522 
L 75.351297 100.304522 
L 75.398425 98.98654 
L 75.403662 101.622504 
L 75.456026 101.622504 
L 75.880178 101.622504 
L 75.99538 100.304522 
L 76.377641 100.304522 
L 76.492843 102.940487 
L 76.581863 102.940487 
L 76.587099 105.576451 
L 76.691828 104.258469 
L 76.827976 104.258469 
L 76.943177 106.894433 
L 77.241655 106.894433 
L 77.356857 106.015778 
L 77.503477 106.015778 
L 77.618679 104.697796 
L 77.733881 107.33376 
L 78.482693 107.33376 
L 78.597895 109.969724 
L 79.503801 109.969724 
L 79.619002 109.091069 
L 79.802278 109.091069 
L 79.91748 111.727034 
L 79.943662 111.727034 
L 80.058864 114.362998 
L 80.661056 114.362998 
L 80.776257 113.704007 
L 81.488414 113.704007 
L 81.603616 113.176814 
L 81.954458 113.176814 
L 82.06966 115.812778 
L 82.781817 115.812778 
L 82.897019 118.448742 
L 83.609176 118.448742 
L 83.724378 117.921549 
L 83.918126 117.921549 
L 84.033328 117.394356 
L 84.436535 117.394356 
L 84.551737 120.030321 
L 84.834505 120.030321 
L 84.949707 122.666285 
L 89.055082 122.666285 
L 89.170284 122.007294 
L 89.835313 122.007294 
L 89.950515 124.643258 
L 90.280411 124.643258 
L 90.395613 127.279222 
L 90.610307 127.279222 
L 90.725509 129.915186 
L 92.909108 129.915186 
L 92.961472 129.036531 
L 92.966709 131.672495 
L 93.0086 131.672495 
L 99.737436 131.672495 
L 99.852638 134.30846 
L 104.246018 134.30846 
L 104.36122 136.944424 
L 106.330124 136.944424 
L 106.445326 136.065769 
L 108.084334 136.065769 
L 108.199536 138.701733 
L 116.117046 138.701733 
L 116.232247 141.337697 
L 121.295893 141.337697 
L 121.411095 143.973661 
L 121.583897 143.973661 
L 121.699099 146.609625 
L 123.264797 146.609625 
L 123.379999 149.24559 
L 129.668973 149.24559 
L 129.784175 151.881554 
L 131.810681 151.881554 
L 131.925882 150.563572 
L 141.40909 150.563572 
L 141.524292 153.199536 
L 151.489253 153.199536 
L 151.604454 151.881554 
L 157.825355 151.881554 
L 157.940557 151.002899 
L 166.266509 151.002899 
L 166.381711 149.684917 
L 174.482496 149.684917 
L 174.597698 149.025926 
L 181.211332 149.025926 
L 181.326534 151.66189 
L 191.349095 151.66189 
L 191.464297 154.297854 
L 339.22639 154.297854 
L 339.341591 156.933818 
L 390.009463 156.933818 
L 390.124665 156.406625 
L 398.487273 156.406625 
L 398.487273 156.406625 
" clip-path="url(#p447a9caa82)" style="fill: none; stroke: #2ca02c; stroke-width: 1.5; stroke-linecap: square"/>
   </g>
   <g id="line2d_15">
    <path d="M 73.832727 58.875953 
L 73.8432 58.875953 
L 73.958402 58.216962 
L 73.979348 58.216962 
L 74.047422 57.030778 
L 74.052658 59.666742 
L 74.084077 58.34876 
L 74.178333 58.34876 
L 74.204515 60.984724 
L 74.288298 60.10607 
L 74.324953 60.10607 
L 74.440155 59.578877 
L 74.660086 59.578877 
L 74.775288 58.700222 
L 74.843362 58.700222 
L 74.958564 57.38224 
L 75.120894 57.38224 
L 75.236095 56.503585 
L 75.932543 56.503585 
L 76.047745 55.624931 
L 76.581863 55.624931 
L 76.697064 54.306949 
L 78.482693 54.306949 
L 78.597895 53.647958 
L 79.943662 53.647958 
L 80.058864 52.769303 
L 88.30627 52.769303 
L 88.421472 51.890648 
L 270.62892 51.890648 
L 270.744121 50.572666 
L 398.487273 50.572666 
L 398.487273 50.572666 
" clip-path="url(#p447a9caa82)" style="fill: none; stroke: #d62728; stroke-width: 1.5; stroke-linecap: square"/>
   </g>
   <g id="line2d_16">
    <path d="M 73.832727 58.875953 
L 73.853673 58.875953 
L 73.895565 56.239989 
L 73.91651 61.511917 
L 73.953166 61.511917 
L 73.979348 61.511917 
L 74.099786 68.101827 
L 74.105023 68.101827 
L 74.204515 67.574635 
L 74.25688 70.210599 
L 74.31448 69.551608 
L 74.324953 69.551608 
L 74.424446 72.187572 
L 74.434919 71.308917 
L 74.455865 71.308917 
L 74.571066 69.990935 
L 74.602485 69.990935 
L 74.660086 68.013962 
L 74.665323 70.649926 
L 74.707214 70.649926 
L 74.712451 70.649926 
L 74.827652 69.331944 
L 74.843362 69.331944 
L 74.958564 71.967908 
L 75.120894 71.967908 
L 75.236095 74.603872 
L 75.351297 74.603872 
L 75.466499 73.28589 
L 75.77545 73.28589 
L 75.895888 71.089253 
L 76.581863 71.089253 
L 76.587099 73.725218 
L 76.691828 72.407236 
L 77.503477 72.407236 
L 77.618679 71.089253 
L 79.503801 71.089253 
L 79.619002 70.210599 
L 79.943662 70.210599 
L 80.058864 72.846563 
L 80.661056 72.846563 
L 80.776257 72.187572 
L 83.609176 72.187572 
L 83.724378 71.660379 
L 83.918126 71.660379 
L 84.033328 71.133186 
L 88.30627 71.133186 
L 88.421472 73.76915 
L 92.909108 73.76915 
L 93.02431 72.890496 
L 106.330124 72.890496 
L 106.445326 72.011841 
L 121.583897 72.011841 
L 121.699099 74.647805 
L 131.810681 74.647805 
L 131.925882 73.329823 
L 151.489253 73.329823 
L 151.604454 72.011841 
L 157.825355 72.011841 
L 157.940557 71.133186 
L 166.266509 71.133186 
L 166.381711 69.815204 
L 270.62892 69.815204 
L 270.744121 72.451168 
L 339.22639 72.451168 
L 339.341591 75.087132 
L 390.009463 75.087132 
L 390.124665 74.55994 
L 398.487273 74.55994 
L 398.487273 74.55994 
" clip-path="url(#p447a9caa82)" style="fill: none; stroke: #9467bd; stroke-width: 1.5; stroke-linecap: square"/>
   </g>
   <g id="line2d_17">
    <path d="M 73.832727 61.511917 
L 73.848437 61.511917 
L 73.937456 68.760819 
L 73.968875 68.101827 
L 73.979348 68.101827 
L 74.068367 76.00972 
L 74.099786 74.691738 
L 74.105023 74.691738 
L 74.178333 79.963666 
L 74.220224 79.304675 
L 74.25688 79.304675 
L 74.377318 84.576603 
L 74.408737 84.576603 
L 74.429682 89.848531 
L 74.523938 89.18954 
L 74.644377 89.18954 
L 74.759579 91.825505 
L 74.785761 91.825505 
L 74.900963 91.166513 
L 75.042347 91.166513 
L 75.131366 90.507522 
L 75.136603 93.143487 
L 75.398425 93.143487 
L 75.513627 95.779451 
L 76.827976 95.779451 
L 76.943177 98.415415 
L 81.488414 98.415415 
L 81.603616 97.888222 
L 82.781817 97.888222 
L 82.897019 100.524186 
L 83.609176 100.524186 
L 83.724378 99.996993 
L 83.918126 99.996993 
L 84.033328 99.4698 
L 84.436535 99.4698 
L 84.551737 102.105765 
L 89.055082 102.105765 
L 89.170284 101.446774 
L 89.835313 101.446774 
L 89.950515 104.082738 
L 104.246018 104.082738 
L 104.36122 106.718702 
L 174.482496 106.718702 
L 174.597698 106.059711 
L 237.571223 106.059711 
L 237.686425 108.695675 
L 390.009463 108.695675 
L 390.124665 108.168482 
L 398.487273 108.168482 
L 398.487273 108.168482 
" clip-path="url(#p447a9caa82)" style="fill: none; stroke: #8c564b; stroke-width: 1.5; stroke-linecap: square"/>
   </g>
   <g id="line2d_18">
    <path d="M 73.832727 58.34876 
L 73.968875 72.978361 
L 73.979348 72.978361 
L 74.00553 72.451168 
L 74.031712 77.064105 
L 74.047422 77.064105 
L 74.105023 84.313007 
L 74.16786 83.126823 
L 74.178333 83.126823 
L 74.25688 85.762787 
L 74.288298 85.103796 
L 74.309244 85.103796 
L 74.31448 84.444805 
L 74.319717 87.080769 
L 74.393027 86.553576 
L 74.508229 91.166513 
L 74.56583 91.166513 
L 74.681032 95.12046 
L 74.785761 95.12046 
L 74.900963 97.756424 
L 75.042347 97.756424 
L 75.131366 100.392388 
L 75.152312 99.733397 
L 75.21515 99.733397 
L 75.314642 99.074406 
L 75.398425 101.71037 
L 75.424607 101.051379 
L 75.77545 101.051379 
L 75.890651 100.172724 
L 76.01109 100.172724 
L 76.126292 102.808688 
L 76.377641 102.808688 
L 76.492843 102.149697 
L 76.608045 104.785661 
L 76.827976 104.785661 
L 76.943177 104.12667 
L 77.241655 104.12667 
L 77.356857 106.762635 
L 77.618679 106.762635 
L 77.733881 105.88398 
L 79.116303 105.88398 
L 79.231505 108.519944 
L 79.802278 108.519944 
L 79.91748 107.860953 
L 80.530144 107.860953 
L 80.645346 110.496917 
L 80.661056 110.496917 
L 80.776257 113.132881 
L 81.488414 113.132881 
L 81.603616 115.768845 
L 81.954458 115.768845 
L 82.06966 115.109854 
L 82.781817 115.109854 
L 82.897019 114.450863 
L 83.609176 114.450863 
L 83.724378 117.086827 
L 83.918126 117.086827 
L 84.033328 119.722791 
L 84.436535 119.722791 
L 84.551737 119.0638 
L 84.834505 119.0638 
L 84.949707 118.404809 
L 86.813882 118.404809 
L 86.929084 121.040773 
L 89.055082 121.040773 
L 89.170284 123.676738 
L 89.835313 123.676738 
L 89.950515 123.017747 
L 90.280411 123.017747 
L 90.395613 122.358756 
L 90.610307 122.358756 
L 90.725509 121.480101 
L 92.909108 121.480101 
L 92.961472 124.116065 
L 93.019073 123.457074 
L 95.01416 123.457074 
L 95.129362 126.093038 
L 99.737436 126.093038 
L 99.852638 128.729002 
L 104.246018 128.729002 
L 104.36122 128.070011 
L 106.330124 128.070011 
L 106.445326 130.705975 
L 108.084334 130.705975 
L 108.199536 129.827321 
L 114.190033 129.827321 
L 114.305235 132.463285 
L 116.117046 132.463285 
L 116.232247 131.804294 
L 121.295893 131.804294 
L 121.411095 131.145303 
L 121.583897 131.145303 
L 121.699099 133.781267 
L 123.264797 133.781267 
L 123.379999 133.122276 
L 124.919515 133.122276 
L 125.034717 135.75824 
L 129.668973 135.75824 
L 129.784175 135.099249 
L 141.40909 135.099249 
L 141.524292 134.440258 
L 143.587452 134.440258 
L 143.702654 137.076222 
L 174.482496 137.076222 
L 174.597698 139.712186 
L 181.211332 139.712186 
L 181.326534 139.053195 
L 191.349095 139.053195 
L 191.464297 138.394204 
L 196.229465 138.394204 
L 196.344667 141.030168 
L 237.571223 141.030168 
L 237.686425 140.371177 
L 253.207257 140.371177 
L 253.322459 143.007141 
L 298.858611 143.007141 
L 298.973813 145.643105 
L 339.22639 145.643105 
L 339.341591 145.115912 
L 398.487273 145.115912 
L 398.487273 145.115912 
" clip-path="url(#p447a9caa82)" style="fill: none; stroke: #e377c2; stroke-width: 1.5; stroke-linecap: square"/>
   </g>
   <g id="line2d_19">
    <path d="M 73.832727 61.511917 
L 73.911274 59.974271 
L 73.879855 62.829899 
L 73.93222 62.610236 
L 73.937456 62.610236 
L 74.010767 61.951245 
L 73.984584 64.587209 
L 74.021239 64.587209 
L 74.073604 63.049563 
L 74.141678 70.298464 
L 74.178333 70.298464 
L 74.25688 68.760819 
L 74.262116 71.396783 
L 74.277825 71.396783 
L 74.309244 71.396783 
L 74.429682 77.986693 
L 74.544884 77.327702 
L 74.56583 77.327702 
L 74.612958 74.691738 
L 74.665323 82.59963 
L 74.670559 79.963666 
L 74.785761 79.963666 
L 74.900963 79.304675 
L 75.042347 79.304675 
L 75.131366 77.767029 
L 75.136603 80.402993 
L 75.141839 80.402993 
L 75.21515 80.402993 
L 75.314642 83.038957 
L 75.325115 80.402993 
L 75.398425 80.402993 
L 75.513627 83.038957 
L 75.77545 83.038957 
L 75.890651 85.674922 
L 76.01109 85.674922 
L 76.126292 83.038957 
L 76.377641 83.038957 
L 76.492843 85.674922 
L 76.608045 83.038957 
L 76.827976 83.038957 
L 76.943177 85.674922 
L 77.241655 85.674922 
L 77.356857 84.796267 
L 77.618679 84.796267 
L 77.733881 87.432231 
L 78.482693 87.432231 
L 78.597895 90.068195 
L 79.116303 90.068195 
L 79.231505 87.432231 
L 79.802278 87.432231 
L 79.91748 90.068195 
L 79.943662 90.068195 
L 80.058864 92.704159 
L 80.530144 92.704159 
L 80.645346 90.068195 
L 80.661056 90.068195 
L 80.776257 89.409204 
L 81.488414 89.409204 
L 81.603616 88.882011 
L 81.954458 88.882011 
L 82.06966 91.517975 
L 82.781817 91.517975 
L 82.897019 94.153939 
L 83.609176 94.153939 
L 83.724378 93.626747 
L 83.918126 93.626747 
L 84.033328 93.099554 
L 84.436535 93.099554 
L 84.551737 95.735518 
L 84.834505 95.735518 
L 84.949707 98.371482 
L 86.813882 98.371482 
L 86.929084 95.735518 
L 88.30627 95.735518 
L 88.421472 94.856863 
L 89.055082 94.856863 
L 89.170284 94.197872 
L 89.835313 94.197872 
L 89.950515 96.833836 
L 90.280411 96.833836 
L 90.395613 99.4698 
L 90.610307 99.4698 
L 90.725509 102.105765 
L 92.961472 102.105765 
L 93.076674 104.741729 
L 95.01416 104.741729 
L 95.129362 102.105765 
L 99.737436 102.105765 
L 99.852638 100.787783 
L 104.246018 100.787783 
L 104.36122 103.423747 
L 108.084334 103.423747 
L 108.199536 106.059711 
L 114.190033 106.059711 
L 114.305235 103.423747 
L 116.117046 103.423747 
L 116.232247 106.059711 
L 121.295893 106.059711 
L 121.411095 108.695675 
L 123.264797 108.695675 
L 123.379999 111.331639 
L 124.919515 111.331639 
L 125.034717 108.695675 
L 129.668973 108.695675 
L 129.784175 111.331639 
L 141.40909 111.331639 
L 141.524292 113.967603 
L 143.587452 113.967603 
L 143.702654 111.331639 
L 174.482496 111.331639 
L 174.597698 110.672648 
L 181.211332 110.672648 
L 181.326534 113.308612 
L 191.349095 113.308612 
L 191.464297 115.944576 
L 196.229465 115.944576 
L 196.344667 113.308612 
L 237.571223 113.308612 
L 237.686425 115.944576 
L 253.207257 115.944576 
L 253.322459 113.308612 
L 298.858611 113.308612 
L 298.973813 110.672648 
L 339.22639 110.672648 
L 339.341591 113.308612 
L 390.009463 113.308612 
L 390.124665 112.781419 
L 398.487273 112.781419 
L 398.487273 112.781419 
" clip-path="url(#p447a9caa82)" style="fill: none; stroke: #7f7f7f; stroke-width: 1.5; stroke-linecap: square"/>
   </g>
   <g id="line2d_20">
    <path d="M 73.832727 58.34876 
L 73.958402 67.926097 
L 73.979348 67.926097 
L 74.047422 66.739913 
L 74.052658 69.375877 
L 74.068367 69.375877 
L 74.188806 75.438594 
L 74.25688 75.438594 
L 74.382554 73.593419 
L 74.408737 73.593419 
L 74.429682 72.934428 
L 74.434919 75.570392 
L 74.502993 75.570392 
L 74.612958 75.570392 
L 74.733396 74.25241 
L 74.785761 74.25241 
L 74.900963 76.888375 
L 75.042347 76.888375 
L 75.131366 79.524339 
L 75.152312 78.865348 
L 75.21515 78.865348 
L 75.330351 78.206357 
L 75.398425 78.206357 
L 75.513627 77.547366 
L 75.77545 77.547366 
L 75.890651 76.668711 
L 75.932543 76.668711 
L 76.047745 75.790056 
L 76.377641 75.790056 
L 76.492843 75.131065 
L 76.827976 75.131065 
L 76.943177 74.472074 
L 77.618679 74.472074 
L 77.733881 73.593419 
L 78.482693 73.593419 
L 78.597895 72.934428 
L 79.503801 72.934428 
L 79.619002 75.570392 
L 79.802278 75.570392 
L 79.91748 74.911401 
L 80.661056 74.911401 
L 80.776257 77.547366 
L 81.488414 77.547366 
L 81.603616 80.18333 
L 81.954458 80.18333 
L 82.06966 79.524339 
L 82.781817 79.524339 
L 82.897019 78.865348 
L 83.609176 78.865348 
L 83.724378 81.501312 
L 83.918126 81.501312 
L 84.033328 84.137276 
L 84.436535 84.137276 
L 84.551737 83.478285 
L 84.834505 83.478285 
L 84.949707 82.819294 
L 89.055082 82.819294 
L 89.170284 85.455258 
L 89.835313 85.455258 
L 89.950515 84.796267 
L 90.280411 84.796267 
L 90.395613 84.137276 
L 90.610307 84.137276 
L 90.725509 83.258621 
L 92.909108 83.258621 
L 92.961472 85.894585 
L 93.019073 85.235594 
L 104.246018 85.235594 
L 104.36122 84.576603 
L 106.330124 84.576603 
L 106.445326 87.212567 
L 108.084334 87.212567 
L 108.199536 86.333913 
L 116.117046 86.333913 
L 116.232247 85.674922 
L 121.295893 85.674922 
L 121.411095 85.015931 
L 121.583897 85.015931 
L 121.699099 87.651895 
L 123.264797 87.651895 
L 123.379999 86.992904 
L 129.668973 86.992904 
L 129.784175 86.333913 
L 141.40909 86.333913 
L 141.524292 85.674922 
L 157.825355 85.674922 
L 157.940557 88.310886 
L 174.482496 88.310886 
L 174.597698 90.94685 
L 181.211332 90.94685 
L 181.326534 90.287859 
L 191.349095 90.287859 
L 191.464297 89.628868 
L 237.571223 89.628868 
L 237.686425 88.969877 
L 339.22639 88.969877 
L 339.341591 88.442684 
L 390.009463 88.442684 
L 390.124665 91.078648 
L 398.487273 91.078648 
L 398.487273 91.078648 
" clip-path="url(#p447a9caa82)" style="fill: none; stroke: #bcbd22; stroke-width: 1.5; stroke-linecap: square"/>
   </g>
   <g id="line2d_21">
    <path d="M 73.832727 58.34876 
L 73.963638 69.331944 
L 73.979348 69.331944 
L 74.042185 67.486769 
L 74.052658 72.758697 
L 74.063131 72.758697 
L 74.105023 70.781724 
L 74.110259 73.417688 
L 74.16786 73.417688 
L 74.178333 73.417688 
L 74.293535 77.810962 
L 74.309244 77.810962 
L 74.31448 77.151971 
L 74.319717 79.787935 
L 74.408737 79.260742 
L 74.534411 87.168635 
L 74.602485 87.168635 
L 74.722923 93.538881 
L 74.843362 93.538881 
L 74.958564 92.220899 
L 75.042347 92.220899 
L 75.120894 94.856863 
L 75.152312 93.978209 
L 75.21515 93.978209 
L 75.330351 93.319218 
L 75.351297 93.319218 
L 75.398425 95.955182 
L 75.461263 95.296191 
L 75.77545 95.296191 
L 75.895888 100.568119 
L 75.932543 100.568119 
L 76.047745 99.689464 
L 76.377641 99.689464 
L 76.492843 99.030473 
L 76.581863 99.030473 
L 76.587099 97.712491 
L 76.592335 100.348455 
L 76.686591 100.348455 
L 77.241655 100.348455 
L 77.356857 99.4698 
L 77.503477 99.4698 
L 77.618679 102.105765 
L 77.733881 101.22711 
L 78.482693 101.22711 
L 78.597895 100.568119 
L 79.503801 100.568119 
L 79.619002 103.204083 
L 79.802278 103.204083 
L 79.91748 102.545092 
L 79.943662 102.545092 
L 80.058864 101.666437 
L 80.661056 101.666437 
L 80.776257 104.302401 
L 81.488414 104.302401 
L 81.603616 106.938365 
L 81.954458 106.938365 
L 82.06966 106.279374 
L 82.781817 106.279374 
L 82.897019 105.620383 
L 83.918126 105.620383 
L 84.033328 108.256348 
L 84.834505 108.256348 
L 84.949707 107.597356 
L 88.30627 107.597356 
L 88.421472 106.718702 
L 89.835313 106.718702 
L 89.950515 106.059711 
L 90.280411 106.059711 
L 90.395613 105.40072 
L 90.610307 105.40072 
L 90.725509 104.522065 
L 92.909108 104.522065 
L 92.961472 107.158029 
L 93.019073 106.499038 
L 99.737436 106.499038 
L 99.852638 109.135002 
L 106.330124 109.135002 
L 106.445326 111.770966 
L 108.084334 111.770966 
L 108.199536 110.892312 
L 116.117046 110.892312 
L 116.232247 110.233321 
L 121.295893 110.233321 
L 121.411095 109.57433 
L 123.264797 109.57433 
L 123.379999 108.915339 
L 129.668973 108.915339 
L 129.784175 108.256348 
L 131.810681 108.256348 
L 131.925882 110.892312 
L 141.40909 110.892312 
L 141.524292 110.233321 
L 151.489253 110.233321 
L 151.604454 112.869285 
L 157.825355 112.869285 
L 157.940557 115.505249 
L 166.266509 115.505249 
L 166.381711 118.141213 
L 181.211332 118.141213 
L 181.326534 117.482222 
L 191.349095 117.482222 
L 191.464297 116.823231 
L 237.571223 116.823231 
L 237.686425 116.16424 
L 270.62892 116.16424 
L 270.744121 114.846258 
L 339.22639 114.846258 
L 339.341591 114.319065 
L 390.009463 114.319065 
L 390.124665 116.955029 
L 398.487273 116.955029 
L 398.487273 116.955029 
" clip-path="url(#p447a9caa82)" style="fill: none; stroke: #17becf; stroke-width: 1.5; stroke-linecap: square"/>
   </g>
   <g id="line2d_22">
    <path d="M 73.832727 58.34876 
L 73.848437 58.34876 
L 73.885092 56.811115 
L 73.890328 59.447079 
L 73.937456 58.919886 
L 73.979348 61.55585 
L 74.047422 59.710675 
L 74.068367 59.710675 
L 74.188806 66.432384 
L 74.25688 66.432384 
L 74.377318 65.2462 
L 74.408737 65.2462 
L 74.429682 63.708554 
L 74.434919 66.344518 
L 74.508229 66.344518 
L 74.644377 66.344518 
L 74.759579 65.685527 
L 74.785761 65.685527 
L 74.900963 68.321491 
L 75.042347 68.321491 
L 75.131366 70.957455 
L 75.152312 70.298464 
L 75.398425 70.298464 
L 75.513627 69.639473 
L 76.827976 69.639473 
L 76.943177 68.980482 
L 81.488414 68.980482 
L 81.603616 71.616446 
L 82.781817 71.616446 
L 82.897019 70.957455 
L 83.609176 70.957455 
L 83.724378 73.593419 
L 83.918126 73.593419 
L 84.033328 76.229384 
L 84.436535 76.229384 
L 84.551737 75.570392 
L 89.055082 75.570392 
L 89.170284 78.206357 
L 89.835313 78.206357 
L 89.950515 77.547366 
L 104.246018 77.547366 
L 104.36122 76.888375 
L 174.482496 76.888375 
L 174.597698 79.524339 
L 237.571223 79.524339 
L 237.686425 78.865348 
L 390.009463 78.865348 
L 390.124665 81.501312 
L 398.487273 81.501312 
L 398.487273 81.501312 
" clip-path="url(#p447a9caa82)" style="fill: none; stroke: #1f77b4; stroke-width: 1.5; stroke-linecap: square"/>
   </g>
   <g id="line2d_23">
    <path d="M 73.832727 58.875953 
L 73.979348 54.263016 
L 74.09455 54.263016 
L 74.209752 56.89898 
L 75.932543 56.89898 
L 76.047745 59.534944 
L 78.482693 59.534944 
L 78.597895 62.170908 
L 79.503801 62.170908 
L 79.619002 61.292254 
L 80.661056 61.292254 
L 80.776257 60.633262 
L 81.488414 60.633262 
L 81.603616 63.269227 
L 83.609176 63.269227 
L 83.724378 65.905191 
L 83.918126 65.905191 
L 84.033328 65.377998 
L 89.055082 65.377998 
L 89.170284 68.013962 
L 92.909108 68.013962 
L 93.02431 67.135307 
L 106.330124 67.135307 
L 106.445326 66.256653 
L 157.825355 66.256653 
L 157.940557 65.377998 
L 174.482496 65.377998 
L 174.597698 68.013962 
L 339.22639 68.013962 
L 339.341591 67.486769 
L 390.009463 67.486769 
L 390.124665 66.959576 
L 398.487273 66.959576 
L 398.487273 66.959576 
" clip-path="url(#p447a9caa82)" style="fill: none; stroke: #ff7f0e; stroke-width: 1.5; stroke-linecap: square"/>
   </g>
   <g id="patch_3">
    <path d="M 57.6 162.432 
L 57.6 41.472 
" style="fill: none; stroke: #000000; stroke-width: 0.8; stroke-linejoin: miter; stroke-linecap: square"/>
   </g>
   <g id="patch_4">
    <path d="M 414.72 162.432 
L 414.72 41.472 
" style="fill: none; stroke: #000000; stroke-width: 0.8; stroke-linejoin: miter; stroke-linecap: square"/>
   </g>
   <g id="patch_5">
    <path d="M 57.6 162.432 
L 414.72 162.432 
" style="fill: none; stroke: #000000; stroke-width: 0.8; stroke-linejoin: miter; stroke-linecap: square"/>
   </g>
   <g id="patch_6">
    <path d="M 57.6 41.472 
L 414.72 41.472 
" style="fill: none; stroke: #000000; stroke-width: 0.8; stroke-linejoin: miter; stroke-linecap: square"/>
   </g>
   <g id="text_12">
    <!-- WSP -->
    <g transform="translate(361.832136 46.970182)scale(0.08 -0.08)">
     <defs>
      <path id="DejaVuSans-57" d="M 213 4666 
L 850 4666 
L 1831 722 
L 2809 4666 
L 3519 4666 
L 4500 722 
L 5478 4666 
L 6119 4666 
L 4947 0 
L 4153 0 
L 3169 4050 
L 2175 0 
L 1381 0 
L 213 4666 
z
" transform="scale(0.015625)"/>
      <path id="DejaVuSans-53" d="M 3425 4513 
L 3425 3897 
Q 3066 4069 2747 4153 
Q 2428 4238 2131 4238 
Q 1616 4238 1336 4038 
Q 1056 3838 1056 3469 
Q 1056 3159 1242 3001 
Q 1428 2844 1947 2747 
L 2328 2669 
Q 3034 2534 3370 2195 
Q 3706 1856 3706 1288 
Q 3706 609 3251 259 
Q 2797 -91 1919 -91 
Q 1588 -91 1214 -16 
Q 841 59 441 206 
L 441 856 
Q 825 641 1194 531 
Q 1563 422 1919 422 
Q 2459 422 2753 634 
Q 3047 847 3047 1241 
Q 3047 1584 2836 1778 
Q 2625 1972 2144 2069 
L 1759 2144 
Q 1053 2284 737 2584 
Q 422 2884 422 3419 
Q 422 4038 858 4394 
Q 1294 4750 2059 4750 
Q 2388 4750 2728 4690 
Q 3069 4631 3425 4513 
z
" transform="scale(0.015625)"/>
      <path id="DejaVuSans-50" d="M 1259 4147 
L 1259 2394 
L 2053 2394 
Q 2494 2394 2734 2622 
Q 2975 2850 2975 3272 
Q 2975 3691 2734 3919 
Q 2494 4147 2053 4147 
L 1259 4147 
z
M 628 4666 
L 2053 4666 
Q 2838 4666 3239 4311 
Q 3641 3956 3641 3272 
Q 3641 2581 3239 2228 
Q 2838 1875 2053 1875 
L 1259 1875 
L 1259 0 
L 628 0 
L 628 4666 
z
" transform="scale(0.015625)"/>
     </defs>
     <use xlink:href="#DejaVuSans-57"/>
     <use xlink:href="#DejaVuSans-53" x="98.876953"/>
     <use xlink:href="#DejaVuSans-50" x="162.353516"/>
    </g>
   </g>
   <g id="text_13">
    <!-- Iambic -->
    <g transform="translate(361.832136 111.463437)scale(0.08 -0.08)">
     <defs>
      <path id="DejaVuSans-49" d="M 628 4666 
L 1259 4666 
L 1259 0 
L 628 0 
L 628 4666 
z
" transform="scale(0.015625)"/>
      <path id="DejaVuSans-61" d="M 2194 1759 
Q 1497 1759 1228 1600 
Q 959 1441 959 1056 
Q 959 750 1161 570 
Q 1363 391 1709 391 
Q 2188 391 2477 730 
Q 2766 1069 2766 1631 
L 2766 1759 
L 2194 1759 
z
M 3341 1997 
L 3341 0 
L 2766 0 
L 2766 531 
Q 2569 213 2275 61 
Q 1981 -91 1556 -91 
Q 1019 -91 701 211 
Q 384 513 384 1019 
Q 384 1609 779 1909 
Q 1175 2209 1959 2209 
L 2766 2209 
L 2766 2266 
Q 2766 2663 2505 2880 
Q 2244 3097 1772 3097 
Q 1472 3097 1187 3025 
Q 903 2953 641 2809 
L 641 3341 
Q 956 3463 1253 3523 
Q 1550 3584 1831 3584 
Q 2591 3584 2966 3190 
Q 3341 2797 3341 1997 
z
" transform="scale(0.015625)"/>
      <path id="DejaVuSans-6d" d="M 3328 2828 
Q 3544 3216 3844 3400 
Q 4144 3584 4550 3584 
Q 5097 3584 5394 3201 
Q 5691 2819 5691 2113 
L 5691 0 
L 5113 0 
L 5113 2094 
Q 5113 2597 4934 2840 
Q 4756 3084 4391 3084 
Q 3944 3084 3684 2787 
Q 3425 2491 3425 1978 
L 3425 0 
L 2847 0 
L 2847 2094 
Q 2847 2600 2669 2842 
Q 2491 3084 2119 3084 
Q 1678 3084 1418 2786 
Q 1159 2488 1159 1978 
L 1159 0 
L 581 0 
L 581 3500 
L 1159 3500 
L 1159 2956 
Q 1356 3278 1631 3431 
Q 1906 3584 2284 3584 
Q 2666 3584 2933 3390 
Q 3200 3197 3328 2828 
z
" transform="scale(0.015625)"/>
      <path id="DejaVuSans-62" d="M 3116 1747 
Q 3116 2381 2855 2742 
Q 2594 3103 2138 3103 
Q 1681 3103 1420 2742 
Q 1159 2381 1159 1747 
Q 1159 1113 1420 752 
Q 1681 391 2138 391 
Q 2594 391 2855 752 
Q 3116 1113 3116 1747 
z
M 1159 2969 
Q 1341 3281 1617 3432 
Q 1894 3584 2278 3584 
Q 2916 3584 3314 3078 
Q 3713 2572 3713 1747 
Q 3713 922 3314 415 
Q 2916 -91 2278 -91 
Q 1894 -91 1617 61 
Q 1341 213 1159 525 
L 1159 0 
L 581 0 
L 581 4863 
L 1159 4863 
L 1159 2969 
z
" transform="scale(0.015625)"/>
      <path id="DejaVuSans-69" d="M 603 3500 
L 1178 3500 
L 1178 0 
L 603 0 
L 603 3500 
z
M 603 4863 
L 1178 4863 
L 1178 4134 
L 603 4134 
L 603 4863 
z
" transform="scale(0.015625)"/>
      <path id="DejaVuSans-63" d="M 3122 3366 
L 3122 2828 
Q 2878 2963 2633 3030 
Q 2388 3097 2138 3097 
Q 1578 3097 1268 2742 
Q 959 2388 959 1747 
Q 959 1106 1268 751 
Q 1578 397 2138 397 
Q 2388 397 2633 464 
Q 2878 531 3122 666 
L 3122 134 
Q 2881 22 2623 -34 
Q 2366 -91 2075 -91 
Q 1284 -91 818 406 
Q 353 903 353 1747 
Q 353 2603 823 3093 
Q 1294 3584 2113 3584 
Q 2378 3584 2631 3529 
Q 2884 3475 3122 3366 
z
" transform="scale(0.015625)"/>
     </defs>
     <use xlink:href="#DejaVuSans-49"/>
     <use xlink:href="#DejaVuSans-61" x="29.492188"/>
     <use xlink:href="#DejaVuSans-6d" x="90.771484"/>
     <use xlink:href="#DejaVuSans-62" x="188.183594"/>
     <use xlink:href="#DejaVuSans-69" x="251.660156"/>
     <use xlink:href="#DejaVuSans-63" x="279.443359"/>
    </g>
   </g>
   <g id="text_14">
    <!-- Parse -->
    <g transform="translate(361.832136 156.406625)scale(0.08 -0.08)">
     <defs>
      <path id="DejaVuSans-72" d="M 2631 2963 
Q 2534 3019 2420 3045 
Q 2306 3072 2169 3072 
Q 1681 3072 1420 2755 
Q 1159 2438 1159 1844 
L 1159 0 
L 581 0 
L 581 3500 
L 1159 3500 
L 1159 2956 
Q 1341 3275 1631 3429 
Q 1922 3584 2338 3584 
Q 2397 3584 2469 3576 
Q 2541 3569 2628 3553 
L 2631 2963 
z
" transform="scale(0.015625)"/>
      <path id="DejaVuSans-73" d="M 2834 3397 
L 2834 2853 
Q 2591 2978 2328 3040 
Q 2066 3103 1784 3103 
Q 1356 3103 1142 2972 
Q 928 2841 928 2578 
Q 928 2378 1081 2264 
Q 1234 2150 1697 2047 
L 1894 2003 
Q 2506 1872 2764 1633 
Q 3022 1394 3022 966 
Q 3022 478 2636 193 
Q 2250 -91 1575 -91 
Q 1294 -91 989 -36 
Q 684 19 347 128 
L 347 722 
Q 666 556 975 473 
Q 1284 391 1588 391 
Q 1994 391 2212 530 
Q 2431 669 2431 922 
Q 2431 1156 2273 1281 
Q 2116 1406 1581 1522 
L 1381 1569 
Q 847 1681 609 1914 
Q 372 2147 372 2553 
Q 372 3047 722 3315 
Q 1072 3584 1716 3584 
Q 2034 3584 2315 3537 
Q 2597 3491 2834 3397 
z
" transform="scale(0.015625)"/>
      <path id="DejaVuSans-65" d="M 3597 1894 
L 3597 1613 
L 953 1613 
Q 991 1019 1311 708 
Q 1631 397 2203 397 
Q 2534 397 2845 478 
Q 3156 559 3463 722 
L 3463 178 
Q 3153 47 2828 -22 
Q 2503 -91 2169 -91 
Q 1331 -91 842 396 
Q 353 884 353 1716 
Q 353 2575 817 3079 
Q 1281 3584 2069 3584 
Q 2775 3584 3186 3129 
Q 3597 2675 3597 1894 
z
M 3022 2063 
Q 3016 2534 2758 2815 
Q 2500 3097 2075 3097 
Q 1594 3097 1305 2825 
Q 1016 2553 972 2059 
L 3022 2063 
z
" transform="scale(0.015625)"/>
     </defs>
     <use xlink:href="#DejaVuSans-50"/>
     <use xlink:href="#DejaVuSans-61" x="55.802734"/>
     <use xlink:href="#DejaVuSans-72" x="117.082031"/>
     <use xlink:href="#DejaVuSans-73" x="158.195312"/>
     <use xlink:href="#DejaVuSans-65" x="210.294922"/>
    </g>
   </g>
   <g id="text_15">
    <!-- FootBin -->
    <g transform="translate(361.832136 50.572666)scale(0.08 -0.08)">
     <defs>
      <path id="DejaVuSans-46" d="M 628 4666 
L 3309 4666 
L 3309 4134 
L 1259 4134 
L 1259 2759 
L 3109 2759 
L 3109 2228 
L 1259 2228 
L 1259 0 
L 628 0 
L 628 4666 
z
" transform="scale(0.015625)"/>
      <path id="DejaVuSans-6f" d="M 1959 3097 
Q 1497 3097 1228 2736 
Q 959 2375 959 1747 
Q 959 1119 1226 758 
Q 1494 397 1959 397 
Q 2419 397 2687 759 
Q 2956 1122 2956 1747 
Q 2956 2369 2687 2733 
Q 2419 3097 1959 3097 
z
M 1959 3584 
Q 2709 3584 3137 3096 
Q 3566 2609 3566 1747 
Q 3566 888 3137 398 
Q 2709 -91 1959 -91 
Q 1206 -91 779 398 
Q 353 888 353 1747 
Q 353 2609 779 3096 
Q 1206 3584 1959 3584 
z
" transform="scale(0.015625)"/>
      <path id="DejaVuSans-74" d="M 1172 4494 
L 1172 3500 
L 2356 3500 
L 2356 3053 
L 1172 3053 
L 1172 1153 
Q 1172 725 1289 603 
Q 1406 481 1766 481 
L 2356 481 
L 2356 0 
L 1766 0 
Q 1100 0 847 248 
Q 594 497 594 1153 
L 594 3053 
L 172 3053 
L 172 3500 
L 594 3500 
L 594 4494 
L 1172 4494 
z
" transform="scale(0.015625)"/>
      <path id="DejaVuSans-42" d="M 1259 2228 
L 1259 519 
L 2272 519 
Q 2781 519 3026 730 
Q 3272 941 3272 1375 
Q 3272 1813 3026 2020 
Q 2781 2228 2272 2228 
L 1259 2228 
z
M 1259 4147 
L 1259 2741 
L 2194 2741 
Q 2656 2741 2882 2914 
Q 3109 3088 3109 3444 
Q 3109 3797 2882 3972 
Q 2656 4147 2194 4147 
L 1259 4147 
z
M 628 4666 
L 2241 4666 
Q 2963 4666 3353 4366 
Q 3744 4066 3744 3513 
Q 3744 3084 3544 2831 
Q 3344 2578 2956 2516 
Q 3422 2416 3680 2098 
Q 3938 1781 3938 1306 
Q 3938 681 3513 340 
Q 3088 0 2303 0 
L 628 0 
L 628 4666 
z
" transform="scale(0.015625)"/>
      <path id="DejaVuSans-6e" d="M 3513 2113 
L 3513 0 
L 2938 0 
L 2938 2094 
Q 2938 2591 2744 2837 
Q 2550 3084 2163 3084 
Q 1697 3084 1428 2787 
Q 1159 2491 1159 1978 
L 1159 0 
L 581 0 
L 581 3500 
L 1159 3500 
L 1159 2956 
Q 1366 3272 1645 3428 
Q 1925 3584 2291 3584 
Q 2894 3584 3203 3211 
Q 3513 2838 3513 2113 
z
" transform="scale(0.015625)"/>
     </defs>
     <use xlink:href="#DejaVuSans-46"/>
     <use xlink:href="#DejaVuSans-6f" x="53.894531"/>
     <use xlink:href="#DejaVuSans-6f" x="115.076172"/>
     <use xlink:href="#DejaVuSans-74" x="176.257812"/>
     <use xlink:href="#DejaVuSans-42" x="215.466797"/>
     <use xlink:href="#DejaVuSans-69" x="284.070312"/>
     <use xlink:href="#DejaVuSans-6e" x="311.853516"/>
    </g>
   </g>
   <g id="text_16">
    <!-- WFL -->
    <g transform="translate(361.832136 74.55994)scale(0.08 -0.08)">
     <defs>
      <path id="DejaVuSans-4c" d="M 628 4666 
L 1259 4666 
L 1259 531 
L 3531 531 
L 3531 0 
L 628 0 
L 628 4666 
z
" transform="scale(0.015625)"/>
     </defs>
     <use xlink:href="#DejaVuSans-57"/>
     <use xlink:href="#DejaVuSans-46" x="98.876953"/>
     <use xlink:href="#DejaVuSans-4c" x="156.396484"/>
    </g>
   </g>
   <g id="text_17">
    <!-- WFR -->
    <g transform="translate(361.832136 108.168482)scale(0.08 -0.08)">
     <defs>
      <path id="DejaVuSans-52" d="M 2841 2188 
Q 3044 2119 3236 1894 
Q 3428 1669 3622 1275 
L 4263 0 
L 3584 0 
L 2988 1197 
Q 2756 1666 2539 1819 
Q 2322 1972 1947 1972 
L 1259 1972 
L 1259 0 
L 628 0 
L 628 4666 
L 2053 4666 
Q 2853 4666 3247 4331 
Q 3641 3997 3641 3322 
Q 3641 2881 3436 2590 
Q 3231 2300 2841 2188 
z
M 1259 4147 
L 1259 2491 
L 2053 2491 
Q 2509 2491 2742 2702 
Q 2975 2913 2975 3322 
Q 2975 3731 2742 3939 
Q 2509 4147 2053 4147 
L 1259 4147 
z
" transform="scale(0.015625)"/>
     </defs>
     <use xlink:href="#DejaVuSans-57"/>
     <use xlink:href="#DejaVuSans-46" x="98.876953"/>
     <use xlink:href="#DejaVuSans-52" x="156.396484"/>
    </g>
   </g>
   <g id="text_18">
    <!-- Main-L -->
    <g transform="translate(361.832136 145.115912)scale(0.08 -0.08)">
     <defs>
      <path id="DejaVuSans-4d" d="M 628 4666 
L 1569 4666 
L 2759 1491 
L 3956 4666 
L 4897 4666 
L 4897 0 
L 4281 0 
L 4281 4097 
L 3078 897 
L 2444 897 
L 1241 4097 
L 1241 0 
L 628 0 
L 628 4666 
z
" transform="scale(0.015625)"/>
      <path id="DejaVuSans-2d" d="M 313 2009 
L 1997 2009 
L 1997 1497 
L 313 1497 
L 313 2009 
z
" transform="scale(0.015625)"/>
     </defs>
     <use xlink:href="#DejaVuSans-4d"/>
     <use xlink:href="#DejaVuSans-61" x="86.279297"/>
     <use xlink:href="#DejaVuSans-69" x="147.558594"/>
     <use xlink:href="#DejaVuSans-6e" x="175.341797"/>
     <use xlink:href="#DejaVuSans-2d" x="238.720703"/>
     <use xlink:href="#DejaVuSans-4c" x="274.804688"/>
    </g>
   </g>
   <g id="text_19">
    <!-- Main-R -->
    <g transform="translate(361.832136 112.781419)scale(0.08 -0.08)">
     <use xlink:href="#DejaVuSans-4d"/>
     <use xlink:href="#DejaVuSans-61" x="86.279297"/>
     <use xlink:href="#DejaVuSans-69" x="147.558594"/>
     <use xlink:href="#DejaVuSans-6e" x="175.341797"/>
     <use xlink:href="#DejaVuSans-2d" x="238.720703"/>
     <use xlink:href="#DejaVuSans-52" x="274.804688"/>
    </g>
   </g>
   <g id="text_20">
    <!-- AFL -->
    <g transform="translate(361.832136 91.078648)scale(0.08 -0.08)">
     <defs>
      <path id="DejaVuSans-41" d="M 2188 4044 
L 1331 1722 
L 3047 1722 
L 2188 4044 
z
M 1831 4666 
L 2547 4666 
L 4325 0 
L 3669 0 
L 3244 1197 
L 1141 1197 
L 716 0 
L 50 0 
L 1831 4666 
z
" transform="scale(0.015625)"/>
     </defs>
     <use xlink:href="#DejaVuSans-41"/>
     <use xlink:href="#DejaVuSans-46" x="68.408203"/>
     <use xlink:href="#DejaVuSans-4c" x="125.927734"/>
    </g>
   </g>
   <g id="text_21">
    <!-- AFR -->
    <g transform="translate(361.832136 116.955029)scale(0.08 -0.08)">
     <use xlink:href="#DejaVuSans-41"/>
     <use xlink:href="#DejaVuSans-46" x="68.408203"/>
     <use xlink:href="#DejaVuSans-52" x="125.927734"/>
    </g>
   </g>
   <g id="text_22">
    <!-- Nonfinal -->
    <g transform="translate(361.832136 81.501312)scale(0.08 -0.08)">
     <defs>
      <path id="DejaVuSans-4e" d="M 628 4666 
L 1478 4666 
L 3547 763 
L 3547 4666 
L 4159 4666 
L 4159 0 
L 3309 0 
L 1241 3903 
L 1241 0 
L 628 0 
L 628 4666 
z
" transform="scale(0.015625)"/>
      <path id="DejaVuSans-66" d="M 2375 4863 
L 2375 4384 
L 1825 4384 
Q 1516 4384 1395 4259 
Q 1275 4134 1275 3809 
L 1275 3500 
L 2222 3500 
L 2222 3053 
L 1275 3053 
L 1275 0 
L 697 0 
L 697 3053 
L 147 3053 
L 147 3500 
L 697 3500 
L 697 3744 
Q 697 4328 969 4595 
Q 1241 4863 1831 4863 
L 2375 4863 
z
" transform="scale(0.015625)"/>
      <path id="DejaVuSans-6c" d="M 603 4863 
L 1178 4863 
L 1178 0 
L 603 0 
L 603 4863 
z
" transform="scale(0.015625)"/>
     </defs>
     <use xlink:href="#DejaVuSans-4e"/>
     <use xlink:href="#DejaVuSans-6f" x="74.804688"/>
     <use xlink:href="#DejaVuSans-6e" x="135.986328"/>
     <use xlink:href="#DejaVuSans-66" x="199.365234"/>
     <use xlink:href="#DejaVuSans-69" x="234.570312"/>
     <use xlink:href="#DejaVuSans-6e" x="262.353516"/>
     <use xlink:href="#DejaVuSans-61" x="325.732422"/>
     <use xlink:href="#DejaVuSans-6c" x="387.011719"/>
    </g>
   </g>
   <g id="text_23">
    <!-- Trochaic -->
    <g transform="translate(361.832136 66.959576)scale(0.08 -0.08)">
     <defs>
      <path id="DejaVuSans-54" d="M -19 4666 
L 3928 4666 
L 3928 4134 
L 2272 4134 
L 2272 0 
L 1638 0 
L 1638 4134 
L -19 4134 
L -19 4666 
z
" transform="scale(0.015625)"/>
      <path id="DejaVuSans-68" d="M 3513 2113 
L 3513 0 
L 2938 0 
L 2938 2094 
Q 2938 2591 2744 2837 
Q 2550 3084 2163 3084 
Q 1697 3084 1428 2787 
Q 1159 2491 1159 1978 
L 1159 0 
L 581 0 
L 581 4863 
L 1159 4863 
L 1159 2956 
Q 1366 3272 1645 3428 
Q 1925 3584 2291 3584 
Q 2894 3584 3203 3211 
Q 3513 2838 3513 2113 
z
" transform="scale(0.015625)"/>
     </defs>
     <use xlink:href="#DejaVuSans-54"/>
     <use xlink:href="#DejaVuSans-72" x="46.333984"/>
     <use xlink:href="#DejaVuSans-6f" x="85.197266"/>
     <use xlink:href="#DejaVuSans-63" x="146.378906"/>
     <use xlink:href="#DejaVuSans-68" x="201.359375"/>
     <use xlink:href="#DejaVuSans-61" x="264.738281"/>
     <use xlink:href="#DejaVuSans-69" x="326.017578"/>
     <use xlink:href="#DejaVuSans-63" x="353.800781"/>
    </g>
   </g>
  </g>
  <g id="axes_2">
   <g id="patch_7">
    <path d="M 57.6 307.584 
L 414.72 307.584 
L 414.72 186.624 
L 57.6 186.624 
z
" style="fill: #ffffff"/>
   </g>
   <g id="matplotlib.axis_3">
    <g id="xtick_8">
     <g id="line2d_24">
      <g>
       <use xlink:href="#m066918d0c0" x="70.98488" y="307.584" style="stroke: #000000; stroke-width: 0.8"/>
      </g>
     </g>
     <g id="text_24">
      <!-- 0 -->
      <g transform="translate(67.80363 322.182437)scale(0.1 -0.1)">
       <use xlink:href="#DejaVuSans-30"/>
      </g>
     </g>
    </g>
    <g id="xtick_9">
     <g id="line2d_25">
      <g>
       <use xlink:href="#m066918d0c0" x="127.941818" y="307.584" style="stroke: #000000; stroke-width: 0.8"/>
      </g>
     </g>
     <g id="text_25">
      <!-- 20 -->
      <g transform="translate(121.579318 322.182437)scale(0.1 -0.1)">
       <use xlink:href="#DejaVuSans-32"/>
       <use xlink:href="#DejaVuSans-30" x="63.623047"/>
      </g>
     </g>
    </g>
    <g id="xtick_10">
     <g id="line2d_26">
      <g>
       <use xlink:href="#m066918d0c0" x="184.898756" y="307.584" style="stroke: #000000; stroke-width: 0.8"/>
      </g>
     </g>
     <g id="text_26">
      <!-- 40 -->
      <g transform="translate(178.536256 322.182437)scale(0.1 -0.1)">
       <use xlink:href="#DejaVuSans-34"/>
       <use xlink:href="#DejaVuSans-30" x="63.623047"/>
      </g>
     </g>
    </g>
    <g id="xtick_11">
     <g id="line2d_27">
      <g>
       <use xlink:href="#m066918d0c0" x="241.855694" y="307.584" style="stroke: #000000; stroke-width: 0.8"/>
      </g>
     </g>
     <g id="text_27">
      <!-- 60 -->
      <g transform="translate(235.493194 322.182437)scale(0.1 -0.1)">
       <use xlink:href="#DejaVuSans-36"/>
       <use xlink:href="#DejaVuSans-30" x="63.623047"/>
      </g>
     </g>
    </g>
    <g id="xtick_12">
     <g id="line2d_28">
      <g>
       <use xlink:href="#m066918d0c0" x="298.812632" y="307.584" style="stroke: #000000; stroke-width: 0.8"/>
      </g>
     </g>
     <g id="text_28">
      <!-- 80 -->
      <g transform="translate(292.450132 322.182437)scale(0.1 -0.1)">
       <use xlink:href="#DejaVuSans-38"/>
       <use xlink:href="#DejaVuSans-30" x="63.623047"/>
      </g>
     </g>
    </g>
    <g id="xtick_13">
     <g id="line2d_29">
      <g>
       <use xlink:href="#m066918d0c0" x="355.769569" y="307.584" style="stroke: #000000; stroke-width: 0.8"/>
      </g>
     </g>
     <g id="text_29">
      <!-- 100 -->
      <g transform="translate(346.225819 322.182437)scale(0.1 -0.1)">
       <use xlink:href="#DejaVuSans-31"/>
       <use xlink:href="#DejaVuSans-30" x="63.623047"/>
       <use xlink:href="#DejaVuSans-30" x="127.246094"/>
      </g>
     </g>
    </g>
    <g id="xtick_14">
     <g id="line2d_30">
      <g>
       <use xlink:href="#m066918d0c0" x="412.726507" y="307.584" style="stroke: #000000; stroke-width: 0.8"/>
      </g>
     </g>
     <g id="text_30">
      <!-- 120 -->
      <g transform="translate(403.182757 322.182437)scale(0.1 -0.1)">
       <use xlink:href="#DejaVuSans-31"/>
       <use xlink:href="#DejaVuSans-32" x="63.623047"/>
       <use xlink:href="#DejaVuSans-30" x="127.246094"/>
      </g>
     </g>
    </g>
   </g>
   <g id="matplotlib.axis_4">
    <g id="ytick_5">
     <g id="line2d_31">
      <g>
       <use xlink:href="#m9c7aa4c5b3" x="57.6" y="302.097158" style="stroke: #000000; stroke-width: 0.8"/>
      </g>
     </g>
     <g id="text_31">
      <!-- 0 -->
      <g transform="translate(44.2375 305.896377)scale(0.1 -0.1)">
       <use xlink:href="#DejaVuSans-30"/>
      </g>
     </g>
    </g>
    <g id="ytick_6">
     <g id="line2d_32">
      <g>
       <use xlink:href="#m9c7aa4c5b3" x="57.6" y="279.417229" style="stroke: #000000; stroke-width: 0.8"/>
      </g>
     </g>
     <g id="text_32">
      <!-- 2000 -->
      <g transform="translate(25.15 283.216448)scale(0.1 -0.1)">
       <use xlink:href="#DejaVuSans-32"/>
       <use xlink:href="#DejaVuSans-30" x="63.623047"/>
       <use xlink:href="#DejaVuSans-30" x="127.246094"/>
       <use xlink:href="#DejaVuSans-30" x="190.869141"/>
      </g>
     </g>
    </g>
    <g id="ytick_7">
     <g id="line2d_33">
      <g>
       <use xlink:href="#m9c7aa4c5b3" x="57.6" y="256.7373" style="stroke: #000000; stroke-width: 0.8"/>
      </g>
     </g>
     <g id="text_33">
      <!-- 4000 -->
      <g transform="translate(25.15 260.536519)scale(0.1 -0.1)">
       <use xlink:href="#DejaVuSans-34"/>
       <use xlink:href="#DejaVuSans-30" x="63.623047"/>
       <use xlink:href="#DejaVuSans-30" x="127.246094"/>
       <use xlink:href="#DejaVuSans-30" x="190.869141"/>
      </g>
     </g>
    </g>
    <g id="ytick_8">
     <g id="line2d_34">
      <g>
       <use xlink:href="#m9c7aa4c5b3" x="57.6" y="234.057371" style="stroke: #000000; stroke-width: 0.8"/>
      </g>
     </g>
     <g id="text_34">
      <!-- 6000 -->
      <g transform="translate(25.15 237.85659)scale(0.1 -0.1)">
       <use xlink:href="#DejaVuSans-36"/>
       <use xlink:href="#DejaVuSans-30" x="63.623047"/>
       <use xlink:href="#DejaVuSans-30" x="127.246094"/>
       <use xlink:href="#DejaVuSans-30" x="190.869141"/>
      </g>
     </g>
    </g>
    <g id="ytick_9">
     <g id="line2d_35">
      <g>
       <use xlink:href="#m9c7aa4c5b3" x="57.6" y="211.377442" style="stroke: #000000; stroke-width: 0.8"/>
      </g>
     </g>
     <g id="text_35">
      <!-- 8000 -->
      <g transform="translate(25.15 215.17666)scale(0.1 -0.1)">
       <use xlink:href="#DejaVuSans-38"/>
       <use xlink:href="#DejaVuSans-30" x="63.623047"/>
       <use xlink:href="#DejaVuSans-30" x="127.246094"/>
       <use xlink:href="#DejaVuSans-30" x="190.869141"/>
      </g>
     </g>
    </g>
    <g id="ytick_10">
     <g id="line2d_36">
      <g>
       <use xlink:href="#m9c7aa4c5b3" x="57.6" y="188.697513" style="stroke: #000000; stroke-width: 0.8"/>
      </g>
     </g>
     <g id="text_36">
      <!-- 10000 -->
      <g transform="translate(18.7875 192.496731)scale(0.1 -0.1)">
       <use xlink:href="#DejaVuSans-31"/>
       <use xlink:href="#DejaVuSans-30" x="63.623047"/>
       <use xlink:href="#DejaVuSans-30" x="127.246094"/>
       <use xlink:href="#DejaVuSans-30" x="190.869141"/>
       <use xlink:href="#DejaVuSans-30" x="254.492188"/>
      </g>
     </g>
    </g>
   </g>
   <g id="line2d_37">
    <path d="M 73.832727 302.085818 
L 76.680574 302.085818 
L 79.528421 302.085818 
L 82.376268 302.085818 
L 85.224115 302.085818 
L 88.071962 302.085818 
L 90.919809 302.063138 
L 93.767656 302.074478 
L 96.615502 302.085818 
L 99.463349 302.085818 
L 102.311196 302.074478 
L 105.159043 302.085818 
L 108.00689 302.040458 
L 110.854737 302.006438 
L 113.702584 302.040458 
L 116.550431 302.085818 
L 119.398278 302.074478 
L 122.246124 302.085818 
L 125.093971 302.063138 
L 127.941818 302.085818 
L 130.789665 302.063138 
L 133.637512 302.085818 
L 136.485359 302.063138 
L 139.333206 302.074478 
L 142.181053 302.074478 
L 145.0289 302.051798 
L 147.876746 301.983759 
L 150.724593 302.040458 
L 153.57244 301.983759 
L 156.420287 301.983759 
L 159.268134 302.085818 
L 162.115981 302.074478 
L 164.963828 301.949739 
L 167.811675 302.063138 
L 170.659522 302.063138 
L 173.507368 302.085818 
L 176.355215 302.040458 
L 179.203062 301.859019 
L 182.050909 302.017778 
L 184.898756 302.074478 
L 187.746603 302.029118 
L 190.59445 302.063138 
L 193.442297 302.085818 
L 196.290144 301.995098 
L 199.13799 301.938399 
L 201.985837 301.972419 
L 204.833684 301.666239 
L 207.681531 301.927059 
L 210.529378 302.074478 
L 213.377225 301.915719 
L 216.225072 301.881699 
L 219.072919 302.017778 
L 221.920766 301.995098 
L 224.768612 301.280681 
L 227.616459 301.870359 
L 230.464306 301.983759 
L 233.312153 301.927059 
L 236.16 301.303361 
L 239.007847 301.847679 
L 241.855694 301.904379 
L 244.703541 302.085818 
L 247.551388 301.57552 
L 250.399234 301.201301 
L 253.247081 301.53016 
L 256.094928 301.847679 
L 258.942775 300.226064 
L 261.790622 300.725022 
L 264.638469 301.258001 
L 267.486316 301.45078 
L 270.334163 301.790979 
L 273.18201 300.827082 
L 276.029856 301.813659 
L 278.877703 300.305444 
L 281.72555 301.087901 
L 284.573397 300.305444 
L 287.421244 300.305444 
L 290.269091 301.4281 
L 293.116938 300.974502 
L 295.964785 301.235321 
L 298.812632 297.810652 
L 301.660478 298.865268 
L 304.508325 300.475543 
L 307.356172 300.407503 
L 310.204019 301.133261 
L 313.051866 301.38274 
L 315.899713 297.118914 
L 318.74756 301.983759 
L 321.595407 297.651892 
L 324.443254 291.86851 
L 327.2911 292.333449 
L 330.138947 297.583852 
L 332.986794 298.29827 
L 335.834641 288.874759 
L 338.682488 297.924051 
L 341.530335 290.881933 
L 344.378182 301.47346 
L 347.226029 298.45703 
L 350.073876 298.513729 
L 352.921722 291.81181 
L 355.769569 297.459113 
L 358.617416 281.311003 
L 361.465263 297.379733 
L 364.31311 284.985152 
L 367.160957 288.375801 
L 370.008804 283.817135 
L 372.856651 284.304754 
L 375.704498 287.525304 
L 378.552344 280.142987 
L 381.400191 291.528311 
L 384.248038 212.568138 
L 387.095885 268.236024 
L 389.943732 264.369096 
L 392.791579 240.963409 
L 395.639426 214.677371 
L 398.487273 192.122182 
" clip-path="url(#pdbd243a030)" style="fill: none; stroke: #1f77b4; stroke-width: 1.5; stroke-linecap: square"/>
   </g>
   <g id="patch_8">
    <path d="M 57.6 307.584 
L 57.6 186.624 
" style="fill: none; stroke: #000000; stroke-width: 0.8; stroke-linejoin: miter; stroke-linecap: square"/>
   </g>
   <g id="patch_9">
    <path d="M 414.72 307.584 
L 414.72 186.624 
" style="fill: none; stroke: #000000; stroke-width: 0.8; stroke-linejoin: miter; stroke-linecap: square"/>
   </g>
   <g id="patch_10">
    <path d="M 57.6 307.584 
L 414.72 307.584 
" style="fill: none; stroke: #000000; stroke-width: 0.8; stroke-linejoin: miter; stroke-linecap: square"/>
   </g>
   <g id="patch_11">
    <path d="M 57.6 186.624 
L 414.72 186.624 
" style="fill: none; stroke: #000000; stroke-width: 0.8; stroke-linejoin: miter; stroke-linecap: square"/>
   </g>
  </g>
 </g>
 <defs>
  <clipPath id="p447a9caa82">
   <rect x="57.6" y="41.472" width="357.12" height="120.96"/>
  </clipPath>
  <clipPath id="pdbd243a030">
   <rect x="57.6" y="186.624" width="357.12" height="120.96"/>
  </clipPath>
 </defs>
</svg>
