<?xml version="1.0" encoding="utf-8" standalone="no"?>
<!DOCTYPE svg PUBLIC "-//W3C//DTD SVG 1.1//EN"
  "http://www.w3.org/Graphics/SVG/1.1/DTD/svg11.dtd">
<svg xmlns:xlink="http://www.w3.org/1999/xlink" width="460.8pt" height="345.6pt" viewBox="0 0 460.8 345.6" xmlns="http://www.w3.org/2000/svg" version="1.1">
 <metadata>
  <rdf:RDF xmlns:dc="http://purl.org/dc/elements/1.1/" xmlns:cc="http://creativecommons.org/ns#" xmlns:rdf="http://www.w3.org/1999/02/22-rdf-syntax-ns#">
   <cc:Work>
    <dc:type rdf:resource="http://purl.org/dc/dcmitype/StillImage"/>
    <dc:date>2022-05-14T05:27:13.072852</dc:date>
    <dc:format>image/svg+xml</dc:format>
    <dc:creator>
     <cc:Agent>
      <dc:title>Matplotlib v3.5.1, https://matplotlib.org/</dc:title>
     </cc:Agent>
    </dc:creator>
   </cc:Work>
  </rdf:RDF>
 </metadata>
 <defs>
  <style type="text/css">*{stroke-linejoin: round; stroke-linecap: butt}</style>
 </defs>
 <g id="figure_1">
  <g id="patch_1">
   <path d="M 0 345.6 
L 460.8 345.6 
L 460.8 0 
L 0 0 
z
" style="fill: #ffffff"/>
  </g>
  <g id="axes_1">
   <g id="patch_2">
    <path d="M 57.6 162.432 
L 414.72 162.432 
L 414.72 41.472 
L 57.6 41.472 
z
" style="fill: #ffffff"/>
   </g>
   <g id="matplotlib.axis_1">
    <g id="xtick_1">
     <g id="line2d_1">
      <defs>
       <path id="m71a94f811d" d="M 0 0 
L 0 3.5 
" style="stroke: #000000; stroke-width: 0.8"/>
      </defs>
      <g>
       <use xlink:href="#m71a94f811d" x="73.827491" y="162.432" style="stroke: #000000; stroke-width: 0.8"/>
      </g>
     </g>
     <g id="text_1">
      <!-- 0 -->
      <g transform="translate(70.646241 177.030437)scale(0.1 -0.1)">
       <defs>
        <path id="DejaVuSans-30" d="M 2034 4250 
Q 1547 4250 1301 3770 
Q 1056 3291 1056 2328 
Q 1056 1369 1301 889 
Q 1547 409 2034 409 
Q 2525 409 2770 889 
Q 3016 1369 3016 2328 
Q 3016 3291 2770 3770 
Q 2525 4250 2034 4250 
z
M 2034 4750 
Q 2819 4750 3233 4129 
Q 3647 3509 3647 2328 
Q 3647 1150 3233 529 
Q 2819 -91 2034 -91 
Q 1250 -91 836 529 
Q 422 1150 422 2328 
Q 422 3509 836 4129 
Q 1250 4750 2034 4750 
z
" transform="scale(0.015625)"/>
       </defs>
       <use xlink:href="#DejaVuSans-30"/>
      </g>
     </g>
    </g>
    <g id="xtick_2">
     <g id="line2d_2">
      <g>
       <use xlink:href="#m71a94f811d" x="126.191972" y="162.432" style="stroke: #000000; stroke-width: 0.8"/>
      </g>
     </g>
     <g id="text_2">
      <!-- 10000 -->
      <g transform="translate(110.285722 177.030437)scale(0.1 -0.1)">
       <defs>
        <path id="DejaVuSans-31" d="M 794 531 
L 1825 531 
L 1825 4091 
L 703 3866 
L 703 4441 
L 1819 4666 
L 2450 4666 
L 2450 531 
L 3481 531 
L 3481 0 
L 794 0 
L 794 531 
z
" transform="scale(0.015625)"/>
       </defs>
       <use xlink:href="#DejaVuSans-31"/>
       <use xlink:href="#DejaVuSans-30" x="63.623047"/>
       <use xlink:href="#DejaVuSans-30" x="127.246094"/>
       <use xlink:href="#DejaVuSans-30" x="190.869141"/>
       <use xlink:href="#DejaVuSans-30" x="254.492188"/>
      </g>
     </g>
    </g>
    <g id="xtick_3">
     <g id="line2d_3">
      <g>
       <use xlink:href="#m71a94f811d" x="178.556453" y="162.432" style="stroke: #000000; stroke-width: 0.8"/>
      </g>
     </g>
     <g id="text_3">
      <!-- 20000 -->
      <g transform="translate(162.650203 177.030437)scale(0.1 -0.1)">
       <defs>
        <path id="DejaVuSans-32" d="M 1228 531 
L 3431 531 
L 3431 0 
L 469 0 
L 469 531 
Q 828 903 1448 1529 
Q 2069 2156 2228 2338 
Q 2531 2678 2651 2914 
Q 2772 3150 2772 3378 
Q 2772 3750 2511 3984 
Q 2250 4219 1831 4219 
Q 1534 4219 1204 4116 
Q 875 4013 500 3803 
L 500 4441 
Q 881 4594 1212 4672 
Q 1544 4750 1819 4750 
Q 2544 4750 2975 4387 
Q 3406 4025 3406 3419 
Q 3406 3131 3298 2873 
Q 3191 2616 2906 2266 
Q 2828 2175 2409 1742 
Q 1991 1309 1228 531 
z
" transform="scale(0.015625)"/>
       </defs>
       <use xlink:href="#DejaVuSans-32"/>
       <use xlink:href="#DejaVuSans-30" x="63.623047"/>
       <use xlink:href="#DejaVuSans-30" x="127.246094"/>
       <use xlink:href="#DejaVuSans-30" x="190.869141"/>
       <use xlink:href="#DejaVuSans-30" x="254.492188"/>
      </g>
     </g>
    </g>
    <g id="xtick_4">
     <g id="line2d_4">
      <g>
       <use xlink:href="#m71a94f811d" x="230.920934" y="162.432" style="stroke: #000000; stroke-width: 0.8"/>
      </g>
     </g>
     <g id="text_4">
      <!-- 30000 -->
      <g transform="translate(215.014684 177.030437)scale(0.1 -0.1)">
       <defs>
        <path id="DejaVuSans-33" d="M 2597 2516 
Q 3050 2419 3304 2112 
Q 3559 1806 3559 1356 
Q 3559 666 3084 287 
Q 2609 -91 1734 -91 
Q 1441 -91 1130 -33 
Q 819 25 488 141 
L 488 750 
Q 750 597 1062 519 
Q 1375 441 1716 441 
Q 2309 441 2620 675 
Q 2931 909 2931 1356 
Q 2931 1769 2642 2001 
Q 2353 2234 1838 2234 
L 1294 2234 
L 1294 2753 
L 1863 2753 
Q 2328 2753 2575 2939 
Q 2822 3125 2822 3475 
Q 2822 3834 2567 4026 
Q 2313 4219 1838 4219 
Q 1578 4219 1281 4162 
Q 984 4106 628 3988 
L 628 4550 
Q 988 4650 1302 4700 
Q 1616 4750 1894 4750 
Q 2613 4750 3031 4423 
Q 3450 4097 3450 3541 
Q 3450 3153 3228 2886 
Q 3006 2619 2597 2516 
z
" transform="scale(0.015625)"/>
       </defs>
       <use xlink:href="#DejaVuSans-33"/>
       <use xlink:href="#DejaVuSans-30" x="63.623047"/>
       <use xlink:href="#DejaVuSans-30" x="127.246094"/>
       <use xlink:href="#DejaVuSans-30" x="190.869141"/>
       <use xlink:href="#DejaVuSans-30" x="254.492188"/>
      </g>
     </g>
    </g>
    <g id="xtick_5">
     <g id="line2d_5">
      <g>
       <use xlink:href="#m71a94f811d" x="283.285415" y="162.432" style="stroke: #000000; stroke-width: 0.8"/>
      </g>
     </g>
     <g id="text_5">
      <!-- 40000 -->
      <g transform="translate(267.379165 177.030437)scale(0.1 -0.1)">
       <defs>
        <path id="DejaVuSans-34" d="M 2419 4116 
L 825 1625 
L 2419 1625 
L 2419 4116 
z
M 2253 4666 
L 3047 4666 
L 3047 1625 
L 3713 1625 
L 3713 1100 
L 3047 1100 
L 3047 0 
L 2419 0 
L 2419 1100 
L 313 1100 
L 313 1709 
L 2253 4666 
z
" transform="scale(0.015625)"/>
       </defs>
       <use xlink:href="#DejaVuSans-34"/>
       <use xlink:href="#DejaVuSans-30" x="63.623047"/>
       <use xlink:href="#DejaVuSans-30" x="127.246094"/>
       <use xlink:href="#DejaVuSans-30" x="190.869141"/>
       <use xlink:href="#DejaVuSans-30" x="254.492188"/>
      </g>
     </g>
    </g>
    <g id="xtick_6">
     <g id="line2d_6">
      <g>
       <use xlink:href="#m71a94f811d" x="335.649896" y="162.432" style="stroke: #000000; stroke-width: 0.8"/>
      </g>
     </g>
     <g id="text_6">
      <!-- 50000 -->
      <g transform="translate(319.743646 177.030437)scale(0.1 -0.1)">
       <defs>
        <path id="DejaVuSans-35" d="M 691 4666 
L 3169 4666 
L 3169 4134 
L 1269 4134 
L 1269 2991 
Q 1406 3038 1543 3061 
Q 1681 3084 1819 3084 
Q 2600 3084 3056 2656 
Q 3513 2228 3513 1497 
Q 3513 744 3044 326 
Q 2575 -91 1722 -91 
Q 1428 -91 1123 -41 
Q 819 9 494 109 
L 494 744 
Q 775 591 1075 516 
Q 1375 441 1709 441 
Q 2250 441 2565 725 
Q 2881 1009 2881 1497 
Q 2881 1984 2565 2268 
Q 2250 2553 1709 2553 
Q 1456 2553 1204 2497 
Q 953 2441 691 2322 
L 691 4666 
z
" transform="scale(0.015625)"/>
       </defs>
       <use xlink:href="#DejaVuSans-35"/>
       <use xlink:href="#DejaVuSans-30" x="63.623047"/>
       <use xlink:href="#DejaVuSans-30" x="127.246094"/>
       <use xlink:href="#DejaVuSans-30" x="190.869141"/>
       <use xlink:href="#DejaVuSans-30" x="254.492188"/>
      </g>
     </g>
    </g>
    <g id="xtick_7">
     <g id="line2d_7">
      <g>
       <use xlink:href="#m71a94f811d" x="388.014377" y="162.432" style="stroke: #000000; stroke-width: 0.8"/>
      </g>
     </g>
     <g id="text_7">
      <!-- 60000 -->
      <g transform="translate(372.108127 177.030437)scale(0.1 -0.1)">
       <defs>
        <path id="DejaVuSans-36" d="M 2113 2584 
Q 1688 2584 1439 2293 
Q 1191 2003 1191 1497 
Q 1191 994 1439 701 
Q 1688 409 2113 409 
Q 2538 409 2786 701 
Q 3034 994 3034 1497 
Q 3034 2003 2786 2293 
Q 2538 2584 2113 2584 
z
M 3366 4563 
L 3366 3988 
Q 3128 4100 2886 4159 
Q 2644 4219 2406 4219 
Q 1781 4219 1451 3797 
Q 1122 3375 1075 2522 
Q 1259 2794 1537 2939 
Q 1816 3084 2150 3084 
Q 2853 3084 3261 2657 
Q 3669 2231 3669 1497 
Q 3669 778 3244 343 
Q 2819 -91 2113 -91 
Q 1303 -91 875 529 
Q 447 1150 447 2328 
Q 447 3434 972 4092 
Q 1497 4750 2381 4750 
Q 2619 4750 2861 4703 
Q 3103 4656 3366 4563 
z
" transform="scale(0.015625)"/>
       </defs>
       <use xlink:href="#DejaVuSans-36"/>
       <use xlink:href="#DejaVuSans-30" x="63.623047"/>
       <use xlink:href="#DejaVuSans-30" x="127.246094"/>
       <use xlink:href="#DejaVuSans-30" x="190.869141"/>
       <use xlink:href="#DejaVuSans-30" x="254.492188"/>
      </g>
     </g>
    </g>
   </g>
   <g id="matplotlib.axis_2">
    <g id="ytick_1">
     <g id="line2d_8">
      <defs>
       <path id="mf66d3d6b3d" d="M 0 0 
L -3.5 0 
" style="stroke: #000000; stroke-width: 0.8"/>
      </defs>
      <g>
       <use xlink:href="#mf66d3d6b3d" x="57.6" y="143.984009" style="stroke: #000000; stroke-width: 0.8"/>
      </g>
     </g>
     <g id="text_8">
      <!-- 70 -->
      <g transform="translate(37.875 147.783227)scale(0.1 -0.1)">
       <defs>
        <path id="DejaVuSans-37" d="M 525 4666 
L 3525 4666 
L 3525 4397 
L 1831 0 
L 1172 0 
L 2766 4134 
L 525 4134 
L 525 4666 
z
" transform="scale(0.015625)"/>
       </defs>
       <use xlink:href="#DejaVuSans-37"/>
       <use xlink:href="#DejaVuSans-30" x="63.623047"/>
      </g>
     </g>
    </g>
    <g id="ytick_2">
     <g id="line2d_9">
      <g>
       <use xlink:href="#mf66d3d6b3d" x="57.6" y="117.645413" style="stroke: #000000; stroke-width: 0.8"/>
      </g>
     </g>
     <g id="text_9">
      <!-- 80 -->
      <g transform="translate(37.875 121.444632)scale(0.1 -0.1)">
       <defs>
        <path id="DejaVuSans-38" d="M 2034 2216 
Q 1584 2216 1326 1975 
Q 1069 1734 1069 1313 
Q 1069 891 1326 650 
Q 1584 409 2034 409 
Q 2484 409 2743 651 
Q 3003 894 3003 1313 
Q 3003 1734 2745 1975 
Q 2488 2216 2034 2216 
z
M 1403 2484 
Q 997 2584 770 2862 
Q 544 3141 544 3541 
Q 544 4100 942 4425 
Q 1341 4750 2034 4750 
Q 2731 4750 3128 4425 
Q 3525 4100 3525 3541 
Q 3525 3141 3298 2862 
Q 3072 2584 2669 2484 
Q 3125 2378 3379 2068 
Q 3634 1759 3634 1313 
Q 3634 634 3220 271 
Q 2806 -91 2034 -91 
Q 1263 -91 848 271 
Q 434 634 434 1313 
Q 434 1759 690 2068 
Q 947 2378 1403 2484 
z
M 1172 3481 
Q 1172 3119 1398 2916 
Q 1625 2713 2034 2713 
Q 2441 2713 2670 2916 
Q 2900 3119 2900 3481 
Q 2900 3844 2670 4047 
Q 2441 4250 2034 4250 
Q 1625 4250 1398 4047 
Q 1172 3844 1172 3481 
z
" transform="scale(0.015625)"/>
       </defs>
       <use xlink:href="#DejaVuSans-38"/>
       <use xlink:href="#DejaVuSans-30" x="63.623047"/>
      </g>
     </g>
    </g>
    <g id="ytick_3">
     <g id="line2d_10">
      <g>
       <use xlink:href="#mf66d3d6b3d" x="57.6" y="91.306818" style="stroke: #000000; stroke-width: 0.8"/>
      </g>
     </g>
     <g id="text_10">
      <!-- 90 -->
      <g transform="translate(37.875 95.106036)scale(0.1 -0.1)">
       <defs>
        <path id="DejaVuSans-39" d="M 703 97 
L 703 672 
Q 941 559 1184 500 
Q 1428 441 1663 441 
Q 2288 441 2617 861 
Q 2947 1281 2994 2138 
Q 2813 1869 2534 1725 
Q 2256 1581 1919 1581 
Q 1219 1581 811 2004 
Q 403 2428 403 3163 
Q 403 3881 828 4315 
Q 1253 4750 1959 4750 
Q 2769 4750 3195 4129 
Q 3622 3509 3622 2328 
Q 3622 1225 3098 567 
Q 2575 -91 1691 -91 
Q 1453 -91 1209 -44 
Q 966 3 703 97 
z
M 1959 2075 
Q 2384 2075 2632 2365 
Q 2881 2656 2881 3163 
Q 2881 3666 2632 3958 
Q 2384 4250 1959 4250 
Q 1534 4250 1286 3958 
Q 1038 3666 1038 3163 
Q 1038 2656 1286 2365 
Q 1534 2075 1959 2075 
z
" transform="scale(0.015625)"/>
       </defs>
       <use xlink:href="#DejaVuSans-39"/>
       <use xlink:href="#DejaVuSans-30" x="63.623047"/>
      </g>
     </g>
    </g>
    <g id="ytick_4">
     <g id="line2d_11">
      <g>
       <use xlink:href="#mf66d3d6b3d" x="57.6" y="64.968222" style="stroke: #000000; stroke-width: 0.8"/>
      </g>
     </g>
     <g id="text_11">
      <!-- 100 -->
      <g transform="translate(31.5125 68.767441)scale(0.1 -0.1)">
       <use xlink:href="#DejaVuSans-31"/>
       <use xlink:href="#DejaVuSans-30" x="63.623047"/>
       <use xlink:href="#DejaVuSans-30" x="127.246094"/>
      </g>
     </g>
    </g>
   </g>
   <g id="line2d_12">
    <path d="M 73.832727 64.309757 
L 73.8432 64.309757 
L 73.974111 58.82255 
L 74.230697 58.82255 
L 74.345899 58.295778 
L 74.832889 58.295778 
L 74.948091 57.637313 
L 75.293696 57.637313 
L 75.408898 56.320383 
L 75.853996 56.320383 
L 75.969198 55.003453 
L 78.838772 55.003453 
L 78.953974 53.686524 
L 398.487273 53.686524 
L 398.487273 53.686524 
" clip-path="url(#p75ccdcfa7a)" style="fill: none; stroke: #1f77b4; stroke-width: 1.5; stroke-linecap: square"/>
   </g>
   <g id="line2d_13">
    <path d="M 73.832727 67.602082 
L 73.984584 60.13948 
L 77.613443 60.13948 
L 77.728645 57.50562 
L 77.796718 57.50562 
L 77.91192 54.87176 
L 157.61066 54.87176 
L 157.725862 52.237901 
L 160.600672 52.237901 
L 160.715874 49.604041 
L 374.352483 49.604041 
L 374.467685 46.970182 
L 398.487273 46.970182 
L 398.487273 46.970182 
" clip-path="url(#p75ccdcfa7a)" style="fill: none; stroke: #ff7f0e; stroke-width: 1.5; stroke-linecap: square"/>
   </g>
   <g id="line2d_14">
    <path d="M 73.832727 64.309757 
L 73.8432 64.309757 
L 73.906038 67.163105 
L 73.953166 64.968222 
L 74.199279 64.968222 
L 74.31448 62.334363 
L 74.502993 62.334363 
L 74.618194 59.700503 
L 74.832889 59.700503 
L 74.948091 59.042038 
L 75.293696 59.042038 
L 75.408898 61.675898 
L 76.995542 61.675898 
L 77.110744 59.042038 
L 81.095681 59.042038 
L 81.210883 56.408179 
L 91.071114 56.408179 
L 91.186316 53.774319 
L 398.487273 53.774319 
L 398.487273 53.774319 
" clip-path="url(#p75ccdcfa7a)" style="fill: none; stroke: #2ca02c; stroke-width: 1.5; stroke-linecap: square"/>
   </g>
   <g id="line2d_15">
    <path d="M 73.832727 67.602082 
L 73.853673 67.602082 
L 73.942693 74.186731 
L 73.974111 72.650312 
L 74.021239 72.650312 
L 74.146914 70.45543 
L 74.199279 70.45543 
L 74.230697 73.089289 
L 74.31448 72.562517 
L 74.502993 72.562517 
L 74.618194 75.196377 
L 74.722923 75.196377 
L 74.848598 72.123541 
L 75.000455 72.123541 
L 75.110421 74.7574 
L 75.225622 73.879447 
L 75.293696 73.879447 
L 75.387952 76.513306 
L 75.403662 75.635353 
L 75.764977 75.635353 
L 75.853996 74.318424 
L 75.859233 76.952283 
L 75.869706 76.952283 
L 76.026799 76.952283 
L 76.142001 76.293818 
L 76.403823 76.293818 
L 76.519025 74.976888 
L 76.995542 74.976888 
L 77.110744 77.610748 
L 77.126453 77.610748 
L 77.241655 76.732795 
L 77.252128 76.732795 
L 77.36733 75.415865 
L 77.477295 75.415865 
L 77.592497 74.098935 
L 77.613443 74.098935 
L 77.728645 76.732795 
L 77.796718 76.732795 
L 77.91192 79.366654 
L 78.838772 79.366654 
L 78.953974 82.000514 
L 79.053466 82.000514 
L 79.168668 80.683584 
L 79.655658 80.683584 
L 79.770859 79.805631 
L 80.556327 79.805631 
L 80.671528 79.147166 
L 81.095681 79.147166 
L 81.210883 81.781026 
L 81.556488 81.781026 
L 81.67169 80.903072 
L 83.598703 80.903072 
L 83.713905 80.025119 
L 89.217412 80.025119 
L 89.332614 78.708189 
L 91.060642 78.708189 
L 91.071114 77.39126 
L 91.076351 80.025119 
L 91.16537 80.025119 
L 95.108416 80.025119 
L 95.223618 78.708189 
L 101.63303 78.708189 
L 101.748232 77.39126 
L 149.16427 77.39126 
L 149.279471 76.513306 
L 152.871675 76.513306 
L 152.986877 75.196377 
L 157.61066 75.196377 
L 157.725862 77.830236 
L 160.600672 77.830236 
L 160.715874 80.464096 
L 164.5699 80.464096 
L 164.685102 79.147166 
L 168.025956 79.147166 
L 168.141157 81.781026 
L 236.801465 81.781026 
L 236.916667 80.464096 
L 308.582695 80.464096 
L 308.697897 79.586143 
L 363.198849 79.586143 
L 363.314051 78.269213 
L 374.352483 78.269213 
L 374.467685 80.903072 
L 389.239705 80.903072 
L 389.354907 79.586143 
L 398.487273 79.586143 
L 398.487273 79.586143 
" clip-path="url(#p75ccdcfa7a)" style="fill: none; stroke: #d62728; stroke-width: 1.5; stroke-linecap: square"/>
   </g>
   <g id="line2d_16">
    <path d="M 73.832727 64.309757 
L 73.921747 64.309757 
L 74.036949 62.992827 
L 74.230697 62.992827 
L 74.345899 65.626687 
L 75.000455 65.626687 
L 75.115657 68.260547 
L 75.293696 68.260547 
L 75.408898 70.894406 
L 398.487273 70.894406 
L 398.487273 70.894406 
" clip-path="url(#p75ccdcfa7a)" style="fill: none; stroke: #9467bd; stroke-width: 1.5; stroke-linecap: square"/>
   </g>
   <g id="line2d_17">
    <path d="M 73.832727 64.968222 
L 73.853673 64.968222 
L 73.968875 63.431804 
L 74.230697 63.431804 
L 74.345899 62.905032 
L 74.832889 62.905032 
L 74.948091 62.246567 
L 75.000455 62.246567 
L 75.115657 61.368614 
L 168.025956 61.368614 
L 168.141157 60.490661 
L 398.487273 60.490661 
L 398.487273 60.490661 
" clip-path="url(#p75ccdcfa7a)" style="fill: none; stroke: #8c564b; stroke-width: 1.5; stroke-linecap: square"/>
   </g>
   <g id="line2d_18">
    <path d="M 73.832727 67.602082 
L 73.942693 89.989888 
L 73.984584 89.331423 
L 74.021239 89.331423 
L 74.152151 86.697563 
L 74.199279 86.697563 
L 74.25688 89.331423 
L 74.309244 86.697563 
L 74.340663 86.697563 
L 74.424446 84.063704 
L 74.450628 86.697563 
L 74.759579 86.697563 
L 74.81718 85.380634 
L 74.838125 90.648353 
L 74.853835 90.648353 
L 74.921908 90.648353 
L 75.000455 89.331423 
L 75.005692 91.965283 
L 75.031874 90.648353 
L 75.230859 90.648353 
L 75.293696 89.331423 
L 75.298933 91.965283 
L 75.335588 91.965283 
L 75.482208 91.965283 
L 75.59741 90.648353 
L 75.733558 90.648353 
L 75.84876 89.331423 
L 75.853996 89.331423 
L 75.969198 91.965283 
L 76.01109 91.965283 
L 76.126292 89.989888 
L 76.215311 89.989888 
L 76.330513 88.672958 
L 76.403823 88.672958 
L 76.492843 91.306818 
L 76.513789 89.989888 
L 77.000778 89.989888 
L 77.121217 87.356028 
L 77.252128 87.356028 
L 77.36733 89.989888 
L 77.477295 89.989888 
L 77.592497 92.623747 
L 77.613443 92.623747 
L 77.69199 95.257607 
L 77.723408 93.940677 
L 77.796718 93.940677 
L 77.849083 96.574537 
L 77.906684 95.257607 
L 78.597895 95.257607 
L 78.713097 93.940677 
L 78.838772 93.940677 
L 78.953974 96.574537 
L 79.053466 96.574537 
L 79.168668 99.208396 
L 79.173904 99.208396 
L 79.289106 97.891467 
L 80.530144 97.891467 
L 80.645346 95.916072 
L 81.739764 95.916072 
L 81.854966 94.599142 
L 83.483501 94.599142 
L 83.598703 93.282212 
L 89.044609 93.282212 
L 89.159811 91.965283 
L 89.217412 91.965283 
L 89.332614 94.599142 
L 91.060642 94.599142 
L 91.175843 97.233002 
L 91.191553 97.233002 
L 91.306755 95.916072 
L 95.108416 95.916072 
L 95.223618 98.549931 
L 95.553514 98.549931 
L 95.668716 97.233002 
L 101.63303 97.233002 
L 101.748232 99.866861 
L 101.900089 99.866861 
L 102.015291 98.549931 
L 109.71287 98.549931 
L 109.828071 97.233002 
L 133.334487 97.233002 
L 133.449689 95.916072 
L 152.871675 95.916072 
L 152.986877 98.549931 
L 157.61066 98.549931 
L 157.725862 101.183791 
L 160.291722 101.183791 
L 160.406924 99.866861 
L 160.600672 99.866861 
L 160.715874 102.500721 
L 164.5699 102.500721 
L 164.685102 105.13458 
L 166.879173 105.13458 
L 166.994375 103.817651 
L 168.025956 103.817651 
L 168.141157 106.45151 
L 174.529624 106.45151 
L 174.644826 105.13458 
L 178.771147 105.13458 
L 178.886349 103.817651 
L 236.801465 103.817651 
L 236.916667 106.45151 
L 255.642205 106.45151 
L 255.757407 105.13458 
L 310.122211 105.13458 
L 310.237413 103.817651 
L 363.198849 103.817651 
L 363.314051 106.45151 
L 374.352483 106.45151 
L 374.467685 109.08537 
L 376.567501 109.08537 
L 376.682703 107.76844 
L 389.239705 107.76844 
L 389.354907 110.402299 
L 390.438852 110.402299 
L 390.554054 109.08537 
L 398.487273 109.08537 
L 398.487273 109.08537 
" clip-path="url(#p75ccdcfa7a)" style="fill: none; stroke: #e377c2; stroke-width: 1.5; stroke-linecap: square"/>
   </g>
   <g id="line2d_19">
    <path d="M 73.832727 64.968222 
L 73.958402 61.675898 
L 74.230697 61.675898 
L 74.345899 61.149126 
L 74.424446 61.149126 
L 74.539648 58.515266 
L 74.832889 58.515266 
L 74.948091 57.856801 
L 75.000455 57.856801 
L 75.115657 56.978848 
L 168.025956 56.978848 
L 168.141157 56.100895 
L 398.487273 56.100895 
L 398.487273 56.100895 
" clip-path="url(#p75ccdcfa7a)" style="fill: none; stroke: #7f7f7f; stroke-width: 1.5; stroke-linecap: square"/>
   </g>
   <g id="line2d_20">
    <path d="M 73.832727 67.602082 
L 73.942693 89.111935 
L 73.979348 87.575517 
L 74.021239 87.575517 
L 74.157387 84.063704 
L 74.199279 84.063704 
L 74.319717 89.331423 
L 74.340663 89.331423 
L 74.408737 86.697563 
L 74.450628 89.331423 
L 74.502993 89.331423 
L 74.618194 91.965283 
L 74.722923 91.965283 
L 74.81718 88.892446 
L 74.832889 91.526306 
L 74.921908 94.160165 
L 74.942854 92.843236 
L 75.000455 92.843236 
L 75.010928 95.477095 
L 75.110421 94.160165 
L 75.225622 93.282212 
L 75.230859 93.282212 
L 75.293696 91.965283 
L 75.298933 94.599142 
L 75.330351 94.599142 
L 75.445553 98.988908 
L 75.482208 98.988908 
L 75.59741 97.671978 
L 75.733558 97.671978 
L 75.764977 96.355048 
L 75.770213 98.988908 
L 75.838287 98.988908 
L 75.853996 98.988908 
L 75.969198 101.622768 
L 76.01109 101.622768 
L 76.073927 99.647373 
L 76.100109 104.915092 
L 76.105346 104.915092 
L 76.215311 104.915092 
L 76.330513 103.598162 
L 76.403823 103.598162 
L 76.492843 106.232022 
L 76.513789 104.915092 
L 76.707537 104.915092 
L 76.822739 107.548952 
L 76.995542 107.548952 
L 77.000778 110.182811 
L 77.105507 107.548952 
L 77.126453 107.548952 
L 77.241655 106.670998 
L 77.252128 106.670998 
L 77.372566 111.938717 
L 77.477295 111.938717 
L 77.592497 114.572577 
L 77.613443 114.572577 
L 77.69199 117.206437 
L 77.723408 115.889507 
L 77.796718 115.889507 
L 77.849083 118.523366 
L 77.906684 117.206437 
L 78.48793 117.206437 
L 78.597895 119.840296 
L 78.713097 118.523366 
L 78.838772 118.523366 
L 78.953974 121.157226 
L 79.053466 121.157226 
L 79.168668 123.791085 
L 79.173904 123.791085 
L 79.289106 122.474156 
L 79.655658 122.474156 
L 79.770859 121.596203 
L 80.530144 121.596203 
L 80.645346 119.620808 
L 80.807676 119.620808 
L 80.922878 122.254667 
L 81.095681 122.254667 
L 81.210883 124.888527 
L 81.467469 124.888527 
L 81.556488 127.522386 
L 81.577434 126.644433 
L 81.739764 126.644433 
L 81.854966 125.327504 
L 83.483501 125.327504 
L 83.598703 124.010574 
L 83.713905 123.132621 
L 85.394805 123.132621 
L 85.510007 125.76648 
L 88.342925 125.76648 
L 88.458127 128.40034 
L 89.044609 128.40034 
L 89.159811 127.08341 
L 89.217412 127.08341 
L 89.332614 129.717269 
L 91.060642 129.717269 
L 91.18108 134.984989 
L 91.191553 134.984989 
L 91.306755 133.668059 
L 95.108416 133.668059 
L 95.223618 136.301918 
L 95.553514 136.301918 
L 95.668716 134.984989 
L 101.63303 134.984989 
L 101.748232 137.618848 
L 101.900089 137.618848 
L 102.015291 136.301918 
L 109.71287 136.301918 
L 109.828071 134.984989 
L 125.652618 134.984989 
L 125.767819 137.618848 
L 133.334487 137.618848 
L 133.449689 136.301918 
L 134.05188 136.301918 
L 134.167082 138.935778 
L 149.16427 138.935778 
L 149.279471 138.057825 
L 152.871675 138.057825 
L 152.986877 140.691684 
L 157.61066 140.691684 
L 157.725862 143.325544 
L 160.291722 143.325544 
L 160.406924 142.008614 
L 160.600672 142.008614 
L 160.715874 144.642474 
L 164.5699 144.642474 
L 164.685102 147.276333 
L 166.879173 147.276333 
L 166.994375 145.959403 
L 168.025956 145.959403 
L 168.141157 148.593263 
L 174.529624 148.593263 
L 174.644826 147.276333 
L 178.771147 147.276333 
L 178.886349 145.959403 
L 236.801465 145.959403 
L 236.916667 148.593263 
L 255.642205 148.593263 
L 255.757407 147.276333 
L 264.025759 147.276333 
L 264.14096 149.910193 
L 308.582695 149.910193 
L 308.697897 149.03224 
L 310.122211 149.03224 
L 310.237413 147.71531 
L 319.097483 147.71531 
L 319.212685 150.349169 
L 363.198849 150.349169 
L 363.314051 152.983029 
L 374.352483 152.983029 
L 374.467685 155.616888 
L 376.567501 155.616888 
L 376.682703 154.299959 
L 389.239705 154.299959 
L 389.354907 156.933818 
L 390.438852 156.933818 
L 390.554054 155.616888 
L 398.487273 155.616888 
L 398.487273 155.616888 
" clip-path="url(#p75ccdcfa7a)" style="fill: none; stroke: #bcbd22; stroke-width: 1.5; stroke-linecap: square"/>
   </g>
   <g id="line2d_21">
    <path d="M 73.832727 67.602082 
L 73.848437 66.724128 
L 73.85891 71.991848 
L 73.906038 70.674918 
L 73.942693 81.210356 
L 74.031712 79.015473 
L 74.047422 78.13752 
L 74.052658 80.771379 
L 74.131205 80.771379 
L 74.251643 79.586143 
L 74.25688 79.586143 
L 74.382554 87.487721 
L 74.408737 87.487721 
L 74.502993 84.853862 
L 74.518702 87.487721 
L 74.722923 87.487721 
L 74.759579 85.731815 
L 74.764815 88.365674 
L 74.832889 87.048745 
L 74.921908 87.048745 
L 75.042347 92.316464 
L 75.110421 92.316464 
L 75.225622 91.438511 
L 75.230859 91.438511 
L 75.330351 96.70623 
L 75.346061 94.07237 
L 75.387952 94.07237 
L 75.482208 90.560557 
L 75.503154 93.194417 
L 75.733558 93.194417 
L 75.764977 95.828277 
L 75.843523 94.511347 
L 75.853996 94.511347 
L 75.969198 97.145206 
L 76.01109 97.145206 
L 76.026799 99.779066 
L 76.100109 93.852882 
L 76.110582 93.852882 
L 76.215311 93.852882 
L 76.330513 96.486741 
L 76.403823 96.486741 
L 76.492843 95.169812 
L 76.498079 97.803671 
L 76.508552 97.803671 
L 76.707537 97.803671 
L 76.822739 95.169812 
L 76.995542 95.169812 
L 77.121217 103.07139 
L 77.126453 103.07139 
L 77.241655 102.193437 
L 77.252128 102.193437 
L 77.377803 98.242648 
L 77.477295 98.242648 
L 77.592497 96.925718 
L 77.613443 96.925718 
L 77.733881 102.193437 
L 77.796718 102.193437 
L 77.917157 107.461156 
L 78.48793 107.461156 
L 78.597895 104.827297 
L 78.713097 107.461156 
L 78.838772 107.461156 
L 78.953974 110.095016 
L 79.053466 110.095016 
L 79.168668 108.778086 
L 79.173904 108.778086 
L 79.289106 111.411946 
L 79.655658 111.411946 
L 79.770859 110.533992 
L 80.530144 110.533992 
L 80.556327 113.167852 
L 80.64011 112.509387 
L 80.807676 112.509387 
L 80.922878 109.875527 
L 81.095681 109.875527 
L 81.210883 112.509387 
L 81.467469 112.509387 
L 81.58267 108.997574 
L 81.739764 108.997574 
L 81.854966 111.631434 
L 83.483501 111.631434 
L 83.598703 114.265293 
L 83.713905 113.38734 
L 85.394805 113.38734 
L 85.510007 110.753481 
L 88.342925 110.753481 
L 88.458127 108.119621 
L 89.044609 108.119621 
L 89.159811 110.753481 
L 89.217412 110.753481 
L 89.332614 109.436551 
L 91.060642 109.436551 
L 91.071114 108.119621 
L 91.076351 110.753481 
L 91.16537 110.753481 
L 91.191553 110.753481 
L 91.306755 113.38734 
L 95.108416 113.38734 
L 95.223618 112.07041 
L 95.553514 112.07041 
L 95.668716 114.70427 
L 101.63303 114.70427 
L 101.748232 113.38734 
L 101.900089 113.38734 
L 102.015291 116.0212 
L 109.71287 116.0212 
L 109.828071 118.655059 
L 125.652618 118.655059 
L 125.767819 116.0212 
L 133.334487 116.0212 
L 133.449689 118.655059 
L 134.05188 118.655059 
L 134.167082 116.0212 
L 149.16427 116.0212 
L 149.279471 115.143247 
L 152.871675 115.143247 
L 152.986877 113.826317 
L 157.61066 113.826317 
L 157.725862 116.460176 
L 160.291722 116.460176 
L 160.406924 119.094036 
L 160.600672 119.094036 
L 160.715874 121.727895 
L 164.5699 121.727895 
L 164.685102 120.410966 
L 166.879173 120.410966 
L 166.994375 123.044825 
L 174.529624 123.044825 
L 174.644826 125.678685 
L 178.771147 125.678685 
L 178.886349 128.312544 
L 236.801465 128.312544 
L 236.916667 126.995615 
L 255.642205 126.995615 
L 255.757407 129.629474 
L 264.025759 129.629474 
L 264.14096 126.995615 
L 308.582695 126.995615 
L 308.697897 126.117661 
L 310.122211 126.117661 
L 310.237413 128.751521 
L 319.097483 128.751521 
L 319.212685 126.117661 
L 363.198849 126.117661 
L 363.314051 124.800732 
L 374.352483 124.800732 
L 374.467685 127.434591 
L 376.567501 127.434591 
L 376.682703 130.068451 
L 389.239705 130.068451 
L 389.354907 128.751521 
L 390.438852 128.751521 
L 390.554054 131.385381 
L 398.487273 131.385381 
L 398.487273 131.385381 
" clip-path="url(#p75ccdcfa7a)" style="fill: none; stroke: #17becf; stroke-width: 1.5; stroke-linecap: square"/>
   </g>
   <g id="line2d_22">
    <path d="M 73.832727 64.968222 
L 73.853673 64.968222 
L 73.974111 70.235941 
L 74.230697 70.235941 
L 74.345899 72.869801 
L 74.832889 72.869801 
L 74.948091 75.50366 
L 75.000455 75.50366 
L 75.115657 78.13752 
L 168.025956 78.13752 
L 168.141157 80.771379 
L 398.487273 80.771379 
L 398.487273 80.771379 
" clip-path="url(#p75ccdcfa7a)" style="fill: none; stroke: #1f77b4; stroke-width: 1.5; stroke-linecap: square"/>
   </g>
   <g id="line2d_23">
    <path d="M 73.832727 64.309757 
L 73.968875 79.234961 
L 74.021239 79.234961 
L 74.146914 87.13654 
L 74.722923 87.13654 
L 74.843362 92.404259 
L 75.000455 92.404259 
L 75.110421 91.526306 
L 75.225622 94.160165 
L 75.293696 94.160165 
L 75.387952 92.843236 
L 75.393189 95.477095 
L 75.398425 95.477095 
L 75.853996 95.477095 
L 75.969198 94.160165 
L 76.026799 94.160165 
L 76.142001 96.794025 
L 77.126453 96.794025 
L 77.241655 99.427885 
L 78.838772 99.427885 
L 78.953974 98.110955 
L 79.655658 98.110955 
L 79.770859 100.744814 
L 80.556327 100.744814 
L 80.671528 103.378674 
L 81.556488 103.378674 
L 81.67169 106.012533 
L 83.598703 106.012533 
L 83.713905 108.646393 
L 149.16427 108.646393 
L 149.279471 111.280253 
L 168.025956 111.280253 
L 168.141157 110.402299 
L 308.582695 110.402299 
L 308.697897 113.036159 
L 398.487273 113.036159 
L 398.487273 113.036159 
" clip-path="url(#p75ccdcfa7a)" style="fill: none; stroke: #ff7f0e; stroke-width: 1.5; stroke-linecap: square"/>
   </g>
   <g id="patch_3">
    <path d="M 57.6 162.432 
L 57.6 41.472 
" style="fill: none; stroke: #000000; stroke-width: 0.8; stroke-linejoin: miter; stroke-linecap: square"/>
   </g>
   <g id="patch_4">
    <path d="M 414.72 162.432 
L 414.72 41.472 
" style="fill: none; stroke: #000000; stroke-width: 0.8; stroke-linejoin: miter; stroke-linecap: square"/>
   </g>
   <g id="patch_5">
    <path d="M 57.6 162.432 
L 414.72 162.432 
" style="fill: none; stroke: #000000; stroke-width: 0.8; stroke-linejoin: miter; stroke-linecap: square"/>
   </g>
   <g id="patch_6">
    <path d="M 57.6 41.472 
L 414.72 41.472 
" style="fill: none; stroke: #000000; stroke-width: 0.8; stroke-linejoin: miter; stroke-linecap: square"/>
   </g>
   <g id="text_12">
    <!-- WSP -->
    <g transform="translate(361.832136 53.686524)scale(0.08 -0.08)">
     <defs>
      <path id="DejaVuSans-57" d="M 213 4666 
L 850 4666 
L 1831 722 
L 2809 4666 
L 3519 4666 
L 4500 722 
L 5478 4666 
L 6119 4666 
L 4947 0 
L 4153 0 
L 3169 4050 
L 2175 0 
L 1381 0 
L 213 4666 
z
" transform="scale(0.015625)"/>
      <path id="DejaVuSans-53" d="M 3425 4513 
L 3425 3897 
Q 3066 4069 2747 4153 
Q 2428 4238 2131 4238 
Q 1616 4238 1336 4038 
Q 1056 3838 1056 3469 
Q 1056 3159 1242 3001 
Q 1428 2844 1947 2747 
L 2328 2669 
Q 3034 2534 3370 2195 
Q 3706 1856 3706 1288 
Q 3706 609 3251 259 
Q 2797 -91 1919 -91 
Q 1588 -91 1214 -16 
Q 841 59 441 206 
L 441 856 
Q 825 641 1194 531 
Q 1563 422 1919 422 
Q 2459 422 2753 634 
Q 3047 847 3047 1241 
Q 3047 1584 2836 1778 
Q 2625 1972 2144 2069 
L 1759 2144 
Q 1053 2284 737 2584 
Q 422 2884 422 3419 
Q 422 4038 858 4394 
Q 1294 4750 2059 4750 
Q 2388 4750 2728 4690 
Q 3069 4631 3425 4513 
z
" transform="scale(0.015625)"/>
      <path id="DejaVuSans-50" d="M 1259 4147 
L 1259 2394 
L 2053 2394 
Q 2494 2394 2734 2622 
Q 2975 2850 2975 3272 
Q 2975 3691 2734 3919 
Q 2494 4147 2053 4147 
L 1259 4147 
z
M 628 4666 
L 2053 4666 
Q 2838 4666 3239 4311 
Q 3641 3956 3641 3272 
Q 3641 2581 3239 2228 
Q 2838 1875 2053 1875 
L 1259 1875 
L 1259 0 
L 628 0 
L 628 4666 
z
" transform="scale(0.015625)"/>
     </defs>
     <use xlink:href="#DejaVuSans-57"/>
     <use xlink:href="#DejaVuSans-53" x="98.876953"/>
     <use xlink:href="#DejaVuSans-50" x="162.353516"/>
    </g>
   </g>
   <g id="text_13">
    <!-- Iambic -->
    <g transform="translate(361.832136 46.970182)scale(0.08 -0.08)">
     <defs>
      <path id="DejaVuSans-49" d="M 628 4666 
L 1259 4666 
L 1259 0 
L 628 0 
L 628 4666 
z
" transform="scale(0.015625)"/>
      <path id="DejaVuSans-61" d="M 2194 1759 
Q 1497 1759 1228 1600 
Q 959 1441 959 1056 
Q 959 750 1161 570 
Q 1363 391 1709 391 
Q 2188 391 2477 730 
Q 2766 1069 2766 1631 
L 2766 1759 
L 2194 1759 
z
M 3341 1997 
L 3341 0 
L 2766 0 
L 2766 531 
Q 2569 213 2275 61 
Q 1981 -91 1556 -91 
Q 1019 -91 701 211 
Q 384 513 384 1019 
Q 384 1609 779 1909 
Q 1175 2209 1959 2209 
L 2766 2209 
L 2766 2266 
Q 2766 2663 2505 2880 
Q 2244 3097 1772 3097 
Q 1472 3097 1187 3025 
Q 903 2953 641 2809 
L 641 3341 
Q 956 3463 1253 3523 
Q 1550 3584 1831 3584 
Q 2591 3584 2966 3190 
Q 3341 2797 3341 1997 
z
" transform="scale(0.015625)"/>
      <path id="DejaVuSans-6d" d="M 3328 2828 
Q 3544 3216 3844 3400 
Q 4144 3584 4550 3584 
Q 5097 3584 5394 3201 
Q 5691 2819 5691 2113 
L 5691 0 
L 5113 0 
L 5113 2094 
Q 5113 2597 4934 2840 
Q 4756 3084 4391 3084 
Q 3944 3084 3684 2787 
Q 3425 2491 3425 1978 
L 3425 0 
L 2847 0 
L 2847 2094 
Q 2847 2600 2669 2842 
Q 2491 3084 2119 3084 
Q 1678 3084 1418 2786 
Q 1159 2488 1159 1978 
L 1159 0 
L 581 0 
L 581 3500 
L 1159 3500 
L 1159 2956 
Q 1356 3278 1631 3431 
Q 1906 3584 2284 3584 
Q 2666 3584 2933 3390 
Q 3200 3197 3328 2828 
z
" transform="scale(0.015625)"/>
      <path id="DejaVuSans-62" d="M 3116 1747 
Q 3116 2381 2855 2742 
Q 2594 3103 2138 3103 
Q 1681 3103 1420 2742 
Q 1159 2381 1159 1747 
Q 1159 1113 1420 752 
Q 1681 391 2138 391 
Q 2594 391 2855 752 
Q 3116 1113 3116 1747 
z
M 1159 2969 
Q 1341 3281 1617 3432 
Q 1894 3584 2278 3584 
Q 2916 3584 3314 3078 
Q 3713 2572 3713 1747 
Q 3713 922 3314 415 
Q 2916 -91 2278 -91 
Q 1894 -91 1617 61 
Q 1341 213 1159 525 
L 1159 0 
L 581 0 
L 581 4863 
L 1159 4863 
L 1159 2969 
z
" transform="scale(0.015625)"/>
      <path id="DejaVuSans-69" d="M 603 3500 
L 1178 3500 
L 1178 0 
L 603 0 
L 603 3500 
z
M 603 4863 
L 1178 4863 
L 1178 4134 
L 603 4134 
L 603 4863 
z
" transform="scale(0.015625)"/>
      <path id="DejaVuSans-63" d="M 3122 3366 
L 3122 2828 
Q 2878 2963 2633 3030 
Q 2388 3097 2138 3097 
Q 1578 3097 1268 2742 
Q 959 2388 959 1747 
Q 959 1106 1268 751 
Q 1578 397 2138 397 
Q 2388 397 2633 464 
Q 2878 531 3122 666 
L 3122 134 
Q 2881 22 2623 -34 
Q 2366 -91 2075 -91 
Q 1284 -91 818 406 
Q 353 903 353 1747 
Q 353 2603 823 3093 
Q 1294 3584 2113 3584 
Q 2378 3584 2631 3529 
Q 2884 3475 3122 3366 
z
" transform="scale(0.015625)"/>
     </defs>
     <use xlink:href="#DejaVuSans-49"/>
     <use xlink:href="#DejaVuSans-61" x="29.492188"/>
     <use xlink:href="#DejaVuSans-6d" x="90.771484"/>
     <use xlink:href="#DejaVuSans-62" x="188.183594"/>
     <use xlink:href="#DejaVuSans-69" x="251.660156"/>
     <use xlink:href="#DejaVuSans-63" x="279.443359"/>
    </g>
   </g>
   <g id="text_14">
    <!-- Parse -->
    <g transform="translate(361.832136 53.774319)scale(0.08 -0.08)">
     <defs>
      <path id="DejaVuSans-72" d="M 2631 2963 
Q 2534 3019 2420 3045 
Q 2306 3072 2169 3072 
Q 1681 3072 1420 2755 
Q 1159 2438 1159 1844 
L 1159 0 
L 581 0 
L 581 3500 
L 1159 3500 
L 1159 2956 
Q 1341 3275 1631 3429 
Q 1922 3584 2338 3584 
Q 2397 3584 2469 3576 
Q 2541 3569 2628 3553 
L 2631 2963 
z
" transform="scale(0.015625)"/>
      <path id="DejaVuSans-73" d="M 2834 3397 
L 2834 2853 
Q 2591 2978 2328 3040 
Q 2066 3103 1784 3103 
Q 1356 3103 1142 2972 
Q 928 2841 928 2578 
Q 928 2378 1081 2264 
Q 1234 2150 1697 2047 
L 1894 2003 
Q 2506 1872 2764 1633 
Q 3022 1394 3022 966 
Q 3022 478 2636 193 
Q 2250 -91 1575 -91 
Q 1294 -91 989 -36 
Q 684 19 347 128 
L 347 722 
Q 666 556 975 473 
Q 1284 391 1588 391 
Q 1994 391 2212 530 
Q 2431 669 2431 922 
Q 2431 1156 2273 1281 
Q 2116 1406 1581 1522 
L 1381 1569 
Q 847 1681 609 1914 
Q 372 2147 372 2553 
Q 372 3047 722 3315 
Q 1072 3584 1716 3584 
Q 2034 3584 2315 3537 
Q 2597 3491 2834 3397 
z
" transform="scale(0.015625)"/>
      <path id="DejaVuSans-65" d="M 3597 1894 
L 3597 1613 
L 953 1613 
Q 991 1019 1311 708 
Q 1631 397 2203 397 
Q 2534 397 2845 478 
Q 3156 559 3463 722 
L 3463 178 
Q 3153 47 2828 -22 
Q 2503 -91 2169 -91 
Q 1331 -91 842 396 
Q 353 884 353 1716 
Q 353 2575 817 3079 
Q 1281 3584 2069 3584 
Q 2775 3584 3186 3129 
Q 3597 2675 3597 1894 
z
M 3022 2063 
Q 3016 2534 2758 2815 
Q 2500 3097 2075 3097 
Q 1594 3097 1305 2825 
Q 1016 2553 972 2059 
L 3022 2063 
z
" transform="scale(0.015625)"/>
     </defs>
     <use xlink:href="#DejaVuSans-50"/>
     <use xlink:href="#DejaVuSans-61" x="55.802734"/>
     <use xlink:href="#DejaVuSans-72" x="117.082031"/>
     <use xlink:href="#DejaVuSans-73" x="158.195312"/>
     <use xlink:href="#DejaVuSans-65" x="210.294922"/>
    </g>
   </g>
   <g id="text_15">
    <!-- FootBin -->
    <g transform="translate(361.832136 79.586143)scale(0.08 -0.08)">
     <defs>
      <path id="DejaVuSans-46" d="M 628 4666 
L 3309 4666 
L 3309 4134 
L 1259 4134 
L 1259 2759 
L 3109 2759 
L 3109 2228 
L 1259 2228 
L 1259 0 
L 628 0 
L 628 4666 
z
" transform="scale(0.015625)"/>
      <path id="DejaVuSans-6f" d="M 1959 3097 
Q 1497 3097 1228 2736 
Q 959 2375 959 1747 
Q 959 1119 1226 758 
Q 1494 397 1959 397 
Q 2419 397 2687 759 
Q 2956 1122 2956 1747 
Q 2956 2369 2687 2733 
Q 2419 3097 1959 3097 
z
M 1959 3584 
Q 2709 3584 3137 3096 
Q 3566 2609 3566 1747 
Q 3566 888 3137 398 
Q 2709 -91 1959 -91 
Q 1206 -91 779 398 
Q 353 888 353 1747 
Q 353 2609 779 3096 
Q 1206 3584 1959 3584 
z
" transform="scale(0.015625)"/>
      <path id="DejaVuSans-74" d="M 1172 4494 
L 1172 3500 
L 2356 3500 
L 2356 3053 
L 1172 3053 
L 1172 1153 
Q 1172 725 1289 603 
Q 1406 481 1766 481 
L 2356 481 
L 2356 0 
L 1766 0 
Q 1100 0 847 248 
Q 594 497 594 1153 
L 594 3053 
L 172 3053 
L 172 3500 
L 594 3500 
L 594 4494 
L 1172 4494 
z
" transform="scale(0.015625)"/>
      <path id="DejaVuSans-42" d="M 1259 2228 
L 1259 519 
L 2272 519 
Q 2781 519 3026 730 
Q 3272 941 3272 1375 
Q 3272 1813 3026 2020 
Q 2781 2228 2272 2228 
L 1259 2228 
z
M 1259 4147 
L 1259 2741 
L 2194 2741 
Q 2656 2741 2882 2914 
Q 3109 3088 3109 3444 
Q 3109 3797 2882 3972 
Q 2656 4147 2194 4147 
L 1259 4147 
z
M 628 4666 
L 2241 4666 
Q 2963 4666 3353 4366 
Q 3744 4066 3744 3513 
Q 3744 3084 3544 2831 
Q 3344 2578 2956 2516 
Q 3422 2416 3680 2098 
Q 3938 1781 3938 1306 
Q 3938 681 3513 340 
Q 3088 0 2303 0 
L 628 0 
L 628 4666 
z
" transform="scale(0.015625)"/>
      <path id="DejaVuSans-6e" d="M 3513 2113 
L 3513 0 
L 2938 0 
L 2938 2094 
Q 2938 2591 2744 2837 
Q 2550 3084 2163 3084 
Q 1697 3084 1428 2787 
Q 1159 2491 1159 1978 
L 1159 0 
L 581 0 
L 581 3500 
L 1159 3500 
L 1159 2956 
Q 1366 3272 1645 3428 
Q 1925 3584 2291 3584 
Q 2894 3584 3203 3211 
Q 3513 2838 3513 2113 
z
" transform="scale(0.015625)"/>
     </defs>
     <use xlink:href="#DejaVuSans-46"/>
     <use xlink:href="#DejaVuSans-6f" x="53.894531"/>
     <use xlink:href="#DejaVuSans-6f" x="115.076172"/>
     <use xlink:href="#DejaVuSans-74" x="176.257812"/>
     <use xlink:href="#DejaVuSans-42" x="215.466797"/>
     <use xlink:href="#DejaVuSans-69" x="284.070312"/>
     <use xlink:href="#DejaVuSans-6e" x="311.853516"/>
    </g>
   </g>
   <g id="text_16">
    <!-- WFL -->
    <g transform="translate(361.832136 70.894406)scale(0.08 -0.08)">
     <defs>
      <path id="DejaVuSans-4c" d="M 628 4666 
L 1259 4666 
L 1259 531 
L 3531 531 
L 3531 0 
L 628 0 
L 628 4666 
z
" transform="scale(0.015625)"/>
     </defs>
     <use xlink:href="#DejaVuSans-57"/>
     <use xlink:href="#DejaVuSans-46" x="98.876953"/>
     <use xlink:href="#DejaVuSans-4c" x="156.396484"/>
    </g>
   </g>
   <g id="text_17">
    <!-- WFR -->
    <g transform="translate(361.832136 60.490661)scale(0.08 -0.08)">
     <defs>
      <path id="DejaVuSans-52" d="M 2841 2188 
Q 3044 2119 3236 1894 
Q 3428 1669 3622 1275 
L 4263 0 
L 3584 0 
L 2988 1197 
Q 2756 1666 2539 1819 
Q 2322 1972 1947 1972 
L 1259 1972 
L 1259 0 
L 628 0 
L 628 4666 
L 2053 4666 
Q 2853 4666 3247 4331 
Q 3641 3997 3641 3322 
Q 3641 2881 3436 2590 
Q 3231 2300 2841 2188 
z
M 1259 4147 
L 1259 2491 
L 2053 2491 
Q 2509 2491 2742 2702 
Q 2975 2913 2975 3322 
Q 2975 3731 2742 3939 
Q 2509 4147 2053 4147 
L 1259 4147 
z
" transform="scale(0.015625)"/>
     </defs>
     <use xlink:href="#DejaVuSans-57"/>
     <use xlink:href="#DejaVuSans-46" x="98.876953"/>
     <use xlink:href="#DejaVuSans-52" x="156.396484"/>
    </g>
   </g>
   <g id="text_18">
    <!-- Main-L -->
    <g transform="translate(361.832136 109.08537)scale(0.08 -0.08)">
     <defs>
      <path id="DejaVuSans-4d" d="M 628 4666 
L 1569 4666 
L 2759 1491 
L 3956 4666 
L 4897 4666 
L 4897 0 
L 4281 0 
L 4281 4097 
L 3078 897 
L 2444 897 
L 1241 4097 
L 1241 0 
L 628 0 
L 628 4666 
z
" transform="scale(0.015625)"/>
      <path id="DejaVuSans-2d" d="M 313 2009 
L 1997 2009 
L 1997 1497 
L 313 1497 
L 313 2009 
z
" transform="scale(0.015625)"/>
     </defs>
     <use xlink:href="#DejaVuSans-4d"/>
     <use xlink:href="#DejaVuSans-61" x="86.279297"/>
     <use xlink:href="#DejaVuSans-69" x="147.558594"/>
     <use xlink:href="#DejaVuSans-6e" x="175.341797"/>
     <use xlink:href="#DejaVuSans-2d" x="238.720703"/>
     <use xlink:href="#DejaVuSans-4c" x="274.804688"/>
    </g>
   </g>
   <g id="text_19">
    <!-- Main-R -->
    <g transform="translate(361.832136 56.100895)scale(0.08 -0.08)">
     <use xlink:href="#DejaVuSans-4d"/>
     <use xlink:href="#DejaVuSans-61" x="86.279297"/>
     <use xlink:href="#DejaVuSans-69" x="147.558594"/>
     <use xlink:href="#DejaVuSans-6e" x="175.341797"/>
     <use xlink:href="#DejaVuSans-2d" x="238.720703"/>
     <use xlink:href="#DejaVuSans-52" x="274.804688"/>
    </g>
   </g>
   <g id="text_20">
    <!-- AFL -->
    <g transform="translate(361.832136 155.616888)scale(0.08 -0.08)">
     <defs>
      <path id="DejaVuSans-41" d="M 2188 4044 
L 1331 1722 
L 3047 1722 
L 2188 4044 
z
M 1831 4666 
L 2547 4666 
L 4325 0 
L 3669 0 
L 3244 1197 
L 1141 1197 
L 716 0 
L 50 0 
L 1831 4666 
z
" transform="scale(0.015625)"/>
     </defs>
     <use xlink:href="#DejaVuSans-41"/>
     <use xlink:href="#DejaVuSans-46" x="68.408203"/>
     <use xlink:href="#DejaVuSans-4c" x="125.927734"/>
    </g>
   </g>
   <g id="text_21">
    <!-- AFR -->
    <g transform="translate(361.832136 131.385381)scale(0.08 -0.08)">
     <use xlink:href="#DejaVuSans-41"/>
     <use xlink:href="#DejaVuSans-46" x="68.408203"/>
     <use xlink:href="#DejaVuSans-52" x="125.927734"/>
    </g>
   </g>
   <g id="text_22">
    <!-- Nonfinal -->
    <g transform="translate(361.832136 80.771379)scale(0.08 -0.08)">
     <defs>
      <path id="DejaVuSans-4e" d="M 628 4666 
L 1478 4666 
L 3547 763 
L 3547 4666 
L 4159 4666 
L 4159 0 
L 3309 0 
L 1241 3903 
L 1241 0 
L 628 0 
L 628 4666 
z
" transform="scale(0.015625)"/>
      <path id="DejaVuSans-66" d="M 2375 4863 
L 2375 4384 
L 1825 4384 
Q 1516 4384 1395 4259 
Q 1275 4134 1275 3809 
L 1275 3500 
L 2222 3500 
L 2222 3053 
L 1275 3053 
L 1275 0 
L 697 0 
L 697 3053 
L 147 3053 
L 147 3500 
L 697 3500 
L 697 3744 
Q 697 4328 969 4595 
Q 1241 4863 1831 4863 
L 2375 4863 
z
" transform="scale(0.015625)"/>
      <path id="DejaVuSans-6c" d="M 603 4863 
L 1178 4863 
L 1178 0 
L 603 0 
L 603 4863 
z
" transform="scale(0.015625)"/>
     </defs>
     <use xlink:href="#DejaVuSans-4e"/>
     <use xlink:href="#DejaVuSans-6f" x="74.804688"/>
     <use xlink:href="#DejaVuSans-6e" x="135.986328"/>
     <use xlink:href="#DejaVuSans-66" x="199.365234"/>
     <use xlink:href="#DejaVuSans-69" x="234.570312"/>
     <use xlink:href="#DejaVuSans-6e" x="262.353516"/>
     <use xlink:href="#DejaVuSans-61" x="325.732422"/>
     <use xlink:href="#DejaVuSans-6c" x="387.011719"/>
    </g>
   </g>
   <g id="text_23">
    <!-- Trochaic -->
    <g transform="translate(361.832136 113.036159)scale(0.08 -0.08)">
     <defs>
      <path id="DejaVuSans-54" d="M -19 4666 
L 3928 4666 
L 3928 4134 
L 2272 4134 
L 2272 0 
L 1638 0 
L 1638 4134 
L -19 4134 
L -19 4666 
z
" transform="scale(0.015625)"/>
      <path id="DejaVuSans-68" d="M 3513 2113 
L 3513 0 
L 2938 0 
L 2938 2094 
Q 2938 2591 2744 2837 
Q 2550 3084 2163 3084 
Q 1697 3084 1428 2787 
Q 1159 2491 1159 1978 
L 1159 0 
L 581 0 
L 581 4863 
L 1159 4863 
L 1159 2956 
Q 1366 3272 1645 3428 
Q 1925 3584 2291 3584 
Q 2894 3584 3203 3211 
Q 3513 2838 3513 2113 
z
" transform="scale(0.015625)"/>
     </defs>
     <use xlink:href="#DejaVuSans-54"/>
     <use xlink:href="#DejaVuSans-72" x="46.333984"/>
     <use xlink:href="#DejaVuSans-6f" x="85.197266"/>
     <use xlink:href="#DejaVuSans-63" x="146.378906"/>
     <use xlink:href="#DejaVuSans-68" x="201.359375"/>
     <use xlink:href="#DejaVuSans-61" x="264.738281"/>
     <use xlink:href="#DejaVuSans-69" x="326.017578"/>
     <use xlink:href="#DejaVuSans-63" x="353.800781"/>
    </g>
   </g>
  </g>
  <g id="axes_2">
   <g id="patch_7">
    <path d="M 57.6 307.584 
L 414.72 307.584 
L 414.72 186.624 
L 57.6 186.624 
z
" style="fill: #ffffff"/>
   </g>
   <g id="matplotlib.axis_3">
    <g id="xtick_8">
     <g id="line2d_24">
      <g>
       <use xlink:href="#m71a94f811d" x="71.033981" y="307.584" style="stroke: #000000; stroke-width: 0.8"/>
      </g>
     </g>
     <g id="text_24">
      <!-- 0 -->
      <g transform="translate(67.852731 322.182437)scale(0.1 -0.1)">
       <use xlink:href="#DejaVuSans-30"/>
      </g>
     </g>
    </g>
    <g id="xtick_9">
     <g id="line2d_25">
      <g>
       <use xlink:href="#m71a94f811d" x="127.008903" y="307.584" style="stroke: #000000; stroke-width: 0.8"/>
      </g>
     </g>
     <g id="text_25">
      <!-- 20 -->
      <g transform="translate(120.646403 322.182437)scale(0.1 -0.1)">
       <use xlink:href="#DejaVuSans-32"/>
       <use xlink:href="#DejaVuSans-30" x="63.623047"/>
      </g>
     </g>
    </g>
    <g id="xtick_10">
     <g id="line2d_26">
      <g>
       <use xlink:href="#m71a94f811d" x="182.983824" y="307.584" style="stroke: #000000; stroke-width: 0.8"/>
      </g>
     </g>
     <g id="text_26">
      <!-- 40 -->
      <g transform="translate(176.621324 322.182437)scale(0.1 -0.1)">
       <use xlink:href="#DejaVuSans-34"/>
       <use xlink:href="#DejaVuSans-30" x="63.623047"/>
      </g>
     </g>
    </g>
    <g id="xtick_11">
     <g id="line2d_27">
      <g>
       <use xlink:href="#m71a94f811d" x="238.958746" y="307.584" style="stroke: #000000; stroke-width: 0.8"/>
      </g>
     </g>
     <g id="text_27">
      <!-- 60 -->
      <g transform="translate(232.596246 322.182437)scale(0.1 -0.1)">
       <use xlink:href="#DejaVuSans-36"/>
       <use xlink:href="#DejaVuSans-30" x="63.623047"/>
      </g>
     </g>
    </g>
    <g id="xtick_12">
     <g id="line2d_28">
      <g>
       <use xlink:href="#m71a94f811d" x="294.933668" y="307.584" style="stroke: #000000; stroke-width: 0.8"/>
      </g>
     </g>
     <g id="text_28">
      <!-- 80 -->
      <g transform="translate(288.571168 322.182437)scale(0.1 -0.1)">
       <use xlink:href="#DejaVuSans-38"/>
       <use xlink:href="#DejaVuSans-30" x="63.623047"/>
      </g>
     </g>
    </g>
    <g id="xtick_13">
     <g id="line2d_29">
      <g>
       <use xlink:href="#m71a94f811d" x="350.908589" y="307.584" style="stroke: #000000; stroke-width: 0.8"/>
      </g>
     </g>
     <g id="text_29">
      <!-- 100 -->
      <g transform="translate(341.364839 322.182437)scale(0.1 -0.1)">
       <use xlink:href="#DejaVuSans-31"/>
       <use xlink:href="#DejaVuSans-30" x="63.623047"/>
       <use xlink:href="#DejaVuSans-30" x="127.246094"/>
      </g>
     </g>
    </g>
    <g id="xtick_14">
     <g id="line2d_30">
      <g>
       <use xlink:href="#m71a94f811d" x="406.883511" y="307.584" style="stroke: #000000; stroke-width: 0.8"/>
      </g>
     </g>
     <g id="text_30">
      <!-- 120 -->
      <g transform="translate(397.339761 322.182437)scale(0.1 -0.1)">
       <use xlink:href="#DejaVuSans-31"/>
       <use xlink:href="#DejaVuSans-32" x="63.623047"/>
       <use xlink:href="#DejaVuSans-30" x="127.246094"/>
      </g>
     </g>
    </g>
   </g>
   <g id="matplotlib.axis_4">
    <g id="ytick_5">
     <g id="line2d_31">
      <g>
       <use xlink:href="#mf66d3d6b3d" x="57.6" y="302.095742" style="stroke: #000000; stroke-width: 0.8"/>
      </g>
     </g>
     <g id="text_31">
      <!-- 0 -->
      <g transform="translate(44.2375 305.894961)scale(0.1 -0.1)">
       <use xlink:href="#DejaVuSans-30"/>
      </g>
     </g>
    </g>
    <g id="ytick_6">
     <g id="line2d_32">
      <g>
       <use xlink:href="#mf66d3d6b3d" x="57.6" y="277.286691" style="stroke: #000000; stroke-width: 0.8"/>
      </g>
     </g>
     <g id="text_32">
      <!-- 2500 -->
      <g transform="translate(25.15 281.08591)scale(0.1 -0.1)">
       <use xlink:href="#DejaVuSans-32"/>
       <use xlink:href="#DejaVuSans-35" x="63.623047"/>
       <use xlink:href="#DejaVuSans-30" x="127.246094"/>
       <use xlink:href="#DejaVuSans-30" x="190.869141"/>
      </g>
     </g>
    </g>
    <g id="ytick_7">
     <g id="line2d_33">
      <g>
       <use xlink:href="#mf66d3d6b3d" x="57.6" y="252.47764" style="stroke: #000000; stroke-width: 0.8"/>
      </g>
     </g>
     <g id="text_33">
      <!-- 5000 -->
      <g transform="translate(25.15 256.276859)scale(0.1 -0.1)">
       <use xlink:href="#DejaVuSans-35"/>
       <use xlink:href="#DejaVuSans-30" x="63.623047"/>
       <use xlink:href="#DejaVuSans-30" x="127.246094"/>
       <use xlink:href="#DejaVuSans-30" x="190.869141"/>
      </g>
     </g>
    </g>
    <g id="ytick_8">
     <g id="line2d_34">
      <g>
       <use xlink:href="#mf66d3d6b3d" x="57.6" y="227.66859" style="stroke: #000000; stroke-width: 0.8"/>
      </g>
     </g>
     <g id="text_34">
      <!-- 7500 -->
      <g transform="translate(25.15 231.467808)scale(0.1 -0.1)">
       <use xlink:href="#DejaVuSans-37"/>
       <use xlink:href="#DejaVuSans-35" x="63.623047"/>
       <use xlink:href="#DejaVuSans-30" x="127.246094"/>
       <use xlink:href="#DejaVuSans-30" x="190.869141"/>
      </g>
     </g>
    </g>
    <g id="ytick_9">
     <g id="line2d_35">
      <g>
       <use xlink:href="#mf66d3d6b3d" x="57.6" y="202.859539" style="stroke: #000000; stroke-width: 0.8"/>
      </g>
     </g>
     <g id="text_35">
      <!-- 10000 -->
      <g transform="translate(18.7875 206.658758)scale(0.1 -0.1)">
       <use xlink:href="#DejaVuSans-31"/>
       <use xlink:href="#DejaVuSans-30" x="63.623047"/>
       <use xlink:href="#DejaVuSans-30" x="127.246094"/>
       <use xlink:href="#DejaVuSans-30" x="190.869141"/>
       <use xlink:href="#DejaVuSans-30" x="254.492188"/>
      </g>
     </g>
    </g>
   </g>
   <g id="line2d_36">
    <path d="M 73.832727 302.085818 
L 76.631473 302.075895 
L 79.430219 302.085818 
L 82.228966 302.085818 
L 85.027712 302.085818 
L 87.826458 302.085818 
L 90.625204 302.085818 
L 93.42395 302.085818 
L 96.222696 302.046124 
L 99.021442 302.085818 
L 101.820188 302.075895 
L 104.618934 302.085818 
L 107.41768 302.065971 
L 110.216426 302.085818 
L 113.015172 302.056047 
L 115.813918 301.986582 
L 118.612665 302.075895 
L 121.411411 302.065971 
L 124.210157 301.936964 
L 127.008903 301.966735 
L 129.807649 302.0362 
L 132.606395 302.046124 
L 135.405141 302.085818 
L 138.203887 302.056047 
L 141.002633 301.986582 
L 143.801379 302.075895 
L 146.600125 301.986582 
L 149.398871 302.065971 
L 152.197618 301.946887 
L 154.996364 301.67895 
L 157.79511 302.0362 
L 160.593856 302.085818 
L 163.392602 301.986582 
L 166.191348 302.065971 
L 168.990094 301.92704 
L 171.78884 301.946887 
L 174.587586 302.075895 
L 177.386332 301.907193 
L 180.185078 301.867499 
L 182.983824 301.976658 
L 185.782571 302.026276 
L 188.581317 301.986582 
L 191.380063 302.046124 
L 194.178809 301.966735 
L 196.977555 301.619408 
L 199.776301 302.0362 
L 202.575047 301.92704 
L 205.373793 301.798033 
L 208.172539 302.065971 
L 210.971285 302.006429 
L 213.770031 302.056047 
L 216.568777 301.867499 
L 219.367524 301.738491 
L 222.16627 301.92704 
L 224.965016 301.688873 
L 227.763762 301.549943 
L 230.562508 302.085818 
L 233.361254 301.956811 
L 236.16 301.996506 
L 238.958746 301.857575 
L 241.757492 301.92704 
L 244.556238 301.837728 
L 247.354984 301.837728 
L 250.15373 301.946887 
L 252.952476 301.897269 
L 255.751223 301.996506 
L 258.549969 300.88506 
L 261.348715 301.887346 
L 264.147461 301.639255 
L 266.946207 301.688873 
L 269.744953 301.867499 
L 272.543699 301.182769 
L 275.342445 300.438497 
L 278.141191 302.046124 
L 280.939937 301.619408 
L 283.738683 301.549943 
L 286.537429 301.391165 
L 289.336176 301.92704 
L 292.134922 301.748415 
L 294.933668 298.791176 
L 297.732414 301.877422 
L 300.53116 298.69194 
L 303.329906 296.508744 
L 306.128652 300.765977 
L 308.927398 301.768262 
L 311.726144 298.602627 
L 314.52489 302.075895 
L 317.323636 301.867499 
L 320.122382 294.672874 
L 322.921129 301.252234 
L 325.719875 290.574419 
L 328.518621 301.589637 
L 331.317367 287.2897 
L 334.116113 271.888242 
L 336.914859 287.537791 
L 339.713605 300.736206 
L 342.512351 273.456174 
L 345.311097 295.069819 
L 348.109843 293.114865 
L 350.908589 297.014848 
L 353.707335 301.510248 
L 356.506082 294.573638 
L 359.304828 297.719425 
L 362.103574 299.922469 
L 364.90232 289.770605 
L 367.701066 294.057609 
L 370.499812 192.122182 
L 373.298558 266.390556 
L 376.097304 286.208026 
L 378.89605 217.655657 
L 381.694796 299.178197 
L 384.493542 285.086657 
L 387.292288 218.519012 
L 390.091034 280.958431 
L 392.889781 297.89805 
L 395.688527 278.080581 
L 398.487273 299.823233 
" clip-path="url(#p884b3af54b)" style="fill: none; stroke: #1f77b4; stroke-width: 1.5; stroke-linecap: square"/>
   </g>
   <g id="patch_8">
    <path d="M 57.6 307.584 
L 57.6 186.624 
" style="fill: none; stroke: #000000; stroke-width: 0.8; stroke-linejoin: miter; stroke-linecap: square"/>
   </g>
   <g id="patch_9">
    <path d="M 414.72 307.584 
L 414.72 186.624 
" style="fill: none; stroke: #000000; stroke-width: 0.8; stroke-linejoin: miter; stroke-linecap: square"/>
   </g>
   <g id="patch_10">
    <path d="M 57.6 307.584 
L 414.72 307.584 
" style="fill: none; stroke: #000000; stroke-width: 0.8; stroke-linejoin: miter; stroke-linecap: square"/>
   </g>
   <g id="patch_11">
    <path d="M 57.6 186.624 
L 414.72 186.624 
" style="fill: none; stroke: #000000; stroke-width: 0.8; stroke-linejoin: miter; stroke-linecap: square"/>
   </g>
  </g>
 </g>
 <defs>
  <clipPath id="p75ccdcfa7a">
   <rect x="57.6" y="41.472" width="357.12" height="120.96"/>
  </clipPath>
  <clipPath id="p884b3af54b">
   <rect x="57.6" y="186.624" width="357.12" height="120.96"/>
  </clipPath>
 </defs>
</svg>
