<?xml version="1.0" encoding="utf-8" standalone="no"?>
<!DOCTYPE svg PUBLIC "-//W3C//DTD SVG 1.1//EN"
  "http://www.w3.org/Graphics/SVG/1.1/DTD/svg11.dtd">
<svg xmlns:xlink="http://www.w3.org/1999/xlink" width="460.8pt" height="345.6pt" viewBox="0 0 460.8 345.6" xmlns="http://www.w3.org/2000/svg" version="1.1">
 <metadata>
  <rdf:RDF xmlns:dc="http://purl.org/dc/elements/1.1/" xmlns:cc="http://creativecommons.org/ns#" xmlns:rdf="http://www.w3.org/1999/02/22-rdf-syntax-ns#">
   <cc:Work>
    <dc:type rdf:resource="http://purl.org/dc/dcmitype/StillImage"/>
    <dc:date>2022-05-14T06:21:07.535931</dc:date>
    <dc:format>image/svg+xml</dc:format>
    <dc:creator>
     <cc:Agent>
      <dc:title>Matplotlib v3.5.1, https://matplotlib.org/</dc:title>
     </cc:Agent>
    </dc:creator>
   </cc:Work>
  </rdf:RDF>
 </metadata>
 <defs>
  <style type="text/css">*{stroke-linejoin: round; stroke-linecap: butt}</style>
 </defs>
 <g id="figure_1">
  <g id="patch_1">
   <path d="M 0 345.6 
L 460.8 345.6 
L 460.8 0 
L 0 0 
z
" style="fill: #ffffff"/>
  </g>
  <g id="axes_1">
   <g id="patch_2">
    <path d="M 57.6 162.432 
L 414.72 162.432 
L 414.72 41.472 
L 57.6 41.472 
z
" style="fill: #ffffff"/>
   </g>
   <g id="matplotlib.axis_1">
    <g id="xtick_1">
     <g id="line2d_1">
      <defs>
       <path id="medd27ff9c6" d="M 0 0 
L 0 3.5 
" style="stroke: #000000; stroke-width: 0.8"/>
      </defs>
      <g>
       <use xlink:href="#medd27ff9c6" x="73.827491" y="162.432" style="stroke: #000000; stroke-width: 0.8"/>
      </g>
     </g>
     <g id="text_1">
      <!-- 0 -->
      <g transform="translate(70.646241 177.030437)scale(0.1 -0.1)">
       <defs>
        <path id="DejaVuSans-30" d="M 2034 4250 
Q 1547 4250 1301 3770 
Q 1056 3291 1056 2328 
Q 1056 1369 1301 889 
Q 1547 409 2034 409 
Q 2525 409 2770 889 
Q 3016 1369 3016 2328 
Q 3016 3291 2770 3770 
Q 2525 4250 2034 4250 
z
M 2034 4750 
Q 2819 4750 3233 4129 
Q 3647 3509 3647 2328 
Q 3647 1150 3233 529 
Q 2819 -91 2034 -91 
Q 1250 -91 836 529 
Q 422 1150 422 2328 
Q 422 3509 836 4129 
Q 1250 4750 2034 4750 
z
" transform="scale(0.015625)"/>
       </defs>
       <use xlink:href="#DejaVuSans-30"/>
      </g>
     </g>
    </g>
    <g id="xtick_2">
     <g id="line2d_2">
      <g>
       <use xlink:href="#medd27ff9c6" x="126.191972" y="162.432" style="stroke: #000000; stroke-width: 0.8"/>
      </g>
     </g>
     <g id="text_2">
      <!-- 10000 -->
      <g transform="translate(110.285722 177.030437)scale(0.1 -0.1)">
       <defs>
        <path id="DejaVuSans-31" d="M 794 531 
L 1825 531 
L 1825 4091 
L 703 3866 
L 703 4441 
L 1819 4666 
L 2450 4666 
L 2450 531 
L 3481 531 
L 3481 0 
L 794 0 
L 794 531 
z
" transform="scale(0.015625)"/>
       </defs>
       <use xlink:href="#DejaVuSans-31"/>
       <use xlink:href="#DejaVuSans-30" x="63.623047"/>
       <use xlink:href="#DejaVuSans-30" x="127.246094"/>
       <use xlink:href="#DejaVuSans-30" x="190.869141"/>
       <use xlink:href="#DejaVuSans-30" x="254.492188"/>
      </g>
     </g>
    </g>
    <g id="xtick_3">
     <g id="line2d_3">
      <g>
       <use xlink:href="#medd27ff9c6" x="178.556453" y="162.432" style="stroke: #000000; stroke-width: 0.8"/>
      </g>
     </g>
     <g id="text_3">
      <!-- 20000 -->
      <g transform="translate(162.650203 177.030437)scale(0.1 -0.1)">
       <defs>
        <path id="DejaVuSans-32" d="M 1228 531 
L 3431 531 
L 3431 0 
L 469 0 
L 469 531 
Q 828 903 1448 1529 
Q 2069 2156 2228 2338 
Q 2531 2678 2651 2914 
Q 2772 3150 2772 3378 
Q 2772 3750 2511 3984 
Q 2250 4219 1831 4219 
Q 1534 4219 1204 4116 
Q 875 4013 500 3803 
L 500 4441 
Q 881 4594 1212 4672 
Q 1544 4750 1819 4750 
Q 2544 4750 2975 4387 
Q 3406 4025 3406 3419 
Q 3406 3131 3298 2873 
Q 3191 2616 2906 2266 
Q 2828 2175 2409 1742 
Q 1991 1309 1228 531 
z
" transform="scale(0.015625)"/>
       </defs>
       <use xlink:href="#DejaVuSans-32"/>
       <use xlink:href="#DejaVuSans-30" x="63.623047"/>
       <use xlink:href="#DejaVuSans-30" x="127.246094"/>
       <use xlink:href="#DejaVuSans-30" x="190.869141"/>
       <use xlink:href="#DejaVuSans-30" x="254.492188"/>
      </g>
     </g>
    </g>
    <g id="xtick_4">
     <g id="line2d_4">
      <g>
       <use xlink:href="#medd27ff9c6" x="230.920934" y="162.432" style="stroke: #000000; stroke-width: 0.8"/>
      </g>
     </g>
     <g id="text_4">
      <!-- 30000 -->
      <g transform="translate(215.014684 177.030437)scale(0.1 -0.1)">
       <defs>
        <path id="DejaVuSans-33" d="M 2597 2516 
Q 3050 2419 3304 2112 
Q 3559 1806 3559 1356 
Q 3559 666 3084 287 
Q 2609 -91 1734 -91 
Q 1441 -91 1130 -33 
Q 819 25 488 141 
L 488 750 
Q 750 597 1062 519 
Q 1375 441 1716 441 
Q 2309 441 2620 675 
Q 2931 909 2931 1356 
Q 2931 1769 2642 2001 
Q 2353 2234 1838 2234 
L 1294 2234 
L 1294 2753 
L 1863 2753 
Q 2328 2753 2575 2939 
Q 2822 3125 2822 3475 
Q 2822 3834 2567 4026 
Q 2313 4219 1838 4219 
Q 1578 4219 1281 4162 
Q 984 4106 628 3988 
L 628 4550 
Q 988 4650 1302 4700 
Q 1616 4750 1894 4750 
Q 2613 4750 3031 4423 
Q 3450 4097 3450 3541 
Q 3450 3153 3228 2886 
Q 3006 2619 2597 2516 
z
" transform="scale(0.015625)"/>
       </defs>
       <use xlink:href="#DejaVuSans-33"/>
       <use xlink:href="#DejaVuSans-30" x="63.623047"/>
       <use xlink:href="#DejaVuSans-30" x="127.246094"/>
       <use xlink:href="#DejaVuSans-30" x="190.869141"/>
       <use xlink:href="#DejaVuSans-30" x="254.492188"/>
      </g>
     </g>
    </g>
    <g id="xtick_5">
     <g id="line2d_5">
      <g>
       <use xlink:href="#medd27ff9c6" x="283.285415" y="162.432" style="stroke: #000000; stroke-width: 0.8"/>
      </g>
     </g>
     <g id="text_5">
      <!-- 40000 -->
      <g transform="translate(267.379165 177.030437)scale(0.1 -0.1)">
       <defs>
        <path id="DejaVuSans-34" d="M 2419 4116 
L 825 1625 
L 2419 1625 
L 2419 4116 
z
M 2253 4666 
L 3047 4666 
L 3047 1625 
L 3713 1625 
L 3713 1100 
L 3047 1100 
L 3047 0 
L 2419 0 
L 2419 1100 
L 313 1100 
L 313 1709 
L 2253 4666 
z
" transform="scale(0.015625)"/>
       </defs>
       <use xlink:href="#DejaVuSans-34"/>
       <use xlink:href="#DejaVuSans-30" x="63.623047"/>
       <use xlink:href="#DejaVuSans-30" x="127.246094"/>
       <use xlink:href="#DejaVuSans-30" x="190.869141"/>
       <use xlink:href="#DejaVuSans-30" x="254.492188"/>
      </g>
     </g>
    </g>
    <g id="xtick_6">
     <g id="line2d_6">
      <g>
       <use xlink:href="#medd27ff9c6" x="335.649896" y="162.432" style="stroke: #000000; stroke-width: 0.8"/>
      </g>
     </g>
     <g id="text_6">
      <!-- 50000 -->
      <g transform="translate(319.743646 177.030437)scale(0.1 -0.1)">
       <defs>
        <path id="DejaVuSans-35" d="M 691 4666 
L 3169 4666 
L 3169 4134 
L 1269 4134 
L 1269 2991 
Q 1406 3038 1543 3061 
Q 1681 3084 1819 3084 
Q 2600 3084 3056 2656 
Q 3513 2228 3513 1497 
Q 3513 744 3044 326 
Q 2575 -91 1722 -91 
Q 1428 -91 1123 -41 
Q 819 9 494 109 
L 494 744 
Q 775 591 1075 516 
Q 1375 441 1709 441 
Q 2250 441 2565 725 
Q 2881 1009 2881 1497 
Q 2881 1984 2565 2268 
Q 2250 2553 1709 2553 
Q 1456 2553 1204 2497 
Q 953 2441 691 2322 
L 691 4666 
z
" transform="scale(0.015625)"/>
       </defs>
       <use xlink:href="#DejaVuSans-35"/>
       <use xlink:href="#DejaVuSans-30" x="63.623047"/>
       <use xlink:href="#DejaVuSans-30" x="127.246094"/>
       <use xlink:href="#DejaVuSans-30" x="190.869141"/>
       <use xlink:href="#DejaVuSans-30" x="254.492188"/>
      </g>
     </g>
    </g>
    <g id="xtick_7">
     <g id="line2d_7">
      <g>
       <use xlink:href="#medd27ff9c6" x="388.014377" y="162.432" style="stroke: #000000; stroke-width: 0.8"/>
      </g>
     </g>
     <g id="text_7">
      <!-- 60000 -->
      <g transform="translate(372.108127 177.030437)scale(0.1 -0.1)">
       <defs>
        <path id="DejaVuSans-36" d="M 2113 2584 
Q 1688 2584 1439 2293 
Q 1191 2003 1191 1497 
Q 1191 994 1439 701 
Q 1688 409 2113 409 
Q 2538 409 2786 701 
Q 3034 994 3034 1497 
Q 3034 2003 2786 2293 
Q 2538 2584 2113 2584 
z
M 3366 4563 
L 3366 3988 
Q 3128 4100 2886 4159 
Q 2644 4219 2406 4219 
Q 1781 4219 1451 3797 
Q 1122 3375 1075 2522 
Q 1259 2794 1537 2939 
Q 1816 3084 2150 3084 
Q 2853 3084 3261 2657 
Q 3669 2231 3669 1497 
Q 3669 778 3244 343 
Q 2819 -91 2113 -91 
Q 1303 -91 875 529 
Q 447 1150 447 2328 
Q 447 3434 972 4092 
Q 1497 4750 2381 4750 
Q 2619 4750 2861 4703 
Q 3103 4656 3366 4563 
z
" transform="scale(0.015625)"/>
       </defs>
       <use xlink:href="#DejaVuSans-36"/>
       <use xlink:href="#DejaVuSans-30" x="63.623047"/>
       <use xlink:href="#DejaVuSans-30" x="127.246094"/>
       <use xlink:href="#DejaVuSans-30" x="190.869141"/>
       <use xlink:href="#DejaVuSans-30" x="254.492188"/>
      </g>
     </g>
    </g>
   </g>
   <g id="matplotlib.axis_2">
    <g id="ytick_1">
     <g id="line2d_8">
      <defs>
       <path id="m7281434a8d" d="M 0 0 
L -3.5 0 
" style="stroke: #000000; stroke-width: 0.8"/>
      </defs>
      <g>
       <use xlink:href="#m7281434a8d" x="57.6" y="140.327065" style="stroke: #000000; stroke-width: 0.8"/>
      </g>
     </g>
     <g id="text_8">
      <!-- 70 -->
      <g transform="translate(37.875 144.126284)scale(0.1 -0.1)">
       <defs>
        <path id="DejaVuSans-37" d="M 525 4666 
L 3525 4666 
L 3525 4397 
L 1831 0 
L 1172 0 
L 2766 4134 
L 525 4134 
L 525 4666 
z
" transform="scale(0.015625)"/>
       </defs>
       <use xlink:href="#DejaVuSans-37"/>
       <use xlink:href="#DejaVuSans-30" x="63.623047"/>
      </g>
     </g>
    </g>
    <g id="ytick_2">
     <g id="line2d_9">
      <g>
       <use xlink:href="#m7281434a8d" x="57.6" y="113.397195" style="stroke: #000000; stroke-width: 0.8"/>
      </g>
     </g>
     <g id="text_9">
      <!-- 80 -->
      <g transform="translate(37.875 117.196414)scale(0.1 -0.1)">
       <defs>
        <path id="DejaVuSans-38" d="M 2034 2216 
Q 1584 2216 1326 1975 
Q 1069 1734 1069 1313 
Q 1069 891 1326 650 
Q 1584 409 2034 409 
Q 2484 409 2743 651 
Q 3003 894 3003 1313 
Q 3003 1734 2745 1975 
Q 2488 2216 2034 2216 
z
M 1403 2484 
Q 997 2584 770 2862 
Q 544 3141 544 3541 
Q 544 4100 942 4425 
Q 1341 4750 2034 4750 
Q 2731 4750 3128 4425 
Q 3525 4100 3525 3541 
Q 3525 3141 3298 2862 
Q 3072 2584 2669 2484 
Q 3125 2378 3379 2068 
Q 3634 1759 3634 1313 
Q 3634 634 3220 271 
Q 2806 -91 2034 -91 
Q 1263 -91 848 271 
Q 434 634 434 1313 
Q 434 1759 690 2068 
Q 947 2378 1403 2484 
z
M 1172 3481 
Q 1172 3119 1398 2916 
Q 1625 2713 2034 2713 
Q 2441 2713 2670 2916 
Q 2900 3119 2900 3481 
Q 2900 3844 2670 4047 
Q 2441 4250 2034 4250 
Q 1625 4250 1398 4047 
Q 1172 3844 1172 3481 
z
" transform="scale(0.015625)"/>
       </defs>
       <use xlink:href="#DejaVuSans-38"/>
       <use xlink:href="#DejaVuSans-30" x="63.623047"/>
      </g>
     </g>
    </g>
    <g id="ytick_3">
     <g id="line2d_10">
      <g>
       <use xlink:href="#m7281434a8d" x="57.6" y="86.467325" style="stroke: #000000; stroke-width: 0.8"/>
      </g>
     </g>
     <g id="text_10">
      <!-- 90 -->
      <g transform="translate(37.875 90.266543)scale(0.1 -0.1)">
       <defs>
        <path id="DejaVuSans-39" d="M 703 97 
L 703 672 
Q 941 559 1184 500 
Q 1428 441 1663 441 
Q 2288 441 2617 861 
Q 2947 1281 2994 2138 
Q 2813 1869 2534 1725 
Q 2256 1581 1919 1581 
Q 1219 1581 811 2004 
Q 403 2428 403 3163 
Q 403 3881 828 4315 
Q 1253 4750 1959 4750 
Q 2769 4750 3195 4129 
Q 3622 3509 3622 2328 
Q 3622 1225 3098 567 
Q 2575 -91 1691 -91 
Q 1453 -91 1209 -44 
Q 966 3 703 97 
z
M 1959 2075 
Q 2384 2075 2632 2365 
Q 2881 2656 2881 3163 
Q 2881 3666 2632 3958 
Q 2384 4250 1959 4250 
Q 1534 4250 1286 3958 
Q 1038 3666 1038 3163 
Q 1038 2656 1286 2365 
Q 1534 2075 1959 2075 
z
" transform="scale(0.015625)"/>
       </defs>
       <use xlink:href="#DejaVuSans-39"/>
       <use xlink:href="#DejaVuSans-30" x="63.623047"/>
      </g>
     </g>
    </g>
    <g id="ytick_4">
     <g id="line2d_11">
      <g>
       <use xlink:href="#m7281434a8d" x="57.6" y="59.537455" style="stroke: #000000; stroke-width: 0.8"/>
      </g>
     </g>
     <g id="text_11">
      <!-- 100 -->
      <g transform="translate(31.5125 63.336673)scale(0.1 -0.1)">
       <use xlink:href="#DejaVuSans-31"/>
       <use xlink:href="#DejaVuSans-30" x="63.623047"/>
       <use xlink:href="#DejaVuSans-30" x="127.246094"/>
      </g>
     </g>
    </g>
   </g>
   <g id="line2d_12">
    <path d="M 73.832727 58.864208 
L 73.968875 77.04187 
L 73.974111 76.368623 
L 74.010767 76.368623 
L 74.073604 73.900052 
L 74.07884 76.593039 
L 74.110259 76.593039 
L 74.230697 83.325506 
L 74.345899 83.325506 
L 74.461101 88.038234 
L 74.560594 88.038234 
L 74.675795 90.731221 
L 74.811943 90.731221 
L 74.927145 93.424208 
L 74.969037 93.424208 
L 75.005692 96.117195 
L 75.079002 95.219532 
L 76.79132 95.219532 
L 76.906522 97.912519 
L 77.974758 97.912519 
L 78.048068 97.014857 
L 78.053304 99.707844 
L 78.07425 99.707844 
L 79.027284 99.707844 
L 79.142486 98.810182 
L 79.158195 98.810182 
L 79.273397 101.503169 
L 81.205646 101.503169 
L 81.320848 104.196156 
L 81.394158 104.196156 
L 81.50936 106.889143 
L 82.106315 106.889143 
L 82.221517 109.58213 
L 83.331644 109.58213 
L 83.446846 108.684468 
L 83.776742 108.684468 
L 83.870998 107.786805 
L 83.876235 110.479792 
L 83.949545 110.479792 
L 84.064747 109.58213 
L 84.22184 109.58213 
L 84.337042 112.275117 
L 84.933997 112.275117 
L 85.049199 114.968104 
L 85.855612 114.968104 
L 85.970814 114.070442 
L 86.332129 114.070442 
L 86.447331 116.763429 
L 87.143778 116.763429 
L 87.25898 119.456416 
L 87.662187 119.456416 
L 87.777389 122.149403 
L 91.830399 122.149403 
L 91.945601 124.84239 
L 91.961311 124.84239 
L 92.076512 123.944727 
L 96.700296 123.944727 
L 96.815498 123.047065 
L 99.706017 123.047065 
L 99.821219 122.149403 
L 102.010054 122.149403 
L 102.125256 124.84239 
L 102.690793 124.84239 
L 102.805995 127.535377 
L 104.90581 127.535377 
L 105.021012 130.228364 
L 108.283319 130.228364 
L 108.398521 129.330701 
L 111.749848 129.330701 
L 111.86505 132.023688 
L 114.195269 132.023688 
L 114.310471 131.126026 
L 124.79384 131.126026 
L 124.909042 130.228364 
L 130.475386 130.228364 
L 130.590588 132.921351 
L 132.85797 132.921351 
L 132.973172 135.614338 
L 137.020946 135.614338 
L 137.136148 134.941091 
L 138.13631 134.941091 
L 138.251512 137.634078 
L 141.251996 137.634078 
L 141.367198 140.327065 
L 148.02796 140.327065 
L 148.143162 139.429403 
L 165.193037 139.429403 
L 165.308239 142.12239 
L 166.538804 142.12239 
L 166.654006 144.815377 
L 169.172738 144.815377 
L 169.28794 143.917714 
L 172.131331 143.917714 
L 172.246533 146.610701 
L 176.236706 146.610701 
L 176.357145 144.815377 
L 177.435853 144.815377 
L 177.551055 143.917714 
L 177.687202 143.917714 
L 177.802404 146.610701 
L 180.603904 146.610701 
L 180.719106 149.303688 
L 186.034101 149.303688 
L 186.149302 148.406026 
L 186.709602 148.406026 
L 186.824804 147.732779 
L 192.998577 147.732779 
L 193.113778 150.425766 
L 194.632348 150.425766 
L 194.74755 149.528104 
L 231.277012 149.528104 
L 231.392214 148.854857 
L 246.766426 148.854857 
L 246.881627 151.547844 
L 254.72059 151.547844 
L 254.835792 154.240831 
L 258.438468 154.240831 
L 258.55367 156.933818 
L 398.487273 156.933818 
L 398.487273 156.933818 
" clip-path="url(#p078baa0c46)" style="fill: none; stroke: #1f77b4; stroke-width: 1.5; stroke-linecap: square"/>
   </g>
   <g id="line2d_13">
    <path d="M 73.832727 59.537455 
L 73.968875 73.451221 
L 74.026476 73.451221 
L 74.073604 72.777974 
L 74.07884 75.470961 
L 74.131205 73.900052 
L 74.157387 73.900052 
L 74.272589 76.593039 
L 74.283062 76.593039 
L 74.408737 84.672 
L 74.969037 84.672 
L 75.089475 90.057974 
L 76.403823 90.057974 
L 76.519025 89.160312 
L 78.048068 89.160312 
L 78.16327 91.853299 
L 79.158195 91.853299 
L 79.273397 90.955636 
L 81.205646 90.955636 
L 81.320848 93.648623 
L 84.78214 93.648623 
L 84.897342 96.34161 
L 84.933997 96.34161 
L 85.049199 99.034597 
L 87.662187 99.034597 
L 87.777389 101.727584 
L 97.543364 101.727584 
L 97.663803 99.93226 
L 102.690793 99.93226 
L 102.805995 102.625247 
L 103.753792 102.625247 
L 103.868994 105.318234 
L 104.90581 105.318234 
L 105.021012 104.420571 
L 110.571647 104.420571 
L 110.686849 103.522909 
L 111.749848 103.522909 
L 111.86505 106.215896 
L 117.331902 106.215896 
L 117.447103 105.318234 
L 124.987589 105.318234 
L 125.102791 108.011221 
L 130.475386 108.011221 
L 130.590588 110.704208 
L 138.13631 110.704208 
L 138.251512 113.397195 
L 139.361639 113.397195 
L 139.476841 112.499532 
L 165.193037 112.499532 
L 165.308239 115.192519 
L 172.131331 115.192519 
L 172.246533 114.294857 
L 173.581827 114.294857 
L 173.697029 116.987844 
L 192.647735 116.987844 
L 192.762936 119.680831 
L 192.998577 119.680831 
L 193.113778 118.783169 
L 246.766426 118.783169 
L 246.881627 121.476156 
L 254.72059 121.476156 
L 254.835792 124.169143 
L 398.487273 124.169143 
L 398.487273 124.169143 
" clip-path="url(#p078baa0c46)" style="fill: none; stroke: #ff7f0e; stroke-width: 1.5; stroke-linecap: square"/>
   </g>
   <g id="line2d_14">
    <path d="M 73.832727 59.537455 
L 73.837964 58.998857 
L 73.85891 67.077818 
L 73.869382 67.077818 
L 73.942693 75.156779 
L 73.989821 73.810286 
L 74.026476 73.810286 
L 74.125968 80.991584 
L 74.146914 80.318338 
L 74.157387 80.318338 
L 74.209752 85.704312 
L 74.272589 85.031065 
L 74.283062 85.031065 
L 74.387791 82.786909 
L 74.502993 85.479896 
L 74.560594 85.479896 
L 74.675795 88.172883 
L 74.811943 88.172883 
L 74.927145 90.86587 
L 75.005692 90.86587 
L 75.120894 89.968208 
L 76.403823 89.968208 
L 76.519025 89.070545 
L 76.79132 89.070545 
L 76.906522 91.763532 
L 77.388276 91.763532 
L 77.503477 90.417039 
L 78.618841 90.417039 
L 78.734043 89.070545 
L 79.158195 89.070545 
L 79.273397 91.763532 
L 79.320525 91.763532 
L 79.435727 90.417039 
L 80.582509 90.417039 
L 80.697711 93.110026 
L 81.205646 93.110026 
L 81.320848 92.212364 
L 81.394158 92.212364 
L 81.50936 94.905351 
L 82.326246 94.905351 
L 82.441448 93.558857 
L 83.870998 93.558857 
L 83.9862 96.251844 
L 84.22184 96.251844 
L 84.337042 98.944831 
L 84.78214 98.944831 
L 84.897342 98.271584 
L 84.933997 98.271584 
L 85.049199 97.598338 
L 86.332129 97.598338 
L 86.447331 100.291325 
L 87.662187 100.291325 
L 87.777389 99.393662 
L 91.908946 99.393662 
L 92.024148 102.086649 
L 97.658566 102.086649 
L 97.773768 104.779636 
L 102.010054 104.779636 
L 102.125256 107.472623 
L 102.690793 107.472623 
L 102.805995 106.574961 
L 103.753792 106.574961 
L 103.868994 105.677299 
L 104.418821 105.677299 
L 104.534022 104.779636 
L 104.90581 104.779636 
L 105.021012 107.472623 
L 111.749848 107.472623 
L 111.86505 106.574961 
L 112.179237 106.574961 
L 112.294439 109.267948 
L 115.84475 109.267948 
L 115.959952 108.370286 
L 117.331902 108.370286 
L 117.447103 111.063273 
L 124.987589 111.063273 
L 125.102791 110.16561 
L 130.475386 110.16561 
L 130.590588 109.267948 
L 137.020946 109.267948 
L 137.136148 108.594701 
L 138.13631 108.594701 
L 138.251512 107.697039 
L 139.361639 107.697039 
L 139.476841 110.390026 
L 141.251996 110.390026 
L 141.367198 113.083013 
L 165.193037 113.083013 
L 165.308239 112.409766 
L 172.131331 112.409766 
L 172.246533 115.102753 
L 173.581827 115.102753 
L 173.697029 114.205091 
L 177.687202 114.205091 
L 177.802404 116.898078 
L 186.709602 116.898078 
L 186.824804 116.224831 
L 192.647735 116.224831 
L 192.762936 115.327169 
L 192.998577 115.327169 
L 193.113778 118.020156 
L 228.135143 118.020156 
L 228.250345 120.713143 
L 231.277012 120.713143 
L 231.392214 120.039896 
L 246.766426 120.039896 
L 246.881627 119.366649 
L 254.72059 119.366649 
L 254.835792 118.468987 
L 325.370748 118.468987 
L 325.48595 121.161974 
L 398.487273 121.161974 
L 398.487273 121.161974 
" clip-path="url(#p078baa0c46)" style="fill: none; stroke: #2ca02c; stroke-width: 1.5; stroke-linecap: square"/>
   </g>
   <g id="line2d_15">
    <path d="M 73.832727 62.230442 
L 73.8432 62.230442 
L 73.921747 69.41174 
L 73.963638 68.514078 
L 73.968875 68.514078 
L 74.099786 65.596675 
L 74.125968 65.596675 
L 74.24117 70.309403 
L 74.283062 70.309403 
L 74.398264 69.636156 
L 74.63914 69.636156 
L 74.770051 66.045506 
L 74.822416 66.045506 
L 74.937618 65.147844 
L 75.571228 65.147844 
L 75.68643 63.801351 
L 76.403823 63.801351 
L 76.519025 66.494338 
L 76.608045 66.494338 
L 76.723247 65.147844 
L 76.833212 65.147844 
L 76.948414 63.801351 
L 77.388276 63.801351 
L 77.503477 66.494338 
L 77.974758 66.494338 
L 78.08996 65.596675 
L 78.618841 65.596675 
L 78.734043 68.289662 
L 79.320525 68.289662 
L 79.435727 70.982649 
L 79.660894 70.982649 
L 79.776096 69.636156 
L 79.912244 69.636156 
L 80.027445 68.289662 
L 81.666454 68.289662 
L 81.781655 66.943169 
L 82.326246 66.943169 
L 82.441448 69.636156 
L 83.331644 69.636156 
L 83.446846 68.738494 
L 83.776742 68.738494 
L 83.891944 67.840831 
L 83.949545 67.840831 
L 84.064747 66.943169 
L 85.855612 66.943169 
L 85.970814 66.045506 
L 89.526362 66.045506 
L 89.641564 64.699013 
L 91.961311 64.699013 
L 92.076512 63.801351 
L 96.700296 63.801351 
L 96.815498 62.903688 
L 97.543364 62.903688 
L 97.658566 65.596675 
L 99.706017 65.596675 
L 99.821219 64.699013 
L 101.873907 64.699013 
L 101.989109 63.352519 
L 104.418821 63.352519 
L 104.534022 66.045506 
L 108.283319 66.045506 
L 108.398521 65.147844 
L 110.571647 65.147844 
L 110.686849 67.840831 
L 115.84475 67.840831 
L 115.959952 70.533818 
L 122.233217 70.533818 
L 122.348419 69.187325 
L 124.79384 69.187325 
L 124.909042 68.289662 
L 137.020946 68.289662 
L 137.136148 70.982649 
L 148.02796 70.982649 
L 148.143162 70.084987 
L 169.172738 70.084987 
L 169.28794 69.187325 
L 176.336199 69.187325 
L 176.456637 66.943169 
L 177.435853 66.943169 
L 177.551055 66.045506 
L 186.709602 66.045506 
L 186.824804 68.738494 
L 188.044897 68.738494 
L 188.160099 67.392 
L 231.277012 67.392 
L 231.392214 70.084987 
L 256.438145 70.084987 
L 256.553347 68.738494 
L 398.487273 68.738494 
L 398.487273 68.738494 
" clip-path="url(#p078baa0c46)" style="fill: none; stroke: #d62728; stroke-width: 1.5; stroke-linecap: square"/>
   </g>
   <g id="line2d_16">
    <path d="M 73.832727 59.537455 
L 73.885092 59.537455 
L 74.010767 57.517714 
L 74.068367 57.517714 
L 74.183569 56.620052 
L 74.209752 56.620052 
L 74.324953 55.946805 
L 75.005692 55.946805 
L 75.120894 55.049143 
L 76.403823 55.049143 
L 76.519025 54.151481 
L 77.388276 54.151481 
L 77.503477 52.804987 
L 78.618841 52.804987 
L 78.734043 51.458494 
L 79.320525 51.458494 
L 79.435727 50.112 
L 82.326246 50.112 
L 82.441448 48.765506 
L 97.543364 48.765506 
L 97.658566 47.867844 
L 110.571647 47.867844 
L 110.686849 46.970182 
L 398.487273 46.970182 
L 398.487273 46.970182 
" clip-path="url(#p078baa0c46)" style="fill: none; stroke: #9467bd; stroke-width: 1.5; stroke-linecap: square"/>
   </g>
   <g id="line2d_17">
    <path d="M 73.832727 58.864208 
L 73.953166 57.652364 
L 74.162624 57.652364 
L 74.277825 56.979117 
L 74.324953 56.979117 
L 74.440155 55.408208 
L 97.543364 55.408208 
L 97.658566 58.101195 
L 104.418821 58.101195 
L 104.534022 57.203532 
L 110.571647 57.203532 
L 110.686849 59.896519 
L 115.84475 59.896519 
L 115.959952 58.998857 
L 126.527104 58.998857 
L 126.642306 58.101195 
L 137.020946 58.101195 
L 137.136148 57.427948 
L 186.709602 57.427948 
L 186.824804 56.754701 
L 231.277012 56.754701 
L 231.392214 56.081455 
L 398.487273 56.081455 
L 398.487273 56.081455 
" clip-path="url(#p078baa0c46)" style="fill: none; stroke: #8c564b; stroke-width: 1.5; stroke-linecap: square"/>
   </g>
   <g id="line2d_18">
    <path d="M 73.832727 62.230442 
L 73.8432 62.230442 
L 73.968875 73.226805 
L 73.974111 72.553558 
L 74.010767 72.553558 
L 74.047422 71.880312 
L 74.052658 74.573299 
L 74.110259 73.675636 
L 74.125968 73.675636 
L 74.209752 78.388364 
L 74.24117 77.715117 
L 74.283062 77.715117 
L 74.324953 77.04187 
L 74.33019 79.734857 
L 74.372081 78.837195 
L 74.387791 81.530182 
L 74.482047 79.286026 
L 74.560594 79.286026 
L 74.665323 77.490701 
L 74.785761 82.876675 
L 74.822416 82.876675 
L 74.937618 81.979013 
L 74.969037 81.979013 
L 75.084238 81.081351 
L 75.27275 81.081351 
L 75.387952 79.734857 
L 75.571228 79.734857 
L 75.68643 82.427844 
L 76.272912 82.427844 
L 76.388114 81.081351 
L 76.608045 81.081351 
L 76.686591 83.774338 
L 76.71801 82.427844 
L 76.833212 82.427844 
L 76.948414 85.120831 
L 77.021724 85.120831 
L 77.136926 83.774338 
L 77.974758 83.774338 
L 78.048068 86.467325 
L 78.084723 85.569662 
L 79.027284 85.569662 
L 79.142486 84.672 
L 79.660894 84.672 
L 79.776096 87.364987 
L 79.912244 87.364987 
L 80.027445 90.057974 
L 80.284031 90.057974 
L 80.399233 88.711481 
L 81.205646 88.711481 
L 81.320848 87.813818 
L 81.666454 87.813818 
L 81.781655 90.506805 
L 82.106315 90.506805 
L 82.221517 89.160312 
L 83.331644 89.160312 
L 83.446846 91.853299 
L 83.776742 91.853299 
L 83.870998 94.546286 
L 83.886708 93.648623 
L 83.949545 93.648623 
L 84.064747 96.34161 
L 84.085693 96.34161 
L 84.200895 94.995117 
L 84.22184 94.995117 
L 84.337042 94.097455 
L 84.78214 94.097455 
L 84.897342 93.424208 
L 84.933997 93.424208 
L 85.049199 92.750961 
L 85.855612 92.750961 
L 85.970814 95.443948 
L 87.143778 95.443948 
L 87.25898 94.097455 
L 87.662187 94.097455 
L 87.777389 93.199792 
L 89.526362 93.199792 
L 89.641564 95.892779 
L 91.830399 95.892779 
L 91.945601 94.546286 
L 91.961311 94.546286 
L 92.076512 97.239273 
L 92.694413 97.239273 
L 92.809615 95.892779 
L 95.621588 95.892779 
L 95.73679 94.546286 
L 96.700296 94.546286 
L 96.815498 97.239273 
L 99.706017 97.239273 
L 99.821219 99.93226 
L 101.491646 99.93226 
L 101.606848 98.585766 
L 101.873907 98.585766 
L 101.989109 101.278753 
L 102.690793 101.278753 
L 102.805995 100.381091 
L 103.753792 100.381091 
L 103.868994 99.483429 
L 104.418821 99.483429 
L 104.534022 102.176416 
L 108.283319 102.176416 
L 108.398521 104.869403 
L 111.749848 104.869403 
L 111.86505 103.97174 
L 112.179237 103.97174 
L 112.294439 103.074078 
L 114.195269 103.074078 
L 114.310471 102.176416 
L 115.84475 102.176416 
L 115.959952 104.869403 
L 122.233217 104.869403 
L 122.348419 107.56239 
L 124.589619 107.56239 
L 124.704821 106.215896 
L 124.79384 106.215896 
L 124.909042 108.908883 
L 124.987589 108.908883 
L 125.102791 108.011221 
L 126.527104 108.011221 
L 126.642306 110.704208 
L 130.475386 110.704208 
L 130.590588 109.806545 
L 132.85797 109.806545 
L 132.973172 108.460052 
L 137.020946 108.460052 
L 137.136148 111.153039 
L 138.13631 111.153039 
L 138.251512 110.255377 
L 148.02796 110.255377 
L 148.143162 112.948364 
L 165.193037 112.948364 
L 165.308239 112.275117 
L 166.538804 112.275117 
L 166.654006 110.928623 
L 169.172738 110.928623 
L 169.28794 113.62161 
L 173.581827 113.62161 
L 173.697029 112.723948 
L 176.236706 112.723948 
L 176.336199 111.826286 
L 176.456637 117.21226 
L 177.435853 117.21226 
L 177.551055 119.905247 
L 178.47267 119.905247 
L 178.587871 118.558753 
L 180.603904 118.558753 
L 180.719106 117.21226 
L 186.034101 117.21226 
L 186.149302 116.314597 
L 186.709602 116.314597 
L 186.824804 119.007584 
L 188.044897 119.007584 
L 188.160099 121.700571 
L 192.647735 121.700571 
L 192.762936 120.802909 
L 194.632348 120.802909 
L 194.74755 119.905247 
L 231.277012 119.905247 
L 231.392214 122.598234 
L 246.766426 122.598234 
L 246.881627 121.924987 
L 254.72059 121.924987 
L 254.835792 121.027325 
L 256.438145 121.027325 
L 256.553347 123.720312 
L 258.438468 123.720312 
L 258.55367 122.373818 
L 284.19132 122.373818 
L 284.306522 121.027325 
L 398.487273 121.027325 
L 398.487273 121.027325 
" clip-path="url(#p078baa0c46)" style="fill: none; stroke: #e377c2; stroke-width: 1.5; stroke-linecap: square"/>
   </g>
   <g id="line2d_19">
    <path d="M 73.832727 58.864208 
L 74.00553 52.26639 
L 74.125968 52.26639 
L 74.246407 50.919896 
L 74.324953 50.919896 
L 74.440155 49.348987 
L 97.543364 49.348987 
L 97.658566 52.041974 
L 104.418821 52.041974 
L 104.534022 51.144312 
L 110.571647 51.144312 
L 110.686849 53.837299 
L 115.84475 53.837299 
L 115.959952 52.939636 
L 126.527104 52.939636 
L 126.642306 52.041974 
L 137.020946 52.041974 
L 137.136148 51.368727 
L 186.709602 51.368727 
L 186.824804 50.695481 
L 231.277012 50.695481 
L 231.392214 50.022234 
L 398.487273 50.022234 
L 398.487273 50.022234 
" clip-path="url(#p078baa0c46)" style="fill: none; stroke: #7f7f7f; stroke-width: 1.5; stroke-linecap: square"/>
   </g>
   <g id="line2d_20">
    <path d="M 73.832727 62.230442 
L 73.879855 60.794182 
L 73.895565 65.506909 
L 73.91651 64.609247 
L 73.921747 64.609247 
L 73.942693 63.711584 
L 73.947929 66.404571 
L 74.031712 64.384831 
L 74.047422 64.384831 
L 74.16786 69.995221 
L 74.183569 69.995221 
L 74.304008 67.302234 
L 74.324953 67.302234 
L 74.387791 71.790545 
L 74.440155 69.54639 
L 74.560594 69.54639 
L 74.665323 67.751065 
L 74.785761 73.137039 
L 74.811943 73.137039 
L 74.927145 70.892883 
L 74.969037 70.892883 
L 75.084238 69.995221 
L 75.27275 69.995221 
L 75.387952 68.648727 
L 75.571228 68.648727 
L 75.68643 71.341714 
L 76.272912 71.341714 
L 76.388114 69.995221 
L 76.608045 69.995221 
L 76.686591 72.688208 
L 76.71801 71.341714 
L 76.79132 71.341714 
L 76.833212 69.995221 
L 76.838448 72.688208 
L 76.896049 72.688208 
L 77.021724 72.688208 
L 77.136926 71.341714 
L 77.974758 71.341714 
L 78.048068 74.034701 
L 78.084723 73.137039 
L 79.027284 73.137039 
L 79.142486 72.239377 
L 79.158195 72.239377 
L 79.273397 71.341714 
L 79.660894 71.341714 
L 79.776096 74.034701 
L 79.912244 74.034701 
L 80.027445 76.727688 
L 80.284031 76.727688 
L 80.399233 75.381195 
L 80.582509 75.381195 
L 80.697711 74.034701 
L 81.205646 74.034701 
L 81.320848 73.137039 
L 81.394158 73.137039 
L 81.50936 71.790545 
L 81.666454 71.790545 
L 81.781655 74.483532 
L 82.106315 74.483532 
L 82.221517 73.137039 
L 83.331644 73.137039 
L 83.446846 75.830026 
L 83.776742 75.830026 
L 83.870998 78.523013 
L 83.886708 77.625351 
L 83.949545 77.625351 
L 84.064747 80.318338 
L 84.085693 80.318338 
L 84.200895 78.971844 
L 84.22184 78.971844 
L 84.337042 78.074182 
L 84.78214 78.074182 
L 84.897342 77.400935 
L 84.933997 77.400935 
L 85.049199 76.727688 
L 85.855612 76.727688 
L 85.970814 79.420675 
L 86.332129 79.420675 
L 86.447331 78.074182 
L 87.143778 78.074182 
L 87.25898 76.727688 
L 87.662187 76.727688 
L 87.777389 75.830026 
L 89.526362 75.830026 
L 89.641564 78.523013 
L 91.830399 78.523013 
L 91.950838 75.830026 
L 91.961311 75.830026 
L 92.076512 78.523013 
L 92.694413 78.523013 
L 92.809615 77.176519 
L 95.621588 77.176519 
L 95.73679 75.830026 
L 96.700296 75.830026 
L 96.815498 78.523013 
L 97.658566 78.523013 
L 97.773768 77.625351 
L 99.706017 77.625351 
L 99.821219 80.318338 
L 101.491646 80.318338 
L 101.606848 78.971844 
L 101.873907 78.971844 
L 101.989109 81.664831 
L 102.010054 81.664831 
L 102.125256 80.318338 
L 102.690793 80.318338 
L 102.805995 79.420675 
L 103.753792 79.420675 
L 103.868994 78.523013 
L 104.418821 78.523013 
L 104.534022 81.216 
L 104.90581 81.216 
L 105.021012 80.318338 
L 108.283319 80.318338 
L 108.398521 83.011325 
L 111.749848 83.011325 
L 111.86505 82.113662 
L 112.179237 82.113662 
L 112.294439 81.216 
L 114.195269 81.216 
L 114.310471 80.318338 
L 115.84475 80.318338 
L 115.959952 83.011325 
L 117.331902 83.011325 
L 117.447103 82.113662 
L 122.233217 82.113662 
L 122.348419 84.806649 
L 124.589619 84.806649 
L 124.704821 83.460156 
L 124.79384 83.460156 
L 124.909042 86.153143 
L 124.987589 86.153143 
L 125.102791 85.255481 
L 126.527104 85.255481 
L 126.642306 87.948468 
L 130.475386 87.948468 
L 130.590588 87.050805 
L 132.85797 87.050805 
L 132.973172 85.704312 
L 137.020946 85.704312 
L 137.136148 88.397299 
L 138.13631 88.397299 
L 138.251512 87.499636 
L 139.361639 87.499636 
L 139.476841 86.601974 
L 141.251996 86.601974 
L 141.367198 85.255481 
L 148.02796 85.255481 
L 148.143162 87.948468 
L 165.193037 87.948468 
L 165.308239 87.275221 
L 166.538804 87.275221 
L 166.654006 85.928727 
L 169.172738 85.928727 
L 169.28794 88.621714 
L 172.131331 88.621714 
L 172.246533 87.724052 
L 173.581827 87.724052 
L 173.697029 86.82639 
L 176.236706 86.82639 
L 176.336199 85.928727 
L 176.456637 91.314701 
L 177.435853 91.314701 
L 177.551055 94.007688 
L 177.687202 94.007688 
L 177.802404 92.661195 
L 178.47267 92.661195 
L 178.587871 91.314701 
L 180.603904 91.314701 
L 180.719106 89.968208 
L 186.034101 89.968208 
L 186.149302 89.070545 
L 186.709602 89.070545 
L 186.824804 91.763532 
L 188.044897 91.763532 
L 188.160099 94.456519 
L 192.647735 94.456519 
L 192.762936 93.558857 
L 192.998577 93.558857 
L 193.113778 92.661195 
L 194.632348 92.661195 
L 194.74755 91.763532 
L 228.135143 91.763532 
L 228.250345 90.417039 
L 231.277012 90.417039 
L 231.392214 93.110026 
L 246.766426 93.110026 
L 246.881627 92.436779 
L 254.72059 92.436779 
L 254.835792 91.539117 
L 256.438145 91.539117 
L 256.553347 94.232104 
L 258.438468 94.232104 
L 258.55367 92.88561 
L 284.19132 92.88561 
L 284.306522 91.539117 
L 325.370748 91.539117 
L 325.48595 90.192623 
L 398.487273 90.192623 
L 398.487273 90.192623 
" clip-path="url(#p078baa0c46)" style="fill: none; stroke: #bcbd22; stroke-width: 1.5; stroke-linecap: square"/>
   </g>
   <g id="line2d_21">
    <path d="M 73.832727 62.230442 
L 73.8432 60.794182 
L 73.885092 66.180156 
L 73.890328 66.180156 
L 74.00553 69.770805 
L 74.010767 69.770805 
L 74.073604 73.58587 
L 74.120732 71.790545 
L 74.125968 71.790545 
L 74.24117 74.483532 
L 74.324953 74.483532 
L 74.419209 72.688208 
L 74.424446 75.381195 
L 74.429682 75.381195 
L 74.560594 75.381195 
L 74.63914 74.483532 
L 74.644377 77.176519 
L 74.660086 77.176519 
L 74.665323 77.176519 
L 74.785761 74.483532 
L 74.811943 74.483532 
L 74.822416 73.137039 
L 74.827652 75.830026 
L 74.916672 75.830026 
L 74.969037 75.830026 
L 75.005692 74.932364 
L 75.010928 77.625351 
L 75.068529 77.625351 
L 75.27275 77.625351 
L 75.387952 80.318338 
L 75.571228 80.318338 
L 75.68643 78.971844 
L 76.272912 78.971844 
L 76.388114 81.664831 
L 76.403823 81.664831 
L 76.519025 84.357818 
L 76.608045 84.357818 
L 76.686591 83.011325 
L 76.691828 85.704312 
L 76.712774 85.704312 
L 76.79132 85.704312 
L 76.911759 83.011325 
L 77.021724 83.011325 
L 77.136926 85.704312 
L 77.388276 85.704312 
L 77.503477 88.397299 
L 77.974758 88.397299 
L 78.095196 86.601974 
L 78.618841 86.601974 
L 78.734043 89.294961 
L 79.027284 89.294961 
L 79.142486 91.987948 
L 79.158195 91.987948 
L 79.273397 91.090286 
L 79.320525 91.090286 
L 79.435727 93.783273 
L 79.660894 93.783273 
L 79.776096 92.436779 
L 79.912244 92.436779 
L 80.027445 91.090286 
L 80.284031 91.090286 
L 80.399233 93.783273 
L 80.582509 93.783273 
L 80.697711 92.436779 
L 81.394158 92.436779 
L 81.50936 91.090286 
L 81.666454 91.090286 
L 81.781655 89.743792 
L 82.106315 89.743792 
L 82.221517 92.436779 
L 82.326246 92.436779 
L 82.441448 95.129766 
L 83.331644 95.129766 
L 83.446846 94.232104 
L 83.776742 94.232104 
L 83.897181 92.436779 
L 83.949545 92.436779 
L 84.064747 91.539117 
L 84.085693 91.539117 
L 84.200895 94.232104 
L 84.22184 94.232104 
L 84.337042 93.334442 
L 84.78214 93.334442 
L 84.897342 92.661195 
L 84.933997 92.661195 
L 85.049199 91.987948 
L 85.855612 91.987948 
L 85.970814 91.090286 
L 86.332129 91.090286 
L 86.447331 89.743792 
L 87.143778 89.743792 
L 87.25898 92.436779 
L 89.526362 92.436779 
L 89.641564 91.090286 
L 91.830399 91.090286 
L 91.908946 93.783273 
L 91.940365 92.436779 
L 91.961311 92.436779 
L 92.076512 91.539117 
L 92.694413 91.539117 
L 92.809615 94.232104 
L 95.621588 94.232104 
L 95.73679 96.925091 
L 96.700296 96.925091 
L 96.815498 96.027429 
L 97.543364 96.027429 
L 97.658566 98.720416 
L 97.773768 97.822753 
L 99.706017 97.822753 
L 99.821219 96.925091 
L 101.491646 96.925091 
L 101.606848 99.618078 
L 101.873907 99.618078 
L 101.989109 98.271584 
L 102.010054 98.271584 
L 102.125256 96.925091 
L 104.418821 96.925091 
L 104.534022 99.618078 
L 104.90581 99.618078 
L 105.021012 98.720416 
L 108.283319 98.720416 
L 108.398521 97.822753 
L 110.571647 97.822753 
L 110.686849 100.51574 
L 112.179237 100.51574 
L 112.294439 99.618078 
L 114.195269 99.618078 
L 114.310471 102.311065 
L 115.84475 102.311065 
L 115.959952 105.004052 
L 117.331902 105.004052 
L 117.447103 104.10639 
L 122.233217 104.10639 
L 122.348419 102.759896 
L 124.589619 102.759896 
L 124.704821 105.452883 
L 124.79384 105.452883 
L 124.909042 104.555221 
L 126.527104 104.555221 
L 126.642306 103.657558 
L 132.85797 103.657558 
L 132.973172 106.350545 
L 137.020946 106.350545 
L 137.136148 109.043532 
L 139.361639 109.043532 
L 139.476841 108.14587 
L 141.251996 108.14587 
L 141.367198 106.799377 
L 148.02796 106.799377 
L 148.143162 105.901714 
L 165.193037 105.901714 
L 165.308239 105.228468 
L 166.538804 105.228468 
L 166.654006 107.921455 
L 169.172738 107.921455 
L 169.28794 107.023792 
L 172.131331 107.023792 
L 172.246533 106.12613 
L 176.236706 106.12613 
L 176.336199 108.819117 
L 176.346672 106.574961 
L 177.435853 106.574961 
L 177.551055 105.677299 
L 177.687202 105.677299 
L 177.802404 104.330805 
L 178.47267 104.330805 
L 178.587871 107.023792 
L 180.603904 107.023792 
L 180.719106 109.716779 
L 186.034101 109.716779 
L 186.149302 112.409766 
L 186.709602 112.409766 
L 186.824804 115.102753 
L 188.044897 115.102753 
L 188.160099 113.75626 
L 192.998577 113.75626 
L 193.113778 112.858597 
L 194.632348 112.858597 
L 194.74755 115.551584 
L 228.135143 115.551584 
L 228.250345 114.205091 
L 231.277012 114.205091 
L 231.392214 116.898078 
L 246.766426 116.898078 
L 246.881627 116.224831 
L 256.438145 116.224831 
L 256.553347 114.878338 
L 258.438468 114.878338 
L 258.55367 117.571325 
L 284.19132 117.571325 
L 284.306522 120.264312 
L 325.370748 120.264312 
L 325.48595 118.917818 
L 398.487273 118.917818 
L 398.487273 118.917818 
" clip-path="url(#p078baa0c46)" style="fill: none; stroke: #17becf; stroke-width: 1.5; stroke-linecap: square"/>
   </g>
   <g id="line2d_22">
    <path d="M 73.832727 62.230442 
L 73.953166 67.616416 
L 74.162624 67.616416 
L 74.277825 70.309403 
L 74.324953 70.309403 
L 74.445392 75.695377 
L 97.543364 75.695377 
L 97.658566 74.797714 
L 104.418821 74.797714 
L 104.534022 77.490701 
L 110.571647 77.490701 
L 110.686849 76.593039 
L 115.84475 76.593039 
L 115.959952 79.286026 
L 126.527104 79.286026 
L 126.642306 81.979013 
L 137.020946 81.979013 
L 137.136148 84.672 
L 186.709602 84.672 
L 186.824804 87.364987 
L 231.277012 87.364987 
L 231.392214 90.057974 
L 398.487273 90.057974 
L 398.487273 90.057974 
" clip-path="url(#p078baa0c46)" style="fill: none; stroke: #1f77b4; stroke-width: 1.5; stroke-linecap: square"/>
   </g>
   <g id="line2d_23">
    <path d="M 73.832727 58.864208 
L 73.837964 58.864208 
L 73.968875 55.273558 
L 74.125968 55.273558 
L 74.246407 60.659532 
L 76.403823 60.659532 
L 76.519025 63.352519 
L 398.487273 63.352519 
L 398.487273 63.352519 
" clip-path="url(#p078baa0c46)" style="fill: none; stroke: #ff7f0e; stroke-width: 1.5; stroke-linecap: square"/>
   </g>
   <g id="patch_3">
    <path d="M 57.6 162.432 
L 57.6 41.472 
" style="fill: none; stroke: #000000; stroke-width: 0.8; stroke-linejoin: miter; stroke-linecap: square"/>
   </g>
   <g id="patch_4">
    <path d="M 414.72 162.432 
L 414.72 41.472 
" style="fill: none; stroke: #000000; stroke-width: 0.8; stroke-linejoin: miter; stroke-linecap: square"/>
   </g>
   <g id="patch_5">
    <path d="M 57.6 162.432 
L 414.72 162.432 
" style="fill: none; stroke: #000000; stroke-width: 0.8; stroke-linejoin: miter; stroke-linecap: square"/>
   </g>
   <g id="patch_6">
    <path d="M 57.6 41.472 
L 414.72 41.472 
" style="fill: none; stroke: #000000; stroke-width: 0.8; stroke-linejoin: miter; stroke-linecap: square"/>
   </g>
   <g id="text_12">
    <!-- WSP -->
    <g transform="translate(361.832136 156.933818)scale(0.08 -0.08)">
     <defs>
      <path id="DejaVuSans-57" d="M 213 4666 
L 850 4666 
L 1831 722 
L 2809 4666 
L 3519 4666 
L 4500 722 
L 5478 4666 
L 6119 4666 
L 4947 0 
L 4153 0 
L 3169 4050 
L 2175 0 
L 1381 0 
L 213 4666 
z
" transform="scale(0.015625)"/>
      <path id="DejaVuSans-53" d="M 3425 4513 
L 3425 3897 
Q 3066 4069 2747 4153 
Q 2428 4238 2131 4238 
Q 1616 4238 1336 4038 
Q 1056 3838 1056 3469 
Q 1056 3159 1242 3001 
Q 1428 2844 1947 2747 
L 2328 2669 
Q 3034 2534 3370 2195 
Q 3706 1856 3706 1288 
Q 3706 609 3251 259 
Q 2797 -91 1919 -91 
Q 1588 -91 1214 -16 
Q 841 59 441 206 
L 441 856 
Q 825 641 1194 531 
Q 1563 422 1919 422 
Q 2459 422 2753 634 
Q 3047 847 3047 1241 
Q 3047 1584 2836 1778 
Q 2625 1972 2144 2069 
L 1759 2144 
Q 1053 2284 737 2584 
Q 422 2884 422 3419 
Q 422 4038 858 4394 
Q 1294 4750 2059 4750 
Q 2388 4750 2728 4690 
Q 3069 4631 3425 4513 
z
" transform="scale(0.015625)"/>
      <path id="DejaVuSans-50" d="M 1259 4147 
L 1259 2394 
L 2053 2394 
Q 2494 2394 2734 2622 
Q 2975 2850 2975 3272 
Q 2975 3691 2734 3919 
Q 2494 4147 2053 4147 
L 1259 4147 
z
M 628 4666 
L 2053 4666 
Q 2838 4666 3239 4311 
Q 3641 3956 3641 3272 
Q 3641 2581 3239 2228 
Q 2838 1875 2053 1875 
L 1259 1875 
L 1259 0 
L 628 0 
L 628 4666 
z
" transform="scale(0.015625)"/>
     </defs>
     <use xlink:href="#DejaVuSans-57"/>
     <use xlink:href="#DejaVuSans-53" x="98.876953"/>
     <use xlink:href="#DejaVuSans-50" x="162.353516"/>
    </g>
   </g>
   <g id="text_13">
    <!-- Iambic -->
    <g transform="translate(361.832136 124.169143)scale(0.08 -0.08)">
     <defs>
      <path id="DejaVuSans-49" d="M 628 4666 
L 1259 4666 
L 1259 0 
L 628 0 
L 628 4666 
z
" transform="scale(0.015625)"/>
      <path id="DejaVuSans-61" d="M 2194 1759 
Q 1497 1759 1228 1600 
Q 959 1441 959 1056 
Q 959 750 1161 570 
Q 1363 391 1709 391 
Q 2188 391 2477 730 
Q 2766 1069 2766 1631 
L 2766 1759 
L 2194 1759 
z
M 3341 1997 
L 3341 0 
L 2766 0 
L 2766 531 
Q 2569 213 2275 61 
Q 1981 -91 1556 -91 
Q 1019 -91 701 211 
Q 384 513 384 1019 
Q 384 1609 779 1909 
Q 1175 2209 1959 2209 
L 2766 2209 
L 2766 2266 
Q 2766 2663 2505 2880 
Q 2244 3097 1772 3097 
Q 1472 3097 1187 3025 
Q 903 2953 641 2809 
L 641 3341 
Q 956 3463 1253 3523 
Q 1550 3584 1831 3584 
Q 2591 3584 2966 3190 
Q 3341 2797 3341 1997 
z
" transform="scale(0.015625)"/>
      <path id="DejaVuSans-6d" d="M 3328 2828 
Q 3544 3216 3844 3400 
Q 4144 3584 4550 3584 
Q 5097 3584 5394 3201 
Q 5691 2819 5691 2113 
L 5691 0 
L 5113 0 
L 5113 2094 
Q 5113 2597 4934 2840 
Q 4756 3084 4391 3084 
Q 3944 3084 3684 2787 
Q 3425 2491 3425 1978 
L 3425 0 
L 2847 0 
L 2847 2094 
Q 2847 2600 2669 2842 
Q 2491 3084 2119 3084 
Q 1678 3084 1418 2786 
Q 1159 2488 1159 1978 
L 1159 0 
L 581 0 
L 581 3500 
L 1159 3500 
L 1159 2956 
Q 1356 3278 1631 3431 
Q 1906 3584 2284 3584 
Q 2666 3584 2933 3390 
Q 3200 3197 3328 2828 
z
" transform="scale(0.015625)"/>
      <path id="DejaVuSans-62" d="M 3116 1747 
Q 3116 2381 2855 2742 
Q 2594 3103 2138 3103 
Q 1681 3103 1420 2742 
Q 1159 2381 1159 1747 
Q 1159 1113 1420 752 
Q 1681 391 2138 391 
Q 2594 391 2855 752 
Q 3116 1113 3116 1747 
z
M 1159 2969 
Q 1341 3281 1617 3432 
Q 1894 3584 2278 3584 
Q 2916 3584 3314 3078 
Q 3713 2572 3713 1747 
Q 3713 922 3314 415 
Q 2916 -91 2278 -91 
Q 1894 -91 1617 61 
Q 1341 213 1159 525 
L 1159 0 
L 581 0 
L 581 4863 
L 1159 4863 
L 1159 2969 
z
" transform="scale(0.015625)"/>
      <path id="DejaVuSans-69" d="M 603 3500 
L 1178 3500 
L 1178 0 
L 603 0 
L 603 3500 
z
M 603 4863 
L 1178 4863 
L 1178 4134 
L 603 4134 
L 603 4863 
z
" transform="scale(0.015625)"/>
      <path id="DejaVuSans-63" d="M 3122 3366 
L 3122 2828 
Q 2878 2963 2633 3030 
Q 2388 3097 2138 3097 
Q 1578 3097 1268 2742 
Q 959 2388 959 1747 
Q 959 1106 1268 751 
Q 1578 397 2138 397 
Q 2388 397 2633 464 
Q 2878 531 3122 666 
L 3122 134 
Q 2881 22 2623 -34 
Q 2366 -91 2075 -91 
Q 1284 -91 818 406 
Q 353 903 353 1747 
Q 353 2603 823 3093 
Q 1294 3584 2113 3584 
Q 2378 3584 2631 3529 
Q 2884 3475 3122 3366 
z
" transform="scale(0.015625)"/>
     </defs>
     <use xlink:href="#DejaVuSans-49"/>
     <use xlink:href="#DejaVuSans-61" x="29.492188"/>
     <use xlink:href="#DejaVuSans-6d" x="90.771484"/>
     <use xlink:href="#DejaVuSans-62" x="188.183594"/>
     <use xlink:href="#DejaVuSans-69" x="251.660156"/>
     <use xlink:href="#DejaVuSans-63" x="279.443359"/>
    </g>
   </g>
   <g id="text_14">
    <!-- Parse -->
    <g transform="translate(361.832136 121.161974)scale(0.08 -0.08)">
     <defs>
      <path id="DejaVuSans-72" d="M 2631 2963 
Q 2534 3019 2420 3045 
Q 2306 3072 2169 3072 
Q 1681 3072 1420 2755 
Q 1159 2438 1159 1844 
L 1159 0 
L 581 0 
L 581 3500 
L 1159 3500 
L 1159 2956 
Q 1341 3275 1631 3429 
Q 1922 3584 2338 3584 
Q 2397 3584 2469 3576 
Q 2541 3569 2628 3553 
L 2631 2963 
z
" transform="scale(0.015625)"/>
      <path id="DejaVuSans-73" d="M 2834 3397 
L 2834 2853 
Q 2591 2978 2328 3040 
Q 2066 3103 1784 3103 
Q 1356 3103 1142 2972 
Q 928 2841 928 2578 
Q 928 2378 1081 2264 
Q 1234 2150 1697 2047 
L 1894 2003 
Q 2506 1872 2764 1633 
Q 3022 1394 3022 966 
Q 3022 478 2636 193 
Q 2250 -91 1575 -91 
Q 1294 -91 989 -36 
Q 684 19 347 128 
L 347 722 
Q 666 556 975 473 
Q 1284 391 1588 391 
Q 1994 391 2212 530 
Q 2431 669 2431 922 
Q 2431 1156 2273 1281 
Q 2116 1406 1581 1522 
L 1381 1569 
Q 847 1681 609 1914 
Q 372 2147 372 2553 
Q 372 3047 722 3315 
Q 1072 3584 1716 3584 
Q 2034 3584 2315 3537 
Q 2597 3491 2834 3397 
z
" transform="scale(0.015625)"/>
      <path id="DejaVuSans-65" d="M 3597 1894 
L 3597 1613 
L 953 1613 
Q 991 1019 1311 708 
Q 1631 397 2203 397 
Q 2534 397 2845 478 
Q 3156 559 3463 722 
L 3463 178 
Q 3153 47 2828 -22 
Q 2503 -91 2169 -91 
Q 1331 -91 842 396 
Q 353 884 353 1716 
Q 353 2575 817 3079 
Q 1281 3584 2069 3584 
Q 2775 3584 3186 3129 
Q 3597 2675 3597 1894 
z
M 3022 2063 
Q 3016 2534 2758 2815 
Q 2500 3097 2075 3097 
Q 1594 3097 1305 2825 
Q 1016 2553 972 2059 
L 3022 2063 
z
" transform="scale(0.015625)"/>
     </defs>
     <use xlink:href="#DejaVuSans-50"/>
     <use xlink:href="#DejaVuSans-61" x="55.802734"/>
     <use xlink:href="#DejaVuSans-72" x="117.082031"/>
     <use xlink:href="#DejaVuSans-73" x="158.195312"/>
     <use xlink:href="#DejaVuSans-65" x="210.294922"/>
    </g>
   </g>
   <g id="text_15">
    <!-- FootBin -->
    <g transform="translate(361.832136 68.738494)scale(0.08 -0.08)">
     <defs>
      <path id="DejaVuSans-46" d="M 628 4666 
L 3309 4666 
L 3309 4134 
L 1259 4134 
L 1259 2759 
L 3109 2759 
L 3109 2228 
L 1259 2228 
L 1259 0 
L 628 0 
L 628 4666 
z
" transform="scale(0.015625)"/>
      <path id="DejaVuSans-6f" d="M 1959 3097 
Q 1497 3097 1228 2736 
Q 959 2375 959 1747 
Q 959 1119 1226 758 
Q 1494 397 1959 397 
Q 2419 397 2687 759 
Q 2956 1122 2956 1747 
Q 2956 2369 2687 2733 
Q 2419 3097 1959 3097 
z
M 1959 3584 
Q 2709 3584 3137 3096 
Q 3566 2609 3566 1747 
Q 3566 888 3137 398 
Q 2709 -91 1959 -91 
Q 1206 -91 779 398 
Q 353 888 353 1747 
Q 353 2609 779 3096 
Q 1206 3584 1959 3584 
z
" transform="scale(0.015625)"/>
      <path id="DejaVuSans-74" d="M 1172 4494 
L 1172 3500 
L 2356 3500 
L 2356 3053 
L 1172 3053 
L 1172 1153 
Q 1172 725 1289 603 
Q 1406 481 1766 481 
L 2356 481 
L 2356 0 
L 1766 0 
Q 1100 0 847 248 
Q 594 497 594 1153 
L 594 3053 
L 172 3053 
L 172 3500 
L 594 3500 
L 594 4494 
L 1172 4494 
z
" transform="scale(0.015625)"/>
      <path id="DejaVuSans-42" d="M 1259 2228 
L 1259 519 
L 2272 519 
Q 2781 519 3026 730 
Q 3272 941 3272 1375 
Q 3272 1813 3026 2020 
Q 2781 2228 2272 2228 
L 1259 2228 
z
M 1259 4147 
L 1259 2741 
L 2194 2741 
Q 2656 2741 2882 2914 
Q 3109 3088 3109 3444 
Q 3109 3797 2882 3972 
Q 2656 4147 2194 4147 
L 1259 4147 
z
M 628 4666 
L 2241 4666 
Q 2963 4666 3353 4366 
Q 3744 4066 3744 3513 
Q 3744 3084 3544 2831 
Q 3344 2578 2956 2516 
Q 3422 2416 3680 2098 
Q 3938 1781 3938 1306 
Q 3938 681 3513 340 
Q 3088 0 2303 0 
L 628 0 
L 628 4666 
z
" transform="scale(0.015625)"/>
      <path id="DejaVuSans-6e" d="M 3513 2113 
L 3513 0 
L 2938 0 
L 2938 2094 
Q 2938 2591 2744 2837 
Q 2550 3084 2163 3084 
Q 1697 3084 1428 2787 
Q 1159 2491 1159 1978 
L 1159 0 
L 581 0 
L 581 3500 
L 1159 3500 
L 1159 2956 
Q 1366 3272 1645 3428 
Q 1925 3584 2291 3584 
Q 2894 3584 3203 3211 
Q 3513 2838 3513 2113 
z
" transform="scale(0.015625)"/>
     </defs>
     <use xlink:href="#DejaVuSans-46"/>
     <use xlink:href="#DejaVuSans-6f" x="53.894531"/>
     <use xlink:href="#DejaVuSans-6f" x="115.076172"/>
     <use xlink:href="#DejaVuSans-74" x="176.257812"/>
     <use xlink:href="#DejaVuSans-42" x="215.466797"/>
     <use xlink:href="#DejaVuSans-69" x="284.070312"/>
     <use xlink:href="#DejaVuSans-6e" x="311.853516"/>
    </g>
   </g>
   <g id="text_16">
    <!-- WFL -->
    <g transform="translate(361.832136 46.970182)scale(0.08 -0.08)">
     <defs>
      <path id="DejaVuSans-4c" d="M 628 4666 
L 1259 4666 
L 1259 531 
L 3531 531 
L 3531 0 
L 628 0 
L 628 4666 
z
" transform="scale(0.015625)"/>
     </defs>
     <use xlink:href="#DejaVuSans-57"/>
     <use xlink:href="#DejaVuSans-46" x="98.876953"/>
     <use xlink:href="#DejaVuSans-4c" x="156.396484"/>
    </g>
   </g>
   <g id="text_17">
    <!-- WFR -->
    <g transform="translate(361.832136 56.081455)scale(0.08 -0.08)">
     <defs>
      <path id="DejaVuSans-52" d="M 2841 2188 
Q 3044 2119 3236 1894 
Q 3428 1669 3622 1275 
L 4263 0 
L 3584 0 
L 2988 1197 
Q 2756 1666 2539 1819 
Q 2322 1972 1947 1972 
L 1259 1972 
L 1259 0 
L 628 0 
L 628 4666 
L 2053 4666 
Q 2853 4666 3247 4331 
Q 3641 3997 3641 3322 
Q 3641 2881 3436 2590 
Q 3231 2300 2841 2188 
z
M 1259 4147 
L 1259 2491 
L 2053 2491 
Q 2509 2491 2742 2702 
Q 2975 2913 2975 3322 
Q 2975 3731 2742 3939 
Q 2509 4147 2053 4147 
L 1259 4147 
z
" transform="scale(0.015625)"/>
     </defs>
     <use xlink:href="#DejaVuSans-57"/>
     <use xlink:href="#DejaVuSans-46" x="98.876953"/>
     <use xlink:href="#DejaVuSans-52" x="156.396484"/>
    </g>
   </g>
   <g id="text_18">
    <!-- Main-L -->
    <g transform="translate(361.832136 121.027325)scale(0.08 -0.08)">
     <defs>
      <path id="DejaVuSans-4d" d="M 628 4666 
L 1569 4666 
L 2759 1491 
L 3956 4666 
L 4897 4666 
L 4897 0 
L 4281 0 
L 4281 4097 
L 3078 897 
L 2444 897 
L 1241 4097 
L 1241 0 
L 628 0 
L 628 4666 
z
" transform="scale(0.015625)"/>
      <path id="DejaVuSans-2d" d="M 313 2009 
L 1997 2009 
L 1997 1497 
L 313 1497 
L 313 2009 
z
" transform="scale(0.015625)"/>
     </defs>
     <use xlink:href="#DejaVuSans-4d"/>
     <use xlink:href="#DejaVuSans-61" x="86.279297"/>
     <use xlink:href="#DejaVuSans-69" x="147.558594"/>
     <use xlink:href="#DejaVuSans-6e" x="175.341797"/>
     <use xlink:href="#DejaVuSans-2d" x="238.720703"/>
     <use xlink:href="#DejaVuSans-4c" x="274.804688"/>
    </g>
   </g>
   <g id="text_19">
    <!-- Main-R -->
    <g transform="translate(361.832136 50.022234)scale(0.08 -0.08)">
     <use xlink:href="#DejaVuSans-4d"/>
     <use xlink:href="#DejaVuSans-61" x="86.279297"/>
     <use xlink:href="#DejaVuSans-69" x="147.558594"/>
     <use xlink:href="#DejaVuSans-6e" x="175.341797"/>
     <use xlink:href="#DejaVuSans-2d" x="238.720703"/>
     <use xlink:href="#DejaVuSans-52" x="274.804688"/>
    </g>
   </g>
   <g id="text_20">
    <!-- AFL -->
    <g transform="translate(361.832136 90.192623)scale(0.08 -0.08)">
     <defs>
      <path id="DejaVuSans-41" d="M 2188 4044 
L 1331 1722 
L 3047 1722 
L 2188 4044 
z
M 1831 4666 
L 2547 4666 
L 4325 0 
L 3669 0 
L 3244 1197 
L 1141 1197 
L 716 0 
L 50 0 
L 1831 4666 
z
" transform="scale(0.015625)"/>
     </defs>
     <use xlink:href="#DejaVuSans-41"/>
     <use xlink:href="#DejaVuSans-46" x="68.408203"/>
     <use xlink:href="#DejaVuSans-4c" x="125.927734"/>
    </g>
   </g>
   <g id="text_21">
    <!-- AFR -->
    <g transform="translate(361.832136 118.917818)scale(0.08 -0.08)">
     <use xlink:href="#DejaVuSans-41"/>
     <use xlink:href="#DejaVuSans-46" x="68.408203"/>
     <use xlink:href="#DejaVuSans-52" x="125.927734"/>
    </g>
   </g>
   <g id="text_22">
    <!-- Nonfinal -->
    <g transform="translate(361.832136 90.057974)scale(0.08 -0.08)">
     <defs>
      <path id="DejaVuSans-4e" d="M 628 4666 
L 1478 4666 
L 3547 763 
L 3547 4666 
L 4159 4666 
L 4159 0 
L 3309 0 
L 1241 3903 
L 1241 0 
L 628 0 
L 628 4666 
z
" transform="scale(0.015625)"/>
      <path id="DejaVuSans-66" d="M 2375 4863 
L 2375 4384 
L 1825 4384 
Q 1516 4384 1395 4259 
Q 1275 4134 1275 3809 
L 1275 3500 
L 2222 3500 
L 2222 3053 
L 1275 3053 
L 1275 0 
L 697 0 
L 697 3053 
L 147 3053 
L 147 3500 
L 697 3500 
L 697 3744 
Q 697 4328 969 4595 
Q 1241 4863 1831 4863 
L 2375 4863 
z
" transform="scale(0.015625)"/>
      <path id="DejaVuSans-6c" d="M 603 4863 
L 1178 4863 
L 1178 0 
L 603 0 
L 603 4863 
z
" transform="scale(0.015625)"/>
     </defs>
     <use xlink:href="#DejaVuSans-4e"/>
     <use xlink:href="#DejaVuSans-6f" x="74.804688"/>
     <use xlink:href="#DejaVuSans-6e" x="135.986328"/>
     <use xlink:href="#DejaVuSans-66" x="199.365234"/>
     <use xlink:href="#DejaVuSans-69" x="234.570312"/>
     <use xlink:href="#DejaVuSans-6e" x="262.353516"/>
     <use xlink:href="#DejaVuSans-61" x="325.732422"/>
     <use xlink:href="#DejaVuSans-6c" x="387.011719"/>
    </g>
   </g>
   <g id="text_23">
    <!-- Trochaic -->
    <g transform="translate(361.832136 63.352519)scale(0.08 -0.08)">
     <defs>
      <path id="DejaVuSans-54" d="M -19 4666 
L 3928 4666 
L 3928 4134 
L 2272 4134 
L 2272 0 
L 1638 0 
L 1638 4134 
L -19 4134 
L -19 4666 
z
" transform="scale(0.015625)"/>
      <path id="DejaVuSans-68" d="M 3513 2113 
L 3513 0 
L 2938 0 
L 2938 2094 
Q 2938 2591 2744 2837 
Q 2550 3084 2163 3084 
Q 1697 3084 1428 2787 
Q 1159 2491 1159 1978 
L 1159 0 
L 581 0 
L 581 4863 
L 1159 4863 
L 1159 2956 
Q 1366 3272 1645 3428 
Q 1925 3584 2291 3584 
Q 2894 3584 3203 3211 
Q 3513 2838 3513 2113 
z
" transform="scale(0.015625)"/>
     </defs>
     <use xlink:href="#DejaVuSans-54"/>
     <use xlink:href="#DejaVuSans-72" x="46.333984"/>
     <use xlink:href="#DejaVuSans-6f" x="85.197266"/>
     <use xlink:href="#DejaVuSans-63" x="146.378906"/>
     <use xlink:href="#DejaVuSans-68" x="201.359375"/>
     <use xlink:href="#DejaVuSans-61" x="264.738281"/>
     <use xlink:href="#DejaVuSans-69" x="326.017578"/>
     <use xlink:href="#DejaVuSans-63" x="353.800781"/>
    </g>
   </g>
  </g>
  <g id="axes_2">
   <g id="patch_7">
    <path d="M 57.6 307.584 
L 414.72 307.584 
L 414.72 186.624 
L 57.6 186.624 
z
" style="fill: #ffffff"/>
   </g>
   <g id="matplotlib.axis_3">
    <g id="xtick_8">
     <g id="line2d_24">
      <g>
       <use xlink:href="#medd27ff9c6" x="71.480158" y="307.584" style="stroke: #000000; stroke-width: 0.8"/>
      </g>
     </g>
     <g id="text_24">
      <!-- 0 -->
      <g transform="translate(68.298908 322.182437)scale(0.1 -0.1)">
       <use xlink:href="#DejaVuSans-30"/>
      </g>
     </g>
    </g>
    <g id="xtick_9">
     <g id="line2d_25">
      <g>
       <use xlink:href="#medd27ff9c6" x="118.531542" y="307.584" style="stroke: #000000; stroke-width: 0.8"/>
      </g>
     </g>
     <g id="text_25">
      <!-- 20 -->
      <g transform="translate(112.169042 322.182437)scale(0.1 -0.1)">
       <use xlink:href="#DejaVuSans-32"/>
       <use xlink:href="#DejaVuSans-30" x="63.623047"/>
      </g>
     </g>
    </g>
    <g id="xtick_10">
     <g id="line2d_26">
      <g>
       <use xlink:href="#medd27ff9c6" x="165.582925" y="307.584" style="stroke: #000000; stroke-width: 0.8"/>
      </g>
     </g>
     <g id="text_26">
      <!-- 40 -->
      <g transform="translate(159.220425 322.182437)scale(0.1 -0.1)">
       <use xlink:href="#DejaVuSans-34"/>
       <use xlink:href="#DejaVuSans-30" x="63.623047"/>
      </g>
     </g>
    </g>
    <g id="xtick_11">
     <g id="line2d_27">
      <g>
       <use xlink:href="#medd27ff9c6" x="212.634308" y="307.584" style="stroke: #000000; stroke-width: 0.8"/>
      </g>
     </g>
     <g id="text_27">
      <!-- 60 -->
      <g transform="translate(206.271808 322.182437)scale(0.1 -0.1)">
       <use xlink:href="#DejaVuSans-36"/>
       <use xlink:href="#DejaVuSans-30" x="63.623047"/>
      </g>
     </g>
    </g>
    <g id="xtick_12">
     <g id="line2d_28">
      <g>
       <use xlink:href="#medd27ff9c6" x="259.685692" y="307.584" style="stroke: #000000; stroke-width: 0.8"/>
      </g>
     </g>
     <g id="text_28">
      <!-- 80 -->
      <g transform="translate(253.323192 322.182437)scale(0.1 -0.1)">
       <use xlink:href="#DejaVuSans-38"/>
       <use xlink:href="#DejaVuSans-30" x="63.623047"/>
      </g>
     </g>
    </g>
    <g id="xtick_13">
     <g id="line2d_29">
      <g>
       <use xlink:href="#medd27ff9c6" x="306.737075" y="307.584" style="stroke: #000000; stroke-width: 0.8"/>
      </g>
     </g>
     <g id="text_29">
      <!-- 100 -->
      <g transform="translate(297.193325 322.182437)scale(0.1 -0.1)">
       <use xlink:href="#DejaVuSans-31"/>
       <use xlink:href="#DejaVuSans-30" x="63.623047"/>
       <use xlink:href="#DejaVuSans-30" x="127.246094"/>
      </g>
     </g>
    </g>
    <g id="xtick_14">
     <g id="line2d_30">
      <g>
       <use xlink:href="#medd27ff9c6" x="353.788458" y="307.584" style="stroke: #000000; stroke-width: 0.8"/>
      </g>
     </g>
     <g id="text_30">
      <!-- 120 -->
      <g transform="translate(344.244708 322.182437)scale(0.1 -0.1)">
       <use xlink:href="#DejaVuSans-31"/>
       <use xlink:href="#DejaVuSans-32" x="63.623047"/>
       <use xlink:href="#DejaVuSans-30" x="127.246094"/>
      </g>
     </g>
    </g>
    <g id="xtick_15">
     <g id="line2d_31">
      <g>
       <use xlink:href="#medd27ff9c6" x="400.839842" y="307.584" style="stroke: #000000; stroke-width: 0.8"/>
      </g>
     </g>
     <g id="text_31">
      <!-- 140 -->
      <g transform="translate(391.296092 322.182437)scale(0.1 -0.1)">
       <use xlink:href="#DejaVuSans-31"/>
       <use xlink:href="#DejaVuSans-34" x="63.623047"/>
       <use xlink:href="#DejaVuSans-30" x="127.246094"/>
      </g>
     </g>
    </g>
   </g>
   <g id="matplotlib.axis_4">
    <g id="ytick_5">
     <g id="line2d_32">
      <g>
       <use xlink:href="#m7281434a8d" x="57.6" y="302.099803" style="stroke: #000000; stroke-width: 0.8"/>
      </g>
     </g>
     <g id="text_32">
      <!-- 0 -->
      <g transform="translate(44.2375 305.899022)scale(0.1 -0.1)">
       <use xlink:href="#DejaVuSans-30"/>
      </g>
     </g>
    </g>
    <g id="ytick_6">
     <g id="line2d_33">
      <g>
       <use xlink:href="#m7281434a8d" x="57.6" y="274.12991" style="stroke: #000000; stroke-width: 0.8"/>
      </g>
     </g>
     <g id="text_33">
      <!-- 2000 -->
      <g transform="translate(25.15 277.929128)scale(0.1 -0.1)">
       <use xlink:href="#DejaVuSans-32"/>
       <use xlink:href="#DejaVuSans-30" x="63.623047"/>
       <use xlink:href="#DejaVuSans-30" x="127.246094"/>
       <use xlink:href="#DejaVuSans-30" x="190.869141"/>
      </g>
     </g>
    </g>
    <g id="ytick_7">
     <g id="line2d_34">
      <g>
       <use xlink:href="#m7281434a8d" x="57.6" y="246.160016" style="stroke: #000000; stroke-width: 0.8"/>
      </g>
     </g>
     <g id="text_34">
      <!-- 4000 -->
      <g transform="translate(25.15 249.959235)scale(0.1 -0.1)">
       <use xlink:href="#DejaVuSans-34"/>
       <use xlink:href="#DejaVuSans-30" x="63.623047"/>
       <use xlink:href="#DejaVuSans-30" x="127.246094"/>
       <use xlink:href="#DejaVuSans-30" x="190.869141"/>
      </g>
     </g>
    </g>
    <g id="ytick_8">
     <g id="line2d_35">
      <g>
       <use xlink:href="#m7281434a8d" x="57.6" y="218.190123" style="stroke: #000000; stroke-width: 0.8"/>
      </g>
     </g>
     <g id="text_35">
      <!-- 6000 -->
      <g transform="translate(25.15 221.989341)scale(0.1 -0.1)">
       <use xlink:href="#DejaVuSans-36"/>
       <use xlink:href="#DejaVuSans-30" x="63.623047"/>
       <use xlink:href="#DejaVuSans-30" x="127.246094"/>
       <use xlink:href="#DejaVuSans-30" x="190.869141"/>
      </g>
     </g>
    </g>
    <g id="ytick_9">
     <g id="line2d_36">
      <g>
       <use xlink:href="#m7281434a8d" x="57.6" y="190.220229" style="stroke: #000000; stroke-width: 0.8"/>
      </g>
     </g>
     <g id="text_36">
      <!-- 8000 -->
      <g transform="translate(25.15 194.019448)scale(0.1 -0.1)">
       <use xlink:href="#DejaVuSans-38"/>
       <use xlink:href="#DejaVuSans-30" x="63.623047"/>
       <use xlink:href="#DejaVuSans-30" x="127.246094"/>
       <use xlink:href="#DejaVuSans-30" x="190.869141"/>
      </g>
     </g>
    </g>
   </g>
   <g id="line2d_37">
    <path d="M 73.832727 302.085818 
L 132.646957 302.029878 
L 134.999526 301.904014 
L 139.704664 302.043863 
L 146.762372 302.015893 
L 149.114941 301.72221 
L 153.820079 302.029878 
L 156.172648 302.001909 
L 158.525217 301.806119 
L 160.877787 302.071833 
L 163.230356 301.708225 
L 165.582925 302.001909 
L 167.935494 301.386571 
L 170.288063 301.302661 
L 172.640632 300.22582 
L 174.993202 301.750179 
L 177.345771 301.55439 
L 179.69834 301.890029 
L 182.050909 301.820104 
L 184.403478 301.987924 
L 189.108617 301.120857 
L 191.461186 300.533489 
L 193.813755 301.904014 
L 196.166324 300.575444 
L 198.518893 301.008977 
L 200.871462 301.750179 
L 203.224032 301.66627 
L 205.576601 301.190782 
L 207.92917 301.428526 
L 210.281739 301.106872 
L 212.634308 301.302661 
L 214.986877 300.435594 
L 217.339447 301.596345 
L 219.692016 301.372586 
L 222.044585 300.925068 
L 224.397154 301.512435 
L 226.749723 299.414693 
L 229.102292 300.911083 
L 231.454862 301.848074 
L 233.807431 301.890029 
L 236.16 301.736195 
L 238.512569 301.736195 
L 240.865138 300.603414 
L 243.217708 301.69424 
L 245.570277 299.638452 
L 247.922846 300.827173 
L 250.275415 299.932136 
L 252.627984 300.715293 
L 254.980553 297.121162 
L 257.333123 295.946427 
L 259.685692 301.890029 
L 262.038261 301.959954 
L 264.39083 300.141911 
L 266.743399 294.282218 
L 269.095968 299.218904 
L 271.448538 299.848227 
L 273.801107 301.792134 
L 276.153676 296.631689 
L 278.506245 297.330936 
L 280.858814 301.078902 
L 283.211383 301.736195 
L 285.563953 300.28176 
L 287.916522 299.260859 
L 290.269091 300.323715 
L 292.62166 300.799203 
L 294.974229 293.079512 
L 299.679368 298.95319 
L 302.031937 300.953037 
L 304.384506 296.715599 
L 306.737075 297.694545 
L 309.089644 298.128078 
L 311.442213 289.009893 
L 313.794783 295.806577 
L 316.147352 301.55439 
L 318.499921 301.58236 
L 320.85249 297.988229 
L 323.205059 291.555153 
L 325.557628 295.736652 
L 327.910198 290.98177 
L 330.262767 299.121009 
L 332.615336 298.827326 
L 334.967905 297.051237 
L 337.320474 284.003282 
L 339.673043 256.257148 
L 342.025613 298.505672 
L 344.378182 295.065375 
L 346.730751 294.198308 
L 349.08332 298.225973 
L 351.435889 295.009435 
L 353.788458 301.834089 
L 356.141028 302.085818 
L 358.493597 299.176949 
L 360.846166 301.428526 
L 363.198735 300.002061 
L 365.551304 296.40793 
L 367.903874 287.597413 
L 370.256443 300.295745 
L 372.609012 298.533642 
L 374.961581 289.807035 
L 377.31415 301.162812 
L 379.666719 297.7365 
L 382.019289 212.624114 
L 384.371858 293.708835 
L 386.724427 260.732331 
L 389.076996 280.856669 
L 391.429565 297.512741 
L 393.782134 296.757553 
L 396.134704 233.321835 
L 398.487273 192.122182 
L 398.487273 192.122182 
" clip-path="url(#pa17f7f9965)" style="fill: none; stroke: #1f77b4; stroke-width: 1.5; stroke-linecap: square"/>
   </g>
   <g id="patch_8">
    <path d="M 57.6 307.584 
L 57.6 186.624 
" style="fill: none; stroke: #000000; stroke-width: 0.8; stroke-linejoin: miter; stroke-linecap: square"/>
   </g>
   <g id="patch_9">
    <path d="M 414.72 307.584 
L 414.72 186.624 
" style="fill: none; stroke: #000000; stroke-width: 0.8; stroke-linejoin: miter; stroke-linecap: square"/>
   </g>
   <g id="patch_10">
    <path d="M 57.6 307.584 
L 414.72 307.584 
" style="fill: none; stroke: #000000; stroke-width: 0.8; stroke-linejoin: miter; stroke-linecap: square"/>
   </g>
   <g id="patch_11">
    <path d="M 57.6 186.624 
L 414.72 186.624 
" style="fill: none; stroke: #000000; stroke-width: 0.8; stroke-linejoin: miter; stroke-linecap: square"/>
   </g>
  </g>
 </g>
 <defs>
  <clipPath id="p078baa0c46">
   <rect x="57.6" y="41.472" width="357.12" height="120.96"/>
  </clipPath>
  <clipPath id="pa17f7f9965">
   <rect x="57.6" y="186.624" width="357.12" height="120.96"/>
  </clipPath>
 </defs>
</svg>
