<?xml version="1.0" encoding="utf-8" standalone="no"?>
<!DOCTYPE svg PUBLIC "-//W3C//DTD SVG 1.1//EN"
  "http://www.w3.org/Graphics/SVG/1.1/DTD/svg11.dtd">
<svg xmlns:xlink="http://www.w3.org/1999/xlink" width="460.8pt" height="345.6pt" viewBox="0 0 460.8 345.6" xmlns="http://www.w3.org/2000/svg" version="1.1">
 <metadata>
  <rdf:RDF xmlns:dc="http://purl.org/dc/elements/1.1/" xmlns:cc="http://creativecommons.org/ns#" xmlns:rdf="http://www.w3.org/1999/02/22-rdf-syntax-ns#">
   <cc:Work>
    <dc:type rdf:resource="http://purl.org/dc/dcmitype/StillImage"/>
    <dc:date>2022-05-13T13:44:03.565530</dc:date>
    <dc:format>image/svg+xml</dc:format>
    <dc:creator>
     <cc:Agent>
      <dc:title>Matplotlib v3.5.1, https://matplotlib.org/</dc:title>
     </cc:Agent>
    </dc:creator>
   </cc:Work>
  </rdf:RDF>
 </metadata>
 <defs>
  <style type="text/css">*{stroke-linejoin: round; stroke-linecap: butt}</style>
 </defs>
 <g id="figure_1">
  <g id="patch_1">
   <path d="M 0 345.6 
L 460.8 345.6 
L 460.8 0 
L 0 0 
z
" style="fill: #ffffff"/>
  </g>
  <g id="axes_1">
   <g id="patch_2">
    <path d="M 57.6 162.432 
L 414.72 162.432 
L 414.72 41.472 
L 57.6 41.472 
z
" style="fill: #ffffff"/>
   </g>
   <g id="matplotlib.axis_1">
    <g id="xtick_1">
     <g id="line2d_1">
      <defs>
       <path id="m1d33d3d0ab" d="M 0 0 
L 0 3.5 
" style="stroke: #000000; stroke-width: 0.8"/>
      </defs>
      <g>
       <use xlink:href="#m1d33d3d0ab" x="73.827491" y="162.432" style="stroke: #000000; stroke-width: 0.8"/>
      </g>
     </g>
     <g id="text_1">
      <!-- 0 -->
      <g transform="translate(70.646241 177.030437)scale(0.1 -0.1)">
       <defs>
        <path id="DejaVuSans-30" d="M 2034 4250 
Q 1547 4250 1301 3770 
Q 1056 3291 1056 2328 
Q 1056 1369 1301 889 
Q 1547 409 2034 409 
Q 2525 409 2770 889 
Q 3016 1369 3016 2328 
Q 3016 3291 2770 3770 
Q 2525 4250 2034 4250 
z
M 2034 4750 
Q 2819 4750 3233 4129 
Q 3647 3509 3647 2328 
Q 3647 1150 3233 529 
Q 2819 -91 2034 -91 
Q 1250 -91 836 529 
Q 422 1150 422 2328 
Q 422 3509 836 4129 
Q 1250 4750 2034 4750 
z
" transform="scale(0.015625)"/>
       </defs>
       <use xlink:href="#DejaVuSans-30"/>
      </g>
     </g>
    </g>
    <g id="xtick_2">
     <g id="line2d_2">
      <g>
       <use xlink:href="#m1d33d3d0ab" x="126.191972" y="162.432" style="stroke: #000000; stroke-width: 0.8"/>
      </g>
     </g>
     <g id="text_2">
      <!-- 10000 -->
      <g transform="translate(110.285722 177.030437)scale(0.1 -0.1)">
       <defs>
        <path id="DejaVuSans-31" d="M 794 531 
L 1825 531 
L 1825 4091 
L 703 3866 
L 703 4441 
L 1819 4666 
L 2450 4666 
L 2450 531 
L 3481 531 
L 3481 0 
L 794 0 
L 794 531 
z
" transform="scale(0.015625)"/>
       </defs>
       <use xlink:href="#DejaVuSans-31"/>
       <use xlink:href="#DejaVuSans-30" x="63.623047"/>
       <use xlink:href="#DejaVuSans-30" x="127.246094"/>
       <use xlink:href="#DejaVuSans-30" x="190.869141"/>
       <use xlink:href="#DejaVuSans-30" x="254.492188"/>
      </g>
     </g>
    </g>
    <g id="xtick_3">
     <g id="line2d_3">
      <g>
       <use xlink:href="#m1d33d3d0ab" x="178.556453" y="162.432" style="stroke: #000000; stroke-width: 0.8"/>
      </g>
     </g>
     <g id="text_3">
      <!-- 20000 -->
      <g transform="translate(162.650203 177.030437)scale(0.1 -0.1)">
       <defs>
        <path id="DejaVuSans-32" d="M 1228 531 
L 3431 531 
L 3431 0 
L 469 0 
L 469 531 
Q 828 903 1448 1529 
Q 2069 2156 2228 2338 
Q 2531 2678 2651 2914 
Q 2772 3150 2772 3378 
Q 2772 3750 2511 3984 
Q 2250 4219 1831 4219 
Q 1534 4219 1204 4116 
Q 875 4013 500 3803 
L 500 4441 
Q 881 4594 1212 4672 
Q 1544 4750 1819 4750 
Q 2544 4750 2975 4387 
Q 3406 4025 3406 3419 
Q 3406 3131 3298 2873 
Q 3191 2616 2906 2266 
Q 2828 2175 2409 1742 
Q 1991 1309 1228 531 
z
" transform="scale(0.015625)"/>
       </defs>
       <use xlink:href="#DejaVuSans-32"/>
       <use xlink:href="#DejaVuSans-30" x="63.623047"/>
       <use xlink:href="#DejaVuSans-30" x="127.246094"/>
       <use xlink:href="#DejaVuSans-30" x="190.869141"/>
       <use xlink:href="#DejaVuSans-30" x="254.492188"/>
      </g>
     </g>
    </g>
    <g id="xtick_4">
     <g id="line2d_4">
      <g>
       <use xlink:href="#m1d33d3d0ab" x="230.920934" y="162.432" style="stroke: #000000; stroke-width: 0.8"/>
      </g>
     </g>
     <g id="text_4">
      <!-- 30000 -->
      <g transform="translate(215.014684 177.030437)scale(0.1 -0.1)">
       <defs>
        <path id="DejaVuSans-33" d="M 2597 2516 
Q 3050 2419 3304 2112 
Q 3559 1806 3559 1356 
Q 3559 666 3084 287 
Q 2609 -91 1734 -91 
Q 1441 -91 1130 -33 
Q 819 25 488 141 
L 488 750 
Q 750 597 1062 519 
Q 1375 441 1716 441 
Q 2309 441 2620 675 
Q 2931 909 2931 1356 
Q 2931 1769 2642 2001 
Q 2353 2234 1838 2234 
L 1294 2234 
L 1294 2753 
L 1863 2753 
Q 2328 2753 2575 2939 
Q 2822 3125 2822 3475 
Q 2822 3834 2567 4026 
Q 2313 4219 1838 4219 
Q 1578 4219 1281 4162 
Q 984 4106 628 3988 
L 628 4550 
Q 988 4650 1302 4700 
Q 1616 4750 1894 4750 
Q 2613 4750 3031 4423 
Q 3450 4097 3450 3541 
Q 3450 3153 3228 2886 
Q 3006 2619 2597 2516 
z
" transform="scale(0.015625)"/>
       </defs>
       <use xlink:href="#DejaVuSans-33"/>
       <use xlink:href="#DejaVuSans-30" x="63.623047"/>
       <use xlink:href="#DejaVuSans-30" x="127.246094"/>
       <use xlink:href="#DejaVuSans-30" x="190.869141"/>
       <use xlink:href="#DejaVuSans-30" x="254.492188"/>
      </g>
     </g>
    </g>
    <g id="xtick_5">
     <g id="line2d_5">
      <g>
       <use xlink:href="#m1d33d3d0ab" x="283.285415" y="162.432" style="stroke: #000000; stroke-width: 0.8"/>
      </g>
     </g>
     <g id="text_5">
      <!-- 40000 -->
      <g transform="translate(267.379165 177.030437)scale(0.1 -0.1)">
       <defs>
        <path id="DejaVuSans-34" d="M 2419 4116 
L 825 1625 
L 2419 1625 
L 2419 4116 
z
M 2253 4666 
L 3047 4666 
L 3047 1625 
L 3713 1625 
L 3713 1100 
L 3047 1100 
L 3047 0 
L 2419 0 
L 2419 1100 
L 313 1100 
L 313 1709 
L 2253 4666 
z
" transform="scale(0.015625)"/>
       </defs>
       <use xlink:href="#DejaVuSans-34"/>
       <use xlink:href="#DejaVuSans-30" x="63.623047"/>
       <use xlink:href="#DejaVuSans-30" x="127.246094"/>
       <use xlink:href="#DejaVuSans-30" x="190.869141"/>
       <use xlink:href="#DejaVuSans-30" x="254.492188"/>
      </g>
     </g>
    </g>
    <g id="xtick_6">
     <g id="line2d_6">
      <g>
       <use xlink:href="#m1d33d3d0ab" x="335.649896" y="162.432" style="stroke: #000000; stroke-width: 0.8"/>
      </g>
     </g>
     <g id="text_6">
      <!-- 50000 -->
      <g transform="translate(319.743646 177.030437)scale(0.1 -0.1)">
       <defs>
        <path id="DejaVuSans-35" d="M 691 4666 
L 3169 4666 
L 3169 4134 
L 1269 4134 
L 1269 2991 
Q 1406 3038 1543 3061 
Q 1681 3084 1819 3084 
Q 2600 3084 3056 2656 
Q 3513 2228 3513 1497 
Q 3513 744 3044 326 
Q 2575 -91 1722 -91 
Q 1428 -91 1123 -41 
Q 819 9 494 109 
L 494 744 
Q 775 591 1075 516 
Q 1375 441 1709 441 
Q 2250 441 2565 725 
Q 2881 1009 2881 1497 
Q 2881 1984 2565 2268 
Q 2250 2553 1709 2553 
Q 1456 2553 1204 2497 
Q 953 2441 691 2322 
L 691 4666 
z
" transform="scale(0.015625)"/>
       </defs>
       <use xlink:href="#DejaVuSans-35"/>
       <use xlink:href="#DejaVuSans-30" x="63.623047"/>
       <use xlink:href="#DejaVuSans-30" x="127.246094"/>
       <use xlink:href="#DejaVuSans-30" x="190.869141"/>
       <use xlink:href="#DejaVuSans-30" x="254.492188"/>
      </g>
     </g>
    </g>
    <g id="xtick_7">
     <g id="line2d_7">
      <g>
       <use xlink:href="#m1d33d3d0ab" x="388.014377" y="162.432" style="stroke: #000000; stroke-width: 0.8"/>
      </g>
     </g>
     <g id="text_7">
      <!-- 60000 -->
      <g transform="translate(372.108127 177.030437)scale(0.1 -0.1)">
       <defs>
        <path id="DejaVuSans-36" d="M 2113 2584 
Q 1688 2584 1439 2293 
Q 1191 2003 1191 1497 
Q 1191 994 1439 701 
Q 1688 409 2113 409 
Q 2538 409 2786 701 
Q 3034 994 3034 1497 
Q 3034 2003 2786 2293 
Q 2538 2584 2113 2584 
z
M 3366 4563 
L 3366 3988 
Q 3128 4100 2886 4159 
Q 2644 4219 2406 4219 
Q 1781 4219 1451 3797 
Q 1122 3375 1075 2522 
Q 1259 2794 1537 2939 
Q 1816 3084 2150 3084 
Q 2853 3084 3261 2657 
Q 3669 2231 3669 1497 
Q 3669 778 3244 343 
Q 2819 -91 2113 -91 
Q 1303 -91 875 529 
Q 447 1150 447 2328 
Q 447 3434 972 4092 
Q 1497 4750 2381 4750 
Q 2619 4750 2861 4703 
Q 3103 4656 3366 4563 
z
" transform="scale(0.015625)"/>
       </defs>
       <use xlink:href="#DejaVuSans-36"/>
       <use xlink:href="#DejaVuSans-30" x="63.623047"/>
       <use xlink:href="#DejaVuSans-30" x="127.246094"/>
       <use xlink:href="#DejaVuSans-30" x="190.869141"/>
       <use xlink:href="#DejaVuSans-30" x="254.492188"/>
      </g>
     </g>
    </g>
   </g>
   <g id="matplotlib.axis_2">
    <g id="ytick_1">
     <g id="line2d_8">
      <defs>
       <path id="m8b235d7a4a" d="M 0 0 
L -3.5 0 
" style="stroke: #000000; stroke-width: 0.8"/>
      </defs>
      <g>
       <use xlink:href="#m8b235d7a4a" x="57.6" y="140.409228" style="stroke: #000000; stroke-width: 0.8"/>
      </g>
     </g>
     <g id="text_8">
      <!-- 80 -->
      <g transform="translate(37.875 144.208447)scale(0.1 -0.1)">
       <defs>
        <path id="DejaVuSans-38" d="M 2034 2216 
Q 1584 2216 1326 1975 
Q 1069 1734 1069 1313 
Q 1069 891 1326 650 
Q 1584 409 2034 409 
Q 2484 409 2743 651 
Q 3003 894 3003 1313 
Q 3003 1734 2745 1975 
Q 2488 2216 2034 2216 
z
M 1403 2484 
Q 997 2584 770 2862 
Q 544 3141 544 3541 
Q 544 4100 942 4425 
Q 1341 4750 2034 4750 
Q 2731 4750 3128 4425 
Q 3525 4100 3525 3541 
Q 3525 3141 3298 2862 
Q 3072 2584 2669 2484 
Q 3125 2378 3379 2068 
Q 3634 1759 3634 1313 
Q 3634 634 3220 271 
Q 2806 -91 2034 -91 
Q 1263 -91 848 271 
Q 434 634 434 1313 
Q 434 1759 690 2068 
Q 947 2378 1403 2484 
z
M 1172 3481 
Q 1172 3119 1398 2916 
Q 1625 2713 2034 2713 
Q 2441 2713 2670 2916 
Q 2900 3119 2900 3481 
Q 2900 3844 2670 4047 
Q 2441 4250 2034 4250 
Q 1625 4250 1398 4047 
Q 1172 3844 1172 3481 
z
" transform="scale(0.015625)"/>
       </defs>
       <use xlink:href="#DejaVuSans-38"/>
       <use xlink:href="#DejaVuSans-30" x="63.623047"/>
      </g>
     </g>
    </g>
    <g id="ytick_2">
     <g id="line2d_9">
      <g>
       <use xlink:href="#m8b235d7a4a" x="57.6" y="104.355577" style="stroke: #000000; stroke-width: 0.8"/>
      </g>
     </g>
     <g id="text_9">
      <!-- 90 -->
      <g transform="translate(37.875 108.154796)scale(0.1 -0.1)">
       <defs>
        <path id="DejaVuSans-39" d="M 703 97 
L 703 672 
Q 941 559 1184 500 
Q 1428 441 1663 441 
Q 2288 441 2617 861 
Q 2947 1281 2994 2138 
Q 2813 1869 2534 1725 
Q 2256 1581 1919 1581 
Q 1219 1581 811 2004 
Q 403 2428 403 3163 
Q 403 3881 828 4315 
Q 1253 4750 1959 4750 
Q 2769 4750 3195 4129 
Q 3622 3509 3622 2328 
Q 3622 1225 3098 567 
Q 2575 -91 1691 -91 
Q 1453 -91 1209 -44 
Q 966 3 703 97 
z
M 1959 2075 
Q 2384 2075 2632 2365 
Q 2881 2656 2881 3163 
Q 2881 3666 2632 3958 
Q 2384 4250 1959 4250 
Q 1534 4250 1286 3958 
Q 1038 3666 1038 3163 
Q 1038 2656 1286 2365 
Q 1534 2075 1959 2075 
z
" transform="scale(0.015625)"/>
       </defs>
       <use xlink:href="#DejaVuSans-39"/>
       <use xlink:href="#DejaVuSans-30" x="63.623047"/>
      </g>
     </g>
    </g>
    <g id="ytick_3">
     <g id="line2d_10">
      <g>
       <use xlink:href="#m8b235d7a4a" x="57.6" y="68.301925" style="stroke: #000000; stroke-width: 0.8"/>
      </g>
     </g>
     <g id="text_10">
      <!-- 100 -->
      <g transform="translate(31.5125 72.101144)scale(0.1 -0.1)">
       <use xlink:href="#DejaVuSans-31"/>
       <use xlink:href="#DejaVuSans-30" x="63.623047"/>
       <use xlink:href="#DejaVuSans-30" x="127.246094"/>
      </g>
     </g>
    </g>
   </g>
   <g id="line2d_11">
    <path d="M 73.832727 68.301925 
L 73.963638 82.723386 
L 74.000294 82.723386 
L 74.016003 81.822045 
L 74.021239 85.42741 
L 74.09455 85.42741 
L 74.110259 85.42741 
L 74.225461 89.032775 
L 74.262116 89.032775 
L 74.283062 88.131434 
L 74.288298 91.736799 
L 74.356372 91.736799 
L 74.497756 91.736799 
L 74.612958 95.342164 
L 74.633904 95.342164 
L 74.754342 101.831821 
L 75.094711 101.831821 
L 75.209913 105.437186 
L 75.241332 105.437186 
L 75.356534 109.042551 
L 75.916834 109.042551 
L 76.032035 112.647917 
L 76.377641 112.647917 
L 76.492843 111.926844 
L 79.461909 111.926844 
L 79.577111 111.325949 
L 79.969844 111.325949 
L 80.085046 114.931314 
L 82.331483 114.931314 
L 82.446684 118.53668 
L 82.462394 118.53668 
L 82.577596 117.815607 
L 83.048876 117.815607 
L 83.164078 121.420972 
L 109.765234 121.420972 
L 109.880436 125.026337 
L 120.835085 125.026337 
L 120.950287 128.631702 
L 129.904613 128.631702 
L 130.019815 132.237067 
L 152.321848 132.237067 
L 152.43705 135.842432 
L 172.72305 135.842432 
L 172.838251 139.447797 
L 193.019522 139.447797 
L 193.134724 143.053162 
L 253.704719 143.053162 
L 253.819921 146.658528 
L 398.487273 146.658528 
L 398.487273 146.658528 
" clip-path="url(#pfcde01317f)" style="fill: none; stroke: #1f77b4; stroke-width: 1.5; stroke-linecap: square"/>
   </g>
   <g id="line2d_12">
    <path d="M 73.832727 67.400584 
L 73.837964 67.400584 
L 73.879855 72.808632 
L 73.958402 63.795219 
L 74.000294 63.795219 
L 74.120732 71.005949 
L 74.497756 71.005949 
L 74.612958 74.611314 
L 74.633904 74.611314 
L 74.712451 81.822045 
L 74.749106 78.21668 
L 75.099948 78.21668 
L 75.21515 81.822045 
L 75.241332 81.822045 
L 75.356534 78.21668 
L 76.377641 78.21668 
L 76.492843 81.822045 
L 80.126938 81.822045 
L 80.24214 85.42741 
L 82.462394 85.42741 
L 82.577596 89.032775 
L 83.048876 89.032775 
L 83.164078 85.42741 
L 106.44009 85.42741 
L 106.555291 89.032775 
L 109.021658 89.032775 
L 109.13686 92.63814 
L 109.765234 92.63814 
L 109.880436 89.032775 
L 253.704719 89.032775 
L 253.819921 92.63814 
L 398.487273 92.63814 
L 398.487273 92.63814 
" clip-path="url(#pfcde01317f)" style="fill: none; stroke: #ff7f0e; stroke-width: 1.5; stroke-linecap: square"/>
   </g>
   <g id="line2d_13">
    <path d="M 73.832727 71.907291 
L 73.853673 79.118021 
L 73.947929 77.315338 
L 74.000294 77.315338 
L 74.110259 88.131434 
L 74.120732 86.929645 
L 74.152151 86.929645 
L 74.267352 86.028304 
L 74.283062 86.028304 
L 74.398264 83.925174 
L 74.497756 83.925174 
L 74.518702 87.530539 
L 74.607722 86.629198 
L 75.063293 86.629198 
L 75.183731 84.826516 
L 75.518864 84.826516 
L 75.586937 83.925174 
L 75.592174 87.530539 
L 75.61312 87.530539 
L 75.916834 87.530539 
L 76.032035 86.328751 
L 78.294181 86.328751 
L 78.409383 89.934116 
L 79.461909 89.934116 
L 79.577111 89.333222 
L 79.969844 89.333222 
L 80.085046 88.431881 
L 81.572198 88.431881 
L 81.687399 87.530539 
L 82.331483 87.530539 
L 82.446684 86.629198 
L 83.038403 86.629198 
L 83.153605 85.727857 
L 92.77296 85.727857 
L 92.888162 84.826516 
L 97.244887 84.826516 
L 97.360089 88.431881 
L 120.835085 88.431881 
L 120.950287 87.530539 
L 129.904613 87.530539 
L 130.019815 86.629198 
L 152.321848 86.629198 
L 152.43705 90.234563 
L 172.72305 90.234563 
L 172.838251 93.839928 
L 193.019522 93.839928 
L 193.134724 92.938587 
L 322.579721 92.938587 
L 322.694923 92.037246 
L 398.487273 92.037246 
L 398.487273 92.037246 
" clip-path="url(#pfcde01317f)" style="fill: none; stroke: #2ca02c; stroke-width: 1.5; stroke-linecap: square"/>
   </g>
   <g id="line2d_14">
    <path d="M 73.832727 68.301925 
L 74.000294 68.301925 
L 74.115495 67.400584 
L 79.461909 67.400584 
L 79.577111 66.79969 
L 172.72305 66.79969 
L 172.838251 66.198796 
L 398.487273 66.198796 
L 398.487273 66.198796 
" clip-path="url(#pfcde01317f)" style="fill: none; stroke: #d62728; stroke-width: 1.5; stroke-linecap: square"/>
   </g>
   <g id="line2d_15">
    <path d="M 73.832727 68.301925 
L 74.000294 68.301925 
L 74.115495 71.907291 
L 74.262116 71.907291 
L 74.377318 71.005949 
L 74.497756 71.005949 
L 74.612958 74.611314 
L 398.487273 74.611314 
L 398.487273 74.611314 
" clip-path="url(#pfcde01317f)" style="fill: none; stroke: #9467bd; stroke-width: 1.5; stroke-linecap: square"/>
   </g>
   <g id="line2d_16">
    <path d="M 73.832727 71.907291 
L 73.958402 84.526069 
L 74.016003 84.526069 
L 74.141678 95.342164 
L 74.152151 95.342164 
L 74.267352 94.440823 
L 74.366845 94.440823 
L 74.482047 93.539481 
L 74.497756 93.539481 
L 74.518702 97.144846 
L 74.607722 96.243505 
L 74.701978 96.243505 
L 74.81718 99.84887 
L 75.063293 99.84887 
L 75.099948 98.046188 
L 75.105184 101.651553 
L 75.162785 101.651553 
L 75.518864 101.651553 
L 75.586937 100.750212 
L 75.592174 104.355577 
L 75.61312 104.355577 
L 76.377641 104.355577 
L 76.492843 107.960942 
L 79.461909 107.960942 
L 79.577111 107.360048 
L 79.969844 107.360048 
L 80.085046 106.458706 
L 80.126938 106.458706 
L 80.24214 110.064072 
L 81.572198 110.064072 
L 81.687399 109.16273 
L 82.331483 109.16273 
L 82.446684 108.261389 
L 82.462394 108.261389 
L 82.577596 111.866754 
L 83.038403 111.866754 
L 83.153605 110.965413 
L 92.77296 110.965413 
L 92.888162 110.064072 
L 106.44009 110.064072 
L 106.555291 113.669437 
L 109.021658 113.669437 
L 109.13686 117.274802 
L 120.835085 117.274802 
L 120.950287 116.373461 
L 129.904613 116.373461 
L 130.019815 115.472119 
L 152.321848 115.472119 
L 152.43705 119.077484 
L 172.72305 119.077484 
L 172.838251 122.682849 
L 193.019522 122.682849 
L 193.134724 121.781508 
L 253.704719 121.781508 
L 253.819921 125.386873 
L 322.579721 125.386873 
L 322.694923 124.485532 
L 398.487273 124.485532 
L 398.487273 124.485532 
" clip-path="url(#pfcde01317f)" style="fill: none; stroke: #8c564b; stroke-width: 1.5; stroke-linecap: square"/>
   </g>
   <g id="line2d_17">
    <path d="M 73.832727 67.400584 
L 73.848437 67.400584 
L 73.968875 65.597902 
L 74.068367 65.597902 
L 74.183569 64.69656 
L 74.262116 64.69656 
L 74.377318 63.795219 
L 74.497756 63.795219 
L 74.612958 63.074146 
L 74.701978 63.074146 
L 74.81718 62.353073 
L 75.099948 62.353073 
L 75.21515 61.451732 
L 76.377641 61.451732 
L 76.492843 60.730659 
L 80.126938 60.730659 
L 80.24214 59.829317 
L 82.462394 59.829317 
L 82.577596 59.108244 
L 106.44009 59.108244 
L 106.555291 58.206903 
L 109.021658 58.206903 
L 109.13686 57.305562 
L 253.704719 57.305562 
L 253.819921 56.404221 
L 398.487273 56.404221 
L 398.487273 56.404221 
" clip-path="url(#pfcde01317f)" style="fill: none; stroke: #e377c2; stroke-width: 1.5; stroke-linecap: square"/>
   </g>
   <g id="line2d_18">
    <path d="M 73.832727 71.907291 
L 73.8432 71.907291 
L 73.848437 71.005949 
L 73.879855 76.413997 
L 73.926983 76.413997 
L 74.068367 76.413997 
L 74.110259 80.019362 
L 74.178333 77.916232 
L 74.262116 77.916232 
L 74.283062 81.521598 
L 74.372081 79.418468 
L 74.497756 79.418468 
L 74.518702 83.023833 
L 74.607722 82.122492 
L 74.701978 82.122492 
L 74.81718 85.727857 
L 75.063293 85.727857 
L 75.099948 83.925174 
L 75.105184 87.530539 
L 75.162785 87.530539 
L 75.518864 87.530539 
L 75.634065 86.629198 
L 75.916834 86.629198 
L 76.032035 85.42741 
L 76.377641 85.42741 
L 76.492843 89.032775 
L 79.461909 89.032775 
L 79.577111 88.431881 
L 79.969844 88.431881 
L 80.085046 87.530539 
L 80.126938 87.530539 
L 80.24214 91.135905 
L 81.572198 91.135905 
L 81.687399 90.234563 
L 82.331483 90.234563 
L 82.446684 89.333222 
L 82.462394 89.333222 
L 82.577596 92.938587 
L 83.038403 92.938587 
L 83.153605 92.037246 
L 92.77296 92.037246 
L 92.888162 91.135905 
L 106.44009 91.135905 
L 106.555291 94.74127 
L 109.021658 94.74127 
L 109.13686 98.346635 
L 120.835085 98.346635 
L 120.950287 97.445294 
L 129.904613 97.445294 
L 130.019815 96.543952 
L 152.321848 96.543952 
L 152.43705 95.822879 
L 172.72305 95.822879 
L 172.838251 95.221985 
L 193.019522 95.221985 
L 193.134724 94.320644 
L 253.704719 94.320644 
L 253.819921 97.926009 
L 322.579721 97.926009 
L 322.694923 97.024668 
L 398.487273 97.024668 
L 398.487273 97.024668 
" clip-path="url(#pfcde01317f)" style="fill: none; stroke: #7f7f7f; stroke-width: 1.5; stroke-linecap: square"/>
   </g>
   <g id="line2d_19">
    <path d="M 73.832727 67.400584 
L 73.958402 63.494772 
L 74.016003 63.494772 
L 74.136441 60.189854 
L 74.262116 60.189854 
L 74.377318 59.288513 
L 74.497756 59.288513 
L 74.612958 58.56744 
L 74.701978 58.56744 
L 74.81718 57.846367 
L 75.099948 57.846367 
L 75.21515 56.945025 
L 75.586937 56.945025 
L 75.702139 55.743237 
L 76.377641 55.743237 
L 76.492843 55.022164 
L 78.294181 55.022164 
L 78.409383 53.820376 
L 80.126938 53.820376 
L 80.24214 52.919034 
L 82.462394 52.919034 
L 82.577596 52.197961 
L 97.244887 52.197961 
L 97.360089 50.996173 
L 106.44009 50.996173 
L 106.555291 50.094832 
L 109.021658 50.094832 
L 109.13686 49.19349 
L 152.321848 49.19349 
L 152.43705 48.472417 
L 172.72305 48.472417 
L 172.838251 47.871523 
L 253.704719 47.871523 
L 253.819921 46.970182 
L 398.487273 46.970182 
L 398.487273 46.970182 
" clip-path="url(#pfcde01317f)" style="fill: none; stroke: #bcbd22; stroke-width: 1.5; stroke-linecap: square"/>
   </g>
   <g id="line2d_20">
    <path d="M 73.832727 68.301925 
L 73.8432 68.301925 
L 73.848437 67.400584 
L 73.879855 72.808632 
L 73.926983 72.808632 
L 74.000294 72.808632 
L 74.068367 71.907291 
L 74.073604 75.512656 
L 74.09455 75.512656 
L 74.110259 75.512656 
L 74.225461 73.409526 
L 74.262116 73.409526 
L 74.283062 77.014891 
L 74.372081 74.911762 
L 74.497756 74.911762 
L 74.618194 73.289347 
L 74.701978 73.289347 
L 74.81718 76.894712 
L 75.063293 76.894712 
L 75.099948 75.09203 
L 75.105184 78.697395 
L 75.162785 78.697395 
L 75.518864 78.697395 
L 75.634065 77.796054 
L 75.916834 77.796054 
L 76.032035 76.594265 
L 76.377641 76.594265 
L 76.492843 80.19963 
L 78.294181 80.19963 
L 78.409383 78.997842 
L 79.461909 78.997842 
L 79.577111 78.396948 
L 79.969844 78.396948 
L 80.085046 77.495607 
L 80.126938 77.495607 
L 80.24214 81.100972 
L 81.572198 81.100972 
L 81.687399 80.19963 
L 82.331483 80.19963 
L 82.446684 79.298289 
L 82.462394 79.298289 
L 82.577596 82.903654 
L 83.038403 82.903654 
L 83.153605 82.002313 
L 92.77296 82.002313 
L 92.888162 81.100972 
L 97.244887 81.100972 
L 97.360089 79.899183 
L 106.44009 79.899183 
L 106.555291 83.504548 
L 109.021658 83.504548 
L 109.13686 87.109914 
L 120.835085 87.109914 
L 120.950287 86.208572 
L 129.904613 86.208572 
L 130.019815 85.307231 
L 152.321848 85.307231 
L 152.43705 84.586158 
L 172.72305 84.586158 
L 172.838251 83.985264 
L 193.019522 83.985264 
L 193.134724 83.083923 
L 253.704719 83.083923 
L 253.819921 86.689288 
L 322.579721 86.689288 
L 322.694923 85.787946 
L 398.487273 85.787946 
L 398.487273 85.787946 
" clip-path="url(#pfcde01317f)" style="fill: none; stroke: #17becf; stroke-width: 1.5; stroke-linecap: square"/>
   </g>
   <g id="line2d_21">
    <path d="M 73.832727 67.400584 
L 73.853673 64.396113 
L 73.864146 71.606844 
L 73.926983 70.705502 
L 74.016003 70.705502 
L 74.136441 67.400584 
L 74.152151 67.400584 
L 74.267352 71.005949 
L 74.366845 71.005949 
L 74.482047 74.611314 
L 74.497756 74.611314 
L 74.518702 73.890241 
L 74.523938 77.495607 
L 74.586776 77.495607 
L 74.701978 77.495607 
L 74.81718 76.774534 
L 75.063293 76.774534 
L 75.099948 83.985264 
L 75.178494 83.083923 
L 75.518864 83.083923 
L 75.586937 86.689288 
L 75.628829 85.487499 
L 76.377641 85.487499 
L 76.492843 84.766426 
L 79.461909 84.766426 
L 79.577111 88.371791 
L 79.969844 88.371791 
L 80.085046 91.977156 
L 80.126938 91.977156 
L 80.24214 91.075815 
L 81.572198 91.075815 
L 81.687399 94.68118 
L 82.331483 94.68118 
L 82.446684 98.286545 
L 82.462394 98.286545 
L 82.577596 97.565472 
L 83.038403 97.565472 
L 83.153605 101.170838 
L 92.77296 101.170838 
L 92.888162 104.776203 
L 106.44009 104.776203 
L 106.555291 103.874861 
L 109.021658 103.874861 
L 109.13686 102.97352 
L 120.835085 102.97352 
L 120.950287 106.578885 
L 129.904613 106.578885 
L 130.019815 110.18425 
L 152.321848 110.18425 
L 152.43705 109.463177 
L 172.72305 109.463177 
L 172.838251 108.862283 
L 193.019522 108.862283 
L 193.134724 112.467648 
L 253.704719 112.467648 
L 253.819921 111.566307 
L 322.579721 111.566307 
L 322.694923 115.171672 
L 398.487273 115.171672 
L 398.487273 115.171672 
" clip-path="url(#pfcde01317f)" style="fill: none; stroke: #1f77b4; stroke-width: 1.5; stroke-linecap: square"/>
   </g>
   <g id="line2d_22">
    <path d="M 73.832727 71.907291 
L 73.837964 70.705502 
L 73.864146 84.225621 
L 73.890328 83.32428 
L 73.895565 83.32428 
L 74.000294 94.140376 
L 74.016003 93.239034 
L 74.110259 89.934116 
L 74.115495 93.539481 
L 74.120732 93.539481 
L 74.152151 93.539481 
L 74.267352 97.144846 
L 74.283062 97.144846 
L 74.4035 104.355577 
L 74.497756 104.355577 
L 74.518702 103.634504 
L 74.523938 107.239869 
L 74.586776 107.239869 
L 74.633904 107.239869 
L 74.712451 102.913431 
L 74.743869 106.518796 
L 75.063293 106.518796 
L 75.099948 113.729526 
L 75.178494 112.828185 
L 75.241332 112.828185 
L 75.356534 116.43355 
L 75.518864 116.43355 
L 75.586937 120.038915 
L 75.628829 118.837127 
L 75.916834 118.837127 
L 76.032035 122.442492 
L 76.377641 122.442492 
L 76.492843 121.721419 
L 78.294181 121.721419 
L 78.409383 120.51963 
L 79.461909 120.51963 
L 79.577111 124.124996 
L 79.969844 124.124996 
L 80.085046 127.730361 
L 80.126938 127.730361 
L 80.24214 126.829019 
L 81.572198 126.829019 
L 81.687399 130.434385 
L 82.331483 130.434385 
L 82.446684 134.03975 
L 82.462394 134.03975 
L 82.577596 133.318677 
L 83.038403 133.318677 
L 83.158841 140.529407 
L 92.77296 140.529407 
L 92.888162 144.134772 
L 97.244887 144.134772 
L 97.360089 142.932984 
L 106.44009 142.932984 
L 106.555291 142.031642 
L 109.021658 142.031642 
L 109.13686 141.130301 
L 109.765234 141.130301 
L 109.880436 144.735666 
L 120.835085 144.735666 
L 120.950287 148.341031 
L 129.904613 148.341031 
L 130.019815 151.946396 
L 152.321848 151.946396 
L 152.43705 151.225323 
L 172.72305 151.225323 
L 172.838251 150.624429 
L 193.019522 150.624429 
L 193.134724 154.229794 
L 253.704719 154.229794 
L 253.819921 153.328453 
L 322.579721 153.328453 
L 322.694923 156.933818 
L 398.487273 156.933818 
L 398.487273 156.933818 
" clip-path="url(#pfcde01317f)" style="fill: none; stroke: #ff7f0e; stroke-width: 1.5; stroke-linecap: square"/>
   </g>
   <g id="patch_3">
    <path d="M 57.6 162.432 
L 57.6 41.472 
" style="fill: none; stroke: #000000; stroke-width: 0.8; stroke-linejoin: miter; stroke-linecap: square"/>
   </g>
   <g id="patch_4">
    <path d="M 414.72 162.432 
L 414.72 41.472 
" style="fill: none; stroke: #000000; stroke-width: 0.8; stroke-linejoin: miter; stroke-linecap: square"/>
   </g>
   <g id="patch_5">
    <path d="M 57.6 162.432 
L 414.72 162.432 
" style="fill: none; stroke: #000000; stroke-width: 0.8; stroke-linejoin: miter; stroke-linecap: square"/>
   </g>
   <g id="patch_6">
    <path d="M 57.6 41.472 
L 414.72 41.472 
" style="fill: none; stroke: #000000; stroke-width: 0.8; stroke-linejoin: miter; stroke-linecap: square"/>
   </g>
   <g id="text_11">
    <!-- WSP -->
    <g transform="translate(361.832136 146.658528)scale(0.08 -0.08)">
     <defs>
      <path id="DejaVuSans-57" d="M 213 4666 
L 850 4666 
L 1831 722 
L 2809 4666 
L 3519 4666 
L 4500 722 
L 5478 4666 
L 6119 4666 
L 4947 0 
L 4153 0 
L 3169 4050 
L 2175 0 
L 1381 0 
L 213 4666 
z
" transform="scale(0.015625)"/>
      <path id="DejaVuSans-53" d="M 3425 4513 
L 3425 3897 
Q 3066 4069 2747 4153 
Q 2428 4238 2131 4238 
Q 1616 4238 1336 4038 
Q 1056 3838 1056 3469 
Q 1056 3159 1242 3001 
Q 1428 2844 1947 2747 
L 2328 2669 
Q 3034 2534 3370 2195 
Q 3706 1856 3706 1288 
Q 3706 609 3251 259 
Q 2797 -91 1919 -91 
Q 1588 -91 1214 -16 
Q 841 59 441 206 
L 441 856 
Q 825 641 1194 531 
Q 1563 422 1919 422 
Q 2459 422 2753 634 
Q 3047 847 3047 1241 
Q 3047 1584 2836 1778 
Q 2625 1972 2144 2069 
L 1759 2144 
Q 1053 2284 737 2584 
Q 422 2884 422 3419 
Q 422 4038 858 4394 
Q 1294 4750 2059 4750 
Q 2388 4750 2728 4690 
Q 3069 4631 3425 4513 
z
" transform="scale(0.015625)"/>
      <path id="DejaVuSans-50" d="M 1259 4147 
L 1259 2394 
L 2053 2394 
Q 2494 2394 2734 2622 
Q 2975 2850 2975 3272 
Q 2975 3691 2734 3919 
Q 2494 4147 2053 4147 
L 1259 4147 
z
M 628 4666 
L 2053 4666 
Q 2838 4666 3239 4311 
Q 3641 3956 3641 3272 
Q 3641 2581 3239 2228 
Q 2838 1875 2053 1875 
L 1259 1875 
L 1259 0 
L 628 0 
L 628 4666 
z
" transform="scale(0.015625)"/>
     </defs>
     <use xlink:href="#DejaVuSans-57"/>
     <use xlink:href="#DejaVuSans-53" x="98.876953"/>
     <use xlink:href="#DejaVuSans-50" x="162.353516"/>
    </g>
   </g>
   <g id="text_12">
    <!-- Iambic -->
    <g transform="translate(361.832136 92.63814)scale(0.08 -0.08)">
     <defs>
      <path id="DejaVuSans-49" d="M 628 4666 
L 1259 4666 
L 1259 0 
L 628 0 
L 628 4666 
z
" transform="scale(0.015625)"/>
      <path id="DejaVuSans-61" d="M 2194 1759 
Q 1497 1759 1228 1600 
Q 959 1441 959 1056 
Q 959 750 1161 570 
Q 1363 391 1709 391 
Q 2188 391 2477 730 
Q 2766 1069 2766 1631 
L 2766 1759 
L 2194 1759 
z
M 3341 1997 
L 3341 0 
L 2766 0 
L 2766 531 
Q 2569 213 2275 61 
Q 1981 -91 1556 -91 
Q 1019 -91 701 211 
Q 384 513 384 1019 
Q 384 1609 779 1909 
Q 1175 2209 1959 2209 
L 2766 2209 
L 2766 2266 
Q 2766 2663 2505 2880 
Q 2244 3097 1772 3097 
Q 1472 3097 1187 3025 
Q 903 2953 641 2809 
L 641 3341 
Q 956 3463 1253 3523 
Q 1550 3584 1831 3584 
Q 2591 3584 2966 3190 
Q 3341 2797 3341 1997 
z
" transform="scale(0.015625)"/>
      <path id="DejaVuSans-6d" d="M 3328 2828 
Q 3544 3216 3844 3400 
Q 4144 3584 4550 3584 
Q 5097 3584 5394 3201 
Q 5691 2819 5691 2113 
L 5691 0 
L 5113 0 
L 5113 2094 
Q 5113 2597 4934 2840 
Q 4756 3084 4391 3084 
Q 3944 3084 3684 2787 
Q 3425 2491 3425 1978 
L 3425 0 
L 2847 0 
L 2847 2094 
Q 2847 2600 2669 2842 
Q 2491 3084 2119 3084 
Q 1678 3084 1418 2786 
Q 1159 2488 1159 1978 
L 1159 0 
L 581 0 
L 581 3500 
L 1159 3500 
L 1159 2956 
Q 1356 3278 1631 3431 
Q 1906 3584 2284 3584 
Q 2666 3584 2933 3390 
Q 3200 3197 3328 2828 
z
" transform="scale(0.015625)"/>
      <path id="DejaVuSans-62" d="M 3116 1747 
Q 3116 2381 2855 2742 
Q 2594 3103 2138 3103 
Q 1681 3103 1420 2742 
Q 1159 2381 1159 1747 
Q 1159 1113 1420 752 
Q 1681 391 2138 391 
Q 2594 391 2855 752 
Q 3116 1113 3116 1747 
z
M 1159 2969 
Q 1341 3281 1617 3432 
Q 1894 3584 2278 3584 
Q 2916 3584 3314 3078 
Q 3713 2572 3713 1747 
Q 3713 922 3314 415 
Q 2916 -91 2278 -91 
Q 1894 -91 1617 61 
Q 1341 213 1159 525 
L 1159 0 
L 581 0 
L 581 4863 
L 1159 4863 
L 1159 2969 
z
" transform="scale(0.015625)"/>
      <path id="DejaVuSans-69" d="M 603 3500 
L 1178 3500 
L 1178 0 
L 603 0 
L 603 3500 
z
M 603 4863 
L 1178 4863 
L 1178 4134 
L 603 4134 
L 603 4863 
z
" transform="scale(0.015625)"/>
      <path id="DejaVuSans-63" d="M 3122 3366 
L 3122 2828 
Q 2878 2963 2633 3030 
Q 2388 3097 2138 3097 
Q 1578 3097 1268 2742 
Q 959 2388 959 1747 
Q 959 1106 1268 751 
Q 1578 397 2138 397 
Q 2388 397 2633 464 
Q 2878 531 3122 666 
L 3122 134 
Q 2881 22 2623 -34 
Q 2366 -91 2075 -91 
Q 1284 -91 818 406 
Q 353 903 353 1747 
Q 353 2603 823 3093 
Q 1294 3584 2113 3584 
Q 2378 3584 2631 3529 
Q 2884 3475 3122 3366 
z
" transform="scale(0.015625)"/>
     </defs>
     <use xlink:href="#DejaVuSans-49"/>
     <use xlink:href="#DejaVuSans-61" x="29.492188"/>
     <use xlink:href="#DejaVuSans-6d" x="90.771484"/>
     <use xlink:href="#DejaVuSans-62" x="188.183594"/>
     <use xlink:href="#DejaVuSans-69" x="251.660156"/>
     <use xlink:href="#DejaVuSans-63" x="279.443359"/>
    </g>
   </g>
   <g id="text_13">
    <!-- Parse -->
    <g transform="translate(361.832136 92.037246)scale(0.08 -0.08)">
     <defs>
      <path id="DejaVuSans-72" d="M 2631 2963 
Q 2534 3019 2420 3045 
Q 2306 3072 2169 3072 
Q 1681 3072 1420 2755 
Q 1159 2438 1159 1844 
L 1159 0 
L 581 0 
L 581 3500 
L 1159 3500 
L 1159 2956 
Q 1341 3275 1631 3429 
Q 1922 3584 2338 3584 
Q 2397 3584 2469 3576 
Q 2541 3569 2628 3553 
L 2631 2963 
z
" transform="scale(0.015625)"/>
      <path id="DejaVuSans-73" d="M 2834 3397 
L 2834 2853 
Q 2591 2978 2328 3040 
Q 2066 3103 1784 3103 
Q 1356 3103 1142 2972 
Q 928 2841 928 2578 
Q 928 2378 1081 2264 
Q 1234 2150 1697 2047 
L 1894 2003 
Q 2506 1872 2764 1633 
Q 3022 1394 3022 966 
Q 3022 478 2636 193 
Q 2250 -91 1575 -91 
Q 1294 -91 989 -36 
Q 684 19 347 128 
L 347 722 
Q 666 556 975 473 
Q 1284 391 1588 391 
Q 1994 391 2212 530 
Q 2431 669 2431 922 
Q 2431 1156 2273 1281 
Q 2116 1406 1581 1522 
L 1381 1569 
Q 847 1681 609 1914 
Q 372 2147 372 2553 
Q 372 3047 722 3315 
Q 1072 3584 1716 3584 
Q 2034 3584 2315 3537 
Q 2597 3491 2834 3397 
z
" transform="scale(0.015625)"/>
      <path id="DejaVuSans-65" d="M 3597 1894 
L 3597 1613 
L 953 1613 
Q 991 1019 1311 708 
Q 1631 397 2203 397 
Q 2534 397 2845 478 
Q 3156 559 3463 722 
L 3463 178 
Q 3153 47 2828 -22 
Q 2503 -91 2169 -91 
Q 1331 -91 842 396 
Q 353 884 353 1716 
Q 353 2575 817 3079 
Q 1281 3584 2069 3584 
Q 2775 3584 3186 3129 
Q 3597 2675 3597 1894 
z
M 3022 2063 
Q 3016 2534 2758 2815 
Q 2500 3097 2075 3097 
Q 1594 3097 1305 2825 
Q 1016 2553 972 2059 
L 3022 2063 
z
" transform="scale(0.015625)"/>
     </defs>
     <use xlink:href="#DejaVuSans-50"/>
     <use xlink:href="#DejaVuSans-61" x="55.802734"/>
     <use xlink:href="#DejaVuSans-72" x="117.082031"/>
     <use xlink:href="#DejaVuSans-73" x="158.195312"/>
     <use xlink:href="#DejaVuSans-65" x="210.294922"/>
    </g>
   </g>
   <g id="text_14">
    <!-- FootBin -->
    <g transform="translate(361.832136 66.198796)scale(0.08 -0.08)">
     <defs>
      <path id="DejaVuSans-46" d="M 628 4666 
L 3309 4666 
L 3309 4134 
L 1259 4134 
L 1259 2759 
L 3109 2759 
L 3109 2228 
L 1259 2228 
L 1259 0 
L 628 0 
L 628 4666 
z
" transform="scale(0.015625)"/>
      <path id="DejaVuSans-6f" d="M 1959 3097 
Q 1497 3097 1228 2736 
Q 959 2375 959 1747 
Q 959 1119 1226 758 
Q 1494 397 1959 397 
Q 2419 397 2687 759 
Q 2956 1122 2956 1747 
Q 2956 2369 2687 2733 
Q 2419 3097 1959 3097 
z
M 1959 3584 
Q 2709 3584 3137 3096 
Q 3566 2609 3566 1747 
Q 3566 888 3137 398 
Q 2709 -91 1959 -91 
Q 1206 -91 779 398 
Q 353 888 353 1747 
Q 353 2609 779 3096 
Q 1206 3584 1959 3584 
z
" transform="scale(0.015625)"/>
      <path id="DejaVuSans-74" d="M 1172 4494 
L 1172 3500 
L 2356 3500 
L 2356 3053 
L 1172 3053 
L 1172 1153 
Q 1172 725 1289 603 
Q 1406 481 1766 481 
L 2356 481 
L 2356 0 
L 1766 0 
Q 1100 0 847 248 
Q 594 497 594 1153 
L 594 3053 
L 172 3053 
L 172 3500 
L 594 3500 
L 594 4494 
L 1172 4494 
z
" transform="scale(0.015625)"/>
      <path id="DejaVuSans-42" d="M 1259 2228 
L 1259 519 
L 2272 519 
Q 2781 519 3026 730 
Q 3272 941 3272 1375 
Q 3272 1813 3026 2020 
Q 2781 2228 2272 2228 
L 1259 2228 
z
M 1259 4147 
L 1259 2741 
L 2194 2741 
Q 2656 2741 2882 2914 
Q 3109 3088 3109 3444 
Q 3109 3797 2882 3972 
Q 2656 4147 2194 4147 
L 1259 4147 
z
M 628 4666 
L 2241 4666 
Q 2963 4666 3353 4366 
Q 3744 4066 3744 3513 
Q 3744 3084 3544 2831 
Q 3344 2578 2956 2516 
Q 3422 2416 3680 2098 
Q 3938 1781 3938 1306 
Q 3938 681 3513 340 
Q 3088 0 2303 0 
L 628 0 
L 628 4666 
z
" transform="scale(0.015625)"/>
      <path id="DejaVuSans-6e" d="M 3513 2113 
L 3513 0 
L 2938 0 
L 2938 2094 
Q 2938 2591 2744 2837 
Q 2550 3084 2163 3084 
Q 1697 3084 1428 2787 
Q 1159 2491 1159 1978 
L 1159 0 
L 581 0 
L 581 3500 
L 1159 3500 
L 1159 2956 
Q 1366 3272 1645 3428 
Q 1925 3584 2291 3584 
Q 2894 3584 3203 3211 
Q 3513 2838 3513 2113 
z
" transform="scale(0.015625)"/>
     </defs>
     <use xlink:href="#DejaVuSans-46"/>
     <use xlink:href="#DejaVuSans-6f" x="53.894531"/>
     <use xlink:href="#DejaVuSans-6f" x="115.076172"/>
     <use xlink:href="#DejaVuSans-74" x="176.257812"/>
     <use xlink:href="#DejaVuSans-42" x="215.466797"/>
     <use xlink:href="#DejaVuSans-69" x="284.070312"/>
     <use xlink:href="#DejaVuSans-6e" x="311.853516"/>
    </g>
   </g>
   <g id="text_15">
    <!-- WFL -->
    <g transform="translate(361.832136 74.611314)scale(0.08 -0.08)">
     <defs>
      <path id="DejaVuSans-4c" d="M 628 4666 
L 1259 4666 
L 1259 531 
L 3531 531 
L 3531 0 
L 628 0 
L 628 4666 
z
" transform="scale(0.015625)"/>
     </defs>
     <use xlink:href="#DejaVuSans-57"/>
     <use xlink:href="#DejaVuSans-46" x="98.876953"/>
     <use xlink:href="#DejaVuSans-4c" x="156.396484"/>
    </g>
   </g>
   <g id="text_16">
    <!-- WFR -->
    <g transform="translate(361.832136 124.485532)scale(0.08 -0.08)">
     <defs>
      <path id="DejaVuSans-52" d="M 2841 2188 
Q 3044 2119 3236 1894 
Q 3428 1669 3622 1275 
L 4263 0 
L 3584 0 
L 2988 1197 
Q 2756 1666 2539 1819 
Q 2322 1972 1947 1972 
L 1259 1972 
L 1259 0 
L 628 0 
L 628 4666 
L 2053 4666 
Q 2853 4666 3247 4331 
Q 3641 3997 3641 3322 
Q 3641 2881 3436 2590 
Q 3231 2300 2841 2188 
z
M 1259 4147 
L 1259 2491 
L 2053 2491 
Q 2509 2491 2742 2702 
Q 2975 2913 2975 3322 
Q 2975 3731 2742 3939 
Q 2509 4147 2053 4147 
L 1259 4147 
z
" transform="scale(0.015625)"/>
     </defs>
     <use xlink:href="#DejaVuSans-57"/>
     <use xlink:href="#DejaVuSans-46" x="98.876953"/>
     <use xlink:href="#DejaVuSans-52" x="156.396484"/>
    </g>
   </g>
   <g id="text_17">
    <!-- Main-L -->
    <g transform="translate(361.832136 56.404221)scale(0.08 -0.08)">
     <defs>
      <path id="DejaVuSans-4d" d="M 628 4666 
L 1569 4666 
L 2759 1491 
L 3956 4666 
L 4897 4666 
L 4897 0 
L 4281 0 
L 4281 4097 
L 3078 897 
L 2444 897 
L 1241 4097 
L 1241 0 
L 628 0 
L 628 4666 
z
" transform="scale(0.015625)"/>
      <path id="DejaVuSans-2d" d="M 313 2009 
L 1997 2009 
L 1997 1497 
L 313 1497 
L 313 2009 
z
" transform="scale(0.015625)"/>
     </defs>
     <use xlink:href="#DejaVuSans-4d"/>
     <use xlink:href="#DejaVuSans-61" x="86.279297"/>
     <use xlink:href="#DejaVuSans-69" x="147.558594"/>
     <use xlink:href="#DejaVuSans-6e" x="175.341797"/>
     <use xlink:href="#DejaVuSans-2d" x="238.720703"/>
     <use xlink:href="#DejaVuSans-4c" x="274.804688"/>
    </g>
   </g>
   <g id="text_18">
    <!-- Main-R -->
    <g transform="translate(361.832136 97.024668)scale(0.08 -0.08)">
     <use xlink:href="#DejaVuSans-4d"/>
     <use xlink:href="#DejaVuSans-61" x="86.279297"/>
     <use xlink:href="#DejaVuSans-69" x="147.558594"/>
     <use xlink:href="#DejaVuSans-6e" x="175.341797"/>
     <use xlink:href="#DejaVuSans-2d" x="238.720703"/>
     <use xlink:href="#DejaVuSans-52" x="274.804688"/>
    </g>
   </g>
   <g id="text_19">
    <!-- AFL -->
    <g transform="translate(361.832136 46.970182)scale(0.08 -0.08)">
     <defs>
      <path id="DejaVuSans-41" d="M 2188 4044 
L 1331 1722 
L 3047 1722 
L 2188 4044 
z
M 1831 4666 
L 2547 4666 
L 4325 0 
L 3669 0 
L 3244 1197 
L 1141 1197 
L 716 0 
L 50 0 
L 1831 4666 
z
" transform="scale(0.015625)"/>
     </defs>
     <use xlink:href="#DejaVuSans-41"/>
     <use xlink:href="#DejaVuSans-46" x="68.408203"/>
     <use xlink:href="#DejaVuSans-4c" x="125.927734"/>
    </g>
   </g>
   <g id="text_20">
    <!-- AFR -->
    <g transform="translate(361.832136 85.787946)scale(0.08 -0.08)">
     <use xlink:href="#DejaVuSans-41"/>
     <use xlink:href="#DejaVuSans-46" x="68.408203"/>
     <use xlink:href="#DejaVuSans-52" x="125.927734"/>
    </g>
   </g>
   <g id="text_21">
    <!-- Nonfinal -->
    <g transform="translate(361.832136 115.171672)scale(0.08 -0.08)">
     <defs>
      <path id="DejaVuSans-4e" d="M 628 4666 
L 1478 4666 
L 3547 763 
L 3547 4666 
L 4159 4666 
L 4159 0 
L 3309 0 
L 1241 3903 
L 1241 0 
L 628 0 
L 628 4666 
z
" transform="scale(0.015625)"/>
      <path id="DejaVuSans-66" d="M 2375 4863 
L 2375 4384 
L 1825 4384 
Q 1516 4384 1395 4259 
Q 1275 4134 1275 3809 
L 1275 3500 
L 2222 3500 
L 2222 3053 
L 1275 3053 
L 1275 0 
L 697 0 
L 697 3053 
L 147 3053 
L 147 3500 
L 697 3500 
L 697 3744 
Q 697 4328 969 4595 
Q 1241 4863 1831 4863 
L 2375 4863 
z
" transform="scale(0.015625)"/>
      <path id="DejaVuSans-6c" d="M 603 4863 
L 1178 4863 
L 1178 0 
L 603 0 
L 603 4863 
z
" transform="scale(0.015625)"/>
     </defs>
     <use xlink:href="#DejaVuSans-4e"/>
     <use xlink:href="#DejaVuSans-6f" x="74.804688"/>
     <use xlink:href="#DejaVuSans-6e" x="135.986328"/>
     <use xlink:href="#DejaVuSans-66" x="199.365234"/>
     <use xlink:href="#DejaVuSans-69" x="234.570312"/>
     <use xlink:href="#DejaVuSans-6e" x="262.353516"/>
     <use xlink:href="#DejaVuSans-61" x="325.732422"/>
     <use xlink:href="#DejaVuSans-6c" x="387.011719"/>
    </g>
   </g>
   <g id="text_22">
    <!-- Trochaic -->
    <g transform="translate(361.832136 156.933818)scale(0.08 -0.08)">
     <defs>
      <path id="DejaVuSans-54" d="M -19 4666 
L 3928 4666 
L 3928 4134 
L 2272 4134 
L 2272 0 
L 1638 0 
L 1638 4134 
L -19 4134 
L -19 4666 
z
" transform="scale(0.015625)"/>
      <path id="DejaVuSans-68" d="M 3513 2113 
L 3513 0 
L 2938 0 
L 2938 2094 
Q 2938 2591 2744 2837 
Q 2550 3084 2163 3084 
Q 1697 3084 1428 2787 
Q 1159 2491 1159 1978 
L 1159 0 
L 581 0 
L 581 4863 
L 1159 4863 
L 1159 2956 
Q 1366 3272 1645 3428 
Q 1925 3584 2291 3584 
Q 2894 3584 3203 3211 
Q 3513 2838 3513 2113 
z
" transform="scale(0.015625)"/>
     </defs>
     <use xlink:href="#DejaVuSans-54"/>
     <use xlink:href="#DejaVuSans-72" x="46.333984"/>
     <use xlink:href="#DejaVuSans-6f" x="85.197266"/>
     <use xlink:href="#DejaVuSans-63" x="146.378906"/>
     <use xlink:href="#DejaVuSans-68" x="201.359375"/>
     <use xlink:href="#DejaVuSans-61" x="264.738281"/>
     <use xlink:href="#DejaVuSans-69" x="326.017578"/>
     <use xlink:href="#DejaVuSans-63" x="353.800781"/>
    </g>
   </g>
  </g>
  <g id="axes_2">
   <g id="patch_7">
    <path d="M 57.6 307.584 
L 414.72 307.584 
L 414.72 186.624 
L 57.6 186.624 
z
" style="fill: #ffffff"/>
   </g>
   <g id="matplotlib.axis_3">
    <g id="xtick_8">
     <g id="line2d_23">
      <g>
       <use xlink:href="#m1d33d3d0ab" x="67.589371" y="307.584" style="stroke: #000000; stroke-width: 0.8"/>
      </g>
     </g>
     <g id="text_23">
      <!-- 0 -->
      <g transform="translate(64.408121 322.182437)scale(0.1 -0.1)">
       <use xlink:href="#DejaVuSans-30"/>
      </g>
     </g>
    </g>
    <g id="xtick_9">
     <g id="line2d_24">
      <g>
       <use xlink:href="#m1d33d3d0ab" x="130.022937" y="307.584" style="stroke: #000000; stroke-width: 0.8"/>
      </g>
     </g>
     <g id="text_24">
      <!-- 10 -->
      <g transform="translate(123.660437 322.182437)scale(0.1 -0.1)">
       <use xlink:href="#DejaVuSans-31"/>
       <use xlink:href="#DejaVuSans-30" x="63.623047"/>
      </g>
     </g>
    </g>
    <g id="xtick_10">
     <g id="line2d_25">
      <g>
       <use xlink:href="#m1d33d3d0ab" x="192.456503" y="307.584" style="stroke: #000000; stroke-width: 0.8"/>
      </g>
     </g>
     <g id="text_25">
      <!-- 20 -->
      <g transform="translate(186.094003 322.182437)scale(0.1 -0.1)">
       <use xlink:href="#DejaVuSans-32"/>
       <use xlink:href="#DejaVuSans-30" x="63.623047"/>
      </g>
     </g>
    </g>
    <g id="xtick_11">
     <g id="line2d_26">
      <g>
       <use xlink:href="#m1d33d3d0ab" x="254.89007" y="307.584" style="stroke: #000000; stroke-width: 0.8"/>
      </g>
     </g>
     <g id="text_26">
      <!-- 30 -->
      <g transform="translate(248.52757 322.182437)scale(0.1 -0.1)">
       <use xlink:href="#DejaVuSans-33"/>
       <use xlink:href="#DejaVuSans-30" x="63.623047"/>
      </g>
     </g>
    </g>
    <g id="xtick_12">
     <g id="line2d_27">
      <g>
       <use xlink:href="#m1d33d3d0ab" x="317.323636" y="307.584" style="stroke: #000000; stroke-width: 0.8"/>
      </g>
     </g>
     <g id="text_27">
      <!-- 40 -->
      <g transform="translate(310.961136 322.182437)scale(0.1 -0.1)">
       <use xlink:href="#DejaVuSans-34"/>
       <use xlink:href="#DejaVuSans-30" x="63.623047"/>
      </g>
     </g>
    </g>
    <g id="xtick_13">
     <g id="line2d_28">
      <g>
       <use xlink:href="#m1d33d3d0ab" x="379.757203" y="307.584" style="stroke: #000000; stroke-width: 0.8"/>
      </g>
     </g>
     <g id="text_28">
      <!-- 50 -->
      <g transform="translate(373.394703 322.182437)scale(0.1 -0.1)">
       <use xlink:href="#DejaVuSans-35"/>
       <use xlink:href="#DejaVuSans-30" x="63.623047"/>
      </g>
     </g>
    </g>
   </g>
   <g id="matplotlib.axis_4">
    <g id="ytick_4">
     <g id="line2d_29">
      <g>
       <use xlink:href="#m8b235d7a4a" x="57.6" y="302.094179" style="stroke: #000000; stroke-width: 0.8"/>
      </g>
     </g>
     <g id="text_29">
      <!-- 0 -->
      <g transform="translate(44.2375 305.893398)scale(0.1 -0.1)">
       <use xlink:href="#DejaVuSans-30"/>
      </g>
     </g>
    </g>
    <g id="ytick_5">
     <g id="line2d_30">
      <g>
       <use xlink:href="#m8b235d7a4a" x="57.6" y="281.191724" style="stroke: #000000; stroke-width: 0.8"/>
      </g>
     </g>
     <g id="text_30">
      <!-- 2500 -->
      <g transform="translate(25.15 284.990943)scale(0.1 -0.1)">
       <use xlink:href="#DejaVuSans-32"/>
       <use xlink:href="#DejaVuSans-35" x="63.623047"/>
       <use xlink:href="#DejaVuSans-30" x="127.246094"/>
       <use xlink:href="#DejaVuSans-30" x="190.869141"/>
      </g>
     </g>
    </g>
    <g id="ytick_6">
     <g id="line2d_31">
      <g>
       <use xlink:href="#m8b235d7a4a" x="57.6" y="260.289269" style="stroke: #000000; stroke-width: 0.8"/>
      </g>
     </g>
     <g id="text_31">
      <!-- 5000 -->
      <g transform="translate(25.15 264.088487)scale(0.1 -0.1)">
       <use xlink:href="#DejaVuSans-35"/>
       <use xlink:href="#DejaVuSans-30" x="63.623047"/>
       <use xlink:href="#DejaVuSans-30" x="127.246094"/>
       <use xlink:href="#DejaVuSans-30" x="190.869141"/>
      </g>
     </g>
    </g>
    <g id="ytick_7">
     <g id="line2d_32">
      <g>
       <use xlink:href="#m8b235d7a4a" x="57.6" y="239.386814" style="stroke: #000000; stroke-width: 0.8"/>
      </g>
     </g>
     <g id="text_32">
      <!-- 7500 -->
      <g transform="translate(25.15 243.186032)scale(0.1 -0.1)">
       <defs>
        <path id="DejaVuSans-37" d="M 525 4666 
L 3525 4666 
L 3525 4397 
L 1831 0 
L 1172 0 
L 2766 4134 
L 525 4134 
L 525 4666 
z
" transform="scale(0.015625)"/>
       </defs>
       <use xlink:href="#DejaVuSans-37"/>
       <use xlink:href="#DejaVuSans-35" x="63.623047"/>
       <use xlink:href="#DejaVuSans-30" x="127.246094"/>
       <use xlink:href="#DejaVuSans-30" x="190.869141"/>
      </g>
     </g>
    </g>
    <g id="ytick_8">
     <g id="line2d_33">
      <g>
       <use xlink:href="#m8b235d7a4a" x="57.6" y="218.484358" style="stroke: #000000; stroke-width: 0.8"/>
      </g>
     </g>
     <g id="text_33">
      <!-- 10000 -->
      <g transform="translate(18.7875 222.283577)scale(0.1 -0.1)">
       <use xlink:href="#DejaVuSans-31"/>
       <use xlink:href="#DejaVuSans-30" x="63.623047"/>
       <use xlink:href="#DejaVuSans-30" x="127.246094"/>
       <use xlink:href="#DejaVuSans-30" x="190.869141"/>
       <use xlink:href="#DejaVuSans-30" x="254.492188"/>
      </g>
     </g>
    </g>
    <g id="ytick_9">
     <g id="line2d_34">
      <g>
       <use xlink:href="#m8b235d7a4a" x="57.6" y="197.581903" style="stroke: #000000; stroke-width: 0.8"/>
      </g>
     </g>
     <g id="text_34">
      <!-- 12500 -->
      <g transform="translate(18.7875 201.381122)scale(0.1 -0.1)">
       <use xlink:href="#DejaVuSans-31"/>
       <use xlink:href="#DejaVuSans-32" x="63.623047"/>
       <use xlink:href="#DejaVuSans-35" x="127.246094"/>
       <use xlink:href="#DejaVuSans-30" x="190.869141"/>
       <use xlink:href="#DejaVuSans-30" x="254.492188"/>
      </g>
     </g>
    </g>
   </g>
   <g id="line2d_35">
    <path d="M 73.832727 302.085818 
L 80.076084 302.085818 
L 86.319441 302.085818 
L 92.562797 302.085818 
L 98.806154 302.085818 
L 105.04951 302.085818 
L 111.292867 302.069096 
L 117.536224 302.060735 
L 123.77958 302.077457 
L 130.022937 302.085818 
L 136.266294 301.952042 
L 142.50965 302.069096 
L 148.753007 302.044013 
L 154.996364 302.060735 
L 161.23972 302.027291 
L 167.483077 302.027291 
L 173.726434 301.918599 
L 179.96979 302.060735 
L 186.213147 301.960403 
L 192.456503 301.885155 
L 198.69986 302.060735 
L 204.943217 301.910238 
L 211.186573 301.985486 
L 217.42993 302.077457 
L 223.673287 301.533993 
L 229.916643 302.044013 
L 236.16 302.085818 
L 242.403357 301.868433 
L 248.646713 301.651047 
L 254.89007 301.985486 
L 261.133427 301.567437 
L 267.376783 301.358413 
L 273.62014 299.03406 
L 279.863497 300.22968 
L 286.106853 301.283164 
L 292.35021 301.84335 
L 298.593566 299.786548 
L 304.836923 300.881837 
L 311.08028 301.885155 
L 317.323636 301.174471 
L 323.566993 302.077457 
L 329.81035 286.567835 
L 336.053706 294.9539 
L 342.297063 287.412295 
L 348.54042 297.972215 
L 354.783776 300.90692 
L 361.027133 284.419063 
L 367.27049 287.612958 
L 373.513846 266.300815 
L 379.757203 269.519793 
L 386.000559 269.687013 
L 392.243916 205.198758 
L 398.487273 192.122182 
" clip-path="url(#pe941c5a86c)" style="fill: none; stroke: #1f77b4; stroke-width: 1.5; stroke-linecap: square"/>
   </g>
   <g id="patch_8">
    <path d="M 57.6 307.584 
L 57.6 186.624 
" style="fill: none; stroke: #000000; stroke-width: 0.8; stroke-linejoin: miter; stroke-linecap: square"/>
   </g>
   <g id="patch_9">
    <path d="M 414.72 307.584 
L 414.72 186.624 
" style="fill: none; stroke: #000000; stroke-width: 0.8; stroke-linejoin: miter; stroke-linecap: square"/>
   </g>
   <g id="patch_10">
    <path d="M 57.6 307.584 
L 414.72 307.584 
" style="fill: none; stroke: #000000; stroke-width: 0.8; stroke-linejoin: miter; stroke-linecap: square"/>
   </g>
   <g id="patch_11">
    <path d="M 57.6 186.624 
L 414.72 186.624 
" style="fill: none; stroke: #000000; stroke-width: 0.8; stroke-linejoin: miter; stroke-linecap: square"/>
   </g>
  </g>
 </g>
 <defs>
  <clipPath id="pfcde01317f">
   <rect x="57.6" y="41.472" width="357.12" height="120.96"/>
  </clipPath>
  <clipPath id="pe941c5a86c">
   <rect x="57.6" y="186.624" width="357.12" height="120.96"/>
  </clipPath>
 </defs>
</svg>
