<?xml version="1.0" encoding="utf-8" standalone="no"?>
<!DOCTYPE svg PUBLIC "-//W3C//DTD SVG 1.1//EN"
  "http://www.w3.org/Graphics/SVG/1.1/DTD/svg11.dtd">
<svg xmlns:xlink="http://www.w3.org/1999/xlink" width="460.8pt" height="345.6pt" viewBox="0 0 460.8 345.6" xmlns="http://www.w3.org/2000/svg" version="1.1">
 <metadata>
  <rdf:RDF xmlns:dc="http://purl.org/dc/elements/1.1/" xmlns:cc="http://creativecommons.org/ns#" xmlns:rdf="http://www.w3.org/1999/02/22-rdf-syntax-ns#">
   <cc:Work>
    <dc:type rdf:resource="http://purl.org/dc/dcmitype/StillImage"/>
    <dc:date>2022-05-14T02:36:29.800834</dc:date>
    <dc:format>image/svg+xml</dc:format>
    <dc:creator>
     <cc:Agent>
      <dc:title>Matplotlib v3.5.1, https://matplotlib.org/</dc:title>
     </cc:Agent>
    </dc:creator>
   </cc:Work>
  </rdf:RDF>
 </metadata>
 <defs>
  <style type="text/css">*{stroke-linejoin: round; stroke-linecap: butt}</style>
 </defs>
 <g id="figure_1">
  <g id="patch_1">
   <path d="M 0 345.6 
L 460.8 345.6 
L 460.8 0 
L 0 0 
z
" style="fill: #ffffff"/>
  </g>
  <g id="axes_1">
   <g id="patch_2">
    <path d="M 57.6 162.432 
L 414.72 162.432 
L 414.72 41.472 
L 57.6 41.472 
z
" style="fill: #ffffff"/>
   </g>
   <g id="matplotlib.axis_1">
    <g id="xtick_1">
     <g id="line2d_1">
      <defs>
       <path id="m35da66a091" d="M 0 0 
L 0 3.5 
" style="stroke: #000000; stroke-width: 0.8"/>
      </defs>
      <g>
       <use xlink:href="#m35da66a091" x="73.827491" y="162.432" style="stroke: #000000; stroke-width: 0.8"/>
      </g>
     </g>
     <g id="text_1">
      <!-- 0 -->
      <g transform="translate(70.646241 177.030437)scale(0.1 -0.1)">
       <defs>
        <path id="DejaVuSans-30" d="M 2034 4250 
Q 1547 4250 1301 3770 
Q 1056 3291 1056 2328 
Q 1056 1369 1301 889 
Q 1547 409 2034 409 
Q 2525 409 2770 889 
Q 3016 1369 3016 2328 
Q 3016 3291 2770 3770 
Q 2525 4250 2034 4250 
z
M 2034 4750 
Q 2819 4750 3233 4129 
Q 3647 3509 3647 2328 
Q 3647 1150 3233 529 
Q 2819 -91 2034 -91 
Q 1250 -91 836 529 
Q 422 1150 422 2328 
Q 422 3509 836 4129 
Q 1250 4750 2034 4750 
z
" transform="scale(0.015625)"/>
       </defs>
       <use xlink:href="#DejaVuSans-30"/>
      </g>
     </g>
    </g>
    <g id="xtick_2">
     <g id="line2d_2">
      <g>
       <use xlink:href="#m35da66a091" x="126.191972" y="162.432" style="stroke: #000000; stroke-width: 0.8"/>
      </g>
     </g>
     <g id="text_2">
      <!-- 10000 -->
      <g transform="translate(110.285722 177.030437)scale(0.1 -0.1)">
       <defs>
        <path id="DejaVuSans-31" d="M 794 531 
L 1825 531 
L 1825 4091 
L 703 3866 
L 703 4441 
L 1819 4666 
L 2450 4666 
L 2450 531 
L 3481 531 
L 3481 0 
L 794 0 
L 794 531 
z
" transform="scale(0.015625)"/>
       </defs>
       <use xlink:href="#DejaVuSans-31"/>
       <use xlink:href="#DejaVuSans-30" x="63.623047"/>
       <use xlink:href="#DejaVuSans-30" x="127.246094"/>
       <use xlink:href="#DejaVuSans-30" x="190.869141"/>
       <use xlink:href="#DejaVuSans-30" x="254.492188"/>
      </g>
     </g>
    </g>
    <g id="xtick_3">
     <g id="line2d_3">
      <g>
       <use xlink:href="#m35da66a091" x="178.556453" y="162.432" style="stroke: #000000; stroke-width: 0.8"/>
      </g>
     </g>
     <g id="text_3">
      <!-- 20000 -->
      <g transform="translate(162.650203 177.030437)scale(0.1 -0.1)">
       <defs>
        <path id="DejaVuSans-32" d="M 1228 531 
L 3431 531 
L 3431 0 
L 469 0 
L 469 531 
Q 828 903 1448 1529 
Q 2069 2156 2228 2338 
Q 2531 2678 2651 2914 
Q 2772 3150 2772 3378 
Q 2772 3750 2511 3984 
Q 2250 4219 1831 4219 
Q 1534 4219 1204 4116 
Q 875 4013 500 3803 
L 500 4441 
Q 881 4594 1212 4672 
Q 1544 4750 1819 4750 
Q 2544 4750 2975 4387 
Q 3406 4025 3406 3419 
Q 3406 3131 3298 2873 
Q 3191 2616 2906 2266 
Q 2828 2175 2409 1742 
Q 1991 1309 1228 531 
z
" transform="scale(0.015625)"/>
       </defs>
       <use xlink:href="#DejaVuSans-32"/>
       <use xlink:href="#DejaVuSans-30" x="63.623047"/>
       <use xlink:href="#DejaVuSans-30" x="127.246094"/>
       <use xlink:href="#DejaVuSans-30" x="190.869141"/>
       <use xlink:href="#DejaVuSans-30" x="254.492188"/>
      </g>
     </g>
    </g>
    <g id="xtick_4">
     <g id="line2d_4">
      <g>
       <use xlink:href="#m35da66a091" x="230.920934" y="162.432" style="stroke: #000000; stroke-width: 0.8"/>
      </g>
     </g>
     <g id="text_4">
      <!-- 30000 -->
      <g transform="translate(215.014684 177.030437)scale(0.1 -0.1)">
       <defs>
        <path id="DejaVuSans-33" d="M 2597 2516 
Q 3050 2419 3304 2112 
Q 3559 1806 3559 1356 
Q 3559 666 3084 287 
Q 2609 -91 1734 -91 
Q 1441 -91 1130 -33 
Q 819 25 488 141 
L 488 750 
Q 750 597 1062 519 
Q 1375 441 1716 441 
Q 2309 441 2620 675 
Q 2931 909 2931 1356 
Q 2931 1769 2642 2001 
Q 2353 2234 1838 2234 
L 1294 2234 
L 1294 2753 
L 1863 2753 
Q 2328 2753 2575 2939 
Q 2822 3125 2822 3475 
Q 2822 3834 2567 4026 
Q 2313 4219 1838 4219 
Q 1578 4219 1281 4162 
Q 984 4106 628 3988 
L 628 4550 
Q 988 4650 1302 4700 
Q 1616 4750 1894 4750 
Q 2613 4750 3031 4423 
Q 3450 4097 3450 3541 
Q 3450 3153 3228 2886 
Q 3006 2619 2597 2516 
z
" transform="scale(0.015625)"/>
       </defs>
       <use xlink:href="#DejaVuSans-33"/>
       <use xlink:href="#DejaVuSans-30" x="63.623047"/>
       <use xlink:href="#DejaVuSans-30" x="127.246094"/>
       <use xlink:href="#DejaVuSans-30" x="190.869141"/>
       <use xlink:href="#DejaVuSans-30" x="254.492188"/>
      </g>
     </g>
    </g>
    <g id="xtick_5">
     <g id="line2d_5">
      <g>
       <use xlink:href="#m35da66a091" x="283.285415" y="162.432" style="stroke: #000000; stroke-width: 0.8"/>
      </g>
     </g>
     <g id="text_5">
      <!-- 40000 -->
      <g transform="translate(267.379165 177.030437)scale(0.1 -0.1)">
       <defs>
        <path id="DejaVuSans-34" d="M 2419 4116 
L 825 1625 
L 2419 1625 
L 2419 4116 
z
M 2253 4666 
L 3047 4666 
L 3047 1625 
L 3713 1625 
L 3713 1100 
L 3047 1100 
L 3047 0 
L 2419 0 
L 2419 1100 
L 313 1100 
L 313 1709 
L 2253 4666 
z
" transform="scale(0.015625)"/>
       </defs>
       <use xlink:href="#DejaVuSans-34"/>
       <use xlink:href="#DejaVuSans-30" x="63.623047"/>
       <use xlink:href="#DejaVuSans-30" x="127.246094"/>
       <use xlink:href="#DejaVuSans-30" x="190.869141"/>
       <use xlink:href="#DejaVuSans-30" x="254.492188"/>
      </g>
     </g>
    </g>
    <g id="xtick_6">
     <g id="line2d_6">
      <g>
       <use xlink:href="#m35da66a091" x="335.649896" y="162.432" style="stroke: #000000; stroke-width: 0.8"/>
      </g>
     </g>
     <g id="text_6">
      <!-- 50000 -->
      <g transform="translate(319.743646 177.030437)scale(0.1 -0.1)">
       <defs>
        <path id="DejaVuSans-35" d="M 691 4666 
L 3169 4666 
L 3169 4134 
L 1269 4134 
L 1269 2991 
Q 1406 3038 1543 3061 
Q 1681 3084 1819 3084 
Q 2600 3084 3056 2656 
Q 3513 2228 3513 1497 
Q 3513 744 3044 326 
Q 2575 -91 1722 -91 
Q 1428 -91 1123 -41 
Q 819 9 494 109 
L 494 744 
Q 775 591 1075 516 
Q 1375 441 1709 441 
Q 2250 441 2565 725 
Q 2881 1009 2881 1497 
Q 2881 1984 2565 2268 
Q 2250 2553 1709 2553 
Q 1456 2553 1204 2497 
Q 953 2441 691 2322 
L 691 4666 
z
" transform="scale(0.015625)"/>
       </defs>
       <use xlink:href="#DejaVuSans-35"/>
       <use xlink:href="#DejaVuSans-30" x="63.623047"/>
       <use xlink:href="#DejaVuSans-30" x="127.246094"/>
       <use xlink:href="#DejaVuSans-30" x="190.869141"/>
       <use xlink:href="#DejaVuSans-30" x="254.492188"/>
      </g>
     </g>
    </g>
    <g id="xtick_7">
     <g id="line2d_7">
      <g>
       <use xlink:href="#m35da66a091" x="388.014377" y="162.432" style="stroke: #000000; stroke-width: 0.8"/>
      </g>
     </g>
     <g id="text_7">
      <!-- 60000 -->
      <g transform="translate(372.108127 177.030437)scale(0.1 -0.1)">
       <defs>
        <path id="DejaVuSans-36" d="M 2113 2584 
Q 1688 2584 1439 2293 
Q 1191 2003 1191 1497 
Q 1191 994 1439 701 
Q 1688 409 2113 409 
Q 2538 409 2786 701 
Q 3034 994 3034 1497 
Q 3034 2003 2786 2293 
Q 2538 2584 2113 2584 
z
M 3366 4563 
L 3366 3988 
Q 3128 4100 2886 4159 
Q 2644 4219 2406 4219 
Q 1781 4219 1451 3797 
Q 1122 3375 1075 2522 
Q 1259 2794 1537 2939 
Q 1816 3084 2150 3084 
Q 2853 3084 3261 2657 
Q 3669 2231 3669 1497 
Q 3669 778 3244 343 
Q 2819 -91 2113 -91 
Q 1303 -91 875 529 
Q 447 1150 447 2328 
Q 447 3434 972 4092 
Q 1497 4750 2381 4750 
Q 2619 4750 2861 4703 
Q 3103 4656 3366 4563 
z
" transform="scale(0.015625)"/>
       </defs>
       <use xlink:href="#DejaVuSans-36"/>
       <use xlink:href="#DejaVuSans-30" x="63.623047"/>
       <use xlink:href="#DejaVuSans-30" x="127.246094"/>
       <use xlink:href="#DejaVuSans-30" x="190.869141"/>
       <use xlink:href="#DejaVuSans-30" x="254.492188"/>
      </g>
     </g>
    </g>
   </g>
   <g id="matplotlib.axis_2">
    <g id="ytick_1">
     <g id="line2d_8">
      <defs>
       <path id="mb8357ee848" d="M 0 0 
L -3.5 0 
" style="stroke: #000000; stroke-width: 0.8"/>
      </defs>
      <g>
       <use xlink:href="#mb8357ee848" x="57.6" y="155.906121" style="stroke: #000000; stroke-width: 0.8"/>
      </g>
     </g>
     <g id="text_8">
      <!-- 40 -->
      <g transform="translate(37.875 159.705339)scale(0.1 -0.1)">
       <use xlink:href="#DejaVuSans-34"/>
       <use xlink:href="#DejaVuSans-30" x="63.623047"/>
      </g>
     </g>
    </g>
    <g id="ytick_2">
     <g id="line2d_9">
      <g>
       <use xlink:href="#mb8357ee848" x="57.6" y="120.670777" style="stroke: #000000; stroke-width: 0.8"/>
      </g>
     </g>
     <g id="text_9">
      <!-- 60 -->
      <g transform="translate(37.875 124.469995)scale(0.1 -0.1)">
       <use xlink:href="#DejaVuSans-36"/>
       <use xlink:href="#DejaVuSans-30" x="63.623047"/>
      </g>
     </g>
    </g>
    <g id="ytick_3">
     <g id="line2d_10">
      <g>
       <use xlink:href="#mb8357ee848" x="57.6" y="85.435432" style="stroke: #000000; stroke-width: 0.8"/>
      </g>
     </g>
     <g id="text_10">
      <!-- 80 -->
      <g transform="translate(37.875 89.234651)scale(0.1 -0.1)">
       <defs>
        <path id="DejaVuSans-38" d="M 2034 2216 
Q 1584 2216 1326 1975 
Q 1069 1734 1069 1313 
Q 1069 891 1326 650 
Q 1584 409 2034 409 
Q 2484 409 2743 651 
Q 3003 894 3003 1313 
Q 3003 1734 2745 1975 
Q 2488 2216 2034 2216 
z
M 1403 2484 
Q 997 2584 770 2862 
Q 544 3141 544 3541 
Q 544 4100 942 4425 
Q 1341 4750 2034 4750 
Q 2731 4750 3128 4425 
Q 3525 4100 3525 3541 
Q 3525 3141 3298 2862 
Q 3072 2584 2669 2484 
Q 3125 2378 3379 2068 
Q 3634 1759 3634 1313 
Q 3634 634 3220 271 
Q 2806 -91 2034 -91 
Q 1263 -91 848 271 
Q 434 634 434 1313 
Q 434 1759 690 2068 
Q 947 2378 1403 2484 
z
M 1172 3481 
Q 1172 3119 1398 2916 
Q 1625 2713 2034 2713 
Q 2441 2713 2670 2916 
Q 2900 3119 2900 3481 
Q 2900 3844 2670 4047 
Q 2441 4250 2034 4250 
Q 1625 4250 1398 4047 
Q 1172 3844 1172 3481 
z
" transform="scale(0.015625)"/>
       </defs>
       <use xlink:href="#DejaVuSans-38"/>
       <use xlink:href="#DejaVuSans-30" x="63.623047"/>
      </g>
     </g>
    </g>
    <g id="ytick_4">
     <g id="line2d_11">
      <g>
       <use xlink:href="#mb8357ee848" x="57.6" y="50.200088" style="stroke: #000000; stroke-width: 0.8"/>
      </g>
     </g>
     <g id="text_11">
      <!-- 100 -->
      <g transform="translate(31.5125 53.999307)scale(0.1 -0.1)">
       <use xlink:href="#DejaVuSans-31"/>
       <use xlink:href="#DejaVuSans-30" x="63.623047"/>
       <use xlink:href="#DejaVuSans-30" x="127.246094"/>
      </g>
     </g>
    </g>
   </g>
   <g id="line2d_12">
    <path d="M 73.832727 49.759647 
L 73.837964 49.759647 
L 73.874619 48.966851 
L 73.890328 51.90313 
L 73.906038 51.315874 
L 73.979348 56.601176 
L 74.026476 55.133037 
L 74.057895 55.133037 
L 74.194042 63.648245 
L 74.204515 63.648245 
L 74.288298 61.299222 
L 74.31448 63.060989 
L 74.319717 63.060989 
L 74.419209 65.70364 
L 74.434919 64.822756 
L 74.450628 64.822756 
L 74.461101 64.2355 
L 74.47681 67.759035 
L 74.534411 67.759035 
L 74.576303 67.759035 
L 74.670559 69.520802 
L 74.686268 68.639918 
L 74.712451 68.639918 
L 74.733396 67.759035 
L 74.790997 70.401686 
L 74.811943 70.401686 
L 74.822416 70.401686 
L 74.937618 69.520802 
L 75.131366 69.520802 
L 75.246568 68.933546 
L 75.262278 68.933546 
L 75.377479 68.052663 
L 75.712612 68.052663 
L 75.785922 67.171779 
L 75.791159 68.933546 
L 75.817341 68.933546 
L 75.895888 68.933546 
L 76.01109 68.346291 
L 76.152474 68.346291 
L 76.231021 67.759035 
L 76.236257 69.520802 
L 76.251966 69.520802 
L 76.545207 69.520802 
L 76.660409 71.282569 
L 76.665646 71.282569 
L 76.780848 70.401686 
L 76.927468 70.401686 
L 77.026961 72.163453 
L 77.037434 71.282569 
L 77.608206 71.282569 
L 77.681517 73.044336 
L 77.718172 72.457081 
L 77.728645 72.457081 
L 77.843847 71.576197 
L 78.618841 71.576197 
L 78.734043 73.337964 
L 79.116303 73.337964 
L 79.231505 72.457081 
L 79.571874 72.457081 
L 79.68184 74.218848 
L 79.797042 73.337964 
L 79.849406 73.337964 
L 79.964608 75.099732 
L 80.284031 75.099732 
L 80.399233 74.218848 
L 80.692474 74.218848 
L 80.807676 73.337964 
L 82.677088 73.337964 
L 82.79229 75.099732 
L 82.870837 75.099732 
L 82.986039 74.218848 
L 84.556973 74.218848 
L 84.672175 75.980615 
L 84.960179 75.980615 
L 85.075381 75.099732 
L 85.185347 75.099732 
L 85.300549 76.861499 
L 85.965578 76.861499 
L 86.080779 75.980615 
L 86.819119 75.980615 
L 86.93432 77.742382 
L 87.007631 77.742382 
L 87.122833 76.861499 
L 87.243271 76.861499 
L 87.358473 76.274243 
L 88.651875 76.274243 
L 88.767077 78.03601 
L 88.772314 78.03601 
L 88.892752 76.274243 
L 89.405924 76.274243 
L 89.521126 78.03601 
L 92.254552 78.03601 
L 92.369754 77.448754 
L 93.129039 77.448754 
L 93.207585 76.567871 
L 93.212822 78.329638 
L 93.233767 78.329638 
L 96.658405 78.329638 
L 96.773606 77.448754 
L 97.883733 77.448754 
L 97.998935 76.567871 
L 106.74904 76.567871 
L 106.864242 78.329638 
L 107.560689 78.329638 
L 107.675891 77.448754 
L 112.776192 77.448754 
L 112.891394 76.567871 
L 120.363805 76.567871 
L 120.479007 75.686987 
L 131.417947 75.686987 
L 131.533149 77.448754 
L 134.753564 77.448754 
L 134.868766 76.567871 
L 136.303553 76.567871 
L 136.418755 78.329638 
L 144.980348 78.329638 
L 145.095549 77.448754 
L 145.257879 77.448754 
L 145.373081 79.210522 
L 149.22187 79.210522 
L 149.337072 80.972289 
L 150.813751 80.972289 
L 150.928953 80.091405 
L 162.868054 80.091405 
L 162.983256 79.210522 
L 176.299544 79.210522 
L 176.414745 78.329638 
L 182.12771 78.329638 
L 182.242912 80.091405 
L 184.546949 80.091405 
L 184.588841 79.210522 
L 184.594077 80.972289 
L 184.651678 80.972289 
L 185.170087 80.972289 
L 185.285289 80.091405 
L 209.37295 80.091405 
L 209.488152 81.853172 
L 210.755372 81.853172 
L 210.870574 80.972289 
L 229.187669 80.972289 
L 229.302871 80.091405 
L 250.57856 80.091405 
L 250.693762 79.50415 
L 264.764098 79.50415 
L 264.8793 81.265917 
L 276.52516 81.265917 
L 276.640362 80.385033 
L 289.689591 80.385033 
L 289.804793 82.1468 
L 318.385326 82.1468 
L 318.500528 81.265917 
L 398.487273 81.265917 
L 398.487273 81.265917 
" clip-path="url(#pcf9792100a)" style="fill: none; stroke: #1f77b4; stroke-width: 1.5; stroke-linecap: square"/>
   </g>
   <g id="line2d_13">
    <path d="M 73.832727 51.961856 
L 73.837964 51.961856 
L 73.85891 51.521414 
L 73.890328 56.806715 
L 73.895565 56.21946 
L 73.937456 62.385645 
L 74.021239 61.357947 
L 74.036949 61.357947 
L 74.042185 60.770692 
L 74.063131 66.055993 
L 74.115495 64.294226 
L 74.204515 73.39669 
L 74.246407 72.515806 
L 74.25688 72.515806 
L 74.288298 71.047667 
L 74.324953 76.332969 
L 74.340663 76.332969 
L 74.356372 76.332969 
L 74.387791 77.213852 
L 74.461101 75.158457 
L 74.581539 78.681992 
L 74.712451 78.681992 
L 74.733396 77.801108 
L 74.738633 79.562875 
L 74.822416 78.681992 
L 74.937618 80.443759 
L 74.969037 80.443759 
L 75.089475 79.269247 
L 75.236095 79.269247 
L 75.351297 78.681992 
L 75.586937 78.681992 
L 75.702139 78.094736 
L 75.712612 78.094736 
L 75.83305 81.61827 
L 76.152474 81.61827 
L 76.231021 81.031014 
L 76.236257 82.792782 
L 76.251966 82.792782 
L 76.32004 82.792782 
L 76.435242 82.205526 
L 76.545207 82.205526 
L 76.55568 83.967293 
L 76.655173 83.380037 
L 76.927468 83.380037 
L 77.04267 85.141805 
L 77.419694 85.141805 
L 77.534896 84.554549 
L 77.608206 84.554549 
L 77.681517 86.316316 
L 77.718172 85.72906 
L 78.142324 85.72906 
L 78.257526 85.141805 
L 78.618841 85.141805 
L 78.734043 86.903572 
L 79.571874 86.903572 
L 79.68184 88.665339 
L 79.797042 87.784455 
L 79.849406 87.784455 
L 79.964608 89.546223 
L 80.001263 89.546223 
L 80.116465 88.958967 
L 80.284031 88.958967 
L 80.399233 88.078083 
L 80.692474 88.078083 
L 80.807676 87.1972 
L 80.922878 86.609944 
L 82.677088 86.609944 
L 82.79229 88.371711 
L 83.26357 88.371711 
L 83.384009 87.1972 
L 84.556973 87.1972 
L 84.672175 88.958967 
L 84.960179 88.958967 
L 85.075381 88.078083 
L 85.185347 88.078083 
L 85.300549 89.83985 
L 85.515243 89.83985 
L 85.630445 89.252595 
L 85.965578 89.252595 
L 86.080779 88.371711 
L 86.819119 88.371711 
L 86.93432 90.133478 
L 87.243271 90.133478 
L 87.358473 89.546223 
L 88.651875 89.546223 
L 88.767077 91.30799 
L 88.772314 91.30799 
L 88.887516 90.427106 
L 89.405924 90.427106 
L 89.521126 92.188873 
L 89.871968 92.188873 
L 89.98717 91.601618 
L 93.129039 91.601618 
L 93.207585 90.720734 
L 93.212822 92.482501 
L 93.233767 92.482501 
L 93.993052 92.482501 
L 94.108254 91.895246 
L 95.197436 91.895246 
L 95.312637 91.30799 
L 96.658405 91.30799 
L 96.773606 90.427106 
L 97.883733 90.427106 
L 97.998935 92.188873 
L 99.941657 92.188873 
L 100.056859 91.601618 
L 106.74904 91.601618 
L 106.864242 93.363385 
L 120.363805 93.363385 
L 120.479007 92.482501 
L 131.417947 92.482501 
L 131.533149 94.244268 
L 136.303553 94.244268 
L 136.418755 96.006036 
L 136.994764 96.006036 
L 137.109966 95.41878 
L 144.980348 95.41878 
L 145.095549 94.537896 
L 145.257879 94.537896 
L 145.373081 96.299664 
L 149.22187 96.299664 
L 149.337072 98.061431 
L 150.813751 98.061431 
L 150.928953 97.180547 
L 154.212206 97.180547 
L 154.327407 96.593291 
L 155.427061 96.593291 
L 155.542263 96.006036 
L 176.299544 96.006036 
L 176.414745 95.125152 
L 178.116591 95.125152 
L 178.231793 94.537896 
L 182.12771 94.537896 
L 182.242912 96.299664 
L 184.546949 96.299664 
L 184.588841 95.41878 
L 184.594077 97.180547 
L 184.651678 97.180547 
L 186.37447 97.180547 
L 186.489672 96.593291 
L 209.37295 96.593291 
L 209.488152 98.355059 
L 210.755372 98.355059 
L 210.870574 100.116826 
L 218.432005 100.116826 
L 218.547207 99.52957 
L 229.187669 99.52957 
L 229.302871 98.648686 
L 264.764098 98.648686 
L 264.8793 100.410454 
L 271.759992 100.410454 
L 271.875194 99.823198 
L 276.52516 99.823198 
L 276.640362 98.942314 
L 289.689591 98.942314 
L 289.804793 100.704082 
L 318.385326 100.704082 
L 318.500528 99.823198 
L 398.487273 99.823198 
L 398.487273 99.823198 
" clip-path="url(#pcf9792100a)" style="fill: none; stroke: #ff7f0e; stroke-width: 1.5; stroke-linecap: square"/>
   </g>
   <g id="line2d_14">
    <path d="M 73.832727 49.759647 
L 73.848437 49.759647 
L 73.995057 61.798389 
L 74.00553 60.917506 
L 74.073604 64.734668 
L 74.084077 64.734668 
L 74.089313 64.734668 
L 74.209752 69.08036 
L 74.25688 69.08036 
L 74.366845 72.251541 
L 74.372081 71.370658 
L 74.440155 71.370658 
L 74.560594 74.894192 
L 74.576303 74.894192 
L 74.691505 77.536843 
L 74.733396 77.536843 
L 74.822416 81.060377 
L 74.848598 80.179494 
L 74.969037 80.179494 
L 75.089475 83.703028 
L 75.131366 83.703028 
L 75.236095 83.115772 
L 75.262278 84.87754 
L 75.346061 83.996656 
L 75.586937 83.996656 
L 75.702139 85.758423 
L 75.712612 85.758423 
L 75.827814 84.87754 
L 75.895888 84.87754 
L 76.01109 84.290284 
L 76.152474 84.290284 
L 76.267676 83.350675 
L 76.32004 83.350675 
L 76.435242 85.112442 
L 76.55568 85.112442 
L 76.665646 86.874209 
L 76.786084 85.112442 
L 77.026961 85.112442 
L 77.142162 84.231558 
L 77.173581 84.231558 
L 77.288783 85.993325 
L 77.419694 85.993325 
L 77.534896 87.755093 
L 77.644861 87.755093 
L 77.681517 89.51686 
L 77.754827 88.04872 
L 77.959048 88.04872 
L 78.058541 89.810488 
L 78.069014 88.929604 
L 78.142324 88.929604 
L 78.262762 92.453138 
L 79.116303 92.453138 
L 79.231505 91.572255 
L 79.849406 91.572255 
L 79.964608 91.219901 
L 80.001263 91.219901 
L 80.116465 92.981669 
L 80.807676 92.981669 
L 80.922878 94.743436 
L 81.153282 94.743436 
L 81.268484 93.862552 
L 82.870837 93.862552 
L 82.986039 92.981669 
L 83.26357 92.981669 
L 83.384009 96.505203 
L 84.960179 96.505203 
L 85.075381 98.26697 
L 85.515243 98.26697 
L 85.630445 100.028737 
L 85.965578 100.028737 
L 86.080779 101.790505 
L 87.007631 101.790505 
L 87.122833 100.909621 
L 87.243271 100.909621 
L 87.358473 100.322365 
L 88.887516 100.322365 
L 89.002717 99.441482 
L 89.871968 99.441482 
L 89.98717 101.203249 
L 92.254552 101.203249 
L 92.369754 100.615993 
L 93.993052 100.615993 
L 94.108254 102.37776 
L 95.197436 102.37776 
L 95.312637 104.139528 
L 96.658405 104.139528 
L 96.773606 105.901295 
L 97.883733 105.901295 
L 97.998935 105.020411 
L 99.941657 105.020411 
L 100.056859 106.782178 
L 107.560689 106.782178 
L 107.675891 105.901295 
L 112.776192 105.901295 
L 112.891394 105.020411 
L 134.753564 105.020411 
L 134.868766 104.139528 
L 136.994764 104.139528 
L 137.109966 105.901295 
L 153.856127 105.901295 
L 153.971329 105.020411 
L 154.212206 105.020411 
L 154.327407 106.782178 
L 155.427061 106.782178 
L 155.542263 108.543946 
L 162.868054 108.543946 
L 162.983256 107.663062 
L 178.116591 107.663062 
L 178.231793 109.424829 
L 185.170087 109.424829 
L 185.285289 108.543946 
L 186.37447 108.543946 
L 186.489672 110.305713 
L 210.755372 110.305713 
L 210.870574 109.424829 
L 218.432005 109.424829 
L 218.547207 111.186596 
L 250.57856 111.186596 
L 250.693762 110.599341 
L 271.759992 110.599341 
L 271.875194 112.361108 
L 276.52516 112.361108 
L 276.640362 114.122875 
L 398.487273 114.122875 
L 398.487273 114.122875 
" clip-path="url(#pcf9792100a)" style="fill: none; stroke: #2ca02c; stroke-width: 1.5; stroke-linecap: square"/>
   </g>
   <g id="line2d_15">
    <path d="M 73.832727 49.759647 
L 73.837964 49.759647 
L 73.947929 58.304218 
L 73.968875 57.863776 
L 73.984584 57.863776 
L 73.995057 57.423334 
L 74.010767 60.946868 
L 74.068367 58.891473 
L 74.115495 62.415008 
L 74.178333 59.566817 
L 74.267352 58.685934 
L 74.272589 60.447701 
L 74.277825 60.447701 
L 74.288298 60.447701 
L 74.419209 58.774022 
L 74.440155 58.774022 
L 74.461101 62.297556 
L 74.555357 61.416673 
L 74.576303 61.416673 
L 74.691505 60.976231 
L 74.733396 60.976231 
L 74.848598 59.948534 
L 75.131366 59.948534 
L 75.246568 61.710301 
L 75.785922 61.710301 
L 75.895888 61.269859 
L 76.01109 63.031626 
L 76.231021 63.031626 
L 76.346222 62.679273 
L 76.545207 62.679273 
L 76.660409 62.238831 
L 76.759902 62.238831 
L 76.875104 64.000598 
L 76.927468 64.000598 
L 77.04267 63.560156 
L 77.608206 63.560156 
L 77.723408 63.119715 
L 78.058541 63.119715 
L 78.173743 64.881482 
L 78.618841 64.881482 
L 78.734043 64.44104 
L 79.571874 64.44104 
L 79.687076 64.000598 
L 79.849406 64.000598 
L 79.964608 63.648245 
L 81.153282 63.648245 
L 81.268484 65.410012 
L 82.677088 65.410012 
L 82.79229 64.96957 
L 84.556973 64.96957 
L 84.672175 64.529128 
L 85.185347 64.529128 
L 85.300549 64.088686 
L 86.819119 64.088686 
L 86.93432 63.648245 
L 88.651875 63.648245 
L 88.767077 63.207803 
L 89.405924 63.207803 
L 89.521126 62.767361 
L 92.254552 62.767361 
L 92.369754 64.529128 
L 93.207585 64.529128 
L 93.322787 64.088686 
L 106.74904 64.088686 
L 106.864242 63.648245 
L 131.417947 63.648245 
L 131.533149 63.207803 
L 136.303553 63.207803 
L 136.418755 62.767361 
L 145.257879 62.767361 
L 145.373081 62.326919 
L 149.22187 62.326919 
L 149.337072 61.886477 
L 153.856127 61.886477 
L 153.971329 63.648245 
L 182.12771 63.648245 
L 182.242912 63.207803 
L 184.588841 63.207803 
L 184.704043 62.767361 
L 209.37295 62.767361 
L 209.488152 62.326919 
L 250.57856 62.326919 
L 250.693762 64.088686 
L 264.764098 64.088686 
L 264.8793 63.648245 
L 289.689591 63.648245 
L 289.804793 63.207803 
L 398.487273 63.207803 
L 398.487273 63.207803 
" clip-path="url(#pcf9792100a)" style="fill: none; stroke: #d62728; stroke-width: 1.5; stroke-linecap: square"/>
   </g>
   <g id="line2d_16">
    <path d="M 73.832727 50.200088 
L 73.874619 50.200088 
L 73.989821 49.612833 
L 398.487273 49.612833 
L 398.487273 49.612833 
" clip-path="url(#pcf9792100a)" style="fill: none; stroke: #9467bd; stroke-width: 1.5; stroke-linecap: square"/>
   </g>
   <g id="line2d_17">
    <path d="M 73.832727 50.200088 
L 73.837964 50.200088 
L 73.968875 57.834413 
L 73.979348 57.834413 
L 74.068367 55.044948 
L 74.099786 56.21946 
L 74.120732 56.21946 
L 74.235934 55.632204 
L 74.267352 55.632204 
L 74.393027 53.811711 
L 74.440155 53.811711 
L 74.450628 55.573478 
L 74.550121 54.986223 
L 75.131366 54.986223 
L 75.246568 54.398967 
L 75.895888 54.398967 
L 76.01109 53.811711 
L 76.759902 53.811711 
L 76.875104 52.930828 
L 78.058541 52.930828 
L 78.173743 52.049944 
L 81.153282 52.049944 
L 81.268484 51.16906 
L 92.254552 51.16906 
L 92.369754 50.581805 
L 153.856127 50.581805 
L 153.971329 49.700921 
L 250.57856 49.700921 
L 250.693762 49.113665 
L 398.487273 49.113665 
L 398.487273 49.113665 
" clip-path="url(#pcf9792100a)" style="fill: none; stroke: #8c564b; stroke-width: 1.5; stroke-linecap: square"/>
   </g>
   <g id="line2d_18">
    <path d="M 73.832727 49.759647 
L 73.837964 49.759647 
L 73.979348 46.970182 
L 398.487273 46.970182 
L 398.487273 46.970182 
" clip-path="url(#pcf9792100a)" style="fill: none; stroke: #e377c2; stroke-width: 1.5; stroke-linecap: square"/>
   </g>
   <g id="line2d_19">
    <path d="M 73.832727 51.961856 
L 73.837964 51.961856 
L 73.968875 59.831082 
L 73.979348 59.831082 
L 74.110259 66.731337 
L 74.115495 66.731337 
L 74.120732 66.378984 
L 74.162624 69.021635 
L 74.204515 67.700309 
L 74.288298 71.223844 
L 74.319717 69.843793 
L 74.356372 69.403351 
L 74.361609 71.165118 
L 74.419209 70.724676 
L 74.440155 70.724676 
L 74.461101 74.248211 
L 74.555357 72.780071 
L 74.576303 72.780071 
L 74.670559 72.33963 
L 74.785761 77.037675 
L 74.790997 76.597234 
L 75.131366 76.597234 
L 75.251805 80.120768 
L 75.382716 80.120768 
L 75.497918 81.882535 
L 75.61312 81.882535 
L 75.728321 83.644302 
L 75.785922 83.644302 
L 75.895888 83.203861 
L 76.01109 84.965628 
L 76.152474 84.965628 
L 76.231021 88.489162 
L 76.272912 88.136809 
L 76.545207 88.136809 
L 76.660409 87.696367 
L 76.759902 87.696367 
L 76.875104 89.458134 
L 76.927468 89.458134 
L 77.04267 89.017692 
L 77.173581 89.017692 
L 77.288783 88.430437 
L 77.608206 88.430437 
L 77.728645 87.402739 
L 77.959048 87.402739 
L 78.058541 86.815483 
L 78.173743 88.577251 
L 78.252289 88.577251 
L 78.367491 87.989995 
L 78.618841 87.989995 
L 78.734043 87.549553 
L 79.26816 87.549553 
L 79.383362 89.31132 
L 79.571874 89.31132 
L 79.687076 88.870879 
L 79.849406 88.870879 
L 79.964608 88.518525 
L 81.153282 88.518525 
L 81.268484 90.280292 
L 81.27372 90.280292 
L 81.388922 92.042059 
L 82.677088 92.042059 
L 82.79229 91.601618 
L 84.556973 91.601618 
L 84.672175 91.161176 
L 84.960179 91.161176 
L 85.075381 92.922943 
L 85.185347 92.922943 
L 85.300549 92.482501 
L 85.913213 92.482501 
L 86.033651 96.006036 
L 86.819119 96.006036 
L 86.93432 95.565594 
L 87.217089 95.565594 
L 87.33229 97.327361 
L 87.599349 97.327361 
L 87.714551 99.089128 
L 88.651875 99.089128 
L 88.767077 98.648686 
L 89.405924 98.648686 
L 89.521126 98.208245 
L 92.254552 98.208245 
L 92.369754 99.970012 
L 93.207585 99.970012 
L 93.322787 99.52957 
L 95.878174 99.52957 
L 95.993376 101.291337 
L 100.025441 101.291337 
L 100.140643 103.053105 
L 106.74904 103.053105 
L 106.864242 102.612663 
L 111.189548 102.612663 
L 111.30475 104.37443 
L 129.181984 104.37443 
L 129.297185 106.136197 
L 131.417947 106.136197 
L 131.533149 105.695755 
L 136.303553 105.695755 
L 136.418755 105.255314 
L 145.257879 105.255314 
L 145.373081 104.814872 
L 149.22187 104.814872 
L 149.337072 104.37443 
L 153.856127 104.37443 
L 153.971329 106.136197 
L 165.05689 106.136197 
L 165.172091 107.897964 
L 177.289232 107.897964 
L 177.404434 109.659732 
L 182.12771 109.659732 
L 182.242912 109.21929 
L 184.588841 109.21929 
L 184.704043 108.778848 
L 200.874195 108.778848 
L 200.989396 110.540615 
L 209.37295 110.540615 
L 209.488152 110.100173 
L 250.57856 110.100173 
L 250.693762 111.861941 
L 264.764098 111.861941 
L 264.8793 111.421499 
L 289.689591 111.421499 
L 289.804793 110.981057 
L 313.829616 110.981057 
L 313.944818 112.742824 
L 398.487273 112.742824 
L 398.487273 112.742824 
" clip-path="url(#pcf9792100a)" style="fill: none; stroke: #7f7f7f; stroke-width: 1.5; stroke-linecap: square"/>
   </g>
   <g id="line2d_20">
    <path d="M 73.832727 51.961856 
L 73.837964 51.961856 
L 73.942693 61.680938 
L 73.974111 60.800054 
L 73.979348 60.800054 
L 74.036949 68.581193 
L 74.105023 66.96624 
L 74.115495 66.96624 
L 74.157387 66.320258 
L 74.125968 68.375653 
L 74.204515 66.7607 
L 74.31448 73.367327 
L 74.33019 72.33963 
L 74.356372 72.33963 
L 74.461101 78.359001 
L 74.482047 77.478117 
L 74.539648 77.478117 
L 74.65485 76.45042 
L 74.670559 76.45042 
L 74.785761 80.56121 
L 74.790997 80.120768 
L 74.822416 80.120768 
L 74.937618 81.882535 
L 74.969037 81.882535 
L 75.089475 80.708024 
L 75.131366 80.708024 
L 75.225622 82.469791 
L 75.236095 80.708024 
L 75.262278 80.120768 
L 75.267514 81.882535 
L 75.335588 81.882535 
L 75.382716 81.882535 
L 75.497918 80.120768 
L 75.586937 80.120768 
L 75.712612 77.771745 
L 75.785922 79.533512 
L 75.822578 79.093071 
L 75.895888 79.093071 
L 76.01109 80.854838 
L 76.152474 80.854838 
L 76.15771 82.616605 
L 76.236257 80.502484 
L 76.262439 80.502484 
L 76.32004 80.502484 
L 76.435242 79.915229 
L 76.545207 79.915229 
L 76.665646 78.887531 
L 76.786084 82.411065 
L 76.927468 82.411065 
L 77.026961 81.970624 
L 77.142162 83.732391 
L 77.173581 83.732391 
L 77.288783 83.145135 
L 77.419694 83.145135 
L 77.534896 82.557879 
L 77.608206 82.557879 
L 77.681517 81.530182 
L 77.686753 83.291949 
L 77.707699 83.291949 
L 77.728645 83.291949 
L 77.843847 85.053716 
L 77.959048 85.053716 
L 78.058541 84.46646 
L 78.142324 86.228228 
L 78.168506 85.640972 
L 78.252289 85.640972 
L 78.367491 85.053716 
L 78.618841 85.053716 
L 78.734043 84.613274 
L 79.116303 84.613274 
L 79.231505 86.375042 
L 79.26816 86.375042 
L 79.383362 84.613274 
L 79.571874 84.613274 
L 79.68184 84.172833 
L 79.797042 85.9346 
L 79.849406 85.9346 
L 79.964608 85.582246 
L 80.001263 85.582246 
L 80.116465 84.994991 
L 80.284031 84.994991 
L 80.399233 86.756758 
L 80.692474 86.756758 
L 80.807676 88.518525 
L 80.922878 87.931269 
L 81.153282 87.931269 
L 81.268484 89.693037 
L 81.27372 89.693037 
L 81.388922 87.931269 
L 82.677088 87.931269 
L 82.79229 87.490828 
L 82.870837 87.490828 
L 82.986039 89.252595 
L 83.26357 89.252595 
L 83.384009 88.078083 
L 84.556973 88.078083 
L 84.672175 87.637641 
L 84.960179 87.637641 
L 85.075381 89.399409 
L 85.185347 89.399409 
L 85.300549 88.958967 
L 85.515243 88.958967 
L 85.630445 88.371711 
L 85.913213 88.371711 
L 85.965578 86.609944 
L 86.023178 88.371711 
L 86.819119 88.371711 
L 86.93432 87.931269 
L 87.007631 87.931269 
L 87.122833 89.693037 
L 87.217089 89.693037 
L 87.243271 87.931269 
L 87.327054 89.693037 
L 87.599349 89.693037 
L 87.714551 87.931269 
L 88.651875 87.931269 
L 88.767077 87.490828 
L 88.772314 87.490828 
L 88.892752 91.014362 
L 89.405924 91.014362 
L 89.521126 90.57392 
L 89.871968 90.57392 
L 89.98717 89.986664 
L 92.254552 89.986664 
L 92.369754 91.748432 
L 93.129039 91.748432 
L 93.207585 93.510199 
L 93.239004 93.069757 
L 93.993052 93.069757 
L 94.108254 92.482501 
L 95.197436 92.482501 
L 95.312637 91.895246 
L 95.878174 91.895246 
L 95.993376 90.133478 
L 96.658405 90.133478 
L 96.773606 91.895246 
L 97.883733 91.895246 
L 97.998935 93.657013 
L 99.941657 93.657013 
L 100.072569 91.30799 
L 106.74904 91.30799 
L 106.864242 90.867548 
L 107.560689 90.867548 
L 107.675891 92.629315 
L 111.189548 92.629315 
L 111.30475 90.867548 
L 112.776192 90.867548 
L 112.891394 92.629315 
L 120.363805 92.629315 
L 120.479007 94.391082 
L 129.181984 94.391082 
L 129.297185 92.629315 
L 131.417947 92.629315 
L 131.533149 92.188873 
L 134.753564 92.188873 
L 134.868766 93.950641 
L 136.303553 93.950641 
L 136.418755 93.510199 
L 136.994764 93.510199 
L 137.109966 92.922943 
L 144.980348 92.922943 
L 145.095549 94.68471 
L 145.257879 94.68471 
L 145.373081 94.244268 
L 149.22187 94.244268 
L 149.337072 93.803827 
L 150.813751 93.803827 
L 150.928953 95.565594 
L 153.856127 95.565594 
L 153.971329 97.327361 
L 154.212206 97.327361 
L 154.327407 96.740105 
L 155.427061 96.740105 
L 155.542263 96.15285 
L 162.868054 96.15285 
L 162.983256 97.914617 
L 165.05689 97.914617 
L 165.172091 96.15285 
L 176.299544 96.15285 
L 176.414745 97.914617 
L 177.289232 97.914617 
L 177.404434 96.15285 
L 178.116591 96.15285 
L 178.231793 95.565594 
L 182.12771 95.565594 
L 182.242912 95.125152 
L 184.546949 95.125152 
L 184.588841 96.886919 
L 184.656915 96.446477 
L 185.170087 96.446477 
L 185.285289 98.208245 
L 186.37447 98.208245 
L 186.489672 97.620989 
L 200.874195 97.620989 
L 200.989396 95.859222 
L 209.37295 95.859222 
L 209.488152 95.41878 
L 210.755372 95.41878 
L 210.870574 97.180547 
L 218.432005 97.180547 
L 218.547207 96.593291 
L 229.187669 96.593291 
L 229.302871 98.355059 
L 250.57856 98.355059 
L 250.693762 100.116826 
L 264.764098 100.116826 
L 264.8793 99.676384 
L 271.759992 99.676384 
L 271.875194 99.089128 
L 276.52516 99.089128 
L 276.640362 100.850895 
L 289.689591 100.850895 
L 289.804793 100.410454 
L 313.829616 100.410454 
L 313.944818 98.648686 
L 318.385326 98.648686 
L 318.500528 100.410454 
L 398.487273 100.410454 
L 398.487273 100.410454 
" clip-path="url(#pcf9792100a)" style="fill: none; stroke: #bcbd22; stroke-width: 1.5; stroke-linecap: square"/>
   </g>
   <g id="line2d_21">
    <path d="M 73.832727 51.961856 
L 73.837964 51.961856 
L 73.942693 62.033291 
L 73.974111 61.152408 
L 73.979348 61.152408 
L 74.089313 68.639918 
L 74.110259 68.052663 
L 74.115495 68.052663 
L 74.120732 67.700309 
L 74.162624 69.755704 
L 74.204515 68.434379 
L 74.288298 71.957913 
L 74.319717 70.577862 
L 74.356372 70.137421 
L 74.372081 73.660955 
L 74.398264 73.220513 
L 74.419209 73.220513 
L 74.461101 78.505815 
L 74.539648 77.624931 
L 74.65485 76.597234 
L 74.670559 76.597234 
L 74.785761 80.708024 
L 74.790997 80.267582 
L 74.822416 80.267582 
L 74.937618 82.029349 
L 74.969037 82.029349 
L 75.089475 80.854838 
L 75.131366 80.854838 
L 75.236095 84.378372 
L 75.246568 83.791116 
L 75.262278 83.791116 
L 75.377479 85.552884 
L 75.382716 85.552884 
L 75.497918 87.314651 
L 75.586937 87.314651 
L 75.61312 86.727395 
L 75.618356 88.489162 
L 75.68643 88.489162 
L 75.712612 88.489162 
L 75.785922 90.250929 
L 75.822578 89.810488 
L 75.895888 89.810488 
L 76.01109 91.572255 
L 76.152474 91.572255 
L 76.231021 95.095789 
L 76.272912 94.743436 
L 76.32004 94.743436 
L 76.435242 94.15618 
L 76.545207 94.15618 
L 76.665646 93.128483 
L 76.786084 96.652017 
L 76.927468 96.652017 
L 77.026961 96.211575 
L 77.142162 97.973342 
L 77.173581 97.973342 
L 77.288783 97.386087 
L 77.419694 97.386087 
L 77.534896 96.798831 
L 77.608206 96.798831 
L 77.681517 95.771133 
L 77.686753 97.532901 
L 77.707699 97.532901 
L 77.728645 97.532901 
L 77.843847 99.294668 
L 77.959048 99.294668 
L 78.058541 98.707412 
L 78.142324 100.469179 
L 78.168506 99.881924 
L 78.252289 99.881924 
L 78.367491 99.294668 
L 78.618841 99.294668 
L 78.734043 98.854226 
L 79.116303 98.854226 
L 79.231505 100.615993 
L 79.26816 100.615993 
L 79.383362 102.37776 
L 79.571874 102.37776 
L 79.68184 101.937319 
L 79.797042 103.699086 
L 79.849406 103.699086 
L 79.964608 103.346732 
L 80.001263 103.346732 
L 80.116465 102.759477 
L 80.284031 102.759477 
L 80.399233 104.521244 
L 80.692474 104.521244 
L 80.807676 106.283011 
L 80.922878 105.695755 
L 81.153282 105.695755 
L 81.268484 107.457523 
L 81.27372 107.457523 
L 81.388922 109.21929 
L 82.677088 109.21929 
L 82.79229 108.778848 
L 82.870837 108.778848 
L 82.986039 110.540615 
L 83.26357 110.540615 
L 83.384009 109.366104 
L 84.556973 109.366104 
L 84.672175 108.925662 
L 84.960179 108.925662 
L 85.075381 110.687429 
L 85.185347 110.687429 
L 85.300549 110.246987 
L 85.515243 110.246987 
L 85.630445 109.659732 
L 85.913213 109.659732 
L 86.033651 113.183266 
L 86.819119 113.183266 
L 86.93432 112.742824 
L 87.007631 112.742824 
L 87.122833 114.504591 
L 87.217089 114.504591 
L 87.337527 118.028126 
L 87.599349 118.028126 
L 87.714551 119.789893 
L 88.651875 119.789893 
L 88.767077 119.349451 
L 88.772314 119.349451 
L 88.892752 122.872986 
L 89.405924 122.872986 
L 89.521126 122.432544 
L 89.871968 122.432544 
L 89.98717 121.845288 
L 92.254552 121.845288 
L 92.369754 123.607055 
L 93.129039 123.607055 
L 93.207585 125.368822 
L 93.239004 124.928381 
L 93.993052 124.928381 
L 94.108254 124.341125 
L 95.197436 124.341125 
L 95.312637 123.753869 
L 95.878174 123.753869 
L 95.993376 125.515636 
L 97.883733 125.515636 
L 97.998935 127.277404 
L 99.941657 127.277404 
L 100.025441 126.690148 
L 100.030677 128.451915 
L 100.04115 128.451915 
L 106.74904 128.451915 
L 106.864242 128.011473 
L 107.560689 128.011473 
L 107.675891 129.77324 
L 111.189548 129.77324 
L 111.30475 131.535008 
L 112.776192 131.535008 
L 112.891394 133.296775 
L 120.363805 133.296775 
L 120.479007 135.058542 
L 129.181984 135.058542 
L 129.297185 136.820309 
L 131.417947 136.820309 
L 131.533149 136.379867 
L 134.753564 136.379867 
L 134.868766 138.141635 
L 136.303553 138.141635 
L 136.418755 137.701193 
L 136.994764 137.701193 
L 137.109966 137.113937 
L 144.980348 137.113937 
L 145.095549 138.875704 
L 145.257879 138.875704 
L 145.373081 138.435263 
L 149.22187 138.435263 
L 149.337072 137.994821 
L 150.813751 137.994821 
L 150.928953 139.756588 
L 153.856127 139.756588 
L 153.971329 141.518355 
L 154.212206 141.518355 
L 154.327407 140.931099 
L 155.427061 140.931099 
L 155.542263 140.343844 
L 162.868054 140.343844 
L 162.983256 142.105611 
L 165.05689 142.105611 
L 165.172091 143.867378 
L 176.299544 143.867378 
L 176.414745 145.629145 
L 177.289232 145.629145 
L 177.404434 147.390912 
L 178.116591 147.390912 
L 178.231793 146.803657 
L 182.12771 146.803657 
L 182.242912 146.363215 
L 184.546949 146.363215 
L 184.588841 148.124982 
L 184.656915 147.68454 
L 185.170087 147.68454 
L 185.285289 149.446308 
L 186.37447 149.446308 
L 186.489672 148.859052 
L 200.874195 148.859052 
L 200.989396 150.620819 
L 209.37295 150.620819 
L 209.488152 150.180377 
L 210.755372 150.180377 
L 210.870574 151.942144 
L 218.432005 151.942144 
L 218.547207 151.354889 
L 229.187669 151.354889 
L 229.302871 153.116656 
L 250.57856 153.116656 
L 250.693762 154.878423 
L 264.764098 154.878423 
L 264.8793 154.437981 
L 271.759992 154.437981 
L 271.875194 153.850726 
L 289.689591 153.850726 
L 289.804793 153.410284 
L 313.829616 153.410284 
L 313.944818 155.172051 
L 318.385326 155.172051 
L 318.500528 156.933818 
L 398.487273 156.933818 
L 398.487273 156.933818 
" clip-path="url(#pcf9792100a)" style="fill: none; stroke: #17becf; stroke-width: 1.5; stroke-linecap: square"/>
   </g>
   <g id="line2d_22">
    <path d="M 73.832727 50.200088 
L 73.837964 50.200088 
L 73.879855 48.174056 
L 73.895565 51.69759 
L 73.926983 51.69759 
L 73.942693 51.69759 
L 73.979348 51.257149 
L 74.000294 54.780683 
L 74.010767 54.780683 
L 74.136441 61.240496 
L 74.267352 61.240496 
L 74.393027 66.525798 
L 74.440155 66.525798 
L 74.450628 65.938542 
L 74.455865 67.700309 
L 74.539648 67.700309 
L 75.131366 67.700309 
L 75.246568 69.462076 
L 75.895888 69.462076 
L 76.01109 71.223844 
L 76.759902 71.223844 
L 76.875104 72.985611 
L 78.058541 72.985611 
L 78.173743 74.747378 
L 81.153282 74.747378 
L 81.268484 76.509145 
L 92.254552 76.509145 
L 92.369754 78.270912 
L 153.856127 78.270912 
L 153.971329 80.03268 
L 250.57856 80.03268 
L 250.693762 81.794447 
L 398.487273 81.794447 
L 398.487273 81.794447 
" clip-path="url(#pcf9792100a)" style="fill: none; stroke: #1f77b4; stroke-width: 1.5; stroke-linecap: square"/>
   </g>
   <g id="line2d_23">
    <path d="M 73.832727 50.200088 
L 73.837964 50.200088 
L 73.848437 51.961856 
L 73.937456 48.085968 
L 73.942693 48.085968 
L 398.487273 48.085968 
L 398.487273 48.085968 
" clip-path="url(#pcf9792100a)" style="fill: none; stroke: #ff7f0e; stroke-width: 1.5; stroke-linecap: square"/>
   </g>
   <g id="patch_3">
    <path d="M 57.6 162.432 
L 57.6 41.472 
" style="fill: none; stroke: #000000; stroke-width: 0.8; stroke-linejoin: miter; stroke-linecap: square"/>
   </g>
   <g id="patch_4">
    <path d="M 414.72 162.432 
L 414.72 41.472 
" style="fill: none; stroke: #000000; stroke-width: 0.8; stroke-linejoin: miter; stroke-linecap: square"/>
   </g>
   <g id="patch_5">
    <path d="M 57.6 162.432 
L 414.72 162.432 
" style="fill: none; stroke: #000000; stroke-width: 0.8; stroke-linejoin: miter; stroke-linecap: square"/>
   </g>
   <g id="patch_6">
    <path d="M 57.6 41.472 
L 414.72 41.472 
" style="fill: none; stroke: #000000; stroke-width: 0.8; stroke-linejoin: miter; stroke-linecap: square"/>
   </g>
   <g id="text_12">
    <!-- WSP -->
    <g transform="translate(361.832136 81.265917)scale(0.08 -0.08)">
     <defs>
      <path id="DejaVuSans-57" d="M 213 4666 
L 850 4666 
L 1831 722 
L 2809 4666 
L 3519 4666 
L 4500 722 
L 5478 4666 
L 6119 4666 
L 4947 0 
L 4153 0 
L 3169 4050 
L 2175 0 
L 1381 0 
L 213 4666 
z
" transform="scale(0.015625)"/>
      <path id="DejaVuSans-53" d="M 3425 4513 
L 3425 3897 
Q 3066 4069 2747 4153 
Q 2428 4238 2131 4238 
Q 1616 4238 1336 4038 
Q 1056 3838 1056 3469 
Q 1056 3159 1242 3001 
Q 1428 2844 1947 2747 
L 2328 2669 
Q 3034 2534 3370 2195 
Q 3706 1856 3706 1288 
Q 3706 609 3251 259 
Q 2797 -91 1919 -91 
Q 1588 -91 1214 -16 
Q 841 59 441 206 
L 441 856 
Q 825 641 1194 531 
Q 1563 422 1919 422 
Q 2459 422 2753 634 
Q 3047 847 3047 1241 
Q 3047 1584 2836 1778 
Q 2625 1972 2144 2069 
L 1759 2144 
Q 1053 2284 737 2584 
Q 422 2884 422 3419 
Q 422 4038 858 4394 
Q 1294 4750 2059 4750 
Q 2388 4750 2728 4690 
Q 3069 4631 3425 4513 
z
" transform="scale(0.015625)"/>
      <path id="DejaVuSans-50" d="M 1259 4147 
L 1259 2394 
L 2053 2394 
Q 2494 2394 2734 2622 
Q 2975 2850 2975 3272 
Q 2975 3691 2734 3919 
Q 2494 4147 2053 4147 
L 1259 4147 
z
M 628 4666 
L 2053 4666 
Q 2838 4666 3239 4311 
Q 3641 3956 3641 3272 
Q 3641 2581 3239 2228 
Q 2838 1875 2053 1875 
L 1259 1875 
L 1259 0 
L 628 0 
L 628 4666 
z
" transform="scale(0.015625)"/>
     </defs>
     <use xlink:href="#DejaVuSans-57"/>
     <use xlink:href="#DejaVuSans-53" x="98.876953"/>
     <use xlink:href="#DejaVuSans-50" x="162.353516"/>
    </g>
   </g>
   <g id="text_13">
    <!-- Iambic -->
    <g transform="translate(361.832136 99.823198)scale(0.08 -0.08)">
     <defs>
      <path id="DejaVuSans-49" d="M 628 4666 
L 1259 4666 
L 1259 0 
L 628 0 
L 628 4666 
z
" transform="scale(0.015625)"/>
      <path id="DejaVuSans-61" d="M 2194 1759 
Q 1497 1759 1228 1600 
Q 959 1441 959 1056 
Q 959 750 1161 570 
Q 1363 391 1709 391 
Q 2188 391 2477 730 
Q 2766 1069 2766 1631 
L 2766 1759 
L 2194 1759 
z
M 3341 1997 
L 3341 0 
L 2766 0 
L 2766 531 
Q 2569 213 2275 61 
Q 1981 -91 1556 -91 
Q 1019 -91 701 211 
Q 384 513 384 1019 
Q 384 1609 779 1909 
Q 1175 2209 1959 2209 
L 2766 2209 
L 2766 2266 
Q 2766 2663 2505 2880 
Q 2244 3097 1772 3097 
Q 1472 3097 1187 3025 
Q 903 2953 641 2809 
L 641 3341 
Q 956 3463 1253 3523 
Q 1550 3584 1831 3584 
Q 2591 3584 2966 3190 
Q 3341 2797 3341 1997 
z
" transform="scale(0.015625)"/>
      <path id="DejaVuSans-6d" d="M 3328 2828 
Q 3544 3216 3844 3400 
Q 4144 3584 4550 3584 
Q 5097 3584 5394 3201 
Q 5691 2819 5691 2113 
L 5691 0 
L 5113 0 
L 5113 2094 
Q 5113 2597 4934 2840 
Q 4756 3084 4391 3084 
Q 3944 3084 3684 2787 
Q 3425 2491 3425 1978 
L 3425 0 
L 2847 0 
L 2847 2094 
Q 2847 2600 2669 2842 
Q 2491 3084 2119 3084 
Q 1678 3084 1418 2786 
Q 1159 2488 1159 1978 
L 1159 0 
L 581 0 
L 581 3500 
L 1159 3500 
L 1159 2956 
Q 1356 3278 1631 3431 
Q 1906 3584 2284 3584 
Q 2666 3584 2933 3390 
Q 3200 3197 3328 2828 
z
" transform="scale(0.015625)"/>
      <path id="DejaVuSans-62" d="M 3116 1747 
Q 3116 2381 2855 2742 
Q 2594 3103 2138 3103 
Q 1681 3103 1420 2742 
Q 1159 2381 1159 1747 
Q 1159 1113 1420 752 
Q 1681 391 2138 391 
Q 2594 391 2855 752 
Q 3116 1113 3116 1747 
z
M 1159 2969 
Q 1341 3281 1617 3432 
Q 1894 3584 2278 3584 
Q 2916 3584 3314 3078 
Q 3713 2572 3713 1747 
Q 3713 922 3314 415 
Q 2916 -91 2278 -91 
Q 1894 -91 1617 61 
Q 1341 213 1159 525 
L 1159 0 
L 581 0 
L 581 4863 
L 1159 4863 
L 1159 2969 
z
" transform="scale(0.015625)"/>
      <path id="DejaVuSans-69" d="M 603 3500 
L 1178 3500 
L 1178 0 
L 603 0 
L 603 3500 
z
M 603 4863 
L 1178 4863 
L 1178 4134 
L 603 4134 
L 603 4863 
z
" transform="scale(0.015625)"/>
      <path id="DejaVuSans-63" d="M 3122 3366 
L 3122 2828 
Q 2878 2963 2633 3030 
Q 2388 3097 2138 3097 
Q 1578 3097 1268 2742 
Q 959 2388 959 1747 
Q 959 1106 1268 751 
Q 1578 397 2138 397 
Q 2388 397 2633 464 
Q 2878 531 3122 666 
L 3122 134 
Q 2881 22 2623 -34 
Q 2366 -91 2075 -91 
Q 1284 -91 818 406 
Q 353 903 353 1747 
Q 353 2603 823 3093 
Q 1294 3584 2113 3584 
Q 2378 3584 2631 3529 
Q 2884 3475 3122 3366 
z
" transform="scale(0.015625)"/>
     </defs>
     <use xlink:href="#DejaVuSans-49"/>
     <use xlink:href="#DejaVuSans-61" x="29.492188"/>
     <use xlink:href="#DejaVuSans-6d" x="90.771484"/>
     <use xlink:href="#DejaVuSans-62" x="188.183594"/>
     <use xlink:href="#DejaVuSans-69" x="251.660156"/>
     <use xlink:href="#DejaVuSans-63" x="279.443359"/>
    </g>
   </g>
   <g id="text_14">
    <!-- Parse -->
    <g transform="translate(361.832136 114.122875)scale(0.08 -0.08)">
     <defs>
      <path id="DejaVuSans-72" d="M 2631 2963 
Q 2534 3019 2420 3045 
Q 2306 3072 2169 3072 
Q 1681 3072 1420 2755 
Q 1159 2438 1159 1844 
L 1159 0 
L 581 0 
L 581 3500 
L 1159 3500 
L 1159 2956 
Q 1341 3275 1631 3429 
Q 1922 3584 2338 3584 
Q 2397 3584 2469 3576 
Q 2541 3569 2628 3553 
L 2631 2963 
z
" transform="scale(0.015625)"/>
      <path id="DejaVuSans-73" d="M 2834 3397 
L 2834 2853 
Q 2591 2978 2328 3040 
Q 2066 3103 1784 3103 
Q 1356 3103 1142 2972 
Q 928 2841 928 2578 
Q 928 2378 1081 2264 
Q 1234 2150 1697 2047 
L 1894 2003 
Q 2506 1872 2764 1633 
Q 3022 1394 3022 966 
Q 3022 478 2636 193 
Q 2250 -91 1575 -91 
Q 1294 -91 989 -36 
Q 684 19 347 128 
L 347 722 
Q 666 556 975 473 
Q 1284 391 1588 391 
Q 1994 391 2212 530 
Q 2431 669 2431 922 
Q 2431 1156 2273 1281 
Q 2116 1406 1581 1522 
L 1381 1569 
Q 847 1681 609 1914 
Q 372 2147 372 2553 
Q 372 3047 722 3315 
Q 1072 3584 1716 3584 
Q 2034 3584 2315 3537 
Q 2597 3491 2834 3397 
z
" transform="scale(0.015625)"/>
      <path id="DejaVuSans-65" d="M 3597 1894 
L 3597 1613 
L 953 1613 
Q 991 1019 1311 708 
Q 1631 397 2203 397 
Q 2534 397 2845 478 
Q 3156 559 3463 722 
L 3463 178 
Q 3153 47 2828 -22 
Q 2503 -91 2169 -91 
Q 1331 -91 842 396 
Q 353 884 353 1716 
Q 353 2575 817 3079 
Q 1281 3584 2069 3584 
Q 2775 3584 3186 3129 
Q 3597 2675 3597 1894 
z
M 3022 2063 
Q 3016 2534 2758 2815 
Q 2500 3097 2075 3097 
Q 1594 3097 1305 2825 
Q 1016 2553 972 2059 
L 3022 2063 
z
" transform="scale(0.015625)"/>
     </defs>
     <use xlink:href="#DejaVuSans-50"/>
     <use xlink:href="#DejaVuSans-61" x="55.802734"/>
     <use xlink:href="#DejaVuSans-72" x="117.082031"/>
     <use xlink:href="#DejaVuSans-73" x="158.195312"/>
     <use xlink:href="#DejaVuSans-65" x="210.294922"/>
    </g>
   </g>
   <g id="text_15">
    <!-- FootBin -->
    <g transform="translate(361.832136 63.207803)scale(0.08 -0.08)">
     <defs>
      <path id="DejaVuSans-46" d="M 628 4666 
L 3309 4666 
L 3309 4134 
L 1259 4134 
L 1259 2759 
L 3109 2759 
L 3109 2228 
L 1259 2228 
L 1259 0 
L 628 0 
L 628 4666 
z
" transform="scale(0.015625)"/>
      <path id="DejaVuSans-6f" d="M 1959 3097 
Q 1497 3097 1228 2736 
Q 959 2375 959 1747 
Q 959 1119 1226 758 
Q 1494 397 1959 397 
Q 2419 397 2687 759 
Q 2956 1122 2956 1747 
Q 2956 2369 2687 2733 
Q 2419 3097 1959 3097 
z
M 1959 3584 
Q 2709 3584 3137 3096 
Q 3566 2609 3566 1747 
Q 3566 888 3137 398 
Q 2709 -91 1959 -91 
Q 1206 -91 779 398 
Q 353 888 353 1747 
Q 353 2609 779 3096 
Q 1206 3584 1959 3584 
z
" transform="scale(0.015625)"/>
      <path id="DejaVuSans-74" d="M 1172 4494 
L 1172 3500 
L 2356 3500 
L 2356 3053 
L 1172 3053 
L 1172 1153 
Q 1172 725 1289 603 
Q 1406 481 1766 481 
L 2356 481 
L 2356 0 
L 1766 0 
Q 1100 0 847 248 
Q 594 497 594 1153 
L 594 3053 
L 172 3053 
L 172 3500 
L 594 3500 
L 594 4494 
L 1172 4494 
z
" transform="scale(0.015625)"/>
      <path id="DejaVuSans-42" d="M 1259 2228 
L 1259 519 
L 2272 519 
Q 2781 519 3026 730 
Q 3272 941 3272 1375 
Q 3272 1813 3026 2020 
Q 2781 2228 2272 2228 
L 1259 2228 
z
M 1259 4147 
L 1259 2741 
L 2194 2741 
Q 2656 2741 2882 2914 
Q 3109 3088 3109 3444 
Q 3109 3797 2882 3972 
Q 2656 4147 2194 4147 
L 1259 4147 
z
M 628 4666 
L 2241 4666 
Q 2963 4666 3353 4366 
Q 3744 4066 3744 3513 
Q 3744 3084 3544 2831 
Q 3344 2578 2956 2516 
Q 3422 2416 3680 2098 
Q 3938 1781 3938 1306 
Q 3938 681 3513 340 
Q 3088 0 2303 0 
L 628 0 
L 628 4666 
z
" transform="scale(0.015625)"/>
      <path id="DejaVuSans-6e" d="M 3513 2113 
L 3513 0 
L 2938 0 
L 2938 2094 
Q 2938 2591 2744 2837 
Q 2550 3084 2163 3084 
Q 1697 3084 1428 2787 
Q 1159 2491 1159 1978 
L 1159 0 
L 581 0 
L 581 3500 
L 1159 3500 
L 1159 2956 
Q 1366 3272 1645 3428 
Q 1925 3584 2291 3584 
Q 2894 3584 3203 3211 
Q 3513 2838 3513 2113 
z
" transform="scale(0.015625)"/>
     </defs>
     <use xlink:href="#DejaVuSans-46"/>
     <use xlink:href="#DejaVuSans-6f" x="53.894531"/>
     <use xlink:href="#DejaVuSans-6f" x="115.076172"/>
     <use xlink:href="#DejaVuSans-74" x="176.257812"/>
     <use xlink:href="#DejaVuSans-42" x="215.466797"/>
     <use xlink:href="#DejaVuSans-69" x="284.070312"/>
     <use xlink:href="#DejaVuSans-6e" x="311.853516"/>
    </g>
   </g>
   <g id="text_16">
    <!-- WFL -->
    <g transform="translate(361.832136 49.612833)scale(0.08 -0.08)">
     <defs>
      <path id="DejaVuSans-4c" d="M 628 4666 
L 1259 4666 
L 1259 531 
L 3531 531 
L 3531 0 
L 628 0 
L 628 4666 
z
" transform="scale(0.015625)"/>
     </defs>
     <use xlink:href="#DejaVuSans-57"/>
     <use xlink:href="#DejaVuSans-46" x="98.876953"/>
     <use xlink:href="#DejaVuSans-4c" x="156.396484"/>
    </g>
   </g>
   <g id="text_17">
    <!-- WFR -->
    <g transform="translate(361.832136 49.113665)scale(0.08 -0.08)">
     <defs>
      <path id="DejaVuSans-52" d="M 2841 2188 
Q 3044 2119 3236 1894 
Q 3428 1669 3622 1275 
L 4263 0 
L 3584 0 
L 2988 1197 
Q 2756 1666 2539 1819 
Q 2322 1972 1947 1972 
L 1259 1972 
L 1259 0 
L 628 0 
L 628 4666 
L 2053 4666 
Q 2853 4666 3247 4331 
Q 3641 3997 3641 3322 
Q 3641 2881 3436 2590 
Q 3231 2300 2841 2188 
z
M 1259 4147 
L 1259 2491 
L 2053 2491 
Q 2509 2491 2742 2702 
Q 2975 2913 2975 3322 
Q 2975 3731 2742 3939 
Q 2509 4147 2053 4147 
L 1259 4147 
z
" transform="scale(0.015625)"/>
     </defs>
     <use xlink:href="#DejaVuSans-57"/>
     <use xlink:href="#DejaVuSans-46" x="98.876953"/>
     <use xlink:href="#DejaVuSans-52" x="156.396484"/>
    </g>
   </g>
   <g id="text_18">
    <!-- Main-L -->
    <g transform="translate(361.832136 46.970182)scale(0.08 -0.08)">
     <defs>
      <path id="DejaVuSans-4d" d="M 628 4666 
L 1569 4666 
L 2759 1491 
L 3956 4666 
L 4897 4666 
L 4897 0 
L 4281 0 
L 4281 4097 
L 3078 897 
L 2444 897 
L 1241 4097 
L 1241 0 
L 628 0 
L 628 4666 
z
" transform="scale(0.015625)"/>
      <path id="DejaVuSans-2d" d="M 313 2009 
L 1997 2009 
L 1997 1497 
L 313 1497 
L 313 2009 
z
" transform="scale(0.015625)"/>
     </defs>
     <use xlink:href="#DejaVuSans-4d"/>
     <use xlink:href="#DejaVuSans-61" x="86.279297"/>
     <use xlink:href="#DejaVuSans-69" x="147.558594"/>
     <use xlink:href="#DejaVuSans-6e" x="175.341797"/>
     <use xlink:href="#DejaVuSans-2d" x="238.720703"/>
     <use xlink:href="#DejaVuSans-4c" x="274.804688"/>
    </g>
   </g>
   <g id="text_19">
    <!-- Main-R -->
    <g transform="translate(361.832136 112.742824)scale(0.08 -0.08)">
     <use xlink:href="#DejaVuSans-4d"/>
     <use xlink:href="#DejaVuSans-61" x="86.279297"/>
     <use xlink:href="#DejaVuSans-69" x="147.558594"/>
     <use xlink:href="#DejaVuSans-6e" x="175.341797"/>
     <use xlink:href="#DejaVuSans-2d" x="238.720703"/>
     <use xlink:href="#DejaVuSans-52" x="274.804688"/>
    </g>
   </g>
   <g id="text_20">
    <!-- AFL -->
    <g transform="translate(361.832136 100.410454)scale(0.08 -0.08)">
     <defs>
      <path id="DejaVuSans-41" d="M 2188 4044 
L 1331 1722 
L 3047 1722 
L 2188 4044 
z
M 1831 4666 
L 2547 4666 
L 4325 0 
L 3669 0 
L 3244 1197 
L 1141 1197 
L 716 0 
L 50 0 
L 1831 4666 
z
" transform="scale(0.015625)"/>
     </defs>
     <use xlink:href="#DejaVuSans-41"/>
     <use xlink:href="#DejaVuSans-46" x="68.408203"/>
     <use xlink:href="#DejaVuSans-4c" x="125.927734"/>
    </g>
   </g>
   <g id="text_21">
    <!-- AFR -->
    <g transform="translate(361.832136 156.933818)scale(0.08 -0.08)">
     <use xlink:href="#DejaVuSans-41"/>
     <use xlink:href="#DejaVuSans-46" x="68.408203"/>
     <use xlink:href="#DejaVuSans-52" x="125.927734"/>
    </g>
   </g>
   <g id="text_22">
    <!-- Nonfinal -->
    <g transform="translate(361.832136 81.794447)scale(0.08 -0.08)">
     <defs>
      <path id="DejaVuSans-4e" d="M 628 4666 
L 1478 4666 
L 3547 763 
L 3547 4666 
L 4159 4666 
L 4159 0 
L 3309 0 
L 1241 3903 
L 1241 0 
L 628 0 
L 628 4666 
z
" transform="scale(0.015625)"/>
      <path id="DejaVuSans-66" d="M 2375 4863 
L 2375 4384 
L 1825 4384 
Q 1516 4384 1395 4259 
Q 1275 4134 1275 3809 
L 1275 3500 
L 2222 3500 
L 2222 3053 
L 1275 3053 
L 1275 0 
L 697 0 
L 697 3053 
L 147 3053 
L 147 3500 
L 697 3500 
L 697 3744 
Q 697 4328 969 4595 
Q 1241 4863 1831 4863 
L 2375 4863 
z
" transform="scale(0.015625)"/>
      <path id="DejaVuSans-6c" d="M 603 4863 
L 1178 4863 
L 1178 0 
L 603 0 
L 603 4863 
z
" transform="scale(0.015625)"/>
     </defs>
     <use xlink:href="#DejaVuSans-4e"/>
     <use xlink:href="#DejaVuSans-6f" x="74.804688"/>
     <use xlink:href="#DejaVuSans-6e" x="135.986328"/>
     <use xlink:href="#DejaVuSans-66" x="199.365234"/>
     <use xlink:href="#DejaVuSans-69" x="234.570312"/>
     <use xlink:href="#DejaVuSans-6e" x="262.353516"/>
     <use xlink:href="#DejaVuSans-61" x="325.732422"/>
     <use xlink:href="#DejaVuSans-6c" x="387.011719"/>
    </g>
   </g>
   <g id="text_23">
    <!-- Trochaic -->
    <g transform="translate(361.832136 48.085968)scale(0.08 -0.08)">
     <defs>
      <path id="DejaVuSans-54" d="M -19 4666 
L 3928 4666 
L 3928 4134 
L 2272 4134 
L 2272 0 
L 1638 0 
L 1638 4134 
L -19 4134 
L -19 4666 
z
" transform="scale(0.015625)"/>
      <path id="DejaVuSans-68" d="M 3513 2113 
L 3513 0 
L 2938 0 
L 2938 2094 
Q 2938 2591 2744 2837 
Q 2550 3084 2163 3084 
Q 1697 3084 1428 2787 
Q 1159 2491 1159 1978 
L 1159 0 
L 581 0 
L 581 4863 
L 1159 4863 
L 1159 2956 
Q 1366 3272 1645 3428 
Q 1925 3584 2291 3584 
Q 2894 3584 3203 3211 
Q 3513 2838 3513 2113 
z
" transform="scale(0.015625)"/>
     </defs>
     <use xlink:href="#DejaVuSans-54"/>
     <use xlink:href="#DejaVuSans-72" x="46.333984"/>
     <use xlink:href="#DejaVuSans-6f" x="85.197266"/>
     <use xlink:href="#DejaVuSans-63" x="146.378906"/>
     <use xlink:href="#DejaVuSans-68" x="201.359375"/>
     <use xlink:href="#DejaVuSans-61" x="264.738281"/>
     <use xlink:href="#DejaVuSans-69" x="326.017578"/>
     <use xlink:href="#DejaVuSans-63" x="353.800781"/>
    </g>
   </g>
  </g>
  <g id="axes_2">
   <g id="patch_7">
    <path d="M 57.6 307.584 
L 414.72 307.584 
L 414.72 186.624 
L 57.6 186.624 
z
" style="fill: #ffffff"/>
   </g>
   <g id="matplotlib.axis_3">
    <g id="xtick_8">
     <g id="line2d_24">
      <g>
       <use xlink:href="#m35da66a091" x="72.008825" y="307.584" style="stroke: #000000; stroke-width: 0.8"/>
      </g>
     </g>
     <g id="text_24">
      <!-- 0 -->
      <g transform="translate(68.827575 322.182437)scale(0.1 -0.1)">
       <use xlink:href="#DejaVuSans-30"/>
      </g>
     </g>
    </g>
    <g id="xtick_9">
     <g id="line2d_25">
      <g>
       <use xlink:href="#m35da66a091" x="117.606374" y="307.584" style="stroke: #000000; stroke-width: 0.8"/>
      </g>
     </g>
     <g id="text_25">
      <!-- 25 -->
      <g transform="translate(111.243874 322.182437)scale(0.1 -0.1)">
       <use xlink:href="#DejaVuSans-32"/>
       <use xlink:href="#DejaVuSans-35" x="63.623047"/>
      </g>
     </g>
    </g>
    <g id="xtick_10">
     <g id="line2d_26">
      <g>
       <use xlink:href="#m35da66a091" x="163.203922" y="307.584" style="stroke: #000000; stroke-width: 0.8"/>
      </g>
     </g>
     <g id="text_26">
      <!-- 50 -->
      <g transform="translate(156.841422 322.182437)scale(0.1 -0.1)">
       <use xlink:href="#DejaVuSans-35"/>
       <use xlink:href="#DejaVuSans-30" x="63.623047"/>
      </g>
     </g>
    </g>
    <g id="xtick_11">
     <g id="line2d_27">
      <g>
       <use xlink:href="#m35da66a091" x="208.801471" y="307.584" style="stroke: #000000; stroke-width: 0.8"/>
      </g>
     </g>
     <g id="text_27">
      <!-- 75 -->
      <g transform="translate(202.438971 322.182437)scale(0.1 -0.1)">
       <defs>
        <path id="DejaVuSans-37" d="M 525 4666 
L 3525 4666 
L 3525 4397 
L 1831 0 
L 1172 0 
L 2766 4134 
L 525 4134 
L 525 4666 
z
" transform="scale(0.015625)"/>
       </defs>
       <use xlink:href="#DejaVuSans-37"/>
       <use xlink:href="#DejaVuSans-35" x="63.623047"/>
      </g>
     </g>
    </g>
    <g id="xtick_12">
     <g id="line2d_28">
      <g>
       <use xlink:href="#m35da66a091" x="254.399019" y="307.584" style="stroke: #000000; stroke-width: 0.8"/>
      </g>
     </g>
     <g id="text_28">
      <!-- 100 -->
      <g transform="translate(244.855269 322.182437)scale(0.1 -0.1)">
       <use xlink:href="#DejaVuSans-31"/>
       <use xlink:href="#DejaVuSans-30" x="63.623047"/>
       <use xlink:href="#DejaVuSans-30" x="127.246094"/>
      </g>
     </g>
    </g>
    <g id="xtick_13">
     <g id="line2d_29">
      <g>
       <use xlink:href="#m35da66a091" x="299.996568" y="307.584" style="stroke: #000000; stroke-width: 0.8"/>
      </g>
     </g>
     <g id="text_29">
      <!-- 125 -->
      <g transform="translate(290.452818 322.182437)scale(0.1 -0.1)">
       <use xlink:href="#DejaVuSans-31"/>
       <use xlink:href="#DejaVuSans-32" x="63.623047"/>
       <use xlink:href="#DejaVuSans-35" x="127.246094"/>
      </g>
     </g>
    </g>
    <g id="xtick_14">
     <g id="line2d_30">
      <g>
       <use xlink:href="#m35da66a091" x="345.594116" y="307.584" style="stroke: #000000; stroke-width: 0.8"/>
      </g>
     </g>
     <g id="text_30">
      <!-- 150 -->
      <g transform="translate(336.050366 322.182437)scale(0.1 -0.1)">
       <use xlink:href="#DejaVuSans-31"/>
       <use xlink:href="#DejaVuSans-35" x="63.623047"/>
       <use xlink:href="#DejaVuSans-30" x="127.246094"/>
      </g>
     </g>
    </g>
    <g id="xtick_15">
     <g id="line2d_31">
      <g>
       <use xlink:href="#m35da66a091" x="391.191665" y="307.584" style="stroke: #000000; stroke-width: 0.8"/>
      </g>
     </g>
     <g id="text_31">
      <!-- 175 -->
      <g transform="translate(381.647915 322.182437)scale(0.1 -0.1)">
       <use xlink:href="#DejaVuSans-31"/>
       <use xlink:href="#DejaVuSans-37" x="63.623047"/>
       <use xlink:href="#DejaVuSans-35" x="127.246094"/>
      </g>
     </g>
    </g>
   </g>
   <g id="matplotlib.axis_4">
    <g id="ytick_5">
     <g id="line2d_32">
      <g>
       <use xlink:href="#mb8357ee848" x="57.6" y="302.109677" style="stroke: #000000; stroke-width: 0.8"/>
      </g>
     </g>
     <g id="text_32">
      <!-- 0 -->
      <g transform="translate(44.2375 305.908895)scale(0.1 -0.1)">
       <use xlink:href="#DejaVuSans-30"/>
      </g>
     </g>
    </g>
    <g id="ytick_6">
     <g id="line2d_33">
      <g>
       <use xlink:href="#mb8357ee848" x="57.6" y="278.251218" style="stroke: #000000; stroke-width: 0.8"/>
      </g>
     </g>
     <g id="text_33">
      <!-- 1000 -->
      <g transform="translate(25.15 282.050437)scale(0.1 -0.1)">
       <use xlink:href="#DejaVuSans-31"/>
       <use xlink:href="#DejaVuSans-30" x="63.623047"/>
       <use xlink:href="#DejaVuSans-30" x="127.246094"/>
       <use xlink:href="#DejaVuSans-30" x="190.869141"/>
      </g>
     </g>
    </g>
    <g id="ytick_7">
     <g id="line2d_34">
      <g>
       <use xlink:href="#mb8357ee848" x="57.6" y="254.392759" style="stroke: #000000; stroke-width: 0.8"/>
      </g>
     </g>
     <g id="text_34">
      <!-- 2000 -->
      <g transform="translate(25.15 258.191978)scale(0.1 -0.1)">
       <use xlink:href="#DejaVuSans-32"/>
       <use xlink:href="#DejaVuSans-30" x="63.623047"/>
       <use xlink:href="#DejaVuSans-30" x="127.246094"/>
       <use xlink:href="#DejaVuSans-30" x="190.869141"/>
      </g>
     </g>
    </g>
    <g id="ytick_8">
     <g id="line2d_35">
      <g>
       <use xlink:href="#mb8357ee848" x="57.6" y="230.5343" style="stroke: #000000; stroke-width: 0.8"/>
      </g>
     </g>
     <g id="text_35">
      <!-- 3000 -->
      <g transform="translate(25.15 234.333519)scale(0.1 -0.1)">
       <use xlink:href="#DejaVuSans-33"/>
       <use xlink:href="#DejaVuSans-30" x="63.623047"/>
       <use xlink:href="#DejaVuSans-30" x="127.246094"/>
       <use xlink:href="#DejaVuSans-30" x="190.869141"/>
      </g>
     </g>
    </g>
    <g id="ytick_9">
     <g id="line2d_36">
      <g>
       <use xlink:href="#mb8357ee848" x="57.6" y="206.675842" style="stroke: #000000; stroke-width: 0.8"/>
      </g>
     </g>
     <g id="text_36">
      <!-- 4000 -->
      <g transform="translate(25.15 210.47506)scale(0.1 -0.1)">
       <use xlink:href="#DejaVuSans-34"/>
       <use xlink:href="#DejaVuSans-30" x="63.623047"/>
       <use xlink:href="#DejaVuSans-30" x="127.246094"/>
       <use xlink:href="#DejaVuSans-30" x="190.869141"/>
      </g>
     </g>
    </g>
   </g>
   <g id="line2d_37">
    <path d="M 73.832727 302.06196 
L 150.436609 302.038101 
L 152.260511 301.871092 
L 154.084413 302.06196 
L 157.732217 302.014243 
L 161.38002 302.085818 
L 163.203922 301.942667 
L 165.027824 302.06196 
L 172.323432 302.06196 
L 175.971236 302.06196 
L 177.795138 301.799517 
L 179.61904 301.942667 
L 181.442942 301.680224 
L 183.266844 302.085818 
L 185.090746 301.942667 
L 188.73855 302.06196 
L 190.562451 301.918809 
L 192.386353 301.942667 
L 194.210255 301.44164 
L 196.034157 302.085818 
L 197.858059 301.393923 
L 201.505863 302.06196 
L 203.329765 301.990384 
L 206.977569 301.179197 
L 208.801471 301.990384 
L 210.625373 301.656366 
L 212.449275 301.775658 
L 214.273177 301.608649 
L 216.097079 300.940612 
L 217.920981 302.085818 
L 219.744883 301.775658 
L 221.568784 301.704083 
L 223.392686 301.083763 
L 225.216588 302.06196 
L 227.04049 301.608649 
L 228.864392 301.680224 
L 230.688294 301.346206 
L 232.512196 301.656366 
L 234.336098 301.44164 
L 236.16 300.988329 
L 237.983902 301.250772 
L 239.807804 301.942667 
L 243.455608 301.894951 
L 245.27951 301.059904 
L 247.103412 301.656366 
L 248.927314 301.727941 
L 250.751216 301.608649 
L 252.575117 300.439585 
L 254.399019 299.843123 
L 256.222921 301.417781 
L 258.046823 300.725886 
L 259.870725 301.608649 
L 261.694627 301.346206 
L 263.518529 301.417781 
L 267.166333 300.248717 
L 268.990235 301.584791 
L 270.814137 300.535018 
L 272.638039 301.560932 
L 274.461941 295.71561 
L 276.285843 301.226914 
L 278.109745 300.320292 
L 279.933647 301.918809 
L 281.757549 296.407505 
L 283.58145 300.272575 
L 285.405352 301.083763 
L 287.229254 300.606594 
L 289.053156 300.296434 
L 290.877058 301.871092 
L 292.70096 298.220748 
L 294.524862 301.250772 
L 296.348764 301.155338 
L 298.172666 301.990384 
L 299.996568 300.487301 
L 301.82047 297.314126 
L 303.644372 301.560932 
L 305.468274 301.584791 
L 307.292176 299.747689 
L 309.116078 299.986274 
L 310.93998 291.254078 
L 312.763882 298.125314 
L 314.587783 301.7518 
L 316.411685 298.530908 
L 318.235587 296.622231 
L 320.059489 299.008077 
L 321.883391 298.554766 
L 323.707293 296.526797 
L 325.531195 292.733302 
L 327.355097 301.727941 
L 329.178999 271.475416 
L 331.002901 298.411616 
L 332.826803 285.575765 
L 334.650705 294.880564 
L 336.474607 267.53877 
L 338.298509 261.932032 
L 340.122411 291.922115 
L 341.946313 286.911838 
L 343.770215 295.047573 
L 345.594116 298.96036 
L 347.418018 265.725527 
L 349.24192 300.845178 
L 351.065822 284.048823 
L 352.889724 294.856705 
L 354.713626 288.247912 
L 356.537528 300.487301 
L 358.36143 296.574514 
L 360.185332 268.206807 
L 362.009234 292.136841 
L 363.833136 250.885566 
L 365.657038 297.600428 
L 367.48094 298.34004 
L 369.304842 283.834097 
L 371.128744 291.087069 
L 372.952646 301.918809 
L 374.776547 299.461388 
L 376.600449 296.622231 
L 378.424351 236.045604 
L 380.248253 263.387398 
L 382.072155 295.811044 
L 383.896057 267.133176 
L 385.719959 253.104402 
L 387.543861 204.647873 
L 391.191665 270.234776 
L 393.015567 280.398479 
L 394.839469 242.129511 
L 396.663371 192.122182 
L 398.487273 281.352818 
L 398.487273 281.352818 
" clip-path="url(#p312b729473)" style="fill: none; stroke: #1f77b4; stroke-width: 1.5; stroke-linecap: square"/>
   </g>
   <g id="patch_8">
    <path d="M 57.6 307.584 
L 57.6 186.624 
" style="fill: none; stroke: #000000; stroke-width: 0.8; stroke-linejoin: miter; stroke-linecap: square"/>
   </g>
   <g id="patch_9">
    <path d="M 414.72 307.584 
L 414.72 186.624 
" style="fill: none; stroke: #000000; stroke-width: 0.8; stroke-linejoin: miter; stroke-linecap: square"/>
   </g>
   <g id="patch_10">
    <path d="M 57.6 307.584 
L 414.72 307.584 
" style="fill: none; stroke: #000000; stroke-width: 0.8; stroke-linejoin: miter; stroke-linecap: square"/>
   </g>
   <g id="patch_11">
    <path d="M 57.6 186.624 
L 414.72 186.624 
" style="fill: none; stroke: #000000; stroke-width: 0.8; stroke-linejoin: miter; stroke-linecap: square"/>
   </g>
  </g>
 </g>
 <defs>
  <clipPath id="pcf9792100a">
   <rect x="57.6" y="41.472" width="357.12" height="120.96"/>
  </clipPath>
  <clipPath id="p312b729473">
   <rect x="57.6" y="186.624" width="357.12" height="120.96"/>
  </clipPath>
 </defs>
</svg>
