<?xml version="1.0" encoding="utf-8" standalone="no"?>
<!DOCTYPE svg PUBLIC "-//W3C//DTD SVG 1.1//EN"
  "http://www.w3.org/Graphics/SVG/1.1/DTD/svg11.dtd">
<svg xmlns:xlink="http://www.w3.org/1999/xlink" width="460.8pt" height="345.6pt" viewBox="0 0 460.8 345.6" xmlns="http://www.w3.org/2000/svg" version="1.1">
 <metadata>
  <rdf:RDF xmlns:dc="http://purl.org/dc/elements/1.1/" xmlns:cc="http://creativecommons.org/ns#" xmlns:rdf="http://www.w3.org/1999/02/22-rdf-syntax-ns#">
   <cc:Work>
    <dc:type rdf:resource="http://purl.org/dc/dcmitype/StillImage"/>
    <dc:date>2022-05-14T01:59:58.051547</dc:date>
    <dc:format>image/svg+xml</dc:format>
    <dc:creator>
     <cc:Agent>
      <dc:title>Matplotlib v3.5.1, https://matplotlib.org/</dc:title>
     </cc:Agent>
    </dc:creator>
   </cc:Work>
  </rdf:RDF>
 </metadata>
 <defs>
  <style type="text/css">*{stroke-linejoin: round; stroke-linecap: butt}</style>
 </defs>
 <g id="figure_1">
  <g id="patch_1">
   <path d="M 0 345.6 
L 460.8 345.6 
L 460.8 0 
L 0 0 
z
" style="fill: #ffffff"/>
  </g>
  <g id="axes_1">
   <g id="patch_2">
    <path d="M 57.6 162.432 
L 414.72 162.432 
L 414.72 41.472 
L 57.6 41.472 
z
" style="fill: #ffffff"/>
   </g>
   <g id="matplotlib.axis_1">
    <g id="xtick_1">
     <g id="line2d_1">
      <defs>
       <path id="m475cd714ee" d="M 0 0 
L 0 3.5 
" style="stroke: #000000; stroke-width: 0.8"/>
      </defs>
      <g>
       <use xlink:href="#m475cd714ee" x="73.827491" y="162.432" style="stroke: #000000; stroke-width: 0.8"/>
      </g>
     </g>
     <g id="text_1">
      <!-- 0 -->
      <g transform="translate(70.646241 177.030437)scale(0.1 -0.1)">
       <defs>
        <path id="DejaVuSans-30" d="M 2034 4250 
Q 1547 4250 1301 3770 
Q 1056 3291 1056 2328 
Q 1056 1369 1301 889 
Q 1547 409 2034 409 
Q 2525 409 2770 889 
Q 3016 1369 3016 2328 
Q 3016 3291 2770 3770 
Q 2525 4250 2034 4250 
z
M 2034 4750 
Q 2819 4750 3233 4129 
Q 3647 3509 3647 2328 
Q 3647 1150 3233 529 
Q 2819 -91 2034 -91 
Q 1250 -91 836 529 
Q 422 1150 422 2328 
Q 422 3509 836 4129 
Q 1250 4750 2034 4750 
z
" transform="scale(0.015625)"/>
       </defs>
       <use xlink:href="#DejaVuSans-30"/>
      </g>
     </g>
    </g>
    <g id="xtick_2">
     <g id="line2d_2">
      <g>
       <use xlink:href="#m475cd714ee" x="126.191972" y="162.432" style="stroke: #000000; stroke-width: 0.8"/>
      </g>
     </g>
     <g id="text_2">
      <!-- 10000 -->
      <g transform="translate(110.285722 177.030437)scale(0.1 -0.1)">
       <defs>
        <path id="DejaVuSans-31" d="M 794 531 
L 1825 531 
L 1825 4091 
L 703 3866 
L 703 4441 
L 1819 4666 
L 2450 4666 
L 2450 531 
L 3481 531 
L 3481 0 
L 794 0 
L 794 531 
z
" transform="scale(0.015625)"/>
       </defs>
       <use xlink:href="#DejaVuSans-31"/>
       <use xlink:href="#DejaVuSans-30" x="63.623047"/>
       <use xlink:href="#DejaVuSans-30" x="127.246094"/>
       <use xlink:href="#DejaVuSans-30" x="190.869141"/>
       <use xlink:href="#DejaVuSans-30" x="254.492188"/>
      </g>
     </g>
    </g>
    <g id="xtick_3">
     <g id="line2d_3">
      <g>
       <use xlink:href="#m475cd714ee" x="178.556453" y="162.432" style="stroke: #000000; stroke-width: 0.8"/>
      </g>
     </g>
     <g id="text_3">
      <!-- 20000 -->
      <g transform="translate(162.650203 177.030437)scale(0.1 -0.1)">
       <defs>
        <path id="DejaVuSans-32" d="M 1228 531 
L 3431 531 
L 3431 0 
L 469 0 
L 469 531 
Q 828 903 1448 1529 
Q 2069 2156 2228 2338 
Q 2531 2678 2651 2914 
Q 2772 3150 2772 3378 
Q 2772 3750 2511 3984 
Q 2250 4219 1831 4219 
Q 1534 4219 1204 4116 
Q 875 4013 500 3803 
L 500 4441 
Q 881 4594 1212 4672 
Q 1544 4750 1819 4750 
Q 2544 4750 2975 4387 
Q 3406 4025 3406 3419 
Q 3406 3131 3298 2873 
Q 3191 2616 2906 2266 
Q 2828 2175 2409 1742 
Q 1991 1309 1228 531 
z
" transform="scale(0.015625)"/>
       </defs>
       <use xlink:href="#DejaVuSans-32"/>
       <use xlink:href="#DejaVuSans-30" x="63.623047"/>
       <use xlink:href="#DejaVuSans-30" x="127.246094"/>
       <use xlink:href="#DejaVuSans-30" x="190.869141"/>
       <use xlink:href="#DejaVuSans-30" x="254.492188"/>
      </g>
     </g>
    </g>
    <g id="xtick_4">
     <g id="line2d_4">
      <g>
       <use xlink:href="#m475cd714ee" x="230.920934" y="162.432" style="stroke: #000000; stroke-width: 0.8"/>
      </g>
     </g>
     <g id="text_4">
      <!-- 30000 -->
      <g transform="translate(215.014684 177.030437)scale(0.1 -0.1)">
       <defs>
        <path id="DejaVuSans-33" d="M 2597 2516 
Q 3050 2419 3304 2112 
Q 3559 1806 3559 1356 
Q 3559 666 3084 287 
Q 2609 -91 1734 -91 
Q 1441 -91 1130 -33 
Q 819 25 488 141 
L 488 750 
Q 750 597 1062 519 
Q 1375 441 1716 441 
Q 2309 441 2620 675 
Q 2931 909 2931 1356 
Q 2931 1769 2642 2001 
Q 2353 2234 1838 2234 
L 1294 2234 
L 1294 2753 
L 1863 2753 
Q 2328 2753 2575 2939 
Q 2822 3125 2822 3475 
Q 2822 3834 2567 4026 
Q 2313 4219 1838 4219 
Q 1578 4219 1281 4162 
Q 984 4106 628 3988 
L 628 4550 
Q 988 4650 1302 4700 
Q 1616 4750 1894 4750 
Q 2613 4750 3031 4423 
Q 3450 4097 3450 3541 
Q 3450 3153 3228 2886 
Q 3006 2619 2597 2516 
z
" transform="scale(0.015625)"/>
       </defs>
       <use xlink:href="#DejaVuSans-33"/>
       <use xlink:href="#DejaVuSans-30" x="63.623047"/>
       <use xlink:href="#DejaVuSans-30" x="127.246094"/>
       <use xlink:href="#DejaVuSans-30" x="190.869141"/>
       <use xlink:href="#DejaVuSans-30" x="254.492188"/>
      </g>
     </g>
    </g>
    <g id="xtick_5">
     <g id="line2d_5">
      <g>
       <use xlink:href="#m475cd714ee" x="283.285415" y="162.432" style="stroke: #000000; stroke-width: 0.8"/>
      </g>
     </g>
     <g id="text_5">
      <!-- 40000 -->
      <g transform="translate(267.379165 177.030437)scale(0.1 -0.1)">
       <defs>
        <path id="DejaVuSans-34" d="M 2419 4116 
L 825 1625 
L 2419 1625 
L 2419 4116 
z
M 2253 4666 
L 3047 4666 
L 3047 1625 
L 3713 1625 
L 3713 1100 
L 3047 1100 
L 3047 0 
L 2419 0 
L 2419 1100 
L 313 1100 
L 313 1709 
L 2253 4666 
z
" transform="scale(0.015625)"/>
       </defs>
       <use xlink:href="#DejaVuSans-34"/>
       <use xlink:href="#DejaVuSans-30" x="63.623047"/>
       <use xlink:href="#DejaVuSans-30" x="127.246094"/>
       <use xlink:href="#DejaVuSans-30" x="190.869141"/>
       <use xlink:href="#DejaVuSans-30" x="254.492188"/>
      </g>
     </g>
    </g>
    <g id="xtick_6">
     <g id="line2d_6">
      <g>
       <use xlink:href="#m475cd714ee" x="335.649896" y="162.432" style="stroke: #000000; stroke-width: 0.8"/>
      </g>
     </g>
     <g id="text_6">
      <!-- 50000 -->
      <g transform="translate(319.743646 177.030437)scale(0.1 -0.1)">
       <defs>
        <path id="DejaVuSans-35" d="M 691 4666 
L 3169 4666 
L 3169 4134 
L 1269 4134 
L 1269 2991 
Q 1406 3038 1543 3061 
Q 1681 3084 1819 3084 
Q 2600 3084 3056 2656 
Q 3513 2228 3513 1497 
Q 3513 744 3044 326 
Q 2575 -91 1722 -91 
Q 1428 -91 1123 -41 
Q 819 9 494 109 
L 494 744 
Q 775 591 1075 516 
Q 1375 441 1709 441 
Q 2250 441 2565 725 
Q 2881 1009 2881 1497 
Q 2881 1984 2565 2268 
Q 2250 2553 1709 2553 
Q 1456 2553 1204 2497 
Q 953 2441 691 2322 
L 691 4666 
z
" transform="scale(0.015625)"/>
       </defs>
       <use xlink:href="#DejaVuSans-35"/>
       <use xlink:href="#DejaVuSans-30" x="63.623047"/>
       <use xlink:href="#DejaVuSans-30" x="127.246094"/>
       <use xlink:href="#DejaVuSans-30" x="190.869141"/>
       <use xlink:href="#DejaVuSans-30" x="254.492188"/>
      </g>
     </g>
    </g>
    <g id="xtick_7">
     <g id="line2d_7">
      <g>
       <use xlink:href="#m475cd714ee" x="388.014377" y="162.432" style="stroke: #000000; stroke-width: 0.8"/>
      </g>
     </g>
     <g id="text_7">
      <!-- 60000 -->
      <g transform="translate(372.108127 177.030437)scale(0.1 -0.1)">
       <defs>
        <path id="DejaVuSans-36" d="M 2113 2584 
Q 1688 2584 1439 2293 
Q 1191 2003 1191 1497 
Q 1191 994 1439 701 
Q 1688 409 2113 409 
Q 2538 409 2786 701 
Q 3034 994 3034 1497 
Q 3034 2003 2786 2293 
Q 2538 2584 2113 2584 
z
M 3366 4563 
L 3366 3988 
Q 3128 4100 2886 4159 
Q 2644 4219 2406 4219 
Q 1781 4219 1451 3797 
Q 1122 3375 1075 2522 
Q 1259 2794 1537 2939 
Q 1816 3084 2150 3084 
Q 2853 3084 3261 2657 
Q 3669 2231 3669 1497 
Q 3669 778 3244 343 
Q 2819 -91 2113 -91 
Q 1303 -91 875 529 
Q 447 1150 447 2328 
Q 447 3434 972 4092 
Q 1497 4750 2381 4750 
Q 2619 4750 2861 4703 
Q 3103 4656 3366 4563 
z
" transform="scale(0.015625)"/>
       </defs>
       <use xlink:href="#DejaVuSans-36"/>
       <use xlink:href="#DejaVuSans-30" x="63.623047"/>
       <use xlink:href="#DejaVuSans-30" x="127.246094"/>
       <use xlink:href="#DejaVuSans-30" x="190.869141"/>
       <use xlink:href="#DejaVuSans-30" x="254.492188"/>
      </g>
     </g>
    </g>
   </g>
   <g id="matplotlib.axis_2">
    <g id="ytick_1">
     <g id="line2d_8">
      <defs>
       <path id="m90c767eb2a" d="M 0 0 
L -3.5 0 
" style="stroke: #000000; stroke-width: 0.8"/>
      </defs>
      <g>
       <use xlink:href="#m90c767eb2a" x="57.6" y="160.657574" style="stroke: #000000; stroke-width: 0.8"/>
      </g>
     </g>
     <g id="text_8">
      <!-- 70 -->
      <g transform="translate(37.875 164.456793)scale(0.1 -0.1)">
       <defs>
        <path id="DejaVuSans-37" d="M 525 4666 
L 3525 4666 
L 3525 4397 
L 1831 0 
L 1172 0 
L 2766 4134 
L 525 4134 
L 525 4666 
z
" transform="scale(0.015625)"/>
       </defs>
       <use xlink:href="#DejaVuSans-37"/>
       <use xlink:href="#DejaVuSans-30" x="63.623047"/>
      </g>
     </g>
    </g>
    <g id="ytick_2">
     <g id="line2d_9">
      <g>
       <use xlink:href="#m90c767eb2a" x="57.6" y="126.805249" style="stroke: #000000; stroke-width: 0.8"/>
      </g>
     </g>
     <g id="text_9">
      <!-- 80 -->
      <g transform="translate(37.875 130.604468)scale(0.1 -0.1)">
       <defs>
        <path id="DejaVuSans-38" d="M 2034 2216 
Q 1584 2216 1326 1975 
Q 1069 1734 1069 1313 
Q 1069 891 1326 650 
Q 1584 409 2034 409 
Q 2484 409 2743 651 
Q 3003 894 3003 1313 
Q 3003 1734 2745 1975 
Q 2488 2216 2034 2216 
z
M 1403 2484 
Q 997 2584 770 2862 
Q 544 3141 544 3541 
Q 544 4100 942 4425 
Q 1341 4750 2034 4750 
Q 2731 4750 3128 4425 
Q 3525 4100 3525 3541 
Q 3525 3141 3298 2862 
Q 3072 2584 2669 2484 
Q 3125 2378 3379 2068 
Q 3634 1759 3634 1313 
Q 3634 634 3220 271 
Q 2806 -91 2034 -91 
Q 1263 -91 848 271 
Q 434 634 434 1313 
Q 434 1759 690 2068 
Q 947 2378 1403 2484 
z
M 1172 3481 
Q 1172 3119 1398 2916 
Q 1625 2713 2034 2713 
Q 2441 2713 2670 2916 
Q 2900 3119 2900 3481 
Q 2900 3844 2670 4047 
Q 2441 4250 2034 4250 
Q 1625 4250 1398 4047 
Q 1172 3844 1172 3481 
z
" transform="scale(0.015625)"/>
       </defs>
       <use xlink:href="#DejaVuSans-38"/>
       <use xlink:href="#DejaVuSans-30" x="63.623047"/>
      </g>
     </g>
    </g>
    <g id="ytick_3">
     <g id="line2d_10">
      <g>
       <use xlink:href="#m90c767eb2a" x="57.6" y="92.952924" style="stroke: #000000; stroke-width: 0.8"/>
      </g>
     </g>
     <g id="text_10">
      <!-- 90 -->
      <g transform="translate(37.875 96.752142)scale(0.1 -0.1)">
       <defs>
        <path id="DejaVuSans-39" d="M 703 97 
L 703 672 
Q 941 559 1184 500 
Q 1428 441 1663 441 
Q 2288 441 2617 861 
Q 2947 1281 2994 2138 
Q 2813 1869 2534 1725 
Q 2256 1581 1919 1581 
Q 1219 1581 811 2004 
Q 403 2428 403 3163 
Q 403 3881 828 4315 
Q 1253 4750 1959 4750 
Q 2769 4750 3195 4129 
Q 3622 3509 3622 2328 
Q 3622 1225 3098 567 
Q 2575 -91 1691 -91 
Q 1453 -91 1209 -44 
Q 966 3 703 97 
z
M 1959 2075 
Q 2384 2075 2632 2365 
Q 2881 2656 2881 3163 
Q 2881 3666 2632 3958 
Q 2384 4250 1959 4250 
Q 1534 4250 1286 3958 
Q 1038 3666 1038 3163 
Q 1038 2656 1286 2365 
Q 1534 2075 1959 2075 
z
" transform="scale(0.015625)"/>
       </defs>
       <use xlink:href="#DejaVuSans-39"/>
       <use xlink:href="#DejaVuSans-30" x="63.623047"/>
      </g>
     </g>
    </g>
    <g id="ytick_4">
     <g id="line2d_11">
      <g>
       <use xlink:href="#m90c767eb2a" x="57.6" y="59.100598" style="stroke: #000000; stroke-width: 0.8"/>
      </g>
     </g>
     <g id="text_11">
      <!-- 100 -->
      <g transform="translate(31.5125 62.899817)scale(0.1 -0.1)">
       <use xlink:href="#DejaVuSans-31"/>
       <use xlink:href="#DejaVuSans-30" x="63.623047"/>
       <use xlink:href="#DejaVuSans-30" x="127.246094"/>
      </g>
     </g>
    </g>
   </g>
   <g id="line2d_12">
    <path d="M 73.832727 58.25429 
L 73.837964 58.25429 
L 73.963638 55.715366 
L 73.984584 55.715366 
L 74.105023 52.894339 
L 74.199279 52.894339 
L 74.31448 50.91962 
L 74.612958 50.91962 
L 74.72816 49.791209 
L 95.469731 49.791209 
L 95.584933 48.662798 
L 183.326857 48.662798 
L 183.442059 46.970182 
L 398.487273 46.970182 
L 398.487273 46.970182 
" clip-path="url(#p13f3c704ae)" style="fill: none; stroke: #1f77b4; stroke-width: 1.5; stroke-linecap: square"/>
   </g>
   <g id="line2d_13">
    <path d="M 73.832727 58.25429 
L 73.874619 58.25429 
L 73.989821 68.409988 
L 73.995057 65.024755 
L 74.052658 65.024755 
L 74.178333 75.180453 
L 74.298771 68.409988 
L 74.319717 64.178447 
L 74.33019 70.948912 
L 74.393027 70.102604 
L 74.513466 76.873069 
L 74.592012 76.873069 
L 74.670559 73.487837 
L 74.701978 76.873069 
L 74.790997 76.873069 
L 74.906199 70.102604 
L 75.026637 79.411993 
L 75.063293 79.411993 
L 75.183731 86.182459 
L 75.236095 86.182459 
L 75.351297 82.797226 
L 75.539809 82.797226 
L 75.660248 89.567691 
L 75.675957 89.567691 
L 75.791159 86.182459 
L 75.806868 86.182459 
L 75.92207 89.567691 
L 76.231021 89.567691 
L 76.241493 92.952924 
L 76.340986 89.567691 
L 76.477134 89.567691 
L 76.592335 92.952924 
L 76.602808 92.952924 
L 76.712774 89.567691 
L 76.827976 92.952924 
L 76.958887 92.952924 
L 77.074089 89.567691 
L 77.173581 89.567691 
L 77.246891 92.952924 
L 77.283547 92.106615 
L 77.393512 92.106615 
L 77.508714 95.491848 
L 78.100432 95.491848 
L 78.105669 98.87708 
L 78.205161 95.491848 
L 78.252289 94.363437 
L 78.257526 97.74867 
L 78.304654 97.74867 
L 78.336073 97.74867 
L 78.367491 101.133902 
L 78.446038 97.74867 
L 79.43049 97.74867 
L 79.545692 101.133902 
L 80.755312 101.133902 
L 80.870514 97.74867 
L 81.708345 97.74867 
L 81.823547 101.133902 
L 82.46763 101.133902 
L 82.582832 100.287594 
L 83.881471 100.287594 
L 83.996673 103.672827 
L 84.190422 103.672827 
L 84.227077 101.98021 
L 84.232313 105.365443 
L 84.295151 105.365443 
L 85.311021 105.365443 
L 85.420987 101.98021 
L 85.536189 105.365443 
L 85.719464 105.365443 
L 85.834666 101.98021 
L 85.923686 101.98021 
L 86.038888 105.365443 
L 86.740572 105.365443 
L 86.855774 108.750675 
L 86.897665 108.750675 
L 87.012867 105.365443 
L 87.615059 105.365443 
L 87.730261 101.98021 
L 88.164886 101.98021 
L 88.280088 105.365443 
L 92.547793 105.365443 
L 92.662995 101.98021 
L 95.375475 101.98021 
L 95.490677 105.365443 
L 100.004495 105.365443 
L 100.119697 108.750675 
L 100.475775 108.750675 
L 100.590977 105.365443 
L 104.282673 105.365443 
L 104.397875 108.750675 
L 106.49769 108.750675 
L 106.612892 105.365443 
L 107.487379 105.365443 
L 107.602581 101.98021 
L 109.644796 101.98021 
L 109.765234 108.750675 
L 112.001197 108.750675 
L 112.116399 112.135908 
L 124.244013 112.135908 
L 124.359215 108.750675 
L 194.140122 108.750675 
L 194.255324 112.135908 
L 195.344505 112.135908 
L 195.459707 108.750675 
L 260.63254 108.750675 
L 260.747742 107.622264 
L 265.738077 107.622264 
L 265.853279 111.007497 
L 266.70682 111.007497 
L 266.822022 114.39273 
L 296.73785 114.39273 
L 296.853052 117.777962 
L 297.758957 117.777962 
L 297.874159 114.39273 
L 319.055592 114.39273 
L 319.170793 117.777962 
L 334.461222 117.777962 
L 334.576424 114.39273 
L 335.246689 114.39273 
L 335.361891 117.777962 
L 374.719035 117.777962 
L 374.834237 121.163195 
L 385.312369 121.163195 
L 385.427571 117.777962 
L 398.487273 117.777962 
L 398.487273 117.777962 
" clip-path="url(#p13f3c704ae)" style="fill: none; stroke: #ff7f0e; stroke-width: 1.5; stroke-linecap: square"/>
   </g>
   <g id="line2d_14">
    <path d="M 73.832727 58.25429 
L 73.8432 56.279571 
L 73.906038 66.153166 
L 73.91651 66.153166 
L 74.036949 64.178447 
L 74.057895 64.178447 
L 74.16786 70.271866 
L 74.173096 69.143455 
L 74.199279 69.143455 
L 74.214988 68.015044 
L 74.225461 74.785509 
L 74.267352 74.785509 
L 74.398264 90.865363 
L 74.461101 90.865363 
L 74.586776 88.495701 
L 74.612958 88.495701 
L 74.72816 87.36729 
L 74.738633 87.36729 
L 74.853835 90.752522 
L 74.906199 90.752522 
L 74.974273 87.085187 
L 75.016165 90.47042 
L 75.026637 90.47042 
L 75.141839 93.855652 
L 75.152312 93.855652 
L 75.267514 97.240885 
L 75.806868 97.240885 
L 75.92207 96.112474 
L 76.231021 96.112474 
L 76.346222 99.497706 
L 76.372405 99.497706 
L 76.487606 102.882939 
L 76.712774 102.882939 
L 76.827976 106.268171 
L 77.246891 106.268171 
L 77.362093 105.421863 
L 77.393512 105.421863 
L 77.508714 103.729247 
L 78.100432 103.729247 
L 78.215634 107.11448 
L 81.011898 107.11448 
L 81.127099 110.499712 
L 82.46763 110.499712 
L 82.582832 109.653404 
L 83.881471 109.653404 
L 83.918126 113.038637 
L 83.991437 111.910226 
L 84.227077 111.910226 
L 84.342279 115.295458 
L 85.719464 115.295458 
L 85.834666 118.680691 
L 86.897665 118.680691 
L 87.012867 122.065923 
L 95.469731 122.065923 
L 95.584933 120.937512 
L 104.282673 120.937512 
L 104.397875 124.322745 
L 110.445972 124.322745 
L 110.561174 123.194334 
L 209.006398 123.194334 
L 209.1216 121.501718 
L 265.738077 121.501718 
L 265.853279 124.88695 
L 266.70682 124.88695 
L 266.822022 128.272183 
L 276.577525 128.272183 
L 276.692726 126.579567 
L 286.804308 126.579567 
L 286.91951 125.451156 
L 319.055592 125.451156 
L 319.170793 128.836388 
L 398.487273 128.836388 
L 398.487273 128.836388 
" clip-path="url(#p13f3c704ae)" style="fill: none; stroke: #2ca02c; stroke-width: 1.5; stroke-linecap: square"/>
   </g>
   <g id="line2d_15">
    <path d="M 73.832727 62.485831 
L 73.8432 62.485831 
L 73.85891 65.194017 
L 73.979348 58.987757 
L 74.120732 58.987757 
L 74.152151 62.37299 
L 74.230697 60.398271 
L 74.298771 60.398271 
L 74.393027 71.964482 
L 74.424446 71.118174 
L 74.461101 71.118174 
L 74.534411 69.312716 
L 74.539648 72.697949 
L 74.555357 72.697949 
L 74.670559 72.697949 
L 74.785761 71.851641 
L 74.948091 71.851641 
L 74.974273 78.622106 
L 75.063293 77.098751 
L 75.178494 75.124032 
L 75.539809 75.124032 
L 75.607883 73.995621 
L 75.61312 77.380854 
L 75.639302 77.380854 
L 75.806868 77.380854 
L 75.92207 80.766086 
L 76.231021 80.766086 
L 76.241493 79.919778 
L 76.262439 86.690243 
L 76.304331 86.690243 
L 76.372405 86.690243 
L 76.477134 90.075476 
L 76.487606 89.398429 
L 76.712774 89.398429 
L 76.827976 88.552121 
L 77.173581 88.552121 
L 77.246891 87.42371 
L 77.252128 90.808943 
L 77.273074 90.808943 
L 78.100432 90.808943 
L 78.205161 89.962635 
L 78.252289 93.347867 
L 78.315127 92.219457 
L 78.336073 92.219457 
L 78.451274 91.091046 
L 79.43049 91.091046 
L 79.545692 90.413999 
L 81.011898 90.413999 
L 81.127099 93.799232 
L 81.708345 93.799232 
L 81.823547 92.670821 
L 83.881471 92.670821 
L 83.918126 91.824513 
L 83.923363 95.209745 
L 83.975727 95.209745 
L 84.190422 95.209745 
L 84.227077 98.594978 
L 84.300387 97.74867 
L 85.420987 97.74867 
L 85.536189 97.071623 
L 85.923686 97.071623 
L 86.038888 96.394577 
L 86.740572 96.394577 
L 86.855774 95.266166 
L 88.164886 95.266166 
L 88.280088 94.137755 
L 95.375475 94.137755 
L 95.490677 93.460708 
L 100.004495 93.460708 
L 100.119697 92.332298 
L 104.282673 92.332298 
L 104.397875 91.485989 
L 109.644796 91.485989 
L 109.765234 89.680532 
L 112.001197 89.680532 
L 112.116399 88.552121 
L 194.140122 88.552121 
L 194.255324 87.42371 
L 260.63254 87.42371 
L 260.747742 90.808943 
L 265.738077 90.808943 
L 265.853279 89.962635 
L 266.70682 89.962635 
L 266.822022 89.116327 
L 276.577525 89.116327 
L 276.692726 92.501559 
L 286.804308 92.501559 
L 286.91951 95.886792 
L 296.73785 95.886792 
L 296.853052 94.758381 
L 319.055592 94.758381 
L 319.170793 93.912073 
L 335.246689 93.912073 
L 335.361891 92.783662 
L 374.719035 92.783662 
L 374.834237 91.655251 
L 398.487273 91.655251 
L 398.487273 91.655251 
" clip-path="url(#p13f3c704ae)" style="fill: none; stroke: #d62728; stroke-width: 1.5; stroke-linecap: square"/>
   </g>
   <g id="line2d_16">
    <path d="M 73.832727 62.485831 
L 73.837964 62.485831 
L 73.8432 61.639523 
L 73.869382 70.948912 
L 73.874619 70.948912 
L 73.989821 74.334145 
L 74.120732 74.334145 
L 74.235934 77.719377 
L 74.298771 77.719377 
L 74.356372 81.10461 
L 74.408737 80.258302 
L 74.948091 80.258302 
L 75.063293 79.411993 
L 77.246891 79.411993 
L 77.362093 78.565685 
L 82.46763 78.565685 
L 82.582832 77.719377 
L 83.918126 77.719377 
L 84.033328 76.590966 
L 110.445972 76.590966 
L 110.561174 75.462556 
L 286.804308 75.462556 
L 286.91951 74.334145 
L 398.487273 74.334145 
L 398.487273 74.334145 
" clip-path="url(#p13f3c704ae)" style="fill: none; stroke: #9467bd; stroke-width: 1.5; stroke-linecap: square"/>
   </g>
   <g id="line2d_17">
    <path d="M 73.832727 58.25429 
L 73.8432 58.25429 
L 73.853673 61.639523 
L 73.953166 59.664804 
L 73.984584 59.664804 
L 74.099786 58.536393 
L 74.120732 58.536393 
L 74.24117 56.730936 
L 74.298771 56.730936 
L 74.413973 60.116168 
L 74.612958 60.116168 
L 74.72816 58.987757 
L 74.906199 58.987757 
L 75.021401 57.859346 
L 75.806868 57.859346 
L 75.92207 56.730936 
L 78.205161 56.730936 
L 78.320363 60.116168 
L 84.190422 60.116168 
L 84.305623 58.423552 
L 209.006398 58.423552 
L 209.1216 56.730936 
L 260.63254 56.730936 
L 260.747742 60.116168 
L 276.577525 60.116168 
L 276.692726 58.423552 
L 398.487273 58.423552 
L 398.487273 58.423552 
" clip-path="url(#p13f3c704ae)" style="fill: none; stroke: #8c564b; stroke-width: 1.5; stroke-linecap: square"/>
   </g>
   <g id="line2d_18">
    <path d="M 73.832727 62.485831 
L 73.8432 60.511112 
L 73.879855 68.69209 
L 73.926983 65.306858 
L 74.016003 65.306858 
L 74.120732 61.921625 
L 74.125968 65.306858 
L 74.16786 65.306858 
L 74.283062 64.178447 
L 74.298771 64.178447 
L 74.356372 67.56368 
L 74.408737 65.024755 
L 74.534411 65.024755 
L 74.649613 63.332139 
L 74.948091 63.332139 
L 75.073765 60.793215 
L 75.607883 60.793215 
L 75.723085 59.100598 
L 76.257203 59.100598 
L 76.372405 57.407982 
L 77.246891 57.407982 
L 77.362093 56.561674 
L 77.393512 56.561674 
L 77.508714 54.869058 
L 78.205161 54.869058 
L 78.320363 53.740647 
L 82.46763 53.740647 
L 82.582832 52.894339 
L 83.918126 52.894339 
L 84.033328 51.765928 
L 110.445972 51.765928 
L 110.561174 50.637517 
L 260.63254 50.637517 
L 260.747742 49.509106 
L 286.804308 49.509106 
L 286.91951 48.380695 
L 398.487273 48.380695 
L 398.487273 48.380695 
" clip-path="url(#p13f3c704ae)" style="fill: none; stroke: #e377c2; stroke-width: 1.5; stroke-linecap: square"/>
   </g>
   <g id="line2d_19">
    <path d="M 73.832727 59.100598 
L 73.974111 79.581255 
L 74.016003 79.581255 
L 74.120732 86.35172 
L 74.136441 85.674674 
L 74.16786 85.674674 
L 74.283062 89.059906 
L 74.304008 89.059906 
L 74.429682 99.215604 
L 74.461101 99.215604 
L 74.534411 98.538557 
L 74.539648 101.92379 
L 74.550121 101.92379 
L 74.670559 101.92379 
L 74.785761 101.077482 
L 74.948091 101.077482 
L 75.021401 107.847947 
L 75.068529 107.1709 
L 75.607883 107.1709 
L 75.644538 110.556133 
L 75.717849 109.427722 
L 76.257203 109.427722 
L 76.372405 112.812954 
L 76.477134 112.812954 
L 76.592335 112.135908 
L 77.246891 112.135908 
L 77.362093 115.52114 
L 77.393512 115.52114 
L 77.508714 118.906373 
L 78.205161 118.906373 
L 78.320363 122.291605 
L 79.43049 122.291605 
L 79.545692 121.614559 
L 82.46763 121.614559 
L 82.582832 124.999791 
L 83.918126 124.999791 
L 84.033328 128.385024 
L 84.190422 128.385024 
L 84.305623 131.770256 
L 85.043963 131.770256 
L 85.159165 130.07764 
L 85.420987 130.07764 
L 85.536189 129.400594 
L 85.923686 129.400594 
L 86.038888 128.723547 
L 95.375475 128.723547 
L 95.469731 128.046501 
L 95.584933 131.431733 
L 109.644796 131.431733 
L 109.759998 130.754687 
L 110.445972 130.754687 
L 110.561174 134.139919 
L 183.326857 134.139919 
L 183.442059 137.525152 
L 260.63254 137.525152 
L 260.747742 140.910384 
L 286.804308 140.910384 
L 286.91951 144.295617 
L 398.487273 144.295617 
L 398.487273 144.295617 
" clip-path="url(#p13f3c704ae)" style="fill: none; stroke: #7f7f7f; stroke-width: 1.5; stroke-linecap: square"/>
   </g>
   <g id="line2d_20">
    <path d="M 73.832727 62.485831 
L 73.837964 61.35742 
L 73.895565 71.682379 
L 73.911274 69.425558 
L 73.91651 69.425558 
L 74.031712 73.939201 
L 74.052658 73.939201 
L 74.068367 71.118174 
L 74.125968 77.888639 
L 74.146914 77.888639 
L 74.152151 77.888639 
L 74.16786 76.760228 
L 74.204515 83.530693 
L 74.246407 80.991769 
L 74.267352 80.991769 
L 74.298771 79.863358 
L 74.309244 86.633823 
L 74.356372 83.530693 
L 74.387791 90.301158 
L 74.471574 87.649393 
L 74.502993 87.649393 
L 74.534411 86.520982 
L 74.539648 89.906214 
L 74.602485 89.906214 
L 74.612958 89.906214 
L 74.670559 93.291447 
L 74.722923 92.445139 
L 74.738633 92.445139 
L 74.853835 91.316728 
L 74.906199 91.316728 
L 74.974273 101.472425 
L 75.026637 99.949071 
L 75.141839 97.128044 
L 75.152312 97.128044 
L 75.267514 96.281736 
L 75.539809 96.281736 
L 75.607883 95.153325 
L 75.61312 98.538557 
L 75.639302 98.538557 
L 75.644538 98.538557 
L 75.75974 97.410146 
L 75.806868 97.410146 
L 75.92207 100.795379 
L 76.231021 100.795379 
L 76.241493 99.949071 
L 76.262439 106.719536 
L 76.304331 106.719536 
L 76.372405 106.719536 
L 76.487606 104.914078 
L 76.712774 104.914078 
L 76.827976 104.06777 
L 77.173581 104.06777 
L 77.246891 102.939359 
L 77.252128 106.324592 
L 77.273074 106.324592 
L 77.393512 106.324592 
L 77.508714 109.709825 
L 78.100432 109.709825 
L 78.205161 108.863516 
L 78.252289 112.248749 
L 78.315127 111.120338 
L 78.336073 111.120338 
L 78.451274 109.991927 
L 79.43049 109.991927 
L 79.545692 109.314881 
L 81.011898 109.314881 
L 81.127099 108.18647 
L 81.708345 108.18647 
L 81.823547 107.058059 
L 83.881471 107.058059 
L 83.918126 106.211751 
L 83.923363 109.596983 
L 83.975727 109.596983 
L 84.190422 109.596983 
L 84.227077 112.982216 
L 84.300387 112.135908 
L 85.043963 112.135908 
L 85.159165 115.52114 
L 85.420987 115.52114 
L 85.536189 114.844094 
L 85.719464 114.844094 
L 85.834666 118.229326 
L 85.923686 118.229326 
L 86.038888 117.55228 
L 86.740572 117.55228 
L 86.855774 116.423869 
L 86.897665 116.423869 
L 87.012867 119.809102 
L 88.164886 119.809102 
L 88.280088 118.680691 
L 95.375475 118.680691 
L 95.469731 118.003644 
L 95.584933 121.388877 
L 100.004495 121.388877 
L 100.119697 120.260466 
L 104.282673 120.260466 
L 104.397875 119.414158 
L 109.644796 119.414158 
L 109.765234 117.6087 
L 110.445972 117.6087 
L 110.561174 120.993933 
L 112.001197 120.993933 
L 112.116399 119.865522 
L 183.326857 119.865522 
L 183.442059 123.250755 
L 194.140122 123.250755 
L 194.255324 122.122344 
L 209.006398 122.122344 
L 209.1216 125.507576 
L 260.63254 125.507576 
L 260.747742 128.892809 
L 265.738077 128.892809 
L 265.853279 128.046501 
L 266.70682 128.046501 
L 266.822022 127.200193 
L 276.577525 127.200193 
L 276.692726 130.585425 
L 286.804308 130.585425 
L 286.91951 133.970658 
L 296.73785 133.970658 
L 296.853052 132.842247 
L 319.055592 132.842247 
L 319.170793 131.995939 
L 335.246689 131.995939 
L 335.361891 130.867528 
L 374.719035 130.867528 
L 374.834237 129.739117 
L 398.487273 129.739117 
L 398.487273 129.739117 
" clip-path="url(#p13f3c704ae)" style="fill: none; stroke: #bcbd22; stroke-width: 1.5; stroke-linecap: square"/>
   </g>
   <g id="line2d_21">
    <path d="M 73.832727 62.485831 
L 73.837964 62.485831 
L 73.93222 69.70766 
L 73.953166 67.450839 
L 73.984584 67.450839 
L 74.099786 71.400277 
L 74.120732 71.400277 
L 74.16786 69.594819 
L 74.173096 72.980052 
L 74.235934 70.441127 
L 74.267352 70.441127 
L 74.298771 69.312716 
L 74.309244 76.083181 
L 74.356372 72.980052 
L 74.387791 79.750517 
L 74.471574 77.098751 
L 74.502993 77.098751 
L 74.534411 75.97034 
L 74.539648 79.355573 
L 74.602485 79.355573 
L 74.670559 79.355573 
L 74.790997 77.380854 
L 74.906199 77.380854 
L 74.948091 76.252443 
L 74.9638 83.022908 
L 74.989982 82.1766 
L 75.021401 82.1766 
L 75.162785 77.832218 
L 75.539809 77.832218 
L 75.607883 76.703807 
L 75.61312 80.08904 
L 75.639302 80.08904 
L 75.644538 80.08904 
L 75.75974 78.960629 
L 75.806868 78.960629 
L 75.92207 77.832218 
L 76.231021 77.832218 
L 76.257203 75.293294 
L 76.262439 78.678526 
L 76.335749 78.678526 
L 76.372405 78.678526 
L 76.487606 76.873069 
L 76.712774 76.873069 
L 76.827976 76.026761 
L 77.173581 76.026761 
L 77.246891 74.89835 
L 77.252128 78.283583 
L 77.273074 78.283583 
L 77.393512 78.283583 
L 77.508714 81.668815 
L 78.100432 81.668815 
L 78.205161 80.822507 
L 78.252289 84.20774 
L 78.315127 83.079329 
L 78.336073 83.079329 
L 78.451274 81.950918 
L 79.43049 81.950918 
L 79.545692 81.273871 
L 81.011898 81.273871 
L 81.127099 80.145461 
L 81.708345 80.145461 
L 81.823547 79.01705 
L 82.46763 79.01705 
L 82.582832 82.402282 
L 83.881471 82.402282 
L 83.918126 81.555974 
L 83.923363 84.941207 
L 83.975727 84.941207 
L 84.190422 84.941207 
L 84.227077 88.326439 
L 84.300387 87.480131 
L 85.043963 87.480131 
L 85.159165 85.787515 
L 85.420987 85.787515 
L 85.536189 85.110468 
L 85.923686 85.110468 
L 86.038888 84.433422 
L 86.740572 84.433422 
L 86.855774 83.305011 
L 88.164886 83.305011 
L 88.280088 82.1766 
L 95.375475 82.1766 
L 95.469731 81.499554 
L 95.584933 84.884786 
L 100.004495 84.884786 
L 100.119697 83.756375 
L 104.282673 83.756375 
L 104.397875 82.910067 
L 109.644796 82.910067 
L 109.765234 81.10461 
L 110.445972 81.10461 
L 110.561174 84.489842 
L 112.001197 84.489842 
L 112.116399 83.361431 
L 183.326857 83.361431 
L 183.442059 86.746664 
L 194.140122 86.746664 
L 194.255324 85.618253 
L 260.63254 85.618253 
L 260.747742 89.003486 
L 265.738077 89.003486 
L 265.853279 88.157177 
L 266.70682 88.157177 
L 266.822022 87.310869 
L 286.804308 87.310869 
L 286.91951 90.696102 
L 296.73785 90.696102 
L 296.853052 89.567691 
L 319.055592 89.567691 
L 319.170793 88.721383 
L 335.246689 88.721383 
L 335.361891 87.592972 
L 374.719035 87.592972 
L 374.834237 86.464561 
L 398.487273 86.464561 
L 398.487273 86.464561 
" clip-path="url(#p13f3c704ae)" style="fill: none; stroke: #17becf; stroke-width: 1.5; stroke-linecap: square"/>
   </g>
   <g id="line2d_22">
    <path d="M 73.832727 62.485831 
L 73.8432 62.485831 
L 73.853673 61.808784 
L 73.869382 68.579249 
L 73.906038 68.579249 
L 73.984584 68.579249 
L 74.099786 71.964482 
L 74.120732 71.964482 
L 74.24117 78.734947 
L 74.298771 78.734947 
L 74.413973 77.888639 
L 74.612958 77.888639 
L 74.72816 81.273871 
L 74.906199 81.273871 
L 75.021401 84.659104 
L 75.806868 84.659104 
L 75.92207 88.044336 
L 78.205161 88.044336 
L 78.320363 86.915926 
L 84.190422 86.915926 
L 84.305623 90.301158 
L 209.006398 90.301158 
L 209.1216 93.686391 
L 260.63254 93.686391 
L 260.747742 92.55798 
L 276.577525 92.55798 
L 276.692726 95.943212 
L 398.487273 95.943212 
L 398.487273 95.943212 
" clip-path="url(#p13f3c704ae)" style="fill: none; stroke: #1f77b4; stroke-width: 1.5; stroke-linecap: square"/>
   </g>
   <g id="line2d_23">
    <path d="M 73.832727 59.100598 
L 73.974111 80.258302 
L 73.989821 80.258302 
L 74.057895 83.643534 
L 74.099786 80.822507 
L 74.120732 80.822507 
L 74.178333 79.01705 
L 74.188806 85.787515 
L 74.214988 85.787515 
L 74.235934 84.941207 
L 74.24117 88.326439 
L 74.324953 85.505412 
L 74.345899 85.505412 
L 74.361609 87.762234 
L 74.445392 84.094898 
L 74.560594 87.480131 
L 74.592012 87.480131 
L 74.707214 90.865363 
L 74.738633 90.865363 
L 74.790997 89.736953 
L 74.796234 93.122185 
L 74.832889 93.122185 
L 74.958564 103.277883 
L 74.974273 103.277883 
L 75.094711 101.754528 
L 75.152312 101.754528 
L 75.236095 100.90822 
L 75.241332 104.293452 
L 75.246568 104.293452 
L 75.607883 104.293452 
L 75.675957 102.600836 
L 75.681193 105.986069 
L 75.712612 105.986069 
L 76.231021 105.986069 
L 76.241493 105.139761 
L 76.24673 108.524993 
L 76.325277 108.524993 
L 76.372405 108.524993 
L 76.487606 106.719536 
L 76.602808 106.719536 
L 76.712774 110.104768 
L 76.827976 109.25846 
L 76.958887 109.25846 
L 77.074089 112.643693 
L 77.246891 112.643693 
L 77.362093 116.028925 
L 78.100432 116.028925 
L 78.105669 115.182617 
L 78.110905 118.56785 
L 78.194689 118.56785 
L 78.367491 118.56785 
L 78.482693 121.953082 
L 79.43049 121.953082 
L 79.545692 121.276036 
L 80.755312 121.276036 
L 80.870514 124.661268 
L 81.011898 124.661268 
L 81.127099 123.532857 
L 82.46763 123.532857 
L 82.582832 126.91809 
L 83.881471 126.91809 
L 83.996673 126.071782 
L 84.227077 126.071782 
L 84.342279 125.225474 
L 85.311021 125.225474 
L 85.420987 128.610706 
L 85.426223 127.93366 
L 85.923686 127.93366 
L 86.038888 127.256613 
L 87.615059 127.256613 
L 87.730261 130.641846 
L 92.547793 130.641846 
L 92.662995 134.027078 
L 95.375475 134.027078 
L 95.495913 132.221621 
L 100.475775 132.221621 
L 100.590977 135.606853 
L 104.282673 135.606853 
L 104.397875 134.760545 
L 106.49769 134.760545 
L 106.612892 138.145778 
L 107.487379 138.145778 
L 107.602581 141.53101 
L 109.644796 141.53101 
L 109.759998 140.853964 
L 124.244013 140.853964 
L 124.359215 144.239196 
L 183.326857 144.239196 
L 183.442059 142.54658 
L 195.344505 142.54658 
L 195.459707 145.931812 
L 209.006398 145.931812 
L 209.1216 149.317045 
L 265.738077 149.317045 
L 265.853279 148.470737 
L 266.70682 148.470737 
L 266.822022 147.624429 
L 297.758957 147.624429 
L 297.874159 151.009661 
L 319.055592 151.009661 
L 319.170793 150.163353 
L 334.461222 150.163353 
L 334.576424 153.548586 
L 385.312369 153.548586 
L 385.427571 156.933818 
L 398.487273 156.933818 
L 398.487273 156.933818 
" clip-path="url(#p13f3c704ae)" style="fill: none; stroke: #ff7f0e; stroke-width: 1.5; stroke-linecap: square"/>
   </g>
   <g id="patch_3">
    <path d="M 57.6 162.432 
L 57.6 41.472 
" style="fill: none; stroke: #000000; stroke-width: 0.8; stroke-linejoin: miter; stroke-linecap: square"/>
   </g>
   <g id="patch_4">
    <path d="M 414.72 162.432 
L 414.72 41.472 
" style="fill: none; stroke: #000000; stroke-width: 0.8; stroke-linejoin: miter; stroke-linecap: square"/>
   </g>
   <g id="patch_5">
    <path d="M 57.6 162.432 
L 414.72 162.432 
" style="fill: none; stroke: #000000; stroke-width: 0.8; stroke-linejoin: miter; stroke-linecap: square"/>
   </g>
   <g id="patch_6">
    <path d="M 57.6 41.472 
L 414.72 41.472 
" style="fill: none; stroke: #000000; stroke-width: 0.8; stroke-linejoin: miter; stroke-linecap: square"/>
   </g>
   <g id="text_12">
    <!-- WSP -->
    <g transform="translate(361.832136 46.970182)scale(0.08 -0.08)">
     <defs>
      <path id="DejaVuSans-57" d="M 213 4666 
L 850 4666 
L 1831 722 
L 2809 4666 
L 3519 4666 
L 4500 722 
L 5478 4666 
L 6119 4666 
L 4947 0 
L 4153 0 
L 3169 4050 
L 2175 0 
L 1381 0 
L 213 4666 
z
" transform="scale(0.015625)"/>
      <path id="DejaVuSans-53" d="M 3425 4513 
L 3425 3897 
Q 3066 4069 2747 4153 
Q 2428 4238 2131 4238 
Q 1616 4238 1336 4038 
Q 1056 3838 1056 3469 
Q 1056 3159 1242 3001 
Q 1428 2844 1947 2747 
L 2328 2669 
Q 3034 2534 3370 2195 
Q 3706 1856 3706 1288 
Q 3706 609 3251 259 
Q 2797 -91 1919 -91 
Q 1588 -91 1214 -16 
Q 841 59 441 206 
L 441 856 
Q 825 641 1194 531 
Q 1563 422 1919 422 
Q 2459 422 2753 634 
Q 3047 847 3047 1241 
Q 3047 1584 2836 1778 
Q 2625 1972 2144 2069 
L 1759 2144 
Q 1053 2284 737 2584 
Q 422 2884 422 3419 
Q 422 4038 858 4394 
Q 1294 4750 2059 4750 
Q 2388 4750 2728 4690 
Q 3069 4631 3425 4513 
z
" transform="scale(0.015625)"/>
      <path id="DejaVuSans-50" d="M 1259 4147 
L 1259 2394 
L 2053 2394 
Q 2494 2394 2734 2622 
Q 2975 2850 2975 3272 
Q 2975 3691 2734 3919 
Q 2494 4147 2053 4147 
L 1259 4147 
z
M 628 4666 
L 2053 4666 
Q 2838 4666 3239 4311 
Q 3641 3956 3641 3272 
Q 3641 2581 3239 2228 
Q 2838 1875 2053 1875 
L 1259 1875 
L 1259 0 
L 628 0 
L 628 4666 
z
" transform="scale(0.015625)"/>
     </defs>
     <use xlink:href="#DejaVuSans-57"/>
     <use xlink:href="#DejaVuSans-53" x="98.876953"/>
     <use xlink:href="#DejaVuSans-50" x="162.353516"/>
    </g>
   </g>
   <g id="text_13">
    <!-- Iambic -->
    <g transform="translate(361.832136 117.777962)scale(0.08 -0.08)">
     <defs>
      <path id="DejaVuSans-49" d="M 628 4666 
L 1259 4666 
L 1259 0 
L 628 0 
L 628 4666 
z
" transform="scale(0.015625)"/>
      <path id="DejaVuSans-61" d="M 2194 1759 
Q 1497 1759 1228 1600 
Q 959 1441 959 1056 
Q 959 750 1161 570 
Q 1363 391 1709 391 
Q 2188 391 2477 730 
Q 2766 1069 2766 1631 
L 2766 1759 
L 2194 1759 
z
M 3341 1997 
L 3341 0 
L 2766 0 
L 2766 531 
Q 2569 213 2275 61 
Q 1981 -91 1556 -91 
Q 1019 -91 701 211 
Q 384 513 384 1019 
Q 384 1609 779 1909 
Q 1175 2209 1959 2209 
L 2766 2209 
L 2766 2266 
Q 2766 2663 2505 2880 
Q 2244 3097 1772 3097 
Q 1472 3097 1187 3025 
Q 903 2953 641 2809 
L 641 3341 
Q 956 3463 1253 3523 
Q 1550 3584 1831 3584 
Q 2591 3584 2966 3190 
Q 3341 2797 3341 1997 
z
" transform="scale(0.015625)"/>
      <path id="DejaVuSans-6d" d="M 3328 2828 
Q 3544 3216 3844 3400 
Q 4144 3584 4550 3584 
Q 5097 3584 5394 3201 
Q 5691 2819 5691 2113 
L 5691 0 
L 5113 0 
L 5113 2094 
Q 5113 2597 4934 2840 
Q 4756 3084 4391 3084 
Q 3944 3084 3684 2787 
Q 3425 2491 3425 1978 
L 3425 0 
L 2847 0 
L 2847 2094 
Q 2847 2600 2669 2842 
Q 2491 3084 2119 3084 
Q 1678 3084 1418 2786 
Q 1159 2488 1159 1978 
L 1159 0 
L 581 0 
L 581 3500 
L 1159 3500 
L 1159 2956 
Q 1356 3278 1631 3431 
Q 1906 3584 2284 3584 
Q 2666 3584 2933 3390 
Q 3200 3197 3328 2828 
z
" transform="scale(0.015625)"/>
      <path id="DejaVuSans-62" d="M 3116 1747 
Q 3116 2381 2855 2742 
Q 2594 3103 2138 3103 
Q 1681 3103 1420 2742 
Q 1159 2381 1159 1747 
Q 1159 1113 1420 752 
Q 1681 391 2138 391 
Q 2594 391 2855 752 
Q 3116 1113 3116 1747 
z
M 1159 2969 
Q 1341 3281 1617 3432 
Q 1894 3584 2278 3584 
Q 2916 3584 3314 3078 
Q 3713 2572 3713 1747 
Q 3713 922 3314 415 
Q 2916 -91 2278 -91 
Q 1894 -91 1617 61 
Q 1341 213 1159 525 
L 1159 0 
L 581 0 
L 581 4863 
L 1159 4863 
L 1159 2969 
z
" transform="scale(0.015625)"/>
      <path id="DejaVuSans-69" d="M 603 3500 
L 1178 3500 
L 1178 0 
L 603 0 
L 603 3500 
z
M 603 4863 
L 1178 4863 
L 1178 4134 
L 603 4134 
L 603 4863 
z
" transform="scale(0.015625)"/>
      <path id="DejaVuSans-63" d="M 3122 3366 
L 3122 2828 
Q 2878 2963 2633 3030 
Q 2388 3097 2138 3097 
Q 1578 3097 1268 2742 
Q 959 2388 959 1747 
Q 959 1106 1268 751 
Q 1578 397 2138 397 
Q 2388 397 2633 464 
Q 2878 531 3122 666 
L 3122 134 
Q 2881 22 2623 -34 
Q 2366 -91 2075 -91 
Q 1284 -91 818 406 
Q 353 903 353 1747 
Q 353 2603 823 3093 
Q 1294 3584 2113 3584 
Q 2378 3584 2631 3529 
Q 2884 3475 3122 3366 
z
" transform="scale(0.015625)"/>
     </defs>
     <use xlink:href="#DejaVuSans-49"/>
     <use xlink:href="#DejaVuSans-61" x="29.492188"/>
     <use xlink:href="#DejaVuSans-6d" x="90.771484"/>
     <use xlink:href="#DejaVuSans-62" x="188.183594"/>
     <use xlink:href="#DejaVuSans-69" x="251.660156"/>
     <use xlink:href="#DejaVuSans-63" x="279.443359"/>
    </g>
   </g>
   <g id="text_14">
    <!-- Parse -->
    <g transform="translate(361.832136 128.836388)scale(0.08 -0.08)">
     <defs>
      <path id="DejaVuSans-72" d="M 2631 2963 
Q 2534 3019 2420 3045 
Q 2306 3072 2169 3072 
Q 1681 3072 1420 2755 
Q 1159 2438 1159 1844 
L 1159 0 
L 581 0 
L 581 3500 
L 1159 3500 
L 1159 2956 
Q 1341 3275 1631 3429 
Q 1922 3584 2338 3584 
Q 2397 3584 2469 3576 
Q 2541 3569 2628 3553 
L 2631 2963 
z
" transform="scale(0.015625)"/>
      <path id="DejaVuSans-73" d="M 2834 3397 
L 2834 2853 
Q 2591 2978 2328 3040 
Q 2066 3103 1784 3103 
Q 1356 3103 1142 2972 
Q 928 2841 928 2578 
Q 928 2378 1081 2264 
Q 1234 2150 1697 2047 
L 1894 2003 
Q 2506 1872 2764 1633 
Q 3022 1394 3022 966 
Q 3022 478 2636 193 
Q 2250 -91 1575 -91 
Q 1294 -91 989 -36 
Q 684 19 347 128 
L 347 722 
Q 666 556 975 473 
Q 1284 391 1588 391 
Q 1994 391 2212 530 
Q 2431 669 2431 922 
Q 2431 1156 2273 1281 
Q 2116 1406 1581 1522 
L 1381 1569 
Q 847 1681 609 1914 
Q 372 2147 372 2553 
Q 372 3047 722 3315 
Q 1072 3584 1716 3584 
Q 2034 3584 2315 3537 
Q 2597 3491 2834 3397 
z
" transform="scale(0.015625)"/>
      <path id="DejaVuSans-65" d="M 3597 1894 
L 3597 1613 
L 953 1613 
Q 991 1019 1311 708 
Q 1631 397 2203 397 
Q 2534 397 2845 478 
Q 3156 559 3463 722 
L 3463 178 
Q 3153 47 2828 -22 
Q 2503 -91 2169 -91 
Q 1331 -91 842 396 
Q 353 884 353 1716 
Q 353 2575 817 3079 
Q 1281 3584 2069 3584 
Q 2775 3584 3186 3129 
Q 3597 2675 3597 1894 
z
M 3022 2063 
Q 3016 2534 2758 2815 
Q 2500 3097 2075 3097 
Q 1594 3097 1305 2825 
Q 1016 2553 972 2059 
L 3022 2063 
z
" transform="scale(0.015625)"/>
     </defs>
     <use xlink:href="#DejaVuSans-50"/>
     <use xlink:href="#DejaVuSans-61" x="55.802734"/>
     <use xlink:href="#DejaVuSans-72" x="117.082031"/>
     <use xlink:href="#DejaVuSans-73" x="158.195312"/>
     <use xlink:href="#DejaVuSans-65" x="210.294922"/>
    </g>
   </g>
   <g id="text_15">
    <!-- FootBin -->
    <g transform="translate(361.832136 91.655251)scale(0.08 -0.08)">
     <defs>
      <path id="DejaVuSans-46" d="M 628 4666 
L 3309 4666 
L 3309 4134 
L 1259 4134 
L 1259 2759 
L 3109 2759 
L 3109 2228 
L 1259 2228 
L 1259 0 
L 628 0 
L 628 4666 
z
" transform="scale(0.015625)"/>
      <path id="DejaVuSans-6f" d="M 1959 3097 
Q 1497 3097 1228 2736 
Q 959 2375 959 1747 
Q 959 1119 1226 758 
Q 1494 397 1959 397 
Q 2419 397 2687 759 
Q 2956 1122 2956 1747 
Q 2956 2369 2687 2733 
Q 2419 3097 1959 3097 
z
M 1959 3584 
Q 2709 3584 3137 3096 
Q 3566 2609 3566 1747 
Q 3566 888 3137 398 
Q 2709 -91 1959 -91 
Q 1206 -91 779 398 
Q 353 888 353 1747 
Q 353 2609 779 3096 
Q 1206 3584 1959 3584 
z
" transform="scale(0.015625)"/>
      <path id="DejaVuSans-74" d="M 1172 4494 
L 1172 3500 
L 2356 3500 
L 2356 3053 
L 1172 3053 
L 1172 1153 
Q 1172 725 1289 603 
Q 1406 481 1766 481 
L 2356 481 
L 2356 0 
L 1766 0 
Q 1100 0 847 248 
Q 594 497 594 1153 
L 594 3053 
L 172 3053 
L 172 3500 
L 594 3500 
L 594 4494 
L 1172 4494 
z
" transform="scale(0.015625)"/>
      <path id="DejaVuSans-42" d="M 1259 2228 
L 1259 519 
L 2272 519 
Q 2781 519 3026 730 
Q 3272 941 3272 1375 
Q 3272 1813 3026 2020 
Q 2781 2228 2272 2228 
L 1259 2228 
z
M 1259 4147 
L 1259 2741 
L 2194 2741 
Q 2656 2741 2882 2914 
Q 3109 3088 3109 3444 
Q 3109 3797 2882 3972 
Q 2656 4147 2194 4147 
L 1259 4147 
z
M 628 4666 
L 2241 4666 
Q 2963 4666 3353 4366 
Q 3744 4066 3744 3513 
Q 3744 3084 3544 2831 
Q 3344 2578 2956 2516 
Q 3422 2416 3680 2098 
Q 3938 1781 3938 1306 
Q 3938 681 3513 340 
Q 3088 0 2303 0 
L 628 0 
L 628 4666 
z
" transform="scale(0.015625)"/>
      <path id="DejaVuSans-6e" d="M 3513 2113 
L 3513 0 
L 2938 0 
L 2938 2094 
Q 2938 2591 2744 2837 
Q 2550 3084 2163 3084 
Q 1697 3084 1428 2787 
Q 1159 2491 1159 1978 
L 1159 0 
L 581 0 
L 581 3500 
L 1159 3500 
L 1159 2956 
Q 1366 3272 1645 3428 
Q 1925 3584 2291 3584 
Q 2894 3584 3203 3211 
Q 3513 2838 3513 2113 
z
" transform="scale(0.015625)"/>
     </defs>
     <use xlink:href="#DejaVuSans-46"/>
     <use xlink:href="#DejaVuSans-6f" x="53.894531"/>
     <use xlink:href="#DejaVuSans-6f" x="115.076172"/>
     <use xlink:href="#DejaVuSans-74" x="176.257812"/>
     <use xlink:href="#DejaVuSans-42" x="215.466797"/>
     <use xlink:href="#DejaVuSans-69" x="284.070312"/>
     <use xlink:href="#DejaVuSans-6e" x="311.853516"/>
    </g>
   </g>
   <g id="text_16">
    <!-- WFL -->
    <g transform="translate(361.832136 74.334145)scale(0.08 -0.08)">
     <defs>
      <path id="DejaVuSans-4c" d="M 628 4666 
L 1259 4666 
L 1259 531 
L 3531 531 
L 3531 0 
L 628 0 
L 628 4666 
z
" transform="scale(0.015625)"/>
     </defs>
     <use xlink:href="#DejaVuSans-57"/>
     <use xlink:href="#DejaVuSans-46" x="98.876953"/>
     <use xlink:href="#DejaVuSans-4c" x="156.396484"/>
    </g>
   </g>
   <g id="text_17">
    <!-- WFR -->
    <g transform="translate(361.832136 58.423552)scale(0.08 -0.08)">
     <defs>
      <path id="DejaVuSans-52" d="M 2841 2188 
Q 3044 2119 3236 1894 
Q 3428 1669 3622 1275 
L 4263 0 
L 3584 0 
L 2988 1197 
Q 2756 1666 2539 1819 
Q 2322 1972 1947 1972 
L 1259 1972 
L 1259 0 
L 628 0 
L 628 4666 
L 2053 4666 
Q 2853 4666 3247 4331 
Q 3641 3997 3641 3322 
Q 3641 2881 3436 2590 
Q 3231 2300 2841 2188 
z
M 1259 4147 
L 1259 2491 
L 2053 2491 
Q 2509 2491 2742 2702 
Q 2975 2913 2975 3322 
Q 2975 3731 2742 3939 
Q 2509 4147 2053 4147 
L 1259 4147 
z
" transform="scale(0.015625)"/>
     </defs>
     <use xlink:href="#DejaVuSans-57"/>
     <use xlink:href="#DejaVuSans-46" x="98.876953"/>
     <use xlink:href="#DejaVuSans-52" x="156.396484"/>
    </g>
   </g>
   <g id="text_18">
    <!-- Main-L -->
    <g transform="translate(361.832136 48.380695)scale(0.08 -0.08)">
     <defs>
      <path id="DejaVuSans-4d" d="M 628 4666 
L 1569 4666 
L 2759 1491 
L 3956 4666 
L 4897 4666 
L 4897 0 
L 4281 0 
L 4281 4097 
L 3078 897 
L 2444 897 
L 1241 4097 
L 1241 0 
L 628 0 
L 628 4666 
z
" transform="scale(0.015625)"/>
      <path id="DejaVuSans-2d" d="M 313 2009 
L 1997 2009 
L 1997 1497 
L 313 1497 
L 313 2009 
z
" transform="scale(0.015625)"/>
     </defs>
     <use xlink:href="#DejaVuSans-4d"/>
     <use xlink:href="#DejaVuSans-61" x="86.279297"/>
     <use xlink:href="#DejaVuSans-69" x="147.558594"/>
     <use xlink:href="#DejaVuSans-6e" x="175.341797"/>
     <use xlink:href="#DejaVuSans-2d" x="238.720703"/>
     <use xlink:href="#DejaVuSans-4c" x="274.804688"/>
    </g>
   </g>
   <g id="text_19">
    <!-- Main-R -->
    <g transform="translate(361.832136 144.295617)scale(0.08 -0.08)">
     <use xlink:href="#DejaVuSans-4d"/>
     <use xlink:href="#DejaVuSans-61" x="86.279297"/>
     <use xlink:href="#DejaVuSans-69" x="147.558594"/>
     <use xlink:href="#DejaVuSans-6e" x="175.341797"/>
     <use xlink:href="#DejaVuSans-2d" x="238.720703"/>
     <use xlink:href="#DejaVuSans-52" x="274.804688"/>
    </g>
   </g>
   <g id="text_20">
    <!-- AFL -->
    <g transform="translate(361.832136 129.739117)scale(0.08 -0.08)">
     <defs>
      <path id="DejaVuSans-41" d="M 2188 4044 
L 1331 1722 
L 3047 1722 
L 2188 4044 
z
M 1831 4666 
L 2547 4666 
L 4325 0 
L 3669 0 
L 3244 1197 
L 1141 1197 
L 716 0 
L 50 0 
L 1831 4666 
z
" transform="scale(0.015625)"/>
     </defs>
     <use xlink:href="#DejaVuSans-41"/>
     <use xlink:href="#DejaVuSans-46" x="68.408203"/>
     <use xlink:href="#DejaVuSans-4c" x="125.927734"/>
    </g>
   </g>
   <g id="text_21">
    <!-- AFR -->
    <g transform="translate(361.832136 86.464561)scale(0.08 -0.08)">
     <use xlink:href="#DejaVuSans-41"/>
     <use xlink:href="#DejaVuSans-46" x="68.408203"/>
     <use xlink:href="#DejaVuSans-52" x="125.927734"/>
    </g>
   </g>
   <g id="text_22">
    <!-- Nonfinal -->
    <g transform="translate(361.832136 95.943212)scale(0.08 -0.08)">
     <defs>
      <path id="DejaVuSans-4e" d="M 628 4666 
L 1478 4666 
L 3547 763 
L 3547 4666 
L 4159 4666 
L 4159 0 
L 3309 0 
L 1241 3903 
L 1241 0 
L 628 0 
L 628 4666 
z
" transform="scale(0.015625)"/>
      <path id="DejaVuSans-66" d="M 2375 4863 
L 2375 4384 
L 1825 4384 
Q 1516 4384 1395 4259 
Q 1275 4134 1275 3809 
L 1275 3500 
L 2222 3500 
L 2222 3053 
L 1275 3053 
L 1275 0 
L 697 0 
L 697 3053 
L 147 3053 
L 147 3500 
L 697 3500 
L 697 3744 
Q 697 4328 969 4595 
Q 1241 4863 1831 4863 
L 2375 4863 
z
" transform="scale(0.015625)"/>
      <path id="DejaVuSans-6c" d="M 603 4863 
L 1178 4863 
L 1178 0 
L 603 0 
L 603 4863 
z
" transform="scale(0.015625)"/>
     </defs>
     <use xlink:href="#DejaVuSans-4e"/>
     <use xlink:href="#DejaVuSans-6f" x="74.804688"/>
     <use xlink:href="#DejaVuSans-6e" x="135.986328"/>
     <use xlink:href="#DejaVuSans-66" x="199.365234"/>
     <use xlink:href="#DejaVuSans-69" x="234.570312"/>
     <use xlink:href="#DejaVuSans-6e" x="262.353516"/>
     <use xlink:href="#DejaVuSans-61" x="325.732422"/>
     <use xlink:href="#DejaVuSans-6c" x="387.011719"/>
    </g>
   </g>
   <g id="text_23">
    <!-- Trochaic -->
    <g transform="translate(361.832136 156.933818)scale(0.08 -0.08)">
     <defs>
      <path id="DejaVuSans-54" d="M -19 4666 
L 3928 4666 
L 3928 4134 
L 2272 4134 
L 2272 0 
L 1638 0 
L 1638 4134 
L -19 4134 
L -19 4666 
z
" transform="scale(0.015625)"/>
      <path id="DejaVuSans-68" d="M 3513 2113 
L 3513 0 
L 2938 0 
L 2938 2094 
Q 2938 2591 2744 2837 
Q 2550 3084 2163 3084 
Q 1697 3084 1428 2787 
Q 1159 2491 1159 1978 
L 1159 0 
L 581 0 
L 581 4863 
L 1159 4863 
L 1159 2956 
Q 1366 3272 1645 3428 
Q 1925 3584 2291 3584 
Q 2894 3584 3203 3211 
Q 3513 2838 3513 2113 
z
" transform="scale(0.015625)"/>
     </defs>
     <use xlink:href="#DejaVuSans-54"/>
     <use xlink:href="#DejaVuSans-72" x="46.333984"/>
     <use xlink:href="#DejaVuSans-6f" x="85.197266"/>
     <use xlink:href="#DejaVuSans-63" x="146.378906"/>
     <use xlink:href="#DejaVuSans-68" x="201.359375"/>
     <use xlink:href="#DejaVuSans-61" x="264.738281"/>
     <use xlink:href="#DejaVuSans-69" x="326.017578"/>
     <use xlink:href="#DejaVuSans-63" x="353.800781"/>
    </g>
   </g>
  </g>
  <g id="axes_2">
   <g id="patch_7">
    <path d="M 57.6 307.584 
L 414.72 307.584 
L 414.72 186.624 
L 57.6 186.624 
z
" style="fill: #ffffff"/>
   </g>
   <g id="matplotlib.axis_3">
    <g id="xtick_8">
     <g id="line2d_24">
      <g>
       <use xlink:href="#m475cd714ee" x="71.296364" y="307.584" style="stroke: #000000; stroke-width: 0.8"/>
      </g>
     </g>
     <g id="text_24">
      <!-- 0 -->
      <g transform="translate(68.115114 322.182437)scale(0.1 -0.1)">
       <use xlink:href="#DejaVuSans-30"/>
      </g>
     </g>
    </g>
    <g id="xtick_9">
     <g id="line2d_25">
      <g>
       <use xlink:href="#m475cd714ee" x="122.023636" y="307.584" style="stroke: #000000; stroke-width: 0.8"/>
      </g>
     </g>
     <g id="text_25">
      <!-- 20 -->
      <g transform="translate(115.661136 322.182437)scale(0.1 -0.1)">
       <use xlink:href="#DejaVuSans-32"/>
       <use xlink:href="#DejaVuSans-30" x="63.623047"/>
      </g>
     </g>
    </g>
    <g id="xtick_10">
     <g id="line2d_26">
      <g>
       <use xlink:href="#m475cd714ee" x="172.750909" y="307.584" style="stroke: #000000; stroke-width: 0.8"/>
      </g>
     </g>
     <g id="text_26">
      <!-- 40 -->
      <g transform="translate(166.388409 322.182437)scale(0.1 -0.1)">
       <use xlink:href="#DejaVuSans-34"/>
       <use xlink:href="#DejaVuSans-30" x="63.623047"/>
      </g>
     </g>
    </g>
    <g id="xtick_11">
     <g id="line2d_27">
      <g>
       <use xlink:href="#m475cd714ee" x="223.478182" y="307.584" style="stroke: #000000; stroke-width: 0.8"/>
      </g>
     </g>
     <g id="text_27">
      <!-- 60 -->
      <g transform="translate(217.115682 322.182437)scale(0.1 -0.1)">
       <use xlink:href="#DejaVuSans-36"/>
       <use xlink:href="#DejaVuSans-30" x="63.623047"/>
      </g>
     </g>
    </g>
    <g id="xtick_12">
     <g id="line2d_28">
      <g>
       <use xlink:href="#m475cd714ee" x="274.205455" y="307.584" style="stroke: #000000; stroke-width: 0.8"/>
      </g>
     </g>
     <g id="text_28">
      <!-- 80 -->
      <g transform="translate(267.842955 322.182437)scale(0.1 -0.1)">
       <use xlink:href="#DejaVuSans-38"/>
       <use xlink:href="#DejaVuSans-30" x="63.623047"/>
      </g>
     </g>
    </g>
    <g id="xtick_13">
     <g id="line2d_29">
      <g>
       <use xlink:href="#m475cd714ee" x="324.932727" y="307.584" style="stroke: #000000; stroke-width: 0.8"/>
      </g>
     </g>
     <g id="text_29">
      <!-- 100 -->
      <g transform="translate(315.388977 322.182437)scale(0.1 -0.1)">
       <use xlink:href="#DejaVuSans-31"/>
       <use xlink:href="#DejaVuSans-30" x="63.623047"/>
       <use xlink:href="#DejaVuSans-30" x="127.246094"/>
      </g>
     </g>
    </g>
    <g id="xtick_14">
     <g id="line2d_30">
      <g>
       <use xlink:href="#m475cd714ee" x="375.66" y="307.584" style="stroke: #000000; stroke-width: 0.8"/>
      </g>
     </g>
     <g id="text_30">
      <!-- 120 -->
      <g transform="translate(366.11625 322.182437)scale(0.1 -0.1)">
       <use xlink:href="#DejaVuSans-31"/>
       <use xlink:href="#DejaVuSans-32" x="63.623047"/>
       <use xlink:href="#DejaVuSans-30" x="127.246094"/>
      </g>
     </g>
    </g>
   </g>
   <g id="matplotlib.axis_4">
    <g id="ytick_5">
     <g id="line2d_31">
      <g>
       <use xlink:href="#m90c767eb2a" x="57.6" y="302.095565" style="stroke: #000000; stroke-width: 0.8"/>
      </g>
     </g>
     <g id="text_31">
      <!-- 0 -->
      <g transform="translate(44.2375 305.894784)scale(0.1 -0.1)">
       <use xlink:href="#DejaVuSans-30"/>
      </g>
     </g>
    </g>
    <g id="ytick_6">
     <g id="line2d_32">
      <g>
       <use xlink:href="#m90c767eb2a" x="57.6" y="277.728512" style="stroke: #000000; stroke-width: 0.8"/>
      </g>
     </g>
     <g id="text_32">
      <!-- 2500 -->
      <g transform="translate(25.15 281.527731)scale(0.1 -0.1)">
       <use xlink:href="#DejaVuSans-32"/>
       <use xlink:href="#DejaVuSans-35" x="63.623047"/>
       <use xlink:href="#DejaVuSans-30" x="127.246094"/>
       <use xlink:href="#DejaVuSans-30" x="190.869141"/>
      </g>
     </g>
    </g>
    <g id="ytick_7">
     <g id="line2d_33">
      <g>
       <use xlink:href="#m90c767eb2a" x="57.6" y="253.361459" style="stroke: #000000; stroke-width: 0.8"/>
      </g>
     </g>
     <g id="text_33">
      <!-- 5000 -->
      <g transform="translate(25.15 257.160678)scale(0.1 -0.1)">
       <use xlink:href="#DejaVuSans-35"/>
       <use xlink:href="#DejaVuSans-30" x="63.623047"/>
       <use xlink:href="#DejaVuSans-30" x="127.246094"/>
       <use xlink:href="#DejaVuSans-30" x="190.869141"/>
      </g>
     </g>
    </g>
    <g id="ytick_8">
     <g id="line2d_34">
      <g>
       <use xlink:href="#m90c767eb2a" x="57.6" y="228.994406" style="stroke: #000000; stroke-width: 0.8"/>
      </g>
     </g>
     <g id="text_34">
      <!-- 7500 -->
      <g transform="translate(25.15 232.793625)scale(0.1 -0.1)">
       <use xlink:href="#DejaVuSans-37"/>
       <use xlink:href="#DejaVuSans-35" x="63.623047"/>
       <use xlink:href="#DejaVuSans-30" x="127.246094"/>
       <use xlink:href="#DejaVuSans-30" x="190.869141"/>
      </g>
     </g>
    </g>
    <g id="ytick_9">
     <g id="line2d_35">
      <g>
       <use xlink:href="#m90c767eb2a" x="57.6" y="204.627353" style="stroke: #000000; stroke-width: 0.8"/>
      </g>
     </g>
     <g id="text_35">
      <!-- 10000 -->
      <g transform="translate(18.7875 208.426572)scale(0.1 -0.1)">
       <use xlink:href="#DejaVuSans-31"/>
       <use xlink:href="#DejaVuSans-30" x="63.623047"/>
       <use xlink:href="#DejaVuSans-30" x="127.246094"/>
       <use xlink:href="#DejaVuSans-30" x="190.869141"/>
       <use xlink:href="#DejaVuSans-30" x="254.492188"/>
      </g>
     </g>
    </g>
   </g>
   <g id="line2d_36">
    <path d="M 73.832727 302.085818 
L 193.041818 301.98835 
L 203.187273 301.95911 
L 210.796364 302.066325 
L 213.332727 302.007844 
L 215.869091 302.085818 
L 223.478182 301.939616 
L 226.014545 301.530249 
L 228.550909 301.968856 
L 233.623636 302.037084 
L 236.16 301.851894 
L 238.696364 301.306072 
L 241.232727 302.076071 
L 243.769091 302.066325 
L 246.305455 301.881135 
L 253.914545 301.890882 
L 256.450909 301.637464 
L 258.987273 301.695945 
L 261.523636 301.95911 
L 264.06 301.822654 
L 266.596364 300.779744 
L 269.132727 302.085818 
L 271.669091 301.910375 
L 274.205455 302.007844 
L 276.741818 301.939616 
L 279.278182 302.037084 
L 281.814545 300.11696 
L 284.350909 299.629619 
L 286.887273 301.617971 
L 289.423636 300.799238 
L 291.96 300.682276 
L 294.496364 299.463923 
L 297.032727 302.027337 
L 299.569091 301.58873 
L 302.105455 302.027337 
L 304.641818 300.575061 
L 307.178182 301.598477 
L 309.714545 301.890882 
L 312.250909 301.539996 
L 314.787273 301.715439 
L 317.323636 300.575061 
L 319.86 301.80316 
L 322.396364 300.760251 
L 324.932727 301.072149 
L 327.469091 293.937476 
L 330.005455 296.832282 
L 332.541818 301.920122 
L 335.078182 293.654818 
L 337.614545 301.218351 
L 340.150909 295.009626 
L 342.687273 297.97266 
L 345.223636 300.253416 
L 347.76 298.079875 
L 350.296364 302.01759 
L 352.832727 300.682276 
L 355.369091 299.200759 
L 357.905455 279.307497 
L 360.441818 192.122182 
L 362.978182 281.968379 
L 365.514545 299.853796 
L 368.050909 276.666109 
L 370.587273 206.001655 
L 373.123636 292.592414 
L 375.66 300.292403 
L 378.196364 283.722807 
L 380.732727 283.060023 
L 383.269091 283.605845 
L 385.805455 300.194935 
L 388.341818 262.455243 
L 390.878182 273.420417 
L 393.414545 300.633542 
L 395.950909 228.624027 
L 398.487273 282.377746 
L 398.487273 282.377746 
" clip-path="url(#pb59826745e)" style="fill: none; stroke: #1f77b4; stroke-width: 1.5; stroke-linecap: square"/>
   </g>
   <g id="patch_8">
    <path d="M 57.6 307.584 
L 57.6 186.624 
" style="fill: none; stroke: #000000; stroke-width: 0.8; stroke-linejoin: miter; stroke-linecap: square"/>
   </g>
   <g id="patch_9">
    <path d="M 414.72 307.584 
L 414.72 186.624 
" style="fill: none; stroke: #000000; stroke-width: 0.8; stroke-linejoin: miter; stroke-linecap: square"/>
   </g>
   <g id="patch_10">
    <path d="M 57.6 307.584 
L 414.72 307.584 
" style="fill: none; stroke: #000000; stroke-width: 0.8; stroke-linejoin: miter; stroke-linecap: square"/>
   </g>
   <g id="patch_11">
    <path d="M 57.6 186.624 
L 414.72 186.624 
" style="fill: none; stroke: #000000; stroke-width: 0.8; stroke-linejoin: miter; stroke-linecap: square"/>
   </g>
  </g>
 </g>
 <defs>
  <clipPath id="p13f3c704ae">
   <rect x="57.6" y="41.472" width="357.12" height="120.96"/>
  </clipPath>
  <clipPath id="pb59826745e">
   <rect x="57.6" y="186.624" width="357.12" height="120.96"/>
  </clipPath>
 </defs>
</svg>
