<?xml version="1.0" encoding="utf-8" standalone="no"?>
<!DOCTYPE svg PUBLIC "-//W3C//DTD SVG 1.1//EN"
  "http://www.w3.org/Graphics/SVG/1.1/DTD/svg11.dtd">
<svg xmlns:xlink="http://www.w3.org/1999/xlink" width="460.8pt" height="345.6pt" viewBox="0 0 460.8 345.6" xmlns="http://www.w3.org/2000/svg" version="1.1">
 <metadata>
  <rdf:RDF xmlns:dc="http://purl.org/dc/elements/1.1/" xmlns:cc="http://creativecommons.org/ns#" xmlns:rdf="http://www.w3.org/1999/02/22-rdf-syntax-ns#">
   <cc:Work>
    <dc:type rdf:resource="http://purl.org/dc/dcmitype/StillImage"/>
    <dc:date>2022-05-13T14:21:06.106795</dc:date>
    <dc:format>image/svg+xml</dc:format>
    <dc:creator>
     <cc:Agent>
      <dc:title>Matplotlib v3.5.1, https://matplotlib.org/</dc:title>
     </cc:Agent>
    </dc:creator>
   </cc:Work>
  </rdf:RDF>
 </metadata>
 <defs>
  <style type="text/css">*{stroke-linejoin: round; stroke-linecap: butt}</style>
 </defs>
 <g id="figure_1">
  <g id="patch_1">
   <path d="M 0 345.6 
L 460.8 345.6 
L 460.8 0 
L 0 0 
z
" style="fill: #ffffff"/>
  </g>
  <g id="axes_1">
   <g id="patch_2">
    <path d="M 57.6 162.432 
L 414.72 162.432 
L 414.72 41.472 
L 57.6 41.472 
z
" style="fill: #ffffff"/>
   </g>
   <g id="matplotlib.axis_1">
    <g id="xtick_1">
     <g id="line2d_1">
      <defs>
       <path id="m1914880251" d="M 0 0 
L 0 3.5 
" style="stroke: #000000; stroke-width: 0.8"/>
      </defs>
      <g>
       <use xlink:href="#m1914880251" x="73.827491" y="162.432" style="stroke: #000000; stroke-width: 0.8"/>
      </g>
     </g>
     <g id="text_1">
      <!-- 0 -->
      <g transform="translate(70.646241 177.030437)scale(0.1 -0.1)">
       <defs>
        <path id="DejaVuSans-30" d="M 2034 4250 
Q 1547 4250 1301 3770 
Q 1056 3291 1056 2328 
Q 1056 1369 1301 889 
Q 1547 409 2034 409 
Q 2525 409 2770 889 
Q 3016 1369 3016 2328 
Q 3016 3291 2770 3770 
Q 2525 4250 2034 4250 
z
M 2034 4750 
Q 2819 4750 3233 4129 
Q 3647 3509 3647 2328 
Q 3647 1150 3233 529 
Q 2819 -91 2034 -91 
Q 1250 -91 836 529 
Q 422 1150 422 2328 
Q 422 3509 836 4129 
Q 1250 4750 2034 4750 
z
" transform="scale(0.015625)"/>
       </defs>
       <use xlink:href="#DejaVuSans-30"/>
      </g>
     </g>
    </g>
    <g id="xtick_2">
     <g id="line2d_2">
      <g>
       <use xlink:href="#m1914880251" x="126.191972" y="162.432" style="stroke: #000000; stroke-width: 0.8"/>
      </g>
     </g>
     <g id="text_2">
      <!-- 10000 -->
      <g transform="translate(110.285722 177.030437)scale(0.1 -0.1)">
       <defs>
        <path id="DejaVuSans-31" d="M 794 531 
L 1825 531 
L 1825 4091 
L 703 3866 
L 703 4441 
L 1819 4666 
L 2450 4666 
L 2450 531 
L 3481 531 
L 3481 0 
L 794 0 
L 794 531 
z
" transform="scale(0.015625)"/>
       </defs>
       <use xlink:href="#DejaVuSans-31"/>
       <use xlink:href="#DejaVuSans-30" x="63.623047"/>
       <use xlink:href="#DejaVuSans-30" x="127.246094"/>
       <use xlink:href="#DejaVuSans-30" x="190.869141"/>
       <use xlink:href="#DejaVuSans-30" x="254.492188"/>
      </g>
     </g>
    </g>
    <g id="xtick_3">
     <g id="line2d_3">
      <g>
       <use xlink:href="#m1914880251" x="178.556453" y="162.432" style="stroke: #000000; stroke-width: 0.8"/>
      </g>
     </g>
     <g id="text_3">
      <!-- 20000 -->
      <g transform="translate(162.650203 177.030437)scale(0.1 -0.1)">
       <defs>
        <path id="DejaVuSans-32" d="M 1228 531 
L 3431 531 
L 3431 0 
L 469 0 
L 469 531 
Q 828 903 1448 1529 
Q 2069 2156 2228 2338 
Q 2531 2678 2651 2914 
Q 2772 3150 2772 3378 
Q 2772 3750 2511 3984 
Q 2250 4219 1831 4219 
Q 1534 4219 1204 4116 
Q 875 4013 500 3803 
L 500 4441 
Q 881 4594 1212 4672 
Q 1544 4750 1819 4750 
Q 2544 4750 2975 4387 
Q 3406 4025 3406 3419 
Q 3406 3131 3298 2873 
Q 3191 2616 2906 2266 
Q 2828 2175 2409 1742 
Q 1991 1309 1228 531 
z
" transform="scale(0.015625)"/>
       </defs>
       <use xlink:href="#DejaVuSans-32"/>
       <use xlink:href="#DejaVuSans-30" x="63.623047"/>
       <use xlink:href="#DejaVuSans-30" x="127.246094"/>
       <use xlink:href="#DejaVuSans-30" x="190.869141"/>
       <use xlink:href="#DejaVuSans-30" x="254.492188"/>
      </g>
     </g>
    </g>
    <g id="xtick_4">
     <g id="line2d_4">
      <g>
       <use xlink:href="#m1914880251" x="230.920934" y="162.432" style="stroke: #000000; stroke-width: 0.8"/>
      </g>
     </g>
     <g id="text_4">
      <!-- 30000 -->
      <g transform="translate(215.014684 177.030437)scale(0.1 -0.1)">
       <defs>
        <path id="DejaVuSans-33" d="M 2597 2516 
Q 3050 2419 3304 2112 
Q 3559 1806 3559 1356 
Q 3559 666 3084 287 
Q 2609 -91 1734 -91 
Q 1441 -91 1130 -33 
Q 819 25 488 141 
L 488 750 
Q 750 597 1062 519 
Q 1375 441 1716 441 
Q 2309 441 2620 675 
Q 2931 909 2931 1356 
Q 2931 1769 2642 2001 
Q 2353 2234 1838 2234 
L 1294 2234 
L 1294 2753 
L 1863 2753 
Q 2328 2753 2575 2939 
Q 2822 3125 2822 3475 
Q 2822 3834 2567 4026 
Q 2313 4219 1838 4219 
Q 1578 4219 1281 4162 
Q 984 4106 628 3988 
L 628 4550 
Q 988 4650 1302 4700 
Q 1616 4750 1894 4750 
Q 2613 4750 3031 4423 
Q 3450 4097 3450 3541 
Q 3450 3153 3228 2886 
Q 3006 2619 2597 2516 
z
" transform="scale(0.015625)"/>
       </defs>
       <use xlink:href="#DejaVuSans-33"/>
       <use xlink:href="#DejaVuSans-30" x="63.623047"/>
       <use xlink:href="#DejaVuSans-30" x="127.246094"/>
       <use xlink:href="#DejaVuSans-30" x="190.869141"/>
       <use xlink:href="#DejaVuSans-30" x="254.492188"/>
      </g>
     </g>
    </g>
    <g id="xtick_5">
     <g id="line2d_5">
      <g>
       <use xlink:href="#m1914880251" x="283.285415" y="162.432" style="stroke: #000000; stroke-width: 0.8"/>
      </g>
     </g>
     <g id="text_5">
      <!-- 40000 -->
      <g transform="translate(267.379165 177.030437)scale(0.1 -0.1)">
       <defs>
        <path id="DejaVuSans-34" d="M 2419 4116 
L 825 1625 
L 2419 1625 
L 2419 4116 
z
M 2253 4666 
L 3047 4666 
L 3047 1625 
L 3713 1625 
L 3713 1100 
L 3047 1100 
L 3047 0 
L 2419 0 
L 2419 1100 
L 313 1100 
L 313 1709 
L 2253 4666 
z
" transform="scale(0.015625)"/>
       </defs>
       <use xlink:href="#DejaVuSans-34"/>
       <use xlink:href="#DejaVuSans-30" x="63.623047"/>
       <use xlink:href="#DejaVuSans-30" x="127.246094"/>
       <use xlink:href="#DejaVuSans-30" x="190.869141"/>
       <use xlink:href="#DejaVuSans-30" x="254.492188"/>
      </g>
     </g>
    </g>
    <g id="xtick_6">
     <g id="line2d_6">
      <g>
       <use xlink:href="#m1914880251" x="335.649896" y="162.432" style="stroke: #000000; stroke-width: 0.8"/>
      </g>
     </g>
     <g id="text_6">
      <!-- 50000 -->
      <g transform="translate(319.743646 177.030437)scale(0.1 -0.1)">
       <defs>
        <path id="DejaVuSans-35" d="M 691 4666 
L 3169 4666 
L 3169 4134 
L 1269 4134 
L 1269 2991 
Q 1406 3038 1543 3061 
Q 1681 3084 1819 3084 
Q 2600 3084 3056 2656 
Q 3513 2228 3513 1497 
Q 3513 744 3044 326 
Q 2575 -91 1722 -91 
Q 1428 -91 1123 -41 
Q 819 9 494 109 
L 494 744 
Q 775 591 1075 516 
Q 1375 441 1709 441 
Q 2250 441 2565 725 
Q 2881 1009 2881 1497 
Q 2881 1984 2565 2268 
Q 2250 2553 1709 2553 
Q 1456 2553 1204 2497 
Q 953 2441 691 2322 
L 691 4666 
z
" transform="scale(0.015625)"/>
       </defs>
       <use xlink:href="#DejaVuSans-35"/>
       <use xlink:href="#DejaVuSans-30" x="63.623047"/>
       <use xlink:href="#DejaVuSans-30" x="127.246094"/>
       <use xlink:href="#DejaVuSans-30" x="190.869141"/>
       <use xlink:href="#DejaVuSans-30" x="254.492188"/>
      </g>
     </g>
    </g>
    <g id="xtick_7">
     <g id="line2d_7">
      <g>
       <use xlink:href="#m1914880251" x="388.014377" y="162.432" style="stroke: #000000; stroke-width: 0.8"/>
      </g>
     </g>
     <g id="text_7">
      <!-- 60000 -->
      <g transform="translate(372.108127 177.030437)scale(0.1 -0.1)">
       <defs>
        <path id="DejaVuSans-36" d="M 2113 2584 
Q 1688 2584 1439 2293 
Q 1191 2003 1191 1497 
Q 1191 994 1439 701 
Q 1688 409 2113 409 
Q 2538 409 2786 701 
Q 3034 994 3034 1497 
Q 3034 2003 2786 2293 
Q 2538 2584 2113 2584 
z
M 3366 4563 
L 3366 3988 
Q 3128 4100 2886 4159 
Q 2644 4219 2406 4219 
Q 1781 4219 1451 3797 
Q 1122 3375 1075 2522 
Q 1259 2794 1537 2939 
Q 1816 3084 2150 3084 
Q 2853 3084 3261 2657 
Q 3669 2231 3669 1497 
Q 3669 778 3244 343 
Q 2819 -91 2113 -91 
Q 1303 -91 875 529 
Q 447 1150 447 2328 
Q 447 3434 972 4092 
Q 1497 4750 2381 4750 
Q 2619 4750 2861 4703 
Q 3103 4656 3366 4563 
z
" transform="scale(0.015625)"/>
       </defs>
       <use xlink:href="#DejaVuSans-36"/>
       <use xlink:href="#DejaVuSans-30" x="63.623047"/>
       <use xlink:href="#DejaVuSans-30" x="127.246094"/>
       <use xlink:href="#DejaVuSans-30" x="190.869141"/>
       <use xlink:href="#DejaVuSans-30" x="254.492188"/>
      </g>
     </g>
    </g>
   </g>
   <g id="matplotlib.axis_2">
    <g id="ytick_1">
     <g id="line2d_8">
      <defs>
       <path id="m2eca38922e" d="M 0 0 
L -3.5 0 
" style="stroke: #000000; stroke-width: 0.8"/>
      </defs>
      <g>
       <use xlink:href="#m2eca38922e" x="57.6" y="142.244754" style="stroke: #000000; stroke-width: 0.8"/>
      </g>
     </g>
     <g id="text_8">
      <!-- 40 -->
      <g transform="translate(37.875 146.043972)scale(0.1 -0.1)">
       <use xlink:href="#DejaVuSans-34"/>
       <use xlink:href="#DejaVuSans-30" x="63.623047"/>
      </g>
     </g>
    </g>
    <g id="ytick_2">
     <g id="line2d_9">
      <g>
       <use xlink:href="#m2eca38922e" x="57.6" y="113.395527" style="stroke: #000000; stroke-width: 0.8"/>
      </g>
     </g>
     <g id="text_9">
      <!-- 60 -->
      <g transform="translate(37.875 117.194745)scale(0.1 -0.1)">
       <use xlink:href="#DejaVuSans-36"/>
       <use xlink:href="#DejaVuSans-30" x="63.623047"/>
      </g>
     </g>
    </g>
    <g id="ytick_3">
     <g id="line2d_10">
      <g>
       <use xlink:href="#m2eca38922e" x="57.6" y="84.5463" style="stroke: #000000; stroke-width: 0.8"/>
      </g>
     </g>
     <g id="text_10">
      <!-- 80 -->
      <g transform="translate(37.875 88.345519)scale(0.1 -0.1)">
       <defs>
        <path id="DejaVuSans-38" d="M 2034 2216 
Q 1584 2216 1326 1975 
Q 1069 1734 1069 1313 
Q 1069 891 1326 650 
Q 1584 409 2034 409 
Q 2484 409 2743 651 
Q 3003 894 3003 1313 
Q 3003 1734 2745 1975 
Q 2488 2216 2034 2216 
z
M 1403 2484 
Q 997 2584 770 2862 
Q 544 3141 544 3541 
Q 544 4100 942 4425 
Q 1341 4750 2034 4750 
Q 2731 4750 3128 4425 
Q 3525 4100 3525 3541 
Q 3525 3141 3298 2862 
Q 3072 2584 2669 2484 
Q 3125 2378 3379 2068 
Q 3634 1759 3634 1313 
Q 3634 634 3220 271 
Q 2806 -91 2034 -91 
Q 1263 -91 848 271 
Q 434 634 434 1313 
Q 434 1759 690 2068 
Q 947 2378 1403 2484 
z
M 1172 3481 
Q 1172 3119 1398 2916 
Q 1625 2713 2034 2713 
Q 2441 2713 2670 2916 
Q 2900 3119 2900 3481 
Q 2900 3844 2670 4047 
Q 2441 4250 2034 4250 
Q 1625 4250 1398 4047 
Q 1172 3844 1172 3481 
z
" transform="scale(0.015625)"/>
       </defs>
       <use xlink:href="#DejaVuSans-38"/>
       <use xlink:href="#DejaVuSans-30" x="63.623047"/>
      </g>
     </g>
    </g>
    <g id="ytick_4">
     <g id="line2d_11">
      <g>
       <use xlink:href="#m2eca38922e" x="57.6" y="55.697073" style="stroke: #000000; stroke-width: 0.8"/>
      </g>
     </g>
     <g id="text_11">
      <!-- 100 -->
      <g transform="translate(31.5125 59.496292)scale(0.1 -0.1)">
       <use xlink:href="#DejaVuSans-31"/>
       <use xlink:href="#DejaVuSans-30" x="63.623047"/>
       <use xlink:href="#DejaVuSans-30" x="127.246094"/>
      </g>
     </g>
    </g>
   </g>
   <g id="line2d_12">
    <path d="M 73.832727 55.216252 
L 73.848437 55.216252 
L 73.93222 53.773791 
L 73.947929 56.658714 
L 73.953166 55.937483 
L 73.984584 55.937483 
L 74.120732 63.101708 
L 74.146914 63.101708 
L 74.267352 66.347246 
L 74.288298 66.347246 
L 74.429682 64.255677 
L 74.445392 64.255677 
L 74.555357 67.1406 
L 74.560594 66.779984 
L 74.586776 66.779984 
L 74.681032 68.222446 
L 74.696741 67.501215 
L 74.738633 67.501215 
L 74.859071 66.659779 
L 74.900963 66.659779 
L 74.958564 65.938548 
L 74.9638 67.38101 
L 75.000455 67.020394 
L 75.115657 69.905317 
L 75.131366 69.544702 
L 75.162785 72.429625 
L 75.188967 72.429625 
L 75.194204 72.429625 
L 75.309406 72.069009 
L 75.440317 72.069009 
L 75.492681 71.347779 
L 75.497918 72.79024 
L 75.539809 72.79024 
L 75.665484 72.79024 
L 75.780686 72.429625 
L 75.874942 72.429625 
L 75.890651 72.069009 
L 75.895888 73.511471 
L 75.969198 73.511471 
L 76.162947 73.511471 
L 76.17342 74.953932 
L 76.272912 73.872086 
L 76.461424 73.872086 
L 76.581863 73.150855 
L 76.634227 73.150855 
L 76.702301 74.593317 
L 76.744192 74.232701 
L 77.037434 74.232701 
L 77.152635 73.872086 
L 77.325438 73.872086 
L 77.35162 73.511471 
L 77.356857 74.953932 
L 77.424931 74.593317 
L 77.456349 74.593317 
L 77.571551 73.872086 
L 77.576788 73.872086 
L 77.69199 73.511471 
L 77.697226 73.511471 
L 77.817664 76.396393 
L 77.843847 76.396393 
L 77.959048 77.838855 
L 78.116142 77.838855 
L 78.121378 79.281316 
L 78.226107 78.920701 
L 78.508875 78.920701 
L 78.63455 77.838855 
L 78.760225 77.838855 
L 78.854481 77.478239 
L 78.969683 78.920701 
L 79.236742 78.920701 
L 79.362416 77.718649 
L 79.399072 77.718649 
L 79.51951 80.603572 
L 79.66613 80.603572 
L 79.781332 79.882341 
L 79.996027 79.882341 
L 80.111229 81.324803 
L 80.263086 81.324803 
L 80.310214 82.767264 
L 80.373051 82.406649 
L 80.844331 82.406649 
L 80.959533 83.84911 
L 82.561886 83.84911 
L 82.677088 85.291571 
L 83.038403 85.291571 
L 83.153605 84.930956 
L 83.4259 84.930956 
L 83.541102 84.570341 
L 83.572521 84.570341 
L 83.687723 86.012802 
L 83.996673 86.012802 
L 84.111875 87.455264 
L 84.855451 87.455264 
L 84.970652 86.445541 
L 85.745647 86.445541 
L 85.75612 86.084925 
L 85.761356 87.527387 
L 85.839903 87.527387 
L 86.415912 87.527387 
L 86.531114 88.969848 
L 86.583478 88.969848 
L 86.599188 88.681356 
L 86.604424 90.123817 
L 86.672498 90.123817 
L 86.7877 90.123817 
L 86.902902 89.763202 
L 86.965739 89.763202 
L 87.080941 91.205663 
L 87.803571 91.205663 
L 87.918773 90.845048 
L 88.248669 90.845048 
L 88.363871 90.484432 
L 90.128554 90.484432 
L 90.243756 91.926894 
L 90.919257 91.926894 
L 91.034459 93.369355 
L 91.846109 93.369355 
L 91.961311 93.00874 
L 92.254552 93.00874 
L 92.369754 92.648124 
L 94.919904 92.648124 
L 95.035106 92.287509 
L 97.428162 92.287509 
L 97.543364 91.926894 
L 97.904679 91.926894 
L 98.019881 91.566278 
L 98.972915 91.566278 
L 99.093353 90.845048 
L 99.915475 90.845048 
L 100.030677 92.287509 
L 100.76378 92.287509 
L 100.878982 93.72997 
L 104.727771 93.72997 
L 104.753953 93.369355 
L 104.75919 94.811816 
L 104.822027 94.811816 
L 108.299029 94.811816 
L 108.41423 96.254278 
L 108.749363 96.254278 
L 108.864565 95.893662 
L 111.535154 95.893662 
L 111.650355 95.533047 
L 111.744611 95.533047 
L 111.859813 95.172432 
L 120.16482 95.172432 
L 120.280022 94.811816 
L 121.369203 94.811816 
L 121.484405 96.254278 
L 121.68339 96.254278 
L 121.798592 95.893662 
L 132.156286 95.893662 
L 132.271488 95.533047 
L 134.800692 95.533047 
L 134.915894 95.172432 
L 141.55571 95.172432 
L 141.57142 94.811816 
L 141.576656 96.254278 
L 141.649967 96.254278 
L 145.954327 96.254278 
L 146.069529 97.696739 
L 154.039403 97.696739 
L 154.154605 99.1392 
L 158.841226 99.1392 
L 158.956428 98.778585 
L 168.533891 98.778585 
L 168.649093 98.41797 
L 189.066004 98.41797 
L 189.181206 98.057354 
L 190.809741 98.057354 
L 190.924943 99.499816 
L 196.208519 99.499816 
L 196.323721 100.942277 
L 201.717263 100.942277 
L 201.832465 100.581662 
L 213.75062 100.581662 
L 213.865822 100.221046 
L 214.551797 100.221046 
L 214.666999 99.860431 
L 216.002293 99.860431 
L 216.117495 101.302892 
L 232.360957 101.302892 
L 232.476159 102.745354 
L 237.246563 102.745354 
L 237.361765 102.384738 
L 249.269448 102.384738 
L 249.38465 102.024123 
L 250.966057 102.024123 
L 251.081259 103.466584 
L 252.128548 103.466584 
L 252.24375 103.105969 
L 259.302482 103.105969 
L 259.417684 104.54843 
L 288.380479 104.54843 
L 288.49568 104.187815 
L 292.10883 104.187815 
L 292.224032 103.8272 
L 292.423017 103.8272 
L 292.538218 105.269661 
L 305.294206 105.269661 
L 305.409408 104.909046 
L 318.097322 104.909046 
L 318.212523 106.351507 
L 398.487273 106.351507 
L 398.487273 106.351507 
" clip-path="url(#pe38bd9dd7f)" style="fill: none; stroke: #1f77b4; stroke-width: 1.5; stroke-linecap: square"/>
   </g>
   <g id="line2d_13">
    <path d="M 73.832727 57.139534 
L 73.853673 57.139534 
L 74.000294 68.198405 
L 74.00553 68.198405 
L 74.010767 67.717584 
L 74.047422 71.275655 
L 74.073604 70.554425 
L 74.199279 75.603039 
L 74.214988 75.603039 
L 74.24117 75.242424 
L 74.246407 76.684885 
L 74.319717 75.603039 
L 74.450628 82.094116 
L 74.461101 82.094116 
L 74.47681 83.536577 
L 74.571066 82.695141 
L 74.586776 82.695141 
L 74.681032 84.137602 
L 74.696741 83.416372 
L 74.717687 83.416372 
L 74.832889 85.940679 
L 74.958564 85.940679 
L 75.079002 89.907448 
L 75.115657 89.907448 
L 75.120894 89.546832 
L 75.162785 93.874216 
L 75.168022 93.874216 
L 75.194204 93.874216 
L 75.309406 93.513601 
L 75.440317 93.513601 
L 75.492681 92.79237 
L 75.497918 94.234832 
L 75.539809 94.234832 
L 75.665484 94.234832 
L 75.780686 93.874216 
L 75.874942 93.874216 
L 75.890651 93.513601 
L 75.895888 94.956062 
L 75.969198 94.956062 
L 76.162947 94.956062 
L 76.278149 96.759139 
L 76.461424 96.759139 
L 76.581863 96.037908 
L 76.634227 96.037908 
L 76.702301 97.48037 
L 76.744192 97.119755 
L 76.885577 97.119755 
L 77.000778 98.562216 
L 77.037434 98.562216 
L 77.152635 98.201601 
L 77.288783 98.201601 
L 77.35162 97.360165 
L 77.356857 98.802626 
L 77.388276 98.802626 
L 77.393512 98.802626 
L 77.519187 97.72078 
L 77.534896 97.72078 
L 77.655334 101.687549 
L 77.697226 101.687549 
L 77.822901 106.014933 
L 77.843847 106.014933 
L 77.959048 107.457394 
L 78.116142 107.457394 
L 78.121378 108.899855 
L 78.226107 108.53924 
L 78.508875 108.53924 
L 78.63455 107.457394 
L 78.760225 107.457394 
L 78.854481 107.096779 
L 78.969683 108.53924 
L 79.236742 108.53924 
L 79.362416 107.337189 
L 79.399072 107.337189 
L 79.51951 110.222112 
L 79.66613 110.222112 
L 79.744677 108.05842 
L 79.781332 109.500881 
L 79.996027 109.500881 
L 80.111229 110.943342 
L 80.263086 110.943342 
L 80.278795 112.385804 
L 80.31545 110.582727 
L 80.367814 110.582727 
L 80.844331 110.582727 
L 80.959533 112.025188 
L 81.106154 112.025188 
L 81.221356 111.544368 
L 82.561886 111.544368 
L 82.677088 112.986829 
L 83.038403 112.986829 
L 83.153605 112.626214 
L 83.384009 112.626214 
L 83.4259 114.068675 
L 83.493974 113.70806 
L 83.572521 113.70806 
L 83.687723 115.150521 
L 83.996673 115.150521 
L 84.111875 116.592983 
L 84.855451 116.592983 
L 84.970652 115.871752 
L 85.745647 115.871752 
L 85.75612 115.511137 
L 85.761356 116.953598 
L 85.839903 116.953598 
L 86.30071 116.953598 
L 86.358311 116.472778 
L 86.363548 117.915239 
L 86.400203 117.915239 
L 86.415912 117.915239 
L 86.531114 119.3577 
L 86.583478 119.3577 
L 86.599188 119.069208 
L 86.604424 120.511669 
L 86.677734 120.030849 
L 86.7877 120.030849 
L 86.902902 119.670233 
L 86.965739 119.670233 
L 87.080941 121.112695 
L 87.803571 121.112695 
L 87.918773 120.75208 
L 88.248669 120.75208 
L 88.363871 120.391464 
L 88.416235 120.391464 
L 88.531437 121.833926 
L 88.767077 121.833926 
L 88.882279 123.276387 
L 90.128554 123.276387 
L 90.243756 124.718848 
L 90.919257 124.718848 
L 91.034459 126.16131 
L 91.846109 126.16131 
L 91.961311 125.800694 
L 92.254552 125.800694 
L 92.369754 125.440079 
L 94.919904 125.440079 
L 95.035106 125.079464 
L 97.428162 125.079464 
L 97.543364 124.718848 
L 97.826132 124.718848 
L 97.904679 126.16131 
L 97.936098 125.800694 
L 98.972915 125.800694 
L 99.093353 125.079464 
L 99.166663 125.079464 
L 99.287101 127.964386 
L 99.915475 127.964386 
L 100.030677 129.406848 
L 100.76378 129.406848 
L 100.878982 130.849309 
L 104.727771 130.849309 
L 104.753953 130.488694 
L 104.75919 131.931155 
L 104.822027 131.931155 
L 108.299029 131.931155 
L 108.41423 133.373616 
L 108.749363 133.373616 
L 108.864565 133.013001 
L 111.535154 133.013001 
L 111.650355 132.652386 
L 111.744611 132.652386 
L 111.859813 132.29177 
L 119.829687 132.29177 
L 119.944889 133.734232 
L 120.16482 133.734232 
L 120.280022 133.373616 
L 121.369203 133.373616 
L 121.484405 134.816078 
L 121.68339 134.816078 
L 121.798592 134.455462 
L 125.223229 134.455462 
L 125.338431 135.897924 
L 132.156286 135.897924 
L 132.271488 135.537308 
L 134.800692 135.537308 
L 134.915894 135.176693 
L 136.696287 135.176693 
L 136.811489 136.619154 
L 141.55571 136.619154 
L 141.57142 136.258539 
L 141.576656 137.701 
L 141.649967 137.701 
L 145.954327 137.701 
L 146.069529 139.143462 
L 154.039403 139.143462 
L 154.159841 142.028384 
L 158.841226 142.028384 
L 158.956428 141.667769 
L 168.533891 141.667769 
L 168.649093 141.307154 
L 188.233409 141.307154 
L 188.348611 139.864692 
L 189.066004 139.864692 
L 189.181206 139.504077 
L 190.809741 139.504077 
L 190.924943 140.946538 
L 193.684551 140.946538 
L 193.799753 142.389 
L 196.208519 142.389 
L 196.323721 143.831461 
L 201.717263 143.831461 
L 201.832465 143.470846 
L 205.314702 143.470846 
L 205.429904 142.990025 
L 206.791381 142.990025 
L 206.906583 144.432487 
L 211.043377 144.432487 
L 211.158579 145.874948 
L 213.75062 145.874948 
L 213.865822 145.514333 
L 214.551797 145.514333 
L 214.666999 145.153717 
L 216.002293 145.153717 
L 216.117495 146.596179 
L 232.360957 146.596179 
L 232.476159 148.03864 
L 237.246563 148.03864 
L 237.361765 147.678025 
L 238.958882 147.678025 
L 239.074083 146.235563 
L 249.269448 146.235563 
L 249.38465 145.874948 
L 250.966057 145.874948 
L 251.081259 147.317409 
L 252.128548 147.317409 
L 252.24375 146.956794 
L 257.155539 146.956794 
L 257.27074 148.399255 
L 259.302482 148.399255 
L 259.417684 149.841717 
L 284.599763 149.841717 
L 284.714965 149.360896 
L 286.605323 149.360896 
L 286.720525 150.803357 
L 288.380479 150.803357 
L 288.49568 150.442742 
L 292.10883 150.442742 
L 292.224032 150.082127 
L 292.423017 150.082127 
L 292.538218 151.524588 
L 298.49206 151.524588 
L 298.607262 152.967049 
L 305.294206 152.967049 
L 305.409408 152.606434 
L 306.577136 152.606434 
L 306.692338 154.048895 
L 308.661242 154.048895 
L 308.776444 155.491357 
L 318.097322 155.491357 
L 318.212523 156.933818 
L 398.487273 156.933818 
L 398.487273 156.933818 
" clip-path="url(#pe38bd9dd7f)" style="fill: none; stroke: #ff7f0e; stroke-width: 1.5; stroke-linecap: square"/>
   </g>
   <g id="line2d_14">
    <path d="M 73.832727 55.216252 
L 73.837964 55.216252 
L 73.869382 56.658714 
L 73.947929 55.336458 
L 73.953166 55.336458 
L 74.07884 53.124684 
L 74.377318 53.124684 
L 74.49252 52.836191 
L 84.965416 52.836191 
L 85.080618 52.547699 
L 86.583478 52.547699 
L 86.69868 52.259207 
L 274.739531 52.259207 
L 274.854733 51.898591 
L 398.487273 51.898591 
L 398.487273 51.898591 
" clip-path="url(#pe38bd9dd7f)" style="fill: none; stroke: #2ca02c; stroke-width: 1.5; stroke-linecap: square"/>
   </g>
   <g id="line2d_15">
    <path d="M 73.832727 57.139534 
L 73.837964 57.139534 
L 73.890328 56.418304 
L 73.937456 57.98097 
L 73.942693 57.98097 
L 73.953166 57.98097 
L 74.084077 64.832661 
L 74.099786 64.832661 
L 74.146914 64.544169 
L 74.152151 65.986631 
L 74.188806 65.986631 
L 74.214988 65.986631 
L 74.345899 64.544169 
L 74.555357 64.544169 
L 74.670559 64.183554 
L 74.738633 64.183554 
L 74.838125 63.822939 
L 74.958564 66.707861 
L 74.9638 66.707861 
L 75.079002 66.347246 
L 75.115657 66.347246 
L 75.131366 65.986631 
L 75.136603 67.429092 
L 75.21515 67.068477 
L 75.440317 67.068477 
L 75.560755 66.347246 
L 75.665484 66.347246 
L 75.780686 65.986631 
L 75.874942 65.986631 
L 75.990144 65.626015 
L 76.162947 65.626015 
L 76.199602 67.068477 
L 76.272912 66.707861 
L 76.461424 66.707861 
L 76.581863 65.986631 
L 76.634227 65.986631 
L 76.702301 67.429092 
L 76.744192 67.068477 
L 77.037434 67.068477 
L 77.152635 66.707861 
L 77.325438 66.707861 
L 77.445876 65.986631 
L 77.576788 65.986631 
L 77.69199 65.626015 
L 77.843847 65.626015 
L 77.959048 67.068477 
L 78.116142 67.068477 
L 78.121378 68.510938 
L 78.226107 68.150323 
L 78.508875 68.150323 
L 78.624077 67.789707 
L 78.760225 67.789707 
L 78.765461 67.429092 
L 78.770698 68.871553 
L 78.854481 68.871553 
L 79.236742 68.871553 
L 79.35718 68.150323 
L 79.414781 68.150323 
L 79.529983 69.592784 
L 80.278795 69.592784 
L 80.310214 71.035245 
L 80.38876 70.67463 
L 81.106154 70.67463 
L 81.221356 72.117091 
L 83.038403 72.117091 
L 83.153605 71.756476 
L 83.4259 71.756476 
L 83.541102 71.395861 
L 83.996673 71.395861 
L 84.111875 72.838322 
L 85.745647 72.838322 
L 85.860849 72.477707 
L 86.30071 72.477707 
L 86.421148 75.362629 
L 86.583478 75.362629 
L 86.703917 78.247552 
L 86.7877 78.247552 
L 86.902902 77.886937 
L 87.803571 77.886937 
L 87.918773 77.526321 
L 88.248669 77.526321 
L 88.363871 77.165706 
L 91.846109 77.165706 
L 91.961311 76.805091 
L 92.254552 76.805091 
L 92.369754 76.444475 
L 94.919904 76.444475 
L 95.035106 76.08386 
L 96.836444 76.08386 
L 96.951646 77.526321 
L 97.428162 77.526321 
L 97.543364 77.165706 
L 97.904679 77.165706 
L 98.019881 76.805091 
L 98.972915 76.805091 
L 99.093353 76.08386 
L 104.727771 76.08386 
L 104.842973 75.723245 
L 108.749363 75.723245 
L 108.864565 75.362629 
L 111.100528 75.362629 
L 111.21573 76.805091 
L 111.535154 76.805091 
L 111.650355 76.444475 
L 111.744611 76.444475 
L 111.859813 76.08386 
L 120.16482 76.08386 
L 120.280022 75.723245 
L 121.369203 75.723245 
L 121.484405 77.165706 
L 121.68339 77.165706 
L 121.798592 76.805091 
L 132.156286 76.805091 
L 132.271488 76.444475 
L 134.800692 76.444475 
L 134.915894 76.08386 
L 141.55571 76.08386 
L 141.670912 75.723245 
L 158.841226 75.723245 
L 158.956428 75.362629 
L 168.533891 75.362629 
L 168.649093 75.002014 
L 182.619936 75.002014 
L 182.735138 76.444475 
L 188.233409 76.444475 
L 188.348611 77.886937 
L 189.066004 77.886937 
L 189.181206 77.526321 
L 201.717263 77.526321 
L 201.832465 77.165706 
L 205.314702 77.165706 
L 205.429904 78.608167 
L 213.75062 78.608167 
L 213.865822 78.247552 
L 214.551797 78.247552 
L 214.666999 77.886937 
L 232.360957 77.886937 
L 232.476159 79.329398 
L 237.246563 79.329398 
L 237.361765 78.968783 
L 238.958882 78.968783 
L 239.074083 80.411244 
L 249.269448 80.411244 
L 249.38465 80.050629 
L 252.128548 80.050629 
L 252.24375 79.690013 
L 284.599763 79.690013 
L 284.714965 81.132475 
L 288.380479 81.132475 
L 288.49568 80.771859 
L 292.10883 80.771859 
L 292.224032 80.411244 
L 305.294206 80.411244 
L 305.409408 80.050629 
L 398.487273 80.050629 
L 398.487273 80.050629 
" clip-path="url(#pe38bd9dd7f)" style="fill: none; stroke: #d62728; stroke-width: 1.5; stroke-linecap: square"/>
   </g>
   <g id="line2d_16">
    <path d="M 73.832727 55.697073 
L 73.837964 55.697073 
L 73.869382 57.139534 
L 73.947929 56.177893 
L 73.953166 56.177893 
L 74.068367 55.456663 
L 398.487273 55.456663 
L 398.487273 55.456663 
" clip-path="url(#pe38bd9dd7f)" style="fill: none; stroke: #9467bd; stroke-width: 1.5; stroke-linecap: square"/>
   </g>
   <g id="line2d_17">
    <path d="M 73.832727 55.697073 
L 74.016003 55.697073 
L 74.131205 55.408581 
L 74.377318 55.408581 
L 74.49252 55.120088 
L 84.965416 55.120088 
L 85.080618 54.831596 
L 86.583478 54.831596 
L 86.69868 54.543104 
L 274.739531 54.543104 
L 274.854733 54.182489 
L 398.487273 54.182489 
L 398.487273 54.182489 
" clip-path="url(#pe38bd9dd7f)" style="fill: none; stroke: #8c564b; stroke-width: 1.5; stroke-linecap: square"/>
   </g>
   <g id="line2d_18">
    <path d="M 73.832727 55.697073 
L 73.93222 61.587123 
L 73.958402 60.385072 
L 73.984584 60.385072 
L 74.016003 58.581996 
L 74.057895 60.986098 
L 74.09455 60.024457 
L 74.099786 60.024457 
L 74.199279 58.774324 
L 74.204515 60.216785 
L 74.377318 60.216785 
L 74.47681 61.659246 
L 74.487283 61.178426 
L 74.838125 61.178426 
L 74.843362 62.620887 
L 74.948091 62.140067 
L 75.131366 62.140067 
L 75.246568 61.659246 
L 76.162947 61.659246 
L 76.278149 61.178426 
L 76.634227 61.178426 
L 76.749429 60.697606 
L 77.288783 60.697606 
L 77.403985 62.140067 
L 77.843847 62.140067 
L 77.959048 61.659246 
L 78.116142 61.659246 
L 78.231344 61.178426 
L 78.765461 61.178426 
L 78.880663 60.457195 
L 79.315288 60.457195 
L 79.43049 61.899657 
L 79.66613 61.899657 
L 79.781332 63.342118 
L 80.278795 63.342118 
L 80.393997 64.784579 
L 81.106154 64.784579 
L 81.221356 64.303759 
L 83.996673 64.303759 
L 84.111875 63.822939 
L 84.855451 63.822939 
L 84.975889 66.707861 
L 86.30071 66.707861 
L 86.421148 65.74622 
L 86.583478 65.74622 
L 86.656789 67.188682 
L 86.693444 66.707861 
L 96.836444 66.707861 
L 96.951646 65.986631 
L 111.100528 65.986631 
L 111.21573 65.2654 
L 121.369203 65.2654 
L 121.484405 64.784579 
L 182.619936 64.784579 
L 182.735138 64.063349 
L 188.233409 64.063349 
L 188.348611 65.50581 
L 205.314702 65.50581 
L 205.429904 65.02499 
L 232.360957 65.02499 
L 232.476159 64.544169 
L 238.958882 64.544169 
L 239.074083 65.986631 
L 274.739531 65.986631 
L 274.854733 67.429092 
L 284.599763 67.429092 
L 284.714965 66.948271 
L 398.487273 66.948271 
L 398.487273 66.948271 
" clip-path="url(#pe38bd9dd7f)" style="fill: none; stroke: #e377c2; stroke-width: 1.5; stroke-linecap: square"/>
   </g>
   <g id="line2d_19">
    <path d="M 73.832727 55.697073 
L 73.958402 51.610099 
L 74.016003 51.610099 
L 74.131205 51.321607 
L 74.199279 51.321607 
L 74.31448 49.879146 
L 74.377318 49.879146 
L 74.49252 49.590653 
L 74.838125 49.590653 
L 74.953327 48.869423 
L 77.288783 48.869423 
L 77.403985 48.388602 
L 79.315288 48.388602 
L 79.43049 47.907782 
L 84.965416 47.907782 
L 85.080618 47.619289 
L 86.583478 47.619289 
L 86.69868 47.330797 
L 274.739531 47.330797 
L 274.854733 46.970182 
L 398.487273 46.970182 
L 398.487273 46.970182 
" clip-path="url(#pe38bd9dd7f)" style="fill: none; stroke: #7f7f7f; stroke-width: 1.5; stroke-linecap: square"/>
   </g>
   <g id="line2d_20">
    <path d="M 73.832727 57.139534 
L 73.848437 57.139534 
L 73.890328 62.428559 
L 73.974111 62.067944 
L 73.984584 62.067944 
L 74.016003 60.264867 
L 74.057895 63.3902 
L 74.089313 62.428559 
L 74.099786 62.428559 
L 74.214988 61.178426 
L 74.340663 66.227041 
L 74.377318 66.227041 
L 74.387791 67.669502 
L 74.466337 64.063349 
L 74.47681 64.063349 
L 74.555357 63.582528 
L 74.560594 65.02499 
L 74.576303 65.02499 
L 74.586776 65.02499 
L 74.701978 64.303759 
L 74.738633 64.303759 
L 74.838125 65.74622 
L 74.848598 64.544169 
L 74.900963 64.544169 
L 75.000455 66.707861 
L 75.010928 65.986631 
L 75.115657 63.822939 
L 75.12613 64.544169 
L 75.131366 64.544169 
L 75.194204 63.342118 
L 75.19944 64.784579 
L 75.236095 64.784579 
L 75.267514 64.784579 
L 75.382716 63.342118 
L 75.440317 63.342118 
L 75.492681 66.227041 
L 75.550282 64.063349 
L 75.665484 64.063349 
L 75.696903 65.50581 
L 75.77545 64.063349 
L 75.874942 64.063349 
L 75.890651 65.50581 
L 75.984907 64.784579 
L 76.162947 64.784579 
L 76.199602 64.303759 
L 76.204838 65.74622 
L 76.262439 65.74622 
L 76.461424 65.74622 
L 76.581863 68.631143 
L 76.628991 68.631143 
L 76.702301 66.707861 
L 76.738956 68.150323 
L 77.037434 68.150323 
L 77.152635 69.592784 
L 77.288783 69.592784 
L 77.325438 69.111963 
L 77.330675 70.554425 
L 77.393512 69.833194 
L 77.508714 71.275655 
L 77.576788 71.275655 
L 77.69199 72.718117 
L 77.697226 72.718117 
L 77.833374 69.111963 
L 77.843847 69.111963 
L 77.959048 68.631143 
L 78.116142 68.631143 
L 78.121378 68.150323 
L 78.126615 69.592784 
L 78.215634 69.592784 
L 78.508875 69.592784 
L 78.629314 72.477707 
L 78.760225 72.477707 
L 78.765461 73.920168 
L 78.87019 72.477707 
L 79.236742 72.477707 
L 79.362416 76.805091 
L 79.399072 76.805091 
L 79.414781 76.08386 
L 79.420017 77.526321 
L 79.509037 76.805091 
L 79.66613 76.805091 
L 79.781332 78.247552 
L 79.996027 78.247552 
L 80.121701 76.08386 
L 80.263086 76.08386 
L 80.278795 75.362629 
L 80.31545 78.247552 
L 80.357342 78.247552 
L 80.844331 78.247552 
L 80.959533 77.526321 
L 81.106154 77.526321 
L 81.221356 77.045501 
L 82.561886 77.045501 
L 82.677088 76.32427 
L 83.038403 76.32427 
L 83.153605 77.766731 
L 83.274043 77.766731 
L 83.389245 76.32427 
L 83.4259 76.32427 
L 83.541102 77.766731 
L 83.572521 77.766731 
L 83.687723 77.045501 
L 83.996673 77.045501 
L 84.111875 76.56468 
L 84.855451 76.56468 
L 84.975889 79.449603 
L 85.745647 79.449603 
L 85.75612 80.892064 
L 85.855612 80.170834 
L 86.30071 80.170834 
L 86.421148 79.209193 
L 86.583478 79.209193 
L 86.599188 80.651654 
L 86.693444 79.449603 
L 86.7877 79.449603 
L 86.902902 80.892064 
L 86.965739 80.892064 
L 87.080941 80.170834 
L 87.803571 80.170834 
L 87.918773 81.613295 
L 88.248669 81.613295 
L 88.363871 83.055756 
L 88.767077 83.055756 
L 88.882279 82.334526 
L 90.128554 82.334526 
L 90.243756 81.613295 
L 90.919257 81.613295 
L 91.034459 80.892064 
L 91.846109 80.892064 
L 91.961311 82.334526 
L 92.254552 82.334526 
L 92.369754 83.776987 
L 93.270423 83.776987 
L 93.385624 82.334526 
L 94.013998 82.334526 
L 94.1292 80.892064 
L 94.919904 80.892064 
L 95.035106 82.334526 
L 96.836444 82.334526 
L 96.951646 81.613295 
L 97.428162 81.613295 
L 97.543364 83.055756 
L 97.904679 83.055756 
L 97.977989 84.498218 
L 98.014645 83.055756 
L 98.972915 83.055756 
L 99.093353 85.940679 
L 99.915475 85.940679 
L 100.030677 85.219448 
L 100.732361 85.219448 
L 100.847563 83.055756 
L 104.727771 83.055756 
L 104.753953 84.498218 
L 104.837736 83.776987 
L 108.299029 83.776987 
L 108.41423 83.055756 
L 108.749363 83.055756 
L 108.864565 84.498218 
L 109.765234 84.498218 
L 109.880436 83.055756 
L 110.974854 83.055756 
L 111.090055 81.613295 
L 111.100528 81.613295 
L 111.21573 80.892064 
L 111.535154 80.892064 
L 111.650355 82.334526 
L 111.744611 82.334526 
L 111.859813 83.776987 
L 120.16482 83.776987 
L 120.280022 85.219448 
L 121.369203 85.219448 
L 121.484405 84.738628 
L 121.68339 84.738628 
L 121.798592 86.181089 
L 129.742284 86.181089 
L 129.857485 84.738628 
L 132.156286 84.738628 
L 132.271488 86.181089 
L 134.800692 86.181089 
L 134.915894 87.623551 
L 136.094095 87.623551 
L 136.209297 86.181089 
L 141.55571 86.181089 
L 141.57142 87.623551 
L 141.665676 86.90232 
L 145.954327 86.90232 
L 146.069529 86.181089 
L 154.039403 86.181089 
L 154.159841 84.738628 
L 158.841226 84.738628 
L 158.956428 86.181089 
L 168.533891 86.181089 
L 168.649093 87.623551 
L 172.812069 87.623551 
L 172.927271 86.181089 
L 182.619936 86.181089 
L 182.735138 85.459859 
L 188.233409 85.459859 
L 188.348611 86.90232 
L 189.066004 86.90232 
L 189.181206 88.344781 
L 190.809741 88.344781 
L 190.924943 87.623551 
L 196.208519 87.623551 
L 196.323721 86.90232 
L 201.717263 86.90232 
L 201.832465 88.344781 
L 205.314702 88.344781 
L 205.429904 87.863961 
L 211.043377 87.863961 
L 211.158579 87.14273 
L 213.75062 87.14273 
L 213.865822 88.585192 
L 214.551797 88.585192 
L 214.666999 90.027653 
L 216.002293 90.027653 
L 216.117495 89.306422 
L 216.991982 89.306422 
L 217.107184 87.863961 
L 232.360957 87.863961 
L 232.476159 87.38314 
L 237.246563 87.38314 
L 237.361765 88.825602 
L 238.958882 88.825602 
L 239.074083 90.268063 
L 249.269448 90.268063 
L 249.38465 91.710524 
L 250.966057 91.710524 
L 251.081259 90.989294 
L 252.128548 90.989294 
L 252.24375 92.431755 
L 259.302482 92.431755 
L 259.417684 91.710524 
L 270.948343 91.710524 
L 271.063545 90.268063 
L 274.739531 90.268063 
L 274.854733 91.710524 
L 284.599763 91.710524 
L 284.714965 91.229704 
L 286.605323 91.229704 
L 286.720525 90.508473 
L 288.380479 90.508473 
L 288.49568 91.950935 
L 292.10883 91.950935 
L 292.224032 93.393396 
L 292.423017 93.393396 
L 292.538218 92.672165 
L 298.49206 92.672165 
L 298.607262 91.950935 
L 305.294206 91.950935 
L 305.409408 93.393396 
L 308.661242 93.393396 
L 308.776444 92.672165 
L 318.097322 92.672165 
L 318.212523 91.950935 
L 398.487273 91.950935 
L 398.487273 91.950935 
" clip-path="url(#pe38bd9dd7f)" style="fill: none; stroke: #bcbd22; stroke-width: 1.5; stroke-linecap: square"/>
   </g>
   <g id="line2d_21">
    <path d="M 73.832727 57.139534 
L 73.837964 57.139534 
L 73.869382 55.937483 
L 73.900801 61.707329 
L 73.91651 61.226508 
L 73.942693 61.226508 
L 73.953166 60.745688 
L 73.989821 65.073072 
L 74.00553 64.592251 
L 74.073604 70.602507 
L 74.131205 69.352374 
L 74.146914 69.352374 
L 74.157387 70.794835 
L 74.246407 69.232169 
L 74.25688 69.232169 
L 74.288298 69.232169 
L 74.387791 67.86183 
L 74.393027 69.304292 
L 74.398264 69.304292 
L 74.429682 69.304292 
L 74.544884 70.746753 
L 74.555357 70.746753 
L 74.681032 69.664907 
L 74.738633 69.664907 
L 74.838125 69.304292 
L 74.900963 72.189214 
L 74.953327 71.467984 
L 74.958564 71.467984 
L 75.010928 69.664907 
L 75.073765 70.386138 
L 75.115657 70.386138 
L 75.120894 70.025522 
L 75.136603 72.910445 
L 75.204677 71.828599 
L 75.267514 71.828599 
L 75.382716 73.27106 
L 75.440317 73.27106 
L 75.518864 71.828599 
L 75.550282 73.27106 
L 75.665484 73.27106 
L 75.696903 72.910445 
L 75.702139 74.352906 
L 75.75974 74.352906 
L 75.874942 74.352906 
L 76.000617 73.27106 
L 76.162947 73.27106 
L 76.199602 74.713522 
L 76.272912 74.352906 
L 76.461424 74.352906 
L 76.581863 73.631676 
L 76.628991 73.631676 
L 76.702301 76.516598 
L 76.744192 76.155983 
L 77.037434 76.155983 
L 77.152635 75.795368 
L 77.288783 75.795368 
L 77.325438 77.237829 
L 77.398748 75.795368 
L 77.445876 75.795368 
L 77.566315 78.68029 
L 77.576788 78.68029 
L 77.69199 78.319675 
L 77.697226 78.319675 
L 77.728645 76.877214 
L 77.760063 79.762136 
L 77.796718 79.762136 
L 77.843847 79.762136 
L 77.959048 81.204598 
L 78.116142 81.204598 
L 78.121378 82.647059 
L 78.226107 82.286444 
L 78.508875 82.286444 
L 78.566476 81.925828 
L 78.571713 83.36829 
L 78.603131 83.36829 
L 78.760225 83.36829 
L 78.765461 83.007674 
L 78.770698 84.450136 
L 78.864954 83.728905 
L 79.236742 83.728905 
L 79.315288 83.36829 
L 79.320525 84.810751 
L 79.336234 84.450136 
L 79.399072 84.450136 
L 79.414781 83.728905 
L 79.420017 85.171366 
L 79.509037 84.450136 
L 79.66613 84.450136 
L 79.781332 85.892597 
L 79.996027 85.892597 
L 80.022209 85.171366 
L 80.027445 86.613828 
L 80.100756 86.613828 
L 80.263086 86.613828 
L 80.278795 85.892597 
L 80.284031 87.335058 
L 80.367814 86.974443 
L 80.844331 86.974443 
L 80.959533 86.253212 
L 81.106154 86.253212 
L 81.221356 87.695674 
L 82.561886 87.695674 
L 82.677088 86.974443 
L 83.038403 86.974443 
L 83.153605 86.613828 
L 83.274043 86.613828 
L 83.389245 88.056289 
L 83.4259 88.056289 
L 83.541102 87.695674 
L 83.572521 87.695674 
L 83.687723 86.974443 
L 83.996673 86.974443 
L 84.111875 88.416904 
L 84.855451 88.416904 
L 84.965416 89.859366 
L 84.970652 89.570873 
L 85.745647 89.570873 
L 85.871321 88.489027 
L 86.30071 88.489027 
L 86.421148 91.37395 
L 86.583478 91.37395 
L 86.69868 93.537642 
L 86.7877 93.537642 
L 86.902902 93.177027 
L 86.965739 93.177027 
L 87.080941 92.455796 
L 87.803571 92.455796 
L 87.918773 92.095181 
L 88.248669 92.095181 
L 88.363871 91.734565 
L 88.767077 91.734565 
L 88.882279 93.177027 
L 90.128554 93.177027 
L 90.243756 92.455796 
L 90.919257 92.455796 
L 91.034459 91.734565 
L 91.846109 91.734565 
L 91.961311 91.37395 
L 92.254552 91.37395 
L 92.369754 91.013335 
L 93.270423 91.013335 
L 93.385624 92.455796 
L 94.013998 92.455796 
L 94.1292 93.898258 
L 94.919904 93.898258 
L 95.035106 93.537642 
L 96.836444 93.537642 
L 96.951646 94.980104 
L 97.428162 94.980104 
L 97.543364 94.619488 
L 97.904679 94.619488 
L 97.977989 94.258873 
L 97.983226 95.701334 
L 97.998935 95.701334 
L 98.972915 95.701334 
L 99.093353 94.980104 
L 99.915475 94.980104 
L 100.030677 94.258873 
L 100.732361 94.258873 
L 100.76378 95.701334 
L 100.842327 94.980104 
L 104.727771 94.980104 
L 104.853446 93.898258 
L 108.299029 93.898258 
L 108.41423 93.177027 
L 108.749363 93.177027 
L 108.864565 92.816411 
L 109.765234 92.816411 
L 109.880436 94.258873 
L 110.974854 94.258873 
L 111.090055 95.701334 
L 111.100528 95.701334 
L 111.21573 97.143796 
L 111.535154 97.143796 
L 111.650355 96.78318 
L 111.744611 96.78318 
L 111.859813 96.422565 
L 120.16482 96.422565 
L 120.280022 96.06195 
L 121.369203 96.06195 
L 121.484405 97.504411 
L 121.68339 97.504411 
L 121.798592 97.143796 
L 129.742284 97.143796 
L 129.857485 98.586257 
L 132.156286 98.586257 
L 132.271488 98.225642 
L 134.800692 98.225642 
L 134.915894 97.865026 
L 136.094095 97.865026 
L 136.209297 99.307488 
L 141.55571 99.307488 
L 141.681385 98.225642 
L 145.954327 98.225642 
L 146.069529 97.504411 
L 154.039403 97.504411 
L 154.123186 96.78318 
L 154.128422 98.225642 
L 154.144132 98.225642 
L 158.841226 98.225642 
L 158.956428 97.865026 
L 168.533891 97.865026 
L 168.649093 97.504411 
L 172.812069 97.504411 
L 172.927271 98.946872 
L 182.619936 98.946872 
L 182.735138 100.389334 
L 188.233409 100.389334 
L 188.348611 101.831795 
L 189.066004 101.831795 
L 189.181206 101.47118 
L 190.809741 101.47118 
L 190.924943 100.749949 
L 196.208519 100.749949 
L 196.323721 100.028718 
L 201.717263 100.028718 
L 201.832465 99.668103 
L 205.314702 99.668103 
L 205.429904 101.110564 
L 211.043377 101.110564 
L 211.158579 102.553026 
L 213.75062 102.553026 
L 213.865822 102.19241 
L 214.551797 102.19241 
L 214.666999 101.831795 
L 216.002293 101.831795 
L 216.117495 101.110564 
L 216.991982 101.110564 
L 217.107184 102.553026 
L 232.360957 102.553026 
L 232.476159 103.995487 
L 237.246563 103.995487 
L 237.361765 103.634872 
L 238.958882 103.634872 
L 239.074083 105.077333 
L 249.269448 105.077333 
L 249.38465 104.716718 
L 250.966057 104.716718 
L 251.081259 103.995487 
L 252.128548 103.995487 
L 252.24375 103.634872 
L 259.302482 103.634872 
L 259.417684 102.913641 
L 270.948343 102.913641 
L 271.063545 104.356102 
L 274.739531 104.356102 
L 274.854733 103.995487 
L 284.599763 103.995487 
L 284.714965 105.437948 
L 286.605323 105.437948 
L 286.720525 106.88041 
L 288.380479 106.88041 
L 288.49568 106.519794 
L 292.10883 106.519794 
L 292.224032 106.159179 
L 292.423017 106.159179 
L 292.538218 105.437948 
L 298.49206 105.437948 
L 298.607262 106.88041 
L 305.294206 106.88041 
L 305.409408 106.519794 
L 308.661242 106.519794 
L 308.776444 107.962256 
L 318.097322 107.962256 
L 318.212523 107.241025 
L 398.487273 107.241025 
L 398.487273 107.241025 
" clip-path="url(#pe38bd9dd7f)" style="fill: none; stroke: #17becf; stroke-width: 1.5; stroke-linecap: square"/>
   </g>
   <g id="line2d_22">
    <path d="M 73.832727 55.697073 
L 74.016003 55.697073 
L 74.131205 57.139534 
L 74.377318 57.139534 
L 74.49252 58.581996 
L 84.965416 58.581996 
L 85.080618 60.024457 
L 86.583478 60.024457 
L 86.69868 61.466918 
L 274.739531 61.466918 
L 274.854733 62.90938 
L 398.487273 62.90938 
L 398.487273 62.90938 
" clip-path="url(#pe38bd9dd7f)" style="fill: none; stroke: #1f77b4; stroke-width: 1.5; stroke-linecap: square"/>
   </g>
   <g id="line2d_23">
    <path d="M 73.832727 55.216252 
L 73.848437 55.216252 
L 73.879855 54.495022 
L 73.91651 58.822406 
L 73.93222 58.822406 
L 73.947929 58.822406 
L 74.089313 67.356969 
L 74.099786 67.356969 
L 74.152151 66.587656 
L 74.157387 68.030117 
L 74.194042 68.030117 
L 74.214988 68.030117 
L 74.319717 73.799963 
L 74.340663 72.357501 
L 74.366845 72.357501 
L 74.398264 73.799963 
L 74.434919 71.636271 
L 74.471574 71.636271 
L 74.47681 71.636271 
L 74.597249 74.521193 
L 74.681032 74.521193 
L 74.749106 75.963655 
L 74.790997 74.521193 
L 74.9638 74.521193 
L 75.079002 75.963655 
L 75.115657 75.963655 
L 75.230859 77.646526 
L 75.440317 77.646526 
L 75.560755 80.531449 
L 75.665484 80.531449 
L 75.780686 81.97391 
L 75.874942 81.97391 
L 75.990144 83.416372 
L 76.162947 83.416372 
L 76.17342 82.935551 
L 76.204838 85.820474 
L 76.24673 85.820474 
L 76.251966 85.820474 
L 76.367168 84.378013 
L 76.461424 84.378013 
L 76.581863 87.262935 
L 76.634227 87.262935 
L 76.702301 86.782115 
L 76.707537 88.224576 
L 76.73372 88.224576 
L 76.885577 88.224576 
L 77.000778 86.782115 
L 77.037434 86.782115 
L 77.152635 88.224576 
L 77.288783 88.224576 
L 77.414458 92.55196 
L 77.456349 92.55196 
L 77.534896 93.994422 
L 77.566315 92.55196 
L 77.576788 92.55196 
L 77.592497 93.994422 
L 77.650098 91.109499 
L 77.681517 91.109499 
L 77.754827 91.109499 
L 77.870029 89.907448 
L 78.116142 89.907448 
L 78.121378 89.426627 
L 78.126615 90.869089 
L 78.215634 90.869089 
L 78.508875 90.869089 
L 78.629314 93.754011 
L 78.760225 93.754011 
L 78.875427 95.196473 
L 79.236742 95.196473 
L 79.362416 99.523857 
L 79.414781 99.523857 
L 79.529983 98.081395 
L 79.687076 98.081395 
L 79.744677 99.523857 
L 79.797042 98.081395 
L 80.310214 98.081395 
L 80.425415 99.523857 
L 81.106154 99.523857 
L 81.221356 100.966318 
L 83.038403 100.966318 
L 83.153605 102.408779 
L 83.384009 102.408779 
L 83.4259 100.966318 
L 83.493974 102.408779 
L 83.996673 102.408779 
L 84.111875 101.927959 
L 84.965416 101.927959 
L 85.080618 103.37042 
L 85.745647 103.37042 
L 85.860849 104.812882 
L 86.30071 104.812882 
L 86.358311 106.255343 
L 86.410676 104.812882 
L 86.415912 104.812882 
L 86.531114 104.332061 
L 86.583478 104.332061 
L 86.703917 107.216984 
L 86.7877 107.216984 
L 86.902902 108.659445 
L 87.803571 108.659445 
L 87.918773 110.101907 
L 88.248669 110.101907 
L 88.363871 111.544368 
L 88.416235 111.544368 
L 88.531437 110.101907 
L 88.767077 110.101907 
L 88.882279 109.380676 
L 91.846109 109.380676 
L 91.961311 110.823137 
L 92.254552 110.823137 
L 92.369754 112.265599 
L 94.919904 112.265599 
L 95.035106 113.70806 
L 97.428162 113.70806 
L 97.543364 115.150521 
L 97.826132 115.150521 
L 97.904679 113.70806 
L 97.936098 115.150521 
L 98.972915 115.150521 
L 99.093353 118.035444 
L 99.166663 118.035444 
L 99.287101 115.150521 
L 104.727771 115.150521 
L 104.842973 116.592983 
L 108.749363 116.592983 
L 108.864565 118.035444 
L 111.535154 118.035444 
L 111.650355 119.477905 
L 111.744611 119.477905 
L 111.859813 120.920367 
L 119.829687 120.920367 
L 119.944889 119.477905 
L 120.16482 119.477905 
L 120.280022 120.920367 
L 121.369203 120.920367 
L 121.484405 120.439546 
L 121.68339 120.439546 
L 121.798592 121.882008 
L 125.223229 121.882008 
L 125.338431 120.439546 
L 132.156286 120.439546 
L 132.271488 121.882008 
L 134.800692 121.882008 
L 134.915894 123.324469 
L 136.696287 123.324469 
L 136.811489 121.882008 
L 141.55571 121.882008 
L 141.670912 123.324469 
L 154.123186 123.324469 
L 154.238388 122.603238 
L 158.841226 122.603238 
L 158.956428 124.0457 
L 168.533891 124.0457 
L 168.649093 125.488161 
L 188.233409 125.488161 
L 188.348611 126.930622 
L 189.066004 126.930622 
L 189.181206 128.373084 
L 193.684551 128.373084 
L 193.799753 126.930622 
L 201.717263 126.930622 
L 201.832465 128.373084 
L 205.314702 128.373084 
L 205.429904 129.815545 
L 206.791381 129.815545 
L 206.906583 128.373084 
L 211.043377 128.373084 
L 211.158579 127.651853 
L 213.75062 127.651853 
L 213.865822 129.094314 
L 214.551797 129.094314 
L 214.666999 130.536776 
L 232.360957 130.536776 
L 232.476159 130.055955 
L 237.246563 130.055955 
L 237.361765 131.498417 
L 249.269448 131.498417 
L 249.38465 132.940878 
L 252.128548 132.940878 
L 252.24375 134.383339 
L 257.155539 134.383339 
L 257.27074 132.940878 
L 274.739531 132.940878 
L 274.854733 134.383339 
L 284.599763 134.383339 
L 284.714965 135.825801 
L 286.605323 135.825801 
L 286.720525 135.10457 
L 288.380479 135.10457 
L 288.49568 136.547031 
L 292.10883 136.547031 
L 292.224032 137.989493 
L 298.49206 137.989493 
L 298.607262 137.268262 
L 305.294206 137.268262 
L 305.409408 138.710723 
L 306.577136 138.710723 
L 306.692338 137.268262 
L 308.661242 137.268262 
L 308.776444 136.547031 
L 398.487273 136.547031 
L 398.487273 136.547031 
" clip-path="url(#pe38bd9dd7f)" style="fill: none; stroke: #ff7f0e; stroke-width: 1.5; stroke-linecap: square"/>
   </g>
   <g id="patch_3">
    <path d="M 57.6 162.432 
L 57.6 41.472 
" style="fill: none; stroke: #000000; stroke-width: 0.8; stroke-linejoin: miter; stroke-linecap: square"/>
   </g>
   <g id="patch_4">
    <path d="M 414.72 162.432 
L 414.72 41.472 
" style="fill: none; stroke: #000000; stroke-width: 0.8; stroke-linejoin: miter; stroke-linecap: square"/>
   </g>
   <g id="patch_5">
    <path d="M 57.6 162.432 
L 414.72 162.432 
" style="fill: none; stroke: #000000; stroke-width: 0.8; stroke-linejoin: miter; stroke-linecap: square"/>
   </g>
   <g id="patch_6">
    <path d="M 57.6 41.472 
L 414.72 41.472 
" style="fill: none; stroke: #000000; stroke-width: 0.8; stroke-linejoin: miter; stroke-linecap: square"/>
   </g>
   <g id="text_12">
    <!-- WSP -->
    <g transform="translate(361.832136 106.351507)scale(0.08 -0.08)">
     <defs>
      <path id="DejaVuSans-57" d="M 213 4666 
L 850 4666 
L 1831 722 
L 2809 4666 
L 3519 4666 
L 4500 722 
L 5478 4666 
L 6119 4666 
L 4947 0 
L 4153 0 
L 3169 4050 
L 2175 0 
L 1381 0 
L 213 4666 
z
" transform="scale(0.015625)"/>
      <path id="DejaVuSans-53" d="M 3425 4513 
L 3425 3897 
Q 3066 4069 2747 4153 
Q 2428 4238 2131 4238 
Q 1616 4238 1336 4038 
Q 1056 3838 1056 3469 
Q 1056 3159 1242 3001 
Q 1428 2844 1947 2747 
L 2328 2669 
Q 3034 2534 3370 2195 
Q 3706 1856 3706 1288 
Q 3706 609 3251 259 
Q 2797 -91 1919 -91 
Q 1588 -91 1214 -16 
Q 841 59 441 206 
L 441 856 
Q 825 641 1194 531 
Q 1563 422 1919 422 
Q 2459 422 2753 634 
Q 3047 847 3047 1241 
Q 3047 1584 2836 1778 
Q 2625 1972 2144 2069 
L 1759 2144 
Q 1053 2284 737 2584 
Q 422 2884 422 3419 
Q 422 4038 858 4394 
Q 1294 4750 2059 4750 
Q 2388 4750 2728 4690 
Q 3069 4631 3425 4513 
z
" transform="scale(0.015625)"/>
      <path id="DejaVuSans-50" d="M 1259 4147 
L 1259 2394 
L 2053 2394 
Q 2494 2394 2734 2622 
Q 2975 2850 2975 3272 
Q 2975 3691 2734 3919 
Q 2494 4147 2053 4147 
L 1259 4147 
z
M 628 4666 
L 2053 4666 
Q 2838 4666 3239 4311 
Q 3641 3956 3641 3272 
Q 3641 2581 3239 2228 
Q 2838 1875 2053 1875 
L 1259 1875 
L 1259 0 
L 628 0 
L 628 4666 
z
" transform="scale(0.015625)"/>
     </defs>
     <use xlink:href="#DejaVuSans-57"/>
     <use xlink:href="#DejaVuSans-53" x="98.876953"/>
     <use xlink:href="#DejaVuSans-50" x="162.353516"/>
    </g>
   </g>
   <g id="text_13">
    <!-- Iambic -->
    <g transform="translate(361.832136 156.933818)scale(0.08 -0.08)">
     <defs>
      <path id="DejaVuSans-49" d="M 628 4666 
L 1259 4666 
L 1259 0 
L 628 0 
L 628 4666 
z
" transform="scale(0.015625)"/>
      <path id="DejaVuSans-61" d="M 2194 1759 
Q 1497 1759 1228 1600 
Q 959 1441 959 1056 
Q 959 750 1161 570 
Q 1363 391 1709 391 
Q 2188 391 2477 730 
Q 2766 1069 2766 1631 
L 2766 1759 
L 2194 1759 
z
M 3341 1997 
L 3341 0 
L 2766 0 
L 2766 531 
Q 2569 213 2275 61 
Q 1981 -91 1556 -91 
Q 1019 -91 701 211 
Q 384 513 384 1019 
Q 384 1609 779 1909 
Q 1175 2209 1959 2209 
L 2766 2209 
L 2766 2266 
Q 2766 2663 2505 2880 
Q 2244 3097 1772 3097 
Q 1472 3097 1187 3025 
Q 903 2953 641 2809 
L 641 3341 
Q 956 3463 1253 3523 
Q 1550 3584 1831 3584 
Q 2591 3584 2966 3190 
Q 3341 2797 3341 1997 
z
" transform="scale(0.015625)"/>
      <path id="DejaVuSans-6d" d="M 3328 2828 
Q 3544 3216 3844 3400 
Q 4144 3584 4550 3584 
Q 5097 3584 5394 3201 
Q 5691 2819 5691 2113 
L 5691 0 
L 5113 0 
L 5113 2094 
Q 5113 2597 4934 2840 
Q 4756 3084 4391 3084 
Q 3944 3084 3684 2787 
Q 3425 2491 3425 1978 
L 3425 0 
L 2847 0 
L 2847 2094 
Q 2847 2600 2669 2842 
Q 2491 3084 2119 3084 
Q 1678 3084 1418 2786 
Q 1159 2488 1159 1978 
L 1159 0 
L 581 0 
L 581 3500 
L 1159 3500 
L 1159 2956 
Q 1356 3278 1631 3431 
Q 1906 3584 2284 3584 
Q 2666 3584 2933 3390 
Q 3200 3197 3328 2828 
z
" transform="scale(0.015625)"/>
      <path id="DejaVuSans-62" d="M 3116 1747 
Q 3116 2381 2855 2742 
Q 2594 3103 2138 3103 
Q 1681 3103 1420 2742 
Q 1159 2381 1159 1747 
Q 1159 1113 1420 752 
Q 1681 391 2138 391 
Q 2594 391 2855 752 
Q 3116 1113 3116 1747 
z
M 1159 2969 
Q 1341 3281 1617 3432 
Q 1894 3584 2278 3584 
Q 2916 3584 3314 3078 
Q 3713 2572 3713 1747 
Q 3713 922 3314 415 
Q 2916 -91 2278 -91 
Q 1894 -91 1617 61 
Q 1341 213 1159 525 
L 1159 0 
L 581 0 
L 581 4863 
L 1159 4863 
L 1159 2969 
z
" transform="scale(0.015625)"/>
      <path id="DejaVuSans-69" d="M 603 3500 
L 1178 3500 
L 1178 0 
L 603 0 
L 603 3500 
z
M 603 4863 
L 1178 4863 
L 1178 4134 
L 603 4134 
L 603 4863 
z
" transform="scale(0.015625)"/>
      <path id="DejaVuSans-63" d="M 3122 3366 
L 3122 2828 
Q 2878 2963 2633 3030 
Q 2388 3097 2138 3097 
Q 1578 3097 1268 2742 
Q 959 2388 959 1747 
Q 959 1106 1268 751 
Q 1578 397 2138 397 
Q 2388 397 2633 464 
Q 2878 531 3122 666 
L 3122 134 
Q 2881 22 2623 -34 
Q 2366 -91 2075 -91 
Q 1284 -91 818 406 
Q 353 903 353 1747 
Q 353 2603 823 3093 
Q 1294 3584 2113 3584 
Q 2378 3584 2631 3529 
Q 2884 3475 3122 3366 
z
" transform="scale(0.015625)"/>
     </defs>
     <use xlink:href="#DejaVuSans-49"/>
     <use xlink:href="#DejaVuSans-61" x="29.492188"/>
     <use xlink:href="#DejaVuSans-6d" x="90.771484"/>
     <use xlink:href="#DejaVuSans-62" x="188.183594"/>
     <use xlink:href="#DejaVuSans-69" x="251.660156"/>
     <use xlink:href="#DejaVuSans-63" x="279.443359"/>
    </g>
   </g>
   <g id="text_14">
    <!-- Parse -->
    <g transform="translate(361.832136 51.898591)scale(0.08 -0.08)">
     <defs>
      <path id="DejaVuSans-72" d="M 2631 2963 
Q 2534 3019 2420 3045 
Q 2306 3072 2169 3072 
Q 1681 3072 1420 2755 
Q 1159 2438 1159 1844 
L 1159 0 
L 581 0 
L 581 3500 
L 1159 3500 
L 1159 2956 
Q 1341 3275 1631 3429 
Q 1922 3584 2338 3584 
Q 2397 3584 2469 3576 
Q 2541 3569 2628 3553 
L 2631 2963 
z
" transform="scale(0.015625)"/>
      <path id="DejaVuSans-73" d="M 2834 3397 
L 2834 2853 
Q 2591 2978 2328 3040 
Q 2066 3103 1784 3103 
Q 1356 3103 1142 2972 
Q 928 2841 928 2578 
Q 928 2378 1081 2264 
Q 1234 2150 1697 2047 
L 1894 2003 
Q 2506 1872 2764 1633 
Q 3022 1394 3022 966 
Q 3022 478 2636 193 
Q 2250 -91 1575 -91 
Q 1294 -91 989 -36 
Q 684 19 347 128 
L 347 722 
Q 666 556 975 473 
Q 1284 391 1588 391 
Q 1994 391 2212 530 
Q 2431 669 2431 922 
Q 2431 1156 2273 1281 
Q 2116 1406 1581 1522 
L 1381 1569 
Q 847 1681 609 1914 
Q 372 2147 372 2553 
Q 372 3047 722 3315 
Q 1072 3584 1716 3584 
Q 2034 3584 2315 3537 
Q 2597 3491 2834 3397 
z
" transform="scale(0.015625)"/>
      <path id="DejaVuSans-65" d="M 3597 1894 
L 3597 1613 
L 953 1613 
Q 991 1019 1311 708 
Q 1631 397 2203 397 
Q 2534 397 2845 478 
Q 3156 559 3463 722 
L 3463 178 
Q 3153 47 2828 -22 
Q 2503 -91 2169 -91 
Q 1331 -91 842 396 
Q 353 884 353 1716 
Q 353 2575 817 3079 
Q 1281 3584 2069 3584 
Q 2775 3584 3186 3129 
Q 3597 2675 3597 1894 
z
M 3022 2063 
Q 3016 2534 2758 2815 
Q 2500 3097 2075 3097 
Q 1594 3097 1305 2825 
Q 1016 2553 972 2059 
L 3022 2063 
z
" transform="scale(0.015625)"/>
     </defs>
     <use xlink:href="#DejaVuSans-50"/>
     <use xlink:href="#DejaVuSans-61" x="55.802734"/>
     <use xlink:href="#DejaVuSans-72" x="117.082031"/>
     <use xlink:href="#DejaVuSans-73" x="158.195312"/>
     <use xlink:href="#DejaVuSans-65" x="210.294922"/>
    </g>
   </g>
   <g id="text_15">
    <!-- FootBin -->
    <g transform="translate(361.832136 80.050629)scale(0.08 -0.08)">
     <defs>
      <path id="DejaVuSans-46" d="M 628 4666 
L 3309 4666 
L 3309 4134 
L 1259 4134 
L 1259 2759 
L 3109 2759 
L 3109 2228 
L 1259 2228 
L 1259 0 
L 628 0 
L 628 4666 
z
" transform="scale(0.015625)"/>
      <path id="DejaVuSans-6f" d="M 1959 3097 
Q 1497 3097 1228 2736 
Q 959 2375 959 1747 
Q 959 1119 1226 758 
Q 1494 397 1959 397 
Q 2419 397 2687 759 
Q 2956 1122 2956 1747 
Q 2956 2369 2687 2733 
Q 2419 3097 1959 3097 
z
M 1959 3584 
Q 2709 3584 3137 3096 
Q 3566 2609 3566 1747 
Q 3566 888 3137 398 
Q 2709 -91 1959 -91 
Q 1206 -91 779 398 
Q 353 888 353 1747 
Q 353 2609 779 3096 
Q 1206 3584 1959 3584 
z
" transform="scale(0.015625)"/>
      <path id="DejaVuSans-74" d="M 1172 4494 
L 1172 3500 
L 2356 3500 
L 2356 3053 
L 1172 3053 
L 1172 1153 
Q 1172 725 1289 603 
Q 1406 481 1766 481 
L 2356 481 
L 2356 0 
L 1766 0 
Q 1100 0 847 248 
Q 594 497 594 1153 
L 594 3053 
L 172 3053 
L 172 3500 
L 594 3500 
L 594 4494 
L 1172 4494 
z
" transform="scale(0.015625)"/>
      <path id="DejaVuSans-42" d="M 1259 2228 
L 1259 519 
L 2272 519 
Q 2781 519 3026 730 
Q 3272 941 3272 1375 
Q 3272 1813 3026 2020 
Q 2781 2228 2272 2228 
L 1259 2228 
z
M 1259 4147 
L 1259 2741 
L 2194 2741 
Q 2656 2741 2882 2914 
Q 3109 3088 3109 3444 
Q 3109 3797 2882 3972 
Q 2656 4147 2194 4147 
L 1259 4147 
z
M 628 4666 
L 2241 4666 
Q 2963 4666 3353 4366 
Q 3744 4066 3744 3513 
Q 3744 3084 3544 2831 
Q 3344 2578 2956 2516 
Q 3422 2416 3680 2098 
Q 3938 1781 3938 1306 
Q 3938 681 3513 340 
Q 3088 0 2303 0 
L 628 0 
L 628 4666 
z
" transform="scale(0.015625)"/>
      <path id="DejaVuSans-6e" d="M 3513 2113 
L 3513 0 
L 2938 0 
L 2938 2094 
Q 2938 2591 2744 2837 
Q 2550 3084 2163 3084 
Q 1697 3084 1428 2787 
Q 1159 2491 1159 1978 
L 1159 0 
L 581 0 
L 581 3500 
L 1159 3500 
L 1159 2956 
Q 1366 3272 1645 3428 
Q 1925 3584 2291 3584 
Q 2894 3584 3203 3211 
Q 3513 2838 3513 2113 
z
" transform="scale(0.015625)"/>
     </defs>
     <use xlink:href="#DejaVuSans-46"/>
     <use xlink:href="#DejaVuSans-6f" x="53.894531"/>
     <use xlink:href="#DejaVuSans-6f" x="115.076172"/>
     <use xlink:href="#DejaVuSans-74" x="176.257812"/>
     <use xlink:href="#DejaVuSans-42" x="215.466797"/>
     <use xlink:href="#DejaVuSans-69" x="284.070312"/>
     <use xlink:href="#DejaVuSans-6e" x="311.853516"/>
    </g>
   </g>
   <g id="text_16">
    <!-- WFL -->
    <g transform="translate(361.832136 55.456663)scale(0.08 -0.08)">
     <defs>
      <path id="DejaVuSans-4c" d="M 628 4666 
L 1259 4666 
L 1259 531 
L 3531 531 
L 3531 0 
L 628 0 
L 628 4666 
z
" transform="scale(0.015625)"/>
     </defs>
     <use xlink:href="#DejaVuSans-57"/>
     <use xlink:href="#DejaVuSans-46" x="98.876953"/>
     <use xlink:href="#DejaVuSans-4c" x="156.396484"/>
    </g>
   </g>
   <g id="text_17">
    <!-- WFR -->
    <g transform="translate(361.832136 54.182489)scale(0.08 -0.08)">
     <defs>
      <path id="DejaVuSans-52" d="M 2841 2188 
Q 3044 2119 3236 1894 
Q 3428 1669 3622 1275 
L 4263 0 
L 3584 0 
L 2988 1197 
Q 2756 1666 2539 1819 
Q 2322 1972 1947 1972 
L 1259 1972 
L 1259 0 
L 628 0 
L 628 4666 
L 2053 4666 
Q 2853 4666 3247 4331 
Q 3641 3997 3641 3322 
Q 3641 2881 3436 2590 
Q 3231 2300 2841 2188 
z
M 1259 4147 
L 1259 2491 
L 2053 2491 
Q 2509 2491 2742 2702 
Q 2975 2913 2975 3322 
Q 2975 3731 2742 3939 
Q 2509 4147 2053 4147 
L 1259 4147 
z
" transform="scale(0.015625)"/>
     </defs>
     <use xlink:href="#DejaVuSans-57"/>
     <use xlink:href="#DejaVuSans-46" x="98.876953"/>
     <use xlink:href="#DejaVuSans-52" x="156.396484"/>
    </g>
   </g>
   <g id="text_18">
    <!-- Main-L -->
    <g transform="translate(361.832136 66.948271)scale(0.08 -0.08)">
     <defs>
      <path id="DejaVuSans-4d" d="M 628 4666 
L 1569 4666 
L 2759 1491 
L 3956 4666 
L 4897 4666 
L 4897 0 
L 4281 0 
L 4281 4097 
L 3078 897 
L 2444 897 
L 1241 4097 
L 1241 0 
L 628 0 
L 628 4666 
z
" transform="scale(0.015625)"/>
      <path id="DejaVuSans-2d" d="M 313 2009 
L 1997 2009 
L 1997 1497 
L 313 1497 
L 313 2009 
z
" transform="scale(0.015625)"/>
     </defs>
     <use xlink:href="#DejaVuSans-4d"/>
     <use xlink:href="#DejaVuSans-61" x="86.279297"/>
     <use xlink:href="#DejaVuSans-69" x="147.558594"/>
     <use xlink:href="#DejaVuSans-6e" x="175.341797"/>
     <use xlink:href="#DejaVuSans-2d" x="238.720703"/>
     <use xlink:href="#DejaVuSans-4c" x="274.804688"/>
    </g>
   </g>
   <g id="text_19">
    <!-- Main-R -->
    <g transform="translate(361.832136 46.970182)scale(0.08 -0.08)">
     <use xlink:href="#DejaVuSans-4d"/>
     <use xlink:href="#DejaVuSans-61" x="86.279297"/>
     <use xlink:href="#DejaVuSans-69" x="147.558594"/>
     <use xlink:href="#DejaVuSans-6e" x="175.341797"/>
     <use xlink:href="#DejaVuSans-2d" x="238.720703"/>
     <use xlink:href="#DejaVuSans-52" x="274.804688"/>
    </g>
   </g>
   <g id="text_20">
    <!-- AFL -->
    <g transform="translate(361.832136 91.950935)scale(0.08 -0.08)">
     <defs>
      <path id="DejaVuSans-41" d="M 2188 4044 
L 1331 1722 
L 3047 1722 
L 2188 4044 
z
M 1831 4666 
L 2547 4666 
L 4325 0 
L 3669 0 
L 3244 1197 
L 1141 1197 
L 716 0 
L 50 0 
L 1831 4666 
z
" transform="scale(0.015625)"/>
     </defs>
     <use xlink:href="#DejaVuSans-41"/>
     <use xlink:href="#DejaVuSans-46" x="68.408203"/>
     <use xlink:href="#DejaVuSans-4c" x="125.927734"/>
    </g>
   </g>
   <g id="text_21">
    <!-- AFR -->
    <g transform="translate(361.832136 107.241025)scale(0.08 -0.08)">
     <use xlink:href="#DejaVuSans-41"/>
     <use xlink:href="#DejaVuSans-46" x="68.408203"/>
     <use xlink:href="#DejaVuSans-52" x="125.927734"/>
    </g>
   </g>
   <g id="text_22">
    <!-- Nonfinal -->
    <g transform="translate(361.832136 62.90938)scale(0.08 -0.08)">
     <defs>
      <path id="DejaVuSans-4e" d="M 628 4666 
L 1478 4666 
L 3547 763 
L 3547 4666 
L 4159 4666 
L 4159 0 
L 3309 0 
L 1241 3903 
L 1241 0 
L 628 0 
L 628 4666 
z
" transform="scale(0.015625)"/>
      <path id="DejaVuSans-66" d="M 2375 4863 
L 2375 4384 
L 1825 4384 
Q 1516 4384 1395 4259 
Q 1275 4134 1275 3809 
L 1275 3500 
L 2222 3500 
L 2222 3053 
L 1275 3053 
L 1275 0 
L 697 0 
L 697 3053 
L 147 3053 
L 147 3500 
L 697 3500 
L 697 3744 
Q 697 4328 969 4595 
Q 1241 4863 1831 4863 
L 2375 4863 
z
" transform="scale(0.015625)"/>
      <path id="DejaVuSans-6c" d="M 603 4863 
L 1178 4863 
L 1178 0 
L 603 0 
L 603 4863 
z
" transform="scale(0.015625)"/>
     </defs>
     <use xlink:href="#DejaVuSans-4e"/>
     <use xlink:href="#DejaVuSans-6f" x="74.804688"/>
     <use xlink:href="#DejaVuSans-6e" x="135.986328"/>
     <use xlink:href="#DejaVuSans-66" x="199.365234"/>
     <use xlink:href="#DejaVuSans-69" x="234.570312"/>
     <use xlink:href="#DejaVuSans-6e" x="262.353516"/>
     <use xlink:href="#DejaVuSans-61" x="325.732422"/>
     <use xlink:href="#DejaVuSans-6c" x="387.011719"/>
    </g>
   </g>
   <g id="text_23">
    <!-- Trochaic -->
    <g transform="translate(361.832136 136.547031)scale(0.08 -0.08)">
     <defs>
      <path id="DejaVuSans-54" d="M -19 4666 
L 3928 4666 
L 3928 4134 
L 2272 4134 
L 2272 0 
L 1638 0 
L 1638 4134 
L -19 4134 
L -19 4666 
z
" transform="scale(0.015625)"/>
      <path id="DejaVuSans-68" d="M 3513 2113 
L 3513 0 
L 2938 0 
L 2938 2094 
Q 2938 2591 2744 2837 
Q 2550 3084 2163 3084 
Q 1697 3084 1428 2787 
Q 1159 2491 1159 1978 
L 1159 0 
L 581 0 
L 581 4863 
L 1159 4863 
L 1159 2956 
Q 1366 3272 1645 3428 
Q 1925 3584 2291 3584 
Q 2894 3584 3203 3211 
Q 3513 2838 3513 2113 
z
" transform="scale(0.015625)"/>
     </defs>
     <use xlink:href="#DejaVuSans-54"/>
     <use xlink:href="#DejaVuSans-72" x="46.333984"/>
     <use xlink:href="#DejaVuSans-6f" x="85.197266"/>
     <use xlink:href="#DejaVuSans-63" x="146.378906"/>
     <use xlink:href="#DejaVuSans-68" x="201.359375"/>
     <use xlink:href="#DejaVuSans-61" x="264.738281"/>
     <use xlink:href="#DejaVuSans-69" x="326.017578"/>
     <use xlink:href="#DejaVuSans-63" x="353.800781"/>
    </g>
   </g>
  </g>
  <g id="axes_2">
   <g id="patch_7">
    <path d="M 57.6 307.584 
L 414.72 307.584 
L 414.72 186.624 
L 57.6 186.624 
z
" style="fill: #ffffff"/>
   </g>
   <g id="matplotlib.axis_3">
    <g id="xtick_8">
     <g id="line2d_24">
      <g>
       <use xlink:href="#m1914880251" x="72.415022" y="307.584" style="stroke: #000000; stroke-width: 0.8"/>
      </g>
     </g>
     <g id="text_24">
      <!-- 0 -->
      <g transform="translate(69.233772 322.182437)scale(0.1 -0.1)">
       <use xlink:href="#DejaVuSans-30"/>
      </g>
     </g>
    </g>
    <g id="xtick_9">
     <g id="line2d_25">
      <g>
       <use xlink:href="#m1914880251" x="143.300294" y="307.584" style="stroke: #000000; stroke-width: 0.8"/>
      </g>
     </g>
     <g id="text_25">
      <!-- 50 -->
      <g transform="translate(136.937794 322.182437)scale(0.1 -0.1)">
       <use xlink:href="#DejaVuSans-35"/>
       <use xlink:href="#DejaVuSans-30" x="63.623047"/>
      </g>
     </g>
    </g>
    <g id="xtick_10">
     <g id="line2d_26">
      <g>
       <use xlink:href="#m1914880251" x="214.185566" y="307.584" style="stroke: #000000; stroke-width: 0.8"/>
      </g>
     </g>
     <g id="text_26">
      <!-- 100 -->
      <g transform="translate(204.641816 322.182437)scale(0.1 -0.1)">
       <use xlink:href="#DejaVuSans-31"/>
       <use xlink:href="#DejaVuSans-30" x="63.623047"/>
       <use xlink:href="#DejaVuSans-30" x="127.246094"/>
      </g>
     </g>
    </g>
    <g id="xtick_11">
     <g id="line2d_27">
      <g>
       <use xlink:href="#m1914880251" x="285.070838" y="307.584" style="stroke: #000000; stroke-width: 0.8"/>
      </g>
     </g>
     <g id="text_27">
      <!-- 150 -->
      <g transform="translate(275.527088 322.182437)scale(0.1 -0.1)">
       <use xlink:href="#DejaVuSans-31"/>
       <use xlink:href="#DejaVuSans-35" x="63.623047"/>
       <use xlink:href="#DejaVuSans-30" x="127.246094"/>
      </g>
     </g>
    </g>
    <g id="xtick_12">
     <g id="line2d_28">
      <g>
       <use xlink:href="#m1914880251" x="355.95611" y="307.584" style="stroke: #000000; stroke-width: 0.8"/>
      </g>
     </g>
     <g id="text_28">
      <!-- 200 -->
      <g transform="translate(346.41236 322.182437)scale(0.1 -0.1)">
       <use xlink:href="#DejaVuSans-32"/>
       <use xlink:href="#DejaVuSans-30" x="63.623047"/>
       <use xlink:href="#DejaVuSans-30" x="127.246094"/>
      </g>
     </g>
    </g>
   </g>
   <g id="matplotlib.axis_4">
    <g id="ytick_5">
     <g id="line2d_29">
      <g>
       <use xlink:href="#m2eca38922e" x="57.6" y="302.123297" style="stroke: #000000; stroke-width: 0.8"/>
      </g>
     </g>
     <g id="text_29">
      <!-- 0 -->
      <g transform="translate(44.2375 305.922516)scale(0.1 -0.1)">
       <use xlink:href="#DejaVuSans-30"/>
      </g>
     </g>
    </g>
    <g id="ytick_6">
     <g id="line2d_30">
      <g>
       <use xlink:href="#m2eca38922e" x="57.6" y="264.644212" style="stroke: #000000; stroke-width: 0.8"/>
      </g>
     </g>
     <g id="text_30">
      <!-- 1000 -->
      <g transform="translate(25.15 268.443431)scale(0.1 -0.1)">
       <use xlink:href="#DejaVuSans-31"/>
       <use xlink:href="#DejaVuSans-30" x="63.623047"/>
       <use xlink:href="#DejaVuSans-30" x="127.246094"/>
       <use xlink:href="#DejaVuSans-30" x="190.869141"/>
      </g>
     </g>
    </g>
    <g id="ytick_7">
     <g id="line2d_31">
      <g>
       <use xlink:href="#m2eca38922e" x="57.6" y="227.165127" style="stroke: #000000; stroke-width: 0.8"/>
      </g>
     </g>
     <g id="text_31">
      <!-- 2000 -->
      <g transform="translate(25.15 230.964345)scale(0.1 -0.1)">
       <use xlink:href="#DejaVuSans-32"/>
       <use xlink:href="#DejaVuSans-30" x="63.623047"/>
       <use xlink:href="#DejaVuSans-30" x="127.246094"/>
       <use xlink:href="#DejaVuSans-30" x="190.869141"/>
      </g>
     </g>
    </g>
    <g id="ytick_8">
     <g id="line2d_32">
      <g>
       <use xlink:href="#m2eca38922e" x="57.6" y="189.686041" style="stroke: #000000; stroke-width: 0.8"/>
      </g>
     </g>
     <g id="text_32">
      <!-- 3000 -->
      <g transform="translate(25.15 193.48526)scale(0.1 -0.1)">
       <use xlink:href="#DejaVuSans-33"/>
       <use xlink:href="#DejaVuSans-30" x="63.623047"/>
       <use xlink:href="#DejaVuSans-30" x="127.246094"/>
       <use xlink:href="#DejaVuSans-30" x="190.869141"/>
      </g>
     </g>
    </g>
   </g>
   <g id="line2d_33">
    <path d="M 73.832727 302.085818 
L 99.351425 302.048339 
L 100.769131 301.973381 
L 103.604541 302.048339 
L 107.857658 302.085818 
L 109.275363 302.01086 
L 110.693069 302.085818 
L 116.36389 302.01086 
L 117.781596 301.785985 
L 119.199301 302.085818 
L 120.617007 302.085818 
L 122.034712 301.823465 
L 123.452418 302.01086 
L 126.287829 301.785985 
L 127.705534 302.048339 
L 130.540945 302.048339 
L 131.95865 301.785985 
L 133.376356 302.085818 
L 137.629472 302.048339 
L 139.047177 301.898423 
L 140.464883 302.01086 
L 143.300294 302.01086 
L 144.717999 301.561111 
L 146.135705 301.898423 
L 147.55341 301.448674 
L 148.971116 301.860944 
L 151.806526 302.048339 
L 153.224232 301.486153 
L 154.641937 302.085818 
L 156.059643 301.711027 
L 157.477348 301.711027 
L 158.895054 302.085818 
L 160.312759 301.860944 
L 161.730464 302.048339 
L 163.14817 301.711027 
L 164.565875 301.785985 
L 165.983581 302.085818 
L 168.818992 301.935902 
L 170.236697 301.860944 
L 171.654403 301.59859 
L 173.072108 300.886487 
L 174.489813 301.898423 
L 175.907519 301.973381 
L 177.325224 301.935902 
L 178.74293 301.073883 
L 180.160635 301.898423 
L 181.578341 300.849008 
L 182.996046 302.01086 
L 184.413751 300.174385 
L 185.831457 302.048339 
L 188.666868 301.748506 
L 190.084573 300.624134 
L 191.502279 301.935902 
L 192.919984 301.111362 
L 194.33769 302.085818 
L 195.755395 301.636069 
L 197.1731 300.811529 
L 198.590806 301.036404 
L 200.008511 300.324301 
L 201.426217 301.860944 
L 202.843922 301.935902 
L 205.679333 301.748506 
L 207.097039 302.048339 
L 208.514744 301.561111 
L 211.350155 302.01086 
L 212.76786 301.748506 
L 214.185566 301.748506 
L 217.020977 302.085818 
L 218.438682 301.935902 
L 219.856387 301.486153 
L 221.274093 300.174385 
L 222.691798 302.085818 
L 224.109504 299.349845 
L 225.527209 301.711027 
L 226.944915 300.736571 
L 228.36262 302.085818 
L 229.780326 301.486153 
L 231.198031 299.387324 
L 232.615736 301.561111 
L 234.033442 302.048339 
L 235.451147 301.59859 
L 236.868853 302.01086 
L 238.286558 302.085818 
L 239.704264 300.36178 
L 241.121969 301.973381 
L 242.539674 301.711027 
L 243.95738 300.324301 
L 245.375085 301.935902 
L 246.792791 300.399259 
L 248.210496 302.01086 
L 249.628202 301.898423 
L 251.045907 298.300431 
L 252.463613 300.249343 
L 253.881318 291.704112 
L 255.299023 298.712701 
L 256.716729 300.436738 
L 258.134434 301.336236 
L 259.55214 301.823465 
L 260.969845 301.073883 
L 262.387551 299.087491 
L 263.805256 295.976727 
L 265.222961 301.336236 
L 266.640667 296.538914 
L 268.058372 302.048339 
L 269.476078 298.225472 
L 270.893783 301.711027 
L 272.311489 301.711027 
L 273.729194 300.923967 
L 275.1469 302.01086 
L 276.564605 301.711027 
L 277.98231 301.18632 
L 279.400016 300.849008 
L 280.817721 296.126644 
L 282.235427 298.937575 
L 283.653132 300.923967 
L 285.070838 299.612199 
L 286.488543 292.378735 
L 287.906249 296.463955 
L 289.323954 295.489499 
L 290.741659 299.199929 
L 292.159365 294.852355 
L 293.57707 296.801267 
L 294.994776 295.639416 
L 296.412481 288.405952 
L 297.830187 297.888161 
L 299.247892 299.274887 
L 300.665597 301.561111 
L 302.083303 301.59859 
L 303.501008 295.002271 
L 304.918714 301.486153 
L 306.336419 301.373716 
L 307.754125 301.748506 
L 309.17183 297.138579 
L 310.589536 296.27656 
L 312.007241 301.898423 
L 313.424946 273.75163 
L 314.842652 301.935902 
L 316.260357 276.749956 
L 317.678063 298.900096 
L 319.095768 294.852355 
L 320.513474 293.465629 
L 321.931179 301.223799 
L 323.348884 299.012533 
L 324.76659 300.624134 
L 326.184295 244.25559 
L 327.602001 299.724636 
L 329.019706 293.503108 
L 330.437412 299.874552 
L 331.855117 276.787436 
L 333.272823 269.778847 
L 334.690528 284.845439 
L 336.108233 283.196359 
L 337.525939 292.865963 
L 338.943644 297.813202 
L 340.36135 267.342706 
L 341.779055 302.01086 
L 343.196761 270.753303 
L 344.614466 244.25559 
L 346.032171 301.523632 
L 348.867582 232.74951 
L 350.285288 271.502885 
L 351.702993 231.92497 
L 353.120699 261.945718 
L 354.538404 296.164123 
L 355.95611 289.642762 
L 357.373815 281.547279 
L 358.79152 284.058378 
L 360.209226 262.695299 
L 361.626931 276.375166 
L 363.044637 291.554195 
L 364.462342 271.69028 
L 365.880048 282.74661 
L 367.297753 296.388997 
L 368.715459 291.741591 
L 370.133164 295.03975 
L 371.550869 192.122182 
L 372.968575 267.155311 
L 374.38628 289.867636 
L 375.803986 228.326978 
L 377.221691 289.980074 
L 378.639397 293.80294 
L 380.057102 266.143375 
L 381.474807 286.756872 
L 382.892513 218.769811 
L 384.310218 274.988439 
L 385.727924 231.55018 
L 387.145629 287.768808 
L 388.563335 289.417887 
L 389.98104 275.438189 
L 391.398746 299.874552 
L 392.816451 258.685037 
L 394.234156 253.437965 
L 395.651862 292.940921 
L 397.069567 287.206621 
L 398.487273 234.585985 
L 398.487273 234.585985 
" clip-path="url(#pdce7f93854)" style="fill: none; stroke: #1f77b4; stroke-width: 1.5; stroke-linecap: square"/>
   </g>
   <g id="patch_8">
    <path d="M 57.6 307.584 
L 57.6 186.624 
" style="fill: none; stroke: #000000; stroke-width: 0.8; stroke-linejoin: miter; stroke-linecap: square"/>
   </g>
   <g id="patch_9">
    <path d="M 414.72 307.584 
L 414.72 186.624 
" style="fill: none; stroke: #000000; stroke-width: 0.8; stroke-linejoin: miter; stroke-linecap: square"/>
   </g>
   <g id="patch_10">
    <path d="M 57.6 307.584 
L 414.72 307.584 
" style="fill: none; stroke: #000000; stroke-width: 0.8; stroke-linejoin: miter; stroke-linecap: square"/>
   </g>
   <g id="patch_11">
    <path d="M 57.6 186.624 
L 414.72 186.624 
" style="fill: none; stroke: #000000; stroke-width: 0.8; stroke-linejoin: miter; stroke-linecap: square"/>
   </g>
  </g>
 </g>
 <defs>
  <clipPath id="pe38bd9dd7f">
   <rect x="57.6" y="41.472" width="357.12" height="120.96"/>
  </clipPath>
  <clipPath id="pdce7f93854">
   <rect x="57.6" y="186.624" width="357.12" height="120.96"/>
  </clipPath>
 </defs>
</svg>
