<?xml version="1.0" encoding="utf-8" standalone="no"?>
<!DOCTYPE svg PUBLIC "-//W3C//DTD SVG 1.1//EN"
  "http://www.w3.org/Graphics/SVG/1.1/DTD/svg11.dtd">
<svg xmlns:xlink="http://www.w3.org/1999/xlink" width="460.8pt" height="345.6pt" viewBox="0 0 460.8 345.6" xmlns="http://www.w3.org/2000/svg" version="1.1">
 <metadata>
  <rdf:RDF xmlns:dc="http://purl.org/dc/elements/1.1/" xmlns:cc="http://creativecommons.org/ns#" xmlns:rdf="http://www.w3.org/1999/02/22-rdf-syntax-ns#">
   <cc:Work>
    <dc:type rdf:resource="http://purl.org/dc/dcmitype/StillImage"/>
    <dc:date>2022-05-14T03:13:20.095550</dc:date>
    <dc:format>image/svg+xml</dc:format>
    <dc:creator>
     <cc:Agent>
      <dc:title>Matplotlib v3.5.1, https://matplotlib.org/</dc:title>
     </cc:Agent>
    </dc:creator>
   </cc:Work>
  </rdf:RDF>
 </metadata>
 <defs>
  <style type="text/css">*{stroke-linejoin: round; stroke-linecap: butt}</style>
 </defs>
 <g id="figure_1">
  <g id="patch_1">
   <path d="M 0 345.6 
L 460.8 345.6 
L 460.8 0 
L 0 0 
z
" style="fill: #ffffff"/>
  </g>
  <g id="axes_1">
   <g id="patch_2">
    <path d="M 57.6 162.432 
L 414.72 162.432 
L 414.72 41.472 
L 57.6 41.472 
z
" style="fill: #ffffff"/>
   </g>
   <g id="matplotlib.axis_1">
    <g id="xtick_1">
     <g id="line2d_1">
      <defs>
       <path id="mb640c61438" d="M 0 0 
L 0 3.5 
" style="stroke: #000000; stroke-width: 0.8"/>
      </defs>
      <g>
       <use xlink:href="#mb640c61438" x="73.827491" y="162.432" style="stroke: #000000; stroke-width: 0.8"/>
      </g>
     </g>
     <g id="text_1">
      <!-- 0 -->
      <g transform="translate(70.646241 177.030437)scale(0.1 -0.1)">
       <defs>
        <path id="DejaVuSans-30" d="M 2034 4250 
Q 1547 4250 1301 3770 
Q 1056 3291 1056 2328 
Q 1056 1369 1301 889 
Q 1547 409 2034 409 
Q 2525 409 2770 889 
Q 3016 1369 3016 2328 
Q 3016 3291 2770 3770 
Q 2525 4250 2034 4250 
z
M 2034 4750 
Q 2819 4750 3233 4129 
Q 3647 3509 3647 2328 
Q 3647 1150 3233 529 
Q 2819 -91 2034 -91 
Q 1250 -91 836 529 
Q 422 1150 422 2328 
Q 422 3509 836 4129 
Q 1250 4750 2034 4750 
z
" transform="scale(0.015625)"/>
       </defs>
       <use xlink:href="#DejaVuSans-30"/>
      </g>
     </g>
    </g>
    <g id="xtick_2">
     <g id="line2d_2">
      <g>
       <use xlink:href="#mb640c61438" x="126.191972" y="162.432" style="stroke: #000000; stroke-width: 0.8"/>
      </g>
     </g>
     <g id="text_2">
      <!-- 10000 -->
      <g transform="translate(110.285722 177.030437)scale(0.1 -0.1)">
       <defs>
        <path id="DejaVuSans-31" d="M 794 531 
L 1825 531 
L 1825 4091 
L 703 3866 
L 703 4441 
L 1819 4666 
L 2450 4666 
L 2450 531 
L 3481 531 
L 3481 0 
L 794 0 
L 794 531 
z
" transform="scale(0.015625)"/>
       </defs>
       <use xlink:href="#DejaVuSans-31"/>
       <use xlink:href="#DejaVuSans-30" x="63.623047"/>
       <use xlink:href="#DejaVuSans-30" x="127.246094"/>
       <use xlink:href="#DejaVuSans-30" x="190.869141"/>
       <use xlink:href="#DejaVuSans-30" x="254.492188"/>
      </g>
     </g>
    </g>
    <g id="xtick_3">
     <g id="line2d_3">
      <g>
       <use xlink:href="#mb640c61438" x="178.556453" y="162.432" style="stroke: #000000; stroke-width: 0.8"/>
      </g>
     </g>
     <g id="text_3">
      <!-- 20000 -->
      <g transform="translate(162.650203 177.030437)scale(0.1 -0.1)">
       <defs>
        <path id="DejaVuSans-32" d="M 1228 531 
L 3431 531 
L 3431 0 
L 469 0 
L 469 531 
Q 828 903 1448 1529 
Q 2069 2156 2228 2338 
Q 2531 2678 2651 2914 
Q 2772 3150 2772 3378 
Q 2772 3750 2511 3984 
Q 2250 4219 1831 4219 
Q 1534 4219 1204 4116 
Q 875 4013 500 3803 
L 500 4441 
Q 881 4594 1212 4672 
Q 1544 4750 1819 4750 
Q 2544 4750 2975 4387 
Q 3406 4025 3406 3419 
Q 3406 3131 3298 2873 
Q 3191 2616 2906 2266 
Q 2828 2175 2409 1742 
Q 1991 1309 1228 531 
z
" transform="scale(0.015625)"/>
       </defs>
       <use xlink:href="#DejaVuSans-32"/>
       <use xlink:href="#DejaVuSans-30" x="63.623047"/>
       <use xlink:href="#DejaVuSans-30" x="127.246094"/>
       <use xlink:href="#DejaVuSans-30" x="190.869141"/>
       <use xlink:href="#DejaVuSans-30" x="254.492188"/>
      </g>
     </g>
    </g>
    <g id="xtick_4">
     <g id="line2d_4">
      <g>
       <use xlink:href="#mb640c61438" x="230.920934" y="162.432" style="stroke: #000000; stroke-width: 0.8"/>
      </g>
     </g>
     <g id="text_4">
      <!-- 30000 -->
      <g transform="translate(215.014684 177.030437)scale(0.1 -0.1)">
       <defs>
        <path id="DejaVuSans-33" d="M 2597 2516 
Q 3050 2419 3304 2112 
Q 3559 1806 3559 1356 
Q 3559 666 3084 287 
Q 2609 -91 1734 -91 
Q 1441 -91 1130 -33 
Q 819 25 488 141 
L 488 750 
Q 750 597 1062 519 
Q 1375 441 1716 441 
Q 2309 441 2620 675 
Q 2931 909 2931 1356 
Q 2931 1769 2642 2001 
Q 2353 2234 1838 2234 
L 1294 2234 
L 1294 2753 
L 1863 2753 
Q 2328 2753 2575 2939 
Q 2822 3125 2822 3475 
Q 2822 3834 2567 4026 
Q 2313 4219 1838 4219 
Q 1578 4219 1281 4162 
Q 984 4106 628 3988 
L 628 4550 
Q 988 4650 1302 4700 
Q 1616 4750 1894 4750 
Q 2613 4750 3031 4423 
Q 3450 4097 3450 3541 
Q 3450 3153 3228 2886 
Q 3006 2619 2597 2516 
z
" transform="scale(0.015625)"/>
       </defs>
       <use xlink:href="#DejaVuSans-33"/>
       <use xlink:href="#DejaVuSans-30" x="63.623047"/>
       <use xlink:href="#DejaVuSans-30" x="127.246094"/>
       <use xlink:href="#DejaVuSans-30" x="190.869141"/>
       <use xlink:href="#DejaVuSans-30" x="254.492188"/>
      </g>
     </g>
    </g>
    <g id="xtick_5">
     <g id="line2d_5">
      <g>
       <use xlink:href="#mb640c61438" x="283.285415" y="162.432" style="stroke: #000000; stroke-width: 0.8"/>
      </g>
     </g>
     <g id="text_5">
      <!-- 40000 -->
      <g transform="translate(267.379165 177.030437)scale(0.1 -0.1)">
       <defs>
        <path id="DejaVuSans-34" d="M 2419 4116 
L 825 1625 
L 2419 1625 
L 2419 4116 
z
M 2253 4666 
L 3047 4666 
L 3047 1625 
L 3713 1625 
L 3713 1100 
L 3047 1100 
L 3047 0 
L 2419 0 
L 2419 1100 
L 313 1100 
L 313 1709 
L 2253 4666 
z
" transform="scale(0.015625)"/>
       </defs>
       <use xlink:href="#DejaVuSans-34"/>
       <use xlink:href="#DejaVuSans-30" x="63.623047"/>
       <use xlink:href="#DejaVuSans-30" x="127.246094"/>
       <use xlink:href="#DejaVuSans-30" x="190.869141"/>
       <use xlink:href="#DejaVuSans-30" x="254.492188"/>
      </g>
     </g>
    </g>
    <g id="xtick_6">
     <g id="line2d_6">
      <g>
       <use xlink:href="#mb640c61438" x="335.649896" y="162.432" style="stroke: #000000; stroke-width: 0.8"/>
      </g>
     </g>
     <g id="text_6">
      <!-- 50000 -->
      <g transform="translate(319.743646 177.030437)scale(0.1 -0.1)">
       <defs>
        <path id="DejaVuSans-35" d="M 691 4666 
L 3169 4666 
L 3169 4134 
L 1269 4134 
L 1269 2991 
Q 1406 3038 1543 3061 
Q 1681 3084 1819 3084 
Q 2600 3084 3056 2656 
Q 3513 2228 3513 1497 
Q 3513 744 3044 326 
Q 2575 -91 1722 -91 
Q 1428 -91 1123 -41 
Q 819 9 494 109 
L 494 744 
Q 775 591 1075 516 
Q 1375 441 1709 441 
Q 2250 441 2565 725 
Q 2881 1009 2881 1497 
Q 2881 1984 2565 2268 
Q 2250 2553 1709 2553 
Q 1456 2553 1204 2497 
Q 953 2441 691 2322 
L 691 4666 
z
" transform="scale(0.015625)"/>
       </defs>
       <use xlink:href="#DejaVuSans-35"/>
       <use xlink:href="#DejaVuSans-30" x="63.623047"/>
       <use xlink:href="#DejaVuSans-30" x="127.246094"/>
       <use xlink:href="#DejaVuSans-30" x="190.869141"/>
       <use xlink:href="#DejaVuSans-30" x="254.492188"/>
      </g>
     </g>
    </g>
    <g id="xtick_7">
     <g id="line2d_7">
      <g>
       <use xlink:href="#mb640c61438" x="388.014377" y="162.432" style="stroke: #000000; stroke-width: 0.8"/>
      </g>
     </g>
     <g id="text_7">
      <!-- 60000 -->
      <g transform="translate(372.108127 177.030437)scale(0.1 -0.1)">
       <defs>
        <path id="DejaVuSans-36" d="M 2113 2584 
Q 1688 2584 1439 2293 
Q 1191 2003 1191 1497 
Q 1191 994 1439 701 
Q 1688 409 2113 409 
Q 2538 409 2786 701 
Q 3034 994 3034 1497 
Q 3034 2003 2786 2293 
Q 2538 2584 2113 2584 
z
M 3366 4563 
L 3366 3988 
Q 3128 4100 2886 4159 
Q 2644 4219 2406 4219 
Q 1781 4219 1451 3797 
Q 1122 3375 1075 2522 
Q 1259 2794 1537 2939 
Q 1816 3084 2150 3084 
Q 2853 3084 3261 2657 
Q 3669 2231 3669 1497 
Q 3669 778 3244 343 
Q 2819 -91 2113 -91 
Q 1303 -91 875 529 
Q 447 1150 447 2328 
Q 447 3434 972 4092 
Q 1497 4750 2381 4750 
Q 2619 4750 2861 4703 
Q 3103 4656 3366 4563 
z
" transform="scale(0.015625)"/>
       </defs>
       <use xlink:href="#DejaVuSans-36"/>
       <use xlink:href="#DejaVuSans-30" x="63.623047"/>
       <use xlink:href="#DejaVuSans-30" x="127.246094"/>
       <use xlink:href="#DejaVuSans-30" x="190.869141"/>
       <use xlink:href="#DejaVuSans-30" x="254.492188"/>
      </g>
     </g>
    </g>
   </g>
   <g id="matplotlib.axis_2">
    <g id="ytick_1">
     <g id="line2d_8">
      <defs>
       <path id="m29fb622321" d="M 0 0 
L -3.5 0 
" style="stroke: #000000; stroke-width: 0.8"/>
      </defs>
      <g>
       <use xlink:href="#m29fb622321" x="57.6" y="160.469153" style="stroke: #000000; stroke-width: 0.8"/>
      </g>
     </g>
     <g id="text_8">
      <!-- −25 -->
      <g transform="translate(29.495313 164.268372)scale(0.1 -0.1)">
       <defs>
        <path id="DejaVuSans-2212" d="M 678 2272 
L 4684 2272 
L 4684 1741 
L 678 1741 
L 678 2272 
z
" transform="scale(0.015625)"/>
       </defs>
       <use xlink:href="#DejaVuSans-2212"/>
       <use xlink:href="#DejaVuSans-32" x="83.789062"/>
       <use xlink:href="#DejaVuSans-35" x="147.412109"/>
      </g>
     </g>
    </g>
    <g id="ytick_2">
     <g id="line2d_9">
      <g>
       <use xlink:href="#m29fb622321" x="57.6" y="138.373312" style="stroke: #000000; stroke-width: 0.8"/>
      </g>
     </g>
     <g id="text_9">
      <!-- 0 -->
      <g transform="translate(44.2375 142.17253)scale(0.1 -0.1)">
       <use xlink:href="#DejaVuSans-30"/>
      </g>
     </g>
    </g>
    <g id="ytick_3">
     <g id="line2d_10">
      <g>
       <use xlink:href="#m29fb622321" x="57.6" y="116.27747" style="stroke: #000000; stroke-width: 0.8"/>
      </g>
     </g>
     <g id="text_10">
      <!-- 25 -->
      <g transform="translate(37.875 120.076689)scale(0.1 -0.1)">
       <use xlink:href="#DejaVuSans-32"/>
       <use xlink:href="#DejaVuSans-35" x="63.623047"/>
      </g>
     </g>
    </g>
    <g id="ytick_4">
     <g id="line2d_11">
      <g>
       <use xlink:href="#m29fb622321" x="57.6" y="94.181629" style="stroke: #000000; stroke-width: 0.8"/>
      </g>
     </g>
     <g id="text_11">
      <!-- 50 -->
      <g transform="translate(37.875 97.980848)scale(0.1 -0.1)">
       <use xlink:href="#DejaVuSans-35"/>
       <use xlink:href="#DejaVuSans-30" x="63.623047"/>
      </g>
     </g>
    </g>
    <g id="ytick_5">
     <g id="line2d_12">
      <g>
       <use xlink:href="#m29fb622321" x="57.6" y="72.085788" style="stroke: #000000; stroke-width: 0.8"/>
      </g>
     </g>
     <g id="text_12">
      <!-- 75 -->
      <g transform="translate(37.875 75.885007)scale(0.1 -0.1)">
       <defs>
        <path id="DejaVuSans-37" d="M 525 4666 
L 3525 4666 
L 3525 4397 
L 1831 0 
L 1172 0 
L 2766 4134 
L 525 4134 
L 525 4666 
z
" transform="scale(0.015625)"/>
       </defs>
       <use xlink:href="#DejaVuSans-37"/>
       <use xlink:href="#DejaVuSans-35" x="63.623047"/>
      </g>
     </g>
    </g>
    <g id="ytick_6">
     <g id="line2d_13">
      <g>
       <use xlink:href="#m29fb622321" x="57.6" y="49.989947" style="stroke: #000000; stroke-width: 0.8"/>
      </g>
     </g>
     <g id="text_13">
      <!-- 100 -->
      <g transform="translate(31.5125 53.789166)scale(0.1 -0.1)">
       <use xlink:href="#DejaVuSans-31"/>
       <use xlink:href="#DejaVuSans-30" x="63.623047"/>
       <use xlink:href="#DejaVuSans-30" x="127.246094"/>
      </g>
     </g>
    </g>
   </g>
   <g id="line2d_14">
    <path d="M 73.832727 49.842641 
L 73.879855 49.842641 
L 73.91651 49.400724 
L 73.947929 51.610308 
L 73.979348 50.579169 
L 74.026476 52.346837 
L 74.099786 52.199531 
L 74.115495 52.199531 
L 74.173096 51.757614 
L 74.188806 53.525281 
L 74.214988 53.083365 
L 74.335426 53.083365 
L 74.429682 54.188157 
L 74.445392 53.74624 
L 74.487283 53.74624 
L 74.602485 53.304323 
L 74.770051 53.304323 
L 74.885253 52.862406 
L 74.9638 52.862406 
L 75.084238 54.630073 
L 75.120894 54.630073 
L 75.147076 54.188157 
L 75.152312 55.07199 
L 75.230859 54.630073 
L 76.105346 54.630073 
L 76.115819 54.188157 
L 76.121055 55.07199 
L 76.210075 55.07199 
L 76.24673 55.07199 
L 76.288621 55.955824 
L 76.356695 55.513907 
L 76.581863 55.513907 
L 76.613281 55.07199 
L 76.618518 55.955824 
L 76.686591 55.955824 
L 76.80703 55.955824 
L 76.911759 55.513907 
L 76.979833 56.397741 
L 77.021724 55.955824 
L 77.252128 55.955824 
L 77.36733 55.513907 
L 77.435404 55.513907 
L 77.503477 57.281574 
L 77.550605 56.839658 
L 77.775773 56.839658 
L 77.83861 57.723491 
L 77.880502 56.397741 
L 77.906684 56.397741 
L 78.021886 55.955824 
L 78.357018 55.955824 
L 78.47222 56.839658 
L 79.079648 56.839658 
L 79.116303 57.723491 
L 79.189614 57.281574 
L 79.299579 57.281574 
L 79.414781 56.839658 
L 79.524746 56.839658 
L 79.639948 57.723491 
L 79.676603 57.723491 
L 79.791805 57.281574 
L 80.111229 57.281574 
L 80.22643 56.839658 
L 80.383524 56.839658 
L 80.498726 57.723491 
L 80.943824 57.723491 
L 81.059026 58.607325 
L 81.20041 58.607325 
L 81.315612 58.165408 
L 81.43605 58.165408 
L 81.551252 57.723491 
L 81.566961 57.723491 
L 81.682163 58.607325 
L 81.954458 58.607325 
L 82.012059 59.491158 
L 82.064424 59.049242 
L 82.137734 59.049242 
L 82.148207 58.607325 
L 82.153443 59.491158 
L 82.242463 59.491158 
L 83.342117 59.491158 
L 83.357826 59.049242 
L 83.363063 59.933075 
L 83.446846 59.933075 
L 84.326569 59.933075 
L 84.441771 59.491158 
L 85.263893 59.491158 
L 85.379095 59.049242 
L 86.143617 59.049242 
L 86.264055 60.816909 
L 87.122833 60.816909 
L 87.238034 60.374992 
L 88.510491 60.374992 
L 88.63093 59.491158 
L 88.688531 59.491158 
L 88.803732 60.374992 
L 89.343087 60.374992 
L 89.458288 61.258826 
L 89.950515 61.258826 
L 90.065716 60.816909 
L 90.217573 60.816909 
L 90.332775 60.374992 
L 91.364355 60.374992 
L 91.479557 59.933075 
L 92.102695 59.933075 
L 92.217897 59.491158 
L 92.940526 59.491158 
L 93.055728 60.374992 
L 93.165694 60.374992 
L 93.280895 59.933075 
L 93.589846 59.933075 
L 93.705048 60.816909 
L 93.89356 60.816909 
L 94.008762 60.374992 
L 94.307239 60.374992 
L 94.422441 59.933075 
L 96.522257 59.933075 
L 96.637459 60.816909 
L 97.014483 60.816909 
L 97.129685 60.374992 
L 97.716167 60.374992 
L 97.831369 59.933075 
L 98.784402 59.933075 
L 98.899604 60.816909 
L 101.774414 60.816909 
L 101.889616 60.374992 
L 107.021335 60.374992 
L 107.136537 59.933075 
L 108.791255 59.933075 
L 108.906457 59.491158 
L 110.02182 59.491158 
L 110.137022 60.374992 
L 110.336007 60.374992 
L 110.451209 59.933075 
L 112.325857 59.933075 
L 112.441059 60.816909 
L 114.394254 60.816909 
L 114.509456 60.374992 
L 115.865696 60.374992 
L 115.980898 59.933075 
L 116.886804 59.933075 
L 117.002005 60.816909 
L 120.143874 60.816909 
L 120.259076 60.374992 
L 123.249088 60.374992 
L 123.36429 61.258826 
L 123.427127 61.258826 
L 123.542329 62.142659 
L 123.976954 62.142659 
L 124.097393 61.258826 
L 127.43301 61.258826 
L 127.548212 62.142659 
L 128.239423 62.142659 
L 128.354625 61.700743 
L 133.371142 61.700743 
L 133.486344 61.258826 
L 134.601707 61.258826 
L 134.716909 61.037867 
L 149.326599 61.037867 
L 149.441801 61.921701 
L 154.259334 61.921701 
L 154.374535 61.479784 
L 166.313637 61.479784 
L 166.428839 61.037867 
L 170.675598 61.037867 
L 170.7908 61.921701 
L 174.430132 61.921701 
L 174.545333 61.479784 
L 180.017422 61.479784 
L 180.132624 62.363618 
L 180.441574 62.363618 
L 180.556776 61.921701 
L 182.022981 61.921701 
L 182.138183 61.479784 
L 196.685036 61.479784 
L 196.800238 62.363618 
L 206.927529 62.363618 
L 207.04273 61.921701 
L 210.446422 61.921701 
L 210.561623 62.805535 
L 213.92866 62.805535 
L 214.043861 62.363618 
L 231.654036 62.363618 
L 231.769238 63.247452 
L 245.614407 63.247452 
L 245.729609 62.805535 
L 257.207903 62.805535 
L 257.323105 63.689368 
L 267.251411 63.689368 
L 267.366612 63.247452 
L 299.858773 63.247452 
L 299.973975 62.805535 
L 398.487273 62.805535 
L 398.487273 62.805535 
" clip-path="url(#pf0e78a08bd)" style="fill: none; stroke: #1f77b4; stroke-width: 1.5; stroke-linecap: square"/>
   </g>
   <g id="line2d_15">
    <path d="M 73.832727 49.989947 
L 73.963638 54.188157 
L 73.979348 53.451629 
L 74.021239 56.545046 
L 74.042185 56.545046 
L 74.057895 56.545046 
L 74.089313 55.808518 
L 74.09455 56.692352 
L 74.16786 56.545046 
L 74.173096 56.545046 
L 74.288298 57.870797 
L 74.298771 57.870797 
L 74.413973 59.638464 
L 74.424446 60.080381 
L 74.529175 59.196547 
L 74.770051 59.196547 
L 74.885253 58.607325 
L 74.9638 58.607325 
L 75.084238 60.374992 
L 75.120894 60.374992 
L 75.147076 59.933075 
L 75.152312 60.816909 
L 75.230859 60.374992 
L 75.691666 60.374992 
L 75.806868 61.258826 
L 76.105346 61.258826 
L 76.115819 60.816909 
L 76.121055 61.700743 
L 76.210075 61.700743 
L 76.24673 61.700743 
L 76.288621 62.584576 
L 76.356695 62.142659 
L 76.581863 62.142659 
L 76.613281 61.700743 
L 76.618518 62.584576 
L 76.686591 62.584576 
L 76.80703 62.584576 
L 76.911759 62.142659 
L 76.979833 63.026493 
L 77.021724 62.584576 
L 77.252128 62.584576 
L 77.36733 62.142659 
L 77.414458 62.142659 
L 77.503477 64.79416 
L 77.534896 64.352244 
L 77.775773 64.352244 
L 77.83861 65.236077 
L 77.880502 63.910327 
L 77.906684 63.910327 
L 78.021886 63.46841 
L 78.063777 63.46841 
L 78.178979 64.352244 
L 78.357018 64.352244 
L 78.47222 65.236077 
L 78.603131 65.236077 
L 78.718333 65.015119 
L 79.079648 65.015119 
L 79.116303 65.898952 
L 79.189614 65.457036 
L 79.299579 65.457036 
L 79.414781 65.015119 
L 79.676603 65.015119 
L 79.697549 64.573202 
L 79.702786 65.457036 
L 79.781332 65.457036 
L 79.859879 65.457036 
L 79.975081 66.340869 
L 80.111229 66.340869 
L 80.22643 65.898952 
L 80.383524 65.898952 
L 80.498726 66.782786 
L 80.943824 66.782786 
L 81.059026 67.66662 
L 81.20041 67.66662 
L 81.315612 67.224703 
L 81.43605 67.224703 
L 81.551252 66.782786 
L 81.954458 66.782786 
L 82.012059 67.66662 
L 82.064424 67.224703 
L 82.137734 67.224703 
L 82.252936 66.782786 
L 83.342117 66.782786 
L 83.357826 66.340869 
L 83.363063 67.224703 
L 83.446846 67.224703 
L 83.473028 67.224703 
L 83.58823 68.108537 
L 83.598703 68.108537 
L 83.713905 67.961231 
L 84.326569 67.961231 
L 84.436535 67.519314 
L 84.551737 68.403148 
L 85.263893 68.403148 
L 85.379095 67.961231 
L 86.143617 67.961231 
L 86.264055 69.728898 
L 87.122833 69.728898 
L 87.238034 69.286981 
L 88.510491 69.286981 
L 88.63093 68.403148 
L 89.343087 68.403148 
L 89.458288 69.286981 
L 89.950515 69.286981 
L 90.065716 68.845065 
L 90.217573 68.845065 
L 90.332775 68.403148 
L 91.071114 68.403148 
L 91.186316 69.286981 
L 91.364355 69.286981 
L 91.479557 68.845065 
L 92.024148 68.845065 
L 92.102695 69.728898 
L 92.134113 69.286981 
L 93.034782 69.286981 
L 93.149984 70.170815 
L 93.165694 70.170815 
L 93.280895 69.728898 
L 93.348969 69.728898 
L 93.464171 70.612732 
L 93.589846 70.612732 
L 93.705048 71.496566 
L 93.89356 71.496566 
L 94.008762 71.054649 
L 94.307239 71.054649 
L 94.422441 70.612732 
L 95.129362 70.612732 
L 95.244564 71.496566 
L 95.846755 71.496566 
L 95.961957 72.380399 
L 97.014483 72.380399 
L 97.129685 71.938482 
L 97.716167 71.938482 
L 97.831369 71.496566 
L 98.784402 71.496566 
L 98.899604 72.380399 
L 101.774414 72.380399 
L 101.889616 71.938482 
L 105.188578 71.938482 
L 105.30378 72.822316 
L 107.021335 72.822316 
L 107.068463 72.380399 
L 107.0737 73.264233 
L 107.126064 73.264233 
L 108.791255 73.264233 
L 108.906457 72.822316 
L 110.02182 72.822316 
L 110.137022 73.70615 
L 110.336007 73.70615 
L 110.451209 73.264233 
L 112.325857 73.264233 
L 112.441059 74.148066 
L 114.394254 74.148066 
L 114.509456 73.70615 
L 115.865696 73.70615 
L 115.980898 73.264233 
L 116.059445 73.264233 
L 116.174647 74.148066 
L 116.886804 74.148066 
L 117.002005 75.0319 
L 120.143874 75.0319 
L 120.259076 74.589983 
L 123.249088 74.589983 
L 123.36429 75.473817 
L 123.976954 75.473817 
L 124.097393 74.589983 
L 127.43301 74.589983 
L 127.548212 75.473817 
L 128.239423 75.473817 
L 128.354625 75.0319 
L 133.371142 75.0319 
L 133.486344 74.589983 
L 139.906229 74.589983 
L 140.021431 75.473817 
L 149.326599 75.473817 
L 149.441801 76.357651 
L 154.259334 76.357651 
L 154.374535 75.915734 
L 166.313637 75.915734 
L 166.428839 75.473817 
L 174.430132 75.473817 
L 174.545333 75.0319 
L 175.351746 75.0319 
L 175.466948 75.915734 
L 180.017422 75.915734 
L 180.132624 76.799567 
L 180.441574 76.799567 
L 180.556776 76.357651 
L 182.022981 76.357651 
L 182.138183 75.915734 
L 191.621391 75.915734 
L 191.736593 76.799567 
L 196.685036 76.799567 
L 196.800238 77.683401 
L 206.927529 77.683401 
L 207.04273 77.241484 
L 213.92866 77.241484 
L 214.043861 76.799567 
L 216.981509 76.799567 
L 217.096711 77.683401 
L 231.654036 77.683401 
L 231.769238 78.567235 
L 245.614407 78.567235 
L 245.729609 78.125318 
L 257.207903 78.125318 
L 257.323105 79.009152 
L 261.491318 79.009152 
L 261.60652 79.892985 
L 267.251411 79.892985 
L 267.366612 79.451068 
L 299.858773 79.451068 
L 299.973975 79.009152 
L 398.487273 79.009152 
L 398.487273 79.009152 
" clip-path="url(#pf0e78a08bd)" style="fill: none; stroke: #ff7f0e; stroke-width: 1.5; stroke-linecap: square"/>
   </g>
   <g id="line2d_16">
    <path d="M 73.832727 49.842641 
L 73.885092 49.54803 
L 73.890328 50.431864 
L 73.93222 49.989947 
L 74.010767 54.482768 
L 74.063131 53.74624 
L 74.115495 53.74624 
L 74.162624 53.304323 
L 74.199279 55.955824 
L 74.204515 55.955824 
L 74.33019 53.304323 
L 74.429682 53.304323 
L 74.544884 54.188157 
L 74.675795 54.188157 
L 74.770051 53.304323 
L 74.785761 54.188157 
L 74.87478 54.188157 
L 74.989982 55.07199 
L 75.05282 55.07199 
L 75.120894 54.851032 
L 75.12613 55.734865 
L 75.147076 55.734865 
L 75.162785 55.734865 
L 75.173258 54.851032 
L 75.27275 55.734865 
L 75.691666 55.734865 
L 75.806868 54.851032 
L 76.105346 54.851032 
L 76.220548 55.734865 
L 76.24673 55.734865 
L 76.288621 55.513907 
L 76.293858 56.397741 
L 76.340986 56.397741 
L 76.346222 56.397741 
L 76.461424 55.513907 
L 76.581863 55.513907 
L 76.613281 56.397741 
L 76.691828 56.176782 
L 76.80703 56.176782 
L 76.911759 57.94445 
L 76.922232 57.723491 
L 76.979833 57.723491 
L 77.095034 58.607325 
L 77.126453 58.607325 
L 77.241655 57.723491 
L 77.252128 57.723491 
L 77.36733 58.607325 
L 77.414458 58.607325 
L 77.52966 57.281574 
L 77.775773 57.281574 
L 77.83861 57.060616 
L 77.843847 57.94445 
L 77.864792 57.94445 
L 77.990467 60.595951 
L 78.063777 60.595951 
L 78.178979 59.712117 
L 78.357018 59.712117 
L 78.493166 58.607325 
L 78.603131 58.607325 
L 78.718333 59.491158 
L 78.974919 59.491158 
L 79.090121 58.386366 
L 79.116303 58.386366 
L 79.236742 60.154034 
L 79.299579 60.154034 
L 79.346707 61.037867 
L 79.409544 60.154034 
L 79.451436 60.154034 
L 79.566638 61.037867 
L 79.676603 61.037867 
L 79.697549 61.921701 
L 79.786569 61.037867 
L 79.859879 61.037867 
L 79.975081 60.154034 
L 80.111229 60.154034 
L 80.22643 61.037867 
L 80.236903 61.037867 
L 80.352105 60.154034 
L 80.383524 60.154034 
L 80.498726 59.933075 
L 80.943824 59.933075 
L 81.059026 59.712117 
L 81.20041 59.712117 
L 81.315612 60.595951 
L 81.43605 60.595951 
L 81.551252 61.479784 
L 81.954458 61.479784 
L 82.012059 61.258826 
L 82.017296 62.142659 
L 82.048714 62.142659 
L 82.137734 62.142659 
L 82.252936 63.026493 
L 82.755635 63.026493 
L 82.870837 62.142659 
L 83.342117 62.142659 
L 83.357826 63.026493 
L 83.452082 62.805535 
L 83.473028 62.805535 
L 83.58823 61.921701 
L 83.598703 61.921701 
L 83.713905 62.805535 
L 84.326569 62.805535 
L 84.436535 63.689368 
L 84.551737 62.805535 
L 84.860687 62.805535 
L 84.975889 61.921701 
L 85.263893 61.921701 
L 85.379095 62.805535 
L 86.143617 62.805535 
L 86.264055 62.363618 
L 87.122833 62.363618 
L 87.238034 63.247452 
L 87.855935 63.247452 
L 87.971137 62.363618 
L 88.510491 62.363618 
L 88.63093 64.131285 
L 89.343087 64.131285 
L 89.458288 63.910327 
L 89.66251 63.910327 
L 89.777712 63.026493 
L 89.950515 63.026493 
L 90.065716 63.910327 
L 90.217573 63.910327 
L 90.332775 64.79416 
L 91.071114 64.79416 
L 91.186316 63.910327 
L 91.364355 63.910327 
L 91.479557 64.79416 
L 92.024148 64.79416 
L 92.102695 63.910327 
L 92.134113 64.79416 
L 93.034782 64.79416 
L 93.149984 63.910327 
L 93.165694 63.910327 
L 93.280895 64.79416 
L 93.348969 64.79416 
L 93.464171 63.910327 
L 93.589846 63.910327 
L 93.705048 63.689368 
L 93.89356 63.689368 
L 94.008762 64.573202 
L 94.307239 64.573202 
L 94.422441 65.457036 
L 95.129362 65.457036 
L 95.244564 64.573202 
L 95.846755 64.573202 
L 95.961957 63.689368 
L 97.014483 63.689368 
L 97.129685 64.573202 
L 97.716167 64.573202 
L 97.831369 65.457036 
L 98.784402 65.457036 
L 98.899604 65.236077 
L 101.774414 65.236077 
L 101.889616 66.119911 
L 105.188578 66.119911 
L 105.30378 65.236077 
L 107.021335 65.236077 
L 107.068463 66.119911 
L 107.131301 65.236077 
L 108.791255 65.236077 
L 108.906457 66.119911 
L 110.02182 66.119911 
L 110.137022 65.898952 
L 110.336007 65.898952 
L 110.451209 66.782786 
L 112.142582 66.782786 
L 112.257783 65.898952 
L 112.325857 65.898952 
L 112.441059 65.677994 
L 114.394254 65.677994 
L 114.509456 66.561828 
L 115.865696 66.561828 
L 115.980898 67.445661 
L 116.059445 67.445661 
L 116.174647 66.561828 
L 116.886804 66.561828 
L 117.002005 66.340869 
L 118.400137 66.340869 
L 118.515339 65.457036 
L 120.143874 65.457036 
L 120.259076 66.340869 
L 123.249088 66.340869 
L 123.36429 66.119911 
L 123.976954 66.119911 
L 124.097393 67.887578 
L 127.43301 67.887578 
L 127.548212 67.66662 
L 128.239423 67.66662 
L 128.354625 68.550453 
L 129.443806 68.550453 
L 129.559008 67.66662 
L 133.371142 67.66662 
L 133.486344 68.550453 
L 139.906229 68.550453 
L 140.021431 67.66662 
L 149.326599 67.66662 
L 149.441801 67.445661 
L 154.259334 67.445661 
L 154.364063 68.329495 
L 154.369299 67.445661 
L 166.313637 67.445661 
L 166.428839 68.329495 
L 174.430132 68.329495 
L 174.545333 69.213329 
L 175.351746 69.213329 
L 175.466948 68.329495 
L 180.017422 68.329495 
L 180.132624 68.108537 
L 180.441574 68.108537 
L 180.556776 68.99237 
L 181.399844 68.99237 
L 181.515046 68.108537 
L 182.022981 68.108537 
L 182.138183 68.99237 
L 191.621391 68.99237 
L 191.736593 68.108537 
L 196.685036 68.108537 
L 196.800238 67.887578 
L 206.927529 67.887578 
L 207.04273 68.771412 
L 213.92866 68.771412 
L 214.043861 69.655245 
L 216.981509 69.655245 
L 217.096711 68.771412 
L 222.600218 68.771412 
L 222.71542 69.655245 
L 231.654036 69.655245 
L 231.769238 69.434287 
L 245.614407 69.434287 
L 245.729609 70.318121 
L 257.207903 70.318121 
L 257.323105 70.097162 
L 261.491318 70.097162 
L 261.60652 69.213329 
L 267.251411 69.213329 
L 267.366612 70.097162 
L 298.036489 70.097162 
L 298.151691 69.213329 
L 299.858773 69.213329 
L 299.973975 70.097162 
L 398.487273 70.097162 
L 398.487273 70.097162 
" clip-path="url(#pf0e78a08bd)" style="fill: none; stroke: #2ca02c; stroke-width: 1.5; stroke-linecap: square"/>
   </g>
   <g id="line2d_17">
    <path d="M 73.832727 49.989947 
L 73.837964 50.87378 
L 73.937456 49.768988 
L 73.942693 49.768988 
L 74.00553 48.811502 
L 74.052658 49.695336 
L 74.089313 49.695336 
L 74.214988 48.885155 
L 74.87478 48.885155 
L 74.989982 48.737849 
L 76.115819 48.737849 
L 76.231021 48.516891 
L 76.833212 48.516891 
L 76.948414 48.295932 
L 78.603131 48.295932 
L 78.718333 48.074974 
L 79.163431 48.074974 
L 79.278633 47.854015 
L 79.451436 47.854015 
L 79.566638 47.633057 
L 83.598703 47.633057 
L 83.713905 47.485751 
L 222.600218 47.485751 
L 222.71542 47.19114 
L 398.487273 47.19114 
L 398.487273 47.19114 
" clip-path="url(#pf0e78a08bd)" style="fill: none; stroke: #d62728; stroke-width: 1.5; stroke-linecap: square"/>
   </g>
   <g id="line2d_18">
    <path d="M 73.832727 49.842641 
L 73.984584 49.842641 
L 73.995057 49.621683 
L 74.000294 50.505516 
L 74.07884 50.505516 
L 74.361609 50.505516 
L 74.482047 52.273184 
L 75.016165 52.273184 
L 75.05282 53.157017 
L 75.12613 52.936059 
L 75.277987 52.936059 
L 75.393189 53.819893 
L 75.586937 53.819893 
L 75.702139 54.703726 
L 75.895888 54.703726 
L 76.01109 55.58756 
L 76.24673 55.58756 
L 76.361932 55.366601 
L 76.613281 55.366601 
L 76.728483 55.145643 
L 76.833212 55.145643 
L 76.911759 56.029477 
L 76.943177 55.808518 
L 77.341147 55.808518 
L 77.435404 56.692352 
L 77.451113 56.471394 
L 77.493004 56.471394 
L 77.608206 56.250435 
L 77.775773 56.250435 
L 77.890975 56.029477 
L 78.021886 56.029477 
L 78.137088 56.91331 
L 78.357018 56.91331 
L 78.47222 56.692352 
L 79.079648 56.692352 
L 79.163431 56.471394 
L 79.168668 57.355227 
L 79.173904 57.355227 
L 79.451436 57.355227 
L 79.524746 58.239061 
L 79.561401 57.94445 
L 80.383524 57.94445 
L 80.498726 57.723491 
L 80.943824 57.723491 
L 81.059026 57.502533 
L 81.315612 57.502533 
L 81.430813 58.386366 
L 81.566961 58.386366 
L 81.682163 58.091755 
L 81.954458 58.091755 
L 82.06966 57.870797 
L 82.106315 57.870797 
L 82.148207 58.75463 
L 82.216281 58.460019 
L 83.357826 58.460019 
L 83.473028 58.239061 
L 85.567607 58.239061 
L 85.682809 59.122894 
L 85.808484 59.122894 
L 85.923686 60.006728 
L 86.143617 60.006728 
L 86.264055 59.564811 
L 88.688531 59.564811 
L 88.803732 59.2702 
L 89.343087 59.2702 
L 89.458288 59.049242 
L 92.940526 59.049242 
L 93.055728 58.75463 
L 93.589846 58.75463 
L 93.705048 58.533672 
L 96.522257 58.533672 
L 96.637459 58.239061 
L 98.784402 58.239061 
L 98.899604 58.018102 
L 107.356468 58.018102 
L 107.47167 58.901936 
L 110.02182 58.901936 
L 110.137022 58.680978 
L 112.116399 58.680978 
L 112.231601 59.564811 
L 112.325857 59.564811 
L 112.441059 59.343853 
L 116.886804 59.343853 
L 117.002005 59.122894 
L 123.249088 59.122894 
L 123.36429 58.901936 
L 123.427127 58.901936 
L 123.542329 58.607325 
L 127.43301 58.607325 
L 127.548212 58.386366 
L 134.601707 58.386366 
L 134.716909 59.2702 
L 149.326599 59.2702 
L 149.441801 59.049242 
L 169.219866 59.049242 
L 169.335068 59.933075 
L 170.675598 59.933075 
L 170.7908 59.638464 
L 180.017422 59.638464 
L 180.132624 59.417506 
L 196.685036 59.417506 
L 196.800238 59.196547 
L 210.446422 59.196547 
L 210.561623 58.901936 
L 222.600218 58.901936 
L 222.71542 59.78577 
L 231.654036 59.78577 
L 231.769238 59.564811 
L 257.207903 59.564811 
L 257.323105 59.343853 
L 398.487273 59.343853 
L 398.487273 59.343853 
" clip-path="url(#pf0e78a08bd)" style="fill: none; stroke: #9467bd; stroke-width: 1.5; stroke-linecap: square"/>
   </g>
   <g id="line2d_19">
    <path d="M 73.832727 50.87378 
L 73.885092 50.579169 
L 73.890328 51.463003 
L 73.937456 51.021086 
L 73.947929 51.021086 
L 74.07884 49.695336 
L 74.162624 49.695336 
L 74.277825 50.579169 
L 74.288298 50.579169 
L 74.413973 49.179766 
L 74.87478 49.179766 
L 74.989982 50.0636 
L 75.016165 50.0636 
L 75.131366 49.768988 
L 75.277987 49.768988 
L 75.393189 49.474377 
L 75.586937 49.474377 
L 75.702139 49.179766 
L 75.895888 49.179766 
L 76.01109 48.885155 
L 77.341147 48.885155 
L 77.456349 48.590544 
L 78.021886 48.590544 
L 78.137088 48.295932 
L 78.603131 48.295932 
L 78.718333 49.179766 
L 81.315612 49.179766 
L 81.430813 48.885155 
L 82.106315 48.885155 
L 82.221517 48.590544 
L 83.598703 48.590544 
L 83.713905 49.474377 
L 85.567607 49.474377 
L 85.682809 49.179766 
L 85.808484 49.179766 
L 85.923686 48.885155 
L 107.356468 48.885155 
L 107.47167 48.590544 
L 112.116399 48.590544 
L 112.231601 48.295932 
L 134.601707 48.295932 
L 134.716909 48.074974 
L 169.219866 48.074974 
L 169.335068 47.780363 
L 398.487273 47.780363 
L 398.487273 47.780363 
" clip-path="url(#pf0e78a08bd)" style="fill: none; stroke: #8c564b; stroke-width: 1.5; stroke-linecap: square"/>
   </g>
   <g id="line2d_20">
    <path d="M 73.832727 49.842641 
L 73.837964 49.842641 
L 73.979348 48.516891 
L 73.984584 48.516891 
L 74.131205 46.970182 
L 74.361609 46.970182 
L 74.482047 48.737849 
L 75.016165 48.737849 
L 75.05282 49.621683 
L 75.12613 49.400724 
L 75.277987 49.400724 
L 75.393189 50.284558 
L 75.586937 50.284558 
L 75.702139 51.168392 
L 75.895888 51.168392 
L 76.01109 52.052225 
L 76.210075 52.052225 
L 76.325277 50.947433 
L 76.613281 50.947433 
L 76.728483 50.726475 
L 76.833212 50.726475 
L 76.911759 51.610308 
L 76.943177 51.38935 
L 77.341147 51.38935 
L 77.435404 52.273184 
L 77.451113 52.052225 
L 77.493004 52.052225 
L 77.608206 51.831267 
L 77.775773 51.831267 
L 77.890975 51.610308 
L 78.021886 51.610308 
L 78.137088 52.494142 
L 78.357018 52.494142 
L 78.47222 52.273184 
L 79.079648 52.273184 
L 79.163431 52.052225 
L 79.168668 52.936059 
L 79.173904 52.936059 
L 79.451436 52.936059 
L 79.524746 53.819893 
L 79.561401 53.525281 
L 80.383524 53.525281 
L 80.498726 53.304323 
L 80.943824 53.304323 
L 81.059026 53.083365 
L 81.315612 53.083365 
L 81.430813 53.967198 
L 81.566961 53.967198 
L 81.682163 53.672587 
L 81.954458 53.672587 
L 82.06966 53.451629 
L 82.106315 53.451629 
L 82.148207 54.335462 
L 82.216281 54.040851 
L 83.357826 54.040851 
L 83.473028 53.819893 
L 85.567607 53.819893 
L 85.682809 54.703726 
L 85.808484 54.703726 
L 85.923686 55.58756 
L 86.143617 55.58756 
L 86.264055 55.145643 
L 88.688531 55.145643 
L 88.803732 54.851032 
L 89.343087 54.851032 
L 89.458288 54.630073 
L 92.940526 54.630073 
L 93.055728 54.335462 
L 93.589846 54.335462 
L 93.705048 54.114504 
L 96.522257 54.114504 
L 96.637459 53.819893 
L 98.784402 53.819893 
L 98.899604 53.598934 
L 107.356468 53.598934 
L 107.47167 54.482768 
L 110.02182 54.482768 
L 110.137022 54.261809 
L 112.116399 54.261809 
L 112.231601 55.145643 
L 112.325857 55.145643 
L 112.441059 54.924685 
L 116.886804 54.924685 
L 117.002005 54.703726 
L 123.249088 54.703726 
L 123.36429 54.482768 
L 123.427127 54.482768 
L 123.542329 54.188157 
L 127.43301 54.188157 
L 127.548212 53.967198 
L 134.601707 53.967198 
L 134.716909 54.851032 
L 149.326599 54.851032 
L 149.441801 54.630073 
L 169.219866 54.630073 
L 169.335068 55.513907 
L 170.675598 55.513907 
L 170.7908 55.219296 
L 180.017422 55.219296 
L 180.132624 54.998337 
L 196.685036 54.998337 
L 196.800238 54.777379 
L 210.446422 54.777379 
L 210.561623 54.482768 
L 222.600218 54.482768 
L 222.71542 55.366601 
L 231.654036 55.366601 
L 231.769238 55.145643 
L 257.207903 55.145643 
L 257.323105 54.924685 
L 398.487273 54.924685 
L 398.487273 54.924685 
" clip-path="url(#pf0e78a08bd)" style="fill: none; stroke: #e377c2; stroke-width: 1.5; stroke-linecap: square"/>
   </g>
   <g id="line2d_21">
    <path d="M 73.832727 50.87378 
L 73.91651 54.114504 
L 73.958402 53.672587 
L 73.968875 53.672587 
L 74.089313 56.986963 
L 74.09455 56.766005 
L 74.162624 56.766005 
L 74.204515 56.176782 
L 74.209752 57.060616 
L 74.262116 57.060616 
L 74.361609 57.060616 
L 74.413973 56.545046 
L 74.419209 57.42888 
L 74.450628 57.42888 
L 74.56583 58.312714 
L 74.675795 58.312714 
L 74.790997 59.196547 
L 74.87478 59.196547 
L 74.989982 59.049242 
L 75.016165 59.049242 
L 75.131366 58.75463 
L 75.162785 58.75463 
L 75.277987 59.638464 
L 75.393189 59.343853 
L 75.586937 59.343853 
L 75.702139 59.049242 
L 75.895888 59.049242 
L 76.01109 58.75463 
L 76.115819 58.75463 
L 76.210075 58.533672 
L 76.325277 59.417506 
L 76.346222 59.417506 
L 76.461424 60.301339 
L 76.833212 60.301339 
L 76.948414 60.080381 
L 77.126453 60.080381 
L 77.241655 60.964215 
L 77.341147 60.964215 
L 77.456349 60.669603 
L 77.503477 60.669603 
L 77.618679 61.553437 
L 78.021886 61.553437 
L 78.137088 61.258826 
L 78.367491 61.258826 
L 78.482693 62.142659 
L 78.974919 62.142659 
L 79.090121 63.026493 
L 79.163431 63.026493 
L 79.278633 62.805535 
L 79.346707 62.805535 
L 79.451436 63.689368 
L 79.456673 63.46841 
L 79.524746 63.46841 
L 79.639948 64.352244 
L 80.236903 64.352244 
L 80.352105 65.236077 
L 81.315612 65.236077 
L 81.430813 64.941466 
L 81.566961 64.941466 
L 81.682163 65.8253 
L 82.106315 65.8253 
L 82.148207 65.530688 
L 82.153443 66.414522 
L 82.205808 66.414522 
L 82.755635 66.414522 
L 82.870837 67.298356 
L 83.598703 67.298356 
L 83.713905 67.15105 
L 84.860687 67.15105 
L 84.975889 68.034884 
L 85.567607 68.034884 
L 85.682809 67.740273 
L 85.808484 67.740273 
L 85.923686 67.445661 
L 87.855935 67.445661 
L 87.971137 68.329495 
L 88.688531 68.329495 
L 88.803732 69.213329 
L 89.66251 69.213329 
L 89.777712 70.097162 
L 92.940526 70.097162 
L 93.055728 70.980996 
L 96.522257 70.980996 
L 96.637459 71.86483 
L 107.356468 71.86483 
L 107.47167 71.570218 
L 112.116399 71.570218 
L 112.142582 71.275607 
L 112.147818 72.159441 
L 112.215892 72.159441 
L 118.400137 72.159441 
L 118.515339 73.043274 
L 123.427127 73.043274 
L 123.542329 73.927108 
L 129.443806 73.927108 
L 129.559008 74.810942 
L 134.601707 74.810942 
L 134.716909 74.589983 
L 154.364063 74.589983 
L 154.479264 75.473817 
L 169.219866 75.473817 
L 169.335068 75.179206 
L 170.675598 75.179206 
L 170.7908 76.063039 
L 181.399844 76.063039 
L 181.515046 76.946873 
L 210.446422 76.946873 
L 210.561623 77.830707 
L 222.600218 77.830707 
L 222.71542 77.536095 
L 298.036489 77.536095 
L 298.151691 78.419929 
L 398.487273 78.419929 
L 398.487273 78.419929 
" clip-path="url(#pf0e78a08bd)" style="fill: none; stroke: #7f7f7f; stroke-width: 1.5; stroke-linecap: square"/>
   </g>
   <g id="line2d_22">
    <path d="M 73.832727 49.842641 
L 73.974111 55.292949 
L 73.979348 55.292949 
L 74.010767 54.851032 
L 74.031712 57.502533 
L 74.036949 57.502533 
L 74.057895 57.502533 
L 74.162624 59.933075 
L 74.178333 59.564811 
L 74.183569 59.564811 
L 74.194042 59.343853 
L 74.209752 61.11152 
L 74.25688 61.11152 
L 74.267352 61.11152 
L 74.4035 65.530688 
L 74.413973 65.530688 
L 74.544884 69.066023 
L 74.675795 69.066023 
L 74.796234 70.83369 
L 74.87478 70.83369 
L 74.989982 70.686385 
L 75.016165 70.686385 
L 75.131366 72.233094 
L 75.162785 72.233094 
L 75.28846 74.884595 
L 75.586937 74.884595 
L 75.707376 76.652262 
L 75.895888 76.652262 
L 76.01109 77.536095 
L 76.105346 77.536095 
L 76.115819 78.419929 
L 76.215311 78.198971 
L 76.24673 78.198971 
L 76.288621 77.978012 
L 76.293858 78.861846 
L 76.340986 78.861846 
L 76.346222 78.861846 
L 76.461424 79.74568 
L 76.581863 79.74568 
L 76.613281 80.629513 
L 76.691828 80.408555 
L 76.80703 80.408555 
L 76.833212 81.292388 
L 76.916995 80.850472 
L 76.979833 80.850472 
L 77.095034 81.734305 
L 77.126453 81.734305 
L 77.241655 82.618139 
L 77.252128 82.618139 
L 77.372566 84.385806 
L 77.414458 84.385806 
L 77.52966 85.711557 
L 77.775773 85.711557 
L 77.83861 85.490598 
L 77.843847 86.374432 
L 77.864792 86.374432 
L 77.990467 89.025933 
L 78.021886 89.025933 
L 78.142324 90.7936 
L 78.357018 90.7936 
L 78.367491 90.572642 
L 78.372728 91.456475 
L 78.451274 91.456475 
L 78.603131 91.456475 
L 78.718333 91.235517 
L 78.974919 91.235517 
L 79.079648 92.119351 
L 79.084885 91.898392 
L 79.116303 91.898392 
L 79.163431 92.782226 
L 79.226269 92.561267 
L 79.299579 92.561267 
L 79.420017 94.328935 
L 79.451436 94.328935 
L 79.571874 93.813365 
L 79.676603 93.813365 
L 79.797042 95.581032 
L 79.859879 95.581032 
L 79.975081 96.464866 
L 80.111229 96.464866 
L 80.22643 97.3487 
L 80.236903 97.3487 
L 80.352105 98.232533 
L 80.383524 98.232533 
L 80.498726 98.011575 
L 80.943824 98.011575 
L 81.059026 97.790617 
L 81.20041 97.790617 
L 81.320848 99.558284 
L 81.43605 99.558284 
L 81.551252 100.442118 
L 81.566961 100.442118 
L 81.682163 100.147506 
L 81.954458 100.147506 
L 82.012059 99.926548 
L 82.017296 100.810382 
L 82.048714 100.810382 
L 82.106315 100.810382 
L 82.148207 102.578049 
L 82.221517 102.283438 
L 82.755635 102.283438 
L 82.870837 103.167271 
L 83.342117 103.167271 
L 83.357826 104.051105 
L 83.452082 103.830147 
L 83.473028 103.830147 
L 83.58823 104.71398 
L 83.598703 104.71398 
L 83.713905 104.566675 
L 84.326569 104.566675 
L 84.447008 106.334342 
L 84.860687 106.334342 
L 84.975889 107.218175 
L 85.263893 107.218175 
L 85.379095 108.102009 
L 85.567607 108.102009 
L 85.682809 108.985843 
L 85.808484 108.985843 
L 85.923686 109.869676 
L 86.143617 109.869676 
L 86.264055 109.42776 
L 87.122833 109.42776 
L 87.238034 110.311593 
L 87.855935 110.311593 
L 87.971137 111.195427 
L 88.510491 111.195427 
L 88.63093 112.963094 
L 88.688531 112.963094 
L 88.803732 112.668483 
L 89.343087 112.668483 
L 89.458288 112.447525 
L 89.66251 112.447525 
L 89.777712 113.331358 
L 89.950515 113.331358 
L 90.065716 114.215192 
L 90.217573 114.215192 
L 90.332775 115.099026 
L 91.071114 115.099026 
L 91.186316 115.982859 
L 91.364355 115.982859 
L 91.479557 116.866693 
L 92.024148 116.866693 
L 92.144586 118.63436 
L 92.940526 118.63436 
L 93.034782 118.339749 
L 93.040019 119.223583 
L 93.165694 119.223583 
L 93.280895 120.107416 
L 93.348969 120.107416 
L 93.464171 120.99125 
L 93.589846 120.99125 
L 93.705048 120.770291 
L 93.89356 120.770291 
L 94.008762 121.654125 
L 94.307239 121.654125 
L 94.422441 122.537959 
L 95.129362 122.537959 
L 95.244564 123.421792 
L 95.846755 123.421792 
L 95.961957 124.305626 
L 96.522257 124.305626 
L 96.637459 124.011015 
L 97.014483 124.011015 
L 97.129685 124.894848 
L 97.716167 124.894848 
L 97.831369 125.778682 
L 98.784402 125.778682 
L 98.899604 125.557724 
L 101.774414 125.557724 
L 101.889616 126.441557 
L 105.188578 126.441557 
L 105.30378 127.325391 
L 107.021335 127.325391 
L 107.141774 129.093058 
L 107.356468 129.093058 
L 107.47167 129.976892 
L 108.791255 129.976892 
L 108.906457 130.860726 
L 110.02182 130.860726 
L 110.137022 130.639767 
L 110.336007 130.639767 
L 110.451209 131.523601 
L 112.116399 131.523601 
L 112.236838 133.291268 
L 112.325857 133.291268 
L 112.441059 133.07031 
L 114.394254 133.07031 
L 114.509456 133.954143 
L 115.865696 133.954143 
L 115.980898 134.837977 
L 116.059445 134.837977 
L 116.174647 135.721811 
L 116.886804 135.721811 
L 117.002005 135.500852 
L 118.400137 135.500852 
L 118.515339 136.384686 
L 120.143874 136.384686 
L 120.259076 137.26852 
L 123.249088 137.26852 
L 123.36429 137.047561 
L 123.427127 137.047561 
L 123.542329 136.75295 
L 123.976954 136.75295 
L 124.097393 138.520617 
L 127.43301 138.520617 
L 127.548212 138.299659 
L 128.239423 138.299659 
L 128.354625 139.183492 
L 129.443806 139.183492 
L 129.559008 140.067326 
L 133.371142 140.067326 
L 133.486344 140.95116 
L 134.601707 140.95116 
L 134.716909 141.834993 
L 139.906229 141.834993 
L 140.021431 142.718827 
L 149.326599 142.718827 
L 149.441801 142.497869 
L 154.259334 142.497869 
L 154.379772 144.265536 
L 166.313637 144.265536 
L 166.428839 145.14937 
L 169.219866 145.14937 
L 169.335068 146.033203 
L 170.675598 146.033203 
L 170.7908 145.738592 
L 174.430132 145.738592 
L 174.545333 146.622426 
L 175.351746 146.622426 
L 175.466948 147.506259 
L 180.017422 147.506259 
L 180.132624 147.285301 
L 180.441574 147.285301 
L 180.556776 148.169135 
L 181.399844 148.169135 
L 181.515046 149.052968 
L 182.022981 149.052968 
L 182.138183 149.936802 
L 191.621391 149.936802 
L 191.736593 150.820635 
L 196.685036 150.820635 
L 196.800238 150.599677 
L 206.927529 150.599677 
L 207.04273 151.483511 
L 210.446422 151.483511 
L 210.561623 151.188899 
L 213.92866 151.188899 
L 214.043861 152.072733 
L 216.981509 152.072733 
L 217.096711 152.956567 
L 231.654036 152.956567 
L 231.769238 152.735608 
L 245.614407 152.735608 
L 245.729609 153.619442 
L 257.207903 153.619442 
L 257.323105 153.398484 
L 261.491318 153.398484 
L 261.60652 154.282317 
L 267.251411 154.282317 
L 267.366612 155.166151 
L 298.036489 155.166151 
L 298.151691 156.049985 
L 299.858773 156.049985 
L 299.973975 156.933818 
L 398.487273 156.933818 
L 398.487273 156.933818 
" clip-path="url(#pf0e78a08bd)" style="fill: none; stroke: #bcbd22; stroke-width: 1.5; stroke-linecap: square"/>
   </g>
   <g id="line2d_23">
    <path d="M 73.832727 50.87378 
L 73.91651 54.777379 
L 73.958402 54.040851 
L 73.968875 54.040851 
L 74.089313 57.797144 
L 74.099786 57.576186 
L 74.115495 57.576186 
L 74.230697 58.75463 
L 74.267352 58.75463 
L 74.361609 61.406131 
L 74.387791 60.890562 
L 74.413973 60.890562 
L 74.534411 62.658229 
L 74.675795 62.658229 
L 74.790997 63.542063 
L 74.87478 63.542063 
L 74.989982 63.394757 
L 75.016165 63.394757 
L 75.131366 63.100146 
L 75.162785 63.100146 
L 75.277987 63.98398 
L 75.393189 63.689368 
L 75.586937 63.689368 
L 75.691666 63.394757 
L 75.806868 64.278591 
L 75.895888 64.278591 
L 76.01109 63.98398 
L 76.115819 63.98398 
L 76.231021 63.763021 
L 76.346222 63.763021 
L 76.461424 64.646855 
L 76.833212 64.646855 
L 76.948414 64.425896 
L 77.126453 64.425896 
L 77.241655 65.30973 
L 77.341147 65.30973 
L 77.414458 65.015119 
L 77.419694 65.898952 
L 77.44064 65.898952 
L 77.503477 65.898952 
L 77.618679 66.782786 
L 78.021886 66.782786 
L 78.063777 66.488175 
L 78.069014 67.372009 
L 78.121378 67.372009 
L 78.367491 67.372009 
L 78.482693 68.255842 
L 78.974919 68.255842 
L 79.090121 69.139676 
L 79.163431 69.139676 
L 79.278633 68.918717 
L 79.346707 68.918717 
L 79.451436 69.802551 
L 79.456673 69.581593 
L 79.524746 69.581593 
L 79.639948 70.465426 
L 79.697549 70.465426 
L 79.812751 71.34926 
L 79.859879 71.34926 
L 79.975081 72.233094 
L 80.236903 72.233094 
L 80.352105 73.116927 
L 81.315612 73.116927 
L 81.430813 72.822316 
L 81.566961 72.822316 
L 81.682163 73.70615 
L 82.106315 73.70615 
L 82.148207 73.411538 
L 82.153443 74.295372 
L 82.205808 74.295372 
L 82.755635 74.295372 
L 82.870837 75.179206 
L 83.473028 75.179206 
L 83.58823 76.063039 
L 83.598703 76.063039 
L 83.713905 75.915734 
L 84.436535 75.915734 
L 84.551737 76.799567 
L 84.860687 76.799567 
L 84.975889 77.683401 
L 85.567607 77.683401 
L 85.682809 77.38879 
L 85.808484 77.38879 
L 85.923686 77.094179 
L 87.855935 77.094179 
L 87.971137 77.978012 
L 88.688531 77.978012 
L 88.803732 78.861846 
L 89.66251 78.861846 
L 89.777712 79.74568 
L 91.071114 79.74568 
L 91.186316 80.629513 
L 92.024148 80.629513 
L 92.13935 81.513347 
L 92.940526 81.513347 
L 93.060965 83.281014 
L 93.348969 83.281014 
L 93.464171 84.164848 
L 95.129362 84.164848 
L 95.244564 85.048681 
L 95.846755 85.048681 
L 95.961957 85.932515 
L 96.522257 85.932515 
L 96.637459 86.816349 
L 105.188578 86.816349 
L 105.30378 87.700182 
L 107.068463 87.700182 
L 107.183665 88.584016 
L 107.356468 88.584016 
L 107.47167 88.289405 
L 112.116399 88.289405 
L 112.142582 87.994794 
L 112.147818 88.878627 
L 112.215892 88.878627 
L 116.059445 88.878627 
L 116.174647 89.762461 
L 118.400137 89.762461 
L 118.515339 90.646295 
L 123.427127 90.646295 
L 123.542329 91.530128 
L 129.443806 91.530128 
L 129.559008 92.413962 
L 134.601707 92.413962 
L 134.716909 92.193003 
L 139.906229 92.193003 
L 140.021431 93.076837 
L 154.364063 93.076837 
L 154.479264 93.960671 
L 169.219866 93.960671 
L 169.335068 93.66606 
L 170.675598 93.66606 
L 170.7908 94.549893 
L 175.351746 94.549893 
L 175.466948 95.433727 
L 181.399844 95.433727 
L 181.515046 96.31756 
L 191.621391 96.31756 
L 191.736593 97.201394 
L 210.446422 97.201394 
L 210.561623 98.085228 
L 216.981509 98.085228 
L 217.096711 98.969061 
L 222.600218 98.969061 
L 222.71542 98.67445 
L 261.491318 98.67445 
L 261.60652 99.558284 
L 298.036489 99.558284 
L 298.151691 100.442118 
L 398.487273 100.442118 
L 398.487273 100.442118 
" clip-path="url(#pf0e78a08bd)" style="fill: none; stroke: #17becf; stroke-width: 1.5; stroke-linecap: square"/>
   </g>
   <g id="line2d_24">
    <path d="M 73.832727 49.842641 
L 73.953166 52.273184 
L 74.010767 52.273184 
L 74.136441 54.924685 
L 74.162624 54.924685 
L 74.277825 54.777379 
L 74.288298 54.777379 
L 74.419209 58.312714 
L 74.87478 58.312714 
L 74.989982 58.165408 
L 75.016165 58.165408 
L 75.131366 59.049242 
L 75.277987 59.049242 
L 75.393189 59.933075 
L 75.586937 59.933075 
L 75.702139 60.816909 
L 75.895888 60.816909 
L 76.01109 61.700743 
L 77.341147 61.700743 
L 77.456349 62.584576 
L 78.021886 62.584576 
L 78.137088 63.46841 
L 78.603131 63.46841 
L 78.718333 63.247452 
L 81.315612 63.247452 
L 81.430813 64.131285 
L 82.106315 64.131285 
L 82.221517 65.015119 
L 83.598703 65.015119 
L 83.713905 64.867813 
L 85.567607 64.867813 
L 85.682809 65.751647 
L 85.808484 65.751647 
L 85.923686 66.63548 
L 107.356468 66.63548 
L 107.47167 67.519314 
L 112.116399 67.519314 
L 112.231601 68.403148 
L 134.601707 68.403148 
L 134.716909 69.286981 
L 169.219866 69.286981 
L 169.335068 70.170815 
L 398.487273 70.170815 
L 398.487273 70.170815 
" clip-path="url(#pf0e78a08bd)" style="fill: none; stroke: #1f77b4; stroke-width: 1.5; stroke-linecap: square"/>
   </g>
   <g id="line2d_25">
    <path d="M 73.832727 49.989947 
L 73.890328 50.284558 
L 73.953166 49.400724 
L 74.162624 49.400724 
L 74.277825 50.284558 
L 74.298771 50.284558 
L 74.335426 51.168392 
L 74.408737 50.284558 
L 74.419209 50.284558 
L 74.534411 49.400724 
L 74.87478 49.400724 
L 74.9638 50.284558 
L 74.984746 49.400724 
L 75.147076 49.400724 
L 75.262278 48.516891 
L 78.603131 48.516891 
L 78.718333 49.400724 
L 83.598703 49.400724 
L 83.713905 50.284558 
L 398.487273 50.284558 
L 398.487273 50.284558 
" clip-path="url(#pf0e78a08bd)" style="fill: none; stroke: #ff7f0e; stroke-width: 1.5; stroke-linecap: square"/>
   </g>
   <g id="patch_3">
    <path d="M 57.6 162.432 
L 57.6 41.472 
" style="fill: none; stroke: #000000; stroke-width: 0.8; stroke-linejoin: miter; stroke-linecap: square"/>
   </g>
   <g id="patch_4">
    <path d="M 414.72 162.432 
L 414.72 41.472 
" style="fill: none; stroke: #000000; stroke-width: 0.8; stroke-linejoin: miter; stroke-linecap: square"/>
   </g>
   <g id="patch_5">
    <path d="M 57.6 162.432 
L 414.72 162.432 
" style="fill: none; stroke: #000000; stroke-width: 0.8; stroke-linejoin: miter; stroke-linecap: square"/>
   </g>
   <g id="patch_6">
    <path d="M 57.6 41.472 
L 414.72 41.472 
" style="fill: none; stroke: #000000; stroke-width: 0.8; stroke-linejoin: miter; stroke-linecap: square"/>
   </g>
   <g id="text_14">
    <!-- WSP -->
    <g transform="translate(361.832136 62.805535)scale(0.08 -0.08)">
     <defs>
      <path id="DejaVuSans-57" d="M 213 4666 
L 850 4666 
L 1831 722 
L 2809 4666 
L 3519 4666 
L 4500 722 
L 5478 4666 
L 6119 4666 
L 4947 0 
L 4153 0 
L 3169 4050 
L 2175 0 
L 1381 0 
L 213 4666 
z
" transform="scale(0.015625)"/>
      <path id="DejaVuSans-53" d="M 3425 4513 
L 3425 3897 
Q 3066 4069 2747 4153 
Q 2428 4238 2131 4238 
Q 1616 4238 1336 4038 
Q 1056 3838 1056 3469 
Q 1056 3159 1242 3001 
Q 1428 2844 1947 2747 
L 2328 2669 
Q 3034 2534 3370 2195 
Q 3706 1856 3706 1288 
Q 3706 609 3251 259 
Q 2797 -91 1919 -91 
Q 1588 -91 1214 -16 
Q 841 59 441 206 
L 441 856 
Q 825 641 1194 531 
Q 1563 422 1919 422 
Q 2459 422 2753 634 
Q 3047 847 3047 1241 
Q 3047 1584 2836 1778 
Q 2625 1972 2144 2069 
L 1759 2144 
Q 1053 2284 737 2584 
Q 422 2884 422 3419 
Q 422 4038 858 4394 
Q 1294 4750 2059 4750 
Q 2388 4750 2728 4690 
Q 3069 4631 3425 4513 
z
" transform="scale(0.015625)"/>
      <path id="DejaVuSans-50" d="M 1259 4147 
L 1259 2394 
L 2053 2394 
Q 2494 2394 2734 2622 
Q 2975 2850 2975 3272 
Q 2975 3691 2734 3919 
Q 2494 4147 2053 4147 
L 1259 4147 
z
M 628 4666 
L 2053 4666 
Q 2838 4666 3239 4311 
Q 3641 3956 3641 3272 
Q 3641 2581 3239 2228 
Q 2838 1875 2053 1875 
L 1259 1875 
L 1259 0 
L 628 0 
L 628 4666 
z
" transform="scale(0.015625)"/>
     </defs>
     <use xlink:href="#DejaVuSans-57"/>
     <use xlink:href="#DejaVuSans-53" x="98.876953"/>
     <use xlink:href="#DejaVuSans-50" x="162.353516"/>
    </g>
   </g>
   <g id="text_15">
    <!-- Iambic -->
    <g transform="translate(361.832136 79.009152)scale(0.08 -0.08)">
     <defs>
      <path id="DejaVuSans-49" d="M 628 4666 
L 1259 4666 
L 1259 0 
L 628 0 
L 628 4666 
z
" transform="scale(0.015625)"/>
      <path id="DejaVuSans-61" d="M 2194 1759 
Q 1497 1759 1228 1600 
Q 959 1441 959 1056 
Q 959 750 1161 570 
Q 1363 391 1709 391 
Q 2188 391 2477 730 
Q 2766 1069 2766 1631 
L 2766 1759 
L 2194 1759 
z
M 3341 1997 
L 3341 0 
L 2766 0 
L 2766 531 
Q 2569 213 2275 61 
Q 1981 -91 1556 -91 
Q 1019 -91 701 211 
Q 384 513 384 1019 
Q 384 1609 779 1909 
Q 1175 2209 1959 2209 
L 2766 2209 
L 2766 2266 
Q 2766 2663 2505 2880 
Q 2244 3097 1772 3097 
Q 1472 3097 1187 3025 
Q 903 2953 641 2809 
L 641 3341 
Q 956 3463 1253 3523 
Q 1550 3584 1831 3584 
Q 2591 3584 2966 3190 
Q 3341 2797 3341 1997 
z
" transform="scale(0.015625)"/>
      <path id="DejaVuSans-6d" d="M 3328 2828 
Q 3544 3216 3844 3400 
Q 4144 3584 4550 3584 
Q 5097 3584 5394 3201 
Q 5691 2819 5691 2113 
L 5691 0 
L 5113 0 
L 5113 2094 
Q 5113 2597 4934 2840 
Q 4756 3084 4391 3084 
Q 3944 3084 3684 2787 
Q 3425 2491 3425 1978 
L 3425 0 
L 2847 0 
L 2847 2094 
Q 2847 2600 2669 2842 
Q 2491 3084 2119 3084 
Q 1678 3084 1418 2786 
Q 1159 2488 1159 1978 
L 1159 0 
L 581 0 
L 581 3500 
L 1159 3500 
L 1159 2956 
Q 1356 3278 1631 3431 
Q 1906 3584 2284 3584 
Q 2666 3584 2933 3390 
Q 3200 3197 3328 2828 
z
" transform="scale(0.015625)"/>
      <path id="DejaVuSans-62" d="M 3116 1747 
Q 3116 2381 2855 2742 
Q 2594 3103 2138 3103 
Q 1681 3103 1420 2742 
Q 1159 2381 1159 1747 
Q 1159 1113 1420 752 
Q 1681 391 2138 391 
Q 2594 391 2855 752 
Q 3116 1113 3116 1747 
z
M 1159 2969 
Q 1341 3281 1617 3432 
Q 1894 3584 2278 3584 
Q 2916 3584 3314 3078 
Q 3713 2572 3713 1747 
Q 3713 922 3314 415 
Q 2916 -91 2278 -91 
Q 1894 -91 1617 61 
Q 1341 213 1159 525 
L 1159 0 
L 581 0 
L 581 4863 
L 1159 4863 
L 1159 2969 
z
" transform="scale(0.015625)"/>
      <path id="DejaVuSans-69" d="M 603 3500 
L 1178 3500 
L 1178 0 
L 603 0 
L 603 3500 
z
M 603 4863 
L 1178 4863 
L 1178 4134 
L 603 4134 
L 603 4863 
z
" transform="scale(0.015625)"/>
      <path id="DejaVuSans-63" d="M 3122 3366 
L 3122 2828 
Q 2878 2963 2633 3030 
Q 2388 3097 2138 3097 
Q 1578 3097 1268 2742 
Q 959 2388 959 1747 
Q 959 1106 1268 751 
Q 1578 397 2138 397 
Q 2388 397 2633 464 
Q 2878 531 3122 666 
L 3122 134 
Q 2881 22 2623 -34 
Q 2366 -91 2075 -91 
Q 1284 -91 818 406 
Q 353 903 353 1747 
Q 353 2603 823 3093 
Q 1294 3584 2113 3584 
Q 2378 3584 2631 3529 
Q 2884 3475 3122 3366 
z
" transform="scale(0.015625)"/>
     </defs>
     <use xlink:href="#DejaVuSans-49"/>
     <use xlink:href="#DejaVuSans-61" x="29.492188"/>
     <use xlink:href="#DejaVuSans-6d" x="90.771484"/>
     <use xlink:href="#DejaVuSans-62" x="188.183594"/>
     <use xlink:href="#DejaVuSans-69" x="251.660156"/>
     <use xlink:href="#DejaVuSans-63" x="279.443359"/>
    </g>
   </g>
   <g id="text_16">
    <!-- Parse -->
    <g transform="translate(361.832136 70.097162)scale(0.08 -0.08)">
     <defs>
      <path id="DejaVuSans-72" d="M 2631 2963 
Q 2534 3019 2420 3045 
Q 2306 3072 2169 3072 
Q 1681 3072 1420 2755 
Q 1159 2438 1159 1844 
L 1159 0 
L 581 0 
L 581 3500 
L 1159 3500 
L 1159 2956 
Q 1341 3275 1631 3429 
Q 1922 3584 2338 3584 
Q 2397 3584 2469 3576 
Q 2541 3569 2628 3553 
L 2631 2963 
z
" transform="scale(0.015625)"/>
      <path id="DejaVuSans-73" d="M 2834 3397 
L 2834 2853 
Q 2591 2978 2328 3040 
Q 2066 3103 1784 3103 
Q 1356 3103 1142 2972 
Q 928 2841 928 2578 
Q 928 2378 1081 2264 
Q 1234 2150 1697 2047 
L 1894 2003 
Q 2506 1872 2764 1633 
Q 3022 1394 3022 966 
Q 3022 478 2636 193 
Q 2250 -91 1575 -91 
Q 1294 -91 989 -36 
Q 684 19 347 128 
L 347 722 
Q 666 556 975 473 
Q 1284 391 1588 391 
Q 1994 391 2212 530 
Q 2431 669 2431 922 
Q 2431 1156 2273 1281 
Q 2116 1406 1581 1522 
L 1381 1569 
Q 847 1681 609 1914 
Q 372 2147 372 2553 
Q 372 3047 722 3315 
Q 1072 3584 1716 3584 
Q 2034 3584 2315 3537 
Q 2597 3491 2834 3397 
z
" transform="scale(0.015625)"/>
      <path id="DejaVuSans-65" d="M 3597 1894 
L 3597 1613 
L 953 1613 
Q 991 1019 1311 708 
Q 1631 397 2203 397 
Q 2534 397 2845 478 
Q 3156 559 3463 722 
L 3463 178 
Q 3153 47 2828 -22 
Q 2503 -91 2169 -91 
Q 1331 -91 842 396 
Q 353 884 353 1716 
Q 353 2575 817 3079 
Q 1281 3584 2069 3584 
Q 2775 3584 3186 3129 
Q 3597 2675 3597 1894 
z
M 3022 2063 
Q 3016 2534 2758 2815 
Q 2500 3097 2075 3097 
Q 1594 3097 1305 2825 
Q 1016 2553 972 2059 
L 3022 2063 
z
" transform="scale(0.015625)"/>
     </defs>
     <use xlink:href="#DejaVuSans-50"/>
     <use xlink:href="#DejaVuSans-61" x="55.802734"/>
     <use xlink:href="#DejaVuSans-72" x="117.082031"/>
     <use xlink:href="#DejaVuSans-73" x="158.195312"/>
     <use xlink:href="#DejaVuSans-65" x="210.294922"/>
    </g>
   </g>
   <g id="text_17">
    <!-- FootBin -->
    <g transform="translate(361.832136 47.19114)scale(0.08 -0.08)">
     <defs>
      <path id="DejaVuSans-46" d="M 628 4666 
L 3309 4666 
L 3309 4134 
L 1259 4134 
L 1259 2759 
L 3109 2759 
L 3109 2228 
L 1259 2228 
L 1259 0 
L 628 0 
L 628 4666 
z
" transform="scale(0.015625)"/>
      <path id="DejaVuSans-6f" d="M 1959 3097 
Q 1497 3097 1228 2736 
Q 959 2375 959 1747 
Q 959 1119 1226 758 
Q 1494 397 1959 397 
Q 2419 397 2687 759 
Q 2956 1122 2956 1747 
Q 2956 2369 2687 2733 
Q 2419 3097 1959 3097 
z
M 1959 3584 
Q 2709 3584 3137 3096 
Q 3566 2609 3566 1747 
Q 3566 888 3137 398 
Q 2709 -91 1959 -91 
Q 1206 -91 779 398 
Q 353 888 353 1747 
Q 353 2609 779 3096 
Q 1206 3584 1959 3584 
z
" transform="scale(0.015625)"/>
      <path id="DejaVuSans-74" d="M 1172 4494 
L 1172 3500 
L 2356 3500 
L 2356 3053 
L 1172 3053 
L 1172 1153 
Q 1172 725 1289 603 
Q 1406 481 1766 481 
L 2356 481 
L 2356 0 
L 1766 0 
Q 1100 0 847 248 
Q 594 497 594 1153 
L 594 3053 
L 172 3053 
L 172 3500 
L 594 3500 
L 594 4494 
L 1172 4494 
z
" transform="scale(0.015625)"/>
      <path id="DejaVuSans-42" d="M 1259 2228 
L 1259 519 
L 2272 519 
Q 2781 519 3026 730 
Q 3272 941 3272 1375 
Q 3272 1813 3026 2020 
Q 2781 2228 2272 2228 
L 1259 2228 
z
M 1259 4147 
L 1259 2741 
L 2194 2741 
Q 2656 2741 2882 2914 
Q 3109 3088 3109 3444 
Q 3109 3797 2882 3972 
Q 2656 4147 2194 4147 
L 1259 4147 
z
M 628 4666 
L 2241 4666 
Q 2963 4666 3353 4366 
Q 3744 4066 3744 3513 
Q 3744 3084 3544 2831 
Q 3344 2578 2956 2516 
Q 3422 2416 3680 2098 
Q 3938 1781 3938 1306 
Q 3938 681 3513 340 
Q 3088 0 2303 0 
L 628 0 
L 628 4666 
z
" transform="scale(0.015625)"/>
      <path id="DejaVuSans-6e" d="M 3513 2113 
L 3513 0 
L 2938 0 
L 2938 2094 
Q 2938 2591 2744 2837 
Q 2550 3084 2163 3084 
Q 1697 3084 1428 2787 
Q 1159 2491 1159 1978 
L 1159 0 
L 581 0 
L 581 3500 
L 1159 3500 
L 1159 2956 
Q 1366 3272 1645 3428 
Q 1925 3584 2291 3584 
Q 2894 3584 3203 3211 
Q 3513 2838 3513 2113 
z
" transform="scale(0.015625)"/>
     </defs>
     <use xlink:href="#DejaVuSans-46"/>
     <use xlink:href="#DejaVuSans-6f" x="53.894531"/>
     <use xlink:href="#DejaVuSans-6f" x="115.076172"/>
     <use xlink:href="#DejaVuSans-74" x="176.257812"/>
     <use xlink:href="#DejaVuSans-42" x="215.466797"/>
     <use xlink:href="#DejaVuSans-69" x="284.070312"/>
     <use xlink:href="#DejaVuSans-6e" x="311.853516"/>
    </g>
   </g>
   <g id="text_18">
    <!-- WFL -->
    <g transform="translate(361.832136 59.343853)scale(0.08 -0.08)">
     <defs>
      <path id="DejaVuSans-4c" d="M 628 4666 
L 1259 4666 
L 1259 531 
L 3531 531 
L 3531 0 
L 628 0 
L 628 4666 
z
" transform="scale(0.015625)"/>
     </defs>
     <use xlink:href="#DejaVuSans-57"/>
     <use xlink:href="#DejaVuSans-46" x="98.876953"/>
     <use xlink:href="#DejaVuSans-4c" x="156.396484"/>
    </g>
   </g>
   <g id="text_19">
    <!-- WFR -->
    <g transform="translate(361.832136 47.780363)scale(0.08 -0.08)">
     <defs>
      <path id="DejaVuSans-52" d="M 2841 2188 
Q 3044 2119 3236 1894 
Q 3428 1669 3622 1275 
L 4263 0 
L 3584 0 
L 2988 1197 
Q 2756 1666 2539 1819 
Q 2322 1972 1947 1972 
L 1259 1972 
L 1259 0 
L 628 0 
L 628 4666 
L 2053 4666 
Q 2853 4666 3247 4331 
Q 3641 3997 3641 3322 
Q 3641 2881 3436 2590 
Q 3231 2300 2841 2188 
z
M 1259 4147 
L 1259 2491 
L 2053 2491 
Q 2509 2491 2742 2702 
Q 2975 2913 2975 3322 
Q 2975 3731 2742 3939 
Q 2509 4147 2053 4147 
L 1259 4147 
z
" transform="scale(0.015625)"/>
     </defs>
     <use xlink:href="#DejaVuSans-57"/>
     <use xlink:href="#DejaVuSans-46" x="98.876953"/>
     <use xlink:href="#DejaVuSans-52" x="156.396484"/>
    </g>
   </g>
   <g id="text_20">
    <!-- Main-L -->
    <g transform="translate(361.832136 54.924685)scale(0.08 -0.08)">
     <defs>
      <path id="DejaVuSans-4d" d="M 628 4666 
L 1569 4666 
L 2759 1491 
L 3956 4666 
L 4897 4666 
L 4897 0 
L 4281 0 
L 4281 4097 
L 3078 897 
L 2444 897 
L 1241 4097 
L 1241 0 
L 628 0 
L 628 4666 
z
" transform="scale(0.015625)"/>
      <path id="DejaVuSans-2d" d="M 313 2009 
L 1997 2009 
L 1997 1497 
L 313 1497 
L 313 2009 
z
" transform="scale(0.015625)"/>
     </defs>
     <use xlink:href="#DejaVuSans-4d"/>
     <use xlink:href="#DejaVuSans-61" x="86.279297"/>
     <use xlink:href="#DejaVuSans-69" x="147.558594"/>
     <use xlink:href="#DejaVuSans-6e" x="175.341797"/>
     <use xlink:href="#DejaVuSans-2d" x="238.720703"/>
     <use xlink:href="#DejaVuSans-4c" x="274.804688"/>
    </g>
   </g>
   <g id="text_21">
    <!-- Main-R -->
    <g transform="translate(361.832136 78.419929)scale(0.08 -0.08)">
     <use xlink:href="#DejaVuSans-4d"/>
     <use xlink:href="#DejaVuSans-61" x="86.279297"/>
     <use xlink:href="#DejaVuSans-69" x="147.558594"/>
     <use xlink:href="#DejaVuSans-6e" x="175.341797"/>
     <use xlink:href="#DejaVuSans-2d" x="238.720703"/>
     <use xlink:href="#DejaVuSans-52" x="274.804688"/>
    </g>
   </g>
   <g id="text_22">
    <!-- AFL -->
    <g transform="translate(361.832136 156.933818)scale(0.08 -0.08)">
     <defs>
      <path id="DejaVuSans-41" d="M 2188 4044 
L 1331 1722 
L 3047 1722 
L 2188 4044 
z
M 1831 4666 
L 2547 4666 
L 4325 0 
L 3669 0 
L 3244 1197 
L 1141 1197 
L 716 0 
L 50 0 
L 1831 4666 
z
" transform="scale(0.015625)"/>
     </defs>
     <use xlink:href="#DejaVuSans-41"/>
     <use xlink:href="#DejaVuSans-46" x="68.408203"/>
     <use xlink:href="#DejaVuSans-4c" x="125.927734"/>
    </g>
   </g>
   <g id="text_23">
    <!-- AFR -->
    <g transform="translate(361.832136 100.442118)scale(0.08 -0.08)">
     <use xlink:href="#DejaVuSans-41"/>
     <use xlink:href="#DejaVuSans-46" x="68.408203"/>
     <use xlink:href="#DejaVuSans-52" x="125.927734"/>
    </g>
   </g>
   <g id="text_24">
    <!-- Nonfinal -->
    <g transform="translate(361.832136 70.170815)scale(0.08 -0.08)">
     <defs>
      <path id="DejaVuSans-4e" d="M 628 4666 
L 1478 4666 
L 3547 763 
L 3547 4666 
L 4159 4666 
L 4159 0 
L 3309 0 
L 1241 3903 
L 1241 0 
L 628 0 
L 628 4666 
z
" transform="scale(0.015625)"/>
      <path id="DejaVuSans-66" d="M 2375 4863 
L 2375 4384 
L 1825 4384 
Q 1516 4384 1395 4259 
Q 1275 4134 1275 3809 
L 1275 3500 
L 2222 3500 
L 2222 3053 
L 1275 3053 
L 1275 0 
L 697 0 
L 697 3053 
L 147 3053 
L 147 3500 
L 697 3500 
L 697 3744 
Q 697 4328 969 4595 
Q 1241 4863 1831 4863 
L 2375 4863 
z
" transform="scale(0.015625)"/>
      <path id="DejaVuSans-6c" d="M 603 4863 
L 1178 4863 
L 1178 0 
L 603 0 
L 603 4863 
z
" transform="scale(0.015625)"/>
     </defs>
     <use xlink:href="#DejaVuSans-4e"/>
     <use xlink:href="#DejaVuSans-6f" x="74.804688"/>
     <use xlink:href="#DejaVuSans-6e" x="135.986328"/>
     <use xlink:href="#DejaVuSans-66" x="199.365234"/>
     <use xlink:href="#DejaVuSans-69" x="234.570312"/>
     <use xlink:href="#DejaVuSans-6e" x="262.353516"/>
     <use xlink:href="#DejaVuSans-61" x="325.732422"/>
     <use xlink:href="#DejaVuSans-6c" x="387.011719"/>
    </g>
   </g>
   <g id="text_25">
    <!-- Trochaic -->
    <g transform="translate(361.832136 50.284558)scale(0.08 -0.08)">
     <defs>
      <path id="DejaVuSans-54" d="M -19 4666 
L 3928 4666 
L 3928 4134 
L 2272 4134 
L 2272 0 
L 1638 0 
L 1638 4134 
L -19 4134 
L -19 4666 
z
" transform="scale(0.015625)"/>
      <path id="DejaVuSans-68" d="M 3513 2113 
L 3513 0 
L 2938 0 
L 2938 2094 
Q 2938 2591 2744 2837 
Q 2550 3084 2163 3084 
Q 1697 3084 1428 2787 
Q 1159 2491 1159 1978 
L 1159 0 
L 581 0 
L 581 4863 
L 1159 4863 
L 1159 2956 
Q 1366 3272 1645 3428 
Q 1925 3584 2291 3584 
Q 2894 3584 3203 3211 
Q 3513 2838 3513 2113 
z
" transform="scale(0.015625)"/>
     </defs>
     <use xlink:href="#DejaVuSans-54"/>
     <use xlink:href="#DejaVuSans-72" x="46.333984"/>
     <use xlink:href="#DejaVuSans-6f" x="85.197266"/>
     <use xlink:href="#DejaVuSans-63" x="146.378906"/>
     <use xlink:href="#DejaVuSans-68" x="201.359375"/>
     <use xlink:href="#DejaVuSans-61" x="264.738281"/>
     <use xlink:href="#DejaVuSans-69" x="326.017578"/>
     <use xlink:href="#DejaVuSans-63" x="353.800781"/>
    </g>
   </g>
  </g>
  <g id="axes_2">
   <g id="patch_7">
    <path d="M 57.6 307.584 
L 414.72 307.584 
L 414.72 186.624 
L 57.6 186.624 
z
" style="fill: #ffffff"/>
   </g>
   <g id="matplotlib.axis_3">
    <g id="xtick_8">
     <g id="line2d_26">
      <g>
       <use xlink:href="#mb640c61438" x="72.225527" y="307.584" style="stroke: #000000; stroke-width: 0.8"/>
      </g>
     </g>
     <g id="text_26">
      <!-- 0 -->
      <g transform="translate(69.044277 322.182437)scale(0.1 -0.1)">
       <use xlink:href="#DejaVuSans-30"/>
      </g>
     </g>
    </g>
    <g id="xtick_9">
     <g id="line2d_27">
      <g>
       <use xlink:href="#mb640c61438" x="112.405545" y="307.584" style="stroke: #000000; stroke-width: 0.8"/>
      </g>
     </g>
     <g id="text_27">
      <!-- 25 -->
      <g transform="translate(106.043045 322.182437)scale(0.1 -0.1)">
       <use xlink:href="#DejaVuSans-32"/>
       <use xlink:href="#DejaVuSans-35" x="63.623047"/>
      </g>
     </g>
    </g>
    <g id="xtick_10">
     <g id="line2d_28">
      <g>
       <use xlink:href="#mb640c61438" x="152.585563" y="307.584" style="stroke: #000000; stroke-width: 0.8"/>
      </g>
     </g>
     <g id="text_28">
      <!-- 50 -->
      <g transform="translate(146.223063 322.182437)scale(0.1 -0.1)">
       <use xlink:href="#DejaVuSans-35"/>
       <use xlink:href="#DejaVuSans-30" x="63.623047"/>
      </g>
     </g>
    </g>
    <g id="xtick_11">
     <g id="line2d_29">
      <g>
       <use xlink:href="#mb640c61438" x="192.765581" y="307.584" style="stroke: #000000; stroke-width: 0.8"/>
      </g>
     </g>
     <g id="text_29">
      <!-- 75 -->
      <g transform="translate(186.403081 322.182437)scale(0.1 -0.1)">
       <use xlink:href="#DejaVuSans-37"/>
       <use xlink:href="#DejaVuSans-35" x="63.623047"/>
      </g>
     </g>
    </g>
    <g id="xtick_12">
     <g id="line2d_30">
      <g>
       <use xlink:href="#mb640c61438" x="232.945599" y="307.584" style="stroke: #000000; stroke-width: 0.8"/>
      </g>
     </g>
     <g id="text_30">
      <!-- 100 -->
      <g transform="translate(223.401849 322.182437)scale(0.1 -0.1)">
       <use xlink:href="#DejaVuSans-31"/>
       <use xlink:href="#DejaVuSans-30" x="63.623047"/>
       <use xlink:href="#DejaVuSans-30" x="127.246094"/>
      </g>
     </g>
    </g>
    <g id="xtick_13">
     <g id="line2d_31">
      <g>
       <use xlink:href="#mb640c61438" x="273.125617" y="307.584" style="stroke: #000000; stroke-width: 0.8"/>
      </g>
     </g>
     <g id="text_31">
      <!-- 125 -->
      <g transform="translate(263.581867 322.182437)scale(0.1 -0.1)">
       <use xlink:href="#DejaVuSans-31"/>
       <use xlink:href="#DejaVuSans-32" x="63.623047"/>
       <use xlink:href="#DejaVuSans-35" x="127.246094"/>
      </g>
     </g>
    </g>
    <g id="xtick_14">
     <g id="line2d_32">
      <g>
       <use xlink:href="#mb640c61438" x="313.305635" y="307.584" style="stroke: #000000; stroke-width: 0.8"/>
      </g>
     </g>
     <g id="text_32">
      <!-- 150 -->
      <g transform="translate(303.761885 322.182437)scale(0.1 -0.1)">
       <use xlink:href="#DejaVuSans-31"/>
       <use xlink:href="#DejaVuSans-35" x="63.623047"/>
       <use xlink:href="#DejaVuSans-30" x="127.246094"/>
      </g>
     </g>
    </g>
    <g id="xtick_15">
     <g id="line2d_33">
      <g>
       <use xlink:href="#mb640c61438" x="353.485653" y="307.584" style="stroke: #000000; stroke-width: 0.8"/>
      </g>
     </g>
     <g id="text_33">
      <!-- 175 -->
      <g transform="translate(343.941903 322.182437)scale(0.1 -0.1)">
       <use xlink:href="#DejaVuSans-31"/>
       <use xlink:href="#DejaVuSans-37" x="63.623047"/>
       <use xlink:href="#DejaVuSans-35" x="127.246094"/>
      </g>
     </g>
    </g>
    <g id="xtick_16">
     <g id="line2d_34">
      <g>
       <use xlink:href="#mb640c61438" x="393.665671" y="307.584" style="stroke: #000000; stroke-width: 0.8"/>
      </g>
     </g>
     <g id="text_34">
      <!-- 200 -->
      <g transform="translate(384.121921 322.182437)scale(0.1 -0.1)">
       <use xlink:href="#DejaVuSans-32"/>
       <use xlink:href="#DejaVuSans-30" x="63.623047"/>
       <use xlink:href="#DejaVuSans-30" x="127.246094"/>
      </g>
     </g>
    </g>
   </g>
   <g id="matplotlib.axis_4">
    <g id="ytick_7">
     <g id="line2d_35">
      <g>
       <use xlink:href="#m29fb622321" x="57.6" y="302.104526" style="stroke: #000000; stroke-width: 0.8"/>
      </g>
     </g>
     <g id="text_35">
      <!-- 0 -->
      <g transform="translate(44.2375 305.903745)scale(0.1 -0.1)">
       <use xlink:href="#DejaVuSans-30"/>
      </g>
     </g>
    </g>
    <g id="ytick_8">
     <g id="line2d_36">
      <g>
       <use xlink:href="#m29fb622321" x="57.6" y="264.689202" style="stroke: #000000; stroke-width: 0.8"/>
      </g>
     </g>
     <g id="text_36">
      <!-- 2000 -->
      <g transform="translate(25.15 268.488421)scale(0.1 -0.1)">
       <use xlink:href="#DejaVuSans-32"/>
       <use xlink:href="#DejaVuSans-30" x="63.623047"/>
       <use xlink:href="#DejaVuSans-30" x="127.246094"/>
       <use xlink:href="#DejaVuSans-30" x="190.869141"/>
      </g>
     </g>
    </g>
    <g id="ytick_9">
     <g id="line2d_37">
      <g>
       <use xlink:href="#m29fb622321" x="57.6" y="227.273878" style="stroke: #000000; stroke-width: 0.8"/>
      </g>
     </g>
     <g id="text_37">
      <!-- 4000 -->
      <g transform="translate(25.15 231.073097)scale(0.1 -0.1)">
       <use xlink:href="#DejaVuSans-34"/>
       <use xlink:href="#DejaVuSans-30" x="63.623047"/>
       <use xlink:href="#DejaVuSans-30" x="127.246094"/>
       <use xlink:href="#DejaVuSans-30" x="190.869141"/>
      </g>
     </g>
    </g>
    <g id="ytick_10">
     <g id="line2d_38">
      <g>
       <use xlink:href="#m29fb622321" x="57.6" y="189.858555" style="stroke: #000000; stroke-width: 0.8"/>
      </g>
     </g>
     <g id="text_38">
      <!-- 6000 -->
      <g transform="translate(25.15 193.657773)scale(0.1 -0.1)">
       <use xlink:href="#DejaVuSans-36"/>
       <use xlink:href="#DejaVuSans-30" x="63.623047"/>
       <use xlink:href="#DejaVuSans-30" x="127.246094"/>
       <use xlink:href="#DejaVuSans-30" x="190.869141"/>
      </g>
     </g>
    </g>
   </g>
   <g id="line2d_39">
    <path d="M 73.832727 302.085818 
L 117.227147 302.010988 
L 118.834347 301.936157 
L 120.441548 302.067111 
L 125.26315 302.067111 
L 126.870351 301.880034 
L 128.477552 302.029695 
L 130.084752 302.067111 
L 131.691953 301.973572 
L 139.727957 302.067111 
L 142.942358 301.973572 
L 144.549559 301.43105 
L 146.15676 301.767788 
L 149.371161 301.786496 
L 152.585563 301.973572 
L 154.192763 301.861326 
L 155.799964 302.010988 
L 159.014365 302.067111 
L 160.621566 301.730373 
L 162.228767 301.000774 
L 163.835968 301.730373 
L 165.443168 301.374927 
L 167.050369 301.356219 
L 168.65757 302.067111 
L 170.26477 301.767788 
L 171.871971 301.973572 
L 175.086373 301.898742 
L 176.693573 301.262681 
L 178.300774 301.99228 
L 179.907975 301.412342 
L 181.515176 302.010988 
L 183.122376 301.823911 
L 184.729577 301.861326 
L 186.336778 301.580711 
L 191.15838 301.842619 
L 192.765581 302.029695 
L 194.372781 301.898742 
L 195.979982 302.067111 
L 197.587183 301.131727 
L 199.194383 301.880034 
L 202.408785 302.067111 
L 204.015986 301.99228 
L 205.623186 301.692957 
L 207.230387 301.954865 
L 208.837588 301.056897 
L 210.444788 302.067111 
L 212.051989 301.262681 
L 213.65919 300.776282 
L 215.266391 301.730373 
L 216.873591 301.973572 
L 218.480792 301.936157 
L 220.087993 301.618127 
L 221.695194 301.936157 
L 223.302394 301.730373 
L 224.909595 301.842619 
L 226.516796 301.562004 
L 228.123996 302.029695 
L 229.731197 301.524588 
L 231.338398 301.206558 
L 232.945599 301.655542 
L 234.552799 301.580711 
L 236.16 300.102806 
L 237.767201 301.18785 
L 239.374401 301.692957 
L 242.588803 301.636834 
L 244.196004 300.720159 
L 245.803204 301.898742 
L 247.410405 301.767788 
L 249.017606 301.99228 
L 250.624806 302.067111 
L 252.232007 299.934437 
L 253.839208 300.009268 
L 255.446409 302.048403 
L 257.053609 301.692957 
L 258.66081 301.655542 
L 260.268011 299.504161 
L 261.875212 301.711665 
L 263.482412 300.589205 
L 265.089613 300.664036 
L 266.696814 301.019481 
L 268.304014 301.243973 
L 269.911215 300.907235 
L 271.518416 301.973572 
L 273.125617 298.737147 
L 274.732817 299.485453 
L 276.340018 299.766068 
L 277.947219 301.917449 
L 279.554419 301.655542 
L 281.16162 299.766068 
L 282.768821 300.963358 
L 285.983222 301.150435 
L 287.590423 299.055177 
L 289.197624 301.056897 
L 290.804824 299.74736 
L 292.412025 301.823911 
L 294.019226 299.1113 
L 295.626427 301.767788 
L 298.840828 301.449758 
L 302.05523 301.019481 
L 303.66243 300.626621 
L 305.269631 299.167423 
L 306.876832 299.541576 
L 308.484032 299.691237 
L 310.091233 300.346006 
L 311.698434 299.597699 
L 313.305635 298.288163 
L 314.912835 291.422451 
L 316.520036 289.90713 
L 318.127237 295.556844 
L 319.734437 301.936157 
L 321.341638 301.075604 
L 322.948839 296.978626 
L 324.55604 297.708225 
L 326.16324 300.982066 
L 327.770441 295.743921 
L 329.377642 302.010988 
L 330.984842 301.449758 
L 332.592043 294.714999 
L 334.199244 296.847673 
L 335.806445 301.412342 
L 339.020846 296.698012 
L 340.628047 295.874874 
L 342.235248 291.010882 
L 343.842448 301.468465 
L 345.449649 300.140221 
L 347.05685 301.730373 
L 348.66405 290.131622 
L 350.271251 299.223546 
L 351.878452 297.801764 
L 353.485653 288.073779 
L 355.092853 297.708225 
L 358.307255 268.449442 
L 359.914455 284.481908 
L 361.521656 301.730373 
L 363.128857 259.413641 
L 364.736058 291.721774 
L 366.343258 296.903796 
L 367.950459 288.691132 
L 369.55766 298.811977 
L 371.16486 285.435999 
L 372.772061 300.589205 
L 374.379262 298.681024 
L 375.986463 299.878314 
L 377.593663 267.813382 
L 379.200864 284.014217 
L 380.808065 265.512339 
L 382.415266 289.532977 
L 384.022466 289.663931 
L 385.629667 291.197959 
L 387.236868 282.031205 
L 388.844068 269.758979 
L 390.451269 252.229899 
L 392.05847 260.685763 
L 393.665671 286.801658 
L 395.272871 281.526098 
L 396.880072 192.122182 
L 398.487273 295.59426 
L 398.487273 295.59426 
" clip-path="url(#p1c06112308)" style="fill: none; stroke: #1f77b4; stroke-width: 1.5; stroke-linecap: square"/>
   </g>
   <g id="patch_8">
    <path d="M 57.6 307.584 
L 57.6 186.624 
" style="fill: none; stroke: #000000; stroke-width: 0.8; stroke-linejoin: miter; stroke-linecap: square"/>
   </g>
   <g id="patch_9">
    <path d="M 414.72 307.584 
L 414.72 186.624 
" style="fill: none; stroke: #000000; stroke-width: 0.8; stroke-linejoin: miter; stroke-linecap: square"/>
   </g>
   <g id="patch_10">
    <path d="M 57.6 307.584 
L 414.72 307.584 
" style="fill: none; stroke: #000000; stroke-width: 0.8; stroke-linejoin: miter; stroke-linecap: square"/>
   </g>
   <g id="patch_11">
    <path d="M 57.6 186.624 
L 414.72 186.624 
" style="fill: none; stroke: #000000; stroke-width: 0.8; stroke-linejoin: miter; stroke-linecap: square"/>
   </g>
  </g>
 </g>
 <defs>
  <clipPath id="pf0e78a08bd">
   <rect x="57.6" y="41.472" width="357.12" height="120.96"/>
  </clipPath>
  <clipPath id="p1c06112308">
   <rect x="57.6" y="186.624" width="357.12" height="120.96"/>
  </clipPath>
 </defs>
</svg>
