<?xml version="1.0" encoding="utf-8" standalone="no"?>
<!DOCTYPE svg PUBLIC "-//W3C//DTD SVG 1.1//EN"
  "http://www.w3.org/Graphics/SVG/1.1/DTD/svg11.dtd">
<svg xmlns:xlink="http://www.w3.org/1999/xlink" width="460.8pt" height="345.6pt" viewBox="0 0 460.8 345.6" xmlns="http://www.w3.org/2000/svg" version="1.1">
 <metadata>
  <rdf:RDF xmlns:dc="http://purl.org/dc/elements/1.1/" xmlns:cc="http://creativecommons.org/ns#" xmlns:rdf="http://www.w3.org/1999/02/22-rdf-syntax-ns#">
   <cc:Work>
    <dc:type rdf:resource="http://purl.org/dc/dcmitype/StillImage"/>
    <dc:date>2022-05-13T16:20:13.047869</dc:date>
    <dc:format>image/svg+xml</dc:format>
    <dc:creator>
     <cc:Agent>
      <dc:title>Matplotlib v3.5.1, https://matplotlib.org/</dc:title>
     </cc:Agent>
    </dc:creator>
   </cc:Work>
  </rdf:RDF>
 </metadata>
 <defs>
  <style type="text/css">*{stroke-linejoin: round; stroke-linecap: butt}</style>
 </defs>
 <g id="figure_1">
  <g id="patch_1">
   <path d="M 0 345.6 
L 460.8 345.6 
L 460.8 0 
L 0 0 
z
" style="fill: #ffffff"/>
  </g>
  <g id="axes_1">
   <g id="patch_2">
    <path d="M 57.6 162.432 
L 414.72 162.432 
L 414.72 41.472 
L 57.6 41.472 
z
" style="fill: #ffffff"/>
   </g>
   <g id="matplotlib.axis_1">
    <g id="xtick_1">
     <g id="line2d_1">
      <defs>
       <path id="m742c2a6856" d="M 0 0 
L 0 3.5 
" style="stroke: #000000; stroke-width: 0.8"/>
      </defs>
      <g>
       <use xlink:href="#m742c2a6856" x="73.827491" y="162.432" style="stroke: #000000; stroke-width: 0.8"/>
      </g>
     </g>
     <g id="text_1">
      <!-- 0 -->
      <g transform="translate(70.646241 177.030437)scale(0.1 -0.1)">
       <defs>
        <path id="DejaVuSans-30" d="M 2034 4250 
Q 1547 4250 1301 3770 
Q 1056 3291 1056 2328 
Q 1056 1369 1301 889 
Q 1547 409 2034 409 
Q 2525 409 2770 889 
Q 3016 1369 3016 2328 
Q 3016 3291 2770 3770 
Q 2525 4250 2034 4250 
z
M 2034 4750 
Q 2819 4750 3233 4129 
Q 3647 3509 3647 2328 
Q 3647 1150 3233 529 
Q 2819 -91 2034 -91 
Q 1250 -91 836 529 
Q 422 1150 422 2328 
Q 422 3509 836 4129 
Q 1250 4750 2034 4750 
z
" transform="scale(0.015625)"/>
       </defs>
       <use xlink:href="#DejaVuSans-30"/>
      </g>
     </g>
    </g>
    <g id="xtick_2">
     <g id="line2d_2">
      <g>
       <use xlink:href="#m742c2a6856" x="126.191972" y="162.432" style="stroke: #000000; stroke-width: 0.8"/>
      </g>
     </g>
     <g id="text_2">
      <!-- 10000 -->
      <g transform="translate(110.285722 177.030437)scale(0.1 -0.1)">
       <defs>
        <path id="DejaVuSans-31" d="M 794 531 
L 1825 531 
L 1825 4091 
L 703 3866 
L 703 4441 
L 1819 4666 
L 2450 4666 
L 2450 531 
L 3481 531 
L 3481 0 
L 794 0 
L 794 531 
z
" transform="scale(0.015625)"/>
       </defs>
       <use xlink:href="#DejaVuSans-31"/>
       <use xlink:href="#DejaVuSans-30" x="63.623047"/>
       <use xlink:href="#DejaVuSans-30" x="127.246094"/>
       <use xlink:href="#DejaVuSans-30" x="190.869141"/>
       <use xlink:href="#DejaVuSans-30" x="254.492188"/>
      </g>
     </g>
    </g>
    <g id="xtick_3">
     <g id="line2d_3">
      <g>
       <use xlink:href="#m742c2a6856" x="178.556453" y="162.432" style="stroke: #000000; stroke-width: 0.8"/>
      </g>
     </g>
     <g id="text_3">
      <!-- 20000 -->
      <g transform="translate(162.650203 177.030437)scale(0.1 -0.1)">
       <defs>
        <path id="DejaVuSans-32" d="M 1228 531 
L 3431 531 
L 3431 0 
L 469 0 
L 469 531 
Q 828 903 1448 1529 
Q 2069 2156 2228 2338 
Q 2531 2678 2651 2914 
Q 2772 3150 2772 3378 
Q 2772 3750 2511 3984 
Q 2250 4219 1831 4219 
Q 1534 4219 1204 4116 
Q 875 4013 500 3803 
L 500 4441 
Q 881 4594 1212 4672 
Q 1544 4750 1819 4750 
Q 2544 4750 2975 4387 
Q 3406 4025 3406 3419 
Q 3406 3131 3298 2873 
Q 3191 2616 2906 2266 
Q 2828 2175 2409 1742 
Q 1991 1309 1228 531 
z
" transform="scale(0.015625)"/>
       </defs>
       <use xlink:href="#DejaVuSans-32"/>
       <use xlink:href="#DejaVuSans-30" x="63.623047"/>
       <use xlink:href="#DejaVuSans-30" x="127.246094"/>
       <use xlink:href="#DejaVuSans-30" x="190.869141"/>
       <use xlink:href="#DejaVuSans-30" x="254.492188"/>
      </g>
     </g>
    </g>
    <g id="xtick_4">
     <g id="line2d_4">
      <g>
       <use xlink:href="#m742c2a6856" x="230.920934" y="162.432" style="stroke: #000000; stroke-width: 0.8"/>
      </g>
     </g>
     <g id="text_4">
      <!-- 30000 -->
      <g transform="translate(215.014684 177.030437)scale(0.1 -0.1)">
       <defs>
        <path id="DejaVuSans-33" d="M 2597 2516 
Q 3050 2419 3304 2112 
Q 3559 1806 3559 1356 
Q 3559 666 3084 287 
Q 2609 -91 1734 -91 
Q 1441 -91 1130 -33 
Q 819 25 488 141 
L 488 750 
Q 750 597 1062 519 
Q 1375 441 1716 441 
Q 2309 441 2620 675 
Q 2931 909 2931 1356 
Q 2931 1769 2642 2001 
Q 2353 2234 1838 2234 
L 1294 2234 
L 1294 2753 
L 1863 2753 
Q 2328 2753 2575 2939 
Q 2822 3125 2822 3475 
Q 2822 3834 2567 4026 
Q 2313 4219 1838 4219 
Q 1578 4219 1281 4162 
Q 984 4106 628 3988 
L 628 4550 
Q 988 4650 1302 4700 
Q 1616 4750 1894 4750 
Q 2613 4750 3031 4423 
Q 3450 4097 3450 3541 
Q 3450 3153 3228 2886 
Q 3006 2619 2597 2516 
z
" transform="scale(0.015625)"/>
       </defs>
       <use xlink:href="#DejaVuSans-33"/>
       <use xlink:href="#DejaVuSans-30" x="63.623047"/>
       <use xlink:href="#DejaVuSans-30" x="127.246094"/>
       <use xlink:href="#DejaVuSans-30" x="190.869141"/>
       <use xlink:href="#DejaVuSans-30" x="254.492188"/>
      </g>
     </g>
    </g>
    <g id="xtick_5">
     <g id="line2d_5">
      <g>
       <use xlink:href="#m742c2a6856" x="283.285415" y="162.432" style="stroke: #000000; stroke-width: 0.8"/>
      </g>
     </g>
     <g id="text_5">
      <!-- 40000 -->
      <g transform="translate(267.379165 177.030437)scale(0.1 -0.1)">
       <defs>
        <path id="DejaVuSans-34" d="M 2419 4116 
L 825 1625 
L 2419 1625 
L 2419 4116 
z
M 2253 4666 
L 3047 4666 
L 3047 1625 
L 3713 1625 
L 3713 1100 
L 3047 1100 
L 3047 0 
L 2419 0 
L 2419 1100 
L 313 1100 
L 313 1709 
L 2253 4666 
z
" transform="scale(0.015625)"/>
       </defs>
       <use xlink:href="#DejaVuSans-34"/>
       <use xlink:href="#DejaVuSans-30" x="63.623047"/>
       <use xlink:href="#DejaVuSans-30" x="127.246094"/>
       <use xlink:href="#DejaVuSans-30" x="190.869141"/>
       <use xlink:href="#DejaVuSans-30" x="254.492188"/>
      </g>
     </g>
    </g>
    <g id="xtick_6">
     <g id="line2d_6">
      <g>
       <use xlink:href="#m742c2a6856" x="335.649896" y="162.432" style="stroke: #000000; stroke-width: 0.8"/>
      </g>
     </g>
     <g id="text_6">
      <!-- 50000 -->
      <g transform="translate(319.743646 177.030437)scale(0.1 -0.1)">
       <defs>
        <path id="DejaVuSans-35" d="M 691 4666 
L 3169 4666 
L 3169 4134 
L 1269 4134 
L 1269 2991 
Q 1406 3038 1543 3061 
Q 1681 3084 1819 3084 
Q 2600 3084 3056 2656 
Q 3513 2228 3513 1497 
Q 3513 744 3044 326 
Q 2575 -91 1722 -91 
Q 1428 -91 1123 -41 
Q 819 9 494 109 
L 494 744 
Q 775 591 1075 516 
Q 1375 441 1709 441 
Q 2250 441 2565 725 
Q 2881 1009 2881 1497 
Q 2881 1984 2565 2268 
Q 2250 2553 1709 2553 
Q 1456 2553 1204 2497 
Q 953 2441 691 2322 
L 691 4666 
z
" transform="scale(0.015625)"/>
       </defs>
       <use xlink:href="#DejaVuSans-35"/>
       <use xlink:href="#DejaVuSans-30" x="63.623047"/>
       <use xlink:href="#DejaVuSans-30" x="127.246094"/>
       <use xlink:href="#DejaVuSans-30" x="190.869141"/>
       <use xlink:href="#DejaVuSans-30" x="254.492188"/>
      </g>
     </g>
    </g>
    <g id="xtick_7">
     <g id="line2d_7">
      <g>
       <use xlink:href="#m742c2a6856" x="388.014377" y="162.432" style="stroke: #000000; stroke-width: 0.8"/>
      </g>
     </g>
     <g id="text_7">
      <!-- 60000 -->
      <g transform="translate(372.108127 177.030437)scale(0.1 -0.1)">
       <defs>
        <path id="DejaVuSans-36" d="M 2113 2584 
Q 1688 2584 1439 2293 
Q 1191 2003 1191 1497 
Q 1191 994 1439 701 
Q 1688 409 2113 409 
Q 2538 409 2786 701 
Q 3034 994 3034 1497 
Q 3034 2003 2786 2293 
Q 2538 2584 2113 2584 
z
M 3366 4563 
L 3366 3988 
Q 3128 4100 2886 4159 
Q 2644 4219 2406 4219 
Q 1781 4219 1451 3797 
Q 1122 3375 1075 2522 
Q 1259 2794 1537 2939 
Q 1816 3084 2150 3084 
Q 2853 3084 3261 2657 
Q 3669 2231 3669 1497 
Q 3669 778 3244 343 
Q 2819 -91 2113 -91 
Q 1303 -91 875 529 
Q 447 1150 447 2328 
Q 447 3434 972 4092 
Q 1497 4750 2381 4750 
Q 2619 4750 2861 4703 
Q 3103 4656 3366 4563 
z
" transform="scale(0.015625)"/>
       </defs>
       <use xlink:href="#DejaVuSans-36"/>
       <use xlink:href="#DejaVuSans-30" x="63.623047"/>
       <use xlink:href="#DejaVuSans-30" x="127.246094"/>
       <use xlink:href="#DejaVuSans-30" x="190.869141"/>
       <use xlink:href="#DejaVuSans-30" x="254.492188"/>
      </g>
     </g>
    </g>
   </g>
   <g id="matplotlib.axis_2">
    <g id="ytick_1">
     <g id="line2d_8">
      <defs>
       <path id="ma11a08ea88" d="M 0 0 
L -3.5 0 
" style="stroke: #000000; stroke-width: 0.8"/>
      </defs>
      <g>
       <use xlink:href="#ma11a08ea88" x="57.6" y="152.272879" style="stroke: #000000; stroke-width: 0.8"/>
      </g>
     </g>
     <g id="text_8">
      <!-- 60 -->
      <g transform="translate(37.875 156.072098)scale(0.1 -0.1)">
       <use xlink:href="#DejaVuSans-36"/>
       <use xlink:href="#DejaVuSans-30" x="63.623047"/>
      </g>
     </g>
    </g>
    <g id="ytick_2">
     <g id="line2d_9">
      <g>
       <use xlink:href="#ma11a08ea88" x="57.6" y="126.378773" style="stroke: #000000; stroke-width: 0.8"/>
      </g>
     </g>
     <g id="text_9">
      <!-- 70 -->
      <g transform="translate(37.875 130.177992)scale(0.1 -0.1)">
       <defs>
        <path id="DejaVuSans-37" d="M 525 4666 
L 3525 4666 
L 3525 4397 
L 1831 0 
L 1172 0 
L 2766 4134 
L 525 4134 
L 525 4666 
z
" transform="scale(0.015625)"/>
       </defs>
       <use xlink:href="#DejaVuSans-37"/>
       <use xlink:href="#DejaVuSans-30" x="63.623047"/>
      </g>
     </g>
    </g>
    <g id="ytick_3">
     <g id="line2d_10">
      <g>
       <use xlink:href="#ma11a08ea88" x="57.6" y="100.484667" style="stroke: #000000; stroke-width: 0.8"/>
      </g>
     </g>
     <g id="text_10">
      <!-- 80 -->
      <g transform="translate(37.875 104.283886)scale(0.1 -0.1)">
       <defs>
        <path id="DejaVuSans-38" d="M 2034 2216 
Q 1584 2216 1326 1975 
Q 1069 1734 1069 1313 
Q 1069 891 1326 650 
Q 1584 409 2034 409 
Q 2484 409 2743 651 
Q 3003 894 3003 1313 
Q 3003 1734 2745 1975 
Q 2488 2216 2034 2216 
z
M 1403 2484 
Q 997 2584 770 2862 
Q 544 3141 544 3541 
Q 544 4100 942 4425 
Q 1341 4750 2034 4750 
Q 2731 4750 3128 4425 
Q 3525 4100 3525 3541 
Q 3525 3141 3298 2862 
Q 3072 2584 2669 2484 
Q 3125 2378 3379 2068 
Q 3634 1759 3634 1313 
Q 3634 634 3220 271 
Q 2806 -91 2034 -91 
Q 1263 -91 848 271 
Q 434 634 434 1313 
Q 434 1759 690 2068 
Q 947 2378 1403 2484 
z
M 1172 3481 
Q 1172 3119 1398 2916 
Q 1625 2713 2034 2713 
Q 2441 2713 2670 2916 
Q 2900 3119 2900 3481 
Q 2900 3844 2670 4047 
Q 2441 4250 2034 4250 
Q 1625 4250 1398 4047 
Q 1172 3844 1172 3481 
z
" transform="scale(0.015625)"/>
       </defs>
       <use xlink:href="#DejaVuSans-38"/>
       <use xlink:href="#DejaVuSans-30" x="63.623047"/>
      </g>
     </g>
    </g>
    <g id="ytick_4">
     <g id="line2d_11">
      <g>
       <use xlink:href="#ma11a08ea88" x="57.6" y="74.590561" style="stroke: #000000; stroke-width: 0.8"/>
      </g>
     </g>
     <g id="text_11">
      <!-- 90 -->
      <g transform="translate(37.875 78.38978)scale(0.1 -0.1)">
       <defs>
        <path id="DejaVuSans-39" d="M 703 97 
L 703 672 
Q 941 559 1184 500 
Q 1428 441 1663 441 
Q 2288 441 2617 861 
Q 2947 1281 2994 2138 
Q 2813 1869 2534 1725 
Q 2256 1581 1919 1581 
Q 1219 1581 811 2004 
Q 403 2428 403 3163 
Q 403 3881 828 4315 
Q 1253 4750 1959 4750 
Q 2769 4750 3195 4129 
Q 3622 3509 3622 2328 
Q 3622 1225 3098 567 
Q 2575 -91 1691 -91 
Q 1453 -91 1209 -44 
Q 966 3 703 97 
z
M 1959 2075 
Q 2384 2075 2632 2365 
Q 2881 2656 2881 3163 
Q 2881 3666 2632 3958 
Q 2384 4250 1959 4250 
Q 1534 4250 1286 3958 
Q 1038 3666 1038 3163 
Q 1038 2656 1286 2365 
Q 1534 2075 1959 2075 
z
" transform="scale(0.015625)"/>
       </defs>
       <use xlink:href="#DejaVuSans-39"/>
       <use xlink:href="#DejaVuSans-30" x="63.623047"/>
      </g>
     </g>
    </g>
    <g id="ytick_5">
     <g id="line2d_12">
      <g>
       <use xlink:href="#ma11a08ea88" x="57.6" y="48.696456" style="stroke: #000000; stroke-width: 0.8"/>
      </g>
     </g>
     <g id="text_12">
      <!-- 100 -->
      <g transform="translate(31.5125 52.495674)scale(0.1 -0.1)">
       <use xlink:href="#DejaVuSans-31"/>
       <use xlink:href="#DejaVuSans-30" x="63.623047"/>
       <use xlink:href="#DejaVuSans-30" x="127.246094"/>
      </g>
     </g>
    </g>
   </g>
   <g id="line2d_13">
    <path d="M 73.832727 48.696456 
L 73.837964 48.696456 
L 73.874619 48.264887 
L 73.879855 50.854298 
L 73.890328 50.854298 
L 74.047422 78.474677 
L 74.052658 77.179972 
L 74.089313 74.590561 
L 74.125968 83.653499 
L 74.25688 94.011141 
L 74.267352 94.011141 
L 74.272589 93.493259 
L 74.298771 101.261491 
L 74.31448 99.966785 
L 74.450628 112.913838 
L 74.461101 112.913838 
L 74.466337 111.619133 
L 74.513466 116.366386 
L 74.555357 116.366386 
L 74.592012 116.366386 
L 74.618194 113.776975 
L 74.63914 118.955796 
L 74.691505 118.955796 
L 75.03711 118.955796 
L 75.152312 117.661091 
L 75.806868 117.661091 
L 75.92207 120.250501 
L 78.184216 120.250501 
L 78.299417 119.603149 
L 78.760225 119.603149 
L 78.875427 122.192559 
L 79.252451 122.192559 
L 79.367653 124.78197 
L 79.456673 124.78197 
L 79.545692 123.487265 
L 79.550929 126.076675 
L 79.561401 126.076675 
L 94.935613 126.076675 
L 95.050815 128.666086 
L 97.134921 128.666086 
L 97.250123 131.255497 
L 179.41523 131.255497 
L 179.530432 130.608144 
L 189.851471 130.608144 
L 189.966673 133.197554 
L 280.839993 133.197554 
L 280.955195 135.786965 
L 398.487273 135.786965 
L 398.487273 135.786965 
" clip-path="url(#p9a5ef4c6bc)" style="fill: none; stroke: #1f77b4; stroke-width: 1.5; stroke-linecap: square"/>
   </g>
   <g id="line2d_14">
    <path d="M 73.832727 48.696456 
L 73.8432 48.696456 
L 73.864146 49.991161 
L 73.963638 47.40175 
L 73.968875 47.40175 
L 74.099786 62.938214 
L 74.105023 60.348803 
L 74.131205 60.348803 
L 74.283062 83.006146 
L 74.288298 83.006146 
L 74.429682 99.837315 
L 74.466337 99.837315 
L 74.597249 110.194957 
L 74.618194 110.194957 
L 74.733396 112.784368 
L 75.806868 112.784368 
L 75.92207 115.373778 
L 78.760225 115.373778 
L 78.875427 117.963189 
L 79.545692 117.963189 
L 79.660894 120.552599 
L 94.935613 120.552599 
L 95.050815 123.14201 
L 104.219836 123.14201 
L 104.335037 125.731421 
L 280.839993 125.731421 
L 280.955195 128.320831 
L 398.487273 128.320831 
L 398.487273 128.320831 
" clip-path="url(#p9a5ef4c6bc)" style="fill: none; stroke: #ff7f0e; stroke-width: 1.5; stroke-linecap: square"/>
   </g>
   <g id="line2d_15">
    <path d="M 73.832727 51.285866 
L 73.837964 51.285866 
L 73.85891 48.264887 
L 73.885092 55.169982 
L 74.016003 71.569582 
L 74.021239 68.980172 
L 74.031712 68.980172 
L 74.036949 68.117035 
L 74.068367 74.590561 
L 74.105023 73.295856 
L 74.204515 88.616535 
L 74.24117 87.106046 
L 74.262116 87.106046 
L 74.351136 95.651101 
L 74.377318 93.493259 
L 74.502993 84.430322 
L 74.592012 84.430322 
L 74.722923 79.2515 
L 75.03711 79.2515 
L 75.152312 77.956795 
L 75.649775 77.956795 
L 75.764977 77.093658 
L 78.184216 77.093658 
L 78.299417 76.446306 
L 78.514112 76.446306 
L 78.629314 73.856895 
L 79.456673 73.856895 
L 79.571874 72.56219 
L 85.887031 72.56219 
L 86.002233 71.699053 
L 104.219836 71.699053 
L 104.335037 69.109642 
L 179.41523 69.109642 
L 179.530432 68.46229 
L 189.851471 68.46229 
L 189.966673 65.872879 
L 248.211685 65.872879 
L 248.326887 65.009742 
L 398.487273 65.009742 
L 398.487273 65.009742 
" clip-path="url(#p9a5ef4c6bc)" style="fill: none; stroke: #2ca02c; stroke-width: 1.5; stroke-linecap: square"/>
   </g>
   <g id="line2d_16">
    <path d="M 73.832727 48.696456 
L 73.8432 48.696456 
L 73.984584 71.138014 
L 73.995057 69.843309 
L 74.000294 68.980172 
L 74.021239 76.748404 
L 74.063131 74.590561 
L 74.178333 88.184967 
L 74.194042 86.027125 
L 74.199279 86.027125 
L 74.25688 82.358793 
L 74.288298 88.746006 
L 74.293535 88.098653 
L 74.419209 96.945806 
L 74.445392 96.945806 
L 74.560594 100.829922 
L 74.571066 100.829922 
L 74.592012 100.182569 
L 74.63914 105.361391 
L 74.644377 105.361391 
L 74.707214 105.361391 
L 74.827652 110.540212 
L 75.03711 110.540212 
L 75.152312 113.129622 
L 75.649775 113.129622 
L 75.764977 115.719033 
L 75.806868 115.719033 
L 75.92207 114.855896 
L 78.760225 114.855896 
L 78.875427 113.992759 
L 79.252451 113.992759 
L 79.367653 116.58217 
L 79.545692 116.58217 
L 79.660894 115.719033 
L 85.887031 115.719033 
L 86.002233 118.308444 
L 97.134921 118.308444 
L 97.250123 120.897854 
L 104.219836 120.897854 
L 104.335037 123.487265 
L 179.399521 123.487265 
L 179.514723 126.076675 
L 189.851471 126.076675 
L 189.966673 128.666086 
L 248.211685 128.666086 
L 248.326887 131.255497 
L 280.839993 131.255497 
L 280.955195 130.39236 
L 398.487273 130.39236 
L 398.487273 130.39236 
" clip-path="url(#p9a5ef4c6bc)" style="fill: none; stroke: #d62728; stroke-width: 1.5; stroke-linecap: square"/>
   </g>
   <g id="line2d_17">
    <path d="M 73.832727 48.696456 
L 73.837964 48.696456 
L 73.953166 48.264887 
L 398.487273 48.264887 
L 398.487273 48.264887 
" clip-path="url(#p9a5ef4c6bc)" style="fill: none; stroke: #9467bd; stroke-width: 1.5; stroke-linecap: square"/>
   </g>
   <g id="line2d_18">
    <path d="M 73.832727 51.285866 
L 73.837964 51.285866 
L 73.900801 62.075077 
L 73.968875 61.643508 
L 74.000294 61.643508 
L 74.031712 66.82233 
L 74.115495 65.31184 
L 74.220224 65.31184 
L 74.335426 64.664488 
L 74.47681 64.664488 
L 74.592012 64.232919 
L 75.649775 64.232919 
L 75.764977 63.369782 
L 78.184216 63.369782 
L 78.299417 62.72243 
L 85.887031 62.72243 
L 86.002233 61.859293 
L 179.41523 61.859293 
L 179.530432 61.21194 
L 248.211685 61.21194 
L 248.326887 60.348803 
L 398.487273 60.348803 
L 398.487273 60.348803 
" clip-path="url(#p9a5ef4c6bc)" style="fill: none; stroke: #8c564b; stroke-width: 1.5; stroke-linecap: square"/>
   </g>
   <g id="line2d_19">
    <path d="M 73.832727 48.696456 
L 73.953166 76.532619 
L 73.989821 73.51164 
L 74.00553 72.001151 
L 74.036949 76.532619 
L 74.084077 75.237914 
L 74.099786 75.237914 
L 74.178333 82.574577 
L 74.214988 79.769383 
L 74.220224 79.769383 
L 74.31448 95.435317 
L 74.356372 92.198553 
L 74.366845 92.198553 
L 74.502993 106.87188 
L 74.523938 106.87188 
L 74.649613 116.58217 
L 74.707214 116.58217 
L 74.827652 121.760991 
L 75.03711 121.760991 
L 75.152312 124.350402 
L 75.649775 124.350402 
L 75.764977 126.939812 
L 78.184216 126.939812 
L 78.299417 129.529223 
L 78.514112 129.529223 
L 78.629314 132.118633 
L 79.252451 132.118633 
L 79.367653 134.708044 
L 79.456673 134.708044 
L 79.571874 137.297455 
L 85.887031 137.297455 
L 86.002233 139.886865 
L 94.935613 139.886865 
L 95.050815 139.023728 
L 97.134921 139.023728 
L 97.250123 141.613139 
L 104.219836 141.613139 
L 104.335037 144.202549 
L 179.399521 144.202549 
L 179.519959 149.381371 
L 189.851471 149.381371 
L 189.966673 151.970781 
L 248.211685 151.970781 
L 248.326887 154.560192 
L 398.487273 154.560192 
L 398.487273 154.560192 
" clip-path="url(#p9a5ef4c6bc)" style="fill: none; stroke: #e377c2; stroke-width: 1.5; stroke-linecap: square"/>
   </g>
   <g id="line2d_20">
    <path d="M 73.832727 51.285866 
L 73.879855 47.833319 
L 73.900801 58.190961 
L 73.93222 54.522629 
L 73.937456 54.522629 
L 74.000294 53.659493 
L 74.016003 57.975177 
L 74.026476 57.975177 
L 74.031712 57.975177 
L 74.146914 56.464687 
L 74.220224 56.464687 
L 74.335426 55.817335 
L 74.47681 55.817335 
L 74.592012 55.385766 
L 75.649775 55.385766 
L 75.764977 54.522629 
L 78.184216 54.522629 
L 78.299417 53.875277 
L 85.887031 53.875277 
L 86.002233 53.01214 
L 179.41523 53.01214 
L 179.530432 52.364787 
L 248.211685 52.364787 
L 248.326887 51.50165 
L 398.487273 51.50165 
L 398.487273 51.50165 
" clip-path="url(#p9a5ef4c6bc)" style="fill: none; stroke: #7f7f7f; stroke-width: 1.5; stroke-linecap: square"/>
   </g>
   <g id="line2d_21">
    <path d="M 73.832727 48.696456 
L 73.837964 48.696456 
L 73.8432 48.264887 
L 73.85891 56.033119 
L 73.869382 54.738414 
L 73.979348 67.469682 
L 73.995057 65.31184 
L 74.00553 63.585566 
L 74.057895 71.785367 
L 74.068367 71.138014 
L 74.073604 71.138014 
L 74.178333 83.653499 
L 74.199279 81.495656 
L 74.220224 79.12203 
L 74.251643 87.969183 
L 74.25688 87.32183 
L 74.408737 108.38237 
L 74.424446 108.38237 
L 74.429682 107.087664 
L 74.466337 114.855896 
L 74.513466 113.129622 
L 74.523938 113.129622 
L 74.649613 121.545207 
L 74.707214 121.545207 
L 74.827652 126.724028 
L 75.03711 126.724028 
L 75.152312 129.313439 
L 75.649775 129.313439 
L 75.764977 131.902849 
L 75.806868 131.902849 
L 75.92207 131.039712 
L 78.184216 131.039712 
L 78.299417 133.629123 
L 78.514112 133.629123 
L 78.629314 136.218533 
L 78.760225 136.218533 
L 78.875427 135.355397 
L 79.252451 135.355397 
L 79.367653 137.944807 
L 79.456673 137.944807 
L 79.545692 140.534218 
L 79.566638 139.671081 
L 85.887031 139.671081 
L 86.002233 142.260492 
L 94.935613 142.260492 
L 95.050815 141.397355 
L 97.134921 141.397355 
L 97.250123 143.986765 
L 104.219836 143.986765 
L 104.335037 146.576176 
L 179.399521 146.576176 
L 179.519959 151.754997 
L 189.851471 151.754997 
L 189.966673 154.344408 
L 248.211685 154.344408 
L 248.326887 156.933818 
L 280.839993 156.933818 
L 280.955195 156.070681 
L 398.487273 156.070681 
L 398.487273 156.070681 
" clip-path="url(#p9a5ef4c6bc)" style="fill: none; stroke: #bcbd22; stroke-width: 1.5; stroke-linecap: square"/>
   </g>
   <g id="line2d_22">
    <path d="M 73.832727 51.285866 
L 73.837964 51.285866 
L 74.036949 97.463688 
L 74.052658 95.953199 
L 74.07884 103.074078 
L 74.099786 102.210941 
L 74.105023 104.800352 
L 74.152151 95.737415 
L 74.209752 101.779373 
L 74.372081 89.048104 
L 74.24117 108.037115 
L 74.377318 91.637514 
L 74.47681 98.111041 
L 74.497756 97.679473 
L 74.508229 97.679473 
L 74.592012 93.579572 
L 74.607722 96.168983 
L 74.618194 98.758394 
L 74.63914 94.874278 
L 74.717687 97.463688 
L 74.790997 97.463688 
L 74.906199 94.874278 
L 75.03711 94.874278 
L 75.152312 97.463688 
L 75.806868 97.463688 
L 75.92207 96.600551 
L 78.514112 96.600551 
L 78.629314 99.189962 
L 78.760225 99.189962 
L 78.875427 98.326825 
L 79.252451 98.326825 
L 79.367653 95.737415 
L 79.456673 95.737415 
L 79.545692 98.326825 
L 79.566638 97.463688 
L 94.935613 97.463688 
L 95.050815 96.600551 
L 97.134921 96.600551 
L 97.250123 94.011141 
L 104.219836 94.011141 
L 104.335037 96.600551 
L 179.399521 96.600551 
L 179.514723 94.011141 
L 189.851471 94.011141 
L 189.966673 96.600551 
L 280.839993 96.600551 
L 280.955195 95.737415 
L 398.487273 95.737415 
L 398.487273 95.737415 
" clip-path="url(#p9a5ef4c6bc)" style="fill: none; stroke: #17becf; stroke-width: 1.5; stroke-linecap: square"/>
   </g>
   <g id="line2d_23">
    <path d="M 73.832727 47.40175 
L 73.837964 47.40175 
L 73.8432 46.970182 
L 73.853673 52.149003 
L 73.874619 52.149003 
L 73.937456 62.290861 
L 73.900801 51.933219 
L 74.000294 61.427724 
L 74.031712 59.917235 
L 74.036949 62.506645 
L 74.099786 62.506645 
L 74.105023 62.506645 
L 74.225461 67.685467 
L 74.47681 67.685467 
L 74.592012 70.274877 
L 75.649775 70.274877 
L 75.764977 72.864288 
L 78.184216 72.864288 
L 78.299417 75.453698 
L 85.887031 75.453698 
L 86.002233 78.043109 
L 179.41523 78.043109 
L 179.530432 80.632519 
L 248.211685 80.632519 
L 248.326887 83.22193 
L 398.487273 83.22193 
L 398.487273 83.22193 
" clip-path="url(#p9a5ef4c6bc)" style="fill: none; stroke: #1f77b4; stroke-width: 1.5; stroke-linecap: square"/>
   </g>
   <g id="line2d_24">
    <path d="M 73.832727 47.40175 
L 73.8432 47.40175 
L 74.000294 71.353798 
L 74.010767 71.353798 
L 74.036949 73.295856 
L 74.146914 68.117035 
L 74.220224 68.117035 
L 74.335426 70.706446 
L 398.487273 70.706446 
L 398.487273 70.706446 
" clip-path="url(#p9a5ef4c6bc)" style="fill: none; stroke: #ff7f0e; stroke-width: 1.5; stroke-linecap: square"/>
   </g>
   <g id="patch_3">
    <path d="M 57.6 162.432 
L 57.6 41.472 
" style="fill: none; stroke: #000000; stroke-width: 0.8; stroke-linejoin: miter; stroke-linecap: square"/>
   </g>
   <g id="patch_4">
    <path d="M 414.72 162.432 
L 414.72 41.472 
" style="fill: none; stroke: #000000; stroke-width: 0.8; stroke-linejoin: miter; stroke-linecap: square"/>
   </g>
   <g id="patch_5">
    <path d="M 57.6 162.432 
L 414.72 162.432 
" style="fill: none; stroke: #000000; stroke-width: 0.8; stroke-linejoin: miter; stroke-linecap: square"/>
   </g>
   <g id="patch_6">
    <path d="M 57.6 41.472 
L 414.72 41.472 
" style="fill: none; stroke: #000000; stroke-width: 0.8; stroke-linejoin: miter; stroke-linecap: square"/>
   </g>
   <g id="text_13">
    <!-- WSP -->
    <g transform="translate(361.832136 135.786965)scale(0.08 -0.08)">
     <defs>
      <path id="DejaVuSans-57" d="M 213 4666 
L 850 4666 
L 1831 722 
L 2809 4666 
L 3519 4666 
L 4500 722 
L 5478 4666 
L 6119 4666 
L 4947 0 
L 4153 0 
L 3169 4050 
L 2175 0 
L 1381 0 
L 213 4666 
z
" transform="scale(0.015625)"/>
      <path id="DejaVuSans-53" d="M 3425 4513 
L 3425 3897 
Q 3066 4069 2747 4153 
Q 2428 4238 2131 4238 
Q 1616 4238 1336 4038 
Q 1056 3838 1056 3469 
Q 1056 3159 1242 3001 
Q 1428 2844 1947 2747 
L 2328 2669 
Q 3034 2534 3370 2195 
Q 3706 1856 3706 1288 
Q 3706 609 3251 259 
Q 2797 -91 1919 -91 
Q 1588 -91 1214 -16 
Q 841 59 441 206 
L 441 856 
Q 825 641 1194 531 
Q 1563 422 1919 422 
Q 2459 422 2753 634 
Q 3047 847 3047 1241 
Q 3047 1584 2836 1778 
Q 2625 1972 2144 2069 
L 1759 2144 
Q 1053 2284 737 2584 
Q 422 2884 422 3419 
Q 422 4038 858 4394 
Q 1294 4750 2059 4750 
Q 2388 4750 2728 4690 
Q 3069 4631 3425 4513 
z
" transform="scale(0.015625)"/>
      <path id="DejaVuSans-50" d="M 1259 4147 
L 1259 2394 
L 2053 2394 
Q 2494 2394 2734 2622 
Q 2975 2850 2975 3272 
Q 2975 3691 2734 3919 
Q 2494 4147 2053 4147 
L 1259 4147 
z
M 628 4666 
L 2053 4666 
Q 2838 4666 3239 4311 
Q 3641 3956 3641 3272 
Q 3641 2581 3239 2228 
Q 2838 1875 2053 1875 
L 1259 1875 
L 1259 0 
L 628 0 
L 628 4666 
z
" transform="scale(0.015625)"/>
     </defs>
     <use xlink:href="#DejaVuSans-57"/>
     <use xlink:href="#DejaVuSans-53" x="98.876953"/>
     <use xlink:href="#DejaVuSans-50" x="162.353516"/>
    </g>
   </g>
   <g id="text_14">
    <!-- Iambic -->
    <g transform="translate(361.832136 128.320831)scale(0.08 -0.08)">
     <defs>
      <path id="DejaVuSans-49" d="M 628 4666 
L 1259 4666 
L 1259 0 
L 628 0 
L 628 4666 
z
" transform="scale(0.015625)"/>
      <path id="DejaVuSans-61" d="M 2194 1759 
Q 1497 1759 1228 1600 
Q 959 1441 959 1056 
Q 959 750 1161 570 
Q 1363 391 1709 391 
Q 2188 391 2477 730 
Q 2766 1069 2766 1631 
L 2766 1759 
L 2194 1759 
z
M 3341 1997 
L 3341 0 
L 2766 0 
L 2766 531 
Q 2569 213 2275 61 
Q 1981 -91 1556 -91 
Q 1019 -91 701 211 
Q 384 513 384 1019 
Q 384 1609 779 1909 
Q 1175 2209 1959 2209 
L 2766 2209 
L 2766 2266 
Q 2766 2663 2505 2880 
Q 2244 3097 1772 3097 
Q 1472 3097 1187 3025 
Q 903 2953 641 2809 
L 641 3341 
Q 956 3463 1253 3523 
Q 1550 3584 1831 3584 
Q 2591 3584 2966 3190 
Q 3341 2797 3341 1997 
z
" transform="scale(0.015625)"/>
      <path id="DejaVuSans-6d" d="M 3328 2828 
Q 3544 3216 3844 3400 
Q 4144 3584 4550 3584 
Q 5097 3584 5394 3201 
Q 5691 2819 5691 2113 
L 5691 0 
L 5113 0 
L 5113 2094 
Q 5113 2597 4934 2840 
Q 4756 3084 4391 3084 
Q 3944 3084 3684 2787 
Q 3425 2491 3425 1978 
L 3425 0 
L 2847 0 
L 2847 2094 
Q 2847 2600 2669 2842 
Q 2491 3084 2119 3084 
Q 1678 3084 1418 2786 
Q 1159 2488 1159 1978 
L 1159 0 
L 581 0 
L 581 3500 
L 1159 3500 
L 1159 2956 
Q 1356 3278 1631 3431 
Q 1906 3584 2284 3584 
Q 2666 3584 2933 3390 
Q 3200 3197 3328 2828 
z
" transform="scale(0.015625)"/>
      <path id="DejaVuSans-62" d="M 3116 1747 
Q 3116 2381 2855 2742 
Q 2594 3103 2138 3103 
Q 1681 3103 1420 2742 
Q 1159 2381 1159 1747 
Q 1159 1113 1420 752 
Q 1681 391 2138 391 
Q 2594 391 2855 752 
Q 3116 1113 3116 1747 
z
M 1159 2969 
Q 1341 3281 1617 3432 
Q 1894 3584 2278 3584 
Q 2916 3584 3314 3078 
Q 3713 2572 3713 1747 
Q 3713 922 3314 415 
Q 2916 -91 2278 -91 
Q 1894 -91 1617 61 
Q 1341 213 1159 525 
L 1159 0 
L 581 0 
L 581 4863 
L 1159 4863 
L 1159 2969 
z
" transform="scale(0.015625)"/>
      <path id="DejaVuSans-69" d="M 603 3500 
L 1178 3500 
L 1178 0 
L 603 0 
L 603 3500 
z
M 603 4863 
L 1178 4863 
L 1178 4134 
L 603 4134 
L 603 4863 
z
" transform="scale(0.015625)"/>
      <path id="DejaVuSans-63" d="M 3122 3366 
L 3122 2828 
Q 2878 2963 2633 3030 
Q 2388 3097 2138 3097 
Q 1578 3097 1268 2742 
Q 959 2388 959 1747 
Q 959 1106 1268 751 
Q 1578 397 2138 397 
Q 2388 397 2633 464 
Q 2878 531 3122 666 
L 3122 134 
Q 2881 22 2623 -34 
Q 2366 -91 2075 -91 
Q 1284 -91 818 406 
Q 353 903 353 1747 
Q 353 2603 823 3093 
Q 1294 3584 2113 3584 
Q 2378 3584 2631 3529 
Q 2884 3475 3122 3366 
z
" transform="scale(0.015625)"/>
     </defs>
     <use xlink:href="#DejaVuSans-49"/>
     <use xlink:href="#DejaVuSans-61" x="29.492188"/>
     <use xlink:href="#DejaVuSans-6d" x="90.771484"/>
     <use xlink:href="#DejaVuSans-62" x="188.183594"/>
     <use xlink:href="#DejaVuSans-69" x="251.660156"/>
     <use xlink:href="#DejaVuSans-63" x="279.443359"/>
    </g>
   </g>
   <g id="text_15">
    <!-- Parse -->
    <g transform="translate(361.832136 65.009742)scale(0.08 -0.08)">
     <defs>
      <path id="DejaVuSans-72" d="M 2631 2963 
Q 2534 3019 2420 3045 
Q 2306 3072 2169 3072 
Q 1681 3072 1420 2755 
Q 1159 2438 1159 1844 
L 1159 0 
L 581 0 
L 581 3500 
L 1159 3500 
L 1159 2956 
Q 1341 3275 1631 3429 
Q 1922 3584 2338 3584 
Q 2397 3584 2469 3576 
Q 2541 3569 2628 3553 
L 2631 2963 
z
" transform="scale(0.015625)"/>
      <path id="DejaVuSans-73" d="M 2834 3397 
L 2834 2853 
Q 2591 2978 2328 3040 
Q 2066 3103 1784 3103 
Q 1356 3103 1142 2972 
Q 928 2841 928 2578 
Q 928 2378 1081 2264 
Q 1234 2150 1697 2047 
L 1894 2003 
Q 2506 1872 2764 1633 
Q 3022 1394 3022 966 
Q 3022 478 2636 193 
Q 2250 -91 1575 -91 
Q 1294 -91 989 -36 
Q 684 19 347 128 
L 347 722 
Q 666 556 975 473 
Q 1284 391 1588 391 
Q 1994 391 2212 530 
Q 2431 669 2431 922 
Q 2431 1156 2273 1281 
Q 2116 1406 1581 1522 
L 1381 1569 
Q 847 1681 609 1914 
Q 372 2147 372 2553 
Q 372 3047 722 3315 
Q 1072 3584 1716 3584 
Q 2034 3584 2315 3537 
Q 2597 3491 2834 3397 
z
" transform="scale(0.015625)"/>
      <path id="DejaVuSans-65" d="M 3597 1894 
L 3597 1613 
L 953 1613 
Q 991 1019 1311 708 
Q 1631 397 2203 397 
Q 2534 397 2845 478 
Q 3156 559 3463 722 
L 3463 178 
Q 3153 47 2828 -22 
Q 2503 -91 2169 -91 
Q 1331 -91 842 396 
Q 353 884 353 1716 
Q 353 2575 817 3079 
Q 1281 3584 2069 3584 
Q 2775 3584 3186 3129 
Q 3597 2675 3597 1894 
z
M 3022 2063 
Q 3016 2534 2758 2815 
Q 2500 3097 2075 3097 
Q 1594 3097 1305 2825 
Q 1016 2553 972 2059 
L 3022 2063 
z
" transform="scale(0.015625)"/>
     </defs>
     <use xlink:href="#DejaVuSans-50"/>
     <use xlink:href="#DejaVuSans-61" x="55.802734"/>
     <use xlink:href="#DejaVuSans-72" x="117.082031"/>
     <use xlink:href="#DejaVuSans-73" x="158.195312"/>
     <use xlink:href="#DejaVuSans-65" x="210.294922"/>
    </g>
   </g>
   <g id="text_16">
    <!-- FootBin -->
    <g transform="translate(361.832136 130.39236)scale(0.08 -0.08)">
     <defs>
      <path id="DejaVuSans-46" d="M 628 4666 
L 3309 4666 
L 3309 4134 
L 1259 4134 
L 1259 2759 
L 3109 2759 
L 3109 2228 
L 1259 2228 
L 1259 0 
L 628 0 
L 628 4666 
z
" transform="scale(0.015625)"/>
      <path id="DejaVuSans-6f" d="M 1959 3097 
Q 1497 3097 1228 2736 
Q 959 2375 959 1747 
Q 959 1119 1226 758 
Q 1494 397 1959 397 
Q 2419 397 2687 759 
Q 2956 1122 2956 1747 
Q 2956 2369 2687 2733 
Q 2419 3097 1959 3097 
z
M 1959 3584 
Q 2709 3584 3137 3096 
Q 3566 2609 3566 1747 
Q 3566 888 3137 398 
Q 2709 -91 1959 -91 
Q 1206 -91 779 398 
Q 353 888 353 1747 
Q 353 2609 779 3096 
Q 1206 3584 1959 3584 
z
" transform="scale(0.015625)"/>
      <path id="DejaVuSans-74" d="M 1172 4494 
L 1172 3500 
L 2356 3500 
L 2356 3053 
L 1172 3053 
L 1172 1153 
Q 1172 725 1289 603 
Q 1406 481 1766 481 
L 2356 481 
L 2356 0 
L 1766 0 
Q 1100 0 847 248 
Q 594 497 594 1153 
L 594 3053 
L 172 3053 
L 172 3500 
L 594 3500 
L 594 4494 
L 1172 4494 
z
" transform="scale(0.015625)"/>
      <path id="DejaVuSans-42" d="M 1259 2228 
L 1259 519 
L 2272 519 
Q 2781 519 3026 730 
Q 3272 941 3272 1375 
Q 3272 1813 3026 2020 
Q 2781 2228 2272 2228 
L 1259 2228 
z
M 1259 4147 
L 1259 2741 
L 2194 2741 
Q 2656 2741 2882 2914 
Q 3109 3088 3109 3444 
Q 3109 3797 2882 3972 
Q 2656 4147 2194 4147 
L 1259 4147 
z
M 628 4666 
L 2241 4666 
Q 2963 4666 3353 4366 
Q 3744 4066 3744 3513 
Q 3744 3084 3544 2831 
Q 3344 2578 2956 2516 
Q 3422 2416 3680 2098 
Q 3938 1781 3938 1306 
Q 3938 681 3513 340 
Q 3088 0 2303 0 
L 628 0 
L 628 4666 
z
" transform="scale(0.015625)"/>
      <path id="DejaVuSans-6e" d="M 3513 2113 
L 3513 0 
L 2938 0 
L 2938 2094 
Q 2938 2591 2744 2837 
Q 2550 3084 2163 3084 
Q 1697 3084 1428 2787 
Q 1159 2491 1159 1978 
L 1159 0 
L 581 0 
L 581 3500 
L 1159 3500 
L 1159 2956 
Q 1366 3272 1645 3428 
Q 1925 3584 2291 3584 
Q 2894 3584 3203 3211 
Q 3513 2838 3513 2113 
z
" transform="scale(0.015625)"/>
     </defs>
     <use xlink:href="#DejaVuSans-46"/>
     <use xlink:href="#DejaVuSans-6f" x="53.894531"/>
     <use xlink:href="#DejaVuSans-6f" x="115.076172"/>
     <use xlink:href="#DejaVuSans-74" x="176.257812"/>
     <use xlink:href="#DejaVuSans-42" x="215.466797"/>
     <use xlink:href="#DejaVuSans-69" x="284.070312"/>
     <use xlink:href="#DejaVuSans-6e" x="311.853516"/>
    </g>
   </g>
   <g id="text_17">
    <!-- WFL -->
    <g transform="translate(361.832136 48.264887)scale(0.08 -0.08)">
     <defs>
      <path id="DejaVuSans-4c" d="M 628 4666 
L 1259 4666 
L 1259 531 
L 3531 531 
L 3531 0 
L 628 0 
L 628 4666 
z
" transform="scale(0.015625)"/>
     </defs>
     <use xlink:href="#DejaVuSans-57"/>
     <use xlink:href="#DejaVuSans-46" x="98.876953"/>
     <use xlink:href="#DejaVuSans-4c" x="156.396484"/>
    </g>
   </g>
   <g id="text_18">
    <!-- WFR -->
    <g transform="translate(361.832136 60.348803)scale(0.08 -0.08)">
     <defs>
      <path id="DejaVuSans-52" d="M 2841 2188 
Q 3044 2119 3236 1894 
Q 3428 1669 3622 1275 
L 4263 0 
L 3584 0 
L 2988 1197 
Q 2756 1666 2539 1819 
Q 2322 1972 1947 1972 
L 1259 1972 
L 1259 0 
L 628 0 
L 628 4666 
L 2053 4666 
Q 2853 4666 3247 4331 
Q 3641 3997 3641 3322 
Q 3641 2881 3436 2590 
Q 3231 2300 2841 2188 
z
M 1259 4147 
L 1259 2491 
L 2053 2491 
Q 2509 2491 2742 2702 
Q 2975 2913 2975 3322 
Q 2975 3731 2742 3939 
Q 2509 4147 2053 4147 
L 1259 4147 
z
" transform="scale(0.015625)"/>
     </defs>
     <use xlink:href="#DejaVuSans-57"/>
     <use xlink:href="#DejaVuSans-46" x="98.876953"/>
     <use xlink:href="#DejaVuSans-52" x="156.396484"/>
    </g>
   </g>
   <g id="text_19">
    <!-- Main-L -->
    <g transform="translate(361.832136 154.560192)scale(0.08 -0.08)">
     <defs>
      <path id="DejaVuSans-4d" d="M 628 4666 
L 1569 4666 
L 2759 1491 
L 3956 4666 
L 4897 4666 
L 4897 0 
L 4281 0 
L 4281 4097 
L 3078 897 
L 2444 897 
L 1241 4097 
L 1241 0 
L 628 0 
L 628 4666 
z
" transform="scale(0.015625)"/>
      <path id="DejaVuSans-2d" d="M 313 2009 
L 1997 2009 
L 1997 1497 
L 313 1497 
L 313 2009 
z
" transform="scale(0.015625)"/>
     </defs>
     <use xlink:href="#DejaVuSans-4d"/>
     <use xlink:href="#DejaVuSans-61" x="86.279297"/>
     <use xlink:href="#DejaVuSans-69" x="147.558594"/>
     <use xlink:href="#DejaVuSans-6e" x="175.341797"/>
     <use xlink:href="#DejaVuSans-2d" x="238.720703"/>
     <use xlink:href="#DejaVuSans-4c" x="274.804688"/>
    </g>
   </g>
   <g id="text_20">
    <!-- Main-R -->
    <g transform="translate(361.832136 51.50165)scale(0.08 -0.08)">
     <use xlink:href="#DejaVuSans-4d"/>
     <use xlink:href="#DejaVuSans-61" x="86.279297"/>
     <use xlink:href="#DejaVuSans-69" x="147.558594"/>
     <use xlink:href="#DejaVuSans-6e" x="175.341797"/>
     <use xlink:href="#DejaVuSans-2d" x="238.720703"/>
     <use xlink:href="#DejaVuSans-52" x="274.804688"/>
    </g>
   </g>
   <g id="text_21">
    <!-- AFL -->
    <g transform="translate(361.832136 156.070681)scale(0.08 -0.08)">
     <defs>
      <path id="DejaVuSans-41" d="M 2188 4044 
L 1331 1722 
L 3047 1722 
L 2188 4044 
z
M 1831 4666 
L 2547 4666 
L 4325 0 
L 3669 0 
L 3244 1197 
L 1141 1197 
L 716 0 
L 50 0 
L 1831 4666 
z
" transform="scale(0.015625)"/>
     </defs>
     <use xlink:href="#DejaVuSans-41"/>
     <use xlink:href="#DejaVuSans-46" x="68.408203"/>
     <use xlink:href="#DejaVuSans-4c" x="125.927734"/>
    </g>
   </g>
   <g id="text_22">
    <!-- AFR -->
    <g transform="translate(361.832136 95.737415)scale(0.08 -0.08)">
     <use xlink:href="#DejaVuSans-41"/>
     <use xlink:href="#DejaVuSans-46" x="68.408203"/>
     <use xlink:href="#DejaVuSans-52" x="125.927734"/>
    </g>
   </g>
   <g id="text_23">
    <!-- Nonfinal -->
    <g transform="translate(361.832136 83.22193)scale(0.08 -0.08)">
     <defs>
      <path id="DejaVuSans-4e" d="M 628 4666 
L 1478 4666 
L 3547 763 
L 3547 4666 
L 4159 4666 
L 4159 0 
L 3309 0 
L 1241 3903 
L 1241 0 
L 628 0 
L 628 4666 
z
" transform="scale(0.015625)"/>
      <path id="DejaVuSans-66" d="M 2375 4863 
L 2375 4384 
L 1825 4384 
Q 1516 4384 1395 4259 
Q 1275 4134 1275 3809 
L 1275 3500 
L 2222 3500 
L 2222 3053 
L 1275 3053 
L 1275 0 
L 697 0 
L 697 3053 
L 147 3053 
L 147 3500 
L 697 3500 
L 697 3744 
Q 697 4328 969 4595 
Q 1241 4863 1831 4863 
L 2375 4863 
z
" transform="scale(0.015625)"/>
      <path id="DejaVuSans-6c" d="M 603 4863 
L 1178 4863 
L 1178 0 
L 603 0 
L 603 4863 
z
" transform="scale(0.015625)"/>
     </defs>
     <use xlink:href="#DejaVuSans-4e"/>
     <use xlink:href="#DejaVuSans-6f" x="74.804688"/>
     <use xlink:href="#DejaVuSans-6e" x="135.986328"/>
     <use xlink:href="#DejaVuSans-66" x="199.365234"/>
     <use xlink:href="#DejaVuSans-69" x="234.570312"/>
     <use xlink:href="#DejaVuSans-6e" x="262.353516"/>
     <use xlink:href="#DejaVuSans-61" x="325.732422"/>
     <use xlink:href="#DejaVuSans-6c" x="387.011719"/>
    </g>
   </g>
   <g id="text_24">
    <!-- Trochaic -->
    <g transform="translate(361.832136 70.706446)scale(0.08 -0.08)">
     <defs>
      <path id="DejaVuSans-54" d="M -19 4666 
L 3928 4666 
L 3928 4134 
L 2272 4134 
L 2272 0 
L 1638 0 
L 1638 4134 
L -19 4134 
L -19 4666 
z
" transform="scale(0.015625)"/>
      <path id="DejaVuSans-68" d="M 3513 2113 
L 3513 0 
L 2938 0 
L 2938 2094 
Q 2938 2591 2744 2837 
Q 2550 3084 2163 3084 
Q 1697 3084 1428 2787 
Q 1159 2491 1159 1978 
L 1159 0 
L 581 0 
L 581 4863 
L 1159 4863 
L 1159 2956 
Q 1366 3272 1645 3428 
Q 1925 3584 2291 3584 
Q 2894 3584 3203 3211 
Q 3513 2838 3513 2113 
z
" transform="scale(0.015625)"/>
     </defs>
     <use xlink:href="#DejaVuSans-54"/>
     <use xlink:href="#DejaVuSans-72" x="46.333984"/>
     <use xlink:href="#DejaVuSans-6f" x="85.197266"/>
     <use xlink:href="#DejaVuSans-63" x="146.378906"/>
     <use xlink:href="#DejaVuSans-68" x="201.359375"/>
     <use xlink:href="#DejaVuSans-61" x="264.738281"/>
     <use xlink:href="#DejaVuSans-69" x="326.017578"/>
     <use xlink:href="#DejaVuSans-63" x="353.800781"/>
    </g>
   </g>
  </g>
  <g id="axes_2">
   <g id="patch_7">
    <path d="M 57.6 307.584 
L 414.72 307.584 
L 414.72 186.624 
L 57.6 186.624 
z
" style="fill: #ffffff"/>
   </g>
   <g id="matplotlib.axis_3">
    <g id="xtick_8">
     <g id="line2d_25">
      <g>
       <use xlink:href="#m742c2a6856" x="71.256104" y="307.584" style="stroke: #000000; stroke-width: 0.8"/>
      </g>
     </g>
     <g id="text_25">
      <!-- 0 -->
      <g transform="translate(68.074854 322.182437)scale(0.1 -0.1)">
       <use xlink:href="#DejaVuSans-30"/>
      </g>
     </g>
    </g>
    <g id="xtick_9">
     <g id="line2d_26">
      <g>
       <use xlink:href="#m742c2a6856" x="122.788571" y="307.584" style="stroke: #000000; stroke-width: 0.8"/>
      </g>
     </g>
     <g id="text_26">
      <!-- 20 -->
      <g transform="translate(116.426071 322.182437)scale(0.1 -0.1)">
       <use xlink:href="#DejaVuSans-32"/>
       <use xlink:href="#DejaVuSans-30" x="63.623047"/>
      </g>
     </g>
    </g>
    <g id="xtick_10">
     <g id="line2d_27">
      <g>
       <use xlink:href="#m742c2a6856" x="174.321039" y="307.584" style="stroke: #000000; stroke-width: 0.8"/>
      </g>
     </g>
     <g id="text_27">
      <!-- 40 -->
      <g transform="translate(167.958539 322.182437)scale(0.1 -0.1)">
       <use xlink:href="#DejaVuSans-34"/>
       <use xlink:href="#DejaVuSans-30" x="63.623047"/>
      </g>
     </g>
    </g>
    <g id="xtick_11">
     <g id="line2d_28">
      <g>
       <use xlink:href="#m742c2a6856" x="225.853506" y="307.584" style="stroke: #000000; stroke-width: 0.8"/>
      </g>
     </g>
     <g id="text_28">
      <!-- 60 -->
      <g transform="translate(219.491006 322.182437)scale(0.1 -0.1)">
       <use xlink:href="#DejaVuSans-36"/>
       <use xlink:href="#DejaVuSans-30" x="63.623047"/>
      </g>
     </g>
    </g>
    <g id="xtick_12">
     <g id="line2d_29">
      <g>
       <use xlink:href="#m742c2a6856" x="277.385974" y="307.584" style="stroke: #000000; stroke-width: 0.8"/>
      </g>
     </g>
     <g id="text_29">
      <!-- 80 -->
      <g transform="translate(271.023474 322.182437)scale(0.1 -0.1)">
       <use xlink:href="#DejaVuSans-38"/>
       <use xlink:href="#DejaVuSans-30" x="63.623047"/>
      </g>
     </g>
    </g>
    <g id="xtick_13">
     <g id="line2d_30">
      <g>
       <use xlink:href="#m742c2a6856" x="328.918442" y="307.584" style="stroke: #000000; stroke-width: 0.8"/>
      </g>
     </g>
     <g id="text_30">
      <!-- 100 -->
      <g transform="translate(319.374692 322.182437)scale(0.1 -0.1)">
       <use xlink:href="#DejaVuSans-31"/>
       <use xlink:href="#DejaVuSans-30" x="63.623047"/>
       <use xlink:href="#DejaVuSans-30" x="127.246094"/>
      </g>
     </g>
    </g>
    <g id="xtick_14">
     <g id="line2d_31">
      <g>
       <use xlink:href="#m742c2a6856" x="380.450909" y="307.584" style="stroke: #000000; stroke-width: 0.8"/>
      </g>
     </g>
     <g id="text_31">
      <!-- 120 -->
      <g transform="translate(370.907159 322.182437)scale(0.1 -0.1)">
       <use xlink:href="#DejaVuSans-31"/>
       <use xlink:href="#DejaVuSans-32" x="63.623047"/>
       <use xlink:href="#DejaVuSans-30" x="127.246094"/>
      </g>
     </g>
    </g>
   </g>
   <g id="matplotlib.axis_4">
    <g id="ytick_6">
     <g id="line2d_32">
      <g>
       <use xlink:href="#ma11a08ea88" x="57.6" y="302.093478" style="stroke: #000000; stroke-width: 0.8"/>
      </g>
     </g>
     <g id="text_32">
      <!-- 0 -->
      <g transform="translate(44.2375 305.892697)scale(0.1 -0.1)">
       <use xlink:href="#DejaVuSans-30"/>
      </g>
     </g>
    </g>
    <g id="ytick_7">
     <g id="line2d_33">
      <g>
       <use xlink:href="#ma11a08ea88" x="57.6" y="263.794636" style="stroke: #000000; stroke-width: 0.8"/>
      </g>
     </g>
     <g id="text_33">
      <!-- 5000 -->
      <g transform="translate(25.15 267.593854)scale(0.1 -0.1)">
       <use xlink:href="#DejaVuSans-35"/>
       <use xlink:href="#DejaVuSans-30" x="63.623047"/>
       <use xlink:href="#DejaVuSans-30" x="127.246094"/>
       <use xlink:href="#DejaVuSans-30" x="190.869141"/>
      </g>
     </g>
    </g>
    <g id="ytick_8">
     <g id="line2d_34">
      <g>
       <use xlink:href="#ma11a08ea88" x="57.6" y="225.495793" style="stroke: #000000; stroke-width: 0.8"/>
      </g>
     </g>
     <g id="text_34">
      <!-- 10000 -->
      <g transform="translate(18.7875 229.295012)scale(0.1 -0.1)">
       <use xlink:href="#DejaVuSans-31"/>
       <use xlink:href="#DejaVuSans-30" x="63.623047"/>
       <use xlink:href="#DejaVuSans-30" x="127.246094"/>
       <use xlink:href="#DejaVuSans-30" x="190.869141"/>
       <use xlink:href="#DejaVuSans-30" x="254.492188"/>
      </g>
     </g>
    </g>
    <g id="ytick_9">
     <g id="line2d_35">
      <g>
       <use xlink:href="#ma11a08ea88" x="57.6" y="187.196951" style="stroke: #000000; stroke-width: 0.8"/>
      </g>
     </g>
     <g id="text_35">
      <!-- 15000 -->
      <g transform="translate(18.7875 190.996169)scale(0.1 -0.1)">
       <use xlink:href="#DejaVuSans-31"/>
       <use xlink:href="#DejaVuSans-35" x="63.623047"/>
       <use xlink:href="#DejaVuSans-30" x="127.246094"/>
       <use xlink:href="#DejaVuSans-30" x="190.869141"/>
       <use xlink:href="#DejaVuSans-30" x="254.492188"/>
      </g>
     </g>
    </g>
   </g>
   <g id="line2d_36">
    <path d="M 73.832727 302.085818 
L 76.409351 302.085818 
L 78.985974 302.085818 
L 81.562597 302.085818 
L 84.139221 302.085818 
L 86.715844 302.085818 
L 89.292468 302.078158 
L 91.869091 302.085818 
L 94.445714 302.085818 
L 97.022338 302.085818 
L 99.598961 302.085818 
L 102.175584 302.085818 
L 104.752208 302.085818 
L 107.328831 302.085818 
L 109.905455 302.085818 
L 112.482078 302.085818 
L 115.058701 302.085818 
L 117.635325 302.085818 
L 120.211948 302.078158 
L 122.788571 302.085818 
L 125.365195 302.085818 
L 127.941818 302.085818 
L 130.518442 302.085818 
L 133.095065 302.085818 
L 135.671688 302.085818 
L 138.248312 302.085818 
L 140.824935 302.085818 
L 143.401558 302.085818 
L 145.978182 302.085818 
L 148.554805 302.085818 
L 151.131429 302.085818 
L 153.708052 302.085818 
L 156.284675 302.085818 
L 158.861299 302.085818 
L 161.437922 302.070499 
L 164.014545 302.085818 
L 166.591169 302.085818 
L 169.167792 302.085818 
L 171.744416 302.085818 
L 174.321039 302.085818 
L 176.897662 302.085818 
L 179.474286 302.078158 
L 182.050909 302.085818 
L 184.627532 302.085818 
L 187.204156 302.085818 
L 189.780779 302.085818 
L 192.357403 302.085818 
L 194.934026 302.085818 
L 197.510649 302.085818 
L 200.087273 302.085818 
L 202.663896 302.085818 
L 205.240519 302.085818 
L 207.817143 302.085818 
L 210.393766 302.085818 
L 212.97039 302.085818 
L 215.547013 302.085818 
L 218.123636 302.085818 
L 220.70026 302.078158 
L 223.276883 302.085818 
L 225.853506 302.085818 
L 228.43013 302.085818 
L 231.006753 302.085818 
L 233.583377 302.085818 
L 236.16 302.078158 
L 238.736623 302.085818 
L 241.313247 302.085818 
L 243.88987 302.078158 
L 246.466494 302.085818 
L 249.043117 302.085818 
L 251.61974 302.085818 
L 254.196364 302.085818 
L 256.772987 302.085818 
L 259.34961 302.085818 
L 261.926234 302.085818 
L 264.502857 302.085818 
L 267.079481 302.085818 
L 269.656104 302.085818 
L 272.232727 302.085818 
L 274.809351 302.085818 
L 277.385974 302.085818 
L 279.962597 302.085818 
L 282.539221 302.085818 
L 285.115844 302.085818 
L 287.692468 302.085818 
L 290.269091 302.085818 
L 292.845714 302.085818 
L 295.422338 302.085818 
L 297.998961 302.070499 
L 300.575584 302.085818 
L 303.152208 302.085818 
L 305.728831 302.070499 
L 308.305455 302.085818 
L 310.882078 302.085818 
L 313.458701 302.070499 
L 316.035325 302.047519 
L 318.611948 302.085818 
L 321.188571 302.070499 
L 323.765195 302.070499 
L 326.341818 302.085818 
L 328.918442 302.078158 
L 331.495065 302.047519 
L 334.071688 302.070499 
L 336.648312 302.02454 
L 339.224935 302.062839 
L 341.801558 302.070499 
L 344.378182 302.078158 
L 346.954805 302.070499 
L 349.531429 301.986241 
L 352.108052 301.970922 
L 354.684675 301.733469 
L 357.261299 301.197285 
L 359.837922 301.863685 
L 362.414545 298.615943 
L 364.991169 301.610913 
L 367.567792 301.733469 
L 370.144416 301.37346 
L 372.721039 301.794747 
L 375.297662 301.963262 
L 377.874286 292.817498 
L 380.450909 288.857398 
L 383.027532 298.876375 
L 385.604156 291.729811 
L 388.180779 192.122182 
L 390.757403 302.070499 
L 393.334026 286.827559 
L 395.910649 216.725358 
L 398.487273 254.365461 
" clip-path="url(#p0eaea00348)" style="fill: none; stroke: #1f77b4; stroke-width: 1.5; stroke-linecap: square"/>
   </g>
   <g id="patch_8">
    <path d="M 57.6 307.584 
L 57.6 186.624 
" style="fill: none; stroke: #000000; stroke-width: 0.8; stroke-linejoin: miter; stroke-linecap: square"/>
   </g>
   <g id="patch_9">
    <path d="M 414.72 307.584 
L 414.72 186.624 
" style="fill: none; stroke: #000000; stroke-width: 0.8; stroke-linejoin: miter; stroke-linecap: square"/>
   </g>
   <g id="patch_10">
    <path d="M 57.6 307.584 
L 414.72 307.584 
" style="fill: none; stroke: #000000; stroke-width: 0.8; stroke-linejoin: miter; stroke-linecap: square"/>
   </g>
   <g id="patch_11">
    <path d="M 57.6 186.624 
L 414.72 186.624 
" style="fill: none; stroke: #000000; stroke-width: 0.8; stroke-linejoin: miter; stroke-linecap: square"/>
   </g>
  </g>
 </g>
 <defs>
  <clipPath id="p9a5ef4c6bc">
   <rect x="57.6" y="41.472" width="357.12" height="120.96"/>
  </clipPath>
  <clipPath id="p0eaea00348">
   <rect x="57.6" y="186.624" width="357.12" height="120.96"/>
  </clipPath>
 </defs>
</svg>
