<?xml version="1.0" encoding="utf-8" standalone="no"?>
<!DOCTYPE svg PUBLIC "-//W3C//DTD SVG 1.1//EN"
  "http://www.w3.org/Graphics/SVG/1.1/DTD/svg11.dtd">
<svg xmlns:xlink="http://www.w3.org/1999/xlink" width="460.8pt" height="345.6pt" viewBox="0 0 460.8 345.6" xmlns="http://www.w3.org/2000/svg" version="1.1">
 <metadata>
  <rdf:RDF xmlns:dc="http://purl.org/dc/elements/1.1/" xmlns:cc="http://creativecommons.org/ns#" xmlns:rdf="http://www.w3.org/1999/02/22-rdf-syntax-ns#">
   <cc:Work>
    <dc:type rdf:resource="http://purl.org/dc/dcmitype/StillImage"/>
    <dc:date>2022-05-14T05:23:09.406777</dc:date>
    <dc:format>image/svg+xml</dc:format>
    <dc:creator>
     <cc:Agent>
      <dc:title>Matplotlib v3.5.1, https://matplotlib.org/</dc:title>
     </cc:Agent>
    </dc:creator>
   </cc:Work>
  </rdf:RDF>
 </metadata>
 <defs>
  <style type="text/css">*{stroke-linejoin: round; stroke-linecap: butt}</style>
 </defs>
 <g id="figure_1">
  <g id="patch_1">
   <path d="M 0 345.6 
L 460.8 345.6 
L 460.8 0 
L 0 0 
z
" style="fill: #ffffff"/>
  </g>
  <g id="axes_1">
   <g id="patch_2">
    <path d="M 57.6 162.432 
L 414.72 162.432 
L 414.72 41.472 
L 57.6 41.472 
z
" style="fill: #ffffff"/>
   </g>
   <g id="matplotlib.axis_1">
    <g id="xtick_1">
     <g id="line2d_1">
      <defs>
       <path id="m5bc1f12716" d="M 0 0 
L 0 3.5 
" style="stroke: #000000; stroke-width: 0.8"/>
      </defs>
      <g>
       <use xlink:href="#m5bc1f12716" x="73.827491" y="162.432" style="stroke: #000000; stroke-width: 0.8"/>
      </g>
     </g>
     <g id="text_1">
      <!-- 0 -->
      <g transform="translate(70.646241 177.030437)scale(0.1 -0.1)">
       <defs>
        <path id="DejaVuSans-30" d="M 2034 4250 
Q 1547 4250 1301 3770 
Q 1056 3291 1056 2328 
Q 1056 1369 1301 889 
Q 1547 409 2034 409 
Q 2525 409 2770 889 
Q 3016 1369 3016 2328 
Q 3016 3291 2770 3770 
Q 2525 4250 2034 4250 
z
M 2034 4750 
Q 2819 4750 3233 4129 
Q 3647 3509 3647 2328 
Q 3647 1150 3233 529 
Q 2819 -91 2034 -91 
Q 1250 -91 836 529 
Q 422 1150 422 2328 
Q 422 3509 836 4129 
Q 1250 4750 2034 4750 
z
" transform="scale(0.015625)"/>
       </defs>
       <use xlink:href="#DejaVuSans-30"/>
      </g>
     </g>
    </g>
    <g id="xtick_2">
     <g id="line2d_2">
      <g>
       <use xlink:href="#m5bc1f12716" x="126.191972" y="162.432" style="stroke: #000000; stroke-width: 0.8"/>
      </g>
     </g>
     <g id="text_2">
      <!-- 10000 -->
      <g transform="translate(110.285722 177.030437)scale(0.1 -0.1)">
       <defs>
        <path id="DejaVuSans-31" d="M 794 531 
L 1825 531 
L 1825 4091 
L 703 3866 
L 703 4441 
L 1819 4666 
L 2450 4666 
L 2450 531 
L 3481 531 
L 3481 0 
L 794 0 
L 794 531 
z
" transform="scale(0.015625)"/>
       </defs>
       <use xlink:href="#DejaVuSans-31"/>
       <use xlink:href="#DejaVuSans-30" x="63.623047"/>
       <use xlink:href="#DejaVuSans-30" x="127.246094"/>
       <use xlink:href="#DejaVuSans-30" x="190.869141"/>
       <use xlink:href="#DejaVuSans-30" x="254.492188"/>
      </g>
     </g>
    </g>
    <g id="xtick_3">
     <g id="line2d_3">
      <g>
       <use xlink:href="#m5bc1f12716" x="178.556453" y="162.432" style="stroke: #000000; stroke-width: 0.8"/>
      </g>
     </g>
     <g id="text_3">
      <!-- 20000 -->
      <g transform="translate(162.650203 177.030437)scale(0.1 -0.1)">
       <defs>
        <path id="DejaVuSans-32" d="M 1228 531 
L 3431 531 
L 3431 0 
L 469 0 
L 469 531 
Q 828 903 1448 1529 
Q 2069 2156 2228 2338 
Q 2531 2678 2651 2914 
Q 2772 3150 2772 3378 
Q 2772 3750 2511 3984 
Q 2250 4219 1831 4219 
Q 1534 4219 1204 4116 
Q 875 4013 500 3803 
L 500 4441 
Q 881 4594 1212 4672 
Q 1544 4750 1819 4750 
Q 2544 4750 2975 4387 
Q 3406 4025 3406 3419 
Q 3406 3131 3298 2873 
Q 3191 2616 2906 2266 
Q 2828 2175 2409 1742 
Q 1991 1309 1228 531 
z
" transform="scale(0.015625)"/>
       </defs>
       <use xlink:href="#DejaVuSans-32"/>
       <use xlink:href="#DejaVuSans-30" x="63.623047"/>
       <use xlink:href="#DejaVuSans-30" x="127.246094"/>
       <use xlink:href="#DejaVuSans-30" x="190.869141"/>
       <use xlink:href="#DejaVuSans-30" x="254.492188"/>
      </g>
     </g>
    </g>
    <g id="xtick_4">
     <g id="line2d_4">
      <g>
       <use xlink:href="#m5bc1f12716" x="230.920934" y="162.432" style="stroke: #000000; stroke-width: 0.8"/>
      </g>
     </g>
     <g id="text_4">
      <!-- 30000 -->
      <g transform="translate(215.014684 177.030437)scale(0.1 -0.1)">
       <defs>
        <path id="DejaVuSans-33" d="M 2597 2516 
Q 3050 2419 3304 2112 
Q 3559 1806 3559 1356 
Q 3559 666 3084 287 
Q 2609 -91 1734 -91 
Q 1441 -91 1130 -33 
Q 819 25 488 141 
L 488 750 
Q 750 597 1062 519 
Q 1375 441 1716 441 
Q 2309 441 2620 675 
Q 2931 909 2931 1356 
Q 2931 1769 2642 2001 
Q 2353 2234 1838 2234 
L 1294 2234 
L 1294 2753 
L 1863 2753 
Q 2328 2753 2575 2939 
Q 2822 3125 2822 3475 
Q 2822 3834 2567 4026 
Q 2313 4219 1838 4219 
Q 1578 4219 1281 4162 
Q 984 4106 628 3988 
L 628 4550 
Q 988 4650 1302 4700 
Q 1616 4750 1894 4750 
Q 2613 4750 3031 4423 
Q 3450 4097 3450 3541 
Q 3450 3153 3228 2886 
Q 3006 2619 2597 2516 
z
" transform="scale(0.015625)"/>
       </defs>
       <use xlink:href="#DejaVuSans-33"/>
       <use xlink:href="#DejaVuSans-30" x="63.623047"/>
       <use xlink:href="#DejaVuSans-30" x="127.246094"/>
       <use xlink:href="#DejaVuSans-30" x="190.869141"/>
       <use xlink:href="#DejaVuSans-30" x="254.492188"/>
      </g>
     </g>
    </g>
    <g id="xtick_5">
     <g id="line2d_5">
      <g>
       <use xlink:href="#m5bc1f12716" x="283.285415" y="162.432" style="stroke: #000000; stroke-width: 0.8"/>
      </g>
     </g>
     <g id="text_5">
      <!-- 40000 -->
      <g transform="translate(267.379165 177.030437)scale(0.1 -0.1)">
       <defs>
        <path id="DejaVuSans-34" d="M 2419 4116 
L 825 1625 
L 2419 1625 
L 2419 4116 
z
M 2253 4666 
L 3047 4666 
L 3047 1625 
L 3713 1625 
L 3713 1100 
L 3047 1100 
L 3047 0 
L 2419 0 
L 2419 1100 
L 313 1100 
L 313 1709 
L 2253 4666 
z
" transform="scale(0.015625)"/>
       </defs>
       <use xlink:href="#DejaVuSans-34"/>
       <use xlink:href="#DejaVuSans-30" x="63.623047"/>
       <use xlink:href="#DejaVuSans-30" x="127.246094"/>
       <use xlink:href="#DejaVuSans-30" x="190.869141"/>
       <use xlink:href="#DejaVuSans-30" x="254.492188"/>
      </g>
     </g>
    </g>
    <g id="xtick_6">
     <g id="line2d_6">
      <g>
       <use xlink:href="#m5bc1f12716" x="335.649896" y="162.432" style="stroke: #000000; stroke-width: 0.8"/>
      </g>
     </g>
     <g id="text_6">
      <!-- 50000 -->
      <g transform="translate(319.743646 177.030437)scale(0.1 -0.1)">
       <defs>
        <path id="DejaVuSans-35" d="M 691 4666 
L 3169 4666 
L 3169 4134 
L 1269 4134 
L 1269 2991 
Q 1406 3038 1543 3061 
Q 1681 3084 1819 3084 
Q 2600 3084 3056 2656 
Q 3513 2228 3513 1497 
Q 3513 744 3044 326 
Q 2575 -91 1722 -91 
Q 1428 -91 1123 -41 
Q 819 9 494 109 
L 494 744 
Q 775 591 1075 516 
Q 1375 441 1709 441 
Q 2250 441 2565 725 
Q 2881 1009 2881 1497 
Q 2881 1984 2565 2268 
Q 2250 2553 1709 2553 
Q 1456 2553 1204 2497 
Q 953 2441 691 2322 
L 691 4666 
z
" transform="scale(0.015625)"/>
       </defs>
       <use xlink:href="#DejaVuSans-35"/>
       <use xlink:href="#DejaVuSans-30" x="63.623047"/>
       <use xlink:href="#DejaVuSans-30" x="127.246094"/>
       <use xlink:href="#DejaVuSans-30" x="190.869141"/>
       <use xlink:href="#DejaVuSans-30" x="254.492188"/>
      </g>
     </g>
    </g>
    <g id="xtick_7">
     <g id="line2d_7">
      <g>
       <use xlink:href="#m5bc1f12716" x="388.014377" y="162.432" style="stroke: #000000; stroke-width: 0.8"/>
      </g>
     </g>
     <g id="text_7">
      <!-- 60000 -->
      <g transform="translate(372.108127 177.030437)scale(0.1 -0.1)">
       <defs>
        <path id="DejaVuSans-36" d="M 2113 2584 
Q 1688 2584 1439 2293 
Q 1191 2003 1191 1497 
Q 1191 994 1439 701 
Q 1688 409 2113 409 
Q 2538 409 2786 701 
Q 3034 994 3034 1497 
Q 3034 2003 2786 2293 
Q 2538 2584 2113 2584 
z
M 3366 4563 
L 3366 3988 
Q 3128 4100 2886 4159 
Q 2644 4219 2406 4219 
Q 1781 4219 1451 3797 
Q 1122 3375 1075 2522 
Q 1259 2794 1537 2939 
Q 1816 3084 2150 3084 
Q 2853 3084 3261 2657 
Q 3669 2231 3669 1497 
Q 3669 778 3244 343 
Q 2819 -91 2113 -91 
Q 1303 -91 875 529 
Q 447 1150 447 2328 
Q 447 3434 972 4092 
Q 1497 4750 2381 4750 
Q 2619 4750 2861 4703 
Q 3103 4656 3366 4563 
z
" transform="scale(0.015625)"/>
       </defs>
       <use xlink:href="#DejaVuSans-36"/>
       <use xlink:href="#DejaVuSans-30" x="63.623047"/>
       <use xlink:href="#DejaVuSans-30" x="127.246094"/>
       <use xlink:href="#DejaVuSans-30" x="190.869141"/>
       <use xlink:href="#DejaVuSans-30" x="254.492188"/>
      </g>
     </g>
    </g>
   </g>
   <g id="matplotlib.axis_2">
    <g id="ytick_1">
     <g id="line2d_8">
      <defs>
       <path id="m54040b7fbf" d="M 0 0 
L -3.5 0 
" style="stroke: #000000; stroke-width: 0.8"/>
      </defs>
      <g>
       <use xlink:href="#m54040b7fbf" x="57.6" y="140.70218" style="stroke: #000000; stroke-width: 0.8"/>
      </g>
     </g>
     <g id="text_8">
      <!-- 70 -->
      <g transform="translate(37.875 144.501398)scale(0.1 -0.1)">
       <defs>
        <path id="DejaVuSans-37" d="M 525 4666 
L 3525 4666 
L 3525 4397 
L 1831 0 
L 1172 0 
L 2766 4134 
L 525 4134 
L 525 4666 
z
" transform="scale(0.015625)"/>
       </defs>
       <use xlink:href="#DejaVuSans-37"/>
       <use xlink:href="#DejaVuSans-30" x="63.623047"/>
      </g>
     </g>
    </g>
    <g id="ytick_2">
     <g id="line2d_9">
      <g>
       <use xlink:href="#m54040b7fbf" x="57.6" y="113.268424" style="stroke: #000000; stroke-width: 0.8"/>
      </g>
     </g>
     <g id="text_9">
      <!-- 80 -->
      <g transform="translate(37.875 117.067643)scale(0.1 -0.1)">
       <defs>
        <path id="DejaVuSans-38" d="M 2034 2216 
Q 1584 2216 1326 1975 
Q 1069 1734 1069 1313 
Q 1069 891 1326 650 
Q 1584 409 2034 409 
Q 2484 409 2743 651 
Q 3003 894 3003 1313 
Q 3003 1734 2745 1975 
Q 2488 2216 2034 2216 
z
M 1403 2484 
Q 997 2584 770 2862 
Q 544 3141 544 3541 
Q 544 4100 942 4425 
Q 1341 4750 2034 4750 
Q 2731 4750 3128 4425 
Q 3525 4100 3525 3541 
Q 3525 3141 3298 2862 
Q 3072 2584 2669 2484 
Q 3125 2378 3379 2068 
Q 3634 1759 3634 1313 
Q 3634 634 3220 271 
Q 2806 -91 2034 -91 
Q 1263 -91 848 271 
Q 434 634 434 1313 
Q 434 1759 690 2068 
Q 947 2378 1403 2484 
z
M 1172 3481 
Q 1172 3119 1398 2916 
Q 1625 2713 2034 2713 
Q 2441 2713 2670 2916 
Q 2900 3119 2900 3481 
Q 2900 3844 2670 4047 
Q 2441 4250 2034 4250 
Q 1625 4250 1398 4047 
Q 1172 3844 1172 3481 
z
" transform="scale(0.015625)"/>
       </defs>
       <use xlink:href="#DejaVuSans-38"/>
       <use xlink:href="#DejaVuSans-30" x="63.623047"/>
      </g>
     </g>
    </g>
    <g id="ytick_3">
     <g id="line2d_10">
      <g>
       <use xlink:href="#m54040b7fbf" x="57.6" y="85.834669" style="stroke: #000000; stroke-width: 0.8"/>
      </g>
     </g>
     <g id="text_10">
      <!-- 90 -->
      <g transform="translate(37.875 89.633887)scale(0.1 -0.1)">
       <defs>
        <path id="DejaVuSans-39" d="M 703 97 
L 703 672 
Q 941 559 1184 500 
Q 1428 441 1663 441 
Q 2288 441 2617 861 
Q 2947 1281 2994 2138 
Q 2813 1869 2534 1725 
Q 2256 1581 1919 1581 
Q 1219 1581 811 2004 
Q 403 2428 403 3163 
Q 403 3881 828 4315 
Q 1253 4750 1959 4750 
Q 2769 4750 3195 4129 
Q 3622 3509 3622 2328 
Q 3622 1225 3098 567 
Q 2575 -91 1691 -91 
Q 1453 -91 1209 -44 
Q 966 3 703 97 
z
M 1959 2075 
Q 2384 2075 2632 2365 
Q 2881 2656 2881 3163 
Q 2881 3666 2632 3958 
Q 2384 4250 1959 4250 
Q 1534 4250 1286 3958 
Q 1038 3666 1038 3163 
Q 1038 2656 1286 2365 
Q 1534 2075 1959 2075 
z
" transform="scale(0.015625)"/>
       </defs>
       <use xlink:href="#DejaVuSans-39"/>
       <use xlink:href="#DejaVuSans-30" x="63.623047"/>
      </g>
     </g>
    </g>
    <g id="ytick_4">
     <g id="line2d_11">
      <g>
       <use xlink:href="#m54040b7fbf" x="57.6" y="58.400913" style="stroke: #000000; stroke-width: 0.8"/>
      </g>
     </g>
     <g id="text_11">
      <!-- 100 -->
      <g transform="translate(31.5125 62.200132)scale(0.1 -0.1)">
       <use xlink:href="#DejaVuSans-31"/>
       <use xlink:href="#DejaVuSans-30" x="63.623047"/>
       <use xlink:href="#DejaVuSans-30" x="127.246094"/>
      </g>
     </g>
    </g>
   </g>
   <g id="line2d_12">
    <path d="M 73.832727 57.715069 
L 73.837964 57.715069 
L 73.968875 55.108863 
L 74.764815 55.108863 
L 74.880017 53.737175 
L 75.283223 53.737175 
L 75.398425 52.365487 
L 86.426385 52.365487 
L 86.541587 50.993799 
L 123.537093 50.993799 
L 123.652294 49.622112 
L 196.847366 49.622112 
L 196.962568 48.250424 
L 398.487273 48.250424 
L 398.487273 48.250424 
" clip-path="url(#pf92f38a049)" style="fill: none; stroke: #1f77b4; stroke-width: 1.5; stroke-linecap: square"/>
   </g>
   <g id="line2d_13">
    <path d="M 73.832727 57.715069 
L 73.837964 57.715069 
L 73.911274 65.716581 
L 73.947929 58.858143 
L 74.021239 58.858143 
L 74.136441 57.943684 
L 74.429682 57.943684 
L 74.544884 55.200308 
L 75.068529 55.200308 
L 75.183731 57.943684 
L 76.414296 57.943684 
L 76.529498 55.200308 
L 76.943177 55.200308 
L 77.058379 52.456933 
L 78.456511 52.456933 
L 78.571713 49.713557 
L 249.772147 49.713557 
L 249.887349 46.970182 
L 398.487273 46.970182 
L 398.487273 46.970182 
" clip-path="url(#pf92f38a049)" style="fill: none; stroke: #ff7f0e; stroke-width: 1.5; stroke-linecap: square"/>
   </g>
   <g id="line2d_14">
    <path d="M 73.832727 57.715069 
L 73.837964 57.715069 
L 73.958402 56.251936 
L 73.989821 56.251936 
L 74.105023 54.880248 
L 75.068529 54.880248 
L 75.183731 54.331573 
L 78.854481 54.331573 
L 78.969683 53.417114 
L 106.04212 53.417114 
L 106.157321 50.673739 
L 398.487273 50.673739 
L 398.487273 50.673739 
" clip-path="url(#pf92f38a049)" style="fill: none; stroke: #2ca02c; stroke-width: 1.5; stroke-linecap: square"/>
   </g>
   <g id="line2d_15">
    <path d="M 73.832727 58.400913 
L 73.837964 58.400913 
L 73.953166 69.831645 
L 73.968875 69.145801 
L 73.989821 69.145801 
L 74.099786 71.889176 
L 74.214988 71.203332 
L 74.429682 71.203332 
L 74.434919 73.946708 
L 74.539648 72.346406 
L 74.764815 72.346406 
L 74.770051 75.089781 
L 74.87478 73.718093 
L 75.016165 73.718093 
L 75.068529 72.803635 
L 75.073765 75.54701 
L 75.12613 73.489479 
L 75.283223 73.489479 
L 75.398425 76.232854 
L 75.403662 76.232854 
L 75.518864 75.318396 
L 75.644538 75.318396 
L 75.764977 73.032249 
L 76.414296 73.032249 
L 76.424769 75.775625 
L 76.524262 75.089781 
L 76.681355 75.089781 
L 76.796557 73.718093 
L 76.943177 73.718093 
L 77.058379 76.461469 
L 77.503477 76.461469 
L 77.618679 75.089781 
L 78.456511 75.089781 
L 78.571713 77.833157 
L 78.854481 77.833157 
L 78.969683 80.576532 
L 79.126776 80.576532 
L 79.241978 79.890688 
L 79.482855 79.890688 
L 79.603293 77.147313 
L 80.661056 77.147313 
L 80.776257 75.775625 
L 83.572521 75.775625 
L 83.687723 74.403937 
L 86.426385 74.403937 
L 86.541587 77.147313 
L 87.206616 77.147313 
L 87.321818 75.775625 
L 90.034298 75.775625 
L 90.1495 74.403937 
L 92.029384 74.403937 
L 92.144586 73.718093 
L 105.492292 73.718093 
L 105.607494 72.346406 
L 106.04212 72.346406 
L 106.157321 75.089781 
L 108.943112 75.089781 
L 109.058314 73.718093 
L 116.289848 73.718093 
L 116.40505 76.461469 
L 117.661798 76.461469 
L 117.777 75.775625 
L 123.537093 75.775625 
L 123.652294 78.519001 
L 129.700392 78.519001 
L 129.815594 77.147313 
L 153.552413 77.147313 
L 153.667615 75.775625 
L 154.479264 75.775625 
L 154.594466 74.403937 
L 162.391537 74.403937 
L 162.506739 77.147313 
L 171.743834 77.147313 
L 171.859036 76.232854 
L 181.839706 76.232854 
L 181.954908 75.318396 
L 196.847366 75.318396 
L 196.962568 78.061771 
L 197.38672 78.061771 
L 197.501922 77.147313 
L 246.02285 77.147313 
L 246.138052 76.461469 
L 249.772147 76.461469 
L 249.887349 79.204844 
L 269.047512 79.204844 
L 269.162714 78.290386 
L 318.469109 78.290386 
L 318.584311 77.375927 
L 398.487273 77.375927 
L 398.487273 77.375927 
" clip-path="url(#pf92f38a049)" style="fill: none; stroke: #d62728; stroke-width: 1.5; stroke-linecap: square"/>
   </g>
   <g id="line2d_16">
    <path d="M 73.832727 57.715069 
L 73.885092 57.715069 
L 73.989821 65.945196 
L 74.00553 64.573508 
L 116.289848 64.573508 
L 116.40505 67.316884 
L 162.391537 67.316884 
L 162.506739 65.945196 
L 398.487273 65.945196 
L 398.487273 65.945196 
" clip-path="url(#pf92f38a049)" style="fill: none; stroke: #9467bd; stroke-width: 1.5; stroke-linecap: square"/>
   </g>
   <g id="line2d_17">
    <path d="M 73.832727 58.400913 
L 73.837964 58.400913 
L 73.968875 56.023321 
L 75.068529 56.023321 
L 75.183731 55.474646 
L 78.854481 55.474646 
L 78.969683 54.560187 
L 116.289848 54.560187 
L 116.40505 53.645729 
L 246.02285 53.645729 
L 246.138052 52.959885 
L 398.487273 52.959885 
L 398.487273 52.959885 
" clip-path="url(#pf92f38a049)" style="fill: none; stroke: #8c564b; stroke-width: 1.5; stroke-linecap: square"/>
   </g>
   <g id="line2d_18">
    <path d="M 73.832727 61.144289 
L 73.837964 61.144289 
L 73.953166 86.977742 
L 73.989821 84.92021 
L 74.021239 84.92021 
L 74.136441 83.319908 
L 74.267352 83.319908 
L 74.387791 80.576532 
L 74.398264 80.576532 
L 74.518702 77.147313 
L 74.764815 77.147313 
L 74.885253 82.634064 
L 74.9638 82.634064 
L 75.068529 81.262376 
L 75.141839 86.063283 
L 75.183731 84.691596 
L 75.283223 84.691596 
L 75.398425 87.434971 
L 75.424607 87.434971 
L 75.539809 86.063283 
L 75.702139 86.063283 
L 75.75974 88.806659 
L 75.812105 86.063283 
L 76.162947 86.063283 
L 76.278149 84.691596 
L 76.424769 84.691596 
L 76.539971 84.005752 
L 76.597572 84.005752 
L 76.681355 82.634064 
L 76.686591 85.377439 
L 76.702301 85.377439 
L 76.943177 85.377439 
L 77.058379 88.120815 
L 77.503477 88.120815 
L 77.52966 90.864191 
L 77.613443 88.120815 
L 78.440802 88.120815 
L 78.456511 86.749127 
L 78.461747 89.492503 
L 78.545531 89.492503 
L 78.854481 89.492503 
L 78.969683 92.235878 
L 79.126776 92.235878 
L 79.252451 90.178347 
L 79.482855 90.178347 
L 79.603293 95.665098 
L 79.619002 95.665098 
L 79.734204 94.29341 
L 80.210721 94.29341 
L 80.331159 91.550034 
L 80.661056 91.550034 
L 80.729129 94.29341 
L 80.771021 92.921722 
L 81.121863 92.921722 
L 81.237065 91.550034 
L 81.357503 91.550034 
L 81.472705 90.178347 
L 81.697872 90.178347 
L 81.813074 88.806659 
L 83.572521 88.806659 
L 83.687723 91.550034 
L 84.740249 91.550034 
L 84.855451 90.178347 
L 86.426385 90.178347 
L 86.541587 92.921722 
L 86.761518 92.921722 
L 86.876719 91.550034 
L 87.206616 91.550034 
L 87.321818 94.29341 
L 87.368946 94.29341 
L 87.484147 92.921722 
L 90.034298 92.921722 
L 90.1495 95.665098 
L 91.90371 95.665098 
L 92.018912 94.29341 
L 92.029384 94.29341 
L 92.144586 93.607566 
L 97.951807 93.607566 
L 98.067009 92.235878 
L 98.999097 92.235878 
L 99.114299 90.864191 
L 105.267125 90.864191 
L 105.382327 89.492503 
L 105.492292 89.492503 
L 105.607494 92.235878 
L 108.943112 92.235878 
L 109.058314 94.979254 
L 113.561659 94.979254 
L 113.676861 93.607566 
L 116.289848 93.607566 
L 116.40505 96.350942 
L 117.661798 96.350942 
L 117.777 95.665098 
L 123.537093 95.665098 
L 123.652294 98.408473 
L 125.919676 98.408473 
L 126.034878 97.036785 
L 129.700392 97.036785 
L 129.815594 99.780161 
L 138.529043 99.780161 
L 138.644245 98.408473 
L 153.552413 98.408473 
L 153.651906 101.151849 
L 153.662378 99.780161 
L 154.479264 99.780161 
L 154.594466 102.523537 
L 160.616382 102.523537 
L 160.731583 101.151849 
L 162.391537 101.151849 
L 162.506739 103.895224 
L 188.359084 103.895224 
L 188.474285 102.523537 
L 196.611726 102.523537 
L 196.726928 101.151849 
L 196.847366 101.151849 
L 196.962568 103.895224 
L 209.849467 103.895224 
L 209.964668 102.523537 
L 227.192583 102.523537 
L 227.307784 101.151849 
L 249.772147 101.151849 
L 249.887349 103.895224 
L 328.276977 103.895224 
L 328.392179 102.523537 
L 398.487273 102.523537 
L 398.487273 102.523537 
" clip-path="url(#pf92f38a049)" style="fill: none; stroke: #e377c2; stroke-width: 1.5; stroke-linecap: square"/>
   </g>
   <g id="line2d_19">
    <path d="M 73.832727 58.400913 
L 73.837964 58.400913 
L 73.979348 55.108863 
L 75.068529 55.108863 
L 75.183731 54.560187 
L 78.854481 54.560187 
L 78.969683 53.645729 
L 116.289848 53.645729 
L 116.40505 52.73127 
L 246.02285 52.73127 
L 246.138052 52.045427 
L 398.487273 52.045427 
L 398.487273 52.045427 
" clip-path="url(#pf92f38a049)" style="fill: none; stroke: #7f7f7f; stroke-width: 1.5; stroke-linecap: square"/>
   </g>
   <g id="line2d_20">
    <path d="M 73.832727 61.144289 
L 73.837964 61.144289 
L 73.953166 86.063283 
L 73.989821 84.005752 
L 74.021239 84.005752 
L 74.136441 82.405449 
L 74.267352 82.405449 
L 74.361609 81.033761 
L 74.366845 83.777137 
L 74.377318 82.405449 
L 74.398264 82.405449 
L 74.429682 79.662074 
L 74.513466 80.805147 
L 74.72816 80.805147 
L 74.853835 89.035273 
L 74.9638 89.035273 
L 75.068529 86.749127 
L 75.141839 91.550034 
L 75.183731 90.178347 
L 75.283223 90.178347 
L 75.398425 92.921722 
L 75.403662 92.921722 
L 75.5241 90.635576 
L 75.644538 90.635576 
L 75.702139 89.721117 
L 75.707376 92.464493 
L 75.744031 92.464493 
L 75.75974 92.464493 
L 75.880178 89.721117 
L 76.016326 89.721117 
L 76.131528 92.464493 
L 76.162947 92.464493 
L 76.278149 91.092805 
L 76.414296 91.092805 
L 76.424769 93.836181 
L 76.524262 93.150337 
L 76.597572 93.150337 
L 76.681355 91.778649 
L 76.686591 94.522025 
L 76.702301 94.522025 
L 76.943177 94.522025 
L 77.058379 97.2654 
L 77.477295 97.2654 
L 77.597733 102.752151 
L 78.116142 102.752151 
L 78.23658 108.238902 
L 78.440802 108.238902 
L 78.456511 106.867215 
L 78.461747 109.61059 
L 78.545531 109.61059 
L 78.854481 109.61059 
L 78.969683 112.353966 
L 79.126776 112.353966 
L 79.252451 110.296434 
L 79.482855 110.296434 
L 79.603293 115.783185 
L 79.619002 115.783185 
L 79.734204 114.411497 
L 80.210721 114.411497 
L 80.331159 111.668122 
L 80.451598 111.668122 
L 80.5668 114.411497 
L 80.661056 114.411497 
L 80.729129 117.154873 
L 80.771021 115.783185 
L 81.121863 115.783185 
L 81.163755 114.411497 
L 81.168991 117.154873 
L 81.226592 117.154873 
L 81.357503 117.154873 
L 81.472705 115.783185 
L 81.50936 115.783185 
L 81.624562 118.526561 
L 81.697872 118.526561 
L 81.813074 117.154873 
L 83.572521 117.154873 
L 83.687723 119.898248 
L 84.185185 119.898248 
L 84.300387 122.641624 
L 84.740249 122.641624 
L 84.855451 121.269936 
L 86.426385 121.269936 
L 86.541587 124.013312 
L 86.761518 124.013312 
L 86.876719 122.641624 
L 87.206616 122.641624 
L 87.321818 125.384999 
L 87.368946 125.384999 
L 87.484147 124.013312 
L 88.332452 124.013312 
L 88.447654 126.756687 
L 90.034298 126.756687 
L 90.1495 129.500063 
L 91.90371 129.500063 
L 92.018912 128.128375 
L 92.029384 128.128375 
L 92.144586 127.442531 
L 94.794229 127.442531 
L 94.909431 130.185907 
L 97.951807 130.185907 
L 98.067009 128.814219 
L 98.999097 128.814219 
L 99.114299 127.442531 
L 102.544172 127.442531 
L 102.659374 130.185907 
L 105.267125 130.185907 
L 105.382327 128.814219 
L 105.492292 128.814219 
L 105.607494 131.557594 
L 106.04212 131.557594 
L 106.157321 134.30097 
L 108.943112 134.30097 
L 109.058314 137.044345 
L 113.561659 137.044345 
L 113.676861 135.672658 
L 116.289848 135.672658 
L 116.40505 138.416033 
L 117.661798 138.416033 
L 117.777 137.730189 
L 123.537093 137.730189 
L 123.652294 140.473565 
L 125.919676 140.473565 
L 126.034878 139.101877 
L 129.700392 139.101877 
L 129.815594 141.845253 
L 138.529043 141.845253 
L 138.644245 140.473565 
L 149.049068 140.473565 
L 149.16427 143.21694 
L 153.552413 143.21694 
L 153.651906 145.960316 
L 153.662378 144.588628 
L 154.479264 144.588628 
L 154.594466 147.332004 
L 160.616382 147.332004 
L 160.731583 145.960316 
L 162.391537 145.960316 
L 162.506739 148.703692 
L 171.743834 148.703692 
L 171.859036 147.789233 
L 181.839706 147.789233 
L 181.954908 146.874775 
L 188.359084 146.874775 
L 188.474285 145.503087 
L 196.611726 145.503087 
L 196.726928 144.131399 
L 196.836893 144.131399 
L 196.957331 149.61815 
L 197.38672 149.61815 
L 197.501922 148.703692 
L 209.849467 148.703692 
L 209.938486 147.332004 
L 209.943723 150.075379 
L 209.954196 150.075379 
L 224.741925 150.075379 
L 224.857127 152.818755 
L 227.192583 152.818755 
L 227.307784 151.447067 
L 246.02285 151.447067 
L 246.138052 154.190443 
L 249.772147 154.190443 
L 249.887349 156.933818 
L 269.047512 156.933818 
L 269.162714 156.01936 
L 318.469109 156.01936 
L 318.584311 155.104901 
L 328.276977 155.104901 
L 328.392179 153.733213 
L 398.487273 153.733213 
L 398.487273 153.733213 
" clip-path="url(#pf92f38a049)" style="fill: none; stroke: #bcbd22; stroke-width: 1.5; stroke-linecap: square"/>
   </g>
   <g id="line2d_21">
    <path d="M 73.832727 61.144289 
L 73.837964 61.144289 
L 73.963638 70.974718 
L 73.989821 70.974718 
L 74.099786 76.461469 
L 74.105023 75.775625 
L 74.267352 75.775625 
L 74.382554 78.519001 
L 74.398264 78.519001 
L 74.434919 86.749127 
L 74.518702 85.148825 
L 74.72816 85.148825 
L 74.764815 82.405449 
L 74.838125 83.777137 
L 74.9638 83.777137 
L 75.016165 86.520513 
L 75.073765 85.057379 
L 75.094711 85.057379 
L 75.141839 82.999847 
L 75.147076 85.743223 
L 75.19944 85.743223 
L 75.283223 85.743223 
L 75.398425 88.486598 
L 75.403662 88.486598 
L 75.424607 87.57214 
L 75.429844 90.315515 
L 75.503154 90.315515 
L 75.644538 90.315515 
L 75.75974 88.029369 
L 75.880178 93.51612 
L 76.016326 93.51612 
L 76.131528 90.772745 
L 76.162947 90.772745 
L 76.278149 93.51612 
L 76.414296 93.51612 
L 76.424769 96.259496 
L 76.524262 95.573652 
L 76.597572 95.573652 
L 76.681355 98.317027 
L 76.707537 96.94534 
L 76.943177 96.94534 
L 77.058379 99.688715 
L 77.477295 99.688715 
L 77.52966 95.573652 
L 77.555842 101.060403 
L 77.582024 101.060403 
L 77.587261 101.060403 
L 77.702462 98.317027 
L 78.116142 98.317027 
L 78.23658 92.830276 
L 78.440802 92.830276 
L 78.56124 98.317027 
L 79.126776 98.317027 
L 79.132013 97.631184 
L 79.137249 100.374559 
L 79.221032 100.374559 
L 79.482855 100.374559 
L 79.603293 97.631184 
L 79.619002 97.631184 
L 79.734204 100.374559 
L 80.210721 100.374559 
L 80.331159 105.86131 
L 80.451598 105.86131 
L 80.5668 103.117935 
L 80.661056 103.117935 
L 80.729129 101.746247 
L 80.734366 104.489622 
L 80.765785 104.489622 
L 81.121863 104.489622 
L 81.163755 107.232998 
L 81.231828 104.489622 
L 81.357503 104.489622 
L 81.472705 107.232998 
L 81.50936 107.232998 
L 81.624562 104.489622 
L 81.697872 104.489622 
L 81.813074 107.232998 
L 83.572521 107.232998 
L 83.687723 105.86131 
L 84.185185 105.86131 
L 84.300387 103.117935 
L 84.740249 103.117935 
L 84.855451 105.86131 
L 86.426385 105.86131 
L 86.541587 108.604686 
L 86.761518 108.604686 
L 86.876719 111.348061 
L 87.206616 111.348061 
L 87.321818 109.976373 
L 87.368946 109.976373 
L 87.484147 112.719749 
L 88.332452 112.719749 
L 88.447654 109.976373 
L 90.034298 109.976373 
L 90.1495 108.604686 
L 91.90371 108.604686 
L 92.018912 111.348061 
L 92.029384 111.348061 
L 92.144586 110.662217 
L 94.794229 110.662217 
L 94.909431 107.918842 
L 97.951807 107.918842 
L 98.067009 110.662217 
L 98.999097 110.662217 
L 99.114299 113.405593 
L 102.544172 113.405593 
L 102.659374 110.662217 
L 105.267125 110.662217 
L 105.382327 113.405593 
L 105.492292 113.405593 
L 105.607494 112.033905 
L 106.04212 112.033905 
L 106.157321 114.777281 
L 108.943112 114.777281 
L 109.058314 113.405593 
L 113.561659 113.405593 
L 113.676861 116.148968 
L 117.661798 116.148968 
L 117.777 115.463125 
L 123.537093 115.463125 
L 123.652294 118.2065 
L 125.919676 118.2065 
L 126.034878 120.949876 
L 129.700392 120.949876 
L 129.815594 119.578188 
L 138.529043 119.578188 
L 138.644245 122.321563 
L 149.049068 122.321563 
L 149.16427 119.578188 
L 153.552413 119.578188 
L 153.651906 118.2065 
L 153.657142 120.949876 
L 154.479264 120.949876 
L 154.594466 119.578188 
L 160.616382 119.578188 
L 160.731583 122.321563 
L 162.391537 122.321563 
L 162.506739 125.064939 
L 171.743834 125.064939 
L 171.859036 124.15048 
L 181.839706 124.15048 
L 181.954908 123.236022 
L 188.359084 123.236022 
L 188.474285 125.979397 
L 196.611726 125.979397 
L 196.726928 128.722773 
L 196.836893 128.722773 
L 196.847366 125.979397 
L 196.946858 128.722773 
L 197.38672 128.722773 
L 197.501922 127.808314 
L 209.849467 127.808314 
L 209.938486 130.55169 
L 209.959432 127.808314 
L 224.741925 127.808314 
L 224.857127 125.064939 
L 227.192583 125.064939 
L 227.307784 127.808314 
L 246.02285 127.808314 
L 246.138052 127.122471 
L 249.772147 127.122471 
L 249.887349 129.865846 
L 269.047512 129.865846 
L 269.162714 128.951388 
L 318.469109 128.951388 
L 318.584311 128.036929 
L 328.276977 128.036929 
L 328.392179 130.780305 
L 398.487273 130.780305 
L 398.487273 130.780305 
" clip-path="url(#pf92f38a049)" style="fill: none; stroke: #17becf; stroke-width: 1.5; stroke-linecap: square"/>
   </g>
   <g id="line2d_22">
    <path d="M 73.832727 58.400913 
L 73.837964 58.400913 
L 73.963638 66.63104 
L 75.068529 66.63104 
L 75.183731 69.374415 
L 78.854481 69.374415 
L 78.969683 72.117791 
L 116.289848 72.117791 
L 116.40505 74.861167 
L 246.02285 74.861167 
L 246.138052 77.604542 
L 398.487273 77.604542 
L 398.487273 77.604542 
" clip-path="url(#pf92f38a049)" style="fill: none; stroke: #1f77b4; stroke-width: 1.5; stroke-linecap: square"/>
   </g>
   <g id="line2d_23">
    <path d="M 73.832727 58.400913 
L 73.837964 58.400913 
L 73.853673 57.852238 
L 73.874619 66.082365 
L 73.885092 66.082365 
L 73.900801 63.796218 
L 73.947929 73.855262 
L 73.953166 73.855262 
L 74.073604 79.342013 
L 74.099786 79.342013 
L 74.214988 82.085389 
L 74.434919 82.085389 
L 74.555357 87.57214 
L 74.764815 87.57214 
L 74.880017 86.200452 
L 75.016165 86.200452 
L 75.136603 91.138528 
L 75.283223 91.138528 
L 75.398425 89.76684 
L 75.403662 89.76684 
L 75.518864 92.510216 
L 75.644538 92.510216 
L 75.75974 95.253591 
L 76.424769 95.253591 
L 76.539971 97.996967 
L 79.126776 97.996967 
L 79.241978 100.740342 
L 86.426385 100.740342 
L 86.541587 99.368655 
L 92.029384 99.368655 
L 92.144586 102.11203 
L 116.289848 102.11203 
L 116.40505 101.197572 
L 117.661798 101.197572 
L 117.777 103.940947 
L 123.537093 103.940947 
L 123.652294 102.569259 
L 162.391537 102.569259 
L 162.506739 101.197572 
L 171.743834 101.197572 
L 171.859036 103.940947 
L 181.839706 103.940947 
L 181.954908 106.684323 
L 196.847366 106.684323 
L 196.962568 105.312635 
L 197.38672 105.312635 
L 197.501922 108.056011 
L 269.047512 108.056011 
L 269.162714 110.799386 
L 318.469109 110.799386 
L 318.584311 113.542762 
L 398.487273 113.542762 
L 398.487273 113.542762 
" clip-path="url(#pf92f38a049)" style="fill: none; stroke: #ff7f0e; stroke-width: 1.5; stroke-linecap: square"/>
   </g>
   <g id="patch_3">
    <path d="M 57.6 162.432 
L 57.6 41.472 
" style="fill: none; stroke: #000000; stroke-width: 0.8; stroke-linejoin: miter; stroke-linecap: square"/>
   </g>
   <g id="patch_4">
    <path d="M 414.72 162.432 
L 414.72 41.472 
" style="fill: none; stroke: #000000; stroke-width: 0.8; stroke-linejoin: miter; stroke-linecap: square"/>
   </g>
   <g id="patch_5">
    <path d="M 57.6 162.432 
L 414.72 162.432 
" style="fill: none; stroke: #000000; stroke-width: 0.8; stroke-linejoin: miter; stroke-linecap: square"/>
   </g>
   <g id="patch_6">
    <path d="M 57.6 41.472 
L 414.72 41.472 
" style="fill: none; stroke: #000000; stroke-width: 0.8; stroke-linejoin: miter; stroke-linecap: square"/>
   </g>
   <g id="text_12">
    <!-- WSP -->
    <g transform="translate(361.832136 48.250424)scale(0.08 -0.08)">
     <defs>
      <path id="DejaVuSans-57" d="M 213 4666 
L 850 4666 
L 1831 722 
L 2809 4666 
L 3519 4666 
L 4500 722 
L 5478 4666 
L 6119 4666 
L 4947 0 
L 4153 0 
L 3169 4050 
L 2175 0 
L 1381 0 
L 213 4666 
z
" transform="scale(0.015625)"/>
      <path id="DejaVuSans-53" d="M 3425 4513 
L 3425 3897 
Q 3066 4069 2747 4153 
Q 2428 4238 2131 4238 
Q 1616 4238 1336 4038 
Q 1056 3838 1056 3469 
Q 1056 3159 1242 3001 
Q 1428 2844 1947 2747 
L 2328 2669 
Q 3034 2534 3370 2195 
Q 3706 1856 3706 1288 
Q 3706 609 3251 259 
Q 2797 -91 1919 -91 
Q 1588 -91 1214 -16 
Q 841 59 441 206 
L 441 856 
Q 825 641 1194 531 
Q 1563 422 1919 422 
Q 2459 422 2753 634 
Q 3047 847 3047 1241 
Q 3047 1584 2836 1778 
Q 2625 1972 2144 2069 
L 1759 2144 
Q 1053 2284 737 2584 
Q 422 2884 422 3419 
Q 422 4038 858 4394 
Q 1294 4750 2059 4750 
Q 2388 4750 2728 4690 
Q 3069 4631 3425 4513 
z
" transform="scale(0.015625)"/>
      <path id="DejaVuSans-50" d="M 1259 4147 
L 1259 2394 
L 2053 2394 
Q 2494 2394 2734 2622 
Q 2975 2850 2975 3272 
Q 2975 3691 2734 3919 
Q 2494 4147 2053 4147 
L 1259 4147 
z
M 628 4666 
L 2053 4666 
Q 2838 4666 3239 4311 
Q 3641 3956 3641 3272 
Q 3641 2581 3239 2228 
Q 2838 1875 2053 1875 
L 1259 1875 
L 1259 0 
L 628 0 
L 628 4666 
z
" transform="scale(0.015625)"/>
     </defs>
     <use xlink:href="#DejaVuSans-57"/>
     <use xlink:href="#DejaVuSans-53" x="98.876953"/>
     <use xlink:href="#DejaVuSans-50" x="162.353516"/>
    </g>
   </g>
   <g id="text_13">
    <!-- Iambic -->
    <g transform="translate(361.832136 46.970182)scale(0.08 -0.08)">
     <defs>
      <path id="DejaVuSans-49" d="M 628 4666 
L 1259 4666 
L 1259 0 
L 628 0 
L 628 4666 
z
" transform="scale(0.015625)"/>
      <path id="DejaVuSans-61" d="M 2194 1759 
Q 1497 1759 1228 1600 
Q 959 1441 959 1056 
Q 959 750 1161 570 
Q 1363 391 1709 391 
Q 2188 391 2477 730 
Q 2766 1069 2766 1631 
L 2766 1759 
L 2194 1759 
z
M 3341 1997 
L 3341 0 
L 2766 0 
L 2766 531 
Q 2569 213 2275 61 
Q 1981 -91 1556 -91 
Q 1019 -91 701 211 
Q 384 513 384 1019 
Q 384 1609 779 1909 
Q 1175 2209 1959 2209 
L 2766 2209 
L 2766 2266 
Q 2766 2663 2505 2880 
Q 2244 3097 1772 3097 
Q 1472 3097 1187 3025 
Q 903 2953 641 2809 
L 641 3341 
Q 956 3463 1253 3523 
Q 1550 3584 1831 3584 
Q 2591 3584 2966 3190 
Q 3341 2797 3341 1997 
z
" transform="scale(0.015625)"/>
      <path id="DejaVuSans-6d" d="M 3328 2828 
Q 3544 3216 3844 3400 
Q 4144 3584 4550 3584 
Q 5097 3584 5394 3201 
Q 5691 2819 5691 2113 
L 5691 0 
L 5113 0 
L 5113 2094 
Q 5113 2597 4934 2840 
Q 4756 3084 4391 3084 
Q 3944 3084 3684 2787 
Q 3425 2491 3425 1978 
L 3425 0 
L 2847 0 
L 2847 2094 
Q 2847 2600 2669 2842 
Q 2491 3084 2119 3084 
Q 1678 3084 1418 2786 
Q 1159 2488 1159 1978 
L 1159 0 
L 581 0 
L 581 3500 
L 1159 3500 
L 1159 2956 
Q 1356 3278 1631 3431 
Q 1906 3584 2284 3584 
Q 2666 3584 2933 3390 
Q 3200 3197 3328 2828 
z
" transform="scale(0.015625)"/>
      <path id="DejaVuSans-62" d="M 3116 1747 
Q 3116 2381 2855 2742 
Q 2594 3103 2138 3103 
Q 1681 3103 1420 2742 
Q 1159 2381 1159 1747 
Q 1159 1113 1420 752 
Q 1681 391 2138 391 
Q 2594 391 2855 752 
Q 3116 1113 3116 1747 
z
M 1159 2969 
Q 1341 3281 1617 3432 
Q 1894 3584 2278 3584 
Q 2916 3584 3314 3078 
Q 3713 2572 3713 1747 
Q 3713 922 3314 415 
Q 2916 -91 2278 -91 
Q 1894 -91 1617 61 
Q 1341 213 1159 525 
L 1159 0 
L 581 0 
L 581 4863 
L 1159 4863 
L 1159 2969 
z
" transform="scale(0.015625)"/>
      <path id="DejaVuSans-69" d="M 603 3500 
L 1178 3500 
L 1178 0 
L 603 0 
L 603 3500 
z
M 603 4863 
L 1178 4863 
L 1178 4134 
L 603 4134 
L 603 4863 
z
" transform="scale(0.015625)"/>
      <path id="DejaVuSans-63" d="M 3122 3366 
L 3122 2828 
Q 2878 2963 2633 3030 
Q 2388 3097 2138 3097 
Q 1578 3097 1268 2742 
Q 959 2388 959 1747 
Q 959 1106 1268 751 
Q 1578 397 2138 397 
Q 2388 397 2633 464 
Q 2878 531 3122 666 
L 3122 134 
Q 2881 22 2623 -34 
Q 2366 -91 2075 -91 
Q 1284 -91 818 406 
Q 353 903 353 1747 
Q 353 2603 823 3093 
Q 1294 3584 2113 3584 
Q 2378 3584 2631 3529 
Q 2884 3475 3122 3366 
z
" transform="scale(0.015625)"/>
     </defs>
     <use xlink:href="#DejaVuSans-49"/>
     <use xlink:href="#DejaVuSans-61" x="29.492188"/>
     <use xlink:href="#DejaVuSans-6d" x="90.771484"/>
     <use xlink:href="#DejaVuSans-62" x="188.183594"/>
     <use xlink:href="#DejaVuSans-69" x="251.660156"/>
     <use xlink:href="#DejaVuSans-63" x="279.443359"/>
    </g>
   </g>
   <g id="text_14">
    <!-- Parse -->
    <g transform="translate(361.832136 50.673739)scale(0.08 -0.08)">
     <defs>
      <path id="DejaVuSans-72" d="M 2631 2963 
Q 2534 3019 2420 3045 
Q 2306 3072 2169 3072 
Q 1681 3072 1420 2755 
Q 1159 2438 1159 1844 
L 1159 0 
L 581 0 
L 581 3500 
L 1159 3500 
L 1159 2956 
Q 1341 3275 1631 3429 
Q 1922 3584 2338 3584 
Q 2397 3584 2469 3576 
Q 2541 3569 2628 3553 
L 2631 2963 
z
" transform="scale(0.015625)"/>
      <path id="DejaVuSans-73" d="M 2834 3397 
L 2834 2853 
Q 2591 2978 2328 3040 
Q 2066 3103 1784 3103 
Q 1356 3103 1142 2972 
Q 928 2841 928 2578 
Q 928 2378 1081 2264 
Q 1234 2150 1697 2047 
L 1894 2003 
Q 2506 1872 2764 1633 
Q 3022 1394 3022 966 
Q 3022 478 2636 193 
Q 2250 -91 1575 -91 
Q 1294 -91 989 -36 
Q 684 19 347 128 
L 347 722 
Q 666 556 975 473 
Q 1284 391 1588 391 
Q 1994 391 2212 530 
Q 2431 669 2431 922 
Q 2431 1156 2273 1281 
Q 2116 1406 1581 1522 
L 1381 1569 
Q 847 1681 609 1914 
Q 372 2147 372 2553 
Q 372 3047 722 3315 
Q 1072 3584 1716 3584 
Q 2034 3584 2315 3537 
Q 2597 3491 2834 3397 
z
" transform="scale(0.015625)"/>
      <path id="DejaVuSans-65" d="M 3597 1894 
L 3597 1613 
L 953 1613 
Q 991 1019 1311 708 
Q 1631 397 2203 397 
Q 2534 397 2845 478 
Q 3156 559 3463 722 
L 3463 178 
Q 3153 47 2828 -22 
Q 2503 -91 2169 -91 
Q 1331 -91 842 396 
Q 353 884 353 1716 
Q 353 2575 817 3079 
Q 1281 3584 2069 3584 
Q 2775 3584 3186 3129 
Q 3597 2675 3597 1894 
z
M 3022 2063 
Q 3016 2534 2758 2815 
Q 2500 3097 2075 3097 
Q 1594 3097 1305 2825 
Q 1016 2553 972 2059 
L 3022 2063 
z
" transform="scale(0.015625)"/>
     </defs>
     <use xlink:href="#DejaVuSans-50"/>
     <use xlink:href="#DejaVuSans-61" x="55.802734"/>
     <use xlink:href="#DejaVuSans-72" x="117.082031"/>
     <use xlink:href="#DejaVuSans-73" x="158.195312"/>
     <use xlink:href="#DejaVuSans-65" x="210.294922"/>
    </g>
   </g>
   <g id="text_15">
    <!-- FootBin -->
    <g transform="translate(361.832136 77.375927)scale(0.08 -0.08)">
     <defs>
      <path id="DejaVuSans-46" d="M 628 4666 
L 3309 4666 
L 3309 4134 
L 1259 4134 
L 1259 2759 
L 3109 2759 
L 3109 2228 
L 1259 2228 
L 1259 0 
L 628 0 
L 628 4666 
z
" transform="scale(0.015625)"/>
      <path id="DejaVuSans-6f" d="M 1959 3097 
Q 1497 3097 1228 2736 
Q 959 2375 959 1747 
Q 959 1119 1226 758 
Q 1494 397 1959 397 
Q 2419 397 2687 759 
Q 2956 1122 2956 1747 
Q 2956 2369 2687 2733 
Q 2419 3097 1959 3097 
z
M 1959 3584 
Q 2709 3584 3137 3096 
Q 3566 2609 3566 1747 
Q 3566 888 3137 398 
Q 2709 -91 1959 -91 
Q 1206 -91 779 398 
Q 353 888 353 1747 
Q 353 2609 779 3096 
Q 1206 3584 1959 3584 
z
" transform="scale(0.015625)"/>
      <path id="DejaVuSans-74" d="M 1172 4494 
L 1172 3500 
L 2356 3500 
L 2356 3053 
L 1172 3053 
L 1172 1153 
Q 1172 725 1289 603 
Q 1406 481 1766 481 
L 2356 481 
L 2356 0 
L 1766 0 
Q 1100 0 847 248 
Q 594 497 594 1153 
L 594 3053 
L 172 3053 
L 172 3500 
L 594 3500 
L 594 4494 
L 1172 4494 
z
" transform="scale(0.015625)"/>
      <path id="DejaVuSans-42" d="M 1259 2228 
L 1259 519 
L 2272 519 
Q 2781 519 3026 730 
Q 3272 941 3272 1375 
Q 3272 1813 3026 2020 
Q 2781 2228 2272 2228 
L 1259 2228 
z
M 1259 4147 
L 1259 2741 
L 2194 2741 
Q 2656 2741 2882 2914 
Q 3109 3088 3109 3444 
Q 3109 3797 2882 3972 
Q 2656 4147 2194 4147 
L 1259 4147 
z
M 628 4666 
L 2241 4666 
Q 2963 4666 3353 4366 
Q 3744 4066 3744 3513 
Q 3744 3084 3544 2831 
Q 3344 2578 2956 2516 
Q 3422 2416 3680 2098 
Q 3938 1781 3938 1306 
Q 3938 681 3513 340 
Q 3088 0 2303 0 
L 628 0 
L 628 4666 
z
" transform="scale(0.015625)"/>
      <path id="DejaVuSans-6e" d="M 3513 2113 
L 3513 0 
L 2938 0 
L 2938 2094 
Q 2938 2591 2744 2837 
Q 2550 3084 2163 3084 
Q 1697 3084 1428 2787 
Q 1159 2491 1159 1978 
L 1159 0 
L 581 0 
L 581 3500 
L 1159 3500 
L 1159 2956 
Q 1366 3272 1645 3428 
Q 1925 3584 2291 3584 
Q 2894 3584 3203 3211 
Q 3513 2838 3513 2113 
z
" transform="scale(0.015625)"/>
     </defs>
     <use xlink:href="#DejaVuSans-46"/>
     <use xlink:href="#DejaVuSans-6f" x="53.894531"/>
     <use xlink:href="#DejaVuSans-6f" x="115.076172"/>
     <use xlink:href="#DejaVuSans-74" x="176.257812"/>
     <use xlink:href="#DejaVuSans-42" x="215.466797"/>
     <use xlink:href="#DejaVuSans-69" x="284.070312"/>
     <use xlink:href="#DejaVuSans-6e" x="311.853516"/>
    </g>
   </g>
   <g id="text_16">
    <!-- WFL -->
    <g transform="translate(361.832136 65.945196)scale(0.08 -0.08)">
     <defs>
      <path id="DejaVuSans-4c" d="M 628 4666 
L 1259 4666 
L 1259 531 
L 3531 531 
L 3531 0 
L 628 0 
L 628 4666 
z
" transform="scale(0.015625)"/>
     </defs>
     <use xlink:href="#DejaVuSans-57"/>
     <use xlink:href="#DejaVuSans-46" x="98.876953"/>
     <use xlink:href="#DejaVuSans-4c" x="156.396484"/>
    </g>
   </g>
   <g id="text_17">
    <!-- WFR -->
    <g transform="translate(361.832136 52.959885)scale(0.08 -0.08)">
     <defs>
      <path id="DejaVuSans-52" d="M 2841 2188 
Q 3044 2119 3236 1894 
Q 3428 1669 3622 1275 
L 4263 0 
L 3584 0 
L 2988 1197 
Q 2756 1666 2539 1819 
Q 2322 1972 1947 1972 
L 1259 1972 
L 1259 0 
L 628 0 
L 628 4666 
L 2053 4666 
Q 2853 4666 3247 4331 
Q 3641 3997 3641 3322 
Q 3641 2881 3436 2590 
Q 3231 2300 2841 2188 
z
M 1259 4147 
L 1259 2491 
L 2053 2491 
Q 2509 2491 2742 2702 
Q 2975 2913 2975 3322 
Q 2975 3731 2742 3939 
Q 2509 4147 2053 4147 
L 1259 4147 
z
" transform="scale(0.015625)"/>
     </defs>
     <use xlink:href="#DejaVuSans-57"/>
     <use xlink:href="#DejaVuSans-46" x="98.876953"/>
     <use xlink:href="#DejaVuSans-52" x="156.396484"/>
    </g>
   </g>
   <g id="text_18">
    <!-- Main-L -->
    <g transform="translate(361.832136 102.523537)scale(0.08 -0.08)">
     <defs>
      <path id="DejaVuSans-4d" d="M 628 4666 
L 1569 4666 
L 2759 1491 
L 3956 4666 
L 4897 4666 
L 4897 0 
L 4281 0 
L 4281 4097 
L 3078 897 
L 2444 897 
L 1241 4097 
L 1241 0 
L 628 0 
L 628 4666 
z
" transform="scale(0.015625)"/>
      <path id="DejaVuSans-2d" d="M 313 2009 
L 1997 2009 
L 1997 1497 
L 313 1497 
L 313 2009 
z
" transform="scale(0.015625)"/>
     </defs>
     <use xlink:href="#DejaVuSans-4d"/>
     <use xlink:href="#DejaVuSans-61" x="86.279297"/>
     <use xlink:href="#DejaVuSans-69" x="147.558594"/>
     <use xlink:href="#DejaVuSans-6e" x="175.341797"/>
     <use xlink:href="#DejaVuSans-2d" x="238.720703"/>
     <use xlink:href="#DejaVuSans-4c" x="274.804688"/>
    </g>
   </g>
   <g id="text_19">
    <!-- Main-R -->
    <g transform="translate(361.832136 52.045427)scale(0.08 -0.08)">
     <use xlink:href="#DejaVuSans-4d"/>
     <use xlink:href="#DejaVuSans-61" x="86.279297"/>
     <use xlink:href="#DejaVuSans-69" x="147.558594"/>
     <use xlink:href="#DejaVuSans-6e" x="175.341797"/>
     <use xlink:href="#DejaVuSans-2d" x="238.720703"/>
     <use xlink:href="#DejaVuSans-52" x="274.804688"/>
    </g>
   </g>
   <g id="text_20">
    <!-- AFL -->
    <g transform="translate(361.832136 153.733213)scale(0.08 -0.08)">
     <defs>
      <path id="DejaVuSans-41" d="M 2188 4044 
L 1331 1722 
L 3047 1722 
L 2188 4044 
z
M 1831 4666 
L 2547 4666 
L 4325 0 
L 3669 0 
L 3244 1197 
L 1141 1197 
L 716 0 
L 50 0 
L 1831 4666 
z
" transform="scale(0.015625)"/>
     </defs>
     <use xlink:href="#DejaVuSans-41"/>
     <use xlink:href="#DejaVuSans-46" x="68.408203"/>
     <use xlink:href="#DejaVuSans-4c" x="125.927734"/>
    </g>
   </g>
   <g id="text_21">
    <!-- AFR -->
    <g transform="translate(361.832136 130.780305)scale(0.08 -0.08)">
     <use xlink:href="#DejaVuSans-41"/>
     <use xlink:href="#DejaVuSans-46" x="68.408203"/>
     <use xlink:href="#DejaVuSans-52" x="125.927734"/>
    </g>
   </g>
   <g id="text_22">
    <!-- Nonfinal -->
    <g transform="translate(361.832136 77.604542)scale(0.08 -0.08)">
     <defs>
      <path id="DejaVuSans-4e" d="M 628 4666 
L 1478 4666 
L 3547 763 
L 3547 4666 
L 4159 4666 
L 4159 0 
L 3309 0 
L 1241 3903 
L 1241 0 
L 628 0 
L 628 4666 
z
" transform="scale(0.015625)"/>
      <path id="DejaVuSans-66" d="M 2375 4863 
L 2375 4384 
L 1825 4384 
Q 1516 4384 1395 4259 
Q 1275 4134 1275 3809 
L 1275 3500 
L 2222 3500 
L 2222 3053 
L 1275 3053 
L 1275 0 
L 697 0 
L 697 3053 
L 147 3053 
L 147 3500 
L 697 3500 
L 697 3744 
Q 697 4328 969 4595 
Q 1241 4863 1831 4863 
L 2375 4863 
z
" transform="scale(0.015625)"/>
      <path id="DejaVuSans-6c" d="M 603 4863 
L 1178 4863 
L 1178 0 
L 603 0 
L 603 4863 
z
" transform="scale(0.015625)"/>
     </defs>
     <use xlink:href="#DejaVuSans-4e"/>
     <use xlink:href="#DejaVuSans-6f" x="74.804688"/>
     <use xlink:href="#DejaVuSans-6e" x="135.986328"/>
     <use xlink:href="#DejaVuSans-66" x="199.365234"/>
     <use xlink:href="#DejaVuSans-69" x="234.570312"/>
     <use xlink:href="#DejaVuSans-6e" x="262.353516"/>
     <use xlink:href="#DejaVuSans-61" x="325.732422"/>
     <use xlink:href="#DejaVuSans-6c" x="387.011719"/>
    </g>
   </g>
   <g id="text_23">
    <!-- Trochaic -->
    <g transform="translate(361.832136 113.542762)scale(0.08 -0.08)">
     <defs>
      <path id="DejaVuSans-54" d="M -19 4666 
L 3928 4666 
L 3928 4134 
L 2272 4134 
L 2272 0 
L 1638 0 
L 1638 4134 
L -19 4134 
L -19 4666 
z
" transform="scale(0.015625)"/>
      <path id="DejaVuSans-68" d="M 3513 2113 
L 3513 0 
L 2938 0 
L 2938 2094 
Q 2938 2591 2744 2837 
Q 2550 3084 2163 3084 
Q 1697 3084 1428 2787 
Q 1159 2491 1159 1978 
L 1159 0 
L 581 0 
L 581 4863 
L 1159 4863 
L 1159 2956 
Q 1366 3272 1645 3428 
Q 1925 3584 2291 3584 
Q 2894 3584 3203 3211 
Q 3513 2838 3513 2113 
z
" transform="scale(0.015625)"/>
     </defs>
     <use xlink:href="#DejaVuSans-54"/>
     <use xlink:href="#DejaVuSans-72" x="46.333984"/>
     <use xlink:href="#DejaVuSans-6f" x="85.197266"/>
     <use xlink:href="#DejaVuSans-63" x="146.378906"/>
     <use xlink:href="#DejaVuSans-68" x="201.359375"/>
     <use xlink:href="#DejaVuSans-61" x="264.738281"/>
     <use xlink:href="#DejaVuSans-69" x="326.017578"/>
     <use xlink:href="#DejaVuSans-63" x="353.800781"/>
    </g>
   </g>
  </g>
  <g id="axes_2">
   <g id="patch_7">
    <path d="M 57.6 307.584 
L 414.72 307.584 
L 414.72 186.624 
L 57.6 186.624 
z
" style="fill: #ffffff"/>
   </g>
   <g id="matplotlib.axis_3">
    <g id="xtick_8">
     <g id="line2d_24">
      <g>
       <use xlink:href="#m5bc1f12716" x="71.149632" y="307.584" style="stroke: #000000; stroke-width: 0.8"/>
      </g>
     </g>
     <g id="text_24">
      <!-- 0 -->
      <g transform="translate(67.968382 322.182437)scale(0.1 -0.1)">
       <use xlink:href="#DejaVuSans-30"/>
      </g>
     </g>
    </g>
    <g id="xtick_9">
     <g id="line2d_25">
      <g>
       <use xlink:href="#m5bc1f12716" x="124.81154" y="307.584" style="stroke: #000000; stroke-width: 0.8"/>
      </g>
     </g>
     <g id="text_25">
      <!-- 20 -->
      <g transform="translate(118.44904 322.182437)scale(0.1 -0.1)">
       <use xlink:href="#DejaVuSans-32"/>
       <use xlink:href="#DejaVuSans-30" x="63.623047"/>
      </g>
     </g>
    </g>
    <g id="xtick_10">
     <g id="line2d_26">
      <g>
       <use xlink:href="#m5bc1f12716" x="178.473449" y="307.584" style="stroke: #000000; stroke-width: 0.8"/>
      </g>
     </g>
     <g id="text_26">
      <!-- 40 -->
      <g transform="translate(172.110949 322.182437)scale(0.1 -0.1)">
       <use xlink:href="#DejaVuSans-34"/>
       <use xlink:href="#DejaVuSans-30" x="63.623047"/>
      </g>
     </g>
    </g>
    <g id="xtick_11">
     <g id="line2d_27">
      <g>
       <use xlink:href="#m5bc1f12716" x="232.135357" y="307.584" style="stroke: #000000; stroke-width: 0.8"/>
      </g>
     </g>
     <g id="text_27">
      <!-- 60 -->
      <g transform="translate(225.772857 322.182437)scale(0.1 -0.1)">
       <use xlink:href="#DejaVuSans-36"/>
       <use xlink:href="#DejaVuSans-30" x="63.623047"/>
      </g>
     </g>
    </g>
    <g id="xtick_12">
     <g id="line2d_28">
      <g>
       <use xlink:href="#m5bc1f12716" x="285.797265" y="307.584" style="stroke: #000000; stroke-width: 0.8"/>
      </g>
     </g>
     <g id="text_28">
      <!-- 80 -->
      <g transform="translate(279.434765 322.182437)scale(0.1 -0.1)">
       <use xlink:href="#DejaVuSans-38"/>
       <use xlink:href="#DejaVuSans-30" x="63.623047"/>
      </g>
     </g>
    </g>
    <g id="xtick_13">
     <g id="line2d_29">
      <g>
       <use xlink:href="#m5bc1f12716" x="339.459174" y="307.584" style="stroke: #000000; stroke-width: 0.8"/>
      </g>
     </g>
     <g id="text_29">
      <!-- 100 -->
      <g transform="translate(329.915424 322.182437)scale(0.1 -0.1)">
       <use xlink:href="#DejaVuSans-31"/>
       <use xlink:href="#DejaVuSans-30" x="63.623047"/>
       <use xlink:href="#DejaVuSans-30" x="127.246094"/>
      </g>
     </g>
    </g>
    <g id="xtick_14">
     <g id="line2d_30">
      <g>
       <use xlink:href="#m5bc1f12716" x="393.121082" y="307.584" style="stroke: #000000; stroke-width: 0.8"/>
      </g>
     </g>
     <g id="text_30">
      <!-- 120 -->
      <g transform="translate(383.577332 322.182437)scale(0.1 -0.1)">
       <use xlink:href="#DejaVuSans-31"/>
       <use xlink:href="#DejaVuSans-32" x="63.623047"/>
       <use xlink:href="#DejaVuSans-30" x="127.246094"/>
      </g>
     </g>
    </g>
   </g>
   <g id="matplotlib.axis_4">
    <g id="ytick_5">
     <g id="line2d_31">
      <g>
       <use xlink:href="#m54040b7fbf" x="57.6" y="302.097471" style="stroke: #000000; stroke-width: 0.8"/>
      </g>
     </g>
     <g id="text_31">
      <!-- 0 -->
      <g transform="translate(44.2375 305.896689)scale(0.1 -0.1)">
       <use xlink:href="#DejaVuSans-30"/>
      </g>
     </g>
    </g>
    <g id="ytick_6">
     <g id="line2d_32">
      <g>
       <use xlink:href="#m54040b7fbf" x="57.6" y="278.792684" style="stroke: #000000; stroke-width: 0.8"/>
      </g>
     </g>
     <g id="text_32">
      <!-- 2000 -->
      <g transform="translate(25.15 282.591903)scale(0.1 -0.1)">
       <use xlink:href="#DejaVuSans-32"/>
       <use xlink:href="#DejaVuSans-30" x="63.623047"/>
       <use xlink:href="#DejaVuSans-30" x="127.246094"/>
       <use xlink:href="#DejaVuSans-30" x="190.869141"/>
      </g>
     </g>
    </g>
    <g id="ytick_7">
     <g id="line2d_33">
      <g>
       <use xlink:href="#m54040b7fbf" x="57.6" y="255.487897" style="stroke: #000000; stroke-width: 0.8"/>
      </g>
     </g>
     <g id="text_33">
      <!-- 4000 -->
      <g transform="translate(25.15 259.287116)scale(0.1 -0.1)">
       <use xlink:href="#DejaVuSans-34"/>
       <use xlink:href="#DejaVuSans-30" x="63.623047"/>
       <use xlink:href="#DejaVuSans-30" x="127.246094"/>
       <use xlink:href="#DejaVuSans-30" x="190.869141"/>
      </g>
     </g>
    </g>
    <g id="ytick_8">
     <g id="line2d_34">
      <g>
       <use xlink:href="#m54040b7fbf" x="57.6" y="232.18311" style="stroke: #000000; stroke-width: 0.8"/>
      </g>
     </g>
     <g id="text_34">
      <!-- 6000 -->
      <g transform="translate(25.15 235.982329)scale(0.1 -0.1)">
       <use xlink:href="#DejaVuSans-36"/>
       <use xlink:href="#DejaVuSans-30" x="63.623047"/>
       <use xlink:href="#DejaVuSans-30" x="127.246094"/>
       <use xlink:href="#DejaVuSans-30" x="190.869141"/>
      </g>
     </g>
    </g>
    <g id="ytick_9">
     <g id="line2d_35">
      <g>
       <use xlink:href="#m54040b7fbf" x="57.6" y="208.878324" style="stroke: #000000; stroke-width: 0.8"/>
      </g>
     </g>
     <g id="text_35">
      <!-- 8000 -->
      <g transform="translate(25.15 212.677542)scale(0.1 -0.1)">
       <use xlink:href="#DejaVuSans-38"/>
       <use xlink:href="#DejaVuSans-30" x="63.623047"/>
       <use xlink:href="#DejaVuSans-30" x="127.246094"/>
       <use xlink:href="#DejaVuSans-30" x="190.869141"/>
      </g>
     </g>
    </g>
   </g>
   <g id="line2d_36">
    <path d="M 73.832727 302.074166 
L 76.515823 302.074166 
L 79.198918 302.085818 
L 81.882014 302.085818 
L 84.565109 302.074166 
L 87.248204 302.062513 
L 89.9313 302.085818 
L 92.614395 302.074166 
L 95.297491 302.085818 
L 97.980586 302.085818 
L 100.663681 302.085818 
L 103.346777 302.074166 
L 106.029872 302.062513 
L 108.712968 302.074166 
L 111.396063 302.085818 
L 114.079159 302.027556 
L 116.762254 302.027556 
L 119.445349 301.922685 
L 122.128445 301.724594 
L 124.81154 301.887727 
L 127.494636 302.085818 
L 130.177731 302.027556 
L 132.860826 302.074166 
L 135.543922 302.050861 
L 138.227017 302.085818 
L 140.910113 301.969294 
L 143.593208 301.573113 
L 146.276304 302.015904 
L 148.959399 302.085818 
L 151.642494 301.666332 
L 154.32559 301.980947 
L 157.008685 301.980947 
L 159.691781 302.039209 
L 162.374876 302.074166 
L 165.057971 302.015904 
L 167.741067 301.782856 
L 170.424162 301.829466 
L 173.107258 302.050861 
L 175.790353 301.60807 
L 178.473449 301.969294 
L 181.156544 301.969294 
L 183.839639 302.062513 
L 186.522735 301.56146 
L 189.20583 301.771204 
L 191.888926 301.538156 
L 194.572021 302.074166 
L 197.255116 301.712942 
L 199.938212 301.911032 
L 202.621307 301.514851 
L 205.304403 300.908926 
L 207.987498 302.039209 
L 210.670594 302.039209 
L 213.353689 302.050861 
L 216.036784 302.015904 
L 218.71988 300.920579 
L 221.402975 301.864423 
L 224.086071 301.60807 
L 226.769166 302.062513 
L 229.452261 301.211889 
L 232.135357 301.491546 
L 234.818452 302.085818 
L 237.501548 301.31676 
L 240.184643 302.085818 
L 242.867739 301.806161 
L 245.550834 300.78075 
L 248.233929 302.004251 
L 250.917025 301.65468 
L 253.60012 301.631375 
L 256.283216 301.945989 
L 258.966311 301.223541 
L 261.649406 302.004251 
L 264.332502 301.666332 
L 267.015597 301.759551 
L 269.698693 301.677984 
L 272.381788 297.925914 
L 275.064884 300.734141 
L 277.747979 300.862317 
L 280.431074 298.3454 
L 283.11417 301.351717 
L 285.797265 301.107017 
L 288.480361 301.736246 
L 291.163456 299.95343 
L 293.846551 298.310443 
L 296.529647 297.937566 
L 299.212742 301.817813 
L 301.895838 295.945007 
L 304.578933 295.071077 
L 307.262029 299.766992 
L 309.945124 294.2088 
L 312.628219 296.038226 
L 315.311315 301.596418 
L 317.99441 300.873969 
L 320.677506 295.642045 
L 323.360601 291.82006 
L 326.043696 296.026574 
L 328.726792 299.044544 
L 331.409887 289.023485 
L 334.092983 296.795632 
L 336.776078 293.684443 
L 339.459174 282.451535 
L 342.142269 278.687812 
L 344.825364 292.076412 
L 347.50846 301.876075 
L 350.191555 300.256392 
L 352.874651 288.440866 
L 355.557746 298.147309 
L 358.240841 281.286296 
L 360.923937 279.631656 
L 363.607032 287.590241 
L 366.290128 283.733299 
L 368.973223 301.596418 
L 371.656319 302.074166 
L 374.339414 300.897274 
L 377.022509 274.364774 
L 379.705605 301.89938 
L 382.3887 269.156154 
L 385.071796 296.64415 
L 387.754891 260.195464 
L 390.437986 293.754357 
L 393.121082 259.205011 
L 395.804177 192.122182 
L 398.487273 280.272538 
" clip-path="url(#p9b348ed39e)" style="fill: none; stroke: #1f77b4; stroke-width: 1.5; stroke-linecap: square"/>
   </g>
   <g id="patch_8">
    <path d="M 57.6 307.584 
L 57.6 186.624 
" style="fill: none; stroke: #000000; stroke-width: 0.8; stroke-linejoin: miter; stroke-linecap: square"/>
   </g>
   <g id="patch_9">
    <path d="M 414.72 307.584 
L 414.72 186.624 
" style="fill: none; stroke: #000000; stroke-width: 0.8; stroke-linejoin: miter; stroke-linecap: square"/>
   </g>
   <g id="patch_10">
    <path d="M 57.6 307.584 
L 414.72 307.584 
" style="fill: none; stroke: #000000; stroke-width: 0.8; stroke-linejoin: miter; stroke-linecap: square"/>
   </g>
   <g id="patch_11">
    <path d="M 57.6 186.624 
L 414.72 186.624 
" style="fill: none; stroke: #000000; stroke-width: 0.8; stroke-linejoin: miter; stroke-linecap: square"/>
   </g>
  </g>
 </g>
 <defs>
  <clipPath id="pf92f38a049">
   <rect x="57.6" y="41.472" width="357.12" height="120.96"/>
  </clipPath>
  <clipPath id="p9b348ed39e">
   <rect x="57.6" y="186.624" width="357.12" height="120.96"/>
  </clipPath>
 </defs>
</svg>
