<?xml version="1.0" encoding="utf-8" standalone="no"?>
<!DOCTYPE svg PUBLIC "-//W3C//DTD SVG 1.1//EN"
  "http://www.w3.org/Graphics/SVG/1.1/DTD/svg11.dtd">
<svg xmlns:xlink="http://www.w3.org/1999/xlink" width="460.8pt" height="345.6pt" viewBox="0 0 460.8 345.6" xmlns="http://www.w3.org/2000/svg" version="1.1">
 <metadata>
  <rdf:RDF xmlns:dc="http://purl.org/dc/elements/1.1/" xmlns:cc="http://creativecommons.org/ns#" xmlns:rdf="http://www.w3.org/1999/02/22-rdf-syntax-ns#">
   <cc:Work>
    <dc:type rdf:resource="http://purl.org/dc/dcmitype/StillImage"/>
    <dc:date>2022-05-13T16:02:25.932526</dc:date>
    <dc:format>image/svg+xml</dc:format>
    <dc:creator>
     <cc:Agent>
      <dc:title>Matplotlib v3.5.1, https://matplotlib.org/</dc:title>
     </cc:Agent>
    </dc:creator>
   </cc:Work>
  </rdf:RDF>
 </metadata>
 <defs>
  <style type="text/css">*{stroke-linejoin: round; stroke-linecap: butt}</style>
 </defs>
 <g id="figure_1">
  <g id="patch_1">
   <path d="M 0 345.6 
L 460.8 345.6 
L 460.8 0 
L 0 0 
z
" style="fill: #ffffff"/>
  </g>
  <g id="axes_1">
   <g id="patch_2">
    <path d="M 57.6 162.432 
L 414.72 162.432 
L 414.72 41.472 
L 57.6 41.472 
z
" style="fill: #ffffff"/>
   </g>
   <g id="matplotlib.axis_1">
    <g id="xtick_1">
     <g id="line2d_1">
      <defs>
       <path id="me55df1cc56" d="M 0 0 
L 0 3.5 
" style="stroke: #000000; stroke-width: 0.8"/>
      </defs>
      <g>
       <use xlink:href="#me55df1cc56" x="73.827491" y="162.432" style="stroke: #000000; stroke-width: 0.8"/>
      </g>
     </g>
     <g id="text_1">
      <!-- 0 -->
      <g transform="translate(70.646241 177.030437)scale(0.1 -0.1)">
       <defs>
        <path id="DejaVuSans-30" d="M 2034 4250 
Q 1547 4250 1301 3770 
Q 1056 3291 1056 2328 
Q 1056 1369 1301 889 
Q 1547 409 2034 409 
Q 2525 409 2770 889 
Q 3016 1369 3016 2328 
Q 3016 3291 2770 3770 
Q 2525 4250 2034 4250 
z
M 2034 4750 
Q 2819 4750 3233 4129 
Q 3647 3509 3647 2328 
Q 3647 1150 3233 529 
Q 2819 -91 2034 -91 
Q 1250 -91 836 529 
Q 422 1150 422 2328 
Q 422 3509 836 4129 
Q 1250 4750 2034 4750 
z
" transform="scale(0.015625)"/>
       </defs>
       <use xlink:href="#DejaVuSans-30"/>
      </g>
     </g>
    </g>
    <g id="xtick_2">
     <g id="line2d_2">
      <g>
       <use xlink:href="#me55df1cc56" x="126.191972" y="162.432" style="stroke: #000000; stroke-width: 0.8"/>
      </g>
     </g>
     <g id="text_2">
      <!-- 10000 -->
      <g transform="translate(110.285722 177.030437)scale(0.1 -0.1)">
       <defs>
        <path id="DejaVuSans-31" d="M 794 531 
L 1825 531 
L 1825 4091 
L 703 3866 
L 703 4441 
L 1819 4666 
L 2450 4666 
L 2450 531 
L 3481 531 
L 3481 0 
L 794 0 
L 794 531 
z
" transform="scale(0.015625)"/>
       </defs>
       <use xlink:href="#DejaVuSans-31"/>
       <use xlink:href="#DejaVuSans-30" x="63.623047"/>
       <use xlink:href="#DejaVuSans-30" x="127.246094"/>
       <use xlink:href="#DejaVuSans-30" x="190.869141"/>
       <use xlink:href="#DejaVuSans-30" x="254.492188"/>
      </g>
     </g>
    </g>
    <g id="xtick_3">
     <g id="line2d_3">
      <g>
       <use xlink:href="#me55df1cc56" x="178.556453" y="162.432" style="stroke: #000000; stroke-width: 0.8"/>
      </g>
     </g>
     <g id="text_3">
      <!-- 20000 -->
      <g transform="translate(162.650203 177.030437)scale(0.1 -0.1)">
       <defs>
        <path id="DejaVuSans-32" d="M 1228 531 
L 3431 531 
L 3431 0 
L 469 0 
L 469 531 
Q 828 903 1448 1529 
Q 2069 2156 2228 2338 
Q 2531 2678 2651 2914 
Q 2772 3150 2772 3378 
Q 2772 3750 2511 3984 
Q 2250 4219 1831 4219 
Q 1534 4219 1204 4116 
Q 875 4013 500 3803 
L 500 4441 
Q 881 4594 1212 4672 
Q 1544 4750 1819 4750 
Q 2544 4750 2975 4387 
Q 3406 4025 3406 3419 
Q 3406 3131 3298 2873 
Q 3191 2616 2906 2266 
Q 2828 2175 2409 1742 
Q 1991 1309 1228 531 
z
" transform="scale(0.015625)"/>
       </defs>
       <use xlink:href="#DejaVuSans-32"/>
       <use xlink:href="#DejaVuSans-30" x="63.623047"/>
       <use xlink:href="#DejaVuSans-30" x="127.246094"/>
       <use xlink:href="#DejaVuSans-30" x="190.869141"/>
       <use xlink:href="#DejaVuSans-30" x="254.492188"/>
      </g>
     </g>
    </g>
    <g id="xtick_4">
     <g id="line2d_4">
      <g>
       <use xlink:href="#me55df1cc56" x="230.920934" y="162.432" style="stroke: #000000; stroke-width: 0.8"/>
      </g>
     </g>
     <g id="text_4">
      <!-- 30000 -->
      <g transform="translate(215.014684 177.030437)scale(0.1 -0.1)">
       <defs>
        <path id="DejaVuSans-33" d="M 2597 2516 
Q 3050 2419 3304 2112 
Q 3559 1806 3559 1356 
Q 3559 666 3084 287 
Q 2609 -91 1734 -91 
Q 1441 -91 1130 -33 
Q 819 25 488 141 
L 488 750 
Q 750 597 1062 519 
Q 1375 441 1716 441 
Q 2309 441 2620 675 
Q 2931 909 2931 1356 
Q 2931 1769 2642 2001 
Q 2353 2234 1838 2234 
L 1294 2234 
L 1294 2753 
L 1863 2753 
Q 2328 2753 2575 2939 
Q 2822 3125 2822 3475 
Q 2822 3834 2567 4026 
Q 2313 4219 1838 4219 
Q 1578 4219 1281 4162 
Q 984 4106 628 3988 
L 628 4550 
Q 988 4650 1302 4700 
Q 1616 4750 1894 4750 
Q 2613 4750 3031 4423 
Q 3450 4097 3450 3541 
Q 3450 3153 3228 2886 
Q 3006 2619 2597 2516 
z
" transform="scale(0.015625)"/>
       </defs>
       <use xlink:href="#DejaVuSans-33"/>
       <use xlink:href="#DejaVuSans-30" x="63.623047"/>
       <use xlink:href="#DejaVuSans-30" x="127.246094"/>
       <use xlink:href="#DejaVuSans-30" x="190.869141"/>
       <use xlink:href="#DejaVuSans-30" x="254.492188"/>
      </g>
     </g>
    </g>
    <g id="xtick_5">
     <g id="line2d_5">
      <g>
       <use xlink:href="#me55df1cc56" x="283.285415" y="162.432" style="stroke: #000000; stroke-width: 0.8"/>
      </g>
     </g>
     <g id="text_5">
      <!-- 40000 -->
      <g transform="translate(267.379165 177.030437)scale(0.1 -0.1)">
       <defs>
        <path id="DejaVuSans-34" d="M 2419 4116 
L 825 1625 
L 2419 1625 
L 2419 4116 
z
M 2253 4666 
L 3047 4666 
L 3047 1625 
L 3713 1625 
L 3713 1100 
L 3047 1100 
L 3047 0 
L 2419 0 
L 2419 1100 
L 313 1100 
L 313 1709 
L 2253 4666 
z
" transform="scale(0.015625)"/>
       </defs>
       <use xlink:href="#DejaVuSans-34"/>
       <use xlink:href="#DejaVuSans-30" x="63.623047"/>
       <use xlink:href="#DejaVuSans-30" x="127.246094"/>
       <use xlink:href="#DejaVuSans-30" x="190.869141"/>
       <use xlink:href="#DejaVuSans-30" x="254.492188"/>
      </g>
     </g>
    </g>
    <g id="xtick_6">
     <g id="line2d_6">
      <g>
       <use xlink:href="#me55df1cc56" x="335.649896" y="162.432" style="stroke: #000000; stroke-width: 0.8"/>
      </g>
     </g>
     <g id="text_6">
      <!-- 50000 -->
      <g transform="translate(319.743646 177.030437)scale(0.1 -0.1)">
       <defs>
        <path id="DejaVuSans-35" d="M 691 4666 
L 3169 4666 
L 3169 4134 
L 1269 4134 
L 1269 2991 
Q 1406 3038 1543 3061 
Q 1681 3084 1819 3084 
Q 2600 3084 3056 2656 
Q 3513 2228 3513 1497 
Q 3513 744 3044 326 
Q 2575 -91 1722 -91 
Q 1428 -91 1123 -41 
Q 819 9 494 109 
L 494 744 
Q 775 591 1075 516 
Q 1375 441 1709 441 
Q 2250 441 2565 725 
Q 2881 1009 2881 1497 
Q 2881 1984 2565 2268 
Q 2250 2553 1709 2553 
Q 1456 2553 1204 2497 
Q 953 2441 691 2322 
L 691 4666 
z
" transform="scale(0.015625)"/>
       </defs>
       <use xlink:href="#DejaVuSans-35"/>
       <use xlink:href="#DejaVuSans-30" x="63.623047"/>
       <use xlink:href="#DejaVuSans-30" x="127.246094"/>
       <use xlink:href="#DejaVuSans-30" x="190.869141"/>
       <use xlink:href="#DejaVuSans-30" x="254.492188"/>
      </g>
     </g>
    </g>
    <g id="xtick_7">
     <g id="line2d_7">
      <g>
       <use xlink:href="#me55df1cc56" x="388.014377" y="162.432" style="stroke: #000000; stroke-width: 0.8"/>
      </g>
     </g>
     <g id="text_7">
      <!-- 60000 -->
      <g transform="translate(372.108127 177.030437)scale(0.1 -0.1)">
       <defs>
        <path id="DejaVuSans-36" d="M 2113 2584 
Q 1688 2584 1439 2293 
Q 1191 2003 1191 1497 
Q 1191 994 1439 701 
Q 1688 409 2113 409 
Q 2538 409 2786 701 
Q 3034 994 3034 1497 
Q 3034 2003 2786 2293 
Q 2538 2584 2113 2584 
z
M 3366 4563 
L 3366 3988 
Q 3128 4100 2886 4159 
Q 2644 4219 2406 4219 
Q 1781 4219 1451 3797 
Q 1122 3375 1075 2522 
Q 1259 2794 1537 2939 
Q 1816 3084 2150 3084 
Q 2853 3084 3261 2657 
Q 3669 2231 3669 1497 
Q 3669 778 3244 343 
Q 2819 -91 2113 -91 
Q 1303 -91 875 529 
Q 447 1150 447 2328 
Q 447 3434 972 4092 
Q 1497 4750 2381 4750 
Q 2619 4750 2861 4703 
Q 3103 4656 3366 4563 
z
" transform="scale(0.015625)"/>
       </defs>
       <use xlink:href="#DejaVuSans-36"/>
       <use xlink:href="#DejaVuSans-30" x="63.623047"/>
       <use xlink:href="#DejaVuSans-30" x="127.246094"/>
       <use xlink:href="#DejaVuSans-30" x="190.869141"/>
       <use xlink:href="#DejaVuSans-30" x="254.492188"/>
      </g>
     </g>
    </g>
   </g>
   <g id="matplotlib.axis_2">
    <g id="ytick_1">
     <g id="line2d_8">
      <defs>
       <path id="m4fc92c4b6b" d="M 0 0 
L -3.5 0 
" style="stroke: #000000; stroke-width: 0.8"/>
      </defs>
      <g>
       <use xlink:href="#m4fc92c4b6b" x="57.6" y="138.348415" style="stroke: #000000; stroke-width: 0.8"/>
      </g>
     </g>
     <g id="text_8">
      <!-- 80 -->
      <g transform="translate(37.875 142.147634)scale(0.1 -0.1)">
       <defs>
        <path id="DejaVuSans-38" d="M 2034 2216 
Q 1584 2216 1326 1975 
Q 1069 1734 1069 1313 
Q 1069 891 1326 650 
Q 1584 409 2034 409 
Q 2484 409 2743 651 
Q 3003 894 3003 1313 
Q 3003 1734 2745 1975 
Q 2488 2216 2034 2216 
z
M 1403 2484 
Q 997 2584 770 2862 
Q 544 3141 544 3541 
Q 544 4100 942 4425 
Q 1341 4750 2034 4750 
Q 2731 4750 3128 4425 
Q 3525 4100 3525 3541 
Q 3525 3141 3298 2862 
Q 3072 2584 2669 2484 
Q 3125 2378 3379 2068 
Q 3634 1759 3634 1313 
Q 3634 634 3220 271 
Q 2806 -91 2034 -91 
Q 1263 -91 848 271 
Q 434 634 434 1313 
Q 434 1759 690 2068 
Q 947 2378 1403 2484 
z
M 1172 3481 
Q 1172 3119 1398 2916 
Q 1625 2713 2034 2713 
Q 2441 2713 2670 2916 
Q 2900 3119 2900 3481 
Q 2900 3844 2670 4047 
Q 2441 4250 2034 4250 
Q 1625 4250 1398 4047 
Q 1172 3844 1172 3481 
z
" transform="scale(0.015625)"/>
       </defs>
       <use xlink:href="#DejaVuSans-38"/>
       <use xlink:href="#DejaVuSans-30" x="63.623047"/>
      </g>
     </g>
    </g>
    <g id="ytick_2">
     <g id="line2d_9">
      <g>
       <use xlink:href="#m4fc92c4b6b" x="57.6" y="107.372743" style="stroke: #000000; stroke-width: 0.8"/>
      </g>
     </g>
     <g id="text_9">
      <!-- 90 -->
      <g transform="translate(37.875 111.171961)scale(0.1 -0.1)">
       <defs>
        <path id="DejaVuSans-39" d="M 703 97 
L 703 672 
Q 941 559 1184 500 
Q 1428 441 1663 441 
Q 2288 441 2617 861 
Q 2947 1281 2994 2138 
Q 2813 1869 2534 1725 
Q 2256 1581 1919 1581 
Q 1219 1581 811 2004 
Q 403 2428 403 3163 
Q 403 3881 828 4315 
Q 1253 4750 1959 4750 
Q 2769 4750 3195 4129 
Q 3622 3509 3622 2328 
Q 3622 1225 3098 567 
Q 2575 -91 1691 -91 
Q 1453 -91 1209 -44 
Q 966 3 703 97 
z
M 1959 2075 
Q 2384 2075 2632 2365 
Q 2881 2656 2881 3163 
Q 2881 3666 2632 3958 
Q 2384 4250 1959 4250 
Q 1534 4250 1286 3958 
Q 1038 3666 1038 3163 
Q 1038 2656 1286 2365 
Q 1534 2075 1959 2075 
z
" transform="scale(0.015625)"/>
       </defs>
       <use xlink:href="#DejaVuSans-39"/>
       <use xlink:href="#DejaVuSans-30" x="63.623047"/>
      </g>
     </g>
    </g>
    <g id="ytick_3">
     <g id="line2d_10">
      <g>
       <use xlink:href="#m4fc92c4b6b" x="57.6" y="76.39707" style="stroke: #000000; stroke-width: 0.8"/>
      </g>
     </g>
     <g id="text_10">
      <!-- 100 -->
      <g transform="translate(31.5125 80.196289)scale(0.1 -0.1)">
       <use xlink:href="#DejaVuSans-31"/>
       <use xlink:href="#DejaVuSans-30" x="63.623047"/>
       <use xlink:href="#DejaVuSans-30" x="127.246094"/>
      </g>
     </g>
    </g>
    <g id="ytick_4">
     <g id="line2d_11">
      <g>
       <use xlink:href="#m4fc92c4b6b" x="57.6" y="45.421398" style="stroke: #000000; stroke-width: 0.8"/>
      </g>
     </g>
     <g id="text_11">
      <!-- 110 -->
      <g transform="translate(31.5125 49.220617)scale(0.1 -0.1)">
       <use xlink:href="#DejaVuSans-31"/>
       <use xlink:href="#DejaVuSans-31" x="63.623047"/>
       <use xlink:href="#DejaVuSans-30" x="127.246094"/>
      </g>
     </g>
    </g>
   </g>
   <g id="line2d_12">
    <path d="M 73.832727 76.39707 
L 73.8432 75.364548 
L 73.890328 83.624727 
L 74.010767 90.336123 
L 74.042185 90.336123 
L 74.047422 93.43369 
L 74.152151 92.401168 
L 74.194042 92.401168 
L 74.309244 95.498735 
L 74.324953 95.498735 
L 74.356372 101.693869 
L 74.440155 99.628825 
L 74.560594 99.628825 
L 74.63914 98.596302 
L 74.644377 101.693869 
L 74.660086 101.693869 
L 74.665323 101.693869 
L 74.780524 100.661347 
L 74.853835 100.661347 
L 74.916672 99.628825 
L 74.921908 102.726392 
L 74.937618 102.726392 
L 75.05282 105.823959 
L 75.21515 105.823959 
L 75.257041 108.921526 
L 75.325115 107.889004 
L 75.356534 107.889004 
L 75.471736 106.856481 
L 75.592174 106.856481 
L 75.707376 109.954049 
L 75.744031 109.954049 
L 75.859233 108.921526 
L 75.906361 108.921526 
L 75.99538 107.372743 
L 76.000617 110.47031 
L 76.01109 110.47031 
L 76.105346 110.47031 
L 76.220548 113.567877 
L 76.550444 113.567877 
L 76.634227 116.665444 
L 76.660409 115.632922 
L 76.681355 115.632922 
L 76.796557 114.600399 
L 76.833212 114.600399 
L 76.901286 117.697967 
L 76.943177 116.149183 
L 77.472059 116.149183 
L 77.540133 115.116661 
L 77.545369 118.214228 
L 77.555842 118.214228 
L 77.671044 121.311795 
L 78.404146 121.311795 
L 78.524585 119.24675 
L 78.592659 119.24675 
L 78.70786 117.697967 
L 78.807353 117.697967 
L 78.922555 120.795534 
L 79.016811 120.795534 
L 79.063939 123.893101 
L 79.126776 122.344318 
L 79.367653 122.344318 
L 79.482855 121.311795 
L 79.865115 121.311795 
L 79.980317 124.409362 
L 83.75056 124.409362 
L 83.865762 123.37684 
L 87.321818 123.37684 
L 87.437019 122.344318 
L 88.159649 122.344318 
L 88.274851 125.441885 
L 90.903548 125.441885 
L 91.01875 123.893101 
L 94.160619 123.893101 
L 94.275821 126.990668 
L 115.006919 126.990668 
L 115.122121 125.958146 
L 116.96535 125.958146 
L 117.080552 129.055713 
L 117.284774 129.055713 
L 117.399975 132.15328 
L 123.547565 132.15328 
L 123.662767 131.120758 
L 126.778454 131.120758 
L 126.893656 134.218325 
L 134.407959 134.218325 
L 134.523161 137.315892 
L 144.03255 137.315892 
L 144.147752 140.41346 
L 192.84672 140.41346 
L 192.961921 139.380937 
L 210.760609 139.380937 
L 210.87581 137.832154 
L 216.473573 137.832154 
L 216.588775 136.799631 
L 257.380706 136.799631 
L 257.495908 139.897198 
L 369.508769 139.897198 
L 369.623971 138.864676 
L 389.993754 138.864676 
L 390.108956 141.962243 
L 398.487273 141.962243 
L 398.487273 141.962243 
" clip-path="url(#p94528f08d7)" style="fill: none; stroke: #1f77b4; stroke-width: 1.5; stroke-linecap: square"/>
   </g>
   <g id="line2d_13">
    <path d="M 73.832727 75.622679 
L 73.8432 75.622679 
L 73.963638 74.228773 
L 398.487273 74.228773 
L 398.487273 74.228773 
" clip-path="url(#p94528f08d7)" style="fill: none; stroke: #ff7f0e; stroke-width: 1.5; stroke-linecap: square"/>
   </g>
   <g id="line2d_14">
    <path d="M 73.832727 75.622679 
L 73.963638 71.234458 
L 74.00553 71.234458 
L 74.120732 68.136891 
L 74.204515 68.136891 
L 74.319717 67.104369 
L 74.759579 67.104369 
L 74.87478 64.006802 
L 75.147076 64.006802 
L 75.262278 62.458018 
L 76.833212 62.458018 
L 76.948414 59.360451 
L 77.555842 59.360451 
L 77.671044 56.262883 
L 77.938103 56.262883 
L 78.053304 54.7141 
L 105.827425 54.7141 
L 105.942627 53.165316 
L 126.778454 53.165316 
L 126.893656 50.067749 
L 225.4279 50.067749 
L 225.543101 46.970182 
L 398.487273 46.970182 
L 398.487273 46.970182 
" clip-path="url(#p94528f08d7)" style="fill: none; stroke: #2ca02c; stroke-width: 1.5; stroke-linecap: square"/>
   </g>
   <g id="line2d_15">
    <path d="M 73.832727 76.39707 
L 73.837964 76.39707 
L 73.8432 79.494638 
L 73.874619 75.261296 
L 73.947929 78.358863 
L 73.984584 78.358863 
L 74.099786 76.551949 
L 74.204515 76.551949 
L 74.267352 79.649516 
L 74.31448 78.100732 
L 74.356372 78.100732 
L 74.471574 77.06821 
L 74.560594 77.06821 
L 74.681032 75.003165 
L 74.759579 75.003165 
L 74.853835 78.100732 
L 74.869544 77.06821 
L 75.147076 77.06821 
L 75.257041 80.165777 
L 75.382716 76.551949 
L 75.744031 76.551949 
L 75.859233 75.519426 
L 76.634227 75.519426 
L 76.754665 73.454382 
L 76.833212 73.454382 
L 76.948414 76.551949 
L 77.472059 76.551949 
L 77.555842 75.519426 
L 77.561078 78.616994 
L 77.571551 78.616994 
L 77.938103 78.616994 
L 78.053304 81.714561 
L 78.404146 81.714561 
L 78.524585 79.649516 
L 79.367653 79.649516 
L 79.482855 78.616994 
L 83.75056 78.616994 
L 83.865762 77.584471 
L 87.321818 77.584471 
L 87.437019 76.551949 
L 100.009731 76.551949 
L 100.124933 75.003165 
L 105.827425 75.003165 
L 105.942627 78.100732 
L 115.006919 78.100732 
L 115.122121 77.06821 
L 123.547565 77.06821 
L 123.662767 76.035688 
L 126.778454 76.035688 
L 126.893656 79.133255 
L 137.706921 79.133255 
L 137.822123 77.584471 
L 192.84672 77.584471 
L 192.961921 76.551949 
L 216.473573 76.551949 
L 216.588775 75.519426 
L 225.4279 75.519426 
L 225.543101 78.616994 
L 345.761477 78.616994 
L 345.876679 77.06821 
L 398.487273 77.06821 
L 398.487273 77.06821 
" clip-path="url(#p94528f08d7)" style="fill: none; stroke: #d62728; stroke-width: 1.5; stroke-linecap: square"/>
   </g>
   <g id="line2d_16">
    <path d="M 73.832727 76.39707 
L 73.953166 73.815764 
L 75.147076 73.815764 
L 75.262278 72.266981 
L 77.938103 72.266981 
L 78.053304 70.718197 
L 105.827425 70.718197 
L 105.942627 69.169414 
L 398.487273 69.169414 
L 398.487273 69.169414 
" clip-path="url(#p94528f08d7)" style="fill: none; stroke: #9467bd; stroke-width: 1.5; stroke-linecap: square"/>
   </g>
   <g id="line2d_17">
    <path d="M 73.832727 75.622679 
L 73.853673 75.622679 
L 73.974111 73.815764 
L 74.204515 73.815764 
L 74.319717 72.783242 
L 398.487273 72.783242 
L 398.487273 72.783242 
" clip-path="url(#p94528f08d7)" style="fill: none; stroke: #8c564b; stroke-width: 1.5; stroke-linecap: square"/>
   </g>
   <g id="line2d_18">
    <path d="M 73.832727 79.494638 
L 73.8432 79.494638 
L 73.853673 78.875124 
L 73.864146 85.070259 
L 73.937456 81.45643 
L 73.995057 90.749132 
L 74.057895 88.942218 
L 74.194042 88.942218 
L 74.204515 87.909695 
L 74.209752 91.007262 
L 74.293535 91.007262 
L 74.324953 91.007262 
L 74.450628 87.393434 
L 74.665323 87.393434 
L 74.681032 90.491001 
L 74.775288 88.942218 
L 74.853835 88.942218 
L 74.916672 92.039785 
L 74.9638 91.007262 
L 75.356534 91.007262 
L 75.471736 94.10483 
L 75.592174 94.10483 
L 75.707376 93.072307 
L 75.791159 93.072307 
L 75.890651 96.169875 
L 75.901124 94.621091 
L 76.105346 94.621091 
L 76.220548 93.588569 
L 76.513789 93.588569 
L 76.628991 96.686136 
L 76.681355 96.686136 
L 76.796557 99.783703 
L 77.540133 99.783703 
L 77.655334 98.751181 
L 78.404146 98.751181 
L 78.519348 101.848748 
L 83.75056 101.848748 
L 83.865762 104.946315 
L 94.160619 104.946315 
L 94.275821 103.913793 
L 115.006919 103.913793 
L 115.122121 107.01136 
L 123.547565 107.01136 
L 123.662767 110.108927 
L 216.473573 110.108927 
L 216.588775 113.206494 
L 369.508769 113.206494 
L 369.623971 112.173972 
L 398.487273 112.173972 
L 398.487273 112.173972 
" clip-path="url(#p94528f08d7)" style="fill: none; stroke: #e377c2; stroke-width: 1.5; stroke-linecap: square"/>
   </g>
   <g id="line2d_19">
    <path d="M 73.832727 75.622679 
L 73.853673 75.622679 
L 73.995057 70.718197 
L 74.204515 70.718197 
L 74.319717 69.685675 
L 75.791159 69.685675 
L 75.906361 66.588108 
L 76.513789 66.588108 
L 76.628991 63.49054 
L 398.487273 63.49054 
L 398.487273 63.49054 
" clip-path="url(#p94528f08d7)" style="fill: none; stroke: #7f7f7f; stroke-width: 1.5; stroke-linecap: square"/>
   </g>
   <g id="line2d_20">
    <path d="M 73.832727 79.494638 
L 73.837964 79.494638 
L 73.869382 91.265393 
L 73.958402 85.070259 
L 73.984584 85.070259 
L 74.042185 90.491001 
L 74.099786 87.909695 
L 74.194042 87.909695 
L 74.204515 86.877173 
L 74.272589 93.072307 
L 74.277825 93.072307 
L 74.324953 93.072307 
L 74.356372 90.491001 
L 74.361609 93.588569 
L 74.429682 93.588569 
L 74.434919 93.588569 
L 74.560594 89.458479 
L 74.675795 94.10483 
L 74.681032 94.10483 
L 74.759579 92.556046 
L 74.764815 95.653613 
L 74.785761 95.653613 
L 74.853835 95.653613 
L 74.916672 98.751181 
L 74.9638 96.169875 
L 75.047583 96.169875 
L 75.162785 93.072307 
L 75.21515 93.072307 
L 75.257041 89.97474 
L 75.28846 96.169875 
L 75.325115 93.072307 
L 75.356534 93.072307 
L 75.471736 96.169875 
L 75.592174 96.169875 
L 75.707376 95.137352 
L 75.744031 95.137352 
L 75.859233 98.234919 
L 75.890651 98.234919 
L 76.016326 93.588569 
L 76.105346 93.588569 
L 76.220548 92.556046 
L 76.550444 92.556046 
L 76.634227 91.007262 
L 76.639463 94.10483 
L 76.655173 94.10483 
L 76.681355 94.10483 
L 76.796557 97.202397 
L 76.833212 97.202397 
L 76.901286 100.299964 
L 76.922232 95.653613 
L 76.937941 95.653613 
L 77.472059 95.653613 
L 77.587261 100.816225 
L 78.404146 100.816225 
L 78.524585 107.01136 
L 78.592659 107.01136 
L 78.70786 105.462576 
L 78.807353 105.462576 
L 78.922555 102.365009 
L 79.016811 102.365009 
L 79.137249 99.267442 
L 79.367653 99.267442 
L 79.482855 102.365009 
L 79.865115 102.365009 
L 79.980317 99.267442 
L 83.75056 99.267442 
L 83.865762 102.365009 
L 87.321818 102.365009 
L 87.437019 105.462576 
L 88.159649 105.462576 
L 88.274851 102.365009 
L 90.903548 102.365009 
L 91.01875 100.816225 
L 94.160619 100.816225 
L 94.275821 99.783703 
L 100.009731 99.783703 
L 100.124933 102.88127 
L 115.006919 102.88127 
L 115.122121 105.978837 
L 116.96535 105.978837 
L 117.080552 104.430054 
L 117.284774 104.430054 
L 117.399975 101.332487 
L 123.547565 101.332487 
L 123.662767 104.430054 
L 126.778454 104.430054 
L 126.893656 107.527621 
L 134.407959 107.527621 
L 134.523161 104.430054 
L 137.706921 104.430054 
L 137.822123 107.527621 
L 144.03255 107.527621 
L 144.147752 105.978837 
L 192.84672 105.978837 
L 192.961921 109.076405 
L 210.760609 109.076405 
L 210.87581 107.527621 
L 216.473573 107.527621 
L 216.588775 110.625188 
L 225.4279 110.625188 
L 225.543101 113.722755 
L 226.229076 113.722755 
L 226.344278 110.625188 
L 257.380706 110.625188 
L 257.495908 109.076405 
L 345.761477 109.076405 
L 345.876679 112.173972 
L 369.508769 112.173972 
L 369.623971 111.141449 
L 389.993754 111.141449 
L 390.108956 109.592666 
L 398.487273 109.592666 
L 398.487273 109.592666 
" clip-path="url(#p94528f08d7)" style="fill: none; stroke: #bcbd22; stroke-width: 1.5; stroke-linecap: square"/>
   </g>
   <g id="line2d_21">
    <path d="M 73.832727 76.39707 
L 73.968875 91.781654 
L 73.984584 91.781654 
L 74.00553 89.97474 
L 74.052658 94.621091 
L 74.07884 94.621091 
L 74.194042 94.621091 
L 74.204515 93.588569 
L 74.209752 96.686136 
L 74.298771 95.137352 
L 74.324953 95.137352 
L 74.345899 94.10483 
L 74.351136 97.202397 
L 74.429682 96.169875 
L 74.434919 96.169875 
L 74.555357 102.365009 
L 74.560594 102.365009 
L 74.681032 98.751181 
L 74.80147 104.946315 
L 74.853835 104.946315 
L 74.979509 101.332487 
L 75.047583 101.332487 
L 75.168022 107.527621 
L 75.21515 107.527621 
L 75.330351 111.141449 
L 75.356534 111.141449 
L 75.471736 110.108927 
L 75.592174 110.108927 
L 75.707376 109.076405 
L 75.744031 109.076405 
L 75.859233 108.043882 
L 75.890651 108.043882 
L 75.99538 114.239017 
L 76.005853 112.690233 
L 76.105346 112.690233 
L 76.220548 111.657711 
L 76.550444 111.657711 
L 76.665646 109.076405 
L 76.681355 109.076405 
L 76.796557 108.043882 
L 76.833212 108.043882 
L 76.958887 117.336584 
L 77.472059 117.336584 
L 77.555842 115.271539 
L 77.561078 118.369106 
L 77.576788 118.369106 
L 77.938103 118.369106 
L 78.053304 121.466673 
L 78.404146 121.466673 
L 78.524585 119.401629 
L 78.592659 119.401629 
L 78.70786 122.499196 
L 78.807353 122.499196 
L 78.922555 125.596763 
L 79.016811 125.596763 
L 79.063939 124.04798 
L 79.069175 127.145547 
L 79.12154 127.145547 
L 79.367653 127.145547 
L 79.482855 126.113024 
L 79.865115 126.113024 
L 79.980317 129.210592 
L 83.75056 129.210592 
L 83.865762 128.178069 
L 87.321818 128.178069 
L 87.437019 127.145547 
L 88.159649 127.145547 
L 88.274851 130.243114 
L 90.903548 130.243114 
L 91.01875 133.340681 
L 94.160619 133.340681 
L 94.275821 132.308159 
L 100.009731 132.308159 
L 100.124933 130.759375 
L 105.827425 130.759375 
L 105.942627 133.856942 
L 115.006919 133.856942 
L 115.122121 132.82442 
L 116.96535 132.82442 
L 117.080552 131.275636 
L 117.284774 131.275636 
L 117.399975 134.373204 
L 123.547565 134.373204 
L 123.662767 133.340681 
L 126.778454 133.340681 
L 126.893656 136.438248 
L 134.407959 136.438248 
L 134.523161 139.535816 
L 137.706921 139.535816 
L 137.822123 137.987032 
L 144.03255 137.987032 
L 144.147752 136.438248 
L 192.84672 136.438248 
L 192.961921 135.405726 
L 210.760609 135.405726 
L 210.87581 138.503293 
L 216.473573 138.503293 
L 216.588775 137.470771 
L 225.4279 137.470771 
L 225.543101 140.568338 
L 226.229076 140.568338 
L 226.344278 143.665905 
L 257.380706 143.665905 
L 257.495908 142.117122 
L 345.761477 142.117122 
L 345.876679 140.568338 
L 369.508769 140.568338 
L 369.623971 143.665905 
L 389.993754 143.665905 
L 390.108956 142.117122 
L 398.487273 142.117122 
L 398.487273 142.117122 
" clip-path="url(#p94528f08d7)" style="fill: none; stroke: #17becf; stroke-width: 1.5; stroke-linecap: square"/>
   </g>
   <g id="line2d_22">
    <path d="M 73.832727 79.494638 
L 73.853673 79.494638 
L 73.974111 85.689772 
L 74.204515 85.689772 
L 74.319717 88.787339 
L 398.487273 88.787339 
L 398.487273 88.787339 
" clip-path="url(#p94528f08d7)" style="fill: none; stroke: #1f77b4; stroke-width: 1.5; stroke-linecap: square"/>
   </g>
   <g id="line2d_23">
    <path d="M 73.832727 79.494638 
L 73.837964 79.494638 
L 73.984584 101.177608 
L 73.995057 101.177608 
L 74.115495 107.372743 
L 74.194042 107.372743 
L 74.309244 110.47031 
L 74.324953 110.47031 
L 74.440155 113.567877 
L 74.63914 113.567877 
L 74.754342 116.665444 
L 74.916672 116.665444 
L 75.03711 122.860579 
L 75.592174 122.860579 
L 75.707376 125.958146 
L 75.99538 125.958146 
L 76.115819 132.15328 
L 76.550444 132.15328 
L 76.665646 135.250848 
L 77.540133 135.250848 
L 77.655334 138.348415 
L 79.016811 138.348415 
L 79.132013 141.445982 
L 94.160619 141.445982 
L 94.275821 144.543549 
L 116.96535 144.543549 
L 117.080552 147.641117 
L 144.03255 147.641117 
L 144.147752 150.738684 
L 257.380706 150.738684 
L 257.495908 153.836251 
L 389.993754 153.836251 
L 390.108956 156.933818 
L 398.487273 156.933818 
L 398.487273 156.933818 
" clip-path="url(#p94528f08d7)" style="fill: none; stroke: #ff7f0e; stroke-width: 1.5; stroke-linecap: square"/>
   </g>
   <g id="patch_3">
    <path d="M 57.6 162.432 
L 57.6 41.472 
" style="fill: none; stroke: #000000; stroke-width: 0.8; stroke-linejoin: miter; stroke-linecap: square"/>
   </g>
   <g id="patch_4">
    <path d="M 414.72 162.432 
L 414.72 41.472 
" style="fill: none; stroke: #000000; stroke-width: 0.8; stroke-linejoin: miter; stroke-linecap: square"/>
   </g>
   <g id="patch_5">
    <path d="M 57.6 162.432 
L 414.72 162.432 
" style="fill: none; stroke: #000000; stroke-width: 0.8; stroke-linejoin: miter; stroke-linecap: square"/>
   </g>
   <g id="patch_6">
    <path d="M 57.6 41.472 
L 414.72 41.472 
" style="fill: none; stroke: #000000; stroke-width: 0.8; stroke-linejoin: miter; stroke-linecap: square"/>
   </g>
   <g id="text_12">
    <!-- WSP -->
    <g transform="translate(361.832136 141.962243)scale(0.08 -0.08)">
     <defs>
      <path id="DejaVuSans-57" d="M 213 4666 
L 850 4666 
L 1831 722 
L 2809 4666 
L 3519 4666 
L 4500 722 
L 5478 4666 
L 6119 4666 
L 4947 0 
L 4153 0 
L 3169 4050 
L 2175 0 
L 1381 0 
L 213 4666 
z
" transform="scale(0.015625)"/>
      <path id="DejaVuSans-53" d="M 3425 4513 
L 3425 3897 
Q 3066 4069 2747 4153 
Q 2428 4238 2131 4238 
Q 1616 4238 1336 4038 
Q 1056 3838 1056 3469 
Q 1056 3159 1242 3001 
Q 1428 2844 1947 2747 
L 2328 2669 
Q 3034 2534 3370 2195 
Q 3706 1856 3706 1288 
Q 3706 609 3251 259 
Q 2797 -91 1919 -91 
Q 1588 -91 1214 -16 
Q 841 59 441 206 
L 441 856 
Q 825 641 1194 531 
Q 1563 422 1919 422 
Q 2459 422 2753 634 
Q 3047 847 3047 1241 
Q 3047 1584 2836 1778 
Q 2625 1972 2144 2069 
L 1759 2144 
Q 1053 2284 737 2584 
Q 422 2884 422 3419 
Q 422 4038 858 4394 
Q 1294 4750 2059 4750 
Q 2388 4750 2728 4690 
Q 3069 4631 3425 4513 
z
" transform="scale(0.015625)"/>
      <path id="DejaVuSans-50" d="M 1259 4147 
L 1259 2394 
L 2053 2394 
Q 2494 2394 2734 2622 
Q 2975 2850 2975 3272 
Q 2975 3691 2734 3919 
Q 2494 4147 2053 4147 
L 1259 4147 
z
M 628 4666 
L 2053 4666 
Q 2838 4666 3239 4311 
Q 3641 3956 3641 3272 
Q 3641 2581 3239 2228 
Q 2838 1875 2053 1875 
L 1259 1875 
L 1259 0 
L 628 0 
L 628 4666 
z
" transform="scale(0.015625)"/>
     </defs>
     <use xlink:href="#DejaVuSans-57"/>
     <use xlink:href="#DejaVuSans-53" x="98.876953"/>
     <use xlink:href="#DejaVuSans-50" x="162.353516"/>
    </g>
   </g>
   <g id="text_13">
    <!-- Iambic -->
    <g transform="translate(361.832136 74.228773)scale(0.08 -0.08)">
     <defs>
      <path id="DejaVuSans-49" d="M 628 4666 
L 1259 4666 
L 1259 0 
L 628 0 
L 628 4666 
z
" transform="scale(0.015625)"/>
      <path id="DejaVuSans-61" d="M 2194 1759 
Q 1497 1759 1228 1600 
Q 959 1441 959 1056 
Q 959 750 1161 570 
Q 1363 391 1709 391 
Q 2188 391 2477 730 
Q 2766 1069 2766 1631 
L 2766 1759 
L 2194 1759 
z
M 3341 1997 
L 3341 0 
L 2766 0 
L 2766 531 
Q 2569 213 2275 61 
Q 1981 -91 1556 -91 
Q 1019 -91 701 211 
Q 384 513 384 1019 
Q 384 1609 779 1909 
Q 1175 2209 1959 2209 
L 2766 2209 
L 2766 2266 
Q 2766 2663 2505 2880 
Q 2244 3097 1772 3097 
Q 1472 3097 1187 3025 
Q 903 2953 641 2809 
L 641 3341 
Q 956 3463 1253 3523 
Q 1550 3584 1831 3584 
Q 2591 3584 2966 3190 
Q 3341 2797 3341 1997 
z
" transform="scale(0.015625)"/>
      <path id="DejaVuSans-6d" d="M 3328 2828 
Q 3544 3216 3844 3400 
Q 4144 3584 4550 3584 
Q 5097 3584 5394 3201 
Q 5691 2819 5691 2113 
L 5691 0 
L 5113 0 
L 5113 2094 
Q 5113 2597 4934 2840 
Q 4756 3084 4391 3084 
Q 3944 3084 3684 2787 
Q 3425 2491 3425 1978 
L 3425 0 
L 2847 0 
L 2847 2094 
Q 2847 2600 2669 2842 
Q 2491 3084 2119 3084 
Q 1678 3084 1418 2786 
Q 1159 2488 1159 1978 
L 1159 0 
L 581 0 
L 581 3500 
L 1159 3500 
L 1159 2956 
Q 1356 3278 1631 3431 
Q 1906 3584 2284 3584 
Q 2666 3584 2933 3390 
Q 3200 3197 3328 2828 
z
" transform="scale(0.015625)"/>
      <path id="DejaVuSans-62" d="M 3116 1747 
Q 3116 2381 2855 2742 
Q 2594 3103 2138 3103 
Q 1681 3103 1420 2742 
Q 1159 2381 1159 1747 
Q 1159 1113 1420 752 
Q 1681 391 2138 391 
Q 2594 391 2855 752 
Q 3116 1113 3116 1747 
z
M 1159 2969 
Q 1341 3281 1617 3432 
Q 1894 3584 2278 3584 
Q 2916 3584 3314 3078 
Q 3713 2572 3713 1747 
Q 3713 922 3314 415 
Q 2916 -91 2278 -91 
Q 1894 -91 1617 61 
Q 1341 213 1159 525 
L 1159 0 
L 581 0 
L 581 4863 
L 1159 4863 
L 1159 2969 
z
" transform="scale(0.015625)"/>
      <path id="DejaVuSans-69" d="M 603 3500 
L 1178 3500 
L 1178 0 
L 603 0 
L 603 3500 
z
M 603 4863 
L 1178 4863 
L 1178 4134 
L 603 4134 
L 603 4863 
z
" transform="scale(0.015625)"/>
      <path id="DejaVuSans-63" d="M 3122 3366 
L 3122 2828 
Q 2878 2963 2633 3030 
Q 2388 3097 2138 3097 
Q 1578 3097 1268 2742 
Q 959 2388 959 1747 
Q 959 1106 1268 751 
Q 1578 397 2138 397 
Q 2388 397 2633 464 
Q 2878 531 3122 666 
L 3122 134 
Q 2881 22 2623 -34 
Q 2366 -91 2075 -91 
Q 1284 -91 818 406 
Q 353 903 353 1747 
Q 353 2603 823 3093 
Q 1294 3584 2113 3584 
Q 2378 3584 2631 3529 
Q 2884 3475 3122 3366 
z
" transform="scale(0.015625)"/>
     </defs>
     <use xlink:href="#DejaVuSans-49"/>
     <use xlink:href="#DejaVuSans-61" x="29.492188"/>
     <use xlink:href="#DejaVuSans-6d" x="90.771484"/>
     <use xlink:href="#DejaVuSans-62" x="188.183594"/>
     <use xlink:href="#DejaVuSans-69" x="251.660156"/>
     <use xlink:href="#DejaVuSans-63" x="279.443359"/>
    </g>
   </g>
   <g id="text_14">
    <!-- Parse -->
    <g transform="translate(361.832136 46.970182)scale(0.08 -0.08)">
     <defs>
      <path id="DejaVuSans-72" d="M 2631 2963 
Q 2534 3019 2420 3045 
Q 2306 3072 2169 3072 
Q 1681 3072 1420 2755 
Q 1159 2438 1159 1844 
L 1159 0 
L 581 0 
L 581 3500 
L 1159 3500 
L 1159 2956 
Q 1341 3275 1631 3429 
Q 1922 3584 2338 3584 
Q 2397 3584 2469 3576 
Q 2541 3569 2628 3553 
L 2631 2963 
z
" transform="scale(0.015625)"/>
      <path id="DejaVuSans-73" d="M 2834 3397 
L 2834 2853 
Q 2591 2978 2328 3040 
Q 2066 3103 1784 3103 
Q 1356 3103 1142 2972 
Q 928 2841 928 2578 
Q 928 2378 1081 2264 
Q 1234 2150 1697 2047 
L 1894 2003 
Q 2506 1872 2764 1633 
Q 3022 1394 3022 966 
Q 3022 478 2636 193 
Q 2250 -91 1575 -91 
Q 1294 -91 989 -36 
Q 684 19 347 128 
L 347 722 
Q 666 556 975 473 
Q 1284 391 1588 391 
Q 1994 391 2212 530 
Q 2431 669 2431 922 
Q 2431 1156 2273 1281 
Q 2116 1406 1581 1522 
L 1381 1569 
Q 847 1681 609 1914 
Q 372 2147 372 2553 
Q 372 3047 722 3315 
Q 1072 3584 1716 3584 
Q 2034 3584 2315 3537 
Q 2597 3491 2834 3397 
z
" transform="scale(0.015625)"/>
      <path id="DejaVuSans-65" d="M 3597 1894 
L 3597 1613 
L 953 1613 
Q 991 1019 1311 708 
Q 1631 397 2203 397 
Q 2534 397 2845 478 
Q 3156 559 3463 722 
L 3463 178 
Q 3153 47 2828 -22 
Q 2503 -91 2169 -91 
Q 1331 -91 842 396 
Q 353 884 353 1716 
Q 353 2575 817 3079 
Q 1281 3584 2069 3584 
Q 2775 3584 3186 3129 
Q 3597 2675 3597 1894 
z
M 3022 2063 
Q 3016 2534 2758 2815 
Q 2500 3097 2075 3097 
Q 1594 3097 1305 2825 
Q 1016 2553 972 2059 
L 3022 2063 
z
" transform="scale(0.015625)"/>
     </defs>
     <use xlink:href="#DejaVuSans-50"/>
     <use xlink:href="#DejaVuSans-61" x="55.802734"/>
     <use xlink:href="#DejaVuSans-72" x="117.082031"/>
     <use xlink:href="#DejaVuSans-73" x="158.195312"/>
     <use xlink:href="#DejaVuSans-65" x="210.294922"/>
    </g>
   </g>
   <g id="text_15">
    <!-- FootBin -->
    <g transform="translate(361.832136 77.06821)scale(0.08 -0.08)">
     <defs>
      <path id="DejaVuSans-46" d="M 628 4666 
L 3309 4666 
L 3309 4134 
L 1259 4134 
L 1259 2759 
L 3109 2759 
L 3109 2228 
L 1259 2228 
L 1259 0 
L 628 0 
L 628 4666 
z
" transform="scale(0.015625)"/>
      <path id="DejaVuSans-6f" d="M 1959 3097 
Q 1497 3097 1228 2736 
Q 959 2375 959 1747 
Q 959 1119 1226 758 
Q 1494 397 1959 397 
Q 2419 397 2687 759 
Q 2956 1122 2956 1747 
Q 2956 2369 2687 2733 
Q 2419 3097 1959 3097 
z
M 1959 3584 
Q 2709 3584 3137 3096 
Q 3566 2609 3566 1747 
Q 3566 888 3137 398 
Q 2709 -91 1959 -91 
Q 1206 -91 779 398 
Q 353 888 353 1747 
Q 353 2609 779 3096 
Q 1206 3584 1959 3584 
z
" transform="scale(0.015625)"/>
      <path id="DejaVuSans-74" d="M 1172 4494 
L 1172 3500 
L 2356 3500 
L 2356 3053 
L 1172 3053 
L 1172 1153 
Q 1172 725 1289 603 
Q 1406 481 1766 481 
L 2356 481 
L 2356 0 
L 1766 0 
Q 1100 0 847 248 
Q 594 497 594 1153 
L 594 3053 
L 172 3053 
L 172 3500 
L 594 3500 
L 594 4494 
L 1172 4494 
z
" transform="scale(0.015625)"/>
      <path id="DejaVuSans-42" d="M 1259 2228 
L 1259 519 
L 2272 519 
Q 2781 519 3026 730 
Q 3272 941 3272 1375 
Q 3272 1813 3026 2020 
Q 2781 2228 2272 2228 
L 1259 2228 
z
M 1259 4147 
L 1259 2741 
L 2194 2741 
Q 2656 2741 2882 2914 
Q 3109 3088 3109 3444 
Q 3109 3797 2882 3972 
Q 2656 4147 2194 4147 
L 1259 4147 
z
M 628 4666 
L 2241 4666 
Q 2963 4666 3353 4366 
Q 3744 4066 3744 3513 
Q 3744 3084 3544 2831 
Q 3344 2578 2956 2516 
Q 3422 2416 3680 2098 
Q 3938 1781 3938 1306 
Q 3938 681 3513 340 
Q 3088 0 2303 0 
L 628 0 
L 628 4666 
z
" transform="scale(0.015625)"/>
      <path id="DejaVuSans-6e" d="M 3513 2113 
L 3513 0 
L 2938 0 
L 2938 2094 
Q 2938 2591 2744 2837 
Q 2550 3084 2163 3084 
Q 1697 3084 1428 2787 
Q 1159 2491 1159 1978 
L 1159 0 
L 581 0 
L 581 3500 
L 1159 3500 
L 1159 2956 
Q 1366 3272 1645 3428 
Q 1925 3584 2291 3584 
Q 2894 3584 3203 3211 
Q 3513 2838 3513 2113 
z
" transform="scale(0.015625)"/>
     </defs>
     <use xlink:href="#DejaVuSans-46"/>
     <use xlink:href="#DejaVuSans-6f" x="53.894531"/>
     <use xlink:href="#DejaVuSans-6f" x="115.076172"/>
     <use xlink:href="#DejaVuSans-74" x="176.257812"/>
     <use xlink:href="#DejaVuSans-42" x="215.466797"/>
     <use xlink:href="#DejaVuSans-69" x="284.070312"/>
     <use xlink:href="#DejaVuSans-6e" x="311.853516"/>
    </g>
   </g>
   <g id="text_16">
    <!-- WFL -->
    <g transform="translate(361.832136 69.169414)scale(0.08 -0.08)">
     <defs>
      <path id="DejaVuSans-4c" d="M 628 4666 
L 1259 4666 
L 1259 531 
L 3531 531 
L 3531 0 
L 628 0 
L 628 4666 
z
" transform="scale(0.015625)"/>
     </defs>
     <use xlink:href="#DejaVuSans-57"/>
     <use xlink:href="#DejaVuSans-46" x="98.876953"/>
     <use xlink:href="#DejaVuSans-4c" x="156.396484"/>
    </g>
   </g>
   <g id="text_17">
    <!-- WFR -->
    <g transform="translate(361.832136 72.783242)scale(0.08 -0.08)">
     <defs>
      <path id="DejaVuSans-52" d="M 2841 2188 
Q 3044 2119 3236 1894 
Q 3428 1669 3622 1275 
L 4263 0 
L 3584 0 
L 2988 1197 
Q 2756 1666 2539 1819 
Q 2322 1972 1947 1972 
L 1259 1972 
L 1259 0 
L 628 0 
L 628 4666 
L 2053 4666 
Q 2853 4666 3247 4331 
Q 3641 3997 3641 3322 
Q 3641 2881 3436 2590 
Q 3231 2300 2841 2188 
z
M 1259 4147 
L 1259 2491 
L 2053 2491 
Q 2509 2491 2742 2702 
Q 2975 2913 2975 3322 
Q 2975 3731 2742 3939 
Q 2509 4147 2053 4147 
L 1259 4147 
z
" transform="scale(0.015625)"/>
     </defs>
     <use xlink:href="#DejaVuSans-57"/>
     <use xlink:href="#DejaVuSans-46" x="98.876953"/>
     <use xlink:href="#DejaVuSans-52" x="156.396484"/>
    </g>
   </g>
   <g id="text_18">
    <!-- Main-L -->
    <g transform="translate(361.832136 112.173972)scale(0.08 -0.08)">
     <defs>
      <path id="DejaVuSans-4d" d="M 628 4666 
L 1569 4666 
L 2759 1491 
L 3956 4666 
L 4897 4666 
L 4897 0 
L 4281 0 
L 4281 4097 
L 3078 897 
L 2444 897 
L 1241 4097 
L 1241 0 
L 628 0 
L 628 4666 
z
" transform="scale(0.015625)"/>
      <path id="DejaVuSans-2d" d="M 313 2009 
L 1997 2009 
L 1997 1497 
L 313 1497 
L 313 2009 
z
" transform="scale(0.015625)"/>
     </defs>
     <use xlink:href="#DejaVuSans-4d"/>
     <use xlink:href="#DejaVuSans-61" x="86.279297"/>
     <use xlink:href="#DejaVuSans-69" x="147.558594"/>
     <use xlink:href="#DejaVuSans-6e" x="175.341797"/>
     <use xlink:href="#DejaVuSans-2d" x="238.720703"/>
     <use xlink:href="#DejaVuSans-4c" x="274.804688"/>
    </g>
   </g>
   <g id="text_19">
    <!-- Main-R -->
    <g transform="translate(361.832136 63.49054)scale(0.08 -0.08)">
     <use xlink:href="#DejaVuSans-4d"/>
     <use xlink:href="#DejaVuSans-61" x="86.279297"/>
     <use xlink:href="#DejaVuSans-69" x="147.558594"/>
     <use xlink:href="#DejaVuSans-6e" x="175.341797"/>
     <use xlink:href="#DejaVuSans-2d" x="238.720703"/>
     <use xlink:href="#DejaVuSans-52" x="274.804688"/>
    </g>
   </g>
   <g id="text_20">
    <!-- AFL -->
    <g transform="translate(361.832136 109.592666)scale(0.08 -0.08)">
     <defs>
      <path id="DejaVuSans-41" d="M 2188 4044 
L 1331 1722 
L 3047 1722 
L 2188 4044 
z
M 1831 4666 
L 2547 4666 
L 4325 0 
L 3669 0 
L 3244 1197 
L 1141 1197 
L 716 0 
L 50 0 
L 1831 4666 
z
" transform="scale(0.015625)"/>
     </defs>
     <use xlink:href="#DejaVuSans-41"/>
     <use xlink:href="#DejaVuSans-46" x="68.408203"/>
     <use xlink:href="#DejaVuSans-4c" x="125.927734"/>
    </g>
   </g>
   <g id="text_21">
    <!-- AFR -->
    <g transform="translate(361.832136 142.117122)scale(0.08 -0.08)">
     <use xlink:href="#DejaVuSans-41"/>
     <use xlink:href="#DejaVuSans-46" x="68.408203"/>
     <use xlink:href="#DejaVuSans-52" x="125.927734"/>
    </g>
   </g>
   <g id="text_22">
    <!-- Nonfinal -->
    <g transform="translate(361.832136 88.787339)scale(0.08 -0.08)">
     <defs>
      <path id="DejaVuSans-4e" d="M 628 4666 
L 1478 4666 
L 3547 763 
L 3547 4666 
L 4159 4666 
L 4159 0 
L 3309 0 
L 1241 3903 
L 1241 0 
L 628 0 
L 628 4666 
z
" transform="scale(0.015625)"/>
      <path id="DejaVuSans-66" d="M 2375 4863 
L 2375 4384 
L 1825 4384 
Q 1516 4384 1395 4259 
Q 1275 4134 1275 3809 
L 1275 3500 
L 2222 3500 
L 2222 3053 
L 1275 3053 
L 1275 0 
L 697 0 
L 697 3053 
L 147 3053 
L 147 3500 
L 697 3500 
L 697 3744 
Q 697 4328 969 4595 
Q 1241 4863 1831 4863 
L 2375 4863 
z
" transform="scale(0.015625)"/>
      <path id="DejaVuSans-6c" d="M 603 4863 
L 1178 4863 
L 1178 0 
L 603 0 
L 603 4863 
z
" transform="scale(0.015625)"/>
     </defs>
     <use xlink:href="#DejaVuSans-4e"/>
     <use xlink:href="#DejaVuSans-6f" x="74.804688"/>
     <use xlink:href="#DejaVuSans-6e" x="135.986328"/>
     <use xlink:href="#DejaVuSans-66" x="199.365234"/>
     <use xlink:href="#DejaVuSans-69" x="234.570312"/>
     <use xlink:href="#DejaVuSans-6e" x="262.353516"/>
     <use xlink:href="#DejaVuSans-61" x="325.732422"/>
     <use xlink:href="#DejaVuSans-6c" x="387.011719"/>
    </g>
   </g>
   <g id="text_23">
    <!-- Trochaic -->
    <g transform="translate(361.832136 156.933818)scale(0.08 -0.08)">
     <defs>
      <path id="DejaVuSans-54" d="M -19 4666 
L 3928 4666 
L 3928 4134 
L 2272 4134 
L 2272 0 
L 1638 0 
L 1638 4134 
L -19 4134 
L -19 4666 
z
" transform="scale(0.015625)"/>
      <path id="DejaVuSans-68" d="M 3513 2113 
L 3513 0 
L 2938 0 
L 2938 2094 
Q 2938 2591 2744 2837 
Q 2550 3084 2163 3084 
Q 1697 3084 1428 2787 
Q 1159 2491 1159 1978 
L 1159 0 
L 581 0 
L 581 4863 
L 1159 4863 
L 1159 2956 
Q 1366 3272 1645 3428 
Q 1925 3584 2291 3584 
Q 2894 3584 3203 3211 
Q 3513 2838 3513 2113 
z
" transform="scale(0.015625)"/>
     </defs>
     <use xlink:href="#DejaVuSans-54"/>
     <use xlink:href="#DejaVuSans-72" x="46.333984"/>
     <use xlink:href="#DejaVuSans-6f" x="85.197266"/>
     <use xlink:href="#DejaVuSans-63" x="146.378906"/>
     <use xlink:href="#DejaVuSans-68" x="201.359375"/>
     <use xlink:href="#DejaVuSans-61" x="264.738281"/>
     <use xlink:href="#DejaVuSans-69" x="326.017578"/>
     <use xlink:href="#DejaVuSans-63" x="353.800781"/>
    </g>
   </g>
  </g>
  <g id="axes_2">
   <g id="patch_7">
    <path d="M 57.6 307.584 
L 414.72 307.584 
L 414.72 186.624 
L 57.6 186.624 
z
" style="fill: #ffffff"/>
   </g>
   <g id="matplotlib.axis_3">
    <g id="xtick_8">
     <g id="line2d_24">
      <g>
       <use xlink:href="#me55df1cc56" x="70.265095" y="307.584" style="stroke: #000000; stroke-width: 0.8"/>
      </g>
     </g>
     <g id="text_24">
      <!-- 0 -->
      <g transform="translate(67.083845 322.182437)scale(0.1 -0.1)">
       <use xlink:href="#DejaVuSans-30"/>
      </g>
     </g>
    </g>
    <g id="xtick_9">
     <g id="line2d_25">
      <g>
       <use xlink:href="#me55df1cc56" x="141.617742" y="307.584" style="stroke: #000000; stroke-width: 0.8"/>
      </g>
     </g>
     <g id="text_25">
      <!-- 20 -->
      <g transform="translate(135.255242 322.182437)scale(0.1 -0.1)">
       <use xlink:href="#DejaVuSans-32"/>
       <use xlink:href="#DejaVuSans-30" x="63.623047"/>
      </g>
     </g>
    </g>
    <g id="xtick_10">
     <g id="line2d_26">
      <g>
       <use xlink:href="#me55df1cc56" x="212.97039" y="307.584" style="stroke: #000000; stroke-width: 0.8"/>
      </g>
     </g>
     <g id="text_26">
      <!-- 40 -->
      <g transform="translate(206.60789 322.182437)scale(0.1 -0.1)">
       <use xlink:href="#DejaVuSans-34"/>
       <use xlink:href="#DejaVuSans-30" x="63.623047"/>
      </g>
     </g>
    </g>
    <g id="xtick_11">
     <g id="line2d_27">
      <g>
       <use xlink:href="#me55df1cc56" x="284.323037" y="307.584" style="stroke: #000000; stroke-width: 0.8"/>
      </g>
     </g>
     <g id="text_27">
      <!-- 60 -->
      <g transform="translate(277.960537 322.182437)scale(0.1 -0.1)">
       <use xlink:href="#DejaVuSans-36"/>
       <use xlink:href="#DejaVuSans-30" x="63.623047"/>
      </g>
     </g>
    </g>
    <g id="xtick_12">
     <g id="line2d_28">
      <g>
       <use xlink:href="#me55df1cc56" x="355.675684" y="307.584" style="stroke: #000000; stroke-width: 0.8"/>
      </g>
     </g>
     <g id="text_28">
      <!-- 80 -->
      <g transform="translate(349.313184 322.182437)scale(0.1 -0.1)">
       <use xlink:href="#DejaVuSans-38"/>
       <use xlink:href="#DejaVuSans-30" x="63.623047"/>
      </g>
     </g>
    </g>
   </g>
   <g id="matplotlib.axis_4">
    <g id="ytick_5">
     <g id="line2d_29">
      <g>
       <use xlink:href="#m4fc92c4b6b" x="57.6" y="302.092334" style="stroke: #000000; stroke-width: 0.8"/>
      </g>
     </g>
     <g id="text_29">
      <!-- 0 -->
      <g transform="translate(44.2375 305.891553)scale(0.1 -0.1)">
       <use xlink:href="#DejaVuSans-30"/>
      </g>
     </g>
    </g>
    <g id="ytick_6">
     <g id="line2d_30">
      <g>
       <use xlink:href="#m4fc92c4b6b" x="57.6" y="269.514377" style="stroke: #000000; stroke-width: 0.8"/>
      </g>
     </g>
     <g id="text_30">
      <!-- 5000 -->
      <g transform="translate(25.15 273.313595)scale(0.1 -0.1)">
       <use xlink:href="#DejaVuSans-35"/>
       <use xlink:href="#DejaVuSans-30" x="63.623047"/>
       <use xlink:href="#DejaVuSans-30" x="127.246094"/>
       <use xlink:href="#DejaVuSans-30" x="190.869141"/>
      </g>
     </g>
    </g>
    <g id="ytick_7">
     <g id="line2d_31">
      <g>
       <use xlink:href="#m4fc92c4b6b" x="57.6" y="236.93642" style="stroke: #000000; stroke-width: 0.8"/>
      </g>
     </g>
     <g id="text_31">
      <!-- 10000 -->
      <g transform="translate(18.7875 240.735638)scale(0.1 -0.1)">
       <use xlink:href="#DejaVuSans-31"/>
       <use xlink:href="#DejaVuSans-30" x="63.623047"/>
       <use xlink:href="#DejaVuSans-30" x="127.246094"/>
       <use xlink:href="#DejaVuSans-30" x="190.869141"/>
       <use xlink:href="#DejaVuSans-30" x="254.492188"/>
      </g>
     </g>
    </g>
    <g id="ytick_8">
     <g id="line2d_32">
      <g>
       <use xlink:href="#m4fc92c4b6b" x="57.6" y="204.358463" style="stroke: #000000; stroke-width: 0.8"/>
      </g>
     </g>
     <g id="text_32">
      <!-- 15000 -->
      <g transform="translate(18.7875 208.157681)scale(0.1 -0.1)">
       <use xlink:href="#DejaVuSans-31"/>
       <use xlink:href="#DejaVuSans-35" x="63.623047"/>
       <use xlink:href="#DejaVuSans-30" x="127.246094"/>
       <use xlink:href="#DejaVuSans-30" x="190.869141"/>
       <use xlink:href="#DejaVuSans-30" x="254.492188"/>
      </g>
     </g>
    </g>
   </g>
   <g id="line2d_33">
    <path d="M 73.832727 302.085818 
L 77.40036 302.085818 
L 80.967992 302.085818 
L 84.535624 302.085818 
L 88.103257 302.085818 
L 91.670889 302.085818 
L 95.238521 302.079303 
L 98.806154 302.072787 
L 102.373786 302.085818 
L 105.941419 302.085818 
L 109.509051 302.085818 
L 113.076683 302.085818 
L 116.644316 302.05324 
L 120.211948 302.085818 
L 123.77958 302.040209 
L 127.347213 302.079303 
L 130.914845 302.079303 
L 134.482478 302.046725 
L 138.05011 302.085818 
L 141.617742 301.909897 
L 145.185375 302.079303 
L 148.753007 302.014147 
L 152.320639 302.020662 
L 155.888272 302.066271 
L 159.455904 302.079303 
L 163.023536 301.9946 
L 166.591169 302.079303 
L 170.158801 301.948991 
L 173.726434 301.9946 
L 177.294066 302.059756 
L 180.861698 302.072787 
L 184.429331 301.9946 
L 187.996963 301.975053 
L 191.564595 302.014147 
L 195.132228 302.066271 
L 198.69986 301.955506 
L 202.267493 301.968538 
L 205.835125 302.007631 
L 209.402757 302.040209 
L 212.97039 302.059756 
L 216.538022 302.066271 
L 220.105654 302.027178 
L 223.673287 301.799132 
L 227.240919 301.903382 
L 230.808551 302.033693 
L 234.376184 301.968538 
L 237.943816 302.072787 
L 241.511449 301.981569 
L 245.079081 301.955506 
L 248.646713 301.584118 
L 252.214346 302.046725 
L 255.781978 301.988084 
L 259.34961 302.033693 
L 262.917243 301.903382 
L 266.484875 302.007631 
L 270.052507 302.072787 
L 273.62014 301.401681 
L 277.187772 302.007631 
L 280.755405 302.072787 
L 284.323037 301.616696 
L 287.890669 301.512446 
L 291.458302 302.020662 
L 295.025934 301.929444 
L 298.593566 301.825195 
L 302.161199 301.83171 
L 305.728831 302.033693 
L 309.296464 301.714429 
L 312.864096 301.473353 
L 316.431728 297.257765 
L 319.999361 297.6487 
L 323.566993 301.049839 
L 327.134625 298.678164 
L 330.702258 298.039636 
L 334.26989 294.814418 
L 337.837522 294.853512 
L 341.405155 290.670502 
L 344.972787 299.655503 
L 348.54042 301.694883 
L 352.108052 294.299686 
L 355.675684 298.072214 
L 359.243317 292.599117 
L 362.810949 297.987511 
L 366.378581 294.221499 
L 369.946214 241.353991 
L 373.513846 279.802496 
L 377.081479 294.983824 
L 380.649111 290.950672 
L 384.216743 301.095448 
L 387.784376 263.33108 
L 391.352008 192.122182 
L 394.91964 272.544127 
L 398.487273 276.60334 
" clip-path="url(#p80466bcb07)" style="fill: none; stroke: #1f77b4; stroke-width: 1.5; stroke-linecap: square"/>
   </g>
   <g id="patch_8">
    <path d="M 57.6 307.584 
L 57.6 186.624 
" style="fill: none; stroke: #000000; stroke-width: 0.8; stroke-linejoin: miter; stroke-linecap: square"/>
   </g>
   <g id="patch_9">
    <path d="M 414.72 307.584 
L 414.72 186.624 
" style="fill: none; stroke: #000000; stroke-width: 0.8; stroke-linejoin: miter; stroke-linecap: square"/>
   </g>
   <g id="patch_10">
    <path d="M 57.6 307.584 
L 414.72 307.584 
" style="fill: none; stroke: #000000; stroke-width: 0.8; stroke-linejoin: miter; stroke-linecap: square"/>
   </g>
   <g id="patch_11">
    <path d="M 57.6 186.624 
L 414.72 186.624 
" style="fill: none; stroke: #000000; stroke-width: 0.8; stroke-linejoin: miter; stroke-linecap: square"/>
   </g>
  </g>
 </g>
 <defs>
  <clipPath id="p94528f08d7">
   <rect x="57.6" y="41.472" width="357.12" height="120.96"/>
  </clipPath>
  <clipPath id="p80466bcb07">
   <rect x="57.6" y="186.624" width="357.12" height="120.96"/>
  </clipPath>
 </defs>
</svg>
