<?xml version="1.0" encoding="utf-8" standalone="no"?>
<!DOCTYPE svg PUBLIC "-//W3C//DTD SVG 1.1//EN"
  "http://www.w3.org/Graphics/SVG/1.1/DTD/svg11.dtd">
<svg xmlns:xlink="http://www.w3.org/1999/xlink" width="460.8pt" height="345.6pt" viewBox="0 0 460.8 345.6" xmlns="http://www.w3.org/2000/svg" version="1.1">
 <metadata>
  <rdf:RDF xmlns:dc="http://purl.org/dc/elements/1.1/" xmlns:cc="http://creativecommons.org/ns#" xmlns:rdf="http://www.w3.org/1999/02/22-rdf-syntax-ns#">
   <cc:Work>
    <dc:type rdf:resource="http://purl.org/dc/dcmitype/StillImage"/>
    <dc:date>2022-05-14T02:15:17.101732</dc:date>
    <dc:format>image/svg+xml</dc:format>
    <dc:creator>
     <cc:Agent>
      <dc:title>Matplotlib v3.5.1, https://matplotlib.org/</dc:title>
     </cc:Agent>
    </dc:creator>
   </cc:Work>
  </rdf:RDF>
 </metadata>
 <defs>
  <style type="text/css">*{stroke-linejoin: round; stroke-linecap: butt}</style>
 </defs>
 <g id="figure_1">
  <g id="patch_1">
   <path d="M 0 345.6 
L 460.8 345.6 
L 460.8 0 
L 0 0 
z
" style="fill: #ffffff"/>
  </g>
  <g id="axes_1">
   <g id="patch_2">
    <path d="M 57.6 162.432 
L 414.72 162.432 
L 414.72 41.472 
L 57.6 41.472 
z
" style="fill: #ffffff"/>
   </g>
   <g id="matplotlib.axis_1">
    <g id="xtick_1">
     <g id="line2d_1">
      <defs>
       <path id="m23b42bc68c" d="M 0 0 
L 0 3.5 
" style="stroke: #000000; stroke-width: 0.8"/>
      </defs>
      <g>
       <use xlink:href="#m23b42bc68c" x="73.827491" y="162.432" style="stroke: #000000; stroke-width: 0.8"/>
      </g>
     </g>
     <g id="text_1">
      <!-- 0 -->
      <g transform="translate(70.646241 177.030437)scale(0.1 -0.1)">
       <defs>
        <path id="DejaVuSans-30" d="M 2034 4250 
Q 1547 4250 1301 3770 
Q 1056 3291 1056 2328 
Q 1056 1369 1301 889 
Q 1547 409 2034 409 
Q 2525 409 2770 889 
Q 3016 1369 3016 2328 
Q 3016 3291 2770 3770 
Q 2525 4250 2034 4250 
z
M 2034 4750 
Q 2819 4750 3233 4129 
Q 3647 3509 3647 2328 
Q 3647 1150 3233 529 
Q 2819 -91 2034 -91 
Q 1250 -91 836 529 
Q 422 1150 422 2328 
Q 422 3509 836 4129 
Q 1250 4750 2034 4750 
z
" transform="scale(0.015625)"/>
       </defs>
       <use xlink:href="#DejaVuSans-30"/>
      </g>
     </g>
    </g>
    <g id="xtick_2">
     <g id="line2d_2">
      <g>
       <use xlink:href="#m23b42bc68c" x="126.191972" y="162.432" style="stroke: #000000; stroke-width: 0.8"/>
      </g>
     </g>
     <g id="text_2">
      <!-- 10000 -->
      <g transform="translate(110.285722 177.030437)scale(0.1 -0.1)">
       <defs>
        <path id="DejaVuSans-31" d="M 794 531 
L 1825 531 
L 1825 4091 
L 703 3866 
L 703 4441 
L 1819 4666 
L 2450 4666 
L 2450 531 
L 3481 531 
L 3481 0 
L 794 0 
L 794 531 
z
" transform="scale(0.015625)"/>
       </defs>
       <use xlink:href="#DejaVuSans-31"/>
       <use xlink:href="#DejaVuSans-30" x="63.623047"/>
       <use xlink:href="#DejaVuSans-30" x="127.246094"/>
       <use xlink:href="#DejaVuSans-30" x="190.869141"/>
       <use xlink:href="#DejaVuSans-30" x="254.492188"/>
      </g>
     </g>
    </g>
    <g id="xtick_3">
     <g id="line2d_3">
      <g>
       <use xlink:href="#m23b42bc68c" x="178.556453" y="162.432" style="stroke: #000000; stroke-width: 0.8"/>
      </g>
     </g>
     <g id="text_3">
      <!-- 20000 -->
      <g transform="translate(162.650203 177.030437)scale(0.1 -0.1)">
       <defs>
        <path id="DejaVuSans-32" d="M 1228 531 
L 3431 531 
L 3431 0 
L 469 0 
L 469 531 
Q 828 903 1448 1529 
Q 2069 2156 2228 2338 
Q 2531 2678 2651 2914 
Q 2772 3150 2772 3378 
Q 2772 3750 2511 3984 
Q 2250 4219 1831 4219 
Q 1534 4219 1204 4116 
Q 875 4013 500 3803 
L 500 4441 
Q 881 4594 1212 4672 
Q 1544 4750 1819 4750 
Q 2544 4750 2975 4387 
Q 3406 4025 3406 3419 
Q 3406 3131 3298 2873 
Q 3191 2616 2906 2266 
Q 2828 2175 2409 1742 
Q 1991 1309 1228 531 
z
" transform="scale(0.015625)"/>
       </defs>
       <use xlink:href="#DejaVuSans-32"/>
       <use xlink:href="#DejaVuSans-30" x="63.623047"/>
       <use xlink:href="#DejaVuSans-30" x="127.246094"/>
       <use xlink:href="#DejaVuSans-30" x="190.869141"/>
       <use xlink:href="#DejaVuSans-30" x="254.492188"/>
      </g>
     </g>
    </g>
    <g id="xtick_4">
     <g id="line2d_4">
      <g>
       <use xlink:href="#m23b42bc68c" x="230.920934" y="162.432" style="stroke: #000000; stroke-width: 0.8"/>
      </g>
     </g>
     <g id="text_4">
      <!-- 30000 -->
      <g transform="translate(215.014684 177.030437)scale(0.1 -0.1)">
       <defs>
        <path id="DejaVuSans-33" d="M 2597 2516 
Q 3050 2419 3304 2112 
Q 3559 1806 3559 1356 
Q 3559 666 3084 287 
Q 2609 -91 1734 -91 
Q 1441 -91 1130 -33 
Q 819 25 488 141 
L 488 750 
Q 750 597 1062 519 
Q 1375 441 1716 441 
Q 2309 441 2620 675 
Q 2931 909 2931 1356 
Q 2931 1769 2642 2001 
Q 2353 2234 1838 2234 
L 1294 2234 
L 1294 2753 
L 1863 2753 
Q 2328 2753 2575 2939 
Q 2822 3125 2822 3475 
Q 2822 3834 2567 4026 
Q 2313 4219 1838 4219 
Q 1578 4219 1281 4162 
Q 984 4106 628 3988 
L 628 4550 
Q 988 4650 1302 4700 
Q 1616 4750 1894 4750 
Q 2613 4750 3031 4423 
Q 3450 4097 3450 3541 
Q 3450 3153 3228 2886 
Q 3006 2619 2597 2516 
z
" transform="scale(0.015625)"/>
       </defs>
       <use xlink:href="#DejaVuSans-33"/>
       <use xlink:href="#DejaVuSans-30" x="63.623047"/>
       <use xlink:href="#DejaVuSans-30" x="127.246094"/>
       <use xlink:href="#DejaVuSans-30" x="190.869141"/>
       <use xlink:href="#DejaVuSans-30" x="254.492188"/>
      </g>
     </g>
    </g>
    <g id="xtick_5">
     <g id="line2d_5">
      <g>
       <use xlink:href="#m23b42bc68c" x="283.285415" y="162.432" style="stroke: #000000; stroke-width: 0.8"/>
      </g>
     </g>
     <g id="text_5">
      <!-- 40000 -->
      <g transform="translate(267.379165 177.030437)scale(0.1 -0.1)">
       <defs>
        <path id="DejaVuSans-34" d="M 2419 4116 
L 825 1625 
L 2419 1625 
L 2419 4116 
z
M 2253 4666 
L 3047 4666 
L 3047 1625 
L 3713 1625 
L 3713 1100 
L 3047 1100 
L 3047 0 
L 2419 0 
L 2419 1100 
L 313 1100 
L 313 1709 
L 2253 4666 
z
" transform="scale(0.015625)"/>
       </defs>
       <use xlink:href="#DejaVuSans-34"/>
       <use xlink:href="#DejaVuSans-30" x="63.623047"/>
       <use xlink:href="#DejaVuSans-30" x="127.246094"/>
       <use xlink:href="#DejaVuSans-30" x="190.869141"/>
       <use xlink:href="#DejaVuSans-30" x="254.492188"/>
      </g>
     </g>
    </g>
    <g id="xtick_6">
     <g id="line2d_6">
      <g>
       <use xlink:href="#m23b42bc68c" x="335.649896" y="162.432" style="stroke: #000000; stroke-width: 0.8"/>
      </g>
     </g>
     <g id="text_6">
      <!-- 50000 -->
      <g transform="translate(319.743646 177.030437)scale(0.1 -0.1)">
       <defs>
        <path id="DejaVuSans-35" d="M 691 4666 
L 3169 4666 
L 3169 4134 
L 1269 4134 
L 1269 2991 
Q 1406 3038 1543 3061 
Q 1681 3084 1819 3084 
Q 2600 3084 3056 2656 
Q 3513 2228 3513 1497 
Q 3513 744 3044 326 
Q 2575 -91 1722 -91 
Q 1428 -91 1123 -41 
Q 819 9 494 109 
L 494 744 
Q 775 591 1075 516 
Q 1375 441 1709 441 
Q 2250 441 2565 725 
Q 2881 1009 2881 1497 
Q 2881 1984 2565 2268 
Q 2250 2553 1709 2553 
Q 1456 2553 1204 2497 
Q 953 2441 691 2322 
L 691 4666 
z
" transform="scale(0.015625)"/>
       </defs>
       <use xlink:href="#DejaVuSans-35"/>
       <use xlink:href="#DejaVuSans-30" x="63.623047"/>
       <use xlink:href="#DejaVuSans-30" x="127.246094"/>
       <use xlink:href="#DejaVuSans-30" x="190.869141"/>
       <use xlink:href="#DejaVuSans-30" x="254.492188"/>
      </g>
     </g>
    </g>
    <g id="xtick_7">
     <g id="line2d_7">
      <g>
       <use xlink:href="#m23b42bc68c" x="388.014377" y="162.432" style="stroke: #000000; stroke-width: 0.8"/>
      </g>
     </g>
     <g id="text_7">
      <!-- 60000 -->
      <g transform="translate(372.108127 177.030437)scale(0.1 -0.1)">
       <defs>
        <path id="DejaVuSans-36" d="M 2113 2584 
Q 1688 2584 1439 2293 
Q 1191 2003 1191 1497 
Q 1191 994 1439 701 
Q 1688 409 2113 409 
Q 2538 409 2786 701 
Q 3034 994 3034 1497 
Q 3034 2003 2786 2293 
Q 2538 2584 2113 2584 
z
M 3366 4563 
L 3366 3988 
Q 3128 4100 2886 4159 
Q 2644 4219 2406 4219 
Q 1781 4219 1451 3797 
Q 1122 3375 1075 2522 
Q 1259 2794 1537 2939 
Q 1816 3084 2150 3084 
Q 2853 3084 3261 2657 
Q 3669 2231 3669 1497 
Q 3669 778 3244 343 
Q 2819 -91 2113 -91 
Q 1303 -91 875 529 
Q 447 1150 447 2328 
Q 447 3434 972 4092 
Q 1497 4750 2381 4750 
Q 2619 4750 2861 4703 
Q 3103 4656 3366 4563 
z
" transform="scale(0.015625)"/>
       </defs>
       <use xlink:href="#DejaVuSans-36"/>
       <use xlink:href="#DejaVuSans-30" x="63.623047"/>
       <use xlink:href="#DejaVuSans-30" x="127.246094"/>
       <use xlink:href="#DejaVuSans-30" x="190.869141"/>
       <use xlink:href="#DejaVuSans-30" x="254.492188"/>
      </g>
     </g>
    </g>
   </g>
   <g id="matplotlib.axis_2">
    <g id="ytick_1">
     <g id="line2d_8">
      <defs>
       <path id="m749459badc" d="M 0 0 
L -3.5 0 
" style="stroke: #000000; stroke-width: 0.8"/>
      </defs>
      <g>
       <use xlink:href="#m749459badc" x="57.6" y="139.921825" style="stroke: #000000; stroke-width: 0.8"/>
      </g>
     </g>
     <g id="text_8">
      <!-- 70 -->
      <g transform="translate(37.875 143.721043)scale(0.1 -0.1)">
       <defs>
        <path id="DejaVuSans-37" d="M 525 4666 
L 3525 4666 
L 3525 4397 
L 1831 0 
L 1172 0 
L 2766 4134 
L 525 4134 
L 525 4666 
z
" transform="scale(0.015625)"/>
       </defs>
       <use xlink:href="#DejaVuSans-37"/>
       <use xlink:href="#DejaVuSans-30" x="63.623047"/>
      </g>
     </g>
    </g>
    <g id="ytick_2">
     <g id="line2d_9">
      <g>
       <use xlink:href="#m749459badc" x="57.6" y="111.568502" style="stroke: #000000; stroke-width: 0.8"/>
      </g>
     </g>
     <g id="text_9">
      <!-- 80 -->
      <g transform="translate(37.875 115.367721)scale(0.1 -0.1)">
       <defs>
        <path id="DejaVuSans-38" d="M 2034 2216 
Q 1584 2216 1326 1975 
Q 1069 1734 1069 1313 
Q 1069 891 1326 650 
Q 1584 409 2034 409 
Q 2484 409 2743 651 
Q 3003 894 3003 1313 
Q 3003 1734 2745 1975 
Q 2488 2216 2034 2216 
z
M 1403 2484 
Q 997 2584 770 2862 
Q 544 3141 544 3541 
Q 544 4100 942 4425 
Q 1341 4750 2034 4750 
Q 2731 4750 3128 4425 
Q 3525 4100 3525 3541 
Q 3525 3141 3298 2862 
Q 3072 2584 2669 2484 
Q 3125 2378 3379 2068 
Q 3634 1759 3634 1313 
Q 3634 634 3220 271 
Q 2806 -91 2034 -91 
Q 1263 -91 848 271 
Q 434 634 434 1313 
Q 434 1759 690 2068 
Q 947 2378 1403 2484 
z
M 1172 3481 
Q 1172 3119 1398 2916 
Q 1625 2713 2034 2713 
Q 2441 2713 2670 2916 
Q 2900 3119 2900 3481 
Q 2900 3844 2670 4047 
Q 2441 4250 2034 4250 
Q 1625 4250 1398 4047 
Q 1172 3844 1172 3481 
z
" transform="scale(0.015625)"/>
       </defs>
       <use xlink:href="#DejaVuSans-38"/>
       <use xlink:href="#DejaVuSans-30" x="63.623047"/>
      </g>
     </g>
    </g>
    <g id="ytick_3">
     <g id="line2d_10">
      <g>
       <use xlink:href="#m749459badc" x="57.6" y="83.215179" style="stroke: #000000; stroke-width: 0.8"/>
      </g>
     </g>
     <g id="text_10">
      <!-- 90 -->
      <g transform="translate(37.875 87.014398)scale(0.1 -0.1)">
       <defs>
        <path id="DejaVuSans-39" d="M 703 97 
L 703 672 
Q 941 559 1184 500 
Q 1428 441 1663 441 
Q 2288 441 2617 861 
Q 2947 1281 2994 2138 
Q 2813 1869 2534 1725 
Q 2256 1581 1919 1581 
Q 1219 1581 811 2004 
Q 403 2428 403 3163 
Q 403 3881 828 4315 
Q 1253 4750 1959 4750 
Q 2769 4750 3195 4129 
Q 3622 3509 3622 2328 
Q 3622 1225 3098 567 
Q 2575 -91 1691 -91 
Q 1453 -91 1209 -44 
Q 966 3 703 97 
z
M 1959 2075 
Q 2384 2075 2632 2365 
Q 2881 2656 2881 3163 
Q 2881 3666 2632 3958 
Q 2384 4250 1959 4250 
Q 1534 4250 1286 3958 
Q 1038 3666 1038 3163 
Q 1038 2656 1286 2365 
Q 1534 2075 1959 2075 
z
" transform="scale(0.015625)"/>
       </defs>
       <use xlink:href="#DejaVuSans-39"/>
       <use xlink:href="#DejaVuSans-30" x="63.623047"/>
      </g>
     </g>
    </g>
    <g id="ytick_4">
     <g id="line2d_11">
      <g>
       <use xlink:href="#m749459badc" x="57.6" y="54.861857" style="stroke: #000000; stroke-width: 0.8"/>
      </g>
     </g>
     <g id="text_11">
      <!-- 100 -->
      <g transform="translate(31.5125 58.661075)scale(0.1 -0.1)">
       <use xlink:href="#DejaVuSans-31"/>
       <use xlink:href="#DejaVuSans-30" x="63.623047"/>
       <use xlink:href="#DejaVuSans-30" x="127.246094"/>
      </g>
     </g>
    </g>
   </g>
   <g id="line2d_12">
    <path d="M 73.832727 54.153024 
L 73.979348 75.890571 
L 73.989821 75.890571 
L 74.00553 73.764072 
L 74.031712 85.105401 
L 74.036949 85.105401 
L 74.042185 84.16029 
L 74.099786 91.484898 
L 74.230697 102.353672 
L 74.24117 102.353672 
L 74.31448 108.024337 
L 74.356372 106.60667 
L 74.398264 106.60667 
L 74.513466 110.859669 
L 74.518702 110.859669 
L 74.539648 109.914558 
L 74.56583 115.585223 
L 74.607722 114.167557 
L 74.722923 114.167557 
L 74.790997 117.002889 
L 74.832889 115.585223 
L 74.87478 115.585223 
L 74.995219 113.695001 
L 75.005692 113.695001 
L 75.073765 112.74989 
L 75.079002 115.585223 
L 75.105184 115.585223 
L 75.178494 115.585223 
L 75.204677 114.167557 
L 75.225622 119.838221 
L 75.27275 119.838221 
L 75.335588 119.838221 
L 75.456026 117.475444 
L 75.639302 117.475444 
L 75.754504 120.310776 
L 75.885415 120.310776 
L 75.99538 123.146109 
L 76.110582 122.200998 
L 76.487606 122.200998 
L 76.602808 125.03633 
L 76.759902 125.03633 
L 76.875104 124.091219 
L 76.937941 124.091219 
L 77.053143 126.926552 
L 77.979994 126.926552 
L 78.095196 125.981441 
L 78.639787 125.981441 
L 78.754988 128.816773 
L 79.509037 128.816773 
L 79.624239 131.652105 
L 79.912244 131.652105 
L 80.027445 130.706995 
L 80.472543 130.706995 
L 80.587745 129.761884 
L 80.739602 129.761884 
L 80.854804 132.597216 
L 81.776419 132.597216 
L 81.891621 131.652105 
L 82.137734 131.652105 
L 82.252936 134.487438 
L 83.075058 134.487438 
L 83.19026 137.32277 
L 84.666938 137.32277 
L 84.78214 135.905104 
L 85.572844 135.905104 
L 85.693282 134.25116 
L 86.096489 134.25116 
L 86.211691 133.306049 
L 86.646316 133.306049 
L 86.761518 136.141382 
L 89.086501 136.141382 
L 89.201702 135.196271 
L 93.003364 135.196271 
L 93.118566 134.25116 
L 93.725994 134.25116 
L 93.841195 132.833494 
L 94.438151 132.833494 
L 94.553352 135.668826 
L 95.977666 135.668826 
L 96.092868 138.504158 
L 103.596698 138.504158 
L 103.7119 137.559048 
L 109.157806 137.559048 
L 109.273008 140.39438 
L 111.959306 140.39438 
L 112.074508 139.449269 
L 113.593078 139.449269 
L 113.70828 138.504158 
L 118.373955 138.504158 
L 118.489157 141.339491 
L 133.297832 141.339491 
L 133.413034 140.39438 
L 137.366552 140.39438 
L 137.481754 143.229712 
L 147.897049 143.229712 
L 148.012251 146.065044 
L 155.22284 146.065044 
L 155.338042 145.119934 
L 209.676664 145.119934 
L 209.791866 147.955266 
L 252.442735 147.955266 
L 252.557937 147.010155 
L 318.804242 147.010155 
L 318.919444 149.845488 
L 324.391532 149.845488 
L 324.506734 148.900377 
L 398.487273 148.900377 
L 398.487273 148.900377 
" clip-path="url(#pb76f3222ec)" style="fill: none; stroke: #1f77b4; stroke-width: 1.5; stroke-linecap: square"/>
   </g>
   <g id="line2d_13">
    <path d="M 73.832727 57.697189 
L 73.848437 57.697189 
L 73.963638 54.153024 
L 398.487273 54.153024 
L 398.487273 54.153024 
" clip-path="url(#pb76f3222ec)" style="fill: none; stroke: #ff7f0e; stroke-width: 1.5; stroke-linecap: square"/>
   </g>
   <g id="line2d_14">
    <path d="M 73.832727 54.153024 
L 73.968875 73.197005 
L 73.974111 71.779339 
L 73.979348 71.779339 
L 74.00553 71.070506 
L 74.110259 84.538334 
L 74.115495 83.593224 
L 74.136441 91.15411 
L 74.214988 85.01089 
L 74.298771 85.01089 
L 74.413973 81.703002 
L 74.555357 81.703002 
L 74.675795 76.032338 
L 75.063293 76.032338 
L 75.178494 73.197005 
L 75.639302 73.197005 
L 75.754504 72.488172 
L 79.509037 72.488172 
L 79.624239 75.323504 
L 80.320686 75.323504 
L 80.435888 72.488172 
L 90.427031 72.488172 
L 90.542233 71.070506 
L 109.157806 71.070506 
L 109.273008 68.235174 
L 124.437762 68.235174 
L 124.552964 66.817508 
L 215.274427 66.817508 
L 215.389629 63.982175 
L 398.487273 63.982175 
L 398.487273 63.982175 
" clip-path="url(#pb76f3222ec)" style="fill: none; stroke: #2ca02c; stroke-width: 1.5; stroke-linecap: square"/>
   </g>
   <g id="line2d_15">
    <path d="M 73.832727 57.697189 
L 73.8432 56.421289 
L 73.869382 64.927286 
L 73.900801 63.037065 
L 73.906038 63.037065 
L 74.052658 92.571776 
L 74.063131 90.681554 
L 74.073604 90.681554 
L 74.07884 93.516887 
L 74.141678 86.664834 
L 74.183569 90.681554 
L 74.194042 90.681554 
L 74.298771 86.901111 
L 74.309244 89.736443 
L 74.31448 89.736443 
L 74.429682 88.318777 
L 74.518702 88.318777 
L 74.555357 87.373667 
L 74.56583 93.044331 
L 74.602485 93.044331 
L 74.712451 93.044331 
L 74.827652 91.626665 
L 74.87478 91.626665 
L 74.989982 90.681554 
L 75.005692 90.681554 
L 75.063293 89.736443 
L 75.068529 92.571776 
L 75.105184 92.571776 
L 75.283223 92.571776 
L 75.398425 91.15411 
L 75.99538 91.15411 
L 76.110582 90.208999 
L 76.759902 90.208999 
L 76.875104 89.263888 
L 77.979994 89.263888 
L 78.095196 88.318777 
L 79.509037 88.318777 
L 79.624239 91.15411 
L 79.912244 91.15411 
L 80.027445 90.208999 
L 80.320686 90.208999 
L 80.435888 93.044331 
L 80.472543 93.044331 
L 80.587745 92.09922 
L 81.776419 92.09922 
L 81.891621 91.15411 
L 85.572844 91.15411 
L 85.599026 93.989442 
L 85.682809 93.044331 
L 89.086501 93.044331 
L 89.201702 92.09922 
L 90.427031 92.09922 
L 90.542233 94.934553 
L 93.003364 94.934553 
L 93.118566 93.989442 
L 96.852153 93.989442 
L 96.967355 92.571776 
L 103.596698 92.571776 
L 103.7119 91.626665 
L 109.157806 91.626665 
L 109.273008 94.461997 
L 111.959306 94.461997 
L 112.074508 93.516887 
L 123.537093 93.516887 
L 123.652294 92.09922 
L 124.437762 92.09922 
L 124.552964 94.934553 
L 133.297832 94.934553 
L 133.413034 93.989442 
L 155.22284 93.989442 
L 155.338042 93.044331 
L 169.52358 93.044331 
L 169.638782 91.626665 
L 204.644437 91.626665 
L 204.759639 90.208999 
L 215.274427 90.208999 
L 215.389629 93.044331 
L 219.641624 93.044331 
L 219.756826 91.626665 
L 398.487273 91.626665 
L 398.487273 91.626665 
" clip-path="url(#pb76f3222ec)" style="fill: none; stroke: #d62728; stroke-width: 1.5; stroke-linecap: square"/>
   </g>
   <g id="line2d_16">
    <path d="M 73.832727 54.153024 
L 73.974111 71.87385 
L 73.979348 71.87385 
L 74.068367 84.396568 
L 74.105023 82.506346 
L 74.110259 82.506346 
L 74.131205 84.396568 
L 74.225461 81.08868 
L 79.509037 81.08868 
L 79.624239 83.924012 
L 85.572844 83.924012 
L 85.688046 86.759345 
L 90.427031 86.759345 
L 90.542233 85.341678 
L 124.437762 85.341678 
L 124.552964 83.924012 
L 398.487273 83.924012 
L 398.487273 83.924012 
" clip-path="url(#pb76f3222ec)" style="fill: none; stroke: #9467bd; stroke-width: 1.5; stroke-linecap: square"/>
   </g>
   <g id="line2d_17">
    <path d="M 73.832727 54.861857 
L 73.837964 54.861857 
L 73.968875 52.640846 
L 74.33019 52.640846 
L 74.445392 52.168291 
L 75.639302 52.168291 
L 75.754504 51.459458 
L 79.509037 51.459458 
L 79.624239 50.750625 
L 85.572844 50.750625 
L 85.688046 50.041792 
L 398.487273 50.041792 
L 398.487273 50.041792 
" clip-path="url(#pb76f3222ec)" style="fill: none; stroke: #8c564b; stroke-width: 1.5; stroke-linecap: square"/>
   </g>
   <g id="line2d_18">
    <path d="M 73.832727 57.697189 
L 73.921747 69.038518 
L 73.958402 66.675741 
L 73.979348 66.675741 
L 74.125968 86.523067 
L 74.131205 86.523067 
L 74.220224 90.30351 
L 74.24117 89.358399 
L 74.31448 88.649566 
L 74.319717 91.484898 
L 74.33019 91.484898 
L 74.335426 94.320231 
L 74.440155 92.902565 
L 74.518702 92.902565 
L 74.633904 95.737897 
L 74.712451 95.737897 
L 74.827652 98.573229 
L 74.87478 98.573229 
L 74.932381 101.408561 
L 74.984746 100.463451 
L 75.005692 100.463451 
L 75.120894 103.298783 
L 75.283223 103.298783 
L 75.335588 106.134115 
L 75.393189 105.189004 
L 75.639302 105.189004 
L 75.754504 108.024337 
L 75.885415 108.024337 
L 75.99538 106.60667 
L 76.110582 109.442003 
L 76.220548 109.442003 
L 76.335749 108.024337 
L 76.937941 108.024337 
L 77.053143 106.60667 
L 77.979994 106.60667 
L 78.095196 109.442003 
L 79.247215 109.442003 
L 79.362416 108.024337 
L 79.509037 108.024337 
L 79.624239 110.859669 
L 79.912244 110.859669 
L 80.027445 113.695001 
L 80.472543 113.695001 
L 80.587745 116.530333 
L 83.075058 116.530333 
L 83.19026 115.112667 
L 85.572844 115.112667 
L 85.688046 117.948 
L 86.096489 117.948 
L 86.211691 117.002889 
L 89.086501 117.002889 
L 89.201702 119.838221 
L 96.852153 119.838221 
L 96.967355 122.673553 
L 99.24521 122.673553 
L 99.360412 121.255887 
L 103.596698 121.255887 
L 103.7119 124.091219 
L 113.593078 124.091219 
L 113.70828 123.146109 
L 155.22284 123.146109 
L 155.338042 125.981441 
L 204.644437 125.981441 
L 204.759639 128.816773 
L 209.676664 128.816773 
L 209.791866 127.871662 
L 219.641624 127.871662 
L 219.756826 130.706995 
L 252.442735 130.706995 
L 252.557937 129.761884 
L 324.391532 129.761884 
L 324.506734 128.816773 
L 398.487273 128.816773 
L 398.487273 128.816773 
" clip-path="url(#pb76f3222ec)" style="fill: none; stroke: #e377c2; stroke-width: 1.5; stroke-linecap: square"/>
   </g>
   <g id="line2d_19">
    <path d="M 73.832727 54.861857 
L 73.968875 50.986903 
L 73.979348 50.986903 
L 74.09455 49.569236 
L 74.33019 49.569236 
L 74.445392 49.096681 
L 75.639302 49.096681 
L 75.754504 48.387848 
L 79.509037 48.387848 
L 79.624239 47.679015 
L 85.572844 47.679015 
L 85.688046 46.970182 
L 398.487273 46.970182 
L 398.487273 46.970182 
" clip-path="url(#pb76f3222ec)" style="fill: none; stroke: #7f7f7f; stroke-width: 1.5; stroke-linecap: square"/>
   </g>
   <g id="line2d_20">
    <path d="M 73.832727 57.697189 
L 73.8432 56.988356 
L 73.879855 65.494353 
L 73.885092 65.494353 
L 73.890328 65.494353 
L 73.900801 63.604131 
L 73.953166 72.582683 
L 73.974111 70.219906 
L 73.979348 70.219906 
L 74.07884 94.792786 
L 74.131205 92.902565 
L 74.136441 92.902565 
L 74.141678 92.430009 
L 74.157387 100.936006 
L 74.162624 100.227173 
L 74.173096 100.227173 
L 74.209752 92.902565 
L 74.298771 94.083953 
L 74.335426 102.58995 
L 74.419209 99.754617 
L 74.461101 99.754617 
L 74.518702 96.919285 
L 74.560594 101.172284 
L 74.581539 104.007616 
L 74.623431 99.754617 
L 74.665323 99.754617 
L 74.712451 99.754617 
L 74.722923 102.58995 
L 74.822416 99.754617 
L 74.87478 99.754617 
L 74.932381 102.58995 
L 74.984746 101.644839 
L 75.005692 101.644839 
L 75.073765 107.315504 
L 75.120894 105.897837 
L 75.178494 105.897837 
L 75.283223 101.644839 
L 75.293696 104.480171 
L 75.335588 104.480171 
L 75.456026 102.117394 
L 75.639302 102.117394 
L 75.754504 104.952727 
L 75.885415 104.952727 
L 75.99538 103.535061 
L 76.110582 106.370393 
L 76.220548 106.370393 
L 76.335749 104.952727 
L 76.487606 104.952727 
L 76.602808 103.535061 
L 76.759902 103.535061 
L 76.875104 106.370393 
L 76.937941 106.370393 
L 77.053143 104.952727 
L 77.979994 104.952727 
L 78.095196 107.788059 
L 78.639787 107.788059 
L 78.765461 103.535061 
L 79.247215 103.535061 
L 79.362416 102.117394 
L 79.509037 102.117394 
L 79.624239 104.952727 
L 79.912244 104.952727 
L 80.027445 107.788059 
L 80.320686 107.788059 
L 80.331159 110.623391 
L 80.430652 107.788059 
L 80.472543 107.788059 
L 80.587745 110.623391 
L 80.739602 110.623391 
L 80.854804 109.205725 
L 81.776419 109.205725 
L 81.891621 112.041057 
L 82.137734 112.041057 
L 82.252936 110.623391 
L 83.075058 110.623391 
L 83.19026 109.205725 
L 84.666938 109.205725 
L 84.78214 107.788059 
L 85.572844 107.788059 
L 85.693282 113.458723 
L 86.096489 113.458723 
L 86.211691 112.513613 
L 86.646316 112.513613 
L 86.761518 111.095947 
L 89.086501 111.095947 
L 89.201702 113.931279 
L 93.003364 113.931279 
L 93.118566 116.766611 
L 93.725994 116.766611 
L 93.841195 115.348945 
L 94.438151 115.348945 
L 94.553352 113.931279 
L 95.977666 113.931279 
L 96.092868 112.513613 
L 96.852153 112.513613 
L 96.967355 115.348945 
L 99.24521 115.348945 
L 99.360412 113.931279 
L 103.533861 113.931279 
L 103.596698 111.095947 
L 103.643826 113.931279 
L 109.157806 113.931279 
L 109.273008 116.766611 
L 110.241751 116.766611 
L 110.356953 113.931279 
L 111.959306 113.931279 
L 112.074508 116.766611 
L 113.593078 116.766611 
L 113.70828 115.8215 
L 118.373955 115.8215 
L 118.489157 114.403834 
L 123.537093 114.403834 
L 123.652294 117.239166 
L 133.297832 117.239166 
L 133.413034 120.074499 
L 137.366552 120.074499 
L 137.481754 118.656833 
L 147.897049 118.656833 
L 148.012251 115.8215 
L 155.22284 115.8215 
L 155.338042 118.656833 
L 169.52358 118.656833 
L 169.638782 121.492165 
L 174.409186 121.492165 
L 174.524388 118.656833 
L 204.644437 118.656833 
L 204.759639 121.492165 
L 207.503538 121.492165 
L 207.61874 118.656833 
L 209.676664 118.656833 
L 209.791866 117.711722 
L 215.274427 117.711722 
L 215.389629 120.547054 
L 219.641624 120.547054 
L 219.756826 123.382386 
L 252.442735 123.382386 
L 252.557937 122.437276 
L 318.804242 122.437276 
L 318.919444 121.019609 
L 324.391532 121.019609 
L 324.506734 120.074499 
L 398.487273 120.074499 
L 398.487273 120.074499 
" clip-path="url(#pb76f3222ec)" style="fill: none; stroke: #bcbd22; stroke-width: 1.5; stroke-linecap: square"/>
   </g>
   <g id="line2d_21">
    <path d="M 73.832727 57.697189 
L 73.8432 56.421289 
L 73.869382 64.927286 
L 73.900801 60.201732 
L 74.042185 80.521614 
L 74.047422 79.103947 
L 74.07884 88.555055 
L 74.125968 84.538334 
L 74.209752 100.605217 
L 74.262116 99.423829 
L 74.298771 99.423829 
L 74.398264 103.676827 
L 74.413973 102.259161 
L 74.461101 102.259161 
L 74.544884 101.31405 
L 74.576303 106.984715 
L 74.581539 106.984715 
L 74.701978 112.655379 
L 74.712451 112.655379 
L 74.790997 109.820047 
L 74.822416 112.655379 
L 74.87478 112.655379 
L 74.932381 111.710269 
L 74.937618 114.545601 
L 74.974273 114.545601 
L 75.005692 114.545601 
L 75.063293 113.60049 
L 75.068529 116.435822 
L 75.110421 115.018156 
L 75.178494 115.018156 
L 75.204677 117.853488 
L 75.283223 115.018156 
L 75.335588 113.60049 
L 75.340824 116.435822 
L 75.387952 116.435822 
L 75.424607 116.435822 
L 75.539809 119.271155 
L 75.639302 119.271155 
L 75.754504 118.562322 
L 75.885415 118.562322 
L 75.99538 121.397654 
L 76.110582 120.452543 
L 76.220548 120.452543 
L 76.335749 123.287875 
L 76.487606 123.287875 
L 76.602808 121.870209 
L 76.759902 121.870209 
L 76.875104 120.925098 
L 76.937941 120.925098 
L 77.053143 123.760431 
L 77.979994 123.760431 
L 78.095196 122.81532 
L 78.639787 122.81532 
L 78.686915 121.397654 
L 78.692151 124.232986 
L 78.744516 124.232986 
L 79.247215 124.232986 
L 79.362416 127.068318 
L 79.509037 127.068318 
L 79.624239 126.359485 
L 79.912244 126.359485 
L 80.027445 125.414374 
L 80.320686 125.414374 
L 80.441125 131.085039 
L 80.472543 131.085039 
L 80.587745 130.139928 
L 80.739602 130.139928 
L 80.854804 128.722262 
L 81.776419 128.722262 
L 81.891621 127.777151 
L 82.137734 127.777151 
L 82.252936 126.359485 
L 83.075058 126.359485 
L 83.19026 129.194818 
L 84.666938 129.194818 
L 84.78214 132.03015 
L 85.599026 132.03015 
L 85.714228 131.085039 
L 86.096489 131.085039 
L 86.211691 133.920371 
L 86.646316 133.920371 
L 86.761518 132.502705 
L 89.086501 132.502705 
L 89.201702 131.557594 
L 90.427031 131.557594 
L 90.542233 134.392927 
L 93.003364 134.392927 
L 93.118566 133.447816 
L 93.725994 133.447816 
L 93.841195 136.283148 
L 94.438151 136.283148 
L 94.553352 134.865482 
L 95.977666 134.865482 
L 96.092868 133.447816 
L 96.852153 133.447816 
L 96.967355 132.03015 
L 99.24521 132.03015 
L 99.360412 134.865482 
L 103.533861 134.865482 
L 103.596698 137.700814 
L 103.643826 136.755704 
L 109.157806 136.755704 
L 109.273008 139.591036 
L 110.241751 139.591036 
L 110.356953 142.426368 
L 111.959306 142.426368 
L 112.074508 141.481257 
L 113.593078 141.481257 
L 113.70828 144.31659 
L 118.373955 144.31659 
L 118.489157 142.898923 
L 123.537093 142.898923 
L 123.652294 141.481257 
L 124.437762 141.481257 
L 124.552964 144.31659 
L 133.297832 144.31659 
L 133.413034 143.371479 
L 137.366552 143.371479 
L 137.481754 141.953813 
L 147.897049 141.953813 
L 148.012251 144.789145 
L 155.22284 144.789145 
L 155.338042 143.844034 
L 169.52358 143.844034 
L 169.638782 142.426368 
L 174.409186 142.426368 
L 174.524388 145.2617 
L 204.644437 145.2617 
L 204.759639 143.844034 
L 207.503538 143.844034 
L 207.61874 146.679366 
L 209.676664 146.679366 
L 209.791866 145.734256 
L 215.274427 145.734256 
L 215.389629 148.569588 
L 219.641624 148.569588 
L 219.756826 147.151922 
L 252.442735 147.151922 
L 252.557937 149.987254 
L 318.804242 149.987254 
L 318.919444 148.569588 
L 324.391532 148.569588 
L 324.506734 151.40492 
L 398.487273 151.40492 
L 398.487273 151.40492 
" clip-path="url(#pb76f3222ec)" style="fill: none; stroke: #17becf; stroke-width: 1.5; stroke-linecap: square"/>
   </g>
   <g id="line2d_22">
    <path d="M 73.832727 54.861857 
L 73.837964 54.861857 
L 73.963638 63.367853 
L 74.33019 63.367853 
L 74.445392 66.203186 
L 75.639302 66.203186 
L 75.754504 69.038518 
L 79.509037 69.038518 
L 79.624239 71.87385 
L 85.572844 71.87385 
L 85.688046 74.709182 
L 398.487273 74.709182 
L 398.487273 74.709182 
" clip-path="url(#pb76f3222ec)" style="fill: none; stroke: #1f77b4; stroke-width: 1.5; stroke-linecap: square"/>
   </g>
   <g id="line2d_23">
    <path d="M 73.832727 54.153024 
L 73.979348 74.94546 
L 74.07884 64.78552 
L 74.09455 73.291516 
L 74.25688 101.644839 
L 74.33019 101.644839 
L 74.450628 107.315504 
L 74.487283 107.315504 
L 74.607722 112.986168 
L 74.722923 112.986168 
L 74.838125 115.8215 
L 75.073765 115.8215 
L 75.188967 118.656833 
L 75.204677 118.656833 
L 75.325115 124.327497 
L 75.639302 124.327497 
L 75.754504 127.162829 
L 76.487606 127.162829 
L 76.602808 129.998162 
L 78.639787 129.998162 
L 78.754988 132.833494 
L 79.509037 132.833494 
L 79.624239 132.124661 
L 80.739602 132.124661 
L 80.854804 134.959993 
L 82.137734 134.959993 
L 82.252936 137.795325 
L 85.572844 137.795325 
L 85.688046 137.086492 
L 86.646316 137.086492 
L 86.761518 139.921825 
L 94.438151 139.921825 
L 94.553352 142.757157 
L 95.977666 142.757157 
L 96.092868 145.592489 
L 118.373955 145.592489 
L 118.489157 148.427821 
L 137.366552 148.427821 
L 137.481754 151.263154 
L 209.676664 151.263154 
L 209.791866 154.098486 
L 318.804242 154.098486 
L 318.919444 156.933818 
L 398.487273 156.933818 
L 398.487273 156.933818 
" clip-path="url(#pb76f3222ec)" style="fill: none; stroke: #ff7f0e; stroke-width: 1.5; stroke-linecap: square"/>
   </g>
   <g id="patch_3">
    <path d="M 57.6 162.432 
L 57.6 41.472 
" style="fill: none; stroke: #000000; stroke-width: 0.8; stroke-linejoin: miter; stroke-linecap: square"/>
   </g>
   <g id="patch_4">
    <path d="M 414.72 162.432 
L 414.72 41.472 
" style="fill: none; stroke: #000000; stroke-width: 0.8; stroke-linejoin: miter; stroke-linecap: square"/>
   </g>
   <g id="patch_5">
    <path d="M 57.6 162.432 
L 414.72 162.432 
" style="fill: none; stroke: #000000; stroke-width: 0.8; stroke-linejoin: miter; stroke-linecap: square"/>
   </g>
   <g id="patch_6">
    <path d="M 57.6 41.472 
L 414.72 41.472 
" style="fill: none; stroke: #000000; stroke-width: 0.8; stroke-linejoin: miter; stroke-linecap: square"/>
   </g>
   <g id="text_12">
    <!-- WSP -->
    <g transform="translate(361.832136 148.900377)scale(0.08 -0.08)">
     <defs>
      <path id="DejaVuSans-57" d="M 213 4666 
L 850 4666 
L 1831 722 
L 2809 4666 
L 3519 4666 
L 4500 722 
L 5478 4666 
L 6119 4666 
L 4947 0 
L 4153 0 
L 3169 4050 
L 2175 0 
L 1381 0 
L 213 4666 
z
" transform="scale(0.015625)"/>
      <path id="DejaVuSans-53" d="M 3425 4513 
L 3425 3897 
Q 3066 4069 2747 4153 
Q 2428 4238 2131 4238 
Q 1616 4238 1336 4038 
Q 1056 3838 1056 3469 
Q 1056 3159 1242 3001 
Q 1428 2844 1947 2747 
L 2328 2669 
Q 3034 2534 3370 2195 
Q 3706 1856 3706 1288 
Q 3706 609 3251 259 
Q 2797 -91 1919 -91 
Q 1588 -91 1214 -16 
Q 841 59 441 206 
L 441 856 
Q 825 641 1194 531 
Q 1563 422 1919 422 
Q 2459 422 2753 634 
Q 3047 847 3047 1241 
Q 3047 1584 2836 1778 
Q 2625 1972 2144 2069 
L 1759 2144 
Q 1053 2284 737 2584 
Q 422 2884 422 3419 
Q 422 4038 858 4394 
Q 1294 4750 2059 4750 
Q 2388 4750 2728 4690 
Q 3069 4631 3425 4513 
z
" transform="scale(0.015625)"/>
      <path id="DejaVuSans-50" d="M 1259 4147 
L 1259 2394 
L 2053 2394 
Q 2494 2394 2734 2622 
Q 2975 2850 2975 3272 
Q 2975 3691 2734 3919 
Q 2494 4147 2053 4147 
L 1259 4147 
z
M 628 4666 
L 2053 4666 
Q 2838 4666 3239 4311 
Q 3641 3956 3641 3272 
Q 3641 2581 3239 2228 
Q 2838 1875 2053 1875 
L 1259 1875 
L 1259 0 
L 628 0 
L 628 4666 
z
" transform="scale(0.015625)"/>
     </defs>
     <use xlink:href="#DejaVuSans-57"/>
     <use xlink:href="#DejaVuSans-53" x="98.876953"/>
     <use xlink:href="#DejaVuSans-50" x="162.353516"/>
    </g>
   </g>
   <g id="text_13">
    <!-- Iambic -->
    <g transform="translate(361.832136 54.153024)scale(0.08 -0.08)">
     <defs>
      <path id="DejaVuSans-49" d="M 628 4666 
L 1259 4666 
L 1259 0 
L 628 0 
L 628 4666 
z
" transform="scale(0.015625)"/>
      <path id="DejaVuSans-61" d="M 2194 1759 
Q 1497 1759 1228 1600 
Q 959 1441 959 1056 
Q 959 750 1161 570 
Q 1363 391 1709 391 
Q 2188 391 2477 730 
Q 2766 1069 2766 1631 
L 2766 1759 
L 2194 1759 
z
M 3341 1997 
L 3341 0 
L 2766 0 
L 2766 531 
Q 2569 213 2275 61 
Q 1981 -91 1556 -91 
Q 1019 -91 701 211 
Q 384 513 384 1019 
Q 384 1609 779 1909 
Q 1175 2209 1959 2209 
L 2766 2209 
L 2766 2266 
Q 2766 2663 2505 2880 
Q 2244 3097 1772 3097 
Q 1472 3097 1187 3025 
Q 903 2953 641 2809 
L 641 3341 
Q 956 3463 1253 3523 
Q 1550 3584 1831 3584 
Q 2591 3584 2966 3190 
Q 3341 2797 3341 1997 
z
" transform="scale(0.015625)"/>
      <path id="DejaVuSans-6d" d="M 3328 2828 
Q 3544 3216 3844 3400 
Q 4144 3584 4550 3584 
Q 5097 3584 5394 3201 
Q 5691 2819 5691 2113 
L 5691 0 
L 5113 0 
L 5113 2094 
Q 5113 2597 4934 2840 
Q 4756 3084 4391 3084 
Q 3944 3084 3684 2787 
Q 3425 2491 3425 1978 
L 3425 0 
L 2847 0 
L 2847 2094 
Q 2847 2600 2669 2842 
Q 2491 3084 2119 3084 
Q 1678 3084 1418 2786 
Q 1159 2488 1159 1978 
L 1159 0 
L 581 0 
L 581 3500 
L 1159 3500 
L 1159 2956 
Q 1356 3278 1631 3431 
Q 1906 3584 2284 3584 
Q 2666 3584 2933 3390 
Q 3200 3197 3328 2828 
z
" transform="scale(0.015625)"/>
      <path id="DejaVuSans-62" d="M 3116 1747 
Q 3116 2381 2855 2742 
Q 2594 3103 2138 3103 
Q 1681 3103 1420 2742 
Q 1159 2381 1159 1747 
Q 1159 1113 1420 752 
Q 1681 391 2138 391 
Q 2594 391 2855 752 
Q 3116 1113 3116 1747 
z
M 1159 2969 
Q 1341 3281 1617 3432 
Q 1894 3584 2278 3584 
Q 2916 3584 3314 3078 
Q 3713 2572 3713 1747 
Q 3713 922 3314 415 
Q 2916 -91 2278 -91 
Q 1894 -91 1617 61 
Q 1341 213 1159 525 
L 1159 0 
L 581 0 
L 581 4863 
L 1159 4863 
L 1159 2969 
z
" transform="scale(0.015625)"/>
      <path id="DejaVuSans-69" d="M 603 3500 
L 1178 3500 
L 1178 0 
L 603 0 
L 603 3500 
z
M 603 4863 
L 1178 4863 
L 1178 4134 
L 603 4134 
L 603 4863 
z
" transform="scale(0.015625)"/>
      <path id="DejaVuSans-63" d="M 3122 3366 
L 3122 2828 
Q 2878 2963 2633 3030 
Q 2388 3097 2138 3097 
Q 1578 3097 1268 2742 
Q 959 2388 959 1747 
Q 959 1106 1268 751 
Q 1578 397 2138 397 
Q 2388 397 2633 464 
Q 2878 531 3122 666 
L 3122 134 
Q 2881 22 2623 -34 
Q 2366 -91 2075 -91 
Q 1284 -91 818 406 
Q 353 903 353 1747 
Q 353 2603 823 3093 
Q 1294 3584 2113 3584 
Q 2378 3584 2631 3529 
Q 2884 3475 3122 3366 
z
" transform="scale(0.015625)"/>
     </defs>
     <use xlink:href="#DejaVuSans-49"/>
     <use xlink:href="#DejaVuSans-61" x="29.492188"/>
     <use xlink:href="#DejaVuSans-6d" x="90.771484"/>
     <use xlink:href="#DejaVuSans-62" x="188.183594"/>
     <use xlink:href="#DejaVuSans-69" x="251.660156"/>
     <use xlink:href="#DejaVuSans-63" x="279.443359"/>
    </g>
   </g>
   <g id="text_14">
    <!-- Parse -->
    <g transform="translate(361.832136 63.982175)scale(0.08 -0.08)">
     <defs>
      <path id="DejaVuSans-72" d="M 2631 2963 
Q 2534 3019 2420 3045 
Q 2306 3072 2169 3072 
Q 1681 3072 1420 2755 
Q 1159 2438 1159 1844 
L 1159 0 
L 581 0 
L 581 3500 
L 1159 3500 
L 1159 2956 
Q 1341 3275 1631 3429 
Q 1922 3584 2338 3584 
Q 2397 3584 2469 3576 
Q 2541 3569 2628 3553 
L 2631 2963 
z
" transform="scale(0.015625)"/>
      <path id="DejaVuSans-73" d="M 2834 3397 
L 2834 2853 
Q 2591 2978 2328 3040 
Q 2066 3103 1784 3103 
Q 1356 3103 1142 2972 
Q 928 2841 928 2578 
Q 928 2378 1081 2264 
Q 1234 2150 1697 2047 
L 1894 2003 
Q 2506 1872 2764 1633 
Q 3022 1394 3022 966 
Q 3022 478 2636 193 
Q 2250 -91 1575 -91 
Q 1294 -91 989 -36 
Q 684 19 347 128 
L 347 722 
Q 666 556 975 473 
Q 1284 391 1588 391 
Q 1994 391 2212 530 
Q 2431 669 2431 922 
Q 2431 1156 2273 1281 
Q 2116 1406 1581 1522 
L 1381 1569 
Q 847 1681 609 1914 
Q 372 2147 372 2553 
Q 372 3047 722 3315 
Q 1072 3584 1716 3584 
Q 2034 3584 2315 3537 
Q 2597 3491 2834 3397 
z
" transform="scale(0.015625)"/>
      <path id="DejaVuSans-65" d="M 3597 1894 
L 3597 1613 
L 953 1613 
Q 991 1019 1311 708 
Q 1631 397 2203 397 
Q 2534 397 2845 478 
Q 3156 559 3463 722 
L 3463 178 
Q 3153 47 2828 -22 
Q 2503 -91 2169 -91 
Q 1331 -91 842 396 
Q 353 884 353 1716 
Q 353 2575 817 3079 
Q 1281 3584 2069 3584 
Q 2775 3584 3186 3129 
Q 3597 2675 3597 1894 
z
M 3022 2063 
Q 3016 2534 2758 2815 
Q 2500 3097 2075 3097 
Q 1594 3097 1305 2825 
Q 1016 2553 972 2059 
L 3022 2063 
z
" transform="scale(0.015625)"/>
     </defs>
     <use xlink:href="#DejaVuSans-50"/>
     <use xlink:href="#DejaVuSans-61" x="55.802734"/>
     <use xlink:href="#DejaVuSans-72" x="117.082031"/>
     <use xlink:href="#DejaVuSans-73" x="158.195312"/>
     <use xlink:href="#DejaVuSans-65" x="210.294922"/>
    </g>
   </g>
   <g id="text_15">
    <!-- FootBin -->
    <g transform="translate(361.832136 91.626665)scale(0.08 -0.08)">
     <defs>
      <path id="DejaVuSans-46" d="M 628 4666 
L 3309 4666 
L 3309 4134 
L 1259 4134 
L 1259 2759 
L 3109 2759 
L 3109 2228 
L 1259 2228 
L 1259 0 
L 628 0 
L 628 4666 
z
" transform="scale(0.015625)"/>
      <path id="DejaVuSans-6f" d="M 1959 3097 
Q 1497 3097 1228 2736 
Q 959 2375 959 1747 
Q 959 1119 1226 758 
Q 1494 397 1959 397 
Q 2419 397 2687 759 
Q 2956 1122 2956 1747 
Q 2956 2369 2687 2733 
Q 2419 3097 1959 3097 
z
M 1959 3584 
Q 2709 3584 3137 3096 
Q 3566 2609 3566 1747 
Q 3566 888 3137 398 
Q 2709 -91 1959 -91 
Q 1206 -91 779 398 
Q 353 888 353 1747 
Q 353 2609 779 3096 
Q 1206 3584 1959 3584 
z
" transform="scale(0.015625)"/>
      <path id="DejaVuSans-74" d="M 1172 4494 
L 1172 3500 
L 2356 3500 
L 2356 3053 
L 1172 3053 
L 1172 1153 
Q 1172 725 1289 603 
Q 1406 481 1766 481 
L 2356 481 
L 2356 0 
L 1766 0 
Q 1100 0 847 248 
Q 594 497 594 1153 
L 594 3053 
L 172 3053 
L 172 3500 
L 594 3500 
L 594 4494 
L 1172 4494 
z
" transform="scale(0.015625)"/>
      <path id="DejaVuSans-42" d="M 1259 2228 
L 1259 519 
L 2272 519 
Q 2781 519 3026 730 
Q 3272 941 3272 1375 
Q 3272 1813 3026 2020 
Q 2781 2228 2272 2228 
L 1259 2228 
z
M 1259 4147 
L 1259 2741 
L 2194 2741 
Q 2656 2741 2882 2914 
Q 3109 3088 3109 3444 
Q 3109 3797 2882 3972 
Q 2656 4147 2194 4147 
L 1259 4147 
z
M 628 4666 
L 2241 4666 
Q 2963 4666 3353 4366 
Q 3744 4066 3744 3513 
Q 3744 3084 3544 2831 
Q 3344 2578 2956 2516 
Q 3422 2416 3680 2098 
Q 3938 1781 3938 1306 
Q 3938 681 3513 340 
Q 3088 0 2303 0 
L 628 0 
L 628 4666 
z
" transform="scale(0.015625)"/>
      <path id="DejaVuSans-6e" d="M 3513 2113 
L 3513 0 
L 2938 0 
L 2938 2094 
Q 2938 2591 2744 2837 
Q 2550 3084 2163 3084 
Q 1697 3084 1428 2787 
Q 1159 2491 1159 1978 
L 1159 0 
L 581 0 
L 581 3500 
L 1159 3500 
L 1159 2956 
Q 1366 3272 1645 3428 
Q 1925 3584 2291 3584 
Q 2894 3584 3203 3211 
Q 3513 2838 3513 2113 
z
" transform="scale(0.015625)"/>
     </defs>
     <use xlink:href="#DejaVuSans-46"/>
     <use xlink:href="#DejaVuSans-6f" x="53.894531"/>
     <use xlink:href="#DejaVuSans-6f" x="115.076172"/>
     <use xlink:href="#DejaVuSans-74" x="176.257812"/>
     <use xlink:href="#DejaVuSans-42" x="215.466797"/>
     <use xlink:href="#DejaVuSans-69" x="284.070312"/>
     <use xlink:href="#DejaVuSans-6e" x="311.853516"/>
    </g>
   </g>
   <g id="text_16">
    <!-- WFL -->
    <g transform="translate(361.832136 83.924012)scale(0.08 -0.08)">
     <defs>
      <path id="DejaVuSans-4c" d="M 628 4666 
L 1259 4666 
L 1259 531 
L 3531 531 
L 3531 0 
L 628 0 
L 628 4666 
z
" transform="scale(0.015625)"/>
     </defs>
     <use xlink:href="#DejaVuSans-57"/>
     <use xlink:href="#DejaVuSans-46" x="98.876953"/>
     <use xlink:href="#DejaVuSans-4c" x="156.396484"/>
    </g>
   </g>
   <g id="text_17">
    <!-- WFR -->
    <g transform="translate(361.832136 50.041792)scale(0.08 -0.08)">
     <defs>
      <path id="DejaVuSans-52" d="M 2841 2188 
Q 3044 2119 3236 1894 
Q 3428 1669 3622 1275 
L 4263 0 
L 3584 0 
L 2988 1197 
Q 2756 1666 2539 1819 
Q 2322 1972 1947 1972 
L 1259 1972 
L 1259 0 
L 628 0 
L 628 4666 
L 2053 4666 
Q 2853 4666 3247 4331 
Q 3641 3997 3641 3322 
Q 3641 2881 3436 2590 
Q 3231 2300 2841 2188 
z
M 1259 4147 
L 1259 2491 
L 2053 2491 
Q 2509 2491 2742 2702 
Q 2975 2913 2975 3322 
Q 2975 3731 2742 3939 
Q 2509 4147 2053 4147 
L 1259 4147 
z
" transform="scale(0.015625)"/>
     </defs>
     <use xlink:href="#DejaVuSans-57"/>
     <use xlink:href="#DejaVuSans-46" x="98.876953"/>
     <use xlink:href="#DejaVuSans-52" x="156.396484"/>
    </g>
   </g>
   <g id="text_18">
    <!-- Main-L -->
    <g transform="translate(361.832136 128.816773)scale(0.08 -0.08)">
     <defs>
      <path id="DejaVuSans-4d" d="M 628 4666 
L 1569 4666 
L 2759 1491 
L 3956 4666 
L 4897 4666 
L 4897 0 
L 4281 0 
L 4281 4097 
L 3078 897 
L 2444 897 
L 1241 4097 
L 1241 0 
L 628 0 
L 628 4666 
z
" transform="scale(0.015625)"/>
      <path id="DejaVuSans-2d" d="M 313 2009 
L 1997 2009 
L 1997 1497 
L 313 1497 
L 313 2009 
z
" transform="scale(0.015625)"/>
     </defs>
     <use xlink:href="#DejaVuSans-4d"/>
     <use xlink:href="#DejaVuSans-61" x="86.279297"/>
     <use xlink:href="#DejaVuSans-69" x="147.558594"/>
     <use xlink:href="#DejaVuSans-6e" x="175.341797"/>
     <use xlink:href="#DejaVuSans-2d" x="238.720703"/>
     <use xlink:href="#DejaVuSans-4c" x="274.804688"/>
    </g>
   </g>
   <g id="text_19">
    <!-- Main-R -->
    <g transform="translate(361.832136 46.970182)scale(0.08 -0.08)">
     <use xlink:href="#DejaVuSans-4d"/>
     <use xlink:href="#DejaVuSans-61" x="86.279297"/>
     <use xlink:href="#DejaVuSans-69" x="147.558594"/>
     <use xlink:href="#DejaVuSans-6e" x="175.341797"/>
     <use xlink:href="#DejaVuSans-2d" x="238.720703"/>
     <use xlink:href="#DejaVuSans-52" x="274.804688"/>
    </g>
   </g>
   <g id="text_20">
    <!-- AFL -->
    <g transform="translate(361.832136 120.074499)scale(0.08 -0.08)">
     <defs>
      <path id="DejaVuSans-41" d="M 2188 4044 
L 1331 1722 
L 3047 1722 
L 2188 4044 
z
M 1831 4666 
L 2547 4666 
L 4325 0 
L 3669 0 
L 3244 1197 
L 1141 1197 
L 716 0 
L 50 0 
L 1831 4666 
z
" transform="scale(0.015625)"/>
     </defs>
     <use xlink:href="#DejaVuSans-41"/>
     <use xlink:href="#DejaVuSans-46" x="68.408203"/>
     <use xlink:href="#DejaVuSans-4c" x="125.927734"/>
    </g>
   </g>
   <g id="text_21">
    <!-- AFR -->
    <g transform="translate(361.832136 151.40492)scale(0.08 -0.08)">
     <use xlink:href="#DejaVuSans-41"/>
     <use xlink:href="#DejaVuSans-46" x="68.408203"/>
     <use xlink:href="#DejaVuSans-52" x="125.927734"/>
    </g>
   </g>
   <g id="text_22">
    <!-- Nonfinal -->
    <g transform="translate(361.832136 74.709182)scale(0.08 -0.08)">
     <defs>
      <path id="DejaVuSans-4e" d="M 628 4666 
L 1478 4666 
L 3547 763 
L 3547 4666 
L 4159 4666 
L 4159 0 
L 3309 0 
L 1241 3903 
L 1241 0 
L 628 0 
L 628 4666 
z
" transform="scale(0.015625)"/>
      <path id="DejaVuSans-66" d="M 2375 4863 
L 2375 4384 
L 1825 4384 
Q 1516 4384 1395 4259 
Q 1275 4134 1275 3809 
L 1275 3500 
L 2222 3500 
L 2222 3053 
L 1275 3053 
L 1275 0 
L 697 0 
L 697 3053 
L 147 3053 
L 147 3500 
L 697 3500 
L 697 3744 
Q 697 4328 969 4595 
Q 1241 4863 1831 4863 
L 2375 4863 
z
" transform="scale(0.015625)"/>
      <path id="DejaVuSans-6c" d="M 603 4863 
L 1178 4863 
L 1178 0 
L 603 0 
L 603 4863 
z
" transform="scale(0.015625)"/>
     </defs>
     <use xlink:href="#DejaVuSans-4e"/>
     <use xlink:href="#DejaVuSans-6f" x="74.804688"/>
     <use xlink:href="#DejaVuSans-6e" x="135.986328"/>
     <use xlink:href="#DejaVuSans-66" x="199.365234"/>
     <use xlink:href="#DejaVuSans-69" x="234.570312"/>
     <use xlink:href="#DejaVuSans-6e" x="262.353516"/>
     <use xlink:href="#DejaVuSans-61" x="325.732422"/>
     <use xlink:href="#DejaVuSans-6c" x="387.011719"/>
    </g>
   </g>
   <g id="text_23">
    <!-- Trochaic -->
    <g transform="translate(361.832136 156.933818)scale(0.08 -0.08)">
     <defs>
      <path id="DejaVuSans-54" d="M -19 4666 
L 3928 4666 
L 3928 4134 
L 2272 4134 
L 2272 0 
L 1638 0 
L 1638 4134 
L -19 4134 
L -19 4666 
z
" transform="scale(0.015625)"/>
      <path id="DejaVuSans-68" d="M 3513 2113 
L 3513 0 
L 2938 0 
L 2938 2094 
Q 2938 2591 2744 2837 
Q 2550 3084 2163 3084 
Q 1697 3084 1428 2787 
Q 1159 2491 1159 1978 
L 1159 0 
L 581 0 
L 581 4863 
L 1159 4863 
L 1159 2956 
Q 1366 3272 1645 3428 
Q 1925 3584 2291 3584 
Q 2894 3584 3203 3211 
Q 3513 2838 3513 2113 
z
" transform="scale(0.015625)"/>
     </defs>
     <use xlink:href="#DejaVuSans-54"/>
     <use xlink:href="#DejaVuSans-72" x="46.333984"/>
     <use xlink:href="#DejaVuSans-6f" x="85.197266"/>
     <use xlink:href="#DejaVuSans-63" x="146.378906"/>
     <use xlink:href="#DejaVuSans-68" x="201.359375"/>
     <use xlink:href="#DejaVuSans-61" x="264.738281"/>
     <use xlink:href="#DejaVuSans-69" x="326.017578"/>
     <use xlink:href="#DejaVuSans-63" x="353.800781"/>
    </g>
   </g>
  </g>
  <g id="axes_2">
   <g id="patch_7">
    <path d="M 57.6 307.584 
L 414.72 307.584 
L 414.72 186.624 
L 57.6 186.624 
z
" style="fill: #ffffff"/>
   </g>
   <g id="matplotlib.axis_3">
    <g id="xtick_8">
     <g id="line2d_24">
      <g>
       <use xlink:href="#m23b42bc68c" x="71.624193" y="307.584" style="stroke: #000000; stroke-width: 0.8"/>
      </g>
     </g>
     <g id="text_24">
      <!-- 0 -->
      <g transform="translate(68.442943 322.182437)scale(0.1 -0.1)">
       <use xlink:href="#DejaVuSans-30"/>
      </g>
     </g>
    </g>
    <g id="xtick_9">
     <g id="line2d_25">
      <g>
       <use xlink:href="#m23b42bc68c" x="115.794879" y="307.584" style="stroke: #000000; stroke-width: 0.8"/>
      </g>
     </g>
     <g id="text_25">
      <!-- 20 -->
      <g transform="translate(109.432379 322.182437)scale(0.1 -0.1)">
       <use xlink:href="#DejaVuSans-32"/>
       <use xlink:href="#DejaVuSans-30" x="63.623047"/>
      </g>
     </g>
    </g>
    <g id="xtick_10">
     <g id="line2d_26">
      <g>
       <use xlink:href="#m23b42bc68c" x="159.965566" y="307.584" style="stroke: #000000; stroke-width: 0.8"/>
      </g>
     </g>
     <g id="text_26">
      <!-- 40 -->
      <g transform="translate(153.603066 322.182437)scale(0.1 -0.1)">
       <use xlink:href="#DejaVuSans-34"/>
       <use xlink:href="#DejaVuSans-30" x="63.623047"/>
      </g>
     </g>
    </g>
    <g id="xtick_11">
     <g id="line2d_27">
      <g>
       <use xlink:href="#m23b42bc68c" x="204.136252" y="307.584" style="stroke: #000000; stroke-width: 0.8"/>
      </g>
     </g>
     <g id="text_27">
      <!-- 60 -->
      <g transform="translate(197.773752 322.182437)scale(0.1 -0.1)">
       <use xlink:href="#DejaVuSans-36"/>
       <use xlink:href="#DejaVuSans-30" x="63.623047"/>
      </g>
     </g>
    </g>
    <g id="xtick_12">
     <g id="line2d_28">
      <g>
       <use xlink:href="#m23b42bc68c" x="248.306939" y="307.584" style="stroke: #000000; stroke-width: 0.8"/>
      </g>
     </g>
     <g id="text_28">
      <!-- 80 -->
      <g transform="translate(241.944439 322.182437)scale(0.1 -0.1)">
       <use xlink:href="#DejaVuSans-38"/>
       <use xlink:href="#DejaVuSans-30" x="63.623047"/>
      </g>
     </g>
    </g>
    <g id="xtick_13">
     <g id="line2d_29">
      <g>
       <use xlink:href="#m23b42bc68c" x="292.477625" y="307.584" style="stroke: #000000; stroke-width: 0.8"/>
      </g>
     </g>
     <g id="text_29">
      <!-- 100 -->
      <g transform="translate(282.933875 322.182437)scale(0.1 -0.1)">
       <use xlink:href="#DejaVuSans-31"/>
       <use xlink:href="#DejaVuSans-30" x="63.623047"/>
       <use xlink:href="#DejaVuSans-30" x="127.246094"/>
      </g>
     </g>
    </g>
    <g id="xtick_14">
     <g id="line2d_30">
      <g>
       <use xlink:href="#m23b42bc68c" x="336.648312" y="307.584" style="stroke: #000000; stroke-width: 0.8"/>
      </g>
     </g>
     <g id="text_30">
      <!-- 120 -->
      <g transform="translate(327.104562 322.182437)scale(0.1 -0.1)">
       <use xlink:href="#DejaVuSans-31"/>
       <use xlink:href="#DejaVuSans-32" x="63.623047"/>
       <use xlink:href="#DejaVuSans-30" x="127.246094"/>
      </g>
     </g>
    </g>
    <g id="xtick_15">
     <g id="line2d_31">
      <g>
       <use xlink:href="#m23b42bc68c" x="380.818998" y="307.584" style="stroke: #000000; stroke-width: 0.8"/>
      </g>
     </g>
     <g id="text_31">
      <!-- 140 -->
      <g transform="translate(371.275248 322.182437)scale(0.1 -0.1)">
       <use xlink:href="#DejaVuSans-31"/>
       <use xlink:href="#DejaVuSans-34" x="63.623047"/>
       <use xlink:href="#DejaVuSans-30" x="127.246094"/>
      </g>
     </g>
    </g>
   </g>
   <g id="matplotlib.axis_4">
    <g id="ytick_5">
     <g id="line2d_32">
      <g>
       <use xlink:href="#m749459badc" x="57.6" y="302.094496" style="stroke: #000000; stroke-width: 0.8"/>
      </g>
     </g>
     <g id="text_32">
      <!-- 0 -->
      <g transform="translate(44.2375 305.893715)scale(0.1 -0.1)">
       <use xlink:href="#DejaVuSans-30"/>
      </g>
     </g>
    </g>
    <g id="ytick_6">
     <g id="line2d_33">
      <g>
       <use xlink:href="#m749459badc" x="57.6" y="280.400281" style="stroke: #000000; stroke-width: 0.8"/>
      </g>
     </g>
     <g id="text_33">
      <!-- 2500 -->
      <g transform="translate(25.15 284.1995)scale(0.1 -0.1)">
       <use xlink:href="#DejaVuSans-32"/>
       <use xlink:href="#DejaVuSans-35" x="63.623047"/>
       <use xlink:href="#DejaVuSans-30" x="127.246094"/>
       <use xlink:href="#DejaVuSans-30" x="190.869141"/>
      </g>
     </g>
    </g>
    <g id="ytick_7">
     <g id="line2d_34">
      <g>
       <use xlink:href="#m749459badc" x="57.6" y="258.706066" style="stroke: #000000; stroke-width: 0.8"/>
      </g>
     </g>
     <g id="text_34">
      <!-- 5000 -->
      <g transform="translate(25.15 262.505285)scale(0.1 -0.1)">
       <use xlink:href="#DejaVuSans-35"/>
       <use xlink:href="#DejaVuSans-30" x="63.623047"/>
       <use xlink:href="#DejaVuSans-30" x="127.246094"/>
       <use xlink:href="#DejaVuSans-30" x="190.869141"/>
      </g>
     </g>
    </g>
    <g id="ytick_8">
     <g id="line2d_35">
      <g>
       <use xlink:href="#m749459badc" x="57.6" y="237.011851" style="stroke: #000000; stroke-width: 0.8"/>
      </g>
     </g>
     <g id="text_35">
      <!-- 7500 -->
      <g transform="translate(25.15 240.81107)scale(0.1 -0.1)">
       <use xlink:href="#DejaVuSans-37"/>
       <use xlink:href="#DejaVuSans-35" x="63.623047"/>
       <use xlink:href="#DejaVuSans-30" x="127.246094"/>
       <use xlink:href="#DejaVuSans-30" x="190.869141"/>
      </g>
     </g>
    </g>
    <g id="ytick_9">
     <g id="line2d_36">
      <g>
       <use xlink:href="#m749459badc" x="57.6" y="215.317636" style="stroke: #000000; stroke-width: 0.8"/>
      </g>
     </g>
     <g id="text_36">
      <!-- 10000 -->
      <g transform="translate(18.7875 219.116855)scale(0.1 -0.1)">
       <use xlink:href="#DejaVuSans-31"/>
       <use xlink:href="#DejaVuSans-30" x="63.623047"/>
       <use xlink:href="#DejaVuSans-30" x="127.246094"/>
       <use xlink:href="#DejaVuSans-30" x="190.869141"/>
       <use xlink:href="#DejaVuSans-30" x="254.492188"/>
      </g>
     </g>
    </g>
    <g id="ytick_10">
     <g id="line2d_37">
      <g>
       <use xlink:href="#m749459badc" x="57.6" y="193.623421" style="stroke: #000000; stroke-width: 0.8"/>
      </g>
     </g>
     <g id="text_37">
      <!-- 12500 -->
      <g transform="translate(18.7875 197.42264)scale(0.1 -0.1)">
       <use xlink:href="#DejaVuSans-31"/>
       <use xlink:href="#DejaVuSans-32" x="63.623047"/>
       <use xlink:href="#DejaVuSans-35" x="127.246094"/>
       <use xlink:href="#DejaVuSans-30" x="190.869141"/>
       <use xlink:href="#DejaVuSans-30" x="254.492188"/>
      </g>
     </g>
    </g>
   </g>
   <g id="line2d_38">
    <path d="M 73.832727 302.085818 
L 243.88987 302.033752 
L 246.098404 301.938298 
L 248.306939 302.07714 
L 252.724007 301.955653 
L 261.558145 302.07714 
L 263.766679 301.920942 
L 265.975213 302.051107 
L 272.600816 302.007719 
L 274.809351 301.946975 
L 277.017885 301.738711 
L 279.226419 301.686645 
L 281.434954 301.912264 
L 283.643488 301.721355 
L 288.060557 301.643256 
L 290.269091 301.799455 
L 292.477625 300.367636 
L 294.68616 301.001107 
L 296.894694 302.016397 
L 299.103228 301.165983 
L 301.311763 301.660612 
L 303.520297 301.426314 
L 305.728831 301.417636 
L 307.937365 302.07714 
L 312.354434 301.651934 
L 314.562968 300.376314 
L 316.771503 301.495736 
L 318.980037 300.54119 
L 321.188571 299.456479 
L 323.397106 300.593256 
L 325.60564 302.051107 
L 327.814174 301.270116 
L 330.022709 301.183339 
L 332.231243 298.050694 
L 334.439777 299.873008 
L 336.648312 297.825074 
L 338.856846 300.896975 
L 341.06538 300.914331 
L 343.273915 299.543256 
L 345.482449 300.645322 
L 347.690983 298.128793 
L 349.899518 294.987471 
L 352.108052 301.990364 
L 354.316586 292.878793 
L 356.525121 300.298215 
L 358.733655 299.248215 
L 360.942189 299.387058 
L 363.150724 294.171769 
L 365.359258 293.538298 
L 367.567792 300.601934 
L 369.776327 287.411851 
L 371.984861 295.351934 
L 374.193395 284.643669 
L 376.401929 289.954413 
L 378.610464 278.395736 
L 380.818998 293.998215 
L 383.027532 251.989537 
L 385.236067 297.356479 
L 387.444601 298.493256 
L 389.653135 292.81805 
L 391.86167 294.857306 
L 394.070204 247.737471 
L 396.278738 192.122182 
L 398.487273 292.835405 
L 398.487273 292.835405 
" clip-path="url(#pfaf77fb98f)" style="fill: none; stroke: #1f77b4; stroke-width: 1.5; stroke-linecap: square"/>
   </g>
   <g id="patch_8">
    <path d="M 57.6 307.584 
L 57.6 186.624 
" style="fill: none; stroke: #000000; stroke-width: 0.8; stroke-linejoin: miter; stroke-linecap: square"/>
   </g>
   <g id="patch_9">
    <path d="M 414.72 307.584 
L 414.72 186.624 
" style="fill: none; stroke: #000000; stroke-width: 0.8; stroke-linejoin: miter; stroke-linecap: square"/>
   </g>
   <g id="patch_10">
    <path d="M 57.6 307.584 
L 414.72 307.584 
" style="fill: none; stroke: #000000; stroke-width: 0.8; stroke-linejoin: miter; stroke-linecap: square"/>
   </g>
   <g id="patch_11">
    <path d="M 57.6 186.624 
L 414.72 186.624 
" style="fill: none; stroke: #000000; stroke-width: 0.8; stroke-linejoin: miter; stroke-linecap: square"/>
   </g>
  </g>
 </g>
 <defs>
  <clipPath id="pb76f3222ec">
   <rect x="57.6" y="41.472" width="357.12" height="120.96"/>
  </clipPath>
  <clipPath id="pfaf77fb98f">
   <rect x="57.6" y="186.624" width="357.12" height="120.96"/>
  </clipPath>
 </defs>
</svg>
