<?xml version="1.0" encoding="utf-8" standalone="no"?>
<!DOCTYPE svg PUBLIC "-//W3C//DTD SVG 1.1//EN"
  "http://www.w3.org/Graphics/SVG/1.1/DTD/svg11.dtd">
<svg xmlns:xlink="http://www.w3.org/1999/xlink" width="460.8pt" height="345.6pt" viewBox="0 0 460.8 345.6" xmlns="http://www.w3.org/2000/svg" version="1.1">
 <metadata>
  <rdf:RDF xmlns:dc="http://purl.org/dc/elements/1.1/" xmlns:cc="http://creativecommons.org/ns#" xmlns:rdf="http://www.w3.org/1999/02/22-rdf-syntax-ns#">
   <cc:Work>
    <dc:type rdf:resource="http://purl.org/dc/dcmitype/StillImage"/>
    <dc:date>2022-05-14T02:37:56.197681</dc:date>
    <dc:format>image/svg+xml</dc:format>
    <dc:creator>
     <cc:Agent>
      <dc:title>Matplotlib v3.5.1, https://matplotlib.org/</dc:title>
     </cc:Agent>
    </dc:creator>
   </cc:Work>
  </rdf:RDF>
 </metadata>
 <defs>
  <style type="text/css">*{stroke-linejoin: round; stroke-linecap: butt}</style>
 </defs>
 <g id="figure_1">
  <g id="patch_1">
   <path d="M 0 345.6 
L 460.8 345.6 
L 460.8 0 
L 0 0 
z
" style="fill: #ffffff"/>
  </g>
  <g id="axes_1">
   <g id="patch_2">
    <path d="M 57.6 162.432 
L 414.72 162.432 
L 414.72 41.472 
L 57.6 41.472 
z
" style="fill: #ffffff"/>
   </g>
   <g id="matplotlib.axis_1">
    <g id="xtick_1">
     <g id="line2d_1">
      <defs>
       <path id="m6b461a312c" d="M 0 0 
L 0 3.5 
" style="stroke: #000000; stroke-width: 0.8"/>
      </defs>
      <g>
       <use xlink:href="#m6b461a312c" x="73.827491" y="162.432" style="stroke: #000000; stroke-width: 0.8"/>
      </g>
     </g>
     <g id="text_1">
      <!-- 0 -->
      <g transform="translate(70.646241 177.030437)scale(0.1 -0.1)">
       <defs>
        <path id="DejaVuSans-30" d="M 2034 4250 
Q 1547 4250 1301 3770 
Q 1056 3291 1056 2328 
Q 1056 1369 1301 889 
Q 1547 409 2034 409 
Q 2525 409 2770 889 
Q 3016 1369 3016 2328 
Q 3016 3291 2770 3770 
Q 2525 4250 2034 4250 
z
M 2034 4750 
Q 2819 4750 3233 4129 
Q 3647 3509 3647 2328 
Q 3647 1150 3233 529 
Q 2819 -91 2034 -91 
Q 1250 -91 836 529 
Q 422 1150 422 2328 
Q 422 3509 836 4129 
Q 1250 4750 2034 4750 
z
" transform="scale(0.015625)"/>
       </defs>
       <use xlink:href="#DejaVuSans-30"/>
      </g>
     </g>
    </g>
    <g id="xtick_2">
     <g id="line2d_2">
      <g>
       <use xlink:href="#m6b461a312c" x="126.191972" y="162.432" style="stroke: #000000; stroke-width: 0.8"/>
      </g>
     </g>
     <g id="text_2">
      <!-- 10000 -->
      <g transform="translate(110.285722 177.030437)scale(0.1 -0.1)">
       <defs>
        <path id="DejaVuSans-31" d="M 794 531 
L 1825 531 
L 1825 4091 
L 703 3866 
L 703 4441 
L 1819 4666 
L 2450 4666 
L 2450 531 
L 3481 531 
L 3481 0 
L 794 0 
L 794 531 
z
" transform="scale(0.015625)"/>
       </defs>
       <use xlink:href="#DejaVuSans-31"/>
       <use xlink:href="#DejaVuSans-30" x="63.623047"/>
       <use xlink:href="#DejaVuSans-30" x="127.246094"/>
       <use xlink:href="#DejaVuSans-30" x="190.869141"/>
       <use xlink:href="#DejaVuSans-30" x="254.492188"/>
      </g>
     </g>
    </g>
    <g id="xtick_3">
     <g id="line2d_3">
      <g>
       <use xlink:href="#m6b461a312c" x="178.556453" y="162.432" style="stroke: #000000; stroke-width: 0.8"/>
      </g>
     </g>
     <g id="text_3">
      <!-- 20000 -->
      <g transform="translate(162.650203 177.030437)scale(0.1 -0.1)">
       <defs>
        <path id="DejaVuSans-32" d="M 1228 531 
L 3431 531 
L 3431 0 
L 469 0 
L 469 531 
Q 828 903 1448 1529 
Q 2069 2156 2228 2338 
Q 2531 2678 2651 2914 
Q 2772 3150 2772 3378 
Q 2772 3750 2511 3984 
Q 2250 4219 1831 4219 
Q 1534 4219 1204 4116 
Q 875 4013 500 3803 
L 500 4441 
Q 881 4594 1212 4672 
Q 1544 4750 1819 4750 
Q 2544 4750 2975 4387 
Q 3406 4025 3406 3419 
Q 3406 3131 3298 2873 
Q 3191 2616 2906 2266 
Q 2828 2175 2409 1742 
Q 1991 1309 1228 531 
z
" transform="scale(0.015625)"/>
       </defs>
       <use xlink:href="#DejaVuSans-32"/>
       <use xlink:href="#DejaVuSans-30" x="63.623047"/>
       <use xlink:href="#DejaVuSans-30" x="127.246094"/>
       <use xlink:href="#DejaVuSans-30" x="190.869141"/>
       <use xlink:href="#DejaVuSans-30" x="254.492188"/>
      </g>
     </g>
    </g>
    <g id="xtick_4">
     <g id="line2d_4">
      <g>
       <use xlink:href="#m6b461a312c" x="230.920934" y="162.432" style="stroke: #000000; stroke-width: 0.8"/>
      </g>
     </g>
     <g id="text_4">
      <!-- 30000 -->
      <g transform="translate(215.014684 177.030437)scale(0.1 -0.1)">
       <defs>
        <path id="DejaVuSans-33" d="M 2597 2516 
Q 3050 2419 3304 2112 
Q 3559 1806 3559 1356 
Q 3559 666 3084 287 
Q 2609 -91 1734 -91 
Q 1441 -91 1130 -33 
Q 819 25 488 141 
L 488 750 
Q 750 597 1062 519 
Q 1375 441 1716 441 
Q 2309 441 2620 675 
Q 2931 909 2931 1356 
Q 2931 1769 2642 2001 
Q 2353 2234 1838 2234 
L 1294 2234 
L 1294 2753 
L 1863 2753 
Q 2328 2753 2575 2939 
Q 2822 3125 2822 3475 
Q 2822 3834 2567 4026 
Q 2313 4219 1838 4219 
Q 1578 4219 1281 4162 
Q 984 4106 628 3988 
L 628 4550 
Q 988 4650 1302 4700 
Q 1616 4750 1894 4750 
Q 2613 4750 3031 4423 
Q 3450 4097 3450 3541 
Q 3450 3153 3228 2886 
Q 3006 2619 2597 2516 
z
" transform="scale(0.015625)"/>
       </defs>
       <use xlink:href="#DejaVuSans-33"/>
       <use xlink:href="#DejaVuSans-30" x="63.623047"/>
       <use xlink:href="#DejaVuSans-30" x="127.246094"/>
       <use xlink:href="#DejaVuSans-30" x="190.869141"/>
       <use xlink:href="#DejaVuSans-30" x="254.492188"/>
      </g>
     </g>
    </g>
    <g id="xtick_5">
     <g id="line2d_5">
      <g>
       <use xlink:href="#m6b461a312c" x="283.285415" y="162.432" style="stroke: #000000; stroke-width: 0.8"/>
      </g>
     </g>
     <g id="text_5">
      <!-- 40000 -->
      <g transform="translate(267.379165 177.030437)scale(0.1 -0.1)">
       <defs>
        <path id="DejaVuSans-34" d="M 2419 4116 
L 825 1625 
L 2419 1625 
L 2419 4116 
z
M 2253 4666 
L 3047 4666 
L 3047 1625 
L 3713 1625 
L 3713 1100 
L 3047 1100 
L 3047 0 
L 2419 0 
L 2419 1100 
L 313 1100 
L 313 1709 
L 2253 4666 
z
" transform="scale(0.015625)"/>
       </defs>
       <use xlink:href="#DejaVuSans-34"/>
       <use xlink:href="#DejaVuSans-30" x="63.623047"/>
       <use xlink:href="#DejaVuSans-30" x="127.246094"/>
       <use xlink:href="#DejaVuSans-30" x="190.869141"/>
       <use xlink:href="#DejaVuSans-30" x="254.492188"/>
      </g>
     </g>
    </g>
    <g id="xtick_6">
     <g id="line2d_6">
      <g>
       <use xlink:href="#m6b461a312c" x="335.649896" y="162.432" style="stroke: #000000; stroke-width: 0.8"/>
      </g>
     </g>
     <g id="text_6">
      <!-- 50000 -->
      <g transform="translate(319.743646 177.030437)scale(0.1 -0.1)">
       <defs>
        <path id="DejaVuSans-35" d="M 691 4666 
L 3169 4666 
L 3169 4134 
L 1269 4134 
L 1269 2991 
Q 1406 3038 1543 3061 
Q 1681 3084 1819 3084 
Q 2600 3084 3056 2656 
Q 3513 2228 3513 1497 
Q 3513 744 3044 326 
Q 2575 -91 1722 -91 
Q 1428 -91 1123 -41 
Q 819 9 494 109 
L 494 744 
Q 775 591 1075 516 
Q 1375 441 1709 441 
Q 2250 441 2565 725 
Q 2881 1009 2881 1497 
Q 2881 1984 2565 2268 
Q 2250 2553 1709 2553 
Q 1456 2553 1204 2497 
Q 953 2441 691 2322 
L 691 4666 
z
" transform="scale(0.015625)"/>
       </defs>
       <use xlink:href="#DejaVuSans-35"/>
       <use xlink:href="#DejaVuSans-30" x="63.623047"/>
       <use xlink:href="#DejaVuSans-30" x="127.246094"/>
       <use xlink:href="#DejaVuSans-30" x="190.869141"/>
       <use xlink:href="#DejaVuSans-30" x="254.492188"/>
      </g>
     </g>
    </g>
    <g id="xtick_7">
     <g id="line2d_7">
      <g>
       <use xlink:href="#m6b461a312c" x="388.014377" y="162.432" style="stroke: #000000; stroke-width: 0.8"/>
      </g>
     </g>
     <g id="text_7">
      <!-- 60000 -->
      <g transform="translate(372.108127 177.030437)scale(0.1 -0.1)">
       <defs>
        <path id="DejaVuSans-36" d="M 2113 2584 
Q 1688 2584 1439 2293 
Q 1191 2003 1191 1497 
Q 1191 994 1439 701 
Q 1688 409 2113 409 
Q 2538 409 2786 701 
Q 3034 994 3034 1497 
Q 3034 2003 2786 2293 
Q 2538 2584 2113 2584 
z
M 3366 4563 
L 3366 3988 
Q 3128 4100 2886 4159 
Q 2644 4219 2406 4219 
Q 1781 4219 1451 3797 
Q 1122 3375 1075 2522 
Q 1259 2794 1537 2939 
Q 1816 3084 2150 3084 
Q 2853 3084 3261 2657 
Q 3669 2231 3669 1497 
Q 3669 778 3244 343 
Q 2819 -91 2113 -91 
Q 1303 -91 875 529 
Q 447 1150 447 2328 
Q 447 3434 972 4092 
Q 1497 4750 2381 4750 
Q 2619 4750 2861 4703 
Q 3103 4656 3366 4563 
z
" transform="scale(0.015625)"/>
       </defs>
       <use xlink:href="#DejaVuSans-36"/>
       <use xlink:href="#DejaVuSans-30" x="63.623047"/>
       <use xlink:href="#DejaVuSans-30" x="127.246094"/>
       <use xlink:href="#DejaVuSans-30" x="190.869141"/>
       <use xlink:href="#DejaVuSans-30" x="254.492188"/>
      </g>
     </g>
    </g>
   </g>
   <g id="matplotlib.axis_2">
    <g id="ytick_1">
     <g id="line2d_8">
      <defs>
       <path id="m717ff975cb" d="M 0 0 
L -3.5 0 
" style="stroke: #000000; stroke-width: 0.8"/>
      </defs>
      <g>
       <use xlink:href="#m717ff975cb" x="57.6" y="136.507306" style="stroke: #000000; stroke-width: 0.8"/>
      </g>
     </g>
     <g id="text_8">
      <!-- 80 -->
      <g transform="translate(37.875 140.306525)scale(0.1 -0.1)">
       <defs>
        <path id="DejaVuSans-38" d="M 2034 2216 
Q 1584 2216 1326 1975 
Q 1069 1734 1069 1313 
Q 1069 891 1326 650 
Q 1584 409 2034 409 
Q 2484 409 2743 651 
Q 3003 894 3003 1313 
Q 3003 1734 2745 1975 
Q 2488 2216 2034 2216 
z
M 1403 2484 
Q 997 2584 770 2862 
Q 544 3141 544 3541 
Q 544 4100 942 4425 
Q 1341 4750 2034 4750 
Q 2731 4750 3128 4425 
Q 3525 4100 3525 3541 
Q 3525 3141 3298 2862 
Q 3072 2584 2669 2484 
Q 3125 2378 3379 2068 
Q 3634 1759 3634 1313 
Q 3634 634 3220 271 
Q 2806 -91 2034 -91 
Q 1263 -91 848 271 
Q 434 634 434 1313 
Q 434 1759 690 2068 
Q 947 2378 1403 2484 
z
M 1172 3481 
Q 1172 3119 1398 2916 
Q 1625 2713 2034 2713 
Q 2441 2713 2670 2916 
Q 2900 3119 2900 3481 
Q 2900 3844 2670 4047 
Q 2441 4250 2034 4250 
Q 1625 4250 1398 4047 
Q 1172 3844 1172 3481 
z
" transform="scale(0.015625)"/>
       </defs>
       <use xlink:href="#DejaVuSans-38"/>
       <use xlink:href="#DejaVuSans-30" x="63.623047"/>
      </g>
     </g>
    </g>
    <g id="ytick_2">
     <g id="line2d_9">
      <g>
       <use xlink:href="#m717ff975cb" x="57.6" y="103.649646" style="stroke: #000000; stroke-width: 0.8"/>
      </g>
     </g>
     <g id="text_9">
      <!-- 90 -->
      <g transform="translate(37.875 107.448865)scale(0.1 -0.1)">
       <defs>
        <path id="DejaVuSans-39" d="M 703 97 
L 703 672 
Q 941 559 1184 500 
Q 1428 441 1663 441 
Q 2288 441 2617 861 
Q 2947 1281 2994 2138 
Q 2813 1869 2534 1725 
Q 2256 1581 1919 1581 
Q 1219 1581 811 2004 
Q 403 2428 403 3163 
Q 403 3881 828 4315 
Q 1253 4750 1959 4750 
Q 2769 4750 3195 4129 
Q 3622 3509 3622 2328 
Q 3622 1225 3098 567 
Q 2575 -91 1691 -91 
Q 1453 -91 1209 -44 
Q 966 3 703 97 
z
M 1959 2075 
Q 2384 2075 2632 2365 
Q 2881 2656 2881 3163 
Q 2881 3666 2632 3958 
Q 2384 4250 1959 4250 
Q 1534 4250 1286 3958 
Q 1038 3666 1038 3163 
Q 1038 2656 1286 2365 
Q 1534 2075 1959 2075 
z
" transform="scale(0.015625)"/>
       </defs>
       <use xlink:href="#DejaVuSans-39"/>
       <use xlink:href="#DejaVuSans-30" x="63.623047"/>
      </g>
     </g>
    </g>
    <g id="ytick_3">
     <g id="line2d_10">
      <g>
       <use xlink:href="#m717ff975cb" x="57.6" y="70.791986" style="stroke: #000000; stroke-width: 0.8"/>
      </g>
     </g>
     <g id="text_10">
      <!-- 100 -->
      <g transform="translate(31.5125 74.591204)scale(0.1 -0.1)">
       <use xlink:href="#DejaVuSans-31"/>
       <use xlink:href="#DejaVuSans-30" x="63.623047"/>
       <use xlink:href="#DejaVuSans-30" x="127.246094"/>
      </g>
     </g>
    </g>
   </g>
   <g id="line2d_11">
    <path d="M 73.832727 70.791986 
L 73.968875 88.754173 
L 73.974111 88.754173 
L 73.989821 87.658918 
L 73.995057 90.944684 
L 74.073604 88.754173 
L 74.188806 93.682822 
L 74.204515 93.682822 
L 74.33019 103.54012 
L 74.471574 103.54012 
L 74.497756 106.825886 
L 74.581539 106.004445 
L 74.754342 106.004445 
L 74.827652 109.290211 
L 74.864308 108.194955 
L 74.9638 108.194955 
L 75.079002 106.552072 
L 75.209913 106.552072 
L 75.319879 105.456817 
L 75.43508 108.742583 
L 75.838287 108.742583 
L 75.958725 115.314115 
L 76.922232 115.314115 
L 77.037434 118.599881 
L 77.189291 118.599881 
L 77.304492 117.504626 
L 77.953812 117.504626 
L 78.069014 120.790392 
L 79.116303 120.790392 
L 79.231505 124.076158 
L 82.446684 124.076158 
L 82.567123 121.33802 
L 83.237388 121.33802 
L 83.35259 124.623786 
L 83.551575 124.623786 
L 83.666777 127.909552 
L 85.530952 127.909552 
L 85.646154 126.814296 
L 90.301357 126.814296 
L 90.416558 130.100062 
L 90.568415 130.100062 
L 90.683617 129.004807 
L 91.270099 129.004807 
L 91.385301 127.909552 
L 92.029384 127.909552 
L 92.144586 131.195318 
L 94.087309 131.195318 
L 94.20251 134.481084 
L 94.820411 134.481084 
L 94.935613 137.76685 
L 101.418336 137.76685 
L 101.533538 136.671594 
L 103.172546 136.671594 
L 103.287748 139.95736 
L 103.628117 139.95736 
L 103.722373 138.862105 
L 103.727609 142.147871 
L 104.50784 142.147871 
L 104.623042 140.504988 
L 105.843134 140.504988 
L 105.958336 138.862105 
L 106.398198 138.862105 
L 106.5134 142.147871 
L 108.812201 142.147871 
L 108.927402 145.433637 
L 111.111001 145.433637 
L 111.226203 144.338382 
L 112.859975 144.338382 
L 112.975177 142.695499 
L 113.441221 142.695499 
L 113.556423 141.052616 
L 140.827844 141.052616 
L 140.943046 144.338382 
L 141.073957 144.338382 
L 141.189159 147.624148 
L 169.03659 147.624148 
L 169.151792 146.528892 
L 185.09154 146.528892 
L 185.206742 149.814658 
L 212.577656 149.814658 
L 212.692858 148.719403 
L 237.408893 148.719403 
L 237.524095 147.07652 
L 242.268317 147.07652 
L 242.383519 150.362286 
L 277.792381 150.362286 
L 277.907582 153.648052 
L 367.471791 153.648052 
L 367.586993 156.933818 
L 398.487273 156.933818 
L 398.487273 156.933818 
" clip-path="url(#p4184ed2ac3)" style="fill: none; stroke: #1f77b4; stroke-width: 1.5; stroke-linecap: square"/>
   </g>
   <g id="line2d_12">
    <path d="M 73.832727 69.69673 
L 73.958402 66.410964 
L 78.917318 66.410964 
L 79.03252 69.69673 
L 88.578565 69.69673 
L 88.693767 72.982496 
L 94.087309 72.982496 
L 94.20251 76.268262 
L 140.827844 76.268262 
L 140.943046 79.554028 
L 277.792381 79.554028 
L 277.907582 82.839794 
L 398.487273 82.839794 
L 398.487273 82.839794 
" clip-path="url(#p4184ed2ac3)" style="fill: none; stroke: #ff7f0e; stroke-width: 1.5; stroke-linecap: square"/>
   </g>
   <g id="line2d_13">
    <path d="M 73.832727 70.791986 
L 73.837964 74.077752 
L 73.848437 69.69673 
L 73.942693 72.982496 
L 74.021239 72.982496 
L 74.157387 66.958592 
L 74.214988 66.958592 
L 74.33019 63.672826 
L 74.497756 63.672826 
L 74.612958 62.851384 
L 76.403823 62.851384 
L 76.519025 61.208501 
L 76.922232 61.208501 
L 77.037434 57.922735 
L 78.917318 57.922735 
L 79.03252 56.82748 
L 88.578565 56.82748 
L 88.693767 55.184597 
L 94.087309 55.184597 
L 94.20251 53.541714 
L 100.501957 53.541714 
L 100.617159 50.255948 
L 185.573293 50.255948 
L 185.688495 48.613065 
L 277.792381 48.613065 
L 277.907582 46.970182 
L 398.487273 46.970182 
L 398.487273 46.970182 
" clip-path="url(#p4184ed2ac3)" style="fill: none; stroke: #2ca02c; stroke-width: 1.5; stroke-linecap: square"/>
   </g>
   <g id="line2d_14">
    <path d="M 73.832727 74.077752 
L 73.8432 74.077752 
L 73.853673 77.363518 
L 73.953166 74.24204 
L 73.974111 74.24204 
L 73.984584 73.146784 
L 73.989821 76.432551 
L 74.07884 74.515854 
L 74.141678 74.515854 
L 74.262116 81.087386 
L 75.110421 81.087386 
L 75.225622 78.349247 
L 75.251805 78.349247 
L 75.367007 76.706364 
L 75.801632 76.706364 
L 75.916834 75.063481 
L 76.220548 75.063481 
L 76.340986 71.777715 
L 76.403823 71.777715 
L 76.519025 75.063481 
L 76.922232 75.063481 
L 77.037434 78.349247 
L 77.189291 78.349247 
L 77.304492 77.253992 
L 78.917318 77.253992 
L 79.03252 80.539758 
L 79.221032 80.539758 
L 79.336234 78.896875 
L 82.446684 78.896875 
L 82.561886 77.80162 
L 85.530952 77.80162 
L 85.646154 76.706364 
L 88.578565 76.706364 
L 88.693767 79.99213 
L 90.568415 79.99213 
L 90.683617 78.896875 
L 91.270099 78.896875 
L 91.385301 77.80162 
L 92.207424 77.80162 
L 92.322625 76.158737 
L 94.087309 76.158737 
L 94.20251 79.444503 
L 100.501957 79.444503 
L 100.617159 82.730269 
L 101.418336 82.730269 
L 101.533538 81.635013 
L 103.628117 81.635013 
L 103.743319 80.539758 
L 111.111001 80.539758 
L 111.226203 79.444503 
L 140.827844 79.444503 
L 140.943046 82.730269 
L 169.03659 82.730269 
L 169.151792 81.635013 
L 181.761159 81.635013 
L 181.876361 79.99213 
L 185.573293 79.99213 
L 185.688495 83.277896 
L 212.577656 83.277896 
L 212.692858 82.182641 
L 230.255905 82.182641 
L 230.371107 80.539758 
L 277.792381 80.539758 
L 277.907582 83.825524 
L 367.765032 83.825524 
L 367.880234 82.182641 
L 398.487273 82.182641 
L 398.487273 82.182641 
" clip-path="url(#p4184ed2ac3)" style="fill: none; stroke: #d62728; stroke-width: 1.5; stroke-linecap: square"/>
   </g>
   <g id="line2d_15">
    <path d="M 73.832727 70.791986 
L 73.837964 70.791986 
L 73.958402 79.006401 
L 74.021239 79.006401 
L 74.136441 77.911145 
L 76.403823 77.911145 
L 76.519025 76.268262 
L 78.917318 76.268262 
L 79.03252 75.173007 
L 103.722373 75.173007 
L 103.837575 78.458773 
L 140.827844 78.458773 
L 140.943046 81.744539 
L 185.573293 81.744539 
L 185.688495 80.101656 
L 398.487273 80.101656 
L 398.487273 80.101656 
" clip-path="url(#p4184ed2ac3)" style="fill: none; stroke: #9467bd; stroke-width: 1.5; stroke-linecap: square"/>
   </g>
   <g id="line2d_16">
    <path d="M 73.832727 69.69673 
L 73.926983 69.69673 
L 74.047422 67.944322 
L 74.497756 67.944322 
L 74.612958 67.12288 
L 103.722373 67.12288 
L 103.837575 66.027625 
L 140.827844 66.027625 
L 140.943046 65.206183 
L 398.487273 65.206183 
L 398.487273 65.206183 
" clip-path="url(#p4184ed2ac3)" style="fill: none; stroke: #8c564b; stroke-width: 1.5; stroke-linecap: square"/>
   </g>
   <g id="line2d_17">
    <path d="M 73.832727 74.077752 
L 73.837964 74.077752 
L 73.942693 89.411326 
L 73.968875 86.947002 
L 73.974111 86.947002 
L 74.073604 94.066162 
L 74.089313 91.601837 
L 74.146914 91.601837 
L 74.267352 89.411326 
L 74.372081 89.411326 
L 74.47681 87.768443 
L 74.597249 94.339975 
L 74.827652 94.339975 
L 74.942854 93.24472 
L 75.209913 93.24472 
L 75.293696 96.530486 
L 75.319879 94.887603 
L 75.901124 94.887603 
L 76.016326 93.24472 
L 76.220548 93.24472 
L 76.335749 96.530486 
L 77.189291 96.530486 
L 77.304492 99.816252 
L 77.953812 99.816252 
L 78.069014 98.720997 
L 78.241817 98.720997 
L 78.357018 97.078114 
L 78.917318 97.078114 
L 79.03252 100.36388 
L 82.446684 100.36388 
L 82.561886 103.649646 
L 83.551575 103.649646 
L 83.666777 102.006763 
L 85.530952 102.006763 
L 85.646154 105.292529 
L 101.418336 105.292529 
L 101.533538 108.578295 
L 103.628117 108.578295 
L 103.748555 115.149827 
L 111.111001 115.149827 
L 111.226203 118.435593 
L 140.827844 118.435593 
L 140.943046 121.721359 
L 169.03659 121.721359 
L 169.151792 125.007125 
L 181.761159 125.007125 
L 181.876361 128.292891 
L 194.726604 128.292891 
L 194.841806 126.650008 
L 277.792381 126.650008 
L 277.907582 129.935774 
L 367.471791 129.935774 
L 367.586993 128.840519 
L 398.487273 128.840519 
L 398.487273 128.840519 
" clip-path="url(#p4184ed2ac3)" style="fill: none; stroke: #e377c2; stroke-width: 1.5; stroke-linecap: square"/>
   </g>
   <g id="line2d_18">
    <path d="M 73.832727 69.69673 
L 73.837964 69.69673 
L 73.958402 66.849066 
L 73.984584 66.849066 
L 74.099786 65.753811 
L 74.47681 65.753811 
L 74.592012 61.646603 
L 103.722373 61.646603 
L 103.837575 60.551348 
L 140.827844 60.551348 
L 140.943046 59.729907 
L 398.487273 59.729907 
L 398.487273 59.729907 
" clip-path="url(#p4184ed2ac3)" style="fill: none; stroke: #7f7f7f; stroke-width: 1.5; stroke-linecap: square"/>
   </g>
   <g id="line2d_19">
    <path d="M 73.832727 74.077752 
L 73.837964 72.982496 
L 73.885092 82.56598 
L 73.937456 87.220816 
L 73.958402 81.470725 
L 74.000294 85.304119 
L 74.021239 85.304119 
L 74.146914 95.982858 
L 74.214988 88.863699 
L 74.272589 92.149465 
L 74.372081 92.149465 
L 74.49252 88.863699 
L 74.497756 88.863699 
L 74.612958 92.149465 
L 74.754342 92.149465 
L 74.869544 89.411326 
L 74.9638 89.411326 
L 75.079002 87.768443 
L 75.110421 87.768443 
L 75.230859 94.339975 
L 75.251805 94.339975 
L 75.293696 97.625741 
L 75.36177 94.339975 
L 75.801632 94.339975 
L 75.838287 97.625741 
L 75.911597 94.339975 
L 76.220548 94.339975 
L 76.340986 100.911507 
L 76.440478 100.911507 
L 76.55568 97.625741 
L 76.922232 97.625741 
L 77.037434 100.911507 
L 77.189291 100.911507 
L 77.252128 104.197273 
L 77.299256 100.911507 
L 77.953812 100.911507 
L 78.069014 99.816252 
L 78.241817 99.816252 
L 78.357018 98.173369 
L 78.917318 98.173369 
L 79.03252 101.459135 
L 79.116303 101.459135 
L 79.221032 98.173369 
L 79.226269 101.459135 
L 82.446684 101.459135 
L 82.48334 104.744901 
L 82.55665 103.102018 
L 83.237388 103.102018 
L 83.35259 101.459135 
L 83.551575 101.459135 
L 83.666777 99.816252 
L 85.530952 99.816252 
L 85.646154 103.102018 
L 88.21725 103.102018 
L 88.332452 99.816252 
L 88.578565 99.816252 
L 88.693767 103.102018 
L 90.301357 103.102018 
L 90.416558 99.816252 
L 90.568415 99.816252 
L 90.683617 103.102018 
L 91.270099 103.102018 
L 91.385301 106.387784 
L 92.029384 106.387784 
L 92.144586 104.744901 
L 92.207424 104.744901 
L 92.322625 108.030667 
L 93.369915 108.030667 
L 93.485117 104.744901 
L 94.087309 104.744901 
L 94.20251 108.030667 
L 94.820411 108.030667 
L 94.935613 106.387784 
L 100.501957 106.387784 
L 100.617159 109.67355 
L 101.418336 109.67355 
L 101.533538 112.959316 
L 103.172546 112.959316 
L 103.287748 111.316433 
L 103.628117 111.316433 
L 103.748555 117.887965 
L 104.50784 117.887965 
L 104.623042 116.245082 
L 105.843134 116.245082 
L 105.958336 114.602199 
L 106.398198 114.602199 
L 106.5134 112.959316 
L 108.812201 112.959316 
L 108.927402 111.316433 
L 111.111001 111.316433 
L 111.226203 114.602199 
L 112.859975 114.602199 
L 112.975177 112.959316 
L 113.441221 112.959316 
L 113.556423 111.316433 
L 140.827844 111.316433 
L 140.943046 114.602199 
L 141.073957 114.602199 
L 141.189159 111.316433 
L 169.03659 111.316433 
L 169.151792 114.602199 
L 181.761159 114.602199 
L 181.876361 117.887965 
L 185.09154 117.887965 
L 185.206742 116.245082 
L 194.726604 116.245082 
L 194.841806 114.602199 
L 212.577656 114.602199 
L 212.692858 117.887965 
L 230.255905 117.887965 
L 230.371107 121.173731 
L 237.408893 121.173731 
L 237.524095 119.530848 
L 241.891292 119.530848 
L 242.006494 116.245082 
L 242.268317 116.245082 
L 242.383519 114.602199 
L 277.792381 114.602199 
L 277.907582 117.887965 
L 367.471791 117.887965 
L 367.586993 116.79271 
L 367.765032 116.79271 
L 367.880234 120.078476 
L 398.487273 120.078476 
L 398.487273 120.078476 
" clip-path="url(#p4184ed2ac3)" style="fill: none; stroke: #bcbd22; stroke-width: 1.5; stroke-linecap: square"/>
   </g>
   <g id="line2d_20">
    <path d="M 73.832727 74.077752 
L 73.8432 72.982496 
L 73.890328 83.113608 
L 73.906038 81.196911 
L 73.911274 81.196911 
L 73.937456 79.444503 
L 73.947929 86.016035 
L 73.984584 85.742221 
L 74.105023 92.587567 
L 74.131205 92.587567 
L 74.25688 101.897237 
L 74.372081 101.897237 
L 74.471574 105.183003 
L 74.482047 103.54012 
L 74.497756 103.54012 
L 74.612958 106.825886 
L 74.754342 106.825886 
L 74.827652 105.183003 
L 74.832889 108.468769 
L 74.859071 108.468769 
L 74.9638 108.468769 
L 75.079002 111.754535 
L 75.110421 111.754535 
L 75.225622 109.016397 
L 75.251805 109.016397 
L 75.293696 107.373514 
L 75.298933 110.65928 
L 75.36177 109.016397 
L 75.801632 109.016397 
L 75.901124 105.730631 
L 75.911597 109.016397 
L 76.220548 109.016397 
L 76.340986 105.730631 
L 76.403823 105.730631 
L 76.524262 112.302163 
L 76.922232 112.302163 
L 77.037434 115.587929 
L 77.189291 115.587929 
L 77.252128 114.492674 
L 77.257364 117.77844 
L 77.288783 117.77844 
L 77.953812 117.77844 
L 78.069014 116.683184 
L 78.241817 116.683184 
L 78.357018 119.96895 
L 78.917318 119.96895 
L 79.03252 123.254716 
L 79.116303 123.254716 
L 79.221032 126.540482 
L 79.226269 124.897599 
L 82.446684 124.897599 
L 82.48334 123.802344 
L 82.488576 127.08811 
L 82.546177 127.08811 
L 83.237388 127.08811 
L 83.35259 125.445227 
L 83.551575 125.445227 
L 83.666777 128.730993 
L 85.530952 128.730993 
L 85.646154 127.635738 
L 88.21725 127.635738 
L 88.332452 130.921504 
L 88.578565 130.921504 
L 88.693767 134.20727 
L 90.301357 134.20727 
L 90.416558 137.493036 
L 90.568415 137.493036 
L 90.683617 136.397781 
L 91.270099 136.397781 
L 91.385301 135.302525 
L 92.029384 135.302525 
L 92.144586 133.659642 
L 92.207424 133.659642 
L 92.322625 132.016759 
L 93.369915 132.016759 
L 93.485117 135.302525 
L 94.087309 135.302525 
L 94.20251 138.588291 
L 94.820411 138.588291 
L 94.935613 136.945408 
L 100.501957 136.945408 
L 100.617159 140.231174 
L 101.418336 140.231174 
L 101.533538 139.135919 
L 103.172546 139.135919 
L 103.287748 137.493036 
L 103.628117 137.493036 
L 103.748555 135.302525 
L 104.50784 135.302525 
L 104.623042 138.588291 
L 105.843134 138.588291 
L 105.958336 141.874057 
L 106.398198 141.874057 
L 106.5134 140.231174 
L 108.812201 140.231174 
L 108.927402 138.588291 
L 111.111001 138.588291 
L 111.226203 137.493036 
L 112.859975 137.493036 
L 112.975177 140.778802 
L 113.441221 140.778802 
L 113.556423 144.064568 
L 140.827844 144.064568 
L 140.943046 143.243126 
L 141.073957 143.243126 
L 141.189159 146.528892 
L 169.03659 146.528892 
L 169.151792 145.433637 
L 181.761159 145.433637 
L 181.876361 143.790754 
L 185.09154 143.790754 
L 185.206742 142.147871 
L 185.573293 142.147871 
L 185.688495 145.433637 
L 194.726604 145.433637 
L 194.841806 148.719403 
L 212.577656 148.719403 
L 212.692858 147.624148 
L 230.255905 147.624148 
L 230.371107 145.981265 
L 237.408893 145.981265 
L 237.524095 149.267031 
L 241.891292 149.267031 
L 242.006494 152.552797 
L 242.268317 152.552797 
L 242.383519 150.909914 
L 277.792381 150.909914 
L 277.907582 154.19568 
L 367.471791 154.19568 
L 367.586993 153.100424 
L 367.765032 153.100424 
L 367.880234 151.457541 
L 398.487273 151.457541 
L 398.487273 151.457541 
" clip-path="url(#p4184ed2ac3)" style="fill: none; stroke: #17becf; stroke-width: 1.5; stroke-linecap: square"/>
   </g>
   <g id="line2d_21">
    <path d="M 73.832727 74.077752 
L 73.926983 74.077752 
L 74.047422 80.649284 
L 74.497756 80.649284 
L 74.612958 83.93505 
L 103.722373 83.93505 
L 103.837575 87.220816 
L 140.827844 87.220816 
L 140.943046 90.506582 
L 398.487273 90.506582 
L 398.487273 90.506582 
" clip-path="url(#p4184ed2ac3)" style="fill: none; stroke: #1f77b4; stroke-width: 1.5; stroke-linecap: square"/>
   </g>
   <g id="line2d_22">
    <path d="M 73.832727 70.791986 
L 73.979348 94.887603 
L 73.984584 94.887603 
L 73.989821 93.792348 
L 74.026476 100.36388 
L 74.068367 100.36388 
L 74.073604 100.36388 
L 74.194042 106.935412 
L 74.204515 106.935412 
L 74.324953 113.506944 
L 74.471574 113.506944 
L 74.586776 116.79271 
L 74.754342 116.79271 
L 74.869544 120.078476 
L 75.319879 120.078476 
L 75.43508 123.364242 
L 75.838287 123.364242 
L 75.953489 126.650008 
L 77.953812 126.650008 
L 78.069014 129.935774 
L 78.917318 129.935774 
L 79.03252 128.840519 
L 83.237388 128.840519 
L 83.35259 132.126285 
L 88.578565 132.126285 
L 88.693767 130.483402 
L 92.029384 130.483402 
L 92.144586 133.769168 
L 94.087309 133.769168 
L 94.20251 132.126285 
L 94.820411 132.126285 
L 94.935613 135.412051 
L 103.172546 135.412051 
L 103.287748 138.697817 
L 106.398198 138.697817 
L 106.5134 141.983583 
L 108.812201 141.983583 
L 108.927402 145.269349 
L 140.827844 145.269349 
L 140.943046 144.447907 
L 185.09154 144.447907 
L 185.206742 147.733673 
L 242.268317 147.733673 
L 242.383519 151.019439 
L 277.792381 151.019439 
L 277.907582 149.376556 
L 367.471791 149.376556 
L 367.586993 152.662322 
L 398.487273 152.662322 
L 398.487273 152.662322 
" clip-path="url(#p4184ed2ac3)" style="fill: none; stroke: #ff7f0e; stroke-width: 1.5; stroke-linecap: square"/>
   </g>
   <g id="patch_3">
    <path d="M 57.6 162.432 
L 57.6 41.472 
" style="fill: none; stroke: #000000; stroke-width: 0.8; stroke-linejoin: miter; stroke-linecap: square"/>
   </g>
   <g id="patch_4">
    <path d="M 414.72 162.432 
L 414.72 41.472 
" style="fill: none; stroke: #000000; stroke-width: 0.8; stroke-linejoin: miter; stroke-linecap: square"/>
   </g>
   <g id="patch_5">
    <path d="M 57.6 162.432 
L 414.72 162.432 
" style="fill: none; stroke: #000000; stroke-width: 0.8; stroke-linejoin: miter; stroke-linecap: square"/>
   </g>
   <g id="patch_6">
    <path d="M 57.6 41.472 
L 414.72 41.472 
" style="fill: none; stroke: #000000; stroke-width: 0.8; stroke-linejoin: miter; stroke-linecap: square"/>
   </g>
   <g id="text_11">
    <!-- WSP -->
    <g transform="translate(361.832136 156.933818)scale(0.08 -0.08)">
     <defs>
      <path id="DejaVuSans-57" d="M 213 4666 
L 850 4666 
L 1831 722 
L 2809 4666 
L 3519 4666 
L 4500 722 
L 5478 4666 
L 6119 4666 
L 4947 0 
L 4153 0 
L 3169 4050 
L 2175 0 
L 1381 0 
L 213 4666 
z
" transform="scale(0.015625)"/>
      <path id="DejaVuSans-53" d="M 3425 4513 
L 3425 3897 
Q 3066 4069 2747 4153 
Q 2428 4238 2131 4238 
Q 1616 4238 1336 4038 
Q 1056 3838 1056 3469 
Q 1056 3159 1242 3001 
Q 1428 2844 1947 2747 
L 2328 2669 
Q 3034 2534 3370 2195 
Q 3706 1856 3706 1288 
Q 3706 609 3251 259 
Q 2797 -91 1919 -91 
Q 1588 -91 1214 -16 
Q 841 59 441 206 
L 441 856 
Q 825 641 1194 531 
Q 1563 422 1919 422 
Q 2459 422 2753 634 
Q 3047 847 3047 1241 
Q 3047 1584 2836 1778 
Q 2625 1972 2144 2069 
L 1759 2144 
Q 1053 2284 737 2584 
Q 422 2884 422 3419 
Q 422 4038 858 4394 
Q 1294 4750 2059 4750 
Q 2388 4750 2728 4690 
Q 3069 4631 3425 4513 
z
" transform="scale(0.015625)"/>
      <path id="DejaVuSans-50" d="M 1259 4147 
L 1259 2394 
L 2053 2394 
Q 2494 2394 2734 2622 
Q 2975 2850 2975 3272 
Q 2975 3691 2734 3919 
Q 2494 4147 2053 4147 
L 1259 4147 
z
M 628 4666 
L 2053 4666 
Q 2838 4666 3239 4311 
Q 3641 3956 3641 3272 
Q 3641 2581 3239 2228 
Q 2838 1875 2053 1875 
L 1259 1875 
L 1259 0 
L 628 0 
L 628 4666 
z
" transform="scale(0.015625)"/>
     </defs>
     <use xlink:href="#DejaVuSans-57"/>
     <use xlink:href="#DejaVuSans-53" x="98.876953"/>
     <use xlink:href="#DejaVuSans-50" x="162.353516"/>
    </g>
   </g>
   <g id="text_12">
    <!-- Iambic -->
    <g transform="translate(361.832136 82.839794)scale(0.08 -0.08)">
     <defs>
      <path id="DejaVuSans-49" d="M 628 4666 
L 1259 4666 
L 1259 0 
L 628 0 
L 628 4666 
z
" transform="scale(0.015625)"/>
      <path id="DejaVuSans-61" d="M 2194 1759 
Q 1497 1759 1228 1600 
Q 959 1441 959 1056 
Q 959 750 1161 570 
Q 1363 391 1709 391 
Q 2188 391 2477 730 
Q 2766 1069 2766 1631 
L 2766 1759 
L 2194 1759 
z
M 3341 1997 
L 3341 0 
L 2766 0 
L 2766 531 
Q 2569 213 2275 61 
Q 1981 -91 1556 -91 
Q 1019 -91 701 211 
Q 384 513 384 1019 
Q 384 1609 779 1909 
Q 1175 2209 1959 2209 
L 2766 2209 
L 2766 2266 
Q 2766 2663 2505 2880 
Q 2244 3097 1772 3097 
Q 1472 3097 1187 3025 
Q 903 2953 641 2809 
L 641 3341 
Q 956 3463 1253 3523 
Q 1550 3584 1831 3584 
Q 2591 3584 2966 3190 
Q 3341 2797 3341 1997 
z
" transform="scale(0.015625)"/>
      <path id="DejaVuSans-6d" d="M 3328 2828 
Q 3544 3216 3844 3400 
Q 4144 3584 4550 3584 
Q 5097 3584 5394 3201 
Q 5691 2819 5691 2113 
L 5691 0 
L 5113 0 
L 5113 2094 
Q 5113 2597 4934 2840 
Q 4756 3084 4391 3084 
Q 3944 3084 3684 2787 
Q 3425 2491 3425 1978 
L 3425 0 
L 2847 0 
L 2847 2094 
Q 2847 2600 2669 2842 
Q 2491 3084 2119 3084 
Q 1678 3084 1418 2786 
Q 1159 2488 1159 1978 
L 1159 0 
L 581 0 
L 581 3500 
L 1159 3500 
L 1159 2956 
Q 1356 3278 1631 3431 
Q 1906 3584 2284 3584 
Q 2666 3584 2933 3390 
Q 3200 3197 3328 2828 
z
" transform="scale(0.015625)"/>
      <path id="DejaVuSans-62" d="M 3116 1747 
Q 3116 2381 2855 2742 
Q 2594 3103 2138 3103 
Q 1681 3103 1420 2742 
Q 1159 2381 1159 1747 
Q 1159 1113 1420 752 
Q 1681 391 2138 391 
Q 2594 391 2855 752 
Q 3116 1113 3116 1747 
z
M 1159 2969 
Q 1341 3281 1617 3432 
Q 1894 3584 2278 3584 
Q 2916 3584 3314 3078 
Q 3713 2572 3713 1747 
Q 3713 922 3314 415 
Q 2916 -91 2278 -91 
Q 1894 -91 1617 61 
Q 1341 213 1159 525 
L 1159 0 
L 581 0 
L 581 4863 
L 1159 4863 
L 1159 2969 
z
" transform="scale(0.015625)"/>
      <path id="DejaVuSans-69" d="M 603 3500 
L 1178 3500 
L 1178 0 
L 603 0 
L 603 3500 
z
M 603 4863 
L 1178 4863 
L 1178 4134 
L 603 4134 
L 603 4863 
z
" transform="scale(0.015625)"/>
      <path id="DejaVuSans-63" d="M 3122 3366 
L 3122 2828 
Q 2878 2963 2633 3030 
Q 2388 3097 2138 3097 
Q 1578 3097 1268 2742 
Q 959 2388 959 1747 
Q 959 1106 1268 751 
Q 1578 397 2138 397 
Q 2388 397 2633 464 
Q 2878 531 3122 666 
L 3122 134 
Q 2881 22 2623 -34 
Q 2366 -91 2075 -91 
Q 1284 -91 818 406 
Q 353 903 353 1747 
Q 353 2603 823 3093 
Q 1294 3584 2113 3584 
Q 2378 3584 2631 3529 
Q 2884 3475 3122 3366 
z
" transform="scale(0.015625)"/>
     </defs>
     <use xlink:href="#DejaVuSans-49"/>
     <use xlink:href="#DejaVuSans-61" x="29.492188"/>
     <use xlink:href="#DejaVuSans-6d" x="90.771484"/>
     <use xlink:href="#DejaVuSans-62" x="188.183594"/>
     <use xlink:href="#DejaVuSans-69" x="251.660156"/>
     <use xlink:href="#DejaVuSans-63" x="279.443359"/>
    </g>
   </g>
   <g id="text_13">
    <!-- Parse -->
    <g transform="translate(361.832136 46.970182)scale(0.08 -0.08)">
     <defs>
      <path id="DejaVuSans-72" d="M 2631 2963 
Q 2534 3019 2420 3045 
Q 2306 3072 2169 3072 
Q 1681 3072 1420 2755 
Q 1159 2438 1159 1844 
L 1159 0 
L 581 0 
L 581 3500 
L 1159 3500 
L 1159 2956 
Q 1341 3275 1631 3429 
Q 1922 3584 2338 3584 
Q 2397 3584 2469 3576 
Q 2541 3569 2628 3553 
L 2631 2963 
z
" transform="scale(0.015625)"/>
      <path id="DejaVuSans-73" d="M 2834 3397 
L 2834 2853 
Q 2591 2978 2328 3040 
Q 2066 3103 1784 3103 
Q 1356 3103 1142 2972 
Q 928 2841 928 2578 
Q 928 2378 1081 2264 
Q 1234 2150 1697 2047 
L 1894 2003 
Q 2506 1872 2764 1633 
Q 3022 1394 3022 966 
Q 3022 478 2636 193 
Q 2250 -91 1575 -91 
Q 1294 -91 989 -36 
Q 684 19 347 128 
L 347 722 
Q 666 556 975 473 
Q 1284 391 1588 391 
Q 1994 391 2212 530 
Q 2431 669 2431 922 
Q 2431 1156 2273 1281 
Q 2116 1406 1581 1522 
L 1381 1569 
Q 847 1681 609 1914 
Q 372 2147 372 2553 
Q 372 3047 722 3315 
Q 1072 3584 1716 3584 
Q 2034 3584 2315 3537 
Q 2597 3491 2834 3397 
z
" transform="scale(0.015625)"/>
      <path id="DejaVuSans-65" d="M 3597 1894 
L 3597 1613 
L 953 1613 
Q 991 1019 1311 708 
Q 1631 397 2203 397 
Q 2534 397 2845 478 
Q 3156 559 3463 722 
L 3463 178 
Q 3153 47 2828 -22 
Q 2503 -91 2169 -91 
Q 1331 -91 842 396 
Q 353 884 353 1716 
Q 353 2575 817 3079 
Q 1281 3584 2069 3584 
Q 2775 3584 3186 3129 
Q 3597 2675 3597 1894 
z
M 3022 2063 
Q 3016 2534 2758 2815 
Q 2500 3097 2075 3097 
Q 1594 3097 1305 2825 
Q 1016 2553 972 2059 
L 3022 2063 
z
" transform="scale(0.015625)"/>
     </defs>
     <use xlink:href="#DejaVuSans-50"/>
     <use xlink:href="#DejaVuSans-61" x="55.802734"/>
     <use xlink:href="#DejaVuSans-72" x="117.082031"/>
     <use xlink:href="#DejaVuSans-73" x="158.195312"/>
     <use xlink:href="#DejaVuSans-65" x="210.294922"/>
    </g>
   </g>
   <g id="text_14">
    <!-- FootBin -->
    <g transform="translate(361.832136 82.182641)scale(0.08 -0.08)">
     <defs>
      <path id="DejaVuSans-46" d="M 628 4666 
L 3309 4666 
L 3309 4134 
L 1259 4134 
L 1259 2759 
L 3109 2759 
L 3109 2228 
L 1259 2228 
L 1259 0 
L 628 0 
L 628 4666 
z
" transform="scale(0.015625)"/>
      <path id="DejaVuSans-6f" d="M 1959 3097 
Q 1497 3097 1228 2736 
Q 959 2375 959 1747 
Q 959 1119 1226 758 
Q 1494 397 1959 397 
Q 2419 397 2687 759 
Q 2956 1122 2956 1747 
Q 2956 2369 2687 2733 
Q 2419 3097 1959 3097 
z
M 1959 3584 
Q 2709 3584 3137 3096 
Q 3566 2609 3566 1747 
Q 3566 888 3137 398 
Q 2709 -91 1959 -91 
Q 1206 -91 779 398 
Q 353 888 353 1747 
Q 353 2609 779 3096 
Q 1206 3584 1959 3584 
z
" transform="scale(0.015625)"/>
      <path id="DejaVuSans-74" d="M 1172 4494 
L 1172 3500 
L 2356 3500 
L 2356 3053 
L 1172 3053 
L 1172 1153 
Q 1172 725 1289 603 
Q 1406 481 1766 481 
L 2356 481 
L 2356 0 
L 1766 0 
Q 1100 0 847 248 
Q 594 497 594 1153 
L 594 3053 
L 172 3053 
L 172 3500 
L 594 3500 
L 594 4494 
L 1172 4494 
z
" transform="scale(0.015625)"/>
      <path id="DejaVuSans-42" d="M 1259 2228 
L 1259 519 
L 2272 519 
Q 2781 519 3026 730 
Q 3272 941 3272 1375 
Q 3272 1813 3026 2020 
Q 2781 2228 2272 2228 
L 1259 2228 
z
M 1259 4147 
L 1259 2741 
L 2194 2741 
Q 2656 2741 2882 2914 
Q 3109 3088 3109 3444 
Q 3109 3797 2882 3972 
Q 2656 4147 2194 4147 
L 1259 4147 
z
M 628 4666 
L 2241 4666 
Q 2963 4666 3353 4366 
Q 3744 4066 3744 3513 
Q 3744 3084 3544 2831 
Q 3344 2578 2956 2516 
Q 3422 2416 3680 2098 
Q 3938 1781 3938 1306 
Q 3938 681 3513 340 
Q 3088 0 2303 0 
L 628 0 
L 628 4666 
z
" transform="scale(0.015625)"/>
      <path id="DejaVuSans-6e" d="M 3513 2113 
L 3513 0 
L 2938 0 
L 2938 2094 
Q 2938 2591 2744 2837 
Q 2550 3084 2163 3084 
Q 1697 3084 1428 2787 
Q 1159 2491 1159 1978 
L 1159 0 
L 581 0 
L 581 3500 
L 1159 3500 
L 1159 2956 
Q 1366 3272 1645 3428 
Q 1925 3584 2291 3584 
Q 2894 3584 3203 3211 
Q 3513 2838 3513 2113 
z
" transform="scale(0.015625)"/>
     </defs>
     <use xlink:href="#DejaVuSans-46"/>
     <use xlink:href="#DejaVuSans-6f" x="53.894531"/>
     <use xlink:href="#DejaVuSans-6f" x="115.076172"/>
     <use xlink:href="#DejaVuSans-74" x="176.257812"/>
     <use xlink:href="#DejaVuSans-42" x="215.466797"/>
     <use xlink:href="#DejaVuSans-69" x="284.070312"/>
     <use xlink:href="#DejaVuSans-6e" x="311.853516"/>
    </g>
   </g>
   <g id="text_15">
    <!-- WFL -->
    <g transform="translate(361.832136 80.101656)scale(0.08 -0.08)">
     <defs>
      <path id="DejaVuSans-4c" d="M 628 4666 
L 1259 4666 
L 1259 531 
L 3531 531 
L 3531 0 
L 628 0 
L 628 4666 
z
" transform="scale(0.015625)"/>
     </defs>
     <use xlink:href="#DejaVuSans-57"/>
     <use xlink:href="#DejaVuSans-46" x="98.876953"/>
     <use xlink:href="#DejaVuSans-4c" x="156.396484"/>
    </g>
   </g>
   <g id="text_16">
    <!-- WFR -->
    <g transform="translate(361.832136 65.206183)scale(0.08 -0.08)">
     <defs>
      <path id="DejaVuSans-52" d="M 2841 2188 
Q 3044 2119 3236 1894 
Q 3428 1669 3622 1275 
L 4263 0 
L 3584 0 
L 2988 1197 
Q 2756 1666 2539 1819 
Q 2322 1972 1947 1972 
L 1259 1972 
L 1259 0 
L 628 0 
L 628 4666 
L 2053 4666 
Q 2853 4666 3247 4331 
Q 3641 3997 3641 3322 
Q 3641 2881 3436 2590 
Q 3231 2300 2841 2188 
z
M 1259 4147 
L 1259 2491 
L 2053 2491 
Q 2509 2491 2742 2702 
Q 2975 2913 2975 3322 
Q 2975 3731 2742 3939 
Q 2509 4147 2053 4147 
L 1259 4147 
z
" transform="scale(0.015625)"/>
     </defs>
     <use xlink:href="#DejaVuSans-57"/>
     <use xlink:href="#DejaVuSans-46" x="98.876953"/>
     <use xlink:href="#DejaVuSans-52" x="156.396484"/>
    </g>
   </g>
   <g id="text_17">
    <!-- Main-L -->
    <g transform="translate(361.832136 128.840519)scale(0.08 -0.08)">
     <defs>
      <path id="DejaVuSans-4d" d="M 628 4666 
L 1569 4666 
L 2759 1491 
L 3956 4666 
L 4897 4666 
L 4897 0 
L 4281 0 
L 4281 4097 
L 3078 897 
L 2444 897 
L 1241 4097 
L 1241 0 
L 628 0 
L 628 4666 
z
" transform="scale(0.015625)"/>
      <path id="DejaVuSans-2d" d="M 313 2009 
L 1997 2009 
L 1997 1497 
L 313 1497 
L 313 2009 
z
" transform="scale(0.015625)"/>
     </defs>
     <use xlink:href="#DejaVuSans-4d"/>
     <use xlink:href="#DejaVuSans-61" x="86.279297"/>
     <use xlink:href="#DejaVuSans-69" x="147.558594"/>
     <use xlink:href="#DejaVuSans-6e" x="175.341797"/>
     <use xlink:href="#DejaVuSans-2d" x="238.720703"/>
     <use xlink:href="#DejaVuSans-4c" x="274.804688"/>
    </g>
   </g>
   <g id="text_18">
    <!-- Main-R -->
    <g transform="translate(361.832136 59.729907)scale(0.08 -0.08)">
     <use xlink:href="#DejaVuSans-4d"/>
     <use xlink:href="#DejaVuSans-61" x="86.279297"/>
     <use xlink:href="#DejaVuSans-69" x="147.558594"/>
     <use xlink:href="#DejaVuSans-6e" x="175.341797"/>
     <use xlink:href="#DejaVuSans-2d" x="238.720703"/>
     <use xlink:href="#DejaVuSans-52" x="274.804688"/>
    </g>
   </g>
   <g id="text_19">
    <!-- AFL -->
    <g transform="translate(361.832136 120.078476)scale(0.08 -0.08)">
     <defs>
      <path id="DejaVuSans-41" d="M 2188 4044 
L 1331 1722 
L 3047 1722 
L 2188 4044 
z
M 1831 4666 
L 2547 4666 
L 4325 0 
L 3669 0 
L 3244 1197 
L 1141 1197 
L 716 0 
L 50 0 
L 1831 4666 
z
" transform="scale(0.015625)"/>
     </defs>
     <use xlink:href="#DejaVuSans-41"/>
     <use xlink:href="#DejaVuSans-46" x="68.408203"/>
     <use xlink:href="#DejaVuSans-4c" x="125.927734"/>
    </g>
   </g>
   <g id="text_20">
    <!-- AFR -->
    <g transform="translate(361.832136 151.457541)scale(0.08 -0.08)">
     <use xlink:href="#DejaVuSans-41"/>
     <use xlink:href="#DejaVuSans-46" x="68.408203"/>
     <use xlink:href="#DejaVuSans-52" x="125.927734"/>
    </g>
   </g>
   <g id="text_21">
    <!-- Nonfinal -->
    <g transform="translate(361.832136 90.506582)scale(0.08 -0.08)">
     <defs>
      <path id="DejaVuSans-4e" d="M 628 4666 
L 1478 4666 
L 3547 763 
L 3547 4666 
L 4159 4666 
L 4159 0 
L 3309 0 
L 1241 3903 
L 1241 0 
L 628 0 
L 628 4666 
z
" transform="scale(0.015625)"/>
      <path id="DejaVuSans-66" d="M 2375 4863 
L 2375 4384 
L 1825 4384 
Q 1516 4384 1395 4259 
Q 1275 4134 1275 3809 
L 1275 3500 
L 2222 3500 
L 2222 3053 
L 1275 3053 
L 1275 0 
L 697 0 
L 697 3053 
L 147 3053 
L 147 3500 
L 697 3500 
L 697 3744 
Q 697 4328 969 4595 
Q 1241 4863 1831 4863 
L 2375 4863 
z
" transform="scale(0.015625)"/>
      <path id="DejaVuSans-6c" d="M 603 4863 
L 1178 4863 
L 1178 0 
L 603 0 
L 603 4863 
z
" transform="scale(0.015625)"/>
     </defs>
     <use xlink:href="#DejaVuSans-4e"/>
     <use xlink:href="#DejaVuSans-6f" x="74.804688"/>
     <use xlink:href="#DejaVuSans-6e" x="135.986328"/>
     <use xlink:href="#DejaVuSans-66" x="199.365234"/>
     <use xlink:href="#DejaVuSans-69" x="234.570312"/>
     <use xlink:href="#DejaVuSans-6e" x="262.353516"/>
     <use xlink:href="#DejaVuSans-61" x="325.732422"/>
     <use xlink:href="#DejaVuSans-6c" x="387.011719"/>
    </g>
   </g>
   <g id="text_22">
    <!-- Trochaic -->
    <g transform="translate(361.832136 152.662322)scale(0.08 -0.08)">
     <defs>
      <path id="DejaVuSans-54" d="M -19 4666 
L 3928 4666 
L 3928 4134 
L 2272 4134 
L 2272 0 
L 1638 0 
L 1638 4134 
L -19 4134 
L -19 4666 
z
" transform="scale(0.015625)"/>
      <path id="DejaVuSans-68" d="M 3513 2113 
L 3513 0 
L 2938 0 
L 2938 2094 
Q 2938 2591 2744 2837 
Q 2550 3084 2163 3084 
Q 1697 3084 1428 2787 
Q 1159 2491 1159 1978 
L 1159 0 
L 581 0 
L 581 4863 
L 1159 4863 
L 1159 2956 
Q 1366 3272 1645 3428 
Q 1925 3584 2291 3584 
Q 2894 3584 3203 3211 
Q 3513 2838 3513 2113 
z
" transform="scale(0.015625)"/>
     </defs>
     <use xlink:href="#DejaVuSans-54"/>
     <use xlink:href="#DejaVuSans-72" x="46.333984"/>
     <use xlink:href="#DejaVuSans-6f" x="85.197266"/>
     <use xlink:href="#DejaVuSans-63" x="146.378906"/>
     <use xlink:href="#DejaVuSans-68" x="201.359375"/>
     <use xlink:href="#DejaVuSans-61" x="264.738281"/>
     <use xlink:href="#DejaVuSans-69" x="326.017578"/>
     <use xlink:href="#DejaVuSans-63" x="353.800781"/>
    </g>
   </g>
  </g>
  <g id="axes_2">
   <g id="patch_7">
    <path d="M 57.6 307.584 
L 414.72 307.584 
L 414.72 186.624 
L 57.6 186.624 
z
" style="fill: #ffffff"/>
   </g>
   <g id="matplotlib.axis_3">
    <g id="xtick_8">
     <g id="line2d_23">
      <g>
       <use xlink:href="#m6b461a312c" x="70.586182" y="307.584" style="stroke: #000000; stroke-width: 0.8"/>
      </g>
     </g>
     <g id="text_23">
      <!-- 0 -->
      <g transform="translate(67.404932 322.182437)scale(0.1 -0.1)">
       <use xlink:href="#DejaVuSans-30"/>
      </g>
     </g>
    </g>
    <g id="xtick_9">
     <g id="line2d_24">
      <g>
       <use xlink:href="#m6b461a312c" x="135.517091" y="307.584" style="stroke: #000000; stroke-width: 0.8"/>
      </g>
     </g>
     <g id="text_24">
      <!-- 20 -->
      <g transform="translate(129.154591 322.182437)scale(0.1 -0.1)">
       <use xlink:href="#DejaVuSans-32"/>
       <use xlink:href="#DejaVuSans-30" x="63.623047"/>
      </g>
     </g>
    </g>
    <g id="xtick_10">
     <g id="line2d_25">
      <g>
       <use xlink:href="#m6b461a312c" x="200.448" y="307.584" style="stroke: #000000; stroke-width: 0.8"/>
      </g>
     </g>
     <g id="text_25">
      <!-- 40 -->
      <g transform="translate(194.0855 322.182437)scale(0.1 -0.1)">
       <use xlink:href="#DejaVuSans-34"/>
       <use xlink:href="#DejaVuSans-30" x="63.623047"/>
      </g>
     </g>
    </g>
    <g id="xtick_11">
     <g id="line2d_26">
      <g>
       <use xlink:href="#m6b461a312c" x="265.378909" y="307.584" style="stroke: #000000; stroke-width: 0.8"/>
      </g>
     </g>
     <g id="text_26">
      <!-- 60 -->
      <g transform="translate(259.016409 322.182437)scale(0.1 -0.1)">
       <use xlink:href="#DejaVuSans-36"/>
       <use xlink:href="#DejaVuSans-30" x="63.623047"/>
      </g>
     </g>
    </g>
    <g id="xtick_12">
     <g id="line2d_27">
      <g>
       <use xlink:href="#m6b461a312c" x="330.309818" y="307.584" style="stroke: #000000; stroke-width: 0.8"/>
      </g>
     </g>
     <g id="text_27">
      <!-- 80 -->
      <g transform="translate(323.947318 322.182437)scale(0.1 -0.1)">
       <use xlink:href="#DejaVuSans-38"/>
       <use xlink:href="#DejaVuSans-30" x="63.623047"/>
      </g>
     </g>
    </g>
    <g id="xtick_13">
     <g id="line2d_28">
      <g>
       <use xlink:href="#m6b461a312c" x="395.240727" y="307.584" style="stroke: #000000; stroke-width: 0.8"/>
      </g>
     </g>
     <g id="text_28">
      <!-- 100 -->
      <g transform="translate(385.696977 322.182437)scale(0.1 -0.1)">
       <use xlink:href="#DejaVuSans-31"/>
       <use xlink:href="#DejaVuSans-30" x="63.623047"/>
       <use xlink:href="#DejaVuSans-30" x="127.246094"/>
      </g>
     </g>
    </g>
   </g>
   <g id="matplotlib.axis_4">
    <g id="ytick_4">
     <g id="line2d_29">
      <g>
       <use xlink:href="#m717ff975cb" x="57.6" y="302.092239" style="stroke: #000000; stroke-width: 0.8"/>
      </g>
     </g>
     <g id="text_29">
      <!-- 0 -->
      <g transform="translate(44.2375 305.891458)scale(0.1 -0.1)">
       <use xlink:href="#DejaVuSans-30"/>
      </g>
     </g>
    </g>
    <g id="ytick_5">
     <g id="line2d_30">
      <g>
       <use xlink:href="#m717ff975cb" x="57.6" y="269.986068" style="stroke: #000000; stroke-width: 0.8"/>
      </g>
     </g>
     <g id="text_30">
      <!-- 5000 -->
      <g transform="translate(25.15 273.785287)scale(0.1 -0.1)">
       <use xlink:href="#DejaVuSans-35"/>
       <use xlink:href="#DejaVuSans-30" x="63.623047"/>
       <use xlink:href="#DejaVuSans-30" x="127.246094"/>
       <use xlink:href="#DejaVuSans-30" x="190.869141"/>
      </g>
     </g>
    </g>
    <g id="ytick_6">
     <g id="line2d_31">
      <g>
       <use xlink:href="#m717ff975cb" x="57.6" y="237.879897" style="stroke: #000000; stroke-width: 0.8"/>
      </g>
     </g>
     <g id="text_31">
      <!-- 10000 -->
      <g transform="translate(18.7875 241.679116)scale(0.1 -0.1)">
       <use xlink:href="#DejaVuSans-31"/>
       <use xlink:href="#DejaVuSans-30" x="63.623047"/>
       <use xlink:href="#DejaVuSans-30" x="127.246094"/>
       <use xlink:href="#DejaVuSans-30" x="190.869141"/>
       <use xlink:href="#DejaVuSans-30" x="254.492188"/>
      </g>
     </g>
    </g>
    <g id="ytick_7">
     <g id="line2d_32">
      <g>
       <use xlink:href="#m717ff975cb" x="57.6" y="205.773726" style="stroke: #000000; stroke-width: 0.8"/>
      </g>
     </g>
     <g id="text_32">
      <!-- 15000 -->
      <g transform="translate(18.7875 209.572945)scale(0.1 -0.1)">
       <use xlink:href="#DejaVuSans-31"/>
       <use xlink:href="#DejaVuSans-35" x="63.623047"/>
       <use xlink:href="#DejaVuSans-30" x="127.246094"/>
       <use xlink:href="#DejaVuSans-30" x="190.869141"/>
       <use xlink:href="#DejaVuSans-30" x="254.492188"/>
      </g>
     </g>
    </g>
   </g>
   <g id="line2d_33">
    <path d="M 73.832727 302.085818 
L 77.079273 302.085818 
L 80.325818 302.085818 
L 83.572364 302.085818 
L 86.818909 302.085818 
L 90.065455 302.085818 
L 93.312 302.085818 
L 96.558545 302.072976 
L 99.805091 302.085818 
L 103.051636 302.079397 
L 106.298182 302.085818 
L 109.544727 302.079397 
L 112.791273 302.072976 
L 116.037818 302.079397 
L 119.284364 302.085818 
L 122.530909 302.085818 
L 125.777455 302.085818 
L 129.024 302.066554 
L 132.270545 302.085818 
L 135.517091 302.085818 
L 138.763636 302.085818 
L 142.010182 302.053712 
L 145.256727 302.047291 
L 148.503273 302.072976 
L 151.749818 302.085818 
L 154.996364 302.028027 
L 158.242909 302.079397 
L 161.489455 302.085818 
L 164.736 302.047291 
L 167.982545 302.066554 
L 171.229091 302.085818 
L 174.475636 302.085818 
L 177.722182 301.899602 
L 180.968727 301.970236 
L 184.215273 302.085818 
L 187.461818 302.066554 
L 190.708364 301.777599 
L 193.954909 302.002342 
L 197.201455 301.925287 
L 200.448 301.912445 
L 203.694545 301.970236 
L 206.941091 302.04087 
L 210.187636 302.04087 
L 213.434182 302.060133 
L 216.680727 301.501486 
L 219.927273 302.047291 
L 223.173818 302.015185 
L 226.420364 301.700544 
L 229.666909 301.976657 
L 232.913455 301.983078 
L 236.16 302.047291 
L 239.406545 301.501486 
L 242.653091 301.764756 
L 245.899636 302.015185 
L 249.146182 301.231794 
L 252.392727 301.739072 
L 255.639273 301.2639 
L 258.885818 301.848233 
L 262.132364 301.963815 
L 265.378909 298.136759 
L 268.625455 302.047291 
L 271.872 301.167582 
L 275.118545 301.706965 
L 278.365091 299.665013 
L 281.611636 298.798146 
L 284.858182 301.649174 
L 288.104727 299.979653 
L 291.351273 301.764756 
L 294.597818 301.231794 
L 297.844364 301.16116 
L 301.090909 301.873917 
L 304.337455 300.666725 
L 307.584 301.21253 
L 310.830545 301.193267 
L 314.077091 295.1252 
L 317.323636 300.968523 
L 320.570182 299.941126 
L 323.816727 301.533592 
L 327.063273 301.976657 
L 330.309818 301.129054 
L 333.556364 300.454825 
L 336.802909 301.411589 
L 340.049455 299.13205 
L 343.296 299.273318 
L 346.542545 299.947547 
L 349.789091 301.379482 
L 353.035636 268.509184 
L 356.282182 301.790441 
L 359.528727 267.802849 
L 362.775273 286.48864 
L 366.021818 298.008334 
L 369.268364 301.501486 
L 372.514909 290.867922 
L 375.761455 280.202252 
L 379.008 280.414153 
L 382.254545 293.320833 
L 385.501091 296.595663 
L 388.747636 301.629911 
L 391.994182 258.530586 
L 395.240727 192.122182 
L 398.487273 301.73265 
" clip-path="url(#p8a7eae2e9a)" style="fill: none; stroke: #1f77b4; stroke-width: 1.5; stroke-linecap: square"/>
   </g>
   <g id="patch_8">
    <path d="M 57.6 307.584 
L 57.6 186.624 
" style="fill: none; stroke: #000000; stroke-width: 0.8; stroke-linejoin: miter; stroke-linecap: square"/>
   </g>
   <g id="patch_9">
    <path d="M 414.72 307.584 
L 414.72 186.624 
" style="fill: none; stroke: #000000; stroke-width: 0.8; stroke-linejoin: miter; stroke-linecap: square"/>
   </g>
   <g id="patch_10">
    <path d="M 57.6 307.584 
L 414.72 307.584 
" style="fill: none; stroke: #000000; stroke-width: 0.8; stroke-linejoin: miter; stroke-linecap: square"/>
   </g>
   <g id="patch_11">
    <path d="M 57.6 186.624 
L 414.72 186.624 
" style="fill: none; stroke: #000000; stroke-width: 0.8; stroke-linejoin: miter; stroke-linecap: square"/>
   </g>
  </g>
 </g>
 <defs>
  <clipPath id="p4184ed2ac3">
   <rect x="57.6" y="41.472" width="357.12" height="120.96"/>
  </clipPath>
  <clipPath id="p8a7eae2e9a">
   <rect x="57.6" y="186.624" width="357.12" height="120.96"/>
  </clipPath>
 </defs>
</svg>
