<?xml version="1.0" encoding="utf-8" standalone="no"?>
<!DOCTYPE svg PUBLIC "-//W3C//DTD SVG 1.1//EN"
  "http://www.w3.org/Graphics/SVG/1.1/DTD/svg11.dtd">
<svg xmlns:xlink="http://www.w3.org/1999/xlink" width="460.8pt" height="345.6pt" viewBox="0 0 460.8 345.6" xmlns="http://www.w3.org/2000/svg" version="1.1">
 <metadata>
  <rdf:RDF xmlns:dc="http://purl.org/dc/elements/1.1/" xmlns:cc="http://creativecommons.org/ns#" xmlns:rdf="http://www.w3.org/1999/02/22-rdf-syntax-ns#">
   <cc:Work>
    <dc:type rdf:resource="http://purl.org/dc/dcmitype/StillImage"/>
    <dc:date>2022-05-14T02:39:59.541690</dc:date>
    <dc:format>image/svg+xml</dc:format>
    <dc:creator>
     <cc:Agent>
      <dc:title>Matplotlib v3.5.1, https://matplotlib.org/</dc:title>
     </cc:Agent>
    </dc:creator>
   </cc:Work>
  </rdf:RDF>
 </metadata>
 <defs>
  <style type="text/css">*{stroke-linejoin: round; stroke-linecap: butt}</style>
 </defs>
 <g id="figure_1">
  <g id="patch_1">
   <path d="M 0 345.6 
L 460.8 345.6 
L 460.8 0 
L 0 0 
z
" style="fill: #ffffff"/>
  </g>
  <g id="axes_1">
   <g id="patch_2">
    <path d="M 57.6 162.432 
L 414.72 162.432 
L 414.72 41.472 
L 57.6 41.472 
z
" style="fill: #ffffff"/>
   </g>
   <g id="matplotlib.axis_1">
    <g id="xtick_1">
     <g id="line2d_1">
      <defs>
       <path id="mfe8cf06963" d="M 0 0 
L 0 3.5 
" style="stroke: #000000; stroke-width: 0.8"/>
      </defs>
      <g>
       <use xlink:href="#mfe8cf06963" x="73.827491" y="162.432" style="stroke: #000000; stroke-width: 0.8"/>
      </g>
     </g>
     <g id="text_1">
      <!-- 0 -->
      <g transform="translate(70.646241 177.030437)scale(0.1 -0.1)">
       <defs>
        <path id="DejaVuSans-30" d="M 2034 4250 
Q 1547 4250 1301 3770 
Q 1056 3291 1056 2328 
Q 1056 1369 1301 889 
Q 1547 409 2034 409 
Q 2525 409 2770 889 
Q 3016 1369 3016 2328 
Q 3016 3291 2770 3770 
Q 2525 4250 2034 4250 
z
M 2034 4750 
Q 2819 4750 3233 4129 
Q 3647 3509 3647 2328 
Q 3647 1150 3233 529 
Q 2819 -91 2034 -91 
Q 1250 -91 836 529 
Q 422 1150 422 2328 
Q 422 3509 836 4129 
Q 1250 4750 2034 4750 
z
" transform="scale(0.015625)"/>
       </defs>
       <use xlink:href="#DejaVuSans-30"/>
      </g>
     </g>
    </g>
    <g id="xtick_2">
     <g id="line2d_2">
      <g>
       <use xlink:href="#mfe8cf06963" x="126.191972" y="162.432" style="stroke: #000000; stroke-width: 0.8"/>
      </g>
     </g>
     <g id="text_2">
      <!-- 10000 -->
      <g transform="translate(110.285722 177.030437)scale(0.1 -0.1)">
       <defs>
        <path id="DejaVuSans-31" d="M 794 531 
L 1825 531 
L 1825 4091 
L 703 3866 
L 703 4441 
L 1819 4666 
L 2450 4666 
L 2450 531 
L 3481 531 
L 3481 0 
L 794 0 
L 794 531 
z
" transform="scale(0.015625)"/>
       </defs>
       <use xlink:href="#DejaVuSans-31"/>
       <use xlink:href="#DejaVuSans-30" x="63.623047"/>
       <use xlink:href="#DejaVuSans-30" x="127.246094"/>
       <use xlink:href="#DejaVuSans-30" x="190.869141"/>
       <use xlink:href="#DejaVuSans-30" x="254.492188"/>
      </g>
     </g>
    </g>
    <g id="xtick_3">
     <g id="line2d_3">
      <g>
       <use xlink:href="#mfe8cf06963" x="178.556453" y="162.432" style="stroke: #000000; stroke-width: 0.8"/>
      </g>
     </g>
     <g id="text_3">
      <!-- 20000 -->
      <g transform="translate(162.650203 177.030437)scale(0.1 -0.1)">
       <defs>
        <path id="DejaVuSans-32" d="M 1228 531 
L 3431 531 
L 3431 0 
L 469 0 
L 469 531 
Q 828 903 1448 1529 
Q 2069 2156 2228 2338 
Q 2531 2678 2651 2914 
Q 2772 3150 2772 3378 
Q 2772 3750 2511 3984 
Q 2250 4219 1831 4219 
Q 1534 4219 1204 4116 
Q 875 4013 500 3803 
L 500 4441 
Q 881 4594 1212 4672 
Q 1544 4750 1819 4750 
Q 2544 4750 2975 4387 
Q 3406 4025 3406 3419 
Q 3406 3131 3298 2873 
Q 3191 2616 2906 2266 
Q 2828 2175 2409 1742 
Q 1991 1309 1228 531 
z
" transform="scale(0.015625)"/>
       </defs>
       <use xlink:href="#DejaVuSans-32"/>
       <use xlink:href="#DejaVuSans-30" x="63.623047"/>
       <use xlink:href="#DejaVuSans-30" x="127.246094"/>
       <use xlink:href="#DejaVuSans-30" x="190.869141"/>
       <use xlink:href="#DejaVuSans-30" x="254.492188"/>
      </g>
     </g>
    </g>
    <g id="xtick_4">
     <g id="line2d_4">
      <g>
       <use xlink:href="#mfe8cf06963" x="230.920934" y="162.432" style="stroke: #000000; stroke-width: 0.8"/>
      </g>
     </g>
     <g id="text_4">
      <!-- 30000 -->
      <g transform="translate(215.014684 177.030437)scale(0.1 -0.1)">
       <defs>
        <path id="DejaVuSans-33" d="M 2597 2516 
Q 3050 2419 3304 2112 
Q 3559 1806 3559 1356 
Q 3559 666 3084 287 
Q 2609 -91 1734 -91 
Q 1441 -91 1130 -33 
Q 819 25 488 141 
L 488 750 
Q 750 597 1062 519 
Q 1375 441 1716 441 
Q 2309 441 2620 675 
Q 2931 909 2931 1356 
Q 2931 1769 2642 2001 
Q 2353 2234 1838 2234 
L 1294 2234 
L 1294 2753 
L 1863 2753 
Q 2328 2753 2575 2939 
Q 2822 3125 2822 3475 
Q 2822 3834 2567 4026 
Q 2313 4219 1838 4219 
Q 1578 4219 1281 4162 
Q 984 4106 628 3988 
L 628 4550 
Q 988 4650 1302 4700 
Q 1616 4750 1894 4750 
Q 2613 4750 3031 4423 
Q 3450 4097 3450 3541 
Q 3450 3153 3228 2886 
Q 3006 2619 2597 2516 
z
" transform="scale(0.015625)"/>
       </defs>
       <use xlink:href="#DejaVuSans-33"/>
       <use xlink:href="#DejaVuSans-30" x="63.623047"/>
       <use xlink:href="#DejaVuSans-30" x="127.246094"/>
       <use xlink:href="#DejaVuSans-30" x="190.869141"/>
       <use xlink:href="#DejaVuSans-30" x="254.492188"/>
      </g>
     </g>
    </g>
    <g id="xtick_5">
     <g id="line2d_5">
      <g>
       <use xlink:href="#mfe8cf06963" x="283.285415" y="162.432" style="stroke: #000000; stroke-width: 0.8"/>
      </g>
     </g>
     <g id="text_5">
      <!-- 40000 -->
      <g transform="translate(267.379165 177.030437)scale(0.1 -0.1)">
       <defs>
        <path id="DejaVuSans-34" d="M 2419 4116 
L 825 1625 
L 2419 1625 
L 2419 4116 
z
M 2253 4666 
L 3047 4666 
L 3047 1625 
L 3713 1625 
L 3713 1100 
L 3047 1100 
L 3047 0 
L 2419 0 
L 2419 1100 
L 313 1100 
L 313 1709 
L 2253 4666 
z
" transform="scale(0.015625)"/>
       </defs>
       <use xlink:href="#DejaVuSans-34"/>
       <use xlink:href="#DejaVuSans-30" x="63.623047"/>
       <use xlink:href="#DejaVuSans-30" x="127.246094"/>
       <use xlink:href="#DejaVuSans-30" x="190.869141"/>
       <use xlink:href="#DejaVuSans-30" x="254.492188"/>
      </g>
     </g>
    </g>
    <g id="xtick_6">
     <g id="line2d_6">
      <g>
       <use xlink:href="#mfe8cf06963" x="335.649896" y="162.432" style="stroke: #000000; stroke-width: 0.8"/>
      </g>
     </g>
     <g id="text_6">
      <!-- 50000 -->
      <g transform="translate(319.743646 177.030437)scale(0.1 -0.1)">
       <defs>
        <path id="DejaVuSans-35" d="M 691 4666 
L 3169 4666 
L 3169 4134 
L 1269 4134 
L 1269 2991 
Q 1406 3038 1543 3061 
Q 1681 3084 1819 3084 
Q 2600 3084 3056 2656 
Q 3513 2228 3513 1497 
Q 3513 744 3044 326 
Q 2575 -91 1722 -91 
Q 1428 -91 1123 -41 
Q 819 9 494 109 
L 494 744 
Q 775 591 1075 516 
Q 1375 441 1709 441 
Q 2250 441 2565 725 
Q 2881 1009 2881 1497 
Q 2881 1984 2565 2268 
Q 2250 2553 1709 2553 
Q 1456 2553 1204 2497 
Q 953 2441 691 2322 
L 691 4666 
z
" transform="scale(0.015625)"/>
       </defs>
       <use xlink:href="#DejaVuSans-35"/>
       <use xlink:href="#DejaVuSans-30" x="63.623047"/>
       <use xlink:href="#DejaVuSans-30" x="127.246094"/>
       <use xlink:href="#DejaVuSans-30" x="190.869141"/>
       <use xlink:href="#DejaVuSans-30" x="254.492188"/>
      </g>
     </g>
    </g>
    <g id="xtick_7">
     <g id="line2d_7">
      <g>
       <use xlink:href="#mfe8cf06963" x="388.014377" y="162.432" style="stroke: #000000; stroke-width: 0.8"/>
      </g>
     </g>
     <g id="text_7">
      <!-- 60000 -->
      <g transform="translate(372.108127 177.030437)scale(0.1 -0.1)">
       <defs>
        <path id="DejaVuSans-36" d="M 2113 2584 
Q 1688 2584 1439 2293 
Q 1191 2003 1191 1497 
Q 1191 994 1439 701 
Q 1688 409 2113 409 
Q 2538 409 2786 701 
Q 3034 994 3034 1497 
Q 3034 2003 2786 2293 
Q 2538 2584 2113 2584 
z
M 3366 4563 
L 3366 3988 
Q 3128 4100 2886 4159 
Q 2644 4219 2406 4219 
Q 1781 4219 1451 3797 
Q 1122 3375 1075 2522 
Q 1259 2794 1537 2939 
Q 1816 3084 2150 3084 
Q 2853 3084 3261 2657 
Q 3669 2231 3669 1497 
Q 3669 778 3244 343 
Q 2819 -91 2113 -91 
Q 1303 -91 875 529 
Q 447 1150 447 2328 
Q 447 3434 972 4092 
Q 1497 4750 2381 4750 
Q 2619 4750 2861 4703 
Q 3103 4656 3366 4563 
z
" transform="scale(0.015625)"/>
       </defs>
       <use xlink:href="#DejaVuSans-36"/>
       <use xlink:href="#DejaVuSans-30" x="63.623047"/>
       <use xlink:href="#DejaVuSans-30" x="127.246094"/>
       <use xlink:href="#DejaVuSans-30" x="190.869141"/>
       <use xlink:href="#DejaVuSans-30" x="254.492188"/>
      </g>
     </g>
    </g>
   </g>
   <g id="matplotlib.axis_2">
    <g id="ytick_1">
     <g id="line2d_8">
      <defs>
       <path id="m7d7608aded" d="M 0 0 
L -3.5 0 
" style="stroke: #000000; stroke-width: 0.8"/>
      </defs>
      <g>
       <use xlink:href="#m7d7608aded" x="57.6" y="134.918965" style="stroke: #000000; stroke-width: 0.8"/>
      </g>
     </g>
     <g id="text_8">
      <!-- 80 -->
      <g transform="translate(37.875 138.718184)scale(0.1 -0.1)">
       <defs>
        <path id="DejaVuSans-38" d="M 2034 2216 
Q 1584 2216 1326 1975 
Q 1069 1734 1069 1313 
Q 1069 891 1326 650 
Q 1584 409 2034 409 
Q 2484 409 2743 651 
Q 3003 894 3003 1313 
Q 3003 1734 2745 1975 
Q 2488 2216 2034 2216 
z
M 1403 2484 
Q 997 2584 770 2862 
Q 544 3141 544 3541 
Q 544 4100 942 4425 
Q 1341 4750 2034 4750 
Q 2731 4750 3128 4425 
Q 3525 4100 3525 3541 
Q 3525 3141 3298 2862 
Q 3072 2584 2669 2484 
Q 3125 2378 3379 2068 
Q 3634 1759 3634 1313 
Q 3634 634 3220 271 
Q 2806 -91 2034 -91 
Q 1263 -91 848 271 
Q 434 634 434 1313 
Q 434 1759 690 2068 
Q 947 2378 1403 2484 
z
M 1172 3481 
Q 1172 3119 1398 2916 
Q 1625 2713 2034 2713 
Q 2441 2713 2670 2916 
Q 2900 3119 2900 3481 
Q 2900 3844 2670 4047 
Q 2441 4250 2034 4250 
Q 1625 4250 1398 4047 
Q 1172 3844 1172 3481 
z
" transform="scale(0.015625)"/>
       </defs>
       <use xlink:href="#DejaVuSans-38"/>
       <use xlink:href="#DejaVuSans-30" x="63.623047"/>
      </g>
     </g>
    </g>
    <g id="ytick_2">
     <g id="line2d_9">
      <g>
       <use xlink:href="#m7d7608aded" x="57.6" y="101.730745" style="stroke: #000000; stroke-width: 0.8"/>
      </g>
     </g>
     <g id="text_9">
      <!-- 90 -->
      <g transform="translate(37.875 105.529964)scale(0.1 -0.1)">
       <defs>
        <path id="DejaVuSans-39" d="M 703 97 
L 703 672 
Q 941 559 1184 500 
Q 1428 441 1663 441 
Q 2288 441 2617 861 
Q 2947 1281 2994 2138 
Q 2813 1869 2534 1725 
Q 2256 1581 1919 1581 
Q 1219 1581 811 2004 
Q 403 2428 403 3163 
Q 403 3881 828 4315 
Q 1253 4750 1959 4750 
Q 2769 4750 3195 4129 
Q 3622 3509 3622 2328 
Q 3622 1225 3098 567 
Q 2575 -91 1691 -91 
Q 1453 -91 1209 -44 
Q 966 3 703 97 
z
M 1959 2075 
Q 2384 2075 2632 2365 
Q 2881 2656 2881 3163 
Q 2881 3666 2632 3958 
Q 2384 4250 1959 4250 
Q 1534 4250 1286 3958 
Q 1038 3666 1038 3163 
Q 1038 2656 1286 2365 
Q 1534 2075 1959 2075 
z
" transform="scale(0.015625)"/>
       </defs>
       <use xlink:href="#DejaVuSans-39"/>
       <use xlink:href="#DejaVuSans-30" x="63.623047"/>
      </g>
     </g>
    </g>
    <g id="ytick_3">
     <g id="line2d_10">
      <g>
       <use xlink:href="#m7d7608aded" x="57.6" y="68.542525" style="stroke: #000000; stroke-width: 0.8"/>
      </g>
     </g>
     <g id="text_10">
      <!-- 100 -->
      <g transform="translate(31.5125 72.341744)scale(0.1 -0.1)">
       <use xlink:href="#DejaVuSans-31"/>
       <use xlink:href="#DejaVuSans-30" x="63.623047"/>
       <use xlink:href="#DejaVuSans-30" x="127.246094"/>
      </g>
     </g>
    </g>
   </g>
   <g id="line2d_11">
    <path d="M 73.832727 67.436251 
L 73.8432 67.436251 
L 73.979348 83.753793 
L 73.995057 80.158402 
L 74.073604 86.796046 
L 74.07884 86.796046 
L 74.141678 100.071334 
L 74.204515 98.96506 
L 74.214988 98.96506 
L 74.33019 103.943293 
L 74.340663 103.943293 
L 74.372081 102.837019 
L 74.387791 112.793485 
L 74.408737 112.793485 
L 74.424446 112.793485 
L 74.513466 119.431129 
L 74.539648 118.324855 
L 74.65485 118.324855 
L 74.770051 121.643677 
L 75.471736 121.643677 
L 75.581701 120.537403 
L 75.696903 123.856225 
L 75.911597 123.856225 
L 76.026799 127.175047 
L 76.100109 127.175047 
L 76.142001 124.962499 
L 76.147237 128.281321 
L 76.204838 128.281321 
L 76.299094 128.281321 
L 76.414296 131.600143 
L 76.440478 131.600143 
L 76.55568 134.918965 
L 77.037434 134.918965 
L 77.152635 133.812691 
L 79.697549 133.812691 
L 79.812751 133.148927 
L 83.174551 133.148927 
L 83.289753 136.467749 
L 84.331806 136.467749 
L 84.447008 139.786571 
L 85.562371 139.786571 
L 85.677573 138.680297 
L 92.53732 138.680297 
L 92.652522 137.574023 
L 94.165855 137.574023 
L 94.281057 140.892845 
L 96.160942 140.892845 
L 96.276144 144.211667 
L 96.894045 144.211667 
L 97.009247 147.530489 
L 106.67573 147.530489 
L 106.790932 146.424215 
L 113.095615 146.424215 
L 113.210817 149.743037 
L 122.212271 149.743037 
L 122.327473 148.636763 
L 126.092479 148.636763 
L 126.207681 151.955585 
L 135.98413 151.955585 
L 136.099332 150.296174 
L 149.394673 150.296174 
L 149.509875 149.1899 
L 171.052623 149.1899 
L 171.167824 148.083626 
L 173.152438 148.083626 
L 173.26764 151.402448 
L 182.091055 151.402448 
L 182.206257 150.296174 
L 272.011342 150.296174 
L 272.126544 153.614996 
L 283.353488 153.614996 
L 283.46869 156.933818 
L 305.398935 156.933818 
L 305.514137 155.827544 
L 398.487273 155.827544 
L 398.487273 155.827544 
" clip-path="url(#p434f62fece)" style="fill: none; stroke: #1f77b4; stroke-width: 1.5; stroke-linecap: square"/>
   </g>
   <g id="line2d_12">
    <path d="M 73.832727 71.861347 
L 73.837964 71.861347 
L 73.953166 68.542525 
L 75.262278 68.542525 
L 75.377479 71.861347 
L 81.67169 71.861347 
L 81.786892 75.180169 
L 197.245336 75.180169 
L 197.360538 78.498991 
L 398.487273 78.498991 
L 398.487273 78.498991 
" clip-path="url(#p434f62fece)" style="fill: none; stroke: #ff7f0e; stroke-width: 1.5; stroke-linecap: square"/>
   </g>
   <g id="line2d_13">
    <path d="M 73.832727 67.436251 
L 73.8432 67.436251 
L 73.91651 74.903601 
L 73.958402 72.967621 
L 73.979348 72.967621 
L 74.115495 66.883114 
L 74.225461 66.883114 
L 74.298771 70.201936 
L 74.309244 65.223703 
L 74.33019 65.223703 
L 74.377318 65.223703 
L 74.49252 61.904881 
L 75.099948 61.904881 
L 75.21515 58.586059 
L 75.262278 58.586059 
L 75.377479 56.926648 
L 81.67169 56.926648 
L 81.786892 55.267237 
L 94.165855 55.267237 
L 94.281057 51.948415 
L 197.245336 51.948415 
L 197.360538 50.289004 
L 360.77961 50.289004 
L 360.894812 46.970182 
L 398.487273 46.970182 
L 398.487273 46.970182 
" clip-path="url(#p434f62fece)" style="fill: none; stroke: #2ca02c; stroke-width: 1.5; stroke-linecap: square"/>
   </g>
   <g id="line2d_14">
    <path d="M 73.832727 71.861347 
L 73.853673 71.861347 
L 73.874619 71.031641 
L 73.879855 74.350464 
L 73.942693 72.137915 
L 73.984584 78.77556 
L 74.057895 77.945854 
L 74.099786 77.945854 
L 74.157387 81.264676 
L 74.209752 77.945854 
L 74.304008 77.945854 
L 74.424446 84.583498 
L 74.513466 84.583498 
L 74.644377 80.158402 
L 75.099948 80.158402 
L 75.21515 83.477224 
L 75.262278 83.477224 
L 75.377479 86.796046 
L 75.471736 86.796046 
L 75.586937 85.689772 
L 76.100109 85.689772 
L 76.220548 83.477224 
L 77.037434 83.477224 
L 77.152635 82.37095 
L 78.938264 82.37095 
L 79.053466 80.711539 
L 79.697549 80.711539 
L 79.812751 80.047775 
L 81.67169 80.047775 
L 81.786892 83.366597 
L 85.562371 83.366597 
L 85.677573 82.260323 
L 92.53732 82.260323 
L 92.652522 81.154049 
L 94.165855 81.154049 
L 94.281057 84.472871 
L 100.596213 84.472871 
L 100.711415 82.81346 
L 106.67573 82.81346 
L 106.790932 81.707186 
L 110.676376 81.707186 
L 110.791578 85.026008 
L 122.212271 85.026008 
L 122.327473 83.919734 
L 149.394673 83.919734 
L 149.509875 82.81346 
L 160.783948 82.81346 
L 160.89915 81.154049 
L 171.052623 81.154049 
L 171.167824 80.047775 
L 197.245336 80.047775 
L 197.360538 83.366597 
L 290.33891 83.366597 
L 290.454112 81.707186 
L 305.398935 81.707186 
L 305.514137 80.600912 
L 360.77961 80.600912 
L 360.894812 83.919734 
L 398.487273 83.919734 
L 398.487273 83.919734 
" clip-path="url(#p434f62fece)" style="fill: none; stroke: #d62728; stroke-width: 1.5; stroke-linecap: square"/>
   </g>
   <g id="line2d_15">
    <path d="M 73.832727 67.436251 
L 73.874619 67.436251 
L 73.91651 74.073895 
L 73.984584 69.37223 
L 73.995057 69.37223 
L 74.110259 72.691052 
L 74.225461 72.691052 
L 74.340663 76.009875 
L 79.697549 76.009875 
L 79.812751 79.328697 
L 110.676376 79.328697 
L 110.791578 77.669286 
L 398.487273 77.669286 
L 398.487273 77.669286 
" clip-path="url(#p434f62fece)" style="fill: none; stroke: #9467bd; stroke-width: 1.5; stroke-linecap: square"/>
   </g>
   <g id="line2d_16">
    <path d="M 73.832727 68.542525 
L 73.848437 68.542525 
L 73.974111 66.053408 
L 73.995057 66.053408 
L 74.110259 64.947134 
L 79.697549 64.947134 
L 79.812751 64.28337 
L 398.487273 64.28337 
L 398.487273 64.28337 
" clip-path="url(#p434f62fece)" style="fill: none; stroke: #8c564b; stroke-width: 1.5; stroke-linecap: square"/>
   </g>
   <g id="line2d_17">
    <path d="M 73.832727 71.861347 
L 73.848437 71.861347 
L 73.974111 98.411923 
L 73.995057 96.475944 
L 74.036949 96.475944 
L 74.157387 88.732026 
L 74.283062 98.688492 
L 74.298771 98.688492 
L 74.340663 102.007314 
L 74.387791 97.029081 
L 74.4035 97.029081 
L 74.508229 97.029081 
L 74.513466 95.922807 
L 74.576303 102.560451 
L 74.592012 102.560451 
L 74.628667 102.560451 
L 74.743869 105.879273 
L 74.796234 105.879273 
L 74.916672 102.560451 
L 75.262278 102.560451 
L 75.377479 105.879273 
L 75.911597 105.879273 
L 76.026799 104.772999 
L 76.126292 104.772999 
L 76.142001 108.091821 
L 76.236257 106.985547 
L 76.398587 106.985547 
L 76.513789 105.326136 
L 76.875104 105.326136 
L 76.990305 103.666725 
L 77.037434 103.666725 
L 77.152635 106.985547 
L 79.697549 106.985547 
L 79.812751 110.304369 
L 81.67169 110.304369 
L 81.786892 113.623191 
L 85.562371 113.623191 
L 85.677573 116.942013 
L 96.894045 116.942013 
L 97.009247 115.835739 
L 110.676376 115.835739 
L 110.791578 119.154561 
L 113.095615 119.154561 
L 113.210817 118.048287 
L 126.092479 118.048287 
L 126.207681 116.942013 
L 149.394673 116.942013 
L 149.509875 120.260835 
L 160.783948 120.260835 
L 160.89915 123.579657 
L 173.152438 123.579657 
L 173.26764 122.473383 
L 182.091055 122.473383 
L 182.206257 121.367109 
L 283.353488 121.367109 
L 283.46869 120.260835 
L 290.33891 120.260835 
L 290.454112 123.579657 
L 305.398935 123.579657 
L 305.514137 126.898479 
L 398.487273 126.898479 
L 398.487273 126.898479 
" clip-path="url(#p434f62fece)" style="fill: none; stroke: #e377c2; stroke-width: 1.5; stroke-linecap: square"/>
   </g>
   <g id="line2d_18">
    <path d="M 73.832727 68.542525 
L 73.848437 68.542525 
L 74.00553 60.798607 
L 74.225461 60.798607 
L 74.340663 59.139196 
L 79.697549 59.139196 
L 79.812751 58.475431 
L 398.487273 58.475431 
L 398.487273 58.475431 
" clip-path="url(#p434f62fece)" style="fill: none; stroke: #7f7f7f; stroke-width: 1.5; stroke-linecap: square"/>
   </g>
   <g id="line2d_19">
    <path d="M 73.832727 71.861347 
L 73.8432 71.861347 
L 73.848437 70.755073 
L 73.879855 78.77556 
L 73.906038 77.669286 
L 74.036949 96.752512 
L 74.042185 95.093101 
L 74.068367 95.093101 
L 74.157387 90.668005 
L 74.105023 96.199375 
L 74.173096 93.986827 
L 74.288298 98.96506 
L 74.298771 98.96506 
L 74.340663 105.602704 
L 74.413973 103.943293 
L 74.424446 103.943293 
L 74.513466 96.199375 
L 74.539648 99.518197 
L 74.571066 99.518197 
L 74.65485 106.155841 
L 74.686268 104.49643 
L 74.796234 104.49643 
L 74.916672 101.177608 
L 74.927145 101.177608 
L 75.042347 97.858786 
L 75.099948 97.858786 
L 75.21515 101.177608 
L 75.262278 101.177608 
L 75.377479 104.49643 
L 75.471736 104.49643 
L 75.581701 107.815252 
L 75.696903 106.155841 
L 75.911597 106.155841 
L 76.026799 105.049567 
L 76.100109 105.049567 
L 76.142001 111.687211 
L 76.215311 110.580937 
L 76.299094 110.580937 
L 76.419533 107.262115 
L 76.440478 107.262115 
L 76.55568 103.943293 
L 76.875104 103.943293 
L 76.990305 102.283882 
L 77.037434 102.283882 
L 77.152635 105.602704 
L 78.938264 105.602704 
L 79.053466 108.921526 
L 79.697549 108.921526 
L 79.812751 112.240348 
L 79.880825 112.240348 
L 79.996027 108.921526 
L 80.037918 108.921526 
L 80.15312 105.602704 
L 81.67169 105.602704 
L 81.786892 108.921526 
L 83.174551 108.921526 
L 83.289753 105.602704 
L 84.331806 105.602704 
L 84.447008 103.943293 
L 85.562371 103.943293 
L 85.677573 107.262115 
L 86.782463 107.262115 
L 86.897665 103.943293 
L 92.53732 103.943293 
L 92.652522 107.262115 
L 94.165855 107.262115 
L 94.281057 110.580937 
L 96.160942 110.580937 
L 96.276144 108.921526 
L 96.894045 108.921526 
L 97.009247 107.815252 
L 100.596213 107.815252 
L 100.711415 111.134074 
L 101.407863 111.134074 
L 101.523065 107.815252 
L 106.67573 107.815252 
L 106.790932 111.134074 
L 110.676376 111.134074 
L 110.791578 114.452896 
L 113.095615 114.452896 
L 113.210817 113.346622 
L 122.149434 113.346622 
L 122.212271 110.0278 
L 122.259399 113.346622 
L 126.092479 113.346622 
L 126.207681 112.240348 
L 135.98413 112.240348 
L 136.099332 110.580937 
L 149.394673 110.580937 
L 149.509875 113.899759 
L 153.536704 113.899759 
L 153.651906 110.580937 
L 160.783948 110.580937 
L 160.89915 113.899759 
L 171.052623 113.899759 
L 171.167824 117.218581 
L 173.152438 117.218581 
L 173.26764 116.112307 
L 177.791931 116.112307 
L 177.907133 112.793485 
L 182.091055 112.793485 
L 182.206257 111.687211 
L 197.245336 111.687211 
L 197.360538 115.006033 
L 272.011342 115.006033 
L 272.126544 111.687211 
L 283.353488 111.687211 
L 283.46869 110.580937 
L 290.33891 110.580937 
L 290.454112 113.899759 
L 305.398935 113.899759 
L 305.514137 117.218581 
L 360.77961 117.218581 
L 360.894812 120.537403 
L 398.487273 120.537403 
L 398.487273 120.537403 
" clip-path="url(#p434f62fece)" style="fill: none; stroke: #bcbd22; stroke-width: 1.5; stroke-linecap: square"/>
   </g>
   <g id="line2d_20">
    <path d="M 73.832727 71.861347 
L 73.8432 71.861347 
L 73.853673 70.755073 
L 73.890328 79.605265 
L 73.91651 77.392717 
L 74.052658 96.199375 
L 74.068367 96.199375 
L 74.099786 93.986827 
L 74.146914 101.177608 
L 74.152151 101.177608 
L 74.157387 101.177608 
L 74.283062 96.199375 
L 74.298771 96.199375 
L 74.434919 113.899759 
L 74.445392 113.899759 
L 74.508229 117.218581 
L 74.555357 115.006033 
L 74.571066 115.006033 
L 74.696741 110.0278 
L 74.796234 110.0278 
L 74.916672 116.665444 
L 74.927145 116.665444 
L 75.042347 119.984266 
L 75.099948 119.984266 
L 75.21515 123.303088 
L 75.262278 123.303088 
L 75.377479 126.62191 
L 75.471736 126.62191 
L 75.592174 123.856225 
L 75.911597 123.856225 
L 76.026799 122.749951 
L 76.100109 122.749951 
L 76.225784 119.431129 
L 76.299094 119.431129 
L 76.398587 117.771718 
L 76.403823 121.09054 
L 76.440478 121.09054 
L 76.55568 124.409362 
L 76.875104 124.409362 
L 76.990305 127.728184 
L 77.037434 127.728184 
L 77.152635 126.62191 
L 78.938264 126.62191 
L 79.053466 124.962499 
L 79.697549 124.962499 
L 79.812751 124.298735 
L 79.880825 124.298735 
L 79.996027 127.617557 
L 80.037918 127.617557 
L 80.15312 130.936379 
L 81.67169 130.936379 
L 81.786892 134.255201 
L 83.174551 134.255201 
L 83.289753 137.574023 
L 84.331806 137.574023 
L 84.447008 135.914612 
L 85.562371 135.914612 
L 85.677573 134.808338 
L 86.782463 134.808338 
L 86.897665 138.12716 
L 92.53732 138.12716 
L 92.652522 137.020886 
L 94.165855 137.020886 
L 94.281057 140.339708 
L 96.160942 140.339708 
L 96.276144 138.680297 
L 96.894045 138.680297 
L 97.009247 137.574023 
L 100.596213 137.574023 
L 100.711415 135.914612 
L 101.407863 135.914612 
L 101.523065 139.233434 
L 106.67573 139.233434 
L 106.790932 138.12716 
L 110.676376 138.12716 
L 110.791578 141.445982 
L 113.095615 141.445982 
L 113.210817 140.339708 
L 122.149434 140.339708 
L 122.212271 143.65853 
L 122.259399 142.552256 
L 126.092479 142.552256 
L 126.207681 141.445982 
L 135.98413 141.445982 
L 136.099332 144.764804 
L 149.394673 144.764804 
L 149.509875 143.65853 
L 153.536704 143.65853 
L 153.651906 146.977352 
L 160.783948 146.977352 
L 160.89915 145.317941 
L 171.052623 145.317941 
L 171.167824 144.211667 
L 173.152438 144.211667 
L 173.26764 143.105393 
L 177.791931 143.105393 
L 177.907133 146.424215 
L 182.091055 146.424215 
L 182.206257 149.743037 
L 197.245336 149.743037 
L 197.360538 153.061859 
L 272.011342 153.061859 
L 272.126544 156.380681 
L 283.353488 156.380681 
L 283.46869 155.274407 
L 290.33891 155.274407 
L 290.454112 153.614996 
L 305.398935 153.614996 
L 305.514137 152.508722 
L 360.77961 152.508722 
L 360.894812 155.827544 
L 398.487273 155.827544 
L 398.487273 155.827544 
" clip-path="url(#p434f62fece)" style="fill: none; stroke: #17becf; stroke-width: 1.5; stroke-linecap: square"/>
   </g>
   <g id="line2d_21">
    <path d="M 73.832727 68.542525 
L 73.848437 68.542525 
L 73.974111 78.498991 
L 73.995057 78.498991 
L 74.110259 81.817813 
L 79.697549 81.817813 
L 79.812751 85.136635 
L 398.487273 85.136635 
L 398.487273 85.136635 
" clip-path="url(#p434f62fece)" style="fill: none; stroke: #1f77b4; stroke-width: 1.5; stroke-linecap: square"/>
   </g>
   <g id="line2d_22">
    <path d="M 73.832727 68.542525 
L 73.837964 68.542525 
L 73.984584 92.050848 
L 74.068367 92.050848 
L 74.199279 105.326136 
L 74.214988 105.326136 
L 74.225461 108.644958 
L 74.324953 106.985547 
L 74.372081 106.985547 
L 74.49252 113.623191 
L 74.508229 113.623191 
L 74.623431 116.942013 
L 74.65485 116.942013 
L 74.770051 120.260835 
L 75.262278 120.260835 
L 75.377479 118.601424 
L 75.581701 118.601424 
L 75.696903 121.920246 
L 75.911597 121.920246 
L 76.026799 125.239068 
L 76.142001 125.239068 
L 76.257203 128.55789 
L 76.299094 128.55789 
L 76.414296 131.876712 
L 81.67169 131.876712 
L 81.786892 130.217301 
L 84.331806 130.217301 
L 84.447008 133.536123 
L 96.160942 133.536123 
L 96.276144 136.854945 
L 96.894045 136.854945 
L 97.009247 140.173767 
L 110.676376 140.173767 
L 110.791578 138.514356 
L 113.095615 138.514356 
L 113.210817 141.833178 
L 126.092479 141.833178 
L 126.207681 145.152 
L 173.152438 145.152 
L 173.26764 148.470822 
L 197.245336 148.470822 
L 197.360538 146.811411 
L 283.353488 146.811411 
L 283.46869 150.130233 
L 398.487273 150.130233 
L 398.487273 150.130233 
" clip-path="url(#p434f62fece)" style="fill: none; stroke: #ff7f0e; stroke-width: 1.5; stroke-linecap: square"/>
   </g>
   <g id="patch_3">
    <path d="M 57.6 162.432 
L 57.6 41.472 
" style="fill: none; stroke: #000000; stroke-width: 0.8; stroke-linejoin: miter; stroke-linecap: square"/>
   </g>
   <g id="patch_4">
    <path d="M 414.72 162.432 
L 414.72 41.472 
" style="fill: none; stroke: #000000; stroke-width: 0.8; stroke-linejoin: miter; stroke-linecap: square"/>
   </g>
   <g id="patch_5">
    <path d="M 57.6 162.432 
L 414.72 162.432 
" style="fill: none; stroke: #000000; stroke-width: 0.8; stroke-linejoin: miter; stroke-linecap: square"/>
   </g>
   <g id="patch_6">
    <path d="M 57.6 41.472 
L 414.72 41.472 
" style="fill: none; stroke: #000000; stroke-width: 0.8; stroke-linejoin: miter; stroke-linecap: square"/>
   </g>
   <g id="text_11">
    <!-- WSP -->
    <g transform="translate(361.832136 155.827544)scale(0.08 -0.08)">
     <defs>
      <path id="DejaVuSans-57" d="M 213 4666 
L 850 4666 
L 1831 722 
L 2809 4666 
L 3519 4666 
L 4500 722 
L 5478 4666 
L 6119 4666 
L 4947 0 
L 4153 0 
L 3169 4050 
L 2175 0 
L 1381 0 
L 213 4666 
z
" transform="scale(0.015625)"/>
      <path id="DejaVuSans-53" d="M 3425 4513 
L 3425 3897 
Q 3066 4069 2747 4153 
Q 2428 4238 2131 4238 
Q 1616 4238 1336 4038 
Q 1056 3838 1056 3469 
Q 1056 3159 1242 3001 
Q 1428 2844 1947 2747 
L 2328 2669 
Q 3034 2534 3370 2195 
Q 3706 1856 3706 1288 
Q 3706 609 3251 259 
Q 2797 -91 1919 -91 
Q 1588 -91 1214 -16 
Q 841 59 441 206 
L 441 856 
Q 825 641 1194 531 
Q 1563 422 1919 422 
Q 2459 422 2753 634 
Q 3047 847 3047 1241 
Q 3047 1584 2836 1778 
Q 2625 1972 2144 2069 
L 1759 2144 
Q 1053 2284 737 2584 
Q 422 2884 422 3419 
Q 422 4038 858 4394 
Q 1294 4750 2059 4750 
Q 2388 4750 2728 4690 
Q 3069 4631 3425 4513 
z
" transform="scale(0.015625)"/>
      <path id="DejaVuSans-50" d="M 1259 4147 
L 1259 2394 
L 2053 2394 
Q 2494 2394 2734 2622 
Q 2975 2850 2975 3272 
Q 2975 3691 2734 3919 
Q 2494 4147 2053 4147 
L 1259 4147 
z
M 628 4666 
L 2053 4666 
Q 2838 4666 3239 4311 
Q 3641 3956 3641 3272 
Q 3641 2581 3239 2228 
Q 2838 1875 2053 1875 
L 1259 1875 
L 1259 0 
L 628 0 
L 628 4666 
z
" transform="scale(0.015625)"/>
     </defs>
     <use xlink:href="#DejaVuSans-57"/>
     <use xlink:href="#DejaVuSans-53" x="98.876953"/>
     <use xlink:href="#DejaVuSans-50" x="162.353516"/>
    </g>
   </g>
   <g id="text_12">
    <!-- Iambic -->
    <g transform="translate(361.832136 78.498991)scale(0.08 -0.08)">
     <defs>
      <path id="DejaVuSans-49" d="M 628 4666 
L 1259 4666 
L 1259 0 
L 628 0 
L 628 4666 
z
" transform="scale(0.015625)"/>
      <path id="DejaVuSans-61" d="M 2194 1759 
Q 1497 1759 1228 1600 
Q 959 1441 959 1056 
Q 959 750 1161 570 
Q 1363 391 1709 391 
Q 2188 391 2477 730 
Q 2766 1069 2766 1631 
L 2766 1759 
L 2194 1759 
z
M 3341 1997 
L 3341 0 
L 2766 0 
L 2766 531 
Q 2569 213 2275 61 
Q 1981 -91 1556 -91 
Q 1019 -91 701 211 
Q 384 513 384 1019 
Q 384 1609 779 1909 
Q 1175 2209 1959 2209 
L 2766 2209 
L 2766 2266 
Q 2766 2663 2505 2880 
Q 2244 3097 1772 3097 
Q 1472 3097 1187 3025 
Q 903 2953 641 2809 
L 641 3341 
Q 956 3463 1253 3523 
Q 1550 3584 1831 3584 
Q 2591 3584 2966 3190 
Q 3341 2797 3341 1997 
z
" transform="scale(0.015625)"/>
      <path id="DejaVuSans-6d" d="M 3328 2828 
Q 3544 3216 3844 3400 
Q 4144 3584 4550 3584 
Q 5097 3584 5394 3201 
Q 5691 2819 5691 2113 
L 5691 0 
L 5113 0 
L 5113 2094 
Q 5113 2597 4934 2840 
Q 4756 3084 4391 3084 
Q 3944 3084 3684 2787 
Q 3425 2491 3425 1978 
L 3425 0 
L 2847 0 
L 2847 2094 
Q 2847 2600 2669 2842 
Q 2491 3084 2119 3084 
Q 1678 3084 1418 2786 
Q 1159 2488 1159 1978 
L 1159 0 
L 581 0 
L 581 3500 
L 1159 3500 
L 1159 2956 
Q 1356 3278 1631 3431 
Q 1906 3584 2284 3584 
Q 2666 3584 2933 3390 
Q 3200 3197 3328 2828 
z
" transform="scale(0.015625)"/>
      <path id="DejaVuSans-62" d="M 3116 1747 
Q 3116 2381 2855 2742 
Q 2594 3103 2138 3103 
Q 1681 3103 1420 2742 
Q 1159 2381 1159 1747 
Q 1159 1113 1420 752 
Q 1681 391 2138 391 
Q 2594 391 2855 752 
Q 3116 1113 3116 1747 
z
M 1159 2969 
Q 1341 3281 1617 3432 
Q 1894 3584 2278 3584 
Q 2916 3584 3314 3078 
Q 3713 2572 3713 1747 
Q 3713 922 3314 415 
Q 2916 -91 2278 -91 
Q 1894 -91 1617 61 
Q 1341 213 1159 525 
L 1159 0 
L 581 0 
L 581 4863 
L 1159 4863 
L 1159 2969 
z
" transform="scale(0.015625)"/>
      <path id="DejaVuSans-69" d="M 603 3500 
L 1178 3500 
L 1178 0 
L 603 0 
L 603 3500 
z
M 603 4863 
L 1178 4863 
L 1178 4134 
L 603 4134 
L 603 4863 
z
" transform="scale(0.015625)"/>
      <path id="DejaVuSans-63" d="M 3122 3366 
L 3122 2828 
Q 2878 2963 2633 3030 
Q 2388 3097 2138 3097 
Q 1578 3097 1268 2742 
Q 959 2388 959 1747 
Q 959 1106 1268 751 
Q 1578 397 2138 397 
Q 2388 397 2633 464 
Q 2878 531 3122 666 
L 3122 134 
Q 2881 22 2623 -34 
Q 2366 -91 2075 -91 
Q 1284 -91 818 406 
Q 353 903 353 1747 
Q 353 2603 823 3093 
Q 1294 3584 2113 3584 
Q 2378 3584 2631 3529 
Q 2884 3475 3122 3366 
z
" transform="scale(0.015625)"/>
     </defs>
     <use xlink:href="#DejaVuSans-49"/>
     <use xlink:href="#DejaVuSans-61" x="29.492188"/>
     <use xlink:href="#DejaVuSans-6d" x="90.771484"/>
     <use xlink:href="#DejaVuSans-62" x="188.183594"/>
     <use xlink:href="#DejaVuSans-69" x="251.660156"/>
     <use xlink:href="#DejaVuSans-63" x="279.443359"/>
    </g>
   </g>
   <g id="text_13">
    <!-- Parse -->
    <g transform="translate(361.832136 46.970182)scale(0.08 -0.08)">
     <defs>
      <path id="DejaVuSans-72" d="M 2631 2963 
Q 2534 3019 2420 3045 
Q 2306 3072 2169 3072 
Q 1681 3072 1420 2755 
Q 1159 2438 1159 1844 
L 1159 0 
L 581 0 
L 581 3500 
L 1159 3500 
L 1159 2956 
Q 1341 3275 1631 3429 
Q 1922 3584 2338 3584 
Q 2397 3584 2469 3576 
Q 2541 3569 2628 3553 
L 2631 2963 
z
" transform="scale(0.015625)"/>
      <path id="DejaVuSans-73" d="M 2834 3397 
L 2834 2853 
Q 2591 2978 2328 3040 
Q 2066 3103 1784 3103 
Q 1356 3103 1142 2972 
Q 928 2841 928 2578 
Q 928 2378 1081 2264 
Q 1234 2150 1697 2047 
L 1894 2003 
Q 2506 1872 2764 1633 
Q 3022 1394 3022 966 
Q 3022 478 2636 193 
Q 2250 -91 1575 -91 
Q 1294 -91 989 -36 
Q 684 19 347 128 
L 347 722 
Q 666 556 975 473 
Q 1284 391 1588 391 
Q 1994 391 2212 530 
Q 2431 669 2431 922 
Q 2431 1156 2273 1281 
Q 2116 1406 1581 1522 
L 1381 1569 
Q 847 1681 609 1914 
Q 372 2147 372 2553 
Q 372 3047 722 3315 
Q 1072 3584 1716 3584 
Q 2034 3584 2315 3537 
Q 2597 3491 2834 3397 
z
" transform="scale(0.015625)"/>
      <path id="DejaVuSans-65" d="M 3597 1894 
L 3597 1613 
L 953 1613 
Q 991 1019 1311 708 
Q 1631 397 2203 397 
Q 2534 397 2845 478 
Q 3156 559 3463 722 
L 3463 178 
Q 3153 47 2828 -22 
Q 2503 -91 2169 -91 
Q 1331 -91 842 396 
Q 353 884 353 1716 
Q 353 2575 817 3079 
Q 1281 3584 2069 3584 
Q 2775 3584 3186 3129 
Q 3597 2675 3597 1894 
z
M 3022 2063 
Q 3016 2534 2758 2815 
Q 2500 3097 2075 3097 
Q 1594 3097 1305 2825 
Q 1016 2553 972 2059 
L 3022 2063 
z
" transform="scale(0.015625)"/>
     </defs>
     <use xlink:href="#DejaVuSans-50"/>
     <use xlink:href="#DejaVuSans-61" x="55.802734"/>
     <use xlink:href="#DejaVuSans-72" x="117.082031"/>
     <use xlink:href="#DejaVuSans-73" x="158.195312"/>
     <use xlink:href="#DejaVuSans-65" x="210.294922"/>
    </g>
   </g>
   <g id="text_14">
    <!-- FootBin -->
    <g transform="translate(361.832136 83.919734)scale(0.08 -0.08)">
     <defs>
      <path id="DejaVuSans-46" d="M 628 4666 
L 3309 4666 
L 3309 4134 
L 1259 4134 
L 1259 2759 
L 3109 2759 
L 3109 2228 
L 1259 2228 
L 1259 0 
L 628 0 
L 628 4666 
z
" transform="scale(0.015625)"/>
      <path id="DejaVuSans-6f" d="M 1959 3097 
Q 1497 3097 1228 2736 
Q 959 2375 959 1747 
Q 959 1119 1226 758 
Q 1494 397 1959 397 
Q 2419 397 2687 759 
Q 2956 1122 2956 1747 
Q 2956 2369 2687 2733 
Q 2419 3097 1959 3097 
z
M 1959 3584 
Q 2709 3584 3137 3096 
Q 3566 2609 3566 1747 
Q 3566 888 3137 398 
Q 2709 -91 1959 -91 
Q 1206 -91 779 398 
Q 353 888 353 1747 
Q 353 2609 779 3096 
Q 1206 3584 1959 3584 
z
" transform="scale(0.015625)"/>
      <path id="DejaVuSans-74" d="M 1172 4494 
L 1172 3500 
L 2356 3500 
L 2356 3053 
L 1172 3053 
L 1172 1153 
Q 1172 725 1289 603 
Q 1406 481 1766 481 
L 2356 481 
L 2356 0 
L 1766 0 
Q 1100 0 847 248 
Q 594 497 594 1153 
L 594 3053 
L 172 3053 
L 172 3500 
L 594 3500 
L 594 4494 
L 1172 4494 
z
" transform="scale(0.015625)"/>
      <path id="DejaVuSans-42" d="M 1259 2228 
L 1259 519 
L 2272 519 
Q 2781 519 3026 730 
Q 3272 941 3272 1375 
Q 3272 1813 3026 2020 
Q 2781 2228 2272 2228 
L 1259 2228 
z
M 1259 4147 
L 1259 2741 
L 2194 2741 
Q 2656 2741 2882 2914 
Q 3109 3088 3109 3444 
Q 3109 3797 2882 3972 
Q 2656 4147 2194 4147 
L 1259 4147 
z
M 628 4666 
L 2241 4666 
Q 2963 4666 3353 4366 
Q 3744 4066 3744 3513 
Q 3744 3084 3544 2831 
Q 3344 2578 2956 2516 
Q 3422 2416 3680 2098 
Q 3938 1781 3938 1306 
Q 3938 681 3513 340 
Q 3088 0 2303 0 
L 628 0 
L 628 4666 
z
" transform="scale(0.015625)"/>
      <path id="DejaVuSans-6e" d="M 3513 2113 
L 3513 0 
L 2938 0 
L 2938 2094 
Q 2938 2591 2744 2837 
Q 2550 3084 2163 3084 
Q 1697 3084 1428 2787 
Q 1159 2491 1159 1978 
L 1159 0 
L 581 0 
L 581 3500 
L 1159 3500 
L 1159 2956 
Q 1366 3272 1645 3428 
Q 1925 3584 2291 3584 
Q 2894 3584 3203 3211 
Q 3513 2838 3513 2113 
z
" transform="scale(0.015625)"/>
     </defs>
     <use xlink:href="#DejaVuSans-46"/>
     <use xlink:href="#DejaVuSans-6f" x="53.894531"/>
     <use xlink:href="#DejaVuSans-6f" x="115.076172"/>
     <use xlink:href="#DejaVuSans-74" x="176.257812"/>
     <use xlink:href="#DejaVuSans-42" x="215.466797"/>
     <use xlink:href="#DejaVuSans-69" x="284.070312"/>
     <use xlink:href="#DejaVuSans-6e" x="311.853516"/>
    </g>
   </g>
   <g id="text_15">
    <!-- WFL -->
    <g transform="translate(361.832136 77.669286)scale(0.08 -0.08)">
     <defs>
      <path id="DejaVuSans-4c" d="M 628 4666 
L 1259 4666 
L 1259 531 
L 3531 531 
L 3531 0 
L 628 0 
L 628 4666 
z
" transform="scale(0.015625)"/>
     </defs>
     <use xlink:href="#DejaVuSans-57"/>
     <use xlink:href="#DejaVuSans-46" x="98.876953"/>
     <use xlink:href="#DejaVuSans-4c" x="156.396484"/>
    </g>
   </g>
   <g id="text_16">
    <!-- WFR -->
    <g transform="translate(361.832136 64.28337)scale(0.08 -0.08)">
     <defs>
      <path id="DejaVuSans-52" d="M 2841 2188 
Q 3044 2119 3236 1894 
Q 3428 1669 3622 1275 
L 4263 0 
L 3584 0 
L 2988 1197 
Q 2756 1666 2539 1819 
Q 2322 1972 1947 1972 
L 1259 1972 
L 1259 0 
L 628 0 
L 628 4666 
L 2053 4666 
Q 2853 4666 3247 4331 
Q 3641 3997 3641 3322 
Q 3641 2881 3436 2590 
Q 3231 2300 2841 2188 
z
M 1259 4147 
L 1259 2491 
L 2053 2491 
Q 2509 2491 2742 2702 
Q 2975 2913 2975 3322 
Q 2975 3731 2742 3939 
Q 2509 4147 2053 4147 
L 1259 4147 
z
" transform="scale(0.015625)"/>
     </defs>
     <use xlink:href="#DejaVuSans-57"/>
     <use xlink:href="#DejaVuSans-46" x="98.876953"/>
     <use xlink:href="#DejaVuSans-52" x="156.396484"/>
    </g>
   </g>
   <g id="text_17">
    <!-- Main-L -->
    <g transform="translate(361.832136 126.898479)scale(0.08 -0.08)">
     <defs>
      <path id="DejaVuSans-4d" d="M 628 4666 
L 1569 4666 
L 2759 1491 
L 3956 4666 
L 4897 4666 
L 4897 0 
L 4281 0 
L 4281 4097 
L 3078 897 
L 2444 897 
L 1241 4097 
L 1241 0 
L 628 0 
L 628 4666 
z
" transform="scale(0.015625)"/>
      <path id="DejaVuSans-2d" d="M 313 2009 
L 1997 2009 
L 1997 1497 
L 313 1497 
L 313 2009 
z
" transform="scale(0.015625)"/>
     </defs>
     <use xlink:href="#DejaVuSans-4d"/>
     <use xlink:href="#DejaVuSans-61" x="86.279297"/>
     <use xlink:href="#DejaVuSans-69" x="147.558594"/>
     <use xlink:href="#DejaVuSans-6e" x="175.341797"/>
     <use xlink:href="#DejaVuSans-2d" x="238.720703"/>
     <use xlink:href="#DejaVuSans-4c" x="274.804688"/>
    </g>
   </g>
   <g id="text_18">
    <!-- Main-R -->
    <g transform="translate(361.832136 58.475431)scale(0.08 -0.08)">
     <use xlink:href="#DejaVuSans-4d"/>
     <use xlink:href="#DejaVuSans-61" x="86.279297"/>
     <use xlink:href="#DejaVuSans-69" x="147.558594"/>
     <use xlink:href="#DejaVuSans-6e" x="175.341797"/>
     <use xlink:href="#DejaVuSans-2d" x="238.720703"/>
     <use xlink:href="#DejaVuSans-52" x="274.804688"/>
    </g>
   </g>
   <g id="text_19">
    <!-- AFL -->
    <g transform="translate(361.832136 120.537403)scale(0.08 -0.08)">
     <defs>
      <path id="DejaVuSans-41" d="M 2188 4044 
L 1331 1722 
L 3047 1722 
L 2188 4044 
z
M 1831 4666 
L 2547 4666 
L 4325 0 
L 3669 0 
L 3244 1197 
L 1141 1197 
L 716 0 
L 50 0 
L 1831 4666 
z
" transform="scale(0.015625)"/>
     </defs>
     <use xlink:href="#DejaVuSans-41"/>
     <use xlink:href="#DejaVuSans-46" x="68.408203"/>
     <use xlink:href="#DejaVuSans-4c" x="125.927734"/>
    </g>
   </g>
   <g id="text_20">
    <!-- AFR -->
    <g transform="translate(361.832136 155.827544)scale(0.08 -0.08)">
     <use xlink:href="#DejaVuSans-41"/>
     <use xlink:href="#DejaVuSans-46" x="68.408203"/>
     <use xlink:href="#DejaVuSans-52" x="125.927734"/>
    </g>
   </g>
   <g id="text_21">
    <!-- Nonfinal -->
    <g transform="translate(361.832136 85.136635)scale(0.08 -0.08)">
     <defs>
      <path id="DejaVuSans-4e" d="M 628 4666 
L 1478 4666 
L 3547 763 
L 3547 4666 
L 4159 4666 
L 4159 0 
L 3309 0 
L 1241 3903 
L 1241 0 
L 628 0 
L 628 4666 
z
" transform="scale(0.015625)"/>
      <path id="DejaVuSans-66" d="M 2375 4863 
L 2375 4384 
L 1825 4384 
Q 1516 4384 1395 4259 
Q 1275 4134 1275 3809 
L 1275 3500 
L 2222 3500 
L 2222 3053 
L 1275 3053 
L 1275 0 
L 697 0 
L 697 3053 
L 147 3053 
L 147 3500 
L 697 3500 
L 697 3744 
Q 697 4328 969 4595 
Q 1241 4863 1831 4863 
L 2375 4863 
z
" transform="scale(0.015625)"/>
      <path id="DejaVuSans-6c" d="M 603 4863 
L 1178 4863 
L 1178 0 
L 603 0 
L 603 4863 
z
" transform="scale(0.015625)"/>
     </defs>
     <use xlink:href="#DejaVuSans-4e"/>
     <use xlink:href="#DejaVuSans-6f" x="74.804688"/>
     <use xlink:href="#DejaVuSans-6e" x="135.986328"/>
     <use xlink:href="#DejaVuSans-66" x="199.365234"/>
     <use xlink:href="#DejaVuSans-69" x="234.570312"/>
     <use xlink:href="#DejaVuSans-6e" x="262.353516"/>
     <use xlink:href="#DejaVuSans-61" x="325.732422"/>
     <use xlink:href="#DejaVuSans-6c" x="387.011719"/>
    </g>
   </g>
   <g id="text_22">
    <!-- Trochaic -->
    <g transform="translate(361.832136 150.130233)scale(0.08 -0.08)">
     <defs>
      <path id="DejaVuSans-54" d="M -19 4666 
L 3928 4666 
L 3928 4134 
L 2272 4134 
L 2272 0 
L 1638 0 
L 1638 4134 
L -19 4134 
L -19 4666 
z
" transform="scale(0.015625)"/>
      <path id="DejaVuSans-68" d="M 3513 2113 
L 3513 0 
L 2938 0 
L 2938 2094 
Q 2938 2591 2744 2837 
Q 2550 3084 2163 3084 
Q 1697 3084 1428 2787 
Q 1159 2491 1159 1978 
L 1159 0 
L 581 0 
L 581 4863 
L 1159 4863 
L 1159 2956 
Q 1366 3272 1645 3428 
Q 1925 3584 2291 3584 
Q 2894 3584 3203 3211 
Q 3513 2838 3513 2113 
z
" transform="scale(0.015625)"/>
     </defs>
     <use xlink:href="#DejaVuSans-54"/>
     <use xlink:href="#DejaVuSans-72" x="46.333984"/>
     <use xlink:href="#DejaVuSans-6f" x="85.197266"/>
     <use xlink:href="#DejaVuSans-63" x="146.378906"/>
     <use xlink:href="#DejaVuSans-68" x="201.359375"/>
     <use xlink:href="#DejaVuSans-61" x="264.738281"/>
     <use xlink:href="#DejaVuSans-69" x="326.017578"/>
     <use xlink:href="#DejaVuSans-63" x="353.800781"/>
    </g>
   </g>
  </g>
  <g id="axes_2">
   <g id="patch_7">
    <path d="M 57.6 307.584 
L 414.72 307.584 
L 414.72 186.624 
L 57.6 186.624 
z
" style="fill: #ffffff"/>
   </g>
   <g id="matplotlib.axis_3">
    <g id="xtick_8">
     <g id="line2d_23">
      <g>
       <use xlink:href="#mfe8cf06963" x="70.519926" y="307.584" style="stroke: #000000; stroke-width: 0.8"/>
      </g>
     </g>
     <g id="text_23">
      <!-- 0 -->
      <g transform="translate(67.338676 322.182437)scale(0.1 -0.1)">
       <use xlink:href="#DejaVuSans-30"/>
      </g>
     </g>
    </g>
    <g id="xtick_9">
     <g id="line2d_24">
      <g>
       <use xlink:href="#mfe8cf06963" x="136.775955" y="307.584" style="stroke: #000000; stroke-width: 0.8"/>
      </g>
     </g>
     <g id="text_24">
      <!-- 20 -->
      <g transform="translate(130.413455 322.182437)scale(0.1 -0.1)">
       <use xlink:href="#DejaVuSans-32"/>
       <use xlink:href="#DejaVuSans-30" x="63.623047"/>
      </g>
     </g>
    </g>
    <g id="xtick_10">
     <g id="line2d_25">
      <g>
       <use xlink:href="#mfe8cf06963" x="203.031985" y="307.584" style="stroke: #000000; stroke-width: 0.8"/>
      </g>
     </g>
     <g id="text_25">
      <!-- 40 -->
      <g transform="translate(196.669485 322.182437)scale(0.1 -0.1)">
       <use xlink:href="#DejaVuSans-34"/>
       <use xlink:href="#DejaVuSans-30" x="63.623047"/>
      </g>
     </g>
    </g>
    <g id="xtick_11">
     <g id="line2d_26">
      <g>
       <use xlink:href="#mfe8cf06963" x="269.288015" y="307.584" style="stroke: #000000; stroke-width: 0.8"/>
      </g>
     </g>
     <g id="text_26">
      <!-- 60 -->
      <g transform="translate(262.925515 322.182437)scale(0.1 -0.1)">
       <use xlink:href="#DejaVuSans-36"/>
       <use xlink:href="#DejaVuSans-30" x="63.623047"/>
      </g>
     </g>
    </g>
    <g id="xtick_12">
     <g id="line2d_27">
      <g>
       <use xlink:href="#mfe8cf06963" x="335.544045" y="307.584" style="stroke: #000000; stroke-width: 0.8"/>
      </g>
     </g>
     <g id="text_27">
      <!-- 80 -->
      <g transform="translate(329.181545 322.182437)scale(0.1 -0.1)">
       <use xlink:href="#DejaVuSans-38"/>
       <use xlink:href="#DejaVuSans-30" x="63.623047"/>
      </g>
     </g>
    </g>
    <g id="xtick_13">
     <g id="line2d_28">
      <g>
       <use xlink:href="#mfe8cf06963" x="401.800074" y="307.584" style="stroke: #000000; stroke-width: 0.8"/>
      </g>
     </g>
     <g id="text_28">
      <!-- 100 -->
      <g transform="translate(392.256324 322.182437)scale(0.1 -0.1)">
       <use xlink:href="#DejaVuSans-31"/>
       <use xlink:href="#DejaVuSans-30" x="63.623047"/>
       <use xlink:href="#DejaVuSans-30" x="127.246094"/>
      </g>
     </g>
    </g>
   </g>
   <g id="matplotlib.axis_4">
    <g id="ytick_4">
     <g id="line2d_29">
      <g>
       <use xlink:href="#m7d7608aded" x="57.6" y="302.09352" style="stroke: #000000; stroke-width: 0.8"/>
      </g>
     </g>
     <g id="text_29">
      <!-- 0 -->
      <g transform="translate(44.2375 305.892739)scale(0.1 -0.1)">
       <use xlink:href="#DejaVuSans-30"/>
      </g>
     </g>
    </g>
    <g id="ytick_5">
     <g id="line2d_30">
      <g>
       <use xlink:href="#m7d7608aded" x="57.6" y="263.582756" style="stroke: #000000; stroke-width: 0.8"/>
      </g>
     </g>
     <g id="text_30">
      <!-- 5000 -->
      <g transform="translate(25.15 267.381975)scale(0.1 -0.1)">
       <use xlink:href="#DejaVuSans-35"/>
       <use xlink:href="#DejaVuSans-30" x="63.623047"/>
       <use xlink:href="#DejaVuSans-30" x="127.246094"/>
       <use xlink:href="#DejaVuSans-30" x="190.869141"/>
      </g>
     </g>
    </g>
    <g id="ytick_6">
     <g id="line2d_31">
      <g>
       <use xlink:href="#m7d7608aded" x="57.6" y="225.071992" style="stroke: #000000; stroke-width: 0.8"/>
      </g>
     </g>
     <g id="text_31">
      <!-- 10000 -->
      <g transform="translate(18.7875 228.87121)scale(0.1 -0.1)">
       <use xlink:href="#DejaVuSans-31"/>
       <use xlink:href="#DejaVuSans-30" x="63.623047"/>
       <use xlink:href="#DejaVuSans-30" x="127.246094"/>
       <use xlink:href="#DejaVuSans-30" x="190.869141"/>
       <use xlink:href="#DejaVuSans-30" x="254.492188"/>
      </g>
     </g>
    </g>
   </g>
   <g id="line2d_32">
    <path d="M 73.832727 302.078116 
L 77.145529 302.085818 
L 80.45833 302.085818 
L 83.771132 302.085818 
L 87.083933 302.085818 
L 90.396735 302.078116 
L 93.709536 302.085818 
L 97.022338 302.078116 
L 100.335139 302.078116 
L 103.647941 302.085818 
L 106.960742 302.085818 
L 110.273544 302.085818 
L 113.586345 302.085818 
L 116.899147 302.085818 
L 120.211948 302.070414 
L 123.52475 302.085818 
L 126.837551 302.05501 
L 130.150353 302.085818 
L 133.463154 302.085818 
L 136.775955 302.085818 
L 140.088757 302.085818 
L 143.401558 302.085818 
L 146.71436 302.031903 
L 150.027161 302.047307 
L 153.339963 302.078116 
L 156.652764 302.062712 
L 159.965566 302.062712 
L 163.278367 302.085818 
L 166.591169 302.078116 
L 169.90397 302.085818 
L 173.216772 302.070414 
L 176.529573 302.070414 
L 179.842375 302.031903 
L 183.155176 302.078116 
L 186.467978 301.98569 
L 189.780779 302.085818 
L 193.093581 302.039605 
L 196.406382 302.070414 
L 199.719184 302.070414 
L 203.031985 302.085818 
L 206.344787 302.085818 
L 209.657588 302.031903 
L 212.97039 302.062712 
L 216.283191 302.001095 
L 219.595993 302.085818 
L 222.908794 302.008797 
L 226.221596 302.008797 
L 229.534397 302.05501 
L 232.847199 301.885562 
L 236.16 301.962584 
L 239.472801 302.031903 
L 242.785603 301.839349 
L 246.098404 301.854754 
L 249.411206 301.785434 
L 252.724007 301.931775 
L 256.036809 301.608285 
L 259.34961 301.816243 
L 262.662412 302.05501 
L 265.975213 302.070414 
L 269.288015 301.862456 
L 272.600816 301.947179 
L 275.913618 302.031903 
L 279.226419 301.454242 
L 282.539221 301.854754 
L 285.852022 299.297639 
L 289.164824 300.976708 
L 292.477625 301.823945 
L 295.790427 301.862456 
L 299.103228 299.690449 
L 302.41603 299.883002 
L 305.728831 300.391345 
L 309.041633 300.283514 
L 312.354434 300.298919 
L 315.667236 293.628854 
L 318.980037 299.698151 
L 322.292839 299.159 
L 325.60564 301.015219 
L 328.918442 296.648098 
L 332.231243 300.899687 
L 335.544045 294.345155 
L 338.856846 296.209076 
L 342.169647 298.535126 
L 345.482449 288.776498 
L 348.79525 302.001095 
L 352.108052 296.386225 
L 355.420853 287.544154 
L 358.733655 282.368307 
L 362.046456 296.001117 
L 365.359258 291.433741 
L 368.672059 286.989599 
L 371.984861 299.004957 
L 375.297662 295.269413 
L 378.610464 295.770053 
L 381.923265 279.80349 
L 385.236067 192.122182 
L 388.548868 285.410657 
L 391.86167 291.818848 
L 395.174471 279.942129 
L 398.487273 220.635552 
" clip-path="url(#pb418265533)" style="fill: none; stroke: #1f77b4; stroke-width: 1.5; stroke-linecap: square"/>
   </g>
   <g id="patch_8">
    <path d="M 57.6 307.584 
L 57.6 186.624 
" style="fill: none; stroke: #000000; stroke-width: 0.8; stroke-linejoin: miter; stroke-linecap: square"/>
   </g>
   <g id="patch_9">
    <path d="M 414.72 307.584 
L 414.72 186.624 
" style="fill: none; stroke: #000000; stroke-width: 0.8; stroke-linejoin: miter; stroke-linecap: square"/>
   </g>
   <g id="patch_10">
    <path d="M 57.6 307.584 
L 414.72 307.584 
" style="fill: none; stroke: #000000; stroke-width: 0.8; stroke-linejoin: miter; stroke-linecap: square"/>
   </g>
   <g id="patch_11">
    <path d="M 57.6 186.624 
L 414.72 186.624 
" style="fill: none; stroke: #000000; stroke-width: 0.8; stroke-linejoin: miter; stroke-linecap: square"/>
   </g>
  </g>
 </g>
 <defs>
  <clipPath id="p434f62fece">
   <rect x="57.6" y="41.472" width="357.12" height="120.96"/>
  </clipPath>
  <clipPath id="pb418265533">
   <rect x="57.6" y="186.624" width="357.12" height="120.96"/>
  </clipPath>
 </defs>
</svg>
