<?xml version="1.0" encoding="utf-8" standalone="no"?>
<!DOCTYPE svg PUBLIC "-//W3C//DTD SVG 1.1//EN"
  "http://www.w3.org/Graphics/SVG/1.1/DTD/svg11.dtd">
<svg xmlns:xlink="http://www.w3.org/1999/xlink" width="460.8pt" height="345.6pt" viewBox="0 0 460.8 345.6" xmlns="http://www.w3.org/2000/svg" version="1.1">
 <metadata>
  <rdf:RDF xmlns:dc="http://purl.org/dc/elements/1.1/" xmlns:cc="http://creativecommons.org/ns#" xmlns:rdf="http://www.w3.org/1999/02/22-rdf-syntax-ns#">
   <cc:Work>
    <dc:type rdf:resource="http://purl.org/dc/dcmitype/StillImage"/>
    <dc:date>2022-05-14T00:16:00.977771</dc:date>
    <dc:format>image/svg+xml</dc:format>
    <dc:creator>
     <cc:Agent>
      <dc:title>Matplotlib v3.5.1, https://matplotlib.org/</dc:title>
     </cc:Agent>
    </dc:creator>
   </cc:Work>
  </rdf:RDF>
 </metadata>
 <defs>
  <style type="text/css">*{stroke-linejoin: round; stroke-linecap: butt}</style>
 </defs>
 <g id="figure_1">
  <g id="patch_1">
   <path d="M 0 345.6 
L 460.8 345.6 
L 460.8 0 
L 0 0 
z
" style="fill: #ffffff"/>
  </g>
  <g id="axes_1">
   <g id="patch_2">
    <path d="M 57.6 162.432 
L 414.72 162.432 
L 414.72 41.472 
L 57.6 41.472 
z
" style="fill: #ffffff"/>
   </g>
   <g id="matplotlib.axis_1">
    <g id="xtick_1">
     <g id="line2d_1">
      <defs>
       <path id="m94892942e4" d="M 0 0 
L 0 3.5 
" style="stroke: #000000; stroke-width: 0.8"/>
      </defs>
      <g>
       <use xlink:href="#m94892942e4" x="73.827491" y="162.432" style="stroke: #000000; stroke-width: 0.8"/>
      </g>
     </g>
     <g id="text_1">
      <!-- 0 -->
      <g transform="translate(70.646241 177.030437)scale(0.1 -0.1)">
       <defs>
        <path id="DejaVuSans-30" d="M 2034 4250 
Q 1547 4250 1301 3770 
Q 1056 3291 1056 2328 
Q 1056 1369 1301 889 
Q 1547 409 2034 409 
Q 2525 409 2770 889 
Q 3016 1369 3016 2328 
Q 3016 3291 2770 3770 
Q 2525 4250 2034 4250 
z
M 2034 4750 
Q 2819 4750 3233 4129 
Q 3647 3509 3647 2328 
Q 3647 1150 3233 529 
Q 2819 -91 2034 -91 
Q 1250 -91 836 529 
Q 422 1150 422 2328 
Q 422 3509 836 4129 
Q 1250 4750 2034 4750 
z
" transform="scale(0.015625)"/>
       </defs>
       <use xlink:href="#DejaVuSans-30"/>
      </g>
     </g>
    </g>
    <g id="xtick_2">
     <g id="line2d_2">
      <g>
       <use xlink:href="#m94892942e4" x="126.191972" y="162.432" style="stroke: #000000; stroke-width: 0.8"/>
      </g>
     </g>
     <g id="text_2">
      <!-- 10000 -->
      <g transform="translate(110.285722 177.030437)scale(0.1 -0.1)">
       <defs>
        <path id="DejaVuSans-31" d="M 794 531 
L 1825 531 
L 1825 4091 
L 703 3866 
L 703 4441 
L 1819 4666 
L 2450 4666 
L 2450 531 
L 3481 531 
L 3481 0 
L 794 0 
L 794 531 
z
" transform="scale(0.015625)"/>
       </defs>
       <use xlink:href="#DejaVuSans-31"/>
       <use xlink:href="#DejaVuSans-30" x="63.623047"/>
       <use xlink:href="#DejaVuSans-30" x="127.246094"/>
       <use xlink:href="#DejaVuSans-30" x="190.869141"/>
       <use xlink:href="#DejaVuSans-30" x="254.492188"/>
      </g>
     </g>
    </g>
    <g id="xtick_3">
     <g id="line2d_3">
      <g>
       <use xlink:href="#m94892942e4" x="178.556453" y="162.432" style="stroke: #000000; stroke-width: 0.8"/>
      </g>
     </g>
     <g id="text_3">
      <!-- 20000 -->
      <g transform="translate(162.650203 177.030437)scale(0.1 -0.1)">
       <defs>
        <path id="DejaVuSans-32" d="M 1228 531 
L 3431 531 
L 3431 0 
L 469 0 
L 469 531 
Q 828 903 1448 1529 
Q 2069 2156 2228 2338 
Q 2531 2678 2651 2914 
Q 2772 3150 2772 3378 
Q 2772 3750 2511 3984 
Q 2250 4219 1831 4219 
Q 1534 4219 1204 4116 
Q 875 4013 500 3803 
L 500 4441 
Q 881 4594 1212 4672 
Q 1544 4750 1819 4750 
Q 2544 4750 2975 4387 
Q 3406 4025 3406 3419 
Q 3406 3131 3298 2873 
Q 3191 2616 2906 2266 
Q 2828 2175 2409 1742 
Q 1991 1309 1228 531 
z
" transform="scale(0.015625)"/>
       </defs>
       <use xlink:href="#DejaVuSans-32"/>
       <use xlink:href="#DejaVuSans-30" x="63.623047"/>
       <use xlink:href="#DejaVuSans-30" x="127.246094"/>
       <use xlink:href="#DejaVuSans-30" x="190.869141"/>
       <use xlink:href="#DejaVuSans-30" x="254.492188"/>
      </g>
     </g>
    </g>
    <g id="xtick_4">
     <g id="line2d_4">
      <g>
       <use xlink:href="#m94892942e4" x="230.920934" y="162.432" style="stroke: #000000; stroke-width: 0.8"/>
      </g>
     </g>
     <g id="text_4">
      <!-- 30000 -->
      <g transform="translate(215.014684 177.030437)scale(0.1 -0.1)">
       <defs>
        <path id="DejaVuSans-33" d="M 2597 2516 
Q 3050 2419 3304 2112 
Q 3559 1806 3559 1356 
Q 3559 666 3084 287 
Q 2609 -91 1734 -91 
Q 1441 -91 1130 -33 
Q 819 25 488 141 
L 488 750 
Q 750 597 1062 519 
Q 1375 441 1716 441 
Q 2309 441 2620 675 
Q 2931 909 2931 1356 
Q 2931 1769 2642 2001 
Q 2353 2234 1838 2234 
L 1294 2234 
L 1294 2753 
L 1863 2753 
Q 2328 2753 2575 2939 
Q 2822 3125 2822 3475 
Q 2822 3834 2567 4026 
Q 2313 4219 1838 4219 
Q 1578 4219 1281 4162 
Q 984 4106 628 3988 
L 628 4550 
Q 988 4650 1302 4700 
Q 1616 4750 1894 4750 
Q 2613 4750 3031 4423 
Q 3450 4097 3450 3541 
Q 3450 3153 3228 2886 
Q 3006 2619 2597 2516 
z
" transform="scale(0.015625)"/>
       </defs>
       <use xlink:href="#DejaVuSans-33"/>
       <use xlink:href="#DejaVuSans-30" x="63.623047"/>
       <use xlink:href="#DejaVuSans-30" x="127.246094"/>
       <use xlink:href="#DejaVuSans-30" x="190.869141"/>
       <use xlink:href="#DejaVuSans-30" x="254.492188"/>
      </g>
     </g>
    </g>
    <g id="xtick_5">
     <g id="line2d_5">
      <g>
       <use xlink:href="#m94892942e4" x="283.285415" y="162.432" style="stroke: #000000; stroke-width: 0.8"/>
      </g>
     </g>
     <g id="text_5">
      <!-- 40000 -->
      <g transform="translate(267.379165 177.030437)scale(0.1 -0.1)">
       <defs>
        <path id="DejaVuSans-34" d="M 2419 4116 
L 825 1625 
L 2419 1625 
L 2419 4116 
z
M 2253 4666 
L 3047 4666 
L 3047 1625 
L 3713 1625 
L 3713 1100 
L 3047 1100 
L 3047 0 
L 2419 0 
L 2419 1100 
L 313 1100 
L 313 1709 
L 2253 4666 
z
" transform="scale(0.015625)"/>
       </defs>
       <use xlink:href="#DejaVuSans-34"/>
       <use xlink:href="#DejaVuSans-30" x="63.623047"/>
       <use xlink:href="#DejaVuSans-30" x="127.246094"/>
       <use xlink:href="#DejaVuSans-30" x="190.869141"/>
       <use xlink:href="#DejaVuSans-30" x="254.492188"/>
      </g>
     </g>
    </g>
    <g id="xtick_6">
     <g id="line2d_6">
      <g>
       <use xlink:href="#m94892942e4" x="335.649896" y="162.432" style="stroke: #000000; stroke-width: 0.8"/>
      </g>
     </g>
     <g id="text_6">
      <!-- 50000 -->
      <g transform="translate(319.743646 177.030437)scale(0.1 -0.1)">
       <defs>
        <path id="DejaVuSans-35" d="M 691 4666 
L 3169 4666 
L 3169 4134 
L 1269 4134 
L 1269 2991 
Q 1406 3038 1543 3061 
Q 1681 3084 1819 3084 
Q 2600 3084 3056 2656 
Q 3513 2228 3513 1497 
Q 3513 744 3044 326 
Q 2575 -91 1722 -91 
Q 1428 -91 1123 -41 
Q 819 9 494 109 
L 494 744 
Q 775 591 1075 516 
Q 1375 441 1709 441 
Q 2250 441 2565 725 
Q 2881 1009 2881 1497 
Q 2881 1984 2565 2268 
Q 2250 2553 1709 2553 
Q 1456 2553 1204 2497 
Q 953 2441 691 2322 
L 691 4666 
z
" transform="scale(0.015625)"/>
       </defs>
       <use xlink:href="#DejaVuSans-35"/>
       <use xlink:href="#DejaVuSans-30" x="63.623047"/>
       <use xlink:href="#DejaVuSans-30" x="127.246094"/>
       <use xlink:href="#DejaVuSans-30" x="190.869141"/>
       <use xlink:href="#DejaVuSans-30" x="254.492188"/>
      </g>
     </g>
    </g>
    <g id="xtick_7">
     <g id="line2d_7">
      <g>
       <use xlink:href="#m94892942e4" x="388.014377" y="162.432" style="stroke: #000000; stroke-width: 0.8"/>
      </g>
     </g>
     <g id="text_7">
      <!-- 60000 -->
      <g transform="translate(372.108127 177.030437)scale(0.1 -0.1)">
       <defs>
        <path id="DejaVuSans-36" d="M 2113 2584 
Q 1688 2584 1439 2293 
Q 1191 2003 1191 1497 
Q 1191 994 1439 701 
Q 1688 409 2113 409 
Q 2538 409 2786 701 
Q 3034 994 3034 1497 
Q 3034 2003 2786 2293 
Q 2538 2584 2113 2584 
z
M 3366 4563 
L 3366 3988 
Q 3128 4100 2886 4159 
Q 2644 4219 2406 4219 
Q 1781 4219 1451 3797 
Q 1122 3375 1075 2522 
Q 1259 2794 1537 2939 
Q 1816 3084 2150 3084 
Q 2853 3084 3261 2657 
Q 3669 2231 3669 1497 
Q 3669 778 3244 343 
Q 2819 -91 2113 -91 
Q 1303 -91 875 529 
Q 447 1150 447 2328 
Q 447 3434 972 4092 
Q 1497 4750 2381 4750 
Q 2619 4750 2861 4703 
Q 3103 4656 3366 4563 
z
" transform="scale(0.015625)"/>
       </defs>
       <use xlink:href="#DejaVuSans-36"/>
       <use xlink:href="#DejaVuSans-30" x="63.623047"/>
       <use xlink:href="#DejaVuSans-30" x="127.246094"/>
       <use xlink:href="#DejaVuSans-30" x="190.869141"/>
       <use xlink:href="#DejaVuSans-30" x="254.492188"/>
      </g>
     </g>
    </g>
   </g>
   <g id="matplotlib.axis_2">
    <g id="ytick_1">
     <g id="line2d_8">
      <defs>
       <path id="mde64288c63" d="M 0 0 
L -3.5 0 
" style="stroke: #000000; stroke-width: 0.8"/>
      </defs>
      <g>
       <use xlink:href="#mde64288c63" x="57.6" y="158.891785" style="stroke: #000000; stroke-width: 0.8"/>
      </g>
     </g>
     <g id="text_8">
      <!-- 70 -->
      <g transform="translate(37.875 162.691004)scale(0.1 -0.1)">
       <defs>
        <path id="DejaVuSans-37" d="M 525 4666 
L 3525 4666 
L 3525 4397 
L 1831 0 
L 1172 0 
L 2766 4134 
L 525 4134 
L 525 4666 
z
" transform="scale(0.015625)"/>
       </defs>
       <use xlink:href="#DejaVuSans-37"/>
       <use xlink:href="#DejaVuSans-30" x="63.623047"/>
      </g>
     </g>
    </g>
    <g id="ytick_2">
     <g id="line2d_9">
      <g>
       <use xlink:href="#mde64288c63" x="57.6" y="127.140975" style="stroke: #000000; stroke-width: 0.8"/>
      </g>
     </g>
     <g id="text_9">
      <!-- 80 -->
      <g transform="translate(37.875 130.940194)scale(0.1 -0.1)">
       <defs>
        <path id="DejaVuSans-38" d="M 2034 2216 
Q 1584 2216 1326 1975 
Q 1069 1734 1069 1313 
Q 1069 891 1326 650 
Q 1584 409 2034 409 
Q 2484 409 2743 651 
Q 3003 894 3003 1313 
Q 3003 1734 2745 1975 
Q 2488 2216 2034 2216 
z
M 1403 2484 
Q 997 2584 770 2862 
Q 544 3141 544 3541 
Q 544 4100 942 4425 
Q 1341 4750 2034 4750 
Q 2731 4750 3128 4425 
Q 3525 4100 3525 3541 
Q 3525 3141 3298 2862 
Q 3072 2584 2669 2484 
Q 3125 2378 3379 2068 
Q 3634 1759 3634 1313 
Q 3634 634 3220 271 
Q 2806 -91 2034 -91 
Q 1263 -91 848 271 
Q 434 634 434 1313 
Q 434 1759 690 2068 
Q 947 2378 1403 2484 
z
M 1172 3481 
Q 1172 3119 1398 2916 
Q 1625 2713 2034 2713 
Q 2441 2713 2670 2916 
Q 2900 3119 2900 3481 
Q 2900 3844 2670 4047 
Q 2441 4250 2034 4250 
Q 1625 4250 1398 4047 
Q 1172 3844 1172 3481 
z
" transform="scale(0.015625)"/>
       </defs>
       <use xlink:href="#DejaVuSans-38"/>
       <use xlink:href="#DejaVuSans-30" x="63.623047"/>
      </g>
     </g>
    </g>
    <g id="ytick_3">
     <g id="line2d_10">
      <g>
       <use xlink:href="#mde64288c63" x="57.6" y="95.390166" style="stroke: #000000; stroke-width: 0.8"/>
      </g>
     </g>
     <g id="text_10">
      <!-- 90 -->
      <g transform="translate(37.875 99.189385)scale(0.1 -0.1)">
       <defs>
        <path id="DejaVuSans-39" d="M 703 97 
L 703 672 
Q 941 559 1184 500 
Q 1428 441 1663 441 
Q 2288 441 2617 861 
Q 2947 1281 2994 2138 
Q 2813 1869 2534 1725 
Q 2256 1581 1919 1581 
Q 1219 1581 811 2004 
Q 403 2428 403 3163 
Q 403 3881 828 4315 
Q 1253 4750 1959 4750 
Q 2769 4750 3195 4129 
Q 3622 3509 3622 2328 
Q 3622 1225 3098 567 
Q 2575 -91 1691 -91 
Q 1453 -91 1209 -44 
Q 966 3 703 97 
z
M 1959 2075 
Q 2384 2075 2632 2365 
Q 2881 2656 2881 3163 
Q 2881 3666 2632 3958 
Q 2384 4250 1959 4250 
Q 1534 4250 1286 3958 
Q 1038 3666 1038 3163 
Q 1038 2656 1286 2365 
Q 1534 2075 1959 2075 
z
" transform="scale(0.015625)"/>
       </defs>
       <use xlink:href="#DejaVuSans-39"/>
       <use xlink:href="#DejaVuSans-30" x="63.623047"/>
      </g>
     </g>
    </g>
    <g id="ytick_4">
     <g id="line2d_11">
      <g>
       <use xlink:href="#mde64288c63" x="57.6" y="63.639357" style="stroke: #000000; stroke-width: 0.8"/>
      </g>
     </g>
     <g id="text_11">
      <!-- 100 -->
      <g transform="translate(31.5125 67.438575)scale(0.1 -0.1)">
       <use xlink:href="#DejaVuSans-31"/>
       <use xlink:href="#DejaVuSans-30" x="63.623047"/>
       <use xlink:href="#DejaVuSans-30" x="127.246094"/>
      </g>
     </g>
    </g>
   </g>
   <g id="line2d_12">
    <path d="M 73.832727 62.580996 
L 73.837964 62.580996 
L 73.968875 57.818375 
L 74.010767 57.818375 
L 74.131205 55.966244 
L 74.434919 55.966244 
L 74.550121 54.907884 
L 94.265348 54.907884 
L 94.38055 53.849524 
L 100.659051 53.849524 
L 100.774253 52.261983 
L 124.804313 52.261983 
L 124.919515 50.674443 
L 247.07014 50.674443 
L 247.185341 49.086902 
L 398.487273 49.086902 
L 398.487273 49.086902 
" clip-path="url(#p78be9575a9)" style="fill: none; stroke: #1f77b4; stroke-width: 1.5; stroke-linecap: square"/>
   </g>
   <g id="line2d_13">
    <path d="M 73.832727 63.639357 
L 73.864146 63.639357 
L 73.984584 79.514761 
L 73.995057 78.456401 
L 74.000294 78.456401 
L 74.047422 84.806563 
L 74.115495 82.160662 
L 74.136441 82.160662 
L 74.157387 81.102302 
L 74.162624 84.277383 
L 74.235934 84.277383 
L 74.272589 84.277383 
L 74.387791 87.452464 
L 74.434919 87.452464 
L 74.534411 86.394103 
L 74.65485 92.744265 
L 74.953327 92.744265 
L 75.068529 91.685905 
L 75.419371 91.685905 
L 75.534573 94.860986 
L 75.634065 94.860986 
L 75.749267 93.802626 
L 76.456188 93.802626 
L 76.57139 96.977707 
L 76.796557 96.977707 
L 76.911759 100.152787 
L 76.995542 100.152787 
L 77.110744 99.094427 
L 77.194527 99.094427 
L 77.309729 102.269508 
L 77.812428 102.269508 
L 77.92763 100.681968 
L 77.943339 100.681968 
L 78.058541 99.623607 
L 78.231344 99.623607 
L 78.346546 102.798688 
L 78.95921 102.798688 
L 79.001102 105.973769 
L 79.069175 104.915409 
L 79.236742 104.915409 
L 79.351944 103.857049 
L 80.357342 103.857049 
L 80.373051 102.269508 
L 80.378287 105.444589 
L 80.462071 105.444589 
L 80.556327 105.444589 
L 80.671528 108.61967 
L 80.807676 108.61967 
L 80.922878 111.794751 
L 81.404631 111.794751 
L 81.425577 110.736391 
L 81.430813 113.911472 
L 81.504124 113.911472 
L 82.279118 113.911472 
L 82.39432 112.853111 
L 82.535704 112.853111 
L 82.650906 116.028192 
L 82.708507 116.028192 
L 82.823709 119.203273 
L 83.415427 119.203273 
L 83.530629 118.144913 
L 83.808161 118.144913 
L 83.860525 121.319994 
L 83.918126 119.732453 
L 85.321494 119.732453 
L 85.436696 122.907534 
L 86.13838 122.907534 
L 86.175035 121.849174 
L 86.180272 125.024255 
L 86.237873 125.024255 
L 86.7877 125.024255 
L 86.902902 123.965894 
L 88.269615 123.965894 
L 88.384817 122.907534 
L 94.123964 122.907534 
L 94.239165 121.849174 
L 94.265348 121.849174 
L 94.38055 120.790814 
L 94.773283 120.790814 
L 94.893722 127.140975 
L 95.385948 127.140975 
L 95.501149 126.082615 
L 100.659051 126.082615 
L 100.774253 124.495075 
L 103.193492 124.495075 
L 103.308694 127.670156 
L 103.486733 127.670156 
L 103.601935 130.845237 
L 106.801404 130.845237 
L 106.916606 129.786876 
L 111.001036 129.786876 
L 111.116238 128.199336 
L 111.503735 128.199336 
L 111.618937 131.374417 
L 115.153539 131.374417 
L 115.268741 134.549498 
L 120.79843 134.549498 
L 120.913632 133.491137 
L 124.804313 133.491137 
L 124.919515 131.903597 
L 135.329574 131.903597 
L 135.444776 135.078678 
L 140.000485 135.078678 
L 140.115687 138.253759 
L 161.2081 138.253759 
L 161.323302 137.195398 
L 175.603096 137.195398 
L 175.718298 140.370479 
L 182.211493 140.370479 
L 182.326695 139.312119 
L 202.816917 139.312119 
L 202.932119 142.4872 
L 228.789699 142.4872 
L 228.904901 145.662281 
L 247.07014 145.662281 
L 247.185341 144.07474 
L 320.087172 144.07474 
L 320.202374 143.01638 
L 322.396445 143.01638 
L 322.511647 141.42884 
L 347.29052 141.42884 
L 347.405722 144.603921 
L 398.487273 144.603921 
L 398.487273 144.603921 
" clip-path="url(#p78be9575a9)" style="fill: none; stroke: #ff7f0e; stroke-width: 1.5; stroke-linecap: square"/>
   </g>
   <g id="line2d_14">
    <path d="M 73.832727 62.580996 
L 73.837964 62.580996 
L 73.958402 68.931158 
L 73.968875 68.931158 
L 73.984584 67.343618 
L 74.026476 76.07509 
L 74.047422 75.01673 
L 74.173096 84.541973 
L 74.199279 84.541973 
L 74.272589 87.717054 
L 74.309244 86.658693 
L 74.434919 86.658693 
L 74.539648 89.833774 
L 74.550121 89.198758 
L 74.859071 89.198758 
L 74.979509 95.54892 
L 75.016165 95.54892 
L 75.131366 100.311542 
L 75.419371 100.311542 
L 75.534573 98.724001 
L 75.634065 98.724001 
L 75.749267 101.899082 
L 76.456188 101.899082 
L 76.57139 101.105312 
L 76.995542 101.105312 
L 77.110744 104.280393 
L 77.943339 104.280393 
L 78.058541 107.455474 
L 78.95921 107.455474 
L 79.001102 106.397113 
L 79.006338 109.572194 
L 79.058702 109.572194 
L 79.236742 109.572194 
L 79.351944 112.747275 
L 80.357342 112.747275 
L 80.373051 115.922356 
L 80.467307 114.863996 
L 81.404631 114.863996 
L 81.519833 118.039077 
L 81.886384 118.039077 
L 82.001586 116.451536 
L 82.279118 116.451536 
L 82.39432 119.626617 
L 82.535704 119.626617 
L 82.650906 118.832847 
L 82.708507 118.832847 
L 82.823709 117.774487 
L 83.415427 117.774487 
L 83.530629 120.949568 
L 83.860525 120.949568 
L 83.975727 124.124649 
L 84.39988 124.124649 
L 84.515081 123.066288 
L 85.923686 123.066288 
L 86.038888 121.478748 
L 86.13838 121.478748 
L 86.175035 124.653829 
L 86.248346 123.595468 
L 86.7877 123.595468 
L 86.902902 126.770549 
L 88.269615 126.770549 
L 88.384817 129.94563 
L 94.123964 129.94563 
L 94.239165 133.120711 
L 94.265348 133.120711 
L 94.38055 136.295792 
L 94.883249 136.295792 
L 94.99845 135.502022 
L 95.385948 135.502022 
L 95.501149 138.677103 
L 106.801404 138.677103 
L 106.916606 141.852184 
L 111.001036 141.852184 
L 111.116238 145.027265 
L 111.503735 145.027265 
L 111.618937 143.439724 
L 115.153539 143.439724 
L 115.268741 142.381364 
L 120.79843 142.381364 
L 120.913632 145.556445 
L 140.733588 145.556445 
L 140.84879 148.731526 
L 161.2081 148.731526 
L 161.323302 151.906607 
L 175.603096 151.906607 
L 175.718298 151.112836 
L 180.708633 151.112836 
L 180.823835 149.525296 
L 182.211493 149.525296 
L 182.326695 152.700377 
L 202.816917 152.700377 
L 202.932119 151.642017 
L 228.789699 151.642017 
L 228.904901 150.583656 
L 247.913208 150.583656 
L 248.02841 153.758737 
L 320.087172 153.758737 
L 320.202374 156.933818 
L 398.487273 156.933818 
L 398.487273 156.933818 
" clip-path="url(#p78be9575a9)" style="fill: none; stroke: #2ca02c; stroke-width: 1.5; stroke-linecap: square"/>
   </g>
   <g id="line2d_15">
    <path d="M 73.832727 63.639357 
L 73.8432 63.639357 
L 73.93222 72.106239 
L 73.958402 68.931158 
L 73.963638 68.931158 
L 73.968875 67.872798 
L 74.000294 73.1646 
L 74.063131 70.518699 
L 74.110259 70.518699 
L 74.157387 73.69378 
L 74.220224 71.577059 
L 74.230697 71.577059 
L 74.272589 74.75214 
L 74.340663 72.106239 
L 74.434919 72.106239 
L 74.534411 75.28132 
L 74.544884 73.852534 
L 74.764815 73.852534 
L 74.880017 72.264993 
L 74.953327 72.264993 
L 75.016165 75.440074 
L 75.063293 74.381714 
L 75.173258 74.381714 
L 75.241332 79.144335 
L 75.28846 77.556795 
L 75.356534 77.556795 
L 75.43508 75.969254 
L 75.440317 79.144335 
L 75.461263 79.144335 
L 75.712612 79.144335 
L 75.827814 77.556795 
L 75.937779 77.556795 
L 75.969198 75.969254 
L 75.974435 79.144335 
L 76.042508 79.144335 
L 76.293858 79.144335 
L 76.40906 82.319416 
L 76.440478 82.319416 
L 76.55568 79.938106 
L 76.796557 79.938106 
L 76.911759 78.879745 
L 77.194527 78.879745 
L 77.314965 76.233844 
L 77.812428 76.233844 
L 77.932866 82.584006 
L 78.231344 82.584006 
L 78.346546 81.525646 
L 78.503639 81.525646 
L 78.603131 79.938106 
L 78.608368 83.113186 
L 78.906845 83.113186 
L 78.917318 86.288267 
L 79.016811 83.642367 
L 79.042993 83.642367 
L 79.158195 82.054826 
L 79.540456 82.054826 
L 79.619002 85.229907 
L 79.650421 83.642367 
L 79.697549 83.642367 
L 79.812751 82.054826 
L 80.294504 82.054826 
L 80.373051 88.404988 
L 80.409706 87.346628 
L 80.556327 87.346628 
L 80.671528 86.288267 
L 80.807676 86.288267 
L 80.812913 85.229907 
L 80.818149 88.404988 
L 80.907169 88.404988 
L 81.001425 88.404988 
L 81.11139 91.580069 
L 81.226592 89.992528 
L 81.425577 89.992528 
L 81.540779 88.934168 
L 82.200571 88.934168 
L 82.315773 92.109249 
L 82.493812 92.109249 
L 82.535704 95.28433 
L 82.603778 94.49056 
L 82.708507 94.49056 
L 82.823709 93.432199 
L 82.88131 93.432199 
L 82.996511 91.844659 
L 83.808161 91.844659 
L 83.860525 90.786299 
L 83.865762 93.96138 
L 83.907653 93.96138 
L 85.279603 93.96138 
L 85.321494 100.311542 
L 85.394805 99.253181 
L 85.588553 99.253181 
L 85.661864 97.665641 
L 85.6671 100.840722 
L 85.693282 100.840722 
L 85.808484 100.840722 
L 85.923686 99.253181 
L 86.175035 99.253181 
L 86.290237 98.194821 
L 87.175197 98.194821 
L 87.290399 96.60728 
L 88.735659 96.60728 
L 88.85086 99.782361 
L 89.568254 99.782361 
L 89.683456 98.194821 
L 92.636812 98.194821 
L 92.752014 96.60728 
L 93.600319 96.60728 
L 93.715521 99.782361 
L 94.265348 99.782361 
L 94.38055 102.957442 
L 94.773283 102.957442 
L 94.888485 101.105312 
L 94.909431 101.105312 
L 95.024633 99.517771 
L 95.474967 99.517771 
L 95.590169 97.930231 
L 102.921196 97.930231 
L 103.041635 104.280393 
L 103.193492 104.280393 
L 103.308694 103.222032 
L 103.486733 103.222032 
L 103.601935 102.163672 
L 104.52355 102.163672 
L 104.638751 100.576132 
L 110.781105 100.576132 
L 110.896307 103.751213 
L 111.46708 103.751213 
L 111.582282 102.163672 
L 113.750171 102.163672 
L 113.865373 105.338753 
L 115.153539 105.338753 
L 115.268741 104.280393 
L 116.0961 104.280393 
L 116.211302 107.455474 
L 118.01264 107.455474 
L 118.127842 105.867933 
L 123.432364 105.867933 
L 123.547565 104.280393 
L 124.804313 104.280393 
L 124.919515 107.455474 
L 135.329574 107.455474 
L 135.444776 106.397113 
L 135.785145 106.397113 
L 135.900347 109.572194 
L 137.617902 109.572194 
L 137.733103 107.984654 
L 140.000485 107.984654 
L 140.115687 106.926293 
L 165.460096 106.926293 
L 165.575298 110.101374 
L 165.983741 110.101374 
L 166.098943 108.513834 
L 175.603096 108.513834 
L 175.718298 107.720064 
L 189.076477 107.720064 
L 189.191679 106.132523 
L 194.098231 106.132523 
L 194.213433 109.307604 
L 202.816917 109.307604 
L 202.932119 108.249244 
L 221.275396 108.249244 
L 221.390598 111.424325 
L 228.789699 111.424325 
L 228.904901 110.365964 
L 230.067393 110.365964 
L 230.182594 108.778424 
L 247.07014 108.778424 
L 247.185341 111.953505 
L 248.850532 111.953505 
L 248.965734 115.128586 
L 253.21773 115.128586 
L 253.332932 113.541045 
L 257.731548 113.541045 
L 257.84675 111.953505 
L 322.396445 111.953505 
L 322.511647 115.128586 
L 347.29052 115.128586 
L 347.405722 114.070226 
L 357.328791 114.070226 
L 357.443993 117.245307 
L 361.17758 117.245307 
L 361.292782 115.657766 
L 368.084455 115.657766 
L 368.199657 114.070226 
L 398.487273 114.070226 
L 398.487273 114.070226 
" clip-path="url(#p78be9575a9)" style="fill: none; stroke: #d62728; stroke-width: 1.5; stroke-linecap: square"/>
   </g>
   <g id="line2d_16">
    <path d="M 73.832727 63.639357 
L 74.010767 63.639357 
L 74.125968 62.845586 
L 398.487273 62.845586 
L 398.487273 62.845586 
" clip-path="url(#p78be9575a9)" style="fill: none; stroke: #9467bd; stroke-width: 1.5; stroke-linecap: square"/>
   </g>
   <g id="line2d_17">
    <path d="M 73.832727 62.580996 
L 73.837964 62.580996 
L 73.864146 68.931158 
L 73.953166 65.756077 
L 73.968875 65.756077 
L 74.084077 63.110177 
L 74.110259 63.110177 
L 74.225461 61.522636 
L 74.434919 61.522636 
L 74.550121 64.697717 
L 74.953327 64.697717 
L 75.03711 67.872798 
L 75.063293 66.285258 
L 75.419371 66.285258 
L 75.534573 64.697717 
L 77.812428 64.697717 
L 77.92763 63.110177 
L 79.236742 63.110177 
L 79.351944 66.285258 
L 81.404631 66.285258 
L 81.519833 69.460338 
L 81.886384 69.460338 
L 82.001586 67.872798 
L 85.923686 67.872798 
L 86.038888 66.285258 
L 94.265348 66.285258 
L 94.38055 69.460338 
L 111.503735 69.460338 
L 111.618937 67.872798 
L 180.708633 67.872798 
L 180.823835 66.285258 
L 322.396445 66.285258 
L 322.511647 64.697717 
L 398.487273 64.697717 
L 398.487273 64.697717 
" clip-path="url(#p78be9575a9)" style="fill: none; stroke: #8c564b; stroke-width: 1.5; stroke-linecap: square"/>
   </g>
   <g id="line2d_18">
    <path d="M 73.832727 63.639357 
L 73.947929 58.876735 
L 74.010767 58.876735 
L 74.125968 58.082965 
L 79.236742 58.082965 
L 79.351944 57.024605 
L 80.357342 57.024605 
L 80.472543 55.437064 
L 81.404631 55.437064 
L 81.519833 54.378704 
L 83.860525 54.378704 
L 83.975727 52.791164 
L 84.39988 52.791164 
L 84.515081 51.732803 
L 111.001036 51.732803 
L 111.116238 50.145263 
L 116.473124 50.145263 
L 116.588326 46.970182 
L 398.487273 46.970182 
L 398.487273 46.970182 
" clip-path="url(#p78be9575a9)" style="fill: none; stroke: #e377c2; stroke-width: 1.5; stroke-linecap: square"/>
   </g>
   <g id="line2d_19">
    <path d="M 73.832727 63.639357 
L 73.968875 79.514761 
L 73.989821 79.514761 
L 74.115495 90.627545 
L 74.230697 90.627545 
L 74.345899 89.040004 
L 74.434919 89.040004 
L 74.534411 92.215085 
L 74.544884 90.786299 
L 74.859071 90.786299 
L 74.953327 89.727938 
L 74.958564 92.903019 
L 75.105184 92.903019 
L 75.236095 88.669578 
L 75.43508 88.669578 
L 75.550282 87.082038 
L 75.958725 87.082038 
L 76.079164 83.906957 
L 76.293858 83.906957 
L 76.40906 82.319416 
L 77.220709 82.319416 
L 77.335911 80.731876 
L 77.812428 80.731876 
L 77.901447 83.906957 
L 77.922393 82.319416 
L 78.603131 82.319416 
L 78.718333 80.731876 
L 78.906845 80.731876 
L 79.022047 79.144335 
L 79.236742 79.144335 
L 79.351944 82.319416 
L 79.540456 82.319416 
L 79.655658 80.731876 
L 80.294504 80.731876 
L 80.357342 79.144335 
L 80.362578 82.319416 
L 80.399233 82.319416 
L 80.812913 82.319416 
L 80.928114 80.731876 
L 81.001425 80.731876 
L 81.116627 79.144335 
L 81.404631 79.144335 
L 81.519833 82.319416 
L 82.200571 82.319416 
L 82.315773 80.731876 
L 82.493812 80.731876 
L 82.609014 79.144335 
L 83.860525 79.144335 
L 83.975727 82.319416 
L 84.39988 82.319416 
L 84.515081 85.494497 
L 85.279603 85.494497 
L 85.305785 88.669578 
L 85.389568 87.082038 
L 85.661864 87.082038 
L 85.777065 85.494497 
L 88.735659 85.494497 
L 88.85086 83.906957 
L 93.600319 83.906957 
L 93.715521 82.319416 
L 94.265348 82.319416 
L 94.38055 85.494497 
L 100.659051 85.494497 
L 100.774253 88.669578 
L 102.921196 88.669578 
L 103.041635 85.494497 
L 110.781105 85.494497 
L 110.896307 83.906957 
L 111.001036 83.906957 
L 111.116238 87.082038 
L 113.750171 87.082038 
L 113.865373 85.494497 
L 116.0961 85.494497 
L 116.211302 83.906957 
L 116.473124 83.906957 
L 116.588326 87.082038 
L 124.804313 87.082038 
L 124.919515 90.257119 
L 135.785145 90.257119 
L 135.900347 88.669578 
L 165.460096 88.669578 
L 165.575298 87.082038 
L 194.098231 87.082038 
L 194.213433 85.494497 
L 221.275396 85.494497 
L 221.390598 83.906957 
L 247.07014 83.906957 
L 247.185341 87.082038 
L 248.850532 87.082038 
L 248.965734 85.494497 
L 322.396445 85.494497 
L 322.511647 88.669578 
L 357.328791 88.669578 
L 357.443993 87.082038 
L 398.487273 87.082038 
L 398.487273 87.082038 
" clip-path="url(#p78be9575a9)" style="fill: none; stroke: #7f7f7f; stroke-width: 1.5; stroke-linecap: square"/>
   </g>
   <g id="line2d_20">
    <path d="M 73.832727 66.814438 
L 73.837964 66.814438 
L 73.91651 83.219022 
L 73.963638 78.456401 
L 73.968875 77.398041 
L 74.016003 84.012793 
L 74.036949 83.219022 
L 74.136441 88.510824 
L 74.152151 87.452464 
L 74.157387 87.452464 
L 74.230697 85.335743 
L 74.235934 88.510824 
L 74.262116 88.510824 
L 74.272589 88.510824 
L 74.393027 85.864923 
L 74.434919 85.864923 
L 74.534411 89.040004 
L 74.544884 87.611218 
L 74.764815 87.611218 
L 74.880017 84.965317 
L 74.953327 84.965317 
L 75.068529 90.257119 
L 75.105184 90.257119 
L 75.173258 89.198758 
L 75.178494 92.373839 
L 75.209913 90.786299 
L 75.220386 90.786299 
L 75.241332 93.96138 
L 75.330351 92.373839 
L 75.356534 92.373839 
L 75.419371 90.786299 
L 75.440317 97.136461 
L 75.45079 97.136461 
L 75.634065 97.136461 
L 75.754504 94.49056 
L 75.937779 94.49056 
L 75.958725 92.903019 
L 75.974435 99.253181 
L 76.032035 99.253181 
L 76.293858 99.253181 
L 76.40906 102.428262 
L 76.440478 102.428262 
L 76.55568 100.046951 
L 76.796557 100.046951 
L 76.911759 98.988591 
L 76.995542 98.988591 
L 77.110744 97.930231 
L 77.194527 97.930231 
L 77.220709 96.871871 
L 77.225946 100.046951 
L 77.299256 98.459411 
L 77.812428 98.459411 
L 77.932866 104.809573 
L 77.943339 104.809573 
L 78.058541 103.751213 
L 78.231344 103.751213 
L 78.346546 102.692852 
L 78.503639 102.692852 
L 78.603131 101.105312 
L 78.608368 104.280393 
L 78.906845 104.280393 
L 78.917318 107.455474 
L 79.006338 103.751213 
L 79.016811 103.751213 
L 79.042993 103.751213 
L 79.158195 102.163672 
L 79.540456 102.163672 
L 79.619002 105.338753 
L 79.650421 103.751213 
L 79.697549 103.751213 
L 79.812751 102.163672 
L 80.294504 102.163672 
L 80.373051 105.338753 
L 80.40447 104.280393 
L 80.556327 104.280393 
L 80.671528 103.222032 
L 80.807676 103.222032 
L 80.812913 102.163672 
L 80.818149 105.338753 
L 80.907169 105.338753 
L 81.001425 105.338753 
L 81.11139 108.513834 
L 81.226592 106.926293 
L 81.425577 106.926293 
L 81.540779 105.867933 
L 81.886384 105.867933 
L 82.001586 109.043014 
L 82.200571 109.043014 
L 82.279118 112.218095 
L 82.310537 111.159735 
L 82.493812 111.159735 
L 82.535704 114.334816 
L 82.603778 113.541045 
L 82.708507 113.541045 
L 82.823709 112.482685 
L 82.88131 112.482685 
L 82.996511 110.895145 
L 83.415427 110.895145 
L 83.530629 109.836784 
L 83.808161 109.836784 
L 83.860525 108.778424 
L 83.865762 111.953505 
L 83.907653 111.953505 
L 84.39988 111.953505 
L 84.515081 110.895145 
L 85.279603 110.895145 
L 85.321494 117.245307 
L 85.394805 116.186946 
L 85.588553 116.186946 
L 85.661864 114.599406 
L 85.6671 117.774487 
L 85.693282 117.774487 
L 85.808484 117.774487 
L 85.923686 116.186946 
L 86.038888 119.362027 
L 86.13838 119.362027 
L 86.258819 117.245307 
L 86.7877 117.245307 
L 86.902902 116.186946 
L 87.175197 116.186946 
L 87.290399 114.599406 
L 88.269615 114.599406 
L 88.384817 113.541045 
L 88.735659 113.541045 
L 88.85086 116.716126 
L 89.568254 116.716126 
L 89.683456 115.128586 
L 92.636812 115.128586 
L 92.752014 113.541045 
L 93.600319 113.541045 
L 93.715521 116.716126 
L 94.123964 116.716126 
L 94.239165 115.657766 
L 94.265348 115.657766 
L 94.38055 118.832847 
L 94.773283 118.832847 
L 94.888485 116.980716 
L 94.909431 116.980716 
L 95.024633 115.393176 
L 95.385948 115.393176 
L 95.506386 112.747275 
L 100.659051 112.747275 
L 100.774253 115.922356 
L 102.921196 115.922356 
L 103.041635 122.272518 
L 103.193492 122.272518 
L 103.308694 121.214158 
L 103.486733 121.214158 
L 103.601935 120.155797 
L 104.52355 120.155797 
L 104.638751 118.568257 
L 106.801404 118.568257 
L 106.916606 117.509897 
L 110.781105 117.509897 
L 110.896307 120.684978 
L 111.46708 120.684978 
L 111.503735 119.097437 
L 111.508971 122.272518 
L 111.571809 122.272518 
L 113.750171 122.272518 
L 113.865373 125.447599 
L 115.153539 125.447599 
L 115.268741 124.389239 
L 116.0961 124.389239 
L 116.211302 127.56432 
L 118.01264 127.56432 
L 118.127842 125.976779 
L 120.79843 125.976779 
L 120.913632 124.918419 
L 123.432364 124.918419 
L 123.547565 123.330878 
L 124.804313 123.330878 
L 124.919515 126.505959 
L 135.329574 126.505959 
L 135.444776 125.447599 
L 135.785145 125.447599 
L 135.900347 128.62268 
L 137.617902 128.62268 
L 137.733103 127.035139 
L 140.000485 127.035139 
L 140.115687 125.976779 
L 140.733588 125.976779 
L 140.84879 124.389239 
L 161.2081 124.389239 
L 161.323302 123.330878 
L 165.460096 123.330878 
L 165.575298 126.505959 
L 165.983741 126.505959 
L 166.098943 124.918419 
L 175.603096 124.918419 
L 175.718298 124.124649 
L 180.708633 124.124649 
L 180.823835 127.299729 
L 182.211493 127.299729 
L 182.326695 126.241369 
L 189.076477 126.241369 
L 189.191679 124.653829 
L 194.098231 124.653829 
L 194.213433 127.82891 
L 202.816917 127.82891 
L 202.932119 126.770549 
L 221.275396 126.770549 
L 221.390598 129.94563 
L 228.789699 129.94563 
L 228.904901 128.88727 
L 230.067393 128.88727 
L 230.182594 127.299729 
L 247.07014 127.299729 
L 247.185341 130.47481 
L 247.913208 130.47481 
L 248.02841 128.88727 
L 248.850532 128.88727 
L 248.965734 132.062351 
L 253.21773 132.062351 
L 253.332932 130.47481 
L 257.731548 130.47481 
L 257.84675 128.88727 
L 320.087172 128.88727 
L 320.202374 127.82891 
L 322.396445 127.82891 
L 322.511647 131.003991 
L 347.29052 131.003991 
L 347.405722 129.94563 
L 357.328791 129.94563 
L 357.443993 133.120711 
L 361.17758 133.120711 
L 361.292782 131.533171 
L 368.084455 131.533171 
L 368.199657 129.94563 
L 398.487273 129.94563 
L 398.487273 129.94563 
" clip-path="url(#p78be9575a9)" style="fill: none; stroke: #bcbd22; stroke-width: 1.5; stroke-linecap: square"/>
   </g>
   <g id="line2d_21">
    <path d="M 73.832727 63.639357 
L 73.837964 63.639357 
L 73.93222 78.456401 
L 73.963638 75.28132 
L 73.995057 72.106239 
L 74.016003 77.662631 
L 74.063131 76.868861 
L 74.110259 76.868861 
L 74.136441 80.043942 
L 74.220224 76.868861 
L 74.230697 76.868861 
L 74.293535 75.28132 
L 74.298771 78.456401 
L 74.335426 78.456401 
L 74.434919 78.456401 
L 74.534411 81.631482 
L 74.544884 80.202696 
L 74.764815 80.202696 
L 74.859071 83.377777 
L 74.87478 82.319416 
L 74.953327 82.319416 
L 75.068529 87.611218 
L 75.105184 87.611218 
L 75.194204 84.965317 
L 75.19944 88.140398 
L 75.209913 88.140398 
L 75.220386 88.140398 
L 75.241332 86.552857 
L 75.246568 89.727938 
L 75.325115 89.727938 
L 75.356534 89.727938 
L 75.43508 92.903019 
L 75.466499 91.315479 
L 75.634065 91.315479 
L 75.712612 90.257119 
L 75.717849 93.432199 
L 75.733558 93.432199 
L 75.937779 93.432199 
L 75.958725 96.60728 
L 76.047745 93.432199 
L 76.293858 93.432199 
L 76.40906 91.844659 
L 76.440478 91.844659 
L 76.456188 95.01974 
L 76.550444 94.22597 
L 76.796557 94.22597 
L 76.911759 93.167609 
L 76.995542 93.167609 
L 77.110744 92.109249 
L 77.194527 92.109249 
L 77.267837 89.463348 
L 77.273074 92.638429 
L 77.299256 92.638429 
L 77.812428 92.638429 
L 77.901447 95.81351 
L 77.922393 94.22597 
L 77.943339 94.22597 
L 78.058541 93.167609 
L 78.231344 93.167609 
L 78.346546 92.109249 
L 78.503639 92.109249 
L 78.603131 95.28433 
L 78.613604 93.69679 
L 78.906845 93.69679 
L 78.917318 92.109249 
L 78.922555 95.28433 
L 79.011574 94.22597 
L 79.042993 94.22597 
L 79.158195 97.401051 
L 79.236742 97.401051 
L 79.351944 100.576132 
L 79.540456 100.576132 
L 79.619002 98.988591 
L 79.624239 102.163672 
L 79.645185 102.163672 
L 79.697549 102.163672 
L 79.812751 105.338753 
L 80.294504 105.338753 
L 80.357342 103.751213 
L 80.362578 106.926293 
L 80.399233 106.926293 
L 80.556327 106.926293 
L 80.671528 105.867933 
L 80.807676 105.867933 
L 80.928114 103.222032 
L 81.001425 103.222032 
L 81.11139 101.634492 
L 81.226592 104.809573 
L 81.404631 104.809573 
L 81.425577 107.984654 
L 81.514597 106.926293 
L 81.886384 106.926293 
L 82.001586 110.101374 
L 82.200571 110.101374 
L 82.315773 107.455474 
L 82.493812 107.455474 
L 82.609014 105.074163 
L 82.88131 105.074163 
L 82.996511 108.249244 
L 83.415427 108.249244 
L 83.530629 107.190884 
L 83.808161 107.190884 
L 83.923363 106.132523 
L 85.279603 106.132523 
L 85.305785 109.307604 
L 85.389568 106.661703 
L 85.588553 106.661703 
L 85.661864 109.836784 
L 85.698519 108.249244 
L 85.808484 108.249244 
L 85.928922 114.599406 
L 86.13838 114.599406 
L 86.253582 113.541045 
L 86.7877 113.541045 
L 86.902902 112.482685 
L 87.175197 112.482685 
L 87.290399 115.657766 
L 88.269615 115.657766 
L 88.384817 114.599406 
L 88.735659 114.599406 
L 88.85086 113.011865 
L 89.568254 113.011865 
L 89.683456 116.186946 
L 92.636812 116.186946 
L 92.752014 119.362027 
L 93.600319 119.362027 
L 93.715521 117.774487 
L 94.123964 117.774487 
L 94.239165 116.716126 
L 94.265348 116.716126 
L 94.38055 119.891207 
L 94.773283 119.891207 
L 94.888485 118.039077 
L 94.909431 118.039077 
L 95.024633 121.214158 
L 95.385948 121.214158 
L 95.474967 120.155797 
L 95.480204 123.330878 
L 95.48544 123.330878 
L 100.659051 123.330878 
L 100.774253 126.505959 
L 102.921196 126.505959 
L 103.041635 123.330878 
L 103.193492 123.330878 
L 103.308694 122.272518 
L 103.486733 122.272518 
L 103.601935 121.214158 
L 104.52355 121.214158 
L 104.638751 124.389239 
L 106.801404 124.389239 
L 106.916606 123.330878 
L 110.781105 123.330878 
L 110.896307 121.743338 
L 111.001036 121.743338 
L 111.116238 124.918419 
L 111.46708 124.918419 
L 111.582282 128.0935 
L 113.750171 128.0935 
L 113.865373 126.505959 
L 116.0961 126.505959 
L 116.211302 124.918419 
L 118.01264 124.918419 
L 118.127842 128.0935 
L 120.79843 128.0935 
L 120.913632 127.035139 
L 123.432364 127.035139 
L 123.547565 130.21022 
L 124.804313 130.21022 
L 124.919515 133.385301 
L 135.329574 133.385301 
L 135.444776 132.326941 
L 135.785145 132.326941 
L 135.900347 130.7394 
L 137.617902 130.7394 
L 137.733103 133.914481 
L 140.000485 133.914481 
L 140.115687 132.856121 
L 140.733588 132.856121 
L 140.84879 131.268581 
L 161.2081 131.268581 
L 161.323302 130.21022 
L 165.460096 130.21022 
L 165.575298 128.62268 
L 165.983741 128.62268 
L 166.098943 131.797761 
L 175.603096 131.797761 
L 175.718298 131.003991 
L 180.708633 131.003991 
L 180.823835 134.179071 
L 182.211493 134.179071 
L 182.326695 133.120711 
L 189.076477 133.120711 
L 189.191679 136.295792 
L 194.098231 136.295792 
L 194.213433 134.708252 
L 221.275396 134.708252 
L 221.390598 133.120711 
L 230.067393 133.120711 
L 230.182594 136.295792 
L 247.07014 136.295792 
L 247.185341 139.470873 
L 247.913208 139.470873 
L 248.02841 137.883333 
L 248.850532 137.883333 
L 248.965734 136.295792 
L 253.21773 136.295792 
L 253.332932 139.470873 
L 257.731548 139.470873 
L 257.84675 142.645954 
L 320.087172 142.645954 
L 320.202374 141.587594 
L 322.396445 141.587594 
L 322.511647 144.762675 
L 347.29052 144.762675 
L 347.405722 143.704314 
L 357.328791 143.704314 
L 357.443993 142.116774 
L 361.17758 142.116774 
L 361.292782 145.291855 
L 368.084455 145.291855 
L 368.199657 148.466936 
L 398.487273 148.466936 
L 398.487273 148.466936 
" clip-path="url(#p78be9575a9)" style="fill: none; stroke: #17becf; stroke-width: 1.5; stroke-linecap: square"/>
   </g>
   <g id="line2d_22">
    <path d="M 73.832727 66.814438 
L 73.837964 66.814438 
L 73.864146 64.168537 
L 73.900801 73.69378 
L 73.911274 73.69378 
L 73.968875 73.69378 
L 74.089313 80.043942 
L 74.110259 80.043942 
L 74.225461 83.219022 
L 74.434919 83.219022 
L 74.550121 82.160662 
L 74.953327 82.160662 
L 75.03711 81.102302 
L 75.042347 84.277383 
L 75.05282 84.277383 
L 75.419371 84.277383 
L 75.534573 87.452464 
L 77.812428 87.452464 
L 77.92763 90.627545 
L 79.236742 90.627545 
L 79.351944 89.569184 
L 81.404631 89.569184 
L 81.519833 88.510824 
L 81.886384 88.510824 
L 82.001586 91.685905 
L 85.923686 91.685905 
L 86.038888 94.860986 
L 94.265348 94.860986 
L 94.38055 93.802626 
L 111.503735 93.802626 
L 111.618937 96.977707 
L 180.708633 96.977707 
L 180.823835 100.152787 
L 322.396445 100.152787 
L 322.511647 103.327868 
L 398.487273 103.327868 
L 398.487273 103.327868 
" clip-path="url(#p78be9575a9)" style="fill: none; stroke: #1f77b4; stroke-width: 1.5; stroke-linecap: square"/>
   </g>
   <g id="line2d_23">
    <path d="M 73.832727 63.639357 
L 73.837964 63.639357 
L 73.963638 59.935096 
L 73.995057 59.935096 
L 74.110259 56.760015 
L 74.953327 56.760015 
L 75.068529 55.701654 
L 84.39988 55.701654 
L 84.515081 58.876735 
L 85.279603 58.876735 
L 85.394805 55.701654 
L 398.487273 55.701654 
L 398.487273 55.701654 
" clip-path="url(#p78be9575a9)" style="fill: none; stroke: #ff7f0e; stroke-width: 1.5; stroke-linecap: square"/>
   </g>
   <g id="patch_3">
    <path d="M 57.6 162.432 
L 57.6 41.472 
" style="fill: none; stroke: #000000; stroke-width: 0.8; stroke-linejoin: miter; stroke-linecap: square"/>
   </g>
   <g id="patch_4">
    <path d="M 414.72 162.432 
L 414.72 41.472 
" style="fill: none; stroke: #000000; stroke-width: 0.8; stroke-linejoin: miter; stroke-linecap: square"/>
   </g>
   <g id="patch_5">
    <path d="M 57.6 162.432 
L 414.72 162.432 
" style="fill: none; stroke: #000000; stroke-width: 0.8; stroke-linejoin: miter; stroke-linecap: square"/>
   </g>
   <g id="patch_6">
    <path d="M 57.6 41.472 
L 414.72 41.472 
" style="fill: none; stroke: #000000; stroke-width: 0.8; stroke-linejoin: miter; stroke-linecap: square"/>
   </g>
   <g id="text_12">
    <!-- WSP -->
    <g transform="translate(361.832136 49.086902)scale(0.08 -0.08)">
     <defs>
      <path id="DejaVuSans-57" d="M 213 4666 
L 850 4666 
L 1831 722 
L 2809 4666 
L 3519 4666 
L 4500 722 
L 5478 4666 
L 6119 4666 
L 4947 0 
L 4153 0 
L 3169 4050 
L 2175 0 
L 1381 0 
L 213 4666 
z
" transform="scale(0.015625)"/>
      <path id="DejaVuSans-53" d="M 3425 4513 
L 3425 3897 
Q 3066 4069 2747 4153 
Q 2428 4238 2131 4238 
Q 1616 4238 1336 4038 
Q 1056 3838 1056 3469 
Q 1056 3159 1242 3001 
Q 1428 2844 1947 2747 
L 2328 2669 
Q 3034 2534 3370 2195 
Q 3706 1856 3706 1288 
Q 3706 609 3251 259 
Q 2797 -91 1919 -91 
Q 1588 -91 1214 -16 
Q 841 59 441 206 
L 441 856 
Q 825 641 1194 531 
Q 1563 422 1919 422 
Q 2459 422 2753 634 
Q 3047 847 3047 1241 
Q 3047 1584 2836 1778 
Q 2625 1972 2144 2069 
L 1759 2144 
Q 1053 2284 737 2584 
Q 422 2884 422 3419 
Q 422 4038 858 4394 
Q 1294 4750 2059 4750 
Q 2388 4750 2728 4690 
Q 3069 4631 3425 4513 
z
" transform="scale(0.015625)"/>
      <path id="DejaVuSans-50" d="M 1259 4147 
L 1259 2394 
L 2053 2394 
Q 2494 2394 2734 2622 
Q 2975 2850 2975 3272 
Q 2975 3691 2734 3919 
Q 2494 4147 2053 4147 
L 1259 4147 
z
M 628 4666 
L 2053 4666 
Q 2838 4666 3239 4311 
Q 3641 3956 3641 3272 
Q 3641 2581 3239 2228 
Q 2838 1875 2053 1875 
L 1259 1875 
L 1259 0 
L 628 0 
L 628 4666 
z
" transform="scale(0.015625)"/>
     </defs>
     <use xlink:href="#DejaVuSans-57"/>
     <use xlink:href="#DejaVuSans-53" x="98.876953"/>
     <use xlink:href="#DejaVuSans-50" x="162.353516"/>
    </g>
   </g>
   <g id="text_13">
    <!-- Iambic -->
    <g transform="translate(361.832136 144.603921)scale(0.08 -0.08)">
     <defs>
      <path id="DejaVuSans-49" d="M 628 4666 
L 1259 4666 
L 1259 0 
L 628 0 
L 628 4666 
z
" transform="scale(0.015625)"/>
      <path id="DejaVuSans-61" d="M 2194 1759 
Q 1497 1759 1228 1600 
Q 959 1441 959 1056 
Q 959 750 1161 570 
Q 1363 391 1709 391 
Q 2188 391 2477 730 
Q 2766 1069 2766 1631 
L 2766 1759 
L 2194 1759 
z
M 3341 1997 
L 3341 0 
L 2766 0 
L 2766 531 
Q 2569 213 2275 61 
Q 1981 -91 1556 -91 
Q 1019 -91 701 211 
Q 384 513 384 1019 
Q 384 1609 779 1909 
Q 1175 2209 1959 2209 
L 2766 2209 
L 2766 2266 
Q 2766 2663 2505 2880 
Q 2244 3097 1772 3097 
Q 1472 3097 1187 3025 
Q 903 2953 641 2809 
L 641 3341 
Q 956 3463 1253 3523 
Q 1550 3584 1831 3584 
Q 2591 3584 2966 3190 
Q 3341 2797 3341 1997 
z
" transform="scale(0.015625)"/>
      <path id="DejaVuSans-6d" d="M 3328 2828 
Q 3544 3216 3844 3400 
Q 4144 3584 4550 3584 
Q 5097 3584 5394 3201 
Q 5691 2819 5691 2113 
L 5691 0 
L 5113 0 
L 5113 2094 
Q 5113 2597 4934 2840 
Q 4756 3084 4391 3084 
Q 3944 3084 3684 2787 
Q 3425 2491 3425 1978 
L 3425 0 
L 2847 0 
L 2847 2094 
Q 2847 2600 2669 2842 
Q 2491 3084 2119 3084 
Q 1678 3084 1418 2786 
Q 1159 2488 1159 1978 
L 1159 0 
L 581 0 
L 581 3500 
L 1159 3500 
L 1159 2956 
Q 1356 3278 1631 3431 
Q 1906 3584 2284 3584 
Q 2666 3584 2933 3390 
Q 3200 3197 3328 2828 
z
" transform="scale(0.015625)"/>
      <path id="DejaVuSans-62" d="M 3116 1747 
Q 3116 2381 2855 2742 
Q 2594 3103 2138 3103 
Q 1681 3103 1420 2742 
Q 1159 2381 1159 1747 
Q 1159 1113 1420 752 
Q 1681 391 2138 391 
Q 2594 391 2855 752 
Q 3116 1113 3116 1747 
z
M 1159 2969 
Q 1341 3281 1617 3432 
Q 1894 3584 2278 3584 
Q 2916 3584 3314 3078 
Q 3713 2572 3713 1747 
Q 3713 922 3314 415 
Q 2916 -91 2278 -91 
Q 1894 -91 1617 61 
Q 1341 213 1159 525 
L 1159 0 
L 581 0 
L 581 4863 
L 1159 4863 
L 1159 2969 
z
" transform="scale(0.015625)"/>
      <path id="DejaVuSans-69" d="M 603 3500 
L 1178 3500 
L 1178 0 
L 603 0 
L 603 3500 
z
M 603 4863 
L 1178 4863 
L 1178 4134 
L 603 4134 
L 603 4863 
z
" transform="scale(0.015625)"/>
      <path id="DejaVuSans-63" d="M 3122 3366 
L 3122 2828 
Q 2878 2963 2633 3030 
Q 2388 3097 2138 3097 
Q 1578 3097 1268 2742 
Q 959 2388 959 1747 
Q 959 1106 1268 751 
Q 1578 397 2138 397 
Q 2388 397 2633 464 
Q 2878 531 3122 666 
L 3122 134 
Q 2881 22 2623 -34 
Q 2366 -91 2075 -91 
Q 1284 -91 818 406 
Q 353 903 353 1747 
Q 353 2603 823 3093 
Q 1294 3584 2113 3584 
Q 2378 3584 2631 3529 
Q 2884 3475 3122 3366 
z
" transform="scale(0.015625)"/>
     </defs>
     <use xlink:href="#DejaVuSans-49"/>
     <use xlink:href="#DejaVuSans-61" x="29.492188"/>
     <use xlink:href="#DejaVuSans-6d" x="90.771484"/>
     <use xlink:href="#DejaVuSans-62" x="188.183594"/>
     <use xlink:href="#DejaVuSans-69" x="251.660156"/>
     <use xlink:href="#DejaVuSans-63" x="279.443359"/>
    </g>
   </g>
   <g id="text_14">
    <!-- Parse -->
    <g transform="translate(361.832136 156.933818)scale(0.08 -0.08)">
     <defs>
      <path id="DejaVuSans-72" d="M 2631 2963 
Q 2534 3019 2420 3045 
Q 2306 3072 2169 3072 
Q 1681 3072 1420 2755 
Q 1159 2438 1159 1844 
L 1159 0 
L 581 0 
L 581 3500 
L 1159 3500 
L 1159 2956 
Q 1341 3275 1631 3429 
Q 1922 3584 2338 3584 
Q 2397 3584 2469 3576 
Q 2541 3569 2628 3553 
L 2631 2963 
z
" transform="scale(0.015625)"/>
      <path id="DejaVuSans-73" d="M 2834 3397 
L 2834 2853 
Q 2591 2978 2328 3040 
Q 2066 3103 1784 3103 
Q 1356 3103 1142 2972 
Q 928 2841 928 2578 
Q 928 2378 1081 2264 
Q 1234 2150 1697 2047 
L 1894 2003 
Q 2506 1872 2764 1633 
Q 3022 1394 3022 966 
Q 3022 478 2636 193 
Q 2250 -91 1575 -91 
Q 1294 -91 989 -36 
Q 684 19 347 128 
L 347 722 
Q 666 556 975 473 
Q 1284 391 1588 391 
Q 1994 391 2212 530 
Q 2431 669 2431 922 
Q 2431 1156 2273 1281 
Q 2116 1406 1581 1522 
L 1381 1569 
Q 847 1681 609 1914 
Q 372 2147 372 2553 
Q 372 3047 722 3315 
Q 1072 3584 1716 3584 
Q 2034 3584 2315 3537 
Q 2597 3491 2834 3397 
z
" transform="scale(0.015625)"/>
      <path id="DejaVuSans-65" d="M 3597 1894 
L 3597 1613 
L 953 1613 
Q 991 1019 1311 708 
Q 1631 397 2203 397 
Q 2534 397 2845 478 
Q 3156 559 3463 722 
L 3463 178 
Q 3153 47 2828 -22 
Q 2503 -91 2169 -91 
Q 1331 -91 842 396 
Q 353 884 353 1716 
Q 353 2575 817 3079 
Q 1281 3584 2069 3584 
Q 2775 3584 3186 3129 
Q 3597 2675 3597 1894 
z
M 3022 2063 
Q 3016 2534 2758 2815 
Q 2500 3097 2075 3097 
Q 1594 3097 1305 2825 
Q 1016 2553 972 2059 
L 3022 2063 
z
" transform="scale(0.015625)"/>
     </defs>
     <use xlink:href="#DejaVuSans-50"/>
     <use xlink:href="#DejaVuSans-61" x="55.802734"/>
     <use xlink:href="#DejaVuSans-72" x="117.082031"/>
     <use xlink:href="#DejaVuSans-73" x="158.195312"/>
     <use xlink:href="#DejaVuSans-65" x="210.294922"/>
    </g>
   </g>
   <g id="text_15">
    <!-- FootBin -->
    <g transform="translate(361.832136 114.070226)scale(0.08 -0.08)">
     <defs>
      <path id="DejaVuSans-46" d="M 628 4666 
L 3309 4666 
L 3309 4134 
L 1259 4134 
L 1259 2759 
L 3109 2759 
L 3109 2228 
L 1259 2228 
L 1259 0 
L 628 0 
L 628 4666 
z
" transform="scale(0.015625)"/>
      <path id="DejaVuSans-6f" d="M 1959 3097 
Q 1497 3097 1228 2736 
Q 959 2375 959 1747 
Q 959 1119 1226 758 
Q 1494 397 1959 397 
Q 2419 397 2687 759 
Q 2956 1122 2956 1747 
Q 2956 2369 2687 2733 
Q 2419 3097 1959 3097 
z
M 1959 3584 
Q 2709 3584 3137 3096 
Q 3566 2609 3566 1747 
Q 3566 888 3137 398 
Q 2709 -91 1959 -91 
Q 1206 -91 779 398 
Q 353 888 353 1747 
Q 353 2609 779 3096 
Q 1206 3584 1959 3584 
z
" transform="scale(0.015625)"/>
      <path id="DejaVuSans-74" d="M 1172 4494 
L 1172 3500 
L 2356 3500 
L 2356 3053 
L 1172 3053 
L 1172 1153 
Q 1172 725 1289 603 
Q 1406 481 1766 481 
L 2356 481 
L 2356 0 
L 1766 0 
Q 1100 0 847 248 
Q 594 497 594 1153 
L 594 3053 
L 172 3053 
L 172 3500 
L 594 3500 
L 594 4494 
L 1172 4494 
z
" transform="scale(0.015625)"/>
      <path id="DejaVuSans-42" d="M 1259 2228 
L 1259 519 
L 2272 519 
Q 2781 519 3026 730 
Q 3272 941 3272 1375 
Q 3272 1813 3026 2020 
Q 2781 2228 2272 2228 
L 1259 2228 
z
M 1259 4147 
L 1259 2741 
L 2194 2741 
Q 2656 2741 2882 2914 
Q 3109 3088 3109 3444 
Q 3109 3797 2882 3972 
Q 2656 4147 2194 4147 
L 1259 4147 
z
M 628 4666 
L 2241 4666 
Q 2963 4666 3353 4366 
Q 3744 4066 3744 3513 
Q 3744 3084 3544 2831 
Q 3344 2578 2956 2516 
Q 3422 2416 3680 2098 
Q 3938 1781 3938 1306 
Q 3938 681 3513 340 
Q 3088 0 2303 0 
L 628 0 
L 628 4666 
z
" transform="scale(0.015625)"/>
      <path id="DejaVuSans-6e" d="M 3513 2113 
L 3513 0 
L 2938 0 
L 2938 2094 
Q 2938 2591 2744 2837 
Q 2550 3084 2163 3084 
Q 1697 3084 1428 2787 
Q 1159 2491 1159 1978 
L 1159 0 
L 581 0 
L 581 3500 
L 1159 3500 
L 1159 2956 
Q 1366 3272 1645 3428 
Q 1925 3584 2291 3584 
Q 2894 3584 3203 3211 
Q 3513 2838 3513 2113 
z
" transform="scale(0.015625)"/>
     </defs>
     <use xlink:href="#DejaVuSans-46"/>
     <use xlink:href="#DejaVuSans-6f" x="53.894531"/>
     <use xlink:href="#DejaVuSans-6f" x="115.076172"/>
     <use xlink:href="#DejaVuSans-74" x="176.257812"/>
     <use xlink:href="#DejaVuSans-42" x="215.466797"/>
     <use xlink:href="#DejaVuSans-69" x="284.070312"/>
     <use xlink:href="#DejaVuSans-6e" x="311.853516"/>
    </g>
   </g>
   <g id="text_16">
    <!-- WFL -->
    <g transform="translate(361.832136 62.845586)scale(0.08 -0.08)">
     <defs>
      <path id="DejaVuSans-4c" d="M 628 4666 
L 1259 4666 
L 1259 531 
L 3531 531 
L 3531 0 
L 628 0 
L 628 4666 
z
" transform="scale(0.015625)"/>
     </defs>
     <use xlink:href="#DejaVuSans-57"/>
     <use xlink:href="#DejaVuSans-46" x="98.876953"/>
     <use xlink:href="#DejaVuSans-4c" x="156.396484"/>
    </g>
   </g>
   <g id="text_17">
    <!-- WFR -->
    <g transform="translate(361.832136 64.697717)scale(0.08 -0.08)">
     <defs>
      <path id="DejaVuSans-52" d="M 2841 2188 
Q 3044 2119 3236 1894 
Q 3428 1669 3622 1275 
L 4263 0 
L 3584 0 
L 2988 1197 
Q 2756 1666 2539 1819 
Q 2322 1972 1947 1972 
L 1259 1972 
L 1259 0 
L 628 0 
L 628 4666 
L 2053 4666 
Q 2853 4666 3247 4331 
Q 3641 3997 3641 3322 
Q 3641 2881 3436 2590 
Q 3231 2300 2841 2188 
z
M 1259 4147 
L 1259 2491 
L 2053 2491 
Q 2509 2491 2742 2702 
Q 2975 2913 2975 3322 
Q 2975 3731 2742 3939 
Q 2509 4147 2053 4147 
L 1259 4147 
z
" transform="scale(0.015625)"/>
     </defs>
     <use xlink:href="#DejaVuSans-57"/>
     <use xlink:href="#DejaVuSans-46" x="98.876953"/>
     <use xlink:href="#DejaVuSans-52" x="156.396484"/>
    </g>
   </g>
   <g id="text_18">
    <!-- Main-L -->
    <g transform="translate(361.832136 46.970182)scale(0.08 -0.08)">
     <defs>
      <path id="DejaVuSans-4d" d="M 628 4666 
L 1569 4666 
L 2759 1491 
L 3956 4666 
L 4897 4666 
L 4897 0 
L 4281 0 
L 4281 4097 
L 3078 897 
L 2444 897 
L 1241 4097 
L 1241 0 
L 628 0 
L 628 4666 
z
" transform="scale(0.015625)"/>
      <path id="DejaVuSans-2d" d="M 313 2009 
L 1997 2009 
L 1997 1497 
L 313 1497 
L 313 2009 
z
" transform="scale(0.015625)"/>
     </defs>
     <use xlink:href="#DejaVuSans-4d"/>
     <use xlink:href="#DejaVuSans-61" x="86.279297"/>
     <use xlink:href="#DejaVuSans-69" x="147.558594"/>
     <use xlink:href="#DejaVuSans-6e" x="175.341797"/>
     <use xlink:href="#DejaVuSans-2d" x="238.720703"/>
     <use xlink:href="#DejaVuSans-4c" x="274.804688"/>
    </g>
   </g>
   <g id="text_19">
    <!-- Main-R -->
    <g transform="translate(361.832136 87.082038)scale(0.08 -0.08)">
     <use xlink:href="#DejaVuSans-4d"/>
     <use xlink:href="#DejaVuSans-61" x="86.279297"/>
     <use xlink:href="#DejaVuSans-69" x="147.558594"/>
     <use xlink:href="#DejaVuSans-6e" x="175.341797"/>
     <use xlink:href="#DejaVuSans-2d" x="238.720703"/>
     <use xlink:href="#DejaVuSans-52" x="274.804688"/>
    </g>
   </g>
   <g id="text_20">
    <!-- AFL -->
    <g transform="translate(361.832136 129.94563)scale(0.08 -0.08)">
     <defs>
      <path id="DejaVuSans-41" d="M 2188 4044 
L 1331 1722 
L 3047 1722 
L 2188 4044 
z
M 1831 4666 
L 2547 4666 
L 4325 0 
L 3669 0 
L 3244 1197 
L 1141 1197 
L 716 0 
L 50 0 
L 1831 4666 
z
" transform="scale(0.015625)"/>
     </defs>
     <use xlink:href="#DejaVuSans-41"/>
     <use xlink:href="#DejaVuSans-46" x="68.408203"/>
     <use xlink:href="#DejaVuSans-4c" x="125.927734"/>
    </g>
   </g>
   <g id="text_21">
    <!-- AFR -->
    <g transform="translate(361.832136 148.466936)scale(0.08 -0.08)">
     <use xlink:href="#DejaVuSans-41"/>
     <use xlink:href="#DejaVuSans-46" x="68.408203"/>
     <use xlink:href="#DejaVuSans-52" x="125.927734"/>
    </g>
   </g>
   <g id="text_22">
    <!-- Nonfinal -->
    <g transform="translate(361.832136 103.327868)scale(0.08 -0.08)">
     <defs>
      <path id="DejaVuSans-4e" d="M 628 4666 
L 1478 4666 
L 3547 763 
L 3547 4666 
L 4159 4666 
L 4159 0 
L 3309 0 
L 1241 3903 
L 1241 0 
L 628 0 
L 628 4666 
z
" transform="scale(0.015625)"/>
      <path id="DejaVuSans-66" d="M 2375 4863 
L 2375 4384 
L 1825 4384 
Q 1516 4384 1395 4259 
Q 1275 4134 1275 3809 
L 1275 3500 
L 2222 3500 
L 2222 3053 
L 1275 3053 
L 1275 0 
L 697 0 
L 697 3053 
L 147 3053 
L 147 3500 
L 697 3500 
L 697 3744 
Q 697 4328 969 4595 
Q 1241 4863 1831 4863 
L 2375 4863 
z
" transform="scale(0.015625)"/>
      <path id="DejaVuSans-6c" d="M 603 4863 
L 1178 4863 
L 1178 0 
L 603 0 
L 603 4863 
z
" transform="scale(0.015625)"/>
     </defs>
     <use xlink:href="#DejaVuSans-4e"/>
     <use xlink:href="#DejaVuSans-6f" x="74.804688"/>
     <use xlink:href="#DejaVuSans-6e" x="135.986328"/>
     <use xlink:href="#DejaVuSans-66" x="199.365234"/>
     <use xlink:href="#DejaVuSans-69" x="234.570312"/>
     <use xlink:href="#DejaVuSans-6e" x="262.353516"/>
     <use xlink:href="#DejaVuSans-61" x="325.732422"/>
     <use xlink:href="#DejaVuSans-6c" x="387.011719"/>
    </g>
   </g>
   <g id="text_23">
    <!-- Trochaic -->
    <g transform="translate(361.832136 55.701654)scale(0.08 -0.08)">
     <defs>
      <path id="DejaVuSans-54" d="M -19 4666 
L 3928 4666 
L 3928 4134 
L 2272 4134 
L 2272 0 
L 1638 0 
L 1638 4134 
L -19 4134 
L -19 4666 
z
" transform="scale(0.015625)"/>
      <path id="DejaVuSans-68" d="M 3513 2113 
L 3513 0 
L 2938 0 
L 2938 2094 
Q 2938 2591 2744 2837 
Q 2550 3084 2163 3084 
Q 1697 3084 1428 2787 
Q 1159 2491 1159 1978 
L 1159 0 
L 581 0 
L 581 4863 
L 1159 4863 
L 1159 2956 
Q 1366 3272 1645 3428 
Q 1925 3584 2291 3584 
Q 2894 3584 3203 3211 
Q 3513 2838 3513 2113 
z
" transform="scale(0.015625)"/>
     </defs>
     <use xlink:href="#DejaVuSans-54"/>
     <use xlink:href="#DejaVuSans-72" x="46.333984"/>
     <use xlink:href="#DejaVuSans-6f" x="85.197266"/>
     <use xlink:href="#DejaVuSans-63" x="146.378906"/>
     <use xlink:href="#DejaVuSans-68" x="201.359375"/>
     <use xlink:href="#DejaVuSans-61" x="264.738281"/>
     <use xlink:href="#DejaVuSans-69" x="326.017578"/>
     <use xlink:href="#DejaVuSans-63" x="353.800781"/>
    </g>
   </g>
  </g>
  <g id="axes_2">
   <g id="patch_7">
    <path d="M 57.6 307.584 
L 414.72 307.584 
L 414.72 186.624 
L 57.6 186.624 
z
" style="fill: #ffffff"/>
   </g>
   <g id="matplotlib.axis_3">
    <g id="xtick_8">
     <g id="line2d_24">
      <g>
       <use xlink:href="#m94892942e4" x="71.853126" y="307.584" style="stroke: #000000; stroke-width: 0.8"/>
      </g>
     </g>
     <g id="text_24">
      <!-- 0 -->
      <g transform="translate(68.671876 322.182437)scale(0.1 -0.1)">
       <use xlink:href="#DejaVuSans-30"/>
      </g>
     </g>
    </g>
    <g id="xtick_9">
     <g id="line2d_25">
      <g>
       <use xlink:href="#m94892942e4" x="121.343149" y="307.584" style="stroke: #000000; stroke-width: 0.8"/>
      </g>
     </g>
     <g id="text_25">
      <!-- 25 -->
      <g transform="translate(114.980649 322.182437)scale(0.1 -0.1)">
       <use xlink:href="#DejaVuSans-32"/>
       <use xlink:href="#DejaVuSans-35" x="63.623047"/>
      </g>
     </g>
    </g>
    <g id="xtick_10">
     <g id="line2d_26">
      <g>
       <use xlink:href="#m94892942e4" x="170.833171" y="307.584" style="stroke: #000000; stroke-width: 0.8"/>
      </g>
     </g>
     <g id="text_26">
      <!-- 50 -->
      <g transform="translate(164.470671 322.182437)scale(0.1 -0.1)">
       <use xlink:href="#DejaVuSans-35"/>
       <use xlink:href="#DejaVuSans-30" x="63.623047"/>
      </g>
     </g>
    </g>
    <g id="xtick_11">
     <g id="line2d_27">
      <g>
       <use xlink:href="#m94892942e4" x="220.323193" y="307.584" style="stroke: #000000; stroke-width: 0.8"/>
      </g>
     </g>
     <g id="text_27">
      <!-- 75 -->
      <g transform="translate(213.960693 322.182437)scale(0.1 -0.1)">
       <use xlink:href="#DejaVuSans-37"/>
       <use xlink:href="#DejaVuSans-35" x="63.623047"/>
      </g>
     </g>
    </g>
    <g id="xtick_12">
     <g id="line2d_28">
      <g>
       <use xlink:href="#m94892942e4" x="269.813215" y="307.584" style="stroke: #000000; stroke-width: 0.8"/>
      </g>
     </g>
     <g id="text_28">
      <!-- 100 -->
      <g transform="translate(260.269465 322.182437)scale(0.1 -0.1)">
       <use xlink:href="#DejaVuSans-31"/>
       <use xlink:href="#DejaVuSans-30" x="63.623047"/>
       <use xlink:href="#DejaVuSans-30" x="127.246094"/>
      </g>
     </g>
    </g>
    <g id="xtick_13">
     <g id="line2d_29">
      <g>
       <use xlink:href="#m94892942e4" x="319.303237" y="307.584" style="stroke: #000000; stroke-width: 0.8"/>
      </g>
     </g>
     <g id="text_29">
      <!-- 125 -->
      <g transform="translate(309.759487 322.182437)scale(0.1 -0.1)">
       <use xlink:href="#DejaVuSans-31"/>
       <use xlink:href="#DejaVuSans-32" x="63.623047"/>
       <use xlink:href="#DejaVuSans-35" x="127.246094"/>
      </g>
     </g>
    </g>
    <g id="xtick_14">
     <g id="line2d_30">
      <g>
       <use xlink:href="#m94892942e4" x="368.793259" y="307.584" style="stroke: #000000; stroke-width: 0.8"/>
      </g>
     </g>
     <g id="text_30">
      <!-- 150 -->
      <g transform="translate(359.249509 322.182437)scale(0.1 -0.1)">
       <use xlink:href="#DejaVuSans-31"/>
       <use xlink:href="#DejaVuSans-35" x="63.623047"/>
       <use xlink:href="#DejaVuSans-30" x="127.246094"/>
      </g>
     </g>
    </g>
   </g>
   <g id="matplotlib.axis_4">
    <g id="ytick_5">
     <g id="line2d_31">
      <g>
       <use xlink:href="#mde64288c63" x="57.6" y="302.095053" style="stroke: #000000; stroke-width: 0.8"/>
      </g>
     </g>
     <g id="text_31">
      <!-- 0 -->
      <g transform="translate(44.2375 305.894272)scale(0.1 -0.1)">
       <use xlink:href="#DejaVuSans-30"/>
      </g>
     </g>
    </g>
    <g id="ytick_6">
     <g id="line2d_32">
      <g>
       <use xlink:href="#mde64288c63" x="57.6" y="279.00703" style="stroke: #000000; stroke-width: 0.8"/>
      </g>
     </g>
     <g id="text_32">
      <!-- 2500 -->
      <g transform="translate(25.15 282.806249)scale(0.1 -0.1)">
       <use xlink:href="#DejaVuSans-32"/>
       <use xlink:href="#DejaVuSans-35" x="63.623047"/>
       <use xlink:href="#DejaVuSans-30" x="127.246094"/>
       <use xlink:href="#DejaVuSans-30" x="190.869141"/>
      </g>
     </g>
    </g>
    <g id="ytick_7">
     <g id="line2d_33">
      <g>
       <use xlink:href="#mde64288c63" x="57.6" y="255.919007" style="stroke: #000000; stroke-width: 0.8"/>
      </g>
     </g>
     <g id="text_33">
      <!-- 5000 -->
      <g transform="translate(25.15 259.718226)scale(0.1 -0.1)">
       <use xlink:href="#DejaVuSans-35"/>
       <use xlink:href="#DejaVuSans-30" x="63.623047"/>
       <use xlink:href="#DejaVuSans-30" x="127.246094"/>
       <use xlink:href="#DejaVuSans-30" x="190.869141"/>
      </g>
     </g>
    </g>
    <g id="ytick_8">
     <g id="line2d_34">
      <g>
       <use xlink:href="#mde64288c63" x="57.6" y="232.830984" style="stroke: #000000; stroke-width: 0.8"/>
      </g>
     </g>
     <g id="text_34">
      <!-- 7500 -->
      <g transform="translate(25.15 236.630203)scale(0.1 -0.1)">
       <use xlink:href="#DejaVuSans-37"/>
       <use xlink:href="#DejaVuSans-35" x="63.623047"/>
       <use xlink:href="#DejaVuSans-30" x="127.246094"/>
       <use xlink:href="#DejaVuSans-30" x="190.869141"/>
      </g>
     </g>
    </g>
    <g id="ytick_9">
     <g id="line2d_35">
      <g>
       <use xlink:href="#mde64288c63" x="57.6" y="209.742961" style="stroke: #000000; stroke-width: 0.8"/>
      </g>
     </g>
     <g id="text_35">
      <!-- 10000 -->
      <g transform="translate(18.7875 213.54218)scale(0.1 -0.1)">
       <use xlink:href="#DejaVuSans-31"/>
       <use xlink:href="#DejaVuSans-30" x="63.623047"/>
       <use xlink:href="#DejaVuSans-30" x="127.246094"/>
       <use xlink:href="#DejaVuSans-30" x="190.869141"/>
       <use xlink:href="#DejaVuSans-30" x="254.492188"/>
      </g>
     </g>
    </g>
    <g id="ytick_10">
     <g id="line2d_36">
      <g>
       <use xlink:href="#mde64288c63" x="57.6" y="186.654938" style="stroke: #000000; stroke-width: 0.8"/>
      </g>
     </g>
     <g id="text_36">
      <!-- 12500 -->
      <g transform="translate(18.7875 190.454157)scale(0.1 -0.1)">
       <use xlink:href="#DejaVuSans-31"/>
       <use xlink:href="#DejaVuSans-32" x="63.623047"/>
       <use xlink:href="#DejaVuSans-35" x="127.246094"/>
       <use xlink:href="#DejaVuSans-30" x="190.869141"/>
       <use xlink:href="#DejaVuSans-30" x="254.492188"/>
      </g>
     </g>
    </g>
   </g>
   <g id="line2d_37">
    <path d="M 73.832727 302.085818 
L 131.241153 302.058113 
L 133.220754 301.845703 
L 137.179956 302.085818 
L 139.159557 301.697939 
L 141.139157 301.92882 
L 145.098359 301.984231 
L 147.07796 302.058113 
L 151.037162 301.974996 
L 154.996364 302.048877 
L 156.975965 302.058113 
L 158.955565 301.891879 
L 162.914767 302.067348 
L 164.894368 301.744115 
L 166.873969 301.956525 
L 168.85357 301.697939 
L 170.833171 302.058113 
L 172.812772 302.076583 
L 174.792373 301.52247 
L 178.751574 302.067348 
L 180.731175 301.494765 
L 182.710776 301.744115 
L 184.690377 301.744115 
L 186.669978 302.048877 
L 188.649579 302.011937 
L 190.62918 301.134592 
L 192.60878 301.938055 
L 194.588381 302.021172 
L 196.567982 301.587117 
L 198.547583 301.614823 
L 200.527184 301.919584 
L 202.506785 301.559411 
L 204.486386 302.076583 
L 212.404789 301.753351 
L 214.38439 301.559411 
L 216.363991 301.956525 
L 218.343592 301.956525 
L 220.323193 301.04224 
L 222.302794 301.984231 
L 224.282395 302.067348 
L 226.261996 301.771821 
L 228.241596 301.651763 
L 230.221197 302.085818 
L 232.200798 301.762586 
L 234.180399 301.901114 
L 236.16 301.577882 
L 238.139601 302.058113 
L 240.119202 301.282355 
L 242.098803 301.540941 
L 244.078404 301.956525 
L 246.058004 301.71641 
L 248.037605 302.021172 
L 250.017206 301.790291 
L 251.996807 301.790291 
L 253.976408 301.153062 
L 255.956009 301.402413 
L 257.93561 302.002701 
L 259.915211 301.143827 
L 261.894812 300.543538 
L 263.874412 302.048877 
L 265.854013 302.067348 
L 267.833614 301.624058 
L 269.813215 301.96576 
L 271.792816 301.836468 
L 273.772417 301.891879 
L 275.752018 301.71641 
L 277.731619 302.030407 
L 279.71122 301.014534 
L 281.69082 301.411648 
L 283.670421 300.164895 
L 285.650022 301.27312 
L 287.629623 300.626655 
L 289.609224 296.683221 
L 291.588825 300.395775 
L 295.548027 301.845703 
L 297.527627 301.199238 
L 299.507228 301.901114 
L 301.486829 302.048877 
L 303.46643 301.254649 
L 305.446031 301.938055 
L 307.425632 292.952196 
L 309.405233 298.105443 
L 311.384834 302.011937 
L 313.364435 301.697939 
L 315.344035 301.577882 
L 317.323636 300.266482 
L 319.303237 298.077737 
L 321.282838 295.076294 
L 323.262439 301.707175 
L 325.24204 301.27312 
L 327.221641 302.030407 
L 329.201242 298.133149 
L 331.180843 299.620017 
L 333.160443 300.432716 
L 335.140044 301.430118 
L 339.099246 297.181922 
L 341.078847 297.449743 
L 343.058448 299.675429 
L 345.038049 283.532283 
L 347.01765 301.29159 
L 348.997251 298.86273 
L 350.976851 297.893033 
L 352.956452 300.802124 
L 354.936053 265.985385 
L 356.915654 294.596063 
L 358.895255 301.171532 
L 360.874856 285.129974 
L 362.854457 293.090724 
L 364.834058 299.444548 
L 366.813659 289.987694 
L 368.793259 293.238488 
L 370.77286 286.71843 
L 372.752461 269.540941 
L 374.732062 288.842528 
L 376.711663 299.841662 
L 378.691264 272.108329 
L 380.670865 300.608185 
L 382.650466 300.441951 
L 384.630067 294.392889 
L 386.609667 294.134303 
L 388.589268 192.122182 
L 390.568869 298.022326 
L 392.54847 258.190869 
L 394.528071 284.391157 
L 396.507672 295.307175 
L 398.487273 289.913812 
L 398.487273 289.913812 
" clip-path="url(#p24b9add51d)" style="fill: none; stroke: #1f77b4; stroke-width: 1.5; stroke-linecap: square"/>
   </g>
   <g id="patch_8">
    <path d="M 57.6 307.584 
L 57.6 186.624 
" style="fill: none; stroke: #000000; stroke-width: 0.8; stroke-linejoin: miter; stroke-linecap: square"/>
   </g>
   <g id="patch_9">
    <path d="M 414.72 307.584 
L 414.72 186.624 
" style="fill: none; stroke: #000000; stroke-width: 0.8; stroke-linejoin: miter; stroke-linecap: square"/>
   </g>
   <g id="patch_10">
    <path d="M 57.6 307.584 
L 414.72 307.584 
" style="fill: none; stroke: #000000; stroke-width: 0.8; stroke-linejoin: miter; stroke-linecap: square"/>
   </g>
   <g id="patch_11">
    <path d="M 57.6 186.624 
L 414.72 186.624 
" style="fill: none; stroke: #000000; stroke-width: 0.8; stroke-linejoin: miter; stroke-linecap: square"/>
   </g>
  </g>
 </g>
 <defs>
  <clipPath id="p78be9575a9">
   <rect x="57.6" y="41.472" width="357.12" height="120.96"/>
  </clipPath>
  <clipPath id="p24b9add51d">
   <rect x="57.6" y="186.624" width="357.12" height="120.96"/>
  </clipPath>
 </defs>
</svg>
