<?xml version="1.0" encoding="utf-8" standalone="no"?>
<!DOCTYPE svg PUBLIC "-//W3C//DTD SVG 1.1//EN"
  "http://www.w3.org/Graphics/SVG/1.1/DTD/svg11.dtd">
<svg xmlns:xlink="http://www.w3.org/1999/xlink" width="460.8pt" height="345.6pt" viewBox="0 0 460.8 345.6" xmlns="http://www.w3.org/2000/svg" version="1.1">
 <metadata>
  <rdf:RDF xmlns:dc="http://purl.org/dc/elements/1.1/" xmlns:cc="http://creativecommons.org/ns#" xmlns:rdf="http://www.w3.org/1999/02/22-rdf-syntax-ns#">
   <cc:Work>
    <dc:type rdf:resource="http://purl.org/dc/dcmitype/StillImage"/>
    <dc:date>2022-05-14T04:49:58.005978</dc:date>
    <dc:format>image/svg+xml</dc:format>
    <dc:creator>
     <cc:Agent>
      <dc:title>Matplotlib v3.5.1, https://matplotlib.org/</dc:title>
     </cc:Agent>
    </dc:creator>
   </cc:Work>
  </rdf:RDF>
 </metadata>
 <defs>
  <style type="text/css">*{stroke-linejoin: round; stroke-linecap: butt}</style>
 </defs>
 <g id="figure_1">
  <g id="patch_1">
   <path d="M 0 345.6 
L 460.8 345.6 
L 460.8 0 
L 0 0 
z
" style="fill: #ffffff"/>
  </g>
  <g id="axes_1">
   <g id="patch_2">
    <path d="M 57.6 162.432 
L 414.72 162.432 
L 414.72 41.472 
L 57.6 41.472 
z
" style="fill: #ffffff"/>
   </g>
   <g id="matplotlib.axis_1">
    <g id="xtick_1">
     <g id="line2d_1">
      <defs>
       <path id="m6808750465" d="M 0 0 
L 0 3.5 
" style="stroke: #000000; stroke-width: 0.8"/>
      </defs>
      <g>
       <use xlink:href="#m6808750465" x="73.827491" y="162.432" style="stroke: #000000; stroke-width: 0.8"/>
      </g>
     </g>
     <g id="text_1">
      <!-- 0 -->
      <g transform="translate(70.646241 177.030437)scale(0.1 -0.1)">
       <defs>
        <path id="DejaVuSans-30" d="M 2034 4250 
Q 1547 4250 1301 3770 
Q 1056 3291 1056 2328 
Q 1056 1369 1301 889 
Q 1547 409 2034 409 
Q 2525 409 2770 889 
Q 3016 1369 3016 2328 
Q 3016 3291 2770 3770 
Q 2525 4250 2034 4250 
z
M 2034 4750 
Q 2819 4750 3233 4129 
Q 3647 3509 3647 2328 
Q 3647 1150 3233 529 
Q 2819 -91 2034 -91 
Q 1250 -91 836 529 
Q 422 1150 422 2328 
Q 422 3509 836 4129 
Q 1250 4750 2034 4750 
z
" transform="scale(0.015625)"/>
       </defs>
       <use xlink:href="#DejaVuSans-30"/>
      </g>
     </g>
    </g>
    <g id="xtick_2">
     <g id="line2d_2">
      <g>
       <use xlink:href="#m6808750465" x="126.191972" y="162.432" style="stroke: #000000; stroke-width: 0.8"/>
      </g>
     </g>
     <g id="text_2">
      <!-- 10000 -->
      <g transform="translate(110.285722 177.030437)scale(0.1 -0.1)">
       <defs>
        <path id="DejaVuSans-31" d="M 794 531 
L 1825 531 
L 1825 4091 
L 703 3866 
L 703 4441 
L 1819 4666 
L 2450 4666 
L 2450 531 
L 3481 531 
L 3481 0 
L 794 0 
L 794 531 
z
" transform="scale(0.015625)"/>
       </defs>
       <use xlink:href="#DejaVuSans-31"/>
       <use xlink:href="#DejaVuSans-30" x="63.623047"/>
       <use xlink:href="#DejaVuSans-30" x="127.246094"/>
       <use xlink:href="#DejaVuSans-30" x="190.869141"/>
       <use xlink:href="#DejaVuSans-30" x="254.492188"/>
      </g>
     </g>
    </g>
    <g id="xtick_3">
     <g id="line2d_3">
      <g>
       <use xlink:href="#m6808750465" x="178.556453" y="162.432" style="stroke: #000000; stroke-width: 0.8"/>
      </g>
     </g>
     <g id="text_3">
      <!-- 20000 -->
      <g transform="translate(162.650203 177.030437)scale(0.1 -0.1)">
       <defs>
        <path id="DejaVuSans-32" d="M 1228 531 
L 3431 531 
L 3431 0 
L 469 0 
L 469 531 
Q 828 903 1448 1529 
Q 2069 2156 2228 2338 
Q 2531 2678 2651 2914 
Q 2772 3150 2772 3378 
Q 2772 3750 2511 3984 
Q 2250 4219 1831 4219 
Q 1534 4219 1204 4116 
Q 875 4013 500 3803 
L 500 4441 
Q 881 4594 1212 4672 
Q 1544 4750 1819 4750 
Q 2544 4750 2975 4387 
Q 3406 4025 3406 3419 
Q 3406 3131 3298 2873 
Q 3191 2616 2906 2266 
Q 2828 2175 2409 1742 
Q 1991 1309 1228 531 
z
" transform="scale(0.015625)"/>
       </defs>
       <use xlink:href="#DejaVuSans-32"/>
       <use xlink:href="#DejaVuSans-30" x="63.623047"/>
       <use xlink:href="#DejaVuSans-30" x="127.246094"/>
       <use xlink:href="#DejaVuSans-30" x="190.869141"/>
       <use xlink:href="#DejaVuSans-30" x="254.492188"/>
      </g>
     </g>
    </g>
    <g id="xtick_4">
     <g id="line2d_4">
      <g>
       <use xlink:href="#m6808750465" x="230.920934" y="162.432" style="stroke: #000000; stroke-width: 0.8"/>
      </g>
     </g>
     <g id="text_4">
      <!-- 30000 -->
      <g transform="translate(215.014684 177.030437)scale(0.1 -0.1)">
       <defs>
        <path id="DejaVuSans-33" d="M 2597 2516 
Q 3050 2419 3304 2112 
Q 3559 1806 3559 1356 
Q 3559 666 3084 287 
Q 2609 -91 1734 -91 
Q 1441 -91 1130 -33 
Q 819 25 488 141 
L 488 750 
Q 750 597 1062 519 
Q 1375 441 1716 441 
Q 2309 441 2620 675 
Q 2931 909 2931 1356 
Q 2931 1769 2642 2001 
Q 2353 2234 1838 2234 
L 1294 2234 
L 1294 2753 
L 1863 2753 
Q 2328 2753 2575 2939 
Q 2822 3125 2822 3475 
Q 2822 3834 2567 4026 
Q 2313 4219 1838 4219 
Q 1578 4219 1281 4162 
Q 984 4106 628 3988 
L 628 4550 
Q 988 4650 1302 4700 
Q 1616 4750 1894 4750 
Q 2613 4750 3031 4423 
Q 3450 4097 3450 3541 
Q 3450 3153 3228 2886 
Q 3006 2619 2597 2516 
z
" transform="scale(0.015625)"/>
       </defs>
       <use xlink:href="#DejaVuSans-33"/>
       <use xlink:href="#DejaVuSans-30" x="63.623047"/>
       <use xlink:href="#DejaVuSans-30" x="127.246094"/>
       <use xlink:href="#DejaVuSans-30" x="190.869141"/>
       <use xlink:href="#DejaVuSans-30" x="254.492188"/>
      </g>
     </g>
    </g>
    <g id="xtick_5">
     <g id="line2d_5">
      <g>
       <use xlink:href="#m6808750465" x="283.285415" y="162.432" style="stroke: #000000; stroke-width: 0.8"/>
      </g>
     </g>
     <g id="text_5">
      <!-- 40000 -->
      <g transform="translate(267.379165 177.030437)scale(0.1 -0.1)">
       <defs>
        <path id="DejaVuSans-34" d="M 2419 4116 
L 825 1625 
L 2419 1625 
L 2419 4116 
z
M 2253 4666 
L 3047 4666 
L 3047 1625 
L 3713 1625 
L 3713 1100 
L 3047 1100 
L 3047 0 
L 2419 0 
L 2419 1100 
L 313 1100 
L 313 1709 
L 2253 4666 
z
" transform="scale(0.015625)"/>
       </defs>
       <use xlink:href="#DejaVuSans-34"/>
       <use xlink:href="#DejaVuSans-30" x="63.623047"/>
       <use xlink:href="#DejaVuSans-30" x="127.246094"/>
       <use xlink:href="#DejaVuSans-30" x="190.869141"/>
       <use xlink:href="#DejaVuSans-30" x="254.492188"/>
      </g>
     </g>
    </g>
    <g id="xtick_6">
     <g id="line2d_6">
      <g>
       <use xlink:href="#m6808750465" x="335.649896" y="162.432" style="stroke: #000000; stroke-width: 0.8"/>
      </g>
     </g>
     <g id="text_6">
      <!-- 50000 -->
      <g transform="translate(319.743646 177.030437)scale(0.1 -0.1)">
       <defs>
        <path id="DejaVuSans-35" d="M 691 4666 
L 3169 4666 
L 3169 4134 
L 1269 4134 
L 1269 2991 
Q 1406 3038 1543 3061 
Q 1681 3084 1819 3084 
Q 2600 3084 3056 2656 
Q 3513 2228 3513 1497 
Q 3513 744 3044 326 
Q 2575 -91 1722 -91 
Q 1428 -91 1123 -41 
Q 819 9 494 109 
L 494 744 
Q 775 591 1075 516 
Q 1375 441 1709 441 
Q 2250 441 2565 725 
Q 2881 1009 2881 1497 
Q 2881 1984 2565 2268 
Q 2250 2553 1709 2553 
Q 1456 2553 1204 2497 
Q 953 2441 691 2322 
L 691 4666 
z
" transform="scale(0.015625)"/>
       </defs>
       <use xlink:href="#DejaVuSans-35"/>
       <use xlink:href="#DejaVuSans-30" x="63.623047"/>
       <use xlink:href="#DejaVuSans-30" x="127.246094"/>
       <use xlink:href="#DejaVuSans-30" x="190.869141"/>
       <use xlink:href="#DejaVuSans-30" x="254.492188"/>
      </g>
     </g>
    </g>
    <g id="xtick_7">
     <g id="line2d_7">
      <g>
       <use xlink:href="#m6808750465" x="388.014377" y="162.432" style="stroke: #000000; stroke-width: 0.8"/>
      </g>
     </g>
     <g id="text_7">
      <!-- 60000 -->
      <g transform="translate(372.108127 177.030437)scale(0.1 -0.1)">
       <defs>
        <path id="DejaVuSans-36" d="M 2113 2584 
Q 1688 2584 1439 2293 
Q 1191 2003 1191 1497 
Q 1191 994 1439 701 
Q 1688 409 2113 409 
Q 2538 409 2786 701 
Q 3034 994 3034 1497 
Q 3034 2003 2786 2293 
Q 2538 2584 2113 2584 
z
M 3366 4563 
L 3366 3988 
Q 3128 4100 2886 4159 
Q 2644 4219 2406 4219 
Q 1781 4219 1451 3797 
Q 1122 3375 1075 2522 
Q 1259 2794 1537 2939 
Q 1816 3084 2150 3084 
Q 2853 3084 3261 2657 
Q 3669 2231 3669 1497 
Q 3669 778 3244 343 
Q 2819 -91 2113 -91 
Q 1303 -91 875 529 
Q 447 1150 447 2328 
Q 447 3434 972 4092 
Q 1497 4750 2381 4750 
Q 2619 4750 2861 4703 
Q 3103 4656 3366 4563 
z
" transform="scale(0.015625)"/>
       </defs>
       <use xlink:href="#DejaVuSans-36"/>
       <use xlink:href="#DejaVuSans-30" x="63.623047"/>
       <use xlink:href="#DejaVuSans-30" x="127.246094"/>
       <use xlink:href="#DejaVuSans-30" x="190.869141"/>
       <use xlink:href="#DejaVuSans-30" x="254.492188"/>
      </g>
     </g>
    </g>
   </g>
   <g id="matplotlib.axis_2">
    <g id="ytick_1">
     <g id="line2d_8">
      <defs>
       <path id="ma6ef356d98" d="M 0 0 
L -3.5 0 
" style="stroke: #000000; stroke-width: 0.8"/>
      </defs>
      <g>
       <use xlink:href="#ma6ef356d98" x="57.6" y="138.992835" style="stroke: #000000; stroke-width: 0.8"/>
      </g>
     </g>
     <g id="text_8">
      <!-- 70 -->
      <g transform="translate(37.875 142.792053)scale(0.1 -0.1)">
       <defs>
        <path id="DejaVuSans-37" d="M 525 4666 
L 3525 4666 
L 3525 4397 
L 1831 0 
L 1172 0 
L 2766 4134 
L 525 4134 
L 525 4666 
z
" transform="scale(0.015625)"/>
       </defs>
       <use xlink:href="#DejaVuSans-37"/>
       <use xlink:href="#DejaVuSans-30" x="63.623047"/>
      </g>
     </g>
    </g>
    <g id="ytick_2">
     <g id="line2d_9">
      <g>
       <use xlink:href="#ma6ef356d98" x="57.6" y="113.240227" style="stroke: #000000; stroke-width: 0.8"/>
      </g>
     </g>
     <g id="text_9">
      <!-- 80 -->
      <g transform="translate(37.875 117.039445)scale(0.1 -0.1)">
       <defs>
        <path id="DejaVuSans-38" d="M 2034 2216 
Q 1584 2216 1326 1975 
Q 1069 1734 1069 1313 
Q 1069 891 1326 650 
Q 1584 409 2034 409 
Q 2484 409 2743 651 
Q 3003 894 3003 1313 
Q 3003 1734 2745 1975 
Q 2488 2216 2034 2216 
z
M 1403 2484 
Q 997 2584 770 2862 
Q 544 3141 544 3541 
Q 544 4100 942 4425 
Q 1341 4750 2034 4750 
Q 2731 4750 3128 4425 
Q 3525 4100 3525 3541 
Q 3525 3141 3298 2862 
Q 3072 2584 2669 2484 
Q 3125 2378 3379 2068 
Q 3634 1759 3634 1313 
Q 3634 634 3220 271 
Q 2806 -91 2034 -91 
Q 1263 -91 848 271 
Q 434 634 434 1313 
Q 434 1759 690 2068 
Q 947 2378 1403 2484 
z
M 1172 3481 
Q 1172 3119 1398 2916 
Q 1625 2713 2034 2713 
Q 2441 2713 2670 2916 
Q 2900 3119 2900 3481 
Q 2900 3844 2670 4047 
Q 2441 4250 2034 4250 
Q 1625 4250 1398 4047 
Q 1172 3844 1172 3481 
z
" transform="scale(0.015625)"/>
       </defs>
       <use xlink:href="#DejaVuSans-38"/>
       <use xlink:href="#DejaVuSans-30" x="63.623047"/>
      </g>
     </g>
    </g>
    <g id="ytick_3">
     <g id="line2d_10">
      <g>
       <use xlink:href="#ma6ef356d98" x="57.6" y="87.487618" style="stroke: #000000; stroke-width: 0.8"/>
      </g>
     </g>
     <g id="text_10">
      <!-- 90 -->
      <g transform="translate(37.875 91.286837)scale(0.1 -0.1)">
       <defs>
        <path id="DejaVuSans-39" d="M 703 97 
L 703 672 
Q 941 559 1184 500 
Q 1428 441 1663 441 
Q 2288 441 2617 861 
Q 2947 1281 2994 2138 
Q 2813 1869 2534 1725 
Q 2256 1581 1919 1581 
Q 1219 1581 811 2004 
Q 403 2428 403 3163 
Q 403 3881 828 4315 
Q 1253 4750 1959 4750 
Q 2769 4750 3195 4129 
Q 3622 3509 3622 2328 
Q 3622 1225 3098 567 
Q 2575 -91 1691 -91 
Q 1453 -91 1209 -44 
Q 966 3 703 97 
z
M 1959 2075 
Q 2384 2075 2632 2365 
Q 2881 2656 2881 3163 
Q 2881 3666 2632 3958 
Q 2384 4250 1959 4250 
Q 1534 4250 1286 3958 
Q 1038 3666 1038 3163 
Q 1038 2656 1286 2365 
Q 1534 2075 1959 2075 
z
" transform="scale(0.015625)"/>
       </defs>
       <use xlink:href="#DejaVuSans-39"/>
       <use xlink:href="#DejaVuSans-30" x="63.623047"/>
      </g>
     </g>
    </g>
    <g id="ytick_4">
     <g id="line2d_11">
      <g>
       <use xlink:href="#ma6ef356d98" x="57.6" y="61.73501" style="stroke: #000000; stroke-width: 0.8"/>
      </g>
     </g>
     <g id="text_11">
      <!-- 100 -->
      <g transform="translate(31.5125 65.534229)scale(0.1 -0.1)">
       <use xlink:href="#DejaVuSans-31"/>
       <use xlink:href="#DejaVuSans-30" x="63.623047"/>
       <use xlink:href="#DejaVuSans-30" x="127.246094"/>
      </g>
     </g>
    </g>
   </g>
   <g id="line2d_12">
    <path d="M 73.832727 61.73501 
L 73.837964 61.73501 
L 73.974111 57.271225 
L 74.036949 57.271225 
L 74.152151 56.412805 
L 74.183569 56.412805 
L 74.298771 55.897753 
L 74.434919 55.897753 
L 74.555357 54.867648 
L 75.27275 54.867648 
L 75.387952 54.352596 
L 75.634065 54.352596 
L 75.749267 53.708781 
L 76.477134 53.708781 
L 76.592335 52.421151 
L 79.027284 52.421151 
L 79.142486 51.56273 
L 82.593305 51.56273 
L 82.708507 50.918915 
L 82.760871 50.918915 
L 82.876073 50.060495 
L 99.559397 50.060495 
L 99.674599 49.41668 
L 116.525489 49.41668 
L 116.64069 48.772864 
L 131.983483 48.772864 
L 132.098685 48.129049 
L 259.794708 48.129049 
L 259.90991 47.613997 
L 310.211231 47.613997 
L 310.326433 46.970182 
L 398.487273 46.970182 
L 398.487273 46.970182 
" clip-path="url(#pca94a59bc1)" style="fill: none; stroke: #1f77b4; stroke-width: 1.5; stroke-linecap: square"/>
   </g>
   <g id="line2d_13">
    <path d="M 73.832727 61.091195 
L 73.848437 61.091195 
L 73.984584 74.740077 
L 73.995057 74.740077 
L 74.063131 72.72279 
L 74.068367 75.298051 
L 74.105023 74.654235 
L 74.136441 74.654235 
L 74.178333 74.01042 
L 74.183569 76.585681 
L 74.251643 74.139183 
L 74.283062 74.139183 
L 74.356372 78.002075 
L 74.398264 77.358259 
L 74.461101 77.358259 
L 74.482047 76.843207 
L 74.487283 79.418468 
L 74.550121 79.418468 
L 74.576303 79.418468 
L 74.592012 77.487022 
L 74.623431 85.212805 
L 74.649613 85.212805 
L 74.675795 87.788066 
L 74.759579 87.14425 
L 74.869544 87.14425 
L 74.984746 91.650957 
L 75.021401 91.650957 
L 75.141839 90.492089 
L 75.173258 90.492089 
L 75.194204 89.848274 
L 75.19944 92.423535 
L 75.267514 92.423535 
L 75.27275 92.423535 
L 75.387952 91.908483 
L 75.398425 91.908483 
L 75.408898 90.620852 
L 75.482208 94.483744 
L 75.497918 94.483744 
L 75.61312 97.059004 
L 75.733558 97.059004 
L 75.84876 96.543952 
L 76.0844 96.543952 
L 76.204838 101.694474 
L 76.283385 101.694474 
L 76.398587 104.269735 
L 76.524262 102.338289 
L 77.524423 102.338289 
L 77.566315 101.479869 
L 77.608206 106.63039 
L 77.702462 106.63039 
L 77.817664 105.77197 
L 78.16327 105.77197 
L 78.278472 108.347231 
L 78.357018 108.347231 
L 78.47222 107.188364 
L 78.587422 109.763624 
L 79.985554 109.763624 
L 80.100756 112.338885 
L 81.195173 112.338885 
L 81.310375 111.69507 
L 81.58267 111.69507 
L 81.697872 114.270331 
L 81.912567 114.270331 
L 82.027769 113.411911 
L 82.986039 113.411911 
L 83.080295 115.987171 
L 83.096004 115.128751 
L 84.05951 115.128751 
L 84.085693 117.704012 
L 84.169476 117.060197 
L 85.74041 117.060197 
L 85.855612 119.635458 
L 86.986685 119.635458 
L 87.101887 122.210718 
L 90.777873 122.210718 
L 90.893075 121.566903 
L 92.165532 121.566903 
L 92.280734 120.923088 
L 100.559558 120.923088 
L 100.67476 120.279273 
L 116.064681 120.279273 
L 116.179883 122.854534 
L 125.794002 122.854534 
L 125.909204 121.996113 
L 126.411903 121.996113 
L 126.527104 124.571374 
L 130.386367 124.571374 
L 130.501569 127.146635 
L 131.983483 127.146635 
L 132.098685 126.50282 
L 137.879724 126.50282 
L 137.994926 129.07808 
L 156.709991 129.07808 
L 156.825193 128.434265 
L 181.56741 128.434265 
L 181.682612 131.009526 
L 192.548242 131.009526 
L 192.663444 130.365711 
L 254.741536 130.365711 
L 254.856738 129.721896 
L 257.825804 129.721896 
L 257.941006 129.07808 
L 259.574778 129.07808 
L 259.68998 131.653341 
L 259.794708 131.653341 
L 259.90991 131.138289 
L 322.637322 131.138289 
L 322.752524 133.71355 
L 342.813357 133.71355 
L 342.928558 136.288811 
L 398.487273 136.288811 
L 398.487273 136.288811 
" clip-path="url(#pca94a59bc1)" style="fill: none; stroke: #ff7f0e; stroke-width: 1.5; stroke-linecap: square"/>
   </g>
   <g id="line2d_14">
    <path d="M 73.832727 64.310271 
L 73.837964 64.310271 
L 73.864146 62.936799 
L 73.906038 70.018766 
L 73.911274 70.018766 
L 73.921747 70.018766 
L 73.958402 68.216083 
L 73.974111 73.366605 
L 73.995057 73.366605 
L 74.115495 78.946337 
L 74.136441 78.946337 
L 74.262116 88.38896 
L 74.283062 88.38896 
L 74.298771 87.745145 
L 74.304008 90.320405 
L 74.382554 89.67659 
L 74.434919 92.251851 
L 74.49252 90.706694 
L 74.576303 90.706694 
L 74.696741 96.930241 
L 74.701978 96.930241 
L 74.81718 99.505502 
L 74.869544 99.505502 
L 74.87478 98.217872 
L 74.880017 100.793133 
L 74.974273 100.793133 
L 75.021401 100.793133 
L 75.141839 105.943654 
L 75.173258 105.943654 
L 75.27275 109.806545 
L 75.28846 109.291493 
L 75.398425 109.291493 
L 75.476972 117.017276 
L 75.518864 115.51504 
L 75.634065 115.51504 
L 75.733558 114.871225 
L 75.84876 117.446486 
L 76.0844 117.446486 
L 76.204838 114.871225 
L 76.283385 114.871225 
L 76.398587 113.583595 
L 76.513789 116.158855 
L 77.524423 116.158855 
L 77.566315 118.734116 
L 77.634389 116.158855 
L 77.702462 116.158855 
L 77.817664 118.734116 
L 78.357018 118.734116 
L 78.47222 123.884638 
L 78.587422 122.597007 
L 79.027284 122.597007 
L 79.142486 121.738587 
L 79.985554 121.738587 
L 80.100756 120.450957 
L 81.195173 120.450957 
L 81.310375 123.026218 
L 81.58267 123.026218 
L 81.697872 122.167797 
L 81.912567 122.167797 
L 82.027769 124.743058 
L 82.593305 124.743058 
L 82.708507 124.099243 
L 82.760871 124.099243 
L 82.876073 123.240823 
L 82.986039 123.240823 
L 83.080295 121.953192 
L 83.085531 124.528453 
L 83.090768 124.528453 
L 83.609176 124.528453 
L 83.724378 127.103714 
L 84.05951 127.103714 
L 84.085693 125.816083 
L 84.090929 128.391344 
L 84.164239 128.391344 
L 85.74041 128.391344 
L 85.855612 127.103714 
L 86.986685 127.103714 
L 87.101887 125.816083 
L 90.777873 125.816083 
L 90.893075 128.391344 
L 92.165532 128.391344 
L 92.280734 130.966605 
L 99.559397 130.966605 
L 99.674599 130.32279 
L 100.559558 130.32279 
L 100.67476 132.898051 
L 100.779489 132.898051 
L 100.894691 135.473311 
L 103.601935 135.473311 
L 103.717137 138.048572 
L 108.566087 138.048572 
L 108.681289 140.623833 
L 116.064681 140.623833 
L 116.179883 139.336203 
L 116.525489 139.336203 
L 116.64069 138.692387 
L 125.794002 138.692387 
L 125.909204 141.267648 
L 126.411903 141.267648 
L 126.527104 139.980018 
L 130.386367 139.980018 
L 130.501569 138.692387 
L 131.983483 138.692387 
L 132.098685 138.048572 
L 156.709991 138.048572 
L 156.825193 140.623833 
L 181.56741 140.623833 
L 181.682612 139.336203 
L 192.548242 139.336203 
L 192.663444 141.911463 
L 254.741536 141.911463 
L 254.856738 144.486724 
L 257.825804 144.486724 
L 257.941006 147.061985 
L 259.794708 147.061985 
L 259.90991 146.546933 
L 310.211231 146.546933 
L 310.326433 145.903118 
L 342.813357 145.903118 
L 342.928558 144.615487 
L 398.487273 144.615487 
L 398.487273 144.615487 
" clip-path="url(#pca94a59bc1)" style="fill: none; stroke: #2ca02c; stroke-width: 1.5; stroke-linecap: square"/>
   </g>
   <g id="line2d_15">
    <path d="M 73.832727 61.73501 
L 73.885092 61.73501 
L 74.00553 58.644697 
L 74.461101 58.644697 
L 74.576303 61.219958 
L 398.487273 61.219958 
L 398.487273 61.219958 
" clip-path="url(#pca94a59bc1)" style="fill: none; stroke: #d62728; stroke-width: 1.5; stroke-linecap: square"/>
   </g>
   <g id="line2d_16">
    <path d="M 73.832727 61.73501 
L 73.837964 61.73501 
L 73.885092 60.87659 
L 73.906038 66.027112 
L 73.921747 66.027112 
L 74.036949 69.890003 
L 74.063131 69.890003 
L 74.07884 68.602373 
L 74.084077 71.177633 
L 74.16786 71.177633 
L 74.178333 71.177633 
L 74.183569 70.319213 
L 74.230697 78.044996 
L 74.246407 78.044996 
L 74.272589 78.044996 
L 74.298771 76.757365 
L 74.304008 79.332626 
L 74.356372 78.688811 
L 74.471574 81.264072 
L 74.576303 80.749019 
L 74.691505 84.397306 
L 74.869544 84.397306 
L 74.984746 83.109675 
L 75.021401 83.109675 
L 75.141839 88.260197 
L 75.173258 88.260197 
L 75.293696 94.698349 
L 75.398425 94.698349 
L 75.476972 97.27361 
L 75.508391 95.771374 
L 75.733558 95.771374 
L 75.84876 98.346635 
L 76.0844 98.346635 
L 76.204838 95.771374 
L 76.283385 95.771374 
L 76.398587 94.483744 
L 77.524423 94.483744 
L 77.566315 97.059004 
L 77.634389 94.483744 
L 77.702462 94.483744 
L 77.817664 97.059004 
L 78.357018 97.059004 
L 78.47222 102.209526 
L 78.587422 100.921896 
L 78.807353 100.921896 
L 78.922555 100.063475 
L 79.247215 100.063475 
L 79.362416 99.41966 
L 79.985554 99.41966 
L 80.100756 98.13203 
L 81.195173 98.13203 
L 81.310375 100.707291 
L 81.912567 100.707291 
L 82.027769 103.282551 
L 82.986039 103.282551 
L 83.080295 101.994921 
L 83.085531 104.570182 
L 83.090768 104.570182 
L 84.05951 104.570182 
L 84.174712 103.282551 
L 85.74041 103.282551 
L 85.855612 101.994921 
L 86.986685 101.994921 
L 87.101887 100.707291 
L 100.559558 100.707291 
L 100.67476 103.282551 
L 116.064681 103.282551 
L 116.179883 101.994921 
L 125.794002 101.994921 
L 125.909204 104.570182 
L 126.411903 104.570182 
L 126.527104 103.282551 
L 130.386367 103.282551 
L 130.501569 101.994921 
L 131.983483 101.994921 
L 132.098685 104.570182 
L 134.889712 104.570182 
L 135.004914 103.711762 
L 156.709991 103.711762 
L 156.825193 106.287022 
L 181.56741 106.287022 
L 181.682612 104.999392 
L 254.741536 104.999392 
L 254.856738 107.574653 
L 257.825804 107.574653 
L 257.941006 110.149914 
L 342.813357 110.149914 
L 342.928558 108.862283 
L 398.487273 108.862283 
L 398.487273 108.862283 
" clip-path="url(#pca94a59bc1)" style="fill: none; stroke: #9467bd; stroke-width: 1.5; stroke-linecap: square"/>
   </g>
   <g id="line2d_17">
    <path d="M 73.832727 64.310271 
L 73.85891 64.310271 
L 73.864146 63.795219 
L 73.895565 68.301925 
L 73.93222 67.786873 
L 73.937456 67.786873 
L 73.942693 67.143058 
L 73.984584 74.225025 
L 73.995057 74.225025 
L 74.115495 79.375547 
L 74.136441 79.375547 
L 74.251643 83.152596 
L 74.272589 83.152596 
L 74.393027 88.303118 
L 74.434919 88.303118 
L 74.471574 87.273013 
L 74.47681 89.848274 
L 74.529175 89.848274 
L 74.586776 89.848274 
L 74.701978 92.423535 
L 74.87478 92.423535 
L 74.989982 94.998796 
L 75.105184 94.998796 
L 75.220386 97.574057 
L 75.27275 97.574057 
L 75.387952 97.059004 
L 75.414135 97.059004 
L 75.534573 102.209526 
L 75.634065 102.209526 
L 75.733558 101.565711 
L 75.84876 104.140972 
L 76.398587 104.140972 
L 76.513789 106.716232 
L 79.247215 106.716232 
L 79.362416 109.291493 
L 81.912567 109.291493 
L 82.027769 111.866754 
L 82.593305 111.866754 
L 82.708507 111.222939 
L 83.609176 111.222939 
L 83.724378 113.7982 
L 92.165532 113.7982 
L 92.280734 116.373461 
L 99.559397 116.373461 
L 99.674599 115.729645 
L 100.779489 115.729645 
L 100.894691 118.304906 
L 116.525489 118.304906 
L 116.64069 117.661091 
L 259.794708 117.661091 
L 259.90991 117.146039 
L 310.211231 117.146039 
L 310.326433 116.502224 
L 398.487273 116.502224 
L 398.487273 116.502224 
" clip-path="url(#pca94a59bc1)" style="fill: none; stroke: #8c564b; stroke-width: 1.5; stroke-linecap: square"/>
   </g>
   <g id="line2d_18">
    <path d="M 73.832727 64.310271 
L 73.958402 78.087917 
L 73.968875 77.444101 
L 73.979348 77.444101 
L 74.031712 75.641419 
L 74.042185 80.79194 
L 74.063131 80.79194 
L 74.07884 80.79194 
L 74.178333 79.50431 
L 74.220224 87.230092 
L 74.298771 85.298647 
L 74.319717 85.298647 
L 74.387791 83.367201 
L 74.393027 85.942462 
L 74.424446 85.942462 
L 74.434919 85.942462 
L 74.560594 93.153192 
L 74.586776 93.153192 
L 74.717687 90.363326 
L 74.822416 90.363326 
L 74.87478 92.938587 
L 74.932381 92.294772 
L 74.942854 92.294772 
L 75.058056 96.801478 
L 75.105184 96.801478 
L 75.225622 95.642611 
L 75.267514 95.642611 
L 75.27275 94.998796 
L 75.277987 97.574057 
L 75.340824 97.574057 
L 75.414135 100.149317 
L 75.45079 99.505502 
L 75.456026 99.505502 
L 75.476972 98.861687 
L 75.482208 101.436948 
L 75.555519 100.793133 
L 75.634065 100.793133 
L 75.733558 103.368393 
L 75.749267 102.853341 
L 76.367168 102.853341 
L 76.48237 107.360048 
L 78.357018 107.360048 
L 78.477457 106.20118 
L 78.807353 106.20118 
L 78.922555 105.34276 
L 79.027284 105.34276 
L 79.142486 107.918021 
L 79.247215 107.918021 
L 79.362416 107.274206 
L 79.980317 107.274206 
L 80.095519 109.849466 
L 81.195173 109.849466 
L 81.310375 109.205651 
L 81.58267 109.205651 
L 81.697872 111.780912 
L 82.593305 111.780912 
L 82.708507 114.356173 
L 82.760871 114.356173 
L 82.876073 116.931434 
L 83.609176 116.931434 
L 83.724378 116.287618 
L 84.085693 116.287618 
L 84.200895 115.643803 
L 85.41575 115.643803 
L 85.530952 118.219064 
L 90.584125 118.219064 
L 90.699327 120.794325 
L 90.777873 120.794325 
L 90.893075 120.15051 
L 92.165532 120.15051 
L 92.280734 119.506694 
L 99.030516 119.506694 
L 99.145717 122.081955 
L 99.559397 122.081955 
L 99.674599 124.657216 
L 100.559558 124.657216 
L 100.67476 124.013401 
L 100.779489 124.013401 
L 100.894691 123.369586 
L 103.601935 123.369586 
L 103.717137 122.511165 
L 105.398036 122.511165 
L 105.513238 125.086426 
L 108.566087 125.086426 
L 108.681289 124.228006 
L 116.525489 124.228006 
L 116.64069 126.803267 
L 131.983483 126.803267 
L 132.098685 129.378528 
L 134.889712 129.378528 
L 135.004914 128.520107 
L 156.709991 128.520107 
L 156.825193 127.876292 
L 163.454536 127.876292 
L 163.569738 130.451553 
L 192.548242 130.451553 
L 192.663444 129.807738 
L 193.134724 129.807738 
L 193.249926 132.382999 
L 254.741536 132.382999 
L 254.856738 131.739183 
L 257.825804 131.739183 
L 257.941006 131.095368 
L 259.794708 131.095368 
L 259.90991 133.670629 
L 310.211231 133.670629 
L 310.326433 136.24589 
L 398.487273 136.24589 
L 398.487273 136.24589 
" clip-path="url(#pca94a59bc1)" style="fill: none; stroke: #e377c2; stroke-width: 1.5; stroke-linecap: square"/>
   </g>
   <g id="line2d_19">
    <path d="M 73.832727 61.091195 
L 73.864146 58.000882 
L 73.895565 62.507589 
L 73.942693 61.348721 
L 74.031712 73.58121 
L 74.068367 71.005949 
L 74.136441 71.005949 
L 74.183569 73.58121 
L 74.220224 69.632477 
L 74.246407 72.207738 
L 74.272589 72.207738 
L 74.387791 77.358259 
L 74.471574 73.752894 
L 74.497756 76.328155 
L 74.513466 76.328155 
L 74.586776 73.752894 
L 74.623431 76.328155 
L 74.701978 76.328155 
L 74.81718 78.903416 
L 74.822416 78.903416 
L 74.87478 76.328155 
L 74.932381 78.903416 
L 74.942854 78.903416 
L 75.063293 73.752894 
L 75.105184 73.752894 
L 75.225622 78.903416 
L 75.267514 78.903416 
L 75.27275 81.478677 
L 75.346061 78.388364 
L 75.377479 78.388364 
L 75.414135 78.388364 
L 75.534573 83.538885 
L 75.634065 83.538885 
L 75.733558 82.89507 
L 75.84876 85.470331 
L 76.367168 85.470331 
L 76.398587 82.89507 
L 76.477134 85.470331 
L 78.357018 85.470331 
L 78.47222 88.045592 
L 78.807353 88.045592 
L 78.922555 90.620852 
L 79.027284 90.620852 
L 79.142486 89.762432 
L 79.247215 89.762432 
L 79.362416 92.337693 
L 79.980317 92.337693 
L 80.095519 89.762432 
L 81.58267 89.762432 
L 81.697872 88.904012 
L 81.912567 88.904012 
L 82.027769 91.479273 
L 82.593305 91.479273 
L 82.708507 90.835458 
L 82.760871 90.835458 
L 82.876073 89.977037 
L 83.609176 89.977037 
L 83.724378 92.552298 
L 84.085693 92.552298 
L 84.200895 95.127559 
L 85.41575 95.127559 
L 85.530952 92.552298 
L 90.584125 92.552298 
L 90.699327 89.977037 
L 90.777873 89.977037 
L 90.893075 92.552298 
L 92.165532 92.552298 
L 92.280734 95.127559 
L 99.030516 95.127559 
L 99.145717 92.552298 
L 99.559397 92.552298 
L 99.674599 91.908483 
L 100.779489 91.908483 
L 100.894691 94.483744 
L 103.601935 94.483744 
L 103.717137 97.059004 
L 105.398036 97.059004 
L 105.513238 94.483744 
L 108.566087 94.483744 
L 108.681289 97.059004 
L 116.525489 97.059004 
L 116.64069 96.415189 
L 131.983483 96.415189 
L 132.098685 95.771374 
L 134.889712 95.771374 
L 135.004914 98.346635 
L 156.709991 98.346635 
L 156.825193 100.921896 
L 163.454536 100.921896 
L 163.569738 98.346635 
L 192.548242 98.346635 
L 192.663444 100.921896 
L 193.134724 100.921896 
L 193.249926 98.346635 
L 254.741536 98.346635 
L 254.856738 100.921896 
L 257.825804 100.921896 
L 257.941006 103.497156 
L 259.794708 103.497156 
L 259.90991 102.982104 
L 310.211231 102.982104 
L 310.326433 102.338289 
L 398.487273 102.338289 
L 398.487273 102.338289 
" clip-path="url(#pca94a59bc1)" style="fill: none; stroke: #7f7f7f; stroke-width: 1.5; stroke-linecap: square"/>
   </g>
   <g id="line2d_20">
    <path d="M 73.832727 61.091195 
L 73.85891 61.091195 
L 73.942693 70.233371 
L 73.979348 67.786873 
L 74.036949 65.984191 
L 74.042185 68.559452 
L 74.089313 67.915636 
L 74.136441 67.915636 
L 74.178333 67.271821 
L 74.188806 72.422343 
L 74.209752 72.422343 
L 74.220224 72.422343 
L 74.351136 69.847082 
L 74.356372 69.847082 
L 74.434919 68.559452 
L 74.440155 71.134712 
L 74.455865 71.134712 
L 74.461101 71.134712 
L 74.471574 73.709973 
L 74.576303 73.194921 
L 74.586776 73.194921 
L 74.722923 69.546635 
L 74.87478 69.546635 
L 74.989982 68.90282 
L 75.021401 68.90282 
L 75.141839 67.743952 
L 75.173258 67.743952 
L 75.27275 66.456322 
L 75.387952 69.031583 
L 75.414135 69.031583 
L 75.476972 67.743952 
L 75.482208 70.319213 
L 75.518864 69.675398 
L 75.634065 69.675398 
L 75.733558 72.250659 
L 75.749267 71.735607 
L 76.398587 71.735607 
L 76.477134 71.091791 
L 76.48237 73.667052 
L 76.492843 73.667052 
L 77.524423 73.667052 
L 77.639625 72.808632 
L 77.702462 72.808632 
L 77.817664 71.950212 
L 78.357018 71.950212 
L 78.477457 70.791344 
L 78.807353 70.791344 
L 78.922555 69.932924 
L 79.027284 69.932924 
L 79.142486 72.508185 
L 79.247215 72.508185 
L 79.362416 71.86437 
L 81.195173 71.86437 
L 81.310375 71.220554 
L 82.593305 71.220554 
L 82.708507 73.795815 
L 82.760871 73.795815 
L 82.876073 76.371076 
L 83.080295 76.371076 
L 83.195496 75.512656 
L 83.609176 75.512656 
L 83.724378 74.868841 
L 84.085693 74.868841 
L 84.200895 74.225025 
L 90.777873 74.225025 
L 90.893075 73.58121 
L 92.165532 73.58121 
L 92.280734 72.937395 
L 99.559397 72.937395 
L 99.674599 75.512656 
L 100.559558 75.512656 
L 100.67476 74.868841 
L 100.779489 74.868841 
L 100.894691 74.225025 
L 103.601935 74.225025 
L 103.717137 73.366605 
L 108.566087 73.366605 
L 108.681289 72.508185 
L 116.525489 72.508185 
L 116.64069 75.083446 
L 125.794002 75.083446 
L 125.909204 74.225025 
L 131.983483 74.225025 
L 132.098685 76.800286 
L 134.889712 76.800286 
L 135.004914 75.941866 
L 156.709991 75.941866 
L 156.825193 75.298051 
L 192.548242 75.298051 
L 192.663444 74.654235 
L 254.741536 74.654235 
L 254.856738 74.01042 
L 257.825804 74.01042 
L 257.941006 73.366605 
L 259.794708 73.366605 
L 259.90991 75.941866 
L 310.211231 75.941866 
L 310.326433 78.517127 
L 398.487273 78.517127 
L 398.487273 78.517127 
" clip-path="url(#pca94a59bc1)" style="fill: none; stroke: #bcbd22; stroke-width: 1.5; stroke-linecap: square"/>
   </g>
   <g id="line2d_21">
    <path d="M 73.832727 61.73501 
L 73.837964 61.73501 
L 73.942693 71.521001 
L 73.963638 69.718319 
L 73.968875 69.718319 
L 73.979348 68.430689 
L 74.042185 75.641419 
L 74.052658 75.641419 
L 74.063131 75.641419 
L 74.07884 78.21668 
L 74.173096 77.572864 
L 74.178333 77.572864 
L 74.230697 77.487022 
L 74.298771 82.637544 
L 74.319717 81.349914 
L 74.324953 83.925174 
L 74.408737 82.637544 
L 74.434919 82.637544 
L 74.560594 90.363326 
L 74.576303 90.363326 
L 74.618194 89.075696 
L 74.65485 94.226218 
L 74.670559 94.226218 
L 74.675795 94.226218 
L 74.796234 92.723982 
L 74.869544 92.723982 
L 74.984746 95.299243 
L 75.021401 95.299243 
L 75.136603 94.655428 
L 75.173258 94.655428 
L 75.194204 94.011613 
L 75.19944 96.586873 
L 75.27275 95.943058 
L 75.398425 95.943058 
L 75.476972 94.655428 
L 75.482208 97.230689 
L 75.497918 97.230689 
L 75.61312 99.805949 
L 75.634065 99.805949 
L 75.733558 102.38121 
L 75.749267 101.866158 
L 76.0844 101.866158 
L 76.204838 107.01668 
L 76.283385 107.01668 
L 76.398587 109.59194 
L 76.477134 109.59194 
L 76.592335 112.167201 
L 77.524423 112.167201 
L 77.566315 111.308781 
L 77.608206 116.459303 
L 77.702462 116.459303 
L 77.817664 115.600882 
L 78.357018 115.600882 
L 78.47222 114.442015 
L 78.587422 117.017276 
L 78.807353 117.017276 
L 78.922555 119.592537 
L 79.027284 119.592537 
L 79.142486 122.167797 
L 79.247215 122.167797 
L 79.362416 124.743058 
L 79.985554 124.743058 
L 80.100756 127.318319 
L 81.195173 127.318319 
L 81.310375 126.674504 
L 81.58267 126.674504 
L 81.697872 125.816083 
L 81.912567 125.816083 
L 82.027769 124.957663 
L 82.593305 124.957663 
L 82.708507 127.532924 
L 82.760871 127.532924 
L 82.876073 130.108185 
L 82.986039 130.108185 
L 83.080295 132.683446 
L 83.096004 131.825025 
L 83.609176 131.825025 
L 83.724378 131.18121 
L 84.05951 131.18121 
L 84.085693 133.756471 
L 84.169476 133.112656 
L 85.74041 133.112656 
L 85.855612 135.687917 
L 86.986685 135.687917 
L 87.101887 138.263177 
L 90.777873 138.263177 
L 90.893075 137.619362 
L 99.559397 137.619362 
L 99.674599 140.194623 
L 100.559558 140.194623 
L 100.67476 139.550808 
L 100.779489 139.550808 
L 100.894691 138.906993 
L 103.601935 138.906993 
L 103.717137 138.048572 
L 108.566087 138.048572 
L 108.681289 137.190152 
L 116.064681 137.190152 
L 116.179883 139.765413 
L 116.525489 139.765413 
L 116.64069 142.340674 
L 125.794002 142.340674 
L 125.909204 141.482253 
L 126.411903 141.482253 
L 126.527104 144.057514 
L 130.386367 144.057514 
L 130.501569 146.632775 
L 134.889712 146.632775 
L 135.004914 149.208036 
L 156.709991 149.208036 
L 156.825193 148.564221 
L 181.56741 148.564221 
L 181.682612 151.139481 
L 192.548242 151.139481 
L 192.663444 150.495666 
L 254.741536 150.495666 
L 254.856738 149.851851 
L 257.825804 149.851851 
L 257.941006 149.208036 
L 259.794708 149.208036 
L 259.90991 151.783297 
L 310.211231 151.783297 
L 310.326433 154.358557 
L 342.813357 154.358557 
L 342.928558 156.933818 
L 398.487273 156.933818 
L 398.487273 156.933818 
" clip-path="url(#pca94a59bc1)" style="fill: none; stroke: #17becf; stroke-width: 1.5; stroke-linecap: square"/>
   </g>
   <g id="line2d_22">
    <path d="M 73.832727 61.091195 
L 73.85891 61.091195 
L 73.958402 72.29358 
L 73.989821 71.005949 
L 73.995057 71.005949 
L 74.115495 69.847082 
L 74.136441 69.847082 
L 74.183569 69.203267 
L 74.188806 71.778528 
L 74.214988 71.778528 
L 74.220224 74.353788 
L 74.324953 73.066158 
L 74.382554 73.066158 
L 74.434919 72.422343 
L 74.440155 74.997604 
L 74.461101 74.997604 
L 74.471574 77.572864 
L 74.576303 77.057812 
L 74.586776 77.057812 
L 74.701978 76.413997 
L 74.87478 76.413997 
L 74.989982 75.770182 
L 75.105184 75.770182 
L 75.220386 75.25513 
L 75.27275 75.25513 
L 75.387952 77.83039 
L 75.414135 77.83039 
L 75.534573 76.54276 
L 75.634065 76.54276 
L 75.733558 79.118021 
L 75.749267 78.602969 
L 76.398587 78.602969 
L 76.513789 77.959154 
L 79.247215 77.959154 
L 79.362416 77.315338 
L 81.912567 77.315338 
L 82.027769 76.456918 
L 82.593305 76.456918 
L 82.708507 79.032179 
L 83.609176 79.032179 
L 83.724378 78.388364 
L 92.165532 78.388364 
L 92.280734 77.744548 
L 99.559397 77.744548 
L 99.674599 80.319809 
L 100.779489 80.319809 
L 100.894691 79.675994 
L 116.525489 79.675994 
L 116.64069 82.251255 
L 259.794708 82.251255 
L 259.90991 84.826516 
L 310.211231 84.826516 
L 310.326433 87.401776 
L 398.487273 87.401776 
L 398.487273 87.401776 
" clip-path="url(#pca94a59bc1)" style="fill: none; stroke: #1f77b4; stroke-width: 1.5; stroke-linecap: square"/>
   </g>
   <g id="line2d_23">
    <path d="M 73.832727 61.73501 
L 73.848437 61.73501 
L 73.963638 58.129645 
L 74.036949 58.129645 
L 74.157387 63.280167 
L 74.178333 63.280167 
L 74.183569 62.421747 
L 74.188806 64.997007 
L 74.277825 64.997007 
L 74.283062 64.997007 
L 74.408737 72.72279 
L 74.434919 72.72279 
L 74.461101 72.207738 
L 74.47681 77.358259 
L 74.523938 74.782999 
L 74.592012 74.782999 
L 74.618194 69.632477 
L 74.681032 77.358259 
L 74.696741 77.358259 
L 74.900963 77.358259 
L 75.016165 74.782999 
L 75.021401 74.782999 
L 75.105184 77.358259 
L 75.136603 76.843207 
L 75.173258 76.843207 
L 75.28846 81.349914 
L 75.408898 81.349914 
L 75.497918 77.916232 
L 75.518864 80.491493 
L 75.733558 80.491493 
L 75.84876 83.066754 
L 77.524423 83.066754 
L 77.639625 85.642015 
L 77.702462 85.642015 
L 77.817664 88.217276 
L 78.16327 88.217276 
L 78.278472 85.642015 
L 78.357018 85.642015 
L 78.430329 85.126963 
L 78.435565 87.702224 
L 78.446038 87.702224 
L 81.195173 87.702224 
L 81.310375 90.277484 
L 83.080295 90.277484 
L 83.195496 92.852745 
L 100.559558 92.852745 
L 100.67476 95.428006 
L 125.794002 95.428006 
L 125.909204 98.003267 
L 131.983483 98.003267 
L 132.098685 100.578528 
L 137.879724 100.578528 
L 137.994926 98.003267 
L 156.709991 98.003267 
L 156.825193 100.578528 
L 254.741536 100.578528 
L 254.856738 103.153788 
L 257.825804 103.153788 
L 257.941006 105.729049 
L 259.574778 105.729049 
L 259.68998 103.153788 
L 259.794708 103.153788 
L 259.90991 105.729049 
L 322.637322 105.729049 
L 322.752524 103.153788 
L 398.487273 103.153788 
L 398.487273 103.153788 
" clip-path="url(#pca94a59bc1)" style="fill: none; stroke: #ff7f0e; stroke-width: 1.5; stroke-linecap: square"/>
   </g>
   <g id="patch_3">
    <path d="M 57.6 162.432 
L 57.6 41.472 
" style="fill: none; stroke: #000000; stroke-width: 0.8; stroke-linejoin: miter; stroke-linecap: square"/>
   </g>
   <g id="patch_4">
    <path d="M 414.72 162.432 
L 414.72 41.472 
" style="fill: none; stroke: #000000; stroke-width: 0.8; stroke-linejoin: miter; stroke-linecap: square"/>
   </g>
   <g id="patch_5">
    <path d="M 57.6 162.432 
L 414.72 162.432 
" style="fill: none; stroke: #000000; stroke-width: 0.8; stroke-linejoin: miter; stroke-linecap: square"/>
   </g>
   <g id="patch_6">
    <path d="M 57.6 41.472 
L 414.72 41.472 
" style="fill: none; stroke: #000000; stroke-width: 0.8; stroke-linejoin: miter; stroke-linecap: square"/>
   </g>
   <g id="text_12">
    <!-- WSP -->
    <g transform="translate(361.832136 46.970182)scale(0.08 -0.08)">
     <defs>
      <path id="DejaVuSans-57" d="M 213 4666 
L 850 4666 
L 1831 722 
L 2809 4666 
L 3519 4666 
L 4500 722 
L 5478 4666 
L 6119 4666 
L 4947 0 
L 4153 0 
L 3169 4050 
L 2175 0 
L 1381 0 
L 213 4666 
z
" transform="scale(0.015625)"/>
      <path id="DejaVuSans-53" d="M 3425 4513 
L 3425 3897 
Q 3066 4069 2747 4153 
Q 2428 4238 2131 4238 
Q 1616 4238 1336 4038 
Q 1056 3838 1056 3469 
Q 1056 3159 1242 3001 
Q 1428 2844 1947 2747 
L 2328 2669 
Q 3034 2534 3370 2195 
Q 3706 1856 3706 1288 
Q 3706 609 3251 259 
Q 2797 -91 1919 -91 
Q 1588 -91 1214 -16 
Q 841 59 441 206 
L 441 856 
Q 825 641 1194 531 
Q 1563 422 1919 422 
Q 2459 422 2753 634 
Q 3047 847 3047 1241 
Q 3047 1584 2836 1778 
Q 2625 1972 2144 2069 
L 1759 2144 
Q 1053 2284 737 2584 
Q 422 2884 422 3419 
Q 422 4038 858 4394 
Q 1294 4750 2059 4750 
Q 2388 4750 2728 4690 
Q 3069 4631 3425 4513 
z
" transform="scale(0.015625)"/>
      <path id="DejaVuSans-50" d="M 1259 4147 
L 1259 2394 
L 2053 2394 
Q 2494 2394 2734 2622 
Q 2975 2850 2975 3272 
Q 2975 3691 2734 3919 
Q 2494 4147 2053 4147 
L 1259 4147 
z
M 628 4666 
L 2053 4666 
Q 2838 4666 3239 4311 
Q 3641 3956 3641 3272 
Q 3641 2581 3239 2228 
Q 2838 1875 2053 1875 
L 1259 1875 
L 1259 0 
L 628 0 
L 628 4666 
z
" transform="scale(0.015625)"/>
     </defs>
     <use xlink:href="#DejaVuSans-57"/>
     <use xlink:href="#DejaVuSans-53" x="98.876953"/>
     <use xlink:href="#DejaVuSans-50" x="162.353516"/>
    </g>
   </g>
   <g id="text_13">
    <!-- Iambic -->
    <g transform="translate(361.832136 136.288811)scale(0.08 -0.08)">
     <defs>
      <path id="DejaVuSans-49" d="M 628 4666 
L 1259 4666 
L 1259 0 
L 628 0 
L 628 4666 
z
" transform="scale(0.015625)"/>
      <path id="DejaVuSans-61" d="M 2194 1759 
Q 1497 1759 1228 1600 
Q 959 1441 959 1056 
Q 959 750 1161 570 
Q 1363 391 1709 391 
Q 2188 391 2477 730 
Q 2766 1069 2766 1631 
L 2766 1759 
L 2194 1759 
z
M 3341 1997 
L 3341 0 
L 2766 0 
L 2766 531 
Q 2569 213 2275 61 
Q 1981 -91 1556 -91 
Q 1019 -91 701 211 
Q 384 513 384 1019 
Q 384 1609 779 1909 
Q 1175 2209 1959 2209 
L 2766 2209 
L 2766 2266 
Q 2766 2663 2505 2880 
Q 2244 3097 1772 3097 
Q 1472 3097 1187 3025 
Q 903 2953 641 2809 
L 641 3341 
Q 956 3463 1253 3523 
Q 1550 3584 1831 3584 
Q 2591 3584 2966 3190 
Q 3341 2797 3341 1997 
z
" transform="scale(0.015625)"/>
      <path id="DejaVuSans-6d" d="M 3328 2828 
Q 3544 3216 3844 3400 
Q 4144 3584 4550 3584 
Q 5097 3584 5394 3201 
Q 5691 2819 5691 2113 
L 5691 0 
L 5113 0 
L 5113 2094 
Q 5113 2597 4934 2840 
Q 4756 3084 4391 3084 
Q 3944 3084 3684 2787 
Q 3425 2491 3425 1978 
L 3425 0 
L 2847 0 
L 2847 2094 
Q 2847 2600 2669 2842 
Q 2491 3084 2119 3084 
Q 1678 3084 1418 2786 
Q 1159 2488 1159 1978 
L 1159 0 
L 581 0 
L 581 3500 
L 1159 3500 
L 1159 2956 
Q 1356 3278 1631 3431 
Q 1906 3584 2284 3584 
Q 2666 3584 2933 3390 
Q 3200 3197 3328 2828 
z
" transform="scale(0.015625)"/>
      <path id="DejaVuSans-62" d="M 3116 1747 
Q 3116 2381 2855 2742 
Q 2594 3103 2138 3103 
Q 1681 3103 1420 2742 
Q 1159 2381 1159 1747 
Q 1159 1113 1420 752 
Q 1681 391 2138 391 
Q 2594 391 2855 752 
Q 3116 1113 3116 1747 
z
M 1159 2969 
Q 1341 3281 1617 3432 
Q 1894 3584 2278 3584 
Q 2916 3584 3314 3078 
Q 3713 2572 3713 1747 
Q 3713 922 3314 415 
Q 2916 -91 2278 -91 
Q 1894 -91 1617 61 
Q 1341 213 1159 525 
L 1159 0 
L 581 0 
L 581 4863 
L 1159 4863 
L 1159 2969 
z
" transform="scale(0.015625)"/>
      <path id="DejaVuSans-69" d="M 603 3500 
L 1178 3500 
L 1178 0 
L 603 0 
L 603 3500 
z
M 603 4863 
L 1178 4863 
L 1178 4134 
L 603 4134 
L 603 4863 
z
" transform="scale(0.015625)"/>
      <path id="DejaVuSans-63" d="M 3122 3366 
L 3122 2828 
Q 2878 2963 2633 3030 
Q 2388 3097 2138 3097 
Q 1578 3097 1268 2742 
Q 959 2388 959 1747 
Q 959 1106 1268 751 
Q 1578 397 2138 397 
Q 2388 397 2633 464 
Q 2878 531 3122 666 
L 3122 134 
Q 2881 22 2623 -34 
Q 2366 -91 2075 -91 
Q 1284 -91 818 406 
Q 353 903 353 1747 
Q 353 2603 823 3093 
Q 1294 3584 2113 3584 
Q 2378 3584 2631 3529 
Q 2884 3475 3122 3366 
z
" transform="scale(0.015625)"/>
     </defs>
     <use xlink:href="#DejaVuSans-49"/>
     <use xlink:href="#DejaVuSans-61" x="29.492188"/>
     <use xlink:href="#DejaVuSans-6d" x="90.771484"/>
     <use xlink:href="#DejaVuSans-62" x="188.183594"/>
     <use xlink:href="#DejaVuSans-69" x="251.660156"/>
     <use xlink:href="#DejaVuSans-63" x="279.443359"/>
    </g>
   </g>
   <g id="text_14">
    <!-- Parse -->
    <g transform="translate(361.832136 144.615487)scale(0.08 -0.08)">
     <defs>
      <path id="DejaVuSans-72" d="M 2631 2963 
Q 2534 3019 2420 3045 
Q 2306 3072 2169 3072 
Q 1681 3072 1420 2755 
Q 1159 2438 1159 1844 
L 1159 0 
L 581 0 
L 581 3500 
L 1159 3500 
L 1159 2956 
Q 1341 3275 1631 3429 
Q 1922 3584 2338 3584 
Q 2397 3584 2469 3576 
Q 2541 3569 2628 3553 
L 2631 2963 
z
" transform="scale(0.015625)"/>
      <path id="DejaVuSans-73" d="M 2834 3397 
L 2834 2853 
Q 2591 2978 2328 3040 
Q 2066 3103 1784 3103 
Q 1356 3103 1142 2972 
Q 928 2841 928 2578 
Q 928 2378 1081 2264 
Q 1234 2150 1697 2047 
L 1894 2003 
Q 2506 1872 2764 1633 
Q 3022 1394 3022 966 
Q 3022 478 2636 193 
Q 2250 -91 1575 -91 
Q 1294 -91 989 -36 
Q 684 19 347 128 
L 347 722 
Q 666 556 975 473 
Q 1284 391 1588 391 
Q 1994 391 2212 530 
Q 2431 669 2431 922 
Q 2431 1156 2273 1281 
Q 2116 1406 1581 1522 
L 1381 1569 
Q 847 1681 609 1914 
Q 372 2147 372 2553 
Q 372 3047 722 3315 
Q 1072 3584 1716 3584 
Q 2034 3584 2315 3537 
Q 2597 3491 2834 3397 
z
" transform="scale(0.015625)"/>
      <path id="DejaVuSans-65" d="M 3597 1894 
L 3597 1613 
L 953 1613 
Q 991 1019 1311 708 
Q 1631 397 2203 397 
Q 2534 397 2845 478 
Q 3156 559 3463 722 
L 3463 178 
Q 3153 47 2828 -22 
Q 2503 -91 2169 -91 
Q 1331 -91 842 396 
Q 353 884 353 1716 
Q 353 2575 817 3079 
Q 1281 3584 2069 3584 
Q 2775 3584 3186 3129 
Q 3597 2675 3597 1894 
z
M 3022 2063 
Q 3016 2534 2758 2815 
Q 2500 3097 2075 3097 
Q 1594 3097 1305 2825 
Q 1016 2553 972 2059 
L 3022 2063 
z
" transform="scale(0.015625)"/>
     </defs>
     <use xlink:href="#DejaVuSans-50"/>
     <use xlink:href="#DejaVuSans-61" x="55.802734"/>
     <use xlink:href="#DejaVuSans-72" x="117.082031"/>
     <use xlink:href="#DejaVuSans-73" x="158.195312"/>
     <use xlink:href="#DejaVuSans-65" x="210.294922"/>
    </g>
   </g>
   <g id="text_15">
    <!-- FootBin -->
    <g transform="translate(361.832136 61.219958)scale(0.08 -0.08)">
     <defs>
      <path id="DejaVuSans-46" d="M 628 4666 
L 3309 4666 
L 3309 4134 
L 1259 4134 
L 1259 2759 
L 3109 2759 
L 3109 2228 
L 1259 2228 
L 1259 0 
L 628 0 
L 628 4666 
z
" transform="scale(0.015625)"/>
      <path id="DejaVuSans-6f" d="M 1959 3097 
Q 1497 3097 1228 2736 
Q 959 2375 959 1747 
Q 959 1119 1226 758 
Q 1494 397 1959 397 
Q 2419 397 2687 759 
Q 2956 1122 2956 1747 
Q 2956 2369 2687 2733 
Q 2419 3097 1959 3097 
z
M 1959 3584 
Q 2709 3584 3137 3096 
Q 3566 2609 3566 1747 
Q 3566 888 3137 398 
Q 2709 -91 1959 -91 
Q 1206 -91 779 398 
Q 353 888 353 1747 
Q 353 2609 779 3096 
Q 1206 3584 1959 3584 
z
" transform="scale(0.015625)"/>
      <path id="DejaVuSans-74" d="M 1172 4494 
L 1172 3500 
L 2356 3500 
L 2356 3053 
L 1172 3053 
L 1172 1153 
Q 1172 725 1289 603 
Q 1406 481 1766 481 
L 2356 481 
L 2356 0 
L 1766 0 
Q 1100 0 847 248 
Q 594 497 594 1153 
L 594 3053 
L 172 3053 
L 172 3500 
L 594 3500 
L 594 4494 
L 1172 4494 
z
" transform="scale(0.015625)"/>
      <path id="DejaVuSans-42" d="M 1259 2228 
L 1259 519 
L 2272 519 
Q 2781 519 3026 730 
Q 3272 941 3272 1375 
Q 3272 1813 3026 2020 
Q 2781 2228 2272 2228 
L 1259 2228 
z
M 1259 4147 
L 1259 2741 
L 2194 2741 
Q 2656 2741 2882 2914 
Q 3109 3088 3109 3444 
Q 3109 3797 2882 3972 
Q 2656 4147 2194 4147 
L 1259 4147 
z
M 628 4666 
L 2241 4666 
Q 2963 4666 3353 4366 
Q 3744 4066 3744 3513 
Q 3744 3084 3544 2831 
Q 3344 2578 2956 2516 
Q 3422 2416 3680 2098 
Q 3938 1781 3938 1306 
Q 3938 681 3513 340 
Q 3088 0 2303 0 
L 628 0 
L 628 4666 
z
" transform="scale(0.015625)"/>
      <path id="DejaVuSans-6e" d="M 3513 2113 
L 3513 0 
L 2938 0 
L 2938 2094 
Q 2938 2591 2744 2837 
Q 2550 3084 2163 3084 
Q 1697 3084 1428 2787 
Q 1159 2491 1159 1978 
L 1159 0 
L 581 0 
L 581 3500 
L 1159 3500 
L 1159 2956 
Q 1366 3272 1645 3428 
Q 1925 3584 2291 3584 
Q 2894 3584 3203 3211 
Q 3513 2838 3513 2113 
z
" transform="scale(0.015625)"/>
     </defs>
     <use xlink:href="#DejaVuSans-46"/>
     <use xlink:href="#DejaVuSans-6f" x="53.894531"/>
     <use xlink:href="#DejaVuSans-6f" x="115.076172"/>
     <use xlink:href="#DejaVuSans-74" x="176.257812"/>
     <use xlink:href="#DejaVuSans-42" x="215.466797"/>
     <use xlink:href="#DejaVuSans-69" x="284.070312"/>
     <use xlink:href="#DejaVuSans-6e" x="311.853516"/>
    </g>
   </g>
   <g id="text_16">
    <!-- WFL -->
    <g transform="translate(361.832136 108.862283)scale(0.08 -0.08)">
     <defs>
      <path id="DejaVuSans-4c" d="M 628 4666 
L 1259 4666 
L 1259 531 
L 3531 531 
L 3531 0 
L 628 0 
L 628 4666 
z
" transform="scale(0.015625)"/>
     </defs>
     <use xlink:href="#DejaVuSans-57"/>
     <use xlink:href="#DejaVuSans-46" x="98.876953"/>
     <use xlink:href="#DejaVuSans-4c" x="156.396484"/>
    </g>
   </g>
   <g id="text_17">
    <!-- WFR -->
    <g transform="translate(361.832136 116.502224)scale(0.08 -0.08)">
     <defs>
      <path id="DejaVuSans-52" d="M 2841 2188 
Q 3044 2119 3236 1894 
Q 3428 1669 3622 1275 
L 4263 0 
L 3584 0 
L 2988 1197 
Q 2756 1666 2539 1819 
Q 2322 1972 1947 1972 
L 1259 1972 
L 1259 0 
L 628 0 
L 628 4666 
L 2053 4666 
Q 2853 4666 3247 4331 
Q 3641 3997 3641 3322 
Q 3641 2881 3436 2590 
Q 3231 2300 2841 2188 
z
M 1259 4147 
L 1259 2491 
L 2053 2491 
Q 2509 2491 2742 2702 
Q 2975 2913 2975 3322 
Q 2975 3731 2742 3939 
Q 2509 4147 2053 4147 
L 1259 4147 
z
" transform="scale(0.015625)"/>
     </defs>
     <use xlink:href="#DejaVuSans-57"/>
     <use xlink:href="#DejaVuSans-46" x="98.876953"/>
     <use xlink:href="#DejaVuSans-52" x="156.396484"/>
    </g>
   </g>
   <g id="text_18">
    <!-- Main-L -->
    <g transform="translate(361.832136 136.24589)scale(0.08 -0.08)">
     <defs>
      <path id="DejaVuSans-4d" d="M 628 4666 
L 1569 4666 
L 2759 1491 
L 3956 4666 
L 4897 4666 
L 4897 0 
L 4281 0 
L 4281 4097 
L 3078 897 
L 2444 897 
L 1241 4097 
L 1241 0 
L 628 0 
L 628 4666 
z
" transform="scale(0.015625)"/>
      <path id="DejaVuSans-2d" d="M 313 2009 
L 1997 2009 
L 1997 1497 
L 313 1497 
L 313 2009 
z
" transform="scale(0.015625)"/>
     </defs>
     <use xlink:href="#DejaVuSans-4d"/>
     <use xlink:href="#DejaVuSans-61" x="86.279297"/>
     <use xlink:href="#DejaVuSans-69" x="147.558594"/>
     <use xlink:href="#DejaVuSans-6e" x="175.341797"/>
     <use xlink:href="#DejaVuSans-2d" x="238.720703"/>
     <use xlink:href="#DejaVuSans-4c" x="274.804688"/>
    </g>
   </g>
   <g id="text_19">
    <!-- Main-R -->
    <g transform="translate(361.832136 102.338289)scale(0.08 -0.08)">
     <use xlink:href="#DejaVuSans-4d"/>
     <use xlink:href="#DejaVuSans-61" x="86.279297"/>
     <use xlink:href="#DejaVuSans-69" x="147.558594"/>
     <use xlink:href="#DejaVuSans-6e" x="175.341797"/>
     <use xlink:href="#DejaVuSans-2d" x="238.720703"/>
     <use xlink:href="#DejaVuSans-52" x="274.804688"/>
    </g>
   </g>
   <g id="text_20">
    <!-- AFL -->
    <g transform="translate(361.832136 78.517127)scale(0.08 -0.08)">
     <defs>
      <path id="DejaVuSans-41" d="M 2188 4044 
L 1331 1722 
L 3047 1722 
L 2188 4044 
z
M 1831 4666 
L 2547 4666 
L 4325 0 
L 3669 0 
L 3244 1197 
L 1141 1197 
L 716 0 
L 50 0 
L 1831 4666 
z
" transform="scale(0.015625)"/>
     </defs>
     <use xlink:href="#DejaVuSans-41"/>
     <use xlink:href="#DejaVuSans-46" x="68.408203"/>
     <use xlink:href="#DejaVuSans-4c" x="125.927734"/>
    </g>
   </g>
   <g id="text_21">
    <!-- AFR -->
    <g transform="translate(361.832136 156.933818)scale(0.08 -0.08)">
     <use xlink:href="#DejaVuSans-41"/>
     <use xlink:href="#DejaVuSans-46" x="68.408203"/>
     <use xlink:href="#DejaVuSans-52" x="125.927734"/>
    </g>
   </g>
   <g id="text_22">
    <!-- Nonfinal -->
    <g transform="translate(361.832136 87.401776)scale(0.08 -0.08)">
     <defs>
      <path id="DejaVuSans-4e" d="M 628 4666 
L 1478 4666 
L 3547 763 
L 3547 4666 
L 4159 4666 
L 4159 0 
L 3309 0 
L 1241 3903 
L 1241 0 
L 628 0 
L 628 4666 
z
" transform="scale(0.015625)"/>
      <path id="DejaVuSans-66" d="M 2375 4863 
L 2375 4384 
L 1825 4384 
Q 1516 4384 1395 4259 
Q 1275 4134 1275 3809 
L 1275 3500 
L 2222 3500 
L 2222 3053 
L 1275 3053 
L 1275 0 
L 697 0 
L 697 3053 
L 147 3053 
L 147 3500 
L 697 3500 
L 697 3744 
Q 697 4328 969 4595 
Q 1241 4863 1831 4863 
L 2375 4863 
z
" transform="scale(0.015625)"/>
      <path id="DejaVuSans-6c" d="M 603 4863 
L 1178 4863 
L 1178 0 
L 603 0 
L 603 4863 
z
" transform="scale(0.015625)"/>
     </defs>
     <use xlink:href="#DejaVuSans-4e"/>
     <use xlink:href="#DejaVuSans-6f" x="74.804688"/>
     <use xlink:href="#DejaVuSans-6e" x="135.986328"/>
     <use xlink:href="#DejaVuSans-66" x="199.365234"/>
     <use xlink:href="#DejaVuSans-69" x="234.570312"/>
     <use xlink:href="#DejaVuSans-6e" x="262.353516"/>
     <use xlink:href="#DejaVuSans-61" x="325.732422"/>
     <use xlink:href="#DejaVuSans-6c" x="387.011719"/>
    </g>
   </g>
   <g id="text_23">
    <!-- Trochaic -->
    <g transform="translate(361.832136 103.153788)scale(0.08 -0.08)">
     <defs>
      <path id="DejaVuSans-54" d="M -19 4666 
L 3928 4666 
L 3928 4134 
L 2272 4134 
L 2272 0 
L 1638 0 
L 1638 4134 
L -19 4134 
L -19 4666 
z
" transform="scale(0.015625)"/>
      <path id="DejaVuSans-68" d="M 3513 2113 
L 3513 0 
L 2938 0 
L 2938 2094 
Q 2938 2591 2744 2837 
Q 2550 3084 2163 3084 
Q 1697 3084 1428 2787 
Q 1159 2491 1159 1978 
L 1159 0 
L 581 0 
L 581 4863 
L 1159 4863 
L 1159 2956 
Q 1366 3272 1645 3428 
Q 1925 3584 2291 3584 
Q 2894 3584 3203 3211 
Q 3513 2838 3513 2113 
z
" transform="scale(0.015625)"/>
     </defs>
     <use xlink:href="#DejaVuSans-54"/>
     <use xlink:href="#DejaVuSans-72" x="46.333984"/>
     <use xlink:href="#DejaVuSans-6f" x="85.197266"/>
     <use xlink:href="#DejaVuSans-63" x="146.378906"/>
     <use xlink:href="#DejaVuSans-68" x="201.359375"/>
     <use xlink:href="#DejaVuSans-61" x="264.738281"/>
     <use xlink:href="#DejaVuSans-69" x="326.017578"/>
     <use xlink:href="#DejaVuSans-63" x="353.800781"/>
    </g>
   </g>
  </g>
  <g id="axes_2">
   <g id="patch_7">
    <path d="M 57.6 307.584 
L 414.72 307.584 
L 414.72 186.624 
L 57.6 186.624 
z
" style="fill: #ffffff"/>
   </g>
   <g id="matplotlib.axis_3">
    <g id="xtick_8">
     <g id="line2d_24">
      <g>
       <use xlink:href="#m6808750465" x="71.373223" y="307.584" style="stroke: #000000; stroke-width: 0.8"/>
      </g>
     </g>
     <g id="text_24">
      <!-- 0 -->
      <g transform="translate(68.191973 322.182437)scale(0.1 -0.1)">
       <use xlink:href="#DejaVuSans-30"/>
      </g>
     </g>
    </g>
    <g id="xtick_9">
     <g id="line2d_25">
      <g>
       <use xlink:href="#m6808750465" x="120.563306" y="307.584" style="stroke: #000000; stroke-width: 0.8"/>
      </g>
     </g>
     <g id="text_25">
      <!-- 20 -->
      <g transform="translate(114.200806 322.182437)scale(0.1 -0.1)">
       <use xlink:href="#DejaVuSans-32"/>
       <use xlink:href="#DejaVuSans-30" x="63.623047"/>
      </g>
     </g>
    </g>
    <g id="xtick_10">
     <g id="line2d_26">
      <g>
       <use xlink:href="#m6808750465" x="169.753388" y="307.584" style="stroke: #000000; stroke-width: 0.8"/>
      </g>
     </g>
     <g id="text_26">
      <!-- 40 -->
      <g transform="translate(163.390888 322.182437)scale(0.1 -0.1)">
       <use xlink:href="#DejaVuSans-34"/>
       <use xlink:href="#DejaVuSans-30" x="63.623047"/>
      </g>
     </g>
    </g>
    <g id="xtick_11">
     <g id="line2d_27">
      <g>
       <use xlink:href="#m6808750465" x="218.943471" y="307.584" style="stroke: #000000; stroke-width: 0.8"/>
      </g>
     </g>
     <g id="text_27">
      <!-- 60 -->
      <g transform="translate(212.580971 322.182437)scale(0.1 -0.1)">
       <use xlink:href="#DejaVuSans-36"/>
       <use xlink:href="#DejaVuSans-30" x="63.623047"/>
      </g>
     </g>
    </g>
    <g id="xtick_12">
     <g id="line2d_28">
      <g>
       <use xlink:href="#m6808750465" x="268.133554" y="307.584" style="stroke: #000000; stroke-width: 0.8"/>
      </g>
     </g>
     <g id="text_28">
      <!-- 80 -->
      <g transform="translate(261.771054 322.182437)scale(0.1 -0.1)">
       <use xlink:href="#DejaVuSans-38"/>
       <use xlink:href="#DejaVuSans-30" x="63.623047"/>
      </g>
     </g>
    </g>
    <g id="xtick_13">
     <g id="line2d_29">
      <g>
       <use xlink:href="#m6808750465" x="317.323636" y="307.584" style="stroke: #000000; stroke-width: 0.8"/>
      </g>
     </g>
     <g id="text_29">
      <!-- 100 -->
      <g transform="translate(307.779886 322.182437)scale(0.1 -0.1)">
       <use xlink:href="#DejaVuSans-31"/>
       <use xlink:href="#DejaVuSans-30" x="63.623047"/>
       <use xlink:href="#DejaVuSans-30" x="127.246094"/>
      </g>
     </g>
    </g>
    <g id="xtick_14">
     <g id="line2d_30">
      <g>
       <use xlink:href="#m6808750465" x="366.513719" y="307.584" style="stroke: #000000; stroke-width: 0.8"/>
      </g>
     </g>
     <g id="text_30">
      <!-- 120 -->
      <g transform="translate(356.969969 322.182437)scale(0.1 -0.1)">
       <use xlink:href="#DejaVuSans-31"/>
       <use xlink:href="#DejaVuSans-32" x="63.623047"/>
       <use xlink:href="#DejaVuSans-30" x="127.246094"/>
      </g>
     </g>
    </g>
   </g>
   <g id="matplotlib.axis_4">
    <g id="ytick_5">
     <g id="line2d_31">
      <g>
       <use xlink:href="#ma6ef356d98" x="57.6" y="302.095166" style="stroke: #000000; stroke-width: 0.8"/>
      </g>
     </g>
     <g id="text_31">
      <!-- 0 -->
      <g transform="translate(44.2375 305.894384)scale(0.1 -0.1)">
       <use xlink:href="#DejaVuSans-30"/>
      </g>
     </g>
    </g>
    <g id="ytick_6">
     <g id="line2d_32">
      <g>
       <use xlink:href="#ma6ef356d98" x="57.6" y="278.726491" style="stroke: #000000; stroke-width: 0.8"/>
      </g>
     </g>
     <g id="text_32">
      <!-- 2500 -->
      <g transform="translate(25.15 282.52571)scale(0.1 -0.1)">
       <use xlink:href="#DejaVuSans-32"/>
       <use xlink:href="#DejaVuSans-35" x="63.623047"/>
       <use xlink:href="#DejaVuSans-30" x="127.246094"/>
       <use xlink:href="#DejaVuSans-30" x="190.869141"/>
      </g>
     </g>
    </g>
    <g id="ytick_7">
     <g id="line2d_33">
      <g>
       <use xlink:href="#ma6ef356d98" x="57.6" y="255.357816" style="stroke: #000000; stroke-width: 0.8"/>
      </g>
     </g>
     <g id="text_33">
      <!-- 5000 -->
      <g transform="translate(25.15 259.157035)scale(0.1 -0.1)">
       <use xlink:href="#DejaVuSans-35"/>
       <use xlink:href="#DejaVuSans-30" x="63.623047"/>
       <use xlink:href="#DejaVuSans-30" x="127.246094"/>
       <use xlink:href="#DejaVuSans-30" x="190.869141"/>
      </g>
     </g>
    </g>
    <g id="ytick_8">
     <g id="line2d_34">
      <g>
       <use xlink:href="#ma6ef356d98" x="57.6" y="231.989141" style="stroke: #000000; stroke-width: 0.8"/>
      </g>
     </g>
     <g id="text_34">
      <!-- 7500 -->
      <g transform="translate(25.15 235.78836)scale(0.1 -0.1)">
       <use xlink:href="#DejaVuSans-37"/>
       <use xlink:href="#DejaVuSans-35" x="63.623047"/>
       <use xlink:href="#DejaVuSans-30" x="127.246094"/>
       <use xlink:href="#DejaVuSans-30" x="190.869141"/>
      </g>
     </g>
    </g>
    <g id="ytick_9">
     <g id="line2d_35">
      <g>
       <use xlink:href="#ma6ef356d98" x="57.6" y="208.620466" style="stroke: #000000; stroke-width: 0.8"/>
      </g>
     </g>
     <g id="text_35">
      <!-- 10000 -->
      <g transform="translate(18.7875 212.419685)scale(0.1 -0.1)">
       <use xlink:href="#DejaVuSans-31"/>
       <use xlink:href="#DejaVuSans-30" x="63.623047"/>
       <use xlink:href="#DejaVuSans-30" x="127.246094"/>
       <use xlink:href="#DejaVuSans-30" x="190.869141"/>
       <use xlink:href="#DejaVuSans-30" x="254.492188"/>
      </g>
     </g>
    </g>
   </g>
   <g id="line2d_36">
    <path d="M 73.832727 302.085818 
L 194.34843 302.048428 
L 196.807934 301.880174 
L 201.726942 302.085818 
L 209.105455 301.954954 
L 211.564959 302.057776 
L 216.483967 301.973649 
L 218.943471 302.057776 
L 221.402975 301.964301 
L 223.862479 302.085818 
L 226.321983 301.973649 
L 241.079008 302.057776 
L 243.538512 301.852131 
L 245.998017 301.917564 
L 248.457521 301.468885 
L 250.917025 302.020386 
L 253.376529 301.814742 
L 258.295537 302.039081 
L 260.755041 301.954954 
L 263.214545 300.225672 
L 265.67405 302.020386 
L 268.133554 302.029733 
L 270.593058 301.917564 
L 273.052562 301.272588 
L 275.512066 301.749309 
L 277.97157 301.964301 
L 280.431074 302.020386 
L 282.890579 301.496928 
L 285.350083 301.702572 
L 287.809587 301.702572 
L 290.269091 300.78652 
L 292.728595 302.085818 
L 295.188099 299.9359 
L 297.647603 301.403453 
L 300.107107 301.506275 
L 302.566612 300.879995 
L 305.026116 301.796047 
L 307.48562 301.693224 
L 309.945124 301.926911 
L 312.404628 301.151071 
L 314.864132 301.291283 
L 317.323636 302.048428 
L 319.78314 299.720908 
L 322.242645 301.515623 
L 324.702149 299.870468 
L 327.161653 295.673454 
L 329.621157 301.749309 
L 332.080661 299.618086 
L 334.540165 289.840633 
L 336.999669 301.151071 
L 339.459174 300.309799 
L 341.918678 301.702572 
L 344.378182 297.056879 
L 346.837686 298.888983 
L 349.29719 296.439946 
L 351.756694 288.709589 
L 354.216198 301.272588 
L 356.675702 285.550144 
L 359.135207 300.992164 
L 361.594711 295.000436 
L 364.054215 299.244187 
L 366.513719 296.90732 
L 368.973223 296.75776 
L 371.432727 268.481664 
L 373.892231 290.055624 
L 376.351736 269.762267 
L 378.81124 282.493521 
L 381.270744 301.048249 
L 383.730248 192.122182 
L 386.189752 296.589506 
L 388.649256 298.973111 
L 391.10876 301.702572 
L 393.568264 212.097725 
L 396.027769 279.913619 
L 398.487273 266.079364 
L 398.487273 266.079364 
" clip-path="url(#p63439bf139)" style="fill: none; stroke: #1f77b4; stroke-width: 1.5; stroke-linecap: square"/>
   </g>
   <g id="patch_8">
    <path d="M 57.6 307.584 
L 57.6 186.624 
" style="fill: none; stroke: #000000; stroke-width: 0.8; stroke-linejoin: miter; stroke-linecap: square"/>
   </g>
   <g id="patch_9">
    <path d="M 414.72 307.584 
L 414.72 186.624 
" style="fill: none; stroke: #000000; stroke-width: 0.8; stroke-linejoin: miter; stroke-linecap: square"/>
   </g>
   <g id="patch_10">
    <path d="M 57.6 307.584 
L 414.72 307.584 
" style="fill: none; stroke: #000000; stroke-width: 0.8; stroke-linejoin: miter; stroke-linecap: square"/>
   </g>
   <g id="patch_11">
    <path d="M 57.6 186.624 
L 414.72 186.624 
" style="fill: none; stroke: #000000; stroke-width: 0.8; stroke-linejoin: miter; stroke-linecap: square"/>
   </g>
  </g>
 </g>
 <defs>
  <clipPath id="pca94a59bc1">
   <rect x="57.6" y="41.472" width="357.12" height="120.96"/>
  </clipPath>
  <clipPath id="p63439bf139">
   <rect x="57.6" y="186.624" width="357.12" height="120.96"/>
  </clipPath>
 </defs>
</svg>
