<?xml version="1.0" encoding="utf-8" standalone="no"?>
<!DOCTYPE svg PUBLIC "-//W3C//DTD SVG 1.1//EN"
  "http://www.w3.org/Graphics/SVG/1.1/DTD/svg11.dtd">
<svg xmlns:xlink="http://www.w3.org/1999/xlink" width="460.8pt" height="345.6pt" viewBox="0 0 460.8 345.6" xmlns="http://www.w3.org/2000/svg" version="1.1">
 <metadata>
  <rdf:RDF xmlns:dc="http://purl.org/dc/elements/1.1/" xmlns:cc="http://creativecommons.org/ns#" xmlns:rdf="http://www.w3.org/1999/02/22-rdf-syntax-ns#">
   <cc:Work>
    <dc:type rdf:resource="http://purl.org/dc/dcmitype/StillImage"/>
    <dc:date>2022-05-14T01:17:33.126776</dc:date>
    <dc:format>image/svg+xml</dc:format>
    <dc:creator>
     <cc:Agent>
      <dc:title>Matplotlib v3.5.1, https://matplotlib.org/</dc:title>
     </cc:Agent>
    </dc:creator>
   </cc:Work>
  </rdf:RDF>
 </metadata>
 <defs>
  <style type="text/css">*{stroke-linejoin: round; stroke-linecap: butt}</style>
 </defs>
 <g id="figure_1">
  <g id="patch_1">
   <path d="M 0 345.6 
L 460.8 345.6 
L 460.8 0 
L 0 0 
z
" style="fill: #ffffff"/>
  </g>
  <g id="axes_1">
   <g id="patch_2">
    <path d="M 57.6 162.432 
L 414.72 162.432 
L 414.72 41.472 
L 57.6 41.472 
z
" style="fill: #ffffff"/>
   </g>
   <g id="matplotlib.axis_1">
    <g id="xtick_1">
     <g id="line2d_1">
      <defs>
       <path id="m46938bd8be" d="M 0 0 
L 0 3.5 
" style="stroke: #000000; stroke-width: 0.8"/>
      </defs>
      <g>
       <use xlink:href="#m46938bd8be" x="73.827491" y="162.432" style="stroke: #000000; stroke-width: 0.8"/>
      </g>
     </g>
     <g id="text_1">
      <!-- 0 -->
      <g transform="translate(70.646241 177.030437)scale(0.1 -0.1)">
       <defs>
        <path id="DejaVuSans-30" d="M 2034 4250 
Q 1547 4250 1301 3770 
Q 1056 3291 1056 2328 
Q 1056 1369 1301 889 
Q 1547 409 2034 409 
Q 2525 409 2770 889 
Q 3016 1369 3016 2328 
Q 3016 3291 2770 3770 
Q 2525 4250 2034 4250 
z
M 2034 4750 
Q 2819 4750 3233 4129 
Q 3647 3509 3647 2328 
Q 3647 1150 3233 529 
Q 2819 -91 2034 -91 
Q 1250 -91 836 529 
Q 422 1150 422 2328 
Q 422 3509 836 4129 
Q 1250 4750 2034 4750 
z
" transform="scale(0.015625)"/>
       </defs>
       <use xlink:href="#DejaVuSans-30"/>
      </g>
     </g>
    </g>
    <g id="xtick_2">
     <g id="line2d_2">
      <g>
       <use xlink:href="#m46938bd8be" x="126.191972" y="162.432" style="stroke: #000000; stroke-width: 0.8"/>
      </g>
     </g>
     <g id="text_2">
      <!-- 10000 -->
      <g transform="translate(110.285722 177.030437)scale(0.1 -0.1)">
       <defs>
        <path id="DejaVuSans-31" d="M 794 531 
L 1825 531 
L 1825 4091 
L 703 3866 
L 703 4441 
L 1819 4666 
L 2450 4666 
L 2450 531 
L 3481 531 
L 3481 0 
L 794 0 
L 794 531 
z
" transform="scale(0.015625)"/>
       </defs>
       <use xlink:href="#DejaVuSans-31"/>
       <use xlink:href="#DejaVuSans-30" x="63.623047"/>
       <use xlink:href="#DejaVuSans-30" x="127.246094"/>
       <use xlink:href="#DejaVuSans-30" x="190.869141"/>
       <use xlink:href="#DejaVuSans-30" x="254.492188"/>
      </g>
     </g>
    </g>
    <g id="xtick_3">
     <g id="line2d_3">
      <g>
       <use xlink:href="#m46938bd8be" x="178.556453" y="162.432" style="stroke: #000000; stroke-width: 0.8"/>
      </g>
     </g>
     <g id="text_3">
      <!-- 20000 -->
      <g transform="translate(162.650203 177.030437)scale(0.1 -0.1)">
       <defs>
        <path id="DejaVuSans-32" d="M 1228 531 
L 3431 531 
L 3431 0 
L 469 0 
L 469 531 
Q 828 903 1448 1529 
Q 2069 2156 2228 2338 
Q 2531 2678 2651 2914 
Q 2772 3150 2772 3378 
Q 2772 3750 2511 3984 
Q 2250 4219 1831 4219 
Q 1534 4219 1204 4116 
Q 875 4013 500 3803 
L 500 4441 
Q 881 4594 1212 4672 
Q 1544 4750 1819 4750 
Q 2544 4750 2975 4387 
Q 3406 4025 3406 3419 
Q 3406 3131 3298 2873 
Q 3191 2616 2906 2266 
Q 2828 2175 2409 1742 
Q 1991 1309 1228 531 
z
" transform="scale(0.015625)"/>
       </defs>
       <use xlink:href="#DejaVuSans-32"/>
       <use xlink:href="#DejaVuSans-30" x="63.623047"/>
       <use xlink:href="#DejaVuSans-30" x="127.246094"/>
       <use xlink:href="#DejaVuSans-30" x="190.869141"/>
       <use xlink:href="#DejaVuSans-30" x="254.492188"/>
      </g>
     </g>
    </g>
    <g id="xtick_4">
     <g id="line2d_4">
      <g>
       <use xlink:href="#m46938bd8be" x="230.920934" y="162.432" style="stroke: #000000; stroke-width: 0.8"/>
      </g>
     </g>
     <g id="text_4">
      <!-- 30000 -->
      <g transform="translate(215.014684 177.030437)scale(0.1 -0.1)">
       <defs>
        <path id="DejaVuSans-33" d="M 2597 2516 
Q 3050 2419 3304 2112 
Q 3559 1806 3559 1356 
Q 3559 666 3084 287 
Q 2609 -91 1734 -91 
Q 1441 -91 1130 -33 
Q 819 25 488 141 
L 488 750 
Q 750 597 1062 519 
Q 1375 441 1716 441 
Q 2309 441 2620 675 
Q 2931 909 2931 1356 
Q 2931 1769 2642 2001 
Q 2353 2234 1838 2234 
L 1294 2234 
L 1294 2753 
L 1863 2753 
Q 2328 2753 2575 2939 
Q 2822 3125 2822 3475 
Q 2822 3834 2567 4026 
Q 2313 4219 1838 4219 
Q 1578 4219 1281 4162 
Q 984 4106 628 3988 
L 628 4550 
Q 988 4650 1302 4700 
Q 1616 4750 1894 4750 
Q 2613 4750 3031 4423 
Q 3450 4097 3450 3541 
Q 3450 3153 3228 2886 
Q 3006 2619 2597 2516 
z
" transform="scale(0.015625)"/>
       </defs>
       <use xlink:href="#DejaVuSans-33"/>
       <use xlink:href="#DejaVuSans-30" x="63.623047"/>
       <use xlink:href="#DejaVuSans-30" x="127.246094"/>
       <use xlink:href="#DejaVuSans-30" x="190.869141"/>
       <use xlink:href="#DejaVuSans-30" x="254.492188"/>
      </g>
     </g>
    </g>
    <g id="xtick_5">
     <g id="line2d_5">
      <g>
       <use xlink:href="#m46938bd8be" x="283.285415" y="162.432" style="stroke: #000000; stroke-width: 0.8"/>
      </g>
     </g>
     <g id="text_5">
      <!-- 40000 -->
      <g transform="translate(267.379165 177.030437)scale(0.1 -0.1)">
       <defs>
        <path id="DejaVuSans-34" d="M 2419 4116 
L 825 1625 
L 2419 1625 
L 2419 4116 
z
M 2253 4666 
L 3047 4666 
L 3047 1625 
L 3713 1625 
L 3713 1100 
L 3047 1100 
L 3047 0 
L 2419 0 
L 2419 1100 
L 313 1100 
L 313 1709 
L 2253 4666 
z
" transform="scale(0.015625)"/>
       </defs>
       <use xlink:href="#DejaVuSans-34"/>
       <use xlink:href="#DejaVuSans-30" x="63.623047"/>
       <use xlink:href="#DejaVuSans-30" x="127.246094"/>
       <use xlink:href="#DejaVuSans-30" x="190.869141"/>
       <use xlink:href="#DejaVuSans-30" x="254.492188"/>
      </g>
     </g>
    </g>
    <g id="xtick_6">
     <g id="line2d_6">
      <g>
       <use xlink:href="#m46938bd8be" x="335.649896" y="162.432" style="stroke: #000000; stroke-width: 0.8"/>
      </g>
     </g>
     <g id="text_6">
      <!-- 50000 -->
      <g transform="translate(319.743646 177.030437)scale(0.1 -0.1)">
       <defs>
        <path id="DejaVuSans-35" d="M 691 4666 
L 3169 4666 
L 3169 4134 
L 1269 4134 
L 1269 2991 
Q 1406 3038 1543 3061 
Q 1681 3084 1819 3084 
Q 2600 3084 3056 2656 
Q 3513 2228 3513 1497 
Q 3513 744 3044 326 
Q 2575 -91 1722 -91 
Q 1428 -91 1123 -41 
Q 819 9 494 109 
L 494 744 
Q 775 591 1075 516 
Q 1375 441 1709 441 
Q 2250 441 2565 725 
Q 2881 1009 2881 1497 
Q 2881 1984 2565 2268 
Q 2250 2553 1709 2553 
Q 1456 2553 1204 2497 
Q 953 2441 691 2322 
L 691 4666 
z
" transform="scale(0.015625)"/>
       </defs>
       <use xlink:href="#DejaVuSans-35"/>
       <use xlink:href="#DejaVuSans-30" x="63.623047"/>
       <use xlink:href="#DejaVuSans-30" x="127.246094"/>
       <use xlink:href="#DejaVuSans-30" x="190.869141"/>
       <use xlink:href="#DejaVuSans-30" x="254.492188"/>
      </g>
     </g>
    </g>
    <g id="xtick_7">
     <g id="line2d_7">
      <g>
       <use xlink:href="#m46938bd8be" x="388.014377" y="162.432" style="stroke: #000000; stroke-width: 0.8"/>
      </g>
     </g>
     <g id="text_7">
      <!-- 60000 -->
      <g transform="translate(372.108127 177.030437)scale(0.1 -0.1)">
       <defs>
        <path id="DejaVuSans-36" d="M 2113 2584 
Q 1688 2584 1439 2293 
Q 1191 2003 1191 1497 
Q 1191 994 1439 701 
Q 1688 409 2113 409 
Q 2538 409 2786 701 
Q 3034 994 3034 1497 
Q 3034 2003 2786 2293 
Q 2538 2584 2113 2584 
z
M 3366 4563 
L 3366 3988 
Q 3128 4100 2886 4159 
Q 2644 4219 2406 4219 
Q 1781 4219 1451 3797 
Q 1122 3375 1075 2522 
Q 1259 2794 1537 2939 
Q 1816 3084 2150 3084 
Q 2853 3084 3261 2657 
Q 3669 2231 3669 1497 
Q 3669 778 3244 343 
Q 2819 -91 2113 -91 
Q 1303 -91 875 529 
Q 447 1150 447 2328 
Q 447 3434 972 4092 
Q 1497 4750 2381 4750 
Q 2619 4750 2861 4703 
Q 3103 4656 3366 4563 
z
" transform="scale(0.015625)"/>
       </defs>
       <use xlink:href="#DejaVuSans-36"/>
       <use xlink:href="#DejaVuSans-30" x="63.623047"/>
       <use xlink:href="#DejaVuSans-30" x="127.246094"/>
       <use xlink:href="#DejaVuSans-30" x="190.869141"/>
       <use xlink:href="#DejaVuSans-30" x="254.492188"/>
      </g>
     </g>
    </g>
   </g>
   <g id="matplotlib.axis_2">
    <g id="ytick_1">
     <g id="line2d_8">
      <defs>
       <path id="med6321c06c" d="M 0 0 
L -3.5 0 
" style="stroke: #000000; stroke-width: 0.8"/>
      </defs>
      <g>
       <use xlink:href="#med6321c06c" x="57.6" y="142.671062" style="stroke: #000000; stroke-width: 0.8"/>
      </g>
     </g>
     <g id="text_8">
      <!-- −200 -->
      <g transform="translate(23.132812 146.47028)scale(0.1 -0.1)">
       <defs>
        <path id="DejaVuSans-2212" d="M 678 2272 
L 4684 2272 
L 4684 1741 
L 678 1741 
L 678 2272 
z
" transform="scale(0.015625)"/>
       </defs>
       <use xlink:href="#DejaVuSans-2212"/>
       <use xlink:href="#DejaVuSans-32" x="83.789062"/>
       <use xlink:href="#DejaVuSans-30" x="147.412109"/>
       <use xlink:href="#DejaVuSans-30" x="211.035156"/>
      </g>
     </g>
    </g>
    <g id="ytick_2">
     <g id="line2d_9">
      <g>
       <use xlink:href="#med6321c06c" x="57.6" y="110.999507" style="stroke: #000000; stroke-width: 0.8"/>
      </g>
     </g>
     <g id="text_9">
      <!-- −100 -->
      <g transform="translate(23.132812 114.798726)scale(0.1 -0.1)">
       <use xlink:href="#DejaVuSans-2212"/>
       <use xlink:href="#DejaVuSans-31" x="83.789062"/>
       <use xlink:href="#DejaVuSans-30" x="147.412109"/>
       <use xlink:href="#DejaVuSans-30" x="211.035156"/>
      </g>
     </g>
    </g>
    <g id="ytick_3">
     <g id="line2d_10">
      <g>
       <use xlink:href="#med6321c06c" x="57.6" y="79.327953" style="stroke: #000000; stroke-width: 0.8"/>
      </g>
     </g>
     <g id="text_10">
      <!-- 0 -->
      <g transform="translate(44.2375 83.127172)scale(0.1 -0.1)">
       <use xlink:href="#DejaVuSans-30"/>
      </g>
     </g>
    </g>
    <g id="ytick_4">
     <g id="line2d_11">
      <g>
       <use xlink:href="#med6321c06c" x="57.6" y="47.656399" style="stroke: #000000; stroke-width: 0.8"/>
      </g>
     </g>
     <g id="text_11">
      <!-- 100 -->
      <g transform="translate(31.5125 51.455618)scale(0.1 -0.1)">
       <use xlink:href="#DejaVuSans-31"/>
       <use xlink:href="#DejaVuSans-30" x="63.623047"/>
       <use xlink:href="#DejaVuSans-30" x="127.246094"/>
      </g>
     </g>
    </g>
   </g>
   <g id="line2d_12">
    <path d="M 73.832727 47.550827 
L 73.979348 50.496282 
L 73.989821 50.337924 
L 73.995057 50.337924 
L 74.021239 49.994815 
L 74.073604 51.156106 
L 74.07884 51.156106 
L 74.084077 51.156106 
L 74.089313 50.997748 
L 74.162624 52.00068 
L 74.173096 52.00068 
L 74.277825 53.980152 
L 74.31448 53.927367 
L 74.319717 53.769009 
L 74.387791 54.771941 
L 74.393027 54.771941 
L 74.398264 54.771941 
L 74.550121 57.242323 
L 74.571066 57.242323 
L 74.733396 61.095695 
L 74.743869 61.042909 
L 74.754342 61.042909 
L 74.921908 64.52678 
L 74.942854 64.52678 
L 75.120894 68.776047 
L 75.12613 68.776047 
L 75.188967 70.729126 
L 75.262278 70.465196 
L 75.293696 70.280446 
L 75.304169 70.913877 
L 75.335588 70.913877 
L 75.513627 75.004786 
L 75.518864 75.004786 
L 75.61312 77.116223 
L 75.660248 77.063437 
L 75.670721 77.063437 
L 75.827814 79.90332 
L 75.838287 79.90332 
L 75.979671 82.648188 
L 75.990144 82.542616 
L 75.99538 82.437044 
L 76.047745 83.598334 
L 76.210075 87.398921 
L 76.215311 87.293349 
L 76.225784 87.293349 
L 76.372405 90.381326 
L 76.382877 90.222968 
L 76.39335 90.222968 
L 76.550444 93.073408 
L 76.566153 93.073408 
L 76.71801 96.557279 
L 76.728483 96.346135 
L 76.786084 96.346135 
L 76.927468 98.183085 
L 76.932705 98.183085 
L 77.063616 99.449947 
L 77.079325 99.449947 
L 77.199763 100.716809 
L 77.205 100.611238 
L 77.35162 100.611238 
L 77.377803 100.45288 
L 77.383039 100.769595 
L 77.451113 100.584845 
L 77.582024 101.851707 
L 77.608206 101.772528 
L 77.723408 101.666956 
L 77.74959 101.666956 
L 77.796718 102.617103 
L 77.870029 102.537924 
L 77.943339 102.537924 
L 78.079487 104.174287 
L 78.095196 104.174287 
L 78.257526 107.394229 
L 78.262762 107.394229 
L 78.409383 109.664023 
L 78.414619 109.664023 
L 78.498403 110.508598 
L 78.529821 110.244669 
L 78.540294 110.16549 
L 78.550767 110.798921 
L 78.582186 110.798921 
L 78.718333 112.382499 
L 78.72357 112.382499 
L 78.864954 114.388364 
L 78.901609 114.282792 
L 79.03252 115.60244 
L 79.042993 115.496868 
L 79.090121 116.447015 
L 79.100594 116.447015 
L 79.179141 116.447015 
L 79.315288 118.030592 
L 79.336234 118.030592 
L 79.440963 119.297455 
L 79.461909 119.191883 
L 79.545692 119.191883 
L 79.671367 120.142029 
L 79.734204 120.142029 
L 79.865115 121.620035 
L 79.875588 121.620035 
L 79.985554 121.936751 
L 80.037918 121.778393 
L 80.043155 122.095109 
L 80.090283 121.989537 
L 80.132174 121.989537 
L 80.273558 124.206545 
L 80.294504 124.100974 
L 80.357342 124.628833 
L 80.362578 124.628833 
L 80.483016 125.262264 
L 80.493489 125.156692 
L 80.5668 125.684551 
L 80.708184 127.690416 
L 80.734366 127.373701 
L 80.765785 128.640563 
L 80.771021 128.640563 
L 80.901932 129.960211 
L 80.922878 129.749067 
L 80.943824 130.276927 
L 80.996188 130.276927 
L 81.053789 130.276927 
L 81.158518 130.910358 
L 81.168991 130.804786 
L 81.289429 130.804786 
L 81.409868 131.649361 
L 81.493651 131.543789 
L 81.546015 131.517396 
L 81.614089 132.150827 
L 81.624562 132.150827 
L 81.755473 133.628833 
L 81.771183 133.628833 
L 81.891621 134.262264 
L 81.902094 134.262264 
L 81.99635 134.895695 
L 82.017296 134.816516 
L 82.027769 134.710944 
L 82.153443 135.661091 
L 82.15868 135.555519 
L 82.216281 136.18895 
L 82.237226 136.18895 
L 82.247699 136.18895 
L 82.331483 136.822381 
L 82.362901 136.611238 
L 82.389083 136.611238 
L 82.504285 136.927953 
L 82.551413 136.927953 
L 82.671852 138.511531 
L 82.682325 138.194815 
L 82.708507 138.089243 
L 82.713743 137.983672 
L 82.787054 138.617103 
L 82.79229 138.617103 
L 82.813236 138.511531 
L 82.897019 139.356106 
L 82.933674 139.197748 
L 82.938911 139.197748 
L 83.059349 140.042323 
L 83.064585 140.042323 
L 83.19026 140.992469 
L 83.226915 140.992469 
L 83.35259 141.942616 
L 83.577757 141.942616 
L 83.651067 142.892762 
L 83.698195 142.734405 
L 83.740087 142.734405 
L 83.855289 143.262264 
L 83.860525 143.262264 
L 83.865762 143.103906 
L 83.886708 143.737337 
L 83.954781 143.737337 
L 84.106638 143.631765 
L 84.232313 144.634698 
L 84.258495 144.634698 
L 84.373697 145.479273 
L 84.378934 145.373701 
L 84.509845 145.268129 
L 84.651229 147.168422 
L 84.740249 147.168422 
L 84.876396 148.752 
L 84.892106 148.752 
L 85.012544 149.596575 
L 85.169637 149.491003 
L 85.290076 150.124434 
L 85.75612 150.124434 
L 85.871321 150.44115 
L 86.06507 150.44115 
L 86.175035 150.757865 
L 86.290237 150.652293 
L 86.337365 150.652293 
L 86.415912 150.493935 
L 86.431621 151.127367 
L 86.845301 151.127367 
L 86.960503 151.444082 
L 87.138542 151.33851 
L 87.253744 151.655226 
L 87.704078 151.655226 
L 87.81928 151.971941 
L 88.442417 151.971941 
L 88.557619 152.288657 
L 88.767077 152.288657 
L 88.882279 152.605372 
L 92.516374 152.499801 
L 92.631576 152.394229 
L 93.045255 152.394229 
L 93.160457 152.710944 
L 93.736466 152.710944 
L 93.851668 153.02766 
L 94.165855 153.02766 
L 94.281057 153.344375 
L 95.239327 153.344375 
L 95.354529 153.661091 
L 111.367587 153.555519 
L 111.482789 153.872235 
L 116.897276 153.872235 
L 117.012478 154.18895 
L 123.798915 154.18895 
L 123.914117 154.505666 
L 132.334325 154.505666 
L 132.449527 154.822381 
L 138.654718 154.822381 
L 138.76992 155.139097 
L 155.343278 155.139097 
L 155.45848 155.455812 
L 169.183211 155.455812 
L 169.298412 155.772528 
L 265.18825 155.666956 
L 265.303452 155.983672 
L 313.950055 155.983672 
L 314.065257 156.300387 
L 357.522539 156.300387 
L 357.637741 156.617103 
L 394.287641 156.617103 
L 394.402843 156.933818 
L 398.487273 156.933818 
L 398.487273 156.933818 
" clip-path="url(#p3fbfae1494)" style="fill: none; stroke: #1f77b4; stroke-width: 1.5; stroke-linecap: square"/>
   </g>
   <g id="line2d_13">
    <path d="M 73.832727 47.656399 
L 73.837964 47.656399 
L 73.953166 48.421795 
L 73.869382 47.471648 
L 73.958402 48.316223 
L 73.974111 48.316223 
L 74.120732 50.691589 
L 74.173096 50.586018 
L 74.288298 52.934991 
L 74.31448 52.776633 
L 74.361609 52.090416 
L 74.387791 53.357279 
L 74.398264 53.357279 
L 74.434919 53.911531 
L 74.482047 52.993056 
L 74.508229 53.309771 
L 74.523938 53.309771 
L 74.534411 52.993056 
L 74.602485 53.784845 
L 74.618194 53.784845 
L 74.738633 55.685138 
L 74.754342 55.368422 
L 74.759579 55.368422 
L 74.775288 55.210065 
L 74.80147 56.054639 
L 74.853835 55.737924 
L 74.87478 55.737924 
L 74.984746 56.68807 
L 74.995219 56.582499 
L 75.016165 56.424141 
L 75.042347 57.057572 
L 75.084238 56.899214 
L 75.094711 56.899214 
L 75.251805 59.987191 
L 75.262278 59.987191 
L 75.382716 61.861091 
L 75.398425 61.755519 
L 75.408898 61.438804 
L 75.471736 62.441736 
L 75.503154 61.94027 
L 75.508391 61.834698 
L 75.550282 63.10156 
L 75.555519 62.995988 
L 75.707376 65.582499 
L 75.738794 65.582499 
L 75.754504 65.265783 
L 75.827814 66.310944 
L 75.83305 66.310944 
L 75.853996 66.310944 
L 76.000617 68.633525 
L 76.042508 68.633525 
L 76.162947 70.956106 
L 76.183892 70.744962 
L 76.199602 70.63939 
L 76.335749 72.32854 
L 76.356695 72.143789 
L 76.372405 72.77722 
L 76.419533 72.77722 
L 76.466661 72.698041 
L 76.618518 75.548481 
L 76.623754 75.442909 
L 76.665646 76.393056 
L 76.670882 76.393056 
L 76.686591 77.026487 
L 76.780848 76.604199 
L 76.786084 76.604199 
L 76.896049 77.491003 
L 76.906522 77.385431 
L 76.916995 77.227073 
L 76.958887 78.071648 
L 76.990305 78.071648 
L 77.110744 78.705079 
L 77.126453 78.705079 
L 77.178818 79.33851 
L 77.241655 79.048188 
L 77.377803 78.942616 
L 77.498241 79.60244 
L 77.51395 79.60244 
L 77.52966 79.919155 
L 77.576788 79.549654 
L 77.623916 79.549654 
L 77.665807 79.549654 
L 77.744354 79.86637 
L 77.775773 79.591883 
L 77.812428 79.591883 
L 77.864792 79.908598 
L 77.922393 79.75024 
L 77.948575 79.644669 
L 77.964285 79.581326 
L 77.995704 80.109185 
L 78.016649 80.109185 
L 78.069014 80.003613 
L 78.199925 81.40244 
L 78.226107 81.296868 
L 78.3256 82.56373 
L 78.351782 82.405372 
L 78.357018 82.405372 
L 78.477457 83.672235 
L 78.48793 83.608891 
L 78.493166 83.608891 
L 78.529821 83.344962 
L 78.545531 83.978393 
L 78.592659 83.872821 
L 78.624077 83.872821 
L 78.72357 84.601267 
L 78.744516 84.495695 
L 78.754988 84.390123 
L 78.838772 85.868129 
L 78.880663 85.551413 
L 78.901609 85.551413 
L 79.011574 86.290416 
L 79.022047 86.184845 
L 79.069175 85.973701 
L 79.095358 86.50156 
L 79.126776 86.23763 
L 79.137249 86.23763 
L 79.221032 86.871062 
L 79.252451 86.76549 
L 79.26816 86.76549 
L 79.362416 87.92678 
L 79.393835 87.821208 
L 79.43049 87.821208 
L 79.451436 88.454639 
L 79.545692 88.37546 
L 79.582347 88.269889 
L 79.702786 89.114463 
L 79.734204 89.114463 
L 79.854643 89.747894 
L 79.980317 89.684551 
L 80.037918 89.420622 
L 80.043155 89.737337 
L 80.090283 89.526194 
L 80.210721 90.159625 
L 80.221194 90.159625 
L 80.22643 90.001267 
L 80.294504 91.109771 
L 80.299741 91.004199 
L 80.352105 90.898628 
L 80.472543 91.63763 
L 80.493489 91.426487 
L 80.498726 91.743202 
L 80.587745 91.532059 
L 80.592982 91.532059 
L 80.718657 92.640563 
L 80.750075 92.376633 
L 80.776257 93.32678 
L 80.791967 93.32678 
L 80.928114 94.883965 
L 80.938587 94.883965 
L 80.954297 95.20068 
L 81.048553 94.989537 
L 81.053789 94.989537 
L 81.158518 95.622968 
L 81.168991 95.517396 
L 81.289429 95.517396 
L 81.409868 96.17722 
L 81.446523 96.071648 
L 81.493651 95.886897 
L 81.498887 96.203613 
L 81.551252 96.098041 
L 81.608853 96.034698 
L 81.624562 95.971355 
L 81.645508 96.921501 
L 81.750237 96.81593 
L 81.771183 96.657572 
L 81.823547 97.291003 
L 81.844493 97.291003 
L 81.902094 97.185431 
L 82.027769 98.135578 
L 82.043478 98.135578 
L 82.153443 98.452293 
L 82.15868 98.346721 
L 82.216281 98.874581 
L 82.242463 98.795402 
L 82.331483 98.68983 
L 82.357665 98.584258 
L 82.39432 99.217689 
L 82.415266 99.217689 
L 82.436211 99.217689 
L 82.55665 99.85112 
L 82.582832 99.85112 
L 82.656142 100.378979 
L 82.692797 100.062264 
L 82.71898 100.299801 
L 82.807999 99.983085 
L 82.813236 99.983085 
L 82.933674 100.632352 
L 82.938911 100.632352 
L 82.965093 100.949067 
L 83.048876 100.737924 
L 83.064585 100.737924 
L 83.185024 101.371355 
L 83.226915 101.265783 
L 83.35259 102.21593 
L 83.577757 102.110358 
L 83.692959 102.638217 
L 83.740087 102.638217 
L 83.855289 103.166076 
L 83.865762 103.166076 
L 83.944309 103.482792 
L 83.975727 103.37722 
L 84.106638 103.271648 
L 84.23755 104.644082 
L 84.316096 104.53851 
L 84.368461 104.855226 
L 84.426062 104.644082 
L 84.583155 104.644082 
L 84.70883 105.594229 
L 84.745485 105.594229 
L 84.860687 105.910944 
L 84.892106 105.910944 
L 84.923524 106.22766 
L 85.002071 106.122088 
L 85.169637 106.122088 
L 85.284839 106.438804 
L 85.452406 106.438804 
L 85.567607 106.755519 
L 86.426385 106.755519 
L 86.546823 107.38895 
L 86.871483 107.38895 
L 86.986685 107.705666 
L 87.704078 107.705666 
L 87.81928 108.022381 
L 88.767077 108.022381 
L 88.882279 108.339097 
L 89.007954 108.339097 
L 89.123156 108.655812 
L 93.019073 108.655812 
L 93.134275 108.972528 
L 93.736466 108.972528 
L 93.851668 109.289243 
L 116.897276 109.289243 
L 117.012478 109.605959 
L 123.798915 109.605959 
L 123.914117 109.922674 
L 139.58157 109.922674 
L 139.696771 110.23939 
L 169.183211 110.23939 
L 169.298412 110.556106 
L 313.950055 110.556106 
L 314.065257 110.872821 
L 388.983119 110.872821 
L 389.098321 111.189537 
L 398.487273 111.189537 
L 398.487273 111.189537 
" clip-path="url(#p3fbfae1494)" style="fill: none; stroke: #ff7f0e; stroke-width: 1.5; stroke-linecap: square"/>
   </g>
   <g id="line2d_14">
    <path d="M 73.832727 47.656399 
L 73.853673 47.593056 
L 73.968875 49.736164 
L 73.989821 49.366663 
L 73.995057 49.366663 
L 74.010767 49.155519 
L 74.036949 50.422381 
L 74.068367 50.253466 
L 74.152151 51.520328 
L 74.194042 51.414757 
L 74.25688 50.828833 
L 74.298771 51.530886 
L 74.309244 51.266956 
L 74.455865 53.473408 
L 74.487283 53.420622 
L 74.644377 56.381912 
L 74.660086 56.381912 
L 74.691505 55.801267 
L 74.770051 55.959625 
L 74.838125 58.176633 
L 74.906199 57.638217 
L 74.911436 57.321501 
L 74.984746 59.380152 
L 74.995219 58.957865 
L 75.000455 58.878686 
L 75.031874 59.828833 
L 75.042347 59.76549 
L 75.173258 61.523261 
L 75.178494 61.417689 
L 75.183731 61.259331 
L 75.236095 61.681619 
L 75.277987 61.417689 
L 75.419371 63.624141 
L 75.424607 63.560798 
L 75.445553 64.431765 
L 75.461263 64.273408 
L 75.492681 64.104493 
L 75.607883 66.601267 
L 75.61312 66.601267 
L 75.655011 65.598334 
L 75.68643 67.023554 
L 75.712612 66.749067 
L 75.864469 69.325021 
L 75.869706 69.325021 
L 75.953489 70.327953 
L 75.984907 69.747308 
L 75.99538 69.641736 
L 76.016326 69.456985 
L 76.063454 70.116809 
L 76.105346 69.641736 
L 76.121055 69.641736 
L 76.251966 71.584258 
L 76.257203 71.4259 
L 76.278149 71.267543 
L 76.304331 71.795402 
L 76.367168 71.452293 
L 76.39335 71.346721 
L 76.435242 72.296868 
L 76.445715 72.296868 
L 76.550444 73.405372 
L 76.566153 72.983085 
L 76.57139 72.983085 
L 76.697064 73.869889 
L 76.702301 73.869889 
L 76.833212 75.136751 
L 76.838448 75.136751 
L 76.843685 75.453466 
L 76.922232 74.994229 
L 76.943177 74.994229 
L 76.948414 74.994229 
L 76.95365 75.310944 
L 77.053143 75.073408 
L 77.136926 74.756692 
L 77.163108 74.91505 
L 77.178818 74.91505 
L 77.309729 76.181912 
L 77.35162 76.181912 
L 77.403985 75.944375 
L 77.409221 76.261091 
L 77.461586 76.102733 
L 77.52966 76.102733 
L 77.608206 76.736164 
L 77.644861 76.630592 
L 77.744354 76.630592 
L 77.870029 77.580739 
L 77.922393 77.580739 
L 77.943339 77.422381 
L 77.985231 78.372528 
L 78.00094 78.266956 
L 78.142324 80.209478 
L 78.220871 79.892762 
L 78.173743 80.526194 
L 78.247053 80.526194 
L 78.273235 80.526194 
L 78.39891 81.47634 
L 78.477457 81.370768 
L 78.508875 81.845842 
L 78.592659 81.819449 
L 78.629314 81.756106 
L 78.655496 81.597748 
L 78.70786 82.231179 
L 78.72357 82.231179 
L 78.849245 83.234111 
L 78.854481 83.234111 
L 78.948737 84.015343 
L 78.974919 83.856985 
L 79.001102 83.856985 
L 79.011574 83.698628 
L 79.063939 84.543202 
L 79.084885 84.543202 
L 79.137249 85.440563 
L 79.205323 85.282205 
L 79.215796 85.282205 
L 79.221032 85.123848 
L 79.226269 85.440563 
L 79.320525 85.361384 
L 79.388599 85.6781 
L 79.43049 85.519742 
L 79.451436 85.308598 
L 79.456673 85.625314 
L 79.535219 85.625314 
L 79.634712 85.625314 
L 79.760387 86.786604 
L 79.765623 86.786604 
L 79.812751 87.10332 
L 79.875588 87.024141 
L 79.891298 87.024141 
L 80.016972 87.974287 
L 80.07981 87.974287 
L 80.174066 88.449361 
L 80.105992 87.81593 
L 80.195012 88.291003 
L 80.257849 88.291003 
L 80.294504 88.132645 
L 80.299741 88.449361 
L 80.352105 88.343789 
L 80.47778 89.478686 
L 80.561563 89.373114 
L 80.697711 91.051707 
L 80.702947 91.051707 
L 80.771021 92.001853 
L 80.823385 91.869889 
L 80.891459 91.869889 
L 81.017134 93.031179 
L 81.027607 93.031179 
L 81.053789 93.347894 
L 81.137572 93.031179 
L 81.305139 93.031179 
L 81.36274 92.872821 
L 81.383685 93.506252 
L 81.394158 93.506252 
L 81.514597 94.509185 
L 81.519833 94.403613 
L 81.530306 94.403613 
L 81.624562 94.878686 
L 81.587907 94.245255 
L 81.640271 94.693935 
L 81.687399 94.614757 
L 81.692636 94.931472 
L 81.713582 94.931472 
L 81.828784 95.248188 
L 81.849729 95.248188 
L 81.865439 95.564903 
L 81.912567 94.931472 
L 81.954458 94.931472 
L 82.027769 94.8259 
L 82.148207 95.459331 
L 82.179626 95.459331 
L 82.3053 96.488657 
L 82.336719 96.488657 
L 82.451921 96.224727 
L 82.48334 96.224727 
L 82.598541 96.594229 
L 82.619487 96.594229 
L 82.745162 97.755519 
L 82.771344 97.755519 
L 82.897019 98.811238 
L 82.928438 98.811238 
L 83.017457 98.494522 
L 83.038403 98.811238 
L 83.069822 98.811238 
L 83.090768 98.65288 
L 83.164078 99.127953 
L 83.169314 99.127953 
L 83.195496 99.127953 
L 83.284516 99.603026 
L 83.305462 99.444669 
L 83.347353 99.127953 
L 83.415427 99.444669 
L 83.546338 99.444669 
L 83.651067 100.0781 
L 83.66154 99.919742 
L 83.708668 99.919742 
L 83.829107 100.764317 
L 83.860525 100.764317 
L 83.881471 100.605959 
L 83.949545 101.081032 
L 83.960018 101.081032 
L 84.080456 101.081032 
L 84.132821 102.031179 
L 84.200895 101.703906 
L 84.206131 101.703906 
L 84.258495 101.387191 
L 84.284678 102.020622 
L 84.31086 101.91505 
L 84.321333 101.91505 
L 84.368461 101.598334 
L 84.431298 101.91505 
L 84.536027 101.809478 
L 84.5465 101.703906 
L 84.562209 102.231765 
L 84.63552 101.967836 
L 84.640756 101.967836 
L 84.755958 102.284551 
L 84.761194 102.284551 
L 84.78214 102.126194 
L 84.829268 102.759625 
L 84.855451 102.759625 
L 84.881633 102.759625 
L 85.002071 102.442909 
L 85.452406 102.337337 
L 85.567607 102.258158 
L 85.818957 102.258158 
L 85.934159 102.099801 
L 86.06507 102.099801 
L 86.175035 102.416516 
L 86.290237 102.310944 
L 86.337365 102.310944 
L 86.415912 102.152587 
L 86.421148 102.469302 
L 86.442094 102.469302 
L 86.504932 102.469302 
L 86.620134 102.310944 
L 86.845301 102.310944 
L 86.871483 102.62766 
L 86.955266 102.548481 
L 87.133305 102.442909 
L 87.248507 102.759625 
L 87.279926 102.759625 
L 87.395128 102.601267 
L 87.588876 102.601267 
L 87.704078 102.917982 
L 87.887354 102.917982 
L 88.002556 102.759625 
L 90.505578 102.680446 
L 90.62078 102.574874 
L 91.233444 102.574874 
L 91.348646 102.891589 
L 93.019073 102.786018 
L 93.045255 102.62766 
L 93.050492 102.944375 
L 93.123802 102.944375 
L 95.239327 102.944375 
L 95.354529 103.261091 
L 99.585579 103.155519 
L 99.700781 103.472235 
L 100.905164 103.472235 
L 101.020366 103.313877 
L 111.367587 103.313877 
L 111.482789 103.155519 
L 132.334325 103.155519 
L 132.418109 103.472235 
L 132.444291 103.313877 
L 139.58157 103.313877 
L 139.696771 103.155519 
L 155.343278 103.155519 
L 155.45848 103.472235 
L 204.293595 103.393056 
L 204.408797 103.287484 
L 276.855056 103.287484 
L 276.970258 103.129126 
L 293.22943 103.129126 
L 293.344631 103.445842 
L 357.522539 103.445842 
L 357.637741 103.762557 
L 388.983119 103.762557 
L 389.098321 103.445842 
L 392.496776 103.445842 
L 392.611978 103.762557 
L 394.287641 103.762557 
L 394.402843 103.604199 
L 398.487273 103.604199 
L 398.487273 103.604199 
" clip-path="url(#p3fbfae1494)" style="fill: none; stroke: #2ca02c; stroke-width: 1.5; stroke-linecap: square"/>
   </g>
   <g id="line2d_15">
    <path d="M 73.832727 47.973114 
L 74.000294 51.398921 
L 74.016003 51.187777 
L 74.047422 51.742029 
L 74.120732 51.272235 
L 74.235934 53.188364 
L 74.25688 52.982499 
L 74.267352 52.919155 
L 74.319717 52.697455 
L 74.324953 53.01417 
L 74.356372 53.01417 
L 74.361609 53.330886 
L 74.450628 53.003613 
L 74.466337 53.003613 
L 74.471574 53.003613 
L 74.612958 55.52678 
L 74.618194 55.421208 
L 74.686268 55.157279 
L 74.691505 55.473994 
L 74.696741 55.394815 
L 74.790997 56.872821 
L 74.822416 56.50332 
L 74.838125 56.50332 
L 74.979509 58.656985 
L 74.984746 58.577806 
L 75.010928 59.76549 
L 75.021401 59.659918 
L 75.03711 59.554346 
L 75.047583 59.491003 
L 75.068529 60.44115 
L 75.079002 60.335578 
L 75.115657 61.127367 
L 75.19944 61.053466 
L 75.230859 60.947894 
L 75.283223 60.657572 
L 75.304169 61.291003 
L 75.445553 63.275754 
L 75.476972 63.212411 
L 75.586937 65.091589 
L 75.61312 65.028246 
L 75.628829 65.028246 
L 75.764977 66.749067 
L 75.77545 66.685724 
L 75.796395 67.530299 
L 75.817341 67.424727 
L 75.827814 67.371941 
L 75.864469 66.991883 
L 75.911597 67.757279 
L 75.92207 67.651707 
L 75.943016 67.572528 
L 76.01109 68.205959 
L 76.058218 68.100387 
L 76.089636 68.100387 
L 76.231021 70.00068 
L 76.241493 69.937337 
L 76.356695 71.679273 
L 76.377641 71.626487 
L 76.39335 71.626487 
L 76.524262 73.014757 
L 76.534734 73.014757 
L 76.649936 74.070475 
L 76.660409 74.007132 
L 76.686591 73.90156 
L 76.728483 74.746135 
L 76.73372 74.746135 
L 76.896049 74.682792 
L 77.021724 75.632938 
L 77.136926 75.527367 
L 77.199763 75.464023 
L 77.205 75.780739 
L 77.225946 75.780739 
L 77.252128 75.780739 
L 77.36733 76.097455 
L 77.383039 76.097455 
L 77.503477 76.730886 
L 77.52966 76.730886 
L 77.592497 77.681032 
L 77.650098 77.601853 
L 77.74959 77.601853 
L 77.770536 77.918569 
L 77.859556 77.628246 
L 77.979994 77.628246 
L 78.116142 79.259331 
L 78.126615 79.259331 
L 78.262762 80.922088 
L 78.273235 80.922088 
L 78.278472 81.238804 
L 78.315127 80.895695 
L 78.388437 81.212411 
L 78.503639 81.133232 
L 78.624077 81.766663 
L 78.72357 81.560798 
L 78.854481 82.764317 
L 78.859717 82.764317 
L 78.985392 83.714463 
L 79.011574 83.714463 
L 79.147722 85.419449 
L 79.221032 85.419449 
L 79.336234 85.736164 
L 79.451436 85.736164 
L 79.566638 86.05288 
L 79.639948 85.989537 
L 79.739441 85.820622 
L 79.859879 86.665196 
L 79.975081 86.601853 
L 79.980317 86.53851 
L 79.985554 86.855226 
L 80.053628 86.855226 
L 80.189775 88.438804 
L 80.221194 88.438804 
L 80.341632 89.072235 
L 80.346869 89.072235 
L 80.352105 89.38895 
L 80.456834 89.151413 
L 80.483016 89.151413 
L 80.592982 90.10156 
L 80.608691 90.038217 
L 80.650583 89.974874 
L 80.760548 91.505666 
L 80.781494 91.426487 
L 80.818149 91.426487 
L 80.917642 91.980739 
L 80.933351 91.795988 
L 80.954297 91.795988 
L 81.027607 92.429419 
L 81.074735 92.366076 
L 81.305139 92.366076 
L 81.43605 93.569595 
L 81.467469 93.569595 
L 81.498887 94.203026 
L 81.58267 94.123848 
L 81.713582 94.060504 
L 81.83402 94.693935 
L 81.849729 94.693935 
L 81.964931 95.010651 
L 82.027769 94.931472 
L 82.148207 94.804786 
L 82.153443 94.804786 
L 82.279118 95.754933 
L 82.331483 95.691589 
L 82.446684 96.008305 
L 82.588068 95.944962 
L 82.71898 97.148481 
L 82.729453 97.148481 
L 82.813236 98.098628 
L 82.849891 98.019449 
L 82.965093 98.019449 
L 83.085531 98.65288 
L 83.158841 98.589537 
L 83.195496 98.526194 
L 83.200733 98.842909 
L 83.247861 98.842909 
L 83.305462 98.779566 
L 83.347353 99.096282 
L 83.420664 99.032938 
L 83.546338 99.032938 
L 83.666777 99.66637 
L 83.708668 99.560798 
L 83.781979 99.497455 
L 83.787215 99.81417 
L 83.797688 99.81417 
L 83.881471 99.750827 
L 83.944309 99.687484 
L 83.949545 100.004199 
L 83.970491 100.004199 
L 84.080456 100.004199 
L 84.206131 100.891003 
L 84.258495 100.891003 
L 84.378934 101.461091 
L 84.556973 101.397748 
L 84.677411 101.271062 
L 84.824032 101.207718 
L 84.939234 101.144375 
L 86.415912 101.081032 
L 86.531114 101.017689 
L 87.133305 100.954346 
L 87.248507 100.891003 
L 91.233444 100.82766 
L 91.348646 100.764317 
L 95.239327 100.700974 
L 95.354529 100.63763 
L 132.334325 100.574287 
L 132.449527 100.510944 
L 293.22943 100.447601 
L 293.344631 100.384258 
L 392.496776 100.320915 
L 392.611978 100.257572 
L 398.487273 100.257572 
L 398.487273 100.257572 
" clip-path="url(#p3fbfae1494)" style="fill: none; stroke: #d62728; stroke-width: 1.5; stroke-linecap: square"/>
   </g>
   <g id="line2d_16">
    <path d="M 73.832727 47.656399 
L 398.487273 47.656399 
L 398.487273 47.656399 
" clip-path="url(#p3fbfae1494)" style="fill: none; stroke: #9467bd; stroke-width: 1.5; stroke-linecap: square"/>
   </g>
   <g id="line2d_17">
    <path d="M 73.832727 47.973114 
L 73.853673 47.909771 
L 73.968875 49.472235 
L 73.984584 49.366663 
L 74.010767 49.313877 
L 74.16786 52.232938 
L 74.204515 52.15376 
L 74.25688 51.96373 
L 74.267352 52.597161 
L 74.293535 52.349067 
L 74.424446 54.02766 
L 74.429682 53.922088 
L 74.434919 53.922088 
L 74.534411 55.030592 
L 74.560594 54.808891 
L 74.571066 54.745548 
L 74.701978 56.091589 
L 74.722923 55.986018 
L 74.785761 56.566663 
L 74.838125 56.461091 
L 74.848598 56.355519 
L 74.900963 56.144375 
L 74.906199 56.461091 
L 74.937618 56.461091 
L 75.016165 57.332059 
L 75.058056 57.163144 
L 75.068529 57.163144 
L 75.194204 58.841736 
L 75.204677 58.736164 
L 75.21515 58.736164 
L 75.319879 59.448774 
L 75.27275 58.604199 
L 75.330351 59.290416 
L 75.346061 59.184845 
L 75.466499 61.206545 
L 75.487445 61.143202 
L 75.503154 61.143202 
L 75.628829 62.188364 
L 75.655011 62.082792 
L 75.796395 63.919742 
L 75.864469 63.539683 
L 75.885415 64.48983 
L 75.890651 64.48983 
L 75.911597 64.331472 
L 75.953489 65.070475 
L 75.984907 64.859331 
L 75.99538 64.75376 
L 76.016326 64.674581 
L 76.026799 65.308012 
L 76.058218 65.123261 
L 76.199602 67.023554 
L 76.225784 66.812411 
L 76.251966 67.604199 
L 76.278149 67.498628 
L 76.314804 68.448774 
L 76.403823 68.422381 
L 76.40906 68.422381 
L 76.545207 70.111531 
L 76.550444 70.111531 
L 76.649936 70.63939 
L 76.665646 70.576047 
L 76.686591 70.576047 
L 76.80703 71.31505 
L 76.827976 71.31505 
L 76.95365 72.281032 
L 77.068852 72.043496 
L 77.136926 72.043496 
L 77.262601 73.046428 
L 77.403985 72.967249 
L 77.424931 73.283965 
L 77.51395 73.020035 
L 77.52966 73.020035 
L 77.571551 73.653466 
L 77.644861 73.389537 
L 77.744354 73.389537 
L 77.786246 74.339683 
L 77.864792 74.181326 
L 77.943339 73.86461 
L 77.953812 74.498041 
L 77.964285 74.498041 
L 77.979994 74.498041 
L 78.116142 76.071062 
L 78.126615 75.96549 
L 78.152797 76.546135 
L 78.199925 76.546135 
L 78.215634 76.546135 
L 78.220871 76.387777 
L 78.283708 77.496282 
L 78.288945 77.496282 
L 78.404146 77.865783 
L 78.456511 77.760211 
L 78.519348 78.710358 
L 78.576949 78.525607 
L 78.582186 78.525607 
L 78.686915 78.937337 
L 78.697388 78.778979 
L 78.702624 78.778979 
L 78.807353 80.019449 
L 78.828299 79.913877 
L 78.838772 79.834698 
L 78.864954 80.784845 
L 78.8859 80.679273 
L 78.906845 80.679273 
L 79.027284 81.618862 
L 79.042993 81.196575 
L 79.105831 82.410651 
L 79.111067 82.410651 
L 79.116303 82.410651 
L 79.231505 82.885724 
L 79.320525 82.806545 
L 79.388599 83.439977 
L 79.435727 83.176047 
L 79.451436 83.070475 
L 79.556165 83.703906 
L 79.566638 83.598334 
L 79.634712 83.492762 
L 79.760387 84.654053 
L 79.812751 84.548481 
L 79.875588 84.310944 
L 79.896534 84.944375 
L 79.922716 84.944375 
L 80.001263 85.894522 
L 80.043155 85.736164 
L 80.07981 85.630592 
L 80.205485 86.580739 
L 80.221194 86.580739 
L 80.294504 86.000094 
L 80.336396 86.316809 
L 80.352105 86.316809 
L 80.47778 87.451707 
L 80.514435 87.346135 
L 80.645346 88.60244 
L 80.650583 88.496868 
L 80.708184 89.552587 
L 80.723893 89.183085 
L 80.734366 89.077513 
L 80.818149 90.370768 
L 80.860041 90.212411 
L 80.891459 90.212411 
L 80.959533 90.845842 
L 81.006661 90.74027 
L 81.027607 90.74027 
L 81.069499 91.056985 
L 81.137572 90.898628 
L 81.305139 90.793056 
L 81.36274 90.529126 
L 81.383685 91.162557 
L 81.394158 91.162557 
L 81.514597 92.16549 
L 81.519833 92.059918 
L 81.530306 92.059918 
L 81.635035 93.010065 
L 81.650744 92.904493 
L 81.687399 92.746135 
L 81.718818 93.379566 
L 81.745 93.379566 
L 81.750237 93.379566 
L 81.849729 93.221208 
L 81.854966 93.537924 
L 81.865439 93.537924 
L 81.896857 93.379566 
L 81.902094 93.696282 
L 81.975404 93.537924 
L 82.027769 93.432352 
L 82.148207 94.065783 
L 82.179626 93.960211 
L 82.300064 94.831179 
L 82.3053 94.831179 
L 82.331483 95.147894 
L 82.347192 94.778393 
L 82.415266 94.778393 
L 82.48334 94.778393 
L 82.598541 95.147894 
L 82.619487 95.147894 
L 82.750398 96.520328 
L 82.771344 96.520328 
L 82.897019 97.576047 
L 82.928438 97.576047 
L 82.975566 97.15376 
L 83.022694 97.787191 
L 83.02793 97.787191 
L 83.069822 97.787191 
L 83.090768 97.628833 
L 83.164078 98.103906 
L 83.169314 98.103906 
L 83.19026 98.103906 
L 83.195496 97.945548 
L 83.27928 98.420622 
L 83.294989 98.262264 
L 83.305462 98.262264 
L 83.347353 97.945548 
L 83.415427 98.262264 
L 83.488738 98.262264 
L 83.546338 98.103906 
L 83.551575 98.420622 
L 83.593467 98.420622 
L 83.713905 99.054053 
L 83.781979 99.054053 
L 83.902417 99.74027 
L 83.91289 99.74027 
L 83.944309 99.581912 
L 83.949545 99.898628 
L 84.017619 99.898628 
L 84.080456 99.898628 
L 84.132821 100.743202 
L 84.200895 100.574287 
L 84.258495 100.574287 
L 84.373697 101.418862 
L 84.378934 101.31329 
L 84.431298 101.31329 
L 84.551737 102.052293 
L 84.556973 101.946721 
L 84.645993 102.316223 
L 84.740249 102.316223 
L 84.865923 103.424727 
L 84.881633 103.424727 
L 84.949707 103.00244 
L 84.991598 103.319155 
L 85.075381 103.319155 
L 85.132982 103.952587 
L 85.190583 103.847015 
L 85.211529 103.847015 
L 85.326731 104.16373 
L 85.394805 104.16373 
L 85.510007 104.717982 
L 85.75612 104.717982 
L 85.818957 105.034698 
L 85.866085 104.87634 
L 86.06507 104.87634 
L 86.175035 105.193056 
L 86.290237 105.087484 
L 86.415912 105.087484 
L 86.504932 105.404199 
L 86.525877 105.245842 
L 86.845301 105.245842 
L 86.871483 105.562557 
L 86.955266 105.483378 
L 87.133305 105.377806 
L 87.253744 106.011238 
L 87.279926 106.011238 
L 87.395128 105.85288 
L 87.588876 105.85288 
L 87.704078 106.169595 
L 87.887354 106.169595 
L 87.897827 106.011238 
L 87.903063 106.327953 
L 87.992083 106.327953 
L 88.442417 106.327953 
L 88.557619 106.644669 
L 88.918934 106.644669 
L 89.007954 106.961384 
L 89.0289 106.882205 
L 90.175682 106.882205 
L 90.290884 107.198921 
L 91.233444 107.093349 
L 91.348646 107.410065 
L 93.019073 107.304493 
L 93.045255 107.146135 
L 93.050492 107.46285 
L 93.123802 107.46285 
L 94.165855 107.46285 
L 94.281057 107.779566 
L 95.239327 107.779566 
L 95.354529 108.096282 
L 99.585579 107.99071 
L 99.700781 108.307425 
L 100.905164 108.307425 
L 101.020366 108.149067 
L 111.367587 108.149067 
L 111.482789 107.99071 
L 111.597991 108.307425 
L 124.605328 108.307425 
L 124.72053 108.624141 
L 132.334325 108.624141 
L 132.418109 108.940856 
L 132.444291 108.782499 
L 138.654718 108.782499 
L 138.76992 109.099214 
L 139.319747 109.099214 
L 139.434949 109.41593 
L 139.58157 109.41593 
L 139.696771 109.257572 
L 155.343278 109.257572 
L 155.45848 109.574287 
L 204.293595 109.495109 
L 204.408797 109.389537 
L 265.18825 109.389537 
L 265.303452 109.706252 
L 276.855056 109.706252 
L 276.970258 109.547894 
L 293.22943 109.547894 
L 293.344631 109.86461 
L 357.522539 109.86461 
L 357.637741 110.181326 
L 392.496776 110.181326 
L 392.611978 110.498041 
L 394.287641 110.498041 
L 394.402843 110.339683 
L 398.487273 110.339683 
L 398.487273 110.339683 
" clip-path="url(#p3fbfae1494)" style="fill: none; stroke: #8c564b; stroke-width: 1.5; stroke-linecap: square"/>
   </g>
   <g id="line2d_18">
    <path d="M 73.832727 47.656399 
L 73.947929 47.418862 
L 398.487273 47.418862 
L 398.487273 47.418862 
" clip-path="url(#p3fbfae1494)" style="fill: none; stroke: #e377c2; stroke-width: 1.5; stroke-linecap: square"/>
   </g>
   <g id="line2d_19">
    <path d="M 73.832727 47.656399 
L 73.974111 49.493349 
L 74.016003 49.255812 
L 74.047422 49.810065 
L 74.068367 49.730886 
L 74.204515 51.330299 
L 74.214988 51.330299 
L 74.361609 53.531472 
L 74.408737 53.256985 
L 74.429682 53.890416 
L 74.440155 53.827073 
L 74.445392 53.827073 
L 74.56583 55.294522 
L 74.576303 55.231179 
L 74.618194 55.152 
L 74.644377 54.993642 
L 74.686268 55.363144 
L 74.696741 55.363144 
L 74.790997 56.498041 
L 74.822416 56.339683 
L 74.827652 56.339683 
L 74.953327 57.226487 
L 74.984746 57.226487 
L 75.115657 58.667543 
L 75.120894 58.667543 
L 75.236095 59.527953 
L 75.241332 59.422381 
L 75.262278 59.422381 
L 75.414135 62.130299 
L 75.424607 62.066956 
L 75.555519 64.394815 
L 75.571228 64.252293 
L 75.581701 64.252293 
L 75.702139 65.735578 
L 75.712612 65.656399 
L 75.738794 65.656399 
L 75.822578 67.345548 
L 75.874942 67.229419 
L 75.880178 67.229419 
L 75.99538 68.311531 
L 76.005853 68.232352 
L 76.01109 68.232352 
L 76.152474 70.26461 
L 76.162947 70.26461 
L 76.309567 72.418276 
L 76.314804 72.339097 
L 76.340986 73.289243 
L 76.466661 74.186604 
L 76.471897 74.186604 
L 76.613281 76.049947 
L 76.681355 75.944375 
L 76.686591 75.838804 
L 76.728483 76.472235 
L 76.765138 76.472235 
L 76.827976 77.105666 
L 76.88034 76.915636 
L 76.896049 76.915636 
L 77.026961 78.393642 
L 77.053143 78.314463 
L 77.100271 78.947894 
L 77.168345 78.778979 
L 77.199763 78.778979 
L 77.320202 79.412411 
L 77.383039 79.306839 
L 77.477295 80.256985 
L 77.503477 80.151413 
L 77.571551 80.151413 
L 77.686753 80.705666 
L 77.770536 80.642323 
L 77.864792 80.457572 
L 77.870029 80.774287 
L 77.922393 80.774287 
L 78.037595 81.349654 
L 78.042832 81.286311 
L 78.063777 81.919742 
L 78.079487 81.856399 
L 78.131851 82.48983 
L 78.194689 82.357865 
L 78.199925 82.357865 
L 78.341309 84.469302 
L 78.388437 84.390123 
L 78.493166 84.247601 
L 78.624077 85.514463 
L 78.629314 85.45112 
L 78.692151 85.915636 
L 78.697388 85.915636 
L 78.718333 85.852293 
L 78.749752 85.773114 
L 78.770698 86.406545 
L 78.807353 86.158452 
L 78.838772 86.079273 
L 78.980156 87.916223 
L 79.001102 87.916223 
L 79.137249 89.937924 
L 79.142486 89.858745 
L 79.215796 89.779566 
L 79.278633 90.412997 
L 79.330998 90.333818 
L 79.341471 90.333818 
L 79.461909 91.178393 
L 79.556165 91.178393 
L 79.634712 91.706252 
L 79.671367 91.473994 
L 79.739441 91.368422 
L 79.812751 91.896282 
L 79.854643 91.711531 
L 79.912244 91.648188 
L 80.032682 92.471648 
L 80.100756 92.471648 
L 80.215958 92.920328 
L 80.221194 92.920328 
L 80.341632 93.55376 
L 80.346869 93.55376 
L 80.362578 93.870475 
L 80.456834 93.632938 
L 80.561563 93.527367 
L 80.666292 94.984258 
L 80.692474 94.931472 
L 80.708184 94.931472 
L 80.823385 96.778979 
L 80.844331 96.699801 
L 80.901932 96.699801 
L 81.017134 97.254053 
L 81.069499 97.19071 
L 81.189937 97.824141 
L 81.305139 97.824141 
L 81.378449 98.774287 
L 81.430813 98.710944 
L 81.467469 98.710944 
L 81.587907 99.581912 
L 81.608853 99.518569 
L 81.635035 99.376047 
L 81.640271 99.692762 
L 81.713582 99.55024 
L 81.83402 100.183672 
L 81.865439 100.183672 
L 81.985877 100.817103 
L 82.022532 100.737924 
L 82.027769 101.054639 
L 82.132498 100.991296 
L 82.153443 100.927953 
L 82.15868 101.244669 
L 82.226754 101.16549 
L 82.247699 101.16549 
L 82.357665 102.052293 
L 82.368138 101.946721 
L 82.588068 101.883378 
L 82.713743 104.037044 
L 82.729453 103.931472 
L 82.781817 103.931472 
L 82.813236 104.248188 
L 82.891782 104.063437 
L 82.897019 104.000094 
L 82.938911 104.633525 
L 82.959856 104.527953 
L 82.965093 104.527953 
L 83.064585 105.161384 
L 83.080295 105.055812 
L 83.10124 104.992469 
L 83.226915 105.879273 
L 83.284516 105.81593 
L 83.347353 106.449361 
L 83.404954 106.386018 
L 83.593467 106.386018 
L 83.703432 107.019449 
L 83.708668 106.913877 
L 83.792452 106.850534 
L 83.797688 107.167249 
L 83.881471 107.103906 
L 83.996673 107.040563 
L 84.080456 107.040563 
L 84.216604 108.81417 
L 84.258495 108.81417 
L 84.389407 110.228833 
L 84.452244 110.228833 
L 84.577919 111.369009 
L 84.593628 111.263437 
L 84.640756 111.580152 
L 84.70883 111.516809 
L 84.761194 111.516809 
L 84.78214 111.833525 
L 84.87116 111.706839 
L 84.881633 111.706839 
L 85.007308 112.656985 
L 85.818957 112.577806 
L 85.934159 112.894522 
L 86.415912 112.831179 
L 86.53635 112.662264 
L 86.871483 112.598921 
L 86.986685 112.519742 
L 87.279926 112.456399 
L 87.395128 112.773114 
L 87.704078 112.709771 
L 87.81928 112.604199 
L 89.007954 112.498628 
L 89.123156 112.419449 
L 93.045255 112.356106 
L 93.160457 112.292762 
L 96.511784 112.229419 
L 96.626986 112.546135 
L 111.367587 112.482792 
L 111.482789 112.799507 
L 132.334325 112.693935 
L 132.418109 112.630592 
L 132.423345 112.947308 
L 169.183211 112.883965 
L 169.298412 112.804786 
L 276.855056 112.804786 
L 276.970258 113.121501 
L 357.522539 113.058158 
L 357.637741 112.994815 
L 394.287641 112.931472 
L 394.402843 113.248188 
L 398.487273 113.248188 
L 398.487273 113.248188 
" clip-path="url(#p3fbfae1494)" style="fill: none; stroke: #7f7f7f; stroke-width: 1.5; stroke-linecap: square"/>
   </g>
   <g id="line2d_20">
    <path d="M 73.832727 47.973114 
L 73.984584 50.53851 
L 73.995057 50.53851 
L 74.125968 51.88983 
L 74.136441 51.88983 
L 74.152151 51.731472 
L 74.199279 52.681619 
L 74.220224 52.459918 
L 74.361609 54.85112 
L 74.366845 54.798334 
L 74.440155 54.091003 
L 74.471574 54.555519 
L 74.612958 56.920328 
L 74.618194 56.814757 
L 74.644377 56.286897 
L 74.670559 57.237044 
L 74.681032 57.237044 
L 74.770051 59.665196 
L 74.822416 59.110944 
L 74.827652 59.110944 
L 74.838125 58.794229 
L 74.89049 60.472821 
L 74.895726 60.314463 
L 75.000455 61.343789 
L 74.958564 59.997748 
L 75.010928 60.947894 
L 75.03711 60.631179 
L 75.063293 61.26461 
L 75.089475 61.211824 
L 75.204677 62.325607 
L 75.173258 61.122088 
L 75.21515 62.220035 
L 75.246568 62.061677 
L 75.27275 63.32854 
L 75.283223 63.06461 
L 75.408898 64.437044 
L 75.304169 62.959038 
L 75.414135 64.357865 
L 75.424607 64.294522 
L 75.429844 64.18895 
L 75.482208 65.033525 
L 75.634065 67.757279 
L 75.639302 67.757279 
L 75.764977 69.055812 
L 75.770213 68.992469 
L 75.780686 68.72854 
L 75.822578 70.523261 
L 75.843523 70.100974 
L 75.84876 70.100974 
L 75.874942 69.88983 
L 75.927307 70.760798 
L 76.0844 73.795988 
L 76.089636 73.795988 
L 76.100109 74.112704 
L 76.183892 72.793056 
L 76.189129 73.109771 
L 76.199602 73.004199 
L 76.236257 73.795988 
L 76.257203 73.785431 
L 76.356695 75.421795 
L 76.388114 75.105079 
L 76.40906 74.999507 
L 76.450951 74.735578 
L 76.487606 75.421795 
L 76.513789 75.041736 
L 76.519025 75.041736 
L 76.618518 76.730886 
L 76.649936 76.519742 
L 76.71801 75.875754 
L 76.759902 76.509185 
L 76.786084 76.403613 
L 76.843685 75.801853 
L 76.869867 76.435284 
L 76.896049 76.435284 
L 76.901286 76.329713 
L 76.911759 76.963144 
L 76.979833 76.936751 
L 76.995542 76.831179 
L 77.032197 76.514463 
L 77.058379 77.147894 
L 77.100271 76.831179 
L 77.215473 77.374874 
L 77.35162 77.269302 
L 77.451113 78.325021 
L 77.477295 78.166663 
L 77.571551 77.691589 
L 77.592497 78.008305 
L 77.665807 78.641736 
L 77.707699 78.483378 
L 77.74959 78.377806 
L 77.770536 78.208891 
L 77.801955 79.159038 
L 77.822901 79.053466 
L 77.864792 79.053466 
L 77.943339 79.686897 
L 77.979994 79.412411 
L 77.985231 79.306839 
L 78.037595 80.367836 
L 78.042832 80.304493 
L 78.147561 81.191296 
L 78.16327 81.085724 
L 78.173743 80.980152 
L 78.30989 82.854053 
L 78.330836 82.959625 
L 78.435565 82.326194 
L 78.540294 83.740856 
L 78.56124 83.265783 
L 78.624077 83.160211 
L 78.749752 84.32678 
L 78.760225 84.06285 
L 78.812589 84.73851 
L 78.828299 84.73851 
L 78.901609 85.371941 
L 78.938264 84.939097 
L 78.948737 84.939097 
L 79.042993 86.469889 
L 79.079648 86.179566 
L 79.090121 86.073994 
L 79.12154 85.852293 
L 79.142486 86.485724 
L 79.158195 86.485724 
L 79.163431 86.485724 
L 79.221032 86.960798 
L 79.273397 86.696868 
L 79.278633 86.696868 
L 79.341471 86.591296 
L 79.393835 87.119155 
L 79.43049 87.119155 
L 79.451436 87.647015 
L 79.545692 87.567836 
L 79.556165 87.409478 
L 79.60853 87.937337 
L 79.650421 87.705079 
L 79.655658 87.705079 
L 79.749914 87.599507 
L 79.770859 88.232938 
L 79.812751 88.232938 
L 79.838933 88.86637 
L 79.927953 88.792469 
L 79.980317 88.729126 
L 79.985554 88.623554 
L 80.0065 89.256985 
L 80.053628 89.098628 
L 80.132174 89.943202 
L 80.168829 89.65288 
L 80.174066 89.65288 
L 80.289268 90.761384 
L 80.294504 90.603026 
L 80.346869 90.497455 
L 80.367814 91.051707 
L 80.378287 91.051707 
L 80.420179 90.998921 
L 80.441125 90.787777 
L 80.488253 91.315636 
L 80.524908 91.051707 
L 80.535381 91.051707 
L 80.671528 92.677513 
L 80.676765 92.677513 
L 80.708184 92.20244 
L 80.734366 93.469302 
L 80.781494 92.862264 
L 80.917642 94.604199 
L 80.933351 94.261091 
L 80.96477 94.630592 
L 81.022371 94.630592 
L 81.053789 94.567249 
L 81.069499 94.408891 
L 81.074735 94.725607 
L 81.158518 94.567249 
L 81.27372 94.883965 
L 81.289429 94.883965 
L 81.305139 94.725607 
L 81.34703 95.20068 
L 81.394158 95.031765 
L 81.467469 94.609478 
L 81.477941 95.242909 
L 81.498887 94.978979 
L 81.603616 96.14027 
L 81.624562 96.013584 
L 81.635035 95.776047 
L 81.655981 96.330299 
L 81.724055 96.161384 
L 81.750237 96.161384 
L 81.771183 96.4781 
L 81.854966 96.055812 
L 81.865439 96.055812 
L 81.949222 96.689243 
L 81.980641 96.530886 
L 81.99635 96.530886 
L 82.027769 97.164317 
L 82.111552 96.942616 
L 82.153443 96.879273 
L 82.221517 97.248774 
L 82.263409 97.064023 
L 82.268645 97.064023 
L 82.357665 98.4259 
L 82.39432 98.161971 
L 82.436211 98.161971 
L 82.551413 97.94027 
L 82.588068 98.573701 
L 82.661379 98.140856 
L 82.671852 98.035284 
L 82.713743 99.222968 
L 82.79229 98.80068 
L 82.802763 98.80068 
L 82.923201 99.423554 
L 82.928438 99.423554 
L 82.975566 100.268129 
L 83.048876 100.004199 
L 83.069822 99.898628 
L 83.158841 100.310358 
L 83.185024 100.247015 
L 83.19026 100.247015 
L 83.315935 101.186604 
L 83.331644 101.186604 
L 83.336881 101.50332 
L 83.44161 101.281619 
L 83.488738 101.281619 
L 83.546338 101.598334 
L 83.598703 101.228833 
L 83.651067 101.070475 
L 83.656304 101.387191 
L 83.703432 101.387191 
L 83.787215 101.376633 
L 83.82387 102.010065 
L 83.860525 101.788364 
L 83.918126 102.200094 
L 84.080456 102.094522 
L 84.132821 101.978393 
L 84.14853 102.92854 
L 84.153766 103.245255 
L 84.174712 102.917982 
L 84.258495 103.234698 
L 84.295151 103.065783 
L 84.326569 103.593642 
L 84.347515 103.593642 
L 84.373697 103.48807 
L 84.488899 103.963144 
L 84.509845 103.963144 
L 84.536027 103.804786 
L 84.577919 104.628246 
L 84.593628 104.522674 
L 84.609337 104.83939 
L 84.645993 104.459331 
L 84.703594 104.459331 
L 84.740249 104.459331 
L 84.761194 104.142616 
L 84.860687 104.174287 
L 84.881633 104.174287 
L 84.949707 104.966076 
L 85.002071 104.807718 
L 85.075381 104.807718 
L 85.132982 104.491003 
L 85.190583 104.649361 
L 85.211529 104.649361 
L 85.326731 104.491003 
L 85.394805 104.491003 
L 85.452406 104.332645 
L 85.457642 104.649361 
L 85.50477 104.491003 
L 85.75612 104.491003 
L 85.818957 104.332645 
L 85.824193 104.649361 
L 85.860849 104.649361 
L 86.175035 104.586018 
L 86.290237 104.902733 
L 86.337365 104.902733 
L 86.415912 105.219449 
L 86.447331 105.050534 
L 86.504932 105.050534 
L 86.620134 105.367249 
L 86.871483 105.303906 
L 86.986685 105.620622 
L 87.012867 105.620622 
L 87.128069 105.937337 
L 87.138542 105.873994 
L 87.253744 105.715636 
L 87.279926 105.715636 
L 87.395128 106.032352 
L 87.704078 105.969009 
L 87.81928 105.863437 
L 87.887354 105.863437 
L 87.897827 106.180152 
L 87.997319 106.021795 
L 88.442417 106.021795 
L 88.557619 105.863437 
L 88.918934 105.757865 
L 89.007954 105.599507 
L 89.01319 105.916223 
L 89.023663 105.916223 
L 90.175682 105.916223 
L 90.290884 105.757865 
L 90.505578 105.757865 
L 90.62078 106.074581 
L 92.516374 106.011238 
L 92.631576 106.327953 
L 93.019073 106.327953 
L 93.045255 106.644669 
L 93.134275 106.581326 
L 93.736466 106.581326 
L 93.851668 106.422968 
L 94.165855 106.422968 
L 94.281057 106.26461 
L 96.511784 106.201267 
L 96.626986 106.517982 
L 100.905164 106.454639 
L 101.020366 106.771355 
L 111.367587 106.771355 
L 111.482789 107.08807 
L 111.597991 106.929713 
L 123.798915 106.824141 
L 123.914117 106.665783 
L 124.605328 106.665783 
L 124.72053 106.507425 
L 132.418109 106.444082 
L 132.53331 106.760798 
L 138.654718 106.760798 
L 138.76992 106.60244 
L 139.319747 106.60244 
L 139.434949 106.444082 
L 139.58157 106.444082 
L 139.696771 106.760798 
L 169.183211 106.697455 
L 169.298412 107.01417 
L 204.293595 107.01417 
L 204.408797 107.330886 
L 265.18825 107.330886 
L 265.303452 107.172528 
L 276.855056 107.172528 
L 276.970258 107.489243 
L 313.950055 107.4259 
L 314.065257 107.267543 
L 388.983119 107.204199 
L 389.098321 107.520915 
L 394.287641 107.457572 
L 394.402843 107.774287 
L 398.487273 107.774287 
L 398.487273 107.774287 
" clip-path="url(#p3fbfae1494)" style="fill: none; stroke: #bcbd22; stroke-width: 1.5; stroke-linecap: square"/>
   </g>
   <g id="line2d_21">
    <path d="M 73.832727 47.973114 
L 74.000294 51.884551 
L 74.00553 51.831765 
L 74.016003 51.673408 
L 74.073604 52.401853 
L 74.225461 54.88807 
L 74.230697 54.88807 
L 74.361609 57.32678 
L 74.377318 57.221208 
L 74.408737 56.973114 
L 74.450628 57.543202 
L 74.466337 57.43763 
L 74.612958 59.76549 
L 74.644377 59.132059 
L 74.691505 59.976633 
L 74.696741 59.897455 
L 74.790997 61.269889 
L 74.81718 60.742029 
L 74.827652 60.742029 
L 74.911436 62.31505 
L 74.958564 61.998334 
L 74.9638 61.998334 
L 75.115657 64.732645 
L 75.147076 64.669302 
L 75.173258 65.117982 
L 75.335588 68.723261 
L 75.340824 68.617689 
L 75.346061 68.512117 
L 75.403662 69.583672 
L 75.419371 69.504493 
L 75.424607 69.44115 
L 75.45079 70.206545 
L 75.476972 69.984845 
L 75.634065 72.935578 
L 75.639302 72.935578 
L 75.822578 77.454053 
L 75.864469 76.704493 
L 75.885415 77.654639 
L 75.890651 77.654639 
L 76.042508 80.478686 
L 76.058218 80.188364 
L 76.105346 81.296868 
L 76.115819 81.191296 
L 76.267676 84.083965 
L 76.272912 83.978393 
L 76.278149 83.872821 
L 76.330513 84.981326 
L 76.335749 84.981326 
L 76.39335 86.08983 
L 76.461424 86.037044 
L 76.471897 86.037044 
L 76.613281 88.454639 
L 76.618518 88.349067 
L 76.649936 88.243496 
L 76.686591 87.810651 
L 76.723247 88.444082 
L 76.827976 88.919155 
L 76.838448 88.855812 
L 76.843685 88.792469 
L 76.901286 89.362557 
L 77.026961 90.286311 
L 77.053143 90.207132 
L 77.100271 90.840563 
L 77.168345 90.51329 
L 77.199763 90.434111 
L 77.320202 91.067543 
L 77.35162 91.067543 
L 77.451113 92.545548 
L 77.482532 92.281619 
L 77.51395 92.281619 
L 77.52966 92.123261 
L 77.576788 93.073408 
L 77.597733 92.994229 
L 77.608206 92.994229 
L 77.665807 93.310944 
L 77.718172 93.152587 
L 77.770536 93.089243 
L 77.864792 92.640563 
L 77.885738 92.957279 
L 77.922393 92.957279 
L 78.053304 94.261091 
L 78.058541 94.261091 
L 78.184216 95.359038 
L 78.199925 95.359038 
L 78.346546 97.655226 
L 78.357018 97.576047 
L 78.435565 97.021795 
L 78.461747 97.655226 
L 78.493166 97.591883 
L 78.645023 100.141443 
L 78.692151 100.289243 
L 78.749752 99.882792 
L 78.880663 101.297455 
L 78.901609 101.297455 
L 78.906845 101.139097 
L 78.953974 102.0259 
L 78.990629 101.867543 
L 79.001102 101.761971 
L 79.137249 103.994815 
L 79.147722 103.915636 
L 79.179141 103.836457 
L 79.26816 104.786604 
L 79.294343 104.549067 
L 79.341471 104.232352 
L 79.393835 104.865783 
L 79.435727 104.760211 
L 79.440963 104.654639 
L 79.4462 104.971355 
L 79.535219 104.892176 
L 79.545692 104.892176 
L 79.66613 105.821208 
L 79.739441 105.610065 
L 79.744677 105.92678 
L 79.765623 105.821208 
L 79.812751 106.137924 
L 79.84417 105.794815 
L 79.880825 106.111531 
L 79.912244 106.048188 
L 80.001263 106.871648 
L 80.032682 106.71329 
L 80.037918 106.71329 
L 80.053628 106.554933 
L 80.105992 107.505079 
L 80.121701 107.505079 
L 80.147884 107.4259 
L 80.174066 107.214757 
L 80.189775 107.848188 
L 80.221194 107.848188 
L 80.273558 108.481619 
L 80.336396 108.217689 
L 80.346869 108.217689 
L 80.352105 108.534405 
L 80.456834 108.217689 
L 80.483016 108.217689 
L 80.592982 109.695695 
L 80.613928 109.632352 
L 80.6244 109.632352 
L 80.734366 111.152587 
L 80.755312 110.967836 
L 80.771021 110.888657 
L 80.781494 110.809478 
L 80.823385 111.654053 
L 80.833858 111.574874 
L 80.901932 111.495695 
L 80.959533 111.944375 
L 80.928114 111.469302 
L 81.017134 111.838804 
L 81.053789 111.77546 
L 81.174228 112.567249 
L 81.289429 112.567249 
L 81.305139 112.408891 
L 81.367976 113.20068 
L 81.378449 113.20068 
L 81.430813 112.899801 
L 81.43605 113.216516 
L 81.467469 113.137337 
L 81.603616 114.800094 
L 81.635035 114.435871 
L 81.713582 114.451707 
L 81.771183 115.085138 
L 81.828784 114.768422 
L 81.849729 114.768422 
L 81.902094 116.035284 
L 81.975404 115.718569 
L 82.022532 115.63939 
L 82.027769 115.956106 
L 82.132498 115.734405 
L 82.153443 115.671062 
L 82.184862 116.146135 
L 82.205808 116.146135 
L 82.221517 116.066956 
L 82.247699 115.987777 
L 82.273882 116.621208 
L 82.3053 116.399507 
L 82.357665 117.349654 
L 82.425739 117.085724 
L 82.436211 117.085724 
L 82.55665 116.758452 
L 82.588068 116.758452 
L 82.713743 118.674581 
L 82.724216 118.569009 
L 82.729453 118.569009 
L 82.813236 119.519155 
L 82.849891 119.334405 
L 82.891782 119.255226 
L 82.897019 119.191883 
L 82.938911 119.825314 
L 82.959856 119.719742 
L 82.965093 119.719742 
L 83.080295 120.881032 
L 83.090768 120.722674 
L 83.10124 120.659331 
L 83.106477 120.976047 
L 83.185024 120.912704 
L 83.19026 120.912704 
L 83.195496 120.754346 
L 83.216442 121.387777 
L 83.284516 121.166076 
L 83.336881 121.799507 
L 83.399718 121.577806 
L 83.488738 121.577806 
L 83.546338 121.419449 
L 83.551575 121.736164 
L 83.593467 121.577806 
L 83.703432 122.05288 
L 83.708668 121.947308 
L 83.781979 121.725607 
L 83.787215 122.042323 
L 83.792452 122.042323 
L 83.818634 122.359038 
L 83.83958 121.978979 
L 83.902417 122.073994 
L 83.91289 122.073994 
L 84.033328 122.707425 
L 84.080456 122.707425 
L 84.216604 124.37546 
L 84.258495 124.37546 
L 84.389407 125.790123 
L 84.431298 125.790123 
L 84.556973 127.310358 
L 84.562209 127.247015 
L 84.572682 127.247015 
L 84.609337 127.774874 
L 84.682648 127.394815 
L 84.740249 127.394815 
L 84.824032 128.123261 
L 84.860687 128.059918 
L 84.881633 128.059918 
L 85.007308 129.168422 
L 85.075381 129.168422 
L 85.169637 130.118569 
L 85.19582 129.960211 
L 85.211529 129.960211 
L 85.326731 130.276927 
L 85.394805 130.276927 
L 85.510007 130.831179 
L 85.75612 130.831179 
L 85.876558 131.46461 
L 86.175035 131.401267 
L 86.290237 131.717982 
L 86.337365 131.717982 
L 86.415912 132.034698 
L 86.447331 131.865783 
L 86.871483 131.80244 
L 86.986685 131.723261 
L 87.138542 131.659918 
L 87.253744 131.976633 
L 87.279926 131.976633 
L 87.395128 132.293349 
L 87.704078 132.230006 
L 87.81928 132.124434 
L 87.887354 132.124434 
L 88.007792 132.757865 
L 88.442417 132.757865 
L 88.557619 133.074581 
L 88.918934 132.969009 
L 89.007954 133.285724 
L 89.0289 133.206545 
L 90.175682 133.206545 
L 90.290884 133.523261 
L 93.045255 133.459918 
L 93.160457 133.396575 
L 93.736466 133.396575 
L 93.851668 133.238217 
L 94.165855 133.238217 
L 94.281057 133.554933 
L 96.511784 133.491589 
L 96.626986 133.808305 
L 100.905164 133.744962 
L 101.020366 134.061677 
L 111.367587 134.061677 
L 111.488026 134.695109 
L 123.798915 134.589537 
L 123.914117 134.431179 
L 124.605328 134.431179 
L 124.72053 134.747894 
L 132.418109 134.684551 
L 132.53331 135.001267 
L 138.654718 135.001267 
L 138.76992 135.317982 
L 139.319747 135.317982 
L 139.434949 135.634698 
L 169.183211 135.571355 
L 169.298412 135.492176 
L 204.293595 135.492176 
L 204.408797 135.808891 
L 265.18825 135.808891 
L 265.303452 136.125607 
L 276.855056 136.125607 
L 276.970258 136.442323 
L 313.950055 136.378979 
L 314.065257 136.220622 
L 388.983119 136.157279 
L 389.098321 136.473994 
L 394.287641 136.410651 
L 394.402843 136.727367 
L 398.487273 136.727367 
L 398.487273 136.727367 
" clip-path="url(#p3fbfae1494)" style="fill: none; stroke: #17becf; stroke-width: 1.5; stroke-linecap: square"/>
   </g>
   <g id="line2d_22">
    <path d="M 73.832727 47.550827 
L 73.837964 47.550827 
L 73.958402 48.659331 
L 73.879855 47.498041 
L 73.963638 48.55376 
L 73.968875 48.55376 
L 74.068367 49.583085 
L 74.089313 49.292762 
L 74.199279 49.071062 
L 74.309244 51.673408 
L 74.345899 51.303906 
L 74.351136 51.303906 
L 74.487283 52.971941 
L 74.534411 52.813584 
L 74.571066 53.76373 
L 74.586776 53.552587 
L 74.623431 54.186018 
L 74.660086 54.186018 
L 74.707214 54.106839 
L 74.827652 54.819449 
L 74.843362 54.819449 
L 74.900963 55.769595 
L 74.958564 55.294522 
L 74.9638 55.294522 
L 75.105184 57.247601 
L 75.115657 57.247601 
L 75.188967 57.105079 
L 75.230859 57.580152 
L 75.257041 57.580152 
L 75.372243 59.506839 
L 75.393189 59.322088 
L 75.424607 59.242909 
L 75.429844 59.137337 
L 75.471736 59.665196 
L 75.508391 59.559625 
L 75.655011 61.966663 
L 75.670721 61.90332 
L 75.696903 62.431179 
L 75.744031 62.193642 
L 75.754504 62.08807 
L 75.864469 63.502733 
L 75.880178 63.238804 
L 75.890651 63.133232 
L 75.932543 63.977806 
L 75.953489 63.74027 
L 76.100109 66.32678 
L 76.183892 65.904493 
L 76.121055 66.485138 
L 76.204838 66.432352 
L 76.210075 66.432352 
L 76.361932 68.992469 
L 76.40906 68.886897 
L 76.450951 68.622968 
L 76.471897 69.256399 
L 76.618518 71.594815 
L 76.649936 71.489243 
L 76.655173 71.805959 
L 76.71801 71.594815 
L 76.765138 72.228246 
L 76.833212 72.059331 
L 76.864631 71.995988 
L 76.990305 73.051707 
L 77.032197 73.051707 
L 77.136926 73.368422 
L 77.147399 73.305079 
L 77.157872 73.305079 
L 77.252128 73.75376 
L 77.273074 73.648188 
L 77.383039 73.648188 
L 77.503477 74.492762 
L 77.555842 74.387191 
L 77.571551 74.281619 
L 77.613443 74.91505 
L 77.639625 74.91505 
L 77.74959 74.809478 
L 77.786246 74.640563 
L 77.791482 74.957279 
L 77.849083 74.957279 
L 77.864792 74.957279 
L 77.943339 75.59071 
L 77.979994 75.421795 
L 77.985231 75.316223 
L 78.037595 76.139683 
L 78.042832 76.07634 
L 78.147561 77.475167 
L 78.173743 77.369595 
L 78.215634 77.369595 
L 78.241817 77.316809 
L 78.346546 78.610065 
L 78.435565 78.530886 
L 78.56124 79.628833 
L 78.624077 79.523261 
L 78.749752 80.874581 
L 78.754988 80.769009 
L 78.781171 80.663437 
L 78.906845 81.55024 
L 78.917318 81.444669 
L 78.922555 81.761384 
L 78.995865 81.655812 
L 79.132013 83.176047 
L 79.137249 83.176047 
L 79.221032 83.967836 
L 79.257687 83.862264 
L 79.278633 83.862264 
L 79.393835 84.284551 
L 79.43049 84.284551 
L 79.451436 84.917982 
L 79.545692 84.838804 
L 79.556165 84.680446 
L 79.60853 85.313877 
L 79.645185 85.187191 
L 79.655658 85.187191 
L 79.770859 85.609478 
L 79.812751 85.609478 
L 79.875588 86.242909 
L 79.927953 85.957865 
L 79.980317 85.894522 
L 80.001263 85.78895 
L 80.058864 86.422381 
L 80.064101 86.422381 
L 80.100756 86.316809 
L 80.184539 86.76549 
L 80.215958 86.607132 
L 80.221194 86.607132 
L 80.294504 87.873994 
L 80.346869 87.768422 
L 80.38876 87.689243 
L 80.509199 88.322674 
L 80.514435 88.322674 
L 80.535381 88.164317 
L 80.598218 88.586604 
L 80.613928 88.586604 
L 80.6244 88.586604 
L 80.734366 90.423554 
L 80.755312 90.238804 
L 80.771021 90.080446 
L 80.823385 91.136164 
L 80.833858 91.136164 
L 80.901932 91.056985 
L 81.027607 92.112704 
L 81.069499 92.049361 
L 81.074735 92.366076 
L 81.116627 92.366076 
L 81.158518 92.366076 
L 81.27372 92.682792 
L 81.305139 92.682792 
L 81.36274 93.316223 
L 81.420341 93.068129 
L 81.446523 92.962557 
L 81.467469 92.883378 
L 81.477941 93.516809 
L 81.514597 93.411238 
L 81.530306 93.727953 
L 81.624562 93.495695 
L 81.635035 93.495695 
L 81.755473 94.276927 
L 81.865439 94.171355 
L 81.980641 94.646428 
L 82.022532 94.646428 
L 82.027769 94.963144 
L 82.132498 94.899801 
L 82.153443 94.836457 
L 82.15868 95.153173 
L 82.211044 95.047601 
L 82.294827 95.812997 
L 82.326246 95.591296 
L 82.331483 95.591296 
L 82.457157 96.541443 
L 82.551413 96.4781 
L 82.588068 97.111531 
L 82.666615 96.837044 
L 82.687561 96.731472 
L 82.713743 97.285724 
L 82.755635 97.180152 
L 82.781817 97.074581 
L 82.802763 96.969009 
L 82.834182 97.60244 
L 82.8656 97.60244 
L 82.891782 97.523261 
L 82.928438 97.459918 
L 82.938911 98.093349 
L 82.95462 98.093349 
L 82.965093 98.093349 
L 83.080295 98.46285 
L 83.10124 98.399507 
L 83.221679 99.180739 
L 83.284516 99.117396 
L 83.347353 100.067543 
L 83.410191 100.004199 
L 83.488738 100.004199 
L 83.546338 100.320915 
L 83.598703 100.109771 
L 83.781979 100.046428 
L 83.792452 99.940856 
L 83.82387 100.574287 
L 83.865762 100.510944 
L 83.91289 100.447601 
L 83.944309 100.764317 
L 84.022855 100.658745 
L 84.090929 100.553173 
L 84.22184 101.862264 
L 84.279441 101.756692 
L 84.295151 101.693349 
L 84.300387 102.010065 
L 84.373697 101.904493 
L 84.488899 102.379566 
L 84.509845 102.379566 
L 84.536027 102.221208 
L 84.577919 103.044669 
L 84.593628 103.044669 
L 84.640756 103.361384 
L 84.70883 103.298041 
L 84.740249 103.298041 
L 84.761194 103.139683 
L 84.766431 103.456399 
L 84.855451 103.171355 
L 84.881633 103.171355 
L 84.949707 104.121501 
L 85.002071 103.963144 
L 85.075381 103.963144 
L 85.132982 103.646428 
L 85.185347 103.963144 
L 85.211529 103.963144 
L 85.326731 103.804786 
L 85.394805 103.804786 
L 85.452406 103.646428 
L 85.457642 103.963144 
L 85.50477 103.804786 
L 85.75612 103.804786 
L 85.818957 103.646428 
L 85.824193 103.963144 
L 85.860849 103.963144 
L 86.175035 103.899801 
L 86.290237 104.216516 
L 86.504932 104.153173 
L 86.620134 104.469889 
L 86.871483 104.406545 
L 86.986685 104.723261 
L 87.012867 104.723261 
L 87.128069 105.039977 
L 87.138542 104.976633 
L 87.253744 104.818276 
L 87.279926 104.818276 
L 87.395128 105.134991 
L 87.887354 105.071648 
L 87.897827 105.388364 
L 87.997319 105.230006 
L 88.442417 105.230006 
L 88.557619 105.071648 
L 88.918934 105.071648 
L 89.007954 104.91329 
L 89.01319 105.230006 
L 89.023663 105.230006 
L 90.175682 105.230006 
L 90.290884 105.071648 
L 90.505578 105.071648 
L 90.62078 105.388364 
L 92.516374 105.325021 
L 92.631576 105.641736 
L 93.019073 105.641736 
L 93.045255 105.958452 
L 93.134275 105.895109 
L 94.165855 105.895109 
L 94.281057 105.736751 
L 96.511784 105.673408 
L 96.626986 105.990123 
L 100.905164 105.92678 
L 101.020366 106.243496 
L 111.367587 106.243496 
L 111.482789 106.560211 
L 111.597991 106.401853 
L 124.605328 106.401853 
L 124.72053 106.243496 
L 132.418109 106.180152 
L 132.53331 106.496868 
L 138.654718 106.496868 
L 138.76992 106.33851 
L 139.319747 106.33851 
L 139.434949 106.180152 
L 139.58157 106.180152 
L 139.696771 106.496868 
L 169.183211 106.433525 
L 169.298412 106.75024 
L 204.293595 106.75024 
L 204.408797 107.066956 
L 265.18825 107.066956 
L 265.303452 106.908598 
L 276.855056 106.908598 
L 276.970258 107.225314 
L 357.522539 107.161971 
L 357.637741 107.098628 
L 394.287641 107.035284 
L 394.402843 107.352 
L 398.487273 107.352 
L 398.487273 107.352 
" clip-path="url(#p3fbfae1494)" style="fill: none; stroke: #1f77b4; stroke-width: 1.5; stroke-linecap: square"/>
   </g>
   <g id="line2d_23">
    <path d="M 73.832727 47.550827 
L 73.947929 47.286897 
L 73.984584 47.286897 
L 74.099786 46.970182 
L 398.487273 46.970182 
L 398.487273 46.970182 
" clip-path="url(#p3fbfae1494)" style="fill: none; stroke: #ff7f0e; stroke-width: 1.5; stroke-linecap: square"/>
   </g>
   <g id="patch_3">
    <path d="M 57.6 162.432 
L 57.6 41.472 
" style="fill: none; stroke: #000000; stroke-width: 0.8; stroke-linejoin: miter; stroke-linecap: square"/>
   </g>
   <g id="patch_4">
    <path d="M 414.72 162.432 
L 414.72 41.472 
" style="fill: none; stroke: #000000; stroke-width: 0.8; stroke-linejoin: miter; stroke-linecap: square"/>
   </g>
   <g id="patch_5">
    <path d="M 57.6 162.432 
L 414.72 162.432 
" style="fill: none; stroke: #000000; stroke-width: 0.8; stroke-linejoin: miter; stroke-linecap: square"/>
   </g>
   <g id="patch_6">
    <path d="M 57.6 41.472 
L 414.72 41.472 
" style="fill: none; stroke: #000000; stroke-width: 0.8; stroke-linejoin: miter; stroke-linecap: square"/>
   </g>
   <g id="text_12">
    <!-- WSP -->
    <g transform="translate(361.832136 156.933818)scale(0.08 -0.08)">
     <defs>
      <path id="DejaVuSans-57" d="M 213 4666 
L 850 4666 
L 1831 722 
L 2809 4666 
L 3519 4666 
L 4500 722 
L 5478 4666 
L 6119 4666 
L 4947 0 
L 4153 0 
L 3169 4050 
L 2175 0 
L 1381 0 
L 213 4666 
z
" transform="scale(0.015625)"/>
      <path id="DejaVuSans-53" d="M 3425 4513 
L 3425 3897 
Q 3066 4069 2747 4153 
Q 2428 4238 2131 4238 
Q 1616 4238 1336 4038 
Q 1056 3838 1056 3469 
Q 1056 3159 1242 3001 
Q 1428 2844 1947 2747 
L 2328 2669 
Q 3034 2534 3370 2195 
Q 3706 1856 3706 1288 
Q 3706 609 3251 259 
Q 2797 -91 1919 -91 
Q 1588 -91 1214 -16 
Q 841 59 441 206 
L 441 856 
Q 825 641 1194 531 
Q 1563 422 1919 422 
Q 2459 422 2753 634 
Q 3047 847 3047 1241 
Q 3047 1584 2836 1778 
Q 2625 1972 2144 2069 
L 1759 2144 
Q 1053 2284 737 2584 
Q 422 2884 422 3419 
Q 422 4038 858 4394 
Q 1294 4750 2059 4750 
Q 2388 4750 2728 4690 
Q 3069 4631 3425 4513 
z
" transform="scale(0.015625)"/>
      <path id="DejaVuSans-50" d="M 1259 4147 
L 1259 2394 
L 2053 2394 
Q 2494 2394 2734 2622 
Q 2975 2850 2975 3272 
Q 2975 3691 2734 3919 
Q 2494 4147 2053 4147 
L 1259 4147 
z
M 628 4666 
L 2053 4666 
Q 2838 4666 3239 4311 
Q 3641 3956 3641 3272 
Q 3641 2581 3239 2228 
Q 2838 1875 2053 1875 
L 1259 1875 
L 1259 0 
L 628 0 
L 628 4666 
z
" transform="scale(0.015625)"/>
     </defs>
     <use xlink:href="#DejaVuSans-57"/>
     <use xlink:href="#DejaVuSans-53" x="98.876953"/>
     <use xlink:href="#DejaVuSans-50" x="162.353516"/>
    </g>
   </g>
   <g id="text_13">
    <!-- Iambic -->
    <g transform="translate(361.832136 111.189537)scale(0.08 -0.08)">
     <defs>
      <path id="DejaVuSans-49" d="M 628 4666 
L 1259 4666 
L 1259 0 
L 628 0 
L 628 4666 
z
" transform="scale(0.015625)"/>
      <path id="DejaVuSans-61" d="M 2194 1759 
Q 1497 1759 1228 1600 
Q 959 1441 959 1056 
Q 959 750 1161 570 
Q 1363 391 1709 391 
Q 2188 391 2477 730 
Q 2766 1069 2766 1631 
L 2766 1759 
L 2194 1759 
z
M 3341 1997 
L 3341 0 
L 2766 0 
L 2766 531 
Q 2569 213 2275 61 
Q 1981 -91 1556 -91 
Q 1019 -91 701 211 
Q 384 513 384 1019 
Q 384 1609 779 1909 
Q 1175 2209 1959 2209 
L 2766 2209 
L 2766 2266 
Q 2766 2663 2505 2880 
Q 2244 3097 1772 3097 
Q 1472 3097 1187 3025 
Q 903 2953 641 2809 
L 641 3341 
Q 956 3463 1253 3523 
Q 1550 3584 1831 3584 
Q 2591 3584 2966 3190 
Q 3341 2797 3341 1997 
z
" transform="scale(0.015625)"/>
      <path id="DejaVuSans-6d" d="M 3328 2828 
Q 3544 3216 3844 3400 
Q 4144 3584 4550 3584 
Q 5097 3584 5394 3201 
Q 5691 2819 5691 2113 
L 5691 0 
L 5113 0 
L 5113 2094 
Q 5113 2597 4934 2840 
Q 4756 3084 4391 3084 
Q 3944 3084 3684 2787 
Q 3425 2491 3425 1978 
L 3425 0 
L 2847 0 
L 2847 2094 
Q 2847 2600 2669 2842 
Q 2491 3084 2119 3084 
Q 1678 3084 1418 2786 
Q 1159 2488 1159 1978 
L 1159 0 
L 581 0 
L 581 3500 
L 1159 3500 
L 1159 2956 
Q 1356 3278 1631 3431 
Q 1906 3584 2284 3584 
Q 2666 3584 2933 3390 
Q 3200 3197 3328 2828 
z
" transform="scale(0.015625)"/>
      <path id="DejaVuSans-62" d="M 3116 1747 
Q 3116 2381 2855 2742 
Q 2594 3103 2138 3103 
Q 1681 3103 1420 2742 
Q 1159 2381 1159 1747 
Q 1159 1113 1420 752 
Q 1681 391 2138 391 
Q 2594 391 2855 752 
Q 3116 1113 3116 1747 
z
M 1159 2969 
Q 1341 3281 1617 3432 
Q 1894 3584 2278 3584 
Q 2916 3584 3314 3078 
Q 3713 2572 3713 1747 
Q 3713 922 3314 415 
Q 2916 -91 2278 -91 
Q 1894 -91 1617 61 
Q 1341 213 1159 525 
L 1159 0 
L 581 0 
L 581 4863 
L 1159 4863 
L 1159 2969 
z
" transform="scale(0.015625)"/>
      <path id="DejaVuSans-69" d="M 603 3500 
L 1178 3500 
L 1178 0 
L 603 0 
L 603 3500 
z
M 603 4863 
L 1178 4863 
L 1178 4134 
L 603 4134 
L 603 4863 
z
" transform="scale(0.015625)"/>
      <path id="DejaVuSans-63" d="M 3122 3366 
L 3122 2828 
Q 2878 2963 2633 3030 
Q 2388 3097 2138 3097 
Q 1578 3097 1268 2742 
Q 959 2388 959 1747 
Q 959 1106 1268 751 
Q 1578 397 2138 397 
Q 2388 397 2633 464 
Q 2878 531 3122 666 
L 3122 134 
Q 2881 22 2623 -34 
Q 2366 -91 2075 -91 
Q 1284 -91 818 406 
Q 353 903 353 1747 
Q 353 2603 823 3093 
Q 1294 3584 2113 3584 
Q 2378 3584 2631 3529 
Q 2884 3475 3122 3366 
z
" transform="scale(0.015625)"/>
     </defs>
     <use xlink:href="#DejaVuSans-49"/>
     <use xlink:href="#DejaVuSans-61" x="29.492188"/>
     <use xlink:href="#DejaVuSans-6d" x="90.771484"/>
     <use xlink:href="#DejaVuSans-62" x="188.183594"/>
     <use xlink:href="#DejaVuSans-69" x="251.660156"/>
     <use xlink:href="#DejaVuSans-63" x="279.443359"/>
    </g>
   </g>
   <g id="text_14">
    <!-- Parse -->
    <g transform="translate(361.832136 103.604199)scale(0.08 -0.08)">
     <defs>
      <path id="DejaVuSans-72" d="M 2631 2963 
Q 2534 3019 2420 3045 
Q 2306 3072 2169 3072 
Q 1681 3072 1420 2755 
Q 1159 2438 1159 1844 
L 1159 0 
L 581 0 
L 581 3500 
L 1159 3500 
L 1159 2956 
Q 1341 3275 1631 3429 
Q 1922 3584 2338 3584 
Q 2397 3584 2469 3576 
Q 2541 3569 2628 3553 
L 2631 2963 
z
" transform="scale(0.015625)"/>
      <path id="DejaVuSans-73" d="M 2834 3397 
L 2834 2853 
Q 2591 2978 2328 3040 
Q 2066 3103 1784 3103 
Q 1356 3103 1142 2972 
Q 928 2841 928 2578 
Q 928 2378 1081 2264 
Q 1234 2150 1697 2047 
L 1894 2003 
Q 2506 1872 2764 1633 
Q 3022 1394 3022 966 
Q 3022 478 2636 193 
Q 2250 -91 1575 -91 
Q 1294 -91 989 -36 
Q 684 19 347 128 
L 347 722 
Q 666 556 975 473 
Q 1284 391 1588 391 
Q 1994 391 2212 530 
Q 2431 669 2431 922 
Q 2431 1156 2273 1281 
Q 2116 1406 1581 1522 
L 1381 1569 
Q 847 1681 609 1914 
Q 372 2147 372 2553 
Q 372 3047 722 3315 
Q 1072 3584 1716 3584 
Q 2034 3584 2315 3537 
Q 2597 3491 2834 3397 
z
" transform="scale(0.015625)"/>
      <path id="DejaVuSans-65" d="M 3597 1894 
L 3597 1613 
L 953 1613 
Q 991 1019 1311 708 
Q 1631 397 2203 397 
Q 2534 397 2845 478 
Q 3156 559 3463 722 
L 3463 178 
Q 3153 47 2828 -22 
Q 2503 -91 2169 -91 
Q 1331 -91 842 396 
Q 353 884 353 1716 
Q 353 2575 817 3079 
Q 1281 3584 2069 3584 
Q 2775 3584 3186 3129 
Q 3597 2675 3597 1894 
z
M 3022 2063 
Q 3016 2534 2758 2815 
Q 2500 3097 2075 3097 
Q 1594 3097 1305 2825 
Q 1016 2553 972 2059 
L 3022 2063 
z
" transform="scale(0.015625)"/>
     </defs>
     <use xlink:href="#DejaVuSans-50"/>
     <use xlink:href="#DejaVuSans-61" x="55.802734"/>
     <use xlink:href="#DejaVuSans-72" x="117.082031"/>
     <use xlink:href="#DejaVuSans-73" x="158.195312"/>
     <use xlink:href="#DejaVuSans-65" x="210.294922"/>
    </g>
   </g>
   <g id="text_15">
    <!-- FootBin -->
    <g transform="translate(361.832136 100.257572)scale(0.08 -0.08)">
     <defs>
      <path id="DejaVuSans-46" d="M 628 4666 
L 3309 4666 
L 3309 4134 
L 1259 4134 
L 1259 2759 
L 3109 2759 
L 3109 2228 
L 1259 2228 
L 1259 0 
L 628 0 
L 628 4666 
z
" transform="scale(0.015625)"/>
      <path id="DejaVuSans-6f" d="M 1959 3097 
Q 1497 3097 1228 2736 
Q 959 2375 959 1747 
Q 959 1119 1226 758 
Q 1494 397 1959 397 
Q 2419 397 2687 759 
Q 2956 1122 2956 1747 
Q 2956 2369 2687 2733 
Q 2419 3097 1959 3097 
z
M 1959 3584 
Q 2709 3584 3137 3096 
Q 3566 2609 3566 1747 
Q 3566 888 3137 398 
Q 2709 -91 1959 -91 
Q 1206 -91 779 398 
Q 353 888 353 1747 
Q 353 2609 779 3096 
Q 1206 3584 1959 3584 
z
" transform="scale(0.015625)"/>
      <path id="DejaVuSans-74" d="M 1172 4494 
L 1172 3500 
L 2356 3500 
L 2356 3053 
L 1172 3053 
L 1172 1153 
Q 1172 725 1289 603 
Q 1406 481 1766 481 
L 2356 481 
L 2356 0 
L 1766 0 
Q 1100 0 847 248 
Q 594 497 594 1153 
L 594 3053 
L 172 3053 
L 172 3500 
L 594 3500 
L 594 4494 
L 1172 4494 
z
" transform="scale(0.015625)"/>
      <path id="DejaVuSans-42" d="M 1259 2228 
L 1259 519 
L 2272 519 
Q 2781 519 3026 730 
Q 3272 941 3272 1375 
Q 3272 1813 3026 2020 
Q 2781 2228 2272 2228 
L 1259 2228 
z
M 1259 4147 
L 1259 2741 
L 2194 2741 
Q 2656 2741 2882 2914 
Q 3109 3088 3109 3444 
Q 3109 3797 2882 3972 
Q 2656 4147 2194 4147 
L 1259 4147 
z
M 628 4666 
L 2241 4666 
Q 2963 4666 3353 4366 
Q 3744 4066 3744 3513 
Q 3744 3084 3544 2831 
Q 3344 2578 2956 2516 
Q 3422 2416 3680 2098 
Q 3938 1781 3938 1306 
Q 3938 681 3513 340 
Q 3088 0 2303 0 
L 628 0 
L 628 4666 
z
" transform="scale(0.015625)"/>
      <path id="DejaVuSans-6e" d="M 3513 2113 
L 3513 0 
L 2938 0 
L 2938 2094 
Q 2938 2591 2744 2837 
Q 2550 3084 2163 3084 
Q 1697 3084 1428 2787 
Q 1159 2491 1159 1978 
L 1159 0 
L 581 0 
L 581 3500 
L 1159 3500 
L 1159 2956 
Q 1366 3272 1645 3428 
Q 1925 3584 2291 3584 
Q 2894 3584 3203 3211 
Q 3513 2838 3513 2113 
z
" transform="scale(0.015625)"/>
     </defs>
     <use xlink:href="#DejaVuSans-46"/>
     <use xlink:href="#DejaVuSans-6f" x="53.894531"/>
     <use xlink:href="#DejaVuSans-6f" x="115.076172"/>
     <use xlink:href="#DejaVuSans-74" x="176.257812"/>
     <use xlink:href="#DejaVuSans-42" x="215.466797"/>
     <use xlink:href="#DejaVuSans-69" x="284.070312"/>
     <use xlink:href="#DejaVuSans-6e" x="311.853516"/>
    </g>
   </g>
   <g id="text_16">
    <!-- WFL -->
    <g transform="translate(361.832136 47.656399)scale(0.08 -0.08)">
     <defs>
      <path id="DejaVuSans-4c" d="M 628 4666 
L 1259 4666 
L 1259 531 
L 3531 531 
L 3531 0 
L 628 0 
L 628 4666 
z
" transform="scale(0.015625)"/>
     </defs>
     <use xlink:href="#DejaVuSans-57"/>
     <use xlink:href="#DejaVuSans-46" x="98.876953"/>
     <use xlink:href="#DejaVuSans-4c" x="156.396484"/>
    </g>
   </g>
   <g id="text_17">
    <!-- WFR -->
    <g transform="translate(361.832136 110.339683)scale(0.08 -0.08)">
     <defs>
      <path id="DejaVuSans-52" d="M 2841 2188 
Q 3044 2119 3236 1894 
Q 3428 1669 3622 1275 
L 4263 0 
L 3584 0 
L 2988 1197 
Q 2756 1666 2539 1819 
Q 2322 1972 1947 1972 
L 1259 1972 
L 1259 0 
L 628 0 
L 628 4666 
L 2053 4666 
Q 2853 4666 3247 4331 
Q 3641 3997 3641 3322 
Q 3641 2881 3436 2590 
Q 3231 2300 2841 2188 
z
M 1259 4147 
L 1259 2491 
L 2053 2491 
Q 2509 2491 2742 2702 
Q 2975 2913 2975 3322 
Q 2975 3731 2742 3939 
Q 2509 4147 2053 4147 
L 1259 4147 
z
" transform="scale(0.015625)"/>
     </defs>
     <use xlink:href="#DejaVuSans-57"/>
     <use xlink:href="#DejaVuSans-46" x="98.876953"/>
     <use xlink:href="#DejaVuSans-52" x="156.396484"/>
    </g>
   </g>
   <g id="text_18">
    <!-- Main-L -->
    <g transform="translate(361.832136 47.418862)scale(0.08 -0.08)">
     <defs>
      <path id="DejaVuSans-4d" d="M 628 4666 
L 1569 4666 
L 2759 1491 
L 3956 4666 
L 4897 4666 
L 4897 0 
L 4281 0 
L 4281 4097 
L 3078 897 
L 2444 897 
L 1241 4097 
L 1241 0 
L 628 0 
L 628 4666 
z
" transform="scale(0.015625)"/>
      <path id="DejaVuSans-2d" d="M 313 2009 
L 1997 2009 
L 1997 1497 
L 313 1497 
L 313 2009 
z
" transform="scale(0.015625)"/>
     </defs>
     <use xlink:href="#DejaVuSans-4d"/>
     <use xlink:href="#DejaVuSans-61" x="86.279297"/>
     <use xlink:href="#DejaVuSans-69" x="147.558594"/>
     <use xlink:href="#DejaVuSans-6e" x="175.341797"/>
     <use xlink:href="#DejaVuSans-2d" x="238.720703"/>
     <use xlink:href="#DejaVuSans-4c" x="274.804688"/>
    </g>
   </g>
   <g id="text_19">
    <!-- Main-R -->
    <g transform="translate(361.832136 113.248188)scale(0.08 -0.08)">
     <use xlink:href="#DejaVuSans-4d"/>
     <use xlink:href="#DejaVuSans-61" x="86.279297"/>
     <use xlink:href="#DejaVuSans-69" x="147.558594"/>
     <use xlink:href="#DejaVuSans-6e" x="175.341797"/>
     <use xlink:href="#DejaVuSans-2d" x="238.720703"/>
     <use xlink:href="#DejaVuSans-52" x="274.804688"/>
    </g>
   </g>
   <g id="text_20">
    <!-- AFL -->
    <g transform="translate(361.832136 107.774287)scale(0.08 -0.08)">
     <defs>
      <path id="DejaVuSans-41" d="M 2188 4044 
L 1331 1722 
L 3047 1722 
L 2188 4044 
z
M 1831 4666 
L 2547 4666 
L 4325 0 
L 3669 0 
L 3244 1197 
L 1141 1197 
L 716 0 
L 50 0 
L 1831 4666 
z
" transform="scale(0.015625)"/>
     </defs>
     <use xlink:href="#DejaVuSans-41"/>
     <use xlink:href="#DejaVuSans-46" x="68.408203"/>
     <use xlink:href="#DejaVuSans-4c" x="125.927734"/>
    </g>
   </g>
   <g id="text_21">
    <!-- AFR -->
    <g transform="translate(361.832136 136.727367)scale(0.08 -0.08)">
     <use xlink:href="#DejaVuSans-41"/>
     <use xlink:href="#DejaVuSans-46" x="68.408203"/>
     <use xlink:href="#DejaVuSans-52" x="125.927734"/>
    </g>
   </g>
   <g id="text_22">
    <!-- Nonfinal -->
    <g transform="translate(361.832136 107.352)scale(0.08 -0.08)">
     <defs>
      <path id="DejaVuSans-4e" d="M 628 4666 
L 1478 4666 
L 3547 763 
L 3547 4666 
L 4159 4666 
L 4159 0 
L 3309 0 
L 1241 3903 
L 1241 0 
L 628 0 
L 628 4666 
z
" transform="scale(0.015625)"/>
      <path id="DejaVuSans-66" d="M 2375 4863 
L 2375 4384 
L 1825 4384 
Q 1516 4384 1395 4259 
Q 1275 4134 1275 3809 
L 1275 3500 
L 2222 3500 
L 2222 3053 
L 1275 3053 
L 1275 0 
L 697 0 
L 697 3053 
L 147 3053 
L 147 3500 
L 697 3500 
L 697 3744 
Q 697 4328 969 4595 
Q 1241 4863 1831 4863 
L 2375 4863 
z
" transform="scale(0.015625)"/>
      <path id="DejaVuSans-6c" d="M 603 4863 
L 1178 4863 
L 1178 0 
L 603 0 
L 603 4863 
z
" transform="scale(0.015625)"/>
     </defs>
     <use xlink:href="#DejaVuSans-4e"/>
     <use xlink:href="#DejaVuSans-6f" x="74.804688"/>
     <use xlink:href="#DejaVuSans-6e" x="135.986328"/>
     <use xlink:href="#DejaVuSans-66" x="199.365234"/>
     <use xlink:href="#DejaVuSans-69" x="234.570312"/>
     <use xlink:href="#DejaVuSans-6e" x="262.353516"/>
     <use xlink:href="#DejaVuSans-61" x="325.732422"/>
     <use xlink:href="#DejaVuSans-6c" x="387.011719"/>
    </g>
   </g>
   <g id="text_23">
    <!-- Trochaic -->
    <g transform="translate(361.832136 46.970182)scale(0.08 -0.08)">
     <defs>
      <path id="DejaVuSans-54" d="M -19 4666 
L 3928 4666 
L 3928 4134 
L 2272 4134 
L 2272 0 
L 1638 0 
L 1638 4134 
L -19 4134 
L -19 4666 
z
" transform="scale(0.015625)"/>
      <path id="DejaVuSans-68" d="M 3513 2113 
L 3513 0 
L 2938 0 
L 2938 2094 
Q 2938 2591 2744 2837 
Q 2550 3084 2163 3084 
Q 1697 3084 1428 2787 
Q 1159 2491 1159 1978 
L 1159 0 
L 581 0 
L 581 4863 
L 1159 4863 
L 1159 2956 
Q 1366 3272 1645 3428 
Q 1925 3584 2291 3584 
Q 2894 3584 3203 3211 
Q 3513 2838 3513 2113 
z
" transform="scale(0.015625)"/>
     </defs>
     <use xlink:href="#DejaVuSans-54"/>
     <use xlink:href="#DejaVuSans-72" x="46.333984"/>
     <use xlink:href="#DejaVuSans-6f" x="85.197266"/>
     <use xlink:href="#DejaVuSans-63" x="146.378906"/>
     <use xlink:href="#DejaVuSans-68" x="201.359375"/>
     <use xlink:href="#DejaVuSans-61" x="264.738281"/>
     <use xlink:href="#DejaVuSans-69" x="326.017578"/>
     <use xlink:href="#DejaVuSans-63" x="353.800781"/>
    </g>
   </g>
  </g>
  <g id="axes_2">
   <g id="patch_7">
    <path d="M 57.6 307.584 
L 414.72 307.584 
L 414.72 186.624 
L 57.6 186.624 
z
" style="fill: #ffffff"/>
   </g>
   <g id="matplotlib.axis_3">
    <g id="xtick_8">
     <g id="line2d_24">
      <g>
       <use xlink:href="#m46938bd8be" x="73.483636" y="307.584" style="stroke: #000000; stroke-width: 0.8"/>
      </g>
     </g>
     <g id="text_24">
      <!-- 0 -->
      <g transform="translate(70.302386 322.182437)scale(0.1 -0.1)">
       <use xlink:href="#DejaVuSans-30"/>
      </g>
     </g>
    </g>
    <g id="xtick_9">
     <g id="line2d_25">
      <g>
       <use xlink:href="#m46938bd8be" x="143.301818" y="307.584" style="stroke: #000000; stroke-width: 0.8"/>
      </g>
     </g>
     <g id="text_25">
      <!-- 200 -->
      <g transform="translate(133.758068 322.182437)scale(0.1 -0.1)">
       <use xlink:href="#DejaVuSans-32"/>
       <use xlink:href="#DejaVuSans-30" x="63.623047"/>
       <use xlink:href="#DejaVuSans-30" x="127.246094"/>
      </g>
     </g>
    </g>
    <g id="xtick_10">
     <g id="line2d_26">
      <g>
       <use xlink:href="#m46938bd8be" x="213.12" y="307.584" style="stroke: #000000; stroke-width: 0.8"/>
      </g>
     </g>
     <g id="text_26">
      <!-- 400 -->
      <g transform="translate(203.57625 322.182437)scale(0.1 -0.1)">
       <use xlink:href="#DejaVuSans-34"/>
       <use xlink:href="#DejaVuSans-30" x="63.623047"/>
       <use xlink:href="#DejaVuSans-30" x="127.246094"/>
      </g>
     </g>
    </g>
    <g id="xtick_11">
     <g id="line2d_27">
      <g>
       <use xlink:href="#m46938bd8be" x="282.938182" y="307.584" style="stroke: #000000; stroke-width: 0.8"/>
      </g>
     </g>
     <g id="text_27">
      <!-- 600 -->
      <g transform="translate(273.394432 322.182437)scale(0.1 -0.1)">
       <use xlink:href="#DejaVuSans-36"/>
       <use xlink:href="#DejaVuSans-30" x="63.623047"/>
       <use xlink:href="#DejaVuSans-30" x="127.246094"/>
      </g>
     </g>
    </g>
    <g id="xtick_12">
     <g id="line2d_28">
      <g>
       <use xlink:href="#m46938bd8be" x="352.756364" y="307.584" style="stroke: #000000; stroke-width: 0.8"/>
      </g>
     </g>
     <g id="text_28">
      <!-- 800 -->
      <g transform="translate(343.212614 322.182437)scale(0.1 -0.1)">
       <defs>
        <path id="DejaVuSans-38" d="M 2034 2216 
Q 1584 2216 1326 1975 
Q 1069 1734 1069 1313 
Q 1069 891 1326 650 
Q 1584 409 2034 409 
Q 2484 409 2743 651 
Q 3003 894 3003 1313 
Q 3003 1734 2745 1975 
Q 2488 2216 2034 2216 
z
M 1403 2484 
Q 997 2584 770 2862 
Q 544 3141 544 3541 
Q 544 4100 942 4425 
Q 1341 4750 2034 4750 
Q 2731 4750 3128 4425 
Q 3525 4100 3525 3541 
Q 3525 3141 3298 2862 
Q 3072 2584 2669 2484 
Q 3125 2378 3379 2068 
Q 3634 1759 3634 1313 
Q 3634 634 3220 271 
Q 2806 -91 2034 -91 
Q 1263 -91 848 271 
Q 434 634 434 1313 
Q 434 1759 690 2068 
Q 947 2378 1403 2484 
z
M 1172 3481 
Q 1172 3119 1398 2916 
Q 1625 2713 2034 2713 
Q 2441 2713 2670 2916 
Q 2900 3119 2900 3481 
Q 2900 3844 2670 4047 
Q 2441 4250 2034 4250 
Q 1625 4250 1398 4047 
Q 1172 3844 1172 3481 
z
" transform="scale(0.015625)"/>
       </defs>
       <use xlink:href="#DejaVuSans-38"/>
       <use xlink:href="#DejaVuSans-30" x="63.623047"/>
       <use xlink:href="#DejaVuSans-30" x="127.246094"/>
      </g>
     </g>
    </g>
   </g>
   <g id="matplotlib.axis_4">
    <g id="ytick_5">
     <g id="line2d_29">
      <g>
       <use xlink:href="#med6321c06c" x="57.6" y="302.095275" style="stroke: #000000; stroke-width: 0.8"/>
      </g>
     </g>
     <g id="text_29">
      <!-- 0 -->
      <g transform="translate(44.2375 305.894494)scale(0.1 -0.1)">
       <use xlink:href="#DejaVuSans-30"/>
      </g>
     </g>
    </g>
    <g id="ytick_6">
     <g id="line2d_30">
      <g>
       <use xlink:href="#med6321c06c" x="57.6" y="278.453282" style="stroke: #000000; stroke-width: 0.8"/>
      </g>
     </g>
     <g id="text_30">
      <!-- 2500 -->
      <g transform="translate(25.15 282.252501)scale(0.1 -0.1)">
       <use xlink:href="#DejaVuSans-32"/>
       <use xlink:href="#DejaVuSans-35" x="63.623047"/>
       <use xlink:href="#DejaVuSans-30" x="127.246094"/>
       <use xlink:href="#DejaVuSans-30" x="190.869141"/>
      </g>
     </g>
    </g>
    <g id="ytick_7">
     <g id="line2d_31">
      <g>
       <use xlink:href="#med6321c06c" x="57.6" y="254.81129" style="stroke: #000000; stroke-width: 0.8"/>
      </g>
     </g>
     <g id="text_31">
      <!-- 5000 -->
      <g transform="translate(25.15 258.610508)scale(0.1 -0.1)">
       <use xlink:href="#DejaVuSans-35"/>
       <use xlink:href="#DejaVuSans-30" x="63.623047"/>
       <use xlink:href="#DejaVuSans-30" x="127.246094"/>
       <use xlink:href="#DejaVuSans-30" x="190.869141"/>
      </g>
     </g>
    </g>
    <g id="ytick_8">
     <g id="line2d_32">
      <g>
       <use xlink:href="#med6321c06c" x="57.6" y="231.169297" style="stroke: #000000; stroke-width: 0.8"/>
      </g>
     </g>
     <g id="text_32">
      <!-- 7500 -->
      <g transform="translate(25.15 234.968516)scale(0.1 -0.1)">
       <defs>
        <path id="DejaVuSans-37" d="M 525 4666 
L 3525 4666 
L 3525 4397 
L 1831 0 
L 1172 0 
L 2766 4134 
L 525 4134 
L 525 4666 
z
" transform="scale(0.015625)"/>
       </defs>
       <use xlink:href="#DejaVuSans-37"/>
       <use xlink:href="#DejaVuSans-35" x="63.623047"/>
       <use xlink:href="#DejaVuSans-30" x="127.246094"/>
       <use xlink:href="#DejaVuSans-30" x="190.869141"/>
      </g>
     </g>
    </g>
    <g id="ytick_9">
     <g id="line2d_33">
      <g>
       <use xlink:href="#med6321c06c" x="57.6" y="207.527304" style="stroke: #000000; stroke-width: 0.8"/>
      </g>
     </g>
     <g id="text_33">
      <!-- 10000 -->
      <g transform="translate(18.7875 211.326523)scale(0.1 -0.1)">
       <use xlink:href="#DejaVuSans-31"/>
       <use xlink:href="#DejaVuSans-30" x="63.623047"/>
       <use xlink:href="#DejaVuSans-30" x="127.246094"/>
       <use xlink:href="#DejaVuSans-30" x="190.869141"/>
       <use xlink:href="#DejaVuSans-30" x="254.492188"/>
      </g>
     </g>
    </g>
   </g>
   <g id="line2d_34">
    <path d="M 73.832727 302.085818 
L 228.48 302.000707 
L 228.829091 301.915596 
L 229.527273 302.085818 
L 231.272727 302.047991 
L 233.018182 302.057448 
L 233.716364 301.99125 
L 234.065455 301.953423 
L 234.414545 302.085818 
L 238.254545 302.066905 
L 240.349091 302.076361 
L 244.189091 302.076361 
L 281.192727 302.076361 
L 281.541818 301.925053 
L 281.890909 302.076361 
L 282.938182 302.038534 
L 283.985455 302.076361 
L 317.498182 302.085818 
L 318.196364 301.858855 
L 318.545455 302.066905 
L 323.083636 302.085818 
L 324.829091 302.057448 
L 326.225455 302.085818 
L 332.509091 302.066905 
L 332.858182 301.934509 
L 333.556364 302.085818 
L 334.952727 302.047991 
L 338.094545 302.038534 
L 339.141818 301.972337 
L 339.84 302.085818 
L 340.538182 302.047991 
L 341.934545 302.085818 
L 346.472727 302.066905 
L 347.869091 302.085818 
L 349.265455 302.010164 
L 349.963636 302.076361 
L 354.501818 302.076361 
L 354.850909 301.839941 
L 355.549091 302.038534 
L 356.247273 302.085818 
L 356.945455 302.000707 
L 357.294545 302.085818 
L 357.992727 302.019621 
L 359.04 302.085818 
L 361.134545 302.038534 
L 361.483636 301.849398 
L 361.832727 302.076361 
L 366.370909 302.057448 
L 368.116364 302.085818 
L 368.465455 301.99125 
L 368.814545 302.057448 
L 369.163636 301.99125 
L 370.210909 302.085818 
L 372.654545 302.047991 
L 373.003636 301.915596 
L 373.352727 302.085818 
L 375.796364 302.057448 
L 376.494545 302.047991 
L 376.843636 301.868312 
L 377.192727 302.066905 
L 378.24 302.019621 
L 378.589091 301.764287 
L 378.938182 301.99125 
L 379.287273 302.076361 
L 379.636364 301.565694 
L 379.985455 301.981793 
L 380.334545 301.650806 
L 380.683636 301.896682 
L 381.032727 301.802114 
L 381.730909 302.076361 
L 382.08 301.953423 
L 382.429091 301.480583 
L 382.778182 302.047991 
L 383.127273 301.839941 
L 383.476364 301.877769 
L 383.825455 302.085818 
L 384.523636 301.537324 
L 384.872727 301.887225 
L 385.221818 301.764287 
L 385.570909 302.076361 
L 385.92 301.111768 
L 386.618182 301.821028 
L 386.967273 301.934509 
L 387.316364 299.986409 
L 387.665455 301.499497 
L 388.014545 300.78078 
L 388.363636 299.77836 
L 388.712727 301.187422 
L 389.061818 302.047991 
L 389.410909 300.846978 
L 389.76 301.319818 
L 390.109091 300.156632 
L 390.458182 299.797273 
L 390.807273 296.544135 
L 391.156364 299.712162 
L 391.505455 283.200594 
L 391.854545 301.887225 
L 392.203636 292.316947 
L 392.552727 289.631216 
L 392.901818 300.638928 
L 393.250909 288.137042 
L 393.6 301.943966 
L 393.949091 290.83223 
L 394.298182 300.894262 
L 394.647273 301.622435 
L 394.996364 273.630316 
L 395.345455 277.10096 
L 396.043636 192.122182 
L 396.392727 281.025531 
L 397.090909 264.674729 
L 397.44 223.405267 
L 397.789091 245.278838 
L 398.138182 295.749764 
L 398.487273 298.86105 
L 398.487273 298.86105 
" clip-path="url(#pa6d141357b)" style="fill: none; stroke: #1f77b4; stroke-width: 1.5; stroke-linecap: square"/>
   </g>
   <g id="patch_8">
    <path d="M 57.6 307.584 
L 57.6 186.624 
" style="fill: none; stroke: #000000; stroke-width: 0.8; stroke-linejoin: miter; stroke-linecap: square"/>
   </g>
   <g id="patch_9">
    <path d="M 414.72 307.584 
L 414.72 186.624 
" style="fill: none; stroke: #000000; stroke-width: 0.8; stroke-linejoin: miter; stroke-linecap: square"/>
   </g>
   <g id="patch_10">
    <path d="M 57.6 307.584 
L 414.72 307.584 
" style="fill: none; stroke: #000000; stroke-width: 0.8; stroke-linejoin: miter; stroke-linecap: square"/>
   </g>
   <g id="patch_11">
    <path d="M 57.6 186.624 
L 414.72 186.624 
" style="fill: none; stroke: #000000; stroke-width: 0.8; stroke-linejoin: miter; stroke-linecap: square"/>
   </g>
  </g>
 </g>
 <defs>
  <clipPath id="p3fbfae1494">
   <rect x="57.6" y="41.472" width="357.12" height="120.96"/>
  </clipPath>
  <clipPath id="pa6d141357b">
   <rect x="57.6" y="186.624" width="357.12" height="120.96"/>
  </clipPath>
 </defs>
</svg>
