<?xml version="1.0" encoding="utf-8" standalone="no"?>
<!DOCTYPE svg PUBLIC "-//W3C//DTD SVG 1.1//EN"
  "http://www.w3.org/Graphics/SVG/1.1/DTD/svg11.dtd">
<svg xmlns:xlink="http://www.w3.org/1999/xlink" width="460.8pt" height="345.6pt" viewBox="0 0 460.8 345.6" xmlns="http://www.w3.org/2000/svg" version="1.1">
 <metadata>
  <rdf:RDF xmlns:dc="http://purl.org/dc/elements/1.1/" xmlns:cc="http://creativecommons.org/ns#" xmlns:rdf="http://www.w3.org/1999/02/22-rdf-syntax-ns#">
   <cc:Work>
    <dc:type rdf:resource="http://purl.org/dc/dcmitype/StillImage"/>
    <dc:date>2022-05-14T01:43:53.749645</dc:date>
    <dc:format>image/svg+xml</dc:format>
    <dc:creator>
     <cc:Agent>
      <dc:title>Matplotlib v3.5.1, https://matplotlib.org/</dc:title>
     </cc:Agent>
    </dc:creator>
   </cc:Work>
  </rdf:RDF>
 </metadata>
 <defs>
  <style type="text/css">*{stroke-linejoin: round; stroke-linecap: butt}</style>
 </defs>
 <g id="figure_1">
  <g id="patch_1">
   <path d="M 0 345.6 
L 460.8 345.6 
L 460.8 0 
L 0 0 
z
" style="fill: #ffffff"/>
  </g>
  <g id="axes_1">
   <g id="patch_2">
    <path d="M 57.6 162.432 
L 414.72 162.432 
L 414.72 41.472 
L 57.6 41.472 
z
" style="fill: #ffffff"/>
   </g>
   <g id="matplotlib.axis_1">
    <g id="xtick_1">
     <g id="line2d_1">
      <defs>
       <path id="mbf09381a24" d="M 0 0 
L 0 3.5 
" style="stroke: #000000; stroke-width: 0.8"/>
      </defs>
      <g>
       <use xlink:href="#mbf09381a24" x="73.827491" y="162.432" style="stroke: #000000; stroke-width: 0.8"/>
      </g>
     </g>
     <g id="text_1">
      <!-- 0 -->
      <g transform="translate(70.646241 177.030437)scale(0.1 -0.1)">
       <defs>
        <path id="DejaVuSans-30" d="M 2034 4250 
Q 1547 4250 1301 3770 
Q 1056 3291 1056 2328 
Q 1056 1369 1301 889 
Q 1547 409 2034 409 
Q 2525 409 2770 889 
Q 3016 1369 3016 2328 
Q 3016 3291 2770 3770 
Q 2525 4250 2034 4250 
z
M 2034 4750 
Q 2819 4750 3233 4129 
Q 3647 3509 3647 2328 
Q 3647 1150 3233 529 
Q 2819 -91 2034 -91 
Q 1250 -91 836 529 
Q 422 1150 422 2328 
Q 422 3509 836 4129 
Q 1250 4750 2034 4750 
z
" transform="scale(0.015625)"/>
       </defs>
       <use xlink:href="#DejaVuSans-30"/>
      </g>
     </g>
    </g>
    <g id="xtick_2">
     <g id="line2d_2">
      <g>
       <use xlink:href="#mbf09381a24" x="126.191972" y="162.432" style="stroke: #000000; stroke-width: 0.8"/>
      </g>
     </g>
     <g id="text_2">
      <!-- 10000 -->
      <g transform="translate(110.285722 177.030437)scale(0.1 -0.1)">
       <defs>
        <path id="DejaVuSans-31" d="M 794 531 
L 1825 531 
L 1825 4091 
L 703 3866 
L 703 4441 
L 1819 4666 
L 2450 4666 
L 2450 531 
L 3481 531 
L 3481 0 
L 794 0 
L 794 531 
z
" transform="scale(0.015625)"/>
       </defs>
       <use xlink:href="#DejaVuSans-31"/>
       <use xlink:href="#DejaVuSans-30" x="63.623047"/>
       <use xlink:href="#DejaVuSans-30" x="127.246094"/>
       <use xlink:href="#DejaVuSans-30" x="190.869141"/>
       <use xlink:href="#DejaVuSans-30" x="254.492188"/>
      </g>
     </g>
    </g>
    <g id="xtick_3">
     <g id="line2d_3">
      <g>
       <use xlink:href="#mbf09381a24" x="178.556453" y="162.432" style="stroke: #000000; stroke-width: 0.8"/>
      </g>
     </g>
     <g id="text_3">
      <!-- 20000 -->
      <g transform="translate(162.650203 177.030437)scale(0.1 -0.1)">
       <defs>
        <path id="DejaVuSans-32" d="M 1228 531 
L 3431 531 
L 3431 0 
L 469 0 
L 469 531 
Q 828 903 1448 1529 
Q 2069 2156 2228 2338 
Q 2531 2678 2651 2914 
Q 2772 3150 2772 3378 
Q 2772 3750 2511 3984 
Q 2250 4219 1831 4219 
Q 1534 4219 1204 4116 
Q 875 4013 500 3803 
L 500 4441 
Q 881 4594 1212 4672 
Q 1544 4750 1819 4750 
Q 2544 4750 2975 4387 
Q 3406 4025 3406 3419 
Q 3406 3131 3298 2873 
Q 3191 2616 2906 2266 
Q 2828 2175 2409 1742 
Q 1991 1309 1228 531 
z
" transform="scale(0.015625)"/>
       </defs>
       <use xlink:href="#DejaVuSans-32"/>
       <use xlink:href="#DejaVuSans-30" x="63.623047"/>
       <use xlink:href="#DejaVuSans-30" x="127.246094"/>
       <use xlink:href="#DejaVuSans-30" x="190.869141"/>
       <use xlink:href="#DejaVuSans-30" x="254.492188"/>
      </g>
     </g>
    </g>
    <g id="xtick_4">
     <g id="line2d_4">
      <g>
       <use xlink:href="#mbf09381a24" x="230.920934" y="162.432" style="stroke: #000000; stroke-width: 0.8"/>
      </g>
     </g>
     <g id="text_4">
      <!-- 30000 -->
      <g transform="translate(215.014684 177.030437)scale(0.1 -0.1)">
       <defs>
        <path id="DejaVuSans-33" d="M 2597 2516 
Q 3050 2419 3304 2112 
Q 3559 1806 3559 1356 
Q 3559 666 3084 287 
Q 2609 -91 1734 -91 
Q 1441 -91 1130 -33 
Q 819 25 488 141 
L 488 750 
Q 750 597 1062 519 
Q 1375 441 1716 441 
Q 2309 441 2620 675 
Q 2931 909 2931 1356 
Q 2931 1769 2642 2001 
Q 2353 2234 1838 2234 
L 1294 2234 
L 1294 2753 
L 1863 2753 
Q 2328 2753 2575 2939 
Q 2822 3125 2822 3475 
Q 2822 3834 2567 4026 
Q 2313 4219 1838 4219 
Q 1578 4219 1281 4162 
Q 984 4106 628 3988 
L 628 4550 
Q 988 4650 1302 4700 
Q 1616 4750 1894 4750 
Q 2613 4750 3031 4423 
Q 3450 4097 3450 3541 
Q 3450 3153 3228 2886 
Q 3006 2619 2597 2516 
z
" transform="scale(0.015625)"/>
       </defs>
       <use xlink:href="#DejaVuSans-33"/>
       <use xlink:href="#DejaVuSans-30" x="63.623047"/>
       <use xlink:href="#DejaVuSans-30" x="127.246094"/>
       <use xlink:href="#DejaVuSans-30" x="190.869141"/>
       <use xlink:href="#DejaVuSans-30" x="254.492188"/>
      </g>
     </g>
    </g>
    <g id="xtick_5">
     <g id="line2d_5">
      <g>
       <use xlink:href="#mbf09381a24" x="283.285415" y="162.432" style="stroke: #000000; stroke-width: 0.8"/>
      </g>
     </g>
     <g id="text_5">
      <!-- 40000 -->
      <g transform="translate(267.379165 177.030437)scale(0.1 -0.1)">
       <defs>
        <path id="DejaVuSans-34" d="M 2419 4116 
L 825 1625 
L 2419 1625 
L 2419 4116 
z
M 2253 4666 
L 3047 4666 
L 3047 1625 
L 3713 1625 
L 3713 1100 
L 3047 1100 
L 3047 0 
L 2419 0 
L 2419 1100 
L 313 1100 
L 313 1709 
L 2253 4666 
z
" transform="scale(0.015625)"/>
       </defs>
       <use xlink:href="#DejaVuSans-34"/>
       <use xlink:href="#DejaVuSans-30" x="63.623047"/>
       <use xlink:href="#DejaVuSans-30" x="127.246094"/>
       <use xlink:href="#DejaVuSans-30" x="190.869141"/>
       <use xlink:href="#DejaVuSans-30" x="254.492188"/>
      </g>
     </g>
    </g>
    <g id="xtick_6">
     <g id="line2d_6">
      <g>
       <use xlink:href="#mbf09381a24" x="335.649896" y="162.432" style="stroke: #000000; stroke-width: 0.8"/>
      </g>
     </g>
     <g id="text_6">
      <!-- 50000 -->
      <g transform="translate(319.743646 177.030437)scale(0.1 -0.1)">
       <defs>
        <path id="DejaVuSans-35" d="M 691 4666 
L 3169 4666 
L 3169 4134 
L 1269 4134 
L 1269 2991 
Q 1406 3038 1543 3061 
Q 1681 3084 1819 3084 
Q 2600 3084 3056 2656 
Q 3513 2228 3513 1497 
Q 3513 744 3044 326 
Q 2575 -91 1722 -91 
Q 1428 -91 1123 -41 
Q 819 9 494 109 
L 494 744 
Q 775 591 1075 516 
Q 1375 441 1709 441 
Q 2250 441 2565 725 
Q 2881 1009 2881 1497 
Q 2881 1984 2565 2268 
Q 2250 2553 1709 2553 
Q 1456 2553 1204 2497 
Q 953 2441 691 2322 
L 691 4666 
z
" transform="scale(0.015625)"/>
       </defs>
       <use xlink:href="#DejaVuSans-35"/>
       <use xlink:href="#DejaVuSans-30" x="63.623047"/>
       <use xlink:href="#DejaVuSans-30" x="127.246094"/>
       <use xlink:href="#DejaVuSans-30" x="190.869141"/>
       <use xlink:href="#DejaVuSans-30" x="254.492188"/>
      </g>
     </g>
    </g>
    <g id="xtick_7">
     <g id="line2d_7">
      <g>
       <use xlink:href="#mbf09381a24" x="388.014377" y="162.432" style="stroke: #000000; stroke-width: 0.8"/>
      </g>
     </g>
     <g id="text_7">
      <!-- 60000 -->
      <g transform="translate(372.108127 177.030437)scale(0.1 -0.1)">
       <defs>
        <path id="DejaVuSans-36" d="M 2113 2584 
Q 1688 2584 1439 2293 
Q 1191 2003 1191 1497 
Q 1191 994 1439 701 
Q 1688 409 2113 409 
Q 2538 409 2786 701 
Q 3034 994 3034 1497 
Q 3034 2003 2786 2293 
Q 2538 2584 2113 2584 
z
M 3366 4563 
L 3366 3988 
Q 3128 4100 2886 4159 
Q 2644 4219 2406 4219 
Q 1781 4219 1451 3797 
Q 1122 3375 1075 2522 
Q 1259 2794 1537 2939 
Q 1816 3084 2150 3084 
Q 2853 3084 3261 2657 
Q 3669 2231 3669 1497 
Q 3669 778 3244 343 
Q 2819 -91 2113 -91 
Q 1303 -91 875 529 
Q 447 1150 447 2328 
Q 447 3434 972 4092 
Q 1497 4750 2381 4750 
Q 2619 4750 2861 4703 
Q 3103 4656 3366 4563 
z
" transform="scale(0.015625)"/>
       </defs>
       <use xlink:href="#DejaVuSans-36"/>
       <use xlink:href="#DejaVuSans-30" x="63.623047"/>
       <use xlink:href="#DejaVuSans-30" x="127.246094"/>
       <use xlink:href="#DejaVuSans-30" x="190.869141"/>
       <use xlink:href="#DejaVuSans-30" x="254.492188"/>
      </g>
     </g>
    </g>
   </g>
   <g id="matplotlib.axis_2">
    <g id="ytick_1">
     <g id="line2d_8">
      <defs>
       <path id="mf1770b368e" d="M 0 0 
L -3.5 0 
" style="stroke: #000000; stroke-width: 0.8"/>
      </defs>
      <g>
       <use xlink:href="#mf1770b368e" x="57.6" y="135.650534" style="stroke: #000000; stroke-width: 0.8"/>
      </g>
     </g>
     <g id="text_8">
      <!-- 60 -->
      <g transform="translate(37.875 139.449752)scale(0.1 -0.1)">
       <use xlink:href="#DejaVuSans-36"/>
       <use xlink:href="#DejaVuSans-30" x="63.623047"/>
      </g>
     </g>
    </g>
    <g id="ytick_2">
     <g id="line2d_9">
      <g>
       <use xlink:href="#mf1770b368e" x="57.6" y="96.953653" style="stroke: #000000; stroke-width: 0.8"/>
      </g>
     </g>
     <g id="text_9">
      <!-- 80 -->
      <g transform="translate(37.875 100.752872)scale(0.1 -0.1)">
       <defs>
        <path id="DejaVuSans-38" d="M 2034 2216 
Q 1584 2216 1326 1975 
Q 1069 1734 1069 1313 
Q 1069 891 1326 650 
Q 1584 409 2034 409 
Q 2484 409 2743 651 
Q 3003 894 3003 1313 
Q 3003 1734 2745 1975 
Q 2488 2216 2034 2216 
z
M 1403 2484 
Q 997 2584 770 2862 
Q 544 3141 544 3541 
Q 544 4100 942 4425 
Q 1341 4750 2034 4750 
Q 2731 4750 3128 4425 
Q 3525 4100 3525 3541 
Q 3525 3141 3298 2862 
Q 3072 2584 2669 2484 
Q 3125 2378 3379 2068 
Q 3634 1759 3634 1313 
Q 3634 634 3220 271 
Q 2806 -91 2034 -91 
Q 1263 -91 848 271 
Q 434 634 434 1313 
Q 434 1759 690 2068 
Q 947 2378 1403 2484 
z
M 1172 3481 
Q 1172 3119 1398 2916 
Q 1625 2713 2034 2713 
Q 2441 2713 2670 2916 
Q 2900 3119 2900 3481 
Q 2900 3844 2670 4047 
Q 2441 4250 2034 4250 
Q 1625 4250 1398 4047 
Q 1172 3844 1172 3481 
z
" transform="scale(0.015625)"/>
       </defs>
       <use xlink:href="#DejaVuSans-38"/>
       <use xlink:href="#DejaVuSans-30" x="63.623047"/>
      </g>
     </g>
    </g>
    <g id="ytick_3">
     <g id="line2d_10">
      <g>
       <use xlink:href="#mf1770b368e" x="57.6" y="58.256772" style="stroke: #000000; stroke-width: 0.8"/>
      </g>
     </g>
     <g id="text_10">
      <!-- 100 -->
      <g transform="translate(31.5125 62.055991)scale(0.1 -0.1)">
       <use xlink:href="#DejaVuSans-31"/>
       <use xlink:href="#DejaVuSans-30" x="63.623047"/>
       <use xlink:href="#DejaVuSans-30" x="127.246094"/>
      </g>
     </g>
    </g>
   </g>
   <g id="line2d_11">
    <path d="M 73.832727 58.256772 
L 73.953166 67.608518 
L 73.963638 66.641096 
L 73.968875 66.641096 
L 74.000294 65.028726 
L 74.042185 67.930992 
L 74.063131 67.930992 
L 74.188806 75.02542 
L 74.288298 75.02542 
L 74.372081 78.895109 
L 74.4035 77.282738 
L 74.429682 77.282738 
L 74.529175 83.087271 
L 74.550121 82.119849 
L 74.618194 82.119849 
L 74.733396 81.474901 
L 74.81718 81.474901 
L 74.885253 80.185005 
L 74.89049 82.119849 
L 74.921908 82.119849 
L 75.194204 82.119849 
L 75.309406 84.054693 
L 75.403662 84.054693 
L 75.518864 85.989537 
L 76.032035 85.989537 
L 76.147237 87.924381 
L 76.225784 87.924381 
L 76.346222 86.634485 
L 76.356695 86.634485 
L 76.477134 90.504173 
L 76.534734 90.504173 
L 76.649936 89.859225 
L 76.71801 89.859225 
L 76.833212 91.794069 
L 77.870029 91.794069 
L 77.985231 91.149121 
L 78.665969 91.149121 
L 78.781171 93.083965 
L 80.907169 93.083965 
L 81.022371 92.439017 
L 81.404631 92.439017 
L 81.519833 91.794069 
L 82.425739 91.794069 
L 82.54094 93.728913 
L 82.787054 93.728913 
L 82.902255 93.083965 
L 83.043639 93.083965 
L 83.080295 92.116543 
L 83.085531 94.051387 
L 83.148368 94.051387 
L 85.389568 94.051387 
L 85.50477 95.986231 
L 85.6671 95.986231 
L 85.782302 95.018809 
L 85.90274 95.018809 
L 86.017942 96.953653 
L 90.091899 96.953653 
L 90.2071 98.888497 
L 94.883249 98.888497 
L 94.99845 100.823341 
L 99.601288 100.823341 
L 99.71649 100.178393 
L 103.120181 100.178393 
L 103.183019 102.113237 
L 103.230147 101.145815 
L 113.001359 101.145815 
L 113.116561 103.080659 
L 116.56738 103.080659 
L 116.682582 102.435711 
L 122.269872 102.435711 
L 122.385074 101.790763 
L 123.013448 101.790763 
L 123.12865 103.725607 
L 131.73737 103.725607 
L 131.852572 105.660451 
L 160.218411 105.660451 
L 160.333613 105.015503 
L 167.360927 105.015503 
L 167.476129 106.950347 
L 168.560073 106.950347 
L 168.675275 108.885191 
L 171.508194 108.885191 
L 171.623395 110.820035 
L 172.393153 110.820035 
L 172.508355 110.175087 
L 220.301417 110.175087 
L 220.416619 109.207665 
L 255.223289 109.207665 
L 255.338491 108.240243 
L 258.134754 108.240243 
L 258.249956 107.595295 
L 266.94246 107.595295 
L 267.057662 109.530139 
L 284.285576 109.530139 
L 284.400778 111.464983 
L 398.487273 111.464983 
L 398.487273 111.464983 
" clip-path="url(#pdf4dfdae62)" style="fill: none; stroke: #1f77b4; stroke-width: 1.5; stroke-linecap: square"/>
   </g>
   <g id="line2d_12">
    <path d="M 73.832727 60.191616 
L 73.979348 75.186657 
L 74.000294 75.186657 
L 74.125968 80.99119 
L 74.173096 80.99119 
L 74.293535 84.860878 
L 74.31448 84.860878 
L 74.440155 90.66541 
L 74.822416 90.66541 
L 74.937618 92.600254 
L 74.942854 92.600254 
L 75.058056 94.535098 
L 75.115657 94.535098 
L 75.230859 96.469942 
L 76.225784 96.469942 
L 76.346222 100.33963 
L 76.356695 100.33963 
L 76.471897 102.274474 
L 76.534734 102.274474 
L 76.655173 106.144162 
L 77.870029 106.144162 
L 77.985231 108.079006 
L 78.665969 108.079006 
L 78.781171 110.01385 
L 79.262924 110.01385 
L 79.378126 111.948694 
L 80.907169 111.948694 
L 81.022371 113.883538 
L 81.404631 113.883538 
L 81.519833 115.818382 
L 82.787054 115.818382 
L 82.902255 117.753226 
L 85.90274 117.753226 
L 86.017942 119.68807 
L 86.908138 119.68807 
L 87.02334 121.622914 
L 99.601288 121.622914 
L 99.71649 123.557758 
L 116.56738 123.557758 
L 116.682582 125.492603 
L 122.269872 125.492603 
L 122.385074 124.847654 
L 123.013448 124.847654 
L 123.12865 126.782499 
L 132.391926 126.782499 
L 132.507128 128.717343 
L 167.360927 128.717343 
L 167.476129 130.652187 
L 258.134754 130.652187 
L 258.249956 132.587031 
L 284.285576 132.587031 
L 284.400778 134.521875 
L 398.487273 134.521875 
L 398.487273 134.521875 
" clip-path="url(#pdf4dfdae62)" style="fill: none; stroke: #ff7f0e; stroke-width: 1.5; stroke-linecap: square"/>
   </g>
   <g id="line2d_13">
    <path d="M 73.832727 57.773061 
L 73.869382 60.191616 
L 73.900801 56.644402 
L 73.937456 56.644402 
L 73.968875 56.644402 
L 74.042185 54.06461 
L 74.068367 57.934298 
L 74.084077 57.934298 
L 74.09455 58.90172 
L 74.199279 56.321928 
L 74.288298 56.321928 
L 74.31448 60.191616 
L 74.398264 57.611824 
L 74.482047 57.611824 
L 74.529175 59.546668 
L 74.592012 58.579246 
L 74.618194 58.579246 
L 74.681032 57.934298 
L 74.686268 59.869142 
L 74.717687 59.869142 
L 74.81718 59.869142 
L 74.885253 58.579246 
L 74.89049 60.51409 
L 74.921908 60.51409 
L 74.942854 60.51409 
L 75.058056 59.546668 
L 75.115657 59.546668 
L 75.194204 57.611824 
L 75.225622 59.546668 
L 75.403662 59.546668 
L 75.518864 61.481512 
L 75.586937 61.481512 
L 75.702139 60.51409 
L 76.032035 60.51409 
L 76.147237 62.448934 
L 76.225784 62.448934 
L 76.283385 61.803986 
L 76.288621 63.73883 
L 76.325277 63.73883 
L 76.340986 63.73883 
L 76.456188 63.093882 
L 76.534734 63.093882 
L 76.608045 62.448934 
L 76.613281 64.383778 
L 76.634227 64.383778 
L 76.6447 64.383778 
L 76.759902 62.448934 
L 77.870029 62.448934 
L 77.985231 61.803986 
L 79.095358 61.803986 
L 79.210559 63.73883 
L 79.262924 63.73883 
L 79.378126 62.771408 
L 80.907169 62.771408 
L 81.022371 62.12646 
L 81.404631 62.12646 
L 81.519833 61.481512 
L 82.787054 61.481512 
L 82.902255 60.836564 
L 83.043639 60.836564 
L 83.080295 59.869142 
L 83.085531 61.803986 
L 83.148368 61.803986 
L 85.389568 61.803986 
L 85.50477 63.73883 
L 85.6671 63.73883 
L 85.782302 62.771408 
L 86.908138 62.771408 
L 87.02334 61.803986 
L 90.091899 61.803986 
L 90.2071 63.73883 
L 93.993052 63.73883 
L 94.108254 62.771408 
L 99.601288 62.771408 
L 99.71649 62.12646 
L 103.120181 62.12646 
L 103.183019 64.061304 
L 103.230147 63.093882 
L 113.001359 63.093882 
L 113.116561 65.028726 
L 116.143228 65.028726 
L 116.25843 66.96357 
L 116.56738 66.96357 
L 116.682582 66.318622 
L 122.269872 66.318622 
L 122.385074 65.673674 
L 132.391926 65.673674 
L 132.507128 63.73883 
L 141.875134 63.73883 
L 141.990336 65.673674 
L 160.218411 65.673674 
L 160.333613 65.028726 
L 168.560073 65.028726 
L 168.675275 66.96357 
L 171.508194 66.96357 
L 171.623395 68.898414 
L 172.393153 68.898414 
L 172.508355 68.253466 
L 173.634192 68.253466 
L 173.749393 67.286044 
L 255.223289 67.286044 
L 255.338491 66.318622 
L 258.134754 66.318622 
L 258.249956 65.673674 
L 266.94246 65.673674 
L 267.057662 67.608518 
L 398.487273 67.608518 
L 398.487273 67.608518 
" clip-path="url(#pdf4dfdae62)" style="fill: none; stroke: #2ca02c; stroke-width: 1.5; stroke-linecap: square"/>
   </g>
   <g id="line2d_14">
    <path d="M 73.832727 58.256772 
L 73.963638 56.741144 
L 74.036949 56.741144 
L 74.162624 55.096527 
L 74.288298 55.096527 
L 74.408737 54.322589 
L 74.482047 54.322589 
L 74.597249 53.93562 
L 74.681032 53.93562 
L 74.796234 53.548652 
L 74.885253 53.548652 
L 75.000455 53.161683 
L 75.194204 53.161683 
L 75.309406 52.774714 
L 75.403662 52.774714 
L 75.518864 52.387745 
L 76.032035 52.387745 
L 76.147237 52.000776 
L 76.283385 52.000776 
L 76.398587 51.613808 
L 76.608045 51.613808 
L 76.723247 51.226839 
L 79.095358 51.226839 
L 79.210559 50.83987 
L 83.080295 50.83987 
L 83.195496 50.452901 
L 85.389568 50.452901 
L 85.50477 50.065932 
L 90.091899 50.065932 
L 90.2071 49.678963 
L 103.120181 49.678963 
L 103.235383 49.291995 
L 113.001359 49.291995 
L 113.116561 48.905026 
L 116.143228 48.905026 
L 116.25843 48.518057 
L 141.875134 48.518057 
L 141.990336 48.131088 
L 168.560073 48.131088 
L 168.675275 47.744119 
L 171.508194 47.744119 
L 171.623395 47.357151 
L 266.94246 47.357151 
L 267.057662 46.970182 
L 398.487273 46.970182 
L 398.487273 46.970182 
" clip-path="url(#pdf4dfdae62)" style="fill: none; stroke: #d62728; stroke-width: 1.5; stroke-linecap: square"/>
   </g>
   <g id="line2d_15">
    <path d="M 73.832727 58.256772 
L 73.8432 58.256772 
L 73.958402 57.773061 
L 398.487273 57.773061 
L 398.487273 57.773061 
" clip-path="url(#pdf4dfdae62)" style="fill: none; stroke: #9467bd; stroke-width: 1.5; stroke-linecap: square"/>
   </g>
   <g id="line2d_16">
    <path d="M 73.832727 57.773061 
L 73.837964 59.707905 
L 73.942693 58.095535 
L 73.979348 58.095535 
L 74.042185 57.450587 
L 74.047422 59.385431 
L 74.063131 59.385431 
L 74.183569 63.577593 
L 74.288298 63.577593 
L 74.377318 68.414703 
L 74.408737 67.769755 
L 74.482047 67.769755 
L 74.602485 71.639443 
L 74.618194 71.639443 
L 74.681032 70.994495 
L 74.686268 72.929339 
L 74.717687 72.929339 
L 74.796234 72.929339 
L 74.911436 75.509131 
L 74.942854 75.509131 
L 75.058056 74.541709 
L 75.194204 74.541709 
L 75.309406 76.476553 
L 75.403662 76.476553 
L 75.518864 78.411397 
L 75.586937 78.411397 
L 75.702139 77.443975 
L 76.032035 77.443975 
L 76.147237 79.37882 
L 76.225784 79.37882 
L 76.283385 78.733872 
L 76.288621 80.668716 
L 76.325277 80.668716 
L 76.340986 80.668716 
L 76.445715 80.023768 
L 76.534734 81.958612 
L 76.55568 81.313664 
L 76.608045 81.313664 
L 76.723247 83.248508 
L 77.870029 83.248508 
L 77.985231 82.60356 
L 79.095358 82.60356 
L 79.210559 84.538404 
L 79.262924 84.538404 
L 79.378126 83.570982 
L 79.582347 83.570982 
L 79.697549 85.505826 
L 80.907169 85.505826 
L 81.022371 84.860878 
L 81.404631 84.860878 
L 81.519833 84.21593 
L 81.964931 84.21593 
L 82.080133 86.150774 
L 82.425739 86.150774 
L 82.54094 88.085618 
L 82.787054 88.085618 
L 82.902255 87.44067 
L 83.080295 87.44067 
L 83.195496 89.375514 
L 85.389568 89.375514 
L 85.50477 91.310358 
L 86.908138 91.310358 
L 87.02334 90.342936 
L 90.091899 90.342936 
L 90.2071 92.27778 
L 93.993052 92.27778 
L 94.108254 91.310358 
L 94.883249 91.310358 
L 94.99845 93.245202 
L 99.601288 93.245202 
L 99.71649 92.600254 
L 103.120181 92.600254 
L 103.235383 94.535098 
L 113.001359 94.535098 
L 113.116561 96.469942 
L 116.143228 96.469942 
L 116.25843 98.404786 
L 116.56738 98.404786 
L 116.682582 97.759838 
L 126.328119 97.759838 
L 126.443321 99.694682 
L 131.73737 99.694682 
L 131.852572 101.629526 
L 141.875134 101.629526 
L 141.990336 103.56437 
L 160.218411 103.56437 
L 160.333613 102.919422 
L 168.560073 102.919422 
L 168.675275 104.854266 
L 171.508194 104.854266 
L 171.623395 106.78911 
L 172.393153 106.78911 
L 172.508355 106.144162 
L 173.634192 106.144162 
L 173.749393 105.17674 
L 258.134754 105.17674 
L 258.249956 104.531792 
L 266.94246 104.531792 
L 267.057662 106.466636 
L 310.630147 106.466636 
L 310.745348 108.40148 
L 398.487273 108.40148 
L 398.487273 108.40148 
" clip-path="url(#pdf4dfdae62)" style="fill: none; stroke: #8c564b; stroke-width: 1.5; stroke-linecap: square"/>
   </g>
   <g id="line2d_17">
    <path d="M 73.832727 58.256772 
L 73.958402 56.902381 
L 398.487273 56.902381 
L 398.487273 56.902381 
" clip-path="url(#pdf4dfdae62)" style="fill: none; stroke: #e377c2; stroke-width: 1.5; stroke-linecap: square"/>
   </g>
   <g id="line2d_18">
    <path d="M 73.832727 58.256772 
L 73.974111 71.316969 
L 74.016003 71.316969 
L 74.141678 77.411728 
L 74.288298 77.411728 
L 74.408737 76.63779 
L 74.482047 76.63779 
L 74.513466 76.250822 
L 74.518702 78.185666 
L 74.571066 78.185666 
L 74.618194 78.185666 
L 74.681032 80.12051 
L 74.733396 79.733541 
L 74.785761 79.733541 
L 74.885253 83.603229 
L 74.906199 83.21626 
L 74.942854 83.21626 
L 75.058056 85.151104 
L 75.194204 85.151104 
L 75.309406 84.764135 
L 75.403662 84.764135 
L 75.518864 84.377167 
L 75.586937 84.377167 
L 75.702139 86.312011 
L 76.032035 86.312011 
L 76.147237 85.925042 
L 76.283385 85.925042 
L 76.398587 85.538073 
L 76.534734 85.538073 
L 76.608045 87.472917 
L 76.649936 87.085948 
L 76.71801 87.085948 
L 76.833212 89.020792 
L 77.870029 89.020792 
L 77.985231 90.955636 
L 79.095358 90.955636 
L 79.210559 90.568668 
L 81.242301 90.568668 
L 81.357503 92.503512 
L 83.080295 92.503512 
L 83.195496 92.116543 
L 83.368299 92.116543 
L 83.483501 94.051387 
L 85.389568 94.051387 
L 85.50477 93.664418 
L 85.6671 93.664418 
L 85.782302 95.599262 
L 85.90274 95.599262 
L 86.017942 97.534106 
L 90.091899 97.534106 
L 90.2071 97.147137 
L 93.993052 97.147137 
L 94.108254 99.081981 
L 103.120181 99.081981 
L 103.183019 98.695013 
L 103.188255 100.629857 
L 103.209201 100.629857 
L 104.937229 100.629857 
L 105.052431 102.564701 
L 113.001359 102.564701 
L 113.116561 102.177732 
L 116.143228 102.177732 
L 116.25843 101.790763 
L 122.269872 101.790763 
L 122.385074 103.725607 
L 141.875134 103.725607 
L 141.990336 103.338638 
L 160.218411 103.338638 
L 160.333613 105.273482 
L 168.560073 105.273482 
L 168.675275 104.886513 
L 171.508194 104.886513 
L 171.623395 104.499545 
L 172.393153 104.499545 
L 172.508355 106.434389 
L 173.634192 106.434389 
L 173.749393 108.369233 
L 220.301417 108.369233 
L 220.416619 110.304077 
L 255.223289 110.304077 
L 255.338491 112.238921 
L 266.94246 112.238921 
L 267.057662 111.851952 
L 398.487273 111.851952 
L 398.487273 111.851952 
" clip-path="url(#pdf4dfdae62)" style="fill: none; stroke: #7f7f7f; stroke-width: 1.5; stroke-linecap: square"/>
   </g>
   <g id="line2d_19">
    <path d="M 73.832727 58.256772 
L 73.837964 57.869803 
L 73.853673 63.674335 
L 73.869382 62.545676 
L 73.890328 60.610832 
L 73.984584 64.48052 
L 74.000294 64.48052 
L 74.026476 61.578254 
L 74.110259 63.803325 
L 74.120732 63.803325 
L 74.235934 65.738169 
L 74.288298 65.738169 
L 74.31448 64.964231 
L 74.319717 66.899075 
L 74.372081 65.931653 
L 74.429682 69.801342 
L 74.487283 68.446951 
L 74.513466 68.446951 
L 74.529175 65.544685 
L 74.618194 67.479529 
L 74.681032 69.414373 
L 74.733396 69.027404 
L 74.785761 69.027404 
L 74.81718 66.125138 
L 74.827652 69.994826 
L 74.895726 67.673013 
L 74.942854 67.673013 
L 75.058056 69.607857 
L 75.115657 69.607857 
L 75.194204 71.542701 
L 75.230859 71.155732 
L 75.403662 71.155732 
L 75.518864 70.768764 
L 75.586937 70.768764 
L 75.702139 72.703608 
L 76.032035 72.703608 
L 76.147237 72.316639 
L 76.225784 72.316639 
L 76.346222 75.799358 
L 76.356695 75.799358 
L 76.477134 73.864514 
L 76.534734 73.864514 
L 76.655173 77.347233 
L 76.71801 77.347233 
L 76.833212 75.412389 
L 77.870029 75.412389 
L 77.985231 77.347233 
L 78.665969 77.347233 
L 78.781171 76.379811 
L 79.095358 76.379811 
L 79.210559 75.992842 
L 79.262924 75.992842 
L 79.378126 77.927686 
L 79.582347 77.927686 
L 79.697549 76.960264 
L 80.907169 76.960264 
L 81.022371 78.895109 
L 81.242301 78.895109 
L 81.357503 76.960264 
L 81.404631 76.960264 
L 81.519833 78.895109 
L 81.964931 78.895109 
L 82.080133 77.927686 
L 82.425739 77.927686 
L 82.54094 76.960264 
L 82.787054 76.960264 
L 82.902255 78.895109 
L 83.043639 78.895109 
L 83.080295 80.829953 
L 83.158841 80.442984 
L 83.368299 80.442984 
L 83.483501 78.50814 
L 85.389568 78.50814 
L 85.50477 78.121171 
L 85.6671 78.121171 
L 85.782302 80.056015 
L 85.90274 80.056015 
L 86.017942 78.121171 
L 86.908138 78.121171 
L 87.02334 80.056015 
L 90.091899 80.056015 
L 90.2071 79.669046 
L 93.993052 79.669046 
L 94.108254 81.60389 
L 94.883249 81.60389 
L 94.99845 80.636468 
L 99.601288 80.636468 
L 99.71649 82.571312 
L 103.120181 82.571312 
L 103.183019 82.184343 
L 103.188255 84.119187 
L 103.209201 84.119187 
L 104.937229 84.119187 
L 105.052431 82.184343 
L 113.001359 82.184343 
L 113.116561 81.797375 
L 116.143228 81.797375 
L 116.25843 81.410406 
L 116.56738 81.410406 
L 116.682582 83.34525 
L 122.269872 83.34525 
L 122.385074 85.280094 
L 123.013448 85.280094 
L 123.12865 84.312672 
L 126.328119 84.312672 
L 126.443321 83.34525 
L 131.73737 83.34525 
L 131.852572 82.377828 
L 132.391926 82.377828 
L 132.507128 84.312672 
L 141.875134 84.312672 
L 141.990336 83.925703 
L 160.218411 83.925703 
L 160.333613 85.860547 
L 167.360927 85.860547 
L 167.476129 84.893125 
L 168.560073 84.893125 
L 168.675275 84.506156 
L 171.508194 84.506156 
L 171.623395 84.119187 
L 172.393153 84.119187 
L 172.508355 86.054031 
L 173.634192 86.054031 
L 173.749393 87.988875 
L 220.301417 87.988875 
L 220.416619 87.021453 
L 255.223289 87.021453 
L 255.338491 88.956298 
L 258.134754 88.956298 
L 258.249956 90.891142 
L 266.94246 90.891142 
L 267.057662 90.504173 
L 284.285576 90.504173 
L 284.400778 89.536751 
L 310.630147 89.536751 
L 310.745348 88.569329 
L 398.487273 88.569329 
L 398.487273 88.569329 
" clip-path="url(#pdf4dfdae62)" style="fill: none; stroke: #bcbd22; stroke-width: 1.5; stroke-linecap: square"/>
   </g>
   <g id="line2d_20">
    <path d="M 73.832727 57.773061 
L 73.837964 57.386092 
L 73.869382 62.223202 
L 74.000294 71.897423 
L 74.016003 70.930001 
L 74.089313 75.476884 
L 74.120732 75.089915 
L 74.131205 78.959603 
L 74.152151 78.959603 
L 74.173096 78.959603 
L 74.188806 77.992181 
L 74.194042 79.927025 
L 74.277825 79.927025 
L 74.288298 79.927025 
L 74.366845 79.153088 
L 74.372081 81.087932 
L 74.429682 84.95762 
L 74.487283 83.603229 
L 74.513466 83.603229 
L 74.644377 91.342605 
L 74.681032 91.342605 
L 74.785761 90.955636 
L 74.885253 100.629857 
L 74.921908 100.242888 
L 74.942854 100.242888 
L 75.058056 102.177732 
L 75.115657 102.177732 
L 75.194204 104.112576 
L 75.230859 103.725607 
L 75.403662 103.725607 
L 75.518864 103.338638 
L 75.586937 103.338638 
L 75.702139 105.273482 
L 76.032035 105.273482 
L 76.147237 104.886513 
L 76.225784 104.886513 
L 76.346222 108.369233 
L 76.356695 108.369233 
L 76.445715 107.401811 
L 76.450951 109.336655 
L 76.461424 109.336655 
L 76.534734 109.336655 
L 76.655173 112.819374 
L 76.71801 112.819374 
L 76.833212 114.754218 
L 77.870029 114.754218 
L 77.985231 116.689062 
L 78.665969 116.689062 
L 78.781171 115.72164 
L 79.095358 115.72164 
L 79.210559 115.334671 
L 79.582347 115.334671 
L 79.697549 117.269515 
L 80.907169 117.269515 
L 81.022371 119.204359 
L 81.242301 119.204359 
L 81.357503 121.139203 
L 81.964931 121.139203 
L 82.080133 123.074047 
L 82.425739 123.074047 
L 82.54094 125.008891 
L 82.787054 125.008891 
L 82.902255 126.943736 
L 83.043639 126.943736 
L 83.080295 128.87858 
L 83.158841 128.491611 
L 83.368299 128.491611 
L 83.483501 130.426455 
L 85.389568 130.426455 
L 85.50477 130.039486 
L 85.6671 130.039486 
L 85.782302 131.97433 
L 90.091899 131.97433 
L 90.2071 131.587361 
L 93.993052 131.587361 
L 94.108254 133.522205 
L 94.883249 133.522205 
L 94.99845 135.457049 
L 103.120181 135.457049 
L 103.183019 135.070081 
L 103.188255 137.004925 
L 103.209201 137.004925 
L 104.937229 137.004925 
L 105.052431 138.939769 
L 113.001359 138.939769 
L 113.116561 138.5528 
L 116.143228 138.5528 
L 116.25843 138.165831 
L 116.56738 138.165831 
L 116.682582 140.100675 
L 122.269872 140.100675 
L 122.385074 142.035519 
L 123.013448 142.035519 
L 123.12865 141.068097 
L 126.328119 141.068097 
L 126.443321 143.002941 
L 131.73737 143.002941 
L 131.852572 144.937785 
L 132.391926 144.937785 
L 132.507128 146.872629 
L 141.875134 146.872629 
L 141.990336 146.48566 
L 160.218411 146.48566 
L 160.333613 148.420504 
L 167.360927 148.420504 
L 167.476129 147.453082 
L 168.560073 147.453082 
L 168.675275 147.066114 
L 171.508194 147.066114 
L 171.623395 146.679145 
L 172.393153 146.679145 
L 172.508355 148.613989 
L 173.634192 148.613989 
L 173.749393 150.548833 
L 220.301417 150.548833 
L 220.416619 152.483677 
L 255.223289 152.483677 
L 255.338491 154.418521 
L 258.134754 154.418521 
L 258.249956 156.353365 
L 266.94246 156.353365 
L 267.057662 155.966396 
L 284.285576 155.966396 
L 284.400778 154.998974 
L 310.630147 154.998974 
L 310.745348 156.933818 
L 398.487273 156.933818 
L 398.487273 156.933818 
" clip-path="url(#pdf4dfdae62)" style="fill: none; stroke: #17becf; stroke-width: 1.5; stroke-linecap: square"/>
   </g>
   <g id="line2d_21">
    <path d="M 73.832727 60.191616 
L 73.837964 59.804647 
L 73.895565 63.674335 
L 73.979348 63.674335 
L 74.089313 66.770086 
L 74.09455 66.383117 
L 74.120732 66.383117 
L 74.125968 68.317961 
L 74.230697 67.350539 
L 74.288298 67.350539 
L 74.31448 66.576601 
L 74.319717 68.511445 
L 74.377318 67.544023 
L 74.482047 69.478868 
L 74.49252 69.091899 
L 74.523938 69.091899 
L 74.618194 68.124477 
L 74.623431 70.059321 
L 74.628667 70.059321 
L 74.681032 70.059321 
L 74.806707 68.70493 
L 74.81718 68.70493 
L 74.885253 72.574618 
L 74.937618 72.187649 
L 74.942854 72.187649 
L 75.058056 74.122493 
L 75.194204 74.122493 
L 75.309406 73.735524 
L 75.403662 73.735524 
L 75.518864 73.348556 
L 75.586937 73.348556 
L 75.702139 75.2834 
L 76.032035 75.2834 
L 76.147237 74.896431 
L 76.225784 74.896431 
L 76.346222 78.37915 
L 76.445715 78.37915 
L 76.534734 77.411728 
L 76.539971 79.346572 
L 76.550444 79.346572 
L 76.608045 79.346572 
L 76.723247 78.959603 
L 77.870029 78.959603 
L 77.985231 80.894447 
L 79.095358 80.894447 
L 79.210559 80.507479 
L 79.262924 80.507479 
L 79.378126 82.442323 
L 79.582347 82.442323 
L 79.697549 81.474901 
L 80.907169 81.474901 
L 81.022371 83.409745 
L 81.404631 83.409745 
L 81.519833 85.344589 
L 81.964931 85.344589 
L 82.080133 84.377167 
L 82.425739 84.377167 
L 82.54094 83.409745 
L 82.787054 83.409745 
L 82.902255 85.344589 
L 83.080295 85.344589 
L 83.195496 84.95762 
L 85.389568 84.95762 
L 85.50477 84.570651 
L 86.908138 84.570651 
L 87.02334 86.505495 
L 90.091899 86.505495 
L 90.2071 86.118526 
L 93.993052 86.118526 
L 94.108254 88.05337 
L 94.883249 88.05337 
L 94.99845 87.085948 
L 99.601288 87.085948 
L 99.71649 89.020792 
L 103.120181 89.020792 
L 103.235383 88.633824 
L 113.001359 88.633824 
L 113.116561 88.246855 
L 116.143228 88.246855 
L 116.25843 87.859886 
L 116.56738 87.859886 
L 116.682582 89.79473 
L 126.328119 89.79473 
L 126.443321 88.827308 
L 131.73737 88.827308 
L 131.852572 87.859886 
L 141.875134 87.859886 
L 141.990336 87.472917 
L 160.218411 87.472917 
L 160.333613 89.407761 
L 168.560073 89.407761 
L 168.675275 89.020792 
L 171.508194 89.020792 
L 171.623395 88.633824 
L 172.393153 88.633824 
L 172.508355 90.568668 
L 173.634192 90.568668 
L 173.749393 92.503512 
L 258.134754 92.503512 
L 258.249956 94.438356 
L 266.94246 94.438356 
L 267.057662 94.051387 
L 310.630147 94.051387 
L 310.745348 93.083965 
L 398.487273 93.083965 
L 398.487273 93.083965 
" clip-path="url(#pdf4dfdae62)" style="fill: none; stroke: #1f77b4; stroke-width: 1.5; stroke-linecap: square"/>
   </g>
   <g id="line2d_22">
    <path d="M 73.832727 57.773061 
L 73.869382 57.773061 
L 73.989821 55.838217 
L 398.487273 55.838217 
L 398.487273 55.838217 
" clip-path="url(#pdf4dfdae62)" style="fill: none; stroke: #ff7f0e; stroke-width: 1.5; stroke-linecap: square"/>
   </g>
   <g id="patch_3">
    <path d="M 57.6 162.432 
L 57.6 41.472 
" style="fill: none; stroke: #000000; stroke-width: 0.8; stroke-linejoin: miter; stroke-linecap: square"/>
   </g>
   <g id="patch_4">
    <path d="M 414.72 162.432 
L 414.72 41.472 
" style="fill: none; stroke: #000000; stroke-width: 0.8; stroke-linejoin: miter; stroke-linecap: square"/>
   </g>
   <g id="patch_5">
    <path d="M 57.6 162.432 
L 414.72 162.432 
" style="fill: none; stroke: #000000; stroke-width: 0.8; stroke-linejoin: miter; stroke-linecap: square"/>
   </g>
   <g id="patch_6">
    <path d="M 57.6 41.472 
L 414.72 41.472 
" style="fill: none; stroke: #000000; stroke-width: 0.8; stroke-linejoin: miter; stroke-linecap: square"/>
   </g>
   <g id="text_11">
    <!-- WSP -->
    <g transform="translate(361.832136 111.464983)scale(0.08 -0.08)">
     <defs>
      <path id="DejaVuSans-57" d="M 213 4666 
L 850 4666 
L 1831 722 
L 2809 4666 
L 3519 4666 
L 4500 722 
L 5478 4666 
L 6119 4666 
L 4947 0 
L 4153 0 
L 3169 4050 
L 2175 0 
L 1381 0 
L 213 4666 
z
" transform="scale(0.015625)"/>
      <path id="DejaVuSans-53" d="M 3425 4513 
L 3425 3897 
Q 3066 4069 2747 4153 
Q 2428 4238 2131 4238 
Q 1616 4238 1336 4038 
Q 1056 3838 1056 3469 
Q 1056 3159 1242 3001 
Q 1428 2844 1947 2747 
L 2328 2669 
Q 3034 2534 3370 2195 
Q 3706 1856 3706 1288 
Q 3706 609 3251 259 
Q 2797 -91 1919 -91 
Q 1588 -91 1214 -16 
Q 841 59 441 206 
L 441 856 
Q 825 641 1194 531 
Q 1563 422 1919 422 
Q 2459 422 2753 634 
Q 3047 847 3047 1241 
Q 3047 1584 2836 1778 
Q 2625 1972 2144 2069 
L 1759 2144 
Q 1053 2284 737 2584 
Q 422 2884 422 3419 
Q 422 4038 858 4394 
Q 1294 4750 2059 4750 
Q 2388 4750 2728 4690 
Q 3069 4631 3425 4513 
z
" transform="scale(0.015625)"/>
      <path id="DejaVuSans-50" d="M 1259 4147 
L 1259 2394 
L 2053 2394 
Q 2494 2394 2734 2622 
Q 2975 2850 2975 3272 
Q 2975 3691 2734 3919 
Q 2494 4147 2053 4147 
L 1259 4147 
z
M 628 4666 
L 2053 4666 
Q 2838 4666 3239 4311 
Q 3641 3956 3641 3272 
Q 3641 2581 3239 2228 
Q 2838 1875 2053 1875 
L 1259 1875 
L 1259 0 
L 628 0 
L 628 4666 
z
" transform="scale(0.015625)"/>
     </defs>
     <use xlink:href="#DejaVuSans-57"/>
     <use xlink:href="#DejaVuSans-53" x="98.876953"/>
     <use xlink:href="#DejaVuSans-50" x="162.353516"/>
    </g>
   </g>
   <g id="text_12">
    <!-- Iambic -->
    <g transform="translate(361.832136 134.521875)scale(0.08 -0.08)">
     <defs>
      <path id="DejaVuSans-49" d="M 628 4666 
L 1259 4666 
L 1259 0 
L 628 0 
L 628 4666 
z
" transform="scale(0.015625)"/>
      <path id="DejaVuSans-61" d="M 2194 1759 
Q 1497 1759 1228 1600 
Q 959 1441 959 1056 
Q 959 750 1161 570 
Q 1363 391 1709 391 
Q 2188 391 2477 730 
Q 2766 1069 2766 1631 
L 2766 1759 
L 2194 1759 
z
M 3341 1997 
L 3341 0 
L 2766 0 
L 2766 531 
Q 2569 213 2275 61 
Q 1981 -91 1556 -91 
Q 1019 -91 701 211 
Q 384 513 384 1019 
Q 384 1609 779 1909 
Q 1175 2209 1959 2209 
L 2766 2209 
L 2766 2266 
Q 2766 2663 2505 2880 
Q 2244 3097 1772 3097 
Q 1472 3097 1187 3025 
Q 903 2953 641 2809 
L 641 3341 
Q 956 3463 1253 3523 
Q 1550 3584 1831 3584 
Q 2591 3584 2966 3190 
Q 3341 2797 3341 1997 
z
" transform="scale(0.015625)"/>
      <path id="DejaVuSans-6d" d="M 3328 2828 
Q 3544 3216 3844 3400 
Q 4144 3584 4550 3584 
Q 5097 3584 5394 3201 
Q 5691 2819 5691 2113 
L 5691 0 
L 5113 0 
L 5113 2094 
Q 5113 2597 4934 2840 
Q 4756 3084 4391 3084 
Q 3944 3084 3684 2787 
Q 3425 2491 3425 1978 
L 3425 0 
L 2847 0 
L 2847 2094 
Q 2847 2600 2669 2842 
Q 2491 3084 2119 3084 
Q 1678 3084 1418 2786 
Q 1159 2488 1159 1978 
L 1159 0 
L 581 0 
L 581 3500 
L 1159 3500 
L 1159 2956 
Q 1356 3278 1631 3431 
Q 1906 3584 2284 3584 
Q 2666 3584 2933 3390 
Q 3200 3197 3328 2828 
z
" transform="scale(0.015625)"/>
      <path id="DejaVuSans-62" d="M 3116 1747 
Q 3116 2381 2855 2742 
Q 2594 3103 2138 3103 
Q 1681 3103 1420 2742 
Q 1159 2381 1159 1747 
Q 1159 1113 1420 752 
Q 1681 391 2138 391 
Q 2594 391 2855 752 
Q 3116 1113 3116 1747 
z
M 1159 2969 
Q 1341 3281 1617 3432 
Q 1894 3584 2278 3584 
Q 2916 3584 3314 3078 
Q 3713 2572 3713 1747 
Q 3713 922 3314 415 
Q 2916 -91 2278 -91 
Q 1894 -91 1617 61 
Q 1341 213 1159 525 
L 1159 0 
L 581 0 
L 581 4863 
L 1159 4863 
L 1159 2969 
z
" transform="scale(0.015625)"/>
      <path id="DejaVuSans-69" d="M 603 3500 
L 1178 3500 
L 1178 0 
L 603 0 
L 603 3500 
z
M 603 4863 
L 1178 4863 
L 1178 4134 
L 603 4134 
L 603 4863 
z
" transform="scale(0.015625)"/>
      <path id="DejaVuSans-63" d="M 3122 3366 
L 3122 2828 
Q 2878 2963 2633 3030 
Q 2388 3097 2138 3097 
Q 1578 3097 1268 2742 
Q 959 2388 959 1747 
Q 959 1106 1268 751 
Q 1578 397 2138 397 
Q 2388 397 2633 464 
Q 2878 531 3122 666 
L 3122 134 
Q 2881 22 2623 -34 
Q 2366 -91 2075 -91 
Q 1284 -91 818 406 
Q 353 903 353 1747 
Q 353 2603 823 3093 
Q 1294 3584 2113 3584 
Q 2378 3584 2631 3529 
Q 2884 3475 3122 3366 
z
" transform="scale(0.015625)"/>
     </defs>
     <use xlink:href="#DejaVuSans-49"/>
     <use xlink:href="#DejaVuSans-61" x="29.492188"/>
     <use xlink:href="#DejaVuSans-6d" x="90.771484"/>
     <use xlink:href="#DejaVuSans-62" x="188.183594"/>
     <use xlink:href="#DejaVuSans-69" x="251.660156"/>
     <use xlink:href="#DejaVuSans-63" x="279.443359"/>
    </g>
   </g>
   <g id="text_13">
    <!-- Parse -->
    <g transform="translate(361.832136 67.608518)scale(0.08 -0.08)">
     <defs>
      <path id="DejaVuSans-72" d="M 2631 2963 
Q 2534 3019 2420 3045 
Q 2306 3072 2169 3072 
Q 1681 3072 1420 2755 
Q 1159 2438 1159 1844 
L 1159 0 
L 581 0 
L 581 3500 
L 1159 3500 
L 1159 2956 
Q 1341 3275 1631 3429 
Q 1922 3584 2338 3584 
Q 2397 3584 2469 3576 
Q 2541 3569 2628 3553 
L 2631 2963 
z
" transform="scale(0.015625)"/>
      <path id="DejaVuSans-73" d="M 2834 3397 
L 2834 2853 
Q 2591 2978 2328 3040 
Q 2066 3103 1784 3103 
Q 1356 3103 1142 2972 
Q 928 2841 928 2578 
Q 928 2378 1081 2264 
Q 1234 2150 1697 2047 
L 1894 2003 
Q 2506 1872 2764 1633 
Q 3022 1394 3022 966 
Q 3022 478 2636 193 
Q 2250 -91 1575 -91 
Q 1294 -91 989 -36 
Q 684 19 347 128 
L 347 722 
Q 666 556 975 473 
Q 1284 391 1588 391 
Q 1994 391 2212 530 
Q 2431 669 2431 922 
Q 2431 1156 2273 1281 
Q 2116 1406 1581 1522 
L 1381 1569 
Q 847 1681 609 1914 
Q 372 2147 372 2553 
Q 372 3047 722 3315 
Q 1072 3584 1716 3584 
Q 2034 3584 2315 3537 
Q 2597 3491 2834 3397 
z
" transform="scale(0.015625)"/>
      <path id="DejaVuSans-65" d="M 3597 1894 
L 3597 1613 
L 953 1613 
Q 991 1019 1311 708 
Q 1631 397 2203 397 
Q 2534 397 2845 478 
Q 3156 559 3463 722 
L 3463 178 
Q 3153 47 2828 -22 
Q 2503 -91 2169 -91 
Q 1331 -91 842 396 
Q 353 884 353 1716 
Q 353 2575 817 3079 
Q 1281 3584 2069 3584 
Q 2775 3584 3186 3129 
Q 3597 2675 3597 1894 
z
M 3022 2063 
Q 3016 2534 2758 2815 
Q 2500 3097 2075 3097 
Q 1594 3097 1305 2825 
Q 1016 2553 972 2059 
L 3022 2063 
z
" transform="scale(0.015625)"/>
     </defs>
     <use xlink:href="#DejaVuSans-50"/>
     <use xlink:href="#DejaVuSans-61" x="55.802734"/>
     <use xlink:href="#DejaVuSans-72" x="117.082031"/>
     <use xlink:href="#DejaVuSans-73" x="158.195312"/>
     <use xlink:href="#DejaVuSans-65" x="210.294922"/>
    </g>
   </g>
   <g id="text_14">
    <!-- FootBin -->
    <g transform="translate(361.832136 46.970182)scale(0.08 -0.08)">
     <defs>
      <path id="DejaVuSans-46" d="M 628 4666 
L 3309 4666 
L 3309 4134 
L 1259 4134 
L 1259 2759 
L 3109 2759 
L 3109 2228 
L 1259 2228 
L 1259 0 
L 628 0 
L 628 4666 
z
" transform="scale(0.015625)"/>
      <path id="DejaVuSans-6f" d="M 1959 3097 
Q 1497 3097 1228 2736 
Q 959 2375 959 1747 
Q 959 1119 1226 758 
Q 1494 397 1959 397 
Q 2419 397 2687 759 
Q 2956 1122 2956 1747 
Q 2956 2369 2687 2733 
Q 2419 3097 1959 3097 
z
M 1959 3584 
Q 2709 3584 3137 3096 
Q 3566 2609 3566 1747 
Q 3566 888 3137 398 
Q 2709 -91 1959 -91 
Q 1206 -91 779 398 
Q 353 888 353 1747 
Q 353 2609 779 3096 
Q 1206 3584 1959 3584 
z
" transform="scale(0.015625)"/>
      <path id="DejaVuSans-74" d="M 1172 4494 
L 1172 3500 
L 2356 3500 
L 2356 3053 
L 1172 3053 
L 1172 1153 
Q 1172 725 1289 603 
Q 1406 481 1766 481 
L 2356 481 
L 2356 0 
L 1766 0 
Q 1100 0 847 248 
Q 594 497 594 1153 
L 594 3053 
L 172 3053 
L 172 3500 
L 594 3500 
L 594 4494 
L 1172 4494 
z
" transform="scale(0.015625)"/>
      <path id="DejaVuSans-42" d="M 1259 2228 
L 1259 519 
L 2272 519 
Q 2781 519 3026 730 
Q 3272 941 3272 1375 
Q 3272 1813 3026 2020 
Q 2781 2228 2272 2228 
L 1259 2228 
z
M 1259 4147 
L 1259 2741 
L 2194 2741 
Q 2656 2741 2882 2914 
Q 3109 3088 3109 3444 
Q 3109 3797 2882 3972 
Q 2656 4147 2194 4147 
L 1259 4147 
z
M 628 4666 
L 2241 4666 
Q 2963 4666 3353 4366 
Q 3744 4066 3744 3513 
Q 3744 3084 3544 2831 
Q 3344 2578 2956 2516 
Q 3422 2416 3680 2098 
Q 3938 1781 3938 1306 
Q 3938 681 3513 340 
Q 3088 0 2303 0 
L 628 0 
L 628 4666 
z
" transform="scale(0.015625)"/>
      <path id="DejaVuSans-6e" d="M 3513 2113 
L 3513 0 
L 2938 0 
L 2938 2094 
Q 2938 2591 2744 2837 
Q 2550 3084 2163 3084 
Q 1697 3084 1428 2787 
Q 1159 2491 1159 1978 
L 1159 0 
L 581 0 
L 581 3500 
L 1159 3500 
L 1159 2956 
Q 1366 3272 1645 3428 
Q 1925 3584 2291 3584 
Q 2894 3584 3203 3211 
Q 3513 2838 3513 2113 
z
" transform="scale(0.015625)"/>
     </defs>
     <use xlink:href="#DejaVuSans-46"/>
     <use xlink:href="#DejaVuSans-6f" x="53.894531"/>
     <use xlink:href="#DejaVuSans-6f" x="115.076172"/>
     <use xlink:href="#DejaVuSans-74" x="176.257812"/>
     <use xlink:href="#DejaVuSans-42" x="215.466797"/>
     <use xlink:href="#DejaVuSans-69" x="284.070312"/>
     <use xlink:href="#DejaVuSans-6e" x="311.853516"/>
    </g>
   </g>
   <g id="text_15">
    <!-- WFL -->
    <g transform="translate(361.832136 57.773061)scale(0.08 -0.08)">
     <defs>
      <path id="DejaVuSans-4c" d="M 628 4666 
L 1259 4666 
L 1259 531 
L 3531 531 
L 3531 0 
L 628 0 
L 628 4666 
z
" transform="scale(0.015625)"/>
     </defs>
     <use xlink:href="#DejaVuSans-57"/>
     <use xlink:href="#DejaVuSans-46" x="98.876953"/>
     <use xlink:href="#DejaVuSans-4c" x="156.396484"/>
    </g>
   </g>
   <g id="text_16">
    <!-- WFR -->
    <g transform="translate(361.832136 108.40148)scale(0.08 -0.08)">
     <defs>
      <path id="DejaVuSans-52" d="M 2841 2188 
Q 3044 2119 3236 1894 
Q 3428 1669 3622 1275 
L 4263 0 
L 3584 0 
L 2988 1197 
Q 2756 1666 2539 1819 
Q 2322 1972 1947 1972 
L 1259 1972 
L 1259 0 
L 628 0 
L 628 4666 
L 2053 4666 
Q 2853 4666 3247 4331 
Q 3641 3997 3641 3322 
Q 3641 2881 3436 2590 
Q 3231 2300 2841 2188 
z
M 1259 4147 
L 1259 2491 
L 2053 2491 
Q 2509 2491 2742 2702 
Q 2975 2913 2975 3322 
Q 2975 3731 2742 3939 
Q 2509 4147 2053 4147 
L 1259 4147 
z
" transform="scale(0.015625)"/>
     </defs>
     <use xlink:href="#DejaVuSans-57"/>
     <use xlink:href="#DejaVuSans-46" x="98.876953"/>
     <use xlink:href="#DejaVuSans-52" x="156.396484"/>
    </g>
   </g>
   <g id="text_17">
    <!-- Main-L -->
    <g transform="translate(361.832136 56.902381)scale(0.08 -0.08)">
     <defs>
      <path id="DejaVuSans-4d" d="M 628 4666 
L 1569 4666 
L 2759 1491 
L 3956 4666 
L 4897 4666 
L 4897 0 
L 4281 0 
L 4281 4097 
L 3078 897 
L 2444 897 
L 1241 4097 
L 1241 0 
L 628 0 
L 628 4666 
z
" transform="scale(0.015625)"/>
      <path id="DejaVuSans-2d" d="M 313 2009 
L 1997 2009 
L 1997 1497 
L 313 1497 
L 313 2009 
z
" transform="scale(0.015625)"/>
     </defs>
     <use xlink:href="#DejaVuSans-4d"/>
     <use xlink:href="#DejaVuSans-61" x="86.279297"/>
     <use xlink:href="#DejaVuSans-69" x="147.558594"/>
     <use xlink:href="#DejaVuSans-6e" x="175.341797"/>
     <use xlink:href="#DejaVuSans-2d" x="238.720703"/>
     <use xlink:href="#DejaVuSans-4c" x="274.804688"/>
    </g>
   </g>
   <g id="text_18">
    <!-- Main-R -->
    <g transform="translate(361.832136 111.851952)scale(0.08 -0.08)">
     <use xlink:href="#DejaVuSans-4d"/>
     <use xlink:href="#DejaVuSans-61" x="86.279297"/>
     <use xlink:href="#DejaVuSans-69" x="147.558594"/>
     <use xlink:href="#DejaVuSans-6e" x="175.341797"/>
     <use xlink:href="#DejaVuSans-2d" x="238.720703"/>
     <use xlink:href="#DejaVuSans-52" x="274.804688"/>
    </g>
   </g>
   <g id="text_19">
    <!-- AFL -->
    <g transform="translate(361.832136 88.569329)scale(0.08 -0.08)">
     <defs>
      <path id="DejaVuSans-41" d="M 2188 4044 
L 1331 1722 
L 3047 1722 
L 2188 4044 
z
M 1831 4666 
L 2547 4666 
L 4325 0 
L 3669 0 
L 3244 1197 
L 1141 1197 
L 716 0 
L 50 0 
L 1831 4666 
z
" transform="scale(0.015625)"/>
     </defs>
     <use xlink:href="#DejaVuSans-41"/>
     <use xlink:href="#DejaVuSans-46" x="68.408203"/>
     <use xlink:href="#DejaVuSans-4c" x="125.927734"/>
    </g>
   </g>
   <g id="text_20">
    <!-- AFR -->
    <g transform="translate(361.832136 156.933818)scale(0.08 -0.08)">
     <use xlink:href="#DejaVuSans-41"/>
     <use xlink:href="#DejaVuSans-46" x="68.408203"/>
     <use xlink:href="#DejaVuSans-52" x="125.927734"/>
    </g>
   </g>
   <g id="text_21">
    <!-- Nonfinal -->
    <g transform="translate(361.832136 93.083965)scale(0.08 -0.08)">
     <defs>
      <path id="DejaVuSans-4e" d="M 628 4666 
L 1478 4666 
L 3547 763 
L 3547 4666 
L 4159 4666 
L 4159 0 
L 3309 0 
L 1241 3903 
L 1241 0 
L 628 0 
L 628 4666 
z
" transform="scale(0.015625)"/>
      <path id="DejaVuSans-66" d="M 2375 4863 
L 2375 4384 
L 1825 4384 
Q 1516 4384 1395 4259 
Q 1275 4134 1275 3809 
L 1275 3500 
L 2222 3500 
L 2222 3053 
L 1275 3053 
L 1275 0 
L 697 0 
L 697 3053 
L 147 3053 
L 147 3500 
L 697 3500 
L 697 3744 
Q 697 4328 969 4595 
Q 1241 4863 1831 4863 
L 2375 4863 
z
" transform="scale(0.015625)"/>
      <path id="DejaVuSans-6c" d="M 603 4863 
L 1178 4863 
L 1178 0 
L 603 0 
L 603 4863 
z
" transform="scale(0.015625)"/>
     </defs>
     <use xlink:href="#DejaVuSans-4e"/>
     <use xlink:href="#DejaVuSans-6f" x="74.804688"/>
     <use xlink:href="#DejaVuSans-6e" x="135.986328"/>
     <use xlink:href="#DejaVuSans-66" x="199.365234"/>
     <use xlink:href="#DejaVuSans-69" x="234.570312"/>
     <use xlink:href="#DejaVuSans-6e" x="262.353516"/>
     <use xlink:href="#DejaVuSans-61" x="325.732422"/>
     <use xlink:href="#DejaVuSans-6c" x="387.011719"/>
    </g>
   </g>
   <g id="text_22">
    <!-- Trochaic -->
    <g transform="translate(361.832136 55.838217)scale(0.08 -0.08)">
     <defs>
      <path id="DejaVuSans-54" d="M -19 4666 
L 3928 4666 
L 3928 4134 
L 2272 4134 
L 2272 0 
L 1638 0 
L 1638 4134 
L -19 4134 
L -19 4666 
z
" transform="scale(0.015625)"/>
      <path id="DejaVuSans-68" d="M 3513 2113 
L 3513 0 
L 2938 0 
L 2938 2094 
Q 2938 2591 2744 2837 
Q 2550 3084 2163 3084 
Q 1697 3084 1428 2787 
Q 1159 2491 1159 1978 
L 1159 0 
L 581 0 
L 581 4863 
L 1159 4863 
L 1159 2956 
Q 1366 3272 1645 3428 
Q 1925 3584 2291 3584 
Q 2894 3584 3203 3211 
Q 3513 2838 3513 2113 
z
" transform="scale(0.015625)"/>
     </defs>
     <use xlink:href="#DejaVuSans-54"/>
     <use xlink:href="#DejaVuSans-72" x="46.333984"/>
     <use xlink:href="#DejaVuSans-6f" x="85.197266"/>
     <use xlink:href="#DejaVuSans-63" x="146.378906"/>
     <use xlink:href="#DejaVuSans-68" x="201.359375"/>
     <use xlink:href="#DejaVuSans-61" x="264.738281"/>
     <use xlink:href="#DejaVuSans-69" x="326.017578"/>
     <use xlink:href="#DejaVuSans-63" x="353.800781"/>
    </g>
   </g>
  </g>
  <g id="axes_2">
   <g id="patch_7">
    <path d="M 57.6 307.584 
L 414.72 307.584 
L 414.72 186.624 
L 57.6 186.624 
z
" style="fill: #ffffff"/>
   </g>
   <g id="matplotlib.axis_3">
    <g id="xtick_8">
     <g id="line2d_23">
      <g>
       <use xlink:href="#mbf09381a24" x="70.826667" y="307.584" style="stroke: #000000; stroke-width: 0.8"/>
      </g>
     </g>
     <g id="text_23">
      <!-- 0 -->
      <g transform="translate(67.645417 322.182437)scale(0.1 -0.1)">
       <use xlink:href="#DejaVuSans-30"/>
      </g>
     </g>
    </g>
    <g id="xtick_9">
     <g id="line2d_24">
      <g>
       <use xlink:href="#mbf09381a24" x="130.947879" y="307.584" style="stroke: #000000; stroke-width: 0.8"/>
      </g>
     </g>
     <g id="text_24">
      <!-- 20 -->
      <g transform="translate(124.585379 322.182437)scale(0.1 -0.1)">
       <use xlink:href="#DejaVuSans-32"/>
       <use xlink:href="#DejaVuSans-30" x="63.623047"/>
      </g>
     </g>
    </g>
    <g id="xtick_10">
     <g id="line2d_25">
      <g>
       <use xlink:href="#mbf09381a24" x="191.069091" y="307.584" style="stroke: #000000; stroke-width: 0.8"/>
      </g>
     </g>
     <g id="text_25">
      <!-- 40 -->
      <g transform="translate(184.706591 322.182437)scale(0.1 -0.1)">
       <use xlink:href="#DejaVuSans-34"/>
       <use xlink:href="#DejaVuSans-30" x="63.623047"/>
      </g>
     </g>
    </g>
    <g id="xtick_11">
     <g id="line2d_26">
      <g>
       <use xlink:href="#mbf09381a24" x="251.190303" y="307.584" style="stroke: #000000; stroke-width: 0.8"/>
      </g>
     </g>
     <g id="text_26">
      <!-- 60 -->
      <g transform="translate(244.827803 322.182437)scale(0.1 -0.1)">
       <use xlink:href="#DejaVuSans-36"/>
       <use xlink:href="#DejaVuSans-30" x="63.623047"/>
      </g>
     </g>
    </g>
    <g id="xtick_12">
     <g id="line2d_27">
      <g>
       <use xlink:href="#mbf09381a24" x="311.311515" y="307.584" style="stroke: #000000; stroke-width: 0.8"/>
      </g>
     </g>
     <g id="text_27">
      <!-- 80 -->
      <g transform="translate(304.949015 322.182437)scale(0.1 -0.1)">
       <use xlink:href="#DejaVuSans-38"/>
       <use xlink:href="#DejaVuSans-30" x="63.623047"/>
      </g>
     </g>
    </g>
    <g id="xtick_13">
     <g id="line2d_28">
      <g>
       <use xlink:href="#mbf09381a24" x="371.432727" y="307.584" style="stroke: #000000; stroke-width: 0.8"/>
      </g>
     </g>
     <g id="text_28">
      <!-- 100 -->
      <g transform="translate(361.888977 322.182437)scale(0.1 -0.1)">
       <use xlink:href="#DejaVuSans-31"/>
       <use xlink:href="#DejaVuSans-30" x="63.623047"/>
       <use xlink:href="#DejaVuSans-30" x="127.246094"/>
      </g>
     </g>
    </g>
   </g>
   <g id="matplotlib.axis_4">
    <g id="ytick_4">
     <g id="line2d_29">
      <g>
       <use xlink:href="#mf1770b368e" x="57.6" y="302.098158" style="stroke: #000000; stroke-width: 0.8"/>
      </g>
     </g>
     <g id="text_29">
      <!-- 0 -->
      <g transform="translate(44.2375 305.897377)scale(0.1 -0.1)">
       <use xlink:href="#DejaVuSans-30"/>
      </g>
     </g>
    </g>
    <g id="ytick_5">
     <g id="line2d_30">
      <g>
       <use xlink:href="#mf1770b368e" x="57.6" y="277.417733" style="stroke: #000000; stroke-width: 0.8"/>
      </g>
     </g>
     <g id="text_30">
      <!-- 2000 -->
      <g transform="translate(25.15 281.216952)scale(0.1 -0.1)">
       <use xlink:href="#DejaVuSans-32"/>
       <use xlink:href="#DejaVuSans-30" x="63.623047"/>
       <use xlink:href="#DejaVuSans-30" x="127.246094"/>
       <use xlink:href="#DejaVuSans-30" x="190.869141"/>
      </g>
     </g>
    </g>
    <g id="ytick_6">
     <g id="line2d_31">
      <g>
       <use xlink:href="#mf1770b368e" x="57.6" y="252.737307" style="stroke: #000000; stroke-width: 0.8"/>
      </g>
     </g>
     <g id="text_31">
      <!-- 4000 -->
      <g transform="translate(25.15 256.536526)scale(0.1 -0.1)">
       <use xlink:href="#DejaVuSans-34"/>
       <use xlink:href="#DejaVuSans-30" x="63.623047"/>
       <use xlink:href="#DejaVuSans-30" x="127.246094"/>
       <use xlink:href="#DejaVuSans-30" x="190.869141"/>
      </g>
     </g>
    </g>
    <g id="ytick_7">
     <g id="line2d_32">
      <g>
       <use xlink:href="#mf1770b368e" x="57.6" y="228.056882" style="stroke: #000000; stroke-width: 0.8"/>
      </g>
     </g>
     <g id="text_32">
      <!-- 6000 -->
      <g transform="translate(25.15 231.8561)scale(0.1 -0.1)">
       <use xlink:href="#DejaVuSans-36"/>
       <use xlink:href="#DejaVuSans-30" x="63.623047"/>
       <use xlink:href="#DejaVuSans-30" x="127.246094"/>
       <use xlink:href="#DejaVuSans-30" x="190.869141"/>
      </g>
     </g>
    </g>
    <g id="ytick_8">
     <g id="line2d_33">
      <g>
       <use xlink:href="#mf1770b368e" x="57.6" y="203.376456" style="stroke: #000000; stroke-width: 0.8"/>
      </g>
     </g>
     <g id="text_33">
      <!-- 8000 -->
      <g transform="translate(25.15 207.175675)scale(0.1 -0.1)">
       <use xlink:href="#DejaVuSans-38"/>
       <use xlink:href="#DejaVuSans-30" x="63.623047"/>
       <use xlink:href="#DejaVuSans-30" x="127.246094"/>
       <use xlink:href="#DejaVuSans-30" x="190.869141"/>
      </g>
     </g>
    </g>
   </g>
   <g id="line2d_34">
    <path d="M 73.832727 302.085818 
L 76.838788 302.085818 
L 79.844848 302.085818 
L 82.850909 302.085818 
L 85.85697 302.085818 
L 88.86303 302.073478 
L 91.869091 302.085818 
L 94.875152 302.073478 
L 97.881212 302.085818 
L 100.887273 302.085818 
L 103.893333 302.085818 
L 106.899394 302.085818 
L 109.905455 302.061138 
L 112.911515 302.011777 
L 115.917576 302.085818 
L 118.923636 302.073478 
L 121.929697 302.073478 
L 124.935758 302.048798 
L 127.941818 302.061138 
L 130.947879 302.073478 
L 133.953939 302.073478 
L 136.96 302.085818 
L 139.966061 302.048798 
L 142.972121 302.048798 
L 145.978182 302.085818 
L 148.984242 302.024117 
L 151.990303 302.085818 
L 154.996364 301.987096 
L 158.002424 302.061138 
L 161.008485 301.863694 
L 164.014545 302.061138 
L 167.020606 302.073478 
L 170.026667 301.974756 
L 173.032727 302.085818 
L 176.038788 302.085818 
L 179.044848 301.974756 
L 182.050909 301.974756 
L 185.05697 302.024117 
L 188.06303 302.073478 
L 191.069091 302.085818 
L 194.075152 301.888375 
L 197.081212 301.950076 
L 200.087273 301.851354 
L 203.093333 302.073478 
L 206.099394 302.048798 
L 209.105455 302.085818 
L 212.111515 302.085818 
L 215.117576 301.962416 
L 218.123636 301.962416 
L 221.129697 301.690931 
L 224.135758 301.913055 
L 227.141818 301.60455 
L 230.147879 301.666251 
L 233.153939 301.04924 
L 236.16 301.641571 
L 239.166061 301.962416 
L 242.172121 301.962416 
L 245.178182 302.061138 
L 248.184242 301.888375 
L 251.190303 301.888375 
L 254.196364 301.925395 
L 257.202424 302.011777 
L 260.208485 301.925395 
L 263.214545 299.383312 
L 266.220606 300.222446 
L 269.226667 301.086261 
L 272.232727 301.703272 
L 275.238788 301.345405 
L 278.244848 298.976085 
L 281.250909 301.308385 
L 284.25697 301.715612 
L 287.26303 300.777756 
L 290.269091 301.01222 
L 293.275152 301.246684 
L 296.281212 301.493488 
L 299.287273 302.011777 
L 302.293333 301.419447 
L 305.299394 297.334836 
L 308.305455 301.444127 
L 311.311515 301.542849 
L 314.317576 299.728838 
L 317.323636 294.595309 
L 320.329697 292.9047 
L 323.335758 300.000322 
L 326.341818 290.979627 
L 329.347879 293.805535 
L 332.353939 301.950076 
L 335.36 297.964187 
L 338.366061 283.094231 
L 341.372121 294.694031 
L 344.378182 301.098601 
L 347.384242 288.659667 
L 350.390303 300.345848 
L 353.396364 294.286804 
L 356.402424 289.350719 
L 359.408485 300.555632 
L 362.414545 279.750033 
L 365.420606 258.870393 
L 368.426667 285.266108 
L 371.432727 299.27225 
L 374.438788 295.150619 
L 377.444848 300.012662 
L 380.450909 299.173528 
L 383.45697 192.122182 
L 386.46303 219.801279 
L 389.469091 295.237 
L 392.475152 281.34192 
L 395.481212 261.227374 
L 398.487273 240.014548 
" clip-path="url(#pbfc8520dc5)" style="fill: none; stroke: #1f77b4; stroke-width: 1.5; stroke-linecap: square"/>
   </g>
   <g id="patch_8">
    <path d="M 57.6 307.584 
L 57.6 186.624 
" style="fill: none; stroke: #000000; stroke-width: 0.8; stroke-linejoin: miter; stroke-linecap: square"/>
   </g>
   <g id="patch_9">
    <path d="M 414.72 307.584 
L 414.72 186.624 
" style="fill: none; stroke: #000000; stroke-width: 0.8; stroke-linejoin: miter; stroke-linecap: square"/>
   </g>
   <g id="patch_10">
    <path d="M 57.6 307.584 
L 414.72 307.584 
" style="fill: none; stroke: #000000; stroke-width: 0.8; stroke-linejoin: miter; stroke-linecap: square"/>
   </g>
   <g id="patch_11">
    <path d="M 57.6 186.624 
L 414.72 186.624 
" style="fill: none; stroke: #000000; stroke-width: 0.8; stroke-linejoin: miter; stroke-linecap: square"/>
   </g>
  </g>
 </g>
 <defs>
  <clipPath id="pdf4dfdae62">
   <rect x="57.6" y="41.472" width="357.12" height="120.96"/>
  </clipPath>
  <clipPath id="pbfc8520dc5">
   <rect x="57.6" y="186.624" width="357.12" height="120.96"/>
  </clipPath>
 </defs>
</svg>
