<?xml version="1.0" encoding="utf-8" standalone="no"?>
<!DOCTYPE svg PUBLIC "-//W3C//DTD SVG 1.1//EN"
  "http://www.w3.org/Graphics/SVG/1.1/DTD/svg11.dtd">
<svg xmlns:xlink="http://www.w3.org/1999/xlink" width="460.8pt" height="345.6pt" viewBox="0 0 460.8 345.6" xmlns="http://www.w3.org/2000/svg" version="1.1">
 <metadata>
  <rdf:RDF xmlns:dc="http://purl.org/dc/elements/1.1/" xmlns:cc="http://creativecommons.org/ns#" xmlns:rdf="http://www.w3.org/1999/02/22-rdf-syntax-ns#">
   <cc:Work>
    <dc:type rdf:resource="http://purl.org/dc/dcmitype/StillImage"/>
    <dc:date>2022-05-13T16:55:03.989043</dc:date>
    <dc:format>image/svg+xml</dc:format>
    <dc:creator>
     <cc:Agent>
      <dc:title>Matplotlib v3.5.1, https://matplotlib.org/</dc:title>
     </cc:Agent>
    </dc:creator>
   </cc:Work>
  </rdf:RDF>
 </metadata>
 <defs>
  <style type="text/css">*{stroke-linejoin: round; stroke-linecap: butt}</style>
 </defs>
 <g id="figure_1">
  <g id="patch_1">
   <path d="M 0 345.6 
L 460.8 345.6 
L 460.8 0 
L 0 0 
z
" style="fill: #ffffff"/>
  </g>
  <g id="axes_1">
   <g id="patch_2">
    <path d="M 57.6 162.432 
L 414.72 162.432 
L 414.72 41.472 
L 57.6 41.472 
z
" style="fill: #ffffff"/>
   </g>
   <g id="matplotlib.axis_1">
    <g id="xtick_1">
     <g id="line2d_1">
      <defs>
       <path id="mc13c8a5bbd" d="M 0 0 
L 0 3.5 
" style="stroke: #000000; stroke-width: 0.8"/>
      </defs>
      <g>
       <use xlink:href="#mc13c8a5bbd" x="73.827491" y="162.432" style="stroke: #000000; stroke-width: 0.8"/>
      </g>
     </g>
     <g id="text_1">
      <!-- 0 -->
      <g transform="translate(70.646241 177.030437)scale(0.1 -0.1)">
       <defs>
        <path id="DejaVuSans-30" d="M 2034 4250 
Q 1547 4250 1301 3770 
Q 1056 3291 1056 2328 
Q 1056 1369 1301 889 
Q 1547 409 2034 409 
Q 2525 409 2770 889 
Q 3016 1369 3016 2328 
Q 3016 3291 2770 3770 
Q 2525 4250 2034 4250 
z
M 2034 4750 
Q 2819 4750 3233 4129 
Q 3647 3509 3647 2328 
Q 3647 1150 3233 529 
Q 2819 -91 2034 -91 
Q 1250 -91 836 529 
Q 422 1150 422 2328 
Q 422 3509 836 4129 
Q 1250 4750 2034 4750 
z
" transform="scale(0.015625)"/>
       </defs>
       <use xlink:href="#DejaVuSans-30"/>
      </g>
     </g>
    </g>
    <g id="xtick_2">
     <g id="line2d_2">
      <g>
       <use xlink:href="#mc13c8a5bbd" x="126.191972" y="162.432" style="stroke: #000000; stroke-width: 0.8"/>
      </g>
     </g>
     <g id="text_2">
      <!-- 10000 -->
      <g transform="translate(110.285722 177.030437)scale(0.1 -0.1)">
       <defs>
        <path id="DejaVuSans-31" d="M 794 531 
L 1825 531 
L 1825 4091 
L 703 3866 
L 703 4441 
L 1819 4666 
L 2450 4666 
L 2450 531 
L 3481 531 
L 3481 0 
L 794 0 
L 794 531 
z
" transform="scale(0.015625)"/>
       </defs>
       <use xlink:href="#DejaVuSans-31"/>
       <use xlink:href="#DejaVuSans-30" x="63.623047"/>
       <use xlink:href="#DejaVuSans-30" x="127.246094"/>
       <use xlink:href="#DejaVuSans-30" x="190.869141"/>
       <use xlink:href="#DejaVuSans-30" x="254.492188"/>
      </g>
     </g>
    </g>
    <g id="xtick_3">
     <g id="line2d_3">
      <g>
       <use xlink:href="#mc13c8a5bbd" x="178.556453" y="162.432" style="stroke: #000000; stroke-width: 0.8"/>
      </g>
     </g>
     <g id="text_3">
      <!-- 20000 -->
      <g transform="translate(162.650203 177.030437)scale(0.1 -0.1)">
       <defs>
        <path id="DejaVuSans-32" d="M 1228 531 
L 3431 531 
L 3431 0 
L 469 0 
L 469 531 
Q 828 903 1448 1529 
Q 2069 2156 2228 2338 
Q 2531 2678 2651 2914 
Q 2772 3150 2772 3378 
Q 2772 3750 2511 3984 
Q 2250 4219 1831 4219 
Q 1534 4219 1204 4116 
Q 875 4013 500 3803 
L 500 4441 
Q 881 4594 1212 4672 
Q 1544 4750 1819 4750 
Q 2544 4750 2975 4387 
Q 3406 4025 3406 3419 
Q 3406 3131 3298 2873 
Q 3191 2616 2906 2266 
Q 2828 2175 2409 1742 
Q 1991 1309 1228 531 
z
" transform="scale(0.015625)"/>
       </defs>
       <use xlink:href="#DejaVuSans-32"/>
       <use xlink:href="#DejaVuSans-30" x="63.623047"/>
       <use xlink:href="#DejaVuSans-30" x="127.246094"/>
       <use xlink:href="#DejaVuSans-30" x="190.869141"/>
       <use xlink:href="#DejaVuSans-30" x="254.492188"/>
      </g>
     </g>
    </g>
    <g id="xtick_4">
     <g id="line2d_4">
      <g>
       <use xlink:href="#mc13c8a5bbd" x="230.920934" y="162.432" style="stroke: #000000; stroke-width: 0.8"/>
      </g>
     </g>
     <g id="text_4">
      <!-- 30000 -->
      <g transform="translate(215.014684 177.030437)scale(0.1 -0.1)">
       <defs>
        <path id="DejaVuSans-33" d="M 2597 2516 
Q 3050 2419 3304 2112 
Q 3559 1806 3559 1356 
Q 3559 666 3084 287 
Q 2609 -91 1734 -91 
Q 1441 -91 1130 -33 
Q 819 25 488 141 
L 488 750 
Q 750 597 1062 519 
Q 1375 441 1716 441 
Q 2309 441 2620 675 
Q 2931 909 2931 1356 
Q 2931 1769 2642 2001 
Q 2353 2234 1838 2234 
L 1294 2234 
L 1294 2753 
L 1863 2753 
Q 2328 2753 2575 2939 
Q 2822 3125 2822 3475 
Q 2822 3834 2567 4026 
Q 2313 4219 1838 4219 
Q 1578 4219 1281 4162 
Q 984 4106 628 3988 
L 628 4550 
Q 988 4650 1302 4700 
Q 1616 4750 1894 4750 
Q 2613 4750 3031 4423 
Q 3450 4097 3450 3541 
Q 3450 3153 3228 2886 
Q 3006 2619 2597 2516 
z
" transform="scale(0.015625)"/>
       </defs>
       <use xlink:href="#DejaVuSans-33"/>
       <use xlink:href="#DejaVuSans-30" x="63.623047"/>
       <use xlink:href="#DejaVuSans-30" x="127.246094"/>
       <use xlink:href="#DejaVuSans-30" x="190.869141"/>
       <use xlink:href="#DejaVuSans-30" x="254.492188"/>
      </g>
     </g>
    </g>
    <g id="xtick_5">
     <g id="line2d_5">
      <g>
       <use xlink:href="#mc13c8a5bbd" x="283.285415" y="162.432" style="stroke: #000000; stroke-width: 0.8"/>
      </g>
     </g>
     <g id="text_5">
      <!-- 40000 -->
      <g transform="translate(267.379165 177.030437)scale(0.1 -0.1)">
       <defs>
        <path id="DejaVuSans-34" d="M 2419 4116 
L 825 1625 
L 2419 1625 
L 2419 4116 
z
M 2253 4666 
L 3047 4666 
L 3047 1625 
L 3713 1625 
L 3713 1100 
L 3047 1100 
L 3047 0 
L 2419 0 
L 2419 1100 
L 313 1100 
L 313 1709 
L 2253 4666 
z
" transform="scale(0.015625)"/>
       </defs>
       <use xlink:href="#DejaVuSans-34"/>
       <use xlink:href="#DejaVuSans-30" x="63.623047"/>
       <use xlink:href="#DejaVuSans-30" x="127.246094"/>
       <use xlink:href="#DejaVuSans-30" x="190.869141"/>
       <use xlink:href="#DejaVuSans-30" x="254.492188"/>
      </g>
     </g>
    </g>
    <g id="xtick_6">
     <g id="line2d_6">
      <g>
       <use xlink:href="#mc13c8a5bbd" x="335.649896" y="162.432" style="stroke: #000000; stroke-width: 0.8"/>
      </g>
     </g>
     <g id="text_6">
      <!-- 50000 -->
      <g transform="translate(319.743646 177.030437)scale(0.1 -0.1)">
       <defs>
        <path id="DejaVuSans-35" d="M 691 4666 
L 3169 4666 
L 3169 4134 
L 1269 4134 
L 1269 2991 
Q 1406 3038 1543 3061 
Q 1681 3084 1819 3084 
Q 2600 3084 3056 2656 
Q 3513 2228 3513 1497 
Q 3513 744 3044 326 
Q 2575 -91 1722 -91 
Q 1428 -91 1123 -41 
Q 819 9 494 109 
L 494 744 
Q 775 591 1075 516 
Q 1375 441 1709 441 
Q 2250 441 2565 725 
Q 2881 1009 2881 1497 
Q 2881 1984 2565 2268 
Q 2250 2553 1709 2553 
Q 1456 2553 1204 2497 
Q 953 2441 691 2322 
L 691 4666 
z
" transform="scale(0.015625)"/>
       </defs>
       <use xlink:href="#DejaVuSans-35"/>
       <use xlink:href="#DejaVuSans-30" x="63.623047"/>
       <use xlink:href="#DejaVuSans-30" x="127.246094"/>
       <use xlink:href="#DejaVuSans-30" x="190.869141"/>
       <use xlink:href="#DejaVuSans-30" x="254.492188"/>
      </g>
     </g>
    </g>
    <g id="xtick_7">
     <g id="line2d_7">
      <g>
       <use xlink:href="#mc13c8a5bbd" x="388.014377" y="162.432" style="stroke: #000000; stroke-width: 0.8"/>
      </g>
     </g>
     <g id="text_7">
      <!-- 60000 -->
      <g transform="translate(372.108127 177.030437)scale(0.1 -0.1)">
       <defs>
        <path id="DejaVuSans-36" d="M 2113 2584 
Q 1688 2584 1439 2293 
Q 1191 2003 1191 1497 
Q 1191 994 1439 701 
Q 1688 409 2113 409 
Q 2538 409 2786 701 
Q 3034 994 3034 1497 
Q 3034 2003 2786 2293 
Q 2538 2584 2113 2584 
z
M 3366 4563 
L 3366 3988 
Q 3128 4100 2886 4159 
Q 2644 4219 2406 4219 
Q 1781 4219 1451 3797 
Q 1122 3375 1075 2522 
Q 1259 2794 1537 2939 
Q 1816 3084 2150 3084 
Q 2853 3084 3261 2657 
Q 3669 2231 3669 1497 
Q 3669 778 3244 343 
Q 2819 -91 2113 -91 
Q 1303 -91 875 529 
Q 447 1150 447 2328 
Q 447 3434 972 4092 
Q 1497 4750 2381 4750 
Q 2619 4750 2861 4703 
Q 3103 4656 3366 4563 
z
" transform="scale(0.015625)"/>
       </defs>
       <use xlink:href="#DejaVuSans-36"/>
       <use xlink:href="#DejaVuSans-30" x="63.623047"/>
       <use xlink:href="#DejaVuSans-30" x="127.246094"/>
       <use xlink:href="#DejaVuSans-30" x="190.869141"/>
       <use xlink:href="#DejaVuSans-30" x="254.492188"/>
      </g>
     </g>
    </g>
   </g>
   <g id="matplotlib.axis_2">
    <g id="ytick_1">
     <g id="line2d_8">
      <defs>
       <path id="m035b798668" d="M 0 0 
L -3.5 0 
" style="stroke: #000000; stroke-width: 0.8"/>
      </defs>
      <g>
       <use xlink:href="#m035b798668" x="57.6" y="148.633756" style="stroke: #000000; stroke-width: 0.8"/>
      </g>
     </g>
     <g id="text_8">
      <!-- 0 -->
      <g transform="translate(44.2375 152.432975)scale(0.1 -0.1)">
       <use xlink:href="#DejaVuSans-30"/>
      </g>
     </g>
    </g>
    <g id="ytick_2">
     <g id="line2d_9">
      <g>
       <use xlink:href="#m035b798668" x="57.6" y="124.269583" style="stroke: #000000; stroke-width: 0.8"/>
      </g>
     </g>
     <g id="text_9">
      <!-- 25 -->
      <g transform="translate(37.875 128.068802)scale(0.1 -0.1)">
       <use xlink:href="#DejaVuSans-32"/>
       <use xlink:href="#DejaVuSans-35" x="63.623047"/>
      </g>
     </g>
    </g>
    <g id="ytick_3">
     <g id="line2d_10">
      <g>
       <use xlink:href="#m035b798668" x="57.6" y="99.905409" style="stroke: #000000; stroke-width: 0.8"/>
      </g>
     </g>
     <g id="text_10">
      <!-- 50 -->
      <g transform="translate(37.875 103.704628)scale(0.1 -0.1)">
       <use xlink:href="#DejaVuSans-35"/>
       <use xlink:href="#DejaVuSans-30" x="63.623047"/>
      </g>
     </g>
    </g>
    <g id="ytick_4">
     <g id="line2d_11">
      <g>
       <use xlink:href="#m035b798668" x="57.6" y="75.541236" style="stroke: #000000; stroke-width: 0.8"/>
      </g>
     </g>
     <g id="text_11">
      <!-- 75 -->
      <g transform="translate(37.875 79.340455)scale(0.1 -0.1)">
       <defs>
        <path id="DejaVuSans-37" d="M 525 4666 
L 3525 4666 
L 3525 4397 
L 1831 0 
L 1172 0 
L 2766 4134 
L 525 4134 
L 525 4666 
z
" transform="scale(0.015625)"/>
       </defs>
       <use xlink:href="#DejaVuSans-37"/>
       <use xlink:href="#DejaVuSans-35" x="63.623047"/>
      </g>
     </g>
    </g>
    <g id="ytick_5">
     <g id="line2d_12">
      <g>
       <use xlink:href="#m035b798668" x="57.6" y="51.177062" style="stroke: #000000; stroke-width: 0.8"/>
      </g>
     </g>
     <g id="text_12">
      <!-- 100 -->
      <g transform="translate(31.5125 54.976281)scale(0.1 -0.1)">
       <use xlink:href="#DejaVuSans-31"/>
       <use xlink:href="#DejaVuSans-30" x="63.623047"/>
       <use xlink:href="#DejaVuSans-30" x="127.246094"/>
      </g>
     </g>
    </g>
   </g>
   <g id="line2d_13">
    <path d="M 73.832727 50.933421 
L 73.837964 50.933421 
L 73.869382 50.040068 
L 73.890328 51.989202 
L 73.921747 51.177062 
L 74.031712 54.425619 
L 74.047422 53.938335 
L 74.057895 53.938335 
L 74.146914 52.476485 
L 74.173096 53.451052 
L 74.178333 53.451052 
L 74.251643 53.938335 
L 74.293535 52.801341 
L 74.309244 52.801341 
L 74.424446 55.725041 
L 74.429682 55.237758 
L 74.56583 55.237758 
L 74.691505 53.775908 
L 74.790997 53.775908 
L 74.906199 54.750475 
L 74.932381 54.750475 
L 75.05282 53.775908 
L 75.058056 53.775908 
L 75.173258 54.750475 
L 75.21515 54.750475 
L 75.330351 54.263191 
L 75.43508 54.263191 
L 75.550282 55.237758 
L 75.592174 55.237758 
L 75.707376 54.750475 
L 75.728321 54.750475 
L 75.764977 53.775908 
L 75.838287 54.750475 
L 76.304331 54.750475 
L 76.419533 55.725041 
L 76.922232 55.725041 
L 77.047906 58.648742 
L 77.241655 58.648742 
L 77.356857 58.161459 
L 77.503477 58.161459 
L 77.618679 57.674175 
L 77.639625 57.674175 
L 77.754827 58.648742 
L 77.859556 58.648742 
L 77.922393 59.623309 
L 77.969521 59.136026 
L 78.137088 59.136026 
L 78.252289 58.648742 
L 78.896373 58.648742 
L 79.011574 58.161459 
L 79.095358 58.161459 
L 79.210559 57.674175 
L 79.336234 57.674175 
L 79.404308 57.186892 
L 79.409544 58.161459 
L 79.440963 58.161459 
L 80.399233 58.161459 
L 80.514435 59.136026 
L 80.587745 59.136026 
L 80.682001 58.648742 
L 80.687238 59.623309 
L 80.692474 59.623309 
L 81.331321 59.623309 
L 81.446523 59.136026 
L 81.52507 59.136026 
L 81.540779 60.110593 
L 81.635035 59.136026 
L 81.655981 59.136026 
L 81.771183 60.110593 
L 82.012059 60.110593 
L 82.127261 59.623309 
L 82.666615 59.623309 
L 82.781817 59.136026 
L 83.054112 59.136026 
L 83.174551 58.161459 
L 84.462717 58.161459 
L 84.577919 59.136026 
L 85.394805 59.136026 
L 85.515243 58.161459 
L 85.729937 58.161459 
L 85.845139 59.136026 
L 86.101725 59.136026 
L 86.216927 58.648742 
L 86.258819 58.648742 
L 86.37402 59.623309 
L 86.573005 59.623309 
L 86.688207 60.597876 
L 87.11236 60.597876 
L 87.227562 60.110593 
L 88.861333 60.110593 
L 88.976535 61.08516 
L 89.117919 61.08516 
L 89.233121 60.597876 
L 90.358957 60.597876 
L 90.474159 60.354234 
L 90.78311 60.354234 
L 90.898312 59.866951 
L 91.332937 59.866951 
L 91.448139 59.379668 
L 93.364679 59.379668 
L 93.479881 58.892384 
L 94.228693 58.892384 
L 94.343894 59.866951 
L 95.113652 59.866951 
L 95.228854 60.841518 
L 95.516859 60.841518 
L 95.632061 60.354234 
L 98.056536 60.354234 
L 98.171738 59.866951 
L 99.674599 59.866951 
L 99.7898 60.841518 
L 100.046386 60.841518 
L 100.161588 60.354234 
L 103.680481 60.354234 
L 103.795683 61.328801 
L 104.057506 61.328801 
L 104.172708 60.841518 
L 104.497367 60.841518 
L 104.612569 60.354234 
L 105.848371 60.354234 
L 105.963573 59.866951 
L 106.571001 59.866951 
L 106.686203 59.379668 
L 110.000874 59.379668 
L 110.116076 60.354234 
L 110.220805 60.354234 
L 110.336007 61.328801 
L 111.016745 61.328801 
L 111.131947 60.841518 
L 116.195592 60.841518 
L 116.310794 61.816085 
L 120.515662 61.816085 
L 120.630864 61.328801 
L 120.662283 61.328801 
L 120.777484 62.303368 
L 120.918869 62.303368 
L 121.03407 61.816085 
L 126.699907 61.816085 
L 126.815109 61.328801 
L 127.160715 61.328801 
L 127.275917 61.08516 
L 127.34399 61.08516 
L 127.459192 62.059727 
L 128.621684 62.059727 
L 128.736886 63.034294 
L 130.14549 63.034294 
L 130.260692 62.54701 
L 134.758801 62.54701 
L 134.874003 63.521577 
L 138.539516 63.521577 
L 138.654718 63.034294 
L 139.152181 63.034294 
L 139.267383 64.00886 
L 143.032389 64.00886 
L 143.147591 63.521577 
L 160.537835 63.521577 
L 160.653037 63.034294 
L 172.775414 63.034294 
L 172.890616 64.00886 
L 181.190386 64.00886 
L 181.305588 63.521577 
L 200.209166 63.521577 
L 200.324367 64.496144 
L 207.482592 64.496144 
L 207.597794 64.00886 
L 217.819341 64.00886 
L 217.934542 63.521577 
L 221.961371 63.521577 
L 222.076573 63.034294 
L 232.575651 63.034294 
L 232.690853 64.00886 
L 238.419527 64.00886 
L 238.534729 63.521577 
L 251.84578 63.521577 
L 251.960982 63.034294 
L 256.113485 63.034294 
L 256.228687 64.00886 
L 265.507673 64.00886 
L 265.622875 63.521577 
L 278.949636 63.521577 
L 279.064837 63.034294 
L 281.630697 63.034294 
L 281.745899 62.54701 
L 293.203247 62.54701 
L 293.318449 63.521577 
L 294.397157 63.521577 
L 294.512359 63.034294 
L 299.314182 63.034294 
L 299.429384 62.54701 
L 311.18521 62.54701 
L 311.300412 63.521577 
L 316.149363 63.521577 
L 316.264565 64.496144 
L 333.675755 64.496144 
L 333.790957 64.00886 
L 347.641362 64.00886 
L 347.756564 64.983427 
L 356.176772 64.983427 
L 356.291974 64.496144 
L 371.242033 64.496144 
L 371.357235 64.00886 
L 395.60199 64.00886 
L 395.717192 64.983427 
L 396.282728 64.983427 
L 396.39793 64.496144 
L 398.487273 64.496144 
L 398.487273 64.496144 
" clip-path="url(#p09dd27de02)" style="fill: none; stroke: #1f77b4; stroke-width: 1.5; stroke-linecap: square"/>
   </g>
   <g id="line2d_14">
    <path d="M 73.832727 52.151629 
L 73.8432 52.151629 
L 73.984584 58.648742 
L 74.00553 59.136026 
L 74.099786 58.161459 
L 74.115495 58.161459 
L 74.146914 57.186892 
L 74.230697 57.674175 
L 74.246407 57.674175 
L 74.372081 61.08516 
L 74.398264 60.110593 
L 74.487283 60.597876 
L 74.56583 60.597876 
L 74.581539 61.08516 
L 74.681032 60.110593 
L 74.738633 60.110593 
L 74.859071 62.059727 
L 74.932381 62.059727 
L 74.9638 61.08516 
L 75.042347 62.059727 
L 75.058056 62.059727 
L 75.173258 63.034294 
L 75.21515 63.034294 
L 75.330351 62.54701 
L 75.43508 62.54701 
L 75.550282 63.521577 
L 75.592174 63.521577 
L 75.707376 63.034294 
L 75.728321 63.034294 
L 75.764977 62.059727 
L 75.838287 63.034294 
L 76.052981 63.034294 
L 76.168183 64.00886 
L 76.304331 64.00886 
L 76.419533 64.983427 
L 76.901286 64.983427 
L 77.021724 66.932561 
L 77.04267 66.932561 
L 77.157872 67.907128 
L 77.241655 67.907128 
L 77.356857 67.419845 
L 77.503477 67.419845 
L 77.618679 66.932561 
L 77.922393 66.932561 
L 78.037595 66.445278 
L 78.137088 66.445278 
L 78.252289 65.957994 
L 78.896373 65.957994 
L 79.011574 65.470711 
L 79.058702 65.470711 
L 79.095358 66.445278 
L 79.168668 65.957994 
L 79.336234 65.957994 
L 79.404308 65.470711 
L 79.409544 66.445278 
L 79.440963 66.445278 
L 80.048391 66.445278 
L 80.163593 67.419845 
L 80.587745 67.419845 
L 80.682001 66.932561 
L 80.687238 67.907128 
L 80.692474 67.907128 
L 81.331321 67.907128 
L 81.336557 67.419845 
L 81.341794 68.394412 
L 81.43605 68.394412 
L 81.52507 68.394412 
L 81.540779 69.368979 
L 81.635035 68.394412 
L 81.655981 68.394412 
L 81.771183 69.368979 
L 82.012059 69.368979 
L 82.127261 68.881695 
L 82.656142 68.881695 
L 82.666615 69.856262 
L 82.766108 69.368979 
L 83.054112 69.368979 
L 83.174551 68.394412 
L 83.787215 68.394412 
L 83.902417 69.368979 
L 85.190583 69.368979 
L 85.305785 70.343546 
L 85.394805 70.343546 
L 85.515243 69.368979 
L 86.101725 69.368979 
L 86.106962 68.881695 
L 86.112198 69.856262 
L 86.206454 69.856262 
L 86.452567 69.856262 
L 86.567769 70.830829 
L 86.573005 70.830829 
L 86.688207 71.805396 
L 87.11236 71.805396 
L 87.227562 71.318113 
L 88.861333 71.318113 
L 88.981772 73.267246 
L 89.117919 73.267246 
L 89.233121 72.779963 
L 90.78311 72.779963 
L 90.898312 72.292679 
L 91.332937 72.292679 
L 91.448139 71.805396 
L 93.364679 71.805396 
L 93.479881 71.318113 
L 93.956397 71.318113 
L 94.071599 72.292679 
L 94.485279 72.292679 
L 94.60048 73.267246 
L 95.516859 73.267246 
L 95.632061 72.779963 
L 98.056536 72.779963 
L 98.171738 72.292679 
L 98.726802 72.292679 
L 98.842003 73.267246 
L 99.674599 73.267246 
L 99.7898 74.241813 
L 100.046386 74.241813 
L 100.161588 73.75453 
L 103.680481 73.75453 
L 103.795683 74.729097 
L 104.057506 74.729097 
L 104.172708 74.241813 
L 104.497367 74.241813 
L 104.612569 73.75453 
L 105.398036 73.75453 
L 105.513238 74.729097 
L 105.623204 74.729097 
L 105.738406 73.75453 
L 105.848371 73.75453 
L 105.963573 73.267246 
L 106.052592 73.267246 
L 106.167794 73.023605 
L 106.214922 73.023605 
L 106.330124 73.998172 
L 106.571001 73.998172 
L 106.686203 73.510888 
L 109.398683 73.510888 
L 109.513885 74.485455 
L 110.000874 74.485455 
L 110.116076 75.460022 
L 110.220805 75.460022 
L 110.336007 76.434589 
L 111.016745 76.434589 
L 111.131947 75.947305 
L 116.195592 75.947305 
L 116.310794 76.921872 
L 120.515662 76.921872 
L 120.630864 76.434589 
L 120.662283 76.434589 
L 120.777484 77.409156 
L 120.918869 77.409156 
L 121.03407 76.921872 
L 126.699907 76.921872 
L 126.815109 76.434589 
L 127.34399 76.434589 
L 127.459192 77.409156 
L 128.621684 77.409156 
L 128.736886 78.383723 
L 130.14549 78.383723 
L 130.260692 77.896439 
L 134.758801 77.896439 
L 134.874003 78.871006 
L 138.539516 78.871006 
L 138.654718 78.383723 
L 140.571258 78.383723 
L 140.68646 79.35829 
L 143.032389 79.35829 
L 143.147591 78.871006 
L 145.72916 78.871006 
L 145.844361 77.896439 
L 152.777419 77.896439 
L 152.892621 78.871006 
L 160.537835 78.871006 
L 160.653037 78.383723 
L 172.775414 78.383723 
L 172.890616 79.35829 
L 181.190386 79.35829 
L 181.305588 78.871006 
L 184.60455 78.871006 
L 184.719752 79.845573 
L 200.209166 79.845573 
L 200.324367 80.82014 
L 207.482592 80.82014 
L 207.597794 80.332857 
L 217.819341 80.332857 
L 217.934542 79.845573 
L 221.961371 79.845573 
L 222.076573 79.35829 
L 232.575651 79.35829 
L 232.690853 80.332857 
L 238.419527 80.332857 
L 238.534729 79.845573 
L 251.84578 79.845573 
L 251.960982 79.35829 
L 256.113485 79.35829 
L 256.228687 80.332857 
L 262.187765 80.332857 
L 262.302967 81.307424 
L 265.507673 81.307424 
L 265.622875 80.82014 
L 278.949636 80.82014 
L 279.064837 80.332857 
L 279.48899 80.332857 
L 279.604192 81.307424 
L 281.630697 81.307424 
L 281.745899 80.82014 
L 293.203247 80.82014 
L 293.318449 81.794707 
L 294.397157 81.794707 
L 294.512359 81.307424 
L 299.314182 81.307424 
L 299.429384 80.82014 
L 304.529685 80.82014 
L 304.644886 79.845573 
L 311.18521 79.845573 
L 311.300412 80.82014 
L 316.149363 80.82014 
L 316.264565 81.794707 
L 332.115293 81.794707 
L 332.230495 80.82014 
L 333.675755 80.82014 
L 333.790957 80.332857 
L 340.598339 80.332857 
L 340.713541 81.307424 
L 347.641362 81.307424 
L 347.756564 82.281991 
L 356.176772 82.281991 
L 356.291974 81.794707 
L 371.242033 81.794707 
L 371.357235 81.307424 
L 374.556705 81.307424 
L 374.671907 82.281991 
L 395.60199 82.281991 
L 395.717192 83.256558 
L 396.282728 83.256558 
L 396.39793 82.769274 
L 398.487273 82.769274 
L 398.487273 82.769274 
" clip-path="url(#p09dd27de02)" style="fill: none; stroke: #ff7f0e; stroke-width: 1.5; stroke-linecap: square"/>
   </g>
   <g id="line2d_15">
    <path d="M 73.832727 50.933421 
L 73.837964 50.933421 
L 73.879855 49.796426 
L 73.890328 51.74556 
L 73.947929 50.900935 
L 73.979348 50.900935 
L 74.026476 50.576079 
L 74.036949 52.525213 
L 74.057895 52.525213 
L 74.183569 55.448914 
L 74.272589 55.448914 
L 74.387791 54.555561 
L 74.508229 56.504695 
L 74.56583 56.504695 
L 74.681032 57.479262 
L 74.738633 57.479262 
L 74.853835 56.504695 
L 74.958564 56.504695 
L 74.9638 57.479262 
L 75.068529 56.504695 
L 75.21515 56.504695 
L 75.330351 57.479262 
L 75.43508 57.479262 
L 75.550282 57.23562 
L 75.728321 57.23562 
L 75.764977 59.184754 
L 75.843523 58.941112 
L 76.052981 58.941112 
L 76.110582 57.966545 
L 76.162947 58.941112 
L 76.283385 58.941112 
L 76.304331 59.915679 
L 76.39335 59.672038 
L 76.670882 59.672038 
L 76.786084 60.646605 
L 76.901286 60.646605 
L 77.016488 59.428396 
L 77.04267 59.428396 
L 77.068852 59.184754 
L 77.074089 60.159321 
L 77.136926 60.159321 
L 77.362093 60.159321 
L 77.477295 59.184754 
L 77.503477 59.184754 
L 77.618679 60.159321 
L 77.922393 60.159321 
L 78.037595 61.133888 
L 78.137088 61.133888 
L 78.252289 62.108455 
L 78.770698 62.108455 
L 78.8859 61.133888 
L 78.896373 61.133888 
L 79.011574 62.108455 
L 79.042993 62.108455 
L 79.095358 60.159321 
L 79.158195 61.133888 
L 79.336234 61.133888 
L 79.404308 62.108455 
L 79.4462 61.864813 
L 80.048391 61.864813 
L 80.163593 60.890246 
L 80.587745 60.890246 
L 80.682001 61.864813 
L 80.697711 61.621171 
L 81.331321 61.621171 
L 81.336557 62.595738 
L 81.441286 61.621171 
L 81.52507 61.621171 
L 81.540779 61.37753 
L 81.59838 63.326664 
L 81.655981 63.326664 
L 81.771183 63.083022 
L 82.012059 63.083022 
L 82.127261 64.057589 
L 82.656142 64.057589 
L 82.771344 63.083022 
L 83.054112 63.083022 
L 83.174551 65.032156 
L 83.787215 65.032156 
L 83.902417 64.057589 
L 85.038726 64.057589 
L 85.153928 65.032156 
L 85.190583 65.032156 
L 85.305785 64.057589 
L 85.394805 64.057589 
L 85.510007 65.032156 
L 86.101725 65.032156 
L 86.106962 66.006723 
L 86.211691 65.032156 
L 86.452567 65.032156 
L 86.567769 64.057589 
L 86.573005 64.057589 
L 86.688207 63.813947 
L 87.11236 63.813947 
L 87.227562 64.788514 
L 88.861333 64.788514 
L 88.997481 63.570305 
L 89.117919 63.570305 
L 89.233121 64.544872 
L 90.78311 64.544872 
L 90.898312 65.519439 
L 91.332937 65.519439 
L 91.448139 66.494006 
L 91.552868 66.494006 
L 91.668069 65.519439 
L 93.364679 65.519439 
L 93.479881 66.494006 
L 93.956397 66.494006 
L 94.071599 65.519439 
L 94.485279 65.519439 
L 94.60048 64.544872 
L 95.516859 64.544872 
L 95.632061 65.519439 
L 98.056536 65.519439 
L 98.171738 66.494006 
L 98.726802 66.494006 
L 98.842003 65.519439 
L 99.674599 65.519439 
L 99.7898 65.275798 
L 100.046386 65.275798 
L 100.161588 66.250364 
L 103.680481 66.250364 
L 103.795683 66.006723 
L 104.057506 66.006723 
L 104.172708 66.98129 
L 104.497367 66.98129 
L 104.612569 67.955857 
L 105.398036 67.955857 
L 105.513238 66.98129 
L 106.052592 66.98129 
L 106.167794 67.955857 
L 106.214922 67.955857 
L 106.330124 66.98129 
L 106.571001 66.98129 
L 106.686203 67.955857 
L 107.38265 67.955857 
L 107.497852 66.98129 
L 108.964058 66.98129 
L 109.079259 67.955857 
L 109.398683 67.955857 
L 109.513885 66.98129 
L 110.000874 66.98129 
L 110.116076 66.737648 
L 111.016745 66.737648 
L 111.131947 67.712215 
L 116.001844 67.712215 
L 116.117046 68.686782 
L 116.195592 68.686782 
L 116.310794 68.44314 
L 119.798269 68.44314 
L 119.913471 67.468573 
L 120.515662 67.468573 
L 120.630864 68.44314 
L 120.662283 68.44314 
L 120.777484 68.199498 
L 120.918869 68.199498 
L 121.03407 69.174065 
L 126.699907 69.174065 
L 126.815109 70.148632 
L 127.34399 70.148632 
L 127.459192 69.90499 
L 128.621684 69.90499 
L 128.736886 69.661349 
L 129.480461 69.661349 
L 129.595663 68.686782 
L 130.14549 68.686782 
L 130.260692 69.661349 
L 134.758801 69.661349 
L 134.874003 69.417707 
L 138.539516 69.417707 
L 138.654718 70.392274 
L 140.571258 70.392274 
L 140.68646 69.417707 
L 143.032389 69.417707 
L 143.147591 70.392274 
L 152.777419 70.392274 
L 152.892621 69.417707 
L 153.269645 69.417707 
L 153.384847 68.44314 
L 153.651906 68.44314 
L 153.767107 69.417707 
L 160.537835 69.417707 
L 160.653037 70.392274 
L 172.775414 70.392274 
L 172.890616 70.148632 
L 181.190386 70.148632 
L 181.305588 71.123199 
L 184.60455 71.123199 
L 184.719752 70.148632 
L 200.209166 70.148632 
L 200.324367 69.90499 
L 207.482592 69.90499 
L 207.597794 70.879557 
L 213.373596 70.879557 
L 213.488798 69.90499 
L 217.819341 69.90499 
L 217.934542 70.879557 
L 221.961371 70.879557 
L 222.076573 71.854124 
L 223.411867 71.854124 
L 223.527069 70.879557 
L 232.575651 70.879557 
L 232.690853 70.635916 
L 238.419527 70.635916 
L 238.534729 71.610483 
L 251.84578 71.610483 
L 251.960982 72.58505 
L 256.113485 72.58505 
L 256.228687 72.341408 
L 262.187765 72.341408 
L 262.302967 71.366841 
L 265.507673 71.366841 
L 265.622875 72.341408 
L 276.205737 72.341408 
L 276.320939 71.366841 
L 279.48899 71.366841 
L 279.604192 70.392274 
L 281.630697 70.392274 
L 281.745899 71.366841 
L 293.203247 71.366841 
L 293.318449 71.123199 
L 294.397157 71.123199 
L 294.512359 72.097766 
L 333.675755 72.097766 
L 333.790957 73.072333 
L 339.393956 73.072333 
L 339.509158 74.0469 
L 340.598339 74.0469 
L 340.713541 73.072333 
L 347.59947 73.072333 
L 347.714672 71.854124 
L 356.176772 71.854124 
L 356.291974 72.828691 
L 371.242033 72.828691 
L 371.357235 73.803258 
L 374.556705 73.803258 
L 374.671907 72.828691 
L 395.60199 72.828691 
L 395.717192 72.58505 
L 396.282728 72.58505 
L 396.39793 73.559616 
L 398.487273 73.559616 
L 398.487273 73.559616 
" clip-path="url(#p09dd27de02)" style="fill: none; stroke: #2ca02c; stroke-width: 1.5; stroke-linecap: square"/>
   </g>
   <g id="line2d_16">
    <path d="M 73.832727 51.177062 
L 73.8432 51.177062 
L 73.864146 50.933421 
L 73.900801 52.443999 
L 73.926983 52.249086 
L 73.942693 52.249086 
L 74.063131 51.030877 
L 74.099786 51.030877 
L 74.220224 50.543594 
L 74.356372 50.543594 
L 74.47681 50.05631 
L 74.790997 50.05631 
L 74.906199 49.812669 
L 76.110582 49.812669 
L 76.225784 49.487813 
L 76.283385 49.487813 
L 76.398587 49.162957 
L 76.670882 49.162957 
L 76.786084 48.838102 
L 77.068852 48.838102 
L 77.184054 48.59446 
L 85.038726 48.59446 
L 85.153928 48.269604 
L 106.052592 48.269604 
L 106.167794 48.025963 
L 108.964058 48.025963 
L 109.079259 47.782321 
L 116.001844 47.782321 
L 116.117046 47.538679 
L 153.651906 47.538679 
L 153.767107 47.295037 
L 339.393956 47.295037 
L 339.509158 46.970182 
L 398.487273 46.970182 
L 398.487273 46.970182 
" clip-path="url(#p09dd27de02)" style="fill: none; stroke: #d62728; stroke-width: 1.5; stroke-linecap: square"/>
   </g>
   <g id="line2d_17">
    <path d="M 73.832727 50.933421 
L 73.837964 50.933421 
L 73.879855 50.689779 
L 73.885092 51.664346 
L 73.937456 51.469433 
L 74.099786 51.469433 
L 74.214988 52.443999 
L 74.366845 52.443999 
L 74.482047 52.200358 
L 75.141839 52.200358 
L 75.257041 53.174925 
L 75.43508 53.174925 
L 75.550282 52.931283 
L 75.764977 52.931283 
L 75.880178 52.687641 
L 76.110582 52.687641 
L 76.225784 53.662208 
L 76.283385 53.662208 
L 76.304331 54.636775 
L 76.39335 54.393133 
L 76.670882 54.393133 
L 76.786084 55.3677 
L 76.854158 55.3677 
L 76.922232 56.342267 
L 76.964123 56.098625 
L 77.021724 56.098625 
L 77.068852 55.530128 
L 77.074089 56.504695 
L 77.121217 56.504695 
L 77.639625 56.504695 
L 77.754827 56.179839 
L 77.859556 56.179839 
L 77.974758 55.854984 
L 78.294181 55.854984 
L 78.409383 56.829551 
L 79.404308 56.829551 
L 79.51951 56.585909 
L 80.399233 56.585909 
L 80.514435 56.261053 
L 80.682001 56.261053 
L 80.797203 56.017412 
L 81.52507 56.017412 
L 81.640271 55.77377 
L 81.655981 55.77377 
L 81.771183 55.530128 
L 84.462717 55.530128 
L 84.577919 55.205272 
L 85.038726 55.205272 
L 85.153928 56.179839 
L 85.729937 56.179839 
L 85.845139 55.854984 
L 86.258819 55.854984 
L 86.37402 55.530128 
L 86.573005 55.530128 
L 86.688207 55.286486 
L 88.861333 55.286486 
L 88.976535 55.042845 
L 90.358957 55.042845 
L 90.474159 56.017412 
L 94.228693 56.017412 
L 94.343894 55.692556 
L 95.113652 55.692556 
L 95.228854 55.3677 
L 99.674599 55.3677 
L 99.7898 55.124059 
L 103.680481 55.124059 
L 103.795683 54.880417 
L 108.964058 54.880417 
L 109.079259 55.854984 
L 110.000874 55.854984 
L 110.116076 55.611342 
L 111.084819 55.611342 
L 111.200021 56.585909 
L 116.001844 56.585909 
L 116.117046 57.560476 
L 116.195592 57.560476 
L 116.310794 57.316834 
L 120.662283 57.316834 
L 120.777484 57.073192 
L 127.160715 57.073192 
L 127.275917 58.047759 
L 127.34399 58.047759 
L 127.459192 57.804118 
L 128.621684 57.804118 
L 128.736886 57.560476 
L 134.758801 57.560476 
L 134.874003 57.316834 
L 139.152181 57.316834 
L 139.267383 56.991979 
L 153.651906 56.991979 
L 153.767107 57.966545 
L 172.775414 57.966545 
L 172.890616 57.722904 
L 200.209166 57.722904 
L 200.324367 57.479262 
L 232.575651 57.479262 
L 232.690853 57.23562 
L 256.113485 57.23562 
L 256.228687 56.991979 
L 293.203247 56.991979 
L 293.318449 56.748337 
L 339.393956 56.748337 
L 339.509158 57.722904 
L 347.641362 57.722904 
L 347.756564 57.479262 
L 395.60199 57.479262 
L 395.717192 57.23562 
L 398.487273 57.23562 
L 398.487273 57.23562 
" clip-path="url(#p09dd27de02)" style="fill: none; stroke: #9467bd; stroke-width: 1.5; stroke-linecap: square"/>
   </g>
   <g id="line2d_18">
    <path d="M 73.832727 51.177062 
L 73.8432 51.177062 
L 73.968875 50.283709 
L 73.979348 50.283709 
L 74.09455 49.958854 
L 74.272589 49.958854 
L 74.393027 49.309142 
L 75.141839 49.309142 
L 75.257041 48.984287 
L 76.854158 48.984287 
L 76.96936 48.659431 
L 78.294181 48.659431 
L 78.409383 48.334576 
L 90.358957 48.334576 
L 90.474159 48.090934 
L 106.052592 48.090934 
L 106.167794 49.065501 
L 111.084819 49.065501 
L 111.200021 48.740645 
L 127.160715 48.740645 
L 127.275917 48.497003 
L 398.487273 48.497003 
L 398.487273 48.497003 
" clip-path="url(#p09dd27de02)" style="fill: none; stroke: #8c564b; stroke-width: 1.5; stroke-linecap: square"/>
   </g>
   <g id="line2d_19">
    <path d="M 73.832727 50.933421 
L 73.837964 50.933421 
L 73.885092 51.664346 
L 73.958402 50.494866 
L 73.974111 50.494866 
L 74.089313 50.007582 
L 74.099786 50.007582 
L 74.214988 50.982149 
L 74.366845 50.982149 
L 74.482047 50.738507 
L 75.141839 50.738507 
L 75.257041 51.713074 
L 75.43508 51.713074 
L 75.550282 51.469433 
L 75.764977 51.469433 
L 75.880178 51.225791 
L 76.110582 51.225791 
L 76.225784 52.200358 
L 76.283385 52.200358 
L 76.304331 53.174925 
L 76.39335 52.931283 
L 76.670882 52.931283 
L 76.786084 53.90585 
L 76.854158 53.90585 
L 76.922232 54.880417 
L 76.964123 54.636775 
L 77.021724 54.636775 
L 77.068852 54.068278 
L 77.074089 55.042845 
L 77.121217 55.042845 
L 77.639625 55.042845 
L 77.754827 54.717989 
L 77.859556 54.717989 
L 77.974758 54.393133 
L 78.294181 54.393133 
L 78.409383 55.3677 
L 79.404308 55.3677 
L 79.51951 55.124059 
L 80.399233 55.124059 
L 80.514435 54.799203 
L 80.682001 54.799203 
L 80.797203 54.555561 
L 81.52507 54.555561 
L 81.640271 54.311919 
L 81.655981 54.311919 
L 81.771183 54.068278 
L 84.462717 54.068278 
L 84.577919 53.743422 
L 85.038726 53.743422 
L 85.153928 54.717989 
L 85.729937 54.717989 
L 85.845139 54.393133 
L 86.258819 54.393133 
L 86.37402 54.068278 
L 86.573005 54.068278 
L 86.688207 53.824636 
L 88.861333 53.824636 
L 88.976535 53.580994 
L 90.358957 53.580994 
L 90.474159 54.555561 
L 94.228693 54.555561 
L 94.343894 54.230706 
L 95.113652 54.230706 
L 95.228854 53.90585 
L 99.674599 53.90585 
L 99.7898 53.662208 
L 103.680481 53.662208 
L 103.795683 53.418566 
L 108.964058 53.418566 
L 109.079259 54.393133 
L 110.000874 54.393133 
L 110.116076 54.149492 
L 111.084819 54.149492 
L 111.200021 55.124059 
L 116.001844 55.124059 
L 116.117046 56.098625 
L 116.195592 56.098625 
L 116.310794 55.854984 
L 120.662283 55.854984 
L 120.777484 55.611342 
L 127.160715 55.611342 
L 127.275917 56.585909 
L 127.34399 56.585909 
L 127.459192 56.342267 
L 128.621684 56.342267 
L 128.736886 56.098625 
L 134.758801 56.098625 
L 134.874003 55.854984 
L 139.152181 55.854984 
L 139.267383 55.530128 
L 153.651906 55.530128 
L 153.767107 56.504695 
L 172.775414 56.504695 
L 172.890616 56.261053 
L 200.209166 56.261053 
L 200.324367 56.017412 
L 232.575651 56.017412 
L 232.690853 55.77377 
L 256.113485 55.77377 
L 256.228687 55.530128 
L 293.203247 55.530128 
L 293.318449 55.286486 
L 339.393956 55.286486 
L 339.509158 56.261053 
L 347.641362 56.261053 
L 347.756564 56.017412 
L 395.60199 56.017412 
L 395.717192 55.77377 
L 398.487273 55.77377 
L 398.487273 55.77377 
" clip-path="url(#p09dd27de02)" style="fill: none; stroke: #e377c2; stroke-width: 1.5; stroke-linecap: square"/>
   </g>
   <g id="line2d_20">
    <path d="M 73.832727 52.151629 
L 73.837964 52.151629 
L 73.947929 56.585909 
L 73.968875 56.342267 
L 73.974111 56.098625 
L 73.979348 57.073192 
L 74.068367 56.829551 
L 74.099786 56.829551 
L 74.115495 56.585909 
L 74.136441 58.535043 
L 74.178333 58.291401 
L 74.283062 58.291401 
L 74.398264 59.996893 
L 74.513466 59.753252 
L 74.628667 59.753252 
L 74.743869 60.727818 
L 74.790997 60.727818 
L 74.906199 60.484177 
L 74.932381 60.484177 
L 75.047583 61.458744 
L 75.141839 61.458744 
L 75.257041 61.133888 
L 75.592174 61.133888 
L 75.707376 62.108455 
L 76.110582 62.108455 
L 76.225784 61.783599 
L 76.283385 61.783599 
L 76.398587 61.458744 
L 76.670882 61.458744 
L 76.786084 61.133888 
L 76.854158 61.133888 
L 76.96936 60.809032 
L 77.021724 60.809032 
L 77.068852 61.783599 
L 77.13169 61.539958 
L 77.241655 61.539958 
L 77.356857 62.514525 
L 77.362093 62.514525 
L 77.477295 63.489091 
L 77.639625 63.489091 
L 77.754827 64.463658 
L 77.859556 64.463658 
L 77.974758 65.438225 
L 78.294181 65.438225 
L 78.409383 65.11337 
L 78.770698 65.11337 
L 78.8859 66.087937 
L 79.042993 66.087937 
L 79.158195 67.062504 
L 80.399233 67.062504 
L 80.514435 68.03707 
L 82.708507 68.03707 
L 82.823709 69.011637 
L 84.462717 69.011637 
L 84.577919 69.986204 
L 85.038726 69.986204 
L 85.153928 69.661349 
L 85.729937 69.661349 
L 85.845139 70.635916 
L 86.258819 70.635916 
L 86.37402 71.610483 
L 90.358957 71.610483 
L 90.474159 71.366841 
L 91.552868 71.366841 
L 91.668069 72.341408 
L 94.228693 72.341408 
L 94.343894 73.315975 
L 95.113652 73.315975 
L 95.228854 74.290542 
L 107.38265 74.290542 
L 107.497852 75.265109 
L 108.964058 75.265109 
L 109.079259 75.021467 
L 111.084819 75.021467 
L 111.200021 74.696611 
L 116.001844 74.696611 
L 116.117046 74.45297 
L 119.798269 74.45297 
L 119.913471 75.427536 
L 127.160715 75.427536 
L 127.275917 75.183895 
L 129.480461 75.183895 
L 129.595663 76.158462 
L 139.152181 76.158462 
L 139.267383 77.133029 
L 153.269645 77.133029 
L 153.384847 78.107596 
L 153.651906 78.107596 
L 153.767107 77.863954 
L 213.373596 77.863954 
L 213.488798 78.838521 
L 223.411867 78.838521 
L 223.527069 79.813088 
L 276.205737 79.813088 
L 276.320939 80.787655 
L 339.393956 80.787655 
L 339.509158 80.462799 
L 347.59947 80.462799 
L 347.714672 81.437366 
L 398.487273 81.437366 
L 398.487273 81.437366 
" clip-path="url(#p09dd27de02)" style="fill: none; stroke: #7f7f7f; stroke-width: 1.5; stroke-linecap: square"/>
   </g>
   <g id="line2d_21">
    <path d="M 73.832727 52.151629 
L 73.837964 52.151629 
L 73.942693 56.390996 
L 73.963638 55.66007 
L 73.968875 55.66007 
L 73.974111 55.416429 
L 73.984584 57.365563 
L 74.031712 57.121921 
L 74.146914 60.776547 
L 74.157387 60.532905 
L 74.178333 60.532905 
L 74.309244 64.431173 
L 74.356372 64.431173 
L 74.372081 63.943889 
L 74.393027 65.893023 
L 74.424446 65.649381 
L 74.539648 66.623948 
L 74.56583 66.623948 
L 74.696741 70.522216 
L 74.738633 70.522216 
L 74.790997 71.496783 
L 74.848598 71.253141 
L 74.932381 71.253141 
L 75.058056 74.176842 
L 75.141839 74.176842 
L 75.262278 76.125976 
L 75.43508 76.125976 
L 75.550282 75.882334 
L 75.592174 75.882334 
L 75.707376 76.856901 
L 75.728321 76.856901 
L 75.764977 78.806035 
L 75.843523 78.562393 
L 76.052981 78.562393 
L 76.168183 79.53696 
L 76.304331 79.53696 
L 76.419533 79.293319 
L 76.854158 79.293319 
L 76.922232 81.242453 
L 76.96936 80.998811 
L 77.021724 80.998811 
L 77.142162 80.186672 
L 77.241655 80.186672 
L 77.356857 81.161239 
L 77.362093 81.161239 
L 77.477295 82.135806 
L 77.503477 82.135806 
L 77.618679 83.110372 
L 77.639625 83.110372 
L 77.754827 82.785517 
L 77.859556 82.785517 
L 77.922393 82.460661 
L 77.92763 83.435228 
L 77.959048 83.435228 
L 78.137088 83.435228 
L 78.252289 84.409795 
L 78.294181 84.409795 
L 78.409383 85.384362 
L 78.770698 85.384362 
L 78.8859 86.358929 
L 78.896373 86.358929 
L 79.011574 87.333496 
L 79.042993 87.333496 
L 79.168668 90.257197 
L 79.336234 90.257197 
L 79.404308 91.231764 
L 79.4462 90.988122 
L 80.048391 90.988122 
L 80.163593 91.962689 
L 80.399233 91.962689 
L 80.514435 91.637833 
L 80.587745 91.637833 
L 80.682001 92.6124 
L 80.697711 92.368758 
L 81.331321 92.368758 
L 81.451759 94.317892 
L 81.52507 94.317892 
L 81.540779 94.074251 
L 81.59838 96.023384 
L 81.655981 96.023384 
L 81.771183 95.779743 
L 82.012059 95.779743 
L 82.127261 96.75431 
L 82.656142 96.75431 
L 82.781817 99.67801 
L 83.054112 99.67801 
L 83.174551 101.627144 
L 83.787215 101.627144 
L 83.902417 102.601711 
L 84.462717 102.601711 
L 84.577919 102.276856 
L 85.190583 102.276856 
L 85.305785 103.251423 
L 85.394805 103.251423 
L 85.510007 104.22599 
L 85.729937 104.22599 
L 85.845139 103.901134 
L 86.101725 103.901134 
L 86.222163 105.850268 
L 86.258819 105.850268 
L 86.37402 105.525412 
L 86.452567 105.525412 
L 86.567769 106.499979 
L 86.573005 106.499979 
L 86.688207 106.256337 
L 87.11236 106.256337 
L 87.227562 107.230904 
L 88.861333 107.230904 
L 88.882279 106.987263 
L 88.887516 107.961829 
L 88.955589 107.961829 
L 89.117919 107.961829 
L 89.233121 108.936396 
L 90.358957 108.936396 
L 90.474159 109.910963 
L 90.78311 109.910963 
L 90.898312 110.88553 
L 91.332937 110.88553 
L 91.448139 111.860097 
L 91.552868 111.860097 
L 91.668069 112.834664 
L 93.364679 112.834664 
L 93.479881 113.809231 
L 93.956397 113.809231 
L 94.071599 114.783798 
L 94.228693 114.783798 
L 94.343894 114.458942 
L 94.485279 114.458942 
L 94.60048 115.433509 
L 95.113652 115.433509 
L 95.228854 115.108654 
L 95.516859 115.108654 
L 95.632061 116.083221 
L 98.056536 116.083221 
L 98.171738 117.057788 
L 98.726802 117.057788 
L 98.842003 118.032355 
L 99.674599 118.032355 
L 99.7898 117.788713 
L 100.046386 117.788713 
L 100.161588 118.76328 
L 103.680481 118.76328 
L 103.795683 118.519638 
L 104.057506 118.519638 
L 104.172708 119.494205 
L 104.497367 119.494205 
L 104.612569 120.468772 
L 105.398036 120.468772 
L 105.513238 121.443339 
L 106.052592 121.443339 
L 106.167794 121.199697 
L 106.214922 121.199697 
L 106.330124 122.174264 
L 106.571001 122.174264 
L 106.686203 123.148831 
L 107.38265 123.148831 
L 107.497852 124.123398 
L 108.964058 124.123398 
L 109.079259 123.879756 
L 109.398683 123.879756 
L 109.513885 124.854323 
L 110.000874 124.854323 
L 110.116076 124.610681 
L 111.016745 124.610681 
L 111.137184 126.559815 
L 116.001844 126.559815 
L 116.117046 126.316173 
L 116.195592 126.316173 
L 116.310794 126.072532 
L 119.798269 126.072532 
L 119.913471 127.047099 
L 120.515662 127.047099 
L 120.630864 128.021666 
L 120.662283 128.021666 
L 120.777484 127.778024 
L 120.918869 127.778024 
L 121.03407 128.752591 
L 126.699907 128.752591 
L 126.815109 129.727158 
L 127.160715 129.727158 
L 127.275917 130.701725 
L 127.34399 130.701725 
L 127.459192 130.458083 
L 128.621684 130.458083 
L 128.736886 130.214441 
L 129.480461 130.214441 
L 129.595663 131.189008 
L 130.14549 131.189008 
L 130.260692 132.163575 
L 134.758801 132.163575 
L 134.874003 131.919933 
L 138.539516 131.919933 
L 138.654718 132.8945 
L 139.152181 132.8945 
L 139.267383 132.569645 
L 140.571258 132.569645 
L 140.68646 133.544212 
L 143.032389 133.544212 
L 143.147591 134.518779 
L 152.777419 134.518779 
L 152.892621 135.493346 
L 153.269645 135.493346 
L 153.384847 136.467912 
L 153.651906 136.467912 
L 153.767107 136.224271 
L 160.537835 136.224271 
L 160.653037 137.198838 
L 172.775414 137.198838 
L 172.890616 136.955196 
L 181.190386 136.955196 
L 181.305588 137.929763 
L 184.60455 137.929763 
L 184.719752 138.90433 
L 200.209166 138.90433 
L 200.324367 138.660688 
L 207.482592 138.660688 
L 207.597794 139.635255 
L 213.373596 139.635255 
L 213.488798 140.609822 
L 217.819341 140.609822 
L 217.934542 141.584389 
L 221.961371 141.584389 
L 222.076573 142.558956 
L 223.411867 142.558956 
L 223.527069 143.533523 
L 232.575651 143.533523 
L 232.690853 143.289881 
L 238.419527 143.289881 
L 238.534729 144.264448 
L 251.84578 144.264448 
L 251.960982 145.239015 
L 256.113485 145.239015 
L 256.228687 144.995373 
L 262.187765 144.995373 
L 262.302967 145.96994 
L 265.507673 145.96994 
L 265.622875 146.944507 
L 276.205737 146.944507 
L 276.320939 147.919074 
L 279.48899 147.919074 
L 279.604192 148.893641 
L 281.630697 148.893641 
L 281.745899 149.868208 
L 293.203247 149.868208 
L 293.318449 149.624566 
L 294.397157 149.624566 
L 294.512359 150.599133 
L 333.675755 150.599133 
L 333.790957 151.5737 
L 340.598339 151.5737 
L 340.713541 152.548267 
L 347.59947 152.548267 
L 347.641362 153.522834 
L 347.709436 153.279192 
L 356.176772 153.279192 
L 356.291974 154.253759 
L 371.242033 154.253759 
L 371.357235 155.228326 
L 374.556705 155.228326 
L 374.671907 156.202893 
L 395.60199 156.202893 
L 395.717192 155.959251 
L 396.282728 155.959251 
L 396.39793 156.933818 
L 398.487273 156.933818 
L 398.487273 156.933818 
" clip-path="url(#p09dd27de02)" style="fill: none; stroke: #bcbd22; stroke-width: 1.5; stroke-linecap: square"/>
   </g>
   <g id="line2d_22">
    <path d="M 73.832727 52.151629 
L 73.837964 52.151629 
L 73.947929 56.342267 
L 73.968875 56.098625 
L 73.974111 55.854984 
L 73.984584 57.804118 
L 74.047422 57.560476 
L 74.099786 57.560476 
L 74.115495 57.316834 
L 74.136441 59.265968 
L 74.178333 59.022326 
L 74.283062 59.022326 
L 74.398264 60.727818 
L 74.513466 60.484177 
L 74.576303 60.484177 
L 74.696741 62.433311 
L 74.738633 62.433311 
L 74.790997 63.407878 
L 74.848598 63.164236 
L 74.932381 63.164236 
L 75.05282 65.11337 
L 75.141839 65.11337 
L 75.257041 64.788514 
L 75.592174 64.788514 
L 75.707376 65.763081 
L 76.052981 65.763081 
L 76.110582 66.737648 
L 76.162947 66.412792 
L 76.283385 66.412792 
L 76.398587 66.087937 
L 76.670882 66.087937 
L 76.786084 65.763081 
L 76.854158 65.763081 
L 76.901286 65.438225 
L 76.906522 66.412792 
L 76.95365 66.412792 
L 77.021724 66.412792 
L 77.068852 67.387359 
L 77.13169 67.143717 
L 77.241655 67.143717 
L 77.356857 68.118284 
L 77.362093 68.118284 
L 77.477295 69.092851 
L 77.639625 69.092851 
L 77.754827 70.067418 
L 77.859556 70.067418 
L 77.974758 71.041985 
L 78.294181 71.041985 
L 78.409383 70.71713 
L 78.770698 70.71713 
L 78.8859 71.691697 
L 79.042993 71.691697 
L 79.163431 73.64083 
L 80.048391 73.64083 
L 80.163593 74.615397 
L 80.399233 74.615397 
L 80.514435 75.589964 
L 81.336557 75.589964 
L 81.451759 76.564531 
L 82.656142 76.564531 
L 82.776581 78.513665 
L 83.787215 78.513665 
L 83.902417 79.488232 
L 84.462717 79.488232 
L 84.577919 80.462799 
L 85.038726 80.462799 
L 85.153928 80.137943 
L 85.190583 80.137943 
L 85.305785 81.11251 
L 85.729937 81.11251 
L 85.845139 82.087077 
L 86.106962 82.087077 
L 86.222163 83.061644 
L 86.258819 83.061644 
L 86.37402 84.036211 
L 86.452567 84.036211 
L 86.567769 85.010778 
L 88.882279 85.010778 
L 88.997481 85.985345 
L 90.358957 85.985345 
L 90.474159 85.741703 
L 91.552868 85.741703 
L 91.668069 86.71627 
L 93.956397 86.71627 
L 94.071599 87.690837 
L 94.228693 87.690837 
L 94.343894 88.665404 
L 94.485279 88.665404 
L 94.60048 89.639971 
L 95.113652 89.639971 
L 95.228854 90.614538 
L 98.726802 90.614538 
L 98.842003 91.589105 
L 105.398036 91.589105 
L 105.513238 92.563672 
L 106.214922 92.563672 
L 106.330124 93.538239 
L 107.38265 93.538239 
L 107.497852 94.512806 
L 108.964058 94.512806 
L 109.079259 94.269164 
L 109.398683 94.269164 
L 109.513885 95.243731 
L 111.084819 95.243731 
L 111.200021 94.918875 
L 116.001844 94.918875 
L 116.117046 94.675234 
L 119.798269 94.675234 
L 119.913471 95.6498 
L 127.160715 95.6498 
L 127.275917 95.406159 
L 129.480461 95.406159 
L 129.595663 96.380726 
L 139.152181 96.380726 
L 139.267383 97.355293 
L 140.571258 97.355293 
L 140.68646 98.32986 
L 152.777419 98.32986 
L 152.892621 99.304426 
L 153.269645 99.304426 
L 153.384847 100.278993 
L 153.651906 100.278993 
L 153.767107 100.035352 
L 184.60455 100.035352 
L 184.719752 101.009919 
L 213.373596 101.009919 
L 213.488798 101.984486 
L 223.411867 101.984486 
L 223.527069 102.959053 
L 262.187765 102.959053 
L 262.302967 103.933619 
L 276.205737 103.933619 
L 276.320939 104.908186 
L 279.48899 104.908186 
L 279.604192 105.882753 
L 339.393956 105.882753 
L 339.509158 105.557898 
L 340.598339 105.557898 
L 340.713541 106.532465 
L 347.59947 106.532465 
L 347.714672 107.507032 
L 374.556705 107.507032 
L 374.671907 108.481598 
L 398.487273 108.481598 
L 398.487273 108.481598 
" clip-path="url(#p09dd27de02)" style="fill: none; stroke: #17becf; stroke-width: 1.5; stroke-linecap: square"/>
   </g>
   <g id="line2d_23">
    <path d="M 73.832727 51.177062 
L 73.8432 51.177062 
L 73.968875 54.100763 
L 73.979348 54.100763 
L 74.09455 55.07533 
L 74.272589 55.07533 
L 74.393027 57.024464 
L 75.141839 57.024464 
L 75.257041 57.999031 
L 76.854158 57.999031 
L 76.96936 58.973598 
L 78.294181 58.973598 
L 78.409383 59.948165 
L 90.358957 59.948165 
L 90.474159 60.922732 
L 106.052592 60.922732 
L 106.167794 60.67909 
L 111.084819 60.67909 
L 111.200021 61.653657 
L 127.160715 61.653657 
L 127.275917 62.628224 
L 398.487273 62.628224 
L 398.487273 62.628224 
" clip-path="url(#p09dd27de02)" style="fill: none; stroke: #1f77b4; stroke-width: 1.5; stroke-linecap: square"/>
   </g>
   <g id="line2d_24">
    <path d="M 73.832727 51.177062 
L 73.864146 51.177062 
L 73.958402 52.606427 
L 73.885092 50.982149 
L 73.974111 51.63186 
L 73.989821 52.119144 
L 74.089313 51.144577 
L 74.246407 51.144577 
L 74.366845 49.195443 
L 75.058056 49.195443 
L 75.173258 48.220876 
L 85.447169 48.220876 
L 85.562371 49.195443 
L 105.623204 49.195443 
L 105.738406 50.17001 
L 105.848371 50.17001 
L 105.963573 51.144577 
L 106.052592 51.144577 
L 106.167794 52.119144 
L 110.220805 52.119144 
L 110.336007 51.144577 
L 145.72916 51.144577 
L 145.844361 52.119144 
L 278.949636 52.119144 
L 279.064837 53.093711 
L 299.314182 53.093711 
L 299.429384 54.068278 
L 304.529685 54.068278 
L 304.644886 55.042845 
L 311.18521 55.042845 
L 311.300412 54.068278 
L 316.149363 54.068278 
L 316.264565 53.093711 
L 332.115293 53.093711 
L 332.230495 54.068278 
L 398.487273 54.068278 
L 398.487273 54.068278 
" clip-path="url(#p09dd27de02)" style="fill: none; stroke: #ff7f0e; stroke-width: 1.5; stroke-linecap: square"/>
   </g>
   <g id="patch_3">
    <path d="M 57.6 162.432 
L 57.6 41.472 
" style="fill: none; stroke: #000000; stroke-width: 0.8; stroke-linejoin: miter; stroke-linecap: square"/>
   </g>
   <g id="patch_4">
    <path d="M 414.72 162.432 
L 414.72 41.472 
" style="fill: none; stroke: #000000; stroke-width: 0.8; stroke-linejoin: miter; stroke-linecap: square"/>
   </g>
   <g id="patch_5">
    <path d="M 57.6 162.432 
L 414.72 162.432 
" style="fill: none; stroke: #000000; stroke-width: 0.8; stroke-linejoin: miter; stroke-linecap: square"/>
   </g>
   <g id="patch_6">
    <path d="M 57.6 41.472 
L 414.72 41.472 
" style="fill: none; stroke: #000000; stroke-width: 0.8; stroke-linejoin: miter; stroke-linecap: square"/>
   </g>
   <g id="text_13">
    <!-- WSP -->
    <g transform="translate(361.832136 64.496144)scale(0.08 -0.08)">
     <defs>
      <path id="DejaVuSans-57" d="M 213 4666 
L 850 4666 
L 1831 722 
L 2809 4666 
L 3519 4666 
L 4500 722 
L 5478 4666 
L 6119 4666 
L 4947 0 
L 4153 0 
L 3169 4050 
L 2175 0 
L 1381 0 
L 213 4666 
z
" transform="scale(0.015625)"/>
      <path id="DejaVuSans-53" d="M 3425 4513 
L 3425 3897 
Q 3066 4069 2747 4153 
Q 2428 4238 2131 4238 
Q 1616 4238 1336 4038 
Q 1056 3838 1056 3469 
Q 1056 3159 1242 3001 
Q 1428 2844 1947 2747 
L 2328 2669 
Q 3034 2534 3370 2195 
Q 3706 1856 3706 1288 
Q 3706 609 3251 259 
Q 2797 -91 1919 -91 
Q 1588 -91 1214 -16 
Q 841 59 441 206 
L 441 856 
Q 825 641 1194 531 
Q 1563 422 1919 422 
Q 2459 422 2753 634 
Q 3047 847 3047 1241 
Q 3047 1584 2836 1778 
Q 2625 1972 2144 2069 
L 1759 2144 
Q 1053 2284 737 2584 
Q 422 2884 422 3419 
Q 422 4038 858 4394 
Q 1294 4750 2059 4750 
Q 2388 4750 2728 4690 
Q 3069 4631 3425 4513 
z
" transform="scale(0.015625)"/>
      <path id="DejaVuSans-50" d="M 1259 4147 
L 1259 2394 
L 2053 2394 
Q 2494 2394 2734 2622 
Q 2975 2850 2975 3272 
Q 2975 3691 2734 3919 
Q 2494 4147 2053 4147 
L 1259 4147 
z
M 628 4666 
L 2053 4666 
Q 2838 4666 3239 4311 
Q 3641 3956 3641 3272 
Q 3641 2581 3239 2228 
Q 2838 1875 2053 1875 
L 1259 1875 
L 1259 0 
L 628 0 
L 628 4666 
z
" transform="scale(0.015625)"/>
     </defs>
     <use xlink:href="#DejaVuSans-57"/>
     <use xlink:href="#DejaVuSans-53" x="98.876953"/>
     <use xlink:href="#DejaVuSans-50" x="162.353516"/>
    </g>
   </g>
   <g id="text_14">
    <!-- Iambic -->
    <g transform="translate(361.832136 82.769274)scale(0.08 -0.08)">
     <defs>
      <path id="DejaVuSans-49" d="M 628 4666 
L 1259 4666 
L 1259 0 
L 628 0 
L 628 4666 
z
" transform="scale(0.015625)"/>
      <path id="DejaVuSans-61" d="M 2194 1759 
Q 1497 1759 1228 1600 
Q 959 1441 959 1056 
Q 959 750 1161 570 
Q 1363 391 1709 391 
Q 2188 391 2477 730 
Q 2766 1069 2766 1631 
L 2766 1759 
L 2194 1759 
z
M 3341 1997 
L 3341 0 
L 2766 0 
L 2766 531 
Q 2569 213 2275 61 
Q 1981 -91 1556 -91 
Q 1019 -91 701 211 
Q 384 513 384 1019 
Q 384 1609 779 1909 
Q 1175 2209 1959 2209 
L 2766 2209 
L 2766 2266 
Q 2766 2663 2505 2880 
Q 2244 3097 1772 3097 
Q 1472 3097 1187 3025 
Q 903 2953 641 2809 
L 641 3341 
Q 956 3463 1253 3523 
Q 1550 3584 1831 3584 
Q 2591 3584 2966 3190 
Q 3341 2797 3341 1997 
z
" transform="scale(0.015625)"/>
      <path id="DejaVuSans-6d" d="M 3328 2828 
Q 3544 3216 3844 3400 
Q 4144 3584 4550 3584 
Q 5097 3584 5394 3201 
Q 5691 2819 5691 2113 
L 5691 0 
L 5113 0 
L 5113 2094 
Q 5113 2597 4934 2840 
Q 4756 3084 4391 3084 
Q 3944 3084 3684 2787 
Q 3425 2491 3425 1978 
L 3425 0 
L 2847 0 
L 2847 2094 
Q 2847 2600 2669 2842 
Q 2491 3084 2119 3084 
Q 1678 3084 1418 2786 
Q 1159 2488 1159 1978 
L 1159 0 
L 581 0 
L 581 3500 
L 1159 3500 
L 1159 2956 
Q 1356 3278 1631 3431 
Q 1906 3584 2284 3584 
Q 2666 3584 2933 3390 
Q 3200 3197 3328 2828 
z
" transform="scale(0.015625)"/>
      <path id="DejaVuSans-62" d="M 3116 1747 
Q 3116 2381 2855 2742 
Q 2594 3103 2138 3103 
Q 1681 3103 1420 2742 
Q 1159 2381 1159 1747 
Q 1159 1113 1420 752 
Q 1681 391 2138 391 
Q 2594 391 2855 752 
Q 3116 1113 3116 1747 
z
M 1159 2969 
Q 1341 3281 1617 3432 
Q 1894 3584 2278 3584 
Q 2916 3584 3314 3078 
Q 3713 2572 3713 1747 
Q 3713 922 3314 415 
Q 2916 -91 2278 -91 
Q 1894 -91 1617 61 
Q 1341 213 1159 525 
L 1159 0 
L 581 0 
L 581 4863 
L 1159 4863 
L 1159 2969 
z
" transform="scale(0.015625)"/>
      <path id="DejaVuSans-69" d="M 603 3500 
L 1178 3500 
L 1178 0 
L 603 0 
L 603 3500 
z
M 603 4863 
L 1178 4863 
L 1178 4134 
L 603 4134 
L 603 4863 
z
" transform="scale(0.015625)"/>
      <path id="DejaVuSans-63" d="M 3122 3366 
L 3122 2828 
Q 2878 2963 2633 3030 
Q 2388 3097 2138 3097 
Q 1578 3097 1268 2742 
Q 959 2388 959 1747 
Q 959 1106 1268 751 
Q 1578 397 2138 397 
Q 2388 397 2633 464 
Q 2878 531 3122 666 
L 3122 134 
Q 2881 22 2623 -34 
Q 2366 -91 2075 -91 
Q 1284 -91 818 406 
Q 353 903 353 1747 
Q 353 2603 823 3093 
Q 1294 3584 2113 3584 
Q 2378 3584 2631 3529 
Q 2884 3475 3122 3366 
z
" transform="scale(0.015625)"/>
     </defs>
     <use xlink:href="#DejaVuSans-49"/>
     <use xlink:href="#DejaVuSans-61" x="29.492188"/>
     <use xlink:href="#DejaVuSans-6d" x="90.771484"/>
     <use xlink:href="#DejaVuSans-62" x="188.183594"/>
     <use xlink:href="#DejaVuSans-69" x="251.660156"/>
     <use xlink:href="#DejaVuSans-63" x="279.443359"/>
    </g>
   </g>
   <g id="text_15">
    <!-- Parse -->
    <g transform="translate(361.832136 73.559616)scale(0.08 -0.08)">
     <defs>
      <path id="DejaVuSans-72" d="M 2631 2963 
Q 2534 3019 2420 3045 
Q 2306 3072 2169 3072 
Q 1681 3072 1420 2755 
Q 1159 2438 1159 1844 
L 1159 0 
L 581 0 
L 581 3500 
L 1159 3500 
L 1159 2956 
Q 1341 3275 1631 3429 
Q 1922 3584 2338 3584 
Q 2397 3584 2469 3576 
Q 2541 3569 2628 3553 
L 2631 2963 
z
" transform="scale(0.015625)"/>
      <path id="DejaVuSans-73" d="M 2834 3397 
L 2834 2853 
Q 2591 2978 2328 3040 
Q 2066 3103 1784 3103 
Q 1356 3103 1142 2972 
Q 928 2841 928 2578 
Q 928 2378 1081 2264 
Q 1234 2150 1697 2047 
L 1894 2003 
Q 2506 1872 2764 1633 
Q 3022 1394 3022 966 
Q 3022 478 2636 193 
Q 2250 -91 1575 -91 
Q 1294 -91 989 -36 
Q 684 19 347 128 
L 347 722 
Q 666 556 975 473 
Q 1284 391 1588 391 
Q 1994 391 2212 530 
Q 2431 669 2431 922 
Q 2431 1156 2273 1281 
Q 2116 1406 1581 1522 
L 1381 1569 
Q 847 1681 609 1914 
Q 372 2147 372 2553 
Q 372 3047 722 3315 
Q 1072 3584 1716 3584 
Q 2034 3584 2315 3537 
Q 2597 3491 2834 3397 
z
" transform="scale(0.015625)"/>
      <path id="DejaVuSans-65" d="M 3597 1894 
L 3597 1613 
L 953 1613 
Q 991 1019 1311 708 
Q 1631 397 2203 397 
Q 2534 397 2845 478 
Q 3156 559 3463 722 
L 3463 178 
Q 3153 47 2828 -22 
Q 2503 -91 2169 -91 
Q 1331 -91 842 396 
Q 353 884 353 1716 
Q 353 2575 817 3079 
Q 1281 3584 2069 3584 
Q 2775 3584 3186 3129 
Q 3597 2675 3597 1894 
z
M 3022 2063 
Q 3016 2534 2758 2815 
Q 2500 3097 2075 3097 
Q 1594 3097 1305 2825 
Q 1016 2553 972 2059 
L 3022 2063 
z
" transform="scale(0.015625)"/>
     </defs>
     <use xlink:href="#DejaVuSans-50"/>
     <use xlink:href="#DejaVuSans-61" x="55.802734"/>
     <use xlink:href="#DejaVuSans-72" x="117.082031"/>
     <use xlink:href="#DejaVuSans-73" x="158.195312"/>
     <use xlink:href="#DejaVuSans-65" x="210.294922"/>
    </g>
   </g>
   <g id="text_16">
    <!-- FootBin -->
    <g transform="translate(361.832136 46.970182)scale(0.08 -0.08)">
     <defs>
      <path id="DejaVuSans-46" d="M 628 4666 
L 3309 4666 
L 3309 4134 
L 1259 4134 
L 1259 2759 
L 3109 2759 
L 3109 2228 
L 1259 2228 
L 1259 0 
L 628 0 
L 628 4666 
z
" transform="scale(0.015625)"/>
      <path id="DejaVuSans-6f" d="M 1959 3097 
Q 1497 3097 1228 2736 
Q 959 2375 959 1747 
Q 959 1119 1226 758 
Q 1494 397 1959 397 
Q 2419 397 2687 759 
Q 2956 1122 2956 1747 
Q 2956 2369 2687 2733 
Q 2419 3097 1959 3097 
z
M 1959 3584 
Q 2709 3584 3137 3096 
Q 3566 2609 3566 1747 
Q 3566 888 3137 398 
Q 2709 -91 1959 -91 
Q 1206 -91 779 398 
Q 353 888 353 1747 
Q 353 2609 779 3096 
Q 1206 3584 1959 3584 
z
" transform="scale(0.015625)"/>
      <path id="DejaVuSans-74" d="M 1172 4494 
L 1172 3500 
L 2356 3500 
L 2356 3053 
L 1172 3053 
L 1172 1153 
Q 1172 725 1289 603 
Q 1406 481 1766 481 
L 2356 481 
L 2356 0 
L 1766 0 
Q 1100 0 847 248 
Q 594 497 594 1153 
L 594 3053 
L 172 3053 
L 172 3500 
L 594 3500 
L 594 4494 
L 1172 4494 
z
" transform="scale(0.015625)"/>
      <path id="DejaVuSans-42" d="M 1259 2228 
L 1259 519 
L 2272 519 
Q 2781 519 3026 730 
Q 3272 941 3272 1375 
Q 3272 1813 3026 2020 
Q 2781 2228 2272 2228 
L 1259 2228 
z
M 1259 4147 
L 1259 2741 
L 2194 2741 
Q 2656 2741 2882 2914 
Q 3109 3088 3109 3444 
Q 3109 3797 2882 3972 
Q 2656 4147 2194 4147 
L 1259 4147 
z
M 628 4666 
L 2241 4666 
Q 2963 4666 3353 4366 
Q 3744 4066 3744 3513 
Q 3744 3084 3544 2831 
Q 3344 2578 2956 2516 
Q 3422 2416 3680 2098 
Q 3938 1781 3938 1306 
Q 3938 681 3513 340 
Q 3088 0 2303 0 
L 628 0 
L 628 4666 
z
" transform="scale(0.015625)"/>
      <path id="DejaVuSans-6e" d="M 3513 2113 
L 3513 0 
L 2938 0 
L 2938 2094 
Q 2938 2591 2744 2837 
Q 2550 3084 2163 3084 
Q 1697 3084 1428 2787 
Q 1159 2491 1159 1978 
L 1159 0 
L 581 0 
L 581 3500 
L 1159 3500 
L 1159 2956 
Q 1366 3272 1645 3428 
Q 1925 3584 2291 3584 
Q 2894 3584 3203 3211 
Q 3513 2838 3513 2113 
z
" transform="scale(0.015625)"/>
     </defs>
     <use xlink:href="#DejaVuSans-46"/>
     <use xlink:href="#DejaVuSans-6f" x="53.894531"/>
     <use xlink:href="#DejaVuSans-6f" x="115.076172"/>
     <use xlink:href="#DejaVuSans-74" x="176.257812"/>
     <use xlink:href="#DejaVuSans-42" x="215.466797"/>
     <use xlink:href="#DejaVuSans-69" x="284.070312"/>
     <use xlink:href="#DejaVuSans-6e" x="311.853516"/>
    </g>
   </g>
   <g id="text_17">
    <!-- WFL -->
    <g transform="translate(361.832136 57.23562)scale(0.08 -0.08)">
     <defs>
      <path id="DejaVuSans-4c" d="M 628 4666 
L 1259 4666 
L 1259 531 
L 3531 531 
L 3531 0 
L 628 0 
L 628 4666 
z
" transform="scale(0.015625)"/>
     </defs>
     <use xlink:href="#DejaVuSans-57"/>
     <use xlink:href="#DejaVuSans-46" x="98.876953"/>
     <use xlink:href="#DejaVuSans-4c" x="156.396484"/>
    </g>
   </g>
   <g id="text_18">
    <!-- WFR -->
    <g transform="translate(361.832136 48.497003)scale(0.08 -0.08)">
     <defs>
      <path id="DejaVuSans-52" d="M 2841 2188 
Q 3044 2119 3236 1894 
Q 3428 1669 3622 1275 
L 4263 0 
L 3584 0 
L 2988 1197 
Q 2756 1666 2539 1819 
Q 2322 1972 1947 1972 
L 1259 1972 
L 1259 0 
L 628 0 
L 628 4666 
L 2053 4666 
Q 2853 4666 3247 4331 
Q 3641 3997 3641 3322 
Q 3641 2881 3436 2590 
Q 3231 2300 2841 2188 
z
M 1259 4147 
L 1259 2491 
L 2053 2491 
Q 2509 2491 2742 2702 
Q 2975 2913 2975 3322 
Q 2975 3731 2742 3939 
Q 2509 4147 2053 4147 
L 1259 4147 
z
" transform="scale(0.015625)"/>
     </defs>
     <use xlink:href="#DejaVuSans-57"/>
     <use xlink:href="#DejaVuSans-46" x="98.876953"/>
     <use xlink:href="#DejaVuSans-52" x="156.396484"/>
    </g>
   </g>
   <g id="text_19">
    <!-- Main-L -->
    <g transform="translate(361.832136 55.77377)scale(0.08 -0.08)">
     <defs>
      <path id="DejaVuSans-4d" d="M 628 4666 
L 1569 4666 
L 2759 1491 
L 3956 4666 
L 4897 4666 
L 4897 0 
L 4281 0 
L 4281 4097 
L 3078 897 
L 2444 897 
L 1241 4097 
L 1241 0 
L 628 0 
L 628 4666 
z
" transform="scale(0.015625)"/>
      <path id="DejaVuSans-2d" d="M 313 2009 
L 1997 2009 
L 1997 1497 
L 313 1497 
L 313 2009 
z
" transform="scale(0.015625)"/>
     </defs>
     <use xlink:href="#DejaVuSans-4d"/>
     <use xlink:href="#DejaVuSans-61" x="86.279297"/>
     <use xlink:href="#DejaVuSans-69" x="147.558594"/>
     <use xlink:href="#DejaVuSans-6e" x="175.341797"/>
     <use xlink:href="#DejaVuSans-2d" x="238.720703"/>
     <use xlink:href="#DejaVuSans-4c" x="274.804688"/>
    </g>
   </g>
   <g id="text_20">
    <!-- Main-R -->
    <g transform="translate(361.832136 81.437366)scale(0.08 -0.08)">
     <use xlink:href="#DejaVuSans-4d"/>
     <use xlink:href="#DejaVuSans-61" x="86.279297"/>
     <use xlink:href="#DejaVuSans-69" x="147.558594"/>
     <use xlink:href="#DejaVuSans-6e" x="175.341797"/>
     <use xlink:href="#DejaVuSans-2d" x="238.720703"/>
     <use xlink:href="#DejaVuSans-52" x="274.804688"/>
    </g>
   </g>
   <g id="text_21">
    <!-- AFL -->
    <g transform="translate(361.832136 156.933818)scale(0.08 -0.08)">
     <defs>
      <path id="DejaVuSans-41" d="M 2188 4044 
L 1331 1722 
L 3047 1722 
L 2188 4044 
z
M 1831 4666 
L 2547 4666 
L 4325 0 
L 3669 0 
L 3244 1197 
L 1141 1197 
L 716 0 
L 50 0 
L 1831 4666 
z
" transform="scale(0.015625)"/>
     </defs>
     <use xlink:href="#DejaVuSans-41"/>
     <use xlink:href="#DejaVuSans-46" x="68.408203"/>
     <use xlink:href="#DejaVuSans-4c" x="125.927734"/>
    </g>
   </g>
   <g id="text_22">
    <!-- AFR -->
    <g transform="translate(361.832136 108.481598)scale(0.08 -0.08)">
     <use xlink:href="#DejaVuSans-41"/>
     <use xlink:href="#DejaVuSans-46" x="68.408203"/>
     <use xlink:href="#DejaVuSans-52" x="125.927734"/>
    </g>
   </g>
   <g id="text_23">
    <!-- Nonfinal -->
    <g transform="translate(361.832136 62.628224)scale(0.08 -0.08)">
     <defs>
      <path id="DejaVuSans-4e" d="M 628 4666 
L 1478 4666 
L 3547 763 
L 3547 4666 
L 4159 4666 
L 4159 0 
L 3309 0 
L 1241 3903 
L 1241 0 
L 628 0 
L 628 4666 
z
" transform="scale(0.015625)"/>
      <path id="DejaVuSans-66" d="M 2375 4863 
L 2375 4384 
L 1825 4384 
Q 1516 4384 1395 4259 
Q 1275 4134 1275 3809 
L 1275 3500 
L 2222 3500 
L 2222 3053 
L 1275 3053 
L 1275 0 
L 697 0 
L 697 3053 
L 147 3053 
L 147 3500 
L 697 3500 
L 697 3744 
Q 697 4328 969 4595 
Q 1241 4863 1831 4863 
L 2375 4863 
z
" transform="scale(0.015625)"/>
      <path id="DejaVuSans-6c" d="M 603 4863 
L 1178 4863 
L 1178 0 
L 603 0 
L 603 4863 
z
" transform="scale(0.015625)"/>
     </defs>
     <use xlink:href="#DejaVuSans-4e"/>
     <use xlink:href="#DejaVuSans-6f" x="74.804688"/>
     <use xlink:href="#DejaVuSans-6e" x="135.986328"/>
     <use xlink:href="#DejaVuSans-66" x="199.365234"/>
     <use xlink:href="#DejaVuSans-69" x="234.570312"/>
     <use xlink:href="#DejaVuSans-6e" x="262.353516"/>
     <use xlink:href="#DejaVuSans-61" x="325.732422"/>
     <use xlink:href="#DejaVuSans-6c" x="387.011719"/>
    </g>
   </g>
   <g id="text_24">
    <!-- Trochaic -->
    <g transform="translate(361.832136 54.068278)scale(0.08 -0.08)">
     <defs>
      <path id="DejaVuSans-54" d="M -19 4666 
L 3928 4666 
L 3928 4134 
L 2272 4134 
L 2272 0 
L 1638 0 
L 1638 4134 
L -19 4134 
L -19 4666 
z
" transform="scale(0.015625)"/>
      <path id="DejaVuSans-68" d="M 3513 2113 
L 3513 0 
L 2938 0 
L 2938 2094 
Q 2938 2591 2744 2837 
Q 2550 3084 2163 3084 
Q 1697 3084 1428 2787 
Q 1159 2491 1159 1978 
L 1159 0 
L 581 0 
L 581 4863 
L 1159 4863 
L 1159 2956 
Q 1366 3272 1645 3428 
Q 1925 3584 2291 3584 
Q 2894 3584 3203 3211 
Q 3513 2838 3513 2113 
z
" transform="scale(0.015625)"/>
     </defs>
     <use xlink:href="#DejaVuSans-54"/>
     <use xlink:href="#DejaVuSans-72" x="46.333984"/>
     <use xlink:href="#DejaVuSans-6f" x="85.197266"/>
     <use xlink:href="#DejaVuSans-63" x="146.378906"/>
     <use xlink:href="#DejaVuSans-68" x="201.359375"/>
     <use xlink:href="#DejaVuSans-61" x="264.738281"/>
     <use xlink:href="#DejaVuSans-69" x="326.017578"/>
     <use xlink:href="#DejaVuSans-63" x="353.800781"/>
    </g>
   </g>
  </g>
  <g id="axes_2">
   <g id="patch_7">
    <path d="M 57.6 307.584 
L 414.72 307.584 
L 414.72 186.624 
L 57.6 186.624 
z
" style="fill: #ffffff"/>
   </g>
   <g id="matplotlib.axis_3">
    <g id="xtick_8">
     <g id="line2d_25">
      <g>
       <use xlink:href="#mc13c8a5bbd" x="72.225527" y="307.584" style="stroke: #000000; stroke-width: 0.8"/>
      </g>
     </g>
     <g id="text_25">
      <!-- 0 -->
      <g transform="translate(69.044277 322.182437)scale(0.1 -0.1)">
       <use xlink:href="#DejaVuSans-30"/>
      </g>
     </g>
    </g>
    <g id="xtick_9">
     <g id="line2d_26">
      <g>
       <use xlink:href="#mc13c8a5bbd" x="112.405545" y="307.584" style="stroke: #000000; stroke-width: 0.8"/>
      </g>
     </g>
     <g id="text_26">
      <!-- 25 -->
      <g transform="translate(106.043045 322.182437)scale(0.1 -0.1)">
       <use xlink:href="#DejaVuSans-32"/>
       <use xlink:href="#DejaVuSans-35" x="63.623047"/>
      </g>
     </g>
    </g>
    <g id="xtick_10">
     <g id="line2d_27">
      <g>
       <use xlink:href="#mc13c8a5bbd" x="152.585563" y="307.584" style="stroke: #000000; stroke-width: 0.8"/>
      </g>
     </g>
     <g id="text_27">
      <!-- 50 -->
      <g transform="translate(146.223063 322.182437)scale(0.1 -0.1)">
       <use xlink:href="#DejaVuSans-35"/>
       <use xlink:href="#DejaVuSans-30" x="63.623047"/>
      </g>
     </g>
    </g>
    <g id="xtick_11">
     <g id="line2d_28">
      <g>
       <use xlink:href="#mc13c8a5bbd" x="192.765581" y="307.584" style="stroke: #000000; stroke-width: 0.8"/>
      </g>
     </g>
     <g id="text_28">
      <!-- 75 -->
      <g transform="translate(186.403081 322.182437)scale(0.1 -0.1)">
       <use xlink:href="#DejaVuSans-37"/>
       <use xlink:href="#DejaVuSans-35" x="63.623047"/>
      </g>
     </g>
    </g>
    <g id="xtick_12">
     <g id="line2d_29">
      <g>
       <use xlink:href="#mc13c8a5bbd" x="232.945599" y="307.584" style="stroke: #000000; stroke-width: 0.8"/>
      </g>
     </g>
     <g id="text_29">
      <!-- 100 -->
      <g transform="translate(223.401849 322.182437)scale(0.1 -0.1)">
       <use xlink:href="#DejaVuSans-31"/>
       <use xlink:href="#DejaVuSans-30" x="63.623047"/>
       <use xlink:href="#DejaVuSans-30" x="127.246094"/>
      </g>
     </g>
    </g>
    <g id="xtick_13">
     <g id="line2d_30">
      <g>
       <use xlink:href="#mc13c8a5bbd" x="273.125617" y="307.584" style="stroke: #000000; stroke-width: 0.8"/>
      </g>
     </g>
     <g id="text_30">
      <!-- 125 -->
      <g transform="translate(263.581867 322.182437)scale(0.1 -0.1)">
       <use xlink:href="#DejaVuSans-31"/>
       <use xlink:href="#DejaVuSans-32" x="63.623047"/>
       <use xlink:href="#DejaVuSans-35" x="127.246094"/>
      </g>
     </g>
    </g>
    <g id="xtick_14">
     <g id="line2d_31">
      <g>
       <use xlink:href="#mc13c8a5bbd" x="313.305635" y="307.584" style="stroke: #000000; stroke-width: 0.8"/>
      </g>
     </g>
     <g id="text_31">
      <!-- 150 -->
      <g transform="translate(303.761885 322.182437)scale(0.1 -0.1)">
       <use xlink:href="#DejaVuSans-31"/>
       <use xlink:href="#DejaVuSans-35" x="63.623047"/>
       <use xlink:href="#DejaVuSans-30" x="127.246094"/>
      </g>
     </g>
    </g>
    <g id="xtick_15">
     <g id="line2d_32">
      <g>
       <use xlink:href="#mc13c8a5bbd" x="353.485653" y="307.584" style="stroke: #000000; stroke-width: 0.8"/>
      </g>
     </g>
     <g id="text_32">
      <!-- 175 -->
      <g transform="translate(343.941903 322.182437)scale(0.1 -0.1)">
       <use xlink:href="#DejaVuSans-31"/>
       <use xlink:href="#DejaVuSans-37" x="63.623047"/>
       <use xlink:href="#DejaVuSans-35" x="127.246094"/>
      </g>
     </g>
    </g>
    <g id="xtick_16">
     <g id="line2d_33">
      <g>
       <use xlink:href="#mc13c8a5bbd" x="393.665671" y="307.584" style="stroke: #000000; stroke-width: 0.8"/>
      </g>
     </g>
     <g id="text_33">
      <!-- 200 -->
      <g transform="translate(384.121921 322.182437)scale(0.1 -0.1)">
       <use xlink:href="#DejaVuSans-32"/>
       <use xlink:href="#DejaVuSans-30" x="63.623047"/>
       <use xlink:href="#DejaVuSans-30" x="127.246094"/>
      </g>
     </g>
    </g>
   </g>
   <g id="matplotlib.axis_4">
    <g id="ytick_6">
     <g id="line2d_34">
      <g>
       <use xlink:href="#m035b798668" x="57.6" y="302.113186" style="stroke: #000000; stroke-width: 0.8"/>
      </g>
     </g>
     <g id="text_34">
      <!-- 0 -->
      <g transform="translate(44.2375 305.912405)scale(0.1 -0.1)">
       <use xlink:href="#DejaVuSans-30"/>
      </g>
     </g>
    </g>
    <g id="ytick_7">
     <g id="line2d_35">
      <g>
       <use xlink:href="#m035b798668" x="57.6" y="274.745432" style="stroke: #000000; stroke-width: 0.8"/>
      </g>
     </g>
     <g id="text_35">
      <!-- 1000 -->
      <g transform="translate(25.15 278.54465)scale(0.1 -0.1)">
       <use xlink:href="#DejaVuSans-31"/>
       <use xlink:href="#DejaVuSans-30" x="63.623047"/>
       <use xlink:href="#DejaVuSans-30" x="127.246094"/>
       <use xlink:href="#DejaVuSans-30" x="190.869141"/>
      </g>
     </g>
    </g>
    <g id="ytick_8">
     <g id="line2d_36">
      <g>
       <use xlink:href="#m035b798668" x="57.6" y="247.377678" style="stroke: #000000; stroke-width: 0.8"/>
      </g>
     </g>
     <g id="text_36">
      <!-- 2000 -->
      <g transform="translate(25.15 251.176896)scale(0.1 -0.1)">
       <use xlink:href="#DejaVuSans-32"/>
       <use xlink:href="#DejaVuSans-30" x="63.623047"/>
       <use xlink:href="#DejaVuSans-30" x="127.246094"/>
       <use xlink:href="#DejaVuSans-30" x="190.869141"/>
      </g>
     </g>
    </g>
    <g id="ytick_9">
     <g id="line2d_37">
      <g>
       <use xlink:href="#m035b798668" x="57.6" y="220.009923" style="stroke: #000000; stroke-width: 0.8"/>
      </g>
     </g>
     <g id="text_37">
      <!-- 3000 -->
      <g transform="translate(25.15 223.809142)scale(0.1 -0.1)">
       <use xlink:href="#DejaVuSans-33"/>
       <use xlink:href="#DejaVuSans-30" x="63.623047"/>
       <use xlink:href="#DejaVuSans-30" x="127.246094"/>
       <use xlink:href="#DejaVuSans-30" x="190.869141"/>
      </g>
     </g>
    </g>
    <g id="ytick_10">
     <g id="line2d_38">
      <g>
       <use xlink:href="#m035b798668" x="57.6" y="192.642169" style="stroke: #000000; stroke-width: 0.8"/>
      </g>
     </g>
     <g id="text_38">
      <!-- 4000 -->
      <g transform="translate(25.15 196.441388)scale(0.1 -0.1)">
       <use xlink:href="#DejaVuSans-34"/>
       <use xlink:href="#DejaVuSans-30" x="63.623047"/>
       <use xlink:href="#DejaVuSans-30" x="127.246094"/>
       <use xlink:href="#DejaVuSans-30" x="190.869141"/>
      </g>
     </g>
    </g>
   </g>
   <g id="line2d_39">
    <path d="M 73.832727 302.05845 
L 80.26153 302.085818 
L 88.297534 301.976347 
L 91.511935 302.085818 
L 110.798344 301.976347 
L 112.405545 301.894244 
L 114.012745 302.031083 
L 118.834347 301.948979 
L 120.441548 301.757405 
L 123.65595 302.085818 
L 126.870351 301.976347 
L 128.477552 301.866876 
L 130.084752 302.05845 
L 134.906355 302.05845 
L 136.513555 301.976347 
L 138.120756 301.374257 
L 139.727957 302.05845 
L 141.335158 301.839508 
L 142.942358 301.921612 
L 144.549559 301.730037 
L 146.15676 301.839508 
L 147.76396 301.374257 
L 149.371161 301.976347 
L 150.978362 302.085818 
L 152.585563 301.620566 
L 155.799964 301.730037 
L 157.407165 300.96374 
L 159.014365 301.292153 
L 160.621566 301.401624 
L 162.228767 302.003715 
L 163.835968 302.031083 
L 165.443168 300.607959 
L 167.050369 301.812141 
L 168.65757 301.21005 
L 170.26477 302.003715 
L 171.871971 300.197443 
L 173.479172 301.155315 
L 175.086373 301.866876 
L 176.693573 302.003715 
L 178.300774 301.593199 
L 179.907975 302.003715 
L 181.515176 301.976347 
L 183.122376 301.21005 
L 184.729577 301.483728 
L 186.336778 301.374257 
L 187.943978 301.401624 
L 189.551179 300.96374 
L 191.15838 301.784773 
L 192.765581 300.991108 
L 194.372781 301.292153 
L 195.979982 299.62272 
L 197.587183 301.45636 
L 199.194383 301.346889 
L 200.801584 302.031083 
L 202.408785 301.921612 
L 204.015986 300.854269 
L 205.623186 301.757405 
L 207.230387 298.746952 
L 208.837588 300.279546 
L 210.444788 301.127947 
L 212.051989 301.620566 
L 213.65919 298.719584 
L 215.266391 302.085818 
L 216.873591 301.127947 
L 218.480792 302.031083 
L 220.087993 301.839508 
L 221.695194 301.784773 
L 224.909595 298.746952 
L 226.516796 302.05845 
L 228.123996 301.894244 
L 229.731197 300.306914 
L 231.338398 301.675302 
L 232.945599 298.719584 
L 234.552799 298.582746 
L 236.16 299.102733 
L 237.767201 301.319521 
L 239.374401 301.045844 
L 240.981602 301.839508 
L 242.588803 300.635327 
L 244.196004 300.170075 
L 245.803204 302.085818 
L 247.410405 301.319521 
L 249.017606 301.100579 
L 250.624806 301.483728 
L 252.232007 299.294307 
L 253.839208 292.972356 
L 255.446409 302.003715 
L 257.053609 300.881637 
L 258.66081 295.627028 
L 260.268011 299.896398 
L 261.875212 299.239572 
L 263.482412 300.96374 
L 265.089613 292.643943 
L 266.696814 299.02063 
L 268.304014 300.690063 
L 269.911215 300.772166 
L 271.518416 298.829055 
L 273.125617 300.005869 
L 274.732817 288.839825 
L 276.340018 298.610113 
L 277.947219 297.159622 
L 279.554419 300.170075 
L 281.16162 283.119965 
L 282.768821 300.142708 
L 284.376022 299.814295 
L 285.983222 297.405932 
L 287.590423 300.936373 
L 290.804824 301.045844 
L 292.412025 301.264786 
L 294.019226 300.252179 
L 295.626427 297.871184 
L 297.233627 293.848124 
L 298.840828 299.841662 
L 300.448029 298.965894 
L 302.05523 300.96374 
L 303.66243 297.953287 
L 305.269631 301.757405 
L 306.876832 276.414865 
L 308.484032 301.100579 
L 310.091233 283.284171 
L 311.698434 298.363804 
L 313.305635 301.346889 
L 314.912835 300.772166 
L 316.520036 271.899185 
L 318.127237 299.704824 
L 319.734437 301.155315 
L 321.341638 295.435454 
L 322.948839 297.624874 
L 324.55604 298.637481 
L 326.16324 278.002194 
L 327.770441 282.353667 
L 329.377642 298.911159 
L 330.984842 294.696525 
L 332.592043 289.250341 
L 334.199244 288.018793 
L 335.806445 265.276189 
L 337.413645 299.540617 
L 339.020846 300.11534 
L 340.628047 266.124589 
L 342.235248 238.154744 
L 343.842448 258.133205 
L 345.449649 284.26941 
L 347.05685 220.557278 
L 348.66405 264.099375 
L 351.878452 278.877963 
L 353.485653 280.465292 
L 355.092853 294.532318 
L 356.700054 254.219616 
L 358.307255 271.570772 
L 359.914455 231.942264 
L 361.521656 279.808466 
L 363.128857 270.366591 
L 364.736058 284.76203 
L 366.343258 246.200864 
L 367.950459 287.772483 
L 369.55766 299.294307 
L 371.16486 290.919774 
L 372.772061 241.630449 
L 374.379262 295.873338 
L 375.986463 276.414865 
L 377.593663 274.854903 
L 379.200864 267.32877 
L 380.808065 276.168555 
L 382.415266 218.668903 
L 384.022466 293.957595 
L 385.629667 272.227598 
L 387.236868 295.818602 
L 388.844068 265.522499 
L 390.451269 301.894244 
L 392.05847 257.503747 
L 393.665671 223.376157 
L 395.272871 284.789398 
L 396.880072 192.122182 
L 398.487273 298.555378 
L 398.487273 298.555378 
" clip-path="url(#p725ef92b48)" style="fill: none; stroke: #1f77b4; stroke-width: 1.5; stroke-linecap: square"/>
   </g>
   <g id="patch_8">
    <path d="M 57.6 307.584 
L 57.6 186.624 
" style="fill: none; stroke: #000000; stroke-width: 0.8; stroke-linejoin: miter; stroke-linecap: square"/>
   </g>
   <g id="patch_9">
    <path d="M 414.72 307.584 
L 414.72 186.624 
" style="fill: none; stroke: #000000; stroke-width: 0.8; stroke-linejoin: miter; stroke-linecap: square"/>
   </g>
   <g id="patch_10">
    <path d="M 57.6 307.584 
L 414.72 307.584 
" style="fill: none; stroke: #000000; stroke-width: 0.8; stroke-linejoin: miter; stroke-linecap: square"/>
   </g>
   <g id="patch_11">
    <path d="M 57.6 186.624 
L 414.72 186.624 
" style="fill: none; stroke: #000000; stroke-width: 0.8; stroke-linejoin: miter; stroke-linecap: square"/>
   </g>
  </g>
 </g>
 <defs>
  <clipPath id="p09dd27de02">
   <rect x="57.6" y="41.472" width="357.12" height="120.96"/>
  </clipPath>
  <clipPath id="p725ef92b48">
   <rect x="57.6" y="186.624" width="357.12" height="120.96"/>
  </clipPath>
 </defs>
</svg>
