<?xml version="1.0" encoding="utf-8" standalone="no"?>
<!DOCTYPE svg PUBLIC "-//W3C//DTD SVG 1.1//EN"
  "http://www.w3.org/Graphics/SVG/1.1/DTD/svg11.dtd">
<svg xmlns:xlink="http://www.w3.org/1999/xlink" width="460.8pt" height="345.6pt" viewBox="0 0 460.8 345.6" xmlns="http://www.w3.org/2000/svg" version="1.1">
 <metadata>
  <rdf:RDF xmlns:dc="http://purl.org/dc/elements/1.1/" xmlns:cc="http://creativecommons.org/ns#" xmlns:rdf="http://www.w3.org/1999/02/22-rdf-syntax-ns#">
   <cc:Work>
    <dc:type rdf:resource="http://purl.org/dc/dcmitype/StillImage"/>
    <dc:date>2022-05-13T16:46:25.977534</dc:date>
    <dc:format>image/svg+xml</dc:format>
    <dc:creator>
     <cc:Agent>
      <dc:title>Matplotlib v3.5.1, https://matplotlib.org/</dc:title>
     </cc:Agent>
    </dc:creator>
   </cc:Work>
  </rdf:RDF>
 </metadata>
 <defs>
  <style type="text/css">*{stroke-linejoin: round; stroke-linecap: butt}</style>
 </defs>
 <g id="figure_1">
  <g id="patch_1">
   <path d="M 0 345.6 
L 460.8 345.6 
L 460.8 0 
L 0 0 
z
" style="fill: #ffffff"/>
  </g>
  <g id="axes_1">
   <g id="patch_2">
    <path d="M 57.6 162.432 
L 414.72 162.432 
L 414.72 41.472 
L 57.6 41.472 
z
" style="fill: #ffffff"/>
   </g>
   <g id="matplotlib.axis_1">
    <g id="xtick_1">
     <g id="line2d_1">
      <defs>
       <path id="mcbe7ec58e1" d="M 0 0 
L 0 3.5 
" style="stroke: #000000; stroke-width: 0.8"/>
      </defs>
      <g>
       <use xlink:href="#mcbe7ec58e1" x="73.827491" y="162.432" style="stroke: #000000; stroke-width: 0.8"/>
      </g>
     </g>
     <g id="text_1">
      <!-- 0 -->
      <g transform="translate(70.646241 177.030437)scale(0.1 -0.1)">
       <defs>
        <path id="DejaVuSans-30" d="M 2034 4250 
Q 1547 4250 1301 3770 
Q 1056 3291 1056 2328 
Q 1056 1369 1301 889 
Q 1547 409 2034 409 
Q 2525 409 2770 889 
Q 3016 1369 3016 2328 
Q 3016 3291 2770 3770 
Q 2525 4250 2034 4250 
z
M 2034 4750 
Q 2819 4750 3233 4129 
Q 3647 3509 3647 2328 
Q 3647 1150 3233 529 
Q 2819 -91 2034 -91 
Q 1250 -91 836 529 
Q 422 1150 422 2328 
Q 422 3509 836 4129 
Q 1250 4750 2034 4750 
z
" transform="scale(0.015625)"/>
       </defs>
       <use xlink:href="#DejaVuSans-30"/>
      </g>
     </g>
    </g>
    <g id="xtick_2">
     <g id="line2d_2">
      <g>
       <use xlink:href="#mcbe7ec58e1" x="126.191972" y="162.432" style="stroke: #000000; stroke-width: 0.8"/>
      </g>
     </g>
     <g id="text_2">
      <!-- 10000 -->
      <g transform="translate(110.285722 177.030437)scale(0.1 -0.1)">
       <defs>
        <path id="DejaVuSans-31" d="M 794 531 
L 1825 531 
L 1825 4091 
L 703 3866 
L 703 4441 
L 1819 4666 
L 2450 4666 
L 2450 531 
L 3481 531 
L 3481 0 
L 794 0 
L 794 531 
z
" transform="scale(0.015625)"/>
       </defs>
       <use xlink:href="#DejaVuSans-31"/>
       <use xlink:href="#DejaVuSans-30" x="63.623047"/>
       <use xlink:href="#DejaVuSans-30" x="127.246094"/>
       <use xlink:href="#DejaVuSans-30" x="190.869141"/>
       <use xlink:href="#DejaVuSans-30" x="254.492188"/>
      </g>
     </g>
    </g>
    <g id="xtick_3">
     <g id="line2d_3">
      <g>
       <use xlink:href="#mcbe7ec58e1" x="178.556453" y="162.432" style="stroke: #000000; stroke-width: 0.8"/>
      </g>
     </g>
     <g id="text_3">
      <!-- 20000 -->
      <g transform="translate(162.650203 177.030437)scale(0.1 -0.1)">
       <defs>
        <path id="DejaVuSans-32" d="M 1228 531 
L 3431 531 
L 3431 0 
L 469 0 
L 469 531 
Q 828 903 1448 1529 
Q 2069 2156 2228 2338 
Q 2531 2678 2651 2914 
Q 2772 3150 2772 3378 
Q 2772 3750 2511 3984 
Q 2250 4219 1831 4219 
Q 1534 4219 1204 4116 
Q 875 4013 500 3803 
L 500 4441 
Q 881 4594 1212 4672 
Q 1544 4750 1819 4750 
Q 2544 4750 2975 4387 
Q 3406 4025 3406 3419 
Q 3406 3131 3298 2873 
Q 3191 2616 2906 2266 
Q 2828 2175 2409 1742 
Q 1991 1309 1228 531 
z
" transform="scale(0.015625)"/>
       </defs>
       <use xlink:href="#DejaVuSans-32"/>
       <use xlink:href="#DejaVuSans-30" x="63.623047"/>
       <use xlink:href="#DejaVuSans-30" x="127.246094"/>
       <use xlink:href="#DejaVuSans-30" x="190.869141"/>
       <use xlink:href="#DejaVuSans-30" x="254.492188"/>
      </g>
     </g>
    </g>
    <g id="xtick_4">
     <g id="line2d_4">
      <g>
       <use xlink:href="#mcbe7ec58e1" x="230.920934" y="162.432" style="stroke: #000000; stroke-width: 0.8"/>
      </g>
     </g>
     <g id="text_4">
      <!-- 30000 -->
      <g transform="translate(215.014684 177.030437)scale(0.1 -0.1)">
       <defs>
        <path id="DejaVuSans-33" d="M 2597 2516 
Q 3050 2419 3304 2112 
Q 3559 1806 3559 1356 
Q 3559 666 3084 287 
Q 2609 -91 1734 -91 
Q 1441 -91 1130 -33 
Q 819 25 488 141 
L 488 750 
Q 750 597 1062 519 
Q 1375 441 1716 441 
Q 2309 441 2620 675 
Q 2931 909 2931 1356 
Q 2931 1769 2642 2001 
Q 2353 2234 1838 2234 
L 1294 2234 
L 1294 2753 
L 1863 2753 
Q 2328 2753 2575 2939 
Q 2822 3125 2822 3475 
Q 2822 3834 2567 4026 
Q 2313 4219 1838 4219 
Q 1578 4219 1281 4162 
Q 984 4106 628 3988 
L 628 4550 
Q 988 4650 1302 4700 
Q 1616 4750 1894 4750 
Q 2613 4750 3031 4423 
Q 3450 4097 3450 3541 
Q 3450 3153 3228 2886 
Q 3006 2619 2597 2516 
z
" transform="scale(0.015625)"/>
       </defs>
       <use xlink:href="#DejaVuSans-33"/>
       <use xlink:href="#DejaVuSans-30" x="63.623047"/>
       <use xlink:href="#DejaVuSans-30" x="127.246094"/>
       <use xlink:href="#DejaVuSans-30" x="190.869141"/>
       <use xlink:href="#DejaVuSans-30" x="254.492188"/>
      </g>
     </g>
    </g>
    <g id="xtick_5">
     <g id="line2d_5">
      <g>
       <use xlink:href="#mcbe7ec58e1" x="283.285415" y="162.432" style="stroke: #000000; stroke-width: 0.8"/>
      </g>
     </g>
     <g id="text_5">
      <!-- 40000 -->
      <g transform="translate(267.379165 177.030437)scale(0.1 -0.1)">
       <defs>
        <path id="DejaVuSans-34" d="M 2419 4116 
L 825 1625 
L 2419 1625 
L 2419 4116 
z
M 2253 4666 
L 3047 4666 
L 3047 1625 
L 3713 1625 
L 3713 1100 
L 3047 1100 
L 3047 0 
L 2419 0 
L 2419 1100 
L 313 1100 
L 313 1709 
L 2253 4666 
z
" transform="scale(0.015625)"/>
       </defs>
       <use xlink:href="#DejaVuSans-34"/>
       <use xlink:href="#DejaVuSans-30" x="63.623047"/>
       <use xlink:href="#DejaVuSans-30" x="127.246094"/>
       <use xlink:href="#DejaVuSans-30" x="190.869141"/>
       <use xlink:href="#DejaVuSans-30" x="254.492188"/>
      </g>
     </g>
    </g>
    <g id="xtick_6">
     <g id="line2d_6">
      <g>
       <use xlink:href="#mcbe7ec58e1" x="335.649896" y="162.432" style="stroke: #000000; stroke-width: 0.8"/>
      </g>
     </g>
     <g id="text_6">
      <!-- 50000 -->
      <g transform="translate(319.743646 177.030437)scale(0.1 -0.1)">
       <defs>
        <path id="DejaVuSans-35" d="M 691 4666 
L 3169 4666 
L 3169 4134 
L 1269 4134 
L 1269 2991 
Q 1406 3038 1543 3061 
Q 1681 3084 1819 3084 
Q 2600 3084 3056 2656 
Q 3513 2228 3513 1497 
Q 3513 744 3044 326 
Q 2575 -91 1722 -91 
Q 1428 -91 1123 -41 
Q 819 9 494 109 
L 494 744 
Q 775 591 1075 516 
Q 1375 441 1709 441 
Q 2250 441 2565 725 
Q 2881 1009 2881 1497 
Q 2881 1984 2565 2268 
Q 2250 2553 1709 2553 
Q 1456 2553 1204 2497 
Q 953 2441 691 2322 
L 691 4666 
z
" transform="scale(0.015625)"/>
       </defs>
       <use xlink:href="#DejaVuSans-35"/>
       <use xlink:href="#DejaVuSans-30" x="63.623047"/>
       <use xlink:href="#DejaVuSans-30" x="127.246094"/>
       <use xlink:href="#DejaVuSans-30" x="190.869141"/>
       <use xlink:href="#DejaVuSans-30" x="254.492188"/>
      </g>
     </g>
    </g>
    <g id="xtick_7">
     <g id="line2d_7">
      <g>
       <use xlink:href="#mcbe7ec58e1" x="388.014377" y="162.432" style="stroke: #000000; stroke-width: 0.8"/>
      </g>
     </g>
     <g id="text_7">
      <!-- 60000 -->
      <g transform="translate(372.108127 177.030437)scale(0.1 -0.1)">
       <defs>
        <path id="DejaVuSans-36" d="M 2113 2584 
Q 1688 2584 1439 2293 
Q 1191 2003 1191 1497 
Q 1191 994 1439 701 
Q 1688 409 2113 409 
Q 2538 409 2786 701 
Q 3034 994 3034 1497 
Q 3034 2003 2786 2293 
Q 2538 2584 2113 2584 
z
M 3366 4563 
L 3366 3988 
Q 3128 4100 2886 4159 
Q 2644 4219 2406 4219 
Q 1781 4219 1451 3797 
Q 1122 3375 1075 2522 
Q 1259 2794 1537 2939 
Q 1816 3084 2150 3084 
Q 2853 3084 3261 2657 
Q 3669 2231 3669 1497 
Q 3669 778 3244 343 
Q 2819 -91 2113 -91 
Q 1303 -91 875 529 
Q 447 1150 447 2328 
Q 447 3434 972 4092 
Q 1497 4750 2381 4750 
Q 2619 4750 2861 4703 
Q 3103 4656 3366 4563 
z
" transform="scale(0.015625)"/>
       </defs>
       <use xlink:href="#DejaVuSans-36"/>
       <use xlink:href="#DejaVuSans-30" x="63.623047"/>
       <use xlink:href="#DejaVuSans-30" x="127.246094"/>
       <use xlink:href="#DejaVuSans-30" x="190.869141"/>
       <use xlink:href="#DejaVuSans-30" x="254.492188"/>
      </g>
     </g>
    </g>
   </g>
   <g id="matplotlib.axis_2">
    <g id="ytick_1">
     <g id="line2d_8">
      <defs>
       <path id="m098ee294c9" d="M 0 0 
L -3.5 0 
" style="stroke: #000000; stroke-width: 0.8"/>
      </defs>
      <g>
       <use xlink:href="#m098ee294c9" x="57.6" y="152.81533" style="stroke: #000000; stroke-width: 0.8"/>
      </g>
     </g>
     <g id="text_8">
      <!-- −25 -->
      <g transform="translate(29.495313 156.614549)scale(0.1 -0.1)">
       <defs>
        <path id="DejaVuSans-2212" d="M 678 2272 
L 4684 2272 
L 4684 1741 
L 678 1741 
L 678 2272 
z
" transform="scale(0.015625)"/>
       </defs>
       <use xlink:href="#DejaVuSans-2212"/>
       <use xlink:href="#DejaVuSans-32" x="83.789062"/>
       <use xlink:href="#DejaVuSans-35" x="147.412109"/>
      </g>
     </g>
    </g>
    <g id="ytick_2">
     <g id="line2d_9">
      <g>
       <use xlink:href="#m098ee294c9" x="57.6" y="132.222889" style="stroke: #000000; stroke-width: 0.8"/>
      </g>
     </g>
     <g id="text_9">
      <!-- 0 -->
      <g transform="translate(44.2375 136.022107)scale(0.1 -0.1)">
       <use xlink:href="#DejaVuSans-30"/>
      </g>
     </g>
    </g>
    <g id="ytick_3">
     <g id="line2d_10">
      <g>
       <use xlink:href="#m098ee294c9" x="57.6" y="111.630447" style="stroke: #000000; stroke-width: 0.8"/>
      </g>
     </g>
     <g id="text_10">
      <!-- 25 -->
      <g transform="translate(37.875 115.429666)scale(0.1 -0.1)">
       <use xlink:href="#DejaVuSans-32"/>
       <use xlink:href="#DejaVuSans-35" x="63.623047"/>
      </g>
     </g>
    </g>
    <g id="ytick_4">
     <g id="line2d_11">
      <g>
       <use xlink:href="#m098ee294c9" x="57.6" y="91.038006" style="stroke: #000000; stroke-width: 0.8"/>
      </g>
     </g>
     <g id="text_11">
      <!-- 50 -->
      <g transform="translate(37.875 94.837225)scale(0.1 -0.1)">
       <use xlink:href="#DejaVuSans-35"/>
       <use xlink:href="#DejaVuSans-30" x="63.623047"/>
      </g>
     </g>
    </g>
    <g id="ytick_5">
     <g id="line2d_12">
      <g>
       <use xlink:href="#m098ee294c9" x="57.6" y="70.445565" style="stroke: #000000; stroke-width: 0.8"/>
      </g>
     </g>
     <g id="text_12">
      <!-- 75 -->
      <g transform="translate(37.875 74.244784)scale(0.1 -0.1)">
       <defs>
        <path id="DejaVuSans-37" d="M 525 4666 
L 3525 4666 
L 3525 4397 
L 1831 0 
L 1172 0 
L 2766 4134 
L 525 4134 
L 525 4666 
z
" transform="scale(0.015625)"/>
       </defs>
       <use xlink:href="#DejaVuSans-37"/>
       <use xlink:href="#DejaVuSans-35" x="63.623047"/>
      </g>
     </g>
    </g>
    <g id="ytick_6">
     <g id="line2d_13">
      <g>
       <use xlink:href="#m098ee294c9" x="57.6" y="49.853124" style="stroke: #000000; stroke-width: 0.8"/>
      </g>
     </g>
     <g id="text_13">
      <!-- 100 -->
      <g transform="translate(31.5125 53.652342)scale(0.1 -0.1)">
       <use xlink:href="#DejaVuSans-31"/>
       <use xlink:href="#DejaVuSans-30" x="63.623047"/>
       <use xlink:href="#DejaVuSans-30" x="127.246094"/>
      </g>
     </g>
    </g>
   </g>
   <g id="line2d_14">
    <path d="M 73.832727 49.578558 
L 73.837964 49.578558 
L 73.911274 49.098067 
L 73.890328 49.921765 
L 73.942693 49.715841 
L 73.958402 49.715841 
L 74.073604 52.598782 
L 74.084077 52.186934 
L 74.136441 52.186934 
L 74.267352 51.08867 
L 74.382554 51.912368 
L 74.419209 51.912368 
L 74.424446 51.500519 
L 74.429682 52.324217 
L 74.529175 51.912368 
L 74.544884 51.912368 
L 74.628667 51.225953 
L 74.633904 52.049651 
L 74.649613 52.049651 
L 74.660086 52.049651 
L 74.670559 52.461499 
L 74.775288 51.637802 
L 74.780524 51.637802 
L 74.859071 51.225953 
L 74.864308 52.049651 
L 74.885253 52.049651 
L 74.89049 52.049651 
L 74.937618 51.775085 
L 74.969037 53.147914 
L 74.979509 53.147914 
L 75.005692 53.147914 
L 75.089475 53.971612 
L 75.115657 53.353839 
L 75.12613 53.353839 
L 75.246568 52.530141 
L 75.503154 52.530141 
L 75.623593 51.431877 
L 75.696903 51.431877 
L 75.817341 53.079273 
L 75.859233 53.079273 
L 75.974435 52.667424 
L 75.990144 52.667424 
L 76.026799 52.255575 
L 76.032035 53.079273 
L 76.100109 52.667424 
L 76.115819 52.667424 
L 76.17342 52.461499 
L 76.178656 53.285197 
L 76.225784 52.667424 
L 76.356695 52.667424 
L 76.477134 54.314819 
L 76.608045 54.314819 
L 76.723247 53.90297 
L 76.728483 53.90297 
L 76.843685 54.726668 
L 76.995542 54.726668 
L 77.110744 55.550366 
L 77.157872 55.550366 
L 77.27831 54.726668 
L 77.398748 54.726668 
L 77.435404 54.314819 
L 77.44064 55.138517 
L 77.503477 55.138517 
L 77.51395 55.138517 
L 77.629152 54.726668 
L 77.69199 54.726668 
L 77.807191 54.314819 
L 77.943339 54.314819 
L 78.063777 55.962215 
L 78.168506 55.962215 
L 78.241817 55.550366 
L 78.247053 56.374063 
L 78.278472 55.962215 
L 78.39891 55.962215 
L 78.514112 56.785912 
L 78.550767 56.785912 
L 78.665969 56.374063 
L 78.739279 56.374063 
L 78.859717 55.550366 
L 78.969683 55.550366 
L 78.990629 56.374063 
L 79.079648 55.962215 
L 79.090121 55.962215 
L 79.210559 55.138517 
L 79.467145 55.138517 
L 79.550929 54.932592 
L 79.556165 55.75629 
L 79.561401 55.75629 
L 79.728968 55.75629 
L 79.781332 55.344441 
L 79.786569 56.168139 
L 79.833697 56.168139 
L 79.959372 56.168139 
L 80.074573 55.75629 
L 80.100756 55.75629 
L 80.215958 56.579988 
L 80.310214 56.579988 
L 80.31545 57.403685 
L 80.420179 56.991837 
L 80.739602 56.991837 
L 80.854804 56.579988 
L 81.603616 56.579988 
L 81.718818 56.168139 
L 81.844493 56.168139 
L 81.959695 56.991837 
L 82.038241 56.991837 
L 82.153443 57.815534 
L 82.509522 57.815534 
L 82.567123 58.639232 
L 82.619487 58.227383 
L 82.750398 58.227383 
L 82.870837 57.403685 
L 83.881471 57.403685 
L 83.975727 58.227383 
L 83.991437 57.815534 
L 84.153766 57.815534 
L 84.268968 57.403685 
L 84.488899 57.403685 
L 84.604101 58.227383 
L 84.614574 58.227383 
L 84.729776 57.815534 
L 86.730099 57.815534 
L 86.845301 57.403685 
L 87.452729 57.403685 
L 87.567931 56.991837 
L 88.018265 56.991837 
L 88.133467 57.815534 
L 88.170122 57.815534 
L 88.29056 56.991837 
L 88.746131 56.991837 
L 88.861333 57.815534 
L 90.128554 57.815534 
L 90.243756 58.639232 
L 90.269938 58.639232 
L 90.38514 58.227383 
L 91.238681 58.227383 
L 91.353883 59.051081 
L 91.751853 59.051081 
L 91.867055 58.639232 
L 94.103018 58.639232 
L 94.21822 59.46293 
L 94.375313 59.46293 
L 94.490515 60.286627 
L 94.694736 60.286627 
L 94.809938 59.874778 
L 94.951322 59.874778 
L 95.066524 59.46293 
L 96.187124 59.46293 
L 96.307562 58.639232 
L 98.826294 58.639232 
L 98.941496 59.46293 
L 99.213791 59.46293 
L 99.328993 59.051081 
L 100.590977 59.051081 
L 100.706179 58.639232 
L 101.978636 58.639232 
L 102.093838 59.46293 
L 104.052269 59.46293 
L 104.167471 60.286627 
L 104.19889 60.286627 
L 104.314092 59.874778 
L 106.670493 59.874778 
L 106.785695 59.46293 
L 108.26761 59.46293 
L 108.330447 60.286627 
L 108.377575 59.874778 
L 109.026895 59.874778 
L 109.142097 60.698476 
L 109.503412 60.698476 
L 109.618614 60.286627 
L 112.210655 60.286627 
L 112.325857 59.874778 
L 114.807934 59.874778 
L 114.923135 59.46293 
L 115.525327 59.46293 
L 115.640529 60.286627 
L 116.064681 60.286627 
L 116.179883 59.874778 
L 119.578338 59.874778 
L 119.69354 59.46293 
L 121.672917 59.46293 
L 121.788119 59.051081 
L 126.275755 59.051081 
L 126.390957 58.845156 
L 127.516793 58.845156 
L 127.631995 59.668854 
L 131.669296 59.668854 
L 131.784498 59.257005 
L 134.512688 59.257005 
L 134.62789 60.080703 
L 135.785145 60.080703 
L 135.900347 59.668854 
L 141.33578 59.668854 
L 141.450982 59.257005 
L 142.969551 59.257005 
L 143.084753 60.080703 
L 144.713289 60.080703 
L 144.828491 59.668854 
L 148.247891 59.668854 
L 148.363093 60.492552 
L 150.693312 60.492552 
L 150.808514 60.080703 
L 154.91389 60.080703 
L 155.029091 60.9044 
L 161.380903 60.9044 
L 161.496105 61.728098 
L 162.941365 61.728098 
L 163.056566 61.316249 
L 168.921388 61.316249 
L 169.03659 60.9044 
L 175.404111 60.9044 
L 175.519313 60.492552 
L 179.03297 60.492552 
L 179.148171 61.316249 
L 180.493939 61.316249 
L 180.60914 60.9044 
L 184.76688 60.9044 
L 184.882082 60.492552 
L 190.663121 60.492552 
L 190.778323 61.316249 
L 199.277078 61.316249 
L 199.39228 60.9044 
L 200.973687 60.9044 
L 201.088889 60.492552 
L 201.821992 60.492552 
L 201.937193 61.316249 
L 206.142061 61.316249 
L 206.257263 60.9044 
L 219.165108 60.9044 
L 219.28031 61.728098 
L 220.495166 61.728098 
L 220.610367 61.316249 
L 225.89918 61.316249 
L 226.014382 60.9044 
L 230.622456 60.9044 
L 230.737658 61.728098 
L 250.400521 61.728098 
L 250.515722 61.316249 
L 293.061863 61.316249 
L 293.177065 60.9044 
L 294.240064 60.9044 
L 294.355266 61.728098 
L 308.111415 61.728098 
L 308.226617 62.551796 
L 333.110218 62.551796 
L 333.22542 63.375493 
L 346.285122 63.375493 
L 346.40556 62.551796 
L 398.487273 62.551796 
L 398.487273 62.551796 
" clip-path="url(#p68ea1e05de)" style="fill: none; stroke: #1f77b4; stroke-width: 1.5; stroke-linecap: square"/>
   </g>
   <g id="line2d_15">
    <path d="M 73.832727 49.853124 
L 73.979348 55.619007 
L 74.00553 55.619007 
L 74.073604 57.678251 
L 74.125968 57.266402 
L 74.157387 57.266402 
L 74.267352 56.442705 
L 74.382554 57.266402 
L 74.419209 57.266402 
L 74.424446 56.854554 
L 74.450628 58.501949 
L 74.518702 58.0901 
L 74.544884 58.0901 
L 74.665323 57.266402 
L 74.701978 58.0901 
L 74.775288 57.266402 
L 74.780524 57.266402 
L 74.859071 56.442705 
L 74.89049 57.266402 
L 74.937618 57.266402 
L 75.063293 59.737495 
L 75.105184 59.737495 
L 75.230859 58.501949 
L 75.372243 58.501949 
L 75.487445 58.296025 
L 75.503154 58.296025 
L 75.513627 57.884176 
L 75.518864 58.707873 
L 75.61312 58.158742 
L 75.696903 58.158742 
L 75.817341 59.806137 
L 75.859233 59.806137 
L 75.974435 59.394288 
L 75.990144 59.394288 
L 76.032035 59.806137 
L 76.110582 58.57059 
L 76.17342 58.57059 
L 76.215311 59.394288 
L 76.283385 58.982439 
L 76.356695 58.982439 
L 76.48237 61.453532 
L 76.608045 61.453532 
L 76.723247 61.041683 
L 76.728483 61.041683 
L 76.843685 61.865381 
L 77.157872 61.865381 
L 77.27831 61.041683 
L 77.398748 61.041683 
L 77.435404 60.629835 
L 77.44064 61.453532 
L 77.503477 61.453532 
L 77.51395 61.453532 
L 77.597733 61.041683 
L 77.60297 61.865381 
L 77.618679 61.865381 
L 77.650098 61.865381 
L 77.723408 60.629835 
L 77.760063 61.453532 
L 77.943339 61.453532 
L 78.063777 63.100927 
L 78.168506 63.100927 
L 78.241817 62.689079 
L 78.247053 63.512776 
L 78.273235 63.512776 
L 78.550767 63.512776 
L 78.665969 63.100927 
L 78.739279 63.100927 
L 78.791644 62.27723 
L 78.849245 63.100927 
L 78.990629 63.100927 
L 79.111067 62.27723 
L 79.184377 62.27723 
L 79.299579 61.865381 
L 79.420017 61.865381 
L 79.477618 61.041683 
L 79.529983 61.865381 
L 79.550929 61.865381 
L 79.66613 62.689079 
L 79.728968 62.689079 
L 79.781332 62.27723 
L 79.786569 63.100927 
L 79.833697 63.100927 
L 79.959372 63.100927 
L 80.074573 62.689079 
L 80.100756 62.689079 
L 80.215958 63.512776 
L 80.310214 63.512776 
L 80.31545 64.336474 
L 80.420179 63.924625 
L 80.739602 63.924625 
L 80.854804 63.512776 
L 81.242301 63.512776 
L 81.357503 64.336474 
L 81.603616 64.336474 
L 81.718818 63.924625 
L 81.844493 63.924625 
L 81.959695 64.748323 
L 82.038241 64.748323 
L 82.153443 65.57202 
L 82.509522 65.57202 
L 82.567123 66.395718 
L 82.619487 65.983869 
L 82.750398 65.983869 
L 82.870837 65.160172 
L 83.881471 65.160172 
L 83.975727 65.983869 
L 83.991437 65.57202 
L 84.153766 65.57202 
L 84.268968 65.160172 
L 84.488899 65.160172 
L 84.604101 65.983869 
L 84.614574 65.983869 
L 84.729776 65.57202 
L 85.012544 65.57202 
L 85.127746 66.395718 
L 86.730099 66.395718 
L 86.845301 65.983869 
L 86.902902 65.983869 
L 87.018104 66.807567 
L 87.452729 66.807567 
L 87.567931 66.395718 
L 87.67266 66.395718 
L 87.787861 67.219416 
L 88.018265 67.219416 
L 88.133467 68.043113 
L 88.170122 68.043113 
L 88.29056 67.219416 
L 88.746131 67.219416 
L 88.861333 68.043113 
L 89.741057 68.043113 
L 89.856258 68.866811 
L 90.128554 68.866811 
L 90.243756 69.690509 
L 90.269938 69.690509 
L 90.38514 69.27866 
L 91.751853 69.27866 
L 91.867055 68.866811 
L 94.103018 68.866811 
L 94.21822 69.690509 
L 94.694736 69.690509 
L 94.809938 69.27866 
L 94.951322 69.27866 
L 95.066524 68.866811 
L 95.427839 68.866811 
L 95.543041 69.690509 
L 96.187124 69.690509 
L 96.307562 68.866811 
L 96.448947 68.866811 
L 96.564148 69.690509 
L 98.826294 69.690509 
L 98.941496 70.514206 
L 99.213791 70.514206 
L 99.328993 70.102358 
L 100.590977 70.102358 
L 100.706179 69.690509 
L 101.978636 69.690509 
L 102.093838 70.514206 
L 104.19889 70.514206 
L 104.314092 70.102358 
L 106.670493 70.102358 
L 106.785695 69.690509 
L 108.26761 69.690509 
L 108.330447 70.514206 
L 108.377575 70.102358 
L 109.026895 70.102358 
L 109.142097 70.926055 
L 109.503412 70.926055 
L 109.629086 69.690509 
L 111.608464 69.690509 
L 111.723666 70.514206 
L 112.210655 70.514206 
L 112.325857 70.102358 
L 114.807934 70.102358 
L 114.923135 69.690509 
L 114.970264 69.690509 
L 115.085465 70.514206 
L 115.525327 70.514206 
L 115.640529 71.337904 
L 116.064681 71.337904 
L 116.179883 70.926055 
L 117.36332 70.926055 
L 117.478522 71.749753 
L 119.578338 71.749753 
L 119.69354 71.337904 
L 121.672917 71.337904 
L 121.788119 70.926055 
L 125.725928 70.926055 
L 125.84113 71.749753 
L 127.516793 71.749753 
L 127.631995 72.57345 
L 131.669296 72.57345 
L 131.784498 72.161602 
L 134.512688 72.161602 
L 134.62789 72.985299 
L 135.785145 72.985299 
L 135.900347 72.57345 
L 139.131235 72.57345 
L 139.246437 73.397148 
L 141.33578 73.397148 
L 141.450982 72.985299 
L 142.969551 72.985299 
L 143.084753 73.808997 
L 144.713289 73.808997 
L 144.828491 73.397148 
L 148.247891 73.397148 
L 148.363093 74.220846 
L 150.693312 74.220846 
L 150.808514 73.808997 
L 161.380903 73.808997 
L 161.496105 74.632695 
L 162.941365 74.632695 
L 163.056566 74.220846 
L 168.921388 74.220846 
L 169.03659 73.808997 
L 175.404111 73.808997 
L 175.519313 73.397148 
L 176.15816 73.397148 
L 176.273361 74.220846 
L 180.493939 74.220846 
L 180.60914 73.808997 
L 184.76688 73.808997 
L 184.882082 73.397148 
L 188.102498 73.397148 
L 188.217699 74.220846 
L 192.569188 74.220846 
L 192.68439 75.044543 
L 199.277078 75.044543 
L 199.39228 74.632695 
L 200.973687 74.632695 
L 201.088889 74.220846 
L 201.319293 74.220846 
L 201.434494 75.044543 
L 201.821992 75.044543 
L 201.937193 75.868241 
L 206.142061 75.868241 
L 206.257263 75.456392 
L 219.165108 75.456392 
L 219.28031 76.28009 
L 220.495166 76.28009 
L 220.610367 75.868241 
L 225.89918 75.868241 
L 226.014382 75.456392 
L 228.061833 75.456392 
L 228.177035 76.28009 
L 230.622456 76.28009 
L 230.737658 77.103788 
L 250.400521 77.103788 
L 250.515722 76.691939 
L 293.061863 76.691939 
L 293.177065 76.28009 
L 294.240064 76.28009 
L 294.355266 77.103788 
L 301.811968 77.103788 
L 301.92717 77.927485 
L 308.111415 77.927485 
L 308.226617 78.751183 
L 346.285122 78.751183 
L 346.40556 77.927485 
L 398.487273 77.927485 
L 398.487273 77.927485 
" clip-path="url(#p68ea1e05de)" style="fill: none; stroke: #ff7f0e; stroke-width: 1.5; stroke-linecap: square"/>
   </g>
   <g id="line2d_16">
    <path d="M 73.832727 49.578558 
L 73.837964 49.578558 
L 73.85891 49.784482 
L 73.968875 48.686219 
L 74.036949 48.686219 
L 74.136441 50.333614 
L 74.152151 50.059048 
L 74.157387 50.059048 
L 74.272589 50.882746 
L 74.419209 50.882746 
L 74.424446 51.706443 
L 74.450628 50.676821 
L 74.523938 50.676821 
L 74.581539 50.676821 
L 74.628667 50.402255 
L 74.633904 51.225953 
L 74.681032 51.225953 
L 74.701978 51.225953 
L 74.827652 53.697046 
L 74.89049 53.697046 
L 75.010928 53.147914 
L 75.173258 53.147914 
L 75.28846 53.971612 
L 75.372243 53.971612 
L 75.487445 54.795309 
L 75.513627 54.795309 
L 75.571228 53.971612 
L 75.581701 55.619007 
L 75.618356 55.344441 
L 75.859233 55.344441 
L 75.974435 56.168139 
L 75.990144 56.168139 
L 76.01109 56.991837 
L 76.079164 55.138517 
L 76.094873 55.962215 
L 76.17342 55.962215 
L 76.215311 55.75629 
L 76.220548 56.579988 
L 76.267676 56.579988 
L 76.356695 56.579988 
L 76.498079 55.344441 
L 76.608045 55.344441 
L 76.723247 56.168139 
L 76.728483 56.168139 
L 76.843685 55.962215 
L 77.147399 55.962215 
L 77.157872 55.138517 
L 77.178818 56.785912 
L 77.252128 56.785912 
L 77.398748 56.785912 
L 77.435404 57.60961 
L 77.508714 57.403685 
L 77.51395 57.403685 
L 77.597733 58.227383 
L 77.623916 57.403685 
L 77.723408 57.403685 
L 77.83861 56.579988 
L 77.953812 56.579988 
L 78.069014 56.374063 
L 78.168506 56.374063 
L 78.262762 57.197761 
L 78.278472 56.785912 
L 78.550767 56.785912 
L 78.597895 57.60961 
L 78.660732 56.785912 
L 78.739279 56.785912 
L 78.791644 58.433307 
L 78.854481 57.60961 
L 78.990629 57.60961 
L 79.111067 59.257005 
L 79.477618 59.257005 
L 79.59282 58.227383 
L 79.728968 58.227383 
L 79.781332 59.051081 
L 79.838933 58.845156 
L 79.959372 58.845156 
L 80.074573 59.668854 
L 80.100756 59.668854 
L 80.215958 59.46293 
L 80.31545 59.46293 
L 80.414943 60.286627 
L 80.425415 59.46293 
L 81.242301 59.46293 
L 81.357503 58.639232 
L 81.603616 58.639232 
L 81.718818 59.46293 
L 81.844493 59.46293 
L 81.959695 59.257005 
L 82.509522 59.257005 
L 82.624724 59.051081 
L 82.750398 59.051081 
L 82.870837 60.698476 
L 82.986039 60.698476 
L 83.10124 59.874778 
L 83.881471 59.874778 
L 83.975727 59.668854 
L 84.090929 60.492552 
L 84.153766 60.492552 
L 84.268968 61.316249 
L 84.488899 61.316249 
L 84.604101 61.041683 
L 84.614574 61.041683 
L 84.729776 61.865381 
L 85.012544 61.865381 
L 85.127746 61.041683 
L 86.730099 61.041683 
L 86.845301 61.865381 
L 86.902902 61.865381 
L 87.018104 61.041683 
L 87.452729 61.041683 
L 87.567931 61.865381 
L 87.67266 61.865381 
L 87.787861 61.041683 
L 88.170122 61.041683 
L 88.29056 62.689079 
L 88.746131 62.689079 
L 88.861333 62.483154 
L 89.741057 62.483154 
L 89.856258 61.659457 
L 89.981933 61.659457 
L 90.097135 60.835759 
L 90.128554 60.835759 
L 90.243756 60.629835 
L 90.269938 60.629835 
L 90.38514 61.453532 
L 91.751853 61.453532 
L 91.867055 62.27723 
L 94.103018 62.27723 
L 94.21822 62.071305 
L 94.694736 62.071305 
L 94.809938 62.895003 
L 94.951322 62.895003 
L 95.066524 63.718701 
L 95.427839 63.718701 
L 95.543041 62.895003 
L 96.28138 62.895003 
L 96.396582 63.718701 
L 96.448947 63.718701 
L 96.564148 62.895003 
L 98.826294 62.895003 
L 98.941496 62.689079 
L 99.213791 62.689079 
L 99.328993 63.512776 
L 100.590977 63.512776 
L 100.706179 64.336474 
L 101.125095 64.336474 
L 101.240297 63.512776 
L 101.978636 63.512776 
L 102.093838 63.306852 
L 102.44468 63.306852 
L 102.559882 62.483154 
L 104.19889 62.483154 
L 104.314092 63.306852 
L 106.670493 63.306852 
L 106.785695 64.13055 
L 108.26761 64.13055 
L 108.330447 63.924625 
L 108.335684 64.748323 
L 108.361866 64.748323 
L 109.026895 64.748323 
L 109.142097 64.542398 
L 109.503412 64.542398 
L 109.618614 65.366096 
L 110.236514 65.366096 
L 110.351716 64.542398 
L 111.608464 64.542398 
L 111.723666 63.718701 
L 112.210655 63.718701 
L 112.325857 64.542398 
L 114.807934 64.542398 
L 114.923135 65.366096 
L 114.970264 65.366096 
L 115.085465 64.542398 
L 115.525327 64.542398 
L 115.640529 64.336474 
L 116.064681 64.336474 
L 116.179883 65.160172 
L 117.36332 65.160172 
L 117.478522 64.336474 
L 119.138476 64.336474 
L 119.253678 63.512776 
L 119.578338 63.512776 
L 119.69354 64.336474 
L 121.672917 64.336474 
L 121.788119 65.160172 
L 125.725928 65.160172 
L 125.84113 64.336474 
L 127.516793 64.336474 
L 127.631995 64.13055 
L 131.669296 64.13055 
L 131.784498 64.954247 
L 134.512688 64.954247 
L 134.62789 64.748323 
L 135.785145 64.748323 
L 135.900347 65.57202 
L 137.078547 65.57202 
L 137.193749 64.748323 
L 139.131235 64.748323 
L 139.246437 63.924625 
L 141.33578 63.924625 
L 141.450982 64.748323 
L 142.969551 64.748323 
L 143.084753 64.542398 
L 144.713289 64.542398 
L 144.828491 65.366096 
L 148.247891 65.366096 
L 148.363093 65.160172 
L 150.693312 65.160172 
L 150.808514 65.983869 
L 154.552575 65.983869 
L 154.667777 66.807567 
L 161.380903 66.807567 
L 161.496105 66.601642 
L 161.627016 66.601642 
L 161.742218 65.777945 
L 162.941365 65.777945 
L 163.056566 66.601642 
L 166.046578 66.601642 
L 166.16178 65.777945 
L 168.921388 65.777945 
L 169.03659 66.601642 
L 175.404111 66.601642 
L 175.519313 67.42534 
L 176.15816 67.42534 
L 176.273361 66.601642 
L 180.493939 66.601642 
L 180.60914 67.42534 
L 184.76688 67.42534 
L 184.882082 68.249038 
L 188.102498 68.249038 
L 188.217699 67.42534 
L 192.569188 67.42534 
L 192.68439 66.601642 
L 199.277078 66.601642 
L 199.39228 67.42534 
L 201.319293 67.42534 
L 201.434494 66.601642 
L 201.821992 66.601642 
L 201.937193 66.395718 
L 206.142061 66.395718 
L 206.257263 67.219416 
L 219.165108 67.219416 
L 219.28031 67.013491 
L 220.495166 67.013491 
L 220.610367 67.837189 
L 225.89918 67.837189 
L 226.014382 68.660887 
L 228.061833 68.660887 
L 228.177035 67.837189 
L 230.622456 67.837189 
L 230.737658 67.631265 
L 250.400521 67.631265 
L 250.515722 68.454962 
L 267.570834 68.454962 
L 267.686036 69.27866 
L 271.199692 69.27866 
L 271.314894 68.454962 
L 293.061863 68.454962 
L 293.177065 69.27866 
L 294.240064 69.27866 
L 294.355266 69.072735 
L 295.837181 69.072735 
L 295.952383 69.896433 
L 301.811968 69.896433 
L 301.92717 69.072735 
L 308.111415 69.072735 
L 308.226617 68.866811 
L 346.285122 68.866811 
L 346.400324 69.690509 
L 398.487273 69.690509 
L 398.487273 69.690509 
" clip-path="url(#p68ea1e05de)" style="fill: none; stroke: #2ca02c; stroke-width: 1.5; stroke-linecap: square"/>
   </g>
   <g id="line2d_17">
    <path d="M 73.832727 50.676821 
L 73.8432 50.676821 
L 73.853673 51.294594 
L 73.979348 49.509916 
L 74.00553 49.509916 
L 74.136441 48.617577 
L 74.628667 48.617577 
L 74.743869 48.411653 
L 74.790997 48.411653 
L 74.911436 47.999804 
L 75.372243 47.999804 
L 75.487445 47.793879 
L 75.576464 47.793879 
L 75.691666 47.656597 
L 154.552575 47.656597 
L 154.667777 47.382031 
L 267.570834 47.382031 
L 267.686036 47.176106 
L 295.837181 47.176106 
L 295.952383 46.970182 
L 398.487273 46.970182 
L 398.487273 46.970182 
" clip-path="url(#p68ea1e05de)" style="fill: none; stroke: #d62728; stroke-width: 1.5; stroke-linecap: square"/>
   </g>
   <g id="line2d_18">
    <path d="M 73.832727 49.853124 
L 73.837964 49.853124 
L 73.953166 49.647199 
L 74.424446 49.647199 
L 74.539648 49.441275 
L 74.979509 49.441275 
L 75.099948 51.08867 
L 76.026799 51.08867 
L 76.115819 50.882746 
L 76.121055 51.706443 
L 76.17342 51.706443 
L 76.199602 51.500519 
L 76.204838 52.324217 
L 76.267676 52.324217 
L 76.356695 52.324217 
L 76.39335 52.118292 
L 76.398587 52.94199 
L 76.456188 52.736065 
L 76.681355 52.736065 
L 76.728483 53.559763 
L 76.79132 53.353839 
L 76.990305 53.353839 
L 76.995542 54.177536 
L 77.100271 53.90297 
L 77.435404 53.90297 
L 77.550605 53.697046 
L 77.953812 53.697046 
L 78.069014 53.491122 
L 78.39891 53.491122 
L 78.514112 53.216556 
L 78.969683 53.216556 
L 79.084885 52.94199 
L 79.152959 52.94199 
L 79.26816 53.765687 
L 79.467145 53.765687 
L 79.550929 54.589385 
L 79.577111 54.383461 
L 79.781332 54.383461 
L 79.896534 54.177536 
L 80.100756 54.177536 
L 80.215958 53.971612 
L 81.844493 53.971612 
L 81.959695 53.765687 
L 82.404793 53.765687 
L 82.509522 55.413083 
L 82.519995 55.207158 
L 83.881471 55.207158 
L 83.996673 55.001234 
L 84.488899 55.001234 
L 84.604101 54.726668 
L 88.746131 54.726668 
L 88.861333 54.520744 
L 90.112844 54.520744 
L 90.128554 55.344441 
L 90.22281 55.138517 
L 91.238681 55.138517 
L 91.353883 54.863951 
L 94.103018 54.863951 
L 94.21822 54.658027 
L 94.375313 54.658027 
L 94.490515 54.383461 
L 96.396582 54.383461 
L 96.511784 55.207158 
L 98.826294 55.207158 
L 98.941496 55.001234 
L 100.517667 55.001234 
L 100.632869 55.824932 
L 101.978636 55.824932 
L 102.093838 55.619007 
L 104.052269 55.619007 
L 104.167471 55.344441 
L 105.727933 55.344441 
L 105.843134 56.168139 
L 108.26761 56.168139 
L 108.382812 55.962215 
L 109.026895 55.962215 
L 109.142097 55.75629 
L 115.525327 55.75629 
L 115.640529 55.550366 
L 126.275755 55.550366 
L 126.390957 56.374063 
L 127.516793 56.374063 
L 127.631995 56.168139 
L 134.512688 56.168139 
L 134.62789 55.962215 
L 142.969551 55.962215 
L 143.084753 55.75629 
L 147.949414 55.75629 
L 148.064615 56.579988 
L 148.247891 56.579988 
L 148.363093 56.374063 
L 154.552575 56.374063 
L 154.667777 57.197761 
L 154.91389 57.197761 
L 155.029091 56.923195 
L 161.380903 56.923195 
L 161.496105 56.717271 
L 179.03297 56.717271 
L 179.148171 56.442705 
L 190.663121 56.442705 
L 190.778323 56.168139 
L 201.821992 56.168139 
L 201.937193 55.962215 
L 219.165108 55.962215 
L 219.28031 55.75629 
L 230.622456 55.75629 
L 230.737658 55.550366 
L 267.570834 55.550366 
L 267.686036 56.374063 
L 294.240064 56.374063 
L 294.355266 56.168139 
L 295.837181 56.168139 
L 295.952383 56.991837 
L 308.111415 56.991837 
L 308.226617 56.785912 
L 333.110218 56.785912 
L 333.22542 56.511346 
L 398.487273 56.511346 
L 398.487273 56.511346 
" clip-path="url(#p68ea1e05de)" style="fill: none; stroke: #9467bd; stroke-width: 1.5; stroke-linecap: square"/>
   </g>
   <g id="line2d_19">
    <path d="M 73.832727 49.578558 
L 73.853673 49.578558 
L 73.874619 50.402255 
L 73.963638 49.921765 
L 74.136441 49.921765 
L 74.251643 49.647199 
L 74.581539 49.647199 
L 74.696741 49.372633 
L 74.790997 49.372633 
L 74.89049 51.020029 
L 74.906199 50.745463 
L 74.958564 50.745463 
L 75.079002 50.196331 
L 75.089475 50.196331 
L 75.204677 49.990407 
L 75.372243 49.990407 
L 75.487445 50.814104 
L 75.576464 50.814104 
L 75.602647 51.637802 
L 75.68643 51.363236 
L 76.115819 51.363236 
L 76.236257 50.951387 
L 76.39335 50.951387 
L 76.508552 50.676821 
L 76.681355 50.676821 
L 76.796557 50.402255 
L 76.990305 50.402255 
L 77.105507 50.127689 
L 79.152959 50.127689 
L 79.26816 49.853124 
L 79.467145 49.853124 
L 79.582347 49.647199 
L 82.404793 49.647199 
L 82.525231 49.098067 
L 90.112844 49.098067 
L 90.228046 48.823502 
L 96.396582 48.823502 
L 96.511784 48.548936 
L 100.517667 48.548936 
L 100.632869 48.27437 
L 105.727933 48.27437 
L 105.843134 47.999804 
L 126.275755 47.999804 
L 126.390957 47.793879 
L 147.949414 47.793879 
L 148.064615 47.519314 
L 398.487273 47.519314 
L 398.487273 47.519314 
" clip-path="url(#p68ea1e05de)" style="fill: none; stroke: #8c564b; stroke-width: 1.5; stroke-linecap: square"/>
   </g>
   <g id="line2d_20">
    <path d="M 73.832727 49.853124 
L 73.953166 49.029426 
L 74.424446 49.029426 
L 74.539648 48.823502 
L 74.979509 48.823502 
L 75.099948 50.470897 
L 75.555519 50.470897 
L 75.670721 49.647199 
L 76.026799 49.647199 
L 76.115819 49.441275 
L 76.121055 50.264972 
L 76.17342 50.264972 
L 76.199602 50.059048 
L 76.204838 50.882746 
L 76.267676 50.882746 
L 76.356695 50.882746 
L 76.39335 50.676821 
L 76.398587 51.500519 
L 76.456188 51.294594 
L 76.681355 51.294594 
L 76.728483 52.118292 
L 76.79132 51.912368 
L 76.990305 51.912368 
L 76.995542 52.736065 
L 77.100271 52.461499 
L 77.435404 52.461499 
L 77.550605 52.255575 
L 77.953812 52.255575 
L 78.069014 52.049651 
L 78.39891 52.049651 
L 78.514112 51.775085 
L 78.969683 51.775085 
L 79.084885 51.500519 
L 79.152959 51.500519 
L 79.26816 52.324217 
L 79.467145 52.324217 
L 79.550929 53.147914 
L 79.577111 52.94199 
L 79.781332 52.94199 
L 79.896534 52.736065 
L 80.100756 52.736065 
L 80.215958 52.530141 
L 81.844493 52.530141 
L 81.959695 52.324217 
L 82.404793 52.324217 
L 82.509522 53.971612 
L 82.519995 53.765687 
L 83.881471 53.765687 
L 83.996673 53.559763 
L 84.488899 53.559763 
L 84.604101 53.285197 
L 88.746131 53.285197 
L 88.861333 53.079273 
L 90.112844 53.079273 
L 90.128554 53.90297 
L 90.22281 53.697046 
L 91.238681 53.697046 
L 91.353883 53.42248 
L 94.103018 53.42248 
L 94.21822 53.216556 
L 94.375313 53.216556 
L 94.490515 52.94199 
L 96.396582 52.94199 
L 96.511784 53.765687 
L 98.826294 53.765687 
L 98.941496 53.559763 
L 100.517667 53.559763 
L 100.632869 54.383461 
L 101.978636 54.383461 
L 102.093838 54.177536 
L 104.052269 54.177536 
L 104.167471 53.90297 
L 105.727933 53.90297 
L 105.843134 54.726668 
L 108.26761 54.726668 
L 108.382812 54.520744 
L 109.026895 54.520744 
L 109.142097 54.314819 
L 115.525327 54.314819 
L 115.640529 54.108895 
L 126.275755 54.108895 
L 126.390957 54.932592 
L 127.516793 54.932592 
L 127.631995 54.726668 
L 134.512688 54.726668 
L 134.62789 54.520744 
L 142.969551 54.520744 
L 143.084753 54.314819 
L 147.949414 54.314819 
L 148.064615 55.138517 
L 148.247891 55.138517 
L 148.363093 54.932592 
L 154.552575 54.932592 
L 154.667777 55.75629 
L 154.91389 55.75629 
L 155.029091 55.481724 
L 161.380903 55.481724 
L 161.496105 55.2758 
L 179.03297 55.2758 
L 179.148171 55.001234 
L 190.663121 55.001234 
L 190.778323 54.726668 
L 201.821992 54.726668 
L 201.937193 54.520744 
L 219.165108 54.520744 
L 219.28031 54.314819 
L 230.622456 54.314819 
L 230.737658 54.108895 
L 267.570834 54.108895 
L 267.686036 54.932592 
L 294.240064 54.932592 
L 294.355266 54.726668 
L 295.837181 54.726668 
L 295.952383 55.550366 
L 308.111415 55.550366 
L 308.226617 55.344441 
L 333.110218 55.344441 
L 333.22542 55.069875 
L 398.487273 55.069875 
L 398.487273 55.069875 
" clip-path="url(#p68ea1e05de)" style="fill: none; stroke: #e377c2; stroke-width: 1.5; stroke-linecap: square"/>
   </g>
   <g id="line2d_21">
    <path d="M 73.832727 49.853124 
L 73.974111 55.001234 
L 74.00553 55.001234 
L 74.052658 54.383461 
L 74.057895 55.207158 
L 74.110259 55.207158 
L 74.183569 55.207158 
L 74.298771 56.030856 
L 74.544884 56.030856 
L 74.628667 56.854554 
L 74.65485 56.648629 
L 74.660086 56.648629 
L 74.775288 57.472327 
L 74.780524 57.472327 
L 74.895726 58.296025 
L 74.979509 58.296025 
L 75.094711 57.815534 
L 75.12613 57.815534 
L 75.241332 58.639232 
L 75.555519 58.639232 
L 75.576464 59.46293 
L 75.670721 59.325647 
L 76.073927 59.325647 
L 76.115819 60.149344 
L 76.183892 59.94342 
L 76.199602 59.94342 
L 76.314804 59.737495 
L 76.39335 59.737495 
L 76.508552 59.46293 
L 76.681355 59.46293 
L 76.796557 59.188364 
L 76.990305 59.188364 
L 76.995542 58.913798 
L 77.000778 59.737495 
L 77.089798 59.737495 
L 77.147399 59.737495 
L 77.262601 60.561193 
L 78.262762 60.561193 
L 78.377964 61.384891 
L 78.39891 61.384891 
L 78.514112 62.208588 
L 78.597895 62.208588 
L 78.713097 63.032286 
L 78.969683 63.032286 
L 79.084885 63.855984 
L 79.152959 63.855984 
L 79.26816 63.581418 
L 79.467145 63.581418 
L 79.582347 63.375493 
L 80.414943 63.375493 
L 80.530144 64.199191 
L 82.404793 64.199191 
L 82.525231 63.650059 
L 82.567123 63.650059 
L 82.682325 64.473757 
L 82.986039 64.473757 
L 83.10124 65.297455 
L 84.488899 65.297455 
L 84.604101 66.121152 
L 89.981933 66.121152 
L 90.097135 66.94485 
L 90.112844 66.94485 
L 90.228046 66.670284 
L 91.238681 66.670284 
L 91.353883 67.493982 
L 94.375313 67.493982 
L 94.490515 68.317679 
L 96.396582 68.317679 
L 96.511784 68.043113 
L 100.517667 68.043113 
L 100.632869 67.768547 
L 101.125095 67.768547 
L 101.240297 68.592245 
L 102.44468 68.592245 
L 102.559882 69.415943 
L 104.052269 69.415943 
L 104.167471 70.23964 
L 105.727933 70.23964 
L 105.843134 69.965075 
L 110.236514 69.965075 
L 110.351716 70.788772 
L 119.138476 70.788772 
L 119.253678 71.61247 
L 126.275755 71.61247 
L 126.390957 71.406545 
L 137.078547 71.406545 
L 137.193749 72.230243 
L 147.949414 72.230243 
L 148.064615 71.955677 
L 154.552575 71.955677 
L 154.667777 71.681111 
L 154.91389 71.681111 
L 155.029091 72.504809 
L 161.627016 72.504809 
L 161.742218 73.328507 
L 166.046578 73.328507 
L 166.16178 74.152204 
L 179.03297 74.152204 
L 179.148171 74.975902 
L 190.663121 74.975902 
L 190.778323 75.7996 
L 267.570834 75.7996 
L 267.686036 75.593675 
L 271.199692 75.593675 
L 271.314894 76.417373 
L 295.837181 76.417373 
L 295.952383 76.211448 
L 333.110218 76.211448 
L 333.22542 77.035146 
L 398.487273 77.035146 
L 398.487273 77.035146 
" clip-path="url(#p68ea1e05de)" style="fill: none; stroke: #7f7f7f; stroke-width: 1.5; stroke-linecap: square"/>
   </g>
   <g id="line2d_22">
    <path d="M 73.832727 50.676821 
L 73.8432 50.676821 
L 73.848437 50.470897 
L 73.879855 52.667424 
L 73.890328 52.667424 
L 73.958402 54.658027 
L 74.00553 54.040253 
L 74.052658 53.147914 
L 74.07884 54.795309 
L 74.09455 54.795309 
L 74.136441 54.795309 
L 74.267352 58.0901 
L 74.419209 58.0901 
L 74.534411 59.531571 
L 74.544884 59.531571 
L 74.665323 61.79674 
L 74.701978 61.79674 
L 74.790997 63.444135 
L 74.81718 63.23821 
L 74.822416 63.23821 
L 74.89049 63.032286 
L 74.895726 63.855984 
L 74.916672 63.855984 
L 74.958564 63.855984 
L 75.079002 65.503379 
L 75.089475 65.503379 
L 75.21515 67.974472 
L 75.372243 67.974472 
L 75.487445 67.768547 
L 75.513627 67.768547 
L 75.639302 70.102358 
L 75.859233 70.102358 
L 75.974435 70.926055 
L 75.990144 70.926055 
L 76.121055 74.838619 
L 76.17342 74.838619 
L 76.199602 74.632695 
L 76.220548 76.28009 
L 76.24673 76.28009 
L 76.356695 76.28009 
L 76.39335 76.074165 
L 76.403823 77.721561 
L 76.435242 77.515636 
L 76.608045 77.515636 
L 76.728483 79.163032 
L 76.843685 78.957107 
L 76.990305 78.957107 
L 76.995542 79.780805 
L 77.100271 79.506239 
L 77.147399 79.506239 
L 77.273074 81.977332 
L 77.398748 81.977332 
L 77.435404 82.80103 
L 77.508714 82.595105 
L 77.51395 82.595105 
L 77.634389 84.242501 
L 77.723408 84.242501 
L 77.83861 85.066198 
L 77.953812 85.066198 
L 78.069014 84.860274 
L 78.168506 84.860274 
L 78.288945 86.507669 
L 78.39891 86.507669 
L 78.514112 86.233103 
L 78.550767 86.233103 
L 78.671205 87.880498 
L 78.739279 87.880498 
L 78.864954 90.351591 
L 78.969683 90.351591 
L 78.990629 90.077026 
L 78.995865 90.900723 
L 79.069175 90.900723 
L 79.090121 90.900723 
L 79.210559 92.548118 
L 79.467145 92.548118 
L 79.550929 94.195514 
L 79.582347 93.989589 
L 79.728968 93.989589 
L 79.781332 94.813287 
L 79.838933 94.607363 
L 79.959372 94.607363 
L 80.074573 95.43106 
L 80.100756 95.43106 
L 80.215958 95.225136 
L 80.31545 95.225136 
L 80.435888 96.872531 
L 81.242301 96.872531 
L 81.357503 97.696229 
L 81.603616 97.696229 
L 81.718818 98.519926 
L 81.844493 98.519926 
L 81.959695 98.314002 
L 82.404793 98.314002 
L 82.509522 99.961397 
L 82.519995 99.755473 
L 82.567123 99.755473 
L 82.682325 100.579171 
L 82.750398 100.579171 
L 82.870837 102.226566 
L 82.986039 102.226566 
L 83.10124 103.050264 
L 83.881471 103.050264 
L 83.975727 102.844339 
L 84.090929 103.668037 
L 84.153766 103.668037 
L 84.268968 104.491734 
L 84.488899 104.491734 
L 84.604101 105.315432 
L 84.614574 105.315432 
L 84.729776 106.13913 
L 85.012544 106.13913 
L 85.127746 106.962827 
L 86.730099 106.962827 
L 86.845301 107.786525 
L 86.902902 107.786525 
L 87.018104 108.610223 
L 87.452729 108.610223 
L 87.567931 109.43392 
L 87.67266 109.43392 
L 87.787861 110.257618 
L 88.170122 110.257618 
L 88.29056 111.905013 
L 88.746131 111.905013 
L 88.861333 111.699089 
L 89.741057 111.699089 
L 89.856258 112.522787 
L 89.981933 112.522787 
L 90.097135 113.346484 
L 90.112844 113.346484 
L 90.128554 114.170182 
L 90.22281 113.964257 
L 90.269938 113.964257 
L 90.38514 114.787955 
L 91.238681 114.787955 
L 91.353883 114.513389 
L 91.751853 114.513389 
L 91.867055 115.337087 
L 94.103018 115.337087 
L 94.21822 115.131162 
L 94.375313 115.131162 
L 94.490515 114.856597 
L 94.694736 114.856597 
L 94.809938 115.680294 
L 94.951322 115.680294 
L 95.066524 116.503992 
L 95.427839 116.503992 
L 95.543041 117.327689 
L 96.28138 117.327689 
L 96.401819 118.975085 
L 96.448947 118.975085 
L 96.564148 119.798782 
L 98.826294 119.798782 
L 98.941496 119.592858 
L 99.213791 119.592858 
L 99.328993 120.416556 
L 100.517667 120.416556 
L 100.638105 122.063951 
L 101.125095 122.063951 
L 101.240297 122.887649 
L 101.978636 122.887649 
L 102.093838 122.681724 
L 102.44468 122.681724 
L 102.559882 123.505422 
L 104.052269 123.505422 
L 104.167471 123.230856 
L 104.19889 123.230856 
L 104.314092 124.054554 
L 105.727933 124.054554 
L 105.843134 124.878251 
L 106.670493 124.878251 
L 106.785695 125.701949 
L 108.26761 125.701949 
L 108.330447 125.496025 
L 108.335684 126.319722 
L 108.361866 126.319722 
L 109.026895 126.319722 
L 109.142097 126.113798 
L 109.503412 126.113798 
L 109.618614 126.937495 
L 110.236514 126.937495 
L 110.351716 127.761193 
L 111.608464 127.761193 
L 111.723666 128.584891 
L 112.210655 128.584891 
L 112.325857 129.408588 
L 114.807934 129.408588 
L 114.923135 130.232286 
L 114.970264 130.232286 
L 115.085465 131.055984 
L 115.525327 131.055984 
L 115.640529 130.850059 
L 116.064681 130.850059 
L 116.179883 131.673757 
L 117.36332 131.673757 
L 117.478522 132.497455 
L 119.138476 132.497455 
L 119.253678 133.321152 
L 119.578338 133.321152 
L 119.69354 134.14485 
L 121.672917 134.14485 
L 121.788119 134.968547 
L 125.725928 134.968547 
L 125.84113 135.792245 
L 126.275755 135.792245 
L 126.390957 136.615943 
L 127.516793 136.615943 
L 127.631995 136.410018 
L 131.669296 136.410018 
L 131.784498 137.233716 
L 134.512688 137.233716 
L 134.62789 137.027792 
L 135.785145 137.027792 
L 135.900347 137.851489 
L 137.078547 137.851489 
L 137.193749 138.675187 
L 139.131235 138.675187 
L 139.246437 139.498885 
L 141.33578 139.498885 
L 141.450982 140.322582 
L 142.969551 140.322582 
L 143.084753 140.116658 
L 144.713289 140.116658 
L 144.828491 140.940355 
L 147.949414 140.940355 
L 148.064615 141.764053 
L 148.247891 141.764053 
L 148.363093 141.558129 
L 150.693312 141.558129 
L 150.808514 142.381826 
L 154.91389 142.381826 
L 155.029091 142.10726 
L 161.380903 142.10726 
L 161.496105 141.901336 
L 161.627016 141.901336 
L 161.742218 142.725034 
L 162.941365 142.725034 
L 163.056566 143.548731 
L 166.046578 143.548731 
L 166.16178 144.372429 
L 168.921388 144.372429 
L 169.03659 145.196127 
L 175.404111 145.196127 
L 175.519313 146.019824 
L 176.15816 146.019824 
L 176.273361 146.843522 
L 179.03297 146.843522 
L 179.148171 146.568956 
L 180.493939 146.568956 
L 180.60914 147.392654 
L 184.76688 147.392654 
L 184.882082 148.216351 
L 188.102498 148.216351 
L 188.217699 149.040049 
L 190.663121 149.040049 
L 190.778323 148.765483 
L 192.569188 148.765483 
L 192.68439 149.589181 
L 199.277078 149.589181 
L 199.39228 150.412878 
L 201.319293 150.412878 
L 201.434494 151.236576 
L 201.821992 151.236576 
L 201.937193 151.030652 
L 206.142061 151.030652 
L 206.257263 151.854349 
L 219.165108 151.854349 
L 219.28031 151.648425 
L 220.495166 151.648425 
L 220.610367 152.472123 
L 225.89918 152.472123 
L 226.014382 153.29582 
L 228.061833 153.29582 
L 228.177035 154.119518 
L 230.622456 154.119518 
L 230.737658 153.913593 
L 250.400521 153.913593 
L 250.515722 154.737291 
L 267.570834 154.737291 
L 267.686036 154.531367 
L 271.199692 154.531367 
L 271.314894 155.355064 
L 293.061863 155.355064 
L 293.177065 156.178762 
L 294.240064 156.178762 
L 294.355266 155.972838 
L 295.837181 155.972838 
L 295.952383 155.766913 
L 301.811968 155.766913 
L 301.92717 156.590611 
L 308.111415 156.590611 
L 308.226617 156.384686 
L 333.110218 156.384686 
L 333.22542 156.110121 
L 346.285122 156.110121 
L 346.400324 156.933818 
L 398.487273 156.933818 
L 398.487273 156.933818 
" clip-path="url(#p68ea1e05de)" style="fill: none; stroke: #bcbd22; stroke-width: 1.5; stroke-linecap: square"/>
   </g>
   <g id="line2d_23">
    <path d="M 73.832727 50.676821 
L 73.837964 50.676821 
L 73.968875 54.314819 
L 74.00553 54.314819 
L 74.052658 53.42248 
L 74.07884 55.069875 
L 74.09455 55.069875 
L 74.146914 55.069875 
L 74.183569 54.246178 
L 74.25688 55.069875 
L 74.445392 55.069875 
L 74.56583 56.717271 
L 74.628667 56.717271 
L 74.660086 56.511346 
L 74.665323 57.335044 
L 74.722923 57.335044 
L 74.780524 57.335044 
L 74.895726 58.158742 
L 74.979509 58.158742 
L 75.094711 57.678251 
L 75.12613 57.678251 
L 75.241332 58.501949 
L 75.513627 58.501949 
L 75.576464 59.325647 
L 75.628829 59.188364 
L 76.01109 59.188364 
L 76.115819 60.835759 
L 76.126292 60.629835 
L 76.199602 60.629835 
L 76.314804 60.42391 
L 76.39335 60.42391 
L 76.398587 60.149344 
L 76.403823 60.973042 
L 76.492843 60.973042 
L 76.681355 60.973042 
L 76.796557 60.698476 
L 76.990305 60.698476 
L 76.995542 60.42391 
L 77.000778 61.247608 
L 77.089798 61.247608 
L 77.147399 61.247608 
L 77.262601 62.071305 
L 77.597733 62.071305 
L 77.712935 62.895003 
L 77.723408 62.895003 
L 77.83861 63.718701 
L 78.262762 63.718701 
L 78.377964 64.542398 
L 78.39891 64.542398 
L 78.514112 65.366096 
L 78.597895 65.366096 
L 78.713097 66.189794 
L 78.791644 66.189794 
L 78.906845 67.013491 
L 78.969683 67.013491 
L 79.084885 67.837189 
L 79.152959 67.837189 
L 79.26816 67.562623 
L 79.467145 67.562623 
L 79.477618 67.356699 
L 79.482855 68.180396 
L 79.561401 68.180396 
L 80.414943 68.180396 
L 80.530144 69.004094 
L 81.242301 69.004094 
L 81.357503 69.827792 
L 82.404793 69.827792 
L 82.525231 69.27866 
L 82.567123 69.27866 
L 82.682325 70.102358 
L 82.986039 70.102358 
L 83.10124 70.926055 
L 84.488899 70.926055 
L 84.604101 71.749753 
L 85.012544 71.749753 
L 85.127746 72.57345 
L 86.902902 72.57345 
L 87.018104 73.397148 
L 87.67266 73.397148 
L 87.787861 74.220846 
L 89.741057 74.220846 
L 89.856258 75.044543 
L 89.981933 75.044543 
L 90.097135 75.868241 
L 90.112844 75.868241 
L 90.228046 75.593675 
L 91.238681 75.593675 
L 91.353883 76.417373 
L 94.375313 76.417373 
L 94.490515 77.24107 
L 95.427839 77.24107 
L 95.543041 78.064768 
L 96.396582 78.064768 
L 96.448947 77.790202 
L 96.454183 78.6139 
L 96.496075 78.6139 
L 100.517667 78.6139 
L 100.632869 78.339334 
L 101.125095 78.339334 
L 101.240297 79.163032 
L 102.44468 79.163032 
L 102.559882 79.986729 
L 104.052269 79.986729 
L 104.167471 80.810427 
L 105.727933 80.810427 
L 105.843134 80.535861 
L 110.236514 80.535861 
L 110.351716 81.359559 
L 111.608464 81.359559 
L 111.723666 82.183256 
L 114.970264 82.183256 
L 115.085465 83.006954 
L 117.36332 83.006954 
L 117.478522 83.830652 
L 119.138476 83.830652 
L 119.253678 84.654349 
L 125.725928 84.654349 
L 125.84113 85.478047 
L 126.275755 85.478047 
L 126.390957 85.272123 
L 137.078547 85.272123 
L 137.193749 86.09582 
L 139.131235 86.09582 
L 139.246437 86.919518 
L 147.949414 86.919518 
L 148.064615 86.644952 
L 154.552575 86.644952 
L 154.667777 86.370386 
L 154.91389 86.370386 
L 155.029091 87.194084 
L 161.627016 87.194084 
L 161.742218 88.017781 
L 166.046578 88.017781 
L 166.16178 88.841479 
L 176.15816 88.841479 
L 176.273361 89.665177 
L 179.03297 89.665177 
L 179.148171 90.488874 
L 188.102498 90.488874 
L 188.217699 91.312572 
L 190.663121 91.312572 
L 190.778323 92.13627 
L 192.569188 92.13627 
L 192.68439 92.959967 
L 201.319293 92.959967 
L 201.434494 93.783665 
L 228.061833 93.783665 
L 228.177035 94.607363 
L 267.570834 94.607363 
L 267.686036 94.401438 
L 271.199692 94.401438 
L 271.314894 95.225136 
L 295.837181 95.225136 
L 295.952383 95.019211 
L 301.811968 95.019211 
L 301.92717 95.842909 
L 333.110218 95.842909 
L 333.22542 96.666607 
L 398.487273 96.666607 
L 398.487273 96.666607 
" clip-path="url(#p68ea1e05de)" style="fill: none; stroke: #17becf; stroke-width: 1.5; stroke-linecap: square"/>
   </g>
   <g id="line2d_24">
    <path d="M 73.832727 50.676821 
L 73.853673 50.676821 
L 73.874619 50.402255 
L 73.879855 51.225953 
L 73.937456 51.225953 
L 74.052658 52.049651 
L 74.136441 52.049651 
L 74.251643 52.873348 
L 74.581539 52.873348 
L 74.696741 53.697046 
L 74.790997 53.697046 
L 74.89049 53.285197 
L 75.016165 55.75629 
L 75.089475 55.75629 
L 75.204677 56.579988 
L 75.372243 56.579988 
L 75.487445 56.374063 
L 75.576464 56.374063 
L 75.602647 56.23678 
L 75.607883 57.060478 
L 75.660248 57.060478 
L 76.115819 57.060478 
L 76.236257 58.707873 
L 76.39335 58.707873 
L 76.508552 59.531571 
L 76.681355 59.531571 
L 76.796557 60.355269 
L 76.990305 60.355269 
L 77.105507 61.178966 
L 79.152959 61.178966 
L 79.26816 62.002664 
L 79.467145 62.002664 
L 79.582347 62.826362 
L 82.404793 62.826362 
L 82.525231 64.473757 
L 90.112844 64.473757 
L 90.228046 65.297455 
L 96.396582 65.297455 
L 96.511784 66.121152 
L 100.517667 66.121152 
L 100.632869 66.94485 
L 105.727933 66.94485 
L 105.843134 67.768547 
L 126.275755 67.768547 
L 126.390957 68.592245 
L 147.949414 68.592245 
L 148.064615 69.415943 
L 398.487273 69.415943 
L 398.487273 69.415943 
" clip-path="url(#p68ea1e05de)" style="fill: none; stroke: #1f77b4; stroke-width: 1.5; stroke-linecap: square"/>
   </g>
   <g id="line2d_25">
    <path d="M 73.832727 50.676821 
L 73.853673 51.912368 
L 73.953166 49.647199 
L 74.057895 49.647199 
L 74.173096 48.823502 
L 74.267352 48.823502 
L 74.382554 47.999804 
L 74.497756 47.999804 
L 74.612958 48.823502 
L 74.665323 48.823502 
L 74.722923 47.999804 
L 74.775288 48.823502 
L 74.790997 48.823502 
L 74.859071 50.470897 
L 74.906199 49.647199 
L 74.937618 49.647199 
L 75.063293 47.176106 
L 75.105184 47.176106 
L 75.220386 47.999804 
L 75.372243 47.999804 
L 75.487445 48.823502 
L 75.503154 48.823502 
L 75.623593 50.470897 
L 75.696903 50.470897 
L 75.817341 48.823502 
L 76.063454 48.823502 
L 76.178656 49.647199 
L 77.650098 49.647199 
L 77.770536 51.294594 
L 77.943339 51.294594 
L 78.058541 50.470897 
L 78.241817 50.470897 
L 78.357018 49.647199 
L 79.184377 49.647199 
L 79.299579 50.470897 
L 79.420017 50.470897 
L 79.535219 51.294594 
L 80.310214 51.294594 
L 80.425415 50.470897 
L 80.739602 50.470897 
L 80.854804 51.294594 
L 82.038241 51.294594 
L 82.153443 50.470897 
L 88.018265 50.470897 
L 88.133467 49.647199 
L 96.187124 49.647199 
L 96.302326 50.470897 
L 109.545303 50.470897 
L 109.660505 51.294594 
L 200.973687 51.294594 
L 201.088889 52.118292 
L 346.337486 52.118292 
L 346.452688 52.94199 
L 398.487273 52.94199 
L 398.487273 52.94199 
" clip-path="url(#p68ea1e05de)" style="fill: none; stroke: #ff7f0e; stroke-width: 1.5; stroke-linecap: square"/>
   </g>
   <g id="patch_3">
    <path d="M 57.6 162.432 
L 57.6 41.472 
" style="fill: none; stroke: #000000; stroke-width: 0.8; stroke-linejoin: miter; stroke-linecap: square"/>
   </g>
   <g id="patch_4">
    <path d="M 414.72 162.432 
L 414.72 41.472 
" style="fill: none; stroke: #000000; stroke-width: 0.8; stroke-linejoin: miter; stroke-linecap: square"/>
   </g>
   <g id="patch_5">
    <path d="M 57.6 162.432 
L 414.72 162.432 
" style="fill: none; stroke: #000000; stroke-width: 0.8; stroke-linejoin: miter; stroke-linecap: square"/>
   </g>
   <g id="patch_6">
    <path d="M 57.6 41.472 
L 414.72 41.472 
" style="fill: none; stroke: #000000; stroke-width: 0.8; stroke-linejoin: miter; stroke-linecap: square"/>
   </g>
   <g id="text_14">
    <!-- WSP -->
    <g transform="translate(361.832136 62.551796)scale(0.08 -0.08)">
     <defs>
      <path id="DejaVuSans-57" d="M 213 4666 
L 850 4666 
L 1831 722 
L 2809 4666 
L 3519 4666 
L 4500 722 
L 5478 4666 
L 6119 4666 
L 4947 0 
L 4153 0 
L 3169 4050 
L 2175 0 
L 1381 0 
L 213 4666 
z
" transform="scale(0.015625)"/>
      <path id="DejaVuSans-53" d="M 3425 4513 
L 3425 3897 
Q 3066 4069 2747 4153 
Q 2428 4238 2131 4238 
Q 1616 4238 1336 4038 
Q 1056 3838 1056 3469 
Q 1056 3159 1242 3001 
Q 1428 2844 1947 2747 
L 2328 2669 
Q 3034 2534 3370 2195 
Q 3706 1856 3706 1288 
Q 3706 609 3251 259 
Q 2797 -91 1919 -91 
Q 1588 -91 1214 -16 
Q 841 59 441 206 
L 441 856 
Q 825 641 1194 531 
Q 1563 422 1919 422 
Q 2459 422 2753 634 
Q 3047 847 3047 1241 
Q 3047 1584 2836 1778 
Q 2625 1972 2144 2069 
L 1759 2144 
Q 1053 2284 737 2584 
Q 422 2884 422 3419 
Q 422 4038 858 4394 
Q 1294 4750 2059 4750 
Q 2388 4750 2728 4690 
Q 3069 4631 3425 4513 
z
" transform="scale(0.015625)"/>
      <path id="DejaVuSans-50" d="M 1259 4147 
L 1259 2394 
L 2053 2394 
Q 2494 2394 2734 2622 
Q 2975 2850 2975 3272 
Q 2975 3691 2734 3919 
Q 2494 4147 2053 4147 
L 1259 4147 
z
M 628 4666 
L 2053 4666 
Q 2838 4666 3239 4311 
Q 3641 3956 3641 3272 
Q 3641 2581 3239 2228 
Q 2838 1875 2053 1875 
L 1259 1875 
L 1259 0 
L 628 0 
L 628 4666 
z
" transform="scale(0.015625)"/>
     </defs>
     <use xlink:href="#DejaVuSans-57"/>
     <use xlink:href="#DejaVuSans-53" x="98.876953"/>
     <use xlink:href="#DejaVuSans-50" x="162.353516"/>
    </g>
   </g>
   <g id="text_15">
    <!-- Iambic -->
    <g transform="translate(361.832136 77.927485)scale(0.08 -0.08)">
     <defs>
      <path id="DejaVuSans-49" d="M 628 4666 
L 1259 4666 
L 1259 0 
L 628 0 
L 628 4666 
z
" transform="scale(0.015625)"/>
      <path id="DejaVuSans-61" d="M 2194 1759 
Q 1497 1759 1228 1600 
Q 959 1441 959 1056 
Q 959 750 1161 570 
Q 1363 391 1709 391 
Q 2188 391 2477 730 
Q 2766 1069 2766 1631 
L 2766 1759 
L 2194 1759 
z
M 3341 1997 
L 3341 0 
L 2766 0 
L 2766 531 
Q 2569 213 2275 61 
Q 1981 -91 1556 -91 
Q 1019 -91 701 211 
Q 384 513 384 1019 
Q 384 1609 779 1909 
Q 1175 2209 1959 2209 
L 2766 2209 
L 2766 2266 
Q 2766 2663 2505 2880 
Q 2244 3097 1772 3097 
Q 1472 3097 1187 3025 
Q 903 2953 641 2809 
L 641 3341 
Q 956 3463 1253 3523 
Q 1550 3584 1831 3584 
Q 2591 3584 2966 3190 
Q 3341 2797 3341 1997 
z
" transform="scale(0.015625)"/>
      <path id="DejaVuSans-6d" d="M 3328 2828 
Q 3544 3216 3844 3400 
Q 4144 3584 4550 3584 
Q 5097 3584 5394 3201 
Q 5691 2819 5691 2113 
L 5691 0 
L 5113 0 
L 5113 2094 
Q 5113 2597 4934 2840 
Q 4756 3084 4391 3084 
Q 3944 3084 3684 2787 
Q 3425 2491 3425 1978 
L 3425 0 
L 2847 0 
L 2847 2094 
Q 2847 2600 2669 2842 
Q 2491 3084 2119 3084 
Q 1678 3084 1418 2786 
Q 1159 2488 1159 1978 
L 1159 0 
L 581 0 
L 581 3500 
L 1159 3500 
L 1159 2956 
Q 1356 3278 1631 3431 
Q 1906 3584 2284 3584 
Q 2666 3584 2933 3390 
Q 3200 3197 3328 2828 
z
" transform="scale(0.015625)"/>
      <path id="DejaVuSans-62" d="M 3116 1747 
Q 3116 2381 2855 2742 
Q 2594 3103 2138 3103 
Q 1681 3103 1420 2742 
Q 1159 2381 1159 1747 
Q 1159 1113 1420 752 
Q 1681 391 2138 391 
Q 2594 391 2855 752 
Q 3116 1113 3116 1747 
z
M 1159 2969 
Q 1341 3281 1617 3432 
Q 1894 3584 2278 3584 
Q 2916 3584 3314 3078 
Q 3713 2572 3713 1747 
Q 3713 922 3314 415 
Q 2916 -91 2278 -91 
Q 1894 -91 1617 61 
Q 1341 213 1159 525 
L 1159 0 
L 581 0 
L 581 4863 
L 1159 4863 
L 1159 2969 
z
" transform="scale(0.015625)"/>
      <path id="DejaVuSans-69" d="M 603 3500 
L 1178 3500 
L 1178 0 
L 603 0 
L 603 3500 
z
M 603 4863 
L 1178 4863 
L 1178 4134 
L 603 4134 
L 603 4863 
z
" transform="scale(0.015625)"/>
      <path id="DejaVuSans-63" d="M 3122 3366 
L 3122 2828 
Q 2878 2963 2633 3030 
Q 2388 3097 2138 3097 
Q 1578 3097 1268 2742 
Q 959 2388 959 1747 
Q 959 1106 1268 751 
Q 1578 397 2138 397 
Q 2388 397 2633 464 
Q 2878 531 3122 666 
L 3122 134 
Q 2881 22 2623 -34 
Q 2366 -91 2075 -91 
Q 1284 -91 818 406 
Q 353 903 353 1747 
Q 353 2603 823 3093 
Q 1294 3584 2113 3584 
Q 2378 3584 2631 3529 
Q 2884 3475 3122 3366 
z
" transform="scale(0.015625)"/>
     </defs>
     <use xlink:href="#DejaVuSans-49"/>
     <use xlink:href="#DejaVuSans-61" x="29.492188"/>
     <use xlink:href="#DejaVuSans-6d" x="90.771484"/>
     <use xlink:href="#DejaVuSans-62" x="188.183594"/>
     <use xlink:href="#DejaVuSans-69" x="251.660156"/>
     <use xlink:href="#DejaVuSans-63" x="279.443359"/>
    </g>
   </g>
   <g id="text_16">
    <!-- Parse -->
    <g transform="translate(361.832136 69.690509)scale(0.08 -0.08)">
     <defs>
      <path id="DejaVuSans-72" d="M 2631 2963 
Q 2534 3019 2420 3045 
Q 2306 3072 2169 3072 
Q 1681 3072 1420 2755 
Q 1159 2438 1159 1844 
L 1159 0 
L 581 0 
L 581 3500 
L 1159 3500 
L 1159 2956 
Q 1341 3275 1631 3429 
Q 1922 3584 2338 3584 
Q 2397 3584 2469 3576 
Q 2541 3569 2628 3553 
L 2631 2963 
z
" transform="scale(0.015625)"/>
      <path id="DejaVuSans-73" d="M 2834 3397 
L 2834 2853 
Q 2591 2978 2328 3040 
Q 2066 3103 1784 3103 
Q 1356 3103 1142 2972 
Q 928 2841 928 2578 
Q 928 2378 1081 2264 
Q 1234 2150 1697 2047 
L 1894 2003 
Q 2506 1872 2764 1633 
Q 3022 1394 3022 966 
Q 3022 478 2636 193 
Q 2250 -91 1575 -91 
Q 1294 -91 989 -36 
Q 684 19 347 128 
L 347 722 
Q 666 556 975 473 
Q 1284 391 1588 391 
Q 1994 391 2212 530 
Q 2431 669 2431 922 
Q 2431 1156 2273 1281 
Q 2116 1406 1581 1522 
L 1381 1569 
Q 847 1681 609 1914 
Q 372 2147 372 2553 
Q 372 3047 722 3315 
Q 1072 3584 1716 3584 
Q 2034 3584 2315 3537 
Q 2597 3491 2834 3397 
z
" transform="scale(0.015625)"/>
      <path id="DejaVuSans-65" d="M 3597 1894 
L 3597 1613 
L 953 1613 
Q 991 1019 1311 708 
Q 1631 397 2203 397 
Q 2534 397 2845 478 
Q 3156 559 3463 722 
L 3463 178 
Q 3153 47 2828 -22 
Q 2503 -91 2169 -91 
Q 1331 -91 842 396 
Q 353 884 353 1716 
Q 353 2575 817 3079 
Q 1281 3584 2069 3584 
Q 2775 3584 3186 3129 
Q 3597 2675 3597 1894 
z
M 3022 2063 
Q 3016 2534 2758 2815 
Q 2500 3097 2075 3097 
Q 1594 3097 1305 2825 
Q 1016 2553 972 2059 
L 3022 2063 
z
" transform="scale(0.015625)"/>
     </defs>
     <use xlink:href="#DejaVuSans-50"/>
     <use xlink:href="#DejaVuSans-61" x="55.802734"/>
     <use xlink:href="#DejaVuSans-72" x="117.082031"/>
     <use xlink:href="#DejaVuSans-73" x="158.195312"/>
     <use xlink:href="#DejaVuSans-65" x="210.294922"/>
    </g>
   </g>
   <g id="text_17">
    <!-- FootBin -->
    <g transform="translate(361.832136 46.970182)scale(0.08 -0.08)">
     <defs>
      <path id="DejaVuSans-46" d="M 628 4666 
L 3309 4666 
L 3309 4134 
L 1259 4134 
L 1259 2759 
L 3109 2759 
L 3109 2228 
L 1259 2228 
L 1259 0 
L 628 0 
L 628 4666 
z
" transform="scale(0.015625)"/>
      <path id="DejaVuSans-6f" d="M 1959 3097 
Q 1497 3097 1228 2736 
Q 959 2375 959 1747 
Q 959 1119 1226 758 
Q 1494 397 1959 397 
Q 2419 397 2687 759 
Q 2956 1122 2956 1747 
Q 2956 2369 2687 2733 
Q 2419 3097 1959 3097 
z
M 1959 3584 
Q 2709 3584 3137 3096 
Q 3566 2609 3566 1747 
Q 3566 888 3137 398 
Q 2709 -91 1959 -91 
Q 1206 -91 779 398 
Q 353 888 353 1747 
Q 353 2609 779 3096 
Q 1206 3584 1959 3584 
z
" transform="scale(0.015625)"/>
      <path id="DejaVuSans-74" d="M 1172 4494 
L 1172 3500 
L 2356 3500 
L 2356 3053 
L 1172 3053 
L 1172 1153 
Q 1172 725 1289 603 
Q 1406 481 1766 481 
L 2356 481 
L 2356 0 
L 1766 0 
Q 1100 0 847 248 
Q 594 497 594 1153 
L 594 3053 
L 172 3053 
L 172 3500 
L 594 3500 
L 594 4494 
L 1172 4494 
z
" transform="scale(0.015625)"/>
      <path id="DejaVuSans-42" d="M 1259 2228 
L 1259 519 
L 2272 519 
Q 2781 519 3026 730 
Q 3272 941 3272 1375 
Q 3272 1813 3026 2020 
Q 2781 2228 2272 2228 
L 1259 2228 
z
M 1259 4147 
L 1259 2741 
L 2194 2741 
Q 2656 2741 2882 2914 
Q 3109 3088 3109 3444 
Q 3109 3797 2882 3972 
Q 2656 4147 2194 4147 
L 1259 4147 
z
M 628 4666 
L 2241 4666 
Q 2963 4666 3353 4366 
Q 3744 4066 3744 3513 
Q 3744 3084 3544 2831 
Q 3344 2578 2956 2516 
Q 3422 2416 3680 2098 
Q 3938 1781 3938 1306 
Q 3938 681 3513 340 
Q 3088 0 2303 0 
L 628 0 
L 628 4666 
z
" transform="scale(0.015625)"/>
      <path id="DejaVuSans-6e" d="M 3513 2113 
L 3513 0 
L 2938 0 
L 2938 2094 
Q 2938 2591 2744 2837 
Q 2550 3084 2163 3084 
Q 1697 3084 1428 2787 
Q 1159 2491 1159 1978 
L 1159 0 
L 581 0 
L 581 3500 
L 1159 3500 
L 1159 2956 
Q 1366 3272 1645 3428 
Q 1925 3584 2291 3584 
Q 2894 3584 3203 3211 
Q 3513 2838 3513 2113 
z
" transform="scale(0.015625)"/>
     </defs>
     <use xlink:href="#DejaVuSans-46"/>
     <use xlink:href="#DejaVuSans-6f" x="53.894531"/>
     <use xlink:href="#DejaVuSans-6f" x="115.076172"/>
     <use xlink:href="#DejaVuSans-74" x="176.257812"/>
     <use xlink:href="#DejaVuSans-42" x="215.466797"/>
     <use xlink:href="#DejaVuSans-69" x="284.070312"/>
     <use xlink:href="#DejaVuSans-6e" x="311.853516"/>
    </g>
   </g>
   <g id="text_18">
    <!-- WFL -->
    <g transform="translate(361.832136 56.511346)scale(0.08 -0.08)">
     <defs>
      <path id="DejaVuSans-4c" d="M 628 4666 
L 1259 4666 
L 1259 531 
L 3531 531 
L 3531 0 
L 628 0 
L 628 4666 
z
" transform="scale(0.015625)"/>
     </defs>
     <use xlink:href="#DejaVuSans-57"/>
     <use xlink:href="#DejaVuSans-46" x="98.876953"/>
     <use xlink:href="#DejaVuSans-4c" x="156.396484"/>
    </g>
   </g>
   <g id="text_19">
    <!-- WFR -->
    <g transform="translate(361.832136 47.519314)scale(0.08 -0.08)">
     <defs>
      <path id="DejaVuSans-52" d="M 2841 2188 
Q 3044 2119 3236 1894 
Q 3428 1669 3622 1275 
L 4263 0 
L 3584 0 
L 2988 1197 
Q 2756 1666 2539 1819 
Q 2322 1972 1947 1972 
L 1259 1972 
L 1259 0 
L 628 0 
L 628 4666 
L 2053 4666 
Q 2853 4666 3247 4331 
Q 3641 3997 3641 3322 
Q 3641 2881 3436 2590 
Q 3231 2300 2841 2188 
z
M 1259 4147 
L 1259 2491 
L 2053 2491 
Q 2509 2491 2742 2702 
Q 2975 2913 2975 3322 
Q 2975 3731 2742 3939 
Q 2509 4147 2053 4147 
L 1259 4147 
z
" transform="scale(0.015625)"/>
     </defs>
     <use xlink:href="#DejaVuSans-57"/>
     <use xlink:href="#DejaVuSans-46" x="98.876953"/>
     <use xlink:href="#DejaVuSans-52" x="156.396484"/>
    </g>
   </g>
   <g id="text_20">
    <!-- Main-L -->
    <g transform="translate(361.832136 55.069875)scale(0.08 -0.08)">
     <defs>
      <path id="DejaVuSans-4d" d="M 628 4666 
L 1569 4666 
L 2759 1491 
L 3956 4666 
L 4897 4666 
L 4897 0 
L 4281 0 
L 4281 4097 
L 3078 897 
L 2444 897 
L 1241 4097 
L 1241 0 
L 628 0 
L 628 4666 
z
" transform="scale(0.015625)"/>
      <path id="DejaVuSans-2d" d="M 313 2009 
L 1997 2009 
L 1997 1497 
L 313 1497 
L 313 2009 
z
" transform="scale(0.015625)"/>
     </defs>
     <use xlink:href="#DejaVuSans-4d"/>
     <use xlink:href="#DejaVuSans-61" x="86.279297"/>
     <use xlink:href="#DejaVuSans-69" x="147.558594"/>
     <use xlink:href="#DejaVuSans-6e" x="175.341797"/>
     <use xlink:href="#DejaVuSans-2d" x="238.720703"/>
     <use xlink:href="#DejaVuSans-4c" x="274.804688"/>
    </g>
   </g>
   <g id="text_21">
    <!-- Main-R -->
    <g transform="translate(361.832136 77.035146)scale(0.08 -0.08)">
     <use xlink:href="#DejaVuSans-4d"/>
     <use xlink:href="#DejaVuSans-61" x="86.279297"/>
     <use xlink:href="#DejaVuSans-69" x="147.558594"/>
     <use xlink:href="#DejaVuSans-6e" x="175.341797"/>
     <use xlink:href="#DejaVuSans-2d" x="238.720703"/>
     <use xlink:href="#DejaVuSans-52" x="274.804688"/>
    </g>
   </g>
   <g id="text_22">
    <!-- AFL -->
    <g transform="translate(361.832136 156.933818)scale(0.08 -0.08)">
     <defs>
      <path id="DejaVuSans-41" d="M 2188 4044 
L 1331 1722 
L 3047 1722 
L 2188 4044 
z
M 1831 4666 
L 2547 4666 
L 4325 0 
L 3669 0 
L 3244 1197 
L 1141 1197 
L 716 0 
L 50 0 
L 1831 4666 
z
" transform="scale(0.015625)"/>
     </defs>
     <use xlink:href="#DejaVuSans-41"/>
     <use xlink:href="#DejaVuSans-46" x="68.408203"/>
     <use xlink:href="#DejaVuSans-4c" x="125.927734"/>
    </g>
   </g>
   <g id="text_23">
    <!-- AFR -->
    <g transform="translate(361.832136 96.666607)scale(0.08 -0.08)">
     <use xlink:href="#DejaVuSans-41"/>
     <use xlink:href="#DejaVuSans-46" x="68.408203"/>
     <use xlink:href="#DejaVuSans-52" x="125.927734"/>
    </g>
   </g>
   <g id="text_24">
    <!-- Nonfinal -->
    <g transform="translate(361.832136 69.415943)scale(0.08 -0.08)">
     <defs>
      <path id="DejaVuSans-4e" d="M 628 4666 
L 1478 4666 
L 3547 763 
L 3547 4666 
L 4159 4666 
L 4159 0 
L 3309 0 
L 1241 3903 
L 1241 0 
L 628 0 
L 628 4666 
z
" transform="scale(0.015625)"/>
      <path id="DejaVuSans-66" d="M 2375 4863 
L 2375 4384 
L 1825 4384 
Q 1516 4384 1395 4259 
Q 1275 4134 1275 3809 
L 1275 3500 
L 2222 3500 
L 2222 3053 
L 1275 3053 
L 1275 0 
L 697 0 
L 697 3053 
L 147 3053 
L 147 3500 
L 697 3500 
L 697 3744 
Q 697 4328 969 4595 
Q 1241 4863 1831 4863 
L 2375 4863 
z
" transform="scale(0.015625)"/>
      <path id="DejaVuSans-6c" d="M 603 4863 
L 1178 4863 
L 1178 0 
L 603 0 
L 603 4863 
z
" transform="scale(0.015625)"/>
     </defs>
     <use xlink:href="#DejaVuSans-4e"/>
     <use xlink:href="#DejaVuSans-6f" x="74.804688"/>
     <use xlink:href="#DejaVuSans-6e" x="135.986328"/>
     <use xlink:href="#DejaVuSans-66" x="199.365234"/>
     <use xlink:href="#DejaVuSans-69" x="234.570312"/>
     <use xlink:href="#DejaVuSans-6e" x="262.353516"/>
     <use xlink:href="#DejaVuSans-61" x="325.732422"/>
     <use xlink:href="#DejaVuSans-6c" x="387.011719"/>
    </g>
   </g>
   <g id="text_25">
    <!-- Trochaic -->
    <g transform="translate(361.832136 52.94199)scale(0.08 -0.08)">
     <defs>
      <path id="DejaVuSans-54" d="M -19 4666 
L 3928 4666 
L 3928 4134 
L 2272 4134 
L 2272 0 
L 1638 0 
L 1638 4134 
L -19 4134 
L -19 4666 
z
" transform="scale(0.015625)"/>
      <path id="DejaVuSans-68" d="M 3513 2113 
L 3513 0 
L 2938 0 
L 2938 2094 
Q 2938 2591 2744 2837 
Q 2550 3084 2163 3084 
Q 1697 3084 1428 2787 
Q 1159 2491 1159 1978 
L 1159 0 
L 581 0 
L 581 4863 
L 1159 4863 
L 1159 2956 
Q 1366 3272 1645 3428 
Q 1925 3584 2291 3584 
Q 2894 3584 3203 3211 
Q 3513 2838 3513 2113 
z
" transform="scale(0.015625)"/>
     </defs>
     <use xlink:href="#DejaVuSans-54"/>
     <use xlink:href="#DejaVuSans-72" x="46.333984"/>
     <use xlink:href="#DejaVuSans-6f" x="85.197266"/>
     <use xlink:href="#DejaVuSans-63" x="146.378906"/>
     <use xlink:href="#DejaVuSans-68" x="201.359375"/>
     <use xlink:href="#DejaVuSans-61" x="264.738281"/>
     <use xlink:href="#DejaVuSans-69" x="326.017578"/>
     <use xlink:href="#DejaVuSans-63" x="353.800781"/>
    </g>
   </g>
  </g>
  <g id="axes_2">
   <g id="patch_7">
    <path d="M 57.6 307.584 
L 414.72 307.584 
L 414.72 186.624 
L 57.6 186.624 
z
" style="fill: #ffffff"/>
   </g>
   <g id="matplotlib.axis_3">
    <g id="xtick_8">
     <g id="line2d_26">
      <g>
       <use xlink:href="#mcbe7ec58e1" x="72.468633" y="307.584" style="stroke: #000000; stroke-width: 0.8"/>
      </g>
     </g>
     <g id="text_26">
      <!-- 0 -->
      <g transform="translate(69.287383 322.182437)scale(0.1 -0.1)">
       <use xlink:href="#DejaVuSans-30"/>
      </g>
     </g>
    </g>
    <g id="xtick_9">
     <g id="line2d_27">
      <g>
       <use xlink:href="#mcbe7ec58e1" x="140.673369" y="307.584" style="stroke: #000000; stroke-width: 0.8"/>
      </g>
     </g>
     <g id="text_27">
      <!-- 50 -->
      <g transform="translate(134.310869 322.182437)scale(0.1 -0.1)">
       <use xlink:href="#DejaVuSans-35"/>
       <use xlink:href="#DejaVuSans-30" x="63.623047"/>
      </g>
     </g>
    </g>
    <g id="xtick_10">
     <g id="line2d_28">
      <g>
       <use xlink:href="#mcbe7ec58e1" x="208.878105" y="307.584" style="stroke: #000000; stroke-width: 0.8"/>
      </g>
     </g>
     <g id="text_28">
      <!-- 100 -->
      <g transform="translate(199.334355 322.182437)scale(0.1 -0.1)">
       <use xlink:href="#DejaVuSans-31"/>
       <use xlink:href="#DejaVuSans-30" x="63.623047"/>
       <use xlink:href="#DejaVuSans-30" x="127.246094"/>
      </g>
     </g>
    </g>
    <g id="xtick_11">
     <g id="line2d_29">
      <g>
       <use xlink:href="#mcbe7ec58e1" x="277.082842" y="307.584" style="stroke: #000000; stroke-width: 0.8"/>
      </g>
     </g>
     <g id="text_29">
      <!-- 150 -->
      <g transform="translate(267.539092 322.182437)scale(0.1 -0.1)">
       <use xlink:href="#DejaVuSans-31"/>
       <use xlink:href="#DejaVuSans-35" x="63.623047"/>
       <use xlink:href="#DejaVuSans-30" x="127.246094"/>
      </g>
     </g>
    </g>
    <g id="xtick_12">
     <g id="line2d_30">
      <g>
       <use xlink:href="#mcbe7ec58e1" x="345.287578" y="307.584" style="stroke: #000000; stroke-width: 0.8"/>
      </g>
     </g>
     <g id="text_30">
      <!-- 200 -->
      <g transform="translate(335.743828 322.182437)scale(0.1 -0.1)">
       <use xlink:href="#DejaVuSans-32"/>
       <use xlink:href="#DejaVuSans-30" x="63.623047"/>
       <use xlink:href="#DejaVuSans-30" x="127.246094"/>
      </g>
     </g>
    </g>
    <g id="xtick_13">
     <g id="line2d_31">
      <g>
       <use xlink:href="#mcbe7ec58e1" x="413.492315" y="307.584" style="stroke: #000000; stroke-width: 0.8"/>
      </g>
     </g>
     <g id="text_31">
      <!-- 250 -->
      <g transform="translate(403.948565 322.182437)scale(0.1 -0.1)">
       <use xlink:href="#DejaVuSans-32"/>
       <use xlink:href="#DejaVuSans-35" x="63.623047"/>
       <use xlink:href="#DejaVuSans-30" x="127.246094"/>
      </g>
     </g>
    </g>
   </g>
   <g id="matplotlib.axis_4">
    <g id="ytick_7">
     <g id="line2d_32">
      <g>
       <use xlink:href="#m098ee294c9" x="57.6" y="302.108857" style="stroke: #000000; stroke-width: 0.8"/>
      </g>
     </g>
     <g id="text_32">
      <!-- 0 -->
      <g transform="translate(44.2375 305.908076)scale(0.1 -0.1)">
       <use xlink:href="#DejaVuSans-30"/>
      </g>
     </g>
    </g>
    <g id="ytick_8">
     <g id="line2d_33">
      <g>
       <use xlink:href="#m098ee294c9" x="57.6" y="279.070173" style="stroke: #000000; stroke-width: 0.8"/>
      </g>
     </g>
     <g id="text_33">
      <!-- 1000 -->
      <g transform="translate(25.15 282.869392)scale(0.1 -0.1)">
       <use xlink:href="#DejaVuSans-31"/>
       <use xlink:href="#DejaVuSans-30" x="63.623047"/>
       <use xlink:href="#DejaVuSans-30" x="127.246094"/>
       <use xlink:href="#DejaVuSans-30" x="190.869141"/>
      </g>
     </g>
    </g>
    <g id="ytick_9">
     <g id="line2d_34">
      <g>
       <use xlink:href="#m098ee294c9" x="57.6" y="256.03149" style="stroke: #000000; stroke-width: 0.8"/>
      </g>
     </g>
     <g id="text_34">
      <!-- 2000 -->
      <g transform="translate(25.15 259.830709)scale(0.1 -0.1)">
       <use xlink:href="#DejaVuSans-32"/>
       <use xlink:href="#DejaVuSans-30" x="63.623047"/>
       <use xlink:href="#DejaVuSans-30" x="127.246094"/>
       <use xlink:href="#DejaVuSans-30" x="190.869141"/>
      </g>
     </g>
    </g>
    <g id="ytick_10">
     <g id="line2d_35">
      <g>
       <use xlink:href="#m098ee294c9" x="57.6" y="232.992806" style="stroke: #000000; stroke-width: 0.8"/>
      </g>
     </g>
     <g id="text_35">
      <!-- 3000 -->
      <g transform="translate(25.15 236.792025)scale(0.1 -0.1)">
       <use xlink:href="#DejaVuSans-33"/>
       <use xlink:href="#DejaVuSans-30" x="63.623047"/>
       <use xlink:href="#DejaVuSans-30" x="127.246094"/>
       <use xlink:href="#DejaVuSans-30" x="190.869141"/>
      </g>
     </g>
    </g>
    <g id="ytick_11">
     <g id="line2d_36">
      <g>
       <use xlink:href="#m098ee294c9" x="57.6" y="209.954123" style="stroke: #000000; stroke-width: 0.8"/>
      </g>
     </g>
     <g id="text_36">
      <!-- 4000 -->
      <g transform="translate(25.15 213.753342)scale(0.1 -0.1)">
       <use xlink:href="#DejaVuSans-34"/>
       <use xlink:href="#DejaVuSans-30" x="63.623047"/>
       <use xlink:href="#DejaVuSans-30" x="127.246094"/>
       <use xlink:href="#DejaVuSans-30" x="190.869141"/>
      </g>
     </g>
    </g>
    <g id="ytick_12">
     <g id="line2d_37">
      <g>
       <use xlink:href="#m098ee294c9" x="57.6" y="186.915439" style="stroke: #000000; stroke-width: 0.8"/>
      </g>
     </g>
     <g id="text_37">
      <!-- 5000 -->
      <g transform="translate(25.15 190.714658)scale(0.1 -0.1)">
       <use xlink:href="#DejaVuSans-35"/>
       <use xlink:href="#DejaVuSans-30" x="63.623047"/>
       <use xlink:href="#DejaVuSans-30" x="127.246094"/>
       <use xlink:href="#DejaVuSans-30" x="190.869141"/>
      </g>
     </g>
    </g>
   </g>
   <g id="line2d_38">
    <path d="M 73.832727 302.085818 
L 95.658243 302.085818 
L 97.022338 301.924547 
L 103.842811 302.085818 
L 105.206906 302.039741 
L 106.571001 301.832393 
L 107.935095 302.062779 
L 110.663285 301.993663 
L 113.391474 301.440735 
L 114.755569 302.085818 
L 118.847853 301.901509 
L 124.304232 302.085818 
L 125.668327 301.947586 
L 127.032422 302.016702 
L 128.396516 301.855431 
L 129.760611 302.062779 
L 132.488801 301.947586 
L 140.673369 301.993663 
L 142.037464 301.740238 
L 143.401558 302.039741 
L 146.129748 301.901509 
L 147.493843 301.233387 
L 148.857937 301.53289 
L 150.222032 302.062779 
L 151.586127 301.924547 
L 154.314316 302.085818 
L 155.678411 301.993663 
L 157.042506 301.694161 
L 158.4066 301.786315 
L 159.770695 301.717199 
L 161.13479 301.53289 
L 162.498885 302.016702 
L 163.862979 302.039741 
L 165.227074 301.947586 
L 166.591169 302.062779 
L 169.319358 301.993663 
L 170.683453 301.855431 
L 173.411642 302.039741 
L 174.775737 301.486812 
L 176.139832 301.947586 
L 177.503927 302.085818 
L 178.868021 302.039741 
L 180.232116 301.256426 
L 181.596211 301.786315 
L 182.960306 301.901509 
L 184.3244 300.956923 
L 185.688495 302.085818 
L 187.05259 301.440735 
L 188.416684 302.062779 
L 189.780779 302.039741 
L 191.144874 301.118193 
L 192.508969 301.947586 
L 193.873063 301.763277 
L 195.237158 301.740238 
L 197.965348 301.924547 
L 199.329442 301.970625 
L 200.693537 301.141232 
L 202.057632 302.062779 
L 203.421727 301.164271 
L 204.785821 301.786315 
L 206.149916 302.016702 
L 207.514011 301.509851 
L 208.878105 301.440735 
L 210.2422 301.901509 
L 211.606295 301.486812 
L 212.97039 302.062779 
L 214.334484 301.924547 
L 215.698579 301.325542 
L 217.062674 302.016702 
L 218.426769 301.671122 
L 221.154958 301.970625 
L 222.519053 301.072116 
L 223.883147 301.901509 
L 225.247242 302.062779 
L 226.611337 301.786315 
L 227.975432 301.325542 
L 229.339526 301.87847 
L 230.703621 301.325542 
L 232.067716 301.486812 
L 233.431811 301.18731 
L 234.795905 302.085818 
L 236.16 301.671122 
L 237.524095 300.680458 
L 238.888189 299.897143 
L 241.616379 301.049077 
L 242.980474 301.256426 
L 244.344568 300.496149 
L 245.708663 301.947586 
L 247.072758 301.809354 
L 248.436853 301.855431 
L 249.800947 301.302503 
L 251.165042 301.602006 
L 252.529137 301.578967 
L 253.893231 298.169242 
L 255.257326 301.694161 
L 256.621421 301.325542 
L 257.985516 300.634381 
L 259.34961 301.555928 
L 260.713705 300.357917 
L 262.0778 294.552169 
L 263.441895 301.34858 
L 264.805989 299.689795 
L 266.170084 301.141232 
L 267.534179 300.588304 
L 268.898273 301.440735 
L 270.262368 301.855431 
L 272.990558 297.731507 
L 274.354652 301.049077 
L 277.082842 302.039741 
L 278.446937 301.486812 
L 279.811031 297.8467 
L 281.175126 299.851066 
L 282.539221 291.764488 
L 283.903316 300.910845 
L 285.26741 300.703497 
L 286.631505 300.979961 
L 287.9956 300.012337 
L 289.359694 298.768248 
L 290.723789 301.694161 
L 292.087884 301.602006 
L 293.451979 301.87847 
L 294.816073 291.649295 
L 296.180168 300.403994 
L 297.544263 296.372225 
L 298.908358 301.786315 
L 300.272452 299.758911 
L 301.636547 298.353551 
L 303.000642 300.058414 
L 304.364736 295.035981 
L 305.728831 301.463774 
L 307.092926 295.381561 
L 308.457021 297.961894 
L 309.821115 295.082058 
L 311.18521 301.832393 
L 312.549305 299.044712 
L 313.9134 300.012337 
L 315.277494 301.924547 
L 318.005684 296.072722 
L 319.369778 299.459408 
L 320.733873 290.68167 
L 322.097968 301.394658 
L 323.462063 299.666756 
L 324.826157 299.735872 
L 326.190252 296.395263 
L 327.554347 294.298743 
L 328.918442 300.173607 
L 330.282536 292.893383 
L 331.646631 284.276916 
L 333.010726 299.689795 
L 334.37482 296.648689 
L 335.738915 283.839181 
L 337.10301 289.598852 
L 338.467105 296.510457 
L 339.831199 296.418302 
L 341.195294 293.077693 
L 342.559389 292.409571 
L 343.923484 294.920788 
L 345.287578 294.436975 
L 346.651673 287.87095 
L 348.015768 300.795652 
L 349.379862 291.349792 
L 350.743957 285.129347 
L 352.108052 300.519188 
L 353.472147 273.656083 
L 354.836241 301.026039 
L 356.200336 296.326147 
L 357.564431 288.446918 
L 358.928526 289.46062 
L 360.29262 273.586967 
L 361.656715 298.791286 
L 363.02081 289.46062 
L 364.384905 295.681064 
L 365.748999 283.309291 
L 367.113094 287.433215 
L 368.477189 290.842941 
L 369.841283 293.722776 
L 371.205378 272.596303 
L 372.569473 294.644323 
L 373.933568 300.588304 
L 375.297662 299.897143 
L 376.661757 283.101943 
L 378.025852 244.811651 
L 379.389947 296.257031 
L 380.754041 278.332935 
L 382.118136 292.593881 
L 383.482231 290.842941 
L 384.846325 215.091749 
L 386.21042 226.565014 
L 387.574515 286.143049 
L 388.93861 205.922353 
L 390.302704 296.925153 
L 391.666799 295.082058 
L 393.030894 275.821719 
L 394.394989 274.393321 
L 395.759083 192.122182 
L 397.123178 244.143529 
L 398.487273 301.87847 
L 398.487273 301.87847 
" clip-path="url(#p571e08160d)" style="fill: none; stroke: #1f77b4; stroke-width: 1.5; stroke-linecap: square"/>
   </g>
   <g id="patch_8">
    <path d="M 57.6 307.584 
L 57.6 186.624 
" style="fill: none; stroke: #000000; stroke-width: 0.8; stroke-linejoin: miter; stroke-linecap: square"/>
   </g>
   <g id="patch_9">
    <path d="M 414.72 307.584 
L 414.72 186.624 
" style="fill: none; stroke: #000000; stroke-width: 0.8; stroke-linejoin: miter; stroke-linecap: square"/>
   </g>
   <g id="patch_10">
    <path d="M 57.6 307.584 
L 414.72 307.584 
" style="fill: none; stroke: #000000; stroke-width: 0.8; stroke-linejoin: miter; stroke-linecap: square"/>
   </g>
   <g id="patch_11">
    <path d="M 57.6 186.624 
L 414.72 186.624 
" style="fill: none; stroke: #000000; stroke-width: 0.8; stroke-linejoin: miter; stroke-linecap: square"/>
   </g>
  </g>
 </g>
 <defs>
  <clipPath id="p68ea1e05de">
   <rect x="57.6" y="41.472" width="357.12" height="120.96"/>
  </clipPath>
  <clipPath id="p571e08160d">
   <rect x="57.6" y="186.624" width="357.12" height="120.96"/>
  </clipPath>
 </defs>
</svg>
