<?xml version="1.0" encoding="utf-8" standalone="no"?>
<!DOCTYPE svg PUBLIC "-//W3C//DTD SVG 1.1//EN"
  "http://www.w3.org/Graphics/SVG/1.1/DTD/svg11.dtd">
<svg xmlns:xlink="http://www.w3.org/1999/xlink" width="460.8pt" height="345.6pt" viewBox="0 0 460.8 345.6" xmlns="http://www.w3.org/2000/svg" version="1.1">
 <metadata>
  <rdf:RDF xmlns:dc="http://purl.org/dc/elements/1.1/" xmlns:cc="http://creativecommons.org/ns#" xmlns:rdf="http://www.w3.org/1999/02/22-rdf-syntax-ns#">
   <cc:Work>
    <dc:type rdf:resource="http://purl.org/dc/dcmitype/StillImage"/>
    <dc:date>2022-05-13T16:56:06.399779</dc:date>
    <dc:format>image/svg+xml</dc:format>
    <dc:creator>
     <cc:Agent>
      <dc:title>Matplotlib v3.5.1, https://matplotlib.org/</dc:title>
     </cc:Agent>
    </dc:creator>
   </cc:Work>
  </rdf:RDF>
 </metadata>
 <defs>
  <style type="text/css">*{stroke-linejoin: round; stroke-linecap: butt}</style>
 </defs>
 <g id="figure_1">
  <g id="patch_1">
   <path d="M 0 345.6 
L 460.8 345.6 
L 460.8 0 
L 0 0 
z
" style="fill: #ffffff"/>
  </g>
  <g id="axes_1">
   <g id="patch_2">
    <path d="M 57.6 162.432 
L 414.72 162.432 
L 414.72 41.472 
L 57.6 41.472 
z
" style="fill: #ffffff"/>
   </g>
   <g id="matplotlib.axis_1">
    <g id="xtick_1">
     <g id="line2d_1">
      <defs>
       <path id="m24b66c5798" d="M 0 0 
L 0 3.5 
" style="stroke: #000000; stroke-width: 0.8"/>
      </defs>
      <g>
       <use xlink:href="#m24b66c5798" x="73.827491" y="162.432" style="stroke: #000000; stroke-width: 0.8"/>
      </g>
     </g>
     <g id="text_1">
      <!-- 0 -->
      <g transform="translate(70.646241 177.030437)scale(0.1 -0.1)">
       <defs>
        <path id="DejaVuSans-30" d="M 2034 4250 
Q 1547 4250 1301 3770 
Q 1056 3291 1056 2328 
Q 1056 1369 1301 889 
Q 1547 409 2034 409 
Q 2525 409 2770 889 
Q 3016 1369 3016 2328 
Q 3016 3291 2770 3770 
Q 2525 4250 2034 4250 
z
M 2034 4750 
Q 2819 4750 3233 4129 
Q 3647 3509 3647 2328 
Q 3647 1150 3233 529 
Q 2819 -91 2034 -91 
Q 1250 -91 836 529 
Q 422 1150 422 2328 
Q 422 3509 836 4129 
Q 1250 4750 2034 4750 
z
" transform="scale(0.015625)"/>
       </defs>
       <use xlink:href="#DejaVuSans-30"/>
      </g>
     </g>
    </g>
    <g id="xtick_2">
     <g id="line2d_2">
      <g>
       <use xlink:href="#m24b66c5798" x="126.191972" y="162.432" style="stroke: #000000; stroke-width: 0.8"/>
      </g>
     </g>
     <g id="text_2">
      <!-- 10000 -->
      <g transform="translate(110.285722 177.030437)scale(0.1 -0.1)">
       <defs>
        <path id="DejaVuSans-31" d="M 794 531 
L 1825 531 
L 1825 4091 
L 703 3866 
L 703 4441 
L 1819 4666 
L 2450 4666 
L 2450 531 
L 3481 531 
L 3481 0 
L 794 0 
L 794 531 
z
" transform="scale(0.015625)"/>
       </defs>
       <use xlink:href="#DejaVuSans-31"/>
       <use xlink:href="#DejaVuSans-30" x="63.623047"/>
       <use xlink:href="#DejaVuSans-30" x="127.246094"/>
       <use xlink:href="#DejaVuSans-30" x="190.869141"/>
       <use xlink:href="#DejaVuSans-30" x="254.492188"/>
      </g>
     </g>
    </g>
    <g id="xtick_3">
     <g id="line2d_3">
      <g>
       <use xlink:href="#m24b66c5798" x="178.556453" y="162.432" style="stroke: #000000; stroke-width: 0.8"/>
      </g>
     </g>
     <g id="text_3">
      <!-- 20000 -->
      <g transform="translate(162.650203 177.030437)scale(0.1 -0.1)">
       <defs>
        <path id="DejaVuSans-32" d="M 1228 531 
L 3431 531 
L 3431 0 
L 469 0 
L 469 531 
Q 828 903 1448 1529 
Q 2069 2156 2228 2338 
Q 2531 2678 2651 2914 
Q 2772 3150 2772 3378 
Q 2772 3750 2511 3984 
Q 2250 4219 1831 4219 
Q 1534 4219 1204 4116 
Q 875 4013 500 3803 
L 500 4441 
Q 881 4594 1212 4672 
Q 1544 4750 1819 4750 
Q 2544 4750 2975 4387 
Q 3406 4025 3406 3419 
Q 3406 3131 3298 2873 
Q 3191 2616 2906 2266 
Q 2828 2175 2409 1742 
Q 1991 1309 1228 531 
z
" transform="scale(0.015625)"/>
       </defs>
       <use xlink:href="#DejaVuSans-32"/>
       <use xlink:href="#DejaVuSans-30" x="63.623047"/>
       <use xlink:href="#DejaVuSans-30" x="127.246094"/>
       <use xlink:href="#DejaVuSans-30" x="190.869141"/>
       <use xlink:href="#DejaVuSans-30" x="254.492188"/>
      </g>
     </g>
    </g>
    <g id="xtick_4">
     <g id="line2d_4">
      <g>
       <use xlink:href="#m24b66c5798" x="230.920934" y="162.432" style="stroke: #000000; stroke-width: 0.8"/>
      </g>
     </g>
     <g id="text_4">
      <!-- 30000 -->
      <g transform="translate(215.014684 177.030437)scale(0.1 -0.1)">
       <defs>
        <path id="DejaVuSans-33" d="M 2597 2516 
Q 3050 2419 3304 2112 
Q 3559 1806 3559 1356 
Q 3559 666 3084 287 
Q 2609 -91 1734 -91 
Q 1441 -91 1130 -33 
Q 819 25 488 141 
L 488 750 
Q 750 597 1062 519 
Q 1375 441 1716 441 
Q 2309 441 2620 675 
Q 2931 909 2931 1356 
Q 2931 1769 2642 2001 
Q 2353 2234 1838 2234 
L 1294 2234 
L 1294 2753 
L 1863 2753 
Q 2328 2753 2575 2939 
Q 2822 3125 2822 3475 
Q 2822 3834 2567 4026 
Q 2313 4219 1838 4219 
Q 1578 4219 1281 4162 
Q 984 4106 628 3988 
L 628 4550 
Q 988 4650 1302 4700 
Q 1616 4750 1894 4750 
Q 2613 4750 3031 4423 
Q 3450 4097 3450 3541 
Q 3450 3153 3228 2886 
Q 3006 2619 2597 2516 
z
" transform="scale(0.015625)"/>
       </defs>
       <use xlink:href="#DejaVuSans-33"/>
       <use xlink:href="#DejaVuSans-30" x="63.623047"/>
       <use xlink:href="#DejaVuSans-30" x="127.246094"/>
       <use xlink:href="#DejaVuSans-30" x="190.869141"/>
       <use xlink:href="#DejaVuSans-30" x="254.492188"/>
      </g>
     </g>
    </g>
    <g id="xtick_5">
     <g id="line2d_5">
      <g>
       <use xlink:href="#m24b66c5798" x="283.285415" y="162.432" style="stroke: #000000; stroke-width: 0.8"/>
      </g>
     </g>
     <g id="text_5">
      <!-- 40000 -->
      <g transform="translate(267.379165 177.030437)scale(0.1 -0.1)">
       <defs>
        <path id="DejaVuSans-34" d="M 2419 4116 
L 825 1625 
L 2419 1625 
L 2419 4116 
z
M 2253 4666 
L 3047 4666 
L 3047 1625 
L 3713 1625 
L 3713 1100 
L 3047 1100 
L 3047 0 
L 2419 0 
L 2419 1100 
L 313 1100 
L 313 1709 
L 2253 4666 
z
" transform="scale(0.015625)"/>
       </defs>
       <use xlink:href="#DejaVuSans-34"/>
       <use xlink:href="#DejaVuSans-30" x="63.623047"/>
       <use xlink:href="#DejaVuSans-30" x="127.246094"/>
       <use xlink:href="#DejaVuSans-30" x="190.869141"/>
       <use xlink:href="#DejaVuSans-30" x="254.492188"/>
      </g>
     </g>
    </g>
    <g id="xtick_6">
     <g id="line2d_6">
      <g>
       <use xlink:href="#m24b66c5798" x="335.649896" y="162.432" style="stroke: #000000; stroke-width: 0.8"/>
      </g>
     </g>
     <g id="text_6">
      <!-- 50000 -->
      <g transform="translate(319.743646 177.030437)scale(0.1 -0.1)">
       <defs>
        <path id="DejaVuSans-35" d="M 691 4666 
L 3169 4666 
L 3169 4134 
L 1269 4134 
L 1269 2991 
Q 1406 3038 1543 3061 
Q 1681 3084 1819 3084 
Q 2600 3084 3056 2656 
Q 3513 2228 3513 1497 
Q 3513 744 3044 326 
Q 2575 -91 1722 -91 
Q 1428 -91 1123 -41 
Q 819 9 494 109 
L 494 744 
Q 775 591 1075 516 
Q 1375 441 1709 441 
Q 2250 441 2565 725 
Q 2881 1009 2881 1497 
Q 2881 1984 2565 2268 
Q 2250 2553 1709 2553 
Q 1456 2553 1204 2497 
Q 953 2441 691 2322 
L 691 4666 
z
" transform="scale(0.015625)"/>
       </defs>
       <use xlink:href="#DejaVuSans-35"/>
       <use xlink:href="#DejaVuSans-30" x="63.623047"/>
       <use xlink:href="#DejaVuSans-30" x="127.246094"/>
       <use xlink:href="#DejaVuSans-30" x="190.869141"/>
       <use xlink:href="#DejaVuSans-30" x="254.492188"/>
      </g>
     </g>
    </g>
    <g id="xtick_7">
     <g id="line2d_7">
      <g>
       <use xlink:href="#m24b66c5798" x="388.014377" y="162.432" style="stroke: #000000; stroke-width: 0.8"/>
      </g>
     </g>
     <g id="text_7">
      <!-- 60000 -->
      <g transform="translate(372.108127 177.030437)scale(0.1 -0.1)">
       <defs>
        <path id="DejaVuSans-36" d="M 2113 2584 
Q 1688 2584 1439 2293 
Q 1191 2003 1191 1497 
Q 1191 994 1439 701 
Q 1688 409 2113 409 
Q 2538 409 2786 701 
Q 3034 994 3034 1497 
Q 3034 2003 2786 2293 
Q 2538 2584 2113 2584 
z
M 3366 4563 
L 3366 3988 
Q 3128 4100 2886 4159 
Q 2644 4219 2406 4219 
Q 1781 4219 1451 3797 
Q 1122 3375 1075 2522 
Q 1259 2794 1537 2939 
Q 1816 3084 2150 3084 
Q 2853 3084 3261 2657 
Q 3669 2231 3669 1497 
Q 3669 778 3244 343 
Q 2819 -91 2113 -91 
Q 1303 -91 875 529 
Q 447 1150 447 2328 
Q 447 3434 972 4092 
Q 1497 4750 2381 4750 
Q 2619 4750 2861 4703 
Q 3103 4656 3366 4563 
z
" transform="scale(0.015625)"/>
       </defs>
       <use xlink:href="#DejaVuSans-36"/>
       <use xlink:href="#DejaVuSans-30" x="63.623047"/>
       <use xlink:href="#DejaVuSans-30" x="127.246094"/>
       <use xlink:href="#DejaVuSans-30" x="190.869141"/>
       <use xlink:href="#DejaVuSans-30" x="254.492188"/>
      </g>
     </g>
    </g>
   </g>
   <g id="matplotlib.axis_2">
    <g id="ytick_1">
     <g id="line2d_8">
      <defs>
       <path id="m2b4edac2de" d="M 0 0 
L -3.5 0 
" style="stroke: #000000; stroke-width: 0.8"/>
      </defs>
      <g>
       <use xlink:href="#m2b4edac2de" x="57.6" y="162.207279" style="stroke: #000000; stroke-width: 0.8"/>
      </g>
     </g>
     <g id="text_8">
      <!-- −25 -->
      <g transform="translate(29.495313 166.006497)scale(0.1 -0.1)">
       <defs>
        <path id="DejaVuSans-2212" d="M 678 2272 
L 4684 2272 
L 4684 1741 
L 678 1741 
L 678 2272 
z
" transform="scale(0.015625)"/>
       </defs>
       <use xlink:href="#DejaVuSans-2212"/>
       <use xlink:href="#DejaVuSans-32" x="83.789062"/>
       <use xlink:href="#DejaVuSans-35" x="147.412109"/>
      </g>
     </g>
    </g>
    <g id="ytick_2">
     <g id="line2d_9">
      <g>
       <use xlink:href="#m2b4edac2de" x="57.6" y="139.735146" style="stroke: #000000; stroke-width: 0.8"/>
      </g>
     </g>
     <g id="text_9">
      <!-- 0 -->
      <g transform="translate(44.2375 143.534365)scale(0.1 -0.1)">
       <use xlink:href="#DejaVuSans-30"/>
      </g>
     </g>
    </g>
    <g id="ytick_3">
     <g id="line2d_10">
      <g>
       <use xlink:href="#m2b4edac2de" x="57.6" y="117.263013" style="stroke: #000000; stroke-width: 0.8"/>
      </g>
     </g>
     <g id="text_10">
      <!-- 25 -->
      <g transform="translate(37.875 121.062232)scale(0.1 -0.1)">
       <use xlink:href="#DejaVuSans-32"/>
       <use xlink:href="#DejaVuSans-35" x="63.623047"/>
      </g>
     </g>
    </g>
    <g id="ytick_4">
     <g id="line2d_11">
      <g>
       <use xlink:href="#m2b4edac2de" x="57.6" y="94.79088" style="stroke: #000000; stroke-width: 0.8"/>
      </g>
     </g>
     <g id="text_11">
      <!-- 50 -->
      <g transform="translate(37.875 98.590099)scale(0.1 -0.1)">
       <use xlink:href="#DejaVuSans-35"/>
       <use xlink:href="#DejaVuSans-30" x="63.623047"/>
      </g>
     </g>
    </g>
    <g id="ytick_5">
     <g id="line2d_12">
      <g>
       <use xlink:href="#m2b4edac2de" x="57.6" y="72.318748" style="stroke: #000000; stroke-width: 0.8"/>
      </g>
     </g>
     <g id="text_12">
      <!-- 75 -->
      <g transform="translate(37.875 76.117966)scale(0.1 -0.1)">
       <defs>
        <path id="DejaVuSans-37" d="M 525 4666 
L 3525 4666 
L 3525 4397 
L 1831 0 
L 1172 0 
L 2766 4134 
L 525 4134 
L 525 4666 
z
" transform="scale(0.015625)"/>
       </defs>
       <use xlink:href="#DejaVuSans-37"/>
       <use xlink:href="#DejaVuSans-35" x="63.623047"/>
      </g>
     </g>
    </g>
    <g id="ytick_6">
     <g id="line2d_13">
      <g>
       <use xlink:href="#m2b4edac2de" x="57.6" y="49.846615" style="stroke: #000000; stroke-width: 0.8"/>
      </g>
     </g>
     <g id="text_13">
      <!-- 100 -->
      <g transform="translate(31.5125 53.645834)scale(0.1 -0.1)">
       <use xlink:href="#DejaVuSans-31"/>
       <use xlink:href="#DejaVuSans-30" x="63.623047"/>
       <use xlink:href="#DejaVuSans-30" x="127.246094"/>
      </g>
     </g>
    </g>
   </g>
   <g id="line2d_14">
    <path d="M 73.832727 49.846615 
L 73.837964 49.846615 
L 73.848437 49.546986 
L 73.890328 53.142528 
L 73.91651 53.142528 
L 74.036949 51.944014 
L 74.068367 51.944014 
L 74.152151 53.891599 
L 74.183569 52.992713 
L 74.225461 52.992713 
L 74.24117 52.543271 
L 74.298771 54.341041 
L 74.319717 54.341041 
L 74.335426 54.341041 
L 74.4035 53.442156 
L 74.445392 54.341041 
L 74.482047 54.341041 
L 74.612958 53.142528 
L 74.785761 53.142528 
L 74.848598 54.940298 
L 74.900963 54.490856 
L 74.927145 54.490856 
L 74.932381 54.041413 
L 74.937618 54.940298 
L 75.031874 54.760521 
L 75.047583 54.760521 
L 75.162785 55.659406 
L 75.319879 55.659406 
L 75.340824 55.209964 
L 75.346061 56.108849 
L 75.429844 55.659406 
L 75.456026 55.659406 
L 75.466499 56.108849 
L 75.571228 55.209964 
L 75.607883 55.209964 
L 75.623593 54.760521 
L 75.691666 56.108849 
L 75.707376 56.108849 
L 75.717849 56.108849 
L 75.838287 55.209964 
L 75.916834 55.209964 
L 76.032035 54.610707 
L 76.147237 55.509592 
L 76.608045 55.509592 
L 76.649936 56.408478 
L 76.71801 55.509592 
L 76.817503 55.509592 
L 76.932705 55.209964 
L 76.943177 55.209964 
L 76.974596 56.108849 
L 77.053143 55.659406 
L 77.157872 55.659406 
L 77.273074 55.209964 
L 77.325438 55.209964 
L 77.44064 56.108849 
L 77.550605 56.108849 
L 77.660571 57.007734 
L 77.712935 56.783013 
L 77.718172 57.681898 
L 77.7653 57.232456 
L 78.346546 57.232456 
L 78.419856 58.131341 
L 78.456511 57.681898 
L 78.63455 57.681898 
L 78.697388 57.232456 
L 78.702624 58.131341 
L 78.739279 58.131341 
L 78.964446 58.131341 
L 79.084885 57.232456 
L 79.168668 57.232456 
L 79.262924 56.783013 
L 79.26816 57.681898 
L 79.273397 57.681898 
L 79.440963 57.681898 
L 79.556165 58.580784 
L 79.639948 58.580784 
L 79.760387 57.681898 
L 79.823224 57.681898 
L 79.938426 57.232456 
L 80.221194 57.232456 
L 80.336396 58.131341 
L 80.5668 58.131341 
L 80.603455 57.681898 
L 80.608691 58.580784 
L 80.671528 58.580784 
L 81.032843 58.580784 
L 81.148045 58.131341 
L 81.446523 58.131341 
L 81.561725 57.681898 
L 81.828784 57.681898 
L 81.943985 58.580784 
L 82.200571 58.580784 
L 82.279118 59.479669 
L 82.310537 59.030226 
L 82.912728 59.030226 
L 83.02793 58.580784 
L 83.551575 58.580784 
L 83.666777 58.131341 
L 83.860525 58.131341 
L 83.975727 59.030226 
L 84.211367 59.030226 
L 84.326569 58.580784 
L 84.347515 58.580784 
L 84.357988 58.131341 
L 84.363224 59.030226 
L 84.452244 59.030226 
L 84.462717 59.030226 
L 84.577919 58.580784 
L 84.813559 58.580784 
L 84.928761 58.131341 
L 85.311021 58.131341 
L 85.426223 59.030226 
L 85.59379 59.030226 
L 85.708992 59.929112 
L 86.337365 59.929112 
L 86.436858 59.479669 
L 86.442094 60.378554 
L 89.233121 60.378554 
L 89.348323 59.929112 
L 89.82484 59.929112 
L 89.940042 59.479669 
L 90.238519 59.479669 
L 90.353721 59.180041 
L 90.489869 59.180041 
L 90.605071 58.730598 
L 91.123479 58.730598 
L 91.149661 59.629483 
L 91.233444 59.180041 
L 91.704725 59.180041 
L 91.819926 60.078926 
L 93.092383 60.078926 
L 93.207585 59.629483 
L 98.067009 59.629483 
L 98.182211 60.528369 
L 98.475452 60.528369 
L 98.590654 60.078926 
L 100.36581 60.078926 
L 100.481012 59.629483 
L 101.004656 59.629483 
L 101.119858 60.528369 
L 101.407863 60.528369 
L 101.523065 60.078926 
L 105.885026 60.078926 
L 106.000228 59.854205 
L 106.157321 59.854205 
L 106.272523 60.75309 
L 106.743804 60.75309 
L 106.859005 61.651975 
L 108.052916 61.651975 
L 108.168117 61.202533 
L 112.509133 61.202533 
L 112.624335 60.75309 
L 113.289364 60.75309 
L 113.404566 60.303647 
L 114.116722 60.303647 
L 114.231924 61.202533 
L 114.718914 61.202533 
L 114.834116 62.101418 
L 115.755731 62.101418 
L 115.870933 61.651975 
L 117.792709 61.651975 
L 117.907911 61.202533 
L 120.122928 61.202533 
L 120.23813 60.75309 
L 121.767173 60.75309 
L 121.882375 60.303647 
L 122.756862 60.303647 
L 122.872064 61.202533 
L 123.160068 61.202533 
L 123.27527 60.75309 
L 126.652779 60.75309 
L 126.767981 61.651975 
L 127.563921 61.651975 
L 127.679123 61.202533 
L 130.135017 61.202533 
L 130.250219 62.101418 
L 137.005237 62.101418 
L 137.120439 61.651975 
L 137.759286 61.651975 
L 137.874487 61.202533 
L 139.152181 61.202533 
L 139.267383 60.75309 
L 139.859101 60.75309 
L 139.97954 62.550861 
L 142.320232 62.550861 
L 142.435434 62.101418 
L 145.346899 62.101418 
L 145.462101 63.000303 
L 148.415457 63.000303 
L 148.530659 62.550861 
L 149.991628 62.550861 
L 150.10683 63.449746 
L 150.74044 63.449746 
L 150.855642 64.348631 
L 155.201894 64.348631 
L 155.317096 63.899189 
L 166.381711 63.899189 
L 166.496913 63.449746 
L 176.598021 63.449746 
L 176.713223 63.000303 
L 192.584897 63.000303 
L 192.700099 62.550861 
L 207.686813 62.550861 
L 207.802015 62.101418 
L 207.896271 62.101418 
L 208.011473 61.876697 
L 210.514495 61.876697 
L 210.629697 62.775582 
L 225.234151 62.775582 
L 225.349353 63.674467 
L 231.146101 63.674467 
L 231.261303 63.225025 
L 256.480037 63.225025 
L 256.595239 62.775582 
L 276.467559 62.775582 
L 276.582761 63.674467 
L 279.818886 63.674467 
L 279.934088 63.225025 
L 327.187795 63.225025 
L 327.302997 62.775582 
L 327.758568 62.775582 
L 327.87377 63.674467 
L 343.36842 63.674467 
L 343.483622 63.225025 
L 398.487273 63.225025 
L 398.487273 63.225025 
" clip-path="url(#p5c33d6f514)" style="fill: none; stroke: #1f77b4; stroke-width: 1.5; stroke-linecap: square"/>
   </g>
   <g id="line2d_15">
    <path d="M 73.832727 50.7455 
L 73.974111 56.288626 
L 74.068367 56.288626 
L 74.152151 58.535839 
L 74.183569 57.636954 
L 74.225461 57.636954 
L 74.272589 57.187512 
L 74.277825 58.086397 
L 74.33019 58.086397 
L 74.335426 58.086397 
L 74.4035 57.187512 
L 74.445392 58.086397 
L 74.502993 58.086397 
L 74.623431 57.037697 
L 74.785761 57.037697 
L 74.843362 58.835468 
L 74.895726 57.48714 
L 74.927145 57.48714 
L 74.932381 57.037697 
L 74.937618 57.936583 
L 75.031874 57.936583 
L 75.047583 57.936583 
L 75.162785 58.835468 
L 75.319879 58.835468 
L 75.335588 58.161304 
L 75.346061 59.959075 
L 75.419371 59.509632 
L 75.456026 59.509632 
L 75.482208 58.610747 
L 75.466499 59.959075 
L 75.571228 59.060189 
L 75.581701 59.060189 
L 75.702139 60.85796 
L 75.801632 60.85796 
L 75.916834 60.183796 
L 76.032035 60.183796 
L 76.147237 61.756845 
L 76.272912 61.756845 
L 76.388114 62.65573 
L 76.592335 62.65573 
L 76.649936 64.453501 
L 76.707537 63.554616 
L 76.822739 63.554616 
L 76.937941 62.65573 
L 76.943177 62.65573 
L 76.974596 63.554616 
L 77.053143 63.105173 
L 77.157872 63.105173 
L 77.273074 62.65573 
L 77.325438 62.65573 
L 77.44064 63.554616 
L 77.451113 63.554616 
L 77.571551 65.352386 
L 77.639625 65.352386 
L 77.739118 67.150157 
L 77.754827 66.700714 
L 77.890975 66.700714 
L 78.006176 65.801829 
L 78.346546 65.801829 
L 78.419856 66.700714 
L 78.456511 66.251272 
L 78.63455 66.251272 
L 78.697388 65.801829 
L 78.702624 66.700714 
L 78.739279 66.700714 
L 78.964446 66.700714 
L 78.995865 66.251272 
L 79.001102 67.150157 
L 79.069175 67.150157 
L 79.079648 67.150157 
L 79.200087 66.251272 
L 79.262924 66.251272 
L 79.378126 67.150157 
L 79.639948 67.150157 
L 79.760387 66.251272 
L 79.823224 66.251272 
L 79.938426 65.801829 
L 79.980317 65.801829 
L 80.095519 66.700714 
L 80.221194 66.700714 
L 80.336396 67.5996 
L 80.5668 67.5996 
L 80.603455 67.150157 
L 80.608691 68.049042 
L 80.671528 68.049042 
L 81.032843 68.049042 
L 81.148045 67.5996 
L 81.446523 67.5996 
L 81.535542 67.150157 
L 81.540779 68.049042 
L 81.551252 68.049042 
L 82.001586 68.049042 
L 82.116788 67.150157 
L 82.200571 67.150157 
L 82.279118 68.049042 
L 82.310537 67.5996 
L 82.912728 67.5996 
L 83.02793 67.150157 
L 83.551575 67.150157 
L 83.666777 66.700714 
L 83.776742 66.700714 
L 83.897181 68.498485 
L 83.970491 68.498485 
L 84.085693 69.39737 
L 84.211367 69.39737 
L 84.326569 68.947928 
L 84.347515 68.947928 
L 84.389407 68.498485 
L 84.394643 69.39737 
L 84.452244 69.39737 
L 84.462717 69.39737 
L 84.577919 68.947928 
L 84.813559 68.947928 
L 84.928761 68.498485 
L 85.311021 68.498485 
L 85.426223 69.39737 
L 85.59379 69.39737 
L 85.708992 70.296256 
L 86.337365 70.296256 
L 86.436858 69.846813 
L 86.442094 70.745698 
L 89.233121 70.745698 
L 89.348323 70.296256 
L 89.82484 70.296256 
L 89.940042 69.846813 
L 90.489869 69.846813 
L 90.605071 69.39737 
L 90.69409 69.39737 
L 90.809292 70.296256 
L 91.123479 70.296256 
L 91.149661 71.195141 
L 91.233444 70.745698 
L 91.704725 70.745698 
L 91.819926 71.644584 
L 93.092383 71.644584 
L 93.207585 71.195141 
L 94.6895 71.195141 
L 94.804702 72.094026 
L 98.067009 72.094026 
L 98.182211 72.992912 
L 98.475452 72.992912 
L 98.590654 72.543469 
L 100.36581 72.543469 
L 100.481012 72.094026 
L 101.004656 72.094026 
L 101.119858 72.992912 
L 101.407863 72.992912 
L 101.523065 72.543469 
L 106.157321 72.543469 
L 106.272523 73.442354 
L 106.743804 73.442354 
L 106.859005 74.34124 
L 108.052916 74.34124 
L 108.168117 73.891797 
L 111.514208 73.891797 
L 111.62941 74.790682 
L 112.509133 74.790682 
L 112.624335 74.34124 
L 113.289364 74.34124 
L 113.404566 73.891797 
L 114.116722 73.891797 
L 114.231924 74.790682 
L 114.718914 74.790682 
L 114.834116 75.689568 
L 115.755731 75.689568 
L 115.870933 75.240125 
L 116.661636 75.240125 
L 116.776838 74.34124 
L 117.792709 74.34124 
L 117.907911 73.891797 
L 120.122928 73.891797 
L 120.23813 73.442354 
L 121.767173 73.442354 
L 121.882375 72.992912 
L 122.086596 72.992912 
L 122.201798 73.891797 
L 122.756862 73.891797 
L 122.872064 74.790682 
L 123.160068 74.790682 
L 123.27527 74.34124 
L 126.652779 74.34124 
L 126.767981 75.240125 
L 127.563921 75.240125 
L 127.679123 74.790682 
L 129.977924 74.790682 
L 130.093126 73.891797 
L 130.135017 73.891797 
L 130.250219 74.790682 
L 137.005237 74.790682 
L 137.120439 74.34124 
L 137.759286 74.34124 
L 137.874487 73.891797 
L 138.419078 73.891797 
L 138.53428 74.790682 
L 139.152181 74.790682 
L 139.267383 74.34124 
L 139.948121 74.34124 
L 140.063323 75.240125 
L 140.822608 75.240125 
L 140.93781 76.13901 
L 142.320232 76.13901 
L 142.435434 75.689568 
L 145.346899 75.689568 
L 145.462101 76.588453 
L 148.415457 76.588453 
L 148.530659 76.13901 
L 155.201894 76.13901 
L 155.317096 75.689568 
L 162.25539 75.689568 
L 162.370592 76.588453 
L 163.705886 76.588453 
L 163.821088 77.487338 
L 166.381711 77.487338 
L 166.496913 77.037895 
L 176.598021 77.037895 
L 176.713223 76.588453 
L 177.278759 76.588453 
L 177.393961 77.487338 
L 192.584897 77.487338 
L 192.700099 77.037895 
L 207.686813 77.037895 
L 207.802015 76.588453 
L 208.419916 76.588453 
L 208.535118 77.487338 
L 210.514495 77.487338 
L 210.629697 78.386223 
L 214.033389 78.386223 
L 214.14859 77.487338 
L 225.234151 77.487338 
L 225.349353 78.386223 
L 231.146101 78.386223 
L 231.261303 77.936781 
L 252.264696 77.936781 
L 252.379898 78.835666 
L 256.480037 78.835666 
L 256.595239 78.386223 
L 276.467559 78.386223 
L 276.582761 79.285109 
L 279.818886 79.285109 
L 279.934088 78.835666 
L 327.187795 78.835666 
L 327.302997 78.386223 
L 343.36842 78.386223 
L 343.483622 77.936781 
L 362.120141 77.936781 
L 362.235343 78.835666 
L 398.246396 78.835666 
L 398.361598 79.734551 
L 398.487273 79.734551 
L 398.487273 79.734551 
" clip-path="url(#p5c33d6f514)" style="fill: none; stroke: #ff7f0e; stroke-width: 1.5; stroke-linecap: square"/>
   </g>
   <g id="line2d_16">
    <path d="M 73.832727 49.846615 
L 73.874619 48.94773 
L 73.900801 50.7455 
L 73.947929 49.397172 
L 74.042185 48.648101 
L 74.047422 49.546986 
L 74.052658 49.546986 
L 74.115495 52.243642 
L 74.16786 50.820407 
L 74.204515 50.820407 
L 74.272589 51.719293 
L 74.31448 51.26985 
L 74.335426 51.26985 
L 74.4035 53.067621 
L 74.450628 52.842899 
L 74.482047 52.842899 
L 74.502993 52.543271 
L 74.508229 53.442156 
L 74.581539 53.442156 
L 74.602485 53.442156 
L 74.717687 54.341041 
L 75.005692 54.341041 
L 75.047583 55.239927 
L 75.115657 55.015205 
L 75.319879 55.015205 
L 75.429844 56.812976 
L 75.43508 55.914091 
L 75.456026 55.914091 
L 75.581701 58.610747 
L 75.696903 57.711861 
L 75.717849 57.711861 
L 75.801632 57.262419 
L 75.806868 58.161304 
L 75.822578 58.161304 
L 75.916834 59.060189 
L 75.932543 58.760561 
L 75.963962 58.760561 
L 76.058218 58.460932 
L 76.063454 59.359818 
L 76.068691 58.910375 
L 76.272912 58.910375 
L 76.388114 58.01149 
L 76.414296 58.01149 
L 76.529498 57.112604 
L 76.592335 57.112604 
L 76.649936 56.213719 
L 76.665646 58.01149 
L 76.697064 58.01149 
L 76.817503 58.01149 
L 76.932705 57.711861 
L 76.974596 57.711861 
L 77.089798 58.610747 
L 77.152635 58.610747 
L 77.273074 60.408517 
L 77.27831 60.408517 
L 77.314965 61.307403 
L 77.330675 60.183796 
L 77.383039 60.183796 
L 77.451113 60.183796 
L 77.566315 59.060189 
L 77.639625 59.060189 
L 77.739118 57.936583 
L 77.74959 58.835468 
L 78.042832 58.835468 
L 78.158033 57.936583 
L 78.419856 57.936583 
L 78.535058 58.835468 
L 78.63455 58.835468 
L 78.697388 59.734353 
L 78.744516 59.509632 
L 78.995865 59.509632 
L 79.079648 58.610747 
L 79.105831 59.509632 
L 79.168668 59.509632 
L 79.262924 60.408517 
L 79.278633 60.183796 
L 79.545692 60.183796 
L 79.639948 59.284911 
L 79.655658 60.183796 
L 79.68184 60.183796 
L 79.797042 61.082681 
L 79.823224 61.082681 
L 79.938426 61.981567 
L 79.980317 61.981567 
L 80.095519 61.082681 
L 80.221194 61.082681 
L 80.336396 60.85796 
L 80.5668 60.85796 
L 80.603455 61.756845 
L 80.676765 61.532124 
L 81.032843 61.532124 
L 81.148045 62.431009 
L 81.373213 62.431009 
L 81.446523 61.532124 
L 81.483178 62.431009 
L 81.535542 62.431009 
L 81.650744 61.532124 
L 82.200571 61.532124 
L 82.279118 61.307403 
L 82.284354 62.206288 
L 82.294827 62.206288 
L 82.410029 62.206288 
L 82.525231 63.105173 
L 82.912728 63.105173 
L 83.02793 64.004058 
L 83.776742 64.004058 
L 83.891944 63.105173 
L 83.970491 63.105173 
L 84.085693 62.206288 
L 84.211367 62.206288 
L 84.326569 63.105173 
L 84.389407 63.105173 
L 84.462717 62.206288 
L 84.499372 63.105173 
L 86.337365 63.105173 
L 86.452567 64.004058 
L 89.233121 64.004058 
L 89.348323 64.902944 
L 89.82484 64.902944 
L 89.940042 65.801829 
L 89.966224 65.801829 
L 90.081426 64.902944 
L 90.238519 64.902944 
L 90.353721 64.603315 
L 90.489869 64.603315 
L 90.605071 65.502201 
L 90.69409 65.502201 
L 90.809292 64.603315 
L 91.123479 64.603315 
L 91.149661 64.378594 
L 91.154898 65.277479 
L 91.217735 65.277479 
L 91.453375 65.277479 
L 91.568577 64.378594 
L 93.092383 64.378594 
L 93.207585 65.277479 
L 94.6895 65.277479 
L 94.804702 64.378594 
L 95.234091 64.378594 
L 95.349292 63.479709 
L 98.475452 63.479709 
L 98.590654 64.378594 
L 100.36581 64.378594 
L 100.481012 65.277479 
L 101.004656 65.277479 
L 101.119858 65.052758 
L 101.407863 65.052758 
L 101.523065 65.951643 
L 106.157321 65.951643 
L 106.272523 65.726922 
L 106.743804 65.726922 
L 106.859005 65.502201 
L 108.052916 65.502201 
L 108.168117 66.401086 
L 111.514208 66.401086 
L 111.62941 65.502201 
L 112.509133 65.502201 
L 112.624335 66.401086 
L 113.022305 66.401086 
L 113.137507 65.502201 
L 113.289364 65.502201 
L 113.404566 66.401086 
L 114.116722 66.401086 
L 114.231924 66.176365 
L 114.718914 66.176365 
L 114.834116 65.951643 
L 115.755731 65.951643 
L 115.776677 66.850529 
L 115.865696 65.951643 
L 117.792709 65.951643 
L 117.907911 66.850529 
L 118.133078 66.850529 
L 118.24828 65.951643 
L 120.122928 65.951643 
L 120.232894 66.850529 
L 120.348096 65.951643 
L 121.767173 65.951643 
L 121.882375 66.850529 
L 122.086596 66.850529 
L 122.201798 65.951643 
L 122.756862 65.951643 
L 122.872064 65.726922 
L 123.160068 65.726922 
L 123.27527 66.625807 
L 126.652779 66.625807 
L 126.767981 66.401086 
L 127.563921 66.401086 
L 127.679123 67.299971 
L 130.135017 67.299971 
L 130.250219 67.07525 
L 137.005237 67.07525 
L 137.120439 67.974135 
L 137.130912 67.974135 
L 137.246114 67.07525 
L 137.759286 67.07525 
L 137.874487 67.974135 
L 138.419078 67.974135 
L 138.53428 67.07525 
L 139.152181 67.07525 
L 139.267383 67.974135 
L 139.948121 67.974135 
L 140.063323 67.749414 
L 140.822608 67.749414 
L 140.93781 66.850529 
L 142.320232 66.850529 
L 142.435434 67.749414 
L 142.911951 67.749414 
L 143.027152 68.648299 
L 145.346899 68.648299 
L 145.462101 68.423578 
L 148.415457 68.423578 
L 148.530659 69.322463 
L 155.201894 69.322463 
L 155.317096 70.221349 
L 162.25539 70.221349 
L 162.370592 69.322463 
L 163.705886 69.322463 
L 163.821088 68.423578 
L 166.381711 68.423578 
L 166.496913 69.322463 
L 176.598021 69.322463 
L 176.713223 70.221349 
L 177.278759 70.221349 
L 177.393961 69.322463 
L 207.686813 69.322463 
L 207.802015 70.221349 
L 208.419916 70.221349 
L 208.535118 69.322463 
L 210.514495 69.322463 
L 210.629697 69.097742 
L 225.234151 69.097742 
L 225.349353 68.873021 
L 231.146101 68.873021 
L 231.261303 69.771906 
L 252.264696 69.771906 
L 252.379898 68.873021 
L 256.480037 68.873021 
L 256.595239 69.771906 
L 279.818886 69.771906 
L 279.934088 70.670791 
L 294.33432 70.670791 
L 294.449522 69.771906 
L 327.187795 69.771906 
L 327.302997 70.670791 
L 327.344889 70.670791 
L 327.460091 69.771906 
L 343.36842 69.771906 
L 343.483622 70.670791 
L 362.120141 70.670791 
L 362.235343 69.771906 
L 398.246396 69.771906 
L 398.361598 68.873021 
L 398.487273 68.873021 
L 398.487273 68.873021 
" clip-path="url(#p5c33d6f514)" style="fill: none; stroke: #2ca02c; stroke-width: 1.5; stroke-linecap: square"/>
   </g>
   <g id="line2d_17">
    <path d="M 73.832727 49.846615 
L 73.869382 49.846615 
L 73.989821 52.093828 
L 74.042185 52.093828 
L 74.178333 50.445872 
L 74.204515 50.445872 
L 74.324953 49.996429 
L 74.602485 49.996429 
L 74.717687 49.846615 
L 74.838125 49.846615 
L 74.953327 49.621893 
L 75.005692 49.621893 
L 75.120894 49.442116 
L 75.330351 49.442116 
L 75.445553 49.217395 
L 75.539809 49.217395 
L 75.655011 48.917767 
L 75.822578 48.917767 
L 75.937779 48.693045 
L 76.058218 48.693045 
L 76.17342 48.468324 
L 77.152635 48.468324 
L 77.273074 48.018881 
L 77.27831 48.018881 
L 77.393512 47.719253 
L 79.587584 47.719253 
L 79.702786 47.494532 
L 82.410029 47.494532 
L 82.525231 47.26981 
L 142.911951 47.26981 
L 143.027152 46.970182 
L 398.487273 46.970182 
L 398.487273 46.970182 
" clip-path="url(#p5c33d6f514)" style="fill: none; stroke: #d62728; stroke-width: 1.5; stroke-linecap: square"/>
   </g>
   <g id="line2d_18">
    <path d="M 73.832727 49.846615 
L 73.895565 49.846615 
L 74.010767 50.7455 
L 74.110259 50.7455 
L 74.115495 51.644385 
L 74.220224 51.419664 
L 74.24117 51.419664 
L 74.356372 51.120036 
L 74.4035 51.120036 
L 74.518702 50.895314 
L 75.005692 50.895314 
L 75.047583 51.7942 
L 75.115657 51.569478 
L 75.539809 51.569478 
L 75.623593 52.468364 
L 75.649775 52.168735 
L 77.152635 52.168735 
L 77.273074 53.966506 
L 77.27831 53.966506 
L 77.325438 54.865391 
L 77.388276 54.64067 
L 77.550605 54.64067 
L 77.660571 54.415948 
L 77.712935 55.314834 
L 77.770536 55.090112 
L 78.697388 55.090112 
L 78.812589 54.865391 
L 79.262924 54.865391 
L 79.378126 54.64067 
L 79.440963 54.64067 
L 79.556165 54.341041 
L 79.587584 54.341041 
L 79.702786 55.239927 
L 80.221194 55.239927 
L 80.336396 55.015205 
L 80.603455 55.015205 
L 80.718657 54.790484 
L 81.828784 54.790484 
L 81.943985 54.490856 
L 82.200571 54.490856 
L 82.315773 54.266134 
L 82.410029 54.266134 
L 82.525231 55.16502 
L 84.357988 55.16502 
L 84.47319 54.865391 
L 91.123479 54.865391 
L 91.238681 54.64067 
L 92.605394 54.64067 
L 92.720596 55.539555 
L 101.004656 55.539555 
L 101.119858 55.314834 
L 105.885026 55.314834 
L 106.000228 56.213719 
L 106.157321 56.213719 
L 106.272523 55.988998 
L 106.743804 55.988998 
L 106.859005 55.764276 
L 110.142258 55.764276 
L 110.25746 56.663162 
L 114.116722 56.663162 
L 114.231924 56.43844 
L 114.718914 56.43844 
L 114.834116 56.213719 
L 122.756862 56.213719 
L 122.872064 55.988998 
L 126.652779 55.988998 
L 126.767981 55.764276 
L 130.135017 55.764276 
L 130.250219 55.539555 
L 132.276724 55.539555 
L 132.391926 56.43844 
L 139.859101 56.43844 
L 139.974303 55.914091 
L 142.911951 55.914091 
L 143.027152 56.812976 
L 145.346899 56.812976 
L 145.462101 56.588255 
L 149.991628 56.588255 
L 150.10683 56.288626 
L 150.74044 56.288626 
L 150.855642 55.988998 
L 207.896271 55.988998 
L 208.011473 56.887883 
L 210.514495 56.887883 
L 210.629697 56.663162 
L 225.234151 56.663162 
L 225.349353 56.43844 
L 304.597758 56.43844 
L 304.71296 57.337326 
L 327.758568 57.337326 
L 327.87377 57.037697 
L 398.487273 57.037697 
L 398.487273 57.037697 
" clip-path="url(#p5c33d6f514)" style="fill: none; stroke: #9467bd; stroke-width: 1.5; stroke-linecap: square"/>
   </g>
   <g id="line2d_19">
    <path d="M 73.832727 49.846615 
L 73.947929 49.397172 
L 74.063131 49.097544 
L 74.131205 49.097544 
L 74.246407 48.797915 
L 74.272589 48.797915 
L 74.387791 48.348473 
L 74.482047 48.348473 
L 74.597249 48.048844 
L 74.602485 48.048844 
L 74.717687 48.94773 
L 75.330351 48.94773 
L 75.445553 49.846615 
L 75.822578 49.846615 
L 75.916834 50.7455 
L 75.932543 50.445872 
L 75.963962 50.445872 
L 76.058218 50.146243 
L 76.063454 51.045129 
L 76.068691 50.595686 
L 76.817503 50.595686 
L 76.932705 50.296057 
L 77.660571 50.296057 
L 77.775773 50.071336 
L 90.238519 50.071336 
L 90.353721 49.771708 
L 92.605394 49.771708 
L 92.720596 49.472079 
L 105.885026 49.472079 
L 106.000228 49.247358 
L 110.142258 49.247358 
L 110.25746 48.94773 
L 132.276724 48.94773 
L 132.391926 48.648101 
L 207.896271 48.648101 
L 208.011473 48.42338 
L 304.597758 48.42338 
L 304.71296 48.123751 
L 398.487273 48.123751 
L 398.487273 48.123751 
" clip-path="url(#p5c33d6f514)" style="fill: none; stroke: #8c564b; stroke-width: 1.5; stroke-linecap: square"/>
   </g>
   <g id="line2d_20">
    <path d="M 73.832727 49.397172 
L 73.837964 49.397172 
L 73.895565 48.648101 
L 73.900801 49.546986 
L 73.942693 49.546986 
L 74.110259 49.546986 
L 74.115495 50.445872 
L 74.220224 50.22115 
L 74.24117 50.22115 
L 74.356372 49.921522 
L 74.4035 49.921522 
L 74.518702 49.696801 
L 75.005692 49.696801 
L 75.047583 50.595686 
L 75.115657 50.370965 
L 75.539809 50.370965 
L 75.623593 51.26985 
L 75.649775 50.970221 
L 77.152635 50.970221 
L 77.273074 52.767992 
L 77.27831 52.767992 
L 77.325438 53.666877 
L 77.388276 53.442156 
L 77.550605 53.442156 
L 77.660571 53.217435 
L 77.712935 54.11632 
L 77.770536 53.891599 
L 78.697388 53.891599 
L 78.812589 53.666877 
L 79.262924 53.666877 
L 79.378126 53.442156 
L 79.440963 53.442156 
L 79.556165 53.142528 
L 79.587584 53.142528 
L 79.702786 54.041413 
L 80.221194 54.041413 
L 80.336396 53.816692 
L 80.603455 53.816692 
L 80.718657 53.59197 
L 81.828784 53.59197 
L 81.943985 53.292342 
L 82.200571 53.292342 
L 82.315773 53.067621 
L 82.410029 53.067621 
L 82.525231 53.966506 
L 84.357988 53.966506 
L 84.47319 53.666877 
L 91.123479 53.666877 
L 91.238681 53.442156 
L 92.605394 53.442156 
L 92.720596 54.341041 
L 101.004656 54.341041 
L 101.119858 54.11632 
L 105.885026 54.11632 
L 106.000228 55.015205 
L 106.157321 55.015205 
L 106.272523 54.790484 
L 106.743804 54.790484 
L 106.859005 54.565763 
L 110.142258 54.565763 
L 110.25746 55.464648 
L 114.116722 55.464648 
L 114.231924 55.239927 
L 114.718914 55.239927 
L 114.834116 55.015205 
L 122.756862 55.015205 
L 122.872064 54.790484 
L 126.652779 54.790484 
L 126.767981 54.565763 
L 130.135017 54.565763 
L 130.250219 54.341041 
L 132.276724 54.341041 
L 132.391926 55.239927 
L 139.859101 55.239927 
L 139.974303 54.715577 
L 142.911951 54.715577 
L 143.027152 55.614462 
L 145.346899 55.614462 
L 145.462101 55.389741 
L 149.991628 55.389741 
L 150.10683 55.090112 
L 150.74044 55.090112 
L 150.855642 54.790484 
L 207.896271 54.790484 
L 208.011473 55.689369 
L 210.514495 55.689369 
L 210.629697 55.464648 
L 225.234151 55.464648 
L 225.349353 55.239927 
L 304.597758 55.239927 
L 304.71296 56.138812 
L 327.758568 56.138812 
L 327.87377 55.839184 
L 398.487273 55.839184 
L 398.487273 55.839184 
" clip-path="url(#p5c33d6f514)" style="fill: none; stroke: #e377c2; stroke-width: 1.5; stroke-linecap: square"/>
   </g>
   <g id="line2d_21">
    <path d="M 73.832727 50.7455 
L 73.837964 50.7455 
L 73.968875 55.015205 
L 74.068367 55.015205 
L 74.073604 54.790484 
L 74.125968 56.288626 
L 74.152151 56.063905 
L 74.272589 58.535839 
L 74.293535 58.535839 
L 74.408737 58.311118 
L 74.529175 58.311118 
L 74.602485 59.210003 
L 74.644377 59.060189 
L 74.838125 59.060189 
L 74.953327 58.835468 
L 75.005692 58.835468 
L 75.120894 58.655691 
L 75.429844 58.655691 
L 75.539809 59.554576 
L 75.607883 59.254948 
L 75.61312 60.153833 
L 75.623593 60.153833 
L 75.744031 61.951604 
L 76.414296 61.951604 
L 76.529498 62.850489 
L 77.152635 62.850489 
L 77.273074 62.401046 
L 77.27831 62.401046 
L 77.314965 62.101418 
L 77.320202 63.000303 
L 77.377803 63.000303 
L 77.660571 63.000303 
L 77.775773 62.775582 
L 78.042832 62.775582 
L 78.158033 63.674467 
L 79.440963 63.674467 
L 79.561401 65.472238 
L 79.587584 65.472238 
L 79.624239 65.247516 
L 79.629475 66.146402 
L 79.68184 66.146402 
L 81.373213 66.146402 
L 81.488414 67.045287 
L 81.828784 67.045287 
L 81.943985 67.944172 
L 82.410029 67.944172 
L 82.525231 67.719451 
L 84.357988 67.719451 
L 84.47319 68.618336 
L 89.966224 68.618336 
L 90.081426 69.517222 
L 91.453375 69.517222 
L 91.568577 70.416107 
L 92.605394 70.416107 
L 92.720596 70.116479 
L 95.234091 70.116479 
L 95.349292 71.015364 
L 105.885026 71.015364 
L 106.000228 70.790643 
L 110.142258 70.790643 
L 110.25746 70.491014 
L 113.022305 70.491014 
L 113.137507 71.389899 
L 115.776677 71.389899 
L 115.891878 72.288785 
L 118.133078 72.288785 
L 118.24828 73.18767 
L 120.232894 73.18767 
L 120.348096 74.086555 
L 132.276724 74.086555 
L 132.391926 73.786927 
L 137.130912 73.786927 
L 137.246114 74.685812 
L 139.859101 74.685812 
L 139.974303 75.584698 
L 142.911951 75.584698 
L 143.027152 75.285069 
L 149.991628 75.285069 
L 150.10683 76.183954 
L 150.74044 76.183954 
L 150.855642 77.08284 
L 207.896271 77.08284 
L 208.011473 76.858118 
L 294.33432 76.858118 
L 294.449522 77.757004 
L 304.597758 77.757004 
L 304.71296 77.457375 
L 327.344889 77.457375 
L 327.460091 78.356261 
L 327.758568 78.356261 
L 327.87377 79.255146 
L 398.487273 79.255146 
L 398.487273 79.255146 
" clip-path="url(#p5c33d6f514)" style="fill: none; stroke: #7f7f7f; stroke-width: 1.5; stroke-linecap: square"/>
   </g>
   <g id="line2d_22">
    <path d="M 73.832727 49.846615 
L 73.968875 54.790484 
L 74.042185 54.790484 
L 74.073604 53.966506 
L 74.125968 55.239927 
L 74.131205 55.239927 
L 74.24117 58.386025 
L 74.25688 58.086397 
L 74.272589 58.086397 
L 74.393027 60.558331 
L 74.4035 60.558331 
L 74.482047 60.33361 
L 74.487283 61.232495 
L 74.497756 61.232495 
L 74.502993 61.232495 
L 74.602485 63.030266 
L 74.623431 62.880452 
L 74.838125 62.880452 
L 74.953327 62.65573 
L 75.005692 62.65573 
L 75.12613 62.251232 
L 75.319879 62.251232 
L 75.445553 65.622052 
L 75.456026 65.622052 
L 75.592174 70.116479 
L 75.607883 70.116479 
L 75.733558 73.412391 
L 75.801632 73.412391 
L 75.822578 74.311277 
L 75.911597 74.086555 
L 75.916834 74.086555 
L 76.037272 75.884326 
L 76.058218 75.884326 
L 76.063454 75.659605 
L 76.068691 76.55849 
L 76.152474 76.55849 
L 76.272912 76.55849 
L 76.388114 77.457375 
L 76.414296 77.457375 
L 76.529498 78.356261 
L 76.592335 78.356261 
L 76.71801 81.052917 
L 76.817503 81.052917 
L 76.932705 81.951802 
L 76.974596 81.951802 
L 77.089798 82.850687 
L 77.152635 82.850687 
L 77.273074 82.401244 
L 77.314965 82.401244 
L 77.325438 83.30013 
L 77.424931 83.075408 
L 77.451113 83.075408 
L 77.550605 83.974294 
L 77.561078 83.749572 
L 77.639625 83.749572 
L 77.760063 86.221507 
L 78.042832 86.221507 
L 78.158033 87.120392 
L 78.419856 87.120392 
L 78.535058 88.019278 
L 78.63455 88.019278 
L 78.697388 88.918163 
L 78.744516 88.693442 
L 78.995865 88.693442 
L 79.116303 90.491212 
L 79.168668 90.491212 
L 79.262924 91.390098 
L 79.278633 91.165376 
L 79.440963 91.165376 
L 79.545692 90.865748 
L 79.66613 93.337682 
L 79.68184 93.337682 
L 79.797042 94.236568 
L 79.823224 94.236568 
L 79.938426 95.135453 
L 79.980317 95.135453 
L 80.095519 96.034338 
L 80.221194 96.034338 
L 80.336396 95.809617 
L 80.5668 95.809617 
L 80.603455 96.708502 
L 80.676765 96.483781 
L 81.032843 96.483781 
L 81.148045 97.382666 
L 81.373213 97.382666 
L 81.493651 99.180437 
L 81.535542 99.180437 
L 81.650744 100.079322 
L 81.828784 100.079322 
L 81.943985 99.779694 
L 82.200571 99.779694 
L 82.279118 99.554973 
L 82.284354 100.453858 
L 82.294827 100.453858 
L 82.410029 100.453858 
L 82.525231 100.229136 
L 82.912728 100.229136 
L 83.02793 101.128022 
L 83.776742 101.128022 
L 83.891944 102.026907 
L 83.970491 102.026907 
L 84.085693 102.925792 
L 84.211367 102.925792 
L 84.326569 103.824678 
L 84.357988 103.824678 
L 84.389407 103.525049 
L 84.394643 104.423935 
L 84.45748 104.423935 
L 84.462717 104.423935 
L 84.577919 105.32282 
L 86.337365 105.32282 
L 86.452567 106.221705 
L 89.233121 106.221705 
L 89.348323 107.120591 
L 89.82484 107.120591 
L 89.940042 108.019476 
L 89.966224 108.019476 
L 90.081426 108.918361 
L 90.238519 108.918361 
L 90.353721 109.817246 
L 90.489869 109.817246 
L 90.605071 110.716132 
L 90.69409 110.716132 
L 90.809292 111.615017 
L 91.123479 111.615017 
L 91.149661 111.390296 
L 91.154898 112.289181 
L 91.217735 112.289181 
L 91.453375 112.289181 
L 91.568577 113.188066 
L 92.605394 113.188066 
L 92.720596 114.086952 
L 93.092383 114.086952 
L 93.207585 114.985837 
L 94.6895 114.985837 
L 94.804702 115.884722 
L 95.234091 115.884722 
L 95.349292 116.783608 
L 98.475452 116.783608 
L 98.590654 117.682493 
L 100.36581 117.682493 
L 100.481012 118.581378 
L 101.004656 118.581378 
L 101.119858 118.356657 
L 101.407863 118.356657 
L 101.523065 119.255542 
L 105.885026 119.255542 
L 106.000228 120.154428 
L 106.157321 120.154428 
L 106.272523 119.929706 
L 106.743804 119.929706 
L 106.859005 119.704985 
L 108.052916 119.704985 
L 108.168117 120.60387 
L 110.142258 120.60387 
L 110.25746 121.502756 
L 111.514208 121.502756 
L 111.62941 122.401641 
L 112.509133 122.401641 
L 112.624335 123.300526 
L 113.022305 123.300526 
L 113.137507 124.199411 
L 113.289364 124.199411 
L 113.404566 125.098297 
L 114.116722 125.098297 
L 114.231924 124.873575 
L 114.718914 124.873575 
L 114.834116 124.648854 
L 115.755731 124.648854 
L 115.876169 126.446625 
L 117.792709 126.446625 
L 117.907911 127.34551 
L 118.133078 127.34551 
L 118.24828 128.244395 
L 120.122928 128.244395 
L 120.243367 130.042166 
L 121.767173 130.042166 
L 121.882375 130.941051 
L 122.086596 130.941051 
L 122.201798 131.839937 
L 122.756862 131.839937 
L 122.872064 131.615215 
L 123.160068 131.615215 
L 123.27527 132.514101 
L 126.652779 132.514101 
L 126.767981 132.289379 
L 127.563921 132.289379 
L 127.679123 133.188265 
L 130.135017 133.188265 
L 130.250219 132.963543 
L 132.276724 132.963543 
L 132.391926 133.862429 
L 137.005237 133.862429 
L 137.120439 134.761314 
L 137.130912 134.761314 
L 137.246114 135.660199 
L 137.759286 135.660199 
L 137.874487 136.559084 
L 138.419078 136.559084 
L 138.53428 137.45797 
L 139.152181 137.45797 
L 139.267383 138.356855 
L 139.859101 138.356855 
L 139.974303 137.832505 
L 140.822608 137.832505 
L 140.93781 138.731391 
L 142.320232 138.731391 
L 142.435434 139.630276 
L 145.346899 139.630276 
L 145.462101 139.405555 
L 148.415457 139.405555 
L 148.530659 140.30444 
L 149.991628 140.30444 
L 150.10683 140.004811 
L 150.74044 140.004811 
L 150.855642 139.705183 
L 155.201894 139.705183 
L 155.317096 140.604068 
L 162.25539 140.604068 
L 162.370592 141.502954 
L 163.705886 141.502954 
L 163.821088 142.401839 
L 166.381711 142.401839 
L 166.496913 143.300724 
L 176.598021 143.300724 
L 176.713223 144.19961 
L 177.278759 144.19961 
L 177.393961 145.098495 
L 207.686813 145.098495 
L 207.802015 145.99738 
L 207.896271 145.99738 
L 208.011473 146.896266 
L 208.419916 146.896266 
L 208.535118 147.795151 
L 210.514495 147.795151 
L 210.629697 147.57043 
L 225.234151 147.57043 
L 225.349353 147.345708 
L 231.146101 147.345708 
L 231.261303 148.244594 
L 252.264696 148.244594 
L 252.379898 149.143479 
L 256.480037 149.143479 
L 256.595239 150.042364 
L 279.818886 150.042364 
L 279.934088 150.941249 
L 294.33432 150.941249 
L 294.449522 151.840135 
L 304.597758 151.840135 
L 304.71296 152.73902 
L 327.187795 152.73902 
L 327.302997 153.637905 
L 327.344889 153.637905 
L 327.460091 154.536791 
L 327.758568 154.536791 
L 327.87377 154.237162 
L 343.36842 154.237162 
L 343.483622 155.136048 
L 362.120141 155.136048 
L 362.235343 156.034933 
L 398.246396 156.034933 
L 398.361598 156.933818 
L 398.487273 156.933818 
L 398.487273 156.933818 
" clip-path="url(#p5c33d6f514)" style="fill: none; stroke: #bcbd22; stroke-width: 1.5; stroke-linecap: square"/>
   </g>
   <g id="line2d_23">
    <path d="M 73.832727 49.846615 
L 73.837964 49.846615 
L 73.979348 55.689369 
L 74.042185 55.689369 
L 74.073604 54.865391 
L 74.125968 56.063905 
L 74.146914 55.839184 
L 74.152151 55.839184 
L 74.277825 59.210003 
L 74.293535 59.210003 
L 74.408737 58.985282 
L 74.529175 58.985282 
L 74.602485 59.884167 
L 74.644377 59.734353 
L 74.838125 59.734353 
L 74.953327 59.509632 
L 75.005692 59.509632 
L 75.120894 59.329855 
L 75.335588 59.329855 
L 75.456026 61.127625 
L 75.482208 61.127625 
L 75.59741 62.625768 
L 75.607883 62.625768 
L 75.738794 66.221309 
L 76.272912 66.221309 
L 76.388114 67.120194 
L 76.414296 67.120194 
L 76.529498 68.01908 
L 76.592335 68.01908 
L 76.707537 68.917965 
L 77.152635 68.917965 
L 77.273074 68.468522 
L 77.27831 68.468522 
L 77.314965 68.168894 
L 77.320202 69.067779 
L 77.377803 69.067779 
L 77.451113 69.067779 
L 77.566315 69.966664 
L 77.639625 69.966664 
L 77.660571 70.86555 
L 77.74959 70.640828 
L 78.042832 70.640828 
L 78.158033 71.539714 
L 78.995865 71.539714 
L 79.111067 72.438599 
L 79.440963 72.438599 
L 79.561401 74.23637 
L 79.587584 74.23637 
L 79.624239 74.011648 
L 79.629475 74.910534 
L 79.68184 74.910534 
L 79.980317 74.910534 
L 80.095519 75.809419 
L 81.373213 75.809419 
L 81.488414 76.708304 
L 81.535542 76.708304 
L 81.650744 77.607189 
L 81.828784 77.607189 
L 81.943985 78.506075 
L 82.410029 78.506075 
L 82.525231 78.281353 
L 83.776742 78.281353 
L 83.891944 79.180239 
L 83.970491 79.180239 
L 84.085693 80.079124 
L 84.357988 80.079124 
L 84.478426 81.876895 
L 89.966224 81.876895 
L 90.081426 82.77578 
L 90.69409 82.77578 
L 90.809292 83.674665 
L 91.453375 83.674665 
L 91.568577 84.573551 
L 92.605394 84.573551 
L 92.720596 84.273922 
L 94.6895 84.273922 
L 94.804702 85.172808 
L 95.234091 85.172808 
L 95.349292 86.071693 
L 105.885026 86.071693 
L 106.000228 85.846972 
L 110.142258 85.846972 
L 110.25746 85.547343 
L 111.514208 85.547343 
L 111.62941 86.446228 
L 113.022305 86.446228 
L 113.137507 87.345114 
L 115.776677 87.345114 
L 115.891878 88.243999 
L 118.133078 88.243999 
L 118.24828 89.142884 
L 120.232894 89.142884 
L 120.348096 90.04177 
L 122.086596 90.04177 
L 122.201798 90.940655 
L 132.276724 90.940655 
L 132.391926 90.641027 
L 137.130912 90.641027 
L 137.246114 91.539912 
L 138.419078 91.539912 
L 138.53428 92.438797 
L 139.859101 92.438797 
L 139.974303 93.337682 
L 140.822608 93.337682 
L 140.93781 94.236568 
L 142.911951 94.236568 
L 143.027152 93.936939 
L 149.991628 93.936939 
L 150.10683 94.835825 
L 150.74044 94.835825 
L 150.855642 95.73471 
L 162.25539 95.73471 
L 162.370592 96.633595 
L 163.705886 96.633595 
L 163.821088 97.532481 
L 177.278759 97.532481 
L 177.393961 98.431366 
L 207.896271 98.431366 
L 208.011473 98.206645 
L 208.419916 98.206645 
L 208.535118 99.10553 
L 252.264696 99.10553 
L 252.379898 100.004415 
L 294.33432 100.004415 
L 294.449522 100.9033 
L 304.597758 100.9033 
L 304.71296 100.603672 
L 327.344889 100.603672 
L 327.460091 101.502557 
L 327.758568 101.502557 
L 327.87377 102.401443 
L 362.120141 102.401443 
L 362.235343 103.300328 
L 398.246396 103.300328 
L 398.361598 104.199213 
L 398.487273 104.199213 
L 398.487273 104.199213 
" clip-path="url(#p5c33d6f514)" style="fill: none; stroke: #17becf; stroke-width: 1.5; stroke-linecap: square"/>
   </g>
   <g id="line2d_24">
    <path d="M 73.832727 49.846615 
L 73.953166 51.644385 
L 74.131205 51.644385 
L 74.246407 52.543271 
L 74.272589 52.543271 
L 74.387791 53.442156 
L 74.482047 53.442156 
L 74.597249 54.341041 
L 74.602485 54.341041 
L 74.717687 54.191227 
L 75.330351 54.191227 
L 75.445553 53.966506 
L 75.822578 53.966506 
L 75.916834 53.741784 
L 76.037272 55.539555 
L 76.058218 55.539555 
L 76.063454 55.314834 
L 76.068691 56.213719 
L 76.152474 56.213719 
L 76.817503 56.213719 
L 76.932705 57.112604 
L 77.660571 57.112604 
L 77.775773 58.01149 
L 90.238519 58.01149 
L 90.353721 58.910375 
L 92.605394 58.910375 
L 92.720596 59.80926 
L 105.885026 59.80926 
L 106.000228 60.708146 
L 110.142258 60.708146 
L 110.25746 61.607031 
L 132.276724 61.607031 
L 132.391926 62.505916 
L 207.896271 62.505916 
L 208.011473 63.404802 
L 304.597758 63.404802 
L 304.71296 64.303687 
L 398.487273 64.303687 
L 398.487273 64.303687 
" clip-path="url(#p5c33d6f514)" style="fill: none; stroke: #1f77b4; stroke-width: 1.5; stroke-linecap: square"/>
   </g>
   <g id="line2d_25">
    <path d="M 73.832727 49.397172 
L 73.848437 49.397172 
L 73.864146 49.846615 
L 73.963638 48.723008 
L 74.293535 48.723008 
L 74.408737 49.621893 
L 74.602485 49.621893 
L 74.717687 50.520779 
L 74.785761 50.520779 
L 74.843362 49.621893 
L 74.853835 51.419664 
L 74.89049 51.419664 
L 74.927145 51.419664 
L 74.932381 52.318549 
L 75.03711 51.419664 
L 75.330351 51.419664 
L 75.340824 52.318549 
L 75.440317 51.419664 
L 75.461263 51.419664 
L 75.471736 50.520779 
L 75.571228 51.419664 
L 75.68643 51.419664 
L 75.801632 50.520779 
L 75.822578 50.520779 
L 75.937779 51.419664 
L 76.032035 51.419664 
L 76.058218 50.520779 
L 76.142001 51.419664 
L 76.608045 51.419664 
L 76.723247 50.520779 
L 76.822739 50.520779 
L 76.937941 51.419664 
L 76.943177 51.419664 
L 77.058379 50.520779 
L 77.157872 50.520779 
L 77.273074 51.419664 
L 77.890975 51.419664 
L 78.006176 52.318549 
L 78.346546 52.318549 
L 78.461747 51.419664 
L 78.964446 51.419664 
L 79.079648 52.318549 
L 82.001586 52.318549 
L 82.116788 53.217435 
L 83.551575 53.217435 
L 83.666777 54.11632 
L 83.860525 54.11632 
L 83.975727 53.217435 
L 84.347515 53.217435 
L 84.462717 54.11632 
L 84.813559 54.11632 
L 84.928761 55.015205 
L 85.311021 55.015205 
L 85.426223 54.11632 
L 85.59379 54.11632 
L 85.708992 53.217435 
L 86.436858 53.217435 
L 86.55206 52.318549 
L 91.704725 52.318549 
L 91.819926 51.419664 
L 98.067009 51.419664 
L 98.182211 50.520779 
L 116.661636 50.520779 
L 116.776838 51.419664 
L 129.977924 51.419664 
L 130.093126 52.318549 
L 192.584897 52.318549 
L 192.700099 53.217435 
L 214.033389 53.217435 
L 214.14859 54.11632 
L 276.467559 54.11632 
L 276.582761 53.217435 
L 398.487273 53.217435 
L 398.487273 53.217435 
" clip-path="url(#p5c33d6f514)" style="fill: none; stroke: #ff7f0e; stroke-width: 1.5; stroke-linecap: square"/>
   </g>
   <g id="patch_3">
    <path d="M 57.6 162.432 
L 57.6 41.472 
" style="fill: none; stroke: #000000; stroke-width: 0.8; stroke-linejoin: miter; stroke-linecap: square"/>
   </g>
   <g id="patch_4">
    <path d="M 414.72 162.432 
L 414.72 41.472 
" style="fill: none; stroke: #000000; stroke-width: 0.8; stroke-linejoin: miter; stroke-linecap: square"/>
   </g>
   <g id="patch_5">
    <path d="M 57.6 162.432 
L 414.72 162.432 
" style="fill: none; stroke: #000000; stroke-width: 0.8; stroke-linejoin: miter; stroke-linecap: square"/>
   </g>
   <g id="patch_6">
    <path d="M 57.6 41.472 
L 414.72 41.472 
" style="fill: none; stroke: #000000; stroke-width: 0.8; stroke-linejoin: miter; stroke-linecap: square"/>
   </g>
   <g id="text_14">
    <!-- WSP -->
    <g transform="translate(361.832136 63.225025)scale(0.08 -0.08)">
     <defs>
      <path id="DejaVuSans-57" d="M 213 4666 
L 850 4666 
L 1831 722 
L 2809 4666 
L 3519 4666 
L 4500 722 
L 5478 4666 
L 6119 4666 
L 4947 0 
L 4153 0 
L 3169 4050 
L 2175 0 
L 1381 0 
L 213 4666 
z
" transform="scale(0.015625)"/>
      <path id="DejaVuSans-53" d="M 3425 4513 
L 3425 3897 
Q 3066 4069 2747 4153 
Q 2428 4238 2131 4238 
Q 1616 4238 1336 4038 
Q 1056 3838 1056 3469 
Q 1056 3159 1242 3001 
Q 1428 2844 1947 2747 
L 2328 2669 
Q 3034 2534 3370 2195 
Q 3706 1856 3706 1288 
Q 3706 609 3251 259 
Q 2797 -91 1919 -91 
Q 1588 -91 1214 -16 
Q 841 59 441 206 
L 441 856 
Q 825 641 1194 531 
Q 1563 422 1919 422 
Q 2459 422 2753 634 
Q 3047 847 3047 1241 
Q 3047 1584 2836 1778 
Q 2625 1972 2144 2069 
L 1759 2144 
Q 1053 2284 737 2584 
Q 422 2884 422 3419 
Q 422 4038 858 4394 
Q 1294 4750 2059 4750 
Q 2388 4750 2728 4690 
Q 3069 4631 3425 4513 
z
" transform="scale(0.015625)"/>
      <path id="DejaVuSans-50" d="M 1259 4147 
L 1259 2394 
L 2053 2394 
Q 2494 2394 2734 2622 
Q 2975 2850 2975 3272 
Q 2975 3691 2734 3919 
Q 2494 4147 2053 4147 
L 1259 4147 
z
M 628 4666 
L 2053 4666 
Q 2838 4666 3239 4311 
Q 3641 3956 3641 3272 
Q 3641 2581 3239 2228 
Q 2838 1875 2053 1875 
L 1259 1875 
L 1259 0 
L 628 0 
L 628 4666 
z
" transform="scale(0.015625)"/>
     </defs>
     <use xlink:href="#DejaVuSans-57"/>
     <use xlink:href="#DejaVuSans-53" x="98.876953"/>
     <use xlink:href="#DejaVuSans-50" x="162.353516"/>
    </g>
   </g>
   <g id="text_15">
    <!-- Iambic -->
    <g transform="translate(361.832136 79.734551)scale(0.08 -0.08)">
     <defs>
      <path id="DejaVuSans-49" d="M 628 4666 
L 1259 4666 
L 1259 0 
L 628 0 
L 628 4666 
z
" transform="scale(0.015625)"/>
      <path id="DejaVuSans-61" d="M 2194 1759 
Q 1497 1759 1228 1600 
Q 959 1441 959 1056 
Q 959 750 1161 570 
Q 1363 391 1709 391 
Q 2188 391 2477 730 
Q 2766 1069 2766 1631 
L 2766 1759 
L 2194 1759 
z
M 3341 1997 
L 3341 0 
L 2766 0 
L 2766 531 
Q 2569 213 2275 61 
Q 1981 -91 1556 -91 
Q 1019 -91 701 211 
Q 384 513 384 1019 
Q 384 1609 779 1909 
Q 1175 2209 1959 2209 
L 2766 2209 
L 2766 2266 
Q 2766 2663 2505 2880 
Q 2244 3097 1772 3097 
Q 1472 3097 1187 3025 
Q 903 2953 641 2809 
L 641 3341 
Q 956 3463 1253 3523 
Q 1550 3584 1831 3584 
Q 2591 3584 2966 3190 
Q 3341 2797 3341 1997 
z
" transform="scale(0.015625)"/>
      <path id="DejaVuSans-6d" d="M 3328 2828 
Q 3544 3216 3844 3400 
Q 4144 3584 4550 3584 
Q 5097 3584 5394 3201 
Q 5691 2819 5691 2113 
L 5691 0 
L 5113 0 
L 5113 2094 
Q 5113 2597 4934 2840 
Q 4756 3084 4391 3084 
Q 3944 3084 3684 2787 
Q 3425 2491 3425 1978 
L 3425 0 
L 2847 0 
L 2847 2094 
Q 2847 2600 2669 2842 
Q 2491 3084 2119 3084 
Q 1678 3084 1418 2786 
Q 1159 2488 1159 1978 
L 1159 0 
L 581 0 
L 581 3500 
L 1159 3500 
L 1159 2956 
Q 1356 3278 1631 3431 
Q 1906 3584 2284 3584 
Q 2666 3584 2933 3390 
Q 3200 3197 3328 2828 
z
" transform="scale(0.015625)"/>
      <path id="DejaVuSans-62" d="M 3116 1747 
Q 3116 2381 2855 2742 
Q 2594 3103 2138 3103 
Q 1681 3103 1420 2742 
Q 1159 2381 1159 1747 
Q 1159 1113 1420 752 
Q 1681 391 2138 391 
Q 2594 391 2855 752 
Q 3116 1113 3116 1747 
z
M 1159 2969 
Q 1341 3281 1617 3432 
Q 1894 3584 2278 3584 
Q 2916 3584 3314 3078 
Q 3713 2572 3713 1747 
Q 3713 922 3314 415 
Q 2916 -91 2278 -91 
Q 1894 -91 1617 61 
Q 1341 213 1159 525 
L 1159 0 
L 581 0 
L 581 4863 
L 1159 4863 
L 1159 2969 
z
" transform="scale(0.015625)"/>
      <path id="DejaVuSans-69" d="M 603 3500 
L 1178 3500 
L 1178 0 
L 603 0 
L 603 3500 
z
M 603 4863 
L 1178 4863 
L 1178 4134 
L 603 4134 
L 603 4863 
z
" transform="scale(0.015625)"/>
      <path id="DejaVuSans-63" d="M 3122 3366 
L 3122 2828 
Q 2878 2963 2633 3030 
Q 2388 3097 2138 3097 
Q 1578 3097 1268 2742 
Q 959 2388 959 1747 
Q 959 1106 1268 751 
Q 1578 397 2138 397 
Q 2388 397 2633 464 
Q 2878 531 3122 666 
L 3122 134 
Q 2881 22 2623 -34 
Q 2366 -91 2075 -91 
Q 1284 -91 818 406 
Q 353 903 353 1747 
Q 353 2603 823 3093 
Q 1294 3584 2113 3584 
Q 2378 3584 2631 3529 
Q 2884 3475 3122 3366 
z
" transform="scale(0.015625)"/>
     </defs>
     <use xlink:href="#DejaVuSans-49"/>
     <use xlink:href="#DejaVuSans-61" x="29.492188"/>
     <use xlink:href="#DejaVuSans-6d" x="90.771484"/>
     <use xlink:href="#DejaVuSans-62" x="188.183594"/>
     <use xlink:href="#DejaVuSans-69" x="251.660156"/>
     <use xlink:href="#DejaVuSans-63" x="279.443359"/>
    </g>
   </g>
   <g id="text_16">
    <!-- Parse -->
    <g transform="translate(361.832136 68.873021)scale(0.08 -0.08)">
     <defs>
      <path id="DejaVuSans-72" d="M 2631 2963 
Q 2534 3019 2420 3045 
Q 2306 3072 2169 3072 
Q 1681 3072 1420 2755 
Q 1159 2438 1159 1844 
L 1159 0 
L 581 0 
L 581 3500 
L 1159 3500 
L 1159 2956 
Q 1341 3275 1631 3429 
Q 1922 3584 2338 3584 
Q 2397 3584 2469 3576 
Q 2541 3569 2628 3553 
L 2631 2963 
z
" transform="scale(0.015625)"/>
      <path id="DejaVuSans-73" d="M 2834 3397 
L 2834 2853 
Q 2591 2978 2328 3040 
Q 2066 3103 1784 3103 
Q 1356 3103 1142 2972 
Q 928 2841 928 2578 
Q 928 2378 1081 2264 
Q 1234 2150 1697 2047 
L 1894 2003 
Q 2506 1872 2764 1633 
Q 3022 1394 3022 966 
Q 3022 478 2636 193 
Q 2250 -91 1575 -91 
Q 1294 -91 989 -36 
Q 684 19 347 128 
L 347 722 
Q 666 556 975 473 
Q 1284 391 1588 391 
Q 1994 391 2212 530 
Q 2431 669 2431 922 
Q 2431 1156 2273 1281 
Q 2116 1406 1581 1522 
L 1381 1569 
Q 847 1681 609 1914 
Q 372 2147 372 2553 
Q 372 3047 722 3315 
Q 1072 3584 1716 3584 
Q 2034 3584 2315 3537 
Q 2597 3491 2834 3397 
z
" transform="scale(0.015625)"/>
      <path id="DejaVuSans-65" d="M 3597 1894 
L 3597 1613 
L 953 1613 
Q 991 1019 1311 708 
Q 1631 397 2203 397 
Q 2534 397 2845 478 
Q 3156 559 3463 722 
L 3463 178 
Q 3153 47 2828 -22 
Q 2503 -91 2169 -91 
Q 1331 -91 842 396 
Q 353 884 353 1716 
Q 353 2575 817 3079 
Q 1281 3584 2069 3584 
Q 2775 3584 3186 3129 
Q 3597 2675 3597 1894 
z
M 3022 2063 
Q 3016 2534 2758 2815 
Q 2500 3097 2075 3097 
Q 1594 3097 1305 2825 
Q 1016 2553 972 2059 
L 3022 2063 
z
" transform="scale(0.015625)"/>
     </defs>
     <use xlink:href="#DejaVuSans-50"/>
     <use xlink:href="#DejaVuSans-61" x="55.802734"/>
     <use xlink:href="#DejaVuSans-72" x="117.082031"/>
     <use xlink:href="#DejaVuSans-73" x="158.195312"/>
     <use xlink:href="#DejaVuSans-65" x="210.294922"/>
    </g>
   </g>
   <g id="text_17">
    <!-- FootBin -->
    <g transform="translate(361.832136 46.970182)scale(0.08 -0.08)">
     <defs>
      <path id="DejaVuSans-46" d="M 628 4666 
L 3309 4666 
L 3309 4134 
L 1259 4134 
L 1259 2759 
L 3109 2759 
L 3109 2228 
L 1259 2228 
L 1259 0 
L 628 0 
L 628 4666 
z
" transform="scale(0.015625)"/>
      <path id="DejaVuSans-6f" d="M 1959 3097 
Q 1497 3097 1228 2736 
Q 959 2375 959 1747 
Q 959 1119 1226 758 
Q 1494 397 1959 397 
Q 2419 397 2687 759 
Q 2956 1122 2956 1747 
Q 2956 2369 2687 2733 
Q 2419 3097 1959 3097 
z
M 1959 3584 
Q 2709 3584 3137 3096 
Q 3566 2609 3566 1747 
Q 3566 888 3137 398 
Q 2709 -91 1959 -91 
Q 1206 -91 779 398 
Q 353 888 353 1747 
Q 353 2609 779 3096 
Q 1206 3584 1959 3584 
z
" transform="scale(0.015625)"/>
      <path id="DejaVuSans-74" d="M 1172 4494 
L 1172 3500 
L 2356 3500 
L 2356 3053 
L 1172 3053 
L 1172 1153 
Q 1172 725 1289 603 
Q 1406 481 1766 481 
L 2356 481 
L 2356 0 
L 1766 0 
Q 1100 0 847 248 
Q 594 497 594 1153 
L 594 3053 
L 172 3053 
L 172 3500 
L 594 3500 
L 594 4494 
L 1172 4494 
z
" transform="scale(0.015625)"/>
      <path id="DejaVuSans-42" d="M 1259 2228 
L 1259 519 
L 2272 519 
Q 2781 519 3026 730 
Q 3272 941 3272 1375 
Q 3272 1813 3026 2020 
Q 2781 2228 2272 2228 
L 1259 2228 
z
M 1259 4147 
L 1259 2741 
L 2194 2741 
Q 2656 2741 2882 2914 
Q 3109 3088 3109 3444 
Q 3109 3797 2882 3972 
Q 2656 4147 2194 4147 
L 1259 4147 
z
M 628 4666 
L 2241 4666 
Q 2963 4666 3353 4366 
Q 3744 4066 3744 3513 
Q 3744 3084 3544 2831 
Q 3344 2578 2956 2516 
Q 3422 2416 3680 2098 
Q 3938 1781 3938 1306 
Q 3938 681 3513 340 
Q 3088 0 2303 0 
L 628 0 
L 628 4666 
z
" transform="scale(0.015625)"/>
      <path id="DejaVuSans-6e" d="M 3513 2113 
L 3513 0 
L 2938 0 
L 2938 2094 
Q 2938 2591 2744 2837 
Q 2550 3084 2163 3084 
Q 1697 3084 1428 2787 
Q 1159 2491 1159 1978 
L 1159 0 
L 581 0 
L 581 3500 
L 1159 3500 
L 1159 2956 
Q 1366 3272 1645 3428 
Q 1925 3584 2291 3584 
Q 2894 3584 3203 3211 
Q 3513 2838 3513 2113 
z
" transform="scale(0.015625)"/>
     </defs>
     <use xlink:href="#DejaVuSans-46"/>
     <use xlink:href="#DejaVuSans-6f" x="53.894531"/>
     <use xlink:href="#DejaVuSans-6f" x="115.076172"/>
     <use xlink:href="#DejaVuSans-74" x="176.257812"/>
     <use xlink:href="#DejaVuSans-42" x="215.466797"/>
     <use xlink:href="#DejaVuSans-69" x="284.070312"/>
     <use xlink:href="#DejaVuSans-6e" x="311.853516"/>
    </g>
   </g>
   <g id="text_18">
    <!-- WFL -->
    <g transform="translate(361.832136 57.037697)scale(0.08 -0.08)">
     <defs>
      <path id="DejaVuSans-4c" d="M 628 4666 
L 1259 4666 
L 1259 531 
L 3531 531 
L 3531 0 
L 628 0 
L 628 4666 
z
" transform="scale(0.015625)"/>
     </defs>
     <use xlink:href="#DejaVuSans-57"/>
     <use xlink:href="#DejaVuSans-46" x="98.876953"/>
     <use xlink:href="#DejaVuSans-4c" x="156.396484"/>
    </g>
   </g>
   <g id="text_19">
    <!-- WFR -->
    <g transform="translate(361.832136 48.123751)scale(0.08 -0.08)">
     <defs>
      <path id="DejaVuSans-52" d="M 2841 2188 
Q 3044 2119 3236 1894 
Q 3428 1669 3622 1275 
L 4263 0 
L 3584 0 
L 2988 1197 
Q 2756 1666 2539 1819 
Q 2322 1972 1947 1972 
L 1259 1972 
L 1259 0 
L 628 0 
L 628 4666 
L 2053 4666 
Q 2853 4666 3247 4331 
Q 3641 3997 3641 3322 
Q 3641 2881 3436 2590 
Q 3231 2300 2841 2188 
z
M 1259 4147 
L 1259 2491 
L 2053 2491 
Q 2509 2491 2742 2702 
Q 2975 2913 2975 3322 
Q 2975 3731 2742 3939 
Q 2509 4147 2053 4147 
L 1259 4147 
z
" transform="scale(0.015625)"/>
     </defs>
     <use xlink:href="#DejaVuSans-57"/>
     <use xlink:href="#DejaVuSans-46" x="98.876953"/>
     <use xlink:href="#DejaVuSans-52" x="156.396484"/>
    </g>
   </g>
   <g id="text_20">
    <!-- Main-L -->
    <g transform="translate(361.832136 55.839184)scale(0.08 -0.08)">
     <defs>
      <path id="DejaVuSans-4d" d="M 628 4666 
L 1569 4666 
L 2759 1491 
L 3956 4666 
L 4897 4666 
L 4897 0 
L 4281 0 
L 4281 4097 
L 3078 897 
L 2444 897 
L 1241 4097 
L 1241 0 
L 628 0 
L 628 4666 
z
" transform="scale(0.015625)"/>
      <path id="DejaVuSans-2d" d="M 313 2009 
L 1997 2009 
L 1997 1497 
L 313 1497 
L 313 2009 
z
" transform="scale(0.015625)"/>
     </defs>
     <use xlink:href="#DejaVuSans-4d"/>
     <use xlink:href="#DejaVuSans-61" x="86.279297"/>
     <use xlink:href="#DejaVuSans-69" x="147.558594"/>
     <use xlink:href="#DejaVuSans-6e" x="175.341797"/>
     <use xlink:href="#DejaVuSans-2d" x="238.720703"/>
     <use xlink:href="#DejaVuSans-4c" x="274.804688"/>
    </g>
   </g>
   <g id="text_21">
    <!-- Main-R -->
    <g transform="translate(361.832136 79.255146)scale(0.08 -0.08)">
     <use xlink:href="#DejaVuSans-4d"/>
     <use xlink:href="#DejaVuSans-61" x="86.279297"/>
     <use xlink:href="#DejaVuSans-69" x="147.558594"/>
     <use xlink:href="#DejaVuSans-6e" x="175.341797"/>
     <use xlink:href="#DejaVuSans-2d" x="238.720703"/>
     <use xlink:href="#DejaVuSans-52" x="274.804688"/>
    </g>
   </g>
   <g id="text_22">
    <!-- AFL -->
    <g transform="translate(361.832136 156.933818)scale(0.08 -0.08)">
     <defs>
      <path id="DejaVuSans-41" d="M 2188 4044 
L 1331 1722 
L 3047 1722 
L 2188 4044 
z
M 1831 4666 
L 2547 4666 
L 4325 0 
L 3669 0 
L 3244 1197 
L 1141 1197 
L 716 0 
L 50 0 
L 1831 4666 
z
" transform="scale(0.015625)"/>
     </defs>
     <use xlink:href="#DejaVuSans-41"/>
     <use xlink:href="#DejaVuSans-46" x="68.408203"/>
     <use xlink:href="#DejaVuSans-4c" x="125.927734"/>
    </g>
   </g>
   <g id="text_23">
    <!-- AFR -->
    <g transform="translate(361.832136 104.199213)scale(0.08 -0.08)">
     <use xlink:href="#DejaVuSans-41"/>
     <use xlink:href="#DejaVuSans-46" x="68.408203"/>
     <use xlink:href="#DejaVuSans-52" x="125.927734"/>
    </g>
   </g>
   <g id="text_24">
    <!-- Nonfinal -->
    <g transform="translate(361.832136 64.303687)scale(0.08 -0.08)">
     <defs>
      <path id="DejaVuSans-4e" d="M 628 4666 
L 1478 4666 
L 3547 763 
L 3547 4666 
L 4159 4666 
L 4159 0 
L 3309 0 
L 1241 3903 
L 1241 0 
L 628 0 
L 628 4666 
z
" transform="scale(0.015625)"/>
      <path id="DejaVuSans-66" d="M 2375 4863 
L 2375 4384 
L 1825 4384 
Q 1516 4384 1395 4259 
Q 1275 4134 1275 3809 
L 1275 3500 
L 2222 3500 
L 2222 3053 
L 1275 3053 
L 1275 0 
L 697 0 
L 697 3053 
L 147 3053 
L 147 3500 
L 697 3500 
L 697 3744 
Q 697 4328 969 4595 
Q 1241 4863 1831 4863 
L 2375 4863 
z
" transform="scale(0.015625)"/>
      <path id="DejaVuSans-6c" d="M 603 4863 
L 1178 4863 
L 1178 0 
L 603 0 
L 603 4863 
z
" transform="scale(0.015625)"/>
     </defs>
     <use xlink:href="#DejaVuSans-4e"/>
     <use xlink:href="#DejaVuSans-6f" x="74.804688"/>
     <use xlink:href="#DejaVuSans-6e" x="135.986328"/>
     <use xlink:href="#DejaVuSans-66" x="199.365234"/>
     <use xlink:href="#DejaVuSans-69" x="234.570312"/>
     <use xlink:href="#DejaVuSans-6e" x="262.353516"/>
     <use xlink:href="#DejaVuSans-61" x="325.732422"/>
     <use xlink:href="#DejaVuSans-6c" x="387.011719"/>
    </g>
   </g>
   <g id="text_25">
    <!-- Trochaic -->
    <g transform="translate(361.832136 53.217435)scale(0.08 -0.08)">
     <defs>
      <path id="DejaVuSans-54" d="M -19 4666 
L 3928 4666 
L 3928 4134 
L 2272 4134 
L 2272 0 
L 1638 0 
L 1638 4134 
L -19 4134 
L -19 4666 
z
" transform="scale(0.015625)"/>
      <path id="DejaVuSans-68" d="M 3513 2113 
L 3513 0 
L 2938 0 
L 2938 2094 
Q 2938 2591 2744 2837 
Q 2550 3084 2163 3084 
Q 1697 3084 1428 2787 
Q 1159 2491 1159 1978 
L 1159 0 
L 581 0 
L 581 4863 
L 1159 4863 
L 1159 2956 
Q 1366 3272 1645 3428 
Q 1925 3584 2291 3584 
Q 2894 3584 3203 3211 
Q 3513 2838 3513 2113 
z
" transform="scale(0.015625)"/>
     </defs>
     <use xlink:href="#DejaVuSans-54"/>
     <use xlink:href="#DejaVuSans-72" x="46.333984"/>
     <use xlink:href="#DejaVuSans-6f" x="85.197266"/>
     <use xlink:href="#DejaVuSans-63" x="146.378906"/>
     <use xlink:href="#DejaVuSans-68" x="201.359375"/>
     <use xlink:href="#DejaVuSans-61" x="264.738281"/>
     <use xlink:href="#DejaVuSans-69" x="326.017578"/>
     <use xlink:href="#DejaVuSans-63" x="353.800781"/>
    </g>
   </g>
  </g>
  <g id="axes_2">
   <g id="patch_7">
    <path d="M 57.6 307.584 
L 414.72 307.584 
L 414.72 186.624 
L 57.6 186.624 
z
" style="fill: #ffffff"/>
   </g>
   <g id="matplotlib.axis_3">
    <g id="xtick_8">
     <g id="line2d_26">
      <g>
       <use xlink:href="#m24b66c5798" x="72.396203" y="307.584" style="stroke: #000000; stroke-width: 0.8"/>
      </g>
     </g>
     <g id="text_26">
      <!-- 0 -->
      <g transform="translate(69.214953 322.182437)scale(0.1 -0.1)">
       <use xlink:href="#DejaVuSans-30"/>
      </g>
     </g>
    </g>
    <g id="xtick_9">
     <g id="line2d_27">
      <g>
       <use xlink:href="#m24b66c5798" x="144.22243" y="307.584" style="stroke: #000000; stroke-width: 0.8"/>
      </g>
     </g>
     <g id="text_27">
      <!-- 50 -->
      <g transform="translate(137.85993 322.182437)scale(0.1 -0.1)">
       <use xlink:href="#DejaVuSans-35"/>
       <use xlink:href="#DejaVuSans-30" x="63.623047"/>
      </g>
     </g>
    </g>
    <g id="xtick_10">
     <g id="line2d_28">
      <g>
       <use xlink:href="#m24b66c5798" x="216.048656" y="307.584" style="stroke: #000000; stroke-width: 0.8"/>
      </g>
     </g>
     <g id="text_28">
      <!-- 100 -->
      <g transform="translate(206.504906 322.182437)scale(0.1 -0.1)">
       <use xlink:href="#DejaVuSans-31"/>
       <use xlink:href="#DejaVuSans-30" x="63.623047"/>
       <use xlink:href="#DejaVuSans-30" x="127.246094"/>
      </g>
     </g>
    </g>
    <g id="xtick_11">
     <g id="line2d_29">
      <g>
       <use xlink:href="#m24b66c5798" x="287.874883" y="307.584" style="stroke: #000000; stroke-width: 0.8"/>
      </g>
     </g>
     <g id="text_29">
      <!-- 150 -->
      <g transform="translate(278.331133 322.182437)scale(0.1 -0.1)">
       <use xlink:href="#DejaVuSans-31"/>
       <use xlink:href="#DejaVuSans-35" x="63.623047"/>
       <use xlink:href="#DejaVuSans-30" x="127.246094"/>
      </g>
     </g>
    </g>
    <g id="xtick_12">
     <g id="line2d_30">
      <g>
       <use xlink:href="#m24b66c5798" x="359.70111" y="307.584" style="stroke: #000000; stroke-width: 0.8"/>
      </g>
     </g>
     <g id="text_30">
      <!-- 200 -->
      <g transform="translate(350.15736 322.182437)scale(0.1 -0.1)">
       <use xlink:href="#DejaVuSans-32"/>
       <use xlink:href="#DejaVuSans-30" x="63.623047"/>
       <use xlink:href="#DejaVuSans-30" x="127.246094"/>
      </g>
     </g>
    </g>
   </g>
   <g id="matplotlib.axis_4">
    <g id="ytick_7">
     <g id="line2d_31">
      <g>
       <use xlink:href="#m2b4edac2de" x="57.6" y="302.10176" style="stroke: #000000; stroke-width: 0.8"/>
      </g>
     </g>
     <g id="text_31">
      <!-- 0 -->
      <g transform="translate(44.2375 305.900978)scale(0.1 -0.1)">
       <use xlink:href="#DejaVuSans-30"/>
      </g>
     </g>
    </g>
    <g id="ytick_8">
     <g id="line2d_32">
      <g>
       <use xlink:href="#m2b4edac2de" x="57.6" y="270.219" style="stroke: #000000; stroke-width: 0.8"/>
      </g>
     </g>
     <g id="text_32">
      <!-- 2000 -->
      <g transform="translate(25.15 274.018219)scale(0.1 -0.1)">
       <use xlink:href="#DejaVuSans-32"/>
       <use xlink:href="#DejaVuSans-30" x="63.623047"/>
       <use xlink:href="#DejaVuSans-30" x="127.246094"/>
       <use xlink:href="#DejaVuSans-30" x="190.869141"/>
      </g>
     </g>
    </g>
    <g id="ytick_9">
     <g id="line2d_33">
      <g>
       <use xlink:href="#m2b4edac2de" x="57.6" y="238.336241" style="stroke: #000000; stroke-width: 0.8"/>
      </g>
     </g>
     <g id="text_33">
      <!-- 4000 -->
      <g transform="translate(25.15 242.13546)scale(0.1 -0.1)">
       <use xlink:href="#DejaVuSans-34"/>
       <use xlink:href="#DejaVuSans-30" x="63.623047"/>
       <use xlink:href="#DejaVuSans-30" x="127.246094"/>
       <use xlink:href="#DejaVuSans-30" x="190.869141"/>
      </g>
     </g>
    </g>
    <g id="ytick_10">
     <g id="line2d_34">
      <g>
       <use xlink:href="#m2b4edac2de" x="57.6" y="206.453482" style="stroke: #000000; stroke-width: 0.8"/>
      </g>
     </g>
     <g id="text_34">
      <!-- 6000 -->
      <g transform="translate(25.15 210.252701)scale(0.1 -0.1)">
       <use xlink:href="#DejaVuSans-36"/>
       <use xlink:href="#DejaVuSans-30" x="63.623047"/>
       <use xlink:href="#DejaVuSans-30" x="127.246094"/>
       <use xlink:href="#DejaVuSans-30" x="190.869141"/>
      </g>
     </g>
    </g>
   </g>
   <g id="line2d_35">
    <path d="M 73.832727 302.085818 
L 92.507546 302.069877 
L 93.944071 301.846697 
L 95.380595 302.069877 
L 102.563218 302.085818 
L 116.928463 302.037994 
L 119.801512 301.958287 
L 121.238037 302.037994 
L 122.674562 301.862639 
L 124.111086 302.037994 
L 125.547611 302.022053 
L 126.984135 301.87858 
L 128.42066 301.543811 
L 129.857184 301.942346 
L 131.293709 302.085818 
L 132.730233 302.085818 
L 134.166758 301.862639 
L 135.603282 302.085818 
L 137.039807 301.87858 
L 138.476331 301.974229 
L 139.912856 301.272808 
L 141.349381 302.069877 
L 144.22243 302.085818 
L 147.095479 301.926404 
L 149.968528 302.085818 
L 162.897249 302.022053 
L 164.333773 302.085818 
L 168.643347 301.846697 
L 170.079871 302.037994 
L 171.516396 301.814815 
L 172.95292 301.958287 
L 174.389445 301.894522 
L 177.262494 302.085818 
L 178.699019 301.464104 
L 180.135543 301.671342 
L 181.572068 301.559753 
L 183.008592 302.053935 
L 184.445117 301.974229 
L 185.881641 302.069877 
L 187.318166 301.623518 
L 188.75469 302.085818 
L 190.191215 301.735108 
L 191.627739 302.006111 
L 193.064264 301.559753 
L 194.500788 302.085818 
L 195.937313 302.069877 
L 197.373837 301.766991 
L 198.810362 301.99017 
L 200.246887 302.069877 
L 201.683411 301.719166 
L 208.866034 302.022053 
L 210.302558 301.63946 
L 211.739083 301.63946 
L 213.175607 301.17716 
L 214.612132 301.87858 
L 216.048656 301.448163 
L 217.485181 301.910463 
L 218.921706 301.288749 
L 220.35823 302.006111 
L 221.794755 301.846697 
L 224.667804 301.814815 
L 226.104328 301.559753 
L 228.977377 301.974229 
L 233.286951 301.974229 
L 234.723475 301.671342 
L 236.16 301.623518 
L 239.033049 301.049629 
L 240.469574 301.99017 
L 241.906098 300.794566 
L 243.342623 301.06557 
L 244.779147 301.87858 
L 246.215672 301.830756 
L 247.652196 301.209042 
L 249.088721 301.575694 
L 250.525245 301.495987 
L 251.96177 301.862639 
L 253.398294 301.703225 
L 254.834819 300.571387 
L 256.271344 300.156911 
L 257.707868 301.41628 
L 259.144393 301.846697 
L 260.580917 301.766991 
L 262.017442 301.368456 
L 264.890491 302.069877 
L 267.76354 301.87858 
L 269.200064 301.033687 
L 270.636589 300.587329 
L 272.073113 301.240925 
L 273.509638 299.838084 
L 274.946163 301.798873 
L 276.382687 293.589063 
L 277.819212 300.300384 
L 279.255736 301.671342 
L 280.692261 301.272808 
L 283.56531 301.480046 
L 285.001834 300.794566 
L 286.438359 302.022053 
L 287.874883 301.17716 
L 289.311408 301.336573 
L 290.747932 299.359842 
L 292.184457 300.619211 
L 293.620981 297.239639 
L 295.057506 300.443856 
L 296.494031 293.477473 
L 297.930555 300.858332 
L 299.36708 296.346922 
L 300.803604 300.156911 
L 302.240129 300.874273 
L 303.676653 288.47188 
L 305.113178 301.272808 
L 306.549702 300.316325 
L 309.422751 295.741149 
L 310.859276 297.925118 
L 312.2958 299.072897 
L 313.732325 300.539504 
L 315.16885 301.288749 
L 316.605374 299.583022 
L 318.041899 300.268501 
L 319.478423 298.945366 
L 320.914948 302.037994 
L 322.351472 299.407666 
L 323.787997 298.658422 
L 325.224521 301.06557 
L 326.661046 296.044035 
L 328.09757 301.766991 
L 329.534095 297.430935 
L 330.970619 301.129335 
L 332.407144 300.061263 
L 333.843669 300.874273 
L 335.280193 291.468859 
L 336.716718 299.32796 
L 338.153242 294.752784 
L 339.589767 301.623518 
L 341.026291 295.581735 
L 342.462816 287.706694 
L 343.89934 301.719166 
L 345.335865 300.188794 
L 346.772389 300.093146 
L 348.208914 299.869966 
L 349.645438 299.949673 
L 351.081963 301.830756 
L 352.518488 299.439549 
L 353.955012 297.542525 
L 355.391537 300.300384 
L 356.828061 294.689018 
L 358.264586 292.760111 
L 359.70111 297.303404 
L 361.137635 299.822142 
L 362.574159 288.519704 
L 364.010684 280.628721 
L 365.447208 297.685997 
L 366.883733 293.955715 
L 368.320257 271.000128 
L 369.756782 300.02938 
L 371.193307 255.505107 
L 372.629831 256.126821 
L 374.066356 301.464104 
L 375.50288 300.507622 
L 376.939405 295.725208 
L 378.375929 291.389152 
L 379.812454 268.003149 
L 381.248978 284.103942 
L 382.685503 237.810176 
L 384.122027 289.268949 
L 385.558552 241.253514 
L 386.995076 291.899277 
L 388.431601 257.912255 
L 389.868126 270.856656 
L 391.30465 233.330648 
L 392.741175 301.623518 
L 394.177699 300.842391 
L 395.614224 254.580507 
L 397.050748 245.015679 
L 398.487273 192.122182 
L 398.487273 192.122182 
" clip-path="url(#p55a44fc7ac)" style="fill: none; stroke: #1f77b4; stroke-width: 1.5; stroke-linecap: square"/>
   </g>
   <g id="patch_8">
    <path d="M 57.6 307.584 
L 57.6 186.624 
" style="fill: none; stroke: #000000; stroke-width: 0.8; stroke-linejoin: miter; stroke-linecap: square"/>
   </g>
   <g id="patch_9">
    <path d="M 414.72 307.584 
L 414.72 186.624 
" style="fill: none; stroke: #000000; stroke-width: 0.8; stroke-linejoin: miter; stroke-linecap: square"/>
   </g>
   <g id="patch_10">
    <path d="M 57.6 307.584 
L 414.72 307.584 
" style="fill: none; stroke: #000000; stroke-width: 0.8; stroke-linejoin: miter; stroke-linecap: square"/>
   </g>
   <g id="patch_11">
    <path d="M 57.6 186.624 
L 414.72 186.624 
" style="fill: none; stroke: #000000; stroke-width: 0.8; stroke-linejoin: miter; stroke-linecap: square"/>
   </g>
  </g>
 </g>
 <defs>
  <clipPath id="p5c33d6f514">
   <rect x="57.6" y="41.472" width="357.12" height="120.96"/>
  </clipPath>
  <clipPath id="p55a44fc7ac">
   <rect x="57.6" y="186.624" width="357.12" height="120.96"/>
  </clipPath>
 </defs>
</svg>
