<?xml version="1.0" encoding="utf-8" standalone="no"?>
<!DOCTYPE svg PUBLIC "-//W3C//DTD SVG 1.1//EN"
  "http://www.w3.org/Graphics/SVG/1.1/DTD/svg11.dtd">
<svg xmlns:xlink="http://www.w3.org/1999/xlink" width="460.8pt" height="345.6pt" viewBox="0 0 460.8 345.6" xmlns="http://www.w3.org/2000/svg" version="1.1">
 <metadata>
  <rdf:RDF xmlns:dc="http://purl.org/dc/elements/1.1/" xmlns:cc="http://creativecommons.org/ns#" xmlns:rdf="http://www.w3.org/1999/02/22-rdf-syntax-ns#">
   <cc:Work>
    <dc:type rdf:resource="http://purl.org/dc/dcmitype/StillImage"/>
    <dc:date>2022-05-13T16:31:40.537068</dc:date>
    <dc:format>image/svg+xml</dc:format>
    <dc:creator>
     <cc:Agent>
      <dc:title>Matplotlib v3.5.1, https://matplotlib.org/</dc:title>
     </cc:Agent>
    </dc:creator>
   </cc:Work>
  </rdf:RDF>
 </metadata>
 <defs>
  <style type="text/css">*{stroke-linejoin: round; stroke-linecap: butt}</style>
 </defs>
 <g id="figure_1">
  <g id="patch_1">
   <path d="M 0 345.6 
L 460.8 345.6 
L 460.8 0 
L 0 0 
z
" style="fill: #ffffff"/>
  </g>
  <g id="axes_1">
   <g id="patch_2">
    <path d="M 57.6 162.432 
L 414.72 162.432 
L 414.72 41.472 
L 57.6 41.472 
z
" style="fill: #ffffff"/>
   </g>
   <g id="matplotlib.axis_1">
    <g id="xtick_1">
     <g id="line2d_1">
      <defs>
       <path id="m7dae75e5ba" d="M 0 0 
L 0 3.5 
" style="stroke: #000000; stroke-width: 0.8"/>
      </defs>
      <g>
       <use xlink:href="#m7dae75e5ba" x="73.827491" y="162.432" style="stroke: #000000; stroke-width: 0.8"/>
      </g>
     </g>
     <g id="text_1">
      <!-- 0 -->
      <g transform="translate(70.646241 177.030437)scale(0.1 -0.1)">
       <defs>
        <path id="DejaVuSans-30" d="M 2034 4250 
Q 1547 4250 1301 3770 
Q 1056 3291 1056 2328 
Q 1056 1369 1301 889 
Q 1547 409 2034 409 
Q 2525 409 2770 889 
Q 3016 1369 3016 2328 
Q 3016 3291 2770 3770 
Q 2525 4250 2034 4250 
z
M 2034 4750 
Q 2819 4750 3233 4129 
Q 3647 3509 3647 2328 
Q 3647 1150 3233 529 
Q 2819 -91 2034 -91 
Q 1250 -91 836 529 
Q 422 1150 422 2328 
Q 422 3509 836 4129 
Q 1250 4750 2034 4750 
z
" transform="scale(0.015625)"/>
       </defs>
       <use xlink:href="#DejaVuSans-30"/>
      </g>
     </g>
    </g>
    <g id="xtick_2">
     <g id="line2d_2">
      <g>
       <use xlink:href="#m7dae75e5ba" x="126.191972" y="162.432" style="stroke: #000000; stroke-width: 0.8"/>
      </g>
     </g>
     <g id="text_2">
      <!-- 10000 -->
      <g transform="translate(110.285722 177.030437)scale(0.1 -0.1)">
       <defs>
        <path id="DejaVuSans-31" d="M 794 531 
L 1825 531 
L 1825 4091 
L 703 3866 
L 703 4441 
L 1819 4666 
L 2450 4666 
L 2450 531 
L 3481 531 
L 3481 0 
L 794 0 
L 794 531 
z
" transform="scale(0.015625)"/>
       </defs>
       <use xlink:href="#DejaVuSans-31"/>
       <use xlink:href="#DejaVuSans-30" x="63.623047"/>
       <use xlink:href="#DejaVuSans-30" x="127.246094"/>
       <use xlink:href="#DejaVuSans-30" x="190.869141"/>
       <use xlink:href="#DejaVuSans-30" x="254.492188"/>
      </g>
     </g>
    </g>
    <g id="xtick_3">
     <g id="line2d_3">
      <g>
       <use xlink:href="#m7dae75e5ba" x="178.556453" y="162.432" style="stroke: #000000; stroke-width: 0.8"/>
      </g>
     </g>
     <g id="text_3">
      <!-- 20000 -->
      <g transform="translate(162.650203 177.030437)scale(0.1 -0.1)">
       <defs>
        <path id="DejaVuSans-32" d="M 1228 531 
L 3431 531 
L 3431 0 
L 469 0 
L 469 531 
Q 828 903 1448 1529 
Q 2069 2156 2228 2338 
Q 2531 2678 2651 2914 
Q 2772 3150 2772 3378 
Q 2772 3750 2511 3984 
Q 2250 4219 1831 4219 
Q 1534 4219 1204 4116 
Q 875 4013 500 3803 
L 500 4441 
Q 881 4594 1212 4672 
Q 1544 4750 1819 4750 
Q 2544 4750 2975 4387 
Q 3406 4025 3406 3419 
Q 3406 3131 3298 2873 
Q 3191 2616 2906 2266 
Q 2828 2175 2409 1742 
Q 1991 1309 1228 531 
z
" transform="scale(0.015625)"/>
       </defs>
       <use xlink:href="#DejaVuSans-32"/>
       <use xlink:href="#DejaVuSans-30" x="63.623047"/>
       <use xlink:href="#DejaVuSans-30" x="127.246094"/>
       <use xlink:href="#DejaVuSans-30" x="190.869141"/>
       <use xlink:href="#DejaVuSans-30" x="254.492188"/>
      </g>
     </g>
    </g>
    <g id="xtick_4">
     <g id="line2d_4">
      <g>
       <use xlink:href="#m7dae75e5ba" x="230.920934" y="162.432" style="stroke: #000000; stroke-width: 0.8"/>
      </g>
     </g>
     <g id="text_4">
      <!-- 30000 -->
      <g transform="translate(215.014684 177.030437)scale(0.1 -0.1)">
       <defs>
        <path id="DejaVuSans-33" d="M 2597 2516 
Q 3050 2419 3304 2112 
Q 3559 1806 3559 1356 
Q 3559 666 3084 287 
Q 2609 -91 1734 -91 
Q 1441 -91 1130 -33 
Q 819 25 488 141 
L 488 750 
Q 750 597 1062 519 
Q 1375 441 1716 441 
Q 2309 441 2620 675 
Q 2931 909 2931 1356 
Q 2931 1769 2642 2001 
Q 2353 2234 1838 2234 
L 1294 2234 
L 1294 2753 
L 1863 2753 
Q 2328 2753 2575 2939 
Q 2822 3125 2822 3475 
Q 2822 3834 2567 4026 
Q 2313 4219 1838 4219 
Q 1578 4219 1281 4162 
Q 984 4106 628 3988 
L 628 4550 
Q 988 4650 1302 4700 
Q 1616 4750 1894 4750 
Q 2613 4750 3031 4423 
Q 3450 4097 3450 3541 
Q 3450 3153 3228 2886 
Q 3006 2619 2597 2516 
z
" transform="scale(0.015625)"/>
       </defs>
       <use xlink:href="#DejaVuSans-33"/>
       <use xlink:href="#DejaVuSans-30" x="63.623047"/>
       <use xlink:href="#DejaVuSans-30" x="127.246094"/>
       <use xlink:href="#DejaVuSans-30" x="190.869141"/>
       <use xlink:href="#DejaVuSans-30" x="254.492188"/>
      </g>
     </g>
    </g>
    <g id="xtick_5">
     <g id="line2d_5">
      <g>
       <use xlink:href="#m7dae75e5ba" x="283.285415" y="162.432" style="stroke: #000000; stroke-width: 0.8"/>
      </g>
     </g>
     <g id="text_5">
      <!-- 40000 -->
      <g transform="translate(267.379165 177.030437)scale(0.1 -0.1)">
       <defs>
        <path id="DejaVuSans-34" d="M 2419 4116 
L 825 1625 
L 2419 1625 
L 2419 4116 
z
M 2253 4666 
L 3047 4666 
L 3047 1625 
L 3713 1625 
L 3713 1100 
L 3047 1100 
L 3047 0 
L 2419 0 
L 2419 1100 
L 313 1100 
L 313 1709 
L 2253 4666 
z
" transform="scale(0.015625)"/>
       </defs>
       <use xlink:href="#DejaVuSans-34"/>
       <use xlink:href="#DejaVuSans-30" x="63.623047"/>
       <use xlink:href="#DejaVuSans-30" x="127.246094"/>
       <use xlink:href="#DejaVuSans-30" x="190.869141"/>
       <use xlink:href="#DejaVuSans-30" x="254.492188"/>
      </g>
     </g>
    </g>
    <g id="xtick_6">
     <g id="line2d_6">
      <g>
       <use xlink:href="#m7dae75e5ba" x="335.649896" y="162.432" style="stroke: #000000; stroke-width: 0.8"/>
      </g>
     </g>
     <g id="text_6">
      <!-- 50000 -->
      <g transform="translate(319.743646 177.030437)scale(0.1 -0.1)">
       <defs>
        <path id="DejaVuSans-35" d="M 691 4666 
L 3169 4666 
L 3169 4134 
L 1269 4134 
L 1269 2991 
Q 1406 3038 1543 3061 
Q 1681 3084 1819 3084 
Q 2600 3084 3056 2656 
Q 3513 2228 3513 1497 
Q 3513 744 3044 326 
Q 2575 -91 1722 -91 
Q 1428 -91 1123 -41 
Q 819 9 494 109 
L 494 744 
Q 775 591 1075 516 
Q 1375 441 1709 441 
Q 2250 441 2565 725 
Q 2881 1009 2881 1497 
Q 2881 1984 2565 2268 
Q 2250 2553 1709 2553 
Q 1456 2553 1204 2497 
Q 953 2441 691 2322 
L 691 4666 
z
" transform="scale(0.015625)"/>
       </defs>
       <use xlink:href="#DejaVuSans-35"/>
       <use xlink:href="#DejaVuSans-30" x="63.623047"/>
       <use xlink:href="#DejaVuSans-30" x="127.246094"/>
       <use xlink:href="#DejaVuSans-30" x="190.869141"/>
       <use xlink:href="#DejaVuSans-30" x="254.492188"/>
      </g>
     </g>
    </g>
    <g id="xtick_7">
     <g id="line2d_7">
      <g>
       <use xlink:href="#m7dae75e5ba" x="388.014377" y="162.432" style="stroke: #000000; stroke-width: 0.8"/>
      </g>
     </g>
     <g id="text_7">
      <!-- 60000 -->
      <g transform="translate(372.108127 177.030437)scale(0.1 -0.1)">
       <defs>
        <path id="DejaVuSans-36" d="M 2113 2584 
Q 1688 2584 1439 2293 
Q 1191 2003 1191 1497 
Q 1191 994 1439 701 
Q 1688 409 2113 409 
Q 2538 409 2786 701 
Q 3034 994 3034 1497 
Q 3034 2003 2786 2293 
Q 2538 2584 2113 2584 
z
M 3366 4563 
L 3366 3988 
Q 3128 4100 2886 4159 
Q 2644 4219 2406 4219 
Q 1781 4219 1451 3797 
Q 1122 3375 1075 2522 
Q 1259 2794 1537 2939 
Q 1816 3084 2150 3084 
Q 2853 3084 3261 2657 
Q 3669 2231 3669 1497 
Q 3669 778 3244 343 
Q 2819 -91 2113 -91 
Q 1303 -91 875 529 
Q 447 1150 447 2328 
Q 447 3434 972 4092 
Q 1497 4750 2381 4750 
Q 2619 4750 2861 4703 
Q 3103 4656 3366 4563 
z
" transform="scale(0.015625)"/>
       </defs>
       <use xlink:href="#DejaVuSans-36"/>
       <use xlink:href="#DejaVuSans-30" x="63.623047"/>
       <use xlink:href="#DejaVuSans-30" x="127.246094"/>
       <use xlink:href="#DejaVuSans-30" x="190.869141"/>
       <use xlink:href="#DejaVuSans-30" x="254.492188"/>
      </g>
     </g>
    </g>
   </g>
   <g id="matplotlib.axis_2">
    <g id="ytick_1">
     <g id="line2d_8">
      <defs>
       <path id="m640589403a" d="M 0 0 
L -3.5 0 
" style="stroke: #000000; stroke-width: 0.8"/>
      </defs>
      <g>
       <use xlink:href="#m640589403a" x="57.6" y="141.268323" style="stroke: #000000; stroke-width: 0.8"/>
      </g>
     </g>
     <g id="text_8">
      <!-- −50 -->
      <g transform="translate(29.495313 145.067542)scale(0.1 -0.1)">
       <defs>
        <path id="DejaVuSans-2212" d="M 678 2272 
L 4684 2272 
L 4684 1741 
L 678 1741 
L 678 2272 
z
" transform="scale(0.015625)"/>
       </defs>
       <use xlink:href="#DejaVuSans-2212"/>
       <use xlink:href="#DejaVuSans-35" x="83.789062"/>
       <use xlink:href="#DejaVuSans-30" x="147.412109"/>
      </g>
     </g>
    </g>
    <g id="ytick_2">
     <g id="line2d_9">
      <g>
       <use xlink:href="#m640589403a" x="57.6" y="110.751125" style="stroke: #000000; stroke-width: 0.8"/>
      </g>
     </g>
     <g id="text_9">
      <!-- 0 -->
      <g transform="translate(44.2375 114.550344)scale(0.1 -0.1)">
       <use xlink:href="#DejaVuSans-30"/>
      </g>
     </g>
    </g>
    <g id="ytick_3">
     <g id="line2d_10">
      <g>
       <use xlink:href="#m640589403a" x="57.6" y="80.233928" style="stroke: #000000; stroke-width: 0.8"/>
      </g>
     </g>
     <g id="text_10">
      <!-- 50 -->
      <g transform="translate(37.875 84.033146)scale(0.1 -0.1)">
       <use xlink:href="#DejaVuSans-35"/>
       <use xlink:href="#DejaVuSans-30" x="63.623047"/>
      </g>
     </g>
    </g>
    <g id="ytick_4">
     <g id="line2d_11">
      <g>
       <use xlink:href="#m640589403a" x="57.6" y="49.71673" style="stroke: #000000; stroke-width: 0.8"/>
      </g>
     </g>
     <g id="text_11">
      <!-- 100 -->
      <g transform="translate(31.5125 53.515948)scale(0.1 -0.1)">
       <use xlink:href="#DejaVuSans-31"/>
       <use xlink:href="#DejaVuSans-30" x="63.623047"/>
       <use xlink:href="#DejaVuSans-30" x="127.246094"/>
      </g>
     </g>
    </g>
   </g>
   <g id="line2d_12">
    <path d="M 73.832727 50.327074 
L 73.8432 50.327074 
L 73.848437 50.937418 
L 73.890328 49.920178 
L 73.953166 50.22535 
L 73.995057 50.22535 
L 74.016003 50.835694 
L 74.063131 49.513282 
L 74.110259 50.73397 
L 74.115495 50.73397 
L 74.220224 51.954657 
L 74.230697 51.649485 
L 74.235934 51.649485 
L 74.272589 50.428798 
L 74.345899 51.649485 
L 74.377318 51.649485 
L 74.408737 53.175345 
L 74.49252 52.666725 
L 74.607722 52.158105 
L 74.633904 52.158105 
L 74.749106 52.768449 
L 74.869544 52.259829 
L 74.87478 52.259829 
L 74.989982 52.056381 
L 75.016165 52.056381 
L 75.131366 51.598623 
L 75.147076 51.598623 
L 75.262278 51.090004 
L 75.356534 51.090004 
L 75.372243 50.784832 
L 75.377479 51.395176 
L 75.461263 51.395176 
L 75.497918 51.395176 
L 75.618356 52.615863 
L 75.644538 52.615863 
L 75.75974 52.310691 
L 75.812105 52.310691 
L 75.937779 54.141723 
L 76.016326 54.141723 
L 76.136764 53.531379 
L 76.346222 53.531379 
L 76.39335 54.141723 
L 76.456188 53.836551 
L 76.529498 53.836551 
L 76.6447 53.531379 
L 76.712774 53.531379 
L 76.754665 53.226207 
L 76.759902 53.836551 
L 76.817503 53.836551 
L 76.848921 53.836551 
L 76.964123 53.531379 
L 77.377803 53.531379 
L 77.493004 53.226207 
L 77.503477 53.226207 
L 77.561078 53.836551 
L 77.613443 53.531379 
L 77.644861 53.531379 
L 77.760063 53.226207 
L 78.23658 53.226207 
L 78.315127 52.615863 
L 78.346546 53.226207 
L 78.388437 53.226207 
L 78.477457 53.836551 
L 78.498403 53.531379 
L 78.844008 53.531379 
L 78.896373 54.141723 
L 78.953974 53.836551 
L 78.990629 53.836551 
L 79.105831 53.531379 
L 79.619002 53.531379 
L 79.734204 53.378793 
L 79.943662 53.378793 
L 80.064101 52.768449 
L 80.090283 52.768449 
L 80.205485 53.378793 
L 80.409706 53.378793 
L 80.524908 53.073621 
L 80.970006 53.073621 
L 81.085208 53.683965 
L 81.676927 53.683965 
L 81.792128 54.294309 
L 82.006823 54.294309 
L 82.101079 54.904653 
L 82.116788 54.599481 
L 82.326246 54.599481 
L 82.441448 54.294309 
L 82.813236 54.294309 
L 82.8656 53.989137 
L 82.870837 54.599481 
L 82.917965 54.599481 
L 84.766431 54.599481 
L 84.881633 54.294309 
L 85.01778 54.294309 
L 85.064908 54.904653 
L 85.127746 54.599481 
L 85.614735 54.599481 
L 85.729937 55.209825 
L 86.070306 55.209825 
L 86.190745 54.446895 
L 86.305947 54.446895 
L 86.421148 55.057239 
L 86.908138 55.057239 
L 87.02334 54.752067 
L 87.457965 54.752067 
L 87.573167 54.446895 
L 87.814044 54.446895 
L 87.840226 55.057239 
L 87.924009 54.752067 
L 88.060157 54.752067 
L 88.175359 55.362411 
L 89.646801 55.362411 
L 89.762002 55.972755 
L 90.343248 55.972755 
L 90.45845 55.667583 
L 90.715036 55.667583 
L 90.830238 55.362411 
L 91.516212 55.362411 
L 91.631414 55.972755 
L 92.558266 55.972755 
L 92.673468 55.667583 
L 92.851507 55.667583 
L 92.966709 56.277927 
L 92.982418 56.277927 
L 93.09762 55.972755 
L 93.270423 55.972755 
L 93.385624 55.667583 
L 94.349131 55.667583 
L 94.469569 55.057239 
L 94.558589 55.057239 
L 94.673791 54.752067 
L 94.726155 54.752067 
L 94.820411 55.362411 
L 94.836121 55.209825 
L 95.139835 55.209825 
L 95.255036 55.820169 
L 96.218543 55.820169 
L 96.333745 56.430513 
L 97.773768 56.430513 
L 97.88897 56.125341 
L 100.564795 56.125341 
L 100.679997 56.735685 
L 101.355498 56.735685 
L 101.392154 57.346029 
L 101.465464 57.040857 
L 102.748394 57.040857 
L 102.863596 56.735685 
L 103.209201 56.735685 
L 103.324403 56.430513 
L 103.607171 56.430513 
L 103.722373 56.125341 
L 104.701589 56.125341 
L 104.816791 55.820169 
L 104.926756 55.820169 
L 105.041958 55.514997 
L 105.769824 55.514997 
L 105.885026 55.209825 
L 106.209686 55.209825 
L 106.324888 55.820169 
L 107.565926 55.820169 
L 107.686364 57.040857 
L 108.005788 57.040857 
L 108.126226 56.430513 
L 108.42994 56.430513 
L 108.550378 57.651201 
L 110.215569 57.651201 
L 110.33077 57.346029 
L 112.802374 57.346029 
L 112.917576 57.040857 
L 115.410125 57.040857 
L 115.525327 56.735685 
L 115.834277 56.735685 
L 115.949479 56.430513 
L 116.56738 56.430513 
L 116.682582 57.040857 
L 117.091025 57.040857 
L 117.206227 57.651201 
L 117.352847 57.651201 
L 117.468049 57.346029 
L 119.018038 57.346029 
L 119.023274 57.040857 
L 119.028511 57.651201 
L 119.122767 57.651201 
L 119.36888 57.651201 
L 119.484082 57.346029 
L 119.772086 57.346029 
L 119.887288 57.956373 
L 120.389987 57.956373 
L 120.505189 57.651201 
L 121.37444 57.651201 
L 121.500114 57.193443 
L 126.066297 57.193443 
L 126.181499 56.888271 
L 129.899377 56.888271 
L 130.014579 56.583099 
L 130.7791 56.583099 
L 130.894302 57.193443 
L 132.276724 57.193443 
L 132.391926 56.888271 
L 133.884314 56.888271 
L 133.999516 57.498615 
L 134.517924 57.498615 
L 134.633126 57.193443 
L 135.863691 57.193443 
L 135.889874 56.888271 
L 135.89511 57.498615 
L 135.96842 57.498615 
L 139.843392 57.498615 
L 139.958594 57.193443 
L 149.630313 57.193443 
L 149.745515 56.888271 
L 163.899635 56.888271 
L 164.014836 57.498615 
L 166.936774 57.498615 
L 167.051976 57.193443 
L 167.203833 57.193443 
L 167.319035 57.803787 
L 171.434883 57.803787 
L 171.550085 57.498615 
L 174.466787 57.498615 
L 174.581989 57.193443 
L 185.662313 57.193443 
L 185.777515 57.803787 
L 192.244528 57.803787 
L 192.35973 57.498615 
L 193.08236 57.498615 
L 193.197562 57.193443 
L 193.909719 57.193443 
L 194.02492 57.803787 
L 200.162038 57.803787 
L 200.277239 58.414131 
L 200.340077 58.414131 
L 200.455279 58.108959 
L 202.675533 58.108959 
L 202.790735 57.803787 
L 212.268706 57.803787 
L 212.383907 58.414131 
L 214.88693 58.414131 
L 215.002131 58.108959 
L 215.075442 58.108959 
L 215.190644 58.719303 
L 215.693343 58.719303 
L 215.808544 58.414131 
L 219.971521 58.414131 
L 220.086723 58.108959 
L 223.521833 58.108959 
L 223.637034 57.803787 
L 226.129584 57.803787 
L 226.244786 58.414131 
L 228.554059 58.414131 
L 228.669261 59.024475 
L 230.392052 59.024475 
L 230.507254 58.719303 
L 231.790184 58.719303 
L 231.905386 59.329647 
L 233.921418 59.329647 
L 234.03662 59.024475 
L 234.371753 59.024475 
L 234.486955 58.719303 
L 234.84827 58.719303 
L 234.963472 59.329647 
L 236.681027 59.329647 
L 236.796228 59.024475 
L 240.419851 59.024475 
L 240.535052 58.719303 
L 240.817821 58.719303 
L 240.933022 59.329647 
L 242.231662 59.329647 
L 242.346863 59.024475 
L 242.420174 59.024475 
L 242.535376 59.634819 
L 248.159321 59.634819 
L 248.274523 59.329647 
L 248.934315 59.329647 
L 249.049517 59.939991 
L 252.447972 59.939991 
L 252.563174 59.634819 
L 256.160613 59.634819 
L 256.275815 59.329647 
L 263.695862 59.329647 
L 263.811064 59.024475 
L 264.816462 59.024475 
L 264.931664 59.634819 
L 273.084814 59.634819 
L 273.200016 59.329647 
L 274.776186 59.329647 
L 274.891388 59.939991 
L 279.687975 59.939991 
L 279.803177 59.634819 
L 283.123085 59.634819 
L 283.133558 59.329647 
L 283.138794 59.939991 
L 283.227814 59.939991 
L 284.243685 59.939991 
L 284.358886 59.634819 
L 287.076603 59.634819 
L 287.191805 59.329647 
L 290.909683 59.329647 
L 291.024885 59.939991 
L 291.569476 59.939991 
L 291.684677 59.634819 
L 292.286869 59.634819 
L 292.292105 60.245163 
L 292.396834 59.939991 
L 295.847654 59.939991 
L 295.962855 59.634819 
L 296.476027 59.634819 
L 296.591229 60.245163 
L 298.073144 60.245163 
L 298.188346 60.855507 
L 298.895266 60.855507 
L 299.010468 60.550335 
L 303.398612 60.550335 
L 303.513814 60.245163 
L 303.597597 60.245163 
L 303.712799 59.939991 
L 304.885763 59.939991 
L 305.000965 60.550335 
L 305.36228 60.550335 
L 305.477482 60.245163 
L 309.127286 60.245163 
L 309.242488 60.855507 
L 316.578752 60.855507 
L 316.693953 60.550335 
L 319.600182 60.550335 
L 319.715384 60.245163 
L 324.223966 60.245163 
L 324.339168 59.939991 
L 329.476123 59.939991 
L 329.591325 60.550335 
L 329.685581 60.550335 
L 329.727473 61.160679 
L 329.795547 60.855507 
L 329.842675 60.855507 
L 329.957877 60.550335 
L 331.403136 60.550335 
L 331.476446 61.160679 
L 331.513102 60.855507 
L 332.816977 60.855507 
L 332.932179 60.550335 
L 333.434878 60.550335 
L 333.55008 61.160679 
L 333.843321 61.160679 
L 333.958523 60.855507 
L 336.068811 60.855507 
L 336.184013 60.550335 
L 337.215594 60.550335 
L 337.330795 60.245163 
L 341.509481 60.245163 
L 341.624683 60.855507 
L 342.918086 60.855507 
L 343.033287 61.465851 
L 343.740208 61.465851 
L 343.85541 61.160679 
L 353.343854 61.160679 
L 353.459056 60.855507 
L 353.925099 60.855507 
L 354.040301 60.550335 
L 354.155503 60.550335 
L 354.270705 61.160679 
L 357.349736 61.160679 
L 357.464938 61.771023 
L 360.790083 61.771023 
L 360.905285 61.465851 
L 364.879749 61.465851 
L 364.994951 61.160679 
L 366.644432 61.160679 
L 366.759634 61.771023 
L 368.482425 61.771023 
L 368.597627 61.465851 
L 368.702356 61.465851 
L 368.775666 61.160679 
L 368.780903 61.771023 
L 368.807085 61.771023 
L 372.446416 61.771023 
L 372.561618 61.465851 
L 377.798066 61.465851 
L 377.913268 62.076195 
L 379.185725 62.076195 
L 379.306163 61.465851 
L 387.082289 61.465851 
L 387.197491 62.076195 
L 393.716869 62.076195 
L 393.837307 61.465851 
L 398.487273 61.465851 
L 398.487273 61.465851 
" clip-path="url(#p8ac72afbbf)" style="fill: none; stroke: #1f77b4; stroke-width: 1.5; stroke-linecap: square"/>
   </g>
   <g id="line2d_13">
    <path d="M 73.832727 50.327074 
L 73.963638 52.768449 
L 73.974111 52.768449 
L 74.099786 55.006377 
L 74.115495 55.006377 
L 74.173096 55.921893 
L 74.225461 55.311549 
L 74.235934 55.311549 
L 74.272589 54.090861 
L 74.356372 54.701205 
L 74.377318 54.701205 
L 74.502993 56.684823 
L 74.633904 56.684823 
L 74.749106 57.295167 
L 74.827652 57.295167 
L 74.942854 56.989995 
L 75.016165 56.989995 
L 75.131366 56.532237 
L 75.147076 56.532237 
L 75.262278 56.227065 
L 75.309406 56.227065 
L 75.356534 56.837409 
L 75.419371 56.532237 
L 75.456026 56.532237 
L 75.576464 57.752925 
L 75.586937 57.752925 
L 75.644538 58.363269 
L 75.696903 58.058097 
L 75.812105 58.058097 
L 75.932543 59.278785 
L 76.016326 59.278785 
L 76.136764 58.668441 
L 76.39335 58.668441 
L 76.508552 58.363269 
L 76.529498 58.363269 
L 76.6447 58.058097 
L 76.712774 58.058097 
L 76.827976 57.752925 
L 76.848921 57.752925 
L 76.885577 57.447753 
L 76.916995 59.278785 
L 76.932705 59.278785 
L 76.96936 59.278785 
L 77.089798 58.058097 
L 77.157872 58.058097 
L 77.273074 58.668441 
L 77.377803 58.668441 
L 77.503477 57.752925 
L 77.561078 58.363269 
L 77.613443 58.058097 
L 77.644861 58.058097 
L 77.760063 57.752925 
L 77.948575 57.752925 
L 78.063777 58.363269 
L 78.110905 58.363269 
L 78.226107 58.973613 
L 78.23658 58.973613 
L 78.315127 58.363269 
L 78.346546 58.973613 
L 78.388437 58.973613 
L 78.477457 59.583957 
L 78.498403 59.278785 
L 78.844008 59.278785 
L 78.896373 59.889129 
L 78.953974 59.583957 
L 78.990629 59.583957 
L 79.105831 59.278785 
L 79.142486 59.278785 
L 79.257687 59.889129 
L 79.943662 59.889129 
L 80.064101 59.278785 
L 80.336396 59.278785 
L 80.341632 59.889129 
L 80.414943 58.973613 
L 80.441125 58.973613 
L 80.854804 58.973613 
L 80.975242 60.194301 
L 81.127099 60.194301 
L 81.242301 59.583957 
L 82.006823 59.583957 
L 82.101079 60.194301 
L 82.116788 59.889129 
L 82.132498 59.889129 
L 82.247699 60.499473 
L 82.326246 60.499473 
L 82.441448 60.194301 
L 82.446684 60.194301 
L 82.561886 59.583957 
L 82.813236 59.583957 
L 82.855127 59.278785 
L 82.870837 60.499473 
L 82.907492 60.499473 
L 84.666938 60.499473 
L 84.78214 59.583957 
L 85.01778 59.583957 
L 85.059672 60.194301 
L 85.127746 59.787405 
L 85.19582 59.787405 
L 85.311021 60.397749 
L 85.614735 60.397749 
L 85.729937 61.008093 
L 85.97605 61.008093 
L 86.091252 60.092577 
L 86.096489 60.092577 
L 86.211691 59.787405 
L 86.305947 59.787405 
L 86.421148 60.397749 
L 86.908138 60.397749 
L 87.02334 60.092577 
L 87.075705 60.092577 
L 87.190906 60.702921 
L 87.437019 60.702921 
L 87.457965 61.313265 
L 87.546985 61.008093 
L 87.641241 61.008093 
L 87.756443 61.618437 
L 87.814044 61.618437 
L 87.840226 62.228781 
L 87.924009 61.923609 
L 88.060157 61.923609 
L 88.175359 62.533953 
L 89.646801 62.533953 
L 89.762002 63.144297 
L 90.343248 63.144297 
L 90.45845 62.839125 
L 90.715036 62.839125 
L 90.830238 62.533953 
L 91.013513 62.533953 
L 91.128715 61.923609 
L 91.516212 61.923609 
L 91.631414 62.533953 
L 92.558266 62.533953 
L 92.673468 62.228781 
L 92.851507 62.228781 
L 92.966709 62.839125 
L 92.982418 62.839125 
L 93.09762 62.533953 
L 93.270423 62.533953 
L 93.385624 62.228781 
L 93.877851 62.228781 
L 93.993052 62.839125 
L 94.349131 62.839125 
L 94.469569 62.228781 
L 94.558589 62.228781 
L 94.579535 61.923609 
L 94.584771 62.533953 
L 94.663318 62.533953 
L 94.726155 62.533953 
L 94.841357 63.144297 
L 95.139835 63.144297 
L 95.255036 63.754641 
L 97.773768 63.754641 
L 97.88897 63.449469 
L 100.564795 63.449469 
L 100.679997 64.059813 
L 101.392154 64.059813 
L 101.507355 63.754641 
L 102.716975 63.754641 
L 102.832177 64.670157 
L 103.209201 64.670157 
L 103.324403 64.364985 
L 103.607171 64.364985 
L 103.722373 64.059813 
L 104.701589 64.059813 
L 104.816791 63.754641 
L 104.926756 63.754641 
L 105.041958 63.449469 
L 105.70175 63.449469 
L 105.769824 64.059813 
L 105.811716 63.754641 
L 106.722858 63.754641 
L 106.83806 63.144297 
L 107.424542 63.144297 
L 107.539744 62.533953 
L 107.565926 62.533953 
L 107.681128 63.144297 
L 108.005788 63.144297 
L 108.115753 62.533953 
L 108.230955 63.144297 
L 108.42994 63.144297 
L 108.550378 64.364985 
L 110.215569 64.364985 
L 110.33077 64.059813 
L 112.802374 64.059813 
L 112.917576 63.754641 
L 113.163689 63.754641 
L 113.278891 63.144297 
L 113.713516 63.144297 
L 113.828718 63.754641 
L 115.074992 63.754641 
L 115.190194 64.364985 
L 115.410125 64.364985 
L 115.525327 64.059813 
L 115.666711 64.059813 
L 115.781913 64.670157 
L 115.834277 64.670157 
L 115.949479 64.364985 
L 116.56738 64.364985 
L 116.682582 64.975329 
L 117.091025 64.975329 
L 117.206227 65.585673 
L 117.352847 65.585673 
L 117.468049 65.280501 
L 119.018038 65.280501 
L 119.023274 64.975329 
L 119.028511 65.585673 
L 119.122767 65.585673 
L 119.321752 65.585673 
L 119.436954 64.670157 
L 119.740668 64.670157 
L 119.861106 65.890845 
L 120.389987 65.890845 
L 120.505189 65.585673 
L 121.463459 65.585673 
L 121.578661 65.280501 
L 126.066297 65.280501 
L 126.181499 64.975329 
L 126.998385 64.975329 
L 127.113587 65.585673 
L 127.584867 65.585673 
L 127.700069 66.196016 
L 129.899377 66.196016 
L 130.014579 65.890845 
L 130.7791 65.890845 
L 130.894302 66.501188 
L 131.763553 66.501188 
L 131.878754 65.890845 
L 132.276724 65.890845 
L 132.391926 65.585673 
L 133.884314 65.585673 
L 133.999516 66.196016 
L 134.517924 66.196016 
L 134.633126 65.890845 
L 135.863691 65.890845 
L 135.889874 65.585673 
L 135.89511 66.196016 
L 135.96842 66.196016 
L 137.366552 66.196016 
L 137.481754 66.80636 
L 139.843392 66.80636 
L 139.958594 66.501188 
L 149.441801 66.501188 
L 149.557003 67.111532 
L 149.630313 67.111532 
L 149.745515 66.80636 
L 158.547985 66.80636 
L 158.663186 67.416704 
L 163.899635 67.416704 
L 164.014836 68.027048 
L 166.936774 68.027048 
L 167.051976 67.721876 
L 171.434883 67.721876 
L 171.550085 67.416704 
L 174.466787 67.416704 
L 174.581989 67.111532 
L 175.702589 67.111532 
L 175.81779 67.721876 
L 182.562336 67.721876 
L 182.677537 68.33222 
L 185.662313 68.33222 
L 185.777515 68.942564 
L 192.244528 68.942564 
L 192.35973 68.637392 
L 193.08236 68.637392 
L 193.197562 68.33222 
L 193.909719 68.33222 
L 194.02492 68.942564 
L 200.162038 68.942564 
L 200.277239 69.552908 
L 200.340077 69.552908 
L 200.455279 69.247736 
L 202.675533 69.247736 
L 202.790735 68.942564 
L 212.268706 68.942564 
L 212.383907 69.552908 
L 214.88693 69.552908 
L 215.002131 69.247736 
L 215.075442 69.247736 
L 215.190644 69.85808 
L 215.693343 69.85808 
L 215.808544 69.552908 
L 219.971521 69.552908 
L 220.097195 68.637392 
L 220.191452 68.637392 
L 220.306653 68.027048 
L 223.521833 68.027048 
L 223.637034 67.721876 
L 226.129584 67.721876 
L 226.244786 68.33222 
L 228.554059 68.33222 
L 228.669261 68.942564 
L 230.208777 68.942564 
L 230.323979 68.33222 
L 230.392052 68.33222 
L 230.507254 68.027048 
L 231.790184 68.027048 
L 231.905386 68.637392 
L 232.811291 68.637392 
L 232.926493 69.247736 
L 233.921418 69.247736 
L 234.03662 68.942564 
L 234.371753 68.942564 
L 234.486955 68.637392 
L 234.780196 68.637392 
L 234.84827 68.027048 
L 234.890161 68.637392 
L 236.681027 68.637392 
L 236.796228 68.33222 
L 237.356528 68.33222 
L 237.47173 67.721876 
L 240.419851 67.721876 
L 240.535052 67.416704 
L 240.817821 67.416704 
L 240.933022 68.027048 
L 242.231662 68.027048 
L 242.346863 67.721876 
L 242.420174 67.721876 
L 242.535376 68.33222 
L 242.697705 68.33222 
L 242.812907 68.942564 
L 245.22691 68.942564 
L 245.342112 68.33222 
L 247.405272 68.33222 
L 247.520474 67.721876 
L 248.159321 67.721876 
L 248.274523 67.416704 
L 248.625365 67.416704 
L 248.740567 68.027048 
L 248.934315 68.027048 
L 249.049517 68.637392 
L 252.447972 68.637392 
L 252.563174 68.33222 
L 256.160613 68.33222 
L 256.275815 68.027048 
L 258.459414 68.027048 
L 258.574616 68.637392 
L 263.695862 68.637392 
L 263.821537 67.721876 
L 264.811226 67.721876 
L 264.931664 68.942564 
L 273.084814 68.942564 
L 273.200016 68.637392 
L 274.776186 68.637392 
L 274.891388 69.247736 
L 277.886637 69.247736 
L 278.001839 68.637392 
L 278.20606 68.637392 
L 278.321262 69.247736 
L 279.687975 69.247736 
L 279.803177 68.942564 
L 283.123085 68.942564 
L 283.133558 68.637392 
L 283.138794 69.247736 
L 283.227814 69.247736 
L 284.243685 69.247736 
L 284.358886 68.942564 
L 287.076603 68.942564 
L 287.191805 68.637392 
L 288.783685 68.637392 
L 288.898887 69.247736 
L 290.909683 69.247736 
L 291.024885 69.85808 
L 291.569476 69.85808 
L 291.684677 69.552908 
L 292.286869 69.552908 
L 292.292105 70.163252 
L 292.396834 69.85808 
L 295.847654 69.85808 
L 295.962855 69.552908 
L 296.476027 69.552908 
L 296.591229 70.163252 
L 296.758796 70.163252 
L 296.873997 69.552908 
L 298.073144 69.552908 
L 298.188346 70.163252 
L 298.895266 70.163252 
L 299.010468 69.85808 
L 303.398612 69.85808 
L 303.513814 69.552908 
L 303.597597 69.552908 
L 303.712799 69.247736 
L 304.885763 69.247736 
L 305.000965 69.85808 
L 305.36228 69.85808 
L 305.477482 69.552908 
L 305.859742 69.552908 
L 305.974944 70.163252 
L 309.127286 70.163252 
L 309.242488 70.773596 
L 316.578752 70.773596 
L 316.693953 70.468424 
L 319.17603 70.468424 
L 319.291232 69.85808 
L 319.600182 69.85808 
L 319.715384 69.552908 
L 323.616538 69.552908 
L 323.73174 70.163252 
L 324.223966 70.163252 
L 324.339168 69.85808 
L 329.476123 69.85808 
L 329.591325 70.468424 
L 329.685581 70.468424 
L 329.727473 71.078768 
L 329.795547 70.773596 
L 329.842675 70.773596 
L 329.957877 70.468424 
L 330.219699 70.468424 
L 330.334901 69.85808 
L 331.403136 69.85808 
L 331.476446 70.468424 
L 331.513102 70.163252 
L 332.816977 70.163252 
L 332.932179 69.85808 
L 333.434878 69.85808 
L 333.55008 70.468424 
L 333.843321 70.468424 
L 333.958523 70.163252 
L 336.068811 70.163252 
L 336.184013 69.85808 
L 337.215594 69.85808 
L 337.330795 69.552908 
L 340.278916 69.552908 
L 340.394118 68.942564 
L 341.263368 68.942564 
L 341.37857 69.552908 
L 341.509481 69.552908 
L 341.593264 70.163252 
L 341.619446 69.552908 
L 342.918086 69.552908 
L 343.033287 70.163252 
L 343.740208 70.163252 
L 343.85541 69.85808 
L 346.824476 69.85808 
L 346.939678 70.468424 
L 351.898594 70.468424 
L 352.013796 69.85808 
L 352.165653 69.85808 
L 352.280855 70.468424 
L 353.343854 70.468424 
L 353.459056 70.163252 
L 353.925099 70.163252 
L 354.040301 69.85808 
L 354.155503 69.85808 
L 354.270705 70.468424 
L 357.349736 70.468424 
L 357.464938 71.078768 
L 360.790083 71.078768 
L 360.905285 70.773596 
L 361.03096 70.773596 
L 361.146161 70.163252 
L 361.235181 70.163252 
L 361.350383 70.773596 
L 364.879749 70.773596 
L 364.994951 70.468424 
L 366.644432 70.468424 
L 366.759634 71.078768 
L 368.482425 71.078768 
L 368.597627 70.773596 
L 368.702356 70.773596 
L 368.775666 70.468424 
L 368.780903 71.078768 
L 368.807085 71.078768 
L 372.446416 71.078768 
L 372.561618 70.773596 
L 374.876128 70.773596 
L 374.99133 71.38394 
L 375.127478 71.38394 
L 375.24268 70.773596 
L 377.798066 70.773596 
L 377.913268 71.38394 
L 379.185725 71.38394 
L 379.306163 70.773596 
L 382.264757 70.773596 
L 382.379958 71.38394 
L 387.082289 71.38394 
L 387.197491 71.994284 
L 393.716869 71.994284 
L 393.837307 71.38394 
L 398.487273 71.38394 
L 398.487273 71.38394 
" clip-path="url(#p8ac72afbbf)" style="fill: none; stroke: #ff7f0e; stroke-width: 1.5; stroke-linecap: square"/>
   </g>
   <g id="line2d_14">
    <path d="M 73.832727 49.513282 
L 73.953166 49.106386 
L 74.016003 49.106386 
L 74.136441 48.69949 
L 74.204515 48.69949 
L 74.340663 51.751209 
L 74.408737 51.751209 
L 74.482047 53.582241 
L 74.523938 52.565001 
L 74.670559 52.565001 
L 74.749106 53.175345 
L 74.780524 52.971897 
L 74.827652 52.971897 
L 74.87478 53.582241 
L 74.937618 53.378793 
L 75.016165 53.378793 
L 75.136603 54.599481 
L 75.147076 54.599481 
L 75.188967 55.209825 
L 75.257041 55.006377 
L 75.309406 55.006377 
L 75.356534 54.396033 
L 75.377479 55.616721 
L 75.419371 55.006377 
L 75.456026 55.006377 
L 75.571228 54.243447 
L 75.586937 54.243447 
L 75.649775 54.701205 
L 75.702139 54.090861 
L 75.99538 54.090861 
L 76.115819 55.311549 
L 76.39335 55.311549 
L 76.48237 55.921893 
L 76.503316 55.311549 
L 76.529498 55.311549 
L 76.6447 55.921893 
L 76.712774 55.921893 
L 76.728483 56.532237 
L 76.822739 55.921893 
L 76.848921 55.921893 
L 76.885577 56.532237 
L 76.916995 54.701205 
L 76.948414 54.701205 
L 77.157872 54.701205 
L 77.273074 54.090861 
L 77.377803 54.090861 
L 77.493004 54.701205 
L 77.644861 54.701205 
L 77.760063 55.311549 
L 77.948575 55.311549 
L 78.063777 54.701205 
L 78.110905 54.701205 
L 78.226107 54.090861 
L 78.23658 54.090861 
L 78.351782 54.701205 
L 78.844008 54.701205 
L 78.896373 54.548619 
L 78.901609 55.158963 
L 78.938264 55.158963 
L 78.990629 55.158963 
L 79.105831 55.769307 
L 79.142486 55.769307 
L 79.257687 55.158963 
L 79.943662 55.158963 
L 80.064101 56.379651 
L 80.090283 56.379651 
L 80.205485 56.989995 
L 80.336396 56.989995 
L 80.409706 56.379651 
L 80.446361 56.989995 
L 80.854804 56.989995 
L 80.970006 56.379651 
L 82.101079 56.379651 
L 82.132498 56.989995 
L 82.211044 56.379651 
L 82.326246 56.379651 
L 82.441448 56.989995 
L 82.855127 56.989995 
L 82.970329 56.379651 
L 84.766431 56.379651 
L 84.881633 56.989995 
L 85.059672 56.989995 
L 85.18011 58.210683 
L 85.19582 58.210683 
L 85.311021 57.600339 
L 86.096489 57.600339 
L 86.211691 58.210683 
L 86.908138 58.210683 
L 87.02334 58.821027 
L 87.075705 58.821027 
L 87.190906 58.210683 
L 87.437019 58.210683 
L 87.457965 57.600339 
L 87.546985 58.210683 
L 87.641241 58.210683 
L 87.719788 57.600339 
L 87.751206 58.210683 
L 88.060157 58.210683 
L 88.175359 58.058097 
L 88.767077 58.058097 
L 88.882279 58.668441 
L 88.992245 58.668441 
L 89.107446 58.058097 
L 89.892914 58.058097 
L 90.008115 57.447753 
L 90.715036 57.447753 
L 90.830238 58.058097 
L 92.558266 58.058097 
L 92.673468 58.668441 
L 92.731068 58.668441 
L 92.84627 58.058097 
L 92.982418 58.058097 
L 93.09762 58.668441 
L 93.270423 58.668441 
L 93.385624 59.278785 
L 93.877851 59.278785 
L 93.993052 58.668441 
L 94.349131 58.668441 
L 94.464333 59.278785 
L 94.579535 59.278785 
L 94.694736 58.668441 
L 95.139835 58.668441 
L 95.255036 58.515855 
L 97.773768 58.515855 
L 97.88897 59.126199 
L 101.392154 59.126199 
L 101.507355 59.736543 
L 102.716975 59.736543 
L 102.832177 59.126199 
L 103.607171 59.126199 
L 103.722373 59.736543 
L 104.701589 59.736543 
L 104.816791 60.346887 
L 104.926756 60.346887 
L 105.041958 60.957231 
L 105.115268 60.957231 
L 105.23047 60.346887 
L 105.70175 60.346887 
L 105.816952 59.736543 
L 108.005788 59.736543 
L 108.115753 60.346887 
L 108.230955 59.736543 
L 110.215569 59.736543 
L 110.33077 60.346887 
L 113.299837 60.346887 
L 113.415038 60.957231 
L 113.713516 60.957231 
L 113.828718 60.346887 
L 115.074992 60.346887 
L 115.190194 59.736543 
L 115.410125 59.736543 
L 115.525327 60.346887 
L 115.666711 60.346887 
L 115.781913 59.736543 
L 115.834277 59.736543 
L 115.949479 60.346887 
L 117.138153 60.346887 
L 117.253355 59.736543 
L 117.352847 59.736543 
L 117.468049 60.346887 
L 119.018038 60.346887 
L 119.023274 60.957231 
L 119.128003 60.804645 
L 119.36888 60.804645 
L 119.484082 61.414989 
L 119.740668 61.414989 
L 119.85587 60.804645 
L 120.389987 60.804645 
L 120.505189 61.414989 
L 121.463459 61.414989 
L 121.578661 62.025333 
L 122.112779 62.025333 
L 122.227981 61.414989 
L 123.296216 61.414989 
L 123.411418 60.804645 
L 126.066297 60.804645 
L 126.181499 61.414989 
L 126.998385 61.414989 
L 127.113587 60.804645 
L 127.584867 60.804645 
L 127.700069 60.194301 
L 129.899377 60.194301 
L 130.014579 60.804645 
L 130.7791 60.804645 
L 130.894302 60.652059 
L 132.276724 60.652059 
L 132.391926 61.262403 
L 134.517924 61.262403 
L 134.633126 61.872747 
L 135.863691 61.872747 
L 135.978893 62.483091 
L 137.272296 62.483091 
L 137.392734 61.262403 
L 139.843392 61.262403 
L 139.958594 61.872747 
L 149.441801 61.872747 
L 149.557003 61.262403 
L 149.630313 61.262403 
L 149.745515 61.872747 
L 156.385331 61.872747 
L 156.500533 62.483091 
L 158.547985 62.483091 
L 158.663186 61.872747 
L 163.899635 61.872747 
L 164.014836 61.720161 
L 166.936774 61.720161 
L 167.051976 62.330505 
L 174.466787 62.330505 
L 174.581989 62.940849 
L 175.702589 62.940849 
L 175.81779 62.330505 
L 182.562336 62.330505 
L 182.677537 61.720161 
L 185.662313 61.720161 
L 185.777515 61.567575 
L 192.244528 61.567575 
L 192.35973 62.177919 
L 200.162038 62.177919 
L 200.277239 62.025333 
L 202.675533 62.025333 
L 202.790735 62.635677 
L 205.026698 62.635677 
L 205.1419 62.025333 
L 215.693343 62.025333 
L 215.808544 62.635677 
L 230.392052 62.635677 
L 230.507254 63.246021 
L 232.811291 63.246021 
L 232.926493 62.635677 
L 233.921418 62.635677 
L 234.03662 63.246021 
L 235.052491 63.246021 
L 235.167693 62.635677 
L 236.681027 62.635677 
L 236.796228 63.246021 
L 242.231662 63.246021 
L 242.346863 63.856365 
L 242.697705 63.856365 
L 242.812907 63.246021 
L 248.159321 63.246021 
L 248.274523 63.856365 
L 248.625365 63.856365 
L 248.740567 63.246021 
L 252.447972 63.246021 
L 252.563174 63.856365 
L 256.160613 63.856365 
L 256.275815 64.466709 
L 258.459414 64.466709 
L 258.574616 63.856365 
L 263.695862 63.856365 
L 263.811064 64.466709 
L 264.811226 64.466709 
L 264.926428 63.856365 
L 271.063545 63.856365 
L 271.178747 63.246021 
L 273.084814 63.246021 
L 273.200016 63.856365 
L 278.20606 63.856365 
L 278.321262 63.246021 
L 283.123085 63.246021 
L 283.238287 63.856365 
L 284.243685 63.856365 
L 284.358886 64.466709 
L 288.783685 64.466709 
L 288.898887 63.856365 
L 292.292105 63.856365 
L 292.407307 64.466709 
L 297.224839 64.466709 
L 297.340041 63.856365 
L 303.597597 63.856365 
L 303.712799 64.466709 
L 305.36228 64.466709 
L 305.477482 65.077053 
L 305.859742 65.077053 
L 305.974944 64.466709 
L 316.578752 64.466709 
L 316.693953 65.077053 
L 323.616538 65.077053 
L 323.73174 64.466709 
L 324.223966 64.466709 
L 324.339168 65.077053 
L 326.899791 65.077053 
L 327.014993 64.466709 
L 329.842675 64.466709 
L 329.957877 65.077053 
L 333.843321 65.077053 
L 333.958523 65.687397 
L 336.053102 65.687397 
L 336.068811 65.077053 
L 336.163067 65.687397 
L 341.263368 65.687397 
L 341.37857 65.077053 
L 343.740208 65.077053 
L 343.85541 65.687397 
L 346.824476 65.687397 
L 346.939678 65.077053 
L 352.165653 65.077053 
L 352.280855 64.466709 
L 353.925099 64.466709 
L 354.040301 65.077053 
L 360.790083 65.077053 
L 360.905285 65.687397 
L 361.235181 65.687397 
L 361.350383 65.077053 
L 364.879749 65.077053 
L 364.994951 65.687397 
L 368.482425 65.687397 
L 368.597627 66.29774 
L 372.446416 66.29774 
L 372.561618 66.908084 
L 374.876128 66.908084 
L 374.99133 66.29774 
L 379.190961 66.29774 
L 379.306163 66.908084 
L 382.264757 66.908084 
L 382.379958 66.29774 
L 386.0926 66.29774 
L 386.207802 65.687397 
L 391.627526 65.687397 
L 391.742728 65.077053 
L 393.716869 65.077053 
L 393.837307 66.29774 
L 398.487273 66.29774 
L 398.487273 66.29774 
" clip-path="url(#p8ac72afbbf)" style="fill: none; stroke: #2ca02c; stroke-width: 1.5; stroke-linecap: square"/>
   </g>
   <g id="line2d_15">
    <path d="M 73.832727 49.71673 
L 73.837964 49.71673 
L 73.895565 49.360696 
L 73.911274 50.581384 
L 73.93222 50.22535 
L 73.995057 50.22535 
L 74.120732 49.767592 
L 74.204515 49.767592 
L 74.335426 49.106386 
L 74.47681 49.106386 
L 74.592012 48.9538 
L 74.633904 48.9538 
L 74.754342 48.597766 
L 75.058056 48.597766 
L 75.173258 48.44518 
L 75.372243 48.44518 
L 75.487445 48.292594 
L 75.812105 48.292594 
L 75.927307 48.140008 
L 75.99538 48.140008 
L 76.110582 47.987422 
L 80.090283 47.987422 
L 80.205485 47.834836 
L 87.719788 47.733112 
L 87.834989 47.529664 
L 88.767077 47.529664 
L 88.882279 47.326216 
L 113.299837 47.326216 
L 113.415038 47.122768 
L 156.385331 47.122768 
L 156.500533 46.970182 
L 398.487273 46.970182 
L 398.487273 46.970182 
" clip-path="url(#p8ac72afbbf)" style="fill: none; stroke: #d62728; stroke-width: 1.5; stroke-linecap: square"/>
   </g>
   <g id="line2d_16">
    <path d="M 73.832727 49.71673 
L 74.251643 49.71673 
L 74.372081 50.937418 
L 75.089475 50.937418 
L 75.204677 51.547762 
L 75.393189 51.547762 
L 75.497918 52.158105 
L 75.503154 52.005519 
L 75.586937 52.005519 
L 75.702139 51.852933 
L 75.880178 51.852933 
L 75.99538 51.649485 
L 76.110582 52.259829 
L 76.346222 52.259829 
L 76.461424 52.056381 
L 76.754665 52.056381 
L 76.869867 51.852933 
L 78.844008 51.852933 
L 78.95921 51.700347 
L 79.619002 51.700347 
L 79.734204 52.310691 
L 81.676927 52.310691 
L 81.792128 52.107243 
L 86.101725 52.107243 
L 86.216927 52.717587 
L 87.719788 52.717587 
L 87.834989 53.327931 
L 88.060157 53.327931 
L 88.175359 53.175345 
L 88.767077 53.175345 
L 88.882279 53.785689 
L 94.820411 53.785689 
L 94.935613 54.396033 
L 95.139835 54.396033 
L 95.255036 54.243447 
L 96.218543 54.243447 
L 96.333745 54.039999 
L 101.355498 54.039999 
L 101.4707 53.836551 
L 106.209686 53.836551 
L 106.324888 53.633103 
L 113.299837 53.633103 
L 113.415038 54.243447 
L 119.023274 54.243447 
L 119.138476 54.090861 
L 121.37444 54.090861 
L 121.489641 54.701205 
L 130.7791 54.701205 
L 130.894302 54.548619 
L 156.385331 54.548619 
L 156.500533 55.158963 
L 163.899635 55.158963 
L 164.014836 55.006377 
L 167.203833 55.006377 
L 167.319035 54.802929 
L 185.662313 54.802929 
L 185.777515 54.650343 
L 200.162038 54.650343 
L 200.277239 54.497757 
L 398.487273 54.497757 
L 398.487273 54.497757 
" clip-path="url(#p8ac72afbbf)" style="fill: none; stroke: #9467bd; stroke-width: 1.5; stroke-linecap: square"/>
   </g>
   <g id="line2d_17">
    <path d="M 73.832727 49.513282 
L 73.947929 49.309834 
L 74.057895 49.309834 
L 74.173096 49.106386 
L 74.47681 49.106386 
L 74.482047 49.71673 
L 74.586776 49.309834 
L 74.749106 49.309834 
L 74.864308 49.106386 
L 74.87478 49.106386 
L 74.989982 48.902938 
L 75.058056 48.902938 
L 75.089475 49.513282 
L 75.168022 49.360696 
L 75.188967 49.360696 
L 75.304169 49.157248 
L 75.393189 49.157248 
L 75.508391 48.9538 
L 79.619002 48.9538 
L 79.734204 48.801214 
L 85.059672 48.801214 
L 85.174874 49.411558 
L 86.101725 49.411558 
L 86.216927 49.258972 
L 94.820411 49.258972 
L 94.935613 49.106386 
L 121.37444 49.106386 
L 121.489641 48.9538 
L 398.487273 48.9538 
L 398.487273 48.9538 
" clip-path="url(#p8ac72afbbf)" style="fill: none; stroke: #8c564b; stroke-width: 1.5; stroke-linecap: square"/>
   </g>
   <g id="line2d_18">
    <path d="M 73.832727 49.71673 
L 73.837964 49.71673 
L 73.979348 48.496042 
L 74.07884 48.496042 
L 74.194042 48.19087 
L 74.251643 48.19087 
L 74.324953 49.411558 
L 74.366845 48.801214 
L 75.089475 48.801214 
L 75.204677 49.411558 
L 75.393189 49.411558 
L 75.497918 50.021902 
L 75.503154 49.869316 
L 75.586937 49.869316 
L 75.702139 49.71673 
L 75.880178 49.71673 
L 75.99538 49.513282 
L 76.110582 50.123626 
L 76.346222 50.123626 
L 76.461424 49.920178 
L 76.754665 49.920178 
L 76.869867 49.71673 
L 78.844008 49.71673 
L 78.95921 49.564144 
L 79.619002 49.564144 
L 79.734204 50.174488 
L 81.676927 50.174488 
L 81.792128 49.97104 
L 86.101725 49.97104 
L 86.216927 50.581384 
L 87.719788 50.581384 
L 87.834989 51.191728 
L 88.060157 51.191728 
L 88.175359 51.039142 
L 88.767077 51.039142 
L 88.882279 51.649485 
L 94.820411 51.649485 
L 94.935613 52.259829 
L 95.139835 52.259829 
L 95.255036 52.107243 
L 96.218543 52.107243 
L 96.333745 51.903795 
L 101.355498 51.903795 
L 101.4707 51.700347 
L 106.209686 51.700347 
L 106.324888 51.4969 
L 113.299837 51.4969 
L 113.415038 52.107243 
L 119.023274 52.107243 
L 119.138476 51.954657 
L 121.37444 51.954657 
L 121.489641 52.565001 
L 130.7791 52.565001 
L 130.894302 52.412415 
L 156.385331 52.412415 
L 156.500533 53.022759 
L 163.899635 53.022759 
L 164.014836 52.870173 
L 167.203833 52.870173 
L 167.319035 52.666725 
L 185.662313 52.666725 
L 185.777515 52.514139 
L 200.162038 52.514139 
L 200.277239 52.361553 
L 398.487273 52.361553 
L 398.487273 52.361553 
" clip-path="url(#p8ac72afbbf)" style="fill: none; stroke: #e377c2; stroke-width: 1.5; stroke-linecap: square"/>
   </g>
   <g id="line2d_19">
    <path d="M 73.832727 49.71673 
L 73.837964 49.71673 
L 73.921747 53.226207 
L 73.974111 53.073621 
L 73.995057 53.073621 
L 74.07884 52.921035 
L 74.084077 53.531379 
L 74.09455 53.378793 
L 74.115495 53.378793 
L 74.235934 53.073621 
L 74.251643 53.073621 
L 74.25688 52.870173 
L 74.272589 54.090861 
L 74.324953 53.785689 
L 74.450628 55.616721 
L 74.49252 55.616721 
L 74.607722 56.227065 
L 74.633904 56.227065 
L 74.749106 56.074479 
L 75.089475 56.074479 
L 75.204677 55.921893 
L 75.372243 55.921893 
L 75.408898 55.565859 
L 75.414135 56.176203 
L 75.471736 56.176203 
L 75.660248 56.176203 
L 75.77545 56.786547 
L 75.812105 56.786547 
L 75.880178 56.633961 
L 75.885415 57.244305 
L 75.906361 57.244305 
L 75.99538 57.244305 
L 76.026799 57.091719 
L 76.032035 57.702063 
L 76.089636 57.702063 
L 76.346222 57.702063 
L 76.461424 58.312407 
L 76.48237 58.312407 
L 76.597572 58.922751 
L 76.728483 58.922751 
L 76.848921 60.143439 
L 78.477457 60.143439 
L 78.592659 60.753783 
L 79.619002 60.753783 
L 79.734204 60.601197 
L 80.090283 60.601197 
L 80.205485 60.448611 
L 81.676927 60.448611 
L 81.792128 61.058955 
L 86.101725 60.957231 
L 86.216927 60.804645 
L 87.719788 60.804645 
L 87.834989 60.601197 
L 88.767077 60.601197 
L 88.882279 60.397749 
L 88.992245 60.397749 
L 89.107446 61.008093 
L 89.892914 61.008093 
L 90.008115 61.618437 
L 92.731068 61.618437 
L 92.84627 62.228781 
L 94.820411 62.228781 
L 94.935613 62.076195 
L 96.218543 62.076195 
L 96.333745 62.686539 
L 101.355498 62.686539 
L 101.4707 63.296883 
L 105.115268 63.296883 
L 105.23047 63.907227 
L 106.209686 63.907227 
L 106.324888 64.517571 
L 113.299837 64.517571 
L 113.415038 64.314123 
L 117.138153 64.314123 
L 117.253355 64.924467 
L 121.37444 64.924467 
L 121.489641 64.771881 
L 122.112779 64.771881 
L 122.227981 65.382225 
L 123.296216 65.382225 
L 123.411418 65.992568 
L 137.272296 65.992568 
L 137.387498 66.602912 
L 156.385331 66.602912 
L 156.500533 66.450326 
L 167.203833 66.450326 
L 167.319035 67.06067 
L 205.026698 67.06067 
L 205.1419 67.671014 
L 235.052491 67.671014 
L 235.167693 68.281358 
L 271.063545 68.281358 
L 271.178747 68.891702 
L 297.224839 68.891702 
L 297.340041 69.502046 
L 326.899791 69.502046 
L 327.014993 70.11239 
L 336.053102 70.11239 
L 336.168304 70.722734 
L 386.0926 70.722734 
L 386.207802 71.333078 
L 391.627526 71.333078 
L 391.742728 71.943422 
L 398.487273 71.943422 
L 398.487273 71.943422 
" clip-path="url(#p8ac72afbbf)" style="fill: none; stroke: #7f7f7f; stroke-width: 1.5; stroke-linecap: square"/>
   </g>
   <g id="line2d_20">
    <path d="M 73.832727 50.327074 
L 73.906038 52.412415 
L 73.953166 51.446038 
L 73.995057 51.446038 
L 74.016003 51.293452 
L 74.052658 52.514139 
L 74.057895 52.514139 
L 74.173096 53.429655 
L 74.204515 53.429655 
L 74.220224 53.277069 
L 74.251643 54.497757 
L 74.25688 54.497757 
L 74.309244 55.718445 
L 74.372081 55.413273 
L 74.393027 55.413273 
L 74.539648 60.143439 
L 74.633904 60.143439 
L 74.749106 59.787405 
L 74.869544 61.008093 
L 74.87478 61.008093 
L 74.989982 61.618437 
L 75.016165 61.618437 
L 75.131366 62.686539 
L 75.147076 62.686539 
L 75.267514 63.907227 
L 75.309406 63.907227 
L 75.43508 66.196016 
L 75.456026 66.196016 
L 75.497918 66.80636 
L 75.565992 66.653774 
L 75.586937 66.653774 
L 75.644538 66.501188 
L 75.649775 67.111532 
L 75.660248 67.111532 
L 75.77545 67.721876 
L 75.812105 67.721876 
L 75.932543 67.365842 
L 75.99538 67.365842 
L 76.016326 67.213256 
L 76.032035 68.433944 
L 76.068691 68.433944 
L 76.183892 69.044288 
L 76.346222 69.044288 
L 76.39335 68.84084 
L 76.398587 69.451184 
L 76.445715 69.451184 
L 76.48237 69.451184 
L 76.602808 70.671872 
L 76.712774 70.671872 
L 76.754665 71.89256 
L 76.827976 71.689112 
L 76.848921 71.689112 
L 76.979833 74.130488 
L 77.157872 74.130488 
L 77.273074 74.740832 
L 77.377803 74.740832 
L 77.493004 75.351176 
L 77.644861 75.351176 
L 77.760063 75.96152 
L 77.948575 75.96152 
L 78.063777 76.571864 
L 78.110905 76.571864 
L 78.226107 77.182208 
L 78.23658 77.182208 
L 78.351782 77.792552 
L 78.477457 77.792552 
L 78.592659 78.402896 
L 78.844008 78.402896 
L 78.896373 78.25031 
L 78.901609 78.860654 
L 78.938264 78.860654 
L 78.990629 78.860654 
L 79.105831 79.470998 
L 79.142486 79.470998 
L 79.257687 80.081342 
L 79.619002 80.081342 
L 79.734204 80.691685 
L 79.943662 80.691685 
L 80.064101 81.912373 
L 80.090283 81.912373 
L 80.205485 81.759787 
L 80.336396 81.759787 
L 80.456834 82.980475 
L 80.854804 82.980475 
L 80.970006 83.590819 
L 81.676927 83.590819 
L 81.792128 83.387371 
L 82.101079 83.387371 
L 82.221517 84.608059 
L 82.326246 84.608059 
L 82.441448 85.218403 
L 82.855127 85.218403 
L 82.970329 85.828747 
L 84.766431 85.828747 
L 84.881633 86.439091 
L 85.064908 86.337367 
L 85.18011 86.947711 
L 85.19582 86.947711 
L 85.311021 87.558055 
L 86.096489 87.558055 
L 86.216927 88.778743 
L 86.908138 88.778743 
L 87.02334 89.389087 
L 87.075705 89.389087 
L 87.190906 89.999431 
L 87.437019 89.999431 
L 87.557458 91.220119 
L 87.641241 91.220119 
L 87.756443 91.830463 
L 88.060157 91.830463 
L 88.175359 91.677877 
L 88.992245 91.677877 
L 89.107446 92.288221 
L 89.892914 92.288221 
L 90.008115 92.898565 
L 90.715036 92.898565 
L 90.830238 93.508909 
L 92.558266 93.508909 
L 92.673468 94.119253 
L 92.731068 94.119253 
L 92.84627 94.729597 
L 92.982418 94.729597 
L 93.09762 95.33994 
L 93.270423 95.33994 
L 93.385624 95.950284 
L 93.877851 95.950284 
L 93.993052 96.560628 
L 94.349131 96.560628 
L 94.464333 97.170972 
L 94.579535 97.170972 
L 94.694736 97.781316 
L 94.820411 97.781316 
L 94.935613 98.39166 
L 95.139835 98.39166 
L 95.255036 98.239074 
L 96.218543 98.239074 
L 96.333745 98.035626 
L 97.773768 98.035626 
L 97.88897 98.64597 
L 101.355498 98.64597 
L 101.392154 98.442522 
L 101.39739 99.052866 
L 101.454991 99.052866 
L 102.716975 99.052866 
L 102.84265 100.883898 
L 103.607171 100.883898 
L 103.722373 101.494242 
L 104.701589 101.494242 
L 104.816791 102.104586 
L 104.926756 102.104586 
L 105.041958 102.71493 
L 105.115268 102.71493 
L 105.23047 103.325274 
L 105.70175 103.325274 
L 105.816952 103.935618 
L 106.209686 103.935618 
L 106.324888 103.73217 
L 108.005788 103.73217 
L 108.126226 104.952858 
L 110.215569 104.952858 
L 110.33077 105.563202 
L 113.713516 105.563202 
L 113.828718 106.173546 
L 115.074992 106.173546 
L 115.190194 106.78389 
L 115.410125 106.78389 
L 115.525327 107.394234 
L 115.666711 107.394234 
L 115.781913 108.004578 
L 115.834277 108.004578 
L 115.949479 108.614922 
L 117.138153 108.614922 
L 117.253355 109.225265 
L 117.352847 109.225265 
L 117.468049 109.835609 
L 119.018038 109.835609 
L 119.023274 110.445953 
L 119.128003 110.293367 
L 119.36888 110.293367 
L 119.484082 110.903711 
L 119.740668 110.903711 
L 119.85587 111.514055 
L 120.389987 111.514055 
L 120.505189 112.124399 
L 121.37444 112.124399 
L 121.494878 113.345087 
L 122.112779 113.345087 
L 122.227981 113.955431 
L 123.296216 113.955431 
L 123.411418 114.565775 
L 126.066297 114.565775 
L 126.181499 115.176119 
L 126.998385 115.176119 
L 127.113587 115.786463 
L 127.584867 115.786463 
L 127.700069 116.396807 
L 129.899377 116.396807 
L 130.014579 117.007151 
L 130.7791 117.007151 
L 130.894302 116.854565 
L 132.276724 116.854565 
L 132.391926 117.464909 
L 134.517924 117.464909 
L 134.633126 118.075253 
L 135.863691 118.075253 
L 135.978893 118.685597 
L 137.272296 118.685597 
L 137.392734 119.906285 
L 139.843392 119.906285 
L 139.958594 120.516629 
L 149.441801 120.516629 
L 149.557003 121.126973 
L 149.630313 121.126973 
L 149.745515 121.737317 
L 156.385331 121.737317 
L 156.500533 121.584731 
L 158.547985 121.584731 
L 158.663186 122.195075 
L 163.899635 122.195075 
L 164.014836 122.042489 
L 166.936774 122.042489 
L 167.051976 122.652833 
L 167.203833 122.652833 
L 167.319035 122.449385 
L 174.466787 122.449385 
L 174.581989 123.059729 
L 175.702589 123.059729 
L 175.81779 123.670072 
L 182.562336 123.670072 
L 182.677537 124.280416 
L 185.662313 124.280416 
L 185.777515 124.12783 
L 192.244528 124.12783 
L 192.35973 124.738174 
L 200.162038 124.738174 
L 200.277239 124.585588 
L 202.675533 124.585588 
L 202.790735 125.195932 
L 205.026698 125.195932 
L 205.1419 125.806276 
L 215.693343 125.806276 
L 215.808544 126.41662 
L 230.392052 126.41662 
L 230.507254 127.026964 
L 232.811291 127.026964 
L 232.926493 127.637308 
L 233.921418 127.637308 
L 234.03662 128.247652 
L 235.052491 128.247652 
L 235.167693 128.857996 
L 236.681027 128.857996 
L 236.796228 129.46834 
L 242.231662 129.46834 
L 242.346863 130.078684 
L 242.697705 130.078684 
L 242.812907 130.689028 
L 248.159321 130.689028 
L 248.274523 131.299372 
L 248.625365 131.299372 
L 248.740567 131.909716 
L 252.447972 131.909716 
L 252.563174 132.52006 
L 256.160613 132.52006 
L 256.275815 133.130404 
L 258.459414 133.130404 
L 258.574616 133.740748 
L 263.695862 133.740748 
L 263.811064 134.351092 
L 264.811226 134.351092 
L 264.926428 134.961436 
L 271.063545 134.961436 
L 271.178747 135.57178 
L 273.084814 135.57178 
L 273.200016 136.182124 
L 278.20606 136.182124 
L 278.321262 136.792468 
L 283.123085 136.792468 
L 283.238287 137.402812 
L 284.243685 137.402812 
L 284.358886 138.013155 
L 288.783685 138.013155 
L 288.898887 138.623499 
L 292.292105 138.623499 
L 292.407307 139.233843 
L 297.224839 139.233843 
L 297.340041 139.844187 
L 303.597597 139.844187 
L 303.712799 140.454531 
L 305.36228 140.454531 
L 305.477482 141.064875 
L 305.859742 141.064875 
L 305.974944 141.675219 
L 316.578752 141.675219 
L 316.693953 142.285563 
L 323.616538 142.285563 
L 323.73174 142.895907 
L 324.223966 142.895907 
L 324.339168 143.506251 
L 326.899791 143.506251 
L 327.014993 144.116595 
L 329.842675 144.116595 
L 329.957877 144.726939 
L 333.843321 144.726939 
L 333.958523 145.337283 
L 336.053102 145.337283 
L 336.17354 146.557971 
L 341.263368 146.557971 
L 341.37857 147.168315 
L 343.740208 147.168315 
L 343.85541 147.778659 
L 346.824476 147.778659 
L 346.939678 148.389003 
L 352.165653 148.389003 
L 352.280855 148.999347 
L 353.925099 148.999347 
L 354.040301 149.609691 
L 360.790083 149.609691 
L 360.905285 150.220035 
L 361.235181 150.220035 
L 361.350383 150.830379 
L 364.879749 150.830379 
L 364.994951 151.440723 
L 368.482425 151.440723 
L 368.597627 152.051067 
L 372.446416 152.051067 
L 372.561618 152.66141 
L 374.876128 152.66141 
L 374.99133 153.271754 
L 379.190961 153.271754 
L 379.306163 153.882098 
L 382.264757 153.882098 
L 382.379958 154.492442 
L 386.0926 154.492442 
L 386.207802 155.102786 
L 391.627526 155.102786 
L 391.742728 155.71313 
L 393.716869 155.71313 
L 393.837307 156.933818 
L 398.487273 156.933818 
L 398.487273 156.933818 
" clip-path="url(#p8ac72afbbf)" style="fill: none; stroke: #bcbd22; stroke-width: 1.5; stroke-linecap: square"/>
   </g>
   <g id="line2d_21">
    <path d="M 73.832727 50.327074 
L 73.837964 50.327074 
L 73.91651 53.226207 
L 73.968875 52.870173 
L 73.995057 52.870173 
L 74.016003 52.717587 
L 74.052658 53.938275 
L 74.068367 53.938275 
L 74.089313 53.938275 
L 74.131205 53.633103 
L 74.136441 54.243447 
L 74.188806 54.243447 
L 74.204515 54.243447 
L 74.246407 54.090861 
L 74.262116 55.108101 
L 74.267352 55.108101 
L 74.309244 55.718445 
L 74.377318 55.413273 
L 74.393027 55.413273 
L 74.529175 58.464993 
L 74.633904 58.464993 
L 74.754342 58.108959 
L 75.089475 58.108959 
L 75.204677 57.956373 
L 75.309406 57.956373 
L 75.424607 58.821027 
L 75.456026 58.821027 
L 75.571228 59.431371 
L 75.660248 59.431371 
L 75.77545 60.041715 
L 75.812105 60.041715 
L 75.880178 59.889129 
L 75.885415 60.499473 
L 75.906361 60.499473 
L 75.99538 60.499473 
L 76.026799 60.346887 
L 76.032035 60.957231 
L 76.089636 60.957231 
L 76.346222 60.957231 
L 76.461424 61.567575 
L 76.48237 61.567575 
L 76.597572 62.177919 
L 76.728483 62.177919 
L 76.848921 63.398607 
L 76.885577 63.398607 
L 77.011251 65.229639 
L 77.157872 65.229639 
L 77.273074 65.839983 
L 77.948575 65.839983 
L 78.063777 66.450326 
L 78.110905 66.450326 
L 78.226107 67.06067 
L 78.477457 67.06067 
L 78.592659 67.671014 
L 79.142486 67.671014 
L 79.257687 68.281358 
L 79.619002 68.281358 
L 79.734204 68.128772 
L 80.090283 68.128772 
L 80.205485 67.976186 
L 80.336396 67.976186 
L 80.451598 68.58653 
L 80.854804 68.58653 
L 80.970006 69.196874 
L 81.676927 69.196874 
L 81.792128 69.807218 
L 82.132498 69.807218 
L 82.247699 70.417562 
L 82.855127 70.417562 
L 82.970329 71.027906 
L 85.19582 70.926182 
L 85.311021 71.536526 
L 86.101725 71.536526 
L 86.216927 71.38394 
L 87.075705 71.38394 
L 87.190906 71.994284 
L 87.437019 71.994284 
L 87.552221 72.604628 
L 87.641241 72.604628 
L 87.719788 73.214972 
L 87.751206 73.011524 
L 88.767077 73.011524 
L 88.882279 72.808076 
L 88.992245 72.808076 
L 89.107446 73.41842 
L 89.892914 73.41842 
L 90.008115 74.028764 
L 92.731068 74.028764 
L 92.84627 74.639108 
L 93.877851 74.639108 
L 93.993052 75.249452 
L 94.579535 75.249452 
L 94.694736 75.859796 
L 94.820411 75.859796 
L 94.935613 75.70721 
L 96.218543 75.70721 
L 96.333745 76.317554 
L 101.355498 76.317554 
L 101.4707 76.927898 
L 102.716975 76.927898 
L 102.837413 78.148586 
L 105.115268 78.148586 
L 105.23047 78.75893 
L 105.70175 78.75893 
L 105.816952 79.369274 
L 106.209686 79.369274 
L 106.324888 79.979618 
L 108.115753 79.979618 
L 108.230955 80.589961 
L 113.299837 80.589961 
L 113.415038 80.386513 
L 113.713516 80.386513 
L 113.828718 80.996857 
L 115.074992 80.996857 
L 115.190194 81.607201 
L 115.666711 81.607201 
L 115.781913 82.217545 
L 117.138153 82.217545 
L 117.253355 82.827889 
L 119.740668 82.827889 
L 119.85587 83.438233 
L 121.37444 83.438233 
L 121.489641 83.285647 
L 122.112779 83.285647 
L 122.227981 83.895991 
L 123.296216 83.895991 
L 123.411418 84.506335 
L 126.998385 84.506335 
L 127.113587 85.116679 
L 127.584867 85.116679 
L 127.700069 85.727023 
L 137.272296 85.727023 
L 137.392734 86.947711 
L 149.441801 86.947711 
L 149.557003 87.558055 
L 156.385331 87.558055 
L 156.500533 87.405469 
L 158.547985 87.405469 
L 158.663186 88.015813 
L 167.203833 88.015813 
L 167.319035 88.626157 
L 175.702589 88.626157 
L 175.81779 89.236501 
L 182.562336 89.236501 
L 182.677537 89.846845 
L 205.026698 89.846845 
L 205.1419 90.457189 
L 232.811291 90.457189 
L 232.926493 91.067533 
L 235.052491 91.067533 
L 235.167693 91.677877 
L 242.697705 91.677877 
L 242.812907 92.288221 
L 248.625365 92.288221 
L 248.740567 92.898565 
L 258.459414 92.898565 
L 258.574616 93.508909 
L 264.811226 93.508909 
L 264.926428 94.119253 
L 271.063545 94.119253 
L 271.178747 94.729597 
L 278.20606 94.729597 
L 278.321262 95.33994 
L 288.783685 95.33994 
L 288.898887 95.950284 
L 297.224839 95.950284 
L 297.340041 96.560628 
L 305.859742 96.560628 
L 305.974944 97.170972 
L 323.616538 97.170972 
L 323.73174 97.781316 
L 326.899791 97.781316 
L 327.014993 98.39166 
L 336.053102 98.39166 
L 336.168304 99.002004 
L 341.263368 99.002004 
L 341.37857 99.612348 
L 346.824476 99.612348 
L 346.939678 100.222692 
L 352.165653 100.222692 
L 352.280855 100.833036 
L 361.235181 100.833036 
L 361.350383 101.44338 
L 374.876128 101.44338 
L 374.99133 102.053724 
L 382.264757 102.053724 
L 382.379958 102.664068 
L 386.0926 102.664068 
L 386.207802 103.274412 
L 391.627526 103.274412 
L 391.742728 103.884756 
L 398.487273 103.884756 
L 398.487273 103.884756 
" clip-path="url(#p8ac72afbbf)" style="fill: none; stroke: #17becf; stroke-width: 1.5; stroke-linecap: square"/>
   </g>
   <g id="line2d_22">
    <path d="M 73.832727 50.327074 
L 73.947929 50.937418 
L 74.057895 50.937418 
L 74.173096 51.547762 
L 74.47681 51.547762 
L 74.482047 51.395176 
L 74.518702 52.615863 
L 74.550121 52.615863 
L 74.749106 52.615863 
L 74.864308 53.226207 
L 74.87478 53.226207 
L 74.989982 53.836551 
L 75.058056 53.836551 
L 75.089475 53.683965 
L 75.094711 54.294309 
L 75.152312 54.294309 
L 75.188967 54.294309 
L 75.304169 54.904653 
L 75.393189 54.904653 
L 75.508391 55.514997 
L 79.619002 55.514997 
L 79.734204 56.125341 
L 86.101725 56.023617 
L 86.216927 56.633961 
L 94.820411 56.633961 
L 94.935613 57.244305 
L 121.37444 57.244305 
L 121.489641 57.854649 
L 398.487273 57.854649 
L 398.487273 57.854649 
" clip-path="url(#p8ac72afbbf)" style="fill: none; stroke: #1f77b4; stroke-width: 1.5; stroke-linecap: square"/>
   </g>
   <g id="line2d_23">
    <path d="M 73.832727 49.513282 
L 73.8432 49.309834 
L 73.890328 50.021902 
L 73.921747 50.021902 
L 74.042185 51.852933 
L 74.16786 50.021902 
L 74.173096 50.021902 
L 74.272589 51.24259 
L 74.288298 50.632246 
L 74.377318 50.632246 
L 74.502993 48.801214 
L 75.058056 48.801214 
L 75.173258 49.411558 
L 75.911597 49.411558 
L 76.026799 48.801214 
L 76.96936 48.801214 
L 77.089798 50.021902 
L 77.398748 50.021902 
L 77.503477 50.632246 
L 77.508714 50.021902 
L 77.561078 50.021902 
L 77.67628 50.632246 
L 78.278472 50.632246 
L 78.315127 51.24259 
L 78.388437 50.632246 
L 78.503639 50.021902 
L 80.341632 50.021902 
L 80.456834 50.632246 
L 80.970006 50.632246 
L 81.085208 50.021902 
L 81.127099 50.021902 
L 81.242301 50.632246 
L 82.006823 50.632246 
L 82.122025 50.021902 
L 82.446684 50.021902 
L 82.561886 50.632246 
L 82.813236 50.632246 
L 82.8656 51.24259 
L 82.923201 50.632246 
L 84.666938 50.632246 
L 84.78214 51.24259 
L 85.01778 51.24259 
L 85.059672 50.632246 
L 85.127746 51.24259 
L 85.614735 51.24259 
L 85.729937 50.632246 
L 85.97605 50.632246 
L 86.096489 51.852933 
L 86.305947 51.852933 
L 86.421148 51.24259 
L 87.814044 51.24259 
L 87.840226 50.632246 
L 87.924009 51.24259 
L 89.646801 51.24259 
L 89.762002 50.632246 
L 90.343248 50.632246 
L 90.45845 51.24259 
L 91.013513 51.24259 
L 91.128715 51.852933 
L 91.516212 51.852933 
L 91.631414 51.24259 
L 92.851507 51.24259 
L 92.966709 50.632246 
L 94.45386 50.632246 
L 94.574298 51.852933 
L 94.726155 51.852933 
L 94.841357 51.24259 
L 100.564795 51.24259 
L 100.679997 50.632246 
L 103.209201 50.632246 
L 103.324403 51.24259 
L 105.769824 51.24259 
L 105.885026 51.852933 
L 106.722858 51.852933 
L 106.83806 52.463277 
L 107.424542 52.463277 
L 107.539744 53.073621 
L 107.565926 53.073621 
L 107.681128 52.463277 
L 108.073861 52.463277 
L 108.189063 53.073621 
L 108.42994 53.073621 
L 108.550378 51.852933 
L 112.802374 51.852933 
L 112.917576 52.463277 
L 113.163689 52.463277 
L 113.278891 53.073621 
L 116.56738 53.073621 
L 116.682582 52.463277 
L 117.091025 52.463277 
L 117.206227 51.852933 
L 119.321752 51.852933 
L 119.436954 52.463277 
L 119.772086 52.463277 
L 119.887288 51.852933 
L 131.763553 51.852933 
L 131.878754 52.463277 
L 133.884314 52.463277 
L 133.999516 51.852933 
L 135.889874 51.852933 
L 136.005076 51.24259 
L 171.434883 51.24259 
L 171.550085 51.852933 
L 193.08236 51.852933 
L 193.197562 52.463277 
L 193.909719 52.463277 
L 194.02492 51.852933 
L 200.340077 51.852933 
L 200.455279 52.463277 
L 212.268706 52.463277 
L 212.383907 51.852933 
L 214.88693 51.852933 
L 215.002131 52.463277 
L 215.075442 52.463277 
L 215.190644 51.852933 
L 219.971521 51.852933 
L 220.091959 53.073621 
L 220.191452 53.073621 
L 220.306653 53.683965 
L 223.521833 53.683965 
L 223.637034 54.294309 
L 226.129584 54.294309 
L 226.244786 53.683965 
L 228.554059 53.683965 
L 228.669261 53.073621 
L 230.208777 53.073621 
L 230.323979 53.683965 
L 231.790184 53.683965 
L 231.905386 53.073621 
L 234.371753 53.073621 
L 234.486955 53.683965 
L 234.780196 53.683965 
L 234.84827 54.294309 
L 234.890161 53.683965 
L 237.356528 53.683965 
L 237.47173 54.294309 
L 240.419851 54.294309 
L 240.535052 54.904653 
L 240.817821 54.904653 
L 240.933022 54.294309 
L 242.420174 54.294309 
L 242.535376 53.683965 
L 245.22691 53.683965 
L 245.342112 54.294309 
L 247.405272 54.294309 
L 247.520474 54.904653 
L 248.934315 54.904653 
L 249.049517 54.294309 
L 263.727281 54.294309 
L 263.842483 54.904653 
L 264.816462 54.904653 
L 264.931664 54.294309 
L 274.776186 54.294309 
L 274.891388 53.683965 
L 277.886637 53.683965 
L 278.001839 54.294309 
L 279.687975 54.294309 
L 279.803177 54.904653 
L 283.133558 54.904653 
L 283.248759 54.294309 
L 287.076603 54.294309 
L 287.191805 54.904653 
L 290.909683 54.904653 
L 291.024885 54.294309 
L 291.569476 54.294309 
L 291.684677 54.904653 
L 292.286869 54.904653 
L 292.402071 54.294309 
L 295.847654 54.294309 
L 295.962855 54.904653 
L 296.476027 54.904653 
L 296.591229 54.294309 
L 296.758796 54.294309 
L 296.873997 54.904653 
L 298.073144 54.904653 
L 298.188346 54.294309 
L 298.895266 54.294309 
L 299.010468 54.904653 
L 303.398612 54.904653 
L 303.513814 55.514997 
L 304.885763 55.514997 
L 305.000965 54.904653 
L 309.127286 54.904653 
L 309.242488 54.294309 
L 319.17603 54.294309 
L 319.291232 54.904653 
L 319.600182 54.904653 
L 319.715384 55.514997 
L 329.476123 55.514997 
L 329.591325 54.904653 
L 329.685581 54.904653 
L 329.727473 54.294309 
L 329.795547 54.904653 
L 330.219699 54.904653 
L 330.334901 55.514997 
L 331.403136 55.514997 
L 331.476446 54.904653 
L 331.513102 55.514997 
L 332.816977 55.514997 
L 332.932179 56.125341 
L 333.434878 56.125341 
L 333.55008 55.514997 
L 337.215594 55.514997 
L 337.330795 56.125341 
L 340.278916 56.125341 
L 340.394118 56.735685 
L 341.509481 56.735685 
L 341.593264 56.125341 
L 341.619446 56.735685 
L 342.918086 56.735685 
L 343.033287 56.125341 
L 351.898594 56.125341 
L 352.013796 56.735685 
L 353.343854 56.735685 
L 353.459056 57.346029 
L 354.155503 57.346029 
L 354.270705 56.735685 
L 357.349736 56.735685 
L 357.464938 56.125341 
L 361.03096 56.125341 
L 361.146161 56.735685 
L 366.644432 56.735685 
L 366.759634 56.125341 
L 368.702356 56.125341 
L 368.775666 56.735685 
L 368.812321 56.125341 
L 375.127478 56.125341 
L 375.24268 56.735685 
L 377.798066 56.735685 
L 377.913268 56.125341 
L 379.185725 56.125341 
L 379.300927 56.735685 
L 387.082289 56.735685 
L 387.197491 56.125341 
L 398.487273 56.125341 
L 398.487273 56.125341 
" clip-path="url(#p8ac72afbbf)" style="fill: none; stroke: #ff7f0e; stroke-width: 1.5; stroke-linecap: square"/>
   </g>
   <g id="patch_3">
    <path d="M 57.6 162.432 
L 57.6 41.472 
" style="fill: none; stroke: #000000; stroke-width: 0.8; stroke-linejoin: miter; stroke-linecap: square"/>
   </g>
   <g id="patch_4">
    <path d="M 414.72 162.432 
L 414.72 41.472 
" style="fill: none; stroke: #000000; stroke-width: 0.8; stroke-linejoin: miter; stroke-linecap: square"/>
   </g>
   <g id="patch_5">
    <path d="M 57.6 162.432 
L 414.72 162.432 
" style="fill: none; stroke: #000000; stroke-width: 0.8; stroke-linejoin: miter; stroke-linecap: square"/>
   </g>
   <g id="patch_6">
    <path d="M 57.6 41.472 
L 414.72 41.472 
" style="fill: none; stroke: #000000; stroke-width: 0.8; stroke-linejoin: miter; stroke-linecap: square"/>
   </g>
   <g id="text_12">
    <!-- WSP -->
    <g transform="translate(361.832136 61.465851)scale(0.08 -0.08)">
     <defs>
      <path id="DejaVuSans-57" d="M 213 4666 
L 850 4666 
L 1831 722 
L 2809 4666 
L 3519 4666 
L 4500 722 
L 5478 4666 
L 6119 4666 
L 4947 0 
L 4153 0 
L 3169 4050 
L 2175 0 
L 1381 0 
L 213 4666 
z
" transform="scale(0.015625)"/>
      <path id="DejaVuSans-53" d="M 3425 4513 
L 3425 3897 
Q 3066 4069 2747 4153 
Q 2428 4238 2131 4238 
Q 1616 4238 1336 4038 
Q 1056 3838 1056 3469 
Q 1056 3159 1242 3001 
Q 1428 2844 1947 2747 
L 2328 2669 
Q 3034 2534 3370 2195 
Q 3706 1856 3706 1288 
Q 3706 609 3251 259 
Q 2797 -91 1919 -91 
Q 1588 -91 1214 -16 
Q 841 59 441 206 
L 441 856 
Q 825 641 1194 531 
Q 1563 422 1919 422 
Q 2459 422 2753 634 
Q 3047 847 3047 1241 
Q 3047 1584 2836 1778 
Q 2625 1972 2144 2069 
L 1759 2144 
Q 1053 2284 737 2584 
Q 422 2884 422 3419 
Q 422 4038 858 4394 
Q 1294 4750 2059 4750 
Q 2388 4750 2728 4690 
Q 3069 4631 3425 4513 
z
" transform="scale(0.015625)"/>
      <path id="DejaVuSans-50" d="M 1259 4147 
L 1259 2394 
L 2053 2394 
Q 2494 2394 2734 2622 
Q 2975 2850 2975 3272 
Q 2975 3691 2734 3919 
Q 2494 4147 2053 4147 
L 1259 4147 
z
M 628 4666 
L 2053 4666 
Q 2838 4666 3239 4311 
Q 3641 3956 3641 3272 
Q 3641 2581 3239 2228 
Q 2838 1875 2053 1875 
L 1259 1875 
L 1259 0 
L 628 0 
L 628 4666 
z
" transform="scale(0.015625)"/>
     </defs>
     <use xlink:href="#DejaVuSans-57"/>
     <use xlink:href="#DejaVuSans-53" x="98.876953"/>
     <use xlink:href="#DejaVuSans-50" x="162.353516"/>
    </g>
   </g>
   <g id="text_13">
    <!-- Iambic -->
    <g transform="translate(361.832136 71.38394)scale(0.08 -0.08)">
     <defs>
      <path id="DejaVuSans-49" d="M 628 4666 
L 1259 4666 
L 1259 0 
L 628 0 
L 628 4666 
z
" transform="scale(0.015625)"/>
      <path id="DejaVuSans-61" d="M 2194 1759 
Q 1497 1759 1228 1600 
Q 959 1441 959 1056 
Q 959 750 1161 570 
Q 1363 391 1709 391 
Q 2188 391 2477 730 
Q 2766 1069 2766 1631 
L 2766 1759 
L 2194 1759 
z
M 3341 1997 
L 3341 0 
L 2766 0 
L 2766 531 
Q 2569 213 2275 61 
Q 1981 -91 1556 -91 
Q 1019 -91 701 211 
Q 384 513 384 1019 
Q 384 1609 779 1909 
Q 1175 2209 1959 2209 
L 2766 2209 
L 2766 2266 
Q 2766 2663 2505 2880 
Q 2244 3097 1772 3097 
Q 1472 3097 1187 3025 
Q 903 2953 641 2809 
L 641 3341 
Q 956 3463 1253 3523 
Q 1550 3584 1831 3584 
Q 2591 3584 2966 3190 
Q 3341 2797 3341 1997 
z
" transform="scale(0.015625)"/>
      <path id="DejaVuSans-6d" d="M 3328 2828 
Q 3544 3216 3844 3400 
Q 4144 3584 4550 3584 
Q 5097 3584 5394 3201 
Q 5691 2819 5691 2113 
L 5691 0 
L 5113 0 
L 5113 2094 
Q 5113 2597 4934 2840 
Q 4756 3084 4391 3084 
Q 3944 3084 3684 2787 
Q 3425 2491 3425 1978 
L 3425 0 
L 2847 0 
L 2847 2094 
Q 2847 2600 2669 2842 
Q 2491 3084 2119 3084 
Q 1678 3084 1418 2786 
Q 1159 2488 1159 1978 
L 1159 0 
L 581 0 
L 581 3500 
L 1159 3500 
L 1159 2956 
Q 1356 3278 1631 3431 
Q 1906 3584 2284 3584 
Q 2666 3584 2933 3390 
Q 3200 3197 3328 2828 
z
" transform="scale(0.015625)"/>
      <path id="DejaVuSans-62" d="M 3116 1747 
Q 3116 2381 2855 2742 
Q 2594 3103 2138 3103 
Q 1681 3103 1420 2742 
Q 1159 2381 1159 1747 
Q 1159 1113 1420 752 
Q 1681 391 2138 391 
Q 2594 391 2855 752 
Q 3116 1113 3116 1747 
z
M 1159 2969 
Q 1341 3281 1617 3432 
Q 1894 3584 2278 3584 
Q 2916 3584 3314 3078 
Q 3713 2572 3713 1747 
Q 3713 922 3314 415 
Q 2916 -91 2278 -91 
Q 1894 -91 1617 61 
Q 1341 213 1159 525 
L 1159 0 
L 581 0 
L 581 4863 
L 1159 4863 
L 1159 2969 
z
" transform="scale(0.015625)"/>
      <path id="DejaVuSans-69" d="M 603 3500 
L 1178 3500 
L 1178 0 
L 603 0 
L 603 3500 
z
M 603 4863 
L 1178 4863 
L 1178 4134 
L 603 4134 
L 603 4863 
z
" transform="scale(0.015625)"/>
      <path id="DejaVuSans-63" d="M 3122 3366 
L 3122 2828 
Q 2878 2963 2633 3030 
Q 2388 3097 2138 3097 
Q 1578 3097 1268 2742 
Q 959 2388 959 1747 
Q 959 1106 1268 751 
Q 1578 397 2138 397 
Q 2388 397 2633 464 
Q 2878 531 3122 666 
L 3122 134 
Q 2881 22 2623 -34 
Q 2366 -91 2075 -91 
Q 1284 -91 818 406 
Q 353 903 353 1747 
Q 353 2603 823 3093 
Q 1294 3584 2113 3584 
Q 2378 3584 2631 3529 
Q 2884 3475 3122 3366 
z
" transform="scale(0.015625)"/>
     </defs>
     <use xlink:href="#DejaVuSans-49"/>
     <use xlink:href="#DejaVuSans-61" x="29.492188"/>
     <use xlink:href="#DejaVuSans-6d" x="90.771484"/>
     <use xlink:href="#DejaVuSans-62" x="188.183594"/>
     <use xlink:href="#DejaVuSans-69" x="251.660156"/>
     <use xlink:href="#DejaVuSans-63" x="279.443359"/>
    </g>
   </g>
   <g id="text_14">
    <!-- Parse -->
    <g transform="translate(361.832136 66.29774)scale(0.08 -0.08)">
     <defs>
      <path id="DejaVuSans-72" d="M 2631 2963 
Q 2534 3019 2420 3045 
Q 2306 3072 2169 3072 
Q 1681 3072 1420 2755 
Q 1159 2438 1159 1844 
L 1159 0 
L 581 0 
L 581 3500 
L 1159 3500 
L 1159 2956 
Q 1341 3275 1631 3429 
Q 1922 3584 2338 3584 
Q 2397 3584 2469 3576 
Q 2541 3569 2628 3553 
L 2631 2963 
z
" transform="scale(0.015625)"/>
      <path id="DejaVuSans-73" d="M 2834 3397 
L 2834 2853 
Q 2591 2978 2328 3040 
Q 2066 3103 1784 3103 
Q 1356 3103 1142 2972 
Q 928 2841 928 2578 
Q 928 2378 1081 2264 
Q 1234 2150 1697 2047 
L 1894 2003 
Q 2506 1872 2764 1633 
Q 3022 1394 3022 966 
Q 3022 478 2636 193 
Q 2250 -91 1575 -91 
Q 1294 -91 989 -36 
Q 684 19 347 128 
L 347 722 
Q 666 556 975 473 
Q 1284 391 1588 391 
Q 1994 391 2212 530 
Q 2431 669 2431 922 
Q 2431 1156 2273 1281 
Q 2116 1406 1581 1522 
L 1381 1569 
Q 847 1681 609 1914 
Q 372 2147 372 2553 
Q 372 3047 722 3315 
Q 1072 3584 1716 3584 
Q 2034 3584 2315 3537 
Q 2597 3491 2834 3397 
z
" transform="scale(0.015625)"/>
      <path id="DejaVuSans-65" d="M 3597 1894 
L 3597 1613 
L 953 1613 
Q 991 1019 1311 708 
Q 1631 397 2203 397 
Q 2534 397 2845 478 
Q 3156 559 3463 722 
L 3463 178 
Q 3153 47 2828 -22 
Q 2503 -91 2169 -91 
Q 1331 -91 842 396 
Q 353 884 353 1716 
Q 353 2575 817 3079 
Q 1281 3584 2069 3584 
Q 2775 3584 3186 3129 
Q 3597 2675 3597 1894 
z
M 3022 2063 
Q 3016 2534 2758 2815 
Q 2500 3097 2075 3097 
Q 1594 3097 1305 2825 
Q 1016 2553 972 2059 
L 3022 2063 
z
" transform="scale(0.015625)"/>
     </defs>
     <use xlink:href="#DejaVuSans-50"/>
     <use xlink:href="#DejaVuSans-61" x="55.802734"/>
     <use xlink:href="#DejaVuSans-72" x="117.082031"/>
     <use xlink:href="#DejaVuSans-73" x="158.195312"/>
     <use xlink:href="#DejaVuSans-65" x="210.294922"/>
    </g>
   </g>
   <g id="text_15">
    <!-- FootBin -->
    <g transform="translate(361.832136 46.970182)scale(0.08 -0.08)">
     <defs>
      <path id="DejaVuSans-46" d="M 628 4666 
L 3309 4666 
L 3309 4134 
L 1259 4134 
L 1259 2759 
L 3109 2759 
L 3109 2228 
L 1259 2228 
L 1259 0 
L 628 0 
L 628 4666 
z
" transform="scale(0.015625)"/>
      <path id="DejaVuSans-6f" d="M 1959 3097 
Q 1497 3097 1228 2736 
Q 959 2375 959 1747 
Q 959 1119 1226 758 
Q 1494 397 1959 397 
Q 2419 397 2687 759 
Q 2956 1122 2956 1747 
Q 2956 2369 2687 2733 
Q 2419 3097 1959 3097 
z
M 1959 3584 
Q 2709 3584 3137 3096 
Q 3566 2609 3566 1747 
Q 3566 888 3137 398 
Q 2709 -91 1959 -91 
Q 1206 -91 779 398 
Q 353 888 353 1747 
Q 353 2609 779 3096 
Q 1206 3584 1959 3584 
z
" transform="scale(0.015625)"/>
      <path id="DejaVuSans-74" d="M 1172 4494 
L 1172 3500 
L 2356 3500 
L 2356 3053 
L 1172 3053 
L 1172 1153 
Q 1172 725 1289 603 
Q 1406 481 1766 481 
L 2356 481 
L 2356 0 
L 1766 0 
Q 1100 0 847 248 
Q 594 497 594 1153 
L 594 3053 
L 172 3053 
L 172 3500 
L 594 3500 
L 594 4494 
L 1172 4494 
z
" transform="scale(0.015625)"/>
      <path id="DejaVuSans-42" d="M 1259 2228 
L 1259 519 
L 2272 519 
Q 2781 519 3026 730 
Q 3272 941 3272 1375 
Q 3272 1813 3026 2020 
Q 2781 2228 2272 2228 
L 1259 2228 
z
M 1259 4147 
L 1259 2741 
L 2194 2741 
Q 2656 2741 2882 2914 
Q 3109 3088 3109 3444 
Q 3109 3797 2882 3972 
Q 2656 4147 2194 4147 
L 1259 4147 
z
M 628 4666 
L 2241 4666 
Q 2963 4666 3353 4366 
Q 3744 4066 3744 3513 
Q 3744 3084 3544 2831 
Q 3344 2578 2956 2516 
Q 3422 2416 3680 2098 
Q 3938 1781 3938 1306 
Q 3938 681 3513 340 
Q 3088 0 2303 0 
L 628 0 
L 628 4666 
z
" transform="scale(0.015625)"/>
      <path id="DejaVuSans-6e" d="M 3513 2113 
L 3513 0 
L 2938 0 
L 2938 2094 
Q 2938 2591 2744 2837 
Q 2550 3084 2163 3084 
Q 1697 3084 1428 2787 
Q 1159 2491 1159 1978 
L 1159 0 
L 581 0 
L 581 3500 
L 1159 3500 
L 1159 2956 
Q 1366 3272 1645 3428 
Q 1925 3584 2291 3584 
Q 2894 3584 3203 3211 
Q 3513 2838 3513 2113 
z
" transform="scale(0.015625)"/>
     </defs>
     <use xlink:href="#DejaVuSans-46"/>
     <use xlink:href="#DejaVuSans-6f" x="53.894531"/>
     <use xlink:href="#DejaVuSans-6f" x="115.076172"/>
     <use xlink:href="#DejaVuSans-74" x="176.257812"/>
     <use xlink:href="#DejaVuSans-42" x="215.466797"/>
     <use xlink:href="#DejaVuSans-69" x="284.070312"/>
     <use xlink:href="#DejaVuSans-6e" x="311.853516"/>
    </g>
   </g>
   <g id="text_16">
    <!-- WFL -->
    <g transform="translate(361.832136 54.497757)scale(0.08 -0.08)">
     <defs>
      <path id="DejaVuSans-4c" d="M 628 4666 
L 1259 4666 
L 1259 531 
L 3531 531 
L 3531 0 
L 628 0 
L 628 4666 
z
" transform="scale(0.015625)"/>
     </defs>
     <use xlink:href="#DejaVuSans-57"/>
     <use xlink:href="#DejaVuSans-46" x="98.876953"/>
     <use xlink:href="#DejaVuSans-4c" x="156.396484"/>
    </g>
   </g>
   <g id="text_17">
    <!-- WFR -->
    <g transform="translate(361.832136 48.9538)scale(0.08 -0.08)">
     <defs>
      <path id="DejaVuSans-52" d="M 2841 2188 
Q 3044 2119 3236 1894 
Q 3428 1669 3622 1275 
L 4263 0 
L 3584 0 
L 2988 1197 
Q 2756 1666 2539 1819 
Q 2322 1972 1947 1972 
L 1259 1972 
L 1259 0 
L 628 0 
L 628 4666 
L 2053 4666 
Q 2853 4666 3247 4331 
Q 3641 3997 3641 3322 
Q 3641 2881 3436 2590 
Q 3231 2300 2841 2188 
z
M 1259 4147 
L 1259 2491 
L 2053 2491 
Q 2509 2491 2742 2702 
Q 2975 2913 2975 3322 
Q 2975 3731 2742 3939 
Q 2509 4147 2053 4147 
L 1259 4147 
z
" transform="scale(0.015625)"/>
     </defs>
     <use xlink:href="#DejaVuSans-57"/>
     <use xlink:href="#DejaVuSans-46" x="98.876953"/>
     <use xlink:href="#DejaVuSans-52" x="156.396484"/>
    </g>
   </g>
   <g id="text_18">
    <!-- Main-L -->
    <g transform="translate(361.832136 52.361553)scale(0.08 -0.08)">
     <defs>
      <path id="DejaVuSans-4d" d="M 628 4666 
L 1569 4666 
L 2759 1491 
L 3956 4666 
L 4897 4666 
L 4897 0 
L 4281 0 
L 4281 4097 
L 3078 897 
L 2444 897 
L 1241 4097 
L 1241 0 
L 628 0 
L 628 4666 
z
" transform="scale(0.015625)"/>
      <path id="DejaVuSans-2d" d="M 313 2009 
L 1997 2009 
L 1997 1497 
L 313 1497 
L 313 2009 
z
" transform="scale(0.015625)"/>
     </defs>
     <use xlink:href="#DejaVuSans-4d"/>
     <use xlink:href="#DejaVuSans-61" x="86.279297"/>
     <use xlink:href="#DejaVuSans-69" x="147.558594"/>
     <use xlink:href="#DejaVuSans-6e" x="175.341797"/>
     <use xlink:href="#DejaVuSans-2d" x="238.720703"/>
     <use xlink:href="#DejaVuSans-4c" x="274.804688"/>
    </g>
   </g>
   <g id="text_19">
    <!-- Main-R -->
    <g transform="translate(361.832136 71.943422)scale(0.08 -0.08)">
     <use xlink:href="#DejaVuSans-4d"/>
     <use xlink:href="#DejaVuSans-61" x="86.279297"/>
     <use xlink:href="#DejaVuSans-69" x="147.558594"/>
     <use xlink:href="#DejaVuSans-6e" x="175.341797"/>
     <use xlink:href="#DejaVuSans-2d" x="238.720703"/>
     <use xlink:href="#DejaVuSans-52" x="274.804688"/>
    </g>
   </g>
   <g id="text_20">
    <!-- AFL -->
    <g transform="translate(361.832136 156.933818)scale(0.08 -0.08)">
     <defs>
      <path id="DejaVuSans-41" d="M 2188 4044 
L 1331 1722 
L 3047 1722 
L 2188 4044 
z
M 1831 4666 
L 2547 4666 
L 4325 0 
L 3669 0 
L 3244 1197 
L 1141 1197 
L 716 0 
L 50 0 
L 1831 4666 
z
" transform="scale(0.015625)"/>
     </defs>
     <use xlink:href="#DejaVuSans-41"/>
     <use xlink:href="#DejaVuSans-46" x="68.408203"/>
     <use xlink:href="#DejaVuSans-4c" x="125.927734"/>
    </g>
   </g>
   <g id="text_21">
    <!-- AFR -->
    <g transform="translate(361.832136 103.884756)scale(0.08 -0.08)">
     <use xlink:href="#DejaVuSans-41"/>
     <use xlink:href="#DejaVuSans-46" x="68.408203"/>
     <use xlink:href="#DejaVuSans-52" x="125.927734"/>
    </g>
   </g>
   <g id="text_22">
    <!-- Nonfinal -->
    <g transform="translate(361.832136 57.854649)scale(0.08 -0.08)">
     <defs>
      <path id="DejaVuSans-4e" d="M 628 4666 
L 1478 4666 
L 3547 763 
L 3547 4666 
L 4159 4666 
L 4159 0 
L 3309 0 
L 1241 3903 
L 1241 0 
L 628 0 
L 628 4666 
z
" transform="scale(0.015625)"/>
      <path id="DejaVuSans-66" d="M 2375 4863 
L 2375 4384 
L 1825 4384 
Q 1516 4384 1395 4259 
Q 1275 4134 1275 3809 
L 1275 3500 
L 2222 3500 
L 2222 3053 
L 1275 3053 
L 1275 0 
L 697 0 
L 697 3053 
L 147 3053 
L 147 3500 
L 697 3500 
L 697 3744 
Q 697 4328 969 4595 
Q 1241 4863 1831 4863 
L 2375 4863 
z
" transform="scale(0.015625)"/>
      <path id="DejaVuSans-6c" d="M 603 4863 
L 1178 4863 
L 1178 0 
L 603 0 
L 603 4863 
z
" transform="scale(0.015625)"/>
     </defs>
     <use xlink:href="#DejaVuSans-4e"/>
     <use xlink:href="#DejaVuSans-6f" x="74.804688"/>
     <use xlink:href="#DejaVuSans-6e" x="135.986328"/>
     <use xlink:href="#DejaVuSans-66" x="199.365234"/>
     <use xlink:href="#DejaVuSans-69" x="234.570312"/>
     <use xlink:href="#DejaVuSans-6e" x="262.353516"/>
     <use xlink:href="#DejaVuSans-61" x="325.732422"/>
     <use xlink:href="#DejaVuSans-6c" x="387.011719"/>
    </g>
   </g>
   <g id="text_23">
    <!-- Trochaic -->
    <g transform="translate(361.832136 56.125341)scale(0.08 -0.08)">
     <defs>
      <path id="DejaVuSans-54" d="M -19 4666 
L 3928 4666 
L 3928 4134 
L 2272 4134 
L 2272 0 
L 1638 0 
L 1638 4134 
L -19 4134 
L -19 4666 
z
" transform="scale(0.015625)"/>
      <path id="DejaVuSans-68" d="M 3513 2113 
L 3513 0 
L 2938 0 
L 2938 2094 
Q 2938 2591 2744 2837 
Q 2550 3084 2163 3084 
Q 1697 3084 1428 2787 
Q 1159 2491 1159 1978 
L 1159 0 
L 581 0 
L 581 4863 
L 1159 4863 
L 1159 2956 
Q 1366 3272 1645 3428 
Q 1925 3584 2291 3584 
Q 2894 3584 3203 3211 
Q 3513 2838 3513 2113 
z
" transform="scale(0.015625)"/>
     </defs>
     <use xlink:href="#DejaVuSans-54"/>
     <use xlink:href="#DejaVuSans-72" x="46.333984"/>
     <use xlink:href="#DejaVuSans-6f" x="85.197266"/>
     <use xlink:href="#DejaVuSans-63" x="146.378906"/>
     <use xlink:href="#DejaVuSans-68" x="201.359375"/>
     <use xlink:href="#DejaVuSans-61" x="264.738281"/>
     <use xlink:href="#DejaVuSans-69" x="326.017578"/>
     <use xlink:href="#DejaVuSans-63" x="353.800781"/>
    </g>
   </g>
  </g>
  <g id="axes_2">
   <g id="patch_7">
    <path d="M 57.6 307.584 
L 414.72 307.584 
L 414.72 186.624 
L 57.6 186.624 
z
" style="fill: #ffffff"/>
   </g>
   <g id="matplotlib.axis_3">
    <g id="xtick_8">
     <g id="line2d_24">
      <g>
       <use xlink:href="#m7dae75e5ba" x="72.952905" y="307.584" style="stroke: #000000; stroke-width: 0.8"/>
      </g>
     </g>
     <g id="text_24">
      <!-- 0 -->
      <g transform="translate(69.771655 322.182437)scale(0.1 -0.1)">
       <use xlink:href="#DejaVuSans-30"/>
      </g>
     </g>
    </g>
    <g id="xtick_9">
     <g id="line2d_25">
      <g>
       <use xlink:href="#m7dae75e5ba" x="116.944035" y="307.584" style="stroke: #000000; stroke-width: 0.8"/>
      </g>
     </g>
     <g id="text_25">
      <!-- 50 -->
      <g transform="translate(110.581535 322.182437)scale(0.1 -0.1)">
       <use xlink:href="#DejaVuSans-35"/>
       <use xlink:href="#DejaVuSans-30" x="63.623047"/>
      </g>
     </g>
    </g>
    <g id="xtick_10">
     <g id="line2d_26">
      <g>
       <use xlink:href="#m7dae75e5ba" x="160.935166" y="307.584" style="stroke: #000000; stroke-width: 0.8"/>
      </g>
     </g>
     <g id="text_26">
      <!-- 100 -->
      <g transform="translate(151.391416 322.182437)scale(0.1 -0.1)">
       <use xlink:href="#DejaVuSans-31"/>
       <use xlink:href="#DejaVuSans-30" x="63.623047"/>
       <use xlink:href="#DejaVuSans-30" x="127.246094"/>
      </g>
     </g>
    </g>
    <g id="xtick_11">
     <g id="line2d_27">
      <g>
       <use xlink:href="#m7dae75e5ba" x="204.926297" y="307.584" style="stroke: #000000; stroke-width: 0.8"/>
      </g>
     </g>
     <g id="text_27">
      <!-- 150 -->
      <g transform="translate(195.382547 322.182437)scale(0.1 -0.1)">
       <use xlink:href="#DejaVuSans-31"/>
       <use xlink:href="#DejaVuSans-35" x="63.623047"/>
       <use xlink:href="#DejaVuSans-30" x="127.246094"/>
      </g>
     </g>
    </g>
    <g id="xtick_12">
     <g id="line2d_28">
      <g>
       <use xlink:href="#m7dae75e5ba" x="248.917428" y="307.584" style="stroke: #000000; stroke-width: 0.8"/>
      </g>
     </g>
     <g id="text_28">
      <!-- 200 -->
      <g transform="translate(239.373678 322.182437)scale(0.1 -0.1)">
       <use xlink:href="#DejaVuSans-32"/>
       <use xlink:href="#DejaVuSans-30" x="63.623047"/>
       <use xlink:href="#DejaVuSans-30" x="127.246094"/>
      </g>
     </g>
    </g>
    <g id="xtick_13">
     <g id="line2d_29">
      <g>
       <use xlink:href="#m7dae75e5ba" x="292.908559" y="307.584" style="stroke: #000000; stroke-width: 0.8"/>
      </g>
     </g>
     <g id="text_29">
      <!-- 250 -->
      <g transform="translate(283.364809 322.182437)scale(0.1 -0.1)">
       <use xlink:href="#DejaVuSans-32"/>
       <use xlink:href="#DejaVuSans-35" x="63.623047"/>
       <use xlink:href="#DejaVuSans-30" x="127.246094"/>
      </g>
     </g>
    </g>
    <g id="xtick_14">
     <g id="line2d_30">
      <g>
       <use xlink:href="#m7dae75e5ba" x="336.89969" y="307.584" style="stroke: #000000; stroke-width: 0.8"/>
      </g>
     </g>
     <g id="text_30">
      <!-- 300 -->
      <g transform="translate(327.35594 322.182437)scale(0.1 -0.1)">
       <use xlink:href="#DejaVuSans-33"/>
       <use xlink:href="#DejaVuSans-30" x="63.623047"/>
       <use xlink:href="#DejaVuSans-30" x="127.246094"/>
      </g>
     </g>
    </g>
    <g id="xtick_15">
     <g id="line2d_31">
      <g>
       <use xlink:href="#m7dae75e5ba" x="380.89082" y="307.584" style="stroke: #000000; stroke-width: 0.8"/>
      </g>
     </g>
     <g id="text_31">
      <!-- 350 -->
      <g transform="translate(371.34707 322.182437)scale(0.1 -0.1)">
       <use xlink:href="#DejaVuSans-33"/>
       <use xlink:href="#DejaVuSans-35" x="63.623047"/>
       <use xlink:href="#DejaVuSans-30" x="127.246094"/>
      </g>
     </g>
    </g>
   </g>
   <g id="matplotlib.axis_4">
    <g id="ytick_5">
     <g id="line2d_32">
      <g>
       <use xlink:href="#m640589403a" x="57.6" y="302.145842" style="stroke: #000000; stroke-width: 0.8"/>
      </g>
     </g>
     <g id="text_32">
      <!-- 0 -->
      <g transform="translate(44.2375 305.945061)scale(0.1 -0.1)">
       <use xlink:href="#DejaVuSans-30"/>
      </g>
     </g>
    </g>
    <g id="ytick_6">
     <g id="line2d_33">
      <g>
       <use xlink:href="#m640589403a" x="57.6" y="272.133933" style="stroke: #000000; stroke-width: 0.8"/>
      </g>
     </g>
     <g id="text_33">
      <!-- 500 -->
      <g transform="translate(31.5125 275.933151)scale(0.1 -0.1)">
       <use xlink:href="#DejaVuSans-35"/>
       <use xlink:href="#DejaVuSans-30" x="63.623047"/>
       <use xlink:href="#DejaVuSans-30" x="127.246094"/>
      </g>
     </g>
    </g>
    <g id="ytick_7">
     <g id="line2d_34">
      <g>
       <use xlink:href="#m640589403a" x="57.6" y="242.122023" style="stroke: #000000; stroke-width: 0.8"/>
      </g>
     </g>
     <g id="text_34">
      <!-- 1000 -->
      <g transform="translate(25.15 245.921242)scale(0.1 -0.1)">
       <use xlink:href="#DejaVuSans-31"/>
       <use xlink:href="#DejaVuSans-30" x="63.623047"/>
       <use xlink:href="#DejaVuSans-30" x="127.246094"/>
       <use xlink:href="#DejaVuSans-30" x="190.869141"/>
      </g>
     </g>
    </g>
    <g id="ytick_8">
     <g id="line2d_35">
      <g>
       <use xlink:href="#m640589403a" x="57.6" y="212.110114" style="stroke: #000000; stroke-width: 0.8"/>
      </g>
     </g>
     <g id="text_35">
      <!-- 1500 -->
      <g transform="translate(25.15 215.909332)scale(0.1 -0.1)">
       <use xlink:href="#DejaVuSans-31"/>
       <use xlink:href="#DejaVuSans-35" x="63.623047"/>
       <use xlink:href="#DejaVuSans-30" x="127.246094"/>
       <use xlink:href="#DejaVuSans-30" x="190.869141"/>
      </g>
     </g>
    </g>
   </g>
   <g id="line2d_36">
    <path d="M 73.832727 302.085818 
L 77.352018 302.025794 
L 78.23184 301.965771 
L 79.991486 302.025794 
L 85.270421 302.085818 
L 86.150244 301.785699 
L 87.030067 301.905747 
L 87.909889 301.905747 
L 88.789712 302.085818 
L 89.669534 302.085818 
L 90.549357 301.965771 
L 91.42918 302.085818 
L 93.188825 301.905747 
L 94.068647 302.025794 
L 94.94847 301.845723 
L 95.828293 301.965771 
L 98.467761 301.785699 
L 99.347583 301.965771 
L 101.107228 302.025794 
L 102.866874 302.085818 
L 103.746696 302.025794 
L 104.626519 302.085818 
L 105.506341 301.725675 
L 106.386164 302.085818 
L 107.265987 302.025794 
L 108.145809 301.545604 
L 109.025632 301.965771 
L 109.905455 302.085818 
L 112.544922 302.085818 
L 113.424745 301.845723 
L 114.304568 301.725675 
L 115.18439 302.085818 
L 117.823858 302.085818 
L 118.703681 301.965771 
L 119.583503 300.765294 
L 120.463326 301.725675 
L 121.343149 301.245485 
L 122.222971 301.245485 
L 123.102794 301.605628 
L 123.982616 300.525199 
L 124.862439 301.665651 
L 125.742262 301.785699 
L 126.622084 301.48558 
L 127.501907 301.665651 
L 128.381729 300.765294 
L 129.261552 301.605628 
L 130.141375 301.965771 
L 131.021197 301.905747 
L 131.90102 301.965771 
L 132.780843 301.605628 
L 133.660665 301.665651 
L 134.540488 301.125437 
L 136.300133 301.965771 
L 137.179956 300.405151 
L 138.059778 301.365532 
L 138.939601 301.785699 
L 139.819424 301.185461 
L 140.699246 301.905747 
L 141.579069 302.025794 
L 142.458891 301.665651 
L 143.338714 298.96458 
L 144.218537 301.605628 
L 145.098359 301.125437 
L 145.978182 301.605628 
L 146.858004 300.045008 
L 147.737827 301.965771 
L 148.61765 301.845723 
L 149.497472 301.065413 
L 150.377295 301.725675 
L 151.257118 302.025794 
L 152.13694 301.965771 
L 153.016763 301.48558 
L 153.896585 301.365532 
L 154.776408 300.765294 
L 155.656231 299.624842 
L 156.536053 301.905747 
L 157.415876 300.945366 
L 158.295698 301.48558 
L 159.175521 301.185461 
L 160.055344 298.664461 
L 160.935166 300.285104 
L 161.814989 300.70527 
L 162.694812 301.665651 
L 163.574634 301.725675 
L 164.454457 301.305509 
L 165.334279 301.125437 
L 166.214102 297.944175 
L 167.093925 301.545604 
L 167.973747 301.065413 
L 168.85357 300.405151 
L 169.733392 296.683674 
L 170.613215 298.424365 
L 171.493038 301.125437 
L 172.37286 301.48558 
L 173.252683 299.324723 
L 174.132506 302.085818 
L 175.012328 301.365532 
L 175.892151 297.043817 
L 176.771973 300.825318 
L 177.651796 300.345127 
L 178.531619 295.843341 
L 180.291264 301.065413 
L 181.171086 301.785699 
L 182.050909 299.924961 
L 182.930732 300.765294 
L 183.810554 297.944175 
L 184.690377 301.665651 
L 185.5702 302.025794 
L 186.450022 281.497648 
L 187.329845 301.005389 
L 188.209667 299.264699 
L 189.08949 301.665651 
L 189.969313 302.085818 
L 190.849135 300.645247 
L 191.728958 297.343936 
L 192.60878 298.004198 
L 193.488603 301.065413 
L 194.368426 301.845723 
L 195.248248 302.085818 
L 196.128071 299.804913 
L 197.007894 295.243103 
L 197.887716 300.22508 
L 198.767539 298.004198 
L 199.647361 301.905747 
L 200.527184 300.045008 
L 201.407007 301.245485 
L 202.286829 301.065413 
L 203.166652 301.845723 
L 204.046475 299.624842 
L 204.926297 294.042626 
L 205.80612 299.564818 
L 206.685942 294.642865 
L 207.565765 299.324723 
L 208.445588 296.983794 
L 210.205233 298.724484 
L 211.085055 296.383555 
L 211.964878 290.201102 
L 212.844701 300.165056 
L 213.724523 300.765294 
L 214.604346 300.645247 
L 215.484169 298.844532 
L 216.363991 295.183079 
L 217.243814 296.743698 
L 218.123636 300.945366 
L 219.003459 300.945366 
L 219.883282 301.905747 
L 220.763104 300.465175 
L 221.642927 301.065413 
L 222.522749 298.484389 
L 223.402572 289.780935 
L 224.282395 284.318768 
L 225.162217 270.153146 
L 226.04204 293.082245 
L 226.921863 301.725675 
L 227.801685 286.959816 
L 228.681508 301.785699 
L 229.56133 301.425556 
L 230.441153 297.584032 
L 231.320976 297.584032 
L 232.200798 289.600864 
L 233.080621 299.564818 
L 233.960443 299.984985 
L 234.840266 295.423174 
L 235.720089 301.365532 
L 236.599911 297.103841 
L 237.479734 296.263508 
L 238.359557 294.10265 
L 239.239379 300.525199 
L 240.119202 301.845723 
L 240.999024 301.845723 
L 241.878847 297.704079 
L 242.75867 301.365532 
L 243.638492 301.665651 
L 244.518315 298.544413 
L 245.398137 301.305509 
L 246.27796 282.518053 
L 247.157783 272.494075 
L 248.037605 298.004198 
L 248.917428 300.585223 
L 249.797251 297.40396 
L 250.677073 286.539649 
L 251.556896 298.304318 
L 253.316541 300.22508 
L 254.196364 293.742507 
L 255.076186 296.14346 
L 255.956009 301.605628 
L 256.835831 299.684865 
L 257.715654 283.058268 
L 258.595477 302.085818 
L 259.475299 298.724484 
L 260.355122 301.605628 
L 261.234945 297.884151 
L 262.114767 301.785699 
L 262.99459 295.063031 
L 263.874412 290.861364 
L 264.754235 301.125437 
L 266.51388 288.580459 
L 267.393703 270.393242 
L 268.273525 291.461602 
L 269.153348 295.423174 
L 270.033171 275.615314 
L 270.912993 292.06184 
L 271.792816 290.861364 
L 272.672639 296.263508 
L 273.552461 283.71853 
L 274.432284 294.88296 
L 275.312106 286.719721 
L 276.191929 301.845723 
L 277.071752 286.299554 
L 277.951574 301.065413 
L 278.831397 273.754576 
L 279.71122 192.122182 
L 280.591042 299.984985 
L 281.470865 224.715116 
L 282.350687 277.356005 
L 283.23051 240.801499 
L 284.110333 267.332027 
L 284.990155 299.084627 
L 285.869978 253.646596 
L 286.7498 267.392051 
L 287.629623 287.980221 
L 288.509446 223.514639 
L 289.389268 266.611741 
L 290.269091 226.695902 
L 291.148914 292.542031 
L 292.028736 292.662079 
L 292.908559 230.477402 
L 293.788381 300.105032 
L 294.668204 275.375219 
L 295.548027 275.195147 
L 296.427849 219.1329 
L 297.307672 272.133933 
L 298.187494 299.984985 
L 299.067317 295.063031 
L 299.94714 253.106382 
L 300.826962 301.725675 
L 301.706785 300.045008 
L 302.586608 263.970693 
L 303.46643 272.25398 
L 304.346253 274.354814 
L 305.226075 283.178315 
L 306.105898 300.045008 
L 306.985721 286.119482 
L 307.865543 290.441197 
L 308.745366 289.420792 
L 309.625188 296.983794 
L 310.505011 297.463984 
L 311.384834 301.365532 
L 312.264656 299.804913 
L 313.144479 283.478434 
L 314.024302 294.402769 
L 314.904124 267.031908 
L 315.783947 297.584032 
L 316.663769 285.939411 
L 317.543592 299.984985 
L 318.423415 298.96458 
L 319.303237 273.154337 
L 320.18306 277.175933 
L 321.062882 293.502412 
L 321.942705 296.803722 
L 322.822528 298.604437 
L 323.70235 261.869859 
L 324.582173 259.588954 
L 325.461996 275.795385 
L 326.341818 242.122023 
L 327.221641 301.785699 
L 328.101463 289.720911 
L 328.981286 302.085818 
L 329.861109 230.537426 
L 330.740931 278.976648 
L 331.620754 282.758148 
L 332.500576 266.491694 
L 333.380399 298.484389 
L 334.260222 285.159101 
L 335.140044 262.770217 
L 336.019867 302.025794 
L 336.89969 289.420792 
L 337.779512 269.672956 
L 338.659335 282.578077 
L 339.539157 277.776171 
L 340.41898 294.582841 
L 341.298803 293.922579 
L 342.178625 302.085818 
L 343.058448 261.389669 
L 343.938271 294.942984 
L 344.818093 298.904556 
L 345.697916 296.803722 
L 346.577738 292.421983 
L 347.457561 292.722102 
L 348.337384 250.525358 
L 349.217206 299.864937 
L 350.097029 287.379983 
L 350.976851 296.683674 
L 351.856674 296.443579 
L 352.736497 264.690979 
L 353.616319 216.731948 
L 354.496142 272.374028 
L 355.375965 297.283913 
L 356.255787 256.107573 
L 357.13561 295.183079 
L 358.015432 271.473671 
L 358.895255 272.614123 
L 359.775078 299.744889 
L 360.6549 301.665651 
L 361.534723 300.825318 
L 362.414545 297.824127 
L 363.294368 288.580459 
L 364.174191 301.305509 
L 365.054013 286.779744 
L 365.933836 295.063031 
L 366.813659 297.463984 
L 367.693481 276.81579 
L 368.573304 301.965771 
L 369.453126 289.000626 
L 370.332949 267.031908 
L 371.212772 290.861364 
L 372.092594 299.324723 
L 372.972417 301.185461 
L 373.852239 286.959816 
L 374.732062 292.722102 
L 376.491707 243.982761 
L 377.37153 299.084627 
L 378.251353 288.640483 
L 379.131175 295.483198 
L 380.010998 299.504794 
L 380.89082 265.531312 
L 381.770643 262.710193 
L 382.650466 299.384746 
L 383.530288 299.804913 
L 384.410111 260.369264 
L 385.289933 281.917815 
L 386.169756 281.077482 
L 387.049579 299.624842 
L 387.929401 301.305509 
L 388.809224 260.069145 
L 389.689047 274.29479 
L 390.568869 299.264699 
L 391.448692 271.533694 
L 393.208337 302.085818 
L 394.08816 266.91186 
L 394.967982 258.26843 
L 395.847805 290.80134 
L 396.727627 250.045167 
L 397.60745 278.196338 
L 398.487273 301.365532 
L 398.487273 301.365532 
" clip-path="url(#pe0e0805e01)" style="fill: none; stroke: #1f77b4; stroke-width: 1.5; stroke-linecap: square"/>
   </g>
   <g id="patch_8">
    <path d="M 57.6 307.584 
L 57.6 186.624 
" style="fill: none; stroke: #000000; stroke-width: 0.8; stroke-linejoin: miter; stroke-linecap: square"/>
   </g>
   <g id="patch_9">
    <path d="M 414.72 307.584 
L 414.72 186.624 
" style="fill: none; stroke: #000000; stroke-width: 0.8; stroke-linejoin: miter; stroke-linecap: square"/>
   </g>
   <g id="patch_10">
    <path d="M 57.6 307.584 
L 414.72 307.584 
" style="fill: none; stroke: #000000; stroke-width: 0.8; stroke-linejoin: miter; stroke-linecap: square"/>
   </g>
   <g id="patch_11">
    <path d="M 57.6 186.624 
L 414.72 186.624 
" style="fill: none; stroke: #000000; stroke-width: 0.8; stroke-linejoin: miter; stroke-linecap: square"/>
   </g>
  </g>
 </g>
 <defs>
  <clipPath id="p8ac72afbbf">
   <rect x="57.6" y="41.472" width="357.12" height="120.96"/>
  </clipPath>
  <clipPath id="pe0e0805e01">
   <rect x="57.6" y="186.624" width="357.12" height="120.96"/>
  </clipPath>
 </defs>
</svg>
