<?xml version="1.0" encoding="utf-8" standalone="no"?>
<!DOCTYPE svg PUBLIC "-//W3C//DTD SVG 1.1//EN"
  "http://www.w3.org/Graphics/SVG/1.1/DTD/svg11.dtd">
<svg xmlns:xlink="http://www.w3.org/1999/xlink" width="460.8pt" height="345.6pt" viewBox="0 0 460.8 345.6" xmlns="http://www.w3.org/2000/svg" version="1.1">
 <metadata>
  <rdf:RDF xmlns:dc="http://purl.org/dc/elements/1.1/" xmlns:cc="http://creativecommons.org/ns#" xmlns:rdf="http://www.w3.org/1999/02/22-rdf-syntax-ns#">
   <cc:Work>
    <dc:type rdf:resource="http://purl.org/dc/dcmitype/StillImage"/>
    <dc:date>2022-05-13T16:27:32.161513</dc:date>
    <dc:format>image/svg+xml</dc:format>
    <dc:creator>
     <cc:Agent>
      <dc:title>Matplotlib v3.5.1, https://matplotlib.org/</dc:title>
     </cc:Agent>
    </dc:creator>
   </cc:Work>
  </rdf:RDF>
 </metadata>
 <defs>
  <style type="text/css">*{stroke-linejoin: round; stroke-linecap: butt}</style>
 </defs>
 <g id="figure_1">
  <g id="patch_1">
   <path d="M 0 345.6 
L 460.8 345.6 
L 460.8 0 
L 0 0 
z
" style="fill: #ffffff"/>
  </g>
  <g id="axes_1">
   <g id="patch_2">
    <path d="M 57.6 162.432 
L 414.72 162.432 
L 414.72 41.472 
L 57.6 41.472 
z
" style="fill: #ffffff"/>
   </g>
   <g id="matplotlib.axis_1">
    <g id="xtick_1">
     <g id="line2d_1">
      <defs>
       <path id="m830667a50e" d="M 0 0 
L 0 3.5 
" style="stroke: #000000; stroke-width: 0.8"/>
      </defs>
      <g>
       <use xlink:href="#m830667a50e" x="73.827491" y="162.432" style="stroke: #000000; stroke-width: 0.8"/>
      </g>
     </g>
     <g id="text_1">
      <!-- 0 -->
      <g transform="translate(70.646241 177.030437)scale(0.1 -0.1)">
       <defs>
        <path id="DejaVuSans-30" d="M 2034 4250 
Q 1547 4250 1301 3770 
Q 1056 3291 1056 2328 
Q 1056 1369 1301 889 
Q 1547 409 2034 409 
Q 2525 409 2770 889 
Q 3016 1369 3016 2328 
Q 3016 3291 2770 3770 
Q 2525 4250 2034 4250 
z
M 2034 4750 
Q 2819 4750 3233 4129 
Q 3647 3509 3647 2328 
Q 3647 1150 3233 529 
Q 2819 -91 2034 -91 
Q 1250 -91 836 529 
Q 422 1150 422 2328 
Q 422 3509 836 4129 
Q 1250 4750 2034 4750 
z
" transform="scale(0.015625)"/>
       </defs>
       <use xlink:href="#DejaVuSans-30"/>
      </g>
     </g>
    </g>
    <g id="xtick_2">
     <g id="line2d_2">
      <g>
       <use xlink:href="#m830667a50e" x="126.191972" y="162.432" style="stroke: #000000; stroke-width: 0.8"/>
      </g>
     </g>
     <g id="text_2">
      <!-- 10000 -->
      <g transform="translate(110.285722 177.030437)scale(0.1 -0.1)">
       <defs>
        <path id="DejaVuSans-31" d="M 794 531 
L 1825 531 
L 1825 4091 
L 703 3866 
L 703 4441 
L 1819 4666 
L 2450 4666 
L 2450 531 
L 3481 531 
L 3481 0 
L 794 0 
L 794 531 
z
" transform="scale(0.015625)"/>
       </defs>
       <use xlink:href="#DejaVuSans-31"/>
       <use xlink:href="#DejaVuSans-30" x="63.623047"/>
       <use xlink:href="#DejaVuSans-30" x="127.246094"/>
       <use xlink:href="#DejaVuSans-30" x="190.869141"/>
       <use xlink:href="#DejaVuSans-30" x="254.492188"/>
      </g>
     </g>
    </g>
    <g id="xtick_3">
     <g id="line2d_3">
      <g>
       <use xlink:href="#m830667a50e" x="178.556453" y="162.432" style="stroke: #000000; stroke-width: 0.8"/>
      </g>
     </g>
     <g id="text_3">
      <!-- 20000 -->
      <g transform="translate(162.650203 177.030437)scale(0.1 -0.1)">
       <defs>
        <path id="DejaVuSans-32" d="M 1228 531 
L 3431 531 
L 3431 0 
L 469 0 
L 469 531 
Q 828 903 1448 1529 
Q 2069 2156 2228 2338 
Q 2531 2678 2651 2914 
Q 2772 3150 2772 3378 
Q 2772 3750 2511 3984 
Q 2250 4219 1831 4219 
Q 1534 4219 1204 4116 
Q 875 4013 500 3803 
L 500 4441 
Q 881 4594 1212 4672 
Q 1544 4750 1819 4750 
Q 2544 4750 2975 4387 
Q 3406 4025 3406 3419 
Q 3406 3131 3298 2873 
Q 3191 2616 2906 2266 
Q 2828 2175 2409 1742 
Q 1991 1309 1228 531 
z
" transform="scale(0.015625)"/>
       </defs>
       <use xlink:href="#DejaVuSans-32"/>
       <use xlink:href="#DejaVuSans-30" x="63.623047"/>
       <use xlink:href="#DejaVuSans-30" x="127.246094"/>
       <use xlink:href="#DejaVuSans-30" x="190.869141"/>
       <use xlink:href="#DejaVuSans-30" x="254.492188"/>
      </g>
     </g>
    </g>
    <g id="xtick_4">
     <g id="line2d_4">
      <g>
       <use xlink:href="#m830667a50e" x="230.920934" y="162.432" style="stroke: #000000; stroke-width: 0.8"/>
      </g>
     </g>
     <g id="text_4">
      <!-- 30000 -->
      <g transform="translate(215.014684 177.030437)scale(0.1 -0.1)">
       <defs>
        <path id="DejaVuSans-33" d="M 2597 2516 
Q 3050 2419 3304 2112 
Q 3559 1806 3559 1356 
Q 3559 666 3084 287 
Q 2609 -91 1734 -91 
Q 1441 -91 1130 -33 
Q 819 25 488 141 
L 488 750 
Q 750 597 1062 519 
Q 1375 441 1716 441 
Q 2309 441 2620 675 
Q 2931 909 2931 1356 
Q 2931 1769 2642 2001 
Q 2353 2234 1838 2234 
L 1294 2234 
L 1294 2753 
L 1863 2753 
Q 2328 2753 2575 2939 
Q 2822 3125 2822 3475 
Q 2822 3834 2567 4026 
Q 2313 4219 1838 4219 
Q 1578 4219 1281 4162 
Q 984 4106 628 3988 
L 628 4550 
Q 988 4650 1302 4700 
Q 1616 4750 1894 4750 
Q 2613 4750 3031 4423 
Q 3450 4097 3450 3541 
Q 3450 3153 3228 2886 
Q 3006 2619 2597 2516 
z
" transform="scale(0.015625)"/>
       </defs>
       <use xlink:href="#DejaVuSans-33"/>
       <use xlink:href="#DejaVuSans-30" x="63.623047"/>
       <use xlink:href="#DejaVuSans-30" x="127.246094"/>
       <use xlink:href="#DejaVuSans-30" x="190.869141"/>
       <use xlink:href="#DejaVuSans-30" x="254.492188"/>
      </g>
     </g>
    </g>
    <g id="xtick_5">
     <g id="line2d_5">
      <g>
       <use xlink:href="#m830667a50e" x="283.285415" y="162.432" style="stroke: #000000; stroke-width: 0.8"/>
      </g>
     </g>
     <g id="text_5">
      <!-- 40000 -->
      <g transform="translate(267.379165 177.030437)scale(0.1 -0.1)">
       <defs>
        <path id="DejaVuSans-34" d="M 2419 4116 
L 825 1625 
L 2419 1625 
L 2419 4116 
z
M 2253 4666 
L 3047 4666 
L 3047 1625 
L 3713 1625 
L 3713 1100 
L 3047 1100 
L 3047 0 
L 2419 0 
L 2419 1100 
L 313 1100 
L 313 1709 
L 2253 4666 
z
" transform="scale(0.015625)"/>
       </defs>
       <use xlink:href="#DejaVuSans-34"/>
       <use xlink:href="#DejaVuSans-30" x="63.623047"/>
       <use xlink:href="#DejaVuSans-30" x="127.246094"/>
       <use xlink:href="#DejaVuSans-30" x="190.869141"/>
       <use xlink:href="#DejaVuSans-30" x="254.492188"/>
      </g>
     </g>
    </g>
    <g id="xtick_6">
     <g id="line2d_6">
      <g>
       <use xlink:href="#m830667a50e" x="335.649896" y="162.432" style="stroke: #000000; stroke-width: 0.8"/>
      </g>
     </g>
     <g id="text_6">
      <!-- 50000 -->
      <g transform="translate(319.743646 177.030437)scale(0.1 -0.1)">
       <defs>
        <path id="DejaVuSans-35" d="M 691 4666 
L 3169 4666 
L 3169 4134 
L 1269 4134 
L 1269 2991 
Q 1406 3038 1543 3061 
Q 1681 3084 1819 3084 
Q 2600 3084 3056 2656 
Q 3513 2228 3513 1497 
Q 3513 744 3044 326 
Q 2575 -91 1722 -91 
Q 1428 -91 1123 -41 
Q 819 9 494 109 
L 494 744 
Q 775 591 1075 516 
Q 1375 441 1709 441 
Q 2250 441 2565 725 
Q 2881 1009 2881 1497 
Q 2881 1984 2565 2268 
Q 2250 2553 1709 2553 
Q 1456 2553 1204 2497 
Q 953 2441 691 2322 
L 691 4666 
z
" transform="scale(0.015625)"/>
       </defs>
       <use xlink:href="#DejaVuSans-35"/>
       <use xlink:href="#DejaVuSans-30" x="63.623047"/>
       <use xlink:href="#DejaVuSans-30" x="127.246094"/>
       <use xlink:href="#DejaVuSans-30" x="190.869141"/>
       <use xlink:href="#DejaVuSans-30" x="254.492188"/>
      </g>
     </g>
    </g>
    <g id="xtick_7">
     <g id="line2d_7">
      <g>
       <use xlink:href="#m830667a50e" x="388.014377" y="162.432" style="stroke: #000000; stroke-width: 0.8"/>
      </g>
     </g>
     <g id="text_7">
      <!-- 60000 -->
      <g transform="translate(372.108127 177.030437)scale(0.1 -0.1)">
       <defs>
        <path id="DejaVuSans-36" d="M 2113 2584 
Q 1688 2584 1439 2293 
Q 1191 2003 1191 1497 
Q 1191 994 1439 701 
Q 1688 409 2113 409 
Q 2538 409 2786 701 
Q 3034 994 3034 1497 
Q 3034 2003 2786 2293 
Q 2538 2584 2113 2584 
z
M 3366 4563 
L 3366 3988 
Q 3128 4100 2886 4159 
Q 2644 4219 2406 4219 
Q 1781 4219 1451 3797 
Q 1122 3375 1075 2522 
Q 1259 2794 1537 2939 
Q 1816 3084 2150 3084 
Q 2853 3084 3261 2657 
Q 3669 2231 3669 1497 
Q 3669 778 3244 343 
Q 2819 -91 2113 -91 
Q 1303 -91 875 529 
Q 447 1150 447 2328 
Q 447 3434 972 4092 
Q 1497 4750 2381 4750 
Q 2619 4750 2861 4703 
Q 3103 4656 3366 4563 
z
" transform="scale(0.015625)"/>
       </defs>
       <use xlink:href="#DejaVuSans-36"/>
       <use xlink:href="#DejaVuSans-30" x="63.623047"/>
       <use xlink:href="#DejaVuSans-30" x="127.246094"/>
       <use xlink:href="#DejaVuSans-30" x="190.869141"/>
       <use xlink:href="#DejaVuSans-30" x="254.492188"/>
      </g>
     </g>
    </g>
   </g>
   <g id="matplotlib.axis_2">
    <g id="ytick_1">
     <g id="line2d_8">
      <defs>
       <path id="m00a5253c07" d="M 0 0 
L -3.5 0 
" style="stroke: #000000; stroke-width: 0.8"/>
      </defs>
      <g>
       <use xlink:href="#m00a5253c07" x="57.6" y="145.960968" style="stroke: #000000; stroke-width: 0.8"/>
      </g>
     </g>
     <g id="text_8">
      <!-- 0 -->
      <g transform="translate(44.2375 149.760187)scale(0.1 -0.1)">
       <use xlink:href="#DejaVuSans-30"/>
      </g>
     </g>
    </g>
    <g id="ytick_2">
     <g id="line2d_9">
      <g>
       <use xlink:href="#m00a5253c07" x="57.6" y="122.447717" style="stroke: #000000; stroke-width: 0.8"/>
      </g>
     </g>
     <g id="text_9">
      <!-- 25 -->
      <g transform="translate(37.875 126.246936)scale(0.1 -0.1)">
       <use xlink:href="#DejaVuSans-32"/>
       <use xlink:href="#DejaVuSans-35" x="63.623047"/>
      </g>
     </g>
    </g>
    <g id="ytick_3">
     <g id="line2d_10">
      <g>
       <use xlink:href="#m00a5253c07" x="57.6" y="98.934466" style="stroke: #000000; stroke-width: 0.8"/>
      </g>
     </g>
     <g id="text_10">
      <!-- 50 -->
      <g transform="translate(37.875 102.733685)scale(0.1 -0.1)">
       <use xlink:href="#DejaVuSans-35"/>
       <use xlink:href="#DejaVuSans-30" x="63.623047"/>
      </g>
     </g>
    </g>
    <g id="ytick_4">
     <g id="line2d_11">
      <g>
       <use xlink:href="#m00a5253c07" x="57.6" y="75.421215" style="stroke: #000000; stroke-width: 0.8"/>
      </g>
     </g>
     <g id="text_11">
      <!-- 75 -->
      <g transform="translate(37.875 79.220434)scale(0.1 -0.1)">
       <defs>
        <path id="DejaVuSans-37" d="M 525 4666 
L 3525 4666 
L 3525 4397 
L 1831 0 
L 1172 0 
L 2766 4134 
L 525 4134 
L 525 4666 
z
" transform="scale(0.015625)"/>
       </defs>
       <use xlink:href="#DejaVuSans-37"/>
       <use xlink:href="#DejaVuSans-35" x="63.623047"/>
      </g>
     </g>
    </g>
    <g id="ytick_5">
     <g id="line2d_12">
      <g>
       <use xlink:href="#m00a5253c07" x="57.6" y="51.907964" style="stroke: #000000; stroke-width: 0.8"/>
      </g>
     </g>
     <g id="text_12">
      <!-- 100 -->
      <g transform="translate(31.5125 55.707183)scale(0.1 -0.1)">
       <use xlink:href="#DejaVuSans-31"/>
       <use xlink:href="#DejaVuSans-30" x="63.623047"/>
       <use xlink:href="#DejaVuSans-30" x="127.246094"/>
      </g>
     </g>
    </g>
   </g>
   <g id="line2d_13">
    <path d="M 73.832727 51.719858 
L 73.8432 51.719858 
L 73.879855 50.904732 
L 73.906038 53.412813 
L 73.911274 53.412813 
L 73.921747 54.353343 
L 73.942693 52.629038 
L 74.021239 53.334435 
L 74.068367 53.334435 
L 74.136441 52.55066 
L 74.141678 53.49119 
L 74.183569 53.020925 
L 74.220224 53.020925 
L 74.335426 54.43172 
L 74.382554 54.43172 
L 74.497756 53.961455 
L 74.612958 53.961455 
L 74.733396 53.020925 
L 74.81718 53.020925 
L 74.89049 52.55066 
L 74.895726 53.49119 
L 74.911436 53.49119 
L 75.026637 54.43172 
L 75.031874 54.43172 
L 75.079002 55.37225 
L 75.141839 54.901985 
L 75.152312 54.901985 
L 75.267514 55.842515 
L 75.277987 55.842515 
L 75.393189 55.37225 
L 75.419371 55.37225 
L 75.534573 54.901985 
L 75.655011 54.901985 
L 75.675957 55.607383 
L 75.770213 54.666853 
L 75.890651 56.547913 
L 76.681355 56.547913 
L 76.796557 56.077648 
L 76.854158 56.077648 
L 76.927468 57.018178 
L 76.964123 56.547913 
L 77.105507 56.547913 
L 77.220709 56.077648 
L 77.241655 56.077648 
L 77.356857 57.018178 
L 77.44064 57.018178 
L 77.466822 56.547913 
L 77.472059 57.488443 
L 77.550605 57.018178 
L 77.555842 57.018178 
L 77.671044 56.547913 
L 77.812428 56.547913 
L 77.932866 55.607383 
L 78.011413 55.607383 
L 78.126615 56.547913 
L 78.655496 56.547913 
L 78.713097 56.077648 
L 78.718333 57.018178 
L 78.760225 57.018178 
L 78.990629 57.018178 
L 78.995865 56.547913 
L 79.001102 57.488443 
L 79.095358 57.488443 
L 79.802278 57.488443 
L 79.854643 57.018178 
L 79.859879 57.958708 
L 79.907007 57.958708 
L 80.037918 57.958708 
L 80.15312 57.488443 
L 80.509199 57.488443 
L 80.6244 57.018178 
L 80.849568 57.018178 
L 80.96477 56.547913 
L 81.572198 56.547913 
L 81.676927 57.488443 
L 81.682163 57.018178 
L 81.92304 57.018178 
L 81.991113 57.958708 
L 82.033005 57.488443 
L 83.347353 57.488443 
L 83.462555 57.018178 
L 83.975727 57.018178 
L 84.090929 56.547913 
L 84.352751 56.547913 
L 84.467953 57.488443 
L 84.47319 57.488443 
L 84.530791 57.018178 
L 84.536027 57.958708 
L 84.577919 57.958708 
L 84.913051 57.958708 
L 84.996835 57.488443 
L 85.002071 58.428973 
L 85.01778 58.428973 
L 85.311021 58.428973 
L 85.426223 59.369503 
L 86.379257 59.369503 
L 86.447331 60.310033 
L 86.489222 59.839768 
L 87.128069 59.839768 
L 87.243271 59.369503 
L 87.777389 59.369503 
L 87.89259 60.310033 
L 88.808969 60.310033 
L 88.924171 59.839768 
L 90.7674 59.839768 
L 90.882602 59.369503 
L 92.024148 59.369503 
L 92.13935 58.899238 
L 92.977182 58.899238 
L 93.092383 59.839768 
L 94.034944 59.839768 
L 94.150146 59.369503 
L 94.563825 59.369503 
L 94.679027 58.899238 
L 94.705209 58.899238 
L 94.820411 59.839768 
L 95.365002 59.839768 
L 95.480204 59.369503 
L 96.422764 59.369503 
L 96.537966 60.310033 
L 97.998935 60.310033 
L 98.114137 61.250563 
L 99.946894 61.250563 
L 100.062096 60.780298 
L 100.501957 60.780298 
L 100.617159 61.720828 
L 100.878982 61.720828 
L 100.994184 61.250563 
L 101.177459 61.250563 
L 101.292661 60.780298 
L 102.067655 60.780298 
L 102.182857 60.310033 
L 102.20904 60.310033 
L 102.324241 59.839768 
L 103.570516 59.839768 
L 103.685718 59.369503 
L 104.293146 59.369503 
L 104.408348 60.310033 
L 108.199536 60.310033 
L 108.314738 61.250563 
L 109.524357 61.250563 
L 109.639559 60.780298 
L 114.50422 60.780298 
L 114.619421 61.720828 
L 114.991209 61.720828 
L 115.106411 61.485695 
L 115.855223 61.485695 
L 115.970425 61.01543 
L 120.374278 61.01543 
L 120.48948 60.545165 
L 125.888258 60.545165 
L 126.00346 61.485695 
L 126.846528 61.485695 
L 126.96173 61.01543 
L 127.18166 61.01543 
L 127.296862 61.95596 
L 129.621845 61.95596 
L 129.737047 61.485695 
L 130.54346 61.485695 
L 130.658662 62.426225 
L 132.219124 62.426225 
L 132.334325 61.95596 
L 132.543783 61.95596 
L 132.658985 62.89649 
L 133.659147 62.89649 
L 133.774349 62.426225 
L 139.099816 62.426225 
L 139.215018 62.191093 
L 140.623623 62.191093 
L 140.738825 63.131623 
L 143.823093 63.131623 
L 143.938294 62.661358 
L 147.252966 62.661358 
L 147.368168 63.601888 
L 152.211882 63.601888 
L 152.327084 63.131623 
L 152.431813 63.131623 
L 152.547015 62.661358 
L 158.925009 62.661358 
L 158.940718 63.601888 
L 159.034974 62.661358 
L 166.318874 62.661358 
L 166.434075 62.191093 
L 172.529301 62.191093 
L 172.644503 63.131623 
L 172.979636 63.131623 
L 173.094837 62.661358 
L 173.995506 62.661358 
L 174.110708 63.601888 
L 186.93477 63.601888 
L 187.049972 63.131623 
L 188.558069 63.131623 
L 188.67327 64.072153 
L 191.438115 64.072153 
L 191.553317 63.601888 
L 197.376247 63.601888 
L 197.491449 63.131623 
L 208.01671 63.131623 
L 208.131912 64.072153 
L 226.585155 64.072153 
L 226.700357 63.601888 
L 234.026147 63.601888 
L 234.141349 64.542418 
L 238.173414 64.542418 
L 238.288616 64.072153 
L 243.530301 64.072153 
L 243.645503 65.012683 
L 250.929402 65.012683 
L 251.044604 64.542418 
L 268.157316 64.542418 
L 268.272518 64.072153 
L 273.304745 64.072153 
L 273.419946 65.012683 
L 287.657849 65.012683 
L 287.773051 64.542418 
L 291.056304 64.542418 
L 291.171505 64.072153 
L 306.001126 64.072153 
L 306.116328 63.601888 
L 312.504795 63.601888 
L 312.619997 63.131623 
L 339.06406 63.131623 
L 339.179262 62.661358 
L 340.221315 62.661358 
L 340.336517 63.601888 
L 349.395572 63.601888 
L 349.510774 64.542418 
L 382.704618 64.542418 
L 382.81982 65.482948 
L 398.487273 65.482948 
L 398.487273 65.482948 
" clip-path="url(#p6c4acd4526)" style="fill: none; stroke: #1f77b4; stroke-width: 1.5; stroke-linecap: square"/>
   </g>
   <g id="line2d_14">
    <path d="M 73.832727 52.848495 
L 73.968875 57.7079 
L 74.031712 57.472767 
L 74.036949 58.413297 
L 74.063131 58.413297 
L 74.099786 58.413297 
L 74.136441 57.943032 
L 74.141678 58.883562 
L 74.209752 58.413297 
L 74.277825 58.413297 
L 74.398264 60.764622 
L 74.612958 60.764622 
L 74.628667 60.294357 
L 74.633904 61.234887 
L 74.717687 61.234887 
L 74.81718 61.234887 
L 74.89049 60.764622 
L 74.895726 61.705152 
L 74.911436 61.705152 
L 75.026637 62.645682 
L 75.031874 62.645682 
L 75.079002 63.586212 
L 75.141839 63.115947 
L 75.152312 63.115947 
L 75.267514 64.056477 
L 75.277987 64.056477 
L 75.393189 63.586212 
L 75.419371 63.586212 
L 75.534573 63.115947 
L 75.670721 63.115947 
L 75.785922 64.056477 
L 75.822578 64.056477 
L 75.937779 64.997007 
L 76.152474 64.997007 
L 76.267676 65.937537 
L 76.545207 65.937537 
L 76.660409 66.878068 
L 76.681355 66.878068 
L 76.796557 66.407803 
L 76.854158 66.407803 
L 76.927468 67.348333 
L 76.964123 66.878068 
L 77.105507 66.878068 
L 77.220709 66.407803 
L 77.241655 66.407803 
L 77.356857 67.348333 
L 77.44064 67.348333 
L 77.466822 66.878068 
L 77.472059 67.818598 
L 77.550605 67.348333 
L 77.812428 67.348333 
L 77.932866 66.407803 
L 78.063777 66.407803 
L 78.178979 65.467272 
L 78.655496 65.467272 
L 78.713097 64.997007 
L 78.718333 65.937537 
L 78.760225 65.937537 
L 78.990629 65.937537 
L 79.105831 65.467272 
L 79.629475 65.467272 
L 79.744677 66.407803 
L 79.802278 66.407803 
L 79.91748 65.937537 
L 80.037918 65.937537 
L 80.15312 65.467272 
L 80.509199 65.467272 
L 80.6244 64.997007 
L 80.849568 64.997007 
L 80.959533 64.526742 
L 81.074735 65.467272 
L 81.572198 65.467272 
L 81.676927 66.407803 
L 81.682163 65.937537 
L 81.991113 65.937537 
L 82.048714 65.467272 
L 82.053951 66.407803 
L 82.095842 66.407803 
L 82.23199 66.407803 
L 82.347192 67.348333 
L 83.347353 67.348333 
L 83.462555 66.878068 
L 83.740087 66.878068 
L 83.755796 67.818598 
L 83.850052 66.878068 
L 83.975727 66.878068 
L 84.090929 66.17267 
L 84.185185 66.17267 
L 84.300387 67.1132 
L 84.352751 67.1132 
L 84.467953 68.05373 
L 84.47319 68.05373 
L 84.530791 67.583465 
L 84.536027 68.523995 
L 84.577919 68.523995 
L 84.913051 68.523995 
L 85.028253 68.05373 
L 85.311021 68.05373 
L 85.426223 68.99426 
L 86.379257 68.99426 
L 86.447331 69.93479 
L 86.489222 69.464525 
L 87.128069 69.464525 
L 87.243271 68.99426 
L 87.410837 68.99426 
L 87.526039 69.93479 
L 87.777389 69.93479 
L 87.89259 70.87532 
L 88.808969 70.87532 
L 88.924171 70.405055 
L 89.547308 70.405055 
L 89.66251 71.345585 
L 90.7674 71.345585 
L 90.882602 70.87532 
L 92.024148 70.87532 
L 92.13935 70.405055 
L 92.804379 70.405055 
L 92.919581 71.345585 
L 92.977182 71.345585 
L 93.092383 72.286115 
L 94.034944 72.286115 
L 94.150146 71.81585 
L 94.563825 71.81585 
L 94.679027 71.345585 
L 94.705209 71.345585 
L 94.820411 72.286115 
L 95.365002 72.286115 
L 95.480204 71.81585 
L 96.422764 71.81585 
L 96.537966 72.75638 
L 97.998935 72.75638 
L 98.114137 73.69691 
L 99.946894 73.69691 
L 100.062096 73.226645 
L 100.501957 73.226645 
L 100.617159 74.167175 
L 100.878982 74.167175 
L 100.994184 73.69691 
L 101.177459 73.69691 
L 101.292661 73.226645 
L 101.70634 73.226645 
L 101.821542 74.167175 
L 102.067655 74.167175 
L 102.182857 73.69691 
L 102.20904 73.69691 
L 102.324241 73.226645 
L 103.570516 73.226645 
L 103.685718 72.75638 
L 103.895176 72.75638 
L 104.010378 73.69691 
L 104.293146 73.69691 
L 104.408348 74.63744 
L 109.524357 74.63744 
L 109.639559 74.167175 
L 112.859975 74.167175 
L 112.975177 75.107705 
L 114.50422 75.107705 
L 114.619421 76.048235 
L 115.855223 76.048235 
L 115.970425 75.57797 
L 120.374278 75.57797 
L 120.48948 75.107705 
L 125.888258 75.107705 
L 126.00346 76.048235 
L 126.846528 76.048235 
L 126.96173 75.57797 
L 127.18166 75.57797 
L 127.296862 76.5185 
L 129.621845 76.5185 
L 129.737047 76.048235 
L 130.54346 76.048235 
L 130.658662 76.988765 
L 132.219124 76.988765 
L 132.334325 76.5185 
L 133.659147 76.5185 
L 133.774349 76.048235 
L 140.623623 76.048235 
L 140.738825 76.988765 
L 143.823093 76.988765 
L 143.938294 76.5185 
L 152.211882 76.5185 
L 152.327084 76.048235 
L 152.431813 76.048235 
L 152.547015 75.57797 
L 153.667615 75.57797 
L 153.782817 76.5185 
L 154.10224 76.5185 
L 154.217442 77.45903 
L 158.925009 77.45903 
L 158.940718 78.39956 
L 159.034974 77.45903 
L 160.490707 77.45903 
L 160.605909 78.39956 
L 164.847432 78.39956 
L 164.962633 79.34009 
L 166.318874 79.34009 
L 166.434075 78.869825 
L 172.529301 78.869825 
L 172.644503 79.810355 
L 172.979636 79.810355 
L 173.094837 79.34009 
L 173.995506 79.34009 
L 174.110708 80.28062 
L 186.93477 80.28062 
L 187.049972 79.810355 
L 188.558069 79.810355 
L 188.67327 80.750886 
L 191.438115 80.750886 
L 191.553317 80.28062 
L 197.376247 80.28062 
L 197.491449 79.810355 
L 200.444806 79.810355 
L 200.560008 80.750886 
L 208.01671 80.750886 
L 208.131912 81.691416 
L 226.585155 81.691416 
L 226.700357 81.221151 
L 238.173414 81.221151 
L 238.288616 80.750886 
L 243.530301 80.750886 
L 243.645503 81.691416 
L 250.929402 81.691416 
L 251.044604 81.221151 
L 268.157316 81.221151 
L 268.272518 80.750886 
L 273.304745 80.750886 
L 273.419946 81.691416 
L 287.657849 81.691416 
L 287.773051 81.221151 
L 291.056304 81.221151 
L 291.171505 80.750886 
L 300.911299 80.750886 
L 301.026501 81.691416 
L 306.001126 81.691416 
L 306.116328 81.221151 
L 312.504795 81.221151 
L 312.619997 80.750886 
L 314.175222 80.750886 
L 314.290424 81.691416 
L 339.06406 81.691416 
L 339.179262 81.221151 
L 349.395572 81.221151 
L 349.510774 82.161681 
L 382.704618 82.161681 
L 382.81982 83.102211 
L 398.487273 83.102211 
L 398.487273 83.102211 
" clip-path="url(#p6c4acd4526)" style="fill: none; stroke: #ff7f0e; stroke-width: 1.5; stroke-linecap: square"/>
   </g>
   <g id="line2d_15">
    <path d="M 73.832727 51.719858 
L 73.837964 51.719858 
L 73.93222 55.05874 
L 73.963638 54.74523 
L 74.09455 52.785793 
L 74.099786 52.785793 
L 74.199279 54.666853 
L 74.214988 53.726323 
L 74.220224 53.726323 
L 74.251643 54.666853 
L 74.283062 53.256058 
L 74.33019 54.196588 
L 74.382554 54.196588 
L 74.387791 55.137118 
L 74.49252 54.196588 
L 74.612958 54.196588 
L 74.628667 55.137118 
L 74.65485 53.726323 
L 74.717687 53.726323 
L 74.733396 53.256058 
L 74.738633 54.196588 
L 74.81718 54.196588 
L 74.911436 56.077648 
L 74.932381 55.842515 
L 74.942854 55.842515 
L 75.031874 56.783045 
L 75.047583 56.547913 
L 75.105184 55.607383 
L 75.157549 56.547913 
L 75.419371 56.547913 
L 75.534573 57.488443 
L 75.670721 57.488443 
L 75.728321 57.25331 
L 75.733558 58.19384 
L 75.749267 58.19384 
L 75.770213 59.13437 
L 75.859233 58.664105 
L 76.152474 58.664105 
L 76.267676 57.723575 
L 76.356695 57.723575 
L 76.471897 56.783045 
L 76.545207 56.783045 
L 76.660409 55.842515 
L 76.681355 55.842515 
L 76.796557 56.783045 
L 76.854158 56.783045 
L 76.927468 56.547913 
L 76.932705 57.488443 
L 76.948414 57.488443 
L 77.105507 57.488443 
L 77.220709 58.428973 
L 77.241655 58.428973 
L 77.356857 58.19384 
L 77.44064 58.19384 
L 77.555842 59.839768 
L 77.681517 58.428973 
L 77.812428 58.428973 
L 77.92763 59.369503 
L 78.655496 59.369503 
L 78.713097 60.310033 
L 78.765461 60.0749 
L 78.859717 60.0749 
L 78.974919 61.01543 
L 78.990629 61.01543 
L 79.105831 61.95596 
L 79.629475 61.95596 
L 79.744677 61.01543 
L 79.802278 61.01543 
L 79.838933 61.95596 
L 79.912244 61.01543 
L 80.037918 61.01543 
L 80.15312 61.95596 
L 80.959533 61.95596 
L 81.074735 61.01543 
L 81.572198 61.01543 
L 81.676927 60.780298 
L 81.792128 61.720828 
L 81.991113 61.720828 
L 82.048714 62.661358 
L 82.101079 61.720828 
L 82.23199 61.720828 
L 82.347192 60.780298 
L 83.347353 60.780298 
L 83.462555 61.720828 
L 83.740087 61.720828 
L 83.855289 60.780298 
L 83.975727 60.780298 
L 84.096166 62.661358 
L 84.185185 62.661358 
L 84.300387 61.720828 
L 84.31086 61.720828 
L 84.352751 62.661358 
L 84.420825 62.426225 
L 84.530791 62.426225 
L 84.645993 62.191093 
L 84.913051 62.191093 
L 85.028253 63.131623 
L 85.101564 63.131623 
L 85.216765 64.072153 
L 85.311021 64.072153 
L 85.426223 63.83702 
L 86.379257 63.83702 
L 86.447331 63.601888 
L 86.452567 64.542418 
L 86.473513 64.542418 
L 87.002394 64.542418 
L 87.117596 63.601888 
L 87.128069 63.601888 
L 87.243271 64.542418 
L 87.410837 64.542418 
L 87.526039 63.601888 
L 88.808969 63.601888 
L 88.924171 64.542418 
L 89.547308 64.542418 
L 89.66251 63.601888 
L 90.536997 63.601888 
L 90.652199 62.661358 
L 90.7674 62.661358 
L 90.882602 63.601888 
L 92.024148 63.601888 
L 92.13935 64.542418 
L 92.804379 64.542418 
L 92.919581 63.601888 
L 94.563825 63.601888 
L 94.679027 64.542418 
L 95.365002 64.542418 
L 95.480204 65.482948 
L 96.422764 65.482948 
L 96.537966 65.247815 
L 97.333906 65.247815 
L 97.449108 66.188345 
L 97.501473 66.188345 
L 97.616675 65.247815 
L 97.998935 65.247815 
L 98.114137 65.012683 
L 99.946894 65.012683 
L 100.062096 65.953213 
L 100.501957 65.953213 
L 100.617159 65.71808 
L 100.878982 65.71808 
L 100.994184 66.658611 
L 101.051784 66.658611 
L 101.166986 65.71808 
L 101.177459 65.71808 
L 101.229824 66.658611 
L 101.287425 65.71808 
L 101.70634 65.71808 
L 101.821542 64.77755 
L 102.067655 64.77755 
L 102.182857 65.71808 
L 102.20904 65.71808 
L 102.324241 66.658611 
L 103.570516 66.658611 
L 103.685718 67.599141 
L 103.895176 67.599141 
L 104.010378 66.658611 
L 104.293146 66.658611 
L 104.408348 66.423478 
L 109.524357 66.423478 
L 109.639559 67.364008 
L 112.859975 67.364008 
L 112.975177 66.423478 
L 114.50422 66.423478 
L 114.619421 66.188345 
L 115.855223 66.188345 
L 115.970425 67.128876 
L 117.902674 67.128876 
L 118.017876 66.188345 
L 120.374278 66.188345 
L 120.48948 67.128876 
L 125.888258 67.128876 
L 126.00346 66.893743 
L 127.18166 66.893743 
L 127.296862 66.658611 
L 127.558685 66.658611 
L 127.673887 67.599141 
L 129.621845 67.599141 
L 129.737047 68.539671 
L 130.119308 68.539671 
L 130.23451 67.599141 
L 130.54346 67.599141 
L 130.658662 67.364008 
L 132.219124 67.364008 
L 132.334325 68.304538 
L 133.659147 68.304538 
L 133.774349 69.245068 
L 133.873841 69.245068 
L 133.989043 68.304538 
L 140.623623 68.304538 
L 140.738825 68.069406 
L 143.823093 68.069406 
L 143.938294 69.009936 
L 152.211882 69.009936 
L 152.327084 69.950466 
L 152.431813 69.950466 
L 152.547015 70.890996 
L 153.667615 70.890996 
L 153.782817 69.950466 
L 154.10224 69.950466 
L 154.217442 69.009936 
L 158.925009 69.009936 
L 158.940718 68.774803 
L 158.945955 69.715333 
L 159.003556 69.715333 
L 159.118757 70.655863 
L 160.490707 70.655863 
L 160.605909 69.715333 
L 164.847432 69.715333 
L 164.962633 68.774803 
L 166.318874 68.774803 
L 166.434075 69.715333 
L 172.529301 69.715333 
L 172.644503 69.480201 
L 172.979636 69.480201 
L 173.094837 70.420731 
L 173.995506 70.420731 
L 174.110708 70.185598 
L 176.760351 70.185598 
L 176.875553 71.126128 
L 178.121828 71.126128 
L 178.237029 70.185598 
L 186.93477 70.185598 
L 187.049972 71.126128 
L 188.558069 71.126128 
L 188.67327 70.890996 
L 191.438115 70.890996 
L 191.553317 71.831526 
L 200.444806 71.831526 
L 200.560008 70.890996 
L 208.01671 70.890996 
L 208.131912 70.655863 
L 226.396643 70.655863 
L 226.511844 69.715333 
L 226.585155 69.715333 
L 226.700357 70.655863 
L 238.173414 70.655863 
L 238.288616 71.596393 
L 243.530301 71.596393 
L 243.645503 71.361261 
L 268.157316 71.361261 
L 268.272518 72.301791 
L 273.304745 72.301791 
L 273.419946 72.066658 
L 291.056304 72.066658 
L 291.171505 73.007188 
L 300.911299 73.007188 
L 301.026501 72.066658 
L 306.001126 72.066658 
L 306.116328 73.007188 
L 312.504795 73.007188 
L 312.619997 73.947718 
L 314.175222 73.947718 
L 314.290424 73.007188 
L 326.449456 73.007188 
L 326.564658 72.066658 
L 349.395572 72.066658 
L 349.510774 71.831526 
L 398.487273 71.831526 
L 398.487273 71.831526 
" clip-path="url(#p6c4acd4526)" style="fill: none; stroke: #2ca02c; stroke-width: 1.5; stroke-linecap: square"/>
   </g>
   <g id="line2d_16">
    <path d="M 73.832727 51.907964 
L 73.837964 51.907964 
L 73.958402 51.045812 
L 74.220224 51.045812 
L 74.345899 50.262037 
L 74.733396 50.262037 
L 74.848598 50.026904 
L 74.885253 50.026904 
L 75.000455 49.478262 
L 75.105184 49.478262 
L 75.220386 48.929619 
L 78.859717 48.929619 
L 78.974919 48.694487 
L 84.038565 48.694487 
L 84.153766 48.459354 
L 84.31086 48.459354 
L 84.426062 48.145844 
L 85.101564 48.145844 
L 85.216765 47.832334 
L 97.333906 47.832334 
L 97.449108 47.518824 
L 127.558685 47.518824 
L 127.673887 47.205314 
L 176.760351 47.205314 
L 176.875553 46.970182 
L 398.487273 46.970182 
L 398.487273 46.970182 
" clip-path="url(#p6c4acd4526)" style="fill: none; stroke: #d62728; stroke-width: 1.5; stroke-linecap: square"/>
   </g>
   <g id="line2d_17">
    <path d="M 73.832727 51.719858 
L 73.874619 51.719858 
L 73.995057 51.29662 
L 74.733396 51.29662 
L 74.848598 52.23715 
L 74.911436 52.23715 
L 74.942854 52.002017 
L 74.948091 52.942548 
L 75.005692 52.942548 
L 75.031874 52.942548 
L 75.105184 52.707415 
L 75.110421 53.647945 
L 75.12613 53.647945 
L 75.655011 53.647945 
L 75.670721 54.588475 
L 75.764977 54.353343 
L 75.770213 54.353343 
L 75.890651 53.883078 
L 75.911597 53.883078 
L 76.026799 54.823608 
L 76.854158 54.823608 
L 76.96936 54.588475 
L 77.241655 54.588475 
L 77.356857 54.353343 
L 77.466822 54.353343 
L 77.582024 54.11821 
L 78.011413 54.11821 
L 78.126615 53.8047 
L 78.220871 53.8047 
L 78.336073 54.74523 
L 78.713097 54.74523 
L 78.828299 54.510098 
L 78.859717 54.510098 
L 78.974919 55.450628 
L 78.995865 55.450628 
L 79.111067 55.137118 
L 79.854643 55.137118 
L 79.969844 54.823608 
L 81.572198 54.823608 
L 81.687399 54.588475 
L 81.92304 54.588475 
L 82.038241 54.274965 
L 84.190422 54.274965 
L 84.305623 55.215495 
L 84.31086 55.215495 
L 84.352751 56.156025 
L 84.420825 55.920893 
L 84.530791 55.920893 
L 84.645993 55.68576 
L 84.996835 55.68576 
L 85.101564 55.37225 
L 85.216765 56.31278 
L 85.311021 56.31278 
L 85.426223 56.077648 
L 86.379257 56.077648 
L 86.494459 55.842515 
L 94.99845 55.842515 
L 95.113652 56.783045 
L 96.422764 56.783045 
L 96.537966 56.547913 
L 97.333906 56.547913 
L 97.449108 57.488443 
L 97.998935 57.488443 
L 98.114137 57.25331 
L 100.501957 57.25331 
L 100.617159 57.018178 
L 104.293146 57.018178 
L 104.408348 56.783045 
L 108.199536 56.783045 
L 108.314738 56.469535 
L 114.50422 56.469535 
L 114.619421 56.234403 
L 114.991209 56.234403 
L 115.106411 57.174933 
L 125.888258 57.174933 
L 126.00346 56.9398 
L 127.18166 56.9398 
L 127.296862 56.704668 
L 127.558685 56.704668 
L 127.673887 57.645198 
L 130.54346 57.645198 
L 130.658662 57.410065 
L 132.543783 57.410065 
L 132.658985 57.096555 
L 139.099816 57.096555 
L 139.215018 58.037085 
L 140.623623 58.037085 
L 140.738825 57.801953 
L 147.252966 57.801953 
L 147.368168 57.488443 
L 158.925009 57.488443 
L 159.040211 57.25331 
L 172.529301 57.25331 
L 172.644503 57.018178 
L 173.995506 57.018178 
L 174.110708 56.783045 
L 176.760351 56.783045 
L 176.875553 57.723575 
L 188.558069 57.723575 
L 188.67327 57.488443 
L 208.01671 57.488443 
L 208.131912 57.25331 
L 220.448037 57.25331 
L 220.563239 58.19384 
L 234.026147 58.19384 
L 234.141349 57.88033 
L 243.430808 57.88033 
L 243.530301 58.82086 
L 243.540774 58.585728 
L 273.304745 58.585728 
L 273.419946 58.350595 
L 340.221315 58.350595 
L 340.336517 58.037085 
L 349.395572 58.037085 
L 349.510774 57.801953 
L 398.487273 57.801953 
L 398.487273 57.801953 
" clip-path="url(#p6c4acd4526)" style="fill: none; stroke: #9467bd; stroke-width: 1.5; stroke-linecap: square"/>
   </g>
   <g id="line2d_18">
    <path d="M 73.832727 51.907964 
L 73.895565 51.907964 
L 74.026476 50.575547 
L 74.068367 50.575547 
L 74.183569 50.262037 
L 74.628667 50.262037 
L 74.743869 49.791772 
L 75.655011 49.791772 
L 75.770213 49.556639 
L 75.911597 49.556639 
L 76.026799 49.243129 
L 78.220871 49.243129 
L 78.336073 48.929619 
L 84.038565 48.929619 
L 84.153766 49.870149 
L 84.190422 49.870149 
L 84.305623 49.556639 
L 94.99845 49.556639 
L 95.113652 49.243129 
L 114.991209 49.243129 
L 115.106411 49.007997 
L 139.099816 49.007997 
L 139.215018 48.772864 
L 220.448037 48.772864 
L 220.563239 48.459354 
L 243.430808 48.459354 
L 243.54601 48.145844 
L 398.487273 48.145844 
L 398.487273 48.145844 
" clip-path="url(#p6c4acd4526)" style="fill: none; stroke: #8c564b; stroke-width: 1.5; stroke-linecap: square"/>
   </g>
   <g id="line2d_19">
    <path d="M 73.832727 51.719858 
L 73.864146 51.719858 
L 73.979348 50.35609 
L 74.450628 50.35609 
L 74.56583 49.41556 
L 74.733396 49.41556 
L 74.848598 50.35609 
L 74.911436 50.35609 
L 74.942854 50.120957 
L 74.948091 51.061487 
L 75.005692 51.061487 
L 75.031874 51.061487 
L 75.105184 50.826355 
L 75.110421 51.766885 
L 75.12613 51.766885 
L 75.655011 51.766885 
L 75.670721 52.707415 
L 75.764977 52.472283 
L 75.770213 52.472283 
L 75.890651 52.002017 
L 75.911597 52.002017 
L 76.026799 52.942548 
L 76.854158 52.942548 
L 76.96936 52.707415 
L 77.241655 52.707415 
L 77.356857 52.472283 
L 77.466822 52.472283 
L 77.582024 52.23715 
L 78.011413 52.23715 
L 78.126615 51.92364 
L 78.220871 51.92364 
L 78.336073 52.86417 
L 78.713097 52.86417 
L 78.828299 52.629038 
L 78.859717 52.629038 
L 78.974919 53.569568 
L 78.995865 53.569568 
L 79.111067 53.256058 
L 79.854643 53.256058 
L 79.969844 52.942548 
L 81.572198 52.942548 
L 81.687399 52.707415 
L 81.92304 52.707415 
L 82.038241 52.393905 
L 84.190422 52.393905 
L 84.305623 53.334435 
L 84.31086 53.334435 
L 84.352751 54.274965 
L 84.420825 54.039833 
L 84.530791 54.039833 
L 84.645993 53.8047 
L 84.996835 53.8047 
L 85.101564 53.49119 
L 85.216765 54.43172 
L 85.311021 54.43172 
L 85.426223 54.196588 
L 86.379257 54.196588 
L 86.494459 53.961455 
L 94.99845 53.961455 
L 95.113652 54.901985 
L 96.422764 54.901985 
L 96.537966 54.666853 
L 97.333906 54.666853 
L 97.449108 55.607383 
L 97.998935 55.607383 
L 98.114137 55.37225 
L 100.501957 55.37225 
L 100.617159 55.137118 
L 104.293146 55.137118 
L 104.408348 54.901985 
L 108.199536 54.901985 
L 108.314738 54.588475 
L 114.50422 54.588475 
L 114.619421 54.353343 
L 114.991209 54.353343 
L 115.106411 55.293873 
L 125.888258 55.293873 
L 126.00346 55.05874 
L 127.18166 55.05874 
L 127.296862 54.823608 
L 127.558685 54.823608 
L 127.673887 55.764138 
L 130.54346 55.764138 
L 130.658662 55.529005 
L 132.543783 55.529005 
L 132.658985 55.215495 
L 139.099816 55.215495 
L 139.215018 56.156025 
L 140.623623 56.156025 
L 140.738825 55.920893 
L 147.252966 55.920893 
L 147.368168 55.607383 
L 158.925009 55.607383 
L 159.040211 55.37225 
L 172.529301 55.37225 
L 172.644503 55.137118 
L 173.995506 55.137118 
L 174.110708 54.901985 
L 176.760351 54.901985 
L 176.875553 55.842515 
L 188.558069 55.842515 
L 188.67327 55.607383 
L 208.01671 55.607383 
L 208.131912 55.37225 
L 220.448037 55.37225 
L 220.563239 56.31278 
L 234.026147 56.31278 
L 234.141349 55.99927 
L 243.430808 55.99927 
L 243.530301 56.9398 
L 243.540774 56.704668 
L 273.304745 56.704668 
L 273.419946 56.469535 
L 340.221315 56.469535 
L 340.336517 56.156025 
L 349.395572 56.156025 
L 349.510774 55.920893 
L 398.487273 55.920893 
L 398.487273 55.920893 
" clip-path="url(#p6c4acd4526)" style="fill: none; stroke: #e377c2; stroke-width: 1.5; stroke-linecap: square"/>
   </g>
   <g id="line2d_20">
    <path d="M 73.832727 52.848495 
L 73.8432 52.848495 
L 73.885092 55.670085 
L 73.963638 55.434952 
L 73.968875 55.434952 
L 74.084077 56.375482 
L 74.199279 56.375482 
L 74.220224 57.316012 
L 74.309244 56.845747 
L 74.450628 56.845747 
L 74.56583 57.786277 
L 74.649613 57.786277 
L 74.733396 59.667337 
L 74.764815 59.432205 
L 74.942854 59.432205 
L 75.047583 59.197072 
L 75.105184 61.078132 
L 75.162785 60.52949 
L 75.277987 60.52949 
L 75.393189 61.47002 
L 75.655011 61.47002 
L 75.770213 61.234887 
L 75.911597 61.234887 
L 76.026799 60.921377 
L 76.356695 60.921377 
L 76.471897 61.861907 
L 77.555842 61.861907 
L 77.67628 63.742967 
L 77.859556 63.742967 
L 77.974758 64.683497 
L 78.011413 64.683497 
L 78.126615 65.624027 
L 78.220871 65.624027 
L 78.336073 65.310517 
L 78.859717 65.310517 
L 78.974919 65.075385 
L 78.995865 65.075385 
L 79.111067 66.015915 
L 79.838933 66.015915 
L 79.959372 67.896975 
L 81.92304 67.896975 
L 82.038241 68.837505 
L 84.190422 68.837505 
L 84.305623 68.523995 
L 84.31086 68.523995 
L 84.426062 68.210485 
L 84.996835 68.210485 
L 85.101564 69.151015 
L 85.1068 68.837505 
L 87.002394 68.837505 
L 87.117596 69.778035 
L 90.536997 69.778035 
L 90.652199 70.718565 
L 94.99845 70.718565 
L 95.113652 70.405055 
L 97.333906 70.405055 
L 97.449108 70.091545 
L 97.501473 70.091545 
L 97.616675 71.032075 
L 101.051784 71.032075 
L 101.166986 71.972605 
L 101.229824 71.972605 
L 101.345026 72.913135 
L 108.199536 72.913135 
L 108.314738 73.853665 
L 114.991209 73.853665 
L 115.106411 73.618533 
L 117.902674 73.618533 
L 118.017876 74.559063 
L 127.558685 74.559063 
L 127.673887 74.245553 
L 130.119308 74.245553 
L 130.23451 75.186083 
L 132.543783 75.186083 
L 132.658985 76.126613 
L 133.873841 76.126613 
L 133.989043 77.067143 
L 139.099816 77.067143 
L 139.215018 76.83201 
L 147.252966 76.83201 
L 147.368168 77.77254 
L 176.760351 77.77254 
L 176.875553 77.537408 
L 178.121828 77.537408 
L 178.237029 78.477938 
L 220.448037 78.477938 
L 220.563239 78.164428 
L 226.396643 78.164428 
L 226.511844 79.104958 
L 234.026147 79.104958 
L 234.141349 80.045488 
L 243.430808 80.045488 
L 243.54601 79.731978 
L 326.449456 79.731978 
L 326.564658 80.672508 
L 340.221315 80.672508 
L 340.336517 81.613038 
L 398.487273 81.613038 
L 398.487273 81.613038 
" clip-path="url(#p6c4acd4526)" style="fill: none; stroke: #7f7f7f; stroke-width: 1.5; stroke-linecap: square"/>
   </g>
   <g id="line2d_21">
    <path d="M 73.832727 52.848495 
L 73.837964 52.848495 
L 73.8432 52.534985 
L 73.879855 55.356575 
L 73.895565 54.88631 
L 74.042185 62.09704 
L 74.068367 62.09704 
L 74.194042 64.91863 
L 74.199279 64.91863 
L 74.288298 67.505088 
L 74.319717 67.269955 
L 74.324953 67.269955 
L 74.382554 66.956445 
L 74.393027 68.837505 
L 74.408737 68.837505 
L 74.612958 68.837505 
L 74.733396 72.599625 
L 74.738633 72.364493 
L 74.81718 72.364493 
L 74.885253 73.305023 
L 74.927145 72.75638 
L 74.942854 72.75638 
L 75.047583 72.286115 
L 75.152312 74.167175 
L 75.162785 73.932043 
L 75.277987 73.932043 
L 75.393189 74.872573 
L 75.419371 74.872573 
L 75.534573 75.813103 
L 75.655011 75.813103 
L 75.770213 78.39956 
L 75.77545 78.164428 
L 75.822578 78.164428 
L 75.911597 77.929295 
L 75.916834 78.869825 
L 76.152474 78.869825 
L 76.267676 79.810355 
L 76.356695 79.810355 
L 76.471897 80.750886 
L 76.545207 80.750886 
L 76.660409 81.691416 
L 76.681355 81.691416 
L 76.796557 82.631946 
L 76.854158 82.631946 
L 76.927468 82.396813 
L 76.932705 83.337343 
L 76.948414 83.337343 
L 77.105507 83.337343 
L 77.220709 84.277873 
L 77.241655 84.277873 
L 77.356857 84.042741 
L 77.44064 84.042741 
L 77.561078 86.629198 
L 77.623916 86.629198 
L 77.739118 87.569728 
L 77.812428 87.569728 
L 77.932866 89.450788 
L 78.011413 89.450788 
L 78.126615 89.137278 
L 78.220871 89.137278 
L 78.336073 90.077808 
L 78.655496 90.077808 
L 78.713097 91.018338 
L 78.765461 90.783206 
L 78.859717 90.783206 
L 78.974919 90.548073 
L 78.990629 90.548073 
L 78.995865 91.488603 
L 79.100594 91.175093 
L 79.629475 91.175093 
L 79.744677 92.115623 
L 79.802278 92.115623 
L 79.854643 93.996683 
L 79.91748 93.683173 
L 80.037918 93.683173 
L 80.15312 94.623703 
L 80.959533 94.623703 
L 81.074735 95.564234 
L 81.572198 95.564234 
L 81.676927 95.329101 
L 81.792128 96.269631 
L 81.92304 96.269631 
L 81.991113 95.956121 
L 81.99635 96.896651 
L 82.022532 96.896651 
L 82.048714 96.896651 
L 82.163916 97.837181 
L 82.23199 97.837181 
L 82.347192 98.777711 
L 83.347353 98.777711 
L 83.462555 99.718241 
L 83.740087 99.718241 
L 83.855289 100.658771 
L 83.975727 100.658771 
L 84.038565 101.599301 
L 84.085693 101.364169 
L 84.185185 101.364169 
L 84.305623 103.245229 
L 84.352751 103.245229 
L 84.467953 103.010096 
L 84.530791 103.010096 
L 84.645993 102.774964 
L 84.913051 102.774964 
L 84.996835 103.715494 
L 85.023017 103.401984 
L 85.311021 103.401984 
L 85.426223 103.166851 
L 86.379257 103.166851 
L 86.447331 102.931719 
L 86.452567 103.872249 
L 86.473513 103.872249 
L 87.002394 103.872249 
L 87.117596 104.812779 
L 87.128069 104.812779 
L 87.243271 105.753309 
L 87.410837 105.753309 
L 87.526039 106.693839 
L 88.808969 106.693839 
L 88.924171 107.634369 
L 89.547308 107.634369 
L 89.66251 108.574899 
L 90.536997 108.574899 
L 90.652199 109.515429 
L 90.7674 109.515429 
L 90.882602 110.455959 
L 92.024148 110.455959 
L 92.13935 111.396489 
L 92.804379 111.396489 
L 92.919581 112.337019 
L 94.563825 112.337019 
L 94.679027 113.277549 
L 94.99845 113.277549 
L 95.113652 114.218079 
L 95.365002 114.218079 
L 95.480204 115.158609 
L 96.422764 115.158609 
L 96.537966 114.923477 
L 97.501473 114.923477 
L 97.616675 115.864007 
L 97.998935 115.864007 
L 98.114137 115.628874 
L 99.946894 115.628874 
L 100.062096 116.569404 
L 100.501957 116.569404 
L 100.617159 116.334272 
L 100.878982 116.334272 
L 100.994184 117.274802 
L 101.051784 117.274802 
L 101.166986 118.215332 
L 101.177459 118.215332 
L 101.297898 120.096392 
L 101.70634 120.096392 
L 101.821542 121.036922 
L 102.067655 121.036922 
L 102.182857 121.977452 
L 102.20904 121.977452 
L 102.324241 122.917982 
L 103.570516 122.917982 
L 103.685718 123.858512 
L 103.895176 123.858512 
L 104.010378 124.799042 
L 104.293146 124.799042 
L 104.408348 124.56391 
L 108.199536 124.56391 
L 108.314738 124.2504 
L 109.524357 124.2504 
L 109.639559 125.19093 
L 112.859975 125.19093 
L 112.975177 126.13146 
L 114.50422 126.13146 
L 114.619421 125.896327 
L 114.991209 125.896327 
L 115.106411 126.836857 
L 115.855223 126.836857 
L 115.970425 127.777387 
L 117.902674 127.777387 
L 118.017876 128.717917 
L 120.374278 128.717917 
L 120.48948 129.658447 
L 125.888258 129.658447 
L 126.00346 129.423315 
L 127.18166 129.423315 
L 127.296862 129.188182 
L 129.621845 129.188182 
L 129.737047 130.128712 
L 130.119308 130.128712 
L 130.23451 131.069242 
L 130.54346 131.069242 
L 130.658662 130.83411 
L 132.219124 130.83411 
L 132.334325 131.77464 
L 132.543783 131.77464 
L 132.658985 131.46113 
L 133.659147 131.46113 
L 133.774349 132.40166 
L 133.873841 132.40166 
L 133.989043 133.34219 
L 139.099816 133.34219 
L 139.215018 134.28272 
L 140.623623 134.28272 
L 140.738825 134.047587 
L 143.823093 134.047587 
L 143.938294 134.988117 
L 147.252966 134.988117 
L 147.368168 134.674607 
L 152.211882 134.674607 
L 152.327084 135.615137 
L 152.431813 135.615137 
L 152.547015 136.555667 
L 153.667615 136.555667 
L 153.782817 137.496197 
L 154.10224 137.496197 
L 154.217442 138.436728 
L 158.925009 138.436728 
L 158.940718 138.201595 
L 158.945955 139.142125 
L 159.003556 139.142125 
L 159.118757 140.082655 
L 160.490707 140.082655 
L 160.605909 141.023185 
L 164.847432 141.023185 
L 164.962633 141.963715 
L 166.318874 141.963715 
L 166.434075 142.904245 
L 172.529301 142.904245 
L 172.644503 142.669113 
L 172.979636 142.669113 
L 173.094837 143.609643 
L 173.995506 143.609643 
L 174.110708 143.37451 
L 176.760351 143.37451 
L 176.875553 143.139378 
L 178.121828 143.139378 
L 178.237029 144.079908 
L 186.93477 144.079908 
L 187.049972 145.020438 
L 188.558069 145.020438 
L 188.67327 144.785305 
L 191.438115 144.785305 
L 191.553317 145.725835 
L 200.444806 145.725835 
L 200.560008 146.666365 
L 208.01671 146.666365 
L 208.131912 146.431233 
L 220.448037 146.431233 
L 220.563239 147.371763 
L 226.396643 147.371763 
L 226.511844 148.312293 
L 226.585155 148.312293 
L 226.700357 149.252823 
L 234.026147 149.252823 
L 234.141349 148.939313 
L 238.173414 148.939313 
L 238.288616 149.879843 
L 243.430808 149.879843 
L 243.530301 150.820373 
L 243.540774 150.58524 
L 268.157316 150.58524 
L 268.272518 151.52577 
L 273.304745 151.52577 
L 273.419946 151.290638 
L 291.056304 151.290638 
L 291.171505 152.231168 
L 300.911299 152.231168 
L 301.026501 153.171698 
L 306.001126 153.171698 
L 306.116328 154.112228 
L 312.504795 154.112228 
L 312.619997 155.052758 
L 314.175222 155.052758 
L 314.290424 155.993288 
L 326.449456 155.993288 
L 326.564658 156.933818 
L 340.221315 156.933818 
L 340.336517 156.620308 
L 349.395572 156.620308 
L 349.510774 156.385176 
L 398.487273 156.385176 
L 398.487273 156.385176 
" clip-path="url(#p6c4acd4526)" style="fill: none; stroke: #bcbd22; stroke-width: 1.5; stroke-linecap: square"/>
   </g>
   <g id="line2d_22">
    <path d="M 73.832727 52.848495 
L 73.837964 52.848495 
L 73.8432 52.534985 
L 73.879855 55.356575 
L 73.911274 54.807932 
L 73.937456 54.807932 
L 74.063131 57.629522 
L 74.199279 57.629522 
L 74.288298 60.21598 
L 74.319717 59.980847 
L 74.324953 59.980847 
L 74.387791 59.667337 
L 74.393027 60.607867 
L 74.424446 60.607867 
L 74.649613 60.607867 
L 74.733396 62.488927 
L 74.764815 62.253795 
L 74.885253 62.253795 
L 75.000455 61.705152 
L 75.047583 61.705152 
L 75.105184 63.586212 
L 75.162785 63.03757 
L 75.277987 63.03757 
L 75.393189 63.9781 
L 75.655011 63.9781 
L 75.770213 63.742967 
L 75.911597 63.742967 
L 76.026799 63.429457 
L 76.152474 63.429457 
L 76.267676 64.369987 
L 76.356695 64.369987 
L 76.471897 65.310517 
L 76.545207 65.310517 
L 76.660409 66.251047 
L 77.555842 66.251047 
L 77.67628 68.132108 
L 77.859556 68.132108 
L 77.974758 69.072638 
L 78.011413 69.072638 
L 78.126615 70.013168 
L 78.220871 70.013168 
L 78.336073 69.699658 
L 78.859717 69.699658 
L 78.974919 69.464525 
L 78.995865 69.464525 
L 79.111067 70.405055 
L 79.629475 70.405055 
L 79.744677 71.345585 
L 79.838933 71.345585 
L 79.959372 73.226645 
L 80.959533 73.226645 
L 81.074735 74.167175 
L 81.92304 74.167175 
L 82.038241 75.107705 
L 82.048714 75.107705 
L 82.163916 76.048235 
L 82.23199 76.048235 
L 82.347192 76.988765 
L 83.740087 76.988765 
L 83.855289 77.929295 
L 84.185185 77.929295 
L 84.190422 78.869825 
L 84.295151 78.556315 
L 84.31086 78.556315 
L 84.426062 78.242805 
L 84.996835 78.242805 
L 85.101564 79.183335 
L 85.1068 78.869825 
L 87.002394 78.869825 
L 87.117596 79.810355 
L 87.410837 79.810355 
L 87.526039 80.750886 
L 89.547308 80.750886 
L 89.66251 81.691416 
L 90.536997 81.691416 
L 90.652199 82.631946 
L 92.804379 82.631946 
L 92.919581 83.572476 
L 94.99845 83.572476 
L 95.113652 83.258966 
L 97.333906 83.258966 
L 97.449108 82.945456 
L 97.501473 82.945456 
L 97.616675 83.885986 
L 101.051784 83.885986 
L 101.166986 84.826516 
L 101.229824 84.826516 
L 101.345026 85.767046 
L 101.70634 85.767046 
L 101.821542 86.707576 
L 103.895176 86.707576 
L 104.010378 87.648106 
L 108.199536 87.648106 
L 108.314738 88.588636 
L 112.859975 88.588636 
L 112.975177 89.529166 
L 114.991209 89.529166 
L 115.106411 89.294033 
L 117.902674 89.294033 
L 118.017876 90.234563 
L 127.558685 90.234563 
L 127.673887 89.921053 
L 130.119308 89.921053 
L 130.23451 90.861583 
L 132.543783 90.861583 
L 132.658985 91.802113 
L 133.873841 91.802113 
L 133.989043 92.742643 
L 139.099816 92.742643 
L 139.215018 92.507511 
L 147.252966 92.507511 
L 147.368168 93.448041 
L 153.667615 93.448041 
L 153.782817 94.388571 
L 154.10224 94.388571 
L 154.217442 95.329101 
L 160.490707 95.329101 
L 160.605909 96.269631 
L 164.847432 96.269631 
L 164.962633 97.210161 
L 176.760351 97.210161 
L 176.875553 96.975029 
L 178.121828 96.975029 
L 178.237029 97.915559 
L 200.444806 97.915559 
L 200.560008 98.856089 
L 220.448037 98.856089 
L 220.563239 98.542579 
L 226.396643 98.542579 
L 226.511844 99.483109 
L 234.026147 99.483109 
L 234.141349 100.423639 
L 243.430808 100.423639 
L 243.54601 100.110129 
L 300.911299 100.110129 
L 301.026501 101.050659 
L 314.175222 101.050659 
L 314.290424 101.991189 
L 326.449456 101.991189 
L 326.564658 102.931719 
L 340.221315 102.931719 
L 340.336517 103.872249 
L 398.487273 103.872249 
L 398.487273 103.872249 
" clip-path="url(#p6c4acd4526)" style="fill: none; stroke: #17becf; stroke-width: 1.5; stroke-linecap: square"/>
   </g>
   <g id="line2d_23">
    <path d="M 73.832727 51.907964 
L 73.895565 51.907964 
L 74.026476 55.670085 
L 74.068367 55.670085 
L 74.183569 56.610615 
L 74.628667 56.610615 
L 74.743869 57.551145 
L 75.655011 57.551145 
L 75.770213 58.491675 
L 75.911597 58.491675 
L 76.026799 59.432205 
L 78.220871 59.432205 
L 78.336073 60.372735 
L 84.038565 60.372735 
L 84.153766 60.137602 
L 84.190422 60.137602 
L 84.305623 61.078132 
L 94.99845 61.078132 
L 95.113652 62.018662 
L 114.991209 62.018662 
L 115.106411 62.959192 
L 139.099816 62.959192 
L 139.215018 63.899722 
L 220.448037 63.899722 
L 220.563239 64.840252 
L 243.430808 64.840252 
L 243.54601 65.780782 
L 398.487273 65.780782 
L 398.487273 65.780782 
" clip-path="url(#p6c4acd4526)" style="fill: none; stroke: #1f77b4; stroke-width: 1.5; stroke-linecap: square"/>
   </g>
   <g id="line2d_24">
    <path d="M 73.832727 51.719858 
L 73.874619 52.346879 
L 73.947929 50.277712 
L 73.953166 50.277712 
L 74.068367 49.337182 
L 74.136441 49.337182 
L 74.251643 48.396652 
L 74.89049 48.396652 
L 75.005692 47.456122 
L 78.063777 47.456122 
L 78.178979 48.396652 
L 80.509199 48.396652 
L 80.6244 49.337182 
L 80.849568 49.337182 
L 80.96477 50.277712 
L 83.755796 50.277712 
L 83.870998 51.218242 
L 84.038565 51.218242 
L 84.153766 52.158773 
L 84.47319 52.158773 
L 84.588392 53.099303 
L 87.777389 53.099303 
L 87.89259 52.158773 
L 92.977182 52.158773 
L 93.092383 51.218242 
L 94.034944 51.218242 
L 94.150146 52.158773 
L 94.705209 52.158773 
L 94.820411 51.218242 
L 126.846528 51.218242 
L 126.96173 52.158773 
L 197.376247 52.158773 
L 197.491449 53.099303 
L 250.929402 53.099303 
L 251.044604 54.039833 
L 287.657849 54.039833 
L 287.773051 54.980363 
L 339.06406 54.980363 
L 339.179262 55.920893 
L 382.704618 55.920893 
L 382.81982 54.980363 
L 398.487273 54.980363 
L 398.487273 54.980363 
" clip-path="url(#p6c4acd4526)" style="fill: none; stroke: #ff7f0e; stroke-width: 1.5; stroke-linecap: square"/>
   </g>
   <g id="patch_3">
    <path d="M 57.6 162.432 
L 57.6 41.472 
" style="fill: none; stroke: #000000; stroke-width: 0.8; stroke-linejoin: miter; stroke-linecap: square"/>
   </g>
   <g id="patch_4">
    <path d="M 414.72 162.432 
L 414.72 41.472 
" style="fill: none; stroke: #000000; stroke-width: 0.8; stroke-linejoin: miter; stroke-linecap: square"/>
   </g>
   <g id="patch_5">
    <path d="M 57.6 162.432 
L 414.72 162.432 
" style="fill: none; stroke: #000000; stroke-width: 0.8; stroke-linejoin: miter; stroke-linecap: square"/>
   </g>
   <g id="patch_6">
    <path d="M 57.6 41.472 
L 414.72 41.472 
" style="fill: none; stroke: #000000; stroke-width: 0.8; stroke-linejoin: miter; stroke-linecap: square"/>
   </g>
   <g id="text_13">
    <!-- WSP -->
    <g transform="translate(361.832136 65.482948)scale(0.08 -0.08)">
     <defs>
      <path id="DejaVuSans-57" d="M 213 4666 
L 850 4666 
L 1831 722 
L 2809 4666 
L 3519 4666 
L 4500 722 
L 5478 4666 
L 6119 4666 
L 4947 0 
L 4153 0 
L 3169 4050 
L 2175 0 
L 1381 0 
L 213 4666 
z
" transform="scale(0.015625)"/>
      <path id="DejaVuSans-53" d="M 3425 4513 
L 3425 3897 
Q 3066 4069 2747 4153 
Q 2428 4238 2131 4238 
Q 1616 4238 1336 4038 
Q 1056 3838 1056 3469 
Q 1056 3159 1242 3001 
Q 1428 2844 1947 2747 
L 2328 2669 
Q 3034 2534 3370 2195 
Q 3706 1856 3706 1288 
Q 3706 609 3251 259 
Q 2797 -91 1919 -91 
Q 1588 -91 1214 -16 
Q 841 59 441 206 
L 441 856 
Q 825 641 1194 531 
Q 1563 422 1919 422 
Q 2459 422 2753 634 
Q 3047 847 3047 1241 
Q 3047 1584 2836 1778 
Q 2625 1972 2144 2069 
L 1759 2144 
Q 1053 2284 737 2584 
Q 422 2884 422 3419 
Q 422 4038 858 4394 
Q 1294 4750 2059 4750 
Q 2388 4750 2728 4690 
Q 3069 4631 3425 4513 
z
" transform="scale(0.015625)"/>
      <path id="DejaVuSans-50" d="M 1259 4147 
L 1259 2394 
L 2053 2394 
Q 2494 2394 2734 2622 
Q 2975 2850 2975 3272 
Q 2975 3691 2734 3919 
Q 2494 4147 2053 4147 
L 1259 4147 
z
M 628 4666 
L 2053 4666 
Q 2838 4666 3239 4311 
Q 3641 3956 3641 3272 
Q 3641 2581 3239 2228 
Q 2838 1875 2053 1875 
L 1259 1875 
L 1259 0 
L 628 0 
L 628 4666 
z
" transform="scale(0.015625)"/>
     </defs>
     <use xlink:href="#DejaVuSans-57"/>
     <use xlink:href="#DejaVuSans-53" x="98.876953"/>
     <use xlink:href="#DejaVuSans-50" x="162.353516"/>
    </g>
   </g>
   <g id="text_14">
    <!-- Iambic -->
    <g transform="translate(361.832136 83.102211)scale(0.08 -0.08)">
     <defs>
      <path id="DejaVuSans-49" d="M 628 4666 
L 1259 4666 
L 1259 0 
L 628 0 
L 628 4666 
z
" transform="scale(0.015625)"/>
      <path id="DejaVuSans-61" d="M 2194 1759 
Q 1497 1759 1228 1600 
Q 959 1441 959 1056 
Q 959 750 1161 570 
Q 1363 391 1709 391 
Q 2188 391 2477 730 
Q 2766 1069 2766 1631 
L 2766 1759 
L 2194 1759 
z
M 3341 1997 
L 3341 0 
L 2766 0 
L 2766 531 
Q 2569 213 2275 61 
Q 1981 -91 1556 -91 
Q 1019 -91 701 211 
Q 384 513 384 1019 
Q 384 1609 779 1909 
Q 1175 2209 1959 2209 
L 2766 2209 
L 2766 2266 
Q 2766 2663 2505 2880 
Q 2244 3097 1772 3097 
Q 1472 3097 1187 3025 
Q 903 2953 641 2809 
L 641 3341 
Q 956 3463 1253 3523 
Q 1550 3584 1831 3584 
Q 2591 3584 2966 3190 
Q 3341 2797 3341 1997 
z
" transform="scale(0.015625)"/>
      <path id="DejaVuSans-6d" d="M 3328 2828 
Q 3544 3216 3844 3400 
Q 4144 3584 4550 3584 
Q 5097 3584 5394 3201 
Q 5691 2819 5691 2113 
L 5691 0 
L 5113 0 
L 5113 2094 
Q 5113 2597 4934 2840 
Q 4756 3084 4391 3084 
Q 3944 3084 3684 2787 
Q 3425 2491 3425 1978 
L 3425 0 
L 2847 0 
L 2847 2094 
Q 2847 2600 2669 2842 
Q 2491 3084 2119 3084 
Q 1678 3084 1418 2786 
Q 1159 2488 1159 1978 
L 1159 0 
L 581 0 
L 581 3500 
L 1159 3500 
L 1159 2956 
Q 1356 3278 1631 3431 
Q 1906 3584 2284 3584 
Q 2666 3584 2933 3390 
Q 3200 3197 3328 2828 
z
" transform="scale(0.015625)"/>
      <path id="DejaVuSans-62" d="M 3116 1747 
Q 3116 2381 2855 2742 
Q 2594 3103 2138 3103 
Q 1681 3103 1420 2742 
Q 1159 2381 1159 1747 
Q 1159 1113 1420 752 
Q 1681 391 2138 391 
Q 2594 391 2855 752 
Q 3116 1113 3116 1747 
z
M 1159 2969 
Q 1341 3281 1617 3432 
Q 1894 3584 2278 3584 
Q 2916 3584 3314 3078 
Q 3713 2572 3713 1747 
Q 3713 922 3314 415 
Q 2916 -91 2278 -91 
Q 1894 -91 1617 61 
Q 1341 213 1159 525 
L 1159 0 
L 581 0 
L 581 4863 
L 1159 4863 
L 1159 2969 
z
" transform="scale(0.015625)"/>
      <path id="DejaVuSans-69" d="M 603 3500 
L 1178 3500 
L 1178 0 
L 603 0 
L 603 3500 
z
M 603 4863 
L 1178 4863 
L 1178 4134 
L 603 4134 
L 603 4863 
z
" transform="scale(0.015625)"/>
      <path id="DejaVuSans-63" d="M 3122 3366 
L 3122 2828 
Q 2878 2963 2633 3030 
Q 2388 3097 2138 3097 
Q 1578 3097 1268 2742 
Q 959 2388 959 1747 
Q 959 1106 1268 751 
Q 1578 397 2138 397 
Q 2388 397 2633 464 
Q 2878 531 3122 666 
L 3122 134 
Q 2881 22 2623 -34 
Q 2366 -91 2075 -91 
Q 1284 -91 818 406 
Q 353 903 353 1747 
Q 353 2603 823 3093 
Q 1294 3584 2113 3584 
Q 2378 3584 2631 3529 
Q 2884 3475 3122 3366 
z
" transform="scale(0.015625)"/>
     </defs>
     <use xlink:href="#DejaVuSans-49"/>
     <use xlink:href="#DejaVuSans-61" x="29.492188"/>
     <use xlink:href="#DejaVuSans-6d" x="90.771484"/>
     <use xlink:href="#DejaVuSans-62" x="188.183594"/>
     <use xlink:href="#DejaVuSans-69" x="251.660156"/>
     <use xlink:href="#DejaVuSans-63" x="279.443359"/>
    </g>
   </g>
   <g id="text_15">
    <!-- Parse -->
    <g transform="translate(361.832136 71.831526)scale(0.08 -0.08)">
     <defs>
      <path id="DejaVuSans-72" d="M 2631 2963 
Q 2534 3019 2420 3045 
Q 2306 3072 2169 3072 
Q 1681 3072 1420 2755 
Q 1159 2438 1159 1844 
L 1159 0 
L 581 0 
L 581 3500 
L 1159 3500 
L 1159 2956 
Q 1341 3275 1631 3429 
Q 1922 3584 2338 3584 
Q 2397 3584 2469 3576 
Q 2541 3569 2628 3553 
L 2631 2963 
z
" transform="scale(0.015625)"/>
      <path id="DejaVuSans-73" d="M 2834 3397 
L 2834 2853 
Q 2591 2978 2328 3040 
Q 2066 3103 1784 3103 
Q 1356 3103 1142 2972 
Q 928 2841 928 2578 
Q 928 2378 1081 2264 
Q 1234 2150 1697 2047 
L 1894 2003 
Q 2506 1872 2764 1633 
Q 3022 1394 3022 966 
Q 3022 478 2636 193 
Q 2250 -91 1575 -91 
Q 1294 -91 989 -36 
Q 684 19 347 128 
L 347 722 
Q 666 556 975 473 
Q 1284 391 1588 391 
Q 1994 391 2212 530 
Q 2431 669 2431 922 
Q 2431 1156 2273 1281 
Q 2116 1406 1581 1522 
L 1381 1569 
Q 847 1681 609 1914 
Q 372 2147 372 2553 
Q 372 3047 722 3315 
Q 1072 3584 1716 3584 
Q 2034 3584 2315 3537 
Q 2597 3491 2834 3397 
z
" transform="scale(0.015625)"/>
      <path id="DejaVuSans-65" d="M 3597 1894 
L 3597 1613 
L 953 1613 
Q 991 1019 1311 708 
Q 1631 397 2203 397 
Q 2534 397 2845 478 
Q 3156 559 3463 722 
L 3463 178 
Q 3153 47 2828 -22 
Q 2503 -91 2169 -91 
Q 1331 -91 842 396 
Q 353 884 353 1716 
Q 353 2575 817 3079 
Q 1281 3584 2069 3584 
Q 2775 3584 3186 3129 
Q 3597 2675 3597 1894 
z
M 3022 2063 
Q 3016 2534 2758 2815 
Q 2500 3097 2075 3097 
Q 1594 3097 1305 2825 
Q 1016 2553 972 2059 
L 3022 2063 
z
" transform="scale(0.015625)"/>
     </defs>
     <use xlink:href="#DejaVuSans-50"/>
     <use xlink:href="#DejaVuSans-61" x="55.802734"/>
     <use xlink:href="#DejaVuSans-72" x="117.082031"/>
     <use xlink:href="#DejaVuSans-73" x="158.195312"/>
     <use xlink:href="#DejaVuSans-65" x="210.294922"/>
    </g>
   </g>
   <g id="text_16">
    <!-- FootBin -->
    <g transform="translate(361.832136 46.970182)scale(0.08 -0.08)">
     <defs>
      <path id="DejaVuSans-46" d="M 628 4666 
L 3309 4666 
L 3309 4134 
L 1259 4134 
L 1259 2759 
L 3109 2759 
L 3109 2228 
L 1259 2228 
L 1259 0 
L 628 0 
L 628 4666 
z
" transform="scale(0.015625)"/>
      <path id="DejaVuSans-6f" d="M 1959 3097 
Q 1497 3097 1228 2736 
Q 959 2375 959 1747 
Q 959 1119 1226 758 
Q 1494 397 1959 397 
Q 2419 397 2687 759 
Q 2956 1122 2956 1747 
Q 2956 2369 2687 2733 
Q 2419 3097 1959 3097 
z
M 1959 3584 
Q 2709 3584 3137 3096 
Q 3566 2609 3566 1747 
Q 3566 888 3137 398 
Q 2709 -91 1959 -91 
Q 1206 -91 779 398 
Q 353 888 353 1747 
Q 353 2609 779 3096 
Q 1206 3584 1959 3584 
z
" transform="scale(0.015625)"/>
      <path id="DejaVuSans-74" d="M 1172 4494 
L 1172 3500 
L 2356 3500 
L 2356 3053 
L 1172 3053 
L 1172 1153 
Q 1172 725 1289 603 
Q 1406 481 1766 481 
L 2356 481 
L 2356 0 
L 1766 0 
Q 1100 0 847 248 
Q 594 497 594 1153 
L 594 3053 
L 172 3053 
L 172 3500 
L 594 3500 
L 594 4494 
L 1172 4494 
z
" transform="scale(0.015625)"/>
      <path id="DejaVuSans-42" d="M 1259 2228 
L 1259 519 
L 2272 519 
Q 2781 519 3026 730 
Q 3272 941 3272 1375 
Q 3272 1813 3026 2020 
Q 2781 2228 2272 2228 
L 1259 2228 
z
M 1259 4147 
L 1259 2741 
L 2194 2741 
Q 2656 2741 2882 2914 
Q 3109 3088 3109 3444 
Q 3109 3797 2882 3972 
Q 2656 4147 2194 4147 
L 1259 4147 
z
M 628 4666 
L 2241 4666 
Q 2963 4666 3353 4366 
Q 3744 4066 3744 3513 
Q 3744 3084 3544 2831 
Q 3344 2578 2956 2516 
Q 3422 2416 3680 2098 
Q 3938 1781 3938 1306 
Q 3938 681 3513 340 
Q 3088 0 2303 0 
L 628 0 
L 628 4666 
z
" transform="scale(0.015625)"/>
      <path id="DejaVuSans-6e" d="M 3513 2113 
L 3513 0 
L 2938 0 
L 2938 2094 
Q 2938 2591 2744 2837 
Q 2550 3084 2163 3084 
Q 1697 3084 1428 2787 
Q 1159 2491 1159 1978 
L 1159 0 
L 581 0 
L 581 3500 
L 1159 3500 
L 1159 2956 
Q 1366 3272 1645 3428 
Q 1925 3584 2291 3584 
Q 2894 3584 3203 3211 
Q 3513 2838 3513 2113 
z
" transform="scale(0.015625)"/>
     </defs>
     <use xlink:href="#DejaVuSans-46"/>
     <use xlink:href="#DejaVuSans-6f" x="53.894531"/>
     <use xlink:href="#DejaVuSans-6f" x="115.076172"/>
     <use xlink:href="#DejaVuSans-74" x="176.257812"/>
     <use xlink:href="#DejaVuSans-42" x="215.466797"/>
     <use xlink:href="#DejaVuSans-69" x="284.070312"/>
     <use xlink:href="#DejaVuSans-6e" x="311.853516"/>
    </g>
   </g>
   <g id="text_17">
    <!-- WFL -->
    <g transform="translate(361.832136 57.801953)scale(0.08 -0.08)">
     <defs>
      <path id="DejaVuSans-4c" d="M 628 4666 
L 1259 4666 
L 1259 531 
L 3531 531 
L 3531 0 
L 628 0 
L 628 4666 
z
" transform="scale(0.015625)"/>
     </defs>
     <use xlink:href="#DejaVuSans-57"/>
     <use xlink:href="#DejaVuSans-46" x="98.876953"/>
     <use xlink:href="#DejaVuSans-4c" x="156.396484"/>
    </g>
   </g>
   <g id="text_18">
    <!-- WFR -->
    <g transform="translate(361.832136 48.145844)scale(0.08 -0.08)">
     <defs>
      <path id="DejaVuSans-52" d="M 2841 2188 
Q 3044 2119 3236 1894 
Q 3428 1669 3622 1275 
L 4263 0 
L 3584 0 
L 2988 1197 
Q 2756 1666 2539 1819 
Q 2322 1972 1947 1972 
L 1259 1972 
L 1259 0 
L 628 0 
L 628 4666 
L 2053 4666 
Q 2853 4666 3247 4331 
Q 3641 3997 3641 3322 
Q 3641 2881 3436 2590 
Q 3231 2300 2841 2188 
z
M 1259 4147 
L 1259 2491 
L 2053 2491 
Q 2509 2491 2742 2702 
Q 2975 2913 2975 3322 
Q 2975 3731 2742 3939 
Q 2509 4147 2053 4147 
L 1259 4147 
z
" transform="scale(0.015625)"/>
     </defs>
     <use xlink:href="#DejaVuSans-57"/>
     <use xlink:href="#DejaVuSans-46" x="98.876953"/>
     <use xlink:href="#DejaVuSans-52" x="156.396484"/>
    </g>
   </g>
   <g id="text_19">
    <!-- Main-L -->
    <g transform="translate(361.832136 55.920893)scale(0.08 -0.08)">
     <defs>
      <path id="DejaVuSans-4d" d="M 628 4666 
L 1569 4666 
L 2759 1491 
L 3956 4666 
L 4897 4666 
L 4897 0 
L 4281 0 
L 4281 4097 
L 3078 897 
L 2444 897 
L 1241 4097 
L 1241 0 
L 628 0 
L 628 4666 
z
" transform="scale(0.015625)"/>
      <path id="DejaVuSans-2d" d="M 313 2009 
L 1997 2009 
L 1997 1497 
L 313 1497 
L 313 2009 
z
" transform="scale(0.015625)"/>
     </defs>
     <use xlink:href="#DejaVuSans-4d"/>
     <use xlink:href="#DejaVuSans-61" x="86.279297"/>
     <use xlink:href="#DejaVuSans-69" x="147.558594"/>
     <use xlink:href="#DejaVuSans-6e" x="175.341797"/>
     <use xlink:href="#DejaVuSans-2d" x="238.720703"/>
     <use xlink:href="#DejaVuSans-4c" x="274.804688"/>
    </g>
   </g>
   <g id="text_20">
    <!-- Main-R -->
    <g transform="translate(361.832136 81.613038)scale(0.08 -0.08)">
     <use xlink:href="#DejaVuSans-4d"/>
     <use xlink:href="#DejaVuSans-61" x="86.279297"/>
     <use xlink:href="#DejaVuSans-69" x="147.558594"/>
     <use xlink:href="#DejaVuSans-6e" x="175.341797"/>
     <use xlink:href="#DejaVuSans-2d" x="238.720703"/>
     <use xlink:href="#DejaVuSans-52" x="274.804688"/>
    </g>
   </g>
   <g id="text_21">
    <!-- AFL -->
    <g transform="translate(361.832136 156.385176)scale(0.08 -0.08)">
     <defs>
      <path id="DejaVuSans-41" d="M 2188 4044 
L 1331 1722 
L 3047 1722 
L 2188 4044 
z
M 1831 4666 
L 2547 4666 
L 4325 0 
L 3669 0 
L 3244 1197 
L 1141 1197 
L 716 0 
L 50 0 
L 1831 4666 
z
" transform="scale(0.015625)"/>
     </defs>
     <use xlink:href="#DejaVuSans-41"/>
     <use xlink:href="#DejaVuSans-46" x="68.408203"/>
     <use xlink:href="#DejaVuSans-4c" x="125.927734"/>
    </g>
   </g>
   <g id="text_22">
    <!-- AFR -->
    <g transform="translate(361.832136 103.872249)scale(0.08 -0.08)">
     <use xlink:href="#DejaVuSans-41"/>
     <use xlink:href="#DejaVuSans-46" x="68.408203"/>
     <use xlink:href="#DejaVuSans-52" x="125.927734"/>
    </g>
   </g>
   <g id="text_23">
    <!-- Nonfinal -->
    <g transform="translate(361.832136 65.780782)scale(0.08 -0.08)">
     <defs>
      <path id="DejaVuSans-4e" d="M 628 4666 
L 1478 4666 
L 3547 763 
L 3547 4666 
L 4159 4666 
L 4159 0 
L 3309 0 
L 1241 3903 
L 1241 0 
L 628 0 
L 628 4666 
z
" transform="scale(0.015625)"/>
      <path id="DejaVuSans-66" d="M 2375 4863 
L 2375 4384 
L 1825 4384 
Q 1516 4384 1395 4259 
Q 1275 4134 1275 3809 
L 1275 3500 
L 2222 3500 
L 2222 3053 
L 1275 3053 
L 1275 0 
L 697 0 
L 697 3053 
L 147 3053 
L 147 3500 
L 697 3500 
L 697 3744 
Q 697 4328 969 4595 
Q 1241 4863 1831 4863 
L 2375 4863 
z
" transform="scale(0.015625)"/>
      <path id="DejaVuSans-6c" d="M 603 4863 
L 1178 4863 
L 1178 0 
L 603 0 
L 603 4863 
z
" transform="scale(0.015625)"/>
     </defs>
     <use xlink:href="#DejaVuSans-4e"/>
     <use xlink:href="#DejaVuSans-6f" x="74.804688"/>
     <use xlink:href="#DejaVuSans-6e" x="135.986328"/>
     <use xlink:href="#DejaVuSans-66" x="199.365234"/>
     <use xlink:href="#DejaVuSans-69" x="234.570312"/>
     <use xlink:href="#DejaVuSans-6e" x="262.353516"/>
     <use xlink:href="#DejaVuSans-61" x="325.732422"/>
     <use xlink:href="#DejaVuSans-6c" x="387.011719"/>
    </g>
   </g>
   <g id="text_24">
    <!-- Trochaic -->
    <g transform="translate(361.832136 54.980363)scale(0.08 -0.08)">
     <defs>
      <path id="DejaVuSans-54" d="M -19 4666 
L 3928 4666 
L 3928 4134 
L 2272 4134 
L 2272 0 
L 1638 0 
L 1638 4134 
L -19 4134 
L -19 4666 
z
" transform="scale(0.015625)"/>
      <path id="DejaVuSans-68" d="M 3513 2113 
L 3513 0 
L 2938 0 
L 2938 2094 
Q 2938 2591 2744 2837 
Q 2550 3084 2163 3084 
Q 1697 3084 1428 2787 
Q 1159 2491 1159 1978 
L 1159 0 
L 581 0 
L 581 4863 
L 1159 4863 
L 1159 2956 
Q 1366 3272 1645 3428 
Q 1925 3584 2291 3584 
Q 2894 3584 3203 3211 
Q 3513 2838 3513 2113 
z
" transform="scale(0.015625)"/>
     </defs>
     <use xlink:href="#DejaVuSans-54"/>
     <use xlink:href="#DejaVuSans-72" x="46.333984"/>
     <use xlink:href="#DejaVuSans-6f" x="85.197266"/>
     <use xlink:href="#DejaVuSans-63" x="146.378906"/>
     <use xlink:href="#DejaVuSans-68" x="201.359375"/>
     <use xlink:href="#DejaVuSans-61" x="264.738281"/>
     <use xlink:href="#DejaVuSans-69" x="326.017578"/>
     <use xlink:href="#DejaVuSans-63" x="353.800781"/>
    </g>
   </g>
  </g>
  <g id="axes_2">
   <g id="patch_7">
    <path d="M 57.6 307.584 
L 414.72 307.584 
L 414.72 186.624 
L 57.6 186.624 
z
" style="fill: #ffffff"/>
   </g>
   <g id="matplotlib.axis_3">
    <g id="xtick_8">
     <g id="line2d_25">
      <g>
       <use xlink:href="#m830667a50e" x="72.271888" y="307.584" style="stroke: #000000; stroke-width: 0.8"/>
      </g>
     </g>
     <g id="text_25">
      <!-- 0 -->
      <g transform="translate(69.090638 322.182437)scale(0.1 -0.1)">
       <use xlink:href="#DejaVuSans-30"/>
      </g>
     </g>
    </g>
    <g id="xtick_9">
     <g id="line2d_26">
      <g>
       <use xlink:href="#m830667a50e" x="150.313846" y="307.584" style="stroke: #000000; stroke-width: 0.8"/>
      </g>
     </g>
     <g id="text_26">
      <!-- 50 -->
      <g transform="translate(143.951346 322.182437)scale(0.1 -0.1)">
       <use xlink:href="#DejaVuSans-35"/>
       <use xlink:href="#DejaVuSans-30" x="63.623047"/>
      </g>
     </g>
    </g>
    <g id="xtick_10">
     <g id="line2d_27">
      <g>
       <use xlink:href="#m830667a50e" x="228.355804" y="307.584" style="stroke: #000000; stroke-width: 0.8"/>
      </g>
     </g>
     <g id="text_27">
      <!-- 100 -->
      <g transform="translate(218.812054 322.182437)scale(0.1 -0.1)">
       <use xlink:href="#DejaVuSans-31"/>
       <use xlink:href="#DejaVuSans-30" x="63.623047"/>
       <use xlink:href="#DejaVuSans-30" x="127.246094"/>
      </g>
     </g>
    </g>
    <g id="xtick_11">
     <g id="line2d_28">
      <g>
       <use xlink:href="#m830667a50e" x="306.397762" y="307.584" style="stroke: #000000; stroke-width: 0.8"/>
      </g>
     </g>
     <g id="text_28">
      <!-- 150 -->
      <g transform="translate(296.854012 322.182437)scale(0.1 -0.1)">
       <use xlink:href="#DejaVuSans-31"/>
       <use xlink:href="#DejaVuSans-35" x="63.623047"/>
       <use xlink:href="#DejaVuSans-30" x="127.246094"/>
      </g>
     </g>
    </g>
    <g id="xtick_12">
     <g id="line2d_29">
      <g>
       <use xlink:href="#m830667a50e" x="384.43972" y="307.584" style="stroke: #000000; stroke-width: 0.8"/>
      </g>
     </g>
     <g id="text_29">
      <!-- 200 -->
      <g transform="translate(374.89597 322.182437)scale(0.1 -0.1)">
       <use xlink:href="#DejaVuSans-32"/>
       <use xlink:href="#DejaVuSans-30" x="63.623047"/>
       <use xlink:href="#DejaVuSans-30" x="127.246094"/>
      </g>
     </g>
    </g>
   </g>
   <g id="matplotlib.axis_4">
    <g id="ytick_6">
     <g id="line2d_30">
      <g>
       <use xlink:href="#m00a5253c07" x="57.6" y="302.103108" style="stroke: #000000; stroke-width: 0.8"/>
      </g>
     </g>
     <g id="text_30">
      <!-- 0 -->
      <g transform="translate(44.2375 305.902327)scale(0.1 -0.1)">
       <use xlink:href="#DejaVuSans-30"/>
      </g>
     </g>
    </g>
    <g id="ytick_7">
     <g id="line2d_31">
      <g>
       <use xlink:href="#m00a5253c07" x="57.6" y="267.523348" style="stroke: #000000; stroke-width: 0.8"/>
      </g>
     </g>
     <g id="text_31">
      <!-- 2000 -->
      <g transform="translate(25.15 271.322567)scale(0.1 -0.1)">
       <use xlink:href="#DejaVuSans-32"/>
       <use xlink:href="#DejaVuSans-30" x="63.623047"/>
       <use xlink:href="#DejaVuSans-30" x="127.246094"/>
       <use xlink:href="#DejaVuSans-30" x="190.869141"/>
      </g>
     </g>
    </g>
    <g id="ytick_8">
     <g id="line2d_32">
      <g>
       <use xlink:href="#m00a5253c07" x="57.6" y="232.943588" style="stroke: #000000; stroke-width: 0.8"/>
      </g>
     </g>
     <g id="text_32">
      <!-- 4000 -->
      <g transform="translate(25.15 236.742807)scale(0.1 -0.1)">
       <use xlink:href="#DejaVuSans-34"/>
       <use xlink:href="#DejaVuSans-30" x="63.623047"/>
       <use xlink:href="#DejaVuSans-30" x="127.246094"/>
       <use xlink:href="#DejaVuSans-30" x="190.869141"/>
      </g>
     </g>
    </g>
    <g id="ytick_9">
     <g id="line2d_33">
      <g>
       <use xlink:href="#m00a5253c07" x="57.6" y="198.363828" style="stroke: #000000; stroke-width: 0.8"/>
      </g>
     </g>
     <g id="text_33">
      <!-- 6000 -->
      <g transform="translate(25.15 202.163047)scale(0.1 -0.1)">
       <use xlink:href="#DejaVuSans-36"/>
       <use xlink:href="#DejaVuSans-30" x="63.623047"/>
       <use xlink:href="#DejaVuSans-30" x="127.246094"/>
       <use xlink:href="#DejaVuSans-30" x="190.869141"/>
      </g>
     </g>
    </g>
   </g>
   <g id="line2d_34">
    <path d="M 73.832727 302.085818 
L 103.488671 302.085818 
L 105.04951 301.89563 
L 108.171189 301.999369 
L 115.975385 301.999369 
L 120.657902 301.982079 
L 122.218741 301.912919 
L 123.77958 302.085818 
L 125.34042 301.89563 
L 126.901259 301.567122 
L 128.462098 302.051238 
L 130.022937 302.033949 
L 131.583776 301.87834 
L 133.144615 302.051238 
L 134.705455 301.82647 
L 136.266294 301.87834 
L 137.827133 302.085818 
L 140.948811 301.999369 
L 142.50965 301.80918 
L 144.07049 302.051238 
L 148.753007 301.947499 
L 150.313846 301.688151 
L 151.874685 301.636281 
L 153.435524 301.325063 
L 154.996364 302.051238 
L 156.557203 301.912919 
L 158.118042 302.033949 
L 161.23972 301.930209 
L 162.800559 301.80918 
L 164.361399 301.307774 
L 169.043916 301.653571 
L 170.604755 301.532542 
L 172.165594 301.86105 
L 173.726434 301.515252 
L 175.287273 301.653571 
L 176.848112 301.446093 
L 178.408951 302.016659 
L 179.96979 302.068528 
L 181.530629 301.84376 
L 183.091469 301.87834 
L 184.652308 301.480672 
L 186.213147 301.947499 
L 187.773986 301.601702 
L 189.334825 301.930209 
L 190.895664 301.584412 
L 192.456503 300.668048 
L 194.017343 301.912919 
L 195.578182 301.618991 
L 197.139021 301.670861 
L 198.69986 302.085818 
L 200.260699 300.011033 
L 201.821538 301.532542 
L 203.382378 301.982079 
L 204.943217 302.051238 
L 206.504056 301.497962 
L 208.064895 300.547019 
L 209.625734 300.979266 
L 211.186573 301.740021 
L 212.747413 300.080192 
L 214.308252 301.75731 
L 215.869091 301.290484 
L 217.42993 301.87834 
L 218.990769 301.912919 
L 220.551608 301.497962 
L 222.112448 298.420364 
L 223.673287 300.806367 
L 225.234126 302.051238 
L 226.794965 301.376933 
L 228.355804 301.89563 
L 229.916643 301.618991 
L 231.477483 302.085818 
L 233.038322 301.705441 
L 234.599161 301.964789 
L 236.16 301.705441 
L 237.720839 301.912919 
L 239.281678 300.840947 
L 240.842517 301.82647 
L 242.403357 301.75731 
L 243.964196 301.411513 
L 245.525035 298.575973 
L 247.085874 301.87834 
L 248.646713 300.270381 
L 250.207552 301.688151 
L 251.768392 301.169455 
L 253.329231 300.892816 
L 254.89007 298.697002 
L 256.450909 299.665235 
L 258.011748 298.835321 
L 259.572587 301.342353 
L 261.133427 297.953537 
L 262.694266 299.526916 
L 264.255105 301.532542 
L 265.815944 298.610552 
L 267.376783 300.35683 
L 268.937622 301.636281 
L 270.498462 301.134875 
L 272.059301 300.892816 
L 273.62014 298.610552 
L 275.180979 299.094669 
L 276.741818 301.549832 
L 278.302657 300.460569 
L 279.863497 295.671273 
L 281.424336 300.270381 
L 284.546014 301.532542 
L 287.667692 301.930209 
L 289.228531 300.529729 
L 290.789371 300.910106 
L 292.35021 301.636281 
L 293.911049 297.607739 
L 295.471888 301.031136 
L 297.032727 300.789077 
L 298.593566 289.204858 
L 300.154406 297.728768 
L 301.715245 291.089455 
L 303.276084 296.674086 
L 304.836923 300.495149 
L 306.397762 299.250278 
L 307.958601 295.342765 
L 309.519441 293.942285 
L 311.08028 283.896864 
L 312.641119 298.93906 
L 314.201958 300.996556 
L 315.762797 300.858237 
L 317.323636 295.290895 
L 318.884476 300.460569 
L 320.445315 300.702628 
L 322.006154 296.570346 
L 323.566993 301.031136 
L 325.127832 298.420364 
L 326.688671 301.394223 
L 328.24951 284.847808 
L 329.81035 297.071753 
L 331.371189 291.538991 
L 332.932028 290.778237 
L 334.492867 285.729592 
L 336.053706 301.376933 
L 337.614545 298.022696 
L 339.175385 300.668048 
L 340.736224 286.179129 
L 342.297063 302.051238 
L 343.857902 301.89563 
L 345.418741 297.192782 
L 346.97958 287.717928 
L 348.54042 297.244652 
L 350.101259 281.59731 
L 351.662098 300.616178 
L 353.222937 298.748871 
L 354.783776 292.974051 
L 356.344615 297.607739 
L 357.905455 273.00424 
L 359.466294 296.743245 
L 361.027133 292.593674 
L 362.587972 282.496384 
L 364.148811 291.971238 
L 365.70965 277.101942 
L 367.27049 261.056933 
L 368.831329 282.461804 
L 370.392168 301.480672 
L 371.953007 277.534189 
L 373.513846 288.409523 
L 375.074685 284.744069 
L 376.635524 301.7746 
L 378.196364 277.672508 
L 379.757203 245.219403 
L 381.318042 285.107156 
L 382.878881 254.711547 
L 384.43972 290.881976 
L 386.000559 269.563554 
L 387.561399 285.297345 
L 389.122238 280.629077 
L 390.683077 296.587636 
L 392.243916 261.57563 
L 393.804755 260.451787 
L 395.365594 298.282045 
L 396.926434 271.811238 
L 398.487273 192.122182 
L 398.487273 192.122182 
" clip-path="url(#pb8e9cb749d)" style="fill: none; stroke: #1f77b4; stroke-width: 1.5; stroke-linecap: square"/>
   </g>
   <g id="patch_8">
    <path d="M 57.6 307.584 
L 57.6 186.624 
" style="fill: none; stroke: #000000; stroke-width: 0.8; stroke-linejoin: miter; stroke-linecap: square"/>
   </g>
   <g id="patch_9">
    <path d="M 414.72 307.584 
L 414.72 186.624 
" style="fill: none; stroke: #000000; stroke-width: 0.8; stroke-linejoin: miter; stroke-linecap: square"/>
   </g>
   <g id="patch_10">
    <path d="M 57.6 307.584 
L 414.72 307.584 
" style="fill: none; stroke: #000000; stroke-width: 0.8; stroke-linejoin: miter; stroke-linecap: square"/>
   </g>
   <g id="patch_11">
    <path d="M 57.6 186.624 
L 414.72 186.624 
" style="fill: none; stroke: #000000; stroke-width: 0.8; stroke-linejoin: miter; stroke-linecap: square"/>
   </g>
  </g>
 </g>
 <defs>
  <clipPath id="p6c4acd4526">
   <rect x="57.6" y="41.472" width="357.12" height="120.96"/>
  </clipPath>
  <clipPath id="pb8e9cb749d">
   <rect x="57.6" y="186.624" width="357.12" height="120.96"/>
  </clipPath>
 </defs>
</svg>
