<?xml version="1.0" encoding="utf-8" standalone="no"?>
<!DOCTYPE svg PUBLIC "-//W3C//DTD SVG 1.1//EN"
  "http://www.w3.org/Graphics/SVG/1.1/DTD/svg11.dtd">
<svg xmlns:xlink="http://www.w3.org/1999/xlink" width="460.8pt" height="345.6pt" viewBox="0 0 460.8 345.6" xmlns="http://www.w3.org/2000/svg" version="1.1">
 <metadata>
  <rdf:RDF xmlns:dc="http://purl.org/dc/elements/1.1/" xmlns:cc="http://creativecommons.org/ns#" xmlns:rdf="http://www.w3.org/1999/02/22-rdf-syntax-ns#">
   <cc:Work>
    <dc:type rdf:resource="http://purl.org/dc/dcmitype/StillImage"/>
    <dc:date>2022-05-14T03:53:52.505165</dc:date>
    <dc:format>image/svg+xml</dc:format>
    <dc:creator>
     <cc:Agent>
      <dc:title>Matplotlib v3.5.1, https://matplotlib.org/</dc:title>
     </cc:Agent>
    </dc:creator>
   </cc:Work>
  </rdf:RDF>
 </metadata>
 <defs>
  <style type="text/css">*{stroke-linejoin: round; stroke-linecap: butt}</style>
 </defs>
 <g id="figure_1">
  <g id="patch_1">
   <path d="M 0 345.6 
L 460.8 345.6 
L 460.8 0 
L 0 0 
z
" style="fill: #ffffff"/>
  </g>
  <g id="axes_1">
   <g id="patch_2">
    <path d="M 57.6 162.432 
L 414.72 162.432 
L 414.72 41.472 
L 57.6 41.472 
z
" style="fill: #ffffff"/>
   </g>
   <g id="matplotlib.axis_1">
    <g id="xtick_1">
     <g id="line2d_1">
      <defs>
       <path id="m1168daf4f5" d="M 0 0 
L 0 3.5 
" style="stroke: #000000; stroke-width: 0.8"/>
      </defs>
      <g>
       <use xlink:href="#m1168daf4f5" x="73.827491" y="162.432" style="stroke: #000000; stroke-width: 0.8"/>
      </g>
     </g>
     <g id="text_1">
      <!-- 0 -->
      <g transform="translate(70.646241 177.030437)scale(0.1 -0.1)">
       <defs>
        <path id="DejaVuSans-30" d="M 2034 4250 
Q 1547 4250 1301 3770 
Q 1056 3291 1056 2328 
Q 1056 1369 1301 889 
Q 1547 409 2034 409 
Q 2525 409 2770 889 
Q 3016 1369 3016 2328 
Q 3016 3291 2770 3770 
Q 2525 4250 2034 4250 
z
M 2034 4750 
Q 2819 4750 3233 4129 
Q 3647 3509 3647 2328 
Q 3647 1150 3233 529 
Q 2819 -91 2034 -91 
Q 1250 -91 836 529 
Q 422 1150 422 2328 
Q 422 3509 836 4129 
Q 1250 4750 2034 4750 
z
" transform="scale(0.015625)"/>
       </defs>
       <use xlink:href="#DejaVuSans-30"/>
      </g>
     </g>
    </g>
    <g id="xtick_2">
     <g id="line2d_2">
      <g>
       <use xlink:href="#m1168daf4f5" x="126.191972" y="162.432" style="stroke: #000000; stroke-width: 0.8"/>
      </g>
     </g>
     <g id="text_2">
      <!-- 10000 -->
      <g transform="translate(110.285722 177.030437)scale(0.1 -0.1)">
       <defs>
        <path id="DejaVuSans-31" d="M 794 531 
L 1825 531 
L 1825 4091 
L 703 3866 
L 703 4441 
L 1819 4666 
L 2450 4666 
L 2450 531 
L 3481 531 
L 3481 0 
L 794 0 
L 794 531 
z
" transform="scale(0.015625)"/>
       </defs>
       <use xlink:href="#DejaVuSans-31"/>
       <use xlink:href="#DejaVuSans-30" x="63.623047"/>
       <use xlink:href="#DejaVuSans-30" x="127.246094"/>
       <use xlink:href="#DejaVuSans-30" x="190.869141"/>
       <use xlink:href="#DejaVuSans-30" x="254.492188"/>
      </g>
     </g>
    </g>
    <g id="xtick_3">
     <g id="line2d_3">
      <g>
       <use xlink:href="#m1168daf4f5" x="178.556453" y="162.432" style="stroke: #000000; stroke-width: 0.8"/>
      </g>
     </g>
     <g id="text_3">
      <!-- 20000 -->
      <g transform="translate(162.650203 177.030437)scale(0.1 -0.1)">
       <defs>
        <path id="DejaVuSans-32" d="M 1228 531 
L 3431 531 
L 3431 0 
L 469 0 
L 469 531 
Q 828 903 1448 1529 
Q 2069 2156 2228 2338 
Q 2531 2678 2651 2914 
Q 2772 3150 2772 3378 
Q 2772 3750 2511 3984 
Q 2250 4219 1831 4219 
Q 1534 4219 1204 4116 
Q 875 4013 500 3803 
L 500 4441 
Q 881 4594 1212 4672 
Q 1544 4750 1819 4750 
Q 2544 4750 2975 4387 
Q 3406 4025 3406 3419 
Q 3406 3131 3298 2873 
Q 3191 2616 2906 2266 
Q 2828 2175 2409 1742 
Q 1991 1309 1228 531 
z
" transform="scale(0.015625)"/>
       </defs>
       <use xlink:href="#DejaVuSans-32"/>
       <use xlink:href="#DejaVuSans-30" x="63.623047"/>
       <use xlink:href="#DejaVuSans-30" x="127.246094"/>
       <use xlink:href="#DejaVuSans-30" x="190.869141"/>
       <use xlink:href="#DejaVuSans-30" x="254.492188"/>
      </g>
     </g>
    </g>
    <g id="xtick_4">
     <g id="line2d_4">
      <g>
       <use xlink:href="#m1168daf4f5" x="230.920934" y="162.432" style="stroke: #000000; stroke-width: 0.8"/>
      </g>
     </g>
     <g id="text_4">
      <!-- 30000 -->
      <g transform="translate(215.014684 177.030437)scale(0.1 -0.1)">
       <defs>
        <path id="DejaVuSans-33" d="M 2597 2516 
Q 3050 2419 3304 2112 
Q 3559 1806 3559 1356 
Q 3559 666 3084 287 
Q 2609 -91 1734 -91 
Q 1441 -91 1130 -33 
Q 819 25 488 141 
L 488 750 
Q 750 597 1062 519 
Q 1375 441 1716 441 
Q 2309 441 2620 675 
Q 2931 909 2931 1356 
Q 2931 1769 2642 2001 
Q 2353 2234 1838 2234 
L 1294 2234 
L 1294 2753 
L 1863 2753 
Q 2328 2753 2575 2939 
Q 2822 3125 2822 3475 
Q 2822 3834 2567 4026 
Q 2313 4219 1838 4219 
Q 1578 4219 1281 4162 
Q 984 4106 628 3988 
L 628 4550 
Q 988 4650 1302 4700 
Q 1616 4750 1894 4750 
Q 2613 4750 3031 4423 
Q 3450 4097 3450 3541 
Q 3450 3153 3228 2886 
Q 3006 2619 2597 2516 
z
" transform="scale(0.015625)"/>
       </defs>
       <use xlink:href="#DejaVuSans-33"/>
       <use xlink:href="#DejaVuSans-30" x="63.623047"/>
       <use xlink:href="#DejaVuSans-30" x="127.246094"/>
       <use xlink:href="#DejaVuSans-30" x="190.869141"/>
       <use xlink:href="#DejaVuSans-30" x="254.492188"/>
      </g>
     </g>
    </g>
    <g id="xtick_5">
     <g id="line2d_5">
      <g>
       <use xlink:href="#m1168daf4f5" x="283.285415" y="162.432" style="stroke: #000000; stroke-width: 0.8"/>
      </g>
     </g>
     <g id="text_5">
      <!-- 40000 -->
      <g transform="translate(267.379165 177.030437)scale(0.1 -0.1)">
       <defs>
        <path id="DejaVuSans-34" d="M 2419 4116 
L 825 1625 
L 2419 1625 
L 2419 4116 
z
M 2253 4666 
L 3047 4666 
L 3047 1625 
L 3713 1625 
L 3713 1100 
L 3047 1100 
L 3047 0 
L 2419 0 
L 2419 1100 
L 313 1100 
L 313 1709 
L 2253 4666 
z
" transform="scale(0.015625)"/>
       </defs>
       <use xlink:href="#DejaVuSans-34"/>
       <use xlink:href="#DejaVuSans-30" x="63.623047"/>
       <use xlink:href="#DejaVuSans-30" x="127.246094"/>
       <use xlink:href="#DejaVuSans-30" x="190.869141"/>
       <use xlink:href="#DejaVuSans-30" x="254.492188"/>
      </g>
     </g>
    </g>
    <g id="xtick_6">
     <g id="line2d_6">
      <g>
       <use xlink:href="#m1168daf4f5" x="335.649896" y="162.432" style="stroke: #000000; stroke-width: 0.8"/>
      </g>
     </g>
     <g id="text_6">
      <!-- 50000 -->
      <g transform="translate(319.743646 177.030437)scale(0.1 -0.1)">
       <defs>
        <path id="DejaVuSans-35" d="M 691 4666 
L 3169 4666 
L 3169 4134 
L 1269 4134 
L 1269 2991 
Q 1406 3038 1543 3061 
Q 1681 3084 1819 3084 
Q 2600 3084 3056 2656 
Q 3513 2228 3513 1497 
Q 3513 744 3044 326 
Q 2575 -91 1722 -91 
Q 1428 -91 1123 -41 
Q 819 9 494 109 
L 494 744 
Q 775 591 1075 516 
Q 1375 441 1709 441 
Q 2250 441 2565 725 
Q 2881 1009 2881 1497 
Q 2881 1984 2565 2268 
Q 2250 2553 1709 2553 
Q 1456 2553 1204 2497 
Q 953 2441 691 2322 
L 691 4666 
z
" transform="scale(0.015625)"/>
       </defs>
       <use xlink:href="#DejaVuSans-35"/>
       <use xlink:href="#DejaVuSans-30" x="63.623047"/>
       <use xlink:href="#DejaVuSans-30" x="127.246094"/>
       <use xlink:href="#DejaVuSans-30" x="190.869141"/>
       <use xlink:href="#DejaVuSans-30" x="254.492188"/>
      </g>
     </g>
    </g>
    <g id="xtick_7">
     <g id="line2d_7">
      <g>
       <use xlink:href="#m1168daf4f5" x="388.014377" y="162.432" style="stroke: #000000; stroke-width: 0.8"/>
      </g>
     </g>
     <g id="text_7">
      <!-- 60000 -->
      <g transform="translate(372.108127 177.030437)scale(0.1 -0.1)">
       <defs>
        <path id="DejaVuSans-36" d="M 2113 2584 
Q 1688 2584 1439 2293 
Q 1191 2003 1191 1497 
Q 1191 994 1439 701 
Q 1688 409 2113 409 
Q 2538 409 2786 701 
Q 3034 994 3034 1497 
Q 3034 2003 2786 2293 
Q 2538 2584 2113 2584 
z
M 3366 4563 
L 3366 3988 
Q 3128 4100 2886 4159 
Q 2644 4219 2406 4219 
Q 1781 4219 1451 3797 
Q 1122 3375 1075 2522 
Q 1259 2794 1537 2939 
Q 1816 3084 2150 3084 
Q 2853 3084 3261 2657 
Q 3669 2231 3669 1497 
Q 3669 778 3244 343 
Q 2819 -91 2113 -91 
Q 1303 -91 875 529 
Q 447 1150 447 2328 
Q 447 3434 972 4092 
Q 1497 4750 2381 4750 
Q 2619 4750 2861 4703 
Q 3103 4656 3366 4563 
z
" transform="scale(0.015625)"/>
       </defs>
       <use xlink:href="#DejaVuSans-36"/>
       <use xlink:href="#DejaVuSans-30" x="63.623047"/>
       <use xlink:href="#DejaVuSans-30" x="127.246094"/>
       <use xlink:href="#DejaVuSans-30" x="190.869141"/>
       <use xlink:href="#DejaVuSans-30" x="254.492188"/>
      </g>
     </g>
    </g>
   </g>
   <g id="matplotlib.axis_2">
    <g id="ytick_1">
     <g id="line2d_8">
      <defs>
       <path id="m662f6a38b5" d="M 0 0 
L -3.5 0 
" style="stroke: #000000; stroke-width: 0.8"/>
      </defs>
      <g>
       <use xlink:href="#m662f6a38b5" x="57.6" y="137.08445" style="stroke: #000000; stroke-width: 0.8"/>
      </g>
     </g>
     <g id="text_8">
      <!-- 70 -->
      <g transform="translate(37.875 140.883669)scale(0.1 -0.1)">
       <defs>
        <path id="DejaVuSans-37" d="M 525 4666 
L 3525 4666 
L 3525 4397 
L 1831 0 
L 1172 0 
L 2766 4134 
L 525 4134 
L 525 4666 
z
" transform="scale(0.015625)"/>
       </defs>
       <use xlink:href="#DejaVuSans-37"/>
       <use xlink:href="#DejaVuSans-30" x="63.623047"/>
      </g>
     </g>
    </g>
    <g id="ytick_2">
     <g id="line2d_9">
      <g>
       <use xlink:href="#m662f6a38b5" x="57.6" y="109.127593" style="stroke: #000000; stroke-width: 0.8"/>
      </g>
     </g>
     <g id="text_9">
      <!-- 80 -->
      <g transform="translate(37.875 112.926812)scale(0.1 -0.1)">
       <defs>
        <path id="DejaVuSans-38" d="M 2034 2216 
Q 1584 2216 1326 1975 
Q 1069 1734 1069 1313 
Q 1069 891 1326 650 
Q 1584 409 2034 409 
Q 2484 409 2743 651 
Q 3003 894 3003 1313 
Q 3003 1734 2745 1975 
Q 2488 2216 2034 2216 
z
M 1403 2484 
Q 997 2584 770 2862 
Q 544 3141 544 3541 
Q 544 4100 942 4425 
Q 1341 4750 2034 4750 
Q 2731 4750 3128 4425 
Q 3525 4100 3525 3541 
Q 3525 3141 3298 2862 
Q 3072 2584 2669 2484 
Q 3125 2378 3379 2068 
Q 3634 1759 3634 1313 
Q 3634 634 3220 271 
Q 2806 -91 2034 -91 
Q 1263 -91 848 271 
Q 434 634 434 1313 
Q 434 1759 690 2068 
Q 947 2378 1403 2484 
z
M 1172 3481 
Q 1172 3119 1398 2916 
Q 1625 2713 2034 2713 
Q 2441 2713 2670 2916 
Q 2900 3119 2900 3481 
Q 2900 3844 2670 4047 
Q 2441 4250 2034 4250 
Q 1625 4250 1398 4047 
Q 1172 3844 1172 3481 
z
" transform="scale(0.015625)"/>
       </defs>
       <use xlink:href="#DejaVuSans-38"/>
       <use xlink:href="#DejaVuSans-30" x="63.623047"/>
      </g>
     </g>
    </g>
    <g id="ytick_3">
     <g id="line2d_10">
      <g>
       <use xlink:href="#m662f6a38b5" x="57.6" y="81.170737" style="stroke: #000000; stroke-width: 0.8"/>
      </g>
     </g>
     <g id="text_10">
      <!-- 90 -->
      <g transform="translate(37.875 84.969955)scale(0.1 -0.1)">
       <defs>
        <path id="DejaVuSans-39" d="M 703 97 
L 703 672 
Q 941 559 1184 500 
Q 1428 441 1663 441 
Q 2288 441 2617 861 
Q 2947 1281 2994 2138 
Q 2813 1869 2534 1725 
Q 2256 1581 1919 1581 
Q 1219 1581 811 2004 
Q 403 2428 403 3163 
Q 403 3881 828 4315 
Q 1253 4750 1959 4750 
Q 2769 4750 3195 4129 
Q 3622 3509 3622 2328 
Q 3622 1225 3098 567 
Q 2575 -91 1691 -91 
Q 1453 -91 1209 -44 
Q 966 3 703 97 
z
M 1959 2075 
Q 2384 2075 2632 2365 
Q 2881 2656 2881 3163 
Q 2881 3666 2632 3958 
Q 2384 4250 1959 4250 
Q 1534 4250 1286 3958 
Q 1038 3666 1038 3163 
Q 1038 2656 1286 2365 
Q 1534 2075 1959 2075 
z
" transform="scale(0.015625)"/>
       </defs>
       <use xlink:href="#DejaVuSans-39"/>
       <use xlink:href="#DejaVuSans-30" x="63.623047"/>
      </g>
     </g>
    </g>
    <g id="ytick_4">
     <g id="line2d_11">
      <g>
       <use xlink:href="#m662f6a38b5" x="57.6" y="53.21388" style="stroke: #000000; stroke-width: 0.8"/>
      </g>
     </g>
     <g id="text_11">
      <!-- 100 -->
      <g transform="translate(31.5125 57.013099)scale(0.1 -0.1)">
       <use xlink:href="#DejaVuSans-31"/>
       <use xlink:href="#DejaVuSans-30" x="63.623047"/>
       <use xlink:href="#DejaVuSans-30" x="127.246094"/>
      </g>
     </g>
    </g>
   </g>
   <g id="line2d_12">
    <path d="M 73.832727 53.21388 
L 73.979348 72.550706 
L 73.984584 72.550706 
L 74.026476 69.75502 
L 74.063131 75.346391 
L 74.07884 75.346391 
L 74.214988 89.32482 
L 74.24117 89.32482 
L 74.356372 92.120505 
L 74.382554 92.120505 
L 74.471574 103.303248 
L 74.508229 101.905405 
L 74.523938 101.905405 
L 74.63914 104.701091 
L 74.696741 104.701091 
L 74.811943 107.496777 
L 74.832889 107.496777 
L 74.948091 110.292462 
L 74.958564 110.292462 
L 75.042347 108.894619 
L 75.047583 111.690305 
L 75.063293 111.690305 
L 75.162785 111.690305 
L 75.283223 117.281676 
L 75.419371 117.281676 
L 75.534573 120.077362 
L 75.953489 120.077362 
L 76.068691 122.873048 
L 76.40906 122.873048 
L 76.524262 121.475205 
L 76.859394 121.475205 
L 76.974596 124.270891 
L 77.383039 124.270891 
L 77.493004 123.338995 
L 77.608206 126.134681 
L 78.493166 126.134681 
L 78.608368 128.930367 
L 80.147884 128.930367 
L 80.263086 127.532524 
L 80.744839 127.532524 
L 80.860041 126.600629 
L 83.546338 126.600629 
L 83.66154 129.396314 
L 92.097458 129.396314 
L 92.21266 127.998471 
L 95.296928 127.998471 
L 95.41213 130.794157 
L 102.334714 130.794157 
L 102.449916 133.589843 
L 104.418821 133.589843 
L 104.534022 136.385529 
L 105.005303 136.385529 
L 105.120505 139.181214 
L 112.331094 139.181214 
L 112.446296 141.9769 
L 170.335229 141.9769 
L 170.450431 144.772586 
L 190.563628 144.772586 
L 190.67883 147.568271 
L 190.809741 147.568271 
L 190.924943 146.636376 
L 205.738855 146.636376 
L 205.854057 145.238533 
L 276.52516 145.238533 
L 276.640362 144.539612 
L 277.17448 144.539612 
L 277.289682 147.335297 
L 358.800233 147.335297 
L 358.915434 150.130983 
L 398.487273 150.130983 
L 398.487273 150.130983 
" clip-path="url(#pb1eb76da0e)" style="fill: none; stroke: #1f77b4; stroke-width: 1.5; stroke-linecap: square"/>
   </g>
   <g id="line2d_13">
    <path d="M 73.832727 56.009565 
L 73.874619 63.837485 
L 73.947929 58.479088 
L 73.953166 58.479088 
L 74.068367 57.780166 
L 74.413973 57.780166 
L 74.529175 60.575852 
L 75.225622 60.575852 
L 75.340824 63.371538 
L 398.487273 63.371538 
L 398.487273 63.371538 
" clip-path="url(#pb1eb76da0e)" style="fill: none; stroke: #ff7f0e; stroke-width: 1.5; stroke-linecap: square"/>
   </g>
   <g id="line2d_14">
    <path d="M 73.832727 51.816037 
L 73.879855 48.927162 
L 73.900801 57.314219 
L 73.911274 56.382324 
L 73.942693 67.565066 
L 74.031712 63.371538 
L 74.146914 60.575852 
L 74.178333 60.575852 
L 74.24117 57.780166 
L 74.288298 60.575852 
L 74.398264 60.575852 
L 74.471574 69.801615 
L 74.523938 68.403772 
L 74.56583 68.403772 
L 74.612958 65.608086 
L 74.675795 68.403772 
L 74.686268 68.403772 
L 74.80147 65.608086 
L 74.832889 65.608086 
L 74.948091 68.403772 
L 74.958564 68.403772 
L 75.03711 67.005929 
L 75.042347 69.801615 
L 75.063293 69.801615 
L 75.225622 69.801615 
L 75.28846 66.446792 
L 75.335588 69.242478 
L 75.414135 72.038163 
L 75.445553 69.242478 
L 75.827814 69.242478 
L 75.943016 72.038163 
L 76.40906 72.038163 
L 76.524262 70.64032 
L 77.383039 70.64032 
L 77.498241 73.436006 
L 78.65026 73.436006 
L 78.765461 76.231692 
L 79.388599 76.231692 
L 79.503801 79.027378 
L 80.147884 79.027378 
L 80.263086 77.629535 
L 92.097458 77.629535 
L 92.21266 76.231692 
L 92.783433 76.231692 
L 92.898635 79.027378 
L 94.427678 79.027378 
L 94.542879 76.231692 
L 102.334714 76.231692 
L 102.449916 79.027378 
L 108.670816 79.027378 
L 108.786018 81.823063 
L 124.390634 81.823063 
L 124.505835 84.618749 
L 130.517278 84.618749 
L 130.63248 81.823063 
L 147.184892 81.823063 
L 147.300094 84.618749 
L 205.738855 84.618749 
L 205.854057 83.220906 
L 398.487273 83.220906 
L 398.487273 83.220906 
" clip-path="url(#pb1eb76da0e)" style="fill: none; stroke: #2ca02c; stroke-width: 1.5; stroke-linecap: square"/>
   </g>
   <g id="line2d_15">
    <path d="M 73.832727 53.21388 
L 73.837964 53.21388 
L 73.8432 52.514958 
L 73.874619 58.10633 
L 73.895565 58.10633 
L 74.021239 67.332092 
L 74.026476 67.332092 
L 74.031712 66.633171 
L 74.09455 71.525621 
L 74.105023 71.525621 
L 74.141678 71.525621 
L 74.262116 78.980783 
L 74.4035 78.980783 
L 74.523938 86.808703 
L 74.56583 86.109781 
L 74.571066 88.905467 
L 74.618194 88.905467 
L 74.649613 88.905467 
L 74.686268 88.206545 
L 74.691505 91.002231 
L 74.749106 90.070336 
L 74.827652 90.070336 
L 74.942854 89.371414 
L 75.03711 89.371414 
L 75.157549 94.962786 
L 75.162785 94.962786 
L 75.283223 99.99502 
L 75.335588 99.99502 
L 75.419371 105.586391 
L 75.45079 104.88747 
L 75.529336 104.88747 
L 75.644538 103.955575 
L 75.749267 103.955575 
L 75.827814 102.324758 
L 75.83305 105.120444 
L 75.84876 105.120444 
L 76.131528 105.120444 
L 76.24673 104.188549 
L 77.383039 104.188549 
L 77.498241 106.984234 
L 78.529821 106.984234 
L 78.645023 109.77992 
L 78.65026 109.77992 
L 78.765461 112.575606 
L 79.095358 112.575606 
L 79.137249 111.64371 
L 79.142486 114.439396 
L 79.19485 114.439396 
L 79.388599 114.439396 
L 79.503801 117.235082 
L 80.257849 117.235082 
L 80.373051 116.303186 
L 81.519833 116.303186 
L 81.635035 115.371291 
L 81.980641 115.371291 
L 82.095842 114.439396 
L 83.640595 114.439396 
L 83.755796 113.507501 
L 85.887031 113.507501 
L 86.002233 116.303186 
L 86.017942 116.303186 
L 86.133144 115.371291 
L 87.238034 115.371291 
L 87.353236 114.439396 
L 89.19123 114.439396 
L 89.306431 113.507501 
L 94.427678 113.507501 
L 94.542879 116.303186 
L 95.296928 116.303186 
L 95.41213 115.371291 
L 98.784402 115.371291 
L 98.899604 118.166977 
L 99.852638 118.166977 
L 99.96784 117.235082 
L 102.334714 117.235082 
L 102.449916 120.030767 
L 102.748394 120.030767 
L 102.863596 119.098872 
L 104.418821 119.098872 
L 104.534022 121.894558 
L 105.005303 121.894558 
L 105.120505 120.962663 
L 108.670816 120.962663 
L 108.786018 123.758348 
L 112.331094 123.758348 
L 112.362512 126.554034 
L 112.441059 125.622139 
L 125.940622 125.622139 
L 126.055824 128.417824 
L 127.443483 128.417824 
L 127.558685 127.485929 
L 147.184892 127.485929 
L 147.300094 130.281615 
L 183.258783 130.281615 
L 183.373985 133.0773 
L 190.563628 133.0773 
L 190.67883 132.145405 
L 276.52516 132.145405 
L 276.640362 131.446484 
L 279.578009 131.446484 
L 279.693211 134.242169 
L 341.891742 134.242169 
L 342.006944 137.037855 
L 398.487273 137.037855 
L 398.487273 137.037855 
" clip-path="url(#pb1eb76da0e)" style="fill: none; stroke: #d62728; stroke-width: 1.5; stroke-linecap: square"/>
   </g>
   <g id="line2d_16">
    <path d="M 73.832727 53.21388 
L 73.869382 51.722847 
L 73.890328 60.109904 
L 73.900801 60.109904 
L 73.906038 60.109904 
L 73.942693 71.292647 
L 74.031712 69.894804 
L 74.24117 69.894804 
L 74.356372 72.69049 
L 74.398264 72.69049 
L 74.523938 81.077547 
L 75.03711 81.077547 
L 75.152312 83.873233 
L 75.28846 83.873233 
L 75.403662 86.668918 
L 77.383039 86.668918 
L 77.498241 89.464604 
L 78.65026 89.464604 
L 78.765461 92.26029 
L 102.334714 92.26029 
L 102.449916 95.055975 
L 108.670816 95.055975 
L 108.786018 97.851661 
L 147.184892 97.851661 
L 147.300094 100.647347 
L 398.487273 100.647347 
L 398.487273 100.647347 
" clip-path="url(#pb1eb76da0e)" style="fill: none; stroke: #9467bd; stroke-width: 1.5; stroke-linecap: square"/>
   </g>
   <g id="line2d_17">
    <path d="M 73.832727 51.816037 
L 73.8432 51.816037 
L 73.984584 69.987994 
L 74.00553 69.987994 
L 74.120732 72.78368 
L 74.24117 72.78368 
L 74.356372 75.579365 
L 74.398264 75.579365 
L 74.523938 83.407285 
L 74.832889 83.407285 
L 74.948091 86.202971 
L 75.225622 86.202971 
L 75.28846 85.643834 
L 75.293696 88.439519 
L 75.314642 88.439519 
L 75.335588 88.439519 
L 75.45079 91.235205 
L 77.383039 91.235205 
L 77.498241 94.030891 
L 92.783433 94.030891 
L 92.898635 96.826576 
L 102.334714 96.826576 
L 102.449916 99.622262 
L 398.487273 99.622262 
L 398.487273 99.622262 
" clip-path="url(#pb1eb76da0e)" style="fill: none; stroke: #8c564b; stroke-width: 1.5; stroke-linecap: square"/>
   </g>
   <g id="line2d_18">
    <path d="M 73.832727 53.21388 
L 73.869382 51.722847 
L 73.890328 60.109904 
L 73.906038 59.178009 
L 73.93222 63.278348 
L 74.016003 61.181584 
L 74.110259 61.181584 
L 74.230697 58.385898 
L 74.24117 58.385898 
L 74.309244 61.181584 
L 74.351136 58.385898 
L 74.398264 58.385898 
L 74.466337 65.375112 
L 74.518702 63.97727 
L 74.612958 63.97727 
L 74.72816 62.579427 
L 75.03711 62.579427 
L 75.152312 61.181584 
L 75.28846 61.181584 
L 75.403662 63.97727 
L 75.827814 63.97727 
L 75.943016 62.579427 
L 77.383039 62.579427 
L 77.498241 65.375112 
L 78.362255 65.375112 
L 78.477457 63.97727 
L 78.65026 63.97727 
L 78.765461 62.579427 
L 79.388599 62.579427 
L 79.503801 61.181584 
L 86.086016 61.181584 
L 86.201218 59.783741 
L 102.334714 59.783741 
L 102.449916 62.579427 
L 104.418821 62.579427 
L 104.534022 61.181584 
L 108.670816 61.181584 
L 108.786018 59.783741 
L 124.390634 59.783741 
L 124.505835 58.385898 
L 147.184892 58.385898 
L 147.300094 56.988055 
L 279.578009 56.988055 
L 279.693211 55.590213 
L 398.487273 55.590213 
L 398.487273 55.590213 
" clip-path="url(#pb1eb76da0e)" style="fill: none; stroke: #e377c2; stroke-width: 1.5; stroke-linecap: square"/>
   </g>
   <g id="line2d_19">
    <path d="M 73.832727 53.21388 
L 73.979348 74.64747 
L 74.026476 74.64747 
L 74.110259 70.919889 
L 74.152151 72.317732 
L 74.199279 72.317732 
L 74.319717 77.909103 
L 74.419209 77.909103 
L 74.523938 83.500475 
L 74.534411 82.801553 
L 74.612958 82.801553 
L 74.649613 85.597239 
L 74.722923 84.898317 
L 74.827652 84.898317 
L 74.942854 84.199396 
L 75.03711 84.199396 
L 75.042347 86.995082 
L 75.147076 85.597239 
L 75.162785 85.597239 
L 75.277987 84.199396 
L 75.335588 84.199396 
L 75.419371 86.995082 
L 75.445553 86.29616 
L 75.77545 86.29616 
L 75.827814 85.597239 
L 75.83305 88.392924 
L 75.869706 88.392924 
L 76.131528 88.392924 
L 76.24673 87.461029 
L 76.691828 87.461029 
L 76.812266 84.665344 
L 77.833374 84.665344 
L 77.948575 83.267501 
L 78.362255 83.267501 
L 78.477457 86.063186 
L 78.529821 86.063186 
L 78.645023 84.665344 
L 78.65026 84.665344 
L 78.765461 87.461029 
L 79.137249 87.461029 
L 79.252451 86.063186 
L 79.388599 86.063186 
L 79.503801 88.858872 
L 80.744839 88.858872 
L 80.860041 87.926977 
L 81.980641 87.926977 
L 82.095842 86.995082 
L 83.546338 86.995082 
L 83.66154 85.597239 
L 85.887031 85.597239 
L 86.002233 84.199396 
L 86.086016 84.199396 
L 86.201218 86.995082 
L 87.238034 86.995082 
L 87.353236 86.063186 
L 89.19123 86.063186 
L 89.306431 85.131291 
L 98.784402 85.131291 
L 98.899604 83.733448 
L 99.852638 83.733448 
L 99.96784 82.801553 
L 104.418821 82.801553 
L 104.534022 85.597239 
L 108.670816 85.597239 
L 108.786018 88.392924 
L 112.331094 88.392924 
L 112.446296 86.995082 
L 124.390634 86.995082 
L 124.505835 89.790767 
L 125.940622 89.790767 
L 126.055824 88.392924 
L 147.184892 88.392924 
L 147.300094 91.18861 
L 156.306785 91.18861 
L 156.421987 89.790767 
L 183.258783 89.790767 
L 183.373985 88.392924 
L 190.809741 88.392924 
L 190.924943 87.461029 
L 276.52516 87.461029 
L 276.640362 86.762108 
L 279.578009 86.762108 
L 279.693211 89.557794 
L 341.891742 89.557794 
L 342.006944 88.159951 
L 398.487273 88.159951 
L 398.487273 88.159951 
" clip-path="url(#pb1eb76da0e)" style="fill: none; stroke: #7f7f7f; stroke-width: 1.5; stroke-linecap: square"/>
   </g>
   <g id="line2d_20">
    <path d="M 73.832727 56.009565 
L 73.837964 56.009565 
L 73.869382 55.310644 
L 73.890328 60.902015 
L 73.906038 60.902015 
L 74.047422 78.980783 
L 74.057895 78.980783 
L 74.089313 77.349966 
L 74.115495 82.941337 
L 74.136441 82.941337 
L 74.141678 82.941337 
L 74.24117 87.600814 
L 74.16786 82.009442 
L 74.25688 86.668918 
L 74.382554 86.668918 
L 74.419209 83.640259 
L 74.47681 91.095421 
L 74.523938 91.095421 
L 74.56583 90.396499 
L 74.571066 93.192185 
L 74.612958 93.192185 
L 74.696741 98.084635 
L 74.72816 97.15274 
L 74.827652 97.15274 
L 74.953327 95.055975 
L 74.958564 95.055975 
L 75.079002 100.647347 
L 75.162785 100.647347 
L 75.267514 103.443032 
L 75.27275 102.04519 
L 75.277987 102.04519 
L 75.28846 104.840875 
L 75.387952 103.90898 
L 75.414135 103.90898 
L 75.419371 106.704666 
L 75.476972 103.210059 
L 75.518864 103.210059 
L 75.529336 103.210059 
L 75.644538 102.278163 
L 75.749267 102.278163 
L 75.827814 97.851661 
L 75.864469 100.647347 
L 75.953489 100.647347 
L 76.068691 99.249504 
L 76.131528 99.249504 
L 76.24673 102.04519 
L 76.40906 102.04519 
L 76.461424 104.840875 
L 76.519025 102.04519 
L 76.691828 102.04519 
L 76.744192 104.840875 
L 76.801793 102.04519 
L 76.859394 102.04519 
L 76.974596 100.647347 
L 77.383039 100.647347 
L 77.493004 103.443032 
L 77.618679 99.249504 
L 77.833374 99.249504 
L 77.948575 102.04519 
L 77.995704 102.04519 
L 78.110905 99.249504 
L 78.241817 99.249504 
L 78.357018 96.453818 
L 78.362255 96.453818 
L 78.477457 99.249504 
L 78.493166 99.249504 
L 78.529821 97.851661 
L 78.535058 100.647347 
L 78.597895 100.647347 
L 78.65026 100.647347 
L 78.765461 103.443032 
L 79.095358 103.443032 
L 79.137249 102.511137 
L 79.142486 105.306823 
L 79.19485 105.306823 
L 79.388599 105.306823 
L 79.503801 108.102508 
L 79.749914 108.102508 
L 79.870352 102.511137 
L 80.147884 102.511137 
L 80.257849 105.306823 
L 80.373051 104.374928 
L 80.744839 104.374928 
L 80.860041 107.170613 
L 81.189937 107.170613 
L 81.305139 104.374928 
L 81.519833 104.374928 
L 81.635035 103.443032 
L 81.980641 103.443032 
L 82.095842 106.238718 
L 83.546338 106.238718 
L 83.640595 109.034404 
L 83.656304 108.102508 
L 85.803248 108.102508 
L 85.887031 102.511137 
L 85.918449 105.306823 
L 86.017942 105.306823 
L 86.086016 101.579242 
L 86.133144 104.374928 
L 87.238034 104.374928 
L 87.353236 107.170613 
L 88.023502 107.170613 
L 88.138703 104.374928 
L 89.19123 104.374928 
L 89.306431 107.170613 
L 89.50018 107.170613 
L 89.615382 104.374928 
L 92.097458 104.374928 
L 92.21266 107.170613 
L 92.783433 107.170613 
L 92.898635 106.471692 
L 94.427678 106.471692 
L 94.542879 109.267378 
L 95.296928 109.267378 
L 95.41213 108.335482 
L 98.663964 108.335482 
L 98.779166 105.539797 
L 98.784402 105.539797 
L 98.899604 108.335482 
L 99.852638 108.335482 
L 99.920712 111.131168 
L 99.962603 108.335482 
L 102.334714 108.335482 
L 102.449916 111.131168 
L 102.748394 111.131168 
L 102.863596 110.199273 
L 104.418821 110.199273 
L 104.534022 112.994958 
L 105.005303 112.994958 
L 105.120505 112.063063 
L 105.890263 112.063063 
L 106.005464 109.267378 
L 108.670816 109.267378 
L 108.786018 112.063063 
L 112.331094 112.063063 
L 112.362512 114.858749 
L 112.441059 113.926854 
L 113.425511 113.926854 
L 113.540713 111.131168 
L 124.390634 111.131168 
L 124.505835 113.926854 
L 125.19181 113.926854 
L 125.307012 111.131168 
L 125.940622 111.131168 
L 126.055824 113.926854 
L 127.443483 113.926854 
L 127.558685 112.994958 
L 130.517278 112.994958 
L 130.63248 115.790644 
L 143.550797 115.790644 
L 143.665999 112.994958 
L 147.184892 112.994958 
L 147.300094 115.790644 
L 149.096196 115.790644 
L 149.211398 112.994958 
L 156.306785 112.994958 
L 156.421987 115.790644 
L 170.335229 115.790644 
L 170.450431 114.392801 
L 181.562174 114.392801 
L 181.677376 111.597116 
L 183.258783 111.597116 
L 183.373985 114.392801 
L 190.563628 114.392801 
L 190.67883 113.460906 
L 190.809741 113.460906 
L 190.924943 116.256592 
L 201.387366 116.256592 
L 201.502568 113.460906 
L 205.738855 113.460906 
L 205.854057 116.256592 
L 276.52516 116.256592 
L 276.640362 119.052277 
L 277.17448 119.052277 
L 277.289682 117.654435 
L 279.578009 117.654435 
L 279.693211 120.45012 
L 285.956003 120.45012 
L 286.071205 117.654435 
L 308.174252 117.654435 
L 308.289454 114.858749 
L 341.891742 114.858749 
L 342.006944 117.654435 
L 358.800233 117.654435 
L 358.915434 116.256592 
L 368.19442 116.256592 
L 368.309622 113.460906 
L 398.487273 113.460906 
L 398.487273 113.460906 
" clip-path="url(#pb1eb76da0e)" style="fill: none; stroke: #bcbd22; stroke-width: 1.5; stroke-linecap: square"/>
   </g>
   <g id="line2d_21">
    <path d="M 73.832727 53.21388 
L 73.989821 78.980783 
L 73.995057 78.980783 
L 74.057895 86.668918 
L 74.110259 83.640259 
L 74.178333 77.116992 
L 74.235934 78.514835 
L 74.382554 78.514835 
L 74.419209 75.858934 
L 74.47681 81.450305 
L 74.482047 81.450305 
L 74.523938 81.450305 
L 74.56583 80.751384 
L 74.571066 83.547069 
L 74.618194 83.547069 
L 74.649613 83.547069 
L 74.686268 82.848148 
L 74.691505 85.643834 
L 74.749106 84.711938 
L 74.827652 84.711938 
L 74.942854 84.013017 
L 74.958564 84.013017 
L 75.042347 89.604388 
L 75.073765 88.206545 
L 75.162785 88.206545 
L 75.277987 84.851723 
L 75.398425 90.443094 
L 75.414135 90.443094 
L 75.529336 95.335544 
L 75.644538 94.403649 
L 75.749267 94.403649 
L 75.770213 93.471753 
L 75.77545 96.267439 
L 75.84876 95.568518 
L 75.953489 95.568518 
L 76.068691 94.170675 
L 76.131528 94.170675 
L 76.24673 93.23878 
L 76.40906 93.23878 
L 76.529498 98.830151 
L 76.691828 98.830151 
L 76.71801 97.432308 
L 76.749429 101.625837 
L 76.79132 101.625837 
L 76.859394 101.625837 
L 76.974596 100.227994 
L 77.383039 100.227994 
L 77.493004 103.02368 
L 77.555842 101.625837 
L 77.561078 104.421522 
L 77.597733 104.421522 
L 77.833374 104.421522 
L 77.948575 103.02368 
L 77.995704 103.02368 
L 78.110905 105.819365 
L 78.241817 105.819365 
L 78.357018 108.615051 
L 78.362255 108.615051 
L 78.477457 107.217208 
L 78.493166 107.217208 
L 78.613604 104.421522 
L 79.095358 104.421522 
L 79.215796 102.091784 
L 79.749914 102.091784 
L 79.870352 107.683156 
L 80.147884 107.683156 
L 80.257849 110.478841 
L 80.373051 109.546946 
L 80.744839 109.546946 
L 80.860041 108.615051 
L 81.189937 108.615051 
L 81.305139 111.410737 
L 81.519833 111.410737 
L 81.635035 110.478841 
L 81.980641 110.478841 
L 82.095842 109.546946 
L 83.546338 109.546946 
L 83.66154 107.217208 
L 85.803248 107.217208 
L 85.887031 112.808579 
L 85.918449 111.410737 
L 86.017942 111.410737 
L 86.023178 110.478841 
L 86.028415 113.274527 
L 86.122671 111.876684 
L 87.238034 111.876684 
L 87.353236 110.944789 
L 88.023502 110.944789 
L 88.138703 113.740475 
L 89.19123 113.740475 
L 89.306431 112.808579 
L 89.50018 112.808579 
L 89.615382 115.604265 
L 92.097458 115.604265 
L 92.21266 118.399951 
L 92.783433 118.399951 
L 92.898635 117.701029 
L 94.427678 117.701029 
L 94.542879 120.496715 
L 95.296928 120.496715 
L 95.41213 119.56482 
L 98.663964 119.56482 
L 98.779166 122.360505 
L 98.784402 122.360505 
L 98.899604 120.962663 
L 99.852638 120.962663 
L 99.920712 120.030767 
L 99.925948 122.826453 
L 99.95213 122.826453 
L 102.334714 122.826453 
L 102.449916 125.622139 
L 102.748394 125.622139 
L 102.863596 124.690243 
L 104.418821 124.690243 
L 104.534022 123.292401 
L 105.005303 123.292401 
L 105.120505 122.360505 
L 105.890263 122.360505 
L 106.005464 125.156191 
L 112.331094 125.156191 
L 112.446296 122.826453 
L 113.425511 122.826453 
L 113.540713 125.622139 
L 125.19181 125.622139 
L 125.307012 128.417824 
L 125.940622 128.417824 
L 126.055824 127.019982 
L 127.443483 127.019982 
L 127.558685 126.088086 
L 130.517278 126.088086 
L 130.63248 128.883772 
L 143.550797 128.883772 
L 143.665999 131.679458 
L 149.096196 131.679458 
L 149.211398 134.475143 
L 156.306785 134.475143 
L 156.421987 133.0773 
L 170.335229 133.0773 
L 170.450431 131.679458 
L 181.562174 131.679458 
L 181.677376 134.475143 
L 183.258783 134.475143 
L 183.373985 133.0773 
L 190.563628 133.0773 
L 190.67883 132.145405 
L 190.809741 132.145405 
L 190.924943 131.21351 
L 201.387366 131.21351 
L 201.502568 134.009196 
L 205.738855 134.009196 
L 205.854057 136.804881 
L 276.52516 136.804881 
L 276.640362 136.10596 
L 277.17448 136.10596 
L 277.289682 134.708117 
L 279.578009 134.708117 
L 279.693211 133.310274 
L 285.956003 133.310274 
L 286.071205 136.10596 
L 308.174252 136.10596 
L 308.289454 138.901646 
L 341.891742 138.901646 
L 342.006944 137.503803 
L 358.800233 137.503803 
L 358.915434 136.10596 
L 368.19442 136.10596 
L 368.309622 138.901646 
L 398.487273 138.901646 
L 398.487273 138.901646 
" clip-path="url(#pb1eb76da0e)" style="fill: none; stroke: #17becf; stroke-width: 1.5; stroke-linecap: square"/>
   </g>
   <g id="line2d_22">
    <path d="M 73.832727 56.009565 
L 73.8432 56.009565 
L 73.874619 58.246114 
L 73.979348 53.027501 
L 74.00553 53.027501 
L 74.120732 51.629658 
L 74.24117 51.629658 
L 74.356372 50.697763 
L 74.398264 50.697763 
L 74.413973 49.066946 
L 74.419209 51.862632 
L 74.502993 50.930737 
L 74.832889 50.930737 
L 74.948091 49.532894 
L 75.225622 49.532894 
L 75.28846 52.328579 
L 75.335588 51.396684 
L 75.45079 49.998841 
L 77.383039 49.998841 
L 77.498241 49.066946 
L 92.783433 49.066946 
L 92.898635 48.368025 
L 102.334714 48.368025 
L 102.449916 46.970182 
L 398.487273 46.970182 
L 398.487273 46.970182 
" clip-path="url(#pb1eb76da0e)" style="fill: none; stroke: #1f77b4; stroke-width: 1.5; stroke-linecap: square"/>
   </g>
   <g id="line2d_23">
    <path d="M 73.832727 53.21388 
L 73.837964 53.21388 
L 73.989821 77.443156 
L 74.00553 77.443156 
L 74.026476 76.045313 
L 74.084077 84.43237 
L 74.089313 84.43237 
L 74.146914 84.43237 
L 74.24117 92.819427 
L 74.267352 91.887532 
L 74.382554 91.887532 
L 74.398264 94.683217 
L 74.471574 90.163525 
L 74.487283 90.163525 
L 74.523938 90.163525 
L 74.612958 92.959211 
L 74.633904 91.561368 
L 74.649613 91.561368 
L 74.770051 97.15274 
L 74.827652 97.15274 
L 74.942854 99.948425 
L 75.03711 99.948425 
L 75.152312 98.550582 
L 75.225622 98.550582 
L 75.267514 97.991445 
L 75.27275 100.787131 
L 75.319879 99.855236 
L 75.335588 99.855236 
L 75.419371 98.457393 
L 75.424607 101.253079 
L 75.440317 101.253079 
L 75.529336 101.253079 
L 75.644538 104.048764 
L 75.749267 104.048764 
L 75.827814 109.640136 
L 75.864469 108.242293 
L 75.953489 108.242293 
L 76.068691 111.037978 
L 76.859394 111.037978 
L 76.974596 113.833664 
L 77.383039 113.833664 
L 77.493004 112.901769 
L 77.608206 115.697455 
L 78.493166 115.697455 
L 78.608368 118.49314 
L 78.65026 118.49314 
L 78.765461 117.095297 
L 79.095358 117.095297 
L 79.210559 119.890983 
L 79.388599 119.890983 
L 79.503801 118.49314 
L 80.257849 118.49314 
L 80.373051 121.288826 
L 81.519833 121.288826 
L 81.635035 124.084512 
L 83.640595 124.084512 
L 83.755796 126.880197 
L 86.017942 126.880197 
L 86.133144 129.675883 
L 92.097458 129.675883 
L 92.21266 132.471569 
L 92.783433 132.471569 
L 92.898635 131.772647 
L 95.296928 131.772647 
L 95.41213 134.568333 
L 102.334714 134.568333 
L 102.449916 133.17049 
L 102.748394 133.17049 
L 102.863596 135.966176 
L 105.005303 135.966176 
L 105.120505 138.761861 
L 108.670816 138.761861 
L 108.786018 137.364018 
L 112.362512 137.364018 
L 112.477714 140.159704 
L 124.390634 140.159704 
L 124.505835 138.761861 
L 127.443483 138.761861 
L 127.558685 141.557547 
L 130.517278 141.557547 
L 130.63248 144.353233 
L 147.184892 144.353233 
L 147.300094 142.95539 
L 170.335229 142.95539 
L 170.450431 145.751076 
L 190.563628 145.751076 
L 190.67883 148.546761 
L 205.738855 148.546761 
L 205.854057 151.342447 
L 277.17448 151.342447 
L 277.289682 154.138133 
L 358.800233 154.138133 
L 358.915434 156.933818 
L 398.487273 156.933818 
L 398.487273 156.933818 
" clip-path="url(#pb1eb76da0e)" style="fill: none; stroke: #ff7f0e; stroke-width: 1.5; stroke-linecap: square"/>
   </g>
   <g id="patch_3">
    <path d="M 57.6 162.432 
L 57.6 41.472 
" style="fill: none; stroke: #000000; stroke-width: 0.8; stroke-linejoin: miter; stroke-linecap: square"/>
   </g>
   <g id="patch_4">
    <path d="M 414.72 162.432 
L 414.72 41.472 
" style="fill: none; stroke: #000000; stroke-width: 0.8; stroke-linejoin: miter; stroke-linecap: square"/>
   </g>
   <g id="patch_5">
    <path d="M 57.6 162.432 
L 414.72 162.432 
" style="fill: none; stroke: #000000; stroke-width: 0.8; stroke-linejoin: miter; stroke-linecap: square"/>
   </g>
   <g id="patch_6">
    <path d="M 57.6 41.472 
L 414.72 41.472 
" style="fill: none; stroke: #000000; stroke-width: 0.8; stroke-linejoin: miter; stroke-linecap: square"/>
   </g>
   <g id="text_12">
    <!-- WSP -->
    <g transform="translate(361.832136 150.130983)scale(0.08 -0.08)">
     <defs>
      <path id="DejaVuSans-57" d="M 213 4666 
L 850 4666 
L 1831 722 
L 2809 4666 
L 3519 4666 
L 4500 722 
L 5478 4666 
L 6119 4666 
L 4947 0 
L 4153 0 
L 3169 4050 
L 2175 0 
L 1381 0 
L 213 4666 
z
" transform="scale(0.015625)"/>
      <path id="DejaVuSans-53" d="M 3425 4513 
L 3425 3897 
Q 3066 4069 2747 4153 
Q 2428 4238 2131 4238 
Q 1616 4238 1336 4038 
Q 1056 3838 1056 3469 
Q 1056 3159 1242 3001 
Q 1428 2844 1947 2747 
L 2328 2669 
Q 3034 2534 3370 2195 
Q 3706 1856 3706 1288 
Q 3706 609 3251 259 
Q 2797 -91 1919 -91 
Q 1588 -91 1214 -16 
Q 841 59 441 206 
L 441 856 
Q 825 641 1194 531 
Q 1563 422 1919 422 
Q 2459 422 2753 634 
Q 3047 847 3047 1241 
Q 3047 1584 2836 1778 
Q 2625 1972 2144 2069 
L 1759 2144 
Q 1053 2284 737 2584 
Q 422 2884 422 3419 
Q 422 4038 858 4394 
Q 1294 4750 2059 4750 
Q 2388 4750 2728 4690 
Q 3069 4631 3425 4513 
z
" transform="scale(0.015625)"/>
      <path id="DejaVuSans-50" d="M 1259 4147 
L 1259 2394 
L 2053 2394 
Q 2494 2394 2734 2622 
Q 2975 2850 2975 3272 
Q 2975 3691 2734 3919 
Q 2494 4147 2053 4147 
L 1259 4147 
z
M 628 4666 
L 2053 4666 
Q 2838 4666 3239 4311 
Q 3641 3956 3641 3272 
Q 3641 2581 3239 2228 
Q 2838 1875 2053 1875 
L 1259 1875 
L 1259 0 
L 628 0 
L 628 4666 
z
" transform="scale(0.015625)"/>
     </defs>
     <use xlink:href="#DejaVuSans-57"/>
     <use xlink:href="#DejaVuSans-53" x="98.876953"/>
     <use xlink:href="#DejaVuSans-50" x="162.353516"/>
    </g>
   </g>
   <g id="text_13">
    <!-- Iambic -->
    <g transform="translate(361.832136 63.371538)scale(0.08 -0.08)">
     <defs>
      <path id="DejaVuSans-49" d="M 628 4666 
L 1259 4666 
L 1259 0 
L 628 0 
L 628 4666 
z
" transform="scale(0.015625)"/>
      <path id="DejaVuSans-61" d="M 2194 1759 
Q 1497 1759 1228 1600 
Q 959 1441 959 1056 
Q 959 750 1161 570 
Q 1363 391 1709 391 
Q 2188 391 2477 730 
Q 2766 1069 2766 1631 
L 2766 1759 
L 2194 1759 
z
M 3341 1997 
L 3341 0 
L 2766 0 
L 2766 531 
Q 2569 213 2275 61 
Q 1981 -91 1556 -91 
Q 1019 -91 701 211 
Q 384 513 384 1019 
Q 384 1609 779 1909 
Q 1175 2209 1959 2209 
L 2766 2209 
L 2766 2266 
Q 2766 2663 2505 2880 
Q 2244 3097 1772 3097 
Q 1472 3097 1187 3025 
Q 903 2953 641 2809 
L 641 3341 
Q 956 3463 1253 3523 
Q 1550 3584 1831 3584 
Q 2591 3584 2966 3190 
Q 3341 2797 3341 1997 
z
" transform="scale(0.015625)"/>
      <path id="DejaVuSans-6d" d="M 3328 2828 
Q 3544 3216 3844 3400 
Q 4144 3584 4550 3584 
Q 5097 3584 5394 3201 
Q 5691 2819 5691 2113 
L 5691 0 
L 5113 0 
L 5113 2094 
Q 5113 2597 4934 2840 
Q 4756 3084 4391 3084 
Q 3944 3084 3684 2787 
Q 3425 2491 3425 1978 
L 3425 0 
L 2847 0 
L 2847 2094 
Q 2847 2600 2669 2842 
Q 2491 3084 2119 3084 
Q 1678 3084 1418 2786 
Q 1159 2488 1159 1978 
L 1159 0 
L 581 0 
L 581 3500 
L 1159 3500 
L 1159 2956 
Q 1356 3278 1631 3431 
Q 1906 3584 2284 3584 
Q 2666 3584 2933 3390 
Q 3200 3197 3328 2828 
z
" transform="scale(0.015625)"/>
      <path id="DejaVuSans-62" d="M 3116 1747 
Q 3116 2381 2855 2742 
Q 2594 3103 2138 3103 
Q 1681 3103 1420 2742 
Q 1159 2381 1159 1747 
Q 1159 1113 1420 752 
Q 1681 391 2138 391 
Q 2594 391 2855 752 
Q 3116 1113 3116 1747 
z
M 1159 2969 
Q 1341 3281 1617 3432 
Q 1894 3584 2278 3584 
Q 2916 3584 3314 3078 
Q 3713 2572 3713 1747 
Q 3713 922 3314 415 
Q 2916 -91 2278 -91 
Q 1894 -91 1617 61 
Q 1341 213 1159 525 
L 1159 0 
L 581 0 
L 581 4863 
L 1159 4863 
L 1159 2969 
z
" transform="scale(0.015625)"/>
      <path id="DejaVuSans-69" d="M 603 3500 
L 1178 3500 
L 1178 0 
L 603 0 
L 603 3500 
z
M 603 4863 
L 1178 4863 
L 1178 4134 
L 603 4134 
L 603 4863 
z
" transform="scale(0.015625)"/>
      <path id="DejaVuSans-63" d="M 3122 3366 
L 3122 2828 
Q 2878 2963 2633 3030 
Q 2388 3097 2138 3097 
Q 1578 3097 1268 2742 
Q 959 2388 959 1747 
Q 959 1106 1268 751 
Q 1578 397 2138 397 
Q 2388 397 2633 464 
Q 2878 531 3122 666 
L 3122 134 
Q 2881 22 2623 -34 
Q 2366 -91 2075 -91 
Q 1284 -91 818 406 
Q 353 903 353 1747 
Q 353 2603 823 3093 
Q 1294 3584 2113 3584 
Q 2378 3584 2631 3529 
Q 2884 3475 3122 3366 
z
" transform="scale(0.015625)"/>
     </defs>
     <use xlink:href="#DejaVuSans-49"/>
     <use xlink:href="#DejaVuSans-61" x="29.492188"/>
     <use xlink:href="#DejaVuSans-6d" x="90.771484"/>
     <use xlink:href="#DejaVuSans-62" x="188.183594"/>
     <use xlink:href="#DejaVuSans-69" x="251.660156"/>
     <use xlink:href="#DejaVuSans-63" x="279.443359"/>
    </g>
   </g>
   <g id="text_14">
    <!-- Parse -->
    <g transform="translate(361.832136 83.220906)scale(0.08 -0.08)">
     <defs>
      <path id="DejaVuSans-72" d="M 2631 2963 
Q 2534 3019 2420 3045 
Q 2306 3072 2169 3072 
Q 1681 3072 1420 2755 
Q 1159 2438 1159 1844 
L 1159 0 
L 581 0 
L 581 3500 
L 1159 3500 
L 1159 2956 
Q 1341 3275 1631 3429 
Q 1922 3584 2338 3584 
Q 2397 3584 2469 3576 
Q 2541 3569 2628 3553 
L 2631 2963 
z
" transform="scale(0.015625)"/>
      <path id="DejaVuSans-73" d="M 2834 3397 
L 2834 2853 
Q 2591 2978 2328 3040 
Q 2066 3103 1784 3103 
Q 1356 3103 1142 2972 
Q 928 2841 928 2578 
Q 928 2378 1081 2264 
Q 1234 2150 1697 2047 
L 1894 2003 
Q 2506 1872 2764 1633 
Q 3022 1394 3022 966 
Q 3022 478 2636 193 
Q 2250 -91 1575 -91 
Q 1294 -91 989 -36 
Q 684 19 347 128 
L 347 722 
Q 666 556 975 473 
Q 1284 391 1588 391 
Q 1994 391 2212 530 
Q 2431 669 2431 922 
Q 2431 1156 2273 1281 
Q 2116 1406 1581 1522 
L 1381 1569 
Q 847 1681 609 1914 
Q 372 2147 372 2553 
Q 372 3047 722 3315 
Q 1072 3584 1716 3584 
Q 2034 3584 2315 3537 
Q 2597 3491 2834 3397 
z
" transform="scale(0.015625)"/>
      <path id="DejaVuSans-65" d="M 3597 1894 
L 3597 1613 
L 953 1613 
Q 991 1019 1311 708 
Q 1631 397 2203 397 
Q 2534 397 2845 478 
Q 3156 559 3463 722 
L 3463 178 
Q 3153 47 2828 -22 
Q 2503 -91 2169 -91 
Q 1331 -91 842 396 
Q 353 884 353 1716 
Q 353 2575 817 3079 
Q 1281 3584 2069 3584 
Q 2775 3584 3186 3129 
Q 3597 2675 3597 1894 
z
M 3022 2063 
Q 3016 2534 2758 2815 
Q 2500 3097 2075 3097 
Q 1594 3097 1305 2825 
Q 1016 2553 972 2059 
L 3022 2063 
z
" transform="scale(0.015625)"/>
     </defs>
     <use xlink:href="#DejaVuSans-50"/>
     <use xlink:href="#DejaVuSans-61" x="55.802734"/>
     <use xlink:href="#DejaVuSans-72" x="117.082031"/>
     <use xlink:href="#DejaVuSans-73" x="158.195312"/>
     <use xlink:href="#DejaVuSans-65" x="210.294922"/>
    </g>
   </g>
   <g id="text_15">
    <!-- FootBin -->
    <g transform="translate(361.832136 137.037855)scale(0.08 -0.08)">
     <defs>
      <path id="DejaVuSans-46" d="M 628 4666 
L 3309 4666 
L 3309 4134 
L 1259 4134 
L 1259 2759 
L 3109 2759 
L 3109 2228 
L 1259 2228 
L 1259 0 
L 628 0 
L 628 4666 
z
" transform="scale(0.015625)"/>
      <path id="DejaVuSans-6f" d="M 1959 3097 
Q 1497 3097 1228 2736 
Q 959 2375 959 1747 
Q 959 1119 1226 758 
Q 1494 397 1959 397 
Q 2419 397 2687 759 
Q 2956 1122 2956 1747 
Q 2956 2369 2687 2733 
Q 2419 3097 1959 3097 
z
M 1959 3584 
Q 2709 3584 3137 3096 
Q 3566 2609 3566 1747 
Q 3566 888 3137 398 
Q 2709 -91 1959 -91 
Q 1206 -91 779 398 
Q 353 888 353 1747 
Q 353 2609 779 3096 
Q 1206 3584 1959 3584 
z
" transform="scale(0.015625)"/>
      <path id="DejaVuSans-74" d="M 1172 4494 
L 1172 3500 
L 2356 3500 
L 2356 3053 
L 1172 3053 
L 1172 1153 
Q 1172 725 1289 603 
Q 1406 481 1766 481 
L 2356 481 
L 2356 0 
L 1766 0 
Q 1100 0 847 248 
Q 594 497 594 1153 
L 594 3053 
L 172 3053 
L 172 3500 
L 594 3500 
L 594 4494 
L 1172 4494 
z
" transform="scale(0.015625)"/>
      <path id="DejaVuSans-42" d="M 1259 2228 
L 1259 519 
L 2272 519 
Q 2781 519 3026 730 
Q 3272 941 3272 1375 
Q 3272 1813 3026 2020 
Q 2781 2228 2272 2228 
L 1259 2228 
z
M 1259 4147 
L 1259 2741 
L 2194 2741 
Q 2656 2741 2882 2914 
Q 3109 3088 3109 3444 
Q 3109 3797 2882 3972 
Q 2656 4147 2194 4147 
L 1259 4147 
z
M 628 4666 
L 2241 4666 
Q 2963 4666 3353 4366 
Q 3744 4066 3744 3513 
Q 3744 3084 3544 2831 
Q 3344 2578 2956 2516 
Q 3422 2416 3680 2098 
Q 3938 1781 3938 1306 
Q 3938 681 3513 340 
Q 3088 0 2303 0 
L 628 0 
L 628 4666 
z
" transform="scale(0.015625)"/>
      <path id="DejaVuSans-6e" d="M 3513 2113 
L 3513 0 
L 2938 0 
L 2938 2094 
Q 2938 2591 2744 2837 
Q 2550 3084 2163 3084 
Q 1697 3084 1428 2787 
Q 1159 2491 1159 1978 
L 1159 0 
L 581 0 
L 581 3500 
L 1159 3500 
L 1159 2956 
Q 1366 3272 1645 3428 
Q 1925 3584 2291 3584 
Q 2894 3584 3203 3211 
Q 3513 2838 3513 2113 
z
" transform="scale(0.015625)"/>
     </defs>
     <use xlink:href="#DejaVuSans-46"/>
     <use xlink:href="#DejaVuSans-6f" x="53.894531"/>
     <use xlink:href="#DejaVuSans-6f" x="115.076172"/>
     <use xlink:href="#DejaVuSans-74" x="176.257812"/>
     <use xlink:href="#DejaVuSans-42" x="215.466797"/>
     <use xlink:href="#DejaVuSans-69" x="284.070312"/>
     <use xlink:href="#DejaVuSans-6e" x="311.853516"/>
    </g>
   </g>
   <g id="text_16">
    <!-- WFL -->
    <g transform="translate(361.832136 100.647347)scale(0.08 -0.08)">
     <defs>
      <path id="DejaVuSans-4c" d="M 628 4666 
L 1259 4666 
L 1259 531 
L 3531 531 
L 3531 0 
L 628 0 
L 628 4666 
z
" transform="scale(0.015625)"/>
     </defs>
     <use xlink:href="#DejaVuSans-57"/>
     <use xlink:href="#DejaVuSans-46" x="98.876953"/>
     <use xlink:href="#DejaVuSans-4c" x="156.396484"/>
    </g>
   </g>
   <g id="text_17">
    <!-- WFR -->
    <g transform="translate(361.832136 99.622262)scale(0.08 -0.08)">
     <defs>
      <path id="DejaVuSans-52" d="M 2841 2188 
Q 3044 2119 3236 1894 
Q 3428 1669 3622 1275 
L 4263 0 
L 3584 0 
L 2988 1197 
Q 2756 1666 2539 1819 
Q 2322 1972 1947 1972 
L 1259 1972 
L 1259 0 
L 628 0 
L 628 4666 
L 2053 4666 
Q 2853 4666 3247 4331 
Q 3641 3997 3641 3322 
Q 3641 2881 3436 2590 
Q 3231 2300 2841 2188 
z
M 1259 4147 
L 1259 2491 
L 2053 2491 
Q 2509 2491 2742 2702 
Q 2975 2913 2975 3322 
Q 2975 3731 2742 3939 
Q 2509 4147 2053 4147 
L 1259 4147 
z
" transform="scale(0.015625)"/>
     </defs>
     <use xlink:href="#DejaVuSans-57"/>
     <use xlink:href="#DejaVuSans-46" x="98.876953"/>
     <use xlink:href="#DejaVuSans-52" x="156.396484"/>
    </g>
   </g>
   <g id="text_18">
    <!-- Main-L -->
    <g transform="translate(361.832136 55.590213)scale(0.08 -0.08)">
     <defs>
      <path id="DejaVuSans-4d" d="M 628 4666 
L 1569 4666 
L 2759 1491 
L 3956 4666 
L 4897 4666 
L 4897 0 
L 4281 0 
L 4281 4097 
L 3078 897 
L 2444 897 
L 1241 4097 
L 1241 0 
L 628 0 
L 628 4666 
z
" transform="scale(0.015625)"/>
      <path id="DejaVuSans-2d" d="M 313 2009 
L 1997 2009 
L 1997 1497 
L 313 1497 
L 313 2009 
z
" transform="scale(0.015625)"/>
     </defs>
     <use xlink:href="#DejaVuSans-4d"/>
     <use xlink:href="#DejaVuSans-61" x="86.279297"/>
     <use xlink:href="#DejaVuSans-69" x="147.558594"/>
     <use xlink:href="#DejaVuSans-6e" x="175.341797"/>
     <use xlink:href="#DejaVuSans-2d" x="238.720703"/>
     <use xlink:href="#DejaVuSans-4c" x="274.804688"/>
    </g>
   </g>
   <g id="text_19">
    <!-- Main-R -->
    <g transform="translate(361.832136 88.159951)scale(0.08 -0.08)">
     <use xlink:href="#DejaVuSans-4d"/>
     <use xlink:href="#DejaVuSans-61" x="86.279297"/>
     <use xlink:href="#DejaVuSans-69" x="147.558594"/>
     <use xlink:href="#DejaVuSans-6e" x="175.341797"/>
     <use xlink:href="#DejaVuSans-2d" x="238.720703"/>
     <use xlink:href="#DejaVuSans-52" x="274.804688"/>
    </g>
   </g>
   <g id="text_20">
    <!-- AFL -->
    <g transform="translate(361.832136 113.460906)scale(0.08 -0.08)">
     <defs>
      <path id="DejaVuSans-41" d="M 2188 4044 
L 1331 1722 
L 3047 1722 
L 2188 4044 
z
M 1831 4666 
L 2547 4666 
L 4325 0 
L 3669 0 
L 3244 1197 
L 1141 1197 
L 716 0 
L 50 0 
L 1831 4666 
z
" transform="scale(0.015625)"/>
     </defs>
     <use xlink:href="#DejaVuSans-41"/>
     <use xlink:href="#DejaVuSans-46" x="68.408203"/>
     <use xlink:href="#DejaVuSans-4c" x="125.927734"/>
    </g>
   </g>
   <g id="text_21">
    <!-- AFR -->
    <g transform="translate(361.832136 138.901646)scale(0.08 -0.08)">
     <use xlink:href="#DejaVuSans-41"/>
     <use xlink:href="#DejaVuSans-46" x="68.408203"/>
     <use xlink:href="#DejaVuSans-52" x="125.927734"/>
    </g>
   </g>
   <g id="text_22">
    <!-- Nonfinal -->
    <g transform="translate(361.832136 46.970182)scale(0.08 -0.08)">
     <defs>
      <path id="DejaVuSans-4e" d="M 628 4666 
L 1478 4666 
L 3547 763 
L 3547 4666 
L 4159 4666 
L 4159 0 
L 3309 0 
L 1241 3903 
L 1241 0 
L 628 0 
L 628 4666 
z
" transform="scale(0.015625)"/>
      <path id="DejaVuSans-66" d="M 2375 4863 
L 2375 4384 
L 1825 4384 
Q 1516 4384 1395 4259 
Q 1275 4134 1275 3809 
L 1275 3500 
L 2222 3500 
L 2222 3053 
L 1275 3053 
L 1275 0 
L 697 0 
L 697 3053 
L 147 3053 
L 147 3500 
L 697 3500 
L 697 3744 
Q 697 4328 969 4595 
Q 1241 4863 1831 4863 
L 2375 4863 
z
" transform="scale(0.015625)"/>
      <path id="DejaVuSans-6c" d="M 603 4863 
L 1178 4863 
L 1178 0 
L 603 0 
L 603 4863 
z
" transform="scale(0.015625)"/>
     </defs>
     <use xlink:href="#DejaVuSans-4e"/>
     <use xlink:href="#DejaVuSans-6f" x="74.804688"/>
     <use xlink:href="#DejaVuSans-6e" x="135.986328"/>
     <use xlink:href="#DejaVuSans-66" x="199.365234"/>
     <use xlink:href="#DejaVuSans-69" x="234.570312"/>
     <use xlink:href="#DejaVuSans-6e" x="262.353516"/>
     <use xlink:href="#DejaVuSans-61" x="325.732422"/>
     <use xlink:href="#DejaVuSans-6c" x="387.011719"/>
    </g>
   </g>
   <g id="text_23">
    <!-- Trochaic -->
    <g transform="translate(361.832136 156.933818)scale(0.08 -0.08)">
     <defs>
      <path id="DejaVuSans-54" d="M -19 4666 
L 3928 4666 
L 3928 4134 
L 2272 4134 
L 2272 0 
L 1638 0 
L 1638 4134 
L -19 4134 
L -19 4666 
z
" transform="scale(0.015625)"/>
      <path id="DejaVuSans-68" d="M 3513 2113 
L 3513 0 
L 2938 0 
L 2938 2094 
Q 2938 2591 2744 2837 
Q 2550 3084 2163 3084 
Q 1697 3084 1428 2787 
Q 1159 2491 1159 1978 
L 1159 0 
L 581 0 
L 581 4863 
L 1159 4863 
L 1159 2956 
Q 1366 3272 1645 3428 
Q 1925 3584 2291 3584 
Q 2894 3584 3203 3211 
Q 3513 2838 3513 2113 
z
" transform="scale(0.015625)"/>
     </defs>
     <use xlink:href="#DejaVuSans-54"/>
     <use xlink:href="#DejaVuSans-72" x="46.333984"/>
     <use xlink:href="#DejaVuSans-6f" x="85.197266"/>
     <use xlink:href="#DejaVuSans-63" x="146.378906"/>
     <use xlink:href="#DejaVuSans-68" x="201.359375"/>
     <use xlink:href="#DejaVuSans-61" x="264.738281"/>
     <use xlink:href="#DejaVuSans-69" x="326.017578"/>
     <use xlink:href="#DejaVuSans-63" x="353.800781"/>
    </g>
   </g>
  </g>
  <g id="axes_2">
   <g id="patch_7">
    <path d="M 57.6 307.584 
L 414.72 307.584 
L 414.72 186.624 
L 57.6 186.624 
z
" style="fill: #ffffff"/>
   </g>
   <g id="matplotlib.axis_3">
    <g id="xtick_8">
     <g id="line2d_24">
      <g>
       <use xlink:href="#m1168daf4f5" x="71.710802" y="307.584" style="stroke: #000000; stroke-width: 0.8"/>
      </g>
     </g>
     <g id="text_24">
      <!-- 0 -->
      <g transform="translate(68.529552 322.182437)scale(0.1 -0.1)">
       <use xlink:href="#DejaVuSans-30"/>
      </g>
     </g>
    </g>
    <g id="xtick_9">
     <g id="line2d_25">
      <g>
       <use xlink:href="#m1168daf4f5" x="114.149305" y="307.584" style="stroke: #000000; stroke-width: 0.8"/>
      </g>
     </g>
     <g id="text_25">
      <!-- 20 -->
      <g transform="translate(107.786805 322.182437)scale(0.1 -0.1)">
       <use xlink:href="#DejaVuSans-32"/>
       <use xlink:href="#DejaVuSans-30" x="63.623047"/>
      </g>
     </g>
    </g>
    <g id="xtick_10">
     <g id="line2d_26">
      <g>
       <use xlink:href="#m1168daf4f5" x="156.587807" y="307.584" style="stroke: #000000; stroke-width: 0.8"/>
      </g>
     </g>
     <g id="text_26">
      <!-- 40 -->
      <g transform="translate(150.225307 322.182437)scale(0.1 -0.1)">
       <use xlink:href="#DejaVuSans-34"/>
       <use xlink:href="#DejaVuSans-30" x="63.623047"/>
      </g>
     </g>
    </g>
    <g id="xtick_11">
     <g id="line2d_27">
      <g>
       <use xlink:href="#m1168daf4f5" x="199.02631" y="307.584" style="stroke: #000000; stroke-width: 0.8"/>
      </g>
     </g>
     <g id="text_27">
      <!-- 60 -->
      <g transform="translate(192.66381 322.182437)scale(0.1 -0.1)">
       <use xlink:href="#DejaVuSans-36"/>
       <use xlink:href="#DejaVuSans-30" x="63.623047"/>
      </g>
     </g>
    </g>
    <g id="xtick_12">
     <g id="line2d_28">
      <g>
       <use xlink:href="#m1168daf4f5" x="241.464813" y="307.584" style="stroke: #000000; stroke-width: 0.8"/>
      </g>
     </g>
     <g id="text_28">
      <!-- 80 -->
      <g transform="translate(235.102313 322.182437)scale(0.1 -0.1)">
       <use xlink:href="#DejaVuSans-38"/>
       <use xlink:href="#DejaVuSans-30" x="63.623047"/>
      </g>
     </g>
    </g>
    <g id="xtick_13">
     <g id="line2d_29">
      <g>
       <use xlink:href="#m1168daf4f5" x="283.903316" y="307.584" style="stroke: #000000; stroke-width: 0.8"/>
      </g>
     </g>
     <g id="text_29">
      <!-- 100 -->
      <g transform="translate(274.359566 322.182437)scale(0.1 -0.1)">
       <use xlink:href="#DejaVuSans-31"/>
       <use xlink:href="#DejaVuSans-30" x="63.623047"/>
       <use xlink:href="#DejaVuSans-30" x="127.246094"/>
      </g>
     </g>
    </g>
    <g id="xtick_14">
     <g id="line2d_30">
      <g>
       <use xlink:href="#m1168daf4f5" x="326.341818" y="307.584" style="stroke: #000000; stroke-width: 0.8"/>
      </g>
     </g>
     <g id="text_30">
      <!-- 120 -->
      <g transform="translate(316.798068 322.182437)scale(0.1 -0.1)">
       <use xlink:href="#DejaVuSans-31"/>
       <use xlink:href="#DejaVuSans-32" x="63.623047"/>
       <use xlink:href="#DejaVuSans-30" x="127.246094"/>
      </g>
     </g>
    </g>
    <g id="xtick_15">
     <g id="line2d_31">
      <g>
       <use xlink:href="#m1168daf4f5" x="368.780321" y="307.584" style="stroke: #000000; stroke-width: 0.8"/>
      </g>
     </g>
     <g id="text_31">
      <!-- 140 -->
      <g transform="translate(359.236571 322.182437)scale(0.1 -0.1)">
       <use xlink:href="#DejaVuSans-31"/>
       <use xlink:href="#DejaVuSans-34" x="63.623047"/>
       <use xlink:href="#DejaVuSans-30" x="127.246094"/>
      </g>
     </g>
    </g>
    <g id="xtick_16">
     <g id="line2d_32">
      <g>
       <use xlink:href="#m1168daf4f5" x="411.218824" y="307.584" style="stroke: #000000; stroke-width: 0.8"/>
      </g>
     </g>
     <g id="text_32">
      <!-- 160 -->
      <g transform="translate(401.675074 322.182437)scale(0.1 -0.1)">
       <use xlink:href="#DejaVuSans-31"/>
       <use xlink:href="#DejaVuSans-36" x="63.623047"/>
       <use xlink:href="#DejaVuSans-30" x="127.246094"/>
      </g>
     </g>
    </g>
   </g>
   <g id="matplotlib.axis_4">
    <g id="ytick_5">
     <g id="line2d_33">
      <g>
       <use xlink:href="#m662f6a38b5" x="57.6" y="302.093953" style="stroke: #000000; stroke-width: 0.8"/>
      </g>
     </g>
     <g id="text_33">
      <!-- 0 -->
      <g transform="translate(44.2375 305.893172)scale(0.1 -0.1)">
       <use xlink:href="#DejaVuSans-30"/>
      </g>
     </g>
    </g>
    <g id="ytick_6">
     <g id="line2d_34">
      <g>
       <use xlink:href="#m662f6a38b5" x="57.6" y="281.755928" style="stroke: #000000; stroke-width: 0.8"/>
      </g>
     </g>
     <g id="text_34">
      <!-- 2500 -->
      <g transform="translate(25.15 285.555147)scale(0.1 -0.1)">
       <use xlink:href="#DejaVuSans-32"/>
       <use xlink:href="#DejaVuSans-35" x="63.623047"/>
       <use xlink:href="#DejaVuSans-30" x="127.246094"/>
       <use xlink:href="#DejaVuSans-30" x="190.869141"/>
      </g>
     </g>
    </g>
    <g id="ytick_7">
     <g id="line2d_35">
      <g>
       <use xlink:href="#m662f6a38b5" x="57.6" y="261.417902" style="stroke: #000000; stroke-width: 0.8"/>
      </g>
     </g>
     <g id="text_35">
      <!-- 5000 -->
      <g transform="translate(25.15 265.217121)scale(0.1 -0.1)">
       <use xlink:href="#DejaVuSans-35"/>
       <use xlink:href="#DejaVuSans-30" x="63.623047"/>
       <use xlink:href="#DejaVuSans-30" x="127.246094"/>
       <use xlink:href="#DejaVuSans-30" x="190.869141"/>
      </g>
     </g>
    </g>
    <g id="ytick_8">
     <g id="line2d_36">
      <g>
       <use xlink:href="#m662f6a38b5" x="57.6" y="241.079877" style="stroke: #000000; stroke-width: 0.8"/>
      </g>
     </g>
     <g id="text_36">
      <!-- 7500 -->
      <g transform="translate(25.15 244.879096)scale(0.1 -0.1)">
       <use xlink:href="#DejaVuSans-37"/>
       <use xlink:href="#DejaVuSans-35" x="63.623047"/>
       <use xlink:href="#DejaVuSans-30" x="127.246094"/>
       <use xlink:href="#DejaVuSans-30" x="190.869141"/>
      </g>
     </g>
    </g>
    <g id="ytick_9">
     <g id="line2d_37">
      <g>
       <use xlink:href="#m662f6a38b5" x="57.6" y="220.741851" style="stroke: #000000; stroke-width: 0.8"/>
      </g>
     </g>
     <g id="text_37">
      <!-- 10000 -->
      <g transform="translate(18.7875 224.54107)scale(0.1 -0.1)">
       <use xlink:href="#DejaVuSans-31"/>
       <use xlink:href="#DejaVuSans-30" x="63.623047"/>
       <use xlink:href="#DejaVuSans-30" x="127.246094"/>
       <use xlink:href="#DejaVuSans-30" x="190.869141"/>
       <use xlink:href="#DejaVuSans-30" x="254.492188"/>
      </g>
     </g>
    </g>
    <g id="ytick_10">
     <g id="line2d_38">
      <g>
       <use xlink:href="#m662f6a38b5" x="57.6" y="200.403826" style="stroke: #000000; stroke-width: 0.8"/>
      </g>
     </g>
     <g id="text_38">
      <!-- 12500 -->
      <g transform="translate(18.7875 204.203045)scale(0.1 -0.1)">
       <use xlink:href="#DejaVuSans-31"/>
       <use xlink:href="#DejaVuSans-32" x="63.623047"/>
       <use xlink:href="#DejaVuSans-35" x="127.246094"/>
       <use xlink:href="#DejaVuSans-30" x="190.869141"/>
       <use xlink:href="#DejaVuSans-30" x="254.492188"/>
      </g>
     </g>
    </g>
   </g>
   <g id="line2d_39">
    <path d="M 73.832727 302.085818 
L 179.928984 302.077683 
L 182.050909 301.890573 
L 184.172834 302.085818 
L 186.294759 301.898708 
L 188.416684 302.077683 
L 190.53861 301.988196 
L 192.660535 302.085818 
L 194.78246 301.906844 
L 201.148235 302.077683 
L 213.879786 302.004466 
L 216.001711 301.752275 
L 218.123636 302.061413 
L 222.367487 302.012601 
L 228.733262 301.662787 
L 230.855187 302.012601 
L 232.977112 301.736004 
L 235.099037 302.053277 
L 239.342888 302.077683 
L 241.464813 301.914979 
L 243.586738 301.280432 
L 245.708663 301.923114 
L 247.830588 301.996331 
L 249.952513 301.662787 
L 252.074439 301.841762 
L 254.196364 301.711599 
L 256.318289 301.906844 
L 258.440214 301.890573 
L 260.562139 302.037007 
L 262.684064 301.906844 
L 264.805989 301.402461 
L 266.927914 302.028872 
L 269.04984 301.703463 
L 271.171765 301.532624 
L 273.29369 302.077683 
L 275.415615 301.491948 
L 277.53754 301.923114 
L 279.659465 301.337379 
L 281.78139 301.402461 
L 283.903316 301.581435 
L 286.025241 301.378055 
L 288.147166 299.661526 
L 290.269091 301.94752 
L 292.391016 298.734112 
L 294.512941 302.028872 
L 296.634866 302.028872 
L 298.756791 301.890573 
L 300.878717 302.085818 
L 303.000642 301.996331 
L 305.122567 300.304207 
L 307.244492 300.873672 
L 309.366417 300.279802 
L 311.488342 301.613976 
L 313.610267 298.058889 
L 315.732193 301.028241 
L 317.854118 299.539497 
L 319.976043 300.743508 
L 322.097968 296.863013 
L 324.219893 301.906844 
L 326.341818 300.434371 
L 328.463743 301.988196 
L 330.585668 298.343621 
L 332.707594 301.451272 
L 334.829519 299.498821 
L 336.951444 301.18281 
L 339.073369 300.719103 
L 341.195294 297.774157 
L 343.317219 296.407441 
L 345.439144 302.045142 
L 347.56107 300.442506 
L 349.682995 285.058823 
L 351.80492 300.849266 
L 353.926845 300.930618 
L 356.04877 299.759148 
L 358.170695 297.318585 
L 360.29262 281.845415 
L 362.414545 296.448118 
L 364.536471 299.124602 
L 366.658396 290.891769 
L 368.780321 280.299725 
L 370.902246 284.652063 
L 373.024171 299.458145 
L 375.146096 290.745335 
L 377.268021 301.711599 
L 379.389947 285.660829 
L 381.511872 295.333594 
L 383.633797 192.122182 
L 385.755722 301.085187 
L 387.877647 298.359892 
L 389.999572 292.185267 
L 392.121497 267.576256 
L 394.243422 249.711335 
L 396.365348 275.82536 
L 398.487273 287.499386 
L 398.487273 287.499386 
" clip-path="url(#p5932537960)" style="fill: none; stroke: #1f77b4; stroke-width: 1.5; stroke-linecap: square"/>
   </g>
   <g id="patch_8">
    <path d="M 57.6 307.584 
L 57.6 186.624 
" style="fill: none; stroke: #000000; stroke-width: 0.8; stroke-linejoin: miter; stroke-linecap: square"/>
   </g>
   <g id="patch_9">
    <path d="M 414.72 307.584 
L 414.72 186.624 
" style="fill: none; stroke: #000000; stroke-width: 0.8; stroke-linejoin: miter; stroke-linecap: square"/>
   </g>
   <g id="patch_10">
    <path d="M 57.6 307.584 
L 414.72 307.584 
" style="fill: none; stroke: #000000; stroke-width: 0.8; stroke-linejoin: miter; stroke-linecap: square"/>
   </g>
   <g id="patch_11">
    <path d="M 57.6 186.624 
L 414.72 186.624 
" style="fill: none; stroke: #000000; stroke-width: 0.8; stroke-linejoin: miter; stroke-linecap: square"/>
   </g>
  </g>
 </g>
 <defs>
  <clipPath id="pb1eb76da0e">
   <rect x="57.6" y="41.472" width="357.12" height="120.96"/>
  </clipPath>
  <clipPath id="p5932537960">
   <rect x="57.6" y="186.624" width="357.12" height="120.96"/>
  </clipPath>
 </defs>
</svg>
