<?xml version="1.0" encoding="utf-8" standalone="no"?>
<!DOCTYPE svg PUBLIC "-//W3C//DTD SVG 1.1//EN"
  "http://www.w3.org/Graphics/SVG/1.1/DTD/svg11.dtd">
<svg xmlns:xlink="http://www.w3.org/1999/xlink" width="460.8pt" height="345.6pt" viewBox="0 0 460.8 345.6" xmlns="http://www.w3.org/2000/svg" version="1.1">
 <metadata>
  <rdf:RDF xmlns:dc="http://purl.org/dc/elements/1.1/" xmlns:cc="http://creativecommons.org/ns#" xmlns:rdf="http://www.w3.org/1999/02/22-rdf-syntax-ns#">
   <cc:Work>
    <dc:type rdf:resource="http://purl.org/dc/dcmitype/StillImage"/>
    <dc:date>2022-05-14T04:11:31.593494</dc:date>
    <dc:format>image/svg+xml</dc:format>
    <dc:creator>
     <cc:Agent>
      <dc:title>Matplotlib v3.5.1, https://matplotlib.org/</dc:title>
     </cc:Agent>
    </dc:creator>
   </cc:Work>
  </rdf:RDF>
 </metadata>
 <defs>
  <style type="text/css">*{stroke-linejoin: round; stroke-linecap: butt}</style>
 </defs>
 <g id="figure_1">
  <g id="patch_1">
   <path d="M 0 345.6 
L 460.8 345.6 
L 460.8 0 
L 0 0 
z
" style="fill: #ffffff"/>
  </g>
  <g id="axes_1">
   <g id="patch_2">
    <path d="M 57.6 162.432 
L 414.72 162.432 
L 414.72 41.472 
L 57.6 41.472 
z
" style="fill: #ffffff"/>
   </g>
   <g id="matplotlib.axis_1">
    <g id="xtick_1">
     <g id="line2d_1">
      <defs>
       <path id="m8f6f549c51" d="M 0 0 
L 0 3.5 
" style="stroke: #000000; stroke-width: 0.8"/>
      </defs>
      <g>
       <use xlink:href="#m8f6f549c51" x="73.827491" y="162.432" style="stroke: #000000; stroke-width: 0.8"/>
      </g>
     </g>
     <g id="text_1">
      <!-- 0 -->
      <g transform="translate(70.646241 177.030437)scale(0.1 -0.1)">
       <defs>
        <path id="DejaVuSans-30" d="M 2034 4250 
Q 1547 4250 1301 3770 
Q 1056 3291 1056 2328 
Q 1056 1369 1301 889 
Q 1547 409 2034 409 
Q 2525 409 2770 889 
Q 3016 1369 3016 2328 
Q 3016 3291 2770 3770 
Q 2525 4250 2034 4250 
z
M 2034 4750 
Q 2819 4750 3233 4129 
Q 3647 3509 3647 2328 
Q 3647 1150 3233 529 
Q 2819 -91 2034 -91 
Q 1250 -91 836 529 
Q 422 1150 422 2328 
Q 422 3509 836 4129 
Q 1250 4750 2034 4750 
z
" transform="scale(0.015625)"/>
       </defs>
       <use xlink:href="#DejaVuSans-30"/>
      </g>
     </g>
    </g>
    <g id="xtick_2">
     <g id="line2d_2">
      <g>
       <use xlink:href="#m8f6f549c51" x="126.191972" y="162.432" style="stroke: #000000; stroke-width: 0.8"/>
      </g>
     </g>
     <g id="text_2">
      <!-- 10000 -->
      <g transform="translate(110.285722 177.030437)scale(0.1 -0.1)">
       <defs>
        <path id="DejaVuSans-31" d="M 794 531 
L 1825 531 
L 1825 4091 
L 703 3866 
L 703 4441 
L 1819 4666 
L 2450 4666 
L 2450 531 
L 3481 531 
L 3481 0 
L 794 0 
L 794 531 
z
" transform="scale(0.015625)"/>
       </defs>
       <use xlink:href="#DejaVuSans-31"/>
       <use xlink:href="#DejaVuSans-30" x="63.623047"/>
       <use xlink:href="#DejaVuSans-30" x="127.246094"/>
       <use xlink:href="#DejaVuSans-30" x="190.869141"/>
       <use xlink:href="#DejaVuSans-30" x="254.492188"/>
      </g>
     </g>
    </g>
    <g id="xtick_3">
     <g id="line2d_3">
      <g>
       <use xlink:href="#m8f6f549c51" x="178.556453" y="162.432" style="stroke: #000000; stroke-width: 0.8"/>
      </g>
     </g>
     <g id="text_3">
      <!-- 20000 -->
      <g transform="translate(162.650203 177.030437)scale(0.1 -0.1)">
       <defs>
        <path id="DejaVuSans-32" d="M 1228 531 
L 3431 531 
L 3431 0 
L 469 0 
L 469 531 
Q 828 903 1448 1529 
Q 2069 2156 2228 2338 
Q 2531 2678 2651 2914 
Q 2772 3150 2772 3378 
Q 2772 3750 2511 3984 
Q 2250 4219 1831 4219 
Q 1534 4219 1204 4116 
Q 875 4013 500 3803 
L 500 4441 
Q 881 4594 1212 4672 
Q 1544 4750 1819 4750 
Q 2544 4750 2975 4387 
Q 3406 4025 3406 3419 
Q 3406 3131 3298 2873 
Q 3191 2616 2906 2266 
Q 2828 2175 2409 1742 
Q 1991 1309 1228 531 
z
" transform="scale(0.015625)"/>
       </defs>
       <use xlink:href="#DejaVuSans-32"/>
       <use xlink:href="#DejaVuSans-30" x="63.623047"/>
       <use xlink:href="#DejaVuSans-30" x="127.246094"/>
       <use xlink:href="#DejaVuSans-30" x="190.869141"/>
       <use xlink:href="#DejaVuSans-30" x="254.492188"/>
      </g>
     </g>
    </g>
    <g id="xtick_4">
     <g id="line2d_4">
      <g>
       <use xlink:href="#m8f6f549c51" x="230.920934" y="162.432" style="stroke: #000000; stroke-width: 0.8"/>
      </g>
     </g>
     <g id="text_4">
      <!-- 30000 -->
      <g transform="translate(215.014684 177.030437)scale(0.1 -0.1)">
       <defs>
        <path id="DejaVuSans-33" d="M 2597 2516 
Q 3050 2419 3304 2112 
Q 3559 1806 3559 1356 
Q 3559 666 3084 287 
Q 2609 -91 1734 -91 
Q 1441 -91 1130 -33 
Q 819 25 488 141 
L 488 750 
Q 750 597 1062 519 
Q 1375 441 1716 441 
Q 2309 441 2620 675 
Q 2931 909 2931 1356 
Q 2931 1769 2642 2001 
Q 2353 2234 1838 2234 
L 1294 2234 
L 1294 2753 
L 1863 2753 
Q 2328 2753 2575 2939 
Q 2822 3125 2822 3475 
Q 2822 3834 2567 4026 
Q 2313 4219 1838 4219 
Q 1578 4219 1281 4162 
Q 984 4106 628 3988 
L 628 4550 
Q 988 4650 1302 4700 
Q 1616 4750 1894 4750 
Q 2613 4750 3031 4423 
Q 3450 4097 3450 3541 
Q 3450 3153 3228 2886 
Q 3006 2619 2597 2516 
z
" transform="scale(0.015625)"/>
       </defs>
       <use xlink:href="#DejaVuSans-33"/>
       <use xlink:href="#DejaVuSans-30" x="63.623047"/>
       <use xlink:href="#DejaVuSans-30" x="127.246094"/>
       <use xlink:href="#DejaVuSans-30" x="190.869141"/>
       <use xlink:href="#DejaVuSans-30" x="254.492188"/>
      </g>
     </g>
    </g>
    <g id="xtick_5">
     <g id="line2d_5">
      <g>
       <use xlink:href="#m8f6f549c51" x="283.285415" y="162.432" style="stroke: #000000; stroke-width: 0.8"/>
      </g>
     </g>
     <g id="text_5">
      <!-- 40000 -->
      <g transform="translate(267.379165 177.030437)scale(0.1 -0.1)">
       <defs>
        <path id="DejaVuSans-34" d="M 2419 4116 
L 825 1625 
L 2419 1625 
L 2419 4116 
z
M 2253 4666 
L 3047 4666 
L 3047 1625 
L 3713 1625 
L 3713 1100 
L 3047 1100 
L 3047 0 
L 2419 0 
L 2419 1100 
L 313 1100 
L 313 1709 
L 2253 4666 
z
" transform="scale(0.015625)"/>
       </defs>
       <use xlink:href="#DejaVuSans-34"/>
       <use xlink:href="#DejaVuSans-30" x="63.623047"/>
       <use xlink:href="#DejaVuSans-30" x="127.246094"/>
       <use xlink:href="#DejaVuSans-30" x="190.869141"/>
       <use xlink:href="#DejaVuSans-30" x="254.492188"/>
      </g>
     </g>
    </g>
    <g id="xtick_6">
     <g id="line2d_6">
      <g>
       <use xlink:href="#m8f6f549c51" x="335.649896" y="162.432" style="stroke: #000000; stroke-width: 0.8"/>
      </g>
     </g>
     <g id="text_6">
      <!-- 50000 -->
      <g transform="translate(319.743646 177.030437)scale(0.1 -0.1)">
       <defs>
        <path id="DejaVuSans-35" d="M 691 4666 
L 3169 4666 
L 3169 4134 
L 1269 4134 
L 1269 2991 
Q 1406 3038 1543 3061 
Q 1681 3084 1819 3084 
Q 2600 3084 3056 2656 
Q 3513 2228 3513 1497 
Q 3513 744 3044 326 
Q 2575 -91 1722 -91 
Q 1428 -91 1123 -41 
Q 819 9 494 109 
L 494 744 
Q 775 591 1075 516 
Q 1375 441 1709 441 
Q 2250 441 2565 725 
Q 2881 1009 2881 1497 
Q 2881 1984 2565 2268 
Q 2250 2553 1709 2553 
Q 1456 2553 1204 2497 
Q 953 2441 691 2322 
L 691 4666 
z
" transform="scale(0.015625)"/>
       </defs>
       <use xlink:href="#DejaVuSans-35"/>
       <use xlink:href="#DejaVuSans-30" x="63.623047"/>
       <use xlink:href="#DejaVuSans-30" x="127.246094"/>
       <use xlink:href="#DejaVuSans-30" x="190.869141"/>
       <use xlink:href="#DejaVuSans-30" x="254.492188"/>
      </g>
     </g>
    </g>
    <g id="xtick_7">
     <g id="line2d_7">
      <g>
       <use xlink:href="#m8f6f549c51" x="388.014377" y="162.432" style="stroke: #000000; stroke-width: 0.8"/>
      </g>
     </g>
     <g id="text_7">
      <!-- 60000 -->
      <g transform="translate(372.108127 177.030437)scale(0.1 -0.1)">
       <defs>
        <path id="DejaVuSans-36" d="M 2113 2584 
Q 1688 2584 1439 2293 
Q 1191 2003 1191 1497 
Q 1191 994 1439 701 
Q 1688 409 2113 409 
Q 2538 409 2786 701 
Q 3034 994 3034 1497 
Q 3034 2003 2786 2293 
Q 2538 2584 2113 2584 
z
M 3366 4563 
L 3366 3988 
Q 3128 4100 2886 4159 
Q 2644 4219 2406 4219 
Q 1781 4219 1451 3797 
Q 1122 3375 1075 2522 
Q 1259 2794 1537 2939 
Q 1816 3084 2150 3084 
Q 2853 3084 3261 2657 
Q 3669 2231 3669 1497 
Q 3669 778 3244 343 
Q 2819 -91 2113 -91 
Q 1303 -91 875 529 
Q 447 1150 447 2328 
Q 447 3434 972 4092 
Q 1497 4750 2381 4750 
Q 2619 4750 2861 4703 
Q 3103 4656 3366 4563 
z
" transform="scale(0.015625)"/>
       </defs>
       <use xlink:href="#DejaVuSans-36"/>
       <use xlink:href="#DejaVuSans-30" x="63.623047"/>
       <use xlink:href="#DejaVuSans-30" x="127.246094"/>
       <use xlink:href="#DejaVuSans-30" x="190.869141"/>
       <use xlink:href="#DejaVuSans-30" x="254.492188"/>
      </g>
     </g>
    </g>
   </g>
   <g id="matplotlib.axis_2">
    <g id="ytick_1">
     <g id="line2d_8">
      <defs>
       <path id="mbdf225317d" d="M 0 0 
L -3.5 0 
" style="stroke: #000000; stroke-width: 0.8"/>
      </defs>
      <g>
       <use xlink:href="#mbdf225317d" x="57.6" y="142.659515" style="stroke: #000000; stroke-width: 0.8"/>
      </g>
     </g>
     <g id="text_8">
      <!-- 60 -->
      <g transform="translate(37.875 146.458734)scale(0.1 -0.1)">
       <use xlink:href="#DejaVuSans-36"/>
       <use xlink:href="#DejaVuSans-30" x="63.623047"/>
      </g>
     </g>
    </g>
    <g id="ytick_2">
     <g id="line2d_9">
      <g>
       <use xlink:href="#mbdf225317d" x="57.6" y="120.585851" style="stroke: #000000; stroke-width: 0.8"/>
      </g>
     </g>
     <g id="text_9">
      <!-- 70 -->
      <g transform="translate(37.875 124.38507)scale(0.1 -0.1)">
       <defs>
        <path id="DejaVuSans-37" d="M 525 4666 
L 3525 4666 
L 3525 4397 
L 1831 0 
L 1172 0 
L 2766 4134 
L 525 4134 
L 525 4666 
z
" transform="scale(0.015625)"/>
       </defs>
       <use xlink:href="#DejaVuSans-37"/>
       <use xlink:href="#DejaVuSans-30" x="63.623047"/>
      </g>
     </g>
    </g>
    <g id="ytick_3">
     <g id="line2d_10">
      <g>
       <use xlink:href="#mbdf225317d" x="57.6" y="98.512187" style="stroke: #000000; stroke-width: 0.8"/>
      </g>
     </g>
     <g id="text_10">
      <!-- 80 -->
      <g transform="translate(37.875 102.311406)scale(0.1 -0.1)">
       <defs>
        <path id="DejaVuSans-38" d="M 2034 2216 
Q 1584 2216 1326 1975 
Q 1069 1734 1069 1313 
Q 1069 891 1326 650 
Q 1584 409 2034 409 
Q 2484 409 2743 651 
Q 3003 894 3003 1313 
Q 3003 1734 2745 1975 
Q 2488 2216 2034 2216 
z
M 1403 2484 
Q 997 2584 770 2862 
Q 544 3141 544 3541 
Q 544 4100 942 4425 
Q 1341 4750 2034 4750 
Q 2731 4750 3128 4425 
Q 3525 4100 3525 3541 
Q 3525 3141 3298 2862 
Q 3072 2584 2669 2484 
Q 3125 2378 3379 2068 
Q 3634 1759 3634 1313 
Q 3634 634 3220 271 
Q 2806 -91 2034 -91 
Q 1263 -91 848 271 
Q 434 634 434 1313 
Q 434 1759 690 2068 
Q 947 2378 1403 2484 
z
M 1172 3481 
Q 1172 3119 1398 2916 
Q 1625 2713 2034 2713 
Q 2441 2713 2670 2916 
Q 2900 3119 2900 3481 
Q 2900 3844 2670 4047 
Q 2441 4250 2034 4250 
Q 1625 4250 1398 4047 
Q 1172 3844 1172 3481 
z
" transform="scale(0.015625)"/>
       </defs>
       <use xlink:href="#DejaVuSans-38"/>
       <use xlink:href="#DejaVuSans-30" x="63.623047"/>
      </g>
     </g>
    </g>
    <g id="ytick_4">
     <g id="line2d_11">
      <g>
       <use xlink:href="#mbdf225317d" x="57.6" y="76.438523" style="stroke: #000000; stroke-width: 0.8"/>
      </g>
     </g>
     <g id="text_11">
      <!-- 90 -->
      <g transform="translate(37.875 80.237742)scale(0.1 -0.1)">
       <defs>
        <path id="DejaVuSans-39" d="M 703 97 
L 703 672 
Q 941 559 1184 500 
Q 1428 441 1663 441 
Q 2288 441 2617 861 
Q 2947 1281 2994 2138 
Q 2813 1869 2534 1725 
Q 2256 1581 1919 1581 
Q 1219 1581 811 2004 
Q 403 2428 403 3163 
Q 403 3881 828 4315 
Q 1253 4750 1959 4750 
Q 2769 4750 3195 4129 
Q 3622 3509 3622 2328 
Q 3622 1225 3098 567 
Q 2575 -91 1691 -91 
Q 1453 -91 1209 -44 
Q 966 3 703 97 
z
M 1959 2075 
Q 2384 2075 2632 2365 
Q 2881 2656 2881 3163 
Q 2881 3666 2632 3958 
Q 2384 4250 1959 4250 
Q 1534 4250 1286 3958 
Q 1038 3666 1038 3163 
Q 1038 2656 1286 2365 
Q 1534 2075 1959 2075 
z
" transform="scale(0.015625)"/>
       </defs>
       <use xlink:href="#DejaVuSans-39"/>
       <use xlink:href="#DejaVuSans-30" x="63.623047"/>
      </g>
     </g>
    </g>
    <g id="ytick_5">
     <g id="line2d_12">
      <g>
       <use xlink:href="#mbdf225317d" x="57.6" y="54.364859" style="stroke: #000000; stroke-width: 0.8"/>
      </g>
     </g>
     <g id="text_12">
      <!-- 100 -->
      <g transform="translate(31.5125 58.164078)scale(0.1 -0.1)">
       <use xlink:href="#DejaVuSans-31"/>
       <use xlink:href="#DejaVuSans-30" x="63.623047"/>
       <use xlink:href="#DejaVuSans-30" x="127.246094"/>
      </g>
     </g>
    </g>
   </g>
   <g id="line2d_13">
    <path d="M 73.832727 53.62907 
L 73.958402 69.558898 
L 73.979348 69.007056 
L 73.995057 69.007056 
L 74.120732 76.732839 
L 74.173096 76.732839 
L 74.293535 81.147572 
L 74.298771 81.147572 
L 74.419209 86.665988 
L 74.497756 86.665988 
L 74.612958 89.977037 
L 74.670559 89.977037 
L 74.785761 92.184404 
L 74.937618 92.184404 
L 75.05282 91.08072 
L 75.105184 91.08072 
L 75.230859 97.70282 
L 75.796395 97.70282 
L 75.885415 96.599136 
L 75.890651 98.806503 
L 75.901124 98.806503 
L 76.6447 98.806503 
L 76.759902 101.013869 
L 76.843685 101.013869 
L 76.958887 99.910186 
L 77.011251 99.910186 
L 77.126453 102.117552 
L 77.294019 102.117552 
L 77.409221 104.324919 
L 77.760063 104.324919 
L 77.880502 102.117552 
L 77.896211 101.565711 
L 77.901447 103.773077 
L 77.974758 103.773077 
L 78.011413 103.773077 
L 78.126615 105.980444 
L 78.184216 105.980444 
L 78.299417 108.18781 
L 78.451274 108.18781 
L 78.566476 110.395176 
L 78.681678 110.395176 
L 78.802117 114.809909 
L 78.938264 114.809909 
L 79.053466 114.258068 
L 79.456673 114.258068 
L 79.577111 118.672801 
L 79.650421 118.672801 
L 79.744677 117.937012 
L 79.749914 120.144378 
L 80.24214 120.144378 
L 80.357342 122.351745 
L 80.414943 122.351745 
L 80.530144 121.248061 
L 80.849568 121.248061 
L 80.96477 123.455428 
L 81.053789 123.455428 
L 81.174228 127.870161 
L 81.252774 127.870161 
L 81.367976 126.766477 
L 81.917803 126.766477 
L 82.033005 125.662794 
L 82.132498 125.662794 
L 82.247699 124.559111 
L 82.3053 124.559111 
L 82.420502 126.766477 
L 82.944147 126.766477 
L 83.059349 128.973844 
L 83.420664 128.973844 
L 83.525393 128.238055 
L 83.645831 132.652788 
L 83.666777 132.652788 
L 83.781979 134.860154 
L 83.944309 134.860154 
L 84.038565 134.124365 
L 84.043801 136.331732 
L 84.305623 136.331732 
L 84.420825 138.539098 
L 84.530791 138.539098 
L 84.651229 142.953831 
L 84.855451 142.953831 
L 84.970652 145.161197 
L 86.593951 145.161197 
L 86.709153 147.368564 
L 87.829753 147.368564 
L 87.944955 146.632775 
L 90.36943 146.632775 
L 90.489869 151.047508 
L 93.553191 151.047508 
L 93.668393 153.254874 
L 100.779489 153.254874 
L 100.894691 155.462241 
L 112.111163 155.462241 
L 112.226365 154.726452 
L 173.173384 154.726452 
L 173.288586 153.622769 
L 222.322686 153.622769 
L 222.437888 152.519085 
L 237.005686 152.519085 
L 237.120888 154.726452 
L 269.178423 154.726452 
L 269.293625 156.933818 
L 324.899468 156.933818 
L 325.01467 156.198029 
L 398.487273 156.198029 
L 398.487273 156.198029 
" clip-path="url(#p7766b215a3)" style="fill: none; stroke: #1f77b4; stroke-width: 1.5; stroke-linecap: square"/>
   </g>
   <g id="line2d_14">
    <path d="M 73.832727 54.364859 
L 73.947929 53.62907 
L 74.665323 53.62907 
L 74.790997 60.25117 
L 75.162785 60.25117 
L 75.277987 62.458536 
L 76.602808 62.458536 
L 76.71801 64.665902 
L 76.728483 64.665902 
L 76.843685 66.873269 
L 77.105507 66.873269 
L 77.225946 71.288002 
L 77.482532 71.288002 
L 77.597733 73.495368 
L 77.990467 73.495368 
L 78.110905 77.910101 
L 79.278633 77.910101 
L 79.393835 80.117467 
L 79.4462 80.117467 
L 79.566638 84.5322 
L 79.577111 84.5322 
L 79.692313 86.739567 
L 79.744677 86.739567 
L 79.859879 84.5322 
L 80.205485 84.5322 
L 80.320686 86.739567 
L 80.456834 86.739567 
L 80.577272 91.154299 
L 80.886223 91.154299 
L 81.001425 93.361666 
L 81.331321 93.361666 
L 81.446523 95.569032 
L 81.451759 95.569032 
L 81.566961 97.776399 
L 81.776419 97.776399 
L 81.891621 95.569032 
L 81.917803 95.569032 
L 82.006823 94.465349 
L 82.012059 96.672715 
L 82.022532 96.672715 
L 82.362901 96.672715 
L 82.478103 98.880082 
L 83.205969 98.880082 
L 83.326408 103.294815 
L 83.331644 103.294815 
L 83.404954 101.087448 
L 83.44161 103.294815 
L 83.525393 103.294815 
L 83.640595 101.087448 
L 83.876235 101.087448 
L 83.991437 103.294815 
L 251.269771 103.294815 
L 251.384973 105.502181 
L 398.487273 105.502181 
L 398.487273 105.502181 
" clip-path="url(#p7766b215a3)" style="fill: none; stroke: #ff7f0e; stroke-width: 1.5; stroke-linecap: square"/>
   </g>
   <g id="line2d_15">
    <path d="M 73.832727 53.62907 
L 73.958402 65.033797 
L 73.968875 64.481955 
L 73.974111 64.481955 
L 74.09455 58.963539 
L 74.183569 58.963539 
L 74.188806 56.756173 
L 74.272589 61.170906 
L 74.288298 61.170906 
L 74.309244 61.170906 
L 74.366845 65.585638 
L 74.424446 64.481955 
L 74.429682 64.481955 
L 74.497756 62.274589 
L 74.539648 63.378272 
L 74.586776 63.378272 
L 74.707214 67.351532 
L 74.722923 67.351532 
L 74.843362 66.468585 
L 74.937618 66.468585 
L 75.05282 65.364902 
L 75.058056 65.364902 
L 75.105184 63.157535 
L 75.162785 65.364902 
L 75.277987 67.572268 
L 75.445553 67.572268 
L 75.560755 66.468585 
L 75.628829 66.468585 
L 75.696903 68.675951 
L 75.738794 66.468585 
L 75.796395 66.468585 
L 75.911597 65.364902 
L 76.215311 65.364902 
L 76.330513 67.572268 
L 76.602808 67.572268 
L 76.71801 67.130795 
L 76.728483 67.130795 
L 76.843685 71.545528 
L 76.96936 68.234478 
L 77.032197 68.234478 
L 77.105507 70.441845 
L 77.142162 69.558898 
L 77.294019 69.558898 
L 77.409221 71.766264 
L 77.482532 71.766264 
L 77.597733 71.324791 
L 77.760063 71.324791 
L 77.880502 69.117425 
L 77.990467 69.117425 
L 78.069014 68.675951 
L 78.07425 70.883318 
L 78.079487 70.883318 
L 78.105669 70.883318 
L 78.184216 70.441845 
L 78.189452 72.649211 
L 78.194689 72.649211 
L 78.451274 72.649211 
L 78.456511 74.856577 
L 78.56124 72.649211 
L 78.686915 72.649211 
L 78.72357 74.856577 
L 78.79688 72.649211 
L 79.278633 72.649211 
L 79.420017 70.000371 
L 79.4462 70.000371 
L 79.498564 76.180997 
L 79.566638 73.973631 
L 79.577111 73.973631 
L 79.582347 73.532158 
L 79.587584 75.739524 
L 79.650421 75.739524 
L 79.765623 77.94689 
L 79.786569 77.94689 
L 79.870352 80.154257 
L 79.896534 77.94689 
L 80.205485 77.94689 
L 80.320686 77.505417 
L 80.414943 77.505417 
L 80.535381 75.518787 
L 80.5668 75.518787 
L 80.682001 77.726154 
L 80.849568 77.726154 
L 80.886223 79.93352 
L 80.96477 79.492047 
L 81.053789 79.492047 
L 81.168991 81.699413 
L 81.252774 81.699413 
L 81.258011 80.59573 
L 81.263247 82.803096 
L 81.357503 82.361623 
L 81.404631 82.361623 
L 81.451759 84.56899 
L 81.519833 84.127516 
L 82.006823 84.127516 
L 82.122025 83.686043 
L 82.132498 83.686043 
L 82.14297 82.58236 
L 82.148207 84.789726 
L 82.237226 84.789726 
L 82.3053 84.789726 
L 82.362901 86.997093 
L 82.420502 86.555619 
L 82.70327 86.555619 
L 82.771344 88.762986 
L 82.813236 86.555619 
L 83.205969 86.555619 
L 83.253097 85.672673 
L 83.258334 87.880039 
L 83.300225 87.880039 
L 83.404954 87.880039 
L 83.420664 87.438566 
L 83.4259 89.645932 
L 83.493974 89.645932 
L 83.603939 89.645932 
L 83.666777 89.204459 
L 83.672013 91.411825 
L 83.692959 91.411825 
L 83.876235 91.411825 
L 83.944309 90.970352 
L 83.949545 93.177719 
L 83.965254 93.177719 
L 83.975727 93.177719 
L 84.090929 90.970352 
L 84.232313 90.970352 
L 84.347515 93.177719 
L 84.410352 93.177719 
L 84.509845 90.970352 
L 84.520318 93.177719 
L 84.645993 93.177719 
L 84.761194 95.385085 
L 84.949707 95.385085 
L 85.064908 93.177719 
L 86.593951 93.177719 
L 86.709153 95.385085 
L 87.829753 95.385085 
L 87.944955 97.592451 
L 88.227723 97.592451 
L 88.342925 95.385085 
L 88.384817 95.385085 
L 88.500018 93.177719 
L 90.317066 93.177719 
L 90.432268 95.385085 
L 93.317551 95.385085 
L 93.432752 93.177719 
L 93.553191 93.177719 
L 93.668393 95.385085 
L 112.111163 95.385085 
L 112.226365 97.592451 
L 118.143551 97.592451 
L 118.258753 95.385085 
L 173.173384 95.385085 
L 173.288586 94.281402 
L 177.441089 94.281402 
L 177.556291 96.488768 
L 222.322686 96.488768 
L 222.437888 95.385085 
L 236.026471 95.385085 
L 236.141672 93.177719 
L 251.269771 93.177719 
L 251.384973 95.385085 
L 324.899468 95.385085 
L 325.01467 97.592451 
L 347.049643 97.592451 
L 347.164845 95.385085 
L 374.03306 95.385085 
L 374.148262 97.592451 
L 398.487273 97.592451 
L 398.487273 97.592451 
" clip-path="url(#p7766b215a3)" style="fill: none; stroke: #2ca02c; stroke-width: 1.5; stroke-linecap: square"/>
   </g>
   <g id="line2d_16">
    <path d="M 73.832727 54.364859 
L 73.837964 54.364859 
L 73.848437 53.813018 
L 73.895565 59.699328 
L 73.900801 59.147486 
L 73.921747 59.147486 
L 74.042185 64.224429 
L 74.07884 64.224429 
L 74.209752 73.053895 
L 74.267352 73.053895 
L 74.382554 76.916786 
L 74.429682 76.180997 
L 74.434919 78.388364 
L 74.487283 77.100733 
L 74.497756 77.100733 
L 74.602485 79.3081 
L 74.607722 78.756258 
L 74.665323 78.756258 
L 74.790997 77.431838 
L 75.058056 77.431838 
L 75.178494 82.766307 
L 75.377479 82.766307 
L 75.445553 82.030518 
L 75.45079 84.237885 
L 75.476972 84.237885 
L 75.607883 84.237885 
L 75.728321 88.652617 
L 75.880178 88.652617 
L 75.99538 87.916829 
L 76.215311 87.916829 
L 76.330513 87.364987 
L 76.602808 87.364987 
L 76.71801 86.923514 
L 76.896049 86.923514 
L 77.011251 89.13088 
L 77.105507 89.13088 
L 77.225946 88.247934 
L 77.294019 88.247934 
L 77.414458 92.662666 
L 77.482532 92.662666 
L 77.597733 92.221193 
L 77.880502 92.221193 
L 77.896211 91.669352 
L 77.901447 93.876718 
L 77.974758 93.876718 
L 77.990467 93.876718 
L 78.116142 92.257983 
L 78.184216 92.257983 
L 78.299417 94.465349 
L 78.451274 94.465349 
L 78.566476 96.672715 
L 78.681678 96.672715 
L 78.686915 95.936927 
L 78.728806 100.351659 
L 78.765461 100.351659 
L 78.938264 100.351659 
L 79.058702 99.064029 
L 79.278633 99.064029 
L 79.346707 98.622556 
L 79.351944 100.829922 
L 79.367653 100.829922 
L 79.4462 100.829922 
L 79.566638 104.803182 
L 79.577111 104.803182 
L 79.692313 104.361708 
L 79.697549 104.361708 
L 79.812751 103.62592 
L 79.870352 103.62592 
L 79.964608 105.833286 
L 79.980317 105.097497 
L 80.158357 105.097497 
L 80.273558 103.920235 
L 80.446361 103.920235 
L 80.572036 101.565711 
L 80.849568 101.565711 
L 80.886223 103.773077 
L 80.96477 103.331604 
L 81.053789 103.331604 
L 81.168991 105.53897 
L 81.331321 105.53897 
L 81.446523 105.097497 
L 81.451759 105.097497 
L 81.566961 104.656024 
L 82.006823 104.656024 
L 82.122025 104.214551 
L 82.362901 104.214551 
L 82.478103 103.773077 
L 83.205969 103.773077 
L 83.326408 102.890131 
L 83.404954 102.890131 
L 83.520156 102.448657 
L 83.603939 102.448657 
L 83.719141 102.007184 
L 83.876235 102.007184 
L 83.991437 101.565711 
L 84.038565 101.565711 
L 84.153766 103.773077 
L 84.232313 103.773077 
L 84.347515 105.980444 
L 84.410352 105.980444 
L 84.509845 108.18781 
L 84.520318 107.635968 
L 84.645993 107.635968 
L 84.761194 109.843335 
L 88.384817 109.843335 
L 88.500018 112.050701 
L 90.317066 112.050701 
L 90.432268 114.258068 
L 93.317551 114.258068 
L 93.432752 116.465434 
L 118.143551 116.465434 
L 118.258753 118.672801 
L 148.048906 118.672801 
L 148.164108 117.937012 
L 175.849209 117.937012 
L 175.964411 117.201223 
L 177.441089 117.201223 
L 177.556291 116.75975 
L 236.026471 116.75975 
L 236.141672 118.967116 
L 251.269771 118.967116 
L 251.384973 121.174482 
L 347.049643 121.174482 
L 347.164845 123.381849 
L 372.378343 123.381849 
L 372.493544 122.64606 
L 374.03306 122.64606 
L 374.148262 121.910271 
L 398.487273 121.910271 
L 398.487273 121.910271 
" clip-path="url(#p7766b215a3)" style="fill: none; stroke: #d62728; stroke-width: 1.5; stroke-linecap: square"/>
   </g>
   <g id="line2d_17">
    <path d="M 73.832727 56.572226 
L 73.837964 56.572226 
L 73.958402 62.642483 
L 74.026476 62.090642 
L 74.031712 64.298008 
L 74.052658 64.298008 
L 74.188806 64.298008 
L 74.319717 73.127474 
L 74.497756 73.127474 
L 74.618194 77.542207 
L 75.162785 77.542207 
L 75.277987 79.749573 
L 76.215311 79.749573 
L 76.330513 81.956939 
L 76.728483 81.956939 
L 76.848921 86.371672 
L 77.294019 86.371672 
L 77.409221 88.579039 
L 78.069014 88.579039 
L 78.184216 90.786405 
L 79.4462 90.786405 
L 79.571874 97.408504 
L 79.582347 97.408504 
L 79.697549 99.615871 
L 79.786569 99.615871 
L 79.901771 101.823237 
L 81.258011 101.823237 
L 81.373213 104.030603 
L 90.317066 104.030603 
L 90.432268 106.23797 
L 398.487273 106.23797 
L 398.487273 106.23797 
" clip-path="url(#p7766b215a3)" style="fill: none; stroke: #9467bd; stroke-width: 1.5; stroke-linecap: square"/>
   </g>
   <g id="line2d_18">
    <path d="M 73.832727 54.364859 
L 73.979348 69.816424 
L 74.026476 69.816424 
L 74.141678 72.023791 
L 74.188806 72.023791 
L 74.309244 76.438523 
L 74.497756 76.438523 
L 74.612958 78.64589 
L 74.665323 78.64589 
L 74.670559 78.204416 
L 74.675795 80.411783 
L 74.764815 79.528836 
L 75.105184 79.528836 
L 75.225622 83.943569 
L 75.628829 83.943569 
L 75.744031 86.150935 
L 76.215311 86.150935 
L 76.330513 88.358302 
L 76.602808 88.358302 
L 76.71801 87.916829 
L 76.728483 87.916829 
L 76.843685 90.124195 
L 77.032197 90.124195 
L 77.105507 92.331561 
L 77.142162 91.448615 
L 77.294019 91.448615 
L 77.409221 93.655981 
L 77.482532 93.655981 
L 77.597733 93.214508 
L 77.990467 93.214508 
L 78.069014 92.773035 
L 78.07425 94.980401 
L 78.079487 94.980401 
L 78.105669 94.980401 
L 78.220871 94.538928 
L 78.451274 94.538928 
L 78.566476 96.746294 
L 78.686915 96.746294 
L 78.802117 98.953661 
L 79.278633 98.953661 
L 79.393835 98.512187 
L 79.4462 98.512187 
L 79.571874 104.692813 
L 79.577111 104.692813 
L 79.582347 104.25134 
L 79.587584 106.458706 
L 79.650421 106.458706 
L 79.765623 108.666073 
L 80.205485 108.666073 
L 80.320686 108.2246 
L 80.456834 108.2246 
L 80.5668 107.341653 
L 80.682001 109.549019 
L 80.849568 109.549019 
L 80.886223 111.756386 
L 80.96477 111.314912 
L 81.053789 111.314912 
L 81.168991 113.522279 
L 81.331321 113.522279 
L 81.404631 113.080806 
L 81.409868 115.288172 
L 81.420341 115.288172 
L 81.451759 115.288172 
L 81.566961 114.846699 
L 82.006823 114.846699 
L 82.122025 114.405225 
L 82.14297 114.405225 
L 82.258172 116.612592 
L 82.3053 116.612592 
L 82.362901 118.819958 
L 82.420502 118.378485 
L 82.70327 118.378485 
L 82.818472 120.585851 
L 83.205969 120.585851 
L 83.253097 119.702905 
L 83.258334 121.910271 
L 83.300225 121.910271 
L 83.404954 121.910271 
L 83.420664 121.468798 
L 83.4259 123.676164 
L 83.493974 123.676164 
L 83.603939 123.676164 
L 83.666777 123.234691 
L 83.672013 125.442057 
L 83.692959 125.442057 
L 83.876235 125.442057 
L 83.944309 125.000584 
L 83.949545 127.207951 
L 83.965254 127.207951 
L 84.232313 127.207951 
L 84.347515 129.415317 
L 84.509845 129.415317 
L 84.625047 131.622683 
L 84.645993 131.622683 
L 84.761194 133.83005 
L 86.593951 133.83005 
L 86.709153 136.037416 
L 87.829753 136.037416 
L 87.944955 138.244783 
L 90.317066 138.244783 
L 90.432268 140.452149 
L 93.553191 140.452149 
L 93.668393 142.659515 
L 112.111163 142.659515 
L 112.226365 144.866882 
L 177.441089 144.866882 
L 177.556291 147.074248 
L 251.269771 147.074248 
L 251.384973 149.281615 
L 324.899468 149.281615 
L 325.01467 151.488981 
L 374.03306 151.488981 
L 374.148262 153.696347 
L 398.487273 153.696347 
L 398.487273 153.696347 
" clip-path="url(#p7766b215a3)" style="fill: none; stroke: #8c564b; stroke-width: 1.5; stroke-linecap: square"/>
   </g>
   <g id="line2d_19">
    <path d="M 73.832727 56.572226 
L 73.837964 55.836437 
L 73.8432 58.043803 
L 73.926983 56.3147 
L 73.953166 58.522066 
L 74.036949 56.425068 
L 74.188806 56.425068 
L 74.304008 58.632434 
L 74.309244 58.632434 
L 74.429682 56.425068 
L 74.497756 56.425068 
L 74.586776 58.632434 
L 74.607722 57.528751 
L 75.162785 57.528751 
L 75.173258 59.736118 
L 75.27275 58.632434 
L 75.445553 58.632434 
L 75.560755 57.528751 
L 76.215311 57.528751 
L 76.330513 59.736118 
L 76.728483 59.736118 
L 76.765138 61.943484 
L 76.838448 60.839801 
L 77.294019 60.839801 
L 77.409221 63.047167 
L 77.880502 63.047167 
L 77.995704 62.495326 
L 78.069014 62.495326 
L 78.184216 64.702692 
L 78.299417 63.599009 
L 78.938264 63.599009 
L 79.053466 63.047167 
L 79.4462 63.047167 
L 79.571874 69.669266 
L 79.582347 69.669266 
L 79.697549 71.876633 
L 79.786569 71.876633 
L 79.901771 70.77295 
L 80.095519 70.77295 
L 80.210721 68.565583 
L 81.258011 68.565583 
L 81.373213 67.4619 
L 90.317066 67.4619 
L 90.432268 66.726111 
L 398.487273 66.726111 
L 398.487273 66.726111 
" clip-path="url(#p7766b215a3)" style="fill: none; stroke: #e377c2; stroke-width: 1.5; stroke-linecap: square"/>
   </g>
   <g id="line2d_20">
    <path d="M 73.832727 53.62907 
L 73.974111 66.689322 
L 73.995057 66.689322 
L 74.026476 65.401691 
L 74.031712 67.609058 
L 74.09455 67.609058 
L 74.099786 67.609058 
L 74.220224 65.769586 
L 74.235934 65.769586 
L 74.356372 71.839843 
L 74.455865 71.839843 
L 74.571066 71.288002 
L 74.586776 71.288002 
L 74.602485 73.495368 
L 74.696741 72.943527 
L 75.120894 72.943527 
L 75.173258 71.950212 
L 75.178494 74.157578 
L 75.220386 74.157578 
L 75.445553 74.157578 
L 75.560755 76.364944 
L 75.607883 76.364944 
L 75.723085 75.261261 
L 76.728483 75.261261 
L 76.765138 74.819788 
L 76.770375 77.027154 
L 76.817503 77.027154 
L 77.314965 77.027154 
L 77.430167 75.923471 
L 77.880502 75.923471 
L 77.896211 78.130838 
L 77.990467 77.027154 
L 78.184216 77.027154 
L 78.299417 79.234521 
L 78.938264 79.234521 
L 79.053466 81.441887 
L 79.4462 81.441887 
L 79.561401 81.000414 
L 79.786569 81.000414 
L 79.901771 83.20778 
L 80.095519 83.20778 
L 80.210721 85.415147 
L 81.258011 85.415147 
L 81.373213 87.622513 
L 82.14297 87.622513 
L 82.258172 89.829879 
L 83.944309 89.829879 
L 84.038565 92.037246 
L 84.054274 90.933563 
L 90.317066 90.933563 
L 90.432268 93.140929 
L 112.111163 93.140929 
L 112.226365 95.348296 
L 145.362608 95.348296 
L 145.47781 94.244612 
L 398.487273 94.244612 
L 398.487273 94.244612 
" clip-path="url(#p7766b215a3)" style="fill: none; stroke: #7f7f7f; stroke-width: 1.5; stroke-linecap: square"/>
   </g>
   <g id="line2d_21">
    <path d="M 73.832727 56.572226 
L 73.837964 56.572226 
L 73.869382 54.548806 
L 73.900801 60.729432 
L 74.042185 74.635841 
L 74.07884 74.635841 
L 74.188806 79.418468 
L 74.199279 78.682679 
L 74.267352 78.682679 
L 74.377318 85.85662 
L 74.387791 84.017148 
L 74.429682 84.017148 
L 74.544884 86.408462 
L 74.586776 86.408462 
L 74.602485 88.615828 
L 74.696741 86.960303 
L 74.937618 86.960303 
L 75.05282 89.16767 
L 75.058056 89.16767 
L 75.120894 91.375036 
L 75.168022 89.645932 
L 75.173258 89.645932 
L 75.28846 91.853299 
L 75.377479 91.853299 
L 75.445553 91.11751 
L 75.45079 93.324876 
L 75.476972 93.324876 
L 75.607883 93.324876 
L 75.728321 97.739609 
L 75.796395 97.739609 
L 75.880178 99.946976 
L 75.906361 98.107504 
L 76.215311 98.107504 
L 76.330513 97.555662 
L 76.6447 97.555662 
L 76.759902 96.010505 
L 76.765138 96.010505 
L 76.885577 100.425238 
L 76.896049 100.425238 
L 77.011251 102.632605 
L 77.126453 100.793133 
L 77.294019 100.793133 
L 77.314965 100.057344 
L 77.320202 102.26471 
L 77.393512 102.26471 
L 77.760063 102.26471 
L 77.885738 108.886809 
L 77.896211 108.886809 
L 78.011413 111.094176 
L 78.131851 109.622598 
L 78.451274 109.622598 
L 78.456511 108.886809 
L 78.461747 111.094176 
L 78.550767 111.094176 
L 78.681678 111.094176 
L 78.72357 109.622598 
L 78.728806 111.829965 
L 78.786407 111.829965 
L 78.938264 111.829965 
L 79.016811 114.037331 
L 79.04823 113.301542 
L 79.346707 113.301542 
L 79.4462 115.508909 
L 79.456673 115.067435 
L 79.498564 113.595858 
L 79.503801 115.803224 
L 79.561401 115.803224 
L 79.582347 115.803224 
L 79.697549 118.010591 
L 79.786569 117.274802 
L 79.791805 119.482168 
L 79.797042 119.482168 
L 79.870352 119.482168 
L 79.964608 121.689535 
L 79.980317 120.953746 
L 80.158357 120.953746 
L 80.278795 119.114274 
L 80.414943 119.114274 
L 80.446361 121.32164 
L 80.524908 120.585851 
L 80.5668 120.585851 
L 80.682001 119.850063 
L 81.148045 119.850063 
L 81.252774 118.746379 
L 81.373213 123.161112 
L 81.404631 123.161112 
L 81.519833 122.425323 
L 82.132498 122.425323 
L 82.247699 124.63269 
L 82.3053 124.63269 
L 82.420502 123.529007 
L 82.771344 123.529007 
L 82.886546 125.736373 
L 82.944147 125.736373 
L 83.059349 124.63269 
L 83.253097 124.63269 
L 83.368299 124.080848 
L 83.666777 124.080848 
L 83.781979 122.977165 
L 83.975727 122.977165 
L 84.096166 127.391898 
L 84.305623 127.391898 
L 84.410352 126.288215 
L 84.509845 128.495581 
L 84.520318 127.943739 
L 84.530791 127.943739 
L 84.645993 126.840056 
L 84.761194 126.104267 
L 84.855451 126.104267 
L 84.954943 127.207951 
L 84.970652 125.000584 
L 85.284839 125.000584 
L 85.400041 122.793218 
L 85.483824 122.793218 
L 85.599026 120.585851 
L 85.656627 120.585851 
L 85.777065 116.171119 
L 86.593951 116.171119 
L 86.709153 115.067435 
L 87.787861 115.067435 
L 87.903063 112.860069 
L 88.227723 112.860069 
L 88.342925 115.067435 
L 88.384817 115.067435 
L 88.500018 117.274802 
L 88.950353 117.274802 
L 89.065555 115.067435 
L 90.317066 115.067435 
L 90.36943 117.274802 
L 90.427031 115.067435 
L 93.317551 115.067435 
L 93.432752 117.274802 
L 93.553191 117.274802 
L 93.668393 116.171119 
L 100.779489 116.171119 
L 100.894691 115.067435 
L 118.143551 115.067435 
L 118.258753 117.274802 
L 145.362608 117.274802 
L 145.47781 119.482168 
L 148.048906 119.482168 
L 148.164108 118.746379 
L 173.173384 118.746379 
L 173.288586 120.953746 
L 175.849209 120.953746 
L 175.964411 120.217957 
L 177.441089 120.217957 
L 177.556291 119.776484 
L 220.107668 119.776484 
L 220.22287 117.569117 
L 222.322686 117.569117 
L 222.437888 119.776484 
L 236.026471 119.776484 
L 236.141672 121.98385 
L 237.005686 121.98385 
L 237.120888 120.880167 
L 269.178423 120.880167 
L 269.293625 119.776484 
L 347.049643 119.776484 
L 347.164845 121.98385 
L 372.378343 121.98385 
L 372.493544 121.248061 
L 374.03306 121.248061 
L 374.148262 120.512273 
L 398.487273 120.512273 
L 398.487273 120.512273 
" clip-path="url(#p7766b215a3)" style="fill: none; stroke: #bcbd22; stroke-width: 1.5; stroke-linecap: square"/>
   </g>
   <g id="line2d_22">
    <path d="M 73.832727 54.364859 
L 73.979348 70.037161 
L 73.995057 70.037161 
L 74.021239 68.74953 
L 74.036949 72.72279 
L 74.07884 72.72279 
L 74.099786 74.930156 
L 74.178333 71.987001 
L 74.188806 74.194367 
L 74.267352 74.194367 
L 74.377318 76.953575 
L 74.429682 75.114103 
L 74.434919 77.32147 
L 74.49252 76.033839 
L 74.508229 76.033839 
L 74.602485 78.241206 
L 74.618194 77.689364 
L 74.665323 77.689364 
L 74.790997 76.364944 
L 74.937618 76.364944 
L 75.05282 78.572311 
L 75.058056 78.572311 
L 75.120894 82.987044 
L 75.173258 81.25794 
L 75.28846 80.154257 
L 75.377479 80.154257 
L 75.445553 79.418468 
L 75.45079 81.625834 
L 75.476972 81.625834 
L 75.607883 81.625834 
L 75.628829 80.522151 
L 75.702139 84.936884 
L 75.796395 84.936884 
L 75.880178 87.14425 
L 75.906361 85.304778 
L 76.602808 85.304778 
L 76.73372 83.318149 
L 76.843685 83.318149 
L 76.964123 87.732881 
L 77.011251 87.732881 
L 77.13169 85.746252 
L 77.314965 85.746252 
L 77.430167 84.642568 
L 77.482532 84.642568 
L 77.597733 84.201095 
L 77.760063 84.201095 
L 77.880502 88.615828 
L 78.016649 85.783041 
L 78.105669 85.783041 
L 78.231344 84.237885 
L 78.456511 84.237885 
L 78.571713 86.445251 
L 78.681678 86.445251 
L 78.72357 85.709462 
L 78.728806 87.916829 
L 78.781171 87.916829 
L 78.938264 87.916829 
L 79.058702 86.629198 
L 79.278633 86.629198 
L 79.346707 86.187725 
L 79.351944 88.395091 
L 79.367653 88.395091 
L 79.4462 88.395091 
L 79.498564 87.512145 
L 79.503801 89.719511 
L 79.540456 89.719511 
L 79.577111 89.719511 
L 79.582347 89.278038 
L 79.587584 91.485404 
L 79.650421 91.485404 
L 79.697549 93.692771 
L 79.760387 92.956982 
L 79.870352 92.956982 
L 79.964608 95.164348 
L 79.980317 94.42856 
L 80.158357 94.42856 
L 80.284031 92.147614 
L 80.414943 92.147614 
L 80.446361 94.354981 
L 80.524908 92.736245 
L 80.849568 92.736245 
L 80.886223 94.943612 
L 80.96477 94.502138 
L 81.053789 94.502138 
L 81.148045 96.709505 
L 81.163755 95.605822 
L 81.252774 95.605822 
L 81.331321 97.813188 
L 81.367976 97.371715 
L 81.451759 97.371715 
L 81.566961 96.930241 
L 82.006823 96.930241 
L 82.122025 96.488768 
L 82.132498 96.488768 
L 82.252936 100.903501 
L 82.362901 100.903501 
L 82.478103 100.462028 
L 82.70327 100.462028 
L 82.823709 104.87676 
L 82.944147 104.87676 
L 83.059349 103.773077 
L 83.205969 103.773077 
L 83.331644 102.338289 
L 83.404954 102.338289 
L 83.420664 101.896816 
L 83.4259 104.104182 
L 83.493974 104.104182 
L 83.603939 104.104182 
L 83.719141 103.662709 
L 83.876235 103.662709 
L 83.944309 103.221236 
L 83.949545 105.428602 
L 83.965254 105.428602 
L 83.975727 105.428602 
L 84.038565 107.635968 
L 84.085693 106.532285 
L 84.232313 106.532285 
L 84.305623 108.739652 
L 84.342279 107.635968 
L 84.410352 107.635968 
L 84.525554 109.843335 
L 84.530791 109.843335 
L 84.645993 108.739652 
L 84.855451 108.739652 
L 84.949707 107.635968 
L 84.954943 109.843335 
L 84.960179 109.843335 
L 85.075381 112.050701 
L 85.284839 112.050701 
L 85.400041 114.258068 
L 85.483824 114.258068 
L 85.599026 116.465434 
L 85.656627 116.465434 
L 85.777065 120.880167 
L 87.787861 120.880167 
L 87.9083 125.2949 
L 88.227723 125.2949 
L 88.342925 127.502266 
L 88.384817 127.502266 
L 88.500018 129.709633 
L 88.950353 129.709633 
L 89.065555 131.916999 
L 90.317066 131.916999 
L 90.36943 134.124365 
L 90.427031 131.916999 
L 93.317551 131.916999 
L 93.432752 134.124365 
L 100.779489 134.124365 
L 100.894691 133.020682 
L 112.111163 133.020682 
L 112.226365 135.228049 
L 118.143551 135.228049 
L 118.258753 137.435415 
L 145.362608 137.435415 
L 145.47781 136.331732 
L 148.048906 136.331732 
L 148.164108 135.595943 
L 173.173384 135.595943 
L 173.288586 137.803309 
L 175.849209 137.803309 
L 175.964411 137.067521 
L 177.441089 137.067521 
L 177.556291 136.626047 
L 220.107668 136.626047 
L 220.22287 138.833414 
L 222.322686 138.833414 
L 222.437888 141.04078 
L 236.026471 141.04078 
L 236.141672 143.248146 
L 237.005686 143.248146 
L 237.120888 142.144463 
L 251.269771 142.144463 
L 251.384973 144.35183 
L 269.178423 144.35183 
L 269.293625 143.248146 
L 324.899468 143.248146 
L 325.01467 145.455513 
L 347.049643 145.455513 
L 347.164845 147.662879 
L 372.378343 147.662879 
L 372.493544 146.92709 
L 398.487273 146.92709 
L 398.487273 146.92709 
" clip-path="url(#p7766b215a3)" style="fill: none; stroke: #17becf; stroke-width: 1.5; stroke-linecap: square"/>
   </g>
   <g id="line2d_23">
    <path d="M 73.832727 54.364859 
L 73.974111 49.986916 
L 74.026476 49.986916 
L 74.141678 49.545443 
L 74.188806 49.545443 
L 74.309244 47.705971 
L 74.497756 47.705971 
L 74.612958 46.970182 
L 74.665323 46.970182 
L 74.785761 52.488598 
L 75.105184 52.488598 
L 75.220386 50.943441 
L 75.628829 50.943441 
L 75.744031 49.839758 
L 76.215311 49.839758 
L 76.330513 49.287917 
L 76.602808 49.287917 
L 76.71801 51.495283 
L 76.728483 51.495283 
L 76.843685 51.05381 
L 77.032197 51.05381 
L 77.105507 50.318021 
L 77.110744 52.525387 
L 77.126453 52.525387 
L 77.241655 54.732754 
L 77.294019 54.732754 
L 77.409221 53.996965 
L 77.482532 53.996965 
L 77.597733 56.204331 
L 77.990467 56.204331 
L 78.069014 58.411698 
L 78.100432 57.675909 
L 78.105669 57.675909 
L 78.220871 59.883275 
L 78.451274 59.883275 
L 78.566476 59.147486 
L 78.686915 59.147486 
L 78.802117 58.411698 
L 79.278633 58.411698 
L 79.393835 60.619064 
L 79.4462 60.619064 
L 79.488091 59.441802 
L 79.493328 61.649168 
L 79.550929 60.91338 
L 79.577111 60.91338 
L 79.582347 63.120746 
L 79.687076 61.281274 
L 80.205485 61.281274 
L 80.320686 63.48864 
L 80.456834 63.48864 
L 80.5668 67.903373 
L 80.572036 67.167584 
L 80.849568 67.167584 
L 80.886223 66.063901 
L 80.891459 68.271268 
L 80.954297 68.271268 
L 81.053789 68.271268 
L 81.168991 67.167584 
L 81.331321 67.167584 
L 81.404631 69.374951 
L 81.441286 68.639162 
L 81.451759 68.639162 
L 81.566961 70.846528 
L 82.006823 70.846528 
L 82.122025 73.053895 
L 82.14297 73.053895 
L 82.258172 71.950212 
L 82.3053 71.950212 
L 82.362901 70.846528 
L 82.368138 73.053895 
L 82.410029 73.053895 
L 82.70327 73.053895 
L 82.818472 71.950212 
L 83.205969 71.950212 
L 83.253097 76.364944 
L 83.321171 75.813103 
L 83.404954 75.813103 
L 83.420664 78.020469 
L 83.51492 77.28468 
L 83.603939 77.28468 
L 83.666777 79.492047 
L 83.713905 78.388364 
L 83.876235 78.388364 
L 83.944309 80.59573 
L 83.9862 79.859941 
L 84.232313 79.859941 
L 84.347515 78.756258 
L 84.509845 78.756258 
L 84.625047 78.204416 
L 84.645993 78.204416 
L 84.761194 77.468628 
L 86.593951 77.468628 
L 86.709153 76.364944 
L 87.829753 76.364944 
L 87.944955 75.629156 
L 90.317066 75.629156 
L 90.432268 74.893367 
L 93.553191 74.893367 
L 93.668393 73.789684 
L 112.111163 73.789684 
L 112.226365 73.053895 
L 177.441089 73.053895 
L 177.556291 72.612422 
L 251.269771 72.612422 
L 251.384973 71.508738 
L 324.899468 71.508738 
L 325.01467 70.77295 
L 374.03306 70.77295 
L 374.148262 70.037161 
L 398.487273 70.037161 
L 398.487273 70.037161 
" clip-path="url(#p7766b215a3)" style="fill: none; stroke: #1f77b4; stroke-width: 1.5; stroke-linecap: square"/>
   </g>
   <g id="line2d_24">
    <path d="M 73.832727 56.572226 
L 73.953166 71.140844 
L 73.974111 70.037161 
L 73.995057 70.037161 
L 74.120732 76.217787 
L 74.173096 76.217787 
L 74.188806 78.425153 
L 74.283062 76.585681 
L 74.288298 76.585681 
L 74.413973 83.20778 
L 74.455865 83.20778 
L 74.497756 87.622513 
L 74.571066 86.886724 
L 74.586776 86.886724 
L 74.602485 85.783041 
L 74.607722 87.990407 
L 74.691505 87.548934 
L 74.722923 87.548934 
L 74.843362 86.665988 
L 75.105184 86.665988 
L 75.120894 85.562304 
L 75.131366 89.977037 
L 75.19944 89.535564 
L 75.377479 89.535564 
L 75.492681 91.74293 
L 75.628829 91.74293 
L 75.744031 90.639247 
L 75.796395 90.639247 
L 75.92207 97.261346 
L 76.215311 97.261346 
L 76.330513 96.709505 
L 76.602808 96.709505 
L 76.6447 96.268032 
L 76.649936 98.475398 
L 76.691828 98.475398 
L 76.728483 98.475398 
L 76.854158 96.930241 
L 77.011251 96.930241 
L 77.032197 99.137608 
L 77.121217 97.960346 
L 77.126453 97.960346 
L 77.241655 97.518872 
L 77.294019 97.518872 
L 77.409221 96.783084 
L 77.482532 96.783084 
L 77.597733 96.34161 
L 77.990467 96.34161 
L 78.011413 95.900137 
L 78.016649 98.107504 
L 78.084723 97.371715 
L 78.105669 97.371715 
L 78.220871 96.930241 
L 78.451274 96.930241 
L 78.456511 96.194453 
L 78.461747 98.401819 
L 78.550767 98.401819 
L 78.681678 98.401819 
L 78.686915 100.609185 
L 78.791644 99.873397 
L 79.016811 99.873397 
L 79.132013 102.080763 
L 79.278633 102.080763 
L 79.346707 101.63929 
L 79.351944 103.846656 
L 79.367653 103.846656 
L 79.4462 103.846656 
L 79.603293 99.946976 
L 79.650421 99.946976 
L 79.697549 99.211187 
L 79.702786 101.418553 
L 79.744677 101.418553 
L 79.786569 103.62592 
L 79.854643 102.522236 
L 79.964608 102.522236 
L 80.07981 104.729603 
L 80.158357 104.729603 
L 80.278795 108.702862 
L 80.414943 108.702862 
L 80.456834 113.117595 
L 80.530144 112.234648 
L 80.849568 112.234648 
L 80.96477 110.689492 
L 81.053789 110.689492 
L 81.148045 109.585809 
L 81.153282 111.793175 
L 81.158518 111.793175 
L 81.258011 111.793175 
L 81.373213 110.248019 
L 81.404631 110.248019 
L 81.519833 109.070757 
L 81.776419 109.070757 
L 81.891621 111.278123 
L 81.917803 111.278123 
L 82.006823 113.485489 
L 82.033005 113.044016 
L 82.132498 113.044016 
L 82.14297 115.251383 
L 82.242463 114.147699 
L 82.362901 114.147699 
L 82.478103 113.706226 
L 82.70327 113.706226 
L 82.771344 112.602543 
L 82.776581 114.809909 
L 82.807999 114.809909 
L 82.944147 114.809909 
L 83.059349 117.017276 
L 83.205969 117.017276 
L 83.331644 115.582488 
L 83.404954 117.789854 
L 83.44161 116.612592 
L 83.525393 116.612592 
L 83.645831 120.585851 
L 83.876235 120.585851 
L 83.975727 119.408589 
L 84.090929 121.615956 
L 84.232313 121.615956 
L 84.305623 120.512273 
L 84.31086 122.719639 
L 84.337042 122.719639 
L 84.509845 122.719639 
L 84.530791 122.167797 
L 84.536027 124.375164 
L 84.604101 124.375164 
L 84.645993 124.375164 
L 84.761194 123.639375 
L 84.855451 123.639375 
L 84.975889 128.054108 
L 87.829753 128.054108 
L 87.944955 127.318319 
L 88.227723 127.318319 
L 88.342925 129.525685 
L 90.317066 129.525685 
L 90.36943 128.789897 
L 90.395613 133.204629 
L 90.400849 133.204629 
L 100.779489 133.204629 
L 100.894691 135.411996 
L 112.111163 135.411996 
L 112.226365 134.676207 
L 148.048906 134.676207 
L 148.164108 136.883573 
L 175.849209 136.883573 
L 175.964411 139.09094 
L 177.441089 139.09094 
L 177.556291 138.649466 
L 237.005686 138.649466 
L 237.120888 140.856833 
L 251.269771 140.856833 
L 251.384973 139.75315 
L 269.178423 139.75315 
L 269.293625 141.960516 
L 324.899468 141.960516 
L 325.01467 141.224727 
L 372.378343 141.224727 
L 372.493544 143.432094 
L 398.487273 143.432094 
L 398.487273 143.432094 
" clip-path="url(#p7766b215a3)" style="fill: none; stroke: #ff7f0e; stroke-width: 1.5; stroke-linecap: square"/>
   </g>
   <g id="patch_3">
    <path d="M 57.6 162.432 
L 57.6 41.472 
" style="fill: none; stroke: #000000; stroke-width: 0.8; stroke-linejoin: miter; stroke-linecap: square"/>
   </g>
   <g id="patch_4">
    <path d="M 414.72 162.432 
L 414.72 41.472 
" style="fill: none; stroke: #000000; stroke-width: 0.8; stroke-linejoin: miter; stroke-linecap: square"/>
   </g>
   <g id="patch_5">
    <path d="M 57.6 162.432 
L 414.72 162.432 
" style="fill: none; stroke: #000000; stroke-width: 0.8; stroke-linejoin: miter; stroke-linecap: square"/>
   </g>
   <g id="patch_6">
    <path d="M 57.6 41.472 
L 414.72 41.472 
" style="fill: none; stroke: #000000; stroke-width: 0.8; stroke-linejoin: miter; stroke-linecap: square"/>
   </g>
   <g id="text_13">
    <!-- WSP -->
    <g transform="translate(361.832136 156.198029)scale(0.08 -0.08)">
     <defs>
      <path id="DejaVuSans-57" d="M 213 4666 
L 850 4666 
L 1831 722 
L 2809 4666 
L 3519 4666 
L 4500 722 
L 5478 4666 
L 6119 4666 
L 4947 0 
L 4153 0 
L 3169 4050 
L 2175 0 
L 1381 0 
L 213 4666 
z
" transform="scale(0.015625)"/>
      <path id="DejaVuSans-53" d="M 3425 4513 
L 3425 3897 
Q 3066 4069 2747 4153 
Q 2428 4238 2131 4238 
Q 1616 4238 1336 4038 
Q 1056 3838 1056 3469 
Q 1056 3159 1242 3001 
Q 1428 2844 1947 2747 
L 2328 2669 
Q 3034 2534 3370 2195 
Q 3706 1856 3706 1288 
Q 3706 609 3251 259 
Q 2797 -91 1919 -91 
Q 1588 -91 1214 -16 
Q 841 59 441 206 
L 441 856 
Q 825 641 1194 531 
Q 1563 422 1919 422 
Q 2459 422 2753 634 
Q 3047 847 3047 1241 
Q 3047 1584 2836 1778 
Q 2625 1972 2144 2069 
L 1759 2144 
Q 1053 2284 737 2584 
Q 422 2884 422 3419 
Q 422 4038 858 4394 
Q 1294 4750 2059 4750 
Q 2388 4750 2728 4690 
Q 3069 4631 3425 4513 
z
" transform="scale(0.015625)"/>
      <path id="DejaVuSans-50" d="M 1259 4147 
L 1259 2394 
L 2053 2394 
Q 2494 2394 2734 2622 
Q 2975 2850 2975 3272 
Q 2975 3691 2734 3919 
Q 2494 4147 2053 4147 
L 1259 4147 
z
M 628 4666 
L 2053 4666 
Q 2838 4666 3239 4311 
Q 3641 3956 3641 3272 
Q 3641 2581 3239 2228 
Q 2838 1875 2053 1875 
L 1259 1875 
L 1259 0 
L 628 0 
L 628 4666 
z
" transform="scale(0.015625)"/>
     </defs>
     <use xlink:href="#DejaVuSans-57"/>
     <use xlink:href="#DejaVuSans-53" x="98.876953"/>
     <use xlink:href="#DejaVuSans-50" x="162.353516"/>
    </g>
   </g>
   <g id="text_14">
    <!-- Iambic -->
    <g transform="translate(361.832136 105.502181)scale(0.08 -0.08)">
     <defs>
      <path id="DejaVuSans-49" d="M 628 4666 
L 1259 4666 
L 1259 0 
L 628 0 
L 628 4666 
z
" transform="scale(0.015625)"/>
      <path id="DejaVuSans-61" d="M 2194 1759 
Q 1497 1759 1228 1600 
Q 959 1441 959 1056 
Q 959 750 1161 570 
Q 1363 391 1709 391 
Q 2188 391 2477 730 
Q 2766 1069 2766 1631 
L 2766 1759 
L 2194 1759 
z
M 3341 1997 
L 3341 0 
L 2766 0 
L 2766 531 
Q 2569 213 2275 61 
Q 1981 -91 1556 -91 
Q 1019 -91 701 211 
Q 384 513 384 1019 
Q 384 1609 779 1909 
Q 1175 2209 1959 2209 
L 2766 2209 
L 2766 2266 
Q 2766 2663 2505 2880 
Q 2244 3097 1772 3097 
Q 1472 3097 1187 3025 
Q 903 2953 641 2809 
L 641 3341 
Q 956 3463 1253 3523 
Q 1550 3584 1831 3584 
Q 2591 3584 2966 3190 
Q 3341 2797 3341 1997 
z
" transform="scale(0.015625)"/>
      <path id="DejaVuSans-6d" d="M 3328 2828 
Q 3544 3216 3844 3400 
Q 4144 3584 4550 3584 
Q 5097 3584 5394 3201 
Q 5691 2819 5691 2113 
L 5691 0 
L 5113 0 
L 5113 2094 
Q 5113 2597 4934 2840 
Q 4756 3084 4391 3084 
Q 3944 3084 3684 2787 
Q 3425 2491 3425 1978 
L 3425 0 
L 2847 0 
L 2847 2094 
Q 2847 2600 2669 2842 
Q 2491 3084 2119 3084 
Q 1678 3084 1418 2786 
Q 1159 2488 1159 1978 
L 1159 0 
L 581 0 
L 581 3500 
L 1159 3500 
L 1159 2956 
Q 1356 3278 1631 3431 
Q 1906 3584 2284 3584 
Q 2666 3584 2933 3390 
Q 3200 3197 3328 2828 
z
" transform="scale(0.015625)"/>
      <path id="DejaVuSans-62" d="M 3116 1747 
Q 3116 2381 2855 2742 
Q 2594 3103 2138 3103 
Q 1681 3103 1420 2742 
Q 1159 2381 1159 1747 
Q 1159 1113 1420 752 
Q 1681 391 2138 391 
Q 2594 391 2855 752 
Q 3116 1113 3116 1747 
z
M 1159 2969 
Q 1341 3281 1617 3432 
Q 1894 3584 2278 3584 
Q 2916 3584 3314 3078 
Q 3713 2572 3713 1747 
Q 3713 922 3314 415 
Q 2916 -91 2278 -91 
Q 1894 -91 1617 61 
Q 1341 213 1159 525 
L 1159 0 
L 581 0 
L 581 4863 
L 1159 4863 
L 1159 2969 
z
" transform="scale(0.015625)"/>
      <path id="DejaVuSans-69" d="M 603 3500 
L 1178 3500 
L 1178 0 
L 603 0 
L 603 3500 
z
M 603 4863 
L 1178 4863 
L 1178 4134 
L 603 4134 
L 603 4863 
z
" transform="scale(0.015625)"/>
      <path id="DejaVuSans-63" d="M 3122 3366 
L 3122 2828 
Q 2878 2963 2633 3030 
Q 2388 3097 2138 3097 
Q 1578 3097 1268 2742 
Q 959 2388 959 1747 
Q 959 1106 1268 751 
Q 1578 397 2138 397 
Q 2388 397 2633 464 
Q 2878 531 3122 666 
L 3122 134 
Q 2881 22 2623 -34 
Q 2366 -91 2075 -91 
Q 1284 -91 818 406 
Q 353 903 353 1747 
Q 353 2603 823 3093 
Q 1294 3584 2113 3584 
Q 2378 3584 2631 3529 
Q 2884 3475 3122 3366 
z
" transform="scale(0.015625)"/>
     </defs>
     <use xlink:href="#DejaVuSans-49"/>
     <use xlink:href="#DejaVuSans-61" x="29.492188"/>
     <use xlink:href="#DejaVuSans-6d" x="90.771484"/>
     <use xlink:href="#DejaVuSans-62" x="188.183594"/>
     <use xlink:href="#DejaVuSans-69" x="251.660156"/>
     <use xlink:href="#DejaVuSans-63" x="279.443359"/>
    </g>
   </g>
   <g id="text_15">
    <!-- Parse -->
    <g transform="translate(361.832136 97.592451)scale(0.08 -0.08)">
     <defs>
      <path id="DejaVuSans-72" d="M 2631 2963 
Q 2534 3019 2420 3045 
Q 2306 3072 2169 3072 
Q 1681 3072 1420 2755 
Q 1159 2438 1159 1844 
L 1159 0 
L 581 0 
L 581 3500 
L 1159 3500 
L 1159 2956 
Q 1341 3275 1631 3429 
Q 1922 3584 2338 3584 
Q 2397 3584 2469 3576 
Q 2541 3569 2628 3553 
L 2631 2963 
z
" transform="scale(0.015625)"/>
      <path id="DejaVuSans-73" d="M 2834 3397 
L 2834 2853 
Q 2591 2978 2328 3040 
Q 2066 3103 1784 3103 
Q 1356 3103 1142 2972 
Q 928 2841 928 2578 
Q 928 2378 1081 2264 
Q 1234 2150 1697 2047 
L 1894 2003 
Q 2506 1872 2764 1633 
Q 3022 1394 3022 966 
Q 3022 478 2636 193 
Q 2250 -91 1575 -91 
Q 1294 -91 989 -36 
Q 684 19 347 128 
L 347 722 
Q 666 556 975 473 
Q 1284 391 1588 391 
Q 1994 391 2212 530 
Q 2431 669 2431 922 
Q 2431 1156 2273 1281 
Q 2116 1406 1581 1522 
L 1381 1569 
Q 847 1681 609 1914 
Q 372 2147 372 2553 
Q 372 3047 722 3315 
Q 1072 3584 1716 3584 
Q 2034 3584 2315 3537 
Q 2597 3491 2834 3397 
z
" transform="scale(0.015625)"/>
      <path id="DejaVuSans-65" d="M 3597 1894 
L 3597 1613 
L 953 1613 
Q 991 1019 1311 708 
Q 1631 397 2203 397 
Q 2534 397 2845 478 
Q 3156 559 3463 722 
L 3463 178 
Q 3153 47 2828 -22 
Q 2503 -91 2169 -91 
Q 1331 -91 842 396 
Q 353 884 353 1716 
Q 353 2575 817 3079 
Q 1281 3584 2069 3584 
Q 2775 3584 3186 3129 
Q 3597 2675 3597 1894 
z
M 3022 2063 
Q 3016 2534 2758 2815 
Q 2500 3097 2075 3097 
Q 1594 3097 1305 2825 
Q 1016 2553 972 2059 
L 3022 2063 
z
" transform="scale(0.015625)"/>
     </defs>
     <use xlink:href="#DejaVuSans-50"/>
     <use xlink:href="#DejaVuSans-61" x="55.802734"/>
     <use xlink:href="#DejaVuSans-72" x="117.082031"/>
     <use xlink:href="#DejaVuSans-73" x="158.195312"/>
     <use xlink:href="#DejaVuSans-65" x="210.294922"/>
    </g>
   </g>
   <g id="text_16">
    <!-- FootBin -->
    <g transform="translate(361.832136 121.910271)scale(0.08 -0.08)">
     <defs>
      <path id="DejaVuSans-46" d="M 628 4666 
L 3309 4666 
L 3309 4134 
L 1259 4134 
L 1259 2759 
L 3109 2759 
L 3109 2228 
L 1259 2228 
L 1259 0 
L 628 0 
L 628 4666 
z
" transform="scale(0.015625)"/>
      <path id="DejaVuSans-6f" d="M 1959 3097 
Q 1497 3097 1228 2736 
Q 959 2375 959 1747 
Q 959 1119 1226 758 
Q 1494 397 1959 397 
Q 2419 397 2687 759 
Q 2956 1122 2956 1747 
Q 2956 2369 2687 2733 
Q 2419 3097 1959 3097 
z
M 1959 3584 
Q 2709 3584 3137 3096 
Q 3566 2609 3566 1747 
Q 3566 888 3137 398 
Q 2709 -91 1959 -91 
Q 1206 -91 779 398 
Q 353 888 353 1747 
Q 353 2609 779 3096 
Q 1206 3584 1959 3584 
z
" transform="scale(0.015625)"/>
      <path id="DejaVuSans-74" d="M 1172 4494 
L 1172 3500 
L 2356 3500 
L 2356 3053 
L 1172 3053 
L 1172 1153 
Q 1172 725 1289 603 
Q 1406 481 1766 481 
L 2356 481 
L 2356 0 
L 1766 0 
Q 1100 0 847 248 
Q 594 497 594 1153 
L 594 3053 
L 172 3053 
L 172 3500 
L 594 3500 
L 594 4494 
L 1172 4494 
z
" transform="scale(0.015625)"/>
      <path id="DejaVuSans-42" d="M 1259 2228 
L 1259 519 
L 2272 519 
Q 2781 519 3026 730 
Q 3272 941 3272 1375 
Q 3272 1813 3026 2020 
Q 2781 2228 2272 2228 
L 1259 2228 
z
M 1259 4147 
L 1259 2741 
L 2194 2741 
Q 2656 2741 2882 2914 
Q 3109 3088 3109 3444 
Q 3109 3797 2882 3972 
Q 2656 4147 2194 4147 
L 1259 4147 
z
M 628 4666 
L 2241 4666 
Q 2963 4666 3353 4366 
Q 3744 4066 3744 3513 
Q 3744 3084 3544 2831 
Q 3344 2578 2956 2516 
Q 3422 2416 3680 2098 
Q 3938 1781 3938 1306 
Q 3938 681 3513 340 
Q 3088 0 2303 0 
L 628 0 
L 628 4666 
z
" transform="scale(0.015625)"/>
      <path id="DejaVuSans-6e" d="M 3513 2113 
L 3513 0 
L 2938 0 
L 2938 2094 
Q 2938 2591 2744 2837 
Q 2550 3084 2163 3084 
Q 1697 3084 1428 2787 
Q 1159 2491 1159 1978 
L 1159 0 
L 581 0 
L 581 3500 
L 1159 3500 
L 1159 2956 
Q 1366 3272 1645 3428 
Q 1925 3584 2291 3584 
Q 2894 3584 3203 3211 
Q 3513 2838 3513 2113 
z
" transform="scale(0.015625)"/>
     </defs>
     <use xlink:href="#DejaVuSans-46"/>
     <use xlink:href="#DejaVuSans-6f" x="53.894531"/>
     <use xlink:href="#DejaVuSans-6f" x="115.076172"/>
     <use xlink:href="#DejaVuSans-74" x="176.257812"/>
     <use xlink:href="#DejaVuSans-42" x="215.466797"/>
     <use xlink:href="#DejaVuSans-69" x="284.070312"/>
     <use xlink:href="#DejaVuSans-6e" x="311.853516"/>
    </g>
   </g>
   <g id="text_17">
    <!-- WFL -->
    <g transform="translate(361.832136 106.23797)scale(0.08 -0.08)">
     <defs>
      <path id="DejaVuSans-4c" d="M 628 4666 
L 1259 4666 
L 1259 531 
L 3531 531 
L 3531 0 
L 628 0 
L 628 4666 
z
" transform="scale(0.015625)"/>
     </defs>
     <use xlink:href="#DejaVuSans-57"/>
     <use xlink:href="#DejaVuSans-46" x="98.876953"/>
     <use xlink:href="#DejaVuSans-4c" x="156.396484"/>
    </g>
   </g>
   <g id="text_18">
    <!-- WFR -->
    <g transform="translate(361.832136 153.696347)scale(0.08 -0.08)">
     <defs>
      <path id="DejaVuSans-52" d="M 2841 2188 
Q 3044 2119 3236 1894 
Q 3428 1669 3622 1275 
L 4263 0 
L 3584 0 
L 2988 1197 
Q 2756 1666 2539 1819 
Q 2322 1972 1947 1972 
L 1259 1972 
L 1259 0 
L 628 0 
L 628 4666 
L 2053 4666 
Q 2853 4666 3247 4331 
Q 3641 3997 3641 3322 
Q 3641 2881 3436 2590 
Q 3231 2300 2841 2188 
z
M 1259 4147 
L 1259 2491 
L 2053 2491 
Q 2509 2491 2742 2702 
Q 2975 2913 2975 3322 
Q 2975 3731 2742 3939 
Q 2509 4147 2053 4147 
L 1259 4147 
z
" transform="scale(0.015625)"/>
     </defs>
     <use xlink:href="#DejaVuSans-57"/>
     <use xlink:href="#DejaVuSans-46" x="98.876953"/>
     <use xlink:href="#DejaVuSans-52" x="156.396484"/>
    </g>
   </g>
   <g id="text_19">
    <!-- Main-L -->
    <g transform="translate(361.832136 66.726111)scale(0.08 -0.08)">
     <defs>
      <path id="DejaVuSans-4d" d="M 628 4666 
L 1569 4666 
L 2759 1491 
L 3956 4666 
L 4897 4666 
L 4897 0 
L 4281 0 
L 4281 4097 
L 3078 897 
L 2444 897 
L 1241 4097 
L 1241 0 
L 628 0 
L 628 4666 
z
" transform="scale(0.015625)"/>
      <path id="DejaVuSans-2d" d="M 313 2009 
L 1997 2009 
L 1997 1497 
L 313 1497 
L 313 2009 
z
" transform="scale(0.015625)"/>
     </defs>
     <use xlink:href="#DejaVuSans-4d"/>
     <use xlink:href="#DejaVuSans-61" x="86.279297"/>
     <use xlink:href="#DejaVuSans-69" x="147.558594"/>
     <use xlink:href="#DejaVuSans-6e" x="175.341797"/>
     <use xlink:href="#DejaVuSans-2d" x="238.720703"/>
     <use xlink:href="#DejaVuSans-4c" x="274.804688"/>
    </g>
   </g>
   <g id="text_20">
    <!-- Main-R -->
    <g transform="translate(361.832136 94.244612)scale(0.08 -0.08)">
     <use xlink:href="#DejaVuSans-4d"/>
     <use xlink:href="#DejaVuSans-61" x="86.279297"/>
     <use xlink:href="#DejaVuSans-69" x="147.558594"/>
     <use xlink:href="#DejaVuSans-6e" x="175.341797"/>
     <use xlink:href="#DejaVuSans-2d" x="238.720703"/>
     <use xlink:href="#DejaVuSans-52" x="274.804688"/>
    </g>
   </g>
   <g id="text_21">
    <!-- AFL -->
    <g transform="translate(361.832136 120.512273)scale(0.08 -0.08)">
     <defs>
      <path id="DejaVuSans-41" d="M 2188 4044 
L 1331 1722 
L 3047 1722 
L 2188 4044 
z
M 1831 4666 
L 2547 4666 
L 4325 0 
L 3669 0 
L 3244 1197 
L 1141 1197 
L 716 0 
L 50 0 
L 1831 4666 
z
" transform="scale(0.015625)"/>
     </defs>
     <use xlink:href="#DejaVuSans-41"/>
     <use xlink:href="#DejaVuSans-46" x="68.408203"/>
     <use xlink:href="#DejaVuSans-4c" x="125.927734"/>
    </g>
   </g>
   <g id="text_22">
    <!-- AFR -->
    <g transform="translate(361.832136 146.92709)scale(0.08 -0.08)">
     <use xlink:href="#DejaVuSans-41"/>
     <use xlink:href="#DejaVuSans-46" x="68.408203"/>
     <use xlink:href="#DejaVuSans-52" x="125.927734"/>
    </g>
   </g>
   <g id="text_23">
    <!-- Nonfinal -->
    <g transform="translate(361.832136 70.037161)scale(0.08 -0.08)">
     <defs>
      <path id="DejaVuSans-4e" d="M 628 4666 
L 1478 4666 
L 3547 763 
L 3547 4666 
L 4159 4666 
L 4159 0 
L 3309 0 
L 1241 3903 
L 1241 0 
L 628 0 
L 628 4666 
z
" transform="scale(0.015625)"/>
      <path id="DejaVuSans-66" d="M 2375 4863 
L 2375 4384 
L 1825 4384 
Q 1516 4384 1395 4259 
Q 1275 4134 1275 3809 
L 1275 3500 
L 2222 3500 
L 2222 3053 
L 1275 3053 
L 1275 0 
L 697 0 
L 697 3053 
L 147 3053 
L 147 3500 
L 697 3500 
L 697 3744 
Q 697 4328 969 4595 
Q 1241 4863 1831 4863 
L 2375 4863 
z
" transform="scale(0.015625)"/>
      <path id="DejaVuSans-6c" d="M 603 4863 
L 1178 4863 
L 1178 0 
L 603 0 
L 603 4863 
z
" transform="scale(0.015625)"/>
     </defs>
     <use xlink:href="#DejaVuSans-4e"/>
     <use xlink:href="#DejaVuSans-6f" x="74.804688"/>
     <use xlink:href="#DejaVuSans-6e" x="135.986328"/>
     <use xlink:href="#DejaVuSans-66" x="199.365234"/>
     <use xlink:href="#DejaVuSans-69" x="234.570312"/>
     <use xlink:href="#DejaVuSans-6e" x="262.353516"/>
     <use xlink:href="#DejaVuSans-61" x="325.732422"/>
     <use xlink:href="#DejaVuSans-6c" x="387.011719"/>
    </g>
   </g>
   <g id="text_24">
    <!-- Trochaic -->
    <g transform="translate(361.832136 143.432094)scale(0.08 -0.08)">
     <defs>
      <path id="DejaVuSans-54" d="M -19 4666 
L 3928 4666 
L 3928 4134 
L 2272 4134 
L 2272 0 
L 1638 0 
L 1638 4134 
L -19 4134 
L -19 4666 
z
" transform="scale(0.015625)"/>
      <path id="DejaVuSans-68" d="M 3513 2113 
L 3513 0 
L 2938 0 
L 2938 2094 
Q 2938 2591 2744 2837 
Q 2550 3084 2163 3084 
Q 1697 3084 1428 2787 
Q 1159 2491 1159 1978 
L 1159 0 
L 581 0 
L 581 4863 
L 1159 4863 
L 1159 2956 
Q 1366 3272 1645 3428 
Q 1925 3584 2291 3584 
Q 2894 3584 3203 3211 
Q 3513 2838 3513 2113 
z
" transform="scale(0.015625)"/>
     </defs>
     <use xlink:href="#DejaVuSans-54"/>
     <use xlink:href="#DejaVuSans-72" x="46.333984"/>
     <use xlink:href="#DejaVuSans-6f" x="85.197266"/>
     <use xlink:href="#DejaVuSans-63" x="146.378906"/>
     <use xlink:href="#DejaVuSans-68" x="201.359375"/>
     <use xlink:href="#DejaVuSans-61" x="264.738281"/>
     <use xlink:href="#DejaVuSans-69" x="326.017578"/>
     <use xlink:href="#DejaVuSans-63" x="353.800781"/>
    </g>
   </g>
  </g>
  <g id="axes_2">
   <g id="patch_7">
    <path d="M 57.6 307.584 
L 414.72 307.584 
L 414.72 186.624 
L 57.6 186.624 
z
" style="fill: #ffffff"/>
   </g>
   <g id="matplotlib.axis_3">
    <g id="xtick_8">
     <g id="line2d_25">
      <g>
       <use xlink:href="#m8f6f549c51" x="72.15925" y="307.584" style="stroke: #000000; stroke-width: 0.8"/>
      </g>
     </g>
     <g id="text_25">
      <!-- 0 -->
      <g transform="translate(68.978 322.182437)scale(0.1 -0.1)">
       <use xlink:href="#DejaVuSans-30"/>
      </g>
     </g>
    </g>
    <g id="xtick_9">
     <g id="line2d_26">
      <g>
       <use xlink:href="#m8f6f549c51" x="113.996176" y="307.584" style="stroke: #000000; stroke-width: 0.8"/>
      </g>
     </g>
     <g id="text_26">
      <!-- 25 -->
      <g transform="translate(107.633676 322.182437)scale(0.1 -0.1)">
       <use xlink:href="#DejaVuSans-32"/>
       <use xlink:href="#DejaVuSans-35" x="63.623047"/>
      </g>
     </g>
    </g>
    <g id="xtick_10">
     <g id="line2d_27">
      <g>
       <use xlink:href="#m8f6f549c51" x="155.833102" y="307.584" style="stroke: #000000; stroke-width: 0.8"/>
      </g>
     </g>
     <g id="text_27">
      <!-- 50 -->
      <g transform="translate(149.470602 322.182437)scale(0.1 -0.1)">
       <use xlink:href="#DejaVuSans-35"/>
       <use xlink:href="#DejaVuSans-30" x="63.623047"/>
      </g>
     </g>
    </g>
    <g id="xtick_11">
     <g id="line2d_28">
      <g>
       <use xlink:href="#m8f6f549c51" x="197.670028" y="307.584" style="stroke: #000000; stroke-width: 0.8"/>
      </g>
     </g>
     <g id="text_28">
      <!-- 75 -->
      <g transform="translate(191.307528 322.182437)scale(0.1 -0.1)">
       <use xlink:href="#DejaVuSans-37"/>
       <use xlink:href="#DejaVuSans-35" x="63.623047"/>
      </g>
     </g>
    </g>
    <g id="xtick_12">
     <g id="line2d_29">
      <g>
       <use xlink:href="#m8f6f549c51" x="239.506954" y="307.584" style="stroke: #000000; stroke-width: 0.8"/>
      </g>
     </g>
     <g id="text_29">
      <!-- 100 -->
      <g transform="translate(229.963204 322.182437)scale(0.1 -0.1)">
       <use xlink:href="#DejaVuSans-31"/>
       <use xlink:href="#DejaVuSans-30" x="63.623047"/>
       <use xlink:href="#DejaVuSans-30" x="127.246094"/>
      </g>
     </g>
    </g>
    <g id="xtick_13">
     <g id="line2d_30">
      <g>
       <use xlink:href="#m8f6f549c51" x="281.34388" y="307.584" style="stroke: #000000; stroke-width: 0.8"/>
      </g>
     </g>
     <g id="text_30">
      <!-- 125 -->
      <g transform="translate(271.80013 322.182437)scale(0.1 -0.1)">
       <use xlink:href="#DejaVuSans-31"/>
       <use xlink:href="#DejaVuSans-32" x="63.623047"/>
       <use xlink:href="#DejaVuSans-35" x="127.246094"/>
      </g>
     </g>
    </g>
    <g id="xtick_14">
     <g id="line2d_31">
      <g>
       <use xlink:href="#m8f6f549c51" x="323.180806" y="307.584" style="stroke: #000000; stroke-width: 0.8"/>
      </g>
     </g>
     <g id="text_31">
      <!-- 150 -->
      <g transform="translate(313.637056 322.182437)scale(0.1 -0.1)">
       <use xlink:href="#DejaVuSans-31"/>
       <use xlink:href="#DejaVuSans-35" x="63.623047"/>
       <use xlink:href="#DejaVuSans-30" x="127.246094"/>
      </g>
     </g>
    </g>
    <g id="xtick_15">
     <g id="line2d_32">
      <g>
       <use xlink:href="#m8f6f549c51" x="365.017732" y="307.584" style="stroke: #000000; stroke-width: 0.8"/>
      </g>
     </g>
     <g id="text_32">
      <!-- 175 -->
      <g transform="translate(355.473982 322.182437)scale(0.1 -0.1)">
       <use xlink:href="#DejaVuSans-31"/>
       <use xlink:href="#DejaVuSans-37" x="63.623047"/>
       <use xlink:href="#DejaVuSans-35" x="127.246094"/>
      </g>
     </g>
    </g>
    <g id="xtick_16">
     <g id="line2d_33">
      <g>
       <use xlink:href="#m8f6f549c51" x="406.854658" y="307.584" style="stroke: #000000; stroke-width: 0.8"/>
      </g>
     </g>
     <g id="text_33">
      <!-- 200 -->
      <g transform="translate(397.310908 322.182437)scale(0.1 -0.1)">
       <use xlink:href="#DejaVuSans-32"/>
       <use xlink:href="#DejaVuSans-30" x="63.623047"/>
       <use xlink:href="#DejaVuSans-30" x="127.246094"/>
      </g>
     </g>
    </g>
   </g>
   <g id="matplotlib.axis_4">
    <g id="ytick_6">
     <g id="line2d_34">
      <g>
       <use xlink:href="#mbdf225317d" x="57.6" y="302.096153" style="stroke: #000000; stroke-width: 0.8"/>
      </g>
     </g>
     <g id="text_34">
      <!-- 0 -->
      <g transform="translate(44.2375 305.895372)scale(0.1 -0.1)">
       <use xlink:href="#DejaVuSans-30"/>
      </g>
     </g>
    </g>
    <g id="ytick_7">
     <g id="line2d_35">
      <g>
       <use xlink:href="#mbdf225317d" x="57.6" y="281.426297" style="stroke: #000000; stroke-width: 0.8"/>
      </g>
     </g>
     <g id="text_35">
      <!-- 2000 -->
      <g transform="translate(25.15 285.225515)scale(0.1 -0.1)">
       <use xlink:href="#DejaVuSans-32"/>
       <use xlink:href="#DejaVuSans-30" x="63.623047"/>
       <use xlink:href="#DejaVuSans-30" x="127.246094"/>
       <use xlink:href="#DejaVuSans-30" x="190.869141"/>
      </g>
     </g>
    </g>
    <g id="ytick_8">
     <g id="line2d_36">
      <g>
       <use xlink:href="#mbdf225317d" x="57.6" y="260.75644" style="stroke: #000000; stroke-width: 0.8"/>
      </g>
     </g>
     <g id="text_36">
      <!-- 4000 -->
      <g transform="translate(25.15 264.555659)scale(0.1 -0.1)">
       <use xlink:href="#DejaVuSans-34"/>
       <use xlink:href="#DejaVuSans-30" x="63.623047"/>
       <use xlink:href="#DejaVuSans-30" x="127.246094"/>
       <use xlink:href="#DejaVuSans-30" x="190.869141"/>
      </g>
     </g>
    </g>
    <g id="ytick_9">
     <g id="line2d_37">
      <g>
       <use xlink:href="#mbdf225317d" x="57.6" y="240.086584" style="stroke: #000000; stroke-width: 0.8"/>
      </g>
     </g>
     <g id="text_37">
      <!-- 6000 -->
      <g transform="translate(25.15 243.885802)scale(0.1 -0.1)">
       <use xlink:href="#DejaVuSans-36"/>
       <use xlink:href="#DejaVuSans-30" x="63.623047"/>
       <use xlink:href="#DejaVuSans-30" x="127.246094"/>
       <use xlink:href="#DejaVuSans-30" x="190.869141"/>
      </g>
     </g>
    </g>
    <g id="ytick_10">
     <g id="line2d_38">
      <g>
       <use xlink:href="#mbdf225317d" x="57.6" y="219.416727" style="stroke: #000000; stroke-width: 0.8"/>
      </g>
     </g>
     <g id="text_38">
      <!-- 8000 -->
      <g transform="translate(25.15 223.215946)scale(0.1 -0.1)">
       <use xlink:href="#DejaVuSans-38"/>
       <use xlink:href="#DejaVuSans-30" x="63.623047"/>
       <use xlink:href="#DejaVuSans-30" x="127.246094"/>
       <use xlink:href="#DejaVuSans-30" x="190.869141"/>
      </g>
     </g>
    </g>
    <g id="ytick_11">
     <g id="line2d_39">
      <g>
       <use xlink:href="#mbdf225317d" x="57.6" y="198.746871" style="stroke: #000000; stroke-width: 0.8"/>
      </g>
     </g>
     <g id="text_39">
      <!-- 10000 -->
      <g transform="translate(18.7875 202.54609)scale(0.1 -0.1)">
       <use xlink:href="#DejaVuSans-31"/>
       <use xlink:href="#DejaVuSans-30" x="63.623047"/>
       <use xlink:href="#DejaVuSans-30" x="127.246094"/>
       <use xlink:href="#DejaVuSans-30" x="190.869141"/>
       <use xlink:href="#DejaVuSans-30" x="254.492188"/>
      </g>
     </g>
    </g>
   </g>
   <g id="line2d_40">
    <path d="M 73.832727 302.085818 
L 117.34313 302.054813 
L 119.016607 301.961799 
L 120.690084 302.085818 
L 137.424855 302.075483 
L 147.465717 302.075483 
L 149.139194 301.941129 
L 150.812671 302.065148 
L 152.486148 301.972134 
L 154.159625 302.085818 
L 155.833102 301.992804 
L 157.506579 302.023809 
L 159.180056 301.744766 
L 164.200487 302.065148 
L 169.220918 302.075483 
L 170.894396 301.693091 
L 172.567873 301.961799 
L 174.24135 301.77577 
L 175.914827 302.054813 
L 179.261781 301.899789 
L 180.935258 301.930794 
L 182.608735 302.085818 
L 184.282212 301.445053 
L 185.955689 301.331368 
L 187.629166 302.013474 
L 189.302643 301.930794 
L 190.97612 302.023809 
L 192.649597 301.941129 
L 194.323074 301.992804 
L 195.996551 301.868785 
L 197.670028 302.054813 
L 199.343505 301.951464 
L 201.016982 302.054813 
L 202.690459 301.765435 
L 204.363936 302.054813 
L 207.71089 301.548402 
L 209.384367 302.044478 
L 211.057844 301.910124 
L 212.731321 302.065148 
L 214.404799 301.910124 
L 216.078276 302.054813 
L 217.751753 301.982469 
L 219.42523 302.023809 
L 221.098707 301.941129 
L 222.772184 301.569072 
L 224.445661 302.085818 
L 226.119138 301.651751 
L 227.792615 302.085818 
L 229.466092 302.023809 
L 231.139569 301.672421 
L 232.813046 301.941129 
L 234.486523 301.579407 
L 236.16 301.961799 
L 237.833477 301.899789 
L 239.506954 302.075483 
L 242.853908 302.085818 
L 244.527385 302.085818 
L 246.200862 301.941129 
L 247.874339 302.085818 
L 249.547816 301.961799 
L 254.568247 302.013474 
L 259.588679 301.83778 
L 262.935633 302.003139 
L 264.60911 302.023809 
L 266.282587 301.7551 
L 267.956064 302.034144 
L 269.629541 302.075483 
L 272.976495 301.992804 
L 274.649972 301.538067 
L 276.323449 302.023809 
L 277.996926 301.765435 
L 279.670403 301.910124 
L 281.34388 301.889455 
L 283.017357 302.085818 
L 284.690834 301.951464 
L 288.037788 302.003139 
L 289.711265 301.455388 
L 291.384742 301.81711 
L 293.058219 301.920459 
L 294.731696 301.848115 
L 296.405173 302.075483 
L 298.07865 301.77577 
L 299.752127 301.982469 
L 301.425604 301.424383 
L 303.099082 301.961799 
L 306.446036 301.579407 
L 308.119513 302.023809 
L 309.79299 302.075483 
L 311.466467 301.941129 
L 321.507329 302.023809 
L 323.180806 301.682756 
L 324.854283 301.961799 
L 326.52776 302.034144 
L 328.201237 301.972134 
L 329.874714 301.713761 
L 331.548191 301.951464 
L 334.895145 301.899789 
L 336.568622 302.054813 
L 339.915576 301.682756 
L 343.26253 302.075483 
L 344.936007 301.455388 
L 346.609485 301.703426 
L 348.282962 301.7551 
L 349.956439 302.054813 
L 351.629916 300.287541 
L 353.303393 299.739789 
L 354.97687 302.013474 
L 356.650347 301.310699 
L 358.323824 301.786105 
L 359.997301 300.979981 
L 361.670778 299.398737 
L 363.344255 301.992804 
L 365.017732 302.054813 
L 366.691209 296.318928 
L 368.364686 301.631081 
L 370.038163 287.833952 
L 371.71164 279.731368 
L 373.385117 290.190316 
L 375.058594 248.375196 
L 376.732071 296.794335 
L 378.405548 252.509167 
L 380.079025 296.815005 
L 381.752502 298.954335 
L 383.425979 217.887158 
L 385.099456 297.724478 
L 386.772933 275.049646 
L 388.44641 300.163522 
L 390.119888 273.943809 
L 391.793365 266.750699 
L 393.466842 192.122182 
L 395.140319 258.379407 
L 396.813796 252.106105 
L 398.487273 298.830316 
L 398.487273 298.830316 
" clip-path="url(#p850de0e58e)" style="fill: none; stroke: #1f77b4; stroke-width: 1.5; stroke-linecap: square"/>
   </g>
   <g id="patch_8">
    <path d="M 57.6 307.584 
L 57.6 186.624 
" style="fill: none; stroke: #000000; stroke-width: 0.8; stroke-linejoin: miter; stroke-linecap: square"/>
   </g>
   <g id="patch_9">
    <path d="M 414.72 307.584 
L 414.72 186.624 
" style="fill: none; stroke: #000000; stroke-width: 0.8; stroke-linejoin: miter; stroke-linecap: square"/>
   </g>
   <g id="patch_10">
    <path d="M 57.6 307.584 
L 414.72 307.584 
" style="fill: none; stroke: #000000; stroke-width: 0.8; stroke-linejoin: miter; stroke-linecap: square"/>
   </g>
   <g id="patch_11">
    <path d="M 57.6 186.624 
L 414.72 186.624 
" style="fill: none; stroke: #000000; stroke-width: 0.8; stroke-linejoin: miter; stroke-linecap: square"/>
   </g>
  </g>
 </g>
 <defs>
  <clipPath id="p7766b215a3">
   <rect x="57.6" y="41.472" width="357.12" height="120.96"/>
  </clipPath>
  <clipPath id="p850de0e58e">
   <rect x="57.6" y="186.624" width="357.12" height="120.96"/>
  </clipPath>
 </defs>
</svg>
