<?xml version="1.0" encoding="utf-8" standalone="no"?>
<!DOCTYPE svg PUBLIC "-//W3C//DTD SVG 1.1//EN"
  "http://www.w3.org/Graphics/SVG/1.1/DTD/svg11.dtd">
<svg xmlns:xlink="http://www.w3.org/1999/xlink" width="460.8pt" height="345.6pt" viewBox="0 0 460.8 345.6" xmlns="http://www.w3.org/2000/svg" version="1.1">
 <metadata>
  <rdf:RDF xmlns:dc="http://purl.org/dc/elements/1.1/" xmlns:cc="http://creativecommons.org/ns#" xmlns:rdf="http://www.w3.org/1999/02/22-rdf-syntax-ns#">
   <cc:Work>
    <dc:type rdf:resource="http://purl.org/dc/dcmitype/StillImage"/>
    <dc:date>2022-05-13T17:23:47.348817</dc:date>
    <dc:format>image/svg+xml</dc:format>
    <dc:creator>
     <cc:Agent>
      <dc:title>Matplotlib v3.5.1, https://matplotlib.org/</dc:title>
     </cc:Agent>
    </dc:creator>
   </cc:Work>
  </rdf:RDF>
 </metadata>
 <defs>
  <style type="text/css">*{stroke-linejoin: round; stroke-linecap: butt}</style>
 </defs>
 <g id="figure_1">
  <g id="patch_1">
   <path d="M 0 345.6 
L 460.8 345.6 
L 460.8 0 
L 0 0 
z
" style="fill: #ffffff"/>
  </g>
  <g id="axes_1">
   <g id="patch_2">
    <path d="M 57.6 162.432 
L 414.72 162.432 
L 414.72 41.472 
L 57.6 41.472 
z
" style="fill: #ffffff"/>
   </g>
   <g id="matplotlib.axis_1">
    <g id="xtick_1">
     <g id="line2d_1">
      <defs>
       <path id="mb1ed7b604c" d="M 0 0 
L 0 3.5 
" style="stroke: #000000; stroke-width: 0.8"/>
      </defs>
      <g>
       <use xlink:href="#mb1ed7b604c" x="73.827491" y="162.432" style="stroke: #000000; stroke-width: 0.8"/>
      </g>
     </g>
     <g id="text_1">
      <!-- 0 -->
      <g transform="translate(70.646241 177.030437)scale(0.1 -0.1)">
       <defs>
        <path id="DejaVuSans-30" d="M 2034 4250 
Q 1547 4250 1301 3770 
Q 1056 3291 1056 2328 
Q 1056 1369 1301 889 
Q 1547 409 2034 409 
Q 2525 409 2770 889 
Q 3016 1369 3016 2328 
Q 3016 3291 2770 3770 
Q 2525 4250 2034 4250 
z
M 2034 4750 
Q 2819 4750 3233 4129 
Q 3647 3509 3647 2328 
Q 3647 1150 3233 529 
Q 2819 -91 2034 -91 
Q 1250 -91 836 529 
Q 422 1150 422 2328 
Q 422 3509 836 4129 
Q 1250 4750 2034 4750 
z
" transform="scale(0.015625)"/>
       </defs>
       <use xlink:href="#DejaVuSans-30"/>
      </g>
     </g>
    </g>
    <g id="xtick_2">
     <g id="line2d_2">
      <g>
       <use xlink:href="#mb1ed7b604c" x="126.191972" y="162.432" style="stroke: #000000; stroke-width: 0.8"/>
      </g>
     </g>
     <g id="text_2">
      <!-- 10000 -->
      <g transform="translate(110.285722 177.030437)scale(0.1 -0.1)">
       <defs>
        <path id="DejaVuSans-31" d="M 794 531 
L 1825 531 
L 1825 4091 
L 703 3866 
L 703 4441 
L 1819 4666 
L 2450 4666 
L 2450 531 
L 3481 531 
L 3481 0 
L 794 0 
L 794 531 
z
" transform="scale(0.015625)"/>
       </defs>
       <use xlink:href="#DejaVuSans-31"/>
       <use xlink:href="#DejaVuSans-30" x="63.623047"/>
       <use xlink:href="#DejaVuSans-30" x="127.246094"/>
       <use xlink:href="#DejaVuSans-30" x="190.869141"/>
       <use xlink:href="#DejaVuSans-30" x="254.492188"/>
      </g>
     </g>
    </g>
    <g id="xtick_3">
     <g id="line2d_3">
      <g>
       <use xlink:href="#mb1ed7b604c" x="178.556453" y="162.432" style="stroke: #000000; stroke-width: 0.8"/>
      </g>
     </g>
     <g id="text_3">
      <!-- 20000 -->
      <g transform="translate(162.650203 177.030437)scale(0.1 -0.1)">
       <defs>
        <path id="DejaVuSans-32" d="M 1228 531 
L 3431 531 
L 3431 0 
L 469 0 
L 469 531 
Q 828 903 1448 1529 
Q 2069 2156 2228 2338 
Q 2531 2678 2651 2914 
Q 2772 3150 2772 3378 
Q 2772 3750 2511 3984 
Q 2250 4219 1831 4219 
Q 1534 4219 1204 4116 
Q 875 4013 500 3803 
L 500 4441 
Q 881 4594 1212 4672 
Q 1544 4750 1819 4750 
Q 2544 4750 2975 4387 
Q 3406 4025 3406 3419 
Q 3406 3131 3298 2873 
Q 3191 2616 2906 2266 
Q 2828 2175 2409 1742 
Q 1991 1309 1228 531 
z
" transform="scale(0.015625)"/>
       </defs>
       <use xlink:href="#DejaVuSans-32"/>
       <use xlink:href="#DejaVuSans-30" x="63.623047"/>
       <use xlink:href="#DejaVuSans-30" x="127.246094"/>
       <use xlink:href="#DejaVuSans-30" x="190.869141"/>
       <use xlink:href="#DejaVuSans-30" x="254.492188"/>
      </g>
     </g>
    </g>
    <g id="xtick_4">
     <g id="line2d_4">
      <g>
       <use xlink:href="#mb1ed7b604c" x="230.920934" y="162.432" style="stroke: #000000; stroke-width: 0.8"/>
      </g>
     </g>
     <g id="text_4">
      <!-- 30000 -->
      <g transform="translate(215.014684 177.030437)scale(0.1 -0.1)">
       <defs>
        <path id="DejaVuSans-33" d="M 2597 2516 
Q 3050 2419 3304 2112 
Q 3559 1806 3559 1356 
Q 3559 666 3084 287 
Q 2609 -91 1734 -91 
Q 1441 -91 1130 -33 
Q 819 25 488 141 
L 488 750 
Q 750 597 1062 519 
Q 1375 441 1716 441 
Q 2309 441 2620 675 
Q 2931 909 2931 1356 
Q 2931 1769 2642 2001 
Q 2353 2234 1838 2234 
L 1294 2234 
L 1294 2753 
L 1863 2753 
Q 2328 2753 2575 2939 
Q 2822 3125 2822 3475 
Q 2822 3834 2567 4026 
Q 2313 4219 1838 4219 
Q 1578 4219 1281 4162 
Q 984 4106 628 3988 
L 628 4550 
Q 988 4650 1302 4700 
Q 1616 4750 1894 4750 
Q 2613 4750 3031 4423 
Q 3450 4097 3450 3541 
Q 3450 3153 3228 2886 
Q 3006 2619 2597 2516 
z
" transform="scale(0.015625)"/>
       </defs>
       <use xlink:href="#DejaVuSans-33"/>
       <use xlink:href="#DejaVuSans-30" x="63.623047"/>
       <use xlink:href="#DejaVuSans-30" x="127.246094"/>
       <use xlink:href="#DejaVuSans-30" x="190.869141"/>
       <use xlink:href="#DejaVuSans-30" x="254.492188"/>
      </g>
     </g>
    </g>
    <g id="xtick_5">
     <g id="line2d_5">
      <g>
       <use xlink:href="#mb1ed7b604c" x="283.285415" y="162.432" style="stroke: #000000; stroke-width: 0.8"/>
      </g>
     </g>
     <g id="text_5">
      <!-- 40000 -->
      <g transform="translate(267.379165 177.030437)scale(0.1 -0.1)">
       <defs>
        <path id="DejaVuSans-34" d="M 2419 4116 
L 825 1625 
L 2419 1625 
L 2419 4116 
z
M 2253 4666 
L 3047 4666 
L 3047 1625 
L 3713 1625 
L 3713 1100 
L 3047 1100 
L 3047 0 
L 2419 0 
L 2419 1100 
L 313 1100 
L 313 1709 
L 2253 4666 
z
" transform="scale(0.015625)"/>
       </defs>
       <use xlink:href="#DejaVuSans-34"/>
       <use xlink:href="#DejaVuSans-30" x="63.623047"/>
       <use xlink:href="#DejaVuSans-30" x="127.246094"/>
       <use xlink:href="#DejaVuSans-30" x="190.869141"/>
       <use xlink:href="#DejaVuSans-30" x="254.492188"/>
      </g>
     </g>
    </g>
    <g id="xtick_6">
     <g id="line2d_6">
      <g>
       <use xlink:href="#mb1ed7b604c" x="335.649896" y="162.432" style="stroke: #000000; stroke-width: 0.8"/>
      </g>
     </g>
     <g id="text_6">
      <!-- 50000 -->
      <g transform="translate(319.743646 177.030437)scale(0.1 -0.1)">
       <defs>
        <path id="DejaVuSans-35" d="M 691 4666 
L 3169 4666 
L 3169 4134 
L 1269 4134 
L 1269 2991 
Q 1406 3038 1543 3061 
Q 1681 3084 1819 3084 
Q 2600 3084 3056 2656 
Q 3513 2228 3513 1497 
Q 3513 744 3044 326 
Q 2575 -91 1722 -91 
Q 1428 -91 1123 -41 
Q 819 9 494 109 
L 494 744 
Q 775 591 1075 516 
Q 1375 441 1709 441 
Q 2250 441 2565 725 
Q 2881 1009 2881 1497 
Q 2881 1984 2565 2268 
Q 2250 2553 1709 2553 
Q 1456 2553 1204 2497 
Q 953 2441 691 2322 
L 691 4666 
z
" transform="scale(0.015625)"/>
       </defs>
       <use xlink:href="#DejaVuSans-35"/>
       <use xlink:href="#DejaVuSans-30" x="63.623047"/>
       <use xlink:href="#DejaVuSans-30" x="127.246094"/>
       <use xlink:href="#DejaVuSans-30" x="190.869141"/>
       <use xlink:href="#DejaVuSans-30" x="254.492188"/>
      </g>
     </g>
    </g>
    <g id="xtick_7">
     <g id="line2d_7">
      <g>
       <use xlink:href="#mb1ed7b604c" x="388.014377" y="162.432" style="stroke: #000000; stroke-width: 0.8"/>
      </g>
     </g>
     <g id="text_7">
      <!-- 60000 -->
      <g transform="translate(372.108127 177.030437)scale(0.1 -0.1)">
       <defs>
        <path id="DejaVuSans-36" d="M 2113 2584 
Q 1688 2584 1439 2293 
Q 1191 2003 1191 1497 
Q 1191 994 1439 701 
Q 1688 409 2113 409 
Q 2538 409 2786 701 
Q 3034 994 3034 1497 
Q 3034 2003 2786 2293 
Q 2538 2584 2113 2584 
z
M 3366 4563 
L 3366 3988 
Q 3128 4100 2886 4159 
Q 2644 4219 2406 4219 
Q 1781 4219 1451 3797 
Q 1122 3375 1075 2522 
Q 1259 2794 1537 2939 
Q 1816 3084 2150 3084 
Q 2853 3084 3261 2657 
Q 3669 2231 3669 1497 
Q 3669 778 3244 343 
Q 2819 -91 2113 -91 
Q 1303 -91 875 529 
Q 447 1150 447 2328 
Q 447 3434 972 4092 
Q 1497 4750 2381 4750 
Q 2619 4750 2861 4703 
Q 3103 4656 3366 4563 
z
" transform="scale(0.015625)"/>
       </defs>
       <use xlink:href="#DejaVuSans-36"/>
       <use xlink:href="#DejaVuSans-30" x="63.623047"/>
       <use xlink:href="#DejaVuSans-30" x="127.246094"/>
       <use xlink:href="#DejaVuSans-30" x="190.869141"/>
       <use xlink:href="#DejaVuSans-30" x="254.492188"/>
      </g>
     </g>
    </g>
   </g>
   <g id="matplotlib.axis_2">
    <g id="ytick_1">
     <g id="line2d_8">
      <defs>
       <path id="m1a0e55465f" d="M 0 0 
L -3.5 0 
" style="stroke: #000000; stroke-width: 0.8"/>
      </defs>
      <g>
       <use xlink:href="#m1a0e55465f" x="57.6" y="156.451522" style="stroke: #000000; stroke-width: 0.8"/>
      </g>
     </g>
     <g id="text_8">
      <!-- 70 -->
      <g transform="translate(37.875 160.25074)scale(0.1 -0.1)">
       <defs>
        <path id="DejaVuSans-37" d="M 525 4666 
L 3525 4666 
L 3525 4397 
L 1831 0 
L 1172 0 
L 2766 4134 
L 525 4134 
L 525 4666 
z
" transform="scale(0.015625)"/>
       </defs>
       <use xlink:href="#DejaVuSans-37"/>
       <use xlink:href="#DejaVuSans-30" x="63.623047"/>
      </g>
     </g>
    </g>
    <g id="ytick_2">
     <g id="line2d_9">
      <g>
       <use xlink:href="#m1a0e55465f" x="57.6" y="127.513722" style="stroke: #000000; stroke-width: 0.8"/>
      </g>
     </g>
     <g id="text_9">
      <!-- 80 -->
      <g transform="translate(37.875 131.312941)scale(0.1 -0.1)">
       <defs>
        <path id="DejaVuSans-38" d="M 2034 2216 
Q 1584 2216 1326 1975 
Q 1069 1734 1069 1313 
Q 1069 891 1326 650 
Q 1584 409 2034 409 
Q 2484 409 2743 651 
Q 3003 894 3003 1313 
Q 3003 1734 2745 1975 
Q 2488 2216 2034 2216 
z
M 1403 2484 
Q 997 2584 770 2862 
Q 544 3141 544 3541 
Q 544 4100 942 4425 
Q 1341 4750 2034 4750 
Q 2731 4750 3128 4425 
Q 3525 4100 3525 3541 
Q 3525 3141 3298 2862 
Q 3072 2584 2669 2484 
Q 3125 2378 3379 2068 
Q 3634 1759 3634 1313 
Q 3634 634 3220 271 
Q 2806 -91 2034 -91 
Q 1263 -91 848 271 
Q 434 634 434 1313 
Q 434 1759 690 2068 
Q 947 2378 1403 2484 
z
M 1172 3481 
Q 1172 3119 1398 2916 
Q 1625 2713 2034 2713 
Q 2441 2713 2670 2916 
Q 2900 3119 2900 3481 
Q 2900 3844 2670 4047 
Q 2441 4250 2034 4250 
Q 1625 4250 1398 4047 
Q 1172 3844 1172 3481 
z
" transform="scale(0.015625)"/>
       </defs>
       <use xlink:href="#DejaVuSans-38"/>
       <use xlink:href="#DejaVuSans-30" x="63.623047"/>
      </g>
     </g>
    </g>
    <g id="ytick_3">
     <g id="line2d_10">
      <g>
       <use xlink:href="#m1a0e55465f" x="57.6" y="98.575923" style="stroke: #000000; stroke-width: 0.8"/>
      </g>
     </g>
     <g id="text_10">
      <!-- 90 -->
      <g transform="translate(37.875 102.375142)scale(0.1 -0.1)">
       <defs>
        <path id="DejaVuSans-39" d="M 703 97 
L 703 672 
Q 941 559 1184 500 
Q 1428 441 1663 441 
Q 2288 441 2617 861 
Q 2947 1281 2994 2138 
Q 2813 1869 2534 1725 
Q 2256 1581 1919 1581 
Q 1219 1581 811 2004 
Q 403 2428 403 3163 
Q 403 3881 828 4315 
Q 1253 4750 1959 4750 
Q 2769 4750 3195 4129 
Q 3622 3509 3622 2328 
Q 3622 1225 3098 567 
Q 2575 -91 1691 -91 
Q 1453 -91 1209 -44 
Q 966 3 703 97 
z
M 1959 2075 
Q 2384 2075 2632 2365 
Q 2881 2656 2881 3163 
Q 2881 3666 2632 3958 
Q 2384 4250 1959 4250 
Q 1534 4250 1286 3958 
Q 1038 3666 1038 3163 
Q 1038 2656 1286 2365 
Q 1534 2075 1959 2075 
z
" transform="scale(0.015625)"/>
       </defs>
       <use xlink:href="#DejaVuSans-39"/>
       <use xlink:href="#DejaVuSans-30" x="63.623047"/>
      </g>
     </g>
    </g>
    <g id="ytick_4">
     <g id="line2d_11">
      <g>
       <use xlink:href="#m1a0e55465f" x="57.6" y="69.638124" style="stroke: #000000; stroke-width: 0.8"/>
      </g>
     </g>
     <g id="text_11">
      <!-- 100 -->
      <g transform="translate(31.5125 73.437343)scale(0.1 -0.1)">
       <use xlink:href="#DejaVuSans-31"/>
       <use xlink:href="#DejaVuSans-30" x="63.623047"/>
       <use xlink:href="#DejaVuSans-30" x="127.246094"/>
      </g>
     </g>
    </g>
   </g>
   <g id="line2d_12">
    <path d="M 73.832727 69.638124 
L 73.837964 69.638124 
L 73.953166 91.582622 
L 73.979348 88.688842 
L 74.010767 88.688842 
L 74.016003 87.241952 
L 74.068367 93.029512 
L 74.105023 93.029512 
L 74.136441 93.029512 
L 74.146914 91.582622 
L 74.183569 97.370182 
L 74.235934 95.923292 
L 74.31448 95.923292 
L 74.434919 101.710852 
L 74.445392 101.710852 
L 74.56583 107.498411 
L 74.906199 107.498411 
L 75.026637 113.285971 
L 75.094711 113.285971 
L 75.209913 116.179751 
L 75.387952 116.179751 
L 75.503154 119.073531 
L 76.293858 119.073531 
L 76.40906 121.967311 
L 76.519025 121.967311 
L 76.628991 119.073531 
L 76.744192 121.967311 
L 77.477295 121.967311 
L 77.592497 120.520421 
L 80.472543 120.520421 
L 80.587745 123.414201 
L 81.017134 123.414201 
L 81.132336 126.307981 
L 81.676927 126.307981 
L 81.792128 129.201761 
L 89.154574 129.201761 
L 89.269776 132.095541 
L 90.934967 132.095541 
L 91.050169 134.989321 
L 92.93529 134.989321 
L 93.050492 133.542431 
L 93.668393 133.542431 
L 93.783595 132.095541 
L 100.329155 132.095541 
L 100.444356 130.648651 
L 105.445164 130.648651 
L 105.560366 133.542431 
L 108.445649 133.542431 
L 108.560851 136.436211 
L 132.517601 136.436211 
L 132.632803 139.32999 
L 138.492388 139.32999 
L 138.60759 137.8831 
L 153.798526 137.8831 
L 153.913728 140.77688 
L 170.801273 140.77688 
L 170.916475 139.32999 
L 175.901574 139.32999 
L 176.016775 137.8831 
L 178.718783 137.8831 
L 178.833984 140.77688 
L 205.351358 140.77688 
L 205.466559 143.67066 
L 224.605777 143.67066 
L 224.720979 146.56444 
L 237.424602 146.56444 
L 237.539804 149.45822 
L 276.68749 149.45822 
L 276.802692 148.01133 
L 398.487273 148.01133 
L 398.487273 148.01133 
" clip-path="url(#p653f7dd14c)" style="fill: none; stroke: #1f77b4; stroke-width: 1.5; stroke-linecap: square"/>
   </g>
   <g id="line2d_13">
    <path d="M 73.832727 72.531904 
L 73.874619 68.914679 
L 73.942693 70.361569 
L 73.968875 70.361569 
L 74.089313 76.149129 
L 74.136441 76.149129 
L 74.25688 81.936689 
L 74.31448 81.936689 
L 74.429682 79.042909 
L 74.461101 79.042909 
L 74.576303 81.936689 
L 74.790997 81.936689 
L 74.906199 84.830469 
L 75.99538 84.830469 
L 76.110582 87.724249 
L 76.660409 87.724249 
L 76.775611 90.618029 
L 79.414781 90.618029 
L 79.529983 93.511809 
L 82.62996 93.511809 
L 82.745162 96.405589 
L 86.829591 96.405589 
L 86.944793 99.299368 
L 89.144102 99.299368 
L 89.259303 102.193148 
L 90.123317 102.193148 
L 90.238519 105.086928 
L 92.662995 105.086928 
L 92.778196 107.980708 
L 92.93529 107.980708 
L 93.050492 106.533818 
L 93.64221 106.533818 
L 93.757412 103.640038 
L 99.48085 103.640038 
L 99.596052 106.533818 
L 100.329155 106.533818 
L 100.444356 105.086928 
L 108.445649 105.086928 
L 108.560851 107.980708 
L 170.801273 107.980708 
L 170.916475 110.874488 
L 172.330316 110.874488 
L 172.445518 113.768268 
L 175.901574 113.768268 
L 176.016775 116.662048 
L 178.718783 116.662048 
L 178.833984 113.768268 
L 191.029672 113.768268 
L 191.144874 110.874488 
L 237.424602 110.874488 
L 237.539804 113.768268 
L 350.23864 113.768268 
L 350.353842 116.662048 
L 398.487273 116.662048 
L 398.487273 116.662048 
" clip-path="url(#p653f7dd14c)" style="fill: none; stroke: #ff7f0e; stroke-width: 1.5; stroke-linecap: square"/>
   </g>
   <g id="line2d_14">
    <path d="M 73.832727 68.191234 
L 73.8432 68.191234 
L 73.942693 79.284057 
L 73.906038 67.708938 
L 73.963638 74.943388 
L 74.063131 70.602718 
L 74.073604 73.496498 
L 74.105023 73.496498 
L 74.146914 70.602718 
L 74.183569 76.390278 
L 74.214988 73.496498 
L 74.251643 73.496498 
L 74.293535 70.602718 
L 74.361609 73.496498 
L 74.455865 73.496498 
L 74.571066 76.390278 
L 74.790997 76.390278 
L 74.906199 79.284057 
L 75.010928 79.284057 
L 75.131366 85.071617 
L 75.188967 85.071617 
L 75.304169 82.177837 
L 76.183892 82.177837 
L 76.299094 79.284057 
L 76.519025 79.284057 
L 76.550444 77.837167 
L 76.55568 80.730947 
L 76.628991 79.284057 
L 77.477295 79.284057 
L 77.592497 77.837167 
L 78.058541 77.837167 
L 78.173743 80.730947 
L 79.414781 80.730947 
L 79.529983 77.837167 
L 81.017134 77.837167 
L 81.132336 80.730947 
L 82.033005 80.730947 
L 82.148207 77.837167 
L 82.62996 77.837167 
L 82.745162 80.730947 
L 84.352751 80.730947 
L 84.467953 77.837167 
L 89.154574 77.837167 
L 89.269776 80.730947 
L 89.631091 80.730947 
L 89.746293 77.837167 
L 92.662995 77.837167 
L 92.778196 80.730947 
L 93.668393 80.730947 
L 93.783595 79.284057 
L 108.806964 79.284057 
L 108.922166 76.390278 
L 110.451209 76.390278 
L 110.566411 79.284057 
L 132.517601 79.284057 
L 132.632803 82.177837 
L 138.492388 82.177837 
L 138.60759 80.730947 
L 154.248861 80.730947 
L 154.364063 77.837167 
L 178.226556 77.837167 
L 178.341758 80.730947 
L 179.734654 80.730947 
L 179.849855 77.837167 
L 182.316222 77.837167 
L 182.431424 80.730947 
L 224.605777 80.730947 
L 224.720979 83.624727 
L 276.68749 83.624727 
L 276.802692 82.177837 
L 350.23864 82.177837 
L 350.353842 85.071617 
L 398.487273 85.071617 
L 398.487273 85.071617 
" clip-path="url(#p653f7dd14c)" style="fill: none; stroke: #2ca02c; stroke-width: 1.5; stroke-linecap: square"/>
   </g>
   <g id="line2d_15">
    <path d="M 73.832727 69.638124 
L 73.900801 69.638124 
L 73.995057 78.319464 
L 74.021239 77.354871 
L 74.105023 77.354871 
L 74.220224 80.248651 
L 74.251643 80.248651 
L 74.366845 83.142431 
L 74.419209 83.142431 
L 74.539648 88.92999 
L 74.790997 88.92999 
L 74.906199 91.82377 
L 75.188967 91.82377 
L 75.304169 94.71755 
L 75.429844 94.71755 
L 75.5241 93.752957 
L 75.529336 96.646737 
L 76.183892 96.646737 
L 76.299094 101.469703 
L 76.550444 101.469703 
L 76.665646 100.50511 
L 79.414781 100.50511 
L 79.529983 103.39889 
L 81.676927 103.39889 
L 81.792128 106.29267 
L 90.934967 106.29267 
L 91.050169 105.328077 
L 95.024633 105.328077 
L 95.139835 108.221856 
L 110.451209 108.221856 
L 110.566411 107.257263 
L 117.394739 107.257263 
L 117.509941 106.29267 
L 121.243528 106.29267 
L 121.35873 109.18645 
L 137.005237 109.18645 
L 137.120439 112.08023 
L 178.226556 112.08023 
L 178.341758 111.115636 
L 179.734654 111.115636 
L 179.849855 114.009416 
L 182.316222 114.009416 
L 182.431424 113.044823 
L 350.23864 113.044823 
L 350.353842 115.938603 
L 398.487273 115.938603 
L 398.487273 115.938603 
" clip-path="url(#p653f7dd14c)" style="fill: none; stroke: #d62728; stroke-width: 1.5; stroke-linecap: square"/>
   </g>
   <g id="line2d_16">
    <path d="M 73.832727 69.638124 
L 73.890328 69.638124 
L 74.00553 69.155828 
L 74.790997 69.155828 
L 74.906199 72.049608 
L 82.62996 72.049608 
L 82.745162 74.943388 
L 92.662995 74.943388 
L 92.778196 77.837167 
L 350.23864 77.837167 
L 350.353842 80.730947 
L 398.487273 80.730947 
L 398.487273 80.730947 
" clip-path="url(#p653f7dd14c)" style="fill: none; stroke: #9467bd; stroke-width: 1.5; stroke-linecap: square"/>
   </g>
   <g id="line2d_17">
    <path d="M 73.832727 69.638124 
L 73.8432 69.638124 
L 73.989821 91.341474 
L 73.995057 91.341474 
L 74.115495 97.129033 
L 74.146914 97.129033 
L 74.199279 102.916593 
L 74.262116 101.469703 
L 74.293535 101.469703 
L 74.408737 104.363483 
L 74.455865 104.363483 
L 74.571066 107.257263 
L 75.010928 107.257263 
L 75.131366 113.044823 
L 76.550444 113.044823 
L 76.665646 115.938603 
L 78.058541 115.938603 
L 78.173743 118.832383 
L 81.017134 118.832383 
L 81.132336 121.726163 
L 89.154574 121.726163 
L 89.269776 124.619943 
L 110.451209 124.619943 
L 110.566411 127.513722 
L 132.517601 127.513722 
L 132.632803 130.407502 
L 178.226556 130.407502 
L 178.341758 133.301282 
L 182.316222 133.301282 
L 182.431424 136.195062 
L 224.605777 136.195062 
L 224.720979 139.088842 
L 398.487273 139.088842 
L 398.487273 139.088842 
" clip-path="url(#p653f7dd14c)" style="fill: none; stroke: #8c564b; stroke-width: 1.5; stroke-linecap: square"/>
   </g>
   <g id="line2d_18">
    <path d="M 73.832727 68.191234 
L 73.848437 68.191234 
L 73.968875 64.815158 
L 74.293535 64.815158 
L 74.408737 63.850565 
L 74.618194 63.850565 
L 74.738633 58.063005 
L 74.790997 58.063005 
L 74.906199 57.098411 
L 82.62996 57.098411 
L 82.745162 56.133818 
L 92.662995 56.133818 
L 92.778196 55.169225 
L 117.394739 55.169225 
L 117.509941 54.204632 
L 350.23864 54.204632 
L 350.353842 53.240038 
L 398.487273 53.240038 
L 398.487273 53.240038 
" clip-path="url(#p653f7dd14c)" style="fill: none; stroke: #e377c2; stroke-width: 1.5; stroke-linecap: square"/>
   </g>
   <g id="line2d_19">
    <path d="M 73.832727 72.531904 
L 73.837964 72.531904 
L 73.848437 71.567311 
L 73.895565 78.801761 
L 73.911274 78.801761 
L 73.926983 78.801761 
L 74.052658 76.631426 
L 74.293535 76.631426 
L 74.408737 79.525206 
L 74.419209 79.525206 
L 74.539648 76.631426 
L 74.618194 76.631426 
L 74.738633 82.418986 
L 74.790997 82.418986 
L 74.906199 85.312766 
L 75.5241 85.312766 
L 75.639302 83.865876 
L 76.293858 83.865876 
L 76.40906 82.418986 
L 81.676927 82.418986 
L 81.792128 80.972096 
L 82.62996 80.972096 
L 82.745162 83.865876 
L 92.662995 83.865876 
L 92.778196 86.759656 
L 95.024633 86.759656 
L 95.139835 85.312766 
L 117.394739 85.312766 
L 117.509941 88.206545 
L 121.243528 88.206545 
L 121.35873 86.759656 
L 137.005237 86.759656 
L 137.120439 85.312766 
L 350.23864 85.312766 
L 350.353842 88.206545 
L 398.487273 88.206545 
L 398.487273 88.206545 
" clip-path="url(#p653f7dd14c)" style="fill: none; stroke: #7f7f7f; stroke-width: 1.5; stroke-linecap: square"/>
   </g>
   <g id="line2d_20">
    <path d="M 73.832727 69.638124 
L 73.837964 69.638124 
L 73.864146 67.226641 
L 73.890328 78.078316 
L 73.900801 77.596019 
L 73.937456 77.354871 
L 74.036949 92.306067 
L 74.063131 92.306067 
L 74.105023 90.859177 
L 74.110259 93.752957 
L 74.173096 92.306067 
L 74.178333 92.306067 
L 74.194042 90.859177 
L 74.214988 99.540517 
L 74.251643 99.540517 
L 74.366845 102.434297 
L 74.419209 102.434297 
L 74.445392 108.221856 
L 74.534411 105.328077 
L 74.790997 105.328077 
L 74.906199 108.221856 
L 75.026637 105.328077 
L 75.094711 105.328077 
L 75.188967 103.881187 
L 75.194204 106.774967 
L 75.19944 106.774967 
L 75.387952 106.774967 
L 75.503154 104.363483 
L 75.5241 104.363483 
L 75.639302 107.257263 
L 76.183892 107.257263 
L 76.299094 112.08023 
L 76.519025 112.08023 
L 76.628991 116.903196 
L 76.634227 115.456306 
L 77.477295 115.456306 
L 77.592497 118.350086 
L 78.058541 118.350086 
L 78.173743 117.385493 
L 79.414781 117.385493 
L 79.529983 120.279273 
L 80.472543 120.279273 
L 80.587745 118.832383 
L 81.017134 118.832383 
L 81.132336 117.385493 
L 81.572198 117.385493 
L 81.692636 123.173053 
L 82.033005 123.173053 
L 82.148207 126.066833 
L 82.62996 126.066833 
L 82.745162 128.960612 
L 84.352751 128.960612 
L 84.467953 131.854392 
L 89.154574 131.854392 
L 89.269776 130.407502 
L 89.631091 130.407502 
L 89.746293 133.301282 
L 90.934967 133.301282 
L 91.050169 132.336689 
L 92.662995 132.336689 
L 92.778196 135.230469 
L 93.668393 135.230469 
L 93.783595 138.124249 
L 95.024633 138.124249 
L 95.139835 141.018029 
L 105.445164 141.018029 
L 105.560366 139.571139 
L 108.806964 139.571139 
L 108.922166 142.464919 
L 110.451209 142.464919 
L 110.566411 141.500325 
L 117.394739 141.500325 
L 117.509941 144.394105 
L 121.243528 144.394105 
L 121.35873 147.287885 
L 132.517601 147.287885 
L 132.632803 145.840995 
L 137.005237 145.840995 
L 137.120439 148.734775 
L 138.492388 148.734775 
L 138.60759 151.628555 
L 153.798526 151.628555 
L 153.913728 150.181665 
L 154.248861 150.181665 
L 154.364063 153.075445 
L 178.226556 153.075445 
L 178.341758 152.110852 
L 179.734654 152.110852 
L 179.849855 155.004632 
L 182.316222 155.004632 
L 182.431424 154.040038 
L 205.351358 154.040038 
L 205.466559 152.593148 
L 224.605777 152.593148 
L 224.720979 151.146258 
L 276.68749 151.146258 
L 276.802692 154.040038 
L 350.23864 154.040038 
L 350.353842 156.933818 
L 398.487273 156.933818 
L 398.487273 156.933818 
" clip-path="url(#p653f7dd14c)" style="fill: none; stroke: #bcbd22; stroke-width: 1.5; stroke-linecap: square"/>
   </g>
   <g id="line2d_21">
    <path d="M 73.832727 72.531904 
L 73.837964 72.531904 
L 73.864146 70.843866 
L 73.895565 81.695541 
L 73.900801 81.695541 
L 74.036949 97.370182 
L 74.105023 97.370182 
L 74.209752 103.157742 
L 74.220224 100.263962 
L 74.251643 100.263962 
L 74.372081 106.051522 
L 74.419209 106.051522 
L 74.544884 101.710852 
L 74.790997 101.710852 
L 74.911436 99.299368 
L 75.188967 99.299368 
L 75.304169 102.193148 
L 75.387952 102.193148 
L 75.503154 99.781665 
L 75.5241 99.781665 
L 75.639302 98.334775 
L 76.183892 98.334775 
L 76.210075 101.228555 
L 76.293858 100.263962 
L 76.40906 98.817072 
L 76.519025 98.817072 
L 76.628991 104.604632 
L 76.634227 103.157742 
L 77.477295 103.157742 
L 77.592497 106.051522 
L 78.058541 106.051522 
L 78.173743 105.086928 
L 79.414781 105.086928 
L 79.529983 107.980708 
L 80.472543 107.980708 
L 80.587745 106.533818 
L 81.572198 106.533818 
L 81.687399 102.193148 
L 82.033005 102.193148 
L 82.148207 105.086928 
L 82.62996 105.086928 
L 82.745162 104.122335 
L 84.352751 104.122335 
L 84.467953 107.016115 
L 89.631091 107.016115 
L 89.746293 109.909895 
L 90.934967 109.909895 
L 91.050169 108.945301 
L 92.662995 108.945301 
L 92.778196 107.980708 
L 93.668393 107.980708 
L 93.783595 110.874488 
L 95.024633 110.874488 
L 95.139835 109.427598 
L 105.445164 109.427598 
L 105.560366 107.980708 
L 108.806964 107.980708 
L 108.922166 110.874488 
L 117.394739 110.874488 
L 117.509941 109.909895 
L 121.243528 109.909895 
L 121.35873 108.463005 
L 137.005237 108.463005 
L 137.120439 107.016115 
L 138.492388 107.016115 
L 138.60759 109.909895 
L 153.798526 109.909895 
L 153.913728 108.463005 
L 154.248861 108.463005 
L 154.364063 111.356785 
L 179.734654 111.356785 
L 179.849855 114.250565 
L 205.351358 114.250565 
L 205.466559 112.803675 
L 276.68749 112.803675 
L 276.802692 115.697455 
L 350.23864 115.697455 
L 350.353842 114.732861 
L 398.487273 114.732861 
L 398.487273 114.732861 
" clip-path="url(#p653f7dd14c)" style="fill: none; stroke: #17becf; stroke-width: 1.5; stroke-linecap: square"/>
   </g>
   <g id="line2d_22">
    <path d="M 73.832727 69.638124 
L 73.8432 69.638124 
L 73.879855 71.085014 
L 73.984584 65.297455 
L 73.995057 65.297455 
L 74.115495 62.885971 
L 74.146914 62.885971 
L 74.199279 59.992191 
L 74.25688 62.885971 
L 74.293535 62.885971 
L 74.408737 61.921378 
L 74.455865 61.921378 
L 74.571066 60.474488 
L 75.010928 60.474488 
L 75.131366 57.580708 
L 76.550444 57.580708 
L 76.665646 56.616115 
L 78.058541 56.616115 
L 78.173743 55.651522 
L 81.017134 55.651522 
L 81.132336 54.204632 
L 89.154574 54.204632 
L 89.269776 52.757742 
L 110.451209 52.757742 
L 110.566411 51.793148 
L 132.517601 51.793148 
L 132.632803 50.346258 
L 178.226556 50.346258 
L 178.341758 49.381665 
L 182.316222 49.381665 
L 182.431424 48.417072 
L 224.605777 48.417072 
L 224.720979 46.970182 
L 398.487273 46.970182 
L 398.487273 46.970182 
" clip-path="url(#p653f7dd14c)" style="fill: none; stroke: #1f77b4; stroke-width: 1.5; stroke-linecap: square"/>
   </g>
   <g id="line2d_23">
    <path d="M 73.832727 69.638124 
L 73.968875 102.916593 
L 73.995057 98.575923 
L 74.010767 98.575923 
L 74.136441 107.257263 
L 74.194042 105.810373 
L 74.199279 108.704153 
L 74.24117 108.704153 
L 74.293535 108.704153 
L 74.31448 107.73956 
L 74.319717 110.63334 
L 74.393027 110.63334 
L 74.445392 110.63334 
L 74.461101 113.52712 
L 74.555357 110.63334 
L 74.790997 110.63334 
L 74.906199 109.668746 
L 75.021401 112.562526 
L 75.387952 112.562526 
L 75.508391 118.350086 
L 75.99538 118.350086 
L 76.110582 115.456306 
L 76.210075 115.456306 
L 76.325277 118.350086 
L 76.519025 118.350086 
L 76.6447 127.031426 
L 76.660409 127.031426 
L 76.775611 124.137646 
L 77.477295 124.137646 
L 77.592497 127.031426 
L 80.472543 127.031426 
L 80.587745 129.925206 
L 82.033005 129.925206 
L 82.148207 132.818986 
L 82.62996 132.818986 
L 82.745162 131.854392 
L 84.352751 131.854392 
L 84.467953 134.748172 
L 86.829591 134.748172 
L 86.944793 131.854392 
L 89.144102 131.854392 
L 89.259303 128.960612 
L 89.631091 128.960612 
L 89.746293 131.854392 
L 90.123317 131.854392 
L 90.238519 128.960612 
L 90.934967 128.960612 
L 91.050169 131.854392 
L 92.662995 131.854392 
L 92.778196 130.889799 
L 92.93529 130.889799 
L 93.050492 133.783579 
L 93.64221 133.783579 
L 93.757412 136.677359 
L 99.48085 136.677359 
L 99.596052 133.783579 
L 100.329155 133.783579 
L 100.444356 136.677359 
L 105.445164 136.677359 
L 105.560366 139.571139 
L 108.445649 139.571139 
L 108.560851 136.677359 
L 108.806964 136.677359 
L 108.922166 139.571139 
L 138.492388 139.571139 
L 138.60759 142.464919 
L 153.798526 142.464919 
L 153.913728 145.358699 
L 154.248861 145.358699 
L 154.364063 148.252478 
L 170.801273 148.252478 
L 170.916475 146.805589 
L 172.330316 146.805589 
L 172.445518 143.911809 
L 175.901574 143.911809 
L 176.016775 142.464919 
L 178.718783 142.464919 
L 178.833984 145.358699 
L 191.029672 145.358699 
L 191.144874 148.252478 
L 205.351358 148.252478 
L 205.466559 151.146258 
L 237.424602 151.146258 
L 237.539804 148.252478 
L 276.68749 148.252478 
L 276.802692 151.146258 
L 350.23864 151.146258 
L 350.353842 150.181665 
L 398.487273 150.181665 
L 398.487273 150.181665 
" clip-path="url(#p653f7dd14c)" style="fill: none; stroke: #ff7f0e; stroke-width: 1.5; stroke-linecap: square"/>
   </g>
   <g id="patch_3">
    <path d="M 57.6 162.432 
L 57.6 41.472 
" style="fill: none; stroke: #000000; stroke-width: 0.8; stroke-linejoin: miter; stroke-linecap: square"/>
   </g>
   <g id="patch_4">
    <path d="M 414.72 162.432 
L 414.72 41.472 
" style="fill: none; stroke: #000000; stroke-width: 0.8; stroke-linejoin: miter; stroke-linecap: square"/>
   </g>
   <g id="patch_5">
    <path d="M 57.6 162.432 
L 414.72 162.432 
" style="fill: none; stroke: #000000; stroke-width: 0.8; stroke-linejoin: miter; stroke-linecap: square"/>
   </g>
   <g id="patch_6">
    <path d="M 57.6 41.472 
L 414.72 41.472 
" style="fill: none; stroke: #000000; stroke-width: 0.8; stroke-linejoin: miter; stroke-linecap: square"/>
   </g>
   <g id="text_12">
    <!-- WSP -->
    <g transform="translate(361.832136 148.01133)scale(0.08 -0.08)">
     <defs>
      <path id="DejaVuSans-57" d="M 213 4666 
L 850 4666 
L 1831 722 
L 2809 4666 
L 3519 4666 
L 4500 722 
L 5478 4666 
L 6119 4666 
L 4947 0 
L 4153 0 
L 3169 4050 
L 2175 0 
L 1381 0 
L 213 4666 
z
" transform="scale(0.015625)"/>
      <path id="DejaVuSans-53" d="M 3425 4513 
L 3425 3897 
Q 3066 4069 2747 4153 
Q 2428 4238 2131 4238 
Q 1616 4238 1336 4038 
Q 1056 3838 1056 3469 
Q 1056 3159 1242 3001 
Q 1428 2844 1947 2747 
L 2328 2669 
Q 3034 2534 3370 2195 
Q 3706 1856 3706 1288 
Q 3706 609 3251 259 
Q 2797 -91 1919 -91 
Q 1588 -91 1214 -16 
Q 841 59 441 206 
L 441 856 
Q 825 641 1194 531 
Q 1563 422 1919 422 
Q 2459 422 2753 634 
Q 3047 847 3047 1241 
Q 3047 1584 2836 1778 
Q 2625 1972 2144 2069 
L 1759 2144 
Q 1053 2284 737 2584 
Q 422 2884 422 3419 
Q 422 4038 858 4394 
Q 1294 4750 2059 4750 
Q 2388 4750 2728 4690 
Q 3069 4631 3425 4513 
z
" transform="scale(0.015625)"/>
      <path id="DejaVuSans-50" d="M 1259 4147 
L 1259 2394 
L 2053 2394 
Q 2494 2394 2734 2622 
Q 2975 2850 2975 3272 
Q 2975 3691 2734 3919 
Q 2494 4147 2053 4147 
L 1259 4147 
z
M 628 4666 
L 2053 4666 
Q 2838 4666 3239 4311 
Q 3641 3956 3641 3272 
Q 3641 2581 3239 2228 
Q 2838 1875 2053 1875 
L 1259 1875 
L 1259 0 
L 628 0 
L 628 4666 
z
" transform="scale(0.015625)"/>
     </defs>
     <use xlink:href="#DejaVuSans-57"/>
     <use xlink:href="#DejaVuSans-53" x="98.876953"/>
     <use xlink:href="#DejaVuSans-50" x="162.353516"/>
    </g>
   </g>
   <g id="text_13">
    <!-- Iambic -->
    <g transform="translate(361.832136 116.662048)scale(0.08 -0.08)">
     <defs>
      <path id="DejaVuSans-49" d="M 628 4666 
L 1259 4666 
L 1259 0 
L 628 0 
L 628 4666 
z
" transform="scale(0.015625)"/>
      <path id="DejaVuSans-61" d="M 2194 1759 
Q 1497 1759 1228 1600 
Q 959 1441 959 1056 
Q 959 750 1161 570 
Q 1363 391 1709 391 
Q 2188 391 2477 730 
Q 2766 1069 2766 1631 
L 2766 1759 
L 2194 1759 
z
M 3341 1997 
L 3341 0 
L 2766 0 
L 2766 531 
Q 2569 213 2275 61 
Q 1981 -91 1556 -91 
Q 1019 -91 701 211 
Q 384 513 384 1019 
Q 384 1609 779 1909 
Q 1175 2209 1959 2209 
L 2766 2209 
L 2766 2266 
Q 2766 2663 2505 2880 
Q 2244 3097 1772 3097 
Q 1472 3097 1187 3025 
Q 903 2953 641 2809 
L 641 3341 
Q 956 3463 1253 3523 
Q 1550 3584 1831 3584 
Q 2591 3584 2966 3190 
Q 3341 2797 3341 1997 
z
" transform="scale(0.015625)"/>
      <path id="DejaVuSans-6d" d="M 3328 2828 
Q 3544 3216 3844 3400 
Q 4144 3584 4550 3584 
Q 5097 3584 5394 3201 
Q 5691 2819 5691 2113 
L 5691 0 
L 5113 0 
L 5113 2094 
Q 5113 2597 4934 2840 
Q 4756 3084 4391 3084 
Q 3944 3084 3684 2787 
Q 3425 2491 3425 1978 
L 3425 0 
L 2847 0 
L 2847 2094 
Q 2847 2600 2669 2842 
Q 2491 3084 2119 3084 
Q 1678 3084 1418 2786 
Q 1159 2488 1159 1978 
L 1159 0 
L 581 0 
L 581 3500 
L 1159 3500 
L 1159 2956 
Q 1356 3278 1631 3431 
Q 1906 3584 2284 3584 
Q 2666 3584 2933 3390 
Q 3200 3197 3328 2828 
z
" transform="scale(0.015625)"/>
      <path id="DejaVuSans-62" d="M 3116 1747 
Q 3116 2381 2855 2742 
Q 2594 3103 2138 3103 
Q 1681 3103 1420 2742 
Q 1159 2381 1159 1747 
Q 1159 1113 1420 752 
Q 1681 391 2138 391 
Q 2594 391 2855 752 
Q 3116 1113 3116 1747 
z
M 1159 2969 
Q 1341 3281 1617 3432 
Q 1894 3584 2278 3584 
Q 2916 3584 3314 3078 
Q 3713 2572 3713 1747 
Q 3713 922 3314 415 
Q 2916 -91 2278 -91 
Q 1894 -91 1617 61 
Q 1341 213 1159 525 
L 1159 0 
L 581 0 
L 581 4863 
L 1159 4863 
L 1159 2969 
z
" transform="scale(0.015625)"/>
      <path id="DejaVuSans-69" d="M 603 3500 
L 1178 3500 
L 1178 0 
L 603 0 
L 603 3500 
z
M 603 4863 
L 1178 4863 
L 1178 4134 
L 603 4134 
L 603 4863 
z
" transform="scale(0.015625)"/>
      <path id="DejaVuSans-63" d="M 3122 3366 
L 3122 2828 
Q 2878 2963 2633 3030 
Q 2388 3097 2138 3097 
Q 1578 3097 1268 2742 
Q 959 2388 959 1747 
Q 959 1106 1268 751 
Q 1578 397 2138 397 
Q 2388 397 2633 464 
Q 2878 531 3122 666 
L 3122 134 
Q 2881 22 2623 -34 
Q 2366 -91 2075 -91 
Q 1284 -91 818 406 
Q 353 903 353 1747 
Q 353 2603 823 3093 
Q 1294 3584 2113 3584 
Q 2378 3584 2631 3529 
Q 2884 3475 3122 3366 
z
" transform="scale(0.015625)"/>
     </defs>
     <use xlink:href="#DejaVuSans-49"/>
     <use xlink:href="#DejaVuSans-61" x="29.492188"/>
     <use xlink:href="#DejaVuSans-6d" x="90.771484"/>
     <use xlink:href="#DejaVuSans-62" x="188.183594"/>
     <use xlink:href="#DejaVuSans-69" x="251.660156"/>
     <use xlink:href="#DejaVuSans-63" x="279.443359"/>
    </g>
   </g>
   <g id="text_14">
    <!-- Parse -->
    <g transform="translate(361.832136 85.071617)scale(0.08 -0.08)">
     <defs>
      <path id="DejaVuSans-72" d="M 2631 2963 
Q 2534 3019 2420 3045 
Q 2306 3072 2169 3072 
Q 1681 3072 1420 2755 
Q 1159 2438 1159 1844 
L 1159 0 
L 581 0 
L 581 3500 
L 1159 3500 
L 1159 2956 
Q 1341 3275 1631 3429 
Q 1922 3584 2338 3584 
Q 2397 3584 2469 3576 
Q 2541 3569 2628 3553 
L 2631 2963 
z
" transform="scale(0.015625)"/>
      <path id="DejaVuSans-73" d="M 2834 3397 
L 2834 2853 
Q 2591 2978 2328 3040 
Q 2066 3103 1784 3103 
Q 1356 3103 1142 2972 
Q 928 2841 928 2578 
Q 928 2378 1081 2264 
Q 1234 2150 1697 2047 
L 1894 2003 
Q 2506 1872 2764 1633 
Q 3022 1394 3022 966 
Q 3022 478 2636 193 
Q 2250 -91 1575 -91 
Q 1294 -91 989 -36 
Q 684 19 347 128 
L 347 722 
Q 666 556 975 473 
Q 1284 391 1588 391 
Q 1994 391 2212 530 
Q 2431 669 2431 922 
Q 2431 1156 2273 1281 
Q 2116 1406 1581 1522 
L 1381 1569 
Q 847 1681 609 1914 
Q 372 2147 372 2553 
Q 372 3047 722 3315 
Q 1072 3584 1716 3584 
Q 2034 3584 2315 3537 
Q 2597 3491 2834 3397 
z
" transform="scale(0.015625)"/>
      <path id="DejaVuSans-65" d="M 3597 1894 
L 3597 1613 
L 953 1613 
Q 991 1019 1311 708 
Q 1631 397 2203 397 
Q 2534 397 2845 478 
Q 3156 559 3463 722 
L 3463 178 
Q 3153 47 2828 -22 
Q 2503 -91 2169 -91 
Q 1331 -91 842 396 
Q 353 884 353 1716 
Q 353 2575 817 3079 
Q 1281 3584 2069 3584 
Q 2775 3584 3186 3129 
Q 3597 2675 3597 1894 
z
M 3022 2063 
Q 3016 2534 2758 2815 
Q 2500 3097 2075 3097 
Q 1594 3097 1305 2825 
Q 1016 2553 972 2059 
L 3022 2063 
z
" transform="scale(0.015625)"/>
     </defs>
     <use xlink:href="#DejaVuSans-50"/>
     <use xlink:href="#DejaVuSans-61" x="55.802734"/>
     <use xlink:href="#DejaVuSans-72" x="117.082031"/>
     <use xlink:href="#DejaVuSans-73" x="158.195312"/>
     <use xlink:href="#DejaVuSans-65" x="210.294922"/>
    </g>
   </g>
   <g id="text_15">
    <!-- FootBin -->
    <g transform="translate(361.832136 115.938603)scale(0.08 -0.08)">
     <defs>
      <path id="DejaVuSans-46" d="M 628 4666 
L 3309 4666 
L 3309 4134 
L 1259 4134 
L 1259 2759 
L 3109 2759 
L 3109 2228 
L 1259 2228 
L 1259 0 
L 628 0 
L 628 4666 
z
" transform="scale(0.015625)"/>
      <path id="DejaVuSans-6f" d="M 1959 3097 
Q 1497 3097 1228 2736 
Q 959 2375 959 1747 
Q 959 1119 1226 758 
Q 1494 397 1959 397 
Q 2419 397 2687 759 
Q 2956 1122 2956 1747 
Q 2956 2369 2687 2733 
Q 2419 3097 1959 3097 
z
M 1959 3584 
Q 2709 3584 3137 3096 
Q 3566 2609 3566 1747 
Q 3566 888 3137 398 
Q 2709 -91 1959 -91 
Q 1206 -91 779 398 
Q 353 888 353 1747 
Q 353 2609 779 3096 
Q 1206 3584 1959 3584 
z
" transform="scale(0.015625)"/>
      <path id="DejaVuSans-74" d="M 1172 4494 
L 1172 3500 
L 2356 3500 
L 2356 3053 
L 1172 3053 
L 1172 1153 
Q 1172 725 1289 603 
Q 1406 481 1766 481 
L 2356 481 
L 2356 0 
L 1766 0 
Q 1100 0 847 248 
Q 594 497 594 1153 
L 594 3053 
L 172 3053 
L 172 3500 
L 594 3500 
L 594 4494 
L 1172 4494 
z
" transform="scale(0.015625)"/>
      <path id="DejaVuSans-42" d="M 1259 2228 
L 1259 519 
L 2272 519 
Q 2781 519 3026 730 
Q 3272 941 3272 1375 
Q 3272 1813 3026 2020 
Q 2781 2228 2272 2228 
L 1259 2228 
z
M 1259 4147 
L 1259 2741 
L 2194 2741 
Q 2656 2741 2882 2914 
Q 3109 3088 3109 3444 
Q 3109 3797 2882 3972 
Q 2656 4147 2194 4147 
L 1259 4147 
z
M 628 4666 
L 2241 4666 
Q 2963 4666 3353 4366 
Q 3744 4066 3744 3513 
Q 3744 3084 3544 2831 
Q 3344 2578 2956 2516 
Q 3422 2416 3680 2098 
Q 3938 1781 3938 1306 
Q 3938 681 3513 340 
Q 3088 0 2303 0 
L 628 0 
L 628 4666 
z
" transform="scale(0.015625)"/>
      <path id="DejaVuSans-6e" d="M 3513 2113 
L 3513 0 
L 2938 0 
L 2938 2094 
Q 2938 2591 2744 2837 
Q 2550 3084 2163 3084 
Q 1697 3084 1428 2787 
Q 1159 2491 1159 1978 
L 1159 0 
L 581 0 
L 581 3500 
L 1159 3500 
L 1159 2956 
Q 1366 3272 1645 3428 
Q 1925 3584 2291 3584 
Q 2894 3584 3203 3211 
Q 3513 2838 3513 2113 
z
" transform="scale(0.015625)"/>
     </defs>
     <use xlink:href="#DejaVuSans-46"/>
     <use xlink:href="#DejaVuSans-6f" x="53.894531"/>
     <use xlink:href="#DejaVuSans-6f" x="115.076172"/>
     <use xlink:href="#DejaVuSans-74" x="176.257812"/>
     <use xlink:href="#DejaVuSans-42" x="215.466797"/>
     <use xlink:href="#DejaVuSans-69" x="284.070312"/>
     <use xlink:href="#DejaVuSans-6e" x="311.853516"/>
    </g>
   </g>
   <g id="text_16">
    <!-- WFL -->
    <g transform="translate(361.832136 80.730947)scale(0.08 -0.08)">
     <defs>
      <path id="DejaVuSans-4c" d="M 628 4666 
L 1259 4666 
L 1259 531 
L 3531 531 
L 3531 0 
L 628 0 
L 628 4666 
z
" transform="scale(0.015625)"/>
     </defs>
     <use xlink:href="#DejaVuSans-57"/>
     <use xlink:href="#DejaVuSans-46" x="98.876953"/>
     <use xlink:href="#DejaVuSans-4c" x="156.396484"/>
    </g>
   </g>
   <g id="text_17">
    <!-- WFR -->
    <g transform="translate(361.832136 139.088842)scale(0.08 -0.08)">
     <defs>
      <path id="DejaVuSans-52" d="M 2841 2188 
Q 3044 2119 3236 1894 
Q 3428 1669 3622 1275 
L 4263 0 
L 3584 0 
L 2988 1197 
Q 2756 1666 2539 1819 
Q 2322 1972 1947 1972 
L 1259 1972 
L 1259 0 
L 628 0 
L 628 4666 
L 2053 4666 
Q 2853 4666 3247 4331 
Q 3641 3997 3641 3322 
Q 3641 2881 3436 2590 
Q 3231 2300 2841 2188 
z
M 1259 4147 
L 1259 2491 
L 2053 2491 
Q 2509 2491 2742 2702 
Q 2975 2913 2975 3322 
Q 2975 3731 2742 3939 
Q 2509 4147 2053 4147 
L 1259 4147 
z
" transform="scale(0.015625)"/>
     </defs>
     <use xlink:href="#DejaVuSans-57"/>
     <use xlink:href="#DejaVuSans-46" x="98.876953"/>
     <use xlink:href="#DejaVuSans-52" x="156.396484"/>
    </g>
   </g>
   <g id="text_18">
    <!-- Main-L -->
    <g transform="translate(361.832136 53.240038)scale(0.08 -0.08)">
     <defs>
      <path id="DejaVuSans-4d" d="M 628 4666 
L 1569 4666 
L 2759 1491 
L 3956 4666 
L 4897 4666 
L 4897 0 
L 4281 0 
L 4281 4097 
L 3078 897 
L 2444 897 
L 1241 4097 
L 1241 0 
L 628 0 
L 628 4666 
z
" transform="scale(0.015625)"/>
      <path id="DejaVuSans-2d" d="M 313 2009 
L 1997 2009 
L 1997 1497 
L 313 1497 
L 313 2009 
z
" transform="scale(0.015625)"/>
     </defs>
     <use xlink:href="#DejaVuSans-4d"/>
     <use xlink:href="#DejaVuSans-61" x="86.279297"/>
     <use xlink:href="#DejaVuSans-69" x="147.558594"/>
     <use xlink:href="#DejaVuSans-6e" x="175.341797"/>
     <use xlink:href="#DejaVuSans-2d" x="238.720703"/>
     <use xlink:href="#DejaVuSans-4c" x="274.804688"/>
    </g>
   </g>
   <g id="text_19">
    <!-- Main-R -->
    <g transform="translate(361.832136 88.206545)scale(0.08 -0.08)">
     <use xlink:href="#DejaVuSans-4d"/>
     <use xlink:href="#DejaVuSans-61" x="86.279297"/>
     <use xlink:href="#DejaVuSans-69" x="147.558594"/>
     <use xlink:href="#DejaVuSans-6e" x="175.341797"/>
     <use xlink:href="#DejaVuSans-2d" x="238.720703"/>
     <use xlink:href="#DejaVuSans-52" x="274.804688"/>
    </g>
   </g>
   <g id="text_20">
    <!-- AFL -->
    <g transform="translate(361.832136 156.933818)scale(0.08 -0.08)">
     <defs>
      <path id="DejaVuSans-41" d="M 2188 4044 
L 1331 1722 
L 3047 1722 
L 2188 4044 
z
M 1831 4666 
L 2547 4666 
L 4325 0 
L 3669 0 
L 3244 1197 
L 1141 1197 
L 716 0 
L 50 0 
L 1831 4666 
z
" transform="scale(0.015625)"/>
     </defs>
     <use xlink:href="#DejaVuSans-41"/>
     <use xlink:href="#DejaVuSans-46" x="68.408203"/>
     <use xlink:href="#DejaVuSans-4c" x="125.927734"/>
    </g>
   </g>
   <g id="text_21">
    <!-- AFR -->
    <g transform="translate(361.832136 114.732861)scale(0.08 -0.08)">
     <use xlink:href="#DejaVuSans-41"/>
     <use xlink:href="#DejaVuSans-46" x="68.408203"/>
     <use xlink:href="#DejaVuSans-52" x="125.927734"/>
    </g>
   </g>
   <g id="text_22">
    <!-- Nonfinal -->
    <g transform="translate(361.832136 46.970182)scale(0.08 -0.08)">
     <defs>
      <path id="DejaVuSans-4e" d="M 628 4666 
L 1478 4666 
L 3547 763 
L 3547 4666 
L 4159 4666 
L 4159 0 
L 3309 0 
L 1241 3903 
L 1241 0 
L 628 0 
L 628 4666 
z
" transform="scale(0.015625)"/>
      <path id="DejaVuSans-66" d="M 2375 4863 
L 2375 4384 
L 1825 4384 
Q 1516 4384 1395 4259 
Q 1275 4134 1275 3809 
L 1275 3500 
L 2222 3500 
L 2222 3053 
L 1275 3053 
L 1275 0 
L 697 0 
L 697 3053 
L 147 3053 
L 147 3500 
L 697 3500 
L 697 3744 
Q 697 4328 969 4595 
Q 1241 4863 1831 4863 
L 2375 4863 
z
" transform="scale(0.015625)"/>
      <path id="DejaVuSans-6c" d="M 603 4863 
L 1178 4863 
L 1178 0 
L 603 0 
L 603 4863 
z
" transform="scale(0.015625)"/>
     </defs>
     <use xlink:href="#DejaVuSans-4e"/>
     <use xlink:href="#DejaVuSans-6f" x="74.804688"/>
     <use xlink:href="#DejaVuSans-6e" x="135.986328"/>
     <use xlink:href="#DejaVuSans-66" x="199.365234"/>
     <use xlink:href="#DejaVuSans-69" x="234.570312"/>
     <use xlink:href="#DejaVuSans-6e" x="262.353516"/>
     <use xlink:href="#DejaVuSans-61" x="325.732422"/>
     <use xlink:href="#DejaVuSans-6c" x="387.011719"/>
    </g>
   </g>
   <g id="text_23">
    <!-- Trochaic -->
    <g transform="translate(361.832136 150.181665)scale(0.08 -0.08)">
     <defs>
      <path id="DejaVuSans-54" d="M -19 4666 
L 3928 4666 
L 3928 4134 
L 2272 4134 
L 2272 0 
L 1638 0 
L 1638 4134 
L -19 4134 
L -19 4666 
z
" transform="scale(0.015625)"/>
      <path id="DejaVuSans-68" d="M 3513 2113 
L 3513 0 
L 2938 0 
L 2938 2094 
Q 2938 2591 2744 2837 
Q 2550 3084 2163 3084 
Q 1697 3084 1428 2787 
Q 1159 2491 1159 1978 
L 1159 0 
L 581 0 
L 581 4863 
L 1159 4863 
L 1159 2956 
Q 1366 3272 1645 3428 
Q 1925 3584 2291 3584 
Q 2894 3584 3203 3211 
Q 3513 2838 3513 2113 
z
" transform="scale(0.015625)"/>
     </defs>
     <use xlink:href="#DejaVuSans-54"/>
     <use xlink:href="#DejaVuSans-72" x="46.333984"/>
     <use xlink:href="#DejaVuSans-6f" x="85.197266"/>
     <use xlink:href="#DejaVuSans-63" x="146.378906"/>
     <use xlink:href="#DejaVuSans-68" x="201.359375"/>
     <use xlink:href="#DejaVuSans-61" x="264.738281"/>
     <use xlink:href="#DejaVuSans-69" x="326.017578"/>
     <use xlink:href="#DejaVuSans-63" x="353.800781"/>
    </g>
   </g>
  </g>
  <g id="axes_2">
   <g id="patch_7">
    <path d="M 57.6 307.584 
L 414.72 307.584 
L 414.72 186.624 
L 57.6 186.624 
z
" style="fill: #ffffff"/>
   </g>
   <g id="matplotlib.axis_3">
    <g id="xtick_8">
     <g id="line2d_24">
      <g>
       <use xlink:href="#mb1ed7b604c" x="70.826667" y="307.584" style="stroke: #000000; stroke-width: 0.8"/>
      </g>
     </g>
     <g id="text_24">
      <!-- 0 -->
      <g transform="translate(67.645417 322.182437)scale(0.1 -0.1)">
       <use xlink:href="#DejaVuSans-30"/>
      </g>
     </g>
    </g>
    <g id="xtick_9">
     <g id="line2d_25">
      <g>
       <use xlink:href="#mb1ed7b604c" x="130.947879" y="307.584" style="stroke: #000000; stroke-width: 0.8"/>
      </g>
     </g>
     <g id="text_25">
      <!-- 20 -->
      <g transform="translate(124.585379 322.182437)scale(0.1 -0.1)">
       <use xlink:href="#DejaVuSans-32"/>
       <use xlink:href="#DejaVuSans-30" x="63.623047"/>
      </g>
     </g>
    </g>
    <g id="xtick_10">
     <g id="line2d_26">
      <g>
       <use xlink:href="#mb1ed7b604c" x="191.069091" y="307.584" style="stroke: #000000; stroke-width: 0.8"/>
      </g>
     </g>
     <g id="text_26">
      <!-- 40 -->
      <g transform="translate(184.706591 322.182437)scale(0.1 -0.1)">
       <use xlink:href="#DejaVuSans-34"/>
       <use xlink:href="#DejaVuSans-30" x="63.623047"/>
      </g>
     </g>
    </g>
    <g id="xtick_11">
     <g id="line2d_27">
      <g>
       <use xlink:href="#mb1ed7b604c" x="251.190303" y="307.584" style="stroke: #000000; stroke-width: 0.8"/>
      </g>
     </g>
     <g id="text_27">
      <!-- 60 -->
      <g transform="translate(244.827803 322.182437)scale(0.1 -0.1)">
       <use xlink:href="#DejaVuSans-36"/>
       <use xlink:href="#DejaVuSans-30" x="63.623047"/>
      </g>
     </g>
    </g>
    <g id="xtick_12">
     <g id="line2d_28">
      <g>
       <use xlink:href="#mb1ed7b604c" x="311.311515" y="307.584" style="stroke: #000000; stroke-width: 0.8"/>
      </g>
     </g>
     <g id="text_28">
      <!-- 80 -->
      <g transform="translate(304.949015 322.182437)scale(0.1 -0.1)">
       <use xlink:href="#DejaVuSans-38"/>
       <use xlink:href="#DejaVuSans-30" x="63.623047"/>
      </g>
     </g>
    </g>
    <g id="xtick_13">
     <g id="line2d_29">
      <g>
       <use xlink:href="#mb1ed7b604c" x="371.432727" y="307.584" style="stroke: #000000; stroke-width: 0.8"/>
      </g>
     </g>
     <g id="text_29">
      <!-- 100 -->
      <g transform="translate(361.888977 322.182437)scale(0.1 -0.1)">
       <use xlink:href="#DejaVuSans-31"/>
       <use xlink:href="#DejaVuSans-30" x="63.623047"/>
       <use xlink:href="#DejaVuSans-30" x="127.246094"/>
      </g>
     </g>
    </g>
   </g>
   <g id="matplotlib.axis_4">
    <g id="ytick_5">
     <g id="line2d_30">
      <g>
       <use xlink:href="#m1a0e55465f" x="57.6" y="302.093648" style="stroke: #000000; stroke-width: 0.8"/>
      </g>
     </g>
     <g id="text_30">
      <!-- 0 -->
      <g transform="translate(44.2375 305.892866)scale(0.1 -0.1)">
       <use xlink:href="#DejaVuSans-30"/>
      </g>
     </g>
    </g>
    <g id="ytick_6">
     <g id="line2d_31">
      <g>
       <use xlink:href="#m1a0e55465f" x="57.6" y="262.94675" style="stroke: #000000; stroke-width: 0.8"/>
      </g>
     </g>
     <g id="text_31">
      <!-- 5000 -->
      <g transform="translate(25.15 266.745968)scale(0.1 -0.1)">
       <use xlink:href="#DejaVuSans-35"/>
       <use xlink:href="#DejaVuSans-30" x="63.623047"/>
       <use xlink:href="#DejaVuSans-30" x="127.246094"/>
       <use xlink:href="#DejaVuSans-30" x="190.869141"/>
      </g>
     </g>
    </g>
    <g id="ytick_7">
     <g id="line2d_32">
      <g>
       <use xlink:href="#m1a0e55465f" x="57.6" y="223.799852" style="stroke: #000000; stroke-width: 0.8"/>
      </g>
     </g>
     <g id="text_32">
      <!-- 10000 -->
      <g transform="translate(18.7875 227.59907)scale(0.1 -0.1)">
       <use xlink:href="#DejaVuSans-31"/>
       <use xlink:href="#DejaVuSans-30" x="63.623047"/>
       <use xlink:href="#DejaVuSans-30" x="127.246094"/>
       <use xlink:href="#DejaVuSans-30" x="190.869141"/>
       <use xlink:href="#DejaVuSans-30" x="254.492188"/>
      </g>
     </g>
    </g>
   </g>
   <g id="line2d_33">
    <path d="M 73.832727 302.085818 
L 76.838788 302.085818 
L 79.844848 302.085818 
L 82.850909 302.085818 
L 85.85697 302.085818 
L 88.86303 302.085818 
L 91.869091 302.085818 
L 94.875152 302.085818 
L 97.881212 302.085818 
L 100.887273 302.085818 
L 103.893333 302.085818 
L 106.899394 302.085818 
L 109.905455 302.077989 
L 112.911515 302.077989 
L 115.917576 302.070159 
L 118.923636 302.085818 
L 121.929697 302.085818 
L 124.935758 302.085818 
L 127.941818 302.077989 
L 130.947879 302.077989 
L 133.953939 302.085818 
L 136.96 302.085818 
L 139.966061 302.085818 
L 142.972121 302.070159 
L 145.978182 302.070159 
L 148.984242 302.085818 
L 151.990303 302.070159 
L 154.996364 302.046671 
L 158.002424 302.031013 
L 161.008485 302.046671 
L 164.014545 302.077989 
L 167.020606 302.046671 
L 170.026667 302.070159 
L 173.032727 302.085818 
L 176.038788 302.077989 
L 179.044848 302.031013 
L 182.050909 302.031013 
L 185.05697 302.06233 
L 188.06303 301.93706 
L 191.069091 302.077989 
L 194.075152 302.070159 
L 197.081212 302.077989 
L 200.087273 302.085818 
L 203.093333 301.858766 
L 206.099394 302.023183 
L 209.105455 301.905742 
L 212.111515 301.921401 
L 215.117576 301.93706 
L 218.123636 301.968377 
L 221.129697 301.952719 
L 224.135758 301.796131 
L 227.141818 302.031013 
L 230.147879 301.952719 
L 233.153939 301.389003 
L 236.16 301.81179 
L 239.166061 302.054501 
L 242.172121 301.968377 
L 245.178182 301.756984 
L 248.184242 302.046671 
L 251.190303 302.038842 
L 254.196364 302.031013 
L 257.202424 302.046671 
L 260.208485 300.872264 
L 263.214545 301.224586 
L 266.220606 300.065838 
L 269.226667 300.512113 
L 272.232727 301.279392 
L 275.238788 301.263733 
L 278.244848 301.93706 
L 281.250909 301.56125 
L 284.25697 301.201098 
L 287.26303 299.517782 
L 290.269091 298.390351 
L 293.275152 298.633062 
L 296.281212 302.077989 
L 299.287273 301.381174 
L 302.293333 301.357686 
L 305.299394 300.880094 
L 308.305455 299.509952 
L 311.311515 301.68652 
L 314.317576 301.036681 
L 317.323636 302.054501 
L 320.329697 300.065838 
L 323.335758 295.430846 
L 326.341818 300.825288 
L 329.347879 294.444344 
L 332.353939 297.607413 
L 335.36 301.55342 
L 338.366061 299.635222 
L 341.372121 291.71189 
L 344.378182 296.339054 
L 347.384242 285.236993 
L 350.390303 295.383869 
L 353.396364 299.870104 
L 356.402424 279.208371 
L 359.408485 301.420321 
L 362.414545 277.344979 
L 365.420606 299.807469 
L 368.426667 296.754011 
L 371.432727 298.617403 
L 374.438788 301.357686 
L 377.444848 300.574748 
L 380.450909 298.233763 
L 383.45697 289.06556 
L 386.46303 280.680294 
L 389.469091 273.305019 
L 392.475152 282.927326 
L 395.481212 243.388959 
L 398.487273 192.122182 
" clip-path="url(#pb015bee151)" style="fill: none; stroke: #1f77b4; stroke-width: 1.5; stroke-linecap: square"/>
   </g>
   <g id="patch_8">
    <path d="M 57.6 307.584 
L 57.6 186.624 
" style="fill: none; stroke: #000000; stroke-width: 0.8; stroke-linejoin: miter; stroke-linecap: square"/>
   </g>
   <g id="patch_9">
    <path d="M 414.72 307.584 
L 414.72 186.624 
" style="fill: none; stroke: #000000; stroke-width: 0.8; stroke-linejoin: miter; stroke-linecap: square"/>
   </g>
   <g id="patch_10">
    <path d="M 57.6 307.584 
L 414.72 307.584 
" style="fill: none; stroke: #000000; stroke-width: 0.8; stroke-linejoin: miter; stroke-linecap: square"/>
   </g>
   <g id="patch_11">
    <path d="M 57.6 186.624 
L 414.72 186.624 
" style="fill: none; stroke: #000000; stroke-width: 0.8; stroke-linejoin: miter; stroke-linecap: square"/>
   </g>
  </g>
 </g>
 <defs>
  <clipPath id="p653f7dd14c">
   <rect x="57.6" y="41.472" width="357.12" height="120.96"/>
  </clipPath>
  <clipPath id="pb015bee151">
   <rect x="57.6" y="186.624" width="357.12" height="120.96"/>
  </clipPath>
 </defs>
</svg>
