<?xml version="1.0" encoding="utf-8" standalone="no"?>
<!DOCTYPE svg PUBLIC "-//W3C//DTD SVG 1.1//EN"
  "http://www.w3.org/Graphics/SVG/1.1/DTD/svg11.dtd">
<svg xmlns:xlink="http://www.w3.org/1999/xlink" width="460.8pt" height="345.6pt" viewBox="0 0 460.8 345.6" xmlns="http://www.w3.org/2000/svg" version="1.1">
 <metadata>
  <rdf:RDF xmlns:dc="http://purl.org/dc/elements/1.1/" xmlns:cc="http://creativecommons.org/ns#" xmlns:rdf="http://www.w3.org/1999/02/22-rdf-syntax-ns#">
   <cc:Work>
    <dc:type rdf:resource="http://purl.org/dc/dcmitype/StillImage"/>
    <dc:date>2022-05-13T17:09:19.953971</dc:date>
    <dc:format>image/svg+xml</dc:format>
    <dc:creator>
     <cc:Agent>
      <dc:title>Matplotlib v3.5.1, https://matplotlib.org/</dc:title>
     </cc:Agent>
    </dc:creator>
   </cc:Work>
  </rdf:RDF>
 </metadata>
 <defs>
  <style type="text/css">*{stroke-linejoin: round; stroke-linecap: butt}</style>
 </defs>
 <g id="figure_1">
  <g id="patch_1">
   <path d="M 0 345.6 
L 460.8 345.6 
L 460.8 0 
L 0 0 
z
" style="fill: #ffffff"/>
  </g>
  <g id="axes_1">
   <g id="patch_2">
    <path d="M 57.6 162.432 
L 414.72 162.432 
L 414.72 41.472 
L 57.6 41.472 
z
" style="fill: #ffffff"/>
   </g>
   <g id="matplotlib.axis_1">
    <g id="xtick_1">
     <g id="line2d_1">
      <defs>
       <path id="m939995d6cf" d="M 0 0 
L 0 3.5 
" style="stroke: #000000; stroke-width: 0.8"/>
      </defs>
      <g>
       <use xlink:href="#m939995d6cf" x="73.827491" y="162.432" style="stroke: #000000; stroke-width: 0.8"/>
      </g>
     </g>
     <g id="text_1">
      <!-- 0 -->
      <g transform="translate(70.646241 177.030437)scale(0.1 -0.1)">
       <defs>
        <path id="DejaVuSans-30" d="M 2034 4250 
Q 1547 4250 1301 3770 
Q 1056 3291 1056 2328 
Q 1056 1369 1301 889 
Q 1547 409 2034 409 
Q 2525 409 2770 889 
Q 3016 1369 3016 2328 
Q 3016 3291 2770 3770 
Q 2525 4250 2034 4250 
z
M 2034 4750 
Q 2819 4750 3233 4129 
Q 3647 3509 3647 2328 
Q 3647 1150 3233 529 
Q 2819 -91 2034 -91 
Q 1250 -91 836 529 
Q 422 1150 422 2328 
Q 422 3509 836 4129 
Q 1250 4750 2034 4750 
z
" transform="scale(0.015625)"/>
       </defs>
       <use xlink:href="#DejaVuSans-30"/>
      </g>
     </g>
    </g>
    <g id="xtick_2">
     <g id="line2d_2">
      <g>
       <use xlink:href="#m939995d6cf" x="126.191972" y="162.432" style="stroke: #000000; stroke-width: 0.8"/>
      </g>
     </g>
     <g id="text_2">
      <!-- 10000 -->
      <g transform="translate(110.285722 177.030437)scale(0.1 -0.1)">
       <defs>
        <path id="DejaVuSans-31" d="M 794 531 
L 1825 531 
L 1825 4091 
L 703 3866 
L 703 4441 
L 1819 4666 
L 2450 4666 
L 2450 531 
L 3481 531 
L 3481 0 
L 794 0 
L 794 531 
z
" transform="scale(0.015625)"/>
       </defs>
       <use xlink:href="#DejaVuSans-31"/>
       <use xlink:href="#DejaVuSans-30" x="63.623047"/>
       <use xlink:href="#DejaVuSans-30" x="127.246094"/>
       <use xlink:href="#DejaVuSans-30" x="190.869141"/>
       <use xlink:href="#DejaVuSans-30" x="254.492188"/>
      </g>
     </g>
    </g>
    <g id="xtick_3">
     <g id="line2d_3">
      <g>
       <use xlink:href="#m939995d6cf" x="178.556453" y="162.432" style="stroke: #000000; stroke-width: 0.8"/>
      </g>
     </g>
     <g id="text_3">
      <!-- 20000 -->
      <g transform="translate(162.650203 177.030437)scale(0.1 -0.1)">
       <defs>
        <path id="DejaVuSans-32" d="M 1228 531 
L 3431 531 
L 3431 0 
L 469 0 
L 469 531 
Q 828 903 1448 1529 
Q 2069 2156 2228 2338 
Q 2531 2678 2651 2914 
Q 2772 3150 2772 3378 
Q 2772 3750 2511 3984 
Q 2250 4219 1831 4219 
Q 1534 4219 1204 4116 
Q 875 4013 500 3803 
L 500 4441 
Q 881 4594 1212 4672 
Q 1544 4750 1819 4750 
Q 2544 4750 2975 4387 
Q 3406 4025 3406 3419 
Q 3406 3131 3298 2873 
Q 3191 2616 2906 2266 
Q 2828 2175 2409 1742 
Q 1991 1309 1228 531 
z
" transform="scale(0.015625)"/>
       </defs>
       <use xlink:href="#DejaVuSans-32"/>
       <use xlink:href="#DejaVuSans-30" x="63.623047"/>
       <use xlink:href="#DejaVuSans-30" x="127.246094"/>
       <use xlink:href="#DejaVuSans-30" x="190.869141"/>
       <use xlink:href="#DejaVuSans-30" x="254.492188"/>
      </g>
     </g>
    </g>
    <g id="xtick_4">
     <g id="line2d_4">
      <g>
       <use xlink:href="#m939995d6cf" x="230.920934" y="162.432" style="stroke: #000000; stroke-width: 0.8"/>
      </g>
     </g>
     <g id="text_4">
      <!-- 30000 -->
      <g transform="translate(215.014684 177.030437)scale(0.1 -0.1)">
       <defs>
        <path id="DejaVuSans-33" d="M 2597 2516 
Q 3050 2419 3304 2112 
Q 3559 1806 3559 1356 
Q 3559 666 3084 287 
Q 2609 -91 1734 -91 
Q 1441 -91 1130 -33 
Q 819 25 488 141 
L 488 750 
Q 750 597 1062 519 
Q 1375 441 1716 441 
Q 2309 441 2620 675 
Q 2931 909 2931 1356 
Q 2931 1769 2642 2001 
Q 2353 2234 1838 2234 
L 1294 2234 
L 1294 2753 
L 1863 2753 
Q 2328 2753 2575 2939 
Q 2822 3125 2822 3475 
Q 2822 3834 2567 4026 
Q 2313 4219 1838 4219 
Q 1578 4219 1281 4162 
Q 984 4106 628 3988 
L 628 4550 
Q 988 4650 1302 4700 
Q 1616 4750 1894 4750 
Q 2613 4750 3031 4423 
Q 3450 4097 3450 3541 
Q 3450 3153 3228 2886 
Q 3006 2619 2597 2516 
z
" transform="scale(0.015625)"/>
       </defs>
       <use xlink:href="#DejaVuSans-33"/>
       <use xlink:href="#DejaVuSans-30" x="63.623047"/>
       <use xlink:href="#DejaVuSans-30" x="127.246094"/>
       <use xlink:href="#DejaVuSans-30" x="190.869141"/>
       <use xlink:href="#DejaVuSans-30" x="254.492188"/>
      </g>
     </g>
    </g>
    <g id="xtick_5">
     <g id="line2d_5">
      <g>
       <use xlink:href="#m939995d6cf" x="283.285415" y="162.432" style="stroke: #000000; stroke-width: 0.8"/>
      </g>
     </g>
     <g id="text_5">
      <!-- 40000 -->
      <g transform="translate(267.379165 177.030437)scale(0.1 -0.1)">
       <defs>
        <path id="DejaVuSans-34" d="M 2419 4116 
L 825 1625 
L 2419 1625 
L 2419 4116 
z
M 2253 4666 
L 3047 4666 
L 3047 1625 
L 3713 1625 
L 3713 1100 
L 3047 1100 
L 3047 0 
L 2419 0 
L 2419 1100 
L 313 1100 
L 313 1709 
L 2253 4666 
z
" transform="scale(0.015625)"/>
       </defs>
       <use xlink:href="#DejaVuSans-34"/>
       <use xlink:href="#DejaVuSans-30" x="63.623047"/>
       <use xlink:href="#DejaVuSans-30" x="127.246094"/>
       <use xlink:href="#DejaVuSans-30" x="190.869141"/>
       <use xlink:href="#DejaVuSans-30" x="254.492188"/>
      </g>
     </g>
    </g>
    <g id="xtick_6">
     <g id="line2d_6">
      <g>
       <use xlink:href="#m939995d6cf" x="335.649896" y="162.432" style="stroke: #000000; stroke-width: 0.8"/>
      </g>
     </g>
     <g id="text_6">
      <!-- 50000 -->
      <g transform="translate(319.743646 177.030437)scale(0.1 -0.1)">
       <defs>
        <path id="DejaVuSans-35" d="M 691 4666 
L 3169 4666 
L 3169 4134 
L 1269 4134 
L 1269 2991 
Q 1406 3038 1543 3061 
Q 1681 3084 1819 3084 
Q 2600 3084 3056 2656 
Q 3513 2228 3513 1497 
Q 3513 744 3044 326 
Q 2575 -91 1722 -91 
Q 1428 -91 1123 -41 
Q 819 9 494 109 
L 494 744 
Q 775 591 1075 516 
Q 1375 441 1709 441 
Q 2250 441 2565 725 
Q 2881 1009 2881 1497 
Q 2881 1984 2565 2268 
Q 2250 2553 1709 2553 
Q 1456 2553 1204 2497 
Q 953 2441 691 2322 
L 691 4666 
z
" transform="scale(0.015625)"/>
       </defs>
       <use xlink:href="#DejaVuSans-35"/>
       <use xlink:href="#DejaVuSans-30" x="63.623047"/>
       <use xlink:href="#DejaVuSans-30" x="127.246094"/>
       <use xlink:href="#DejaVuSans-30" x="190.869141"/>
       <use xlink:href="#DejaVuSans-30" x="254.492188"/>
      </g>
     </g>
    </g>
    <g id="xtick_7">
     <g id="line2d_7">
      <g>
       <use xlink:href="#m939995d6cf" x="388.014377" y="162.432" style="stroke: #000000; stroke-width: 0.8"/>
      </g>
     </g>
     <g id="text_7">
      <!-- 60000 -->
      <g transform="translate(372.108127 177.030437)scale(0.1 -0.1)">
       <defs>
        <path id="DejaVuSans-36" d="M 2113 2584 
Q 1688 2584 1439 2293 
Q 1191 2003 1191 1497 
Q 1191 994 1439 701 
Q 1688 409 2113 409 
Q 2538 409 2786 701 
Q 3034 994 3034 1497 
Q 3034 2003 2786 2293 
Q 2538 2584 2113 2584 
z
M 3366 4563 
L 3366 3988 
Q 3128 4100 2886 4159 
Q 2644 4219 2406 4219 
Q 1781 4219 1451 3797 
Q 1122 3375 1075 2522 
Q 1259 2794 1537 2939 
Q 1816 3084 2150 3084 
Q 2853 3084 3261 2657 
Q 3669 2231 3669 1497 
Q 3669 778 3244 343 
Q 2819 -91 2113 -91 
Q 1303 -91 875 529 
Q 447 1150 447 2328 
Q 447 3434 972 4092 
Q 1497 4750 2381 4750 
Q 2619 4750 2861 4703 
Q 3103 4656 3366 4563 
z
" transform="scale(0.015625)"/>
       </defs>
       <use xlink:href="#DejaVuSans-36"/>
       <use xlink:href="#DejaVuSans-30" x="63.623047"/>
       <use xlink:href="#DejaVuSans-30" x="127.246094"/>
       <use xlink:href="#DejaVuSans-30" x="190.869141"/>
       <use xlink:href="#DejaVuSans-30" x="254.492188"/>
      </g>
     </g>
    </g>
   </g>
   <g id="matplotlib.axis_2">
    <g id="ytick_1">
     <g id="line2d_8">
      <defs>
       <path id="me35d0321be" d="M 0 0 
L -3.5 0 
" style="stroke: #000000; stroke-width: 0.8"/>
      </defs>
      <g>
       <use xlink:href="#me35d0321be" x="57.6" y="141.419364" style="stroke: #000000; stroke-width: 0.8"/>
      </g>
     </g>
     <g id="text_8">
      <!-- 70 -->
      <g transform="translate(37.875 145.218583)scale(0.1 -0.1)">
       <defs>
        <path id="DejaVuSans-37" d="M 525 4666 
L 3525 4666 
L 3525 4397 
L 1831 0 
L 1172 0 
L 2766 4134 
L 525 4134 
L 525 4666 
z
" transform="scale(0.015625)"/>
       </defs>
       <use xlink:href="#DejaVuSans-37"/>
       <use xlink:href="#DejaVuSans-30" x="63.623047"/>
      </g>
     </g>
    </g>
    <g id="ytick_2">
     <g id="line2d_9">
      <g>
       <use xlink:href="#me35d0321be" x="57.6" y="115.049188" style="stroke: #000000; stroke-width: 0.8"/>
      </g>
     </g>
     <g id="text_9">
      <!-- 80 -->
      <g transform="translate(37.875 118.848406)scale(0.1 -0.1)">
       <defs>
        <path id="DejaVuSans-38" d="M 2034 2216 
Q 1584 2216 1326 1975 
Q 1069 1734 1069 1313 
Q 1069 891 1326 650 
Q 1584 409 2034 409 
Q 2484 409 2743 651 
Q 3003 894 3003 1313 
Q 3003 1734 2745 1975 
Q 2488 2216 2034 2216 
z
M 1403 2484 
Q 997 2584 770 2862 
Q 544 3141 544 3541 
Q 544 4100 942 4425 
Q 1341 4750 2034 4750 
Q 2731 4750 3128 4425 
Q 3525 4100 3525 3541 
Q 3525 3141 3298 2862 
Q 3072 2584 2669 2484 
Q 3125 2378 3379 2068 
Q 3634 1759 3634 1313 
Q 3634 634 3220 271 
Q 2806 -91 2034 -91 
Q 1263 -91 848 271 
Q 434 634 434 1313 
Q 434 1759 690 2068 
Q 947 2378 1403 2484 
z
M 1172 3481 
Q 1172 3119 1398 2916 
Q 1625 2713 2034 2713 
Q 2441 2713 2670 2916 
Q 2900 3119 2900 3481 
Q 2900 3844 2670 4047 
Q 2441 4250 2034 4250 
Q 1625 4250 1398 4047 
Q 1172 3844 1172 3481 
z
" transform="scale(0.015625)"/>
       </defs>
       <use xlink:href="#DejaVuSans-38"/>
       <use xlink:href="#DejaVuSans-30" x="63.623047"/>
      </g>
     </g>
    </g>
    <g id="ytick_3">
     <g id="line2d_10">
      <g>
       <use xlink:href="#me35d0321be" x="57.6" y="88.679011" style="stroke: #000000; stroke-width: 0.8"/>
      </g>
     </g>
     <g id="text_10">
      <!-- 90 -->
      <g transform="translate(37.875 92.47823)scale(0.1 -0.1)">
       <defs>
        <path id="DejaVuSans-39" d="M 703 97 
L 703 672 
Q 941 559 1184 500 
Q 1428 441 1663 441 
Q 2288 441 2617 861 
Q 2947 1281 2994 2138 
Q 2813 1869 2534 1725 
Q 2256 1581 1919 1581 
Q 1219 1581 811 2004 
Q 403 2428 403 3163 
Q 403 3881 828 4315 
Q 1253 4750 1959 4750 
Q 2769 4750 3195 4129 
Q 3622 3509 3622 2328 
Q 3622 1225 3098 567 
Q 2575 -91 1691 -91 
Q 1453 -91 1209 -44 
Q 966 3 703 97 
z
M 1959 2075 
Q 2384 2075 2632 2365 
Q 2881 2656 2881 3163 
Q 2881 3666 2632 3958 
Q 2384 4250 1959 4250 
Q 1534 4250 1286 3958 
Q 1038 3666 1038 3163 
Q 1038 2656 1286 2365 
Q 1534 2075 1959 2075 
z
" transform="scale(0.015625)"/>
       </defs>
       <use xlink:href="#DejaVuSans-39"/>
       <use xlink:href="#DejaVuSans-30" x="63.623047"/>
      </g>
     </g>
    </g>
    <g id="ytick_4">
     <g id="line2d_11">
      <g>
       <use xlink:href="#me35d0321be" x="57.6" y="62.308835" style="stroke: #000000; stroke-width: 0.8"/>
      </g>
     </g>
     <g id="text_11">
      <!-- 100 -->
      <g transform="translate(31.5125 66.108053)scale(0.1 -0.1)">
       <use xlink:href="#DejaVuSans-31"/>
       <use xlink:href="#DejaVuSans-30" x="63.623047"/>
       <use xlink:href="#DejaVuSans-30" x="127.246094"/>
      </g>
     </g>
    </g>
   </g>
   <g id="line2d_12">
    <path d="M 73.832727 64.945852 
L 73.85891 64.945852 
L 73.93222 76.153177 
L 73.984584 74.395165 
L 73.989821 74.395165 
L 74.125968 88.898763 
L 74.162624 88.898763 
L 74.16786 87.580254 
L 74.246407 92.854289 
L 74.25688 92.854289 
L 74.387791 103.40236 
L 74.487283 103.40236 
L 74.618194 113.95043 
L 74.628667 113.95043 
L 74.749106 119.224466 
L 74.87478 119.224466 
L 74.989982 121.861483 
L 75.131366 121.861483 
L 75.257041 120.015571 
L 75.372243 122.652589 
L 75.545046 122.652589 
L 75.660248 121.33408 
L 75.728321 121.33408 
L 75.843523 123.971097 
L 75.885415 123.971097 
L 75.916834 122.652589 
L 75.92207 125.289606 
L 75.990144 125.289606 
L 76.136764 125.289606 
L 76.251966 127.926624 
L 76.859394 127.926624 
L 76.974596 126.608115 
L 77.079325 126.608115 
L 77.194527 129.245133 
L 79.241978 129.245133 
L 79.35718 131.88215 
L 80.71342 131.88215 
L 80.828622 134.519168 
L 81.959695 134.519168 
L 82.074897 137.156186 
L 86.347838 137.156186 
L 86.46304 139.793203 
L 90.180918 139.793203 
L 90.29612 142.430221 
L 101.989109 142.430221 
L 102.104311 145.067239 
L 109.634323 145.067239 
L 109.749525 147.704256 
L 121.547242 147.704256 
L 121.662444 150.341274 
L 138.974142 150.341274 
L 139.089343 149.022765 
L 171.581504 149.022765 
L 171.696706 151.659783 
L 184.384619 151.659783 
L 184.499821 154.296801 
L 194.124413 154.296801 
L 194.239615 156.933818 
L 195.187412 156.933818 
L 195.302614 155.615309 
L 398.487273 155.615309 
L 398.487273 155.615309 
" clip-path="url(#pe1d2b2c38a)" style="fill: none; stroke: #1f77b4; stroke-width: 1.5; stroke-linecap: square"/>
   </g>
   <g id="line2d_13">
    <path d="M 73.832727 61.429829 
L 73.848437 61.429829 
L 73.963638 75.274171 
L 73.979348 74.395165 
L 74.031712 70.879142 
L 74.084077 73.51616 
L 74.209752 81.427213 
L 74.24117 81.427213 
L 74.304008 84.06423 
L 74.351136 81.427213 
L 74.424446 81.427213 
L 74.487283 86.701248 
L 74.539648 84.06423 
L 74.785761 84.06423 
L 74.87478 89.338266 
L 74.900963 88.45926 
L 75.016165 85.822242 
L 75.188967 85.822242 
L 75.304169 84.503733 
L 75.346061 84.503733 
L 75.461263 87.140751 
L 86.347838 87.140751 
L 86.46304 89.777768 
L 171.581504 89.777768 
L 171.696706 92.414786 
L 398.487273 92.414786 
L 398.487273 92.414786 
" clip-path="url(#pe1d2b2c38a)" style="fill: none; stroke: #ff7f0e; stroke-width: 1.5; stroke-linecap: square"/>
   </g>
   <g id="line2d_14">
    <path d="M 73.832727 64.945852 
L 73.874619 61.210077 
L 73.890328 66.484112 
L 73.926983 66.484112 
L 74.063131 81.427213 
L 74.16786 69.560633 
L 74.209752 72.197651 
L 74.24117 72.197651 
L 74.356372 74.834668 
L 74.413973 74.834668 
L 74.539648 66.923615 
L 74.555357 66.923615 
L 74.675795 72.197651 
L 74.87478 72.197651 
L 74.989982 74.834668 
L 75.131366 74.834668 
L 75.162785 77.471686 
L 75.241332 74.834668 
L 75.257041 74.834668 
L 75.372243 77.471686 
L 75.545046 77.471686 
L 75.660248 76.153177 
L 75.885415 76.153177 
L 75.916834 74.834668 
L 75.92207 77.471686 
L 75.990144 77.471686 
L 76.859394 77.471686 
L 76.869867 76.153177 
L 76.875104 78.790195 
L 76.964123 78.790195 
L 78.576949 78.790195 
L 78.692151 76.153177 
L 79.241978 76.153177 
L 79.35718 78.790195 
L 79.477618 78.790195 
L 79.59282 76.153177 
L 81.326084 76.153177 
L 81.441286 73.51616 
L 81.959695 73.51616 
L 82.074897 76.153177 
L 90.180918 76.153177 
L 90.29612 78.790195 
L 90.85642 78.790195 
L 90.971622 76.153177 
L 99.31852 76.153177 
L 99.433722 73.51616 
L 108.660344 73.51616 
L 108.775545 76.153177 
L 121.547242 76.153177 
L 121.662444 78.790195 
L 127.228788 78.790195 
L 127.34399 76.153177 
L 138.974142 76.153177 
L 139.089343 74.834668 
L 194.124413 74.834668 
L 194.239615 77.471686 
L 195.187412 77.471686 
L 195.302614 76.153177 
L 398.487273 76.153177 
L 398.487273 76.153177 
" clip-path="url(#pe1d2b2c38a)" style="fill: none; stroke: #2ca02c; stroke-width: 1.5; stroke-linecap: square"/>
   </g>
   <g id="line2d_15">
    <path d="M 73.832727 62.308835 
L 73.953166 60.243171 
L 74.00553 60.243171 
L 74.120732 64.6382 
L 74.141678 64.6382 
L 74.262116 69.912235 
L 74.283062 69.912235 
L 74.309244 72.549253 
L 74.393027 71.889999 
L 74.413973 71.889999 
L 74.539648 79.801052 
L 74.56583 79.801052 
L 74.649613 82.438069 
L 74.675795 81.559063 
L 75.131366 81.559063 
L 75.162785 81.03166 
L 75.168022 83.668678 
L 75.220386 83.668678 
L 75.309406 83.668678 
L 75.429844 88.942713 
L 75.728321 88.942713 
L 75.843523 91.579731 
L 76.869867 91.579731 
L 76.985069 90.700725 
L 77.079325 90.700725 
L 77.194527 93.337742 
L 79.477618 93.337742 
L 79.59282 95.97476 
L 81.326084 95.97476 
L 81.441286 98.611778 
L 82.656142 98.611778 
L 82.771344 97.732772 
L 90.85642 97.732772 
L 90.914021 100.369789 
L 90.966385 99.490784 
L 99.08288 99.490784 
L 99.198082 102.127801 
L 108.660344 102.127801 
L 108.775545 101.248795 
L 122.102306 101.248795 
L 122.217508 103.885813 
L 127.228788 103.885813 
L 127.34399 106.522831 
L 398.487273 106.522831 
L 398.487273 106.522831 
" clip-path="url(#pe1d2b2c38a)" style="fill: none; stroke: #d62728; stroke-width: 1.5; stroke-linecap: square"/>
   </g>
   <g id="line2d_16">
    <path d="M 73.832727 62.308835 
L 73.885092 62.308835 
L 74.000294 64.945852 
L 75.346061 64.945852 
L 75.461263 67.58287 
L 398.487273 67.58287 
L 398.487273 67.58287 
" clip-path="url(#pe1d2b2c38a)" style="fill: none; stroke: #9467bd; stroke-width: 1.5; stroke-linecap: square"/>
   </g>
   <g id="line2d_17">
    <path d="M 73.832727 62.308835 
L 73.8432 62.308835 
L 73.958402 66.264361 
L 74.00553 66.264361 
L 74.131205 75.493923 
L 74.16786 75.493923 
L 74.283062 78.13094 
L 74.309244 78.13094 
L 74.424446 80.767958 
L 74.555357 80.767958 
L 74.675795 86.041993 
L 74.87478 86.041993 
L 74.989982 88.679011 
L 75.131366 88.679011 
L 75.246568 91.316029 
L 75.257041 91.316029 
L 75.372243 93.953046 
L 75.916834 93.953046 
L 76.032035 96.590064 
L 76.869867 96.590064 
L 76.985069 99.227082 
L 79.241978 99.227082 
L 79.35718 101.864099 
L 81.959695 101.864099 
L 82.074897 104.501117 
L 90.180918 104.501117 
L 90.29612 107.138135 
L 108.660344 107.138135 
L 108.775545 109.775152 
L 121.547242 109.775152 
L 121.662444 112.41217 
L 194.124413 112.41217 
L 194.239615 115.049188 
L 398.487273 115.049188 
L 398.487273 115.049188 
" clip-path="url(#pe1d2b2c38a)" style="fill: none; stroke: #8c564b; stroke-width: 1.5; stroke-linecap: square"/>
   </g>
   <g id="line2d_18">
    <path d="M 73.832727 62.308835 
L 73.8432 62.308835 
L 73.885092 60.243171 
L 73.890328 62.880188 
L 73.958402 61.56168 
L 74.00553 61.56168 
L 74.125968 60.243171 
L 74.466337 60.243171 
L 74.581539 57.606153 
L 75.309406 57.606153 
L 75.424607 55.408638 
L 82.656142 55.408638 
L 82.771344 54.529632 
L 106.288233 54.529632 
L 106.403434 51.892615 
L 398.487273 51.892615 
L 398.487273 51.892615 
" clip-path="url(#pe1d2b2c38a)" style="fill: none; stroke: #e377c2; stroke-width: 1.5; stroke-linecap: square"/>
   </g>
   <g id="line2d_19">
    <path d="M 73.832727 62.308835 
L 73.8432 61.429829 
L 73.869382 69.340882 
L 73.906038 68.461876 
L 73.921747 68.461876 
L 74.036949 73.076657 
L 74.057895 73.076657 
L 74.173096 75.713674 
L 74.466337 75.713674 
L 74.56583 78.350692 
L 74.576303 77.032183 
L 75.309406 77.032183 
L 75.424607 80.98771 
L 75.728321 80.98771 
L 75.843523 79.669201 
L 77.079325 79.669201 
L 77.194527 78.350692 
L 82.656142 78.350692 
L 82.771344 80.98771 
L 99.08288 80.98771 
L 99.198082 79.669201 
L 106.288233 79.669201 
L 106.403434 82.306218 
L 122.102306 82.306218 
L 122.217508 80.98771 
L 398.487273 80.98771 
L 398.487273 80.98771 
" clip-path="url(#pe1d2b2c38a)" style="fill: none; stroke: #7f7f7f; stroke-width: 1.5; stroke-linecap: square"/>
   </g>
   <g id="line2d_20">
    <path d="M 73.832727 61.429829 
L 73.979348 79.5813 
L 73.989821 79.5813 
L 74.010767 78.262791 
L 74.031712 82.657821 
L 74.063131 81.559063 
L 74.16786 93.425643 
L 74.194042 92.107134 
L 74.24117 92.107134 
L 74.283062 89.909619 
L 74.288298 92.546637 
L 74.351136 91.887383 
L 74.413973 91.887383 
L 74.539648 99.798436 
L 74.555357 99.798436 
L 74.571066 101.556447 
L 74.670559 98.479927 
L 74.738633 98.479927 
L 74.853835 97.161418 
L 74.87478 97.161418 
L 74.989982 96.282412 
L 75.05282 96.282412 
L 75.173258 101.029044 
L 75.257041 101.029044 
L 75.28846 99.710535 
L 75.314642 104.98457 
L 75.340824 104.98457 
L 75.461263 110.258606 
L 75.545046 110.258606 
L 75.660248 112.895623 
L 75.728321 112.895623 
L 75.843523 115.532641 
L 75.885415 115.532641 
L 75.916834 118.169659 
L 75.99538 116.85115 
L 76.136764 116.85115 
L 76.251966 115.532641 
L 76.859394 115.532641 
L 76.869867 118.169659 
L 76.96936 117.290653 
L 77.079325 117.290653 
L 77.194527 119.92767 
L 78.576949 119.92767 
L 78.692151 122.564688 
L 79.241978 122.564688 
L 79.35718 121.246179 
L 79.477618 121.246179 
L 79.59282 123.883197 
L 80.71342 123.883197 
L 80.828622 122.564688 
L 81.326084 122.564688 
L 81.441286 125.201706 
L 81.959695 125.201706 
L 82.074897 123.883197 
L 82.656142 123.883197 
L 82.771344 126.520215 
L 90.180918 126.520215 
L 90.29612 125.641209 
L 90.85642 125.641209 
L 90.914021 128.278226 
L 90.966385 127.39922 
L 99.08288 127.39922 
L 99.198082 130.036238 
L 99.31852 130.036238 
L 99.433722 132.673256 
L 101.989109 132.673256 
L 102.104311 131.354747 
L 108.660344 131.354747 
L 108.775545 130.475741 
L 109.634323 130.475741 
L 109.749525 129.157232 
L 121.547242 129.157232 
L 121.662444 127.838723 
L 122.102306 127.838723 
L 122.217508 130.475741 
L 127.228788 130.475741 
L 127.34399 133.112759 
L 138.974142 133.112759 
L 139.089343 135.749776 
L 184.384619 135.749776 
L 184.499821 134.431267 
L 194.124413 134.431267 
L 194.239615 133.112759 
L 195.187412 133.112759 
L 195.302614 135.749776 
L 398.487273 135.749776 
L 398.487273 135.749776 
" clip-path="url(#pe1d2b2c38a)" style="fill: none; stroke: #bcbd22; stroke-width: 1.5; stroke-linecap: square"/>
   </g>
   <g id="line2d_21">
    <path d="M 73.832727 61.429829 
L 73.837964 61.429829 
L 73.984584 79.5813 
L 73.989821 79.5813 
L 74.026476 77.383785 
L 74.052658 81.778815 
L 74.063131 81.11956 
L 74.194042 92.98614 
L 74.24117 92.98614 
L 74.283062 90.788625 
L 74.288298 93.425643 
L 74.351136 92.766388 
L 74.413973 92.766388 
L 74.539648 100.677441 
L 74.555357 100.677441 
L 74.696741 95.403406 
L 74.738633 95.403406 
L 74.853835 94.084897 
L 75.05282 94.084897 
L 75.162785 90.920476 
L 75.277987 93.557494 
L 75.28846 93.557494 
L 75.309406 96.194511 
L 75.351297 92.678488 
L 75.393189 92.678488 
L 75.545046 92.678488 
L 75.660248 95.315506 
L 75.728321 95.315506 
L 75.843523 93.996997 
L 75.885415 93.996997 
L 76.000617 96.634014 
L 76.136764 96.634014 
L 76.251966 95.315506 
L 76.859394 95.315506 
L 76.974596 97.952523 
L 77.079325 97.952523 
L 77.194527 96.634014 
L 78.576949 96.634014 
L 78.692151 99.271032 
L 79.477618 99.271032 
L 79.59282 101.90805 
L 80.71342 101.90805 
L 80.828622 100.589541 
L 81.326084 100.589541 
L 81.441286 103.226559 
L 82.656142 103.226559 
L 82.771344 102.347553 
L 90.180918 102.347553 
L 90.29612 101.468547 
L 90.85642 101.468547 
L 90.914021 104.105564 
L 90.966385 103.226559 
L 99.08288 103.226559 
L 99.198082 101.90805 
L 99.31852 101.90805 
L 99.433722 104.545067 
L 101.989109 104.545067 
L 102.104311 103.226559 
L 109.634323 103.226559 
L 109.749525 101.90805 
L 122.102306 101.90805 
L 122.217508 100.589541 
L 127.228788 100.589541 
L 127.34399 103.226559 
L 138.974142 103.226559 
L 139.089343 105.863576 
L 184.384619 105.863576 
L 184.499821 104.545067 
L 195.187412 104.545067 
L 195.302614 107.182085 
L 398.487273 107.182085 
L 398.487273 107.182085 
" clip-path="url(#pe1d2b2c38a)" style="fill: none; stroke: #17becf; stroke-width: 1.5; stroke-linecap: square"/>
   </g>
   <g id="line2d_22">
    <path d="M 73.832727 62.308835 
L 73.8432 62.308835 
L 73.869382 61.781431 
L 73.874619 64.418449 
L 73.937456 63.539443 
L 74.00553 63.539443 
L 74.016003 65.517206 
L 74.120732 62.660437 
L 74.16786 62.660437 
L 74.283062 61.341928 
L 74.309244 61.341928 
L 74.424446 60.682674 
L 74.555357 60.682674 
L 74.675795 58.924662 
L 74.87478 58.924662 
L 74.989982 58.045656 
L 75.131366 58.045656 
L 75.246568 57.518252 
L 75.257041 57.518252 
L 75.372243 56.199744 
L 75.916834 56.199744 
L 76.032035 54.881235 
L 76.869867 54.881235 
L 76.985069 54.002229 
L 79.241978 54.002229 
L 79.35718 52.68372 
L 81.959695 52.68372 
L 82.074897 51.365211 
L 90.180918 51.365211 
L 90.29612 50.486205 
L 108.660344 50.486205 
L 108.775545 49.607199 
L 121.547242 49.607199 
L 121.662444 48.288691 
L 194.124413 48.288691 
L 194.239615 46.970182 
L 398.487273 46.970182 
L 398.487273 46.970182 
" clip-path="url(#pe1d2b2c38a)" style="fill: none; stroke: #1f77b4; stroke-width: 1.5; stroke-linecap: square"/>
   </g>
   <g id="line2d_23">
    <path d="M 73.832727 64.945852 
L 73.953166 80.108704 
L 73.968875 78.790195 
L 73.979348 78.790195 
L 74.120732 94.392549 
L 74.162624 94.392549 
L 74.25688 92.195035 
L 74.262116 94.832052 
L 74.267352 94.832052 
L 74.382554 97.46907 
L 74.424446 97.46907 
L 74.487283 92.195035 
L 74.539648 94.832052 
L 74.628667 94.832052 
L 74.754342 102.743105 
L 74.785761 102.743105 
L 74.87478 97.46907 
L 74.900963 100.106088 
L 75.016165 102.743105 
L 75.188967 102.743105 
L 75.309406 108.017141 
L 75.346061 108.017141 
L 75.461263 107.138135 
L 75.545046 107.138135 
L 75.660248 109.775152 
L 75.885415 109.775152 
L 76.000617 112.41217 
L 76.136764 112.41217 
L 76.251966 115.049188 
L 76.859394 115.049188 
L 76.974596 117.686205 
L 78.576949 117.686205 
L 78.692151 120.323223 
L 80.71342 120.323223 
L 80.828622 122.960241 
L 86.347838 122.960241 
L 86.46304 120.323223 
L 90.914021 120.323223 
L 91.029223 122.960241 
L 99.31852 122.960241 
L 99.433722 125.597258 
L 101.989109 125.597258 
L 102.104311 128.234276 
L 109.634323 128.234276 
L 109.749525 130.871294 
L 138.974142 130.871294 
L 139.089343 133.508311 
L 171.581504 133.508311 
L 171.696706 130.871294 
L 184.384619 130.871294 
L 184.499821 133.508311 
L 195.187412 133.508311 
L 195.302614 136.145329 
L 398.487273 136.145329 
L 398.487273 136.145329 
" clip-path="url(#pe1d2b2c38a)" style="fill: none; stroke: #ff7f0e; stroke-width: 1.5; stroke-linecap: square"/>
   </g>
   <g id="patch_3">
    <path d="M 57.6 162.432 
L 57.6 41.472 
" style="fill: none; stroke: #000000; stroke-width: 0.8; stroke-linejoin: miter; stroke-linecap: square"/>
   </g>
   <g id="patch_4">
    <path d="M 414.72 162.432 
L 414.72 41.472 
" style="fill: none; stroke: #000000; stroke-width: 0.8; stroke-linejoin: miter; stroke-linecap: square"/>
   </g>
   <g id="patch_5">
    <path d="M 57.6 162.432 
L 414.72 162.432 
" style="fill: none; stroke: #000000; stroke-width: 0.8; stroke-linejoin: miter; stroke-linecap: square"/>
   </g>
   <g id="patch_6">
    <path d="M 57.6 41.472 
L 414.72 41.472 
" style="fill: none; stroke: #000000; stroke-width: 0.8; stroke-linejoin: miter; stroke-linecap: square"/>
   </g>
   <g id="text_12">
    <!-- WSP -->
    <g transform="translate(361.832136 155.615309)scale(0.08 -0.08)">
     <defs>
      <path id="DejaVuSans-57" d="M 213 4666 
L 850 4666 
L 1831 722 
L 2809 4666 
L 3519 4666 
L 4500 722 
L 5478 4666 
L 6119 4666 
L 4947 0 
L 4153 0 
L 3169 4050 
L 2175 0 
L 1381 0 
L 213 4666 
z
" transform="scale(0.015625)"/>
      <path id="DejaVuSans-53" d="M 3425 4513 
L 3425 3897 
Q 3066 4069 2747 4153 
Q 2428 4238 2131 4238 
Q 1616 4238 1336 4038 
Q 1056 3838 1056 3469 
Q 1056 3159 1242 3001 
Q 1428 2844 1947 2747 
L 2328 2669 
Q 3034 2534 3370 2195 
Q 3706 1856 3706 1288 
Q 3706 609 3251 259 
Q 2797 -91 1919 -91 
Q 1588 -91 1214 -16 
Q 841 59 441 206 
L 441 856 
Q 825 641 1194 531 
Q 1563 422 1919 422 
Q 2459 422 2753 634 
Q 3047 847 3047 1241 
Q 3047 1584 2836 1778 
Q 2625 1972 2144 2069 
L 1759 2144 
Q 1053 2284 737 2584 
Q 422 2884 422 3419 
Q 422 4038 858 4394 
Q 1294 4750 2059 4750 
Q 2388 4750 2728 4690 
Q 3069 4631 3425 4513 
z
" transform="scale(0.015625)"/>
      <path id="DejaVuSans-50" d="M 1259 4147 
L 1259 2394 
L 2053 2394 
Q 2494 2394 2734 2622 
Q 2975 2850 2975 3272 
Q 2975 3691 2734 3919 
Q 2494 4147 2053 4147 
L 1259 4147 
z
M 628 4666 
L 2053 4666 
Q 2838 4666 3239 4311 
Q 3641 3956 3641 3272 
Q 3641 2581 3239 2228 
Q 2838 1875 2053 1875 
L 1259 1875 
L 1259 0 
L 628 0 
L 628 4666 
z
" transform="scale(0.015625)"/>
     </defs>
     <use xlink:href="#DejaVuSans-57"/>
     <use xlink:href="#DejaVuSans-53" x="98.876953"/>
     <use xlink:href="#DejaVuSans-50" x="162.353516"/>
    </g>
   </g>
   <g id="text_13">
    <!-- Iambic -->
    <g transform="translate(361.832136 92.414786)scale(0.08 -0.08)">
     <defs>
      <path id="DejaVuSans-49" d="M 628 4666 
L 1259 4666 
L 1259 0 
L 628 0 
L 628 4666 
z
" transform="scale(0.015625)"/>
      <path id="DejaVuSans-61" d="M 2194 1759 
Q 1497 1759 1228 1600 
Q 959 1441 959 1056 
Q 959 750 1161 570 
Q 1363 391 1709 391 
Q 2188 391 2477 730 
Q 2766 1069 2766 1631 
L 2766 1759 
L 2194 1759 
z
M 3341 1997 
L 3341 0 
L 2766 0 
L 2766 531 
Q 2569 213 2275 61 
Q 1981 -91 1556 -91 
Q 1019 -91 701 211 
Q 384 513 384 1019 
Q 384 1609 779 1909 
Q 1175 2209 1959 2209 
L 2766 2209 
L 2766 2266 
Q 2766 2663 2505 2880 
Q 2244 3097 1772 3097 
Q 1472 3097 1187 3025 
Q 903 2953 641 2809 
L 641 3341 
Q 956 3463 1253 3523 
Q 1550 3584 1831 3584 
Q 2591 3584 2966 3190 
Q 3341 2797 3341 1997 
z
" transform="scale(0.015625)"/>
      <path id="DejaVuSans-6d" d="M 3328 2828 
Q 3544 3216 3844 3400 
Q 4144 3584 4550 3584 
Q 5097 3584 5394 3201 
Q 5691 2819 5691 2113 
L 5691 0 
L 5113 0 
L 5113 2094 
Q 5113 2597 4934 2840 
Q 4756 3084 4391 3084 
Q 3944 3084 3684 2787 
Q 3425 2491 3425 1978 
L 3425 0 
L 2847 0 
L 2847 2094 
Q 2847 2600 2669 2842 
Q 2491 3084 2119 3084 
Q 1678 3084 1418 2786 
Q 1159 2488 1159 1978 
L 1159 0 
L 581 0 
L 581 3500 
L 1159 3500 
L 1159 2956 
Q 1356 3278 1631 3431 
Q 1906 3584 2284 3584 
Q 2666 3584 2933 3390 
Q 3200 3197 3328 2828 
z
" transform="scale(0.015625)"/>
      <path id="DejaVuSans-62" d="M 3116 1747 
Q 3116 2381 2855 2742 
Q 2594 3103 2138 3103 
Q 1681 3103 1420 2742 
Q 1159 2381 1159 1747 
Q 1159 1113 1420 752 
Q 1681 391 2138 391 
Q 2594 391 2855 752 
Q 3116 1113 3116 1747 
z
M 1159 2969 
Q 1341 3281 1617 3432 
Q 1894 3584 2278 3584 
Q 2916 3584 3314 3078 
Q 3713 2572 3713 1747 
Q 3713 922 3314 415 
Q 2916 -91 2278 -91 
Q 1894 -91 1617 61 
Q 1341 213 1159 525 
L 1159 0 
L 581 0 
L 581 4863 
L 1159 4863 
L 1159 2969 
z
" transform="scale(0.015625)"/>
      <path id="DejaVuSans-69" d="M 603 3500 
L 1178 3500 
L 1178 0 
L 603 0 
L 603 3500 
z
M 603 4863 
L 1178 4863 
L 1178 4134 
L 603 4134 
L 603 4863 
z
" transform="scale(0.015625)"/>
      <path id="DejaVuSans-63" d="M 3122 3366 
L 3122 2828 
Q 2878 2963 2633 3030 
Q 2388 3097 2138 3097 
Q 1578 3097 1268 2742 
Q 959 2388 959 1747 
Q 959 1106 1268 751 
Q 1578 397 2138 397 
Q 2388 397 2633 464 
Q 2878 531 3122 666 
L 3122 134 
Q 2881 22 2623 -34 
Q 2366 -91 2075 -91 
Q 1284 -91 818 406 
Q 353 903 353 1747 
Q 353 2603 823 3093 
Q 1294 3584 2113 3584 
Q 2378 3584 2631 3529 
Q 2884 3475 3122 3366 
z
" transform="scale(0.015625)"/>
     </defs>
     <use xlink:href="#DejaVuSans-49"/>
     <use xlink:href="#DejaVuSans-61" x="29.492188"/>
     <use xlink:href="#DejaVuSans-6d" x="90.771484"/>
     <use xlink:href="#DejaVuSans-62" x="188.183594"/>
     <use xlink:href="#DejaVuSans-69" x="251.660156"/>
     <use xlink:href="#DejaVuSans-63" x="279.443359"/>
    </g>
   </g>
   <g id="text_14">
    <!-- Parse -->
    <g transform="translate(361.832136 76.153177)scale(0.08 -0.08)">
     <defs>
      <path id="DejaVuSans-72" d="M 2631 2963 
Q 2534 3019 2420 3045 
Q 2306 3072 2169 3072 
Q 1681 3072 1420 2755 
Q 1159 2438 1159 1844 
L 1159 0 
L 581 0 
L 581 3500 
L 1159 3500 
L 1159 2956 
Q 1341 3275 1631 3429 
Q 1922 3584 2338 3584 
Q 2397 3584 2469 3576 
Q 2541 3569 2628 3553 
L 2631 2963 
z
" transform="scale(0.015625)"/>
      <path id="DejaVuSans-73" d="M 2834 3397 
L 2834 2853 
Q 2591 2978 2328 3040 
Q 2066 3103 1784 3103 
Q 1356 3103 1142 2972 
Q 928 2841 928 2578 
Q 928 2378 1081 2264 
Q 1234 2150 1697 2047 
L 1894 2003 
Q 2506 1872 2764 1633 
Q 3022 1394 3022 966 
Q 3022 478 2636 193 
Q 2250 -91 1575 -91 
Q 1294 -91 989 -36 
Q 684 19 347 128 
L 347 722 
Q 666 556 975 473 
Q 1284 391 1588 391 
Q 1994 391 2212 530 
Q 2431 669 2431 922 
Q 2431 1156 2273 1281 
Q 2116 1406 1581 1522 
L 1381 1569 
Q 847 1681 609 1914 
Q 372 2147 372 2553 
Q 372 3047 722 3315 
Q 1072 3584 1716 3584 
Q 2034 3584 2315 3537 
Q 2597 3491 2834 3397 
z
" transform="scale(0.015625)"/>
      <path id="DejaVuSans-65" d="M 3597 1894 
L 3597 1613 
L 953 1613 
Q 991 1019 1311 708 
Q 1631 397 2203 397 
Q 2534 397 2845 478 
Q 3156 559 3463 722 
L 3463 178 
Q 3153 47 2828 -22 
Q 2503 -91 2169 -91 
Q 1331 -91 842 396 
Q 353 884 353 1716 
Q 353 2575 817 3079 
Q 1281 3584 2069 3584 
Q 2775 3584 3186 3129 
Q 3597 2675 3597 1894 
z
M 3022 2063 
Q 3016 2534 2758 2815 
Q 2500 3097 2075 3097 
Q 1594 3097 1305 2825 
Q 1016 2553 972 2059 
L 3022 2063 
z
" transform="scale(0.015625)"/>
     </defs>
     <use xlink:href="#DejaVuSans-50"/>
     <use xlink:href="#DejaVuSans-61" x="55.802734"/>
     <use xlink:href="#DejaVuSans-72" x="117.082031"/>
     <use xlink:href="#DejaVuSans-73" x="158.195312"/>
     <use xlink:href="#DejaVuSans-65" x="210.294922"/>
    </g>
   </g>
   <g id="text_15">
    <!-- FootBin -->
    <g transform="translate(361.832136 106.522831)scale(0.08 -0.08)">
     <defs>
      <path id="DejaVuSans-46" d="M 628 4666 
L 3309 4666 
L 3309 4134 
L 1259 4134 
L 1259 2759 
L 3109 2759 
L 3109 2228 
L 1259 2228 
L 1259 0 
L 628 0 
L 628 4666 
z
" transform="scale(0.015625)"/>
      <path id="DejaVuSans-6f" d="M 1959 3097 
Q 1497 3097 1228 2736 
Q 959 2375 959 1747 
Q 959 1119 1226 758 
Q 1494 397 1959 397 
Q 2419 397 2687 759 
Q 2956 1122 2956 1747 
Q 2956 2369 2687 2733 
Q 2419 3097 1959 3097 
z
M 1959 3584 
Q 2709 3584 3137 3096 
Q 3566 2609 3566 1747 
Q 3566 888 3137 398 
Q 2709 -91 1959 -91 
Q 1206 -91 779 398 
Q 353 888 353 1747 
Q 353 2609 779 3096 
Q 1206 3584 1959 3584 
z
" transform="scale(0.015625)"/>
      <path id="DejaVuSans-74" d="M 1172 4494 
L 1172 3500 
L 2356 3500 
L 2356 3053 
L 1172 3053 
L 1172 1153 
Q 1172 725 1289 603 
Q 1406 481 1766 481 
L 2356 481 
L 2356 0 
L 1766 0 
Q 1100 0 847 248 
Q 594 497 594 1153 
L 594 3053 
L 172 3053 
L 172 3500 
L 594 3500 
L 594 4494 
L 1172 4494 
z
" transform="scale(0.015625)"/>
      <path id="DejaVuSans-42" d="M 1259 2228 
L 1259 519 
L 2272 519 
Q 2781 519 3026 730 
Q 3272 941 3272 1375 
Q 3272 1813 3026 2020 
Q 2781 2228 2272 2228 
L 1259 2228 
z
M 1259 4147 
L 1259 2741 
L 2194 2741 
Q 2656 2741 2882 2914 
Q 3109 3088 3109 3444 
Q 3109 3797 2882 3972 
Q 2656 4147 2194 4147 
L 1259 4147 
z
M 628 4666 
L 2241 4666 
Q 2963 4666 3353 4366 
Q 3744 4066 3744 3513 
Q 3744 3084 3544 2831 
Q 3344 2578 2956 2516 
Q 3422 2416 3680 2098 
Q 3938 1781 3938 1306 
Q 3938 681 3513 340 
Q 3088 0 2303 0 
L 628 0 
L 628 4666 
z
" transform="scale(0.015625)"/>
      <path id="DejaVuSans-6e" d="M 3513 2113 
L 3513 0 
L 2938 0 
L 2938 2094 
Q 2938 2591 2744 2837 
Q 2550 3084 2163 3084 
Q 1697 3084 1428 2787 
Q 1159 2491 1159 1978 
L 1159 0 
L 581 0 
L 581 3500 
L 1159 3500 
L 1159 2956 
Q 1366 3272 1645 3428 
Q 1925 3584 2291 3584 
Q 2894 3584 3203 3211 
Q 3513 2838 3513 2113 
z
" transform="scale(0.015625)"/>
     </defs>
     <use xlink:href="#DejaVuSans-46"/>
     <use xlink:href="#DejaVuSans-6f" x="53.894531"/>
     <use xlink:href="#DejaVuSans-6f" x="115.076172"/>
     <use xlink:href="#DejaVuSans-74" x="176.257812"/>
     <use xlink:href="#DejaVuSans-42" x="215.466797"/>
     <use xlink:href="#DejaVuSans-69" x="284.070312"/>
     <use xlink:href="#DejaVuSans-6e" x="311.853516"/>
    </g>
   </g>
   <g id="text_16">
    <!-- WFL -->
    <g transform="translate(361.832136 67.58287)scale(0.08 -0.08)">
     <defs>
      <path id="DejaVuSans-4c" d="M 628 4666 
L 1259 4666 
L 1259 531 
L 3531 531 
L 3531 0 
L 628 0 
L 628 4666 
z
" transform="scale(0.015625)"/>
     </defs>
     <use xlink:href="#DejaVuSans-57"/>
     <use xlink:href="#DejaVuSans-46" x="98.876953"/>
     <use xlink:href="#DejaVuSans-4c" x="156.396484"/>
    </g>
   </g>
   <g id="text_17">
    <!-- WFR -->
    <g transform="translate(361.832136 115.049188)scale(0.08 -0.08)">
     <defs>
      <path id="DejaVuSans-52" d="M 2841 2188 
Q 3044 2119 3236 1894 
Q 3428 1669 3622 1275 
L 4263 0 
L 3584 0 
L 2988 1197 
Q 2756 1666 2539 1819 
Q 2322 1972 1947 1972 
L 1259 1972 
L 1259 0 
L 628 0 
L 628 4666 
L 2053 4666 
Q 2853 4666 3247 4331 
Q 3641 3997 3641 3322 
Q 3641 2881 3436 2590 
Q 3231 2300 2841 2188 
z
M 1259 4147 
L 1259 2491 
L 2053 2491 
Q 2509 2491 2742 2702 
Q 2975 2913 2975 3322 
Q 2975 3731 2742 3939 
Q 2509 4147 2053 4147 
L 1259 4147 
z
" transform="scale(0.015625)"/>
     </defs>
     <use xlink:href="#DejaVuSans-57"/>
     <use xlink:href="#DejaVuSans-46" x="98.876953"/>
     <use xlink:href="#DejaVuSans-52" x="156.396484"/>
    </g>
   </g>
   <g id="text_18">
    <!-- Main-L -->
    <g transform="translate(361.832136 51.892615)scale(0.08 -0.08)">
     <defs>
      <path id="DejaVuSans-4d" d="M 628 4666 
L 1569 4666 
L 2759 1491 
L 3956 4666 
L 4897 4666 
L 4897 0 
L 4281 0 
L 4281 4097 
L 3078 897 
L 2444 897 
L 1241 4097 
L 1241 0 
L 628 0 
L 628 4666 
z
" transform="scale(0.015625)"/>
      <path id="DejaVuSans-2d" d="M 313 2009 
L 1997 2009 
L 1997 1497 
L 313 1497 
L 313 2009 
z
" transform="scale(0.015625)"/>
     </defs>
     <use xlink:href="#DejaVuSans-4d"/>
     <use xlink:href="#DejaVuSans-61" x="86.279297"/>
     <use xlink:href="#DejaVuSans-69" x="147.558594"/>
     <use xlink:href="#DejaVuSans-6e" x="175.341797"/>
     <use xlink:href="#DejaVuSans-2d" x="238.720703"/>
     <use xlink:href="#DejaVuSans-4c" x="274.804688"/>
    </g>
   </g>
   <g id="text_19">
    <!-- Main-R -->
    <g transform="translate(361.832136 80.98771)scale(0.08 -0.08)">
     <use xlink:href="#DejaVuSans-4d"/>
     <use xlink:href="#DejaVuSans-61" x="86.279297"/>
     <use xlink:href="#DejaVuSans-69" x="147.558594"/>
     <use xlink:href="#DejaVuSans-6e" x="175.341797"/>
     <use xlink:href="#DejaVuSans-2d" x="238.720703"/>
     <use xlink:href="#DejaVuSans-52" x="274.804688"/>
    </g>
   </g>
   <g id="text_20">
    <!-- AFL -->
    <g transform="translate(361.832136 135.749776)scale(0.08 -0.08)">
     <defs>
      <path id="DejaVuSans-41" d="M 2188 4044 
L 1331 1722 
L 3047 1722 
L 2188 4044 
z
M 1831 4666 
L 2547 4666 
L 4325 0 
L 3669 0 
L 3244 1197 
L 1141 1197 
L 716 0 
L 50 0 
L 1831 4666 
z
" transform="scale(0.015625)"/>
     </defs>
     <use xlink:href="#DejaVuSans-41"/>
     <use xlink:href="#DejaVuSans-46" x="68.408203"/>
     <use xlink:href="#DejaVuSans-4c" x="125.927734"/>
    </g>
   </g>
   <g id="text_21">
    <!-- AFR -->
    <g transform="translate(361.832136 107.182085)scale(0.08 -0.08)">
     <use xlink:href="#DejaVuSans-41"/>
     <use xlink:href="#DejaVuSans-46" x="68.408203"/>
     <use xlink:href="#DejaVuSans-52" x="125.927734"/>
    </g>
   </g>
   <g id="text_22">
    <!-- Nonfinal -->
    <g transform="translate(361.832136 46.970182)scale(0.08 -0.08)">
     <defs>
      <path id="DejaVuSans-4e" d="M 628 4666 
L 1478 4666 
L 3547 763 
L 3547 4666 
L 4159 4666 
L 4159 0 
L 3309 0 
L 1241 3903 
L 1241 0 
L 628 0 
L 628 4666 
z
" transform="scale(0.015625)"/>
      <path id="DejaVuSans-66" d="M 2375 4863 
L 2375 4384 
L 1825 4384 
Q 1516 4384 1395 4259 
Q 1275 4134 1275 3809 
L 1275 3500 
L 2222 3500 
L 2222 3053 
L 1275 3053 
L 1275 0 
L 697 0 
L 697 3053 
L 147 3053 
L 147 3500 
L 697 3500 
L 697 3744 
Q 697 4328 969 4595 
Q 1241 4863 1831 4863 
L 2375 4863 
z
" transform="scale(0.015625)"/>
      <path id="DejaVuSans-6c" d="M 603 4863 
L 1178 4863 
L 1178 0 
L 603 0 
L 603 4863 
z
" transform="scale(0.015625)"/>
     </defs>
     <use xlink:href="#DejaVuSans-4e"/>
     <use xlink:href="#DejaVuSans-6f" x="74.804688"/>
     <use xlink:href="#DejaVuSans-6e" x="135.986328"/>
     <use xlink:href="#DejaVuSans-66" x="199.365234"/>
     <use xlink:href="#DejaVuSans-69" x="234.570312"/>
     <use xlink:href="#DejaVuSans-6e" x="262.353516"/>
     <use xlink:href="#DejaVuSans-61" x="325.732422"/>
     <use xlink:href="#DejaVuSans-6c" x="387.011719"/>
    </g>
   </g>
   <g id="text_23">
    <!-- Trochaic -->
    <g transform="translate(361.832136 136.145329)scale(0.08 -0.08)">
     <defs>
      <path id="DejaVuSans-54" d="M -19 4666 
L 3928 4666 
L 3928 4134 
L 2272 4134 
L 2272 0 
L 1638 0 
L 1638 4134 
L -19 4134 
L -19 4666 
z
" transform="scale(0.015625)"/>
      <path id="DejaVuSans-68" d="M 3513 2113 
L 3513 0 
L 2938 0 
L 2938 2094 
Q 2938 2591 2744 2837 
Q 2550 3084 2163 3084 
Q 1697 3084 1428 2787 
Q 1159 2491 1159 1978 
L 1159 0 
L 581 0 
L 581 4863 
L 1159 4863 
L 1159 2956 
Q 1366 3272 1645 3428 
Q 1925 3584 2291 3584 
Q 2894 3584 3203 3211 
Q 3513 2838 3513 2113 
z
" transform="scale(0.015625)"/>
     </defs>
     <use xlink:href="#DejaVuSans-54"/>
     <use xlink:href="#DejaVuSans-72" x="46.333984"/>
     <use xlink:href="#DejaVuSans-6f" x="85.197266"/>
     <use xlink:href="#DejaVuSans-63" x="146.378906"/>
     <use xlink:href="#DejaVuSans-68" x="201.359375"/>
     <use xlink:href="#DejaVuSans-61" x="264.738281"/>
     <use xlink:href="#DejaVuSans-69" x="326.017578"/>
     <use xlink:href="#DejaVuSans-63" x="353.800781"/>
    </g>
   </g>
  </g>
  <g id="axes_2">
   <g id="patch_7">
    <path d="M 57.6 307.584 
L 414.72 307.584 
L 414.72 186.624 
L 57.6 186.624 
z
" style="fill: #ffffff"/>
   </g>
   <g id="matplotlib.axis_3">
    <g id="xtick_8">
     <g id="line2d_24">
      <g>
       <use xlink:href="#m939995d6cf" x="70.826667" y="307.584" style="stroke: #000000; stroke-width: 0.8"/>
      </g>
     </g>
     <g id="text_24">
      <!-- 0 -->
      <g transform="translate(67.645417 322.182437)scale(0.1 -0.1)">
       <use xlink:href="#DejaVuSans-30"/>
      </g>
     </g>
    </g>
    <g id="xtick_9">
     <g id="line2d_25">
      <g>
       <use xlink:href="#m939995d6cf" x="130.947879" y="307.584" style="stroke: #000000; stroke-width: 0.8"/>
      </g>
     </g>
     <g id="text_25">
      <!-- 20 -->
      <g transform="translate(124.585379 322.182437)scale(0.1 -0.1)">
       <use xlink:href="#DejaVuSans-32"/>
       <use xlink:href="#DejaVuSans-30" x="63.623047"/>
      </g>
     </g>
    </g>
    <g id="xtick_10">
     <g id="line2d_26">
      <g>
       <use xlink:href="#m939995d6cf" x="191.069091" y="307.584" style="stroke: #000000; stroke-width: 0.8"/>
      </g>
     </g>
     <g id="text_26">
      <!-- 40 -->
      <g transform="translate(184.706591 322.182437)scale(0.1 -0.1)">
       <use xlink:href="#DejaVuSans-34"/>
       <use xlink:href="#DejaVuSans-30" x="63.623047"/>
      </g>
     </g>
    </g>
    <g id="xtick_11">
     <g id="line2d_27">
      <g>
       <use xlink:href="#m939995d6cf" x="251.190303" y="307.584" style="stroke: #000000; stroke-width: 0.8"/>
      </g>
     </g>
     <g id="text_27">
      <!-- 60 -->
      <g transform="translate(244.827803 322.182437)scale(0.1 -0.1)">
       <use xlink:href="#DejaVuSans-36"/>
       <use xlink:href="#DejaVuSans-30" x="63.623047"/>
      </g>
     </g>
    </g>
    <g id="xtick_12">
     <g id="line2d_28">
      <g>
       <use xlink:href="#m939995d6cf" x="311.311515" y="307.584" style="stroke: #000000; stroke-width: 0.8"/>
      </g>
     </g>
     <g id="text_28">
      <!-- 80 -->
      <g transform="translate(304.949015 322.182437)scale(0.1 -0.1)">
       <use xlink:href="#DejaVuSans-38"/>
       <use xlink:href="#DejaVuSans-30" x="63.623047"/>
      </g>
     </g>
    </g>
    <g id="xtick_13">
     <g id="line2d_29">
      <g>
       <use xlink:href="#m939995d6cf" x="371.432727" y="307.584" style="stroke: #000000; stroke-width: 0.8"/>
      </g>
     </g>
     <g id="text_29">
      <!-- 100 -->
      <g transform="translate(361.888977 322.182437)scale(0.1 -0.1)">
       <use xlink:href="#DejaVuSans-31"/>
       <use xlink:href="#DejaVuSans-30" x="63.623047"/>
       <use xlink:href="#DejaVuSans-30" x="127.246094"/>
      </g>
     </g>
    </g>
   </g>
   <g id="matplotlib.axis_4">
    <g id="ytick_5">
     <g id="line2d_30">
      <g>
       <use xlink:href="#me35d0321be" x="57.6" y="302.10348" style="stroke: #000000; stroke-width: 0.8"/>
      </g>
     </g>
     <g id="text_30">
      <!-- 0 -->
      <g transform="translate(44.2375 305.902699)scale(0.1 -0.1)">
       <use xlink:href="#DejaVuSans-30"/>
      </g>
     </g>
    </g>
    <g id="ytick_6">
     <g id="line2d_31">
      <g>
       <use xlink:href="#me35d0321be" x="57.6" y="266.779472" style="stroke: #000000; stroke-width: 0.8"/>
      </g>
     </g>
     <g id="text_31">
      <!-- 2000 -->
      <g transform="translate(25.15 270.578691)scale(0.1 -0.1)">
       <use xlink:href="#DejaVuSans-32"/>
       <use xlink:href="#DejaVuSans-30" x="63.623047"/>
       <use xlink:href="#DejaVuSans-30" x="127.246094"/>
       <use xlink:href="#DejaVuSans-30" x="190.869141"/>
      </g>
     </g>
    </g>
    <g id="ytick_7">
     <g id="line2d_32">
      <g>
       <use xlink:href="#me35d0321be" x="57.6" y="231.455465" style="stroke: #000000; stroke-width: 0.8"/>
      </g>
     </g>
     <g id="text_32">
      <!-- 4000 -->
      <g transform="translate(25.15 235.254683)scale(0.1 -0.1)">
       <use xlink:href="#DejaVuSans-34"/>
       <use xlink:href="#DejaVuSans-30" x="63.623047"/>
       <use xlink:href="#DejaVuSans-30" x="127.246094"/>
       <use xlink:href="#DejaVuSans-30" x="190.869141"/>
      </g>
     </g>
    </g>
    <g id="ytick_8">
     <g id="line2d_33">
      <g>
       <use xlink:href="#me35d0321be" x="57.6" y="196.131457" style="stroke: #000000; stroke-width: 0.8"/>
      </g>
     </g>
     <g id="text_33">
      <!-- 6000 -->
      <g transform="translate(25.15 199.930675)scale(0.1 -0.1)">
       <use xlink:href="#DejaVuSans-36"/>
       <use xlink:href="#DejaVuSans-30" x="63.623047"/>
       <use xlink:href="#DejaVuSans-30" x="127.246094"/>
       <use xlink:href="#DejaVuSans-30" x="190.869141"/>
      </g>
     </g>
    </g>
   </g>
   <g id="line2d_34">
    <path d="M 73.832727 302.085818 
L 76.838788 302.085818 
L 79.844848 302.085818 
L 82.850909 302.085818 
L 85.85697 302.068156 
L 88.86303 302.085818 
L 91.869091 302.085818 
L 94.875152 302.085818 
L 97.881212 302.085818 
L 100.887273 302.085818 
L 103.893333 302.068156 
L 106.899394 302.085818 
L 109.905455 302.068156 
L 112.911515 302.068156 
L 115.917576 302.085818 
L 118.923636 302.085818 
L 121.929697 302.068156 
L 124.935758 302.085818 
L 127.941818 302.085818 
L 130.947879 302.085818 
L 133.953939 302.085818 
L 136.96 302.050494 
L 139.966061 302.068156 
L 142.972121 302.050494 
L 145.978182 302.085818 
L 148.984242 302.085818 
L 151.990303 302.085818 
L 154.996364 302.085818 
L 158.002424 302.085818 
L 161.008485 302.085818 
L 164.014545 302.085818 
L 167.020606 302.085818 
L 170.026667 302.068156 
L 173.032727 302.085818 
L 176.038788 302.068156 
L 179.044848 302.068156 
L 182.050909 302.032832 
L 185.05697 302.085818 
L 188.06303 302.085818 
L 191.069091 302.01517 
L 194.075152 302.085818 
L 197.081212 302.050494 
L 200.087273 302.085818 
L 203.093333 301.856212 
L 206.099394 302.050494 
L 209.105455 302.068156 
L 212.111515 302.050494 
L 215.117576 302.050494 
L 218.123636 302.085818 
L 221.129697 302.085818 
L 224.135758 301.75024 
L 227.141818 302.068156 
L 230.147879 301.979846 
L 233.153939 302.085818 
L 236.16 302.032832 
L 239.166061 302.068156 
L 242.172121 302.032832 
L 245.178182 301.979846 
L 248.184242 302.068156 
L 251.190303 301.997508 
L 254.196364 301.997508 
L 257.202424 302.032832 
L 260.208485 301.803226 
L 263.214545 301.944522 
L 266.220606 301.962184 
L 269.226667 301.944522 
L 272.232727 302.01517 
L 275.238788 301.591282 
L 278.244848 301.83855 
L 281.250909 301.997508 
L 284.25697 302.01517 
L 287.26303 301.873874 
L 290.269091 301.997508 
L 293.275152 302.032832 
L 296.281212 301.997508 
L 299.287273 302.085818 
L 302.293333 301.432324 
L 305.299394 301.48531 
L 308.305455 301.57362 
L 311.311515 301.997508 
L 314.317576 301.361676 
L 317.323636 299.666124 
L 320.329697 302.068156 
L 323.335758 301.397 
L 326.341818 297.052147 
L 329.347879 299.860406 
L 332.353939 301.30869 
L 335.36 297.935247 
L 338.366061 300.037026 
L 341.372121 299.966378 
L 344.378182 299.754434 
L 347.384242 289.651767 
L 350.390303 289.174893 
L 353.396364 299.825082 
L 356.402424 301.909198 
L 359.408485 274.550754 
L 362.414545 301.30869 
L 365.420606 293.095858 
L 368.426667 287.602975 
L 371.432727 294.102592 
L 374.438788 298.818347 
L 377.444848 261.922421 
L 380.450909 300.231308 
L 383.45697 284.812378 
L 386.46303 262.487605 
L 389.469091 192.122182 
L 392.475152 258.919881 
L 395.481212 269.252153 
L 398.487273 298.518093 
" clip-path="url(#p062ac3ca14)" style="fill: none; stroke: #1f77b4; stroke-width: 1.5; stroke-linecap: square"/>
   </g>
   <g id="patch_8">
    <path d="M 57.6 307.584 
L 57.6 186.624 
" style="fill: none; stroke: #000000; stroke-width: 0.8; stroke-linejoin: miter; stroke-linecap: square"/>
   </g>
   <g id="patch_9">
    <path d="M 414.72 307.584 
L 414.72 186.624 
" style="fill: none; stroke: #000000; stroke-width: 0.8; stroke-linejoin: miter; stroke-linecap: square"/>
   </g>
   <g id="patch_10">
    <path d="M 57.6 307.584 
L 414.72 307.584 
" style="fill: none; stroke: #000000; stroke-width: 0.8; stroke-linejoin: miter; stroke-linecap: square"/>
   </g>
   <g id="patch_11">
    <path d="M 57.6 186.624 
L 414.72 186.624 
" style="fill: none; stroke: #000000; stroke-width: 0.8; stroke-linejoin: miter; stroke-linecap: square"/>
   </g>
  </g>
 </g>
 <defs>
  <clipPath id="pe1d2b2c38a">
   <rect x="57.6" y="41.472" width="357.12" height="120.96"/>
  </clipPath>
  <clipPath id="p062ac3ca14">
   <rect x="57.6" y="186.624" width="357.12" height="120.96"/>
  </clipPath>
 </defs>
</svg>
