<?xml version="1.0" encoding="utf-8" standalone="no"?>
<!DOCTYPE svg PUBLIC "-//W3C//DTD SVG 1.1//EN"
  "http://www.w3.org/Graphics/SVG/1.1/DTD/svg11.dtd">
<svg xmlns:xlink="http://www.w3.org/1999/xlink" width="460.8pt" height="345.6pt" viewBox="0 0 460.8 345.6" xmlns="http://www.w3.org/2000/svg" version="1.1">
 <metadata>
  <rdf:RDF xmlns:dc="http://purl.org/dc/elements/1.1/" xmlns:cc="http://creativecommons.org/ns#" xmlns:rdf="http://www.w3.org/1999/02/22-rdf-syntax-ns#">
   <cc:Work>
    <dc:type rdf:resource="http://purl.org/dc/dcmitype/StillImage"/>
    <dc:date>2022-05-13T15:02:41.626814</dc:date>
    <dc:format>image/svg+xml</dc:format>
    <dc:creator>
     <cc:Agent>
      <dc:title>Matplotlib v3.5.1, https://matplotlib.org/</dc:title>
     </cc:Agent>
    </dc:creator>
   </cc:Work>
  </rdf:RDF>
 </metadata>
 <defs>
  <style type="text/css">*{stroke-linejoin: round; stroke-linecap: butt}</style>
 </defs>
 <g id="figure_1">
  <g id="patch_1">
   <path d="M 0 345.6 
L 460.8 345.6 
L 460.8 0 
L 0 0 
z
" style="fill: #ffffff"/>
  </g>
  <g id="axes_1">
   <g id="patch_2">
    <path d="M 57.6 162.432 
L 414.72 162.432 
L 414.72 41.472 
L 57.6 41.472 
z
" style="fill: #ffffff"/>
   </g>
   <g id="matplotlib.axis_1">
    <g id="xtick_1">
     <g id="line2d_1">
      <defs>
       <path id="m0940ab93e9" d="M 0 0 
L 0 3.5 
" style="stroke: #000000; stroke-width: 0.8"/>
      </defs>
      <g>
       <use xlink:href="#m0940ab93e9" x="73.827491" y="162.432" style="stroke: #000000; stroke-width: 0.8"/>
      </g>
     </g>
     <g id="text_1">
      <!-- 0 -->
      <g transform="translate(70.646241 177.030437)scale(0.1 -0.1)">
       <defs>
        <path id="DejaVuSans-30" d="M 2034 4250 
Q 1547 4250 1301 3770 
Q 1056 3291 1056 2328 
Q 1056 1369 1301 889 
Q 1547 409 2034 409 
Q 2525 409 2770 889 
Q 3016 1369 3016 2328 
Q 3016 3291 2770 3770 
Q 2525 4250 2034 4250 
z
M 2034 4750 
Q 2819 4750 3233 4129 
Q 3647 3509 3647 2328 
Q 3647 1150 3233 529 
Q 2819 -91 2034 -91 
Q 1250 -91 836 529 
Q 422 1150 422 2328 
Q 422 3509 836 4129 
Q 1250 4750 2034 4750 
z
" transform="scale(0.015625)"/>
       </defs>
       <use xlink:href="#DejaVuSans-30"/>
      </g>
     </g>
    </g>
    <g id="xtick_2">
     <g id="line2d_2">
      <g>
       <use xlink:href="#m0940ab93e9" x="126.191972" y="162.432" style="stroke: #000000; stroke-width: 0.8"/>
      </g>
     </g>
     <g id="text_2">
      <!-- 10000 -->
      <g transform="translate(110.285722 177.030437)scale(0.1 -0.1)">
       <defs>
        <path id="DejaVuSans-31" d="M 794 531 
L 1825 531 
L 1825 4091 
L 703 3866 
L 703 4441 
L 1819 4666 
L 2450 4666 
L 2450 531 
L 3481 531 
L 3481 0 
L 794 0 
L 794 531 
z
" transform="scale(0.015625)"/>
       </defs>
       <use xlink:href="#DejaVuSans-31"/>
       <use xlink:href="#DejaVuSans-30" x="63.623047"/>
       <use xlink:href="#DejaVuSans-30" x="127.246094"/>
       <use xlink:href="#DejaVuSans-30" x="190.869141"/>
       <use xlink:href="#DejaVuSans-30" x="254.492188"/>
      </g>
     </g>
    </g>
    <g id="xtick_3">
     <g id="line2d_3">
      <g>
       <use xlink:href="#m0940ab93e9" x="178.556453" y="162.432" style="stroke: #000000; stroke-width: 0.8"/>
      </g>
     </g>
     <g id="text_3">
      <!-- 20000 -->
      <g transform="translate(162.650203 177.030437)scale(0.1 -0.1)">
       <defs>
        <path id="DejaVuSans-32" d="M 1228 531 
L 3431 531 
L 3431 0 
L 469 0 
L 469 531 
Q 828 903 1448 1529 
Q 2069 2156 2228 2338 
Q 2531 2678 2651 2914 
Q 2772 3150 2772 3378 
Q 2772 3750 2511 3984 
Q 2250 4219 1831 4219 
Q 1534 4219 1204 4116 
Q 875 4013 500 3803 
L 500 4441 
Q 881 4594 1212 4672 
Q 1544 4750 1819 4750 
Q 2544 4750 2975 4387 
Q 3406 4025 3406 3419 
Q 3406 3131 3298 2873 
Q 3191 2616 2906 2266 
Q 2828 2175 2409 1742 
Q 1991 1309 1228 531 
z
" transform="scale(0.015625)"/>
       </defs>
       <use xlink:href="#DejaVuSans-32"/>
       <use xlink:href="#DejaVuSans-30" x="63.623047"/>
       <use xlink:href="#DejaVuSans-30" x="127.246094"/>
       <use xlink:href="#DejaVuSans-30" x="190.869141"/>
       <use xlink:href="#DejaVuSans-30" x="254.492188"/>
      </g>
     </g>
    </g>
    <g id="xtick_4">
     <g id="line2d_4">
      <g>
       <use xlink:href="#m0940ab93e9" x="230.920934" y="162.432" style="stroke: #000000; stroke-width: 0.8"/>
      </g>
     </g>
     <g id="text_4">
      <!-- 30000 -->
      <g transform="translate(215.014684 177.030437)scale(0.1 -0.1)">
       <defs>
        <path id="DejaVuSans-33" d="M 2597 2516 
Q 3050 2419 3304 2112 
Q 3559 1806 3559 1356 
Q 3559 666 3084 287 
Q 2609 -91 1734 -91 
Q 1441 -91 1130 -33 
Q 819 25 488 141 
L 488 750 
Q 750 597 1062 519 
Q 1375 441 1716 441 
Q 2309 441 2620 675 
Q 2931 909 2931 1356 
Q 2931 1769 2642 2001 
Q 2353 2234 1838 2234 
L 1294 2234 
L 1294 2753 
L 1863 2753 
Q 2328 2753 2575 2939 
Q 2822 3125 2822 3475 
Q 2822 3834 2567 4026 
Q 2313 4219 1838 4219 
Q 1578 4219 1281 4162 
Q 984 4106 628 3988 
L 628 4550 
Q 988 4650 1302 4700 
Q 1616 4750 1894 4750 
Q 2613 4750 3031 4423 
Q 3450 4097 3450 3541 
Q 3450 3153 3228 2886 
Q 3006 2619 2597 2516 
z
" transform="scale(0.015625)"/>
       </defs>
       <use xlink:href="#DejaVuSans-33"/>
       <use xlink:href="#DejaVuSans-30" x="63.623047"/>
       <use xlink:href="#DejaVuSans-30" x="127.246094"/>
       <use xlink:href="#DejaVuSans-30" x="190.869141"/>
       <use xlink:href="#DejaVuSans-30" x="254.492188"/>
      </g>
     </g>
    </g>
    <g id="xtick_5">
     <g id="line2d_5">
      <g>
       <use xlink:href="#m0940ab93e9" x="283.285415" y="162.432" style="stroke: #000000; stroke-width: 0.8"/>
      </g>
     </g>
     <g id="text_5">
      <!-- 40000 -->
      <g transform="translate(267.379165 177.030437)scale(0.1 -0.1)">
       <defs>
        <path id="DejaVuSans-34" d="M 2419 4116 
L 825 1625 
L 2419 1625 
L 2419 4116 
z
M 2253 4666 
L 3047 4666 
L 3047 1625 
L 3713 1625 
L 3713 1100 
L 3047 1100 
L 3047 0 
L 2419 0 
L 2419 1100 
L 313 1100 
L 313 1709 
L 2253 4666 
z
" transform="scale(0.015625)"/>
       </defs>
       <use xlink:href="#DejaVuSans-34"/>
       <use xlink:href="#DejaVuSans-30" x="63.623047"/>
       <use xlink:href="#DejaVuSans-30" x="127.246094"/>
       <use xlink:href="#DejaVuSans-30" x="190.869141"/>
       <use xlink:href="#DejaVuSans-30" x="254.492188"/>
      </g>
     </g>
    </g>
    <g id="xtick_6">
     <g id="line2d_6">
      <g>
       <use xlink:href="#m0940ab93e9" x="335.649896" y="162.432" style="stroke: #000000; stroke-width: 0.8"/>
      </g>
     </g>
     <g id="text_6">
      <!-- 50000 -->
      <g transform="translate(319.743646 177.030437)scale(0.1 -0.1)">
       <defs>
        <path id="DejaVuSans-35" d="M 691 4666 
L 3169 4666 
L 3169 4134 
L 1269 4134 
L 1269 2991 
Q 1406 3038 1543 3061 
Q 1681 3084 1819 3084 
Q 2600 3084 3056 2656 
Q 3513 2228 3513 1497 
Q 3513 744 3044 326 
Q 2575 -91 1722 -91 
Q 1428 -91 1123 -41 
Q 819 9 494 109 
L 494 744 
Q 775 591 1075 516 
Q 1375 441 1709 441 
Q 2250 441 2565 725 
Q 2881 1009 2881 1497 
Q 2881 1984 2565 2268 
Q 2250 2553 1709 2553 
Q 1456 2553 1204 2497 
Q 953 2441 691 2322 
L 691 4666 
z
" transform="scale(0.015625)"/>
       </defs>
       <use xlink:href="#DejaVuSans-35"/>
       <use xlink:href="#DejaVuSans-30" x="63.623047"/>
       <use xlink:href="#DejaVuSans-30" x="127.246094"/>
       <use xlink:href="#DejaVuSans-30" x="190.869141"/>
       <use xlink:href="#DejaVuSans-30" x="254.492188"/>
      </g>
     </g>
    </g>
    <g id="xtick_7">
     <g id="line2d_7">
      <g>
       <use xlink:href="#m0940ab93e9" x="388.014377" y="162.432" style="stroke: #000000; stroke-width: 0.8"/>
      </g>
     </g>
     <g id="text_7">
      <!-- 60000 -->
      <g transform="translate(372.108127 177.030437)scale(0.1 -0.1)">
       <defs>
        <path id="DejaVuSans-36" d="M 2113 2584 
Q 1688 2584 1439 2293 
Q 1191 2003 1191 1497 
Q 1191 994 1439 701 
Q 1688 409 2113 409 
Q 2538 409 2786 701 
Q 3034 994 3034 1497 
Q 3034 2003 2786 2293 
Q 2538 2584 2113 2584 
z
M 3366 4563 
L 3366 3988 
Q 3128 4100 2886 4159 
Q 2644 4219 2406 4219 
Q 1781 4219 1451 3797 
Q 1122 3375 1075 2522 
Q 1259 2794 1537 2939 
Q 1816 3084 2150 3084 
Q 2853 3084 3261 2657 
Q 3669 2231 3669 1497 
Q 3669 778 3244 343 
Q 2819 -91 2113 -91 
Q 1303 -91 875 529 
Q 447 1150 447 2328 
Q 447 3434 972 4092 
Q 1497 4750 2381 4750 
Q 2619 4750 2861 4703 
Q 3103 4656 3366 4563 
z
" transform="scale(0.015625)"/>
       </defs>
       <use xlink:href="#DejaVuSans-36"/>
       <use xlink:href="#DejaVuSans-30" x="63.623047"/>
       <use xlink:href="#DejaVuSans-30" x="127.246094"/>
       <use xlink:href="#DejaVuSans-30" x="190.869141"/>
       <use xlink:href="#DejaVuSans-30" x="254.492188"/>
      </g>
     </g>
    </g>
   </g>
   <g id="matplotlib.axis_2">
    <g id="ytick_1">
     <g id="line2d_8">
      <defs>
       <path id="ma3c33de6a5" d="M 0 0 
L -3.5 0 
" style="stroke: #000000; stroke-width: 0.8"/>
      </defs>
      <g>
       <use xlink:href="#ma3c33de6a5" x="57.6" y="138.819653" style="stroke: #000000; stroke-width: 0.8"/>
      </g>
     </g>
     <g id="text_8">
      <!-- 70 -->
      <g transform="translate(37.875 142.618872)scale(0.1 -0.1)">
       <defs>
        <path id="DejaVuSans-37" d="M 525 4666 
L 3525 4666 
L 3525 4397 
L 1831 0 
L 1172 0 
L 2766 4134 
L 525 4134 
L 525 4666 
z
" transform="scale(0.015625)"/>
       </defs>
       <use xlink:href="#DejaVuSans-37"/>
       <use xlink:href="#DejaVuSans-30" x="63.623047"/>
      </g>
     </g>
    </g>
    <g id="ytick_2">
     <g id="line2d_9">
      <g>
       <use xlink:href="#ma3c33de6a5" x="57.6" y="113.246715" style="stroke: #000000; stroke-width: 0.8"/>
      </g>
     </g>
     <g id="text_9">
      <!-- 80 -->
      <g transform="translate(37.875 117.045933)scale(0.1 -0.1)">
       <defs>
        <path id="DejaVuSans-38" d="M 2034 2216 
Q 1584 2216 1326 1975 
Q 1069 1734 1069 1313 
Q 1069 891 1326 650 
Q 1584 409 2034 409 
Q 2484 409 2743 651 
Q 3003 894 3003 1313 
Q 3003 1734 2745 1975 
Q 2488 2216 2034 2216 
z
M 1403 2484 
Q 997 2584 770 2862 
Q 544 3141 544 3541 
Q 544 4100 942 4425 
Q 1341 4750 2034 4750 
Q 2731 4750 3128 4425 
Q 3525 4100 3525 3541 
Q 3525 3141 3298 2862 
Q 3072 2584 2669 2484 
Q 3125 2378 3379 2068 
Q 3634 1759 3634 1313 
Q 3634 634 3220 271 
Q 2806 -91 2034 -91 
Q 1263 -91 848 271 
Q 434 634 434 1313 
Q 434 1759 690 2068 
Q 947 2378 1403 2484 
z
M 1172 3481 
Q 1172 3119 1398 2916 
Q 1625 2713 2034 2713 
Q 2441 2713 2670 2916 
Q 2900 3119 2900 3481 
Q 2900 3844 2670 4047 
Q 2441 4250 2034 4250 
Q 1625 4250 1398 4047 
Q 1172 3844 1172 3481 
z
" transform="scale(0.015625)"/>
       </defs>
       <use xlink:href="#DejaVuSans-38"/>
       <use xlink:href="#DejaVuSans-30" x="63.623047"/>
      </g>
     </g>
    </g>
    <g id="ytick_3">
     <g id="line2d_10">
      <g>
       <use xlink:href="#ma3c33de6a5" x="57.6" y="87.673776" style="stroke: #000000; stroke-width: 0.8"/>
      </g>
     </g>
     <g id="text_10">
      <!-- 90 -->
      <g transform="translate(37.875 91.472995)scale(0.1 -0.1)">
       <defs>
        <path id="DejaVuSans-39" d="M 703 97 
L 703 672 
Q 941 559 1184 500 
Q 1428 441 1663 441 
Q 2288 441 2617 861 
Q 2947 1281 2994 2138 
Q 2813 1869 2534 1725 
Q 2256 1581 1919 1581 
Q 1219 1581 811 2004 
Q 403 2428 403 3163 
Q 403 3881 828 4315 
Q 1253 4750 1959 4750 
Q 2769 4750 3195 4129 
Q 3622 3509 3622 2328 
Q 3622 1225 3098 567 
Q 2575 -91 1691 -91 
Q 1453 -91 1209 -44 
Q 966 3 703 97 
z
M 1959 2075 
Q 2384 2075 2632 2365 
Q 2881 2656 2881 3163 
Q 2881 3666 2632 3958 
Q 2384 4250 1959 4250 
Q 1534 4250 1286 3958 
Q 1038 3666 1038 3163 
Q 1038 2656 1286 2365 
Q 1534 2075 1959 2075 
z
" transform="scale(0.015625)"/>
       </defs>
       <use xlink:href="#DejaVuSans-39"/>
       <use xlink:href="#DejaVuSans-30" x="63.623047"/>
      </g>
     </g>
    </g>
    <g id="ytick_4">
     <g id="line2d_11">
      <g>
       <use xlink:href="#ma3c33de6a5" x="57.6" y="62.100837" style="stroke: #000000; stroke-width: 0.8"/>
      </g>
     </g>
     <g id="text_11">
      <!-- 100 -->
      <g transform="translate(31.5125 65.900056)scale(0.1 -0.1)">
       <use xlink:href="#DejaVuSans-31"/>
       <use xlink:href="#DejaVuSans-30" x="63.623047"/>
       <use xlink:href="#DejaVuSans-30" x="127.246094"/>
      </g>
     </g>
    </g>
   </g>
   <g id="line2d_12">
    <path d="M 73.832727 60.82219 
L 73.984584 85.542698 
L 73.989821 84.690266 
L 74.010767 84.690266 
L 74.141678 96.624304 
L 74.204515 96.624304 
L 74.33019 104.722402 
L 74.335426 104.722402 
L 74.440155 107.279696 
L 74.445392 106.001049 
L 74.455865 106.001049 
L 74.56583 111.115636 
L 74.571066 110.476313 
L 74.743869 110.476313 
L 74.864308 115.590901 
L 74.89049 115.590901 
L 75.010928 120.705488 
L 75.141839 120.705488 
L 75.257041 123.262782 
L 75.293696 123.262782 
L 75.419371 130.934664 
L 75.476972 130.934664 
L 75.586937 129.656017 
L 75.702139 132.213311 
L 75.733558 132.213311 
L 75.84876 134.770605 
L 75.901124 134.770605 
L 76.016326 133.491958 
L 76.922232 133.491958 
L 77.037434 132.213311 
L 77.665807 132.213311 
L 77.781009 130.934664 
L 77.807191 130.934664 
L 77.922393 133.491958 
L 78.278472 133.491958 
L 78.393674 132.852634 
L 78.639787 132.852634 
L 78.645023 131.573987 
L 78.702624 136.688575 
L 78.734043 136.688575 
L 79.053466 136.688575 
L 79.168668 135.409928 
L 79.451436 135.409928 
L 79.561401 132.852634 
L 79.639948 135.409928 
L 79.671367 134.557497 
L 79.697549 134.557497 
L 79.812751 137.114791 
L 80.47778 137.114791 
L 80.592982 136.262359 
L 81.158518 136.262359 
L 81.27372 138.819653 
L 82.074897 138.819653 
L 82.190098 141.376947 
L 83.509683 141.376947 
L 83.624885 140.524516 
L 84.981125 140.524516 
L 85.096327 139.885192 
L 87.075705 139.885192 
L 87.190906 142.442486 
L 91.647124 142.442486 
L 91.762326 144.99978 
L 94.155382 144.99978 
L 94.270584 143.721133 
L 95.841519 143.721133 
L 95.95672 146.278427 
L 115.022628 146.278427 
L 115.13783 148.835721 
L 129.009181 148.835721 
L 129.124383 147.557074 
L 133.606782 147.557074 
L 133.721984 150.114368 
L 134.250865 150.114368 
L 134.366067 149.261937 
L 150.441963 149.261937 
L 150.557165 151.81923 
L 231.245593 151.81923 
L 231.360795 154.376524 
L 271.126382 154.376524 
L 271.241584 156.933818 
L 288.045346 156.933818 
L 288.160548 155.655171 
L 306.708047 155.655171 
L 306.823249 154.376524 
L 332.220022 154.376524 
L 332.335224 156.933818 
L 398.487273 156.933818 
L 398.487273 156.933818 
" clip-path="url(#pfc04ca959a)" style="fill: none; stroke: #1f77b4; stroke-width: 1.5; stroke-linecap: square"/>
   </g>
   <g id="line2d_13">
    <path d="M 73.832727 62.100837 
L 73.879855 77.4446 
L 73.963638 75.739738 
L 73.968875 73.182444 
L 74.031712 83.411619 
L 74.057895 82.559188 
L 74.183569 90.23107 
L 74.581539 90.23107 
L 74.696741 92.788364 
L 74.880017 92.788364 
L 74.995219 95.345658 
L 75.346061 95.345658 
L 75.466499 100.460245 
L 75.581701 100.460245 
L 75.702139 105.574833 
L 77.812428 105.574833 
L 77.92763 108.132127 
L 78.278472 108.132127 
L 78.393674 110.689421 
L 78.65026 110.689421 
L 78.765461 113.246715 
L 81.158518 113.246715 
L 81.27372 115.804008 
L 84.981125 115.804008 
L 85.096327 118.361302 
L 86.164563 118.361302 
L 86.279764 117.508871 
L 87.075705 117.508871 
L 87.190906 120.066165 
L 91.647124 120.066165 
L 91.762326 122.623459 
L 94.029708 122.623459 
L 94.144909 121.771027 
L 133.156448 121.771027 
L 133.27165 124.328321 
L 150.441963 124.328321 
L 150.557165 126.885615 
L 174.602934 126.885615 
L 174.718136 126.246292 
L 231.245593 126.246292 
L 231.360795 128.803586 
L 288.045346 128.803586 
L 288.160548 127.524939 
L 295.187861 127.524939 
L 295.303063 130.082233 
L 398.487273 130.082233 
L 398.487273 130.082233 
" clip-path="url(#pfc04ca959a)" style="fill: none; stroke: #ff7f0e; stroke-width: 1.5; stroke-linecap: square"/>
   </g>
   <g id="line2d_14">
    <path d="M 73.832727 60.82219 
L 73.91651 71.264474 
L 73.953166 66.149886 
L 73.984584 66.149886 
L 73.989821 65.297455 
L 74.036949 75.52663 
L 74.042185 75.52663 
L 74.125968 78.083924 
L 74.152151 77.231493 
L 74.194042 77.231493 
L 74.204515 74.674199 
L 74.293535 82.772296 
L 74.335426 82.772296 
L 74.440155 85.32959 
L 74.445392 84.050943 
L 74.487283 84.050943 
L 74.555357 78.936355 
L 74.597249 83.198512 
L 74.743869 83.198512 
L 74.848598 85.755805 
L 74.853835 83.198512 
L 74.880017 83.198512 
L 74.89049 82.34608 
L 74.948091 87.460668 
L 74.9638 87.460668 
L 75.267514 87.460668 
L 75.293696 84.903374 
L 75.377479 86.182021 
L 75.408898 86.182021 
L 75.476972 84.903374 
L 75.482208 87.460668 
L 75.513627 87.460668 
L 75.529336 87.460668 
L 75.539809 84.903374 
L 75.639302 85.542698 
L 75.733558 85.542698 
L 75.84876 88.099992 
L 75.901124 88.099992 
L 75.932543 86.821345 
L 75.937779 89.378638 
L 76.005853 89.378638 
L 76.016326 89.378638 
L 76.131528 91.935932 
L 76.922232 91.935932 
L 77.037434 90.657285 
L 77.335911 90.657285 
L 77.44064 89.378638 
L 77.555842 91.935932 
L 77.665807 91.935932 
L 77.67628 93.214579 
L 77.781009 90.657285 
L 77.807191 90.657285 
L 77.812428 93.214579 
L 77.917157 91.935932 
L 78.278472 91.935932 
L 78.393674 91.296609 
L 78.639787 91.296609 
L 78.645023 90.017962 
L 78.702624 93.853903 
L 78.739279 93.853903 
L 79.053466 93.853903 
L 79.168668 92.575256 
L 79.173904 92.575256 
L 79.289106 95.13255 
L 79.451436 95.13255 
L 79.556165 92.575256 
L 79.561401 95.13255 
L 79.639948 97.689844 
L 79.671367 96.837412 
L 79.697549 96.837412 
L 79.812751 99.394706 
L 81.158518 99.394706 
L 81.27372 98.116059 
L 82.074897 98.116059 
L 82.190098 100.673353 
L 83.19026 100.673353 
L 83.305462 98.116059 
L 83.509683 98.116059 
L 83.624885 97.263628 
L 84.750722 97.263628 
L 84.865923 99.820922 
L 84.981125 99.820922 
L 85.096327 99.181598 
L 86.164563 99.181598 
L 86.279764 101.738892 
L 87.075705 101.738892 
L 87.190906 100.460245 
L 91.647124 100.460245 
L 91.762326 99.181598 
L 94.029708 99.181598 
L 94.144909 101.738892 
L 94.155382 101.738892 
L 94.270584 100.460245 
L 95.841519 100.460245 
L 95.95672 103.017539 
L 129.009181 103.017539 
L 129.124383 101.738892 
L 133.156448 101.738892 
L 133.27165 100.460245 
L 133.329251 100.460245 
L 133.444452 103.017539 
L 133.606782 103.017539 
L 133.721984 105.574833 
L 134.250865 105.574833 
L 134.366067 104.722402 
L 150.441963 104.722402 
L 150.557165 103.443755 
L 168.701457 103.443755 
L 168.816659 100.886461 
L 174.602934 100.886461 
L 174.723373 106.001049 
L 231.245593 106.001049 
L 231.360795 104.722402 
L 271.126382 104.722402 
L 271.241584 107.279696 
L 295.187861 107.279696 
L 295.303063 106.001049 
L 306.708047 106.001049 
L 306.823249 104.722402 
L 332.220022 104.722402 
L 332.335224 107.279696 
L 398.487273 107.279696 
L 398.487273 107.279696 
" clip-path="url(#pfc04ca959a)" style="fill: none; stroke: #2ca02c; stroke-width: 1.5; stroke-linecap: square"/>
   </g>
   <g id="line2d_15">
    <path d="M 73.832727 62.100837 
L 73.837964 62.100837 
L 73.963638 71.690689 
L 73.989821 71.690689 
L 74.026476 73.60866 
L 74.110259 70.412042 
L 74.194042 70.412042 
L 74.251643 72.969336 
L 74.304008 72.330013 
L 74.455865 72.330013 
L 74.555357 77.4446 
L 74.571066 75.952846 
L 74.581539 75.952846 
L 74.696741 75.100414 
L 74.848598 75.100414 
L 74.880017 77.657708 
L 74.958564 76.805277 
L 75.141839 76.805277 
L 75.257041 79.362571 
L 75.267514 79.362571 
L 75.387952 84.477159 
L 75.476972 84.477159 
L 75.529336 83.837835 
L 75.534573 86.395129 
L 75.571228 86.395129 
L 75.581701 86.395129 
L 75.696903 85.755805 
L 77.335911 85.755805 
L 77.451113 88.313099 
L 77.681517 88.313099 
L 77.796718 90.870393 
L 78.278472 90.870393 
L 78.393674 90.23107 
L 78.781171 90.23107 
L 78.896373 92.788364 
L 79.556165 92.788364 
L 79.671367 91.935932 
L 80.587745 91.935932 
L 80.702947 94.493226 
L 83.19026 94.493226 
L 83.305462 97.05052 
L 84.750722 97.05052 
L 84.865923 96.198089 
L 84.981125 96.198089 
L 85.096327 95.558765 
L 115.022628 95.558765 
L 115.13783 98.116059 
L 168.701457 98.116059 
L 168.816659 100.673353 
L 174.602934 100.673353 
L 174.723373 99.181598 
L 271.126382 99.181598 
L 271.241584 98.329167 
L 321.155407 98.329167 
L 321.270609 100.886461 
L 398.487273 100.886461 
L 398.487273 100.886461 
" clip-path="url(#pfc04ca959a)" style="fill: none; stroke: #d62728; stroke-width: 1.5; stroke-linecap: square"/>
   </g>
   <g id="line2d_16">
    <path d="M 73.832727 62.100837 
L 73.837964 62.100837 
L 73.958402 60.82219 
L 74.125968 60.82219 
L 74.24117 59.969759 
L 398.487273 59.969759 
L 398.487273 59.969759 
" clip-path="url(#pfc04ca959a)" style="fill: none; stroke: #9467bd; stroke-width: 1.5; stroke-linecap: square"/>
   </g>
   <g id="line2d_17">
    <path d="M 73.832727 62.100837 
L 73.885092 62.100837 
L 74.00553 60.395975 
L 74.063131 60.395975 
L 74.178333 59.543543 
L 74.246407 59.543543 
L 74.361609 58.691112 
L 77.335911 58.691112 
L 77.451113 57.412465 
L 79.639948 57.412465 
L 79.75515 56.560034 
L 83.509683 56.560034 
L 83.624885 55.707603 
L 134.250865 55.707603 
L 134.366067 54.855171 
L 295.187861 54.855171 
L 295.303063 53.576524 
L 398.487273 53.576524 
L 398.487273 53.576524 
" clip-path="url(#pfc04ca959a)" style="fill: none; stroke: #8c564b; stroke-width: 1.5; stroke-linecap: square"/>
   </g>
   <g id="line2d_18">
    <path d="M 73.832727 62.100837 
L 73.968875 58.90422 
L 74.125968 58.90422 
L 74.24117 58.051789 
L 74.838125 58.051789 
L 74.953327 55.494495 
L 75.482208 55.494495 
L 75.59741 52.937201 
L 80.47778 52.937201 
L 80.592982 52.08477 
L 82.986039 52.08477 
L 83.10124 49.527476 
L 114.708441 49.527476 
L 114.823643 46.970182 
L 398.487273 46.970182 
L 398.487273 46.970182 
" clip-path="url(#pfc04ca959a)" style="fill: none; stroke: #e377c2; stroke-width: 1.5; stroke-linecap: square"/>
   </g>
   <g id="line2d_19">
    <path d="M 73.832727 62.100837 
L 73.906038 77.4446 
L 73.968875 76.592169 
L 73.989821 76.592169 
L 74.125968 73.182444 
L 74.24117 75.739738 
L 74.251643 75.739738 
L 74.366845 75.100414 
L 74.455865 75.100414 
L 74.571066 73.821767 
L 74.743869 73.821767 
L 74.838125 72.969336 
L 74.843362 75.52663 
L 75.141839 75.52663 
L 75.257041 74.247983 
L 75.340824 74.247983 
L 75.456026 72.969336 
L 75.482208 72.969336 
L 75.59741 75.52663 
L 78.781171 75.52663 
L 78.896373 74.247983 
L 80.47778 74.247983 
L 80.587745 76.805277 
L 80.702947 75.52663 
L 82.986039 75.52663 
L 83.10124 78.083924 
L 114.708441 78.083924 
L 114.823643 80.641218 
L 115.022628 80.641218 
L 115.13783 79.362571 
L 321.155407 79.362571 
L 321.270609 78.083924 
L 398.487273 78.083924 
L 398.487273 78.083924 
" clip-path="url(#pfc04ca959a)" style="fill: none; stroke: #7f7f7f; stroke-width: 1.5; stroke-linecap: square"/>
   </g>
   <g id="line2d_20">
    <path d="M 73.832727 64.658131 
L 73.8432 63.379484 
L 73.890328 69.133395 
L 73.895565 67.854748 
L 73.989821 78.51014 
L 74.026476 78.297032 
L 74.063131 75.100414 
L 74.157387 75.52663 
L 74.194042 75.52663 
L 74.251643 80.641218 
L 74.309244 78.723247 
L 74.335426 78.723247 
L 74.440155 77.4446 
L 74.555357 87.673776 
L 74.56583 86.821345 
L 74.686268 85.32959 
L 74.743869 85.32959 
L 74.785761 84.477159 
L 74.790997 87.034452 
L 74.848598 85.755805 
L 74.880017 88.313099 
L 74.948091 84.903374 
L 74.953327 84.903374 
L 75.141839 84.903374 
L 75.257041 87.460668 
L 75.267514 87.460668 
L 75.346061 91.296609 
L 75.382716 90.017962 
L 75.408898 90.017962 
L 75.5241 88.099992 
L 75.529336 88.099992 
L 75.539809 90.657285 
L 75.592174 87.460668 
L 75.634065 87.460668 
L 75.733558 87.460668 
L 75.84876 86.182021 
L 75.901124 86.182021 
L 75.932543 88.739315 
L 76.01109 87.460668 
L 76.016326 87.460668 
L 76.131528 86.182021 
L 76.922232 86.182021 
L 77.037434 88.739315 
L 77.335911 88.739315 
L 77.44064 91.296609 
L 77.445876 90.017962 
L 77.665807 90.017962 
L 77.781009 93.853903 
L 77.807191 93.853903 
L 77.92763 91.296609 
L 78.278472 91.296609 
L 78.393674 90.657285 
L 78.639787 90.657285 
L 78.645023 93.214579 
L 78.702624 89.378638 
L 78.744516 89.378638 
L 78.781171 89.378638 
L 78.896373 91.935932 
L 79.053466 91.935932 
L 79.168668 94.493226 
L 79.173904 94.493226 
L 79.289106 93.214579 
L 79.451436 93.214579 
L 79.556165 98.329167 
L 79.566638 96.198089 
L 79.639948 96.198089 
L 79.697549 98.755383 
L 79.749914 97.476736 
L 80.47778 97.476736 
L 80.598218 102.591323 
L 81.158518 102.591323 
L 81.27372 101.312677 
L 82.074897 101.312677 
L 82.190098 100.03403 
L 83.19026 100.03403 
L 83.305462 102.591323 
L 83.509683 102.591323 
L 83.624885 105.148617 
L 84.750722 105.148617 
L 84.865923 104.296186 
L 84.981125 104.296186 
L 85.096327 103.656863 
L 86.164563 103.656863 
L 86.279764 102.804431 
L 87.075705 102.804431 
L 87.190906 101.525784 
L 91.647124 101.525784 
L 91.762326 100.247137 
L 94.029708 100.247137 
L 94.144909 99.394706 
L 94.155382 99.394706 
L 94.270584 101.952 
L 95.841519 101.952 
L 95.95672 100.673353 
L 115.022628 100.673353 
L 115.13783 103.230647 
L 129.009181 103.230647 
L 129.124383 105.787941 
L 133.156448 105.787941 
L 133.27165 104.509294 
L 133.329251 104.509294 
L 133.444452 103.230647 
L 133.606782 103.230647 
L 133.721984 101.952 
L 134.250865 101.952 
L 134.366067 104.509294 
L 150.441963 104.509294 
L 150.557165 103.230647 
L 168.701457 103.230647 
L 168.816659 105.787941 
L 174.602934 105.787941 
L 174.723373 104.296186 
L 231.245593 104.296186 
L 231.360795 103.017539 
L 271.126382 103.017539 
L 271.241584 102.165108 
L 295.187861 102.165108 
L 295.303063 104.722402 
L 306.708047 104.722402 
L 306.823249 107.279696 
L 321.155407 107.279696 
L 321.270609 109.836989 
L 332.220022 109.836989 
L 332.335224 108.558342 
L 398.487273 108.558342 
L 398.487273 108.558342 
" clip-path="url(#pfc04ca959a)" style="fill: none; stroke: #bcbd22; stroke-width: 1.5; stroke-linecap: square"/>
   </g>
   <g id="line2d_21">
    <path d="M 73.832727 64.658131 
L 73.8432 63.379484 
L 73.885092 69.133395 
L 73.979348 79.788786 
L 74.010767 77.870816 
L 74.125968 70.838258 
L 74.136441 73.395552 
L 74.194042 73.395552 
L 74.251643 75.952846 
L 74.304008 74.034875 
L 74.335426 74.034875 
L 74.440155 72.756228 
L 74.555357 79.149463 
L 74.560594 78.297032 
L 74.56583 78.297032 
L 74.681032 77.657708 
L 74.743869 77.657708 
L 74.785761 76.805277 
L 74.790997 79.362571 
L 74.848598 78.083924 
L 74.89049 80.641218 
L 74.958564 78.083924 
L 75.141839 78.083924 
L 75.257041 76.805277 
L 75.267514 76.805277 
L 75.293696 79.362571 
L 75.377479 76.805277 
L 75.476972 76.805277 
L 75.529336 76.165953 
L 75.534573 78.723247 
L 75.581701 77.4446 
L 75.733558 77.4446 
L 75.84876 76.165953 
L 75.901124 76.165953 
L 75.932543 78.723247 
L 76.01109 77.4446 
L 76.016326 77.4446 
L 76.131528 76.165953 
L 76.922232 76.165953 
L 77.037434 78.723247 
L 77.44064 78.723247 
L 77.555842 77.4446 
L 77.665807 77.4446 
L 77.781009 81.280541 
L 77.807191 81.280541 
L 77.922393 80.001894 
L 78.639787 80.001894 
L 78.645023 82.559188 
L 78.749752 80.001894 
L 78.781171 80.001894 
L 78.896373 78.723247 
L 79.053466 78.723247 
L 79.168668 81.280541 
L 79.173904 81.280541 
L 79.289106 80.001894 
L 79.451436 80.001894 
L 79.556165 85.116482 
L 79.566638 82.985404 
L 79.697549 82.985404 
L 79.812751 81.706757 
L 80.47778 81.706757 
L 80.598218 79.575679 
L 82.074897 79.575679 
L 82.190098 78.297032 
L 83.19026 78.297032 
L 83.305462 80.854326 
L 84.750722 80.854326 
L 84.865923 80.001894 
L 86.164563 80.001894 
L 86.279764 79.149463 
L 94.029708 79.149463 
L 94.144909 78.297032 
L 94.155382 78.297032 
L 94.270584 80.854326 
L 95.841519 80.854326 
L 95.95672 79.575679 
L 115.022628 79.575679 
L 115.13783 78.297032 
L 129.009181 78.297032 
L 129.124383 80.854326 
L 133.329251 80.854326 
L 133.444452 79.575679 
L 133.606782 79.575679 
L 133.721984 78.297032 
L 168.701457 78.297032 
L 168.816659 80.854326 
L 174.602934 80.854326 
L 174.723373 79.362571 
L 271.126382 79.362571 
L 271.241584 78.51014 
L 306.708047 78.51014 
L 306.823249 81.067433 
L 321.155407 81.067433 
L 321.270609 79.788786 
L 332.220022 79.788786 
L 332.335224 78.51014 
L 398.487273 78.51014 
L 398.487273 78.51014 
" clip-path="url(#pfc04ca959a)" style="fill: none; stroke: #17becf; stroke-width: 1.5; stroke-linecap: square"/>
   </g>
   <g id="line2d_22">
    <path d="M 73.832727 62.100837 
L 73.885092 62.100837 
L 74.00553 67.215425 
L 74.063131 67.215425 
L 74.178333 69.772719 
L 74.246407 69.772719 
L 74.361609 72.330013 
L 77.335911 72.330013 
L 77.451113 74.887307 
L 79.639948 74.887307 
L 79.75515 77.4446 
L 83.509683 77.4446 
L 83.624885 80.001894 
L 134.250865 80.001894 
L 134.366067 82.559188 
L 295.187861 82.559188 
L 295.303063 85.116482 
L 398.487273 85.116482 
L 398.487273 85.116482 
" clip-path="url(#pfc04ca959a)" style="fill: none; stroke: #1f77b4; stroke-width: 1.5; stroke-linecap: square"/>
   </g>
   <g id="line2d_23">
    <path d="M 73.832727 64.658131 
L 73.879855 61.461514 
L 73.848437 66.576101 
L 73.926983 66.576101 
L 73.963638 66.576101 
L 73.968875 69.133395 
L 74.073604 66.576101 
L 74.487283 66.576101 
L 74.602485 69.133395 
L 74.785761 69.133395 
L 74.900963 71.690689 
L 288.045346 71.690689 
L 288.160548 74.247983 
L 398.487273 74.247983 
L 398.487273 74.247983 
" clip-path="url(#pfc04ca959a)" style="fill: none; stroke: #ff7f0e; stroke-width: 1.5; stroke-linecap: square"/>
   </g>
   <g id="patch_3">
    <path d="M 57.6 162.432 
L 57.6 41.472 
" style="fill: none; stroke: #000000; stroke-width: 0.8; stroke-linejoin: miter; stroke-linecap: square"/>
   </g>
   <g id="patch_4">
    <path d="M 414.72 162.432 
L 414.72 41.472 
" style="fill: none; stroke: #000000; stroke-width: 0.8; stroke-linejoin: miter; stroke-linecap: square"/>
   </g>
   <g id="patch_5">
    <path d="M 57.6 162.432 
L 414.72 162.432 
" style="fill: none; stroke: #000000; stroke-width: 0.8; stroke-linejoin: miter; stroke-linecap: square"/>
   </g>
   <g id="patch_6">
    <path d="M 57.6 41.472 
L 414.72 41.472 
" style="fill: none; stroke: #000000; stroke-width: 0.8; stroke-linejoin: miter; stroke-linecap: square"/>
   </g>
   <g id="text_12">
    <!-- WSP -->
    <g transform="translate(361.832136 156.933818)scale(0.08 -0.08)">
     <defs>
      <path id="DejaVuSans-57" d="M 213 4666 
L 850 4666 
L 1831 722 
L 2809 4666 
L 3519 4666 
L 4500 722 
L 5478 4666 
L 6119 4666 
L 4947 0 
L 4153 0 
L 3169 4050 
L 2175 0 
L 1381 0 
L 213 4666 
z
" transform="scale(0.015625)"/>
      <path id="DejaVuSans-53" d="M 3425 4513 
L 3425 3897 
Q 3066 4069 2747 4153 
Q 2428 4238 2131 4238 
Q 1616 4238 1336 4038 
Q 1056 3838 1056 3469 
Q 1056 3159 1242 3001 
Q 1428 2844 1947 2747 
L 2328 2669 
Q 3034 2534 3370 2195 
Q 3706 1856 3706 1288 
Q 3706 609 3251 259 
Q 2797 -91 1919 -91 
Q 1588 -91 1214 -16 
Q 841 59 441 206 
L 441 856 
Q 825 641 1194 531 
Q 1563 422 1919 422 
Q 2459 422 2753 634 
Q 3047 847 3047 1241 
Q 3047 1584 2836 1778 
Q 2625 1972 2144 2069 
L 1759 2144 
Q 1053 2284 737 2584 
Q 422 2884 422 3419 
Q 422 4038 858 4394 
Q 1294 4750 2059 4750 
Q 2388 4750 2728 4690 
Q 3069 4631 3425 4513 
z
" transform="scale(0.015625)"/>
      <path id="DejaVuSans-50" d="M 1259 4147 
L 1259 2394 
L 2053 2394 
Q 2494 2394 2734 2622 
Q 2975 2850 2975 3272 
Q 2975 3691 2734 3919 
Q 2494 4147 2053 4147 
L 1259 4147 
z
M 628 4666 
L 2053 4666 
Q 2838 4666 3239 4311 
Q 3641 3956 3641 3272 
Q 3641 2581 3239 2228 
Q 2838 1875 2053 1875 
L 1259 1875 
L 1259 0 
L 628 0 
L 628 4666 
z
" transform="scale(0.015625)"/>
     </defs>
     <use xlink:href="#DejaVuSans-57"/>
     <use xlink:href="#DejaVuSans-53" x="98.876953"/>
     <use xlink:href="#DejaVuSans-50" x="162.353516"/>
    </g>
   </g>
   <g id="text_13">
    <!-- Iambic -->
    <g transform="translate(361.832136 130.082233)scale(0.08 -0.08)">
     <defs>
      <path id="DejaVuSans-49" d="M 628 4666 
L 1259 4666 
L 1259 0 
L 628 0 
L 628 4666 
z
" transform="scale(0.015625)"/>
      <path id="DejaVuSans-61" d="M 2194 1759 
Q 1497 1759 1228 1600 
Q 959 1441 959 1056 
Q 959 750 1161 570 
Q 1363 391 1709 391 
Q 2188 391 2477 730 
Q 2766 1069 2766 1631 
L 2766 1759 
L 2194 1759 
z
M 3341 1997 
L 3341 0 
L 2766 0 
L 2766 531 
Q 2569 213 2275 61 
Q 1981 -91 1556 -91 
Q 1019 -91 701 211 
Q 384 513 384 1019 
Q 384 1609 779 1909 
Q 1175 2209 1959 2209 
L 2766 2209 
L 2766 2266 
Q 2766 2663 2505 2880 
Q 2244 3097 1772 3097 
Q 1472 3097 1187 3025 
Q 903 2953 641 2809 
L 641 3341 
Q 956 3463 1253 3523 
Q 1550 3584 1831 3584 
Q 2591 3584 2966 3190 
Q 3341 2797 3341 1997 
z
" transform="scale(0.015625)"/>
      <path id="DejaVuSans-6d" d="M 3328 2828 
Q 3544 3216 3844 3400 
Q 4144 3584 4550 3584 
Q 5097 3584 5394 3201 
Q 5691 2819 5691 2113 
L 5691 0 
L 5113 0 
L 5113 2094 
Q 5113 2597 4934 2840 
Q 4756 3084 4391 3084 
Q 3944 3084 3684 2787 
Q 3425 2491 3425 1978 
L 3425 0 
L 2847 0 
L 2847 2094 
Q 2847 2600 2669 2842 
Q 2491 3084 2119 3084 
Q 1678 3084 1418 2786 
Q 1159 2488 1159 1978 
L 1159 0 
L 581 0 
L 581 3500 
L 1159 3500 
L 1159 2956 
Q 1356 3278 1631 3431 
Q 1906 3584 2284 3584 
Q 2666 3584 2933 3390 
Q 3200 3197 3328 2828 
z
" transform="scale(0.015625)"/>
      <path id="DejaVuSans-62" d="M 3116 1747 
Q 3116 2381 2855 2742 
Q 2594 3103 2138 3103 
Q 1681 3103 1420 2742 
Q 1159 2381 1159 1747 
Q 1159 1113 1420 752 
Q 1681 391 2138 391 
Q 2594 391 2855 752 
Q 3116 1113 3116 1747 
z
M 1159 2969 
Q 1341 3281 1617 3432 
Q 1894 3584 2278 3584 
Q 2916 3584 3314 3078 
Q 3713 2572 3713 1747 
Q 3713 922 3314 415 
Q 2916 -91 2278 -91 
Q 1894 -91 1617 61 
Q 1341 213 1159 525 
L 1159 0 
L 581 0 
L 581 4863 
L 1159 4863 
L 1159 2969 
z
" transform="scale(0.015625)"/>
      <path id="DejaVuSans-69" d="M 603 3500 
L 1178 3500 
L 1178 0 
L 603 0 
L 603 3500 
z
M 603 4863 
L 1178 4863 
L 1178 4134 
L 603 4134 
L 603 4863 
z
" transform="scale(0.015625)"/>
      <path id="DejaVuSans-63" d="M 3122 3366 
L 3122 2828 
Q 2878 2963 2633 3030 
Q 2388 3097 2138 3097 
Q 1578 3097 1268 2742 
Q 959 2388 959 1747 
Q 959 1106 1268 751 
Q 1578 397 2138 397 
Q 2388 397 2633 464 
Q 2878 531 3122 666 
L 3122 134 
Q 2881 22 2623 -34 
Q 2366 -91 2075 -91 
Q 1284 -91 818 406 
Q 353 903 353 1747 
Q 353 2603 823 3093 
Q 1294 3584 2113 3584 
Q 2378 3584 2631 3529 
Q 2884 3475 3122 3366 
z
" transform="scale(0.015625)"/>
     </defs>
     <use xlink:href="#DejaVuSans-49"/>
     <use xlink:href="#DejaVuSans-61" x="29.492188"/>
     <use xlink:href="#DejaVuSans-6d" x="90.771484"/>
     <use xlink:href="#DejaVuSans-62" x="188.183594"/>
     <use xlink:href="#DejaVuSans-69" x="251.660156"/>
     <use xlink:href="#DejaVuSans-63" x="279.443359"/>
    </g>
   </g>
   <g id="text_14">
    <!-- Parse -->
    <g transform="translate(361.832136 107.279696)scale(0.08 -0.08)">
     <defs>
      <path id="DejaVuSans-72" d="M 2631 2963 
Q 2534 3019 2420 3045 
Q 2306 3072 2169 3072 
Q 1681 3072 1420 2755 
Q 1159 2438 1159 1844 
L 1159 0 
L 581 0 
L 581 3500 
L 1159 3500 
L 1159 2956 
Q 1341 3275 1631 3429 
Q 1922 3584 2338 3584 
Q 2397 3584 2469 3576 
Q 2541 3569 2628 3553 
L 2631 2963 
z
" transform="scale(0.015625)"/>
      <path id="DejaVuSans-73" d="M 2834 3397 
L 2834 2853 
Q 2591 2978 2328 3040 
Q 2066 3103 1784 3103 
Q 1356 3103 1142 2972 
Q 928 2841 928 2578 
Q 928 2378 1081 2264 
Q 1234 2150 1697 2047 
L 1894 2003 
Q 2506 1872 2764 1633 
Q 3022 1394 3022 966 
Q 3022 478 2636 193 
Q 2250 -91 1575 -91 
Q 1294 -91 989 -36 
Q 684 19 347 128 
L 347 722 
Q 666 556 975 473 
Q 1284 391 1588 391 
Q 1994 391 2212 530 
Q 2431 669 2431 922 
Q 2431 1156 2273 1281 
Q 2116 1406 1581 1522 
L 1381 1569 
Q 847 1681 609 1914 
Q 372 2147 372 2553 
Q 372 3047 722 3315 
Q 1072 3584 1716 3584 
Q 2034 3584 2315 3537 
Q 2597 3491 2834 3397 
z
" transform="scale(0.015625)"/>
      <path id="DejaVuSans-65" d="M 3597 1894 
L 3597 1613 
L 953 1613 
Q 991 1019 1311 708 
Q 1631 397 2203 397 
Q 2534 397 2845 478 
Q 3156 559 3463 722 
L 3463 178 
Q 3153 47 2828 -22 
Q 2503 -91 2169 -91 
Q 1331 -91 842 396 
Q 353 884 353 1716 
Q 353 2575 817 3079 
Q 1281 3584 2069 3584 
Q 2775 3584 3186 3129 
Q 3597 2675 3597 1894 
z
M 3022 2063 
Q 3016 2534 2758 2815 
Q 2500 3097 2075 3097 
Q 1594 3097 1305 2825 
Q 1016 2553 972 2059 
L 3022 2063 
z
" transform="scale(0.015625)"/>
     </defs>
     <use xlink:href="#DejaVuSans-50"/>
     <use xlink:href="#DejaVuSans-61" x="55.802734"/>
     <use xlink:href="#DejaVuSans-72" x="117.082031"/>
     <use xlink:href="#DejaVuSans-73" x="158.195312"/>
     <use xlink:href="#DejaVuSans-65" x="210.294922"/>
    </g>
   </g>
   <g id="text_15">
    <!-- FootBin -->
    <g transform="translate(361.832136 100.886461)scale(0.08 -0.08)">
     <defs>
      <path id="DejaVuSans-46" d="M 628 4666 
L 3309 4666 
L 3309 4134 
L 1259 4134 
L 1259 2759 
L 3109 2759 
L 3109 2228 
L 1259 2228 
L 1259 0 
L 628 0 
L 628 4666 
z
" transform="scale(0.015625)"/>
      <path id="DejaVuSans-6f" d="M 1959 3097 
Q 1497 3097 1228 2736 
Q 959 2375 959 1747 
Q 959 1119 1226 758 
Q 1494 397 1959 397 
Q 2419 397 2687 759 
Q 2956 1122 2956 1747 
Q 2956 2369 2687 2733 
Q 2419 3097 1959 3097 
z
M 1959 3584 
Q 2709 3584 3137 3096 
Q 3566 2609 3566 1747 
Q 3566 888 3137 398 
Q 2709 -91 1959 -91 
Q 1206 -91 779 398 
Q 353 888 353 1747 
Q 353 2609 779 3096 
Q 1206 3584 1959 3584 
z
" transform="scale(0.015625)"/>
      <path id="DejaVuSans-74" d="M 1172 4494 
L 1172 3500 
L 2356 3500 
L 2356 3053 
L 1172 3053 
L 1172 1153 
Q 1172 725 1289 603 
Q 1406 481 1766 481 
L 2356 481 
L 2356 0 
L 1766 0 
Q 1100 0 847 248 
Q 594 497 594 1153 
L 594 3053 
L 172 3053 
L 172 3500 
L 594 3500 
L 594 4494 
L 1172 4494 
z
" transform="scale(0.015625)"/>
      <path id="DejaVuSans-42" d="M 1259 2228 
L 1259 519 
L 2272 519 
Q 2781 519 3026 730 
Q 3272 941 3272 1375 
Q 3272 1813 3026 2020 
Q 2781 2228 2272 2228 
L 1259 2228 
z
M 1259 4147 
L 1259 2741 
L 2194 2741 
Q 2656 2741 2882 2914 
Q 3109 3088 3109 3444 
Q 3109 3797 2882 3972 
Q 2656 4147 2194 4147 
L 1259 4147 
z
M 628 4666 
L 2241 4666 
Q 2963 4666 3353 4366 
Q 3744 4066 3744 3513 
Q 3744 3084 3544 2831 
Q 3344 2578 2956 2516 
Q 3422 2416 3680 2098 
Q 3938 1781 3938 1306 
Q 3938 681 3513 340 
Q 3088 0 2303 0 
L 628 0 
L 628 4666 
z
" transform="scale(0.015625)"/>
      <path id="DejaVuSans-6e" d="M 3513 2113 
L 3513 0 
L 2938 0 
L 2938 2094 
Q 2938 2591 2744 2837 
Q 2550 3084 2163 3084 
Q 1697 3084 1428 2787 
Q 1159 2491 1159 1978 
L 1159 0 
L 581 0 
L 581 3500 
L 1159 3500 
L 1159 2956 
Q 1366 3272 1645 3428 
Q 1925 3584 2291 3584 
Q 2894 3584 3203 3211 
Q 3513 2838 3513 2113 
z
" transform="scale(0.015625)"/>
     </defs>
     <use xlink:href="#DejaVuSans-46"/>
     <use xlink:href="#DejaVuSans-6f" x="53.894531"/>
     <use xlink:href="#DejaVuSans-6f" x="115.076172"/>
     <use xlink:href="#DejaVuSans-74" x="176.257812"/>
     <use xlink:href="#DejaVuSans-42" x="215.466797"/>
     <use xlink:href="#DejaVuSans-69" x="284.070312"/>
     <use xlink:href="#DejaVuSans-6e" x="311.853516"/>
    </g>
   </g>
   <g id="text_16">
    <!-- WFL -->
    <g transform="translate(361.832136 59.969759)scale(0.08 -0.08)">
     <defs>
      <path id="DejaVuSans-4c" d="M 628 4666 
L 1259 4666 
L 1259 531 
L 3531 531 
L 3531 0 
L 628 0 
L 628 4666 
z
" transform="scale(0.015625)"/>
     </defs>
     <use xlink:href="#DejaVuSans-57"/>
     <use xlink:href="#DejaVuSans-46" x="98.876953"/>
     <use xlink:href="#DejaVuSans-4c" x="156.396484"/>
    </g>
   </g>
   <g id="text_17">
    <!-- WFR -->
    <g transform="translate(361.832136 53.576524)scale(0.08 -0.08)">
     <defs>
      <path id="DejaVuSans-52" d="M 2841 2188 
Q 3044 2119 3236 1894 
Q 3428 1669 3622 1275 
L 4263 0 
L 3584 0 
L 2988 1197 
Q 2756 1666 2539 1819 
Q 2322 1972 1947 1972 
L 1259 1972 
L 1259 0 
L 628 0 
L 628 4666 
L 2053 4666 
Q 2853 4666 3247 4331 
Q 3641 3997 3641 3322 
Q 3641 2881 3436 2590 
Q 3231 2300 2841 2188 
z
M 1259 4147 
L 1259 2491 
L 2053 2491 
Q 2509 2491 2742 2702 
Q 2975 2913 2975 3322 
Q 2975 3731 2742 3939 
Q 2509 4147 2053 4147 
L 1259 4147 
z
" transform="scale(0.015625)"/>
     </defs>
     <use xlink:href="#DejaVuSans-57"/>
     <use xlink:href="#DejaVuSans-46" x="98.876953"/>
     <use xlink:href="#DejaVuSans-52" x="156.396484"/>
    </g>
   </g>
   <g id="text_18">
    <!-- Main-L -->
    <g transform="translate(361.832136 46.970182)scale(0.08 -0.08)">
     <defs>
      <path id="DejaVuSans-4d" d="M 628 4666 
L 1569 4666 
L 2759 1491 
L 3956 4666 
L 4897 4666 
L 4897 0 
L 4281 0 
L 4281 4097 
L 3078 897 
L 2444 897 
L 1241 4097 
L 1241 0 
L 628 0 
L 628 4666 
z
" transform="scale(0.015625)"/>
      <path id="DejaVuSans-2d" d="M 313 2009 
L 1997 2009 
L 1997 1497 
L 313 1497 
L 313 2009 
z
" transform="scale(0.015625)"/>
     </defs>
     <use xlink:href="#DejaVuSans-4d"/>
     <use xlink:href="#DejaVuSans-61" x="86.279297"/>
     <use xlink:href="#DejaVuSans-69" x="147.558594"/>
     <use xlink:href="#DejaVuSans-6e" x="175.341797"/>
     <use xlink:href="#DejaVuSans-2d" x="238.720703"/>
     <use xlink:href="#DejaVuSans-4c" x="274.804688"/>
    </g>
   </g>
   <g id="text_19">
    <!-- Main-R -->
    <g transform="translate(361.832136 78.083924)scale(0.08 -0.08)">
     <use xlink:href="#DejaVuSans-4d"/>
     <use xlink:href="#DejaVuSans-61" x="86.279297"/>
     <use xlink:href="#DejaVuSans-69" x="147.558594"/>
     <use xlink:href="#DejaVuSans-6e" x="175.341797"/>
     <use xlink:href="#DejaVuSans-2d" x="238.720703"/>
     <use xlink:href="#DejaVuSans-52" x="274.804688"/>
    </g>
   </g>
   <g id="text_20">
    <!-- AFL -->
    <g transform="translate(361.832136 108.558342)scale(0.08 -0.08)">
     <defs>
      <path id="DejaVuSans-41" d="M 2188 4044 
L 1331 1722 
L 3047 1722 
L 2188 4044 
z
M 1831 4666 
L 2547 4666 
L 4325 0 
L 3669 0 
L 3244 1197 
L 1141 1197 
L 716 0 
L 50 0 
L 1831 4666 
z
" transform="scale(0.015625)"/>
     </defs>
     <use xlink:href="#DejaVuSans-41"/>
     <use xlink:href="#DejaVuSans-46" x="68.408203"/>
     <use xlink:href="#DejaVuSans-4c" x="125.927734"/>
    </g>
   </g>
   <g id="text_21">
    <!-- AFR -->
    <g transform="translate(361.832136 78.51014)scale(0.08 -0.08)">
     <use xlink:href="#DejaVuSans-41"/>
     <use xlink:href="#DejaVuSans-46" x="68.408203"/>
     <use xlink:href="#DejaVuSans-52" x="125.927734"/>
    </g>
   </g>
   <g id="text_22">
    <!-- Nonfinal -->
    <g transform="translate(361.832136 85.116482)scale(0.08 -0.08)">
     <defs>
      <path id="DejaVuSans-4e" d="M 628 4666 
L 1478 4666 
L 3547 763 
L 3547 4666 
L 4159 4666 
L 4159 0 
L 3309 0 
L 1241 3903 
L 1241 0 
L 628 0 
L 628 4666 
z
" transform="scale(0.015625)"/>
      <path id="DejaVuSans-66" d="M 2375 4863 
L 2375 4384 
L 1825 4384 
Q 1516 4384 1395 4259 
Q 1275 4134 1275 3809 
L 1275 3500 
L 2222 3500 
L 2222 3053 
L 1275 3053 
L 1275 0 
L 697 0 
L 697 3053 
L 147 3053 
L 147 3500 
L 697 3500 
L 697 3744 
Q 697 4328 969 4595 
Q 1241 4863 1831 4863 
L 2375 4863 
z
" transform="scale(0.015625)"/>
      <path id="DejaVuSans-6c" d="M 603 4863 
L 1178 4863 
L 1178 0 
L 603 0 
L 603 4863 
z
" transform="scale(0.015625)"/>
     </defs>
     <use xlink:href="#DejaVuSans-4e"/>
     <use xlink:href="#DejaVuSans-6f" x="74.804688"/>
     <use xlink:href="#DejaVuSans-6e" x="135.986328"/>
     <use xlink:href="#DejaVuSans-66" x="199.365234"/>
     <use xlink:href="#DejaVuSans-69" x="234.570312"/>
     <use xlink:href="#DejaVuSans-6e" x="262.353516"/>
     <use xlink:href="#DejaVuSans-61" x="325.732422"/>
     <use xlink:href="#DejaVuSans-6c" x="387.011719"/>
    </g>
   </g>
   <g id="text_23">
    <!-- Trochaic -->
    <g transform="translate(361.832136 74.247983)scale(0.08 -0.08)">
     <defs>
      <path id="DejaVuSans-54" d="M -19 4666 
L 3928 4666 
L 3928 4134 
L 2272 4134 
L 2272 0 
L 1638 0 
L 1638 4134 
L -19 4134 
L -19 4666 
z
" transform="scale(0.015625)"/>
      <path id="DejaVuSans-68" d="M 3513 2113 
L 3513 0 
L 2938 0 
L 2938 2094 
Q 2938 2591 2744 2837 
Q 2550 3084 2163 3084 
Q 1697 3084 1428 2787 
Q 1159 2491 1159 1978 
L 1159 0 
L 581 0 
L 581 4863 
L 1159 4863 
L 1159 2956 
Q 1366 3272 1645 3428 
Q 1925 3584 2291 3584 
Q 2894 3584 3203 3211 
Q 3513 2838 3513 2113 
z
" transform="scale(0.015625)"/>
     </defs>
     <use xlink:href="#DejaVuSans-54"/>
     <use xlink:href="#DejaVuSans-72" x="46.333984"/>
     <use xlink:href="#DejaVuSans-6f" x="85.197266"/>
     <use xlink:href="#DejaVuSans-63" x="146.378906"/>
     <use xlink:href="#DejaVuSans-68" x="201.359375"/>
     <use xlink:href="#DejaVuSans-61" x="264.738281"/>
     <use xlink:href="#DejaVuSans-69" x="326.017578"/>
     <use xlink:href="#DejaVuSans-63" x="353.800781"/>
    </g>
   </g>
  </g>
  <g id="axes_2">
   <g id="patch_7">
    <path d="M 57.6 307.584 
L 414.72 307.584 
L 414.72 186.624 
L 57.6 186.624 
z
" style="fill: #ffffff"/>
   </g>
   <g id="matplotlib.axis_3">
    <g id="xtick_8">
     <g id="line2d_24">
      <g>
       <use xlink:href="#m0940ab93e9" x="71.235491" y="307.584" style="stroke: #000000; stroke-width: 0.8"/>
      </g>
     </g>
     <g id="text_24">
      <!-- 0 -->
      <g transform="translate(68.054241 322.182437)scale(0.1 -0.1)">
       <use xlink:href="#DejaVuSans-30"/>
      </g>
     </g>
    </g>
    <g id="xtick_9">
     <g id="line2d_25">
      <g>
       <use xlink:href="#m0940ab93e9" x="123.180218" y="307.584" style="stroke: #000000; stroke-width: 0.8"/>
      </g>
     </g>
     <g id="text_25">
      <!-- 20 -->
      <g transform="translate(116.817718 322.182437)scale(0.1 -0.1)">
       <use xlink:href="#DejaVuSans-32"/>
       <use xlink:href="#DejaVuSans-30" x="63.623047"/>
      </g>
     </g>
    </g>
    <g id="xtick_10">
     <g id="line2d_26">
      <g>
       <use xlink:href="#m0940ab93e9" x="175.124945" y="307.584" style="stroke: #000000; stroke-width: 0.8"/>
      </g>
     </g>
     <g id="text_26">
      <!-- 40 -->
      <g transform="translate(168.762445 322.182437)scale(0.1 -0.1)">
       <use xlink:href="#DejaVuSans-34"/>
       <use xlink:href="#DejaVuSans-30" x="63.623047"/>
      </g>
     </g>
    </g>
    <g id="xtick_11">
     <g id="line2d_27">
      <g>
       <use xlink:href="#m0940ab93e9" x="227.069673" y="307.584" style="stroke: #000000; stroke-width: 0.8"/>
      </g>
     </g>
     <g id="text_27">
      <!-- 60 -->
      <g transform="translate(220.707173 322.182437)scale(0.1 -0.1)">
       <use xlink:href="#DejaVuSans-36"/>
       <use xlink:href="#DejaVuSans-30" x="63.623047"/>
      </g>
     </g>
    </g>
    <g id="xtick_12">
     <g id="line2d_28">
      <g>
       <use xlink:href="#m0940ab93e9" x="279.0144" y="307.584" style="stroke: #000000; stroke-width: 0.8"/>
      </g>
     </g>
     <g id="text_28">
      <!-- 80 -->
      <g transform="translate(272.6519 322.182437)scale(0.1 -0.1)">
       <use xlink:href="#DejaVuSans-38"/>
       <use xlink:href="#DejaVuSans-30" x="63.623047"/>
      </g>
     </g>
    </g>
    <g id="xtick_13">
     <g id="line2d_29">
      <g>
       <use xlink:href="#m0940ab93e9" x="330.959127" y="307.584" style="stroke: #000000; stroke-width: 0.8"/>
      </g>
     </g>
     <g id="text_29">
      <!-- 100 -->
      <g transform="translate(321.415377 322.182437)scale(0.1 -0.1)">
       <use xlink:href="#DejaVuSans-31"/>
       <use xlink:href="#DejaVuSans-30" x="63.623047"/>
       <use xlink:href="#DejaVuSans-30" x="127.246094"/>
      </g>
     </g>
    </g>
    <g id="xtick_14">
     <g id="line2d_30">
      <g>
       <use xlink:href="#m0940ab93e9" x="382.903855" y="307.584" style="stroke: #000000; stroke-width: 0.8"/>
      </g>
     </g>
     <g id="text_30">
      <!-- 120 -->
      <g transform="translate(373.360105 322.182437)scale(0.1 -0.1)">
       <use xlink:href="#DejaVuSans-31"/>
       <use xlink:href="#DejaVuSans-32" x="63.623047"/>
       <use xlink:href="#DejaVuSans-30" x="127.246094"/>
      </g>
     </g>
    </g>
   </g>
   <g id="matplotlib.axis_4">
    <g id="ytick_5">
     <g id="line2d_31">
      <g>
       <use xlink:href="#ma3c33de6a5" x="57.6" y="302.095992" style="stroke: #000000; stroke-width: 0.8"/>
      </g>
     </g>
     <g id="text_31">
      <!-- 0 -->
      <g transform="translate(44.2375 305.895211)scale(0.1 -0.1)">
       <use xlink:href="#DejaVuSans-30"/>
      </g>
     </g>
    </g>
    <g id="ytick_6">
     <g id="line2d_32">
      <g>
       <use xlink:href="#ma3c33de6a5" x="57.6" y="281.747429" style="stroke: #000000; stroke-width: 0.8"/>
      </g>
     </g>
     <g id="text_32">
      <!-- 2000 -->
      <g transform="translate(25.15 285.546648)scale(0.1 -0.1)">
       <use xlink:href="#DejaVuSans-32"/>
       <use xlink:href="#DejaVuSans-30" x="63.623047"/>
       <use xlink:href="#DejaVuSans-30" x="127.246094"/>
       <use xlink:href="#DejaVuSans-30" x="190.869141"/>
      </g>
     </g>
    </g>
    <g id="ytick_7">
     <g id="line2d_33">
      <g>
       <use xlink:href="#ma3c33de6a5" x="57.6" y="261.398866" style="stroke: #000000; stroke-width: 0.8"/>
      </g>
     </g>
     <g id="text_33">
      <!-- 4000 -->
      <g transform="translate(25.15 265.198085)scale(0.1 -0.1)">
       <use xlink:href="#DejaVuSans-34"/>
       <use xlink:href="#DejaVuSans-30" x="63.623047"/>
       <use xlink:href="#DejaVuSans-30" x="127.246094"/>
       <use xlink:href="#DejaVuSans-30" x="190.869141"/>
      </g>
     </g>
    </g>
    <g id="ytick_8">
     <g id="line2d_34">
      <g>
       <use xlink:href="#ma3c33de6a5" x="57.6" y="241.050302" style="stroke: #000000; stroke-width: 0.8"/>
      </g>
     </g>
     <g id="text_34">
      <!-- 6000 -->
      <g transform="translate(25.15 244.849521)scale(0.1 -0.1)">
       <use xlink:href="#DejaVuSans-36"/>
       <use xlink:href="#DejaVuSans-30" x="63.623047"/>
       <use xlink:href="#DejaVuSans-30" x="127.246094"/>
       <use xlink:href="#DejaVuSans-30" x="190.869141"/>
      </g>
     </g>
    </g>
    <g id="ytick_9">
     <g id="line2d_35">
      <g>
       <use xlink:href="#ma3c33de6a5" x="57.6" y="220.701739" style="stroke: #000000; stroke-width: 0.8"/>
      </g>
     </g>
     <g id="text_35">
      <!-- 8000 -->
      <g transform="translate(25.15 224.500958)scale(0.1 -0.1)">
       <use xlink:href="#DejaVuSans-38"/>
       <use xlink:href="#DejaVuSans-30" x="63.623047"/>
       <use xlink:href="#DejaVuSans-30" x="127.246094"/>
       <use xlink:href="#DejaVuSans-30" x="190.869141"/>
      </g>
     </g>
    </g>
    <g id="ytick_10">
     <g id="line2d_36">
      <g>
       <use xlink:href="#ma3c33de6a5" x="57.6" y="200.353176" style="stroke: #000000; stroke-width: 0.8"/>
      </g>
     </g>
     <g id="text_36">
      <!-- 10000 -->
      <g transform="translate(18.7875 204.152394)scale(0.1 -0.1)">
       <use xlink:href="#DejaVuSans-31"/>
       <use xlink:href="#DejaVuSans-30" x="63.623047"/>
       <use xlink:href="#DejaVuSans-30" x="127.246094"/>
       <use xlink:href="#DejaVuSans-30" x="190.869141"/>
       <use xlink:href="#DejaVuSans-30" x="254.492188"/>
      </g>
     </g>
    </g>
   </g>
   <g id="line2d_37">
    <path d="M 73.832727 302.085818 
L 76.429964 302.085818 
L 79.0272 302.085818 
L 81.624436 302.085818 
L 84.221673 302.085818 
L 86.818909 302.085818 
L 89.416145 302.085818 
L 92.013382 302.085818 
L 94.610618 302.075644 
L 97.207855 302.085818 
L 99.805091 302.085818 
L 102.402327 302.085818 
L 104.999564 302.075644 
L 107.5968 302.075644 
L 110.194036 302.075644 
L 112.791273 302.06547 
L 115.388509 302.055295 
L 117.985745 302.085818 
L 120.582982 302.075644 
L 123.180218 302.085818 
L 125.777455 302.085818 
L 128.374691 302.055295 
L 130.971927 302.085818 
L 133.569164 302.085818 
L 136.1664 302.085818 
L 138.763636 302.085818 
L 141.360873 302.075644 
L 143.958109 302.06547 
L 146.555345 302.085818 
L 149.152582 302.075644 
L 151.749818 302.034947 
L 154.347055 302.055295 
L 156.944291 301.963727 
L 159.541527 302.075644 
L 162.138764 302.075644 
L 164.736 302.085818 
L 167.333236 302.045121 
L 169.930473 302.085818 
L 172.527709 302.024772 
L 175.124945 302.004424 
L 177.722182 301.892507 
L 180.319418 302.06547 
L 182.916655 302.034947 
L 185.513891 301.973901 
L 188.111127 302.085818 
L 190.708364 302.075644 
L 193.3056 302.06547 
L 195.902836 301.78059 
L 198.500073 302.014598 
L 201.097309 302.045121 
L 203.694545 302.045121 
L 206.291782 302.075644 
L 208.889018 302.034947 
L 211.486255 302.075644 
L 214.083491 301.99425 
L 216.680727 301.70937 
L 219.277964 301.85181 
L 221.8752 302.045121 
L 224.472436 302.004424 
L 227.069673 302.085818 
L 229.666909 301.973901 
L 232.264145 301.963727 
L 234.861382 302.085818 
L 237.458618 302.004424 
L 240.055855 302.075644 
L 242.653091 302.014598 
L 245.250327 302.085818 
L 247.847564 301.811113 
L 250.4448 301.770415 
L 253.042036 302.034947 
L 255.639273 301.933204 
L 258.236509 300.335842 
L 260.833745 301.292224 
L 263.430982 301.892507 
L 266.028218 301.658498 
L 268.625455 302.085818 
L 271.222691 302.075644 
L 273.819927 301.85181 
L 276.417164 302.085818 
L 279.0144 301.190481 
L 281.611636 301.393967 
L 284.208873 302.085818 
L 286.806109 302.085818 
L 289.403345 302.004424 
L 292.000582 301.933204 
L 294.597818 301.56693 
L 297.195055 301.861984 
L 299.792291 301.556756 
L 302.389527 301.902681 
L 304.986764 302.085818 
L 307.584 302.085818 
L 310.181236 301.943378 
L 312.778473 301.984075 
L 315.375709 300.580024 
L 317.972945 301.882333 
L 320.570182 300.986996 
L 323.167418 300.315493 
L 325.764655 300.325667 
L 328.361891 301.699195 
L 330.959127 301.475361 
L 333.556364 299.684688 
L 336.1536 301.648324 
L 338.750836 299.796605 
L 341.348073 300.325667 
L 343.945309 293.213845 
L 346.542545 297.466694 
L 349.139782 301.85181 
L 351.737018 298.819874 
L 354.334255 265.438056 
L 356.931491 301.485536 
L 359.528727 274.920486 
L 362.125964 294.037961 
L 364.7232 301.760241 
L 367.320436 301.556756 
L 369.917673 300.844556 
L 372.514909 270.637114 
L 375.112145 266.618272 
L 377.709382 290.629577 
L 380.306618 302.014598 
L 382.903855 192.122182 
L 385.501091 224.608663 
L 388.098327 269.222888 
L 390.695564 288.218272 
L 393.2928 279.712573 
L 395.890036 274.025149 
L 398.487273 280.597735 
" clip-path="url(#pf843b79b7e)" style="fill: none; stroke: #1f77b4; stroke-width: 1.5; stroke-linecap: square"/>
   </g>
   <g id="patch_8">
    <path d="M 57.6 307.584 
L 57.6 186.624 
" style="fill: none; stroke: #000000; stroke-width: 0.8; stroke-linejoin: miter; stroke-linecap: square"/>
   </g>
   <g id="patch_9">
    <path d="M 414.72 307.584 
L 414.72 186.624 
" style="fill: none; stroke: #000000; stroke-width: 0.8; stroke-linejoin: miter; stroke-linecap: square"/>
   </g>
   <g id="patch_10">
    <path d="M 57.6 307.584 
L 414.72 307.584 
" style="fill: none; stroke: #000000; stroke-width: 0.8; stroke-linejoin: miter; stroke-linecap: square"/>
   </g>
   <g id="patch_11">
    <path d="M 57.6 186.624 
L 414.72 186.624 
" style="fill: none; stroke: #000000; stroke-width: 0.8; stroke-linejoin: miter; stroke-linecap: square"/>
   </g>
  </g>
 </g>
 <defs>
  <clipPath id="pfc04ca959a">
   <rect x="57.6" y="41.472" width="357.12" height="120.96"/>
  </clipPath>
  <clipPath id="pf843b79b7e">
   <rect x="57.6" y="186.624" width="357.12" height="120.96"/>
  </clipPath>
 </defs>
</svg>
