<?xml version="1.0" encoding="utf-8" standalone="no"?>
<!DOCTYPE svg PUBLIC "-//W3C//DTD SVG 1.1//EN"
  "http://www.w3.org/Graphics/SVG/1.1/DTD/svg11.dtd">
<svg xmlns:xlink="http://www.w3.org/1999/xlink" width="460.8pt" height="345.6pt" viewBox="0 0 460.8 345.6" xmlns="http://www.w3.org/2000/svg" version="1.1">
 <metadata>
  <rdf:RDF xmlns:dc="http://purl.org/dc/elements/1.1/" xmlns:cc="http://creativecommons.org/ns#" xmlns:rdf="http://www.w3.org/1999/02/22-rdf-syntax-ns#">
   <cc:Work>
    <dc:type rdf:resource="http://purl.org/dc/dcmitype/StillImage"/>
    <dc:date>2022-05-13T15:20:43.352760</dc:date>
    <dc:format>image/svg+xml</dc:format>
    <dc:creator>
     <cc:Agent>
      <dc:title>Matplotlib v3.5.1, https://matplotlib.org/</dc:title>
     </cc:Agent>
    </dc:creator>
   </cc:Work>
  </rdf:RDF>
 </metadata>
 <defs>
  <style type="text/css">*{stroke-linejoin: round; stroke-linecap: butt}</style>
 </defs>
 <g id="figure_1">
  <g id="patch_1">
   <path d="M 0 345.6 
L 460.8 345.6 
L 460.8 0 
L 0 0 
z
" style="fill: #ffffff"/>
  </g>
  <g id="axes_1">
   <g id="patch_2">
    <path d="M 57.6 162.432 
L 414.72 162.432 
L 414.72 41.472 
L 57.6 41.472 
z
" style="fill: #ffffff"/>
   </g>
   <g id="matplotlib.axis_1">
    <g id="xtick_1">
     <g id="line2d_1">
      <defs>
       <path id="meba1d2a696" d="M 0 0 
L 0 3.5 
" style="stroke: #000000; stroke-width: 0.8"/>
      </defs>
      <g>
       <use xlink:href="#meba1d2a696" x="73.827491" y="162.432" style="stroke: #000000; stroke-width: 0.8"/>
      </g>
     </g>
     <g id="text_1">
      <!-- 0 -->
      <g transform="translate(70.646241 177.030437)scale(0.1 -0.1)">
       <defs>
        <path id="DejaVuSans-30" d="M 2034 4250 
Q 1547 4250 1301 3770 
Q 1056 3291 1056 2328 
Q 1056 1369 1301 889 
Q 1547 409 2034 409 
Q 2525 409 2770 889 
Q 3016 1369 3016 2328 
Q 3016 3291 2770 3770 
Q 2525 4250 2034 4250 
z
M 2034 4750 
Q 2819 4750 3233 4129 
Q 3647 3509 3647 2328 
Q 3647 1150 3233 529 
Q 2819 -91 2034 -91 
Q 1250 -91 836 529 
Q 422 1150 422 2328 
Q 422 3509 836 4129 
Q 1250 4750 2034 4750 
z
" transform="scale(0.015625)"/>
       </defs>
       <use xlink:href="#DejaVuSans-30"/>
      </g>
     </g>
    </g>
    <g id="xtick_2">
     <g id="line2d_2">
      <g>
       <use xlink:href="#meba1d2a696" x="126.191972" y="162.432" style="stroke: #000000; stroke-width: 0.8"/>
      </g>
     </g>
     <g id="text_2">
      <!-- 10000 -->
      <g transform="translate(110.285722 177.030437)scale(0.1 -0.1)">
       <defs>
        <path id="DejaVuSans-31" d="M 794 531 
L 1825 531 
L 1825 4091 
L 703 3866 
L 703 4441 
L 1819 4666 
L 2450 4666 
L 2450 531 
L 3481 531 
L 3481 0 
L 794 0 
L 794 531 
z
" transform="scale(0.015625)"/>
       </defs>
       <use xlink:href="#DejaVuSans-31"/>
       <use xlink:href="#DejaVuSans-30" x="63.623047"/>
       <use xlink:href="#DejaVuSans-30" x="127.246094"/>
       <use xlink:href="#DejaVuSans-30" x="190.869141"/>
       <use xlink:href="#DejaVuSans-30" x="254.492188"/>
      </g>
     </g>
    </g>
    <g id="xtick_3">
     <g id="line2d_3">
      <g>
       <use xlink:href="#meba1d2a696" x="178.556453" y="162.432" style="stroke: #000000; stroke-width: 0.8"/>
      </g>
     </g>
     <g id="text_3">
      <!-- 20000 -->
      <g transform="translate(162.650203 177.030437)scale(0.1 -0.1)">
       <defs>
        <path id="DejaVuSans-32" d="M 1228 531 
L 3431 531 
L 3431 0 
L 469 0 
L 469 531 
Q 828 903 1448 1529 
Q 2069 2156 2228 2338 
Q 2531 2678 2651 2914 
Q 2772 3150 2772 3378 
Q 2772 3750 2511 3984 
Q 2250 4219 1831 4219 
Q 1534 4219 1204 4116 
Q 875 4013 500 3803 
L 500 4441 
Q 881 4594 1212 4672 
Q 1544 4750 1819 4750 
Q 2544 4750 2975 4387 
Q 3406 4025 3406 3419 
Q 3406 3131 3298 2873 
Q 3191 2616 2906 2266 
Q 2828 2175 2409 1742 
Q 1991 1309 1228 531 
z
" transform="scale(0.015625)"/>
       </defs>
       <use xlink:href="#DejaVuSans-32"/>
       <use xlink:href="#DejaVuSans-30" x="63.623047"/>
       <use xlink:href="#DejaVuSans-30" x="127.246094"/>
       <use xlink:href="#DejaVuSans-30" x="190.869141"/>
       <use xlink:href="#DejaVuSans-30" x="254.492188"/>
      </g>
     </g>
    </g>
    <g id="xtick_4">
     <g id="line2d_4">
      <g>
       <use xlink:href="#meba1d2a696" x="230.920934" y="162.432" style="stroke: #000000; stroke-width: 0.8"/>
      </g>
     </g>
     <g id="text_4">
      <!-- 30000 -->
      <g transform="translate(215.014684 177.030437)scale(0.1 -0.1)">
       <defs>
        <path id="DejaVuSans-33" d="M 2597 2516 
Q 3050 2419 3304 2112 
Q 3559 1806 3559 1356 
Q 3559 666 3084 287 
Q 2609 -91 1734 -91 
Q 1441 -91 1130 -33 
Q 819 25 488 141 
L 488 750 
Q 750 597 1062 519 
Q 1375 441 1716 441 
Q 2309 441 2620 675 
Q 2931 909 2931 1356 
Q 2931 1769 2642 2001 
Q 2353 2234 1838 2234 
L 1294 2234 
L 1294 2753 
L 1863 2753 
Q 2328 2753 2575 2939 
Q 2822 3125 2822 3475 
Q 2822 3834 2567 4026 
Q 2313 4219 1838 4219 
Q 1578 4219 1281 4162 
Q 984 4106 628 3988 
L 628 4550 
Q 988 4650 1302 4700 
Q 1616 4750 1894 4750 
Q 2613 4750 3031 4423 
Q 3450 4097 3450 3541 
Q 3450 3153 3228 2886 
Q 3006 2619 2597 2516 
z
" transform="scale(0.015625)"/>
       </defs>
       <use xlink:href="#DejaVuSans-33"/>
       <use xlink:href="#DejaVuSans-30" x="63.623047"/>
       <use xlink:href="#DejaVuSans-30" x="127.246094"/>
       <use xlink:href="#DejaVuSans-30" x="190.869141"/>
       <use xlink:href="#DejaVuSans-30" x="254.492188"/>
      </g>
     </g>
    </g>
    <g id="xtick_5">
     <g id="line2d_5">
      <g>
       <use xlink:href="#meba1d2a696" x="283.285415" y="162.432" style="stroke: #000000; stroke-width: 0.8"/>
      </g>
     </g>
     <g id="text_5">
      <!-- 40000 -->
      <g transform="translate(267.379165 177.030437)scale(0.1 -0.1)">
       <defs>
        <path id="DejaVuSans-34" d="M 2419 4116 
L 825 1625 
L 2419 1625 
L 2419 4116 
z
M 2253 4666 
L 3047 4666 
L 3047 1625 
L 3713 1625 
L 3713 1100 
L 3047 1100 
L 3047 0 
L 2419 0 
L 2419 1100 
L 313 1100 
L 313 1709 
L 2253 4666 
z
" transform="scale(0.015625)"/>
       </defs>
       <use xlink:href="#DejaVuSans-34"/>
       <use xlink:href="#DejaVuSans-30" x="63.623047"/>
       <use xlink:href="#DejaVuSans-30" x="127.246094"/>
       <use xlink:href="#DejaVuSans-30" x="190.869141"/>
       <use xlink:href="#DejaVuSans-30" x="254.492188"/>
      </g>
     </g>
    </g>
    <g id="xtick_6">
     <g id="line2d_6">
      <g>
       <use xlink:href="#meba1d2a696" x="335.649896" y="162.432" style="stroke: #000000; stroke-width: 0.8"/>
      </g>
     </g>
     <g id="text_6">
      <!-- 50000 -->
      <g transform="translate(319.743646 177.030437)scale(0.1 -0.1)">
       <defs>
        <path id="DejaVuSans-35" d="M 691 4666 
L 3169 4666 
L 3169 4134 
L 1269 4134 
L 1269 2991 
Q 1406 3038 1543 3061 
Q 1681 3084 1819 3084 
Q 2600 3084 3056 2656 
Q 3513 2228 3513 1497 
Q 3513 744 3044 326 
Q 2575 -91 1722 -91 
Q 1428 -91 1123 -41 
Q 819 9 494 109 
L 494 744 
Q 775 591 1075 516 
Q 1375 441 1709 441 
Q 2250 441 2565 725 
Q 2881 1009 2881 1497 
Q 2881 1984 2565 2268 
Q 2250 2553 1709 2553 
Q 1456 2553 1204 2497 
Q 953 2441 691 2322 
L 691 4666 
z
" transform="scale(0.015625)"/>
       </defs>
       <use xlink:href="#DejaVuSans-35"/>
       <use xlink:href="#DejaVuSans-30" x="63.623047"/>
       <use xlink:href="#DejaVuSans-30" x="127.246094"/>
       <use xlink:href="#DejaVuSans-30" x="190.869141"/>
       <use xlink:href="#DejaVuSans-30" x="254.492188"/>
      </g>
     </g>
    </g>
    <g id="xtick_7">
     <g id="line2d_7">
      <g>
       <use xlink:href="#meba1d2a696" x="388.014377" y="162.432" style="stroke: #000000; stroke-width: 0.8"/>
      </g>
     </g>
     <g id="text_7">
      <!-- 60000 -->
      <g transform="translate(372.108127 177.030437)scale(0.1 -0.1)">
       <defs>
        <path id="DejaVuSans-36" d="M 2113 2584 
Q 1688 2584 1439 2293 
Q 1191 2003 1191 1497 
Q 1191 994 1439 701 
Q 1688 409 2113 409 
Q 2538 409 2786 701 
Q 3034 994 3034 1497 
Q 3034 2003 2786 2293 
Q 2538 2584 2113 2584 
z
M 3366 4563 
L 3366 3988 
Q 3128 4100 2886 4159 
Q 2644 4219 2406 4219 
Q 1781 4219 1451 3797 
Q 1122 3375 1075 2522 
Q 1259 2794 1537 2939 
Q 1816 3084 2150 3084 
Q 2853 3084 3261 2657 
Q 3669 2231 3669 1497 
Q 3669 778 3244 343 
Q 2819 -91 2113 -91 
Q 1303 -91 875 529 
Q 447 1150 447 2328 
Q 447 3434 972 4092 
Q 1497 4750 2381 4750 
Q 2619 4750 2861 4703 
Q 3103 4656 3366 4563 
z
" transform="scale(0.015625)"/>
       </defs>
       <use xlink:href="#DejaVuSans-36"/>
       <use xlink:href="#DejaVuSans-30" x="63.623047"/>
       <use xlink:href="#DejaVuSans-30" x="127.246094"/>
       <use xlink:href="#DejaVuSans-30" x="190.869141"/>
       <use xlink:href="#DejaVuSans-30" x="254.492188"/>
      </g>
     </g>
    </g>
   </g>
   <g id="matplotlib.axis_2">
    <g id="ytick_1">
     <g id="line2d_8">
      <defs>
       <path id="mdf14cfd180" d="M 0 0 
L -3.5 0 
" style="stroke: #000000; stroke-width: 0.8"/>
      </defs>
      <g>
       <use xlink:href="#mdf14cfd180" x="57.6" y="158.794213" style="stroke: #000000; stroke-width: 0.8"/>
      </g>
     </g>
     <g id="text_8">
      <!-- 40 -->
      <g transform="translate(37.875 162.593432)scale(0.1 -0.1)">
       <use xlink:href="#DejaVuSans-34"/>
       <use xlink:href="#DejaVuSans-30" x="63.623047"/>
      </g>
     </g>
    </g>
    <g id="ytick_2">
     <g id="line2d_9">
      <g>
       <use xlink:href="#mdf14cfd180" x="57.6" y="124.448465" style="stroke: #000000; stroke-width: 0.8"/>
      </g>
     </g>
     <g id="text_9">
      <!-- 60 -->
      <g transform="translate(37.875 128.247684)scale(0.1 -0.1)">
       <use xlink:href="#DejaVuSans-36"/>
       <use xlink:href="#DejaVuSans-30" x="63.623047"/>
      </g>
     </g>
    </g>
    <g id="ytick_3">
     <g id="line2d_10">
      <g>
       <use xlink:href="#mdf14cfd180" x="57.6" y="90.102717" style="stroke: #000000; stroke-width: 0.8"/>
      </g>
     </g>
     <g id="text_10">
      <!-- 80 -->
      <g transform="translate(37.875 93.901936)scale(0.1 -0.1)">
       <defs>
        <path id="DejaVuSans-38" d="M 2034 2216 
Q 1584 2216 1326 1975 
Q 1069 1734 1069 1313 
Q 1069 891 1326 650 
Q 1584 409 2034 409 
Q 2484 409 2743 651 
Q 3003 894 3003 1313 
Q 3003 1734 2745 1975 
Q 2488 2216 2034 2216 
z
M 1403 2484 
Q 997 2584 770 2862 
Q 544 3141 544 3541 
Q 544 4100 942 4425 
Q 1341 4750 2034 4750 
Q 2731 4750 3128 4425 
Q 3525 4100 3525 3541 
Q 3525 3141 3298 2862 
Q 3072 2584 2669 2484 
Q 3125 2378 3379 2068 
Q 3634 1759 3634 1313 
Q 3634 634 3220 271 
Q 2806 -91 2034 -91 
Q 1263 -91 848 271 
Q 434 634 434 1313 
Q 434 1759 690 2068 
Q 947 2378 1403 2484 
z
M 1172 3481 
Q 1172 3119 1398 2916 
Q 1625 2713 2034 2713 
Q 2441 2713 2670 2916 
Q 2900 3119 2900 3481 
Q 2900 3844 2670 4047 
Q 2441 4250 2034 4250 
Q 1625 4250 1398 4047 
Q 1172 3844 1172 3481 
z
" transform="scale(0.015625)"/>
       </defs>
       <use xlink:href="#DejaVuSans-38"/>
       <use xlink:href="#DejaVuSans-30" x="63.623047"/>
      </g>
     </g>
    </g>
    <g id="ytick_4">
     <g id="line2d_11">
      <g>
       <use xlink:href="#mdf14cfd180" x="57.6" y="55.756969" style="stroke: #000000; stroke-width: 0.8"/>
      </g>
     </g>
     <g id="text_11">
      <!-- 100 -->
      <g transform="translate(31.5125 59.556188)scale(0.1 -0.1)">
       <use xlink:href="#DejaVuSans-31"/>
       <use xlink:href="#DejaVuSans-30" x="63.623047"/>
       <use xlink:href="#DejaVuSans-30" x="127.246094"/>
      </g>
     </g>
    </g>
   </g>
   <g id="line2d_12">
    <path d="M 73.832727 57.474256 
L 73.837964 57.474256 
L 73.8432 56.615613 
L 73.879855 63.484762 
L 73.911274 63.484762 
L 73.91651 63.484762 
L 74.063131 75.505774 
L 74.073604 74.64713 
L 74.136441 80.657636 
L 74.277825 92.106219 
L 74.283062 92.106219 
L 74.398264 95.111472 
L 74.413973 94.252828 
L 74.419209 95.970116 
L 74.49252 95.970116 
L 74.607722 98.546047 
L 74.701978 98.546047 
L 74.822416 102.839265 
L 74.900963 102.839265 
L 75.016165 101.980621 
L 75.283223 101.980621 
L 75.398425 101.121978 
L 75.565992 101.121978 
L 75.691666 106.27384 
L 76.492843 106.27384 
L 76.613281 109.708415 
L 77.83861 109.708415 
L 77.953812 108.849771 
L 78.00094 108.849771 
L 78.116142 107.991127 
L 78.781171 107.991127 
L 78.896373 109.708415 
L 79.215796 109.708415 
L 79.330998 111.425702 
L 79.624239 111.425702 
L 79.739441 113.14299 
L 79.776096 113.14299 
L 79.891298 114.860277 
L 80.174066 114.860277 
L 80.289268 116.577564 
L 81.090444 116.577564 
L 81.205646 115.718921 
L 82.546177 115.718921 
L 82.661379 114.860277 
L 82.923201 114.860277 
L 83.038403 114.001633 
L 83.054112 114.001633 
L 83.169314 115.718921 
L 83.326408 115.718921 
L 83.44161 114.860277 
L 83.734851 114.860277 
L 83.850052 116.577564 
L 83.876235 116.577564 
L 83.991437 118.294852 
L 84.5465 118.294852 
L 84.661702 117.436208 
L 84.960179 117.436208 
L 85.075381 116.577564 
L 85.708992 116.577564 
L 85.82943 120.012139 
L 85.881794 120.012139 
L 85.981287 123.446714 
L 85.996996 122.58807 
L 86.347838 122.58807 
L 86.46304 124.305358 
L 87.903063 124.305358 
L 88.018265 126.022645 
L 89.311668 126.022645 
L 89.42687 127.739932 
L 90.395613 127.739932 
L 90.510814 129.45722 
L 90.7674 129.45722 
L 90.893075 134.609082 
L 92.186478 134.609082 
L 92.30168 136.326369 
L 93.783595 136.326369 
L 93.898796 138.043657 
L 94.605717 138.043657 
L 94.720919 137.471228 
L 95.192199 137.471228 
L 95.312637 140.905802 
L 95.872937 140.905802 
L 95.988139 142.62309 
L 97.318197 142.62309 
L 97.433399 144.340377 
L 97.972753 144.340377 
L 98.046063 143.481734 
L 98.0513 145.199021 
L 98.077482 145.199021 
L 99.815983 145.199021 
L 99.931185 146.916308 
L 100.920873 146.916308 
L 101.036075 146.057665 
L 102.381842 146.057665 
L 102.497044 145.485236 
L 130.622007 145.485236 
L 130.737209 147.202523 
L 154.604939 147.202523 
L 154.720141 148.91981 
L 178.352231 148.91981 
L 178.467433 150.637098 
L 179.797491 150.637098 
L 179.912693 149.778454 
L 199.874033 149.778454 
L 199.989235 148.91981 
L 222.013735 148.91981 
L 222.128937 148.061167 
L 276.61418 148.061167 
L 276.729382 147.488737 
L 289.569152 147.488737 
L 289.684354 149.206025 
L 305.901634 149.206025 
L 306.016836 150.923312 
L 319.003227 150.923312 
L 319.118429 152.6406 
L 319.217921 152.6406 
L 319.333123 151.781956 
L 332.005328 151.781956 
L 332.12053 153.499243 
L 352.055687 153.499243 
L 352.170889 155.216531 
L 366.948146 155.216531 
L 367.063348 156.933818 
L 398.487273 156.933818 
L 398.487273 156.933818 
" clip-path="url(#p4315a06af8)" style="fill: none; stroke: #1f77b4; stroke-width: 1.5; stroke-linecap: square"/>
   </g>
   <g id="line2d_13">
    <path d="M 73.832727 57.474256 
L 73.968875 65.717236 
L 74.000294 65.717236 
L 74.036949 64.858592 
L 74.125968 73.445029 
L 74.136441 71.727742 
L 74.199279 76.02096 
L 74.225461 76.02096 
L 74.246407 76.02096 
L 74.366845 79.455535 
L 74.382554 79.455535 
L 74.398264 79.026213 
L 74.4035 80.743501 
L 74.47681 80.743501 
L 74.502993 80.743501 
L 74.550121 80.171072 
L 74.555357 81.888359 
L 74.602485 81.888359 
L 74.701978 81.888359 
L 74.780524 79.312428 
L 74.811943 81.029715 
L 74.843362 81.029715 
L 74.9638 84.46429 
L 75.309406 84.46429 
L 75.398425 82.174573 
L 75.419371 83.891861 
L 75.660248 83.891861 
L 75.780686 87.326436 
L 76.492843 87.326436 
L 76.608045 89.043723 
L 78.482693 89.043723 
L 78.597895 88.471294 
L 78.781171 88.471294 
L 78.896373 90.188581 
L 80.174066 90.188581 
L 80.268322 88.471294 
L 80.284031 90.188581 
L 81.090444 90.188581 
L 81.205646 89.329938 
L 82.315773 89.329938 
L 82.430975 87.61265 
L 82.546177 87.61265 
L 82.661379 89.329938 
L 82.923201 89.329938 
L 83.038403 91.047225 
L 83.326408 91.047225 
L 83.44161 90.188581 
L 83.734851 90.188581 
L 83.850052 88.471294 
L 83.876235 88.471294 
L 83.9862 86.754007 
L 84.106638 90.188581 
L 84.248023 90.188581 
L 84.274205 88.471294 
L 84.357988 90.188581 
L 84.5465 90.188581 
L 84.661702 91.905869 
L 84.761194 91.905869 
L 84.876396 93.623156 
L 85.708992 93.623156 
L 85.834666 88.471294 
L 85.949868 88.471294 
L 86.075543 93.623156 
L 87.74597 93.623156 
L 87.861172 91.905869 
L 87.903063 91.905869 
L 88.018265 93.623156 
L 88.321979 93.623156 
L 88.437181 95.340444 
L 89.311668 95.340444 
L 89.42687 93.623156 
L 90.589361 93.623156 
L 90.704563 91.905869 
L 90.7674 91.905869 
L 90.845947 90.188581 
L 90.877366 91.905869 
L 90.971622 91.047225 
L 90.976858 92.764512 
L 90.982095 92.764512 
L 91.008277 92.764512 
L 91.123479 92.192083 
L 92.186478 92.192083 
L 92.30168 93.909371 
L 95.260273 93.909371 
L 95.375475 95.626658 
L 97.030192 95.626658 
L 97.145394 93.909371 
L 97.868024 93.909371 
L 97.988462 97.343945 
L 98.292176 97.343945 
L 98.407378 96.771516 
L 99.548924 96.771516 
L 99.664126 95.054229 
L 99.815983 95.054229 
L 99.931185 96.771516 
L 100.920873 96.771516 
L 101.036075 98.488804 
L 102.224749 98.488804 
L 102.339951 100.206091 
L 106.544819 100.206091 
L 106.66002 99.776769 
L 133.884314 99.776769 
L 133.999516 99.20434 
L 146.556518 99.20434 
L 146.67172 100.921628 
L 175.02185 100.921628 
L 175.137052 99.20434 
L 178.22132 99.20434 
L 178.336522 97.487053 
L 178.352231 97.487053 
L 178.467433 99.20434 
L 179.797491 99.20434 
L 179.912693 100.921628 
L 185.447618 100.921628 
L 185.56282 99.20434 
L 199.874033 99.20434 
L 199.989235 98.345696 
L 200.125382 98.345696 
L 200.240584 100.062984 
L 222.013735 100.062984 
L 222.128937 101.780271 
L 256.731386 101.780271 
L 256.846588 100.062984 
L 289.569152 100.062984 
L 289.684354 101.780271 
L 305.142349 101.780271 
L 305.257551 100.062984 
L 305.901634 100.062984 
L 306.016836 101.780271 
L 317.076214 101.780271 
L 317.191416 100.062984 
L 319.003227 100.062984 
L 319.118429 98.345696 
L 319.217921 98.345696 
L 319.333123 100.062984 
L 320.85693 100.062984 
L 320.972132 101.780271 
L 329.177646 101.780271 
L 329.292848 100.062984 
L 329.617507 100.062984 
L 329.732709 101.780271 
L 332.005328 101.780271 
L 332.12053 103.497559 
L 349.395572 103.497559 
L 349.510774 101.780271 
L 352.055687 101.780271 
L 352.170889 100.062984 
L 353.228652 100.062984 
L 353.343854 101.780271 
L 364.801202 101.780271 
L 364.916404 100.062984 
L 366.948146 100.062984 
L 367.063348 101.780271 
L 385.689394 101.780271 
L 385.804595 103.497559 
L 398.487273 103.497559 
L 398.487273 103.497559 
" clip-path="url(#p4315a06af8)" style="fill: none; stroke: #ff7f0e; stroke-width: 1.5; stroke-linecap: square"/>
   </g>
   <g id="line2d_14">
    <path d="M 73.832727 55.18454 
L 73.8432 55.18454 
L 73.963638 63.62787 
L 73.974111 61.910582 
L 73.984584 60.193295 
L 74.052658 64.486513 
L 74.07884 62.769226 
L 74.089313 62.769226 
L 74.110259 59.334651 
L 74.183569 68.207303 
L 74.188806 66.490015 
L 74.204515 66.490015 
L 74.324953 69.92459 
L 74.335426 69.92459 
L 74.445392 74.64713 
L 74.450628 72.929843 
L 74.49252 72.071199 
L 74.508229 75.505774 
L 74.544884 75.505774 
L 74.63914 75.505774 
L 74.712451 74.64713 
L 74.717687 76.364418 
L 74.749106 75.505774 
L 74.906199 75.505774 
L 75.021401 77.223061 
L 75.283223 77.223061 
L 75.309406 76.364418 
L 75.351297 79.798993 
L 75.377479 79.798993 
L 75.398425 79.798993 
L 75.513627 78.940349 
L 75.565992 78.940349 
L 75.660248 80.657636 
L 75.670721 79.798993 
L 75.785922 78.081705 
L 76.367168 78.081705 
L 76.48237 79.798993 
L 76.492843 79.798993 
L 76.602808 78.940349 
L 76.71801 80.657636 
L 76.937941 80.657636 
L 77.053143 82.374924 
L 77.089798 82.374924 
L 77.205 80.657636 
L 77.83861 80.657636 
L 77.953812 79.798993 
L 78.00094 79.798993 
L 78.116142 78.940349 
L 78.482693 78.940349 
L 78.597895 80.657636 
L 78.781171 80.657636 
L 78.896373 79.798993 
L 79.215796 79.798993 
L 79.330998 81.51628 
L 79.624239 81.51628 
L 79.739441 83.233567 
L 79.776096 83.233567 
L 79.891298 84.950855 
L 80.268322 84.950855 
L 80.383524 84.092211 
L 82.148207 84.092211 
L 82.263409 82.374924 
L 83.054112 82.374924 
L 83.169314 84.092211 
L 84.164239 84.092211 
L 84.279441 82.374924 
L 84.960179 82.374924 
L 85.075381 81.51628 
L 85.881794 81.51628 
L 85.996996 83.233567 
L 86.347838 83.233567 
L 86.46304 84.950855 
L 87.337527 84.950855 
L 87.452729 83.233567 
L 90.395613 83.233567 
L 90.510814 84.950855 
L 90.845947 84.950855 
L 90.966385 83.233567 
L 91.008277 83.233567 
L 91.123479 84.950855 
L 93.375152 84.950855 
L 93.490353 83.233567 
L 93.783595 83.233567 
L 93.898796 84.950855 
L 94.605717 84.950855 
L 94.720919 84.378426 
L 94.788993 84.378426 
L 94.904194 82.661138 
L 95.192199 82.661138 
L 95.260273 84.378426 
L 95.302164 83.519782 
L 95.872937 83.519782 
L 95.988139 85.237069 
L 97.318197 85.237069 
L 97.433399 86.954357 
L 97.868024 86.954357 
L 97.983226 86.381928 
L 98.014645 86.381928 
L 98.046063 84.66464 
L 98.12461 86.381928 
L 98.292176 86.381928 
L 98.407378 88.099215 
L 99.239973 88.099215 
L 99.355175 86.381928 
L 102.381842 86.381928 
L 102.497044 85.809498 
L 106.544819 85.809498 
L 106.66002 87.526786 
L 111.252385 87.526786 
L 111.367587 89.244073 
L 130.622007 89.244073 
L 130.737209 90.961361 
L 133.884314 90.961361 
L 133.999516 92.678648 
L 137.942561 92.678648 
L 138.057763 90.961361 
L 146.556518 90.961361 
L 146.67172 90.102717 
L 154.604939 90.102717 
L 154.720141 91.820004 
L 276.61418 91.820004 
L 276.729382 91.247575 
L 304.126478 91.247575 
L 304.24168 89.530288 
L 323.5537 89.530288 
L 323.668902 91.247575 
L 398.487273 91.247575 
L 398.487273 91.247575 
" clip-path="url(#p4315a06af8)" style="fill: none; stroke: #2ca02c; stroke-width: 1.5; stroke-linecap: square"/>
   </g>
   <g id="line2d_15">
    <path d="M 73.832727 57.474256 
L 73.953166 56.615613 
L 73.963638 56.615613 
L 74.07884 59.620866 
L 74.382554 59.620866 
L 74.502993 63.05544 
L 74.555357 63.05544 
L 74.675795 66.490015 
L 75.330351 66.490015 
L 75.445553 68.207303 
L 75.670721 68.207303 
L 75.785922 69.92459 
L 75.827814 69.92459 
L 75.943016 71.641877 
L 77.089798 71.641877 
L 77.205 73.359165 
L 87.337527 73.359165 
L 87.452729 75.076452 
L 91.34341 75.076452 
L 91.458612 76.79374 
L 93.375152 76.79374 
L 93.490353 78.511027 
L 94.788993 78.511027 
L 94.904194 80.228314 
L 97.868024 80.228314 
L 97.983226 79.655885 
L 106.544819 79.655885 
L 106.66002 79.226563 
L 137.942561 79.226563 
L 138.057763 80.943851 
L 398.487273 80.943851 
L 398.487273 80.943851 
" clip-path="url(#p4315a06af8)" style="fill: none; stroke: #d62728; stroke-width: 1.5; stroke-linecap: square"/>
   </g>
   <g id="line2d_16">
    <path d="M 73.832727 55.756969 
L 73.853673 55.756969 
L 73.974111 54.755218 
L 398.487273 54.755218 
L 398.487273 54.755218 
" clip-path="url(#p4315a06af8)" style="fill: none; stroke: #9467bd; stroke-width: 1.5; stroke-linecap: square"/>
   </g>
   <g id="line2d_17">
    <path d="M 73.832727 55.18454 
L 73.8432 55.18454 
L 73.958402 56.901827 
L 74.068367 56.901827 
L 74.183569 55.470754 
L 74.382554 55.470754 
L 74.508229 54.182789 
L 74.63914 54.182789 
L 74.754342 53.324145 
L 94.605717 53.324145 
L 94.720919 52.751716 
L 102.381842 52.751716 
L 102.497044 52.179287 
L 276.61418 52.179287 
L 276.729382 51.606858 
L 398.487273 51.606858 
L 398.487273 51.606858 
" clip-path="url(#p4315a06af8)" style="fill: none; stroke: #8c564b; stroke-width: 1.5; stroke-linecap: square"/>
   </g>
   <g id="line2d_18">
    <path d="M 73.832727 55.756969 
L 73.8432 55.756969 
L 73.974111 54.411761 
L 74.146914 54.411761 
L 74.277825 52.122044 
L 79.001102 52.122044 
L 79.116303 50.404757 
L 210.305038 50.404757 
L 210.420239 48.687469 
L 328.727311 48.687469 
L 328.842513 46.970182 
L 398.487273 46.970182 
L 398.487273 46.970182 
" clip-path="url(#p4315a06af8)" style="fill: none; stroke: #e377c2; stroke-width: 1.5; stroke-linecap: square"/>
   </g>
   <g id="line2d_19">
    <path d="M 73.832727 55.756969 
L 73.8432 55.327647 
L 73.874619 60.050187 
L 73.885092 60.050187 
L 74.000294 65.774479 
L 74.010767 65.345157 
L 74.125968 64.772728 
L 74.146914 64.772728 
L 74.267352 68.207303 
L 74.335426 68.207303 
L 74.382554 67.634874 
L 74.387791 69.352161 
L 74.440155 68.779732 
L 74.555357 68.779732 
L 74.670559 67.921088 
L 74.722923 67.921088 
L 74.838125 69.638375 
L 75.330351 69.638375 
L 75.445553 68.779732 
L 75.827814 68.779732 
L 75.943016 67.921088 
L 79.001102 67.921088 
L 79.116303 69.638375 
L 90.877366 69.638375 
L 90.992568 71.355663 
L 91.34341 71.355663 
L 91.458612 70.497019 
L 210.305038 70.497019 
L 210.420239 72.214307 
L 328.727311 72.214307 
L 328.842513 73.931594 
L 398.487273 73.931594 
L 398.487273 73.931594 
" clip-path="url(#p4315a06af8)" style="fill: none; stroke: #7f7f7f; stroke-width: 1.5; stroke-linecap: square"/>
   </g>
   <g id="line2d_20">
    <path d="M 73.832727 57.474256 
L 73.869382 55.413512 
L 73.926983 58.848086 
L 73.947929 56.844584 
L 73.963638 56.844584 
L 74.105023 68.436274 
L 74.110259 68.436274 
L 74.152151 66.146558 
L 74.16786 69.581133 
L 74.220224 68.15006 
L 74.230697 68.15006 
L 74.24117 67.291416 
L 74.246407 69.008703 
L 74.340663 67.577631 
L 74.382554 67.577631 
L 74.49252 71.29842 
L 74.497756 70.439776 
L 74.502993 70.439776 
L 74.555357 69.867347 
L 74.560594 71.584635 
L 74.602485 71.584635 
L 74.63914 71.584635 
L 74.754342 74.160566 
L 74.906199 74.160566 
L 75.021401 73.301922 
L 75.283223 73.301922 
L 75.346061 78.453784 
L 75.403662 77.022711 
L 75.565992 77.022711 
L 75.670721 75.305424 
L 75.675957 77.022711 
L 75.827814 77.022711 
L 75.943016 78.739999 
L 76.367168 78.739999 
L 76.48237 77.881355 
L 76.492843 77.881355 
L 76.613281 76.164068 
L 76.937941 76.164068 
L 77.053143 75.305424 
L 77.089798 75.305424 
L 77.205 77.022711 
L 77.83861 77.022711 
L 77.953812 78.739999 
L 78.00094 78.739999 
L 78.116142 80.457286 
L 78.482693 80.457286 
L 78.597895 79.884857 
L 78.781171 79.884857 
L 78.896373 79.026213 
L 79.215796 79.026213 
L 79.330998 78.16757 
L 79.624239 78.16757 
L 79.739441 77.308926 
L 79.776096 77.308926 
L 79.891298 76.450282 
L 80.268322 76.450282 
L 80.383524 75.591638 
L 82.148207 75.591638 
L 82.263409 77.308926 
L 83.054112 77.308926 
L 83.169314 76.450282 
L 84.164239 76.450282 
L 84.279441 78.16757 
L 84.960179 78.16757 
L 85.075381 79.884857 
L 85.881794 79.884857 
L 85.996996 79.026213 
L 86.347838 79.026213 
L 86.46304 78.16757 
L 87.337527 78.16757 
L 87.452729 79.884857 
L 90.395613 79.884857 
L 90.510814 79.026213 
L 90.845947 79.026213 
L 90.877366 78.16757 
L 90.882602 79.884857 
L 90.950676 79.884857 
L 91.008277 79.884857 
L 91.123479 79.312428 
L 91.34341 79.312428 
L 91.458612 81.029715 
L 93.375152 81.029715 
L 93.490353 82.747003 
L 93.783595 82.747003 
L 93.898796 81.888359 
L 94.605717 81.888359 
L 94.720919 83.605646 
L 94.788993 83.605646 
L 94.904194 85.322934 
L 95.192199 85.322934 
L 95.312637 83.605646 
L 95.872937 83.605646 
L 95.988139 82.747003 
L 97.318197 82.747003 
L 97.433399 81.888359 
L 97.868024 81.888359 
L 97.983226 81.31593 
L 98.014645 81.31593 
L 98.046063 83.033217 
L 98.12461 82.174573 
L 98.292176 82.174573 
L 98.407378 81.602144 
L 99.239973 81.602144 
L 99.355175 83.319432 
L 102.381842 83.319432 
L 102.497044 85.036719 
L 106.544819 85.036719 
L 106.66002 84.607397 
L 111.252385 84.607397 
L 111.367587 83.748754 
L 130.622007 83.748754 
L 130.737209 82.89011 
L 133.884314 82.89011 
L 133.999516 82.317681 
L 137.942561 82.317681 
L 138.057763 84.034968 
L 146.556518 84.034968 
L 146.67172 83.176324 
L 154.604939 83.176324 
L 154.720141 82.317681 
L 276.61418 82.317681 
L 276.729382 84.034968 
L 304.126478 84.034968 
L 304.24168 85.752256 
L 323.5537 85.752256 
L 323.668902 84.893612 
L 398.487273 84.893612 
L 398.487273 84.893612 
" clip-path="url(#p4315a06af8)" style="fill: none; stroke: #bcbd22; stroke-width: 1.5; stroke-linecap: square"/>
   </g>
   <g id="line2d_21">
    <path d="M 73.832727 55.756969 
L 73.853673 54.98419 
L 73.885092 58.848086 
L 74.000294 65.431021 
L 74.010767 65.001699 
L 74.021239 64.42927 
L 74.068367 68.436274 
L 74.089313 67.577631 
L 74.110259 71.012205 
L 74.204515 69.867347 
L 74.24117 68.15006 
L 74.319717 69.008703 
L 74.335426 69.008703 
L 74.382554 68.436274 
L 74.387791 70.153562 
L 74.445392 68.722489 
L 74.49252 70.439776 
L 74.555357 69.008703 
L 74.670559 68.15006 
L 74.712451 68.15006 
L 74.722923 67.291416 
L 74.72816 69.008703 
L 74.81718 69.008703 
L 74.906199 69.008703 
L 75.021401 68.15006 
L 75.283223 68.15006 
L 75.330351 69.867347 
L 75.393189 68.436274 
L 75.565992 68.436274 
L 75.670721 67.577631 
L 75.785922 69.294918 
L 75.827814 69.294918 
L 75.943016 68.436274 
L 76.367168 68.436274 
L 76.48237 67.577631 
L 76.602808 67.577631 
L 76.71801 66.718987 
L 76.937941 66.718987 
L 77.053143 65.860343 
L 77.089798 65.860343 
L 77.205 67.577631 
L 77.83861 67.577631 
L 77.953812 69.294918 
L 78.00094 69.294918 
L 78.116142 71.012205 
L 78.482693 71.012205 
L 78.597895 70.439776 
L 79.215796 70.439776 
L 79.330998 69.581133 
L 79.624239 69.581133 
L 79.739441 68.722489 
L 79.776096 68.722489 
L 79.891298 67.863845 
L 82.148207 67.863845 
L 82.263409 69.581133 
L 83.054112 69.581133 
L 83.169314 68.722489 
L 84.164239 68.722489 
L 84.279441 70.439776 
L 84.960179 70.439776 
L 85.075381 72.157064 
L 85.881794 72.157064 
L 85.996996 71.29842 
L 86.347838 71.29842 
L 86.46304 70.439776 
L 87.337527 70.439776 
L 87.452729 72.157064 
L 90.395613 72.157064 
L 90.510814 71.29842 
L 90.877366 71.29842 
L 90.992568 73.015707 
L 91.008277 73.015707 
L 91.123479 72.443278 
L 91.34341 72.443278 
L 91.458612 71.584635 
L 93.375152 71.584635 
L 93.490353 73.301922 
L 93.783595 73.301922 
L 93.898796 72.443278 
L 94.788993 72.443278 
L 94.904194 74.160566 
L 95.192199 74.160566 
L 95.307401 73.301922 
L 95.872937 73.301922 
L 95.988139 72.443278 
L 97.318197 72.443278 
L 97.433399 71.584635 
L 98.014645 71.584635 
L 98.046063 73.301922 
L 98.12461 72.443278 
L 98.292176 72.443278 
L 98.407378 71.870849 
L 99.239973 71.870849 
L 99.355175 73.588136 
L 106.544819 73.588136 
L 106.66002 73.158815 
L 111.252385 73.158815 
L 111.367587 72.300171 
L 130.622007 72.300171 
L 130.737209 71.441527 
L 133.884314 71.441527 
L 133.999516 70.869098 
L 137.942561 70.869098 
L 138.057763 72.586385 
L 154.604939 72.586385 
L 154.720141 71.727742 
L 304.126478 71.727742 
L 304.24168 73.445029 
L 323.5537 73.445029 
L 323.668902 72.586385 
L 398.487273 72.586385 
L 398.487273 72.586385 
" clip-path="url(#p4315a06af8)" style="fill: none; stroke: #17becf; stroke-width: 1.5; stroke-linecap: square"/>
   </g>
   <g id="line2d_22">
    <path d="M 73.832727 57.474256 
L 73.8432 57.474256 
L 73.958402 57.130799 
L 74.068367 57.130799 
L 74.188806 60.565374 
L 74.382554 60.565374 
L 74.502993 63.999949 
L 74.63914 63.999949 
L 74.754342 65.717236 
L 94.605717 65.717236 
L 94.720919 67.434523 
L 102.381842 67.434523 
L 102.497044 69.151811 
L 276.61418 69.151811 
L 276.729382 70.869098 
L 398.487273 70.869098 
L 398.487273 70.869098 
" clip-path="url(#p4315a06af8)" style="fill: none; stroke: #1f77b4; stroke-width: 1.5; stroke-linecap: square"/>
   </g>
   <g id="line2d_23">
    <path d="M 73.832727 55.18454 
L 73.837964 55.18454 
L 73.8432 54.325896 
L 73.885092 59.048437 
L 73.921747 59.048437 
L 73.942693 59.048437 
L 74.07884 68.207303 
L 74.089313 68.207303 
L 74.194042 71.928092 
L 74.125968 67.348659 
L 74.204515 70.210805 
L 74.24117 70.210805 
L 74.288298 71.928092 
L 74.351136 70.210805 
L 74.382554 70.210805 
L 74.497756 72.786736 
L 74.550121 72.786736 
L 74.665323 71.928092 
L 74.701978 71.928092 
L 74.780524 76.22131 
L 74.81718 74.504023 
L 74.843362 74.504023 
L 74.958564 71.928092 
L 75.665484 71.928092 
L 75.780686 70.210805 
L 80.174066 70.210805 
L 80.289268 71.928092 
L 81.090444 71.928092 
L 81.205646 73.645379 
L 82.148207 73.645379 
L 82.263409 75.362667 
L 82.315773 75.362667 
L 82.430975 77.079954 
L 82.546177 77.079954 
L 82.661379 76.22131 
L 82.923201 76.22131 
L 83.038403 75.362667 
L 83.326408 75.362667 
L 83.44161 77.079954 
L 83.734851 77.079954 
L 83.850052 78.797242 
L 83.876235 78.797242 
L 83.9862 80.514529 
L 84.106638 77.079954 
L 84.164239 77.079954 
L 84.274205 80.514529 
L 84.279441 78.797242 
L 84.5465 78.797242 
L 84.661702 77.938598 
L 84.761194 77.938598 
L 84.876396 76.22131 
L 85.708992 76.22131 
L 85.834666 81.373173 
L 85.949868 81.373173 
L 86.070306 77.079954 
L 87.74597 77.079954 
L 87.861172 78.797242 
L 87.903063 78.797242 
L 88.018265 77.079954 
L 88.321979 77.079954 
L 88.437181 75.362667 
L 89.311668 75.362667 
L 89.42687 77.079954 
L 90.589361 77.079954 
L 90.704563 78.797242 
L 90.7674 78.797242 
L 90.887839 82.231816 
L 90.971622 82.231816 
L 91.086824 80.514529 
L 92.186478 80.514529 
L 92.30168 78.797242 
L 97.030192 78.797242 
L 97.145394 80.514529 
L 97.972753 80.514529 
L 98.014645 79.655885 
L 98.019881 81.373173 
L 98.077482 81.373173 
L 99.239973 81.373173 
L 99.355175 83.09046 
L 99.548924 83.09046 
L 99.664126 84.807747 
L 99.815983 84.807747 
L 99.931185 83.09046 
L 100.920873 83.09046 
L 101.036075 82.231816 
L 102.224749 82.231816 
L 102.339951 80.514529 
L 175.02185 80.514529 
L 175.137052 82.231816 
L 178.22132 82.231816 
L 178.336522 83.949104 
L 178.352231 83.949104 
L 178.467433 82.231816 
L 179.797491 82.231816 
L 179.912693 81.373173 
L 185.447618 81.373173 
L 185.56282 83.09046 
L 199.874033 83.09046 
L 199.989235 84.807747 
L 200.125382 84.807747 
L 200.240584 83.09046 
L 222.013735 83.09046 
L 222.128937 82.231816 
L 256.731386 82.231816 
L 256.846588 83.949104 
L 289.569152 83.949104 
L 289.684354 82.231816 
L 304.126478 82.231816 
L 304.24168 83.949104 
L 305.142349 83.949104 
L 305.257551 85.666391 
L 305.901634 85.666391 
L 306.016836 83.949104 
L 317.076214 83.949104 
L 317.191416 85.666391 
L 319.003227 85.666391 
L 319.118429 87.383679 
L 319.217921 87.383679 
L 319.333123 86.525035 
L 320.85693 86.525035 
L 320.972132 84.807747 
L 329.177646 84.807747 
L 329.292848 86.525035 
L 329.617507 86.525035 
L 329.732709 84.807747 
L 332.005328 84.807747 
L 332.12053 83.09046 
L 349.395572 83.09046 
L 349.510774 84.807747 
L 352.055687 84.807747 
L 352.170889 86.525035 
L 353.228652 86.525035 
L 353.343854 84.807747 
L 364.801202 84.807747 
L 364.916404 86.525035 
L 366.948146 86.525035 
L 367.063348 84.807747 
L 385.689394 84.807747 
L 385.804595 83.09046 
L 398.487273 83.09046 
L 398.487273 83.09046 
" clip-path="url(#p4315a06af8)" style="fill: none; stroke: #ff7f0e; stroke-width: 1.5; stroke-linecap: square"/>
   </g>
   <g id="patch_3">
    <path d="M 57.6 162.432 
L 57.6 41.472 
" style="fill: none; stroke: #000000; stroke-width: 0.8; stroke-linejoin: miter; stroke-linecap: square"/>
   </g>
   <g id="patch_4">
    <path d="M 414.72 162.432 
L 414.72 41.472 
" style="fill: none; stroke: #000000; stroke-width: 0.8; stroke-linejoin: miter; stroke-linecap: square"/>
   </g>
   <g id="patch_5">
    <path d="M 57.6 162.432 
L 414.72 162.432 
" style="fill: none; stroke: #000000; stroke-width: 0.8; stroke-linejoin: miter; stroke-linecap: square"/>
   </g>
   <g id="patch_6">
    <path d="M 57.6 41.472 
L 414.72 41.472 
" style="fill: none; stroke: #000000; stroke-width: 0.8; stroke-linejoin: miter; stroke-linecap: square"/>
   </g>
   <g id="text_12">
    <!-- WSP -->
    <g transform="translate(361.832136 156.933818)scale(0.08 -0.08)">
     <defs>
      <path id="DejaVuSans-57" d="M 213 4666 
L 850 4666 
L 1831 722 
L 2809 4666 
L 3519 4666 
L 4500 722 
L 5478 4666 
L 6119 4666 
L 4947 0 
L 4153 0 
L 3169 4050 
L 2175 0 
L 1381 0 
L 213 4666 
z
" transform="scale(0.015625)"/>
      <path id="DejaVuSans-53" d="M 3425 4513 
L 3425 3897 
Q 3066 4069 2747 4153 
Q 2428 4238 2131 4238 
Q 1616 4238 1336 4038 
Q 1056 3838 1056 3469 
Q 1056 3159 1242 3001 
Q 1428 2844 1947 2747 
L 2328 2669 
Q 3034 2534 3370 2195 
Q 3706 1856 3706 1288 
Q 3706 609 3251 259 
Q 2797 -91 1919 -91 
Q 1588 -91 1214 -16 
Q 841 59 441 206 
L 441 856 
Q 825 641 1194 531 
Q 1563 422 1919 422 
Q 2459 422 2753 634 
Q 3047 847 3047 1241 
Q 3047 1584 2836 1778 
Q 2625 1972 2144 2069 
L 1759 2144 
Q 1053 2284 737 2584 
Q 422 2884 422 3419 
Q 422 4038 858 4394 
Q 1294 4750 2059 4750 
Q 2388 4750 2728 4690 
Q 3069 4631 3425 4513 
z
" transform="scale(0.015625)"/>
      <path id="DejaVuSans-50" d="M 1259 4147 
L 1259 2394 
L 2053 2394 
Q 2494 2394 2734 2622 
Q 2975 2850 2975 3272 
Q 2975 3691 2734 3919 
Q 2494 4147 2053 4147 
L 1259 4147 
z
M 628 4666 
L 2053 4666 
Q 2838 4666 3239 4311 
Q 3641 3956 3641 3272 
Q 3641 2581 3239 2228 
Q 2838 1875 2053 1875 
L 1259 1875 
L 1259 0 
L 628 0 
L 628 4666 
z
" transform="scale(0.015625)"/>
     </defs>
     <use xlink:href="#DejaVuSans-57"/>
     <use xlink:href="#DejaVuSans-53" x="98.876953"/>
     <use xlink:href="#DejaVuSans-50" x="162.353516"/>
    </g>
   </g>
   <g id="text_13">
    <!-- Iambic -->
    <g transform="translate(361.832136 103.497559)scale(0.08 -0.08)">
     <defs>
      <path id="DejaVuSans-49" d="M 628 4666 
L 1259 4666 
L 1259 0 
L 628 0 
L 628 4666 
z
" transform="scale(0.015625)"/>
      <path id="DejaVuSans-61" d="M 2194 1759 
Q 1497 1759 1228 1600 
Q 959 1441 959 1056 
Q 959 750 1161 570 
Q 1363 391 1709 391 
Q 2188 391 2477 730 
Q 2766 1069 2766 1631 
L 2766 1759 
L 2194 1759 
z
M 3341 1997 
L 3341 0 
L 2766 0 
L 2766 531 
Q 2569 213 2275 61 
Q 1981 -91 1556 -91 
Q 1019 -91 701 211 
Q 384 513 384 1019 
Q 384 1609 779 1909 
Q 1175 2209 1959 2209 
L 2766 2209 
L 2766 2266 
Q 2766 2663 2505 2880 
Q 2244 3097 1772 3097 
Q 1472 3097 1187 3025 
Q 903 2953 641 2809 
L 641 3341 
Q 956 3463 1253 3523 
Q 1550 3584 1831 3584 
Q 2591 3584 2966 3190 
Q 3341 2797 3341 1997 
z
" transform="scale(0.015625)"/>
      <path id="DejaVuSans-6d" d="M 3328 2828 
Q 3544 3216 3844 3400 
Q 4144 3584 4550 3584 
Q 5097 3584 5394 3201 
Q 5691 2819 5691 2113 
L 5691 0 
L 5113 0 
L 5113 2094 
Q 5113 2597 4934 2840 
Q 4756 3084 4391 3084 
Q 3944 3084 3684 2787 
Q 3425 2491 3425 1978 
L 3425 0 
L 2847 0 
L 2847 2094 
Q 2847 2600 2669 2842 
Q 2491 3084 2119 3084 
Q 1678 3084 1418 2786 
Q 1159 2488 1159 1978 
L 1159 0 
L 581 0 
L 581 3500 
L 1159 3500 
L 1159 2956 
Q 1356 3278 1631 3431 
Q 1906 3584 2284 3584 
Q 2666 3584 2933 3390 
Q 3200 3197 3328 2828 
z
" transform="scale(0.015625)"/>
      <path id="DejaVuSans-62" d="M 3116 1747 
Q 3116 2381 2855 2742 
Q 2594 3103 2138 3103 
Q 1681 3103 1420 2742 
Q 1159 2381 1159 1747 
Q 1159 1113 1420 752 
Q 1681 391 2138 391 
Q 2594 391 2855 752 
Q 3116 1113 3116 1747 
z
M 1159 2969 
Q 1341 3281 1617 3432 
Q 1894 3584 2278 3584 
Q 2916 3584 3314 3078 
Q 3713 2572 3713 1747 
Q 3713 922 3314 415 
Q 2916 -91 2278 -91 
Q 1894 -91 1617 61 
Q 1341 213 1159 525 
L 1159 0 
L 581 0 
L 581 4863 
L 1159 4863 
L 1159 2969 
z
" transform="scale(0.015625)"/>
      <path id="DejaVuSans-69" d="M 603 3500 
L 1178 3500 
L 1178 0 
L 603 0 
L 603 3500 
z
M 603 4863 
L 1178 4863 
L 1178 4134 
L 603 4134 
L 603 4863 
z
" transform="scale(0.015625)"/>
      <path id="DejaVuSans-63" d="M 3122 3366 
L 3122 2828 
Q 2878 2963 2633 3030 
Q 2388 3097 2138 3097 
Q 1578 3097 1268 2742 
Q 959 2388 959 1747 
Q 959 1106 1268 751 
Q 1578 397 2138 397 
Q 2388 397 2633 464 
Q 2878 531 3122 666 
L 3122 134 
Q 2881 22 2623 -34 
Q 2366 -91 2075 -91 
Q 1284 -91 818 406 
Q 353 903 353 1747 
Q 353 2603 823 3093 
Q 1294 3584 2113 3584 
Q 2378 3584 2631 3529 
Q 2884 3475 3122 3366 
z
" transform="scale(0.015625)"/>
     </defs>
     <use xlink:href="#DejaVuSans-49"/>
     <use xlink:href="#DejaVuSans-61" x="29.492188"/>
     <use xlink:href="#DejaVuSans-6d" x="90.771484"/>
     <use xlink:href="#DejaVuSans-62" x="188.183594"/>
     <use xlink:href="#DejaVuSans-69" x="251.660156"/>
     <use xlink:href="#DejaVuSans-63" x="279.443359"/>
    </g>
   </g>
   <g id="text_14">
    <!-- Parse -->
    <g transform="translate(361.832136 91.247575)scale(0.08 -0.08)">
     <defs>
      <path id="DejaVuSans-72" d="M 2631 2963 
Q 2534 3019 2420 3045 
Q 2306 3072 2169 3072 
Q 1681 3072 1420 2755 
Q 1159 2438 1159 1844 
L 1159 0 
L 581 0 
L 581 3500 
L 1159 3500 
L 1159 2956 
Q 1341 3275 1631 3429 
Q 1922 3584 2338 3584 
Q 2397 3584 2469 3576 
Q 2541 3569 2628 3553 
L 2631 2963 
z
" transform="scale(0.015625)"/>
      <path id="DejaVuSans-73" d="M 2834 3397 
L 2834 2853 
Q 2591 2978 2328 3040 
Q 2066 3103 1784 3103 
Q 1356 3103 1142 2972 
Q 928 2841 928 2578 
Q 928 2378 1081 2264 
Q 1234 2150 1697 2047 
L 1894 2003 
Q 2506 1872 2764 1633 
Q 3022 1394 3022 966 
Q 3022 478 2636 193 
Q 2250 -91 1575 -91 
Q 1294 -91 989 -36 
Q 684 19 347 128 
L 347 722 
Q 666 556 975 473 
Q 1284 391 1588 391 
Q 1994 391 2212 530 
Q 2431 669 2431 922 
Q 2431 1156 2273 1281 
Q 2116 1406 1581 1522 
L 1381 1569 
Q 847 1681 609 1914 
Q 372 2147 372 2553 
Q 372 3047 722 3315 
Q 1072 3584 1716 3584 
Q 2034 3584 2315 3537 
Q 2597 3491 2834 3397 
z
" transform="scale(0.015625)"/>
      <path id="DejaVuSans-65" d="M 3597 1894 
L 3597 1613 
L 953 1613 
Q 991 1019 1311 708 
Q 1631 397 2203 397 
Q 2534 397 2845 478 
Q 3156 559 3463 722 
L 3463 178 
Q 3153 47 2828 -22 
Q 2503 -91 2169 -91 
Q 1331 -91 842 396 
Q 353 884 353 1716 
Q 353 2575 817 3079 
Q 1281 3584 2069 3584 
Q 2775 3584 3186 3129 
Q 3597 2675 3597 1894 
z
M 3022 2063 
Q 3016 2534 2758 2815 
Q 2500 3097 2075 3097 
Q 1594 3097 1305 2825 
Q 1016 2553 972 2059 
L 3022 2063 
z
" transform="scale(0.015625)"/>
     </defs>
     <use xlink:href="#DejaVuSans-50"/>
     <use xlink:href="#DejaVuSans-61" x="55.802734"/>
     <use xlink:href="#DejaVuSans-72" x="117.082031"/>
     <use xlink:href="#DejaVuSans-73" x="158.195312"/>
     <use xlink:href="#DejaVuSans-65" x="210.294922"/>
    </g>
   </g>
   <g id="text_15">
    <!-- FootBin -->
    <g transform="translate(361.832136 80.943851)scale(0.08 -0.08)">
     <defs>
      <path id="DejaVuSans-46" d="M 628 4666 
L 3309 4666 
L 3309 4134 
L 1259 4134 
L 1259 2759 
L 3109 2759 
L 3109 2228 
L 1259 2228 
L 1259 0 
L 628 0 
L 628 4666 
z
" transform="scale(0.015625)"/>
      <path id="DejaVuSans-6f" d="M 1959 3097 
Q 1497 3097 1228 2736 
Q 959 2375 959 1747 
Q 959 1119 1226 758 
Q 1494 397 1959 397 
Q 2419 397 2687 759 
Q 2956 1122 2956 1747 
Q 2956 2369 2687 2733 
Q 2419 3097 1959 3097 
z
M 1959 3584 
Q 2709 3584 3137 3096 
Q 3566 2609 3566 1747 
Q 3566 888 3137 398 
Q 2709 -91 1959 -91 
Q 1206 -91 779 398 
Q 353 888 353 1747 
Q 353 2609 779 3096 
Q 1206 3584 1959 3584 
z
" transform="scale(0.015625)"/>
      <path id="DejaVuSans-74" d="M 1172 4494 
L 1172 3500 
L 2356 3500 
L 2356 3053 
L 1172 3053 
L 1172 1153 
Q 1172 725 1289 603 
Q 1406 481 1766 481 
L 2356 481 
L 2356 0 
L 1766 0 
Q 1100 0 847 248 
Q 594 497 594 1153 
L 594 3053 
L 172 3053 
L 172 3500 
L 594 3500 
L 594 4494 
L 1172 4494 
z
" transform="scale(0.015625)"/>
      <path id="DejaVuSans-42" d="M 1259 2228 
L 1259 519 
L 2272 519 
Q 2781 519 3026 730 
Q 3272 941 3272 1375 
Q 3272 1813 3026 2020 
Q 2781 2228 2272 2228 
L 1259 2228 
z
M 1259 4147 
L 1259 2741 
L 2194 2741 
Q 2656 2741 2882 2914 
Q 3109 3088 3109 3444 
Q 3109 3797 2882 3972 
Q 2656 4147 2194 4147 
L 1259 4147 
z
M 628 4666 
L 2241 4666 
Q 2963 4666 3353 4366 
Q 3744 4066 3744 3513 
Q 3744 3084 3544 2831 
Q 3344 2578 2956 2516 
Q 3422 2416 3680 2098 
Q 3938 1781 3938 1306 
Q 3938 681 3513 340 
Q 3088 0 2303 0 
L 628 0 
L 628 4666 
z
" transform="scale(0.015625)"/>
      <path id="DejaVuSans-6e" d="M 3513 2113 
L 3513 0 
L 2938 0 
L 2938 2094 
Q 2938 2591 2744 2837 
Q 2550 3084 2163 3084 
Q 1697 3084 1428 2787 
Q 1159 2491 1159 1978 
L 1159 0 
L 581 0 
L 581 3500 
L 1159 3500 
L 1159 2956 
Q 1366 3272 1645 3428 
Q 1925 3584 2291 3584 
Q 2894 3584 3203 3211 
Q 3513 2838 3513 2113 
z
" transform="scale(0.015625)"/>
     </defs>
     <use xlink:href="#DejaVuSans-46"/>
     <use xlink:href="#DejaVuSans-6f" x="53.894531"/>
     <use xlink:href="#DejaVuSans-6f" x="115.076172"/>
     <use xlink:href="#DejaVuSans-74" x="176.257812"/>
     <use xlink:href="#DejaVuSans-42" x="215.466797"/>
     <use xlink:href="#DejaVuSans-69" x="284.070312"/>
     <use xlink:href="#DejaVuSans-6e" x="311.853516"/>
    </g>
   </g>
   <g id="text_16">
    <!-- WFL -->
    <g transform="translate(361.832136 54.755218)scale(0.08 -0.08)">
     <defs>
      <path id="DejaVuSans-4c" d="M 628 4666 
L 1259 4666 
L 1259 531 
L 3531 531 
L 3531 0 
L 628 0 
L 628 4666 
z
" transform="scale(0.015625)"/>
     </defs>
     <use xlink:href="#DejaVuSans-57"/>
     <use xlink:href="#DejaVuSans-46" x="98.876953"/>
     <use xlink:href="#DejaVuSans-4c" x="156.396484"/>
    </g>
   </g>
   <g id="text_17">
    <!-- WFR -->
    <g transform="translate(361.832136 51.606858)scale(0.08 -0.08)">
     <defs>
      <path id="DejaVuSans-52" d="M 2841 2188 
Q 3044 2119 3236 1894 
Q 3428 1669 3622 1275 
L 4263 0 
L 3584 0 
L 2988 1197 
Q 2756 1666 2539 1819 
Q 2322 1972 1947 1972 
L 1259 1972 
L 1259 0 
L 628 0 
L 628 4666 
L 2053 4666 
Q 2853 4666 3247 4331 
Q 3641 3997 3641 3322 
Q 3641 2881 3436 2590 
Q 3231 2300 2841 2188 
z
M 1259 4147 
L 1259 2491 
L 2053 2491 
Q 2509 2491 2742 2702 
Q 2975 2913 2975 3322 
Q 2975 3731 2742 3939 
Q 2509 4147 2053 4147 
L 1259 4147 
z
" transform="scale(0.015625)"/>
     </defs>
     <use xlink:href="#DejaVuSans-57"/>
     <use xlink:href="#DejaVuSans-46" x="98.876953"/>
     <use xlink:href="#DejaVuSans-52" x="156.396484"/>
    </g>
   </g>
   <g id="text_18">
    <!-- Main-L -->
    <g transform="translate(361.832136 46.970182)scale(0.08 -0.08)">
     <defs>
      <path id="DejaVuSans-4d" d="M 628 4666 
L 1569 4666 
L 2759 1491 
L 3956 4666 
L 4897 4666 
L 4897 0 
L 4281 0 
L 4281 4097 
L 3078 897 
L 2444 897 
L 1241 4097 
L 1241 0 
L 628 0 
L 628 4666 
z
" transform="scale(0.015625)"/>
      <path id="DejaVuSans-2d" d="M 313 2009 
L 1997 2009 
L 1997 1497 
L 313 1497 
L 313 2009 
z
" transform="scale(0.015625)"/>
     </defs>
     <use xlink:href="#DejaVuSans-4d"/>
     <use xlink:href="#DejaVuSans-61" x="86.279297"/>
     <use xlink:href="#DejaVuSans-69" x="147.558594"/>
     <use xlink:href="#DejaVuSans-6e" x="175.341797"/>
     <use xlink:href="#DejaVuSans-2d" x="238.720703"/>
     <use xlink:href="#DejaVuSans-4c" x="274.804688"/>
    </g>
   </g>
   <g id="text_19">
    <!-- Main-R -->
    <g transform="translate(361.832136 73.931594)scale(0.08 -0.08)">
     <use xlink:href="#DejaVuSans-4d"/>
     <use xlink:href="#DejaVuSans-61" x="86.279297"/>
     <use xlink:href="#DejaVuSans-69" x="147.558594"/>
     <use xlink:href="#DejaVuSans-6e" x="175.341797"/>
     <use xlink:href="#DejaVuSans-2d" x="238.720703"/>
     <use xlink:href="#DejaVuSans-52" x="274.804688"/>
    </g>
   </g>
   <g id="text_20">
    <!-- AFL -->
    <g transform="translate(361.832136 84.893612)scale(0.08 -0.08)">
     <defs>
      <path id="DejaVuSans-41" d="M 2188 4044 
L 1331 1722 
L 3047 1722 
L 2188 4044 
z
M 1831 4666 
L 2547 4666 
L 4325 0 
L 3669 0 
L 3244 1197 
L 1141 1197 
L 716 0 
L 50 0 
L 1831 4666 
z
" transform="scale(0.015625)"/>
     </defs>
     <use xlink:href="#DejaVuSans-41"/>
     <use xlink:href="#DejaVuSans-46" x="68.408203"/>
     <use xlink:href="#DejaVuSans-4c" x="125.927734"/>
    </g>
   </g>
   <g id="text_21">
    <!-- AFR -->
    <g transform="translate(361.832136 72.586385)scale(0.08 -0.08)">
     <use xlink:href="#DejaVuSans-41"/>
     <use xlink:href="#DejaVuSans-46" x="68.408203"/>
     <use xlink:href="#DejaVuSans-52" x="125.927734"/>
    </g>
   </g>
   <g id="text_22">
    <!-- Nonfinal -->
    <g transform="translate(361.832136 70.869098)scale(0.08 -0.08)">
     <defs>
      <path id="DejaVuSans-4e" d="M 628 4666 
L 1478 4666 
L 3547 763 
L 3547 4666 
L 4159 4666 
L 4159 0 
L 3309 0 
L 1241 3903 
L 1241 0 
L 628 0 
L 628 4666 
z
" transform="scale(0.015625)"/>
      <path id="DejaVuSans-66" d="M 2375 4863 
L 2375 4384 
L 1825 4384 
Q 1516 4384 1395 4259 
Q 1275 4134 1275 3809 
L 1275 3500 
L 2222 3500 
L 2222 3053 
L 1275 3053 
L 1275 0 
L 697 0 
L 697 3053 
L 147 3053 
L 147 3500 
L 697 3500 
L 697 3744 
Q 697 4328 969 4595 
Q 1241 4863 1831 4863 
L 2375 4863 
z
" transform="scale(0.015625)"/>
      <path id="DejaVuSans-6c" d="M 603 4863 
L 1178 4863 
L 1178 0 
L 603 0 
L 603 4863 
z
" transform="scale(0.015625)"/>
     </defs>
     <use xlink:href="#DejaVuSans-4e"/>
     <use xlink:href="#DejaVuSans-6f" x="74.804688"/>
     <use xlink:href="#DejaVuSans-6e" x="135.986328"/>
     <use xlink:href="#DejaVuSans-66" x="199.365234"/>
     <use xlink:href="#DejaVuSans-69" x="234.570312"/>
     <use xlink:href="#DejaVuSans-6e" x="262.353516"/>
     <use xlink:href="#DejaVuSans-61" x="325.732422"/>
     <use xlink:href="#DejaVuSans-6c" x="387.011719"/>
    </g>
   </g>
   <g id="text_23">
    <!-- Trochaic -->
    <g transform="translate(361.832136 83.09046)scale(0.08 -0.08)">
     <defs>
      <path id="DejaVuSans-54" d="M -19 4666 
L 3928 4666 
L 3928 4134 
L 2272 4134 
L 2272 0 
L 1638 0 
L 1638 4134 
L -19 4134 
L -19 4666 
z
" transform="scale(0.015625)"/>
      <path id="DejaVuSans-68" d="M 3513 2113 
L 3513 0 
L 2938 0 
L 2938 2094 
Q 2938 2591 2744 2837 
Q 2550 3084 2163 3084 
Q 1697 3084 1428 2787 
Q 1159 2491 1159 1978 
L 1159 0 
L 581 0 
L 581 4863 
L 1159 4863 
L 1159 2956 
Q 1366 3272 1645 3428 
Q 1925 3584 2291 3584 
Q 2894 3584 3203 3211 
Q 3513 2838 3513 2113 
z
" transform="scale(0.015625)"/>
     </defs>
     <use xlink:href="#DejaVuSans-54"/>
     <use xlink:href="#DejaVuSans-72" x="46.333984"/>
     <use xlink:href="#DejaVuSans-6f" x="85.197266"/>
     <use xlink:href="#DejaVuSans-63" x="146.378906"/>
     <use xlink:href="#DejaVuSans-68" x="201.359375"/>
     <use xlink:href="#DejaVuSans-61" x="264.738281"/>
     <use xlink:href="#DejaVuSans-69" x="326.017578"/>
     <use xlink:href="#DejaVuSans-63" x="353.800781"/>
    </g>
   </g>
  </g>
  <g id="axes_2">
   <g id="patch_7">
    <path d="M 57.6 307.584 
L 414.72 307.584 
L 414.72 186.624 
L 57.6 186.624 
z
" style="fill: #ffffff"/>
   </g>
   <g id="matplotlib.axis_3">
    <g id="xtick_8">
     <g id="line2d_24">
      <g>
       <use xlink:href="#meba1d2a696" x="72.233444" y="307.584" style="stroke: #000000; stroke-width: 0.8"/>
      </g>
     </g>
     <g id="text_24">
      <!-- 0 -->
      <g transform="translate(69.052194 322.182437)scale(0.1 -0.1)">
       <use xlink:href="#DejaVuSans-30"/>
      </g>
     </g>
    </g>
    <g id="xtick_9">
     <g id="line2d_25">
      <g>
       <use xlink:href="#meba1d2a696" x="112.215531" y="307.584" style="stroke: #000000; stroke-width: 0.8"/>
      </g>
     </g>
     <g id="text_25">
      <!-- 25 -->
      <g transform="translate(105.853031 322.182437)scale(0.1 -0.1)">
       <use xlink:href="#DejaVuSans-32"/>
       <use xlink:href="#DejaVuSans-35" x="63.623047"/>
      </g>
     </g>
    </g>
    <g id="xtick_10">
     <g id="line2d_26">
      <g>
       <use xlink:href="#meba1d2a696" x="152.197618" y="307.584" style="stroke: #000000; stroke-width: 0.8"/>
      </g>
     </g>
     <g id="text_26">
      <!-- 50 -->
      <g transform="translate(145.835118 322.182437)scale(0.1 -0.1)">
       <use xlink:href="#DejaVuSans-35"/>
       <use xlink:href="#DejaVuSans-30" x="63.623047"/>
      </g>
     </g>
    </g>
    <g id="xtick_11">
     <g id="line2d_27">
      <g>
       <use xlink:href="#meba1d2a696" x="192.179704" y="307.584" style="stroke: #000000; stroke-width: 0.8"/>
      </g>
     </g>
     <g id="text_27">
      <!-- 75 -->
      <g transform="translate(185.817204 322.182437)scale(0.1 -0.1)">
       <defs>
        <path id="DejaVuSans-37" d="M 525 4666 
L 3525 4666 
L 3525 4397 
L 1831 0 
L 1172 0 
L 2766 4134 
L 525 4134 
L 525 4666 
z
" transform="scale(0.015625)"/>
       </defs>
       <use xlink:href="#DejaVuSans-37"/>
       <use xlink:href="#DejaVuSans-35" x="63.623047"/>
      </g>
     </g>
    </g>
    <g id="xtick_12">
     <g id="line2d_28">
      <g>
       <use xlink:href="#meba1d2a696" x="232.161791" y="307.584" style="stroke: #000000; stroke-width: 0.8"/>
      </g>
     </g>
     <g id="text_28">
      <!-- 100 -->
      <g transform="translate(222.618041 322.182437)scale(0.1 -0.1)">
       <use xlink:href="#DejaVuSans-31"/>
       <use xlink:href="#DejaVuSans-30" x="63.623047"/>
       <use xlink:href="#DejaVuSans-30" x="127.246094"/>
      </g>
     </g>
    </g>
    <g id="xtick_13">
     <g id="line2d_29">
      <g>
       <use xlink:href="#meba1d2a696" x="272.143878" y="307.584" style="stroke: #000000; stroke-width: 0.8"/>
      </g>
     </g>
     <g id="text_29">
      <!-- 125 -->
      <g transform="translate(262.600128 322.182437)scale(0.1 -0.1)">
       <use xlink:href="#DejaVuSans-31"/>
       <use xlink:href="#DejaVuSans-32" x="63.623047"/>
       <use xlink:href="#DejaVuSans-35" x="127.246094"/>
      </g>
     </g>
    </g>
    <g id="xtick_14">
     <g id="line2d_30">
      <g>
       <use xlink:href="#meba1d2a696" x="312.125965" y="307.584" style="stroke: #000000; stroke-width: 0.8"/>
      </g>
     </g>
     <g id="text_30">
      <!-- 150 -->
      <g transform="translate(302.582215 322.182437)scale(0.1 -0.1)">
       <use xlink:href="#DejaVuSans-31"/>
       <use xlink:href="#DejaVuSans-35" x="63.623047"/>
       <use xlink:href="#DejaVuSans-30" x="127.246094"/>
      </g>
     </g>
    </g>
    <g id="xtick_15">
     <g id="line2d_31">
      <g>
       <use xlink:href="#meba1d2a696" x="352.108052" y="307.584" style="stroke: #000000; stroke-width: 0.8"/>
      </g>
     </g>
     <g id="text_31">
      <!-- 175 -->
      <g transform="translate(342.564302 322.182437)scale(0.1 -0.1)">
       <use xlink:href="#DejaVuSans-31"/>
       <use xlink:href="#DejaVuSans-37" x="63.623047"/>
       <use xlink:href="#DejaVuSans-35" x="127.246094"/>
      </g>
     </g>
    </g>
    <g id="xtick_16">
     <g id="line2d_32">
      <g>
       <use xlink:href="#meba1d2a696" x="392.090139" y="307.584" style="stroke: #000000; stroke-width: 0.8"/>
      </g>
     </g>
     <g id="text_32">
      <!-- 200 -->
      <g transform="translate(382.546389 322.182437)scale(0.1 -0.1)">
       <use xlink:href="#DejaVuSans-32"/>
       <use xlink:href="#DejaVuSans-30" x="63.623047"/>
       <use xlink:href="#DejaVuSans-30" x="127.246094"/>
      </g>
     </g>
    </g>
   </g>
   <g id="matplotlib.axis_4">
    <g id="ytick_5">
     <g id="line2d_33">
      <g>
       <use xlink:href="#mdf14cfd180" x="57.6" y="302.102406" style="stroke: #000000; stroke-width: 0.8"/>
      </g>
     </g>
     <g id="text_33">
      <!-- 0 -->
      <g transform="translate(44.2375 305.901625)scale(0.1 -0.1)">
       <use xlink:href="#DejaVuSans-30"/>
      </g>
     </g>
    </g>
    <g id="ytick_6">
     <g id="line2d_34">
      <g>
       <use xlink:href="#mdf14cfd180" x="57.6" y="268.925868" style="stroke: #000000; stroke-width: 0.8"/>
      </g>
     </g>
     <g id="text_34">
      <!-- 2000 -->
      <g transform="translate(25.15 272.725087)scale(0.1 -0.1)">
       <use xlink:href="#DejaVuSans-32"/>
       <use xlink:href="#DejaVuSans-30" x="63.623047"/>
       <use xlink:href="#DejaVuSans-30" x="127.246094"/>
       <use xlink:href="#DejaVuSans-30" x="190.869141"/>
      </g>
     </g>
    </g>
    <g id="ytick_7">
     <g id="line2d_35">
      <g>
       <use xlink:href="#mdf14cfd180" x="57.6" y="235.74933" style="stroke: #000000; stroke-width: 0.8"/>
      </g>
     </g>
     <g id="text_35">
      <!-- 4000 -->
      <g transform="translate(25.15 239.548548)scale(0.1 -0.1)">
       <use xlink:href="#DejaVuSans-34"/>
       <use xlink:href="#DejaVuSans-30" x="63.623047"/>
       <use xlink:href="#DejaVuSans-30" x="127.246094"/>
       <use xlink:href="#DejaVuSans-30" x="190.869141"/>
      </g>
     </g>
    </g>
    <g id="ytick_8">
     <g id="line2d_36">
      <g>
       <use xlink:href="#mdf14cfd180" x="57.6" y="202.572791" style="stroke: #000000; stroke-width: 0.8"/>
      </g>
     </g>
     <g id="text_36">
      <!-- 6000 -->
      <g transform="translate(25.15 206.37201)scale(0.1 -0.1)">
       <use xlink:href="#DejaVuSans-36"/>
       <use xlink:href="#DejaVuSans-30" x="63.623047"/>
       <use xlink:href="#DejaVuSans-30" x="127.246094"/>
       <use xlink:href="#DejaVuSans-30" x="190.869141"/>
      </g>
     </g>
    </g>
   </g>
   <g id="line2d_37">
    <path d="M 73.832727 302.085818 
L 169.789736 302.052642 
L 171.389019 301.953112 
L 174.587586 302.085818 
L 180.98472 301.9697 
L 182.584004 302.06923 
L 184.183287 301.953112 
L 185.782571 302.085818 
L 187.381854 301.836994 
L 193.778988 302.06923 
L 200.176122 301.919935 
L 201.775405 302.085818 
L 203.374689 300.908051 
L 204.973972 302.019465 
L 208.172539 302.052642 
L 209.771823 301.936524 
L 211.371106 301.571582 
L 214.569673 302.085818 
L 216.168957 302.085818 
L 217.76824 301.604758 
L 219.367524 300.393815 
L 220.966807 301.704288 
L 222.56609 301.754053 
L 224.165374 301.040757 
L 225.764657 301.621347 
L 227.363941 299.730284 
L 228.963224 301.58817 
L 230.562508 300.576286 
L 232.161791 301.156875 
L 233.761075 301.405699 
L 235.360358 301.422287 
L 236.959642 300.808521 
L 238.558925 301.621347 
L 240.158209 300.841698 
L 241.757492 301.803818 
L 243.356776 299.498048 
L 244.956059 298.751576 
L 246.555343 301.571582 
L 248.154626 301.372523 
L 249.75391 300.908051 
L 251.353193 301.6877 
L 254.55176 300.808521 
L 256.151043 301.654523 
L 257.750327 301.754053 
L 259.34961 302.052642 
L 260.948894 301.58817 
L 264.147461 302.019465 
L 265.746744 301.239816 
L 267.346028 301.422287 
L 268.945311 301.472052 
L 270.544595 299.730284 
L 272.143878 301.9697 
L 273.743162 302.019465 
L 275.342445 301.770641 
L 280.140296 302.019465 
L 281.739579 301.024169 
L 283.338863 298.967224 
L 284.938146 300.808521 
L 286.537429 301.604758 
L 288.136713 300.775345 
L 289.735996 298.967224 
L 291.33528 298.668635 
L 292.934563 301.48864 
L 294.533847 301.538405 
L 296.13313 302.052642 
L 297.732414 302.085818 
L 299.331697 301.919935 
L 300.930981 302.002877 
L 302.530264 301.803818 
L 304.129548 301.986289 
L 305.728831 301.040757 
L 307.328115 299.431695 
L 308.927398 298.336869 
L 310.526682 300.808521 
L 312.125965 299.498048 
L 313.725249 301.521817 
L 315.324532 300.82511 
L 316.923815 301.886759 
L 320.122382 298.436399 
L 321.721666 301.190052 
L 323.320949 300.360638 
L 324.920233 301.770641 
L 326.519516 301.9697 
L 328.1188 302.002877 
L 329.718083 301.322758 
L 331.317367 299.09993 
L 332.91665 301.123699 
L 334.515934 301.256405 
L 336.115217 298.602282 
L 337.714501 297.971927 
L 339.313784 301.604758 
L 340.913068 288.914732 
L 342.512351 287.189552 
L 344.111635 240.742399 
L 345.710918 291.767915 
L 347.310202 289.246498 
L 348.909485 274.814704 
L 350.508768 276.606237 
L 352.108052 237.424745 
L 353.707335 291.966974 
L 355.306619 301.6877 
L 356.905902 297.524044 
L 358.505186 284.203664 
L 360.104469 256.401725 
L 361.703753 301.30617 
L 363.303036 269.854811 
L 364.90232 265.011037 
L 366.501603 192.122182 
L 368.100887 239.116748 
L 369.70017 261.063029 
L 371.299454 255.987018 
L 372.898737 298.884282 
L 374.498021 299.697107 
L 376.097304 266.70304 
L 377.696588 295.997923 
L 379.295871 301.422287 
L 380.895155 296.910278 
L 382.494438 293.559448 
L 384.093721 285.713197 
L 385.693005 300.675815 
L 387.292288 300.708992 
L 388.891572 294.538156 
L 390.490855 247.012765 
L 392.090139 293.675566 
L 393.689422 298.386634 
L 395.288706 265.442332 
L 396.887989 295.301216 
L 398.487273 242.732991 
L 398.487273 242.732991 
" clip-path="url(#pdd1dff3da2)" style="fill: none; stroke: #1f77b4; stroke-width: 1.5; stroke-linecap: square"/>
   </g>
   <g id="patch_8">
    <path d="M 57.6 307.584 
L 57.6 186.624 
" style="fill: none; stroke: #000000; stroke-width: 0.8; stroke-linejoin: miter; stroke-linecap: square"/>
   </g>
   <g id="patch_9">
    <path d="M 414.72 307.584 
L 414.72 186.624 
" style="fill: none; stroke: #000000; stroke-width: 0.8; stroke-linejoin: miter; stroke-linecap: square"/>
   </g>
   <g id="patch_10">
    <path d="M 57.6 307.584 
L 414.72 307.584 
" style="fill: none; stroke: #000000; stroke-width: 0.8; stroke-linejoin: miter; stroke-linecap: square"/>
   </g>
   <g id="patch_11">
    <path d="M 57.6 186.624 
L 414.72 186.624 
" style="fill: none; stroke: #000000; stroke-width: 0.8; stroke-linejoin: miter; stroke-linecap: square"/>
   </g>
  </g>
 </g>
 <defs>
  <clipPath id="p4315a06af8">
   <rect x="57.6" y="41.472" width="357.12" height="120.96"/>
  </clipPath>
  <clipPath id="pdd1dff3da2">
   <rect x="57.6" y="186.624" width="357.12" height="120.96"/>
  </clipPath>
 </defs>
</svg>
