<?xml version="1.0" encoding="utf-8" standalone="no"?>
<!DOCTYPE svg PUBLIC "-//W3C//DTD SVG 1.1//EN"
  "http://www.w3.org/Graphics/SVG/1.1/DTD/svg11.dtd">
<svg xmlns:xlink="http://www.w3.org/1999/xlink" width="460.8pt" height="345.6pt" viewBox="0 0 460.8 345.6" xmlns="http://www.w3.org/2000/svg" version="1.1">
 <metadata>
  <rdf:RDF xmlns:dc="http://purl.org/dc/elements/1.1/" xmlns:cc="http://creativecommons.org/ns#" xmlns:rdf="http://www.w3.org/1999/02/22-rdf-syntax-ns#">
   <cc:Work>
    <dc:type rdf:resource="http://purl.org/dc/dcmitype/StillImage"/>
    <dc:date>2022-05-13T15:19:38.326918</dc:date>
    <dc:format>image/svg+xml</dc:format>
    <dc:creator>
     <cc:Agent>
      <dc:title>Matplotlib v3.5.1, https://matplotlib.org/</dc:title>
     </cc:Agent>
    </dc:creator>
   </cc:Work>
  </rdf:RDF>
 </metadata>
 <defs>
  <style type="text/css">*{stroke-linejoin: round; stroke-linecap: butt}</style>
 </defs>
 <g id="figure_1">
  <g id="patch_1">
   <path d="M 0 345.6 
L 460.8 345.6 
L 460.8 0 
L 0 0 
z
" style="fill: #ffffff"/>
  </g>
  <g id="axes_1">
   <g id="patch_2">
    <path d="M 57.6 162.432 
L 414.72 162.432 
L 414.72 41.472 
L 57.6 41.472 
z
" style="fill: #ffffff"/>
   </g>
   <g id="matplotlib.axis_1">
    <g id="xtick_1">
     <g id="line2d_1">
      <defs>
       <path id="mce47fe8fa9" d="M 0 0 
L 0 3.5 
" style="stroke: #000000; stroke-width: 0.8"/>
      </defs>
      <g>
       <use xlink:href="#mce47fe8fa9" x="73.827491" y="162.432" style="stroke: #000000; stroke-width: 0.8"/>
      </g>
     </g>
     <g id="text_1">
      <!-- 0 -->
      <g transform="translate(70.646241 177.030437)scale(0.1 -0.1)">
       <defs>
        <path id="DejaVuSans-30" d="M 2034 4250 
Q 1547 4250 1301 3770 
Q 1056 3291 1056 2328 
Q 1056 1369 1301 889 
Q 1547 409 2034 409 
Q 2525 409 2770 889 
Q 3016 1369 3016 2328 
Q 3016 3291 2770 3770 
Q 2525 4250 2034 4250 
z
M 2034 4750 
Q 2819 4750 3233 4129 
Q 3647 3509 3647 2328 
Q 3647 1150 3233 529 
Q 2819 -91 2034 -91 
Q 1250 -91 836 529 
Q 422 1150 422 2328 
Q 422 3509 836 4129 
Q 1250 4750 2034 4750 
z
" transform="scale(0.015625)"/>
       </defs>
       <use xlink:href="#DejaVuSans-30"/>
      </g>
     </g>
    </g>
    <g id="xtick_2">
     <g id="line2d_2">
      <g>
       <use xlink:href="#mce47fe8fa9" x="126.191972" y="162.432" style="stroke: #000000; stroke-width: 0.8"/>
      </g>
     </g>
     <g id="text_2">
      <!-- 10000 -->
      <g transform="translate(110.285722 177.030437)scale(0.1 -0.1)">
       <defs>
        <path id="DejaVuSans-31" d="M 794 531 
L 1825 531 
L 1825 4091 
L 703 3866 
L 703 4441 
L 1819 4666 
L 2450 4666 
L 2450 531 
L 3481 531 
L 3481 0 
L 794 0 
L 794 531 
z
" transform="scale(0.015625)"/>
       </defs>
       <use xlink:href="#DejaVuSans-31"/>
       <use xlink:href="#DejaVuSans-30" x="63.623047"/>
       <use xlink:href="#DejaVuSans-30" x="127.246094"/>
       <use xlink:href="#DejaVuSans-30" x="190.869141"/>
       <use xlink:href="#DejaVuSans-30" x="254.492188"/>
      </g>
     </g>
    </g>
    <g id="xtick_3">
     <g id="line2d_3">
      <g>
       <use xlink:href="#mce47fe8fa9" x="178.556453" y="162.432" style="stroke: #000000; stroke-width: 0.8"/>
      </g>
     </g>
     <g id="text_3">
      <!-- 20000 -->
      <g transform="translate(162.650203 177.030437)scale(0.1 -0.1)">
       <defs>
        <path id="DejaVuSans-32" d="M 1228 531 
L 3431 531 
L 3431 0 
L 469 0 
L 469 531 
Q 828 903 1448 1529 
Q 2069 2156 2228 2338 
Q 2531 2678 2651 2914 
Q 2772 3150 2772 3378 
Q 2772 3750 2511 3984 
Q 2250 4219 1831 4219 
Q 1534 4219 1204 4116 
Q 875 4013 500 3803 
L 500 4441 
Q 881 4594 1212 4672 
Q 1544 4750 1819 4750 
Q 2544 4750 2975 4387 
Q 3406 4025 3406 3419 
Q 3406 3131 3298 2873 
Q 3191 2616 2906 2266 
Q 2828 2175 2409 1742 
Q 1991 1309 1228 531 
z
" transform="scale(0.015625)"/>
       </defs>
       <use xlink:href="#DejaVuSans-32"/>
       <use xlink:href="#DejaVuSans-30" x="63.623047"/>
       <use xlink:href="#DejaVuSans-30" x="127.246094"/>
       <use xlink:href="#DejaVuSans-30" x="190.869141"/>
       <use xlink:href="#DejaVuSans-30" x="254.492188"/>
      </g>
     </g>
    </g>
    <g id="xtick_4">
     <g id="line2d_4">
      <g>
       <use xlink:href="#mce47fe8fa9" x="230.920934" y="162.432" style="stroke: #000000; stroke-width: 0.8"/>
      </g>
     </g>
     <g id="text_4">
      <!-- 30000 -->
      <g transform="translate(215.014684 177.030437)scale(0.1 -0.1)">
       <defs>
        <path id="DejaVuSans-33" d="M 2597 2516 
Q 3050 2419 3304 2112 
Q 3559 1806 3559 1356 
Q 3559 666 3084 287 
Q 2609 -91 1734 -91 
Q 1441 -91 1130 -33 
Q 819 25 488 141 
L 488 750 
Q 750 597 1062 519 
Q 1375 441 1716 441 
Q 2309 441 2620 675 
Q 2931 909 2931 1356 
Q 2931 1769 2642 2001 
Q 2353 2234 1838 2234 
L 1294 2234 
L 1294 2753 
L 1863 2753 
Q 2328 2753 2575 2939 
Q 2822 3125 2822 3475 
Q 2822 3834 2567 4026 
Q 2313 4219 1838 4219 
Q 1578 4219 1281 4162 
Q 984 4106 628 3988 
L 628 4550 
Q 988 4650 1302 4700 
Q 1616 4750 1894 4750 
Q 2613 4750 3031 4423 
Q 3450 4097 3450 3541 
Q 3450 3153 3228 2886 
Q 3006 2619 2597 2516 
z
" transform="scale(0.015625)"/>
       </defs>
       <use xlink:href="#DejaVuSans-33"/>
       <use xlink:href="#DejaVuSans-30" x="63.623047"/>
       <use xlink:href="#DejaVuSans-30" x="127.246094"/>
       <use xlink:href="#DejaVuSans-30" x="190.869141"/>
       <use xlink:href="#DejaVuSans-30" x="254.492188"/>
      </g>
     </g>
    </g>
    <g id="xtick_5">
     <g id="line2d_5">
      <g>
       <use xlink:href="#mce47fe8fa9" x="283.285415" y="162.432" style="stroke: #000000; stroke-width: 0.8"/>
      </g>
     </g>
     <g id="text_5">
      <!-- 40000 -->
      <g transform="translate(267.379165 177.030437)scale(0.1 -0.1)">
       <defs>
        <path id="DejaVuSans-34" d="M 2419 4116 
L 825 1625 
L 2419 1625 
L 2419 4116 
z
M 2253 4666 
L 3047 4666 
L 3047 1625 
L 3713 1625 
L 3713 1100 
L 3047 1100 
L 3047 0 
L 2419 0 
L 2419 1100 
L 313 1100 
L 313 1709 
L 2253 4666 
z
" transform="scale(0.015625)"/>
       </defs>
       <use xlink:href="#DejaVuSans-34"/>
       <use xlink:href="#DejaVuSans-30" x="63.623047"/>
       <use xlink:href="#DejaVuSans-30" x="127.246094"/>
       <use xlink:href="#DejaVuSans-30" x="190.869141"/>
       <use xlink:href="#DejaVuSans-30" x="254.492188"/>
      </g>
     </g>
    </g>
    <g id="xtick_6">
     <g id="line2d_6">
      <g>
       <use xlink:href="#mce47fe8fa9" x="335.649896" y="162.432" style="stroke: #000000; stroke-width: 0.8"/>
      </g>
     </g>
     <g id="text_6">
      <!-- 50000 -->
      <g transform="translate(319.743646 177.030437)scale(0.1 -0.1)">
       <defs>
        <path id="DejaVuSans-35" d="M 691 4666 
L 3169 4666 
L 3169 4134 
L 1269 4134 
L 1269 2991 
Q 1406 3038 1543 3061 
Q 1681 3084 1819 3084 
Q 2600 3084 3056 2656 
Q 3513 2228 3513 1497 
Q 3513 744 3044 326 
Q 2575 -91 1722 -91 
Q 1428 -91 1123 -41 
Q 819 9 494 109 
L 494 744 
Q 775 591 1075 516 
Q 1375 441 1709 441 
Q 2250 441 2565 725 
Q 2881 1009 2881 1497 
Q 2881 1984 2565 2268 
Q 2250 2553 1709 2553 
Q 1456 2553 1204 2497 
Q 953 2441 691 2322 
L 691 4666 
z
" transform="scale(0.015625)"/>
       </defs>
       <use xlink:href="#DejaVuSans-35"/>
       <use xlink:href="#DejaVuSans-30" x="63.623047"/>
       <use xlink:href="#DejaVuSans-30" x="127.246094"/>
       <use xlink:href="#DejaVuSans-30" x="190.869141"/>
       <use xlink:href="#DejaVuSans-30" x="254.492188"/>
      </g>
     </g>
    </g>
    <g id="xtick_7">
     <g id="line2d_7">
      <g>
       <use xlink:href="#mce47fe8fa9" x="388.014377" y="162.432" style="stroke: #000000; stroke-width: 0.8"/>
      </g>
     </g>
     <g id="text_7">
      <!-- 60000 -->
      <g transform="translate(372.108127 177.030437)scale(0.1 -0.1)">
       <defs>
        <path id="DejaVuSans-36" d="M 2113 2584 
Q 1688 2584 1439 2293 
Q 1191 2003 1191 1497 
Q 1191 994 1439 701 
Q 1688 409 2113 409 
Q 2538 409 2786 701 
Q 3034 994 3034 1497 
Q 3034 2003 2786 2293 
Q 2538 2584 2113 2584 
z
M 3366 4563 
L 3366 3988 
Q 3128 4100 2886 4159 
Q 2644 4219 2406 4219 
Q 1781 4219 1451 3797 
Q 1122 3375 1075 2522 
Q 1259 2794 1537 2939 
Q 1816 3084 2150 3084 
Q 2853 3084 3261 2657 
Q 3669 2231 3669 1497 
Q 3669 778 3244 343 
Q 2819 -91 2113 -91 
Q 1303 -91 875 529 
Q 447 1150 447 2328 
Q 447 3434 972 4092 
Q 1497 4750 2381 4750 
Q 2619 4750 2861 4703 
Q 3103 4656 3366 4563 
z
" transform="scale(0.015625)"/>
       </defs>
       <use xlink:href="#DejaVuSans-36"/>
       <use xlink:href="#DejaVuSans-30" x="63.623047"/>
       <use xlink:href="#DejaVuSans-30" x="127.246094"/>
       <use xlink:href="#DejaVuSans-30" x="190.869141"/>
       <use xlink:href="#DejaVuSans-30" x="254.492188"/>
      </g>
     </g>
    </g>
   </g>
   <g id="matplotlib.axis_2">
    <g id="ytick_1">
     <g id="line2d_8">
      <defs>
       <path id="mcd92e00ac4" d="M 0 0 
L -3.5 0 
" style="stroke: #000000; stroke-width: 0.8"/>
      </defs>
      <g>
       <use xlink:href="#mcd92e00ac4" x="57.6" y="141.295649" style="stroke: #000000; stroke-width: 0.8"/>
      </g>
     </g>
     <g id="text_8">
      <!-- 40 -->
      <g transform="translate(37.875 145.094867)scale(0.1 -0.1)">
       <use xlink:href="#DejaVuSans-34"/>
       <use xlink:href="#DejaVuSans-30" x="63.623047"/>
      </g>
     </g>
    </g>
    <g id="ytick_2">
     <g id="line2d_9">
      <g>
       <use xlink:href="#mcd92e00ac4" x="57.6" y="111.508659" style="stroke: #000000; stroke-width: 0.8"/>
      </g>
     </g>
     <g id="text_9">
      <!-- 60 -->
      <g transform="translate(37.875 115.307878)scale(0.1 -0.1)">
       <use xlink:href="#DejaVuSans-36"/>
       <use xlink:href="#DejaVuSans-30" x="63.623047"/>
      </g>
     </g>
    </g>
    <g id="ytick_3">
     <g id="line2d_10">
      <g>
       <use xlink:href="#mcd92e00ac4" x="57.6" y="81.72167" style="stroke: #000000; stroke-width: 0.8"/>
      </g>
     </g>
     <g id="text_10">
      <!-- 80 -->
      <g transform="translate(37.875 85.520888)scale(0.1 -0.1)">
       <defs>
        <path id="DejaVuSans-38" d="M 2034 2216 
Q 1584 2216 1326 1975 
Q 1069 1734 1069 1313 
Q 1069 891 1326 650 
Q 1584 409 2034 409 
Q 2484 409 2743 651 
Q 3003 894 3003 1313 
Q 3003 1734 2745 1975 
Q 2488 2216 2034 2216 
z
M 1403 2484 
Q 997 2584 770 2862 
Q 544 3141 544 3541 
Q 544 4100 942 4425 
Q 1341 4750 2034 4750 
Q 2731 4750 3128 4425 
Q 3525 4100 3525 3541 
Q 3525 3141 3298 2862 
Q 3072 2584 2669 2484 
Q 3125 2378 3379 2068 
Q 3634 1759 3634 1313 
Q 3634 634 3220 271 
Q 2806 -91 2034 -91 
Q 1263 -91 848 271 
Q 434 634 434 1313 
Q 434 1759 690 2068 
Q 947 2378 1403 2484 
z
M 1172 3481 
Q 1172 3119 1398 2916 
Q 1625 2713 2034 2713 
Q 2441 2713 2670 2916 
Q 2900 3119 2900 3481 
Q 2900 3844 2670 4047 
Q 2441 4250 2034 4250 
Q 1625 4250 1398 4047 
Q 1172 3844 1172 3481 
z
" transform="scale(0.015625)"/>
       </defs>
       <use xlink:href="#DejaVuSans-38"/>
       <use xlink:href="#DejaVuSans-30" x="63.623047"/>
      </g>
     </g>
    </g>
    <g id="ytick_4">
     <g id="line2d_11">
      <g>
       <use xlink:href="#mcd92e00ac4" x="57.6" y="51.93468" style="stroke: #000000; stroke-width: 0.8"/>
      </g>
     </g>
     <g id="text_11">
      <!-- 100 -->
      <g transform="translate(31.5125 55.733899)scale(0.1 -0.1)">
       <use xlink:href="#DejaVuSans-31"/>
       <use xlink:href="#DejaVuSans-30" x="63.623047"/>
       <use xlink:href="#DejaVuSans-30" x="127.246094"/>
      </g>
     </g>
    </g>
   </g>
   <g id="line2d_12">
    <path d="M 73.832727 53.42403 
L 73.837964 53.42403 
L 73.8432 53.051692 
L 73.879855 57.023291 
L 73.890328 55.906279 
L 74.047422 70.055099 
L 74.068367 70.055099 
L 74.178333 75.267822 
L 74.188806 73.778472 
L 74.199279 73.778472 
L 74.298771 75.516047 
L 74.283062 72.537348 
L 74.31448 75.019597 
L 74.319717 74.523147 
L 74.340663 78.991196 
L 74.382554 78.246521 
L 74.502993 85.196818 
L 74.513466 84.700369 
L 74.518702 84.700369 
L 74.544884 83.955694 
L 74.586776 86.189718 
L 74.607722 86.189718 
L 74.738633 92.395341 
L 74.743869 92.395341 
L 74.749106 91.650666 
L 74.790997 97.608064 
L 74.81718 97.608064 
L 74.822416 97.608064 
L 74.827652 96.863389 
L 74.885253 102.076112 
L 74.89049 102.076112 
L 75.005692 103.565462 
L 75.147076 103.565462 
L 75.246568 102.820787 
L 75.251805 104.310137 
L 75.283223 104.310137 
L 75.403662 107.288836 
L 75.429844 107.288836 
L 75.513627 110.267535 
L 75.545046 108.778185 
L 75.560755 108.778185 
L 75.68643 113.246234 
L 75.717849 113.246234 
L 75.728321 112.749784 
L 75.754504 115.728483 
L 75.806868 114.983808 
L 75.838287 114.983808 
L 75.937779 118.707182 
L 75.958725 117.962507 
L 75.974435 117.962507 
L 76.037272 116.473157 
L 76.047745 119.451856 
L 76.073927 118.955407 
L 76.094873 118.955407 
L 76.136764 119.700081 
L 76.210075 118.210732 
L 76.241493 118.210732 
L 76.377641 125.657479 
L 76.382877 125.657479 
L 76.508552 130.870202 
L 76.534734 130.870202 
L 76.576626 129.380853 
L 76.649936 130.125528 
L 76.780848 136.082926 
L 76.796557 136.082926 
L 76.927468 142.040323 
L 76.96936 142.040323 
L 77.089798 145.019022 
L 77.100271 145.019022 
L 77.11598 146.508372 
L 77.210236 145.763697 
L 77.398748 145.763697 
L 77.414458 145.267247 
L 77.472059 147.749496 
L 77.487768 147.749496 
L 78.493166 147.749496 
L 78.608368 149.238846 
L 85.190583 149.238846 
L 85.305785 150.728195 
L 85.682809 150.728195 
L 85.798011 150.231746 
L 85.913213 150.231746 
L 86.028415 151.721095 
L 95.506386 151.721095 
L 95.621588 153.210444 
L 106.429617 153.210444 
L 106.544819 154.699794 
L 107.047518 154.699794 
L 107.162719 156.189143 
L 132.124867 156.189143 
L 132.240069 155.444469 
L 153.751398 155.444469 
L 153.8666 156.933818 
L 162.789508 156.933818 
L 162.904709 156.189143 
L 183.253547 156.189143 
L 183.368749 155.444469 
L 185.363835 155.444469 
L 185.479037 154.699794 
L 194.318161 154.699794 
L 194.433363 156.189143 
L 231.345086 156.189143 
L 231.460288 155.444469 
L 269.953418 155.444469 
L 270.06862 154.699794 
L 355.077118 154.699794 
L 355.19232 156.189143 
L 355.815457 156.189143 
L 355.930659 155.444469 
L 357.637741 155.444469 
L 357.752943 154.699794 
L 398.487273 154.699794 
L 398.487273 154.699794 
" clip-path="url(#pcce50a11fb)" style="fill: none; stroke: #1f77b4; stroke-width: 1.5; stroke-linecap: square"/>
   </g>
   <g id="line2d_13">
    <path d="M 73.832727 53.42403 
L 73.984584 65.661518 
L 73.989821 65.661518 
L 74.110259 69.757229 
L 74.141678 69.757229 
L 74.152151 69.384891 
L 74.194042 72.735928 
L 74.199279 71.991253 
L 74.324953 78.643681 
L 74.345899 77.154331 
L 74.4035 81.62238 
L 74.429682 79.83516 
L 74.518702 86.537233 
L 74.555357 84.303209 
L 74.56583 84.303209 
L 74.701978 92.122293 
L 74.707214 92.122293 
L 74.743869 90.632944 
L 74.754342 93.611643 
L 74.811943 93.611643 
L 74.822416 93.611643 
L 74.853835 91.377619 
L 74.911436 95.845667 
L 74.916672 95.845667 
L 74.921908 95.845667 
L 74.937618 95.349217 
L 74.942854 96.838567 
L 75.021401 96.838567 
L 75.162785 96.838567 
L 75.246568 98.327916 
L 75.27275 96.838567 
L 75.293696 96.838567 
L 75.408898 98.327916 
L 75.43508 98.327916 
L 75.445553 96.838567 
L 75.482208 99.817266 
L 75.539809 99.072591 
L 75.581701 99.072591 
L 75.696903 97.831466 
L 75.717849 97.831466 
L 75.838287 101.55484 
L 75.927307 101.55484 
L 76.032035 106.022889 
L 76.047745 104.533539 
L 76.052981 104.533539 
L 76.178656 109.001588 
L 76.283385 109.001588 
L 76.309567 106.022889 
L 76.388114 109.001588 
L 76.508552 111.980286 
L 76.513789 111.980286 
L 76.628991 115.20721 
L 76.634227 114.710761 
L 76.655173 114.710761 
L 76.765138 117.689459 
L 76.770375 116.20011 
L 76.80703 116.20011 
L 76.827976 114.710761 
L 76.916995 116.20011 
L 76.932705 116.20011 
L 77.047906 118.682359 
L 77.194527 118.682359 
L 77.309729 120.171709 
L 77.430167 120.171709 
L 77.545369 121.661058 
L 85.190583 121.661058 
L 85.305785 123.150408 
L 106.429617 123.150408 
L 106.544819 121.661058 
L 107.047518 121.661058 
L 107.162719 123.150408 
L 108.482304 123.150408 
L 108.597506 121.661058 
L 109.71287 121.661058 
L 109.828071 123.150408 
L 119.84016 123.150408 
L 119.955362 122.653958 
L 132.124867 122.653958 
L 132.240069 124.143307 
L 146.336588 124.143307 
L 146.451789 122.653958 
L 154.615412 122.653958 
L 154.730614 124.143307 
L 181.075184 124.143307 
L 181.190386 122.653958 
L 183.253547 122.653958 
L 183.368749 124.143307 
L 184.306073 124.143307 
L 184.374147 122.653958 
L 184.416038 124.143307 
L 185.363835 124.143307 
L 185.479037 125.632657 
L 197.590942 125.632657 
L 197.706143 127.122006 
L 215.970874 127.122006 
L 216.086076 125.632657 
L 220.610367 125.632657 
L 220.725569 127.122006 
L 223.930275 127.122006 
L 224.045477 125.632657 
L 224.150206 125.632657 
L 224.265408 125.136207 
L 231.345086 125.136207 
L 231.460288 126.625556 
L 269.953418 126.625556 
L 270.06862 128.114906 
L 325.821083 128.114906 
L 325.936284 126.625556 
L 355.077118 126.625556 
L 355.19232 125.136207 
L 355.815457 125.136207 
L 355.930659 126.625556 
L 357.637741 126.625556 
L 357.752943 128.114906 
L 398.487273 128.114906 
L 398.487273 128.114906 
" clip-path="url(#pcce50a11fb)" style="fill: none; stroke: #ff7f0e; stroke-width: 1.5; stroke-linecap: square"/>
   </g>
   <g id="line2d_14">
    <path d="M 73.832727 51.190005 
L 73.837964 51.190005 
L 73.874619 50.321218 
L 73.885092 53.299917 
L 73.921747 51.810568 
L 73.974111 51.065893 
L 74.047422 57.023291 
L 74.068367 54.789267 
L 74.110259 59.257315 
L 74.146914 58.51264 
L 74.152151 58.51264 
L 74.262116 61.491339 
L 74.16786 57.767966 
L 74.267352 60.994889 
L 74.288298 58.760865 
L 74.377318 60.00199 
L 74.398264 60.00199 
L 74.523938 65.214713 
L 74.571066 65.214713 
L 74.592012 64.470038 
L 74.628667 68.938087 
L 74.644377 68.441637 
L 74.764815 72.16501 
L 74.770051 72.16501 
L 74.895726 76.633059 
L 74.921908 76.633059 
L 75.021401 78.122408 
L 75.031874 76.633059 
L 75.147076 76.633059 
L 75.27275 74.399035 
L 75.283223 74.399035 
L 75.377479 78.867083 
L 75.398425 75.888384 
L 75.408898 75.888384 
L 75.429844 74.399035 
L 75.482208 77.377734 
L 75.513627 77.377734 
L 75.5241 77.377734 
L 75.560755 76.633059 
L 75.571228 79.611758 
L 75.618356 79.611758 
L 75.628829 79.611758 
L 75.707376 83.335132 
L 75.749267 82.838682 
L 75.780686 82.838682 
L 75.838287 81.349332 
L 75.890651 82.094007 
L 75.916834 82.094007 
L 76.032035 84.328031 
L 76.037272 84.328031 
L 76.152474 88.29963 
L 76.15771 87.554955 
L 76.199602 87.554955 
L 76.241493 86.065606 
L 76.257203 90.533654 
L 76.299094 89.788979 
L 76.32004 89.788979 
L 76.340986 89.044305 
L 76.388114 91.278329 
L 76.414296 91.278329 
L 76.524262 95.001702 
L 76.466661 90.533654 
L 76.529498 93.512353 
L 76.576626 92.023003 
L 76.634227 94.257028 
L 76.649936 94.257028 
L 76.691828 97.235727 
L 76.765138 95.746377 
L 76.796557 95.746377 
L 76.916995 98.725076 
L 76.958887 98.725076 
L 76.96936 97.235727 
L 76.985069 100.214426 
L 77.063616 100.214426 
L 77.074089 100.214426 
L 77.11598 103.193125 
L 77.189291 102.44845 
L 77.388276 102.44845 
L 77.414458 100.462651 
L 77.472059 102.9449 
L 77.493004 102.9449 
L 77.875265 102.9449 
L 77.990467 102.200225 
L 78.168506 102.200225 
L 78.283708 103.689574 
L 78.493166 103.689574 
L 78.608368 105.178924 
L 85.682809 105.178924 
L 85.798011 104.682474 
L 85.913213 104.682474 
L 86.028415 106.171824 
L 95.506386 106.171824 
L 95.621588 107.661173 
L 101.015129 107.661173 
L 101.130331 106.171824 
L 103.366295 106.171824 
L 103.481496 105.427149 
L 119.84016 105.427149 
L 119.955362 106.916498 
L 153.751398 106.916498 
L 153.8666 108.405848 
L 162.789508 108.405848 
L 162.904709 107.661173 
L 192.087435 107.661173 
L 192.202636 106.171824 
L 194.318161 106.171824 
L 194.433363 107.661173 
L 206.330573 107.661173 
L 206.445775 109.150522 
L 224.150206 109.150522 
L 224.265408 110.639872 
L 398.487273 110.639872 
L 398.487273 110.639872 
" clip-path="url(#pcce50a11fb)" style="fill: none; stroke: #2ca02c; stroke-width: 1.5; stroke-linecap: square"/>
   </g>
   <g id="line2d_15">
    <path d="M 73.832727 53.42403 
L 73.864146 53.42403 
L 73.879855 54.913379 
L 73.974111 54.168704 
L 74.042185 54.168704 
L 74.157387 53.299917 
L 74.25688 56.278616 
L 74.277825 55.980746 
L 74.340663 55.980746 
L 74.419209 58.959445 
L 74.461101 58.661575 
L 74.466337 58.661575 
L 74.592012 63.129624 
L 74.597249 63.129624 
L 74.65485 62.757286 
L 74.660086 64.246636 
L 74.691505 64.246636 
L 74.811943 64.246636 
L 74.927145 65.735985 
L 75.377479 65.735985 
L 75.492681 67.225335 
L 75.92207 67.225335 
L 76.037272 68.714684 
L 76.052981 68.714684 
L 76.168183 70.204034 
L 76.356695 70.204034 
L 76.471897 71.693383 
L 76.524262 71.693383 
L 76.6447 74.672082 
L 77.875265 74.672082 
L 77.990467 76.161432 
L 103.366295 76.161432 
L 103.481496 77.650781 
L 398.487273 77.650781 
L 398.487273 77.650781 
" clip-path="url(#pcce50a11fb)" style="fill: none; stroke: #d62728; stroke-width: 1.5; stroke-linecap: square"/>
   </g>
   <g id="line2d_16">
    <path d="M 73.832727 51.93468 
L 73.837964 51.93468 
L 73.953166 51.562343 
L 398.487273 51.562343 
L 398.487273 51.562343 
" clip-path="url(#pcce50a11fb)" style="fill: none; stroke: #9467bd; stroke-width: 1.5; stroke-linecap: square"/>
   </g>
   <g id="line2d_17">
    <path d="M 73.832727 51.93468 
L 73.85891 51.93468 
L 73.937456 55.906279 
L 73.979348 55.161604 
L 74.042185 55.161604 
L 74.162624 58.884978 
L 74.173096 58.140303 
L 74.262116 60.374327 
L 74.288298 60.374327 
L 74.31448 61.863677 
L 74.398264 61.367227 
L 74.419209 61.367227 
L 74.466337 62.856576 
L 74.529175 61.863677 
L 74.571066 61.863677 
L 74.691505 59.877877 
L 76.57139 59.877877 
L 76.686591 59.133203 
L 77.398748 59.133203 
L 77.519187 58.140303 
L 77.875265 58.140303 
L 77.990467 57.395628 
L 85.682809 57.395628 
L 85.798011 56.899178 
L 103.366295 56.899178 
L 103.481496 56.154504 
L 398.487273 56.154504 
L 398.487273 56.154504 
" clip-path="url(#pcce50a11fb)" style="fill: none; stroke: #8c564b; stroke-width: 1.5; stroke-linecap: square"/>
   </g>
   <g id="line2d_18">
    <path d="M 73.832727 51.93468 
L 73.837964 51.93468 
L 73.963638 50.693556 
L 73.979348 50.693556 
L 74.09455 49.948881 
L 74.194042 49.948881 
L 74.31448 48.459531 
L 142.435434 48.459531 
L 142.550636 46.970182 
L 398.487273 46.970182 
L 398.487273 46.970182 
" clip-path="url(#pcce50a11fb)" style="fill: none; stroke: #e377c2; stroke-width: 1.5; stroke-linecap: square"/>
   </g>
   <g id="line2d_19">
    <path d="M 73.832727 51.93468 
L 73.837964 51.93468 
L 73.921747 56.030391 
L 73.958402 55.732521 
L 73.979348 55.236071 
L 73.984584 56.725421 
L 74.063131 56.228971 
L 74.194042 56.228971 
L 74.31448 59.20767 
L 74.408737 59.20767 
L 74.534411 63.675718 
L 75.581701 63.675718 
L 75.696903 65.165068 
L 142.435434 65.165068 
L 142.550636 66.654417 
L 398.487273 66.654417 
L 398.487273 66.654417 
" clip-path="url(#pcce50a11fb)" style="fill: none; stroke: #7f7f7f; stroke-width: 1.5; stroke-linecap: square"/>
   </g>
   <g id="line2d_20">
    <path d="M 73.832727 53.42403 
L 73.8432 53.42403 
L 73.864146 52.43113 
L 73.890328 55.782166 
L 73.937456 54.243172 
L 74.063131 59.580007 
L 74.068367 59.580007 
L 74.120732 57.594208 
L 74.162624 61.193469 
L 74.288298 67.47356 
L 74.298771 66.728885 
L 74.345899 70.700483 
L 74.366845 70.204034 
L 74.508229 78.842261 
L 74.513466 78.842261 
L 74.571066 78.097586 
L 74.607722 80.207498 
L 74.618194 79.462823 
L 74.623431 79.462823 
L 74.63914 78.966373 
L 74.665323 82.937972 
L 74.696741 82.937972 
L 74.722923 82.937972 
L 74.811943 82.193297 
L 74.743869 83.682646 
L 74.832889 82.937972 
L 74.880017 82.937972 
L 75.000455 80.952172 
L 75.021401 80.952172 
L 75.136603 82.441522 
L 75.147076 82.441522 
L 75.267514 85.420221 
L 75.283223 85.420221 
L 75.377479 83.186197 
L 75.393189 84.675546 
L 75.429844 87.654245 
L 75.508391 86.41312 
L 75.5241 86.41312 
L 75.592174 89.391819 
L 75.639302 87.90247 
L 75.644538 87.90247 
L 75.655011 87.40602 
L 75.712612 89.640044 
L 75.717849 89.640044 
L 75.83305 91.874069 
L 75.838287 91.874069 
L 75.84876 91.129394 
L 75.927307 93.363418 
L 75.943016 92.618743 
L 75.974435 92.618743 
L 76.016326 94.852767 
L 76.089636 94.108093 
L 76.100109 93.363418 
L 76.15771 95.597442 
L 76.189129 95.597442 
L 76.199602 95.597442 
L 76.272912 97.831466 
L 76.257203 94.852767 
L 76.314804 97.086792 
L 76.32004 97.086792 
L 76.382877 100.065491 
L 76.435242 98.576141 
L 76.445715 98.576141 
L 76.576626 104.781764 
L 76.587099 105.774664 
L 76.691828 103.788864 
L 76.754665 108.256913 
L 76.812266 106.767563 
L 76.927468 106.022889 
L 76.958887 106.022889 
L 76.96936 107.512238 
L 77.068852 106.271113 
L 77.074089 106.271113 
L 77.11598 104.781764 
L 77.184054 106.271113 
L 77.388276 106.271113 
L 77.466822 109.994487 
L 77.508714 109.249812 
L 77.875265 109.249812 
L 77.990467 110.739162 
L 78.168506 110.739162 
L 78.283708 109.994487 
L 78.493166 109.994487 
L 78.608368 109.249812 
L 85.682809 109.249812 
L 85.798011 110.739162 
L 85.913213 110.739162 
L 86.028415 109.994487 
L 95.506386 109.994487 
L 95.621588 109.249812 
L 101.015129 109.249812 
L 101.130331 110.739162 
L 103.366295 110.739162 
L 103.481496 112.228511 
L 119.84016 112.228511 
L 119.955362 111.732062 
L 153.751398 111.732062 
L 153.8666 110.987387 
L 162.789508 110.987387 
L 162.904709 112.476736 
L 192.087435 112.476736 
L 192.202636 113.966086 
L 194.318161 113.966086 
L 194.433363 113.221411 
L 206.330573 113.221411 
L 206.445775 112.476736 
L 224.150206 112.476736 
L 224.265408 111.980286 
L 398.487273 111.980286 
L 398.487273 111.980286 
" clip-path="url(#pcce50a11fb)" style="fill: none; stroke: #bcbd22; stroke-width: 1.5; stroke-linecap: square"/>
   </g>
   <g id="line2d_21">
    <path d="M 73.832727 53.42403 
L 73.837964 53.42403 
L 73.911274 57.395628 
L 73.958402 57.345983 
L 73.963638 56.849533 
L 73.974111 59.828232 
L 74.052658 58.587108 
L 74.110259 58.090658 
L 74.173096 62.186369 
L 74.262116 61.019712 
L 74.267352 62.509061 
L 74.398264 68.962909 
L 74.408737 68.466459 
L 74.461101 72.884863 
L 74.466337 72.884863 
L 74.471574 72.884863 
L 74.482047 73.877762 
L 74.586776 72.388413 
L 74.592012 72.388413 
L 74.681032 71.271401 
L 74.607722 73.008975 
L 74.696741 72.76075 
L 74.722923 72.76075 
L 74.811943 72.016076 
L 74.743869 73.505425 
L 74.832889 72.76075 
L 74.880017 72.76075 
L 75.000455 70.774951 
L 75.021401 70.774951 
L 75.136603 72.2643 
L 75.147076 72.2643 
L 75.267514 75.242999 
L 75.283223 75.242999 
L 75.377479 73.008975 
L 75.393189 74.498325 
L 75.429844 77.477024 
L 75.508391 76.235899 
L 75.5241 76.235899 
L 75.592174 79.214598 
L 75.639302 77.725249 
L 75.644538 77.725249 
L 75.655011 77.228799 
L 75.712612 79.462823 
L 75.717849 79.462823 
L 75.83305 81.696847 
L 75.838287 81.696847 
L 75.84876 80.952172 
L 75.927307 83.186197 
L 75.943016 82.441522 
L 75.974435 82.441522 
L 76.016326 84.675546 
L 76.089636 83.930871 
L 76.100109 83.186197 
L 76.15771 85.420221 
L 76.189129 85.420221 
L 76.199602 85.420221 
L 76.272912 87.654245 
L 76.257203 84.675546 
L 76.314804 86.90957 
L 76.32004 86.90957 
L 76.382877 89.888269 
L 76.435242 88.39892 
L 76.445715 88.39892 
L 76.57139 93.115193 
L 76.576626 93.115193 
L 76.587099 94.108093 
L 76.691828 92.122293 
L 76.754665 96.590342 
L 76.812266 95.100992 
L 76.927468 94.356318 
L 76.958887 94.356318 
L 76.96936 95.845667 
L 77.068852 94.604543 
L 77.074089 94.604543 
L 77.11598 93.115193 
L 77.184054 94.604543 
L 77.388276 94.604543 
L 77.414458 96.093892 
L 77.498241 94.604543 
L 78.168506 94.604543 
L 78.283708 93.859868 
L 78.493166 93.859868 
L 78.608368 93.115193 
L 85.913213 93.115193 
L 86.028415 92.370518 
L 95.506386 92.370518 
L 95.621588 91.625844 
L 101.015129 91.625844 
L 101.130331 93.115193 
L 119.84016 93.115193 
L 119.955362 92.618743 
L 153.751398 92.618743 
L 153.8666 91.874069 
L 162.789508 91.874069 
L 162.904709 93.363418 
L 192.087435 93.363418 
L 192.202636 94.852767 
L 194.318161 94.852767 
L 194.433363 94.108093 
L 206.330573 94.108093 
L 206.445775 93.363418 
L 224.150206 93.363418 
L 224.265408 92.866968 
L 398.487273 92.866968 
L 398.487273 92.866968 
" clip-path="url(#pcce50a11fb)" style="fill: none; stroke: #17becf; stroke-width: 1.5; stroke-linecap: square"/>
   </g>
   <g id="line2d_22">
    <path d="M 73.832727 51.93468 
L 73.85891 51.93468 
L 73.869382 51.43823 
L 73.942693 53.746722 
L 73.947929 53.746722 
L 74.042185 53.746722 
L 74.047422 53.374385 
L 74.052658 54.863734 
L 74.136441 54.863734 
L 74.141678 54.863734 
L 74.162624 53.994947 
L 74.225461 56.601308 
L 74.25688 56.601308 
L 74.31448 55.558764 
L 74.319717 57.048113 
L 74.356372 57.048113 
L 74.419209 57.048113 
L 74.466337 56.750243 
L 74.471574 58.239593 
L 74.502993 58.239593 
L 74.623431 61.218292 
L 74.63914 61.218292 
L 74.759579 64.196991 
L 76.57139 64.196991 
L 76.686591 65.68634 
L 77.398748 65.68634 
L 77.519187 68.665039 
L 77.875265 68.665039 
L 77.990467 70.154389 
L 85.682809 70.154389 
L 85.798011 71.643738 
L 103.366295 71.643738 
L 103.481496 73.133088 
L 398.487273 73.133088 
L 398.487273 73.133088 
" clip-path="url(#pcce50a11fb)" style="fill: none; stroke: #1f77b4; stroke-width: 1.5; stroke-linecap: square"/>
   </g>
   <g id="line2d_23">
    <path d="M 73.832727 51.190005 
L 73.85891 49.700656 
L 73.921747 57.147403 
L 74.047422 61.863677 
L 74.052658 61.863677 
L 74.183569 71.047998 
L 74.188806 70.303324 
L 74.225461 68.813974 
L 74.277825 76.508946 
L 74.324953 75.516047 
L 74.393027 79.487645 
L 74.4035 78.246521 
L 74.461101 83.211019 
L 74.487283 81.473445 
L 74.497756 81.473445 
L 74.623431 86.189718 
L 74.660086 85.196818 
L 74.686268 88.175517 
L 74.717687 86.686168 
L 74.743869 89.664867 
L 74.832889 88.920192 
L 74.843362 88.920192 
L 74.853835 90.409542 
L 74.911436 86.686168 
L 74.937618 86.686168 
L 75.021401 85.196818 
L 75.047583 86.686168 
L 75.147076 86.686168 
L 75.267514 89.664867 
L 75.293696 89.664867 
L 75.393189 88.175517 
L 75.403662 89.664867 
L 75.408898 89.664867 
L 75.529336 93.636465 
L 75.581701 93.636465 
L 75.696903 95.125815 
L 75.707376 95.125815 
L 75.754504 94.629365 
L 75.817341 97.608064 
L 75.932543 96.118715 
L 75.937779 96.118715 
L 75.974435 95.37404 
L 76.005853 98.352739 
L 76.032035 97.608064 
L 76.142001 99.345638 
L 76.199602 98.600964 
L 76.204838 100.090313 
L 76.24673 100.090313 
L 76.257203 100.090313 
L 76.356695 107.537061 
L 76.388114 106.792386 
L 76.461424 105.303036 
L 76.498079 106.792386 
L 76.513789 106.792386 
L 76.529498 105.303036 
L 76.539971 108.281735 
L 76.618518 107.785285 
L 76.655173 107.785285 
L 76.73372 106.295936 
L 76.754665 109.274635 
L 76.759902 109.274635 
L 76.765138 109.274635 
L 76.827976 112.253334 
L 76.88034 110.763984 
L 76.932705 110.763984 
L 77.047906 109.274635 
L 77.11598 109.274635 
L 77.194527 110.763984 
L 77.225946 109.274635 
L 77.388276 109.274635 
L 77.430167 110.763984 
L 77.498241 109.274635 
L 85.190583 109.274635 
L 85.305785 107.785285 
L 101.015129 107.785285 
L 101.130331 109.274635 
L 106.429617 109.274635 
L 106.544819 110.763984 
L 107.047518 110.763984 
L 107.162719 109.274635 
L 108.482304 109.274635 
L 108.597506 110.763984 
L 109.71287 110.763984 
L 109.828071 109.274635 
L 132.124867 109.274635 
L 132.240069 108.52996 
L 146.336588 108.52996 
L 146.451789 110.01931 
L 154.615412 110.01931 
L 154.730614 108.52996 
L 162.789508 108.52996 
L 162.904709 110.01931 
L 181.075184 110.01931 
L 181.190386 111.508659 
L 183.253547 111.508659 
L 183.368749 110.763984 
L 184.306073 110.763984 
L 184.374147 112.253334 
L 184.416038 110.763984 
L 185.363835 110.763984 
L 185.479037 110.01931 
L 192.087435 110.01931 
L 192.202636 111.508659 
L 197.590942 111.508659 
L 197.706143 110.01931 
L 215.970874 110.01931 
L 216.086076 111.508659 
L 220.610367 111.508659 
L 220.725569 110.01931 
L 223.930275 110.01931 
L 224.045477 111.508659 
L 231.345086 111.508659 
L 231.460288 110.763984 
L 269.953418 110.763984 
L 270.06862 110.01931 
L 325.821083 110.01931 
L 325.936284 111.508659 
L 355.077118 111.508659 
L 355.19232 112.998009 
L 355.815457 112.998009 
L 355.930659 112.253334 
L 357.637741 112.253334 
L 357.752943 111.508659 
L 398.487273 111.508659 
L 398.487273 111.508659 
" clip-path="url(#pcce50a11fb)" style="fill: none; stroke: #ff7f0e; stroke-width: 1.5; stroke-linecap: square"/>
   </g>
   <g id="patch_3">
    <path d="M 57.6 162.432 
L 57.6 41.472 
" style="fill: none; stroke: #000000; stroke-width: 0.8; stroke-linejoin: miter; stroke-linecap: square"/>
   </g>
   <g id="patch_4">
    <path d="M 414.72 162.432 
L 414.72 41.472 
" style="fill: none; stroke: #000000; stroke-width: 0.8; stroke-linejoin: miter; stroke-linecap: square"/>
   </g>
   <g id="patch_5">
    <path d="M 57.6 162.432 
L 414.72 162.432 
" style="fill: none; stroke: #000000; stroke-width: 0.8; stroke-linejoin: miter; stroke-linecap: square"/>
   </g>
   <g id="patch_6">
    <path d="M 57.6 41.472 
L 414.72 41.472 
" style="fill: none; stroke: #000000; stroke-width: 0.8; stroke-linejoin: miter; stroke-linecap: square"/>
   </g>
   <g id="text_12">
    <!-- WSP -->
    <g transform="translate(361.832136 154.699794)scale(0.08 -0.08)">
     <defs>
      <path id="DejaVuSans-57" d="M 213 4666 
L 850 4666 
L 1831 722 
L 2809 4666 
L 3519 4666 
L 4500 722 
L 5478 4666 
L 6119 4666 
L 4947 0 
L 4153 0 
L 3169 4050 
L 2175 0 
L 1381 0 
L 213 4666 
z
" transform="scale(0.015625)"/>
      <path id="DejaVuSans-53" d="M 3425 4513 
L 3425 3897 
Q 3066 4069 2747 4153 
Q 2428 4238 2131 4238 
Q 1616 4238 1336 4038 
Q 1056 3838 1056 3469 
Q 1056 3159 1242 3001 
Q 1428 2844 1947 2747 
L 2328 2669 
Q 3034 2534 3370 2195 
Q 3706 1856 3706 1288 
Q 3706 609 3251 259 
Q 2797 -91 1919 -91 
Q 1588 -91 1214 -16 
Q 841 59 441 206 
L 441 856 
Q 825 641 1194 531 
Q 1563 422 1919 422 
Q 2459 422 2753 634 
Q 3047 847 3047 1241 
Q 3047 1584 2836 1778 
Q 2625 1972 2144 2069 
L 1759 2144 
Q 1053 2284 737 2584 
Q 422 2884 422 3419 
Q 422 4038 858 4394 
Q 1294 4750 2059 4750 
Q 2388 4750 2728 4690 
Q 3069 4631 3425 4513 
z
" transform="scale(0.015625)"/>
      <path id="DejaVuSans-50" d="M 1259 4147 
L 1259 2394 
L 2053 2394 
Q 2494 2394 2734 2622 
Q 2975 2850 2975 3272 
Q 2975 3691 2734 3919 
Q 2494 4147 2053 4147 
L 1259 4147 
z
M 628 4666 
L 2053 4666 
Q 2838 4666 3239 4311 
Q 3641 3956 3641 3272 
Q 3641 2581 3239 2228 
Q 2838 1875 2053 1875 
L 1259 1875 
L 1259 0 
L 628 0 
L 628 4666 
z
" transform="scale(0.015625)"/>
     </defs>
     <use xlink:href="#DejaVuSans-57"/>
     <use xlink:href="#DejaVuSans-53" x="98.876953"/>
     <use xlink:href="#DejaVuSans-50" x="162.353516"/>
    </g>
   </g>
   <g id="text_13">
    <!-- Iambic -->
    <g transform="translate(361.832136 128.114906)scale(0.08 -0.08)">
     <defs>
      <path id="DejaVuSans-49" d="M 628 4666 
L 1259 4666 
L 1259 0 
L 628 0 
L 628 4666 
z
" transform="scale(0.015625)"/>
      <path id="DejaVuSans-61" d="M 2194 1759 
Q 1497 1759 1228 1600 
Q 959 1441 959 1056 
Q 959 750 1161 570 
Q 1363 391 1709 391 
Q 2188 391 2477 730 
Q 2766 1069 2766 1631 
L 2766 1759 
L 2194 1759 
z
M 3341 1997 
L 3341 0 
L 2766 0 
L 2766 531 
Q 2569 213 2275 61 
Q 1981 -91 1556 -91 
Q 1019 -91 701 211 
Q 384 513 384 1019 
Q 384 1609 779 1909 
Q 1175 2209 1959 2209 
L 2766 2209 
L 2766 2266 
Q 2766 2663 2505 2880 
Q 2244 3097 1772 3097 
Q 1472 3097 1187 3025 
Q 903 2953 641 2809 
L 641 3341 
Q 956 3463 1253 3523 
Q 1550 3584 1831 3584 
Q 2591 3584 2966 3190 
Q 3341 2797 3341 1997 
z
" transform="scale(0.015625)"/>
      <path id="DejaVuSans-6d" d="M 3328 2828 
Q 3544 3216 3844 3400 
Q 4144 3584 4550 3584 
Q 5097 3584 5394 3201 
Q 5691 2819 5691 2113 
L 5691 0 
L 5113 0 
L 5113 2094 
Q 5113 2597 4934 2840 
Q 4756 3084 4391 3084 
Q 3944 3084 3684 2787 
Q 3425 2491 3425 1978 
L 3425 0 
L 2847 0 
L 2847 2094 
Q 2847 2600 2669 2842 
Q 2491 3084 2119 3084 
Q 1678 3084 1418 2786 
Q 1159 2488 1159 1978 
L 1159 0 
L 581 0 
L 581 3500 
L 1159 3500 
L 1159 2956 
Q 1356 3278 1631 3431 
Q 1906 3584 2284 3584 
Q 2666 3584 2933 3390 
Q 3200 3197 3328 2828 
z
" transform="scale(0.015625)"/>
      <path id="DejaVuSans-62" d="M 3116 1747 
Q 3116 2381 2855 2742 
Q 2594 3103 2138 3103 
Q 1681 3103 1420 2742 
Q 1159 2381 1159 1747 
Q 1159 1113 1420 752 
Q 1681 391 2138 391 
Q 2594 391 2855 752 
Q 3116 1113 3116 1747 
z
M 1159 2969 
Q 1341 3281 1617 3432 
Q 1894 3584 2278 3584 
Q 2916 3584 3314 3078 
Q 3713 2572 3713 1747 
Q 3713 922 3314 415 
Q 2916 -91 2278 -91 
Q 1894 -91 1617 61 
Q 1341 213 1159 525 
L 1159 0 
L 581 0 
L 581 4863 
L 1159 4863 
L 1159 2969 
z
" transform="scale(0.015625)"/>
      <path id="DejaVuSans-69" d="M 603 3500 
L 1178 3500 
L 1178 0 
L 603 0 
L 603 3500 
z
M 603 4863 
L 1178 4863 
L 1178 4134 
L 603 4134 
L 603 4863 
z
" transform="scale(0.015625)"/>
      <path id="DejaVuSans-63" d="M 3122 3366 
L 3122 2828 
Q 2878 2963 2633 3030 
Q 2388 3097 2138 3097 
Q 1578 3097 1268 2742 
Q 959 2388 959 1747 
Q 959 1106 1268 751 
Q 1578 397 2138 397 
Q 2388 397 2633 464 
Q 2878 531 3122 666 
L 3122 134 
Q 2881 22 2623 -34 
Q 2366 -91 2075 -91 
Q 1284 -91 818 406 
Q 353 903 353 1747 
Q 353 2603 823 3093 
Q 1294 3584 2113 3584 
Q 2378 3584 2631 3529 
Q 2884 3475 3122 3366 
z
" transform="scale(0.015625)"/>
     </defs>
     <use xlink:href="#DejaVuSans-49"/>
     <use xlink:href="#DejaVuSans-61" x="29.492188"/>
     <use xlink:href="#DejaVuSans-6d" x="90.771484"/>
     <use xlink:href="#DejaVuSans-62" x="188.183594"/>
     <use xlink:href="#DejaVuSans-69" x="251.660156"/>
     <use xlink:href="#DejaVuSans-63" x="279.443359"/>
    </g>
   </g>
   <g id="text_14">
    <!-- Parse -->
    <g transform="translate(361.832136 110.639872)scale(0.08 -0.08)">
     <defs>
      <path id="DejaVuSans-72" d="M 2631 2963 
Q 2534 3019 2420 3045 
Q 2306 3072 2169 3072 
Q 1681 3072 1420 2755 
Q 1159 2438 1159 1844 
L 1159 0 
L 581 0 
L 581 3500 
L 1159 3500 
L 1159 2956 
Q 1341 3275 1631 3429 
Q 1922 3584 2338 3584 
Q 2397 3584 2469 3576 
Q 2541 3569 2628 3553 
L 2631 2963 
z
" transform="scale(0.015625)"/>
      <path id="DejaVuSans-73" d="M 2834 3397 
L 2834 2853 
Q 2591 2978 2328 3040 
Q 2066 3103 1784 3103 
Q 1356 3103 1142 2972 
Q 928 2841 928 2578 
Q 928 2378 1081 2264 
Q 1234 2150 1697 2047 
L 1894 2003 
Q 2506 1872 2764 1633 
Q 3022 1394 3022 966 
Q 3022 478 2636 193 
Q 2250 -91 1575 -91 
Q 1294 -91 989 -36 
Q 684 19 347 128 
L 347 722 
Q 666 556 975 473 
Q 1284 391 1588 391 
Q 1994 391 2212 530 
Q 2431 669 2431 922 
Q 2431 1156 2273 1281 
Q 2116 1406 1581 1522 
L 1381 1569 
Q 847 1681 609 1914 
Q 372 2147 372 2553 
Q 372 3047 722 3315 
Q 1072 3584 1716 3584 
Q 2034 3584 2315 3537 
Q 2597 3491 2834 3397 
z
" transform="scale(0.015625)"/>
      <path id="DejaVuSans-65" d="M 3597 1894 
L 3597 1613 
L 953 1613 
Q 991 1019 1311 708 
Q 1631 397 2203 397 
Q 2534 397 2845 478 
Q 3156 559 3463 722 
L 3463 178 
Q 3153 47 2828 -22 
Q 2503 -91 2169 -91 
Q 1331 -91 842 396 
Q 353 884 353 1716 
Q 353 2575 817 3079 
Q 1281 3584 2069 3584 
Q 2775 3584 3186 3129 
Q 3597 2675 3597 1894 
z
M 3022 2063 
Q 3016 2534 2758 2815 
Q 2500 3097 2075 3097 
Q 1594 3097 1305 2825 
Q 1016 2553 972 2059 
L 3022 2063 
z
" transform="scale(0.015625)"/>
     </defs>
     <use xlink:href="#DejaVuSans-50"/>
     <use xlink:href="#DejaVuSans-61" x="55.802734"/>
     <use xlink:href="#DejaVuSans-72" x="117.082031"/>
     <use xlink:href="#DejaVuSans-73" x="158.195312"/>
     <use xlink:href="#DejaVuSans-65" x="210.294922"/>
    </g>
   </g>
   <g id="text_15">
    <!-- FootBin -->
    <g transform="translate(361.832136 77.650781)scale(0.08 -0.08)">
     <defs>
      <path id="DejaVuSans-46" d="M 628 4666 
L 3309 4666 
L 3309 4134 
L 1259 4134 
L 1259 2759 
L 3109 2759 
L 3109 2228 
L 1259 2228 
L 1259 0 
L 628 0 
L 628 4666 
z
" transform="scale(0.015625)"/>
      <path id="DejaVuSans-6f" d="M 1959 3097 
Q 1497 3097 1228 2736 
Q 959 2375 959 1747 
Q 959 1119 1226 758 
Q 1494 397 1959 397 
Q 2419 397 2687 759 
Q 2956 1122 2956 1747 
Q 2956 2369 2687 2733 
Q 2419 3097 1959 3097 
z
M 1959 3584 
Q 2709 3584 3137 3096 
Q 3566 2609 3566 1747 
Q 3566 888 3137 398 
Q 2709 -91 1959 -91 
Q 1206 -91 779 398 
Q 353 888 353 1747 
Q 353 2609 779 3096 
Q 1206 3584 1959 3584 
z
" transform="scale(0.015625)"/>
      <path id="DejaVuSans-74" d="M 1172 4494 
L 1172 3500 
L 2356 3500 
L 2356 3053 
L 1172 3053 
L 1172 1153 
Q 1172 725 1289 603 
Q 1406 481 1766 481 
L 2356 481 
L 2356 0 
L 1766 0 
Q 1100 0 847 248 
Q 594 497 594 1153 
L 594 3053 
L 172 3053 
L 172 3500 
L 594 3500 
L 594 4494 
L 1172 4494 
z
" transform="scale(0.015625)"/>
      <path id="DejaVuSans-42" d="M 1259 2228 
L 1259 519 
L 2272 519 
Q 2781 519 3026 730 
Q 3272 941 3272 1375 
Q 3272 1813 3026 2020 
Q 2781 2228 2272 2228 
L 1259 2228 
z
M 1259 4147 
L 1259 2741 
L 2194 2741 
Q 2656 2741 2882 2914 
Q 3109 3088 3109 3444 
Q 3109 3797 2882 3972 
Q 2656 4147 2194 4147 
L 1259 4147 
z
M 628 4666 
L 2241 4666 
Q 2963 4666 3353 4366 
Q 3744 4066 3744 3513 
Q 3744 3084 3544 2831 
Q 3344 2578 2956 2516 
Q 3422 2416 3680 2098 
Q 3938 1781 3938 1306 
Q 3938 681 3513 340 
Q 3088 0 2303 0 
L 628 0 
L 628 4666 
z
" transform="scale(0.015625)"/>
      <path id="DejaVuSans-6e" d="M 3513 2113 
L 3513 0 
L 2938 0 
L 2938 2094 
Q 2938 2591 2744 2837 
Q 2550 3084 2163 3084 
Q 1697 3084 1428 2787 
Q 1159 2491 1159 1978 
L 1159 0 
L 581 0 
L 581 3500 
L 1159 3500 
L 1159 2956 
Q 1366 3272 1645 3428 
Q 1925 3584 2291 3584 
Q 2894 3584 3203 3211 
Q 3513 2838 3513 2113 
z
" transform="scale(0.015625)"/>
     </defs>
     <use xlink:href="#DejaVuSans-46"/>
     <use xlink:href="#DejaVuSans-6f" x="53.894531"/>
     <use xlink:href="#DejaVuSans-6f" x="115.076172"/>
     <use xlink:href="#DejaVuSans-74" x="176.257812"/>
     <use xlink:href="#DejaVuSans-42" x="215.466797"/>
     <use xlink:href="#DejaVuSans-69" x="284.070312"/>
     <use xlink:href="#DejaVuSans-6e" x="311.853516"/>
    </g>
   </g>
   <g id="text_16">
    <!-- WFL -->
    <g transform="translate(361.832136 51.562343)scale(0.08 -0.08)">
     <defs>
      <path id="DejaVuSans-4c" d="M 628 4666 
L 1259 4666 
L 1259 531 
L 3531 531 
L 3531 0 
L 628 0 
L 628 4666 
z
" transform="scale(0.015625)"/>
     </defs>
     <use xlink:href="#DejaVuSans-57"/>
     <use xlink:href="#DejaVuSans-46" x="98.876953"/>
     <use xlink:href="#DejaVuSans-4c" x="156.396484"/>
    </g>
   </g>
   <g id="text_17">
    <!-- WFR -->
    <g transform="translate(361.832136 56.154504)scale(0.08 -0.08)">
     <defs>
      <path id="DejaVuSans-52" d="M 2841 2188 
Q 3044 2119 3236 1894 
Q 3428 1669 3622 1275 
L 4263 0 
L 3584 0 
L 2988 1197 
Q 2756 1666 2539 1819 
Q 2322 1972 1947 1972 
L 1259 1972 
L 1259 0 
L 628 0 
L 628 4666 
L 2053 4666 
Q 2853 4666 3247 4331 
Q 3641 3997 3641 3322 
Q 3641 2881 3436 2590 
Q 3231 2300 2841 2188 
z
M 1259 4147 
L 1259 2491 
L 2053 2491 
Q 2509 2491 2742 2702 
Q 2975 2913 2975 3322 
Q 2975 3731 2742 3939 
Q 2509 4147 2053 4147 
L 1259 4147 
z
" transform="scale(0.015625)"/>
     </defs>
     <use xlink:href="#DejaVuSans-57"/>
     <use xlink:href="#DejaVuSans-46" x="98.876953"/>
     <use xlink:href="#DejaVuSans-52" x="156.396484"/>
    </g>
   </g>
   <g id="text_18">
    <!-- Main-L -->
    <g transform="translate(361.832136 46.970182)scale(0.08 -0.08)">
     <defs>
      <path id="DejaVuSans-4d" d="M 628 4666 
L 1569 4666 
L 2759 1491 
L 3956 4666 
L 4897 4666 
L 4897 0 
L 4281 0 
L 4281 4097 
L 3078 897 
L 2444 897 
L 1241 4097 
L 1241 0 
L 628 0 
L 628 4666 
z
" transform="scale(0.015625)"/>
      <path id="DejaVuSans-2d" d="M 313 2009 
L 1997 2009 
L 1997 1497 
L 313 1497 
L 313 2009 
z
" transform="scale(0.015625)"/>
     </defs>
     <use xlink:href="#DejaVuSans-4d"/>
     <use xlink:href="#DejaVuSans-61" x="86.279297"/>
     <use xlink:href="#DejaVuSans-69" x="147.558594"/>
     <use xlink:href="#DejaVuSans-6e" x="175.341797"/>
     <use xlink:href="#DejaVuSans-2d" x="238.720703"/>
     <use xlink:href="#DejaVuSans-4c" x="274.804688"/>
    </g>
   </g>
   <g id="text_19">
    <!-- Main-R -->
    <g transform="translate(361.832136 66.654417)scale(0.08 -0.08)">
     <use xlink:href="#DejaVuSans-4d"/>
     <use xlink:href="#DejaVuSans-61" x="86.279297"/>
     <use xlink:href="#DejaVuSans-69" x="147.558594"/>
     <use xlink:href="#DejaVuSans-6e" x="175.341797"/>
     <use xlink:href="#DejaVuSans-2d" x="238.720703"/>
     <use xlink:href="#DejaVuSans-52" x="274.804688"/>
    </g>
   </g>
   <g id="text_20">
    <!-- AFL -->
    <g transform="translate(361.832136 111.980286)scale(0.08 -0.08)">
     <defs>
      <path id="DejaVuSans-41" d="M 2188 4044 
L 1331 1722 
L 3047 1722 
L 2188 4044 
z
M 1831 4666 
L 2547 4666 
L 4325 0 
L 3669 0 
L 3244 1197 
L 1141 1197 
L 716 0 
L 50 0 
L 1831 4666 
z
" transform="scale(0.015625)"/>
     </defs>
     <use xlink:href="#DejaVuSans-41"/>
     <use xlink:href="#DejaVuSans-46" x="68.408203"/>
     <use xlink:href="#DejaVuSans-4c" x="125.927734"/>
    </g>
   </g>
   <g id="text_21">
    <!-- AFR -->
    <g transform="translate(361.832136 92.866968)scale(0.08 -0.08)">
     <use xlink:href="#DejaVuSans-41"/>
     <use xlink:href="#DejaVuSans-46" x="68.408203"/>
     <use xlink:href="#DejaVuSans-52" x="125.927734"/>
    </g>
   </g>
   <g id="text_22">
    <!-- Nonfinal -->
    <g transform="translate(361.832136 73.133088)scale(0.08 -0.08)">
     <defs>
      <path id="DejaVuSans-4e" d="M 628 4666 
L 1478 4666 
L 3547 763 
L 3547 4666 
L 4159 4666 
L 4159 0 
L 3309 0 
L 1241 3903 
L 1241 0 
L 628 0 
L 628 4666 
z
" transform="scale(0.015625)"/>
      <path id="DejaVuSans-66" d="M 2375 4863 
L 2375 4384 
L 1825 4384 
Q 1516 4384 1395 4259 
Q 1275 4134 1275 3809 
L 1275 3500 
L 2222 3500 
L 2222 3053 
L 1275 3053 
L 1275 0 
L 697 0 
L 697 3053 
L 147 3053 
L 147 3500 
L 697 3500 
L 697 3744 
Q 697 4328 969 4595 
Q 1241 4863 1831 4863 
L 2375 4863 
z
" transform="scale(0.015625)"/>
      <path id="DejaVuSans-6c" d="M 603 4863 
L 1178 4863 
L 1178 0 
L 603 0 
L 603 4863 
z
" transform="scale(0.015625)"/>
     </defs>
     <use xlink:href="#DejaVuSans-4e"/>
     <use xlink:href="#DejaVuSans-6f" x="74.804688"/>
     <use xlink:href="#DejaVuSans-6e" x="135.986328"/>
     <use xlink:href="#DejaVuSans-66" x="199.365234"/>
     <use xlink:href="#DejaVuSans-69" x="234.570312"/>
     <use xlink:href="#DejaVuSans-6e" x="262.353516"/>
     <use xlink:href="#DejaVuSans-61" x="325.732422"/>
     <use xlink:href="#DejaVuSans-6c" x="387.011719"/>
    </g>
   </g>
   <g id="text_23">
    <!-- Trochaic -->
    <g transform="translate(361.832136 111.508659)scale(0.08 -0.08)">
     <defs>
      <path id="DejaVuSans-54" d="M -19 4666 
L 3928 4666 
L 3928 4134 
L 2272 4134 
L 2272 0 
L 1638 0 
L 1638 4134 
L -19 4134 
L -19 4666 
z
" transform="scale(0.015625)"/>
      <path id="DejaVuSans-68" d="M 3513 2113 
L 3513 0 
L 2938 0 
L 2938 2094 
Q 2938 2591 2744 2837 
Q 2550 3084 2163 3084 
Q 1697 3084 1428 2787 
Q 1159 2491 1159 1978 
L 1159 0 
L 581 0 
L 581 4863 
L 1159 4863 
L 1159 2956 
Q 1366 3272 1645 3428 
Q 1925 3584 2291 3584 
Q 2894 3584 3203 3211 
Q 3513 2838 3513 2113 
z
" transform="scale(0.015625)"/>
     </defs>
     <use xlink:href="#DejaVuSans-54"/>
     <use xlink:href="#DejaVuSans-72" x="46.333984"/>
     <use xlink:href="#DejaVuSans-6f" x="85.197266"/>
     <use xlink:href="#DejaVuSans-63" x="146.378906"/>
     <use xlink:href="#DejaVuSans-68" x="201.359375"/>
     <use xlink:href="#DejaVuSans-61" x="264.738281"/>
     <use xlink:href="#DejaVuSans-69" x="326.017578"/>
     <use xlink:href="#DejaVuSans-63" x="353.800781"/>
    </g>
   </g>
  </g>
  <g id="axes_2">
   <g id="patch_7">
    <path d="M 57.6 307.584 
L 414.72 307.584 
L 414.72 186.624 
L 57.6 186.624 
z
" style="fill: #ffffff"/>
   </g>
   <g id="matplotlib.axis_3">
    <g id="xtick_8">
     <g id="line2d_24">
      <g>
       <use xlink:href="#mce47fe8fa9" x="72.757712" y="307.584" style="stroke: #000000; stroke-width: 0.8"/>
      </g>
     </g>
     <g id="text_24">
      <!-- 0 -->
      <g transform="translate(69.576462 322.182437)scale(0.1 -0.1)">
       <use xlink:href="#DejaVuSans-30"/>
      </g>
     </g>
    </g>
    <g id="xtick_9">
     <g id="line2d_25">
      <g>
       <use xlink:href="#mce47fe8fa9" x="126.508465" y="307.584" style="stroke: #000000; stroke-width: 0.8"/>
      </g>
     </g>
     <g id="text_25">
      <!-- 50 -->
      <g transform="translate(120.145965 322.182437)scale(0.1 -0.1)">
       <use xlink:href="#DejaVuSans-35"/>
       <use xlink:href="#DejaVuSans-30" x="63.623047"/>
      </g>
     </g>
    </g>
    <g id="xtick_10">
     <g id="line2d_26">
      <g>
       <use xlink:href="#mce47fe8fa9" x="180.259217" y="307.584" style="stroke: #000000; stroke-width: 0.8"/>
      </g>
     </g>
     <g id="text_26">
      <!-- 100 -->
      <g transform="translate(170.715467 322.182437)scale(0.1 -0.1)">
       <use xlink:href="#DejaVuSans-31"/>
       <use xlink:href="#DejaVuSans-30" x="63.623047"/>
       <use xlink:href="#DejaVuSans-30" x="127.246094"/>
      </g>
     </g>
    </g>
    <g id="xtick_11">
     <g id="line2d_27">
      <g>
       <use xlink:href="#mce47fe8fa9" x="234.00997" y="307.584" style="stroke: #000000; stroke-width: 0.8"/>
      </g>
     </g>
     <g id="text_27">
      <!-- 150 -->
      <g transform="translate(224.46622 322.182437)scale(0.1 -0.1)">
       <use xlink:href="#DejaVuSans-31"/>
       <use xlink:href="#DejaVuSans-35" x="63.623047"/>
       <use xlink:href="#DejaVuSans-30" x="127.246094"/>
      </g>
     </g>
    </g>
    <g id="xtick_12">
     <g id="line2d_28">
      <g>
       <use xlink:href="#mce47fe8fa9" x="287.760722" y="307.584" style="stroke: #000000; stroke-width: 0.8"/>
      </g>
     </g>
     <g id="text_28">
      <!-- 200 -->
      <g transform="translate(278.216972 322.182437)scale(0.1 -0.1)">
       <use xlink:href="#DejaVuSans-32"/>
       <use xlink:href="#DejaVuSans-30" x="63.623047"/>
       <use xlink:href="#DejaVuSans-30" x="127.246094"/>
      </g>
     </g>
    </g>
    <g id="xtick_13">
     <g id="line2d_29">
      <g>
       <use xlink:href="#mce47fe8fa9" x="341.511475" y="307.584" style="stroke: #000000; stroke-width: 0.8"/>
      </g>
     </g>
     <g id="text_29">
      <!-- 250 -->
      <g transform="translate(331.967725 322.182437)scale(0.1 -0.1)">
       <use xlink:href="#DejaVuSans-32"/>
       <use xlink:href="#DejaVuSans-35" x="63.623047"/>
       <use xlink:href="#DejaVuSans-30" x="127.246094"/>
      </g>
     </g>
    </g>
    <g id="xtick_14">
     <g id="line2d_30">
      <g>
       <use xlink:href="#mce47fe8fa9" x="395.262228" y="307.584" style="stroke: #000000; stroke-width: 0.8"/>
      </g>
     </g>
     <g id="text_30">
      <!-- 300 -->
      <g transform="translate(385.718478 322.182437)scale(0.1 -0.1)">
       <use xlink:href="#DejaVuSans-33"/>
       <use xlink:href="#DejaVuSans-30" x="63.623047"/>
       <use xlink:href="#DejaVuSans-30" x="127.246094"/>
      </g>
     </g>
    </g>
   </g>
   <g id="matplotlib.axis_4">
    <g id="ytick_5">
     <g id="line2d_31">
      <g>
       <use xlink:href="#mcd92e00ac4" x="57.6" y="302.096126" style="stroke: #000000; stroke-width: 0.8"/>
      </g>
     </g>
     <g id="text_31">
      <!-- 0 -->
      <g transform="translate(44.2375 305.895345)scale(0.1 -0.1)">
       <use xlink:href="#DejaVuSans-30"/>
      </g>
     </g>
    </g>
    <g id="ytick_6">
     <g id="line2d_32">
      <g>
       <use xlink:href="#mcd92e00ac4" x="57.6" y="281.480521" style="stroke: #000000; stroke-width: 0.8"/>
      </g>
     </g>
     <g id="text_32">
      <!-- 2000 -->
      <g transform="translate(25.15 285.27974)scale(0.1 -0.1)">
       <use xlink:href="#DejaVuSans-32"/>
       <use xlink:href="#DejaVuSans-30" x="63.623047"/>
       <use xlink:href="#DejaVuSans-30" x="127.246094"/>
       <use xlink:href="#DejaVuSans-30" x="190.869141"/>
      </g>
     </g>
    </g>
    <g id="ytick_7">
     <g id="line2d_33">
      <g>
       <use xlink:href="#mcd92e00ac4" x="57.6" y="260.864916" style="stroke: #000000; stroke-width: 0.8"/>
      </g>
     </g>
     <g id="text_33">
      <!-- 4000 -->
      <g transform="translate(25.15 264.664135)scale(0.1 -0.1)">
       <use xlink:href="#DejaVuSans-34"/>
       <use xlink:href="#DejaVuSans-30" x="63.623047"/>
       <use xlink:href="#DejaVuSans-30" x="127.246094"/>
       <use xlink:href="#DejaVuSans-30" x="190.869141"/>
      </g>
     </g>
    </g>
    <g id="ytick_8">
     <g id="line2d_34">
      <g>
       <use xlink:href="#mcd92e00ac4" x="57.6" y="240.249311" style="stroke: #000000; stroke-width: 0.8"/>
      </g>
     </g>
     <g id="text_34">
      <!-- 6000 -->
      <g transform="translate(25.15 244.04853)scale(0.1 -0.1)">
       <use xlink:href="#DejaVuSans-36"/>
       <use xlink:href="#DejaVuSans-30" x="63.623047"/>
       <use xlink:href="#DejaVuSans-30" x="127.246094"/>
       <use xlink:href="#DejaVuSans-30" x="190.869141"/>
      </g>
     </g>
    </g>
    <g id="ytick_9">
     <g id="line2d_35">
      <g>
       <use xlink:href="#mcd92e00ac4" x="57.6" y="219.633707" style="stroke: #000000; stroke-width: 0.8"/>
      </g>
     </g>
     <g id="text_35">
      <!-- 8000 -->
      <g transform="translate(25.15 223.432925)scale(0.1 -0.1)">
       <use xlink:href="#DejaVuSans-38"/>
       <use xlink:href="#DejaVuSans-30" x="63.623047"/>
       <use xlink:href="#DejaVuSans-30" x="127.246094"/>
       <use xlink:href="#DejaVuSans-30" x="190.869141"/>
      </g>
     </g>
    </g>
    <g id="ytick_10">
     <g id="line2d_36">
      <g>
       <use xlink:href="#mcd92e00ac4" x="57.6" y="199.018102" style="stroke: #000000; stroke-width: 0.8"/>
      </g>
     </g>
     <g id="text_36">
      <!-- 10000 -->
      <g transform="translate(18.7875 202.81732)scale(0.1 -0.1)">
       <use xlink:href="#DejaVuSans-31"/>
       <use xlink:href="#DejaVuSans-30" x="63.623047"/>
       <use xlink:href="#DejaVuSans-30" x="127.246094"/>
       <use xlink:href="#DejaVuSans-30" x="190.869141"/>
       <use xlink:href="#DejaVuSans-30" x="254.492188"/>
      </g>
     </g>
    </g>
   </g>
   <g id="line2d_37">
    <path d="M 73.832727 302.085818 
L 229.70991 302.065203 
L 231.85994 301.848739 
L 232.934955 302.065203 
L 234.00997 301.941509 
L 235.084985 302.085818 
L 236.16 302.023971 
L 238.31003 302.065203 
L 340.43646 302.065203 
L 341.511475 301.88997 
L 342.58649 302.044587 
L 344.73652 302.07551 
L 346.88655 301.98274 
L 349.03658 302.065203 
L 351.18661 301.714737 
L 352.261626 302.07551 
L 356.561686 302.023971 
L 357.636701 301.292117 
L 358.711716 301.518889 
L 359.786731 301.457042 
L 360.861746 288.912447 
L 361.936761 301.127193 
L 363.011776 301.642583 
L 364.086791 283.212232 
L 365.161806 291.252318 
L 366.236821 297.467923 
L 367.311836 296.066062 
L 368.386851 300.879805 
L 369.461866 299.271788 
L 370.536881 299.673792 
L 371.611896 282.160836 
L 372.686911 277.914021 
L 373.761927 281.800063 
L 374.836942 294.416813 
L 375.911957 287.500278 
L 376.986972 300.395339 
L 378.061987 286.005646 
L 379.137002 266.10128 
L 380.212017 297.80808 
L 381.287032 300.024258 
L 382.362047 301.962125 
L 383.437062 300.147951 
L 384.512077 288.860908 
L 385.587092 297.705002 
L 386.662107 295.653749 
L 387.737122 284.892404 
L 388.812137 283.119462 
L 389.887152 292.963413 
L 390.962167 295.560979 
L 392.037182 301.663198 
L 393.112197 287.933205 
L 394.187213 226.096699 
L 395.262228 192.122182 
L 397.412258 300.642726 
L 398.487273 298.509011 
L 398.487273 298.509011 
" clip-path="url(#p3b4aa11889)" style="fill: none; stroke: #1f77b4; stroke-width: 1.5; stroke-linecap: square"/>
   </g>
   <g id="patch_8">
    <path d="M 57.6 307.584 
L 57.6 186.624 
" style="fill: none; stroke: #000000; stroke-width: 0.8; stroke-linejoin: miter; stroke-linecap: square"/>
   </g>
   <g id="patch_9">
    <path d="M 414.72 307.584 
L 414.72 186.624 
" style="fill: none; stroke: #000000; stroke-width: 0.8; stroke-linejoin: miter; stroke-linecap: square"/>
   </g>
   <g id="patch_10">
    <path d="M 57.6 307.584 
L 414.72 307.584 
" style="fill: none; stroke: #000000; stroke-width: 0.8; stroke-linejoin: miter; stroke-linecap: square"/>
   </g>
   <g id="patch_11">
    <path d="M 57.6 186.624 
L 414.72 186.624 
" style="fill: none; stroke: #000000; stroke-width: 0.8; stroke-linejoin: miter; stroke-linecap: square"/>
   </g>
  </g>
 </g>
 <defs>
  <clipPath id="pcce50a11fb">
   <rect x="57.6" y="41.472" width="357.12" height="120.96"/>
  </clipPath>
  <clipPath id="p3b4aa11889">
   <rect x="57.6" y="186.624" width="357.12" height="120.96"/>
  </clipPath>
 </defs>
</svg>
