<?xml version="1.0" encoding="utf-8" standalone="no"?>
<!DOCTYPE svg PUBLIC "-//W3C//DTD SVG 1.1//EN"
  "http://www.w3.org/Graphics/SVG/1.1/DTD/svg11.dtd">
<svg xmlns:xlink="http://www.w3.org/1999/xlink" width="460.8pt" height="345.6pt" viewBox="0 0 460.8 345.6" xmlns="http://www.w3.org/2000/svg" version="1.1">
 <metadata>
  <rdf:RDF xmlns:dc="http://purl.org/dc/elements/1.1/" xmlns:cc="http://creativecommons.org/ns#" xmlns:rdf="http://www.w3.org/1999/02/22-rdf-syntax-ns#">
   <cc:Work>
    <dc:type rdf:resource="http://purl.org/dc/dcmitype/StillImage"/>
    <dc:date>2022-05-13T14:53:09.518377</dc:date>
    <dc:format>image/svg+xml</dc:format>
    <dc:creator>
     <cc:Agent>
      <dc:title>Matplotlib v3.5.1, https://matplotlib.org/</dc:title>
     </cc:Agent>
    </dc:creator>
   </cc:Work>
  </rdf:RDF>
 </metadata>
 <defs>
  <style type="text/css">*{stroke-linejoin: round; stroke-linecap: butt}</style>
 </defs>
 <g id="figure_1">
  <g id="patch_1">
   <path d="M 0 345.6 
L 460.8 345.6 
L 460.8 0 
L 0 0 
z
" style="fill: #ffffff"/>
  </g>
  <g id="axes_1">
   <g id="patch_2">
    <path d="M 57.6 162.432 
L 414.72 162.432 
L 414.72 41.472 
L 57.6 41.472 
z
" style="fill: #ffffff"/>
   </g>
   <g id="matplotlib.axis_1">
    <g id="xtick_1">
     <g id="line2d_1">
      <defs>
       <path id="me8c42d78ae" d="M 0 0 
L 0 3.5 
" style="stroke: #000000; stroke-width: 0.8"/>
      </defs>
      <g>
       <use xlink:href="#me8c42d78ae" x="73.827491" y="162.432" style="stroke: #000000; stroke-width: 0.8"/>
      </g>
     </g>
     <g id="text_1">
      <!-- 0 -->
      <g transform="translate(70.646241 177.030437)scale(0.1 -0.1)">
       <defs>
        <path id="DejaVuSans-30" d="M 2034 4250 
Q 1547 4250 1301 3770 
Q 1056 3291 1056 2328 
Q 1056 1369 1301 889 
Q 1547 409 2034 409 
Q 2525 409 2770 889 
Q 3016 1369 3016 2328 
Q 3016 3291 2770 3770 
Q 2525 4250 2034 4250 
z
M 2034 4750 
Q 2819 4750 3233 4129 
Q 3647 3509 3647 2328 
Q 3647 1150 3233 529 
Q 2819 -91 2034 -91 
Q 1250 -91 836 529 
Q 422 1150 422 2328 
Q 422 3509 836 4129 
Q 1250 4750 2034 4750 
z
" transform="scale(0.015625)"/>
       </defs>
       <use xlink:href="#DejaVuSans-30"/>
      </g>
     </g>
    </g>
    <g id="xtick_2">
     <g id="line2d_2">
      <g>
       <use xlink:href="#me8c42d78ae" x="126.191972" y="162.432" style="stroke: #000000; stroke-width: 0.8"/>
      </g>
     </g>
     <g id="text_2">
      <!-- 10000 -->
      <g transform="translate(110.285722 177.030437)scale(0.1 -0.1)">
       <defs>
        <path id="DejaVuSans-31" d="M 794 531 
L 1825 531 
L 1825 4091 
L 703 3866 
L 703 4441 
L 1819 4666 
L 2450 4666 
L 2450 531 
L 3481 531 
L 3481 0 
L 794 0 
L 794 531 
z
" transform="scale(0.015625)"/>
       </defs>
       <use xlink:href="#DejaVuSans-31"/>
       <use xlink:href="#DejaVuSans-30" x="63.623047"/>
       <use xlink:href="#DejaVuSans-30" x="127.246094"/>
       <use xlink:href="#DejaVuSans-30" x="190.869141"/>
       <use xlink:href="#DejaVuSans-30" x="254.492188"/>
      </g>
     </g>
    </g>
    <g id="xtick_3">
     <g id="line2d_3">
      <g>
       <use xlink:href="#me8c42d78ae" x="178.556453" y="162.432" style="stroke: #000000; stroke-width: 0.8"/>
      </g>
     </g>
     <g id="text_3">
      <!-- 20000 -->
      <g transform="translate(162.650203 177.030437)scale(0.1 -0.1)">
       <defs>
        <path id="DejaVuSans-32" d="M 1228 531 
L 3431 531 
L 3431 0 
L 469 0 
L 469 531 
Q 828 903 1448 1529 
Q 2069 2156 2228 2338 
Q 2531 2678 2651 2914 
Q 2772 3150 2772 3378 
Q 2772 3750 2511 3984 
Q 2250 4219 1831 4219 
Q 1534 4219 1204 4116 
Q 875 4013 500 3803 
L 500 4441 
Q 881 4594 1212 4672 
Q 1544 4750 1819 4750 
Q 2544 4750 2975 4387 
Q 3406 4025 3406 3419 
Q 3406 3131 3298 2873 
Q 3191 2616 2906 2266 
Q 2828 2175 2409 1742 
Q 1991 1309 1228 531 
z
" transform="scale(0.015625)"/>
       </defs>
       <use xlink:href="#DejaVuSans-32"/>
       <use xlink:href="#DejaVuSans-30" x="63.623047"/>
       <use xlink:href="#DejaVuSans-30" x="127.246094"/>
       <use xlink:href="#DejaVuSans-30" x="190.869141"/>
       <use xlink:href="#DejaVuSans-30" x="254.492188"/>
      </g>
     </g>
    </g>
    <g id="xtick_4">
     <g id="line2d_4">
      <g>
       <use xlink:href="#me8c42d78ae" x="230.920934" y="162.432" style="stroke: #000000; stroke-width: 0.8"/>
      </g>
     </g>
     <g id="text_4">
      <!-- 30000 -->
      <g transform="translate(215.014684 177.030437)scale(0.1 -0.1)">
       <defs>
        <path id="DejaVuSans-33" d="M 2597 2516 
Q 3050 2419 3304 2112 
Q 3559 1806 3559 1356 
Q 3559 666 3084 287 
Q 2609 -91 1734 -91 
Q 1441 -91 1130 -33 
Q 819 25 488 141 
L 488 750 
Q 750 597 1062 519 
Q 1375 441 1716 441 
Q 2309 441 2620 675 
Q 2931 909 2931 1356 
Q 2931 1769 2642 2001 
Q 2353 2234 1838 2234 
L 1294 2234 
L 1294 2753 
L 1863 2753 
Q 2328 2753 2575 2939 
Q 2822 3125 2822 3475 
Q 2822 3834 2567 4026 
Q 2313 4219 1838 4219 
Q 1578 4219 1281 4162 
Q 984 4106 628 3988 
L 628 4550 
Q 988 4650 1302 4700 
Q 1616 4750 1894 4750 
Q 2613 4750 3031 4423 
Q 3450 4097 3450 3541 
Q 3450 3153 3228 2886 
Q 3006 2619 2597 2516 
z
" transform="scale(0.015625)"/>
       </defs>
       <use xlink:href="#DejaVuSans-33"/>
       <use xlink:href="#DejaVuSans-30" x="63.623047"/>
       <use xlink:href="#DejaVuSans-30" x="127.246094"/>
       <use xlink:href="#DejaVuSans-30" x="190.869141"/>
       <use xlink:href="#DejaVuSans-30" x="254.492188"/>
      </g>
     </g>
    </g>
    <g id="xtick_5">
     <g id="line2d_5">
      <g>
       <use xlink:href="#me8c42d78ae" x="283.285415" y="162.432" style="stroke: #000000; stroke-width: 0.8"/>
      </g>
     </g>
     <g id="text_5">
      <!-- 40000 -->
      <g transform="translate(267.379165 177.030437)scale(0.1 -0.1)">
       <defs>
        <path id="DejaVuSans-34" d="M 2419 4116 
L 825 1625 
L 2419 1625 
L 2419 4116 
z
M 2253 4666 
L 3047 4666 
L 3047 1625 
L 3713 1625 
L 3713 1100 
L 3047 1100 
L 3047 0 
L 2419 0 
L 2419 1100 
L 313 1100 
L 313 1709 
L 2253 4666 
z
" transform="scale(0.015625)"/>
       </defs>
       <use xlink:href="#DejaVuSans-34"/>
       <use xlink:href="#DejaVuSans-30" x="63.623047"/>
       <use xlink:href="#DejaVuSans-30" x="127.246094"/>
       <use xlink:href="#DejaVuSans-30" x="190.869141"/>
       <use xlink:href="#DejaVuSans-30" x="254.492188"/>
      </g>
     </g>
    </g>
    <g id="xtick_6">
     <g id="line2d_6">
      <g>
       <use xlink:href="#me8c42d78ae" x="335.649896" y="162.432" style="stroke: #000000; stroke-width: 0.8"/>
      </g>
     </g>
     <g id="text_6">
      <!-- 50000 -->
      <g transform="translate(319.743646 177.030437)scale(0.1 -0.1)">
       <defs>
        <path id="DejaVuSans-35" d="M 691 4666 
L 3169 4666 
L 3169 4134 
L 1269 4134 
L 1269 2991 
Q 1406 3038 1543 3061 
Q 1681 3084 1819 3084 
Q 2600 3084 3056 2656 
Q 3513 2228 3513 1497 
Q 3513 744 3044 326 
Q 2575 -91 1722 -91 
Q 1428 -91 1123 -41 
Q 819 9 494 109 
L 494 744 
Q 775 591 1075 516 
Q 1375 441 1709 441 
Q 2250 441 2565 725 
Q 2881 1009 2881 1497 
Q 2881 1984 2565 2268 
Q 2250 2553 1709 2553 
Q 1456 2553 1204 2497 
Q 953 2441 691 2322 
L 691 4666 
z
" transform="scale(0.015625)"/>
       </defs>
       <use xlink:href="#DejaVuSans-35"/>
       <use xlink:href="#DejaVuSans-30" x="63.623047"/>
       <use xlink:href="#DejaVuSans-30" x="127.246094"/>
       <use xlink:href="#DejaVuSans-30" x="190.869141"/>
       <use xlink:href="#DejaVuSans-30" x="254.492188"/>
      </g>
     </g>
    </g>
    <g id="xtick_7">
     <g id="line2d_7">
      <g>
       <use xlink:href="#me8c42d78ae" x="388.014377" y="162.432" style="stroke: #000000; stroke-width: 0.8"/>
      </g>
     </g>
     <g id="text_7">
      <!-- 60000 -->
      <g transform="translate(372.108127 177.030437)scale(0.1 -0.1)">
       <defs>
        <path id="DejaVuSans-36" d="M 2113 2584 
Q 1688 2584 1439 2293 
Q 1191 2003 1191 1497 
Q 1191 994 1439 701 
Q 1688 409 2113 409 
Q 2538 409 2786 701 
Q 3034 994 3034 1497 
Q 3034 2003 2786 2293 
Q 2538 2584 2113 2584 
z
M 3366 4563 
L 3366 3988 
Q 3128 4100 2886 4159 
Q 2644 4219 2406 4219 
Q 1781 4219 1451 3797 
Q 1122 3375 1075 2522 
Q 1259 2794 1537 2939 
Q 1816 3084 2150 3084 
Q 2853 3084 3261 2657 
Q 3669 2231 3669 1497 
Q 3669 778 3244 343 
Q 2819 -91 2113 -91 
Q 1303 -91 875 529 
Q 447 1150 447 2328 
Q 447 3434 972 4092 
Q 1497 4750 2381 4750 
Q 2619 4750 2861 4703 
Q 3103 4656 3366 4563 
z
" transform="scale(0.015625)"/>
       </defs>
       <use xlink:href="#DejaVuSans-36"/>
       <use xlink:href="#DejaVuSans-30" x="63.623047"/>
       <use xlink:href="#DejaVuSans-30" x="127.246094"/>
       <use xlink:href="#DejaVuSans-30" x="190.869141"/>
       <use xlink:href="#DejaVuSans-30" x="254.492188"/>
      </g>
     </g>
    </g>
   </g>
   <g id="matplotlib.axis_2">
    <g id="ytick_1">
     <g id="line2d_8">
      <defs>
       <path id="m09c0050ab3" d="M 0 0 
L -3.5 0 
" style="stroke: #000000; stroke-width: 0.8"/>
      </defs>
      <g>
       <use xlink:href="#m09c0050ab3" x="57.6" y="139.465053" style="stroke: #000000; stroke-width: 0.8"/>
      </g>
     </g>
     <g id="text_8">
      <!-- 70 -->
      <g transform="translate(37.875 143.264272)scale(0.1 -0.1)">
       <defs>
        <path id="DejaVuSans-37" d="M 525 4666 
L 3525 4666 
L 3525 4397 
L 1831 0 
L 1172 0 
L 2766 4134 
L 525 4134 
L 525 4666 
z
" transform="scale(0.015625)"/>
       </defs>
       <use xlink:href="#DejaVuSans-37"/>
       <use xlink:href="#DejaVuSans-30" x="63.623047"/>
      </g>
     </g>
    </g>
    <g id="ytick_2">
     <g id="line2d_9">
      <g>
       <use xlink:href="#m09c0050ab3" x="57.6" y="112.59003" style="stroke: #000000; stroke-width: 0.8"/>
      </g>
     </g>
     <g id="text_9">
      <!-- 80 -->
      <g transform="translate(37.875 116.389249)scale(0.1 -0.1)">
       <defs>
        <path id="DejaVuSans-38" d="M 2034 2216 
Q 1584 2216 1326 1975 
Q 1069 1734 1069 1313 
Q 1069 891 1326 650 
Q 1584 409 2034 409 
Q 2484 409 2743 651 
Q 3003 894 3003 1313 
Q 3003 1734 2745 1975 
Q 2488 2216 2034 2216 
z
M 1403 2484 
Q 997 2584 770 2862 
Q 544 3141 544 3541 
Q 544 4100 942 4425 
Q 1341 4750 2034 4750 
Q 2731 4750 3128 4425 
Q 3525 4100 3525 3541 
Q 3525 3141 3298 2862 
Q 3072 2584 2669 2484 
Q 3125 2378 3379 2068 
Q 3634 1759 3634 1313 
Q 3634 634 3220 271 
Q 2806 -91 2034 -91 
Q 1263 -91 848 271 
Q 434 634 434 1313 
Q 434 1759 690 2068 
Q 947 2378 1403 2484 
z
M 1172 3481 
Q 1172 3119 1398 2916 
Q 1625 2713 2034 2713 
Q 2441 2713 2670 2916 
Q 2900 3119 2900 3481 
Q 2900 3844 2670 4047 
Q 2441 4250 2034 4250 
Q 1625 4250 1398 4047 
Q 1172 3844 1172 3481 
z
" transform="scale(0.015625)"/>
       </defs>
       <use xlink:href="#DejaVuSans-38"/>
       <use xlink:href="#DejaVuSans-30" x="63.623047"/>
      </g>
     </g>
    </g>
    <g id="ytick_3">
     <g id="line2d_10">
      <g>
       <use xlink:href="#m09c0050ab3" x="57.6" y="85.715007" style="stroke: #000000; stroke-width: 0.8"/>
      </g>
     </g>
     <g id="text_10">
      <!-- 90 -->
      <g transform="translate(37.875 89.514226)scale(0.1 -0.1)">
       <defs>
        <path id="DejaVuSans-39" d="M 703 97 
L 703 672 
Q 941 559 1184 500 
Q 1428 441 1663 441 
Q 2288 441 2617 861 
Q 2947 1281 2994 2138 
Q 2813 1869 2534 1725 
Q 2256 1581 1919 1581 
Q 1219 1581 811 2004 
Q 403 2428 403 3163 
Q 403 3881 828 4315 
Q 1253 4750 1959 4750 
Q 2769 4750 3195 4129 
Q 3622 3509 3622 2328 
Q 3622 1225 3098 567 
Q 2575 -91 1691 -91 
Q 1453 -91 1209 -44 
Q 966 3 703 97 
z
M 1959 2075 
Q 2384 2075 2632 2365 
Q 2881 2656 2881 3163 
Q 2881 3666 2632 3958 
Q 2384 4250 1959 4250 
Q 1534 4250 1286 3958 
Q 1038 3666 1038 3163 
Q 1038 2656 1286 2365 
Q 1534 2075 1959 2075 
z
" transform="scale(0.015625)"/>
       </defs>
       <use xlink:href="#DejaVuSans-39"/>
       <use xlink:href="#DejaVuSans-30" x="63.623047"/>
      </g>
     </g>
    </g>
    <g id="ytick_4">
     <g id="line2d_11">
      <g>
       <use xlink:href="#m09c0050ab3" x="57.6" y="58.839984" style="stroke: #000000; stroke-width: 0.8"/>
      </g>
     </g>
     <g id="text_11">
      <!-- 100 -->
      <g transform="translate(31.5125 62.639202)scale(0.1 -0.1)">
       <use xlink:href="#DejaVuSans-31"/>
       <use xlink:href="#DejaVuSans-30" x="63.623047"/>
       <use xlink:href="#DejaVuSans-30" x="127.246094"/>
      </g>
     </g>
    </g>
   </g>
   <g id="line2d_12">
    <path d="M 73.832727 61.527486 
L 73.974111 80.116044 
L 73.995057 78.772293 
L 74.031712 89.522302 
L 74.047422 89.522302 
L 74.084077 88.626468 
L 74.089313 91.31397 
L 74.141678 91.31397 
L 74.267352 100.720228 
L 74.288298 100.720228 
L 74.33019 98.032726 
L 74.340663 103.40773 
L 74.387791 103.40773 
L 74.398264 103.40773 
L 74.445392 114.15774 
L 74.523938 112.813989 
L 74.560594 112.813989 
L 74.665323 115.501491 
L 74.670559 114.605657 
L 74.675795 114.605657 
L 74.790997 113.933781 
L 74.995219 113.933781 
L 75.115657 119.308786 
L 75.168022 119.308786 
L 75.283223 118.412952 
L 75.628829 118.412952 
L 75.744031 121.100454 
L 75.827814 121.100454 
L 75.943016 123.787956 
L 76.094873 123.787956 
L 76.210075 122.444205 
L 76.48237 122.444205 
L 76.597572 125.131707 
L 77.571551 125.131707 
L 77.686753 127.81921 
L 78.152797 127.81921 
L 78.267999 127.147334 
L 79.111067 127.147334 
L 79.226269 129.834837 
L 79.43049 129.834837 
L 79.545692 132.522339 
L 80.613928 132.522339 
L 80.729129 131.626505 
L 80.776257 131.626505 
L 80.891459 134.314007 
L 81.745 134.314007 
L 81.860202 137.001509 
L 82.326246 137.001509 
L 82.441448 139.689012 
L 88.295797 139.689012 
L 88.410999 138.793178 
L 89.667746 138.793178 
L 89.688692 141.48068 
L 89.777712 140.808804 
L 90.327539 140.808804 
L 90.442741 143.496307 
L 99.334229 143.496307 
L 99.449431 142.152555 
L 106.58671 142.152555 
L 106.701912 141.48068 
L 113.933447 141.48068 
L 114.048649 144.168182 
L 143.713127 144.168182 
L 143.828329 143.496307 
L 152.81931 143.496307 
L 152.934512 142.824431 
L 164.590846 142.824431 
L 164.706048 145.511933 
L 165.721918 145.511933 
L 165.83712 144.168182 
L 166.114652 144.168182 
L 166.229854 146.855685 
L 175.367456 146.855685 
L 175.482658 145.511933 
L 178.048517 145.511933 
L 178.163719 148.199436 
L 213.096064 148.199436 
L 213.211266 150.886938 
L 225.715904 150.886938 
L 225.831106 149.543187 
L 235.047255 149.543187 
L 235.162457 152.230689 
L 248.688202 152.230689 
L 248.803404 150.886938 
L 275.425506 150.886938 
L 275.540708 150.215062 
L 285.505669 150.215062 
L 285.62087 152.902565 
L 323.145258 152.902565 
L 323.260459 151.558814 
L 396.848264 151.558814 
L 396.963466 154.246316 
L 397.209579 154.246316 
L 397.324781 156.933818 
L 398.487273 156.933818 
L 398.487273 156.933818 
" clip-path="url(#p3d12db405b)" style="fill: none; stroke: #1f77b4; stroke-width: 1.5; stroke-linecap: square"/>
   </g>
   <g id="line2d_13">
    <path d="M 73.832727 61.527486 
L 73.848437 61.527486 
L 73.979348 74.293122 
L 73.989821 74.293122 
L 74.000294 70.709786 
L 74.073604 81.459795 
L 74.084077 81.459795 
L 74.089313 81.459795 
L 74.110259 79.892085 
L 74.120732 85.26709 
L 74.178333 83.923339 
L 74.199279 83.923339 
L 74.277825 89.298343 
L 74.31448 88.626468 
L 74.33019 88.626468 
L 74.455865 96.688975 
L 74.701978 96.688975 
L 74.81718 99.376477 
L 74.995219 99.376477 
L 75.110421 102.063979 
L 75.508391 102.063979 
L 75.623593 104.751482 
L 76.299094 104.751482 
L 76.414296 103.855647 
L 76.822739 103.855647 
L 76.937941 106.54315 
L 77.571551 106.54315 
L 77.686753 109.230652 
L 79.111067 109.230652 
L 79.226269 111.918154 
L 79.43049 111.918154 
L 79.545692 109.230652 
L 80.231667 109.230652 
L 80.346869 111.918154 
L 82.326246 111.918154 
L 82.441448 114.605657 
L 88.295797 114.605657 
L 88.410999 117.293159 
L 89.688692 117.293159 
L 89.803894 119.980661 
L 90.165209 119.980661 
L 90.280411 119.308786 
L 100.271554 119.308786 
L 100.386756 118.412952 
L 102.078128 118.412952 
L 102.19333 121.100454 
L 143.713127 121.100454 
L 143.828329 123.787956 
L 152.25901 123.787956 
L 152.374212 126.475459 
L 183.023143 126.475459 
L 183.138345 129.162961 
L 213.096064 129.162961 
L 213.211266 131.850463 
L 292.595819 131.850463 
L 292.711021 134.537966 
L 388.045795 134.537966 
L 388.160997 137.225468 
L 398.487273 137.225468 
L 398.487273 137.225468 
" clip-path="url(#p3d12db405b)" style="fill: none; stroke: #ff7f0e; stroke-width: 1.5; stroke-linecap: square"/>
   </g>
   <g id="line2d_14">
    <path d="M 73.832727 61.527486 
L 73.879855 56.600398 
L 73.91651 64.662905 
L 73.93222 64.662905 
L 74.042185 75.188956 
L 74.052658 72.949371 
L 74.084077 68.022283 
L 74.146914 76.532707 
L 74.157387 76.532707 
L 74.173096 79.22021 
L 74.235934 75.636873 
L 74.262116 78.324375 
L 74.324953 75.636873 
L 74.340663 81.011878 
L 74.366845 81.011878 
L 74.413973 85.043131 
L 74.47681 81.459795 
L 74.482047 81.459795 
L 74.56583 89.522302 
L 74.602485 88.178551 
L 74.665323 88.178551 
L 74.670559 87.282717 
L 74.681032 92.657721 
L 74.754342 91.31397 
L 74.995219 91.31397 
L 75.005692 89.970219 
L 75.010928 92.657721 
L 75.099948 92.657721 
L 75.503154 92.657721 
L 75.618356 88.626468 
L 75.628829 88.626468 
L 75.744031 91.31397 
L 75.827814 91.31397 
L 75.943016 94.001472 
L 76.094873 94.001472 
L 76.210075 92.657721 
L 76.299094 92.657721 
L 76.414296 95.345223 
L 76.48237 95.345223 
L 76.597572 98.032726 
L 76.822739 98.032726 
L 76.937941 96.688975 
L 77.445876 96.688975 
L 77.561078 95.345223 
L 77.571551 95.345223 
L 77.686753 94.001472 
L 78.152797 94.001472 
L 78.267999 96.688975 
L 79.111067 96.688975 
L 79.226269 95.345223 
L 80.231667 95.345223 
L 80.346869 94.449389 
L 82.326246 94.449389 
L 82.441448 93.105638 
L 88.295797 93.105638 
L 88.410999 92.209804 
L 89.667746 92.209804 
L 89.688692 94.897306 
L 89.777712 94.225431 
L 90.165209 94.225431 
L 90.280411 96.912933 
L 99.334229 96.912933 
L 99.449431 95.569182 
L 100.271554 95.569182 
L 100.386756 98.256684 
L 102.078128 98.256684 
L 102.19333 96.912933 
L 105.3928 96.912933 
L 105.508002 94.225431 
L 106.58671 94.225431 
L 106.701912 96.912933 
L 108.948348 96.912933 
L 109.06355 99.600435 
L 113.933447 99.600435 
L 114.048649 102.287938 
L 143.713127 102.287938 
L 143.828329 101.616062 
L 152.25901 101.616062 
L 152.374212 100.720228 
L 152.81931 100.720228 
L 152.934512 103.40773 
L 154.217442 103.40773 
L 154.332644 106.095233 
L 163.904871 106.095233 
L 164.020073 103.40773 
L 164.590846 103.40773 
L 164.706048 106.095233 
L 165.721918 106.095233 
L 165.83712 104.751482 
L 166.036105 104.751482 
L 166.114652 102.063979 
L 166.146071 104.751482 
L 175.367456 104.751482 
L 175.482658 103.40773 
L 180.441574 103.40773 
L 180.556776 106.095233 
L 183.023143 106.095233 
L 183.138345 104.751482 
L 211.189997 104.751482 
L 211.305199 107.438984 
L 213.096064 107.438984 
L 213.211266 106.095233 
L 225.715904 106.095233 
L 225.831106 104.751482 
L 230.585801 104.751482 
L 230.701003 107.438984 
L 235.047255 107.438984 
L 235.162457 110.126486 
L 248.688202 110.126486 
L 248.803404 108.782735 
L 273.48802 108.782735 
L 273.608459 103.40773 
L 274.462 103.40773 
L 274.577201 106.095233 
L 275.425506 106.095233 
L 275.540708 108.782735 
L 278.467882 108.782735 
L 278.583084 111.470237 
L 285.505669 111.470237 
L 285.62087 114.15774 
L 292.595819 114.15774 
L 292.711021 112.813989 
L 323.145258 112.813989 
L 323.260459 111.470237 
L 388.045795 111.470237 
L 388.160997 110.126486 
L 394.470917 110.126486 
L 394.586119 107.438984 
L 395.549625 107.438984 
L 395.664827 110.126486 
L 396.198945 110.126486 
L 396.314147 107.438984 
L 396.848264 107.438984 
L 396.963466 110.126486 
L 397.209579 110.126486 
L 397.324781 112.813989 
L 398.487273 112.813989 
L 398.487273 112.813989 
" clip-path="url(#p3d12db405b)" style="fill: none; stroke: #2ca02c; stroke-width: 1.5; stroke-linecap: square"/>
   </g>
   <g id="line2d_15">
    <path d="M 73.832727 57.94415 
L 73.953166 70.03791 
L 73.963638 69.142076 
L 73.979348 69.142076 
L 74.068367 83.475422 
L 74.110259 81.011878 
L 74.173096 81.011878 
L 74.277825 85.491048 
L 74.288298 84.819173 
L 74.324953 84.819173 
L 74.419209 83.027505 
L 74.424446 85.715007 
L 74.429682 85.715007 
L 74.482047 85.715007 
L 74.56583 84.819173 
L 74.571066 87.506675 
L 74.581539 87.506675 
L 74.670559 87.506675 
L 74.785761 85.938965 
L 75.503154 85.938965 
L 75.618356 88.626468 
L 75.827814 88.626468 
L 75.943016 87.730634 
L 76.48237 87.730634 
L 76.597572 86.834799 
L 77.445876 86.834799 
L 77.561078 89.522302 
L 78.152797 89.522302 
L 78.267999 88.850426 
L 81.745 88.850426 
L 81.860202 91.537929 
L 90.165209 91.537929 
L 90.280411 90.866053 
L 90.327539 90.866053 
L 90.442741 93.553555 
L 105.3928 93.553555 
L 105.508002 96.241058 
L 106.58671 96.241058 
L 106.701912 95.569182 
L 108.948348 95.569182 
L 109.06355 94.673348 
L 113.933447 94.673348 
L 114.048649 93.777514 
L 151.740602 93.777514 
L 151.855804 92.88168 
L 152.81931 92.88168 
L 152.934512 92.209804 
L 154.217442 92.209804 
L 154.306462 91.31397 
L 154.311698 94.001472 
L 154.316934 94.001472 
L 163.904871 94.001472 
L 164.020073 96.688975 
L 164.590846 96.688975 
L 164.706048 95.793141 
L 166.036105 95.793141 
L 166.151307 98.480643 
L 178.048517 98.480643 
L 178.163719 101.168145 
L 211.189997 101.168145 
L 211.305199 100.272311 
L 230.585801 100.272311 
L 230.701003 99.376477 
L 273.48802 99.376477 
L 273.608459 104.751482 
L 275.425506 104.751482 
L 275.540708 104.079606 
L 278.467882 104.079606 
L 278.583084 103.183772 
L 333.068327 103.183772 
L 333.183529 105.871274 
L 394.470917 105.871274 
L 394.586119 108.558777 
L 396.198945 108.558777 
L 396.314147 111.246279 
L 397.209579 111.246279 
L 397.324781 110.350445 
L 398.487273 110.350445 
L 398.487273 110.350445 
" clip-path="url(#p3d12db405b)" style="fill: none; stroke: #d62728; stroke-width: 1.5; stroke-linecap: square"/>
   </g>
   <g id="line2d_16">
    <path d="M 73.832727 58.839984 
L 73.8432 58.839984 
L 73.958402 57.94415 
L 74.230697 57.94415 
L 74.345899 57.048315 
L 74.419209 57.048315 
L 74.534411 56.152481 
L 80.231667 56.152481 
L 80.346869 55.256647 
L 89.688692 55.256647 
L 89.803894 54.584772 
L 143.713127 54.584772 
L 143.828329 53.912896 
L 152.25901 53.912896 
L 152.374212 53.017062 
L 398.487273 53.017062 
L 398.487273 53.017062 
" clip-path="url(#p3d12db405b)" style="fill: none; stroke: #9467bd; stroke-width: 1.5; stroke-linecap: square"/>
   </g>
   <g id="line2d_17">
    <path d="M 73.832727 58.839984 
L 73.848437 58.839984 
L 73.85891 61.527486 
L 73.958402 59.735818 
L 73.963638 59.735818 
L 74.042185 65.110822 
L 74.07884 62.871237 
L 74.105023 62.871237 
L 74.225461 60.631652 
L 74.56583 60.631652 
L 74.681032 58.392067 
L 77.445876 58.392067 
L 77.561078 57.048315 
L 88.295797 57.048315 
L 88.410999 56.152481 
L 398.487273 56.152481 
L 398.487273 56.152481 
" clip-path="url(#p3d12db405b)" style="fill: none; stroke: #8c564b; stroke-width: 1.5; stroke-linecap: square"/>
   </g>
   <g id="line2d_18">
    <path d="M 73.832727 58.839984 
L 73.837964 58.839984 
L 73.953166 55.256647 
L 74.000294 55.256647 
L 74.115495 54.584772 
L 74.230697 54.584772 
L 74.345899 53.688938 
L 74.419209 53.688938 
L 74.534411 52.793103 
L 80.231667 52.793103 
L 80.346869 51.897269 
L 89.688692 51.897269 
L 89.803894 51.225394 
L 141.712804 51.225394 
L 141.828006 48.537892 
L 143.713127 48.537892 
L 143.828329 47.866016 
L 152.25901 47.866016 
L 152.374212 46.970182 
L 398.487273 46.970182 
L 398.487273 46.970182 
" clip-path="url(#p3d12db405b)" style="fill: none; stroke: #e377c2; stroke-width: 1.5; stroke-linecap: square"/>
   </g>
   <g id="line2d_19">
    <path d="M 73.832727 58.839984 
L 73.890328 72.277495 
L 73.963638 69.366034 
L 74.000294 69.366034 
L 74.120732 74.741039 
L 74.209752 74.741039 
L 74.230697 73.845205 
L 74.235934 76.532707 
L 74.309244 76.532707 
L 74.419209 76.532707 
L 74.534411 79.22021 
L 75.168022 79.22021 
L 75.283223 78.324375 
L 80.231667 78.324375 
L 80.346869 81.011878 
L 80.613928 81.011878 
L 80.729129 80.116044 
L 80.776257 80.116044 
L 80.891459 78.772293 
L 81.745 78.772293 
L 81.860202 77.428541 
L 89.688692 77.428541 
L 89.803894 80.116044 
L 90.327539 80.116044 
L 90.442741 78.772293 
L 141.712804 78.772293 
L 141.828006 81.459795 
L 143.713127 81.459795 
L 143.828329 84.147297 
L 151.740602 84.147297 
L 151.855804 83.251463 
L 152.25901 83.251463 
L 152.374212 85.938965 
L 154.306462 85.938965 
L 154.421663 84.595214 
L 173.199566 84.595214 
L 173.314768 83.251463 
L 178.048517 83.251463 
L 178.163719 81.907712 
L 333.068327 81.907712 
L 333.183529 80.563961 
L 398.487273 80.563961 
L 398.487273 80.563961 
" clip-path="url(#p3d12db405b)" style="fill: none; stroke: #7f7f7f; stroke-width: 1.5; stroke-linecap: square"/>
   </g>
   <g id="line2d_20">
    <path d="M 73.832727 57.94415 
L 73.953166 77.428541 
L 73.968875 74.741039 
L 73.974111 73.397288 
L 74.036949 83.251463 
L 74.042185 82.355629 
L 74.068367 88.178551 
L 74.152151 84.371256 
L 74.157387 84.371256 
L 74.173096 83.027505 
L 74.214988 87.058758 
L 74.262116 85.715007 
L 74.324953 93.105638 
L 74.377318 88.626468 
L 74.398264 88.626468 
L 74.419209 84.595214 
L 74.450628 89.970219 
L 74.508229 87.730634 
L 74.560594 87.730634 
L 74.56583 86.386882 
L 74.571066 89.074385 
L 74.665323 89.074385 
L 74.670559 91.761887 
L 74.707214 88.850426 
L 74.775288 88.850426 
L 74.995219 88.850426 
L 75.115657 86.162924 
L 75.168022 86.162924 
L 75.283223 88.850426 
L 75.503154 88.850426 
L 75.508391 91.537929 
L 75.61312 90.194177 
L 75.628829 90.194177 
L 75.744031 88.850426 
L 75.827814 88.850426 
L 75.943016 87.954592 
L 76.094873 87.954592 
L 76.210075 90.642094 
L 76.299094 90.642094 
L 76.414296 89.74626 
L 76.48237 89.74626 
L 76.597572 88.850426 
L 76.822739 88.850426 
L 76.937941 87.506675 
L 77.445876 87.506675 
L 77.561078 90.194177 
L 77.571551 90.194177 
L 77.686753 88.850426 
L 78.152797 88.850426 
L 78.267999 88.178551 
L 79.111067 88.178551 
L 79.226269 86.834799 
L 80.613928 86.834799 
L 80.729129 89.522302 
L 80.776257 89.522302 
L 80.891459 92.209804 
L 81.745 92.209804 
L 81.860202 94.897306 
L 82.326246 94.897306 
L 82.441448 93.553555 
L 88.295797 93.553555 
L 88.410999 96.241058 
L 89.667746 96.241058 
L 89.782948 94.897306 
L 90.165209 94.897306 
L 90.280411 94.225431 
L 90.327539 94.225431 
L 90.442741 96.912933 
L 99.334229 96.912933 
L 99.449431 99.600435 
L 100.271554 99.600435 
L 100.386756 98.704601 
L 102.078128 98.704601 
L 102.19333 97.36085 
L 105.3928 97.36085 
L 105.508002 100.048353 
L 106.58671 100.048353 
L 106.701912 99.376477 
L 108.948348 99.376477 
L 109.06355 98.480643 
L 113.933447 98.480643 
L 114.048649 97.584809 
L 151.740602 97.584809 
L 151.855804 100.272311 
L 152.81931 100.272311 
L 152.934512 99.600435 
L 154.217442 99.600435 
L 154.306462 98.704601 
L 154.311698 101.392104 
L 154.316934 101.392104 
L 163.904871 101.392104 
L 164.020073 104.079606 
L 164.590846 104.079606 
L 164.706048 103.183772 
L 165.721918 103.183772 
L 165.83712 105.871274 
L 166.036105 105.871274 
L 166.114652 108.558777 
L 166.146071 107.215025 
L 173.199566 107.215025 
L 173.314768 109.902528 
L 175.367456 109.902528 
L 175.482658 112.59003 
L 178.048517 112.59003 
L 178.163719 115.277532 
L 180.441574 115.277532 
L 180.556776 113.933781 
L 183.023143 113.933781 
L 183.138345 112.59003 
L 211.189997 112.59003 
L 211.305199 111.694196 
L 213.096064 111.694196 
L 213.211266 110.350445 
L 225.715904 110.350445 
L 225.831106 113.037947 
L 230.585801 113.037947 
L 230.701003 112.142113 
L 235.047255 112.142113 
L 235.162457 110.798362 
L 248.688202 110.798362 
L 248.803404 113.485864 
L 273.48802 113.485864 
L 273.608459 118.860869 
L 274.462 118.860869 
L 274.577201 117.517118 
L 275.425506 117.517118 
L 275.540708 116.845242 
L 278.467882 116.845242 
L 278.583084 115.949408 
L 285.505669 115.949408 
L 285.62087 114.605657 
L 292.595819 114.605657 
L 292.711021 113.261906 
L 323.145258 113.261906 
L 323.260459 115.949408 
L 333.068327 115.949408 
L 333.183529 118.63691 
L 388.045795 118.63691 
L 388.160997 117.293159 
L 394.470917 117.293159 
L 394.586119 119.980661 
L 395.549625 119.980661 
L 395.664827 118.63691 
L 396.198945 118.63691 
L 396.314147 121.324413 
L 396.848264 121.324413 
L 396.963466 119.980661 
L 397.209579 119.980661 
L 397.324781 119.084827 
L 398.487273 119.084827 
L 398.487273 119.084827 
" clip-path="url(#p3d12db405b)" style="fill: none; stroke: #bcbd22; stroke-width: 1.5; stroke-linecap: square"/>
   </g>
   <g id="line2d_21">
    <path d="M 73.832727 57.94415 
L 73.879855 71.381661 
L 73.958402 68.246242 
L 73.974111 67.350408 
L 74.016003 73.397288 
L 74.031712 72.053537 
L 74.068367 76.532707 
L 74.141678 75.412915 
L 74.230697 71.829578 
L 74.25688 73.173329 
L 74.262116 73.173329 
L 74.324953 80.563961 
L 74.377318 76.08479 
L 74.4035 76.08479 
L 74.419209 74.741039 
L 74.450628 80.116044 
L 74.502993 77.876458 
L 74.560594 77.876458 
L 74.681032 74.964998 
L 75.005692 74.964998 
L 75.120894 73.621246 
L 75.168022 73.621246 
L 75.283223 72.725412 
L 75.503154 72.725412 
L 75.618356 75.412915 
L 75.628829 75.412915 
L 75.744031 74.069163 
L 75.827814 74.069163 
L 75.943016 73.173329 
L 76.094873 73.173329 
L 76.210075 75.860832 
L 76.299094 75.860832 
L 76.414296 74.964998 
L 76.48237 74.964998 
L 76.597572 74.069163 
L 78.152797 74.069163 
L 78.267999 73.397288 
L 80.231667 73.397288 
L 80.346869 76.08479 
L 80.613928 76.08479 
L 80.729129 75.188956 
L 80.776257 75.188956 
L 80.891459 73.845205 
L 81.745 73.845205 
L 81.860202 72.501454 
L 89.667746 72.501454 
L 89.688692 71.157703 
L 89.693929 73.845205 
L 89.772475 73.845205 
L 90.165209 73.845205 
L 90.280411 73.173329 
L 90.327539 73.173329 
L 90.442741 71.829578 
L 99.334229 71.829578 
L 99.449431 74.517081 
L 100.271554 74.517081 
L 100.386756 73.621246 
L 105.3928 73.621246 
L 105.508002 76.308749 
L 106.58671 76.308749 
L 106.701912 75.636873 
L 108.948348 75.636873 
L 109.06355 74.741039 
L 113.933447 74.741039 
L 114.048649 73.845205 
L 143.713127 73.845205 
L 143.828329 76.532707 
L 151.740602 76.532707 
L 151.855804 75.636873 
L 152.25901 75.636873 
L 152.374212 78.324375 
L 152.81931 78.324375 
L 152.934512 77.6525 
L 154.217442 77.6525 
L 154.33788 75.412915 
L 163.904871 75.412915 
L 164.020073 78.100417 
L 164.590846 78.100417 
L 164.706048 77.204583 
L 165.721918 77.204583 
L 165.83712 79.892085 
L 166.036105 79.892085 
L 166.114652 82.579587 
L 166.146071 81.235836 
L 173.199566 81.235836 
L 173.314768 79.892085 
L 175.367456 79.892085 
L 175.482658 82.579587 
L 178.048517 82.579587 
L 178.163719 81.235836 
L 180.441574 81.235836 
L 180.556776 79.892085 
L 211.189997 79.892085 
L 211.305199 78.996251 
L 225.715904 78.996251 
L 225.831106 81.683753 
L 230.585801 81.683753 
L 230.701003 80.787919 
L 235.047255 80.787919 
L 235.162457 79.444168 
L 248.688202 79.444168 
L 248.803404 82.13167 
L 273.48802 82.13167 
L 273.608459 87.506675 
L 274.462 87.506675 
L 274.577201 86.162924 
L 275.425506 86.162924 
L 275.540708 85.491048 
L 278.467882 85.491048 
L 278.583084 84.595214 
L 285.505669 84.595214 
L 285.62087 83.251463 
L 323.145258 83.251463 
L 323.260459 85.938965 
L 333.068327 85.938965 
L 333.183529 84.595214 
L 394.470917 84.595214 
L 394.586119 87.282717 
L 395.549625 87.282717 
L 395.664827 85.938965 
L 396.198945 85.938965 
L 396.314147 88.626468 
L 396.848264 88.626468 
L 396.963466 87.282717 
L 397.209579 87.282717 
L 397.324781 86.386882 
L 398.487273 86.386882 
L 398.487273 86.386882 
" clip-path="url(#p3d12db405b)" style="fill: none; stroke: #17becf; stroke-width: 1.5; stroke-linecap: square"/>
   </g>
   <g id="line2d_22">
    <path d="M 73.832727 58.839984 
L 73.848437 58.839984 
L 73.85891 57.94415 
L 73.879855 63.319154 
L 73.93222 63.319154 
L 73.963638 63.319154 
L 74.042185 61.527486 
L 74.052658 66.902491 
L 74.105023 66.902491 
L 74.225461 72.277495 
L 74.56583 72.277495 
L 74.686268 77.6525 
L 77.445876 77.6525 
L 77.561078 80.340002 
L 88.295797 80.340002 
L 88.410999 83.027505 
L 398.487273 83.027505 
L 398.487273 83.027505 
" clip-path="url(#p3d12db405b)" style="fill: none; stroke: #1f77b4; stroke-width: 1.5; stroke-linecap: square"/>
   </g>
   <g id="line2d_23">
    <path d="M 73.832727 58.839984 
L 73.8432 58.839984 
L 73.879855 65.110822 
L 73.958402 61.527486 
L 73.963638 60.631652 
L 74.000294 68.694159 
L 74.036949 66.678532 
L 74.089313 66.678532 
L 74.209752 72.053537 
L 79.43049 72.053537 
L 79.545692 74.741039 
L 398.487273 74.741039 
L 398.487273 74.741039 
" clip-path="url(#p3d12db405b)" style="fill: none; stroke: #ff7f0e; stroke-width: 1.5; stroke-linecap: square"/>
   </g>
   <g id="patch_3">
    <path d="M 57.6 162.432 
L 57.6 41.472 
" style="fill: none; stroke: #000000; stroke-width: 0.8; stroke-linejoin: miter; stroke-linecap: square"/>
   </g>
   <g id="patch_4">
    <path d="M 414.72 162.432 
L 414.72 41.472 
" style="fill: none; stroke: #000000; stroke-width: 0.8; stroke-linejoin: miter; stroke-linecap: square"/>
   </g>
   <g id="patch_5">
    <path d="M 57.6 162.432 
L 414.72 162.432 
" style="fill: none; stroke: #000000; stroke-width: 0.8; stroke-linejoin: miter; stroke-linecap: square"/>
   </g>
   <g id="patch_6">
    <path d="M 57.6 41.472 
L 414.72 41.472 
" style="fill: none; stroke: #000000; stroke-width: 0.8; stroke-linejoin: miter; stroke-linecap: square"/>
   </g>
   <g id="text_12">
    <!-- WSP -->
    <g transform="translate(361.832136 156.933818)scale(0.08 -0.08)">
     <defs>
      <path id="DejaVuSans-57" d="M 213 4666 
L 850 4666 
L 1831 722 
L 2809 4666 
L 3519 4666 
L 4500 722 
L 5478 4666 
L 6119 4666 
L 4947 0 
L 4153 0 
L 3169 4050 
L 2175 0 
L 1381 0 
L 213 4666 
z
" transform="scale(0.015625)"/>
      <path id="DejaVuSans-53" d="M 3425 4513 
L 3425 3897 
Q 3066 4069 2747 4153 
Q 2428 4238 2131 4238 
Q 1616 4238 1336 4038 
Q 1056 3838 1056 3469 
Q 1056 3159 1242 3001 
Q 1428 2844 1947 2747 
L 2328 2669 
Q 3034 2534 3370 2195 
Q 3706 1856 3706 1288 
Q 3706 609 3251 259 
Q 2797 -91 1919 -91 
Q 1588 -91 1214 -16 
Q 841 59 441 206 
L 441 856 
Q 825 641 1194 531 
Q 1563 422 1919 422 
Q 2459 422 2753 634 
Q 3047 847 3047 1241 
Q 3047 1584 2836 1778 
Q 2625 1972 2144 2069 
L 1759 2144 
Q 1053 2284 737 2584 
Q 422 2884 422 3419 
Q 422 4038 858 4394 
Q 1294 4750 2059 4750 
Q 2388 4750 2728 4690 
Q 3069 4631 3425 4513 
z
" transform="scale(0.015625)"/>
      <path id="DejaVuSans-50" d="M 1259 4147 
L 1259 2394 
L 2053 2394 
Q 2494 2394 2734 2622 
Q 2975 2850 2975 3272 
Q 2975 3691 2734 3919 
Q 2494 4147 2053 4147 
L 1259 4147 
z
M 628 4666 
L 2053 4666 
Q 2838 4666 3239 4311 
Q 3641 3956 3641 3272 
Q 3641 2581 3239 2228 
Q 2838 1875 2053 1875 
L 1259 1875 
L 1259 0 
L 628 0 
L 628 4666 
z
" transform="scale(0.015625)"/>
     </defs>
     <use xlink:href="#DejaVuSans-57"/>
     <use xlink:href="#DejaVuSans-53" x="98.876953"/>
     <use xlink:href="#DejaVuSans-50" x="162.353516"/>
    </g>
   </g>
   <g id="text_13">
    <!-- Iambic -->
    <g transform="translate(361.832136 137.225468)scale(0.08 -0.08)">
     <defs>
      <path id="DejaVuSans-49" d="M 628 4666 
L 1259 4666 
L 1259 0 
L 628 0 
L 628 4666 
z
" transform="scale(0.015625)"/>
      <path id="DejaVuSans-61" d="M 2194 1759 
Q 1497 1759 1228 1600 
Q 959 1441 959 1056 
Q 959 750 1161 570 
Q 1363 391 1709 391 
Q 2188 391 2477 730 
Q 2766 1069 2766 1631 
L 2766 1759 
L 2194 1759 
z
M 3341 1997 
L 3341 0 
L 2766 0 
L 2766 531 
Q 2569 213 2275 61 
Q 1981 -91 1556 -91 
Q 1019 -91 701 211 
Q 384 513 384 1019 
Q 384 1609 779 1909 
Q 1175 2209 1959 2209 
L 2766 2209 
L 2766 2266 
Q 2766 2663 2505 2880 
Q 2244 3097 1772 3097 
Q 1472 3097 1187 3025 
Q 903 2953 641 2809 
L 641 3341 
Q 956 3463 1253 3523 
Q 1550 3584 1831 3584 
Q 2591 3584 2966 3190 
Q 3341 2797 3341 1997 
z
" transform="scale(0.015625)"/>
      <path id="DejaVuSans-6d" d="M 3328 2828 
Q 3544 3216 3844 3400 
Q 4144 3584 4550 3584 
Q 5097 3584 5394 3201 
Q 5691 2819 5691 2113 
L 5691 0 
L 5113 0 
L 5113 2094 
Q 5113 2597 4934 2840 
Q 4756 3084 4391 3084 
Q 3944 3084 3684 2787 
Q 3425 2491 3425 1978 
L 3425 0 
L 2847 0 
L 2847 2094 
Q 2847 2600 2669 2842 
Q 2491 3084 2119 3084 
Q 1678 3084 1418 2786 
Q 1159 2488 1159 1978 
L 1159 0 
L 581 0 
L 581 3500 
L 1159 3500 
L 1159 2956 
Q 1356 3278 1631 3431 
Q 1906 3584 2284 3584 
Q 2666 3584 2933 3390 
Q 3200 3197 3328 2828 
z
" transform="scale(0.015625)"/>
      <path id="DejaVuSans-62" d="M 3116 1747 
Q 3116 2381 2855 2742 
Q 2594 3103 2138 3103 
Q 1681 3103 1420 2742 
Q 1159 2381 1159 1747 
Q 1159 1113 1420 752 
Q 1681 391 2138 391 
Q 2594 391 2855 752 
Q 3116 1113 3116 1747 
z
M 1159 2969 
Q 1341 3281 1617 3432 
Q 1894 3584 2278 3584 
Q 2916 3584 3314 3078 
Q 3713 2572 3713 1747 
Q 3713 922 3314 415 
Q 2916 -91 2278 -91 
Q 1894 -91 1617 61 
Q 1341 213 1159 525 
L 1159 0 
L 581 0 
L 581 4863 
L 1159 4863 
L 1159 2969 
z
" transform="scale(0.015625)"/>
      <path id="DejaVuSans-69" d="M 603 3500 
L 1178 3500 
L 1178 0 
L 603 0 
L 603 3500 
z
M 603 4863 
L 1178 4863 
L 1178 4134 
L 603 4134 
L 603 4863 
z
" transform="scale(0.015625)"/>
      <path id="DejaVuSans-63" d="M 3122 3366 
L 3122 2828 
Q 2878 2963 2633 3030 
Q 2388 3097 2138 3097 
Q 1578 3097 1268 2742 
Q 959 2388 959 1747 
Q 959 1106 1268 751 
Q 1578 397 2138 397 
Q 2388 397 2633 464 
Q 2878 531 3122 666 
L 3122 134 
Q 2881 22 2623 -34 
Q 2366 -91 2075 -91 
Q 1284 -91 818 406 
Q 353 903 353 1747 
Q 353 2603 823 3093 
Q 1294 3584 2113 3584 
Q 2378 3584 2631 3529 
Q 2884 3475 3122 3366 
z
" transform="scale(0.015625)"/>
     </defs>
     <use xlink:href="#DejaVuSans-49"/>
     <use xlink:href="#DejaVuSans-61" x="29.492188"/>
     <use xlink:href="#DejaVuSans-6d" x="90.771484"/>
     <use xlink:href="#DejaVuSans-62" x="188.183594"/>
     <use xlink:href="#DejaVuSans-69" x="251.660156"/>
     <use xlink:href="#DejaVuSans-63" x="279.443359"/>
    </g>
   </g>
   <g id="text_14">
    <!-- Parse -->
    <g transform="translate(361.832136 112.813989)scale(0.08 -0.08)">
     <defs>
      <path id="DejaVuSans-72" d="M 2631 2963 
Q 2534 3019 2420 3045 
Q 2306 3072 2169 3072 
Q 1681 3072 1420 2755 
Q 1159 2438 1159 1844 
L 1159 0 
L 581 0 
L 581 3500 
L 1159 3500 
L 1159 2956 
Q 1341 3275 1631 3429 
Q 1922 3584 2338 3584 
Q 2397 3584 2469 3576 
Q 2541 3569 2628 3553 
L 2631 2963 
z
" transform="scale(0.015625)"/>
      <path id="DejaVuSans-73" d="M 2834 3397 
L 2834 2853 
Q 2591 2978 2328 3040 
Q 2066 3103 1784 3103 
Q 1356 3103 1142 2972 
Q 928 2841 928 2578 
Q 928 2378 1081 2264 
Q 1234 2150 1697 2047 
L 1894 2003 
Q 2506 1872 2764 1633 
Q 3022 1394 3022 966 
Q 3022 478 2636 193 
Q 2250 -91 1575 -91 
Q 1294 -91 989 -36 
Q 684 19 347 128 
L 347 722 
Q 666 556 975 473 
Q 1284 391 1588 391 
Q 1994 391 2212 530 
Q 2431 669 2431 922 
Q 2431 1156 2273 1281 
Q 2116 1406 1581 1522 
L 1381 1569 
Q 847 1681 609 1914 
Q 372 2147 372 2553 
Q 372 3047 722 3315 
Q 1072 3584 1716 3584 
Q 2034 3584 2315 3537 
Q 2597 3491 2834 3397 
z
" transform="scale(0.015625)"/>
      <path id="DejaVuSans-65" d="M 3597 1894 
L 3597 1613 
L 953 1613 
Q 991 1019 1311 708 
Q 1631 397 2203 397 
Q 2534 397 2845 478 
Q 3156 559 3463 722 
L 3463 178 
Q 3153 47 2828 -22 
Q 2503 -91 2169 -91 
Q 1331 -91 842 396 
Q 353 884 353 1716 
Q 353 2575 817 3079 
Q 1281 3584 2069 3584 
Q 2775 3584 3186 3129 
Q 3597 2675 3597 1894 
z
M 3022 2063 
Q 3016 2534 2758 2815 
Q 2500 3097 2075 3097 
Q 1594 3097 1305 2825 
Q 1016 2553 972 2059 
L 3022 2063 
z
" transform="scale(0.015625)"/>
     </defs>
     <use xlink:href="#DejaVuSans-50"/>
     <use xlink:href="#DejaVuSans-61" x="55.802734"/>
     <use xlink:href="#DejaVuSans-72" x="117.082031"/>
     <use xlink:href="#DejaVuSans-73" x="158.195312"/>
     <use xlink:href="#DejaVuSans-65" x="210.294922"/>
    </g>
   </g>
   <g id="text_15">
    <!-- FootBin -->
    <g transform="translate(361.832136 110.350445)scale(0.08 -0.08)">
     <defs>
      <path id="DejaVuSans-46" d="M 628 4666 
L 3309 4666 
L 3309 4134 
L 1259 4134 
L 1259 2759 
L 3109 2759 
L 3109 2228 
L 1259 2228 
L 1259 0 
L 628 0 
L 628 4666 
z
" transform="scale(0.015625)"/>
      <path id="DejaVuSans-6f" d="M 1959 3097 
Q 1497 3097 1228 2736 
Q 959 2375 959 1747 
Q 959 1119 1226 758 
Q 1494 397 1959 397 
Q 2419 397 2687 759 
Q 2956 1122 2956 1747 
Q 2956 2369 2687 2733 
Q 2419 3097 1959 3097 
z
M 1959 3584 
Q 2709 3584 3137 3096 
Q 3566 2609 3566 1747 
Q 3566 888 3137 398 
Q 2709 -91 1959 -91 
Q 1206 -91 779 398 
Q 353 888 353 1747 
Q 353 2609 779 3096 
Q 1206 3584 1959 3584 
z
" transform="scale(0.015625)"/>
      <path id="DejaVuSans-74" d="M 1172 4494 
L 1172 3500 
L 2356 3500 
L 2356 3053 
L 1172 3053 
L 1172 1153 
Q 1172 725 1289 603 
Q 1406 481 1766 481 
L 2356 481 
L 2356 0 
L 1766 0 
Q 1100 0 847 248 
Q 594 497 594 1153 
L 594 3053 
L 172 3053 
L 172 3500 
L 594 3500 
L 594 4494 
L 1172 4494 
z
" transform="scale(0.015625)"/>
      <path id="DejaVuSans-42" d="M 1259 2228 
L 1259 519 
L 2272 519 
Q 2781 519 3026 730 
Q 3272 941 3272 1375 
Q 3272 1813 3026 2020 
Q 2781 2228 2272 2228 
L 1259 2228 
z
M 1259 4147 
L 1259 2741 
L 2194 2741 
Q 2656 2741 2882 2914 
Q 3109 3088 3109 3444 
Q 3109 3797 2882 3972 
Q 2656 4147 2194 4147 
L 1259 4147 
z
M 628 4666 
L 2241 4666 
Q 2963 4666 3353 4366 
Q 3744 4066 3744 3513 
Q 3744 3084 3544 2831 
Q 3344 2578 2956 2516 
Q 3422 2416 3680 2098 
Q 3938 1781 3938 1306 
Q 3938 681 3513 340 
Q 3088 0 2303 0 
L 628 0 
L 628 4666 
z
" transform="scale(0.015625)"/>
      <path id="DejaVuSans-6e" d="M 3513 2113 
L 3513 0 
L 2938 0 
L 2938 2094 
Q 2938 2591 2744 2837 
Q 2550 3084 2163 3084 
Q 1697 3084 1428 2787 
Q 1159 2491 1159 1978 
L 1159 0 
L 581 0 
L 581 3500 
L 1159 3500 
L 1159 2956 
Q 1366 3272 1645 3428 
Q 1925 3584 2291 3584 
Q 2894 3584 3203 3211 
Q 3513 2838 3513 2113 
z
" transform="scale(0.015625)"/>
     </defs>
     <use xlink:href="#DejaVuSans-46"/>
     <use xlink:href="#DejaVuSans-6f" x="53.894531"/>
     <use xlink:href="#DejaVuSans-6f" x="115.076172"/>
     <use xlink:href="#DejaVuSans-74" x="176.257812"/>
     <use xlink:href="#DejaVuSans-42" x="215.466797"/>
     <use xlink:href="#DejaVuSans-69" x="284.070312"/>
     <use xlink:href="#DejaVuSans-6e" x="311.853516"/>
    </g>
   </g>
   <g id="text_16">
    <!-- WFL -->
    <g transform="translate(361.832136 53.017062)scale(0.08 -0.08)">
     <defs>
      <path id="DejaVuSans-4c" d="M 628 4666 
L 1259 4666 
L 1259 531 
L 3531 531 
L 3531 0 
L 628 0 
L 628 4666 
z
" transform="scale(0.015625)"/>
     </defs>
     <use xlink:href="#DejaVuSans-57"/>
     <use xlink:href="#DejaVuSans-46" x="98.876953"/>
     <use xlink:href="#DejaVuSans-4c" x="156.396484"/>
    </g>
   </g>
   <g id="text_17">
    <!-- WFR -->
    <g transform="translate(361.832136 56.152481)scale(0.08 -0.08)">
     <defs>
      <path id="DejaVuSans-52" d="M 2841 2188 
Q 3044 2119 3236 1894 
Q 3428 1669 3622 1275 
L 4263 0 
L 3584 0 
L 2988 1197 
Q 2756 1666 2539 1819 
Q 2322 1972 1947 1972 
L 1259 1972 
L 1259 0 
L 628 0 
L 628 4666 
L 2053 4666 
Q 2853 4666 3247 4331 
Q 3641 3997 3641 3322 
Q 3641 2881 3436 2590 
Q 3231 2300 2841 2188 
z
M 1259 4147 
L 1259 2491 
L 2053 2491 
Q 2509 2491 2742 2702 
Q 2975 2913 2975 3322 
Q 2975 3731 2742 3939 
Q 2509 4147 2053 4147 
L 1259 4147 
z
" transform="scale(0.015625)"/>
     </defs>
     <use xlink:href="#DejaVuSans-57"/>
     <use xlink:href="#DejaVuSans-46" x="98.876953"/>
     <use xlink:href="#DejaVuSans-52" x="156.396484"/>
    </g>
   </g>
   <g id="text_18">
    <!-- Main-L -->
    <g transform="translate(361.832136 46.970182)scale(0.08 -0.08)">
     <defs>
      <path id="DejaVuSans-4d" d="M 628 4666 
L 1569 4666 
L 2759 1491 
L 3956 4666 
L 4897 4666 
L 4897 0 
L 4281 0 
L 4281 4097 
L 3078 897 
L 2444 897 
L 1241 4097 
L 1241 0 
L 628 0 
L 628 4666 
z
" transform="scale(0.015625)"/>
      <path id="DejaVuSans-2d" d="M 313 2009 
L 1997 2009 
L 1997 1497 
L 313 1497 
L 313 2009 
z
" transform="scale(0.015625)"/>
     </defs>
     <use xlink:href="#DejaVuSans-4d"/>
     <use xlink:href="#DejaVuSans-61" x="86.279297"/>
     <use xlink:href="#DejaVuSans-69" x="147.558594"/>
     <use xlink:href="#DejaVuSans-6e" x="175.341797"/>
     <use xlink:href="#DejaVuSans-2d" x="238.720703"/>
     <use xlink:href="#DejaVuSans-4c" x="274.804688"/>
    </g>
   </g>
   <g id="text_19">
    <!-- Main-R -->
    <g transform="translate(361.832136 80.563961)scale(0.08 -0.08)">
     <use xlink:href="#DejaVuSans-4d"/>
     <use xlink:href="#DejaVuSans-61" x="86.279297"/>
     <use xlink:href="#DejaVuSans-69" x="147.558594"/>
     <use xlink:href="#DejaVuSans-6e" x="175.341797"/>
     <use xlink:href="#DejaVuSans-2d" x="238.720703"/>
     <use xlink:href="#DejaVuSans-52" x="274.804688"/>
    </g>
   </g>
   <g id="text_20">
    <!-- AFL -->
    <g transform="translate(361.832136 119.084827)scale(0.08 -0.08)">
     <defs>
      <path id="DejaVuSans-41" d="M 2188 4044 
L 1331 1722 
L 3047 1722 
L 2188 4044 
z
M 1831 4666 
L 2547 4666 
L 4325 0 
L 3669 0 
L 3244 1197 
L 1141 1197 
L 716 0 
L 50 0 
L 1831 4666 
z
" transform="scale(0.015625)"/>
     </defs>
     <use xlink:href="#DejaVuSans-41"/>
     <use xlink:href="#DejaVuSans-46" x="68.408203"/>
     <use xlink:href="#DejaVuSans-4c" x="125.927734"/>
    </g>
   </g>
   <g id="text_21">
    <!-- AFR -->
    <g transform="translate(361.832136 86.386882)scale(0.08 -0.08)">
     <use xlink:href="#DejaVuSans-41"/>
     <use xlink:href="#DejaVuSans-46" x="68.408203"/>
     <use xlink:href="#DejaVuSans-52" x="125.927734"/>
    </g>
   </g>
   <g id="text_22">
    <!-- Nonfinal -->
    <g transform="translate(361.832136 83.027505)scale(0.08 -0.08)">
     <defs>
      <path id="DejaVuSans-4e" d="M 628 4666 
L 1478 4666 
L 3547 763 
L 3547 4666 
L 4159 4666 
L 4159 0 
L 3309 0 
L 1241 3903 
L 1241 0 
L 628 0 
L 628 4666 
z
" transform="scale(0.015625)"/>
      <path id="DejaVuSans-66" d="M 2375 4863 
L 2375 4384 
L 1825 4384 
Q 1516 4384 1395 4259 
Q 1275 4134 1275 3809 
L 1275 3500 
L 2222 3500 
L 2222 3053 
L 1275 3053 
L 1275 0 
L 697 0 
L 697 3053 
L 147 3053 
L 147 3500 
L 697 3500 
L 697 3744 
Q 697 4328 969 4595 
Q 1241 4863 1831 4863 
L 2375 4863 
z
" transform="scale(0.015625)"/>
      <path id="DejaVuSans-6c" d="M 603 4863 
L 1178 4863 
L 1178 0 
L 603 0 
L 603 4863 
z
" transform="scale(0.015625)"/>
     </defs>
     <use xlink:href="#DejaVuSans-4e"/>
     <use xlink:href="#DejaVuSans-6f" x="74.804688"/>
     <use xlink:href="#DejaVuSans-6e" x="135.986328"/>
     <use xlink:href="#DejaVuSans-66" x="199.365234"/>
     <use xlink:href="#DejaVuSans-69" x="234.570312"/>
     <use xlink:href="#DejaVuSans-6e" x="262.353516"/>
     <use xlink:href="#DejaVuSans-61" x="325.732422"/>
     <use xlink:href="#DejaVuSans-6c" x="387.011719"/>
    </g>
   </g>
   <g id="text_23">
    <!-- Trochaic -->
    <g transform="translate(361.832136 74.741039)scale(0.08 -0.08)">
     <defs>
      <path id="DejaVuSans-54" d="M -19 4666 
L 3928 4666 
L 3928 4134 
L 2272 4134 
L 2272 0 
L 1638 0 
L 1638 4134 
L -19 4134 
L -19 4666 
z
" transform="scale(0.015625)"/>
      <path id="DejaVuSans-68" d="M 3513 2113 
L 3513 0 
L 2938 0 
L 2938 2094 
Q 2938 2591 2744 2837 
Q 2550 3084 2163 3084 
Q 1697 3084 1428 2787 
Q 1159 2491 1159 1978 
L 1159 0 
L 581 0 
L 581 4863 
L 1159 4863 
L 1159 2956 
Q 1366 3272 1645 3428 
Q 1925 3584 2291 3584 
Q 2894 3584 3203 3211 
Q 3513 2838 3513 2113 
z
" transform="scale(0.015625)"/>
     </defs>
     <use xlink:href="#DejaVuSans-54"/>
     <use xlink:href="#DejaVuSans-72" x="46.333984"/>
     <use xlink:href="#DejaVuSans-6f" x="85.197266"/>
     <use xlink:href="#DejaVuSans-63" x="146.378906"/>
     <use xlink:href="#DejaVuSans-68" x="201.359375"/>
     <use xlink:href="#DejaVuSans-61" x="264.738281"/>
     <use xlink:href="#DejaVuSans-69" x="326.017578"/>
     <use xlink:href="#DejaVuSans-63" x="353.800781"/>
    </g>
   </g>
  </g>
  <g id="axes_2">
   <g id="patch_7">
    <path d="M 57.6 307.584 
L 414.72 307.584 
L 414.72 186.624 
L 57.6 186.624 
z
" style="fill: #ffffff"/>
   </g>
   <g id="matplotlib.axis_3">
    <g id="xtick_8">
     <g id="line2d_24">
      <g>
       <use xlink:href="#me8c42d78ae" x="71.562416" y="307.584" style="stroke: #000000; stroke-width: 0.8"/>
      </g>
     </g>
     <g id="text_24">
      <!-- 0 -->
      <g transform="translate(68.381166 322.182437)scale(0.1 -0.1)">
       <use xlink:href="#DejaVuSans-30"/>
      </g>
     </g>
    </g>
    <g id="xtick_9">
     <g id="line2d_25">
      <g>
       <use xlink:href="#me8c42d78ae" x="116.968646" y="307.584" style="stroke: #000000; stroke-width: 0.8"/>
      </g>
     </g>
     <g id="text_25">
      <!-- 20 -->
      <g transform="translate(110.606146 322.182437)scale(0.1 -0.1)">
       <use xlink:href="#DejaVuSans-32"/>
       <use xlink:href="#DejaVuSans-30" x="63.623047"/>
      </g>
     </g>
    </g>
    <g id="xtick_10">
     <g id="line2d_26">
      <g>
       <use xlink:href="#me8c42d78ae" x="162.374876" y="307.584" style="stroke: #000000; stroke-width: 0.8"/>
      </g>
     </g>
     <g id="text_26">
      <!-- 40 -->
      <g transform="translate(156.012376 322.182437)scale(0.1 -0.1)">
       <use xlink:href="#DejaVuSans-34"/>
       <use xlink:href="#DejaVuSans-30" x="63.623047"/>
      </g>
     </g>
    </g>
    <g id="xtick_11">
     <g id="line2d_27">
      <g>
       <use xlink:href="#me8c42d78ae" x="207.781106" y="307.584" style="stroke: #000000; stroke-width: 0.8"/>
      </g>
     </g>
     <g id="text_27">
      <!-- 60 -->
      <g transform="translate(201.418606 322.182437)scale(0.1 -0.1)">
       <use xlink:href="#DejaVuSans-36"/>
       <use xlink:href="#DejaVuSans-30" x="63.623047"/>
      </g>
     </g>
    </g>
    <g id="xtick_12">
     <g id="line2d_28">
      <g>
       <use xlink:href="#me8c42d78ae" x="253.187336" y="307.584" style="stroke: #000000; stroke-width: 0.8"/>
      </g>
     </g>
     <g id="text_28">
      <!-- 80 -->
      <g transform="translate(246.824836 322.182437)scale(0.1 -0.1)">
       <use xlink:href="#DejaVuSans-38"/>
       <use xlink:href="#DejaVuSans-30" x="63.623047"/>
      </g>
     </g>
    </g>
    <g id="xtick_13">
     <g id="line2d_29">
      <g>
       <use xlink:href="#me8c42d78ae" x="298.593566" y="307.584" style="stroke: #000000; stroke-width: 0.8"/>
      </g>
     </g>
     <g id="text_29">
      <!-- 100 -->
      <g transform="translate(289.049816 322.182437)scale(0.1 -0.1)">
       <use xlink:href="#DejaVuSans-31"/>
       <use xlink:href="#DejaVuSans-30" x="63.623047"/>
       <use xlink:href="#DejaVuSans-30" x="127.246094"/>
      </g>
     </g>
    </g>
    <g id="xtick_14">
     <g id="line2d_30">
      <g>
       <use xlink:href="#me8c42d78ae" x="343.999797" y="307.584" style="stroke: #000000; stroke-width: 0.8"/>
      </g>
     </g>
     <g id="text_30">
      <!-- 120 -->
      <g transform="translate(334.456047 322.182437)scale(0.1 -0.1)">
       <use xlink:href="#DejaVuSans-31"/>
       <use xlink:href="#DejaVuSans-32" x="63.623047"/>
       <use xlink:href="#DejaVuSans-30" x="127.246094"/>
      </g>
     </g>
    </g>
    <g id="xtick_15">
     <g id="line2d_31">
      <g>
       <use xlink:href="#me8c42d78ae" x="389.406027" y="307.584" style="stroke: #000000; stroke-width: 0.8"/>
      </g>
     </g>
     <g id="text_31">
      <!-- 140 -->
      <g transform="translate(379.862277 322.182437)scale(0.1 -0.1)">
       <use xlink:href="#DejaVuSans-31"/>
       <use xlink:href="#DejaVuSans-34" x="63.623047"/>
       <use xlink:href="#DejaVuSans-30" x="127.246094"/>
      </g>
     </g>
    </g>
   </g>
   <g id="matplotlib.axis_4">
    <g id="ytick_5">
     <g id="line2d_32">
      <g>
       <use xlink:href="#m09c0050ab3" x="57.6" y="302.096293" style="stroke: #000000; stroke-width: 0.8"/>
      </g>
     </g>
     <g id="text_32">
      <!-- 0 -->
      <g transform="translate(44.2375 305.895512)scale(0.1 -0.1)">
       <use xlink:href="#DejaVuSans-30"/>
      </g>
     </g>
    </g>
    <g id="ytick_6">
     <g id="line2d_33">
      <g>
       <use xlink:href="#m09c0050ab3" x="57.6" y="281.146848" style="stroke: #000000; stroke-width: 0.8"/>
      </g>
     </g>
     <g id="text_33">
      <!-- 2000 -->
      <g transform="translate(25.15 284.946067)scale(0.1 -0.1)">
       <use xlink:href="#DejaVuSans-32"/>
       <use xlink:href="#DejaVuSans-30" x="63.623047"/>
       <use xlink:href="#DejaVuSans-30" x="127.246094"/>
       <use xlink:href="#DejaVuSans-30" x="190.869141"/>
      </g>
     </g>
    </g>
    <g id="ytick_7">
     <g id="line2d_34">
      <g>
       <use xlink:href="#m09c0050ab3" x="57.6" y="260.197403" style="stroke: #000000; stroke-width: 0.8"/>
      </g>
     </g>
     <g id="text_34">
      <!-- 4000 -->
      <g transform="translate(25.15 263.996622)scale(0.1 -0.1)">
       <use xlink:href="#DejaVuSans-34"/>
       <use xlink:href="#DejaVuSans-30" x="63.623047"/>
       <use xlink:href="#DejaVuSans-30" x="127.246094"/>
       <use xlink:href="#DejaVuSans-30" x="190.869141"/>
      </g>
     </g>
    </g>
    <g id="ytick_8">
     <g id="line2d_35">
      <g>
       <use xlink:href="#m09c0050ab3" x="57.6" y="239.247958" style="stroke: #000000; stroke-width: 0.8"/>
      </g>
     </g>
     <g id="text_35">
      <!-- 6000 -->
      <g transform="translate(25.15 243.047177)scale(0.1 -0.1)">
       <use xlink:href="#DejaVuSans-36"/>
       <use xlink:href="#DejaVuSans-30" x="63.623047"/>
       <use xlink:href="#DejaVuSans-30" x="127.246094"/>
       <use xlink:href="#DejaVuSans-30" x="190.869141"/>
      </g>
     </g>
    </g>
    <g id="ytick_9">
     <g id="line2d_36">
      <g>
       <use xlink:href="#m09c0050ab3" x="57.6" y="218.298513" style="stroke: #000000; stroke-width: 0.8"/>
      </g>
     </g>
     <g id="text_36">
      <!-- 8000 -->
      <g transform="translate(25.15 222.097732)scale(0.1 -0.1)">
       <use xlink:href="#DejaVuSans-38"/>
       <use xlink:href="#DejaVuSans-30" x="63.623047"/>
       <use xlink:href="#DejaVuSans-30" x="127.246094"/>
       <use xlink:href="#DejaVuSans-30" x="190.869141"/>
      </g>
     </g>
    </g>
    <g id="ytick_10">
     <g id="line2d_37">
      <g>
       <use xlink:href="#m09c0050ab3" x="57.6" y="197.349068" style="stroke: #000000; stroke-width: 0.8"/>
      </g>
     </g>
     <g id="text_37">
      <!-- 10000 -->
      <g transform="translate(18.7875 201.148287)scale(0.1 -0.1)">
       <use xlink:href="#DejaVuSans-31"/>
       <use xlink:href="#DejaVuSans-30" x="63.623047"/>
       <use xlink:href="#DejaVuSans-30" x="127.246094"/>
       <use xlink:href="#DejaVuSans-30" x="190.869141"/>
       <use xlink:href="#DejaVuSans-30" x="254.492188"/>
      </g>
     </g>
    </g>
   </g>
   <g id="line2d_38">
    <path d="M 73.832727 302.085818 
L 223.673287 302.064869 
L 225.943598 301.970596 
L 228.21391 302.085818 
L 230.484221 301.897273 
L 232.754533 302.085818 
L 237.295156 302.043919 
L 239.565467 301.509708 
L 241.835779 302.075343 
L 246.376402 301.425911 
L 248.646713 302.085818 
L 253.187336 301.698253 
L 255.457648 301.562082 
L 259.998271 301.729678 
L 262.268582 301.415436 
L 264.538894 300.849801 
L 266.809205 301.8449 
L 269.079517 300.933599 
L 271.349828 300.179419 
L 273.62014 301.457335 
L 275.890451 300.49366 
L 278.160763 301.331638 
L 280.431074 301.771577 
L 282.701386 300.158469 
L 284.971697 300.933599 
L 287.242009 290.155109 
L 289.51232 299.351916 
L 291.782632 302.054394 
L 294.052943 301.143093 
L 296.323255 301.771577 
L 298.593566 284.07977 
L 300.863878 300.221318 
L 303.134189 298.482514 
L 305.404501 295.465794 
L 307.674812 299.708056 
L 309.945124 297.372193 
L 312.215435 292.124357 
L 314.485747 246.52789 
L 316.756058 298.094949 
L 319.02637 286.038543 
L 321.296682 301.059295 
L 323.566993 300.975498 
L 325.837305 299.299542 
L 328.107616 301.918223 
L 330.377928 282.896127 
L 332.648239 300.724104 
L 334.918551 299.833753 
L 337.188862 301.46781 
L 339.459174 301.939172 
L 341.729485 287.923993 
L 343.999797 297.759758 
L 346.270108 296.733235 
L 348.54042 297.309345 
L 350.810731 296.932255 
L 353.081043 245.752761 
L 355.351354 298.283494 
L 357.621666 276.852212 
L 359.891977 292.354801 
L 362.162289 293.171829 
L 364.4326 274.809641 
L 366.702912 252.488007 
L 368.973223 302.012495 
L 371.243535 300.231792 
L 373.513846 300.168944 
L 375.784158 296.010479 
L 378.054469 288.018266 
L 380.324781 287.913519 
L 382.595092 240.986762 
L 384.865404 282.246694 
L 387.135715 192.122182 
L 389.406027 289.243808 
L 391.676338 299.9385 
L 393.94665 300.797427 
L 396.216961 300.797427 
L 398.487273 301.373537 
L 398.487273 301.373537 
" clip-path="url(#pa5803841e1)" style="fill: none; stroke: #1f77b4; stroke-width: 1.5; stroke-linecap: square"/>
   </g>
   <g id="patch_8">
    <path d="M 57.6 307.584 
L 57.6 186.624 
" style="fill: none; stroke: #000000; stroke-width: 0.8; stroke-linejoin: miter; stroke-linecap: square"/>
   </g>
   <g id="patch_9">
    <path d="M 414.72 307.584 
L 414.72 186.624 
" style="fill: none; stroke: #000000; stroke-width: 0.8; stroke-linejoin: miter; stroke-linecap: square"/>
   </g>
   <g id="patch_10">
    <path d="M 57.6 307.584 
L 414.72 307.584 
" style="fill: none; stroke: #000000; stroke-width: 0.8; stroke-linejoin: miter; stroke-linecap: square"/>
   </g>
   <g id="patch_11">
    <path d="M 57.6 186.624 
L 414.72 186.624 
" style="fill: none; stroke: #000000; stroke-width: 0.8; stroke-linejoin: miter; stroke-linecap: square"/>
   </g>
  </g>
 </g>
 <defs>
  <clipPath id="p3d12db405b">
   <rect x="57.6" y="41.472" width="357.12" height="120.96"/>
  </clipPath>
  <clipPath id="pa5803841e1">
   <rect x="57.6" y="186.624" width="357.12" height="120.96"/>
  </clipPath>
 </defs>
</svg>
