<?xml version="1.0" encoding="utf-8" standalone="no"?>
<!DOCTYPE svg PUBLIC "-//W3C//DTD SVG 1.1//EN"
  "http://www.w3.org/Graphics/SVG/1.1/DTD/svg11.dtd">
<svg xmlns:xlink="http://www.w3.org/1999/xlink" width="460.8pt" height="345.6pt" viewBox="0 0 460.8 345.6" xmlns="http://www.w3.org/2000/svg" version="1.1">
 <metadata>
  <rdf:RDF xmlns:dc="http://purl.org/dc/elements/1.1/" xmlns:cc="http://creativecommons.org/ns#" xmlns:rdf="http://www.w3.org/1999/02/22-rdf-syntax-ns#">
   <cc:Work>
    <dc:type rdf:resource="http://purl.org/dc/dcmitype/StillImage"/>
    <dc:date>2022-05-13T12:14:38.244550</dc:date>
    <dc:format>image/svg+xml</dc:format>
    <dc:creator>
     <cc:Agent>
      <dc:title>Matplotlib v3.5.1, https://matplotlib.org/</dc:title>
     </cc:Agent>
    </dc:creator>
   </cc:Work>
  </rdf:RDF>
 </metadata>
 <defs>
  <style type="text/css">*{stroke-linejoin: round; stroke-linecap: butt}</style>
 </defs>
 <g id="figure_1">
  <g id="patch_1">
   <path d="M 0 345.6 
L 460.8 345.6 
L 460.8 0 
L 0 0 
z
" style="fill: #ffffff"/>
  </g>
  <g id="axes_1">
   <g id="patch_2">
    <path d="M 57.6 162.432 
L 414.72 162.432 
L 414.72 41.472 
L 57.6 41.472 
z
" style="fill: #ffffff"/>
   </g>
   <g id="matplotlib.axis_1">
    <g id="xtick_1">
     <g id="line2d_1">
      <defs>
       <path id="mb1dbec6cd2" d="M 0 0 
L 0 3.5 
" style="stroke: #000000; stroke-width: 0.8"/>
      </defs>
      <g>
       <use xlink:href="#mb1dbec6cd2" x="73.827491" y="162.432" style="stroke: #000000; stroke-width: 0.8"/>
      </g>
     </g>
     <g id="text_1">
      <!-- 0 -->
      <g transform="translate(70.646241 177.030437)scale(0.1 -0.1)">
       <defs>
        <path id="DejaVuSans-30" d="M 2034 4250 
Q 1547 4250 1301 3770 
Q 1056 3291 1056 2328 
Q 1056 1369 1301 889 
Q 1547 409 2034 409 
Q 2525 409 2770 889 
Q 3016 1369 3016 2328 
Q 3016 3291 2770 3770 
Q 2525 4250 2034 4250 
z
M 2034 4750 
Q 2819 4750 3233 4129 
Q 3647 3509 3647 2328 
Q 3647 1150 3233 529 
Q 2819 -91 2034 -91 
Q 1250 -91 836 529 
Q 422 1150 422 2328 
Q 422 3509 836 4129 
Q 1250 4750 2034 4750 
z
" transform="scale(0.015625)"/>
       </defs>
       <use xlink:href="#DejaVuSans-30"/>
      </g>
     </g>
    </g>
    <g id="xtick_2">
     <g id="line2d_2">
      <g>
       <use xlink:href="#mb1dbec6cd2" x="126.191972" y="162.432" style="stroke: #000000; stroke-width: 0.8"/>
      </g>
     </g>
     <g id="text_2">
      <!-- 10000 -->
      <g transform="translate(110.285722 177.030437)scale(0.1 -0.1)">
       <defs>
        <path id="DejaVuSans-31" d="M 794 531 
L 1825 531 
L 1825 4091 
L 703 3866 
L 703 4441 
L 1819 4666 
L 2450 4666 
L 2450 531 
L 3481 531 
L 3481 0 
L 794 0 
L 794 531 
z
" transform="scale(0.015625)"/>
       </defs>
       <use xlink:href="#DejaVuSans-31"/>
       <use xlink:href="#DejaVuSans-30" x="63.623047"/>
       <use xlink:href="#DejaVuSans-30" x="127.246094"/>
       <use xlink:href="#DejaVuSans-30" x="190.869141"/>
       <use xlink:href="#DejaVuSans-30" x="254.492188"/>
      </g>
     </g>
    </g>
    <g id="xtick_3">
     <g id="line2d_3">
      <g>
       <use xlink:href="#mb1dbec6cd2" x="178.556453" y="162.432" style="stroke: #000000; stroke-width: 0.8"/>
      </g>
     </g>
     <g id="text_3">
      <!-- 20000 -->
      <g transform="translate(162.650203 177.030437)scale(0.1 -0.1)">
       <defs>
        <path id="DejaVuSans-32" d="M 1228 531 
L 3431 531 
L 3431 0 
L 469 0 
L 469 531 
Q 828 903 1448 1529 
Q 2069 2156 2228 2338 
Q 2531 2678 2651 2914 
Q 2772 3150 2772 3378 
Q 2772 3750 2511 3984 
Q 2250 4219 1831 4219 
Q 1534 4219 1204 4116 
Q 875 4013 500 3803 
L 500 4441 
Q 881 4594 1212 4672 
Q 1544 4750 1819 4750 
Q 2544 4750 2975 4387 
Q 3406 4025 3406 3419 
Q 3406 3131 3298 2873 
Q 3191 2616 2906 2266 
Q 2828 2175 2409 1742 
Q 1991 1309 1228 531 
z
" transform="scale(0.015625)"/>
       </defs>
       <use xlink:href="#DejaVuSans-32"/>
       <use xlink:href="#DejaVuSans-30" x="63.623047"/>
       <use xlink:href="#DejaVuSans-30" x="127.246094"/>
       <use xlink:href="#DejaVuSans-30" x="190.869141"/>
       <use xlink:href="#DejaVuSans-30" x="254.492188"/>
      </g>
     </g>
    </g>
    <g id="xtick_4">
     <g id="line2d_4">
      <g>
       <use xlink:href="#mb1dbec6cd2" x="230.920934" y="162.432" style="stroke: #000000; stroke-width: 0.8"/>
      </g>
     </g>
     <g id="text_4">
      <!-- 30000 -->
      <g transform="translate(215.014684 177.030437)scale(0.1 -0.1)">
       <defs>
        <path id="DejaVuSans-33" d="M 2597 2516 
Q 3050 2419 3304 2112 
Q 3559 1806 3559 1356 
Q 3559 666 3084 287 
Q 2609 -91 1734 -91 
Q 1441 -91 1130 -33 
Q 819 25 488 141 
L 488 750 
Q 750 597 1062 519 
Q 1375 441 1716 441 
Q 2309 441 2620 675 
Q 2931 909 2931 1356 
Q 2931 1769 2642 2001 
Q 2353 2234 1838 2234 
L 1294 2234 
L 1294 2753 
L 1863 2753 
Q 2328 2753 2575 2939 
Q 2822 3125 2822 3475 
Q 2822 3834 2567 4026 
Q 2313 4219 1838 4219 
Q 1578 4219 1281 4162 
Q 984 4106 628 3988 
L 628 4550 
Q 988 4650 1302 4700 
Q 1616 4750 1894 4750 
Q 2613 4750 3031 4423 
Q 3450 4097 3450 3541 
Q 3450 3153 3228 2886 
Q 3006 2619 2597 2516 
z
" transform="scale(0.015625)"/>
       </defs>
       <use xlink:href="#DejaVuSans-33"/>
       <use xlink:href="#DejaVuSans-30" x="63.623047"/>
       <use xlink:href="#DejaVuSans-30" x="127.246094"/>
       <use xlink:href="#DejaVuSans-30" x="190.869141"/>
       <use xlink:href="#DejaVuSans-30" x="254.492188"/>
      </g>
     </g>
    </g>
    <g id="xtick_5">
     <g id="line2d_5">
      <g>
       <use xlink:href="#mb1dbec6cd2" x="283.285415" y="162.432" style="stroke: #000000; stroke-width: 0.8"/>
      </g>
     </g>
     <g id="text_5">
      <!-- 40000 -->
      <g transform="translate(267.379165 177.030437)scale(0.1 -0.1)">
       <defs>
        <path id="DejaVuSans-34" d="M 2419 4116 
L 825 1625 
L 2419 1625 
L 2419 4116 
z
M 2253 4666 
L 3047 4666 
L 3047 1625 
L 3713 1625 
L 3713 1100 
L 3047 1100 
L 3047 0 
L 2419 0 
L 2419 1100 
L 313 1100 
L 313 1709 
L 2253 4666 
z
" transform="scale(0.015625)"/>
       </defs>
       <use xlink:href="#DejaVuSans-34"/>
       <use xlink:href="#DejaVuSans-30" x="63.623047"/>
       <use xlink:href="#DejaVuSans-30" x="127.246094"/>
       <use xlink:href="#DejaVuSans-30" x="190.869141"/>
       <use xlink:href="#DejaVuSans-30" x="254.492188"/>
      </g>
     </g>
    </g>
    <g id="xtick_6">
     <g id="line2d_6">
      <g>
       <use xlink:href="#mb1dbec6cd2" x="335.649896" y="162.432" style="stroke: #000000; stroke-width: 0.8"/>
      </g>
     </g>
     <g id="text_6">
      <!-- 50000 -->
      <g transform="translate(319.743646 177.030437)scale(0.1 -0.1)">
       <defs>
        <path id="DejaVuSans-35" d="M 691 4666 
L 3169 4666 
L 3169 4134 
L 1269 4134 
L 1269 2991 
Q 1406 3038 1543 3061 
Q 1681 3084 1819 3084 
Q 2600 3084 3056 2656 
Q 3513 2228 3513 1497 
Q 3513 744 3044 326 
Q 2575 -91 1722 -91 
Q 1428 -91 1123 -41 
Q 819 9 494 109 
L 494 744 
Q 775 591 1075 516 
Q 1375 441 1709 441 
Q 2250 441 2565 725 
Q 2881 1009 2881 1497 
Q 2881 1984 2565 2268 
Q 2250 2553 1709 2553 
Q 1456 2553 1204 2497 
Q 953 2441 691 2322 
L 691 4666 
z
" transform="scale(0.015625)"/>
       </defs>
       <use xlink:href="#DejaVuSans-35"/>
       <use xlink:href="#DejaVuSans-30" x="63.623047"/>
       <use xlink:href="#DejaVuSans-30" x="127.246094"/>
       <use xlink:href="#DejaVuSans-30" x="190.869141"/>
       <use xlink:href="#DejaVuSans-30" x="254.492188"/>
      </g>
     </g>
    </g>
    <g id="xtick_7">
     <g id="line2d_7">
      <g>
       <use xlink:href="#mb1dbec6cd2" x="388.014377" y="162.432" style="stroke: #000000; stroke-width: 0.8"/>
      </g>
     </g>
     <g id="text_7">
      <!-- 60000 -->
      <g transform="translate(372.108127 177.030437)scale(0.1 -0.1)">
       <defs>
        <path id="DejaVuSans-36" d="M 2113 2584 
Q 1688 2584 1439 2293 
Q 1191 2003 1191 1497 
Q 1191 994 1439 701 
Q 1688 409 2113 409 
Q 2538 409 2786 701 
Q 3034 994 3034 1497 
Q 3034 2003 2786 2293 
Q 2538 2584 2113 2584 
z
M 3366 4563 
L 3366 3988 
Q 3128 4100 2886 4159 
Q 2644 4219 2406 4219 
Q 1781 4219 1451 3797 
Q 1122 3375 1075 2522 
Q 1259 2794 1537 2939 
Q 1816 3084 2150 3084 
Q 2853 3084 3261 2657 
Q 3669 2231 3669 1497 
Q 3669 778 3244 343 
Q 2819 -91 2113 -91 
Q 1303 -91 875 529 
Q 447 1150 447 2328 
Q 447 3434 972 4092 
Q 1497 4750 2381 4750 
Q 2619 4750 2861 4703 
Q 3103 4656 3366 4563 
z
" transform="scale(0.015625)"/>
       </defs>
       <use xlink:href="#DejaVuSans-36"/>
       <use xlink:href="#DejaVuSans-30" x="63.623047"/>
       <use xlink:href="#DejaVuSans-30" x="127.246094"/>
       <use xlink:href="#DejaVuSans-30" x="190.869141"/>
       <use xlink:href="#DejaVuSans-30" x="254.492188"/>
      </g>
     </g>
    </g>
   </g>
   <g id="matplotlib.axis_2">
    <g id="ytick_1">
     <g id="line2d_8">
      <defs>
       <path id="m46a28ffdb3" d="M 0 0 
L -3.5 0 
" style="stroke: #000000; stroke-width: 0.8"/>
      </defs>
      <g>
       <use xlink:href="#m46a28ffdb3" x="57.6" y="155.261367" style="stroke: #000000; stroke-width: 0.8"/>
      </g>
     </g>
     <g id="text_8">
      <!-- 60 -->
      <g transform="translate(37.875 159.060586)scale(0.1 -0.1)">
       <use xlink:href="#DejaVuSans-36"/>
       <use xlink:href="#DejaVuSans-30" x="63.623047"/>
      </g>
     </g>
    </g>
    <g id="ytick_2">
     <g id="line2d_9">
      <g>
       <use xlink:href="#m46a28ffdb3" x="57.6" y="130.174606" style="stroke: #000000; stroke-width: 0.8"/>
      </g>
     </g>
     <g id="text_9">
      <!-- 70 -->
      <g transform="translate(37.875 133.973825)scale(0.1 -0.1)">
       <defs>
        <path id="DejaVuSans-37" d="M 525 4666 
L 3525 4666 
L 3525 4397 
L 1831 0 
L 1172 0 
L 2766 4134 
L 525 4134 
L 525 4666 
z
" transform="scale(0.015625)"/>
       </defs>
       <use xlink:href="#DejaVuSans-37"/>
       <use xlink:href="#DejaVuSans-30" x="63.623047"/>
      </g>
     </g>
    </g>
    <g id="ytick_3">
     <g id="line2d_10">
      <g>
       <use xlink:href="#m46a28ffdb3" x="57.6" y="105.087845" style="stroke: #000000; stroke-width: 0.8"/>
      </g>
     </g>
     <g id="text_10">
      <!-- 80 -->
      <g transform="translate(37.875 108.887064)scale(0.1 -0.1)">
       <defs>
        <path id="DejaVuSans-38" d="M 2034 2216 
Q 1584 2216 1326 1975 
Q 1069 1734 1069 1313 
Q 1069 891 1326 650 
Q 1584 409 2034 409 
Q 2484 409 2743 651 
Q 3003 894 3003 1313 
Q 3003 1734 2745 1975 
Q 2488 2216 2034 2216 
z
M 1403 2484 
Q 997 2584 770 2862 
Q 544 3141 544 3541 
Q 544 4100 942 4425 
Q 1341 4750 2034 4750 
Q 2731 4750 3128 4425 
Q 3525 4100 3525 3541 
Q 3525 3141 3298 2862 
Q 3072 2584 2669 2484 
Q 3125 2378 3379 2068 
Q 3634 1759 3634 1313 
Q 3634 634 3220 271 
Q 2806 -91 2034 -91 
Q 1263 -91 848 271 
Q 434 634 434 1313 
Q 434 1759 690 2068 
Q 947 2378 1403 2484 
z
M 1172 3481 
Q 1172 3119 1398 2916 
Q 1625 2713 2034 2713 
Q 2441 2713 2670 2916 
Q 2900 3119 2900 3481 
Q 2900 3844 2670 4047 
Q 2441 4250 2034 4250 
Q 1625 4250 1398 4047 
Q 1172 3844 1172 3481 
z
" transform="scale(0.015625)"/>
       </defs>
       <use xlink:href="#DejaVuSans-38"/>
       <use xlink:href="#DejaVuSans-30" x="63.623047"/>
      </g>
     </g>
    </g>
    <g id="ytick_4">
     <g id="line2d_11">
      <g>
       <use xlink:href="#m46a28ffdb3" x="57.6" y="80.001084" style="stroke: #000000; stroke-width: 0.8"/>
      </g>
     </g>
     <g id="text_11">
      <!-- 90 -->
      <g transform="translate(37.875 83.800303)scale(0.1 -0.1)">
       <defs>
        <path id="DejaVuSans-39" d="M 703 97 
L 703 672 
Q 941 559 1184 500 
Q 1428 441 1663 441 
Q 2288 441 2617 861 
Q 2947 1281 2994 2138 
Q 2813 1869 2534 1725 
Q 2256 1581 1919 1581 
Q 1219 1581 811 2004 
Q 403 2428 403 3163 
Q 403 3881 828 4315 
Q 1253 4750 1959 4750 
Q 2769 4750 3195 4129 
Q 3622 3509 3622 2328 
Q 3622 1225 3098 567 
Q 2575 -91 1691 -91 
Q 1453 -91 1209 -44 
Q 966 3 703 97 
z
M 1959 2075 
Q 2384 2075 2632 2365 
Q 2881 2656 2881 3163 
Q 2881 3666 2632 3958 
Q 2384 4250 1959 4250 
Q 1534 4250 1286 3958 
Q 1038 3666 1038 3163 
Q 1038 2656 1286 2365 
Q 1534 2075 1959 2075 
z
" transform="scale(0.015625)"/>
       </defs>
       <use xlink:href="#DejaVuSans-39"/>
       <use xlink:href="#DejaVuSans-30" x="63.623047"/>
      </g>
     </g>
    </g>
    <g id="ytick_5">
     <g id="line2d_12">
      <g>
       <use xlink:href="#m46a28ffdb3" x="57.6" y="54.914323" style="stroke: #000000; stroke-width: 0.8"/>
      </g>
     </g>
     <g id="text_12">
      <!-- 100 -->
      <g transform="translate(31.5125 58.713542)scale(0.1 -0.1)">
       <use xlink:href="#DejaVuSans-31"/>
       <use xlink:href="#DejaVuSans-30" x="63.623047"/>
       <use xlink:href="#DejaVuSans-30" x="127.246094"/>
      </g>
     </g>
    </g>
   </g>
   <g id="line2d_13">
    <path d="M 73.832727 57.422999 
L 73.968875 70.802605 
L 73.995057 69.548267 
L 74.016003 74.565619 
L 74.063131 74.565619 
L 74.073604 74.565619 
L 74.16786 81.464478 
L 74.194042 80.837309 
L 74.204515 80.001084 
L 74.209752 82.50976 
L 74.283062 82.50976 
L 74.356372 90.035788 
L 74.4035 88.78145 
L 74.440155 88.78145 
L 74.56583 97.979929 
L 74.859071 97.979929 
L 74.974273 100.488606 
L 75.27275 100.488606 
L 75.387952 98.398042 
L 75.503154 100.906718 
L 75.796395 100.906718 
L 75.916834 105.924071 
L 76.686591 105.924071 
L 76.80703 110.941423 
L 76.875104 110.941423 
L 76.937941 109.687085 
L 76.943177 112.195761 
L 76.979833 112.195761 
L 77.257364 112.195761 
L 77.372566 114.704437 
L 77.503477 114.704437 
L 77.618679 117.213113 
L 79.692313 117.213113 
L 79.812751 122.230465 
L 80.121701 122.230465 
L 80.236903 120.976127 
L 81.650744 120.976127 
L 81.755473 119.721789 
L 81.870675 122.230465 
L 81.933512 122.230465 
L 82.048714 121.39424 
L 82.059187 121.39424 
L 82.174389 123.902916 
L 84.562209 123.902916 
L 84.677411 123.066691 
L 85.855612 123.066691 
L 85.970814 125.575367 
L 86.923848 125.575367 
L 87.002394 128.084043 
L 87.033813 127.247817 
L 87.756443 127.247817 
L 87.871645 129.756494 
L 89.678219 129.756494 
L 89.793421 128.502156 
L 90.180918 128.502156 
L 90.29612 131.010832 
L 90.474159 131.010832 
L 90.589361 130.174606 
L 91.050169 130.174606 
L 91.16537 132.683282 
L 91.348646 132.683282 
L 91.463848 135.191959 
L 93.830723 135.191959 
L 93.945924 137.700635 
L 101.434045 137.700635 
L 101.549247 136.446297 
L 105.434692 136.446297 
L 105.549893 138.954973 
L 110.126549 138.954973 
L 110.241751 138.118747 
L 110.849179 138.118747 
L 110.964381 140.627423 
L 112.022143 140.627423 
L 112.137345 139.791198 
L 112.236838 139.791198 
L 112.352039 142.299874 
L 115.342051 142.299874 
L 115.457253 144.80855 
L 119.13324 144.80855 
L 119.248442 143.972325 
L 119.787796 143.972325 
L 119.902998 142.717987 
L 121.248765 142.717987 
L 121.363967 141.463649 
L 127.061222 141.463649 
L 127.176424 140.209311 
L 129.155801 140.209311 
L 129.271003 138.954973 
L 133.601546 138.954973 
L 133.716748 141.463649 
L 133.97857 141.463649 
L 134.093772 143.972325 
L 143.084753 143.972325 
L 143.131881 146.481001 
L 143.194719 145.226663 
L 146.813104 145.226663 
L 146.928306 144.390438 
L 155.605101 144.390438 
L 155.720303 143.554212 
L 157.30171 143.554212 
L 157.416912 146.062888 
L 171.136406 146.062888 
L 171.251608 148.571564 
L 175.587387 148.571564 
L 175.702589 147.735339 
L 178.367941 147.735339 
L 178.483142 146.899114 
L 178.87064 146.899114 
L 178.985841 149.40779 
L 181.509809 149.40779 
L 181.625011 151.916466 
L 315.918959 151.916466 
L 316.034161 154.425142 
L 391.313339 154.425142 
L 391.428541 156.933818 
L 398.487273 156.933818 
L 398.487273 156.933818 
" clip-path="url(#pa4d1476490)" style="fill: none; stroke: #1f77b4; stroke-width: 1.5; stroke-linecap: square"/>
   </g>
   <g id="line2d_14">
    <path d="M 73.832727 54.914323 
L 73.974111 69.96638 
L 74.057895 69.96638 
L 74.178333 74.983732 
L 74.188806 74.983732 
L 74.319717 85.018436 
L 74.356372 85.018436 
L 74.461101 83.764098 
L 74.586776 91.290127 
L 74.859071 91.290127 
L 74.974273 93.798803 
L 75.188967 93.798803 
L 75.309406 98.816155 
L 75.796395 98.816155 
L 75.916834 103.833507 
L 76.686591 103.833507 
L 76.80703 108.850859 
L 76.875104 108.850859 
L 76.937941 107.596521 
L 76.943177 110.105197 
L 76.979833 110.105197 
L 77.257364 110.105197 
L 77.372566 112.613873 
L 77.503477 112.613873 
L 77.618679 115.12255 
L 79.692313 115.12255 
L 79.807515 117.631226 
L 85.855612 117.631226 
L 85.970814 120.139902 
L 86.923848 120.139902 
L 87.039049 122.648578 
L 90.180918 122.648578 
L 90.29612 125.157254 
L 93.830723 125.157254 
L 93.945924 127.66593 
L 110.849179 127.66593 
L 110.964381 130.174606 
L 115.342051 130.174606 
L 115.457253 132.683282 
L 121.248765 132.683282 
L 121.363967 131.428944 
L 133.601546 131.428944 
L 133.716748 133.93762 
L 133.97857 133.93762 
L 134.093772 136.446297 
L 143.084753 136.446297 
L 143.131881 138.954973 
L 143.194719 137.700635 
L 156.369622 137.700635 
L 156.484824 140.209311 
L 157.30171 140.209311 
L 157.416912 142.717987 
L 171.136406 142.717987 
L 171.251608 145.226663 
L 315.918959 145.226663 
L 316.034161 147.735339 
L 398.487273 147.735339 
L 398.487273 147.735339 
" clip-path="url(#pa4d1476490)" style="fill: none; stroke: #ff7f0e; stroke-width: 1.5; stroke-linecap: square"/>
   </g>
   <g id="line2d_15">
    <path d="M 73.832727 57.422999 
L 73.837964 59.931675 
L 73.874619 54.705267 
L 73.937456 56.377717 
L 73.953166 56.377717 
L 73.958402 58.886393 
L 74.042185 54.287154 
L 74.057895 54.287154 
L 74.099786 54.287154 
L 74.188806 64.321858 
L 74.214988 58.468281 
L 74.25688 58.468281 
L 74.372081 62.231295 
L 74.455865 62.231295 
L 74.497756 61.395069 
L 74.529175 66.412422 
L 74.539648 66.412422 
L 74.571066 66.412422 
L 74.686268 65.576196 
L 74.743869 65.576196 
L 74.843362 64.321858 
L 74.848598 66.830534 
L 74.853835 66.830534 
L 74.969037 65.576196 
L 75.188967 65.576196 
L 75.21515 64.321858 
L 75.27275 69.339211 
L 75.293696 66.830534 
L 75.304169 66.830534 
L 75.319879 69.339211 
L 75.414135 68.502985 
L 75.445553 68.502985 
L 75.560755 65.994309 
L 75.681193 65.994309 
L 75.754504 71.011661 
L 75.796395 68.502985 
L 75.911597 67.875816 
L 76.136764 67.875816 
L 76.251966 65.36714 
L 76.267676 65.36714 
L 76.283385 67.875816 
L 76.377641 65.36714 
L 77.058379 65.36714 
L 77.173581 64.112802 
L 77.257364 66.621478 
L 77.283547 65.994309 
L 77.472059 65.994309 
L 77.587261 68.502985 
L 78.70786 68.502985 
L 78.770698 71.011661 
L 78.817826 68.502985 
L 79.776096 68.502985 
L 79.891298 71.011661 
L 80.022209 71.011661 
L 80.121701 73.520337 
L 80.132174 72.265999 
L 81.650744 72.265999 
L 81.765946 71.011661 
L 82.504285 71.011661 
L 82.619487 73.520337 
L 82.944147 73.520337 
L 82.959856 71.011661 
L 83.054112 73.520337 
L 83.274043 73.520337 
L 83.389245 71.011661 
L 84.562209 71.011661 
L 84.677411 70.175436 
L 89.678219 70.175436 
L 89.793421 68.921098 
L 101.434045 68.921098 
L 101.549247 67.66676 
L 102.727448 67.66676 
L 102.84265 70.175436 
L 111.577045 70.175436 
L 111.692247 72.684112 
L 119.620229 72.684112 
L 119.735431 75.192788 
L 119.787796 75.192788 
L 119.902998 73.93845 
L 121.248765 73.93845 
L 121.363967 76.447126 
L 127.061222 76.447126 
L 127.176424 75.192788 
L 129.155801 75.192788 
L 129.271003 73.93845 
L 148.247891 73.93845 
L 148.363093 76.447126 
L 150.43149 76.447126 
L 150.546692 78.955802 
L 150.965608 78.955802 
L 151.08081 76.447126 
L 156.369622 76.447126 
L 156.484824 75.819957 
L 160.773475 75.819957 
L 160.888677 73.311281 
L 376.614629 73.311281 
L 376.729831 70.802605 
L 398.487273 70.802605 
L 398.487273 70.802605 
" clip-path="url(#pa4d1476490)" style="fill: none; stroke: #2ca02c; stroke-width: 1.5; stroke-linecap: square"/>
   </g>
   <g id="line2d_16">
    <path d="M 73.832727 54.287154 
L 73.900801 53.659985 
L 73.906038 56.168661 
L 73.91651 56.168661 
L 74.042185 64.572726 
L 74.125968 64.572726 
L 74.152151 62.482162 
L 74.157387 64.990839 
L 74.24117 63.736501 
L 74.25688 63.736501 
L 74.377318 62.06405 
L 74.440155 62.06405 
L 74.497756 64.572726 
L 74.550121 63.109331 
L 74.843362 63.109331 
L 74.958564 62.273106 
L 75.21515 62.273106 
L 75.340824 59.76443 
L 75.681193 59.76443 
L 75.801632 58.091979 
L 76.267676 58.091979 
L 76.382877 57.255754 
L 77.173581 57.255754 
L 77.288783 56.419529 
L 77.472059 56.419529 
L 77.587261 55.583303 
L 78.70786 55.583303 
L 78.823062 54.747078 
L 79.776096 54.747078 
L 79.891298 53.910852 
L 80.022209 53.910852 
L 80.137411 53.074627 
L 82.504285 53.074627 
L 82.619487 52.238402 
L 82.959856 52.238402 
L 83.075058 51.402176 
L 102.727448 51.402176 
L 102.84265 50.565951 
L 111.577045 50.565951 
L 111.692247 49.729726 
L 119.620229 49.729726 
L 119.735431 48.8935 
L 148.247891 48.8935 
L 148.363093 48.057275 
L 150.43149 48.057275 
L 150.546692 47.221049 
L 398.487273 47.221049 
L 398.487273 47.221049 
" clip-path="url(#pa4d1476490)" style="fill: none; stroke: #d62728; stroke-width: 1.5; stroke-linecap: square"/>
   </g>
   <g id="line2d_17">
    <path d="M 73.832727 54.914323 
L 73.864146 54.914323 
L 73.984584 53.450928 
L 398.487273 53.450928 
L 398.487273 53.450928 
" clip-path="url(#pa4d1476490)" style="fill: none; stroke: #9467bd; stroke-width: 1.5; stroke-linecap: square"/>
   </g>
   <g id="line2d_18">
    <path d="M 73.832727 54.914323 
L 73.926983 57.841112 
L 73.947929 57.004886 
L 73.953166 57.004886 
L 74.068367 59.513562 
L 74.194042 59.513562 
L 74.25688 58.677337 
L 74.262116 61.186013 
L 74.298771 59.931675 
L 74.340663 59.931675 
L 74.455865 62.440351 
L 74.576303 60.7679 
L 74.743869 60.7679 
L 74.843362 59.513562 
L 74.848598 62.022239 
L 74.853835 62.022239 
L 74.969037 60.7679 
L 75.188967 60.7679 
L 75.21515 59.513562 
L 75.27275 64.530915 
L 75.283223 64.530915 
L 75.28846 64.530915 
L 75.304169 63.276577 
L 75.309406 65.785253 
L 75.393189 64.949027 
L 75.681193 64.949027 
L 75.796395 69.96638 
L 75.911597 69.339211 
L 76.267676 69.339211 
L 76.382877 71.847887 
L 77.058379 71.847887 
L 77.173581 70.593549 
L 77.257364 70.593549 
L 77.372566 69.96638 
L 79.252451 69.96638 
L 79.367653 68.712041 
L 80.022209 68.712041 
L 80.137411 71.220718 
L 81.933512 71.220718 
L 82.048714 70.384492 
L 82.959856 70.384492 
L 83.075058 72.893168 
L 84.562209 72.893168 
L 84.677411 72.056943 
L 87.002394 72.056943 
L 87.117596 71.220718 
L 110.126549 71.220718 
L 110.241751 70.384492 
L 111.577045 70.384492 
L 111.692247 72.893168 
L 119.620229 72.893168 
L 119.735431 75.401844 
L 130.737209 75.401844 
L 130.852411 74.147506 
L 146.813104 74.147506 
L 146.928306 73.311281 
L 148.247891 73.311281 
L 148.363093 75.819957 
L 156.369622 75.819957 
L 156.484824 75.192788 
L 211.991174 75.192788 
L 212.106376 73.93845 
L 398.487273 73.93845 
L 398.487273 73.93845 
" clip-path="url(#pa4d1476490)" style="fill: none; stroke: #8c564b; stroke-width: 1.5; stroke-linecap: square"/>
   </g>
   <g id="line2d_19">
    <path d="M 73.832727 54.287154 
L 73.864146 54.287154 
L 74.00553 50.315083 
L 74.571066 50.315083 
L 74.686268 49.478858 
L 75.042347 49.478858 
L 75.157549 46.970182 
L 398.487273 46.970182 
L 398.487273 46.970182 
" clip-path="url(#pa4d1476490)" style="fill: none; stroke: #e377c2; stroke-width: 1.5; stroke-linecap: square"/>
   </g>
   <g id="line2d_20">
    <path d="M 73.832727 57.422999 
L 73.8432 57.422999 
L 73.968875 65.827064 
L 73.995057 65.827064 
L 74.036949 63.318388 
L 74.105023 64.990839 
L 74.125968 64.990839 
L 74.152151 64.36367 
L 74.157387 66.872346 
L 74.209752 66.872346 
L 74.235934 69.381022 
L 74.319717 67.917627 
L 74.356372 67.917627 
L 74.440155 70.426303 
L 74.466337 69.171965 
L 74.523938 69.171965 
L 74.571066 68.544796 
L 74.576303 71.053473 
L 74.618194 71.053473 
L 74.785761 71.053473 
L 74.900963 69.799134 
L 75.042347 69.799134 
L 75.068529 72.307811 
L 75.152312 71.053473 
L 75.445553 71.053473 
L 75.560755 73.562149 
L 75.675957 73.562149 
L 75.754504 72.307811 
L 75.75974 74.816487 
L 75.780686 74.816487 
L 75.796395 74.816487 
L 75.911597 74.189318 
L 76.136764 74.189318 
L 76.251966 76.697994 
L 76.283385 76.697994 
L 76.398587 79.20667 
L 77.032197 79.20667 
L 77.058379 77.952332 
L 77.063616 80.461008 
L 77.136926 80.461008 
L 77.257364 80.461008 
L 77.372566 79.833839 
L 78.770698 79.833839 
L 78.8859 82.342515 
L 80.121701 82.342515 
L 80.205485 84.851191 
L 80.231667 83.596853 
L 81.650744 83.596853 
L 81.755473 86.105529 
L 81.76071 84.851191 
L 82.944147 84.851191 
L 83.059349 87.359867 
L 83.274043 87.359867 
L 83.389245 89.868543 
L 86.473513 89.868543 
L 86.588715 88.614205 
L 87.447492 88.614205 
L 87.562694 87.359867 
L 89.678219 87.359867 
L 89.793421 89.868543 
L 90.474159 89.868543 
L 90.589361 89.032318 
L 91.050169 89.032318 
L 91.16537 87.77798 
L 101.434045 87.77798 
L 101.549247 90.286656 
L 105.926918 90.286656 
L 106.04212 89.032318 
L 112.022143 89.032318 
L 112.137345 88.196093 
L 119.13324 88.196093 
L 119.248442 87.359867 
L 119.787796 87.359867 
L 119.902998 89.868543 
L 127.061222 89.868543 
L 127.176424 92.377219 
L 128.014256 92.377219 
L 128.129458 91.122881 
L 129.155801 91.122881 
L 129.271003 93.631558 
L 150.965608 93.631558 
L 151.08081 96.140234 
L 155.605101 96.140234 
L 155.720303 95.304008 
L 156.369622 95.304008 
L 156.484824 94.676839 
L 160.773475 94.676839 
L 160.888677 97.185515 
L 175.587387 97.185515 
L 175.702589 96.34929 
L 178.367941 96.34929 
L 178.483142 95.513065 
L 267.172864 95.513065 
L 267.288066 94.258727 
L 368.037327 94.258727 
L 368.152529 93.004389 
L 376.614629 93.004389 
L 376.729831 95.513065 
L 398.487273 95.513065 
L 398.487273 95.513065 
" clip-path="url(#pa4d1476490)" style="fill: none; stroke: #7f7f7f; stroke-width: 1.5; stroke-linecap: square"/>
   </g>
   <g id="line2d_21">
    <path d="M 73.832727 54.287154 
L 73.837964 53.659985 
L 73.869382 62.858464 
L 74.00553 77.116106 
L 74.010767 77.116106 
L 74.031712 74.60743 
L 74.105023 81.297233 
L 74.110259 81.297233 
L 74.125968 81.297233 
L 74.152151 79.20667 
L 74.199279 84.851191 
L 74.209752 82.342515 
L 74.283062 85.896473 
L 74.319717 82.551571 
L 74.340663 82.551571 
L 74.356372 76.697994 
L 74.455865 81.715346 
L 74.461101 84.224022 
L 74.529175 80.251952 
L 74.560594 80.251952 
L 74.571066 78.997614 
L 74.576303 81.50629 
L 74.665323 81.50629 
L 74.722923 81.50629 
L 74.743869 78.997614 
L 74.790997 84.014966 
L 74.827652 84.014966 
L 74.843362 84.014966 
L 74.853835 83.17874 
L 74.859071 85.687417 
L 74.948091 84.433078 
L 75.068529 84.433078 
L 75.110421 86.941755 
L 75.178494 84.433078 
L 75.188967 84.433078 
L 75.304169 90.286656 
L 75.309406 89.450431 
L 75.319879 89.450431 
L 75.387952 91.959107 
L 75.429844 89.450431 
L 75.445553 89.450431 
L 75.497918 91.959107 
L 75.555519 89.450431 
L 75.670721 86.941755 
L 75.675957 86.941755 
L 75.791159 90.286656 
L 75.796395 90.286656 
L 75.817341 92.795332 
L 75.906361 91.540994 
L 76.136764 91.540994 
L 76.251966 94.04967 
L 76.267676 94.04967 
L 76.283385 93.213445 
L 76.288621 95.722121 
L 76.367168 95.722121 
L 76.686591 95.722121 
L 76.80703 93.213445 
L 76.875104 93.213445 
L 76.937941 95.722121 
L 76.985069 94.467783 
L 77.032197 94.467783 
L 77.152635 99.485135 
L 77.173581 99.485135 
L 77.257364 98.64891 
L 77.262601 101.157586 
L 77.273074 101.157586 
L 77.472059 101.157586 
L 77.608206 96.558346 
L 78.058541 96.558346 
L 78.173743 94.04967 
L 78.70786 94.04967 
L 78.770698 93.213445 
L 78.775934 95.722121 
L 78.807353 95.722121 
L 79.252451 95.722121 
L 79.367653 98.230797 
L 79.692313 98.230797 
L 79.817987 93.631558 
L 80.022209 93.631558 
L 80.121701 92.795332 
L 80.24214 97.812684 
L 81.650744 97.812684 
L 81.771183 102.830037 
L 81.933512 102.830037 
L 82.048714 105.338713 
L 82.059187 105.338713 
L 82.174389 102.830037 
L 82.504285 102.830037 
L 82.635197 99.485135 
L 82.944147 99.485135 
L 82.959856 101.993811 
L 83.054112 101.157586 
L 83.274043 101.157586 
L 83.389245 103.666262 
L 84.562209 103.666262 
L 84.677411 106.174938 
L 85.855612 106.174938 
L 85.970814 104.9206 
L 86.473513 104.9206 
L 86.588715 107.429276 
L 86.923848 107.429276 
L 87.002394 106.174938 
L 87.007631 108.683614 
L 87.028576 108.683614 
L 87.447492 108.683614 
L 87.541748 111.19229 
L 87.557458 108.683614 
L 87.756443 108.683614 
L 87.871645 106.174938 
L 89.678219 106.174938 
L 89.720111 108.683614 
L 89.788185 106.174938 
L 90.180918 106.174938 
L 90.29612 104.9206 
L 90.474159 104.9206 
L 90.589361 107.429276 
L 91.050169 107.429276 
L 91.16537 109.937952 
L 91.348646 109.937952 
L 91.463848 107.429276 
L 93.830723 107.429276 
L 93.945924 106.174938 
L 101.434045 106.174938 
L 101.549247 108.683614 
L 102.727448 108.683614 
L 102.84265 107.847389 
L 105.434692 107.847389 
L 105.549893 105.338713 
L 105.926918 105.338713 
L 106.04212 107.847389 
L 110.126549 107.847389 
L 110.241751 110.356065 
L 110.849179 110.356065 
L 110.964381 109.101727 
L 111.577045 109.101727 
L 111.692247 108.265502 
L 112.022143 108.265502 
L 112.137345 110.774178 
L 112.236838 110.774178 
L 112.352039 108.265502 
L 115.342051 108.265502 
L 115.457253 107.011163 
L 116.808257 107.011163 
L 116.923459 104.502487 
L 119.13324 104.502487 
L 119.248442 107.011163 
L 119.620229 107.011163 
L 119.735431 106.174938 
L 119.787796 106.174938 
L 119.866342 108.683614 
L 119.897761 106.174938 
L 121.248765 106.174938 
L 121.363967 108.683614 
L 127.061222 108.683614 
L 127.176424 111.19229 
L 128.014256 111.19229 
L 128.129458 113.700966 
L 129.155801 113.700966 
L 129.271003 116.209643 
L 130.737209 116.209643 
L 130.852411 118.718319 
L 133.601546 118.718319 
L 133.716748 117.463981 
L 133.97857 117.463981 
L 134.093772 116.209643 
L 143.084753 116.209643 
L 143.131881 114.955305 
L 143.137118 117.463981 
L 143.189482 117.463981 
L 146.813104 117.463981 
L 146.928306 119.972657 
L 148.247891 119.972657 
L 148.363093 119.136431 
L 149.494166 119.136431 
L 149.609368 116.627755 
L 150.43149 116.627755 
L 150.546692 115.79153 
L 150.965608 115.79153 
L 151.08081 118.300206 
L 155.008146 118.300206 
L 155.123348 115.79153 
L 155.605101 115.79153 
L 155.720303 118.300206 
L 156.369622 118.300206 
L 156.484824 120.808882 
L 157.30171 120.808882 
L 157.416912 119.554544 
L 160.773475 119.554544 
L 160.888677 122.06322 
L 163.821088 122.06322 
L 163.93629 119.554544 
L 171.136406 119.554544 
L 171.251608 118.300206 
L 175.587387 118.300206 
L 175.702589 120.808882 
L 178.367941 120.808882 
L 178.483142 123.317558 
L 178.87064 123.317558 
L 178.985841 120.808882 
L 181.509809 120.808882 
L 181.625011 118.300206 
L 211.991174 118.300206 
L 212.106376 120.808882 
L 236.073599 120.808882 
L 236.1888 118.300206 
L 267.172864 118.300206 
L 267.288066 120.808882 
L 315.918959 120.808882 
L 316.034161 119.554544 
L 368.037327 119.554544 
L 368.152529 122.06322 
L 373.085263 122.06322 
L 373.200465 119.554544 
L 376.614629 119.554544 
L 376.729831 122.06322 
L 391.313339 122.06322 
L 391.428541 119.554544 
L 398.487273 119.554544 
L 398.487273 119.554544 
" clip-path="url(#pa4d1476490)" style="fill: none; stroke: #bcbd22; stroke-width: 1.5; stroke-linecap: square"/>
   </g>
   <g id="line2d_22">
    <path d="M 73.832727 54.287154 
L 73.8432 54.287154 
L 73.979348 67.708571 
L 74.010767 63.945557 
L 74.07884 70.217247 
L 74.141678 69.799134 
L 74.199279 75.443656 
L 74.204515 75.443656 
L 74.33019 84.014966 
L 74.345899 84.014966 
L 74.440155 91.540994 
L 74.466337 89.032318 
L 74.487283 89.032318 
L 74.571066 85.060247 
L 74.602485 87.568924 
L 74.722923 87.568924 
L 74.785761 92.586276 
L 74.838125 91.331938 
L 74.853835 91.331938 
L 74.859071 93.840614 
L 74.9638 92.586276 
L 75.068529 92.586276 
L 75.110421 91.331938 
L 75.115657 93.840614 
L 75.173258 93.840614 
L 75.27275 93.840614 
L 75.393189 98.857966 
L 75.445553 98.857966 
L 75.571228 106.383994 
L 75.675957 106.383994 
L 75.754504 105.129656 
L 75.75974 107.638333 
L 75.780686 107.638333 
L 75.796395 107.638333 
L 75.92207 105.756825 
L 76.136764 105.756825 
L 76.251966 108.265502 
L 76.283385 108.265502 
L 76.398587 110.774178 
L 76.686591 110.774178 
L 76.80703 108.265502 
L 76.875104 108.265502 
L 76.937941 110.774178 
L 76.985069 109.51984 
L 77.032197 109.51984 
L 77.058379 108.265502 
L 77.063616 110.774178 
L 77.136926 110.774178 
L 77.173581 110.774178 
L 77.288783 109.310783 
L 77.472059 109.310783 
L 77.540133 107.22022 
L 77.545369 109.728896 
L 77.576788 109.728896 
L 78.058541 109.728896 
L 78.173743 112.237572 
L 78.70786 112.237572 
L 78.770698 111.401347 
L 78.775934 113.910023 
L 78.807353 113.910023 
L 79.252451 113.910023 
L 79.367653 112.655685 
L 79.692313 112.655685 
L 79.708022 111.401347 
L 79.713258 113.910023 
L 79.797042 113.073797 
L 80.121701 113.073797 
L 80.205485 115.582474 
L 80.231667 114.328135 
L 81.650744 114.328135 
L 81.755473 116.836812 
L 81.76071 115.582474 
L 81.933512 115.582474 
L 82.048714 114.746248 
L 82.059187 114.746248 
L 82.174389 117.254924 
L 82.504285 117.254924 
L 82.551413 116.418699 
L 82.55665 118.927375 
L 82.603778 118.927375 
L 82.944147 118.927375 
L 83.059349 121.436051 
L 83.274043 121.436051 
L 83.389245 123.944727 
L 85.855612 123.944727 
L 85.970814 122.690389 
L 86.473513 122.690389 
L 86.588715 121.436051 
L 86.923848 121.436051 
L 87.039049 119.345488 
L 87.447492 119.345488 
L 87.541748 118.09115 
L 87.546985 120.599826 
L 87.552221 120.599826 
L 87.756443 120.599826 
L 87.871645 123.108502 
L 89.678219 123.108502 
L 89.798658 128.125854 
L 90.180918 128.125854 
L 90.29612 126.871516 
L 90.474159 126.871516 
L 90.589361 126.035291 
L 91.050169 126.035291 
L 91.16537 124.780953 
L 91.348646 124.780953 
L 91.463848 127.289629 
L 93.830723 127.289629 
L 93.945924 126.035291 
L 101.434045 126.035291 
L 101.549247 128.543967 
L 102.727448 128.543967 
L 102.84265 127.707741 
L 105.434692 127.707741 
L 105.549893 130.216418 
L 105.926918 130.216418 
L 106.04212 128.96208 
L 110.126549 128.96208 
L 110.241751 128.125854 
L 110.849179 128.125854 
L 110.964381 126.871516 
L 112.022143 126.871516 
L 112.137345 126.035291 
L 112.236838 126.035291 
L 112.352039 128.543967 
L 115.342051 128.543967 
L 115.457253 127.289629 
L 116.808257 127.289629 
L 116.923459 129.798305 
L 119.13324 129.798305 
L 119.248442 128.96208 
L 119.787796 128.96208 
L 119.908234 133.979432 
L 127.061222 133.979432 
L 127.176424 136.488108 
L 128.014256 136.488108 
L 128.129458 135.23377 
L 129.155801 135.23377 
L 129.271003 137.742446 
L 130.737209 137.742446 
L 130.852411 136.488108 
L 133.601546 136.488108 
L 133.716748 135.23377 
L 133.97857 135.23377 
L 134.093772 133.979432 
L 143.084753 133.979432 
L 143.131881 132.725094 
L 143.137118 135.23377 
L 143.189482 135.23377 
L 146.813104 135.23377 
L 146.928306 134.397544 
L 149.494166 134.397544 
L 149.609368 136.906221 
L 150.43149 136.906221 
L 150.546692 136.069995 
L 150.965608 136.069995 
L 151.08081 138.578671 
L 155.008146 138.578671 
L 155.123348 141.087347 
L 155.605101 141.087347 
L 155.720303 140.251122 
L 156.369622 140.251122 
L 156.484824 139.623953 
L 157.30171 139.623953 
L 157.416912 138.369615 
L 160.773475 138.369615 
L 160.888677 140.878291 
L 163.821088 140.878291 
L 163.93629 143.386967 
L 171.136406 143.386967 
L 171.251608 142.132629 
L 175.587387 142.132629 
L 175.702589 141.296404 
L 178.367941 141.296404 
L 178.483142 140.460178 
L 178.87064 140.460178 
L 178.985841 142.968854 
L 181.509809 142.968854 
L 181.625011 145.477531 
L 211.991174 145.477531 
L 212.106376 144.223193 
L 236.073599 144.223193 
L 236.1888 146.731869 
L 267.172864 146.731869 
L 267.288066 145.477531 
L 315.918959 145.477531 
L 316.034161 144.223193 
L 368.037327 144.223193 
L 368.152529 142.968854 
L 373.085263 142.968854 
L 373.200465 145.477531 
L 376.614629 145.477531 
L 376.729831 147.986207 
L 391.313339 147.986207 
L 391.428541 150.494883 
L 398.487273 150.494883 
L 398.487273 150.494883 
" clip-path="url(#pa4d1476490)" style="fill: none; stroke: #17becf; stroke-width: 1.5; stroke-linecap: square"/>
   </g>
   <g id="line2d_23">
    <path d="M 73.832727 54.914323 
L 73.837964 54.287154 
L 73.853673 59.304506 
L 73.906038 59.304506 
L 73.921747 59.304506 
L 73.926983 58.802771 
L 73.93222 61.311447 
L 74.016003 60.809712 
L 74.194042 60.809712 
L 74.309244 64.990839 
L 74.340663 64.990839 
L 74.455865 64.154613 
L 74.576303 69.171965 
L 74.743869 69.171965 
L 74.859071 73.353092 
L 75.188967 73.353092 
L 75.304169 76.697994 
L 75.319879 75.861768 
L 75.325115 78.370445 
L 75.403662 78.370445 
L 75.681193 78.370445 
L 75.796395 76.697994 
L 75.911597 79.20667 
L 76.267676 79.20667 
L 76.382877 78.370445 
L 77.058379 78.370445 
L 77.173581 80.879121 
L 77.257364 80.879121 
L 77.372566 83.387797 
L 79.252451 83.387797 
L 79.367653 85.896473 
L 80.022209 85.896473 
L 80.137411 85.060247 
L 81.933512 85.060247 
L 82.048714 87.568924 
L 82.959856 87.568924 
L 83.075058 86.732698 
L 84.562209 86.732698 
L 84.677411 89.241374 
L 87.002394 89.241374 
L 87.117596 91.75005 
L 110.126549 91.75005 
L 110.241751 94.258727 
L 111.577045 94.258727 
L 111.692247 93.422501 
L 119.620229 93.422501 
L 119.735431 92.586276 
L 130.737209 92.586276 
L 130.852411 95.094952 
L 146.813104 95.094952 
L 146.928306 97.603628 
L 148.247891 97.603628 
L 148.363093 96.767403 
L 156.369622 96.767403 
L 156.484824 99.276079 
L 211.991174 99.276079 
L 212.106376 101.784755 
L 398.487273 101.784755 
L 398.487273 101.784755 
" clip-path="url(#pa4d1476490)" style="fill: none; stroke: #1f77b4; stroke-width: 1.5; stroke-linecap: square"/>
   </g>
   <g id="line2d_24">
    <path d="M 73.832727 54.914323 
L 73.953166 53.659985 
L 74.057895 53.659985 
L 74.173096 51.151309 
L 398.487273 51.151309 
L 398.487273 51.151309 
" clip-path="url(#pa4d1476490)" style="fill: none; stroke: #ff7f0e; stroke-width: 1.5; stroke-linecap: square"/>
   </g>
   <g id="patch_3">
    <path d="M 57.6 162.432 
L 57.6 41.472 
" style="fill: none; stroke: #000000; stroke-width: 0.8; stroke-linejoin: miter; stroke-linecap: square"/>
   </g>
   <g id="patch_4">
    <path d="M 414.72 162.432 
L 414.72 41.472 
" style="fill: none; stroke: #000000; stroke-width: 0.8; stroke-linejoin: miter; stroke-linecap: square"/>
   </g>
   <g id="patch_5">
    <path d="M 57.6 162.432 
L 414.72 162.432 
" style="fill: none; stroke: #000000; stroke-width: 0.8; stroke-linejoin: miter; stroke-linecap: square"/>
   </g>
   <g id="patch_6">
    <path d="M 57.6 41.472 
L 414.72 41.472 
" style="fill: none; stroke: #000000; stroke-width: 0.8; stroke-linejoin: miter; stroke-linecap: square"/>
   </g>
   <g id="text_13">
    <!-- WSP -->
    <g transform="translate(361.832136 156.933818)scale(0.08 -0.08)">
     <defs>
      <path id="DejaVuSans-57" d="M 213 4666 
L 850 4666 
L 1831 722 
L 2809 4666 
L 3519 4666 
L 4500 722 
L 5478 4666 
L 6119 4666 
L 4947 0 
L 4153 0 
L 3169 4050 
L 2175 0 
L 1381 0 
L 213 4666 
z
" transform="scale(0.015625)"/>
      <path id="DejaVuSans-53" d="M 3425 4513 
L 3425 3897 
Q 3066 4069 2747 4153 
Q 2428 4238 2131 4238 
Q 1616 4238 1336 4038 
Q 1056 3838 1056 3469 
Q 1056 3159 1242 3001 
Q 1428 2844 1947 2747 
L 2328 2669 
Q 3034 2534 3370 2195 
Q 3706 1856 3706 1288 
Q 3706 609 3251 259 
Q 2797 -91 1919 -91 
Q 1588 -91 1214 -16 
Q 841 59 441 206 
L 441 856 
Q 825 641 1194 531 
Q 1563 422 1919 422 
Q 2459 422 2753 634 
Q 3047 847 3047 1241 
Q 3047 1584 2836 1778 
Q 2625 1972 2144 2069 
L 1759 2144 
Q 1053 2284 737 2584 
Q 422 2884 422 3419 
Q 422 4038 858 4394 
Q 1294 4750 2059 4750 
Q 2388 4750 2728 4690 
Q 3069 4631 3425 4513 
z
" transform="scale(0.015625)"/>
      <path id="DejaVuSans-50" d="M 1259 4147 
L 1259 2394 
L 2053 2394 
Q 2494 2394 2734 2622 
Q 2975 2850 2975 3272 
Q 2975 3691 2734 3919 
Q 2494 4147 2053 4147 
L 1259 4147 
z
M 628 4666 
L 2053 4666 
Q 2838 4666 3239 4311 
Q 3641 3956 3641 3272 
Q 3641 2581 3239 2228 
Q 2838 1875 2053 1875 
L 1259 1875 
L 1259 0 
L 628 0 
L 628 4666 
z
" transform="scale(0.015625)"/>
     </defs>
     <use xlink:href="#DejaVuSans-57"/>
     <use xlink:href="#DejaVuSans-53" x="98.876953"/>
     <use xlink:href="#DejaVuSans-50" x="162.353516"/>
    </g>
   </g>
   <g id="text_14">
    <!-- Iambic -->
    <g transform="translate(361.832136 147.735339)scale(0.08 -0.08)">
     <defs>
      <path id="DejaVuSans-49" d="M 628 4666 
L 1259 4666 
L 1259 0 
L 628 0 
L 628 4666 
z
" transform="scale(0.015625)"/>
      <path id="DejaVuSans-61" d="M 2194 1759 
Q 1497 1759 1228 1600 
Q 959 1441 959 1056 
Q 959 750 1161 570 
Q 1363 391 1709 391 
Q 2188 391 2477 730 
Q 2766 1069 2766 1631 
L 2766 1759 
L 2194 1759 
z
M 3341 1997 
L 3341 0 
L 2766 0 
L 2766 531 
Q 2569 213 2275 61 
Q 1981 -91 1556 -91 
Q 1019 -91 701 211 
Q 384 513 384 1019 
Q 384 1609 779 1909 
Q 1175 2209 1959 2209 
L 2766 2209 
L 2766 2266 
Q 2766 2663 2505 2880 
Q 2244 3097 1772 3097 
Q 1472 3097 1187 3025 
Q 903 2953 641 2809 
L 641 3341 
Q 956 3463 1253 3523 
Q 1550 3584 1831 3584 
Q 2591 3584 2966 3190 
Q 3341 2797 3341 1997 
z
" transform="scale(0.015625)"/>
      <path id="DejaVuSans-6d" d="M 3328 2828 
Q 3544 3216 3844 3400 
Q 4144 3584 4550 3584 
Q 5097 3584 5394 3201 
Q 5691 2819 5691 2113 
L 5691 0 
L 5113 0 
L 5113 2094 
Q 5113 2597 4934 2840 
Q 4756 3084 4391 3084 
Q 3944 3084 3684 2787 
Q 3425 2491 3425 1978 
L 3425 0 
L 2847 0 
L 2847 2094 
Q 2847 2600 2669 2842 
Q 2491 3084 2119 3084 
Q 1678 3084 1418 2786 
Q 1159 2488 1159 1978 
L 1159 0 
L 581 0 
L 581 3500 
L 1159 3500 
L 1159 2956 
Q 1356 3278 1631 3431 
Q 1906 3584 2284 3584 
Q 2666 3584 2933 3390 
Q 3200 3197 3328 2828 
z
" transform="scale(0.015625)"/>
      <path id="DejaVuSans-62" d="M 3116 1747 
Q 3116 2381 2855 2742 
Q 2594 3103 2138 3103 
Q 1681 3103 1420 2742 
Q 1159 2381 1159 1747 
Q 1159 1113 1420 752 
Q 1681 391 2138 391 
Q 2594 391 2855 752 
Q 3116 1113 3116 1747 
z
M 1159 2969 
Q 1341 3281 1617 3432 
Q 1894 3584 2278 3584 
Q 2916 3584 3314 3078 
Q 3713 2572 3713 1747 
Q 3713 922 3314 415 
Q 2916 -91 2278 -91 
Q 1894 -91 1617 61 
Q 1341 213 1159 525 
L 1159 0 
L 581 0 
L 581 4863 
L 1159 4863 
L 1159 2969 
z
" transform="scale(0.015625)"/>
      <path id="DejaVuSans-69" d="M 603 3500 
L 1178 3500 
L 1178 0 
L 603 0 
L 603 3500 
z
M 603 4863 
L 1178 4863 
L 1178 4134 
L 603 4134 
L 603 4863 
z
" transform="scale(0.015625)"/>
      <path id="DejaVuSans-63" d="M 3122 3366 
L 3122 2828 
Q 2878 2963 2633 3030 
Q 2388 3097 2138 3097 
Q 1578 3097 1268 2742 
Q 959 2388 959 1747 
Q 959 1106 1268 751 
Q 1578 397 2138 397 
Q 2388 397 2633 464 
Q 2878 531 3122 666 
L 3122 134 
Q 2881 22 2623 -34 
Q 2366 -91 2075 -91 
Q 1284 -91 818 406 
Q 353 903 353 1747 
Q 353 2603 823 3093 
Q 1294 3584 2113 3584 
Q 2378 3584 2631 3529 
Q 2884 3475 3122 3366 
z
" transform="scale(0.015625)"/>
     </defs>
     <use xlink:href="#DejaVuSans-49"/>
     <use xlink:href="#DejaVuSans-61" x="29.492188"/>
     <use xlink:href="#DejaVuSans-6d" x="90.771484"/>
     <use xlink:href="#DejaVuSans-62" x="188.183594"/>
     <use xlink:href="#DejaVuSans-69" x="251.660156"/>
     <use xlink:href="#DejaVuSans-63" x="279.443359"/>
    </g>
   </g>
   <g id="text_15">
    <!-- Parse -->
    <g transform="translate(361.832136 70.802605)scale(0.08 -0.08)">
     <defs>
      <path id="DejaVuSans-72" d="M 2631 2963 
Q 2534 3019 2420 3045 
Q 2306 3072 2169 3072 
Q 1681 3072 1420 2755 
Q 1159 2438 1159 1844 
L 1159 0 
L 581 0 
L 581 3500 
L 1159 3500 
L 1159 2956 
Q 1341 3275 1631 3429 
Q 1922 3584 2338 3584 
Q 2397 3584 2469 3576 
Q 2541 3569 2628 3553 
L 2631 2963 
z
" transform="scale(0.015625)"/>
      <path id="DejaVuSans-73" d="M 2834 3397 
L 2834 2853 
Q 2591 2978 2328 3040 
Q 2066 3103 1784 3103 
Q 1356 3103 1142 2972 
Q 928 2841 928 2578 
Q 928 2378 1081 2264 
Q 1234 2150 1697 2047 
L 1894 2003 
Q 2506 1872 2764 1633 
Q 3022 1394 3022 966 
Q 3022 478 2636 193 
Q 2250 -91 1575 -91 
Q 1294 -91 989 -36 
Q 684 19 347 128 
L 347 722 
Q 666 556 975 473 
Q 1284 391 1588 391 
Q 1994 391 2212 530 
Q 2431 669 2431 922 
Q 2431 1156 2273 1281 
Q 2116 1406 1581 1522 
L 1381 1569 
Q 847 1681 609 1914 
Q 372 2147 372 2553 
Q 372 3047 722 3315 
Q 1072 3584 1716 3584 
Q 2034 3584 2315 3537 
Q 2597 3491 2834 3397 
z
" transform="scale(0.015625)"/>
      <path id="DejaVuSans-65" d="M 3597 1894 
L 3597 1613 
L 953 1613 
Q 991 1019 1311 708 
Q 1631 397 2203 397 
Q 2534 397 2845 478 
Q 3156 559 3463 722 
L 3463 178 
Q 3153 47 2828 -22 
Q 2503 -91 2169 -91 
Q 1331 -91 842 396 
Q 353 884 353 1716 
Q 353 2575 817 3079 
Q 1281 3584 2069 3584 
Q 2775 3584 3186 3129 
Q 3597 2675 3597 1894 
z
M 3022 2063 
Q 3016 2534 2758 2815 
Q 2500 3097 2075 3097 
Q 1594 3097 1305 2825 
Q 1016 2553 972 2059 
L 3022 2063 
z
" transform="scale(0.015625)"/>
     </defs>
     <use xlink:href="#DejaVuSans-50"/>
     <use xlink:href="#DejaVuSans-61" x="55.802734"/>
     <use xlink:href="#DejaVuSans-72" x="117.082031"/>
     <use xlink:href="#DejaVuSans-73" x="158.195312"/>
     <use xlink:href="#DejaVuSans-65" x="210.294922"/>
    </g>
   </g>
   <g id="text_16">
    <!-- FootBin -->
    <g transform="translate(361.832136 47.221049)scale(0.08 -0.08)">
     <defs>
      <path id="DejaVuSans-46" d="M 628 4666 
L 3309 4666 
L 3309 4134 
L 1259 4134 
L 1259 2759 
L 3109 2759 
L 3109 2228 
L 1259 2228 
L 1259 0 
L 628 0 
L 628 4666 
z
" transform="scale(0.015625)"/>
      <path id="DejaVuSans-6f" d="M 1959 3097 
Q 1497 3097 1228 2736 
Q 959 2375 959 1747 
Q 959 1119 1226 758 
Q 1494 397 1959 397 
Q 2419 397 2687 759 
Q 2956 1122 2956 1747 
Q 2956 2369 2687 2733 
Q 2419 3097 1959 3097 
z
M 1959 3584 
Q 2709 3584 3137 3096 
Q 3566 2609 3566 1747 
Q 3566 888 3137 398 
Q 2709 -91 1959 -91 
Q 1206 -91 779 398 
Q 353 888 353 1747 
Q 353 2609 779 3096 
Q 1206 3584 1959 3584 
z
" transform="scale(0.015625)"/>
      <path id="DejaVuSans-74" d="M 1172 4494 
L 1172 3500 
L 2356 3500 
L 2356 3053 
L 1172 3053 
L 1172 1153 
Q 1172 725 1289 603 
Q 1406 481 1766 481 
L 2356 481 
L 2356 0 
L 1766 0 
Q 1100 0 847 248 
Q 594 497 594 1153 
L 594 3053 
L 172 3053 
L 172 3500 
L 594 3500 
L 594 4494 
L 1172 4494 
z
" transform="scale(0.015625)"/>
      <path id="DejaVuSans-42" d="M 1259 2228 
L 1259 519 
L 2272 519 
Q 2781 519 3026 730 
Q 3272 941 3272 1375 
Q 3272 1813 3026 2020 
Q 2781 2228 2272 2228 
L 1259 2228 
z
M 1259 4147 
L 1259 2741 
L 2194 2741 
Q 2656 2741 2882 2914 
Q 3109 3088 3109 3444 
Q 3109 3797 2882 3972 
Q 2656 4147 2194 4147 
L 1259 4147 
z
M 628 4666 
L 2241 4666 
Q 2963 4666 3353 4366 
Q 3744 4066 3744 3513 
Q 3744 3084 3544 2831 
Q 3344 2578 2956 2516 
Q 3422 2416 3680 2098 
Q 3938 1781 3938 1306 
Q 3938 681 3513 340 
Q 3088 0 2303 0 
L 628 0 
L 628 4666 
z
" transform="scale(0.015625)"/>
      <path id="DejaVuSans-6e" d="M 3513 2113 
L 3513 0 
L 2938 0 
L 2938 2094 
Q 2938 2591 2744 2837 
Q 2550 3084 2163 3084 
Q 1697 3084 1428 2787 
Q 1159 2491 1159 1978 
L 1159 0 
L 581 0 
L 581 3500 
L 1159 3500 
L 1159 2956 
Q 1366 3272 1645 3428 
Q 1925 3584 2291 3584 
Q 2894 3584 3203 3211 
Q 3513 2838 3513 2113 
z
" transform="scale(0.015625)"/>
     </defs>
     <use xlink:href="#DejaVuSans-46"/>
     <use xlink:href="#DejaVuSans-6f" x="53.894531"/>
     <use xlink:href="#DejaVuSans-6f" x="115.076172"/>
     <use xlink:href="#DejaVuSans-74" x="176.257812"/>
     <use xlink:href="#DejaVuSans-42" x="215.466797"/>
     <use xlink:href="#DejaVuSans-69" x="284.070312"/>
     <use xlink:href="#DejaVuSans-6e" x="311.853516"/>
    </g>
   </g>
   <g id="text_17">
    <!-- WFL -->
    <g transform="translate(361.832136 53.450928)scale(0.08 -0.08)">
     <defs>
      <path id="DejaVuSans-4c" d="M 628 4666 
L 1259 4666 
L 1259 531 
L 3531 531 
L 3531 0 
L 628 0 
L 628 4666 
z
" transform="scale(0.015625)"/>
     </defs>
     <use xlink:href="#DejaVuSans-57"/>
     <use xlink:href="#DejaVuSans-46" x="98.876953"/>
     <use xlink:href="#DejaVuSans-4c" x="156.396484"/>
    </g>
   </g>
   <g id="text_18">
    <!-- WFR -->
    <g transform="translate(361.832136 73.93845)scale(0.08 -0.08)">
     <defs>
      <path id="DejaVuSans-52" d="M 2841 2188 
Q 3044 2119 3236 1894 
Q 3428 1669 3622 1275 
L 4263 0 
L 3584 0 
L 2988 1197 
Q 2756 1666 2539 1819 
Q 2322 1972 1947 1972 
L 1259 1972 
L 1259 0 
L 628 0 
L 628 4666 
L 2053 4666 
Q 2853 4666 3247 4331 
Q 3641 3997 3641 3322 
Q 3641 2881 3436 2590 
Q 3231 2300 2841 2188 
z
M 1259 4147 
L 1259 2491 
L 2053 2491 
Q 2509 2491 2742 2702 
Q 2975 2913 2975 3322 
Q 2975 3731 2742 3939 
Q 2509 4147 2053 4147 
L 1259 4147 
z
" transform="scale(0.015625)"/>
     </defs>
     <use xlink:href="#DejaVuSans-57"/>
     <use xlink:href="#DejaVuSans-46" x="98.876953"/>
     <use xlink:href="#DejaVuSans-52" x="156.396484"/>
    </g>
   </g>
   <g id="text_19">
    <!-- Main-L -->
    <g transform="translate(361.832136 46.970182)scale(0.08 -0.08)">
     <defs>
      <path id="DejaVuSans-4d" d="M 628 4666 
L 1569 4666 
L 2759 1491 
L 3956 4666 
L 4897 4666 
L 4897 0 
L 4281 0 
L 4281 4097 
L 3078 897 
L 2444 897 
L 1241 4097 
L 1241 0 
L 628 0 
L 628 4666 
z
" transform="scale(0.015625)"/>
      <path id="DejaVuSans-2d" d="M 313 2009 
L 1997 2009 
L 1997 1497 
L 313 1497 
L 313 2009 
z
" transform="scale(0.015625)"/>
     </defs>
     <use xlink:href="#DejaVuSans-4d"/>
     <use xlink:href="#DejaVuSans-61" x="86.279297"/>
     <use xlink:href="#DejaVuSans-69" x="147.558594"/>
     <use xlink:href="#DejaVuSans-6e" x="175.341797"/>
     <use xlink:href="#DejaVuSans-2d" x="238.720703"/>
     <use xlink:href="#DejaVuSans-4c" x="274.804688"/>
    </g>
   </g>
   <g id="text_20">
    <!-- Main-R -->
    <g transform="translate(361.832136 95.513065)scale(0.08 -0.08)">
     <use xlink:href="#DejaVuSans-4d"/>
     <use xlink:href="#DejaVuSans-61" x="86.279297"/>
     <use xlink:href="#DejaVuSans-69" x="147.558594"/>
     <use xlink:href="#DejaVuSans-6e" x="175.341797"/>
     <use xlink:href="#DejaVuSans-2d" x="238.720703"/>
     <use xlink:href="#DejaVuSans-52" x="274.804688"/>
    </g>
   </g>
   <g id="text_21">
    <!-- AFL -->
    <g transform="translate(361.832136 119.554544)scale(0.08 -0.08)">
     <defs>
      <path id="DejaVuSans-41" d="M 2188 4044 
L 1331 1722 
L 3047 1722 
L 2188 4044 
z
M 1831 4666 
L 2547 4666 
L 4325 0 
L 3669 0 
L 3244 1197 
L 1141 1197 
L 716 0 
L 50 0 
L 1831 4666 
z
" transform="scale(0.015625)"/>
     </defs>
     <use xlink:href="#DejaVuSans-41"/>
     <use xlink:href="#DejaVuSans-46" x="68.408203"/>
     <use xlink:href="#DejaVuSans-4c" x="125.927734"/>
    </g>
   </g>
   <g id="text_22">
    <!-- AFR -->
    <g transform="translate(361.832136 150.494883)scale(0.08 -0.08)">
     <use xlink:href="#DejaVuSans-41"/>
     <use xlink:href="#DejaVuSans-46" x="68.408203"/>
     <use xlink:href="#DejaVuSans-52" x="125.927734"/>
    </g>
   </g>
   <g id="text_23">
    <!-- Nonfinal -->
    <g transform="translate(361.832136 101.784755)scale(0.08 -0.08)">
     <defs>
      <path id="DejaVuSans-4e" d="M 628 4666 
L 1478 4666 
L 3547 763 
L 3547 4666 
L 4159 4666 
L 4159 0 
L 3309 0 
L 1241 3903 
L 1241 0 
L 628 0 
L 628 4666 
z
" transform="scale(0.015625)"/>
      <path id="DejaVuSans-66" d="M 2375 4863 
L 2375 4384 
L 1825 4384 
Q 1516 4384 1395 4259 
Q 1275 4134 1275 3809 
L 1275 3500 
L 2222 3500 
L 2222 3053 
L 1275 3053 
L 1275 0 
L 697 0 
L 697 3053 
L 147 3053 
L 147 3500 
L 697 3500 
L 697 3744 
Q 697 4328 969 4595 
Q 1241 4863 1831 4863 
L 2375 4863 
z
" transform="scale(0.015625)"/>
      <path id="DejaVuSans-6c" d="M 603 4863 
L 1178 4863 
L 1178 0 
L 603 0 
L 603 4863 
z
" transform="scale(0.015625)"/>
     </defs>
     <use xlink:href="#DejaVuSans-4e"/>
     <use xlink:href="#DejaVuSans-6f" x="74.804688"/>
     <use xlink:href="#DejaVuSans-6e" x="135.986328"/>
     <use xlink:href="#DejaVuSans-66" x="199.365234"/>
     <use xlink:href="#DejaVuSans-69" x="234.570312"/>
     <use xlink:href="#DejaVuSans-6e" x="262.353516"/>
     <use xlink:href="#DejaVuSans-61" x="325.732422"/>
     <use xlink:href="#DejaVuSans-6c" x="387.011719"/>
    </g>
   </g>
   <g id="text_24">
    <!-- Trochaic -->
    <g transform="translate(361.832136 51.151309)scale(0.08 -0.08)">
     <defs>
      <path id="DejaVuSans-54" d="M -19 4666 
L 3928 4666 
L 3928 4134 
L 2272 4134 
L 2272 0 
L 1638 0 
L 1638 4134 
L -19 4134 
L -19 4666 
z
" transform="scale(0.015625)"/>
      <path id="DejaVuSans-68" d="M 3513 2113 
L 3513 0 
L 2938 0 
L 2938 2094 
Q 2938 2591 2744 2837 
Q 2550 3084 2163 3084 
Q 1697 3084 1428 2787 
Q 1159 2491 1159 1978 
L 1159 0 
L 581 0 
L 581 4863 
L 1159 4863 
L 1159 2956 
Q 1366 3272 1645 3428 
Q 1925 3584 2291 3584 
Q 2894 3584 3203 3211 
Q 3513 2838 3513 2113 
z
" transform="scale(0.015625)"/>
     </defs>
     <use xlink:href="#DejaVuSans-54"/>
     <use xlink:href="#DejaVuSans-72" x="46.333984"/>
     <use xlink:href="#DejaVuSans-6f" x="85.197266"/>
     <use xlink:href="#DejaVuSans-63" x="146.378906"/>
     <use xlink:href="#DejaVuSans-68" x="201.359375"/>
     <use xlink:href="#DejaVuSans-61" x="264.738281"/>
     <use xlink:href="#DejaVuSans-69" x="326.017578"/>
     <use xlink:href="#DejaVuSans-63" x="353.800781"/>
    </g>
   </g>
  </g>
  <g id="axes_2">
   <g id="patch_7">
    <path d="M 57.6 307.584 
L 414.72 307.584 
L 414.72 186.624 
L 57.6 186.624 
z
" style="fill: #ffffff"/>
   </g>
   <g id="matplotlib.axis_3">
    <g id="xtick_8">
     <g id="line2d_25">
      <g>
       <use xlink:href="#mb1dbec6cd2" x="71.988099" y="307.584" style="stroke: #000000; stroke-width: 0.8"/>
      </g>
     </g>
     <g id="text_25">
      <!-- 0 -->
      <g transform="translate(68.806849 322.182437)scale(0.1 -0.1)">
       <use xlink:href="#DejaVuSans-30"/>
      </g>
     </g>
    </g>
    <g id="xtick_9">
     <g id="line2d_26">
      <g>
       <use xlink:href="#mb1dbec6cd2" x="118.103802" y="307.584" style="stroke: #000000; stroke-width: 0.8"/>
      </g>
     </g>
     <g id="text_26">
      <!-- 25 -->
      <g transform="translate(111.741302 322.182437)scale(0.1 -0.1)">
       <use xlink:href="#DejaVuSans-32"/>
       <use xlink:href="#DejaVuSans-35" x="63.623047"/>
      </g>
     </g>
    </g>
    <g id="xtick_10">
     <g id="line2d_27">
      <g>
       <use xlink:href="#mb1dbec6cd2" x="164.219504" y="307.584" style="stroke: #000000; stroke-width: 0.8"/>
      </g>
     </g>
     <g id="text_27">
      <!-- 50 -->
      <g transform="translate(157.857004 322.182437)scale(0.1 -0.1)">
       <use xlink:href="#DejaVuSans-35"/>
       <use xlink:href="#DejaVuSans-30" x="63.623047"/>
      </g>
     </g>
    </g>
    <g id="xtick_11">
     <g id="line2d_28">
      <g>
       <use xlink:href="#mb1dbec6cd2" x="210.335207" y="307.584" style="stroke: #000000; stroke-width: 0.8"/>
      </g>
     </g>
     <g id="text_28">
      <!-- 75 -->
      <g transform="translate(203.972707 322.182437)scale(0.1 -0.1)">
       <use xlink:href="#DejaVuSans-37"/>
       <use xlink:href="#DejaVuSans-35" x="63.623047"/>
      </g>
     </g>
    </g>
    <g id="xtick_12">
     <g id="line2d_29">
      <g>
       <use xlink:href="#mb1dbec6cd2" x="256.450909" y="307.584" style="stroke: #000000; stroke-width: 0.8"/>
      </g>
     </g>
     <g id="text_29">
      <!-- 100 -->
      <g transform="translate(246.907159 322.182437)scale(0.1 -0.1)">
       <use xlink:href="#DejaVuSans-31"/>
       <use xlink:href="#DejaVuSans-30" x="63.623047"/>
       <use xlink:href="#DejaVuSans-30" x="127.246094"/>
      </g>
     </g>
    </g>
    <g id="xtick_13">
     <g id="line2d_30">
      <g>
       <use xlink:href="#mb1dbec6cd2" x="302.566612" y="307.584" style="stroke: #000000; stroke-width: 0.8"/>
      </g>
     </g>
     <g id="text_30">
      <!-- 125 -->
      <g transform="translate(293.022862 322.182437)scale(0.1 -0.1)">
       <use xlink:href="#DejaVuSans-31"/>
       <use xlink:href="#DejaVuSans-32" x="63.623047"/>
       <use xlink:href="#DejaVuSans-35" x="127.246094"/>
      </g>
     </g>
    </g>
    <g id="xtick_14">
     <g id="line2d_31">
      <g>
       <use xlink:href="#mb1dbec6cd2" x="348.682314" y="307.584" style="stroke: #000000; stroke-width: 0.8"/>
      </g>
     </g>
     <g id="text_31">
      <!-- 150 -->
      <g transform="translate(339.138564 322.182437)scale(0.1 -0.1)">
       <use xlink:href="#DejaVuSans-31"/>
       <use xlink:href="#DejaVuSans-35" x="63.623047"/>
       <use xlink:href="#DejaVuSans-30" x="127.246094"/>
      </g>
     </g>
    </g>
    <g id="xtick_15">
     <g id="line2d_32">
      <g>
       <use xlink:href="#mb1dbec6cd2" x="394.798017" y="307.584" style="stroke: #000000; stroke-width: 0.8"/>
      </g>
     </g>
     <g id="text_32">
      <!-- 175 -->
      <g transform="translate(385.254267 322.182437)scale(0.1 -0.1)">
       <use xlink:href="#DejaVuSans-31"/>
       <use xlink:href="#DejaVuSans-37" x="63.623047"/>
       <use xlink:href="#DejaVuSans-35" x="127.246094"/>
      </g>
     </g>
    </g>
   </g>
   <g id="matplotlib.axis_4">
    <g id="ytick_6">
     <g id="line2d_33">
      <g>
       <use xlink:href="#m46a28ffdb3" x="57.6" y="302.096868" style="stroke: #000000; stroke-width: 0.8"/>
      </g>
     </g>
     <g id="text_33">
      <!-- 0 -->
      <g transform="translate(44.2375 305.896086)scale(0.1 -0.1)">
       <use xlink:href="#DejaVuSans-30"/>
      </g>
     </g>
    </g>
    <g id="ytick_7">
     <g id="line2d_34">
      <g>
       <use xlink:href="#m46a28ffdb3" x="57.6" y="279.998066" style="stroke: #000000; stroke-width: 0.8"/>
      </g>
     </g>
     <g id="text_34">
      <!-- 2000 -->
      <g transform="translate(25.15 283.797285)scale(0.1 -0.1)">
       <use xlink:href="#DejaVuSans-32"/>
       <use xlink:href="#DejaVuSans-30" x="63.623047"/>
       <use xlink:href="#DejaVuSans-30" x="127.246094"/>
       <use xlink:href="#DejaVuSans-30" x="190.869141"/>
      </g>
     </g>
    </g>
    <g id="ytick_8">
     <g id="line2d_35">
      <g>
       <use xlink:href="#m46a28ffdb3" x="57.6" y="257.899265" style="stroke: #000000; stroke-width: 0.8"/>
      </g>
     </g>
     <g id="text_35">
      <!-- 4000 -->
      <g transform="translate(25.15 261.698483)scale(0.1 -0.1)">
       <use xlink:href="#DejaVuSans-34"/>
       <use xlink:href="#DejaVuSans-30" x="63.623047"/>
       <use xlink:href="#DejaVuSans-30" x="127.246094"/>
       <use xlink:href="#DejaVuSans-30" x="190.869141"/>
      </g>
     </g>
    </g>
    <g id="ytick_9">
     <g id="line2d_36">
      <g>
       <use xlink:href="#m46a28ffdb3" x="57.6" y="235.800463" style="stroke: #000000; stroke-width: 0.8"/>
      </g>
     </g>
     <g id="text_36">
      <!-- 6000 -->
      <g transform="translate(25.15 239.599682)scale(0.1 -0.1)">
       <use xlink:href="#DejaVuSans-36"/>
       <use xlink:href="#DejaVuSans-30" x="63.623047"/>
       <use xlink:href="#DejaVuSans-30" x="127.246094"/>
       <use xlink:href="#DejaVuSans-30" x="190.869141"/>
      </g>
     </g>
    </g>
    <g id="ytick_10">
     <g id="line2d_37">
      <g>
       <use xlink:href="#m46a28ffdb3" x="57.6" y="213.701662" style="stroke: #000000; stroke-width: 0.8"/>
      </g>
     </g>
     <g id="text_37">
      <!-- 8000 -->
      <g transform="translate(25.15 217.50088)scale(0.1 -0.1)">
       <use xlink:href="#DejaVuSans-38"/>
       <use xlink:href="#DejaVuSans-30" x="63.623047"/>
       <use xlink:href="#DejaVuSans-30" x="127.246094"/>
       <use xlink:href="#DejaVuSans-30" x="190.869141"/>
      </g>
     </g>
    </g>
    <g id="ytick_11">
     <g id="line2d_38">
      <g>
       <use xlink:href="#m46a28ffdb3" x="57.6" y="191.60286" style="stroke: #000000; stroke-width: 0.8"/>
      </g>
     </g>
     <g id="text_38">
      <!-- 10000 -->
      <g transform="translate(18.7875 195.402079)scale(0.1 -0.1)">
       <use xlink:href="#DejaVuSans-31"/>
       <use xlink:href="#DejaVuSans-30" x="63.623047"/>
       <use xlink:href="#DejaVuSans-30" x="127.246094"/>
       <use xlink:href="#DejaVuSans-30" x="190.869141"/>
       <use xlink:href="#DejaVuSans-30" x="254.492188"/>
      </g>
     </g>
    </g>
   </g>
   <g id="line2d_39">
    <path d="M 73.832727 302.085818 
L 158.68562 302.085818 
L 160.530248 301.920077 
L 162.374876 302.063719 
L 169.753388 302.041621 
L 173.442645 302.074769 
L 175.287273 301.776435 
L 177.131901 302.05267 
L 180.821157 301.975324 
L 184.510413 302.085818 
L 186.355041 301.710139 
L 188.199669 302.041621 
L 195.578182 301.986374 
L 197.42281 302.085818 
L 212.179835 301.842731 
L 214.024463 302.085818 
L 221.402975 302.05267 
L 223.247603 301.422854 
L 225.092231 301.820633 
L 226.93686 302.063719 
L 228.781488 301.246064 
L 230.626116 302.063719 
L 232.470744 301.732237 
L 234.315372 301.964275 
L 236.16 301.897978 
L 238.004628 302.041621 
L 239.849256 301.853781 
L 241.693884 301.920077 
L 243.538512 301.643842 
L 245.38314 302.030571 
L 247.227769 302.019522 
L 249.072397 301.002977 
L 250.917025 300.726742 
L 252.761653 301.964275 
L 254.606281 301.080323 
L 256.450909 301.168718 
L 258.295537 302.063719 
L 260.140165 301.953225 
L 261.984793 301.577546 
L 263.829421 301.886929 
L 265.67405 301.920077 
L 267.518678 299.047233 
L 269.363306 301.87588 
L 271.207934 301.721188 
L 273.052562 301.831682 
L 274.89719 301.157669 
L 276.741818 301.997423 
L 278.586446 301.268163 
L 280.431074 302.063719 
L 282.275702 301.433904 
L 284.120331 299.378715 
L 285.964959 299.367666 
L 287.809587 300.793038 
L 289.654215 301.146619 
L 291.498843 301.931127 
L 293.343471 301.157669 
L 295.188099 301.897978 
L 297.032727 301.643842 
L 298.877355 298.041738 
L 300.721983 302.008472 
L 302.566612 301.12452 
L 304.41124 301.478101 
L 306.255868 300.881433 
L 308.100496 301.467052 
L 309.945124 296.859452 
L 311.789752 286.053138 
L 313.63438 299.367666 
L 315.479008 296.384327 
L 317.323636 301.058224 
L 319.168264 293.235248 
L 321.012893 300.57205 
L 322.857521 300.561001 
L 326.546777 301.643842 
L 328.391405 295.544573 
L 330.236033 299.003035 
L 332.080661 297.190934 
L 333.925289 301.069273 
L 335.769917 301.743287 
L 337.614545 301.931127 
L 339.459174 299.179826 
L 341.303802 289.832033 
L 343.14843 300.085877 
L 344.993058 299.688098 
L 346.837686 298.759949 
L 348.682314 296.052845 
L 350.526942 301.301311 
L 352.37157 282.88196 
L 354.216198 301.997423 
L 356.060826 294.329139 
L 357.905455 299.069332 
L 359.750083 299.46711 
L 361.594711 300.119025 
L 363.439339 300.969829 
L 365.283967 293.56673 
L 367.128595 300.837236 
L 370.817851 300.130074 
L 372.662479 294.771115 
L 374.507107 295.666116 
L 376.351736 286.660855 
L 378.196364 292.704877 
L 380.040992 296.229636 
L 381.88562 301.036125 
L 383.730248 296.52797 
L 385.574876 237.778306 
L 387.419504 251.280673 
L 389.264132 236.474476 
L 391.10876 199.237996 
L 392.953388 192.122182 
L 394.798017 291.445245 
L 396.642645 294.649571 
L 398.487273 271.0812 
L 398.487273 271.0812 
" clip-path="url(#pa9981c0d39)" style="fill: none; stroke: #1f77b4; stroke-width: 1.5; stroke-linecap: square"/>
   </g>
   <g id="patch_8">
    <path d="M 57.6 307.584 
L 57.6 186.624 
" style="fill: none; stroke: #000000; stroke-width: 0.8; stroke-linejoin: miter; stroke-linecap: square"/>
   </g>
   <g id="patch_9">
    <path d="M 414.72 307.584 
L 414.72 186.624 
" style="fill: none; stroke: #000000; stroke-width: 0.8; stroke-linejoin: miter; stroke-linecap: square"/>
   </g>
   <g id="patch_10">
    <path d="M 57.6 307.584 
L 414.72 307.584 
" style="fill: none; stroke: #000000; stroke-width: 0.8; stroke-linejoin: miter; stroke-linecap: square"/>
   </g>
   <g id="patch_11">
    <path d="M 57.6 186.624 
L 414.72 186.624 
" style="fill: none; stroke: #000000; stroke-width: 0.8; stroke-linejoin: miter; stroke-linecap: square"/>
   </g>
  </g>
 </g>
 <defs>
  <clipPath id="pa4d1476490">
   <rect x="57.6" y="41.472" width="357.12" height="120.96"/>
  </clipPath>
  <clipPath id="pa9981c0d39">
   <rect x="57.6" y="186.624" width="357.12" height="120.96"/>
  </clipPath>
 </defs>
</svg>
