<?xml version="1.0" encoding="utf-8" standalone="no"?>
<!DOCTYPE svg PUBLIC "-//W3C//DTD SVG 1.1//EN"
  "http://www.w3.org/Graphics/SVG/1.1/DTD/svg11.dtd">
<svg xmlns:xlink="http://www.w3.org/1999/xlink" width="460.8pt" height="345.6pt" viewBox="0 0 460.8 345.6" xmlns="http://www.w3.org/2000/svg" version="1.1">
 <metadata>
  <rdf:RDF xmlns:dc="http://purl.org/dc/elements/1.1/" xmlns:cc="http://creativecommons.org/ns#" xmlns:rdf="http://www.w3.org/1999/02/22-rdf-syntax-ns#">
   <cc:Work>
    <dc:type rdf:resource="http://purl.org/dc/dcmitype/StillImage"/>
    <dc:date>2022-05-14T02:56:20.249657</dc:date>
    <dc:format>image/svg+xml</dc:format>
    <dc:creator>
     <cc:Agent>
      <dc:title>Matplotlib v3.5.1, https://matplotlib.org/</dc:title>
     </cc:Agent>
    </dc:creator>
   </cc:Work>
  </rdf:RDF>
 </metadata>
 <defs>
  <style type="text/css">*{stroke-linejoin: round; stroke-linecap: butt}</style>
 </defs>
 <g id="figure_1">
  <g id="patch_1">
   <path d="M 0 345.6 
L 460.8 345.6 
L 460.8 0 
L 0 0 
z
" style="fill: #ffffff"/>
  </g>
  <g id="axes_1">
   <g id="patch_2">
    <path d="M 57.6 162.432 
L 414.72 162.432 
L 414.72 41.472 
L 57.6 41.472 
z
" style="fill: #ffffff"/>
   </g>
   <g id="matplotlib.axis_1">
    <g id="xtick_1">
     <g id="line2d_1">
      <defs>
       <path id="mb3d426f18f" d="M 0 0 
L 0 3.5 
" style="stroke: #000000; stroke-width: 0.8"/>
      </defs>
      <g>
       <use xlink:href="#mb3d426f18f" x="73.827491" y="162.432" style="stroke: #000000; stroke-width: 0.8"/>
      </g>
     </g>
     <g id="text_1">
      <!-- 0 -->
      <g transform="translate(70.646241 177.030437)scale(0.1 -0.1)">
       <defs>
        <path id="DejaVuSans-30" d="M 2034 4250 
Q 1547 4250 1301 3770 
Q 1056 3291 1056 2328 
Q 1056 1369 1301 889 
Q 1547 409 2034 409 
Q 2525 409 2770 889 
Q 3016 1369 3016 2328 
Q 3016 3291 2770 3770 
Q 2525 4250 2034 4250 
z
M 2034 4750 
Q 2819 4750 3233 4129 
Q 3647 3509 3647 2328 
Q 3647 1150 3233 529 
Q 2819 -91 2034 -91 
Q 1250 -91 836 529 
Q 422 1150 422 2328 
Q 422 3509 836 4129 
Q 1250 4750 2034 4750 
z
" transform="scale(0.015625)"/>
       </defs>
       <use xlink:href="#DejaVuSans-30"/>
      </g>
     </g>
    </g>
    <g id="xtick_2">
     <g id="line2d_2">
      <g>
       <use xlink:href="#mb3d426f18f" x="126.191972" y="162.432" style="stroke: #000000; stroke-width: 0.8"/>
      </g>
     </g>
     <g id="text_2">
      <!-- 10000 -->
      <g transform="translate(110.285722 177.030437)scale(0.1 -0.1)">
       <defs>
        <path id="DejaVuSans-31" d="M 794 531 
L 1825 531 
L 1825 4091 
L 703 3866 
L 703 4441 
L 1819 4666 
L 2450 4666 
L 2450 531 
L 3481 531 
L 3481 0 
L 794 0 
L 794 531 
z
" transform="scale(0.015625)"/>
       </defs>
       <use xlink:href="#DejaVuSans-31"/>
       <use xlink:href="#DejaVuSans-30" x="63.623047"/>
       <use xlink:href="#DejaVuSans-30" x="127.246094"/>
       <use xlink:href="#DejaVuSans-30" x="190.869141"/>
       <use xlink:href="#DejaVuSans-30" x="254.492188"/>
      </g>
     </g>
    </g>
    <g id="xtick_3">
     <g id="line2d_3">
      <g>
       <use xlink:href="#mb3d426f18f" x="178.556453" y="162.432" style="stroke: #000000; stroke-width: 0.8"/>
      </g>
     </g>
     <g id="text_3">
      <!-- 20000 -->
      <g transform="translate(162.650203 177.030437)scale(0.1 -0.1)">
       <defs>
        <path id="DejaVuSans-32" d="M 1228 531 
L 3431 531 
L 3431 0 
L 469 0 
L 469 531 
Q 828 903 1448 1529 
Q 2069 2156 2228 2338 
Q 2531 2678 2651 2914 
Q 2772 3150 2772 3378 
Q 2772 3750 2511 3984 
Q 2250 4219 1831 4219 
Q 1534 4219 1204 4116 
Q 875 4013 500 3803 
L 500 4441 
Q 881 4594 1212 4672 
Q 1544 4750 1819 4750 
Q 2544 4750 2975 4387 
Q 3406 4025 3406 3419 
Q 3406 3131 3298 2873 
Q 3191 2616 2906 2266 
Q 2828 2175 2409 1742 
Q 1991 1309 1228 531 
z
" transform="scale(0.015625)"/>
       </defs>
       <use xlink:href="#DejaVuSans-32"/>
       <use xlink:href="#DejaVuSans-30" x="63.623047"/>
       <use xlink:href="#DejaVuSans-30" x="127.246094"/>
       <use xlink:href="#DejaVuSans-30" x="190.869141"/>
       <use xlink:href="#DejaVuSans-30" x="254.492188"/>
      </g>
     </g>
    </g>
    <g id="xtick_4">
     <g id="line2d_4">
      <g>
       <use xlink:href="#mb3d426f18f" x="230.920934" y="162.432" style="stroke: #000000; stroke-width: 0.8"/>
      </g>
     </g>
     <g id="text_4">
      <!-- 30000 -->
      <g transform="translate(215.014684 177.030437)scale(0.1 -0.1)">
       <defs>
        <path id="DejaVuSans-33" d="M 2597 2516 
Q 3050 2419 3304 2112 
Q 3559 1806 3559 1356 
Q 3559 666 3084 287 
Q 2609 -91 1734 -91 
Q 1441 -91 1130 -33 
Q 819 25 488 141 
L 488 750 
Q 750 597 1062 519 
Q 1375 441 1716 441 
Q 2309 441 2620 675 
Q 2931 909 2931 1356 
Q 2931 1769 2642 2001 
Q 2353 2234 1838 2234 
L 1294 2234 
L 1294 2753 
L 1863 2753 
Q 2328 2753 2575 2939 
Q 2822 3125 2822 3475 
Q 2822 3834 2567 4026 
Q 2313 4219 1838 4219 
Q 1578 4219 1281 4162 
Q 984 4106 628 3988 
L 628 4550 
Q 988 4650 1302 4700 
Q 1616 4750 1894 4750 
Q 2613 4750 3031 4423 
Q 3450 4097 3450 3541 
Q 3450 3153 3228 2886 
Q 3006 2619 2597 2516 
z
" transform="scale(0.015625)"/>
       </defs>
       <use xlink:href="#DejaVuSans-33"/>
       <use xlink:href="#DejaVuSans-30" x="63.623047"/>
       <use xlink:href="#DejaVuSans-30" x="127.246094"/>
       <use xlink:href="#DejaVuSans-30" x="190.869141"/>
       <use xlink:href="#DejaVuSans-30" x="254.492188"/>
      </g>
     </g>
    </g>
    <g id="xtick_5">
     <g id="line2d_5">
      <g>
       <use xlink:href="#mb3d426f18f" x="283.285415" y="162.432" style="stroke: #000000; stroke-width: 0.8"/>
      </g>
     </g>
     <g id="text_5">
      <!-- 40000 -->
      <g transform="translate(267.379165 177.030437)scale(0.1 -0.1)">
       <defs>
        <path id="DejaVuSans-34" d="M 2419 4116 
L 825 1625 
L 2419 1625 
L 2419 4116 
z
M 2253 4666 
L 3047 4666 
L 3047 1625 
L 3713 1625 
L 3713 1100 
L 3047 1100 
L 3047 0 
L 2419 0 
L 2419 1100 
L 313 1100 
L 313 1709 
L 2253 4666 
z
" transform="scale(0.015625)"/>
       </defs>
       <use xlink:href="#DejaVuSans-34"/>
       <use xlink:href="#DejaVuSans-30" x="63.623047"/>
       <use xlink:href="#DejaVuSans-30" x="127.246094"/>
       <use xlink:href="#DejaVuSans-30" x="190.869141"/>
       <use xlink:href="#DejaVuSans-30" x="254.492188"/>
      </g>
     </g>
    </g>
    <g id="xtick_6">
     <g id="line2d_6">
      <g>
       <use xlink:href="#mb3d426f18f" x="335.649896" y="162.432" style="stroke: #000000; stroke-width: 0.8"/>
      </g>
     </g>
     <g id="text_6">
      <!-- 50000 -->
      <g transform="translate(319.743646 177.030437)scale(0.1 -0.1)">
       <defs>
        <path id="DejaVuSans-35" d="M 691 4666 
L 3169 4666 
L 3169 4134 
L 1269 4134 
L 1269 2991 
Q 1406 3038 1543 3061 
Q 1681 3084 1819 3084 
Q 2600 3084 3056 2656 
Q 3513 2228 3513 1497 
Q 3513 744 3044 326 
Q 2575 -91 1722 -91 
Q 1428 -91 1123 -41 
Q 819 9 494 109 
L 494 744 
Q 775 591 1075 516 
Q 1375 441 1709 441 
Q 2250 441 2565 725 
Q 2881 1009 2881 1497 
Q 2881 1984 2565 2268 
Q 2250 2553 1709 2553 
Q 1456 2553 1204 2497 
Q 953 2441 691 2322 
L 691 4666 
z
" transform="scale(0.015625)"/>
       </defs>
       <use xlink:href="#DejaVuSans-35"/>
       <use xlink:href="#DejaVuSans-30" x="63.623047"/>
       <use xlink:href="#DejaVuSans-30" x="127.246094"/>
       <use xlink:href="#DejaVuSans-30" x="190.869141"/>
       <use xlink:href="#DejaVuSans-30" x="254.492188"/>
      </g>
     </g>
    </g>
    <g id="xtick_7">
     <g id="line2d_7">
      <g>
       <use xlink:href="#mb3d426f18f" x="388.014377" y="162.432" style="stroke: #000000; stroke-width: 0.8"/>
      </g>
     </g>
     <g id="text_7">
      <!-- 60000 -->
      <g transform="translate(372.108127 177.030437)scale(0.1 -0.1)">
       <defs>
        <path id="DejaVuSans-36" d="M 2113 2584 
Q 1688 2584 1439 2293 
Q 1191 2003 1191 1497 
Q 1191 994 1439 701 
Q 1688 409 2113 409 
Q 2538 409 2786 701 
Q 3034 994 3034 1497 
Q 3034 2003 2786 2293 
Q 2538 2584 2113 2584 
z
M 3366 4563 
L 3366 3988 
Q 3128 4100 2886 4159 
Q 2644 4219 2406 4219 
Q 1781 4219 1451 3797 
Q 1122 3375 1075 2522 
Q 1259 2794 1537 2939 
Q 1816 3084 2150 3084 
Q 2853 3084 3261 2657 
Q 3669 2231 3669 1497 
Q 3669 778 3244 343 
Q 2819 -91 2113 -91 
Q 1303 -91 875 529 
Q 447 1150 447 2328 
Q 447 3434 972 4092 
Q 1497 4750 2381 4750 
Q 2619 4750 2861 4703 
Q 3103 4656 3366 4563 
z
" transform="scale(0.015625)"/>
       </defs>
       <use xlink:href="#DejaVuSans-36"/>
       <use xlink:href="#DejaVuSans-30" x="63.623047"/>
       <use xlink:href="#DejaVuSans-30" x="127.246094"/>
       <use xlink:href="#DejaVuSans-30" x="190.869141"/>
       <use xlink:href="#DejaVuSans-30" x="254.492188"/>
      </g>
     </g>
    </g>
   </g>
   <g id="matplotlib.axis_2">
    <g id="ytick_1">
     <g id="line2d_8">
      <defs>
       <path id="m4af22df04a" d="M 0 0 
L -3.5 0 
" style="stroke: #000000; stroke-width: 0.8"/>
      </defs>
      <g>
       <use xlink:href="#m4af22df04a" x="57.6" y="154.866974" style="stroke: #000000; stroke-width: 0.8"/>
      </g>
     </g>
     <g id="text_8">
      <!-- 40 -->
      <g transform="translate(37.875 158.666192)scale(0.1 -0.1)">
       <use xlink:href="#DejaVuSans-34"/>
       <use xlink:href="#DejaVuSans-30" x="63.623047"/>
      </g>
     </g>
    </g>
    <g id="ytick_2">
     <g id="line2d_9">
      <g>
       <use xlink:href="#m4af22df04a" x="57.6" y="119.863959" style="stroke: #000000; stroke-width: 0.8"/>
      </g>
     </g>
     <g id="text_9">
      <!-- 60 -->
      <g transform="translate(37.875 123.663178)scale(0.1 -0.1)">
       <use xlink:href="#DejaVuSans-36"/>
       <use xlink:href="#DejaVuSans-30" x="63.623047"/>
      </g>
     </g>
    </g>
    <g id="ytick_3">
     <g id="line2d_10">
      <g>
       <use xlink:href="#m4af22df04a" x="57.6" y="84.860945" style="stroke: #000000; stroke-width: 0.8"/>
      </g>
     </g>
     <g id="text_10">
      <!-- 80 -->
      <g transform="translate(37.875 88.660164)scale(0.1 -0.1)">
       <defs>
        <path id="DejaVuSans-38" d="M 2034 2216 
Q 1584 2216 1326 1975 
Q 1069 1734 1069 1313 
Q 1069 891 1326 650 
Q 1584 409 2034 409 
Q 2484 409 2743 651 
Q 3003 894 3003 1313 
Q 3003 1734 2745 1975 
Q 2488 2216 2034 2216 
z
M 1403 2484 
Q 997 2584 770 2862 
Q 544 3141 544 3541 
Q 544 4100 942 4425 
Q 1341 4750 2034 4750 
Q 2731 4750 3128 4425 
Q 3525 4100 3525 3541 
Q 3525 3141 3298 2862 
Q 3072 2584 2669 2484 
Q 3125 2378 3379 2068 
Q 3634 1759 3634 1313 
Q 3634 634 3220 271 
Q 2806 -91 2034 -91 
Q 1263 -91 848 271 
Q 434 634 434 1313 
Q 434 1759 690 2068 
Q 947 2378 1403 2484 
z
M 1172 3481 
Q 1172 3119 1398 2916 
Q 1625 2713 2034 2713 
Q 2441 2713 2670 2916 
Q 2900 3119 2900 3481 
Q 2900 3844 2670 4047 
Q 2441 4250 2034 4250 
Q 1625 4250 1398 4047 
Q 1172 3844 1172 3481 
z
" transform="scale(0.015625)"/>
       </defs>
       <use xlink:href="#DejaVuSans-38"/>
       <use xlink:href="#DejaVuSans-30" x="63.623047"/>
      </g>
     </g>
    </g>
    <g id="ytick_4">
     <g id="line2d_11">
      <g>
       <use xlink:href="#m4af22df04a" x="57.6" y="49.857931" style="stroke: #000000; stroke-width: 0.8"/>
      </g>
     </g>
     <g id="text_11">
      <!-- 100 -->
      <g transform="translate(31.5125 53.657149)scale(0.1 -0.1)">
       <use xlink:href="#DejaVuSans-31"/>
       <use xlink:href="#DejaVuSans-30" x="63.623047"/>
       <use xlink:href="#DejaVuSans-30" x="127.246094"/>
      </g>
     </g>
    </g>
   </g>
   <g id="line2d_12">
    <path d="M 73.832727 51.608081 
L 73.837964 51.608081 
L 73.8432 51.170544 
L 73.874619 53.79577 
L 73.906038 53.445739 
L 74.036949 60.558852 
L 74.047422 60.558852 
L 74.152151 68.580376 
L 74.178333 67.413609 
L 74.183569 67.413609 
L 74.188806 66.830225 
L 74.24117 72.314031 
L 74.366845 78.03119 
L 74.387791 78.03119 
L 74.393027 77.447806 
L 74.398264 79.197957 
L 74.497756 78.03119 
L 74.534411 78.03119 
L 74.592012 77.447806 
L 74.597249 79.197957 
L 74.633904 78.614574 
L 74.722923 80.364724 
L 74.743869 79.197957 
L 74.775288 79.197957 
L 74.843362 80.948108 
L 74.885253 80.364724 
L 75.047583 80.364724 
L 75.168022 83.865026 
L 75.204677 83.865026 
L 75.262278 85.615176 
L 75.314642 83.865026 
L 75.419371 83.865026 
L 75.534573 83.281642 
L 75.586937 83.281642 
L 75.702139 85.031793 
L 75.723085 85.031793 
L 75.785922 84.448409 
L 75.791159 86.19856 
L 75.822578 86.19856 
L 75.853996 86.19856 
L 75.885415 89.115478 
L 75.969198 87.948711 
L 76.0844 87.948711 
L 76.199602 90.865629 
L 76.236257 90.865629 
L 76.351459 90.282245 
L 76.602808 90.282245 
L 76.71801 89.348831 
L 76.796557 89.348831 
L 76.911759 87.890372 
L 76.964123 87.890372 
L 77.063616 91.390674 
L 77.079325 90.80729 
L 77.13169 90.80729 
L 77.225946 92.557441 
L 77.241655 91.974057 
L 77.335911 91.974057 
L 77.456349 90.80729 
L 77.561078 92.557441 
L 77.566315 91.974057 
L 77.864792 91.974057 
L 77.979994 93.724208 
L 78.283708 93.724208 
L 78.39891 93.140825 
L 78.508875 93.140825 
L 78.624077 92.265749 
L 78.844008 92.265749 
L 78.95921 94.0159 
L 79.163431 94.0159 
L 79.278633 95.766051 
L 79.535219 95.766051 
L 79.650421 97.516201 
L 80.268322 97.516201 
L 80.383524 96.932818 
L 80.462071 96.932818 
L 80.488253 98.682968 
L 80.572036 98.099585 
L 81.687399 98.099585 
L 81.802601 96.641126 
L 82.938911 96.641126 
L 83.054112 96.057742 
L 83.132659 96.057742 
L 83.247861 97.807893 
L 83.562048 97.807893 
L 83.67725 97.22451 
L 84.352751 97.22451 
L 84.467953 96.874479 
L 86.159326 96.874479 
L 86.274528 98.62463 
L 87.834989 98.62463 
L 87.950191 100.374781 
L 90.196628 100.374781 
L 90.311829 99.791397 
L 90.442741 99.791397 
L 90.557942 101.541548 
L 90.835474 101.541548 
L 90.950676 100.666473 
L 92.443064 100.666473 
L 92.558266 102.416623 
L 96.611276 102.416623 
L 96.700296 101.83324 
L 96.705533 103.58339 
L 96.710769 103.58339 
L 96.810262 103.58339 
L 96.925463 105.333541 
L 97.323433 105.333541 
L 97.438635 104.750158 
L 99.616998 104.750158 
L 99.7322 104.458466 
L 100.648578 104.458466 
L 100.76378 106.208617 
L 103.073053 106.208617 
L 103.188255 105.625233 
L 104.240781 105.625233 
L 104.355983 107.375384 
L 111.707956 107.375384 
L 111.823158 109.125534 
L 114.226688 109.125534 
L 114.34189 108.542151 
L 114.535638 108.542151 
L 114.65084 107.958767 
L 118.578176 107.958767 
L 118.693378 109.708918 
L 119.410771 109.708918 
L 119.525973 109.125534 
L 121.096908 109.125534 
L 121.21211 108.542151 
L 134.879239 108.542151 
L 134.994441 110.292302 
L 135.633288 110.292302 
L 135.74849 109.708918 
L 136.465883 109.708918 
L 136.581085 109.125534 
L 138.581408 109.125534 
L 138.69661 110.875685 
L 145.71345 110.875685 
L 145.828652 110.292302 
L 148.98623 110.292302 
L 149.101432 109.417226 
L 152.363739 109.417226 
L 152.478941 111.167377 
L 167.9893 111.167377 
L 168.104502 110.583993 
L 175.137052 110.583993 
L 175.252254 112.334144 
L 178.975369 112.334144 
L 179.09057 111.750761 
L 195.63251 111.750761 
L 195.747712 111.167377 
L 199.256132 111.167377 
L 199.371334 112.917528 
L 218.149237 112.917528 
L 218.264439 114.667678 
L 220.767461 114.667678 
L 220.882663 114.084295 
L 246.98112 114.084295 
L 247.096322 115.834446 
L 257.914824 115.834446 
L 258.030025 115.251062 
L 262.643336 115.251062 
L 262.758538 114.375987 
L 264.135724 114.375987 
L 264.250926 113.792603 
L 267.722691 113.792603 
L 267.837893 115.542754 
L 324.747611 115.542754 
L 324.862813 114.95937 
L 331.282698 114.95937 
L 331.3979 114.375987 
L 398.487273 114.375987 
L 398.487273 114.375987 
" clip-path="url(#p56b1706109)" style="fill: none; stroke: #1f77b4; stroke-width: 1.5; stroke-linecap: square"/>
   </g>
   <g id="line2d_13">
    <path d="M 73.832727 49.857931 
L 73.837964 49.857931 
L 73.869382 48.10778 
L 73.947929 49.857931 
L 74.042185 51.608081 
L 74.057895 51.024698 
L 74.110259 51.024698 
L 74.225461 52.774848 
L 74.277825 52.774848 
L 74.408737 60.650527 
L 74.413973 60.650527 
L 74.534411 65.025903 
L 74.555357 65.025903 
L 74.670559 63.275753 
L 74.790997 66.776054 
L 74.796234 66.776054 
L 74.859071 65.900979 
L 74.864308 67.651129 
L 74.900963 67.651129 
L 74.927145 67.651129 
L 75.042347 65.025903 
L 75.094711 65.025903 
L 75.21515 68.526205 
L 75.335588 68.526205 
L 75.456026 66.776054 
L 75.655011 66.776054 
L 75.691666 69.40128 
L 75.770213 68.526205 
L 75.84876 68.526205 
L 75.963962 67.651129 
L 76.32004 67.651129 
L 76.435242 66.776054 
L 76.707537 66.776054 
L 76.822739 69.40128 
L 76.964123 69.40128 
L 77.026961 72.026506 
L 77.074089 69.40128 
L 77.13169 69.40128 
L 77.194527 71.151431 
L 77.241655 70.276356 
L 77.550605 70.276356 
L 77.665807 69.40128 
L 77.817664 69.40128 
L 77.932866 68.526205 
L 78.508875 68.526205 
L 78.624077 67.651129 
L 79.535219 67.651129 
L 79.650421 69.40128 
L 81.687399 69.40128 
L 81.802601 68.526205 
L 82.897019 68.526205 
L 83.012221 67.651129 
L 83.415427 67.651129 
L 83.530629 69.40128 
L 85.227238 69.40128 
L 85.34244 67.651129 
L 87.834989 67.651129 
L 87.950191 69.40128 
L 90.442741 69.40128 
L 90.557942 71.151431 
L 90.835474 71.151431 
L 90.950676 70.276356 
L 92.579211 70.276356 
L 92.694413 69.40128 
L 96.323272 69.40128 
L 96.438474 67.651129 
L 96.810262 67.651129 
L 96.925463 69.40128 
L 99.616998 69.40128 
L 99.7322 71.151431 
L 111.707956 71.151431 
L 111.823158 72.901582 
L 111.844104 72.901582 
L 111.959306 72.026506 
L 115.132593 72.026506 
L 115.247795 71.151431 
L 116.384104 71.151431 
L 116.499306 70.276356 
L 134.879239 70.276356 
L 134.994441 72.026506 
L 135.072988 72.026506 
L 135.18819 71.151431 
L 138.581408 71.151431 
L 138.69661 72.901582 
L 139.220255 72.901582 
L 139.335456 72.026506 
L 148.98623 72.026506 
L 149.101432 71.151431 
L 167.91599 71.151431 
L 168.031192 70.276356 
L 215.913273 70.276356 
L 216.028475 72.026506 
L 218.149237 72.026506 
L 218.264439 73.776657 
L 220.563239 73.776657 
L 220.678441 72.901582 
L 262.643336 72.901582 
L 262.758538 72.026506 
L 300.241034 72.026506 
L 300.356235 73.776657 
L 304.435428 73.776657 
L 304.55063 72.901582 
L 323.459444 72.901582 
L 323.574646 72.026506 
L 398.487273 72.026506 
L 398.487273 72.026506 
" clip-path="url(#p56b1706109)" style="fill: none; stroke: #ff7f0e; stroke-width: 1.5; stroke-linecap: square"/>
   </g>
   <g id="line2d_14">
    <path d="M 73.832727 51.608081 
L 73.8432 51.608081 
L 73.984584 65.738465 
L 73.995057 65.300927 
L 74.00553 65.300927 
L 74.010767 65.050906 
L 74.031712 67.38444 
L 74.042185 67.38444 
L 74.152151 76.222701 
L 74.173096 75.055934 
L 74.183569 75.055934 
L 74.188806 74.47255 
L 74.24117 79.723002 
L 74.25688 79.139619 
L 74.382554 84.390071 
L 74.387791 84.390071 
L 74.434919 81.910691 
L 74.508229 83.077458 
L 74.534411 83.077458 
L 74.555357 82.494074 
L 74.597249 85.994376 
L 74.602485 85.994376 
L 74.670559 88.911294 
L 74.717687 88.32791 
L 74.722923 88.32791 
L 74.796234 87.161143 
L 74.80147 88.911294 
L 74.827652 88.911294 
L 74.843362 88.911294 
L 74.927145 87.890372 
L 74.932381 89.640523 
L 74.942854 89.640523 
L 74.953327 89.640523 
L 75.073765 93.140825 
L 75.094711 93.140825 
L 75.099948 92.790794 
L 75.115657 96.291096 
L 75.157549 96.291096 
L 75.173258 96.291096 
L 75.298933 94.832637 
L 75.304169 94.832637 
L 75.335588 93.66587 
L 75.36177 97.166171 
L 75.393189 97.166171 
L 75.419371 97.166171 
L 75.534573 96.582788 
L 75.586937 96.582788 
L 75.707376 100.958164 
L 75.723085 100.958164 
L 75.785922 100.374781 
L 75.791159 102.124932 
L 75.822578 102.124932 
L 75.84876 102.124932 
L 75.885415 106.792 
L 75.969198 105.625233 
L 76.0844 105.625233 
L 76.199602 108.542151 
L 76.236257 108.542151 
L 76.32004 107.958767 
L 76.325277 109.708918 
L 76.335749 109.708918 
L 76.602808 109.708918 
L 76.71801 108.775504 
L 76.796557 108.775504 
L 76.801793 110.525655 
L 76.906522 109.592241 
L 76.964123 109.592241 
L 77.011251 109.154704 
L 77.032197 112.217467 
L 77.04267 112.217467 
L 77.053143 112.217467 
L 77.063616 113.967618 
L 77.163108 112.946697 
L 77.194527 112.946697 
L 77.225946 114.696848 
L 77.304492 114.113464 
L 77.335911 114.113464 
L 77.456349 112.946697 
L 77.561078 116.446998 
L 77.571551 115.863615 
L 77.817664 115.863615 
L 77.938103 119.363916 
L 78.283708 119.363916 
L 78.39891 118.780533 
L 78.844008 118.780533 
L 78.95921 120.530683 
L 79.163431 120.530683 
L 79.278633 122.280834 
L 79.535219 122.280834 
L 79.650421 121.843296 
L 80.268322 121.843296 
L 80.383524 121.259913 
L 80.462071 121.259913 
L 80.488253 123.010063 
L 80.572036 122.42668 
L 81.687399 122.42668 
L 81.771183 124.176831 
L 81.797365 123.593447 
L 82.897019 123.593447 
L 82.938911 125.343598 
L 83.006984 124.760214 
L 83.132659 124.760214 
L 83.247861 126.510365 
L 83.415427 126.510365 
L 83.530629 126.072827 
L 83.562048 126.072827 
L 83.67725 125.489444 
L 85.227238 125.489444 
L 85.34244 127.239594 
L 86.159326 127.239594 
L 86.274528 128.989745 
L 87.834989 128.989745 
L 87.950191 128.552207 
L 90.196628 128.552207 
L 90.311829 127.968824 
L 90.442741 127.968824 
L 90.557942 127.531286 
L 90.835474 127.531286 
L 90.950676 129.281437 
L 92.443064 129.281437 
L 92.558266 131.031588 
L 92.579211 131.031588 
L 92.694413 132.781738 
L 96.323272 132.781738 
L 96.438474 134.531889 
L 96.611276 134.531889 
L 96.700296 133.948505 
L 96.705533 135.698656 
L 96.710769 135.698656 
L 96.810262 135.698656 
L 96.925463 135.261118 
L 97.323433 135.261118 
L 97.438635 134.677735 
L 99.616998 134.677735 
L 99.7322 134.386043 
L 100.648578 134.386043 
L 100.76378 136.136194 
L 103.073053 136.136194 
L 103.188255 135.55281 
L 104.240781 135.55281 
L 104.355983 137.302961 
L 111.707956 137.302961 
L 111.823158 136.865423 
L 111.844104 136.865423 
L 111.959306 138.615574 
L 114.226688 138.615574 
L 114.34189 138.03219 
L 114.535638 138.03219 
L 114.65084 137.448807 
L 115.132593 137.448807 
L 115.247795 139.198958 
L 116.384104 139.198958 
L 116.499306 140.949108 
L 118.578176 140.949108 
L 118.693378 142.699259 
L 119.410771 142.699259 
L 119.525973 142.115875 
L 121.096908 142.115875 
L 121.21211 141.532492 
L 134.879239 141.532492 
L 134.994441 141.094954 
L 135.072988 141.094954 
L 135.18819 142.845105 
L 135.633288 142.845105 
L 135.74849 142.261721 
L 136.465883 142.261721 
L 136.581085 141.678338 
L 138.581408 141.678338 
L 138.69661 141.2408 
L 139.220255 141.2408 
L 139.335456 142.990951 
L 145.71345 142.990951 
L 145.828652 142.407567 
L 148.98623 142.407567 
L 149.101432 144.157718 
L 152.363739 144.157718 
L 152.478941 145.907869 
L 167.91599 145.907869 
L 167.9893 147.658019 
L 168.025956 147.074636 
L 175.137052 147.074636 
L 175.252254 148.824787 
L 178.975369 148.824787 
L 179.09057 148.241403 
L 195.63251 148.241403 
L 195.747712 147.658019 
L 199.256132 147.658019 
L 199.371334 149.40817 
L 215.913273 149.40817 
L 216.028475 149.05814 
L 218.149237 149.05814 
L 218.264439 148.620602 
L 220.563239 148.620602 
L 220.678441 150.370753 
L 220.767461 150.370753 
L 220.882663 149.787369 
L 246.98112 149.787369 
L 247.096322 151.53752 
L 257.914824 151.53752 
L 258.030025 150.954137 
L 262.643336 150.954137 
L 262.758538 152.704287 
L 264.135724 152.704287 
L 264.250926 152.120904 
L 267.722691 152.120904 
L 267.837893 153.871054 
L 300.241034 153.871054 
L 300.356235 153.433517 
L 304.435428 153.433517 
L 304.55063 155.183667 
L 323.459444 155.183667 
L 323.574646 156.933818 
L 324.747611 156.933818 
L 324.862813 156.350435 
L 331.282698 156.350435 
L 331.3979 155.767051 
L 398.487273 155.767051 
L 398.487273 155.767051 
" clip-path="url(#p56b1706109)" style="fill: none; stroke: #2ca02c; stroke-width: 1.5; stroke-linecap: square"/>
   </g>
   <g id="line2d_15">
    <path d="M 73.832727 49.857931 
L 73.837964 49.857931 
L 73.942693 55.720935 
L 73.963638 55.470914 
L 73.989821 55.470914 
L 74.042185 54.870862 
L 74.047422 56.621013 
L 74.099786 55.454246 
L 74.110259 55.454246 
L 74.115495 55.104216 
L 74.141678 58.604517 
L 74.178333 58.021133 
L 74.199279 58.021133 
L 74.230697 57.08772 
L 74.246407 60.588021 
L 74.304008 58.48784 
L 74.319717 58.48784 
L 74.445392 57.262735 
L 74.49252 57.262735 
L 74.607722 56.825197 
L 74.775288 56.825197 
L 74.895726 55.950122 
L 75.094711 55.950122 
L 75.209913 55.600092 
L 75.655011 55.600092 
L 75.770213 55.162554 
L 76.707537 55.162554 
L 76.827976 54.462494 
L 83.415427 54.462494 
L 83.530629 54.024956 
L 84.352751 54.024956 
L 84.467953 53.674926 
L 99.616998 53.674926 
L 99.7322 53.383234 
L 215.913273 53.383234 
L 216.028475 53.033204 
L 300.241034 53.033204 
L 300.356235 52.595666 
L 398.487273 52.595666 
L 398.487273 52.595666 
" clip-path="url(#p56b1706109)" style="fill: none; stroke: #d62728; stroke-width: 1.5; stroke-linecap: square"/>
   </g>
   <g id="line2d_16">
    <path d="M 73.832727 51.608081 
L 73.926983 58.171146 
L 73.958402 57.337741 
L 74.00553 57.337741 
L 74.042185 56.504336 
L 74.063131 59.712946 
L 74.068367 59.712946 
L 74.07884 59.421254 
L 74.115495 62.921555 
L 74.120732 62.921555 
L 74.125968 62.921555 
L 74.146914 62.338172 
L 74.204515 65.838473 
L 74.209752 65.838473 
L 74.214988 65.838473 
L 74.25688 63.504939 
L 74.298771 67.005241 
L 74.31448 67.005241 
L 74.361609 67.005241 
L 74.455865 68.901237 
L 74.471574 68.317854 
L 74.49252 68.317854 
L 74.607722 72.984922 
L 74.612958 72.401539 
L 74.722923 72.401539 
L 74.796234 71.234771 
L 74.80147 72.984922 
L 74.827652 72.984922 
L 74.843362 72.984922 
L 74.953327 72.401539 
L 75.068529 74.151689 
L 75.094711 74.151689 
L 75.209913 73.801659 
L 75.262278 73.801659 
L 75.335588 72.051508 
L 75.356534 73.801659 
L 75.419371 75.55181 
L 75.466499 74.968426 
L 75.670721 74.968426 
L 75.723085 78.03119 
L 75.785922 77.447806 
L 75.84876 77.447806 
L 75.859233 79.197957 
L 75.958725 77.447806 
L 76.131528 77.447806 
L 76.251966 76.281039 
L 76.32004 76.281039 
L 76.435242 78.03119 
L 76.602808 78.03119 
L 76.71801 77.447806 
L 76.885577 77.447806 
L 77.000778 76.864423 
L 77.011251 76.864423 
L 77.063616 80.364724 
L 77.126453 79.781341 
L 77.194527 79.781341 
L 77.225946 81.531491 
L 77.304492 80.948108 
L 77.335911 80.948108 
L 77.456349 79.781341 
L 77.550605 79.781341 
L 77.561078 81.531491 
L 77.660571 80.948108 
L 77.817664 80.948108 
L 77.932866 82.698259 
L 78.283708 82.698259 
L 78.39891 82.114875 
L 80.268322 82.114875 
L 80.383524 81.531491 
L 80.488253 81.531491 
L 80.603455 80.948108 
L 81.687399 80.948108 
L 81.771183 82.698259 
L 81.797365 82.114875 
L 82.897019 82.114875 
L 82.938911 83.865026 
L 83.006984 83.281642 
L 83.562048 83.281642 
L 83.67725 82.698259 
L 90.196628 82.698259 
L 90.311829 82.114875 
L 90.835474 82.114875 
L 90.950676 83.865026 
L 92.579211 83.865026 
L 92.694413 85.615176 
L 96.611276 85.615176 
L 96.726478 85.031793 
L 97.323433 85.031793 
L 97.438635 84.448409 
L 103.073053 84.448409 
L 103.188255 83.865026 
L 111.844104 83.865026 
L 111.959306 85.615176 
L 114.226688 85.615176 
L 114.34189 85.031793 
L 114.535638 85.031793 
L 114.65084 84.448409 
L 115.132593 84.448409 
L 115.247795 86.19856 
L 116.384104 86.19856 
L 116.499306 87.948711 
L 119.410771 87.948711 
L 119.525973 87.365327 
L 121.096908 87.365327 
L 121.21211 86.781944 
L 135.072988 86.781944 
L 135.18819 88.532094 
L 135.633288 88.532094 
L 135.74849 87.948711 
L 136.465883 87.948711 
L 136.581085 87.365327 
L 139.220255 87.365327 
L 139.335456 89.115478 
L 145.71345 89.115478 
L 145.828652 88.532094 
L 167.91599 88.532094 
L 167.9893 90.282245 
L 168.025956 89.698861 
L 178.975369 89.698861 
L 179.09057 89.115478 
L 195.63251 89.115478 
L 195.747712 88.532094 
L 220.563239 88.532094 
L 220.678441 90.282245 
L 220.767461 90.282245 
L 220.882663 89.698861 
L 257.914824 89.698861 
L 258.030025 89.115478 
L 262.643336 89.115478 
L 262.758538 90.865629 
L 264.135724 90.865629 
L 264.250926 90.282245 
L 304.435428 90.282245 
L 304.55063 92.032396 
L 323.459444 92.032396 
L 323.574646 93.782546 
L 324.747611 93.782546 
L 324.862813 93.199163 
L 331.282698 93.199163 
L 331.3979 92.615779 
L 398.487273 92.615779 
L 398.487273 92.615779 
" clip-path="url(#p56b1706109)" style="fill: none; stroke: #9467bd; stroke-width: 1.5; stroke-linecap: square"/>
   </g>
   <g id="line2d_17">
    <path d="M 73.832727 49.5079 
L 73.837964 48.924517 
L 73.869382 55.487582 
L 73.890328 54.612507 
L 74.010767 63.392429 
L 74.021239 62.954892 
L 74.042185 62.954892 
L 74.068367 68.205344 
L 74.162624 67.126084 
L 74.173096 67.126084 
L 74.209752 66.542701 
L 74.214988 68.292851 
L 74.262116 68.292851 
L 74.345899 71.209769 
L 74.377318 70.772232 
L 74.393027 70.772232 
L 74.518702 69.313773 
L 74.670559 69.313773 
L 74.785761 68.730389 
L 75.173258 68.730389 
L 75.293696 67.855314 
L 75.681193 67.855314 
L 75.796395 67.417776 
L 76.964123 67.417776 
L 77.084562 66.542701 
L 77.13169 66.542701 
L 77.246891 66.105163 
L 79.535219 66.105163 
L 79.650421 65.667625 
L 84.352751 65.667625 
L 84.467953 67.417776 
L 87.834989 67.417776 
L 87.950191 66.980238 
L 90.442741 66.980238 
L 90.557942 66.542701 
L 96.810262 66.542701 
L 96.925463 66.105163 
L 111.707956 66.105163 
L 111.823158 65.667625 
L 134.879239 65.667625 
L 134.994441 65.230088 
L 138.581408 65.230088 
L 138.69661 64.79255 
L 218.149237 64.79255 
L 218.264439 64.355012 
L 398.487273 64.355012 
L 398.487273 64.355012 
" clip-path="url(#p56b1706109)" style="fill: none; stroke: #8c564b; stroke-width: 1.5; stroke-linecap: square"/>
   </g>
   <g id="line2d_18">
    <path d="M 73.832727 51.608081 
L 73.995057 70.055503 
L 74.000294 70.055503 
L 74.152151 84.973455 
L 74.173096 84.973455 
L 74.298771 92.58661 
L 74.304008 92.149072 
L 74.319717 92.149072 
L 74.345899 91.361505 
L 74.398264 94.861806 
L 74.49252 97.92457 
L 74.513466 97.487032 
L 74.670559 97.487032 
L 74.775288 99.237183 
L 74.780524 98.799645 
L 74.859071 98.799645 
L 74.927145 98.362108 
L 74.932381 100.112258 
L 74.953327 100.112258 
L 75.094711 100.112258 
L 75.099948 99.762228 
L 75.105184 101.512379 
L 75.173258 101.512379 
L 75.293696 105.01268 
L 75.655011 105.01268 
L 75.681193 104.575143 
L 75.68643 106.325293 
L 75.749267 106.325293 
L 76.707537 106.325293 
L 76.796557 105.975263 
L 76.801793 107.725414 
L 76.911759 107.375384 
L 76.964123 107.375384 
L 77.089798 112.625836 
L 77.13169 112.625836 
L 77.246891 114.375987 
L 78.508875 114.375987 
L 78.624077 116.126137 
L 79.535219 116.126137 
L 79.650421 117.876288 
L 81.687399 117.876288 
L 81.802601 119.626439 
L 83.415427 119.626439 
L 83.530629 119.188901 
L 84.352751 119.188901 
L 84.467953 118.838871 
L 85.227238 118.838871 
L 85.34244 120.589022 
L 87.834989 120.589022 
L 87.950191 122.339172 
L 90.442741 122.339172 
L 90.557942 124.089323 
L 90.835474 124.089323 
L 90.950676 125.839474 
L 96.323272 125.839474 
L 96.438474 127.589624 
L 96.810262 127.589624 
L 96.925463 129.339775 
L 99.616998 129.339775 
L 99.7322 129.048083 
L 111.707956 129.048083 
L 111.823158 130.798234 
L 134.879239 130.798234 
L 134.994441 132.548385 
L 138.581408 132.548385 
L 138.69661 134.298536 
L 148.98623 134.298536 
L 149.101432 136.048686 
L 215.913273 136.048686 
L 216.028475 135.698656 
L 218.149237 135.698656 
L 218.264439 137.448807 
L 262.643336 137.448807 
L 262.758538 139.198958 
L 300.241034 139.198958 
L 300.356235 138.76142 
L 398.487273 138.76142 
L 398.487273 138.76142 
" clip-path="url(#p56b1706109)" style="fill: none; stroke: #e377c2; stroke-width: 1.5; stroke-linecap: square"/>
   </g>
   <g id="line2d_19">
    <path d="M 73.832727 49.5079 
L 73.837964 48.924517 
L 73.869382 55.487582 
L 73.895565 54.612507 
L 73.900801 54.612507 
L 74.010767 59.308744 
L 74.021239 58.871207 
L 74.042185 58.287823 
L 74.063131 63.538275 
L 74.09455 62.809046 
L 74.110259 62.809046 
L 74.209752 58.667022 
L 74.262116 58.958714 
L 74.345899 61.875632 
L 74.377318 61.438094 
L 74.393027 61.438094 
L 74.518702 59.979635 
L 74.670559 59.979635 
L 74.785761 59.396252 
L 75.173258 59.396252 
L 75.293696 58.521177 
L 75.681193 58.521177 
L 75.796395 58.083639 
L 76.964123 58.083639 
L 77.084562 57.208564 
L 77.13169 57.208564 
L 77.246891 56.771026 
L 79.535219 56.771026 
L 79.650421 56.333488 
L 84.352751 56.333488 
L 84.467953 58.083639 
L 87.834989 58.083639 
L 87.950191 57.646101 
L 90.442741 57.646101 
L 90.557942 57.208564 
L 96.810262 57.208564 
L 96.925463 56.771026 
L 111.707956 56.771026 
L 111.823158 56.333488 
L 134.879239 56.333488 
L 134.994441 55.89595 
L 138.581408 55.89595 
L 138.69661 55.458413 
L 218.149237 55.458413 
L 218.264439 55.020875 
L 398.487273 55.020875 
L 398.487273 55.020875 
" clip-path="url(#p56b1706109)" style="fill: none; stroke: #7f7f7f; stroke-width: 1.5; stroke-linecap: square"/>
   </g>
   <g id="line2d_20">
    <path d="M 73.832727 49.5079 
L 73.968875 58.329493 
L 73.984584 56.871034 
L 74.026476 63.184078 
L 74.042185 62.309003 
L 74.047422 62.309003 
L 74.068367 60.850544 
L 74.120732 66.392688 
L 74.188806 71.934832 
L 74.246407 71.876493 
L 74.262116 71.876493 
L 74.345899 69.86382 
L 74.298771 71.964001 
L 74.372081 71.613971 
L 74.393027 71.613971 
L 74.49252 76.426885 
L 74.513466 75.989348 
L 74.592012 75.989348 
L 74.670559 74.239197 
L 74.701978 75.989348 
L 74.775288 75.989348 
L 74.895726 75.114272 
L 74.927145 75.114272 
L 75.042347 76.864423 
L 75.047583 76.864423 
L 75.099948 75.639317 
L 75.105184 77.389468 
L 75.157549 76.514393 
L 75.173258 76.514393 
L 75.293696 80.014694 
L 75.586937 80.014694 
L 75.681193 78.702081 
L 75.68643 80.452232 
L 75.691666 80.452232 
L 75.785922 80.452232 
L 75.911597 77.827006 
L 76.0844 77.827006 
L 76.204838 76.076855 
L 76.707537 76.076855 
L 76.796557 75.726825 
L 76.801793 77.476976 
L 76.911759 77.126945 
L 76.964123 77.126945 
L 77.089798 82.377398 
L 77.13169 82.377398 
L 77.246891 84.127548 
L 77.456349 84.127548 
L 77.571551 83.252473 
L 77.864792 83.252473 
L 77.979994 82.377398 
L 78.508875 82.377398 
L 78.624077 84.127548 
L 78.844008 84.127548 
L 78.95921 83.252473 
L 79.163431 83.252473 
L 79.278633 82.377398 
L 79.535219 82.377398 
L 79.650421 84.127548 
L 80.462071 84.127548 
L 80.577272 83.252473 
L 81.687399 83.252473 
L 81.802601 85.002624 
L 83.132659 85.002624 
L 83.247861 84.127548 
L 83.415427 84.127548 
L 83.530629 83.690011 
L 84.352751 83.690011 
L 84.467953 83.339981 
L 85.227238 83.339981 
L 85.34244 85.090131 
L 86.159326 85.090131 
L 86.274528 84.215056 
L 87.834989 84.215056 
L 87.950191 85.965207 
L 90.442741 85.965207 
L 90.557942 87.715357 
L 90.835474 87.715357 
L 90.950676 89.465508 
L 92.443064 89.465508 
L 92.558266 88.590433 
L 96.323272 88.590433 
L 96.438474 90.340583 
L 96.700296 90.340583 
L 96.810262 89.465508 
L 96.925463 91.215659 
L 99.616998 91.215659 
L 99.7322 90.923967 
L 100.648578 90.923967 
L 100.76378 90.048892 
L 104.240781 90.048892 
L 104.355983 89.173816 
L 111.707956 89.173816 
L 111.823158 90.923967 
L 118.578176 90.923967 
L 118.693378 90.048892 
L 134.879239 90.048892 
L 134.994441 91.799042 
L 138.581408 91.799042 
L 138.69661 93.549193 
L 148.98623 93.549193 
L 149.101432 95.299344 
L 152.363739 95.299344 
L 152.478941 94.424268 
L 175.137052 94.424268 
L 175.252254 93.549193 
L 199.256132 93.549193 
L 199.371334 92.674118 
L 215.913273 92.674118 
L 216.028475 92.324088 
L 218.149237 92.324088 
L 218.264439 94.074238 
L 246.98112 94.074238 
L 247.096322 93.199163 
L 262.643336 93.199163 
L 262.758538 94.949314 
L 267.722691 94.949314 
L 267.837893 94.074238 
L 300.241034 94.074238 
L 300.356235 93.636701 
L 398.487273 93.636701 
L 398.487273 93.636701 
" clip-path="url(#p56b1706109)" style="fill: none; stroke: #bcbd22; stroke-width: 1.5; stroke-linecap: square"/>
   </g>
   <g id="line2d_21">
    <path d="M 73.832727 49.5079 
L 73.837964 48.924517 
L 73.869382 55.487582 
L 73.890328 54.612507 
L 73.979348 59.80462 
L 74.010767 59.746282 
L 74.016003 59.308744 
L 74.073604 63.684121 
L 74.07884 63.684121 
L 74.120732 61.000557 
L 74.157387 66.542701 
L 74.162624 66.542701 
L 74.272589 74.126687 
L 74.293535 73.251612 
L 74.387791 72.230691 
L 74.33019 74.418379 
L 74.4035 72.95992 
L 74.419209 72.95992 
L 74.544884 78.64791 
L 74.555357 78.64791 
L 74.607722 76.022684 
L 74.675795 76.897759 
L 74.722923 76.897759 
L 74.775288 80.398061 
L 74.838125 79.085447 
L 74.843362 79.085447 
L 74.953327 80.835598 
L 75.073765 79.085447 
L 75.110421 79.085447 
L 75.230859 77.335297 
L 75.262278 77.335297 
L 75.335588 82.585749 
L 75.382716 80.835598 
L 75.419371 80.835598 
L 75.534573 82.585749 
L 75.586937 82.585749 
L 75.681193 80.835598 
L 75.702139 81.710674 
L 75.723085 81.710674 
L 75.785922 83.460824 
L 75.83305 82.585749 
L 75.84876 82.585749 
L 75.859233 80.835598 
L 75.890651 83.460824 
L 75.943016 83.460824 
L 76.058218 85.210975 
L 76.0844 85.210975 
L 76.131528 84.3359 
L 76.136764 86.08605 
L 76.194365 85.210975 
L 76.236257 85.210975 
L 76.32004 86.961126 
L 76.346222 86.08605 
L 76.602808 86.08605 
L 76.71801 87.836201 
L 76.801793 87.836201 
L 76.885577 87.486171 
L 76.890813 89.236322 
L 76.964123 89.236322 
L 77.063616 86.611096 
L 77.084562 88.361246 
L 77.13169 88.361246 
L 77.225946 87.048633 
L 77.231182 88.798784 
L 77.236419 88.798784 
L 77.335911 88.798784 
L 77.456349 92.299085 
L 77.561078 90.548935 
L 77.566315 92.299085 
L 77.817664 92.299085 
L 77.938103 90.548935 
L 78.283708 90.548935 
L 78.39891 92.299085 
L 78.508875 92.299085 
L 78.624077 94.049236 
L 78.844008 94.049236 
L 78.95921 93.174161 
L 79.163431 93.174161 
L 79.278633 92.299085 
L 79.535219 92.299085 
L 79.650421 91.861548 
L 80.268322 91.861548 
L 80.383524 93.611698 
L 80.462071 93.611698 
L 80.488253 92.736623 
L 80.493489 94.486774 
L 80.5668 94.486774 
L 81.771183 94.486774 
L 81.886384 96.236925 
L 82.897019 96.236925 
L 82.938911 95.361849 
L 82.944147 97.112 
L 83.001748 97.112 
L 83.132659 97.112 
L 83.247861 96.236925 
L 83.562048 96.236925 
L 83.67725 97.987075 
L 84.352751 97.987075 
L 84.467953 99.737226 
L 86.159326 99.737226 
L 86.274528 98.862151 
L 87.834989 98.862151 
L 87.950191 98.424613 
L 90.196628 98.424613 
L 90.311829 100.174764 
L 90.442741 100.174764 
L 90.557942 99.737226 
L 92.443064 99.737226 
L 92.558266 98.862151 
L 92.579211 98.862151 
L 92.694413 97.987075 
L 96.611276 97.987075 
L 96.700296 99.737226 
L 96.721242 98.862151 
L 96.810262 98.862151 
L 96.925463 98.424613 
L 97.323433 98.424613 
L 97.438635 100.174764 
L 99.616998 100.174764 
L 99.7322 99.883072 
L 100.648578 99.883072 
L 100.76378 99.007996 
L 103.073053 99.007996 
L 103.188255 100.758147 
L 104.240781 100.758147 
L 104.355983 99.883072 
L 111.707956 99.883072 
L 111.823158 99.445534 
L 111.844104 99.445534 
L 111.959306 98.570459 
L 114.226688 98.570459 
L 114.34189 100.32061 
L 114.535638 100.32061 
L 114.65084 102.07076 
L 115.132593 102.07076 
L 115.247795 101.195685 
L 116.384104 101.195685 
L 116.499306 100.32061 
L 118.578176 100.32061 
L 118.693378 99.445534 
L 119.410771 99.445534 
L 119.525973 101.195685 
L 121.096908 101.195685 
L 121.21211 102.945836 
L 134.879239 102.945836 
L 134.994441 102.508298 
L 135.072988 102.508298 
L 135.18819 101.633223 
L 135.633288 101.633223 
L 135.74849 103.383373 
L 136.465883 103.383373 
L 136.581085 105.133524 
L 138.581408 105.133524 
L 138.69661 104.695986 
L 139.220255 104.695986 
L 139.335456 103.820911 
L 145.71345 103.820911 
L 145.828652 105.571062 
L 152.363739 105.571062 
L 152.478941 104.695986 
L 167.91599 104.695986 
L 167.9893 103.820911 
L 167.994537 105.571062 
L 168.020719 105.571062 
L 175.137052 105.571062 
L 175.252254 104.695986 
L 178.975369 104.695986 
L 179.09057 106.446137 
L 195.63251 106.446137 
L 195.747712 108.196288 
L 199.256132 108.196288 
L 199.371334 107.321212 
L 215.913273 107.321212 
L 216.028475 106.971182 
L 218.149237 106.971182 
L 218.264439 106.533645 
L 220.563239 106.533645 
L 220.678441 105.658569 
L 220.767461 105.658569 
L 220.882663 107.40872 
L 246.98112 107.40872 
L 247.096322 106.533645 
L 257.914824 106.533645 
L 258.030025 108.283795 
L 264.135724 108.283795 
L 264.250926 110.033946 
L 267.722691 110.033946 
L 267.837893 109.158871 
L 304.435428 109.158871 
L 304.55063 108.283795 
L 323.459444 108.283795 
L 323.574646 107.40872 
L 324.747611 107.40872 
L 324.862813 109.158871 
L 331.282698 109.158871 
L 331.3979 110.909021 
L 398.487273 110.909021 
L 398.487273 110.909021 
" clip-path="url(#p56b1706109)" style="fill: none; stroke: #17becf; stroke-width: 1.5; stroke-linecap: square"/>
   </g>
   <g id="line2d_22">
    <path d="M 73.832727 51.608081 
L 73.953166 56.200143 
L 73.968875 56.200143 
L 73.984584 55.61676 
L 74.016003 62.367341 
L 74.021239 62.367341 
L 74.042185 62.367341 
L 74.068367 61.200574 
L 74.115495 66.451026 
L 74.173096 66.451026 
L 74.209752 68.201177 
L 74.283062 67.501117 
L 74.293535 67.501117 
L 74.429682 75.90184 
L 74.670559 75.90184 
L 74.785761 77.651991 
L 75.173258 77.651991 
L 75.293696 81.152292 
L 75.681193 81.152292 
L 75.796395 82.902443 
L 76.964123 82.902443 
L 77.084562 86.402744 
L 77.13169 86.402744 
L 77.246891 88.152895 
L 79.535219 88.152895 
L 79.650421 89.903046 
L 84.352751 89.903046 
L 84.467953 89.553016 
L 87.834989 89.553016 
L 87.950191 91.303166 
L 90.442741 91.303166 
L 90.557942 93.053317 
L 96.810262 93.053317 
L 96.925463 94.803468 
L 111.707956 94.803468 
L 111.823158 96.553618 
L 134.879239 96.553618 
L 134.994441 98.303769 
L 138.581408 98.303769 
L 138.69661 100.05392 
L 218.149237 100.05392 
L 218.264439 101.804071 
L 398.487273 101.804071 
L 398.487273 101.804071 
" clip-path="url(#p56b1706109)" style="fill: none; stroke: #1f77b4; stroke-width: 1.5; stroke-linecap: square"/>
   </g>
   <g id="line2d_23">
    <path d="M 73.832727 49.5079 
L 73.853673 49.5079 
L 73.979348 46.970182 
L 398.487273 46.970182 
L 398.487273 46.970182 
" clip-path="url(#p56b1706109)" style="fill: none; stroke: #ff7f0e; stroke-width: 1.5; stroke-linecap: square"/>
   </g>
   <g id="patch_3">
    <path d="M 57.6 162.432 
L 57.6 41.472 
" style="fill: none; stroke: #000000; stroke-width: 0.8; stroke-linejoin: miter; stroke-linecap: square"/>
   </g>
   <g id="patch_4">
    <path d="M 414.72 162.432 
L 414.72 41.472 
" style="fill: none; stroke: #000000; stroke-width: 0.8; stroke-linejoin: miter; stroke-linecap: square"/>
   </g>
   <g id="patch_5">
    <path d="M 57.6 162.432 
L 414.72 162.432 
" style="fill: none; stroke: #000000; stroke-width: 0.8; stroke-linejoin: miter; stroke-linecap: square"/>
   </g>
   <g id="patch_6">
    <path d="M 57.6 41.472 
L 414.72 41.472 
" style="fill: none; stroke: #000000; stroke-width: 0.8; stroke-linejoin: miter; stroke-linecap: square"/>
   </g>
   <g id="text_12">
    <!-- WSP -->
    <g transform="translate(361.832136 114.375987)scale(0.08 -0.08)">
     <defs>
      <path id="DejaVuSans-57" d="M 213 4666 
L 850 4666 
L 1831 722 
L 2809 4666 
L 3519 4666 
L 4500 722 
L 5478 4666 
L 6119 4666 
L 4947 0 
L 4153 0 
L 3169 4050 
L 2175 0 
L 1381 0 
L 213 4666 
z
" transform="scale(0.015625)"/>
      <path id="DejaVuSans-53" d="M 3425 4513 
L 3425 3897 
Q 3066 4069 2747 4153 
Q 2428 4238 2131 4238 
Q 1616 4238 1336 4038 
Q 1056 3838 1056 3469 
Q 1056 3159 1242 3001 
Q 1428 2844 1947 2747 
L 2328 2669 
Q 3034 2534 3370 2195 
Q 3706 1856 3706 1288 
Q 3706 609 3251 259 
Q 2797 -91 1919 -91 
Q 1588 -91 1214 -16 
Q 841 59 441 206 
L 441 856 
Q 825 641 1194 531 
Q 1563 422 1919 422 
Q 2459 422 2753 634 
Q 3047 847 3047 1241 
Q 3047 1584 2836 1778 
Q 2625 1972 2144 2069 
L 1759 2144 
Q 1053 2284 737 2584 
Q 422 2884 422 3419 
Q 422 4038 858 4394 
Q 1294 4750 2059 4750 
Q 2388 4750 2728 4690 
Q 3069 4631 3425 4513 
z
" transform="scale(0.015625)"/>
      <path id="DejaVuSans-50" d="M 1259 4147 
L 1259 2394 
L 2053 2394 
Q 2494 2394 2734 2622 
Q 2975 2850 2975 3272 
Q 2975 3691 2734 3919 
Q 2494 4147 2053 4147 
L 1259 4147 
z
M 628 4666 
L 2053 4666 
Q 2838 4666 3239 4311 
Q 3641 3956 3641 3272 
Q 3641 2581 3239 2228 
Q 2838 1875 2053 1875 
L 1259 1875 
L 1259 0 
L 628 0 
L 628 4666 
z
" transform="scale(0.015625)"/>
     </defs>
     <use xlink:href="#DejaVuSans-57"/>
     <use xlink:href="#DejaVuSans-53" x="98.876953"/>
     <use xlink:href="#DejaVuSans-50" x="162.353516"/>
    </g>
   </g>
   <g id="text_13">
    <!-- Iambic -->
    <g transform="translate(361.832136 72.026506)scale(0.08 -0.08)">
     <defs>
      <path id="DejaVuSans-49" d="M 628 4666 
L 1259 4666 
L 1259 0 
L 628 0 
L 628 4666 
z
" transform="scale(0.015625)"/>
      <path id="DejaVuSans-61" d="M 2194 1759 
Q 1497 1759 1228 1600 
Q 959 1441 959 1056 
Q 959 750 1161 570 
Q 1363 391 1709 391 
Q 2188 391 2477 730 
Q 2766 1069 2766 1631 
L 2766 1759 
L 2194 1759 
z
M 3341 1997 
L 3341 0 
L 2766 0 
L 2766 531 
Q 2569 213 2275 61 
Q 1981 -91 1556 -91 
Q 1019 -91 701 211 
Q 384 513 384 1019 
Q 384 1609 779 1909 
Q 1175 2209 1959 2209 
L 2766 2209 
L 2766 2266 
Q 2766 2663 2505 2880 
Q 2244 3097 1772 3097 
Q 1472 3097 1187 3025 
Q 903 2953 641 2809 
L 641 3341 
Q 956 3463 1253 3523 
Q 1550 3584 1831 3584 
Q 2591 3584 2966 3190 
Q 3341 2797 3341 1997 
z
" transform="scale(0.015625)"/>
      <path id="DejaVuSans-6d" d="M 3328 2828 
Q 3544 3216 3844 3400 
Q 4144 3584 4550 3584 
Q 5097 3584 5394 3201 
Q 5691 2819 5691 2113 
L 5691 0 
L 5113 0 
L 5113 2094 
Q 5113 2597 4934 2840 
Q 4756 3084 4391 3084 
Q 3944 3084 3684 2787 
Q 3425 2491 3425 1978 
L 3425 0 
L 2847 0 
L 2847 2094 
Q 2847 2600 2669 2842 
Q 2491 3084 2119 3084 
Q 1678 3084 1418 2786 
Q 1159 2488 1159 1978 
L 1159 0 
L 581 0 
L 581 3500 
L 1159 3500 
L 1159 2956 
Q 1356 3278 1631 3431 
Q 1906 3584 2284 3584 
Q 2666 3584 2933 3390 
Q 3200 3197 3328 2828 
z
" transform="scale(0.015625)"/>
      <path id="DejaVuSans-62" d="M 3116 1747 
Q 3116 2381 2855 2742 
Q 2594 3103 2138 3103 
Q 1681 3103 1420 2742 
Q 1159 2381 1159 1747 
Q 1159 1113 1420 752 
Q 1681 391 2138 391 
Q 2594 391 2855 752 
Q 3116 1113 3116 1747 
z
M 1159 2969 
Q 1341 3281 1617 3432 
Q 1894 3584 2278 3584 
Q 2916 3584 3314 3078 
Q 3713 2572 3713 1747 
Q 3713 922 3314 415 
Q 2916 -91 2278 -91 
Q 1894 -91 1617 61 
Q 1341 213 1159 525 
L 1159 0 
L 581 0 
L 581 4863 
L 1159 4863 
L 1159 2969 
z
" transform="scale(0.015625)"/>
      <path id="DejaVuSans-69" d="M 603 3500 
L 1178 3500 
L 1178 0 
L 603 0 
L 603 3500 
z
M 603 4863 
L 1178 4863 
L 1178 4134 
L 603 4134 
L 603 4863 
z
" transform="scale(0.015625)"/>
      <path id="DejaVuSans-63" d="M 3122 3366 
L 3122 2828 
Q 2878 2963 2633 3030 
Q 2388 3097 2138 3097 
Q 1578 3097 1268 2742 
Q 959 2388 959 1747 
Q 959 1106 1268 751 
Q 1578 397 2138 397 
Q 2388 397 2633 464 
Q 2878 531 3122 666 
L 3122 134 
Q 2881 22 2623 -34 
Q 2366 -91 2075 -91 
Q 1284 -91 818 406 
Q 353 903 353 1747 
Q 353 2603 823 3093 
Q 1294 3584 2113 3584 
Q 2378 3584 2631 3529 
Q 2884 3475 3122 3366 
z
" transform="scale(0.015625)"/>
     </defs>
     <use xlink:href="#DejaVuSans-49"/>
     <use xlink:href="#DejaVuSans-61" x="29.492188"/>
     <use xlink:href="#DejaVuSans-6d" x="90.771484"/>
     <use xlink:href="#DejaVuSans-62" x="188.183594"/>
     <use xlink:href="#DejaVuSans-69" x="251.660156"/>
     <use xlink:href="#DejaVuSans-63" x="279.443359"/>
    </g>
   </g>
   <g id="text_14">
    <!-- Parse -->
    <g transform="translate(361.832136 155.767051)scale(0.08 -0.08)">
     <defs>
      <path id="DejaVuSans-72" d="M 2631 2963 
Q 2534 3019 2420 3045 
Q 2306 3072 2169 3072 
Q 1681 3072 1420 2755 
Q 1159 2438 1159 1844 
L 1159 0 
L 581 0 
L 581 3500 
L 1159 3500 
L 1159 2956 
Q 1341 3275 1631 3429 
Q 1922 3584 2338 3584 
Q 2397 3584 2469 3576 
Q 2541 3569 2628 3553 
L 2631 2963 
z
" transform="scale(0.015625)"/>
      <path id="DejaVuSans-73" d="M 2834 3397 
L 2834 2853 
Q 2591 2978 2328 3040 
Q 2066 3103 1784 3103 
Q 1356 3103 1142 2972 
Q 928 2841 928 2578 
Q 928 2378 1081 2264 
Q 1234 2150 1697 2047 
L 1894 2003 
Q 2506 1872 2764 1633 
Q 3022 1394 3022 966 
Q 3022 478 2636 193 
Q 2250 -91 1575 -91 
Q 1294 -91 989 -36 
Q 684 19 347 128 
L 347 722 
Q 666 556 975 473 
Q 1284 391 1588 391 
Q 1994 391 2212 530 
Q 2431 669 2431 922 
Q 2431 1156 2273 1281 
Q 2116 1406 1581 1522 
L 1381 1569 
Q 847 1681 609 1914 
Q 372 2147 372 2553 
Q 372 3047 722 3315 
Q 1072 3584 1716 3584 
Q 2034 3584 2315 3537 
Q 2597 3491 2834 3397 
z
" transform="scale(0.015625)"/>
      <path id="DejaVuSans-65" d="M 3597 1894 
L 3597 1613 
L 953 1613 
Q 991 1019 1311 708 
Q 1631 397 2203 397 
Q 2534 397 2845 478 
Q 3156 559 3463 722 
L 3463 178 
Q 3153 47 2828 -22 
Q 2503 -91 2169 -91 
Q 1331 -91 842 396 
Q 353 884 353 1716 
Q 353 2575 817 3079 
Q 1281 3584 2069 3584 
Q 2775 3584 3186 3129 
Q 3597 2675 3597 1894 
z
M 3022 2063 
Q 3016 2534 2758 2815 
Q 2500 3097 2075 3097 
Q 1594 3097 1305 2825 
Q 1016 2553 972 2059 
L 3022 2063 
z
" transform="scale(0.015625)"/>
     </defs>
     <use xlink:href="#DejaVuSans-50"/>
     <use xlink:href="#DejaVuSans-61" x="55.802734"/>
     <use xlink:href="#DejaVuSans-72" x="117.082031"/>
     <use xlink:href="#DejaVuSans-73" x="158.195312"/>
     <use xlink:href="#DejaVuSans-65" x="210.294922"/>
    </g>
   </g>
   <g id="text_15">
    <!-- FootBin -->
    <g transform="translate(361.832136 52.595666)scale(0.08 -0.08)">
     <defs>
      <path id="DejaVuSans-46" d="M 628 4666 
L 3309 4666 
L 3309 4134 
L 1259 4134 
L 1259 2759 
L 3109 2759 
L 3109 2228 
L 1259 2228 
L 1259 0 
L 628 0 
L 628 4666 
z
" transform="scale(0.015625)"/>
      <path id="DejaVuSans-6f" d="M 1959 3097 
Q 1497 3097 1228 2736 
Q 959 2375 959 1747 
Q 959 1119 1226 758 
Q 1494 397 1959 397 
Q 2419 397 2687 759 
Q 2956 1122 2956 1747 
Q 2956 2369 2687 2733 
Q 2419 3097 1959 3097 
z
M 1959 3584 
Q 2709 3584 3137 3096 
Q 3566 2609 3566 1747 
Q 3566 888 3137 398 
Q 2709 -91 1959 -91 
Q 1206 -91 779 398 
Q 353 888 353 1747 
Q 353 2609 779 3096 
Q 1206 3584 1959 3584 
z
" transform="scale(0.015625)"/>
      <path id="DejaVuSans-74" d="M 1172 4494 
L 1172 3500 
L 2356 3500 
L 2356 3053 
L 1172 3053 
L 1172 1153 
Q 1172 725 1289 603 
Q 1406 481 1766 481 
L 2356 481 
L 2356 0 
L 1766 0 
Q 1100 0 847 248 
Q 594 497 594 1153 
L 594 3053 
L 172 3053 
L 172 3500 
L 594 3500 
L 594 4494 
L 1172 4494 
z
" transform="scale(0.015625)"/>
      <path id="DejaVuSans-42" d="M 1259 2228 
L 1259 519 
L 2272 519 
Q 2781 519 3026 730 
Q 3272 941 3272 1375 
Q 3272 1813 3026 2020 
Q 2781 2228 2272 2228 
L 1259 2228 
z
M 1259 4147 
L 1259 2741 
L 2194 2741 
Q 2656 2741 2882 2914 
Q 3109 3088 3109 3444 
Q 3109 3797 2882 3972 
Q 2656 4147 2194 4147 
L 1259 4147 
z
M 628 4666 
L 2241 4666 
Q 2963 4666 3353 4366 
Q 3744 4066 3744 3513 
Q 3744 3084 3544 2831 
Q 3344 2578 2956 2516 
Q 3422 2416 3680 2098 
Q 3938 1781 3938 1306 
Q 3938 681 3513 340 
Q 3088 0 2303 0 
L 628 0 
L 628 4666 
z
" transform="scale(0.015625)"/>
      <path id="DejaVuSans-6e" d="M 3513 2113 
L 3513 0 
L 2938 0 
L 2938 2094 
Q 2938 2591 2744 2837 
Q 2550 3084 2163 3084 
Q 1697 3084 1428 2787 
Q 1159 2491 1159 1978 
L 1159 0 
L 581 0 
L 581 3500 
L 1159 3500 
L 1159 2956 
Q 1366 3272 1645 3428 
Q 1925 3584 2291 3584 
Q 2894 3584 3203 3211 
Q 3513 2838 3513 2113 
z
" transform="scale(0.015625)"/>
     </defs>
     <use xlink:href="#DejaVuSans-46"/>
     <use xlink:href="#DejaVuSans-6f" x="53.894531"/>
     <use xlink:href="#DejaVuSans-6f" x="115.076172"/>
     <use xlink:href="#DejaVuSans-74" x="176.257812"/>
     <use xlink:href="#DejaVuSans-42" x="215.466797"/>
     <use xlink:href="#DejaVuSans-69" x="284.070312"/>
     <use xlink:href="#DejaVuSans-6e" x="311.853516"/>
    </g>
   </g>
   <g id="text_16">
    <!-- WFL -->
    <g transform="translate(361.832136 92.615779)scale(0.08 -0.08)">
     <defs>
      <path id="DejaVuSans-4c" d="M 628 4666 
L 1259 4666 
L 1259 531 
L 3531 531 
L 3531 0 
L 628 0 
L 628 4666 
z
" transform="scale(0.015625)"/>
     </defs>
     <use xlink:href="#DejaVuSans-57"/>
     <use xlink:href="#DejaVuSans-46" x="98.876953"/>
     <use xlink:href="#DejaVuSans-4c" x="156.396484"/>
    </g>
   </g>
   <g id="text_17">
    <!-- WFR -->
    <g transform="translate(361.832136 64.355012)scale(0.08 -0.08)">
     <defs>
      <path id="DejaVuSans-52" d="M 2841 2188 
Q 3044 2119 3236 1894 
Q 3428 1669 3622 1275 
L 4263 0 
L 3584 0 
L 2988 1197 
Q 2756 1666 2539 1819 
Q 2322 1972 1947 1972 
L 1259 1972 
L 1259 0 
L 628 0 
L 628 4666 
L 2053 4666 
Q 2853 4666 3247 4331 
Q 3641 3997 3641 3322 
Q 3641 2881 3436 2590 
Q 3231 2300 2841 2188 
z
M 1259 4147 
L 1259 2491 
L 2053 2491 
Q 2509 2491 2742 2702 
Q 2975 2913 2975 3322 
Q 2975 3731 2742 3939 
Q 2509 4147 2053 4147 
L 1259 4147 
z
" transform="scale(0.015625)"/>
     </defs>
     <use xlink:href="#DejaVuSans-57"/>
     <use xlink:href="#DejaVuSans-46" x="98.876953"/>
     <use xlink:href="#DejaVuSans-52" x="156.396484"/>
    </g>
   </g>
   <g id="text_18">
    <!-- Main-L -->
    <g transform="translate(361.832136 138.76142)scale(0.08 -0.08)">
     <defs>
      <path id="DejaVuSans-4d" d="M 628 4666 
L 1569 4666 
L 2759 1491 
L 3956 4666 
L 4897 4666 
L 4897 0 
L 4281 0 
L 4281 4097 
L 3078 897 
L 2444 897 
L 1241 4097 
L 1241 0 
L 628 0 
L 628 4666 
z
" transform="scale(0.015625)"/>
      <path id="DejaVuSans-2d" d="M 313 2009 
L 1997 2009 
L 1997 1497 
L 313 1497 
L 313 2009 
z
" transform="scale(0.015625)"/>
     </defs>
     <use xlink:href="#DejaVuSans-4d"/>
     <use xlink:href="#DejaVuSans-61" x="86.279297"/>
     <use xlink:href="#DejaVuSans-69" x="147.558594"/>
     <use xlink:href="#DejaVuSans-6e" x="175.341797"/>
     <use xlink:href="#DejaVuSans-2d" x="238.720703"/>
     <use xlink:href="#DejaVuSans-4c" x="274.804688"/>
    </g>
   </g>
   <g id="text_19">
    <!-- Main-R -->
    <g transform="translate(361.832136 55.020875)scale(0.08 -0.08)">
     <use xlink:href="#DejaVuSans-4d"/>
     <use xlink:href="#DejaVuSans-61" x="86.279297"/>
     <use xlink:href="#DejaVuSans-69" x="147.558594"/>
     <use xlink:href="#DejaVuSans-6e" x="175.341797"/>
     <use xlink:href="#DejaVuSans-2d" x="238.720703"/>
     <use xlink:href="#DejaVuSans-52" x="274.804688"/>
    </g>
   </g>
   <g id="text_20">
    <!-- AFL -->
    <g transform="translate(361.832136 93.636701)scale(0.08 -0.08)">
     <defs>
      <path id="DejaVuSans-41" d="M 2188 4044 
L 1331 1722 
L 3047 1722 
L 2188 4044 
z
M 1831 4666 
L 2547 4666 
L 4325 0 
L 3669 0 
L 3244 1197 
L 1141 1197 
L 716 0 
L 50 0 
L 1831 4666 
z
" transform="scale(0.015625)"/>
     </defs>
     <use xlink:href="#DejaVuSans-41"/>
     <use xlink:href="#DejaVuSans-46" x="68.408203"/>
     <use xlink:href="#DejaVuSans-4c" x="125.927734"/>
    </g>
   </g>
   <g id="text_21">
    <!-- AFR -->
    <g transform="translate(361.832136 110.909021)scale(0.08 -0.08)">
     <use xlink:href="#DejaVuSans-41"/>
     <use xlink:href="#DejaVuSans-46" x="68.408203"/>
     <use xlink:href="#DejaVuSans-52" x="125.927734"/>
    </g>
   </g>
   <g id="text_22">
    <!-- Nonfinal -->
    <g transform="translate(361.832136 101.804071)scale(0.08 -0.08)">
     <defs>
      <path id="DejaVuSans-4e" d="M 628 4666 
L 1478 4666 
L 3547 763 
L 3547 4666 
L 4159 4666 
L 4159 0 
L 3309 0 
L 1241 3903 
L 1241 0 
L 628 0 
L 628 4666 
z
" transform="scale(0.015625)"/>
      <path id="DejaVuSans-66" d="M 2375 4863 
L 2375 4384 
L 1825 4384 
Q 1516 4384 1395 4259 
Q 1275 4134 1275 3809 
L 1275 3500 
L 2222 3500 
L 2222 3053 
L 1275 3053 
L 1275 0 
L 697 0 
L 697 3053 
L 147 3053 
L 147 3500 
L 697 3500 
L 697 3744 
Q 697 4328 969 4595 
Q 1241 4863 1831 4863 
L 2375 4863 
z
" transform="scale(0.015625)"/>
      <path id="DejaVuSans-6c" d="M 603 4863 
L 1178 4863 
L 1178 0 
L 603 0 
L 603 4863 
z
" transform="scale(0.015625)"/>
     </defs>
     <use xlink:href="#DejaVuSans-4e"/>
     <use xlink:href="#DejaVuSans-6f" x="74.804688"/>
     <use xlink:href="#DejaVuSans-6e" x="135.986328"/>
     <use xlink:href="#DejaVuSans-66" x="199.365234"/>
     <use xlink:href="#DejaVuSans-69" x="234.570312"/>
     <use xlink:href="#DejaVuSans-6e" x="262.353516"/>
     <use xlink:href="#DejaVuSans-61" x="325.732422"/>
     <use xlink:href="#DejaVuSans-6c" x="387.011719"/>
    </g>
   </g>
   <g id="text_23">
    <!-- Trochaic -->
    <g transform="translate(361.832136 46.970182)scale(0.08 -0.08)">
     <defs>
      <path id="DejaVuSans-54" d="M -19 4666 
L 3928 4666 
L 3928 4134 
L 2272 4134 
L 2272 0 
L 1638 0 
L 1638 4134 
L -19 4134 
L -19 4666 
z
" transform="scale(0.015625)"/>
      <path id="DejaVuSans-68" d="M 3513 2113 
L 3513 0 
L 2938 0 
L 2938 2094 
Q 2938 2591 2744 2837 
Q 2550 3084 2163 3084 
Q 1697 3084 1428 2787 
Q 1159 2491 1159 1978 
L 1159 0 
L 581 0 
L 581 4863 
L 1159 4863 
L 1159 2956 
Q 1366 3272 1645 3428 
Q 1925 3584 2291 3584 
Q 2894 3584 3203 3211 
Q 3513 2838 3513 2113 
z
" transform="scale(0.015625)"/>
     </defs>
     <use xlink:href="#DejaVuSans-54"/>
     <use xlink:href="#DejaVuSans-72" x="46.333984"/>
     <use xlink:href="#DejaVuSans-6f" x="85.197266"/>
     <use xlink:href="#DejaVuSans-63" x="146.378906"/>
     <use xlink:href="#DejaVuSans-68" x="201.359375"/>
     <use xlink:href="#DejaVuSans-61" x="264.738281"/>
     <use xlink:href="#DejaVuSans-69" x="326.017578"/>
     <use xlink:href="#DejaVuSans-63" x="353.800781"/>
    </g>
   </g>
  </g>
  <g id="axes_2">
   <g id="patch_7">
    <path d="M 57.6 307.584 
L 414.72 307.584 
L 414.72 186.624 
L 57.6 186.624 
z
" style="fill: #ffffff"/>
   </g>
   <g id="matplotlib.axis_3">
    <g id="xtick_8">
     <g id="line2d_24">
      <g>
       <use xlink:href="#mb3d426f18f" x="72.329697" y="307.584" style="stroke: #000000; stroke-width: 0.8"/>
      </g>
     </g>
     <g id="text_24">
      <!-- 0 -->
      <g transform="translate(69.148447 322.182437)scale(0.1 -0.1)">
       <use xlink:href="#DejaVuSans-30"/>
      </g>
     </g>
    </g>
    <g id="xtick_9">
     <g id="line2d_25">
      <g>
       <use xlink:href="#mb3d426f18f" x="147.481212" y="307.584" style="stroke: #000000; stroke-width: 0.8"/>
      </g>
     </g>
     <g id="text_25">
      <!-- 50 -->
      <g transform="translate(141.118712 322.182437)scale(0.1 -0.1)">
       <use xlink:href="#DejaVuSans-35"/>
       <use xlink:href="#DejaVuSans-30" x="63.623047"/>
      </g>
     </g>
    </g>
    <g id="xtick_10">
     <g id="line2d_26">
      <g>
       <use xlink:href="#mb3d426f18f" x="222.632727" y="307.584" style="stroke: #000000; stroke-width: 0.8"/>
      </g>
     </g>
     <g id="text_26">
      <!-- 100 -->
      <g transform="translate(213.088977 322.182437)scale(0.1 -0.1)">
       <use xlink:href="#DejaVuSans-31"/>
       <use xlink:href="#DejaVuSans-30" x="63.623047"/>
       <use xlink:href="#DejaVuSans-30" x="127.246094"/>
      </g>
     </g>
    </g>
    <g id="xtick_11">
     <g id="line2d_27">
      <g>
       <use xlink:href="#mb3d426f18f" x="297.784242" y="307.584" style="stroke: #000000; stroke-width: 0.8"/>
      </g>
     </g>
     <g id="text_27">
      <!-- 150 -->
      <g transform="translate(288.240492 322.182437)scale(0.1 -0.1)">
       <use xlink:href="#DejaVuSans-31"/>
       <use xlink:href="#DejaVuSans-35" x="63.623047"/>
       <use xlink:href="#DejaVuSans-30" x="127.246094"/>
      </g>
     </g>
    </g>
    <g id="xtick_12">
     <g id="line2d_28">
      <g>
       <use xlink:href="#mb3d426f18f" x="372.935758" y="307.584" style="stroke: #000000; stroke-width: 0.8"/>
      </g>
     </g>
     <g id="text_28">
      <!-- 200 -->
      <g transform="translate(363.392008 322.182437)scale(0.1 -0.1)">
       <use xlink:href="#DejaVuSans-32"/>
       <use xlink:href="#DejaVuSans-30" x="63.623047"/>
       <use xlink:href="#DejaVuSans-30" x="127.246094"/>
      </g>
     </g>
    </g>
   </g>
   <g id="matplotlib.axis_4">
    <g id="ytick_5">
     <g id="line2d_29">
      <g>
       <use xlink:href="#m4af22df04a" x="57.6" y="302.103529" style="stroke: #000000; stroke-width: 0.8"/>
      </g>
     </g>
     <g id="text_29">
      <!-- 0 -->
      <g transform="translate(44.2375 305.902747)scale(0.1 -0.1)">
       <use xlink:href="#DejaVuSans-30"/>
      </g>
     </g>
    </g>
    <g id="ytick_6">
     <g id="line2d_30">
      <g>
       <use xlink:href="#m4af22df04a" x="57.6" y="266.682805" style="stroke: #000000; stroke-width: 0.8"/>
      </g>
     </g>
     <g id="text_30">
      <!-- 2000 -->
      <g transform="translate(25.15 270.482024)scale(0.1 -0.1)">
       <use xlink:href="#DejaVuSans-32"/>
       <use xlink:href="#DejaVuSans-30" x="63.623047"/>
       <use xlink:href="#DejaVuSans-30" x="127.246094"/>
       <use xlink:href="#DejaVuSans-30" x="190.869141"/>
      </g>
     </g>
    </g>
    <g id="ytick_7">
     <g id="line2d_31">
      <g>
       <use xlink:href="#m4af22df04a" x="57.6" y="231.262081" style="stroke: #000000; stroke-width: 0.8"/>
      </g>
     </g>
     <g id="text_31">
      <!-- 4000 -->
      <g transform="translate(25.15 235.0613)scale(0.1 -0.1)">
       <use xlink:href="#DejaVuSans-34"/>
       <use xlink:href="#DejaVuSans-30" x="63.623047"/>
       <use xlink:href="#DejaVuSans-30" x="127.246094"/>
       <use xlink:href="#DejaVuSans-30" x="190.869141"/>
      </g>
     </g>
    </g>
    <g id="ytick_8">
     <g id="line2d_32">
      <g>
       <use xlink:href="#m4af22df04a" x="57.6" y="195.841358" style="stroke: #000000; stroke-width: 0.8"/>
      </g>
     </g>
     <g id="text_32">
      <!-- 6000 -->
      <g transform="translate(25.15 199.640577)scale(0.1 -0.1)">
       <use xlink:href="#DejaVuSans-36"/>
       <use xlink:href="#DejaVuSans-30" x="63.623047"/>
       <use xlink:href="#DejaVuSans-30" x="127.246094"/>
       <use xlink:href="#DejaVuSans-30" x="190.869141"/>
      </g>
     </g>
    </g>
   </g>
   <g id="line2d_33">
    <path d="M 73.832727 302.085818 
L 192.572121 301.979556 
L 197.081212 301.979556 
L 200.087273 302.085818 
L 204.596364 301.926425 
L 206.099394 302.068108 
L 207.602424 301.961846 
L 209.105455 302.032687 
L 210.608485 301.944135 
L 212.111515 302.050397 
L 213.614545 301.873294 
L 215.117576 302.014977 
L 216.620606 301.784742 
L 219.626667 302.085818 
L 221.129697 302.068108 
L 222.632727 301.891004 
L 224.135758 301.997266 
L 225.638788 301.908715 
L 231.650909 302.032687 
L 233.153939 301.891004 
L 234.65697 301.536797 
L 236.16 301.873294 
L 237.66303 302.050397 
L 242.172121 301.997266 
L 245.178182 301.891004 
L 246.681212 302.085818 
L 251.190303 302.050397 
L 252.693333 301.908715 
L 254.196364 301.625349 
L 255.699394 301.944135 
L 257.202424 302.085818 
L 258.705455 301.767032 
L 260.208485 301.820163 
L 261.711515 301.147169 
L 263.214545 301.749321 
L 264.717576 301.802452 
L 266.220606 302.085818 
L 267.723636 301.820163 
L 270.729697 301.944135 
L 272.232727 302.085818 
L 276.741818 302.068108 
L 278.244848 301.873294 
L 281.250909 301.997266 
L 282.753939 301.731611 
L 284.25697 301.731611 
L 285.76 302.068108 
L 287.26303 301.784742 
L 288.766061 302.068108 
L 290.269091 301.235721 
L 291.772121 301.944135 
L 293.275152 300.6867 
L 294.778182 301.341983 
L 296.281212 300.970065 
L 297.784242 301.023196 
L 299.287273 300.846093 
L 300.790303 299.624078 
L 302.293333 301.448245 
L 303.796364 302.014977 
L 305.299394 298.047856 
L 306.802424 301.820163 
L 308.305455 298.295801 
L 309.808485 301.961846 
L 311.311515 301.448245 
L 312.814545 301.147169 
L 314.317576 301.607638 
L 315.820606 299.429264 
L 318.826667 298.951084 
L 321.832727 294.116155 
L 323.335758 301.271142 
L 324.838788 300.775251 
L 326.341818 296.666447 
L 327.844848 301.643059 
L 329.347879 289.44062 
L 330.850909 301.129459 
L 332.353939 301.802452 
L 333.85697 301.731611 
L 335.36 300.367913 
L 336.86303 294.34639 
L 338.366061 298.614587 
L 339.869091 293.903631 
L 341.372121 298.154118 
L 342.875152 276.848553 
L 344.378182 301.643059 
L 345.881212 294.045314 
L 347.384242 301.058617 
L 348.887273 300.084547 
L 350.390303 297.870752 
L 351.893333 294.682887 
L 353.396364 299.287581 
L 354.899394 296.400792 
L 356.402424 255.489856 
L 357.905455 301.448245 
L 359.408485 300.20852 
L 360.911515 299.287581 
L 362.414545 294.948542 
L 363.917576 299.942864 
L 365.420606 280.14268 
L 366.923636 291.034552 
L 368.426667 290.680345 
L 369.929697 249.503754 
L 371.432727 301.855583 
L 372.935758 277.928885 
L 374.438788 289.121833 
L 375.941818 245.766868 
L 377.444848 289.847958 
L 378.947879 245.766868 
L 380.450909 294.541204 
L 381.953939 293.939052 
L 383.45697 301.412824 
L 384.96 213.445457 
L 386.46303 265.124293 
L 387.966061 286.111072 
L 389.469091 297.056075 
L 390.972121 289.971931 
L 392.475152 192.122182 
L 393.978182 287.917529 
L 395.481212 237.761784 
L 396.984242 297.74678 
L 398.487273 280.000997 
L 398.487273 280.000997 
" clip-path="url(#pa1f9b19a1e)" style="fill: none; stroke: #1f77b4; stroke-width: 1.5; stroke-linecap: square"/>
   </g>
   <g id="patch_8">
    <path d="M 57.6 307.584 
L 57.6 186.624 
" style="fill: none; stroke: #000000; stroke-width: 0.8; stroke-linejoin: miter; stroke-linecap: square"/>
   </g>
   <g id="patch_9">
    <path d="M 414.72 307.584 
L 414.72 186.624 
" style="fill: none; stroke: #000000; stroke-width: 0.8; stroke-linejoin: miter; stroke-linecap: square"/>
   </g>
   <g id="patch_10">
    <path d="M 57.6 307.584 
L 414.72 307.584 
" style="fill: none; stroke: #000000; stroke-width: 0.8; stroke-linejoin: miter; stroke-linecap: square"/>
   </g>
   <g id="patch_11">
    <path d="M 57.6 186.624 
L 414.72 186.624 
" style="fill: none; stroke: #000000; stroke-width: 0.8; stroke-linejoin: miter; stroke-linecap: square"/>
   </g>
  </g>
 </g>
 <defs>
  <clipPath id="p56b1706109">
   <rect x="57.6" y="41.472" width="357.12" height="120.96"/>
  </clipPath>
  <clipPath id="pa1f9b19a1e">
   <rect x="57.6" y="186.624" width="357.12" height="120.96"/>
  </clipPath>
 </defs>
</svg>
