<?xml version="1.0" encoding="utf-8" standalone="no"?>
<!DOCTYPE svg PUBLIC "-//W3C//DTD SVG 1.1//EN"
  "http://www.w3.org/Graphics/SVG/1.1/DTD/svg11.dtd">
<svg xmlns:xlink="http://www.w3.org/1999/xlink" width="460.8pt" height="345.6pt" viewBox="0 0 460.8 345.6" xmlns="http://www.w3.org/2000/svg" version="1.1">
 <metadata>
  <rdf:RDF xmlns:dc="http://purl.org/dc/elements/1.1/" xmlns:cc="http://creativecommons.org/ns#" xmlns:rdf="http://www.w3.org/1999/02/22-rdf-syntax-ns#">
   <cc:Work>
    <dc:type rdf:resource="http://purl.org/dc/dcmitype/StillImage"/>
    <dc:date>2022-05-14T00:52:11.700163</dc:date>
    <dc:format>image/svg+xml</dc:format>
    <dc:creator>
     <cc:Agent>
      <dc:title>Matplotlib v3.5.1, https://matplotlib.org/</dc:title>
     </cc:Agent>
    </dc:creator>
   </cc:Work>
  </rdf:RDF>
 </metadata>
 <defs>
  <style type="text/css">*{stroke-linejoin: round; stroke-linecap: butt}</style>
 </defs>
 <g id="figure_1">
  <g id="patch_1">
   <path d="M 0 345.6 
L 460.8 345.6 
L 460.8 0 
L 0 0 
z
" style="fill: #ffffff"/>
  </g>
  <g id="axes_1">
   <g id="patch_2">
    <path d="M 57.6 162.432 
L 414.72 162.432 
L 414.72 41.472 
L 57.6 41.472 
z
" style="fill: #ffffff"/>
   </g>
   <g id="matplotlib.axis_1">
    <g id="xtick_1">
     <g id="line2d_1">
      <defs>
       <path id="mde8f5aa032" d="M 0 0 
L 0 3.5 
" style="stroke: #000000; stroke-width: 0.8"/>
      </defs>
      <g>
       <use xlink:href="#mde8f5aa032" x="73.827491" y="162.432" style="stroke: #000000; stroke-width: 0.8"/>
      </g>
     </g>
     <g id="text_1">
      <!-- 0 -->
      <g transform="translate(70.646241 177.030437)scale(0.1 -0.1)">
       <defs>
        <path id="DejaVuSans-30" d="M 2034 4250 
Q 1547 4250 1301 3770 
Q 1056 3291 1056 2328 
Q 1056 1369 1301 889 
Q 1547 409 2034 409 
Q 2525 409 2770 889 
Q 3016 1369 3016 2328 
Q 3016 3291 2770 3770 
Q 2525 4250 2034 4250 
z
M 2034 4750 
Q 2819 4750 3233 4129 
Q 3647 3509 3647 2328 
Q 3647 1150 3233 529 
Q 2819 -91 2034 -91 
Q 1250 -91 836 529 
Q 422 1150 422 2328 
Q 422 3509 836 4129 
Q 1250 4750 2034 4750 
z
" transform="scale(0.015625)"/>
       </defs>
       <use xlink:href="#DejaVuSans-30"/>
      </g>
     </g>
    </g>
    <g id="xtick_2">
     <g id="line2d_2">
      <g>
       <use xlink:href="#mde8f5aa032" x="126.191972" y="162.432" style="stroke: #000000; stroke-width: 0.8"/>
      </g>
     </g>
     <g id="text_2">
      <!-- 10000 -->
      <g transform="translate(110.285722 177.030437)scale(0.1 -0.1)">
       <defs>
        <path id="DejaVuSans-31" d="M 794 531 
L 1825 531 
L 1825 4091 
L 703 3866 
L 703 4441 
L 1819 4666 
L 2450 4666 
L 2450 531 
L 3481 531 
L 3481 0 
L 794 0 
L 794 531 
z
" transform="scale(0.015625)"/>
       </defs>
       <use xlink:href="#DejaVuSans-31"/>
       <use xlink:href="#DejaVuSans-30" x="63.623047"/>
       <use xlink:href="#DejaVuSans-30" x="127.246094"/>
       <use xlink:href="#DejaVuSans-30" x="190.869141"/>
       <use xlink:href="#DejaVuSans-30" x="254.492188"/>
      </g>
     </g>
    </g>
    <g id="xtick_3">
     <g id="line2d_3">
      <g>
       <use xlink:href="#mde8f5aa032" x="178.556453" y="162.432" style="stroke: #000000; stroke-width: 0.8"/>
      </g>
     </g>
     <g id="text_3">
      <!-- 20000 -->
      <g transform="translate(162.650203 177.030437)scale(0.1 -0.1)">
       <defs>
        <path id="DejaVuSans-32" d="M 1228 531 
L 3431 531 
L 3431 0 
L 469 0 
L 469 531 
Q 828 903 1448 1529 
Q 2069 2156 2228 2338 
Q 2531 2678 2651 2914 
Q 2772 3150 2772 3378 
Q 2772 3750 2511 3984 
Q 2250 4219 1831 4219 
Q 1534 4219 1204 4116 
Q 875 4013 500 3803 
L 500 4441 
Q 881 4594 1212 4672 
Q 1544 4750 1819 4750 
Q 2544 4750 2975 4387 
Q 3406 4025 3406 3419 
Q 3406 3131 3298 2873 
Q 3191 2616 2906 2266 
Q 2828 2175 2409 1742 
Q 1991 1309 1228 531 
z
" transform="scale(0.015625)"/>
       </defs>
       <use xlink:href="#DejaVuSans-32"/>
       <use xlink:href="#DejaVuSans-30" x="63.623047"/>
       <use xlink:href="#DejaVuSans-30" x="127.246094"/>
       <use xlink:href="#DejaVuSans-30" x="190.869141"/>
       <use xlink:href="#DejaVuSans-30" x="254.492188"/>
      </g>
     </g>
    </g>
    <g id="xtick_4">
     <g id="line2d_4">
      <g>
       <use xlink:href="#mde8f5aa032" x="230.920934" y="162.432" style="stroke: #000000; stroke-width: 0.8"/>
      </g>
     </g>
     <g id="text_4">
      <!-- 30000 -->
      <g transform="translate(215.014684 177.030437)scale(0.1 -0.1)">
       <defs>
        <path id="DejaVuSans-33" d="M 2597 2516 
Q 3050 2419 3304 2112 
Q 3559 1806 3559 1356 
Q 3559 666 3084 287 
Q 2609 -91 1734 -91 
Q 1441 -91 1130 -33 
Q 819 25 488 141 
L 488 750 
Q 750 597 1062 519 
Q 1375 441 1716 441 
Q 2309 441 2620 675 
Q 2931 909 2931 1356 
Q 2931 1769 2642 2001 
Q 2353 2234 1838 2234 
L 1294 2234 
L 1294 2753 
L 1863 2753 
Q 2328 2753 2575 2939 
Q 2822 3125 2822 3475 
Q 2822 3834 2567 4026 
Q 2313 4219 1838 4219 
Q 1578 4219 1281 4162 
Q 984 4106 628 3988 
L 628 4550 
Q 988 4650 1302 4700 
Q 1616 4750 1894 4750 
Q 2613 4750 3031 4423 
Q 3450 4097 3450 3541 
Q 3450 3153 3228 2886 
Q 3006 2619 2597 2516 
z
" transform="scale(0.015625)"/>
       </defs>
       <use xlink:href="#DejaVuSans-33"/>
       <use xlink:href="#DejaVuSans-30" x="63.623047"/>
       <use xlink:href="#DejaVuSans-30" x="127.246094"/>
       <use xlink:href="#DejaVuSans-30" x="190.869141"/>
       <use xlink:href="#DejaVuSans-30" x="254.492188"/>
      </g>
     </g>
    </g>
    <g id="xtick_5">
     <g id="line2d_5">
      <g>
       <use xlink:href="#mde8f5aa032" x="283.285415" y="162.432" style="stroke: #000000; stroke-width: 0.8"/>
      </g>
     </g>
     <g id="text_5">
      <!-- 40000 -->
      <g transform="translate(267.379165 177.030437)scale(0.1 -0.1)">
       <defs>
        <path id="DejaVuSans-34" d="M 2419 4116 
L 825 1625 
L 2419 1625 
L 2419 4116 
z
M 2253 4666 
L 3047 4666 
L 3047 1625 
L 3713 1625 
L 3713 1100 
L 3047 1100 
L 3047 0 
L 2419 0 
L 2419 1100 
L 313 1100 
L 313 1709 
L 2253 4666 
z
" transform="scale(0.015625)"/>
       </defs>
       <use xlink:href="#DejaVuSans-34"/>
       <use xlink:href="#DejaVuSans-30" x="63.623047"/>
       <use xlink:href="#DejaVuSans-30" x="127.246094"/>
       <use xlink:href="#DejaVuSans-30" x="190.869141"/>
       <use xlink:href="#DejaVuSans-30" x="254.492188"/>
      </g>
     </g>
    </g>
    <g id="xtick_6">
     <g id="line2d_6">
      <g>
       <use xlink:href="#mde8f5aa032" x="335.649896" y="162.432" style="stroke: #000000; stroke-width: 0.8"/>
      </g>
     </g>
     <g id="text_6">
      <!-- 50000 -->
      <g transform="translate(319.743646 177.030437)scale(0.1 -0.1)">
       <defs>
        <path id="DejaVuSans-35" d="M 691 4666 
L 3169 4666 
L 3169 4134 
L 1269 4134 
L 1269 2991 
Q 1406 3038 1543 3061 
Q 1681 3084 1819 3084 
Q 2600 3084 3056 2656 
Q 3513 2228 3513 1497 
Q 3513 744 3044 326 
Q 2575 -91 1722 -91 
Q 1428 -91 1123 -41 
Q 819 9 494 109 
L 494 744 
Q 775 591 1075 516 
Q 1375 441 1709 441 
Q 2250 441 2565 725 
Q 2881 1009 2881 1497 
Q 2881 1984 2565 2268 
Q 2250 2553 1709 2553 
Q 1456 2553 1204 2497 
Q 953 2441 691 2322 
L 691 4666 
z
" transform="scale(0.015625)"/>
       </defs>
       <use xlink:href="#DejaVuSans-35"/>
       <use xlink:href="#DejaVuSans-30" x="63.623047"/>
       <use xlink:href="#DejaVuSans-30" x="127.246094"/>
       <use xlink:href="#DejaVuSans-30" x="190.869141"/>
       <use xlink:href="#DejaVuSans-30" x="254.492188"/>
      </g>
     </g>
    </g>
    <g id="xtick_7">
     <g id="line2d_7">
      <g>
       <use xlink:href="#mde8f5aa032" x="388.014377" y="162.432" style="stroke: #000000; stroke-width: 0.8"/>
      </g>
     </g>
     <g id="text_7">
      <!-- 60000 -->
      <g transform="translate(372.108127 177.030437)scale(0.1 -0.1)">
       <defs>
        <path id="DejaVuSans-36" d="M 2113 2584 
Q 1688 2584 1439 2293 
Q 1191 2003 1191 1497 
Q 1191 994 1439 701 
Q 1688 409 2113 409 
Q 2538 409 2786 701 
Q 3034 994 3034 1497 
Q 3034 2003 2786 2293 
Q 2538 2584 2113 2584 
z
M 3366 4563 
L 3366 3988 
Q 3128 4100 2886 4159 
Q 2644 4219 2406 4219 
Q 1781 4219 1451 3797 
Q 1122 3375 1075 2522 
Q 1259 2794 1537 2939 
Q 1816 3084 2150 3084 
Q 2853 3084 3261 2657 
Q 3669 2231 3669 1497 
Q 3669 778 3244 343 
Q 2819 -91 2113 -91 
Q 1303 -91 875 529 
Q 447 1150 447 2328 
Q 447 3434 972 4092 
Q 1497 4750 2381 4750 
Q 2619 4750 2861 4703 
Q 3103 4656 3366 4563 
z
" transform="scale(0.015625)"/>
       </defs>
       <use xlink:href="#DejaVuSans-36"/>
       <use xlink:href="#DejaVuSans-30" x="63.623047"/>
       <use xlink:href="#DejaVuSans-30" x="127.246094"/>
       <use xlink:href="#DejaVuSans-30" x="190.869141"/>
       <use xlink:href="#DejaVuSans-30" x="254.492188"/>
      </g>
     </g>
    </g>
   </g>
   <g id="matplotlib.axis_2">
    <g id="ytick_1">
     <g id="line2d_8">
      <defs>
       <path id="me333c73ce3" d="M 0 0 
L -3.5 0 
" style="stroke: #000000; stroke-width: 0.8"/>
      </defs>
      <g>
       <use xlink:href="#me333c73ce3" x="57.6" y="150.905954" style="stroke: #000000; stroke-width: 0.8"/>
      </g>
     </g>
     <g id="text_8">
      <!-- 40 -->
      <g transform="translate(37.875 154.705173)scale(0.1 -0.1)">
       <use xlink:href="#DejaVuSans-34"/>
       <use xlink:href="#DejaVuSans-30" x="63.623047"/>
      </g>
     </g>
    </g>
    <g id="ytick_2">
     <g id="line2d_9">
      <g>
       <use xlink:href="#me333c73ce3" x="57.6" y="120.12537" style="stroke: #000000; stroke-width: 0.8"/>
      </g>
     </g>
     <g id="text_9">
      <!-- 60 -->
      <g transform="translate(37.875 123.924589)scale(0.1 -0.1)">
       <use xlink:href="#DejaVuSans-36"/>
       <use xlink:href="#DejaVuSans-30" x="63.623047"/>
      </g>
     </g>
    </g>
    <g id="ytick_3">
     <g id="line2d_10">
      <g>
       <use xlink:href="#me333c73ce3" x="57.6" y="89.344786" style="stroke: #000000; stroke-width: 0.8"/>
      </g>
     </g>
     <g id="text_10">
      <!-- 80 -->
      <g transform="translate(37.875 93.144005)scale(0.1 -0.1)">
       <defs>
        <path id="DejaVuSans-38" d="M 2034 2216 
Q 1584 2216 1326 1975 
Q 1069 1734 1069 1313 
Q 1069 891 1326 650 
Q 1584 409 2034 409 
Q 2484 409 2743 651 
Q 3003 894 3003 1313 
Q 3003 1734 2745 1975 
Q 2488 2216 2034 2216 
z
M 1403 2484 
Q 997 2584 770 2862 
Q 544 3141 544 3541 
Q 544 4100 942 4425 
Q 1341 4750 2034 4750 
Q 2731 4750 3128 4425 
Q 3525 4100 3525 3541 
Q 3525 3141 3298 2862 
Q 3072 2584 2669 2484 
Q 3125 2378 3379 2068 
Q 3634 1759 3634 1313 
Q 3634 634 3220 271 
Q 2806 -91 2034 -91 
Q 1263 -91 848 271 
Q 434 634 434 1313 
Q 434 1759 690 2068 
Q 947 2378 1403 2484 
z
M 1172 3481 
Q 1172 3119 1398 2916 
Q 1625 2713 2034 2713 
Q 2441 2713 2670 2916 
Q 2900 3119 2900 3481 
Q 2900 3844 2670 4047 
Q 2441 4250 2034 4250 
Q 1625 4250 1398 4047 
Q 1172 3844 1172 3481 
z
" transform="scale(0.015625)"/>
       </defs>
       <use xlink:href="#DejaVuSans-38"/>
       <use xlink:href="#DejaVuSans-30" x="63.623047"/>
      </g>
     </g>
    </g>
    <g id="ytick_4">
     <g id="line2d_11">
      <g>
       <use xlink:href="#me333c73ce3" x="57.6" y="58.564202" style="stroke: #000000; stroke-width: 0.8"/>
      </g>
     </g>
     <g id="text_11">
      <!-- 100 -->
      <g transform="translate(31.5125 62.363421)scale(0.1 -0.1)">
       <use xlink:href="#DejaVuSans-31"/>
       <use xlink:href="#DejaVuSans-30" x="63.623047"/>
       <use xlink:href="#DejaVuSans-30" x="127.246094"/>
      </g>
     </g>
    </g>
   </g>
   <g id="line2d_12">
    <path d="M 73.832727 60.103231 
L 73.85891 58.820707 
L 73.906038 62.15527 
L 73.911274 62.15527 
L 73.921747 62.15527 
L 73.947929 61.385755 
L 73.974111 65.233328 
L 74.016003 64.412513 
L 74.021239 64.412513 
L 74.057895 65.951542 
L 74.131205 65.566785 
L 74.136441 65.566785 
L 74.157387 64.79727 
L 74.162624 66.336299 
L 74.246407 65.566785 
L 74.298771 65.566785 
L 74.382554 64.027755 
L 74.408737 65.182027 
L 74.419209 65.182027 
L 74.450628 63.642998 
L 74.529175 64.79727 
L 74.550121 64.79727 
L 74.560594 64.412513 
L 74.618194 66.721057 
L 74.623431 66.721057 
L 74.707214 71.338144 
L 74.743869 70.56863 
L 74.859071 70.05562 
L 74.969037 70.05562 
L 74.984746 69.286105 
L 75.03711 72.364164 
L 75.068529 71.594649 
L 75.27275 71.594649 
L 75.283223 73.133678 
L 75.340824 71.209892 
L 75.377479 71.209892 
L 75.466499 71.209892 
L 75.581701 70.825134 
L 76.005853 70.825134 
L 76.047745 70.440377 
L 76.052981 71.979406 
L 76.105346 71.594649 
L 76.194365 73.133678 
L 76.215311 72.748921 
L 76.498079 72.748921 
L 76.513789 71.979406 
L 76.519025 73.518436 
L 76.587099 73.518436 
L 76.702301 75.057465 
L 76.80703 75.057465 
L 76.885577 74.672707 
L 76.890813 76.211737 
L 76.901286 76.211737 
L 76.937941 76.211737 
L 77.021724 75.826979 
L 77.026961 77.366009 
L 77.032197 77.366009 
L 77.184054 77.366009 
L 77.299256 76.981251 
L 77.341147 76.981251 
L 77.419694 78.52028 
L 77.451113 78.135523 
L 78.00094 78.135523 
L 78.121378 77.366009 
L 78.131851 77.366009 
L 78.247053 78.905038 
L 78.362255 78.52028 
L 78.47222 78.52028 
L 78.540294 80.05931 
L 78.582186 79.674552 
L 78.880663 79.674552 
L 78.995865 79.289795 
L 79.137249 79.289795 
L 79.252451 78.905038 
L 79.372889 78.905038 
L 79.414781 80.444067 
L 79.482855 80.05931 
L 79.51951 80.05931 
L 79.634712 82.752611 
L 79.66613 82.752611 
L 79.786569 81.983096 
L 80.184539 81.983096 
L 80.304977 85.061155 
L 80.509199 85.061155 
L 80.6244 86.600184 
L 80.634873 86.600184 
L 80.755312 85.830669 
L 80.818149 85.830669 
L 80.933351 87.369698 
L 81.048553 86.984941 
L 81.472705 86.984941 
L 81.587907 86.600184 
L 82.938911 86.600184 
L 83.054112 86.215426 
L 83.525393 86.215426 
L 83.551575 85.830669 
L 83.556811 87.369698 
L 83.619649 87.369698 
L 83.949545 87.369698 
L 84.064747 86.984941 
L 85.01778 86.984941 
L 85.075381 88.52397 
L 85.127746 88.139213 
L 85.405278 88.139213 
L 85.520479 87.754456 
L 85.682809 87.754456 
L 85.798011 89.293485 
L 86.677734 89.293485 
L 86.798173 88.52397 
L 86.944793 88.52397 
L 87.059995 90.062999 
L 87.971137 90.062999 
L 88.086339 91.602029 
L 88.903225 91.602029 
L 89.018427 91.217271 
L 89.395451 91.217271 
L 89.510653 90.832514 
L 89.526362 90.832514 
L 89.641564 92.371543 
L 91.186316 92.371543 
L 91.301518 91.986786 
L 91.620941 91.986786 
L 91.736143 91.602029 
L 92.029384 91.602029 
L 92.144586 93.141058 
L 93.401334 93.141058 
L 93.516536 92.756301 
L 94.935613 92.756301 
L 95.050815 92.371543 
L 95.946248 92.371543 
L 96.061449 93.910572 
L 96.862626 93.910572 
L 96.977828 93.525815 
L 97.621911 93.525815 
L 97.737113 95.064844 
L 97.773768 95.064844 
L 97.88897 94.680087 
L 98.417851 94.680087 
L 98.533053 94.29533 
L 99.533215 94.29533 
L 99.648416 95.834359 
L 100.428647 95.834359 
L 100.543849 97.373388 
L 102.35566 97.373388 
L 102.470862 96.988631 
L 111.93836 96.988631 
L 112.053562 96.603874 
L 112.069271 96.603874 
L 112.184473 98.142903 
L 115.184958 98.142903 
L 115.30016 97.758145 
L 116.363159 97.758145 
L 116.478361 99.297175 
L 120.405697 99.297175 
L 120.520898 98.912417 
L 125.663091 98.912417 
L 125.778292 100.451447 
L 131.417947 100.451447 
L 131.533149 100.066689 
L 132.287197 100.066689 
L 132.402399 101.605718 
L 132.774187 101.605718 
L 132.889389 103.144748 
L 139.262146 103.144748 
L 139.377348 102.75999 
L 152.866438 102.75999 
L 152.98164 102.375233 
L 154.510683 102.375233 
L 154.625885 103.914262 
L 195.94146 103.914262 
L 196.056662 105.453291 
L 208.299478 105.453291 
L 208.41468 105.068534 
L 217.164785 105.068534 
L 217.279986 104.683777 
L 236.775283 104.683777 
L 236.890485 106.222806 
L 241.210554 106.222806 
L 241.325756 107.761835 
L 245.268801 107.761835 
L 245.384003 107.377078 
L 270.932634 107.377078 
L 271.047835 106.992321 
L 295.784816 106.992321 
L 295.900018 108.53135 
L 304.414483 108.53135 
L 304.529685 108.146593 
L 312.452431 108.146593 
L 312.567632 107.761835 
L 362.434328 107.761835 
L 362.549529 107.377078 
L 373.844548 107.377078 
L 373.95975 108.916107 
L 398.487273 108.916107 
L 398.487273 108.916107 
" clip-path="url(#p33d2977e29)" style="fill: none; stroke: #1f77b4; stroke-width: 1.5; stroke-linecap: square"/>
   </g>
   <g id="line2d_13">
    <path d="M 73.832727 60.103231 
L 73.979348 71.64595 
L 74.021239 71.64595 
L 74.036949 73.184979 
L 74.131205 72.287212 
L 74.136441 72.287212 
L 74.157387 71.517698 
L 74.16786 74.595756 
L 74.235934 73.826241 
L 74.246407 73.826241 
L 74.277825 73.313232 
L 74.31448 75.621775 
L 74.335426 75.621775 
L 74.345899 75.621775 
L 74.382554 74.339251 
L 74.408737 76.519542 
L 74.445392 75.750028 
L 74.576303 83.060417 
L 74.597249 83.060417 
L 74.612958 82.290902 
L 74.633904 86.90799 
L 74.681032 86.90799 
L 74.701978 86.90799 
L 74.707214 88.447019 
L 74.811943 87.677504 
L 74.969037 87.677504 
L 74.984746 86.90799 
L 75.03711 91.525077 
L 75.058056 90.755563 
L 75.27275 90.755563 
L 75.283223 92.294592 
L 75.340824 90.370805 
L 75.377479 90.370805 
L 75.398425 90.370805 
L 75.466499 91.909834 
L 75.508391 91.525077 
L 75.581701 91.525077 
L 75.696903 91.012067 
L 75.838287 91.012067 
L 75.953489 90.499058 
L 76.005853 90.499058 
L 76.047745 90.1143 
L 76.052981 91.65333 
L 76.0844 91.65333 
L 76.194365 94.346631 
L 76.199602 93.961873 
L 76.251966 93.961873 
L 76.367168 95.500903 
L 76.498079 95.500903 
L 76.503316 95.116145 
L 76.519025 97.809446 
L 76.576626 97.809446 
L 76.587099 97.809446 
L 76.702301 99.348476 
L 76.80703 99.348476 
L 76.885577 98.963718 
L 76.890813 100.502748 
L 76.901286 100.502748 
L 76.937941 100.502748 
L 76.964123 100.11799 
L 76.96936 101.657019 
L 77.021724 101.657019 
L 77.136926 103.196049 
L 77.184054 103.196049 
L 77.299256 102.811291 
L 77.341147 102.811291 
L 77.419694 104.350321 
L 77.451113 103.965563 
L 77.91192 103.965563 
L 77.964285 105.504592 
L 78.021886 104.606825 
L 78.116142 104.606825 
L 78.131851 104.222068 
L 78.137088 105.761097 
L 78.210398 105.761097 
L 78.241817 105.761097 
L 78.341309 104.86333 
L 78.456511 106.402359 
L 78.47222 106.402359 
L 78.540294 107.941389 
L 78.582186 107.556631 
L 78.613604 107.556631 
L 78.728806 109.095661 
L 78.823062 109.095661 
L 78.880663 110.63469 
L 78.933028 110.249932 
L 79.037757 110.249932 
L 79.152959 109.352165 
L 79.205323 109.352165 
L 79.325761 112.430224 
L 79.372889 112.430224 
L 79.414781 113.969253 
L 79.482855 113.584496 
L 79.51951 113.584496 
L 79.634712 116.277797 
L 79.66613 116.277797 
L 79.786569 115.508282 
L 80.184539 115.508282 
L 80.304977 118.586341 
L 80.509199 118.586341 
L 80.6244 120.12537 
L 80.634873 120.12537 
L 80.755312 119.355855 
L 80.818149 119.355855 
L 80.854804 120.894884 
L 80.928114 120.381875 
L 80.933351 120.381875 
L 81.048553 119.997117 
L 81.074735 119.997117 
L 81.189937 121.536147 
L 81.472705 121.536147 
L 81.587907 121.151389 
L 82.938911 121.151389 
L 83.054112 120.766632 
L 83.164078 120.766632 
L 83.242624 122.305661 
L 83.274043 121.792651 
L 83.525393 121.792651 
L 83.551575 121.407894 
L 83.556811 122.946923 
L 83.619649 122.946923 
L 83.949545 122.946923 
L 84.064747 122.562166 
L 85.01778 122.562166 
L 85.075381 124.101195 
L 85.127746 123.716438 
L 85.211529 123.716438 
L 85.326731 123.203428 
L 85.379095 123.203428 
L 85.405278 124.742457 
L 85.489061 124.3577 
L 85.682809 124.3577 
L 85.798011 125.896729 
L 86.117435 125.896729 
L 86.232636 127.435759 
L 86.677734 127.435759 
L 86.798173 126.666244 
L 86.944793 126.666244 
L 87.059995 128.205273 
L 87.971137 128.205273 
L 88.086339 129.744302 
L 88.903225 129.744302 
L 89.018427 129.359545 
L 89.395451 129.359545 
L 89.510653 128.974788 
L 89.526362 128.974788 
L 89.641564 130.513817 
L 91.186316 130.513817 
L 91.301518 130.12906 
L 91.463848 130.12906 
L 91.57905 131.668089 
L 91.620941 131.668089 
L 91.736143 131.283332 
L 91.772798 131.283332 
L 91.888 132.822361 
L 92.484955 132.822361 
L 92.600157 134.36139 
L 93.401334 134.36139 
L 93.516536 133.976633 
L 94.935613 133.976633 
L 95.050815 133.591875 
L 95.946248 133.591875 
L 96.061449 135.130905 
L 96.862626 135.130905 
L 96.977828 134.746147 
L 97.621911 134.746147 
L 97.737113 136.285176 
L 97.773768 136.285176 
L 97.88897 135.900419 
L 98.417851 135.900419 
L 98.533053 135.515662 
L 99.507032 135.515662 
L 99.627471 138.59372 
L 100.428647 138.59372 
L 100.543849 140.132749 
L 102.35566 140.132749 
L 102.470862 139.747992 
L 103.832338 139.747992 
L 103.94754 141.287021 
L 111.93836 141.287021 
L 112.053562 140.902264 
L 112.069271 140.902264 
L 112.184473 142.441293 
L 115.184958 142.441293 
L 115.30016 142.056536 
L 116.363159 142.056536 
L 116.478361 143.595565 
L 120.405697 143.595565 
L 120.520898 143.210808 
L 125.663091 143.210808 
L 125.783529 146.288866 
L 131.417947 146.288866 
L 131.533149 145.904109 
L 132.093449 145.904109 
L 132.208651 145.519352 
L 132.287197 145.519352 
L 132.402399 147.058381 
L 132.774187 147.058381 
L 132.889389 148.59741 
L 139.262146 148.59741 
L 139.377348 148.212653 
L 152.866438 148.212653 
L 152.98164 147.827895 
L 154.510683 147.827895 
L 154.625885 149.366925 
L 195.94146 149.366925 
L 196.056662 150.905954 
L 208.299478 150.905954 
L 208.41468 150.521197 
L 217.164785 150.521197 
L 217.279986 150.136439 
L 236.775283 150.136439 
L 236.890485 151.675468 
L 241.210554 151.675468 
L 241.325756 153.214498 
L 245.268801 153.214498 
L 245.384003 152.82974 
L 270.932634 152.82974 
L 271.047835 152.444983 
L 289.45395 152.444983 
L 289.569152 153.984012 
L 295.784816 153.984012 
L 295.900018 155.523041 
L 304.414483 155.523041 
L 304.529685 155.138284 
L 304.63965 155.138284 
L 304.754852 156.677313 
L 312.452431 156.677313 
L 312.567632 156.292556 
L 319.160321 156.292556 
L 319.275522 155.779546 
L 362.434328 155.779546 
L 362.549529 155.394789 
L 373.844548 155.394789 
L 373.95975 156.933818 
L 398.487273 156.933818 
L 398.487273 156.933818 
" clip-path="url(#p33d2977e29)" style="fill: none; stroke: #ff7f0e; stroke-width: 1.5; stroke-linecap: square"/>
   </g>
   <g id="line2d_14">
    <path d="M 73.832727 58.179444 
L 73.968875 55.999153 
L 73.979348 55.999153 
L 74.099786 55.178338 
L 74.345899 55.178338 
L 74.434919 56.717367 
L 74.455865 55.947852 
L 74.513466 55.947852 
L 74.628667 55.563095 
L 75.738794 55.563095 
L 75.838287 54.024066 
L 75.84876 55.563095 
L 83.242624 55.563095 
L 83.357826 57.102124 
L 92.029384 57.102124 
L 92.144586 58.641153 
L 132.093449 58.641153 
L 132.208651 60.180182 
L 398.487273 60.180182 
L 398.487273 60.180182 
" clip-path="url(#p33d2977e29)" style="fill: none; stroke: #2ca02c; stroke-width: 1.5; stroke-linecap: square"/>
   </g>
   <g id="line2d_15">
    <path d="M 73.832727 58.564202 
L 73.947929 60.103231 
L 74.036949 60.103231 
L 74.152151 62.796532 
L 74.157387 62.796532 
L 74.277825 65.87459 
L 74.387791 65.87459 
L 74.398264 65.489833 
L 74.455865 68.567892 
L 74.461101 68.567892 
L 74.550121 68.567892 
L 74.670559 67.875328 
L 74.707214 67.875328 
L 74.832889 66.592804 
L 74.984746 66.592804 
L 75.099948 68.131833 
L 75.335588 68.131833 
L 75.43508 67.747076 
L 75.466499 69.286105 
L 75.545046 68.901348 
L 76.005853 68.901348 
L 76.126292 68.131833 
L 76.194365 68.131833 
L 76.309567 67.747076 
L 76.498079 67.747076 
L 76.503316 67.362319 
L 76.508552 68.901348 
L 76.597572 68.516591 
L 76.80703 68.516591 
L 76.922232 68.131833 
L 76.937941 68.131833 
L 77.053143 67.747076 
L 77.184054 67.747076 
L 77.299256 67.362319 
L 77.341147 67.362319 
L 77.419694 68.901348 
L 77.451113 68.516591 
L 77.964285 68.516591 
L 78.00094 70.05562 
L 78.07425 69.670863 
L 78.116142 69.670863 
L 78.231344 69.286105 
L 78.241817 69.286105 
L 78.247053 70.825134 
L 78.351782 70.440377 
L 78.540294 70.440377 
L 78.655496 70.05562 
L 78.880663 70.05562 
L 78.995865 69.670863 
L 79.037757 69.670863 
L 79.137249 71.209892 
L 79.147722 70.825134 
L 79.372889 70.825134 
L 79.414781 72.364164 
L 79.482855 71.979406 
L 79.582347 71.979406 
L 79.708022 70.825134 
L 80.509199 70.825134 
L 80.6244 72.364164 
L 80.634873 72.364164 
L 80.755312 71.594649 
L 80.818149 71.594649 
L 80.933351 74.672707 
L 81.048553 74.28795 
L 81.472705 74.28795 
L 81.587907 73.903193 
L 82.938911 73.903193 
L 83.054112 73.518436 
L 83.525393 73.518436 
L 83.640595 73.133678 
L 83.949545 73.133678 
L 84.064747 72.748921 
L 85.01778 72.748921 
L 85.075381 74.28795 
L 85.127746 73.903193 
L 85.211529 73.903193 
L 85.326731 75.442222 
L 85.405278 75.442222 
L 85.520479 75.057465 
L 86.677734 75.057465 
L 86.798173 74.28795 
L 88.903225 74.28795 
L 89.018427 73.903193 
L 89.395451 73.903193 
L 89.510653 73.518436 
L 91.186316 73.518436 
L 91.301518 73.133678 
L 91.620941 73.133678 
L 91.736143 72.748921 
L 92.511138 72.748921 
L 92.626339 74.28795 
L 93.401334 74.28795 
L 93.516536 73.903193 
L 94.935613 73.903193 
L 95.050815 73.518436 
L 96.862626 73.518436 
L 96.977828 73.133678 
L 97.621911 73.133678 
L 97.737113 74.672707 
L 97.773768 74.672707 
L 97.88897 74.28795 
L 98.417851 74.28795 
L 98.533053 73.903193 
L 100.428647 73.903193 
L 100.543849 75.442222 
L 102.35566 75.442222 
L 102.470862 75.057465 
L 111.93836 75.057465 
L 112.053562 74.672707 
L 112.069271 74.672707 
L 112.184473 76.211737 
L 115.184958 76.211737 
L 115.30016 75.826979 
L 120.405697 75.826979 
L 120.520898 75.442222 
L 131.417947 75.442222 
L 131.533149 75.057465 
L 132.774187 75.057465 
L 132.889389 76.596494 
L 139.262146 76.596494 
L 139.377348 76.211737 
L 152.866438 76.211737 
L 152.98164 75.826979 
L 154.510683 75.826979 
L 154.625885 77.366009 
L 195.94146 77.366009 
L 196.056662 78.905038 
L 208.299478 78.905038 
L 208.41468 78.52028 
L 217.164785 78.52028 
L 217.279986 78.135523 
L 236.775283 78.135523 
L 236.890485 79.674552 
L 245.268801 79.674552 
L 245.384003 79.289795 
L 270.932634 79.289795 
L 271.047835 78.905038 
L 295.784816 78.905038 
L 295.900018 80.444067 
L 304.414483 80.444067 
L 304.529685 80.05931 
L 312.452431 80.05931 
L 312.567632 79.674552 
L 362.434328 79.674552 
L 362.549529 79.289795 
L 398.487273 79.289795 
L 398.487273 79.289795 
" clip-path="url(#p33d2977e29)" style="fill: none; stroke: #d62728; stroke-width: 1.5; stroke-linecap: square"/>
   </g>
   <g id="line2d_16">
    <path d="M 73.832727 58.564202 
L 73.958402 57.281677 
L 73.979348 57.281677 
L 73.989821 58.820707 
L 74.089313 58.307697 
L 132.093449 58.307697 
L 132.208651 59.846726 
L 398.487273 59.846726 
L 398.487273 59.846726 
" clip-path="url(#p33d2977e29)" style="fill: none; stroke: #9467bd; stroke-width: 1.5; stroke-linecap: square"/>
   </g>
   <g id="line2d_17">
    <path d="M 73.832727 58.564202 
L 73.837964 58.564202 
L 73.963638 57.281677 
L 73.979348 57.281677 
L 74.09455 56.973872 
L 74.345899 56.973872 
L 74.461101 58.512901 
L 74.513466 58.512901 
L 74.628667 58.128144 
L 75.838287 58.128144 
L 75.953489 59.667173 
L 92.029384 59.667173 
L 92.144586 61.206202 
L 132.093449 61.206202 
L 132.208651 62.745231 
L 319.160321 62.745231 
L 319.275522 62.232221 
L 398.487273 62.232221 
L 398.487273 62.232221 
" clip-path="url(#p33d2977e29)" style="fill: none; stroke: #8c564b; stroke-width: 1.5; stroke-linecap: square"/>
   </g>
   <g id="line2d_18">
    <path d="M 73.832727 60.103231 
L 73.837964 60.103231 
L 73.947929 64.720319 
L 73.958402 64.207309 
L 73.968875 64.207309 
L 73.984584 65.233328 
L 74.09455 62.66828 
L 74.157387 62.66828 
L 74.277825 61.64226 
L 74.288298 61.64226 
L 74.398264 64.720319 
L 74.4035 64.207309 
L 74.450628 64.207309 
L 74.513466 63.694299 
L 74.518702 65.233328 
L 74.550121 65.233328 
L 74.612958 65.233328 
L 74.72816 64.412513 
L 74.984746 64.412513 
L 75.099948 63.899503 
L 75.43508 63.899503 
L 75.550282 63.129988 
L 75.581701 63.129988 
L 75.696903 62.616979 
L 75.838287 62.616979 
L 75.953489 64.156008 
L 76.503316 64.156008 
L 76.618518 63.642998 
L 77.341147 63.642998 
L 77.35162 63.129988 
L 77.356857 64.669018 
L 77.44064 64.669018 
L 77.964285 64.669018 
L 78.079487 64.156008 
L 78.241817 64.156008 
L 78.357018 63.642998 
L 79.037757 63.642998 
L 79.152959 63.129988 
L 79.372889 63.129988 
L 79.488091 62.616979 
L 80.509199 62.616979 
L 80.6244 62.103969 
L 80.818149 62.103969 
L 80.854804 61.590959 
L 80.860041 63.129988 
L 80.917642 63.129988 
L 83.242624 63.129988 
L 83.357826 64.669018 
L 85.01778 64.669018 
L 85.132982 64.156008 
L 85.211529 64.156008 
L 85.326731 63.642998 
L 92.029384 63.642998 
L 92.144586 65.182027 
L 92.511138 65.182027 
L 92.626339 64.412513 
L 97.621911 64.412513 
L 97.737113 63.899503 
L 100.428647 63.899503 
L 100.543849 63.386493 
L 103.832338 63.386493 
L 103.94754 64.925522 
L 112.069271 64.925522 
L 112.184473 64.412513 
L 132.093449 64.412513 
L 132.208651 65.951542 
L 132.774187 65.951542 
L 132.889389 65.438532 
L 154.510683 65.438532 
L 154.625885 64.925522 
L 195.94146 64.925522 
L 196.056662 64.412513 
L 227.475351 64.412513 
L 227.590553 65.951542 
L 236.775283 65.951542 
L 236.890485 65.438532 
L 295.784816 65.438532 
L 295.900018 64.925522 
L 319.160321 64.925522 
L 319.275522 66.464552 
L 398.487273 66.464552 
L 398.487273 66.464552 
" clip-path="url(#p33d2977e29)" style="fill: none; stroke: #e377c2; stroke-width: 1.5; stroke-linecap: square"/>
   </g>
   <g id="line2d_19">
    <path d="M 73.832727 58.179444 
L 73.837964 58.179444 
L 73.989821 55.050085 
L 74.288298 55.050085 
L 74.4035 52.998046 
L 74.513466 52.998046 
L 74.628667 52.613289 
L 75.838287 52.613289 
L 75.953489 52.100279 
L 77.35162 52.100279 
L 77.466822 50.56125 
L 80.854804 50.56125 
L 80.970006 50.04824 
L 83.242624 50.04824 
L 83.357826 49.53523 
L 92.029384 49.53523 
L 92.144586 49.150473 
L 103.832338 49.150473 
L 103.94754 48.637463 
L 132.093449 48.637463 
L 132.208651 48.252706 
L 227.475351 48.252706 
L 227.590553 47.483192 
L 319.160321 47.483192 
L 319.275522 46.970182 
L 398.487273 46.970182 
L 398.487273 46.970182 
" clip-path="url(#p33d2977e29)" style="fill: none; stroke: #7f7f7f; stroke-width: 1.5; stroke-linecap: square"/>
   </g>
   <g id="line2d_20">
    <path d="M 73.832727 58.179444 
L 73.947929 63.822552 
L 73.958402 63.309542 
L 73.963638 63.309542 
L 73.979348 62.027017 
L 73.995057 65.105076 
L 74.063131 64.848571 
L 74.07884 64.848571 
L 74.204515 62.027017 
L 74.246407 62.027017 
L 74.361609 61.514008 
L 74.382554 61.514008 
L 74.387791 60.744493 
L 74.440155 63.309542 
L 74.482047 62.796532 
L 74.513466 62.796532 
L 74.560594 65.87459 
L 74.628667 64.28426 
L 74.707214 62.745231 
L 74.738633 64.28426 
L 74.743869 65.82329 
L 74.848598 65.31028 
L 74.984746 65.31028 
L 75.105184 64.027755 
L 75.27275 64.027755 
L 75.335588 63.258241 
L 75.340824 64.79727 
L 75.377479 64.79727 
L 75.43508 64.79727 
L 75.466499 64.027755 
L 75.471736 65.566785 
L 75.539809 65.566785 
L 75.581701 65.566785 
L 75.696903 65.053775 
L 75.738794 65.053775 
L 75.853996 66.592804 
L 76.005853 66.592804 
L 76.105346 68.901348 
L 76.121055 68.131833 
L 76.194365 68.131833 
L 76.304331 69.670863 
L 76.419533 68.131833 
L 76.498079 68.131833 
L 76.513789 70.696882 
L 76.608045 69.157853 
L 76.80703 69.157853 
L 76.812266 70.696882 
L 76.890813 68.388338 
L 76.911759 68.388338 
L 76.937941 68.388338 
L 76.964123 69.927367 
L 77.047906 68.388338 
L 77.184054 68.388338 
L 77.299256 69.927367 
L 77.341147 69.927367 
L 77.419694 69.414358 
L 77.424931 70.953387 
L 77.44064 70.953387 
L 77.91192 70.953387 
L 78.00094 69.670863 
L 78.006176 71.209892 
L 78.016649 71.209892 
L 78.116142 71.209892 
L 78.131851 72.748921 
L 78.226107 71.979406 
L 78.241817 71.979406 
L 78.247053 71.466397 
L 78.252289 73.005426 
L 78.341309 73.005426 
L 78.47222 73.005426 
L 78.540294 72.235911 
L 78.545531 73.77494 
L 78.576949 73.77494 
L 78.823062 73.77494 
L 78.880663 73.005426 
L 78.8859 74.544455 
L 78.927791 74.544455 
L 78.95921 74.544455 
L 79.074412 72.492416 
L 79.137249 72.492416 
L 79.252451 74.031445 
L 79.372889 74.031445 
L 79.414781 73.518436 
L 79.420017 75.057465 
L 79.472382 75.057465 
L 79.51951 75.057465 
L 79.582347 74.28795 
L 79.587584 75.826979 
L 79.629475 75.057465 
L 79.66613 75.057465 
L 79.786569 78.135523 
L 80.184539 78.135523 
L 80.31545 75.057465 
L 80.509199 75.057465 
L 80.6244 74.544455 
L 80.634873 74.544455 
L 80.755312 77.622513 
L 80.818149 77.622513 
L 80.933351 76.596494 
L 81.048553 78.135523 
L 81.472705 78.135523 
L 81.587907 79.674552 
L 81.802601 79.674552 
L 81.917803 78.135523 
L 82.938911 78.135523 
L 83.054112 79.674552 
L 83.242624 79.674552 
L 83.357826 79.161543 
L 83.525393 79.161543 
L 83.551575 80.700572 
L 83.635358 79.931057 
L 83.949545 79.931057 
L 83.954781 81.470086 
L 84.054274 78.392028 
L 85.01778 78.392028 
L 85.075381 77.879018 
L 85.080618 79.418047 
L 85.117273 79.418047 
L 85.211529 79.418047 
L 85.326731 78.905038 
L 85.405278 78.905038 
L 85.520479 80.444067 
L 85.682809 80.444067 
L 85.798011 79.674552 
L 86.677734 79.674552 
L 86.798173 82.752611 
L 86.944793 82.752611 
L 87.059995 81.983096 
L 87.971137 81.983096 
L 88.086339 81.213582 
L 88.70424 81.213582 
L 88.819442 79.674552 
L 88.903225 79.674552 
L 89.018427 81.213582 
L 89.395451 81.213582 
L 89.510653 82.752611 
L 89.526362 82.752611 
L 89.652037 80.444067 
L 91.186316 80.444067 
L 91.301518 81.983096 
L 91.411484 81.983096 
L 91.526685 80.444067 
L 91.620941 80.444067 
L 91.736143 81.983096 
L 92.029384 81.983096 
L 92.144586 81.598339 
L 92.511138 81.598339 
L 92.626339 80.828824 
L 93.401334 80.828824 
L 93.516536 82.367853 
L 94.935613 82.367853 
L 95.050815 83.906883 
L 95.946248 83.906883 
L 96.061449 83.137368 
L 96.862626 83.137368 
L 96.977828 84.676397 
L 97.312961 84.676397 
L 97.428162 83.137368 
L 97.621911 83.137368 
L 97.737113 82.624358 
L 97.773768 82.624358 
L 97.88897 84.163387 
L 98.417851 84.163387 
L 98.533053 85.702417 
L 99.507032 85.702417 
L 99.627471 84.163387 
L 100.428647 84.163387 
L 100.543849 83.650378 
L 102.35566 83.650378 
L 102.470862 85.189407 
L 103.832338 85.189407 
L 103.94754 84.676397 
L 104.43453 84.676397 
L 104.549732 83.137368 
L 111.93836 83.137368 
L 112.053562 84.676397 
L 112.069271 84.676397 
L 112.184473 84.163387 
L 115.184958 84.163387 
L 115.30016 85.702417 
L 116.363159 85.702417 
L 116.478361 84.932902 
L 120.405697 84.932902 
L 120.520898 86.471931 
L 125.663091 86.471931 
L 125.778292 85.702417 
L 131.417947 85.702417 
L 131.533149 87.241446 
L 132.093449 87.241446 
L 132.208651 88.780475 
L 132.287197 88.780475 
L 132.402399 88.01096 
L 132.774187 88.01096 
L 132.889389 87.497951 
L 139.262146 87.497951 
L 139.377348 89.03698 
L 142.660601 89.03698 
L 142.775803 87.497951 
L 152.866438 87.497951 
L 152.98164 89.03698 
L 154.510683 89.03698 
L 154.625885 88.52397 
L 195.94146 88.52397 
L 196.056662 88.01096 
L 208.299478 88.01096 
L 208.41468 89.54999 
L 217.164785 89.54999 
L 217.279986 91.089019 
L 227.475351 91.089019 
L 227.590553 90.319504 
L 236.775283 90.319504 
L 236.890485 89.806495 
L 241.210554 89.806495 
L 241.325756 89.03698 
L 245.268801 89.03698 
L 245.384003 90.576009 
L 270.932634 90.576009 
L 271.047835 92.115038 
L 295.784816 92.115038 
L 295.900018 91.602029 
L 304.414483 91.602029 
L 304.529685 93.141058 
L 304.63965 93.141058 
L 304.754852 92.371543 
L 312.452431 92.371543 
L 312.567632 93.910572 
L 312.824218 93.910572 
L 312.93942 92.371543 
L 362.434328 92.371543 
L 362.549529 93.910572 
L 373.844548 93.910572 
L 373.95975 93.141058 
L 398.487273 93.141058 
L 398.487273 93.141058 
" clip-path="url(#p33d2977e29)" style="fill: none; stroke: #bcbd22; stroke-width: 1.5; stroke-linecap: square"/>
   </g>
   <g id="line2d_21">
    <path d="M 73.832727 58.179444 
L 73.947929 64.335561 
L 73.958402 63.822552 
L 73.963638 63.822552 
L 73.989821 62.232221 
L 74.042185 66.336299 
L 74.052658 66.336299 
L 74.057895 66.336299 
L 74.07884 65.951542 
L 74.084077 67.490571 
L 74.131205 67.490571 
L 74.25688 72.107659 
L 74.345899 72.107659 
L 74.471574 77.109504 
L 74.550121 77.109504 
L 74.696741 74.364902 
L 74.701978 74.364902 
L 74.743869 72.825872 
L 74.811943 74.364902 
L 74.984746 74.364902 
L 75.031874 75.903931 
L 75.094711 75.134416 
L 75.27275 75.134416 
L 75.387952 73.980144 
L 75.43508 73.980144 
L 75.466499 75.519173 
L 75.545046 75.134416 
L 75.581701 75.134416 
L 75.696903 76.673445 
L 75.738794 76.673445 
L 75.859233 79.751504 
L 76.005853 79.751504 
L 76.147237 77.44296 
L 76.194365 77.44296 
L 76.304331 77.058203 
L 76.419533 78.597232 
L 76.498079 78.597232 
L 76.508552 79.751504 
L 76.618518 77.827717 
L 76.80703 77.827717 
L 76.812266 77.44296 
L 76.817503 78.981989 
L 76.911759 78.212475 
L 76.937941 78.212475 
L 76.964123 77.827717 
L 76.96936 79.366746 
L 77.04267 78.597232 
L 77.184054 78.597232 
L 77.299256 78.212475 
L 77.341147 78.212475 
L 77.419694 79.751504 
L 77.451113 79.366746 
L 77.91192 79.366746 
L 78.00094 82.444805 
L 78.027122 82.060048 
L 78.116142 82.060048 
L 78.241817 80.905776 
L 78.247053 82.444805 
L 78.351782 82.060048 
L 78.47222 82.060048 
L 78.587422 80.905776 
L 78.823062 80.905776 
L 78.880663 82.444805 
L 78.933028 82.060048 
L 78.95921 82.060048 
L 79.079648 85.138106 
L 79.137249 85.138106 
L 79.252451 84.753349 
L 79.372889 84.753349 
L 79.414781 86.292378 
L 79.482855 85.907621 
L 79.51951 85.907621 
L 79.639948 83.983834 
L 79.66613 83.983834 
L 79.786569 83.214319 
L 80.184539 83.214319 
L 80.200248 82.444805 
L 80.205485 83.983834 
L 80.294504 83.214319 
L 80.509199 83.214319 
L 80.6244 84.753349 
L 80.634873 84.753349 
L 80.755312 83.983834 
L 80.818149 83.983834 
L 80.933351 87.061892 
L 81.048553 86.677135 
L 81.472705 86.677135 
L 81.587907 86.292378 
L 81.802601 86.292378 
L 81.917803 87.831407 
L 82.938911 87.831407 
L 83.054112 87.44665 
L 83.242624 87.44665 
L 83.357826 88.985679 
L 83.525393 88.985679 
L 83.651067 87.831407 
L 83.949545 87.831407 
L 83.954781 87.44665 
L 83.960018 88.985679 
L 84.043801 88.985679 
L 84.049038 88.985679 
L 84.164239 90.524708 
L 85.01778 90.524708 
L 85.075381 92.063737 
L 85.127746 91.67898 
L 85.211529 91.67898 
L 85.326731 93.218009 
L 85.405278 93.218009 
L 85.520479 92.833252 
L 85.682809 92.833252 
L 85.798011 92.063737 
L 86.677734 92.063737 
L 86.798173 91.294223 
L 86.944793 91.294223 
L 87.059995 90.524708 
L 87.971137 90.524708 
L 88.086339 89.755194 
L 88.70424 89.755194 
L 88.819442 91.294223 
L 88.903225 91.294223 
L 89.018427 90.909465 
L 89.395451 90.909465 
L 89.510653 90.524708 
L 89.526362 90.524708 
L 89.563017 89.755194 
L 89.568254 91.294223 
L 89.631091 91.294223 
L 91.186316 91.294223 
L 91.301518 90.909465 
L 91.411484 90.909465 
L 91.526685 92.448495 
L 91.620941 92.448495 
L 91.736143 92.063737 
L 92.029384 92.063737 
L 92.144586 93.602767 
L 92.511138 93.602767 
L 92.626339 95.141796 
L 93.401334 95.141796 
L 93.516536 94.757038 
L 94.935613 94.757038 
L 95.050815 94.372281 
L 95.946248 94.372281 
L 96.061449 93.602767 
L 96.862626 93.602767 
L 96.977828 93.218009 
L 97.312961 93.218009 
L 97.428162 94.757038 
L 97.621911 94.757038 
L 97.737113 96.296068 
L 97.773768 96.296068 
L 97.88897 95.91131 
L 98.417851 95.91131 
L 98.533053 95.526553 
L 99.507032 95.526553 
L 99.533215 97.065582 
L 99.616998 96.296068 
L 100.428647 96.296068 
L 100.543849 97.835097 
L 102.35566 97.835097 
L 102.470862 97.45034 
L 103.832338 97.45034 
L 103.94754 98.989369 
L 104.43453 98.989369 
L 104.549732 100.528398 
L 111.93836 100.528398 
L 112.053562 100.143641 
L 112.069271 100.143641 
L 112.184473 101.68267 
L 115.184958 101.68267 
L 115.30016 101.297913 
L 116.363159 101.297913 
L 116.478361 100.528398 
L 120.405697 100.528398 
L 120.520898 100.143641 
L 125.663091 100.143641 
L 125.778292 99.374126 
L 131.417947 99.374126 
L 131.533149 98.989369 
L 132.093449 98.989369 
L 132.208651 100.528398 
L 132.287197 100.528398 
L 132.402399 99.758883 
L 132.774187 99.758883 
L 132.889389 101.297913 
L 139.262146 101.297913 
L 139.377348 100.913155 
L 142.660601 100.913155 
L 142.775803 102.452184 
L 152.866438 102.452184 
L 152.98164 102.067427 
L 154.510683 102.067427 
L 154.625885 103.606456 
L 195.94146 103.606456 
L 196.056662 105.145486 
L 208.299478 105.145486 
L 208.41468 104.760728 
L 217.164785 104.760728 
L 217.279986 104.375971 
L 227.475351 104.375971 
L 227.590553 105.915 
L 236.775283 105.915 
L 236.890485 107.454029 
L 241.210554 107.454029 
L 241.325756 106.684515 
L 245.268801 106.684515 
L 245.384003 106.299757 
L 270.932634 106.299757 
L 271.047835 105.915 
L 295.784816 105.915 
L 295.900018 107.454029 
L 304.414483 107.454029 
L 304.529685 107.069272 
L 304.63965 107.069272 
L 304.754852 108.608301 
L 312.452431 108.608301 
L 312.567632 108.223544 
L 312.824218 108.223544 
L 312.93942 109.762573 
L 362.434328 109.762573 
L 362.549529 109.377816 
L 373.844548 109.377816 
L 373.95975 108.608301 
L 398.487273 108.608301 
L 398.487273 108.608301 
" clip-path="url(#p33d2977e29)" style="fill: none; stroke: #17becf; stroke-width: 1.5; stroke-linecap: square"/>
   </g>
   <g id="line2d_22">
    <path d="M 73.832727 58.564202 
L 73.837964 58.564202 
L 73.963638 63.181289 
L 73.979348 63.181289 
L 74.09455 64.720319 
L 74.345899 64.720319 
L 74.461101 64.207309 
L 74.513466 64.207309 
L 74.628667 65.746338 
L 75.838287 65.746338 
L 75.953489 65.233328 
L 92.029384 65.233328 
L 92.144586 64.848571 
L 132.093449 64.848571 
L 132.208651 64.463814 
L 319.160321 64.463814 
L 319.275522 66.002843 
L 398.487273 66.002843 
L 398.487273 66.002843 
" clip-path="url(#p33d2977e29)" style="fill: none; stroke: #1f77b4; stroke-width: 1.5; stroke-linecap: square"/>
   </g>
   <g id="line2d_23">
    <path d="M 73.832727 60.103231 
L 73.837964 59.718474 
L 73.874619 62.796532 
L 73.911274 62.283522 
L 73.921747 62.283522 
L 74.047422 66.90061 
L 74.057895 66.90061 
L 74.157387 69.978668 
L 74.16786 67.926629 
L 74.225461 67.926629 
L 74.309244 71.004688 
L 74.340663 69.465659 
L 74.361609 69.465659 
L 74.445392 74.082746 
L 74.47681 72.030707 
L 74.497756 72.030707 
L 74.550121 70.491678 
L 74.602485 73.569736 
L 74.623431 73.569736 
L 74.707214 73.261931 
L 74.712451 74.80096 
L 74.738633 74.80096 
L 74.853835 76.339989 
L 74.969037 76.339989 
L 74.984746 77.879018 
L 74.995219 75.826979 
L 75.079002 77.366009 
L 75.283223 77.366009 
L 75.398425 81.983096 
L 75.403662 80.444067 
L 75.466499 80.444067 
L 75.586937 83.522125 
L 76.005853 83.522125 
L 76.121055 85.061155 
L 76.194365 85.061155 
L 76.251966 86.600184 
L 76.304331 85.061155 
L 76.498079 85.061155 
L 76.613281 87.626203 
L 76.80703 87.626203 
L 76.922232 89.165232 
L 76.937941 89.165232 
L 76.964123 90.704262 
L 77.047906 89.934747 
L 77.184054 89.934747 
L 77.299256 91.473776 
L 77.341147 91.473776 
L 77.419694 90.960766 
L 77.424931 92.499796 
L 77.44064 92.499796 
L 77.91192 92.499796 
L 77.964285 91.730281 
L 78.006176 94.808339 
L 78.116142 94.808339 
L 78.231344 96.347369 
L 78.241817 96.347369 
L 78.341309 99.425427 
L 78.357018 97.886398 
L 78.540294 97.886398 
L 78.613604 99.425427 
L 78.65026 97.886398 
L 78.823062 97.886398 
L 78.880663 97.116883 
L 78.8859 98.655912 
L 78.927791 98.655912 
L 79.037757 98.655912 
L 79.158195 101.733971 
L 79.205323 101.733971 
L 79.325761 98.655912 
L 79.372889 98.655912 
L 79.414781 98.142903 
L 79.420017 99.681932 
L 79.472382 99.681932 
L 79.582347 99.681932 
L 79.708022 104.29902 
L 80.509199 104.29902 
L 80.6244 103.78601 
L 80.634873 103.78601 
L 80.755312 106.864068 
L 80.818149 106.864068 
L 80.854804 106.351058 
L 80.860041 107.890088 
L 80.917642 107.890088 
L 80.933351 107.890088 
L 81.048553 109.429117 
L 81.074735 109.429117 
L 81.189937 107.890088 
L 81.472705 107.890088 
L 81.587907 109.429117 
L 82.938911 109.429117 
L 83.054112 110.968146 
L 83.164078 110.968146 
L 83.27928 109.429117 
L 83.525393 109.429117 
L 83.640595 110.968146 
L 83.949545 110.968146 
L 84.064747 112.507175 
L 85.01778 112.507175 
L 85.075381 111.994166 
L 85.080618 113.533195 
L 85.117273 113.533195 
L 85.211529 113.533195 
L 85.326731 115.072224 
L 85.379095 115.072224 
L 85.405278 113.533195 
L 85.489061 115.072224 
L 86.117435 115.072224 
L 86.232636 113.533195 
L 86.677734 113.533195 
L 86.798173 116.611253 
L 88.903225 116.611253 
L 89.018427 118.150282 
L 89.395451 118.150282 
L 89.510653 119.689312 
L 91.186316 119.689312 
L 91.301518 121.228341 
L 91.463848 121.228341 
L 91.57905 119.689312 
L 91.620941 119.689312 
L 91.736143 121.228341 
L 91.772798 121.228341 
L 91.888 119.689312 
L 92.029384 119.689312 
L 92.144586 119.304554 
L 92.484955 119.304554 
L 92.600157 117.765525 
L 93.401334 117.765525 
L 93.516536 119.304554 
L 94.935613 119.304554 
L 95.050815 120.843583 
L 96.862626 120.843583 
L 96.977828 122.382613 
L 97.621911 122.382613 
L 97.737113 121.869603 
L 97.773768 121.869603 
L 97.88897 123.408632 
L 98.417851 123.408632 
L 98.533053 124.947661 
L 99.507032 124.947661 
L 99.622234 124.178147 
L 100.428647 124.178147 
L 100.543849 123.665137 
L 102.35566 123.665137 
L 102.470862 125.204166 
L 103.832338 125.204166 
L 103.94754 124.691156 
L 111.93836 124.691156 
L 112.053562 126.230186 
L 112.069271 126.230186 
L 112.184473 125.717176 
L 115.184958 125.717176 
L 115.30016 127.256205 
L 120.405697 127.256205 
L 120.520898 128.795234 
L 125.767819 128.795234 
L 125.883021 127.256205 
L 131.417947 127.256205 
L 131.533149 128.795234 
L 132.093449 128.795234 
L 132.208651 128.410477 
L 132.774187 128.410477 
L 132.889389 127.897467 
L 139.262146 127.897467 
L 139.377348 129.436496 
L 152.866438 129.436496 
L 152.98164 130.975526 
L 154.510683 130.975526 
L 154.625885 130.462516 
L 195.94146 130.462516 
L 196.056662 129.949506 
L 208.299478 129.949506 
L 208.41468 131.488535 
L 217.164785 131.488535 
L 217.279986 133.027565 
L 236.775283 133.027565 
L 236.890485 132.514555 
L 245.268801 132.514555 
L 245.384003 134.053584 
L 270.932634 134.053584 
L 271.047835 135.592613 
L 289.45395 135.592613 
L 289.569152 134.053584 
L 295.784816 134.053584 
L 295.900018 133.540574 
L 304.414483 133.540574 
L 304.529685 135.079604 
L 304.63965 135.079604 
L 304.754852 134.310089 
L 312.452431 134.310089 
L 312.567632 135.849118 
L 319.160321 135.849118 
L 319.275522 137.388147 
L 362.434328 137.388147 
L 362.549529 138.927177 
L 398.487273 138.927177 
L 398.487273 138.927177 
" clip-path="url(#p33d2977e29)" style="fill: none; stroke: #ff7f0e; stroke-width: 1.5; stroke-linecap: square"/>
   </g>
   <g id="patch_3">
    <path d="M 57.6 162.432 
L 57.6 41.472 
" style="fill: none; stroke: #000000; stroke-width: 0.8; stroke-linejoin: miter; stroke-linecap: square"/>
   </g>
   <g id="patch_4">
    <path d="M 414.72 162.432 
L 414.72 41.472 
" style="fill: none; stroke: #000000; stroke-width: 0.8; stroke-linejoin: miter; stroke-linecap: square"/>
   </g>
   <g id="patch_5">
    <path d="M 57.6 162.432 
L 414.72 162.432 
" style="fill: none; stroke: #000000; stroke-width: 0.8; stroke-linejoin: miter; stroke-linecap: square"/>
   </g>
   <g id="patch_6">
    <path d="M 57.6 41.472 
L 414.72 41.472 
" style="fill: none; stroke: #000000; stroke-width: 0.8; stroke-linejoin: miter; stroke-linecap: square"/>
   </g>
   <g id="text_12">
    <!-- WSP -->
    <g transform="translate(361.832136 108.916107)scale(0.08 -0.08)">
     <defs>
      <path id="DejaVuSans-57" d="M 213 4666 
L 850 4666 
L 1831 722 
L 2809 4666 
L 3519 4666 
L 4500 722 
L 5478 4666 
L 6119 4666 
L 4947 0 
L 4153 0 
L 3169 4050 
L 2175 0 
L 1381 0 
L 213 4666 
z
" transform="scale(0.015625)"/>
      <path id="DejaVuSans-53" d="M 3425 4513 
L 3425 3897 
Q 3066 4069 2747 4153 
Q 2428 4238 2131 4238 
Q 1616 4238 1336 4038 
Q 1056 3838 1056 3469 
Q 1056 3159 1242 3001 
Q 1428 2844 1947 2747 
L 2328 2669 
Q 3034 2534 3370 2195 
Q 3706 1856 3706 1288 
Q 3706 609 3251 259 
Q 2797 -91 1919 -91 
Q 1588 -91 1214 -16 
Q 841 59 441 206 
L 441 856 
Q 825 641 1194 531 
Q 1563 422 1919 422 
Q 2459 422 2753 634 
Q 3047 847 3047 1241 
Q 3047 1584 2836 1778 
Q 2625 1972 2144 2069 
L 1759 2144 
Q 1053 2284 737 2584 
Q 422 2884 422 3419 
Q 422 4038 858 4394 
Q 1294 4750 2059 4750 
Q 2388 4750 2728 4690 
Q 3069 4631 3425 4513 
z
" transform="scale(0.015625)"/>
      <path id="DejaVuSans-50" d="M 1259 4147 
L 1259 2394 
L 2053 2394 
Q 2494 2394 2734 2622 
Q 2975 2850 2975 3272 
Q 2975 3691 2734 3919 
Q 2494 4147 2053 4147 
L 1259 4147 
z
M 628 4666 
L 2053 4666 
Q 2838 4666 3239 4311 
Q 3641 3956 3641 3272 
Q 3641 2581 3239 2228 
Q 2838 1875 2053 1875 
L 1259 1875 
L 1259 0 
L 628 0 
L 628 4666 
z
" transform="scale(0.015625)"/>
     </defs>
     <use xlink:href="#DejaVuSans-57"/>
     <use xlink:href="#DejaVuSans-53" x="98.876953"/>
     <use xlink:href="#DejaVuSans-50" x="162.353516"/>
    </g>
   </g>
   <g id="text_13">
    <!-- Iambic -->
    <g transform="translate(361.832136 156.933818)scale(0.08 -0.08)">
     <defs>
      <path id="DejaVuSans-49" d="M 628 4666 
L 1259 4666 
L 1259 0 
L 628 0 
L 628 4666 
z
" transform="scale(0.015625)"/>
      <path id="DejaVuSans-61" d="M 2194 1759 
Q 1497 1759 1228 1600 
Q 959 1441 959 1056 
Q 959 750 1161 570 
Q 1363 391 1709 391 
Q 2188 391 2477 730 
Q 2766 1069 2766 1631 
L 2766 1759 
L 2194 1759 
z
M 3341 1997 
L 3341 0 
L 2766 0 
L 2766 531 
Q 2569 213 2275 61 
Q 1981 -91 1556 -91 
Q 1019 -91 701 211 
Q 384 513 384 1019 
Q 384 1609 779 1909 
Q 1175 2209 1959 2209 
L 2766 2209 
L 2766 2266 
Q 2766 2663 2505 2880 
Q 2244 3097 1772 3097 
Q 1472 3097 1187 3025 
Q 903 2953 641 2809 
L 641 3341 
Q 956 3463 1253 3523 
Q 1550 3584 1831 3584 
Q 2591 3584 2966 3190 
Q 3341 2797 3341 1997 
z
" transform="scale(0.015625)"/>
      <path id="DejaVuSans-6d" d="M 3328 2828 
Q 3544 3216 3844 3400 
Q 4144 3584 4550 3584 
Q 5097 3584 5394 3201 
Q 5691 2819 5691 2113 
L 5691 0 
L 5113 0 
L 5113 2094 
Q 5113 2597 4934 2840 
Q 4756 3084 4391 3084 
Q 3944 3084 3684 2787 
Q 3425 2491 3425 1978 
L 3425 0 
L 2847 0 
L 2847 2094 
Q 2847 2600 2669 2842 
Q 2491 3084 2119 3084 
Q 1678 3084 1418 2786 
Q 1159 2488 1159 1978 
L 1159 0 
L 581 0 
L 581 3500 
L 1159 3500 
L 1159 2956 
Q 1356 3278 1631 3431 
Q 1906 3584 2284 3584 
Q 2666 3584 2933 3390 
Q 3200 3197 3328 2828 
z
" transform="scale(0.015625)"/>
      <path id="DejaVuSans-62" d="M 3116 1747 
Q 3116 2381 2855 2742 
Q 2594 3103 2138 3103 
Q 1681 3103 1420 2742 
Q 1159 2381 1159 1747 
Q 1159 1113 1420 752 
Q 1681 391 2138 391 
Q 2594 391 2855 752 
Q 3116 1113 3116 1747 
z
M 1159 2969 
Q 1341 3281 1617 3432 
Q 1894 3584 2278 3584 
Q 2916 3584 3314 3078 
Q 3713 2572 3713 1747 
Q 3713 922 3314 415 
Q 2916 -91 2278 -91 
Q 1894 -91 1617 61 
Q 1341 213 1159 525 
L 1159 0 
L 581 0 
L 581 4863 
L 1159 4863 
L 1159 2969 
z
" transform="scale(0.015625)"/>
      <path id="DejaVuSans-69" d="M 603 3500 
L 1178 3500 
L 1178 0 
L 603 0 
L 603 3500 
z
M 603 4863 
L 1178 4863 
L 1178 4134 
L 603 4134 
L 603 4863 
z
" transform="scale(0.015625)"/>
      <path id="DejaVuSans-63" d="M 3122 3366 
L 3122 2828 
Q 2878 2963 2633 3030 
Q 2388 3097 2138 3097 
Q 1578 3097 1268 2742 
Q 959 2388 959 1747 
Q 959 1106 1268 751 
Q 1578 397 2138 397 
Q 2388 397 2633 464 
Q 2878 531 3122 666 
L 3122 134 
Q 2881 22 2623 -34 
Q 2366 -91 2075 -91 
Q 1284 -91 818 406 
Q 353 903 353 1747 
Q 353 2603 823 3093 
Q 1294 3584 2113 3584 
Q 2378 3584 2631 3529 
Q 2884 3475 3122 3366 
z
" transform="scale(0.015625)"/>
     </defs>
     <use xlink:href="#DejaVuSans-49"/>
     <use xlink:href="#DejaVuSans-61" x="29.492188"/>
     <use xlink:href="#DejaVuSans-6d" x="90.771484"/>
     <use xlink:href="#DejaVuSans-62" x="188.183594"/>
     <use xlink:href="#DejaVuSans-69" x="251.660156"/>
     <use xlink:href="#DejaVuSans-63" x="279.443359"/>
    </g>
   </g>
   <g id="text_14">
    <!-- Parse -->
    <g transform="translate(361.832136 60.180182)scale(0.08 -0.08)">
     <defs>
      <path id="DejaVuSans-72" d="M 2631 2963 
Q 2534 3019 2420 3045 
Q 2306 3072 2169 3072 
Q 1681 3072 1420 2755 
Q 1159 2438 1159 1844 
L 1159 0 
L 581 0 
L 581 3500 
L 1159 3500 
L 1159 2956 
Q 1341 3275 1631 3429 
Q 1922 3584 2338 3584 
Q 2397 3584 2469 3576 
Q 2541 3569 2628 3553 
L 2631 2963 
z
" transform="scale(0.015625)"/>
      <path id="DejaVuSans-73" d="M 2834 3397 
L 2834 2853 
Q 2591 2978 2328 3040 
Q 2066 3103 1784 3103 
Q 1356 3103 1142 2972 
Q 928 2841 928 2578 
Q 928 2378 1081 2264 
Q 1234 2150 1697 2047 
L 1894 2003 
Q 2506 1872 2764 1633 
Q 3022 1394 3022 966 
Q 3022 478 2636 193 
Q 2250 -91 1575 -91 
Q 1294 -91 989 -36 
Q 684 19 347 128 
L 347 722 
Q 666 556 975 473 
Q 1284 391 1588 391 
Q 1994 391 2212 530 
Q 2431 669 2431 922 
Q 2431 1156 2273 1281 
Q 2116 1406 1581 1522 
L 1381 1569 
Q 847 1681 609 1914 
Q 372 2147 372 2553 
Q 372 3047 722 3315 
Q 1072 3584 1716 3584 
Q 2034 3584 2315 3537 
Q 2597 3491 2834 3397 
z
" transform="scale(0.015625)"/>
      <path id="DejaVuSans-65" d="M 3597 1894 
L 3597 1613 
L 953 1613 
Q 991 1019 1311 708 
Q 1631 397 2203 397 
Q 2534 397 2845 478 
Q 3156 559 3463 722 
L 3463 178 
Q 3153 47 2828 -22 
Q 2503 -91 2169 -91 
Q 1331 -91 842 396 
Q 353 884 353 1716 
Q 353 2575 817 3079 
Q 1281 3584 2069 3584 
Q 2775 3584 3186 3129 
Q 3597 2675 3597 1894 
z
M 3022 2063 
Q 3016 2534 2758 2815 
Q 2500 3097 2075 3097 
Q 1594 3097 1305 2825 
Q 1016 2553 972 2059 
L 3022 2063 
z
" transform="scale(0.015625)"/>
     </defs>
     <use xlink:href="#DejaVuSans-50"/>
     <use xlink:href="#DejaVuSans-61" x="55.802734"/>
     <use xlink:href="#DejaVuSans-72" x="117.082031"/>
     <use xlink:href="#DejaVuSans-73" x="158.195312"/>
     <use xlink:href="#DejaVuSans-65" x="210.294922"/>
    </g>
   </g>
   <g id="text_15">
    <!-- FootBin -->
    <g transform="translate(361.832136 79.289795)scale(0.08 -0.08)">
     <defs>
      <path id="DejaVuSans-46" d="M 628 4666 
L 3309 4666 
L 3309 4134 
L 1259 4134 
L 1259 2759 
L 3109 2759 
L 3109 2228 
L 1259 2228 
L 1259 0 
L 628 0 
L 628 4666 
z
" transform="scale(0.015625)"/>
      <path id="DejaVuSans-6f" d="M 1959 3097 
Q 1497 3097 1228 2736 
Q 959 2375 959 1747 
Q 959 1119 1226 758 
Q 1494 397 1959 397 
Q 2419 397 2687 759 
Q 2956 1122 2956 1747 
Q 2956 2369 2687 2733 
Q 2419 3097 1959 3097 
z
M 1959 3584 
Q 2709 3584 3137 3096 
Q 3566 2609 3566 1747 
Q 3566 888 3137 398 
Q 2709 -91 1959 -91 
Q 1206 -91 779 398 
Q 353 888 353 1747 
Q 353 2609 779 3096 
Q 1206 3584 1959 3584 
z
" transform="scale(0.015625)"/>
      <path id="DejaVuSans-74" d="M 1172 4494 
L 1172 3500 
L 2356 3500 
L 2356 3053 
L 1172 3053 
L 1172 1153 
Q 1172 725 1289 603 
Q 1406 481 1766 481 
L 2356 481 
L 2356 0 
L 1766 0 
Q 1100 0 847 248 
Q 594 497 594 1153 
L 594 3053 
L 172 3053 
L 172 3500 
L 594 3500 
L 594 4494 
L 1172 4494 
z
" transform="scale(0.015625)"/>
      <path id="DejaVuSans-42" d="M 1259 2228 
L 1259 519 
L 2272 519 
Q 2781 519 3026 730 
Q 3272 941 3272 1375 
Q 3272 1813 3026 2020 
Q 2781 2228 2272 2228 
L 1259 2228 
z
M 1259 4147 
L 1259 2741 
L 2194 2741 
Q 2656 2741 2882 2914 
Q 3109 3088 3109 3444 
Q 3109 3797 2882 3972 
Q 2656 4147 2194 4147 
L 1259 4147 
z
M 628 4666 
L 2241 4666 
Q 2963 4666 3353 4366 
Q 3744 4066 3744 3513 
Q 3744 3084 3544 2831 
Q 3344 2578 2956 2516 
Q 3422 2416 3680 2098 
Q 3938 1781 3938 1306 
Q 3938 681 3513 340 
Q 3088 0 2303 0 
L 628 0 
L 628 4666 
z
" transform="scale(0.015625)"/>
      <path id="DejaVuSans-6e" d="M 3513 2113 
L 3513 0 
L 2938 0 
L 2938 2094 
Q 2938 2591 2744 2837 
Q 2550 3084 2163 3084 
Q 1697 3084 1428 2787 
Q 1159 2491 1159 1978 
L 1159 0 
L 581 0 
L 581 3500 
L 1159 3500 
L 1159 2956 
Q 1366 3272 1645 3428 
Q 1925 3584 2291 3584 
Q 2894 3584 3203 3211 
Q 3513 2838 3513 2113 
z
" transform="scale(0.015625)"/>
     </defs>
     <use xlink:href="#DejaVuSans-46"/>
     <use xlink:href="#DejaVuSans-6f" x="53.894531"/>
     <use xlink:href="#DejaVuSans-6f" x="115.076172"/>
     <use xlink:href="#DejaVuSans-74" x="176.257812"/>
     <use xlink:href="#DejaVuSans-42" x="215.466797"/>
     <use xlink:href="#DejaVuSans-69" x="284.070312"/>
     <use xlink:href="#DejaVuSans-6e" x="311.853516"/>
    </g>
   </g>
   <g id="text_16">
    <!-- WFL -->
    <g transform="translate(361.832136 59.846726)scale(0.08 -0.08)">
     <defs>
      <path id="DejaVuSans-4c" d="M 628 4666 
L 1259 4666 
L 1259 531 
L 3531 531 
L 3531 0 
L 628 0 
L 628 4666 
z
" transform="scale(0.015625)"/>
     </defs>
     <use xlink:href="#DejaVuSans-57"/>
     <use xlink:href="#DejaVuSans-46" x="98.876953"/>
     <use xlink:href="#DejaVuSans-4c" x="156.396484"/>
    </g>
   </g>
   <g id="text_17">
    <!-- WFR -->
    <g transform="translate(361.832136 62.232221)scale(0.08 -0.08)">
     <defs>
      <path id="DejaVuSans-52" d="M 2841 2188 
Q 3044 2119 3236 1894 
Q 3428 1669 3622 1275 
L 4263 0 
L 3584 0 
L 2988 1197 
Q 2756 1666 2539 1819 
Q 2322 1972 1947 1972 
L 1259 1972 
L 1259 0 
L 628 0 
L 628 4666 
L 2053 4666 
Q 2853 4666 3247 4331 
Q 3641 3997 3641 3322 
Q 3641 2881 3436 2590 
Q 3231 2300 2841 2188 
z
M 1259 4147 
L 1259 2491 
L 2053 2491 
Q 2509 2491 2742 2702 
Q 2975 2913 2975 3322 
Q 2975 3731 2742 3939 
Q 2509 4147 2053 4147 
L 1259 4147 
z
" transform="scale(0.015625)"/>
     </defs>
     <use xlink:href="#DejaVuSans-57"/>
     <use xlink:href="#DejaVuSans-46" x="98.876953"/>
     <use xlink:href="#DejaVuSans-52" x="156.396484"/>
    </g>
   </g>
   <g id="text_18">
    <!-- Main-L -->
    <g transform="translate(361.832136 66.464552)scale(0.08 -0.08)">
     <defs>
      <path id="DejaVuSans-4d" d="M 628 4666 
L 1569 4666 
L 2759 1491 
L 3956 4666 
L 4897 4666 
L 4897 0 
L 4281 0 
L 4281 4097 
L 3078 897 
L 2444 897 
L 1241 4097 
L 1241 0 
L 628 0 
L 628 4666 
z
" transform="scale(0.015625)"/>
      <path id="DejaVuSans-2d" d="M 313 2009 
L 1997 2009 
L 1997 1497 
L 313 1497 
L 313 2009 
z
" transform="scale(0.015625)"/>
     </defs>
     <use xlink:href="#DejaVuSans-4d"/>
     <use xlink:href="#DejaVuSans-61" x="86.279297"/>
     <use xlink:href="#DejaVuSans-69" x="147.558594"/>
     <use xlink:href="#DejaVuSans-6e" x="175.341797"/>
     <use xlink:href="#DejaVuSans-2d" x="238.720703"/>
     <use xlink:href="#DejaVuSans-4c" x="274.804688"/>
    </g>
   </g>
   <g id="text_19">
    <!-- Main-R -->
    <g transform="translate(361.832136 46.970182)scale(0.08 -0.08)">
     <use xlink:href="#DejaVuSans-4d"/>
     <use xlink:href="#DejaVuSans-61" x="86.279297"/>
     <use xlink:href="#DejaVuSans-69" x="147.558594"/>
     <use xlink:href="#DejaVuSans-6e" x="175.341797"/>
     <use xlink:href="#DejaVuSans-2d" x="238.720703"/>
     <use xlink:href="#DejaVuSans-52" x="274.804688"/>
    </g>
   </g>
   <g id="text_20">
    <!-- AFL -->
    <g transform="translate(361.832136 93.141058)scale(0.08 -0.08)">
     <defs>
      <path id="DejaVuSans-41" d="M 2188 4044 
L 1331 1722 
L 3047 1722 
L 2188 4044 
z
M 1831 4666 
L 2547 4666 
L 4325 0 
L 3669 0 
L 3244 1197 
L 1141 1197 
L 716 0 
L 50 0 
L 1831 4666 
z
" transform="scale(0.015625)"/>
     </defs>
     <use xlink:href="#DejaVuSans-41"/>
     <use xlink:href="#DejaVuSans-46" x="68.408203"/>
     <use xlink:href="#DejaVuSans-4c" x="125.927734"/>
    </g>
   </g>
   <g id="text_21">
    <!-- AFR -->
    <g transform="translate(361.832136 108.608301)scale(0.08 -0.08)">
     <use xlink:href="#DejaVuSans-41"/>
     <use xlink:href="#DejaVuSans-46" x="68.408203"/>
     <use xlink:href="#DejaVuSans-52" x="125.927734"/>
    </g>
   </g>
   <g id="text_22">
    <!-- Nonfinal -->
    <g transform="translate(361.832136 66.002843)scale(0.08 -0.08)">
     <defs>
      <path id="DejaVuSans-4e" d="M 628 4666 
L 1478 4666 
L 3547 763 
L 3547 4666 
L 4159 4666 
L 4159 0 
L 3309 0 
L 1241 3903 
L 1241 0 
L 628 0 
L 628 4666 
z
" transform="scale(0.015625)"/>
      <path id="DejaVuSans-66" d="M 2375 4863 
L 2375 4384 
L 1825 4384 
Q 1516 4384 1395 4259 
Q 1275 4134 1275 3809 
L 1275 3500 
L 2222 3500 
L 2222 3053 
L 1275 3053 
L 1275 0 
L 697 0 
L 697 3053 
L 147 3053 
L 147 3500 
L 697 3500 
L 697 3744 
Q 697 4328 969 4595 
Q 1241 4863 1831 4863 
L 2375 4863 
z
" transform="scale(0.015625)"/>
      <path id="DejaVuSans-6c" d="M 603 4863 
L 1178 4863 
L 1178 0 
L 603 0 
L 603 4863 
z
" transform="scale(0.015625)"/>
     </defs>
     <use xlink:href="#DejaVuSans-4e"/>
     <use xlink:href="#DejaVuSans-6f" x="74.804688"/>
     <use xlink:href="#DejaVuSans-6e" x="135.986328"/>
     <use xlink:href="#DejaVuSans-66" x="199.365234"/>
     <use xlink:href="#DejaVuSans-69" x="234.570312"/>
     <use xlink:href="#DejaVuSans-6e" x="262.353516"/>
     <use xlink:href="#DejaVuSans-61" x="325.732422"/>
     <use xlink:href="#DejaVuSans-6c" x="387.011719"/>
    </g>
   </g>
   <g id="text_23">
    <!-- Trochaic -->
    <g transform="translate(361.832136 138.927177)scale(0.08 -0.08)">
     <defs>
      <path id="DejaVuSans-54" d="M -19 4666 
L 3928 4666 
L 3928 4134 
L 2272 4134 
L 2272 0 
L 1638 0 
L 1638 4134 
L -19 4134 
L -19 4666 
z
" transform="scale(0.015625)"/>
      <path id="DejaVuSans-68" d="M 3513 2113 
L 3513 0 
L 2938 0 
L 2938 2094 
Q 2938 2591 2744 2837 
Q 2550 3084 2163 3084 
Q 1697 3084 1428 2787 
Q 1159 2491 1159 1978 
L 1159 0 
L 581 0 
L 581 4863 
L 1159 4863 
L 1159 2956 
Q 1366 3272 1645 3428 
Q 1925 3584 2291 3584 
Q 2894 3584 3203 3211 
Q 3513 2838 3513 2113 
z
" transform="scale(0.015625)"/>
     </defs>
     <use xlink:href="#DejaVuSans-54"/>
     <use xlink:href="#DejaVuSans-72" x="46.333984"/>
     <use xlink:href="#DejaVuSans-6f" x="85.197266"/>
     <use xlink:href="#DejaVuSans-63" x="146.378906"/>
     <use xlink:href="#DejaVuSans-68" x="201.359375"/>
     <use xlink:href="#DejaVuSans-61" x="264.738281"/>
     <use xlink:href="#DejaVuSans-69" x="326.017578"/>
     <use xlink:href="#DejaVuSans-63" x="353.800781"/>
    </g>
   </g>
  </g>
  <g id="axes_2">
   <g id="patch_7">
    <path d="M 57.6 307.584 
L 414.72 307.584 
L 414.72 186.624 
L 57.6 186.624 
z
" style="fill: #ffffff"/>
   </g>
   <g id="matplotlib.axis_3">
    <g id="xtick_8">
     <g id="line2d_24">
      <g>
       <use xlink:href="#mde8f5aa032" x="72.264348" y="307.584" style="stroke: #000000; stroke-width: 0.8"/>
      </g>
     </g>
     <g id="text_24">
      <!-- 0 -->
      <g transform="translate(69.083098 322.182437)scale(0.1 -0.1)">
       <use xlink:href="#DejaVuSans-30"/>
      </g>
     </g>
    </g>
    <g id="xtick_9">
     <g id="line2d_25">
      <g>
       <use xlink:href="#mde8f5aa032" x="150.68332" y="307.584" style="stroke: #000000; stroke-width: 0.8"/>
      </g>
     </g>
     <g id="text_25">
      <!-- 50 -->
      <g transform="translate(144.32082 322.182437)scale(0.1 -0.1)">
       <use xlink:href="#DejaVuSans-35"/>
       <use xlink:href="#DejaVuSans-30" x="63.623047"/>
      </g>
     </g>
    </g>
    <g id="xtick_10">
     <g id="line2d_26">
      <g>
       <use xlink:href="#mde8f5aa032" x="229.102292" y="307.584" style="stroke: #000000; stroke-width: 0.8"/>
      </g>
     </g>
     <g id="text_26">
      <!-- 100 -->
      <g transform="translate(219.558542 322.182437)scale(0.1 -0.1)">
       <use xlink:href="#DejaVuSans-31"/>
       <use xlink:href="#DejaVuSans-30" x="63.623047"/>
       <use xlink:href="#DejaVuSans-30" x="127.246094"/>
      </g>
     </g>
    </g>
    <g id="xtick_11">
     <g id="line2d_27">
      <g>
       <use xlink:href="#mde8f5aa032" x="307.521265" y="307.584" style="stroke: #000000; stroke-width: 0.8"/>
      </g>
     </g>
     <g id="text_27">
      <!-- 150 -->
      <g transform="translate(297.977515 322.182437)scale(0.1 -0.1)">
       <use xlink:href="#DejaVuSans-31"/>
       <use xlink:href="#DejaVuSans-35" x="63.623047"/>
       <use xlink:href="#DejaVuSans-30" x="127.246094"/>
      </g>
     </g>
    </g>
    <g id="xtick_12">
     <g id="line2d_28">
      <g>
       <use xlink:href="#mde8f5aa032" x="385.940237" y="307.584" style="stroke: #000000; stroke-width: 0.8"/>
      </g>
     </g>
     <g id="text_28">
      <!-- 200 -->
      <g transform="translate(376.396487 322.182437)scale(0.1 -0.1)">
       <use xlink:href="#DejaVuSans-32"/>
       <use xlink:href="#DejaVuSans-30" x="63.623047"/>
       <use xlink:href="#DejaVuSans-30" x="127.246094"/>
      </g>
     </g>
    </g>
   </g>
   <g id="matplotlib.axis_4">
    <g id="ytick_5">
     <g id="line2d_29">
      <g>
       <use xlink:href="#me333c73ce3" x="57.6" y="302.099126" style="stroke: #000000; stroke-width: 0.8"/>
      </g>
     </g>
     <g id="text_29">
      <!-- 0 -->
      <g transform="translate(44.2375 305.898345)scale(0.1 -0.1)">
       <use xlink:href="#DejaVuSans-30"/>
      </g>
     </g>
    </g>
    <g id="ytick_6">
     <g id="line2d_30">
      <g>
       <use xlink:href="#me333c73ce3" x="57.6" y="275.483215" style="stroke: #000000; stroke-width: 0.8"/>
      </g>
     </g>
     <g id="text_30">
      <!-- 2000 -->
      <g transform="translate(25.15 279.282434)scale(0.1 -0.1)">
       <use xlink:href="#DejaVuSans-32"/>
       <use xlink:href="#DejaVuSans-30" x="63.623047"/>
       <use xlink:href="#DejaVuSans-30" x="127.246094"/>
       <use xlink:href="#DejaVuSans-30" x="190.869141"/>
      </g>
     </g>
    </g>
    <g id="ytick_7">
     <g id="line2d_31">
      <g>
       <use xlink:href="#me333c73ce3" x="57.6" y="248.867304" style="stroke: #000000; stroke-width: 0.8"/>
      </g>
     </g>
     <g id="text_31">
      <!-- 4000 -->
      <g transform="translate(25.15 252.666523)scale(0.1 -0.1)">
       <use xlink:href="#DejaVuSans-34"/>
       <use xlink:href="#DejaVuSans-30" x="63.623047"/>
       <use xlink:href="#DejaVuSans-30" x="127.246094"/>
       <use xlink:href="#DejaVuSans-30" x="190.869141"/>
      </g>
     </g>
    </g>
    <g id="ytick_8">
     <g id="line2d_32">
      <g>
       <use xlink:href="#me333c73ce3" x="57.6" y="222.251393" style="stroke: #000000; stroke-width: 0.8"/>
      </g>
     </g>
     <g id="text_32">
      <!-- 6000 -->
      <g transform="translate(25.15 226.050612)scale(0.1 -0.1)">
       <use xlink:href="#DejaVuSans-36"/>
       <use xlink:href="#DejaVuSans-30" x="63.623047"/>
       <use xlink:href="#DejaVuSans-30" x="127.246094"/>
       <use xlink:href="#DejaVuSans-30" x="190.869141"/>
      </g>
     </g>
    </g>
    <g id="ytick_9">
     <g id="line2d_33">
      <g>
       <use xlink:href="#me333c73ce3" x="57.6" y="195.635482" style="stroke: #000000; stroke-width: 0.8"/>
      </g>
     </g>
     <g id="text_33">
      <!-- 8000 -->
      <g transform="translate(25.15 199.434701)scale(0.1 -0.1)">
       <use xlink:href="#DejaVuSans-38"/>
       <use xlink:href="#DejaVuSans-30" x="63.623047"/>
       <use xlink:href="#DejaVuSans-30" x="127.246094"/>
       <use xlink:href="#DejaVuSans-30" x="190.869141"/>
      </g>
     </g>
    </g>
   </g>
   <g id="line2d_34">
    <path d="M 73.832727 302.085818 
L 108.337075 302.045894 
L 109.905455 301.966047 
L 111.473834 302.085818 
L 116.178972 301.939431 
L 117.747352 302.045894 
L 122.45249 302.07251 
L 152.2517 302.085818 
L 153.820079 301.912815 
L 155.388458 302.085818 
L 156.956838 302.019278 
L 158.525217 302.085818 
L 160.093597 301.526884 
L 161.661976 302.059202 
L 163.230356 302.085818 
L 164.798735 301.992662 
L 166.367115 302.059202 
L 167.935494 301.526884 
L 169.503874 302.07251 
L 171.072253 301.992662 
L 172.640632 302.07251 
L 174.209012 301.939431 
L 177.345771 302.019278 
L 180.48253 301.699887 
L 182.050909 301.846275 
L 183.619289 301.673272 
L 185.187668 301.992662 
L 189.892806 302.059202 
L 191.461186 301.872891 
L 194.597945 301.966047 
L 196.166324 301.606732 
L 197.734704 302.085818 
L 200.871462 302.085818 
L 202.439842 301.912815 
L 204.008221 301.540192 
L 205.576601 302.085818 
L 207.14498 301.912815 
L 210.281739 302.032586 
L 211.850119 301.952739 
L 213.418498 301.68658 
L 214.986877 301.699887 
L 216.555257 302.07251 
L 218.123636 301.926123 
L 219.692016 300.848178 
L 221.260395 301.966047 
L 222.828775 302.00597 
L 224.397154 301.806351 
L 225.965534 302.059202 
L 227.533913 301.819659 
L 229.102292 302.085818 
L 230.670672 301.859583 
L 232.239051 301.766427 
L 233.807431 301.926123 
L 235.37581 301.912815 
L 236.94419 301.566808 
L 238.512569 301.952739 
L 243.217708 301.846275 
L 246.354466 302.07251 
L 247.922846 301.699887 
L 249.491225 301.992662 
L 251.059605 301.832967 
L 254.196364 302.045894 
L 255.764743 301.939431 
L 257.333123 302.00597 
L 258.901502 300.874794 
L 260.469881 302.059202 
L 262.038261 301.939431 
L 263.60664 301.473652 
L 265.17502 301.779735 
L 269.880158 302.00597 
L 273.016917 301.739811 
L 274.585296 301.087722 
L 276.153676 301.260725 
L 277.722055 299.2113 
L 279.290435 301.526884 
L 280.858814 301.899507 
L 282.427194 301.380497 
L 283.995573 302.032586 
L 285.563953 301.087722 
L 287.132332 302.085818 
L 288.700711 301.859583 
L 290.269091 299.637154 
L 291.83747 301.952739 
L 293.40585 301.753119 
L 294.974229 301.673272 
L 296.542609 302.032586 
L 298.110988 301.393804 
L 301.247747 300.675175 
L 302.816126 302.07251 
L 304.384506 301.447036 
L 305.952885 299.490767 
L 307.521265 300.236012 
L 309.089644 301.593424 
L 310.658024 300.848178 
L 312.226403 301.766427 
L 313.794783 302.00597 
L 315.363162 297.97366 
L 316.931542 301.526884 
L 318.499921 301.966047 
L 320.0683 301.699887 
L 321.63668 301.713195 
L 323.205059 301.447036 
L 324.773439 300.941334 
L 326.341818 302.032586 
L 327.910198 299.836774 
L 329.478577 298.199895 
L 331.046957 299.530691 
L 332.615336 299.770234 
L 334.183715 300.954642 
L 337.320474 301.713195 
L 340.457233 299.331071 
L 342.025613 302.032586 
L 343.593992 299.823466 
L 345.162372 297.201799 
L 346.730751 298.346283 
L 348.29913 300.568711 
L 349.86751 283.028826 
L 351.435889 301.766427 
L 353.004269 294.180893 
L 354.572648 299.104836 
L 356.141028 291.825384 
L 357.709407 288.737939 
L 359.277787 301.832967 
L 360.846166 287.739842 
L 362.414545 300.3824 
L 363.982925 301.606732 
L 365.551304 300.861486 
L 367.119684 285.610569 
L 368.688063 293.462263 
L 370.256443 276.161921 
L 371.824822 297.920428 
L 373.393202 196.806582 
L 374.961581 270.692351 
L 376.52996 279.568757 
L 378.09834 275.895762 
L 379.666719 278.464197 
L 381.235099 290.827288 
L 382.803478 291.785461 
L 384.371858 236.876836 
L 385.940237 255.028888 
L 387.508617 286.009808 
L 389.076996 280.167615 
L 390.645375 301.526884 
L 392.213755 282.243657 
L 393.782134 301.154261 
L 395.350514 285.9965 
L 396.918893 192.122182 
L 398.487273 273.101091 
L 398.487273 273.101091 
" clip-path="url(#pfd194bcb24)" style="fill: none; stroke: #1f77b4; stroke-width: 1.5; stroke-linecap: square"/>
   </g>
   <g id="patch_8">
    <path d="M 57.6 307.584 
L 57.6 186.624 
" style="fill: none; stroke: #000000; stroke-width: 0.8; stroke-linejoin: miter; stroke-linecap: square"/>
   </g>
   <g id="patch_9">
    <path d="M 414.72 307.584 
L 414.72 186.624 
" style="fill: none; stroke: #000000; stroke-width: 0.8; stroke-linejoin: miter; stroke-linecap: square"/>
   </g>
   <g id="patch_10">
    <path d="M 57.6 307.584 
L 414.72 307.584 
" style="fill: none; stroke: #000000; stroke-width: 0.8; stroke-linejoin: miter; stroke-linecap: square"/>
   </g>
   <g id="patch_11">
    <path d="M 57.6 186.624 
L 414.72 186.624 
" style="fill: none; stroke: #000000; stroke-width: 0.8; stroke-linejoin: miter; stroke-linecap: square"/>
   </g>
  </g>
 </g>
 <defs>
  <clipPath id="p33d2977e29">
   <rect x="57.6" y="41.472" width="357.12" height="120.96"/>
  </clipPath>
  <clipPath id="pfd194bcb24">
   <rect x="57.6" y="186.624" width="357.12" height="120.96"/>
  </clipPath>
 </defs>
</svg>
