<?xml version="1.0" encoding="utf-8" standalone="no"?>
<!DOCTYPE svg PUBLIC "-//W3C//DTD SVG 1.1//EN"
  "http://www.w3.org/Graphics/SVG/1.1/DTD/svg11.dtd">
<svg xmlns:xlink="http://www.w3.org/1999/xlink" width="460.8pt" height="345.6pt" viewBox="0 0 460.8 345.6" xmlns="http://www.w3.org/2000/svg" version="1.1">
 <metadata>
  <rdf:RDF xmlns:dc="http://purl.org/dc/elements/1.1/" xmlns:cc="http://creativecommons.org/ns#" xmlns:rdf="http://www.w3.org/1999/02/22-rdf-syntax-ns#">
   <cc:Work>
    <dc:type rdf:resource="http://purl.org/dc/dcmitype/StillImage"/>
    <dc:date>2022-05-13T15:57:14.124694</dc:date>
    <dc:format>image/svg+xml</dc:format>
    <dc:creator>
     <cc:Agent>
      <dc:title>Matplotlib v3.5.1, https://matplotlib.org/</dc:title>
     </cc:Agent>
    </dc:creator>
   </cc:Work>
  </rdf:RDF>
 </metadata>
 <defs>
  <style type="text/css">*{stroke-linejoin: round; stroke-linecap: butt}</style>
 </defs>
 <g id="figure_1">
  <g id="patch_1">
   <path d="M 0 345.6 
L 460.8 345.6 
L 460.8 0 
L 0 0 
z
" style="fill: #ffffff"/>
  </g>
  <g id="axes_1">
   <g id="patch_2">
    <path d="M 57.6 162.432 
L 414.72 162.432 
L 414.72 41.472 
L 57.6 41.472 
z
" style="fill: #ffffff"/>
   </g>
   <g id="matplotlib.axis_1">
    <g id="xtick_1">
     <g id="line2d_1">
      <defs>
       <path id="m7d1324f067" d="M 0 0 
L 0 3.5 
" style="stroke: #000000; stroke-width: 0.8"/>
      </defs>
      <g>
       <use xlink:href="#m7d1324f067" x="73.827491" y="162.432" style="stroke: #000000; stroke-width: 0.8"/>
      </g>
     </g>
     <g id="text_1">
      <!-- 0 -->
      <g transform="translate(70.646241 177.030437)scale(0.1 -0.1)">
       <defs>
        <path id="DejaVuSans-30" d="M 2034 4250 
Q 1547 4250 1301 3770 
Q 1056 3291 1056 2328 
Q 1056 1369 1301 889 
Q 1547 409 2034 409 
Q 2525 409 2770 889 
Q 3016 1369 3016 2328 
Q 3016 3291 2770 3770 
Q 2525 4250 2034 4250 
z
M 2034 4750 
Q 2819 4750 3233 4129 
Q 3647 3509 3647 2328 
Q 3647 1150 3233 529 
Q 2819 -91 2034 -91 
Q 1250 -91 836 529 
Q 422 1150 422 2328 
Q 422 3509 836 4129 
Q 1250 4750 2034 4750 
z
" transform="scale(0.015625)"/>
       </defs>
       <use xlink:href="#DejaVuSans-30"/>
      </g>
     </g>
    </g>
    <g id="xtick_2">
     <g id="line2d_2">
      <g>
       <use xlink:href="#m7d1324f067" x="126.191972" y="162.432" style="stroke: #000000; stroke-width: 0.8"/>
      </g>
     </g>
     <g id="text_2">
      <!-- 10000 -->
      <g transform="translate(110.285722 177.030437)scale(0.1 -0.1)">
       <defs>
        <path id="DejaVuSans-31" d="M 794 531 
L 1825 531 
L 1825 4091 
L 703 3866 
L 703 4441 
L 1819 4666 
L 2450 4666 
L 2450 531 
L 3481 531 
L 3481 0 
L 794 0 
L 794 531 
z
" transform="scale(0.015625)"/>
       </defs>
       <use xlink:href="#DejaVuSans-31"/>
       <use xlink:href="#DejaVuSans-30" x="63.623047"/>
       <use xlink:href="#DejaVuSans-30" x="127.246094"/>
       <use xlink:href="#DejaVuSans-30" x="190.869141"/>
       <use xlink:href="#DejaVuSans-30" x="254.492188"/>
      </g>
     </g>
    </g>
    <g id="xtick_3">
     <g id="line2d_3">
      <g>
       <use xlink:href="#m7d1324f067" x="178.556453" y="162.432" style="stroke: #000000; stroke-width: 0.8"/>
      </g>
     </g>
     <g id="text_3">
      <!-- 20000 -->
      <g transform="translate(162.650203 177.030437)scale(0.1 -0.1)">
       <defs>
        <path id="DejaVuSans-32" d="M 1228 531 
L 3431 531 
L 3431 0 
L 469 0 
L 469 531 
Q 828 903 1448 1529 
Q 2069 2156 2228 2338 
Q 2531 2678 2651 2914 
Q 2772 3150 2772 3378 
Q 2772 3750 2511 3984 
Q 2250 4219 1831 4219 
Q 1534 4219 1204 4116 
Q 875 4013 500 3803 
L 500 4441 
Q 881 4594 1212 4672 
Q 1544 4750 1819 4750 
Q 2544 4750 2975 4387 
Q 3406 4025 3406 3419 
Q 3406 3131 3298 2873 
Q 3191 2616 2906 2266 
Q 2828 2175 2409 1742 
Q 1991 1309 1228 531 
z
" transform="scale(0.015625)"/>
       </defs>
       <use xlink:href="#DejaVuSans-32"/>
       <use xlink:href="#DejaVuSans-30" x="63.623047"/>
       <use xlink:href="#DejaVuSans-30" x="127.246094"/>
       <use xlink:href="#DejaVuSans-30" x="190.869141"/>
       <use xlink:href="#DejaVuSans-30" x="254.492188"/>
      </g>
     </g>
    </g>
    <g id="xtick_4">
     <g id="line2d_4">
      <g>
       <use xlink:href="#m7d1324f067" x="230.920934" y="162.432" style="stroke: #000000; stroke-width: 0.8"/>
      </g>
     </g>
     <g id="text_4">
      <!-- 30000 -->
      <g transform="translate(215.014684 177.030437)scale(0.1 -0.1)">
       <defs>
        <path id="DejaVuSans-33" d="M 2597 2516 
Q 3050 2419 3304 2112 
Q 3559 1806 3559 1356 
Q 3559 666 3084 287 
Q 2609 -91 1734 -91 
Q 1441 -91 1130 -33 
Q 819 25 488 141 
L 488 750 
Q 750 597 1062 519 
Q 1375 441 1716 441 
Q 2309 441 2620 675 
Q 2931 909 2931 1356 
Q 2931 1769 2642 2001 
Q 2353 2234 1838 2234 
L 1294 2234 
L 1294 2753 
L 1863 2753 
Q 2328 2753 2575 2939 
Q 2822 3125 2822 3475 
Q 2822 3834 2567 4026 
Q 2313 4219 1838 4219 
Q 1578 4219 1281 4162 
Q 984 4106 628 3988 
L 628 4550 
Q 988 4650 1302 4700 
Q 1616 4750 1894 4750 
Q 2613 4750 3031 4423 
Q 3450 4097 3450 3541 
Q 3450 3153 3228 2886 
Q 3006 2619 2597 2516 
z
" transform="scale(0.015625)"/>
       </defs>
       <use xlink:href="#DejaVuSans-33"/>
       <use xlink:href="#DejaVuSans-30" x="63.623047"/>
       <use xlink:href="#DejaVuSans-30" x="127.246094"/>
       <use xlink:href="#DejaVuSans-30" x="190.869141"/>
       <use xlink:href="#DejaVuSans-30" x="254.492188"/>
      </g>
     </g>
    </g>
    <g id="xtick_5">
     <g id="line2d_5">
      <g>
       <use xlink:href="#m7d1324f067" x="283.285415" y="162.432" style="stroke: #000000; stroke-width: 0.8"/>
      </g>
     </g>
     <g id="text_5">
      <!-- 40000 -->
      <g transform="translate(267.379165 177.030437)scale(0.1 -0.1)">
       <defs>
        <path id="DejaVuSans-34" d="M 2419 4116 
L 825 1625 
L 2419 1625 
L 2419 4116 
z
M 2253 4666 
L 3047 4666 
L 3047 1625 
L 3713 1625 
L 3713 1100 
L 3047 1100 
L 3047 0 
L 2419 0 
L 2419 1100 
L 313 1100 
L 313 1709 
L 2253 4666 
z
" transform="scale(0.015625)"/>
       </defs>
       <use xlink:href="#DejaVuSans-34"/>
       <use xlink:href="#DejaVuSans-30" x="63.623047"/>
       <use xlink:href="#DejaVuSans-30" x="127.246094"/>
       <use xlink:href="#DejaVuSans-30" x="190.869141"/>
       <use xlink:href="#DejaVuSans-30" x="254.492188"/>
      </g>
     </g>
    </g>
    <g id="xtick_6">
     <g id="line2d_6">
      <g>
       <use xlink:href="#m7d1324f067" x="335.649896" y="162.432" style="stroke: #000000; stroke-width: 0.8"/>
      </g>
     </g>
     <g id="text_6">
      <!-- 50000 -->
      <g transform="translate(319.743646 177.030437)scale(0.1 -0.1)">
       <defs>
        <path id="DejaVuSans-35" d="M 691 4666 
L 3169 4666 
L 3169 4134 
L 1269 4134 
L 1269 2991 
Q 1406 3038 1543 3061 
Q 1681 3084 1819 3084 
Q 2600 3084 3056 2656 
Q 3513 2228 3513 1497 
Q 3513 744 3044 326 
Q 2575 -91 1722 -91 
Q 1428 -91 1123 -41 
Q 819 9 494 109 
L 494 744 
Q 775 591 1075 516 
Q 1375 441 1709 441 
Q 2250 441 2565 725 
Q 2881 1009 2881 1497 
Q 2881 1984 2565 2268 
Q 2250 2553 1709 2553 
Q 1456 2553 1204 2497 
Q 953 2441 691 2322 
L 691 4666 
z
" transform="scale(0.015625)"/>
       </defs>
       <use xlink:href="#DejaVuSans-35"/>
       <use xlink:href="#DejaVuSans-30" x="63.623047"/>
       <use xlink:href="#DejaVuSans-30" x="127.246094"/>
       <use xlink:href="#DejaVuSans-30" x="190.869141"/>
       <use xlink:href="#DejaVuSans-30" x="254.492188"/>
      </g>
     </g>
    </g>
    <g id="xtick_7">
     <g id="line2d_7">
      <g>
       <use xlink:href="#m7d1324f067" x="388.014377" y="162.432" style="stroke: #000000; stroke-width: 0.8"/>
      </g>
     </g>
     <g id="text_7">
      <!-- 60000 -->
      <g transform="translate(372.108127 177.030437)scale(0.1 -0.1)">
       <defs>
        <path id="DejaVuSans-36" d="M 2113 2584 
Q 1688 2584 1439 2293 
Q 1191 2003 1191 1497 
Q 1191 994 1439 701 
Q 1688 409 2113 409 
Q 2538 409 2786 701 
Q 3034 994 3034 1497 
Q 3034 2003 2786 2293 
Q 2538 2584 2113 2584 
z
M 3366 4563 
L 3366 3988 
Q 3128 4100 2886 4159 
Q 2644 4219 2406 4219 
Q 1781 4219 1451 3797 
Q 1122 3375 1075 2522 
Q 1259 2794 1537 2939 
Q 1816 3084 2150 3084 
Q 2853 3084 3261 2657 
Q 3669 2231 3669 1497 
Q 3669 778 3244 343 
Q 2819 -91 2113 -91 
Q 1303 -91 875 529 
Q 447 1150 447 2328 
Q 447 3434 972 4092 
Q 1497 4750 2381 4750 
Q 2619 4750 2861 4703 
Q 3103 4656 3366 4563 
z
" transform="scale(0.015625)"/>
       </defs>
       <use xlink:href="#DejaVuSans-36"/>
       <use xlink:href="#DejaVuSans-30" x="63.623047"/>
       <use xlink:href="#DejaVuSans-30" x="127.246094"/>
       <use xlink:href="#DejaVuSans-30" x="190.869141"/>
       <use xlink:href="#DejaVuSans-30" x="254.492188"/>
      </g>
     </g>
    </g>
   </g>
   <g id="matplotlib.axis_2">
    <g id="ytick_1">
     <g id="line2d_8">
      <defs>
       <path id="m65b9344cd9" d="M 0 0 
L -3.5 0 
" style="stroke: #000000; stroke-width: 0.8"/>
      </defs>
      <g>
       <use xlink:href="#m65b9344cd9" x="57.6" y="151.406023" style="stroke: #000000; stroke-width: 0.8"/>
      </g>
     </g>
     <g id="text_8">
      <!-- 80 -->
      <g transform="translate(37.875 155.205242)scale(0.1 -0.1)">
       <defs>
        <path id="DejaVuSans-38" d="M 2034 2216 
Q 1584 2216 1326 1975 
Q 1069 1734 1069 1313 
Q 1069 891 1326 650 
Q 1584 409 2034 409 
Q 2484 409 2743 651 
Q 3003 894 3003 1313 
Q 3003 1734 2745 1975 
Q 2488 2216 2034 2216 
z
M 1403 2484 
Q 997 2584 770 2862 
Q 544 3141 544 3541 
Q 544 4100 942 4425 
Q 1341 4750 2034 4750 
Q 2731 4750 3128 4425 
Q 3525 4100 3525 3541 
Q 3525 3141 3298 2862 
Q 3072 2584 2669 2484 
Q 3125 2378 3379 2068 
Q 3634 1759 3634 1313 
Q 3634 634 3220 271 
Q 2806 -91 2034 -91 
Q 1263 -91 848 271 
Q 434 634 434 1313 
Q 434 1759 690 2068 
Q 947 2378 1403 2484 
z
M 1172 3481 
Q 1172 3119 1398 2916 
Q 1625 2713 2034 2713 
Q 2441 2713 2670 2916 
Q 2900 3119 2900 3481 
Q 2900 3844 2670 4047 
Q 2441 4250 2034 4250 
Q 1625 4250 1398 4047 
Q 1172 3844 1172 3481 
z
" transform="scale(0.015625)"/>
       </defs>
       <use xlink:href="#DejaVuSans-38"/>
       <use xlink:href="#DejaVuSans-30" x="63.623047"/>
      </g>
     </g>
    </g>
    <g id="ytick_2">
     <g id="line2d_9">
      <g>
       <use xlink:href="#m65b9344cd9" x="57.6" y="111.921773" style="stroke: #000000; stroke-width: 0.8"/>
      </g>
     </g>
     <g id="text_9">
      <!-- 90 -->
      <g transform="translate(37.875 115.720992)scale(0.1 -0.1)">
       <defs>
        <path id="DejaVuSans-39" d="M 703 97 
L 703 672 
Q 941 559 1184 500 
Q 1428 441 1663 441 
Q 2288 441 2617 861 
Q 2947 1281 2994 2138 
Q 2813 1869 2534 1725 
Q 2256 1581 1919 1581 
Q 1219 1581 811 2004 
Q 403 2428 403 3163 
Q 403 3881 828 4315 
Q 1253 4750 1959 4750 
Q 2769 4750 3195 4129 
Q 3622 3509 3622 2328 
Q 3622 1225 3098 567 
Q 2575 -91 1691 -91 
Q 1453 -91 1209 -44 
Q 966 3 703 97 
z
M 1959 2075 
Q 2384 2075 2632 2365 
Q 2881 2656 2881 3163 
Q 2881 3666 2632 3958 
Q 2384 4250 1959 4250 
Q 1534 4250 1286 3958 
Q 1038 3666 1038 3163 
Q 1038 2656 1286 2365 
Q 1534 2075 1959 2075 
z
" transform="scale(0.015625)"/>
       </defs>
       <use xlink:href="#DejaVuSans-39"/>
       <use xlink:href="#DejaVuSans-30" x="63.623047"/>
      </g>
     </g>
    </g>
    <g id="ytick_3">
     <g id="line2d_10">
      <g>
       <use xlink:href="#m65b9344cd9" x="57.6" y="72.437523" style="stroke: #000000; stroke-width: 0.8"/>
      </g>
     </g>
     <g id="text_10">
      <!-- 100 -->
      <g transform="translate(31.5125 76.236742)scale(0.1 -0.1)">
       <use xlink:href="#DejaVuSans-31"/>
       <use xlink:href="#DejaVuSans-30" x="63.623047"/>
       <use xlink:href="#DejaVuSans-30" x="127.246094"/>
      </g>
     </g>
    </g>
   </g>
   <g id="line2d_11">
    <path d="M 73.832727 71.450417 
L 73.853673 71.450417 
L 74.000294 62.434846 
L 74.157387 62.434846 
L 74.272589 61.118705 
L 74.277825 61.118705 
L 74.393027 60.131598 
L 74.900963 60.131598 
L 75.016165 58.815457 
L 75.702139 58.815457 
L 75.817341 57.499315 
L 76.40906 57.499315 
L 76.524262 55.525103 
L 79.409544 55.525103 
L 79.524746 54.208961 
L 91.217735 54.208961 
L 91.332937 52.892819 
L 108.958821 52.892819 
L 109.074023 51.576678 
L 164.679865 51.576678 
L 164.795067 50.260536 
L 274.786659 50.260536 
L 274.901861 48.944394 
L 338.451395 48.944394 
L 338.566597 46.970182 
L 398.487273 46.970182 
L 398.487273 46.970182 
" clip-path="url(#p71ca7ca3fd)" style="fill: none; stroke: #1f77b4; stroke-width: 1.5; stroke-linecap: square"/>
   </g>
   <g id="line2d_12">
    <path d="M 73.832727 72.437523 
L 73.853673 72.437523 
L 73.984584 88.231223 
L 74.00553 88.231223 
L 74.073604 83.295692 
L 74.110259 89.218329 
L 74.157387 89.218329 
L 74.272589 93.166754 
L 74.277825 93.166754 
L 74.324953 97.115179 
L 74.382554 93.166754 
L 74.440155 87.902188 
L 74.497756 91.850613 
L 74.790997 91.850613 
L 74.859071 95.799038 
L 74.900963 91.850613 
L 75.031874 91.850613 
L 75.147076 95.799038 
L 75.28846 95.799038 
L 75.403662 91.850613 
L 75.702139 91.850613 
L 75.817341 95.799038 
L 76.440478 95.799038 
L 76.55568 91.850613 
L 77.948575 91.850613 
L 78.063777 95.799038 
L 78.660732 95.799038 
L 78.775934 91.060928 
L 79.12154 91.060928 
L 79.241978 98.957778 
L 79.257687 98.957778 
L 79.372889 97.970671 
L 82.514758 97.970671 
L 82.62996 101.919096 
L 90.432268 101.919096 
L 90.54747 97.970671 
L 90.7674 97.970671 
L 90.882602 101.919096 
L 93.888323 101.919096 
L 94.003525 97.970671 
L 98.030354 97.970671 
L 98.145556 101.919096 
L 98.842003 101.919096 
L 98.957205 105.867521 
L 102.031 105.867521 
L 102.146202 109.815946 
L 103.806156 109.815946 
L 103.921358 105.867521 
L 108.958821 105.867521 
L 109.074023 109.815946 
L 116.876331 109.815946 
L 116.991532 105.867521 
L 127.857162 105.867521 
L 127.972364 101.919096 
L 136.444937 101.919096 
L 136.560139 105.867521 
L 137.403207 105.867521 
L 137.518409 101.919096 
L 162.710961 101.919096 
L 162.826163 105.867521 
L 246.132815 105.867521 
L 246.248017 101.919096 
L 277.362992 101.919096 
L 277.478194 101.129411 
L 292.208322 101.129411 
L 292.323524 105.077836 
L 398.487273 105.077836 
L 398.487273 105.077836 
" clip-path="url(#p71ca7ca3fd)" style="fill: none; stroke: #ff7f0e; stroke-width: 1.5; stroke-linecap: square"/>
   </g>
   <g id="line2d_13">
    <path d="M 73.832727 71.450417 
L 73.853673 71.450417 
L 73.879855 68.818134 
L 73.937456 77.899511 
L 73.958402 77.899511 
L 74.010767 75.596263 
L 74.021239 83.493113 
L 74.036949 83.493113 
L 74.042185 83.493113 
L 74.157387 98.299707 
L 74.16786 96.983565 
L 74.277825 96.983565 
L 74.382554 95.996459 
L 74.502993 103.893309 
L 74.900963 103.893309 
L 75.016165 102.577167 
L 75.031874 102.577167 
L 75.152312 110.474017 
L 75.702139 110.474017 
L 75.817341 109.157876 
L 76.466661 109.157876 
L 76.581863 113.106301 
L 76.79132 113.106301 
L 76.906522 117.054726 
L 77.948575 117.054726 
L 78.063777 121.003151 
L 78.681678 121.003151 
L 78.79688 120.213466 
L 79.12154 120.213466 
L 79.241978 128.110316 
L 79.257687 128.110316 
L 79.372889 127.123209 
L 79.409544 127.123209 
L 79.524746 125.807068 
L 79.639948 125.807068 
L 79.75515 129.755493 
L 89.877204 129.755493 
L 89.992406 133.703918 
L 90.7674 133.703918 
L 90.882602 137.652343 
L 91.217735 137.652343 
L 91.332937 136.336201 
L 98.030354 136.336201 
L 98.145556 140.284626 
L 98.842003 140.284626 
L 98.957205 144.233051 
L 108.958821 144.233051 
L 109.074023 142.916909 
L 110.042766 142.916909 
L 110.157968 146.865334 
L 162.710961 146.865334 
L 162.826163 145.878228 
L 164.679865 145.878228 
L 164.795067 144.562087 
L 196.046189 144.562087 
L 196.161391 148.510512 
L 229.528038 148.510512 
L 229.64324 152.458937 
L 274.786659 152.458937 
L 274.901861 151.142795 
L 277.362992 151.142795 
L 277.478194 150.35311 
L 292.208322 150.35311 
L 292.323524 154.301535 
L 338.451395 154.301535 
L 338.566597 152.327322 
L 347.515687 152.327322 
L 347.630889 156.275747 
L 398.487273 156.275747 
L 398.487273 156.275747 
" clip-path="url(#p71ca7ca3fd)" style="fill: none; stroke: #2ca02c; stroke-width: 1.5; stroke-linecap: square"/>
   </g>
   <g id="line2d_14">
    <path d="M 73.832727 72.437523 
L 73.837964 72.437523 
L 73.853673 71.121381 
L 73.85891 75.069806 
L 73.947929 72.50333 
L 73.958402 72.50333 
L 74.010767 79.413074 
L 74.073604 77.833704 
L 74.194042 75.267228 
L 74.214988 75.267228 
L 74.33019 74.280121 
L 74.440155 74.280121 
L 74.555357 73.490436 
L 77.948575 73.490436 
L 78.063777 72.700751 
L 79.12154 72.700751 
L 79.241978 71.121381 
L 82.514758 71.121381 
L 82.62996 70.134275 
L 90.7674 70.134275 
L 90.882602 69.34459 
L 98.030354 69.34459 
L 98.145556 68.554905 
L 98.842003 68.554905 
L 98.957205 67.76522 
L 102.031 67.76522 
L 102.146202 66.778114 
L 136.444937 66.778114 
L 136.560139 65.791008 
L 292.208322 65.791008 
L 292.323524 65.001323 
L 398.487273 65.001323 
L 398.487273 65.001323 
" clip-path="url(#p71ca7ca3fd)" style="fill: none; stroke: #d62728; stroke-width: 1.5; stroke-linecap: square"/>
   </g>
   <g id="line2d_15">
    <path d="M 73.832727 76.385948 
L 73.853673 76.385948 
L 73.879855 75.069806 
L 73.906038 82.966656 
L 73.937456 82.966656 
L 73.958402 82.966656 
L 74.016003 80.663409 
L 74.021239 84.611834 
L 74.042185 84.611834 
L 74.157387 100.405534 
L 74.16786 99.089392 
L 74.277825 99.089392 
L 74.382554 98.102286 
L 74.497756 102.050711 
L 74.900963 102.050711 
L 74.911436 100.734569 
L 74.916672 104.682994 
L 75.000455 104.682994 
L 75.147076 104.682994 
L 75.262278 108.631419 
L 75.702139 108.631419 
L 75.817341 107.315277 
L 76.466661 107.315277 
L 76.581863 111.263702 
L 76.79132 111.263702 
L 76.906522 115.212127 
L 78.681678 115.212127 
L 78.79688 114.422442 
L 79.12154 114.422442 
L 79.236742 118.370867 
L 79.409544 118.370867 
L 79.524746 117.054726 
L 79.639948 117.054726 
L 79.75515 121.003151 
L 89.877204 121.003151 
L 89.992406 124.951576 
L 91.217735 124.951576 
L 91.332937 123.635434 
L 98.842003 123.635434 
L 98.957205 127.583859 
L 108.958821 127.583859 
L 109.074023 126.267717 
L 110.042766 126.267717 
L 110.157968 130.216142 
L 164.679865 130.216142 
L 164.795067 128.900001 
L 196.046189 128.900001 
L 196.161391 132.848426 
L 229.528038 132.848426 
L 229.64324 136.796851 
L 274.786659 136.796851 
L 274.901861 135.480709 
L 277.362992 135.480709 
L 277.478194 134.691024 
L 292.208322 134.691024 
L 292.323524 138.639449 
L 347.515687 138.639449 
L 347.630889 142.587874 
L 398.487273 142.587874 
L 398.487273 142.587874 
" clip-path="url(#p71ca7ca3fd)" style="fill: none; stroke: #9467bd; stroke-width: 1.5; stroke-linecap: square"/>
   </g>
   <g id="line2d_16">
    <path d="M 73.832727 71.450417 
L 73.885092 71.450417 
L 74.000294 70.660732 
L 74.068367 70.660732 
L 74.188806 68.357484 
L 74.911436 68.357484 
L 75.026637 67.041342 
L 78.681678 67.041342 
L 78.79688 66.251657 
L 79.257687 66.251657 
L 79.372889 65.264551 
L 162.710961 65.264551 
L 162.826163 64.277445 
L 277.362992 64.277445 
L 277.478194 63.48776 
L 398.487273 63.48776 
L 398.487273 63.48776 
" clip-path="url(#p71ca7ca3fd)" style="fill: none; stroke: #8c564b; stroke-width: 1.5; stroke-linecap: square"/>
   </g>
   <g id="line2d_17">
    <path d="M 73.832727 76.385948 
L 73.8432 76.385948 
L 73.963638 91.192542 
L 73.968875 90.205436 
L 73.974111 90.205436 
L 74.073604 96.522916 
L 74.089313 95.535809 
L 74.09455 95.535809 
L 74.115495 93.956439 
L 74.120732 97.904864 
L 74.188806 97.904864 
L 74.214988 97.904864 
L 74.277825 96.917758 
L 74.283062 100.866183 
L 74.309244 100.866183 
L 74.440155 100.866183 
L 74.555357 100.076498 
L 74.790997 100.076498 
L 74.906199 98.760356 
L 74.911436 98.760356 
L 75.026637 102.708781 
L 75.702139 102.708781 
L 75.817341 106.657206 
L 76.40906 106.657206 
L 76.524262 110.605631 
L 77.948575 110.605631 
L 78.063777 109.815946 
L 78.681678 109.815946 
L 78.79688 113.764371 
L 79.12154 113.764371 
L 79.241978 112.185001 
L 79.257687 112.185001 
L 79.372889 116.133426 
L 79.409544 116.133426 
L 79.524746 120.081851 
L 82.514758 120.081851 
L 82.62996 119.094745 
L 90.7674 119.094745 
L 90.882602 118.30506 
L 98.030354 118.30506 
L 98.145556 117.515375 
L 98.842003 117.515375 
L 98.957205 116.72569 
L 102.031 116.72569 
L 102.146202 115.738584 
L 136.444937 115.738584 
L 136.560139 114.751478 
L 162.710961 114.751478 
L 162.826163 118.699903 
L 277.362992 118.699903 
L 277.478194 122.648328 
L 292.208322 122.648328 
L 292.323524 121.858643 
L 398.487273 121.858643 
L 398.487273 121.858643 
" clip-path="url(#p71ca7ca3fd)" style="fill: none; stroke: #e377c2; stroke-width: 1.5; stroke-linecap: square"/>
   </g>
   <g id="line2d_18">
    <path d="M 73.832727 71.450417 
L 73.8432 71.450417 
L 73.958402 66.712307 
L 74.068367 66.712307 
L 74.188806 64.409059 
L 74.911436 64.409059 
L 75.026637 63.092917 
L 78.681678 63.092917 
L 78.79688 62.303232 
L 79.257687 62.303232 
L 79.372889 61.316126 
L 162.710961 61.316126 
L 162.826163 60.32902 
L 277.362992 60.32902 
L 277.478194 59.539335 
L 398.487273 59.539335 
L 398.487273 59.539335 
" clip-path="url(#p71ca7ca3fd)" style="fill: none; stroke: #7f7f7f; stroke-width: 1.5; stroke-linecap: square"/>
   </g>
   <g id="line2d_19">
    <path d="M 73.832727 76.385948 
L 73.837964 76.385948 
L 73.853673 75.069806 
L 73.906038 86.125396 
L 73.921747 86.125396 
L 73.926983 85.13829 
L 73.979348 94.022246 
L 73.989821 94.022246 
L 74.010767 94.022246 
L 74.068367 92.442876 
L 74.073604 96.391301 
L 74.115495 93.824825 
L 74.214988 97.77325 
L 74.225461 96.786144 
L 74.277825 96.786144 
L 74.382554 100.734569 
L 74.387791 99.418427 
L 74.440155 99.418427 
L 74.555357 98.628742 
L 74.790997 98.628742 
L 74.906199 97.312601 
L 74.911436 97.312601 
L 75.026637 101.261026 
L 75.031874 101.261026 
L 75.147076 99.944884 
L 75.702139 99.944884 
L 75.817341 103.893309 
L 76.40906 103.893309 
L 76.466661 107.841734 
L 76.519025 105.867521 
L 76.79132 105.867521 
L 76.906522 103.893309 
L 77.948575 103.893309 
L 78.063777 103.103624 
L 78.681678 103.103624 
L 78.79688 107.052049 
L 79.12154 107.052049 
L 79.241978 105.472679 
L 79.257687 105.472679 
L 79.372889 109.421104 
L 79.409544 109.421104 
L 79.524746 113.369529 
L 82.514758 113.369529 
L 82.62996 112.382423 
L 89.877204 112.382423 
L 89.992406 110.40821 
L 90.7674 110.40821 
L 90.882602 109.618525 
L 91.217735 109.618525 
L 91.332937 113.56695 
L 98.030354 113.56695 
L 98.145556 112.777265 
L 98.842003 112.777265 
L 98.957205 111.98758 
L 102.031 111.98758 
L 102.146202 111.000474 
L 108.958821 111.000474 
L 109.074023 114.948899 
L 136.444937 114.948899 
L 136.560139 113.961793 
L 162.710961 113.961793 
L 162.826163 117.910218 
L 164.679865 117.910218 
L 164.795067 121.858643 
L 274.786659 121.858643 
L 274.901861 125.807068 
L 277.362992 125.807068 
L 277.478194 129.755493 
L 292.208322 129.755493 
L 292.323524 128.965808 
L 338.451395 128.965808 
L 338.566597 132.914233 
L 347.515687 132.914233 
L 347.630889 130.94002 
L 398.487273 130.94002 
L 398.487273 130.94002 
" clip-path="url(#p71ca7ca3fd)" style="fill: none; stroke: #bcbd22; stroke-width: 1.5; stroke-linecap: square"/>
   </g>
   <g id="line2d_20">
    <path d="M 73.832727 72.437523 
L 73.837964 72.437523 
L 73.853673 71.121381 
L 73.879855 79.018231 
L 73.926983 75.135614 
L 74.010767 84.01957 
L 74.042185 81.255672 
L 74.073604 84.414412 
L 74.157387 78.557582 
L 74.214988 82.506007 
L 74.267352 81.518901 
L 74.277825 81.518901 
L 74.382554 85.467326 
L 74.387791 84.151184 
L 74.440155 84.151184 
L 74.555357 83.361499 
L 74.790997 83.361499 
L 74.900963 82.045357 
L 74.911436 85.993782 
L 75.010928 84.677641 
L 75.031874 84.677641 
L 75.152312 81.387286 
L 75.702139 81.387286 
L 75.817341 85.335711 
L 76.40906 85.335711 
L 76.466661 89.284136 
L 76.519025 87.309924 
L 76.79132 87.309924 
L 76.906522 85.335711 
L 77.948575 85.335711 
L 78.063777 84.546026 
L 78.681678 84.546026 
L 78.79688 88.494451 
L 79.12154 88.494451 
L 79.241978 86.915081 
L 79.257687 86.915081 
L 79.372889 90.863506 
L 79.409544 90.863506 
L 79.524746 94.811931 
L 79.639948 94.811931 
L 79.75515 92.837719 
L 82.514758 92.837719 
L 82.62996 91.850613 
L 89.877204 91.850613 
L 89.992406 89.8764 
L 90.7674 89.8764 
L 90.882602 89.086715 
L 91.217735 89.086715 
L 91.332937 93.03514 
L 98.030354 93.03514 
L 98.145556 92.245455 
L 98.842003 92.245455 
L 98.957205 91.45577 
L 102.031 91.45577 
L 102.146202 90.468664 
L 108.958821 90.468664 
L 109.074023 94.417089 
L 110.042766 94.417089 
L 110.157968 92.442876 
L 136.444937 92.442876 
L 136.560139 91.45577 
L 162.710961 91.45577 
L 162.826163 90.468664 
L 164.679865 90.468664 
L 164.795067 94.417089 
L 196.046189 94.417089 
L 196.161391 92.442876 
L 229.528038 92.442876 
L 229.64324 90.468664 
L 274.786659 90.468664 
L 274.901861 94.417089 
L 277.362992 94.417089 
L 277.478194 98.365514 
L 292.208322 98.365514 
L 292.323524 97.575829 
L 338.451395 97.575829 
L 338.566597 101.524254 
L 347.515687 101.524254 
L 347.630889 99.550041 
L 398.487273 99.550041 
L 398.487273 99.550041 
" clip-path="url(#p71ca7ca3fd)" style="fill: none; stroke: #17becf; stroke-width: 1.5; stroke-linecap: square"/>
   </g>
   <g id="line2d_21">
    <path d="M 73.832727 76.385948 
L 73.885092 76.385948 
L 74.000294 80.334373 
L 74.068367 80.334373 
L 74.188806 88.231223 
L 74.911436 88.231223 
L 75.026637 92.179648 
L 78.681678 92.179648 
L 78.79688 96.128073 
L 79.257687 96.128073 
L 79.372889 100.076498 
L 162.710961 100.076498 
L 162.826163 104.024923 
L 277.362992 104.024923 
L 277.478194 107.973348 
L 398.487273 107.973348 
L 398.487273 107.973348 
" clip-path="url(#p71ca7ca3fd)" style="fill: none; stroke: #1f77b4; stroke-width: 1.5; stroke-linecap: square"/>
   </g>
   <g id="line2d_22">
    <path d="M 73.832727 72.437523 
L 73.837964 72.437523 
L 73.900801 82.176971 
L 73.958402 80.86083 
L 73.963638 79.873724 
L 74.010767 91.718999 
L 74.021239 88.955101 
L 74.09455 100.010691 
L 74.141678 98.431321 
L 74.162624 98.431321 
L 74.277825 102.379746 
L 74.324953 101.39264 
L 74.33019 105.341065 
L 74.372081 105.341065 
L 74.382554 105.341065 
L 74.440155 113.237915 
L 74.502993 112.44823 
L 74.859071 112.44823 
L 74.979509 120.34508 
L 75.031874 120.34508 
L 75.152312 117.054726 
L 75.28846 117.054726 
L 75.403662 121.003151 
L 76.40906 121.003151 
L 76.440478 119.028938 
L 76.445715 122.977363 
L 76.513789 122.977363 
L 77.948575 122.977363 
L 78.063777 122.187678 
L 78.660732 122.187678 
L 78.781171 130.084528 
L 79.12154 130.084528 
L 79.241978 128.505158 
L 79.257687 128.505158 
L 79.372889 132.453583 
L 79.639948 132.453583 
L 79.75515 130.479371 
L 90.432268 130.479371 
L 90.54747 134.427796 
L 90.7674 134.427796 
L 90.882602 133.638111 
L 93.888323 133.638111 
L 94.003525 137.586536 
L 98.030354 137.586536 
L 98.145556 136.796851 
L 98.842003 136.796851 
L 98.957205 136.007166 
L 103.806156 136.007166 
L 103.921358 139.955591 
L 110.042766 139.955591 
L 110.157968 137.981378 
L 116.876331 137.981378 
L 116.991532 141.929803 
L 127.857162 141.929803 
L 127.972364 145.878228 
L 137.403207 145.878228 
L 137.518409 149.826653 
L 196.046189 149.826653 
L 196.161391 147.852441 
L 229.528038 147.852441 
L 229.64324 145.878228 
L 246.132815 145.878228 
L 246.248017 149.826653 
L 277.362992 149.826653 
L 277.478194 153.775078 
L 292.208322 153.775078 
L 292.323524 152.985393 
L 338.451395 152.985393 
L 338.566597 156.933818 
L 398.487273 156.933818 
L 398.487273 156.933818 
" clip-path="url(#p71ca7ca3fd)" style="fill: none; stroke: #ff7f0e; stroke-width: 1.5; stroke-linecap: square"/>
   </g>
   <g id="patch_3">
    <path d="M 57.6 162.432 
L 57.6 41.472 
" style="fill: none; stroke: #000000; stroke-width: 0.8; stroke-linejoin: miter; stroke-linecap: square"/>
   </g>
   <g id="patch_4">
    <path d="M 414.72 162.432 
L 414.72 41.472 
" style="fill: none; stroke: #000000; stroke-width: 0.8; stroke-linejoin: miter; stroke-linecap: square"/>
   </g>
   <g id="patch_5">
    <path d="M 57.6 162.432 
L 414.72 162.432 
" style="fill: none; stroke: #000000; stroke-width: 0.8; stroke-linejoin: miter; stroke-linecap: square"/>
   </g>
   <g id="patch_6">
    <path d="M 57.6 41.472 
L 414.72 41.472 
" style="fill: none; stroke: #000000; stroke-width: 0.8; stroke-linejoin: miter; stroke-linecap: square"/>
   </g>
   <g id="text_11">
    <!-- WSP -->
    <g transform="translate(361.832136 46.970182)scale(0.08 -0.08)">
     <defs>
      <path id="DejaVuSans-57" d="M 213 4666 
L 850 4666 
L 1831 722 
L 2809 4666 
L 3519 4666 
L 4500 722 
L 5478 4666 
L 6119 4666 
L 4947 0 
L 4153 0 
L 3169 4050 
L 2175 0 
L 1381 0 
L 213 4666 
z
" transform="scale(0.015625)"/>
      <path id="DejaVuSans-53" d="M 3425 4513 
L 3425 3897 
Q 3066 4069 2747 4153 
Q 2428 4238 2131 4238 
Q 1616 4238 1336 4038 
Q 1056 3838 1056 3469 
Q 1056 3159 1242 3001 
Q 1428 2844 1947 2747 
L 2328 2669 
Q 3034 2534 3370 2195 
Q 3706 1856 3706 1288 
Q 3706 609 3251 259 
Q 2797 -91 1919 -91 
Q 1588 -91 1214 -16 
Q 841 59 441 206 
L 441 856 
Q 825 641 1194 531 
Q 1563 422 1919 422 
Q 2459 422 2753 634 
Q 3047 847 3047 1241 
Q 3047 1584 2836 1778 
Q 2625 1972 2144 2069 
L 1759 2144 
Q 1053 2284 737 2584 
Q 422 2884 422 3419 
Q 422 4038 858 4394 
Q 1294 4750 2059 4750 
Q 2388 4750 2728 4690 
Q 3069 4631 3425 4513 
z
" transform="scale(0.015625)"/>
      <path id="DejaVuSans-50" d="M 1259 4147 
L 1259 2394 
L 2053 2394 
Q 2494 2394 2734 2622 
Q 2975 2850 2975 3272 
Q 2975 3691 2734 3919 
Q 2494 4147 2053 4147 
L 1259 4147 
z
M 628 4666 
L 2053 4666 
Q 2838 4666 3239 4311 
Q 3641 3956 3641 3272 
Q 3641 2581 3239 2228 
Q 2838 1875 2053 1875 
L 1259 1875 
L 1259 0 
L 628 0 
L 628 4666 
z
" transform="scale(0.015625)"/>
     </defs>
     <use xlink:href="#DejaVuSans-57"/>
     <use xlink:href="#DejaVuSans-53" x="98.876953"/>
     <use xlink:href="#DejaVuSans-50" x="162.353516"/>
    </g>
   </g>
   <g id="text_12">
    <!-- Iambic -->
    <g transform="translate(361.832136 105.077836)scale(0.08 -0.08)">
     <defs>
      <path id="DejaVuSans-49" d="M 628 4666 
L 1259 4666 
L 1259 0 
L 628 0 
L 628 4666 
z
" transform="scale(0.015625)"/>
      <path id="DejaVuSans-61" d="M 2194 1759 
Q 1497 1759 1228 1600 
Q 959 1441 959 1056 
Q 959 750 1161 570 
Q 1363 391 1709 391 
Q 2188 391 2477 730 
Q 2766 1069 2766 1631 
L 2766 1759 
L 2194 1759 
z
M 3341 1997 
L 3341 0 
L 2766 0 
L 2766 531 
Q 2569 213 2275 61 
Q 1981 -91 1556 -91 
Q 1019 -91 701 211 
Q 384 513 384 1019 
Q 384 1609 779 1909 
Q 1175 2209 1959 2209 
L 2766 2209 
L 2766 2266 
Q 2766 2663 2505 2880 
Q 2244 3097 1772 3097 
Q 1472 3097 1187 3025 
Q 903 2953 641 2809 
L 641 3341 
Q 956 3463 1253 3523 
Q 1550 3584 1831 3584 
Q 2591 3584 2966 3190 
Q 3341 2797 3341 1997 
z
" transform="scale(0.015625)"/>
      <path id="DejaVuSans-6d" d="M 3328 2828 
Q 3544 3216 3844 3400 
Q 4144 3584 4550 3584 
Q 5097 3584 5394 3201 
Q 5691 2819 5691 2113 
L 5691 0 
L 5113 0 
L 5113 2094 
Q 5113 2597 4934 2840 
Q 4756 3084 4391 3084 
Q 3944 3084 3684 2787 
Q 3425 2491 3425 1978 
L 3425 0 
L 2847 0 
L 2847 2094 
Q 2847 2600 2669 2842 
Q 2491 3084 2119 3084 
Q 1678 3084 1418 2786 
Q 1159 2488 1159 1978 
L 1159 0 
L 581 0 
L 581 3500 
L 1159 3500 
L 1159 2956 
Q 1356 3278 1631 3431 
Q 1906 3584 2284 3584 
Q 2666 3584 2933 3390 
Q 3200 3197 3328 2828 
z
" transform="scale(0.015625)"/>
      <path id="DejaVuSans-62" d="M 3116 1747 
Q 3116 2381 2855 2742 
Q 2594 3103 2138 3103 
Q 1681 3103 1420 2742 
Q 1159 2381 1159 1747 
Q 1159 1113 1420 752 
Q 1681 391 2138 391 
Q 2594 391 2855 752 
Q 3116 1113 3116 1747 
z
M 1159 2969 
Q 1341 3281 1617 3432 
Q 1894 3584 2278 3584 
Q 2916 3584 3314 3078 
Q 3713 2572 3713 1747 
Q 3713 922 3314 415 
Q 2916 -91 2278 -91 
Q 1894 -91 1617 61 
Q 1341 213 1159 525 
L 1159 0 
L 581 0 
L 581 4863 
L 1159 4863 
L 1159 2969 
z
" transform="scale(0.015625)"/>
      <path id="DejaVuSans-69" d="M 603 3500 
L 1178 3500 
L 1178 0 
L 603 0 
L 603 3500 
z
M 603 4863 
L 1178 4863 
L 1178 4134 
L 603 4134 
L 603 4863 
z
" transform="scale(0.015625)"/>
      <path id="DejaVuSans-63" d="M 3122 3366 
L 3122 2828 
Q 2878 2963 2633 3030 
Q 2388 3097 2138 3097 
Q 1578 3097 1268 2742 
Q 959 2388 959 1747 
Q 959 1106 1268 751 
Q 1578 397 2138 397 
Q 2388 397 2633 464 
Q 2878 531 3122 666 
L 3122 134 
Q 2881 22 2623 -34 
Q 2366 -91 2075 -91 
Q 1284 -91 818 406 
Q 353 903 353 1747 
Q 353 2603 823 3093 
Q 1294 3584 2113 3584 
Q 2378 3584 2631 3529 
Q 2884 3475 3122 3366 
z
" transform="scale(0.015625)"/>
     </defs>
     <use xlink:href="#DejaVuSans-49"/>
     <use xlink:href="#DejaVuSans-61" x="29.492188"/>
     <use xlink:href="#DejaVuSans-6d" x="90.771484"/>
     <use xlink:href="#DejaVuSans-62" x="188.183594"/>
     <use xlink:href="#DejaVuSans-69" x="251.660156"/>
     <use xlink:href="#DejaVuSans-63" x="279.443359"/>
    </g>
   </g>
   <g id="text_13">
    <!-- Parse -->
    <g transform="translate(361.832136 156.275747)scale(0.08 -0.08)">
     <defs>
      <path id="DejaVuSans-72" d="M 2631 2963 
Q 2534 3019 2420 3045 
Q 2306 3072 2169 3072 
Q 1681 3072 1420 2755 
Q 1159 2438 1159 1844 
L 1159 0 
L 581 0 
L 581 3500 
L 1159 3500 
L 1159 2956 
Q 1341 3275 1631 3429 
Q 1922 3584 2338 3584 
Q 2397 3584 2469 3576 
Q 2541 3569 2628 3553 
L 2631 2963 
z
" transform="scale(0.015625)"/>
      <path id="DejaVuSans-73" d="M 2834 3397 
L 2834 2853 
Q 2591 2978 2328 3040 
Q 2066 3103 1784 3103 
Q 1356 3103 1142 2972 
Q 928 2841 928 2578 
Q 928 2378 1081 2264 
Q 1234 2150 1697 2047 
L 1894 2003 
Q 2506 1872 2764 1633 
Q 3022 1394 3022 966 
Q 3022 478 2636 193 
Q 2250 -91 1575 -91 
Q 1294 -91 989 -36 
Q 684 19 347 128 
L 347 722 
Q 666 556 975 473 
Q 1284 391 1588 391 
Q 1994 391 2212 530 
Q 2431 669 2431 922 
Q 2431 1156 2273 1281 
Q 2116 1406 1581 1522 
L 1381 1569 
Q 847 1681 609 1914 
Q 372 2147 372 2553 
Q 372 3047 722 3315 
Q 1072 3584 1716 3584 
Q 2034 3584 2315 3537 
Q 2597 3491 2834 3397 
z
" transform="scale(0.015625)"/>
      <path id="DejaVuSans-65" d="M 3597 1894 
L 3597 1613 
L 953 1613 
Q 991 1019 1311 708 
Q 1631 397 2203 397 
Q 2534 397 2845 478 
Q 3156 559 3463 722 
L 3463 178 
Q 3153 47 2828 -22 
Q 2503 -91 2169 -91 
Q 1331 -91 842 396 
Q 353 884 353 1716 
Q 353 2575 817 3079 
Q 1281 3584 2069 3584 
Q 2775 3584 3186 3129 
Q 3597 2675 3597 1894 
z
M 3022 2063 
Q 3016 2534 2758 2815 
Q 2500 3097 2075 3097 
Q 1594 3097 1305 2825 
Q 1016 2553 972 2059 
L 3022 2063 
z
" transform="scale(0.015625)"/>
     </defs>
     <use xlink:href="#DejaVuSans-50"/>
     <use xlink:href="#DejaVuSans-61" x="55.802734"/>
     <use xlink:href="#DejaVuSans-72" x="117.082031"/>
     <use xlink:href="#DejaVuSans-73" x="158.195312"/>
     <use xlink:href="#DejaVuSans-65" x="210.294922"/>
    </g>
   </g>
   <g id="text_14">
    <!-- FootBin -->
    <g transform="translate(361.832136 65.001323)scale(0.08 -0.08)">
     <defs>
      <path id="DejaVuSans-46" d="M 628 4666 
L 3309 4666 
L 3309 4134 
L 1259 4134 
L 1259 2759 
L 3109 2759 
L 3109 2228 
L 1259 2228 
L 1259 0 
L 628 0 
L 628 4666 
z
" transform="scale(0.015625)"/>
      <path id="DejaVuSans-6f" d="M 1959 3097 
Q 1497 3097 1228 2736 
Q 959 2375 959 1747 
Q 959 1119 1226 758 
Q 1494 397 1959 397 
Q 2419 397 2687 759 
Q 2956 1122 2956 1747 
Q 2956 2369 2687 2733 
Q 2419 3097 1959 3097 
z
M 1959 3584 
Q 2709 3584 3137 3096 
Q 3566 2609 3566 1747 
Q 3566 888 3137 398 
Q 2709 -91 1959 -91 
Q 1206 -91 779 398 
Q 353 888 353 1747 
Q 353 2609 779 3096 
Q 1206 3584 1959 3584 
z
" transform="scale(0.015625)"/>
      <path id="DejaVuSans-74" d="M 1172 4494 
L 1172 3500 
L 2356 3500 
L 2356 3053 
L 1172 3053 
L 1172 1153 
Q 1172 725 1289 603 
Q 1406 481 1766 481 
L 2356 481 
L 2356 0 
L 1766 0 
Q 1100 0 847 248 
Q 594 497 594 1153 
L 594 3053 
L 172 3053 
L 172 3500 
L 594 3500 
L 594 4494 
L 1172 4494 
z
" transform="scale(0.015625)"/>
      <path id="DejaVuSans-42" d="M 1259 2228 
L 1259 519 
L 2272 519 
Q 2781 519 3026 730 
Q 3272 941 3272 1375 
Q 3272 1813 3026 2020 
Q 2781 2228 2272 2228 
L 1259 2228 
z
M 1259 4147 
L 1259 2741 
L 2194 2741 
Q 2656 2741 2882 2914 
Q 3109 3088 3109 3444 
Q 3109 3797 2882 3972 
Q 2656 4147 2194 4147 
L 1259 4147 
z
M 628 4666 
L 2241 4666 
Q 2963 4666 3353 4366 
Q 3744 4066 3744 3513 
Q 3744 3084 3544 2831 
Q 3344 2578 2956 2516 
Q 3422 2416 3680 2098 
Q 3938 1781 3938 1306 
Q 3938 681 3513 340 
Q 3088 0 2303 0 
L 628 0 
L 628 4666 
z
" transform="scale(0.015625)"/>
      <path id="DejaVuSans-6e" d="M 3513 2113 
L 3513 0 
L 2938 0 
L 2938 2094 
Q 2938 2591 2744 2837 
Q 2550 3084 2163 3084 
Q 1697 3084 1428 2787 
Q 1159 2491 1159 1978 
L 1159 0 
L 581 0 
L 581 3500 
L 1159 3500 
L 1159 2956 
Q 1366 3272 1645 3428 
Q 1925 3584 2291 3584 
Q 2894 3584 3203 3211 
Q 3513 2838 3513 2113 
z
" transform="scale(0.015625)"/>
     </defs>
     <use xlink:href="#DejaVuSans-46"/>
     <use xlink:href="#DejaVuSans-6f" x="53.894531"/>
     <use xlink:href="#DejaVuSans-6f" x="115.076172"/>
     <use xlink:href="#DejaVuSans-74" x="176.257812"/>
     <use xlink:href="#DejaVuSans-42" x="215.466797"/>
     <use xlink:href="#DejaVuSans-69" x="284.070312"/>
     <use xlink:href="#DejaVuSans-6e" x="311.853516"/>
    </g>
   </g>
   <g id="text_15">
    <!-- WFL -->
    <g transform="translate(361.832136 142.587874)scale(0.08 -0.08)">
     <defs>
      <path id="DejaVuSans-4c" d="M 628 4666 
L 1259 4666 
L 1259 531 
L 3531 531 
L 3531 0 
L 628 0 
L 628 4666 
z
" transform="scale(0.015625)"/>
     </defs>
     <use xlink:href="#DejaVuSans-57"/>
     <use xlink:href="#DejaVuSans-46" x="98.876953"/>
     <use xlink:href="#DejaVuSans-4c" x="156.396484"/>
    </g>
   </g>
   <g id="text_16">
    <!-- WFR -->
    <g transform="translate(361.832136 63.48776)scale(0.08 -0.08)">
     <defs>
      <path id="DejaVuSans-52" d="M 2841 2188 
Q 3044 2119 3236 1894 
Q 3428 1669 3622 1275 
L 4263 0 
L 3584 0 
L 2988 1197 
Q 2756 1666 2539 1819 
Q 2322 1972 1947 1972 
L 1259 1972 
L 1259 0 
L 628 0 
L 628 4666 
L 2053 4666 
Q 2853 4666 3247 4331 
Q 3641 3997 3641 3322 
Q 3641 2881 3436 2590 
Q 3231 2300 2841 2188 
z
M 1259 4147 
L 1259 2491 
L 2053 2491 
Q 2509 2491 2742 2702 
Q 2975 2913 2975 3322 
Q 2975 3731 2742 3939 
Q 2509 4147 2053 4147 
L 1259 4147 
z
" transform="scale(0.015625)"/>
     </defs>
     <use xlink:href="#DejaVuSans-57"/>
     <use xlink:href="#DejaVuSans-46" x="98.876953"/>
     <use xlink:href="#DejaVuSans-52" x="156.396484"/>
    </g>
   </g>
   <g id="text_17">
    <!-- Main-L -->
    <g transform="translate(361.832136 121.858643)scale(0.08 -0.08)">
     <defs>
      <path id="DejaVuSans-4d" d="M 628 4666 
L 1569 4666 
L 2759 1491 
L 3956 4666 
L 4897 4666 
L 4897 0 
L 4281 0 
L 4281 4097 
L 3078 897 
L 2444 897 
L 1241 4097 
L 1241 0 
L 628 0 
L 628 4666 
z
" transform="scale(0.015625)"/>
      <path id="DejaVuSans-2d" d="M 313 2009 
L 1997 2009 
L 1997 1497 
L 313 1497 
L 313 2009 
z
" transform="scale(0.015625)"/>
     </defs>
     <use xlink:href="#DejaVuSans-4d"/>
     <use xlink:href="#DejaVuSans-61" x="86.279297"/>
     <use xlink:href="#DejaVuSans-69" x="147.558594"/>
     <use xlink:href="#DejaVuSans-6e" x="175.341797"/>
     <use xlink:href="#DejaVuSans-2d" x="238.720703"/>
     <use xlink:href="#DejaVuSans-4c" x="274.804688"/>
    </g>
   </g>
   <g id="text_18">
    <!-- Main-R -->
    <g transform="translate(361.832136 59.539335)scale(0.08 -0.08)">
     <use xlink:href="#DejaVuSans-4d"/>
     <use xlink:href="#DejaVuSans-61" x="86.279297"/>
     <use xlink:href="#DejaVuSans-69" x="147.558594"/>
     <use xlink:href="#DejaVuSans-6e" x="175.341797"/>
     <use xlink:href="#DejaVuSans-2d" x="238.720703"/>
     <use xlink:href="#DejaVuSans-52" x="274.804688"/>
    </g>
   </g>
   <g id="text_19">
    <!-- AFL -->
    <g transform="translate(361.832136 130.94002)scale(0.08 -0.08)">
     <defs>
      <path id="DejaVuSans-41" d="M 2188 4044 
L 1331 1722 
L 3047 1722 
L 2188 4044 
z
M 1831 4666 
L 2547 4666 
L 4325 0 
L 3669 0 
L 3244 1197 
L 1141 1197 
L 716 0 
L 50 0 
L 1831 4666 
z
" transform="scale(0.015625)"/>
     </defs>
     <use xlink:href="#DejaVuSans-41"/>
     <use xlink:href="#DejaVuSans-46" x="68.408203"/>
     <use xlink:href="#DejaVuSans-4c" x="125.927734"/>
    </g>
   </g>
   <g id="text_20">
    <!-- AFR -->
    <g transform="translate(361.832136 99.550041)scale(0.08 -0.08)">
     <use xlink:href="#DejaVuSans-41"/>
     <use xlink:href="#DejaVuSans-46" x="68.408203"/>
     <use xlink:href="#DejaVuSans-52" x="125.927734"/>
    </g>
   </g>
   <g id="text_21">
    <!-- Nonfinal -->
    <g transform="translate(361.832136 107.973348)scale(0.08 -0.08)">
     <defs>
      <path id="DejaVuSans-4e" d="M 628 4666 
L 1478 4666 
L 3547 763 
L 3547 4666 
L 4159 4666 
L 4159 0 
L 3309 0 
L 1241 3903 
L 1241 0 
L 628 0 
L 628 4666 
z
" transform="scale(0.015625)"/>
      <path id="DejaVuSans-66" d="M 2375 4863 
L 2375 4384 
L 1825 4384 
Q 1516 4384 1395 4259 
Q 1275 4134 1275 3809 
L 1275 3500 
L 2222 3500 
L 2222 3053 
L 1275 3053 
L 1275 0 
L 697 0 
L 697 3053 
L 147 3053 
L 147 3500 
L 697 3500 
L 697 3744 
Q 697 4328 969 4595 
Q 1241 4863 1831 4863 
L 2375 4863 
z
" transform="scale(0.015625)"/>
      <path id="DejaVuSans-6c" d="M 603 4863 
L 1178 4863 
L 1178 0 
L 603 0 
L 603 4863 
z
" transform="scale(0.015625)"/>
     </defs>
     <use xlink:href="#DejaVuSans-4e"/>
     <use xlink:href="#DejaVuSans-6f" x="74.804688"/>
     <use xlink:href="#DejaVuSans-6e" x="135.986328"/>
     <use xlink:href="#DejaVuSans-66" x="199.365234"/>
     <use xlink:href="#DejaVuSans-69" x="234.570312"/>
     <use xlink:href="#DejaVuSans-6e" x="262.353516"/>
     <use xlink:href="#DejaVuSans-61" x="325.732422"/>
     <use xlink:href="#DejaVuSans-6c" x="387.011719"/>
    </g>
   </g>
   <g id="text_22">
    <!-- Trochaic -->
    <g transform="translate(361.832136 156.933818)scale(0.08 -0.08)">
     <defs>
      <path id="DejaVuSans-54" d="M -19 4666 
L 3928 4666 
L 3928 4134 
L 2272 4134 
L 2272 0 
L 1638 0 
L 1638 4134 
L -19 4134 
L -19 4666 
z
" transform="scale(0.015625)"/>
      <path id="DejaVuSans-68" d="M 3513 2113 
L 3513 0 
L 2938 0 
L 2938 2094 
Q 2938 2591 2744 2837 
Q 2550 3084 2163 3084 
Q 1697 3084 1428 2787 
Q 1159 2491 1159 1978 
L 1159 0 
L 581 0 
L 581 4863 
L 1159 4863 
L 1159 2956 
Q 1366 3272 1645 3428 
Q 1925 3584 2291 3584 
Q 2894 3584 3203 3211 
Q 3513 2838 3513 2113 
z
" transform="scale(0.015625)"/>
     </defs>
     <use xlink:href="#DejaVuSans-54"/>
     <use xlink:href="#DejaVuSans-72" x="46.333984"/>
     <use xlink:href="#DejaVuSans-6f" x="85.197266"/>
     <use xlink:href="#DejaVuSans-63" x="146.378906"/>
     <use xlink:href="#DejaVuSans-68" x="201.359375"/>
     <use xlink:href="#DejaVuSans-61" x="264.738281"/>
     <use xlink:href="#DejaVuSans-69" x="326.017578"/>
     <use xlink:href="#DejaVuSans-63" x="353.800781"/>
    </g>
   </g>
  </g>
  <g id="axes_2">
   <g id="patch_7">
    <path d="M 57.6 307.584 
L 414.72 307.584 
L 414.72 186.624 
L 57.6 186.624 
z
" style="fill: #ffffff"/>
   </g>
   <g id="matplotlib.axis_3">
    <g id="xtick_8">
     <g id="line2d_23">
      <g>
       <use xlink:href="#m7d1324f067" x="69.723176" y="307.584" style="stroke: #000000; stroke-width: 0.8"/>
      </g>
     </g>
     <g id="text_23">
      <!-- 0 -->
      <g transform="translate(66.541926 322.182437)scale(0.1 -0.1)">
       <use xlink:href="#DejaVuSans-30"/>
      </g>
     </g>
    </g>
    <g id="xtick_9">
     <g id="line2d_24">
      <g>
       <use xlink:href="#m7d1324f067" x="110.818688" y="307.584" style="stroke: #000000; stroke-width: 0.8"/>
      </g>
     </g>
     <g id="text_24">
      <!-- 10 -->
      <g transform="translate(104.456188 322.182437)scale(0.1 -0.1)">
       <use xlink:href="#DejaVuSans-31"/>
       <use xlink:href="#DejaVuSans-30" x="63.623047"/>
      </g>
     </g>
    </g>
    <g id="xtick_10">
     <g id="line2d_25">
      <g>
       <use xlink:href="#m7d1324f067" x="151.9142" y="307.584" style="stroke: #000000; stroke-width: 0.8"/>
      </g>
     </g>
     <g id="text_25">
      <!-- 20 -->
      <g transform="translate(145.5517 322.182437)scale(0.1 -0.1)">
       <use xlink:href="#DejaVuSans-32"/>
       <use xlink:href="#DejaVuSans-30" x="63.623047"/>
      </g>
     </g>
    </g>
    <g id="xtick_11">
     <g id="line2d_26">
      <g>
       <use xlink:href="#m7d1324f067" x="193.009712" y="307.584" style="stroke: #000000; stroke-width: 0.8"/>
      </g>
     </g>
     <g id="text_26">
      <!-- 30 -->
      <g transform="translate(186.647212 322.182437)scale(0.1 -0.1)">
       <use xlink:href="#DejaVuSans-33"/>
       <use xlink:href="#DejaVuSans-30" x="63.623047"/>
      </g>
     </g>
    </g>
    <g id="xtick_12">
     <g id="line2d_27">
      <g>
       <use xlink:href="#m7d1324f067" x="234.105224" y="307.584" style="stroke: #000000; stroke-width: 0.8"/>
      </g>
     </g>
     <g id="text_27">
      <!-- 40 -->
      <g transform="translate(227.742724 322.182437)scale(0.1 -0.1)">
       <use xlink:href="#DejaVuSans-34"/>
       <use xlink:href="#DejaVuSans-30" x="63.623047"/>
      </g>
     </g>
    </g>
    <g id="xtick_13">
     <g id="line2d_28">
      <g>
       <use xlink:href="#m7d1324f067" x="275.200736" y="307.584" style="stroke: #000000; stroke-width: 0.8"/>
      </g>
     </g>
     <g id="text_28">
      <!-- 50 -->
      <g transform="translate(268.838236 322.182437)scale(0.1 -0.1)">
       <use xlink:href="#DejaVuSans-35"/>
       <use xlink:href="#DejaVuSans-30" x="63.623047"/>
      </g>
     </g>
    </g>
    <g id="xtick_14">
     <g id="line2d_29">
      <g>
       <use xlink:href="#m7d1324f067" x="316.296249" y="307.584" style="stroke: #000000; stroke-width: 0.8"/>
      </g>
     </g>
     <g id="text_29">
      <!-- 60 -->
      <g transform="translate(309.933749 322.182437)scale(0.1 -0.1)">
       <use xlink:href="#DejaVuSans-36"/>
       <use xlink:href="#DejaVuSans-30" x="63.623047"/>
      </g>
     </g>
    </g>
    <g id="xtick_15">
     <g id="line2d_30">
      <g>
       <use xlink:href="#m7d1324f067" x="357.391761" y="307.584" style="stroke: #000000; stroke-width: 0.8"/>
      </g>
     </g>
     <g id="text_30">
      <!-- 70 -->
      <g transform="translate(351.029261 322.182437)scale(0.1 -0.1)">
       <defs>
        <path id="DejaVuSans-37" d="M 525 4666 
L 3525 4666 
L 3525 4397 
L 1831 0 
L 1172 0 
L 2766 4134 
L 525 4134 
L 525 4666 
z
" transform="scale(0.015625)"/>
       </defs>
       <use xlink:href="#DejaVuSans-37"/>
       <use xlink:href="#DejaVuSans-30" x="63.623047"/>
      </g>
     </g>
    </g>
    <g id="xtick_16">
     <g id="line2d_31">
      <g>
       <use xlink:href="#m7d1324f067" x="398.487273" y="307.584" style="stroke: #000000; stroke-width: 0.8"/>
      </g>
     </g>
     <g id="text_31">
      <!-- 80 -->
      <g transform="translate(392.124773 322.182437)scale(0.1 -0.1)">
       <use xlink:href="#DejaVuSans-38"/>
       <use xlink:href="#DejaVuSans-30" x="63.623047"/>
      </g>
     </g>
    </g>
   </g>
   <g id="matplotlib.axis_4">
    <g id="ytick_4">
     <g id="line2d_32">
      <g>
       <use xlink:href="#m65b9344cd9" x="57.6" y="302.098272" style="stroke: #000000; stroke-width: 0.8"/>
      </g>
     </g>
     <g id="text_32">
      <!-- 0 -->
      <g transform="translate(44.2375 305.89749)scale(0.1 -0.1)">
       <use xlink:href="#DejaVuSans-30"/>
      </g>
     </g>
    </g>
    <g id="ytick_5">
     <g id="line2d_33">
      <g>
       <use xlink:href="#m65b9344cd9" x="57.6" y="277.191446" style="stroke: #000000; stroke-width: 0.8"/>
      </g>
     </g>
     <g id="text_33">
      <!-- 2000 -->
      <g transform="translate(25.15 280.990664)scale(0.1 -0.1)">
       <use xlink:href="#DejaVuSans-32"/>
       <use xlink:href="#DejaVuSans-30" x="63.623047"/>
       <use xlink:href="#DejaVuSans-30" x="127.246094"/>
       <use xlink:href="#DejaVuSans-30" x="190.869141"/>
      </g>
     </g>
    </g>
    <g id="ytick_6">
     <g id="line2d_34">
      <g>
       <use xlink:href="#m65b9344cd9" x="57.6" y="252.28462" style="stroke: #000000; stroke-width: 0.8"/>
      </g>
     </g>
     <g id="text_34">
      <!-- 4000 -->
      <g transform="translate(25.15 256.083839)scale(0.1 -0.1)">
       <use xlink:href="#DejaVuSans-34"/>
       <use xlink:href="#DejaVuSans-30" x="63.623047"/>
       <use xlink:href="#DejaVuSans-30" x="127.246094"/>
       <use xlink:href="#DejaVuSans-30" x="190.869141"/>
      </g>
     </g>
    </g>
    <g id="ytick_7">
     <g id="line2d_35">
      <g>
       <use xlink:href="#m65b9344cd9" x="57.6" y="227.377794" style="stroke: #000000; stroke-width: 0.8"/>
      </g>
     </g>
     <g id="text_35">
      <!-- 6000 -->
      <g transform="translate(25.15 231.177013)scale(0.1 -0.1)">
       <use xlink:href="#DejaVuSans-36"/>
       <use xlink:href="#DejaVuSans-30" x="63.623047"/>
       <use xlink:href="#DejaVuSans-30" x="127.246094"/>
       <use xlink:href="#DejaVuSans-30" x="190.869141"/>
      </g>
     </g>
    </g>
    <g id="ytick_8">
     <g id="line2d_36">
      <g>
       <use xlink:href="#m65b9344cd9" x="57.6" y="202.470968" style="stroke: #000000; stroke-width: 0.8"/>
      </g>
     </g>
     <g id="text_36">
      <!-- 8000 -->
      <g transform="translate(25.15 206.270187)scale(0.1 -0.1)">
       <use xlink:href="#DejaVuSans-38"/>
       <use xlink:href="#DejaVuSans-30" x="63.623047"/>
       <use xlink:href="#DejaVuSans-30" x="127.246094"/>
       <use xlink:href="#DejaVuSans-30" x="190.869141"/>
      </g>
     </g>
    </g>
   </g>
   <g id="line2d_37">
    <path d="M 73.832727 302.073365 
L 77.942278 302.085818 
L 82.05183 302.073365 
L 86.161381 302.060911 
L 90.270932 302.085818 
L 94.380483 302.085818 
L 98.490035 302.085818 
L 102.599586 302.060911 
L 106.709137 302.048458 
L 110.818688 302.085818 
L 114.928239 302.085818 
L 119.037791 302.036005 
L 123.147342 302.085818 
L 127.256893 302.073365 
L 131.366444 302.023551 
L 135.475995 302.085818 
L 139.585547 302.085818 
L 143.695098 302.085818 
L 147.804649 302.048458 
L 151.9142 302.073365 
L 156.023751 302.060911 
L 160.133303 302.085818 
L 164.242854 302.085818 
L 168.352405 302.060911 
L 172.461956 302.073365 
L 176.571507 302.073365 
L 180.681059 301.998644 
L 184.79061 302.085818 
L 188.900161 301.973737 
L 193.009712 301.948831 
L 197.119264 301.986191 
L 201.228815 301.961284 
L 205.338366 302.023551 
L 209.447917 302.036005 
L 213.557468 301.263893 
L 217.66702 301.936377 
L 221.776571 301.998644 
L 225.886122 302.073365 
L 229.995673 301.811843 
L 234.105224 301.824297 
L 238.214776 301.762029 
L 242.324327 301.114452 
L 246.433878 300.417061 
L 250.543429 302.023551 
L 254.65298 302.036005 
L 258.762532 301.32616 
L 262.872083 299.346067 
L 266.981634 300.404607 
L 271.091185 302.048458 
L 275.200736 301.052185 
L 279.310288 301.948831 
L 283.419839 301.923924 
L 287.52939 301.737123 
L 291.638941 301.550321 
L 295.748493 295.261348 
L 299.858044 284.588773 
L 303.967595 300.77821 
L 308.077146 301.301253 
L 312.186697 301.027278 
L 316.296249 295.747031 
L 320.4058 292.247622 
L 324.515351 300.167993 
L 328.624902 294.514143 
L 332.734453 297.876565 
L 336.844005 289.844113 
L 340.953556 299.520415 
L 345.063107 285.846568 
L 349.172658 275.983465 
L 353.282209 281.674674 
L 357.391761 299.819297 
L 361.501312 241.910927 
L 365.610863 297.415788 
L 369.720414 227.502328 
L 373.829965 222.471149 
L 377.939517 262.608499 
L 382.049068 233.953196 
L 386.158619 295.971192 
L 390.26817 266.792846 
L 394.377722 192.122182 
L 398.487273 280.541414 
" clip-path="url(#pc6a573f4b6)" style="fill: none; stroke: #1f77b4; stroke-width: 1.5; stroke-linecap: square"/>
   </g>
   <g id="patch_8">
    <path d="M 57.6 307.584 
L 57.6 186.624 
" style="fill: none; stroke: #000000; stroke-width: 0.8; stroke-linejoin: miter; stroke-linecap: square"/>
   </g>
   <g id="patch_9">
    <path d="M 414.72 307.584 
L 414.72 186.624 
" style="fill: none; stroke: #000000; stroke-width: 0.8; stroke-linejoin: miter; stroke-linecap: square"/>
   </g>
   <g id="patch_10">
    <path d="M 57.6 307.584 
L 414.72 307.584 
" style="fill: none; stroke: #000000; stroke-width: 0.8; stroke-linejoin: miter; stroke-linecap: square"/>
   </g>
   <g id="patch_11">
    <path d="M 57.6 186.624 
L 414.72 186.624 
" style="fill: none; stroke: #000000; stroke-width: 0.8; stroke-linejoin: miter; stroke-linecap: square"/>
   </g>
  </g>
 </g>
 <defs>
  <clipPath id="p71ca7ca3fd">
   <rect x="57.6" y="41.472" width="357.12" height="120.96"/>
  </clipPath>
  <clipPath id="pc6a573f4b6">
   <rect x="57.6" y="186.624" width="357.12" height="120.96"/>
  </clipPath>
 </defs>
</svg>
