<?xml version="1.0" encoding="utf-8" standalone="no"?>
<!DOCTYPE svg PUBLIC "-//W3C//DTD SVG 1.1//EN"
  "http://www.w3.org/Graphics/SVG/1.1/DTD/svg11.dtd">
<svg xmlns:xlink="http://www.w3.org/1999/xlink" width="460.8pt" height="345.6pt" viewBox="0 0 460.8 345.6" xmlns="http://www.w3.org/2000/svg" version="1.1">
 <metadata>
  <rdf:RDF xmlns:dc="http://purl.org/dc/elements/1.1/" xmlns:cc="http://creativecommons.org/ns#" xmlns:rdf="http://www.w3.org/1999/02/22-rdf-syntax-ns#">
   <cc:Work>
    <dc:type rdf:resource="http://purl.org/dc/dcmitype/StillImage"/>
    <dc:date>2022-05-13T15:43:47.431909</dc:date>
    <dc:format>image/svg+xml</dc:format>
    <dc:creator>
     <cc:Agent>
      <dc:title>Matplotlib v3.5.1, https://matplotlib.org/</dc:title>
     </cc:Agent>
    </dc:creator>
   </cc:Work>
  </rdf:RDF>
 </metadata>
 <defs>
  <style type="text/css">*{stroke-linejoin: round; stroke-linecap: butt}</style>
 </defs>
 <g id="figure_1">
  <g id="patch_1">
   <path d="M 0 345.6 
L 460.8 345.6 
L 460.8 0 
L 0 0 
z
" style="fill: #ffffff"/>
  </g>
  <g id="axes_1">
   <g id="patch_2">
    <path d="M 57.6 162.432 
L 414.72 162.432 
L 414.72 41.472 
L 57.6 41.472 
z
" style="fill: #ffffff"/>
   </g>
   <g id="matplotlib.axis_1">
    <g id="xtick_1">
     <g id="line2d_1">
      <defs>
       <path id="m5c6716ec60" d="M 0 0 
L 0 3.5 
" style="stroke: #000000; stroke-width: 0.8"/>
      </defs>
      <g>
       <use xlink:href="#m5c6716ec60" x="73.827491" y="162.432" style="stroke: #000000; stroke-width: 0.8"/>
      </g>
     </g>
     <g id="text_1">
      <!-- 0 -->
      <g transform="translate(70.646241 177.030437)scale(0.1 -0.1)">
       <defs>
        <path id="DejaVuSans-30" d="M 2034 4250 
Q 1547 4250 1301 3770 
Q 1056 3291 1056 2328 
Q 1056 1369 1301 889 
Q 1547 409 2034 409 
Q 2525 409 2770 889 
Q 3016 1369 3016 2328 
Q 3016 3291 2770 3770 
Q 2525 4250 2034 4250 
z
M 2034 4750 
Q 2819 4750 3233 4129 
Q 3647 3509 3647 2328 
Q 3647 1150 3233 529 
Q 2819 -91 2034 -91 
Q 1250 -91 836 529 
Q 422 1150 422 2328 
Q 422 3509 836 4129 
Q 1250 4750 2034 4750 
z
" transform="scale(0.015625)"/>
       </defs>
       <use xlink:href="#DejaVuSans-30"/>
      </g>
     </g>
    </g>
    <g id="xtick_2">
     <g id="line2d_2">
      <g>
       <use xlink:href="#m5c6716ec60" x="126.191972" y="162.432" style="stroke: #000000; stroke-width: 0.8"/>
      </g>
     </g>
     <g id="text_2">
      <!-- 10000 -->
      <g transform="translate(110.285722 177.030437)scale(0.1 -0.1)">
       <defs>
        <path id="DejaVuSans-31" d="M 794 531 
L 1825 531 
L 1825 4091 
L 703 3866 
L 703 4441 
L 1819 4666 
L 2450 4666 
L 2450 531 
L 3481 531 
L 3481 0 
L 794 0 
L 794 531 
z
" transform="scale(0.015625)"/>
       </defs>
       <use xlink:href="#DejaVuSans-31"/>
       <use xlink:href="#DejaVuSans-30" x="63.623047"/>
       <use xlink:href="#DejaVuSans-30" x="127.246094"/>
       <use xlink:href="#DejaVuSans-30" x="190.869141"/>
       <use xlink:href="#DejaVuSans-30" x="254.492188"/>
      </g>
     </g>
    </g>
    <g id="xtick_3">
     <g id="line2d_3">
      <g>
       <use xlink:href="#m5c6716ec60" x="178.556453" y="162.432" style="stroke: #000000; stroke-width: 0.8"/>
      </g>
     </g>
     <g id="text_3">
      <!-- 20000 -->
      <g transform="translate(162.650203 177.030437)scale(0.1 -0.1)">
       <defs>
        <path id="DejaVuSans-32" d="M 1228 531 
L 3431 531 
L 3431 0 
L 469 0 
L 469 531 
Q 828 903 1448 1529 
Q 2069 2156 2228 2338 
Q 2531 2678 2651 2914 
Q 2772 3150 2772 3378 
Q 2772 3750 2511 3984 
Q 2250 4219 1831 4219 
Q 1534 4219 1204 4116 
Q 875 4013 500 3803 
L 500 4441 
Q 881 4594 1212 4672 
Q 1544 4750 1819 4750 
Q 2544 4750 2975 4387 
Q 3406 4025 3406 3419 
Q 3406 3131 3298 2873 
Q 3191 2616 2906 2266 
Q 2828 2175 2409 1742 
Q 1991 1309 1228 531 
z
" transform="scale(0.015625)"/>
       </defs>
       <use xlink:href="#DejaVuSans-32"/>
       <use xlink:href="#DejaVuSans-30" x="63.623047"/>
       <use xlink:href="#DejaVuSans-30" x="127.246094"/>
       <use xlink:href="#DejaVuSans-30" x="190.869141"/>
       <use xlink:href="#DejaVuSans-30" x="254.492188"/>
      </g>
     </g>
    </g>
    <g id="xtick_4">
     <g id="line2d_4">
      <g>
       <use xlink:href="#m5c6716ec60" x="230.920934" y="162.432" style="stroke: #000000; stroke-width: 0.8"/>
      </g>
     </g>
     <g id="text_4">
      <!-- 30000 -->
      <g transform="translate(215.014684 177.030437)scale(0.1 -0.1)">
       <defs>
        <path id="DejaVuSans-33" d="M 2597 2516 
Q 3050 2419 3304 2112 
Q 3559 1806 3559 1356 
Q 3559 666 3084 287 
Q 2609 -91 1734 -91 
Q 1441 -91 1130 -33 
Q 819 25 488 141 
L 488 750 
Q 750 597 1062 519 
Q 1375 441 1716 441 
Q 2309 441 2620 675 
Q 2931 909 2931 1356 
Q 2931 1769 2642 2001 
Q 2353 2234 1838 2234 
L 1294 2234 
L 1294 2753 
L 1863 2753 
Q 2328 2753 2575 2939 
Q 2822 3125 2822 3475 
Q 2822 3834 2567 4026 
Q 2313 4219 1838 4219 
Q 1578 4219 1281 4162 
Q 984 4106 628 3988 
L 628 4550 
Q 988 4650 1302 4700 
Q 1616 4750 1894 4750 
Q 2613 4750 3031 4423 
Q 3450 4097 3450 3541 
Q 3450 3153 3228 2886 
Q 3006 2619 2597 2516 
z
" transform="scale(0.015625)"/>
       </defs>
       <use xlink:href="#DejaVuSans-33"/>
       <use xlink:href="#DejaVuSans-30" x="63.623047"/>
       <use xlink:href="#DejaVuSans-30" x="127.246094"/>
       <use xlink:href="#DejaVuSans-30" x="190.869141"/>
       <use xlink:href="#DejaVuSans-30" x="254.492188"/>
      </g>
     </g>
    </g>
    <g id="xtick_5">
     <g id="line2d_5">
      <g>
       <use xlink:href="#m5c6716ec60" x="283.285415" y="162.432" style="stroke: #000000; stroke-width: 0.8"/>
      </g>
     </g>
     <g id="text_5">
      <!-- 40000 -->
      <g transform="translate(267.379165 177.030437)scale(0.1 -0.1)">
       <defs>
        <path id="DejaVuSans-34" d="M 2419 4116 
L 825 1625 
L 2419 1625 
L 2419 4116 
z
M 2253 4666 
L 3047 4666 
L 3047 1625 
L 3713 1625 
L 3713 1100 
L 3047 1100 
L 3047 0 
L 2419 0 
L 2419 1100 
L 313 1100 
L 313 1709 
L 2253 4666 
z
" transform="scale(0.015625)"/>
       </defs>
       <use xlink:href="#DejaVuSans-34"/>
       <use xlink:href="#DejaVuSans-30" x="63.623047"/>
       <use xlink:href="#DejaVuSans-30" x="127.246094"/>
       <use xlink:href="#DejaVuSans-30" x="190.869141"/>
       <use xlink:href="#DejaVuSans-30" x="254.492188"/>
      </g>
     </g>
    </g>
    <g id="xtick_6">
     <g id="line2d_6">
      <g>
       <use xlink:href="#m5c6716ec60" x="335.649896" y="162.432" style="stroke: #000000; stroke-width: 0.8"/>
      </g>
     </g>
     <g id="text_6">
      <!-- 50000 -->
      <g transform="translate(319.743646 177.030437)scale(0.1 -0.1)">
       <defs>
        <path id="DejaVuSans-35" d="M 691 4666 
L 3169 4666 
L 3169 4134 
L 1269 4134 
L 1269 2991 
Q 1406 3038 1543 3061 
Q 1681 3084 1819 3084 
Q 2600 3084 3056 2656 
Q 3513 2228 3513 1497 
Q 3513 744 3044 326 
Q 2575 -91 1722 -91 
Q 1428 -91 1123 -41 
Q 819 9 494 109 
L 494 744 
Q 775 591 1075 516 
Q 1375 441 1709 441 
Q 2250 441 2565 725 
Q 2881 1009 2881 1497 
Q 2881 1984 2565 2268 
Q 2250 2553 1709 2553 
Q 1456 2553 1204 2497 
Q 953 2441 691 2322 
L 691 4666 
z
" transform="scale(0.015625)"/>
       </defs>
       <use xlink:href="#DejaVuSans-35"/>
       <use xlink:href="#DejaVuSans-30" x="63.623047"/>
       <use xlink:href="#DejaVuSans-30" x="127.246094"/>
       <use xlink:href="#DejaVuSans-30" x="190.869141"/>
       <use xlink:href="#DejaVuSans-30" x="254.492188"/>
      </g>
     </g>
    </g>
    <g id="xtick_7">
     <g id="line2d_7">
      <g>
       <use xlink:href="#m5c6716ec60" x="388.014377" y="162.432" style="stroke: #000000; stroke-width: 0.8"/>
      </g>
     </g>
     <g id="text_7">
      <!-- 60000 -->
      <g transform="translate(372.108127 177.030437)scale(0.1 -0.1)">
       <defs>
        <path id="DejaVuSans-36" d="M 2113 2584 
Q 1688 2584 1439 2293 
Q 1191 2003 1191 1497 
Q 1191 994 1439 701 
Q 1688 409 2113 409 
Q 2538 409 2786 701 
Q 3034 994 3034 1497 
Q 3034 2003 2786 2293 
Q 2538 2584 2113 2584 
z
M 3366 4563 
L 3366 3988 
Q 3128 4100 2886 4159 
Q 2644 4219 2406 4219 
Q 1781 4219 1451 3797 
Q 1122 3375 1075 2522 
Q 1259 2794 1537 2939 
Q 1816 3084 2150 3084 
Q 2853 3084 3261 2657 
Q 3669 2231 3669 1497 
Q 3669 778 3244 343 
Q 2819 -91 2113 -91 
Q 1303 -91 875 529 
Q 447 1150 447 2328 
Q 447 3434 972 4092 
Q 1497 4750 2381 4750 
Q 2619 4750 2861 4703 
Q 3103 4656 3366 4563 
z
" transform="scale(0.015625)"/>
       </defs>
       <use xlink:href="#DejaVuSans-36"/>
       <use xlink:href="#DejaVuSans-30" x="63.623047"/>
       <use xlink:href="#DejaVuSans-30" x="127.246094"/>
       <use xlink:href="#DejaVuSans-30" x="190.869141"/>
       <use xlink:href="#DejaVuSans-30" x="254.492188"/>
      </g>
     </g>
    </g>
   </g>
   <g id="matplotlib.axis_2">
    <g id="ytick_1">
     <g id="line2d_8">
      <defs>
       <path id="mb472cf7b78" d="M 0 0 
L -3.5 0 
" style="stroke: #000000; stroke-width: 0.8"/>
      </defs>
      <g>
       <use xlink:href="#mb472cf7b78" x="57.6" y="132.648763" style="stroke: #000000; stroke-width: 0.8"/>
      </g>
     </g>
     <g id="text_8">
      <!-- 80 -->
      <g transform="translate(37.875 136.447982)scale(0.1 -0.1)">
       <defs>
        <path id="DejaVuSans-38" d="M 2034 2216 
Q 1584 2216 1326 1975 
Q 1069 1734 1069 1313 
Q 1069 891 1326 650 
Q 1584 409 2034 409 
Q 2484 409 2743 651 
Q 3003 894 3003 1313 
Q 3003 1734 2745 1975 
Q 2488 2216 2034 2216 
z
M 1403 2484 
Q 997 2584 770 2862 
Q 544 3141 544 3541 
Q 544 4100 942 4425 
Q 1341 4750 2034 4750 
Q 2731 4750 3128 4425 
Q 3525 4100 3525 3541 
Q 3525 3141 3298 2862 
Q 3072 2584 2669 2484 
Q 3125 2378 3379 2068 
Q 3634 1759 3634 1313 
Q 3634 634 3220 271 
Q 2806 -91 2034 -91 
Q 1263 -91 848 271 
Q 434 634 434 1313 
Q 434 1759 690 2068 
Q 947 2378 1403 2484 
z
M 1172 3481 
Q 1172 3119 1398 2916 
Q 1625 2713 2034 2713 
Q 2441 2713 2670 2916 
Q 2900 3119 2900 3481 
Q 2900 3844 2670 4047 
Q 2441 4250 2034 4250 
Q 1625 4250 1398 4047 
Q 1172 3844 1172 3481 
z
" transform="scale(0.015625)"/>
       </defs>
       <use xlink:href="#DejaVuSans-38"/>
       <use xlink:href="#DejaVuSans-30" x="63.623047"/>
      </g>
     </g>
    </g>
    <g id="ytick_2">
     <g id="line2d_9">
      <g>
       <use xlink:href="#mb472cf7b78" x="57.6" y="98.604294" style="stroke: #000000; stroke-width: 0.8"/>
      </g>
     </g>
     <g id="text_9">
      <!-- 90 -->
      <g transform="translate(37.875 102.403513)scale(0.1 -0.1)">
       <defs>
        <path id="DejaVuSans-39" d="M 703 97 
L 703 672 
Q 941 559 1184 500 
Q 1428 441 1663 441 
Q 2288 441 2617 861 
Q 2947 1281 2994 2138 
Q 2813 1869 2534 1725 
Q 2256 1581 1919 1581 
Q 1219 1581 811 2004 
Q 403 2428 403 3163 
Q 403 3881 828 4315 
Q 1253 4750 1959 4750 
Q 2769 4750 3195 4129 
Q 3622 3509 3622 2328 
Q 3622 1225 3098 567 
Q 2575 -91 1691 -91 
Q 1453 -91 1209 -44 
Q 966 3 703 97 
z
M 1959 2075 
Q 2384 2075 2632 2365 
Q 2881 2656 2881 3163 
Q 2881 3666 2632 3958 
Q 2384 4250 1959 4250 
Q 1534 4250 1286 3958 
Q 1038 3666 1038 3163 
Q 1038 2656 1286 2365 
Q 1534 2075 1959 2075 
z
" transform="scale(0.015625)"/>
       </defs>
       <use xlink:href="#DejaVuSans-39"/>
       <use xlink:href="#DejaVuSans-30" x="63.623047"/>
      </g>
     </g>
    </g>
    <g id="ytick_3">
     <g id="line2d_10">
      <g>
       <use xlink:href="#mb472cf7b78" x="57.6" y="64.559824" style="stroke: #000000; stroke-width: 0.8"/>
      </g>
     </g>
     <g id="text_10">
      <!-- 100 -->
      <g transform="translate(31.5125 68.359043)scale(0.1 -0.1)">
       <use xlink:href="#DejaVuSans-31"/>
       <use xlink:href="#DejaVuSans-30" x="63.623047"/>
       <use xlink:href="#DejaVuSans-30" x="127.246094"/>
      </g>
     </g>
    </g>
   </g>
   <g id="line2d_11">
    <path d="M 73.832727 63.708713 
L 73.974111 58.318338 
L 74.00553 58.318338 
L 74.125968 56.332411 
L 74.173096 56.332411 
L 74.288298 55.197595 
L 74.749106 55.197595 
L 74.864308 52.360556 
L 76.058218 52.360556 
L 76.17342 51.225741 
L 78.493166 51.225741 
L 78.608368 50.374629 
L 81.640271 50.374629 
L 81.755473 49.239813 
L 87.201379 49.239813 
L 87.316581 48.104997 
L 96.234252 48.104997 
L 96.349454 46.970182 
L 398.487273 46.970182 
L 398.487273 46.970182 
" clip-path="url(#p3348a788fc)" style="fill: none; stroke: #1f77b4; stroke-width: 1.5; stroke-linecap: square"/>
   </g>
   <g id="line2d_12">
    <path d="M 73.832727 64.559824 
L 73.895565 70.517607 
L 73.937456 62.176712 
L 74.063131 71.709163 
L 74.105023 71.709163 
L 74.178333 78.518057 
L 74.214988 74.262498 
L 74.340663 74.262498 
L 74.461101 81.071392 
L 74.534411 81.071392 
L 74.618194 87.880286 
L 74.649613 84.475839 
L 74.670559 84.475839 
L 74.806707 80.22028 
L 75.068529 80.22028 
L 75.183731 83.624727 
L 75.550282 83.624727 
L 75.665484 87.029174 
L 76.058218 87.029174 
L 76.073927 90.433621 
L 76.168183 87.029174 
L 76.414296 87.029174 
L 76.529498 83.624727 
L 76.786084 83.624727 
L 76.827976 80.22028 
L 76.896049 83.624727 
L 77.346384 83.624727 
L 77.461586 80.22028 
L 78.116142 80.22028 
L 78.23658 86.348285 
L 78.493166 86.348285 
L 78.608368 89.752732 
L 79.294343 89.752732 
L 79.409544 86.348285 
L 80.446361 86.348285 
L 80.561563 82.943838 
L 81.242301 82.943838 
L 81.357503 86.348285 
L 81.640271 86.348285 
L 81.755473 89.752732 
L 92.265025 89.752732 
L 92.380226 86.348285 
L 99.302811 86.348285 
L 99.418013 89.752732 
L 99.449431 89.752732 
L 99.564633 86.348285 
L 108.50325 86.348285 
L 108.618452 89.752732 
L 118.269226 89.752732 
L 118.384428 93.157179 
L 123.076285 93.157179 
L 123.191487 89.752732 
L 123.495201 89.752732 
L 123.610403 86.348285 
L 123.751787 86.348285 
L 123.866989 85.497173 
L 132.266252 85.497173 
L 132.381453 88.90162 
L 153.290591 88.90162 
L 153.405793 88.050508 
L 155.5475 88.050508 
L 155.662702 91.454955 
L 224.118788 91.454955 
L 224.233989 94.859402 
L 235.885086 94.859402 
L 236.000288 91.454955 
L 259.742344 91.454955 
L 259.857546 90.603844 
L 264.397546 90.603844 
L 264.512748 94.00829 
L 286.27019 94.00829 
L 286.385392 93.157179 
L 307.765809 93.157179 
L 307.881011 96.561626 
L 398.487273 96.561626 
L 398.487273 96.561626 
" clip-path="url(#p3348a788fc)" style="fill: none; stroke: #ff7f0e; stroke-width: 1.5; stroke-linecap: square"/>
   </g>
   <g id="line2d_13">
    <path d="M 73.832727 63.708713 
L 73.837964 62.857601 
L 73.885092 71.368718 
L 73.890328 71.368718 
L 74.00553 92.646512 
L 74.031712 91.7954 
L 74.036949 91.7954 
L 74.157387 100.873925 
L 74.173096 100.873925 
L 74.24117 98.887998 
L 74.246407 102.292445 
L 74.272589 102.292445 
L 74.31448 102.292445 
L 74.429682 105.696892 
L 74.749106 105.696892 
L 74.864308 102.859853 
L 75.550282 102.859853 
L 75.665484 106.264299 
L 76.058218 106.264299 
L 76.17342 105.129484 
L 76.231021 105.129484 
L 76.346222 108.533931 
L 76.403823 108.533931 
L 76.519025 111.938378 
L 77.875265 111.938378 
L 77.990467 115.342825 
L 78.116142 115.342825 
L 78.23658 121.470829 
L 78.493166 121.470829 
L 78.503639 120.619717 
L 78.508875 124.024164 
L 78.587422 124.024164 
L 81.640271 124.024164 
L 81.755473 122.889349 
L 87.201379 122.889349 
L 87.316581 121.754533 
L 87.552221 121.754533 
L 87.667423 125.15898 
L 89.82484 125.15898 
L 89.940042 128.563427 
L 93.458935 128.563427 
L 93.574137 131.967874 
L 94.082072 131.967874 
L 94.197274 135.372321 
L 96.234252 135.372321 
L 96.349454 134.237505 
L 100.99942 134.237505 
L 101.114622 133.10269 
L 108.50325 133.10269 
L 108.618452 136.507137 
L 118.269226 136.507137 
L 118.384428 139.911583 
L 123.751787 139.911583 
L 123.866989 139.060472 
L 132.266252 139.060472 
L 132.381453 142.464919 
L 153.290591 142.464919 
L 153.405793 141.613807 
L 171.932346 141.613807 
L 172.047548 145.018254 
L 224.118788 145.018254 
L 224.233989 148.422701 
L 259.742344 148.422701 
L 259.857546 147.571589 
L 267.607489 147.571589 
L 267.722691 150.976036 
L 273.084814 150.976036 
L 273.200016 154.380483 
L 286.27019 154.380483 
L 286.385392 153.529371 
L 307.765809 153.529371 
L 307.881011 156.933818 
L 398.487273 156.933818 
L 398.487273 156.933818 
" clip-path="url(#p3348a788fc)" style="fill: none; stroke: #2ca02c; stroke-width: 1.5; stroke-linecap: square"/>
   </g>
   <g id="line2d_14">
    <path d="M 73.832727 64.559824 
L 73.837964 64.559824 
L 73.900801 63.027823 
L 73.906038 66.43227 
L 73.942693 65.070491 
L 73.968875 65.070491 
L 74.00553 63.53849 
L 74.010767 66.942937 
L 74.057895 66.091825 
L 74.105023 69.496272 
L 74.16786 68.645161 
L 74.283062 67.794049 
L 74.340663 67.794049 
L 74.461101 66.091825 
L 74.534411 66.091825 
L 74.65485 64.389602 
L 75.068529 64.389602 
L 75.183731 63.53849 
L 75.550282 63.53849 
L 75.665484 62.857601 
L 76.827976 62.857601 
L 76.943177 62.006489 
L 77.875265 62.006489 
L 77.990467 61.155377 
L 78.116142 61.155377 
L 78.23658 59.793599 
L 81.242301 59.793599 
L 81.357503 58.942487 
L 99.302811 58.942487 
L 99.418013 58.091375 
L 100.99942 58.091375 
L 101.114622 61.495822 
L 108.50325 61.495822 
L 108.618452 60.814933 
L 118.269226 60.814933 
L 118.384428 60.134043 
L 132.266252 60.134043 
L 132.381453 59.453154 
L 155.5475 59.453154 
L 155.662702 58.602042 
L 224.118788 58.602042 
L 224.233989 57.921153 
L 264.397546 57.921153 
L 264.512748 57.070041 
L 307.765809 57.070041 
L 307.881011 56.389152 
L 398.487273 56.389152 
L 398.487273 56.389152 
" clip-path="url(#p3348a788fc)" style="fill: none; stroke: #d62728; stroke-width: 1.5; stroke-linecap: square"/>
   </g>
   <g id="line2d_15">
    <path d="M 73.832727 67.964271 
L 73.879855 67.964271 
L 74.00553 84.986506 
L 74.010767 84.135394 
L 74.084077 84.135394 
L 74.173096 90.944288 
L 74.199279 89.809473 
L 74.24117 89.809473 
L 74.361609 96.618366 
L 74.670559 96.618366 
L 74.785761 100.022813 
L 74.790997 100.022813 
L 74.906199 98.887998 
L 76.231021 98.887998 
L 76.346222 102.292445 
L 76.403823 102.292445 
L 76.519025 105.696892 
L 78.147561 105.696892 
L 78.262762 105.016002 
L 78.493166 105.016002 
L 78.503639 104.164891 
L 78.508875 107.569337 
L 78.587422 107.569337 
L 81.640271 107.569337 
L 81.755473 106.434522 
L 87.201379 106.434522 
L 87.316581 105.299706 
L 87.552221 105.299706 
L 87.667423 108.704153 
L 89.82484 108.704153 
L 89.940042 112.1086 
L 93.458935 112.1086 
L 93.574137 115.513047 
L 94.082072 115.513047 
L 94.197274 118.917494 
L 96.234252 118.917494 
L 96.349454 117.782678 
L 171.932346 117.782678 
L 172.047548 121.187125 
L 267.607489 121.187125 
L 267.722691 124.591572 
L 273.084814 124.591572 
L 273.200016 127.996019 
L 398.487273 127.996019 
L 398.487273 127.996019 
" clip-path="url(#p3348a788fc)" style="fill: none; stroke: #9467bd; stroke-width: 1.5; stroke-linecap: square"/>
   </g>
   <g id="line2d_16">
    <path d="M 73.832727 63.708713 
L 73.926983 63.708713 
L 73.974111 62.857601 
L 73.979348 66.262048 
L 74.021239 66.262048 
L 74.036949 66.262048 
L 74.057895 69.666495 
L 74.146914 67.680567 
L 74.178333 67.680567 
L 74.293535 66.829456 
L 74.670559 66.829456 
L 74.785761 65.978344 
L 77.875265 65.978344 
L 77.990467 69.382791 
L 78.147561 69.382791 
L 78.262762 68.701901 
L 78.336073 68.701901 
L 78.451274 67.567086 
L 100.99942 67.567086 
L 101.114622 66.43227 
L 123.751787 66.43227 
L 123.866989 65.581158 
L 153.290591 65.581158 
L 153.405793 64.730047 
L 259.742344 64.730047 
L 259.857546 63.878935 
L 286.27019 63.878935 
L 286.385392 63.027823 
L 398.487273 63.027823 
L 398.487273 63.027823 
" clip-path="url(#p3348a788fc)" style="fill: none; stroke: #8c564b; stroke-width: 1.5; stroke-linecap: square"/>
   </g>
   <g id="line2d_17">
    <path d="M 73.832727 67.964271 
L 73.937456 81.6388 
L 73.963638 80.95791 
L 73.968875 80.95791 
L 73.974111 80.106799 
L 74.010767 86.915693 
L 74.047422 86.064581 
L 74.057895 86.064581 
L 74.105023 92.873475 
L 74.173096 91.171251 
L 74.178333 91.171251 
L 74.293535 94.575698 
L 74.340663 94.575698 
L 74.461101 92.873475 
L 74.534411 92.873475 
L 74.65485 91.171251 
L 74.670559 91.171251 
L 74.785761 94.575698 
L 75.068529 94.575698 
L 75.183731 93.724587 
L 75.550282 93.724587 
L 75.665484 93.043697 
L 76.058218 93.043697 
L 76.17342 96.448144 
L 76.827976 96.448144 
L 76.943177 95.597032 
L 77.875265 95.597032 
L 77.990467 94.745921 
L 78.116142 94.745921 
L 78.147561 94.065031 
L 78.152797 97.469478 
L 78.210398 96.788589 
L 78.336073 96.788589 
L 78.451274 100.193036 
L 78.493166 100.193036 
L 78.608368 103.597483 
L 81.242301 103.597483 
L 81.357503 102.746371 
L 87.201379 102.746371 
L 87.316581 106.150818 
L 99.302811 106.150818 
L 99.418013 105.299706 
L 100.99942 105.299706 
L 101.114622 108.704153 
L 108.50325 108.704153 
L 108.618452 108.023264 
L 118.269226 108.023264 
L 118.384428 107.342374 
L 123.751787 107.342374 
L 123.866989 110.746821 
L 132.266252 110.746821 
L 132.381453 110.065932 
L 153.290591 110.065932 
L 153.405793 113.470379 
L 155.5475 113.470379 
L 155.662702 112.619267 
L 224.118788 112.619267 
L 224.233989 111.938378 
L 259.742344 111.938378 
L 259.857546 115.342825 
L 264.397546 115.342825 
L 264.512748 114.491713 
L 273.084814 114.491713 
L 273.200016 113.356897 
L 286.27019 113.356897 
L 286.385392 116.761344 
L 307.765809 116.761344 
L 307.881011 116.080455 
L 398.487273 116.080455 
L 398.487273 116.080455 
" clip-path="url(#p3348a788fc)" style="fill: none; stroke: #e377c2; stroke-width: 1.5; stroke-linecap: square"/>
   </g>
   <g id="line2d_18">
    <path d="M 73.832727 63.708713 
L 73.979348 57.921153 
L 74.036949 57.921153 
L 74.057895 61.3256 
L 74.146914 59.339672 
L 74.178333 59.339672 
L 74.293535 58.488561 
L 74.670559 58.488561 
L 74.785761 57.637449 
L 77.875265 57.637449 
L 77.990467 61.041896 
L 78.147561 61.041896 
L 78.262762 60.361006 
L 78.336073 60.361006 
L 78.451274 59.226191 
L 100.99942 59.226191 
L 101.114622 58.091375 
L 123.751787 58.091375 
L 123.866989 57.240263 
L 153.290591 57.240263 
L 153.405793 56.389152 
L 259.742344 56.389152 
L 259.857546 55.53804 
L 286.27019 55.53804 
L 286.385392 54.686928 
L 398.487273 54.686928 
L 398.487273 54.686928 
" clip-path="url(#p3348a788fc)" style="fill: none; stroke: #7f7f7f; stroke-width: 1.5; stroke-linecap: square"/>
   </g>
   <g id="line2d_19">
    <path d="M 73.832727 67.964271 
L 73.937456 81.6388 
L 73.963638 80.95791 
L 73.968875 80.95791 
L 74.00553 76.021462 
L 74.063131 81.979245 
L 74.073604 81.979245 
L 74.084077 81.979245 
L 74.204515 90.490362 
L 74.340663 90.490362 
L 74.461101 88.788138 
L 74.534411 88.788138 
L 74.65485 87.085915 
L 74.670559 87.085915 
L 74.790997 93.894809 
L 75.068529 93.894809 
L 75.183731 93.043697 
L 75.550282 93.043697 
L 75.665484 92.362808 
L 76.058218 92.362808 
L 76.17342 95.767255 
L 76.827976 95.767255 
L 76.943177 94.916143 
L 77.875265 94.916143 
L 77.990467 94.065031 
L 78.116142 94.065031 
L 78.147561 93.384142 
L 78.152797 96.788589 
L 78.210398 96.107699 
L 78.336073 96.107699 
L 78.451274 99.512146 
L 78.493166 99.512146 
L 78.608368 102.916593 
L 81.242301 102.916593 
L 81.357503 102.065482 
L 81.640271 102.065482 
L 81.755473 105.469929 
L 87.201379 105.469929 
L 87.316581 108.874375 
L 89.82484 108.874375 
L 89.940042 107.172152 
L 94.082072 107.172152 
L 94.197274 105.469929 
L 96.234252 105.469929 
L 96.349454 108.874375 
L 99.302811 108.874375 
L 99.418013 108.023264 
L 100.99942 108.023264 
L 101.114622 111.427711 
L 108.50325 111.427711 
L 108.618452 110.746821 
L 118.269226 110.746821 
L 118.384428 110.065932 
L 123.751787 110.065932 
L 123.866989 113.470379 
L 132.266252 113.470379 
L 132.381453 112.789489 
L 153.290591 112.789489 
L 153.405793 116.193936 
L 155.5475 116.193936 
L 155.662702 115.342825 
L 171.932346 115.342825 
L 172.047548 113.640601 
L 224.118788 113.640601 
L 224.233989 112.959712 
L 259.742344 112.959712 
L 259.857546 116.364159 
L 264.397546 116.364159 
L 264.512748 115.513047 
L 273.084814 115.513047 
L 273.200016 114.378231 
L 286.27019 114.378231 
L 286.385392 117.782678 
L 307.765809 117.782678 
L 307.881011 117.101789 
L 398.487273 117.101789 
L 398.487273 117.101789 
" clip-path="url(#p3348a788fc)" style="fill: none; stroke: #bcbd22; stroke-width: 1.5; stroke-linecap: square"/>
   </g>
   <g id="line2d_20">
    <path d="M 73.832727 64.559824 
L 73.937456 73.69509 
L 73.953166 73.014201 
L 73.968875 73.014201 
L 74.00553 72.163089 
L 74.042185 78.120871 
L 74.047422 78.120871 
L 74.084077 78.120871 
L 74.173096 73.865313 
L 74.178333 77.26976 
L 74.24117 80.674207 
L 74.288298 78.971983 
L 74.31448 78.971983 
L 74.434919 75.567536 
L 74.534411 75.567536 
L 74.65485 73.865313 
L 74.670559 73.865313 
L 74.749106 73.014201 
L 74.754342 76.418648 
L 74.764815 76.418648 
L 74.790997 76.418648 
L 74.906199 79.823095 
L 75.068529 79.823095 
L 75.183731 78.971983 
L 75.550282 78.971983 
L 75.665484 78.291094 
L 76.058218 78.291094 
L 76.17342 81.695541 
L 76.231021 81.695541 
L 76.346222 79.993317 
L 76.403823 79.993317 
L 76.519025 78.291094 
L 76.827976 78.291094 
L 76.943177 77.439982 
L 78.116142 77.439982 
L 78.147561 76.759093 
L 78.152797 80.16354 
L 78.210398 79.48265 
L 78.336073 79.48265 
L 78.451274 78.347835 
L 78.493166 78.347835 
L 78.503639 81.752281 
L 78.603131 80.050058 
L 81.242301 80.050058 
L 81.357503 79.198946 
L 81.640271 79.198946 
L 81.755473 82.603393 
L 87.201379 82.603393 
L 87.316581 86.00784 
L 87.552221 86.00784 
L 87.667423 84.305617 
L 89.82484 84.305617 
L 89.940042 82.603393 
L 93.458935 82.603393 
L 93.574137 80.90117 
L 94.082072 80.90117 
L 94.197274 79.198946 
L 96.234252 79.198946 
L 96.349454 82.603393 
L 99.302811 82.603393 
L 99.418013 81.752281 
L 108.50325 81.752281 
L 108.618452 81.071392 
L 118.269226 81.071392 
L 118.384428 80.390503 
L 123.751787 80.390503 
L 123.866989 83.79495 
L 132.266252 83.79495 
L 132.381453 83.11406 
L 153.290591 83.11406 
L 153.405793 86.518507 
L 155.5475 86.518507 
L 155.662702 85.667395 
L 171.932346 85.667395 
L 172.047548 83.965172 
L 224.118788 83.965172 
L 224.233989 83.284283 
L 259.742344 83.284283 
L 259.857546 86.68873 
L 264.397546 86.68873 
L 264.512748 85.837618 
L 267.607489 85.837618 
L 267.722691 84.135394 
L 273.084814 84.135394 
L 273.200016 83.000579 
L 286.27019 83.000579 
L 286.385392 86.405026 
L 307.765809 86.405026 
L 307.881011 85.724136 
L 398.487273 85.724136 
L 398.487273 85.724136 
" clip-path="url(#p3348a788fc)" style="fill: none; stroke: #17becf; stroke-width: 1.5; stroke-linecap: square"/>
   </g>
   <g id="line2d_21">
    <path d="M 73.832727 67.964271 
L 73.926983 67.964271 
L 73.974111 71.368718 
L 74.036949 70.687829 
L 74.057895 69.553013 
L 74.089313 76.361907 
L 74.120732 76.361907 
L 74.178333 76.361907 
L 74.293535 79.766354 
L 74.670559 79.766354 
L 74.785761 83.170801 
L 77.875265 83.170801 
L 77.990467 82.319689 
L 78.147561 82.319689 
L 78.262762 85.724136 
L 78.336073 85.724136 
L 78.451274 89.128583 
L 100.99942 89.128583 
L 101.114622 92.53303 
L 123.751787 92.53303 
L 123.866989 95.937477 
L 153.290591 95.937477 
L 153.405793 99.341924 
L 259.742344 99.341924 
L 259.857546 102.746371 
L 286.27019 102.746371 
L 286.385392 106.150818 
L 398.487273 106.150818 
L 398.487273 106.150818 
" clip-path="url(#p3348a788fc)" style="fill: none; stroke: #1f77b4; stroke-width: 1.5; stroke-linecap: square"/>
   </g>
   <g id="line2d_22">
    <path d="M 73.832727 64.559824 
L 73.937456 79.766354 
L 73.963638 79.085465 
L 73.974111 79.085465 
L 74.00553 85.894359 
L 74.089313 83.057319 
L 74.09455 83.057319 
L 74.178333 81.355096 
L 74.183569 84.759543 
L 74.199279 84.759543 
L 74.24117 88.16399 
L 74.309244 86.461766 
L 74.31448 86.461766 
L 74.429682 84.759543 
L 74.618194 84.759543 
L 74.743869 94.972884 
L 74.749106 94.972884 
L 74.869544 101.781778 
L 75.550282 101.781778 
L 75.665484 101.100888 
L 76.058218 101.100888 
L 76.073927 99.966073 
L 76.079164 103.37052 
L 76.15771 103.37052 
L 76.231021 103.37052 
L 76.346222 101.668296 
L 76.403823 101.668296 
L 76.414296 99.966073 
L 76.419533 103.37052 
L 76.508552 103.37052 
L 76.786084 103.37052 
L 76.901286 106.774967 
L 77.346384 106.774967 
L 77.461586 110.179413 
L 78.116142 110.179413 
L 78.147561 109.498524 
L 78.152797 112.902971 
L 78.210398 112.222082 
L 78.493166 112.222082 
L 78.618841 109.668746 
L 79.294343 109.668746 
L 79.409544 113.073193 
L 80.446361 113.073193 
L 80.561563 116.47764 
L 87.552221 116.47764 
L 87.667423 114.775417 
L 92.265025 114.775417 
L 92.380226 118.179864 
L 93.458935 118.179864 
L 93.574137 116.47764 
L 99.449431 116.47764 
L 99.564633 119.882087 
L 108.50325 119.882087 
L 108.618452 119.201198 
L 118.269226 119.201198 
L 118.384428 118.520308 
L 123.076285 118.520308 
L 123.191487 121.924755 
L 123.495201 121.924755 
L 123.610403 125.329202 
L 123.751787 125.329202 
L 123.866989 128.733649 
L 132.266252 128.733649 
L 132.381453 128.05276 
L 153.290591 128.05276 
L 153.405793 131.457207 
L 224.118788 131.457207 
L 224.233989 130.776317 
L 235.885086 130.776317 
L 236.000288 134.180764 
L 259.742344 134.180764 
L 259.857546 137.585211 
L 267.607489 137.585211 
L 267.722691 135.882988 
L 286.27019 135.882988 
L 286.385392 139.287435 
L 307.765809 139.287435 
L 307.881011 138.606545 
L 398.487273 138.606545 
L 398.487273 138.606545 
" clip-path="url(#p3348a788fc)" style="fill: none; stroke: #ff7f0e; stroke-width: 1.5; stroke-linecap: square"/>
   </g>
   <g id="patch_3">
    <path d="M 57.6 162.432 
L 57.6 41.472 
" style="fill: none; stroke: #000000; stroke-width: 0.8; stroke-linejoin: miter; stroke-linecap: square"/>
   </g>
   <g id="patch_4">
    <path d="M 414.72 162.432 
L 414.72 41.472 
" style="fill: none; stroke: #000000; stroke-width: 0.8; stroke-linejoin: miter; stroke-linecap: square"/>
   </g>
   <g id="patch_5">
    <path d="M 57.6 162.432 
L 414.72 162.432 
" style="fill: none; stroke: #000000; stroke-width: 0.8; stroke-linejoin: miter; stroke-linecap: square"/>
   </g>
   <g id="patch_6">
    <path d="M 57.6 41.472 
L 414.72 41.472 
" style="fill: none; stroke: #000000; stroke-width: 0.8; stroke-linejoin: miter; stroke-linecap: square"/>
   </g>
   <g id="text_11">
    <!-- WSP -->
    <g transform="translate(361.832136 46.970182)scale(0.08 -0.08)">
     <defs>
      <path id="DejaVuSans-57" d="M 213 4666 
L 850 4666 
L 1831 722 
L 2809 4666 
L 3519 4666 
L 4500 722 
L 5478 4666 
L 6119 4666 
L 4947 0 
L 4153 0 
L 3169 4050 
L 2175 0 
L 1381 0 
L 213 4666 
z
" transform="scale(0.015625)"/>
      <path id="DejaVuSans-53" d="M 3425 4513 
L 3425 3897 
Q 3066 4069 2747 4153 
Q 2428 4238 2131 4238 
Q 1616 4238 1336 4038 
Q 1056 3838 1056 3469 
Q 1056 3159 1242 3001 
Q 1428 2844 1947 2747 
L 2328 2669 
Q 3034 2534 3370 2195 
Q 3706 1856 3706 1288 
Q 3706 609 3251 259 
Q 2797 -91 1919 -91 
Q 1588 -91 1214 -16 
Q 841 59 441 206 
L 441 856 
Q 825 641 1194 531 
Q 1563 422 1919 422 
Q 2459 422 2753 634 
Q 3047 847 3047 1241 
Q 3047 1584 2836 1778 
Q 2625 1972 2144 2069 
L 1759 2144 
Q 1053 2284 737 2584 
Q 422 2884 422 3419 
Q 422 4038 858 4394 
Q 1294 4750 2059 4750 
Q 2388 4750 2728 4690 
Q 3069 4631 3425 4513 
z
" transform="scale(0.015625)"/>
      <path id="DejaVuSans-50" d="M 1259 4147 
L 1259 2394 
L 2053 2394 
Q 2494 2394 2734 2622 
Q 2975 2850 2975 3272 
Q 2975 3691 2734 3919 
Q 2494 4147 2053 4147 
L 1259 4147 
z
M 628 4666 
L 2053 4666 
Q 2838 4666 3239 4311 
Q 3641 3956 3641 3272 
Q 3641 2581 3239 2228 
Q 2838 1875 2053 1875 
L 1259 1875 
L 1259 0 
L 628 0 
L 628 4666 
z
" transform="scale(0.015625)"/>
     </defs>
     <use xlink:href="#DejaVuSans-57"/>
     <use xlink:href="#DejaVuSans-53" x="98.876953"/>
     <use xlink:href="#DejaVuSans-50" x="162.353516"/>
    </g>
   </g>
   <g id="text_12">
    <!-- Iambic -->
    <g transform="translate(361.832136 96.561626)scale(0.08 -0.08)">
     <defs>
      <path id="DejaVuSans-49" d="M 628 4666 
L 1259 4666 
L 1259 0 
L 628 0 
L 628 4666 
z
" transform="scale(0.015625)"/>
      <path id="DejaVuSans-61" d="M 2194 1759 
Q 1497 1759 1228 1600 
Q 959 1441 959 1056 
Q 959 750 1161 570 
Q 1363 391 1709 391 
Q 2188 391 2477 730 
Q 2766 1069 2766 1631 
L 2766 1759 
L 2194 1759 
z
M 3341 1997 
L 3341 0 
L 2766 0 
L 2766 531 
Q 2569 213 2275 61 
Q 1981 -91 1556 -91 
Q 1019 -91 701 211 
Q 384 513 384 1019 
Q 384 1609 779 1909 
Q 1175 2209 1959 2209 
L 2766 2209 
L 2766 2266 
Q 2766 2663 2505 2880 
Q 2244 3097 1772 3097 
Q 1472 3097 1187 3025 
Q 903 2953 641 2809 
L 641 3341 
Q 956 3463 1253 3523 
Q 1550 3584 1831 3584 
Q 2591 3584 2966 3190 
Q 3341 2797 3341 1997 
z
" transform="scale(0.015625)"/>
      <path id="DejaVuSans-6d" d="M 3328 2828 
Q 3544 3216 3844 3400 
Q 4144 3584 4550 3584 
Q 5097 3584 5394 3201 
Q 5691 2819 5691 2113 
L 5691 0 
L 5113 0 
L 5113 2094 
Q 5113 2597 4934 2840 
Q 4756 3084 4391 3084 
Q 3944 3084 3684 2787 
Q 3425 2491 3425 1978 
L 3425 0 
L 2847 0 
L 2847 2094 
Q 2847 2600 2669 2842 
Q 2491 3084 2119 3084 
Q 1678 3084 1418 2786 
Q 1159 2488 1159 1978 
L 1159 0 
L 581 0 
L 581 3500 
L 1159 3500 
L 1159 2956 
Q 1356 3278 1631 3431 
Q 1906 3584 2284 3584 
Q 2666 3584 2933 3390 
Q 3200 3197 3328 2828 
z
" transform="scale(0.015625)"/>
      <path id="DejaVuSans-62" d="M 3116 1747 
Q 3116 2381 2855 2742 
Q 2594 3103 2138 3103 
Q 1681 3103 1420 2742 
Q 1159 2381 1159 1747 
Q 1159 1113 1420 752 
Q 1681 391 2138 391 
Q 2594 391 2855 752 
Q 3116 1113 3116 1747 
z
M 1159 2969 
Q 1341 3281 1617 3432 
Q 1894 3584 2278 3584 
Q 2916 3584 3314 3078 
Q 3713 2572 3713 1747 
Q 3713 922 3314 415 
Q 2916 -91 2278 -91 
Q 1894 -91 1617 61 
Q 1341 213 1159 525 
L 1159 0 
L 581 0 
L 581 4863 
L 1159 4863 
L 1159 2969 
z
" transform="scale(0.015625)"/>
      <path id="DejaVuSans-69" d="M 603 3500 
L 1178 3500 
L 1178 0 
L 603 0 
L 603 3500 
z
M 603 4863 
L 1178 4863 
L 1178 4134 
L 603 4134 
L 603 4863 
z
" transform="scale(0.015625)"/>
      <path id="DejaVuSans-63" d="M 3122 3366 
L 3122 2828 
Q 2878 2963 2633 3030 
Q 2388 3097 2138 3097 
Q 1578 3097 1268 2742 
Q 959 2388 959 1747 
Q 959 1106 1268 751 
Q 1578 397 2138 397 
Q 2388 397 2633 464 
Q 2878 531 3122 666 
L 3122 134 
Q 2881 22 2623 -34 
Q 2366 -91 2075 -91 
Q 1284 -91 818 406 
Q 353 903 353 1747 
Q 353 2603 823 3093 
Q 1294 3584 2113 3584 
Q 2378 3584 2631 3529 
Q 2884 3475 3122 3366 
z
" transform="scale(0.015625)"/>
     </defs>
     <use xlink:href="#DejaVuSans-49"/>
     <use xlink:href="#DejaVuSans-61" x="29.492188"/>
     <use xlink:href="#DejaVuSans-6d" x="90.771484"/>
     <use xlink:href="#DejaVuSans-62" x="188.183594"/>
     <use xlink:href="#DejaVuSans-69" x="251.660156"/>
     <use xlink:href="#DejaVuSans-63" x="279.443359"/>
    </g>
   </g>
   <g id="text_13">
    <!-- Parse -->
    <g transform="translate(361.832136 156.933818)scale(0.08 -0.08)">
     <defs>
      <path id="DejaVuSans-72" d="M 2631 2963 
Q 2534 3019 2420 3045 
Q 2306 3072 2169 3072 
Q 1681 3072 1420 2755 
Q 1159 2438 1159 1844 
L 1159 0 
L 581 0 
L 581 3500 
L 1159 3500 
L 1159 2956 
Q 1341 3275 1631 3429 
Q 1922 3584 2338 3584 
Q 2397 3584 2469 3576 
Q 2541 3569 2628 3553 
L 2631 2963 
z
" transform="scale(0.015625)"/>
      <path id="DejaVuSans-73" d="M 2834 3397 
L 2834 2853 
Q 2591 2978 2328 3040 
Q 2066 3103 1784 3103 
Q 1356 3103 1142 2972 
Q 928 2841 928 2578 
Q 928 2378 1081 2264 
Q 1234 2150 1697 2047 
L 1894 2003 
Q 2506 1872 2764 1633 
Q 3022 1394 3022 966 
Q 3022 478 2636 193 
Q 2250 -91 1575 -91 
Q 1294 -91 989 -36 
Q 684 19 347 128 
L 347 722 
Q 666 556 975 473 
Q 1284 391 1588 391 
Q 1994 391 2212 530 
Q 2431 669 2431 922 
Q 2431 1156 2273 1281 
Q 2116 1406 1581 1522 
L 1381 1569 
Q 847 1681 609 1914 
Q 372 2147 372 2553 
Q 372 3047 722 3315 
Q 1072 3584 1716 3584 
Q 2034 3584 2315 3537 
Q 2597 3491 2834 3397 
z
" transform="scale(0.015625)"/>
      <path id="DejaVuSans-65" d="M 3597 1894 
L 3597 1613 
L 953 1613 
Q 991 1019 1311 708 
Q 1631 397 2203 397 
Q 2534 397 2845 478 
Q 3156 559 3463 722 
L 3463 178 
Q 3153 47 2828 -22 
Q 2503 -91 2169 -91 
Q 1331 -91 842 396 
Q 353 884 353 1716 
Q 353 2575 817 3079 
Q 1281 3584 2069 3584 
Q 2775 3584 3186 3129 
Q 3597 2675 3597 1894 
z
M 3022 2063 
Q 3016 2534 2758 2815 
Q 2500 3097 2075 3097 
Q 1594 3097 1305 2825 
Q 1016 2553 972 2059 
L 3022 2063 
z
" transform="scale(0.015625)"/>
     </defs>
     <use xlink:href="#DejaVuSans-50"/>
     <use xlink:href="#DejaVuSans-61" x="55.802734"/>
     <use xlink:href="#DejaVuSans-72" x="117.082031"/>
     <use xlink:href="#DejaVuSans-73" x="158.195312"/>
     <use xlink:href="#DejaVuSans-65" x="210.294922"/>
    </g>
   </g>
   <g id="text_14">
    <!-- FootBin -->
    <g transform="translate(361.832136 56.389152)scale(0.08 -0.08)">
     <defs>
      <path id="DejaVuSans-46" d="M 628 4666 
L 3309 4666 
L 3309 4134 
L 1259 4134 
L 1259 2759 
L 3109 2759 
L 3109 2228 
L 1259 2228 
L 1259 0 
L 628 0 
L 628 4666 
z
" transform="scale(0.015625)"/>
      <path id="DejaVuSans-6f" d="M 1959 3097 
Q 1497 3097 1228 2736 
Q 959 2375 959 1747 
Q 959 1119 1226 758 
Q 1494 397 1959 397 
Q 2419 397 2687 759 
Q 2956 1122 2956 1747 
Q 2956 2369 2687 2733 
Q 2419 3097 1959 3097 
z
M 1959 3584 
Q 2709 3584 3137 3096 
Q 3566 2609 3566 1747 
Q 3566 888 3137 398 
Q 2709 -91 1959 -91 
Q 1206 -91 779 398 
Q 353 888 353 1747 
Q 353 2609 779 3096 
Q 1206 3584 1959 3584 
z
" transform="scale(0.015625)"/>
      <path id="DejaVuSans-74" d="M 1172 4494 
L 1172 3500 
L 2356 3500 
L 2356 3053 
L 1172 3053 
L 1172 1153 
Q 1172 725 1289 603 
Q 1406 481 1766 481 
L 2356 481 
L 2356 0 
L 1766 0 
Q 1100 0 847 248 
Q 594 497 594 1153 
L 594 3053 
L 172 3053 
L 172 3500 
L 594 3500 
L 594 4494 
L 1172 4494 
z
" transform="scale(0.015625)"/>
      <path id="DejaVuSans-42" d="M 1259 2228 
L 1259 519 
L 2272 519 
Q 2781 519 3026 730 
Q 3272 941 3272 1375 
Q 3272 1813 3026 2020 
Q 2781 2228 2272 2228 
L 1259 2228 
z
M 1259 4147 
L 1259 2741 
L 2194 2741 
Q 2656 2741 2882 2914 
Q 3109 3088 3109 3444 
Q 3109 3797 2882 3972 
Q 2656 4147 2194 4147 
L 1259 4147 
z
M 628 4666 
L 2241 4666 
Q 2963 4666 3353 4366 
Q 3744 4066 3744 3513 
Q 3744 3084 3544 2831 
Q 3344 2578 2956 2516 
Q 3422 2416 3680 2098 
Q 3938 1781 3938 1306 
Q 3938 681 3513 340 
Q 3088 0 2303 0 
L 628 0 
L 628 4666 
z
" transform="scale(0.015625)"/>
      <path id="DejaVuSans-6e" d="M 3513 2113 
L 3513 0 
L 2938 0 
L 2938 2094 
Q 2938 2591 2744 2837 
Q 2550 3084 2163 3084 
Q 1697 3084 1428 2787 
Q 1159 2491 1159 1978 
L 1159 0 
L 581 0 
L 581 3500 
L 1159 3500 
L 1159 2956 
Q 1366 3272 1645 3428 
Q 1925 3584 2291 3584 
Q 2894 3584 3203 3211 
Q 3513 2838 3513 2113 
z
" transform="scale(0.015625)"/>
     </defs>
     <use xlink:href="#DejaVuSans-46"/>
     <use xlink:href="#DejaVuSans-6f" x="53.894531"/>
     <use xlink:href="#DejaVuSans-6f" x="115.076172"/>
     <use xlink:href="#DejaVuSans-74" x="176.257812"/>
     <use xlink:href="#DejaVuSans-42" x="215.466797"/>
     <use xlink:href="#DejaVuSans-69" x="284.070312"/>
     <use xlink:href="#DejaVuSans-6e" x="311.853516"/>
    </g>
   </g>
   <g id="text_15">
    <!-- WFL -->
    <g transform="translate(361.832136 127.996019)scale(0.08 -0.08)">
     <defs>
      <path id="DejaVuSans-4c" d="M 628 4666 
L 1259 4666 
L 1259 531 
L 3531 531 
L 3531 0 
L 628 0 
L 628 4666 
z
" transform="scale(0.015625)"/>
     </defs>
     <use xlink:href="#DejaVuSans-57"/>
     <use xlink:href="#DejaVuSans-46" x="98.876953"/>
     <use xlink:href="#DejaVuSans-4c" x="156.396484"/>
    </g>
   </g>
   <g id="text_16">
    <!-- WFR -->
    <g transform="translate(361.832136 63.027823)scale(0.08 -0.08)">
     <defs>
      <path id="DejaVuSans-52" d="M 2841 2188 
Q 3044 2119 3236 1894 
Q 3428 1669 3622 1275 
L 4263 0 
L 3584 0 
L 2988 1197 
Q 2756 1666 2539 1819 
Q 2322 1972 1947 1972 
L 1259 1972 
L 1259 0 
L 628 0 
L 628 4666 
L 2053 4666 
Q 2853 4666 3247 4331 
Q 3641 3997 3641 3322 
Q 3641 2881 3436 2590 
Q 3231 2300 2841 2188 
z
M 1259 4147 
L 1259 2491 
L 2053 2491 
Q 2509 2491 2742 2702 
Q 2975 2913 2975 3322 
Q 2975 3731 2742 3939 
Q 2509 4147 2053 4147 
L 1259 4147 
z
" transform="scale(0.015625)"/>
     </defs>
     <use xlink:href="#DejaVuSans-57"/>
     <use xlink:href="#DejaVuSans-46" x="98.876953"/>
     <use xlink:href="#DejaVuSans-52" x="156.396484"/>
    </g>
   </g>
   <g id="text_17">
    <!-- Main-L -->
    <g transform="translate(361.832136 116.080455)scale(0.08 -0.08)">
     <defs>
      <path id="DejaVuSans-4d" d="M 628 4666 
L 1569 4666 
L 2759 1491 
L 3956 4666 
L 4897 4666 
L 4897 0 
L 4281 0 
L 4281 4097 
L 3078 897 
L 2444 897 
L 1241 4097 
L 1241 0 
L 628 0 
L 628 4666 
z
" transform="scale(0.015625)"/>
      <path id="DejaVuSans-2d" d="M 313 2009 
L 1997 2009 
L 1997 1497 
L 313 1497 
L 313 2009 
z
" transform="scale(0.015625)"/>
     </defs>
     <use xlink:href="#DejaVuSans-4d"/>
     <use xlink:href="#DejaVuSans-61" x="86.279297"/>
     <use xlink:href="#DejaVuSans-69" x="147.558594"/>
     <use xlink:href="#DejaVuSans-6e" x="175.341797"/>
     <use xlink:href="#DejaVuSans-2d" x="238.720703"/>
     <use xlink:href="#DejaVuSans-4c" x="274.804688"/>
    </g>
   </g>
   <g id="text_18">
    <!-- Main-R -->
    <g transform="translate(361.832136 54.686928)scale(0.08 -0.08)">
     <use xlink:href="#DejaVuSans-4d"/>
     <use xlink:href="#DejaVuSans-61" x="86.279297"/>
     <use xlink:href="#DejaVuSans-69" x="147.558594"/>
     <use xlink:href="#DejaVuSans-6e" x="175.341797"/>
     <use xlink:href="#DejaVuSans-2d" x="238.720703"/>
     <use xlink:href="#DejaVuSans-52" x="274.804688"/>
    </g>
   </g>
   <g id="text_19">
    <!-- AFL -->
    <g transform="translate(361.832136 117.101789)scale(0.08 -0.08)">
     <defs>
      <path id="DejaVuSans-41" d="M 2188 4044 
L 1331 1722 
L 3047 1722 
L 2188 4044 
z
M 1831 4666 
L 2547 4666 
L 4325 0 
L 3669 0 
L 3244 1197 
L 1141 1197 
L 716 0 
L 50 0 
L 1831 4666 
z
" transform="scale(0.015625)"/>
     </defs>
     <use xlink:href="#DejaVuSans-41"/>
     <use xlink:href="#DejaVuSans-46" x="68.408203"/>
     <use xlink:href="#DejaVuSans-4c" x="125.927734"/>
    </g>
   </g>
   <g id="text_20">
    <!-- AFR -->
    <g transform="translate(361.832136 85.724136)scale(0.08 -0.08)">
     <use xlink:href="#DejaVuSans-41"/>
     <use xlink:href="#DejaVuSans-46" x="68.408203"/>
     <use xlink:href="#DejaVuSans-52" x="125.927734"/>
    </g>
   </g>
   <g id="text_21">
    <!-- Nonfinal -->
    <g transform="translate(361.832136 106.150818)scale(0.08 -0.08)">
     <defs>
      <path id="DejaVuSans-4e" d="M 628 4666 
L 1478 4666 
L 3547 763 
L 3547 4666 
L 4159 4666 
L 4159 0 
L 3309 0 
L 1241 3903 
L 1241 0 
L 628 0 
L 628 4666 
z
" transform="scale(0.015625)"/>
      <path id="DejaVuSans-66" d="M 2375 4863 
L 2375 4384 
L 1825 4384 
Q 1516 4384 1395 4259 
Q 1275 4134 1275 3809 
L 1275 3500 
L 2222 3500 
L 2222 3053 
L 1275 3053 
L 1275 0 
L 697 0 
L 697 3053 
L 147 3053 
L 147 3500 
L 697 3500 
L 697 3744 
Q 697 4328 969 4595 
Q 1241 4863 1831 4863 
L 2375 4863 
z
" transform="scale(0.015625)"/>
      <path id="DejaVuSans-6c" d="M 603 4863 
L 1178 4863 
L 1178 0 
L 603 0 
L 603 4863 
z
" transform="scale(0.015625)"/>
     </defs>
     <use xlink:href="#DejaVuSans-4e"/>
     <use xlink:href="#DejaVuSans-6f" x="74.804688"/>
     <use xlink:href="#DejaVuSans-6e" x="135.986328"/>
     <use xlink:href="#DejaVuSans-66" x="199.365234"/>
     <use xlink:href="#DejaVuSans-69" x="234.570312"/>
     <use xlink:href="#DejaVuSans-6e" x="262.353516"/>
     <use xlink:href="#DejaVuSans-61" x="325.732422"/>
     <use xlink:href="#DejaVuSans-6c" x="387.011719"/>
    </g>
   </g>
   <g id="text_22">
    <!-- Trochaic -->
    <g transform="translate(361.832136 138.606545)scale(0.08 -0.08)">
     <defs>
      <path id="DejaVuSans-54" d="M -19 4666 
L 3928 4666 
L 3928 4134 
L 2272 4134 
L 2272 0 
L 1638 0 
L 1638 4134 
L -19 4134 
L -19 4666 
z
" transform="scale(0.015625)"/>
      <path id="DejaVuSans-68" d="M 3513 2113 
L 3513 0 
L 2938 0 
L 2938 2094 
Q 2938 2591 2744 2837 
Q 2550 3084 2163 3084 
Q 1697 3084 1428 2787 
Q 1159 2491 1159 1978 
L 1159 0 
L 581 0 
L 581 4863 
L 1159 4863 
L 1159 2956 
Q 1366 3272 1645 3428 
Q 1925 3584 2291 3584 
Q 2894 3584 3203 3211 
Q 3513 2838 3513 2113 
z
" transform="scale(0.015625)"/>
     </defs>
     <use xlink:href="#DejaVuSans-54"/>
     <use xlink:href="#DejaVuSans-72" x="46.333984"/>
     <use xlink:href="#DejaVuSans-6f" x="85.197266"/>
     <use xlink:href="#DejaVuSans-63" x="146.378906"/>
     <use xlink:href="#DejaVuSans-68" x="201.359375"/>
     <use xlink:href="#DejaVuSans-61" x="264.738281"/>
     <use xlink:href="#DejaVuSans-69" x="326.017578"/>
     <use xlink:href="#DejaVuSans-63" x="353.800781"/>
    </g>
   </g>
  </g>
  <g id="axes_2">
   <g id="patch_7">
    <path d="M 57.6 307.584 
L 414.72 307.584 
L 414.72 186.624 
L 57.6 186.624 
z
" style="fill: #ffffff"/>
   </g>
   <g id="matplotlib.axis_3">
    <g id="xtick_8">
     <g id="line2d_23">
      <g>
       <use xlink:href="#m5c6716ec60" x="70.143471" y="307.584" style="stroke: #000000; stroke-width: 0.8"/>
      </g>
     </g>
     <g id="text_23">
      <!-- 0 -->
      <g transform="translate(66.962221 322.182437)scale(0.1 -0.1)">
       <use xlink:href="#DejaVuSans-30"/>
      </g>
     </g>
    </g>
    <g id="xtick_9">
     <g id="line2d_24">
      <g>
       <use xlink:href="#m5c6716ec60" x="143.928595" y="307.584" style="stroke: #000000; stroke-width: 0.8"/>
      </g>
     </g>
     <g id="text_24">
      <!-- 20 -->
      <g transform="translate(137.566095 322.182437)scale(0.1 -0.1)">
       <use xlink:href="#DejaVuSans-32"/>
       <use xlink:href="#DejaVuSans-30" x="63.623047"/>
      </g>
     </g>
    </g>
    <g id="xtick_10">
     <g id="line2d_25">
      <g>
       <use xlink:href="#m5c6716ec60" x="217.713719" y="307.584" style="stroke: #000000; stroke-width: 0.8"/>
      </g>
     </g>
     <g id="text_25">
      <!-- 40 -->
      <g transform="translate(211.351219 322.182437)scale(0.1 -0.1)">
       <use xlink:href="#DejaVuSans-34"/>
       <use xlink:href="#DejaVuSans-30" x="63.623047"/>
      </g>
     </g>
    </g>
    <g id="xtick_11">
     <g id="line2d_26">
      <g>
       <use xlink:href="#m5c6716ec60" x="291.498843" y="307.584" style="stroke: #000000; stroke-width: 0.8"/>
      </g>
     </g>
     <g id="text_26">
      <!-- 60 -->
      <g transform="translate(285.136343 322.182437)scale(0.1 -0.1)">
       <use xlink:href="#DejaVuSans-36"/>
       <use xlink:href="#DejaVuSans-30" x="63.623047"/>
      </g>
     </g>
    </g>
    <g id="xtick_12">
     <g id="line2d_27">
      <g>
       <use xlink:href="#m5c6716ec60" x="365.283967" y="307.584" style="stroke: #000000; stroke-width: 0.8"/>
      </g>
     </g>
     <g id="text_27">
      <!-- 80 -->
      <g transform="translate(358.921467 322.182437)scale(0.1 -0.1)">
       <use xlink:href="#DejaVuSans-38"/>
       <use xlink:href="#DejaVuSans-30" x="63.623047"/>
      </g>
     </g>
    </g>
   </g>
   <g id="matplotlib.axis_4">
    <g id="ytick_4">
     <g id="line2d_28">
      <g>
       <use xlink:href="#mb472cf7b78" x="57.6" y="302.096853" style="stroke: #000000; stroke-width: 0.8"/>
      </g>
     </g>
     <g id="text_28">
      <!-- 0 -->
      <g transform="translate(44.2375 305.896072)scale(0.1 -0.1)">
       <use xlink:href="#DejaVuSans-30"/>
      </g>
     </g>
    </g>
    <g id="ytick_5">
     <g id="line2d_29">
      <g>
       <use xlink:href="#mb472cf7b78" x="57.6" y="280.026881" style="stroke: #000000; stroke-width: 0.8"/>
      </g>
     </g>
     <g id="text_29">
      <!-- 2000 -->
      <g transform="translate(25.15 283.8261)scale(0.1 -0.1)">
       <use xlink:href="#DejaVuSans-32"/>
       <use xlink:href="#DejaVuSans-30" x="63.623047"/>
       <use xlink:href="#DejaVuSans-30" x="127.246094"/>
       <use xlink:href="#DejaVuSans-30" x="190.869141"/>
      </g>
     </g>
    </g>
    <g id="ytick_6">
     <g id="line2d_30">
      <g>
       <use xlink:href="#mb472cf7b78" x="57.6" y="257.956909" style="stroke: #000000; stroke-width: 0.8"/>
      </g>
     </g>
     <g id="text_30">
      <!-- 4000 -->
      <g transform="translate(25.15 261.756128)scale(0.1 -0.1)">
       <use xlink:href="#DejaVuSans-34"/>
       <use xlink:href="#DejaVuSans-30" x="63.623047"/>
       <use xlink:href="#DejaVuSans-30" x="127.246094"/>
       <use xlink:href="#DejaVuSans-30" x="190.869141"/>
      </g>
     </g>
    </g>
    <g id="ytick_7">
     <g id="line2d_31">
      <g>
       <use xlink:href="#mb472cf7b78" x="57.6" y="235.886937" style="stroke: #000000; stroke-width: 0.8"/>
      </g>
     </g>
     <g id="text_31">
      <!-- 6000 -->
      <g transform="translate(25.15 239.686155)scale(0.1 -0.1)">
       <use xlink:href="#DejaVuSans-36"/>
       <use xlink:href="#DejaVuSans-30" x="63.623047"/>
       <use xlink:href="#DejaVuSans-30" x="127.246094"/>
       <use xlink:href="#DejaVuSans-30" x="190.869141"/>
      </g>
     </g>
    </g>
    <g id="ytick_8">
     <g id="line2d_32">
      <g>
       <use xlink:href="#mb472cf7b78" x="57.6" y="213.816964" style="stroke: #000000; stroke-width: 0.8"/>
      </g>
     </g>
     <g id="text_32">
      <!-- 8000 -->
      <g transform="translate(25.15 217.616183)scale(0.1 -0.1)">
       <use xlink:href="#DejaVuSans-38"/>
       <use xlink:href="#DejaVuSans-30" x="63.623047"/>
       <use xlink:href="#DejaVuSans-30" x="127.246094"/>
       <use xlink:href="#DejaVuSans-30" x="190.869141"/>
      </g>
     </g>
    </g>
    <g id="ytick_9">
     <g id="line2d_33">
      <g>
       <use xlink:href="#mb472cf7b78" x="57.6" y="191.746992" style="stroke: #000000; stroke-width: 0.8"/>
      </g>
     </g>
     <g id="text_33">
      <!-- 10000 -->
      <g transform="translate(18.7875 195.546211)scale(0.1 -0.1)">
       <use xlink:href="#DejaVuSans-31"/>
       <use xlink:href="#DejaVuSans-30" x="63.623047"/>
       <use xlink:href="#DejaVuSans-30" x="127.246094"/>
       <use xlink:href="#DejaVuSans-30" x="190.869141"/>
       <use xlink:href="#DejaVuSans-30" x="254.492188"/>
      </g>
     </g>
    </g>
   </g>
   <g id="line2d_34">
    <path d="M 73.832727 302.085818 
L 77.521983 302.085818 
L 81.21124 302.052713 
L 84.900496 302.085818 
L 88.589752 302.085818 
L 92.279008 302.074783 
L 95.968264 302.085818 
L 99.657521 302.085818 
L 103.346777 302.074783 
L 107.036033 302.074783 
L 110.725289 302.085818 
L 114.414545 302.085818 
L 118.103802 302.085818 
L 121.793058 302.074783 
L 125.482314 302.030643 
L 129.17157 302.085818 
L 132.860826 302.085818 
L 136.550083 302.074783 
L 140.239339 302.074783 
L 143.928595 302.085818 
L 147.617851 302.052713 
L 151.307107 302.074783 
L 154.996364 302.052713 
L 158.68562 302.041678 
L 162.374876 302.074783 
L 166.064132 302.074783 
L 169.753388 301.964433 
L 173.442645 302.085818 
L 177.131901 302.085818 
L 180.821157 302.052713 
L 184.510413 302.008573 
L 188.199669 301.942363 
L 191.888926 302.041678 
L 195.578182 302.008573 
L 199.267438 301.776839 
L 202.956694 301.942363 
L 206.64595 302.074783 
L 210.335207 301.986503 
L 214.024463 302.074783 
L 217.713719 301.953398 
L 221.402975 302.008573 
L 225.092231 301.511999 
L 228.781488 301.081634 
L 232.470744 301.02646 
L 236.16 302.063748 
L 239.849256 301.765804 
L 243.538512 301.732699 
L 247.227769 302.074783 
L 250.917025 301.313369 
L 254.606281 302.008573 
L 258.295537 301.00439 
L 261.984793 300.98232 
L 265.67405 301.589244 
L 269.363306 302.030643 
L 273.052562 302.063748 
L 276.741818 301.732699 
L 280.431074 301.765804 
L 284.120331 302.074783 
L 287.809587 300.43057 
L 291.498843 299.669156 
L 295.188099 300.419535 
L 298.877355 301.258194 
L 302.566612 290.377698 
L 306.255868 301.357509 
L 309.945124 297.307669 
L 313.63438 296.95455 
L 317.323636 299.580876 
L 321.012893 300.78369 
L 324.702149 297.561474 
L 328.391405 295.630351 
L 332.080661 301.787874 
L 335.769917 298.830497 
L 339.459174 286.283718 
L 343.14843 281.516604 
L 346.837686 291.966736 
L 350.526942 301.214054 
L 354.216198 301.556139 
L 357.905455 284.153966 
L 361.594711 257.791384 
L 365.283967 297.340774 
L 368.973223 267.568382 
L 372.662479 192.122182 
L 376.351736 277.301239 
L 380.040992 251.821457 
L 383.730248 292.286751 
L 387.419504 295.332407 
L 391.10876 290.554258 
L 394.798017 274.310758 
L 398.487273 256.798235 
" clip-path="url(#pdec7988a8f)" style="fill: none; stroke: #1f77b4; stroke-width: 1.5; stroke-linecap: square"/>
   </g>
   <g id="patch_8">
    <path d="M 57.6 307.584 
L 57.6 186.624 
" style="fill: none; stroke: #000000; stroke-width: 0.8; stroke-linejoin: miter; stroke-linecap: square"/>
   </g>
   <g id="patch_9">
    <path d="M 414.72 307.584 
L 414.72 186.624 
" style="fill: none; stroke: #000000; stroke-width: 0.8; stroke-linejoin: miter; stroke-linecap: square"/>
   </g>
   <g id="patch_10">
    <path d="M 57.6 307.584 
L 414.72 307.584 
" style="fill: none; stroke: #000000; stroke-width: 0.8; stroke-linejoin: miter; stroke-linecap: square"/>
   </g>
   <g id="patch_11">
    <path d="M 57.6 186.624 
L 414.72 186.624 
" style="fill: none; stroke: #000000; stroke-width: 0.8; stroke-linejoin: miter; stroke-linecap: square"/>
   </g>
  </g>
 </g>
 <defs>
  <clipPath id="p3348a788fc">
   <rect x="57.6" y="41.472" width="357.12" height="120.96"/>
  </clipPath>
  <clipPath id="pdec7988a8f">
   <rect x="57.6" y="186.624" width="357.12" height="120.96"/>
  </clipPath>
 </defs>
</svg>
